<svg xmlns="http://www.w3.org/2000/svg" xmlns:xlink="http://www.w3.org/1999/xlink" width="1200" zoomAndPan="magnify" viewBox="0 0 900 675.000002" height="900" preserveAspectRatio="xMidYMid meet" version="1.0"><defs><clipPath id="ab6378a5e5"><path d="M 0.664062 0 L 899.332031 0 L 899.332031 674 L 0.664062 674 Z M 0.664062 0 " clip-rule="nonzero"/></clipPath><clipPath id="1fd58947a6"><path d="M 583 505 L 652 505 L 652 672.746094 L 583 672.746094 Z M 583 505 " clip-rule="nonzero"/></clipPath><clipPath id="1f5ecc7ac2"><path d="M 536 617 L 831 617 L 831 672.746094 L 536 672.746094 Z M 536 617 " clip-rule="nonzero"/></clipPath><clipPath id="b6cd665059"><path d="M 597 404 L 828 404 L 828 672.746094 L 597 672.746094 Z M 597 404 " clip-rule="nonzero"/></clipPath><clipPath id="864ae34585"><path d="M 640 526 L 828 526 L 828 672.746094 L 640 672.746094 Z M 640 526 " clip-rule="nonzero"/></clipPath><clipPath id="744979d455"><path d="M 394 460 L 447 460 L 447 672.746094 L 394 672.746094 Z M 394 460 " clip-rule="nonzero"/></clipPath><clipPath id="85163af303"><path d="M 82 305 L 425 305 L 425 672.746094 L 82 672.746094 Z M 82 305 " clip-rule="nonzero"/></clipPath><clipPath id="9013752122"><path d="M 67 425 L 159 425 L 159 672.746094 L 67 672.746094 Z M 67 425 " clip-rule="nonzero"/></clipPath></defs><g clip-path="url(#ab6378a5e5)"><path fill="#ffffff" d="M 0.664062 0 L 899.335938 0 L 899.335938 674 L 0.664062 674 Z M 0.664062 0 " fill-opacity="1" fill-rule="nonzero"/><path fill="#ffffff" d="M 0.664062 0 L 899.335938 0 L 899.335938 674 L 0.664062 674 Z M 0.664062 0 " fill-opacity="1" fill-rule="nonzero"/><path fill="#bde4e0" d="M 0.664062 0.199219 L 899.335938 0.199219 L 899.335938 673.625 L 0.664062 673.625 Z M 0.664062 0.199219 " fill-opacity="1" fill-rule="nonzero"/></g><path fill="#26130f" d="M 593.21875 446.65625 C 579.664062 441.203125 586.039062 429.265625 586.039062 429.265625 C 577.972656 427.878906 582.683594 414.230469 582.683594 414.230469 C 573.789062 407.492188 581.40625 397.585938 581.40625 397.585938 C 578 388.914062 587.734375 380.574219 587.734375 380.574219 C 581.742188 369.132812 593.386719 366.09375 593.386719 366.09375 C 588.097656 354.5625 601.710938 346.695312 601.710938 346.695312 C 598.210938 335.765625 602.222656 327.867188 602.222656 327.867188 C 596.882812 313.707031 606.550781 305.800781 606.550781 305.800781 C 601.042969 294.339844 609.347656 288.496094 609.347656 288.496094 C 604.695312 277.792969 615.453125 276.136719 615.453125 276.136719 C 610.921875 268.9375 619.234375 270.933594 619.234375 270.933594 C 620.027344 258.667969 636.84375 242.027344 636.84375 242.027344 C 640.914062 230.550781 650.832031 229.601562 650.832031 229.601562 C 660.105469 221.398438 669.890625 223.8125 669.890625 223.8125 C 683.445312 216.714844 693.648438 223.238281 693.648438 223.238281 C 707.167969 217.070312 724.769531 226.027344 724.769531 226.027344 C 742.015625 222.953125 756.90625 238.691406 756.90625 238.691406 C 773.320312 239.257812 764.175781 257.695312 764.175781 257.695312 C 777.730469 263.148438 766.980469 276.9375 766.980469 276.9375 C 777.425781 277.214844 775.398438 309.011719 775.398438 309.011719 C 786.09375 310.359375 786.625 311.011719 786.625 311.011719 C 795.519531 314.753906 792.636719 323.035156 792.636719 323.035156 C 801.066406 330.46875 796.242188 336.660156 796.242188 336.660156 C 802.644531 345.335938 799.046875 348.683594 799.046875 348.683594 C 804.335938 360.214844 800.246094 364.320312 800.246094 364.320312 C 807.800781 369.765625 805.75 376.753906 805.75 376.753906 C 815.328125 383.582031 805.578125 391.75 805.578125 391.75 C 814.605469 397.382812 810.820312 407.359375 810.820312 407.359375 C 818.515625 411.699219 814.042969 424.570312 814.042969 424.570312 C 820.585938 432.136719 813.402344 444.78125 813.402344 444.78125 C 825.53125 454.238281 816.621094 467.070312 816.621094 467.070312 C 824.613281 479.171875 813.796875 487.011719 813.796875 487.011719 C 816.914062 497.820312 812.058594 503.136719 812.058594 503.136719 C 812.058594 503.136719 810.3125 525.015625 787.824219 521.207031 C 787.824219 521.207031 782.035156 534.429688 767.679688 525.015625 C 767.679688 525.015625 758.421875 538.121094 746.996094 523.046875 C 746.996094 523.046875 744.375 531.28125 736.539062 523 " fill-opacity="1" fill-rule="nonzero"/><path fill="#be9e7d" d="M 651.277344 270.359375 C 651.277344 270.359375 637.253906 270.617188 631.269531 302.195312 C 631.269531 302.195312 632.042969 312.804688 629.605469 318.761719 C 627.164062 324.726562 625.167969 344.527344 626.347656 356.253906 C 627.527344 367.972656 633.042969 388.199219 649.734375 399.214844 C 666.429688 410.234375 696.410156 399.015625 696.410156 399.015625 C 696.410156 399.015625 726.894531 388.628906 735.539062 371.632812 C 735.539062 371.632812 744.785156 384.371094 756.636719 376.457031 C 768.484375 368.546875 783.09375 346.277344 772.035156 338.375 C 762.539062 331.59375 751.527344 343.972656 748.59375 347.621094 C 748.109375 348.21875 747.847656 348.582031 747.847656 348.582031 C 747.847656 348.582031 720.449219 305.046875 728.132812 278.75 C 728.132812 278.75 708.480469 290.652344 688.136719 280.898438 C 688.136719 280.898438 661.785156 288.21875 651.277344 270.339844 Z M 651.277344 270.359375 " fill-opacity="1" fill-rule="nonzero"/><path stroke-linecap="butt" transform="matrix(0.673937, 0, 0, 0.673937, 0.665679, 0.1985)" fill-opacity="1" fill="#1c75bc" fill-rule="nonzero" stroke-linejoin="miter" d="M 1081.022182 436.44039 C 1049.357755 393.600965 915.32733 401.130178 915.32733 401.130178 C 915.32733 401.130178 955.987399 287.75727 1058.492504 309.162493 C 1142.032571 326.597345 1157.612652 371.11186 1157.612652 464.598139 C 1157.612652 464.598139 1100.172697 462.349229 1081.022182 436.44039 Z M 1081.022182 436.44039 " stroke="#27aae1" stroke-width="1" stroke-opacity="1" stroke-miterlimit="10"/><g clip-path="url(#1fd58947a6)"><path fill="#be9e7d" d="M 599.59375 505.941406 L 598.300781 615.121094 L 583.070312 684.097656 L 643.082031 691.261719 L 651.148438 632.144531 L 626.066406 513.902344 Z M 599.59375 505.941406 " fill-opacity="1" fill-rule="nonzero"/></g><path fill="#be9e7d" d="M 734.015625 367.183594 C 734.015625 367.183594 726.765625 404.660156 760.28125 421.820312 C 760.28125 421.820312 744.652344 462.136719 742.503906 477.300781 C 742.503906 477.300781 667.289062 491.75 617.089844 463.207031 C 617.089844 463.207031 653.871094 427.246094 661.765625 405.652344 C 661.765625 405.652344 668.335938 388.796875 666.570312 380.8125 Z M 734.015625 367.183594 " fill-opacity="1" fill-rule="nonzero"/><path fill="#231f20" d="M 689.226562 305.335938 C 689.226562 305.335938 707.902344 306.09375 721.804688 315.585938 C 721.804688 315.585938 716.945312 303.910156 689.941406 301.003906 C 689.941406 301.003906 684.933594 302.472656 689.226562 305.335938 Z M 689.226562 305.335938 " fill-opacity="1" fill-rule="nonzero"/><path fill="#231f20" d="M 631.929688 300.941406 C 644.910156 298.878906 654.140625 300.679688 654.140625 300.679688 C 658.988281 298.90625 654.464844 296.300781 654.464844 296.300781 C 646.074219 295.199219 636.640625 296.171875 631.667969 297.019531 C 631.667969 297.019531 631.222656 301.058594 631.929688 300.941406 Z M 631.929688 300.941406 " fill-opacity="1" fill-rule="nonzero"/><path stroke-linecap="butt" transform="matrix(0.673937, 0, 0, 0.673937, 0.665679, 0.1985)" fill="none" stroke-linejoin="miter" d="M 979.461851 485.157122 C 979.461851 485.157122 960.792416 498.557846 976.528993 511.002204 " stroke="#231f20" stroke-width="1.5" stroke-opacity="1" stroke-miterlimit="10"/><path stroke-linecap="butt" transform="matrix(0.673937, 0, 0, 0.673937, 0.665679, 0.1985)" fill="none" stroke-linejoin="miter" d="M 1143.290338 526.472157 C 1143.290338 526.472157 1136.827619 512.839587 1125.809117 524.252227 C 1114.790615 535.64748 1113.689345 539.820716 1113.689345 539.820716 C 1113.689345 539.820716 1129.762099 521.499051 1132.700752 538.452822 " stroke="#231f20" stroke-width="1.5" stroke-opacity="1" stroke-miterlimit="10"/><path fill="#f16225" d="M 758.035156 341.8125 C 758.035156 341.8125 748.863281 350.800781 755.941406 356.589844 C 763.015625 362.378906 750.515625 357.734375 750.515625 357.734375 C 750.515625 357.734375 742.132812 352.703125 755.238281 337.933594 L 758.042969 341.8125 Z M 758.035156 341.8125 " fill-opacity="1" fill-rule="nonzero"/><path fill="#ffffff" d="M 755.941406 356.589844 C 755.941406 356.589844 761.796875 345.691406 769.441406 349.171875 C 777.082031 352.648438 766.644531 365.527344 766.644531 365.527344 C 766.644531 365.527344 763.832031 368.476562 759.40625 367.609375 C 759.40625 367.609375 764.730469 360.464844 755.941406 356.589844 Z M 755.941406 356.589844 " fill-opacity="1" fill-rule="nonzero"/><path fill="#1fa8df" d="M 777.21875 344.707031 C 777.21875 344.707031 783.277344 349.222656 782.191406 341.148438 C 781.097656 333.078125 769.785156 331.269531 766.117188 331.359375 C 762.449219 331.445312 757.019531 332.503906 755.234375 337.933594 C 753.445312 343.367188 761.917969 339.492188 761.917969 339.492188 C 761.917969 339.492188 772.289062 333.65625 777.21875 344.707031 Z M 777.21875 344.707031 " fill-opacity="1" fill-rule="nonzero"/><path fill="#ffffff" d="M 708.785156 324.492188 C 708.785156 324.492188 708.878906 323.984375 708.582031 323.492188 C 707.585938 321.863281 705.179688 318.722656 700.652344 317.90625 C 695.582031 316.996094 691.929688 321.253906 690.667969 322.777344 C 690.453125 323.042969 690.421875 323.304688 690.421875 323.304688 C 690.421875 323.304688 690.351562 323.582031 690.488281 323.808594 C 691.128906 324.894531 693.351562 328 698.144531 328.9375 C 700.996094 329.496094 705.28125 328.683594 708.46875 325.253906 C 708.691406 325.015625 708.765625 324.671875 708.792969 324.484375 Z M 708.785156 324.492188 " fill-opacity="1" fill-rule="nonzero"/><path fill="#26130f" d="M 703.488281 323.507812 C 703.488281 323.855469 703.453125 324.203125 703.386719 324.546875 C 703.316406 324.886719 703.214844 325.222656 703.082031 325.542969 C 702.949219 325.867188 702.785156 326.171875 702.589844 326.464844 C 702.394531 326.753906 702.175781 327.023438 701.929688 327.269531 C 701.679688 327.519531 701.414062 327.738281 701.121094 327.933594 C 700.832031 328.128906 700.523438 328.292969 700.203125 328.425781 C 699.878906 328.558594 699.546875 328.660156 699.203125 328.726562 C 698.859375 328.796875 698.511719 328.832031 698.164062 328.832031 C 697.8125 328.832031 697.46875 328.796875 697.125 328.726562 C 696.78125 328.660156 696.449219 328.558594 696.125 328.425781 C 695.804688 328.292969 695.496094 328.128906 695.207031 327.933594 C 694.914062 327.738281 694.644531 327.519531 694.398438 327.269531 C 694.152344 327.023438 693.929688 326.753906 693.738281 326.464844 C 693.542969 326.171875 693.378906 325.867188 693.246094 325.542969 C 693.113281 325.222656 693.011719 324.886719 692.941406 324.546875 C 692.875 324.203125 692.839844 323.855469 692.839844 323.507812 C 692.839844 323.15625 692.875 322.8125 692.941406 322.46875 C 693.011719 322.125 693.113281 321.792969 693.246094 321.46875 C 693.378906 321.144531 693.542969 320.839844 693.738281 320.546875 C 693.929688 320.257812 694.152344 319.988281 694.398438 319.742188 C 694.644531 319.496094 694.914062 319.273438 695.207031 319.078125 C 695.496094 318.886719 695.804688 318.722656 696.125 318.585938 C 696.449219 318.453125 696.78125 318.351562 697.125 318.285156 C 697.46875 318.214844 697.8125 318.183594 698.164062 318.183594 C 698.511719 318.183594 698.859375 318.214844 699.203125 318.285156 C 699.546875 318.351562 699.878906 318.453125 700.203125 318.585938 C 700.523438 318.722656 700.832031 318.886719 701.121094 319.078125 C 701.414062 319.273438 701.679688 319.496094 701.929688 319.742188 C 702.175781 319.988281 702.394531 320.257812 702.589844 320.546875 C 702.785156 320.839844 702.949219 321.144531 703.082031 321.46875 C 703.214844 321.792969 703.316406 322.125 703.386719 322.46875 C 703.453125 322.8125 703.488281 323.15625 703.488281 323.507812 Z M 703.488281 323.507812 " fill-opacity="1" fill-rule="nonzero"/><path fill="#ffffff" d="M 702.132812 326.527344 C 702.132812 326.71875 702.097656 326.90625 702.023438 327.085938 C 701.949219 327.265625 701.84375 327.421875 701.703125 327.558594 C 701.566406 327.695312 701.410156 327.800781 701.230469 327.875 C 701.050781 327.949219 700.863281 327.988281 700.671875 327.988281 C 700.476562 327.988281 700.289062 327.949219 700.109375 327.875 C 699.933594 327.800781 699.773438 327.695312 699.636719 327.558594 C 699.5 327.421875 699.394531 327.265625 699.320312 327.085938 C 699.246094 326.90625 699.207031 326.71875 699.207031 326.527344 C 699.207031 326.332031 699.246094 326.144531 699.320312 325.964844 C 699.394531 325.785156 699.5 325.628906 699.636719 325.492188 C 699.773438 325.355469 699.933594 325.25 700.109375 325.175781 C 700.289062 325.101562 700.476562 325.0625 700.671875 325.0625 C 700.863281 325.0625 701.050781 325.101562 701.230469 325.175781 C 701.410156 325.25 701.566406 325.355469 701.707031 325.492188 C 701.84375 325.628906 701.949219 325.785156 702.023438 325.964844 C 702.097656 326.144531 702.132812 326.332031 702.132812 326.527344 Z M 702.132812 326.527344 " fill-opacity="1" fill-rule="nonzero"/><path stroke-linecap="butt" transform="matrix(0.673937, 0, 0, 0.673937, 0.665679, 0.1985)" fill="none" stroke-linejoin="miter" d="M 1023.367769 478.590072 C 1023.367769 478.590072 1035.759961 462.279675 1050.719853 479.697139 " stroke="#231f20" stroke-width="1.5" stroke-opacity="1" stroke-miterlimit="10"/><path fill="#ffffff" d="M 653.28125 317.152344 C 653.28125 317.152344 653.441406 316.699219 653.234375 316.207031 C 652.546875 314.578125 650.78125 311.355469 646.742188 309.96875 C 642.21875 308.417969 638.269531 311.808594 636.902344 313.035156 C 636.667969 313.242188 636.601562 313.476562 636.601562 313.476562 C 636.601562 313.476562 636.5 313.726562 636.585938 313.949219 C 637.019531 315.035156 638.621094 318.195312 642.882812 319.734375 C 645.414062 320.648438 649.464844 320.507812 652.867188 317.804688 C 653.105469 317.617188 653.21875 317.3125 653.273438 317.144531 Z M 653.28125 317.152344 " fill-opacity="1" fill-rule="nonzero"/><path fill="#26130f" d="M 648.609375 314.738281 C 648.609375 315.0625 648.578125 315.382812 648.515625 315.699219 C 648.453125 316.015625 648.359375 316.324219 648.234375 316.625 C 648.109375 316.921875 647.957031 317.207031 647.777344 317.476562 C 647.597656 317.746094 647.394531 317.992188 647.167969 318.222656 C 646.9375 318.449219 646.6875 318.65625 646.417969 318.835938 C 646.152344 319.015625 645.867188 319.167969 645.566406 319.289062 C 645.269531 319.414062 644.960938 319.507812 644.644531 319.570312 C 644.328125 319.632812 644.007812 319.664062 643.683594 319.664062 C 643.359375 319.664062 643.039062 319.632812 642.722656 319.570312 C 642.40625 319.507812 642.097656 319.414062 641.796875 319.289062 C 641.5 319.167969 641.214844 319.015625 640.945312 318.835938 C 640.675781 318.65625 640.429688 318.449219 640.199219 318.222656 C 639.96875 317.992188 639.765625 317.746094 639.585938 317.476562 C 639.40625 317.207031 639.253906 316.921875 639.132812 316.625 C 639.007812 316.324219 638.914062 316.015625 638.851562 315.699219 C 638.789062 315.382812 638.757812 315.0625 638.757812 314.738281 C 638.757812 314.414062 638.789062 314.09375 638.851562 313.777344 C 638.914062 313.460938 639.007812 313.152344 639.132812 312.851562 C 639.253906 312.554688 639.40625 312.269531 639.585938 312 C 639.765625 311.734375 639.96875 311.484375 640.199219 311.253906 C 640.429688 311.027344 640.675781 310.820312 640.945312 310.640625 C 641.214844 310.460938 641.5 310.3125 641.796875 310.1875 C 642.097656 310.0625 642.40625 309.96875 642.722656 309.90625 C 643.039062 309.84375 643.359375 309.8125 643.683594 309.8125 C 644.007812 309.8125 644.328125 309.84375 644.644531 309.90625 C 644.960938 309.96875 645.269531 310.0625 645.566406 310.1875 C 645.867188 310.3125 646.152344 310.460938 646.417969 310.640625 C 646.6875 310.820312 646.9375 311.027344 647.167969 311.253906 C 647.394531 311.484375 647.597656 311.734375 647.777344 312 C 647.957031 312.269531 648.109375 312.554688 648.234375 312.851562 C 648.359375 313.152344 648.453125 313.460938 648.515625 313.777344 C 648.578125 314.09375 648.609375 314.414062 648.609375 314.738281 Z M 648.609375 314.738281 " fill-opacity="1" fill-rule="nonzero"/><path fill="#ffffff" d="M 647.390625 317.582031 C 647.390625 317.765625 647.355469 317.941406 647.285156 318.109375 C 647.214844 318.28125 647.113281 318.429688 646.984375 318.558594 C 646.855469 318.6875 646.707031 318.789062 646.535156 318.859375 C 646.367188 318.929688 646.191406 318.964844 646.007812 318.964844 C 645.824219 318.964844 645.648438 318.929688 645.480469 318.859375 C 645.308594 318.789062 645.160156 318.6875 645.03125 318.558594 C 644.902344 318.429688 644.800781 318.28125 644.730469 318.109375 C 644.660156 317.941406 644.625 317.765625 644.625 317.582031 C 644.625 317.398438 644.660156 317.222656 644.730469 317.054688 C 644.800781 316.882812 644.902344 316.734375 645.03125 316.605469 C 645.160156 316.476562 645.308594 316.375 645.480469 316.304688 C 645.648438 316.234375 645.824219 316.199219 646.007812 316.199219 C 646.191406 316.199219 646.367188 316.234375 646.535156 316.304688 C 646.707031 316.375 646.855469 316.476562 646.984375 316.605469 C 647.113281 316.734375 647.214844 316.882812 647.285156 317.054688 C 647.355469 317.222656 647.390625 317.398438 647.390625 317.582031 Z M 647.390625 317.582031 " fill-opacity="1" fill-rule="nonzero"/><path stroke-linecap="butt" transform="matrix(0.673937, 0, 0, 0.673937, 0.665679, 0.1985)" fill="none" stroke-linejoin="miter" d="M 943.879219 464.377885 C 943.879219 464.377885 957.361089 450.038183 968.408572 469.252457 " stroke="#231f20" stroke-width="1.5" stroke-opacity="1" stroke-miterlimit="10"/><g clip-path="url(#1f5ecc7ac2)"><path fill="#0f3e5d" d="M 803.730469 617.605469 C 803.730469 617.605469 853.59375 711.019531 816.0625 778.703125 C 776.488281 850.066406 650.097656 833.480469 650.097656 833.480469 C 650.097656 833.480469 595.800781 832.152344 577.253906 771.238281 C 577.253906 771.238281 541.492188 771.238281 536.195312 747.398438 C 536.195312 747.398438 602.417969 666.609375 640.824219 653.367188 C 640.824219 653.367188 654.066406 689.125 803.730469 617.605469 Z M 803.730469 617.605469 " fill-opacity="1" fill-rule="nonzero"/></g><g clip-path="url(#b6cd665059)"><path fill="#59bede" d="M 629.765625 646.289062 C 629.765625 646.289062 618.140625 582.59375 618.523438 535.601562 C 618.523438 535.601562 605.121094 524.648438 597.605469 505.535156 L 610.742188 450.199219 C 610.742188 450.199219 623.25 417.667969 661.765625 405.644531 C 661.765625 405.644531 655.617188 433.648438 684.800781 441.121094 C 684.800781 441.121094 728.417969 448.644531 747.1875 404.648438 C 747.1875 404.648438 789.996094 412.363281 809.882812 453.839844 C 828.902344 493.5 826.96875 524.769531 826.96875 524.769531 C 826.96875 524.769531 816.664062 528.25 815.394531 537.992188 C 811.34375 569.210938 825.398438 648.824219 826.710938 674.539062 C 826.710938 674.539062 644.734375 709.933594 629.765625 646.289062 Z M 629.765625 646.289062 " fill-opacity="1" fill-rule="nonzero"/></g><path fill="#0f3e5d" d="M 740.878906 402.992188 C 740.878906 402.992188 738.605469 440.328125 691 441.824219 C 691 441.824219 656.621094 440.703125 661.765625 405.652344 C 661.765625 405.652344 658.550781 406.125 656.515625 407.40625 C 656.515625 407.40625 654.324219 443.0625 690.683594 446.609375 C 690.683594 446.609375 724.988281 447 736.714844 424.765625 C 736.714844 424.765625 744.308594 412.90625 747.191406 404.648438 L 740.886719 402.992188 Z M 740.878906 402.992188 " fill-opacity="1" fill-rule="nonzero"/><path stroke-linecap="butt" transform="matrix(0.673937, 0, 0, 0.673937, 0.665679, 0.1985)" fill="none" stroke-linejoin="miter" d="M 917.060382 795.390838 C 917.060382 795.390838 914.747714 756.927514 921.888584 732.357588 " stroke="#006838" stroke-width="1" stroke-opacity="1" stroke-miterlimit="10"/><g clip-path="url(#864ae34585)"><path fill="#be9e7d" d="M 826.21875 526.429688 C 826.21875 526.429688 836.78125 628.347656 784.125 661.574219 C 731.464844 694.800781 708.347656 712.511719 708.347656 712.511719 L 697.5625 728.847656 L 671.53125 752.507812 C 671.53125 752.507812 666.476562 754.570312 663.09375 751.605469 C 663.09375 751.605469 653.609375 754.234375 649.445312 746.316406 C 649.445312 746.316406 644.585938 745.816406 644.066406 740.746094 C 644.066406 740.746094 635.171875 735.6875 644.054688 730.820312 C 652.929688 725.953125 659.898438 722.492188 666.605469 712.300781 C 666.605469 712.300781 667.082031 704.347656 661.757812 706.519531 C 656.433594 708.6875 649.417969 712.792969 648.117188 709.605469 C 646.816406 706.410156 653.078125 701.988281 653.078125 701.988281 C 653.078125 701.988281 662.722656 692.15625 670.992188 691.878906 C 679.261719 691.609375 690.832031 690.296875 690.832031 690.296875 L 764.167969 609.140625 L 763.75 535.121094 " fill-opacity="1" fill-rule="nonzero"/></g><path fill="#0f3e5d" d="M 681.160156 453.570312 C 681.160156 454.105469 681.109375 454.632812 681.003906 455.15625 C 680.898438 455.679688 680.746094 456.1875 680.542969 456.683594 C 680.335938 457.175781 680.085938 457.644531 679.789062 458.089844 C 679.492188 458.53125 679.15625 458.945312 678.777344 459.320312 C 678.398438 459.699219 677.988281 460.035156 677.546875 460.332031 C 677.101562 460.628906 676.632812 460.878906 676.140625 461.085938 C 675.644531 461.289062 675.136719 461.445312 674.613281 461.546875 C 674.089844 461.652344 673.558594 461.703125 673.027344 461.703125 C 672.492188 461.703125 671.964844 461.652344 671.4375 461.546875 C 670.914062 461.445312 670.40625 461.289062 669.914062 461.085938 C 669.417969 460.878906 668.949219 460.628906 668.507812 460.332031 C 668.0625 460.035156 667.652344 459.699219 667.273438 459.320312 C 666.894531 458.945312 666.558594 458.53125 666.261719 458.089844 C 665.964844 457.644531 665.714844 457.175781 665.511719 456.683594 C 665.304688 456.1875 665.152344 455.679688 665.046875 455.15625 C 664.945312 454.632812 664.890625 454.105469 664.890625 453.570312 C 664.890625 453.035156 664.945312 452.507812 665.046875 451.984375 C 665.152344 451.457031 665.304688 450.949219 665.511719 450.457031 C 665.714844 449.964844 665.964844 449.496094 666.261719 449.050781 C 666.558594 448.605469 666.898438 448.195312 667.273438 447.816406 C 667.652344 447.441406 668.0625 447.101562 668.507812 446.804688 C 668.949219 446.507812 669.417969 446.257812 669.914062 446.054688 C 670.40625 445.851562 670.914062 445.695312 671.4375 445.589844 C 671.964844 445.488281 672.492188 445.433594 673.027344 445.433594 C 673.558594 445.433594 674.089844 445.488281 674.613281 445.589844 C 675.136719 445.695312 675.644531 445.851562 676.140625 446.054688 C 676.632812 446.257812 677.101562 446.507812 677.546875 446.804688 C 677.988281 447.101562 678.398438 447.441406 678.777344 447.816406 C 679.15625 448.195312 679.492188 448.605469 679.789062 449.050781 C 680.085938 449.496094 680.335938 449.964844 680.542969 450.457031 C 680.746094 450.949219 680.898438 451.457031 681.003906 451.984375 C 681.109375 452.507812 681.160156 453.035156 681.160156 453.570312 Z M 681.160156 453.570312 " fill-opacity="1" fill-rule="nonzero"/><path fill="#0f3e5d" d="M 697.066406 457.039062 C 697.066406 457.574219 697.011719 458.105469 696.910156 458.628906 C 696.804688 459.152344 696.652344 459.660156 696.445312 460.152344 C 696.242188 460.648438 695.992188 461.117188 695.695312 461.558594 C 695.398438 462.003906 695.0625 462.414062 694.683594 462.792969 C 694.304688 463.171875 693.894531 463.507812 693.449219 463.804688 C 693.007812 464.101562 692.539062 464.351562 692.042969 464.554688 C 691.550781 464.761719 691.042969 464.914062 690.519531 465.019531 C 689.992188 465.121094 689.464844 465.175781 688.929688 465.175781 C 688.398438 465.175781 687.867188 465.121094 687.34375 465.019531 C 686.820312 464.914062 686.3125 464.761719 685.816406 464.554688 C 685.324219 464.351562 684.855469 464.101562 684.410156 463.804688 C 683.96875 463.507812 683.558594 463.171875 683.179688 462.792969 C 682.800781 462.414062 682.464844 462.003906 682.167969 461.558594 C 681.871094 461.117188 681.621094 460.648438 681.414062 460.152344 C 681.210938 459.660156 681.058594 459.152344 680.953125 458.628906 C 680.847656 458.105469 680.796875 457.574219 680.796875 457.039062 C 680.796875 456.507812 680.847656 455.976562 680.953125 455.453125 C 681.058594 454.929688 681.210938 454.421875 681.414062 453.925781 C 681.621094 453.433594 681.871094 452.964844 682.167969 452.519531 C 682.464844 452.078125 682.800781 451.667969 683.179688 451.289062 C 683.558594 450.910156 683.96875 450.574219 684.410156 450.277344 C 684.855469 449.980469 685.324219 449.730469 685.816406 449.523438 C 686.3125 449.320312 686.820312 449.167969 687.34375 449.0625 C 687.867188 448.957031 688.398438 448.90625 688.929688 448.90625 C 689.464844 448.90625 689.992188 448.957031 690.519531 449.0625 C 691.042969 449.167969 691.550781 449.320312 692.042969 449.523438 C 692.539062 449.730469 693.007812 449.980469 693.449219 450.277344 C 693.894531 450.574219 694.304688 450.910156 694.683594 451.289062 C 695.0625 451.667969 695.398438 452.078125 695.695312 452.519531 C 695.992188 452.964844 696.242188 453.433594 696.445312 453.925781 C 696.652344 454.421875 696.804688 454.929688 696.910156 455.453125 C 697.011719 455.976562 697.066406 456.507812 697.066406 457.039062 Z M 697.066406 457.039062 " fill-opacity="1" fill-rule="nonzero"/><path fill="#0f3e5d" d="M 713.792969 456.398438 C 713.792969 456.933594 713.742188 457.464844 713.636719 457.988281 C 713.53125 458.511719 713.378906 459.019531 713.171875 459.511719 C 712.96875 460.007812 712.71875 460.476562 712.421875 460.917969 C 712.125 461.363281 711.789062 461.773438 711.410156 462.152344 C 711.03125 462.53125 710.621094 462.867188 710.175781 463.164062 C 709.734375 463.460938 709.265625 463.710938 708.769531 463.914062 C 708.277344 464.121094 707.769531 464.273438 707.246094 464.378906 C 706.722656 464.484375 706.191406 464.535156 705.660156 464.535156 C 705.125 464.535156 704.59375 464.484375 704.070312 464.378906 C 703.546875 464.273438 703.039062 464.121094 702.546875 463.914062 C 702.050781 463.710938 701.582031 463.460938 701.140625 463.164062 C 700.695312 462.867188 700.285156 462.53125 699.90625 462.152344 C 699.527344 461.773438 699.191406 461.363281 698.894531 460.917969 C 698.597656 460.476562 698.347656 460.007812 698.144531 459.511719 C 697.9375 459.019531 697.785156 458.511719 697.679688 457.988281 C 697.574219 457.464844 697.523438 456.933594 697.523438 456.398438 C 697.523438 455.867188 697.574219 455.335938 697.679688 454.8125 C 697.785156 454.289062 697.9375 453.78125 698.144531 453.289062 C 698.347656 452.792969 698.597656 452.324219 698.894531 451.882812 C 699.191406 451.4375 699.527344 451.027344 699.90625 450.648438 C 700.285156 450.269531 700.695312 449.933594 701.140625 449.636719 C 701.582031 449.339844 702.050781 449.089844 702.546875 448.886719 C 703.039062 448.679688 703.546875 448.527344 704.070312 448.421875 C 704.59375 448.316406 705.125 448.265625 705.660156 448.265625 C 706.191406 448.265625 706.722656 448.316406 707.246094 448.421875 C 707.769531 448.527344 708.277344 448.679688 708.769531 448.886719 C 709.265625 449.089844 709.734375 449.339844 710.175781 449.636719 C 710.621094 449.933594 711.03125 450.269531 711.410156 450.648438 C 711.789062 451.027344 712.125 451.4375 712.421875 451.882812 C 712.71875 452.324219 712.96875 452.792969 713.171875 453.289062 C 713.378906 453.78125 713.53125 454.289062 713.636719 454.8125 C 713.742188 455.335938 713.792969 455.867188 713.792969 456.398438 Z M 713.792969 456.398438 " fill-opacity="1" fill-rule="nonzero"/><path fill="#0f3e5d" d="M 730.316406 453.085938 C 730.316406 453.617188 730.265625 454.148438 730.160156 454.671875 C 730.058594 455.195312 729.902344 455.703125 729.699219 456.199219 C 729.492188 456.691406 729.242188 457.160156 728.945312 457.605469 C 728.648438 458.046875 728.3125 458.457031 727.933594 458.835938 C 727.558594 459.214844 727.144531 459.550781 726.703125 459.847656 C 726.257812 460.144531 725.789062 460.394531 725.296875 460.601562 C 724.800781 460.804688 724.292969 460.957031 723.769531 461.0625 C 723.246094 461.167969 722.71875 461.21875 722.183594 461.21875 C 721.648438 461.21875 721.121094 461.167969 720.597656 461.0625 C 720.074219 460.957031 719.5625 460.804688 719.070312 460.601562 C 718.578125 460.394531 718.109375 460.144531 717.664062 459.847656 C 717.21875 459.550781 716.808594 459.214844 716.429688 458.835938 C 716.054688 458.457031 715.714844 458.046875 715.417969 457.605469 C 715.121094 457.160156 714.871094 456.691406 714.667969 456.199219 C 714.464844 455.703125 714.308594 455.195312 714.203125 454.671875 C 714.101562 454.148438 714.046875 453.617188 714.046875 453.085938 C 714.046875 452.550781 714.101562 452.019531 714.203125 451.496094 C 714.308594 450.972656 714.464844 450.464844 714.667969 449.972656 C 714.871094 449.476562 715.121094 449.007812 715.417969 448.566406 C 715.714844 448.121094 716.054688 447.710938 716.429688 447.332031 C 716.808594 446.953125 717.21875 446.617188 717.664062 446.320312 C 718.109375 446.023438 718.578125 445.773438 719.070312 445.570312 C 719.5625 445.363281 720.074219 445.210938 720.597656 445.105469 C 721.121094 445.003906 721.648438 444.949219 722.183594 444.949219 C 722.71875 444.949219 723.246094 445.003906 723.769531 445.105469 C 724.292969 445.210938 724.800781 445.363281 725.296875 445.570312 C 725.789062 445.773438 726.257812 446.023438 726.703125 446.320312 C 727.144531 446.617188 727.558594 446.953125 727.933594 447.332031 C 728.3125 447.710938 728.648438 448.121094 728.945312 448.566406 C 729.242188 449.007812 729.492188 449.476562 729.699219 449.972656 C 729.902344 450.464844 730.058594 450.972656 730.160156 451.496094 C 730.265625 452.019531 730.316406 452.550781 730.316406 453.085938 Z M 730.316406 453.085938 " fill-opacity="1" fill-rule="nonzero"/><path fill="#0f3e5d" d="M 744.800781 445.117188 C 744.800781 445.652344 744.75 446.179688 744.644531 446.707031 C 744.539062 447.230469 744.386719 447.738281 744.179688 448.230469 C 743.976562 448.726562 743.726562 449.195312 743.429688 449.636719 C 743.132812 450.082031 742.796875 450.492188 742.417969 450.871094 C 742.039062 451.25 741.628906 451.585938 741.183594 451.882812 C 740.742188 452.179688 740.273438 452.429688 739.777344 452.632812 C 739.285156 452.839844 738.777344 452.992188 738.253906 453.097656 C 737.730469 453.199219 737.199219 453.253906 736.667969 453.253906 C 736.132812 453.253906 735.601562 453.199219 735.078125 453.097656 C 734.554688 452.992188 734.046875 452.839844 733.554688 452.632812 C 733.058594 452.429688 732.589844 452.179688 732.148438 451.882812 C 731.703125 451.585938 731.292969 451.25 730.914062 450.871094 C 730.535156 450.492188 730.199219 450.082031 729.902344 449.636719 C 729.605469 449.195312 729.355469 448.726562 729.152344 448.230469 C 728.945312 447.738281 728.792969 447.230469 728.6875 446.707031 C 728.582031 446.179688 728.53125 445.652344 728.53125 445.117188 C 728.53125 444.585938 728.582031 444.054688 728.6875 443.53125 C 728.792969 443.007812 728.945312 442.5 729.152344 442.003906 C 729.355469 441.511719 729.605469 441.042969 729.902344 440.597656 C 730.199219 440.15625 730.535156 439.746094 730.914062 439.367188 C 731.292969 438.988281 731.703125 438.652344 732.148438 438.355469 C 732.589844 438.058594 733.058594 437.808594 733.554688 437.601562 C 734.046875 437.398438 734.554688 437.246094 735.078125 437.140625 C 735.601562 437.035156 736.132812 436.984375 736.667969 436.984375 C 737.199219 436.984375 737.730469 437.035156 738.253906 437.140625 C 738.777344 437.246094 739.285156 437.398438 739.777344 437.601562 C 740.273438 437.808594 740.742188 438.058594 741.183594 438.355469 C 741.628906 438.652344 742.039062 438.988281 742.417969 439.367188 C 742.796875 439.746094 743.132812 440.15625 743.429688 440.597656 C 743.726562 441.042969 743.976562 441.511719 744.179688 442.003906 C 744.386719 442.5 744.539062 443.007812 744.644531 443.53125 C 744.75 444.054688 744.800781 444.585938 744.800781 445.117188 Z M 744.800781 445.117188 " fill-opacity="1" fill-rule="nonzero"/><path fill="#0f3e5d" d="M 754.425781 433.648438 C 754.425781 434.183594 754.371094 434.710938 754.269531 435.234375 C 754.164062 435.757812 754.007812 436.265625 753.804688 436.761719 C 753.601562 437.253906 753.351562 437.722656 753.054688 438.167969 C 752.757812 438.613281 752.417969 439.023438 752.042969 439.398438 C 751.664062 439.777344 751.253906 440.113281 750.808594 440.410156 C 750.363281 440.707031 749.894531 440.957031 749.402344 441.164062 C 748.910156 441.367188 748.402344 441.523438 747.875 441.625 C 747.351562 441.730469 746.824219 441.78125 746.289062 441.78125 C 745.753906 441.78125 745.226562 441.730469 744.703125 441.625 C 744.179688 441.523438 743.671875 441.367188 743.175781 441.164062 C 742.683594 440.957031 742.214844 440.707031 741.769531 440.410156 C 741.328125 440.113281 740.914062 439.777344 740.539062 439.398438 C 740.160156 439.023438 739.824219 438.613281 739.527344 438.167969 C 739.230469 437.722656 738.980469 437.253906 738.773438 436.761719 C 738.570312 436.265625 738.414062 435.757812 738.3125 435.234375 C 738.207031 434.710938 738.15625 434.183594 738.15625 433.648438 C 738.15625 433.113281 738.207031 432.585938 738.3125 432.0625 C 738.414062 431.539062 738.570312 431.027344 738.773438 430.535156 C 738.980469 430.042969 739.230469 429.574219 739.527344 429.128906 C 739.824219 428.683594 740.160156 428.273438 740.539062 427.894531 C 740.914062 427.519531 741.328125 427.179688 741.769531 426.882812 C 742.214844 426.585938 742.683594 426.335938 743.175781 426.132812 C 743.671875 425.929688 744.179688 425.773438 744.703125 425.671875 C 745.226562 425.566406 745.753906 425.515625 746.289062 425.515625 C 746.824219 425.515625 747.351562 425.566406 747.875 425.671875 C 748.402344 425.773438 748.910156 425.929688 749.402344 426.132812 C 749.894531 426.335938 750.363281 426.585938 750.808594 426.882812 C 751.253906 427.179688 751.664062 427.519531 752.042969 427.894531 C 752.417969 428.273438 752.757812 428.683594 753.054688 429.128906 C 753.351562 429.574219 753.601562 430.042969 753.804688 430.535156 C 754.007812 431.027344 754.164062 431.539062 754.269531 432.0625 C 754.371094 432.585938 754.425781 433.113281 754.425781 433.648438 Z M 754.425781 433.648438 " fill-opacity="1" fill-rule="nonzero"/><path fill="#0f3e5d" d="M 666.785156 445.757812 C 666.785156 446.292969 666.734375 446.820312 666.628906 447.34375 C 666.523438 447.871094 666.371094 448.378906 666.167969 448.871094 C 665.960938 449.363281 665.710938 449.832031 665.414062 450.277344 C 665.117188 450.722656 664.78125 451.132812 664.402344 451.511719 C 664.023438 451.886719 663.613281 452.226562 663.171875 452.523438 C 662.726562 452.820312 662.257812 453.070312 661.765625 453.273438 C 661.269531 453.476562 660.761719 453.632812 660.238281 453.738281 C 659.714844 453.839844 659.183594 453.894531 658.652344 453.894531 C 658.117188 453.894531 657.589844 453.839844 657.0625 453.738281 C 656.539062 453.632812 656.03125 453.476562 655.539062 453.273438 C 655.042969 453.070312 654.574219 452.820312 654.132812 452.523438 C 653.6875 452.226562 653.277344 451.886719 652.898438 451.511719 C 652.519531 451.132812 652.183594 450.722656 651.886719 450.277344 C 651.589844 449.832031 651.339844 449.363281 651.136719 448.871094 C 650.929688 448.378906 650.777344 447.871094 650.671875 447.34375 C 650.570312 446.820312 650.515625 446.292969 650.515625 445.757812 C 650.515625 445.226562 650.570312 444.695312 650.671875 444.171875 C 650.777344 443.648438 650.929688 443.140625 651.136719 442.644531 C 651.339844 442.152344 651.589844 441.683594 651.886719 441.238281 C 652.183594 440.796875 652.519531 440.382812 652.898438 440.007812 C 653.277344 439.628906 653.6875 439.292969 654.132812 438.996094 C 654.574219 438.699219 655.042969 438.449219 655.539062 438.242188 C 656.03125 438.039062 656.539062 437.886719 657.0625 437.78125 C 657.589844 437.675781 658.117188 437.625 658.652344 437.625 C 659.183594 437.625 659.714844 437.675781 660.238281 437.78125 C 660.761719 437.886719 661.269531 438.039062 661.765625 438.242188 C 662.257812 438.449219 662.726562 438.699219 663.171875 438.996094 C 663.613281 439.292969 664.023438 439.628906 664.402344 440.007812 C 664.78125 440.382812 665.117188 440.796875 665.414062 441.238281 C 665.710938 441.683594 665.960938 442.152344 666.167969 442.644531 C 666.371094 443.140625 666.523438 443.648438 666.628906 444.171875 C 666.734375 444.695312 666.785156 445.226562 666.785156 445.757812 Z M 666.785156 445.757812 " fill-opacity="1" fill-rule="nonzero"/><path fill="#0f3e5d" d="M 657.511719 433.554688 C 657.511719 434.046875 657.464844 434.535156 657.367188 435.019531 C 657.273438 435.5 657.128906 435.972656 656.941406 436.425781 C 656.75 436.882812 656.519531 437.316406 656.246094 437.726562 C 655.972656 438.132812 655.660156 438.515625 655.3125 438.863281 C 654.964844 439.210938 654.585938 439.523438 654.175781 439.796875 C 653.765625 440.070312 653.332031 440.300781 652.878906 440.488281 C 652.421875 440.679688 651.953125 440.820312 651.46875 440.917969 C 650.984375 441.011719 650.496094 441.0625 650.003906 441.0625 C 649.511719 441.0625 649.023438 441.011719 648.539062 440.917969 C 648.054688 440.820312 647.585938 440.679688 647.132812 440.488281 C 646.675781 440.300781 646.242188 440.070312 645.832031 439.796875 C 645.421875 439.523438 645.042969 439.210938 644.695312 438.863281 C 644.347656 438.515625 644.035156 438.132812 643.761719 437.726562 C 643.488281 437.316406 643.257812 436.882812 643.066406 436.425781 C 642.878906 435.972656 642.738281 435.5 642.640625 435.019531 C 642.542969 434.535156 642.496094 434.046875 642.496094 433.554688 C 642.496094 433.0625 642.542969 432.574219 642.640625 432.089844 C 642.738281 431.605469 642.878906 431.136719 643.066406 430.679688 C 643.257812 430.226562 643.488281 429.792969 643.761719 429.382812 C 644.035156 428.972656 644.347656 428.59375 644.695312 428.246094 C 645.042969 427.894531 645.421875 427.585938 645.832031 427.3125 C 646.242188 427.039062 646.675781 426.804688 647.132812 426.617188 C 647.585938 426.429688 648.054688 426.285156 648.539062 426.191406 C 649.023438 426.09375 649.511719 426.046875 650.003906 426.046875 C 650.496094 426.046875 650.984375 426.09375 651.46875 426.191406 C 651.953125 426.285156 652.421875 426.429688 652.878906 426.617188 C 653.332031 426.804688 653.765625 427.039062 654.175781 427.3125 C 654.585938 427.585938 654.964844 427.894531 655.3125 428.246094 C 655.660156 428.59375 655.972656 428.972656 656.246094 429.382812 C 656.519531 429.792969 656.75 430.226562 656.941406 430.679688 C 657.128906 431.136719 657.273438 431.605469 657.367188 432.089844 C 657.464844 432.574219 657.511719 433.0625 657.511719 433.554688 Z M 657.511719 433.554688 " fill-opacity="1" fill-rule="nonzero"/><path fill="#0f3e5d" d="M 685.488281 468.6875 C 685.488281 469.21875 685.433594 469.75 685.332031 470.273438 C 685.226562 470.796875 685.074219 471.304688 684.867188 471.800781 C 684.664062 472.292969 684.414062 472.761719 684.117188 473.207031 C 683.820312 473.648438 683.480469 474.058594 683.105469 474.4375 C 682.726562 474.816406 682.316406 475.152344 681.871094 475.449219 C 681.429688 475.746094 680.960938 475.996094 680.464844 476.203125 C 679.972656 476.40625 679.464844 476.558594 678.941406 476.664062 C 678.414062 476.769531 677.886719 476.820312 677.351562 476.820312 C 676.820312 476.820312 676.289062 476.769531 675.765625 476.664062 C 675.242188 476.558594 674.734375 476.40625 674.238281 476.203125 C 673.746094 475.996094 673.277344 475.746094 672.832031 475.449219 C 672.390625 475.152344 671.980469 474.816406 671.601562 474.4375 C 671.222656 474.058594 670.886719 473.648438 670.589844 473.207031 C 670.292969 472.761719 670.042969 472.292969 669.835938 471.800781 C 669.632812 471.304688 669.480469 470.796875 669.375 470.273438 C 669.269531 469.75 669.21875 469.21875 669.21875 468.6875 C 669.21875 468.152344 669.269531 467.621094 669.375 467.097656 C 669.480469 466.574219 669.632812 466.066406 669.835938 465.574219 C 670.042969 465.078125 670.292969 464.609375 670.589844 464.167969 C 670.886719 463.722656 671.222656 463.3125 671.601562 462.933594 C 671.980469 462.554688 672.390625 462.21875 672.832031 461.921875 C 673.277344 461.625 673.746094 461.375 674.238281 461.171875 C 674.734375 460.964844 675.242188 460.8125 675.765625 460.707031 C 676.289062 460.605469 676.820312 460.550781 677.351562 460.550781 C 677.886719 460.550781 678.414062 460.605469 678.941406 460.707031 C 679.464844 460.8125 679.972656 460.964844 680.464844 461.171875 C 680.960938 461.375 681.429688 461.625 681.871094 461.921875 C 682.316406 462.21875 682.726562 462.554688 683.105469 462.933594 C 683.480469 463.3125 683.820312 463.722656 684.117188 464.167969 C 684.414062 464.609375 684.664062 465.078125 684.867188 465.574219 C 685.074219 466.066406 685.226562 466.574219 685.332031 467.097656 C 685.433594 467.621094 685.488281 468.152344 685.488281 468.6875 Z M 685.488281 468.6875 " fill-opacity="1" fill-rule="nonzero"/><path fill="#0f3e5d" d="M 705.664062 470.703125 C 705.664062 471.234375 705.613281 471.765625 705.507812 472.289062 C 705.402344 472.8125 705.25 473.320312 705.046875 473.8125 C 704.839844 474.308594 704.589844 474.777344 704.292969 475.21875 C 703.996094 475.664062 703.660156 476.074219 703.28125 476.453125 C 702.90625 476.832031 702.492188 477.167969 702.050781 477.464844 C 701.605469 477.761719 701.136719 478.011719 700.644531 478.214844 C 700.148438 478.421875 699.640625 478.574219 699.117188 478.679688 C 698.59375 478.785156 698.066406 478.835938 697.53125 478.835938 C 696.996094 478.835938 696.46875 478.785156 695.945312 478.679688 C 695.417969 478.574219 694.910156 478.421875 694.417969 478.214844 C 693.925781 478.011719 693.457031 477.761719 693.011719 477.464844 C 692.566406 477.167969 692.15625 476.832031 691.777344 476.453125 C 691.402344 476.074219 691.0625 475.664062 690.765625 475.21875 C 690.46875 474.777344 690.21875 474.308594 690.015625 473.8125 C 689.8125 473.320312 689.65625 472.8125 689.550781 472.289062 C 689.449219 471.765625 689.394531 471.234375 689.394531 470.703125 C 689.394531 470.167969 689.449219 469.636719 689.550781 469.113281 C 689.65625 468.589844 689.8125 468.082031 690.015625 467.589844 C 690.21875 467.09375 690.46875 466.625 690.765625 466.183594 C 691.0625 465.738281 691.402344 465.328125 691.777344 464.949219 C 692.15625 464.570312 692.566406 464.234375 693.011719 463.9375 C 693.457031 463.640625 693.925781 463.390625 694.417969 463.1875 C 694.910156 462.980469 695.417969 462.828125 695.945312 462.722656 C 696.46875 462.617188 696.996094 462.566406 697.53125 462.566406 C 698.066406 462.566406 698.59375 462.617188 699.117188 462.722656 C 699.640625 462.828125 700.148438 462.980469 700.644531 463.1875 C 701.136719 463.390625 701.605469 463.640625 702.050781 463.9375 C 702.492188 464.234375 702.90625 464.570312 703.28125 464.949219 C 703.660156 465.328125 703.996094 465.738281 704.292969 466.183594 C 704.589844 466.625 704.839844 467.09375 705.046875 467.589844 C 705.25 468.082031 705.402344 468.589844 705.507812 469.113281 C 705.613281 469.636719 705.664062 470.167969 705.664062 470.703125 Z M 705.664062 470.703125 " fill-opacity="1" fill-rule="nonzero"/><path fill="#0f3e5d" d="M 725.15625 468.320312 C 725.15625 468.855469 725.101562 469.386719 725 469.910156 C 724.894531 470.433594 724.742188 470.941406 724.535156 471.433594 C 724.332031 471.929688 724.082031 472.398438 723.785156 472.839844 C 723.488281 473.285156 723.148438 473.695312 722.773438 474.074219 C 722.394531 474.453125 721.984375 474.789062 721.539062 475.085938 C 721.097656 475.382812 720.628906 475.632812 720.132812 475.835938 C 719.640625 476.042969 719.132812 476.195312 718.609375 476.300781 C 718.082031 476.40625 717.554688 476.457031 717.019531 476.457031 C 716.488281 476.457031 715.957031 476.40625 715.433594 476.300781 C 714.910156 476.195312 714.402344 476.042969 713.90625 475.835938 C 713.414062 475.632812 712.945312 475.382812 712.5 475.085938 C 712.058594 474.789062 711.644531 474.453125 711.269531 474.074219 C 710.890625 473.695312 710.554688 473.285156 710.257812 472.839844 C 709.960938 472.398438 709.710938 471.929688 709.503906 471.433594 C 709.300781 470.941406 709.148438 470.433594 709.042969 469.910156 C 708.9375 469.386719 708.886719 468.855469 708.886719 468.320312 C 708.886719 467.789062 708.9375 467.257812 709.042969 466.734375 C 709.148438 466.210938 709.300781 465.703125 709.503906 465.210938 C 709.710938 464.714844 709.960938 464.246094 710.257812 463.804688 C 710.554688 463.359375 710.890625 462.949219 711.269531 462.570312 C 711.644531 462.191406 712.058594 461.855469 712.5 461.558594 C 712.945312 461.261719 713.414062 461.011719 713.90625 460.808594 C 714.402344 460.601562 714.910156 460.449219 715.433594 460.34375 C 715.957031 460.238281 716.488281 460.1875 717.019531 460.1875 C 717.554688 460.1875 718.082031 460.238281 718.609375 460.34375 C 719.132812 460.449219 719.640625 460.601562 720.132812 460.808594 C 720.628906 461.011719 721.097656 461.261719 721.539062 461.558594 C 721.984375 461.855469 722.394531 462.191406 722.773438 462.570312 C 723.148438 462.949219 723.488281 463.359375 723.785156 463.804688 C 724.082031 464.246094 724.332031 464.714844 724.535156 465.210938 C 724.742188 465.703125 724.894531 466.210938 725 466.734375 C 725.101562 467.257812 725.15625 467.789062 725.15625 468.320312 Z M 725.15625 468.320312 " fill-opacity="1" fill-rule="nonzero"/><path fill="#0f3e5d" d="M 743.855469 461.46875 C 743.855469 462.003906 743.804688 462.53125 743.699219 463.054688 C 743.597656 463.578125 743.441406 464.085938 743.238281 464.582031 C 743.035156 465.074219 742.78125 465.542969 742.484375 465.988281 C 742.1875 466.429688 741.851562 466.84375 741.472656 467.21875 C 741.097656 467.597656 740.6875 467.933594 740.242188 468.230469 C 739.796875 468.527344 739.328125 468.777344 738.835938 468.984375 C 738.34375 469.1875 737.832031 469.34375 737.308594 469.445312 C 736.785156 469.550781 736.257812 469.601562 735.722656 469.601562 C 735.1875 469.601562 734.660156 469.550781 734.136719 469.445312 C 733.613281 469.34375 733.101562 469.1875 732.609375 468.984375 C 732.117188 468.777344 731.648438 468.527344 731.203125 468.230469 C 730.757812 467.933594 730.347656 467.597656 729.96875 467.21875 C 729.59375 466.84375 729.253906 466.429688 728.957031 465.988281 C 728.664062 465.542969 728.410156 465.074219 728.207031 464.582031 C 728.003906 464.085938 727.847656 463.578125 727.746094 463.054688 C 727.640625 462.53125 727.589844 462.003906 727.589844 461.46875 C 727.589844 460.933594 727.640625 460.40625 727.746094 459.882812 C 727.847656 459.359375 728.003906 458.847656 728.207031 458.355469 C 728.410156 457.863281 728.664062 457.394531 728.957031 456.949219 C 729.253906 456.503906 729.59375 456.09375 729.96875 455.714844 C 730.347656 455.339844 730.757812 455 731.203125 454.703125 C 731.648438 454.40625 732.117188 454.15625 732.609375 453.953125 C 733.101562 453.75 733.613281 453.59375 734.136719 453.488281 C 734.660156 453.386719 735.1875 453.332031 735.722656 453.332031 C 736.257812 453.332031 736.785156 453.386719 737.308594 453.488281 C 737.832031 453.59375 738.34375 453.75 738.835938 453.953125 C 739.328125 454.15625 739.796875 454.40625 740.242188 454.703125 C 740.6875 455 741.097656 455.339844 741.472656 455.714844 C 741.851562 456.09375 742.1875 456.503906 742.484375 456.949219 C 742.78125 457.394531 743.035156 457.863281 743.238281 458.355469 C 743.441406 458.847656 743.597656 459.359375 743.699219 459.882812 C 743.804688 460.40625 743.855469 460.933594 743.855469 461.46875 Z M 743.855469 461.46875 " fill-opacity="1" fill-rule="nonzero"/><path fill="#0f3e5d" d="M 758.109375 449.089844 C 758.109375 449.621094 758.058594 450.152344 757.953125 450.675781 C 757.851562 451.199219 757.695312 451.707031 757.492188 452.199219 C 757.285156 452.695312 757.035156 453.164062 756.738281 453.605469 C 756.441406 454.050781 756.105469 454.460938 755.726562 454.839844 C 755.351562 455.21875 754.941406 455.554688 754.496094 455.851562 C 754.050781 456.148438 753.582031 456.398438 753.089844 456.601562 C 752.597656 456.808594 752.085938 456.960938 751.5625 457.066406 C 751.039062 457.171875 750.511719 457.222656 749.976562 457.222656 C 749.441406 457.222656 748.914062 457.171875 748.390625 457.066406 C 747.867188 456.960938 747.355469 456.808594 746.863281 456.601562 C 746.371094 456.398438 745.902344 456.148438 745.457031 455.851562 C 745.011719 455.554688 744.601562 455.21875 744.222656 454.839844 C 743.847656 454.460938 743.507812 454.050781 743.210938 453.605469 C 742.914062 453.164062 742.664062 452.695312 742.460938 452.199219 C 742.257812 451.707031 742.101562 451.199219 742 450.675781 C 741.894531 450.152344 741.84375 449.621094 741.84375 449.089844 C 741.84375 448.554688 741.894531 448.023438 742 447.5 C 742.101562 446.976562 742.257812 446.46875 742.460938 445.976562 C 742.664062 445.480469 742.914062 445.011719 743.210938 444.570312 C 743.507812 444.125 743.847656 443.714844 744.222656 443.335938 C 744.601562 442.957031 745.011719 442.621094 745.457031 442.324219 C 745.902344 442.027344 746.371094 441.777344 746.863281 441.574219 C 747.355469 441.367188 747.867188 441.214844 748.390625 441.109375 C 748.914062 441.003906 749.441406 440.953125 749.976562 440.953125 C 750.511719 440.953125 751.039062 441.003906 751.5625 441.109375 C 752.085938 441.214844 752.597656 441.367188 753.089844 441.574219 C 753.582031 441.777344 754.050781 442.027344 754.496094 442.324219 C 754.941406 442.621094 755.351562 442.957031 755.726562 443.335938 C 756.105469 443.714844 756.441406 444.125 756.738281 444.570312 C 757.035156 445.011719 757.285156 445.480469 757.492188 445.976562 C 757.695312 446.46875 757.851562 446.976562 757.953125 447.5 C 758.058594 448.023438 758.109375 448.554688 758.109375 449.089844 Z M 758.109375 449.089844 " fill-opacity="1" fill-rule="nonzero"/><path fill="#0f3e5d" d="M 667.433594 461.488281 C 667.433594 462.023438 667.378906 462.550781 667.277344 463.074219 C 667.171875 463.597656 667.019531 464.109375 666.8125 464.601562 C 666.609375 465.09375 666.359375 465.5625 666.0625 466.007812 C 665.765625 466.453125 665.425781 466.863281 665.050781 467.242188 C 664.671875 467.617188 664.261719 467.957031 663.816406 468.25 C 663.375 468.546875 662.90625 468.800781 662.410156 469.003906 C 661.917969 469.207031 661.410156 469.363281 660.886719 469.464844 C 660.359375 469.570312 659.832031 469.621094 659.296875 469.621094 C 658.765625 469.621094 658.234375 469.570312 657.710938 469.464844 C 657.1875 469.363281 656.679688 469.207031 656.183594 469.003906 C 655.691406 468.800781 655.222656 468.546875 654.777344 468.25 C 654.335938 467.957031 653.921875 467.617188 653.546875 467.242188 C 653.167969 466.863281 652.832031 466.453125 652.535156 466.007812 C 652.238281 465.5625 651.988281 465.09375 651.78125 464.601562 C 651.578125 464.109375 651.425781 463.597656 651.320312 463.074219 C 651.214844 462.550781 651.164062 462.023438 651.164062 461.488281 C 651.164062 460.953125 651.214844 460.425781 651.320312 459.902344 C 651.425781 459.378906 651.578125 458.867188 651.78125 458.375 C 651.988281 457.882812 652.238281 457.414062 652.535156 456.96875 C 652.832031 456.523438 653.167969 456.113281 653.546875 455.738281 C 653.921875 455.359375 654.335938 455.023438 654.777344 454.726562 C 655.222656 454.429688 655.691406 454.175781 656.183594 453.972656 C 656.679688 453.769531 657.1875 453.613281 657.710938 453.511719 C 658.234375 453.40625 658.765625 453.355469 659.296875 453.355469 C 659.832031 453.355469 660.359375 453.40625 660.886719 453.511719 C 661.410156 453.613281 661.917969 453.769531 662.410156 453.972656 C 662.90625 454.175781 663.375 454.429688 663.816406 454.726562 C 664.261719 455.023438 664.671875 455.359375 665.050781 455.738281 C 665.425781 456.113281 665.765625 456.523438 666.0625 456.96875 C 666.359375 457.414062 666.609375 457.882812 666.8125 458.375 C 667.019531 458.867188 667.171875 459.378906 667.277344 459.902344 C 667.378906 460.425781 667.433594 460.953125 667.433594 461.488281 Z M 667.433594 461.488281 " fill-opacity="1" fill-rule="nonzero"/><path fill="#0f3e5d" d="M 652.066406 447.296875 C 652.066406 447.765625 652.019531 448.234375 651.929688 448.695312 C 651.835938 449.15625 651.699219 449.605469 651.519531 450.042969 C 651.339844 450.476562 651.117188 450.890625 650.855469 451.28125 C 650.59375 451.675781 650.296875 452.039062 649.964844 452.371094 C 649.632812 452.703125 649.269531 453 648.875 453.261719 C 648.484375 453.523438 648.070312 453.746094 647.636719 453.925781 C 647.199219 454.105469 646.75 454.242188 646.289062 454.335938 C 645.828125 454.425781 645.359375 454.472656 644.890625 454.472656 C 644.417969 454.472656 643.949219 454.425781 643.488281 454.335938 C 643.027344 454.242188 642.578125 454.105469 642.140625 453.925781 C 641.707031 453.746094 641.292969 453.523438 640.902344 453.261719 C 640.507812 453 640.148438 452.703125 639.8125 452.371094 C 639.480469 452.039062 639.183594 451.675781 638.921875 451.28125 C 638.660156 450.890625 638.4375 450.476562 638.257812 450.042969 C 638.078125 449.605469 637.941406 449.15625 637.851562 448.695312 C 637.757812 448.234375 637.710938 447.765625 637.710938 447.296875 C 637.710938 446.824219 637.757812 446.355469 637.851562 445.894531 C 637.941406 445.433594 638.078125 444.984375 638.257812 444.546875 C 638.4375 444.113281 638.660156 443.699219 638.921875 443.308594 C 639.183594 442.914062 639.480469 442.554688 639.8125 442.21875 C 640.148438 441.886719 640.507812 441.589844 640.902344 441.328125 C 641.292969 441.066406 641.707031 440.84375 642.140625 440.664062 C 642.578125 440.484375 643.027344 440.347656 643.488281 440.253906 C 643.949219 440.164062 644.417969 440.117188 644.890625 440.117188 C 645.359375 440.117188 645.828125 440.164062 646.289062 440.253906 C 646.75 440.347656 647.199219 440.484375 647.636719 440.664062 C 648.070312 440.84375 648.484375 441.066406 648.875 441.328125 C 649.269531 441.589844 649.632812 441.886719 649.964844 442.21875 C 650.296875 442.554688 650.59375 442.914062 650.855469 443.308594 C 651.117188 443.699219 651.339844 444.113281 651.519531 444.546875 C 651.699219 444.984375 651.835938 445.433594 651.929688 445.894531 C 652.019531 446.355469 652.066406 446.824219 652.066406 447.296875 Z M 652.066406 447.296875 " fill-opacity="1" fill-rule="nonzero"/><path fill="#26130f" d="M 661.765625 405.652344 C 661.765625 405.652344 670.652344 408 680.742188 406.117188 C 690.832031 404.238281 702.492188 398.738281 715.542969 390.609375 C 715.542969 390.609375 686.308594 406.394531 662.308594 403.199219 L 661.765625 405.644531 " fill-opacity="1" fill-rule="nonzero"/><path fill="#dc3b28" d="M 733.558594 384.652344 C 733.558594 384.652344 723.664062 413.269531 692.933594 440.117188 C 692.933594 440.117188 725.4375 455.664062 740.617188 403.429688 C 740.617188 403.429688 742.570312 384.121094 733.558594 384.652344 Z M 733.558594 384.652344 " fill-opacity="1" fill-rule="nonzero"/><path fill="#dc3b28" d="M 661.523438 404.628906 C 661.523438 404.628906 669.609375 429.523438 692.925781 440.117188 C 692.925781 440.117188 662.898438 447.539062 650.535156 410.445312 Z M 661.523438 404.628906 " fill-opacity="1" fill-rule="nonzero"/><path fill="#dc3b28" d="M 699.425781 436.585938 C 699.425781 440.257812 696.042969 443.238281 691.871094 443.238281 C 687.699219 443.238281 684.316406 440.257812 684.316406 436.585938 C 684.316406 445.160156 688.640625 429.933594 691.871094 429.933594 C 696.042969 429.933594 699.425781 432.914062 699.425781 436.585938 Z M 699.425781 436.585938 " fill-opacity="1" fill-rule="nonzero"/><path fill="#dc3b28" d="M 678.183594 508.71875 C 678.183594 508.71875 663.980469 497.167969 672.589844 470.554688 C 681.1875 443.9375 692.289062 436.917969 692.289062 436.917969 C 692.289062 436.917969 678.183594 475.460938 678.183594 508.71875 Z M 678.183594 508.71875 " fill-opacity="1" fill-rule="nonzero"/><path fill="#dc3b28" d="M 699.445312 509.007812 C 699.445312 509.007812 691.203125 482.226562 692.28125 436.917969 C 692.28125 436.917969 711.75 432.703125 709.210938 459.292969 C 706.667969 485.878906 699.4375 509.007812 699.4375 509.007812 Z M 699.445312 509.007812 " fill-opacity="1" fill-rule="nonzero"/><path fill="#bde4e0" d="M 457.023438 474.347656 C 457.023438 474.742188 456.984375 475.132812 456.90625 475.519531 C 456.832031 475.90625 456.714844 476.28125 456.566406 476.644531 C 456.414062 477.007812 456.230469 477.355469 456.011719 477.683594 C 455.792969 478.011719 455.542969 478.3125 455.261719 478.59375 C 454.984375 478.871094 454.679688 479.121094 454.355469 479.339844 C 454.027344 479.558594 453.679688 479.742188 453.316406 479.894531 C 452.953125 480.046875 452.574219 480.160156 452.1875 480.238281 C 451.800781 480.3125 451.410156 480.351562 451.019531 480.351562 C 450.625 480.351562 450.234375 480.3125 449.847656 480.238281 C 449.460938 480.160156 449.082031 480.046875 448.71875 479.894531 C 448.355469 479.742188 448.007812 479.558594 447.679688 479.339844 C 447.355469 479.121094 447.050781 478.871094 446.773438 478.59375 C 446.492188 478.3125 446.242188 478.011719 446.023438 477.683594 C 445.804688 477.355469 445.621094 477.007812 445.46875 476.644531 C 445.320312 476.28125 445.207031 475.90625 445.128906 475.519531 C 445.050781 475.132812 445.011719 474.742188 445.011719 474.347656 C 445.011719 473.953125 445.050781 473.5625 445.128906 473.175781 C 445.207031 472.789062 445.320312 472.414062 445.46875 472.050781 C 445.621094 471.683594 445.804688 471.339844 446.023438 471.011719 C 446.242188 470.683594 446.492188 470.378906 446.773438 470.101562 C 447.050781 469.824219 447.355469 469.574219 447.679688 469.355469 C 448.007812 469.136719 448.355469 468.949219 448.71875 468.800781 C 449.082031 468.648438 449.460938 468.535156 449.847656 468.457031 C 450.234375 468.382812 450.625 468.34375 451.019531 468.34375 C 451.410156 468.34375 451.800781 468.382812 452.1875 468.457031 C 452.574219 468.535156 452.953125 468.648438 453.316406 468.800781 C 453.679688 468.949219 454.027344 469.136719 454.355469 469.355469 C 454.679688 469.574219 454.984375 469.824219 455.265625 470.101562 C 455.542969 470.378906 455.792969 470.683594 456.011719 471.011719 C 456.230469 471.339844 456.414062 471.683594 456.566406 472.050781 C 456.714844 472.414062 456.832031 472.789062 456.90625 473.175781 C 456.984375 473.5625 457.023438 473.953125 457.023438 474.347656 Z M 457.023438 474.347656 " fill-opacity="1" fill-rule="nonzero"/><path fill="#be8c8c" d="M 645.191406 366.410156 C 645.191406 366.410156 652.296875 362.222656 661.824219 365.863281 C 661.824219 365.863281 668.632812 359.671875 682.992188 366.882812 C 682.992188 366.882812 677.84375 376.335938 662.75 375.910156 C 647.652344 375.488281 645.191406 366.410156 645.191406 366.410156 Z M 645.191406 366.410156 " fill-opacity="1" fill-rule="nonzero"/><path stroke-linecap="butt" transform="matrix(0.673937, 0, 0, 0.673937, 0.665679, 0.1985)" fill="none" stroke-linejoin="miter" d="M 1012.442006 544.080894 C 1012.442006 544.080894 980.557325 555.19793 956.358353 543.379558 " stroke="#231f20" stroke-width="1.7" stroke-opacity="1" stroke-miterlimit="10"/><path fill="#d8e3e2" d="M 706.835938 329.277344 C 706.835938 329.277344 706.871094 332.957031 707.007812 334.625 C 707.140625 336.296875 710.464844 338.785156 710.867188 335.898438 C 711.273438 333.015625 706.835938 329.269531 706.835938 329.269531 Z M 706.835938 329.277344 " fill-opacity="1" fill-rule="nonzero"/><path fill="#be9e7d" d="M 219.191406 236.0625 C 219.191406 236.0625 223.542969 279.734375 211.796875 305.722656 C 211.796875 305.722656 201.039062 427.257812 299.792969 430.347656 C 299.792969 430.347656 373.414062 410.503906 328.75 315.109375 C 328.75 315.109375 310.988281 308.175781 310.601562 290.980469 C 310.199219 272.777344 312.953125 291.292969 312.953125 291.292969 L 219.191406 236.070312 " fill-opacity="1" fill-rule="nonzero"/><path fill="#be9e7d" d="M 234.925781 196.535156 C 234.925781 196.535156 250.339844 105.792969 332.722656 109.707031 C 332.722656 109.707031 390.847656 117.308594 376.648438 198.941406 C 376.648438 198.941406 371.761719 211.707031 373.082031 218.980469 C 373.082031 218.980469 375.3125 237.539062 364.363281 253.335938 C 347.972656 276.984375 332.847656 293.496094 332.847656 293.496094 C 332.847656 293.496094 323.386719 304.574219 303.054688 302.222656 C 303.054688 302.222656 288.839844 299.984375 272.167969 286.007812 C 272.167969 286.007812 228.921875 259.253906 234.722656 232.566406 C 234.722656 232.566406 212.941406 243.355469 208.070312 210.285156 C 208.070312 210.285156 205.921875 165.089844 234.917969 196.535156 Z M 234.925781 196.535156 " fill-opacity="1" fill-rule="nonzero"/><path fill="#26130f" d="M 313.359375 178.183594 C 313.359375 178.183594 286.953125 165.507812 272.917969 172.71875 C 272.917969 172.71875 284.496094 159.625 315.011719 171.683594 C 315.011719 171.683594 319.964844 176.710938 313.359375 178.179688 Z M 313.359375 178.183594 " fill-opacity="1" fill-rule="nonzero"/><path fill="#26130f" d="M 380.792969 180.457031 C 380.328125 178.933594 366.214844 177.226562 353 178.65625 C 353 178.65625 346.894531 182.1875 352.867188 185.363281 C 352.867188 185.363281 377.074219 179.433594 380.03125 187.363281 C 380.03125 187.363281 381.945312 184.210938 380.785156 180.457031 Z M 380.792969 180.457031 " fill-opacity="1" fill-rule="nonzero"/><path stroke-linecap="butt" transform="matrix(0.673937, 0, 0, 0.673937, 0.665679, 0.1985)" fill="none" stroke-linejoin="miter" d="M 502.750801 327.182757 C 502.750801 327.182757 516.168914 354.407325 486.498366 353.410385 " stroke="#231f20" stroke-width="1.7" stroke-opacity="1" stroke-miterlimit="10"/><path stroke-linecap="butt" transform="matrix(0.673937, 0, 0, 0.673937, 0.665679, 0.1985)" fill="none" stroke-linejoin="miter" d="M 313.581498 298.880103 C 313.581498 298.880103 327.961773 272.217763 343.431727 320.320102 C 343.431727 320.320102 327.799481 297.900552 322.240963 314.558718 " stroke="#231f20" stroke-width="1.7" stroke-opacity="1" stroke-miterlimit="10"/><path fill="#26130f" d="M 315.003906 301.90625 C 315.003906 301.90625 307.953125 306.847656 287.210938 296.265625 C 287.210938 296.265625 269.035156 287.328125 255.152344 272.699219 C 255.152344 272.699219 271.945312 297.285156 298.230469 304.191406 C 298.230469 304.191406 305.070312 307.277344 315.652344 305.035156 C 315.652344 305.035156 314.128906 304.65625 314.996094 301.898438 Z M 315.003906 301.90625 " fill-opacity="1" fill-rule="nonzero"/><path fill="#ffffff" d="M 281.953125 191.191406 C 281.953125 191.191406 282.007812 190.585938 282.507812 190.128906 C 284.152344 188.605469 287.871094 185.828125 293.242188 186.351562 C 299.261719 186.941406 302.023438 192.910156 302.960938 195.039062 C 303.121094 195.40625 303.074219 195.714844 303.074219 195.714844 C 303.074219 195.714844 303.0625 196.050781 302.839844 196.265625 C 301.765625 197.285156 298.261719 200.089844 292.5625 199.625 C 289.164062 199.347656 284.582031 197.054688 282.082031 192.167969 C 281.90625 191.832031 281.933594 191.421875 281.960938 191.199219 Z M 281.953125 191.191406 " fill-opacity="1" fill-rule="nonzero"/><path fill="#26130f" d="M 300.507812 193.464844 C 300.507812 193.875 300.46875 194.28125 300.386719 194.683594 C 300.308594 195.085938 300.1875 195.476562 300.03125 195.855469 C 299.875 196.234375 299.683594 196.59375 299.453125 196.933594 C 299.226562 197.277344 298.96875 197.589844 298.675781 197.882812 C 298.386719 198.171875 298.070312 198.429688 297.730469 198.65625 C 297.390625 198.886719 297.03125 199.078125 296.652344 199.234375 C 296.273438 199.390625 295.882812 199.511719 295.480469 199.589844 C 295.078125 199.671875 294.671875 199.710938 294.261719 199.710938 C 293.847656 199.710938 293.441406 199.671875 293.039062 199.589844 C 292.636719 199.511719 292.246094 199.390625 291.867188 199.234375 C 291.488281 199.078125 291.128906 198.886719 290.789062 198.65625 C 290.449219 198.429688 290.132812 198.171875 289.84375 197.882812 C 289.550781 197.589844 289.292969 197.277344 289.066406 196.933594 C 288.835938 196.59375 288.644531 196.234375 288.488281 195.855469 C 288.332031 195.476562 288.210938 195.085938 288.132812 194.683594 C 288.050781 194.28125 288.011719 193.875 288.011719 193.464844 C 288.011719 193.054688 288.050781 192.648438 288.132812 192.246094 C 288.210938 191.84375 288.332031 191.453125 288.488281 191.074219 C 288.644531 190.695312 288.835938 190.332031 289.066406 189.992188 C 289.292969 189.652344 289.550781 189.335938 289.84375 189.046875 C 290.132812 188.757812 290.449219 188.496094 290.789062 188.269531 C 291.128906 188.042969 291.488281 187.847656 291.867188 187.691406 C 292.246094 187.535156 292.636719 187.417969 293.039062 187.335938 C 293.441406 187.257812 293.847656 187.214844 294.261719 187.214844 C 294.671875 187.214844 295.078125 187.257812 295.480469 187.335938 C 295.882812 187.417969 296.273438 187.535156 296.652344 187.691406 C 297.03125 187.847656 297.390625 188.042969 297.730469 188.269531 C 298.070312 188.496094 298.386719 188.757812 298.675781 189.046875 C 298.96875 189.335938 299.226562 189.652344 299.453125 189.992188 C 299.683594 190.332031 299.875 190.695312 300.03125 191.074219 C 300.1875 191.453125 300.308594 191.84375 300.386719 192.246094 C 300.46875 192.648438 300.507812 193.054688 300.507812 193.464844 Z M 300.507812 193.464844 " fill-opacity="1" fill-rule="nonzero"/><path fill="#ffffff" d="M 292.164062 191.8125 C 292.164062 192.039062 292.121094 192.257812 292.035156 192.46875 C 291.945312 192.675781 291.824219 192.863281 291.664062 193.023438 C 291.5 193.183594 291.316406 193.308594 291.105469 193.394531 C 290.898438 193.480469 290.679688 193.523438 290.453125 193.523438 C 290.226562 193.523438 290.007812 193.480469 289.796875 193.394531 C 289.585938 193.308594 289.402344 193.183594 289.242188 193.023438 C 289.082031 192.863281 288.957031 192.675781 288.871094 192.46875 C 288.785156 192.257812 288.738281 192.039062 288.742188 191.8125 C 288.738281 191.585938 288.785156 191.367188 288.871094 191.15625 C 288.957031 190.949219 289.082031 190.761719 289.242188 190.601562 C 289.402344 190.441406 289.585938 190.316406 289.796875 190.230469 C 290.007812 190.144531 290.226562 190.101562 290.453125 190.101562 C 290.679688 190.101562 290.898438 190.144531 291.105469 190.230469 C 291.316406 190.316406 291.5 190.441406 291.664062 190.601562 C 291.824219 190.761719 291.945312 190.949219 292.035156 191.15625 C 292.121094 191.367188 292.164062 191.585938 292.164062 191.8125 Z M 292.164062 191.8125 " fill-opacity="1" fill-rule="nonzero"/><path stroke-linecap="butt" transform="matrix(0.673937, 0, 0, 0.673937, 0.665679, 0.1985)" fill="none" stroke-linejoin="miter" d="M 449.089944 289.171534 C 449.089944 289.171534 440.297168 266.798353 417.848637 281.711875 " stroke="#231f20" stroke-width="1.5" stroke-opacity="1" stroke-miterlimit="10"/><path fill="#ffffff" d="M 351.566406 203.109375 C 351.566406 203.109375 351.53125 202.535156 351.921875 202.042969 C 353.234375 200.390625 356.296875 197.277344 361.371094 196.996094 C 367.050781 196.679688 370.476562 201.839844 371.648438 203.679688 C 371.851562 203.996094 371.851562 204.285156 371.851562 204.285156 C 371.851562 204.285156 371.890625 204.605469 371.707031 204.832031 C 370.859375 205.9375 368.003906 209.039062 362.628906 209.421875 C 359.4375 209.652344 354.839844 208.175781 351.820312 203.992188 C 351.613281 203.699219 351.578125 203.316406 351.570312 203.109375 Z M 351.566406 203.109375 " fill-opacity="1" fill-rule="nonzero"/><path fill="#26130f" d="M 369.1875 203.453125 C 369.1875 203.835938 369.152344 204.214844 369.074219 204.59375 C 369 204.972656 368.890625 205.335938 368.742188 205.691406 C 368.59375 206.046875 368.414062 206.386719 368.199219 206.703125 C 367.988281 207.023438 367.746094 207.320312 367.472656 207.59375 C 367.199219 207.863281 366.90625 208.105469 366.585938 208.320312 C 366.265625 208.535156 365.929688 208.714844 365.574219 208.863281 C 365.21875 209.007812 364.851562 209.121094 364.472656 209.195312 C 364.097656 209.269531 363.714844 209.308594 363.332031 209.308594 C 362.945312 209.308594 362.566406 209.269531 362.1875 209.195312 C 361.8125 209.121094 361.445312 209.007812 361.089844 208.863281 C 360.734375 208.714844 360.398438 208.535156 360.078125 208.320312 C 359.757812 208.105469 359.460938 207.863281 359.191406 207.59375 C 358.917969 207.320312 358.675781 207.023438 358.460938 206.703125 C 358.25 206.386719 358.066406 206.046875 357.921875 205.691406 C 357.773438 205.335938 357.664062 204.972656 357.585938 204.59375 C 357.511719 204.214844 357.476562 203.835938 357.476562 203.453125 C 357.476562 203.066406 357.511719 202.6875 357.585938 202.308594 C 357.664062 201.929688 357.773438 201.566406 357.921875 201.210938 C 358.066406 200.855469 358.25 200.515625 358.460938 200.199219 C 358.675781 199.878906 358.917969 199.582031 359.191406 199.308594 C 359.460938 199.039062 359.757812 198.796875 360.078125 198.582031 C 360.398438 198.367188 360.734375 198.1875 361.089844 198.039062 C 361.445312 197.894531 361.8125 197.78125 362.1875 197.707031 C 362.566406 197.632812 362.945312 197.59375 363.332031 197.59375 C 363.714844 197.59375 364.097656 197.632812 364.472656 197.707031 C 364.851562 197.78125 365.21875 197.894531 365.574219 198.039062 C 365.929688 198.1875 366.265625 198.367188 366.585938 198.582031 C 366.90625 198.796875 367.199219 199.039062 367.472656 199.308594 C 367.746094 199.582031 367.988281 199.878906 368.199219 200.199219 C 368.414062 200.515625 368.59375 200.855469 368.742188 201.210938 C 368.890625 201.566406 369 201.929688 369.074219 202.308594 C 369.152344 202.6875 369.1875 203.066406 369.1875 203.453125 Z M 369.1875 203.453125 " fill-opacity="1" fill-rule="nonzero"/><path fill="#ffffff" d="M 361.011719 202.570312 C 361.011719 202.785156 360.972656 202.996094 360.886719 203.195312 C 360.804688 203.394531 360.6875 203.574219 360.535156 203.726562 C 360.378906 203.878906 360.203125 204 360.003906 204.082031 C 359.800781 204.164062 359.59375 204.207031 359.375 204.207031 C 359.160156 204.207031 358.949219 204.164062 358.75 204.082031 C 358.546875 204 358.371094 203.878906 358.21875 203.726562 C 358.0625 203.574219 357.945312 203.394531 357.863281 203.195312 C 357.78125 202.996094 357.738281 202.785156 357.738281 202.570312 C 357.738281 202.351562 357.78125 202.140625 357.863281 201.941406 C 357.945312 201.742188 358.0625 201.5625 358.21875 201.410156 C 358.371094 201.257812 358.546875 201.136719 358.75 201.054688 C 358.949219 200.972656 359.160156 200.929688 359.375 200.929688 C 359.59375 200.929688 359.800781 200.972656 360.003906 201.054688 C 360.203125 201.136719 360.378906 201.257812 360.535156 201.410156 C 360.6875 201.5625 360.804688 201.742188 360.886719 201.941406 C 360.972656 202.140625 361.011719 202.351562 361.011719 202.570312 Z M 361.011719 202.570312 " fill-opacity="1" fill-rule="nonzero"/><path stroke-linecap="butt" transform="matrix(0.673937, 0, 0, 0.673937, 0.665679, 0.1985)" fill="none" stroke-linejoin="miter" d="M 550.621294 302.2071 C 550.621294 302.2071 539.81725 281.427863 520.950747 299.859654 " stroke="#231f20" stroke-width="1.5" stroke-opacity="1" stroke-miterlimit="10"/><g clip-path="url(#744979d455)"><path fill="#be9e7d" d="M 422.011719 460.570312 C 422.011719 460.570312 415.386719 507.882812 424.53125 529.226562 C 424.53125 529.226562 429.085938 537.703125 429.15625 556.378906 C 429.222656 575.054688 437.722656 672.875 433.992188 736.625 C 433.992188 736.625 433.144531 783.644531 442.714844 799.183594 C 452.285156 814.726562 441.960938 833.839844 441.960938 833.839844 C 441.960938 833.839844 429.949219 875.035156 415.125 877.933594 L 394.21875 492.503906 L 422.019531 460.566406 Z M 422.011719 460.570312 " fill-opacity="1" fill-rule="nonzero"/></g><g clip-path="url(#85163af303)"><path fill="#ffffff" d="M 211.796875 305.714844 C 211.796875 305.714844 195.910156 319.429688 159.816406 330.980469 C 123.71875 342.53125 82.5625 416.894531 82.5625 416.894531 C 82.5625 416.894531 95.105469 469.523438 157.058594 494.464844 L 119.386719 681.859375 C 119.386719 681.859375 189.414062 739.617188 302.042969 730.234375 C 302.042969 730.234375 377.128906 725.179688 413.230469 693.410156 C 413.230469 693.410156 398.066406 598.109375 397.34375 528.800781 C 397.34375 528.800781 414.671875 515.085938 413.949219 481.875 L 424.058594 458.050781 L 415.394531 390.1875 C 415.394531 390.1875 408.175781 344.703125 359.800781 325.933594 C 359.800781 325.933594 341.753906 322.320312 328.75 315.101562 C 328.75 315.101562 337.417969 364.921875 332.363281 384.410156 C 332.363281 384.410156 299.152344 421.234375 234.179688 382.96875 C 234.179688 382.96875 211.074219 353.367188 211.796875 305.714844 Z M 211.796875 305.714844 " fill-opacity="1" fill-rule="nonzero"/></g><g clip-path="url(#9013752122)"><path fill="#be9e7d" d="M 86.769531 425.425781 C 86.769531 425.425781 54.816406 552.34375 73.457031 611.808594 L 93.871094 745.828125 C 93.871094 745.828125 98.40625 771.972656 90.523438 786.265625 C 90.523438 786.265625 79.1875 817.3125 92.496094 835.058594 C 92.496094 835.058594 102.847656 874.492188 141.78125 891.738281 C 141.78125 891.738281 153.609375 884.34375 136.855469 868.082031 C 136.855469 868.082031 117.140625 847.378906 128.96875 823.722656 C 128.96875 823.722656 137.839844 816.332031 137.347656 831.117188 C 136.855469 845.902344 138.332031 869.558594 150.160156 867.097656 C 161.984375 864.632812 157.058594 840.484375 157.058594 840.484375 C 157.058594 840.484375 156.566406 819.289062 158.535156 804.011719 C 158.535156 804.011719 157.550781 776.90625 142.765625 762.117188 L 145.230469 563.488281 L 157.058594 494.484375 C 157.058594 494.484375 103.230469 468.269531 86.773438 425.433594 Z M 86.769531 425.425781 " fill-opacity="1" fill-rule="nonzero"/></g><path stroke-linecap="butt" transform="matrix(0.673937, 0, 0, 0.673937, 0.665679, 0.1985)" fill="none" stroke-linejoin="miter" d="M 232.058495 733.418286 C 232.058495 733.418286 253.341998 678.951762 255.990843 627.557203 " stroke="#939598" stroke-width="2" stroke-opacity="1" stroke-miterlimit="10"/><path stroke-linecap="butt" transform="matrix(0.673937, 0, 0, 0.673937, 0.665679, 0.1985)" fill="none" stroke-linejoin="miter" d="M 613.23722 714.731463 C 613.23722 714.731463 613.092316 655.031006 598.022298 638.187362 " stroke="#939598" stroke-width="2" stroke-opacity="1" stroke-miterlimit="10"/><path fill="#bf6b6b" d="M 336.117188 262.570312 C 336.117188 262.570312 328.894531 251.542969 316.507812 254.085938 C 316.507812 254.085938 308.898438 245.882812 291.683594 255.175781 C 291.683594 255.175781 294.21875 269.605469 312.242188 272.535156 C 328.496094 275.179688 336.117188 262.574219 336.117188 262.574219 Z M 336.117188 262.570312 " fill-opacity="1" fill-rule="nonzero"/><path fill="#803435" d="M 333.609375 263.0625 C 333.609375 263.0625 320.914062 252.890625 295.386719 256.539062 C 295.386719 256.539062 308.855469 276.371094 333.609375 263.0625 Z M 333.609375 263.0625 " fill-opacity="1" fill-rule="nonzero"/><path fill="#ffffff" d="M 329.90625 260.953125 C 329.90625 260.953125 316.109375 261.308594 303.015625 255.808594 C 303.015625 255.808594 317.726562 254.386719 329.90625 260.953125 Z M 329.90625 260.953125 " fill-opacity="1" fill-rule="nonzero"/><path fill="#3c2415" d="M 341.996094 116.433594 C 341.996094 116.433594 283.90625 209.289062 209.0625 205.417969 C 209.0625 205.417969 213.859375 238.265625 236.515625 232.71875 C 236.515625 232.71875 241.679688 273.460938 218.980469 296.625 C 218.980469 296.625 208.082031 317.691406 168.503906 328.808594 C 147.878906 334.605469 129.71875 350.054688 129.71875 350.054688 C 129.71875 350.054688 157.300781 293.234375 174.265625 214.058594 C 189.003906 145.285156 218.414062 110.117188 218.414062 110.117188 C 218.414062 110.117188 271.816406 39.757812 341.972656 83.78125 C 341.972656 83.78125 380.988281 87.9375 395.34375 126.394531 C 403.652344 148.632812 399.5 188.625 395.855469 220.550781 C 395.855469 220.550781 390.203125 305.222656 354.925781 325.359375 C 354.925781 325.359375 329.601562 324.058594 320.152344 313.371094 C 317 309.804688 315.609375 306.679688 314.996094 301.90625 C 314.996094 301.90625 327.234375 296.765625 336.332031 286.917969 C 348.753906 273.480469 357.65625 260.714844 366.929688 244.992188 C 366.929688 244.992188 376.371094 234.019531 372.402344 212.359375 C 372.402344 212.359375 371.902344 196.335938 375.632812 190.035156 C 375.632812 190.035156 383.664062 143.476562 341.980469 116.425781 " fill-opacity="1" fill-rule="nonzero"/><path stroke-linecap="butt" transform="matrix(0.673937, 0, 0, 0.673937, 0.665679, 0.1985)" fill="none" stroke-linejoin="miter" d="M 338.377474 327.5711 C 338.377474 327.5711 320.090587 351.532429 336.609645 368.132634 C 353.128704 384.732838 346.561654 346.611488 346.561654 346.611488 " stroke="#fbb040" stroke-width="2" stroke-opacity="1" stroke-miterlimit="10"/></svg>