<?xml version="1.0" encoding="UTF-8"?>
<svg xmlns="http://www.w3.org/2000/svg" xmlns:xlink="http://www.w3.org/1999/xlink" viewBox="0 0 1343.1 1947.71">
  <defs>
    <style>
      .cls-1, .cls-2, .cls-3, .cls-4, .cls-5, .cls-6, .cls-7 {
        fill: none;
      }

      .cls-8 {
        fill: url(#linear-gradient);
      }

      .cls-9 {
        clip-path: url(#clippath);
      }

      .cls-10 {
        fill: #006838;
      }

      .cls-11, .cls-12 {
        fill: #fff;
      }

      .cls-13 {
        fill: #f5bc49;
      }

      .cls-14 {
        fill: #efcccd;
      }

      .cls-15 {
        fill: #ffcc41;
      }

      .cls-16 {
        fill: #f16225;
      }

      .cls-17 {
        fill: #803435;
      }

      .cls-18 {
        fill: #8c3333;
      }

      .cls-19 {
        fill: #8abc5d;
      }

      .cls-20 {
        fill: #9ecb54;
      }

      .cls-21 {
        fill: #b6302e;
      }

      .cls-22, .cls-23 {
        fill: #8b5e3c;
      }

      .cls-24 {
        fill: #8daf94;
      }

      .cls-25 {
        fill: #8dd5e7;
      }

      .cls-26 {
        fill: #ae8578;
      }

      .cls-27 {
        fill: #bcbec0;
      }

      .cls-28, .cls-29 {
        fill: #be9e7d;
      }

      .cls-30 {
        fill: #d2d292;
      }

      .cls-31 {
        fill: #d1d3d4;
      }

      .cls-32 {
        fill: #dc3b28;
      }

      .cls-33 {
        fill: #134a7e;
      }

      .cls-34 {
        fill: #231f20;
      }

      .cls-35 {
        fill: #092f44;
      }

      .cls-36 {
        fill: #414d21;
      }

      .cls-37 {
        fill: #6ca442;
      }

      .cls-38 {
        fill: #288348;
      }

      .cls-39 {
        fill: #3a6bb4;
      }

      .cls-40 {
        fill: #3c2415;
      }

      .cls-41, .cls-42 {
        fill: #59bede;
      }

      .cls-43 {
        fill: #58595b;
      }

      .cls-44 {
        fill: #3aa362;
      }

      .cls-45 {
        fill: #2e3192;
      }

      .cls-46 {
        fill: #5e8f59;
      }

      .cls-47 {
        fill: #50804a;
      }

      .cls-48 {
        fill: #26130f;
      }

      .cls-49 {
        fill: #517843;
      }

      .cls-50 {
        clip-path: url(#clippath-1);
      }

      .cls-23 {
        stroke: #8b5e3c;
      }

      .cls-23, .cls-42, .cls-29, .cls-2, .cls-3, .cls-4, .cls-5, .cls-6, .cls-7 {
        stroke-miterlimit: 10;
      }

      .cls-42, .cls-5 {
        stroke: #2e3192;
      }

      .cls-29 {
        stroke: #603913;
        stroke-width: .8px;
      }

      .cls-2 {
        stroke: #0c3149;
      }

      .cls-3, .cls-7 {
        stroke: #231f20;
      }

      .cls-4 {
        stroke: #fff;
      }

      .cls-6 {
        stroke: #be1e2d;
      }

      .cls-7 {
        stroke-width: 1.2px;
      }

      .cls-12 {
        opacity: .8;
      }
    </style>
    <clipPath id="clippath">
      <rect class="cls-1" y="216.28" width="680.04" height="603.25"/>
    </clipPath>
    <clipPath id="clippath-1">
      <rect class="cls-1" x="33.76" y="252.17" width="1282.34" height="964.12"/>
    </clipPath>
    <linearGradient id="linear-gradient" x1="3177.06" y1="544.19" x2="3177.06" y2="432.93" gradientTransform="translate(4208.8 -75.93) rotate(178.65) scale(1 -1)" gradientUnits="userSpaceOnUse">
      <stop offset="0" stop-color="#be9e7d"/>
      <stop offset=".7" stop-color="#231f20"/>
    </linearGradient>
  </defs>
  <g id="fondo">
    <rect class="cls-25" x="7.05" y="216.33" width="1333.99" height="505.77"/>
    <path class="cls-19" d="M8.04,551.8s301.24-142.62,339.9-149.29c38.65-6.66,211.94,18.66,409.21,151.95l582.49,58.65,.84,97.69L6.78,722.74l1.26-170.93Z"/>
    <rect class="cls-38" x="6.89" y="721.13" width="1332.55" height="494.34"/>
    <path class="cls-11" d="M231.32,291.45l-92.77-1.84s-21.27-6.75-20.21-19.29c1.84-21.62,19.29-20.21,19.29-20.21,0,0,.92-24.8,28.47-24.8,0,0,21.12-1.84,21.12,24.8,0,0,11.02-17.45,29.39-6.43,0,0,12.86,13.78,1.84,21.12,0,0,23.88-16.53,30.31,4.59,0,0,5.51,22.96-17.45,22.04"/>
    <path class="cls-11" d="M1308.07,308.85l-92.77-1.84s-21.27-6.75-20.21-19.29c1.84-21.62,19.29-20.21,19.29-20.21,0,0,.92-24.8,28.47-24.8,0,0,21.12-1.84,21.12,24.8,0,0,11.02-17.45,29.39-6.43,0,0,12.86,13.78,1.84,21.12,0,0,23.88-16.53,30.31,4.59,0,0,5.51,22.96-17.45,22.04"/>
    <path class="cls-12" d="M536.93,374.03l-67.43-1.34s-15.46-4.91-14.69-14.02c1.34-15.71,14.02-14.69,14.02-14.69,0,0,.67-18.03,20.7-18.03,0,0,15.36-1.34,15.36,18.03,0,0,8.01-12.69,21.36-4.67,0,0,9.35,10.01,1.34,15.36,0,0,17.36-12.02,22.03,3.34,0,0,4.01,16.69-12.69,16.02"/>
    <path class="cls-12" d="M1047.9,275.49l-57.68-1.14s-13.23-4.2-12.56-11.99c1.14-13.44,11.99-12.56,11.99-12.56,0,0,.57-15.42,17.7-15.42,0,0,13.13-1.14,13.13,15.42,0,0,6.85-10.85,18.27-4,0,0,7.99,8.57,1.14,13.13,0,0,14.85-10.28,18.84,2.86,0,0,3.43,14.28-10.85,13.71"/>
    <g>
      <polygon class="cls-24" points="1222.69 660.52 1221.02 723.31 1231.06 723.31 1231.06 661.36 1222.69 660.52"/>
      <polygon class="cls-24" points="1155.71 660.52 1154.87 723.31 1159.9 723.31 1159.9 661.36 1155.71 660.52"/>
      <polygon class="cls-24" points="1036.82 660.52 1035.99 723.31 1041.01 723.31 1041.01 661.36 1036.82 660.52"/>
      <polygon class="cls-24" points="964.82 660.52 963.98 723.31 969.01 723.31 969.01 661.36 964.82 660.52"/>
      <polygon class="cls-24" points="537.12 660.52 536.29 723.31 541.31 723.31 541.31 661.36 537.12 660.52"/>
      <polygon class="cls-24" points="755.51 660.52 754.67 723.31 759.7 723.31 759.7 661.36 755.51 660.52"/>
      <polygon class="cls-24" points="461.14 662.2 459.68 724.99 468.47 724.99 468.47 663.03 461.14 662.2"/>
      <polygon class="cls-24" points="702.97 662.2 701.51 724.99 710.3 724.99 710.3 663.03 702.97 662.2"/>
      <polygon class="cls-24" points="147.33 662.2 145.86 724.99 154.65 724.99 154.65 663.03 147.33 662.2"/>
      <polygon class="cls-24" points="99.25 662.2 97.79 724.99 106.58 724.99 106.58 663.03 99.25 662.2"/>
      <polygon class="cls-24" points="32.86 662.2 32.08 724.99 36.75 724.99 36.75 663.03 32.86 662.2"/>
      <ellipse class="cls-24" cx="1232.74" cy="632.47" rx="67.82" ry="59.03"/>
      <ellipse class="cls-24" cx="966.62" cy="628.16" rx="61.2" ry="59.03"/>
      <ellipse class="cls-24" cx="539.79" cy="638.95" rx="61.2" ry="59.03"/>
      <ellipse class="cls-24" cx="115.93" cy="653.84" rx="61.2" ry="59.03"/>
      <ellipse class="cls-24" cx="54.22" cy="640" rx="45.19" ry="59.03"/>
      <ellipse class="cls-24" cx="465.64" cy="634.63" rx="35.32" ry="59.03"/>
      <ellipse class="cls-24" cx="1065.81" cy="631.03" rx="79.36" ry="59.03"/>
      <path class="cls-24" d="M1341.26,708.77c-36.19,0-65.52-26.43-65.52-59.03s29.33-59.03,65.52-59.03"/>
      <ellipse class="cls-24" cx="1155.86" cy="623.84" rx="32.43" ry="59.03"/>
    </g>
    <g>
      <path class="cls-22" d="M964.97,973.37s13.27-151.81,6.64-227.3l-68.25-100.74,14.01-6.64,62.77,86.87,3.79-82.88h14.22l-3.79,134.58,2.84,197.76s-15.17,7.39-32.23-1.64Z"/>
      <path class="cls-37" d="M744.61,630.23s-110.37,38.54-35.04,101.61c0,0,87.6,12.26,131.4-47.3,0,0,36.79,36.79,84.09,8.76,0,0,29.78,36.79,77.09,10.51,0,0,64.82,49.05,115.63,10.51,0,0,47.3,29.78,73.58,1.75,0,0,89.35,35.04,87.6-22.78-1.75-57.81-43.8-66.57-43.8-66.57,0,0,71.83-26.28,19.27-94.61-52.56-68.33-126.14-29.78-126.14-29.78l-383.68,127.89Z"/>
      <path class="cls-20" d="M770.24,486.33s-52.21,39.55-47.46,91.77c4.75,52.21,33.23,94.93,120.24,61.7,0,0,63.29,71.2,199.35,18.99,0,0,106,45.88,136.07-25.31,30.06-71.2-25.31-60.12-25.31-60.12,0,0,72.78-181.95-87.02-153.47,0,0-20.57-34.81-90.18-15.82,0,0-9.49-12.66-34.81-3.16,0,0-30.06-74.36-85.44,6.33,0,0-90.18-15.82-85.44,79.11Z"/>
      <path class="cls-44" d="M754.22,524.75s-32.6,26.21-10.63,45.56c21.97,19.35,32.31,11.06,32.31,11.06,0,0,1.05,42.66,45.72,49.7,0,0,25.15,1.39,33.96-28.46,0,0,10.49,34.6,40.81,33.75,30.31-.84,23.17-21.96,23.17-21.96,0,0,26.93,8.58,38.44-25.75,0,0,27.88-18.36,3.22-44.68,0,0-1.93-53.89-47.75-42.52,0,0-2.9-11.68-18.63-2.05,0,0-14.32-30.79-42.65-6.59,0,0-23.5-40.91-53.43-7.73,0,0-44.43-13.78-44.53,39.66Z"/>
    </g>
    <g class="cls-9">
      <g>
        <rect class="cls-37" x="153.79" y="158.66" width="402.26" height="255.18"/>
        <path class="cls-38" d="M251.35,66.57s-26.25,32.57-.66,46.78c25.6,14.21,33.93,3.9,33.93,3.9,0,0,10.14,41.46,55.28,38.79,0,0,24.86-4.01,27.09-35.05,0,0,17.64,31.56,47.07,24.26,29.43-7.3,17.94-26.41,17.94-26.41,0,0,28.14,2.63,32.05-33.37,0,0,23.31-23.89-6.4-44.33,0,0-13.39-52.24-55.73-31.34,0,0-5.33-10.79-18.64,1.97,0,0-20.56-27.02-43.07,2.68,0,0-31.7-34.94-53.84,3.86,0,0-46.35-3.97-35.03,48.26Z"/>
        <path class="cls-38" d="M455.29,241s-26.25,32.57-.66,46.78c25.6,14.21,33.93,3.9,33.93,3.9,0,0,10.14,41.46,55.28,38.79,0,0,24.86-4.01,27.09-35.05,0,0,17.64,31.56,47.07,24.26,29.43-7.3,17.94-26.41,17.94-26.41,0,0,28.14,2.63,32.05-33.37,0,0,23.31-23.89-6.4-44.33,0,0-13.39-52.24-55.73-31.34,0,0-5.33-10.79-18.64,1.97,0,0-20.56-27.02-43.07,2.68,0,0-31.7-34.94-53.84,3.86,0,0-46.35-3.97-35.03,48.26Z"/>
        <path class="cls-38" d="M87.98,141.23s-26.25,32.57-.66,46.78c25.6,14.21,33.93,3.9,33.93,3.9,0,0,10.14,41.46,55.28,38.79,0,0,24.86-4.01,27.09-35.05,0,0,17.64,31.56,47.07,24.26,29.43-7.3,17.94-26.41,17.94-26.41,0,0,28.14,2.63,32.05-33.37,0,0,23.31-23.89-6.4-44.33,0,0-13.39-52.24-55.73-31.34,0,0-5.33-10.79-18.64,1.97,0,0-20.56-27.02-43.07,2.68,0,0-31.7-34.94-53.84,3.86,0,0-46.35-3.97-35.03,48.26Z"/>
        <path class="cls-38" d="M300.3,493.5s-24.11,34.19,2.35,46.73c26.46,12.54,34.11,1.71,34.11,1.71,0,0,12.78,40.72,57.66,35.16,0,0,24.55-5.6,24.79-36.72,0,0,19.63,30.36,48.54,21.18,28.9-9.18,16.21-27.5,16.21-27.5,0,0,28.25,.82,29.84-35.36,0,0,21.73-25.34-9.23-43.83,0,0-16.72-51.27-57.63-27.7,0,0-6.01-10.43-18.48,3.17,0,0-22.25-25.64-42.81,5.44,0,0-33.88-32.83-53.49,7.31,0,0-46.51-.98-31.86,50.41Z"/>
        <path class="cls-20" d="M433.31,391.36s-37.96,17.59-21.29,41.66c16.66,24.07,28.7,18.52,28.7,18.52,0,0-9.26,41.66,32.4,59.25,0,0,24.07,7.41,39.81-19.44,0,0,1.85,36.11,31.48,42.59,29.63,6.48,27.77-15.74,27.77-15.74,0,0,24.07,14.81,43.51-15.74,0,0,31.48-11.11,13.89-42.59,0,0,11.11-52.77-36.11-52.77,0,0,0-12.04-17.59-6.48,0,0-6.48-33.33-39.81-16.66,0,0-12.96-45.36-49.99-20.37,0,0-39.81-24.07-52.77,27.77Z"/>
        <path class="cls-44" d="M454.23,294.47s-32.6,26.21-10.63,45.56c21.97,19.35,32.31,11.06,32.31,11.06,0,0,1.05,42.66,45.72,49.7,0,0,25.15,1.39,33.96-28.46,0,0,10.49,34.6,40.81,33.75,30.31-.84,23.17-21.96,23.17-21.96,0,0,26.93,8.58,38.44-25.75,0,0,27.88-18.36,3.22-44.68,0,0-1.93-53.89-47.75-42.52,0,0-2.9-11.68-18.63-2.05,0,0-14.32-30.79-42.65-6.59,0,0-23.5-40.91-53.43-7.73,0,0-44.43-13.78-44.53,39.66Z"/>
        <path class="cls-20" d="M448.81,182.83s-26.25,32.57-.66,46.78c25.6,14.21,33.93,3.9,33.93,3.9,0,0,10.14,41.46,55.28,38.79,0,0,24.86-4.01,27.09-35.05,0,0,17.64,31.56,47.07,24.26,29.43-7.3,17.94-26.41,17.94-26.41,0,0,28.14,2.63,32.05-33.37,0,0,23.31-23.89-6.4-44.33,0,0-13.39-52.24-55.73-31.34,0,0-5.33-10.79-18.64,1.97,0,0-20.56-27.02-43.07,2.68,0,0-31.7-34.94-53.84,3.86,0,0-46.35-3.97-35.03,48.26Z"/>
        <path class="cls-44" d="M290.87,121.03s-26.25,32.57-.66,46.78c25.6,14.21,33.93,3.9,33.93,3.9,0,0,10.14,41.46,55.28,38.79,0,0,24.86-4.01,27.09-35.05,0,0,17.64,31.56,47.07,24.26,29.43-7.3,17.94-26.41,17.94-26.41,0,0,28.14,2.63,32.05-33.37,0,0,23.31-23.89-6.4-44.33,0,0-13.39-52.24-55.73-31.34,0,0-5.33-10.79-18.64,1.97,0,0-20.56-27.02-43.07,2.68,0,0-31.7-34.94-53.84,3.86,0,0-46.35-3.97-35.03,48.26Z"/>
        <path class="cls-44" d="M192.77,252.48s-26.25,32.57-.66,46.78c25.6,14.21,33.93,3.9,33.93,3.9,0,0,10.14,41.46,55.28,38.79,0,0,24.86-4.01,27.09-35.05,0,0,17.64,31.56,47.07,24.26,29.43-7.3,17.94-26.41,17.94-26.41,0,0,28.14,2.63,32.05-33.37,0,0,23.31-23.89-6.4-44.33,0,0-13.39-52.24-55.73-31.34,0,0-5.33-10.79-18.64,1.97,0,0-20.56-27.02-43.07,2.68,0,0-31.7-34.94-53.84,3.86,0,0-46.35-3.97-35.03,48.26Z"/>
        <path class="cls-44" d="M62.12,452.68s-3.23,41.71,25.92,38.95c29.15-2.76,30.19-15.97,30.19-15.97,0,0,31.8,28.46,67.53,.73,0,0,18.24-17.37,2.52-44.23,0,0,32.4,16.05,52.54-6.62,20.15-22.67-.14-31.92-.14-31.92,0,0,24.7-13.75,7.56-45.65,0,0,5.71-32.89-30.35-32.95,0,0-40.59-35.51-63.69,5.67,0,0-10.5-5.89-14.26,12.17,0,0-32.24-10.65-34.01,26.57,0,0-45.91-10.89-42.22,33.64,0,0-40.47,22.94-1.59,59.61Z"/>
        <path class="cls-20" d="M158.54,438.14s-28.36,30.75-3.77,46.64c24.59,15.88,33.6,6.15,33.6,6.15,0,0,7.36,42.04,52.58,42.38,0,0,25.07-2.35,29.37-33.17,0,0,15.5,32.66,45.36,27.34,29.85-5.33,19.66-25.15,19.66-25.15,0,0,27.9,4.5,34.2-31.16,0,0,24.85-22.29-3.43-44.66,0,0-9.89-53.01-53.52-34.98,0,0-4.6-11.12-18.73,.73,0,0-18.72-28.33-43.16-.2,0,0-29.3-36.97-53.98,.27,0,0-45.98-7.04-38.16,45.82Z"/>
        <path class="cls-44" d="M32.29,353.02s-3.76,41.67,25.42,39.28c29.18-2.39,30.39-15.59,30.39-15.59,0,0,31.44,28.86,67.51,1.59,0,0,18.46-17.14,3.08-44.2,0,0,32.19,16.46,52.62-5.95,20.43-22.41,.27-31.92,.27-31.92,0,0,24.87-13.43,8.14-45.55,0,0,6.13-32.81-29.93-33.33,0,0-40.13-36.02-63.76,4.86,0,0-10.42-6.02-14.41,11.99,0,0-32.1-11.06-34.34,26.13,0,0-45.76-11.47-42.65,33.1,0,0-40.76,22.43-2.35,59.59Z"/>
        <path class="cls-22" d="M258.25,523.64l41.87,92.71,41.87,7.97s3.99,108.66-9.97,142.55c0,0-9.97,16.95-41.87,27.91,0,0,54.83,32.9,136.57,0,0,0-38.88-12.96-42.87-29.91l-5.98-95.7,55.82-50.84,1-34.89,37.49-23.67-14.24-.55-23,13.14v-19.17l-8.76-7.12-.55,65.72-47.65,44.36-3.29-85.99-33.41-29.58-.55,61.34-33.41-1.64-44.91-88.73-4.17,12.06Z"/>
        <path class="cls-37" d="M259.67,328.57s-37.96,17.59-21.29,41.66c16.66,24.07,28.7,18.52,28.7,18.52,0,0-9.26,41.66,32.4,59.25,0,0,24.07,7.41,39.81-19.44,0,0,1.85,36.11,31.48,42.59,29.63,6.48,27.77-15.74,27.77-15.74,0,0,24.07,14.81,43.51-15.74,0,0,31.48-11.11,13.89-42.59,0,0,11.11-52.77-36.11-52.77,0,0,0-12.04-17.59-6.48,0,0-6.48-33.33-39.81-16.66,0,0-12.96-45.36-49.99-20.37,0,0-39.81-24.07-52.77,27.77Z"/>
        <path class="cls-37" d="M74.45,277.48s-3.76,41.67,25.42,39.28c29.18-2.39,30.39-15.59,30.39-15.59,0,0,31.44,28.86,67.51,1.59,0,0,18.46-17.14,3.08-44.2,0,0,32.19,16.46,52.62-5.95,20.43-22.41,.27-31.92,.27-31.92,0,0,24.87-13.43,8.14-45.55,0,0,6.13-32.81-29.93-33.33,0,0-40.13-36.02-63.76,4.86,0,0-10.42-6.02-14.41,11.99,0,0-32.1-11.06-34.34,26.13,0,0-45.76-11.47-42.65,33.1,0,0-40.76,22.43-2.35,59.59Z"/>
      </g>
    </g>
    <path class="cls-10" d="M212.59,861.85s392.9-16.95,418.82,13.96c25.93,30.91-37.89,44.87-66.81,64.82-28.92,19.94-93.74,28.92-175.51-6.98-81.77-35.9-180.49-22.94-180.49-22.94l3.99-48.86Z"/>
    <path class="cls-37" d="M459.5,857.23s36.6-46.06-10.63-45.21c0,0,21.25-64.82-34.24-57.15,0,0-110.98-57.15-125.15,30.71,0,0-70.56-39.56-88.28,10.77l.96,81.87s73.34,10.68,158.17-1.57c0,0,61.44-8.41,99.17-19.42Z"/>
    <path class="cls-10" d="M1265.06,812.16s-334.85-4.27-534.33,7.12c-199.48,11.4,193.78,19.95,193.78,19.95,0,0,233.68,15.67,349.1,55.57,115.42,39.9-8.55-82.64-8.55-82.64Z"/>
    <rect class="cls-10" x="7.05" y="722.1" width="1333.84" height="27.21"/>
    <g>
      <path class="cls-47" d="M747.44,215.76s-30.08-3.41-66.8,49.38c-36.72,52.79-112.46,189.74-44.37,244.82,0,0,44.37,19.89,71.15-39.02,26.78-58.91,41.31-132.36,41.31-132.36,0,0,51.74-107.94-1.29-122.83Z"/>
      <path class="cls-20" d="M703.31,695.25s52.11-55.75,157.55-12.12c105.44,43.63,101.8,81.2,101.8,81.2,0,0-4.85,21.81-35.15,14.54l-36.36-12.12-10.91-33.93-4.85,25.45-54.54-14.54-8.48-30.3-3.64,26.66s-94.53-12.12-105.44-44.84Z"/>
      <path class="cls-37" d="M742.32,573.35s49.09-69.19,167.11-31.52c118.03,37.67,118.63,80.76,118.63,80.76,0,0-2.58,25.32-35.86,20.48l-40.35-9.67-15.73-37.31-2.14,29.45-60.09-10.37-12.7-33.46-.7,30.69s-102.59-3.11-118.17-39.05Z"/>
      <path class="cls-20" d="M719.65,486.45s-11.7-84.02,100.06-137.51c111.75-53.49,141.73-22.54,141.73-22.54,0,0,15.48,20.2-12.07,39.49l-36,20.62-37.03-16.38,18.63,22.91-50.86,33.64-32.18-15.65,20.53,22.83s-76.82,68.06-112.8,52.58Z"/>
      <path class="cls-46" d="M662.23,553.21s1.29-84.83,119.91-120.59c118.62-35.77,143.51-.6,143.51-.6,0,0,12.21,22.33-17.97,37.18l-38.73,14.87-34.09-21.85,14.91,25.49-55.4,25.47-29.41-20.39,16.8,25.7s-86.33,55.51-119.52,34.72Z"/>
      <path class="cls-49" d="M753.78,534.35s36.6-83.94,178.71-88.61c142.11-4.66,154.21,36.76,154.21,36.76,0,0,3.83,25.37-34.71,32.27l-47.73,4.7-27.5-30.58,5.41,29.21-70.01,10.89-23.09-27.91,7.36,29.9s-115.66,32.69-142.64,3.38Z"/>
      <path class="cls-37" d="M629.13,568.43s23.34-88.55-85.25-180.34c-108.59-91.79-143.77-66.8-143.77-66.8,0,0-18.74,17.53,7.22,46.84l34.53,33.28,40.54-6.94-22.36,19.56,48.18,51.96,35.42-7.58-24.31,18.9s70.47,97.37,109.8,91.11Z"/>
      <path class="cls-20" d="M507.53,515.72s-1.06-91.57-130.17-151.15-156.36-26.12-156.36-26.12c0,0-13.4,21.88,19.43,43.23l42.14,22.89,37.23-17.48-16.35,24.8,60.27,37.26,32.13-16.73-18.41,24.69s93.84,75.11,130.09,58.6Z"/>
      <path class="cls-37" d="M507.67,519.32s-41.3-81.73-183.45-78.32c-142.15,3.41-151.88,45.45-151.88,45.45,0,0-2.39,25.54,36.49,30.25l47.92,1.98,25.72-32.1-3.75,29.47,70.52,6.9,21.47-29.18-5.65,30.27s117.33,26.07,142.6-4.71Z"/>
      <path class="cls-20" d="M504.8,509.64s-72.08-56.49-199.35,6.9-118.25,105.59-118.25,105.59c0,0,8.68,24.14,45.87,11.91l44.24-18.53,9.68-39.98,9.11,28.27,66.78-23.67,7.06-35.53,7.73,29.81s117.31-26.16,127.13-64.76Z"/>
      <path class="cls-37" d="M536.77,654.06s-64.36-65.14-198.63-18.35c-134.27,46.8-130.65,89.8-130.65,89.8,0,0,5.56,25.05,44,17.61l46.22-12.8,14.65-38.43,5.46,29.2,69.24-15.04,11.5-34.35,3.9,30.55s119.68-11.13,134.3-48.18Z"/>
      <path class="cls-49" d="M572.2,551.63s-25.45-81.15-139.61-63.96c-114.15,17.19-125.87,61.91-125.87,61.91,0,0-4.29,26.83,26.4,28l38.19-2.54,23.59-35.89-5.75,31.05,55.83,.41,19.91-32.44-7.35,32.07s91.53,15.89,114.64-18.6Z"/>
      <path class="cls-37" d="M578.67,1120.59s15.66-207.87,15.66-348.82c0,0,35.59,45.56,34.17,59.8,0,0,1.55-73.31,74.81-136.32l13.46,13.88s-61.22,25.63-72.61,130.99c-11.39,105.36,25.63,290.45,25.63,290.45l-91.12-9.97Z"/>
      <path class="cls-47" d="M628.5,831.57s-14.02-40.26-34.17-59.8c0,0-21.39-92.44-68.34-108.5l10.77-9.21s39.89,30.22,57.19,66.05c0,0-24.71-102.56-88.97-148.28l23.48-2.47s65.49,90.2,75.37,119.86c9.89,29.66,6.18,56.84,6.18,56.84l9.89-17.3s-2.47-140.86,49.43-189.05l6.98,10.37s-37.87,67.47-35.4,142.85c0,0,32.98-114.5,112.87-158.57l30.47,5.36s-88.97,22.24-128.51,177.93c0,0-13.59,34.6-9.89,45.72,0,0-22.34,51.17-17.35,68.22Z"/>
      <path class="cls-37" d="M572.2,551.63s42.79,32.03,39.52,89.26c0,0,53.96-322.12,135.71-425.13l13.08,8.18s-122.63,206.02-117.73,358.09c0,0-26.15,111.98-22.89,146.74l-9.89,17.3-6.18-56.84s1.34-79.4-44.44-131.72l12.8-5.87Z"/>
      <path class="cls-15" d="M409.88,736.34s-10.47-17.01-13.74-4.58c-3.27,12.43,7.2,54.95,41.21,62.14,0,0,5.89,0,10.47-1.31,4.58-1.31,9.16,4.58,20.28,0,0,0,9.81,6.54,18.32-1.31,0,0,11.77,2.62,17.66-1.31,0,0,7.2,9.16,18.97,5.23,0,0,5.89,5.89,16.35,0,0,0,35.98-17.01,28.13-63.45,0,0-13.74-6.54-14.39,5.89,0,0-8.5-18.97-20.28-1.96l-5.89,7.85s-.65-18.97-8.5-18.32c-7.85,.65-18.97,20.28-18.97,20.28,0,0-8.5-33.36-17.01-24.2-8.5,9.16-10.47,28.78-10.47,28.78,0,0-24.86-37.28-29.43-23.55-4.58,13.74-1.96,25.51-1.96,25.51,0,0-15.04-32.05-20.93-26.82-5.89,5.23-9.81,11.12-9.81,11.12Z"/>
      <ellipse class="cls-36" cx="564.25" cy="725.55" rx="3.27" ry="6.21"/>
      <ellipse class="cls-36" cx="544.6" cy="725.33" rx="3.27" ry="6.21"/>
      <ellipse class="cls-36" cx="520.65" cy="721.65" rx="3.27" ry="6.21"/>
      <ellipse class="cls-36" cx="482.4" cy="718.61" rx="3.27" ry="6.21"/>
      <ellipse class="cls-36" cx="443.45" cy="721.07" rx="3.27" ry="6.21"/>
      <ellipse class="cls-36" cx="420.1" cy="723.01" rx="3.27" ry="6.21"/>
      <ellipse class="cls-36" cx="398.22" cy="723.84" rx="3.27" ry="6.21"/>
      <path class="cls-15" d="M409.88,832.07s-10.47-17.01-13.74-4.58c-3.27,12.43,7.2,54.95,41.21,62.14,0,0,5.89,0,10.47-1.31,4.58-1.31,9.16,4.58,20.28,0,0,0,9.81,6.54,18.32-1.31,0,0,11.77,2.62,17.66-1.31,0,0,7.2,9.16,18.97,5.23,0,0,5.89,5.89,16.35,0,0,0,35.98-17.01,28.13-63.45,0,0-13.74-6.54-14.39,5.89,0,0-8.5-18.97-20.28-1.96l-5.89,7.85s-.65-18.97-8.5-18.32c-7.85,.65-18.97,20.28-18.97,20.28,0,0-8.5-33.36-17.01-24.2-8.5,9.16-10.47,28.78-10.47,28.78,0,0-24.86-37.28-29.43-23.55-4.58,13.74-1.96,25.51-1.96,25.51,0,0-15.04-32.05-20.93-26.82-5.89,5.23-9.81,11.12-9.81,11.12Z"/>
      <ellipse class="cls-36" cx="564.25" cy="821.28" rx="3.27" ry="6.21"/>
      <ellipse class="cls-36" cx="544.6" cy="821.06" rx="3.27" ry="6.21"/>
      <ellipse class="cls-36" cx="520.65" cy="817.38" rx="3.27" ry="6.21"/>
      <ellipse class="cls-36" cx="482.4" cy="814.34" rx="3.27" ry="6.21"/>
      <ellipse class="cls-36" cx="443.45" cy="816.8" rx="3.27" ry="6.21"/>
      <ellipse class="cls-36" cx="420.1" cy="818.74" rx="3.27" ry="6.21"/>
      <ellipse class="cls-36" cx="398.22" cy="819.57" rx="3.27" ry="6.21"/>
      <path class="cls-30" d="M450.75,1154.72s233.74,20.62,336.86,1.96c0,0-1.96-4.91-10.8-7.86l14.73-4.91s-21.61-22.59-55.98-12.77l25.53-10.8s-15.71-25.53-54.02,3.93c0,0,7.86-22.59,18.66-30.45,0,0-39.28,4.91-51.07,23.57,0,0-2.95-30.45,24.55-42.23,0,0-37.32,1.96-48.12,22.59l-71.69-1.96s-15.71-27.5-36.34-24.55c0,0,23.57,12.77,22.59,38.3,0,0-27.5-22.59-40.27-15.71,0,0,18.66,21.61,13.75,33.39,0,0-35.36-26.52-54.02-4.91,0,0,24.55,2.95,24.55,14.73,0,0-42.23-15.71-58.93,17.68Z"/>
    </g>
    <g>
      <path class="cls-24" d="M1343.1,663.24c-22.14,29.96-69.22,8.06-118.71-1.06-49.49-9.12-48.19,37.77-48.19,37.77-29.96,35.17-15.63-10.42-84.66-7.81-69.03,2.6-33.86-109.41-7.81-118.53,26.05-9.12,44.28-65.12,29.96-113.32-14.33-48.19,69.03-135.46,69.03-135.46,0,0,111.31-65.78,157.5,1.59"/>
      <path class="cls-46" d="M1139.37,533.73s-77.66,35.65-78.93,133.68c0,0,66.2-31.83,78.93-133.68Z"/>
      <path class="cls-46" d="M1118.03,645.09s-75.71,39.62-71.91,137.58c0,0,64.47-35.21,71.91-137.58Z"/>
      <path class="cls-46" d="M1188.47,464.54s-85.38,3.58-123.68,93.83c0,0,73.33-4.39,123.68-93.83Z"/>
      <path class="cls-46" d="M1170.97,331.59s-31.49,60.62,15.84,123.09c0,0,26.14-52.59-15.84-123.09Z"/>
      <path class="cls-46" d="M1260.09,329.37s-60.67,31.39-58,109.72c0,0,51.67-27.91,58-109.72Z"/>
      <path class="cls-46" d="M1300.81,511.19s-25.55-63.35-103.79-68.05c0,0,22.93,54.06,103.79,68.05Z"/>
      <path class="cls-46" d="M1170.59,708.85s.52-45.99-46.89-69.16c0,0,.26,39.53,46.89,69.16Z"/>
      <path class="cls-46" d="M1262.2,688.81s.62-54.67-55.75-82.22c0,0,.31,47,55.75,82.22Z"/>
      <path class="cls-46" d="M1205.95,679.34s.43-38.22-38.97-57.47c0,0,.21,32.85,38.97,57.47Z"/>
      <path class="cls-46" d="M1177.43,451.52s-56.32-34.08-119.35,7.52c0,0,48.93,28.43,119.35-7.52Z"/>
      <path class="cls-46" d="M1173.26,497.99s-58.23,50.71-34.33,136.03c0,0,49.28-44.48,34.33-136.03Z"/>
      <path class="cls-46" d="M1111.84,478.99s-50.87-3.4-79.43,47.65c0,0,43.78,2.14,79.43-47.65Z"/>
      <path class="cls-46" d="M1053.44,654.17s-30.95,7.72-38.19,43.59c0,0,26.49-7.11,38.19-43.59Z"/>
      <path class="cls-46" d="M1102.53,729.64s-32.36,32.34-14.77,81.79c0,0,27.32-28.29,14.77-81.79Z"/>
      <path class="cls-46" d="M1070.46,571.07s-60.71,16.53-73.45,87.58c0,0,51.92-15.14,73.45-87.58Z"/>
      <path class="cls-46" d="M1310.9,419.13s-47.1-19.53-90.52,19.68c0,0,40.78,16.06,90.52-19.68Z"/>
      <path class="cls-46" d="M1156.47,433.08s.86-50.98-51.55-76.96c0,0,.04,43.83,51.55,76.96Z"/>
      <path class="cls-46" d="M1315,357.79s-50.99,.26-75.81,53.24c0,0,43.82-1.01,75.81-53.24Z"/>
      <path class="cls-46" d="M1203.04,328.75s-21.14,26.28-4.29,61.12c0,0,17.76-22.91,4.29-61.12Z"/>
      <path class="cls-46" d="M1203.77,478.92s-46.53,54.17-13.29,129.06c0,0,39.16-47.27,13.29-129.06Z"/>
      <path class="cls-46" d="M1218.24,491.41s-15.98,48.18,26.09,88.45c0,0,12.99-41.65-26.09-88.45Z"/>
      <path class="cls-46" d="M1340.93,548.85s-48.86,14.57-57.81,72.38c0,0,41.77-13.27,57.81-72.38Z"/>
      <path class="cls-46" d="M1340.92,501.26s-49.09,13.79-58.95,71.45c0,0,41.98-12.6,58.95-71.45Z"/>
      <path class="cls-46" d="M1316.49,607.55s-43.73,26.22-38.07,84.45c0,0,37.18-23.21,38.07-84.45Z"/>
      <path class="cls-46" d="M1336.08,475.36s-28.37-42.37-86.24-33.81c0,0,25.03,35.98,86.24,33.81Z"/>
      <path class="cls-46" d="M1305.2,378.5s-2.37,33.64,31.34,52.66c0,0,1.52-28.95-31.34-52.66Z"/>
      <path class="cls-13" d="M1259.04,514.64s-19.1,26.74-7.64,52.2c11.46,25.46,15.28,35.65,25.46,21.64,10.19-14,7.64-63.66-17.82-73.84Z"/>
      <path class="cls-13" d="M1293.41,444.61s-19.1,26.74-7.64,52.2c11.46,25.46,15.28,35.65,25.46,21.64,10.19-14,7.64-63.66-17.82-73.84Z"/>
      <path class="cls-13" d="M1122.81,701.79s-19.1,26.74-7.64,52.2c11.46,25.46,15.28,35.65,25.46,21.64,10.19-14,7.64-63.66-17.82-73.84Z"/>
      <path class="cls-13" d="M1163.56,722.16s-19.1,26.74-7.64,52.2c11.46,25.46,15.28,35.65,25.46,21.64,10.19-14,7.64-63.66-17.82-73.84Z"/>
      <path class="cls-23" d="M1341.59,888.1s-17.62,82.32-4.88,130.7c0,0-16.55,28.01-66.2,8.91l36.92-175.69s6.37-45.83-6.37-63.66c-12.73-17.82-29.28-59.84-29.28-59.84,0,0-81.48-35.65-105.67-54.74,0,0,0-12.73,20.37-1.27,20.37,11.46,85.3,59.84,110.76,22.92,25.46-36.92,28.01-64.93,28.01-64.93l-11.46,87.85,28.02,91.93"/>
      <path class="cls-37" d="M1341.81,1014.25l-69.22,10.98s-10.57-18.49-24.44-16.51c0,0,15.85,8.59,15.19,25.76,0,0-18.49-15.19-27.08-10.57,0,0,12.55,14.53,9.25,22.46,0,0-23.78-17.83-36.33-3.3,0,0,16.51,1.98,16.51,9.91,0,0-28.4-10.57-39.63,11.89,0,0,86.4,15.15,155.75,2.6"/>
    </g>
  </g>
  <g id="Layer_1" data-name="Layer 1">
    <g class="cls-50">
      <g>
        <path class="cls-28" d="M592.83,880.14s55.59,35.17,96.43,22.69,114.59-54.46,114.59-54.46l24.96-110.05-152.03,38.57-71.48,41.98-12.48,61.26Z"/>
        <path class="cls-28" d="M367.76,496.55s10.92,34.6-6.72,68.41c0,0-4.41,123.49,89.67,133.04,0,0,72.44-44.21,57.65-114.14-1.07-5.04-17.83-7.86-19.69-13.18l-120.92-74.13Z"/>
        <path class="cls-33" d="M233.24,1116.9s170.34,116.02,351.11,28.64l-15.86,356.37s1,66.28-11.05,128.55c-12.05,62.27-27.12,206.89-27.12,206.89,0,0-34.15,20.09-86.37,6.03,0,0-39.17,68.29-138.6,16.07,0,0-31.13-130.56-16.07-200.86,0,0,4.02-57.25,0-109.47,0,0-95.23-346.85-56.06-432.22Z"/>
        <path class="cls-32" d="M346.71,567.98s-80.94,31.84-118.72,72.08c0,0-26.28,19.71-32.03,61.6,0,0-18.17,49.78-21.82,154.34,0,0,50.24,21.93,85.73,33.28l-38.6,227.62s62.58,66.87,244.09,69.33c0,0,83.57-.46,122.17-41.52,0,0,12.82-116.41,10.06-283.72,0,0-9.57,27.03,4.74,20.89l74.47-104.99s-61.14-141.85-105.44-169.45c0,0-29.83-17.43-58.52-23.28l-52.14,37.4-12.19,63.99-19.07-51.69s-2.98-18.68-82.71-65.89Z"/>
        <path class="cls-2" d="M443.97,1843.38s32.57-371.01,13.85-507.68c0,0,20.97-39.76,23.15-80.09"/>
        <line class="cls-6" x1="598.82" y1="882.21" x2="586.48" y2="708.53"/>
        <path class="cls-28" d="M532.13,340.21s18.6,27.39,12.76,92.55c0,0-2.95,15.62-1.4,24.11,1.55,8.48,1.36,22.56-1.96,31.55-3.33,8.99-27.73,69.21-27.73,69.21,0,0-7.93,17.45-38.74,17.3-30.81-.15-56.77-11.81-67.66-24.97-10.88-13.16-38.31-34.62-40.74-54.62,0,0-18.35,3.88-25.47-18.23,0,0-19.38-34.5,.64-43.1,20.03-8.6,31.12,19.1,31.12,19.1,0,0-22.41-81.4,23.52-112.24,0,0,56.77-45.86,135.65-.67Z"/>
        <path class="cls-40" d="M469.75,411.26s-26.37-5.16-48,6.36c0,0,9.42-18.39,47.96-14.05,0,0,6.7,4.25,.04,7.69Z"/>
        <path class="cls-40" d="M545.96,422.22c-16.44-8.91-26.78-6.78-26.78-6.78-5.59-5,1.97-7.43,1.97-7.43,11.96,1.71,20.63,4.84,26.9,8.35,0,0-1.2,6.35-2.1,5.86Z"/>
        <path class="cls-7" d="M340.44,448.62s8.31-10.72,15.78,1.43c7.47,12.15,7.63,16.02,7.63,16.02,0,0-10.57-19.19-16.43-4.88"/>
        <path class="cls-48" d="M476.85,574.2s-27.08,1.83-48.77-9.07c0,0-13.32-4.48-30.61-25.24,0,0,16.5,30.4,49.47,35.34,0,0,14.72,3.77,29.91-1.03,0,0-.81,3.2,0,0Z"/>
        <g>
          <path class="cls-11" d="M436.87,430.83s.02-.71,.57-1.28c1.82-1.89,5.99-5.4,12.33-5.16,7.09,.28,10.74,7.09,11.98,9.51,.21,.42,.18,.78,.18,.78,0,0,0,.4-.24,.66-1.18,1.27-5.1,4.79-11.82,4.63-4-.09-9.53-2.46-12.79-8.02-.23-.39-.23-.87-.21-1.13Z"/>
          <circle class="cls-48" cx="451.45" cy="432.66" r="7.34"/>
          <circle class="cls-11" cx="446.88" cy="430.99" r="2.01"/>
          <path class="cls-3" d="M462.18,433.94s-7.97-17.26-25.01-4.45"/>
        </g>
        <g>
          <path class="cls-11" d="M518.4,439.98s-.08-.67,.35-1.28c1.42-2.02,4.8-5.88,10.72-6.56,6.63-.76,11,5.06,12.5,7.14,.26,.36,.28,.7,.28,.7,0,0,.07,.37-.13,.65-.92,1.35-4.06,5.18-10.33,6-3.73,.48-9.21-.93-13.04-5.63-.27-.33-.33-.78-.35-1.02Z"/>
          <circle class="cls-48" cx="532.22" cy="439.58" r="6.88"/>
          <circle class="cls-11" cx="527.52" cy="438.82" r="1.93"/>
          <path class="cls-3" d="M542.1,439.5s-9.48-15.91-23.54-.49"/>
        </g>
        <path class="cls-34" d="M452.11,379.49s34.08-2.47,72.27,3.61"/>
        <path class="cls-34" d="M480.33,404.13s2.79,4.96,.27,8.89c0,0,6.71-4.18-.27-8.89Z"/>
        <path class="cls-7" d="M499.65,444.02l14.11,27.42s7.15,20.67-6.39,23.14c-12.05,2.2-12.24-.42-12.24-.42"/>
        <path class="cls-40" d="M366.52,452.62l10.22-3.41c3.09-25.25,11.2-79.19,31.47-99.93,0,0,79.24-28.31,124.11,7.91,0,0,14.99,14.19,11.45,80.41,0,0,14.72-44.7,4.79-85.54,0,0,13.74-7.51,15.93-11.44,0,0-17.13,1.06-24.53-8.5-4.34-5.6-65.72-68.37-148.27-21.67,0,0-72.36,10.44-55.31,126.21,0,0,21.67-15.97,30.13,15.96Z"/>
        <polygon class="cls-18" points="350.16 556.83 365.67 554.38 362.79 572.62 350.16 556.83"/>
        <path class="cls-21" d="M337.05,574.18s79.67,48.48,95.4,76l-2.18-27.26s-59.08-38.05-80.1-66.09l-13.11,17.35Z"/>
        <path class="cls-21" d="M490.79,573.44s34.05-1.6,32.92,17.74l-61.06,46.49-1.97-16.12s28.79-14.4,47.69-37.69c0,0-16.87-1.09-17.58-10.42Z"/>
        <path class="cls-6" d="M451.09,683.78s20.05,161.31,16.88,503.72"/>
        <ellipse class="cls-14" cx="433.72" cy="694.47" rx="4.76" ry="5.16"/>
        <ellipse class="cls-14" cx="445.79" cy="781.03" rx="4.76" ry="5.16"/>
        <ellipse class="cls-14" cx="451.75" cy="874.76" rx="4.76" ry="5.16"/>
        <ellipse class="cls-14" cx="453.41" cy="960.26" rx="4.76" ry="5.16"/>
        <ellipse class="cls-14" cx="455.82" cy="1067.75" rx="4.76" ry="5.16"/>
        <g>
          <polygon class="cls-14" points="392.29 1181.22 399.49 1172.67 383.13 1157.45 367.91 1173.81 372.88 1178.61 392.29 1181.22"/>
          <polygon class="cls-14" points="419.7 1183.83 430.96 1171.54 414.6 1156.32 399.38 1172.68 409.52 1182.87 419.7 1183.83"/>
          <rect class="cls-14" x="371.38" y="1130.36" width="22.35" height="22.35" transform="translate(-713.78 644.05) rotate(-47.07)"/>
          <rect class="cls-43" x="387.63" y="1145.77" width="22.35" height="22.35" transform="translate(-719.88 660.86) rotate(-47.07)"/>
          <rect class="cls-14" x="402.86" y="1129.23" width="22.35" height="22.35" transform="translate(-702.92 666.73) rotate(-47.07)"/>
          <rect class="cls-14" x="370.34" y="1098.73" width="22.35" height="22.35" transform="translate(-690.96 633.2) rotate(-47.07)"/>
          <rect class="cls-43" x="386.59" y="1114.14" width="22.35" height="22.35" transform="translate(-697.06 650.01) rotate(-47.07)"/>
          <rect class="cls-14" x="401.81" y="1097.6" width="22.35" height="22.35" transform="translate(-680.09 655.88) rotate(-47.07)"/>
          <rect class="cls-14" x="369.21" y="1067.29" width="22.35" height="22.35" transform="translate(-668.3 622.35) rotate(-47.07)"/>
          <rect class="cls-43" x="385.46" y="1082.7" width="22.35" height="22.35" transform="translate(-674.4 639.16) rotate(-47.07)"/>
          <rect class="cls-14" x="400.68" y="1066.15" width="22.35" height="22.35" transform="translate(-657.43 645.03) rotate(-47.07)"/>
          <rect class="cls-14" x="368.07" y="1035.84" width="22.35" height="22.35" transform="translate(-645.64 611.49) rotate(-47.07)"/>
          <rect class="cls-43" x="384.32" y="1051.25" width="22.35" height="22.35" transform="translate(-651.74 628.3) rotate(-47.07)"/>
          <rect class="cls-14" x="399.55" y="1034.71" width="22.35" height="22.35" transform="translate(-634.77 634.17) rotate(-47.07)"/>
          <rect class="cls-14" x="366.94" y="1004.4" width="22.35" height="22.35" transform="translate(-622.98 600.63) rotate(-47.07)"/>
          <rect class="cls-43" x="383.19" y="1019.81" width="22.35" height="22.35" transform="translate(-629.08 617.44) rotate(-47.07)"/>
          <rect class="cls-14" x="398.41" y="1003.26" width="22.35" height="22.35" transform="translate(-612.11 623.31) rotate(-47.07)"/>
          <rect class="cls-14" x="365.81" y="973.06" width="22.35" height="22.35" transform="translate(-600.4 589.81) rotate(-47.07)"/>
          <rect class="cls-43" x="382.06" y="988.47" width="22.35" height="22.35" transform="translate(-606.5 606.63) rotate(-47.07)"/>
          <rect class="cls-14" x="397.28" y="971.93" width="22.35" height="22.35" transform="translate(-589.53 612.5) rotate(-47.07)"/>
          <rect class="cls-14" x="364.68" y="941.62" width="22.35" height="22.35" transform="translate(-577.74 578.96) rotate(-47.07)"/>
          <rect class="cls-43" x="380.92" y="957.03" width="22.35" height="22.35" transform="translate(-583.84 595.77) rotate(-47.07)"/>
          <rect class="cls-14" x="396.15" y="940.48" width="22.35" height="22.35" transform="translate(-566.87 601.64) rotate(-47.07)"/>
          <rect class="cls-14" x="363.55" y="910.28" width="22.35" height="22.35" transform="translate(-555.16 568.14) rotate(-47.07)"/>
          <rect class="cls-43" x="379.79" y="925.69" width="22.35" height="22.35" transform="translate(-561.26 584.95) rotate(-47.07)"/>
          <rect class="cls-14" x="395.02" y="909.15" width="22.35" height="22.35" transform="translate(-544.29 590.82) rotate(-47.07)"/>
          <rect class="cls-14" x="362.41" y="878.84" width="22.35" height="22.35" transform="translate(-532.49 557.28) rotate(-47.07)"/>
          <rect class="cls-43" x="378.66" y="894.25" width="22.35" height="22.35" transform="translate(-538.6 574.09) rotate(-47.07)"/>
          <rect class="cls-14" x="393.88" y="877.7" width="22.35" height="22.35" transform="translate(-521.63 579.96) rotate(-47.07)"/>
          <rect class="cls-14" x="361.28" y="847.5" width="22.35" height="22.35" transform="translate(-509.91 546.47) rotate(-47.07)"/>
          <rect class="cls-43" x="377.53" y="862.91" width="22.35" height="22.35" transform="translate(-516.01 563.28) rotate(-47.07)"/>
          <rect class="cls-14" x="392.75" y="846.37" width="22.35" height="22.35" transform="translate(-499.05 569.15) rotate(-47.07)"/>
          <rect class="cls-14" x="360.03" y="815.51" width="22.35" height="22.35" transform="translate(-486.89 535.35) rotate(-47.07)"/>
          <rect class="cls-43" x="376.28" y="830.92" width="22.35" height="22.35" transform="translate(-492.99 552.16) rotate(-47.07)"/>
          <rect class="cls-14" x="391.5" y="814.37" width="22.35" height="22.35" transform="translate(-476.02 558.03) rotate(-47.07)"/>
          <rect class="cls-14" x="358.99" y="783.88" width="22.35" height="22.35" transform="translate(-464.06 524.5) rotate(-47.07)"/>
          <rect class="cls-43" x="375.24" y="799.29" width="22.35" height="22.35" transform="translate(-470.16 541.31) rotate(-47.07)"/>
          <rect class="cls-14" x="390.46" y="782.74" width="22.35" height="22.35" transform="translate(-453.19 547.18) rotate(-47.07)"/>
          <rect class="cls-14" x="357.85" y="752.44" width="22.35" height="22.35" transform="translate(-441.4 513.64) rotate(-47.07)"/>
          <rect class="cls-43" x="374.1" y="767.84" width="22.35" height="22.35" transform="translate(-447.5 530.45) rotate(-47.07)"/>
          <rect class="cls-14" x="389.32" y="751.3" width="22.35" height="22.35" transform="translate(-430.54 536.32) rotate(-47.07)"/>
          <rect class="cls-14" x="356.72" y="720.99" width="22.35" height="22.35" transform="translate(-418.74 502.79) rotate(-47.07)"/>
          <rect class="cls-43" x="372.97" y="736.4" width="22.35" height="22.35" transform="translate(-424.84 519.6) rotate(-47.07)"/>
          <rect class="cls-14" x="388.19" y="719.85" width="22.35" height="22.35" transform="translate(-407.88 525.47) rotate(-47.07)"/>
          <rect class="cls-14" x="355.58" y="689.54" width="22.35" height="22.35" transform="translate(-396.08 491.93) rotate(-47.07)"/>
          <rect class="cls-43" x="371.83" y="704.95" width="22.35" height="22.35" transform="translate(-402.18 508.74) rotate(-47.07)"/>
          <rect class="cls-14" x="387.06" y="688.41" width="22.35" height="22.35" transform="translate(-385.22 514.61) rotate(-47.07)"/>
          <rect class="cls-14" x="354.45" y="658.21" width="22.35" height="22.35" transform="translate(-373.5 481.11) rotate(-47.07)"/>
          <rect class="cls-43" x="370.7" y="673.62" width="22.35" height="22.35" transform="translate(-379.6 497.92) rotate(-47.07)"/>
          <rect class="cls-14" x="385.93" y="657.07" width="22.35" height="22.35" transform="translate(-362.64 503.79) rotate(-47.07)"/>
          <rect class="cls-14" x="353.32" y="626.76" width="22.35" height="22.35" transform="translate(-350.84 470.26) rotate(-47.07)"/>
          <rect class="cls-43" x="369.57" y="642.17" width="22.35" height="22.35" transform="translate(-356.94 487.07) rotate(-47.07)"/>
          <rect class="cls-14" x="384.79" y="625.63" width="22.35" height="22.35" transform="translate(-339.97 492.94) rotate(-47.07)"/>
          <rect class="cls-14" x="352.25" y="595.42" width="22.35" height="22.35" transform="translate(-328.24 459.48) rotate(-47.07)"/>
          <rect class="cls-43" x="368.5" y="610.83" width="22.35" height="22.35" transform="translate(-334.34 476.29) rotate(-47.07)"/>
          <polyline class="cls-43" points="381.91 602.99 379.21 606.01 362.85 590.79 363.64 589.94"/>
          <polygon class="cls-14" points="395.47 621.25 379.11 606.03 381.91 602.99 399.86 616.64 395.47 621.25"/>
        </g>
        <g>
          <polyline class="cls-14" points="295.32 855.24 277.58 867.11 265.18 848.58 283.71 836.18 295.62 853.94"/>
          <polygon class="cls-43" points="297.89 838.93 295.62 853.94 283.87 836.33 299.49 825.84 297.89 838.93"/>
          <polyline class="cls-14" points="299.43 825.75 283.69 836.29 271.29 817.76 289.81 805.36 299.95 820.5"/>
          <rect class="cls-14" x="238.54" y="834.27" width="22.29" height="22.29" transform="translate(-428.05 281.73) rotate(-33.79)"/>
          <rect class="cls-43" x="257.23" y="822.02" width="22.29" height="22.29" transform="translate(-418.08 290.05) rotate(-33.79)"/>
          <rect class="cls-14" x="244.65" y="803.44" width="22.29" height="22.29" transform="translate(-409.87 279.92) rotate(-33.79)"/>
          <rect class="cls-14" x="207.75" y="828.17" width="22.29" height="22.29" transform="translate(-429.86 263.57) rotate(-33.79)"/>
          <rect class="cls-43" x="226.44" y="815.92" width="22.29" height="22.29" transform="translate(-419.89 271.9) rotate(-33.79)"/>
          <rect class="cls-14" x="213.86" y="797.34" width="22.29" height="22.29" transform="translate(-411.68 261.76) rotate(-33.79)"/>
          <rect class="cls-43" x="195.64" y="809.82" width="22.29" height="22.29" transform="translate(-421.7 253.74) rotate(-33.79)"/>
          <rect class="cls-14" x="176.85" y="822.31" width="22.29" height="22.29" transform="translate(-431.82 245.4) rotate(-33.79)"/>
          <rect class="cls-14" x="182.96" y="791.48" width="22.29" height="22.29" transform="translate(-413.64 243.58) rotate(-33.79)"/>
          <polyline class="cls-43" points="174.27 802.77 178.95 799.64 191.35 818.17 172.83 830.57"/>
        </g>
        <path class="cls-26" d="M453.46,510.66s15.51-4.28,33.66,1.47c0,0,15.92-2.68,30.06,.91,0,0-2.36,25.49-26.48,30.41-24.13,4.92-38.14-17.9-37.23-32.8Z"/>
        <path class="cls-17" d="M457.25,512.59s-.91,22.59,28.47,23.48c26.68,.81,27.5-19.3,27.5-19.3,0,0-30.1,.44-55.97-4.19Z"/>
        <path class="cls-11" d="M460.88,513.02s6.96,10.69,29.73,10.28c0,0,14,1.13,20.1-6.15,0,0-29.32-.25-49.84-4.13Z"/>
        <path class="cls-40" d="M442.01,519.54s-1.47-19.19,14.58-23.5c19.71-5.3,40.85-6.34,55.74,1.82,14.89,8.16,22.85,16.91,10.8,17.14-12.05,.23-35.87-15.12-61.69-2.79,0,0-10.19,10.18-19.44,7.33Z"/>
        <path class="cls-28" d="M182.97,857.94s-11.11,34.53-8.25,78.54c2.86,44.01,5.14,46.87,5.14,46.87l44.58,197.2s6.86,29.15,1.14,49.16c-5.72,20.01,1.71,41.15,1.71,41.15,0,0,16,49.73,68.02,69.73,0,0,10.29-9.15-8.57-26.86,0,0-21.72-20.01-13.72-48.58,0,0,8.57-10.29,10.29,6.86,1.71,17.15,1.14,42.87,17.72,41.15,16.58-1.71,4-39.44,4-39.44l-2.29-37.72s-1.14-31.44-22.29-38.87l-13.15-229.21,12.78-83.28s-58.51-1.31-97.13-26.69Z"/>
        <path class="cls-6" d="M289.33,884.56s24.56-117.42,19.22-176.16-46.73-60.08-46.73-60.08"/>
        <polygon class="cls-34" points="222 1199.86 219.75 1189.21 287.27 1177.5 288.6 1192.35 222 1199.86"/>
        <circle class="cls-34" cx="260.36" cy="1187.53" r="18.3"/>
        <circle class="cls-11" cx="260.25" cy="1187.91" r="15.54"/>
      </g>
      <g>
        <path class="cls-16" d="M1037.66,1825.75l6.24,38.55s-49.5,45.51-109.97-3.55l23.88-38.37"/>
        <path class="cls-39" d="M1041.26,1881.01s0,5.54-2.21,21.04l-162.75,17.71s-48.71-1.11-50.93-28.79"/>
        <path class="cls-27" d="M1036.83,1830.08s13.29,23.25,4.43,50.93l-155,23.25s-43.18,7.75-60.89-13.29c-17.71-21.04,108.5-64.21,108.5-64.21,0,0,49.82,46.5,102.97,3.32Z"/>
        <polyline class="cls-4" points="948.93 1826.63 933.61 1859.35 910.06 1839 892.97 1875.34"/>
        <path class="cls-35" d="M1153.02,1160.8s36.38,94.06-1.91,206c0,0-26.18,120.22-18.81,173.25,0,0,41.7,107.71-.62,300.26,0,0-73.21,41.75-124.76,4.92l-9.85-13.95s-39.2,8.31-80.44-12.31l-55.36-243.01s-19.69-50.96-17.56-113.21l-10.73-303.26s107.94,55.81,320.04,1.31Z"/>
        <polyline class="cls-4" points="886.61 1846.88 919.4 1862.04 924.32 1831.31 960.79 1848.11"/>
        <path class="cls-28" d="M1040.74,577.11s-10.05,31.85,6.19,62.98c0,0,4.06,113.67-82.55,122.47,0,0-60.42-44.27-34.95-117.2l111.31-68.24Z"/>
        <path class="cls-28" d="M897,447.6s-19.26,19.82-11.9,69.53c0,0,5.15,12.43,3.48,26.87,0,0-5.3,25.52,2.42,46.8,10.49,28.9,26.13,40.5,26.13,40.5,0,0,11.98,10.98,27.35,7.43,0,0,23.88,7,43.97-7.1,20.08-14.11,53.85-56.99,53.85-56.99,0,0,19.17,4.33,24.05-15.43,4.88-19.77,12.84-35.07,.28-46.02-12.56-10.95-26.09,21.27-26.09,21.27,0,0-8.46-9.4-6.8-23.85,0,0,4.81-29.05-13.65-62.08,0,0-54.26-20.78-123.1-.92Z"/>
        <path class="cls-34" d="M952.71,504.37s27.67-6.55,48.63,9.82c0,0-7.65-25.59-47.74-20.44,0,0-7.36,5.72-.89,10.61Z"/>
        <path class="cls-34" d="M884.66,513.74c15.95-9.92,26.93-6.18,26.93-6.18,5.18-5.92-2.95-9.78-2.95-9.78-12.19,1.06-20.79,4.27-26.86,8.19,0,0,2.02,8.31,2.89,7.76Z"/>
        <path class="cls-48" d="M946.09,640.18s28.94,3.12,40.59-7.52c0,0,13.76-7.75,29.41-26.91,0,0-18.59,33.87-45,38.12,0,0-12.39,2.73-24.99-3.69,0,0,.62,2.84,0,0Z"/>
        <path class="cls-41" d="M1153.02,1160.8s-231.24,87.33-320.04-1.31l-.25-48.31s10.3-146.94,8-164.17c0,0-63.48,56.66-57.62-27.78,5.37-77.36,27.87-124.78,37.98-160.7,0,0,26.12-59.52,47.05-72.32,30.29-18.51,14.38-26.27,47.98-28.85,0,0,14.64,2.88,48.31,22.41,1.12,.65-2.27,.79-1.42,11.66,1.19,15.41,6.65,42.93,9.03,42.5,2.17-.39,9.87-21.37,12.75-35.69,2.5-12.43,.22-18.58,1.65-17.49,0,0,4.98,2.7,60.49-40.67,0,0,61.75,33.61,100.74,75.25,0,0,44.3,88.36,23.68,186.93-26.78,128.04-18.32,258.53-18.32,258.53Z"/>
        <path class="cls-3" d="M997.06,1831.27l-16.29-243.21s-14.79-29.59-10.35-66.11c6.1-50.17-2.15-119.78,5.15-153.37,0,0-31.26-25.4-31.26-48.02"/>
        <path class="cls-16" d="M1120.59,1846.83l.91,5.1s-49.5,45.51-109.97-3.55l2.83-1.12s35.7,22.44,106.23-.43Z"/>
        <path class="cls-39" d="M1126.23,1906.32s0,5.91-2.37,22.47l-173.83,18.92s-52.03-1.18-54.4-30.75"/>
        <path class="cls-31" d="M1121.5,1851.93s14.19,24.83,4.73,54.4l-165.55,24.83s-46.12,8.28-65.04-14.19c-18.92-22.47,115.89-68.59,115.89-68.59,0,0,53.21,49.67,109.97,3.55Z"/>
        <polyline class="cls-4" points="961.06 1869.87 996.08 1886.06 1001.33 1853.24 1040.29 1871.18"/>
        <polyline class="cls-4" points="1027.62 1848.25 1011.26 1883.19 986.1 1861.45 967.85 1900.27"/>
        <path class="cls-7" d="M1067.25,541.62s-9.17-21.44-24.37,14.36c0,0,13.54-16.1,16.64-2.95"/>
        <path class="cls-7" d="M914.71,550.01s-12.18,19.94,10.63,21.23"/>
        <g>
          <path class="cls-11" d="M983.19,522.38s0-.69-.52-1.27c-1.71-1.9-5.66-5.44-11.82-5.4-6.9,.05-10.66,6.56-11.94,8.88-.22,.4-.2,.75-.2,.75,0,0-.02,.38,.21,.65,1.11,1.27,4.81,4.82,11.34,4.87,3.89,.03,9.34-2.09,12.69-7.4,.23-.37,.25-.84,.24-1.09Z"/>
          <circle class="cls-48" cx="968.96" cy="523.69" r="7.14"/>
          <circle class="cls-11" cx="973.3" cy="526.76" r="1.96"/>
          <path class="cls-3" d="M958.49,524.6s8.29-16.53,24.46-3.55"/>
        </g>
        <g>
          <path class="cls-11" d="M912.59,528.33s.1-.64-.3-1.25c-1.32-2.01-4.48-5.87-10.22-6.72-6.43-.95-10.85,4.57-12.38,6.55-.26,.34-.29,.67-.29,.67,0,0-.07,.35,.1,.64,.85,1.34,3.78,5.17,9.85,6.15,3.61,.59,8.99-.61,12.86-5.06,.27-.31,.35-.74,.37-.98Z"/>
          <circle class="cls-48" cx="899.17" cy="527.5" r="6.69"/>
          <circle class="cls-11" cx="903.22" cy="530.38" r="1.87"/>
          <path class="cls-3" d="M889.56,527.11s9.72-15.18,22.9,.26"/>
        </g>
        <g>
          <path class="cls-26" d="M912.03,596.71s9.47-13.99,24.13-10.97c0,0,10.15-8.27,32.87,9.4,0,0-7.33,13.23-29.85,13.68-22.53,.45-27.16-12.11-27.16-12.11Z"/>
          <path class="cls-17" d="M914.16,597.03s20.53-14.95,51.97-1.25c0,0-16.75,2.43-24.06,5.37-7.31,2.94-12.79-1.02-12.79-1.02,0,0-7.6-3.35-15.12-3.09Z"/>
          <path class="cls-11" d="M923.89,592.59s12.61-4.93,27.16-1.15l-27.16,1.15Z"/>
        </g>
        <path class="cls-41" d="M842.35,909.5c40.44-8.09,86.48,6.07,86.48,6.07l-70.58,106.94s-94.09,17.76-108.92-36.17,31.01-160.43,31.01-160.43c0,0,21.68-54.4,28.57-69.04,16.22-34.46,38.06-69.22,59.63-78.66"/>
        <path class="cls-29" d="M931.37,667.17s-4.12-11.43-9.62-13.48"/>
        <path class="cls-28" d="M1018.34,999.17s32.33,5.19,41.11,.8,32.33,6.39,32.33,6.39c0,0,15.57-1.2,8.38-8.38-7.18-7.18-33.13-9.18-33.13-9.18,0,0,34.33-.4,46.7,1.6,0,0,10.38-4.39,4.39-11.18,0,0,12.77-5.99,.8-12.37l-30.33-12.77,31.53,3.59s7.58-4.79,0-9.18c-7.58-4.39-16.36-7.98-16.36-7.98l-83.02,26.34-2.39,32.33Z"/>
        <path class="cls-3" d="M935.92,918.97s-50.41-18.34-101.18-11.69"/>
        <path class="cls-42" d="M879.56,813.68s-3.54,58.48-15.95,91.27"/>
        <path class="cls-29" d="M1118.12,979.22s-23.68-7.82-33.87-8.26"/>
        <path class="cls-34" d="M1019.4,457.59s-27.62-17.71-42.88,3.43c-19.89,27.55-34.88,1.14-51.24,16.45,0,0-16.95-33.78-36.48-9.76,0,0-12.72-38.56,30.88-66.34,0,0,48.93-30.5,98.81,2.03,0,0,48.04,7.88,47.22,53.08,0,0-26.62-24.12-46.3,1.11Z"/>
        <path class="cls-8" d="M1057.29,431.14s28.55,18.53,13.02,94.96c0,0-16.93-21.76-32.64,16.79l-6.59-15.18s11.91-49.85-18.85-79.78l45.06-16.79Z"/>
        <path class="cls-3" d="M837.74,1023.95s120.84-2.27,153.31-25.68l27.28,.9,1.34-5.96"/>
        <path class="cls-45" d="M1053.88,645.49s-57.64,35.07-69.02,54.99l1.58-19.73s42.74-27.53,57.96-47.81l9.49,12.55Z"/>
        <path class="cls-45" d="M939.61,644.51s-21.6-.71-20.79,13.28l44.18,33.64,1.42-11.66s-20.83-10.42-34.5-27.27c0,0,9.17-1.24,9.68-7.99Z"/>
        <ellipse class="cls-14" cx="979.65" cy="761.74" rx="3.45" ry="3.73"/>
        <ellipse class="cls-14" cx="970.92" cy="824.37" rx="3.45" ry="3.73"/>
        <ellipse class="cls-14" cx="966.6" cy="892.18" rx="3.45" ry="3.73"/>
        <ellipse class="cls-14" cx="965.4" cy="954.04" rx="3.45" ry="3.73"/>
        <g>
          <rect class="cls-11" x="1012.26" y="1060.39" width="16.68" height="16.68" transform="translate(-454.59 981.47) rotate(-42.93)"/>
          <rect class="cls-45" x="1000.13" y="1071.89" width="16.68" height="16.68" transform="translate(-465.68 976.29) rotate(-42.93)"/>
          <rect class="cls-11" x="988.77" y="1059.54" width="16.68" height="16.68" transform="translate(-460.31 965.24) rotate(-42.93)"/>
          <rect class="cls-11" x="1013.04" y="1036.77" width="16.68" height="16.68" transform="translate(-438.3 975.67) rotate(-42.93)"/>
          <rect class="cls-45" x="1000.91" y="1048.28" width="16.68" height="16.68" transform="translate(-449.38 970.49) rotate(-42.93)"/>
          <rect class="cls-11" x="989.55" y="1035.93" width="16.68" height="16.68" transform="translate(-444.01 959.44) rotate(-42.93)"/>
          <rect class="cls-11" x="1013.89" y="1013.31" width="16.68" height="16.68" transform="translate(-422.08 969.96) rotate(-42.93)"/>
          <rect class="cls-45" x="1001.76" y="1024.81" width="16.68" height="16.68" transform="translate(-433.17 964.78) rotate(-42.93)"/>
          <rect class="cls-11" x="990.39" y="1012.46" width="16.68" height="16.68" transform="translate(-427.8 953.73) rotate(-42.93)"/>
          <rect class="cls-11" x="1009.85" y="1131.2" width="16.68" height="16.68" transform="translate(-503.47 998.8) rotate(-42.93)"/>
          <rect class="cls-45" x="997.72" y="1142.71" width="16.68" height="16.68" transform="translate(-514.56 993.62) rotate(-42.93)"/>
          <rect class="cls-11" x="986.36" y="1130.36" width="16.68" height="16.68" transform="translate(-509.19 982.57) rotate(-42.93)"/>
          <rect class="cls-11" x="1010.63" y="1107.59" width="16.68" height="16.68" transform="translate(-487.18 993) rotate(-42.93)"/>
          <rect class="cls-45" x="998.5" y="1119.09" width="16.68" height="16.68" transform="translate(-498.27 987.82) rotate(-42.93)"/>
          <rect class="cls-11" x="987.14" y="1106.74" width="16.68" height="16.68" transform="translate(-492.9 976.77) rotate(-42.93)"/>
          <rect class="cls-11" x="1011.48" y="1084.12" width="16.68" height="16.68" transform="translate(-470.97 987.29) rotate(-42.93)"/>
          <rect class="cls-45" x="999.35" y="1095.63" width="16.68" height="16.68" transform="translate(-482.05 982.11) rotate(-42.93)"/>
          <rect class="cls-11" x="987.98" y="1083.27" width="16.68" height="16.68" transform="translate(-476.68 971.06) rotate(-42.93)"/>
          <rect class="cls-11" x="1014.73" y="989.83" width="16.68" height="16.68" transform="translate(-405.87 964.25) rotate(-42.93)"/>
          <rect class="cls-45" x="1002.6" y="1001.33" width="16.68" height="16.68" transform="translate(-416.95 959.07) rotate(-42.93)"/>
          <rect class="cls-11" x="991.24" y="988.98" width="16.68" height="16.68" transform="translate(-411.58 948.02) rotate(-42.93)"/>
          <rect class="cls-11" x="1015.58" y="966.36" width="16.68" height="16.68" transform="translate(-389.65 958.54) rotate(-42.93)"/>
          <rect class="cls-45" x="1003.45" y="977.86" width="16.68" height="16.68" transform="translate(-400.74 953.36) rotate(-42.93)"/>
          <rect class="cls-11" x="992.09" y="965.51" width="16.68" height="16.68" transform="translate(-395.37 942.31) rotate(-42.93)"/>
          <rect class="cls-11" x="1016.42" y="942.97" width="16.68" height="16.68" transform="translate(-373.49 952.85) rotate(-42.93)"/>
          <rect class="cls-45" x="1004.29" y="954.47" width="16.68" height="16.68" transform="translate(-384.58 947.67) rotate(-42.93)"/>
          <rect class="cls-11" x="992.93" y="942.12" width="16.68" height="16.68" transform="translate(-379.21 936.62) rotate(-42.93)"/>
          <rect class="cls-11" x="1017.27" y="919.49" width="16.68" height="16.68" transform="translate(-357.28 947.14) rotate(-42.93)"/>
          <rect class="cls-45" x="1005.14" y="931" width="16.68" height="16.68" transform="translate(-368.36 941.96) rotate(-42.93)"/>
          <rect class="cls-11" x="993.78" y="918.65" width="16.68" height="16.68" transform="translate(-362.99 930.91) rotate(-42.93)"/>
          <rect class="cls-11" x="1018.11" y="896.1" width="16.68" height="16.68" transform="translate(-341.12 941.45) rotate(-42.93)"/>
          <rect class="cls-45" x="1005.98" y="907.61" width="16.68" height="16.68" transform="translate(-352.2 936.27) rotate(-42.93)"/>
          <rect class="cls-11" x="994.62" y="895.26" width="16.68" height="16.68" transform="translate(-346.83 925.22) rotate(-42.93)"/>
          <rect class="cls-11" x="1018.96" y="872.63" width="16.68" height="16.68" transform="translate(-324.9 935.74) rotate(-42.93)"/>
          <rect class="cls-45" x="1006.83" y="884.13" width="16.68" height="16.68" transform="translate(-335.99 930.56) rotate(-42.93)"/>
          <rect class="cls-11" x="995.47" y="871.78" width="16.68" height="16.68" transform="translate(-330.62 919.51) rotate(-42.93)"/>
          <rect class="cls-11" x="1019.8" y="849.24" width="16.68" height="16.68" transform="translate(-308.74 930.05) rotate(-42.93)"/>
          <rect class="cls-45" x="1007.67" y="860.74" width="16.68" height="16.68" transform="translate(-319.83 924.87) rotate(-42.93)"/>
          <rect class="cls-11" x="996.31" y="848.39" width="16.68" height="16.68" transform="translate(-314.46 913.82) rotate(-42.93)"/>
          <rect class="cls-11" x="1020.74" y="825.35" width="16.68" height="16.68" transform="translate(-292.22 924.29) rotate(-42.93)"/>
          <rect class="cls-45" x="1008.61" y="836.86" width="16.68" height="16.68" transform="translate(-303.31 919.1) rotate(-42.93)"/>
          <rect class="cls-11" x="997.25" y="824.51" width="16.68" height="16.68" transform="translate(-297.94 908.06) rotate(-42.93)"/>
          <rect class="cls-11" x="1021.52" y="801.74" width="16.68" height="16.68" transform="translate(-275.93 918.49) rotate(-42.93)"/>
          <rect class="cls-45" x="1009.39" y="813.24" width="16.68" height="16.68" transform="translate(-287.02 913.31) rotate(-42.93)"/>
          <rect class="cls-11" x="998.02" y="800.89" width="16.68" height="16.68" transform="translate(-281.65 902.26) rotate(-42.93)"/>
          <rect class="cls-11" x="1022.36" y="778.27" width="16.68" height="16.68" transform="translate(-259.72 912.78) rotate(-42.93)"/>
          <rect class="cls-45" x="1010.23" y="789.77" width="16.68" height="16.68" transform="translate(-270.8 907.6) rotate(-42.93)"/>
          <rect class="cls-11" x="998.87" y="777.42" width="16.68" height="16.68" transform="translate(-265.43 896.55) rotate(-42.93)"/>
          <rect class="cls-11" x="1023.21" y="754.8" width="16.68" height="16.68" transform="translate(-243.5 907.07) rotate(-42.93)"/>
          <rect class="cls-45" x="1011.08" y="766.3" width="16.68" height="16.68" transform="translate(-254.59 901.89) rotate(-42.93)"/>
          <rect class="cls-11" x="999.72" y="753.95" width="16.68" height="16.68" transform="translate(-249.22 890.84) rotate(-42.93)"/>
          <rect class="cls-11" x="1024.06" y="731.32" width="16.68" height="16.68" transform="translate(-227.29 901.36) rotate(-42.93)"/>
          <rect class="cls-45" x="1011.93" y="742.83" width="16.68" height="16.68" transform="translate(-238.37 896.18) rotate(-42.93)"/>
          <rect class="cls-11" x="1000.56" y="730.48" width="16.68" height="16.68" transform="translate(-233 885.13) rotate(-42.93)"/>
          <rect class="cls-11" x="1024.9" y="707.93" width="16.68" height="16.68" transform="translate(-211.13 895.67) rotate(-42.93)"/>
          <rect class="cls-45" x="1012.77" y="719.44" width="16.68" height="16.68" transform="translate(-222.21 890.49) rotate(-42.93)"/>
          <rect class="cls-11" x="1001.41" y="707.09" width="16.68" height="16.68" transform="translate(-216.84 879.44) rotate(-42.93)"/>
          <rect class="cls-11" x="1025.75" y="684.46" width="16.68" height="16.68" transform="translate(-194.91 889.96) rotate(-42.93)"/>
          <rect class="cls-45" x="1013.62" y="695.96" width="16.68" height="16.68" transform="translate(-206 884.78) rotate(-42.93)"/>
          <rect class="cls-11" x="1002.25" y="683.61" width="16.68" height="16.68" transform="translate(-200.63 873.73) rotate(-42.93)"/>
          <rect class="cls-11" x="1026.54" y="661.07" width="16.68" height="16.68" transform="translate(-178.76 884.23) rotate(-42.93)"/>
          <rect class="cls-45" x="1014.41" y="672.57" width="16.68" height="16.68" transform="translate(-189.85 879.05) rotate(-42.93)"/>
          <polyline class="cls-45" points="1021.08 666.71 1023.1 668.97 1035.31 657.61 1034.72 656.97"/>
          <polygon class="cls-11" points="1010.96 680.35 1023.18 668.98 1021.08 666.71 1008.28 677.27 1010.96 680.35"/>
        </g>
        <line class="cls-5" x1="953.83" y1="1012.45" x2="954.78" y2="1183.84"/>
        <path class="cls-29" d="M895.97,750.55l-4.16-16.63-26.61-39.08s-4.16-15.8,3.33-16.63c0,0-4.16-15.38,5.82-17.88,0,0,.83-12.06,19.54-10.81l3.74-21.2s1.66-7.9,17.04-7.48l10.39,6.24s-1.66,8.31-8.73,7.07l-1.25,11.22,6.65,8.31s2.08-12.89,2.08-15.8,2.91-16.63,17.88-21.2c14.97-4.57,1.25,27.85,1.25,27.85,0,0,.83,22.45,3.74,29.52,2.91,7.07-13.3,44.48-13.3,44.48l7.48,16.63-44.9,15.38Z"/>
        <path class="cls-42" d="M1098.04,702.25c-54.42,18.14-73.83,169.99-73.83,169.99,0,0-43.93-80.7-63.63-108.89l-9.83-41.97s-41.46-.98-60.63,25.14l9.36,34.6s23.91,96.69,31.17,124.26c0,0,38.25,95.82,89.04,87.84,50.79-7.98,82.72-15.96,126.98-100.86"/>
        <g>
          <polyline class="cls-11" points="908.52 812.73 919.33 817.99 924.45 807.48 913.16 801.98 908.24 812.06"/>
          <polygon class="cls-45" points="905.63 804.25 908.24 812.06 913.08 802.07 903.56 797.42 905.63 804.25"/>
          <polyline class="cls-11" points="903.59 797.37 913.18 802.04 918.29 791.53 907.01 786.03 902.83 794.62"/>
          <rect class="cls-11" x="926.81" y="798.64" width="11.69" height="12.56" transform="translate(-199.31 1291.1) rotate(-64.04)"/>
          <rect class="cls-45" x="915.45" y="793.23" width="11.69" height="12.56" transform="translate(-200.84 1277.85) rotate(-64.04)"/>
          <rect class="cls-11" x="920.66" y="782.69" width="11.69" height="12.56" transform="translate(-188.43 1276.6) rotate(-64.04)"/>
          <rect class="cls-11" x="943.14" y="793.65" width="11.69" height="12.56" transform="translate(-185.64 1302.98) rotate(-64.04)"/>
          <rect class="cls-45" x="931.78" y="788.24" width="11.69" height="12.56" transform="translate(-187.17 1289.73) rotate(-64.04)"/>
          <rect class="cls-11" x="936.99" y="777.69" width="11.69" height="12.56" transform="translate(-174.76 1288.48) rotate(-64.04)"/>
          <rect class="cls-45" x="948.12" y="783.25" width="11.69" height="12.56" transform="translate(-173.5 1301.61) rotate(-64.04)"/>
          <polygon class="cls-11" points="956.92 797.58 961.93 799.36 968.05 790.02 962.04 787.07 956.92 797.58"/>
          <rect class="cls-11" x="953.13" y="772.85" width="11.69" height="12.56" transform="translate(-161.33 1300.27) rotate(-64.04)"/>
          <path class="cls-45" d="M968.05,790.02l-6.16-2.84,5.12-10.51,4.23,2.46s-1.57,8.28-3.19,10.89Z"/>
        </g>
      </g>
    </g>
  </g>
</svg>