<?xml version="1.0" encoding="UTF-8"?>
<svg xmlns="http://www.w3.org/2000/svg" xmlns:xlink="http://www.w3.org/1999/xlink" viewBox="0 0 1343.1 1879.12">
  <defs>
    <style>
      .cls-1, .cls-2, .cls-3, .cls-4, .cls-5, .cls-6, .cls-7, .cls-8 {
        fill: none;
      }

      .cls-2 {
        stroke-width: 1.5px;
      }

      .cls-2, .cls-9, .cls-3, .cls-4, .cls-5, .cls-6, .cls-7, .cls-8 {
        stroke-miterlimit: 10;
      }

      .cls-2, .cls-4, .cls-8 {
        stroke: #231f20;
      }

      .cls-10 {
        fill: url(#linear-gradient);
      }

      .cls-11 {
        clip-path: url(#clippath);
      }

      .cls-12 {
        fill: #006838;
      }

      .cls-13, .cls-14 {
        fill: #fff;
      }

      .cls-15 {
        fill: #f5bc49;
      }

      .cls-16 {
        fill: #efcccd;
      }

      .cls-17 {
        fill: #ffcc41;
      }

      .cls-18 {
        fill: #803435;
      }

      .cls-19 {
        fill: #8c3333;
      }

      .cls-20 {
        fill: #8abc5d;
      }

      .cls-21 {
        fill: #9ecb54;
      }

      .cls-22 {
        fill: #b6302e;
      }

      .cls-23, .cls-9 {
        fill: #8b5e3c;
      }

      .cls-24 {
        fill: #8daf94;
      }

      .cls-25 {
        fill: #8dd5e7;
      }

      .cls-26 {
        fill: #ae8578;
      }

      .cls-27 {
        fill: #be9e7d;
      }

      .cls-28 {
        fill: #d2d292;
      }

      .cls-29 {
        fill: #dc3b28;
      }

      .cls-30 {
        fill: #134a7e;
      }

      .cls-31 {
        fill: #231f20;
      }

      .cls-32 {
        fill: #092f44;
      }

      .cls-33 {
        fill: #414d21;
      }

      .cls-34 {
        fill: #6ca442;
      }

      .cls-35 {
        fill: #288348;
      }

      .cls-36 {
        fill: #3c2415;
      }

      .cls-37 {
        fill: #59bede;
      }

      .cls-38 {
        fill: #58595b;
      }

      .cls-39 {
        fill: #3aa362;
      }

      .cls-40 {
        fill: #2e3192;
      }

      .cls-41 {
        fill: #5e8f59;
      }

      .cls-42 {
        fill: #50804a;
      }

      .cls-43 {
        fill: #26130f;
      }

      .cls-44 {
        fill: #517843;
      }

      .cls-45 {
        clip-path: url(#clippath-1);
      }

      .cls-9 {
        stroke: #8b5e3c;
      }

      .cls-3 {
        stroke: #0c3149;
      }

      .cls-5 {
        stroke: #2e3192;
      }

      .cls-6 {
        stroke: #754c29;
      }

      .cls-7 {
        stroke: #be1e2d;
      }

      .cls-8 {
        stroke-width: 1.2px;
      }

      .cls-14 {
        opacity: .8;
      }
    </style>
    <clipPath id="clippath">
      <rect class="cls-1" y="216.28" width="680.04" height="603.25"/>
    </clipPath>
    <clipPath id="clippath-1">
      <rect class="cls-1" x="33.76" y="252.17" width="1282.34" height="964.12"/>
    </clipPath>
    <linearGradient id="linear-gradient" x1="3173.54" y1="538.3" x2="3173.54" y2="427.04" gradientTransform="translate(4219.65) rotate(-180) scale(1 -1)" gradientUnits="userSpaceOnUse">
      <stop offset="0" stop-color="#be9e7d"/>
      <stop offset=".7" stop-color="#231f20"/>
    </linearGradient>
  </defs>
  <g id="fondo">
    <rect class="cls-25" x="7.05" y="216.33" width="1333.99" height="505.77"/>
    <path class="cls-20" d="M8.04,551.8s301.24-142.62,339.9-149.29c38.65-6.66,211.94,18.66,409.21,151.95l582.49,58.65,.84,97.69L6.78,722.74l1.26-170.93Z"/>
    <rect class="cls-35" x="6.89" y="721.13" width="1332.55" height="494.34"/>
    <path class="cls-13" d="M231.32,291.45l-92.77-1.84s-21.27-6.75-20.21-19.29c1.84-21.62,19.29-20.21,19.29-20.21,0,0,.92-24.8,28.47-24.8,0,0,21.12-1.84,21.12,24.8,0,0,11.02-17.45,29.39-6.43,0,0,12.86,13.78,1.84,21.12,0,0,23.88-16.53,30.31,4.59,0,0,5.51,22.96-17.45,22.04"/>
    <path class="cls-13" d="M1308.07,308.85l-92.77-1.84s-21.27-6.75-20.21-19.29c1.84-21.62,19.29-20.21,19.29-20.21,0,0,.92-24.8,28.47-24.8,0,0,21.12-1.84,21.12,24.8,0,0,11.02-17.45,29.39-6.43,0,0,12.86,13.78,1.84,21.12,0,0,23.88-16.53,30.31,4.59,0,0,5.51,22.96-17.45,22.04"/>
    <path class="cls-14" d="M536.93,374.03l-67.43-1.34s-15.46-4.91-14.69-14.02c1.34-15.71,14.02-14.69,14.02-14.69,0,0,.67-18.03,20.7-18.03,0,0,15.36-1.34,15.36,18.03,0,0,8.01-12.69,21.36-4.67,0,0,9.35,10.01,1.34,15.36,0,0,17.36-12.02,22.03,3.34,0,0,4.01,16.69-12.69,16.02"/>
    <path class="cls-14" d="M1047.9,275.49l-57.68-1.14s-13.23-4.2-12.56-11.99c1.14-13.44,11.99-12.56,11.99-12.56,0,0,.57-15.42,17.7-15.42,0,0,13.13-1.14,13.13,15.42,0,0,6.85-10.85,18.27-4,0,0,7.99,8.57,1.14,13.13,0,0,14.85-10.28,18.84,2.86,0,0,3.43,14.28-10.85,13.71"/>
    <g>
      <polygon class="cls-24" points="1222.69 660.52 1221.02 723.31 1231.06 723.31 1231.06 661.36 1222.69 660.52"/>
      <polygon class="cls-24" points="1155.71 660.52 1154.87 723.31 1159.9 723.31 1159.9 661.36 1155.71 660.52"/>
      <polygon class="cls-24" points="1036.82 660.52 1035.99 723.31 1041.01 723.31 1041.01 661.36 1036.82 660.52"/>
      <polygon class="cls-24" points="964.82 660.52 963.98 723.31 969.01 723.31 969.01 661.36 964.82 660.52"/>
      <polygon class="cls-24" points="537.12 660.52 536.29 723.31 541.31 723.31 541.31 661.36 537.12 660.52"/>
      <polygon class="cls-24" points="755.51 660.52 754.67 723.31 759.7 723.31 759.7 661.36 755.51 660.52"/>
      <polygon class="cls-24" points="461.14 662.2 459.68 724.99 468.47 724.99 468.47 663.03 461.14 662.2"/>
      <polygon class="cls-24" points="702.97 662.2 701.51 724.99 710.3 724.99 710.3 663.03 702.97 662.2"/>
      <polygon class="cls-24" points="147.33 662.2 145.86 724.99 154.65 724.99 154.65 663.03 147.33 662.2"/>
      <polygon class="cls-24" points="99.25 662.2 97.79 724.99 106.58 724.99 106.58 663.03 99.25 662.2"/>
      <polygon class="cls-24" points="32.86 662.2 32.08 724.99 36.75 724.99 36.75 663.03 32.86 662.2"/>
      <ellipse class="cls-24" cx="1232.74" cy="632.47" rx="67.82" ry="59.03"/>
      <ellipse class="cls-24" cx="966.62" cy="628.16" rx="61.2" ry="59.03"/>
      <ellipse class="cls-24" cx="539.79" cy="638.95" rx="61.2" ry="59.03"/>
      <ellipse class="cls-24" cx="115.93" cy="653.84" rx="61.2" ry="59.03"/>
      <ellipse class="cls-24" cx="54.22" cy="640" rx="45.19" ry="59.03"/>
      <ellipse class="cls-24" cx="465.64" cy="634.63" rx="35.32" ry="59.03"/>
      <ellipse class="cls-24" cx="1065.81" cy="631.03" rx="79.36" ry="59.03"/>
      <path class="cls-24" d="M1341.26,708.77c-36.19,0-65.52-26.43-65.52-59.03s29.33-59.03,65.52-59.03"/>
      <ellipse class="cls-24" cx="1155.86" cy="623.84" rx="32.43" ry="59.03"/>
    </g>
    <g>
      <path class="cls-23" d="M964.97,973.37s13.27-151.81,6.64-227.3l-68.25-100.74,14.01-6.64,62.77,86.87,3.79-82.88h14.22l-3.79,134.58,2.84,197.76s-15.17,7.39-32.23-1.64Z"/>
      <path class="cls-34" d="M744.61,630.23s-110.37,38.54-35.04,101.61c0,0,87.6,12.26,131.4-47.3,0,0,36.79,36.79,84.09,8.76,0,0,29.78,36.79,77.09,10.51,0,0,64.82,49.05,115.63,10.51,0,0,47.3,29.78,73.58,1.75,0,0,89.35,35.04,87.6-22.78s-43.8-66.57-43.8-66.57c0,0,71.83-26.28,19.27-94.61-52.56-68.33-126.14-29.78-126.14-29.78l-383.68,127.89Z"/>
      <path class="cls-21" d="M770.24,486.33s-52.21,39.55-47.46,91.77c4.75,52.21,33.23,94.93,120.24,61.7,0,0,63.29,71.2,199.35,18.99,0,0,106,45.88,136.07-25.31,30.06-71.2-25.31-60.12-25.31-60.12,0,0,72.78-181.95-87.02-153.47,0,0-20.57-34.81-90.18-15.82,0,0-9.49-12.66-34.81-3.16,0,0-30.06-74.36-85.44,6.33,0,0-90.18-15.82-85.44,79.11Z"/>
      <path class="cls-39" d="M754.22,524.75s-32.6,26.21-10.63,45.56c21.97,19.35,32.31,11.06,32.31,11.06,0,0,1.05,42.66,45.72,49.7,0,0,25.15,1.39,33.96-28.46,0,0,10.49,34.6,40.81,33.75,30.31-.84,23.17-21.96,23.17-21.96,0,0,26.93,8.58,38.44-25.75,0,0,27.88-18.36,3.22-44.68,0,0-1.93-53.89-47.75-42.52,0,0-2.9-11.68-18.63-2.05,0,0-14.32-30.79-42.65-6.59,0,0-23.5-40.91-53.43-7.73,0,0-44.43-13.78-44.53,39.66Z"/>
    </g>
    <g class="cls-11">
      <g>
        <rect class="cls-34" x="153.79" y="158.66" width="402.26" height="255.18"/>
        <path class="cls-35" d="M251.35,66.57s-26.25,32.57-.66,46.78c25.6,14.21,33.93,3.9,33.93,3.9,0,0,10.14,41.46,55.28,38.79,0,0,24.86-4.01,27.09-35.05,0,0,17.64,31.56,47.07,24.26,29.43-7.3,17.94-26.41,17.94-26.41,0,0,28.14,2.63,32.05-33.37,0,0,23.31-23.89-6.4-44.33,0,0-13.39-52.24-55.73-31.34,0,0-5.33-10.79-18.64,1.97,0,0-20.56-27.02-43.07,2.68,0,0-31.7-34.94-53.84,3.86,0,0-46.35-3.97-35.03,48.26Z"/>
        <path class="cls-35" d="M455.29,241s-26.25,32.57-.66,46.78c25.6,14.21,33.93,3.9,33.93,3.9,0,0,10.14,41.46,55.28,38.79,0,0,24.86-4.01,27.09-35.05,0,0,17.64,31.56,47.07,24.26,29.43-7.3,17.94-26.41,17.94-26.41,0,0,28.14,2.63,32.05-33.37,0,0,23.31-23.89-6.4-44.33,0,0-13.39-52.24-55.73-31.34,0,0-5.33-10.79-18.64,1.97,0,0-20.56-27.02-43.07,2.68,0,0-31.7-34.94-53.84,3.86,0,0-46.35-3.97-35.03,48.26Z"/>
        <path class="cls-35" d="M87.98,141.23s-26.25,32.57-.66,46.78c25.6,14.21,33.93,3.9,33.93,3.9,0,0,10.14,41.46,55.28,38.79,0,0,24.86-4.01,27.09-35.05,0,0,17.64,31.56,47.07,24.26,29.43-7.3,17.94-26.41,17.94-26.41,0,0,28.14,2.63,32.05-33.37,0,0,23.31-23.89-6.4-44.33,0,0-13.39-52.24-55.73-31.34,0,0-5.33-10.79-18.64,1.97,0,0-20.56-27.02-43.07,2.68,0,0-31.7-34.94-53.84,3.86,0,0-46.35-3.97-35.03,48.26Z"/>
        <path class="cls-35" d="M300.3,493.5s-24.11,34.19,2.35,46.73c26.46,12.54,34.11,1.71,34.11,1.71,0,0,12.78,40.72,57.66,35.16,0,0,24.55-5.6,24.79-36.72,0,0,19.63,30.36,48.54,21.18,28.9-9.18,16.21-27.5,16.21-27.5,0,0,28.25,.82,29.84-35.36,0,0,21.73-25.34-9.23-43.83,0,0-16.72-51.27-57.63-27.7,0,0-6.01-10.43-18.48,3.17,0,0-22.25-25.64-42.81,5.44,0,0-33.88-32.83-53.49,7.31,0,0-46.51-.98-31.86,50.41Z"/>
        <path class="cls-21" d="M433.31,391.36s-37.96,17.59-21.29,41.66c16.66,24.07,28.7,18.52,28.7,18.52,0,0-9.26,41.66,32.4,59.25,0,0,24.07,7.41,39.81-19.44,0,0,1.85,36.11,31.48,42.59,29.63,6.48,27.77-15.74,27.77-15.74,0,0,24.07,14.81,43.51-15.74,0,0,31.48-11.11,13.89-42.59,0,0,11.11-52.77-36.11-52.77,0,0,0-12.04-17.59-6.48,0,0-6.48-33.33-39.81-16.66,0,0-12.96-45.36-49.99-20.37,0,0-39.81-24.07-52.77,27.77Z"/>
        <path class="cls-39" d="M454.23,294.47s-32.6,26.21-10.63,45.56c21.97,19.35,32.31,11.06,32.31,11.06,0,0,1.05,42.66,45.72,49.7,0,0,25.15,1.39,33.96-28.46,0,0,10.49,34.6,40.81,33.75,30.31-.84,23.17-21.96,23.17-21.96,0,0,26.93,8.58,38.44-25.75,0,0,27.88-18.36,3.22-44.68,0,0-1.93-53.89-47.75-42.52,0,0-2.9-11.68-18.63-2.05,0,0-14.32-30.79-42.65-6.59,0,0-23.5-40.91-53.43-7.73,0,0-44.43-13.78-44.53,39.66Z"/>
        <path class="cls-21" d="M448.81,182.83s-26.25,32.57-.66,46.78c25.6,14.21,33.93,3.9,33.93,3.9,0,0,10.14,41.46,55.28,38.79,0,0,24.86-4.01,27.09-35.05,0,0,17.64,31.56,47.07,24.26,29.43-7.3,17.94-26.41,17.94-26.41,0,0,28.14,2.63,32.05-33.37,0,0,23.31-23.89-6.4-44.33,0,0-13.39-52.24-55.73-31.34,0,0-5.33-10.79-18.64,1.97,0,0-20.56-27.02-43.07,2.68,0,0-31.7-34.94-53.84,3.86,0,0-46.35-3.97-35.03,48.26Z"/>
        <path class="cls-39" d="M290.87,121.03s-26.25,32.57-.66,46.78c25.6,14.21,33.93,3.9,33.93,3.9,0,0,10.14,41.46,55.28,38.79,0,0,24.86-4.01,27.09-35.05,0,0,17.64,31.56,47.07,24.26,29.43-7.3,17.94-26.41,17.94-26.41,0,0,28.14,2.63,32.05-33.37,0,0,23.31-23.89-6.4-44.33,0,0-13.39-52.24-55.73-31.34,0,0-5.33-10.79-18.64,1.97,0,0-20.56-27.02-43.07,2.68,0,0-31.7-34.94-53.84,3.86,0,0-46.35-3.97-35.03,48.26Z"/>
        <path class="cls-39" d="M192.77,252.48s-26.25,32.57-.66,46.78c25.6,14.21,33.93,3.9,33.93,3.9,0,0,10.14,41.46,55.28,38.79,0,0,24.86-4.01,27.09-35.05,0,0,17.64,31.56,47.07,24.26,29.43-7.3,17.94-26.41,17.94-26.41,0,0,28.14,2.63,32.05-33.37,0,0,23.31-23.89-6.4-44.33,0,0-13.39-52.24-55.73-31.34,0,0-5.33-10.79-18.64,1.97,0,0-20.56-27.02-43.07,2.68,0,0-31.7-34.94-53.84,3.86,0,0-46.35-3.97-35.03,48.26Z"/>
        <path class="cls-39" d="M62.12,452.68s-3.23,41.71,25.92,38.95c29.15-2.76,30.19-15.97,30.19-15.97,0,0,31.8,28.46,67.53,.73,0,0,18.24-17.37,2.52-44.23,0,0,32.4,16.05,52.54-6.62,20.15-22.67-.14-31.92-.14-31.92,0,0,24.7-13.75,7.56-45.65,0,0,5.71-32.89-30.35-32.95,0,0-40.59-35.51-63.69,5.67,0,0-10.5-5.89-14.26,12.17,0,0-32.24-10.65-34.01,26.57,0,0-45.91-10.89-42.22,33.64,0,0-40.47,22.94-1.59,59.61Z"/>
        <path class="cls-21" d="M158.54,438.14s-28.36,30.75-3.77,46.64c24.59,15.88,33.6,6.15,33.6,6.15,0,0,7.36,42.04,52.58,42.38,0,0,25.07-2.35,29.37-33.17,0,0,15.5,32.66,45.36,27.34,29.85-5.33,19.66-25.15,19.66-25.15,0,0,27.9,4.5,34.2-31.16,0,0,24.85-22.29-3.43-44.66,0,0-9.89-53.01-53.52-34.98,0,0-4.6-11.12-18.73,.73,0,0-18.72-28.33-43.16-.2,0,0-29.3-36.97-53.98,.27,0,0-45.98-7.04-38.16,45.82Z"/>
        <path class="cls-39" d="M32.29,353.02s-3.76,41.67,25.42,39.28c29.18-2.39,30.39-15.59,30.39-15.59,0,0,31.44,28.86,67.51,1.59,0,0,18.46-17.14,3.08-44.2,0,0,32.19,16.46,52.62-5.95,20.43-22.41,.27-31.92,.27-31.92,0,0,24.87-13.43,8.14-45.55,0,0,6.13-32.81-29.93-33.33,0,0-40.13-36.02-63.76,4.86,0,0-10.42-6.02-14.41,11.99,0,0-32.1-11.06-34.34,26.13,0,0-45.76-11.47-42.65,33.1,0,0-40.76,22.43-2.35,59.59Z"/>
        <path class="cls-23" d="M258.25,523.64l41.87,92.71,41.87,7.97s3.99,108.66-9.97,142.55c0,0-9.97,16.95-41.87,27.91,0,0,54.83,32.9,136.57,0,0,0-38.88-12.96-42.87-29.91l-5.98-95.7,55.82-50.84,1-34.89,37.49-23.67-14.24-.55-23,13.14v-19.17l-8.76-7.12-.55,65.72-47.65,44.36-3.29-85.99-33.41-29.58-.55,61.34-33.41-1.64-44.91-88.73-4.17,12.06Z"/>
        <path class="cls-34" d="M259.67,328.57s-37.96,17.59-21.29,41.66c16.66,24.07,28.7,18.52,28.7,18.52,0,0-9.26,41.66,32.4,59.25,0,0,24.07,7.41,39.81-19.44,0,0,1.85,36.11,31.48,42.59,29.63,6.48,27.77-15.74,27.77-15.74,0,0,24.07,14.81,43.51-15.74,0,0,31.48-11.11,13.89-42.59,0,0,11.11-52.77-36.11-52.77,0,0,0-12.04-17.59-6.48,0,0-6.48-33.33-39.81-16.66,0,0-12.96-45.36-49.99-20.37,0,0-39.81-24.07-52.77,27.77Z"/>
        <path class="cls-34" d="M74.45,277.48s-3.76,41.67,25.42,39.28c29.18-2.39,30.39-15.59,30.39-15.59,0,0,31.44,28.86,67.51,1.59,0,0,18.46-17.14,3.08-44.2,0,0,32.19,16.46,52.62-5.95,20.43-22.41,.27-31.92,.27-31.92,0,0,24.87-13.43,8.14-45.55,0,0,6.13-32.81-29.93-33.33,0,0-40.13-36.02-63.76,4.86,0,0-10.42-6.02-14.41,11.99,0,0-32.1-11.06-34.34,26.13,0,0-45.76-11.47-42.65,33.1,0,0-40.76,22.43-2.35,59.59Z"/>
      </g>
    </g>
    <path class="cls-12" d="M212.59,861.85s392.9-16.95,418.82,13.96c25.93,30.91-37.89,44.87-66.81,64.82-28.92,19.94-93.74,28.92-175.51-6.98-81.77-35.9-180.49-22.94-180.49-22.94l3.99-48.86Z"/>
    <path class="cls-34" d="M459.5,857.23s36.6-46.06-10.63-45.21c0,0,21.25-64.82-34.24-57.15,0,0-110.98-57.15-125.15,30.71,0,0-70.56-39.56-88.28,10.77l.96,81.87s73.34,10.68,158.17-1.57c0,0,61.44-8.41,99.17-19.42Z"/>
    <path class="cls-12" d="M1265.06,812.16s-334.85-4.27-534.33,7.12c-199.48,11.4,193.78,19.95,193.78,19.95,0,0,233.68,15.67,349.1,55.57,115.42,39.9-8.55-82.64-8.55-82.64Z"/>
    <rect class="cls-12" x="7.05" y="722.1" width="1333.84" height="27.21"/>
    <g>
      <path class="cls-42" d="M747.44,215.76s-30.08-3.41-66.8,49.38c-36.72,52.79-112.46,189.74-44.37,244.82,0,0,44.37,19.89,71.15-39.02,26.78-58.91,41.31-132.36,41.31-132.36,0,0,51.74-107.94-1.29-122.83Z"/>
      <path class="cls-21" d="M703.31,695.25s52.11-55.75,157.55-12.12c105.44,43.63,101.8,81.2,101.8,81.2,0,0-4.85,21.81-35.15,14.54l-36.36-12.12-10.91-33.93-4.85,25.45-54.54-14.54-8.48-30.3-3.64,26.66s-94.53-12.12-105.44-44.84Z"/>
      <path class="cls-34" d="M742.32,573.35s49.09-69.19,167.11-31.52c118.03,37.67,118.63,80.76,118.63,80.76,0,0-2.58,25.32-35.86,20.48l-40.35-9.67-15.73-37.31-2.14,29.45-60.09-10.37-12.7-33.46-.7,30.69s-102.59-3.11-118.17-39.05Z"/>
      <path class="cls-21" d="M719.65,486.45s-11.7-84.02,100.06-137.51c111.75-53.49,141.73-22.54,141.73-22.54,0,0,15.48,20.2-12.07,39.49l-36,20.62-37.03-16.38,18.63,22.91-50.86,33.64-32.18-15.65,20.53,22.83s-76.82,68.06-112.8,52.58Z"/>
      <path class="cls-41" d="M662.23,553.21s1.29-84.83,119.91-120.59c118.62-35.77,143.51-.6,143.51-.6,0,0,12.21,22.33-17.97,37.18l-38.73,14.87-34.09-21.85,14.91,25.49-55.4,25.47-29.41-20.39,16.8,25.7s-86.33,55.51-119.52,34.72Z"/>
      <path class="cls-44" d="M753.78,534.35s36.6-83.94,178.71-88.61c142.11-4.66,154.21,36.76,154.21,36.76,0,0,3.83,25.37-34.71,32.27l-47.73,4.7-27.5-30.58,5.41,29.21-70.01,10.89-23.09-27.91,7.36,29.9s-115.66,32.69-142.64,3.38Z"/>
      <path class="cls-34" d="M629.13,568.43s23.34-88.55-85.25-180.34c-108.59-91.79-143.77-66.8-143.77-66.8,0,0-18.74,17.53,7.22,46.84l34.53,33.28,40.54-6.94-22.36,19.56,48.18,51.96,35.42-7.58-24.31,18.9s70.47,97.37,109.8,91.11Z"/>
      <path class="cls-21" d="M507.53,515.72s-1.06-91.57-130.17-151.15c-129.1-59.58-156.36-26.12-156.36-26.12,0,0-13.4,21.88,19.43,43.23l42.14,22.89,37.23-17.48-16.35,24.8,60.27,37.26,32.13-16.73-18.41,24.69s93.84,75.11,130.09,58.6Z"/>
      <path class="cls-34" d="M507.67,519.32s-41.3-81.73-183.45-78.32c-142.15,3.41-151.88,45.45-151.88,45.45,0,0-2.39,25.54,36.49,30.25l47.92,1.98,25.72-32.1-3.75,29.47,70.52,6.9,21.47-29.18-5.65,30.27s117.33,26.07,142.6-4.71Z"/>
      <path class="cls-21" d="M504.8,509.64s-72.08-56.49-199.35,6.9-118.25,105.59-118.25,105.59c0,0,8.68,24.14,45.87,11.91l44.24-18.53,9.68-39.98,9.11,28.27,66.78-23.67,7.06-35.53,7.73,29.81s117.31-26.16,127.13-64.76Z"/>
      <path class="cls-34" d="M536.77,654.06s-64.36-65.14-198.63-18.35c-134.27,46.8-130.65,89.8-130.65,89.8,0,0,5.56,25.05,44,17.61l46.22-12.8,14.65-38.43,5.46,29.2,69.24-15.04,11.5-34.35,3.9,30.55s119.68-11.13,134.3-48.18Z"/>
      <path class="cls-44" d="M572.2,551.63s-25.45-81.15-139.61-63.96c-114.15,17.19-125.87,61.91-125.87,61.91,0,0-4.29,26.83,26.4,28l38.19-2.54,23.59-35.89-5.75,31.05,55.83,.41,19.91-32.44-7.35,32.07s91.53,15.89,114.64-18.6Z"/>
      <path class="cls-34" d="M578.67,1120.59s15.66-207.87,15.66-348.82c0,0,35.59,45.56,34.17,59.8,0,0,1.55-73.31,74.81-136.32l13.46,13.88s-61.22,25.63-72.61,130.99c-11.39,105.36,25.63,290.45,25.63,290.45l-91.12-9.97Z"/>
      <path class="cls-42" d="M628.5,831.57s-14.02-40.26-34.17-59.8c0,0-21.39-92.44-68.34-108.5l10.77-9.21s39.89,30.22,57.19,66.05c0,0-24.71-102.56-88.97-148.28l23.48-2.47s65.49,90.2,75.37,119.86c9.89,29.66,6.18,56.84,6.18,56.84l9.89-17.3s-2.47-140.86,49.43-189.05l6.98,10.37s-37.87,67.47-35.4,142.85c0,0,32.98-114.5,112.87-158.57l30.47,5.36s-88.97,22.24-128.51,177.93c0,0-13.59,34.6-9.89,45.72,0,0-22.34,51.17-17.35,68.22Z"/>
      <path class="cls-34" d="M572.2,551.63s42.79,32.03,39.52,89.26c0,0,53.96-322.12,135.71-425.13l13.08,8.18s-122.63,206.02-117.73,358.09c0,0-26.15,111.98-22.89,146.74l-9.89,17.3-6.18-56.84s1.34-79.4-44.44-131.72l12.8-5.87Z"/>
      <path class="cls-17" d="M409.88,736.34s-10.47-17.01-13.74-4.58c-3.27,12.43,7.2,54.95,41.21,62.14,0,0,5.89,0,10.47-1.31,4.58-1.31,9.16,4.58,20.28,0,0,0,9.81,6.54,18.32-1.31,0,0,11.77,2.62,17.66-1.31,0,0,7.2,9.16,18.97,5.23,0,0,5.89,5.89,16.35,0,0,0,35.98-17.01,28.13-63.45,0,0-13.74-6.54-14.39,5.89,0,0-8.5-18.97-20.28-1.96l-5.89,7.85s-.65-18.97-8.5-18.32c-7.85,.65-18.97,20.28-18.97,20.28,0,0-8.5-33.36-17.01-24.2-8.5,9.16-10.47,28.78-10.47,28.78,0,0-24.86-37.28-29.43-23.55-4.58,13.74-1.96,25.51-1.96,25.51,0,0-15.04-32.05-20.93-26.82-5.89,5.23-9.81,11.12-9.81,11.12Z"/>
      <ellipse class="cls-33" cx="564.25" cy="725.55" rx="3.27" ry="6.21"/>
      <ellipse class="cls-33" cx="544.6" cy="725.33" rx="3.27" ry="6.21"/>
      <ellipse class="cls-33" cx="520.65" cy="721.65" rx="3.27" ry="6.21"/>
      <ellipse class="cls-33" cx="482.4" cy="718.61" rx="3.27" ry="6.21"/>
      <ellipse class="cls-33" cx="443.45" cy="721.07" rx="3.27" ry="6.21"/>
      <ellipse class="cls-33" cx="420.1" cy="723.01" rx="3.27" ry="6.21"/>
      <ellipse class="cls-33" cx="398.22" cy="723.84" rx="3.27" ry="6.21"/>
      <path class="cls-17" d="M409.88,832.07s-10.47-17.01-13.74-4.58c-3.27,12.43,7.2,54.95,41.21,62.14,0,0,5.89,0,10.47-1.31,4.58-1.31,9.16,4.58,20.28,0,0,0,9.81,6.54,18.32-1.31,0,0,11.77,2.62,17.66-1.31,0,0,7.2,9.16,18.97,5.23,0,0,5.89,5.89,16.35,0,0,0,35.98-17.01,28.13-63.45,0,0-13.74-6.54-14.39,5.89,0,0-8.5-18.97-20.28-1.96l-5.89,7.85s-.65-18.97-8.5-18.32c-7.85,.65-18.97,20.28-18.97,20.28,0,0-8.5-33.36-17.01-24.2-8.5,9.16-10.47,28.78-10.47,28.78,0,0-24.86-37.28-29.43-23.55-4.58,13.74-1.96,25.51-1.96,25.51,0,0-15.04-32.05-20.93-26.82-5.89,5.23-9.81,11.12-9.81,11.12Z"/>
      <ellipse class="cls-33" cx="564.25" cy="821.28" rx="3.27" ry="6.21"/>
      <ellipse class="cls-33" cx="544.6" cy="821.06" rx="3.27" ry="6.21"/>
      <ellipse class="cls-33" cx="520.65" cy="817.38" rx="3.27" ry="6.21"/>
      <ellipse class="cls-33" cx="482.4" cy="814.34" rx="3.27" ry="6.21"/>
      <ellipse class="cls-33" cx="443.45" cy="816.8" rx="3.27" ry="6.21"/>
      <ellipse class="cls-33" cx="420.1" cy="818.74" rx="3.27" ry="6.21"/>
      <ellipse class="cls-33" cx="398.22" cy="819.57" rx="3.27" ry="6.21"/>
      <path class="cls-28" d="M450.75,1154.72s233.74,20.62,336.86,1.96c0,0-1.96-4.91-10.8-7.86l14.73-4.91s-21.61-22.59-55.98-12.77l25.53-10.8s-15.71-25.53-54.02,3.93c0,0,7.86-22.59,18.66-30.45,0,0-39.28,4.91-51.07,23.57,0,0-2.95-30.45,24.55-42.23,0,0-37.32,1.96-48.12,22.59l-71.69-1.96s-15.71-27.5-36.34-24.55c0,0,23.57,12.77,22.59,38.3,0,0-27.5-22.59-40.27-15.71,0,0,18.66,21.61,13.75,33.39,0,0-35.36-26.52-54.02-4.91,0,0,24.55,2.95,24.55,14.73,0,0-42.23-15.71-58.93,17.68Z"/>
    </g>
    <g>
      <path class="cls-24" d="M1343.1,663.24c-22.14,29.96-69.22,8.06-118.71-1.06-49.49-9.12-48.19,37.77-48.19,37.77-29.96,35.17-15.63-10.42-84.66-7.81s-33.86-109.41-7.81-118.53c26.05-9.12,44.28-65.12,29.96-113.32s69.03-135.46,69.03-135.46c0,0,111.31-65.78,157.5,1.59"/>
      <path class="cls-41" d="M1139.37,533.73s-77.66,35.65-78.93,133.68c0,0,66.2-31.83,78.93-133.68Z"/>
      <path class="cls-41" d="M1118.03,645.09s-75.71,39.62-71.91,137.58c0,0,64.47-35.21,71.91-137.58Z"/>
      <path class="cls-41" d="M1188.47,464.54s-85.38,3.58-123.68,93.83c0,0,73.33-4.39,123.68-93.83Z"/>
      <path class="cls-41" d="M1170.97,331.59s-31.49,60.62,15.84,123.09c0,0,26.14-52.59-15.84-123.09Z"/>
      <path class="cls-41" d="M1260.09,329.37s-60.67,31.39-58,109.72c0,0,51.67-27.91,58-109.72Z"/>
      <path class="cls-41" d="M1300.81,511.19s-25.55-63.35-103.79-68.05c0,0,22.93,54.06,103.79,68.05Z"/>
      <path class="cls-41" d="M1170.59,708.85s.52-45.99-46.89-69.16c0,0,.26,39.53,46.89,69.16Z"/>
      <path class="cls-41" d="M1262.2,688.81s.62-54.67-55.75-82.22c0,0,.31,47,55.75,82.22Z"/>
      <path class="cls-41" d="M1205.95,679.34s.43-38.22-38.97-57.47c0,0,.21,32.85,38.97,57.47Z"/>
      <path class="cls-41" d="M1177.43,451.52s-56.32-34.08-119.35,7.52c0,0,48.93,28.43,119.35-7.52Z"/>
      <path class="cls-41" d="M1173.26,497.99s-58.23,50.71-34.33,136.03c0,0,49.28-44.48,34.33-136.03Z"/>
      <path class="cls-41" d="M1111.84,478.99s-50.87-3.4-79.43,47.65c0,0,43.78,2.14,79.43-47.65Z"/>
      <path class="cls-41" d="M1053.44,654.17s-30.95,7.72-38.19,43.59c0,0,26.49-7.11,38.19-43.59Z"/>
      <path class="cls-41" d="M1102.53,729.64s-32.36,32.34-14.77,81.79c0,0,27.32-28.29,14.77-81.79Z"/>
      <path class="cls-41" d="M1070.46,571.07s-60.71,16.53-73.45,87.58c0,0,51.92-15.14,73.45-87.58Z"/>
      <path class="cls-41" d="M1310.9,419.13s-47.1-19.53-90.52,19.68c0,0,40.78,16.06,90.52-19.68Z"/>
      <path class="cls-41" d="M1156.47,433.08s.86-50.98-51.55-76.96c0,0,.04,43.83,51.55,76.96Z"/>
      <path class="cls-41" d="M1315,357.79s-50.99,.26-75.81,53.24c0,0,43.82-1.01,75.81-53.24Z"/>
      <path class="cls-41" d="M1203.04,328.75s-21.14,26.28-4.29,61.12c0,0,17.76-22.91,4.29-61.12Z"/>
      <path class="cls-41" d="M1203.77,478.92s-46.53,54.17-13.29,129.06c0,0,39.16-47.27,13.29-129.06Z"/>
      <path class="cls-41" d="M1218.24,491.41s-15.98,48.18,26.09,88.45c0,0,12.99-41.65-26.09-88.45Z"/>
      <path class="cls-41" d="M1340.93,548.85s-48.86,14.57-57.81,72.38c0,0,41.77-13.27,57.81-72.38Z"/>
      <path class="cls-41" d="M1340.92,501.26s-49.09,13.79-58.95,71.45c0,0,41.98-12.6,58.95-71.45Z"/>
      <path class="cls-41" d="M1316.49,607.55s-43.73,26.22-38.07,84.45c0,0,37.18-23.21,38.07-84.45Z"/>
      <path class="cls-41" d="M1336.08,475.36s-28.37-42.37-86.24-33.81c0,0,25.03,35.98,86.24,33.81Z"/>
      <path class="cls-41" d="M1305.2,378.5s-2.37,33.64,31.34,52.66c0,0,1.52-28.95-31.34-52.66Z"/>
      <path class="cls-15" d="M1259.04,514.64s-19.1,26.74-7.64,52.2c11.46,25.46,15.28,35.65,25.46,21.64,10.19-14,7.64-63.66-17.82-73.84Z"/>
      <path class="cls-15" d="M1293.41,444.61s-19.1,26.74-7.64,52.2c11.46,25.46,15.28,35.65,25.46,21.64,10.19-14,7.64-63.66-17.82-73.84Z"/>
      <path class="cls-15" d="M1122.81,701.79s-19.1,26.74-7.64,52.2,15.28,35.65,25.46,21.64c10.19-14,7.64-63.66-17.82-73.84Z"/>
      <path class="cls-15" d="M1163.56,722.16s-19.1,26.74-7.64,52.2c11.46,25.46,15.28,35.65,25.46,21.64,10.19-14,7.64-63.66-17.82-73.84Z"/>
      <path class="cls-9" d="M1341.59,888.1s-17.62,82.32-4.88,130.7c0,0-16.55,28.01-66.2,8.91l36.92-175.69s6.37-45.83-6.37-63.66c-12.73-17.82-29.28-59.84-29.28-59.84,0,0-81.48-35.65-105.67-54.74,0,0,0-12.73,20.37-1.27,20.37,11.46,85.3,59.84,110.76,22.92,25.46-36.92,28.01-64.93,28.01-64.93l-11.46,87.85,28.02,91.93"/>
      <path class="cls-34" d="M1341.81,1014.25l-69.22,10.98s-10.57-18.49-24.44-16.51c0,0,15.85,8.59,15.19,25.76,0,0-18.49-15.19-27.08-10.57,0,0,12.55,14.53,9.25,22.46,0,0-23.78-17.83-36.33-3.3,0,0,16.51,1.98,16.51,9.91,0,0-28.4-10.57-39.63,11.89,0,0,86.4,15.15,155.75,2.6"/>
    </g>
  </g>
  <g id="Layer_1" data-name="Layer 1">
    <g class="cls-45">
      <g>
        <path class="cls-27" d="M592.83,880.14s55.59,35.17,96.43,22.69,114.59-54.46,114.59-54.46l24.96-110.05-152.03,38.57-71.48,41.98-12.48,61.26Z"/>
        <path class="cls-27" d="M367.76,496.55s10.92,34.6-6.72,68.41c0,0-4.41,123.49,89.67,133.04,0,0,72.44-44.21,57.65-114.14-1.07-5.04-17.83-7.86-19.69-13.18l-120.92-74.13Z"/>
        <path class="cls-30" d="M233.24,1116.9s170.34,116.02,351.11,28.64l-15.86,356.37s1,66.28-11.05,128.55c-12.05,62.27-27.12,206.89-27.12,206.89,0,0-34.15,20.09-86.37,6.03,0,0-39.17,68.29-138.6,16.07,0,0-31.13-130.56-16.07-200.86,0,0,4.02-57.25,0-109.47,0,0-95.23-346.85-56.06-432.22Z"/>
        <path class="cls-29" d="M346.71,567.98s-80.94,31.84-118.72,72.08c0,0-26.28,19.71-32.03,61.6,0,0-18.17,49.78-21.82,154.34,0,0,50.24,21.93,85.73,33.28l-38.6,227.62s62.58,66.87,244.09,69.33c0,0,83.57-.46,122.17-41.52,0,0,12.82-116.41,10.06-283.72,0,0-9.57,27.03,4.74,20.89l74.47-104.99s-61.14-141.85-105.44-169.45c0,0-29.83-17.43-58.52-23.28l-52.14,37.4-12.19,63.99-19.07-51.69s-2.98-18.68-82.71-65.89Z"/>
        <path class="cls-3" d="M443.97,1843.38s32.57-371.01,13.85-507.68c0,0,20.97-39.76,23.15-80.09"/>
        <line class="cls-7" x1="598.82" y1="882.21" x2="586.48" y2="708.53"/>
        <path class="cls-27" d="M532.13,340.21s18.6,27.39,12.76,92.55c0,0-2.95,15.62-1.4,24.11,1.55,8.48,1.36,22.56-1.96,31.55-3.33,8.99-27.73,69.21-27.73,69.21,0,0-7.93,17.45-38.74,17.3-30.81-.15-56.77-11.81-67.66-24.97-10.88-13.16-38.31-34.62-40.74-54.62,0,0-18.35,3.88-25.47-18.23,0,0-19.38-34.5,.64-43.1,20.03-8.6,31.12,19.1,31.12,19.1,0,0-22.41-81.4,23.52-112.24,0,0,56.77-45.86,135.65-.67Z"/>
        <path class="cls-36" d="M469.75,411.26s-26.37-5.16-48,6.36c0,0,9.42-18.39,47.96-14.05,0,0,6.7,4.25,.04,7.69Z"/>
        <path class="cls-36" d="M545.96,422.22c-16.44-8.91-26.78-6.78-26.78-6.78-5.59-5,1.97-7.43,1.97-7.43,11.96,1.71,20.63,4.84,26.9,8.35,0,0-1.2,6.35-2.1,5.86Z"/>
        <path class="cls-8" d="M340.44,448.62s8.31-10.72,15.78,1.43c7.47,12.15,7.63,16.02,7.63,16.02,0,0-10.57-19.19-16.43-4.88"/>
        <path class="cls-43" d="M476.85,574.2s-27.08,1.83-48.77-9.07c0,0-13.32-4.48-30.61-25.24,0,0,16.5,30.4,49.47,35.34,0,0,14.72,3.77,29.91-1.03,0,0-.81,3.2,0,0Z"/>
        <g>
          <path class="cls-13" d="M436.87,430.83s.02-.71,.57-1.28c1.82-1.89,5.99-5.4,12.33-5.16,7.09,.28,10.74,7.09,11.98,9.51,.21,.42,.18,.78,.18,.78,0,0,0,.4-.24,.66-1.18,1.27-5.1,4.79-11.82,4.63-4-.09-9.53-2.46-12.79-8.02-.23-.39-.23-.87-.21-1.13Z"/>
          <circle class="cls-43" cx="451.45" cy="432.66" r="7.34"/>
          <circle class="cls-13" cx="446.88" cy="430.99" r="2.01"/>
          <path class="cls-4" d="M462.18,433.94s-7.97-17.26-25.01-4.45"/>
        </g>
        <g>
          <path class="cls-13" d="M518.4,439.98s-.08-.67,.35-1.28c1.42-2.02,4.8-5.88,10.72-6.56,6.63-.76,11,5.06,12.5,7.14,.26,.36,.28,.7,.28,.7,0,0,.07,.37-.13,.65-.92,1.35-4.06,5.18-10.33,6-3.73,.48-9.21-.93-13.04-5.63-.27-.33-.33-.78-.35-1.02Z"/>
          <circle class="cls-43" cx="532.22" cy="439.58" r="6.88"/>
          <circle class="cls-13" cx="527.52" cy="438.82" r="1.93"/>
          <path class="cls-4" d="M542.1,439.5s-9.48-15.91-23.54-.49"/>
        </g>
        <path class="cls-8" d="M499.65,444.02l14.11,27.42s7.15,20.67-6.39,23.14c-12.05,2.2-12.24-.42-12.24-.42"/>
        <path class="cls-36" d="M366.52,452.62l10.22-3.41c3.09-25.25,11.2-79.19,31.47-99.93,0,0,79.24-28.31,124.11,7.91,0,0,14.99,14.19,11.45,80.41,0,0,14.72-44.7,4.79-85.54,0,0,13.74-7.51,15.93-11.44,0,0-17.13,1.06-24.53-8.5-4.34-5.6-65.72-68.37-148.27-21.67,0,0-72.36,10.44-55.31,126.21,0,0,21.67-15.97,30.13,15.96Z"/>
        <polygon class="cls-19" points="350.16 556.83 365.67 554.38 362.79 572.62 350.16 556.83"/>
        <path class="cls-22" d="M337.05,574.18s79.67,48.48,95.4,76l-2.18-27.26s-59.08-38.05-80.1-66.09l-13.11,17.35Z"/>
        <path class="cls-22" d="M490.79,573.44s34.05-1.6,32.92,17.74l-61.06,46.49-1.97-16.12s28.79-14.4,47.69-37.69c0,0-16.87-1.09-17.58-10.42Z"/>
        <path class="cls-7" d="M451.09,683.78s20.05,161.31,16.88,503.72"/>
        <ellipse class="cls-16" cx="433.72" cy="694.47" rx="4.76" ry="5.16"/>
        <ellipse class="cls-16" cx="445.79" cy="781.03" rx="4.76" ry="5.16"/>
        <ellipse class="cls-16" cx="451.75" cy="874.76" rx="4.76" ry="5.16"/>
        <ellipse class="cls-16" cx="453.41" cy="960.26" rx="4.76" ry="5.16"/>
        <ellipse class="cls-16" cx="455.82" cy="1067.75" rx="4.76" ry="5.16"/>
        <g>
          <polygon class="cls-16" points="392.29 1181.22 399.49 1172.67 383.13 1157.45 367.91 1173.81 372.88 1178.61 392.29 1181.22"/>
          <polygon class="cls-16" points="419.7 1183.83 430.96 1171.54 414.6 1156.32 399.38 1172.68 409.52 1182.87 419.7 1183.83"/>
          <rect class="cls-16" x="371.38" y="1130.36" width="22.35" height="22.35" transform="translate(-713.78 644.05) rotate(-47.07)"/>
          <rect class="cls-38" x="387.63" y="1145.77" width="22.35" height="22.35" transform="translate(-719.88 660.86) rotate(-47.07)"/>
          <rect class="cls-16" x="402.86" y="1129.23" width="22.35" height="22.35" transform="translate(-702.92 666.73) rotate(-47.07)"/>
          <rect class="cls-16" x="370.34" y="1098.73" width="22.35" height="22.35" transform="translate(-690.96 633.2) rotate(-47.07)"/>
          <rect class="cls-38" x="386.59" y="1114.14" width="22.35" height="22.35" transform="translate(-697.06 650.01) rotate(-47.07)"/>
          <rect class="cls-16" x="401.81" y="1097.6" width="22.35" height="22.35" transform="translate(-680.09 655.88) rotate(-47.07)"/>
          <rect class="cls-16" x="369.21" y="1067.29" width="22.35" height="22.35" transform="translate(-668.3 622.35) rotate(-47.07)"/>
          <rect class="cls-38" x="385.46" y="1082.7" width="22.35" height="22.35" transform="translate(-674.4 639.16) rotate(-47.07)"/>
          <rect class="cls-16" x="400.68" y="1066.15" width="22.35" height="22.35" transform="translate(-657.43 645.03) rotate(-47.07)"/>
          <rect class="cls-16" x="368.07" y="1035.84" width="22.35" height="22.35" transform="translate(-645.64 611.49) rotate(-47.07)"/>
          <rect class="cls-38" x="384.32" y="1051.25" width="22.35" height="22.35" transform="translate(-651.74 628.3) rotate(-47.07)"/>
          <rect class="cls-16" x="399.55" y="1034.71" width="22.35" height="22.35" transform="translate(-634.77 634.17) rotate(-47.07)"/>
          <rect class="cls-16" x="366.94" y="1004.4" width="22.35" height="22.35" transform="translate(-622.98 600.63) rotate(-47.07)"/>
          <rect class="cls-38" x="383.19" y="1019.81" width="22.35" height="22.35" transform="translate(-629.08 617.44) rotate(-47.07)"/>
          <rect class="cls-16" x="398.41" y="1003.26" width="22.35" height="22.35" transform="translate(-612.11 623.31) rotate(-47.07)"/>
          <rect class="cls-16" x="365.81" y="973.06" width="22.35" height="22.35" transform="translate(-600.4 589.81) rotate(-47.07)"/>
          <rect class="cls-38" x="382.06" y="988.47" width="22.35" height="22.35" transform="translate(-606.5 606.63) rotate(-47.07)"/>
          <rect class="cls-16" x="397.28" y="971.93" width="22.35" height="22.35" transform="translate(-589.53 612.5) rotate(-47.07)"/>
          <rect class="cls-16" x="364.68" y="941.62" width="22.35" height="22.35" transform="translate(-577.74 578.96) rotate(-47.07)"/>
          <rect class="cls-38" x="380.92" y="957.03" width="22.35" height="22.35" transform="translate(-583.84 595.77) rotate(-47.07)"/>
          <rect class="cls-16" x="396.15" y="940.48" width="22.35" height="22.35" transform="translate(-566.87 601.64) rotate(-47.07)"/>
          <rect class="cls-16" x="363.55" y="910.28" width="22.35" height="22.35" transform="translate(-555.16 568.14) rotate(-47.07)"/>
          <rect class="cls-38" x="379.79" y="925.69" width="22.35" height="22.35" transform="translate(-561.26 584.95) rotate(-47.07)"/>
          <rect class="cls-16" x="395.02" y="909.15" width="22.35" height="22.35" transform="translate(-544.29 590.82) rotate(-47.07)"/>
          <rect class="cls-16" x="362.41" y="878.84" width="22.35" height="22.35" transform="translate(-532.49 557.28) rotate(-47.07)"/>
          <rect class="cls-38" x="378.66" y="894.25" width="22.35" height="22.35" transform="translate(-538.6 574.09) rotate(-47.07)"/>
          <rect class="cls-16" x="393.88" y="877.7" width="22.35" height="22.35" transform="translate(-521.63 579.96) rotate(-47.07)"/>
          <rect class="cls-16" x="361.28" y="847.5" width="22.35" height="22.35" transform="translate(-509.91 546.47) rotate(-47.07)"/>
          <rect class="cls-38" x="377.53" y="862.91" width="22.35" height="22.35" transform="translate(-516.01 563.28) rotate(-47.07)"/>
          <rect class="cls-16" x="392.75" y="846.37" width="22.35" height="22.35" transform="translate(-499.05 569.15) rotate(-47.07)"/>
          <rect class="cls-16" x="360.03" y="815.51" width="22.35" height="22.35" transform="translate(-486.89 535.35) rotate(-47.07)"/>
          <rect class="cls-38" x="376.28" y="830.92" width="22.35" height="22.35" transform="translate(-492.99 552.16) rotate(-47.07)"/>
          <rect class="cls-16" x="391.5" y="814.37" width="22.35" height="22.35" transform="translate(-476.02 558.03) rotate(-47.07)"/>
          <rect class="cls-16" x="358.99" y="783.88" width="22.35" height="22.35" transform="translate(-464.06 524.5) rotate(-47.07)"/>
          <rect class="cls-38" x="375.24" y="799.29" width="22.35" height="22.35" transform="translate(-470.16 541.31) rotate(-47.07)"/>
          <rect class="cls-16" x="390.46" y="782.74" width="22.35" height="22.35" transform="translate(-453.19 547.18) rotate(-47.07)"/>
          <rect class="cls-16" x="357.85" y="752.44" width="22.35" height="22.35" transform="translate(-441.4 513.64) rotate(-47.07)"/>
          <rect class="cls-38" x="374.1" y="767.84" width="22.35" height="22.35" transform="translate(-447.5 530.45) rotate(-47.07)"/>
          <rect class="cls-16" x="389.32" y="751.3" width="22.35" height="22.35" transform="translate(-430.54 536.32) rotate(-47.07)"/>
          <rect class="cls-16" x="356.72" y="720.99" width="22.35" height="22.35" transform="translate(-418.74 502.79) rotate(-47.07)"/>
          <rect class="cls-38" x="372.97" y="736.4" width="22.35" height="22.35" transform="translate(-424.84 519.6) rotate(-47.07)"/>
          <rect class="cls-16" x="388.19" y="719.85" width="22.35" height="22.35" transform="translate(-407.88 525.47) rotate(-47.07)"/>
          <rect class="cls-16" x="355.58" y="689.54" width="22.35" height="22.35" transform="translate(-396.08 491.93) rotate(-47.07)"/>
          <rect class="cls-38" x="371.83" y="704.95" width="22.35" height="22.35" transform="translate(-402.18 508.74) rotate(-47.07)"/>
          <rect class="cls-16" x="387.06" y="688.41" width="22.35" height="22.35" transform="translate(-385.22 514.61) rotate(-47.07)"/>
          <rect class="cls-16" x="354.45" y="658.21" width="22.35" height="22.35" transform="translate(-373.5 481.11) rotate(-47.07)"/>
          <rect class="cls-38" x="370.7" y="673.62" width="22.35" height="22.35" transform="translate(-379.6 497.92) rotate(-47.07)"/>
          <rect class="cls-16" x="385.93" y="657.07" width="22.35" height="22.35" transform="translate(-362.64 503.79) rotate(-47.07)"/>
          <rect class="cls-16" x="353.32" y="626.76" width="22.35" height="22.35" transform="translate(-350.84 470.26) rotate(-47.07)"/>
          <rect class="cls-38" x="369.57" y="642.17" width="22.35" height="22.35" transform="translate(-356.94 487.07) rotate(-47.07)"/>
          <rect class="cls-16" x="384.79" y="625.63" width="22.35" height="22.35" transform="translate(-339.97 492.94) rotate(-47.07)"/>
          <rect class="cls-16" x="352.25" y="595.42" width="22.35" height="22.35" transform="translate(-328.24 459.48) rotate(-47.07)"/>
          <rect class="cls-38" x="368.5" y="610.83" width="22.35" height="22.35" transform="translate(-334.34 476.29) rotate(-47.07)"/>
          <polyline class="cls-38" points="381.91 602.99 379.21 606.01 362.85 590.79 363.64 589.94"/>
          <polygon class="cls-16" points="395.47 621.25 379.11 606.03 381.91 602.99 399.86 616.64 395.47 621.25"/>
        </g>
        <g>
          <polyline class="cls-16" points="295.32 855.24 277.58 867.11 265.18 848.58 283.71 836.18 295.62 853.94"/>
          <polygon class="cls-38" points="297.89 838.93 295.62 853.94 283.87 836.33 299.49 825.84 297.89 838.93"/>
          <polyline class="cls-16" points="299.43 825.75 283.69 836.29 271.29 817.76 289.81 805.36 299.95 820.5"/>
          <rect class="cls-16" x="238.54" y="834.27" width="22.29" height="22.29" transform="translate(-428.05 281.73) rotate(-33.79)"/>
          <rect class="cls-38" x="257.23" y="822.02" width="22.29" height="22.29" transform="translate(-418.08 290.05) rotate(-33.79)"/>
          <rect class="cls-16" x="244.65" y="803.44" width="22.29" height="22.29" transform="translate(-409.87 279.92) rotate(-33.79)"/>
          <rect class="cls-16" x="207.75" y="828.17" width="22.29" height="22.29" transform="translate(-429.86 263.57) rotate(-33.79)"/>
          <rect class="cls-38" x="226.44" y="815.92" width="22.29" height="22.29" transform="translate(-419.89 271.9) rotate(-33.79)"/>
          <rect class="cls-16" x="213.86" y="797.34" width="22.29" height="22.29" transform="translate(-411.68 261.76) rotate(-33.79)"/>
          <rect class="cls-38" x="195.64" y="809.82" width="22.29" height="22.29" transform="translate(-421.7 253.74) rotate(-33.79)"/>
          <rect class="cls-16" x="176.85" y="822.31" width="22.29" height="22.29" transform="translate(-431.82 245.4) rotate(-33.79)"/>
          <rect class="cls-16" x="182.96" y="791.48" width="22.29" height="22.29" transform="translate(-413.64 243.58) rotate(-33.79)"/>
          <polyline class="cls-38" points="174.27 802.77 178.95 799.64 191.35 818.17 172.83 830.57"/>
        </g>
        <path class="cls-26" d="M453.46,510.66s15.51-4.28,33.66,1.47c0,0,15.92-2.68,30.06,.91,0,0-2.36,25.49-26.48,30.41-24.13,4.92-38.14-17.9-37.23-32.8Z"/>
        <path class="cls-18" d="M457.25,512.59s-.91,22.59,28.47,23.48c26.68,.81,27.5-19.3,27.5-19.3,0,0-30.1,.44-55.97-4.19Z"/>
        <path class="cls-13" d="M460.88,513.02s6.96,10.69,29.73,10.28c0,0,14,1.13,20.1-6.15,0,0-29.32-.25-49.84-4.13Z"/>
        <path class="cls-36" d="M442.01,519.54s-1.47-19.19,14.58-23.5c19.71-5.3,40.85-6.34,55.74,1.82,14.89,8.16,22.85,16.91,10.8,17.14-12.05,.23-35.87-15.12-61.69-2.79,0,0-10.19,10.18-19.44,7.33Z"/>
        <path class="cls-27" d="M182.97,857.94s-11.11,34.53-8.25,78.54c2.86,44.01,5.14,46.87,5.14,46.87l44.58,197.2s6.86,29.15,1.14,49.16c-5.72,20.01,1.71,41.15,1.71,41.15,0,0,16,49.73,68.02,69.73,0,0,10.29-9.15-8.57-26.86,0,0-21.72-20.01-13.72-48.58,0,0,8.57-10.29,10.29,6.86,1.71,17.15,1.14,42.87,17.72,41.15,16.58-1.71,4-39.44,4-39.44l-2.29-37.72s-1.14-31.44-22.29-38.87l-13.15-229.21,12.78-83.28s-58.51-1.31-97.13-26.69Z"/>
        <path class="cls-7" d="M289.33,884.56s24.56-117.42,19.22-176.16c-5.34-58.75-46.73-60.08-46.73-60.08"/>
        <polygon class="cls-31" points="222 1199.86 219.75 1189.21 287.27 1177.5 288.6 1192.35 222 1199.86"/>
        <circle class="cls-31" cx="260.36" cy="1187.53" r="18.3"/>
        <circle class="cls-13" cx="260.25" cy="1187.91" r="15.54"/>
      </g>
      <g>
        <rect class="cls-32" x="842.94" y="1120.8" width="273.6" height="102.86"/>
        <path class="cls-27" d="M1041.32,572.62s-10.05,31.85,6.19,62.98c0,0,4.06,113.67-82.55,122.47,0,0-60.42-44.27-34.95-117.2l111.31-68.24Z"/>
        <path class="cls-27" d="M900.31,439.54s-20.11,18.96-14.94,68.94c0,0,4.6,12.64,2.3,27,0,0-6.41,25.27,.37,46.86,9.21,29.33,24.33,41.61,24.33,41.61,0,0,11.49,11.49,27,8.62,0,0,23.55,8.04,44.24-5.17,20.68-13.21,56.3-54.58,56.3-54.58,0,0,18.96,5.17,24.7-14.36,5.74-19.53,14.36-34.47,2.3-45.96-12.06-11.49-27,20.11-27,20.11,0,0-8.04-9.77-5.74-24.13,0,0,6.08-28.81-10.92-62.62,0,0-53.3-23.14-122.94-6.32Z"/>
        <path class="cls-31" d="M953.64,500.66s27.4-7.63,48.98,7.9c0,0-8.66-25.27-48.5-18.54,0,0-7.13,6.01-.47,10.64Z"/>
        <path class="cls-31" d="M886.51,502.18c17.71-6.24,27.63-.21,27.63-.21,6.33-4.66-.77-10.18-.77-10.18-12.13-1.6-21.23-.33-28,2.19,0,0,.17,8.55,1.14,8.2Z"/>
        <path class="cls-43" d="M940.91,634.09s28.77,4.39,40.88-5.73c0,0,14.09-7.14,30.56-25.6,0,0-20.05,33.03-46.63,36.12,0,0-12.5,2.18-24.81-4.78,0,0,.5,2.86,0,0Z"/>
        <path class="cls-2" d="M841.31,942.52c2.96-34.39,6.96-67.29,12.39-91.89"/>
        <path class="cls-8" d="M1066.27,540.93s-8.22-21.82-24.98,13.28c0,0,14.23-15.49,16.76-2.21"/>
        <path class="cls-8" d="M913.51,542.63s-13.04,19.39,9.69,21.68"/>
        <g>
          <path class="cls-13" d="M983.14,518.03s.03-.69-.46-1.29c-1.63-1.97-5.41-5.69-11.58-5.92-6.9-.26-10.94,6.08-12.32,8.34-.24,.39-.23,.74-.23,.74,0,0-.04,.38,.18,.66,1.05,1.32,4.59,5.02,11.12,5.37,3.89,.2,9.42-1.68,13-6.83,.25-.36,.28-.83,.28-1.08Z"/>
          <circle class="cls-43" cx="968.86" cy="518.72" r="7.14"/>
          <circle class="cls-13" cx="973.42" cy="517.44" r="1.96"/>
          <path class="cls-4" d="M958.36,519.17s9.01-16.15,24.59-2.47"/>
        </g>
        <g>
          <path class="cls-13" d="M912.35,520.88s.13-.64-.24-1.26c-1.23-2.07-4.22-6.06-9.92-7.16-6.38-1.23-11.04,4.09-12.65,6-.28,.33-.32,.66-.32,.66,0,0-.09,.35,.08,.64,.79,1.38,3.55,5.33,9.57,6.58,3.58,.75,9-.22,13.07-4.5,.28-.3,.38-.73,.42-.96Z"/>
          <circle class="cls-43" cx="898.97" cy="519.46" r="6.69"/>
          <circle class="cls-13" cx="903.58" cy="519.07" r="1.87"/>
          <path class="cls-4" d="M889.38,518.65s10.37-14.74,22.87,1.26"/>
        </g>
        <path class="cls-31" d="M1022.13,452.59s-27.19-18.35-42.95,2.42c-20.53,27.07-34.9,.32-51.61,15.24,0,0-16.15-34.17-36.24-10.61,0,0-11.81-38.85,32.43-65.6,0,0,49.63-29.34,98.73,4.35,0,0,47.84,9.01,45.96,54.17,0,0-26.04-24.74-46.32,.02Z"/>
        <path class="cls-10" d="M1060.63,427.04s28.11,19.2,10.78,95.24c0,0-16.41-22.15-33.02,16.02l-6.23-15.33s13.08-49.56-16.97-80.2l45.44-15.73Z"/>
        <path class="cls-27" d="M1092.23,1162.48l-1.27,8.45c-18.52,5.74-20.51,32.87-20.51,32.87l-3.19,32.53s-12.08,32.2,2.19,34.21c14.27,2.01,14.6-20.23,16.64-35,2.03-14.76,9.11-5.6,9.11-5.6,6,24.96-13.42,41.55-13.42,41.55-16.87,14.71-8.27,22.94-8.27,22.94,45.59-15.62,61.02-58.08,61.02-58.08,0,0,5.8-17.77,2.8-35.51-2.62-15.51,4.78-31.98,4.78-31.98,0,0-23.37,6.6-49.88-6.39Z"/>
        <path class="cls-37" d="M838.5,934.73l-15.19-180.75s1.29-42.68,41.61-71.64c0,0,30.53-23.81,53.23-33.46l44.18,33.64,4.07,62.58,17.78-53.53s2.49-15.59,69.02-54.99c0,0,67.55,26.57,99.08,60.16,0,0,21.93,16.45,26.73,51.41,0,0,13.71,58.95,21.25,130.23,0,0,6.27,29.91,4.23,65.29-4.15,71.99-11.63,190.04-49.56,200.28l-9.31,30.42-59.77-6.44,.88-19.85s18.94,2.43-132.54,4.48c0,0-79.04,2.52-111.25-31.75"/>
        <path class="cls-40" d="M1053.21,636.57s-57.64,35.07-69.02,54.99l1.58-19.73s42.74-27.53,57.96-47.81l9.49,12.55Z"/>
        <path class="cls-40" d="M938.94,635.59s-21.6-.71-20.79,13.28l44.18,33.64,1.42-11.66s-20.83-10.42-34.5-27.27c0,0,9.17-1.24,9.68-7.99Z"/>
        <path class="cls-5" d="M966.41,745.09s-14.51,130.48-12.21,407.46"/>
        <ellipse class="cls-16" cx="978.98" cy="752.82" rx="3.45" ry="3.73"/>
        <ellipse class="cls-16" cx="970.24" cy="815.46" rx="3.45" ry="3.73"/>
        <ellipse class="cls-16" cx="965.93" cy="883.27" rx="3.45" ry="3.73"/>
        <ellipse class="cls-16" cx="964.73" cy="945.13" rx="3.45" ry="3.73"/>
        <path class="cls-5" d="M1085.41,823.49c1.58,51.64,18.36,133.11,18.36,133.11,0,0-15.74,25.24-15.74,185.57"/>
        <g>
          <rect class="cls-13" x="1011.59" y="1051.47" width="16.68" height="16.68" transform="translate(-448.7 978.62) rotate(-42.93)"/>
          <rect class="cls-40" x="999.46" y="1062.97" width="16.68" height="16.68" transform="translate(-459.78 973.44) rotate(-42.93)"/>
          <rect class="cls-13" x="988.1" y="1050.62" width="16.68" height="16.68" transform="translate(-454.41 962.39) rotate(-42.93)"/>
          <rect class="cls-13" x="1012.37" y="1027.86" width="16.68" height="16.68" transform="translate(-432.4 972.83) rotate(-42.93)"/>
          <rect class="cls-40" x="1000.24" y="1039.36" width="16.68" height="16.68" transform="translate(-443.49 967.65) rotate(-42.93)"/>
          <rect class="cls-13" x="988.87" y="1027.01" width="16.68" height="16.68" transform="translate(-438.12 956.6) rotate(-42.93)"/>
          <rect class="cls-13" x="1013.21" y="1004.39" width="16.68" height="16.68" transform="translate(-416.19 967.12) rotate(-42.93)"/>
          <rect class="cls-40" x="1001.08" y="1015.89" width="16.68" height="16.68" transform="translate(-427.28 961.94) rotate(-42.93)"/>
          <rect class="cls-13" x="989.72" y="1003.54" width="16.68" height="16.68" transform="translate(-421.91 950.89) rotate(-42.93)"/>
          <rect class="cls-13" x="1009.18" y="1122.29" width="16.68" height="16.68" transform="translate(-497.58 995.95) rotate(-42.93)"/>
          <rect class="cls-40" x="997.05" y="1133.79" width="16.68" height="16.68" transform="translate(-508.67 990.77) rotate(-42.93)"/>
          <rect class="cls-13" x="985.69" y="1121.44" width="16.68" height="16.68" transform="translate(-503.3 979.72) rotate(-42.93)"/>
          <rect class="cls-13" x="1009.96" y="1098.68" width="16.68" height="16.68" transform="translate(-481.29 990.16) rotate(-42.93)"/>
          <rect class="cls-40" x="997.83" y="1110.18" width="16.68" height="16.68" transform="translate(-492.37 984.98) rotate(-42.93)"/>
          <rect class="cls-13" x="986.47" y="1097.83" width="16.68" height="16.68" transform="translate(-487 973.93) rotate(-42.93)"/>
          <rect class="cls-13" x="1010.81" y="1075.21" width="16.68" height="16.68" transform="translate(-465.07 984.45) rotate(-42.93)"/>
          <rect class="cls-40" x="998.68" y="1086.71" width="16.68" height="16.68" transform="translate(-476.16 979.27) rotate(-42.93)"/>
          <rect class="cls-13" x="987.31" y="1074.36" width="16.68" height="16.68" transform="translate(-470.79 968.22) rotate(-42.93)"/>
          <rect class="cls-13" x="1014.06" y="980.91" width="16.68" height="16.68" transform="translate(-399.97 961.41) rotate(-42.93)"/>
          <rect class="cls-40" x="1001.93" y="992.42" width="16.68" height="16.68" transform="translate(-411.06 956.23) rotate(-42.93)"/>
          <rect class="cls-13" x="990.57" y="980.07" width="16.68" height="16.68" transform="translate(-405.69 945.18) rotate(-42.93)"/>
          <rect class="cls-13" x="1014.91" y="957.44" width="16.68" height="16.68" transform="translate(-383.76 955.7) rotate(-42.93)"/>
          <rect class="cls-40" x="1002.78" y="968.94" width="16.68" height="16.68" transform="translate(-394.84 950.51) rotate(-42.93)"/>
          <rect class="cls-13" x="991.41" y="956.59" width="16.68" height="16.68" transform="translate(-389.48 939.47) rotate(-42.93)"/>
          <rect class="cls-13" x="1015.75" y="934.05" width="16.68" height="16.68" transform="translate(-367.6 950.01) rotate(-42.93)"/>
          <rect class="cls-40" x="1003.62" y="945.55" width="16.68" height="16.68" transform="translate(-378.69 944.82) rotate(-42.93)"/>
          <rect class="cls-13" x="992.26" y="933.2" width="16.68" height="16.68" transform="translate(-373.32 933.78) rotate(-42.93)"/>
          <rect class="cls-13" x="1016.6" y="910.58" width="16.68" height="16.68" transform="translate(-351.38 944.29) rotate(-42.93)"/>
          <rect class="cls-40" x="1004.47" y="922.08" width="16.68" height="16.68" transform="translate(-362.47 939.11) rotate(-42.93)"/>
          <rect class="cls-13" x="993.1" y="909.73" width="16.68" height="16.68" transform="translate(-357.1 928.06) rotate(-42.93)"/>
          <rect class="cls-13" x="1017.44" y="887.19" width="16.68" height="16.68" transform="translate(-335.23 938.6) rotate(-42.93)"/>
          <rect class="cls-40" x="1005.31" y="898.69" width="16.68" height="16.68" transform="translate(-346.31 933.42) rotate(-42.93)"/>
          <rect class="cls-13" x="993.95" y="886.34" width="16.68" height="16.68" transform="translate(-340.94 922.37) rotate(-42.93)"/>
          <rect class="cls-13" x="1018.29" y="863.71" width="16.68" height="16.68" transform="translate(-319.01 932.89) rotate(-42.93)"/>
          <rect class="cls-40" x="1006.16" y="875.22" width="16.68" height="16.68" transform="translate(-330.09 927.71) rotate(-42.93)"/>
          <rect class="cls-13" x="994.79" y="862.87" width="16.68" height="16.68" transform="translate(-324.73 916.66) rotate(-42.93)"/>
          <rect class="cls-13" x="1019.13" y="840.32" width="16.68" height="16.68" transform="translate(-302.85 927.2) rotate(-42.93)"/>
          <rect class="cls-40" x="1007" y="851.83" width="16.68" height="16.68" transform="translate(-313.94 922.02) rotate(-42.93)"/>
          <rect class="cls-13" x="995.64" y="839.48" width="16.68" height="16.68" transform="translate(-308.57 910.97) rotate(-42.93)"/>
          <rect class="cls-13" x="1020.07" y="816.44" width="16.68" height="16.68" transform="translate(-286.33 921.44) rotate(-42.93)"/>
          <rect class="cls-40" x="1007.94" y="827.94" width="16.68" height="16.68" transform="translate(-297.42 916.26) rotate(-42.93)"/>
          <rect class="cls-13" x="996.57" y="815.59" width="16.68" height="16.68" transform="translate(-292.05 905.21) rotate(-42.93)"/>
          <rect class="cls-13" x="1020.84" y="792.83" width="16.68" height="16.68" transform="translate(-270.04 915.65) rotate(-42.93)"/>
          <rect class="cls-40" x="1008.71" y="804.33" width="16.68" height="16.68" transform="translate(-281.12 910.46) rotate(-42.93)"/>
          <rect class="cls-13" x="997.35" y="791.98" width="16.68" height="16.68" transform="translate(-275.75 899.42) rotate(-42.93)"/>
          <rect class="cls-13" x="1021.69" y="769.36" width="16.68" height="16.68" transform="translate(-253.83 909.93) rotate(-42.93)"/>
          <rect class="cls-40" x="1009.56" y="780.86" width="16.68" height="16.68" transform="translate(-264.91 904.75) rotate(-42.93)"/>
          <rect class="cls-13" x="998.2" y="768.51" width="16.68" height="16.68" transform="translate(-259.54 893.71) rotate(-42.93)"/>
          <rect class="cls-13" x="1022.54" y="745.88" width="16.68" height="16.68" transform="translate(-237.61 904.22) rotate(-42.93)"/>
          <rect class="cls-40" x="1010.41" y="757.38" width="16.68" height="16.68" transform="translate(-248.69 899.04) rotate(-42.93)"/>
          <rect class="cls-13" x="999.04" y="745.03" width="16.68" height="16.68" transform="translate(-243.32 887.99) rotate(-42.93)"/>
          <rect class="cls-13" x="1023.38" y="722.41" width="16.68" height="16.68" transform="translate(-221.39 898.51) rotate(-42.93)"/>
          <rect class="cls-40" x="1011.25" y="733.91" width="16.68" height="16.68" transform="translate(-232.48 893.33) rotate(-42.93)"/>
          <rect class="cls-13" x="999.89" y="721.56" width="16.68" height="16.68" transform="translate(-227.11 882.28) rotate(-42.93)"/>
          <rect class="cls-13" x="1024.23" y="699.02" width="16.68" height="16.68" transform="translate(-205.23 892.82) rotate(-42.93)"/>
          <rect class="cls-40" x="1012.1" y="710.52" width="16.68" height="16.68" transform="translate(-216.32 887.64) rotate(-42.93)"/>
          <rect class="cls-13" x="1000.73" y="698.17" width="16.68" height="16.68" transform="translate(-210.95 876.59) rotate(-42.93)"/>
          <rect class="cls-13" x="1025.07" y="675.54" width="16.68" height="16.68" transform="translate(-189.02 887.11) rotate(-42.93)"/>
          <rect class="cls-40" x="1012.95" y="687.05" width="16.68" height="16.68" transform="translate(-200.1 881.93) rotate(-42.93)"/>
          <rect class="cls-13" x="1001.58" y="674.7" width="16.68" height="16.68" transform="translate(-194.73 870.88) rotate(-42.93)"/>
          <rect class="cls-13" x="1025.87" y="652.15" width="16.68" height="16.68" transform="translate(-172.87 881.39) rotate(-42.93)"/>
          <rect class="cls-40" x="1013.74" y="663.65" width="16.68" height="16.68" transform="translate(-183.95 876.2) rotate(-42.93)"/>
          <polyline class="cls-40" points="1020.41 657.8 1022.43 660.05 1034.64 648.69 1034.05 648.06"/>
          <polygon class="cls-13" points="1010.29 671.43 1022.5 660.07 1020.41 657.8 1007.6 668.35 1010.29 671.43"/>
        </g>
        <g>
          <polyline class="cls-13" points="1087.98 1140.91 1097.68 1151.11 1108.34 1140.98 1098.21 1130.31 1087.97 1140.03"/>
          <polygon class="cls-40" points="1088.68 1130.03 1087.97 1140.03 1098.08 1130.39 1089.54 1121.38 1088.68 1130.03"/>
          <polyline class="cls-13" points="1089.59 1121.33 1098.2 1130.39 1108.87 1120.25 1098.73 1109.59 1090.02 1117.87"/>
          <rect class="cls-13" x="1111.42" y="1133.82" width="14.71" height="14.71" transform="translate(-478.35 1085.17) rotate(-43.56)"/>
          <rect class="cls-40" x="1101.16" y="1123.23" width="14.71" height="14.71" transform="translate(-473.88 1075.18) rotate(-43.56)"/>
          <rect class="cls-13" x="1111.94" y="1113.09" width="14.71" height="14.71" transform="translate(-463.92 1079.82) rotate(-43.56)"/>
          <rect class="cls-13" x="1132.13" y="1134.34" width="14.71" height="14.71" transform="translate(-473 1099.58) rotate(-43.56)"/>
          <rect class="cls-40" x="1121.87" y="1123.75" width="14.71" height="14.71" transform="translate(-468.53 1089.59) rotate(-43.56)"/>
          <rect class="cls-13" x="1132.65" y="1113.61" width="14.71" height="14.71" transform="translate(-458.58 1094.23) rotate(-43.56)"/>
          <rect class="cls-40" x="1142.58" y="1124.27" width="14.71" height="14.71" transform="translate(-463.19 1104.01) rotate(-43.56)"/>
          <polygon class="cls-13" points="1149.5 1142.05 1154.31 1146.02 1165.56 1137.61 1160.16 1131.91 1149.5 1142.05"/>
          <rect class="cls-13" x="1153.07" y="1114.22" width="14.71" height="14.71" transform="translate(-453.38 1108.47) rotate(-43.56)"/>
          <path class="cls-40" d="M1165.56,1137.61l-5.61-5.63,10.66-10.14,3.61,4.45s-5.63,8.93-8.67,11.32Z"/>
        </g>
        <path class="cls-37" d="M855.67,689.92c-36.81,20.31-53.72,93.24-53.72,93.24-8.68,23.29-22.72,50.73-22.72,50.73-2.29-21.74-38.05-94.6-38.05-94.6l-60,121.93s40.74,106.37,105.61,106.74c0,0,32.18,5.5,62.77-39.9"/>
        <path class="cls-37" d="M652.62,706.54l67.63-29.93,7.34,26.61s15.49,31.34,23.19,69.63c0,0-21.3,72.23-69.61,88.37,0,0-27.47-74.68-24.33-134.74l-4.22-19.95Z"/>
        <path class="cls-27" d="M703.99,685.49c-1.01-4.24-1.88-8.51-2.59-12.77l14.27-58.94-19.94-63.14s-8.63-5.58-9.73,9.14c-1.1,14.71,5,43.12,5,43.12,0,0-20.77-3.3-25.34-1.89-5.16,1.59-13.2,5.7-13.2,5.7,0,0-5.16,4.2-3.6,7.85,0,0-19.04,2.55,.97,25.23,0,0-5.72,34.53,12.38,50.22,0,0,.29,4.87,1.04,13.19"/>
        <path class="cls-6" d="M709.38,635.59s-.13-9.17-10.79-18.88c-5.05-4.6-20.48-8.57-20.48-8.57,0,0-10.85,5.59-2.43,13.67,8.42,8.08,13.33,13.2,13.33,13.2,0,0-33.17,15.84-7.45,38.94"/>
        <path class="cls-6" d="M663.68,601.98s-3.31,13.04,4.61,24.77c0,0,.57,9.2-9.33,6.35,0,0-7.59-7.54-10.1-18.54"/>
        <path class="cls-6" d="M658.97,633.1s1.36,11.95-9.13,6.68"/>
        <line class="cls-6" x1="678.1" y1="601.26" x2="678.1" y2="608.14"/>
        <path class="cls-6" d="M678.52,624.46s-.81,3-3.34,3.88c-4.24,1.48-6.88-1.59-6.88-1.59"/>
        <path class="cls-26" d="M966.8,585.41s-12.96-4-28.4,.38c0,0-13.34-2.67-25.35,0,0,0,1.33,21.54,21.54,26.31,20.21,4.77,32.6-14.11,32.22-26.69Z"/>
        <path class="cls-18" d="M963.56,586.94s.19,19.06-24.59,19.06c-22.51,0-22.69-16.97-22.69-16.97,0,0,25.35,1.14,47.28-2.1Z"/>
        <path class="cls-13" d="M960.49,587.21s-6.14,8.83-25.32,7.9c0,0-11.83,.59-16.79-5.7,0,0,24.72,.54,42.11-2.21Z"/>
        <path class="cls-5" d="M841.31,942.52s1.65-69.7,3.93-102.8"/>
      </g>
    </g>
  </g>
</svg>