<?xml version="1.0" encoding="UTF-8"?>
<svg xmlns="http://www.w3.org/2000/svg" xmlns:xlink="http://www.w3.org/1999/xlink" viewBox="0 0 1618.13 1903.49">
  <defs>
    <style>
      .cls-1, .cls-2, .cls-3, .cls-4, .cls-5, .cls-6, .cls-7, .cls-8, .cls-9, .cls-10, .cls-11, .cls-12 {
        fill: none;
      }

      .cls-2, .cls-3 {
        stroke-width: 1.5px;
      }

      .cls-2, .cls-3, .cls-13, .cls-4, .cls-5, .cls-14, .cls-15, .cls-16, .cls-17, .cls-6, .cls-7, .cls-8, .cls-9, .cls-10, .cls-11, .cls-12 {
        stroke-miterlimit: 10;
      }

      .cls-2, .cls-8, .cls-11 {
        stroke: #231f20;
      }

      .cls-3 {
        stroke: #a579b5;
      }

      .cls-18 {
        clip-path: url(#clippath);
      }

      .cls-19 {
        fill: #f8c184;
      }

      .cls-20, .cls-14, .cls-15 {
        fill: #fff;
      }

      .cls-21 {
        fill: #803435;
      }

      .cls-22 {
        fill: #9ecb54;
      }

      .cls-23 {
        fill: #8b5e3c;
      }

      .cls-24, .cls-17 {
        fill: #9054a2;
      }

      .cls-25 {
        fill: #301c12;
      }

      .cls-26 {
        fill: #be9e7d;
      }

      .cls-27 {
        fill: #be8c8c;
      }

      .cls-28 {
        fill: #bde4e0;
      }

      .cls-29 {
        fill: #bf6b6b;
      }

      .cls-30 {
        fill: #c4dd82;
      }

      .cls-31 {
        fill: #d1d3d4;
      }

      .cls-32, .cls-16 {
        fill: #dcbf97;
      }

      .cls-33 {
        fill: #231f20;
      }

      .cls-34 {
        fill: #0f3e5d;
      }

      .cls-35 {
        fill: #95b3b0;
      }

      .cls-36 {
        fill: #6ca442;
      }

      .cls-37 {
        fill: #808285;
      }

      .cls-38 {
        fill: #288348;
      }

      .cls-39 {
        fill: #288649;
      }

      .cls-40 {
        fill: #3c2415;
      }

      .cls-41 {
        fill: #3ba05e;
      }

      .cls-42 {
        fill: #3aa362;
      }

      .cls-43 {
        fill: #26130f;
      }

      .cls-13 {
        fill: #bd9154;
        stroke: #006838;
      }

      .cls-13, .cls-6 {
        stroke-width: 2px;
      }

      .cls-4 {
        stroke: #75308e;
        stroke-width: 5px;
      }

      .cls-5 {
        stroke-width: 10px;
      }

      .cls-5, .cls-16 {
        stroke: #754c29;
      }

      .cls-14 {
        stroke: #808285;
      }

      .cls-15, .cls-17 {
        stroke: #662d91;
      }

      .cls-6 {
        stroke: #fbb040;
      }

      .cls-7 {
        stroke: #0c3149;
      }

      .cls-9, .cls-10 {
        stroke: #fff;
      }

      .cls-10 {
        stroke-width: .3px;
      }

      .cls-11 {
        stroke-width: 1.2px;
      }

      .cls-12 {
        stroke: #3c2415;
        stroke-width: .5px;
      }
    </style>
    <clipPath id="clippath">
      <rect class="cls-1" x="283.73" width="1334.4" height="1001.62"/>
    </clipPath>
  </defs>
  <g id="fondo">
    <rect class="cls-28" x="281.73" y="2.18" width="1334.4" height="998.73"/>
    <rect class="cls-35" x="1347.92" y="2.35" width="268.19" height="1000.02"/>
    <line class="cls-5" x1="1347.92" y1="2.35" x2="1347.92" y2="1002.37"/>
  </g>
  <g id="Layer_1" data-name="Layer 1">
    <g class="cls-18">
      <g>
        <path class="cls-36" d="M353.25,844.41s-75.16-72.3-33.94-177.31c41.22-105.01,150.62-141.92,150.62-141.92,0,0-28.1,70.16-23.58,120.41,4.51,50.25-32.12,181.78-93.1,198.83Z"/>
        <path class="cls-41" d="M381.82,1059.55s13.53-109.45,128.54-141.15c115.01-31.7,215.62,37.48,215.62,37.48,0,0-77.19,20.71-116.86,56.39-39.66,35.68-174.21,88.08-227.31,47.28Z"/>
        <path class="cls-38" d="M301.3,1090.54s55.86-95.09,174.01-78.54c118.14,16.55,183.03,119.99,183.03,119.99,0,0-79.07-11.63-129.64,5.38-50.57,17.01-194.86,11.7-227.4-46.82Z"/>
        <path class="cls-39" d="M349.69,1065.56s27.45-92.5-53.67-158.17c-81.12-65.67-186.01-45.4-186.01-45.4,0,0,54.65,43.62,73.97,86.11,19.32,42.49,108.87,131.59,165.72,117.45Z"/>
        <path class="cls-42" d="M135.74,720.44s98.57-24.61,179.88,75.04c81.31,99.65,25.15,125.83,25.15,125.83,0,0-190.3-84.52-205.03-200.87Z"/>
        <line class="cls-13" x1="344.28" y1="1187.04" x2="344.28" y2="1113.93"/>
        <path class="cls-38" d="M365.6,1007.75s-55.62-88.22,9.59-180.27c65.21-92.05,180.27-101.64,180.27-101.64,0,0-44.11,61.37-51.78,111.23-7.67,49.86-74.79,168.77-138.08,170.68Z"/>
        <path class="cls-36" d="M344.16,1101.45s-13.53-109.45-128.54-141.15C100.62,928.59,0,997.78,0,997.78c0,0,77.19,20.71,116.86,56.39,39.66,35.68,174.21,88.08,227.31,47.28Z"/>
        <path class="cls-41" d="M355.47,1081.63s-70.25-85.02-184.27-49.93c-114.02,35.09-161.67,147.52-161.67,147.52,0,0,76.22-24.04,128.85-15.27,52.63,8.77,194.25-19.38,217.09-82.32Z"/>
        <path class="cls-22" d="M480.92,865.72s-101.26,8.21-146.42,128.63c-45.16,120.42,16.42,127.26,16.42,127.26,0,0,153.26-140.95,130-255.9Z"/>
        <path class="cls-30" d="M253.49,684.1s-5.33,103.9,94.57,185.15c0,0,63.94-26.64-7.99-130.54,0,0-35.96-49.28-86.58-54.61Z"/>
        <path class="cls-19" d="M167.81,1180.21h360.18s12.51,197.6-65.03,315.16H245.35s-80.04-67.53-77.54-315.16Z"/>
        <path class="cls-20" d="M175.3,1319.5s3.84,30.74,11.53,49.95c0,0,154.97,43.55,324.03,0,0,0,5.12-15.37,10.25-52.51,0,0-167.78,39.7-345.81,2.56Z"/>
        <path class="cls-20" d="M173.17,1288.37s-.66,13.24,1.99,16.55c0,0,178.56,44.87,347.62,1.32,0,0-3.14,21.25,1.99-15.89,0,0-178.11,47.67-351.59-1.99Z"/>
      </g>
      <g>
        <polygon class="cls-26" points="908.41 783.08 915.19 893.21 930.63 1003.27 866.94 1003.27 867.21 862.16 867.21 790.19 908.41 783.08"/>
        <path class="cls-32" d="M819.25,1633.78c0,66.55,20.63,69.83,20.63,69.83,33.94,17.34,68.08,28.36,68.08,28.36,0,0,38.67,29.84-49.12,20.62-100.97-10.6-100.46-36.33-100.46-36.33,0,0,19.12-21.09,5.53-72.17l55.34-10.31"/>
        <path class="cls-37" d="M754.34,1756.65s0,4.77,2.05,18.13l150.56,15.27s45.07-.95,47.11-24.81"/>
        <path class="cls-31" d="M758.43,1712.76s-12.29,20.04-4.1,43.89l143.39,20.04s39.94,6.68,56.33-11.45c16.39-18.13-100.37-55.34-100.37-55.34,0,0-46.09,40.07-95.25,2.86Z"/>
        <polyline class="cls-9" points="897.4 1727.24 867.07 1740.3 862.52 1713.82 828.78 1728.3"/>
        <polyline class="cls-9" points="839.75 1709.79 853.92 1737.98 875.71 1720.45 891.51 1751.77"/>
        <path class="cls-26" d="M695.25,545.78s22.02,64.72-15.73,75.05c0,0,8.17,97.73,98.46,100.55,0,0,85.52-6.06,44.69-93.29l-23.21-12.44c-.37-16.64,1.92-19.29,1.92-19.29l-97.09-52.61"/>
        <path class="cls-32" d="M716.87,1649.14c0,66.55,20.63,69.83,20.63,69.83,33.94,17.34,68.08,28.36,68.08,28.36,0,0,38.67,29.84-49.12,20.62-100.97-10.6-100.46-36.33-100.46-36.33,0,0,19.12-21.09,5.53-72.17l55.34-10.31"/>
        <path class="cls-26" d="M826.31,430.82s8.42,16.03,7.07,54.04c0,0-.18,14.17,3.65,22.23,0,0,4.48,30.95-5.89,54.51-10.38,23.57-31.94,38.25-31.94,38.25,0,0-21.38,8.54-39.24,1.83-17.86-6.71-42.98-9.29-63.06-51.38,0,0-12.26,11.88-22.25-8.59-9.99-20.47-20.95-27.08-13.14-45.43,7.82-18.35,29.11,16.35,29.11,16.35,0,0-17.32-33.17-8.37-67.69,8.95-34.53,51.29-59.99,51.29-59.99,0,0,61.46-21.55,92.77,45.87Z"/>
        <path class="cls-33" d="M763.98,474.55s-24.26-3.12-44.27,6.09c0,0,8.83-14,44.3-11.84,0,0,6.14,2.99-.03,5.74Z"/>
        <path class="cls-33" d="M836.44,467.65c-17.2,.06-28.75,4.33-28.75,4.33-6.63-1.28-1.34-5.59-1.34-5.59,10.61-3.18,23-3.91,29.6-3.86,0,0,1.42,5.12,.48,5.12Z"/>
        <circle class="cls-33" cx="748.69" cy="494" r="7.22"/>
        <path class="cls-27" d="M762.73,557.74s10.45-7.96,24.9-.4c0,0,8.77-6.75,21.15-.13,0,0-4.38,10.8-19.15,12.29-7.03,.71-19.13,.21-26.89-11.75Z"/>
        <path class="cls-11" d="M797.71,512.54s15.7,10.31,1.19,19.2"/>
        <path class="cls-43" d="M798.26,600.11s-24.52,8.41-44.89-.85c0,0-11.61-1.81-31.26-14.52,0,0,10.78,17.46,48.01,22.49,0,0,11.69,1.45,27.61-.1,0,0,2.33-4.8,.54-7.03Z"/>
        <path class="cls-24" d="M788.84,683.47s60.55-.47,11.26-67.82l61.01,25.8s34.63,18.15,36.08,55.79l14.43,84.69-38.71,15.42,1.91,102.88,14.73,108.2s-99.87,47.07-280.98,.69l-4.83-21.27c37.6-137.06,30.81-191.13,30.81-191.13l-22.36-31.74s-25.89-100.99,22.78-125.73c56.33-28.63,53.96-24.15,53.96-24.15,0,0,34.65,69.95,99.91,68.36Z"/>
        <path class="cls-34" d="M608.57,1009.12s-32.68,60.52-12.01,124.71c0,0,46.63,235.78,46.63,264.67,0,0-16.29,136.5,2.66,255.25,0,0,42.85,31.38,84.2,.89l18.12-129.25,5.81,117.72s31.58,26.95,81.54-3.55l42.54-223.34s11.42-29.27,7.98-54.95l3.52-352.85s-99.56,46.73-280.98,.69Z"/>
        <path class="cls-37" d="M651.96,1772s0,4.77,2.05,18.13l150.56,15.27s45.07-.95,47.11-24.81"/>
        <path class="cls-31" d="M656.05,1728.12s-12.29,20.04-4.1,43.89l143.39,20.04s39.94,6.68,56.33-11.45c16.39-18.13-100.37-55.34-100.37-55.34,0,0-46.09,40.07-95.25,2.86Z"/>
        <polyline class="cls-9" points="795.02 1742.59 764.69 1755.66 760.14 1729.17 726.4 1743.65"/>
        <polyline class="cls-9" points="737.37 1725.15 751.54 1753.34 773.33 1735.8 789.13 1767.12"/>
        <path class="cls-11" d="M664.13,515.59s5.38-10.12,13.35-1.08c7.97,9.04,8.66,12.24,8.66,12.24,0,0-11.57-14.47-14.39-1.7"/>
        <path class="cls-7" d="M748.16,1525.39s20.92-103.28,15.93-175.39l-9.99-200.07s13.99-2.74,28.06-16.86"/>
        <path class="cls-3" d="M794.05,478.05s-10.16-5.38-16.29,3.08"/>
        <path class="cls-3" d="M721.04,484.71s25.4-16.32,57.24-3.31c0,0-1.08,28.55-18.65,29.9-17.57,1.35-29.89,9.14-38.59-26.59Z"/>
        <line class="cls-3" x1="721.04" y1="484.71" x2="674.42" y2="491.72"/>
        <path class="cls-4" d="M688.92,615.11s39.16,73.97,99.91,68.36c0,0,64.05-11.06,11.26-67.82"/>
        <g>
          <path class="cls-20" d="M734.02,495.23s-.1-.71,.35-1.37c1.49-2.19,5.02-6.4,11.35-7.24,7.09-.94,11.88,5.19,13.53,7.39,.28,.38,.31,.74,.31,.74,0,0,.08,.39-.12,.7-.96,1.46-4.24,5.63-10.94,6.63-3.99,.59-9.88-.81-14.08-5.77-.29-.35-.37-.82-.4-1.08Z"/>
          <circle class="cls-43" cx="748.81" cy="494.53" r="7.39"/>
          <circle class="cls-20" cx="743.98" cy="493.66" r="2.03"/>
          <path class="cls-11" d="M759.69,493.96s-10.88-15.77-25.6-.13"/>
        </g>
        <g>
          <path class="cls-20" d="M808.5,489.25s-.19-.64,.12-1.31c1.05-2.22,3.7-6.57,9.39-8.24,6.37-1.87,11.63,3.09,13.45,4.87,.31,.31,.39,.64,.39,.64,0,0,.13,.35-.02,.66-.67,1.48-3.09,5.76-9.1,7.62-3.57,1.11-9.18,.65-13.72-3.3-.32-.28-.46-.7-.52-.94Z"/>
          <circle class="cls-43" cx="821.96" cy="486.52" r="6.83"/>
          <circle class="cls-20" cx="817.23" cy="486.57" r="1.91"/>
          <path class="cls-11" d="M831.63,484.77s-11.98-13.98-23.13,3.5"/>
        </g>
        <line class="cls-15" x1="649.44" y1="800.49" x2="658.84" y2="734.44"/>
        <line class="cls-15" x1="872.92" y1="797.36" x2="863.56" y2="724.39"/>
        <path class="cls-26" d="M640.4,811.2s72.86,99.9,125.86,84.59l150.23-29.85s23.12-3.29,35.27,4.65c0,0,26.67,11.81,42.85-.04,0,0,35.05-8.26,52.03-44.21,0,0-5.91-11.39-20.97,3.75,0,0-19.09,17.76-39.25,5.76,0,0-6.05-8.61,6.88-7.6,12.93,1.01,33.74,.5,32.14-10.7-1.59-11.21-22.99-7.48-22.99-7.48,0,0-18.6-.33-31.89-2.75,0,0-23.8-.08-37.47,13.26l-166.16,.92-52.27-66.71s-64.62,15.51-74.28,56.4Z"/>
        <path class="cls-17" d="M634.96,639.26s-45.21,13.05-46.32,70.84c-1.11,57.78,44.45,103.35,44.45,103.35,0,0,68.9-31.11,86.68-64.45,0,0-36.26-95.01-84.8-109.73Z"/>
        <line class="cls-16" x1="872.75" y1="819.83" x2="911.43" y2="818.95"/>
        <line class="cls-16" x1="873.88" y1="873.77" x2="916.49" y2="865.95"/>
        <path class="cls-11" d="M808.77,557.2s-15.63,13-49.78-.59"/>
        <path class="cls-25" d="M853.52,652.11c12.45,1.62,5.95,.47,25.68,.72,19.73,.25,6.03-21.22,6.03-21.22,26.96,15.39,26.32-3.28,26.32-3.28,17.47,8.33,17.9-9.44,17.9-9.44,8.8-.77,8.29-6.63,4.42-17.13-3.87-10.5,10.37-16.67,10.37-16.67,21.09-6.76,4.16-20.07,4.16-20.07,31.63-21.48,6.03-21.22,6.03-21.22,11.82-22.7-7.02-24.02-7.02-24.02,30.73-20.41,1.36-29.68,1.36-29.68,16.32-16.2-10.38-28.65-10.38-28.65,37.62-31.85-8.42-28.82-8.42-28.82,8.29-29.29-13.69-21.47-13.69-21.47,13.34-27.76-19.18-27.89-19.18-27.89-4.17-25.25-44.01-18.83-44.01-18.83-3.49-40.09-34.78-14.7-34.78-14.7-5.83-10.33-13.26,6.08-13.26,6.08-1.02-11.73-13.35-17.56-13.35-17.56-7.14-14.16-17.77-.42-17.77-.42-34.52-11.77-59.09,22.88-59.09,22.88,0,0-23.26-29.5-49.91-7.47,0,0-12.07-2.89-9.99,9.74,0,0-25.6-22.4-27.33,14.2,0,0-31.16-7.14-21.08,29.42,0,0-16.79-.51-13.94,20.92,0,0-21.26,4.81-10.67,24.58,0,0-28.82,8.42-17.6,24.19,0,0-8.42,16.5,2.85,21.43,0,0-14.88,10.16,4.89,22.23,0,0-22.06,6.85-9.6,25.47,0,0-5.31,18.2,11.74,21.64,0,0-14.28,17.01,.9,21.6,0,0-14.28,17.01,13.52,19.51,0,0-5.7,2.47,7.32,16.11,0,0,5.7,20.19,13.06,25.46,0,0,18.16,16.15,14.07-8.12,0,0,7.53,29.89,26.19,6.59,0,0,.42-17.77,9.86,.13,9.44,17.9,15.05,14.45,16.88,1.49,0,0,13.61,20.49,25.93,3.65,0,0-9.39,16.58,14.54,8.59,0,0,15.5-7.77-.62-26.64,0,0,11.46-12.58-5.23-21.27-16.69-8.68-4.79-10.69-4.79-10.69,0,0,7.21-5.94-3.46-17.56-10.67-11.62,0,0,0,0,0,0,3.44-7.63-6.11-35.48-9.55-27.85,0,0,0,0,0,0-16.52,10.64-29.25-21.31-9.91-24.85-11.5-28.26-.51-35.1,8.82-5.49,23.79,18.64,23.79,18.64,0,0,6.67-5.46-.35-14.02-7.02-8.56-4.61-14.08-4.61-14.08,0,0,10.87-8.19,4.87-21.67-6-13.48,1.19-14.1,1.19-14.1,0,0,19.21-1.19,15.58-20.67,0,0,14.5,.19,11.08-16.9,0,0,12.86,9.02,24.14-5.48,11.29-14.5,14.58,1.14,14.58,1.14,0,0-.5,16.46,17.5,12.48,18-3.98,16.5,.98,16.5,.98,0,0-.5,16.46,13.19,12.85,0,0,3.61,13.69,15.52,6.37,11.92-7.31,11.65,6.23,11.65,6.23,0,0,5.03,29.98,2.01,45.21-3.02,15.23,0,0,0,0,0,0,2.15,10.96,3.8,17.31,1.65,6.35,9.63,59.41-39.59,92.83-49.22,33.41,0,0,0,0,0,0-2.83,17.3,.46,21.84"/>
        <path class="cls-3" d="M793.94,477.52s25.4-16.32,57.24-3.31c0,0-1.08,28.55-18.65,29.9-17.57,1.35-29.89,9.14-38.59-26.59Z"/>
      </g>
      <g>
        <polygon class="cls-26" points="990.43 605.4 992.67 767.53 950.77 1003.63 1007.43 1002.87 1058.27 682.25 990.43 605.4"/>
        <path class="cls-32" d="M917.2,865.46s23.12-3.29,35.27,4.65c0,0,26.67,11.81,42.85-.04,0,0,35.05-8.26,52.03-44.21,0,0-5.91-11.39-20.97,3.75,0,0-19.09,17.76-39.25,5.76,0,0-6.05-8.61,6.88-7.6,12.93,1.01,33.74,.5,32.14-10.7-1.59-11.21-22.99-7.48-22.99-7.48,0,0-18.6-.33-31.89-2.75,0,0-23.8-.08-37.47,13.26"/>
        <path class="cls-26" d="M1269.57,302.93s-5.94,59.5,10.07,94.91c0,0,14.65,165.6-119.9,169.81,0,0-100.31-27.03-39.46-157.02,0,0,24.21-9.45,24.73-32.87,.55-24.8-3.2,.42-3.2,.42l127.76-75.24"/>
        <path class="cls-23" d="M1252.63,1816.44s5.13,44.14-23.05,41.97c0,0-35.16,6.52-61.65,3.2,0,0-22.48-1.48-39.74,7.94,0,0-100.92,27.15-150.48-16.62,0,0-4.23-5.94-.17-13.54"/>
        <path class="cls-26" d="M1232.25,1718.9l4.25,28.84s13.45,75.48-117.11,83.91c-113.52,7.33-61.82-31.5-61.82-31.5,0,0,33.54-23.54,78.33-45.39,0,0,12.9-4.67,14.66-19.36,2.26-18.86,53.97,7.1,81.68-16.49Z"/>
        <path class="cls-43" d="M1235.16,1745.07s9.04,14.82-12.9,27.23c-21.94,12.41-57.12,44.05-120.99,55.13,0,0-53.97,5.9-43.69-27.27,0,0-22.34,11-61.34,21.2-39,10.2-7.59,32.58-7.59,32.58,0,0,55.64,30.04,136.58,6.53,0,0,32.9-18.38,74.39-22.43,41.49-4.05,53.01-21.6,53.01-21.6,0,0,6.51-19.64-7.62-44.45,0,0-2.53-5.23-2.2-12.17,0,0,5.07-9.04-7.65-14.75Z"/>
        <path class="cls-23" d="M1364.48,1827.78s7.74,46.91-22.49,46.03c0,0-37.24,8.76-65.72,6.57,0,0-24.1-.44-42.06,10.51,0,0-106.46,34.17-161.66-10.08,0,0-4.82-6.13-.88-14.46"/>
        <path class="cls-26" d="M1337.73,1724.59l6.02,30.6s18.23,79.97-120.87,95.65c-120.94,13.63-67.67-30.5-67.67-30.5,0,0,34.64-26.87,81.39-52.51,0,0,13.55-5.66,14.68-21.44,1.45-20.27,58.04,4.83,86.45-21.8Z"/>
        <path class="cls-34" d="M1404.13,910.92s88.35,189.22,4.43,351.06l-29.31,131.04s-21.79,55.04-13.76,138.75c5.11,53.24-7.59,128.63-21.08,199.06,0,0-35.75,36.94-99.21,6.88,0,0-53.68,22.08-113.62-6.39l-97.1-230.95s-25.62-40.16-25.62-82.12c0,0-19.89-295.43,4.09-485.74,0,0,163.34,113.89,391.18-21.59Z"/>
        <path class="cls-26" d="M1258.93,254.21s-14.81-124.54-127.19-124.81c0,0-79.61,6.4-65.84,118.45,0,0,5.78,17.7,3.49,27.51,0,0-4.29,25.11,9.53,47.35,20.69,33.29,40.15,56.79,40.15,56.79,0,0,12.12,15.72,39.95,13.9,0,0,19.5-2.08,43.13-19.97,0,0,60.67-33.48,54.58-70.18,0,0,28.91,16.17,37.79-28.51,0,0,5.99-61.36-35.6-20.53Z"/>
        <path class="cls-43" d="M1153.44,223.91s36.79-15.45,55.41-4.69c0,0-14.86-18.61-57.21-4.27,0,0-7.08,6.5,1.8,8.96Z"/>
        <path class="cls-43" d="M1061.51,222.41c.74-2.04,20.06-3.41,37.94-.56,0,0,8.07,5.22-.27,9.13,0,0-32.54-9.71-37.11,.88,0,0-2.39-4.42-.56-9.45Z"/>
        <path class="cls-11" d="M1114.99,279.98s-13.56,24.36,13.7,24.8"/>
        <path class="cls-11" d="M1289.78,262.69s-11.97-25.11-28.36,18.3c0,0,15.36-19.85,19.7-4.32"/>
        <path class="cls-43" d="M1142.79,392.16s9.26,7.2,38.2-5.79c0,0,25.34-10.93,45.23-29.89,0,0-24.53,32.32-60.76,39.93,0,0-9.52,3.73-23.77-.04,0,0,2.1-.41,1.1-4.22Z"/>
        <path class="cls-8" d="M1245.21,1737.72l-70.08-274.69s-8.93-53.61-4.47-122.86l8.93-192.1s-12.51-2.63-25.1-16.18"/>
        <path class="cls-43" d="M1342.17,1752.4s10.41,15.37-12.4,29.75c-22.81,14.38-58.79,50-126.48,65.09,0,0-57.37,9.06-48.08-26.91,0,0-23.31,12.89-64.47,25.79-41.16,12.89-6.45,35.21-6.45,35.21,0,0,61,29.26,146.29,0,0,0,34.22-21.32,78.35-27.77,44.14-6.45,55.54-25.79,55.54-25.79,0,0,5.95-21.32-10.41-47.11,0,0-2.98-5.46-2.98-12.89,0,0,4.96-9.92-8.93-15.37Z"/>
        <path class="cls-10" d="M1070.91,1881.93s-7.77-32.03,19.83-35.8c24.37-3.33,64.47-25.79,64.47-25.79,0,0,44.06-33.32,58.89-40.15,0,0,24.95-14.2,29.35-16.2"/>
        <g>
          <path class="cls-20" d="M1195.29,243.73s-.03-.83-.68-1.48c-2.13-2.18-7.01-6.22-14.36-5.87-8.23,.39-12.4,8.33-13.81,11.16-.24,.49-.2,.9-.2,.9,0,0,0,.46,.28,.77,1.39,1.46,5.96,5.51,13.76,5.26,4.64-.15,11.03-2.95,14.77-9.43,.26-.45,.25-1.01,.23-1.31Z"/>
          <circle class="cls-43" cx="1178.39" cy="245.99" r="8.52"/>
          <circle class="cls-20" cx="1183.48" cy="241.68" r="2.34"/>
          <path class="cls-2" d="M1165.95,247.58s9.09-20.11,28.99-5.41"/>
        </g>
        <g>
          <path class="cls-20" d="M1099.76,255.23s.09-.77-.42-1.48c-1.67-2.33-5.63-6.78-12.51-7.51-7.71-.82-12.72,5.97-14.44,8.4-.3,.42-.31,.81-.31,.81,0,0-.07,.43,.16,.75,1.08,1.56,4.76,5.98,12.04,6.86,4.34,.53,10.68-1.16,15.08-6.66,.31-.38,.38-.9,.4-1.18Z"/>
          <circle class="cls-43" cx="1083.71" cy="254.89" r="7.98"/>
          <circle class="cls-20" cx="1089.31" cy="251.73" r="2.24"/>
          <path class="cls-2" d="M1072.23,254.89s10.85-18.56,27.32-.8"/>
        </g>
        <path class="cls-20" d="M1279.64,397.84s8.59,18.95,58.38,32.65c91,25.03,100.61,172.23,100.61,172.23,0,0,.26,36.95-84.41,52.3l51.33,255.33s-95.42,78.7-248.88,65.91c0,0-102.31-6.89-151.49-50.17,0,0,20.66-129.85,21.64-224.29,0,0-23.61-18.69-22.63-63.94l-13.77-32.46,11.8-92.47s9.84-61.97,75.75-87.55c0,0,24.59-4.92,42.3-14.76,0,0-16.02,50.85,2.61,79.35,0,0,39.71,52.14,128.25,0,0,0,39.46-31.79,28.51-92.14Z"/>
        <line class="cls-14" x1="1004.2" y1="637.87" x2="1011.11" y2="564.49"/>
        <line class="cls-14" x1="1329.7" y1="648.34" x2="1329.42" y2="587.32"/>
        <path class="cls-29" d="M1183.93,317.49s-17.06-.95-35.25,7.94c0,0-17.22,.61-31.54,6.72,0,0,6.69,23.26,32.94,23.13,26.25-.13,37.26-24.1,33.85-37.79Z"/>
        <path class="cls-21" d="M1180.25,320.02s4.69,20.84-26.14,27.41c-28,5.96-32.18-12.59-32.18-12.59,0,0,31.81-5.46,58.32-14.82Z"/>
        <path class="cls-20" d="M1176.6,321.07s-5.6,11.19-29.68,15.27c0,0-14.58,3.78-22.2-1.72,0,0,30.87-5.97,51.87-13.54Z"/>
        <path class="cls-26" d="M1329.7,648.34l-4.03,115.84s-113.9,13.22-197.22,31.86l-2.17,65.08s202.17,30.72,277.73,7.38c0,0,38.45-11.2,38.89-93.35,.55-102.1-4.26-172.43-4.26-172.43,0,0-43.28,60.77-108.94,45.61Z"/>
        <path class="cls-26" d="M1128.44,796.04l-10.7,1.78-96.3-32.1-64.2,13.38-29.43,38.34s0,16.94,21.4-1.78l1.78,24.08s7.13,17.83,16.94,1.78l10.7,21.4s8.92,12.48,14.27-2.68l11.59,24.97s16.05-3.57,12.48-22.29l54.39,8.03,54.9-9.82,2.17-65.08Z"/>
        <path class="cls-12" d="M998.64,787.71s-39.42,2.25-45.05,13.51c-5.63,11.26-4.38,14.44-4.38,14.44"/>
        <path class="cls-12" d="M967.94,841.52s-3.09-20.59,13.81-25.09c16.89-4.5,28.16-8.45,28.16-8.45"/>
        <path class="cls-12" d="M992.9,860.24s-15.1-15.1,2.35-21.86c17.46-6.76,20.84-2.82,20.84-2.82"/>
        <path class="cls-40" d="M1110.84,143.13s81.51,127.15,184.65,120.68c0,0-6.12,45.37-37.44,38.06,0,0-12.44,62.44,19.21,94.03,0,0,40.21,30.06,70.35,39.4,28.22,8.74,54.62,40.84,54.62,40.84,0,0-55.94-63.77-59.75-175.36-3.81-111.59-61.33-168.23-61.33-168.23,0,0-74.7-96.21-170.78-34.44,0,0-53.73,6.33-72.95,59.57-11.12,30.79-4.79,85.88,.72,129.84,0,0,11.07,106.29,60.01,133.52,0,0,43.68-2.69,46.74-29.03,0,0-10.97-.44-23.67-13.88-17.33-18.34-29.81-35.8-42.83-57.35,0,0-14.05-21.46-8.9-51.38,0,0,1.31-15.63-3.93-24.26,0,0-11.79-64.07,45.28-102.01"/>
        <path class="cls-6" d="M1270.37,282.41s17.45,22.35,2.08,38.14c-15.36,15.79-9.58-20.14-9.58-20.14"/>
      </g>
    </g>
  </g>
</svg>