<svg xmlns="http://www.w3.org/2000/svg" xmlns:xlink="http://www.w3.org/1999/xlink" width="1200" zoomAndPan="magnify" viewBox="0 0 900 675.000002" height="900" preserveAspectRatio="xMidYMid meet" version="1.0"><defs><clipPath id="8f7c23f737"><path d="M 0.664062 0 L 899.332031 0 L 899.332031 674 L 0.664062 674 Z M 0.664062 0 " clip-rule="nonzero"/></clipPath><clipPath id="1f5ed79346"><path d="M 0.664062 1 L 899 1 L 899 674 L 0.664062 674 Z M 0.664062 1 " clip-rule="nonzero"/></clipPath><clipPath id="7cc35c2414"><path d="M 717 1 L 899 1 L 899 674 L 717 674 Z M 717 1 " clip-rule="nonzero"/></clipPath><clipPath id="f8eb640518"><path d="M 713 0 L 721 0 L 721 674 L 713 674 Z M 713 0 " clip-rule="nonzero"/></clipPath><clipPath id="cc36a8573f"><path d="M 64 614 L 298 614 L 298 674 L 64 674 Z M 64 614 " clip-rule="nonzero"/></clipPath><clipPath id="cd9c8c7459"><path d="M 0.664062 579 L 47 579 L 47 674 L 0.664062 674 Z M 0.664062 579 " clip-rule="nonzero"/></clipPath><clipPath id="1e428609bb"><path d="M 0.664062 484 L 50 484 L 50 623 L 0.664062 623 Z M 0.664062 484 " clip-rule="nonzero"/></clipPath><clipPath id="0b74f43a63"><path d="M 38 490 L 182 490 L 182 674 L 38 674 Z M 38 490 " clip-rule="nonzero"/></clipPath><clipPath id="44bd530208"><path d="M 0.664062 642 L 40 642 L 40 674 L 0.664062 674 Z M 0.664062 642 " clip-rule="nonzero"/></clipPath><clipPath id="09d366b7e2"><path d="M 21 584 L 134 584 L 134 674 L 21 674 Z M 21 584 " clip-rule="nonzero"/></clipPath><clipPath id="7d330ad980"><path d="M 0.664062 461 L 60 461 L 60 587 L 0.664062 587 Z M 0.664062 461 " clip-rule="nonzero"/></clipPath><clipPath id="388f0569a9"><path d="M 392 528 L 436 528 L 436 674 L 392 674 Z M 392 528 " clip-rule="nonzero"/></clipPath><clipPath id="7680d1d193"><path d="M 214 415 L 423 415 L 423 674 L 214 674 Z M 214 415 " clip-rule="nonzero"/></clipPath><clipPath id="5f61923416"><path d="M 448 408 L 522 408 L 522 674 L 448 674 Z M 448 408 " clip-rule="nonzero"/></clipPath><clipPath id="cb87ad4781"><path d="M 482 614 L 783 614 L 783 674 L 482 674 Z M 482 614 " clip-rule="nonzero"/></clipPath></defs><g clip-path="url(#8f7c23f737)"><path fill="#ffffff" d="M 0.664062 0 L 899.335938 0 L 899.335938 674 L 0.664062 674 Z M 0.664062 0 " fill-opacity="1" fill-rule="nonzero"/><path fill="#ffffff" d="M 0.664062 0 L 899.335938 0 L 899.335938 674 L 0.664062 674 Z M 0.664062 0 " fill-opacity="1" fill-rule="nonzero"/></g><g clip-path="url(#1f5ed79346)"><path fill="#bde4e0" d="M -2.863281 1.539062 L 898.179688 1.539062 L 898.179688 675.738281 L -2.863281 675.738281 Z M -2.863281 1.539062 " fill-opacity="1" fill-rule="nonzero"/></g><g clip-path="url(#7cc35c2414)"><path fill="#95b3b0" d="M 717.074219 1.65625 L 898.167969 1.65625 L 898.167969 676.722656 L 717.074219 676.722656 Z M 717.074219 1.65625 " fill-opacity="1" fill-rule="nonzero"/></g><g clip-path="url(#f8eb640518)"><path stroke-linecap="butt" transform="matrix(0.675243, 0, 0, 0.675055, -193.099983, 0.0680467)" fill="none" stroke-linejoin="miter" d="M 1347.920818 2.352703 L 1347.920818 1002.369877 " stroke="#754c29" stroke-width="10" stroke-opacity="1" stroke-miterlimit="10"/></g><path fill="#6ca442" d="M 45.429688 570.089844 C 45.429688 570.089844 -5.320312 521.285156 22.511719 450.398438 C 50.34375 379.507812 124.21875 354.59375 124.21875 354.59375 C 124.21875 354.59375 105.242188 401.957031 108.292969 435.875 C 111.339844 469.796875 86.605469 558.589844 45.429688 570.097656 Z M 45.429688 570.089844 " fill-opacity="1" fill-rule="nonzero"/><g clip-path="url(#cc36a8573f)"><path fill="#3ba05e" d="M 64.722656 715.324219 C 64.722656 715.324219 73.855469 641.4375 151.515625 620.039062 C 229.175781 598.640625 297.113281 645.339844 297.113281 645.339844 C 297.113281 645.339844 244.992188 659.320312 218.203125 683.40625 C 191.425781 707.492188 100.570312 742.863281 64.714844 715.324219 Z M 64.722656 715.324219 " fill-opacity="1" fill-rule="nonzero"/></g><g clip-path="url(#cd9c8c7459)"><path fill="#288649" d="M 43.027344 719.378906 C 43.027344 719.378906 61.5625 656.9375 6.785156 612.605469 C -47.988281 568.273438 -118.816406 581.957031 -118.816406 581.957031 C -118.816406 581.957031 -81.914062 611.40625 -68.867188 640.085938 C -55.824219 668.769531 4.644531 728.917969 43.03125 719.371094 Z M 43.027344 719.378906 " fill-opacity="1" fill-rule="nonzero"/></g><g clip-path="url(#1e428609bb)"><path fill="#3aa362" d="M -101.441406 486.40625 C -101.441406 486.40625 -34.882812 469.792969 20.019531 537.0625 C 74.925781 604.328125 37.003906 622.003906 37.003906 622.003906 C 37.003906 622.003906 -91.496094 564.945312 -101.441406 486.40625 Z M -101.441406 486.40625 " fill-opacity="1" fill-rule="nonzero"/></g><g clip-path="url(#0b74f43a63)"><path fill="#288348" d="M 53.769531 680.355469 C 53.769531 680.355469 16.210938 620.800781 60.246094 558.664062 C 104.277344 496.523438 181.96875 490.050781 181.96875 490.050781 C 181.96875 490.050781 152.1875 531.476562 147.007812 565.136719 C 141.828125 598.792969 96.503906 679.066406 53.769531 680.355469 Z M 53.769531 680.355469 " fill-opacity="1" fill-rule="nonzero"/></g><g clip-path="url(#44bd530208)"><path fill="#6ca442" d="M 39.292969 743.605469 C 39.292969 743.605469 30.15625 669.722656 -47.503906 648.324219 C -125.15625 626.917969 -193.101562 673.625 -193.101562 673.625 C -193.101562 673.625 -140.976562 687.605469 -114.191406 711.691406 C -87.410156 735.777344 3.441406 771.148438 39.296875 743.605469 Z M 39.292969 743.605469 " fill-opacity="1" fill-rule="nonzero"/></g><g clip-path="url(#09d366b7e2)"><path fill="#9ecb54" d="M 131.636719 584.476562 C 131.636719 584.476562 63.261719 590.019531 32.769531 671.308594 C 2.273438 752.597656 43.855469 757.214844 43.855469 757.214844 C 43.855469 757.214844 147.34375 662.066406 131.636719 584.46875 Z M 131.636719 584.476562 " fill-opacity="1" fill-rule="nonzero"/></g><g clip-path="url(#7d330ad980)"><path fill="#c4dd82" d="M -21.933594 461.871094 C -21.933594 461.871094 -25.53125 532.011719 41.925781 586.859375 C 41.925781 586.859375 85.101562 568.875 36.53125 498.738281 C 36.53125 498.738281 12.25 465.472656 -21.933594 461.875 Z M -21.933594 461.871094 " fill-opacity="1" fill-rule="nonzero"/></g><g clip-path="url(#388f0569a9)"><path fill="#be9e7d" d="M 420.296875 528.691406 L 424.875 603.035156 L 435.300781 677.332031 L 392.296875 677.332031 L 392.476562 582.074219 L 392.476562 533.488281 Z M 420.296875 528.691406 " fill-opacity="1" fill-rule="nonzero"/></g><path fill="#be9e7d" d="M 276.363281 368.5 C 276.363281 368.5 291.230469 412.1875 265.742188 419.164062 C 265.742188 419.164062 271.257812 485.136719 332.226562 487.039062 C 332.226562 487.039062 389.972656 482.949219 362.402344 424.0625 L 346.730469 415.664062 C 346.480469 404.433594 348.027344 402.644531 348.027344 402.644531 L 282.46875 367.128906 " fill-opacity="1" fill-rule="nonzero"/><path fill="#be9e7d" d="M 364.859375 290.894531 C 364.859375 290.894531 370.546875 301.714844 369.632812 327.375 C 369.632812 327.375 369.511719 336.941406 372.097656 342.382812 C 372.097656 342.382812 375.125 363.273438 368.121094 379.179688 C 361.113281 395.089844 346.554688 405 346.554688 405 C 346.554688 405 332.117188 410.765625 320.058594 406.234375 C 307.996094 401.707031 291.035156 399.964844 277.476562 371.550781 C 277.476562 371.550781 269.199219 379.570312 262.453125 365.753906 C 255.707031 351.933594 248.304688 347.472656 253.578125 335.085938 C 258.859375 322.695312 273.238281 346.121094 273.238281 346.121094 C 273.238281 346.121094 261.542969 323.730469 267.585938 300.425781 C 273.628906 277.117188 302.21875 259.929688 302.21875 259.929688 C 302.21875 259.929688 343.71875 245.382812 364.859375 290.894531 Z M 364.859375 290.894531 " fill-opacity="1" fill-rule="nonzero"/><path fill="#231f20" d="M 322.773438 320.414062 C 322.773438 320.414062 306.390625 318.308594 292.878906 324.527344 C 292.878906 324.527344 298.839844 315.074219 322.792969 316.535156 C 322.792969 316.535156 326.9375 318.550781 322.773438 320.410156 Z M 322.773438 320.414062 " fill-opacity="1" fill-rule="nonzero"/><path fill="#231f20" d="M 371.699219 315.757812 C 360.085938 315.796875 352.285156 318.679688 352.285156 318.679688 C 347.808594 317.816406 351.382812 314.90625 351.382812 314.90625 C 358.546875 312.761719 366.914062 312.265625 371.371094 312.300781 C 371.371094 312.300781 372.328125 315.757812 371.695312 315.757812 Z M 371.699219 315.757812 " fill-opacity="1" fill-rule="nonzero"/><path fill="#231f20" d="M 317.324219 333.546875 C 317.324219 333.863281 317.292969 334.183594 317.230469 334.496094 C 317.167969 334.808594 317.074219 335.113281 316.953125 335.410156 C 316.828125 335.707031 316.679688 335.988281 316.5 336.253906 C 316.324219 336.519531 316.121094 336.765625 315.894531 336.992188 C 315.667969 337.21875 315.421875 337.417969 315.15625 337.597656 C 314.890625 337.773438 314.609375 337.925781 314.3125 338.046875 C 314.019531 338.171875 313.710938 338.261719 313.398438 338.324219 C 313.085938 338.386719 312.769531 338.417969 312.449219 338.417969 C 312.128906 338.417969 311.8125 338.386719 311.496094 338.324219 C 311.183594 338.261719 310.878906 338.171875 310.582031 338.046875 C 310.285156 337.925781 310.003906 337.773438 309.738281 337.597656 C 309.472656 337.417969 309.226562 337.21875 309 336.992188 C 308.773438 336.765625 308.570312 336.519531 308.394531 336.253906 C 308.214844 335.988281 308.066406 335.707031 307.945312 335.410156 C 307.820312 335.113281 307.730469 334.808594 307.667969 334.496094 C 307.605469 334.183594 307.574219 333.863281 307.574219 333.546875 C 307.574219 333.226562 307.605469 332.90625 307.667969 332.59375 C 307.730469 332.28125 307.820312 331.976562 307.945312 331.679688 C 308.066406 331.382812 308.214844 331.101562 308.394531 330.835938 C 308.570312 330.570312 308.773438 330.324219 309 330.097656 C 309.226562 329.871094 309.472656 329.671875 309.738281 329.492188 C 310.003906 329.316406 310.285156 329.164062 310.582031 329.042969 C 310.878906 328.917969 311.183594 328.828125 311.496094 328.765625 C 311.8125 328.703125 312.128906 328.671875 312.449219 328.671875 C 312.769531 328.671875 313.085938 328.703125 313.398438 328.765625 C 313.710938 328.828125 314.019531 328.917969 314.3125 329.042969 C 314.609375 329.164062 314.890625 329.316406 315.15625 329.492188 C 315.421875 329.671875 315.667969 329.871094 315.894531 330.097656 C 316.121094 330.324219 316.324219 330.570312 316.5 330.835938 C 316.679688 331.101562 316.828125 331.382812 316.953125 331.679688 C 317.074219 331.976562 317.167969 332.28125 317.230469 332.59375 C 317.292969 332.90625 317.324219 333.226562 317.324219 333.546875 Z M 317.324219 333.546875 " fill-opacity="1" fill-rule="nonzero"/><path fill="#be8c8c" d="M 321.929688 376.574219 C 321.929688 376.574219 328.984375 371.199219 338.742188 376.304688 C 338.742188 376.304688 344.664062 371.746094 353.023438 376.214844 C 353.023438 376.214844 350.066406 383.507812 340.09375 384.511719 C 335.34375 384.992188 327.175781 384.652344 321.933594 376.578125 Z M 321.929688 376.574219 " fill-opacity="1" fill-rule="nonzero"/><path stroke-linecap="butt" transform="matrix(0.675243, 0, 0, 0.675055, -193.099983, 0.0680467)" fill="none" stroke-linejoin="miter" d="M 797.708078 512.542755 C 797.708078 512.542755 813.408443 522.848631 798.899778 531.742585 " stroke="#231f20" stroke-width="1.2" stroke-opacity="1" stroke-miterlimit="10"/><path fill="#26130f" d="M 345.917969 405.175781 C 345.917969 405.175781 329.363281 410.851562 315.609375 404.601562 C 315.609375 404.601562 307.769531 403.378906 294.5 394.800781 C 294.5 394.800781 301.777344 406.585938 326.917969 409.980469 C 326.917969 409.980469 334.8125 410.960938 345.5625 409.914062 C 345.5625 409.914062 347.136719 406.671875 345.925781 405.167969 Z M 345.917969 405.175781 " fill-opacity="1" fill-rule="nonzero"/><g clip-path="url(#7680d1d193)"><path fill="#9054a2" d="M 339.558594 461.449219 C 339.558594 461.449219 380.445312 461.128906 347.160156 415.664062 L 388.359375 433.082031 C 388.359375 433.082031 411.742188 445.335938 412.722656 470.742188 L 422.464844 527.914062 L 396.328125 538.324219 L 397.617188 607.773438 L 407.5625 680.8125 C 407.5625 680.8125 340.125 712.589844 217.832031 681.28125 L 214.570312 666.921875 C 239.960938 574.398438 235.375 537.898438 235.375 537.898438 L 220.277344 516.472656 C 220.277344 516.472656 202.796875 448.296875 235.660156 431.597656 C 273.695312 412.269531 272.09375 415.292969 272.09375 415.292969 C 272.09375 415.292969 295.492188 462.515625 339.558594 461.441406 Z M 339.558594 461.449219 " fill-opacity="1" fill-rule="nonzero"/></g><path stroke-linecap="butt" transform="matrix(0.675243, 0, 0, 0.675055, -193.099983, 0.0680467)" fill="none" stroke-linejoin="miter" d="M 664.12771 515.592276 C 664.12771 515.592276 669.507717 505.47157 677.479383 514.510188 C 685.45105 523.548806 686.139459 526.748777 686.139459 526.748777 C 686.139459 526.748777 674.569552 512.282359 671.752279 525.047526 " stroke="#231f20" stroke-width="1.2" stroke-opacity="1" stroke-miterlimit="10"/><path stroke-linecap="butt" transform="matrix(0.675243, 0, 0, 0.675055, -193.099983, 0.0680467)" fill="none" stroke-linejoin="miter" d="M 794.051987 478.049028 C 794.051987 478.049028 783.887823 472.667521 777.761557 481.127482 " stroke="#a579b5" stroke-width="1.5" stroke-opacity="1" stroke-miterlimit="10"/><path stroke-linecap="butt" transform="matrix(0.675243, 0, 0, 0.675055, -193.099983, 0.0680467)" fill="none" stroke-linejoin="miter" d="M 721.040085 484.709367 C 721.040085 484.709367 746.441818 468.391248 778.282203 481.39945 C 778.282203 481.39945 777.200417 509.950373 759.631512 511.298643 C 742.062608 512.6527 729.740656 520.441419 721.040085 484.709367 Z M 721.040085 484.709367 " stroke="#a579b5" stroke-width="1.5" stroke-opacity="1" stroke-miterlimit="10"/><path stroke-linecap="butt" transform="matrix(0.675243, 0, 0, 0.675055, -193.099983, 0.0680467)" fill="none" stroke-linejoin="miter" d="M 721.040085 484.709367 L 674.419143 491.722686 " stroke="#a579b5" stroke-width="1.5" stroke-opacity="1" stroke-miterlimit="10"/><path stroke-linecap="butt" transform="matrix(0.675243, 0, 0, 0.675055, -193.099983, 0.0680467)" fill="none" stroke-linejoin="miter" d="M 688.922022 615.109657 C 688.922022 615.109657 728.080374 689.079345 788.828174 683.472162 C 788.828174 683.472162 852.879182 672.408245 800.091479 615.647808 " stroke="#75308e" stroke-width="5" stroke-opacity="1" stroke-miterlimit="10"/><path fill="#ffffff" d="M 302.542969 334.375 C 302.542969 334.375 302.472656 333.894531 302.777344 333.449219 C 303.785156 331.972656 306.167969 329.128906 310.441406 328.5625 C 315.230469 327.929688 318.464844 332.066406 319.578125 333.550781 C 319.765625 333.808594 319.789062 334.050781 319.789062 334.050781 C 319.789062 334.050781 319.839844 334.316406 319.707031 334.523438 C 319.058594 335.507812 316.84375 338.324219 312.320312 339 C 309.625 339.398438 305.648438 338.453125 302.8125 335.105469 C 302.617188 334.867188 302.5625 334.550781 302.542969 334.375 Z M 302.542969 334.375 " fill-opacity="1" fill-rule="nonzero"/><path fill="#26130f" d="M 317.519531 333.902344 C 317.519531 334.230469 317.488281 334.554688 317.421875 334.875 C 317.359375 335.199219 317.265625 335.507812 317.140625 335.8125 C 317.011719 336.113281 316.859375 336.402344 316.679688 336.675781 C 316.496094 336.945312 316.289062 337.199219 316.058594 337.429688 C 315.824219 337.660156 315.574219 337.867188 315.300781 338.050781 C 315.027344 338.234375 314.742188 338.386719 314.4375 338.511719 C 314.136719 338.636719 313.824219 338.730469 313.503906 338.796875 C 313.179688 338.859375 312.855469 338.890625 312.527344 338.890625 C 312.199219 338.890625 311.875 338.859375 311.554688 338.796875 C 311.234375 338.730469 310.921875 338.636719 310.617188 338.511719 C 310.316406 338.386719 310.027344 338.234375 309.757812 338.050781 C 309.484375 337.867188 309.230469 337.660156 309 337.429688 C 308.769531 337.199219 308.5625 336.945312 308.378906 336.675781 C 308.199219 336.402344 308.042969 336.113281 307.917969 335.8125 C 307.792969 335.507812 307.699219 335.199219 307.632812 334.875 C 307.570312 334.554688 307.539062 334.230469 307.539062 333.902344 C 307.539062 333.574219 307.570312 333.25 307.632812 332.929688 C 307.699219 332.609375 307.792969 332.296875 307.917969 331.992188 C 308.042969 331.691406 308.199219 331.402344 308.378906 331.132812 C 308.5625 330.859375 308.769531 330.605469 309 330.375 C 309.230469 330.144531 309.484375 329.9375 309.757812 329.753906 C 310.027344 329.574219 310.316406 329.417969 310.617188 329.292969 C 310.921875 329.167969 311.234375 329.074219 311.554688 329.011719 C 311.875 328.945312 312.199219 328.914062 312.527344 328.914062 C 312.855469 328.914062 313.179688 328.945312 313.503906 329.011719 C 313.824219 329.074219 314.136719 329.167969 314.4375 329.292969 C 314.742188 329.417969 315.027344 329.574219 315.300781 329.753906 C 315.574219 329.9375 315.824219 330.144531 316.058594 330.375 C 316.289062 330.605469 316.496094 330.859375 316.679688 331.132812 C 316.859375 331.402344 317.011719 331.691406 317.140625 331.992188 C 317.265625 332.296875 317.359375 332.609375 317.421875 332.929688 C 317.488281 333.25 317.519531 333.574219 317.519531 333.902344 Z M 317.519531 333.902344 " fill-opacity="1" fill-rule="nonzero"/><path fill="#ffffff" d="M 310.636719 333.316406 C 310.636719 333.496094 310.601562 333.671875 310.535156 333.839844 C 310.464844 334.007812 310.363281 334.15625 310.238281 334.285156 C 310.109375 334.414062 309.960938 334.511719 309.792969 334.582031 C 309.625 334.652344 309.449219 334.6875 309.265625 334.6875 C 309.085938 334.6875 308.910156 334.652344 308.742188 334.582031 C 308.574219 334.511719 308.425781 334.414062 308.296875 334.285156 C 308.167969 334.15625 308.070312 334.007812 308 333.839844 C 307.929688 333.671875 307.898438 333.496094 307.898438 333.316406 C 307.898438 333.132812 307.929688 332.960938 308 332.792969 C 308.070312 332.625 308.167969 332.476562 308.296875 332.347656 C 308.425781 332.21875 308.574219 332.117188 308.742188 332.050781 C 308.910156 331.980469 309.085938 331.945312 309.265625 331.945312 C 309.449219 331.945312 309.625 331.980469 309.792969 332.050781 C 309.960938 332.117188 310.109375 332.21875 310.238281 332.347656 C 310.363281 332.476562 310.464844 332.625 310.535156 332.792969 C 310.601562 332.960938 310.636719 333.132812 310.636719 333.316406 Z M 310.636719 333.316406 " fill-opacity="1" fill-rule="nonzero"/><path stroke-linecap="butt" transform="matrix(0.675243, 0, 0, 0.675055, -193.099983, 0.0680467)" fill="none" stroke-linejoin="miter" d="M 759.689362 493.962088 C 759.689362 493.962088 748.807864 478.187906 734.090941 493.828997 " stroke="#231f20" stroke-width="1.2" stroke-opacity="1" stroke-miterlimit="10"/><path fill="#ffffff" d="M 352.835938 330.339844 C 352.835938 330.339844 352.707031 329.90625 352.914062 329.453125 C 353.625 327.957031 355.414062 325.019531 359.253906 323.890625 C 363.558594 322.628906 367.109375 325.976562 368.335938 327.179688 C 368.546875 327.386719 368.601562 327.613281 368.601562 327.613281 C 368.601562 327.613281 368.6875 327.847656 368.585938 328.058594 C 368.136719 329.054688 366.5 331.945312 362.441406 333.199219 C 360.03125 333.949219 356.242188 333.640625 353.179688 330.972656 C 352.960938 330.785156 352.867188 330.5 352.828125 330.339844 Z M 352.835938 330.339844 " fill-opacity="1" fill-rule="nonzero"/><path fill="#26130f" d="M 366.535156 328.496094 C 366.535156 328.796875 366.503906 329.097656 366.445312 329.394531 C 366.386719 329.691406 366.300781 329.980469 366.183594 330.261719 C 366.066406 330.539062 365.925781 330.804688 365.757812 331.058594 C 365.589844 331.308594 365.398438 331.542969 365.183594 331.757812 C 364.96875 331.96875 364.738281 332.160156 364.484375 332.328125 C 364.234375 332.496094 363.96875 332.640625 363.6875 332.753906 C 363.40625 332.871094 363.121094 332.957031 362.824219 333.019531 C 362.527344 333.078125 362.226562 333.105469 361.921875 333.105469 C 361.621094 333.105469 361.320312 333.078125 361.023438 333.019531 C 360.726562 332.957031 360.4375 332.871094 360.15625 332.753906 C 359.878906 332.640625 359.613281 332.496094 359.359375 332.328125 C 359.109375 332.160156 358.875 331.96875 358.660156 331.757812 C 358.449219 331.542969 358.257812 331.308594 358.089844 331.058594 C 357.917969 330.804688 357.777344 330.539062 357.660156 330.261719 C 357.546875 329.980469 357.457031 329.691406 357.398438 329.394531 C 357.339844 329.097656 357.3125 328.796875 357.3125 328.496094 C 357.3125 328.191406 357.339844 327.894531 357.398438 327.597656 C 357.457031 327.300781 357.546875 327.011719 357.660156 326.730469 C 357.777344 326.453125 357.917969 326.1875 358.089844 325.933594 C 358.257812 325.683594 358.449219 325.449219 358.660156 325.234375 C 358.875 325.019531 359.109375 324.832031 359.359375 324.660156 C 359.613281 324.492188 359.878906 324.351562 360.15625 324.234375 C 360.4375 324.121094 360.726562 324.03125 361.023438 323.972656 C 361.320312 323.914062 361.621094 323.886719 361.921875 323.886719 C 362.226562 323.886719 362.527344 323.914062 362.824219 323.972656 C 363.121094 324.03125 363.40625 324.121094 363.6875 324.234375 C 363.96875 324.351562 364.234375 324.492188 364.484375 324.660156 C 364.738281 324.832031 364.96875 325.019531 365.183594 325.234375 C 365.398438 325.449219 365.589844 325.683594 365.757812 325.933594 C 365.925781 326.1875 366.066406 326.453125 366.183594 326.730469 C 366.300781 327.011719 366.386719 327.300781 366.445312 327.597656 C 366.503906 327.894531 366.535156 328.191406 366.535156 328.496094 Z M 366.535156 328.496094 " fill-opacity="1" fill-rule="nonzero"/><path fill="#ffffff" d="M 360.019531 328.53125 C 360.019531 328.699219 359.984375 328.863281 359.921875 329.023438 C 359.855469 329.179688 359.761719 329.320312 359.640625 329.441406 C 359.519531 329.5625 359.378906 329.65625 359.222656 329.71875 C 359.0625 329.785156 358.898438 329.820312 358.730469 329.820312 C 358.558594 329.820312 358.394531 329.785156 358.234375 329.71875 C 358.078125 329.65625 357.9375 329.5625 357.816406 329.441406 C 357.695312 329.320312 357.601562 329.179688 357.539062 329.023438 C 357.472656 328.863281 357.4375 328.699219 357.4375 328.53125 C 357.4375 328.359375 357.472656 328.195312 357.539062 328.035156 C 357.601562 327.878906 357.695312 327.738281 357.816406 327.617188 C 357.9375 327.496094 358.078125 327.402344 358.234375 327.339844 C 358.394531 327.273438 358.558594 327.238281 358.730469 327.238281 C 358.898438 327.238281 359.0625 327.273438 359.222656 327.339844 C 359.378906 327.402344 359.519531 327.496094 359.640625 327.617188 C 359.761719 327.738281 359.855469 327.878906 359.921875 328.035156 C 359.984375 328.195312 360.019531 328.359375 360.019531 328.53125 Z M 360.019531 328.53125 " fill-opacity="1" fill-rule="nonzero"/><path stroke-linecap="butt" transform="matrix(0.675243, 0, 0, 0.675055, -193.099983, 0.0680467)" fill="none" stroke-linejoin="miter" d="M 831.631047 484.767233 C 831.631047 484.767233 819.650408 470.792673 808.502802 488.268106 " stroke="#231f20" stroke-width="1.2" stroke-opacity="1" stroke-miterlimit="10"/><path stroke-linecap="butt" transform="matrix(0.675243, 0, 0, 0.675055, -193.099983, 0.0680467)" fill-opacity="1" fill="#ffffff" fill-rule="nonzero" stroke-linejoin="miter" d="M 649.439712 800.488123 L 658.840262 734.440245 " stroke="#662d91" stroke-width="1" stroke-opacity="1" stroke-miterlimit="10"/><path stroke-linecap="butt" transform="matrix(0.675243, 0, 0, 0.675055, -193.099983, 0.0680467)" fill-opacity="1" fill="#ffffff" fill-rule="nonzero" stroke-linejoin="miter" d="M 872.918262 797.35759 L 863.558207 724.388978 " stroke="#662d91" stroke-width="1" stroke-opacity="1" stroke-miterlimit="10"/><path fill="#be9e7d" d="M 239.324219 547.671875 C 239.324219 547.671875 288.523438 615.109375 324.3125 604.777344 L 425.753906 584.625 C 425.753906 584.625 441.363281 582.402344 449.570312 587.765625 C 449.570312 587.765625 467.578125 595.738281 478.503906 587.738281 C 478.503906 587.738281 502.171875 582.160156 513.636719 557.894531 C 513.636719 557.894531 509.644531 550.203125 499.476562 560.425781 C 499.476562 560.425781 486.585938 572.414062 472.972656 564.3125 C 472.972656 564.3125 468.886719 558.5 477.617188 559.183594 C 486.351562 559.863281 500.402344 559.519531 499.320312 551.960938 C 498.246094 544.390625 483.796875 546.910156 483.796875 546.910156 C 483.796875 546.910156 471.238281 546.6875 462.265625 545.054688 C 462.265625 545.054688 446.191406 545 436.960938 554.003906 L 324.765625 554.625 L 289.46875 509.59375 C 289.46875 509.59375 245.835938 520.0625 239.3125 547.664062 Z M 239.324219 547.671875 " fill-opacity="1" fill-rule="nonzero"/><path stroke-linecap="butt" transform="matrix(0.675243, 0, 0, 0.675055, -193.099983, 0.0680467)" fill-opacity="1" fill="#9054a2" fill-rule="nonzero" stroke-linejoin="miter" d="M 634.959973 639.262789 C 634.959973 639.262789 589.750559 652.311498 588.639848 710.101944 C 587.529137 767.880817 633.091433 813.450033 633.091433 813.450033 C 633.091433 813.450033 701.990233 782.341448 719.767396 748.999248 C 719.767396 748.999248 683.507305 653.989602 634.971543 639.268575 Z M 634.959973 639.262789 " stroke="#662d91" stroke-width="1" stroke-opacity="1" stroke-miterlimit="10"/><path stroke-linecap="butt" transform="matrix(0.675243, 0, 0, 0.675055, -193.099983, 0.0680467)" fill-opacity="1" fill="#dcbf97" fill-rule="nonzero" stroke-linejoin="miter" d="M 872.750499 819.832617 L 911.4287 818.947272 " stroke="#754c29" stroke-width="1" stroke-opacity="1" stroke-miterlimit="10"/><path stroke-linecap="butt" transform="matrix(0.675243, 0, 0, 0.675055, -193.099983, 0.0680467)" fill-opacity="1" fill="#dcbf97" fill-rule="nonzero" stroke-linejoin="miter" d="M 873.878565 873.769209 L 916.490534 865.951557 " stroke="#754c29" stroke-width="1" stroke-opacity="1" stroke-miterlimit="10"/><path stroke-linecap="butt" transform="matrix(0.675243, 0, 0, 0.675055, -193.099983, 0.0680467)" fill="none" stroke-linejoin="miter" d="M 808.76891 557.197694 C 808.76891 557.197694 793.137965 570.20011 758.989382 556.607464 " stroke="#231f20" stroke-width="1.2" stroke-opacity="1" stroke-miterlimit="10"/><path fill="#301c12" d="M 383.234375 440.277344 C 391.640625 441.371094 387.25 440.59375 400.574219 440.765625 C 413.894531 440.933594 404.644531 426.4375 404.644531 426.4375 C 422.851562 436.828125 422.417969 424.226562 422.417969 424.226562 C 434.214844 429.847656 434.503906 417.851562 434.503906 417.851562 C 440.445312 417.332031 440.101562 413.378906 437.488281 406.289062 C 434.875 399.199219 444.492188 395.035156 444.492188 395.035156 C 458.734375 390.472656 447.300781 381.488281 447.300781 381.488281 C 468.660156 366.988281 451.371094 367.164062 451.371094 367.164062 C 459.355469 351.839844 446.632812 350.949219 446.632812 350.949219 C 467.382812 337.171875 447.550781 330.914062 447.550781 330.914062 C 458.570312 319.976562 440.542969 311.570312 440.542969 311.570312 C 465.945312 290.070312 434.855469 292.117188 434.855469 292.117188 C 440.453125 272.34375 425.613281 277.625 425.613281 277.625 C 434.621094 258.882812 412.660156 258.796875 412.660156 258.796875 C 409.84375 241.75 382.941406 246.085938 382.941406 246.085938 C 380.585938 219.023438 359.457031 236.160156 359.457031 236.160156 C 355.523438 229.1875 350.503906 240.265625 350.503906 240.265625 C 349.816406 232.347656 341.488281 228.410156 341.488281 228.410156 C 336.667969 218.851562 329.492188 228.128906 329.492188 228.128906 C 306.179688 220.183594 289.589844 243.574219 289.589844 243.574219 C 289.589844 243.574219 273.882812 223.660156 255.890625 238.53125 C 255.890625 238.53125 247.738281 236.582031 249.144531 245.105469 C 249.144531 245.105469 231.859375 229.984375 230.6875 254.691406 C 230.6875 254.691406 209.648438 249.871094 216.457031 274.550781 C 216.457031 274.550781 205.117188 274.207031 207.042969 288.675781 C 207.042969 288.675781 192.6875 291.921875 199.835938 305.265625 C 199.835938 305.265625 180.378906 310.949219 187.953125 321.597656 C 187.953125 321.597656 182.269531 332.734375 189.878906 336.0625 C 189.878906 336.0625 179.828125 342.921875 193.179688 351.070312 C 193.179688 351.070312 178.285156 355.695312 186.699219 368.261719 C 186.699219 368.261719 183.113281 380.550781 194.625 382.871094 C 194.625 382.871094 184.980469 394.355469 195.230469 397.453125 C 195.230469 397.453125 185.589844 408.933594 204.363281 410.621094 C 204.363281 410.621094 200.511719 412.289062 209.304688 421.496094 C 209.304688 421.496094 213.152344 435.128906 218.125 438.683594 C 218.125 438.683594 230.386719 449.585938 227.625 433.203125 C 227.625 433.203125 232.707031 453.378906 245.308594 437.652344 C 245.308594 437.652344 245.59375 425.65625 251.964844 437.738281 C 258.339844 449.824219 262.128906 447.496094 263.363281 438.746094 C 263.363281 438.746094 272.554688 452.578125 280.875 441.210938 C 280.875 441.210938 274.53125 452.402344 290.691406 447.007812 C 290.691406 447.007812 301.15625 441.761719 290.273438 429.023438 C 290.273438 429.023438 298.011719 420.53125 286.742188 414.667969 C 275.472656 408.808594 283.507812 407.449219 283.507812 407.449219 C 283.507812 407.449219 288.375 403.441406 281.171875 395.597656 C 273.964844 387.753906 281.171875 395.597656 281.171875 395.597656 C 281.171875 395.597656 283.492188 390.445312 277.042969 371.644531 C 270.597656 352.84375 277.042969 371.644531 277.042969 371.644531 C 277.042969 371.644531 265.890625 378.828125 257.292969 357.261719 C 250.601562 340.484375 249.527344 338.183594 256.949219 333.566406 C 262.90625 329.859375 273.011719 346.148438 273.011719 346.148438 C 273.011719 346.148438 277.515625 342.460938 272.777344 336.683594 C 268.035156 330.90625 269.664062 327.179688 269.664062 327.179688 C 269.664062 327.179688 277.003906 321.652344 272.953125 312.550781 C 268.902344 303.449219 273.757812 303.03125 273.757812 303.03125 C 273.757812 303.03125 286.726562 302.230469 284.277344 289.078125 C 284.277344 289.078125 294.066406 289.207031 291.757812 277.671875 C 291.757812 277.671875 300.441406 283.761719 308.058594 273.972656 C 315.683594 264.183594 317.902344 274.742188 317.902344 274.742188 C 317.902344 274.742188 317.566406 285.851562 329.71875 283.164062 C 341.875 280.480469 340.863281 283.828125 340.863281 283.828125 C 340.863281 283.828125 340.523438 294.9375 349.769531 292.5 C 349.769531 292.5 352.207031 301.742188 360.25 296.800781 C 368.296875 291.867188 368.113281 301.007812 368.113281 301.007812 C 368.113281 301.007812 371.511719 321.246094 369.472656 331.527344 C 367.433594 341.808594 369.472656 331.527344 369.472656 331.527344 C 369.472656 331.527344 370.925781 338.925781 372.039062 343.210938 C 373.152344 347.5 378.539062 383.316406 345.304688 405.878906 C 312.070312 428.429688 345.304688 405.878906 345.304688 405.878906 C 345.304688 405.878906 343.394531 417.554688 345.617188 420.621094 " fill-opacity="1" fill-rule="nonzero"/><path stroke-linecap="butt" transform="matrix(0.675243, 0, 0, 0.675055, -193.099983, 0.0680467)" fill="none" stroke-linejoin="miter" d="M 793.942073 477.52245 C 793.942073 477.52245 819.33802 461.198545 851.178406 474.212534 C 851.178406 474.212534 850.102404 502.75767 832.527715 504.111727 C 814.95881 505.459997 802.642644 513.248716 793.942073 477.52245 Z M 793.942073 477.52245 " stroke="#a579b5" stroke-width="1.5" stroke-opacity="1" stroke-miterlimit="10"/><g clip-path="url(#5f61923416)"><path fill="#be9e7d" d="M 475.679688 408.746094 L 477.195312 518.191406 L 448.902344 677.574219 L 487.160156 677.058594 L 521.488281 460.625 Z M 475.679688 408.746094 " fill-opacity="1" fill-rule="nonzero"/></g><path fill="#dcbf97" d="M 426.234375 584.300781 C 426.234375 584.300781 441.84375 582.082031 450.046875 587.441406 C 450.046875 587.441406 468.058594 595.414062 478.984375 587.414062 C 478.984375 587.414062 502.648438 581.835938 514.117188 557.570312 C 514.117188 557.570312 510.125 549.878906 499.957031 560.101562 C 499.957031 560.101562 487.066406 572.089844 473.453125 563.988281 C 473.453125 563.988281 469.367188 558.175781 478.097656 558.859375 C 486.828125 559.539062 500.882812 559.195312 499.800781 551.636719 C 498.726562 544.066406 484.277344 546.585938 484.277344 546.585938 C 484.277344 546.585938 471.71875 546.363281 462.742188 544.730469 C 462.742188 544.730469 446.671875 544.675781 437.441406 553.679688 " fill-opacity="1" fill-rule="nonzero"/><path fill="#be9e7d" d="M 664.167969 204.5625 C 664.167969 204.5625 660.15625 244.726562 670.96875 268.632812 C 670.96875 268.632812 680.859375 380.421875 590.007812 383.261719 C 590.007812 383.261719 522.273438 365.015625 563.359375 277.265625 C 563.359375 277.265625 579.707031 270.886719 580.058594 255.078125 C 580.429688 238.335938 577.898438 255.359375 577.898438 255.359375 L 664.167969 204.570312 " fill-opacity="1" fill-rule="nonzero"/><g clip-path="url(#cb87ad4781)"><path fill="#0f3e5d" d="M 755.027344 614.988281 C 755.027344 614.988281 814.6875 742.722656 758.019531 851.972656 L 738.230469 940.433594 C 738.230469 940.433594 723.515625 977.589844 728.9375 1034.097656 C 732.386719 1070.035156 723.8125 1120.929688 714.703125 1168.472656 C 714.703125 1168.472656 690.5625 1193.410156 647.710938 1173.117188 C 647.710938 1173.117188 611.464844 1188.023438 570.992188 1168.804688 L 505.425781 1012.898438 C 505.425781 1012.898438 488.125 985.789062 488.125 957.464844 C 488.125 957.464844 474.695312 758.03125 490.886719 629.5625 C 490.886719 629.5625 601.183594 706.445312 755.027344 614.988281 Z M 755.027344 614.988281 " fill-opacity="1" fill-rule="nonzero"/></g><path fill="#be9e7d" d="M 656.984375 171.671875 C 656.984375 171.671875 646.984375 87.601562 571.101562 87.421875 C 571.101562 87.421875 517.34375 91.742188 526.640625 167.378906 C 526.640625 167.378906 530.542969 179.328125 529 185.949219 C 529 185.949219 526.101562 202.902344 535.433594 217.914062 C 549.402344 240.386719 562.542969 256.25 562.542969 256.25 C 562.542969 256.25 570.726562 266.863281 589.519531 265.632812 C 589.519531 265.632812 602.6875 264.230469 618.644531 252.152344 C 618.644531 252.152344 659.609375 229.554688 655.5 204.777344 C 655.5 204.777344 675.019531 215.695312 681.015625 185.53125 C 681.015625 185.53125 685.058594 144.109375 656.976562 171.671875 Z M 656.984375 171.671875 " fill-opacity="1" fill-rule="nonzero"/><path fill="#26130f" d="M 585.753906 151.21875 C 585.753906 151.21875 610.59375 140.789062 623.167969 148.054688 C 623.167969 148.054688 613.132812 135.492188 584.535156 145.171875 C 584.535156 145.171875 579.757812 149.558594 585.753906 151.21875 Z M 585.753906 151.21875 " fill-opacity="1" fill-rule="nonzero"/><path fill="#26130f" d="M 523.675781 150.207031 C 524.175781 148.828125 537.222656 147.90625 549.296875 149.828125 C 549.296875 149.828125 554.746094 153.351562 549.113281 155.992188 C 549.113281 155.992188 527.140625 149.4375 524.054688 156.585938 C 524.054688 156.585938 522.441406 153.601562 523.675781 150.207031 Z M 523.675781 150.207031 " fill-opacity="1" fill-rule="nonzero"/><path stroke-linecap="butt" transform="matrix(0.675243, 0, 0, 0.675055, -193.099983, 0.0680467)" fill="none" stroke-linejoin="miter" d="M 1114.989653 279.980621 C 1114.989653 279.980621 1101.429722 304.342069 1128.688424 304.781848 " stroke="#231f20" stroke-width="1.2" stroke-opacity="1" stroke-miterlimit="10"/><path stroke-linecap="butt" transform="matrix(0.675243, 0, 0, 0.675055, -193.099983, 0.0680467)" fill="none" stroke-linejoin="miter" d="M 1289.782032 262.690359 C 1289.782032 262.690359 1277.807178 237.582444 1261.418404 280.987484 C 1261.418404 280.987484 1276.777456 261.139559 1281.121956 276.670705 " stroke="#231f20" stroke-width="1.2" stroke-opacity="1" stroke-miterlimit="10"/><path fill="#26130f" d="M 578.5625 264.796875 C 578.5625 264.796875 584.8125 269.65625 604.355469 260.890625 C 604.355469 260.890625 621.464844 253.511719 634.898438 240.710938 C 634.898438 240.710938 618.332031 262.53125 593.867188 267.667969 C 593.867188 267.667969 587.441406 270.183594 577.816406 267.640625 C 577.816406 267.640625 579.234375 267.363281 578.5625 264.789062 Z M 578.5625 264.796875 " fill-opacity="1" fill-rule="nonzero"/><path fill="#ffffff" d="M 614.011719 164.597656 C 614.011719 164.597656 613.992188 164.039062 613.550781 163.601562 C 612.113281 162.128906 608.820312 159.402344 603.855469 159.636719 C 598.296875 159.902344 595.484375 165.261719 594.53125 167.171875 C 594.367188 167.5 594.394531 167.777344 594.394531 167.777344 C 594.394531 167.777344 594.394531 168.089844 594.585938 168.296875 C 595.523438 169.285156 598.609375 172.019531 603.875 171.847656 C 607.007812 171.746094 611.324219 169.859375 613.847656 165.484375 C 614.023438 165.179688 614.019531 164.800781 614.003906 164.597656 Z M 614.011719 164.597656 " fill-opacity="1" fill-rule="nonzero"/><path fill="#26130f" d="M 608.351562 166.125 C 608.351562 166.503906 608.316406 166.875 608.242188 167.246094 C 608.167969 167.617188 608.058594 167.976562 607.914062 168.324219 C 607.769531 168.675781 607.59375 169.007812 607.382812 169.320312 C 607.171875 169.632812 606.933594 169.925781 606.667969 170.191406 C 606.402344 170.457031 606.109375 170.695312 605.796875 170.90625 C 605.480469 171.117188 605.148438 171.292969 604.800781 171.4375 C 604.453125 171.582031 604.09375 171.691406 603.722656 171.765625 C 603.351562 171.839844 602.976562 171.875 602.601562 171.875 C 602.222656 171.875 601.847656 171.839844 601.476562 171.765625 C 601.105469 171.691406 600.746094 171.582031 600.398438 171.4375 C 600.050781 171.292969 599.71875 171.117188 599.402344 170.90625 C 599.089844 170.695312 598.796875 170.457031 598.53125 170.191406 C 598.265625 169.925781 598.027344 169.632812 597.816406 169.320312 C 597.605469 169.007812 597.429688 168.675781 597.285156 168.324219 C 597.140625 167.976562 597.03125 167.617188 596.957031 167.246094 C 596.882812 166.875 596.847656 166.503906 596.847656 166.125 C 596.847656 165.746094 596.882812 165.375 596.957031 165.003906 C 597.03125 164.632812 597.140625 164.273438 597.285156 163.921875 C 597.429688 163.574219 597.605469 163.242188 597.816406 162.929688 C 598.027344 162.617188 598.265625 162.324219 598.53125 162.058594 C 598.796875 161.789062 599.089844 161.550781 599.402344 161.34375 C 599.71875 161.132812 600.050781 160.957031 600.398438 160.8125 C 600.746094 160.667969 601.105469 160.558594 601.476562 160.484375 C 601.847656 160.410156 602.222656 160.375 602.601562 160.375 C 602.976562 160.375 603.351562 160.410156 603.722656 160.484375 C 604.09375 160.558594 604.453125 160.667969 604.800781 160.8125 C 605.148438 160.957031 605.480469 161.132812 605.796875 161.34375 C 606.109375 161.550781 606.402344 161.789062 606.667969 162.058594 C 606.933594 162.324219 607.171875 162.617188 607.382812 162.929688 C 607.59375 163.242188 607.769531 163.574219 607.914062 163.921875 C 608.058594 164.273438 608.167969 164.632812 608.242188 165.003906 C 608.316406 165.375 608.351562 165.746094 608.351562 166.125 Z M 608.351562 166.125 " fill-opacity="1" fill-rule="nonzero"/><path fill="#ffffff" d="M 607.617188 163.214844 C 607.617188 163.425781 607.578125 163.625 607.496094 163.820312 C 607.417969 164.011719 607.300781 164.183594 607.152344 164.332031 C 607.003906 164.480469 606.835938 164.59375 606.640625 164.675781 C 606.449219 164.753906 606.246094 164.792969 606.035156 164.792969 C 605.828125 164.792969 605.625 164.753906 605.433594 164.675781 C 605.238281 164.59375 605.066406 164.480469 604.917969 164.332031 C 604.769531 164.183594 604.65625 164.011719 604.578125 163.820312 C 604.496094 163.625 604.457031 163.425781 604.457031 163.214844 C 604.457031 163.003906 604.496094 162.804688 604.578125 162.609375 C 604.65625 162.417969 604.769531 162.246094 604.917969 162.097656 C 605.066406 161.949219 605.238281 161.835938 605.433594 161.757812 C 605.625 161.675781 605.828125 161.636719 606.035156 161.636719 C 606.246094 161.636719 606.449219 161.675781 606.640625 161.757812 C 606.835938 161.835938 607.003906 161.949219 607.152344 162.097656 C 607.300781 162.246094 607.417969 162.417969 607.496094 162.609375 C 607.578125 162.804688 607.617188 163.003906 607.617188 163.214844 Z M 607.617188 163.214844 " fill-opacity="1" fill-rule="nonzero"/><path stroke-linecap="butt" transform="matrix(0.675243, 0, 0, 0.675055, -193.099983, 0.0680467)" fill="none" stroke-linejoin="miter" d="M 1165.949311 247.581632 C 1165.949311 247.581632 1175.037474 227.467524 1194.937715 242.171192 " stroke="#231f20" stroke-width="1.5" stroke-opacity="1" stroke-miterlimit="10"/><path fill="#ffffff" d="M 549.503906 172.363281 C 549.503906 172.363281 549.566406 171.84375 549.222656 171.363281 C 548.09375 169.789062 545.421875 166.785156 540.773438 166.292969 C 535.566406 165.738281 532.183594 170.324219 531.023438 171.964844 C 530.820312 172.246094 530.816406 172.511719 530.816406 172.511719 C 530.816406 172.511719 530.765625 172.800781 530.921875 173.015625 C 531.652344 174.070312 534.136719 177.054688 539.050781 177.648438 C 541.984375 178.003906 546.265625 176.863281 549.234375 173.152344 C 549.445312 172.894531 549.492188 172.542969 549.503906 172.355469 Z M 549.503906 172.363281 " fill-opacity="1" fill-rule="nonzero"/><path fill="#26130f" d="M 544.054688 172.132812 C 544.054688 172.488281 544.023438 172.835938 543.953125 173.183594 C 543.882812 173.53125 543.78125 173.867188 543.644531 174.195312 C 543.511719 174.519531 543.34375 174.832031 543.148438 175.125 C 542.953125 175.417969 542.726562 175.691406 542.476562 175.941406 C 542.226562 176.191406 541.957031 176.414062 541.660156 176.613281 C 541.367188 176.808594 541.054688 176.972656 540.730469 177.109375 C 540.402344 177.246094 540.066406 177.347656 539.71875 177.417969 C 539.371094 177.484375 539.019531 177.519531 538.667969 177.519531 C 538.3125 177.519531 537.964844 177.484375 537.617188 177.417969 C 537.269531 177.347656 536.933594 177.246094 536.605469 177.109375 C 536.277344 176.972656 535.96875 176.808594 535.675781 176.613281 C 535.378906 176.414062 535.109375 176.191406 534.859375 175.941406 C 534.605469 175.691406 534.382812 175.417969 534.1875 175.125 C 533.992188 174.832031 533.824219 174.519531 533.6875 174.195312 C 533.554688 173.867188 533.453125 173.53125 533.382812 173.183594 C 533.3125 172.835938 533.277344 172.488281 533.277344 172.132812 C 533.277344 171.777344 533.3125 171.429688 533.382812 171.082031 C 533.453125 170.734375 533.554688 170.398438 533.6875 170.070312 C 533.824219 169.746094 533.992188 169.433594 534.1875 169.140625 C 534.382812 168.847656 534.605469 168.574219 534.859375 168.324219 C 535.109375 168.074219 535.378906 167.851562 535.675781 167.652344 C 535.96875 167.457031 536.277344 167.292969 536.605469 167.15625 C 536.933594 167.019531 537.269531 166.917969 537.617188 166.847656 C 537.964844 166.78125 538.3125 166.746094 538.667969 166.746094 C 539.019531 166.746094 539.371094 166.78125 539.71875 166.847656 C 540.066406 166.917969 540.402344 167.019531 540.730469 167.15625 C 541.054688 167.292969 541.367188 167.457031 541.660156 167.652344 C 541.957031 167.851562 542.226562 168.074219 542.476562 168.324219 C 542.726562 168.574219 542.953125 168.847656 543.148438 169.140625 C 543.34375 169.433594 543.511719 169.746094 543.644531 170.070312 C 543.78125 170.398438 543.882812 170.734375 543.953125 171.082031 C 544.023438 171.429688 544.054688 171.777344 544.054688 172.132812 Z M 544.054688 172.132812 " fill-opacity="1" fill-rule="nonzero"/><path fill="#ffffff" d="M 543.960938 170 C 543.960938 170.199219 543.921875 170.394531 543.847656 170.578125 C 543.769531 170.761719 543.660156 170.925781 543.519531 171.070312 C 543.375 171.210938 543.214844 171.320312 543.027344 171.398438 C 542.84375 171.472656 542.648438 171.511719 542.449219 171.511719 C 542.25 171.511719 542.054688 171.472656 541.871094 171.398438 C 541.683594 171.320312 541.519531 171.210938 541.378906 171.070312 C 541.238281 170.925781 541.128906 170.761719 541.050781 170.578125 C 540.976562 170.394531 540.9375 170.199219 540.9375 170 C 540.9375 169.800781 540.976562 169.605469 541.050781 169.421875 C 541.128906 169.234375 541.238281 169.070312 541.378906 168.929688 C 541.519531 168.789062 541.683594 168.679688 541.871094 168.601562 C 542.054688 168.527344 542.25 168.488281 542.449219 168.488281 C 542.648438 168.488281 542.84375 168.527344 543.027344 168.601562 C 543.214844 168.679688 543.375 168.789062 543.519531 168.929688 C 543.660156 169.070312 543.769531 169.234375 543.847656 169.421875 C 543.921875 169.605469 543.960938 169.800781 543.960938 170 Z M 543.960938 170 " fill-opacity="1" fill-rule="nonzero"/><path stroke-linecap="butt" transform="matrix(0.675243, 0, 0, 0.675055, -193.099983, 0.0680467)" fill="none" stroke-linejoin="miter" d="M 1072.227275 254.890066 C 1072.227275 254.890066 1083.079848 236.332545 1099.549612 254.09152 " stroke="#231f20" stroke-width="1.5" stroke-opacity="1" stroke-miterlimit="10"/><path fill="#ffffff" d="M 670.96875 268.632812 C 670.96875 268.632812 676.769531 281.425781 710.390625 290.671875 C 771.835938 307.570312 778.324219 406.9375 778.324219 406.9375 C 778.324219 406.9375 778.5 431.878906 721.328125 442.242188 L 755.988281 614.605469 C 755.988281 614.605469 691.554688 667.730469 587.933594 659.097656 C 587.933594 659.097656 518.847656 654.445312 485.640625 625.230469 C 485.640625 625.230469 499.589844 537.574219 500.253906 473.820312 C 500.253906 473.820312 484.3125 461.203125 484.972656 430.660156 L 475.675781 408.746094 L 483.640625 346.324219 C 483.640625 346.324219 490.285156 304.492188 534.792969 287.222656 C 534.792969 287.222656 551.394531 283.902344 563.355469 277.257812 C 563.355469 277.257812 552.539062 311.585938 565.117188 330.824219 C 565.117188 330.824219 591.929688 366.023438 651.71875 330.824219 C 651.71875 330.824219 678.363281 309.363281 670.96875 268.625 Z M 670.96875 268.632812 " fill-opacity="1" fill-rule="nonzero"/><path stroke-linecap="butt" transform="matrix(0.675243, 0, 0, 0.675055, -193.099983, 0.0680467)" fill-opacity="1" fill="#ffffff" fill-rule="nonzero" stroke-linejoin="miter" d="M 1004.202003 637.868226 L 1011.109238 564.488768 " stroke="#808285" stroke-width="1" stroke-opacity="1" stroke-miterlimit="10"/><path stroke-linecap="butt" transform="matrix(0.675243, 0, 0, 0.675055, -193.099983, 0.0680467)" fill-opacity="1" fill="#ffffff" fill-rule="nonzero" stroke-linejoin="miter" d="M 1329.698213 648.341913 L 1329.420535 587.322562 " stroke="#808285" stroke-width="1" stroke-opacity="1" stroke-miterlimit="10"/><path fill="#bf6b6b" d="M 606.339844 214.390625 C 606.339844 214.390625 594.820312 213.75 582.539062 219.75 C 582.539062 219.75 570.910156 220.164062 561.242188 224.289062 C 561.242188 224.289062 565.757812 239.988281 583.484375 239.902344 C 601.207031 239.8125 608.644531 223.632812 606.339844 214.390625 Z M 606.339844 214.390625 " fill-opacity="1" fill-rule="nonzero"/><path fill="#803435" d="M 603.855469 216.097656 C 603.855469 216.097656 607.023438 230.167969 586.203125 234.601562 C 567.296875 238.625 564.476562 226.101562 564.476562 226.101562 C 564.476562 226.101562 585.953125 222.417969 603.855469 216.097656 Z M 603.855469 216.097656 " fill-opacity="1" fill-rule="nonzero"/><path fill="#ffffff" d="M 601.390625 216.808594 C 601.390625 216.808594 597.609375 224.363281 581.351562 227.117188 C 581.351562 227.117188 571.503906 229.667969 566.359375 225.953125 C 566.359375 225.953125 587.203125 221.925781 601.382812 216.816406 Z M 601.390625 216.808594 " fill-opacity="1" fill-rule="nonzero"/><path fill="#be9e7d" d="M 704.769531 437.734375 L 702.050781 515.929688 C 702.050781 515.929688 625.140625 524.855469 568.878906 537.4375 L 567.414062 581.371094 C 567.414062 581.371094 703.925781 602.109375 754.949219 586.351562 C 754.949219 586.351562 780.910156 578.792969 781.207031 523.335938 C 781.578125 454.414062 778.332031 406.9375 778.332031 406.9375 C 778.332031 406.9375 749.105469 447.960938 704.769531 437.726562 Z M 704.769531 437.734375 " fill-opacity="1" fill-rule="nonzero"/><path fill="#be9e7d" d="M 568.871094 537.4375 L 561.644531 538.640625 L 496.621094 516.972656 L 453.269531 526.003906 L 433.398438 551.886719 C 433.398438 551.886719 433.398438 563.320312 447.847656 550.683594 L 449.050781 566.9375 C 449.050781 566.9375 453.863281 578.976562 460.488281 568.140625 L 467.714844 582.585938 C 467.714844 582.585938 473.738281 591.011719 477.347656 580.777344 L 485.175781 597.632812 C 485.175781 597.632812 496.011719 595.222656 493.601562 582.585938 L 530.328125 588.007812 L 567.398438 581.378906 L 568.863281 537.445312 Z M 568.871094 537.4375 " fill-opacity="1" fill-rule="nonzero"/><path stroke-linecap="butt" transform="matrix(0.675243, 0, 0, 0.675055, -193.099983, 0.0680467)" fill="none" stroke-linejoin="miter" d="M 998.642663 787.711382 C 998.642663 787.711382 959.218203 789.962357 953.589443 801.21723 C 947.960683 812.47789 949.210233 815.660502 949.210233 815.660502 " stroke="#3c2415" stroke-width="0.5" stroke-opacity="1" stroke-miterlimit="10"/><path stroke-linecap="butt" transform="matrix(0.675243, 0, 0, 0.675055, -193.099983, 0.0680467)" fill="none" stroke-linejoin="miter" d="M 967.941913 841.52067 C 967.941913 841.52067 964.852748 820.932064 981.750598 816.430115 C 998.642663 811.928166 1009.911753 807.981727 1009.911753 807.981727 " stroke="#3c2415" stroke-width="0.5" stroke-opacity="1" stroke-miterlimit="10"/><path stroke-linecap="butt" transform="matrix(0.675243, 0, 0, 0.675055, -193.099983, 0.0680467)" fill="none" stroke-linejoin="miter" d="M 992.898204 860.240215 C 992.898204 860.240215 977.799474 845.137275 995.25268 838.378564 C 1012.71167 831.619854 1016.090083 835.560506 1016.090083 835.560506 " stroke="#3c2415" stroke-width="0.5" stroke-opacity="1" stroke-miterlimit="10"/><path fill="#3c2415" d="M 556.988281 96.6875 C 556.988281 96.6875 612.027344 182.523438 681.671875 178.152344 C 681.671875 178.152344 677.539062 208.78125 656.390625 203.847656 C 656.390625 203.847656 647.988281 245.996094 669.359375 267.320312 C 669.359375 267.320312 696.511719 287.613281 716.863281 293.917969 C 735.917969 299.820312 753.746094 321.488281 753.746094 321.488281 C 753.746094 321.488281 715.972656 278.441406 713.398438 203.109375 C 710.828125 127.78125 671.988281 89.546875 671.988281 89.546875 C 671.988281 89.546875 621.546875 24.597656 556.667969 66.296875 C 556.667969 66.296875 520.390625 70.570312 507.410156 106.511719 C 499.902344 127.296875 504.175781 164.484375 507.898438 194.160156 C 507.898438 194.160156 515.371094 265.910156 548.417969 284.292969 C 548.417969 284.292969 577.914062 282.476562 579.980469 264.695312 C 579.980469 264.695312 572.570312 264.398438 563.996094 255.328125 C 552.292969 242.945312 543.867188 231.160156 535.074219 216.613281 C 535.074219 216.613281 525.589844 202.125 529.066406 181.929688 C 529.066406 181.929688 529.949219 171.375 526.410156 165.550781 C 526.410156 165.550781 518.449219 122.300781 556.988281 96.6875 " fill-opacity="1" fill-rule="nonzero"/><path stroke-linecap="butt" transform="matrix(0.675243, 0, 0, 0.675055, -193.099983, 0.0680467)" fill="none" stroke-linejoin="miter" d="M 1270.367727 282.410979 C 1270.367727 282.410979 1287.820933 304.758702 1272.450311 320.550244 C 1257.091258 336.341785 1262.870427 300.407203 1262.870427 300.407203 " stroke="#fbb040" stroke-width="2" stroke-opacity="1" stroke-miterlimit="10"/></svg>