<svg xmlns="http://www.w3.org/2000/svg" xmlns:xlink="http://www.w3.org/1999/xlink" width="1200" zoomAndPan="magnify" viewBox="0 0 900 675.000002" height="900" preserveAspectRatio="xMidYMid meet" version="1.0"><defs><clipPath id="6c436fd795"><path d="M 0.664062 0 L 899.332031 0 L 899.332031 674 L 0.664062 674 Z M 0.664062 0 " clip-rule="nonzero"/></clipPath><clipPath id="67182eadf2"><path d="M 0.664062 0 L 899 0 L 899 673 L 0.664062 673 Z M 0.664062 0 " clip-rule="nonzero"/></clipPath><clipPath id="0032116196"><path d="M 610 1.085938 L 898.738281 1.085938 L 898.738281 244 L 610 244 Z M 610 1.085938 " clip-rule="nonzero"/></clipPath><clipPath id="d0201c805e"><path d="M 607 1.085938 L 898.738281 1.085938 L 898.738281 247 L 607 247 Z M 607 1.085938 " clip-rule="nonzero"/></clipPath><clipPath id="a7dc49be24"><path d="M 587 1.085938 L 665 1.085938 L 665 273 L 587 273 Z M 587 1.085938 " clip-rule="nonzero"/></clipPath><clipPath id="b5370913d8"><path d="M 852 1.085938 L 898.738281 1.085938 L 898.738281 273 L 852 273 Z M 852 1.085938 " clip-rule="nonzero"/></clipPath><clipPath id="f69e9c9771"><path d="M 600 1.085938 L 622 1.085938 L 622 96 L 600 96 Z M 600 1.085938 " clip-rule="nonzero"/></clipPath><clipPath id="5deb60ebc7"><path d="M 613 1.085938 L 634 1.085938 L 634 109 L 613 109 Z M 613 1.085938 " clip-rule="nonzero"/></clipPath><clipPath id="3abafc3109"><path d="M 878 1.085938 L 898 1.085938 L 898 80 L 878 80 Z M 878 1.085938 " clip-rule="nonzero"/></clipPath><clipPath id="1db40328d8"><path d="M 753 1.085938 L 760 1.085938 L 760 246 L 753 246 Z M 753 1.085938 " clip-rule="nonzero"/></clipPath><clipPath id="bad984af43"><path d="M 757 1.085938 L 764 1.085938 L 764 245 L 757 245 Z M 757 1.085938 " clip-rule="nonzero"/></clipPath><clipPath id="1e4645b86e"><path d="M 565.523438 93 L 676 93 L 676 143 L 565.523438 143 Z M 565.523438 93 " clip-rule="nonzero"/></clipPath><clipPath id="fd61977de4"><path d="M 842 85 L 898.738281 85 L 898.738281 136 L 842 136 Z M 842 85 " clip-rule="nonzero"/></clipPath><clipPath id="57e7118dde"><path d="M 0.664062 495 L 899.332031 495 L 899.332031 673.695312 L 0.664062 673.695312 Z M 0.664062 495 " clip-rule="nonzero"/></clipPath></defs><g clip-path="url(#6c436fd795)"><path fill="#ffffff" d="M 0.664062 0 L 899.335938 0 L 899.335938 674 L 0.664062 674 Z M 0.664062 0 " fill-opacity="1" fill-rule="nonzero"/><path fill="#ffffff" d="M 0.664062 0 L 899.335938 0 L 899.335938 674 L 0.664062 674 Z M 0.664062 0 " fill-opacity="1" fill-rule="nonzero"/></g><g clip-path="url(#67182eadf2)"><path fill="#bde4e0" d="M 0.957031 0.871094 L 898.253906 0.871094 L 898.253906 672.914062 L 0.957031 672.914062 Z M 0.957031 0.871094 " fill-opacity="1" fill-rule="nonzero"/></g><g clip-path="url(#0032116196)"><path fill="#c8eaf6" d="M 610.671875 -12.34375 L 901.773438 -12.34375 L 901.773438 243.605469 L 610.671875 243.605469 Z M 610.671875 -12.34375 " fill-opacity="1" fill-rule="nonzero"/></g><g clip-path="url(#d0201c805e)"><path stroke-linecap="butt" transform="matrix(0.673054, 0, 0, 0.672615, 0.910196, -28.763959)" fill="none" stroke-linejoin="miter" d="M 905.96276 24.412477 L 1338.471368 24.412477 L 1338.471368 404.940789 L 905.96276 404.940789 Z M 905.96276 24.412477 " stroke="#ffffff" stroke-width="8" stroke-opacity="1" stroke-miterlimit="10"/></g><g clip-path="url(#a7dc49be24)"><path fill="#ca544c" d="M 587.738281 -28.765625 L 587.195312 266.675781 C 587.195312 266.675781 598.691406 276.523438 616.753906 270.503906 L 616.753906 257.917969 C 616.753906 257.917969 633.175781 262.296875 642.484375 257.917969 L 642.484375 268.308594 C 642.484375 268.308594 659.460938 274.875 664.929688 268.855469 L 653.4375 75.726562 L 659.453125 -28.765625 L 629.890625 -28.21875 L 623.324219 -26.578125 L 612.371094 -28.765625 Z M 587.738281 -28.765625 " fill-opacity="1" fill-rule="nonzero"/></g><g clip-path="url(#b5370913d8)"><path fill="#ca544c" d="M 930.0625 -28.765625 L 930.605469 266.675781 C 930.605469 266.675781 919.109375 276.523438 901.046875 270.503906 L 901.046875 257.917969 C 901.046875 257.917969 884.625 262.296875 875.316406 257.917969 L 875.316406 268.308594 C 875.316406 268.308594 858.339844 274.875 852.867188 268.855469 L 864.363281 75.726562 L 858.339844 -28.765625 L 887.902344 -28.21875 L 894.46875 -26.578125 L 905.425781 -28.765625 Z M 930.0625 -28.765625 " fill-opacity="1" fill-rule="nonzero"/></g><path stroke-linecap="butt" transform="matrix(0.673054, 0, 0, 0.672615, 0.910196, -28.763959)" fill="none" stroke-linejoin="miter" d="M 914.999231 426.237087 L 906.618586 253.421724 " stroke="#be1e2d" stroke-width="1" stroke-opacity="1" stroke-miterlimit="10"/><path stroke-linecap="butt" transform="matrix(0.673054, 0, 0, 0.672615, 0.910196, -28.763959)" fill="none" stroke-linejoin="miter" d="M 953.22867 426.237087 L 949.322732 263.840475 " stroke="#be1e2d" stroke-width="1" stroke-opacity="1" stroke-miterlimit="10"/><g clip-path="url(#f69e9c9771)"><path stroke-linecap="butt" transform="matrix(0.673054, 0, 0, 0.672615, 0.910196, -28.763959)" fill="none" stroke-linejoin="miter" d="M 908.4874 -0.0024767 L 905.527477 171.349382 " stroke="#be1e2d" stroke-width="1" stroke-opacity="1" stroke-miterlimit="10"/></g><g clip-path="url(#5deb60ebc7)"><path stroke-linecap="butt" transform="matrix(0.673054, 0, 0, 0.672615, 0.910196, -28.763959)" fill="none" stroke-linejoin="miter" d="M 924.761174 3.261368 L 926.438464 189.770941 " stroke="#be1e2d" stroke-width="1" stroke-opacity="1" stroke-miterlimit="10"/></g><path stroke-linecap="butt" transform="matrix(0.673054, 0, 0, 0.672615, 0.910196, -28.763959)" fill="none" stroke-linejoin="miter" d="M 1299.162428 426.237087 L 1299.690571 271.541291 " stroke="#be1e2d" stroke-width="1" stroke-opacity="1" stroke-miterlimit="10"/><g clip-path="url(#3abafc3109)"><path stroke-linecap="butt" transform="matrix(0.673054, 0, 0, 0.672615, 0.910196, -28.763959)" fill="none" stroke-linejoin="miter" d="M 1317.867982 0.822196 L 1317.908608 147.329342 " stroke="#be1e2d" stroke-width="1" stroke-opacity="1" stroke-miterlimit="10"/></g><g clip-path="url(#1db40328d8)"><path stroke-linecap="butt" transform="matrix(0.673054, 0, 0, 0.672615, 0.910196, -28.763959)" fill="none" stroke-linejoin="miter" d="M 1122.629132 22.612136 L 1122.629132 404.081271 " stroke="#ffffff" stroke-width="8" stroke-opacity="1" stroke-miterlimit="10"/></g><g clip-path="url(#bad984af43)"><path stroke-linecap="butt" transform="matrix(0.673054, 0, 0, 0.672615, 0.910196, -28.763959)" fill="none" stroke-linejoin="miter" d="M 1128.432903 27.600824 L 1128.432903 402.420311 " stroke="#d1d3d4" stroke-width="8" stroke-opacity="1" stroke-miterlimit="10"/></g><g clip-path="url(#1e4645b86e)"><path stroke-linecap="round" transform="matrix(0.673054, 0, 0, 0.672615, 0.910196, -28.763959)" fill="none" stroke-linejoin="miter" d="M 867.628854 209.371433 C 867.628854 209.371433 917.15243 247.550288 973.901701 211.427307 " stroke="#ffffff" stroke-width="2" stroke-opacity="1" stroke-miterlimit="10"/></g><g clip-path="url(#fd61977de4)"><path stroke-linecap="round" transform="matrix(0.673054, 0, 0, 0.672615, 0.910196, -28.763959)" fill="none" stroke-linejoin="miter" d="M 1278.268853 198.017666 C 1278.268853 198.017666 1327.79243 236.202329 1384.541701 200.079348 " stroke="#ffffff" stroke-width="2" stroke-opacity="1" stroke-miterlimit="10"/></g><g clip-path="url(#57e7118dde)"><path fill="#e2ae6d" d="M 899.085938 673.695312 L 0.910156 673.695312 L 0.910156 495.332031 L 899.085938 495.332031 Z M 899.085938 673.695312 " fill-opacity="1" fill-rule="nonzero"/></g><path fill="#ffffff" d="M 791.082031 4.410156 C 790.777344 6.46875 790.644531 7.859375 790.867188 10.269531 C 791.484375 16.53125 793.324219 35.175781 795.019531 52.347656 C 796.136719 63.632812 797.199219 74.429688 797.996094 82.460938 C 798.390625 86.476562 798.722656 89.796875 798.949219 92.152344 C 798.96875 92.234375 798.949219 92.609375 799.117188 92.832031 C 799.179688 92.960938 799.238281 93.082031 799.300781 93.203125 C 799.414062 93.4375 799.523438 93.660156 799.628906 93.867188 C 799.832031 94.285156 800.007812 94.640625 800.15625 94.9375 C 800.445312 95.523438 800.605469 95.859375 800.632812 95.910156 C 801.226562 97.121094 801.230469 97.144531 801.230469 97.144531 C 801.230469 97.144531 831.074219 158.074219 837.039062 170.242188 C 838.113281 172.410156 838.964844 173.523438 840.300781 175.121094 C 839.863281 173.082031 839.507812 171.730469 838.453125 169.558594 C 832.496094 157.390625 802.644531 96.457031 802.644531 96.457031 C 802.644531 96.457031 802.636719 96.445312 802.046875 95.226562 C 802.019531 95.171875 801.859375 94.84375 801.570312 94.25 C 801.425781 93.953125 801.253906 93.597656 801.042969 93.179688 C 800.941406 92.972656 800.835938 92.75 800.714844 92.515625 C 800.652344 92.394531 800.597656 92.273438 800.539062 92.152344 C 800.539062 92.140625 800.539062 92.210938 800.523438 92.003906 C 800.296875 89.65625 799.964844 86.328125 799.570312 82.3125 C 798.773438 74.28125 797.710938 63.484375 796.601562 52.199219 C 794.90625 35.035156 793.0625 16.390625 792.441406 10.125 C 792.191406 7.71875 791.789062 6.378906 791.089844 4.421875 Z M 791.082031 4.410156 " fill-opacity="1" fill-rule="nonzero"/><path fill="#ffffff" d="M 770.003906 103.007812 C 772.074219 102.800781 773.460938 102.589844 775.742188 101.789062 C 777.285156 101.238281 780.691406 100.023438 784.324219 98.730469 C 787.367188 97.640625 790.503906 96.515625 793.398438 95.480469 C 794.84375 94.964844 796.230469 94.464844 797.515625 94.007812 C 798.15625 93.78125 798.773438 93.558594 799.359375 93.347656 C 799.507812 93.296875 799.648438 93.25 799.792969 93.195312 L 800.054688 93.101562 C 800.128906 93.082031 800.1875 93.035156 800.25 92.992188 L 800.355469 92.917969 C 800.597656 92.757812 800.839844 92.601562 801.070312 92.449219 C 813.3125 84.402344 819.429688 80.382812 819.429688 80.382812 C 819.429688 80.382812 851.476562 59.328125 857.871094 55.125 C 859.886719 53.785156 860.882812 52.804688 862.296875 51.277344 C 860.332031 51.96875 859.035156 52.496094 857.007812 53.8125 C 850.605469 58.015625 818.570312 79.070312 818.570312 79.070312 C 818.570312 79.070312 812.445312 83.09375 800.203125 91.128906 C 799.972656 91.277344 799.738281 91.4375 799.488281 91.601562 L 799.414062 91.648438 L 799.359375 91.667969 L 799.253906 91.707031 C 799.113281 91.761719 798.964844 91.808594 798.820312 91.863281 C 798.238281 92.070312 797.617188 92.292969 796.976562 92.523438 C 795.691406 92.980469 794.304688 93.476562 792.859375 93.996094 C 789.964844 95.03125 786.828125 96.152344 783.785156 97.238281 C 780.152344 98.542969 776.753906 99.757812 775.210938 100.3125 C 772.9375 101.136719 771.738281 101.859375 770.003906 103.007812 Z M 770.003906 103.007812 " fill-opacity="1" fill-rule="nonzero"/><path fill="#ffffff" d="M 843.191406 22.347656 C 841.695312 23.800781 840.738281 24.824219 839.453125 26.875 C 832.992188 37.292969 800.625 89.480469 800.625 89.480469 C 800.625 89.480469 800.578125 89.5625 800.140625 90.261719 C 799.917969 90.617188 799.601562 91.121094 799.152344 91.863281 C 799.105469 91.957031 799.015625 92.039062 799.003906 92.152344 C 798.992188 92.246094 798.96875 92.339844 798.957031 92.433594 C 798.9375 92.550781 798.917969 92.664062 798.894531 92.785156 C 798.855469 93.027344 798.808594 93.289062 798.761719 93.570312 C 798.667969 94.128906 798.554688 94.761719 798.433594 95.480469 C 797.914062 98.5 789.589844 146.84375 787.816406 157.101562 C 787.421875 159.488281 787.453125 160.886719 787.609375 162.957031 C 788.449219 161.054688 788.949219 159.742188 789.371094 157.363281 C 791.136719 147.105469 799.46875 98.765625 799.988281 95.742188 C 800.214844 94.425781 800.382812 93.421875 800.519531 92.648438 C 800.960938 91.929688 801.273438 91.433594 801.488281 91.089844 C 801.917969 90.390625 801.972656 90.308594 801.972656 90.308594 C 801.972656 90.308594 834.339844 38.128906 840.800781 27.703125 C 842.066406 25.636719 842.558594 24.332031 843.195312 22.347656 Z M 843.191406 22.347656 " fill-opacity="1" fill-rule="nonzero"/><path fill="#ffffff" d="M 780.085938 65.746094 C 780.878906 67.667969 781.476562 68.933594 782.90625 70.882812 C 784.183594 72.621094 787.789062 77.496094 791.195312 82.109375 C 793.261719 84.902344 795.261719 87.605469 796.824219 89.710938 C 797.605469 90.765625 798.269531 91.667969 798.78125 92.355469 C 798.957031 92.582031 799.113281 92.796875 799.257812 92.984375 C 799.488281 93.09375 799.691406 93.1875 799.871094 93.273438 C 800.128906 93.394531 800.316406 93.484375 800.429688 93.539062 C 803.109375 94.808594 803.332031 94.917969 803.332031 94.917969 C 803.332031 94.917969 826.113281 105.757812 830.664062 107.925781 C 832.851562 108.953125 834.210938 109.296875 836.25 109.714844 C 834.640625 108.390625 833.519531 107.554688 831.335938 106.503906 C 826.789062 104.339844 804.003906 93.496094 804.003906 93.496094 C 804.003906 93.496094 803.78125 93.390625 801.105469 92.117188 C 800.996094 92.066406 800.808594 91.976562 800.550781 91.855469 C 800.113281 91.613281 800.449219 91.917969 800.054688 91.417969 C 799.542969 90.726562 798.875 89.824219 798.09375 88.769531 C 796.535156 86.664062 794.535156 83.953125 792.476562 81.160156 C 789.0625 76.554688 785.457031 71.675781 784.167969 69.941406 C 782.722656 68.003906 781.6875 67.0625 780.078125 65.738281 Z M 780.085938 65.746094 " fill-opacity="1" fill-rule="nonzero"/><path fill="#ffffff" d="M 776.027344 76.15625 C 777.414062 77.710938 778.394531 78.714844 780.378906 80.085938 C 781.828125 81.074219 785.542969 83.609375 789.210938 86.117188 C 791.539062 87.707031 793.855469 89.285156 795.785156 90.605469 C 796.757812 91.265625 797.625 91.855469 798.351562 92.355469 C 798.53125 92.476562 798.707031 92.597656 798.871094 92.710938 C 798.949219 92.765625 799.03125 92.816406 799.105469 92.871094 C 799.210938 92.933594 799.386719 93.09375 799.535156 93.140625 C 799.960938 93.160156 800.328125 93.179688 800.625 93.195312 C 806.683594 93.511719 808.023438 93.585938 808.023438 93.585938 C 808.023438 93.585938 832.9375 94.894531 837.914062 95.160156 C 840.328125 95.273438 841.714844 95.070312 843.761719 94.679688 C 841.769531 94.074219 840.410156 93.726562 837.992188 93.589844 C 833.019531 93.328125 808.105469 92.019531 808.105469 92.019531 C 808.105469 92.019531 806.765625 91.945312 800.707031 91.628906 C 800.519531 91.621094 800.289062 91.605469 800.019531 91.59375 C 799.792969 91.4375 799.527344 91.257812 799.238281 91.0625 C 798.511719 90.566406 797.644531 89.972656 796.675781 89.3125 C 794.742188 87.996094 792.429688 86.414062 790.105469 84.828125 C 786.429688 82.324219 782.714844 79.789062 781.269531 78.800781 C 779.261719 77.449219 777.976562 76.898438 776.027344 76.171875 Z M 776.027344 76.15625 " fill-opacity="1" fill-rule="nonzero"/><path fill="#ffffff" d="M 770.84375 82.777344 C 772.605469 83.890625 773.824219 84.578125 776.113281 85.351562 C 777.730469 85.890625 781.464844 87.128906 785.355469 88.417969 C 788.25 89.382812 791.203125 90.355469 793.839844 91.230469 C 795.160156 91.667969 796.398438 92.078125 797.515625 92.449219 C 798.074219 92.628906 798.601562 92.804688 799.089844 92.972656 C 799.191406 93.007812 799.394531 93.074219 799.339844 93.054688 C 799.339844 93.054688 799.304688 93.019531 799.429688 93.140625 C 799.601562 93.308594 799.765625 93.464844 799.917969 93.613281 C 808.0625 101.425781 811.308594 104.542969 811.308594 104.542969 C 811.308594 104.542969 834.890625 127.195312 839.601562 131.714844 C 841.359375 133.382812 842.535156 134.136719 844.339844 135.171875 C 843.230469 133.410156 842.429688 132.261719 840.691406 130.578125 C 835.980469 126.058594 812.398438 103.40625 812.398438 103.40625 C 812.398438 103.40625 809.152344 100.289062 801.015625 92.46875 C 800.863281 92.320312 800.691406 92.160156 800.523438 91.996094 L 800.355469 91.835938 C 800.261719 91.753906 800.195312 91.648438 800.058594 91.628906 C 799.90625 91.574219 799.75 91.527344 799.589844 91.472656 C 799.097656 91.3125 798.574219 91.136719 798.015625 90.949219 C 796.898438 90.578125 795.660156 90.167969 794.339844 89.730469 C 791.703125 88.855469 788.746094 87.875 785.851562 86.917969 C 781.960938 85.632812 778.21875 84.398438 776.605469 83.859375 C 774.304688 83.113281 772.917969 82.9375 770.835938 82.777344 Z M 770.84375 82.777344 " fill-opacity="1" fill-rule="nonzero"/><path fill="#ffffff" d="M 770.238281 117.242188 C 772.109375 116.320312 773.332031 115.648438 775.191406 114.097656 C 777.101562 112.492188 782.304688 108.105469 787.300781 103.902344 C 790.515625 101.183594 793.671875 98.527344 796.199219 96.402344 C 797.457031 95.339844 798.558594 94.410156 799.433594 93.671875 C 799.65625 93.492188 799.859375 93.316406 800.046875 93.15625 L 800.183594 93.039062 C 800.261719 93.007812 800.34375 92.972656 800.425781 92.9375 C 800.808594 92.785156 801.105469 92.65625 801.320312 92.574219 C 806.515625 90.449219 807.203125 90.167969 807.203125 90.167969 C 807.203125 90.167969 836.828125 78.039062 842.746094 75.621094 C 844.980469 74.691406 846.152344 73.917969 847.828125 72.6875 C 845.769531 72.988281 844.394531 73.257812 842.148438 74.160156 C 836.230469 76.582031 806.601562 88.707031 806.601562 88.707031 C 806.601562 88.707031 805.910156 88.992188 800.71875 91.117188 C 800.511719 91.203125 800.207031 91.324219 799.824219 91.480469 C 799.710938 91.527344 799.589844 91.574219 799.460938 91.628906 C 799.347656 91.65625 799.265625 91.75 799.179688 91.824219 L 799.03125 91.945312 C 798.84375 92.105469 798.632812 92.273438 798.417969 92.460938 C 797.542969 93.203125 796.441406 94.128906 795.175781 95.191406 C 792.648438 97.316406 789.492188 99.976562 786.277344 102.683594 C 781.28125 106.894531 776.085938 111.28125 774.175781 112.890625 C 772.332031 114.457031 771.457031 115.550781 770.238281 117.234375 Z M 770.238281 117.242188 " fill-opacity="1" fill-rule="nonzero"/><path fill="#ffffff" d="M 776.027344 139.226562 C 777.386719 137.65625 778.253906 136.550781 779.359375 134.398438 C 780.980469 131.199219 785.851562 121.585938 790.320312 112.769531 C 793.101562 107.277344 795.753906 102.046875 797.703125 98.179688 C 798.679688 96.25 799.488281 94.652344 800.046875 93.550781 C 800.1875 93.273438 800.308594 93.027344 800.417969 92.8125 C 800.445312 92.765625 800.519531 92.617188 800.539062 92.523438 C 800.550781 92.46875 800.570312 92.414062 800.585938 92.359375 C 800.613281 92.265625 800.640625 92.171875 800.660156 92.097656 C 800.753906 91.78125 800.800781 91.613281 800.800781 91.613281 C 800.800781 91.613281 800.800781 91.601562 801.070312 90.691406 C 801.21875 90.1875 811.328125 55.441406 813.375 48.398438 C 814.039062 46.070312 814.160156 44.679688 814.242188 42.601562 C 813.191406 44.402344 812.550781 45.640625 811.859375 47.960938 C 809.8125 55.003906 799.703125 89.75 799.554688 90.253906 C 799.292969 91.164062 799.285156 91.175781 799.285156 91.175781 C 799.285156 91.175781 799.238281 91.34375 799.144531 91.660156 C 799.125 91.742188 799.097656 91.828125 799.070312 91.921875 C 799.058594 91.96875 799.042969 92.019531 799.03125 92.070312 C 799.03125 92.085938 799.042969 92.042969 799.015625 92.097656 C 798.910156 92.3125 798.78125 92.554688 798.640625 92.839844 C 798.082031 93.949219 797.273438 95.535156 796.292969 97.464844 C 794.332031 101.332031 791.679688 106.566406 788.902344 112.054688 C 784.4375 120.871094 779.566406 130.492188 777.949219 133.691406 C 776.867188 135.859375 776.488281 137.203125 776.027344 139.234375 Z M 776.027344 139.226562 " fill-opacity="1" fill-rule="nonzero"/><path fill="#ffffff" d="M 771.265625 92.890625 C 773.300781 93.355469 774.671875 93.605469 777.097656 93.570312 C 778.671875 93.542969 782.285156 93.476562 786.066406 93.410156 C 788.847656 93.355469 791.6875 93.300781 794.246094 93.253906 C 795.523438 93.226562 796.722656 93.207031 797.8125 93.1875 C 798.359375 93.175781 798.871094 93.167969 799.355469 93.160156 C 799.46875 93.160156 799.574219 93.160156 799.683594 93.160156 C 799.683594 93.160156 799.839844 93.203125 799.839844 93.203125 C 800.054688 93.253906 800.261719 93.300781 800.457031 93.355469 C 810.789062 95.886719 815.054688 96.925781 815.054688 96.925781 C 815.054688 96.925781 844.75 104.191406 850.675781 105.644531 C 853.03125 106.210938 854.421875 106.269531 856.507812 106.261719 C 854.664062 105.296875 853.398438 104.703125 851.050781 104.117188 C 845.121094 102.664062 815.433594 95.402344 815.433594 95.402344 C 815.433594 95.402344 811.167969 94.359375 800.835938 91.824219 C 800.640625 91.777344 800.429688 91.722656 800.214844 91.667969 L 800.039062 91.628906 C 799.933594 91.59375 799.820312 91.574219 799.703125 91.585938 C 799.582031 91.585938 799.453125 91.585938 799.328125 91.59375 C 798.847656 91.601562 798.332031 91.613281 797.785156 91.621094 C 796.695312 91.640625 795.492188 91.660156 794.21875 91.6875 C 791.667969 91.734375 788.828125 91.789062 786.039062 91.84375 C 782.265625 91.917969 778.644531 91.984375 777.074219 92.015625 C 774.660156 92.078125 773.285156 92.375 771.273438 92.914062 Z M 771.265625 92.890625 " fill-opacity="1" fill-rule="nonzero"/><path fill="#ffffff" d="M 816.179688 126.476562 C 815.492188 128.441406 815.089844 129.777344 814.855469 132.1875 C 814.8125 132.597656 814.753906 133.253906 814.617188 134.632812 C 814.464844 136.28125 814.214844 138.964844 813.992188 141.285156 C 813.886719 142.445312 813.785156 143.511719 813.710938 144.3125 C 813.691406 144.515625 813.675781 144.695312 813.65625 144.859375 C 813.648438 145.027344 813.617188 145.121094 813.621094 145.421875 C 813.667969 145.699219 813.695312 145.875 813.703125 145.925781 C 813.84375 146.769531 813.851562 146.816406 813.851562 146.816406 C 813.851562 146.816406 814.996094 153.8125 815.636719 157.683594 C 815.9375 159.507812 816.125 160.636719 816.21875 161.230469 C 816.625 163.617188 817.117188 164.921875 817.945312 166.839844 C 818.113281 164.761719 818.160156 163.367188 817.777344 160.972656 C 817.679688 160.382812 817.492188 159.253906 817.195312 157.429688 C 816.558594 153.554688 815.40625 146.558594 815.40625 146.558594 C 815.40625 146.558594 815.398438 146.511719 815.257812 145.671875 C 815.257812 145.636719 815.230469 145.511719 815.199219 145.300781 C 815.21875 145.09375 815.246094 144.804688 815.277344 144.460938 C 815.351562 143.660156 815.453125 142.597656 815.566406 141.433594 C 815.785156 139.113281 816.039062 136.429688 816.195312 134.78125 C 816.320312 133.402344 816.382812 132.738281 816.421875 132.335938 C 816.636719 129.925781 816.496094 128.535156 816.179688 126.476562 Z M 816.179688 126.476562 " fill-opacity="1" fill-rule="nonzero"/><path fill="#ffffff" d="M 797.316406 65.496094 C 798.332031 63.679688 798.957031 62.429688 799.601562 60.09375 C 799.710938 59.699219 799.886719 59.058594 800.253906 57.722656 C 801.617188 52.730469 804.839844 40.914062 804.839844 40.914062 C 804.839844 40.914062 805.054688 40.117188 805.464844 38.640625 C 805.667969 37.898438 805.917969 36.984375 806.210938 35.90625 C 806.359375 35.371094 806.515625 34.792969 806.683594 34.179688 C 806.722656 34.023438 806.769531 33.871094 806.8125 33.707031 L 806.878906 33.464844 C 806.890625 33.371094 806.992188 33.164062 806.945312 33.007812 C 806.917969 32.652344 806.886719 32.28125 806.851562 31.90625 C 806.683594 29.894531 806.425781 26.863281 806.265625 25.019531 C 806.105469 23.175781 806.011719 22.039062 805.957031 21.441406 C 805.742188 19.03125 805.351562 17.6875 804.679688 15.714844 C 804.347656 17.773438 804.191406 19.160156 804.382812 21.574219 C 804.429688 22.171875 804.523438 23.308594 804.679688 25.152344 C 804.832031 27.003906 805.09375 30.035156 805.261719 32.039062 C 805.289062 32.375 805.316406 32.707031 805.34375 33.023438 C 805.277344 33.277344 805.210938 33.527344 805.140625 33.761719 C 804.972656 34.382812 804.820312 34.960938 804.671875 35.492188 C 804.375 36.566406 804.125 37.480469 803.925781 38.222656 C 803.519531 39.707031 803.304688 40.503906 803.304688 40.503906 C 803.304688 40.503906 800.074219 52.320312 798.714844 57.304688 C 798.351562 58.640625 798.175781 59.28125 798.070312 59.679688 C 797.441406 62.011719 797.347656 63.410156 797.300781 65.488281 Z M 797.316406 65.496094 " fill-opacity="1" fill-rule="nonzero"/><path fill="#ffffff" d="M 834.757812 69.332031 C 835.710938 67.480469 836.292969 66.210938 836.863281 63.855469 C 836.957031 63.457031 837.113281 62.804688 837.433594 61.460938 C 837.730469 60.195312 838.214844 58.164062 838.632812 56.402344 C 838.84375 55.523438 839.03125 54.707031 839.179688 54.089844 C 839.238281 53.832031 839.285156 53.625 839.328125 53.464844 C 839.328125 53.464844 839.359375 53.417969 839.375 53.394531 C 839.414062 53.34375 839.433594 53.308594 839.453125 53.289062 C 840.035156 52.46875 840.085938 52.402344 840.085938 52.402344 C 840.085938 52.402344 843.4375 47.679688 845.296875 45.0625 C 846.367188 43.550781 847.027344 42.621094 847.371094 42.128906 C 848.761719 40.152344 849.335938 38.875 850.089844 36.9375 C 848.507812 38.296875 847.492188 39.257812 846.085938 41.222656 C 845.734375 41.707031 845.074219 42.640625 843.996094 44.148438 C 842.140625 46.765625 838.792969 51.492188 838.792969 51.492188 C 838.792969 51.492188 838.746094 51.558594 838.164062 52.378906 C 838.148438 52.402344 838.121094 52.433594 838.082031 52.488281 C 838.0625 52.523438 838.035156 52.554688 838 52.601562 C 837.953125 52.667969 837.894531 52.742188 837.847656 52.832031 C 837.792969 53.058594 837.71875 53.367188 837.628906 53.730469 C 837.484375 54.351562 837.289062 55.164062 837.078125 56.046875 C 836.660156 57.808594 836.183594 59.847656 835.878906 61.105469 C 835.5625 62.457031 835.410156 63.101562 835.316406 63.5 C 834.769531 65.851562 834.722656 67.25 834.742188 69.335938 Z M 834.757812 69.332031 " fill-opacity="1" fill-rule="nonzero"/><path fill="#ffffff" d="M 779.632812 109.6875 C 779.351562 111.753906 779.222656 113.144531 779.472656 115.550781 C 779.511719 115.960938 779.585938 116.621094 779.734375 118 C 779.761719 118.242188 779.828125 118.820312 779.828125 118.820312 C 779.828125 118.820312 779.875 119.304688 779.902344 119.574219 C 780.105469 121.410156 780.226562 122.546875 780.292969 123.144531 C 780.5625 125.546875 780.980469 126.886719 781.699219 128.84375 C 781.980469 126.777344 782.109375 125.386719 781.859375 122.976562 C 781.800781 122.386719 781.679688 121.242188 781.484375 119.40625 C 781.449219 119.136719 781.398438 118.652344 781.398438 118.652344 C 781.398438 118.652344 781.335938 118.074219 781.316406 117.832031 C 781.167969 116.453125 781.09375 115.792969 781.046875 115.382812 C 780.777344 112.984375 780.359375 111.644531 779.640625 109.695312 Z M 779.632812 109.6875 " fill-opacity="1" fill-rule="nonzero"/><path fill="#ffffff" d="M 833.28125 93.78125 C 832.878906 94.230469 832.671875 94.527344 832.757812 94.921875 C 832.867188 95.355469 833.402344 97.507812 833.402344 97.507812 C 833.402344 97.507812 833.941406 99.660156 834.050781 100.089844 C 834.164062 100.484375 834.480469 100.640625 835.050781 100.847656 C 835.457031 100.398438 835.664062 100.101562 835.578125 99.707031 C 835.46875 99.273438 834.929688 97.121094 834.929688 97.121094 C 834.929688 97.121094 834.394531 94.96875 834.285156 94.539062 C 834.171875 94.144531 833.855469 93.988281 833.28125 93.78125 Z M 833.28125 93.78125 " fill-opacity="1" fill-rule="nonzero"/><path fill="#ffffff" d="M 782.285156 86.117188 C 781.664062 86.105469 781.296875 86.140625 781.019531 86.476562 C 780.730469 86.851562 779.296875 88.734375 779.296875 88.734375 C 779.296875 88.734375 777.863281 90.617188 777.574219 90.996094 C 777.316406 91.351562 777.386719 91.707031 777.566406 92.308594 C 778.1875 92.320312 778.554688 92.285156 778.832031 91.949219 C 779.121094 91.574219 780.554688 89.691406 780.554688 89.691406 C 780.554688 89.691406 781.988281 87.808594 782.277344 87.429688 C 782.535156 87.074219 782.46875 86.710938 782.285156 86.117188 Z M 782.285156 86.117188 " fill-opacity="1" fill-rule="nonzero"/><path fill="#231f20" d="M 222.046875 605.78125 C 222.046875 605.78125 219.175781 607.933594 220.613281 612.246094 L 222.046875 634.503906 C 222.046875 634.503906 226.355469 639.171875 237.136719 638.09375 L 246.835938 634.144531 L 246.835938 627.683594 L 265.15625 645.992188 C 265.15625 645.992188 269.148438 648.546875 283.71875 650.71875 C 298.617188 652.9375 303.097656 645.304688 303.097656 645.304688 C 303.097656 645.304688 314.359375 634.449219 309.332031 630.144531 L 222.046875 605.789062 Z M 222.046875 605.78125 " fill-opacity="1" fill-rule="nonzero"/><path fill="#be9e7d" d="M 228.875 585.675781 C 220.722656 598.179688 222.890625 608.203125 222.890625 608.203125 C 222.890625 608.203125 228.617188 620.519531 240.011719 620.140625 C 251.40625 619.765625 263.601562 637.460938 263.601562 637.460938 C 270.011719 642.175781 288.269531 645.21875 288.269531 645.21875 C 301.132812 647.363281 297.511719 640.003906 297.511719 640.003906 C 302.753906 640.257812 300.707031 636.316406 300.707031 636.316406 C 305.441406 637.523438 303.960938 633.632812 303.960938 633.632812 C 306.558594 631.980469 304.800781 629.789062 304.800781 629.789062 C 306.820312 629.28125 305.460938 627.957031 304.882812 627.585938 C 302.6875 626.203125 300.882812 625.972656 300.882812 625.972656 L 289.617188 623.808594 L 283.027344 620.789062 L 274.386719 611.183594 C 266.253906 600.890625 264.085938 593.847656 264.085938 593.847656 L 264.519531 584.316406 L 273.113281 519.457031 L 258.972656 516.398438 L 224.519531 525.28125 C 224.519531 525.28125 225.574219 555.046875 228.683594 565.929688 C 231.792969 576.8125 228.886719 585.671875 228.886719 585.671875 " fill-opacity="1" fill-rule="nonzero"/><path stroke-linecap="butt" transform="matrix(0.673054, 0, 0, 0.672615, 0.910196, -28.763959)" fill="none" stroke-linejoin="miter" d="M 440.668651 994.279678 C 440.668651 994.279678 439.780674 989.958858 432.961243 989.12257 " stroke="#603913" stroke-width="0.5" stroke-opacity="1" stroke-miterlimit="10"/><path stroke-linecap="butt" transform="matrix(0.673054, 0, 0, 0.672615, 0.910196, -28.763959)" fill="none" stroke-linejoin="miter" d="M 445.421939 988.797347 C 445.421939 988.797347 441.649488 983.570549 436.652442 983.791236 " stroke="#603913" stroke-width="0.5" stroke-opacity="1" stroke-miterlimit="10"/><path stroke-linecap="butt" transform="matrix(0.673054, 0, 0, 0.672615, 0.910196, -28.763959)" fill="none" stroke-linejoin="miter" d="M 450.250677 984.807558 C 450.250677 984.807558 446.182233 979.01162 440.639632 978.959352 " stroke="#603913" stroke-width="0.5" stroke-opacity="1" stroke-miterlimit="10"/><path stroke-linecap="butt" transform="matrix(0.673054, 0, 0, 0.672615, 0.910196, -28.763959)" fill="none" stroke-linejoin="miter" d="M 451.498487 979.092926 C 451.498487 979.092926 448.677855 975.097329 444.179932 975.021831 " stroke="#603913" stroke-width="0.5" stroke-opacity="1" stroke-miterlimit="10"/><path fill="#231f20" d="M 235.339844 620.5 L 230.3125 607.578125 L 220.613281 612.246094 C 220.613281 612.246094 217.382812 609.375 222.046875 605.78125 C 226.71875 602.191406 229.59375 602.191406 229.59375 602.191406 L 224.921875 593.574219 C 224.921875 593.574219 226 586.035156 228.875 585.675781 C 228.875 585.675781 230.671875 594.292969 233.902344 598.242188 C 233.902344 598.242188 250.578125 594.066406 264.230469 589.035156 L 265.15625 594.542969 L 234.257812 604.34375 L 240.003906 620.136719 L 235.335938 620.492188 Z M 235.339844 620.5 " fill-opacity="1" fill-rule="nonzero"/><path fill="#231f20" d="M 282.03125 619.152344 C 282.03125 619.152344 278.6875 626.328125 263.601562 637.460938 C 263.601562 637.460938 269.503906 646.050781 276.332031 646.050781 C 276.332031 646.050781 283.332031 624.851562 293.75 624.851562 C 293.75 624.851562 284.90625 618.433594 282.03125 619.152344 Z M 282.03125 619.152344 " fill-opacity="1" fill-rule="nonzero"/><path fill="#231f20" d="M 186.429688 616.050781 C 186.429688 616.050781 183.558594 618.203125 184.996094 622.515625 L 186.429688 644.773438 C 186.429688 644.773438 190.738281 649.441406 201.519531 648.363281 L 211.21875 644.417969 L 211.21875 637.953125 L 229.539062 656.261719 C 229.539062 656.261719 233.53125 658.816406 248.101562 660.988281 C 262.996094 663.210938 270.441406 657.503906 270.441406 657.503906 C 270.441406 657.503906 285.449219 647.402344 280.421875 643.097656 L 186.429688 616.058594 Z M 186.429688 616.050781 " fill-opacity="1" fill-rule="nonzero"/><path fill="#be9e7d" d="M 225.964844 587.230469 C 225.667969 562.1875 230.804688 530.339844 230.804688 530.339844 C 230.804688 530.339844 190.773438 513.914062 186.886719 531.1875 C 183.003906 548.46875 191.0625 576.199219 191.0625 576.199219 C 194.640625 594.683594 190.460938 602.136719 190.460938 602.136719 C 184.277344 613.292969 188.671875 621.515625 188.671875 621.515625 C 188.671875 621.515625 192.453125 629.511719 204.386719 630.414062 C 215.511719 631.253906 229.835938 649.832031 229.835938 649.832031 C 237.589844 659.367188 250.667969 656.488281 250.667969 656.488281 C 253.804688 657.566406 255.753906 655.144531 255.753906 655.144531 C 261.875 655.898438 263.144531 652.742188 263.144531 652.742188 C 268.847656 653.34375 271.074219 649.683594 271.074219 649.683594 C 274.585938 650.515625 276.148438 646.328125 276.148438 646.328125 C 280.34375 642.257812 279.023438 641.195312 277.527344 638.539062 C 276.035156 635.882812 266.859375 637.050781 266.859375 637.050781 L 253.855469 633.535156 L 246.40625 629.425781 L 237.292969 616.449219 C 232.226562 610.488281 229.539062 604.828125 229.539062 604.828125 L 225.960938 587.238281 Z M 225.964844 587.230469 " fill-opacity="1" fill-rule="nonzero"/><path stroke-linecap="butt" transform="matrix(0.673054, 0, 0, 0.672615, 0.910196, -28.763959)" fill="none" stroke-linejoin="miter" d="M 391.377226 993.42016 L 401.319085 997.131186 C 401.319085 997.131186 407.917972 998.199776 408.939436 1003.682106 " stroke="#603913" stroke-width="0.5" stroke-opacity="1" stroke-miterlimit="10"/><path stroke-linecap="butt" transform="matrix(0.673054, 0, 0, 0.672615, 0.910196, -28.763959)" fill="none" stroke-linejoin="miter" d="M 386.020345 997.282183 C 386.020345 997.282183 402.590111 1002.282486 401.78919 1006.458117 L 401.411945 1008.670794 " stroke="#603913" stroke-width="0.5" stroke-opacity="1" stroke-miterlimit="10"/><path stroke-linecap="butt" transform="matrix(0.673054, 0, 0, 0.672615, 0.910196, -28.763959)" fill="none" stroke-linejoin="miter" d="M 380.100499 1003.612416 C 380.100499 1003.612416 389.572253 1006.359388 389.618683 1013.218109 " stroke="#603913" stroke-width="0.5" stroke-opacity="1" stroke-miterlimit="10"/><path stroke-linecap="butt" transform="matrix(0.673054, 0, 0, 0.672615, 0.910196, -28.763959)" fill="none" stroke-linejoin="miter" d="M 374.871301 1011.301616 C 374.871301 1011.301616 379.792899 1012.561855 378.649556 1016.789754 " stroke="#603913" stroke-width="0.5" stroke-opacity="1" stroke-miterlimit="10"/><path fill="#231f20" d="M 199.722656 630.769531 L 194.695312 617.847656 L 184.996094 622.515625 C 184.996094 622.515625 181.765625 619.644531 186.429688 616.050781 C 191.101562 612.460938 193.976562 612.460938 193.976562 612.460938 L 189.304688 603.84375 C 189.304688 603.84375 190.382812 596.304688 193.253906 595.949219 C 193.253906 595.949219 195.050781 604.5625 198.285156 608.511719 C 198.285156 608.511719 214.960938 604.335938 228.609375 599.304688 L 229.539062 604.8125 L 198.640625 614.613281 L 204.386719 630.40625 L 199.71875 630.761719 Z M 199.722656 630.769531 " fill-opacity="1" fill-rule="nonzero"/><path stroke-linecap="butt" transform="matrix(0.673054, 0, 0, 0.672615, 0.910196, -28.763959)" fill="none" stroke-linejoin="miter" d="M 341.418367 946.169906 L 364.749525 978.552823 L 380.001835 986.358175 L 395.138069 989.889167 C 395.138069 989.889167 414.377569 986.520786 413.002076 998.408848 " stroke="#603913" stroke-width="0.5" stroke-opacity="1" stroke-miterlimit="10"/><path fill="#231f20" d="M 246.414062 629.417969 C 246.414062 629.417969 243.066406 636.59375 227.984375 647.726562 C 227.984375 647.726562 233.886719 656.316406 240.710938 656.316406 C 240.710938 656.316406 247.710938 635.113281 258.132812 635.113281 C 258.132812 635.113281 249.289062 628.699219 246.414062 629.417969 Z M 246.414062 629.417969 " fill-opacity="1" fill-rule="nonzero"/><path stroke-linecap="butt" transform="matrix(0.673054, 0, 0, 0.672615, 0.910196, -28.763959)" fill="none" stroke-linejoin="miter" d="M 335.719064 873.331574 L 340.280827 841.360993 " stroke="#603913" stroke-width="0.5" stroke-opacity="1" stroke-miterlimit="10"/><path fill="#be9e7d" d="M 327.121094 210.007812 C 327.121094 210.007812 334.699219 239.46875 336.769531 254.816406 C 336.769531 254.816406 380.957031 260.710938 392.582031 264.441406 C 392.582031 264.441406 400.039062 253.117188 405.402344 256.398438 L 404.507812 283.8125 C 404.507812 283.8125 397.199219 287.488281 393.699219 284.753906 C 393.699219 284.753906 338.324219 299.136719 314.769531 287.285156 C 300.339844 280.027344 302.308594 239.152344 302.308594 239.152344 " fill-opacity="1" fill-rule="nonzero"/><path fill="#be9e7d" d="M 244.332031 94.242188 C 244.332031 94.242188 243.605469 115.214844 236.378906 126.777344 C 236.378906 126.777344 223.515625 183.679688 270.136719 191.449219 C 270.136719 191.449219 306.316406 186.75 291.230469 138.695312 C 291.230469 138.695312 283.25 134.277344 284.164062 126.105469 C 285.132812 117.457031 285.261719 126.402344 285.261719 126.402344 L 244.332031 94.25 " fill-opacity="1" fill-rule="nonzero"/><path fill="#0f3e5d" d="M 174.828125 302.203125 C 174.828125 302.203125 137.640625 374.886719 167.105469 431.683594 L 177.398438 477.667969 C 177.398438 477.667969 185.050781 496.984375 182.230469 526.359375 C 180.441406 545.042969 184.894531 571.492188 189.632812 596.210938 C 189.632812 596.210938 202.1875 609.171875 224.472656 598.625 C 224.472656 598.625 243.324219 606.375 264.371094 596.386719 L 298.46875 515.339844 C 298.46875 515.339844 307.460938 501.25 307.460938 486.527344 C 307.460938 486.527344 314.445312 382.863281 306.027344 316.078125 C 306.027344 316.078125 254.832031 349.757812 174.835938 302.214844 Z M 174.828125 302.203125 " fill-opacity="1" fill-rule="nonzero"/><path fill="#be9e7d" d="M 253.175781 77.773438 C 253.175781 77.773438 266.03125 35.679688 304.886719 42.566406 C 304.886719 42.566406 332.003906 49.71875 320.28125 87.566406 C 320.28125 87.566406 317.183594 93.316406 317.367188 96.847656 C 317.367188 96.847656 317.292969 105.785156 311.132812 112.605469 C 301.914062 122.816406 293.730469 129.730469 293.730469 129.730469 C 293.730469 129.730469 288.558594 134.40625 279.054688 132.050781 C 279.054688 132.050781 272.445312 130.121094 265.394531 122.480469 C 265.394531 122.480469 246.507812 107.152344 250.890625 94.855469 C 250.890625 94.855469 239.890625 98.644531 239.601562 82.660156 C 239.601562 82.660156 241.34375 61.097656 253.175781 77.785156 Z M 253.175781 77.773438 " fill-opacity="1" fill-rule="nonzero"/><path fill="#26130f" d="M 291.515625 73.855469 C 291.515625 73.855469 279.761719 66.234375 272.65625 68.800781 C 272.65625 68.800781 278.949219 63.296875 292.691406 70.878906 C 292.691406 70.878906 294.730469 73.5625 291.515625 73.855469 Z M 291.515625 73.855469 " fill-opacity="1" fill-rule="nonzero"/><path fill="#26130f" d="M 323.378906 79.050781 C 323.25 78.296875 316.660156 76.628906 310.300781 76.5 C 310.300781 76.5 307.183594 77.804688 309.828125 79.667969 C 309.828125 79.667969 321.679688 78.335938 322.597656 82.277344 C 322.597656 82.277344 323.691406 80.898438 323.378906 79.050781 Z M 323.378906 79.050781 " fill-opacity="1" fill-rule="nonzero"/><path stroke-linecap="butt" transform="matrix(0.673054, 0, 0, 0.672615, 0.910196, -28.763959)" fill="none" stroke-linejoin="miter" d="M 446.338935 184.910019 C 446.338935 184.910019 451.051597 198.668112 437.018079 196.379936 " stroke="#231f20" stroke-width="0.7" stroke-opacity="1" stroke-miterlimit="10"/><path stroke-linecap="butt" transform="matrix(0.673054, 0, 0, 0.672615, 0.910196, -28.763959)" fill="none" stroke-linejoin="miter" d="M 358.191264 159.902694 C 358.191264 159.902694 366.647358 148.107554 371.058224 171.912715 C 371.058224 171.912715 365.010695 160.297608 361.342712 167.882273 " stroke="#231f20" stroke-width="0.7" stroke-opacity="1" stroke-miterlimit="10"/><path fill="#26130f" d="M 284.742188 132.625 C 284.742188 132.625 281.097656 134.535156 271.902344 128.25 C 271.902344 128.25 263.824219 122.902344 258.132812 115.121094 C 258.132812 115.121094 264.597656 127.808594 276.648438 132.683594 C 276.648438 132.683594 280.375 134.855469 285.53125 134.4375 C 285.53125 134.4375 285.429688 133.324219 284.742188 132.625 Z M 284.742188 132.625 " fill-opacity="1" fill-rule="nonzero"/><path stroke-linecap="butt" transform="matrix(0.673054, 0, 0, 0.672615, 0.910196, -28.763959)" fill="none" stroke-linejoin="miter" d="M 332.149745 932.748651 L 368.707697 789.441467 C 368.707697 789.441467 373.368125 761.47229 371.040813 725.349309 L 366.380385 625.128363 C 366.380385 625.128363 372.909627 623.75778 379.467888 616.689988 " stroke="#231f20" stroke-width="1" stroke-opacity="1" stroke-miterlimit="10"/><path fill="#ffffff" d="M 275.820312 78.109375 C 275.820312 78.109375 275.878906 77.824219 276.140625 77.636719 C 277.015625 77.019531 278.949219 75.929688 281.464844 76.5 C 284.285156 77.144531 285.234375 80.144531 285.542969 81.214844 C 285.597656 81.398438 285.558594 81.539062 285.558594 81.539062 C 285.558594 81.539062 285.53125 81.699219 285.410156 81.785156 C 284.839844 82.203125 283.007812 83.320312 280.328125 82.75 C 278.734375 82.414062 276.699219 81.046875 275.8125 78.570312 C 275.75 78.398438 275.785156 78.207031 275.8125 78.109375 Z M 275.820312 78.109375 " fill-opacity="1" fill-rule="nonzero"/><path fill="#26130f" d="M 284.507812 79.9375 C 284.507812 80.332031 284.433594 80.714844 284.28125 81.082031 C 284.128906 81.445312 283.914062 81.769531 283.632812 82.050781 C 283.351562 82.328125 283.03125 82.546875 282.664062 82.695312 C 282.296875 82.847656 281.917969 82.921875 281.519531 82.925781 C 281.125 82.921875 280.742188 82.847656 280.375 82.695312 C 280.011719 82.546875 279.6875 82.328125 279.40625 82.050781 C 279.125 81.769531 278.910156 81.445312 278.757812 81.082031 C 278.605469 80.714844 278.53125 80.332031 278.53125 79.9375 C 278.53125 79.542969 278.605469 79.160156 278.757812 78.792969 C 278.910156 78.429688 279.125 78.105469 279.40625 77.824219 C 279.6875 77.546875 280.011719 77.328125 280.375 77.179688 C 280.742188 77.027344 281.125 76.949219 281.519531 76.949219 C 281.917969 76.949219 282.296875 77.027344 282.664062 77.179688 C 283.03125 77.328125 283.351562 77.546875 283.632812 77.824219 C 283.914062 78.105469 284.128906 78.429688 284.28125 78.792969 C 284.433594 79.160156 284.507812 79.542969 284.507812 79.9375 Z M 284.507812 79.9375 " fill-opacity="1" fill-rule="nonzero"/><path fill="#ffffff" d="M 280.851562 78.128906 C 280.851562 78.355469 280.773438 78.546875 280.613281 78.707031 C 280.453125 78.867188 280.257812 78.949219 280.03125 78.949219 C 279.804688 78.949219 279.613281 78.867188 279.453125 78.707031 C 279.292969 78.546875 279.210938 78.355469 279.210938 78.128906 C 279.210938 77.902344 279.292969 77.707031 279.453125 77.546875 C 279.613281 77.386719 279.804688 77.308594 280.03125 77.308594 C 280.257812 77.308594 280.453125 77.386719 280.613281 77.546875 C 280.773438 77.707031 280.851562 77.902344 280.851562 78.128906 Z M 280.851562 78.128906 " fill-opacity="1" fill-rule="nonzero"/><path stroke-linecap="butt" transform="matrix(0.673054, 0, 0, 0.672615, 0.910196, -28.763959)" fill="none" stroke-linejoin="miter" d="M 423.158675 163.567261 C 423.158675 163.567261 420.349649 152.410951 408.782734 158.119776 " stroke="#231f20" stroke-width="1" stroke-opacity="1" stroke-miterlimit="10"/><path fill="#ffffff" d="M 308.125 88.007812 C 308.125 88.007812 308.144531 87.734375 308.359375 87.523438 C 309.082031 86.824219 310.730469 85.535156 313.152344 85.707031 C 315.867188 85.902344 317.179688 88.558594 317.621094 89.507812 C 317.695312 89.671875 317.683594 89.8125 317.683594 89.8125 C 317.683594 89.8125 317.683594 89.964844 317.582031 90.058594 C 317.109375 90.53125 315.570312 91.828125 312.992188 91.679688 C 311.464844 91.59375 309.371094 90.617188 308.191406 88.445312 C 308.113281 88.296875 308.117188 88.109375 308.125 88.007812 Z M 308.125 88.007812 " fill-opacity="1" fill-rule="nonzero"/><path fill="#26130f" d="M 316.492188 88.890625 C 316.492188 89.261719 316.421875 89.617188 316.277344 89.960938 C 316.136719 90.304688 315.933594 90.605469 315.671875 90.867188 C 315.410156 91.128906 315.105469 91.332031 314.761719 91.476562 C 314.421875 91.617188 314.0625 91.6875 313.691406 91.6875 C 313.320312 91.6875 312.964844 91.617188 312.621094 91.476562 C 312.277344 91.332031 311.972656 91.128906 311.710938 90.867188 C 311.449219 90.605469 311.246094 90.304688 311.105469 89.960938 C 310.960938 89.617188 310.890625 89.261719 310.890625 88.890625 C 310.890625 88.519531 310.960938 88.160156 311.105469 87.820312 C 311.246094 87.476562 311.449219 87.171875 311.710938 86.910156 C 311.972656 86.648438 312.277344 86.445312 312.621094 86.304688 C 312.964844 86.164062 313.320312 86.09375 313.691406 86.09375 C 314.0625 86.09375 314.421875 86.164062 314.761719 86.304688 C 315.105469 86.445312 315.410156 86.648438 315.671875 86.910156 C 315.933594 87.171875 316.136719 87.476562 316.277344 87.820312 C 316.421875 88.160156 316.492188 88.519531 316.492188 88.890625 Z M 316.492188 88.890625 " fill-opacity="1" fill-rule="nonzero"/><path fill="#ffffff" d="M 312.734375 87.449219 C 312.734375 87.667969 312.660156 87.851562 312.503906 88.007812 C 312.351562 88.160156 312.164062 88.238281 311.949219 88.238281 C 311.730469 88.238281 311.546875 88.160156 311.390625 88.007812 C 311.238281 87.851562 311.160156 87.667969 311.160156 87.449219 C 311.160156 87.234375 311.238281 87.046875 311.390625 86.894531 C 311.546875 86.742188 311.730469 86.664062 311.949219 86.664062 C 312.164062 86.664062 312.351562 86.742188 312.503906 86.894531 C 312.660156 87.046875 312.734375 87.234375 312.734375 87.449219 Z M 312.734375 87.449219 " fill-opacity="1" fill-rule="nonzero"/><path stroke-linecap="butt" transform="matrix(0.673054, 0, 0, 0.672615, 0.910196, -28.763959)" fill="none" stroke-linejoin="miter" d="M 470.610305 175.978002 C 470.610305 175.978002 466.750797 165.448908 456.65804 173.050995 " stroke="#231f20" stroke-width="1" stroke-opacity="1" stroke-miterlimit="10"/><path fill="#ffffff" d="M 236.378906 126.777344 C 236.378906 126.777344 232.078125 130.835938 214.53125 135.394531 C 165.957031 148.027344 170.726562 222.726562 170.726562 222.726562 L 189.492188 228.390625 L 174.828125 302.210938 C 174.828125 302.210938 198.046875 330.949219 252.046875 333.695312 C 252.046875 333.695312 287.96875 336.097656 307.117188 323.351562 C 307.117188 323.351562 306.019531 277.230469 310.105469 244.339844 C 310.105469 244.339844 319.199219 238.945312 320.972656 223.164062 L 328.679688 210.640625 L 327.515625 179.8125 C 327.515625 179.8125 326.996094 157.800781 305.265625 145.820312 C 305.265625 145.820312 296.941406 142.953125 291.238281 138.703125 C 291.238281 138.703125 292.160156 162.863281 288.519531 171.777344 C 288.519531 171.777344 270.421875 187.105469 242.058594 164.820312 C 242.058594 164.820312 232.992188 149.316406 236.386719 126.785156 Z M 236.378906 126.777344 " fill-opacity="1" fill-rule="nonzero"/><path stroke-linecap="butt" transform="matrix(0.673054, 0, 0, 0.672615, 0.910196, -28.763959)" fill-opacity="1" fill="#ffffff" fill-rule="nonzero" stroke-linejoin="miter" d="M 475.531902 374.538248 L 477.081509 336.121283 " stroke="#808285" stroke-width="1" stroke-opacity="1" stroke-miterlimit="10"/><path stroke-linecap="butt" transform="matrix(0.673054, 0, 0, 0.672615, 0.910196, -28.763959)" fill-opacity="1" fill="#ffffff" fill-rule="nonzero" stroke-linejoin="miter" d="M 293.368948 359.020465 L 309.898087 335.412761 " stroke="#808285" stroke-width="1" stroke-opacity="1" stroke-miterlimit="10"/><path fill="#bf6b6b" d="M 295.304688 117.320312 C 295.304688 117.320312 293.667969 111 287.933594 110.207031 C 287.933594 110.207031 285.308594 105.878906 274.742188 109.371094 C 274.742188 109.371094 275.699219 115.136719 283.839844 118.214844 C 291.984375 121.296875 295.304688 117.320312 295.304688 117.320312 Z M 295.304688 117.320312 " fill-opacity="1" fill-rule="nonzero"/><path fill="#803435" d="M 294.484375 117.167969 C 294.484375 117.167969 288.9375 109.070312 275.710938 109.984375 C 275.710938 109.984375 281.5 113.035156 283.78125 115.054688 C 286.0625 117.074219 288.574219 116.339844 288.574219 116.339844 C 288.574219 116.339844 291.777344 116.105469 294.484375 117.171875 Z M 294.484375 117.167969 " fill-opacity="1" fill-rule="nonzero"/><path fill="#ffffff" d="M 291.515625 114.289062 C 291.515625 114.289062 287.5625 110.859375 281.769531 110.351562 Z M 291.515625 114.289062 " fill-opacity="1" fill-rule="nonzero"/><path fill="#3c2415" d="M 310.449219 48.210938 C 310.449219 48.210938 275.335938 87.445312 240.179688 79.507812 C 240.179688 79.507812 239.769531 95.453125 250.964844 94.679688 C 250.964844 94.679688 251.785156 116.851562 239.136719 125.972656 C 239.136719 125.972656 225.480469 133.300781 214.652344 135.273438 C 203.824219 137.246094 187.15625 153.039062 187.15625 153.039062 C 187.15625 153.039062 214.457031 127.8125 221.949219 89.628906 C 229.445312 51.445312 252.390625 35.140625 252.390625 35.140625 C 252.390625 35.140625 283.445312 6.179688 313.097656 32.753906 C 313.097656 32.753906 331.246094 37.90625 334.914062 57.289062 C 337.035156 68.503906 331.804688 87.101562 327.46875 101.925781 C 327.46875 101.925781 318.523438 137.230469 300.164062 143.890625 C 300.164062 143.890625 284.460938 141.738281 284.863281 132.507812 C 284.863281 132.507812 288.726562 132.421875 293.84375 128.5 C 300.828125 123.144531 306.09375 117.832031 311.765625 111.140625 C 311.765625 111.140625 317.789062 104.535156 317.683594 93.953125 C 317.683594 93.953125 318.101562 88.507812 320.382812 85.824219 C 320.382812 85.824219 327.992188 64.425781 310.449219 48.21875 " fill-opacity="1" fill-rule="nonzero"/><path stroke-linecap="butt" transform="matrix(0.673054, 0, 0, 0.672615, 0.910196, -28.763959)" fill="none" stroke-linejoin="miter" d="M 366.821471 172.551545 C 366.821471 172.551545 356.049673 182.540537 362.607934 191.890698 C 369.171999 201.229243 369.171999 182.377926 369.171999 182.377926 " stroke="#fbb040" stroke-width="1" stroke-opacity="1" stroke-miterlimit="10"/><path fill="#be9e7d" d="M 421.777344 597.695312 C 421.777344 621.050781 414.535156 622.199219 414.535156 622.199219 C 402.617188 628.289062 390.636719 632.15625 390.636719 632.15625 C 390.636719 632.15625 377.058594 642.628906 407.886719 639.390625 C 443.34375 635.671875 443.160156 626.644531 443.160156 626.644531 C 443.160156 626.644531 436.449219 619.246094 441.214844 601.320312 L 421.785156 597.703125 " fill-opacity="1" fill-rule="nonzero"/><path fill="#808285" d="M 444.566406 640.8125 C 444.566406 640.8125 444.566406 642.484375 443.847656 647.175781 L 390.980469 652.527344 C 390.980469 652.527344 375.15625 652.191406 374.433594 643.824219 " fill-opacity="1" fill-rule="nonzero"/><path fill="#d1d3d4" d="M 443.132812 625.414062 C 443.132812 625.414062 447.449219 632.445312 444.574219 640.816406 L 394.222656 647.847656 C 394.222656 647.847656 380.195312 650.1875 374.441406 643.832031 C 368.6875 637.46875 409.683594 624.414062 409.683594 624.414062 C 409.683594 624.414062 425.863281 638.46875 443.125 625.414062 Z M 443.132812 625.414062 " fill-opacity="1" fill-rule="nonzero"/><path stroke-linecap="butt" transform="matrix(0.673054, 0, 0, 0.672615, 0.910196, -28.763959)" fill="none" stroke-linejoin="miter" d="M 584.538326 980.138285 L 600.359405 986.96216 L 602.738951 973.140184 L 620.341788 980.690003 " stroke="#ffffff" stroke-width="1" stroke-opacity="1" stroke-miterlimit="10"/><path stroke-linecap="butt" transform="matrix(0.673054, 0, 0, 0.672615, 0.910196, -28.763959)" fill="none" stroke-linejoin="miter" d="M 614.607662 971.037849 L 607.219462 985.748382 L 595.849875 976.601485 L 587.60852 992.938133 " stroke="#ffffff" stroke-width="1" stroke-opacity="1" stroke-miterlimit="10"/><path fill="#be9e7d" d="M 465.558594 218.011719 C 465.558594 218.011719 457.582031 238.628906 470.835938 242.257812 C 470.835938 242.257812 467.96875 276.554688 436.269531 277.546875 C 436.269531 277.546875 406.238281 275.417969 420.578125 244.808594 L 428.730469 240.445312 C 428.859375 234.605469 426.972656 231.664062 426.972656 231.664062 L 462.148438 215.214844 " fill-opacity="1" fill-rule="nonzero"/><path fill="#be9e7d" d="M 457.726562 603.089844 C 457.726562 626.445312 450.484375 627.59375 450.484375 627.59375 C 438.5625 633.679688 426.582031 637.550781 426.582031 637.550781 C 426.582031 637.550781 413.007812 648.023438 443.832031 644.785156 C 479.289062 641.066406 479.109375 632.039062 479.109375 632.039062 C 479.109375 632.039062 472.398438 624.640625 477.164062 606.714844 L 457.730469 603.097656 " fill-opacity="1" fill-rule="nonzero"/><path fill="#be9e7d" d="M 428.777344 170.839844 C 428.777344 170.839844 424.726562 175.738281 422.429688 188.882812 C 422.429688 188.882812 421.460938 193.757812 419.5625 196.246094 C 419.5625 196.246094 415.78125 206.542969 417.632812 215.390625 C 419.488281 224.234375 425.828125 230.839844 425.828125 230.839844 C 425.828125 230.839844 432.554688 235.324219 439.175781 234.308594 C 445.796875 233.292969 454.617188 234.234375 464.570312 221.242188 C 464.570312 221.242188 467.921875 226.210938 472.835938 219.902344 C 477.75 213.59375 481.996094 212.121094 480.644531 205.257812 C 479.289062 198.390625 469.457031 208.761719 469.457031 208.761719 C 469.457031 208.761719 477.816406 198.632812 477.242188 186.128906 C 476.671875 173.625 463.976562 161.816406 463.976562 161.816406 C 463.976562 161.816406 444.425781 149.964844 428.785156 170.839844 Z M 428.777344 170.839844 " fill-opacity="1" fill-rule="nonzero"/><path fill="#231f20" d="M 447.023438 190.375 C 447.023438 190.375 455.585938 191.058594 461.789062 195.675781 C 461.789062 195.675781 459.769531 190.226562 447.425781 188.398438 C 447.425781 188.398438 445.097656 188.976562 447.015625 190.375 Z M 447.023438 190.375 " fill-opacity="1" fill-rule="nonzero"/><path fill="#231f20" d="M 422.625 182.753906 C 428.527344 184.019531 432.191406 186.324219 432.191406 186.324219 C 434.558594 186.367188 433.050781 184.503906 433.050781 184.503906 C 429.640625 182.640625 425.433594 181.496094 423.164062 181.03125 C 423.164062 181.03125 422.300781 182.6875 422.625 182.753906 Z M 422.625 182.753906 " fill-opacity="1" fill-rule="nonzero"/><path fill="#231f20" d="M 453.398438 198.15625 C 453.398438 198.492188 453.332031 198.816406 453.203125 199.125 C 453.074219 199.4375 452.890625 199.710938 452.65625 199.949219 C 452.417969 200.1875 452.140625 200.371094 451.832031 200.5 C 451.519531 200.628906 451.195312 200.691406 450.859375 200.691406 C 450.523438 200.691406 450.199219 200.628906 449.890625 200.5 C 449.578125 200.371094 449.304688 200.1875 449.066406 199.949219 C 448.828125 199.710938 448.644531 199.4375 448.515625 199.125 C 448.386719 198.816406 448.324219 198.492188 448.324219 198.15625 C 448.324219 197.820312 448.386719 197.496094 448.515625 197.1875 C 448.644531 196.875 448.828125 196.601562 449.066406 196.363281 C 449.304688 196.125 449.578125 195.941406 449.890625 195.8125 C 450.199219 195.683594 450.523438 195.621094 450.859375 195.621094 C 451.195312 195.621094 451.519531 195.683594 451.832031 195.8125 C 452.140625 195.941406 452.417969 196.125 452.65625 196.363281 C 452.890625 196.601562 453.074219 196.875 453.203125 197.1875 C 453.332031 197.496094 453.398438 197.820312 453.398438 198.15625 Z M 453.398438 198.15625 " fill-opacity="1" fill-rule="nonzero"/><path stroke-linecap="butt" transform="matrix(0.673054, 0, 0, 0.672615, 0.910196, -28.763959)" fill="none" stroke-linejoin="miter" d="M 641.502336 341.551345 C 641.502336 341.551345 632.378808 345.117183 638.820994 351.220921 " stroke="#231f20" stroke-width="0.7" stroke-opacity="1" stroke-miterlimit="10"/><path fill="#26130f" d="M 426.140625 230.992188 C 426.140625 230.992188 433.953125 235.65625 441.625 233.953125 C 441.625 233.953125 445.746094 234.175781 453.417969 231.234375 C 453.417969 231.234375 448.445312 236.449219 435.292969 235.480469 C 435.292969 235.480469 431.171875 235.128906 425.816406 233.449219 C 425.816406 233.449219 425.363281 231.632812 426.140625 231 Z M 426.140625 230.992188 " fill-opacity="1" fill-rule="nonzero"/><path fill="#9054a2" d="M 402.917969 299.007812 L 402.265625 340.292969 L 397.097656 378.253906 C 397.097656 378.253906 432.164062 394.773438 495.757812 378.496094 C 482.5625 330.40625 486.640625 303.964844 486.640625 303.964844 L 511.429688 298.261719 C 511.429688 298.261719 503.585938 257.386719 486.5 248.710938 C 466.71875 238.667969 467.550781 240.234375 467.550781 240.234375 C 467.550781 240.234375 455.382812 264.777344 432.472656 264.21875 C 432.472656 264.21875 411.210938 264.058594 428.515625 240.421875 L 408.894531 248.933594 C 408.894531 248.933594 395.28125 255.488281 394.183594 292.4375 C 394.183594 292.4375 396.269531 297.648438 402.933594 298.996094 " fill-opacity="1" fill-rule="nonzero"/><path fill="#0f3e5d" d="M 495.753906 378.503906 C 495.753906 378.503906 506.59375 407.304688 499.332031 429.832031 C 499.332031 429.832031 483.597656 505.003906 483.597656 515.140625 C 483.597656 515.140625 489.320312 563.035156 482.660156 604.707031 C 482.660156 604.707031 467.613281 615.714844 453.101562 605.015625 L 446.742188 559.660156 L 444.703125 600.972656 C 444.703125 600.972656 433.617188 610.429688 416.070312 599.726562 L 401.136719 521.355469 C 401.136719 521.355469 397.125 511.082031 398.335938 502.070312 L 397.097656 378.257812 C 397.097656 378.257812 432.054688 394.652344 495.757812 378.496094 Z M 495.753906 378.503906 " fill-opacity="1" fill-rule="nonzero"/><path fill="#808285" d="M 480.515625 646.207031 C 480.515625 646.207031 480.515625 647.878906 479.792969 652.570312 L 426.925781 657.921875 C 426.925781 657.921875 411.101562 657.585938 410.382812 649.21875 " fill-opacity="1" fill-rule="nonzero"/><path fill="#d1d3d4" d="M 479.082031 630.800781 C 479.082031 630.800781 483.394531 637.832031 480.523438 646.207031 L 430.171875 653.234375 C 430.171875 653.234375 416.144531 655.574219 410.390625 649.21875 C 404.636719 642.855469 445.628906 629.800781 445.628906 629.800781 C 445.628906 629.800781 461.8125 643.859375 479.074219 630.804688 Z M 479.082031 630.800781 " fill-opacity="1" fill-rule="nonzero"/><path stroke-linecap="butt" transform="matrix(0.673054, 0, 0, 0.672615, 0.910196, -28.763959)" fill="none" stroke-linejoin="miter" d="M 637.950428 988.152709 L 653.771507 994.970776 L 656.151053 981.1488 L 673.748087 988.698619 " stroke="#ffffff" stroke-width="1" stroke-opacity="1" stroke-miterlimit="10"/><path stroke-linecap="butt" transform="matrix(0.673054, 0, 0, 0.672615, 0.910196, -28.763959)" fill="none" stroke-linejoin="miter" d="M 668.031372 979.052273 L 660.631565 993.762805 L 649.261977 984.610101 L 641.020623 1000.952556 " stroke="#ffffff" stroke-width="1" stroke-opacity="1" stroke-miterlimit="10"/><path stroke-linecap="butt" transform="matrix(0.673054, 0, 0, 0.672615, 0.910196, -28.763959)" fill="none" stroke-linejoin="miter" d="M 709.360024 357.510501 C 709.360024 357.510501 707.711753 351.761024 702.662473 355.518511 C 697.618996 359.281805 696.922543 360.838229 696.922543 360.838229 C 696.922543 360.838229 704.380389 354.699646 704.450034 361.517713 " stroke="#231f20" stroke-width="0.7" stroke-opacity="1" stroke-miterlimit="10"/><path stroke-linecap="butt" transform="matrix(0.673054, 0, 0, 0.672615, 0.910196, -28.763959)" fill="none" stroke-linejoin="miter" d="M 662.390107 874.841537 C 662.390107 874.841537 651.46741 820.959058 654.079107 783.337728 L 659.290893 678.970189 C 659.290893 678.970189 651.98975 677.541531 644.64798 670.177553 " stroke="#0c3149" stroke-width="1" stroke-opacity="1" stroke-miterlimit="10"/><path stroke-linecap="butt" transform="matrix(0.673054, 0, 0, 0.672615, 0.910196, -28.763959)" fill="none" stroke-linejoin="miter" d="M 647.091367 324.337757 C 647.091367 324.337757 652.848708 322.688412 655.071552 327.671293 " stroke="#a579b5" stroke-width="1" stroke-opacity="1" stroke-miterlimit="10"/><path stroke-linecap="butt" transform="matrix(0.673054, 0, 0, 0.672615, 0.910196, -28.763959)" fill="none" stroke-linejoin="miter" d="M 683.637712 335.610218 C 683.637712 335.610218 672.430631 324.541022 654.781364 327.752599 C 654.781364 327.752599 652.250919 342.439901 661.078455 345.018454 C 669.900186 347.602816 675.349927 352.910919 683.64932 335.610218 Z M 683.637712 335.610218 " stroke="#a579b5" stroke-width="1" stroke-opacity="1" stroke-miterlimit="10"/><path stroke-linecap="butt" transform="matrix(0.673054, 0, 0, 0.672615, 0.910196, -28.763959)" fill="none" stroke-linejoin="miter" d="M 683.637712 335.610218 L 706.678682 344.211204 " stroke="#a579b5" stroke-width="1" stroke-opacity="1" stroke-miterlimit="10"/><path fill="#ffffff" d="M 455.8125 199.644531 C 455.8125 199.644531 455.902344 199.40625 455.792969 199.144531 C 455.445312 198.285156 454.535156 196.582031 452.414062 195.835938 C 450.046875 194.996094 447.960938 196.757812 447.230469 197.394531 C 447.105469 197.503906 447.070312 197.632812 447.070312 197.632812 C 447.070312 197.632812 447.015625 197.757812 447.0625 197.878906 C 447.285156 198.453125 448.113281 200.121094 450.34375 200.949219 C 451.667969 201.4375 453.792969 201.386719 455.597656 199.984375 C 455.726562 199.890625 455.785156 199.730469 455.8125 199.644531 Z M 455.8125 199.644531 " fill-opacity="1" fill-rule="nonzero"/><path fill="#26130f" d="M 453.382812 198.332031 C 453.382812 198.675781 453.316406 199.007812 453.1875 199.324219 C 453.054688 199.644531 452.867188 199.921875 452.625 200.167969 C 452.378906 200.410156 452.097656 200.597656 451.78125 200.730469 C 451.460938 200.863281 451.128906 200.925781 450.785156 200.925781 C 450.441406 200.925781 450.109375 200.863281 449.792969 200.730469 C 449.472656 200.597656 449.191406 200.410156 448.949219 200.167969 C 448.707031 199.921875 448.519531 199.644531 448.386719 199.324219 C 448.253906 199.007812 448.1875 198.675781 448.1875 198.332031 C 448.1875 197.988281 448.253906 197.65625 448.386719 197.335938 C 448.519531 197.019531 448.707031 196.738281 448.949219 196.496094 C 449.191406 196.25 449.472656 196.0625 449.792969 195.933594 C 450.109375 195.800781 450.441406 195.734375 450.785156 195.734375 C 451.128906 195.734375 451.460938 195.800781 451.78125 195.933594 C 452.097656 196.0625 452.378906 196.25 452.625 196.496094 C 452.867188 196.738281 453.054688 197.019531 453.1875 197.335938 C 453.316406 197.65625 453.382812 197.988281 453.382812 198.332031 Z M 453.382812 198.332031 " fill-opacity="1" fill-rule="nonzero"/><path fill="#ffffff" d="M 452.773438 199.574219 C 452.773438 199.773438 452.703125 199.941406 452.5625 200.078125 C 452.421875 200.21875 452.253906 200.289062 452.058594 200.289062 C 451.859375 200.289062 451.691406 200.21875 451.554688 200.078125 C 451.414062 199.941406 451.34375 199.773438 451.34375 199.574219 C 451.34375 199.378906 451.414062 199.210938 451.554688 199.070312 C 451.691406 198.933594 451.859375 198.863281 452.058594 198.863281 C 452.253906 198.863281 452.421875 198.933594 452.5625 199.070312 C 452.703125 199.210938 452.773438 199.378906 452.773438 199.574219 Z M 452.773438 199.574219 " fill-opacity="1" fill-rule="nonzero"/><path stroke-linecap="butt" transform="matrix(0.673054, 0, 0, 0.672615, 0.910196, -28.763959)" fill="none" stroke-linejoin="miter" d="M 662.91825 336.167743 C 662.91825 336.167743 670.16716 329.2916 675.99995 338.862448 " stroke="#231f20" stroke-width="0.5" stroke-opacity="1" stroke-miterlimit="10"/><path fill="#ffffff" d="M 430.660156 192.191406 C 430.660156 192.191406 430.777344 191.988281 430.714844 191.734375 C 430.515625 190.890625 429.921875 189.210938 428.085938 188.222656 C 426.03125 187.117188 423.863281 188.4375 423.109375 188.921875 C 422.980469 189.003906 422.929688 189.109375 422.929688 189.109375 C 422.929688 189.109375 422.859375 189.21875 422.886719 189.339844 C 423.007812 189.898438 423.535156 191.539062 425.460938 192.613281 C 426.601562 193.253906 428.5625 193.5 430.414062 192.472656 C 430.539062 192.398438 430.621094 192.265625 430.660156 192.191406 Z M 430.660156 192.191406 " fill-opacity="1" fill-rule="nonzero"/><path fill="#26130f" d="M 428.628906 190.28125 C 428.628906 190.597656 428.566406 190.902344 428.445312 191.195312 C 428.324219 191.488281 428.152344 191.75 427.925781 191.972656 C 427.703125 192.199219 427.445312 192.371094 427.148438 192.492188 C 426.855469 192.613281 426.550781 192.675781 426.234375 192.675781 C 425.914062 192.675781 425.609375 192.613281 425.316406 192.492188 C 425.023438 192.371094 424.761719 192.199219 424.539062 191.972656 C 424.3125 191.75 424.140625 191.488281 424.019531 191.195312 C 423.898438 190.902344 423.835938 190.597656 423.835938 190.28125 C 423.835938 189.960938 423.898438 189.65625 424.019531 189.363281 C 424.140625 189.070312 424.3125 188.8125 424.539062 188.585938 C 424.761719 188.363281 425.023438 188.1875 425.316406 188.066406 C 425.609375 187.945312 425.914062 187.886719 426.234375 187.886719 C 426.550781 187.886719 426.855469 187.945312 427.148438 188.066406 C 427.445312 188.1875 427.703125 188.363281 427.925781 188.585938 C 428.152344 188.8125 428.324219 189.070312 428.445312 189.363281 C 428.566406 189.65625 428.628906 189.960938 428.628906 190.28125 Z M 428.628906 190.28125 " fill-opacity="1" fill-rule="nonzero"/><path fill="#ffffff" d="M 428.191406 191.308594 C 428.191406 191.496094 428.125 191.652344 427.996094 191.785156 C 427.863281 191.917969 427.703125 191.980469 427.519531 191.980469 C 427.332031 191.980469 427.175781 191.917969 427.042969 191.785156 C 426.910156 191.652344 426.84375 191.496094 426.84375 191.308594 C 426.84375 191.125 426.910156 190.964844 427.042969 190.832031 C 427.175781 190.703125 427.332031 190.636719 427.519531 190.636719 C 427.703125 190.636719 427.863281 190.703125 427.996094 190.832031 C 428.125 190.964844 428.191406 191.125 428.191406 191.308594 Z M 428.191406 191.308594 " fill-opacity="1" fill-rule="nonzero"/><path stroke-linecap="butt" transform="matrix(0.673054, 0, 0, 0.672615, 0.910196, -28.763959)" fill="none" stroke-linejoin="miter" d="M 627.17863 323.722157 C 627.17863 323.722157 634.798981 317.879758 638.612058 328.002323 " stroke="#231f20" stroke-width="0.5" stroke-opacity="1" stroke-miterlimit="10"/><path fill="#1fa8df" d="M 449.152344 310.851562 C 449.152344 310.851562 471.152344 294.078125 456.808594 282.1875 C 442.46875 270.292969 438.234375 281.695312 438.234375 281.695312 C 438.234375 281.695312 430.898438 289.839844 437.910156 311.5 C 437.910156 311.5 439.378906 319.484375 452.253906 327.136719 C 465.128906 334.792969 474.746094 325.671875 473.109375 320.621094 C 471.484375 315.566406 467.402344 309.710938 449.152344 310.847656 Z M 449.152344 310.851562 " fill-opacity="1" fill-rule="nonzero"/><path stroke-linecap="butt" transform="matrix(0.673054, 0, 0, 0.672615, 0.910196, -28.763959)" fill="none" stroke-linejoin="miter" d="M 660.022169 539.71087 C 660.022169 539.71087 659.029724 500.219507 618.56003 464.189447 " stroke="#ffffff" stroke-width="0.7" stroke-opacity="1" stroke-miterlimit="10"/><path stroke-linecap="butt" transform="matrix(0.673054, 0, 0, 0.672615, 0.910196, -28.763959)" fill="none" stroke-linejoin="miter" d="M 652.372799 510.591798 C 652.372799 510.591798 642.251022 491.827593 610.411536 479.248433 " stroke="#ffffff" stroke-width="0.7" stroke-opacity="1" stroke-miterlimit="10"/><path stroke-linecap="butt" transform="matrix(0.673054, 0, 0, 0.672615, 0.910196, -28.763959)" fill-opacity="1" fill="#ffffff" fill-rule="nonzero" stroke-linejoin="miter" d="M 620.23732 465.03735 C 620.23732 465.03735 615.269292 456.598975 612.349995 460.14739 C 609.430698 463.701613 613.058055 466.297589 620.23732 465.03735 Z M 620.23732 465.03735 " stroke="#ffffff" stroke-width="0.5" stroke-opacity="1" stroke-miterlimit="10"/><path stroke-linecap="butt" transform="matrix(0.673054, 0, 0, 0.672615, 0.910196, -28.763959)" fill-opacity="1" fill="#ffffff" fill-rule="nonzero" stroke-linejoin="miter" d="M 613.748704 480.717744 C 613.748704 480.717744 609.639634 476.919604 608.629778 479.341353 C 607.619922 481.757296 610.028487 482.587776 613.748704 480.717744 Z M 613.748704 480.717744 " stroke="#ffffff" stroke-width="0.5" stroke-opacity="1" stroke-miterlimit="10"/><path stroke-linecap="butt" transform="matrix(0.673054, 0, 0, 0.672615, 0.910196, -28.763959)" fill-opacity="1" fill="#ffffff" fill-rule="nonzero" stroke-linejoin="miter" d="M 713.898573 496.659477 L 708.988583 462.197456 " stroke="#662d91" stroke-width="1" stroke-opacity="1" stroke-miterlimit="10"/><path fill="#ffffff" d="M 584.917969 613.777344 C 584.917969 615.078125 584.855469 616.378906 584.726562 617.671875 C 584.601562 618.964844 584.410156 620.25 584.15625 621.527344 C 583.902344 622.804688 583.585938 624.0625 583.207031 625.308594 C 582.828125 626.554688 582.390625 627.777344 581.894531 628.976562 C 581.394531 630.179688 580.839844 631.355469 580.226562 632.5 C 579.613281 633.648438 578.945312 634.761719 578.222656 635.84375 C 577.496094 636.925781 576.722656 637.96875 575.898438 638.976562 C 575.070312 639.980469 574.199219 640.945312 573.277344 641.863281 C 572.359375 642.785156 571.394531 643.65625 570.386719 644.480469 C 569.382812 645.304688 568.339844 646.082031 567.253906 646.804688 C 566.171875 647.527344 565.058594 648.195312 563.910156 648.808594 C 562.761719 649.421875 561.585938 649.976562 560.382812 650.472656 C 559.183594 650.972656 557.957031 651.410156 556.710938 651.785156 C 555.464844 652.164062 554.207031 652.480469 552.929688 652.734375 C 551.652344 652.988281 550.367188 653.179688 549.070312 653.304688 C 547.773438 653.433594 546.476562 653.496094 545.175781 653.496094 C 543.875 653.496094 542.574219 653.433594 541.28125 653.304688 C 539.984375 653.179688 538.699219 652.988281 537.421875 652.734375 C 536.144531 652.480469 534.882812 652.164062 533.636719 651.785156 C 532.390625 651.410156 531.167969 650.972656 529.964844 650.472656 C 528.761719 649.976562 527.589844 649.421875 526.441406 648.808594 C 525.292969 648.195312 524.175781 647.527344 523.09375 646.804688 C 522.011719 646.082031 520.96875 645.304688 519.960938 644.480469 C 518.957031 643.65625 517.992188 642.785156 517.070312 641.863281 C 516.152344 640.945312 515.277344 639.980469 514.453125 638.976562 C 513.628906 637.96875 512.851562 636.925781 512.128906 635.84375 C 511.40625 634.761719 510.738281 633.648438 510.125 632.5 C 509.511719 631.355469 508.953125 630.179688 508.457031 628.976562 C 507.957031 627.777344 507.519531 626.554688 507.144531 625.308594 C 506.765625 624.0625 506.449219 622.804688 506.195312 621.527344 C 505.941406 620.25 505.75 618.964844 505.621094 617.671875 C 505.496094 616.378906 505.429688 615.078125 505.429688 613.777344 C 505.429688 612.476562 505.496094 611.179688 505.621094 609.886719 C 505.75 608.589844 505.941406 607.304688 506.195312 606.03125 C 506.449219 604.753906 506.765625 603.492188 507.144531 602.25 C 507.519531 601.003906 507.957031 599.78125 508.457031 598.578125 C 508.953125 597.378906 509.511719 596.203125 510.125 595.054688 C 510.738281 593.910156 511.40625 592.792969 512.128906 591.710938 C 512.851562 590.632812 513.628906 589.585938 514.453125 588.582031 C 515.277344 587.578125 516.152344 586.613281 517.070312 585.695312 C 517.992188 584.773438 518.957031 583.902344 519.960938 583.078125 C 520.96875 582.25 522.011719 581.476562 523.09375 580.753906 C 524.175781 580.03125 525.292969 579.363281 526.441406 578.75 C 527.589844 578.136719 528.761719 577.582031 529.964844 577.085938 C 531.167969 576.585938 532.390625 576.148438 533.636719 575.769531 C 534.882812 575.394531 536.144531 575.078125 537.421875 574.824219 C 538.699219 574.570312 539.984375 574.378906 541.28125 574.253906 C 542.574219 574.125 543.875 574.0625 545.175781 574.0625 C 546.476562 574.0625 547.773438 574.125 549.070312 574.253906 C 550.367188 574.378906 551.652344 574.570312 552.929688 574.824219 C 554.207031 575.078125 555.464844 575.394531 556.710938 575.769531 C 557.957031 576.148438 559.183594 576.585938 560.382812 577.085938 C 561.585938 577.582031 562.761719 578.136719 563.910156 578.75 C 565.058594 579.363281 566.171875 580.03125 567.253906 580.753906 C 568.335938 581.476562 569.382812 582.25 570.386719 583.078125 C 571.394531 583.902344 572.359375 584.773438 573.277344 585.695312 C 574.199219 586.613281 575.070312 587.578125 575.898438 588.582031 C 576.722656 589.585938 577.496094 590.632812 578.222656 591.710938 C 578.945312 592.792969 579.613281 593.910156 580.226562 595.054688 C 580.839844 596.203125 581.394531 597.378906 581.894531 598.578125 C 582.390625 599.78125 582.828125 601.003906 583.207031 602.25 C 583.585938 603.496094 583.902344 604.753906 584.15625 606.03125 C 584.410156 607.304688 584.601562 608.589844 584.726562 609.886719 C 584.855469 611.179688 584.917969 612.476562 584.917969 613.777344 Z M 584.917969 613.777344 " fill-opacity="1" fill-rule="nonzero"/><path fill="#231f20" d="M 543.484375 589.445312 L 530.078125 599.6875 L 535.691406 615.59375 L 552.558594 615.179688 L 557.378906 599.015625 Z M 543.484375 589.445312 " fill-opacity="1" fill-rule="nonzero"/><path fill="#231f20" d="M 516.617188 641.390625 L 516.558594 626.671875 L 531.140625 628.964844 L 537.28125 642.285156 L 532.757812 652.042969 C 532.757812 652.042969 523.589844 648.957031 516.617188 641.390625 Z M 516.617188 641.390625 " fill-opacity="1" fill-rule="nonzero"/><path fill="#231f20" d="M 575.988281 638.875 L 575.160156 625.652344 L 560.675781 628.507812 L 555.0625 642.054688 L 561.785156 649.835938 C 561.785156 649.835938 569.3125 646.710938 575.988281 638.875 Z M 575.988281 638.875 " fill-opacity="1" fill-rule="nonzero"/><path fill="#231f20" d="M 516.300781 587.507812 L 520.761719 597.527344 L 511.691406 611.746094 L 504.941406 609.351562 C 504.941406 609.351562 505.0625 596.304688 516.292969 587.5 Z M 516.300781 587.507812 " fill-opacity="1" fill-rule="nonzero"/><path fill="#231f20" d="M 571.203125 585.132812 L 571.429688 597.644531 L 579.957031 609.964844 L 585.511719 607.320312 C 585.511719 607.320312 581.59375 590.445312 571.203125 585.132812 Z M 571.203125 585.132812 " fill-opacity="1" fill-rule="nonzero"/><path stroke-linecap="butt" transform="matrix(0.673054, 0, 0, 0.672615, 0.910196, -28.763959)" fill-opacity="1" fill="#231f20" fill-rule="nonzero" stroke-linejoin="miter" d="M 794.55938 957.988277 L 787.797987 977.867532 " stroke="#231f20" stroke-width="2" stroke-opacity="1" stroke-miterlimit="10"/><path stroke-linecap="butt" transform="matrix(0.673054, 0, 0, 0.672615, 0.910196, -28.763959)" fill-opacity="1" fill="#231f20" fill-rule="nonzero" stroke-linejoin="miter" d="M 819.620062 957.372677 L 831.66869 977.188048 " stroke="#231f20" stroke-width="2" stroke-opacity="1" stroke-miterlimit="10"/><path stroke-linecap="butt" transform="matrix(0.673054, 0, 0, 0.672615, 0.910196, -28.763959)" fill-opacity="1" fill="#231f20" fill-rule="nonzero" stroke-linejoin="miter" d="M 853.20068 972.942727 L 860.32771 949.619593 " stroke="#231f20" stroke-width="2" stroke-opacity="1" stroke-miterlimit="10"/><path stroke-linecap="butt" transform="matrix(0.673054, 0, 0, 0.672615, 0.910196, -28.763959)" fill-opacity="1" fill="#231f20" fill-rule="nonzero" stroke-linejoin="miter" d="M 823.328671 997.328643 L 796.921514 997.671289 " stroke="#231f20" stroke-width="2" stroke-opacity="1" stroke-miterlimit="10"/><path stroke-linecap="butt" transform="matrix(0.673054, 0, 0, 0.672615, 0.910196, -28.763959)" fill-opacity="1" fill="#231f20" fill-rule="nonzero" stroke-linejoin="miter" d="M 766.13251 974.458498 L 758.912619 952.267837 " stroke="#231f20" stroke-width="2" stroke-opacity="1" stroke-miterlimit="10"/><path stroke-linecap="butt" transform="matrix(0.673054, 0, 0, 0.672615, 0.910196, -28.763959)" fill-opacity="1" fill="#231f20" fill-rule="nonzero" stroke-linejoin="miter" d="M 772.388975 931.128343 L 786.219361 934.33992 " stroke="#231f20" stroke-width="2" stroke-opacity="1" stroke-miterlimit="10"/><path stroke-linecap="butt" transform="matrix(0.673054, 0, 0, 0.672615, 0.910196, -28.763959)" fill-opacity="1" fill="#231f20" fill-rule="nonzero" stroke-linejoin="miter" d="M 806.137902 919.112516 L 803.352092 903.937379 L 789.88154 901.161369 C 789.88154 901.161369 797.39162 896.17268 816.967739 898.391166 L 805.609759 903.710885 " stroke="#231f20" stroke-width="2" stroke-opacity="1" stroke-miterlimit="10"/><path stroke-linecap="butt" transform="matrix(0.673054, 0, 0, 0.672615, 0.910196, -28.763959)" fill-opacity="1" fill="#231f20" fill-rule="nonzero" stroke-linejoin="miter" d="M 826.781915 933.341021 L 847.658079 931.30257 " stroke="#231f20" stroke-width="2" stroke-opacity="1" stroke-miterlimit="10"/><path stroke-linecap="butt" transform="matrix(0.673054, 0, 0, 0.672615, 0.910196, -28.763959)" fill="none" stroke-linejoin="miter" d="M 693.30099 399.952101 C 693.30099 399.952101 672.871717 438.537484 641.177325 435.610478 C 641.177325 435.610478 607.178835 431.550998 635.62892 399.510727 " stroke="#75308e" stroke-width="2" stroke-opacity="1" stroke-miterlimit="10"/><path stroke-linecap="butt" transform="matrix(0.673054, 0, 0, 0.672615, 0.910196, -28.763959)" fill-opacity="1" fill="#ffffff" fill-rule="nonzero" stroke-linejoin="miter" d="M 597.631632 487.100245 L 601.282204 458.858113 " stroke="#662d91" stroke-width="1" stroke-opacity="1" stroke-miterlimit="10"/><path fill="#be9e7d" d="M 510.046875 299.148438 C 510.046875 299.148438 518.011719 335.464844 510.53125 353.71875 L 498.082031 395.683594 C 498.082031 395.683594 496.023438 403.773438 498.382812 408.394531 C 498.382812 408.394531 501.5625 418.324219 496.730469 423.625 C 496.730469 423.625 492.449219 435.765625 479.007812 440.417969 C 479.007812 440.417969 475.183594 437.882812 481.148438 433.113281 C 481.148438 433.113281 488.195312 427.015625 484.703125 419.386719 C 484.703125 419.386719 481.867188 416.90625 481.734375 421.539062 C 481.597656 426.171875 480.617188 433.542969 476.691406 432.550781 C 472.769531 431.554688 474.914062 424.09375 474.914062 424.09375 C 474.914062 424.09375 475.515625 417.476562 475.164062 412.652344 C 475.164062 412.652344 476.046875 404.191406 481.324219 399.847656 L 490.703125 338.234375 L 481.398438 305.652344 C 481.398438 305.652344 495.148438 301.019531 510.054688 299.15625 Z M 510.046875 299.148438 " fill-opacity="1" fill-rule="nonzero"/><path fill="#be8c8c" d="M 424.679688 214.238281 C 424.679688 214.238281 429.355469 212.941406 433.878906 215.550781 C 433.878906 215.550781 438.457031 214.6875 443.316406 218.8125 C 443.316406 218.8125 439.847656 223.554688 432.335938 221.226562 C 424.828125 218.898438 424.679688 214.230469 424.679688 214.230469 Z M 424.679688 214.238281 " fill-opacity="1" fill-rule="nonzero"/><path stroke-linecap="butt" transform="matrix(0.673054, 0, 0, 0.672615, 0.910196, -28.763959)" fill="none" stroke-linejoin="miter" d="M 629.622017 361.279603 C 629.622017 361.279603 635.222656 368.637773 657.311808 368.080248 " stroke="#231f20" stroke-width="0.8" stroke-opacity="1" stroke-miterlimit="10"/><path fill="#301c12" d="M 408.882812 248.945312 C 404.582031 248.664062 402.507812 243.503906 395.84375 242.28125 C 389.179688 241.054688 395.21875 234.734375 395.21875 234.734375 C 385.109375 238.125 386.5625 231.882812 386.5625 231.882812 C 380.121094 233.527344 381.160156 227.507812 381.160156 227.507812 C 378.246094 226.667969 378.804688 224.726562 380.808594 221.441406 C 382.8125 218.160156 378.417969 215.140625 378.417969 215.140625 C 371.761719 211.460938 378.351562 208.105469 378.351562 208.105469 C 369.117188 198.769531 377.726562 200.558594 377.726562 200.558594 C 375.257812 192.121094 381.691406 192.929688 381.691406 192.929688 C 372.683594 184.011719 383.203125 182.839844 383.203125 182.839844 C 378.78125 176.296875 388.609375 173.882812 388.609375 173.882812 C 378.050781 160.652344 393.367188 164.734375 393.367188 164.734375 C 392.519531 154.316406 399.410156 158.410156 399.410156 158.410156 C 396.761719 148.175781 407.730469 150.292969 407.730469 150.292969 C 410.8125 142.066406 423.816406 146.875 423.816406 146.875 C 427.660156 133.605469 436.515625 144.234375 436.515625 144.234375 C 439.167969 141.140625 440.582031 147.164062 440.582031 147.164062 C 441.707031 143.277344 446.25 142.140625 446.25 142.140625 C 449.601562 137.851562 452.265625 143.175781 452.265625 143.175781 C 464.683594 141.507812 470.660156 154.8125 470.660156 154.8125 C 470.660156 154.8125 480.460938 146.417969 487.980469 155.613281 C 487.980469 155.613281 492.238281 155.445312 490.699219 159.554688 C 490.699219 159.554688 500.8125 153.710938 498.96875 166.152344 C 498.96875 166.152344 509.949219 165.816406 504.117188 177.464844 C 504.117188 177.464844 509.8125 178.410156 507.429688 185.4375 C 507.429688 185.4375 514.273438 188.46875 509.390625 194.421875 C 509.390625 194.421875 518.542969 199.179688 513.710938 203.738281 C 513.710938 203.738281 515.445312 209.851562 511.328125 210.769531 C 511.328125 210.769531 515.667969 215.179688 508.199219 217.929688 C 508.199219 217.929688 515.175781 221.703125 509.738281 227.144531 C 509.738281 227.144531 510.316406 233.628906 504.339844 233.65625 C 504.339844 233.65625 508.023438 240.335938 502.605469 240.875 C 502.605469 240.875 506.285156 247.554688 496.75 246.550781 C 496.75 246.550781 498.503906 247.761719 493.214844 251.496094 C 493.214844 251.496094 489.949219 257.917969 487.125 259.203125 C 487.125 259.203125 479.929688 263.441406 482.925781 255.53125 C 482.925781 255.53125 478.402344 265.09375 473.65625 256.007812 C 473.65625 256.007812 474.691406 249.996094 470.324219 255.394531 C 465.949219 260.796875 464.289062 259.261719 464.535156 254.777344 C 464.535156 254.777344 458.585938 260.777344 455.550781 254.285156 C 455.550781 254.285156 457.617188 260.496094 450.078125 256.210938 C 450.078125 256.210938 445.367188 252.5625 452.058594 247.277344 C 452.058594 247.277344 449.035156 242.28125 455.234375 240.464844 C 461.441406 238.648438 457.5625 237.179688 457.5625 237.179688 C 457.5625 237.179688 455.53125 234.699219 459.898438 231.496094 C 464.265625 228.289062 459.898438 231.496094 459.898438 231.496094 C 459.898438 231.496094 459.246094 228.699219 464.3125 219.957031 C 469.382812 211.210938 464.3125 219.957031 464.3125 219.957031 C 464.3125 219.957031 469.171875 224.636719 475.589844 214.722656 C 480.582031 207.007812 482.296875 206.925781 479.054688 203.894531 C 476.449219 201.457031 470.34375 207.894531 470.34375 207.894531 C 470.34375 207.894531 466.953125 205.351562 469.886719 202.933594 C 472.820312 200.515625 472.378906 198.492188 472.378906 198.492188 C 472.378906 198.492188 469.253906 195.007812 472.175781 190.871094 C 475.097656 186.730469 472.714844 186.042969 472.714844 186.042969 C 472.714844 186.042969 466.320312 184.367188 468.835938 178.046875 C 468.835938 178.046875 463.9375 177.144531 466.226562 171.613281 C 466.226562 171.613281 461.292969 173.800781 458.453125 168.164062 C 455.613281 162.527344 453.457031 167.578125 453.457031 167.578125 C 453.457031 167.578125 452.527344 173.15625 446.726562 170.621094 C 440.925781 168.082031 441.101562 169.851562 441.101562 169.851562 C 441.101562 169.851562 440.171875 175.429688 435.804688 173.304688 C 435.804688 173.304688 433.675781 177.675781 430.148438 174.417969 C 426.625 171.164062 425.808594 175.746094 425.808594 175.746094 C 425.808594 175.746094 422.121094 185.511719 422.128906 190.839844 C 422.128906 196.164062 422.128906 190.839844 422.128906 190.839844 C 422.128906 190.839844 420.671875 194.390625 419.699219 196.421875 C 418.722656 198.453125 412.597656 217.144531 426.964844 231.671875 C 441.335938 246.195312 426.964844 231.671875 426.964844 231.671875 C 426.964844 231.671875 430.136719 239.140625 428.722656 240.449219 " fill-opacity="1" fill-rule="nonzero"/><path stroke-linecap="butt" transform="matrix(0.673054, 0, 0, 0.672615, 0.910196, -28.763959)" fill="none" stroke-linejoin="miter" d="M 647.201639 324.082225 C 647.201639 324.082225 635.988754 313.007221 618.339487 316.218798 C 618.339487 316.218798 615.809043 330.911908 624.642382 333.490461 C 633.45831 336.069015 638.90805 341.377118 647.207443 324.082225 Z M 647.201639 324.082225 " stroke="#a579b5" stroke-width="1" stroke-opacity="1" stroke-miterlimit="10"/><path fill="#be9e7d" d="M 295.722656 310.898438 C 295.722656 310.898438 305.589844 316.148438 305.789062 321.546875 C 306 326.949219 332.570312 344.308594 332.570312 344.308594 C 332.570312 344.308594 337.074219 347.707031 340.3125 343.1875 C 340.3125 343.1875 346.703125 346.011719 347.882812 339.566406 C 347.882812 339.566406 349.734375 342.65625 354.257812 339.621094 C 354.257812 339.621094 357.777344 338.363281 353.953125 333.566406 C 353.953125 333.566406 357.574219 338.820312 361.203125 335.714844 C 364.238281 333.109375 361.128906 331.152344 361.128906 331.152344 L 337.957031 306.058594 L 326.191406 296.472656 L 318.464844 293.921875 L 311.140625 291.71875 C 311.140625 291.71875 300.472656 303.617188 295.714844 310.898438 Z M 295.722656 310.898438 " fill-opacity="1" fill-rule="nonzero"/><path stroke-linecap="butt" transform="matrix(0.673054, 0, 0, 0.672615, 0.910196, -28.763959)" fill-opacity="1" fill="#ffffff" fill-rule="nonzero" stroke-linejoin="miter" d="M 524.538943 538.68874 L 516.10026 529.838029 " stroke="#754c29" stroke-width="0.7" stroke-opacity="1" stroke-miterlimit="10"/><path stroke-linecap="butt" transform="matrix(0.673054, 0, 0, 0.672615, 0.910196, -28.763959)" fill-opacity="1" fill="#ffffff" fill-rule="nonzero" stroke-linejoin="miter" d="M 515.519883 547.609142 L 506.68074 538.770046 " stroke="#754c29" stroke-width="0.7" stroke-opacity="1" stroke-miterlimit="10"/><path stroke-linecap="butt" transform="matrix(0.673054, 0, 0, 0.672615, 0.910196, -28.763959)" fill-opacity="1" fill="#ffffff" fill-rule="nonzero" stroke-linejoin="miter" d="M 504.121277 553.050819 L 497.342473 545.460347 " stroke="#754c29" stroke-width="0.7" stroke-opacity="1" stroke-miterlimit="10"/><path fill="#be9e7d" d="M 364.539062 308.875 L 353.914062 307.246094 L 345.183594 301.78125 L 335.324219 300.3125 C 335.324219 300.3125 325.152344 305.585938 326.136719 309.75 C 327.121094 313.914062 338.023438 308.695312 338.023438 308.695312 L 340.875 309.40625 L 357.972656 327.828125 L 368.203125 330.269531 C 368.203125 330.269531 372.019531 316.121094 364.546875 308.875 Z M 364.539062 308.875 " fill-opacity="1" fill-rule="nonzero"/><path fill="#be9e7d" d="M 311.148438 291.71875 C 311.148438 291.71875 258.546875 259.855469 237.503906 253.800781 C 237.503906 253.800781 229.574219 226.304688 224.40625 213.585938 C 224.40625 213.585938 200.132812 236.597656 175.5 221.933594 C 175.5 221.933594 189.203125 272.433594 215.929688 286.949219 C 242.65625 301.464844 301.71875 315.648438 301.71875 315.648438 " fill-opacity="1" fill-rule="nonzero"/><path stroke-linecap="butt" transform="matrix(0.673054, 0, 0, 0.672615, 0.910196, -28.763959)" fill-opacity="1" fill="#ffffff" fill-rule="nonzero" stroke-linejoin="miter" d="M 310.257921 263.207452 C 310.257921 263.207452 337.970927 266.419029 337.582074 327.560949 L 336.287833 362.081046 C 336.287833 362.081046 298.801278 399.12162 252.30727 373.899417 " stroke="#6d6e71" stroke-width="1" stroke-opacity="1" stroke-miterlimit="10"/><path fill="#be9e7d" d="M 364.539062 308.875 L 390.40625 309.375 L 395.710938 294.535156 C 395.710938 294.535156 398.542969 298.207031 402.917969 299.007812 C 402.917969 299.007812 403.019531 314.800781 402.519531 330.796875 C 402.519531 330.796875 380.324219 336.21875 366.0625 329.296875 " fill-opacity="1" fill-rule="nonzero"/><path stroke-linecap="butt" transform="matrix(0.673054, 0, 0, 0.672615, 0.910196, -28.763959)" fill="none" stroke-linejoin="miter" d="M 492.711064 491.450102 C 492.711064 491.450102 481.138345 497.118274 483.198684 503.280088 C 485.259022 509.441902 500.859558 501.712049 500.859558 501.712049 L 505.102115 502.769023 L 530.499416 530.157444 " stroke="#754c29" stroke-width="0.7" stroke-opacity="1" stroke-miterlimit="10"/></svg>