<svg xmlns="http://www.w3.org/2000/svg" xmlns:xlink="http://www.w3.org/1999/xlink" width="1200" zoomAndPan="magnify" viewBox="0 0 900 675.000002" height="900" preserveAspectRatio="xMidYMid meet" version="1.0"><defs><clipPath id="56b6cfa014"><path d="M 0.664062 0 L 899.332031 0 L 899.332031 674 L 0.664062 674 Z M 0.664062 0 " clip-rule="nonzero"/></clipPath><clipPath id="bb2a58d560"><path d="M 1 0 L 899.332031 0 L 899.332031 674 L 1 674 Z M 1 0 " clip-rule="nonzero"/></clipPath><clipPath id="e99895e468"><path d="M 480 30 L 899.332031 30 L 899.332031 404 L 480 404 Z M 480 30 " clip-rule="nonzero"/></clipPath><clipPath id="8e2569c7f7"><path d="M 478 27 L 899.332031 27 L 899.332031 407 L 478 407 Z M 478 27 " clip-rule="nonzero"/></clipPath><clipPath id="d75b8a221e"><path d="M 429 15 L 899.332031 15 L 899.332031 20 L 429 20 Z M 429 15 " clip-rule="nonzero"/></clipPath><clipPath id="9b493ac7ba"><path d="M 414.925781 1.246094 L 454 1.246094 L 454 43 L 414.925781 43 Z M 414.925781 1.246094 " clip-rule="nonzero"/></clipPath><clipPath id="c5eedc22c2"><path d="M 833 6 L 899.332031 6 L 899.332031 446 L 833 446 Z M 833 6 " clip-rule="nonzero"/></clipPath><clipPath id="cfefe796a2"><path d="M 461 1.246094 L 503 1.246094 L 503 194 L 461 194 Z M 461 1.246094 " clip-rule="nonzero"/></clipPath><clipPath id="dd95c93122"><path d="M 480 1.246094 L 520 1.246094 L 520 212 L 480 212 Z M 480 1.246094 " clip-rule="nonzero"/></clipPath><clipPath id="1b1f0a1d77"><path d="M 865 1.246094 L 899.332031 1.246094 L 899.332031 171 L 865 171 Z M 865 1.246094 " clip-rule="nonzero"/></clipPath><clipPath id="206a0b1f9c"><path d="M 826 181 L 899.332031 181 L 899.332031 237 L 826 237 Z M 826 181 " clip-rule="nonzero"/></clipPath></defs><g clip-path="url(#56b6cfa014)"><path fill="#ffffff" d="M 0.664062 0 L 899.335938 0 L 899.335938 674 L 0.664062 674 Z M 0.664062 0 " fill-opacity="1" fill-rule="nonzero"/><path fill="#ffffff" d="M 0.664062 0 L 899.335938 0 L 899.335938 674 L 0.664062 674 Z M 0.664062 0 " fill-opacity="1" fill-rule="nonzero"/></g><g clip-path="url(#bb2a58d560)"><path fill="#bde4e0" d="M 1.332031 0 L 899.964844 0 L 899.964844 673.289062 L 1.332031 673.289062 Z M 1.332031 0 " fill-opacity="1" fill-rule="nonzero"/></g><g clip-path="url(#e99895e468)"><path fill="#c8eaf6" d="M 480.707031 30.464844 L 904.878906 30.464844 L 904.878906 403.546875 L 480.707031 403.546875 Z M 480.707031 30.464844 " fill-opacity="1" fill-rule="nonzero"/></g><g clip-path="url(#8e2569c7f7)"><path stroke-linecap="butt" transform="matrix(0.674055, 0, 0, 0.67386, 1.333566, 0.0000199704)" fill="none" stroke-linejoin="miter" d="M 711.178218 45.209431 L 1340.461689 45.209431 L 1340.461689 598.85867 L 711.178218 598.85867 Z M 711.178218 45.209431 " stroke="#ffffff" stroke-width="8" stroke-opacity="1" stroke-miterlimit="10"/></g><g clip-path="url(#d75b8a221e)"><path stroke-linecap="butt" transform="matrix(0.674055, 0, 0, 0.67386, 1.333566, 0.0000199704)" fill="none" stroke-linejoin="miter" d="M 638.680923 25.540794 L 1412.918418 25.540794 " stroke="#a97c50" stroke-width="6" stroke-opacity="1" stroke-miterlimit="10"/></g><path fill="#a97c50" d="M 434.8125 16.589844 C 434.8125 17.039062 434.769531 17.488281 434.679688 17.929688 C 434.59375 18.371094 434.460938 18.800781 434.289062 19.214844 C 434.117188 19.632812 433.90625 20.027344 433.65625 20.402344 C 433.40625 20.777344 433.121094 21.121094 432.800781 21.441406 C 432.484375 21.757812 432.136719 22.042969 431.761719 22.292969 C 431.386719 22.542969 430.992188 22.753906 430.574219 22.929688 C 430.160156 23.101562 429.730469 23.230469 429.289062 23.320312 C 428.847656 23.40625 428.402344 23.449219 427.949219 23.449219 C 427.5 23.449219 427.054688 23.40625 426.609375 23.320312 C 426.167969 23.230469 425.738281 23.101562 425.324219 22.929688 C 424.90625 22.753906 424.511719 22.542969 424.136719 22.292969 C 423.761719 22.042969 423.417969 21.757812 423.097656 21.441406 C 422.777344 21.121094 422.496094 20.777344 422.246094 20.402344 C 421.992188 20.027344 421.78125 19.632812 421.609375 19.214844 C 421.4375 18.800781 421.308594 18.371094 421.21875 17.929688 C 421.132812 17.488281 421.089844 17.039062 421.089844 16.589844 C 421.089844 16.140625 421.132812 15.695312 421.21875 15.253906 C 421.308594 14.808594 421.4375 14.382812 421.609375 13.964844 C 421.78125 13.550781 421.992188 13.152344 422.246094 12.78125 C 422.496094 12.40625 422.777344 12.058594 423.097656 11.738281 C 423.417969 11.421875 423.761719 11.136719 424.136719 10.886719 C 424.511719 10.636719 424.90625 10.425781 425.324219 10.253906 C 425.738281 10.082031 426.167969 9.949219 426.609375 9.863281 C 427.054688 9.773438 427.5 9.730469 427.949219 9.730469 C 428.402344 9.730469 428.847656 9.773438 429.289062 9.863281 C 429.730469 9.949219 430.160156 10.082031 430.574219 10.253906 C 430.992188 10.425781 431.386719 10.636719 431.761719 10.886719 C 432.136719 11.136719 432.484375 11.421875 432.800781 11.738281 C 433.121094 12.058594 433.40625 12.40625 433.65625 12.78125 C 433.90625 13.152344 434.117188 13.550781 434.289062 13.964844 C 434.460938 14.382812 434.59375 14.808594 434.679688 15.253906 C 434.769531 15.695312 434.8125 16.140625 434.8125 16.589844 Z M 434.8125 16.589844 " fill-opacity="1" fill-rule="nonzero"/><g clip-path="url(#9b493ac7ba)"><path stroke-linecap="butt" transform="matrix(0.674055, 0, 0, 0.67386, 1.333566, 0.0000199704)" fill="none" stroke-linejoin="miter" d="M 643.091031 24.619099 C 643.091031 25.285734 643.027284 25.952369 642.893996 26.607411 C 642.766502 27.262452 642.569467 27.900103 642.314481 28.514567 C 642.059494 29.134828 641.746556 29.720307 641.375667 30.276803 C 641.004777 30.833298 640.581732 31.343419 640.10653 31.818759 C 639.637123 32.288302 639.121355 32.71147 638.56502 33.082467 C 638.008686 33.453464 637.423376 33.766493 636.803296 34.02735 C 636.18901 34.282411 635.551544 34.473706 634.896692 34.607033 C 634.24184 34.734563 633.581194 34.798328 632.908956 34.798328 C 632.242515 34.798328 631.581868 34.734563 630.921221 34.607033 C 630.266369 34.473706 629.628903 34.282411 629.014617 34.02735 C 628.394537 33.766493 627.809227 33.453464 627.252893 33.082467 C 626.696558 32.71147 626.186585 32.288302 625.711383 31.818759 C 625.236181 31.343419 624.818931 30.833298 624.448041 30.276803 C 624.071357 29.720307 623.758419 29.134828 623.503432 28.514567 C 623.248446 27.900103 623.057206 27.262452 622.923917 26.607411 C 622.796424 25.952369 622.732678 25.285734 622.732678 24.619099 C 622.732678 23.952463 622.796424 23.291625 622.923917 22.636583 C 623.057206 21.975745 623.248446 21.343891 623.503432 20.72363 C 623.758419 20.109166 624.071357 19.51789 624.448041 18.967191 C 624.818931 18.410696 625.236181 17.894778 625.711383 17.419438 C 626.186585 16.949895 626.696558 16.526727 627.252893 16.15573 C 627.809227 15.784733 628.394537 15.471704 629.014617 15.216644 C 629.628903 14.961583 630.266369 14.764491 630.921221 14.636961 C 631.581868 14.503634 632.242515 14.439869 632.908956 14.439869 C 633.581194 14.439869 634.24184 14.503634 634.896692 14.636961 C 635.551544 14.764491 636.18901 14.961583 636.803296 15.216644 C 637.423376 15.471704 638.008686 15.784733 638.56502 16.15573 C 639.121355 16.526727 639.637123 16.949895 640.10653 17.419438 C 640.581732 17.894778 641.004777 18.410696 641.375667 18.967191 C 641.746556 19.51789 642.059494 20.109166 642.314481 20.72363 C 642.569467 21.343891 642.766502 21.975745 642.893996 22.636583 C 643.027284 23.291625 643.091031 23.952463 643.091031 24.619099 Z M 643.091031 24.619099 " stroke="#a97c50" stroke-width="2" stroke-opacity="1" stroke-miterlimit="10"/></g><path fill="#ca544c" d="M 447.296875 6.542969 L 446.5 437.1875 C 446.5 437.1875 463.25 451.539062 489.578125 442.765625 L 489.578125 424.425781 C 489.578125 424.425781 513.507812 430.804688 527.070312 424.425781 L 527.070312 439.578125 C 527.070312 439.578125 551.800781 449.148438 559.773438 440.375 L 543.023438 158.863281 L 551.800781 6.542969 L 508.722656 7.339844 L 499.152344 9.730469 L 483.195312 6.542969 Z M 447.296875 6.542969 " fill-opacity="1" fill-rule="nonzero"/><g clip-path="url(#c5eedc22c2)"><path fill="#ca544c" d="M 946.089844 6.542969 L 946.886719 437.1875 C 946.886719 437.1875 930.132812 451.539062 903.804688 442.765625 L 903.804688 424.425781 C 903.804688 424.425781 879.878906 430.804688 866.316406 424.425781 L 866.316406 439.578125 C 866.316406 439.578125 841.585938 449.148438 833.609375 440.375 L 850.359375 158.863281 L 841.582031 6.542969 L 884.664062 7.339844 L 894.234375 9.730469 L 910.1875 6.542969 Z M 946.089844 6.542969 " fill-opacity="1" fill-rule="nonzero"/></g><path stroke-linecap="butt" transform="matrix(0.674055, 0, 0, 0.67386, 1.333566, 0.0000199704)" fill="none" stroke-linejoin="miter" d="M 724.327407 629.848512 L 712.151803 378.411101 " stroke="#be1e2d" stroke-width="2" stroke-opacity="1" stroke-miterlimit="10"/><path stroke-linecap="butt" transform="matrix(0.674055, 0, 0, 0.67386, 1.333566, 0.0000199704)" fill="none" stroke-linejoin="miter" d="M 779.949233 629.848512 L 774.269988 393.569806 " stroke="#be1e2d" stroke-width="2" stroke-opacity="1" stroke-miterlimit="10"/><g clip-path="url(#cfefe796a2)"><path stroke-linecap="butt" transform="matrix(0.674055, 0, 0, 0.67386, 1.333566, 0.0000199704)" fill="none" stroke-linejoin="miter" d="M 714.858137 9.709657 L 710.558137 259.002242 " stroke="#be1e2d" stroke-width="2" stroke-opacity="1" stroke-miterlimit="10"/></g><g clip-path="url(#dd95c93122)"><path stroke-linecap="butt" transform="matrix(0.674055, 0, 0, 0.67386, 1.333566, 0.0000199704)" fill="none" stroke-linejoin="miter" d="M 738.531314 14.451462 L 740.982661 285.800978 " stroke="#be1e2d" stroke-width="2" stroke-opacity="1" stroke-miterlimit="10"/></g><path stroke-linecap="butt" transform="matrix(0.674055, 0, 0, 0.67386, 1.333566, 0.0000199704)" fill="none" stroke-linejoin="miter" d="M 1283.257789 629.848512 L 1284.040134 404.780871 " stroke="#be1e2d" stroke-width="2" stroke-opacity="1" stroke-miterlimit="10"/><g clip-path="url(#1b1f0a1d77)"><path stroke-linecap="butt" transform="matrix(0.674055, 0, 0, 0.67386, 1.333566, 0.0000199704)" fill="none" stroke-linejoin="miter" d="M 1310.477596 10.898007 L 1310.541343 224.058964 " stroke="#be1e2d" stroke-width="2" stroke-opacity="1" stroke-miterlimit="10"/></g><path stroke-linecap="butt" transform="matrix(0.674055, 0, 0, 0.67386, 1.333566, 0.0000199704)" fill="none" stroke-linejoin="miter" d="M 1026.422649 42.589265 L 1026.422649 597.618149 " stroke="#ffffff" stroke-width="8" stroke-opacity="1" stroke-miterlimit="10"/><path stroke-linecap="butt" transform="matrix(0.674055, 0, 0, 0.67386, 1.333566, 0.0000199704)" fill="none" stroke-linejoin="miter" d="M 1034.848793 49.852691 L 1034.848793 595.189278 " stroke="#d1d3d4" stroke-width="8" stroke-opacity="1" stroke-miterlimit="10"/><path stroke-linecap="round" transform="matrix(0.674055, 0, 0, 0.67386, 1.333566, 0.0000199704)" fill="none" stroke-linejoin="miter" d="M 655.411514 314.321371 C 655.411514 314.321371 727.462582 369.86078 810.031843 317.318331 " stroke="#ffffff" stroke-width="2" stroke-opacity="1" stroke-miterlimit="10"/><g clip-path="url(#206a0b1f9c)"><path stroke-linecap="round" transform="matrix(0.674055, 0, 0, 0.67386, 1.333566, 0.0000199704)" fill="none" stroke-linejoin="miter" d="M 1252.868036 297.812005 C 1252.868036 297.812005 1324.919104 353.351414 1407.488365 300.808965 " stroke="#ffffff" stroke-width="2" stroke-opacity="1" stroke-miterlimit="10"/></g><path fill="#ffffff" d="M 736.160156 61.28125 C 735.859375 63.34375 735.722656 64.738281 735.945312 67.148438 C 736.890625 76.683594 739.6875 105.042969 742.261719 131.160156 C 743.996094 148.707031 745.652344 165.5 746.886719 178 C 747.507812 184.253906 748.019531 189.429688 748.375 193.09375 C 748.390625 193.210938 748.394531 193.324219 748.410156 193.429688 C 748.421875 193.511719 748.421875 193.648438 748.449219 193.75 L 748.578125 194.019531 C 748.671875 194.214844 748.765625 194.402344 748.859375 194.589844 C 749.042969 194.960938 749.210938 195.304688 749.375 195.636719 C 749.691406 196.28125 749.964844 196.839844 750.1875 197.300781 C 750.640625 198.222656 750.898438 198.75 750.945312 198.835938 C 751.960938 200.917969 751.976562 200.945312 751.976562 200.945312 C 751.976562 200.945312 797.722656 294.382812 806.863281 313.035156 C 807.941406 315.203125 808.792969 316.324219 810.132812 317.921875 C 809.695312 315.878906 809.335938 314.523438 808.277344 312.347656 C 799.144531 293.695312 753.390625 200.257812 753.390625 200.257812 C 753.390625 200.257812 753.378906 200.230469 752.359375 198.148438 C 752.320312 198.0625 752.054688 197.535156 751.609375 196.613281 C 751.390625 196.152344 751.113281 195.59375 750.796875 194.949219 C 750.632812 194.625 750.464844 194.273438 750.285156 193.902344 C 750.195312 193.722656 750.101562 193.527344 750.007812 193.332031 C 749.980469 193.261719 750.007812 193.332031 749.992188 193.289062 C 749.980469 193.175781 749.972656 193.066406 749.960938 192.953125 C 749.59375 189.289062 749.089844 184.113281 748.46875 177.859375 C 747.238281 165.359375 745.578125 148.566406 743.847656 131.019531 C 741.265625 104.898438 738.46875 76.542969 737.523438 67.007812 C 737.273438 64.597656 736.871094 63.253906 736.167969 61.292969 Z M 736.160156 61.28125 " fill-opacity="1" fill-rule="nonzero"/><path fill="#ffffff" d="M 704.480469 209.523438 C 706.558594 209.3125 707.945312 209.105469 710.230469 208.304688 C 712.625 207.449219 718.003906 205.527344 723.691406 203.492188 C 728.789062 201.667969 734.019531 199.800781 738.789062 198.085938 C 741.175781 197.230469 743.449219 196.421875 745.53125 195.675781 C 746.570312 195.304688 747.566406 194.949219 748.503906 194.609375 C 748.738281 194.53125 748.96875 194.441406 749.199219 194.363281 L 749.367188 194.300781 L 749.496094 194.253906 C 749.554688 194.238281 749.609375 194.214844 749.65625 194.171875 L 749.992188 193.949219 C 750.382812 193.695312 750.753906 193.445312 751.117188 193.210938 C 770.179688 180.675781 778.972656 174.898438 778.972656 174.898438 C 778.972656 174.898438 828.824219 142.136719 838.78125 135.59375 C 840.800781 134.253906 841.800781 133.269531 843.214844 131.738281 C 841.246094 132.433594 839.945312 132.960938 837.917969 134.28125 C 827.960938 140.824219 778.109375 173.585938 778.109375 173.585938 C 778.109375 173.585938 769.324219 179.363281 750.257812 191.886719 C 749.890625 192.125 749.523438 192.375 749.128906 192.628906 L 748.882812 192.796875 C 748.882812 192.796875 748.921875 192.785156 748.839844 192.8125 L 748.671875 192.871094 C 748.441406 192.953125 748.214844 193.035156 747.976562 193.121094 C 747.039062 193.457031 746.050781 193.808594 745.003906 194.1875 C 742.921875 194.925781 740.652344 195.742188 738.265625 196.597656 C 733.492188 198.304688 728.261719 200.175781 723.164062 202.003906 C 717.476562 204.039062 712.097656 205.964844 709.703125 206.828125 C 707.425781 207.65625 706.226562 208.378906 704.488281 209.53125 Z M 704.480469 209.523438 " fill-opacity="1" fill-rule="nonzero"/><path fill="#ffffff" d="M 814.488281 88.25 C 812.992188 89.703125 812.035156 90.730469 810.746094 92.785156 C 800.734375 108.929688 750.601562 189.792969 750.601562 189.792969 C 750.601562 189.792969 750.53125 189.902344 749.90625 190.917969 C 749.75 191.175781 749.554688 191.484375 749.320312 191.863281 C 749.203125 192.050781 749.078125 192.257812 748.933594 192.480469 C 748.867188 192.597656 748.792969 192.710938 748.71875 192.832031 C 748.671875 192.914062 748.625 192.988281 748.570312 193.066406 C 748.539062 193.136719 748.476562 193.1875 748.464844 193.261719 L 748.421875 193.492188 C 748.214844 194.726562 747.929688 196.335938 747.574219 198.4375 C 746.824219 202.769531 733.890625 277.90625 731.160156 293.777344 C 730.761719 296.167969 730.796875 297.570312 730.953125 299.644531 C 731.792969 297.738281 732.292969 296.425781 732.71875 294.039062 C 735.445312 278.167969 748.390625 203.039062 749.128906 198.699219 C 749.488281 196.613281 749.765625 195.015625 749.972656 193.789062 C 750.558594 192.84375 750.964844 192.191406 751.246094 191.734375 C 751.875 190.722656 751.941406 190.609375 751.941406 190.609375 C 751.941406 190.609375 802.078125 109.746094 812.085938 93.597656 C 813.355469 91.53125 813.847656 90.222656 814.488281 88.234375 Z M 814.488281 88.25 " fill-opacity="1" fill-rule="nonzero"/><path fill="#ffffff" d="M 719.632812 153.5 C 720.429688 155.425781 721.027344 156.691406 722.457031 158.648438 C 724.445312 161.34375 730.066406 168.949219 735.375 176.125 C 738.824219 180.789062 742.167969 185.3125 744.761719 188.824219 C 746.0625 190.582031 747.175781 192.082031 748.019531 193.222656 C 748.125 193.363281 748.226562 193.503906 748.320312 193.632812 C 748.367188 193.699219 748.421875 193.769531 748.46875 193.835938 C 748.570312 193.949219 748.632812 194.113281 748.765625 194.171875 C 749.089844 194.328125 749.378906 194.460938 749.628906 194.582031 C 750.054688 194.785156 750.363281 194.933594 750.539062 195.015625 C 754.820312 197.058594 755.164062 197.21875 755.164062 197.21875 C 755.164062 197.21875 791.230469 214.386719 798.4375 217.820312 C 800.628906 218.847656 801.988281 219.191406 804.03125 219.609375 C 802.421875 218.285156 801.296875 217.449219 799.113281 216.398438 C 791.90625 212.964844 755.835938 195.796875 755.835938 195.796875 C 755.835938 195.796875 755.492188 195.636719 751.214844 193.59375 C 751.039062 193.511719 750.726562 193.363281 750.304688 193.160156 C 750.136719 193.082031 749.9375 192.988281 749.722656 192.886719 C 749.675781 192.824219 749.636719 192.765625 749.589844 192.695312 C 749.496094 192.5625 749.394531 192.425781 749.285156 192.285156 C 748.441406 191.140625 747.332031 189.636719 746.03125 187.878906 C 743.433594 184.367188 740.089844 179.839844 736.640625 175.175781 C 731.335938 168 725.707031 160.398438 723.710938 157.703125 C 722.261719 155.761719 721.226562 154.820312 719.613281 153.492188 Z M 719.632812 153.5 " fill-opacity="1" fill-rule="nonzero"/><path fill="#ffffff" d="M 713.539062 169.160156 C 714.929688 170.714844 715.914062 171.71875 717.902344 173.09375 C 720.160156 174.636719 726.023438 178.640625 731.773438 182.574219 C 735.75 185.292969 739.695312 187.980469 742.949219 190.203125 C 744.582031 191.316406 746.035156 192.3125 747.25 193.136719 C 747.554688 193.34375 747.835938 193.539062 748.105469 193.722656 C 748.242188 193.816406 748.367188 193.902344 748.496094 193.992188 C 748.597656 194.058594 748.691406 194.125 748.785156 194.1875 C 748.847656 194.21875 748.902344 194.28125 748.976562 194.292969 L 749.191406 194.308594 C 749.796875 194.339844 750.308594 194.367188 750.722656 194.386719 C 760.21875 194.886719 762.140625 194.988281 762.140625 194.988281 C 762.140625 194.988281 801.613281 197.0625 809.492188 197.480469 C 811.910156 197.597656 813.300781 197.394531 815.347656 197.003906 C 813.355469 196.398438 811.992188 196.046875 809.574219 195.910156 C 801.691406 195.492188 762.21875 193.417969 762.21875 193.417969 C 762.21875 193.417969 760.304688 193.316406 750.800781 192.816406 C 750.453125 192.796875 750 192.777344 749.472656 192.75 C 749.089844 192.488281 748.636719 192.179688 748.140625 191.839844 C 746.933594 191.011719 745.46875 190.015625 743.839844 188.902344 C 740.578125 186.679688 736.640625 183.984375 732.664062 181.269531 C 726.90625 177.339844 721.035156 173.335938 718.785156 171.800781 C 716.777344 170.445312 715.488281 169.894531 713.535156 169.164062 Z M 713.539062 169.160156 " fill-opacity="1" fill-rule="nonzero"/><path fill="#ffffff" d="M 705.75 179.105469 C 707.515625 180.222656 708.734375 180.910156 711.027344 181.6875 C 713.535156 182.515625 719.445312 184.484375 725.539062 186.503906 C 730.425781 188.128906 735.394531 189.773438 739.773438 191.222656 C 741.964844 191.949219 744.015625 192.628906 745.839844 193.230469 C 746.75 193.53125 747.605469 193.816406 748.394531 194.078125 C 748.96875 194.28125 748.664062 194.105469 749.097656 194.496094 C 749.375 194.757812 749.628906 195.007812 749.878906 195.246094 C 762.570312 207.433594 767.203125 211.882812 767.203125 211.882812 C 767.203125 211.882812 804.113281 247.347656 811.488281 254.429688 C 813.246094 256.101562 814.425781 256.855469 816.234375 257.894531 C 815.121094 256.128906 814.320312 254.976562 812.578125 253.289062 C 805.210938 246.207031 768.292969 210.742188 768.292969 210.742188 C 768.292969 210.742188 763.664062 206.296875 750.976562 194.097656 C 750.734375 193.863281 750.472656 193.613281 750.203125 193.351562 C 750.027344 193.183594 749.84375 193.007812 749.65625 192.824219 C 749.414062 192.746094 749.164062 192.65625 748.90625 192.570312 C 748.121094 192.304688 747.261719 192.023438 746.351562 191.71875 C 744.535156 191.113281 742.484375 190.433594 740.285156 189.707031 C 735.898438 188.25 730.9375 186.605469 726.050781 184.980469 C 719.957031 182.964844 714.039062 181.003906 711.539062 180.175781 C 709.234375 179.429688 707.84375 179.253906 705.761719 179.09375 Z M 705.75 179.105469 " fill-opacity="1" fill-rule="nonzero"/><path fill="#ffffff" d="M 704.839844 230.925781 C 706.710938 230 707.9375 229.328125 709.800781 227.777344 C 712.75 225.292969 720.832031 218.484375 728.570312 211.960938 C 733.855469 207.507812 739.027344 203.148438 743.144531 199.679688 C 745.207031 197.941406 747 196.421875 748.421875 195.230469 C 748.78125 194.933594 749.109375 194.652344 749.414062 194.394531 C 749.488281 194.328125 749.5625 194.265625 749.636719 194.207031 C 749.648438 194.199219 749.609375 194.21875 749.664062 194.191406 C 749.832031 194.125 749.992188 194.058594 750.148438 193.996094 C 750.761719 193.75 751.238281 193.554688 751.570312 193.417969 C 759.664062 190.101562 760.691406 189.683594 760.691406 189.683594 C 760.691406 189.683594 807.097656 170.683594 816.359375 166.886719 C 818.597656 165.957031 819.769531 165.183594 821.449219 163.949219 C 819.386719 164.253906 818.011719 164.523438 815.761719 165.425781 C 806.492188 169.21875 760.089844 188.222656 760.089844 188.222656 C 760.089844 188.222656 759.066406 188.640625 750.96875 191.957031 C 750.640625 192.089844 750.160156 192.285156 749.546875 192.535156 C 749.394531 192.597656 749.230469 192.664062 749.0625 192.730469 L 748.832031 192.824219 C 748.753906 192.867188 748.6875 192.941406 748.613281 193 C 748.539062 193.0625 748.464844 193.121094 748.390625 193.1875 C 748.085938 193.445312 747.753906 193.726562 747.398438 194.023438 C 745.984375 195.21875 744.183594 196.734375 742.121094 198.472656 C 738.003906 201.941406 732.832031 206.300781 727.539062 210.757812 C 719.808594 217.28125 711.734375 224.085938 708.773438 226.578125 C 706.929688 228.148438 706.050781 229.246094 704.832031 230.933594 Z M 704.839844 230.925781 " fill-opacity="1" fill-rule="nonzero"/><path fill="#ffffff" d="M 713.539062 263.984375 C 714.902344 262.40625 715.773438 261.300781 716.875 259.144531 C 719.378906 254.199219 726.898438 239.355469 733.796875 225.738281 C 738.257812 216.929688 742.511719 208.511719 745.652344 202.304688 C 747.222656 199.199219 748.515625 196.644531 749.414062 194.875 C 749.527344 194.652344 749.628906 194.441406 749.730469 194.246094 C 749.777344 194.144531 749.832031 194.050781 749.878906 193.957031 C 749.914062 193.902344 749.972656 193.78125 749.988281 193.695312 L 750.035156 193.539062 C 750.140625 193.167969 750.230469 192.851562 750.304688 192.601562 C 750.453125 192.097656 750.53125 191.828125 750.53125 191.828125 C 750.53125 191.828125 750.53125 191.8125 750.855469 190.722656 C 751.023438 190.136719 766.90625 135.535156 770.105469 124.515625 C 770.773438 122.183594 770.894531 120.789062 770.976562 118.707031 C 769.925781 120.511719 769.285156 121.753906 768.589844 124.078125 C 765.386719 135.09375 749.507812 189.699219 749.339844 190.285156 C 749.023438 191.375 749.015625 191.390625 749.015625 191.390625 C 749.015625 191.390625 748.933594 191.660156 748.785156 192.164062 C 748.710938 192.421875 748.617188 192.730469 748.511719 193.101562 L 748.46875 193.230469 C 748.46875 193.230469 748.476562 193.210938 748.464844 193.25 C 748.414062 193.34375 748.367188 193.4375 748.316406 193.539062 C 748.214844 193.734375 748.105469 193.945312 747.996094 194.164062 C 747.09375 195.945312 745.808594 198.5 744.230469 201.597656 C 741.089844 207.804688 736.828125 216.214844 732.367188 225.023438 C 725.472656 238.640625 717.957031 253.492188 715.453125 258.4375 C 714.371094 260.609375 713.992188 261.957031 713.527344 263.992188 Z M 713.539062 263.984375 " fill-opacity="1" fill-rule="nonzero"/><path fill="#ffffff" d="M 706.382812 194.3125 C 708.417969 194.777344 709.792969 195.027344 712.21875 194.996094 C 714.667969 194.949219 720.410156 194.847656 726.347656 194.738281 C 731.09375 194.652344 735.917969 194.558594 740.191406 194.484375 C 742.328125 194.441406 744.332031 194.402344 746.125 194.367188 C 747.019531 194.347656 747.855469 194.335938 748.636719 194.320312 C 748.808594 194.320312 748.976562 194.320312 749.136719 194.3125 C 749.273438 194.347656 749.40625 194.382812 749.542969 194.414062 C 749.886719 194.503906 750.214844 194.582031 750.527344 194.65625 C 766.691406 198.613281 772.757812 200.097656 772.757812 200.097656 C 772.757812 200.097656 819.355469 211.503906 828.664062 213.78125 C 831.019531 214.347656 832.417969 214.410156 834.507812 214.402344 C 832.660156 213.429688 831.390625 212.839844 829.039062 212.253906 C 819.738281 209.976562 773.132812 198.566406 773.132812 198.566406 C 773.132812 198.566406 767.066406 197.078125 750.902344 193.121094 C 750.59375 193.046875 750.261719 192.964844 749.917969 192.878906 L 749.65625 192.8125 L 749.523438 192.777344 C 749.449219 192.765625 749.347656 192.722656 749.257812 192.730469 C 749.050781 192.730469 748.835938 192.738281 748.613281 192.746094 C 747.835938 192.757812 746.992188 192.769531 746.097656 192.792969 C 744.3125 192.824219 742.308594 192.859375 740.164062 192.898438 C 735.886719 192.980469 731.066406 193.066406 726.320312 193.15625 C 720.390625 193.269531 714.640625 193.378906 712.199219 193.425781 C 709.777344 193.484375 708.402344 193.78125 706.390625 194.320312 Z M 706.382812 194.3125 " fill-opacity="1" fill-rule="nonzero"/><path fill="#ffffff" d="M 773.886719 244.8125 C 773.199219 246.78125 772.796875 248.121094 772.5625 250.535156 C 772.519531 250.945312 772.460938 251.605469 772.324219 252.988281 C 772.035156 256.101562 771.554688 261.195312 771.144531 265.582031 C 770.941406 267.777344 770.753906 269.800781 770.613281 271.308594 C 770.578125 271.6875 770.546875 272.03125 770.519531 272.339844 C 770.503906 272.496094 770.492188 272.636719 770.476562 272.773438 C 770.476562 272.839844 770.464844 272.90625 770.457031 272.96875 C 770.445312 273.074219 770.429688 273.210938 770.457031 273.316406 C 770.539062 273.789062 770.585938 274.085938 770.597656 274.167969 C 770.855469 275.714844 770.867188 275.796875 770.867188 275.796875 C 770.867188 275.796875 773.039062 289 774.238281 296.316406 C 774.542969 298.144531 774.730469 299.273438 774.824219 299.867188 C 775.230469 302.261719 775.722656 303.566406 776.550781 305.488281 C 776.71875 303.40625 776.765625 302.011719 776.382812 299.613281 C 776.289062 299.019531 776.097656 297.886719 775.804688 296.058594 C 774.597656 288.742188 772.425781 275.542969 772.425781 275.542969 C 772.425781 275.542969 772.414062 275.460938 772.15625 273.910156 C 772.144531 273.835938 772.101562 273.558594 772.027344 273.128906 C 772.070312 272.710938 772.121094 272.144531 772.183594 271.457031 C 772.324219 269.949219 772.511719 267.925781 772.722656 265.730469 C 773.132812 261.335938 773.613281 256.25 773.902344 253.136719 C 774.03125 251.753906 774.089844 251.085938 774.132812 250.683594 C 774.347656 248.269531 774.207031 246.875 773.886719 244.8125 Z M 773.886719 244.8125 " fill-opacity="1" fill-rule="nonzero"/><path fill="#ffffff" d="M 745.539062 153.128906 C 746.554688 151.308594 747.183594 150.054688 747.828125 147.71875 C 749.285156 142.375 756.59375 115.601562 756.59375 115.601562 C 756.59375 115.601562 756.855469 114.628906 757.429688 112.546875 C 757.710938 111.503906 758.074219 110.183594 758.511719 108.566406 C 758.734375 107.757812 758.976562 106.875 759.234375 105.910156 C 759.300781 105.667969 759.371094 105.425781 759.4375 105.175781 C 759.46875 105.046875 759.503906 104.925781 759.539062 104.796875 L 759.625 104.46875 L 759.597656 104.132812 C 759.550781 103.597656 759.503906 103.039062 759.457031 102.46875 C 759.078125 97.992188 758.148438 87.078125 757.886719 84.003906 C 757.671875 81.589844 757.28125 80.242188 756.605469 78.269531 C 756.277344 80.332031 756.121094 81.71875 756.308594 84.136719 C 756.570312 87.210938 757.496094 98.128906 757.871094 102.601562 C 757.921875 103.175781 757.96875 103.734375 758.015625 104.265625 C 758.015625 104.414062 758.035156 104.246094 758.007812 104.382812 C 757.972656 104.507812 757.941406 104.636719 757.90625 104.757812 C 757.839844 105.007812 757.773438 105.25 757.703125 105.492188 C 757.441406 106.449219 757.199219 107.339844 756.984375 108.148438 C 756.546875 109.765625 756.179688 111.085938 755.898438 112.128906 C 755.332031 114.210938 755.070312 115.183594 755.070312 115.183594 C 755.070312 115.183594 747.769531 141.949219 746.304688 147.300781 C 745.679688 149.636719 745.585938 151.039062 745.539062 153.121094 Z M 745.539062 153.128906 " fill-opacity="1" fill-rule="nonzero"/><path fill="#ffffff" d="M 801.800781 158.890625 C 802.757812 157.035156 803.339844 155.761719 803.910156 153.402344 C 804.003906 153.007812 804.160156 152.351562 804.484375 151.003906 C 805.082031 148.476562 806.046875 144.394531 806.882812 140.855469 C 807.300781 139.089844 807.6875 137.453125 807.976562 136.222656 C 808.105469 135.667969 808.21875 135.203125 808.300781 134.851562 C 808.480469 134.597656 808.601562 134.429688 808.644531 134.367188 C 809.679688 132.898438 809.761719 132.789062 809.761719 132.789062 C 809.761719 132.789062 816.382812 123.472656 820.046875 118.304688 C 821.121094 116.785156 821.78125 115.855469 822.125 115.363281 C 823.519531 113.382812 824.09375 112.101562 824.847656 110.164062 C 823.261719 111.523438 822.246094 112.488281 820.835938 114.457031 C 820.484375 114.941406 819.824219 115.878906 818.746094 117.386719 C 815.082031 122.554688 808.472656 131.882812 808.472656 131.882812 C 808.472656 131.882812 808.394531 131.988281 807.355469 133.457031 C 807.292969 133.546875 807.113281 133.800781 806.835938 134.1875 C 806.734375 134.609375 806.601562 135.175781 806.4375 135.855469 C 806.148438 137.089844 805.757812 138.722656 805.339844 140.492188 C 804.503906 144.03125 803.539062 148.113281 802.941406 150.640625 C 802.625 151.996094 802.46875 152.644531 802.375 153.039062 C 801.828125 155.398438 801.78125 156.800781 801.800781 158.890625 Z M 801.800781 158.890625 " fill-opacity="1" fill-rule="nonzero"/><path fill="#ffffff" d="M 718.953125 219.5625 C 718.671875 221.632812 718.542969 223.027344 718.792969 225.441406 C 718.832031 225.851562 718.90625 226.511719 719.054688 227.894531 C 719.242188 229.625 719.6875 233.726562 719.6875 233.726562 C 719.6875 233.726562 720.050781 237.164062 720.261719 239.070312 C 720.464844 240.910156 720.585938 242.050781 720.652344 242.648438 C 720.921875 245.054688 721.339844 246.398438 722.058594 248.351562 C 722.34375 246.28125 722.472656 244.886719 722.222656 242.476562 C 722.160156 241.882812 722.039062 240.738281 721.84375 238.898438 C 721.636719 236.988281 721.265625 233.554688 721.265625 233.554688 C 721.265625 233.554688 720.828125 229.449219 720.636719 227.710938 C 720.488281 226.328125 720.414062 225.667969 720.367188 225.257812 C 720.097656 222.851562 719.679688 221.511719 718.960938 219.558594 Z M 718.953125 219.5625 " fill-opacity="1" fill-rule="nonzero"/><path fill="#ffffff" d="M 799.582031 195.648438 C 799.21875 196.269531 799.039062 196.671875 799.179688 197.273438 C 799.339844 197.917969 800.148438 201.152344 800.148438 201.152344 C 800.148438 201.152344 800.957031 204.386719 801.121094 205.035156 C 801.28125 205.628906 801.632812 205.898438 802.246094 206.273438 C 802.609375 205.65625 802.792969 205.25 802.652344 204.652344 C 802.488281 204.003906 801.679688 200.769531 801.679688 200.769531 C 801.679688 200.769531 800.871094 197.535156 800.710938 196.886719 C 800.546875 196.296875 800.195312 196.027344 799.582031 195.648438 Z M 799.582031 195.648438 " fill-opacity="1" fill-rule="nonzero"/><path fill="#ffffff" d="M 722.9375 184.132812 C 722.203125 184.261719 721.765625 184.394531 721.351562 184.90625 C 720.921875 185.472656 718.765625 188.304688 718.765625 188.304688 C 718.765625 188.304688 716.609375 191.132812 716.175781 191.699219 C 715.785156 192.230469 715.777344 192.691406 715.847656 193.429688 C 716.582031 193.304688 717.019531 193.167969 717.429688 192.65625 C 717.859375 192.089844 720.019531 189.261719 720.019531 189.261719 C 720.019531 189.261719 722.175781 186.429688 722.605469 185.863281 C 722.996094 185.332031 723.003906 184.875 722.9375 184.132812 Z M 722.9375 184.132812 " fill-opacity="1" fill-rule="nonzero"/><path fill="#be9e7d" d="M 353.972656 674 L 343.394531 561.46875 L 356.488281 486.136719 L 371.71875 485.308594 C 371.71875 485.308594 367.9375 509.550781 374.246094 534.390625 C 374.246094 534.390625 377.523438 544.332031 376.433594 565.402344 C 375.339844 586.472656 376.890625 615.421875 372.300781 673.488281 " fill-opacity="1" fill-rule="nonzero"/><path fill="#be9e7d" d="M 195.109375 270.972656 C 195.109375 270.972656 199.027344 310.21875 188.464844 333.5625 C 188.464844 333.5625 178.800781 442.773438 267.558594 445.542969 C 267.558594 445.542969 333.730469 427.71875 293.589844 341.992188 C 293.589844 341.992188 277.621094 335.765625 277.277344 320.3125 C 276.914062 303.953125 279.386719 320.589844 279.386719 320.589844 L 195.109375 270.964844 " fill-opacity="1" fill-rule="nonzero"/><path fill="#be9e7d" d="M 191.890625 239.246094 C 191.890625 239.246094 194.699219 156.585938 268.554688 150.164062 C 268.554688 150.164062 321.246094 149.941406 318.414062 224.339844 C 318.414062 224.339844 315.597656 236.296875 317.652344 242.609375 C 317.652344 242.609375 321.875 258.871094 314.019531 274.253906 C 302.273438 297.28125 290.785156 313.808594 290.785156 313.808594 C 290.785156 313.808594 283.695312 324.8125 265.292969 325.164062 C 265.292969 325.164062 252.367188 324.882812 235.832031 314.4375 C 235.832031 314.4375 194.09375 295.8125 196.046875 271.351562 C 196.046875 271.351562 177.941406 283.582031 169.625 254.71875 C 169.625 254.71875 162.277344 214.730469 191.882812 239.246094 Z M 191.890625 239.246094 " fill-opacity="1" fill-rule="nonzero"/><path fill="#26130f" d="M 259.515625 213.601562 C 259.515625 213.601562 234.535156 205.304688 222.835938 213.324219 C 222.835938 213.324219 231.664062 200.339844 260.25 207.617188 C 260.25 207.617188 265.238281 211.53125 259.515625 213.59375 Z M 259.515625 213.601562 " fill-opacity="1" fill-rule="nonzero"/><path fill="#26130f" d="M 319.769531 206.96875 C 319.128906 205.6875 306.371094 206.269531 294.863281 209.496094 C 294.863281 209.496094 289.976562 213.53125 295.742188 215.453125 C 295.742188 215.453125 316.320312 206.605469 320.121094 213.195312 C 320.121094 213.195312 321.347656 210.117188 319.765625 206.960938 Z M 319.769531 206.96875 " fill-opacity="1" fill-rule="nonzero"/><path stroke-linecap="butt" transform="matrix(0.674055, 0, 0, 0.67386, 1.333566, 0.0000199704)" fill="none" stroke-linejoin="miter" d="M 425.187691 368.30723 C 425.187691 368.30723 440.417339 390.94964 413.869768 393.621977 " stroke="#231f20" stroke-width="1.4" stroke-opacity="1" stroke-miterlimit="10"/><path stroke-linecap="butt" transform="matrix(0.674055, 0, 0, 0.67386, 1.333566, 0.0000199704)" fill="none" stroke-linejoin="miter" d="M 253.309413 365.849375 C 253.309413 365.849375 262.911972 340.372316 282.482185 381.361686 C 282.482185 381.361686 265.867498 363.269786 262.911972 378.782098 " stroke="#231f20" stroke-width="1.4" stroke-opacity="1" stroke-miterlimit="10"/><path fill="#26130f" d="M 275.898438 323.445312 C 275.898438 323.445312 270.214844 328.695312 250.464844 321.761719 C 250.464844 321.761719 233.195312 315.988281 219.074219 304.632812 C 219.074219 304.632812 236.988281 324.503906 261.234375 327.496094 C 261.234375 327.496094 267.699219 329.421875 276.855469 326.15625 C 276.855469 326.15625 275.453125 326 275.898438 323.445312 Z M 275.898438 323.445312 " fill-opacity="1" fill-rule="nonzero"/><path fill="#ffffff" d="M 233.132812 228.828125 C 233.132812 228.828125 233.109375 228.285156 233.5 227.820312 C 234.777344 226.269531 237.757812 223.34375 242.613281 223.164062 C 248.042969 222.960938 251.226562 227.945312 252.3125 229.726562 C 252.5 230.035156 252.492188 230.3125 252.492188 230.3125 C 252.492188 230.3125 252.519531 230.613281 252.351562 230.832031 C 251.523438 231.867188 248.738281 234.785156 243.601562 235.054688 C 240.542969 235.21875 236.1875 233.726562 233.371094 229.679688 C 233.175781 229.394531 233.148438 229.03125 233.148438 228.828125 Z M 233.132812 228.828125 " fill-opacity="1" fill-rule="nonzero"/><path fill="#26130f" d="M 249.984375 229.367188 C 249.984375 229.738281 249.949219 230.101562 249.878906 230.464844 C 249.804688 230.824219 249.699219 231.175781 249.558594 231.515625 C 249.417969 231.855469 249.246094 232.179688 249.039062 232.488281 C 248.835938 232.792969 248.601562 233.078125 248.339844 233.335938 C 248.082031 233.597656 247.796875 233.832031 247.492188 234.035156 C 247.183594 234.242188 246.859375 234.414062 246.519531 234.554688 C 246.179688 234.695312 245.828125 234.800781 245.464844 234.875 C 245.105469 234.945312 244.738281 234.980469 244.371094 234.980469 C 244.003906 234.980469 243.636719 234.945312 243.277344 234.875 C 242.914062 234.800781 242.5625 234.695312 242.222656 234.554688 C 241.882812 234.414062 241.558594 234.242188 241.25 234.035156 C 240.945312 233.832031 240.660156 233.597656 240.402344 233.335938 C 240.140625 233.078125 239.90625 232.792969 239.703125 232.488281 C 239.496094 232.179688 239.324219 231.855469 239.183594 231.515625 C 239.042969 231.175781 238.9375 230.824219 238.863281 230.464844 C 238.792969 230.101562 238.757812 229.738281 238.757812 229.367188 C 238.757812 229 238.792969 228.636719 238.863281 228.273438 C 238.9375 227.910156 239.042969 227.5625 239.183594 227.21875 C 239.324219 226.878906 239.496094 226.554688 239.703125 226.25 C 239.90625 225.945312 240.140625 225.660156 240.402344 225.398438 C 240.660156 225.136719 240.945312 224.90625 241.25 224.703125 C 241.558594 224.496094 241.882812 224.324219 242.222656 224.183594 C 242.5625 224.042969 242.914062 223.933594 243.277344 223.863281 C 243.636719 223.792969 244.003906 223.753906 244.371094 223.753906 C 244.738281 223.753906 245.105469 223.792969 245.464844 223.863281 C 245.828125 223.933594 246.179688 224.042969 246.519531 224.183594 C 246.859375 224.324219 247.183594 224.496094 247.492188 224.703125 C 247.796875 224.90625 248.082031 225.136719 248.339844 225.398438 C 248.601562 225.660156 248.835938 225.945312 249.039062 226.25 C 249.246094 226.554688 249.417969 226.878906 249.558594 227.21875 C 249.699219 227.5625 249.804688 227.910156 249.878906 228.273438 C 249.949219 228.636719 249.984375 229 249.984375 229.367188 Z M 249.984375 229.367188 " fill-opacity="1" fill-rule="nonzero"/><path fill="#ffffff" d="M 242.328125 228.363281 C 242.328125 228.570312 242.289062 228.765625 242.210938 228.953125 C 242.132812 229.144531 242.019531 229.3125 241.875 229.457031 C 241.730469 229.601562 241.566406 229.710938 241.375 229.789062 C 241.1875 229.867188 240.988281 229.90625 240.785156 229.90625 C 240.582031 229.90625 240.382812 229.867188 240.195312 229.789062 C 240.003906 229.710938 239.839844 229.601562 239.695312 229.457031 C 239.546875 229.3125 239.4375 229.144531 239.359375 228.953125 C 239.28125 228.765625 239.242188 228.570312 239.242188 228.363281 C 239.242188 228.160156 239.28125 227.964844 239.359375 227.773438 C 239.4375 227.585938 239.546875 227.417969 239.695312 227.273438 C 239.839844 227.128906 240.003906 227.015625 240.195312 226.9375 C 240.382812 226.859375 240.582031 226.820312 240.785156 226.820312 C 240.988281 226.820312 241.1875 226.859375 241.375 226.9375 C 241.566406 227.015625 241.730469 227.128906 241.875 227.273438 C 242.019531 227.417969 242.132812 227.585938 242.210938 227.773438 C 242.289062 227.964844 242.328125 228.160156 242.328125 228.363281 Z M 242.328125 228.363281 " fill-opacity="1" fill-rule="nonzero"/><path stroke-linecap="butt" transform="matrix(0.674055, 0, 0, 0.67386, 1.333566, 0.0000199704)" fill="none" stroke-linejoin="miter" d="M 372.822739 340.911421 C 372.822739 340.911421 362.298751 322.048543 344.107783 338.030398 " stroke="#231f20" stroke-width="1.5" stroke-opacity="1" stroke-miterlimit="10"/><path fill="#ffffff" d="M 296.570312 231.074219 C 296.570312 231.074219 296.46875 230.566406 296.757812 230.082031 C 297.730469 228.457031 300.082031 225.3125 304.5625 224.449219 C 309.585938 223.484375 313.257812 227.671875 314.519531 229.167969 C 314.734375 229.421875 314.769531 229.683594 314.769531 229.683594 C 314.769531 229.683594 314.84375 229.960938 314.707031 230.191406 C 314.089844 231.277344 311.910156 234.382812 307.171875 235.367188 C 304.355469 235.953125 300.089844 235.199219 296.886719 231.828125 C 296.664062 231.59375 296.582031 231.253906 296.554688 231.074219 Z M 296.570312 231.074219 " fill-opacity="1" fill-rule="nonzero"/><path fill="#26130f" d="M 312.363281 229.953125 C 312.363281 230.300781 312.328125 230.640625 312.261719 230.980469 C 312.195312 231.320312 312.09375 231.648438 311.960938 231.96875 C 311.828125 232.289062 311.667969 232.589844 311.476562 232.878906 C 311.285156 233.164062 311.066406 233.433594 310.820312 233.675781 C 310.578125 233.921875 310.3125 234.136719 310.023438 234.332031 C 309.734375 234.523438 309.433594 234.683594 309.113281 234.816406 C 308.792969 234.949219 308.464844 235.050781 308.125 235.117188 C 307.785156 235.183594 307.445312 235.21875 307.097656 235.21875 C 306.753906 235.21875 306.410156 235.183594 306.070312 235.117188 C 305.734375 235.050781 305.402344 234.949219 305.082031 234.816406 C 304.765625 234.683594 304.460938 234.523438 304.171875 234.332031 C 303.886719 234.136719 303.621094 233.921875 303.375 233.675781 C 303.132812 233.433594 302.914062 233.164062 302.722656 232.878906 C 302.53125 232.589844 302.367188 232.289062 302.234375 231.96875 C 302.101562 231.648438 302.003906 231.320312 301.933594 230.980469 C 301.867188 230.640625 301.835938 230.300781 301.835938 229.953125 C 301.835938 229.609375 301.867188 229.265625 301.933594 228.929688 C 302.003906 228.589844 302.101562 228.261719 302.234375 227.941406 C 302.367188 227.621094 302.527344 227.316406 302.722656 227.03125 C 302.914062 226.742188 303.132812 226.476562 303.375 226.234375 C 303.621094 225.988281 303.886719 225.769531 304.171875 225.578125 C 304.460938 225.386719 304.765625 225.226562 305.082031 225.09375 C 305.402344 224.960938 305.734375 224.859375 306.070312 224.792969 C 306.410156 224.726562 306.753906 224.691406 307.097656 224.691406 C 307.445312 224.691406 307.785156 224.726562 308.125 224.792969 C 308.464844 224.859375 308.792969 224.960938 309.113281 225.09375 C 309.433594 225.226562 309.734375 225.386719 310.023438 225.578125 C 310.3125 225.769531 310.578125 225.988281 310.820312 226.234375 C 311.066406 226.476562 311.285156 226.742188 311.476562 227.03125 C 311.667969 227.316406 311.828125 227.621094 311.960938 227.941406 C 312.09375 228.261719 312.195312 228.589844 312.261719 228.929688 C 312.328125 229.265625 312.363281 229.609375 312.363281 229.953125 Z M 312.363281 229.953125 " fill-opacity="1" fill-rule="nonzero"/><path fill="#ffffff" d="M 304.949219 229.652344 C 304.949219 229.847656 304.910156 230.035156 304.835938 230.214844 C 304.761719 230.398438 304.65625 230.554688 304.515625 230.695312 C 304.378906 230.832031 304.21875 230.941406 304.035156 231.015625 C 303.855469 231.089844 303.667969 231.128906 303.472656 231.128906 C 303.277344 231.128906 303.089844 231.089844 302.90625 231.015625 C 302.726562 230.941406 302.566406 230.832031 302.429688 230.695312 C 302.289062 230.554688 302.183594 230.398438 302.109375 230.214844 C 302.035156 230.035156 301.996094 229.847656 301.996094 229.652344 C 301.996094 229.457031 302.035156 229.265625 302.109375 229.085938 C 302.183594 228.90625 302.289062 228.746094 302.429688 228.609375 C 302.566406 228.46875 302.726562 228.363281 302.90625 228.289062 C 303.089844 228.214844 303.277344 228.175781 303.472656 228.175781 C 303.667969 228.175781 303.855469 228.214844 304.035156 228.289062 C 304.21875 228.363281 304.378906 228.46875 304.515625 228.609375 C 304.65625 228.746094 304.761719 228.90625 304.835938 229.085938 C 304.910156 229.265625 304.949219 229.457031 304.949219 229.652344 Z M 304.949219 229.652344 " fill-opacity="1" fill-rule="nonzero"/><path stroke-linecap="butt" transform="matrix(0.674055, 0, 0, 0.67386, 1.333566, 0.0000199704)" fill="none" stroke-linejoin="miter" d="M 464.820705 340.308551 C 464.820705 340.308551 452.708847 323.097769 438.12246 341.780945 " stroke="#231f20" stroke-width="1.5" stroke-opacity="1" stroke-miterlimit="10"/><path fill="#ffffff" d="M 367.65625 673.804688 C 367.65625 673.804688 348.566406 610.1875 347.917969 547.910156 C 347.917969 547.910156 370.816406 521.703125 370.167969 491.863281 L 372.839844 481.34375 L 363.679688 410.886719 C 363.679688 410.886719 357.78125 366.453125 314.304688 349.585938 C 314.304688 349.585938 305.277344 348.492188 293.597656 342.003906 C 293.597656 342.003906 310.347656 382.105469 292.558594 401.257812 C 292.558594 401.257812 237.832031 427.929688 208.417969 396.472656 C 208.417969 396.472656 185.15625 371.167969 188.472656 333.574219 C 188.472656 333.574219 173.40625 343.703125 141.746094 356.285156 C 88.039062 377.617188 64.945312 466.78125 64.945312 466.78125 C 64.945312 466.78125 80.871094 494.25 139.273438 503.191406 L 105.0625 673.421875 " fill-opacity="1" fill-rule="nonzero"/><path stroke-linecap="butt" transform="matrix(0.674055, 0, 0, 0.67386, 1.333566, 0.0000199704)" fill="none" stroke-linejoin="miter" d="M 206.270201 742.121476 C 206.270201 742.121476 208.379635 684.118416 214.88179 663.44113 " stroke="#6d6e71" stroke-width="2" stroke-opacity="1" stroke-miterlimit="10"/><path fill="#bf6b6b" d="M 284.175781 292.5625 C 284.175781 293.132812 284.121094 293.695312 284.011719 294.253906 C 283.902344 294.808594 283.742188 295.351562 283.53125 295.875 C 283.316406 296.402344 283.058594 296.902344 282.75 297.375 C 282.441406 297.847656 282.089844 298.285156 281.695312 298.6875 C 281.304688 299.089844 280.875 299.445312 280.414062 299.761719 C 279.953125 300.078125 279.464844 300.34375 278.953125 300.5625 C 278.4375 300.78125 277.910156 300.945312 277.363281 301.054688 C 276.820312 301.167969 276.269531 301.222656 275.714844 301.222656 C 275.160156 301.222656 274.609375 301.167969 274.0625 301.054688 C 273.519531 300.945312 272.992188 300.78125 272.476562 300.5625 C 271.964844 300.34375 271.476562 300.078125 271.015625 299.761719 C 270.554688 299.445312 270.125 299.089844 269.734375 298.6875 C 269.339844 298.285156 268.988281 297.847656 268.679688 297.375 C 268.371094 296.902344 268.113281 296.402344 267.898438 295.875 C 267.6875 295.351562 267.527344 294.808594 267.417969 294.253906 C 267.308594 293.695312 267.253906 293.132812 267.253906 292.5625 C 267.253906 291.996094 267.308594 291.429688 267.417969 290.875 C 267.527344 290.316406 267.6875 289.773438 267.898438 289.25 C 268.113281 288.722656 268.371094 288.226562 268.679688 287.753906 C 268.988281 287.28125 269.339844 286.84375 269.734375 286.441406 C 270.125 286.039062 270.554688 285.679688 271.015625 285.363281 C 271.476562 285.046875 271.964844 284.78125 272.476562 284.5625 C 272.992188 284.34375 273.519531 284.179688 274.0625 284.070312 C 274.609375 283.960938 275.160156 283.902344 275.714844 283.902344 C 276.269531 283.902344 276.820312 283.960938 277.363281 284.070312 C 277.910156 284.179688 278.4375 284.34375 278.953125 284.5625 C 279.464844 284.78125 279.953125 285.046875 280.414062 285.363281 C 280.875 285.679688 281.304688 286.039062 281.695312 286.441406 C 282.089844 286.84375 282.441406 287.28125 282.75 287.753906 C 283.058594 288.226562 283.316406 288.722656 283.53125 289.25 C 283.742188 289.773438 283.902344 290.316406 284.011719 290.875 C 284.121094 291.429688 284.175781 291.996094 284.175781 292.5625 Z M 284.175781 292.5625 " fill-opacity="1" fill-rule="nonzero"/><path fill="#803435" d="M 281.679688 292.382812 C 281.679688 292.792969 281.640625 293.199219 281.5625 293.601562 C 281.484375 294.003906 281.367188 294.394531 281.214844 294.773438 C 281.0625 295.152344 280.875 295.511719 280.652344 295.851562 C 280.429688 296.191406 280.175781 296.507812 279.890625 296.796875 C 279.609375 297.089844 279.300781 297.347656 278.964844 297.574219 C 278.632812 297.804688 278.28125 297.996094 277.910156 298.152344 C 277.539062 298.308594 277.15625 298.429688 276.765625 298.507812 C 276.371094 298.585938 275.972656 298.628906 275.574219 298.628906 C 275.171875 298.628906 274.773438 298.585938 274.382812 298.507812 C 273.988281 298.425781 273.605469 298.308594 273.234375 298.152344 C 272.867188 297.996094 272.511719 297.804688 272.179688 297.574219 C 271.847656 297.347656 271.539062 297.089844 271.253906 296.796875 C 270.972656 296.507812 270.71875 296.191406 270.496094 295.851562 C 270.273438 295.511719 270.085938 295.152344 269.929688 294.773438 C 269.777344 294.394531 269.660156 294.003906 269.582031 293.601562 C 269.503906 293.199219 269.464844 292.792969 269.464844 292.382812 C 269.464844 291.972656 269.503906 291.566406 269.582031 291.164062 C 269.660156 290.761719 269.777344 290.371094 269.929688 289.992188 C 270.085938 289.613281 270.273438 289.25 270.496094 288.910156 C 270.71875 288.570312 270.972656 288.253906 271.253906 287.964844 C 271.539062 287.675781 271.847656 287.414062 272.179688 287.1875 C 272.511719 286.960938 272.867188 286.765625 273.234375 286.609375 C 273.605469 286.453125 273.988281 286.335938 274.382812 286.253906 C 274.773438 286.175781 275.171875 286.132812 275.574219 286.132812 C 275.972656 286.132812 276.371094 286.175781 276.765625 286.253906 C 277.15625 286.335938 277.539062 286.453125 277.910156 286.609375 C 278.28125 286.765625 278.632812 286.960938 278.964844 287.1875 C 279.300781 287.414062 279.609375 287.675781 279.890625 287.964844 C 280.175781 288.253906 280.429688 288.570312 280.652344 288.910156 C 280.875 289.25 281.0625 289.613281 281.214844 289.992188 C 281.367188 290.371094 281.484375 290.761719 281.5625 291.164062 C 281.640625 291.566406 281.679688 291.972656 281.679688 292.382812 Z M 281.679688 292.382812 " fill-opacity="1" fill-rule="nonzero"/><path fill="#be9e7d" d="M 134.210938 673.117188 L 130.851562 589.117188 L 140.371094 500.085938 C 140.371094 500.085938 96.8125 498.683594 68.058594 471.546875 C 68.058594 471.546875 59.789062 508.460938 61.917969 555.511719 C 64.046875 602.558594 65.746094 605.617188 65.746094 605.617188 L 76.449219 673.605469 " fill-opacity="1" fill-rule="nonzero"/><path fill="#3c2415" d="M 283.527344 159.746094 C 283.527344 159.746094 236.808594 246.472656 169.394531 247.367188 C 169.394531 247.367188 175.625 276.566406 195.636719 270.265625 C 195.636719 270.265625 207.488281 311.453125 188.464844 333.566406 C 188.464844 333.566406 164.65625 348.824219 134.492188 359.914062 C 118.132812 365.925781 106.066406 382.152344 106.066406 382.152344 C 106.066406 382.152344 133.933594 353.183594 140.667969 273.734375 C 146.816406 201.175781 172.226562 161.300781 172.226562 161.300781 C 172.226562 161.300781 216.054688 95.042969 281.605469 130.445312 C 281.605469 130.445312 316.867188 131.902344 332.003906 165.566406 C 340.761719 185.042969 339.371094 221.175781 337.96875 250.035156 C 337.96875 250.035156 336.992188 328.4375 306.503906 348.566406 C 306.503906 348.566406 279.199219 340.421875 275.902344 323.445312 C 275.902344 323.445312 283.351562 323.210938 290.132812 313.238281 C 300.175781 298.480469 306.625 288.902344 314.027344 274.253906 C 314.027344 274.253906 321.511719 259.003906 316.683594 239.804688 C 316.683594 239.804688 315.058594 229.707031 318.039062 223.835938 C 318.039062 223.835938 322.527344 181.585938 283.535156 159.746094 " fill-opacity="1" fill-rule="nonzero"/><path stroke-linecap="butt" transform="matrix(0.674055, 0, 0, 0.67386, 1.333566, 0.0000199704)" fill="none" stroke-linejoin="miter" d="M 275.128143 386.78172 C 275.128143 386.78172 261.642835 407.25032 275.98003 419.788859 C 290.317225 432.327398 282.84728 401.772317 282.84728 401.772317 " stroke="#fbb040" stroke-width="2" stroke-opacity="1" stroke-miterlimit="10"/><path stroke-linecap="butt" transform="matrix(0.674055, 0, 0, 0.67386, 1.333566, 0.0000199704)" fill="none" stroke-linejoin="miter" d="M 420.250226 446.228191 C 420.250226 446.228191 444.891193 470.858913 479.499813 458.772527 C 479.499813 458.772527 490.052777 431.110064 508.429189 440.999452 C 526.817192 450.877247 509.611399 472.702304 509.611399 472.702304 C 509.611399 472.702304 535.567865 478.788973 525.901559 498.411236 C 516.217867 518.027702 495.88849 504.05155 495.88849 504.05155 C 495.88849 504.05155 490.307763 529.302532 468.031216 518.79868 C 445.748874 508.300624 465.162618 486.440786 465.162618 486.440786 C 465.162618 486.440786 434.019496 477.739748 420.238635 446.251378 Z M 420.250226 446.228191 " stroke="#ffffff" stroke-width="5" stroke-opacity="1" stroke-miterlimit="10"/><path fill="#ffffff" d="M 284.523438 299.96875 C 284.523438 299.96875 301.132812 316.566406 324.460938 308.417969 C 324.460938 308.417969 331.574219 289.78125 343.960938 296.445312 C 356.351562 303.109375 344.757812 317.804688 344.757812 317.804688 C 344.757812 317.804688 362.257812 321.910156 355.738281 335.128906 C 349.214844 348.351562 335.511719 338.929688 335.511719 338.929688 C 335.511719 338.929688 331.75 355.945312 316.730469 348.871094 C 301.710938 341.800781 314.796875 327.066406 314.796875 327.066406 C 314.796875 327.066406 293.804688 321.203125 284.519531 299.980469 Z M 284.523438 299.96875 " fill-opacity="0.5" fill-rule="nonzero"/></svg>