<?xml version="1.0" encoding="UTF-8"?>
<svg id="Layer_1" data-name="Layer 1" xmlns="http://www.w3.org/2000/svg" xmlns:xlink="http://www.w3.org/1999/xlink" viewBox="0 0 1822.27 1057.89">
  <defs>
    <style>
      .cls-1, .cls-2, .cls-3, .cls-4, .cls-5, .cls-6, .cls-7, .cls-8, .cls-9, .cls-10, .cls-11, .cls-12, .cls-13 {
        fill: none;
      }

      .cls-14 {
        clip-path: url(#clippath);
      }

      .cls-2 {
        stroke: #9e1f63;
      }

      .cls-2, .cls-3, .cls-4 {
        stroke-width: .8px;
      }

      .cls-2, .cls-3, .cls-4, .cls-15, .cls-5, .cls-16, .cls-17, .cls-18, .cls-19, .cls-6, .cls-7, .cls-8, .cls-20, .cls-9, .cls-10, .cls-11, .cls-12, .cls-13 {
        stroke-miterlimit: 10;
      }

      .cls-3 {
        stroke: #ef4136;
      }

      .cls-4, .cls-7, .cls-9 {
        stroke: #231f20;
      }

      .cls-21 {
        fill: #f7daa6;
      }

      .cls-22 {
        fill: #f7d9a4;
      }

      .cls-23 {
        fill: #f8a69b;
      }

      .cls-24 {
        fill: #eeece8;
      }

      .cls-25 {
        fill: #efaf9e;
      }

      .cls-26, .cls-20 {
        fill: #eae1d3;
      }

      .cls-27, .cls-15 {
        fill: #e6e7e8;
      }

      .cls-28 {
        fill: #f6ac1b;
      }

      .cls-29, .cls-16, .cls-19 {
        fill: #fff;
      }

      .cls-30 {
        fill: #fbc5b3;
      }

      .cls-31 {
        fill: #803435;
      }

      .cls-32 {
        fill: #939598;
      }

      .cls-33 {
        fill: #87664d;
      }

      .cls-34 {
        fill: #b56e5b;
      }

      .cls-35 {
        fill: #8b5e3c;
      }

      .cls-36 {
        fill: #ba9777;
      }

      .cls-37 {
        fill: #ae8578;
      }

      .cls-38 {
        fill: #b1dcc4;
      }

      .cls-39, .cls-17 {
        fill: #a97c50;
      }

      .cls-40 {
        fill: #a3d7bb;
      }

      .cls-41 {
        fill: #be1e2d;
      }

      .cls-42, .cls-18 {
        fill: #be9e7d;
      }

      .cls-43 {
        fill: #c49a6c;
      }

      .cls-44 {
        fill: #e0d5c6;
      }

      .cls-45 {
        fill: #134a7e;
      }

      .cls-46 {
        fill: #231f20;
      }

      .cls-47 {
        fill: #092f44;
      }

      .cls-48 {
        fill: #414042;
      }

      .cls-49 {
        fill: #6d6e71;
      }

      .cls-50 {
        fill: #808285;
      }

      .cls-51 {
        fill: #38386a;
      }

      .cls-52 {
        fill: #603913;
      }

      .cls-53 {
        fill: #26130f;
      }

      .cls-15 {
        stroke: #58595b;
        stroke-width: .2px;
      }

      .cls-5 {
        stroke: #be1e2d;
        stroke-width: 5px;
      }

      .cls-54 {
        clip-path: url(#clippath-1);
      }

      .cls-16, .cls-17, .cls-18, .cls-9, .cls-10, .cls-11, .cls-12, .cls-13 {
        stroke-width: .5px;
      }

      .cls-16, .cls-18, .cls-19, .cls-11 {
        stroke: #603913;
      }

      .cls-17, .cls-13 {
        stroke: #a97c50;
      }

      .cls-6 {
        stroke: #fbb040;
        stroke-width: 2px;
      }

      .cls-8 {
        stroke: #2e3192;
      }

      .cls-20 {
        stroke: #8b5e3c;
        stroke-width: 3px;
      }

      .cls-10 {
        stroke: #4a2911;
      }

      .cls-12 {
        stroke: #3c2415;
      }
    </style>
    <clipPath id="clippath">
      <rect class="cls-1" x="487.04" width="388.4" height="473.98"/>
    </clipPath>
    <clipPath id="clippath-1">
      <rect class="cls-1" x="487.76" y="486.19" width="325.1" height="514.36"/>
    </clipPath>
  </defs>
  <rect class="cls-40" x="487.04" width="1334.54" height="874.05"/>
  <g class="cls-14">
    <g>
      <rect class="cls-38" x="780.83" y="200.17" width="103.08" height="102.45"/>
      <path class="cls-50" d="M827.05,210.58s-6.54,29.74-37.12,35.86v-36.09l37.12,.23Z"/>
      <path class="cls-50" d="M836.38,210.58s6.54,29.74,37.12,35.86v-36.09s-37.12,.23-37.12,.23Z"/>
      <path class="cls-50" d="M827.05,292.17s-6.54-29.74-37.12-35.86v36.09l37.12-.23Z"/>
      <path class="cls-50" d="M836.38,292.17s6.54-29.74,37.12-35.86v36.09s-37.12-.23-37.12-.23Z"/>
      <path class="cls-50" d="M831.72,223.12s-6.2,17.84-28.01,27.51c0,0,26.02,11.15,28.01,28.75,0,0,8.43-21.07,28.5-28.01,0,0-19.83-10.16-28.5-28.25Z"/>
    </g>
    <g>
      <rect class="cls-38" x="682.95" y="200.17" width="103.08" height="102.45"/>
      <path class="cls-50" d="M729.17,210.58s-6.54,29.74-37.12,35.86v-36.09l37.12,.23Z"/>
      <path class="cls-50" d="M738.51,210.58s6.54,29.74,37.12,35.86v-36.09s-37.12,.23-37.12,.23Z"/>
      <path class="cls-50" d="M729.17,292.17s-6.54-29.74-37.12-35.86v36.09l37.12-.23Z"/>
      <path class="cls-50" d="M738.51,292.17s6.54-29.74,37.12-35.86v36.09s-37.12-.23-37.12-.23Z"/>
      <path class="cls-50" d="M733.84,223.12s-6.2,17.84-28.01,27.51c0,0,26.02,11.15,28.01,28.75,0,0,8.43-21.07,28.5-28.01,0,0-19.83-10.16-28.5-28.25Z"/>
    </g>
    <g>
      <rect class="cls-38" x="489.39" y="200.17" width="103.08" height="102.45"/>
      <path class="cls-50" d="M535.62,210.58s-6.54,29.74-37.12,35.86v-36.09l37.12,.23Z"/>
      <path class="cls-50" d="M544.95,210.58s6.54,29.74,37.12,35.86v-36.09s-37.12,.23-37.12,.23Z"/>
      <path class="cls-50" d="M535.62,292.17s-6.54-29.74-37.12-35.86v36.09l37.12-.23Z"/>
      <path class="cls-50" d="M544.95,292.17s6.54-29.74,37.12-35.86v36.09s-37.12-.23-37.12-.23Z"/>
      <path class="cls-50" d="M540.28,223.12s-6.2,17.84-28.01,27.51c0,0,26.02,11.15,28.01,28.75,0,0,8.43-21.07,28.5-28.01,0,0-19.83-10.16-28.5-28.25Z"/>
    </g>
    <g>
      <rect class="cls-38" x="591.45" y="200.17" width="103.08" height="102.45"/>
      <path class="cls-50" d="M637.67,210.58s-6.54,29.74-37.12,35.86v-36.09l37.12,.23Z"/>
      <path class="cls-50" d="M647,210.58s6.54,29.74,37.12,35.86v-36.09s-37.12,.23-37.12,.23Z"/>
      <path class="cls-50" d="M637.67,292.17s-6.54-29.74-37.12-35.86v36.09l37.12-.23Z"/>
      <path class="cls-50" d="M647,292.17s6.54-29.74,37.12-35.86v36.09s-37.12-.23-37.12-.23Z"/>
      <path class="cls-50" d="M642.34,223.12s-6.2,17.84-28.01,27.51c0,0,26.02,11.15,28.01,28.75,0,0,8.43-21.07,28.5-28.01,0,0-19.83-10.16-28.5-28.25Z"/>
    </g>
    <g>
      <rect class="cls-38" x="780.83" y="101.47" width="103.08" height="102.45"/>
      <path class="cls-50" d="M827.05,111.88s-6.54,29.74-37.12,35.86v-36.09l37.12,.23Z"/>
      <path class="cls-50" d="M836.38,111.88s6.54,29.74,37.12,35.86v-36.09s-37.12,.23-37.12,.23Z"/>
      <path class="cls-50" d="M827.05,193.48s-6.54-29.74-37.12-35.86v36.09l37.12-.23Z"/>
      <path class="cls-50" d="M836.38,193.48s6.54-29.74,37.12-35.86v36.09s-37.12-.23-37.12-.23Z"/>
      <path class="cls-50" d="M831.72,124.43s-6.2,17.84-28.01,27.51c0,0,26.02,11.15,28.01,28.75,0,0,8.43-21.07,28.5-28.01,0,0-19.83-10.16-28.5-28.25Z"/>
    </g>
    <g>
      <rect class="cls-38" x="682.95" y="101.47" width="103.08" height="102.45"/>
      <path class="cls-50" d="M729.17,111.88s-6.54,29.74-37.12,35.86v-36.09l37.12,.23Z"/>
      <path class="cls-50" d="M738.51,111.88s6.54,29.74,37.12,35.86v-36.09s-37.12,.23-37.12,.23Z"/>
      <path class="cls-50" d="M729.17,193.48s-6.54-29.74-37.12-35.86v36.09l37.12-.23Z"/>
      <path class="cls-50" d="M738.51,193.48s6.54-29.74,37.12-35.86v36.09s-37.12-.23-37.12-.23Z"/>
      <path class="cls-50" d="M733.84,124.43s-6.2,17.84-28.01,27.51c0,0,26.02,11.15,28.01,28.75,0,0,8.43-21.07,28.5-28.01,0,0-19.83-10.16-28.5-28.25Z"/>
    </g>
    <g>
      <rect class="cls-38" x="585.07" y="101.47" width="103.08" height="102.45"/>
      <path class="cls-50" d="M631.3,111.88s-6.54,29.74-37.12,35.86v-36.09l37.12,.23Z"/>
      <path class="cls-50" d="M640.63,111.88s6.54,29.74,37.12,35.86v-36.09s-37.12,.23-37.12,.23Z"/>
      <path class="cls-50" d="M631.3,193.48s-6.54-29.74-37.12-35.86v36.09l37.12-.23Z"/>
      <path class="cls-50" d="M640.63,193.48s6.54-29.74,37.12-35.86v36.09s-37.12-.23-37.12-.23Z"/>
      <path class="cls-50" d="M635.96,124.43s-6.2,17.84-28.01,27.51c0,0,26.02,11.15,28.01,28.75,0,0,8.43-21.07,28.5-28.01,0,0-19.83-10.16-28.5-28.25Z"/>
    </g>
    <g>
      <rect class="cls-38" x="489.39" y="101.47" width="103.08" height="102.45"/>
      <path class="cls-50" d="M535.62,111.88s-6.54,29.74-37.12,35.86v-36.09l37.12,.23Z"/>
      <path class="cls-50" d="M544.95,111.88s6.54,29.74,37.12,35.86v-36.09s-37.12,.23-37.12,.23Z"/>
      <path class="cls-50" d="M535.62,193.48s-6.54-29.74-37.12-35.86v36.09l37.12-.23Z"/>
      <path class="cls-50" d="M544.95,193.48s6.54-29.74,37.12-35.86v36.09s-37.12-.23-37.12-.23Z"/>
      <path class="cls-50" d="M540.28,124.43s-6.2,17.84-28.01,27.51c0,0,26.02,11.15,28.01,28.75,0,0,8.43-21.07,28.5-28.01,0,0-19.83-10.16-28.5-28.25Z"/>
    </g>
    <g>
      <rect class="cls-38" x="780.83" y="3.71" width="103.08" height="102.45"/>
      <path class="cls-50" d="M827.05,14.12s-6.54,29.74-37.12,35.86V13.9l37.12,.23Z"/>
      <path class="cls-50" d="M836.38,14.12s6.54,29.74,37.12,35.86V13.9s-37.12,.23-37.12,.23Z"/>
      <path class="cls-50" d="M827.05,95.72s-6.54-29.74-37.12-35.86v36.09l37.12-.23Z"/>
      <path class="cls-50" d="M836.38,95.72s6.54-29.74,37.12-35.86v36.09s-37.12-.23-37.12-.23Z"/>
      <path class="cls-50" d="M831.72,26.67s-6.2,17.84-28.01,27.51c0,0,26.02,11.15,28.01,28.75,0,0,8.43-21.07,28.5-28.01,0,0-19.83-10.16-28.5-28.25Z"/>
    </g>
    <g>
      <rect class="cls-38" x="682.95" y="3.71" width="103.08" height="102.45"/>
      <path class="cls-50" d="M729.17,14.12s-6.54,29.74-37.12,35.86V13.9l37.12,.23Z"/>
      <path class="cls-50" d="M738.51,14.12s6.54,29.74,37.12,35.86V13.9s-37.12,.23-37.12,.23Z"/>
      <path class="cls-50" d="M729.17,95.72s-6.54-29.74-37.12-35.86v36.09l37.12-.23Z"/>
      <path class="cls-50" d="M738.51,95.72s6.54-29.74,37.12-35.86v36.09s-37.12-.23-37.12-.23Z"/>
      <path class="cls-50" d="M733.84,26.67s-6.2,17.84-28.01,27.51c0,0,26.02,11.15,28.01,28.75,0,0,8.43-21.07,28.5-28.01,0,0-19.83-10.16-28.5-28.25Z"/>
    </g>
    <g>
      <rect class="cls-38" x="585.07" y="3.71" width="103.08" height="102.45"/>
      <path class="cls-50" d="M631.3,14.12s-6.54,29.74-37.12,35.86V13.9l37.12,.23Z"/>
      <path class="cls-50" d="M640.63,14.12s6.54,29.74,37.12,35.86V13.9s-37.12,.23-37.12,.23Z"/>
      <path class="cls-50" d="M631.3,95.72s-6.54-29.74-37.12-35.86v36.09l37.12-.23Z"/>
      <path class="cls-50" d="M640.63,95.72s6.54-29.74,37.12-35.86v36.09s-37.12-.23-37.12-.23Z"/>
      <path class="cls-50" d="M635.96,26.67s-6.2,17.84-28.01,27.51c0,0,26.02,11.15,28.01,28.75,0,0,8.43-21.07,28.5-28.01,0,0-19.83-10.16-28.5-28.25Z"/>
    </g>
    <g>
      <rect class="cls-38" x="489.39" y="3.71" width="103.08" height="102.45"/>
      <path class="cls-50" d="M535.62,14.12s-6.54,29.74-37.12,35.86V13.9l37.12,.23Z"/>
      <path class="cls-50" d="M544.95,14.12s6.54,29.74,37.12,35.86V13.9s-37.12,.23-37.12,.23Z"/>
      <path class="cls-50" d="M535.62,95.72s-6.54-29.74-37.12-35.86v36.09l37.12-.23Z"/>
      <path class="cls-50" d="M544.95,95.72s6.54-29.74,37.12-35.86v36.09s-37.12-.23-37.12-.23Z"/>
      <path class="cls-50" d="M540.28,26.67s-6.2,17.84-28.01,27.51c0,0,26.02,11.15,28.01,28.75,0,0,8.43-21.07,28.5-28.01,0,0-19.83-10.16-28.5-28.25Z"/>
    </g>
  </g>
  <g>
    <path class="cls-24" d="M1193.58,464.63v-122.75s1.98-40.61,54.09-40.61h449.27s35.61,2.62,32.05,40.21v278.58h-516.64l-18.77-155.45Z"/>
    <rect class="cls-44" x="1139.61" y="746.67" width="647.62" height="79.01"/>
    <rect class="cls-33" x="1166.94" y="824.7" width="53.73" height="45.91"/>
    <rect class="cls-33" x="1719.34" y="824.7" width="53.73" height="45.91"/>
    <path class="cls-44" d="M1193.58,464.63h45.67s24.37,7.44,24.37,33.82v120.15h-78.15s8.11-153.97,8.11-153.97Z"/>
    <path class="cls-44" d="M1729.31,464.63h-45.67s-24.37,7.44-24.37,33.82v120.15h78.15l-8.11-153.97Z"/>
    <rect class="cls-24" x="1135.72" y="464.63" width="92.19" height="179.44" rx="7.12" ry="7.12"/>
    <rect class="cls-24" x="1690.56" y="464.63" width="92.19" height="179.44" rx="7.12" ry="7.12"/>
    <rect class="cls-24" x="1116.67" y="616.12" width="689.03" height="130.55" rx="4.21" ry="4.21"/>
  </g>
  <rect class="cls-22" x="487.33" y="869.14" width="1334.94" height="132.3"/>
  <g>
    <rect class="cls-43" x="924.41" y="18.52" width="129.29" height="150.34"/>
    <rect class="cls-26" x="935.6" y="28.45" width="109.25" height="131"/>
    <g>
      <path class="cls-25" d="M973.05,75.1s-16.42-27.55,.79-33.64c0,0,22.25-2.38,7.42,33.11l-2.65,5.03-5.56-4.5Z"/>
      <path class="cls-25" d="M978.25,75.09s11.09-30.09,26.65-20.54c0,0,15.85,15.8-21.08,26.59l-5.58,1.11v-7.16Z"/>
      <path class="cls-25" d="M984.18,80.48s27.36-16.73,33.65,.42c0,0,2.63,22.22-33.02,7.79l-5.06-2.59,4.44-5.61Z"/>
      <path class="cls-25" d="M987.26,85.15s29.97,11.4,20.26,26.87c0,0-15.96,15.68-26.37-21.36l-1.05-5.59,7.16,.08Z"/>
      <path class="cls-25" d="M978.37,91.17s20.6,24.58,4.58,33.34c0,0-21.59,5.9-12.6-31.5l1.81-5.39,6.21,3.56Z"/>
      <path class="cls-25" d="M977.91,95.35s-11.28,30.02-26.79,20.37c0,0-15.74-15.9,21.25-26.45l5.59-1.07-.05,7.16Z"/>
      <path class="cls-25" d="M970.35,92.64s-29.05,13.59-33.39-4.15c0,0-.15-22.38,33.68-4.07l4.74,3.14-5.04,5.08Z"/>
      <path class="cls-25" d="M969.7,82.55s-31.39-6.57-24.22-23.36c0,0,13.31-17.99,29.39,16.96l1.91,5.36-7.08,1.04Z"/>
      <circle class="cls-28" cx="977.79" cy="85.32" r="9.75"/>
    </g>
    <g>
      <path class="cls-30" d="M1010.74,95.31s-12.52-21,.61-25.64c0,0,16.96-1.82,5.65,25.24l-2.02,3.84-4.24-3.43Z"/>
      <path class="cls-30" d="M1014.7,95.31s8.45-22.94,20.32-15.66c0,0,12.08,12.04-16.07,20.27l-4.25,.84v-5.46Z"/>
      <path class="cls-30" d="M1019.23,99.41s20.86-12.75,25.65,.32c0,0,2.01,16.94-25.17,5.94l-3.86-1.98,3.38-4.28Z"/>
      <path class="cls-30" d="M1021.58,102.97s22.85,8.69,15.44,20.48c0,0-12.17,11.95-20.1-16.28l-.8-4.26,5.45,.06Z"/>
      <path class="cls-30" d="M1014.8,107.56s15.71,18.73,3.49,25.41c0,0-16.45,4.5-9.6-24.01l1.38-4.11,4.73,2.71Z"/>
      <path class="cls-30" d="M1014.44,110.74s-8.6,22.88-20.42,15.52c0,0-12-12.12,16.2-20.16l4.26-.82-.04,5.46Z"/>
      <path class="cls-30" d="M1008.68,108.68s-22.14,10.36-25.45-3.16c0,0-.11-17.06,25.68-3.1l3.62,2.39-3.84,3.88Z"/>
      <path class="cls-30" d="M1008.19,100.99s-23.93-5.01-18.46-17.81c0,0,10.15-13.71,22.4,12.93l1.46,4.08-5.4,.8Z"/>
      <circle class="cls-28" cx="1014.35" cy="103.1" r="7.43"/>
    </g>
  </g>
  <g>
    <polygon class="cls-35" points="724.23 959.24 703.29 959.24 692.52 725.66 738.44 725.66 724.23 959.24"/>
    <polygon class="cls-35" points="873.77 959.24 852.83 959.24 842.06 725.66 887.99 725.66 873.77 959.24"/>
    <polygon class="cls-35" points="829.88 870.04 808.94 870.04 798.17 636.47 844.09 636.47 829.88 870.04"/>
    <polygon class="cls-35" points="981.27 870.04 960.33 870.04 949.56 636.47 995.48 636.47 981.27 870.04"/>
    <polygon class="cls-39" points="997.14 633.97 803.94 633.97 690.77 727.55 891.91 727.55 997.14 633.97"/>
    <polygon class="cls-35" points="997.14 633.97 891.91 727.55 690.77 727.55 690.77 753.63 893.1 753.63 998.55 653.27 997.14 633.97"/>
    <polygon class="cls-39" points="708.96 400.1 822.88 346.77 822.88 635.06 708.96 726.75 708.96 400.1"/>
    <polygon class="cls-35" points="822.88 346.77 797.75 346.77 697.25 395.92 697.25 727.55 708.96 726.75 708.96 400.1 822.88 346.77"/>
    <line class="cls-19" x1="708.96" y1="726.75" x2="822.88" y2="635.06"/>
  </g>
  <g>
    <circle class="cls-20" cx="1159.93" cy="85.94" r="68.27"/>
    <line class="cls-16" x1="1099.85" y1="86.28" x2="1111.06" y2="86.28"/>
    <line class="cls-16" x1="1208.91" y1="86.28" x2="1220.11" y2="86.28"/>
    <line class="cls-16" x1="1160.36" y1="25.77" x2="1160.36" y2="36.98"/>
    <line class="cls-16" x1="1160.36" y1="134.83" x2="1160.36" y2="146.03"/>
    <polyline class="cls-52" points="1157.63 87.39 1160.46 45.82 1162.77 89.8"/>
    <polygon class="cls-52" points="1162.82 89.96 1138.93 101.6 1157.28 86.8 1162.82 89.96"/>
  </g>
  <g>
    <g>
      <path class="cls-46" d="M1427.08,844.3s-3.67-30.38-53.52-10.31c-35.52,14.3-73.91,10.74-69.82,22.53l13.83,18.67,45.72,2.49,46.03-14.57,17.78-18.81Z"/>
      <path class="cls-48" d="M1427.08,844.3s-6.68,7.59-17.11,11.8c-10.22,4.13-35.56,10.37-35.56,10.37,0,0-46.9,25.95-71.24-11.47l1.32,8.61s11.59,30.63,74.3,13.93c0,0,36.69-12.28,47.07-19.09,0,0,2.34-4.13,1.21-14.16Z"/>
      <path class="cls-42" d="M1367.34,779.77c.13,.43,.21,.88,.24,1.33l3.81,18.55s6.24,19.74-15.61,27.37c-.22,.08,.19-.14,0,0l-15.41,8.92c-.27,.2-.55,.38-.85,.54l-8.47,4.47c-.45,.24-.93,.42-1.42,.55l-15.9,4s-2.68,.49-5.84,2.75c-.84,.6-2.76,2.7,.3,3.28,0,0-2.44,3.43,1.58,5.68,0,0-1.88,5.93,5.09,3.74,0,0-1.54,3.41,.99,4.77,1.78,.96,3.26,2.43,3.67,4.41,.55,2.71,3.42,5.46,13.91,3.25,.49-.1,1-.15,1.5-.14,3.97,.11,22.91,.27,31.11-6.51,0,0,14.5-11.54,31.55-11.93,12.08-.28,19.75-7.88,23.19-12.28,1.37-1.75,1.67-4.1,.87-6.17-2.3-5.98-9.14-21.06-10.07-35.79"/>
      <path class="cls-11" d="M1319.95,866.2s.65-4.39,7.46-5.62"/>
      <path class="cls-11" d="M1314.86,860.95s3.5-5.48,8.53-5.53"/>
      <path class="cls-11" d="M1309.78,857.21s3.77-6.06,9.33-6.43"/>
      <path class="cls-11" d="M1308.2,851.53s2.61-4.17,7.13-4.51"/>
      <path class="cls-48" d="M1373.85,867.9s-5.7-29.25-27.91-35.15l-28.33,11.5s17.78,11.25,26.8,30.67c0,0,15.15,1.32,29.44-7.02Z"/>
      <path class="cls-29" d="M1370.3,873.01s-10.97-33.52-31.7-38.66l-5.02,2.42s21.02,4.73,31.08,37.8l5.64-1.56Z"/>
      <path class="cls-29" d="M1360.24,876.15s-10.29-32.22-31.02-37.35l-5.02,2.42s19.02,3.26,30.55,36.16l5.5-1.22Z"/>
    </g>
    <g>
      <path class="cls-46" d="M1504.12,852.44s-4.15-34.38-60.59-11.67c-40.21,16.18-83.66,12.16-79.03,25.51l15.65,21.13,51.75,2.81,52.1-16.49,20.12-21.3Z"/>
      <path class="cls-48" d="M1504.12,852.44s-7.56,8.59-19.36,13.35c-11.57,4.67-40.25,11.74-40.25,11.74,0,0-53.09,29.37-80.64-12.98l1.5,9.75s13.12,34.67,84.1,15.77c0,0,41.53-13.9,53.28-21.61,0,0,2.65-4.68,1.37-16.02Z"/>
      <path class="cls-42" d="M1438.3,798.79s7.92,20.39-12.28,29.77l-16.86,11.57-10.62,6.67-18.84,6.26s-13.6-.96-15.57,3.07c-1.97,4.04-3.83,5.71,2.68,11.36,0,0,2.65,6.04,7.75,4.52,0,0,3.58,5.2,11.91,3.85,0,0,2.13,4.54,11.08,2.92,0,0,3.08,3.4,7.6,1.56,0,0,26.76,2.23,36.69-7.31,0,0,17.17-10.35,33.47-12.51,9.19-1.22,14.85-4.91,18.15-8.14,2.67-2.61,3.77-6.41,2.92-10.05-1.69-7.18-4.84-21.52-6.22-33.93"/>
      <path class="cls-11" d="M1383.62,856.36l-9.64,4.23s-6.48,1.43-7.18,6.91"/>
      <path class="cls-11" d="M1389.15,859.88s-16.13,5.87-15.1,9.97l.5,2.17"/>
      <path class="cls-11" d="M1395.36,865.82s-9.23,3.26-8.89,10.04"/>
      <path class="cls-11" d="M1400.97,873.14s-4.81,1.52-3.43,5.64"/>
      <path class="cls-48" d="M1453.46,875.94s-9.44-36.14-34.59-42.83l-29.49,15.84s21.24,16.04,31.45,38.03c0,0,16.45-1.6,32.63-11.04Z"/>
      <path class="cls-29" d="M1448.85,879.83s-12.42-37.95-35.88-43.76l-5.69,2.73s23.79,5.36,35.19,42.79l6.38-1.76Z"/>
      <path class="cls-29" d="M1437.47,883.39s-10.67-35.91-34.13-41.72l-5.69,2.62s20.56,3.25,33.6,40.49l6.22-1.38Z"/>
    </g>
    <path class="cls-32" d="M1448.35,530.78s-96.17,20.95-110.89,68.38c0,0-12.27,97.31,20.44,209.34,0,0,38.09,19.26,61.81,5.36,0,0,2.14-29.99,.5-51.25,0,0,7.02,27.86,12.41,50.12,0,0,44.75,9.6,62.74-.21,0,0,17.53-104.06,.65-180.71,0,0,107.61,16.53,119.84-32.39,12.8-51.2,2.35-66.14,2.35-66.14,0,0-94.6,32.32-169.86-2.49Z"/>
    <path class="cls-7" d="M1420.35,767.21s-17.31-128.4-13.05-157.16c4.26-28.75,71.31-48.67,71.31-48.67"/>
    <path class="cls-49" d="M1357.91,808.49l1.15,16.76s37.53,10.51,62.56,1.45l-1.43-15.48s-46.43,6.67-62.28-2.74Z"/>
    <path class="cls-49" d="M1432.63,812.71l.69,13.24s43.55,9.76,63.25-1.42l-1.19-12.04s-25.31,9.73-62.74,.21Z"/>
    <path class="cls-42" d="M1398.81,409.42l-13.91,57.31s-4.21,31.76-13.74,76.56c0,0,16.46,11.74,34.72,8.9,0,0,16.82-35.6,25.75-63.2l6.87-43.23s-20.62-16.04-39.7-36.33Z"/>
    <path class="cls-42" d="M1540.1,262.75s2.45,43.7,15.53,50.72c0,0,4.49,41.4-61.62,45.81,0,0-47.87-18.4-15.45-41.87,3.46-2.51,5.44-5.1,3.49-13.46l58.05-41.2Z"/>
    <path class="cls-45" d="M1553.22,312.08s26.37,9.29,45.77,21.27c36.41,22.49,40.23,91.03,40.23,91.03,0,0-38.79,21.92-55.65,17.04,0,0,37.74,73.94,34.65,91.84,0,0-126.67,39.19-179.99,.12,0,0,5-5.85-.62-86.93,0,0-38.06-10.18-44.07-34.22,0,0,27.52-59.92,43.87-71.97,0,0,22.72-23.36,41.17-22.86,0,0-9.68,28.22,5.08,35.32,14.75,7.1,75.04,.33,69.58-40.65Z"/>
    <path class="cls-42" d="M1450.54,199.44s-11.13,12.55-5.3,42.47c0,0,3.46,7.39,2.85,16.19,0,0-3.11,16.03,3.56,28.03,6.67,12,16.16,24.1,16.16,24.1,0,0,7.57,6.32,16.78,3.75,0,0,14.67,3.59,26.45-5.52,11.78-9.11,31.07-36.03,31.07-36.03,0,0,11.74,2.1,14.15-10.02,2.41-12.12,6.81-21.61-1.1-27.9-7.91-6.29-15.23,13.61-15.23,13.61,0,0-3.06-5.95-2.45-14.75,0,0-.21-17.26-12.31-36.77,0,0-33.46-11.1-74.64,2.83Z"/>
    <path class="cls-46" d="M1486.8,231.82s16.38-3.49,29.85,3.77c0,0-5.91-11.75-29.85-8.71,0,0-4.15,2.77,0,4.94Z"/>
    <path class="cls-46" d="M1446.53,240.5c8.76-7.15,15.17-6.97,15.17-6.97,2.75-3.62-2.04-4.27-2.04-4.27-6.93,2.32-11.74,5.14-15.06,7.94,0,0,1.45,3.7,1.93,3.31Z"/>
    <path class="cls-53" d="M1485.61,314.82s17.63,1.09,24.4-5.68c0,0,8.13-5.08,17.08-17.12,0,0-10.33,21.05-26.23,24.35,0,0-7.44,2-15.25-1.55,0,0,.45,1.7,0,0Z"/>
    <path class="cls-4" d="M1466.32,260.36s-6.08,16.99,9.61,13.35"/>
    <path class="cls-4" d="M1555.36,246.93s-7.84-10.06-10.88,11c0,0,4.91-10.41,8.39-3.88"/>
    <g>
      <path class="cls-29" d="M1504.28,242.48s-.02-.39-.32-.69c-1.01-1.02-3.3-2.9-6.74-2.72-3.86,.2-5.79,3.93-6.45,5.26-.11,.23-.09,.42-.09,.42,0,0,0,.22,.14,.36,.65,.68,2.81,2.57,6.46,2.43,2.17-.08,5.17-1.41,6.9-4.46,.12-.21,.12-.47,.1-.61Z"/>
      <circle class="cls-53" cx="1496.36" cy="243.57" r="3.99"/>
      <circle class="cls-29" cx="1498.83" cy="242.63" r="1.1"/>
      <path class="cls-9" d="M1490.53,244.35s4.21-9.45,13.57-2.6"/>
    </g>
    <g>
      <path class="cls-29" d="M1461.47,247.91s.04-.36-.2-.69c-.79-1.09-2.65-3.17-5.88-3.49-3.61-.36-5.95,2.83-6.75,3.97-.14,.2-.15,.38-.15,.38,0,0-.03,.2,.07,.35,.51,.73,2.24,2.79,5.66,3.19,2.03,.24,5-.57,7.05-3.16,.14-.18,.18-.42,.18-.56Z"/>
      <circle class="cls-53" cx="1453.95" cy="247.79" r="3.74"/>
      <circle class="cls-29" cx="1456.5" cy="247.34" r="1.05"/>
      <path class="cls-9" d="M1448.57,247.82s5.04-8.73,12.8-.44"/>
    </g>
    <path class="cls-37" d="M1465.79,290.73s4.52-9.04,13.56-7.91c0,0,5.65-5.17,21.31,2.58,0,0-7.1,11.94-18.72,12.11-11.62,.16-16.14-6.78-16.14-6.78Z"/>
    <path class="cls-31" d="M1467.4,290.57s9.2-11.3,30.67-4.68c0,0-10.01,5.49-10.98,6.78s-6.29,3.55-10.01,1.29-9.68-3.39-9.68-3.39Z"/>
    <path class="cls-29" d="M1470.95,287.82s5.97-6.13,20.5-3.39l-20.5,3.39Z"/>
    <path class="cls-8" d="M1564.29,373.54s-5.02,29.22,16.56,68.07"/>
    <path class="cls-46" d="M1466.94,226.94s4.17,3.76,1.53,6.96c0,0,4.87-3.62-1.53-6.96Z"/>
    <path class="cls-46" d="M1478.59,226.2s-2.85,4.84,.63,7.09c0,0-5.73-1.98-.63-7.09Z"/>
    <path class="cls-8" d="M1437.52,446.25s-4.88-22.05-1.84-54.67"/>
    <path class="cls-42" d="M1529.24,560.88s-9.12,4.8-13.43,1.92-23.51-3.36-23.51-3.36l-27.83,18.71-6.24,11.03s-6.72,3.36-3.84,8.64c0,0,2.88,3.84,6.72,3.84,0,0,6.72,1.92,11.51-.48s8.16-3.84,8.16-3.84c0,0,.48,4.8,6.72,4.8s21.11-1.44,21.11-1.44l22.07,3.36,12.95-14.39,8.64-1.92"/>
    <line class="cls-11" x1="1458.24" y1="589.18" x2="1491.69" y2="571.69"/>
    <path class="cls-11" d="M1461.11,601.66s-3.66-4.42,2.06-8.59,27.03-12.75,27.03-12.75l6.81-.88"/>
    <path class="cls-11" d="M1480.78,597.34s1.73-5.15,10.52-4.49c8.79,.66,13.41-2.2,13.41-2.2"/>
    <path class="cls-42" d="M1371.16,543.29s-1.62,6.49-6.89,8.72c0,0-7.5-1.22-10.74,8.92,0,0-5.68,3.24-6.08,6.08,0,0-6.08,.81-5.27,5.88s1.82,8.92,1.82,8.92c0,0,7.8,2.75,8.72-2.03,0,0,3.24,10.14,8.92,8.31s2.43-12.77,2.43-12.77l9.93,13.79s2.64,3.85,7.5,1.42c0,0,2.23-1.62,2.43-4.26,0,0,3.65,2.84,5.68-.61s.81-7.1,.81-7.1l-5.27-12.37s6.89,3.24,10.95,1.42c0,0,0,5.47,5.68,5.88s7.3-5.88,7.3-5.88c0,0-.2-9.53-1.62-12.57s-3.65-5.27-7.3-4.66-6.89-.41-6.89-.41c0,0-16.62-2.23-22.1-6.69Z"/>
    <line class="cls-10" x1="1355.95" y1="560.72" x2="1364.06" y2="575.32"/>
    <path class="cls-10" d="M1368.32,558.29s3.45,8.92,4.87,11.15,10.74,16.83,10.74,16.83"/>
    <line class="cls-10" x1="1385.15" y1="566.2" x2="1382.11" y2="558.69"/>
    <path class="cls-10" d="M1396.09,567.61s-.41-7.3,.41-9.12"/>
    <path class="cls-42" d="M1583.56,441.42s-.21,47.15,6.37,63.3c0,0-51.44,48.61-62.36,56.97,0,0,10.45,19.74,22.99,26.71,0,0,53.45-28.01,74.58-54.02,21.13-26.01,11.41-108.48,11.41-108.48"/>
    <path class="cls-46" d="M1442.97,194.53c1.49,22.42,1.01,38.04,1.01,38.04,.52-30.52,7.09-29.73,7.09-29.73,24.66-18.5,69.77-3.06,69.77-3.06,15.43,16.97,17.48,51.95,17.48,51.95,9.32-22.98,18.34-15.5,18.34-15.5,8.69-58.01-29.09-60.94-29.09-60.94,0,0-15.65-15.4-30.65-7.58,0,0-8.4-8.94-21.35-.51,0,0-14.91-5.23-20.81,7.22,0,0-13.38-3.61-11.8,20.12Z"/>
  </g>
  <g class="cls-54">
    <g>
      <polygon class="cls-35" points="598.58 870.96 623.31 870.96 636.02 595.18 581.8 595.18 598.58 870.96"/>
      <polygon class="cls-30" points="615.61 500.44 700.24 561.5 .17 561.5 0 501.85 615.61 500.44"/>
      <polygon class="cls-35" points="649.21 1057.89 673.93 1057.89 686.65 707.03 632.43 707.03 649.21 1057.89"/>
      <path class="cls-23" d="M700.24,561.5l38.14,154.57s-34.34,17.17-75.36-4.77c0,0-12.4,19.08-41.97,2.86,0,0-10.49,8.58-56.28-.95,0,0-32.43-3.82-47.69,1.91,0,0-14.31,11.45-37.2-.95,0,0-20.03,9.54-38.16,0,0,0-23.85,4.77-52.46-3.82-28.62-8.58-73.45,15.26-73.45,15.26,0,0-7.63-14.31-33.39-10.49,0,0-22.89,13.35-41.02,1.91,0,0-25.75-8.58-83.94-.95,0,0-13.35,10.49-25.75,0,0,0-102.13,9.9-130.75-2.5L.17,561.5"/>
      <line class="cls-2" x1="663.01" y1="711.3" x2="655.79" y2="597.99"/>
      <line class="cls-2" x1="621.04" y1="714.16" x2="630.14" y2="627.74"/>
      <line class="cls-2" x1="441.72" y1="714.16" x2="451.68" y2="593.15"/>
      <path class="cls-2" d="M282.42,715.12s-17.84-74.8-22.56-123.54"/>
      <path class="cls-2" d="M315.8,725.61s17.17-50.7,13.24-119.88"/>
      <line class="cls-2" x1="157.46" y1="716.07" x2="150.58" y2="623.81"/>
      <line class="cls-2" x1="479.87" y1="714.16" x2="476.14" y2="644.63"/>
      <line class="cls-2" x1="517.07" y1="715.12" x2="512.64" y2="622.26"/>
      <line class="cls-2" x1="131.71" y1="716.07" x2="138.72" y2="650.31"/>
    </g>
  </g>
  <path class="cls-10" d="M1352.71,579.78s-4.6-4.94-5.27-12.77"/>
  <g>
    <path class="cls-51" d="M1676.13,888.99s-17.25-1.96-15.2-23.36c2.66-27.77,1.07-51.95,5.89-83.02s13.93-75.52,28.39-104.44c14.46-28.92,51.42-28.39,51.42-28.39,0,0,53.02-3.75,64.27,33.74,11.25,37.49,8.03,117.83,8.03,117.83l-4.28,54.63s-14.7,43.95-42.31,46.6c-22.34,2.14-96.2-13.59-96.2-13.59Z"/>
    <path class="cls-5" d="M1662.76,846.72s-3.12-42.09,5.45-51.73c8.57-9.64,14.15-19.33,36.11-7.55,21.96,11.78,36.42,6.96,36.42,6.96,0,0,21.96-13.93,35.35,10.71,13.39,24.64,2.68,61.06,2.68,61.06"/>
    <path class="cls-5" d="M1702.17,741.37s34.28,11.25,72.31,7.5"/>
    <path class="cls-5" d="M1684.49,709.23s18.75-31.6,54.63-25.71,43.92,11.78,43.92,11.78c0,0,18.75,14.46,16.07,34.81,0,0,2.68,14.46,6.96,16.6,4.28,2.14,9.11,16.6,7.5,27.32"/>
    <path class="cls-3" d="M1670.57,768.15s3.21-36.96,29.46-49.81c0,0,4.82-3.21,7.5-10.71,0,0,25.17-3.21,69.09,6.43,0,0,13.39,43.38,16.6,77.66"/>
    <path class="cls-3" d="M1778.62,868.75s-.4,33.3-15.93,34.37"/>
    <polyline class="cls-3" points="1798.04 741.37 1792.15 880.09 1782.51 894.55"/>
    <path class="cls-41" d="M1662.44,831.23s-16.42,3.19-16.42,19.16-14.6,20.99-14.6,20.99l8.67,8.67s10.49-3.19,13.23-17.79,9.12-20.07,9.12-20.07v-10.95Z"/>
    <path class="cls-41" d="M1730.77,651.76s9.22-6.66,17.43-26.73c8.21-20.07,36.95,2.74,36.95,2.74,0,0,6.44,17.56,4.16,30.34,0,0-4.1-2.63-13.22-5.18,0,0,7.24-3.71,4.51-18.77-2.74-15.05-21.9-12.32-21.9-12.32,0,0-8.67,1.37-8.67,14.14s-3.41,13.8-3.41,13.8c0,0-9.01,.61-15.85,1.98Z"/>
  </g>
  <g>
    <path class="cls-42" d="M967.82,437.63s13.87,49.14,19.8,58.04l61.75-28.67,19.37,18.45s-26.69,54.26-67.26,74.05c-40.58,19.79-50.97-.99-50.97-.99,0,0-5.07-15.4,8.57-56.84,13.64-41.43,8.74-64.05,8.74-64.05Z"/>
    <path class="cls-35" d="M1000.78,889.98s-11.05,17.19-5.53,28.86c0,0,5.53,17.81,46.66,12.28,0,0,54.33,21.4,67.23-9.3,0,0-.92-18.33-45.74-23.85,0,0,5.53,14.74-14.12,14.12,0,0-38.07-.61-48.51-22.1Z"/>
    <path class="cls-36" d="M1000.78,889.98s1.76-10.53,4.97-15.11c0,0-5.96-44.02-1.38-65.12,0,0,29.21-3.78,48.92-4.7,0,0-7.65,53.31-10.4,74.86,0,0-1.38,11.92,6.88,13.3l13.63,4.75s7.19,24.59-28.15,13.49-34.48-21.47-34.48-21.47Z"/>
    <path class="cls-36" d="M932.6,900.51s1.9-11.34,5.36-16.29c0,0-6.42-47.44-1.48-70.18,0,0,30.64,6.92,51.89,5.93,0,0-7.41,46.45-10.38,69.68,0,0-1.48,12.85,7.41,14.33l14.69,5.12s7.75,26.51-30.33,14.54c-38.09-11.97-37.16-23.14-37.16-23.14Z"/>
    <path class="cls-47" d="M960.36,589.73s103.84,15.12,102.52,88.72c-1.31,73.61-2.93,124.94-2.93,124.94,0,0-87.14,32.99-139.67,6.65,0,0-18.83-74.14-9.22-101.18l-94.63,4.42s-60.46,1.97-73.61-20.37c-13.14-22.34-20.84-65.16-2.53-96.33,0,0,56.39,8.64,146.43-42.62l73.63,35.77Z"/>
    <path class="cls-35" d="M932.6,900.51s-11.91,18.53-5.96,31.1c0,0,5.96,19.19,50.29,13.23,0,0,58.55,23.06,72.45-10.03,0,0-.99-19.75-49.29-25.71,0,0,5.96,15.88-15.22,15.22,0,0-41.03-.66-52.27-23.82Z"/>
    <g>
      <circle class="cls-13" cx="1012.02" cy="732.88" r="5.08"/>
      <circle class="cls-13" cx="1008.44" cy="751.44" r="5.08"/>
      <circle class="cls-13" cx="1016.38" cy="743.17" r="5.08"/>
      <path class="cls-13" d="M1003.42,745.86c0,2.81-2.28,5.08-5.08,5.08-2.81,0-5.08-2.28-5.08-5.08,0-2.81,2.28-5.08,5.08-5.08,2.81,0,5.08,2.28,5.08,5.08Z"/>
      <circle class="cls-13" cx="1001.51" cy="735.57" r="5.08"/>
    </g>
    <g>
      <path class="cls-13" d="M960.2,716.57c0,2.81-2.28,5.08-5.08,5.08-2.81,0-5.08-2.28-5.08-5.08,0-2.81,2.28-5.08,5.08-5.08s5.08,2.28,5.08,5.08Z"/>
      <circle class="cls-13" cx="951.54" cy="735.13" r="5.08"/>
      <circle class="cls-13" cx="959.47" cy="726.86" r="5.08"/>
      <circle class="cls-13" cx="941.44" cy="729.55" r="5.08"/>
      <circle class="cls-13" cx="944.61" cy="719.26" r="5.08"/>
    </g>
    <g>
      <path class="cls-13" d="M907.01,675.33c0,2.81-2.28,5.08-5.08,5.08-2.81,0-5.08-2.28-5.08-5.08,0-2.81,2.28-5.08,5.08-5.08s5.08,2.28,5.08,5.08Z"/>
      <path class="cls-13" d="M903.43,693.89c0,2.81-2.28,5.08-5.08,5.08-2.81,0-5.08-2.28-5.08-5.08,0-2.81,2.28-5.08,5.08-5.08s5.08,2.28,5.08,5.08Z"/>
      <circle class="cls-13" cx="906.28" cy="685.62" r="5.08"/>
      <circle class="cls-13" cx="888.25" cy="688.31" r="5.08"/>
      <circle class="cls-13" cx="891.42" cy="678.02" r="5.08"/>
    </g>
    <g>
      <path class="cls-13" d="M848.35,674.49c0,2.81-2.28,5.08-5.08,5.08-2.81,0-5.08-2.28-5.08-5.08s2.28-5.08,5.08-5.08,5.08,2.28,5.08,5.08Z"/>
      <circle class="cls-13" cx="839.69" cy="693.06" r="5.08"/>
      <path class="cls-13" d="M852.7,684.79c0,2.81-2.28,5.08-5.08,5.08-2.81,0-5.08-2.28-5.08-5.08s2.28-5.08,5.08-5.08,5.08,2.28,5.08,5.08Z"/>
      <circle class="cls-13" cx="829.58" cy="687.48" r="5.08"/>
      <circle class="cls-13" cx="832.75" cy="677.19" r="5.08"/>
    </g>
    <g>
      <circle class="cls-13" cx="988.8" cy="684.3" r="5.08"/>
      <circle class="cls-13" cx="985.22" cy="702.86" r="5.08"/>
      <circle class="cls-13" cx="993.15" cy="694.59" r="5.08"/>
      <circle class="cls-13" cx="975.11" cy="697.28" r="5.08"/>
      <circle class="cls-13" cx="978.28" cy="686.99" r="5.08"/>
    </g>
    <g>
      <path class="cls-13" d="M1038.94,692.24c0,2.81-2.28,5.08-5.08,5.08-2.81,0-5.08-2.28-5.08-5.08,0-2.81,2.28-5.08,5.08-5.08,2.81,0,5.08,2.28,5.08,5.08Z"/>
      <circle class="cls-13" cx="1030.27" cy="710.8" r="5.08"/>
      <path class="cls-13" d="M1043.29,702.53c0,2.81-2.28,5.08-5.08,5.08-2.81,0-5.08-2.28-5.08-5.08,0-2.81,2.28-5.08,5.08-5.08s5.08,2.28,5.08,5.08Z"/>
      <circle class="cls-13" cx="1020.17" cy="705.22" r="5.08"/>
      <circle class="cls-13" cx="1023.34" cy="694.93" r="5.08"/>
    </g>
    <g>
      <circle class="cls-13" cx="920.16" cy="627.83" r="5.08"/>
      <circle class="cls-13" cx="916.58" cy="646.4" r="5.08"/>
      <circle class="cls-13" cx="924.51" cy="638.13" r="5.08"/>
      <circle class="cls-13" cx="906.47" cy="640.81" r="5.08"/>
      <circle class="cls-13" cx="909.64" cy="630.53" r="5.08"/>
    </g>
    <g>
      <circle class="cls-13" cx="954.62" cy="656.9" r="5.08"/>
      <circle class="cls-13" cx="951.04" cy="675.47" r="5.08"/>
      <path class="cls-13" d="M964.06,667.2c0,2.81-2.28,5.08-5.08,5.08-2.81,0-5.08-2.28-5.08-5.08s2.28-5.08,5.08-5.08c2.81,0,5.08,2.28,5.08,5.08Z"/>
      <circle class="cls-13" cx="940.93" cy="669.89" r="5.08"/>
      <path class="cls-13" d="M949.19,659.6c0,2.81-2.28,5.08-5.08,5.08-2.81,0-5.08-2.28-5.08-5.08s2.28-5.08,5.08-5.08,5.08,2.28,5.08,5.08Z"/>
    </g>
    <g>
      <circle class="cls-13" cx="994.27" cy="632.27" r="5.08"/>
      <circle class="cls-13" cx="990.69" cy="650.84" r="5.08"/>
      <circle class="cls-13" cx="998.63" cy="642.57" r="5.08"/>
      <circle class="cls-13" cx="980.59" cy="645.25" r="5.08"/>
      <path class="cls-13" d="M988.84,634.97c0,2.81-2.28,5.08-5.08,5.08-2.81,0-5.08-2.28-5.08-5.08s2.28-5.08,5.08-5.08,5.08,2.28,5.08,5.08Z"/>
    </g>
    <g>
      <circle class="cls-13" cx="943.21" cy="760.84" r="5.08"/>
      <circle class="cls-13" cx="939.63" cy="779.4" r="5.08"/>
      <circle class="cls-13" cx="947.56" cy="771.13" r="5.08"/>
      <circle class="cls-13" cx="929.52" cy="773.82" r="5.08"/>
      <path class="cls-13" d="M937.77,763.53c0,2.81-2.28,5.08-5.08,5.08-2.81,0-5.08-2.28-5.08-5.08s2.28-5.08,5.08-5.08,5.08,2.28,5.08,5.08Z"/>
    </g>
    <g>
      <circle class="cls-13" cx="986.46" cy="775.86" r="5.08"/>
      <circle class="cls-13" cx="982.88" cy="794.42" r="5.08"/>
      <circle class="cls-13" cx="990.82" cy="786.15" r="5.08"/>
      <circle class="cls-13" cx="972.78" cy="788.84" r="5.08"/>
      <path class="cls-13" d="M981.03,778.55c0,2.81-2.28,5.08-5.08,5.08-2.81,0-5.08-2.28-5.08-5.08s2.28-5.08,5.08-5.08,5.08,2.28,5.08,5.08Z"/>
    </g>
    <g>
      <circle class="cls-13" cx="1043.54" cy="762.64" r="5.08"/>
      <circle class="cls-13" cx="1039.96" cy="781.21" r="5.08"/>
      <path class="cls-13" d="M1052.97,772.94c0,2.81-2.28,5.08-5.08,5.08-2.81,0-5.08-2.28-5.08-5.08,0-2.81,2.28-5.08,5.08-5.08,2.81,0,5.08,2.28,5.08,5.08Z"/>
      <circle class="cls-13" cx="1029.85" cy="775.62" r="5.08"/>
      <circle class="cls-13" cx="1033.02" cy="765.34" r="5.08"/>
    </g>
    <g>
      <path class="cls-13" d="M1041.97,640.17c0,2.81-2.28,5.08-5.08,5.08-2.81,0-5.08-2.28-5.08-5.08,0-2.81,2.28-5.08,5.08-5.08s5.08,2.28,5.08,5.08Z"/>
      <path class="cls-13" d="M1038.39,658.73c0,2.81-2.28,5.08-5.08,5.08-2.81,0-5.08-2.28-5.08-5.08s2.28-5.08,5.08-5.08,5.08,2.28,5.08,5.08Z"/>
      <circle class="cls-13" cx="1041.24" cy="650.47" r="5.08"/>
      <circle class="cls-13" cx="1023.2" cy="653.15" r="5.08"/>
      <circle class="cls-13" cx="1026.38" cy="642.86" r="5.08"/>
    </g>
    <g>
      <circle class="cls-13" cx="765.06" cy="622.75" r="5.08"/>
      <circle class="cls-13" cx="761.48" cy="641.31" r="5.08"/>
      <circle class="cls-13" cx="769.41" cy="633.05" r="5.08"/>
      <circle class="cls-13" cx="751.37" cy="635.73" r="5.08"/>
      <circle class="cls-13" cx="754.55" cy="625.44" r="5.08"/>
    </g>
    <g>
      <circle class="cls-13" cx="868.24" cy="632.43" r="5.08"/>
      <path class="cls-13" d="M869.74,651c0,2.81-2.28,5.08-5.08,5.08-2.81,0-5.08-2.28-5.08-5.08,0-2.81,2.28-5.08,5.08-5.08,2.81,0,5.08,2.28,5.08,5.08Z"/>
      <circle class="cls-13" cx="872.59" cy="642.73" r="5.08"/>
      <path class="cls-13" d="M859.64,645.42c0,2.81-2.28,5.08-5.08,5.08-2.81,0-5.08-2.28-5.08-5.08s2.28-5.08,5.08-5.08,5.08,2.28,5.08,5.08Z"/>
      <path class="cls-13" d="M862.81,635.13c0,2.81-2.28,5.08-5.08,5.08-2.81,0-5.08-2.28-5.08-5.08,0-2.81,2.28-5.08,5.08-5.08,2.81,0,5.08,2.28,5.08,5.08Z"/>
    </g>
    <g>
      <path class="cls-13" d="M785.86,675.82c0,2.81-2.28,5.08-5.08,5.08-2.81,0-5.08-2.28-5.08-5.08,0-2.81,2.28-5.08,5.08-5.08,2.81,0,5.08,2.28,5.08,5.08Z"/>
      <path class="cls-13" d="M782.28,694.39c0,2.81-2.28,5.08-5.08,5.08-2.81,0-5.08-2.28-5.08-5.08,0-2.81,2.28-5.08,5.08-5.08,2.81,0,5.08,2.28,5.08,5.08Z"/>
      <circle class="cls-13" cx="785.13" cy="686.12" r="5.08"/>
      <path class="cls-13" d="M772.17,688.8c0,2.81-2.28,5.08-5.08,5.08-2.81,0-5.08-2.28-5.08-5.08,0-2.81,2.28-5.08,5.08-5.08,2.81,0,5.08,2.28,5.08,5.08Z"/>
      <path class="cls-13" d="M775.34,678.52c0,2.81-2.28,5.08-5.08,5.08-2.81,0-5.08-2.28-5.08-5.08,0-2.81,2.28-5.08,5.08-5.08,2.81,0,5.08,2.28,5.08,5.08Z"/>
    </g>
    <g>
      <path class="cls-13" d="M819.43,634.58c0,2.81-2.28,5.08-5.08,5.08-2.81,0-5.08-2.28-5.08-5.08,0-2.81,2.28-5.08,5.08-5.08s5.08,2.28,5.08,5.08Z"/>
      <path class="cls-13" d="M815.85,653.14c0,2.81-2.28,5.08-5.08,5.08-2.81,0-5.08-2.28-5.08-5.08,0-2.81,2.28-5.08,5.08-5.08s5.08,2.28,5.08,5.08Z"/>
      <path class="cls-13" d="M823.79,644.87c0,2.81-2.28,5.08-5.08,5.08-2.81,0-5.08-2.28-5.08-5.08,0-2.81,2.28-5.08,5.08-5.08,2.81,0,5.08,2.28,5.08,5.08Z"/>
      <path class="cls-13" d="M805.75,647.56c0,2.81-2.28,5.08-5.08,5.08-2.81,0-5.08-2.28-5.08-5.08,0-2.81,2.28-5.08,5.08-5.08s5.08,2.28,5.08,5.08Z"/>
      <path class="cls-13" d="M808.92,637.27c0,2.81-2.28,5.08-5.08,5.08-2.81,0-5.08-2.28-5.08-5.08,0-2.81,2.28-5.08,5.08-5.08s5.08,2.28,5.08,5.08Z"/>
    </g>
    <path class="cls-42" d="M844.7,285s-6.65,32.26-15.47,43.04c0,0,11.51,58.74,62.01,70.84,0,0,32.49-25.69,18.61-61.72,0,0-7.13-5.76-7.87-13.45,0,0-41.72-13.18-57.27-38.71Z"/>
    <path class="cls-12" d="M728.8,471.55s8.55-4.6,18.41,1.32"/>
    <path class="cls-42" d="M844.41,257.72s-4.05-29.9,11.97-46.79c9.78-10.31,31.58-10.92,53.11-11.04,0,0,45.61,3.82,30.95,60.44,0,0-2.8,5.58-1.61,10.38,0,0,2.69,9.22-3.89,27.33-8.76,24.13-21.13,24.28-21.13,24.28,0,0-1.67,6.91-15.75,6.06,0,0-12.55,1.57-24.56-7.17,0,0-31.73-18.2-28.8-36.22,0,0-13.66,6.87-18.32-15.03,0,0-4.86-37.85,18.02-12.24Z"/>
    <path class="cls-27" d="M901.18,247s-15.81-4.97-24.9,1.84c0,0,2.18-11.51,25.28-6.64,0,0,4.12,2.97-.39,4.81Z"/>
    <path class="cls-4" d="M916.81,273.49s8.08,14.34-8.01,14.68"/>
    <path class="cls-4" d="M828.52,261.63s5.8-12.35,13.96,8.9c0,0-7.58-9.69-9.67-2.06"/>
    <path class="cls-4" d="M870.9,253.02l5.28,16.3s9.14,5.74,22.07,3.37l7.82-14.83s-16.7-9.51-35.17-4.85Z"/>
    <path class="cls-53" d="M903.29,328.3s-1.57,.24-5.71-.07c0,0-19.61,1.82-37.91-16.87,0,0,5.1,6.88,16.41,13.86,0,0,13.65,7.73,28.06,5.12,0,0,.31,.22-.85-2.03Z"/>
    <path class="cls-15" d="M871.12,211.28s30.96,14.68,49.63,.61c0,0,6.28,11.13,22.31,25.29,0,0,2.35,8.52-5.45,27.74,0,0,5.09,15.81-5.02,35.73,0,0-8.27,17.71-18.77,21.69,0,0-1.57,2.2-3.21,3.58,0,0,4.4,6.3,9.43,6.06,0,0-3.27-6.5-.47-7.88,0,0,33.58-7.94,30.72-76.14,0,0,24.2-30.37-2.91-51.27-12.25-9.45-23.01-36.03-55.25-22.11,0,0-41.82-21.72-55.74,19.61,0,0-47.02,11.38-20.76,70.32,0,0-8.53,19.14,9.26,34.73,2.05,1.8,6.1,9.83,2.15,21.28-1.06,3.09,7.7-2.74,10.63-8.69,0,0,5.31-10.7,7.04-26.82,0,0-14.89,4.23-17.1-12.33,0,0-4.74-18.25,1.74-21.1,0,0,7.27-2.88,14.53,6.11,0,0,28.49-2.97,27.24-46.4Z"/>
    <path class="cls-27" d="M940.98,249.98c-.17-1.15-10.18-3.9-19.87-4.28,0,0-4.79,1.89-.82,4.83,0,0,18.12-1.68,19.4,4.36,0,0,1.72-2.07,1.29-4.91Z"/>
    <path class="cls-4" d="M911.83,257.48l5.28,16.3s8.09,4.34,21.02,1.98l6.5-16.51s-14.32-6.44-32.8-1.77Z"/>
    <path class="cls-4" d="M911.83,257.48s-3.22-3.51-5.76,.38"/>
    <line class="cls-4" x1="870.9" y1="253.02" x2="834.74" y2="249.99"/>
    <path class="cls-9" d="M880.88,230.37s14.13,1.9,20.81,3.59c6.67,1.69,26.22-2.98,26.22-2.98"/>
    <g>
      <path class="cls-29" d="M879.21,257.95s.01-.39,.31-.7c1-1.04,3.28-2.97,6.76-2.83,3.89,.15,5.89,3.88,6.57,5.21,.12,.23,.1,.43,.1,.43,0,0,0,.22-.13,.36-.65,.7-2.79,2.63-6.48,2.54-2.19-.05-5.23-1.35-7.02-4.39-.12-.21-.12-.48-.11-.62Z"/>
      <circle class="cls-53" cx="887.21" cy="258.94" r="4.02"/>
      <circle class="cls-29" cx="884.7" cy="258.03" r="1.1"/>
      <path class="cls-9" d="M893.09,259.64s-4.38-9.46-13.72-2.43"/>
    </g>
    <g>
      <path class="cls-29" d="M922.83,263.21s-.04-.36,.19-.7c.78-1.11,2.63-3.23,5.88-3.6,3.64-.42,6.03,2.77,6.86,3.91,.14,.2,.15,.38,.15,.38,0,0,.04,.2-.07,.36-.5,.74-2.22,2.84-5.66,3.29-2.05,.27-5.05-.5-7.15-3.08-.15-.18-.18-.42-.19-.56Z"/>
      <circle class="cls-53" cx="930.41" cy="262.98" r="3.77"/>
      <circle class="cls-29" cx="927.83" cy="262.57" r="1.06"/>
      <path class="cls-9" d="M935.83,262.93s-5.21-8.72-12.91-.26"/>
    </g>
    <path class="cls-34" d="M886.06,299.51s13.01-9.36,19.2-4.7c0,0,9.73-4.79,14.45,7.09,0,0-.59,7.62-16.96,7.2-16.37-.42-16.69-9.59-16.69-9.59Z"/>
    <path class="cls-31" d="M889.26,300.22s17.95-9.37,28.19,2.41c0,0-8.34-.39-12.76,1.82,0,0-8.89-4.32-15.43-4.23Z"/>
    <path class="cls-29" d="M894.91,297.98s13.91-3.9,20.01,2.43l-20.01-2.43Z"/>
    <path class="cls-46" d="M905.9,242.43s3.36,4.5,.14,7.12c0,0,5.48-2.59-.14-7.12Z"/>
    <path class="cls-21" d="M830.09,325.67s8.78,46.96,47.14,46.31c27.21-.46,30.12-10.17,31.16-35.88,0,0,33.26,8.4,47.47,23.56,14.21,15.16,36,84.32,31.27,127.91,0,0-2.84,23.69-33.16,42.64,0,0,4.1,43.06,3.09,67.21,0,0-10.13,38.38-61.3,38.38l-10.01-68.64-1.45,66.93s-107.31-5.68-150.09-26.35c0,0,6.26-24.43,.57-29.79-1.64-1.55,49.19-47.41,46.18-57.21,0,0-28.7-8.37-56.18-28.27,0,0,2.26-161,105.3-166.8Z"/>
    <path class="cls-13" d="M788.44,519.95s15.77-46.62,8.74-92.07"/>
    <path class="cls-13" d="M953.98,530.21s.11-77.44-11.8-98"/>
    <circle class="cls-17" cx="874.21" cy="401.09" r="7"/>
    <circle class="cls-17" cx="876.1" cy="453.41" r="7"/>
    <circle class="cls-17" cx="875.62" cy="508.38" r="7"/>
    <path class="cls-6" d="M837.79,279.48s-4.92,7.46,.31,12.04c5.23,4.57,2.5-6.57,2.5-6.57"/>
    <path class="cls-36" d="M864.85,593.35l14,9.65s16.18-10.27,38.58-10.58l21.78,7.16s5.6,4.36-1.87,5.6c-7.47,1.24-11.51-1.24-11.51-1.24l-2.8,1.24,25.2,13.69s5.9,7.08-4.68,7.39c0,0,.14,7.42-5.95,5.76-.16-.04-.33,.15-.39,.31-1.24,3.51-2.3,4.33-7.92,4.75l-4.72,4.19-25.2,.62-22.71-11.51-26.45-8.71,14.62-28.31Z"/>
    <line class="cls-11" x1="923.03" y1="605.17" x2="909.08" y2="598.4"/>
    <line class="cls-11" x1="916.29" y1="614.52" x2="943.38" y2="625.97"/>
    <path class="cls-11" d="M910.16,627.36s8.96,8.82,19.15,9.71"/>
    <path class="cls-36" d="M727.35,493.74s-8.02,34.37-6.73,75.24c0,0,31.74,42.49,136.77,54.51l21.47-20.5-104.12-73.23s-1.53,9.46,6.24-9.02"/>
    <line class="cls-11" x1="937.62" y1="632.01" x2="914.29" y2="620.94"/>
    <path class="cls-42" d="M1049.38,467c2.31-1.65,.79-.73,3.01-2.21,0,0-2.43-14.24,18.91-27.16l11.08-13.47s8.05-5.79,7.55,3.9c0,0-3.18,6.04-6.29,10.19l12.11,2.57s-1.04-1.43,5.69-2.14c5.48-.58,4.46,1.34,4.46,1.34,0,0,2.8-7.74,7.21-14.84,2.87-4.62,3-9.39,9.07-8.94,0,0,5.62,1.01,1.76,9.49l-5.91,20.7-24.39,20.97-20.11,9.73-4.78,8.31"/>
    <path class="cls-18" d="M1078.47,437.94s2.98-.18,5.18,.39"/>
    <path class="cls-18" d="M1074.94,465.02s5.27-12.77,9.9-15.18c0,0,2.08-.83,3.14-5.68s-.26-9.31,3.63-9.59c5.63-.42,4.11,6.28,4.11,6.28l-2.69,14.89"/>
    <path class="cls-18" d="M1052.38,464.8s3.58,4.49,10.34,5.69"/>
    <path class="cls-18" d="M1094.95,445.11l1.41-6.13-2.53-7.14s-1.07-3.67,2.38-5.44c3.84-1.97,5.95,2.69,5.95,2.69l2.62,9.82-2.08,12.97"/>
    <path class="cls-18" d="M1104.76,438.9l1.14-3.24-2.53-7.14s-1.07-3.67,2.38-5.44c3.84-1.97,5.95,2.69,5.95,2.69l2.62,9.82-2.08,12.97"/>
  </g>
</svg>