<?xml version="1.0" encoding="utf-8"?>
<!-- Generator: Adobe Illustrator 27.0.0, SVG Export Plug-In . SVG Version: 6.00 Build 0)  -->
<svg version="1.1" id="Layer_1" xmlns="http://www.w3.org/2000/svg" xmlns:xlink="http://www.w3.org/1999/xlink" x="0px" y="0px"
	 viewBox="0 0 1334 1000" style="enable-background:new 0 0 1334 1000;" xml:space="preserve">
<style type="text/css">
	.st0{opacity:0.5;}
	.st1{opacity:0.8;fill:#DEA962;}
	.st2{opacity:0.8;fill:#EDB36E;}
	.st3{fill:#8B5E3C;}
	.st4{fill:#182850;}
	.st5{fill:#DECEA5;}
	.st6{clip-path:url(#SVGID_00000046299412977546101740000005850606857831069860_);}
	.st7{fill:#A97C50;}
	.st8{fill:#98B369;}
	.st9{fill:none;stroke:#754C29;stroke-width:0.8;stroke-miterlimit:10;}
	.st10{fill:none;stroke:#754C29;stroke-width:1.5;stroke-miterlimit:10;}
	.st11{fill:#D6E69E;}
	.st12{fill:#FFFFFF;}
	.st13{fill:#1C75BC;}
	.st14{fill:#9C2024;stroke:#000000;stroke-miterlimit:10;}
	.st15{fill:#9C2024;}
	.st16{clip-path:url(#SVGID_00000127004992993932378900000005195851555814648466_);}
	.st17{fill:#BE9E7D;}
	.st18{fill:#07935B;}
	.st19{fill:#BF6B6B;}
	.st20{fill:#803435;}
	.st21{fill:#26130F;}
	.st22{fill:none;stroke:#000000;stroke-miterlimit:10;}
	.st23{fill:none;stroke:#000000;stroke-width:1.2;stroke-miterlimit:10;}
	.st24{fill:none;stroke:#006838;stroke-miterlimit:10;}
	.st25{fill:#F05380;}
	.st26{fill:none;stroke:#FFFFFF;stroke-width:0.5;stroke-miterlimit:10;}
	.st27{fill:#BA9777;stroke:#754C29;stroke-miterlimit:10;}
	.st28{fill:none;stroke:#754C29;stroke-miterlimit:10;}
	.st29{fill:none;stroke:#FFF200;stroke-width:0.5;stroke-miterlimit:10;}
	.st30{clip-path:url(#SVGID_00000016757246516914107720000016219214863567779987_);}
	.st31{fill:#BE9E7D;stroke:#603913;stroke-miterlimit:10;}
	.st32{fill:#BE9E7D;stroke:#754C29;stroke-miterlimit:10;}
	.st33{fill:#414042;}
	.st34{fill:none;stroke:#ED1C24;stroke-width:6;stroke-miterlimit:10;}
	.st35{fill:#134A7E;}
	.st36{fill:#16A9DE;}
	.st37{fill:none;stroke:#27AAE1;stroke-width:2;stroke-miterlimit:10;}
	.st38{fill:none;stroke:#27AAE1;stroke-miterlimit:10;}
	.st39{fill:none;stroke:#000000;stroke-width:6;stroke-miterlimit:10;}
	.st40{fill:#BE8C8C;}
	.st41{fill:#A36548;}
</style>
<g>
	<g class="st0">
		<defs>
			
				<rect id="SVGID_1_" x="586.18" y="224.16" transform="matrix(-1 -4.489576e-11 4.489576e-11 -1 1849.3424 595.3723)" class="st0" width="676.98" height="147.04"/>
		</defs>
		<clipPath id="SVGID_00000111884864122443864770000001496569223562636464_">
			<use xlink:href="#SVGID_1_"  style="overflow:visible;"/>
		</clipPath>
	</g>
	
		<rect x="216.1" y="-82.58" transform="matrix(-7.580088e-11 1 -1 -7.580088e-11 479.8355 -83.9711)" class="st1" width="131.61" height="561.02"/>
	
		<rect x="216.1" y="-214.87" transform="matrix(-7.581420e-11 1 -1 -7.581420e-11 347.5463 -216.2603)" class="st2" width="131.61" height="561.02"/>
	
		<rect x="216.1" y="49.29" transform="matrix(-7.581420e-11 1 -1 -7.581420e-11 611.705 47.8984)" class="st2" width="131.61" height="561.02"/>
	
		<rect x="1236.34" y="166.37" transform="matrix(-4.110330e-11 1 -1 -4.110330e-11 1500.0792 -1104.215)" class="st1" width="131.61" height="63.13"/>
	
		<rect x="1236.34" y="34.08" transform="matrix(-4.103403e-11 1 -1 -4.103403e-11 1367.79 -1236.5042)" class="st2" width="131.61" height="63.13"/>
	
		<rect x="1236.34" y="298.24" transform="matrix(-4.103403e-11 1 -1 -4.103403e-11 1631.9489 -972.3454)" class="st2" width="131.61" height="63.13"/>
	
		<rect x="562.41" y="0.09" transform="matrix(-1 -4.487711e-11 4.487711e-11 -1 1148.4784 395.6403)" class="st3" width="23.65" height="395.46"/>
	
		<rect x="1250.39" y="0.09" transform="matrix(-1 -4.495394e-11 4.495394e-11 -1 2524.4363 395.6403)" class="st3" width="23.65" height="395.46"/>
	
		<rect x="906.51" y="-320.58" transform="matrix(4.495432e-11 -1 1 4.495432e-11 906.4269 930.2534)" class="st3" width="23.65" height="664.99"/>
	
		<rect x="906.51" y="50.5" transform="matrix(4.483886e-11 -1 1 4.483886e-11 535.3414 1301.3389)" class="st3" width="23.65" height="664.99"/>
	
		<rect x="601.65" y="-72.71" transform="matrix(-5.402541e-11 1 -1 -5.402541e-11 1260.9996 -73.9061)" class="st2" width="131.61" height="1332.52"/>
	
		<rect x="601.65" y="-205" transform="matrix(-5.401209e-11 1 -1 -5.401209e-11 1128.7104 -206.1953)" class="st1" width="131.61" height="1332.52"/>
	
		<rect x="601.65" y="59.16" transform="matrix(-5.402541e-11 1 -1 -5.402541e-11 1392.8691 57.9634)" class="st1" width="131.61" height="1332.52"/>
	
		<rect x="583.11" y="19.87" transform="matrix(-1 -2.684798e-11 2.684798e-11 -1 1833.9456 391.047)" class="st4" width="667.73" height="351.3"/>
	<path class="st5" d="M666.16,71.38c0,0-42.34-13.52-50.57,35.28c0,0-1.76,47.63,50.57,39.4c0,0-24.7-11.17-25.87-37.63
		S666.16,71.38,666.16,71.38z"/>
	<polygon class="st5" points="1003.94,102.08 1009.36,113.07 1021.49,114.83 1012.71,123.39 1014.79,135.47 1003.94,129.77 
		993.08,135.47 995.16,123.39 986.38,114.83 998.51,113.07 	"/>
	<polygon class="st5" points="788.45,228.76 793.88,239.76 806.01,241.52 797.23,250.08 799.3,262.16 788.45,256.45 777.6,262.16 
		779.68,250.08 770.9,241.52 783.03,239.76 	"/>
	<polygon class="st5" points="1180.34,257.64 1185.76,268.63 1197.9,270.4 1189.12,278.95 1191.19,291.04 1180.34,285.33 
		1169.49,291.04 1171.56,278.95 1162.78,270.4 1174.91,268.63 	"/>
</g>
<g>
	<defs>
		<rect id="SVGID_00000181060025787801074650000009564190556468241037_" x="-0.53" y="791.48" width="1334.47" height="210.21"/>
	</defs>
	<clipPath id="SVGID_00000070107331070206254660000018286370121056737202_">
		<use xlink:href="#SVGID_00000181060025787801074650000009564190556468241037_"  style="overflow:visible;"/>
	</clipPath>
	<g style="clip-path:url(#SVGID_00000070107331070206254660000018286370121056737202_);">
		<polygon class="st7" points="-95.9,889.45 -88.08,1517.87 -56.79,1517.87 -2.03,1004.18 1369.54,1004.18 1424.3,1515.26 
			1458.2,1515.26 1458.2,889.45 		"/>
		<path class="st8" d="M1499.14,839.93l59.84,242.53c0,0-53.88,26.94-118.24-7.48c0,0-19.46,29.93-65.85,4.49
			c0,0-16.46,13.47-88.31-1.5c0,0-50.89-5.99-74.84,2.99c0,0-22.45,17.96-58.37-1.5c0,0-31.43,14.97-59.87,0
			c0,0-37.42,7.48-82.32-5.99c-44.9-13.47-115.25,23.95-115.25,23.95s-11.97-22.45-52.38-16.46c0,0-35.92,20.95-64.36,2.99
			c0,0-40.41-13.47-131.71-1.5c0,0-20.95,16.46-40.41,0c0,0-246.15,7.09-291.05-12.36c0,0-43.14-13.23-64.71,14.8
			c0,0-30.19-45.29-79.79-23.72c0,0-32.35,36.66-86.26,6.47c0,0-107.82-47.44-148.8-23.72c0,0-43.13,25.88-103.51-2.16l36.66-202.71
			L1499.14,839.93z"/>
		<line class="st9" x1="1440.73" y1="1074.99" x2="1429.39" y2="897.19"/>
		<line class="st9" x1="1374.88" y1="1079.48" x2="1389.15" y2="943.88"/>
		<line class="st10" x1="1093.5" y1="1079.48" x2="1109.13" y2="889.6"/>
		<path class="st10" d="M843.55,1080.97c0,0-28-117.36-35.4-193.84"/>
		<path class="st10" d="M895.93,1097.44c0,0,26.94-79.55,20.77-188.1"/>
		<path class="st10" d="M172.7,1061.95c0,0-28-117.36-35.4-193.84"/>
		<path class="st10" d="M251.02,1087.06c0,0,26.94-79.55,20.77-188.1"/>
		<line class="st10" x1="647.48" y1="1082.47" x2="636.69" y2="937.71"/>
		<line class="st10" x1="607.52" y1="1080.99" x2="609.05" y2="902.87"/>
		<line class="st10" x1="1153.37" y1="1079.48" x2="1147.51" y2="970.38"/>
		<line class="st10" x1="1211.74" y1="1080.97" x2="1204.78" y2="935.28"/>
		<line class="st9" x1="-63.53" y1="1043.93" x2="-50.57" y2="891.76"/>
		<polygon class="st11" points="-130.38,839.07 1499.14,839.93 1360.29,791.48 -3.89,791.48 		"/>
	</g>
</g>
<polygon class="st12" points="832.08,826.59 1061.1,838.1 1089.89,809.95 863.42,795.88 "/>
<g>
	
		<rect x="511.22" y="801.29" transform="matrix(-1 -4.488599e-11 4.488599e-11 -1 1197.0127 1623.7823)" class="st13" width="174.58" height="21.21"/>
	<polygon class="st13" points="761.54,781.97 685.8,801.29 511.22,801.29 593.39,780.46 	"/>
	<polygon class="st13" points="757.01,796.27 685.84,818.43 685.8,822.49 757.01,799.47 	"/>
	<polygon class="st12" points="757.01,783.4 685.8,801.29 685.8,819.65 757.01,796.63 	"/>
	<line class="st14" x1="685.8" y1="801.29" x2="511.22" y2="801.29"/>
	<polygon class="st14" points="665.55,784.64 623.29,784.64 587.95,795.73 632.64,795.73 	"/>
</g>
<g>
	
		<rect x="503.01" y="780.01" transform="matrix(-1 -4.489665e-11 4.489665e-11 -1 1180.6001 1581.2352)" class="st15" width="174.58" height="21.21"/>
	<polygon class="st15" points="753.33,760.7 677.59,780.01 503.01,780.01 585.19,759.19 	"/>
	<polygon class="st15" points="748.81,774.99 677.64,797.16 677.59,801.22 748.81,778.2 	"/>
	<polygon class="st12" points="748.81,762.12 677.59,780.01 677.59,798.38 748.81,775.35 	"/>
	<line class="st14" x1="677.59" y1="780.01" x2="503.01" y2="780.01"/>
	<polygon class="st14" points="657.35,763.37 615.08,763.37 579.74,774.46 624.43,774.46 	"/>
</g>
<g>
	<defs>
		
			<rect id="SVGID_00000062185600110388574900000012219645818989012411_" x="86.13" y="81.62" transform="matrix(-1 -3.143942e-11 3.143942e-11 -1 762.4011 873.1003)" width="590.14" height="709.85"/>
	</defs>
	<clipPath id="SVGID_00000106862547343571172600000009594199029637273508_">
		<use xlink:href="#SVGID_00000062185600110388574900000012219645818989012411_"  style="overflow:visible;"/>
	</clipPath>
	<g style="clip-path:url(#SVGID_00000106862547343571172600000009594199029637273508_);">
		<path class="st17" d="M447.65,430.16c0,0-14.47,115.47-12.7,167.75l-3.71,132.18c0,0-5.05,24.35,1.91,37.98
			c0,0,9.67,29.43-3.33,45.65c0,0-10.9,36.62-47.9,51.6c0,0-10.86-7.29,5.34-22.01c0,0,19.1-18.79,8.74-41.32
			c0,0-8.09-7.2-8.07,6.67s-2.09,35.98-13.1,33.32c-11.01-2.67-5.65-25.14-5.65-25.14s1.11-19.84-0.27-34.21
			c0,0,1.75-25.37,16.05-38.77l3.74-186.15l-8.98-65C379.7,492.7,430.93,469.78,447.65,430.16z"/>
		<path class="st17" d="M280.78,227.51c0,0-4.82,39.98-20.53,60.9c0,0-33.9,106.69,53.92,129.17c0,0,69.89-3.06,48.95-97.41
			c0,0-14.53-9.76-11.43-25.23c3.27-16.38,2.04,0.75,2.04,0.75L280.78,227.51"/>
		<path class="st18" d="M385.47,1095.46c0,0,14.57-63.85,14.57-92.11c0,0,20.18-197.67,4.04-325.82c0,0-125.7,71.01-279.12-20.22
			c0,0-34.6,101.33,13.68,238.11l20.67,106.68c0,0,0.24,39.68-10.06,93.31"/>
		<path class="st18" d="M275.75,1210.91"/>
		<path class="st17" d="M288.56,194.78c0,0,27.94-79.7,101.85-63.44c0,0,60.88,19.48,24.36,90.91c0,0-4.79,7.36-4.72,14.14
			c0,0,4.44,11.72-11.76,32.56c-16.2,20.84-34.83,30.19-34.83,30.19s-11.56,7-29.59,1.73c0,0-14.74-2.6-27.66-17.81
			c0,0-32.75-32.49-23.39-55.73c0,0-21.37,6.4-20.67-24.26C262.15,203.07,267.19,161.86,288.56,194.78z"/>
		<path class="st19" d="M334.07,253.41c0,0,19.61-0.47,25.7,8.04c0,0,6.46-3.52,19.42,6.43c0,0-9.28,20.07-26.78,14.83
			C327.42,275.24,334.07,253.41,334.07,253.41z"/>
		<path class="st18" d="M240.95,297.93c0,0-28.55,2.3-61.67,12.9c-33.12,10.6-61.67,84.1-61.67,84.1s1.56,47.8,58.41,70.69
			L124.96,657.3c0,0,105.93,62.27,209.27,53.65c0,0,39-2.06,72.12-31.21c0,0-14.48-81.62-15.14-145.22c0,0,25.79-25.79,24.11-63.36
			l35.32-26.35l-11.21-61.73c0,0-6.62-41.73-51.01-58.95c0,0-16.56-3.31-28.48-9.94c0,0,7.95,45.71,3.31,63.59
			c0,0-30.47,33.78-90.09-1.32C273.17,376.47,240.29,341.65,240.95,297.93z"/>
		<path class="st20" d="M336.77,256.75c0,0-1.89,14.59,15.3,20.14s23.35-7.87,23.35-7.87S348.16,257.46,336.77,256.75z"/>
		<path class="st21" d="M362.95,189.14c0,0-23-13.89-36.46-8.53c0,0,11.72-10.95,38.53,2.74
			C365.03,183.35,369.11,188.37,362.95,189.14z"/>
		<path class="st21" d="M422.88,203.79c-0.08-1.46-12.26-6.12-24.34-7.78c0,0-6.22,1.79-1.61,5.94c0,0,22.87,0.1,23.74,7.82
			C420.67,209.77,423.07,207.39,422.88,203.79z"/>
		<path class="st22" d="M379.47,232.79c0,0,5.4,18.16-12.75,14.43"/>
		<path class="st12" d="M341.22,257.39c0,0,2.74,5.45,15.89,9.87c12.12,4.07,16.91,1.12,16.91,1.12S356.79,260.47,341.22,257.39z"/>
		<path class="st22" d="M267.31,198.6c0,0,9.45-12.08,13.07,13.24c0,0-5.89-12.52-10.09-4.68"/>
		<path class="st21" d="M347.4,302.72c0,0-14.51,2.15-34.22-12.29c0,0-9.62-7.59-19.92-22.96c0,0,11.03,24.61,35.94,34.44
			c0,0,7.76,3.32,17.73,3.38C346.93,305.3,346.19,305.08,347.4,302.72z"/>
		<g>
			<path class="st12" d="M332.61,196.83c0,0,0.14-0.54,0.66-0.88c1.72-1.12,5.52-3.06,10.3-1.76c5.35,1.46,6.93,7.29,7.45,9.35
				c0.09,0.36,0,0.62,0,0.62s-0.06,0.3-0.3,0.46c-1.12,0.76-4.73,2.75-9.81,1.45c-3.03-0.78-6.82-3.55-8.33-8.36
				C332.46,197.39,332.55,197.03,332.61,196.83z"/>
			<circle class="st21" cx="343.39" cy="200.79" r="5.73"/>
			<circle class="st12" cx="340.2" cy="198.71" r="1.57"/>
			<path class="st23" d="M351.34,203.65c0,0-3.03-14.55-18.26-7.79"/>
		</g>
		<g>
			<path class="st12" d="M393.73,218.35c0,0,0.06-0.52,0.49-0.91c1.44-1.29,4.69-3.64,9.32-3.11c5.19,0.59,7.49,5.79,8.26,7.63
				c0.13,0.32,0.09,0.58,0.09,0.58s-0.01,0.29-0.21,0.47c-0.94,0.87-4,3.23-8.92,2.75c-2.93-0.29-6.85-2.33-8.94-6.58
				C393.67,218.89,393.7,218.54,393.73,218.35z"/>
			<circle class="st21" cx="404.32" cy="220.48" r="5.38"/>
			<circle class="st12" cx="400.88" cy="219.07" r="1.51"/>
			<path class="st23" d="M411.87,222.16c0,0-4.42-13.79-17.84-4.52"/>
		</g>
		<path class="st24" d="M176.01,465.61c0,0,64.35-84.81,16.94-140.39"/>
		<path class="st24" d="M415.32,471.18c0,0-1.83-22.37-5.43-35.75c-2.32-8.62-0.52-29.95-0.52-29.95"/>
		<path class="st25" d="M122.76,682.8c0,0,142.94,74.61,284.53,0.48l-3.53-23.01c0,0-95.1,61.43-280.25-3.61L122.76,682.8z"/>
		<path class="st25" d="M114.55,400.25c0,0,11.21,47.65,67.4,76.44l3.52-27.38c0,0-32.9-4.83-61.87-66.5L114.55,400.25z"/>
		<polygon class="st25" points="415.32,471.18 413.38,452.69 447.48,429.65 450.64,444.22 		"/>
		<path class="st25" d="M217.19,393.59c0,0,77.68,55.15,177.45,8.69l4.15,17.71c0,0-103.03,53.07-186.94-11.36L217.19,393.59z"/>
		<polyline class="st26" points="124.11,675.51 140.05,669.37 144.96,686.26 163.35,677.05 169.48,694.44 186.03,682.68 
			193.39,702.63 209.33,686.26 219.75,704.68 232.62,690.35 245.5,708.26 257.14,691.89 268.18,709.28 279.83,693.93 292.7,708.77 
			302.51,692.91 319.67,706.21 329.48,689.33 343.58,701.61 350.94,684.72 367.49,694.44 373.01,679.09 387.11,684.21 
			392.01,672.44 402.43,678.07 		"/>
		<polyline class="st26" points="124.2,662.34 132.76,683.23 151.21,672.24 157.13,692.03 174.26,678.83 180.19,698.07 
			197.31,684.33 207.19,704.67 221.02,688.73 232.22,707.42 245.39,691.48 256.59,707.97 269.76,693.13 279.64,709.62 
			290.18,693.13 305.33,707.42 315.21,690.38 330.36,703.57 338.92,687.08 354.73,698.62 361.97,681.58 378.44,692.03 
			383.05,674.99 394.91,683.23 400.18,667.29 		"/>
		<polyline class="st26" points="247.1,415.4 253.5,426.76 264.1,418.48 268.65,429.66 279.11,422.83 287.74,435.38 296.2,424.94 
			303.67,434.94 310.65,425.34 320.06,434.54 328.02,424.54 337.85,434.27 345.43,423.26 354.56,430.48 361.22,419.39 
			372.81,425.37 378.54,414.19 389.62,420.61 393.03,409.21 		"/>
		<polyline class="st26" points="244.51,422.97 255.53,415.22 260.78,428.91 271.51,419.18 277.17,433.4 287.45,423.63 
			296.12,435.69 304.63,424.77 311.12,435.15 319.22,423.71 327.94,435.28 336.12,422.87 345.02,432.51 353.21,420.09 361.69,429.2 
			369,416.22 380.86,424.18 385.53,409.48 395.42,421.14 		"/>
		<polyline class="st26" points="121.98,387.97 119.48,403.94 127.25,401.53 125.03,415.39 133.92,411.18 132.53,426.85 
			141.14,422.03 139.75,438 149.47,431.07 148.08,447.04 156.97,438.6 157.53,455.78 163.64,450.96 		"/>
		<polyline class="st26" points="116.42,398.52 125.86,394.9 121.7,409.97 131.42,405.75 127.81,419.61 137.81,416.3 135.31,431.37 
			145.58,426.55 142.81,443.72 154.47,434.68 152.8,451.86 161.69,444.33 		"/>
		<polyline class="st26" points="445.14,434.09 440.22,449.01 429.38,444.16 427.24,459.53 415.3,455.28 418.99,465.15 
			422.84,449.72 434.08,454.27 437.42,439.71 447.59,443.22 		"/>
		<path class="st17" d="M184.91,475.67l-12.71,46.09l124.94,23.04l12.67,0.9c0,0,18.75-28.36,44.46-17.89c0,0,19.39,6.9,28.22,3.74
			c8.83-3.17,19.76,5.55,19.76,5.55s3.6,6.99-3.78,8.34c-7.37,1.34-34.35,0.82-34.35,0.82l68.56,44.55c0,0,10.29,2.53,6.11,10.65
			s-9.15,4.23-9.15,4.23s-5.82,8.31-15.97,2.06c0,0-11.74,7.83-20.67,2.21c0,0-4.54,3.83-16.34-1.22
			c-11.79-5.04-55.72-23.55-55.72-23.55l-11.4-0.52c0,0-171.01,29.24-204.69-4.43c0,0-18.6-18.66-15.04-47.9
			c5.34-43.92,30.57-115.44,30.57-115.44S148.11,463.76,184.91,475.67z"/>
		<line class="st27" x1="429.64" y1="605.69" x2="385.69" y2="582.05"/>
		<path class="st28" d="M381.74,591.43l31.93,16.31c0,0,8.66,3.72,15.97-2.06"/>
		<line class="st27" x1="393.01" y1="609.95" x2="368.29" y2="597.42"/>
		<path d="M394.36,328.19c11.49-27.38,17.22-55.66,17.22-55.66c39.91-85.93,23.76-123.86,23.76-123.86
			c-42.28-72.48-105.98-47.85-105.98-47.85c-15.4-0.04-54.89,9.45-70.52,53.97s-25,56.24-39.48,86.26c0,0-52.53,85.86-62.5,198
			c-1.52,17.06-22.36,50.12-22.36,50.12s57.44,29,126.56-127c20.75-46.84,21.76-134.83,21.76-134.83
			c-16.7,1.57-18.99-9.86-18.99-9.86s-4.23-15.67,3.91-29.43c8.27-13.98,20.81,6.74,20.81,6.74c28.18-54.26,60.37-63.07,60.37-63.07
			c48.8,43.81,75.02,45.66,75.02,45.66s1.66,13.95-1.05,24.35c-2.71,10.4-7.52,18.67-7.52,18.67c-5.02,5.98-4.91,14.27-4.91,14.27
			c1.6,16.57-11.05,31.14-11.05,31.14c-29.92,38.21-51.41,35.88-51.41,35.88c-4.41,14.24,11.68,15.79,11.68,15.79"/>
		<g>
			
				<ellipse transform="matrix(0.3086 -0.9512 0.9512 0.3086 -35.4444 418.7577)" class="st29" cx="270.32" cy="233.76" rx="12.47" ry="11.93"/>
			<line class="st29" x1="266.47" y1="245.62" x2="254.02" y2="284"/>
			<line class="st29" x1="259.19" y1="238.77" x2="252.54" y2="259.28"/>
			<line class="st29" x1="261.31" y1="242.23" x2="252.67" y2="268.87"/>
			<line class="st29" x1="263.75" y1="244.26" x2="253.25" y2="276.62"/>
			<line class="st29" x1="272.67" y1="245.92" x2="264.03" y2="272.56"/>
			<line class="st29" x1="269.51" y1="246.12" x2="259.01" y2="278.49"/>
			<line class="st29" x1="276.51" y1="244.39" x2="269.86" y2="264.9"/>
		</g>
		<g>
			<defs>
				<path id="SVGID_00000106847166237522249160000017810397821273292425_" d="M400.76,263.61c0,0,0.8,5-28.63,29.47L366,303.59
					l3.02,17.27l11.89-1.68l15.48-32.31l7.19-21.24L400.76,263.61z"/>
			</defs>
			<clipPath id="SVGID_00000121971948702846221600000017413511030569974686_">
				<use xlink:href="#SVGID_00000106847166237522249160000017810397821273292425_"  style="overflow:visible;"/>
			</clipPath>
			<g style="clip-path:url(#SVGID_00000121971948702846221600000017413511030569974686_);">
				
					<ellipse transform="matrix(0.3086 -0.9512 0.9512 0.3086 15.6669 554.556)" class="st29" cx="389.29" cy="266.5" rx="12.47" ry="11.93"/>
				<line class="st29" x1="385.44" y1="278.37" x2="372.99" y2="316.74"/>
				<line class="st29" x1="376.07" y1="287.94" x2="371.63" y2="301.62"/>
				<line class="st29" x1="382.72" y1="277" x2="372.22" y2="309.36"/>
				<line class="st29" x1="391.64" y1="278.66" x2="383" y2="305.3"/>
				<line class="st29" x1="388.47" y1="278.87" x2="377.97" y2="311.23"/>
				<line class="st29" x1="395.48" y1="277.13" x2="388.83" y2="297.64"/>
			</g>
		</g>
	</g>
</g>
<g>
	
		<rect x="1030.22" y="539.1" transform="matrix(-1 -4.492507e-11 4.492507e-11 -1 2095.1323 1093.9797)" width="34.7" height="15.77"/>
	<path class="st17" d="M1005.2,713.63c-18.72,26.8-40.78,29.34-40.78,29.34s52.32,0.43,0,0c-52.32-0.43-109.8-65.44-109.8-65.44
		l-6.44-4.6l-18.89,0.67l-36.65-17.98l-12.69-19.37c-8.88-9.32-1.47-10.06-1.47-10.06c7.54,0.98,3.42,6.26,12.42,6.03
		c9-0.23,14.91,12.66,14.91,12.66s-1.6-6.76,2.69-8.74c4.3-1.97,11.72,7.22,11.72,7.22l4.13-6.69
		c-5.15-1.64-14.78-14.12-14.78-14.12c-3.1-13.08,6.27-7.68,6.27-7.68l16.35,14.7c21.92,0.04,33.77,23.9,33.77,23.9
		c0.93,0.27,1.88,0.56,2.85,0.86c0,0,58.38,14.33,93.1,34.55c0,0,9.58-31.34,11.71-37.72c0,0,12.01,24.77,29.02,29.02
		c17.01,4.25-1.2,8.76-1.2,8.76S999.25,705.13,1005.2,713.63"/>
	<path class="st31" d="M829.54,634.62c0,0-3.12,0.77-5.2,2.06"/>
	<path class="st32" d="M834.9,663.07c0,0-5.36-6.1-10.9-7.09c0,0-0.39-8.49-3.79-12.61c-3.4-4.12-5.75-8.42-11.72-7.22
		c-5.96,1.19-2.69,8.74-2.69,8.74l8.67,16.58"/>
	<path class="st32" d="M805.81,644.89c0,0-5.94-13.44-14.91-12.66s0.26,10.58,0.26,10.58l4.18,9.84"/>
	<path class="st31" d="M865.95,653.48c0,0-2.24,5.75-8.8,9.15"/>
	
		<rect x="995.52" y="605.87" transform="matrix(-1 -4.489488e-11 4.489488e-11 -1 2224.8706 1397.452)" class="st33" width="233.82" height="185.71"/>
	<path class="st17" d="M1122.8,512.63c0,0-8.51,44.6,22.76,55.39c0,0-34.56,16.65-34.56,30.1c0,0,7.61,58.22-39.59,39.59
		c0,0-41.42-47.76-37.22-67.51c0,0,21.96-12.35,19.44-19.07L1122.8,512.63z"/>
	<path class="st34" d="M1236.09,546.6c0,0-19.31-0.71-18.53,10.33l-1.58,49.68"/>
	<path class="st34" d="M1030.35,547.43c0,0-15.32-1.16-14.53,9.88l-1.58,49.68"/>
	
		<rect x="1236.13" y="539.1" transform="matrix(-1 -4.497748e-11 4.497748e-11 -1 2506.9556 1093.9797)" width="34.7" height="15.77"/>
	<g>
		<path class="st35" d="M1000.54,791.55c0,0-1.9-13.24-6.67-61.95c0,0-1.04-14.68-0.51-38.19l-28.44-29.43l13.94-45.09
			c0,0,5.27-32.2,40.54-45.49c0,0,15.43-3.23,24.91-8.35c0,0-6.82,14.72-3.14,28.52c0,0,13.63,41.84,32.22,44.61
			c0,0,54.47-45.36,53.94-79.09c0,0,15.58-0.41,37.53,16.8c49.88,39.11,57.77,89.83,57.77,89.83s-6.49,30.25-51.68,47.91
			l10.26,79.72"/>
		<path class="st35" d="M1128.62,559.62l-55.22,76.56l35.29,36.52l77.31-82.84c0,0-12.53-15.16-32.54-19.61
			C1133.45,565.79,1128.62,559.62,1128.62,559.62z"/>
		<path class="st35" d="M1042.74,566.8l30.66,69.37l-33.65,30.46l-37.19-85.84C1002.57,580.79,1020.49,566.19,1042.74,566.8z"/>
		<path class="st36" d="M1108.69,672.69l77.31-82.84c0,0-5.73-6.45-13.43-11.21l-74.32,83.2L1108.69,672.69z"/>
		<path class="st37" d="M1142.45,564.97c0,0-51.34,65.2-57.91,84.11"/>
		<polygon class="st36" points="1039.75,666.63 1047.87,659.14 1013.13,574.22 1002.57,580.79 		"/>
		<line class="st37" x1="1058.29" y1="648.28" x2="1026.25" y2="568.99"/>
		<polygon class="st12" points="1166.95,609.66 1165.2,598.07 1154.08,599.9 1155.83,611.49 		"/>
		<polygon class="st12" points="1153.86,623.45 1152.11,611.86 1140.99,613.68 1142.74,625.27 		"/>
		<polygon class="st12" points="1140.15,637.28 1138.49,626.35 1128.3,628.02 1129.95,638.96 		"/>
		<polygon class="st12" points="1127.69,651.05 1126.08,640.36 1115.61,642.08 1117.22,652.77 		"/>
		<polygon class="st12" points="1011.99,602.75 1019.97,605.57 1022.68,597.25 1014.69,594.43 		"/>
		<polygon class="st12" points="1018.11,616.99 1026.1,619.8 1028.8,611.48 1020.81,608.66 		"/>
		<polygon class="st12" points="1023.93,630.59 1031.43,633.23 1033.97,625.42 1026.47,622.77 		"/>
		<polygon class="st12" points="1029.38,644.13 1036.87,646.77 1039.41,638.96 1031.92,636.31 		"/>
		<polygon class="st12" points="1035.1,657.42 1042.6,660.06 1045.13,652.25 1037.64,649.6 		"/>
		<path class="st38" d="M994.14,690.88c0,0,0.61-18.26,3.2-24.34"/>
	</g>
	
		<rect x="879.11" y="768.05" transform="matrix(-1 -4.490331e-11 4.490331e-11 -1 1876.4286 1559.4706)" class="st33" width="118.21" height="23.37"/>
	<path class="st17" d="M1054.81,414.67c0,0-23.22,11.36-27.93,45.91c0,0,0.98,9.44-1.03,14.82c-2.01,5.38-6.01,22.59-4.64,33.01
		c1.37,10.42,5.41,28.82,20.6,38.2c15.19,9.38,45.81-1.44,45.81-1.44s26.91-10.1,34.16-25.49c0,0,8.59,11.11,18.94,3.73
		c10.35-7.38,22.78-27.64,12.7-34.39c-8.65-5.79-18.14,5.55-20.66,8.89c-0.42,0.55-0.64,0.88-0.64,0.88s2.8-70.07-19.7-74.78
		C1112.43,424.01,1093.45,402.82,1054.81,414.67z"/>
	<path d="M1077.64,464.99c0,0,16.37-2.04,29.65,4.5c0,0-5.67-9.82-29.56-8.51C1077.73,460.99,1073.54,463.04,1077.64,464.99z"/>
	<path d="M1027.64,458.87c11.55-0.34,16.82,3.07,16.82,3.07c4.43-1.04,0.81-3.93,0.81-3.93c-7.17-1.99-12.86-2.54-17.3-2.36
		C1027.97,455.65,1027.01,458.89,1027.64,458.87z"/>
	<path class="st22" d="M1051.94,487.66c0,0-7.77,6.13-0.75,11.17"/>
	<path class="st21" d="M1054.38,550.33c0,0,13.96,1.23,27.49-3.24c0,0,8.48-1.75,22.27-10.04c0,0-7.28,11.55-32.27,14.93
		c0,0-8.43,1.44-19.04,1.19C1052.84,553.18,1053.18,551.83,1054.38,550.33z"/>
	<path class="st22" d="M1150.23,501.39c0,0-4.44-8.34-11.01-0.89c-6.57,7.46-7.14,10.1-7.14,10.1s9.53-11.93,11.86-1.41"/>
	<g>
		<path class="st12" d="M1097.04,478.86c0,0,0.07-0.48-0.24-0.93c-1.01-1.49-3.41-4.34-7.71-4.91c-4.81-0.64-8.06,3.53-9.18,5.02
			c-0.19,0.26-0.21,0.5-0.21,0.5s-0.05,0.27,0.08,0.47c0.65,0.99,2.88,3.82,7.43,4.49c2.71,0.4,6.71-0.55,9.55-3.92
			C1096.97,479.36,1097.02,479.04,1097.04,478.86z"/>
		<circle class="st21" cx="1087" cy="478.39" r="5.02"/>
		<circle class="st12" cx="1089.95" cy="480.04" r="1.38"/>
		<path class="st22" d="M1079.62,478.01c0,0,7.38-10.71,17.37-0.09"/>
	</g>
	<g>
		<path class="st12" d="M1044.5,474.37c0,0,0.13-0.43-0.09-0.89c-0.71-1.51-2.52-4.46-6.38-5.59c-4.32-1.26-7.89,2.1-9.12,3.31
			c-0.21,0.21-0.26,0.43-0.26,0.43s-0.09,0.24,0.01,0.45c0.46,1,2.1,3.91,6.17,5.17c2.42,0.75,6.23,0.44,9.31-2.25
			C1044.36,474.82,1044.46,474.53,1044.5,474.37z"/>
		<circle class="st21" cx="1035.36" cy="472.51" r="4.64"/>
		<circle class="st12" cx="1037.58" cy="474.7" r="1.3"/>
		<path class="st22" d="M1028.8,471.33c0,0,8.13-9.49,15.7,2.37"/>
	</g>
	<path class="st39" d="M1247.89,789.54c0,0-22.64-22.64-51.59,0"/>
	<path d="M1027.5,466.43l1.98-11.6c3.78-24.86,18.49-33.44,18.49-33.44c22.99,15.92,70.52,10.3,70.52,10.3
		c-4.36,52,15.02,68.89,15.02,68.89c9.52-16.2,19.92-11.55,19.92-11.55c12.59-27.48,1.45-46.49,1.45-46.49
		c2.05,38.28,50.04,54.04,50.04,54.04c-20.57-11.58-11.93-59.09-11.93-59.09s10.8-27.95-18.69-45.6
		c-29.48-17.64-41.11,15.45-41.11,15.45c-7.86-8.53-47.75-31.16-86.12-0.08C1047.07,407.25,1026.95,421.6,1027.5,466.43z"/>
	<g>
		<path class="st40" d="M1036.8,517.84c0,0,8.13-7.76,17.23-3.72c0,0,7.77-3.94,20.04,10.75c0,0-6.63,7.56-21.33,4.68
			C1038.03,526.66,1036.8,517.84,1036.8,517.84z"/>
		<path class="st20" d="M1038.14,518.36c0,0,15.45-6.82,33.95,6.52c0,0-11.23-0.79-16.39,0.09c-5.17,0.88-8.17-2.47-8.17-2.47
			S1043.06,519.26,1038.14,518.36z"/>
		<path class="st12" d="M1045.08,516.85c0,0,8.89-1.43,17.81,3.09L1045.08,516.85z"/>
	</g>
	<path class="st41" d="M1068.92,753.15l-74.23,57.61l-9.14,4.15l4.71-8.31l74.23-57.61C1064.49,749,1069.75,746.23,1068.92,753.15z"
		/>
	<path class="st17" d="M1062.41,809.65c-5.2,7.6-15.16,10.37-15.16,10.37s-34.87,1.41-38.48,0.16c-3.61-1.26-2.36-8.01-2.36-8.01
		l-4.08-0.31c-7.22-7.07-1.41-11.31-1.41-11.31l7.38-1.88l-8.95-0.16c-8.64-4.08-2.36-11.78-2.36-11.78
		c-5.97-4.71,0.16-10.37,0.16-10.37l28.93-4.91l34.76,9.59l86.77-29.38c0,0-3.48-31.04-1.46-49.44c0,0,39.2,7.06,64.28-17.31
		c0,0,14.63,81.49-8.09,105.32c-22.73,23.83-135.13,14.63-135.13,14.63L1062.41,809.65z"/>
	<line class="st9" x1="996.99" y1="786.72" x2="1009.5" y2="785.3"/>
	<line class="st9" x1="1006.42" y1="812.16" x2="1014.55" y2="810.58"/>
	<line class="st9" x1="1008.3" y1="798.65" x2="1011.18" y2="798.54"/>
</g>
</svg>
