<svg xmlns="http://www.w3.org/2000/svg" xmlns:xlink="http://www.w3.org/1999/xlink" width="1080" zoomAndPan="magnify" viewBox="0 0 810 809.999993" height="1080" preserveAspectRatio="xMidYMid meet" version="1.0"><defs><clipPath id="90ebc97bca"><path d="M 22.78125 0 L 641 0 L 641 810 L 22.78125 810 Z M 22.78125 0 " clip-rule="nonzero"/></clipPath><clipPath id="6947b91850"><path d="M 603 457 L 787.03125 457 L 787.03125 708 L 603 708 Z M 603 457 " clip-rule="nonzero"/></clipPath></defs><rect x="-81" width="972" fill="#ffffff" y="-80.999999" height="971.999992" fill-opacity="1"/><rect x="-81" width="972" fill="#ffffff" y="-80.999999" height="971.999992" fill-opacity="1"/><g clip-path="url(#90ebc97bca)"><path fill="#1d4e7b" d="M 581.652344 524.496094 C 578.195312 536.128906 571.863281 548.453125 562.832031 561.761719 C 562.875 591.089844 560.253906 622.414062 537.996094 643.238281 C 516.976562 662.902344 476.628906 674.4375 398.640625 661.890625 L 387.613281 797.90625 C 387.0625 804.6875 381.398438 809.914062 374.59375 809.914062 L 104.769531 809.914062 C 100.34375 809.914062 96.21875 807.671875 93.8125 803.957031 C 91.402344 800.242188 91.042969 795.558594 92.847656 791.519531 C 92.847656 791.519531 147.628906 670.097656 118.082031 572.363281 C 106.042969 532.542969 88.359375 502.765625 71.726562 471.167969 C 45.414062 421.179688 21.386719 366.972656 22.851562 266.617188 C 25.335938 96.480469 152.25 -2.949219 312.140625 0.15625 C 371.792969 1.3125 422.09375 15.832031 462.097656 41.925781 C 468.136719 45.867188 469.839844 53.964844 465.902344 60.003906 C 461.964844 66.042969 453.867188 67.746094 447.824219 63.804688 C 411.519531 40.125 365.769531 27.328125 311.632812 26.273438 C 166.792969 23.460938 51.222656 112.875 48.972656 266.996094 C 47.597656 361.199219 70.144531 412.078125 94.84375 459 C 112.21875 492.007812 130.511719 523.203125 143.089844 564.800781 C 167.839844 646.667969 138.492188 743.949219 123.941406 783.789062 L 362.550781 783.789062 L 373.761719 645.507812 C 374.058594 641.820312 375.910156 638.429688 378.851562 636.183594 C 381.792969 633.9375 385.546875 633.042969 389.183594 633.726562 C 427.910156 640.980469 457.050781 642.652344 478.988281 640.066406 C 498.316406 637.785156 511.453125 632.296875 520.148438 624.160156 C 538.023438 607.4375 536.890625 581.210938 536.6875 557.832031 C 536.664062 555.097656 537.5 552.425781 539.070312 550.195312 C 543.023438 544.582031 546.503906 539.269531 549.394531 534.183594 C 522.53125 535.28125 503.078125 531.472656 503.078125 531.472656 C 496 530.101562 491.367188 523.242188 492.734375 516.164062 C 494.105469 509.089844 500.964844 504.457031 508.042969 505.824219 C 508.042969 505.824219 530.113281 510.039062 558.683594 507.398438 C 558.957031 502.640625 558.308594 498 556.609375 493.394531 C 553.3125 484.476562 551.011719 475.71875 549.371094 468.089844 C 549.363281 468.042969 549.351562 468 549.34375 467.957031 C 545.535156 449.304688 556.367188 430.773438 574.492188 424.945312 C 574.515625 424.9375 574.539062 424.929688 574.5625 424.921875 C 592.328125 419.320312 604.835938 411.757812 613.015625 405.398438 C 614.03125 404.535156 614.671875 403.308594 614.792969 401.984375 C 614.917969 400.617188 614.484375 399.257812 613.59375 398.214844 L 613.589844 398.210938 C 577.347656 355.765625 560.542969 319.101562 552.757812 295.988281 C 550.453125 289.15625 554.128906 281.738281 560.964844 279.4375 C 567.792969 277.136719 575.207031 280.8125 577.511719 287.644531 C 584.652344 308.835938 600.234375 342.339844 633.453125 381.242188 C 638.925781 387.644531 641.578125 395.988281 640.804688 404.375 C 640.035156 412.761719 635.910156 420.476562 629.359375 425.777344 C 629.300781 425.824219 629.238281 425.875 629.175781 425.921875 C 619.273438 433.644531 604.101562 443 582.425781 449.835938 C 577.039062 451.601562 573.820312 457.113281 574.933594 462.695312 C 576.339844 469.230469 578.296875 476.71875 581.113281 484.34375 C 585.398438 495.945312 585.835938 507.960938 582.65625 520.804688 C 582.398438 522.09375 581.992188 523.347656 581.652344 524.496094 Z M 243.140625 330.109375 C 249.671875 333.164062 252.492188 340.945312 249.4375 347.472656 C 246.382812 354.003906 238.601562 356.828125 232.074219 353.773438 C 232.074219 353.773438 202.222656 339.671875 186.121094 367.546875 C 174.761719 387.214844 183.144531 410.628906 195.929688 429.921875 C 209.234375 450 227.839844 466.421875 240.160156 468.882812 C 247.230469 470.292969 251.824219 477.175781 250.417969 484.246094 C 249.003906 491.316406 242.121094 495.910156 235.050781 494.5 C 218.558594 491.210938 191.957031 471.222656 174.152344 444.351562 C 155.828125 416.699219 147.21875 382.667969 163.5 354.480469 C 191.457031 306.082031 243.140625 330.109375 243.140625 330.109375 Z M 391.910156 296.082031 C 386.410156 291.421875 385.730469 283.171875 390.390625 277.671875 C 395.050781 272.171875 403.300781 271.492188 408.800781 276.152344 C 421.46875 286.890625 433.96875 292.515625 446.636719 292.445312 C 459.394531 292.375 471.988281 286.578125 484.746094 276.046875 C 490.304688 271.457031 498.542969 272.242188 503.132812 277.800781 C 507.722656 283.359375 506.933594 291.601562 501.378906 296.191406 C 483.230469 311.171875 464.925781 318.46875 446.78125 318.570312 C 428.542969 318.667969 410.144531 311.535156 391.910156 296.082031 Z M 391.910156 296.082031 " fill-opacity="1" fill-rule="evenodd"/></g><g clip-path="url(#6947b91850)"><path fill="#1d4e7b" d="M 705.066406 485.746094 C 698.464844 488.644531 690.753906 485.636719 687.855469 479.039062 C 684.957031 472.4375 687.964844 464.726562 694.566406 461.828125 C 700.8125 459.082031 707.714844 457.558594 714.96875 457.558594 C 743.023438 457.558594 765.800781 480.335938 765.800781 508.390625 C 765.800781 536.445312 743.023438 559.222656 714.96875 559.222656 C 697.585938 559.222656 623.042969 541.109375 623.042969 541.109375 C 616.042969 539.382812 611.761719 532.300781 613.488281 525.300781 C 615.210938 518.300781 622.292969 514.019531 629.292969 515.742188 C 629.292969 515.742188 698.75 533.097656 714.96875 533.097656 C 728.605469 533.097656 739.675781 522.027344 739.675781 508.390625 C 739.675781 494.753906 728.605469 483.679688 714.96875 483.679688 C 711.449219 483.679688 708.097656 484.414062 705.066406 485.746094 Z M 651.882812 690.714844 C 647.058594 685.355469 647.492188 677.089844 652.847656 672.265625 C 658.203125 667.441406 666.46875 667.875 671.292969 673.230469 C 673.511719 675.691406 676.261719 677.742188 679.472656 679.1875 C 691.898438 684.800781 706.546875 679.261719 712.15625 666.832031 C 717.769531 654.40625 712.230469 639.757812 699.804688 634.148438 C 685.019531 627.476562 614.570312 614.714844 614.570312 614.714844 C 607.484375 613.40625 602.789062 606.589844 604.097656 599.5 C 605.40625 592.410156 612.222656 587.71875 619.3125 589.027344 C 619.3125 589.027344 694.707031 603.1875 710.550781 610.339844 C 736.121094 621.878906 747.507812 652.011719 735.964844 677.582031 C 724.425781 703.152344 694.292969 714.542969 668.722656 703 C 662.109375 700.015625 656.449219 695.785156 651.882812 690.714844 Z M 782.113281 647.246094 C 779.148438 653.820312 771.402344 656.746094 764.835938 653.777344 C 758.265625 650.8125 755.335938 643.070312 758.304688 636.5 C 764.765625 622.179688 759.6875 605.449219 746.265625 599.390625 C 744.699219 598.683594 742.375 597.941406 739.535156 597.125 C 732.605469 595.125 728.605469 587.878906 730.601562 580.953125 C 732.597656 574.027344 739.84375 570.023438 746.769531 572.023438 C 751.109375 573.273438 754.621094 574.5 757.015625 575.578125 C 783.136719 587.371094 794.695312 619.378906 782.113281 647.246094 Z M 782.113281 647.246094 " fill-opacity="1" fill-rule="evenodd"/></g><path fill="#1d4e7b" d="M 578.640625 23.148438 C 643.632812 23.148438 696.394531 75.910156 696.394531 140.902344 C 696.394531 205.890625 643.632812 258.65625 578.640625 258.65625 C 513.652344 258.65625 460.886719 205.890625 460.886719 140.902344 C 460.886719 75.910156 513.652344 23.148438 578.640625 23.148438 Z M 578.640625 49.269531 C 528.070312 49.269531 487.007812 90.328125 487.007812 140.902344 C 487.007812 191.476562 528.070312 232.53125 578.640625 232.53125 C 629.214844 232.53125 670.273438 191.476562 670.273438 140.902344 C 670.273438 90.328125 629.214844 49.269531 578.640625 49.269531 Z M 537.257812 148.734375 C 532.214844 143.585938 532.300781 135.308594 537.453125 130.265625 C 542.605469 125.222656 550.878906 125.308594 555.921875 130.457031 L 568.808594 143.621094 L 601.359375 110.375 C 606.402344 105.222656 614.679688 105.136719 619.832031 110.179688 C 624.980469 115.222656 625.070312 123.5 620.023438 128.652344 L 578.140625 171.429688 C 575.683594 173.9375 572.320312 175.351562 568.808594 175.351562 C 565.296875 175.351562 561.933594 173.9375 559.476562 171.429688 Z M 537.257812 148.734375 " fill-opacity="1" fill-rule="evenodd"/></svg>