<svg xmlns="http://www.w3.org/2000/svg" xmlns:xlink="http://www.w3.org/1999/xlink" width="1080" zoomAndPan="magnify" viewBox="0 0 810 809.999993" height="1080" preserveAspectRatio="xMidYMid meet" version="1.0"><defs><clipPath id="280965b8c9"><path d="M 5.605469 45.046875 L 804.355469 45.046875 L 804.355469 765 L 5.605469 765 Z M 5.605469 45.046875 " clip-rule="nonzero"/></clipPath></defs><rect x="-81" width="972" fill="#ffffff" y="-80.999999" height="971.999992" fill-opacity="1"/><rect x="-81" width="972" fill="#ffffff" y="-80.999999" height="971.999992" fill-opacity="1"/><g clip-path="url(#280965b8c9)"><path fill="#1d4e7b" d="M 19.269531 615.3125 L 318.417969 95.113281 C 356.808594 28.351562 453.183594 28.351562 491.578125 95.113281 L 790.726562 615.3125 C 829.007812 681.886719 780.96875 764.960938 704.148438 764.960938 L 105.847656 764.960938 C 29.027344 764.960938 -19.011719 681.886719 19.269531 615.3125 M 704.976562 719.863281 C 746.574219 719.824219 772.527344 674.726562 751.660156 638.746094 L 450.695312 119.601562 C 429.863281 83.585938 377.832031 83.695312 357.113281 119.789062 L 58.714844 639.574219 C 37.992188 675.59375 64.0625 720.539062 105.621094 720.503906 Z M 704.976562 719.863281 " fill-opacity="1" fill-rule="nonzero"/></g><path fill="#1d4e7b" d="M 402.246094 539.089844 C 389.363281 539.054688 376.402344 529.558594 375.007812 515.921875 C 369.207031 459.257812 363.214844 393.511719 357.035156 318.683594 C 354.773438 291.066406 376.027344 268.949219 403.152344 269.027344 C 430.277344 269.140625 451.378906 291.410156 448.929688 318.984375 C 442.261719 393.777344 435.855469 459.480469 429.636719 516.109375 C 428.167969 529.710938 415.167969 539.132812 402.246094 539.089844 Z M 402.246094 539.089844 " fill-opacity="1" fill-rule="nonzero"/><path fill="#1d4e7b" d="M 399.019531 570.867188 C 420.859375 569.160156 439.996094 585.882812 441.765625 608.28125 C 443.542969 630.644531 427.226562 650.199219 405.398438 651.921875 C 383.558594 653.628906 364.421875 636.898438 362.660156 614.507812 C 360.878906 592.140625 377.195312 572.582031 399.019531 570.867188 Z M 399.019531 570.867188 " fill-opacity="1" fill-rule="nonzero"/></svg>