<svg xmlns="http://www.w3.org/2000/svg" xmlns:xlink="http://www.w3.org/1999/xlink" width="1080" zoomAndPan="magnify" viewBox="0 0 810 809.999993" height="1080" preserveAspectRatio="xMidYMid meet" version="1.0"><defs><clipPath id="b6a4e8032a"><path d="M 168 28.210938 L 689 28.210938 L 689 726 L 168 726 Z M 168 28.210938 " clip-rule="nonzero"/></clipPath><clipPath id="3725fb93e7"><path d="M 455 451 L 797.25 451 L 797.25 793.960938 L 455 793.960938 Z M 455 451 " clip-rule="nonzero"/></clipPath></defs><rect x="-81" width="972" fill="#ffffff" y="-80.999999" height="971.999992" fill-opacity="1"/><rect x="-81" width="972" fill="#ffffff" y="-80.999999" height="971.999992" fill-opacity="1"/><g clip-path="url(#b6a4e8032a)"><path fill="#1d4e7b" d="M 194.464844 299.402344 C 194.128906 306.492188 188.101562 311.972656 181.011719 311.636719 C 173.925781 311.300781 168.445312 305.273438 168.78125 298.1875 C 168.78125 298.1875 176.183594 148.980469 283.214844 72.582031 C 329.160156 39.789062 393.40625 19.992188 483.445312 31.574219 C 698.105469 59.1875 703.253906 294.503906 678.644531 391.847656 C 675.003906 406.253906 670.664062 418.945312 665.789062 430.273438 C 662.984375 436.789062 655.417969 439.804688 648.898438 437 C 642.382812 434.195312 639.367188 426.628906 642.171875 420.109375 C 646.554688 409.921875 650.441406 398.5 653.71875 385.546875 C 676.027344 297.289062 674.785156 82.113281 480.164062 57.074219 C 398.390625 46.558594 339.878906 63.726562 298.152344 93.511719 C 200.613281 163.132812 194.464844 299.402344 194.464844 299.402344 Z M 428.886719 682.75 C 435.074219 679.273438 442.917969 681.476562 446.394531 687.660156 C 449.867188 693.847656 447.667969 701.691406 441.480469 705.167969 C 408.082031 723.929688 370.078125 730.953125 335.359375 719.628906 C 301 708.421875 269.191406 679.21875 248.898438 623.488281 C 246.472656 616.820312 249.914062 609.4375 256.582031 607.011719 C 263.25 604.582031 270.632812 608.023438 273.058594 614.691406 C 289.828125 660.746094 314.9375 685.921875 343.332031 695.183594 C 371.359375 704.324219 401.925781 697.894531 428.886719 682.75 Z M 587.527344 294.617188 C 588.480469 301.648438 583.546875 308.128906 576.515625 309.082031 C 569.484375 310.035156 563 305.097656 562.050781 298.070312 C 562.050781 298.070312 556.292969 255.820312 532.644531 217.640625 C 517.550781 193.273438 495.019531 170.390625 461.207031 162.636719 C 439.628906 157.691406 413.644531 158.910156 382.355469 169.117188 C 316.660156 190.539062 290.441406 260.710938 295.050781 303.402344 C 298.296875 333.460938 311.910156 360.535156 321.351562 387.582031 C 332.148438 418.511719 337.859375 449.335938 323.472656 483.261719 C 318.566406 494.832031 317.882812 504.398438 320.941406 511.902344 C 325.359375 522.746094 337.054688 528.289062 349.683594 529.5 C 373.023438 531.734375 400.8125 518.578125 404.859375 487.078125 C 409.015625 454.722656 394.976562 438.304688 383.605469 420.566406 C 373.839844 405.332031 365.515625 389.355469 365.515625 366.417969 C 365.515625 304.601562 440.304688 273.578125 484.769531 323.578125 C 489.484375 328.882812 489.007812 337.015625 483.707031 341.730469 C 478.402344 346.445312 470.269531 345.96875 465.554688 340.664062 C 437.949219 309.625 391.226562 328.042969 391.226562 366.417969 C 391.226562 388.519531 402.203125 401.867188 411.71875 416.625 C 423.917969 435.546875 434.773438 456.027344 430.363281 490.355469 C 424.234375 538.042969 382.566406 558.480469 347.230469 555.09375 C 324.648438 552.929688 305.027344 540.996094 297.128906 521.605469 C 291.976562 508.957031 291.53125 492.71875 299.800781 473.222656 C 311.410156 445.851562 305.785156 421.007812 297.074219 396.058594 C 287.011719 367.21875 272.945312 338.210938 269.488281 306.160156 C 263.949219 254.835938 295.398438 170.429688 374.386719 144.671875 C 411.101562 132.695312 441.632812 131.769531 466.957031 137.574219 C 508.191406 147.027344 536.09375 174.378906 554.503906 204.101562 C 581.113281 247.058594 587.527344 294.617188 587.527344 294.617188 Z M 587.527344 294.617188 " fill-opacity="1" fill-rule="evenodd"/></g><g clip-path="url(#3725fb93e7)"><path fill="#1d4e7b" d="M 626.25 451.691406 C 720.644531 451.691406 797.285156 528.328125 797.285156 622.726562 C 797.285156 717.121094 720.644531 793.761719 626.25 793.761719 C 531.851562 793.761719 455.210938 717.121094 455.210938 622.726562 C 455.210938 528.328125 531.851562 451.691406 626.25 451.691406 Z M 626.25 477.402344 C 546.042969 477.402344 480.921875 542.519531 480.921875 622.726562 C 480.921875 702.933594 546.042969 768.050781 626.25 768.050781 C 706.453125 768.050781 771.570312 702.933594 771.570312 622.726562 C 771.570312 542.519531 706.453125 477.402344 626.25 477.402344 Z M 552.613281 629.097656 C 547.652344 624.027344 547.734375 615.882812 552.804688 610.917969 C 557.875 605.953125 566.023438 606.039062 570.984375 611.109375 C 570.984375 611.109375 606.476562 647.355469 606.476562 647.355469 L 681.507812 570.722656 C 686.472656 565.652344 694.621094 565.566406 699.6875 570.53125 C 704.757812 575.496094 704.847656 583.644531 699.882812 588.710938 L 615.664062 674.726562 C 613.246094 677.199219 609.933594 678.589844 606.476562 678.589844 C 603.019531 678.589844 599.710938 677.199219 597.292969 674.726562 Z M 552.613281 629.097656 " fill-opacity="1" fill-rule="evenodd"/></g><path fill="#1d4e7b" d="M 80.6875 344.988281 C 76.160156 339.523438 76.921875 331.414062 82.386719 326.886719 C 87.851562 322.363281 95.964844 323.125 100.488281 328.589844 C 165.761719 407.402344 164.667969 522.832031 97.195312 600.414062 C 92.539062 605.769531 84.414062 606.335938 79.058594 601.679688 C 73.703125 597.023438 73.136719 588.898438 77.792969 583.542969 C 137.003906 515.457031 137.96875 414.15625 80.6875 344.988281 Z M 5.097656 418.632812 C 1.1875 412.710938 2.824219 404.726562 8.746094 400.820312 C 14.667969 396.910156 22.648438 398.546875 26.558594 404.46875 C 50.742188 441.109375 49.6875 489.558594 23.402344 525.175781 C 19.1875 530.882812 11.132812 532.097656 5.421875 527.886719 C -0.285156 523.671875 -1.5 515.617188 2.710938 509.90625 C 22.589844 482.976562 23.386719 446.339844 5.097656 418.632812 Z M 5.097656 418.632812 " fill-opacity="1" fill-rule="evenodd"/></svg>