<svg xmlns="http://www.w3.org/2000/svg" xmlns:xlink="http://www.w3.org/1999/xlink" width="1080" zoomAndPan="magnify" viewBox="0 0 810 809.999993" height="1080" preserveAspectRatio="xMidYMid meet" version="1.0"><defs><clipPath id="4dbfd101ca"><path d="M 43.589844 82.890625 L 372 82.890625 L 372 412 L 43.589844 412 Z M 43.589844 82.890625 " clip-rule="nonzero"/></clipPath><clipPath id="85f8d9775f"><path d="M 437 206 L 766.589844 206 L 766.589844 289 L 437 289 Z M 437 206 " clip-rule="nonzero"/></clipPath><clipPath id="90423019ff"><path d="M 437 548 L 766.589844 548 L 766.589844 630 L 437 630 Z M 437 548 " clip-rule="nonzero"/></clipPath><clipPath id="615ecc3d83"><path d="M 554 647 L 634 647 L 634 727.140625 L 554 727.140625 Z M 554 647 " clip-rule="nonzero"/></clipPath></defs><rect x="-81" width="972" fill="#ffffff" y="-80.999999" height="971.999992" fill-opacity="1"/><rect x="-81" width="972" fill="#ffffff" y="-80.999999" height="971.999992" fill-opacity="1"/><g clip-path="url(#4dbfd101ca)"><path fill="#1d4e7b" d="M 360.085938 218.28125 C 352.457031 210.742188 342.195312 206.472656 331.476562 206.472656 C 331.476562 206.472656 331.476562 206.472656 331.386719 206.472656 L 248.199219 206.5625 L 248.109375 123.375 C 248.109375 112.660156 243.839844 102.304688 236.210938 94.769531 C 228.582031 87.230469 218.320312 82.960938 207.605469 82.960938 C 207.605469 82.960938 207.605469 82.960938 207.511719 82.960938 C 196.796875 82.960938 186.441406 87.230469 178.90625 94.859375 C 171.277344 102.488281 167.097656 112.75 167.097656 123.558594 L 167.191406 206.746094 L 84 206.835938 C 73.285156 206.835938 62.933594 211.105469 55.394531 218.734375 C 47.765625 226.363281 43.589844 236.625 43.589844 247.429688 C 43.589844 258.148438 47.855469 268.5 55.484375 276.039062 C 63.113281 283.578125 73.375 287.84375 84.09375 287.84375 C 84.09375 287.84375 84.09375 287.84375 84.183594 287.84375 L 167.371094 287.753906 L 167.460938 370.941406 C 167.460938 381.660156 171.730469 392.011719 179.359375 399.550781 C 186.988281 407.085938 197.25 411.355469 207.96875 411.355469 C 207.96875 411.355469 207.96875 411.355469 208.058594 411.355469 C 218.773438 411.355469 229.128906 407.085938 236.664062 399.460938 C 244.292969 391.832031 248.472656 381.566406 248.472656 370.761719 L 248.378906 287.574219 L 331.570312 287.480469 C 342.285156 287.480469 352.636719 283.214844 360.175781 275.585938 C 367.804688 267.957031 371.980469 257.695312 371.980469 246.886719 C 371.980469 236.171875 367.714844 225.90625 360.085938 218.28125 Z M 360.085938 218.28125 " fill-opacity="1" fill-rule="nonzero"/></g><g clip-path="url(#85f8d9775f)"><path fill="#1d4e7b" d="M 754.414062 218.460938 C 746.785156 210.921875 736.523438 206.65625 725.804688 206.65625 C 725.804688 206.65625 725.804688 206.65625 725.714844 206.65625 L 478.238281 207.019531 C 467.523438 207.019531 457.167969 211.285156 449.632812 218.914062 C 442.003906 226.542969 437.824219 236.804688 437.824219 247.613281 C 437.824219 258.328125 442.09375 268.683594 449.722656 276.21875 C 457.351562 283.757812 467.613281 288.027344 478.328125 288.027344 C 478.328125 288.027344 478.328125 288.027344 478.417969 288.027344 L 725.894531 287.664062 C 736.613281 287.664062 746.964844 283.394531 754.503906 275.765625 C 762.132812 268.136719 766.308594 257.875 766.308594 247.066406 C 766.308594 236.351562 762.042969 226.089844 754.414062 218.460938 Z M 754.414062 218.460938 " fill-opacity="1" fill-rule="nonzero"/></g><path fill="#1d4e7b" d="M 274.355469 592.082031 L 333.203125 533.050781 C 340.832031 525.421875 345.007812 515.160156 345.007812 504.351562 C 345.007812 493.636719 340.742188 483.285156 333.113281 475.746094 C 325.484375 468.207031 315.222656 463.9375 304.503906 463.9375 C 304.503906 463.9375 304.503906 463.9375 304.414062 463.9375 C 293.699219 463.9375 283.34375 468.207031 275.808594 475.835938 L 217.140625 534.6875 L 158.472656 475.835938 C 150.84375 468.207031 140.582031 463.9375 129.863281 463.9375 C 129.863281 463.9375 129.863281 463.9375 129.773438 463.9375 C 119.058594 463.9375 108.792969 468.207031 101.167969 475.746094 C 93.539062 483.375 89.269531 493.636719 89.269531 504.351562 C 89.269531 515.070312 93.539062 525.421875 101.074219 533.050781 L 159.925781 592.082031 L 101.074219 651.113281 C 93.445312 658.742188 89.269531 669.003906 89.269531 679.8125 C 89.269531 690.527344 93.539062 700.878906 101.167969 708.417969 C 108.792969 715.957031 119.058594 720.226562 129.773438 720.226562 C 129.773438 720.226562 129.773438 720.226562 129.863281 720.226562 C 140.582031 720.226562 150.933594 715.957031 158.472656 708.328125 L 217.140625 649.476562 L 275.808594 708.328125 C 283.4375 715.957031 293.699219 720.226562 304.414062 720.226562 C 304.414062 720.226562 304.414062 720.226562 304.503906 720.226562 C 315.222656 720.226562 325.484375 715.957031 333.113281 708.417969 C 340.742188 700.789062 345.007812 690.527344 345.007812 679.8125 C 345.007812 669.09375 340.742188 658.742188 333.203125 651.113281 Z M 274.355469 592.082031 " fill-opacity="1" fill-rule="nonzero"/><g clip-path="url(#90423019ff)"><path fill="#1d4e7b" d="M 754.414062 560.296875 C 746.785156 552.757812 736.523438 548.488281 725.804688 548.488281 C 725.804688 548.488281 725.804688 548.488281 725.714844 548.488281 L 478.328125 548.851562 C 467.613281 548.851562 457.257812 553.121094 449.722656 560.75 C 442.09375 568.378906 437.914062 578.640625 437.914062 589.449219 C 437.914062 600.164062 442.183594 610.519531 449.8125 618.054688 C 457.441406 625.59375 467.703125 629.863281 478.417969 629.863281 C 478.417969 629.863281 478.417969 629.863281 478.511719 629.863281 L 725.988281 629.5 C 736.703125 629.5 747.054688 625.230469 754.59375 617.601562 C 762.222656 609.972656 766.402344 599.710938 766.402344 588.902344 C 766.308594 578.1875 762.042969 567.832031 754.414062 560.296875 Z M 754.414062 560.296875 " fill-opacity="1" fill-rule="nonzero"/></g><path fill="#1d4e7b" d="M 594.757812 535.503906 C 605.382812 535.503906 615.371094 531.324219 622.910156 523.789062 C 630.449219 516.25 634.625 506.261719 634.625 495.632812 C 634.625 485.007812 630.449219 475.019531 622.910156 467.480469 C 615.371094 459.941406 605.382812 455.765625 594.757812 455.765625 C 584.128906 455.765625 574.140625 459.941406 566.601562 467.480469 C 559.066406 475.019531 554.886719 485.007812 554.886719 495.632812 C 554.886719 506.261719 559.066406 516.25 566.601562 523.789062 C 574.140625 531.417969 584.128906 535.503906 594.757812 535.503906 Z M 594.757812 535.503906 " fill-opacity="1" fill-rule="nonzero"/><g clip-path="url(#615ecc3d83)"><path fill="#1d4e7b" d="M 594.121094 647.296875 C 583.496094 647.296875 573.503906 651.476562 565.96875 659.015625 C 558.429688 666.550781 554.253906 676.542969 554.253906 687.167969 C 554.253906 697.792969 558.429688 707.78125 565.96875 715.320312 C 573.503906 722.859375 583.496094 727.035156 594.121094 727.035156 C 604.746094 727.035156 614.734375 722.859375 622.273438 715.320312 C 629.8125 707.78125 633.988281 697.792969 633.988281 687.167969 C 633.988281 676.542969 629.8125 666.550781 622.273438 659.015625 C 614.734375 651.386719 604.746094 647.296875 594.121094 647.296875 Z M 594.121094 647.296875 " fill-opacity="1" fill-rule="nonzero"/></g></svg>