<svg xmlns="http://www.w3.org/2000/svg" xmlns:xlink="http://www.w3.org/1999/xlink" width="1080" zoomAndPan="magnify" viewBox="0 0 810 809.999993" height="1080" preserveAspectRatio="xMidYMid meet" version="1.0"><defs><clipPath id="22a1240a23"><path d="M 18.355469 122 L 791.484375 122 L 791.484375 662.558594 L 18.355469 662.558594 Z M 18.355469 122 " clip-rule="nonzero"/></clipPath><clipPath id="2dbc808aab"><path d="M 81 69.90625 L 716.546875 69.90625 L 716.546875 740.097656 L 81 740.097656 Z M 81 69.90625 " clip-rule="nonzero"/></clipPath></defs><rect x="-81" width="972" fill="#ffffff" y="-80.999999" height="971.999992" fill-opacity="1"/><rect x="-81" width="972" fill="#ffffff" y="-80.999999" height="971.999992" fill-opacity="1"/><g clip-path="url(#22a1240a23)"><path fill="#1d4e7b" d="M 161 326.59375 C 163.203125 324.164062 163.011719 319.695312 167.578125 321.597656 C 180.898438 328.828125 182.863281 344.9375 196.199219 352.152344 C 197.59375 351.058594 199.023438 349.933594 200.433594 348.808594 C 207.726562 357.972656 214.925781 367.960938 222.617188 377.761719 C 240.265625 391.730469 258.121094 405.273438 276.257812 418.335938 C 277.066406 416.480469 278.019531 414.945312 280.160156 415.847656 C 288.152344 420.761719 296.714844 430.484375 306.496094 439.523438 C 308.195312 440.550781 309.890625 441.597656 311.554688 442.613281 C 313.457031 442.707031 314.949219 441.550781 315.882812 440.835938 C 320.339844 444.867188 324.097656 448.71875 327.507812 452.351562 C 384.019531 486.664062 442.484375 520.230469 505.085938 557.492188 C 519.816406 563.613281 534.5625 569.734375 547.167969 577.503906 C 565.023438 590 583.875 610.550781 599.589844 624.710938 C 609.246094 608.34375 654.453125 634.730469 658.875 613.640625 C 669.355469 623.078125 685.085938 637.253906 689.351562 633.921875 C 702.117188 623.933594 722.253906 617.003906 756.980469 633.953125 C 769.585938 641.722656 782.414062 661.386719 788.421875 662.273438 C 797.921875 663.667969 781.207031 641.453125 790.691406 642.832031 C 711.425781 567.960938 627.050781 505.324219 543.582031 434.242188 C 509.761719 416.402344 315.550781 256.222656 268.664062 211.570312 L 264.035156 207.9375 C 237.808594 184.328125 204.238281 157.671875 176.871094 143.78125 C 163.597656 138.28125 149.519531 133.347656 135.597656 128.308594 C 138.515625 134.839844 141.066406 141.054688 143.050781 146.730469 C 132.550781 137.28125 122.054688 127.832031 115.746094 126.910156 C 87.664062 113.558594 94.558594 131.714844 95.113281 148.921875 C 97.84375 158.546875 83.746094 157.800781 89.976562 170.5625 C 83 164.269531 79.511719 161.128906 72.503906 154.820312 C 68.253906 158.164062 96.320312 171.5 85.726562 173.894531 C 80.144531 166.503906 70.332031 162.398438 63.355469 156.117188 C 61.167969 163.714844 86.394531 179.253906 80.71875 183.710938 C 75.800781 181.679688 66.84375 159.273438 59.738281 164.824219 C 58.328125 165.933594 65.320312 172.230469 68.808594 175.367188 C 45.007812 158.703125 27.40625 154.804688 41.296875 179.238281 C 34.480469 173.101562 27.027344 161.859375 18.84375 156.5 C 18.828125 156.546875 18.828125 156.609375 18.8125 156.65625 C 22.316406 160.019531 27.488281 166.804688 30.816406 169.804688 C 26.726562 166.125 22.636719 162.429688 18.542969 158.75 C 18.402344 160.257812 18.355469 161.828125 18.355469 163.414062 C 20.78125 166.917969 23.363281 170.246094 26.550781 173.132812 C 23.839844 170.691406 21.128906 168.234375 18.402344 165.792969 C 18.625 169.753906 19.210938 173.910156 20.160156 178.128906 C 26.410156 190.890625 30.515625 205.335938 35.75 210.0625 C 76.40625 250.101562 118.042969 289.34375 161 326.59375 " fill-opacity="1" fill-rule="nonzero"/></g><g clip-path="url(#2dbc808aab)"><path fill="#1d4e7b" d="M 282.664062 611.375 C 280.382812 608.996094 276.054688 608.757812 278.050781 604.507812 C 285.535156 592.234375 301.457031 592.25 309.082031 580.167969 C 308.082031 578.695312 307.085938 577.1875 306.070312 575.695312 C 315.34375 569.671875 325.320312 563.789062 335.417969 557.730469 C 350.199219 542.636719 364.40625 527.050781 378.804688 511.730469 C 377.089844 510.667969 375.695312 509.527344 376.757812 507.609375 C 382.261719 500.679688 392.390625 493.832031 402.082031 485.871094 C 403.269531 484.410156 404.441406 482.96875 405.617188 481.542969 C 405.917969 479.75 404.964844 478.117188 404.378906 477.101562 C 408.773438 473.503906 412.894531 470.554688 416.78125 467.90625 C 456.183594 419.429688 496.996094 369.925781 544.488281 318.804688 C 553.222656 306.28125 562.039062 293.691406 572.03125 283.511719 C 579.753906 276.40625 589.742188 269.96875 599.730469 263.6875 C 609.769531 257.457031 619.871094 251.449219 628.382812 245.945312 C 615.066406 232.355469 651.296875 196.757812 632.539062 186.59375 C 644.082031 179.078125 661.855469 168.503906 659.84375 163.460938 C 656.863281 155.929688 655.101562 146.890625 657.371094 136.1875 C 659.667969 125.546875 665.804688 112.925781 679.1875 99.195312 C 690.429688 89.632812 712.945312 83.574219 715.640625 78.136719 C 719.890625 69.542969 693.761719 78.484375 697.992188 69.890625 C 649.886719 95.640625 605.34375 125.4375 561.691406 156.46875 C 518.386719 188.007812 476.066406 220.941406 432.9375 254.730469 C 426.738281 261.945312 410.324219 277.769531 388.015625 297.527344 C 376.980469 307.53125 364.628906 318.742188 351.546875 330.621094 C 338.320312 342.320312 324.828125 355.210938 310.84375 367.851562 C 283.140625 393.425781 255.105469 419.875 231.226562 442.851562 C 219.128906 454.171875 208.332031 464.890625 198.863281 473.960938 C 189.429688 483.03125 181.375 490.46875 175.394531 495.890625 L 171.511719 500.269531 C 158.984375 512.605469 145.378906 526.542969 133.375 541.019531 C 121.4375 555.589844 110.671875 570.273438 103.3125 583.609375 C 97.539062 596.738281 92.386719 610.644531 87.171875 624.296875 C 93.71875 621.570312 99.953125 619.207031 105.597656 617.414062 C 96.097656 627.5625 86.503906 637.648438 85.601562 643.910156 C 72.519531 671.660156 90.53125 664.9375 107.433594 664.730469 C 116.917969 662.273438 116.203125 676.070312 128.824219 670.375 C 122.5625 676.941406 119.660156 680.429688 113.507812 687.136719 C 116.804688 691.355469 129.632812 664.113281 132.125 674.625 C 124.78125 679.8125 121.023438 689.46875 114.9375 696.144531 C 122.402344 698.410156 137.292969 674.070312 141.8125 679.859375 C 139.734375 684.457031 117.996094 692.796875 123.546875 699.851562 C 124.65625 701.265625 130.710938 694.574219 133.726562 691.226562 C 117.773438 714.171875 114.414062 731.105469 138.054688 718.183594 C 132.203125 724.652344 121.339844 731.644531 116.285156 739.460938 C 116.332031 739.496094 116.378906 739.496094 116.441406 739.511719 C 119.644531 736.179688 126.195312 731.3125 129.046875 728.140625 C 125.542969 732.027344 122.023438 735.925781 118.503906 739.8125 C 119.992188 739.984375 121.53125 740.050781 123.101562 740.082031 C 126.480469 737.796875 129.683594 735.371094 132.425781 732.359375 C 130.09375 734.929688 127.761719 737.511719 125.433594 740.082031 C 129.316406 739.953125 133.390625 739.460938 137.5 738.652344 C 149.851562 732.914062 163.804688 729.394531 168.261719 724.476562 C 206.585938 686.773438 244.800781 649.035156 282.664062 611.375 " fill-opacity="1" fill-rule="nonzero"/></g></svg>