<?xml version="1.0" encoding="UTF-8"?>
<svg id="Layer_1" data-name="Layer 1" xmlns="http://www.w3.org/2000/svg" viewBox="0 0 1336.22 1002.2">
  <defs>
    <style>
      .cls-1, .cls-2, .cls-3 {
        stroke-width: .8px;
      }

      .cls-1, .cls-2, .cls-3, .cls-4, .cls-5, .cls-6, .cls-7, .cls-8, .cls-9, .cls-10, .cls-11, .cls-12, .cls-13, .cls-14, .cls-15, .cls-16 {
        stroke-miterlimit: 10;
      }

      .cls-1, .cls-2, .cls-3, .cls-5, .cls-12, .cls-14, .cls-15, .cls-16 {
        fill: none;
      }

      .cls-1, .cls-17 {
        stroke: #2b3990;
      }

      .cls-2 {
        stroke: #9e1f63;
      }

      .cls-3, .cls-5, .cls-10, .cls-12, .cls-14 {
        stroke: #231f20;
      }

      .cls-18 {
        fill: #f7daa6;
      }

      .cls-19 {
        fill: #f7d9a4;
      }

      .cls-20 {
        fill: #f8a69b;
      }

      .cls-21, .cls-8 {
        fill: #00a151;
      }

      .cls-22 {
        fill: #eeece8;
      }

      .cls-23 {
        fill: #efaf9e;
      }

      .cls-24, .cls-13 {
        fill: #eae1d3;
      }

      .cls-25 {
        fill: #f4f1ee;
      }

      .cls-26 {
        fill: #f6ac1b;
      }

      .cls-27, .cls-4, .cls-9 {
        fill: #fff;
      }

      .cls-28 {
        fill: #fbc5b3;
      }

      .cls-29 {
        fill: #803435;
      }

      .cls-30 {
        fill: #939598;
      }

      .cls-31 {
        fill: #87664d;
      }

      .cls-32 {
        fill: #b56e5b;
      }

      .cls-33 {
        fill: #8b5e3c;
      }

      .cls-34 {
        fill: #9054a2;
      }

      .cls-35 {
        fill: #ae8578;
      }

      .cls-36 {
        fill: #b1dcc4;
      }

      .cls-37, .cls-7 {
        fill: #a97c50;
      }

      .cls-38 {
        fill: #a3d7bb;
      }

      .cls-39 {
        fill: #be9e7d;
      }

      .cls-40 {
        fill: #d1d3d4;
      }

      .cls-41 {
        fill: #c49a6c;
      }

      .cls-42 {
        fill: #dcbf97;
      }

      .cls-43 {
        fill: #e0d5c6;
      }

      .cls-44, .cls-11 {
        fill: #134a7e;
      }

      .cls-45 {
        fill: #231f20;
      }

      .cls-46 {
        fill: #092f44;
      }

      .cls-47 {
        fill: #1c75bc;
      }

      .cls-48 {
        fill: #414042;
      }

      .cls-49, .cls-17 {
        fill: #16a9de;
      }

      .cls-50, .cls-10 {
        fill: #9c2024;
      }

      .cls-51 {
        fill: #6d6e71;
      }

      .cls-52 {
        fill: #808285;
      }

      .cls-53 {
        fill: #49908e;
      }

      .cls-54 {
        fill: #603913;
      }

      .cls-55 {
        fill: #26130f;
      }

      .cls-4, .cls-6, .cls-7, .cls-17, .cls-14, .cls-15, .cls-16 {
        stroke-width: .5px;
      }

      .cls-4, .cls-9, .cls-15 {
        stroke: #603913;
      }

      .cls-5 {
        stroke-width: .7px;
      }

      .cls-6 {
        fill: #ba9777;
        stroke: #754c29;
      }

      .cls-7, .cls-16 {
        stroke: #a97c50;
      }

      .cls-17 {
        stroke-linecap: round;
        stroke-linejoin: round;
      }

      .cls-8 {
        stroke: #006838;
      }

      .cls-11 {
        stroke: #2e3192;
      }

      .cls-13 {
        stroke: #8b5e3c;
        stroke-width: 3px;
      }
    </style>
  </defs>
  <rect class="cls-38" x="1.51" width="1334.13" height="943.75"/>
  <g>
    <rect class="cls-36" x="335.58" y="243.63" width="103.08" height="102.45"/>
    <path class="cls-52" d="M381.8,254.04s-6.54,29.74-37.12,35.86v-36.09l37.12,.23Z"/>
    <path class="cls-52" d="M391.14,254.04s6.54,29.74,37.12,35.86v-36.09s-37.12,.23-37.12,.23Z"/>
    <path class="cls-52" d="M381.8,335.64s-6.54-29.74-37.12-35.86v36.09l37.12-.23Z"/>
    <path class="cls-52" d="M391.14,335.64s6.54-29.74,37.12-35.86v36.09s-37.12-.23-37.12-.23Z"/>
    <path class="cls-52" d="M386.47,266.58s-6.2,17.84-28.01,27.51c0,0,26.02,11.15,28.01,28.75,0,0,8.43-21.07,28.5-28.01,0,0-19.83-10.16-28.5-28.25Z"/>
  </g>
  <g>
    <rect class="cls-36" x="237.7" y="243.63" width="103.08" height="102.45"/>
    <path class="cls-52" d="M283.93,254.04s-6.54,29.74-37.12,35.86v-36.09l37.12,.23Z"/>
    <path class="cls-52" d="M293.26,254.04s6.54,29.74,37.12,35.86v-36.09s-37.12,.23-37.12,.23Z"/>
    <path class="cls-52" d="M283.93,335.64s-6.54-29.74-37.12-35.86v36.09l37.12-.23Z"/>
    <path class="cls-52" d="M293.26,335.64s6.54-29.74,37.12-35.86v36.09s-37.12-.23-37.12-.23Z"/>
    <path class="cls-52" d="M288.59,266.58s-6.2,17.84-28.01,27.51c0,0,26.02,11.15,28.01,28.75,0,0,8.43-21.07,28.5-28.01,0,0-19.83-10.16-28.5-28.25Z"/>
  </g>
  <g>
    <rect class="cls-36" x="139.83" y="243.63" width="103.08" height="102.45"/>
    <path class="cls-52" d="M186.05,254.04s-6.54,29.74-37.12,35.86v-36.09l37.12,.23Z"/>
    <path class="cls-52" d="M195.38,254.04s6.54,29.74,37.12,35.86v-36.09s-37.12,.23-37.12,.23Z"/>
    <path class="cls-52" d="M186.05,335.64s-6.54-29.74-37.12-35.86v36.09l37.12-.23Z"/>
    <path class="cls-52" d="M195.38,335.64s6.54-29.74,37.12-35.86v36.09s-37.12-.23-37.12-.23Z"/>
    <path class="cls-52" d="M190.72,266.58s-6.2,17.84-28.01,27.51c0,0,26.02,11.15,28.01,28.75,0,0,8.43-21.07,28.5-28.01,0,0-19.83-10.16-28.5-28.25Z"/>
  </g>
  <g>
    <rect class="cls-36" x="44.15" y="243.63" width="103.08" height="102.45"/>
    <path class="cls-52" d="M90.37,254.04s-6.54,29.74-37.12,35.86v-36.09l37.12,.23Z"/>
    <path class="cls-52" d="M99.7,254.04s6.54,29.74,37.12,35.86v-36.09s-37.12,.23-37.12,.23Z"/>
    <path class="cls-52" d="M90.37,335.64s-6.54-29.74-37.12-35.86v36.09l37.12-.23Z"/>
    <path class="cls-52" d="M99.7,335.64s6.54-29.74,37.12-35.86v36.09s-37.12-.23-37.12-.23Z"/>
    <path class="cls-52" d="M95.04,266.58s-6.2,17.84-28.01,27.51c0,0,26.02,11.15,28.01,28.75,0,0,8.43-21.07,28.5-28.01,0,0-19.83-10.16-28.5-28.25Z"/>
  </g>
  <g>
    <rect class="cls-36" x="335.58" y="144.94" width="103.08" height="102.45"/>
    <path class="cls-52" d="M381.8,155.35s-6.54,29.74-37.12,35.86v-36.09l37.12,.23Z"/>
    <path class="cls-52" d="M391.14,155.35s6.54,29.74,37.12,35.86v-36.09s-37.12,.23-37.12,.23Z"/>
    <path class="cls-52" d="M381.8,236.95s-6.54-29.74-37.12-35.86v36.09l37.12-.23Z"/>
    <path class="cls-52" d="M391.14,236.95s6.54-29.74,37.12-35.86v36.09s-37.12-.23-37.12-.23Z"/>
    <path class="cls-52" d="M386.47,167.89s-6.2,17.84-28.01,27.51c0,0,26.02,11.15,28.01,28.75,0,0,8.43-21.07,28.5-28.01,0,0-19.83-10.16-28.5-28.25Z"/>
  </g>
  <g>
    <rect class="cls-36" x="237.7" y="144.94" width="103.08" height="102.45"/>
    <path class="cls-52" d="M283.93,155.35s-6.54,29.74-37.12,35.86v-36.09l37.12,.23Z"/>
    <path class="cls-52" d="M293.26,155.35s6.54,29.74,37.12,35.86v-36.09s-37.12,.23-37.12,.23Z"/>
    <path class="cls-52" d="M283.93,236.95s-6.54-29.74-37.12-35.86v36.09l37.12-.23Z"/>
    <path class="cls-52" d="M293.26,236.95s6.54-29.74,37.12-35.86v36.09s-37.12-.23-37.12-.23Z"/>
    <path class="cls-52" d="M288.59,167.89s-6.2,17.84-28.01,27.51c0,0,26.02,11.15,28.01,28.75,0,0,8.43-21.07,28.5-28.01,0,0-19.83-10.16-28.5-28.25Z"/>
  </g>
  <g>
    <rect class="cls-36" x="139.83" y="144.94" width="103.08" height="102.45"/>
    <path class="cls-52" d="M186.05,155.35s-6.54,29.74-37.12,35.86v-36.09l37.12,.23Z"/>
    <path class="cls-52" d="M195.38,155.35s6.54,29.74,37.12,35.86v-36.09s-37.12,.23-37.12,.23Z"/>
    <path class="cls-52" d="M186.05,236.95s-6.54-29.74-37.12-35.86v36.09l37.12-.23Z"/>
    <path class="cls-52" d="M195.38,236.95s6.54-29.74,37.12-35.86v36.09s-37.12-.23-37.12-.23Z"/>
    <path class="cls-52" d="M190.72,167.89s-6.2,17.84-28.01,27.51c0,0,26.02,11.15,28.01,28.75,0,0,8.43-21.07,28.5-28.01,0,0-19.83-10.16-28.5-28.25Z"/>
  </g>
  <g>
    <rect class="cls-36" x="44.15" y="144.94" width="103.08" height="102.45"/>
    <path class="cls-52" d="M90.37,155.35s-6.54,29.74-37.12,35.86v-36.09l37.12,.23Z"/>
    <path class="cls-52" d="M99.7,155.35s6.54,29.74,37.12,35.86v-36.09s-37.12,.23-37.12,.23Z"/>
    <path class="cls-52" d="M90.37,236.95s-6.54-29.74-37.12-35.86v36.09l37.12-.23Z"/>
    <path class="cls-52" d="M99.7,236.95s6.54-29.74,37.12-35.86v36.09s-37.12-.23-37.12-.23Z"/>
    <path class="cls-52" d="M95.04,167.89s-6.2,17.84-28.01,27.51c0,0,26.02,11.15,28.01,28.75,0,0,8.43-21.07,28.5-28.01,0,0-19.83-10.16-28.5-28.25Z"/>
  </g>
  <g>
    <rect class="cls-36" x="335.58" y="47.18" width="103.08" height="102.45"/>
    <path class="cls-52" d="M381.8,57.59s-6.54,29.74-37.12,35.86V57.36l37.12,.23Z"/>
    <path class="cls-52" d="M391.14,57.59s6.54,29.74,37.12,35.86V57.36s-37.12,.23-37.12,.23Z"/>
    <path class="cls-52" d="M381.8,139.19s-6.54-29.74-37.12-35.86v36.09l37.12-.23Z"/>
    <path class="cls-52" d="M391.14,139.19s6.54-29.74,37.12-35.86v36.09s-37.12-.23-37.12-.23Z"/>
    <path class="cls-52" d="M386.47,70.13s-6.2,17.84-28.01,27.51c0,0,26.02,11.15,28.01,28.75,0,0,8.43-21.07,28.5-28.01,0,0-19.83-10.16-28.5-28.25Z"/>
  </g>
  <g>
    <rect class="cls-36" x="237.7" y="47.18" width="103.08" height="102.45"/>
    <path class="cls-52" d="M283.93,57.59s-6.54,29.74-37.12,35.86V57.36l37.12,.23Z"/>
    <path class="cls-52" d="M293.26,57.59s6.54,29.74,37.12,35.86V57.36s-37.12,.23-37.12,.23Z"/>
    <path class="cls-52" d="M283.93,139.19s-6.54-29.74-37.12-35.86v36.09l37.12-.23Z"/>
    <path class="cls-52" d="M293.26,139.19s6.54-29.74,37.12-35.86v36.09s-37.12-.23-37.12-.23Z"/>
    <path class="cls-52" d="M288.59,70.13s-6.2,17.84-28.01,27.51c0,0,26.02,11.15,28.01,28.75,0,0,8.43-21.07,28.5-28.01,0,0-19.83-10.16-28.5-28.25Z"/>
  </g>
  <g>
    <rect class="cls-36" x="139.83" y="47.18" width="103.08" height="102.45"/>
    <path class="cls-52" d="M186.05,57.59s-6.54,29.74-37.12,35.86V57.36l37.12,.23Z"/>
    <path class="cls-52" d="M195.38,57.59s6.54,29.74,37.12,35.86V57.36s-37.12,.23-37.12,.23Z"/>
    <path class="cls-52" d="M186.05,139.19s-6.54-29.74-37.12-35.86v36.09l37.12-.23Z"/>
    <path class="cls-52" d="M195.38,139.19s6.54-29.74,37.12-35.86v36.09s-37.12-.23-37.12-.23Z"/>
    <path class="cls-52" d="M190.72,70.13s-6.2,17.84-28.01,27.51c0,0,26.02,11.15,28.01,28.75,0,0,8.43-21.07,28.5-28.01,0,0-19.83-10.16-28.5-28.25Z"/>
  </g>
  <g>
    <rect class="cls-36" x="44.15" y="47.18" width="103.08" height="102.45"/>
    <path class="cls-52" d="M90.37,57.59s-6.54,29.74-37.12,35.86V57.36l37.12,.23Z"/>
    <path class="cls-52" d="M99.7,57.59s6.54,29.74,37.12,35.86V57.36s-37.12,.23-37.12,.23Z"/>
    <path class="cls-52" d="M90.37,139.19s-6.54-29.74-37.12-35.86v36.09l37.12-.23Z"/>
    <path class="cls-52" d="M99.7,139.19s6.54-29.74,37.12-35.86v36.09s-37.12-.23-37.12-.23Z"/>
    <path class="cls-52" d="M95.04,70.13s-6.2,17.84-28.01,27.51c0,0,26.02,11.15,28.01,28.75,0,0,8.43-21.07,28.5-28.01,0,0-19.83-10.16-28.5-28.25Z"/>
  </g>
  <g>
    <path class="cls-25" d="M808.42,466.15v-103.05s1.66-34.09,45.41-34.09h377.18s29.9,2.2,26.91,33.76v233.88h-433.74l-15.76-130.5Z"/>
    <rect class="cls-43" x="763.1" y="702.93" width="543.7" height="66.33"/>
    <rect class="cls-31" x="786.06" y="768.45" width="45.1" height="38.54"/>
    <rect class="cls-31" x="1249.81" y="768.45" width="45.1" height="38.54"/>
    <path class="cls-43" d="M808.42,466.15h38.34s20.46,6.25,20.46,28.39v100.87h-65.61s6.8-129.26,6.8-129.26Z"/>
    <path class="cls-43" d="M1258.18,466.15h-38.34s-20.46,6.25-20.46,28.39v100.87h65.61l-6.8-129.26Z"/>
    <rect class="cls-22" x="759.84" y="466.15" width="77.39" height="150.65" rx="7.12" ry="7.12"/>
    <rect class="cls-22" x="1225.64" y="466.15" width="77.39" height="150.65" rx="7.12" ry="7.12"/>
    <rect class="cls-22" x="743.85" y="593.33" width="578.46" height="109.6" rx="4.21" ry="4.21"/>
  </g>
  <rect class="cls-19" x="1.51" y="805.75" width="1334.71" height="196.44"/>
  <g>
    <rect class="cls-41" x="582.44" y="91.63" width="108.55" height="126.22"/>
    <rect class="cls-24" x="591.84" y="99.97" width="91.72" height="109.98"/>
    <g>
      <path class="cls-23" d="M623.27,139.13s-13.79-23.13,.67-28.24c0,0,18.68-2,6.23,27.8l-2.22,4.23-4.67-3.78Z"/>
      <path class="cls-23" d="M627.64,139.13s9.31-25.26,22.38-17.24c0,0,13.3,13.26-17.69,22.32l-4.68,.93v-6.01Z"/>
      <path class="cls-23" d="M632.62,143.65s22.97-14.05,28.25,.35c0,0,2.21,18.66-27.72,6.54l-4.25-2.18,3.73-4.71Z"/>
      <path class="cls-23" d="M635.21,147.57s25.16,9.57,17.01,22.56c0,0-13.4,13.16-22.14-17.93l-.88-4.69,6.01,.07Z"/>
      <path class="cls-23" d="M627.75,152.63s17.3,20.63,3.84,27.99c0,0-18.12,4.95-10.58-26.45l1.52-4.53,5.21,2.99Z"/>
      <path class="cls-23" d="M627.35,156.13s-9.47,25.2-22.49,17.1c0,0-13.22-13.35,17.84-22.21l4.69-.9-.04,6.01Z"/>
      <path class="cls-23" d="M621.01,153.86s-24.39,11.41-28.03-3.48c0,0-.13-18.79,28.28-3.42l3.98,2.63-4.23,4.27Z"/>
      <path class="cls-23" d="M620.46,145.39s-26.35-5.51-20.33-19.61c0,0,11.17-15.1,24.67,14.24l1.6,4.5-5.94,.88Z"/>
      <circle class="cls-26" cx="627.26" cy="147.71" r="8.18"/>
    </g>
    <g>
      <path class="cls-28" d="M654.92,156.1s-10.51-17.63,.51-21.53c0,0,14.24-1.53,4.75,21.19l-1.7,3.22-3.56-2.88Z"/>
      <path class="cls-28" d="M658.24,156.1s7.1-19.26,17.06-13.14c0,0,10.14,10.11-13.49,17.02l-3.57,.71v-4.58Z"/>
      <path class="cls-28" d="M662.04,159.54s17.51-10.71,21.53,.27c0,0,1.69,14.22-21.13,4.98l-3.24-1.66,2.84-3.59Z"/>
      <path class="cls-28" d="M664.01,162.53s19.18,7.3,12.96,17.19c0,0-10.22,10.03-16.87-13.67l-.67-3.58,4.58,.05Z"/>
      <path class="cls-28" d="M658.33,166.39s13.19,15.73,2.93,21.33c0,0-13.81,3.78-8.06-20.16l1.16-3.45,3.97,2.28Z"/>
      <path class="cls-28" d="M658.03,169.06s-7.22,19.21-17.14,13.03c0,0-10.08-10.18,13.6-16.93l3.57-.68-.03,4.58Z"/>
      <path class="cls-28" d="M653.19,167.32s-18.59,8.7-21.37-2.66c0,0-.1-14.32,21.56-2.61l3.04,2.01-3.22,3.25Z"/>
      <path class="cls-28" d="M652.78,160.87s-20.09-4.2-15.5-14.95c0,0,8.52-11.51,18.81,10.85l1.22,3.43-4.53,.67Z"/>
      <circle class="cls-26" cx="657.95" cy="162.64" r="6.24"/>
    </g>
  </g>
  <path class="cls-34" d="M769.18,471.77s74.56-22.45,62.7,63.97c0,0,18.05,13.99,38.56,.13,20.51-13.87,37.6,4.27,37.6,4.27,0,0,15.95,6.4,23.93-1.07,0,0-8.78-47.16-67.47-88.48-45.59-32.09-95.32,21.18-95.32,21.18Z"/>
  <g>
    <path class="cls-21" d="M1229.72,323.22s-44.24-33-88.49,.75c-44.24,33.75-33,153.73-33,153.73,0,0,15.75,23.25,36,18.75l-2.25,21s8.25,12,36,6.75c27.75-5.25,21.75-15.75,42.75-15,0,0-24.75-126.74,9-185.98Z"/>
    <line class="cls-8" x1="1141.98" y1="517.45" x2="1156.99" y2="395.33"/>
  </g>
  <g>
    <polygon class="cls-33" points="787.72 954.07 805.3 954.07 814.34 757.97 775.78 757.97 787.72 954.07"/>
    <polygon class="cls-33" points="662.17 954.07 679.75 954.07 688.79 757.97 650.24 757.97 662.17 954.07"/>
    <polygon class="cls-33" points="699.02 879.18 716.6 879.18 725.64 683.09 687.09 683.09 699.02 879.18"/>
    <polygon class="cls-33" points="571.92 879.18 589.5 879.18 598.55 683.09 559.99 683.09 571.92 879.18"/>
    <polygon class="cls-37" points="558.6 680.99 720.8 680.99 815.81 759.55 646.94 759.55 558.6 680.99"/>
    <polygon class="cls-33" points="558.6 680.99 646.94 759.55 815.81 759.55 815.81 781.46 645.95 781.46 557.42 697.19 558.6 680.99"/>
    <polygon class="cls-37" points="800.54 484.66 704.89 439.88 704.89 681.91 800.54 758.89 800.54 484.66"/>
    <polygon class="cls-33" points="704.89 439.88 725.99 439.88 810.37 481.14 810.37 759.55 800.54 758.89 800.54 484.66 704.89 439.88"/>
    <line class="cls-9" x1="800.54" y1="758.89" x2="704.89" y2="681.91"/>
  </g>
  <g>
    <polygon class="cls-33" points="503.71 828.63 524.47 828.63 535.15 597.11 489.62 597.11 503.71 828.63"/>
    <polygon class="cls-28" points="518 517.56 589.05 568.83 0 568.83 0 517.56 518 517.56"/>
    <g>
      <g>
        <path class="cls-45" d="M569.29,943.06s-3.55-29.35-51.72-9.96c-34.33,13.82-71.42,10.38-67.47,21.78l13.36,18.04,44.18,2.4,44.48-14.08,17.18-18.18Z"/>
        <path class="cls-48" d="M569.29,943.06s-6.46,7.33-16.53,11.4c-9.88,3.99-34.36,10.02-34.36,10.02,0,0-45.33,25.08-68.85-11.09l1.28,8.32s11.2,29.6,71.8,13.47c0,0,35.45-11.87,45.49-18.45,0,0,2.27-3.99,1.17-13.68Z"/>
        <path class="cls-39" d="M511.56,880.7c.12,.42,.2,.85,.23,1.29l3.68,17.93s6.03,19.07-15.08,26.45c-.21,.07,.18-.14,0,0l-14.89,8.62c-.26,.19-.53,.37-.82,.52l-8.19,4.32c-.44,.23-.9,.41-1.38,.53l-15.37,3.86s-2.59,.48-5.64,2.66c-.81,.58-2.66,2.61,.29,3.17,0,0-2.36,3.31,1.53,5.49,0,0-1.82,5.74,4.92,3.61,0,0-1.49,3.3,.96,4.61,1.72,.93,3.15,2.34,3.54,4.26,.53,2.62,3.3,5.28,13.44,3.14,.47-.1,.97-.15,1.45-.14,3.83,.11,22.14,.26,30.06-6.29,0,0,14.01-11.15,30.49-11.53,11.67-.27,19.08-7.61,22.41-11.87,1.32-1.69,1.61-3.96,.84-5.97-2.22-5.78-8.83-20.35-9.73-34.59"/>
        <path class="cls-15" d="M465.76,964.22s.63-4.25,7.21-5.44"/>
        <path class="cls-15" d="M460.85,959.15s3.38-5.29,8.25-5.35"/>
        <path class="cls-15" d="M455.93,955.54s3.64-5.86,9.01-6.21"/>
        <path class="cls-15" d="M454.4,950.05s2.53-4.03,6.89-4.36"/>
        <path class="cls-48" d="M517.85,965.87s-5.51-28.27-26.97-33.97l-27.38,11.12s17.19,10.87,25.9,29.64c0,0,14.64,1.27,28.45-6.78Z"/>
        <path class="cls-27" d="M514.42,970.81s-10.6-32.4-30.63-37.36l-4.86,2.33s20.31,4.57,30.04,36.53l5.45-1.51Z"/>
        <path class="cls-27" d="M504.7,973.84s-9.95-31.13-29.97-36.1l-4.86,2.33s18.38,3.15,29.52,34.94l5.31-1.18Z"/>
      </g>
      <g>
        <path class="cls-45" d="M644.72,954.34s-4.01-33.23-58.55-11.27c-38.85,15.64-80.84,11.75-76.37,24.65l15.12,20.42,50.01,2.72,50.35-15.94,19.44-20.58Z"/>
        <path class="cls-48" d="M644.72,954.34s-7.31,8.3-18.71,12.91c-11.18,4.52-38.9,11.35-38.9,11.35,0,0-51.3,28.38-77.93-12.55l1.45,9.42s12.68,33.51,81.27,15.24c0,0,40.13-13.43,51.49-20.88,0,0,2.56-4.52,1.33-15.48Z"/>
        <path class="cls-39" d="M581.12,902.49s7.66,19.7-11.87,28.77l-16.29,11.19-10.27,6.44-18.2,6.05s-13.14-.93-15.05,2.97c-1.91,3.9-3.7,5.52,2.59,10.97,0,0,2.56,5.84,7.49,4.37,0,0,3.46,5.03,11.51,3.72,0,0,2.06,4.38,10.7,2.82,0,0,2.97,3.29,7.34,1.51,0,0,25.86,2.16,35.46-7.07,0,0,16.59-10,32.34-12.09,8.88-1.18,14.35-4.75,17.54-7.87,2.58-2.53,3.65-6.19,2.82-9.71-1.63-6.94-4.68-20.8-6.01-32.79"/>
        <path class="cls-15" d="M528.28,958.12l-9.32,4.09s-6.26,1.38-6.94,6.68"/>
        <path class="cls-15" d="M533.62,961.53s-15.58,5.68-14.59,9.64l.48,2.09"/>
        <path class="cls-15" d="M539.62,967.27s-8.92,3.15-8.6,9.71"/>
        <path class="cls-15" d="M545.04,974.34s-4.64,1.47-3.32,5.46"/>
        <path class="cls-48" d="M595.76,977.05s-9.13-34.92-33.42-41.38l-28.49,15.3s20.53,15.5,30.39,36.75c0,0,15.89-1.55,31.53-10.67Z"/>
        <path class="cls-27" d="M591.31,980.81s-12-36.67-34.67-42.29l-5.5,2.64s22.99,5.18,34,41.35l6.16-1.7Z"/>
        <path class="cls-27" d="M580.31,984.24s-10.31-34.7-32.98-40.32l-5.5,2.53s19.86,3.14,32.47,39.13l6.01-1.34Z"/>
      </g>
      <path class="cls-39" d="M551.85,520.64l-38.82,8.13s-2.25,12.97-29.12,5.77c-37.23-9.97-39.49,1.41-39.49,1.41-10.92,3.05-18.97,3.75-18.97,3.75-12.98,4.01-15.11,5.82-19.63,5.96s-2.9-6.1-2.9-6.1l-7.47,2.35c-7.18,.43-7.28-3.53-7.28-3.53-6.13,2.37-3.75-4.85-3.75-4.85-5.92,.63-1.32-6.4-1.32-6.4,7.51-8.57,27.8-7.72,27.8-7.72,4.32-2.47,32.95-2.78,32.95-2.78,16.73-3.11,67.38-2.31,67.38-2.31,10.37-6.82,22.29-14.83,22.29-14.83,0,0-5.05,3.6,18.34,21.16Z"/>
      <path class="cls-15" d="M384.4,534.43s.44-4.34,6.91-5.01c6.46-.67,16.63-2.48,16.63-2.48"/>
      <path class="cls-15" d="M388.14,538.36s.3-3.51,19.06-4.02"/>
      <path class="cls-15" d="M402.79,540.05s1.68-2.98,9.96-3.23"/>
      <path class="cls-39" d="M556.01,471.95s-41.03,26.48-51.61,32.76c-10.58,6.28-33.23,2.37-60.57,11.91,0,0-6.69,16.02,.58,19.33,0,0,41,16.53,82.43,6.93,0,0,47.4-12.9,69.21-32.07"/>
      <path class="cls-39" d="M668.66,392.39s.58,15.88,6.72,19.16c0,0,6.86,42.86-39.14,64.72,0,0-29.9,6.85-17.7-50.91l50.12-32.97Z"/>
      <path class="cls-44" d="M675.38,411.55s21.64,5.38,40.34,16.93c35.1,21.68,42.11,70.18,42.11,70.18,0,0,8.23,109.78,3.02,139.99,0,0-119.05,37.43-170.47-.24,0,0-2.82-101.9,.35-125.38,0,0-35.63-14.43-41.43-37.62,0,0,25.33-32.25,35.87-35.42,0,0,20.55-13.7,32.14-7.9,0,0-7.13,27.81,7.09,34.66,14.22,6.85,56.24-15.69,50.98-55.21Z"/>
      <path class="cls-30" d="M590.38,638.42s-92.72,20.2-106.91,65.92c0,0-11.83,93.82,19.71,201.83,0,0,36.73,18.57,59.59,5.16,0,0,2.06-28.91,.48-49.41,0,0,6.77,26.87,11.97,48.32,0,0,43.15,9.25,60.49-.21,0,0,16.9-100.33,.63-174.23,0,0,108.76,16.12,120.55-31.05,12.34-49.36,3.95-66.11,3.95-66.11,0,0-97.91,33.32-170.47-.24Z"/>
      <path class="cls-39" d="M591.08,310.35s-12.31,10.48-10.79,39.83c0,0,2.31,7.52,.54,15.84,0,0-5.14,14.88-.38,27.24,4.75,12.36,12.17,25.19,12.17,25.19,0,0,6.37,7.06,15.52,5.84,0,0,13.52,5.4,26-1.7,12.48-7.1,34.52-30.21,34.52-30.21,0,0,10.92,3.59,14.86-7.65,3.94-11.24,9.42-19.71,2.72-26.78-6.71-7.07-16.38,10.94-16.38,10.94,0,0-4.41-5.95-2.64-14.27,0,0,4.41-16.65-4.51-36.91,0,0-30.45-15.11-71.64-7.36Z"/>
      <path class="cls-35" d="M624.83,394.12s-7.8-2.85-17.37-.65c0,0-8.07-2.05-15.5-.79,0,0,.14,13.21,12.34,16.75s20.37-7.6,20.53-15.31Z"/>
      <path class="cls-29" d="M622.8,394.95s-.48,11.66-15.63,10.88c-13.76-.7-13.34-11.08-13.34-11.08,0,0,15.46,1.49,28.96,.2Z"/>
      <path class="cls-45" d="M621.42,348.59s15.65-3.95,28.9,2.56c0,0-6.11-11.11-29.07-7.32,0,0-3.9,2.82,.17,4.76Z"/>
      <path class="cls-45" d="M580.5,345.26c10.85-1.07,15.91,2.48,15.91,2.48,4.14-1.44,.64-4.52,.64-4.52-6.81-1.83-12.17-2.12-16.33-1.65,0,0-.81,3.75-.21,3.69Z"/>
      <path class="cls-27" d="M620.92,395.02s-4.03,5.2-15.72,4.04c0,0-7.25,0-10.08-4.01,0,0,15.09,1.1,25.81-.03Z"/>
      <path class="cls-55" d="M618.35,426.33c3.67,.27,12.54-1.6,14.69-3.23,0,0,8.45-3.75,18.62-14.04,0,0-11.99,20.26-33.92,20.05"/>
      <path class="cls-3" d="M597.92,370.63s-8.09,15.39,7.37,14.04"/>
      <path class="cls-3" d="M684.74,369.83s-6.13-10.66-11.87,9.03c0,0,6.09-9.27,8.54-2.58"/>
      <g>
        <path class="cls-27" d="M636.57,358.68s.04-.37-.21-.71c-.82-1.11-2.76-3.21-6.07-3.5-3.71-.33-6.06,2.97-6.87,4.15-.14,.2-.14,.39-.14,.39,0,0-.03,.21,.08,.36,.53,.74,2.33,2.83,5.84,3.2,2.09,.22,5.12-.65,7.19-3.32,.14-.19,.18-.44,.18-.57Z"/>
        <circle class="cls-55" cx="628.86" cy="358.66" r="3.85"/>
        <circle class="cls-27" cx="631.35" cy="358.1" r="1.06"/>
        <path class="cls-5" d="M623.19,358.62s5.3-8.45,13.31-.65"/>
      </g>
      <g>
        <path class="cls-27" d="M594.97,358.1s.09-.34-.1-.69c-.61-1.15-2.11-3.38-5.14-4.13-3.4-.84-6.06,1.9-6.98,2.88-.16,.17-.19,.34-.19,.34,0,0-.06,.19,.02,.35,.39,.76,1.77,2.97,4.97,3.81,1.91,.5,4.85,.13,7.16-2.06,.16-.15,.23-.38,.25-.51Z"/>
        <circle class="cls-55" cx="587.8" cy="356.97" r="3.61"/>
        <circle class="cls-27" cx="590.3" cy="356.88" r="1.01"/>
        <path class="cls-5" d="M582.66,356.27s5.99-7.65,12.28,1.31"/>
      </g>
      <path class="cls-12" d="M563.38,866.38s-16.69-123.8-12.58-151.52,50.87-39.38,50.87-39.38"/>
      <path class="cls-51" d="M503.18,906.17l1.11,16.16s36.19,10.13,60.32,1.4l-1.38-14.92s-44.76,6.43-60.05-2.64Z"/>
      <path class="cls-51" d="M575.22,910.25l.66,12.77s41.98,9.41,60.98-1.37l-1.15-11.61s-24.4,9.38-60.49,.21Z"/>
      <path class="cls-39" d="M565.91,575.06c-38.85-12.95-47.33-14.52-47.33-14.52-11.78,2.54-23.96-1.57-23.96-1.57-14.03,3.43-19.38,3.37-24.19,3.22-4.81-.14-1.7-3.82-1.7-3.82l-10.05,1.56c-7.64,0-3.82-4.67-3.82-4.67-6.65,2.12-7.21-1.63-7.21-1.63-6.32,.29-6.05-4.59-6.05-4.59,8.52-8.61,36.13-9.63,36.13-9.63,14.04-1.76,35.82-1.83,35.82-1.83,17.95-2.24,71.69,.92,71.69,.92"/>
      <path class="cls-15" d="M447.64,553.64s.75-4.58,7.65-4.88,17.8-1.57,17.8-1.57"/>
      <path class="cls-15" d="M454.86,555.26s.55-3.7,20.47-3.05"/>
      <path class="cls-15" d="M468.57,558.89s1.97-3.05,10.77-2.79"/>
      <path class="cls-15" d="M448.62,544.78s19.94-6.25,48.85-6.76c28.9-.51,26.91-1.91,49.56-.39"/>
      <path class="cls-39" d="M718.43,523.47l-53.81,48.12s-12.18,9.56-37.62,9.98c-30.79,.51-40.26-.22-61.09-6.51l19.33-36.55c26.96-5.68,34.09-8.77,34.09-8.77,10.48-13.1,56.15-48.15,56.15-48.15"/>
      <path class="cls-11" d="M712.64,439.47s-26.87,1.05-36.35,31.61l-15.15,20.68s27.03,28.36,44.84,44.19c2.92,2.6,34.48-34.16,34.48-34.16"/>
      <g>
        <rect class="cls-50" x="220.38" y="547.51" width="138.03" height="16.77" transform="translate(578.78 1111.79) rotate(-180)"/>
        <polygon class="cls-50" points="418.29 532.24 358.41 547.51 220.38 547.51 285.35 531.04 418.29 532.24"/>
        <polygon class="cls-50" points="414.72 543.54 358.45 561.07 358.41 564.28 414.72 546.07 414.72 543.54"/>
        <polygon class="cls-27" points="414.72 533.37 358.41 547.51 358.41 562.03 414.72 543.83 414.72 533.37"/>
        <line class="cls-10" x1="358.41" y1="547.51" x2="220.38" y2="547.51"/>
        <polygon class="cls-10" points="342.4 534.35 308.99 534.35 281.05 543.12 316.38 543.12 342.4 534.35"/>
      </g>
      <g>
        <path class="cls-26" d="M292.16,540.55l96.01,2.11,8.98-2.51-10.12-4.03-94.65-2.39s-3.8,2.21-.23,6.82Z"/>
        <polyline class="cls-42" points="388.17 542.66 387.04 536.13 397.16 540.15 388.17 542.66"/>
        <path class="cls-40" d="M298.78,539.32s-2.13-3.46-.45-5.21l-6.21,.25s-3.43,1.99,.26,5.58l6.4-.63Z"/>
      </g>
      <path class="cls-45" d="M585.07,306.97c-4.73,21.47-4,35.57-4,35.57,5.55-28.45,10.51-26.66,10.51-26.66,25.7-14.1,66.08,6.5,66.08,6.5,7.82,19.73,11.1,50.92,11.1,50.92,11.86-20.37,20.17-12.29,20.17-12.29,15.98-53.42-21.65-60.77-21.65-60.77,0,0-12.66-16.6-27.83-11.26,0,0-6.7-9.54-20.02-3.35,0,0-13.33-6.92-20.55,4,0,0-8.94-4.73-13.81,17.35Z"/>
    </g>
    <polygon class="cls-33" points="546.22 997.71 566.97 997.71 577.65 691.01 532.13 691.01 546.22 997.71"/>
    <path class="cls-20" d="M589.05,568.83l32.02,129.77s-28.83,14.41-63.26-4c0,0-10.41,16.02-35.24,2.4,0,0-8.81,7.21-47.25-.8,0,0-27.23-3.2-40.04,1.6,0,0-12.01,9.61-31.23-.8,0,0-16.82,8.01-32.03,0,0,0-20.02,4-44.04-3.2-24.02-7.21-61.66,12.81-61.66,12.81,0,0-6.41-12.01-28.03-8.81,0,0-19.22,11.21-34.43,1.6,0,0-21.62-7.21-70.47-.8,0,0-11.21,8.81-21.62,0,0,0-85.74,8.32-109.77-2.1l-1.99-127.67"/>
    <line class="cls-2" x1="557.8" y1="694.59" x2="551.74" y2="599.46"/>
    <line class="cls-2" x1="522.57" y1="696.99" x2="530.2" y2="624.44"/>
    <line class="cls-2" x1="372.02" y1="696.99" x2="380.38" y2="595.4"/>
    <path class="cls-2" d="M238.28,697.79s-14.98-62.79-18.94-103.71"/>
    <path class="cls-2" d="M266.31,706.6s14.41-42.56,11.11-100.64"/>
    <line class="cls-2" x1="133.38" y1="698.59" x2="127.6" y2="621.14"/>
    <line class="cls-2" x1="404.05" y1="696.99" x2="400.92" y2="638.62"/>
    <line class="cls-2" x1="435.28" y1="697.79" x2="431.56" y2="619.84"/>
    <line class="cls-2" x1="111.76" y1="698.59" x2="117.64" y2="643.39"/>
  </g>
  <path class="cls-53" d="M1076.53,577.83s84.05-6.47,101.5,3.23c17.46,9.7,25.21,12.93,29.74,48.49,4.53,35.56-3.23,56.89,12.28,93.1,15.52,36.21,10.99,67.24,10.99,67.24,0,0-10.99,23.27,31.68,22.63s49.78,13.58,49.78,13.58c0,0,.41,8.07,17.15,16.93,0,0-43.01,.53-99.26,1.17s-120.25-3.23-122.84-62.07c0,0,.97-45.27,9.37-90.89,2.89-15.7-8.26-45.86-14.87-64.86-4.38-12.59-14.46-30.98-14.46-30.98l-30.47-.76s5.82-14.22,19.4-16.81Z"/>
  <path class="cls-1" d="M1126.92,592.37s33,39.48,12.37,116.08c0,0-8.25,18.27-5.89,43.02"/>
  <path class="cls-1" d="M1129.87,792.72s21.21,4.12,24.75-53.03c0,0,0-32.41,5.89-41.84"/>
  <path class="cls-1" d="M1144.6,587.06s34.77,11.79,38.89,68.94"/>
  <path class="cls-1" d="M1185.85,732.02s0,43.02,21.8,57.75"/>
  <path class="cls-1" d="M1162.28,809.22s21.21,.59,28.28-1.18,17.09-2.95,24.75,1.18c7.66,4.12,12.96,1.18,12.96,1.18"/>
  <polygon class="cls-27" points="1131.91 936.66 1286.53 944.43 1305.96 925.43 1153.07 915.93 1131.91 936.66"/>
  <g>
    <rect class="cls-47" x="1078.14" y="912.44" width="138.03" height="16.77" transform="translate(2294.31 1841.64) rotate(-180)"/>
    <polygon class="cls-47" points="1276.06 897.17 1216.17 912.44 1078.14 912.44 1143.11 895.97 1276.06 897.17"/>
    <polygon class="cls-47" points="1272.48 908.47 1216.21 925.99 1216.17 929.2 1272.48 911 1272.48 908.47"/>
    <polygon class="cls-27" points="1272.48 898.29 1216.17 912.44 1216.17 926.96 1272.48 908.75 1272.48 898.29"/>
    <line class="cls-10" x1="1216.17" y1="912.44" x2="1078.14" y2="912.44"/>
    <polygon class="cls-10" points="1200.17 899.28 1166.75 899.28 1138.81 908.04 1174.14 908.04 1200.17 899.28"/>
  </g>
  <g>
    <rect class="cls-50" x="1071.65" y="895.62" width="138.03" height="16.77" transform="translate(2281.33 1808) rotate(-180)"/>
    <polygon class="cls-50" points="1269.57 880.35 1209.68 895.62 1071.65 895.62 1136.62 879.15 1269.57 880.35"/>
    <polygon class="cls-50" points="1265.99 891.65 1209.72 909.17 1209.68 912.38 1265.99 894.18 1265.99 891.65"/>
    <polygon class="cls-27" points="1265.99 881.47 1209.68 895.62 1209.68 910.14 1265.99 891.93 1265.99 881.47"/>
    <line class="cls-10" x1="1209.68" y1="895.62" x2="1071.65" y2="895.62"/>
    <polygon class="cls-10" points="1193.68 882.46 1160.26 882.46 1132.32 891.22 1167.66 891.22 1193.68 882.46"/>
  </g>
  <g>
    <path class="cls-33" d="M178.45,930.44s-10.99,17.09-5.49,28.69c0,0,5.49,17.71,46.4,12.21,0,0,54.03,21.28,66.85-9.25,0,0-.91-18.22-45.48-23.72,0,0,5.49,14.65-14.04,14.04,0,0-37.85-.61-48.23-21.98Z"/>
    <path class="cls-39" d="M178.45,930.44s1.75-10.47,4.95-15.03c0,0-5.93-43.77-1.37-64.75,0,0,28.27,6.38,47.88,5.47,0,0-6.84,42.86-9.58,64.29,0,0-1.37,11.86,6.84,13.22l13.55,4.72s7.15,24.46-27.99,13.41c-35.14-11.04-34.29-21.35-34.29-21.35Z"/>
    <path class="cls-39" d="M155.3,227.01s-3,39.15-15.56,44.1c0,0,12.38,63.18,66.7,76.2,0,0,34.94-27.64,20.01-66.39,0,0-7.67-6.2-8.47-14.46,0,0-45.95-11.98-62.68-39.45Z"/>
    <path class="cls-46" d="M59.58,553.18s-9.88,143.32,2.91,287.64c0,0,118.02,46.21,219.68,.71,0,0,8.64-159.66,.07-249.19,0,0-71.78-129.69-222.66-39.16Z"/>
    <path class="cls-39" d="M152,194.75s-3.07-30.91,14.02-47.7c10.44-10.25,32.89-10.09,55.05-9.42,0,0,46.79,5.6,29.64,63.31,0,0-3.09,5.63-2.03,10.63,0,0,2.43,9.59-5,27.98-9.9,24.51-22.63,24.21-22.63,24.21,0,0-1.97,7.05-16.42,5.66,0,0-12.97,1.16-25.01-8.28,0,0-31.98-19.89-28.31-38.32,0,0-14.3,6.57-18.3-16.13,0,0-3.62-39.12,18.99-11.94Z"/>
    <path class="cls-40" d="M211.07,184.22s-16.69-3.53-25.33,4.36c0,0,1.09-12.02,25.25-9.32,0,0,4.52,2.63,.08,4.97Z"/>
    <path class="cls-3" d="M225.92,213.61s7.79,15.05-8.78,14.81"/>
    <path class="cls-3" d="M135.51,198.19s6.42-12.49,14.04,9.67c0,0-7.45-10.25-9.88-2.48"/>
    <path class="cls-3" d="M179.43,190.87l4.84,16.97s9.2,6.24,22.59,4.28l8.59-14.97s-16.83-10.4-36.01-6.27Z"/>
    <path class="cls-33" d="M110.65,940.91s-11.84,18.42-5.92,30.92c0,0,5.92,19.08,50.01,13.16,0,0,58.22,22.93,72.04-9.97,0,0-.98-19.64-49.01-25.56,0,0,5.92,15.79-15.13,15.13,0,0-40.79-.66-51.98-23.69Z"/>
    <path class="cls-55" d="M217.62,267.32s-7.83,3.15-13.48,1.92c0,0-20.24,1.16-38.39-18.74,0,0,4.99,7.27,16.37,14.86,0,0,13.35,9.2,36.81,5.72,0,0-.2-1.39-1.31-3.75Z"/>
    <path class="cls-40" d="M181.17,147.93s31.32,16.23,51.04,2.43c0,0,6.05,11.69,22.03,26.84,0,0,2.11,8.85-6.62,28.35,0,0,4.66,16.45-6.47,36.58,0,0-9.16,17.92-20.11,21.63,0,0-1.69,2.21-3.43,3.56,0,0,4.3,6.64,9.48,6.58,0,0-3.13-6.81-.19-8.13,0,0,34.84-6.94,34.39-77.22,0,0,26.01-30.37-1.13-52.87-12.26-10.17-22.36-37.92-56.04-24.77,0,0-42.23-23.88-58.07,18.15,0,0-48.79,9.99-23.93,71.59,0,0-9.48,19.38,8.26,36.07,2.05,1.93,12.05,4.97,7.57,16.61-1.21,3.14,12.51-1.43,16.62-16.8,0,0-4.47-4.11-3.27-13.72,0,0-15.47,3.81-17.15-13.32,0,0-4.21-18.95,2.57-21.64,0,0,7.58-2.7,14.72,6.82,0,0,29.42-2.01,29.73-46.75Z"/>
    <path class="cls-40" d="M251.36,192.25c.07-1.19-9.43-6.09-19.11-8.54,0,0-5.23,.89-1.85,4.69,0,0,18.61,2.16,18.62,8.52,0,0,2.17-1.72,2.34-4.67Z"/>
    <path class="cls-3" d="M221.38,196.96l4.84,16.97s8.16,4.76,21.56,2.8l7.29-16.75s-14.5-7.14-33.68-3.02Z"/>
    <path class="cls-3" d="M221.38,196.96s-3.19-3.73-5.94,.18"/>
    <line class="cls-3" x1="179.43" y1="190.87" x2="142.33" y2="186.44"/>
    <path class="cls-14" d="M190.52,167.93s14.47,2.47,21.28,4.45c6.8,1.98,27.09-2.11,27.09-2.11"/>
    <g>
      <circle class="cls-16" cx="84.3" cy="778.53" r="5.05"/>
      <circle class="cls-16" cx="80.74" cy="796.99" r="5.05"/>
      <circle class="cls-16" cx="88.63" cy="788.77" r="5.05"/>
      <circle class="cls-16" cx="70.69" cy="791.44" r="5.05"/>
      <circle class="cls-16" cx="73.84" cy="781.21" r="5.05"/>
    </g>
    <g>
      <circle class="cls-16" cx="116.84" cy="736.41" r="5.05"/>
      <circle class="cls-16" cx="113.28" cy="754.87" r="5.05"/>
      <circle class="cls-16" cx="121.16" cy="746.65" r="5.05"/>
      <circle class="cls-16" cx="103.23" cy="749.32" r="5.05"/>
      <circle class="cls-16" cx="106.38" cy="739.09" r="5.05"/>
    </g>
    <g>
      <circle class="cls-16" cx="84.77" cy="695.76" r="5.05"/>
      <circle class="cls-16" cx="81.21" cy="714.22" r="5.05"/>
      <circle class="cls-16" cx="89.1" cy="706" r="5.05"/>
      <circle class="cls-16" cx="71.16" cy="708.67" r="5.05"/>
      <circle class="cls-16" cx="74.31" cy="698.44" r="5.05"/>
    </g>
    <g>
      <circle class="cls-16" cx="145.74" cy="685.83" r="5.05"/>
      <circle class="cls-16" cx="142.18" cy="704.29" r="5.05"/>
      <circle class="cls-16" cx="150.07" cy="696.07" r="5.05"/>
      <circle class="cls-16" cx="132.13" cy="698.74" r="5.05"/>
      <circle class="cls-16" cx="135.29" cy="688.51" r="5.05"/>
    </g>
    <g>
      <circle class="cls-16" cx="271.3" cy="770.29" r="5.05"/>
      <circle class="cls-16" cx="267.74" cy="788.75" r="5.05"/>
      <circle class="cls-16" cx="275.63" cy="780.53" r="5.05"/>
      <circle class="cls-16" cx="257.69" cy="783.2" r="5.05"/>
      <circle class="cls-16" cx="260.85" cy="772.97" r="5.05"/>
    </g>
    <g>
      <circle class="cls-16" cx="237.88" cy="817.26" r="5.05"/>
      <circle class="cls-16" cx="234.32" cy="835.72" r="5.05"/>
      <circle class="cls-16" cx="242.21" cy="827.5" r="5.05"/>
      <circle class="cls-16" cx="224.27" cy="830.17" r="5.05"/>
      <circle class="cls-16" cx="227.43" cy="819.94" r="5.05"/>
    </g>
    <g>
      <circle class="cls-16" cx="172.39" cy="828.55" r="5.05"/>
      <circle class="cls-16" cx="168.83" cy="847.01" r="5.05"/>
      <circle class="cls-16" cx="176.72" cy="838.79" r="5.05"/>
      <circle class="cls-16" cx="158.78" cy="841.46" r="5.05"/>
      <circle class="cls-16" cx="161.93" cy="831.23" r="5.05"/>
    </g>
    <g>
      <circle class="cls-16" cx="131.29" cy="804.16" r="5.05"/>
      <circle class="cls-16" cx="127.73" cy="822.62" r="5.05"/>
      <circle class="cls-16" cx="135.62" cy="814.4" r="5.05"/>
      <circle class="cls-16" cx="117.68" cy="817.07" r="5.05"/>
      <circle class="cls-16" cx="120.83" cy="806.84" r="5.05"/>
    </g>
    <g>
      <circle class="cls-16" cx="183.23" cy="754.93" r="5.05"/>
      <circle class="cls-16" cx="179.67" cy="773.39" r="5.05"/>
      <circle class="cls-16" cx="187.56" cy="765.17" r="5.05"/>
      <circle class="cls-16" cx="169.62" cy="767.84" r="5.05"/>
      <circle class="cls-16" cx="172.77" cy="757.61" r="5.05"/>
    </g>
    <g>
      <circle class="cls-16" cx="235.17" cy="740.93" r="5.05"/>
      <circle class="cls-16" cx="231.61" cy="759.39" r="5.05"/>
      <circle class="cls-16" cx="239.5" cy="751.17" r="5.05"/>
      <circle class="cls-16" cx="221.56" cy="753.84" r="5.05"/>
      <circle class="cls-16" cx="224.72" cy="743.61" r="5.05"/>
    </g>
    <g>
      <circle class="cls-16" cx="208.97" cy="696.22" r="5.05"/>
      <circle class="cls-16" cx="205.41" cy="714.68" r="5.05"/>
      <circle class="cls-16" cx="213.3" cy="706.45" r="5.05"/>
      <circle class="cls-16" cx="195.37" cy="709.13" r="5.05"/>
      <circle class="cls-16" cx="198.52" cy="698.9" r="5.05"/>
    </g>
    <g>
      <circle class="cls-16" cx="269.41" cy="678.24" r="5.05"/>
      <circle class="cls-16" cx="265.85" cy="696.69" r="5.05"/>
      <circle class="cls-16" cx="273.74" cy="688.47" r="5.05"/>
      <circle class="cls-16" cx="255.8" cy="691.14" r="5.05"/>
      <circle class="cls-16" cx="258.96" cy="680.91" r="5.05"/>
    </g>
    <g>
      <circle class="cls-16" cx="271.22" cy="629" r="5.05"/>
      <circle class="cls-16" cx="267.66" cy="647.46" r="5.05"/>
      <circle class="cls-16" cx="275.55" cy="639.24" r="5.05"/>
      <circle class="cls-16" cx="257.61" cy="641.91" r="5.05"/>
      <circle class="cls-16" cx="260.76" cy="631.68" r="5.05"/>
    </g>
    <g>
      <circle class="cls-16" cx="217.02" cy="627.65" r="5.05"/>
      <circle class="cls-16" cx="213.46" cy="646.11" r="5.05"/>
      <circle class="cls-16" cx="221.35" cy="637.89" r="5.05"/>
      <circle class="cls-16" cx="203.41" cy="640.56" r="5.05"/>
      <circle class="cls-16" cx="206.56" cy="630.33" r="5.05"/>
    </g>
    <g>
      <circle class="cls-16" cx="184.05" cy="657.91" r="5.05"/>
      <circle class="cls-16" cx="180.49" cy="676.37" r="5.05"/>
      <circle class="cls-16" cx="188.38" cy="668.15" r="5.05"/>
      <circle class="cls-16" cx="170.44" cy="670.82" r="5.05"/>
      <circle class="cls-16" cx="173.59" cy="660.59" r="5.05"/>
    </g>
    <g>
      <circle class="cls-16" cx="144.75" cy="628.55" r="5.05"/>
      <circle class="cls-16" cx="141.19" cy="647.01" r="5.05"/>
      <circle class="cls-16" cx="149.08" cy="638.79" r="5.05"/>
      <circle class="cls-16" cx="131.14" cy="641.46" r="5.05"/>
      <circle class="cls-16" cx="134.3" cy="631.23" r="5.05"/>
    </g>
    <g>
      <circle class="cls-16" cx="95.11" cy="645.59" r="5.05"/>
      <circle class="cls-16" cx="91.55" cy="664.05" r="5.05"/>
      <circle class="cls-16" cx="99.44" cy="655.83" r="5.05"/>
      <circle class="cls-16" cx="81.51" cy="658.5" r="5.05"/>
      <circle class="cls-16" cx="84.66" cy="648.27" r="5.05"/>
    </g>
    <g>
      <circle class="cls-16" cx="82.91" cy="607.52" r="5.05"/>
      <circle class="cls-16" cx="79.35" cy="625.98" r="5.05"/>
      <circle class="cls-16" cx="87.24" cy="617.76" r="5.05"/>
      <circle class="cls-16" cx="69.3" cy="620.43" r="5.05"/>
      <circle class="cls-16" cx="72.46" cy="610.2" r="5.05"/>
    </g>
    <path class="cls-39" d="M110.65,940.91s1.89-11.28,5.33-16.19c0,0-6.39-47.17-1.47-69.78,0,0,30.47,6.88,51.6,5.9,0,0-7.37,46.19-10.32,69.29,0,0-1.47,12.78,7.37,14.25l14.61,5.09s7.71,26.36-30.16,14.45c-37.87-11.9-36.95-23.01-36.95-23.01Z"/>
    <g>
      <path class="cls-27" d="M187.8,196.25s.03-.4,.35-.71c1.07-1.03,3.49-2.93,7.06-2.67,4,.29,5.92,4.21,6.57,5.6,.11,.24,.09,.44,.09,.44,0,0,0,.22-.15,.37-.69,.69-2.97,2.6-6.76,2.38-2.25-.13-5.33-1.58-7.06-4.78-.12-.22-.11-.49-.09-.64Z"/>
      <circle class="cls-55" cx="195.99" cy="197.56" r="4.14"/>
      <circle class="cls-27" cx="193.53" cy="195.66" r="1.14"/>
      <path class="cls-5" d="M202.02,198.5s-4.16-9.9-14.03-3"/>
    </g>
    <g>
      <path class="cls-27" d="M232.48,203.26s-.03-.38,.22-.71c.84-1.11,2.82-3.23,6.18-3.49,3.76-.3,6.11,3.07,6.91,4.27,.14,.21,.14,.4,.14,.4,0,0,.03,.21-.09,.36-.54,.74-2.39,2.85-5.94,3.18-2.11,.2-5.18-.7-7.25-3.43-.14-.19-.17-.44-.18-.58Z"/>
      <circle class="cls-55" cx="240.29" cy="203.3" r="3.88"/>
      <circle class="cls-27" cx="237.78" cy="201.67" r="1.09"/>
      <path class="cls-5" d="M245.87,203.45s-5.04-9.17-13.27-.74"/>
    </g>
    <path class="cls-39" d="M319.7,392.88l8.74,15.3c10.93,2.62,73.92,34.83,73.92,34.83l5.5,2.6,18.23-8.97,18.52-.29,5.5,2.31,26.9,2.89s3.59,5.05-2.76,5.49-10.49,1.92-10.49,1.92l14.19,1.77s3.99,5.02-3.99,5.17-28.96-1.03-28.96-1.03l-.15,2.07,23.05,.89s6.35,4.43-2.07,6.65-24.83-.59-24.83-.59l-.74,3.25,14.19,5.91s3.25,3.69-3.1,4.29-16.99-3.84-16.99-3.84l-27.78,.44-9.75-4.14s-69.24-7-92.84-16.61c-23.6-9.62-26.22-17.05-26.22-17.05"/>
    <path class="cls-6" d="M421.63,459.76s12.27-3.4,16.11-12.41l5.17,.44s13.6,6.95,17.59-.89l-10.4-8.24"/>
    <path class="cls-32" d="M196.04,233.68s13.39-4.49,19.38,.07c0,0,3.69-3.79,14.72,.3,0,0,1.17,15.95-15.27,15.89-18.77-.07-18.83-16.26-18.83-16.26Z"/>
    <path class="cls-29" d="M198.61,235.4s1.8,10.43,14.8,10.6c13,.17,14.39-10.37,14.39-10.37,0,0-21.21-2.16-29.19-.23Z"/>
    <path class="cls-27" d="M201.8,234.9s3.04,3.17,13.03,3.41c9.2,.22,11.87-2.82,11.87-2.82,0,0-13.53-1.78-24.9-.59Z"/>
    <path class="cls-39" d="M103.69,414.95l-5.56,42.58-4.09,123.97c10.36,9.68,11.05,27.43,11.05,27.43-1.38,10-1.04,23.88-1.04,23.88,0,0,3.45,15.81-4.84,17.43-8.29,1.61-9.32-13.88-8.98-23.56,.35-9.68-5.87-4.84-5.87-4.84-8.29,15.49,5.53,29.04,5.53,29.04,11.74,10.65,3.45,15.49,3.45,15.49-27.28-11.29-34.54-37.11-34.54-37.11-9.32-11.62-1.38-31.95-1.38-31.95,5.53-9.36,2.35-26.47,2.35-26.47l-14.3-87.75c-13.06-38.93,12.94-120.4,12.94-120.4,0,0,9.6-38.6,30.9-52.26,21.3-13.67,32.76-14.43,32.76-14.43,0,0,12.51,79.14-15.19,98.55l-3.2,20.41Z"/>
    <path class="cls-18" d="M141.1,269.17s9.5,50.83,51.02,50.12c29.44-.5,32.59-11.01,33.73-38.83,0,0,36,9.09,51.38,25.5,15.38,16.41,31.68,55.94,47.36,89.47,0,0-16.6,74.59-49.41,95.1,0,0,7.31,73.85,6.22,99.99,0,0-12.37,22.03-67.74,22.03l-12.3-82.03,1.03,81.01s-52.14,9.05-98.44-13.33c0,0-2.97-10.9-9.12-16.7-1.78-1.67,4.46-91.47,1.2-102.08,0,0-39.14-8.2-68.88-29.73,0,0,2.44-174.25,113.96-180.52Z"/>
    <path class="cls-16" d="M96.01,479.43s17.07-50.45,9.46-99.64"/>
    <path class="cls-16" d="M275.17,490.54s.11-83.82-12.77-106.07"/>
    <circle class="cls-7" cx="192.48" cy="361.15" r="7.57"/>
    <circle class="cls-7" cx="190.53" cy="412.91" r="7.57"/>
    <circle class="cls-7" cx="190.37" cy="466.9" r="7.57"/>
  </g>
  <g>
    <circle class="cls-13" cx="1011.06" cy="150.2" r="57.31"/>
    <polyline class="cls-54" points="1012.54 150.43 1011.91 190.07 1009.49 150.18"/>
    <polygon class="cls-54" points="1013.65 150.1 1011.33 177.13 1008.78 150.04 1013.65 150.1"/>
    <line class="cls-4" x1="960.62" y1="150.49" x2="970.03" y2="150.49"/>
    <line class="cls-4" x1="1052.17" y1="150.49" x2="1061.58" y2="150.49"/>
    <line class="cls-4" x1="1011.41" y1="99.69" x2="1011.41" y2="109.1"/>
    <line class="cls-4" x1="1011.41" y1="191.25" x2="1011.41" y2="200.65"/>
  </g>
  <g>
    <path class="cls-49" d="M923.4,850.55l46.36-4.32c1.23-.11,2.18-1.12,2.23-2.36l1.12-29.32c.05-1.2-.8-2.25-1.98-2.46l-45.75-8.02"/>
    <path class="cls-49" d="M916.55,852.88s-3.85-25.8,1.57-51.66c0,0,3.01,21.62-1.57,51.66Z"/>
    <path class="cls-17" d="M916.55,852.88l5.87-.81c.55-.08,.99-.51,1.06-1.06,.68-5.16,3.81-30.59,1.93-47.17-.09-.81-.71-1.45-1.51-1.59l-5.77-1.03s2.84,24.77-1.57,51.66Z"/>
  </g>
</svg>