<?xml version="1.0" encoding="UTF-8"?>
<svg xmlns="http://www.w3.org/2000/svg" xmlns:xlink="http://www.w3.org/1999/xlink" viewBox="0 0 1885.71 1176.99">
  <defs>
    <style>
      .cls-1, .cls-2, .cls-3, .cls-4, .cls-5, .cls-6, .cls-7, .cls-8, .cls-9, .cls-10, .cls-11, .cls-12, .cls-13 {
        fill: none;
      }

      .cls-14 {
        fill: #ce8d50;
        stroke: #cb8b2a;
        stroke-width: 5px;
      }

      .cls-14, .cls-2, .cls-3, .cls-4, .cls-5, .cls-15, .cls-16, .cls-6, .cls-17, .cls-18, .cls-7, .cls-8, .cls-9, .cls-10, .cls-11, .cls-12, .cls-13 {
        stroke-miterlimit: 10;
      }

      .cls-19 {
        clip-path: url(#clippath);
      }

      .cls-2 {
        stroke: #c16b7b;
      }

      .cls-2, .cls-3, .cls-4, .cls-5 {
        stroke-width: .8px;
      }

      .cls-3 {
        stroke: #92278f;
      }

      .cls-4 {
        stroke: #414042;
      }

      .cls-5, .cls-16, .cls-6, .cls-7, .cls-11 {
        stroke: #231f20;
      }

      .cls-20 {
        fill: #f7daa6;
      }

      .cls-21 {
        fill: #017d75;
      }

      .cls-22 {
        fill: #00a151;
      }

      .cls-23 {
        fill: #00714f;
      }

      .cls-24 {
        fill: #ec6b8a;
      }

      .cls-25, .cls-15, .cls-18 {
        fill: #e6e7e8;
      }

      .cls-26 {
        fill: #f6ac1b;
      }

      .cls-27 {
        fill: #e96d42;
      }

      .cls-28, .cls-29 {
        fill: #fff;
      }

      .cls-30 {
        fill: #803435;
      }

      .cls-31 {
        fill: #016041;
      }

      .cls-32 {
        fill: #9ecb54;
      }

      .cls-33 {
        fill: #8b5e3c;
      }

      .cls-34 {
        fill: #a1a0a0;
      }

      .cls-35 {
        fill: #9054a2;
      }

      .cls-36 {
        fill: #b6e4f6;
      }

      .cls-37 {
        fill: #8dd5e7;
      }

      .cls-38 {
        fill: #b19074;
      }

      .cls-39 {
        fill: #ae8578;
      }

      .cls-40 {
        fill: #a7a9ac;
      }

      .cls-41 {
        fill: #be9e7d;
      }

      .cls-42 {
        fill: #be8c8c;
      }

      .cls-43 {
        fill: #bfbfbf;
      }

      .cls-44 {
        fill: #d2d292;
      }

      .cls-45 {
        fill: #d1d3d4;
      }

      .cls-46 {
        fill: #e2c799;
      }

      .cls-47 {
        fill: #c3c3c3;
      }

      .cls-48 {
        fill: #dcbf97;
      }

      .cls-49 {
        fill: #d4d5d6;
      }

      .cls-50, .cls-16 {
        fill: #231f20;
      }

      .cls-51 {
        fill: #414042;
      }

      .cls-52 {
        fill: #0e8e81;
      }

      .cls-53 {
        fill: #545554;
      }

      .cls-54 {
        fill: #6ca442;
      }

      .cls-55 {
        fill: #288348;
      }

      .cls-56 {
        fill: #3c2415;
      }

      .cls-57 {
        fill: #26130f;
      }

      .cls-15 {
        stroke: #58595b;
        stroke-width: .2px;
      }

      .cls-16 {
        stroke-width: 2px;
      }

      .cls-58 {
        clip-path: url(#clippath-1);
      }

      .cls-59 {
        clip-path: url(#clippath-3);
      }

      .cls-60 {
        clip-path: url(#clippath-2);
      }

      .cls-6 {
        stroke-width: .7px;
      }

      .cls-17 {
        fill: #754c29;
        stroke: #fff;
      }

      .cls-17, .cls-11, .cls-12, .cls-13 {
        stroke-width: .5px;
      }

      .cls-18, .cls-10 {
        stroke: #6d6e71;
      }

      .cls-8 {
        stroke: #d1d3d4;
      }

      .cls-9, .cls-12 {
        stroke: #603913;
      }

      .cls-29 {
        opacity: .8;
      }

      .cls-13 {
        stroke: #754c29;
      }
    </style>
    <clipPath id="clippath">
      <rect class="cls-1" x="292.16" y="81.66" width="1335.1" height="1000.08"/>
    </clipPath>
    <clipPath id="clippath-1">
      <rect class="cls-1" x="411.9" y="137.55" width="1215.47" height="618.11"/>
    </clipPath>
    <clipPath id="clippath-2">
      <rect class="cls-1" x="111.1" y="41.56" width="681.73" height="723.84"/>
    </clipPath>
    <clipPath id="clippath-3">
      <rect class="cls-1" x="1173.7" y="95.65" width="452.72" height="644.9"/>
    </clipPath>
  </defs>
  <g id="fondo">
    <g class="cls-19">
      <rect class="cls-37" x="110.03" y="39.69" width="1517.55" height="604.37"/>
      <g class="cls-58">
        <g>
          <rect class="cls-26" x="588.76" y="315.82" width="1109.56" height="305.45"/>
          <path class="cls-14" d="M1183.58,616.41v-208.49s48.99-34.18,105.95,0l-1.29,208.34-104.66,.15Z"/>
          <path class="cls-36" d="M1008.99,544.12v-147.66s66.96-24.21,144.83,0l-1.77,147.55-143.06,.11Z"/>
          <path class="cls-36" d="M577.88,544.12v-147.66s48.05-24.21,103.91,0l-1.27,147.55-102.64,.11Z"/>
          <path class="cls-36" d="M1430.01,544.12v-147.66s66.96-24.21,144.83,0l-1.77,147.55-143.06,.11Z"/>
          <rect class="cls-27" x="563.21" y="317.1" width="33.33" height="330.68"/>
          <rect class="cls-27" x="935.23" y="317.1" width="33.33" height="330.68"/>
          <rect class="cls-27" x="1315.25" y="317.1" width="33.33" height="330.68"/>
          <rect class="cls-27" x="1695.27" y="317.1" width="33.33" height="330.68"/>
          <polygon class="cls-27" points="479.21 319.77 1811.27 319.77 1811.27 306.28 1146.39 203.34 482.21 297.7 479.21 319.77"/>
          <polygon class="cls-14" points="482.21 297.7 439.99 284.56 1159.93 183.6 1868.54 298.72 1811.27 306.28 1146.39 203.34 482.21 297.7"/>
          <polygon class="cls-25" points="439.99 284.56 439.99 264.34 1159.45 162.47 1874.66 278.28 1868.54 298.72 1159.93 183.6 439.99 284.56"/>
          <rect class="cls-27" x="563.21" y="619.95" width="1165.39" height="27.83"/>
          <g>
            <line class="cls-4" x1="1418.93" y1="377.01" x2="1418.93" y2="545.66"/>
            <circle class="cls-51" cx="1418.98" cy="380.51" r="3.47"/>
            <circle class="cls-51" cx="1419.1" cy="549.13" r="3.47"/>
            <line class="cls-4" x1="1436.83" y1="377.01" x2="1436.83" y2="545.66"/>
            <circle class="cls-51" cx="1436.88" cy="380.51" r="3.47"/>
            <circle class="cls-51" cx="1437" cy="549.13" r="3.47"/>
            <line class="cls-4" x1="1456.26" y1="377.01" x2="1456.26" y2="545.66"/>
            <circle class="cls-51" cx="1456.31" cy="380.51" r="3.47"/>
            <circle class="cls-51" cx="1456.43" cy="549.13" r="3.47"/>
            <line class="cls-4" x1="1473.78" y1="377.01" x2="1473.78" y2="545.66"/>
            <circle class="cls-51" cx="1473.83" cy="380.51" r="3.47"/>
            <circle class="cls-51" cx="1473.95" cy="549.13" r="3.47"/>
            <line class="cls-4" x1="1491.69" y1="377.01" x2="1491.69" y2="545.66"/>
            <circle class="cls-51" cx="1491.74" cy="380.51" r="3.47"/>
            <circle class="cls-51" cx="1491.86" cy="549.13" r="3.47"/>
            <line class="cls-4" x1="1511.12" y1="377.01" x2="1511.12" y2="545.66"/>
            <circle class="cls-51" cx="1511.17" cy="380.51" r="3.47"/>
            <circle class="cls-51" cx="1511.29" cy="549.13" r="3.47"/>
            <line class="cls-4" x1="1529.02" y1="377.01" x2="1529.02" y2="545.66"/>
            <circle class="cls-51" cx="1529.07" cy="380.51" r="3.47"/>
            <circle class="cls-51" cx="1529.19" cy="549.13" r="3.47"/>
            <line class="cls-4" x1="1546.93" y1="377.01" x2="1546.93" y2="545.66"/>
            <circle class="cls-51" cx="1546.98" cy="380.51" r="3.47"/>
            <circle class="cls-51" cx="1547.1" cy="549.13" r="3.47"/>
            <line class="cls-4" x1="1566.36" y1="377.01" x2="1566.36" y2="545.66"/>
            <circle class="cls-51" cx="1566.41" cy="380.51" r="3.47"/>
            <circle class="cls-51" cx="1566.53" cy="549.13" r="3.47"/>
            <line class="cls-4" x1="1584.64" y1="377.01" x2="1584.64" y2="545.66"/>
            <circle class="cls-51" cx="1584.69" cy="380.51" r="3.47"/>
            <circle class="cls-51" cx="1584.81" cy="549.13" r="3.47"/>
          </g>
          <g>
            <line class="cls-4" x1="998.92" y1="377.01" x2="998.92" y2="545.66"/>
            <circle class="cls-51" cx="998.97" cy="380.51" r="3.47"/>
            <circle class="cls-51" cx="999.09" cy="549.13" r="3.47"/>
            <line class="cls-4" x1="1016.82" y1="377.01" x2="1016.82" y2="545.66"/>
            <circle class="cls-51" cx="1016.87" cy="380.51" r="3.47"/>
            <circle class="cls-51" cx="1016.99" cy="549.13" r="3.47"/>
            <line class="cls-4" x1="1036.25" y1="377.01" x2="1036.25" y2="545.66"/>
            <circle class="cls-51" cx="1036.3" cy="380.51" r="3.47"/>
            <circle class="cls-51" cx="1036.42" cy="549.13" r="3.47"/>
            <line class="cls-4" x1="1053.78" y1="377.01" x2="1053.78" y2="545.66"/>
            <circle class="cls-51" cx="1053.83" cy="380.51" r="3.47"/>
            <circle class="cls-51" cx="1053.95" cy="549.13" r="3.47"/>
            <line class="cls-4" x1="1071.68" y1="377.01" x2="1071.68" y2="545.66"/>
            <circle class="cls-51" cx="1071.73" cy="380.51" r="3.47"/>
            <circle class="cls-51" cx="1071.85" cy="549.13" r="3.47"/>
            <line class="cls-4" x1="1091.11" y1="377.01" x2="1091.11" y2="545.66"/>
            <circle class="cls-51" cx="1091.16" cy="380.51" r="3.47"/>
            <circle class="cls-51" cx="1091.28" cy="549.13" r="3.47"/>
            <line class="cls-4" x1="1109.01" y1="377.01" x2="1109.01" y2="545.66"/>
            <circle class="cls-51" cx="1109.06" cy="380.51" r="3.47"/>
            <circle class="cls-51" cx="1109.19" cy="549.13" r="3.47"/>
            <line class="cls-4" x1="1126.92" y1="377.01" x2="1126.92" y2="545.66"/>
            <circle class="cls-51" cx="1126.97" cy="380.51" r="3.47"/>
            <circle class="cls-51" cx="1127.09" cy="549.13" r="3.47"/>
            <line class="cls-4" x1="1146.35" y1="377.01" x2="1146.35" y2="545.66"/>
            <circle class="cls-51" cx="1146.4" cy="380.51" r="3.47"/>
            <circle class="cls-51" cx="1146.52" cy="549.13" r="3.47"/>
            <line class="cls-4" x1="1164.63" y1="377.01" x2="1164.63" y2="545.66"/>
            <circle class="cls-51" cx="1164.68" cy="380.51" r="3.47"/>
            <circle class="cls-51" cx="1164.81" cy="549.13" r="3.47"/>
          </g>
          <g>
            <line class="cls-4" x1="613.83" y1="377.01" x2="613.83" y2="545.66"/>
            <circle class="cls-51" cx="613.88" cy="380.51" r="3.47"/>
            <circle class="cls-51" cx="614" cy="549.13" r="3.47"/>
            <line class="cls-4" x1="631.73" y1="377.01" x2="631.73" y2="545.66"/>
            <circle class="cls-51" cx="631.78" cy="380.51" r="3.47"/>
            <circle class="cls-51" cx="631.9" cy="549.13" r="3.47"/>
            <line class="cls-4" x1="649.64" y1="377.01" x2="649.64" y2="545.66"/>
            <circle class="cls-51" cx="649.69" cy="380.51" r="3.47"/>
            <circle class="cls-51" cx="649.81" cy="549.13" r="3.47"/>
            <line class="cls-4" x1="669.07" y1="377.01" x2="669.07" y2="545.66"/>
            <circle class="cls-51" cx="669.12" cy="380.51" r="3.47"/>
            <circle class="cls-51" cx="669.24" cy="549.13" r="3.47"/>
            <line class="cls-4" x1="687.35" y1="377.01" x2="687.35" y2="545.66"/>
            <circle class="cls-51" cx="687.4" cy="380.51" r="3.47"/>
            <circle class="cls-51" cx="687.52" cy="549.13" r="3.47"/>
          </g>
        </g>
      </g>
      <rect class="cls-45" x="375.55" y="783.58" width="1252.06" height="393.26"/>
      <rect class="cls-32" x="109.62" y="643.01" width="1518.16" height="142.53"/>
      <rect class="cls-40" x="356.43" y="829.42" width="1272.27" height="21.2"/>
      <polyline class="cls-53" points="109.62 715.74 109.62 1176.99 1242.83 1176.99 109.62 715.74"/>
      <polyline class="cls-34" points="109.62 715.74 109.62 696.46 1345.59 1176.56 1237.98 1176.88 109.62 715.74"/>
      <polyline class="cls-47" points="109.62 679.76 109.62 696.46 1345.59 1176.56 1446.45 1176.56 109.62 679.76"/>
      <path class="cls-22" d="M267.64,650.96s-47.88-51.15,8.27-54.68c0,0-31.46-74.9,35.15-71.13,0,0,126.25-78.51,151.51,24.41,0,0,79.96-53.74,105.82,4.29l5.5,95.56s-84.8,21.45-186.67,15.06c0,0-73.74-4.07-119.58-13.51Z"/>
      <path class="cls-28" d="M694.28,99.48l-57.34-1.14s-13.15-4.17-12.49-11.92c1.14-13.36,11.92-12.49,11.92-12.49,0,0,.57-15.33,17.6-15.33,0,0,13.06-1.14,13.06,15.33,0,0,6.81-10.79,18.17-3.97,0,0,7.95,8.52,1.14,13.06,0,0,14.76-10.22,18.73,2.84,0,0,3.41,14.19-10.79,13.62"/>
      <path class="cls-29" d="M1604.67,84.5l-35.65-.71s-8.17-2.59-7.77-7.41c.71-8.31,7.41-7.77,7.41-7.77,0,0,.35-9.53,10.94-9.53,0,0,8.12-.71,8.12,9.53,0,0,4.24-6.71,11.29-2.47,0,0,4.94,5.29,.71,8.12,0,0,9.18-6.35,11.65,1.76,0,0,2.12,8.82-6.71,8.47"/>
      <path class="cls-29" d="M1256.45,140.21l-91.64-1.81s-21.01-6.67-19.96-19.05c1.81-21.35,19.05-19.96,19.05-19.96,0,0,.91-24.5,28.13-24.5,0,0,20.87-1.81,20.87,24.5,0,0,10.89-17.24,29.04-6.35,0,0,12.7,13.61,1.81,20.87,0,0,23.59-16.33,29.94,4.54,0,0,5.44,22.68-17.24,21.78"/>
      <path class="cls-54" d="M310.82,666.89s200.81,17.72,289.41,1.69c0,0-1.69-4.22-9.28-6.75l12.66-4.22s-18.56-19.41-48.09-10.97l21.94-9.28s-13.5-21.94-46.41,3.38c0,0,6.75-19.41,16.03-26.16,0,0-33.75,4.22-43.88,20.25,0,0-2.53-26.16,21.09-36.28,0,0-32.06,1.69-41.34,19.41l-61.59-1.69s-13.5-23.63-31.22-21.09c0,0,20.25,10.97,19.41,32.91,0,0-23.63-19.41-34.59-13.5,0,0,16.03,18.56,11.81,28.69,0,0-30.38-22.78-46.41-4.22,0,0,21.09,2.53,21.09,12.66,0,0-36.28-13.5-50.63,15.19Z"/>
      <path class="cls-44" d="M652.33,659.64s200.81,17.72,289.41,1.69c0,0-1.69-4.22-9.28-6.75l12.66-4.22s-18.56-19.41-48.09-10.97l21.94-9.28s-13.5-21.94-46.41,3.38c0,0,6.75-19.41,16.03-26.16,0,0-33.75,4.22-43.88,20.25,0,0-2.53-26.16,21.09-36.28,0,0-32.06,1.69-41.34,19.41l-61.59-1.69s-13.5-23.63-31.22-21.09c0,0,20.25,10.97,19.41,32.91,0,0-23.63-19.41-34.59-13.5,0,0,16.03,18.56,11.81,28.69,0,0-30.38-22.78-46.41-4.22,0,0,21.09,2.53,21.09,12.66,0,0-36.28-13.5-50.63,15.19Z"/>
      <g>
        <path class="cls-52" d="M530.91,597.43s14.56,47.06-29.32,91.27c0,0-35.39-26.38-3.14-65.6,0,0,18.99-18.06,32.46-25.67Z"/>
        <path class="cls-23" d="M492.67,676.53s43.71-33.6,75.02-21.2c0,0,5.87,48.93-48.27,33.27,0,0-16.63-10.76-26.75-12.07Z"/>
        <path class="cls-21" d="M574.17,620.35s-49.26,.58-77.78,48.68c0,0,36.01,22.18,63.37-14.98,0,0,8.64-24.77,14.4-33.7Z"/>
        <path class="cls-23" d="M444.86,591.49s-30.01,70.49,40.48,75.73c0,0,23.73-49.21-40.48-75.73Z"/>
        <path class="cls-52" d="M401.59,606.84s-30.71,40.83,49.21,51.65l12.56,.7s-13.96-39.09-61.77-52.35Z"/>
        <path class="cls-21" d="M458.86,649.98s-91.08-5.23-92.13,13.96c-1.05,19.19,53.74,15.36,53.74,15.36,0,0,29.66-4.54,48.16-21.99"/>
        <path class="cls-52" d="M513.99,659.45s-47.41-4.89-70.96-.61c0,0-34.26,33.65,3.36,46.19,0,0,19.58,7.34,38.54-27.83,0,0,12.54-15.29,29.06-17.74Z"/>
        <path class="cls-31" d="M513.99,659.45s8.12,5.59,7.64,18.4c0,0-24.89,6.28-38.43,1.69,0,0,8.41-17.7,30.79-20.09Z"/>
      </g>
      <g>
        <path class="cls-52" d="M852.28,594.83s14.56,47.06-29.32,91.27c0,0-35.39-26.38-3.14-65.6,0,0,18.99-18.06,32.46-25.67Z"/>
        <path class="cls-23" d="M814.04,673.93s43.71-33.6,75.02-21.2c0,0,5.87,48.93-48.27,33.27,0,0-16.63-10.76-26.75-12.07Z"/>
        <path class="cls-21" d="M895.54,617.75s-49.26,.58-77.78,48.68c0,0,36.01,22.18,63.37-14.98,0,0,8.64-24.77,14.4-33.7Z"/>
        <path class="cls-23" d="M766.23,588.89s-30.01,70.49,40.48,75.73c0,0,23.73-49.21-40.48-75.73Z"/>
        <path class="cls-52" d="M722.96,604.24s-30.71,40.83,49.21,51.65l12.56,.7s-13.96-39.09-61.77-52.35Z"/>
        <path class="cls-21" d="M780.23,647.37s-91.08-5.23-92.13,13.96c-1.05,19.19,53.74,15.36,53.74,15.36,0,0,29.66-4.54,48.16-21.99"/>
        <path class="cls-52" d="M835.36,656.85s-47.41-4.89-70.96-.61c0,0-34.26,33.65,3.36,46.19,0,0,19.58,7.34,38.54-27.83,0,0,12.54-15.29,29.06-17.74Z"/>
        <path class="cls-31" d="M835.36,656.85s8.12,5.59,7.64,18.4c0,0-24.89,6.28-38.43,1.69,0,0,8.41-17.7,30.79-20.09Z"/>
      </g>
      <path class="cls-55" d="M572.44,646.6s7.97,4.62,16.36,1.26c0,0-4.2-23.5,1.68-30.21,0,0-6.71,7.13-7.13,17.62,0,0-8.81-38.6,7.13-66.3,0,0-11.33,13.85-13.43,31.89,0,0-12.17-20.14-.84-45.32,0,0-13.43,21.82-8.39,57.49,0,0-2.52-31.47-13.85-33.99,0,0,11.33,16.78,12.17,45.74,0,0-1.26-10.07-7.13-13.43,0,0,18.04,28.11,13.43,35.25Z"/>
      <path class="cls-54" d="M1279.43,659.64s200.81,17.72,289.41,1.69c0,0-1.69-4.22-9.28-6.75l12.66-4.22s-18.56-19.41-48.09-10.97l21.94-9.28s-13.5-21.94-46.41,3.38c0,0,6.75-19.41,16.03-26.16,0,0-33.75,4.22-43.88,20.25,0,0-2.53-26.16,21.09-36.28,0,0-32.06,1.69-41.34,19.41l-61.59-1.69s-13.5-23.63-31.22-21.09c0,0,20.25,10.97,19.41,32.91,0,0-23.63-19.41-34.59-13.5,0,0,16.03,18.56,11.81,28.69,0,0-30.38-22.78-46.41-4.22,0,0,21.09,2.53,21.09,12.66,0,0-36.28-13.5-50.63,15.19Z"/>
      <g>
        <path class="cls-52" d="M1508.54,598.86s14.56,47.06-29.32,91.27c0,0-35.39-26.38-3.14-65.6,0,0,18.99-18.06,32.46-25.67Z"/>
        <path class="cls-23" d="M1470.3,677.97s43.71-33.6,75.02-21.2c0,0,5.87,48.93-48.27,33.27,0,0-16.63-10.76-26.75-12.07Z"/>
        <path class="cls-21" d="M1551.8,621.78s-49.26,.58-77.78,48.68c0,0,36.01,22.18,63.37-14.98,0,0,8.64-24.77,14.4-33.7Z"/>
        <path class="cls-23" d="M1422.49,592.92s-30.01,70.49,40.48,75.73c0,0,23.73-49.21-40.48-75.73Z"/>
        <path class="cls-52" d="M1379.21,608.28s-30.71,40.83,49.21,51.65l12.56,.7s-13.96-39.09-61.77-52.35Z"/>
        <path class="cls-21" d="M1436.48,651.41s-91.08-5.23-92.13,13.96c-1.05,19.19,53.74,15.36,53.74,15.36,0,0,29.66-4.54,48.16-21.99"/>
        <path class="cls-52" d="M1491.61,660.88s-47.41-4.89-70.96-.61c0,0-34.26,33.65,3.36,46.19,0,0,19.58,7.34,38.54-27.83,0,0,12.54-15.29,29.06-17.74Z"/>
        <path class="cls-31" d="M1491.61,660.88s8.12,5.59,7.64,18.4c0,0-24.89,6.28-38.43,1.69,0,0,8.41-17.7,30.79-20.09Z"/>
      </g>
      <g class="cls-60">
        <g>
          <path class="cls-33" d="M349.29,748.54s16.45-188.22,8.23-281.82l-84.62-124.91,17.37-8.23,77.83,107.7,4.7-102.76h17.63l-4.7,166.86,3.53,245.2s-18.81,9.16-39.96-2.03Z"/>
          <path class="cls-54" d="M76.07,323.1s-136.85,47.79-43.44,125.99c0,0,108.61,15.21,162.91-58.65,0,0,45.62,45.62,104.26,10.86,0,0,36.93,45.62,95.58,13.03,0,0,80.37,60.82,143.36,13.03,0,0,58.65,36.93,91.23,2.17,0,0,110.78,43.44,108.61-28.24s-54.3-82.54-54.3-82.54c0,0,89.06-32.58,23.89-117.3-65.17-84.72-156.4-36.93-156.4-36.93L76.07,323.1Z"/>
          <path class="cls-32" d="M107.85,144.68s-64.73,49.04-58.85,113.78c5.88,64.73,41.19,117.7,149.09,76.5,0,0,78.47,88.27,247.17,23.54,0,0,131.43,56.89,168.7-31.39,37.27-88.27-31.39-74.54-31.39-74.54,0,0,90.24-225.59-107.89-190.28,0,0-25.5-43.16-111.81-19.62,0,0-11.77-15.69-43.16-3.92,0,0-37.27-92.2-105.93,7.85,0,0-111.81-19.62-105.93,98.08Z"/>
        </g>
      </g>
      <g class="cls-59">
        <g>
          <path class="cls-33" d="M1470.93,709.86s13.43-153.63,6.72-230.04l-69.07-101.96,14.18-6.72,63.53,87.91,3.84-83.88h14.39l-3.84,136.19,2.88,200.14s-15.35,7.47-32.62-1.66Z"/>
          <path class="cls-54" d="M1247.92,362.59s-111.7,39.01-35.46,102.83c0,0,88.65,12.41,132.98-47.87,0,0,37.23,37.23,85.1,8.87,0,0,30.14,37.23,78.01,10.64,0,0,65.6,49.64,117.02,10.64,0,0,47.87,30.14,74.47,1.77,0,0,90.42,35.46,88.65-23.05-1.77-58.51-44.33-67.37-44.33-67.37,0,0,72.69-26.6,19.5-95.74-53.19-69.15-127.66-30.14-127.66-30.14l-388.29,129.43Z"/>
          <path class="cls-32" d="M1273.86,216.96s-52.84,40.03-48.04,92.87c4.8,52.84,33.62,96.07,121.69,62.45,0,0,64.05,72.05,201.75,19.21,0,0,107.28,46.43,137.7-25.62,30.42-72.05-25.62-60.85-25.62-60.85,0,0,73.65-184.14-88.07-155.32,0,0-20.82-35.23-91.27-16.01,0,0-9.61-12.81-35.23-3.2,0,0-30.42-75.26-86.46,6.4,0,0-91.27-16.01-86.46,80.06Z"/>
        </g>
      </g>
    </g>
  </g>
  <g id="Layer_1" data-name="Layer 1">
    <g>
      <path class="cls-41" d="M1093.15,516.89l4.47,27.12,16.77,22.27-21.2,16.53-22.35,1.53s3.72-44.08,1.06-59.48"/>
      <path class="cls-17" d="M949.71,916.02s-5.45,9.54-1.82,22.25c0,0,9.99,13.17,44.5,9.54,0,0,27.24,16.35,59.03,7.27,0,0,26.34-6.36,5.45-23.61,0,0-27.24-20.89-49.95-24.97,0,0-18.16,18.16-57.21,9.54Z"/>
      <path class="cls-17" d="M921.64,926.35s-5.56,9.74-1.85,22.72c0,0,10.2,13.44,45.43,9.74,0,0,27.81,16.69,60.26,7.42,0,0,26.89-6.49,5.56-24.11,0,0-27.81-21.32-50.99-25.5,0,0-18.54,18.54-58.41,9.74Z"/>
      <path class="cls-38" d="M902.93,595.71s76.55,44.07,160.77,4.57l-14.31,163.89s.47,29.97-5.15,58.12c-5.61,28.15-12.63,93.54-12.63,93.54,0,0-15.91,9.08-40.24,2.72,0,0-27.78,30-74.1,6.38,0,0-11.51-58.88-4.49-90.67,0,0,3.67-24.34,1.8-47.95,0,0-29.89-152.02-11.64-190.61Z"/>
      <path class="cls-9" d="M993.5,918.56s8.91-136.79,.44-198.58c0,0,11.1-9.16,15.74-28.91"/>
      <path class="cls-41" d="M1018.76,362.94s-5.01,17.83-16.13,30.73c0,0-5.51,51.07,33.27,61.68,0,0,30.9-15.57,24.85-50.74l-42-41.67Z"/>
      <g>
        <polygon class="cls-43" points="1000.61 386.41 1007.24 386.91 1004.4 393.86 1000.61 386.41"/>
        <path class="cls-25" d="M912.42,514.04l-21.14,109.84s23.02,25.9,98.57,30.52c0,0,52.15-1.26,74.84-15.81,0,0,.46-16.44,16.61-93.17,0,0,13.11-6.53,20.58-7.77l.91-48.47s6.15-30.1-13.26-51.21c0,0-8.57-13.32-20.32-21.56l-29.44,12.64-10.16,33.72-3.46-31.62s.53-8.86-32.54-39.11c0,0-28.53,3.56-50.74,17.83,0,0-18.26,14.97-25.37,33.48,0,0-14.06,24.89-5.09,70.69Z"/>
        <path class="cls-49" d="M993.62,392.05s28.53,26.72,32.54,39.11l1.57-11s-20.97-20.65-27.12-33.74l-6.99,5.63Z"/>
        <path class="cls-49" d="M1059.01,406.43s12.43,2.43,10.21,9.98l-29.44,12.64,.65-6.57s11.42-2.24,21.34-9.68c0,0-3.3-2.61-2.75-6.38Z"/>
        <path class="cls-10" d="M1029.62,462.78s.72,39.01-35.25,190.31"/>
        <ellipse class="cls-45" cx="1021.47" cy="465.37" rx="2.1" ry="2.02" transform="translate(340.13 1357.41) rotate(-77.12)"/>
        <ellipse class="cls-45" cx="1018.62" cy="500.79" rx="2.1" ry="2.02" transform="translate(303.39 1382.16) rotate(-77.12)"/>
        <ellipse class="cls-45" cx="1012.6" cy="538.46" rx="2.1" ry="2.02" transform="translate(261.98 1405.57) rotate(-77.12)"/>
        <ellipse class="cls-45" cx="1005.54" cy="572.48" rx="2.1" ry="2.02" transform="translate(223.34 1425.13) rotate(-77.12)"/>
        <ellipse class="cls-45" cx="996.81" cy="615.27" rx="2.1" ry="2.02" transform="translate(174.84 1449.86) rotate(-77.12)"/>
        <path class="cls-45" d="M966.84,472.37l-5.28,30.87s13.61,20.76,35.56,8.13l7.62-33.31s-14.1,4.5-37.9-5.7Z"/>
        <path class="cls-45" d="M1048.13,490.96l-5.28,30.87s13.61,20.76,35.56,8.13l7.62-33.31s-14.1,4.5-37.9-5.7Z"/>
        <path class="cls-45" d="M943.68,577.71l-5.98,34.99s15.42,23.53,40.31,9.22l8.63-37.75s-15.98,5.1-42.96-6.46Z"/>
        <path class="cls-45" d="M1023.12,589.1l-5.98,34.99s15.42,23.53,40.31,9.22l8.63-37.75s-15.98,5.1-42.96-6.46Z"/>
        <path class="cls-8" d="M981.68,394.13s24.57,55.96-34.12,255.5"/>
        <path class="cls-8" d="M986.81,393.49s24.87,56.57-33.82,256.11"/>
        <path class="cls-8" d="M991.87,392.5s25.24,58.5-33.45,258.04"/>
        <path class="cls-8" d="M976.46,395.2s25.96,52.99-32.73,252.53"/>
        <path class="cls-8" d="M1068.46,416.36s29.05,36.83-38.3,233.61"/>
        <path class="cls-8" d="M1073.85,421.06s29.2,31.36-38.15,228.15"/>
        <path class="cls-8" d="M1079.39,425.62s29.56,25.31-37.79,222.09"/>
        <path class="cls-8" d="M1063.2,417.2s28.41,36.75-38.94,233.54"/>
      </g>
      <g>
        <circle class="cls-28" cx="1130.05" cy="592.7" r="45.22"/>
        <polygon class="cls-50" points="1133.71 565.17 1116.43 573.55 1119.06 592.57 1137.96 595.95 1147.01 579.02 1133.71 565.17"/>
        <path class="cls-50" d="M1091.92,617l3.29-16.43,15.73,5.88,3.8,16.25-7.26,9.86s-9.51-5.53-15.56-15.56Z"/>
        <path class="cls-50" d="M1158.67,627.72l2.09-14.94-16.8-.11-9.35,13.83,5.72,10.21s9.1-1.78,18.33-8.99Z"/>
        <path class="cls-50" d="M1103.85,556.82l2.69,12.19-13.35,13.8-6.98-4.2s3.11-14.52,17.64-21.79Z"/>
        <path class="cls-50" d="M1165.58,566.68l-2.59,14.01,6.69,15.69,6.79-1.68s-.52-19.71-10.89-28.01Z"/>
        <line class="cls-16" x1="1119.06" y1="592.57" x2="1110.94" y2="606.45"/>
        <line class="cls-16" x1="1137.96" y1="595.95" x2="1143.96" y2="612.66"/>
        <line class="cls-16" x1="1160.76" y1="612.77" x2="1169.68" y2="596.37"/>
        <line class="cls-16" x1="1134.62" y1="626.49" x2="1114.75" y2="622.7"/>
        <line class="cls-16" x1="1095.21" y1="600.57" x2="1093.19" y2="582.81"/>
        <line class="cls-16" x1="1106.54" y1="569.02" x2="1116.43" y2="573.55"/>
        <path class="cls-16" d="M1133.71,565.17l.23-11.81-9.68-4.15s6.4-2.59,20.75,2.07l-9.34,2.25"/>
        <line class="cls-16" x1="1147.01" y1="579.02" x2="1162.99" y2="580.68"/>
      </g>
      <path class="cls-41" d="M983,510.22l8.68,27.74c25.85,5.85,72.41,43.52,72.41,43.52l18.56-9.82,19.5-1.68s2.44,2.53,.53,3.61-7.45,4.46-7.45,4.46l19.35,1.18,18.79,4.65s4.21,3.43-.02,5.32-16.56-.48-16.56-.48l-11.11,.22,29.01,5.31s2.77,5.12-2.89,5.17c-5.66,.04-16.89-2.19-16.89-2.19l-10.5,1.52,24.93,2.57s4.62,2.81,.66,5.18c-3.96,2.37-21.67-.37-21.67-.37l14.15,4.49s.13,2.45-2.81,2.85-18.19-1.58-18.19-1.58c0,0-15.89,2.93-26.43-2.98-10.54-5.91-17.65-4.87-17.65-4.87,0,0-83.15-11.83-110.53-34.07h0s-16.65-19.31-18.61-45.66"/>
      <path class="cls-18" d="M973.4,431.12s17.38,46.79,17.83,76.82c0,0-48.92,17.37-67.67,14.63"/>
      <path class="cls-41" d="M1109.61,320.1s4.26,14.07-6.83,40.9c0,0-3.32,6.23-3.78,10.03-.46,3.8-3.57,9.1-5,13.11-8.09,22.67-20.9,25.66-20.9,25.66,0,0-5.67,6.34-18.7,2.21-13.03-4.14-24.33-12.55-27.2-19.56-2.87-7.01-9.82-19.7-8.21-28.49,0,0-8.29-.78-8.38-11.09,0,0-3.65-17.18,5.97-18.18,9.62-1,10.66,12.21,10.66,12.21,0,0-1.89-38.07,21.65-45.06,0,0,33.28-11.31,60.73,18.27Z"/>
      <path class="cls-39" d="M1054.54,379.16s7.13,.56,13.83,5.72c0,0,7.05,1.29,12.42,4.94,0,0-4.85,10.29-15.67,8.69-10.82-1.6-13.22-13.26-10.58-19.34Z"/>
      <path class="cls-30" d="M1055.83,380.54s-3.81,9.3,8.33,14.12c11.02,4.38,14.41-3.89,14.41-3.89,0,0-12.64-4.38-22.74-10.23Z"/>
      <path class="cls-25" d="M1072.99,343.51s-9.37-7.38-20.24-7.22c0,0,7.45-5.35,21.78,4.17,0,0,1.78,3.04-1.54,3.04Z"/>
      <path class="cls-25" d="M1105.75,355.19c-7.18-4.16-11.79-3.35-11.79-3.35-2.41-2.29,.97-3.27,.97-3.27,5.29,.91,9.09,2.41,11.83,4.05,0,0-.61,2.8-1,2.57Z"/>
      <path class="cls-28" d="M1057.28,381.27s1.56,4.62,11.14,7.9c0,0,5.4,3.49,9.05,1.38,0,0-12.21-4.55-20.19-9.28Z"/>
      <path class="cls-5" d="M1014.06,340.68s4.94-3.44,6.5,2.69c1.56,6.13,1.12,7.8,1.12,7.8,0,0-1.94-9.53-6.31-4.24"/>
      <path class="cls-15" d="M1013.2,335.23s8.25-3.45,10.72,4.57c2.47,8.02,.65,10.66,.65,10.66l4.33,1.42s-6.3-27.44,11.21-31.58c0,0,2.67-18.16,16.48-16.18,13.81,1.98,24.48-8.68,53.88,19.17,0,0,9.82-18.32-23.42-35.51,0,0-22.38-11.9-33.42-2.22,0,0-16.25-3.86-27.75,15.43-11.5,19.29-12.69,34.23-12.69,34.23Z"/>
      <path class="cls-57" d="M1057.64,412.86s-14.87-4.08-22.53-10.91c0,0-6.51-4.19-10.7-15.23,0,0,4.64,15.99,17.89,22.47,.07,.03,.13,.05,.19,.09,.61,.29,8.08,3.96,13.61,5.37,0,0,1.73-1.35,1.54-1.78Z"/>
      <path class="cls-11" d="M1069.71,322.96s9.58,5.03,13.89,7.96c4.32,2.94,19.46,4.69,19.46,4.69"/>
      <path class="cls-25" d="M1066,375.08s-8.34,2.31-13.97,1.19c0,0,.14,2.4,2.51,2.89,0,0,9.65,1.55,13.83,5.72,0,0,7.03,1.04,12.42,4.94,0,0,.51,.73,1.93,.97,0,0-4.48-6.98-3.33-9.34,0,0-6.32,.63-8.81-4.81,0,0-1.92,.18-4.58-1.57Z"/>
      <path class="cls-5" d="M1081.51,359.73l.86,15.49s-.29,8.24-6.32,6.04c-5.01-1.82-4.71-3.49-4.71-3.49"/>
      <path class="cls-11" d="M1048.35,379.12s1.18-5.99,5.06-6.12c3.88-.13,7.95-6.16,7.95-6.16"/>
      <g>
        <path class="cls-28" d="M1056.82,346.05s.1-.3,.41-.48c1.03-.58,3.28-1.56,5.97-.63,3.02,1.03,3.71,4.43,3.93,5.64,.04,.21-.02,.36-.02,.36,0,0-.05,.17-.19,.25-.67,.39-2.81,1.41-5.69,.47-1.71-.56-3.79-2.29-4.48-5.1-.05-.2,.01-.4,.06-.51Z"/>
        <circle class="cls-57" cx="1062.87" cy="348.71" r="3.3"/>
        <circle class="cls-28" cx="1061.11" cy="347.4" r=".9"/>
        <path class="cls-6" d="M1067.32,350.64s-1.21-8.46-10.2-5.14"/>
      </g>
      <g>
        <path class="cls-28" d="M1091.09,360.69s.05-.3,.31-.5c.87-.69,2.82-1.92,5.46-1.44,2.95,.53,4.09,3.59,4.46,4.68,.07,.19,.03,.34,.03,.34,0,0-.02,.17-.14,.26-.57,.46-2.41,1.71-5.22,1.25-1.67-.27-3.85-1.58-4.89-4.1-.07-.18-.04-.38-.02-.48Z"/>
        <circle class="cls-57" cx="1097.09" cy="362.29" r="3.09"/>
        <circle class="cls-28" cx="1095.17" cy="361.36" r=".87"/>
        <path class="cls-6" d="M1101.36,363.53s-2.03-8.07-10.07-3.24"/>
      </g>
      <g>
        <path class="cls-46" d="M1021.68,299.25s14.04-21.17,19.8-25.75,53.54-1.6,64.92,12.41c0,0,1.33,5.55,.05,7.39"/>
        <path class="cls-20" d="M1015.53,324.61s-34.01-6.61-34.01-11.06c0-10.35,24.63-12.64,24.63-12.64,0,0,59.34-7.27,80.97-10.62,16.38-2.53,53-3.73,55.56,13.97,2.57,17.7-30.87,27.46-30.87,27.46,0,0-54.64-23.23-94.41-13.55,0,0-1.99,3.41-1.88,6.44Z"/>
        <path class="cls-11" d="M1111.82,331.72s32.14-13.37,18.5-27.49c-10.97-11.35-36.18-7.96-62.8-.66-26.62,7.29-63.46,6.58-63.46,6.58,0,0-16.48,4.85,11.48,14.47"/>
      </g>
    </g>
    <g>
      <path class="cls-48" d="M1298.75,943.06s-1.13,.2-1.26-4.12c0,0-6.62,2.09-15.12,1.31,0,0-.8,4.07-5.94,5.57,0,0-7.3,3.07-1.9,7.13s22.15-3.27,22.15-3.27l2.07-6.61Z"/>
      <path class="cls-24" d="M1298.75,943.06s3.94,5.94,1.97,9.97c0,0-1.97,6.15-16.63,4.24,0,0-21.48,6.9-22.36-3.35,0,0-1.28-6.2,14.7-8.1,0,0-7.26,6.59,5.03,4.88,0,0,13.57-.21,17.29-7.64Z"/>
      <path class="cls-48" d="M1322.6,944.68s-1.13,.2-1.26-4.12c0,0-6.62,2.09-15.12,1.31,0,0-.8,4.07-5.94,5.57,0,0-7.3,3.07-1.9,7.13,5.4,4.06,22.15-3.27,22.15-3.27l2.07-6.61Z"/>
      <path class="cls-28" d="M1336.3,819.7s6.35,16.66,4.1,33.82c0,0-6.28,30.12-9.91,36.21,0,0,.1,24.48-9.15,50.82,0,0-8.75,5.04-15.77,1.22l-6.78-36.79-.03,6.81-1.28,27.14s-5.13,7.66-15.12,1.31l-12.53-42.89s-2.62-9.19-1.94-14.54l2.5-57.27s38.84,13.23,65.9-5.85Z"/>
      <path class="cls-24" d="M1322.6,944.68s3.94,5.94,1.97,9.97c0,0-1.97,6.15-16.63,4.24,0,0-21.48,6.9-22.36-3.35,0,0-1.28-6.2,14.7-8.1,0,0-7.26,6.59,5.03,4.88,0,0,13.57-.21,17.29-7.64Z"/>
      <path class="cls-2" d="M1298.8,904.99s-2.49-1.61-3.48-18.89c-.99-17.28-.35-32.85-.35-32.85"/>
      <path class="cls-48" d="M1339.61,759.78l8.53,3.09c.54-10.83,8.03-24.17,8.03-24.17l-.87-13.79,2.82-6.72s3.7-1.62,4.84-.52c0,0,5.2-1.47,4.17,2.91,0,0,2.74-.06,3.01,3.22,0,0,1.82-.61,1.99,2.04,0,0,2.97-.22,2.37,4.03s-7.5,11.81-7.5,11.81l-2.3,3.57s-1.41,35.75-7.9,37.91c-6.5,2.17-17.05,1.62-17.05,1.62"/>
      <path class="cls-12" d="M1362.96,717.67s1.98,.81,1.28,2.22c-.69,1.41-2.25,1.62-2.25,1.62,0,0-1.94,2.53-1.39,3.61,.55,1.08,5.54,4.55,1.57,11.84"/>
      <path class="cls-12" d="M1367.14,720.58s-6.23,4.32-3.08,7.75c0,0,2,1.52,5.54-5.11"/>
      <path class="cls-12" d="M1372.14,725.85s-3.43,7.22-5.41,4.77c0,0-1.01-1.09-.35-2.7"/>
      <path class="cls-12" d="M1372.85,729.97s-1.87,3.73-3.18,2.85-1.04-1.76-1.04-1.76"/>
      <path class="cls-35" d="M1321.35,744.19c12.45,3.79,21.38,15.16,21.38,15.16,0,0,.27,16.51-2.98,25.44,0,0-5.68,1.35-10.36-2.01"/>
      <path class="cls-48" d="M1311.95,723.6s-1.47,14.01,3.61,21.66c0,0-6.46,18.45-23.95,20.85,0,0-12.05,3.09-12.8-16.6,0,0,4.46-3.07,3.63-8.19l29.51-17.72Z"/>
      <path class="cls-48" d="M1317.55,712.99s5.28-7.09,9.44-4.14c4.17,2.95-.23,11.93-.23,11.93,0,0-5.82,7.3-11.18,3.21,0,0-7.68,14.78-28.83,15.22,0,0-8.91,.75-15.36-8.59-6.22-9.01-2.09-23.41-2.09-23.41,0,0-.92-2.56-.16-11.59s4.24-19.39,16.18-22.27c11.94-2.89,19.29-3.82,29.66,5.63,10.37,9.45,2.58,33.99,2.58,33.99Z"/>
      <path class="cls-42" d="M1288.73,723.46s-3-1.13-6.9-.66c0,0-3.03-.51-6.14-.08,0,0-.79,4.13,4.26,5.78,5.05,1.65,8.61-1.82,8.79-5.03Z"/>
      <path class="cls-30" d="M1288.23,723.64s-.36,4.86-6.68,4.33c-5.74-.49-5.42-4.81-5.42-4.81,0,0,6.44,.84,12.1,.49Z"/>
      <path class="cls-50" d="M1293.62,698.84s5.1-.9,9.05,2.2c0,0,2.42-.72-.62-2.41-3.04-1.69-5.3-2.81-8.49-1.54,0,0-1.42,1.01,.06,1.75Z"/>
      <path class="cls-50" d="M1276.8,697.62s-3.01-2-7.42,.4c0,0-1.57-1.04,.16-1.94,2.57-1.32,4.32-1.38,7.61-.18,0,0,1.23,1.23-.35,1.71Z"/>
      <path class="cls-28" d="M1287.35,723.66s-1.8,2.16-6.77,1.5c0,0-3.1-.11-4.25-1.85,0,0,6.43,.69,11.02,.36Z"/>
      <path class="cls-57" d="M1284.42,739.09s4.77,1.08,12.44-1.29c0,0,2.79-.39,8.48-3.55,0,0-4.22,3.44-12.13,5.73,0,0-3.34,1.06-9.38,.54,0,0,.41-.46,.59-1.42Z"/>
      <path class="cls-5" d="M1325.5,715.26s-1.76-3.23-4.28-.3c-2.53,2.93-2.74,3.95-2.74,3.95,0,0,3.66-4.68,4.61-.59"/>
      <path class="cls-5" d="M1279.13,710.57s-4.43,5.52,2.37,6.79"/>
      <path class="cls-7" d="M1291.7,706.77s3.09-4.59,7.39-.12"/>
      <path class="cls-7" d="M1270.77,704.38s3.42-4.07,6.69,.94"/>
      <path class="cls-48" d="M1246.1,732.39l6.49-11.47,.38-6.93s-2.5-2.93-3.93-2.46c0,0-3.84-3.43-4.79,.76,0,0-2.33-1.19-3.92,1.51,0,0-1.31-1.28-2.56,.93,0,0-2.45-1.42-3.71,2.47s1.52,13.25,1.52,13.25l.49,4.02"/>
      <path class="cls-13" d="M1249.03,711.53s-2.03-.13-2.02,1.37,1.26,2.32,1.26,2.32c0,0,.61,2.98-.31,3.68s-6.65,1.6-6.27,9.51"/>
      <path class="cls-13" d="M1244.24,712.28s3.54,6.3-.58,7.93c0,0-2.35,.47-2.62-6.69"/>
      <path class="cls-13" d="M1237.75,714.72s-.06,7.62,2.66,6.35c0,0,1.32-.52,1.43-2.17"/>
      <path class="cls-13" d="M1235.43,717.96s.05,3.98,1.54,3.77,1.62-1.08,1.62-1.08"/>
      <path class="cls-48" d="M1271.57,747.1s-9.45,.25-21.43,3.28c0,0-1.98-8.91-3.85-14.97l-.19-3.03-10.04,.93-.44,3.52s-5.5,25.77,1.61,29.49c10.7,5.59,31.15,7.19,31.15,7.19"/>
      <path class="cls-56" d="M1326.5,686s6.27,10.34,1.44,23.13c0,0-4.99-3.73-10.03,5.08,0,0-8.52-8.36-8.18-31.97,0,0-21.28,4.03-32.15-2.44,0,0-6.37,4.33-7.3,15.67l-1.19,6.65c-1.65-20.22,7.64-28.67,7.64-28.67,16.34-15.23,35.05-6.27,38.87-2.66,0,0,7.85-9.26,18.08-.16,0,0,5.62,3.96,3.89,9.06,0,0,10.72-3.91,11.47,8.64,0,0,8.15,3.5,2.65,12.73,0,0,4.69,6.57-2.7,10.97,0,0-8.32,5.38-11.2-2.51,0,0-7.29,3.35-6.22-3.74,0,0-7.63,.15-7.44-6.61,.19-6.75,2.36-13.19,2.36-13.19Z"/>
      <path class="cls-35" d="M1336.71,822.95s-5.02-21.89-6.02-38.85c-1.03-17.4,1.86-29.98-6.9-38.28,0,0-8.75-5.42-10.83-6.23,0,0-5.63,21.69-26.38,18.55,0,0-10.98-3.22-1.34-17.97,0,0-21.82,2.13-24.53,7.81-1.09,2.28-1.6,20.82,.27,25.17,.81,1.89,7.31,1.62,7.39,.36,.44-7.2,.93,15.36,.93,15.36,0,0-5.47,28.35,1.1,36.67,8.55,10.83,40.59,7.6,66.31-2.6Z"/>
      <path class="cls-3" d="M1267.88,773.51c.04-2.88,.22-5.58,.65-7.5"/>
      <path class="cls-3" d="M1334.82,785.02s-10.14-3.35-11.74-3.99"/>
    </g>
  </g>
</svg>