<?xml version="1.0" encoding="UTF-8"?>
<svg xmlns="http://www.w3.org/2000/svg" xmlns:xlink="http://www.w3.org/1999/xlink" viewBox="0 0 1333.86 1108.02">
  <defs>
    <style>
      .cls-1, .cls-2, .cls-3, .cls-4, .cls-5, .cls-6, .cls-7, .cls-8, .cls-9, .cls-10, .cls-11, .cls-12, .cls-13 {
        fill: none;
      }

      .cls-2 {
        stroke-width: 1.5px;
      }

      .cls-2, .cls-3, .cls-4, .cls-5, .cls-14, .cls-6, .cls-7, .cls-15, .cls-16, .cls-8, .cls-9, .cls-10, .cls-11, .cls-12, .cls-13 {
        stroke-miterlimit: 10;
      }

      .cls-2, .cls-4, .cls-7, .cls-8, .cls-12 {
        stroke: #231f20;
      }

      .cls-17 {
        clip-path: url(#clippath);
      }

      .cls-3, .cls-4, .cls-5, .cls-16 {
        stroke-width: .8px;
      }

      .cls-3, .cls-13 {
        stroke: #3c2415;
      }

      .cls-5, .cls-16 {
        stroke: #006838;
      }

      .cls-18 {
        fill: #f7daa6;
      }

      .cls-19, .cls-14, .cls-15 {
        fill: #e6e7e8;
      }

      .cls-20, .cls-16 {
        fill: #fff;
      }

      .cls-21 {
        fill: #803435;
      }

      .cls-22 {
        fill: #ae8578;
      }

      .cls-23 {
        fill: #b1dcc4;
      }

      .cls-24 {
        fill: #be9e7d;
      }

      .cls-25 {
        fill: #bfbfbf;
      }

      .cls-26 {
        fill: #d1d3d4;
      }

      .cls-27 {
        fill: #e2c799;
      }

      .cls-28 {
        fill: #d4d5d6;
      }

      .cls-29 {
        fill: #134a7e;
      }

      .cls-30 {
        fill: #231f20;
      }

      .cls-31 {
        fill: #26130f;
      }

      .cls-14 {
        stroke: #58595b;
        stroke-width: .2px;
      }

      .cls-6 {
        stroke: #fff;
        stroke-linecap: round;
      }

      .cls-7 {
        stroke-width: .7px;
      }

      .cls-15, .cls-10 {
        stroke: #6d6e71;
      }

      .cls-9 {
        stroke: #d1d3d4;
      }

      .cls-11 {
        stroke: #754c29;
      }

      .cls-12 {
        stroke-width: 1.2px;
      }

      .cls-13 {
        stroke-width: .5px;
      }
    </style>
    <clipPath id="clippath">
      <rect class="cls-1" x="134.99" y="58.76" width="1163.29" height="941.05"/>
    </clipPath>
  </defs>
  <g id="Layer_2" data-name="Layer 2">
    <rect class="cls-23" width="1333.86" height="999.57"/>
  </g>
  <g id="Layer_1" data-name="Layer 1">
    <g class="cls-17">
      <polygon class="cls-24" points="769.09 746.04 762.88 895.79 737.19 1014.53 847.95 1016.3 846.17 760.22 769.09 746.04"/>
      <path class="cls-24" d="M1091.62,787.69l25.7,223.29,92.15-1.77s14.18-150.63-35.44-248.99l-82.41,27.47Z"/>
      <g>
        <path class="cls-24" d="M348.52,308.96s1.29,39.93-19.07,78.95c0,0-5.09,142.51,103.49,153.54,0,0,70-44.76,59.04-120.36-1.22-8.43-12.02-17.41-15.23-26.57l-128.23-85.56Z"/>
        <line class="cls-13" x1="368.88" y1="459.91" x2="423.47" y2="572.24"/>
        <path class="cls-24" d="M625.74,564.2c21.18,60.14,98.28,120.25,98.28,120.25,66.98-15.53,127.02-55.37,127.02-55.37l6.12,114.83s-205.76,97.61-246.04,46.83c-44.91-56.61-19.81-77.25-19.81-77.25"/>
        <path class="cls-3" d="M598.49,997.69s24.98-248.62-5.65-360.94"/>
        <path class="cls-3" d="M724.21,684.82s-38.99,33.98-36.33,61.47"/>
        <g>
          <polygon class="cls-25" points="319.64 374.48 335.9 372.02 332.88 390.33 319.64 374.48"/>
          <path class="cls-19" d="M305.9,391.91s-44.01,24.32-89.68,70.93c0,0-50.63,64.46-57.58,112.98,0,0-9.93,32.91-3.61,121.4,0,0,13.39,98.33,48.79,112.24l-18.59,225.31s44.68,70.4,264.08,73.25c0,0,90.19,1.07,136.85-46.49,0,0,27.85-137.2,24.51-330.98,0,0,32.77-110.95,50.06-118.05l-17.45-59.47s-6.28-57.4-64.68-97.59c0,0-44.22-33.05-77.1-46.44l-63.99,46.68-5.89,86.85-25.75-74.29s-3.6-21.64-99.97-76.31Z"/>
          <path class="cls-28" d="M305.9,391.91s83.48,48.68,99.97,76.31l-2.29-27.38s-61.91-38.21-83.94-66.36l-13.74,17.42Z"/>
          <path class="cls-28" d="M471.41,390.55s31.29-.99,30.1,18.43l-63.99,46.68-2.06-16.18s30.17-14.45,49.97-37.85c0,0-13.28-1.71-14.03-11.08Z"/>
          <path class="cls-10" d="M431.63,542.51s21.01,181.09,17.69,565.5"/>
          <ellipse class="cls-26" cx="413.42" cy="553.25" rx="4.99" ry="5.18"/>
          <ellipse class="cls-26" cx="426.07" cy="640.17" rx="4.99" ry="5.18"/>
          <ellipse class="cls-26" cx="432.32" cy="734.29" rx="4.99" ry="5.18"/>
          <ellipse class="cls-26" cx="434.06" cy="820.14" rx="4.99" ry="5.18"/>
          <ellipse class="cls-26" cx="436.58" cy="928.07" rx="4.99" ry="5.18"/>
          <ellipse class="cls-26" cx="437.81" cy="1043.78" rx="4.99" ry="5.18"/>
          <path class="cls-26" d="M285.63,600.24l4.29,77.3s44.23,42.54,90.18,0v-84.46s-31.49,18.61-94.48,7.16Z"/>
          <path class="cls-26" d="M491.77,600.24l4.29,77.3s44.23,42.54,90.18,0v-84.46s-31.49,18.61-94.48,7.16Z"/>
          <path class="cls-26" d="M282.77,935.26l4.87,87.61s50.12,48.21,102.21,0v-95.72s-35.69,21.09-107.08,8.11Z"/>
          <path class="cls-26" d="M483.46,935.26l4.87,87.61s50.12,48.21,102.21,0v-95.72s-35.69,21.09-107.08,8.11Z"/>
          <path class="cls-9" d="M278.29,403.5s88.31,181.26,56.82,694.45"/>
          <path class="cls-9" d="M290.29,399.13s87.12,187.79,55.62,700.97"/>
          <path class="cls-9" d="M301.94,393.96s87.31,193.71,55.82,706.9"/>
          <path class="cls-9" d="M266.29,408.95s88.79,174.36,57.3,687.55"/>
          <path class="cls-9" d="M499.67,409.26s81.26,174.58,27.39,685.9"/>
          <path class="cls-9" d="M515.24,417.62s76.72,162.41,22.85,673.74"/>
          <path class="cls-9" d="M531.09,425.54s74.18,148.02,20.31,659.34"/>
          <path class="cls-9" d="M487.44,414.18s81.32,173.45,27.44,684.78"/>
        </g>
        <path class="cls-24" d="M554.28,154.01s16.98,33.11,1.51,104.97c0,0-5.44,17.02-4.87,26.7,.57,9.68-4.78,24.29-6.53,34.92-9.89,60.14-40.44,73.38-40.44,73.38,0,0-11.25,18.37-45.59,13.97-34.34-4.4-66.29-20.24-76.62-36.41-10.33-16.17-33.37-44.62-33.34-67.25,0,0-21,1.81-25.9-23.83,0,0-16.88-41.14,6.64-47.98,23.52-6.84,32.09,25.58,32.09,25.58,0,0-21.96-93.98,33.52-122.06,0,0,77.77-43.23,159.54,18.02Z"/>
        <path class="cls-19" d="M475.13,223.6s-29.08-8.14-54.33,2.82c0,0,12.2-19.76,54.98-11.44,0,0,7.13,5.36-.65,8.62Z"/>
        <path class="cls-19" d="M557.4,248.69c-15.85-13.8-27.71-13.98-27.71-13.98-4.9-6.85,3.98-7.67,3.98-7.67,12.7,4.8,21.45,10.36,27.47,15.74,0,0-2.87,6.67-3.73,5.92Z"/>
        <path class="cls-8" d="M325.58,248.56s10.74-10.81,17.4,3.76c6.66,14.57,6.31,18.91,6.31,18.91,0,0-9.15-22.86-17.65-7.71"/>
        <path class="cls-14" d="M320.98,235.37s19-12.32,28.78,6.53c9.78,18.85,6.46,26.26,6.46,26.26l11.43,1.57s-28.12-65.49,13.61-83.73c0,0-1.58-46.44,33.72-47.76,35.31-1.32,57.04-32.7,142.88,23.36,0,0,16.16-50.07-74.42-77.86,0,0-61.14-19.51-84.25,9.61,0,0-42.22-2.24-62.13,51.01-19.9,53.25-16.1,91.01-16.1,91.01Z"/>
        <path class="cls-31" d="M481.03,407.55s-43.33,3.44-75.24-15.92c0,0-18.12-7.48-33.55-33.09,0,0,18.81,37.72,54.73,47.87,.18,.05,.33,.09,.52,.13,29.4,6.44,38.04,6,57.66,4.45,0,0-3.43-2.43-4.1-3.44Z"/>
        <path class="cls-4" d="M456.19,179.22s26.14,8.19,38.22,13.55c12.08,5.36,50.6,2.88,50.6,2.88"/>
        <path class="cls-19" d="M470.55,310.72s-19.73,9.52-34.27,9.3c0,0,1.43,5.92,7.56,6.07,0,0,24.74-.51,37.05,7.98,0,0,17.99-.6,33.16,6.68,0,0,1.61,1.59,5.26,1.54,0,0-14.32-15.36-12.52-21.76,0,0-15.45,4.43-24.13-7.98,0,0-4.7,1.31-12.12-1.83Z"/>
        <path class="cls-8" d="M502.24,265.46l9.15,38.2s3.02,20.65-13.01,17.92c-13.3-2.27-13.31-6.55-13.31-6.55"/>
        <path class="cls-4" d="M428.41,328.77s.24-15.45,9.84-17.53c9.6-2.08,17.02-18.95,17.02-18.95"/>
        <g>
          <path class="cls-20" d="M435.62,241.78s.12-.79,.81-1.34c2.28-1.85,7.38-5.17,14.37-4.04,7.82,1.27,10.94,9.33,11.98,12.19,.18,.49,.09,.89,.09,.89,0,0-.04,.44-.36,.7-1.49,1.25-6.31,4.61-13.74,3.52-4.42-.65-10.23-4.03-13.09-10.64-.2-.46-.13-.99-.07-1.28Z"/>
          <circle class="cls-31" cx="451.53" cy="245.79" r="8.2"/>
          <circle class="cls-20" cx="448.7" cy="240.4" r="2.25"/>
          <path class="cls-7" d="M463.25,248.68s-6.48-20.23-27.12-8.36"/>
        </g>
        <g>
          <path class="cls-20" d="M525.67,263.42s0-.75,.56-1.37c1.86-2.05,6.13-5.87,12.79-5.81,7.46,.07,11.51,7.11,12.88,9.62,.24,.43,.21,.81,.21,.81,0,0,.02,.42-.23,.7-1.2,1.37-5.21,5.19-12.27,5.24-4.2,.03-10.09-2.29-13.69-8.02-.25-.4-.26-.91-.25-1.18Z"/>
          <circle class="cls-31" cx="541.05" cy="264.86" r="7.68"/>
          <circle class="cls-20" cx="537.31" cy="259.68" r="2.15"/>
          <path class="cls-7" d="M552.03,266.12s-8.34-18.94-26.03-3.77"/>
        </g>
        <path class="cls-31" d="M485.88,215.28s3.85,8.04-2.45,11.19c0,0,10.14-2.1,2.45-11.19Z"/>
        <path class="cls-22" d="M439.78,338.59s22.87-12.26,42.63-4.36c0,0,19.08,.59,26.74,19.2,0,0-13.03,13.43-31.83,7.05-18.79-6.39-28.57-10.81-37.55-21.89Z"/>
        <path class="cls-21" d="M443.58,339.09s30.21-4.14,39.13-.24c0,0,13.95,1.75,24.2,14.41,0,0-18.54-3.08-28.33,0,0,0-18.67-9.94-35-14.16Z"/>
        <path class="cls-20" d="M461.45,337.79s25.08-2.99,37.85,8.6c0,0-19.44-4.9-37.85-8.6Z"/>
        <g>
          <path class="cls-27" d="M323.26,169.48s22.46-58.88,33.91-73.11c11.45-14.23,128.73-33.05,163.91-5.34,0,0,6.24,12.7,4.15,17.85"/>
          <path class="cls-18" d="M322.2,234.21s-85.92,2.54-88.35-8.24c-5.65-25.06,52.73-44.02,52.73-44.02,0,0,139.67-49.93,190.21-69.83,38.27-15.06,126.25-37.91,142.1,3.54,15.86,41.45-59.76,83.29-59.76,83.29,0,0-144.91-26.45-235.89,18.65,0,0-2.97,9.34-1.04,16.61Z"/>
          <path class="cls-2" d="M559.13,198.95s70.51-49.88,29.79-76.61c-32.75-21.5-91.9,.45-152.37,32.61-60.46,32.16-150.03,50.5-150.03,50.5,0,0-37.24,20.72,35.67,28.76"/>
        </g>
      </g>
      <g>
        <path class="cls-24" d="M1018.02,478.68s-11.08,35.1,6.82,69.39c0,0,4.47,125.25-90.95,134.94,0,0-66.57-48.78-38.51-129.14l122.64-75.19Z"/>
        <path class="cls-29" d="M1020.43,538.49s71.66,24.84,114.66,80.44c45.25,58.5,55.49,144.13,55.49,144.13,0,0-38.7,53.6-89.99,40.78,0,0,31.76,112.44,33.04,202.2,0,0-173.28,62.59-311.23-1.39,0,0-2.22-154.85-3.51-226.65,0,0-44.09-3.33-56.91-32.82l20.75-105.63s8.04-48.89,118.23-88.5c0,0-26.93,37.19,17.95,47.44,0,0,74.58,7.98,101.51-59.98Z"/>
        <path class="cls-24" d="M862.64,332.05s-22.15,20.89-16.46,75.96c0,0,5.06,13.93,2.53,29.75,0,0-8.23,28.48,1.9,51.27,10.13,22.79,25.32,46.21,25.32,46.21,0,0,12.66,12.66,29.75,9.49,0,0,25.95,8.86,48.74-5.7,22.79-14.56,62.03-60.13,62.03-60.13,0,0,20.89,5.7,27.22-15.82,6.33-21.52,15.82-37.98,2.53-50.64-13.29-12.66-29.75,22.15-29.75,22.15,0,0-8.86-10.76-6.33-26.59,0,0,6.7-31.74-12.03-69,0,0-58.73-25.49-135.46-6.96Z"/>
        <path class="cls-30" d="M923.01,391.96s30.36-1.72,52.52,15.04c0,0-7.34-22.72-51.15-23.9,0,0-8.23,3.83-1.38,8.86Z"/>
        <path class="cls-30" d="M846.71,401.56c17.55-10.65,29.04-8.72,29.04-8.72,5.85-5.82-2.59-8.2-2.59-8.2-13.05,2.42-22.4,6.29-29.09,10.47,0,0,1.68,7.03,2.64,6.44Z"/>
        <path class="cls-31" d="M907.38,546.41s31.7,4.83,45.04-6.32c0,0,15.52-7.87,33.67-28.21,0,0-22.1,36.39-51.38,39.79,0,0-13.77,2.41-27.33-5.27,0,0,.55,3.16,0,0Z"/>
        <path class="cls-12" d="M881.32,444.78s-13.75,29.74,15.22,25.7"/>
        <path class="cls-12" d="M1044.53,434.91s-12.56-19.46-21.47,18.14c0,0,10.56-18.03,15.81-5.67"/>
        <path class="cls-30" d="M915.58,381.34s-5.47,7.55,.78,12.5c0,0-11.98-5.73-.78-12.5Z"/>
        <g>
          <path class="cls-20" d="M953.16,418.88s.03-.69-.46-1.28c-1.62-1.96-5.39-5.66-11.52-5.89-6.87-.26-10.89,6.05-12.27,8.31-.24,.39-.23,.74-.23,.74,0,0-.04,.38,.18,.66,1.05,1.31,4.57,5,11.07,5.34,3.87,.2,9.38-1.68,12.94-6.8,.25-.36,.28-.82,.28-1.07Z"/>
          <circle class="cls-31" cx="938.95" cy="419.57" r="7.11"/>
          <circle class="cls-20" cx="943.49" cy="418.29" r="1.95"/>
          <path class="cls-8" d="M928.49,420.01s8.97-16.08,24.48-2.46"/>
        </g>
        <g>
          <path class="cls-20" d="M876.41,421.72s.13-.64-.24-1.26c-1.23-2.06-4.2-6.03-9.87-7.12-6.35-1.22-10.99,4.07-12.6,5.97-.28,.33-.32,.65-.32,.65,0,0-.09,.35,.08,.64,.79,1.37,3.54,5.3,9.53,6.55,3.57,.74,8.96-.22,13.01-4.48,.28-.3,.38-.72,.42-.96Z"/>
          <circle class="cls-31" cx="863.09" cy="420.31" r="6.66"/>
          <circle class="cls-20" cx="867.68" cy="419.92" r="1.87"/>
          <path class="cls-8" d="M853.55,419.5s10.33-14.67,22.77,1.25"/>
        </g>
        <line class="cls-16" x1="818.91" y1="777.98" x2="816.93" y2="692.88"/>
        <path class="cls-22" d="M926.28,490.71s-11.53-2.89-24.83,1.68c0,0-11.8-1.7-22.18,1.2,0,0,2.19,18.78,20.1,22,17.91,3.21,27.85-13.89,26.92-24.88Z"/>
        <path class="cls-21" d="M923.51,492.2s1.07,16.67-20.61,17.85c-19.69,1.07-20.65-13.77-20.65-13.77,0,0,22.24-.2,41.27-4.08Z"/>
        <path class="cls-20" d="M920.84,492.59s-4.95,8.02-21.78,8.12c0,0-10.32,1.08-14.96-4.19,0,0,21.65-.7,36.74-3.93Z"/>
        <path class="cls-6" d="M853.35,443.04c-.42-10.83,1.66-14.63,1.66-14.63"/>
        <path class="cls-6" d="M861.45,440.9s-.59,2.44-.77,4.68"/>
        <path class="cls-6" d="M954.41,427.89s2.06,4.05,2.33,6.65"/>
        <path class="cls-6" d="M951.77,435.62s1.14,1.51,1.42,4.12"/>
        <path class="cls-30" d="M844.27,334.15c1.67,40.33,.77,71.09,.77,71.09,1.66-55.66,13.41-55.81,13.41-55.81,45.11-32.11,125.41-2.37,125.41-2.37,26.94,31.15,29.05,94.06,29.05,94.06,17.76-40.83,33.62-27.02,33.62-27.02,18.21-103.75-49.49-110.71-49.49-110.71,0,0-27.41-28.35-54.69-14.98,0,0-14.68-16.43-38.3-1.88,0,0-26.53-10.05-37.68,12.03,0,0-23.85-7.08-22.09,35.59Z"/>
      </g>
      <path class="cls-5" d="M1100.6,803.83s-80.75-135.76-24.93-195.13"/>
    </g>
    <g>
      <path class="cls-24" d="M286.73,810.85c27.64,43.19,90.55,60.42,90.55,60.42,90.38,15.36,178.81-178.7,178.81-178.7l-50.33-26.49-108.43,74.56-91.66-164.13"/>
      <path class="cls-24" d="M505.76,666.08c1.69-5.32,3.22-10.68,4.52-16.07l-12.6-76.63,31.49-78.73s11.55-6.3,11.55,12.6-10.5,54.59-10.5,54.59c0,0,26.84-2.23,32.54,0,6.44,2.52,16.31,8.55,16.31,8.55,0,0,6.19,5.85,3.85,10.37,0,0,24.07,5.07-3.65,32.12,0,0,4.01,44.64-20.6,62.96,0,0-.84,6.2-2.58,16.74"/>
      <path class="cls-11" d="M579.28,612.88s-16.21,12.66-17.1,6.9,1.33-13.73,7.53-16.84"/>
      <path class="cls-11" d="M582.93,580.75s-14.1,1.81-17.2,7.57"/>
      <path class="cls-11" d="M567.5,564.4s-19.49,2.22-27.03,12.85"/>
      <path class="cls-11" d="M579.09,570.38s-19.56,3.32-24.88,11.29"/>
      <path class="cls-15" d="M267.68,522.88s78.08,95.43,97.55,152.68c0,0-17.48,124.33-80.46,156.39"/>
    </g>
  </g>
</svg>