<?xml version="1.0" encoding="UTF-8"?>
<svg id="Layer_1" data-name="Layer 1" xmlns="http://www.w3.org/2000/svg" viewBox="0 0 1333.86 998.78">
  <defs>
    <style>
      .cls-1 {
        stroke-width: 1.5px;
      }

      .cls-1, .cls-2, .cls-3, .cls-4, .cls-5, .cls-6, .cls-7, .cls-8, .cls-9, .cls-10, .cls-11, .cls-12 {
        stroke-miterlimit: 10;
      }

      .cls-1, .cls-2, .cls-4, .cls-6, .cls-7, .cls-8, .cls-9, .cls-10, .cls-11, .cls-12 {
        fill: none;
      }

      .cls-1, .cls-4, .cls-6, .cls-11 {
        stroke: #231f20;
      }

      .cls-2 {
        stroke: #603913;
        stroke-width: .8px;
      }

      .cls-13 {
        fill: #f7daa6;
      }

      .cls-14, .cls-3, .cls-5 {
        fill: #e6e7e8;
      }

      .cls-15 {
        fill: #fff;
      }

      .cls-16 {
        fill: #939598;
      }

      .cls-17 {
        fill: #ae8578;
      }

      .cls-18 {
        fill: #b1dcc4;
      }

      .cls-19 {
        fill: #be9e7d;
      }

      .cls-20 {
        fill: #bfbfbf;
      }

      .cls-21 {
        fill: #d1d3d4;
      }

      .cls-22 {
        fill: #e2c799;
      }

      .cls-23 {
        fill: #d4d5d6;
      }

      .cls-24 {
        fill: #134a7e;
      }

      .cls-25 {
        fill: #231f20;
      }

      .cls-26 {
        fill: #26130f;
      }

      .cls-3 {
        stroke: #58595b;
        stroke-width: .2px;
      }

      .cls-4 {
        stroke-width: .7px;
      }

      .cls-5, .cls-9 {
        stroke: #6d6e71;
      }

      .cls-7 {
        stroke: #006838;
      }

      .cls-8 {
        stroke: #d1d3d4;
      }

      .cls-10 {
        stroke-width: .6px;
      }

      .cls-10, .cls-12 {
        stroke: #3c2415;
      }

      .cls-11 {
        stroke-width: 1.2px;
      }

      .cls-12 {
        stroke-width: .5px;
      }
    </style>
  </defs>
  <rect class="cls-18" width="1333.86" height="998.78"/>
  <g>
    <path class="cls-19" d="M423.67,272.44s1.26,38.93-18.59,76.96c0,0-4.96,138.92,100.88,149.67,0,0,68.24-43.63,57.55-117.33-1.19-8.21-11.72-16.97-14.84-25.9l-125-83.4Z"/>
    <path class="cls-10" d="M516.99,994.15c2.4-16.66,6.12-63.2,7.53-79.94"/>
    <g>
      <polygon class="cls-20" points="393.77 337.82 410.03 335.36 407.01 353.67 393.77 337.82"/>
      <path class="cls-14" d="M665.35,998.78s22.8-111.12,19.46-304.91c0,0,32.77-110.95,50.06-118.05l-17.45-59.47s-6.28-57.4-64.68-97.59c0,0-44.22-33.05-77.1-46.44l-63.99,46.68-5.89,86.85-25.75-74.29s-3.6-21.64-99.97-76.31c0,0-61.46,14.63-107.13,61.24,0,0-74.81,56.72-76.62,129.83,0,0-8,115.79,7.36,249.18,0,0,29.97,8.2,59.46-17.12l-3.73,219.73"/>
      <path class="cls-23" d="M380.03,355.24s83.48,48.68,99.97,76.31l-2.29-27.38s-61.91-38.21-83.94-66.36l-13.74,17.42Z"/>
      <path class="cls-23" d="M545.54,353.88s31.29-.99,30.1,18.43l-63.99,46.68-2.06-16.18s30.17-14.45,49.97-37.85c0,0-13.28-1.71-14.03-11.08Z"/>
      <path class="cls-9" d="M505.76,505.85s20.85,108.06,17.53,492.47"/>
      <ellipse class="cls-21" cx="487.55" cy="516.58" rx="4.99" ry="5.18"/>
      <ellipse class="cls-21" cx="500.2" cy="603.51" rx="4.99" ry="5.18"/>
      <ellipse class="cls-21" cx="506.45" cy="697.62" rx="4.99" ry="5.18"/>
      <ellipse class="cls-21" cx="508.19" cy="783.47" rx="4.99" ry="5.18"/>
      <ellipse class="cls-21" cx="510.71" cy="891.41" rx="4.99" ry="5.18"/>
      <path class="cls-21" d="M359.76,563.57l4.29,77.3s44.23,42.54,90.18,0v-84.46s-31.49,18.61-94.48,7.16Z"/>
      <path class="cls-21" d="M565.9,563.57l4.29,77.3s44.23,42.54,90.18,0v-84.46s-31.49,18.61-94.48,7.16Z"/>
      <path class="cls-21" d="M463.98,996.97v-95.72s-35.69,21.09-107.08,8.11l4.87,87.61"/>
      <path class="cls-21" d="M663.4,997.61v-95.72s-35.69,21.09-107.08,8.11l4.87,87.61"/>
      <path class="cls-8" d="M352.42,366.83s91.45,118.3,59.95,631.49"/>
      <path class="cls-8" d="M364.42,362.47s90.22,121.4,58.72,634.59"/>
      <path class="cls-8" d="M376.07,357.29s91.25,127.84,59.76,641.03"/>
      <path class="cls-8" d="M340.42,372.29s93.31,112.84,61.82,626.03"/>
      <path class="cls-8" d="M573.8,372.59s88.29,113.14,34.42,624.46"/>
      <path class="cls-8" d="M589.37,380.95s82.23,104.78,28.35,616.1"/>
      <path class="cls-8" d="M605.22,388.88s79.05,97.48,25.17,608.81"/>
      <path class="cls-8" d="M561.57,377.52s91.02,108.84,37.14,620.17"/>
    </g>
    <path class="cls-19" d="M335.81,641.76c-1.14,57.02,.07,90.86,.07,90.86,0,0,116.58,26.14,294.83,98.68,0,0,11.26,36.03-15.7,65.07,0,0-268.33,4.02-359.27-48.15,0,0-40.61-36.27-37.38-63.76"/>
    <path class="cls-19" d="M633.1,127.4s15.97,33.66-1.75,105.08c0,0-5.97,16.86-5.7,26.56,.27,9.7-5.54,24.15-7.62,34.74-11.76,59.87-42.74,72.17-42.74,72.17,0,0-11.82,18.03-46.05,12.56-34.22-5.47-65.7-22.31-75.54-38.81-9.83-16.5-32.01-45.68-31.27-68.33,0,0-21.07,1.16-25.17-24.65,0,0-15.61-41.69,8.14-47.8,23.75-6.11,31.31,26.6,31.31,26.6,0,0-19.05-94.72,37.33-121.09,0,0,79.16-40.85,159.08,22.98Z"/>
    <path class="cls-14" d="M551.61,195.18s-28.62-9.75-54.47-.19c0,0,13.29-19.07,55.59-8.39,0,0,6.83,5.76-1.12,8.58Z"/>
    <path class="cls-14" d="M635,220c-17.55-11.6-29.35-10.22-29.35-10.22-5.77-6.15,2.94-8.14,2.94-8.14,13.24,3.08,22.65,7.45,29.34,11.99,0,0-1.96,7-2.92,6.37Z"/>
    <path class="cls-11" d="M401.33,214.9s11.08-10.48,17.3,4.31c6.22,14.79,5.73,19.12,5.73,19.12,0,0-8.44-23.16-17.42-8.26"/>
    <path class="cls-3" d="M397.13,201.56s19.39-11.74,28.6,7.43c9.2,19.17,5.65,26.48,5.65,26.48l11.39,1.92s-26.1-66.41,16.22-83.36c0,0-.14-46.52,35.23-46.74,35.37-.23,58.09-30.95,142.25,27.82,0,0,17.72-49.6-72.04-80.22,0,0-60.57-21.42-84.6,7,0,0-42.18-3.56-63.75,49.11-21.57,52.67-18.94,90.57-18.94,90.57Z"/>
    <path class="cls-26" d="M544.74,379.02s-28.85,2.03-67.6-18.47c0,0-17.9-8.05-32.55-34.15,0,0,17.65,38.33,53.27,49.6,.18,.06,.33,.09,.51,.14,1.64,.5,25.84,7.15,42.5,6.54,0,0,4.5-2.63,3.86-3.66Z"/>
    <path class="cls-4" d="M534.17,149.58s25.9,9,37.82,14.74c11.92,5.74,50.54,4.45,50.54,4.45"/>
    <path class="cls-14" d="M544.46,281.6s-20.04,8.92-34.58,8.24c0,0,1.25,5.97,7.38,6.31,0,0,24.77,.26,36.83,9.14,0,0,18.02-.04,32.98,7.71,0,0,1.56,1.64,5.21,1.71,0,0-13.86-15.82-11.85-22.16,0,0-15.6,3.95-23.9-8.73,0,0-4.74,1.17-12.07-2.21Z"/>
    <path class="cls-11" d="M577.57,237.3l7.97,38.51s2.38,20.76-13.58,17.53c-13.24-2.68-13.11-6.97-13.11-6.97"/>
    <path class="cls-4" d="M501.73,298.36s.72-15.45,10.39-17.23c9.67-1.79,17.61-18.44,17.61-18.44"/>
    <g>
      <path class="cls-15" d="M511.64,211.53s.15-.78,.85-1.32c2.34-1.78,7.55-4.95,14.51-3.59,7.79,1.52,10.65,9.67,11.61,12.57,.16,.5,.06,.89,.06,.89,0,0-.06,.44-.38,.69-1.52,1.2-6.46,4.42-13.85,3.1-4.4-.79-10.11-4.35-12.76-11.05-.18-.47-.1-1-.04-1.28Z"/>
      <circle class="cls-26" cx="527.44" cy="216.04" r="8.21"/>
      <circle class="cls-15" cx="522.68" cy="213.42" r="2.25"/>
      <path class="cls-11" d="M539.08,219.3s-5.85-20.44-26.88-9.2"/>
    </g>
    <g>
      <path class="cls-15" d="M601.08,235.98s.02-.75,.6-1.35c1.92-1.99,6.31-5.68,12.98-5.41,7.46,.3,11.29,7.47,12.59,10.03,.22,.44,.19,.82,.19,.82,0,0,0,.42-.25,.7-1.25,1.33-5.37,5.03-12.44,4.86-4.21-.1-10.02-2.6-13.45-8.45-.24-.41-.24-.91-.22-1.19Z"/>
      <circle class="cls-26" cx="616.42" cy="237.9" r="7.69"/>
      <circle class="cls-15" cx="611.36" cy="236.26" r="2.15"/>
      <path class="cls-11" d="M627.37,239.51s-7.76-19.21-25.93-4.58"/>
    </g>
    <g>
      <path class="cls-17" d="M581.58,318.18s-9.64-15.23-27.25-12.81c0,0-11.11-9.28-38.35-2.7,0,0,5.8,17.44,31.6,22.68,25.8,5.24,34-7.17,34-7.17Z"/>
      <path class="cls-11" d="M515.98,302.67s37.22,8.91,65.6,15.51"/>
    </g>
    <g>
      <path class="cls-22" d="M403.47,131.8s22.46-58.88,33.91-73.11c11.45-14.23,128.73-33.05,163.91-5.34,0,0,6.24,12.7,4.15,17.85"/>
      <path class="cls-13" d="M402.4,196.53s-85.92,2.54-88.35-8.24c-5.65-25.06,52.73-44.02,52.73-44.02,0,0,139.67-49.93,190.21-69.83,38.27-15.06,126.25-37.91,142.1,3.54,15.86,41.45-59.76,83.29-59.76,83.29,0,0-144.91-26.45-235.89,18.65,0,0-2.97,9.34-1.04,16.61Z"/>
      <path class="cls-1" d="M639.34,161.27s70.51-49.88,29.79-76.61c-32.75-21.5-91.9,.45-152.37,32.61-60.46,32.16-150.03,50.5-150.03,50.5,0,0-37.24,20.72,35.67,28.76"/>
    </g>
    <path class="cls-5" d="M343.4,553.67s13.35,97.62,11.95,156.31c0,0-81.47,78.74-144.36,86.43"/>
  </g>
  <g>
    <path class="cls-2" d="M1032.67,685.75s-21.76-9.73-25.57,3.48"/>
    <g>
      <path class="cls-19" d="M673.05,721.16s12.1,21.61,23.17,32.91l1.11,62.03-15.95,18.61-8.33-113.54Z"/>
      <path class="cls-19" d="M915.81,450.47s-12.6,33.19,2.75,67.2c0,0-2.58,120.87-95.01,124.96,0,0-61.43-50.64-29.98-126.48l122.25-65.67Z"/>
      <path class="cls-24" d="M696.12,722.91c-2.71,69.22,2.4,223.33,2.4,223.33,129.33,69.21,299.65,18.45,299.65,18.45,3.7-86.51-20.71-196.55-20.71-196.55,48.69,15.17,88.91-34.32,88.91-34.32,0,0-5.16-83.03-45.52-141.85-38.36-55.91-106.01-83.77-106.01-83.77-29.67,63.97-101.05,52.18-101.05,52.18-42.66-12.35-14.68-46.68-14.68-46.68-83.86,15.04-126.06,111.53-126.06,111.53v95.92s11.05,22.54,22.1,30.06"/>
      <path class="cls-19" d="M793.4,299.97s-24.37,16.4-27.6,69.71c0,0,2.63,14.05-2.26,28.71,0,0-12.31,25.82-6.25,49.1,6.06,23.28,16.84,47.96,16.84,47.96,0,0,10.06,14.04,26.82,13.71,0,0,23.31,12.51,47.28,2.24,23.98-10.28,68.49-47.49,68.49-47.49,0,0,18.99,8.7,28.39-10.78,9.41-19.49,21.03-33.66,10.37-47.8-10.66-14.14-31.8,16.41-31.8,16.41,0,0-4-17.66,.9-32.33,0,0,8.62-23.13-3.35-61.53,0,0-51.89-33.49-127.83-27.91Z"/>
      <path class="cls-25" d="M840.81,370.07s29.26,2.11,48.39,20.88c0,0-4.21-22.65-45.97-29.19,0,0-8.34,2.64-2.41,8.31Z"/>
      <path class="cls-25" d="M767.52,364.52c19.34-4.24,29.23,1.11,29.23,1.11,7.16-3.48,.19-8.29,.19-8.29-12.67-1.86-22.41-1.25-29.82,.48,0,0-.66,6.94,.4,6.71Z"/>
      <path class="cls-26" d="M802.3,511.02s29.42,9.58,43.86,1.06c0,0,16.01-5.05,36.48-21.55,0,0-26.75,31.16-55.15,29.8,0,0-13.49,.12-25.18-9.31,0,0,.02,3.09,0,0Z"/>
      <path class="cls-11" d="M793.46,410.2s-17.75,26.14,10.45,26.85"/>
      <path class="cls-11" d="M950.35,426.45s-8.9-20.49-23.28,13.89c0,0,12.89-15.5,15.93-2.91"/>
      <path class="cls-16" d="M697.26,997.9l1.27-51.66s97.84,62.7,299.65,18.45c0,0,4.01,11.6,6.78,33.5"/>
      <path class="cls-19" d="M968.35,760.76l3.41,80.93s-84.17,19.54-131.2,37.18l-.67,54.58s151.82,17.81,208.92,.18c0,0,37.79-5.04,29.39-70.54s-11.94-130.6-11.94-130.6c0,0-48.29,39.73-97.91,28.28Z"/>
      <path class="cls-7" d="M968.35,760.76s-12.91-64.73-13.65-97.65"/>
      <path class="cls-7" d="M712.31,636.93c-8.98,38.9-15.49,88.35-15.49,88.35,0,0-2.52,71.66,0,141.8"/>
      <path class="cls-19" d="M615.01,896.37l20.35,1.43c8.19,23.88,43.58,25.43,43.58,25.43l42.46,2.89s42.38,14.48,44.45-4.17c2.07-18.65-26.9-18.22-46.2-20.3-19.3-2.07-7.64-11.64-7.64-11.64,32.25-8.77,54.6,15.86,54.6,15.86,19.8,21.39,30.18,9.88,30.18,9.88-22.09-58.74-77.96-77.18-77.96-77.18,0,0-23.35-6.86-46.33-2.28-20.09,4-41.81-4.98-41.81-4.98,0,0,3.37,25.23-15.7,65.07Z"/>
      <path class="cls-19" d="M840.56,878.86l-8.09,1.35-72.78-24.26-48.52,10.11-22.24,28.98s0,12.8,16.17-1.35l1.35,18.19s5.39,13.48,12.8,1.35l8.09,16.17s6.74,9.43,10.78-2.02l8.76,18.87s12.13-2.7,9.43-16.85l41.11,6.06,42.45-2.02,.67-54.58Z"/>
      <path class="cls-12" d="M742.46,872.57s-29.79,1.7-34.04,10.21-3.31,10.91-3.31,10.91l-8.23,5.89s-5.84,4.45-7.94-4.54l22.24-28.98,42.01-8.82"/>
      <path class="cls-12" d="M750.97,887.89s-8.51,2.98-21.28,6.38c-12.77,3.4-10.43,18.96-10.43,18.96,0,0-6.72,13.14-12.8-1.35l-1.35-18.19"/>
      <path class="cls-12" d="M755.65,908.74s-2.55-2.98-15.75,2.13-1.78,16.52-1.78,16.52c0,0-5.19,13.52-10.78,2.02s-8.09-16.17-8.09-16.17"/>
      <path class="cls-11" d="M790.69,386.96s-12.88,11.02-22.11-4.77"/>
      <path class="cls-6" d="M841.67,395.08s10.46,14.48,23.99,1.43"/>
      <g>
        <path class="cls-17" d="M780.47,459.3s11.24-8.89,23.82-2.45c0,0,10.78-4.04,29.49,8.06,0,0-8.94,11.56-29.68,8.71-20.74-2.85-23.63-14.33-23.63-14.33Z"/>
        <path class="cls-11" d="M833.79,464.91s-30.27-3.1-53.31-5.61"/>
      </g>
      <path class="cls-25" d="M775.01,302.33c-4.21,38.51-9.5,67.56-9.5,67.56,9.59-52.58,20.82-51.02,20.82-51.02,47.64-23.97,119.95,15.83,119.95,15.83,21.22,33.44,14.18,93.44,14.18,93.44,22.81-36.19,35.95-20.79,35.95-20.79,32.29-95.82-31.28-112.18-31.28-112.18,0,0-22.06-30.85-50-22.1,0,0-11.63-17.7-36.26-7.3,0,0-23.86-13.36-37.67,5.99,0,0-21.73-10.15-26.18,30.58Z"/>
      <path class="cls-12" d="M756.32,929.4s3.04,13.76-9.43,16.85l-8.76-18.87"/>
    </g>
  </g>
</svg>