<?xml version="1.0" encoding="UTF-8"?>
<svg xmlns="http://www.w3.org/2000/svg" xmlns:xlink="http://www.w3.org/1999/xlink" viewBox="0 0 1333.86 1105.42">
  <defs>
    <style>
      .cls-1, .cls-2, .cls-3, .cls-4, .cls-5, .cls-6, .cls-7, .cls-8, .cls-9, .cls-10, .cls-11 {
        fill: none;
      }

      .cls-2 {
        stroke-width: 1.5px;
      }

      .cls-2, .cls-3, .cls-4, .cls-5, .cls-6, .cls-12, .cls-7, .cls-13, .cls-14, .cls-15, .cls-8, .cls-9, .cls-10, .cls-11 {
        stroke-miterlimit: 10;
      }

      .cls-2, .cls-6, .cls-8, .cls-11 {
        stroke: #231f20;
      }

      .cls-16 {
        clip-path: url(#clippath);
      }

      .cls-3 {
        stroke: #3c2415;
      }

      .cls-3, .cls-4, .cls-5, .cls-6, .cls-14, .cls-15 {
        stroke-width: .8px;
      }

      .cls-4 {
        stroke: #754c29;
      }

      .cls-5, .cls-15 {
        stroke: #603913;
      }

      .cls-17 {
        fill: #f7daa6;
      }

      .cls-18, .cls-12, .cls-13 {
        fill: #e6e7e8;
      }

      .cls-19, .cls-14 {
        fill: #fff;
      }

      .cls-20 {
        fill: #803435;
      }

      .cls-21 {
        fill: #ae8578;
      }

      .cls-22 {
        fill: #b1dcc4;
      }

      .cls-23, .cls-15 {
        fill: #be9e7d;
      }

      .cls-24 {
        fill: #bfbfbf;
      }

      .cls-25 {
        fill: #d1d3d4;
      }

      .cls-26 {
        fill: #e2c799;
      }

      .cls-27 {
        fill: #d4d5d6;
      }

      .cls-28 {
        fill: #134a7e;
      }

      .cls-29 {
        fill: #231f20;
      }

      .cls-30 {
        fill: #26130f;
      }

      .cls-12 {
        stroke: #58595b;
        stroke-width: .2px;
      }

      .cls-7 {
        stroke: #fff;
        stroke-linecap: round;
      }

      .cls-13, .cls-10 {
        stroke: #6d6e71;
      }

      .cls-14 {
        stroke: #006838;
      }

      .cls-9 {
        stroke: #d1d3d4;
      }

      .cls-11 {
        stroke-width: 1.2px;
      }
    </style>
    <clipPath id="clippath">
      <rect class="cls-1" x="106.64" y="58.76" width="1163.29" height="941.05"/>
    </clipPath>
  </defs>
  <g id="Layer_2" data-name="Layer 2">
    <rect class="cls-22" width="1333.86" height="999.57"/>
  </g>
  <g id="Layer_1" data-name="Layer 1">
    <g class="cls-16">
      <g>
        <path class="cls-23" d="M320.17,308.96s1.29,39.93-19.07,78.95c0,0-5.09,142.51,103.49,153.54,0,0,70-44.76,59.04-120.36-1.22-8.43-12.02-17.41-15.23-26.57l-128.23-85.56Z"/>
        <path class="cls-23" d="M594.86,553.98c21.18,60.14,100.81,130.47,100.81,130.47,66.98-15.53,135.16-29.47,135.16-29.47l-2.02,88.94s-205.76,97.61-246.04,46.83c-44.91-56.61-19.81-77.25-19.81-77.25"/>
        <path class="cls-3" d="M695.85,684.82s-38.99,33.98-36.33,61.47"/>
        <g>
          <polygon class="cls-24" points="292.61 371.88 308.87 369.42 305.85 387.73 292.61 371.88"/>
          <path class="cls-18" d="M278.87,389.31s-55.89,12.04-101.56,58.65c0,0-37.62,64-44.57,112.52,0,0-13.6,47.78-7.28,136.26,0,0,15.93,96.21,51.33,110.11l-18.59,225.31s44.68,70.4,264.08,73.25c0,0,90.19,1.07,136.85-46.49,0,0,27.85-137.2,24.51-330.98,0,0,32.77-110.95,50.06-118.05l-17.45-59.47s-6.28-57.4-64.68-97.59c0,0-44.22-33.05-77.1-46.44l-63.99,46.68-5.89,86.85-25.75-74.29s-3.6-21.64-99.97-76.31Z"/>
          <path class="cls-27" d="M278.87,389.31s83.48,48.68,99.97,76.31l-2.29-27.38s-61.91-38.21-83.94-66.36l-13.74,17.42Z"/>
          <path class="cls-27" d="M444.38,387.95s31.29-.99,30.1,18.43l-63.99,46.68-2.06-16.18s30.17-14.45,49.97-37.85c0,0-13.28-1.71-14.03-11.08Z"/>
          <path class="cls-10" d="M404.6,539.91s21.01,181.09,17.69,565.5"/>
          <ellipse class="cls-25" cx="386.39" cy="550.65" rx="4.99" ry="5.18"/>
          <ellipse class="cls-25" cx="399.04" cy="637.57" rx="4.99" ry="5.18"/>
          <ellipse class="cls-25" cx="405.29" cy="731.68" rx="4.99" ry="5.18"/>
          <ellipse class="cls-25" cx="407.03" cy="817.54" rx="4.99" ry="5.18"/>
          <ellipse class="cls-25" cx="409.55" cy="925.47" rx="4.99" ry="5.18"/>
          <ellipse class="cls-25" cx="410.77" cy="1041.18" rx="4.99" ry="5.18"/>
          <path class="cls-25" d="M258.6,597.63l4.29,77.3s44.23,42.54,90.18,0v-84.46s-31.49,18.61-94.48,7.16Z"/>
          <path class="cls-25" d="M464.74,597.63l4.29,77.3s44.23,42.54,90.18,0v-84.46s-31.49,18.61-94.48,7.16Z"/>
          <path class="cls-25" d="M255.74,932.66l4.87,87.61s50.12,48.21,102.21,0v-95.72s-35.69,21.09-107.08,8.11Z"/>
          <path class="cls-25" d="M456.43,932.66l4.87,87.61s50.12,48.21,102.21,0v-95.72s-35.69,21.09-107.08,8.11Z"/>
          <path class="cls-9" d="M251.26,400.9s88.31,181.26,56.82,694.45"/>
          <path class="cls-9" d="M263.26,396.53s87.12,187.79,55.62,700.97"/>
          <path class="cls-9" d="M274.91,391.36s87.31,193.71,55.82,706.9"/>
          <path class="cls-9" d="M239.25,406.35s88.79,174.36,57.3,687.55"/>
          <path class="cls-9" d="M472.64,406.66s81.26,174.58,27.39,685.9"/>
          <path class="cls-9" d="M488.21,415.02s76.72,162.41,22.85,673.74"/>
          <path class="cls-9" d="M504.06,422.94s74.18,148.02,20.31,659.34"/>
          <path class="cls-9" d="M460.41,411.58s81.32,173.45,27.44,684.78"/>
        </g>
        <path class="cls-23" d="M525.92,154.01s16.98,33.11,1.51,104.97c0,0-5.44,17.02-4.87,26.7,.57,9.68-4.78,24.29-6.53,34.92-9.89,60.14-40.44,73.38-40.44,73.38,0,0-11.25,18.37-45.59,13.97-34.34-4.4-66.29-20.24-76.62-36.41-10.33-16.17-33.37-44.62-33.34-67.25,0,0-21,1.81-25.9-23.83,0,0-16.88-41.14,6.64-47.98,23.52-6.84,32.09,25.58,32.09,25.58,0,0-21.96-93.98,33.52-122.06,0,0,77.77-43.23,159.54,18.02Z"/>
        <path class="cls-18" d="M447.03,221.44s-29.66-5.67-53.9,7.39c0,0,10.5-20.71,53.82-16.03,0,0,7.55,4.74,.08,8.64Z"/>
        <path class="cls-18" d="M530.06,247.38c-17.1-12.21-28.93-11.26-28.93-11.26-5.54-6.35,3.23-8.02,3.23-8.02,13.1,3.56,22.34,8.25,28.85,13.03,0,0-2.21,6.92-3.15,6.25Z"/>
        <path class="cls-8" d="M297.23,248.56s10.74-10.81,17.4,3.76c6.66,14.57,6.31,18.91,6.31,18.91,0,0-9.15-22.86-17.65-7.71"/>
        <path class="cls-12" d="M292.62,235.37s19-12.32,28.78,6.53c9.78,18.85,6.46,26.26,6.46,26.26l11.43,1.57s-28.12-65.49,13.61-83.73c0,0-1.58-46.44,33.72-47.76,35.31-1.32,57.04-32.7,142.88,23.36,0,0,16.16-50.07-74.42-77.86,0,0-61.14-19.51-84.25,9.61,0,0-42.22-2.24-62.13,51.01-19.9,53.25-16.1,91.01-16.1,91.01Z"/>
        <path class="cls-30" d="M452.67,407.55s-43.33,3.44-75.24-15.92c0,0-18.12-7.48-33.55-33.09,0,0,18.81,37.72,54.73,47.87,.18,.05,.33,.09,.52,.13,29.4,6.44,38.04,6,57.66,4.45,0,0-3.43-2.43-4.1-3.44Z"/>
        <path class="cls-6" d="M427.84,179.22s26.14,8.19,38.22,13.55c12.08,5.36,50.6,2.88,50.6,2.88"/>
        <path class="cls-18" d="M442.2,310.72s-19.73,9.52-34.27,9.3c0,0,1.43,5.92,7.56,6.07,0,0,24.74-.51,37.05,7.98,0,0,17.99-.6,33.16,6.68,0,0,1.61,1.59,5.26,1.54,0,0-14.32-15.36-12.52-21.76,0,0-15.45,4.43-24.13-7.98,0,0-4.7,1.31-12.12-1.83Z"/>
        <path class="cls-8" d="M473.89,265.46l9.15,38.2s3.02,20.65-13.01,17.92c-13.3-2.27-13.31-6.55-13.31-6.55"/>
        <path class="cls-6" d="M400.05,328.77s.24-15.45,9.84-17.53c9.6-2.08,17.02-18.95,17.02-18.95"/>
        <g>
          <path class="cls-19" d="M407.26,241.78s.12-.79,.81-1.34c2.28-1.85,7.38-5.17,14.37-4.04,7.82,1.27,10.94,9.33,11.98,12.19,.18,.49,.09,.89,.09,.89,0,0-.04,.44-.36,.7-1.49,1.25-6.31,4.61-13.74,3.52-4.42-.65-10.23-4.03-13.09-10.64-.2-.46-.13-.99-.07-1.28Z"/>
          <circle class="cls-30" cx="423.18" cy="245.79" r="8.2"/>
          <circle class="cls-19" cx="420.35" cy="240.4" r="2.25"/>
          <path class="cls-8" d="M434.9,248.68s-6.48-20.23-27.12-8.36"/>
        </g>
        <g>
          <path class="cls-19" d="M497.32,263.42s0-.75,.56-1.37c1.86-2.05,6.13-5.87,12.79-5.81,7.46,.07,11.51,7.11,12.88,9.62,.24,.43,.21,.81,.21,.81,0,0,.02,.42-.23,.7-1.2,1.37-5.21,5.19-12.27,5.24-4.2,.03-10.09-2.29-13.69-8.02-.25-.4-.26-.91-.25-1.18Z"/>
          <circle class="cls-30" cx="512.7" cy="264.86" r="7.68"/>
          <circle class="cls-19" cx="508.96" cy="259.68" r="2.15"/>
          <path class="cls-8" d="M523.67,266.12s-8.34-18.94-26.03-3.77"/>
        </g>
        <path class="cls-30" d="M457.31,209.85s4.9,10.24-3.12,14.25c0,0,12.92-2.67,3.12-14.25Z"/>
        <path class="cls-21" d="M413.4,337.78s21.32-10.28,30.05-7.28c8.72,3,9.4,4.5,9.4,4.5,0,0,8.88-3.22,12.47,.03,3.59,3.25,11.07,12.06,10.98,17.72,0,0-14.01,15.66-30.1,12.66-16.09-3.01-28.87-14.98-32.79-27.63Z"/>
        <path class="cls-20" d="M419.08,340.15s20.57-3.84,32.03,.04c11.45,3.88,20.96,12.36,20.96,12.36,0,0-8.54-2.13-22.83,6.13,0,0-5.16,.53-10.43-2.91-5.27-3.45-12.59-13.65-19.73-15.62Z"/>
        <path class="cls-19" d="M463.42,346.44s-13.13-11.45-33.98-7.64c0,0,22.69,2.36,33.98,7.64"/>
        <g>
          <path class="cls-26" d="M296.23,166.88s22.46-58.88,33.91-73.11c11.45-14.23,128.73-33.05,163.91-5.34,0,0,6.24,12.7,4.15,17.85"/>
          <path class="cls-17" d="M295.17,231.61s-85.92,2.54-88.35-8.24c-5.65-25.06,52.73-44.02,52.73-44.02,0,0,139.67-49.93,190.21-69.83,38.27-15.06,126.25-37.91,142.1,3.54,15.86,41.45-59.76,83.29-59.76,83.29,0,0-144.91-26.45-235.89,18.65,0,0-2.97,9.34-1.04,16.61Z"/>
          <path class="cls-2" d="M532.1,196.34s70.51-49.88,29.79-76.61c-32.75-21.5-91.9,.45-152.37,32.61-60.46,32.16-150.03,50.5-150.03,50.5,0,0-37.24,20.72,35.67,28.76"/>
        </g>
      </g>
      <g>
        <path class="cls-23" d="M1052.13,478.68s-11.08,35.1,6.82,69.39c0,0,4.47,125.25-90.95,134.94,0,0-66.57-48.78-38.51-129.14l122.64-75.19Z"/>
        <path class="cls-28" d="M1054.54,538.49s71.66,24.84,114.66,80.44c45.25,58.5,55.49,144.13,55.49,144.13,0,0-38.7,53.6-89.99,40.78,0,0,31.38,107.26,32.66,197.02,0,0-166.32-1.82-311.73-.91,0,0-1.34-150.15-2.62-221.95,0,0-56.16-7.16-68.98-36.65l32.82-101.81s8.04-48.89,118.23-88.5c0,0-26.93,37.19,17.95,47.44,0,0,74.58,7.98,101.51-59.98Z"/>
        <path class="cls-23" d="M896.75,332.05s-22.15,20.89-16.46,75.96c0,0,5.06,13.93,2.53,29.75,0,0-8.23,28.48,1.9,51.27,10.13,22.79,25.32,46.21,25.32,46.21,0,0,12.66,12.66,29.75,9.49,0,0,25.95,8.86,48.74-5.7,22.79-14.56,62.03-60.13,62.03-60.13,0,0,20.89,5.7,27.22-15.82,6.33-21.52,15.82-37.98,2.53-50.64-13.29-12.66-29.75,22.15-29.75,22.15,0,0-8.86-10.76-6.33-26.59,0,0,6.7-31.74-12.03-69,0,0-58.73-25.49-135.46-6.96Z"/>
        <path class="cls-29" d="M957.12,391.96s30.36-1.72,52.52,15.04c0,0-7.34-22.72-51.15-23.9,0,0-8.23,3.83-1.38,8.86Z"/>
        <path class="cls-29" d="M880.83,401.56c17.55-10.65,29.04-8.72,29.04-8.72,5.85-5.82-2.59-8.2-2.59-8.2-13.05,2.42-22.4,6.29-29.09,10.47,0,0,1.68,7.03,2.64,6.44Z"/>
        <path class="cls-30" d="M941.49,546.41s31.7,4.83,45.04-6.32c0,0,15.52-7.87,33.67-28.21,0,0-22.1,36.39-51.38,39.79,0,0-13.77,2.41-27.33-5.27,0,0,.55,3.16,0,0Z"/>
        <path class="cls-11" d="M915.43,444.78s-13.75,29.74,15.22,25.7"/>
        <path class="cls-11" d="M1078.65,434.91s-12.56-19.46-21.47,18.14c0,0,10.56-18.03,15.81-5.67"/>
        <path class="cls-29" d="M920,381.34s5.47,7.55-.78,12.5c0,0,11.98-5.73,.78-12.5Z"/>
        <path class="cls-29" d="M949.7,381.34s-5.47,7.55,.78,12.5c0,0-11.98-5.73-.78-12.5Z"/>
        <g>
          <path class="cls-21" d="M903.79,497.05s13.17-17.89,31.49-11.92c0,0,14.2-8.99,40.98,9.87,0,0-13.65,17.47-39.73,16.04-26.09-1.43-32.73-13.99-32.73-13.99Z"/>
          <path class="cls-20" d="M907.57,498.09s9.5-9.68,28.43-9.59c18.93,.1,36.74,7.46,36.74,7.46,0,0-27.79,3.15-35.49,7.65,0,0-13.9-4.69-29.69-5.52Z"/>
          <path class="cls-19" d="M915.31,493.06s13.41-10.18,45.76-.84c0,0-27.6-2.49-45.76,.84Z"/>
        </g>
        <path class="cls-15" d="M1068.52,608.55c7.13-31.05,1.11-106.3,1.11-106.3l-33.49-32.81c-3.59,2.01-2.13,6.86-2.13,6.86l-12.75-9.84c-7.03,7.09,1.66,22.03,1.66,22.03l-12.92-13.51c-8.35,5.31-1.49,20.34-1.49,20.34l17.12,24.37-3.42,31.48-1.83-12.81-23.1-33.91c-17.48,6.97,7.66,45.09,7.66,45.09,0,0,1.72,23.26-1.44,47.36-3.16,24.1,13.33,22.09,13.33,22.09,0,0,3.78,2.69,4.69,7.74,.9,5.05,0,0,0,0l46.32-12.6,.7-5.58Z"/>
        <path class="cls-5" d="M1044.69,544.14l.7-31.69-35.4-37.48c-8.71,6.11-1.49,20.34-1.49,20.34l17.12,24.37-3.42,31.48-1.83-12.81-23.1-33.91c-17.11,6.35,7.66,45.09,7.66,45.09l.02,37.38"/>
        <polyline class="cls-5" points="1034.01 476.3 1059.43 501.06 1059.01 527.57"/>
        <path class="cls-23" d="M745.8,663.4c-1.6-5.12-3.22-10.09-4.86-14.83,0,0,19.89-18.64,2.55-62.4l-1.29-32.88s-5.51-17.89-15.8-2.75c0,0-2.11,12.71-2.17,22.51l-21.15-9.94s3.21-.97-6.11-9.72c-7.58-7.11-8.24-3.07-8.24-3.07,0,0,4.62-14.83,6.08-30.54,.95-10.22,6.2-17.53-3.44-23.8,0,0-9.6-4.89-13.47,12.26l-14.72,37.86,12.75,59.35,19.14,37.57-2.29,17.94"/>
        <path class="cls-15" d="M732.35,578.44s-4.28-3.67-8.23-5.33"/>
        <path class="cls-15" d="M706.77,623.17s6.64-25.2,2.42-34.11c0,0-2.18-3.63,1.75-12.13,3.74-8.09,11.01-13.7,5.49-18.57-8-7.05-13.34,4.75-13.34,4.75l-12.95,25.46"/>
        <path class="cls-15" d="M740.94,648.57s-10.49,2.67-22.04-3.24"/>
        <path class="cls-15" d="M699.39,570.42l4.88-10.82,11.95-7.84s5.79-4.3,2.63-10.89c-3.52-7.35-12.01-2.74-12.01-2.74l-15.14,11.77-11.67,21.87"/>
        <path class="cls-15" d="M691.72,549.89l1.97-6.18,11.95-7.84s5.79-4.3,2.63-10.89c-3.52-7.35-12.01-2.74-12.01-2.74l-15.14,11.77-11.67,21.87"/>
        <path class="cls-23" d="M1224.7,763.05s57.13,157.01-3.48,170.48c-60.62,13.47-176.7-94.15-201.16-312.2l47.76-7.2,115.87,157.47,41.01-8.55Z"/>
        <path class="cls-15" d="M1183.69,771.6s42.58,42.58,45.96,77.04"/>
        <path class="cls-23" d="M692.77,660.96l53.03,2.44,31.36,92.72,6.88-14.79s3.06,22.47,68.98,36.65l1.69,106.6s-39.8,49.19-85.24,48.41c-50.42-.87-95.21-123.02-76.71-272.03Z"/>
        <path class="cls-15" d="M795.18,844.24c5.48-43.08-18.02-88.12-18.02-88.12l-28.51-84.19"/>
        <g>
          <path class="cls-19" d="M987.28,418.88s.03-.69-.46-1.28c-1.62-1.96-5.39-5.66-11.52-5.89-6.87-.26-10.89,6.05-12.27,8.31-.24,.39-.23,.74-.23,.74,0,0-.04,.38,.18,.66,1.05,1.31,4.57,5,11.07,5.34,3.87,.2,9.38-1.68,12.94-6.8,.25-.36,.28-.82,.28-1.07Z"/>
          <circle class="cls-30" cx="973.06" cy="419.57" r="7.11"/>
          <circle class="cls-19" cx="977.6" cy="418.29" r="1.95"/>
          <path class="cls-8" d="M962.61,420.01s8.97-16.08,24.48-2.46"/>
        </g>
        <g>
          <path class="cls-19" d="M910.52,421.72s.13-.64-.24-1.26c-1.23-2.06-4.2-6.03-9.87-7.12-6.35-1.22-10.99,4.07-12.6,5.97-.28,.33-.32,.65-.32,.65,0,0-.09,.35,.08,.64,.79,1.37,3.54,5.3,9.53,6.55,3.57,.74,8.96-.22,13.01-4.48,.28-.3,.38-.72,.42-.96Z"/>
          <circle class="cls-30" cx="897.2" cy="420.31" r="6.66"/>
          <circle class="cls-19" cx="901.8" cy="419.92" r="1.87"/>
          <path class="cls-8" d="M887.66,419.5s10.33-14.67,22.77,1.25"/>
        </g>
        <line class="cls-14" x1="853.02" y1="777.98" x2="851.22" y2="708.11"/>
        <path class="cls-7" d="M889.27,440.51c-1.89-10.68-.34-14.72-.34-14.72"/>
        <path class="cls-7" d="M894.1,429.14s-.58,1.75-.08,8.11"/>
        <path class="cls-7" d="M894.27,441.94s-.25,2.49-.12,4.74"/>
        <path class="cls-7" d="M986.83,423.46s5.25,2.58,6.8,13.26"/>
        <path class="cls-7" d="M984.21,427.31s1.62,4.24,1.62,6.86"/>
        <path class="cls-7" d="M980.77,434.71s.98,1.62,.98,4.24"/>
        <path class="cls-29" d="M878.29,335.54c1.67,40.33,.77,71.09,.77,71.09,1.66-55.66,13.41-55.81,13.41-55.81,45.11-32.11,125.41-2.37,125.41-2.37,26.94,31.15,29.05,94.06,29.05,94.06,17.76-40.83,33.62-27.02,33.62-27.02,18.21-103.75-49.49-110.71-49.49-110.71,0,0-27.41-28.35-54.69-14.98,0,0-14.68-16.43-38.3-1.88,0,0-26.53-10.05-37.68,12.03,0,0-23.85-7.08-22.09,35.59Z"/>
      </g>
      <path class="cls-13" d="M583.65,727.94s1.52-99.88-6.6-119.18"/>
      <line class="cls-15" x1="690.1" y1="680.69" x2="692.84" y2="791.78"/>
    </g>
    <g>
      <path class="cls-23" d="M208.68,811.16c23.92,40.57,51.95,53.72,51.95,53.72,150.78,57.6,315.11-11.29,315.11-11.29l-7.91-53.84-212.33-33.13-33.44-76.12"/>
      <path class="cls-23" d="M567.83,799.75c10.54,1.13,26.01-5.37,26.01-5.37,0,0,27.09-32.81,49.28-39.43,0,0,16.94-.75,5.86,14.45,0,0-26.48,15.88-.67,18.34,25.81,2.45,40.32-5.61,40.32-5.61l26.97-21.77s10.97-6.97,12.53,8.2c0,0,14.25,3.65,1.21,18.86,0,0,4.16,11.99-6.79,26.26,0,0-5.82,16.54-12.42,23.34-13.18,13.55-75.29,19.95-75.29,19.95l-28.99-3.01-10.54-1.88s-12.8-.38-19.58,1.51"/>
      <path class="cls-4" d="M676.59,802.79c30.59-5.99,51.54-34.24,51.54-34.24,0,0,1.44-14.09-12.53-8.2s-26.97,21.77-26.97,21.77c0,0-34.03,15.14-50.55,1.63,0,0-3.73-6.69,10.89-14.36,0,0,10.19-18.23-5.86-14.45s-49.28,39.43-49.28,39.43"/>
      <path class="cls-4" d="M674.45,817.82c30-2.68,54.78-30.81,54.78-30.81,0,0,14.89-13.63-1.09-18.46"/>
      <path class="cls-4" d="M674.02,833.2l20.49-.9,28.05-18.62s16.25-24.91,6.67-26.67"/>
      <path class="cls-4" d="M702.14,842.3s19.82-3.19,20.42-28.62"/>
      <path class="cls-13" d="M247.89,522.02s51.02,43.29,82.49,168.48c0,0-23.92,97.78-120.66,124.82"/>
    </g>
  </g>
</svg>