<?xml version="1.0" encoding="UTF-8"?>
<svg xmlns="http://www.w3.org/2000/svg" xmlns:xlink="http://www.w3.org/1999/xlink" viewBox="0 0 1333.86 1106.48">
  <defs>
    <style>
      .cls-1, .cls-2, .cls-3, .cls-4, .cls-5, .cls-6, .cls-7, .cls-8, .cls-9, .cls-10, .cls-11, .cls-12 {
        fill: none;
      }

      .cls-2 {
        stroke-width: 1.5px;
      }

      .cls-2, .cls-3, .cls-4, .cls-5, .cls-13, .cls-6, .cls-7, .cls-14, .cls-15, .cls-16, .cls-8, .cls-9, .cls-10, .cls-11, .cls-12 {
        stroke-miterlimit: 10;
      }

      .cls-2, .cls-4, .cls-7, .cls-8, .cls-12 {
        stroke: #231f20;
      }

      .cls-17 {
        clip-path: url(#clippath);
      }

      .cls-3 {
        stroke: #3c2415;
      }

      .cls-3, .cls-4, .cls-5, .cls-16 {
        stroke-width: .8px;
      }

      .cls-5, .cls-16 {
        stroke: #006838;
      }

      .cls-18 {
        fill: #f7daa6;
      }

      .cls-19, .cls-13, .cls-14 {
        fill: #e6e7e8;
      }

      .cls-20, .cls-16 {
        fill: #fff;
      }

      .cls-21 {
        fill: #803435;
      }

      .cls-22 {
        fill: #ae8578;
      }

      .cls-23 {
        fill: #b1dcc4;
      }

      .cls-24 {
        fill: #be9e7d;
      }

      .cls-25 {
        fill: #bfbfbf;
      }

      .cls-26 {
        fill: #d1d3d4;
      }

      .cls-27 {
        fill: #e2c799;
      }

      .cls-28 {
        fill: #d4d5d6;
      }

      .cls-29 {
        fill: #134a7e;
      }

      .cls-30 {
        fill: #231f20;
      }

      .cls-31 {
        fill: #26130f;
      }

      .cls-13 {
        stroke: #58595b;
        stroke-width: .2px;
      }

      .cls-6 {
        stroke: #fff;
        stroke-linecap: round;
      }

      .cls-7 {
        stroke-width: .7px;
      }

      .cls-14, .cls-10 {
        stroke: #6d6e71;
      }

      .cls-15 {
        fill: #ba9777;
      }

      .cls-15, .cls-11 {
        stroke: #754c29;
      }

      .cls-9 {
        stroke: #d1d3d4;
      }

      .cls-12 {
        stroke-width: 1.2px;
      }
    </style>
    <clipPath id="clippath">
      <rect class="cls-1" x="106.64" y="58.76" width="1163.29" height="941.05"/>
    </clipPath>
  </defs>
  <g id="Layer_2" data-name="Layer 2">
    <rect class="cls-23" width="1333.86" height="999.57"/>
  </g>
  <g id="Layer_1" data-name="Layer 1">
    <g class="cls-17">
      <polygon class="cls-24" points="803.2 746.04 797 895.79 771.3 1014.53 882.06 1016.3 880.29 760.22 803.2 746.04"/>
      <path class="cls-24" d="M1125.73,787.69l25.7,223.29,92.15-1.77s14.18-150.63-35.44-248.99l-82.41,27.47Z"/>
      <g>
        <path class="cls-24" d="M320.17,308.96s1.29,39.93-19.07,78.95c0,0-5.09,142.51,103.49,153.54,0,0,70-44.76,59.04-120.36-1.22-8.43-12.02-17.41-15.23-26.57l-128.23-85.56Z"/>
        <path class="cls-24" d="M612.38,565.25c21.18,60.14,83.29,119.19,83.29,119.19,66.98-15.53,127.91-44.73,127.91-44.73l5.23,104.2s-205.76,97.61-246.04,46.83c-44.91-56.61-19.81-77.25-19.81-77.25"/>
        <path class="cls-3" d="M695.85,684.82s-38.99,33.98-36.33,61.47"/>
        <g>
          <polygon class="cls-25" points="289.94 372.95 306.19 370.49 303.18 388.8 289.94 372.95"/>
          <path class="cls-19" d="M276.2,390.37s-55.89,12.04-101.56,58.65c0,0-37.62,64-44.57,112.52,0,0-13.6,47.78-7.28,136.26,0,0,15.93,96.21,51.33,110.11l-18.59,225.31s44.68,70.4,264.08,73.25c0,0,90.19,1.07,136.85-46.49,0,0,27.85-137.2,24.51-330.98,0,0,45.41-105.77,62.71-112.88l-24.46-69.46s-11.91-52.6-70.32-92.78c0,0-44.22-33.05-77.1-46.44l-63.99,46.68-5.89,86.85-25.75-74.29s-3.6-21.64-99.97-76.31Z"/>
          <path class="cls-28" d="M276.2,390.37s83.48,48.68,99.97,76.31l-2.29-27.38s-61.91-38.21-83.94-66.36l-13.74,17.42Z"/>
          <path class="cls-28" d="M441.7,389.01s31.29-.99,30.1,18.43l-63.99,46.68-2.06-16.18s30.17-14.45,49.97-37.85c0,0-13.28-1.71-14.03-11.08Z"/>
          <path class="cls-10" d="M401.92,540.98s21.01,181.09,17.69,565.5"/>
          <ellipse class="cls-26" cx="383.72" cy="551.71" rx="4.99" ry="5.18"/>
          <ellipse class="cls-26" cx="396.36" cy="638.64" rx="4.99" ry="5.18"/>
          <ellipse class="cls-26" cx="402.61" cy="732.75" rx="4.99" ry="5.18"/>
          <ellipse class="cls-26" cx="404.36" cy="818.6" rx="4.99" ry="5.18"/>
          <ellipse class="cls-26" cx="406.88" cy="926.54" rx="4.99" ry="5.18"/>
          <ellipse class="cls-26" cx="408.1" cy="1042.24" rx="4.99" ry="5.18"/>
          <path class="cls-26" d="M255.93,598.7l4.29,77.3s44.23,42.54,90.18,0v-84.46s-31.49,18.61-94.48,7.16Z"/>
          <path class="cls-26" d="M462.06,598.7l4.29,77.3s44.23,42.54,90.18,0v-84.46s-31.49,18.61-94.48,7.16Z"/>
          <path class="cls-26" d="M253.07,933.72l4.87,87.61s50.12,48.21,102.21,0v-95.72s-35.69,21.09-107.08,8.11Z"/>
          <path class="cls-26" d="M453.76,933.72l4.87,87.61s50.12,48.21,102.21,0v-95.72s-35.69,21.09-107.08,8.11Z"/>
          <path class="cls-9" d="M248.59,401.96s88.31,181.26,56.82,694.45"/>
          <path class="cls-9" d="M260.59,397.6s87.12,187.79,55.62,700.97"/>
          <path class="cls-9" d="M272.24,392.42s87.31,193.71,55.82,706.9"/>
          <path class="cls-9" d="M236.58,407.42s88.79,174.36,57.3,687.55"/>
          <path class="cls-9" d="M469.97,407.72s81.26,174.58,27.39,685.9"/>
          <path class="cls-9" d="M485.54,416.08s76.72,162.41,22.85,673.74"/>
          <path class="cls-9" d="M501.39,424.01s74.18,148.02,20.31,659.34"/>
          <path class="cls-9" d="M457.73,412.65s81.32,173.45,27.44,684.78"/>
        </g>
        <path class="cls-24" d="M525.92,154.01s16.98,33.11,1.51,104.97c0,0-5.44,17.02-4.87,26.7,.57,9.68-4.78,24.29-6.53,34.92-9.89,60.14-40.44,73.38-40.44,73.38,0,0-11.25,18.37-45.59,13.97-34.34-4.4-66.29-20.24-76.62-36.41-10.33-16.17-33.37-44.62-33.34-67.25,0,0-21,1.81-25.9-23.83,0,0-16.88-41.14,6.64-47.98,23.52-6.84,32.09,25.58,32.09,25.58,0,0-21.96-93.98,33.52-122.06,0,0,77.77-43.23,159.54,18.02Z"/>
        <path class="cls-19" d="M447.03,221.44s-29.66-5.67-53.9,7.39c0,0,10.5-20.71,53.82-16.03,0,0,7.55,4.74,.08,8.64Z"/>
        <path class="cls-19" d="M530.06,247.38c-17.1-12.21-28.93-11.26-28.93-11.26-5.54-6.35,3.23-8.02,3.23-8.02,13.1,3.56,22.34,8.25,28.85,13.03,0,0-2.21,6.92-3.15,6.25Z"/>
        <path class="cls-8" d="M297.23,248.56s10.74-10.81,17.4,3.76c6.66,14.57,6.31,18.91,6.31,18.91,0,0-9.15-22.86-17.65-7.71"/>
        <path class="cls-13" d="M292.62,235.37s19-12.32,28.78,6.53c9.78,18.85,6.46,26.26,6.46,26.26l11.43,1.57s-28.12-65.49,13.61-83.73c0,0-1.58-46.44,33.72-47.76,35.31-1.32,57.04-32.7,142.88,23.36,0,0,16.16-50.07-74.42-77.86,0,0-61.14-19.51-84.25,9.61,0,0-42.22-2.24-62.13,51.01-19.9,53.25-16.1,91.01-16.1,91.01Z"/>
        <path class="cls-31" d="M452.67,407.55s-43.33,3.44-75.24-15.92c0,0-18.12-7.48-33.55-33.09,0,0,18.81,37.72,54.73,47.87,.18,.05,.33,.09,.52,.13,29.4,6.44,38.04,6,57.66,4.45,0,0-3.43-2.43-4.1-3.44Z"/>
        <path class="cls-4" d="M427.84,179.22s26.14,8.19,38.22,13.55c12.08,5.36,50.6,2.88,50.6,2.88"/>
        <path class="cls-19" d="M442.2,310.72s-19.73,9.52-34.27,9.3c0,0,1.43,5.92,7.56,6.07,0,0,24.74-.51,37.05,7.98,0,0,17.99-.6,33.16,6.68,0,0,1.61,1.59,5.26,1.54,0,0-14.32-15.36-12.52-21.76,0,0-15.45,4.43-24.13-7.98,0,0-4.7,1.31-12.12-1.83Z"/>
        <path class="cls-8" d="M473.89,265.46l9.15,38.2s3.02,20.65-13.01,17.92c-13.3-2.27-13.31-6.55-13.31-6.55"/>
        <path class="cls-4" d="M400.05,328.77s.24-15.45,9.84-17.53c9.6-2.08,17.02-18.95,17.02-18.95"/>
        <g>
          <path class="cls-20" d="M407.26,241.78s.12-.79,.81-1.34c2.28-1.85,7.38-5.17,14.37-4.04,7.82,1.27,10.94,9.33,11.98,12.19,.18,.49,.09,.89,.09,.89,0,0-.04,.44-.36,.7-1.49,1.25-6.31,4.61-13.74,3.52-4.42-.65-10.23-4.03-13.09-10.64-.2-.46-.13-.99-.07-1.28Z"/>
          <circle class="cls-31" cx="423.18" cy="245.79" r="8.2"/>
          <circle class="cls-20" cx="420.35" cy="240.4" r="2.25"/>
          <path class="cls-7" d="M434.9,248.68s-6.48-20.23-27.12-8.36"/>
        </g>
        <g>
          <path class="cls-20" d="M497.32,263.42s0-.75,.56-1.37c1.86-2.05,6.13-5.87,12.79-5.81,7.46,.07,11.51,7.11,12.88,9.62,.24,.43,.21,.81,.21,.81,0,0,.02,.42-.23,.7-1.2,1.37-5.21,5.19-12.27,5.24-4.2,.03-10.09-2.29-13.69-8.02-.25-.4-.26-.91-.25-1.18Z"/>
          <circle class="cls-31" cx="512.7" cy="264.86" r="7.68"/>
          <circle class="cls-20" cx="508.96" cy="259.68" r="2.15"/>
          <path class="cls-7" d="M523.67,266.12s-8.34-18.94-26.03-3.77"/>
        </g>
        <path class="cls-31" d="M457.31,209.85s4.9,10.24-3.12,14.25c0,0,12.92-2.67,3.12-14.25Z"/>
        <path class="cls-22" d="M411.82,338.4s22.78-12.42,42.6-4.66c0,0,19.09,.45,26.88,19,0,0-12.93,13.53-31.77,7.27-18.84-6.25-28.65-10.6-37.71-21.61Z"/>
        <path class="cls-21" d="M415.62,338.87s30.18-4.36,39.13-.52c0,0,13.96,1.65,24.31,14.23,0,0-18.56-2.94-28.33,.2,0,0-18.74-9.81-35.1-13.91Z"/>
        <path class="cls-20" d="M433.48,337.44s25.05-3.17,37.91,8.33c0,0-19.48-4.76-37.91-8.33Z"/>
        <g>
          <path class="cls-27" d="M294.93,168.3s22.82-59.83,34.45-74.29c11.63-14.46,130.8-33.58,166.55-5.42,0,0,6.34,12.91,4.22,18.13"/>
          <path class="cls-18" d="M293.85,234.07s-87.31,2.58-89.78-8.38c-5.74-25.47,53.58-44.73,53.58-44.73,0,0,141.91-50.73,193.27-70.95,38.89-15.31,128.28-38.52,144.39,3.6,16.11,42.11-60.72,84.63-60.72,84.63,0,0-147.24-26.87-239.69,18.95,0,0-3.02,9.49-1.06,16.88Z"/>
          <path class="cls-2" d="M534.6,198.24s71.65-50.68,30.27-77.84c-33.28-21.85-93.38,.46-154.82,33.14-61.44,32.68-152.44,51.31-152.44,51.31,0,0-37.84,21.05,36.24,29.22"/>
        </g>
      </g>
      <g>
        <path class="cls-24" d="M1052.13,478.68s-11.08,35.1,6.82,69.39c0,0,4.47,125.25-90.95,134.94,0,0-66.57-48.78-38.51-129.14l122.64-75.19Z"/>
        <path class="cls-29" d="M1054.54,538.49s71.66,24.84,114.66,80.44c45.25,58.5,55.49,144.13,55.49,144.13,0,0-38.7,53.6-89.99,40.78,0,0,31.76,112.44,33.04,202.2,0,0-173.28,62.59-311.23-1.39,0,0-2.22-154.85-3.51-226.65,0,0-44.09-3.33-56.91-32.82l20.75-105.63s8.04-48.89,118.23-88.5c0,0-26.93,37.19,17.95,47.44,0,0,74.58,7.98,101.51-59.98Z"/>
        <path class="cls-24" d="M896.75,332.05s-22.15,20.89-16.46,75.96c0,0,5.06,13.93,2.53,29.75,0,0-8.23,28.48,1.9,51.27,10.13,22.79,25.32,46.21,25.32,46.21,0,0,12.66,12.66,29.75,9.49,0,0,25.95,8.86,48.74-5.7,22.79-14.56,62.03-60.13,62.03-60.13,0,0,20.89,5.7,27.22-15.82,6.33-21.52,15.82-37.98,2.53-50.64-13.29-12.66-29.75,22.15-29.75,22.15,0,0-5.28-15.62-2.75-31.44,0,0,3.12-26.89-15.61-64.14,0,0-58.73-25.49-135.46-6.96Z"/>
        <path class="cls-30" d="M957.12,391.96s30.36-1.72,52.52,15.04c0,0-7.34-22.72-51.15-23.9,0,0-8.23,3.83-1.38,8.86Z"/>
        <path class="cls-30" d="M880.83,401.56c17.55-10.65,29.04-8.72,29.04-8.72,5.85-5.82-2.59-8.2-2.59-8.2-13.05,2.42-22.4,6.29-29.09,10.47,0,0,1.68,7.03,2.64,6.44Z"/>
        <path class="cls-31" d="M941.49,546.41s31.7,4.83,45.04-6.32c0,0,15.52-7.87,33.67-28.21,0,0-22.1,36.39-51.38,39.79,0,0-13.77,2.41-27.33-5.27,0,0,.55,3.16,0,0Z"/>
        <path class="cls-12" d="M915.43,444.78s-13.75,29.74,15.22,25.7"/>
        <path class="cls-12" d="M1078.65,434.91s-12.56-19.46-21.47,18.14c0,0,10.56-18.03,15.81-5.67"/>
        <path class="cls-30" d="M920,381.34s5.47,7.55-.78,12.5c0,0,11.98-5.73,.78-12.5Z"/>
        <path class="cls-30" d="M949.7,381.34s-5.47,7.55,.78,12.5c0,0-11.98-5.73-.78-12.5Z"/>
        <g>
          <path class="cls-22" d="M903.79,497.05s13.17-17.89,31.49-11.92c0,0,14.2-8.99,40.98,9.87,0,0-13.65,17.47-39.73,16.04-26.09-1.43-32.73-13.99-32.73-13.99Z"/>
          <path class="cls-21" d="M907.57,498.09s9.5-9.68,28.43-9.59c18.93,.1,36.74,7.46,36.74,7.46,0,0-27.79,3.15-35.49,7.65,0,0-13.9-4.69-29.69-5.52Z"/>
          <path class="cls-20" d="M915.31,493.06s13.41-10.18,45.76-.84c0,0-27.6-2.49-45.76,.84Z"/>
        </g>
        <g>
          <path class="cls-20" d="M987.28,418.88s.03-.69-.46-1.28c-1.62-1.96-5.39-5.66-11.52-5.89-6.87-.26-10.89,6.05-12.27,8.31-.24,.39-.23,.74-.23,.74,0,0-.04,.38,.18,.66,1.05,1.31,4.57,5,11.07,5.34,3.87,.2,9.38-1.68,12.94-6.8,.25-.36,.28-.82,.28-1.07Z"/>
          <circle class="cls-31" cx="973.06" cy="419.57" r="7.11"/>
          <circle class="cls-20" cx="977.6" cy="418.29" r="1.95"/>
          <path class="cls-8" d="M962.61,420.01s8.97-16.08,24.48-2.46"/>
        </g>
        <g>
          <path class="cls-20" d="M910.52,421.72s.13-.64-.24-1.26c-1.23-2.06-4.2-6.03-9.87-7.12-6.35-1.22-10.99,4.07-12.6,5.97-.28,.33-.32,.65-.32,.65,0,0-.09,.35,.08,.64,.79,1.37,3.54,5.3,9.53,6.55,3.57,.74,8.96-.22,13.01-4.48,.28-.3,.38-.72,.42-.96Z"/>
          <circle class="cls-31" cx="897.2" cy="420.31" r="6.66"/>
          <circle class="cls-20" cx="901.8" cy="419.92" r="1.87"/>
          <path class="cls-8" d="M887.66,419.5s10.33-14.67,22.77,1.25"/>
        </g>
        <line class="cls-16" x1="853.02" y1="777.98" x2="851.05" y2="692.88"/>
        <path class="cls-6" d="M886.67,440.82c-.42-10.83,1.66-14.63,1.66-14.63"/>
        <path class="cls-6" d="M894.77,438.68s-.59,2.44-.77,4.68"/>
        <path class="cls-6" d="M987.73,425.67s2.06,4.05,2.33,6.65"/>
        <path class="cls-6" d="M985.09,433.4s1.14,1.51,1.42,4.12"/>
        <path class="cls-30" d="M878.67,334.07c1.67,40.33,.77,71.09,.77,71.09,1.66-55.66,13.41-55.81,13.41-55.81,45.11-32.11,125.41-2.37,125.41-2.37,26.94,31.15,29.05,94.06,29.05,94.06,17.76-40.83,33.62-27.02,33.62-27.02,18.21-103.75-49.49-110.71-49.49-110.71,0,0-27.41-28.35-54.69-14.98,0,0-14.68-16.43-38.3-1.88,0,0-26.53-10.05-37.68,12.03,0,0-23.85-7.08-22.09,35.59Z"/>
      </g>
      <path class="cls-5" d="M1134.71,803.83s-80.75-135.76-24.93-195.13"/>
    </g>
    <g>
      <path class="cls-24" d="M569.57,813.73s5.04-46.21,42.85-49.57c0,0,27.9-3.74,36.64-13.12,8.75-9.37,27.49-5.62,27.49-5.62,0,0,8.75,6.25,.62,12.5-8.12,6.25-41.24,22.5-41.24,22.5l111.23,11.25s20-3.75,20,8.75c0,12.5-14.37,11.25-14.37,11.25,0,0-1.87,13.75-18.12,12.5,0,0-9.37,16.87-23.75,15.62,0,0-3.12,7.5-20.62,8.75-17.5,1.25-82.48,6.25-82.48,6.25,0,0-26.73-.03-32.34-.03"/>
      <path class="cls-11" d="M684.57,810.42l68.23,1.23s15.22-.61,14.37-11.25-24.34-9.97-24.34-9.97l-106.89-10.02,41.24-22.5s8.6-13.79-9.52-13.79-18.6,6.91-18.6,6.91c0,0-16.05,11.67-36.64,13.12s-30.66,16.88-30.66,16.88"/>
      <line class="cls-15" x1="734.67" y1="824.15" x2="685.64" y2="824.31"/>
      <line class="cls-15" x1="710.93" y1="839.77" x2="673.03" y2="840.01"/>
      <path class="cls-24" d="M225.81,832.57c16.25,24.5,34.82,32.3,34.82,32.3,115.65,44.72,314.84-10.14,314.84-10.14l-3.22-50.28-216.75-37.84-31.03-64.82"/>
      <path class="cls-14" d="M225.81,494.93s60.47,71.81,108.35,215.44c0,0-21.42,86.93-108.35,122.21"/>
    </g>
  </g>
</svg>