<?xml version="1.0" encoding="UTF-8"?>
<svg id="Layer_1" data-name="Layer 1" xmlns="http://www.w3.org/2000/svg" viewBox="0 0 1334.25 999.77">
  <defs>
    <style>
      .cls-1, .cls-2 {
        stroke-width: 1.5px;
      }

      .cls-1, .cls-2, .cls-3, .cls-4, .cls-5, .cls-6, .cls-7, .cls-8, .cls-9, .cls-10, .cls-11, .cls-12, .cls-13, .cls-14, .cls-15, .cls-16, .cls-17, .cls-18 {
        stroke-miterlimit: 10;
      }

      .cls-1, .cls-2, .cls-3, .cls-4, .cls-5, .cls-6, .cls-8, .cls-13, .cls-14, .cls-15, .cls-16, .cls-17, .cls-18 {
        fill: none;
      }

      .cls-1, .cls-9, .cls-18 {
        stroke: #fff;
      }

      .cls-2, .cls-6, .cls-8, .cls-13 {
        stroke: #231f20;
      }

      .cls-3, .cls-4, .cls-5, .cls-6, .cls-12 {
        stroke-width: .8px;
      }

      .cls-3, .cls-12 {
        stroke: #754c29;
      }

      .cls-4 {
        stroke: #c16b7b;
      }

      .cls-5, .cls-15 {
        stroke: #603913;
      }

      .cls-19 {
        fill: #f7daa6;
      }

      .cls-20 {
        fill: #f7d9a4;
      }

      .cls-21 {
        fill: #017d75;
      }

      .cls-22 {
        fill: #00714f;
      }

      .cls-23 {
        fill: #ec6b8a;
      }

      .cls-24, .cls-7, .cls-10 {
        fill: #e6e7e8;
      }

      .cls-25 {
        fill: #f6ac1b;
      }

      .cls-26 {
        fill: #e96d42;
      }

      .cls-27 {
        fill: #fff;
      }

      .cls-28 {
        fill: #803435;
      }

      .cls-29 {
        fill: #016041;
      }

      .cls-30 {
        fill: #8b5e3c;
      }

      .cls-31, .cls-11 {
        fill: #9054a2;
      }

      .cls-32 {
        fill: #943f23;
      }

      .cls-33 {
        fill: #8bcda9;
      }

      .cls-34 {
        fill: #b19074;
      }

      .cls-35 {
        fill: #ae8578;
      }

      .cls-36 {
        fill: #a97c50;
      }

      .cls-37 {
        fill: #be8c8c;
      }

      .cls-38 {
        fill: #caa88a;
      }

      .cls-39 {
        fill: #d1d3d4;
      }

      .cls-40 {
        fill: #e2c799;
      }

      .cls-41 {
        fill: #dcbf97;
      }

      .cls-42 {
        fill: #d4d5d6;
      }

      .cls-43 {
        fill: #b13c27;
      }

      .cls-44 {
        fill: #e19926;
      }

      .cls-45 {
        fill: #194246;
      }

      .cls-46 {
        fill: #0e8e81;
      }

      .cls-47 {
        fill: #2b6666;
      }

      .cls-48 {
        fill: #3c2415;
      }

      .cls-49 {
        fill: #4c96a4;
      }

      .cls-50 {
        fill: #26130f;
      }

      .cls-7 {
        stroke: #58595b;
        stroke-width: .2px;
      }

      .cls-8 {
        stroke-width: .7px;
      }

      .cls-9 {
        fill: #754c29;
      }

      .cls-9, .cls-17, .cls-18 {
        stroke-width: .5px;
      }

      .cls-10 {
        stroke: #808285;
      }

      .cls-11 {
        stroke: #662d91;
      }

      .cls-12 {
        fill: #be9e7d;
      }

      .cls-14 {
        stroke: #d1d3d4;
      }

      .cls-16 {
        stroke: #6d6e71;
      }

      .cls-17 {
        stroke: #f8b8a7;
      }
    </style>
  </defs>
  <g>
    <rect class="cls-33" width="1334.25" height="739.17"/>
    <g>
      <rect class="cls-30" x="3.22" y="291.31" width="631.29" height="349.85"/>
      <rect class="cls-36" x="37" y="313.65" width="562.88" height="91.57"/>
      <polygon class="cls-30" points="27.98 717.73 .58 717.73 28.65 640.58 62.06 640.58 27.98 717.73"/>
      <polygon class="cls-30" points="599.35 717.73 626.75 717.73 598.68 640.58 565.27 640.58 599.35 717.73"/>
      <rect class="cls-30" x="279.42" y="352.25" width="79.41" height="13.49"/>
      <rect class="cls-36" x="37" y="417.23" width="562.88" height="91.57"/>
      <rect class="cls-30" x="279.42" y="455.83" width="79.41" height="13.49"/>
      <rect class="cls-36" x="37" y="520.81" width="562.88" height="91.57"/>
      <rect class="cls-30" x="279.42" y="559.41" width="79.41" height="13.49"/>
      <rect class="cls-27" x="21.34" y="290.6" width="593.23" height="30.3"/>
      <polyline class="cls-1" points="22.32 317.96 22.69 324.43 26.96 319.55 27.34 326.03 31.62 321.15 32.97 327.79 34.31 321.16 38.59 326.03 38.96 319.56 43.24 324.43 44.59 317.79 45.94 324.43 50.22 319.55 50.59 326.03 54.87 321.15 56.22 327.79 57.57 321.16 61.85 326.03 62.22 319.56 66.5 324.43 67.85 317.79 69.2 324.43 73.48 319.55 73.85 326.03 78.13 321.15 79.48 327.79 80.83 321.16 85.11 326.03 85.48 319.56 89.76 324.43 91.11 317.79 92.46 324.43 96.73 319.55 97.11 326.03 101.39 321.15 102.74 327.79 104.09 321.16 108.36 326.03 108.74 319.56 113.02 324.43 114.37 317.79 115.72 324.43 119.99 319.55 120.37 326.03 124.65 321.15 126 327.79 127.35 321.16 131.62 326.03 131.99 319.56 136.27 324.43 137.63 317.79 138.98 324.43 143.25 319.55 143.62 326.03 147.9 321.15 149.26 327.79 150.61 321.16 154.88 326.03 155.26 319.56 159.54 324.43 160.89 317.79 162.24 324.43 166.51 319.55 166.88 326.03 171.16 321.15 172.52 327.79 173.87 321.16 178.14 326.03 178.51 319.56 182.79 324.43 184.15 317.79 185.5 324.43 189.77 319.55 190.15 326.03 194.43 321.15 195.78 327.79 197.13 321.16 201.4 326.03 201.77 319.56 206.05 324.43 207.41 317.79 208.76 324.43 213.03 319.55 213.41 326.03 217.69 321.15 219.04 327.79 220.39 321.16 224.66 326.03 225.04 319.56 229.32 324.43 230.67 317.79 232.02 324.43 236.29 319.55 236.67 326.03 240.95 321.15 242.3 327.79 243.65 321.16 247.92 326.03 248.3 319.56 252.58 324.43 253.93 317.79 255.28 324.43 259.56 319.55 259.93 326.03 264.21 321.15 265.56 327.79 266.91 321.16 271.19 326.03 271.56 319.56 275.84 324.43 277.19 317.79 278.54 324.43 282.82 319.55 283.19 326.03 287.47 321.15 288.82 327.79 290.18 321.16 294.45 326.03 294.83 319.56 299.11 324.43 300.46 317.79 301.81 324.43 306.08 319.55 306.46 326.03 310.74 321.15 312.09 327.79 313.44 321.16 317.71 326.03 318.09 319.56 322.37 324.43 323.72 317.79 325.07 324.43 329.35 319.55 329.72 326.03 334 321.15 335.35 327.79 336.7 321.16 340.98 326.03 341.35 319.56 345.63 324.43 346.99 317.79 348.34 324.43 352.61 319.55 352.99 326.03 357.27 321.15 358.62 327.79 359.97 321.16 364.24 326.03 364.62 319.56 368.9 324.43 370.25 317.79 371.6 324.43 375.88 319.55 376.25 326.03 380.53 321.15 381.88 327.79 383.23 321.16 387.51 326.03 387.88 319.56 392.16 324.43 393.52 317.79 394.87 324.43 399.14 319.55 399.51 326.03 403.79 321.15 405.15 327.79 406.49 321.16 410.77 326.03 411.14 319.56 415.42 324.43 416.77 317.79 418.12 324.43 422.4 319.55 422.77 326.03 427.05 321.15 428.41 327.79 429.76 321.16 434.03 326.03 434.4 319.56 438.68 324.43 440.04 317.79 441.39 324.43 445.66 319.55 446.04 326.03 450.32 321.15 451.67 327.79 453.02 321.16 457.29 326.03 457.67 319.56 461.95 324.43 463.3 317.79 464.65 324.43 468.93 319.55 469.3 326.03 473.58 321.15 474.94 327.79 476.29 321.16 480.56 326.03 480.94 319.56 485.22 324.43 486.57 317.79 487.92 324.43 492.19 319.55 492.57 326.03 496.85 321.15 498.2 327.79 499.55 321.16 503.83 326.03 504.2 319.56 508.48 324.43 509.84 317.79 511.19 324.43 515.46 319.55 515.84 326.03 520.12 321.15 521.47 327.79 522.82 321.16 527.1 326.03 527.47 319.56 531.75 324.43 533.11 317.79 534.46 324.43 538.73 319.55 539.11 326.03 543.39 321.15 544.74 327.79 546.09 321.16 550.37 326.03 550.74 319.56 555.02 324.43 556.37 317.79 557.72 324.43 562 319.55 562.38 326.03 566.66 321.15 568.01 327.79 569.36 321.16 573.64 326.03 574.01 319.56 578.29 324.43 579.65 317.79 581 324.43 585.27 319.55 585.65 326.03 589.93 321.15 591.28 327.79 592.63 321.16 596.91 326.03 597.29 319.56 601.57 324.43 602.93 317.79 604.28 324.43 608.55 319.55 608.93 326.03 613.21 321.15 613.59 327.63"/>
    </g>
    <rect class="cls-20" y="714.81" width="1333.02" height="284.96"/>
    <g>
      <path class="cls-46" d="M372.01,137.67s13.98,45.17-28.14,87.59c0,0-33.97-25.31-3.02-62.96,0,0,18.23-17.33,31.16-24.63Z"/>
      <path class="cls-26" d="M270.58,209.68v39.56s.72,25.12,24.68,41.29h40.43s24.33-12.13,25.4-41.87v-40.14l-90.51,1.15Z"/>
      <path class="cls-22" d="M335.31,213.59s41.95-32.24,72-20.35c0,0,5.63,46.96-46.33,31.93,0,0-15.96-10.33-25.67-11.58Z"/>
      <path class="cls-21" d="M413.52,159.66s-47.27,.55-74.64,46.72c0,0,34.56,21.29,60.82-14.38,0,0,8.29-23.78,13.82-32.35Z"/>
      <path class="cls-22" d="M289.42,131.97s-28.8,67.66,38.85,72.68c0,0,22.78-47.23-38.85-72.68Z"/>
      <path class="cls-46" d="M247.89,146.71s-29.47,39.19,47.23,49.57l12.06,.67s-13.4-37.51-59.28-50.24Z"/>
      <path class="cls-21" d="M302.85,188.1s-87.42-5.02-88.42,13.4c-1,18.42,51.58,14.74,51.58,14.74,0,0,28.47-4.35,46.22-21.1"/>
      <path class="cls-46" d="M355.76,197.19s-45.5-4.7-68.1-.59c0,0-32.88,32.29,3.23,44.33,0,0,18.79,7.05,36.99-26.71,0,0,12.04-14.68,27.89-17.03Z"/>
      <path class="cls-29" d="M355.76,197.19s7.8,5.36,7.33,17.66c0,0-23.89,6.03-36.88,1.62,0,0,8.07-16.99,29.55-19.28Z"/>
      <path class="cls-17" d="M271.53,241.38s43.77,22.38,88.53,0"/>
      <path class="cls-17" d="M271.53,248.82s43.77,22.38,88.53,0"/>
    </g>
    <polygon class="cls-31" points="715.97 964.8 36.57 964.8 171.98 763.34 804.89 763.34 715.97 964.8"/>
  </g>
  <g>
    <path class="cls-38" d="M893.06,436.8l-15.67,30.56-108.9-7.83-31.17-21.66-6.68-21.71,1.11-17.82s-5.57-5.57-11.69,3.9c0,0-4.47,10.15-1.98,27.14l-10.36,3.73s-28.17-1.24-30.24,8.7,3.31,9.53,3.31,9.53c0,0-5.8,7.46,.83,13.67,0,0-8.29,8.7,2.07,15.33,0,0-.83,10.36,7.04,10.77s29.41,5.39,53.86,2.07l14.49,7.89s120.65,50.14,159.83,33.69,38.39-39.96,38.39-39.96"/>
    <path class="cls-5" d="M687.83,436.52l25.13,4.24s6.49,2.82,4.8,7.06-7.34,4.52-7.34,4.52l-29.63-1.01"/>
    <path class="cls-5" d="M684.16,464.47s23.44,.85,28.52-1.69,2.26-7.62,2.26-7.62l-4.52-2.82"/>
    <path class="cls-5" d="M685.58,478.87s25.69-.28,30.49-5.36-3.39-10.73-3.39-10.73"/>
    <path class="cls-5" d="M690.74,491.09l21.38-7.7s5.93-3.95,0-6.78"/>
    <path class="cls-5" d="M716.35,464.75s12.14-9.04,19.76-3.95"/>
    <path class="cls-5" d="M751.36,477.74s3.97,9.38-6.77,15.42"/>
    <path class="cls-38" d="M1048.96,207.03s6.66,28.99,23.51,50.53c0,0,4.92,82.35-58.12,96.38,0,0-48.37-27.35-35.96-83.29l70.57-63.61Z"/>
    <path class="cls-9" d="M938.84,865.12s9.8,14.02,5.96,34.25c0,0-13.63,21.83-67.67,21.07,0,0-39.95,29.19-90.52,19.59,0,0-41.74-6.14-11.78-35.85,0,0,39.31-36.24,73.94-45.78,0,0,30.73,25.61,90.07,6.72Z"/>
    <path class="cls-9" d="M1021.89,879.47s9.96,14.34,5.99,34.98c0,0-13.98,22.25-69.13,21.34,0,0-40.86,29.7-92.46,19.78,0,0-42.6-6.38-11.94-36.63,0,0,40.22-36.89,75.6-46.55,0,0,31.31,26.22,91.94,7.09Z"/>
    <polygon class="cls-30" points="1126.43 925.17 1140.55 921.87 1140.55 775.03 1126.43 775.03 1126.43 925.17"/>
    <polygon class="cls-36" points="1101.85 921.87 1126.72 925.17 1126.72 775.03 1101.85 775.03 1101.85 921.87"/>
    <polygon class="cls-30" points="1194.53 908.61 1208.64 905.32 1208.64 758.48 1194.53 758.48 1194.53 908.61"/>
    <polygon class="cls-36" points="1169.94 905.32 1194.82 908.61 1194.82 758.48 1169.94 758.48 1169.94 905.32"/>
    <polygon class="cls-36" points="1145.13 730.54 1145.13 785.58 877.34 784.1 877.34 732.03 1145.13 730.54"/>
    <polygon class="cls-30" points="1145.13 730.54 1244.81 732.03 1244.81 781.12 1145.13 785.58 1145.13 730.54"/>
    <path class="cls-34" d="M1211.03,590.68s21.95,122-65.9,139.86c-84.31,17.13-133.59,3.11-133.59,3.11,0,0,18.89,61.85,10.68,146.03-.36,6.18-73.58,24.82-97.04-3.53,0,0-19.59-64.72-25.75-153.01,0,0,30.39,77.05,26.37,149.37,0,0-66.41,16.34-86.94-6.24,0,0-35.93-151.34-17.45-206.78,18.48-55.44,140.4-87.23,140.4-87.23,0,0,70.91,99.45,249.21,18.42Z"/>
    <path class="cls-15" d="M1016.33,624.79s-94.88,24.06-115.01,53.67c-19.72,29.02,20.72,187.87,20.72,187.87"/>
    <path class="cls-5" d="M881.53,461.36s24.85,10.73,32.75,37.27"/>
    <g>
      <path class="cls-24" d="M1192.34,491.29s24.87,59.9,17.51,99.39c0,0-73.61,42.55-156.07,28.99,0,0-71.43-10.21-93.14-47.4,0,0-11.57-41.38,.18-70.76,2.22-5.55-13.99,32.54-16.32,24.16,0,0-51.97-69.21-62.68-71.17l19.83-66.38s3.02-45.93,28.49-77.27c0,0,15.08-10.85,32.21-22.45l42.11,18.89,13.84,48.79,5.71-45.45s-.56-12.77,47.77-55.56c0,0,60.21,9.21,91.87,30.27,0,0,33.05,34.72,29.57,68.92l-.87,137.04Z"/>
      <path class="cls-42" d="M1071.76,255.06s-41.71,37.82-47.77,55.56l-2-15.88s30.68-29.25,39.84-47.95l9.93,8.27Z"/>
      <path class="cls-42" d="M977.27,274.26s-17.95,3.21-14.93,14.14l42.11,18.89-.78-9.47s-18.94-4.6-33.05-15.54c0,0,7.36-2.58,6.66-8.01Z"/>
      <path class="cls-16" d="M1018.28,356.08s-3.02,45.53,45.26,264.24"/>
      <ellipse class="cls-39" cx="1029.95" cy="360" rx="2.91" ry="3.02" transform="translate(-52.23 221.14) rotate(-11.95)"/>
      <ellipse class="cls-39" cx="1033.23" cy="411.07" rx="2.91" ry="3.02" transform="translate(-62.74 222.93) rotate(-11.95)"/>
      <ellipse class="cls-39" cx="1041.03" cy="465.47" rx="2.91" ry="3.02" transform="translate(-73.84 225.72) rotate(-11.95)"/>
      <ellipse class="cls-39" cx="1050.4" cy="514.61" rx="2.91" ry="3.02" transform="translate(-83.81 228.73) rotate(-11.95)"/>
      <ellipse class="cls-39" cx="1061.98" cy="576.44" rx="2.91" ry="3.02" transform="translate(-96.37 232.47) rotate(-11.95)"/>
      <path class="cls-39" d="M1108.46,371.36l6.88,44.58s-20.08,29.59-51.4,10.88l-10.19-48.14s20.2,6.81,54.71-7.32Z"/>
      <path class="cls-39" d="M990.97,396.23l6.88,44.58s-20.08,29.59-51.4,10.88l-10.19-48.14s20.2,6.81,54.71-7.32Z"/>
      <path class="cls-39" d="M1149.43,529.78l7.8,50.52s-22.75,33.53-58.26,12.33l-11.55-54.56s22.89,7.71,62.01-8.3Z"/>
      <path class="cls-39" d="M1030.06,520.77l-1.41,51.1s-28.41,28.89-59.52,1.66l-1.56-55.75s21.13,11.7,62.49,2.98Z"/>
      <path class="cls-14" d="M1088.78,257.75s-30.82,102.82,42.37,359.96"/>
      <path class="cls-14" d="M1081.47,256.98s-29.44,106,43.76,363.14"/>
      <path class="cls-14" d="M1074.27,255.75s-28.91,109.03,44.29,366.17"/>
      <path class="cls-14" d="M1096.21,259.08s-31.84,99.37,41.36,356.51"/>
      <path class="cls-14" d="M963.42,288.34s-30.25,89.93,47.16,316.66"/>
      <path class="cls-14" d="M955.33,294.11s-28.78,83.81,48.63,310.54"/>
      <path class="cls-14" d="M947.04,299.72s-28.65,76.91,48.75,303.65"/>
      <path class="cls-14" d="M970.82,289.05s-30.38,89.43,47.02,316.16"/>
      <path class="cls-10" d="M1095.52,314.03c-32.8,49.89-25.29,129.85-25.29,129.85,0,0,15.86,22.05,87.55,24.01"/>
    </g>
    <path class="cls-38" d="M1076.24,449.15l-3.04,26.85c-29.38,31.91-76.76,113.56-76.76,113.56,0,0-6.18,19.69-34.64,27.86-31.48,9.04-38.34,23.3-38.34,23.3l-28.16,43.68s-4.38,11.02,11.48,4.69c0,0,3.25,9.4,13.64-.08,0,0,5.38,2.72,9.17-.19,1.26-.97,4.03-2.94,6.62-7.45,0,0,15-19.17,23.18-23.19,0,0-15.52,14.7-17.6,21.82,0,0,4.48,7.93,14.46-3.56,7.65-8.81,18.17-16.28,18.17-16.28,0,0,28.06-8.1,35.21-24.67l17.32-9.79s114.13-92.97,120.21-108.67c6.08-15.7,10.64-49.13,10.64-49.13"/>
    <path class="cls-5" d="M930.18,653.19s-19.24,23.71-23.39,35.9"/>
    <path class="cls-5" d="M920.43,689.01s9.48-19.38,22.92-33.84"/>
    <path class="cls-38" d="M906.53,131.31s-7.92,22.24,7.81,66.13c0,0,4.84,10.25,5.29,16.38,.45,6.13,5.03,14.87,7.02,21.41,11.23,36.99,31.55,42.76,31.55,42.76,0,0,8.6,10.61,29.83,4.98,21.23-5.63,39.99-18.26,45.14-29.29,5.15-11.03,17.26-30.84,15.35-45.07,0,0,13.35-.61,14.29-17.15,0,0,7.18-27.28-8.18-29.61-15.36-2.34-18.04,18.76-18.04,18.76,0,0,5.97-60.92-31.26-73.95,0,0-52.51-20.7-98.81,24.64Z"/>
    <path class="cls-35" d="M990.32,230.3s-11.48,.36-22.63,8.11c0,0-11.41,1.53-20.29,6.97,0,0,6.99,16.88,24.47,15.14,17.48-1.74,22.22-20.25,18.46-30.21Z"/>
    <path class="cls-28" d="M988.15,232.41s5.39,15.21-14.45,22.02c-18.02,6.18-22.82-7.35-22.82-7.35,0,0,20.61-6.05,37.27-14.67Z"/>
    <path class="cls-24" d="M963.46,171.68s15.59-11.12,33.02-10.02c0,0-11.54-9.16-35.26,5.02,0,0-3.1,4.74,2.24,5Z"/>
    <path class="cls-24" d="M910.02,187.91c11.84-6.13,19.18-4.47,19.18-4.47,4.05-3.49-1.3-5.32-1.3-5.32-8.55,1.05-14.77,3.17-19.29,5.58,0,0,.77,4.54,1.41,4.21Z"/>
    <path class="cls-27" d="M985.76,233.47s-2.87,7.29-18.47,11.82c0,0-8.93,5.19-14.63,1.51,0,0,19.93-6.36,33.1-13.33Z"/>
    <path class="cls-13" d="M1058.22,171.68s-7.65-5.9-10.63,3.82-2.39,12.42-2.39,12.42c0,0,3.85-15.14,10.45-6.32"/>
    <path class="cls-7" d="M1060.01,163s-12.97-6.16-17.55,6.51c-4.58,12.67-1.87,17.05-1.87,17.05l-7.06,1.94s12.22-43.53-15.54-51.51c0,0-2.88-29.33-25.19-27.22-22.31,2.11-38.59-15.8-87.89,26.61,0,0-14.34-30.14,40.3-55.16,0,0,36.81-17.37,53.78-.99,0,0,26.36-4.93,43.32,26.89,16.96,31.82,17.72,55.88,17.72,55.88Z"/>
    <path class="cls-50" d="M982.75,284.11s24.17-5.4,36.97-15.78c0,0,10.77-6.22,18.34-23.61,0,0-8.68,25.29-30.42,34.66-.11,.05-.2,.08-.31,.12-1,.42-13.27,5.73-22.25,7.57,0,0-2.67-2.29-2.33-2.98Z"/>
    <path class="cls-6" d="M970.31,138.98s-15.75,7.33-22.9,11.71c-7.15,4.38-31.58,6.03-31.58,6.03"/>
    <path class="cls-24" d="M972.25,222.86s13.2,4.34,22.32,2.99c0,0-.41,3.84-4.25,4.45,0,0-15.6,1.75-22.63,8.11,0,0-11.36,1.13-20.29,6.97,0,0-.88,1.13-3.18,1.41,0,0,7.73-10.86,6.06-14.73,0,0,10.08,1.5,14.51-7.03,0,0,3.06,.43,7.47-2.16Z"/>
    <path class="cls-13" d="M948.55,197.04l-2.57,24.78s-.17,13.24,9.68,10.18c8.17-2.54,7.82-5.23,7.82-5.23"/>
    <path class="cls-6" d="M1000.25,230.7s-1.44-9.69-7.65-10.2c-6.21-.51-12.28-10.5-12.28-10.5"/>
    <g>
      <path class="cls-27" d="M988.46,176.6s-.14-.48-.62-.78c-1.59-.97-5.07-2.64-9.37-1.34-4.81,1.45-6.1,6.78-6.52,8.66-.07,.33,.02,.57,.02,.57,0,0,.06,.27,.28,.41,1.04,.66,4.35,2.37,8.93,1.07,2.72-.78,6.09-3.39,7.34-7.78,.09-.31,0-.64-.06-.81Z"/>
      <circle class="cls-50" cx="978.79" cy="180.45" r="5.2"/>
      <circle class="cls-27" cx="980.12" cy="176.83" r="1.43"/>
      <path class="cls-8" d="M971.66,183.24s2.39-13.26,16.36-7.52"/>
    </g>
    <g>
      <path class="cls-27" d="M933.64,197.72s-.06-.47-.47-.81c-1.34-1.13-4.34-3.18-8.53-2.59-4.68,.66-6.64,5.43-7.3,7.12-.11,.29-.07,.53-.07,.53,0,0,.02,.26,.2,.42,.87,.76,3.71,2.83,8.15,2.27,2.65-.33,6.15-2.28,7.94-6.19,.12-.27,.09-.59,.06-.76Z"/>
      <circle class="cls-50" cx="924.09" cy="199.91" r="4.87"/>
      <circle class="cls-27" cx="926.01" cy="196.34" r="1.37"/>
      <path class="cls-8" d="M917.3,201.62s3.66-12.61,16.05-4.54"/>
    </g>
    <g>
      <path class="cls-40" d="M1050.95,114.66s-19.71-35.23-28.29-43.18c-8.58-7.95-84.65-8.97-104.37,11.87,0,0-2.77,8.63-.97,11.7"/>
      <path class="cls-19" d="M1057.64,155.58s54.69-6.39,55.22-13.45c1.25-16.41-37.51-22.99-37.51-22.99,0,0-93.16-18.64-127.04-26.55-25.65-5.98-83.53-12.27-89.73,15.47-6.19,27.74,45.62,47.22,45.62,47.22,0,0,89.37-30.25,151.23-10.13,0,0,2.75,5.64,2.21,10.43Z"/>
      <path class="cls-2" d="M904.21,155.29s-49.33-25.05-26.01-45.78c18.75-16.67,58.28-8.27,99.59,6.49,41.31,14.75,99.78,18.04,99.78,18.04,0,0,25.53,9.66-19.93,21.54"/>
    </g>
  </g>
  <g>
    <rect class="cls-43" x="586.72" y="716.42" width="40.55" height="27.57"/>
    <polygon class="cls-32" points="637.49 737.93 627.27 744.39 627.27 716.22 637.49 711.76 637.49 737.93"/>
    <polygon class="cls-32" points="586.72 716.42 627.27 716.22 637.49 711.76 597.75 711.76 586.72 716.42"/>
  </g>
  <g>
    <rect class="cls-43" x="460.77" y="795.51" width="40.55" height="27.57"/>
    <polygon class="cls-32" points="511.54 817.03 501.32 823.49 501.32 795.32 511.54 790.85 511.54 817.03"/>
    <polygon class="cls-32" points="460.77 795.51 501.32 795.32 511.54 790.85 471.8 790.85 460.77 795.51"/>
  </g>
  <g>
    <rect class="cls-43" x="586.9" y="831.73" width="40.55" height="27.57"/>
    <polygon class="cls-32" points="637.67 853.25 627.45 859.7 627.45 831.53 637.67 827.07 637.67 853.25"/>
    <polygon class="cls-32" points="586.9 831.73 627.45 831.53 637.67 827.07 597.92 827.07 586.9 831.73"/>
  </g>
  <g>
    <rect class="cls-49" x="639.45" y="725.11" width="40.55" height="27.57"/>
    <polygon class="cls-47" points="690.22 746.62 679.99 753.08 679.99 724.91 690.22 720.45 690.22 746.62"/>
    <polygon class="cls-47" points="639.45 725.11 679.99 724.91 690.22 720.45 650.47 720.45 639.45 725.11"/>
  </g>
  <g>
    <rect class="cls-49" x="517.15" y="808.46" width="40.55" height="27.57"/>
    <polygon class="cls-47" points="567.92 829.98 557.7 836.44 557.7 808.27 567.92 803.8 567.92 829.98"/>
    <polygon class="cls-45" points="517.15 808.46 557.7 808.27 567.92 803.8 528.18 803.8 517.15 808.46"/>
  </g>
  <g>
    <rect class="cls-25" x="691.55" y="711.18" width="40.55" height="27.57"/>
    <polygon class="cls-44" points="742.32 732.69 732.1 739.15 732.1 710.98 742.32 706.51 742.32 732.69"/>
    <polygon class="cls-44" points="691.55 711.18 732.1 710.98 742.32 706.51 702.58 706.51 691.55 711.18"/>
  </g>
  <g>
    <rect class="cls-25" x="572.91" y="773.24" width="40.55" height="27.57"/>
    <polygon class="cls-44" points="623.68 794.75 613.45 801.21 613.45 773.04 623.68 768.58 623.68 794.75"/>
    <polygon class="cls-44" points="572.91 773.24 613.45 773.04 623.68 768.58 583.93 768.58 572.91 773.24"/>
  </g>
  <g>
    <rect class="cls-25" x="643.49" y="863.29" width="40.55" height="27.57"/>
    <polygon class="cls-44" points="694.26 884.8 684.04 891.26 684.04 863.09 694.26 858.63 694.26 884.8"/>
    <polygon class="cls-44" points="643.49 863.29 684.04 863.09 694.26 858.63 654.51 858.63 643.49 863.29"/>
  </g>
  <g>
    <rect class="cls-25" x="517.33" y="780.74" width="40.55" height="27.57"/>
    <polygon class="cls-44" points="568.1 802.26 557.88 808.72 557.88 780.55 568.1 776.08 568.1 802.26"/>
    <polygon class="cls-44" points="517.33 780.74 557.88 780.55 568.1 776.08 528.36 776.08 517.33 780.74"/>
  </g>
  <g>
    <path class="cls-41" d="M370.4,668.65s5.59,34.03,2.54,54.34l29.52,23.58-14.81,21.32-41.29-16.81,24.04-82.43Z"/>
    <path class="cls-31" d="M370.4,668.65s7.75,33.48,2.54,54.34c0,0-6.72,8.11-14.27,7.55"/>
    <path class="cls-41" d="M311.43,605.76s-.09,18.7-11.22,30.51c0,0-3.15,43.6,26.59,53.03,0,0,20.05,9.01,27.28-25.07,0,0-7.56-4.5-4.59-13.17l-38.07-45.3Z"/>
    <path class="cls-31" d="M231.02,769.64s10.89-94.39,45.93-117.75c0,0,16.81-11.76,20.68-12.53,0,0,3.09,31.68,40.18,32.45,0,0,20.09-2.32,7.73-30.91,0,0,21.64,9.27,24.73,23.95,3.09,14.68-11.59,65.68-11.59,65.68,0,0-.96,55.91-31.68,58.72-28.56,2.62-54.25,5.88-95.97-19.62Z"/>
    <path class="cls-23" d="M261.37,812.52s-6.77,1.13-12.98,11.29c0,0-11.85,9.03-22.01,12.42-10.16,3.39-12.42,14.11-12.42,14.11,0,0-.47,10.3,24.22-.28,0,0,10.11-17.87,18.58-22.34,8.47-4.47,11.99-4,11.52-9.17l-6.91-6.02Z"/>
    <path class="cls-41" d="M246.02,844.8l12.05,6.46-2.76,18.01-5,.03s-6.85-1.33-18.05,2.72c-11.2,4.06-16.35,4.28-16.35,4.28l-.53-10.12,18.66-16.07,11.96-5.32Z"/>
    <path class="cls-23" d="M239.11,838.78s-6.77,1.13-12.98,11.29c0,0-11.65,9.72-22.01,12.42-12.96,3.37-12.42,14.11-12.42,14.11,0,0-.47,10.3,24.22-.28,0,0,10.11-17.87,18.58-22.34,8.47-4.47,11.99-4,11.52-9.17l-6.91-6.02Z"/>
    <path class="cls-18" d="M218.99,855.38l7.13-5.31s3.93-8.96,12.98-11.29"/>
    <path class="cls-41" d="M309.73,589.72s-4.26-15.03-13-12.77c-8.74,2.26-7.12,19.86-7.12,19.86,0,0,5.01,15.72,16.46,12.34,0,0,3.39,29.25,38.06,43.28,0,0,14.25,6.85,30.78-4.53,15.94-10.97,18.18-37.35,18.18-37.35,0,0,3.13-3.65,7.55-19.05,4.41-15.4,5.19-34.69-12.72-46.97-17.9-12.27-29.47-18.44-52.54-9.35-23.08,9.09-25.63,54.54-25.63,54.54Z"/>
    <path class="cls-37" d="M350.75,625.15s5.67,.02,11.81,3.25c0,0,5.32,1.07,10.2,3.72,0,0-1.29,7.32-10.67,6.87-9.38-.45-13.08-8.42-11.35-13.84Z"/>
    <path class="cls-28" d="M351.48,625.76s-2.46,8.26,8.31,11.35c9.78,2.8,11.97-4.55,11.97-4.55,0,0-11.16-2.66-20.29-6.8Z"/>
    <path class="cls-48" d="M358.16,581.39s-7.87-4.7-16.33-2.05c0,0-3.55-2.71,2.54-3.6,6.08-.89,10.53-1.31,14.99,2.79,0,0,1.71,2.56-1.19,2.85Z"/>
    <path class="cls-48" d="M386.73,589.96s6.23-1.41,12.01,5.32c0,0,3.26-.73,.95-3.3-3.42-3.8-6.28-5-12.46-5.08,0,0-2.81,1.26-.5,3.05Z"/>
    <path class="cls-27" d="M352.91,626.34s1.6,4.7,10.24,6.74c0,0,5.18,1.77,8.18-.39,0,0-11.05-2.91-18.43-6.34Z"/>
    <path class="cls-50" d="M348.04,653.67s-8.56-1.22-19.74-9.96c0,0-4.36-2.39-11.78-11.19,0,0,4.81,8.33,16.44,17.09,0,0,4.84,3.85,15.16,6.79,0,0-.4-1.02-.08-2.72Z"/>
    <path class="cls-6" d="M295.16,588.48s4.93-4.23,7.27,2.2c2.33,6.42,2.03,8.25,2.03,8.25,0,0-3.1-10.03-7.23-3.88"/>
    <path class="cls-6" d="M374.72,609.88s3.85,11.9-8.19,9.73"/>
    <g>
      <path class="cls-27" d="M343.92,591.51s.08-.36,.42-.59c1.12-.77,3.58-2.1,6.75-1.32,3.54,.87,4.68,4.69,5.05,6.04,.06,.23,0,.41,0,.41,0,0-.04,.2-.19,.31-.73,.52-3.07,1.88-6.43,1.11-2-.46-4.54-2.23-5.61-5.37-.07-.22-.02-.46,.01-.59Z"/>
      <circle class="cls-50" cx="351.08" cy="593.94" r="3.77"/>
      <circle class="cls-27" cx="349.22" cy="591.88" r="1.04"/>
      <path class="cls-8" d="M356.35,595.7s-2.22-9.52-12.14-4.84"/>
    </g>
    <g>
      <path class="cls-27" d="M380.6,602.73s.03-.34,.3-.6c.91-.86,2.99-2.43,6-2.16,3.37,.3,4.95,3.64,5.48,4.82,.09,.2,.07,.38,.07,.38,0,0,0,.19-.13,.31-.59,.58-2.55,2.16-5.74,1.92-1.9-.14-4.48-1.4-5.9-4.13-.1-.19-.09-.42-.07-.54Z"/>
      <circle class="cls-50" cx="387.5" cy="603.95" r="3.49"/>
      <circle class="cls-27" cx="385.65" cy="602.12" r=".98"/>
      <path class="cls-8" d="M392.43,604.92s-3.08-8.88-11.64-2.65"/>
    </g>
    <path class="cls-41" d="M395.23,751.35s5.54-.18,10.4-2.73c4.86-2.55,19.21-3.09,20.08,1.21s-6.33,3.63-6.33,3.63c0,0-3.62,.95,2.24,2.24,5.86,1.28,9.96-1.86,11.03,.8,1.34,3.31-1.63,4.14-1.63,4.14l-11.46,2.09s3.24,3.27,7.8,2.57,6.51-1.29,7.58,.37c1.47,2.28,.7,4.01-3.96,4.27s-6.67,1.35-10.51,.11c0,0,.91,2.84,6.9,3.09,0,0,3.84,1.24,.44,3.27-3.4,2.03-11.93,.28-11.93,.28,0,0,1.9,2.19,5,3.7,3.1,1.5-1.59,3.23-1.59,3.23,0,0-19.72-2.63-28.66-11.75"/>
    <g>
      <rect class="cls-49" x="376.44" y="749.38" width="40.55" height="27.57" transform="translate(177.12 -68.45) rotate(12.68)"/>
      <path class="cls-41" d="M310.85,720.18c11.38,3.41,41.87,30.04,41.87,30.04l6.25,3.37s7.5-4.59,19.98-5.12l-1.76,7.84s-1.63,5.52,13.51,9.71c0,0,7.26,.85,9.49-1.2,0,0,7.37-.5,3.6,4.93,0,0,2.17,5.19-4.46,5.86,0,0-2.43,9.06-12.14,6.88,0,0,0,4.32-4.45,2.33s-12.85-5.64-12.85-5.64c0,0-12.24-3.14-19.03-9.58l-4.97-4.83s-36.86-7.28-53.93-20.25c0,0-7.74-5.92-7.28-15.7"/>
      <path class="cls-3" d="M403.78,769.75s-12.33,6.5-23.78-1.27"/>
      <path class="cls-3" d="M399.33,775.62s-11.56,6.48-20.9-2.74"/>
      <path class="cls-12" d="M387.19,782.5s-7.4-1.16-9.31-3.22"/>
      <polygon class="cls-47" points="424.72 777.59 413.33 781.65 419.52 754.17 430.47 752.05 424.72 777.59"/>
      <polygon class="cls-47" points="379.85 745.53 419.46 754.23 430.41 752.12 391.63 743.4 379.85 745.53"/>
      <path class="cls-15" d="M356.28,752.25l2.69,1.34s10.77-5.68,19.98-5.12"/>
    </g>
    <path class="cls-24" d="M231.02,769.64s-5.95,18.19-3.56,37.91c0,0-.6,26.18,22.28,39.64,0,0,12.48,9.69,.52,22.62,0,0,103.51,19.39,121.72,5.92,18.21-13.46,18.73-20.46,18.73-20.46,0,0,13.52-2.69,14.04-21,.52-18.31-12.48-32.31-12.48-32.31l-43.11-30.05s-14.33,40.22-118.13-2.26Z"/>
    <path class="cls-4" d="M338.17,796.02l42.65,23.16s18.73,9.16,9.88,36.08"/>
    <path class="cls-4" d="M249.75,847.19s30.69,9.16,45.25,4.85l54.62,4.31"/>
    <path class="cls-11" d="M355.67,753.23s4.04-15.52,3-22.7c0,0,7.33-27.55,6.77-39.56"/>
    <path class="cls-48" d="M309.27,539.11s-16.04,14.52-14.31,38.94c0,0,10.46-3.85,14.6,13.85,0,0,18.89-9.99,30.38-50.65,0,0,34.43,17.79,56.39,12.27,0,0,8.71,10.69,4.5,30.61l-1.36,12.01c13.18-33.83,1.56-53.08,1.56-53.08-20.23-34.48-56.92-28.68-65.31-24.45,0,0-8.73-19.89-30.93-9.52,0,0-11.67,3.92-11.3,13.55,0,0-16.38-12.19-24.1,8.96,0,0-15.76,1.83-11.05,20.48,0,0-11.41,8.86-.99,20.2,0,0,11.52,13.48,20.49,1.43,0,0,10.79,9.48,12.58-3.24,0,0,13.02,4.16,16.14-7.53,3.12-11.69,2.7-23.83,2.7-23.83Z"/>
    <path class="cls-11" d="M284.91,662.84s27.81,8.23,28.47,51.9c0,0-17.77,20.23-31.2,19.78,0,0-17.07-19.8-18.89-29.58"/>
  </g>
  <g>
    <g>
      <rect class="cls-49" x="436.09" y="854.18" width="40.55" height="27.57"/>
      <polygon class="cls-47" points="486.86 875.69 476.64 882.15 476.64 853.98 486.86 849.52 486.86 875.69"/>
      <polygon class="cls-47" points="436.09 854.18 476.64 853.98 486.86 849.52 447.12 849.52 436.09 854.18"/>
    </g>
    <g>
      <rect class="cls-25" x="480.72" y="853.72" width="40.55" height="27.57"/>
      <polygon class="cls-44" points="531.49 875.23 521.27 881.69 521.27 853.52 531.49 849.06 531.49 875.23"/>
      <polygon class="cls-44" points="480.72 853.72 521.27 853.52 531.49 849.06 491.75 849.06 480.72 853.72"/>
    </g>
    <g>
      <rect class="cls-43" x="525.57" y="854.38" width="40.55" height="27.57"/>
      <polygon class="cls-32" points="576.34 875.9 566.12 882.35 566.12 854.18 576.34 849.72 576.34 875.9"/>
      <polygon class="cls-32" points="525.57 854.38 566.12 854.18 576.34 849.72 536.6 849.72 525.57 854.38"/>
    </g>
    <g>
      <rect class="cls-25" x="516.37" y="876.36" width="40.55" height="27.57"/>
      <polygon class="cls-44" points="567.14 897.87 556.92 904.33 556.92 876.16 567.14 871.69 567.14 897.87"/>
      <polygon class="cls-44" points="516.37 876.36 556.92 876.16 567.14 871.69 527.4 871.69 516.37 876.36"/>
    </g>
    <g>
      <rect class="cls-49" x="419.74" y="860.63" width="40.55" height="27.57"/>
      <polygon class="cls-47" points="470.51 882.14 460.29 888.6 460.29 860.43 470.51 855.97 470.51 882.14"/>
      <polygon class="cls-47" points="419.74 860.63 460.29 860.43 470.51 855.97 430.77 855.97 419.74 860.63"/>
    </g>
    <g>
      <rect class="cls-43" x="405.63" y="866.89" width="40.55" height="27.57"/>
      <polygon class="cls-32" points="456.4 888.41 446.18 894.87 446.18 866.7 456.4 862.23 456.4 888.41"/>
      <polygon class="cls-32" points="405.63 866.89 446.18 866.7 456.4 862.23 416.66 862.23 405.63 866.89"/>
    </g>
    <g>
      <rect class="cls-25" x="388.47" y="874.83" width="40.55" height="27.57"/>
      <polygon class="cls-44" points="439.25 896.35 429.02 902.81 429.02 874.64 439.25 870.17 439.25 896.35"/>
      <polygon class="cls-44" points="388.47 874.83 429.02 874.64 439.25 870.17 399.5 870.17 388.47 874.83"/>
    </g>
    <g>
      <rect class="cls-43" x="372.59" y="881.82" width="40.55" height="27.57"/>
      <polygon class="cls-32" points="423.36 903.34 413.14 909.8 413.14 881.63 423.36 877.16 423.36 903.34"/>
      <polygon class="cls-32" points="372.59 881.82 413.14 881.63 423.36 877.16 383.62 877.16 372.59 881.82"/>
    </g>
    <g>
      <rect class="cls-49" x="358.39" y="891.82" width="40.55" height="27.57"/>
      <polygon class="cls-47" points="409.16 913.34 398.94 919.8 398.94 891.63 409.16 887.16 409.16 913.34"/>
      <polygon class="cls-47" points="358.39 891.82 398.94 891.63 409.16 887.16 369.42 887.16 358.39 891.82"/>
    </g>
    <g>
      <rect class="cls-49" x="403.09" y="891.82" width="40.55" height="27.57"/>
      <polygon class="cls-47" points="453.86 913.34 443.64 919.8 443.64 891.63 453.86 887.16 453.86 913.34"/>
      <polygon class="cls-47" points="403.09 891.82 443.64 891.63 453.86 887.16 414.12 887.16 403.09 891.82"/>
    </g>
    <g>
      <rect class="cls-49" x="503.12" y="883.95" width="40.55" height="27.57"/>
      <polygon class="cls-47" points="553.89 905.47 543.67 911.93 543.67 883.76 553.89 879.29 553.89 905.47"/>
      <polygon class="cls-47" points="503.12 883.95 543.67 883.76 553.89 879.29 514.15 879.29 503.12 883.95"/>
    </g>
    <g>
      <rect class="cls-43" x="446.45" y="892.02" width="40.55" height="27.57"/>
      <polygon class="cls-32" points="497.22 913.54 487 920 487 891.83 497.22 887.36 497.22 913.54"/>
      <polygon class="cls-32" points="446.45 892.02 487 891.83 497.22 887.36 457.48 887.36 446.45 892.02"/>
    </g>
    <g>
      <rect class="cls-25" x="489.77" y="891.72" width="40.55" height="27.57"/>
      <polygon class="cls-44" points="540.54 913.23 530.32 919.69 530.32 891.52 540.54 887.05 540.54 913.23"/>
      <polygon class="cls-44" points="489.77 891.72 530.32 891.52 540.54 887.05 500.8 887.05 489.77 891.72"/>
    </g>
  </g>
</svg>