<?xml version="1.0" encoding="UTF-8"?>
<svg xmlns="http://www.w3.org/2000/svg" viewBox="0 0 1334.25 999.77">
  <defs>
    <style>
      .cls-1, .cls-2 {
        stroke-width: 1.5px;
      }

      .cls-1, .cls-2, .cls-3, .cls-4, .cls-5, .cls-6, .cls-7, .cls-8, .cls-9, .cls-10, .cls-11, .cls-12, .cls-13, .cls-14, .cls-15, .cls-16, .cls-17, .cls-18, .cls-19, .cls-20 {
        stroke-miterlimit: 10;
      }

      .cls-1, .cls-2, .cls-3, .cls-4, .cls-5, .cls-6, .cls-8, .cls-13, .cls-14, .cls-15, .cls-16, .cls-17, .cls-18, .cls-19, .cls-20 {
        fill: none;
      }

      .cls-1, .cls-9, .cls-19 {
        stroke: #fff;
      }

      .cls-2, .cls-6, .cls-8, .cls-13 {
        stroke: #231f20;
      }

      .cls-3, .cls-4, .cls-5, .cls-6 {
        stroke-width: .8px;
      }

      .cls-3, .cls-20 {
        stroke: #754c29;
      }

      .cls-4 {
        stroke: #c16b7b;
      }

      .cls-5 {
        stroke: #92278f;
      }

      .cls-21 {
        fill: #f7daa6;
      }

      .cls-22 {
        fill: #f7d9a4;
      }

      .cls-23 {
        fill: #017d75;
      }

      .cls-24 {
        fill: #00714f;
      }

      .cls-25 {
        fill: #ec6b8a;
      }

      .cls-26, .cls-7, .cls-11 {
        fill: #e6e7e8;
      }

      .cls-27 {
        fill: #f6ac1b;
      }

      .cls-28 {
        fill: #e96d42;
      }

      .cls-29 {
        fill: #fff;
      }

      .cls-30 {
        fill: #803435;
      }

      .cls-31 {
        fill: #016041;
      }

      .cls-32 {
        fill: #8b5e3c;
      }

      .cls-33 {
        fill: #9054a2;
      }

      .cls-34 {
        fill: #943f23;
      }

      .cls-35 {
        fill: #8bcda9;
      }

      .cls-36 {
        fill: #b19074;
      }

      .cls-37 {
        fill: #ae8578;
      }

      .cls-38 {
        fill: #a97c50;
      }

      .cls-39 {
        fill: #be8c8c;
      }

      .cls-40, .cls-12 {
        fill: #caa88a;
      }

      .cls-41 {
        fill: #d1d3d4;
      }

      .cls-42 {
        fill: #e2c799;
      }

      .cls-43 {
        fill: #dcbf97;
      }

      .cls-44 {
        fill: #d4d5d6;
      }

      .cls-45 {
        fill: #b13c27;
      }

      .cls-46 {
        fill: #e19926;
      }

      .cls-47 {
        fill: #231f20;
      }

      .cls-48 {
        fill: #194246;
      }

      .cls-49 {
        fill: #0e8e81;
      }

      .cls-50 {
        fill: #2b6666;
      }

      .cls-51 {
        fill: #3c2415;
      }

      .cls-52 {
        fill: #4c96a4;
      }

      .cls-53 {
        fill: #26130f;
      }

      .cls-7 {
        stroke: #58595b;
        stroke-width: .2px;
      }

      .cls-8 {
        stroke-width: .7px;
      }

      .cls-9 {
        fill: #754c29;
      }

      .cls-9, .cls-18, .cls-19, .cls-20 {
        stroke-width: .5px;
      }

      .cls-10 {
        fill: #00979c;
      }

      .cls-10, .cls-15 {
        stroke: #2e3192;
      }

      .cls-11 {
        stroke: #808285;
      }

      .cls-12, .cls-16 {
        stroke: #603913;
      }

      .cls-14 {
        stroke: #d1d3d4;
      }

      .cls-17 {
        stroke: #6d6e71;
      }

      .cls-18 {
        stroke: #f8b8a7;
      }
    </style>
  </defs>
  <g id="Layer_2" data-name="Layer 2">
    <g>
      <rect class="cls-35" width="1334.25" height="739.17"/>
      <g>
        <rect class="cls-32" x="3.22" y="291.31" width="631.29" height="349.85"/>
        <rect class="cls-38" x="37" y="313.65" width="562.88" height="91.57"/>
        <polygon class="cls-32" points="27.98 717.73 .58 717.73 28.65 640.58 62.06 640.58 27.98 717.73"/>
        <polygon class="cls-32" points="599.35 717.73 626.75 717.73 598.68 640.58 565.27 640.58 599.35 717.73"/>
        <rect class="cls-32" x="279.42" y="352.25" width="79.41" height="13.49"/>
        <rect class="cls-38" x="37" y="417.23" width="562.88" height="91.57"/>
        <rect class="cls-32" x="279.42" y="455.83" width="79.41" height="13.49"/>
        <rect class="cls-38" x="37" y="520.81" width="562.88" height="91.57"/>
        <rect class="cls-32" x="279.42" y="559.41" width="79.41" height="13.49"/>
        <rect class="cls-29" x="21.34" y="290.6" width="593.23" height="30.3"/>
        <polyline class="cls-1" points="22.32 317.96 22.69 324.43 26.96 319.55 27.34 326.03 31.62 321.15 32.97 327.79 34.31 321.16 38.59 326.03 38.96 319.56 43.24 324.43 44.59 317.79 45.94 324.43 50.22 319.55 50.59 326.03 54.87 321.15 56.22 327.79 57.57 321.16 61.85 326.03 62.22 319.56 66.5 324.43 67.85 317.79 69.2 324.43 73.48 319.55 73.85 326.03 78.13 321.15 79.48 327.79 80.83 321.16 85.11 326.03 85.48 319.56 89.76 324.43 91.11 317.79 92.46 324.43 96.73 319.55 97.11 326.03 101.39 321.15 102.74 327.79 104.09 321.16 108.36 326.03 108.74 319.56 113.02 324.43 114.37 317.79 115.72 324.43 119.99 319.55 120.37 326.03 124.65 321.15 126 327.79 127.35 321.16 131.62 326.03 131.99 319.56 136.27 324.43 137.63 317.79 138.98 324.43 143.25 319.55 143.62 326.03 147.9 321.15 149.26 327.79 150.61 321.16 154.88 326.03 155.26 319.56 159.54 324.43 160.89 317.79 162.24 324.43 166.51 319.55 166.88 326.03 171.16 321.15 172.52 327.79 173.87 321.16 178.14 326.03 178.51 319.56 182.79 324.43 184.15 317.79 185.5 324.43 189.77 319.55 190.15 326.03 194.43 321.15 195.78 327.79 197.13 321.16 201.4 326.03 201.77 319.56 206.05 324.43 207.41 317.79 208.76 324.43 213.03 319.55 213.41 326.03 217.69 321.15 219.04 327.79 220.39 321.16 224.66 326.03 225.04 319.56 229.32 324.43 230.67 317.79 232.02 324.43 236.29 319.55 236.67 326.03 240.95 321.15 242.3 327.79 243.65 321.16 247.92 326.03 248.3 319.56 252.58 324.43 253.93 317.79 255.28 324.43 259.56 319.55 259.93 326.03 264.21 321.15 265.56 327.79 266.91 321.16 271.19 326.03 271.56 319.56 275.84 324.43 277.19 317.79 278.54 324.43 282.82 319.55 283.19 326.03 287.47 321.15 288.82 327.79 290.18 321.16 294.45 326.03 294.83 319.56 299.11 324.43 300.46 317.79 301.81 324.43 306.08 319.55 306.46 326.03 310.74 321.15 312.09 327.79 313.44 321.16 317.71 326.03 318.09 319.56 322.37 324.43 323.72 317.79 325.07 324.43 329.35 319.55 329.72 326.03 334 321.15 335.35 327.79 336.7 321.16 340.98 326.03 341.35 319.56 345.63 324.43 346.99 317.79 348.34 324.43 352.61 319.55 352.99 326.03 357.27 321.15 358.62 327.79 359.97 321.16 364.24 326.03 364.62 319.56 368.9 324.43 370.25 317.79 371.6 324.43 375.88 319.55 376.25 326.03 380.53 321.15 381.88 327.79 383.23 321.16 387.51 326.03 387.88 319.56 392.16 324.43 393.52 317.79 394.87 324.43 399.14 319.55 399.51 326.03 403.79 321.15 405.15 327.79 406.49 321.16 410.77 326.03 411.14 319.56 415.42 324.43 416.77 317.79 418.12 324.43 422.4 319.55 422.77 326.03 427.05 321.15 428.41 327.79 429.76 321.16 434.03 326.03 434.4 319.56 438.68 324.43 440.04 317.79 441.39 324.43 445.66 319.55 446.04 326.03 450.32 321.15 451.67 327.79 453.02 321.16 457.29 326.03 457.67 319.56 461.95 324.43 463.3 317.79 464.65 324.43 468.93 319.55 469.3 326.03 473.58 321.15 474.94 327.79 476.29 321.16 480.56 326.03 480.94 319.56 485.22 324.43 486.57 317.79 487.92 324.43 492.19 319.55 492.57 326.03 496.85 321.15 498.2 327.79 499.55 321.16 503.83 326.03 504.2 319.56 508.48 324.43 509.84 317.79 511.19 324.43 515.46 319.55 515.84 326.03 520.12 321.15 521.47 327.79 522.82 321.16 527.1 326.03 527.47 319.56 531.75 324.43 533.11 317.79 534.46 324.43 538.73 319.55 539.11 326.03 543.39 321.15 544.74 327.79 546.09 321.16 550.37 326.03 550.74 319.56 555.02 324.43 556.37 317.79 557.72 324.43 562 319.55 562.38 326.03 566.66 321.15 568.01 327.79 569.36 321.16 573.64 326.03 574.01 319.56 578.29 324.43 579.65 317.79 581 324.43 585.27 319.55 585.65 326.03 589.93 321.15 591.28 327.79 592.63 321.16 596.91 326.03 597.29 319.56 601.57 324.43 602.93 317.79 604.28 324.43 608.55 319.55 608.93 326.03 613.21 321.15 613.59 327.63"/>
      </g>
      <rect class="cls-22" y="714.81" width="1333.02" height="284.96"/>
      <g>
        <path class="cls-49" d="M372.01,137.67s13.98,45.17-28.14,87.59c0,0-33.97-25.31-3.02-62.96,0,0,18.23-17.33,31.16-24.63Z"/>
        <path class="cls-28" d="M270.58,209.68v39.56s.72,25.12,24.68,41.29h40.43s24.33-12.13,25.4-41.87v-40.14l-90.51,1.15Z"/>
        <path class="cls-24" d="M335.31,213.59s41.95-32.24,72-20.35c0,0,5.63,46.96-46.33,31.93,0,0-15.96-10.33-25.67-11.58Z"/>
        <path class="cls-23" d="M413.52,159.66s-47.27,.55-74.64,46.72c0,0,34.56,21.29,60.82-14.38,0,0,8.29-23.78,13.82-32.35Z"/>
        <path class="cls-24" d="M289.42,131.97s-28.8,67.66,38.85,72.68c0,0,22.78-47.23-38.85-72.68Z"/>
        <path class="cls-49" d="M247.89,146.71s-29.47,39.19,47.23,49.57l12.06,.67s-13.4-37.51-59.28-50.24Z"/>
        <path class="cls-23" d="M302.85,188.1s-87.42-5.02-88.42,13.4c-1,18.42,51.58,14.74,51.58,14.74,0,0,28.47-4.35,46.22-21.1"/>
        <path class="cls-49" d="M355.76,197.19s-45.5-4.7-68.1-.59c0,0-32.88,32.29,3.23,44.33,0,0,18.79,7.05,36.99-26.71,0,0,12.04-14.68,27.89-17.03Z"/>
        <path class="cls-31" d="M355.76,197.19s7.8,5.36,7.33,17.66c0,0-23.89,6.03-36.88,1.62,0,0,8.07-16.99,29.55-19.28Z"/>
        <path class="cls-18" d="M271.53,241.38s43.77,22.38,88.53,0"/>
        <path class="cls-18" d="M271.53,248.82s43.77,22.38,88.53,0"/>
      </g>
      <polygon class="cls-33" points="715.97 964.8 36.57 964.8 171.98 763.34 804.89 763.34 715.97 964.8"/>
    </g>
    <g>
      <g>
        <rect class="cls-45" x="589.14" y="716.18" width="40.55" height="27.57"/>
        <polygon class="cls-34" points="639.91 737.69 629.69 744.15 629.69 715.98 639.91 711.51 639.91 737.69"/>
        <polygon class="cls-34" points="589.14 716.18 629.69 715.98 639.91 711.51 600.17 711.51 589.14 716.18"/>
      </g>
      <g>
        <rect class="cls-45" x="463.19" y="795.27" width="40.55" height="27.57"/>
        <polygon class="cls-34" points="513.96 816.79 503.74 823.25 503.74 795.08 513.96 790.61 513.96 816.79"/>
        <polygon class="cls-34" points="463.19 795.27 503.74 795.08 513.96 790.61 474.22 790.61 463.19 795.27"/>
      </g>
      <g>
        <rect class="cls-45" x="589.31" y="831.49" width="40.55" height="27.57"/>
        <polygon class="cls-34" points="640.08 853 629.86 859.46 629.86 831.29 640.08 826.83 640.08 853"/>
        <polygon class="cls-34" points="589.31 831.49 629.86 831.29 640.08 826.83 600.34 826.83 589.31 831.49"/>
      </g>
      <g>
        <rect class="cls-52" x="641.86" y="724.87" width="40.55" height="27.57"/>
        <polygon class="cls-50" points="692.63 746.38 682.41 752.84 682.41 724.67 692.63 720.21 692.63 746.38"/>
        <polygon class="cls-50" points="641.86 724.87 682.41 724.67 692.63 720.21 652.89 720.21 641.86 724.87"/>
      </g>
      <g>
        <rect class="cls-52" x="519.56" y="808.22" width="40.55" height="27.57"/>
        <polygon class="cls-50" points="570.33 829.74 560.11 836.2 560.11 808.03 570.33 803.56 570.33 829.74"/>
        <polygon class="cls-48" points="519.56 808.22 560.11 808.03 570.33 803.56 530.59 803.56 519.56 808.22"/>
      </g>
      <g>
        <rect class="cls-27" x="693.97" y="710.94" width="40.55" height="27.57"/>
        <polygon class="cls-46" points="744.74 732.45 734.52 738.91 734.52 710.74 744.74 706.27 744.74 732.45"/>
        <polygon class="cls-46" points="693.97 710.94 734.52 710.74 744.74 706.27 705 706.27 693.97 710.94"/>
      </g>
      <g>
        <rect class="cls-27" x="575.32" y="773" width="40.55" height="27.57"/>
        <polygon class="cls-46" points="626.09 794.51 615.87 800.97 615.87 772.8 626.09 768.34 626.09 794.51"/>
        <polygon class="cls-46" points="575.32 773 615.87 772.8 626.09 768.34 586.35 768.34 575.32 773"/>
      </g>
      <g>
        <rect class="cls-27" x="645.9" y="863.05" width="40.55" height="27.57"/>
        <polygon class="cls-46" points="696.67 884.56 686.45 891.02 686.45 862.85 696.67 858.39 696.67 884.56"/>
        <polygon class="cls-46" points="645.9 863.05 686.45 862.85 696.67 858.39 656.93 858.39 645.9 863.05"/>
      </g>
      <g>
        <rect class="cls-27" x="519.75" y="780.5" width="40.55" height="27.57"/>
        <polygon class="cls-46" points="570.52 802.02 560.3 808.48 560.3 780.31 570.52 775.84 570.52 802.02"/>
        <polygon class="cls-46" points="519.75 780.5 560.3 780.31 570.52 775.84 530.78 775.84 519.75 780.5"/>
      </g>
      <g>
        <g>
          <rect class="cls-52" x="438.5" y="853.94" width="40.55" height="27.57"/>
          <polygon class="cls-50" points="489.27 875.45 479.05 881.91 479.05 853.74 489.27 849.28 489.27 875.45"/>
          <polygon class="cls-50" points="438.5 853.94 479.05 853.74 489.27 849.28 449.53 849.28 438.5 853.94"/>
        </g>
        <g>
          <rect class="cls-27" x="483.14" y="853.48" width="40.55" height="27.57"/>
          <polygon class="cls-46" points="533.91 874.99 523.69 881.45 523.69 853.28 533.91 848.82 533.91 874.99"/>
          <polygon class="cls-46" points="483.14 853.48 523.69 853.28 533.91 848.82 494.17 848.82 483.14 853.48"/>
        </g>
        <g>
          <rect class="cls-45" x="527.99" y="854.14" width="40.55" height="27.57"/>
          <polygon class="cls-34" points="578.76 875.66 568.54 882.11 568.54 853.94 578.76 849.48 578.76 875.66"/>
          <polygon class="cls-34" points="527.99 854.14 568.54 853.94 578.76 849.48 539.01 849.48 527.99 854.14"/>
        </g>
        <g>
          <rect class="cls-27" x="518.79" y="876.11" width="40.55" height="27.57"/>
          <polygon class="cls-46" points="569.56 897.63 559.34 904.09 559.34 875.92 569.56 871.45 569.56 897.63"/>
          <polygon class="cls-46" points="518.79 876.11 559.34 875.92 569.56 871.45 529.81 871.45 518.79 876.11"/>
        </g>
        <g>
          <rect class="cls-52" x="422.16" y="860.39" width="40.55" height="27.57"/>
          <polygon class="cls-50" points="472.93 881.9 462.71 888.36 462.71 860.19 472.93 855.73 472.93 881.9"/>
          <polygon class="cls-50" points="422.16 860.39 462.71 860.19 472.93 855.73 433.19 855.73 422.16 860.39"/>
        </g>
        <g>
          <rect class="cls-45" x="408.05" y="866.65" width="40.55" height="27.57"/>
          <polygon class="cls-34" points="458.82 888.17 448.6 894.63 448.6 866.46 458.82 861.99 458.82 888.17"/>
          <polygon class="cls-34" points="408.05 866.65 448.6 866.46 458.82 861.99 419.08 861.99 408.05 866.65"/>
        </g>
        <g>
          <rect class="cls-27" x="390.89" y="874.59" width="40.55" height="27.57"/>
          <polygon class="cls-46" points="441.66 896.11 431.44 902.57 431.44 874.4 441.66 869.93 441.66 896.11"/>
          <polygon class="cls-46" points="390.89 874.59 431.44 874.4 441.66 869.93 401.92 869.93 390.89 874.59"/>
        </g>
        <g>
          <rect class="cls-45" x="375.01" y="881.58" width="40.55" height="27.57"/>
          <polygon class="cls-34" points="425.78 903.1 415.56 909.56 415.56 881.39 425.78 876.92 425.78 903.1"/>
          <polygon class="cls-34" points="375.01 881.58 415.56 881.39 425.78 876.92 386.04 876.92 375.01 881.58"/>
        </g>
        <g>
          <rect class="cls-52" x="360.8" y="891.58" width="40.55" height="27.57"/>
          <polygon class="cls-50" points="411.57 913.1 401.35 919.55 401.35 891.38 411.57 886.92 411.57 913.1"/>
          <polygon class="cls-50" points="360.8 891.58 401.35 891.38 411.57 886.92 371.83 886.92 360.8 891.58"/>
        </g>
        <g>
          <rect class="cls-52" x="405.51" y="891.58" width="40.55" height="27.57"/>
          <polygon class="cls-50" points="456.28 913.1 446.06 919.55 446.06 891.38 456.28 886.92 456.28 913.1"/>
          <polygon class="cls-50" points="405.51 891.58 446.06 891.38 456.28 886.92 416.53 886.92 405.51 891.58"/>
        </g>
        <g>
          <rect class="cls-52" x="505.53" y="883.71" width="40.55" height="27.57"/>
          <polygon class="cls-50" points="556.31 905.23 546.08 911.69 546.08 883.52 556.31 879.05 556.31 905.23"/>
          <polygon class="cls-50" points="505.53 883.71 546.08 883.52 556.31 879.05 516.56 879.05 505.53 883.71"/>
        </g>
        <g>
          <rect class="cls-45" x="448.87" y="891.78" width="40.55" height="27.57"/>
          <polygon class="cls-34" points="499.64 913.3 489.42 919.76 489.42 891.59 499.64 887.12 499.64 913.3"/>
          <polygon class="cls-34" points="448.87 891.78 489.42 891.59 499.64 887.12 459.9 887.12 448.87 891.78"/>
        </g>
        <g>
          <rect class="cls-27" x="492.19" y="891.48" width="40.55" height="27.57"/>
          <polygon class="cls-46" points="542.96 912.99 532.74 919.45 532.74 891.28 542.96 886.81 542.96 912.99"/>
          <polygon class="cls-46" points="492.19 891.48 532.74 891.28 542.96 886.81 503.21 886.81 492.19 891.48"/>
        </g>
      </g>
    </g>
  </g>
  <g id="Layer_1" data-name="Layer 1">
    <g>
      <path class="cls-40" d="M937.3,308.38s-29.07,63.63-42.42,153.19l-77.26-21.26-19.76,36.14s93.88,77.81,138.66,78.6c0,0,14.14,3.14,29.85-11"/>
      <path class="cls-40" d="M1049.7,208s6.66,28.99,23.51,50.53c0,0,4.92,82.35-58.12,96.38,0,0-48.37-27.35-35.96-83.29l70.57-63.61Z"/>
      <path class="cls-9" d="M939.59,866.09s9.8,14.02,5.96,34.25c0,0-13.63,21.83-67.67,21.07,0,0-39.95,29.19-90.52,19.59,0,0-41.74-6.14-11.78-35.85,0,0,39.31-36.24,73.94-45.78,0,0,30.73,25.61,90.07,6.72Z"/>
      <path class="cls-9" d="M1022.64,880.44s9.96,14.34,5.99,34.98c0,0-13.98,22.25-69.13,21.34,0,0-40.86,29.7-92.46,19.78,0,0-42.6-6.38-11.94-36.63,0,0,40.22-36.89,75.6-46.55,0,0,31.31,26.22,91.94,7.09Z"/>
      <polygon class="cls-32" points="1127.18 926.14 1141.3 922.84 1141.3 776 1127.18 776 1127.18 926.14"/>
      <polygon class="cls-38" points="1102.6 922.84 1127.47 926.14 1127.47 776 1102.6 776 1102.6 922.84"/>
      <polygon class="cls-32" points="1195.27 909.58 1209.39 906.29 1209.39 759.45 1195.27 759.45 1195.27 909.58"/>
      <polygon class="cls-38" points="1170.69 906.29 1195.56 909.58 1195.56 759.45 1170.69 759.45 1170.69 906.29"/>
      <polygon class="cls-38" points="1145.88 731.51 1145.88 786.55 878.09 785.07 878.09 733 1145.88 731.51"/>
      <polygon class="cls-32" points="1145.88 731.51 1245.56 733 1245.56 782.09 1145.88 786.55 1145.88 731.51"/>
      <path class="cls-36" d="M1211.33,589.03s37.72,142.1-50.4,143.29c-112.93,1.53-148.64,2.3-148.64,2.3,0,0,18.89,61.85,10.68,146.03-.36,6.18-73.58,24.82-97.04-3.53,0,0-19.59-64.72-25.75-153.01,0,0,30.39,77.05,26.37,149.37,0,0-66.41,16.34-86.94-6.24,0,0-35.93-151.34-17.45-206.78,18.48-55.44,140.4-87.23,140.4-87.23,0,0,82.03,93.11,248.76,15.8Z"/>
      <path class="cls-16" d="M1017.08,625.76s-94.88,24.06-115.01,53.67c-19.72,29.02,20.72,187.87,20.72,187.87"/>
      <path class="cls-15" d="M949.01,404.78c-3.58,40.79,16.92,87.9,16.92,87.9,0,0-7.23,33.58-6.82,50.61"/>
      <path class="cls-40" d="M814.91,441.01l-17.96-27.68-26.6-16.73s-5.35,1.82-3.41,4.77,7.35,11.85,7.35,11.85l-28.49-12.54-30.24-7.17s-8.53,1.8-3.87,7.61c4.66,5.81,24,11.48,24,11.48l15.7,8.48-45.32-13.74s-7.72,5.28,.32,9.5c8.04,4.22,25.72,9.29,25.72,9.29l13.88,9.89-37.48-14.66s-8.67,.62-4.75,6.92c3.92,6.29,31.21,15.4,31.21,15.4l-23.51-3.99s-1.98,3.41,1.91,6.13,27.13,11.11,27.13,11.11c0,0,20.54,15.86,39.92,15.17,19.39-.69,27.22,5.14,27.22,5.14l7.26-36.21Z"/>
      <polygon class="cls-29" points="750.37 344.92 722.8 387.49 746.38 341.41 750.37 344.92"/>
      <polygon class="cls-29" points="718.74 333.65 706.13 382.78 713.85 331.6 718.74 333.65"/>
      <polygon class="cls-29" points="672.98 333.94 687.71 382.48 667.73 334.73 672.98 333.94"/>
      <polygon class="cls-29" points="638.26 363.56 678.23 394.78 634.42 367.22 638.26 363.56"/>
      <polygon class="cls-29" points="619.52 399.09 669.22 409.18 617.71 404.08 619.52 399.09"/>
      <polygon class="cls-29" points="623.14 433.4 673.43 426.85 623.05 438.71 623.14 433.4"/>
      <path class="cls-20" d="M795.61,413.22s-5.35,1.82-3.41,4.77c1.94,2.95,7.35,11.85,7.35,11.85l-28.49-12.54-30.24-7.17s-8.53,1.8-3.87,7.61,24,11.48,24,11.48l15.7,8.48-45.32-13.74s-7.72,5.28,.32,9.5c8.04,4.22,25.72,9.29,25.72,9.29l13.88,9.89-37.48-14.66s-8.67,.62-4.75,6.92c3.92,6.29,31.21,15.4,31.21,15.4l-23.51-3.99"/>
      <path class="cls-10" d="M966.14,447.65s-6.78-50.26-5.08-73.41"/>
      <g>
        <path class="cls-26" d="M1193.83,489.65s24.87,59.9,17.51,99.39c0,0-73.61,42.55-156.07,28.99,0,0-71.43-10.21-93.14-47.4,0,0-11.57-41.38,.18-70.76,2.22-5.55-13.99,32.54-16.32,24.16,0,0-51.97-69.21-62.68-71.17l19.83-66.38s3.02-45.93,28.49-77.27c0,0,15.08-10.85,32.21-22.45l42.11,18.89,13.84,48.79,5.71-45.45s-.56-12.77,47.77-55.56c0,0,60.21,9.21,91.87,30.27,0,0,33.05,34.72,29.57,68.92l-.87,137.04Z"/>
        <path class="cls-44" d="M1073.25,253.41s-41.71,37.82-47.77,55.56l-2-15.88s30.68-29.25,39.84-47.95l9.93,8.27Z"/>
        <path class="cls-44" d="M978.75,272.61s-17.95,3.21-14.93,14.14l42.11,18.89-.78-9.47s-18.94-4.6-33.05-15.54c0,0,7.36-2.58,6.66-8.01Z"/>
        <path class="cls-17" d="M1019.77,354.43s-3.02,45.53,45.26,264.24"/>
        <ellipse class="cls-41" cx="1031.44" cy="358.35" rx="2.91" ry="3.02" transform="translate(-51.86 221.41) rotate(-11.95)"/>
        <ellipse class="cls-41" cx="1034.72" cy="409.42" rx="2.91" ry="3.02" transform="translate(-62.36 223.2) rotate(-11.95)"/>
        <ellipse class="cls-41" cx="1042.52" cy="463.82" rx="2.91" ry="3.02" transform="translate(-73.46 226) rotate(-11.95)"/>
        <ellipse class="cls-41" cx="1051.88" cy="512.96" rx="2.91" ry="3.02" transform="translate(-83.44 229) rotate(-11.95)"/>
        <ellipse class="cls-41" cx="1063.47" cy="574.79" rx="2.91" ry="3.02" transform="translate(-95.99 232.74) rotate(-11.95)"/>
        <path class="cls-41" d="M1109.95,369.71l6.88,44.58s-20.08,29.59-51.4,10.88l-10.19-48.14s20.2,6.81,54.71-7.32Z"/>
        <path class="cls-41" d="M992.45,394.59l6.88,44.58s-20.08,29.59-51.4,10.88l-10.19-48.14s20.2,6.81,54.71-7.32Z"/>
        <path class="cls-41" d="M1150.92,528.13l7.8,50.52s-22.75,33.53-58.26,12.33l-11.55-54.56s22.89,7.71,62.01-8.3Z"/>
        <path class="cls-41" d="M1031.55,519.12l-1.41,51.1s-28.41,28.89-59.52,1.66l-1.56-55.75s21.13,11.7,62.49,2.98Z"/>
        <path class="cls-14" d="M1090.27,256.1s-30.82,102.82,42.37,359.96"/>
        <path class="cls-14" d="M1082.95,255.33s-29.44,106,43.76,363.14"/>
        <path class="cls-14" d="M1075.76,254.1s-28.91,109.03,44.29,366.17"/>
        <path class="cls-14" d="M1097.7,257.43s-31.84,99.37,41.36,356.51"/>
        <path class="cls-14" d="M964.9,286.69s-30.25,89.93,47.16,316.66"/>
        <path class="cls-14" d="M956.81,292.46s-28.78,83.81,48.63,310.54"/>
        <path class="cls-14" d="M948.52,298.07s-28.65,76.91,48.75,303.65"/>
        <path class="cls-14" d="M972.31,287.4s-30.38,89.43,47.02,316.16"/>
        <path class="cls-11" d="M1097.01,312.38c-32.8,49.89-63.26,121.53-63.26,121.53,0,0,15.99,68.38,87.68,70.34,0,0,27.94-29.87,29.87-44.32"/>
      </g>
      <path class="cls-12" d="M1036.7,441.79l-17.58,24.85c-58.42-17.61-172.05-7.2-172.05-7.2l-24.3-29.29-26.6-16.73s-5.35,1.82-3.41,4.77,7.35,11.85,7.35,11.85l-28.49-12.54-30.24-7.17s-8.53,1.8-3.87,7.61c4.66,5.81,24,11.48,24,11.48l15.7,8.48-45.32-13.74s-7.72,5.28,.32,9.5c8.04,4.22,25.72,9.29,25.72,9.29l13.88,9.89-37.48-14.66s-8.67,.62-4.75,6.92c3.92,6.29,31.21,15.4,31.21,15.4l-23.51-3.99s-1.98,3.41,1.91,6.13,27.13,11.11,27.13,11.11c0,0,20.54,15.86,39.92,15.17,19.39-.69,34.43,7.34,34.43,7.34,0,0,181.56,71.56,216.82,48.59,35.26-22.98,42.46-42.98,42.46-42.98"/>
      <path class="cls-40" d="M907.28,132.28s-7.92,22.24,7.81,66.13c0,0,4.84,10.25,5.29,16.38,.45,6.13,5.03,14.87,7.02,21.41,11.23,36.99,31.55,42.76,31.55,42.76,0,0,8.6,10.61,29.83,4.98,21.23-5.63,39.99-18.26,45.14-29.29,5.15-11.03,17.26-30.84,15.35-45.07,0,0,13.35-.61,14.29-17.15,0,0,7.18-27.28-8.18-29.61-15.36-2.34-18.04,18.76-18.04,18.76,0,0,5.97-60.92-31.26-73.95,0,0-52.51-20.7-98.81,24.64Z"/>
      <path class="cls-37" d="M991.07,231.26s-11.48,.36-22.63,8.11c0,0-11.41,1.53-20.29,6.97,0,0,6.99,16.88,24.47,15.14,17.48-1.74,22.22-20.25,18.46-30.21Z"/>
      <path class="cls-30" d="M988.89,233.38s5.39,15.21-14.45,22.02c-18.02,6.18-22.82-7.35-22.82-7.35,0,0,20.61-6.05,37.27-14.67Z"/>
      <path class="cls-26" d="M964.21,172.65s15.59-11.12,33.02-10.02c0,0-11.54-9.16-35.26,5.02,0,0-3.1,4.74,2.24,5Z"/>
      <path class="cls-26" d="M910.77,188.88c11.84-6.13,19.18-4.47,19.18-4.47,4.05-3.49-1.3-5.32-1.3-5.32-8.55,1.05-14.77,3.17-19.29,5.58,0,0,.77,4.54,1.41,4.21Z"/>
      <path class="cls-29" d="M986.51,234.44s-2.87,7.29-18.47,11.82c0,0-8.93,5.19-14.63,1.51,0,0,19.93-6.36,33.1-13.33Z"/>
      <path class="cls-13" d="M1058.97,172.65s-7.65-5.9-10.63,3.82-2.39,12.42-2.39,12.42c0,0,3.85-15.14,10.45-6.32"/>
      <path class="cls-7" d="M1060.76,163.97s-12.97-6.16-17.55,6.51c-4.58,12.67-1.87,17.05-1.87,17.05l-7.06,1.94s12.22-43.53-15.54-51.51c0,0-2.88-29.33-25.19-27.22-22.31,2.11-38.59-15.8-87.89,26.61,0,0-14.34-30.14,40.3-55.16,0,0,36.81-17.37,53.78-.99,0,0,26.36-4.93,43.32,26.89,16.96,31.82,17.72,55.88,17.72,55.88Z"/>
      <path class="cls-53" d="M983.5,285.08s24.17-5.4,36.97-15.78c0,0,10.77-6.22,18.34-23.61,0,0-8.68,25.29-30.42,34.66-.11,.05-.2,.08-.31,.12-1,.42-13.27,5.73-22.25,7.57,0,0-2.67-2.29-2.33-2.98Z"/>
      <path class="cls-6" d="M971.05,139.95s-15.75,7.33-22.9,11.71c-7.15,4.38-31.58,6.03-31.58,6.03"/>
      <path class="cls-26" d="M973,223.83s13.2,4.34,22.32,2.99c0,0-.41,3.84-4.25,4.45,0,0-15.6,1.75-22.63,8.11,0,0-11.36,1.13-20.29,6.97,0,0-.88,1.13-3.18,1.41,0,0,7.73-10.86,6.06-14.73,0,0,10.08,1.5,14.51-7.03,0,0,3.06,.43,7.47-2.16Z"/>
      <path class="cls-13" d="M949.3,198.01l-2.57,24.78s-.17,13.24,9.68,10.18c8.17-2.54,7.82-5.23,7.82-5.23"/>
      <path class="cls-6" d="M1001,231.67s-1.44-9.69-7.65-10.2c-6.21-.51-12.28-10.5-12.28-10.5"/>
      <g>
        <path class="cls-29" d="M989.21,177.57s-.14-.48-.62-.78c-1.59-.97-5.07-2.64-9.37-1.34-4.81,1.45-6.1,6.78-6.52,8.66-.07,.33,.02,.57,.02,.57,0,0,.06,.27,.28,.41,1.04,.66,4.35,2.37,8.93,1.07,2.72-.78,6.09-3.39,7.34-7.78,.09-.31,0-.64-.06-.81Z"/>
        <circle class="cls-53" cx="979.54" cy="181.42" r="5.2"/>
        <circle class="cls-29" cx="980.87" cy="177.8" r="1.43"/>
        <path class="cls-8" d="M972.41,184.21s2.39-13.26,16.36-7.52"/>
      </g>
      <g>
        <path class="cls-29" d="M934.39,198.69s-.06-.47-.47-.81c-1.34-1.13-4.34-3.18-8.53-2.59-4.68,.66-6.64,5.43-7.3,7.12-.11,.29-.07,.53-.07,.53,0,0,.02,.26,.2,.42,.87,.76,3.71,2.83,8.15,2.27,2.65-.33,6.15-2.28,7.94-6.19,.12-.27,.09-.59,.06-.76Z"/>
        <circle class="cls-53" cx="924.84" cy="200.88" r="4.87"/>
        <circle class="cls-29" cx="926.76" cy="197.31" r="1.37"/>
        <path class="cls-8" d="M918.05,202.59s3.66-12.61,16.05-4.54"/>
      </g>
      <g>
        <path class="cls-42" d="M1052.44,113.01s-19.71-35.23-28.29-43.18c-8.58-7.95-84.65-8.97-104.37,11.87,0,0-2.77,8.63-.97,11.7"/>
        <path class="cls-21" d="M1059.13,153.93s54.69-6.39,55.22-13.45c1.25-16.41-37.51-22.99-37.51-22.99,0,0-93.16-18.64-127.04-26.55-25.65-5.98-83.53-12.27-89.73,15.47-6.19,27.74,45.62,47.22,45.62,47.22,0,0,89.37-30.25,151.23-10.13,0,0,2.75,5.64,2.21,10.43Z"/>
        <path class="cls-2" d="M905.7,153.64s-49.33-25.05-26.01-45.78c18.75-16.67,58.28-8.27,99.59,6.49,41.31,14.75,99.78,18.04,99.78,18.04,0,0,25.53,9.66-19.93,21.54"/>
      </g>
    </g>
    <g>
      <path class="cls-33" d="M301.48,657.16c-23.15-25.41-52.94-14.85-52.94-14.85,0,0-18.4,13.68-16.03,46.8l44.62-.18"/>
      <path class="cls-43" d="M312.18,606.73s-2.67,21.78-13.8,33.6c0,0-.56,40.51,29.18,49.94,0,0,20.05,9.01,27.28-25.07,0,0-6.45-5.78-3.48-14.44l-39.18-44.03Z"/>
      <path class="cls-33" d="M231.77,770.61s10.89-94.39,45.93-117.75c0,0,16.81-11.76,20.68-12.53,0,0,3.09,31.68,40.18,32.45,0,0,20.09-2.32,7.73-30.91,0,0,21.64,9.27,24.73,23.95,0,0,17.84-3.15,17.21,2.37s10.18,2.18-6.02,44.78c0,0-17.71-5.86-18.57,.27-1.22,8.76-4.21,18.26-4.21,18.26,0,0-.96,55.91-31.68,58.72-28.56,2.62-54.25,5.88-95.97-19.62Z"/>
      <path class="cls-25" d="M262.12,813.48s-6.77,1.13-12.98,11.29c0,0-11.85,9.03-22.01,12.42-10.16,3.39-12.42,14.11-12.42,14.11,0,0-.47,10.3,24.22-.28,0,0,10.11-17.87,18.58-22.34,8.47-4.47,11.99-4,11.52-9.17l-6.91-6.02Z"/>
      <path class="cls-43" d="M246.77,845.77l12.05,6.46-2.76,18.01-5,.03s-6.85-1.33-18.05,2.72c-11.2,4.06-16.35,4.28-16.35,4.28l-.53-10.12,18.66-16.07,11.96-5.32Z"/>
      <path class="cls-25" d="M239.85,839.75s-6.77,1.13-12.98,11.29c0,0-11.65,9.72-22.01,12.42-12.96,3.37-12.42,14.11-12.42,14.11,0,0-.47,10.3,24.22-.28,0,0,10.11-17.87,18.58-22.34,8.47-4.47,11.99-4,11.52-9.17l-6.91-6.02Z"/>
      <path class="cls-19" d="M219.74,856.35l7.13-5.31s3.93-8.96,12.98-11.29"/>
      <path class="cls-43" d="M310.27,592.11s-5.23-14.72-13.8-11.9c-8.58,2.82-5.82,20.28-5.82,20.28,0,0,6.02,15.36,17.22,11.24,0,0,5.28,28.97,40.78,40.73,0,0,14.66,5.91,30.42-6.51,15.2-11.98,15.72-38.45,15.72-38.45,0,0,2.89-3.85,6.3-19.5,3.41-15.65,2.93-34.96-15.73-46.05-18.66-11.09-30.6-16.5-53.04-5.93-22.44,10.57-22.05,56.09-22.05,56.09Z"/>
      <path class="cls-39" d="M353.5,624.82s5.66-.35,12,2.48c0,0,5.37,.72,10.42,3.06,0,0-.81,7.38-10.2,7.55-9.39,.16-13.6-7.56-12.22-13.08Z"/>
      <path class="cls-30" d="M354.27,625.38s-1.92,8.4,9.03,10.79c9.94,2.17,11.66-5.31,11.66-5.31,0,0-11.31-1.93-20.69-5.47Z"/>
      <path class="cls-47" d="M358.06,580.67s-8.15-4.18-16.43-.99c0,0-3.72-2.47,2.3-3.75,6.01-1.28,10.42-1.99,15.14,1.82,0,0,1.87,2.44-1.01,2.93Z"/>
      <path class="cls-47" d="M387.12,587.36s6.13-1.81,12.33,4.53c0,0,3.2-.94,.73-3.36-3.66-3.57-6.59-4.58-12.76-4.26,0,0-2.72,1.44-.3,3.08Z"/>
      <path class="cls-29" d="M355.73,625.86s1.91,4.59,10.66,6.06c0,0,5.28,1.43,8.14-.92,0,0-11.22-2.19-18.8-5.14Z"/>
      <path class="cls-53" d="M349.87,652.78s-5.84,0-17.56-8c0,0-4.51-2.1-12.48-10.41,0,0,5.34,8,17.51,15.99,0,0,2.4,3.26,12.88,5.52,0,0-.28-1.34-.35-3.11Z"/>
      <path class="cls-6" d="M295.65,591.82s4.65-4.54,7.39,1.72c2.74,6.26,2.56,8.1,2.56,8.1,0,0-3.75-9.8-7.47-3.4"/>
      <path class="cls-6" d="M376.43,608.03s4.61,11.63-7.54,10.23"/>
      <g>
        <path class="cls-29" d="M344.51,591.69s.06-.36,.38-.61c1.06-.84,3.44-2.33,6.65-1.75,3.59,.64,4.97,4.37,5.43,5.7,.08,.23,.04,.41,.04,.41,0,0-.02,.2-.17,.32-.69,.56-2.94,2.08-6.35,1.52-2.03-.33-4.68-1.93-5.95-4.99-.09-.21-.05-.46-.03-.59Z"/>
        <circle class="cls-53" cx="351.81" cy="593.65" r="3.77"/>
        <circle class="cls-29" cx="349.1" cy="594.95" r="1.04"/>
        <path class="cls-8" d="M357.19,595.06s-2.84-9.36-12.43-4.04"/>
      </g>
      <g>
        <path class="cls-29" d="M381.83,600.51s0-.34,.26-.62c.86-.92,2.82-2.62,5.85-2.55,3.39,.08,5.17,3.31,5.78,4.46,.1,.2,.09,.37,.09,.37,0,0,0,.19-.11,.32-.56,.61-2.4,2.32-5.61,2.29-1.91-.02-4.56-1.11-6.16-3.74-.11-.18-.11-.41-.11-.54Z"/>
        <circle class="cls-53" cx="388.8" cy="601.27" r="3.49"/>
        <circle class="cls-29" cx="386.28" cy="602.19" r=".98"/>
        <path class="cls-8" d="M393.78,601.92s-3.65-8.66-11.79-1.89"/>
      </g>
      <path class="cls-26" d="M231.77,770.61s-5.95,18.19-3.56,37.91c0,0-.6,26.18,22.28,39.64,0,0,12.48,9.69,.52,22.62,0,0,103.51,19.39,121.72,5.92,18.21-13.46,18.73-20.46,18.73-20.46,0,0,13.52-2.69,14.04-21,.52-18.31-12.48-32.31-12.48-32.31l-43.11-30.05s-14.33,40.22-118.13-2.26Z"/>
      <path class="cls-4" d="M338.92,796.99l42.65,23.16s18.73,9.16,9.88,36.08"/>
      <path class="cls-4" d="M250.5,848.16s30.69,9.16,45.25,4.85l54.62,4.31"/>
      <line class="cls-3" x1="273.02" y1="585.09" x2="273.63" y2="582.05"/>
      <path class="cls-43" d="M407.33,653.33l-.38-8.06c-15.66-11.29-9.98-26.62-9.98-26.62,8.8-20.63,20.96-24.94,20.96-24.94,0,0,8.16-.26,2.68,5.59s-7.88,14.13-7.88,14.13c8.78-3.81,10.65,1.86,10.65,1.86,5.17-2.39,6.7,4.39,6.7,4.39,3.3-1.33,5.32,2.61,5.32,2.61,.76,11.55-8.07,16.88-8.07,16.88l2.43,7.26s16.27,42.64,.99,55.7-48.55,10.84-48.55,10.84c0,0,13.8-33.52,4.93-46.83-8.87-13.31,0,0,0,0l17.98,4.28,2.23-17.1"/>
      <path class="cls-3" d="M402.21,627.18s5.88,1.1,8.07-.57c0,0,5.18,7.2,9.69,3.16s-11.09-14.01-18.1-11.57"/>
      <path class="cls-3" d="M423.38,615.29s3.79,18.1-8.64,16.66c0,0-1.61-.7-1.33-2.01"/>
      <line class="cls-3" x1="414.6" y1="621" x2="415.51" y2="618.04"/>
      <path class="cls-3" d="M430.07,619.68s1.86,14.47-10.08,16.14c0,0-3.03-.77-.87-3.83"/>
      <path class="cls-3" d="M427.33,639.17s-3.87-.02-4.34-3.47"/>
      <path class="cls-3" d="M418.59,643.69s-7.53,3.88-11.64,1.58"/>
      <path class="cls-5" d="M363.63,713.24c1.52-7.66,2.81-15.99,2.57-21.29"/>
      <path class="cls-5" d="M252.91,687.09s3.39-7.34,6.21-13.27"/>
      <path class="cls-51" d="M308.89,541.12s-16.04,14.52-14.31,38.94c0,0,10.46-3.85,14.6,13.85,0,0,18.89-9.99,30.38-50.65,0,0,34.43,17.79,56.39,12.27,0,0,8.71,10.69,4.5,30.61l-1.36,12.01c13.18-33.83,1.56-53.08,1.56-53.08-20.23-34.48-56.92-28.68-65.31-24.45,0,0-8.73-19.89-30.93-9.52,0,0-11.67,3.92-11.3,13.55,0,0-16.38-12.19-24.1,8.96,0,0-15.76,1.83-11.05,20.48,0,0-11.41,8.86-.99,20.2,0,0,11.52,13.48,20.49,1.43,0,0,10.79,9.48,12.58-3.24,0,0,13.02,4.16,16.14-7.53s2.7-23.83,2.7-23.83Z"/>
      <path class="cls-43" d="M264.36,613.27l3.87-3.19c19.14-2.51,21.42-18.69,21.42-18.69,2.05-22.33-6.61-31.9-6.61-31.9,0,0-7.06-4.1-5.01,3.65s.23,16.18,.23,16.18c-5.92-7.52-10.25-3.42-10.25-3.42-3.42-4.56-7.98,.68-7.98,.68-2.28-2.73-5.92-.23-5.92-.23-6.15,9.8-.91,18.69-.91,18.69l-3.65,2.96-43.67,38.49s-15.4,18.29-7.06,28.87,33.64,21.05,33.64,21.05c0,0,1.72-27.91,13.4-41.97l18.51-31.18Z"/>
      <path class="cls-3" d="M281,596.4s-5.7-1.82-6.84-4.33c0,0-7.98,3.87-10.03-1.82s16.41-7.06,21.42-1.6"/>
      <path class="cls-3" d="M268.01,575.89s-11.93,14.13-.3,18.76c0,0,1.75,.15,2.13-1.14"/>
      <path class="cls-3" d="M260.03,576.58s-8.51,11.85,1.22,18.99c0,0,3.04,.76,2.58-2.96"/>
      <path class="cls-3" d="M253.2,595.04s3.42,1.82,5.47-.99"/>
      <path class="cls-3" d="M258.74,603.16s4.79,6.99,9.5,6.91"/>
    </g>
  </g>
</svg>