<?xml version="1.0" encoding="UTF-8"?>
<svg id="Layer_1" data-name="Layer 1" xmlns="http://www.w3.org/2000/svg" xmlns:xlink="http://www.w3.org/1999/xlink" viewBox="0 0 1461.94 1235.2">
  <defs>
    <style>
      .cls-1, .cls-2, .cls-3, .cls-4, .cls-5, .cls-6, .cls-7, .cls-8, .cls-9, .cls-10, .cls-11, .cls-12, .cls-13, .cls-14, .cls-15, .cls-16 {
        fill: none;
      }

      .cls-17 {
        clip-path: url(#clippath);
      }

      .cls-2 {
        stroke-width: .8px;
      }

      .cls-2, .cls-3, .cls-4, .cls-5, .cls-18, .cls-19, .cls-20, .cls-21, .cls-6, .cls-7, .cls-8, .cls-9, .cls-10, .cls-11, .cls-12, .cls-13, .cls-14, .cls-15, .cls-16 {
        stroke-miterlimit: 10;
      }

      .cls-2, .cls-4, .cls-5, .cls-20, .cls-8, .cls-14, .cls-15 {
        stroke: #231f20;
      }

      .cls-22 {
        fill: #f6ac1b;
      }

      .cls-23 {
        fill: #f05380;
      }

      .cls-24 {
        fill: #fff;
      }

      .cls-25 {
        fill: #f5bc49;
      }

      .cls-26 {
        fill: #f16225;
      }

      .cls-27 {
        fill: #803435;
      }

      .cls-28 {
        fill: #8b6340;
      }

      .cls-29 {
        fill: #c2b59b;
      }

      .cls-30 {
        fill: #ae8578;
      }

      .cls-31 {
        fill: #a7a9ac;
      }

      .cls-32, .cls-21 {
        fill: #be9e7d;
      }

      .cls-33 {
        fill: #be8c8c;
      }

      .cls-34 {
        fill: #bde4e0;
      }

      .cls-35 {
        fill: #aa856a;
      }

      .cls-36 {
        fill: #bf6b6b;
      }

      .cls-37 {
        fill: #d28b29;
      }

      .cls-38 {
        fill: #c49a6c;
      }

      .cls-39 {
        fill: #d8e3e2;
      }

      .cls-40 {
        fill: #d89346;
      }

      .cls-41 {
        fill: #ca544c;
      }

      .cls-42 {
        fill: #231f20;
      }

      .cls-43 {
        fill: #1fa8df;
      }

      .cls-44 {
        fill: #0f3e5d;
      }

      .cls-45 {
        fill: #95b3b0;
      }

      .cls-46 {
        fill: #9b7a64;
      }

      .cls-47 {
        fill: #3c2415;
      }

      .cls-48 {
        fill: #59bede;
      }

      .cls-49, .cls-50 {
        fill: #26130f;
      }

      .cls-3 {
        stroke-dasharray: 0 0 2.99 2.99;
      }

      .cls-3, .cls-9 {
        stroke: #fff;
      }

      .cls-51 {
        clip-path: url(#clippath-1);
      }

      .cls-52 {
        clip-path: url(#clippath-3);
      }

      .cls-53 {
        clip-path: url(#clippath-2);
      }

      .cls-4 {
        stroke-width: .7px;
      }

      .cls-5 {
        stroke-linecap: round;
      }

      .cls-5, .cls-18, .cls-15, .cls-16 {
        stroke-width: .5px;
      }

      .cls-18 {
        fill: #dcbf97;
      }

      .cls-18, .cls-21, .cls-11 {
        stroke: #603913;
      }

      .cls-19 {
        fill: #ba9777;
      }

      .cls-19, .cls-16 {
        stroke: #754c29;
      }

      .cls-20 {
        fill: #3e3e3e;
      }

      .cls-6 {
        stroke: #1c75bc;
      }

      .cls-6, .cls-7 {
        stroke-width: 2px;
      }

      .cls-7 {
        stroke: #fbb040;
      }

      .cls-10 {
        stroke: #2e3192;
      }

      .cls-12 {
        stroke: #6d6e71;
      }

      .cls-13 {
        stroke: #be1e2d;
      }

      .cls-14 {
        stroke-width: 1.2px;
      }

      .cls-54, .cls-55, .cls-50 {
        opacity: .8;
      }

      .cls-55 {
        fill: #f3e4ef;
      }
    </style>
    <clipPath id="clippath">
      <rect class="cls-1" y="398.8" width="1334.14" height="600.9"/>
    </clipPath>
    <clipPath id="clippath-1">
      <rect class="cls-1" x="552.42" y="218.96" width="402.51" height="780.35"/>
    </clipPath>
    <clipPath id="clippath-2">
      <rect class="cls-1" x=".41" y="284.53" width="1331.79" height="716.01"/>
    </clipPath>
    <clipPath id="clippath-3">
      <rect class="cls-1" x="1147.45" y="789.86" width="186.52" height="209.64"/>
    </clipPath>
  </defs>
  <rect class="cls-34" x=".41" width="1333.73" height="999.53"/>
  <g class="cls-17">
    <g>
      <polyline class="cls-28" points="31.15 424.61 57.46 785.78 40.72 1156.5 86.16 1156.5 102.9 984.29 313.38 984.29 327.73 1156.5 373.17 1156.5 346.86 749.9 114.86 749.9"/>
      <polygon class="cls-34" points="109.01 934.51 116.59 820.84 294.68 820.84 304.15 936.41 109.01 934.51"/>
      <polygon class="cls-28" points="31.15 424.61 371.66 424.61 346.86 749.9 55.94 749.9 31.15 424.61"/>
    </g>
    <g>
      <polyline class="cls-28" points="527.74 424.61 554.05 785.78 537.31 1156.5 582.75 1156.5 599.49 984.29 809.97 984.29 824.32 1156.5 869.77 1156.5 843.46 749.9 611.45 749.9"/>
      <polygon class="cls-34" points="605.6 934.51 613.18 820.84 791.27 820.84 800.74 936.41 605.6 934.51"/>
      <polygon class="cls-28" points="527.74 424.61 868.25 424.61 843.46 749.9 552.54 749.9 527.74 424.61"/>
    </g>
    <g>
      <polyline class="cls-28" points="971.34 424.61 997.65 785.78 980.91 1156.5 1026.35 1156.5 1043.09 984.29 1253.57 984.29 1267.92 1156.5 1313.37 1156.5 1287.06 749.9 1055.05 749.9"/>
      <polygon class="cls-34" points="1049.2 934.51 1056.78 820.84 1234.87 820.84 1244.34 936.41 1049.2 934.51"/>
      <polygon class="cls-28" points="971.34 424.61 1311.85 424.61 1287.06 749.9 996.14 749.9 971.34 424.61"/>
    </g>
  </g>
  <g>
    <path class="cls-32" d="M636.92,507.41l-13.59-1.77s-55.93,27.05-91.56,43.12c-30.13,13.59-60.25,1.77-60.25,1.77,0,0-53.17-16.54-99.24-48.44l4.16-48.17,58.45-13.86,67.34,41.35,121.54-18.76s3.99-14.62,20.38-16.84c16.39-2.22,24.81-3.54,24.81-3.54"/>
    <path class="cls-21" d="M502.24,481.42s-14.18,11.22-14.77,24.81"/>
    <path class="cls-32" d="M274.09,198.91s-1.65,43.66-16.77,67.68c0,0-27.14,118.39,69.82,134.86,0,0,75.3-9.55,44.24-109.7,0,0-16.58-9.25-14.61-26.26,2.08-18.01,2.27,.62,2.27,.62l-84.95-67.21"/>
    <path class="cls-32" d="M275.35,163.6s15.6-90.29,97.6-86.16c0,0,57.84,7.73,43.47,88.95,0,0-4.9,12.69-3.6,19.93,0,0,2.17,18.48-8.77,34.18-16.38,23.49-31.48,39.89-31.48,39.89,0,0-9.45,11-29.68,8.6,0,0-14.14-2.26-30.7-16.23,0,0-42.97-26.76-37.12-53.3,0,0-21.71,10.68-26.47-22.25,0,0-2.01-45,26.76-13.61Z"/>
    <path class="cls-49" d="M353.48,145.56s-26.25-12.69-40.24-5.55c0,0,11.56-13,41.9-.91,0,0,4.91,5.02-1.66,6.46Z"/>
    <path class="cls-49" d="M420.6,148.01c-.46-1.52-14.5-3.26-27.66-1.87,0,0-6.09,3.5-.15,6.67,0,0,24.12-5.83,27.04,2.07,0,0,1.91-3.13,.77-6.87Z"/>
    <path class="cls-14" d="M379.37,187.95s8.95,18.29-10.95,17.56"/>
    <path class="cls-14" d="M252.52,168.6s9.7-17.86,19.99,14.44c0,0-10.44-15.07-14.21-3.91"/>
    <path class="cls-49" d="M354.77,268.72s-7.03,4.9-27.65-5.7c0,0-18.07-8.95-31.84-23.55,0,0,16.65,24.52,42.79,31.47,0,0,6.8,3.09,17.34,.89,0,0-1.51-.38-.64-3.12Z"/>
    <path class="cls-36" d="M326.86,213.84s13.86-2.27,29.07,4.41c0,0,14.06-.85,25.99,3.59,0,0-4.42,21.9-25.81,23.92-21.39,2.03-31.43-19.07-29.26-31.92Z"/>
    <path class="cls-27" d="M329.97,215.86s-2.89,19.52,22.52,23.02c23.08,3.18,25.66-14.19,25.66-14.19,0,0-26.16-2.41-48.17-8.84Z"/>
    <path class="cls-24" d="M333.08,216.58s5.05,9.92,24.84,11.68c0,0,12.04,2.28,18.01-3.47,0,0-25.42-2.95-42.86-8.22Z"/>
    <g>
      <path class="cls-24" d="M322.18,158.41s.06-.6,.55-1.06c1.64-1.51,5.35-4.26,10.7-3.73,5.99,.6,8.72,6.55,9.65,8.67,.16,.37,.11,.67,.11,.67,0,0-.01,.34-.24,.55-1.07,1.01-4.56,3.79-10.24,3.31-3.38-.29-7.94-2.58-10.41-7.45-.17-.34-.15-.75-.12-.96Z"/>
      <circle class="cls-49" cx="334.43" cy="160.71" r="6.22"/>
      <circle class="cls-24" cx="330.64" cy="159.06" r="1.71"/>
      <path class="cls-8" d="M343.44,162.35s-5.85-15.02-20.94-5.06"/>
    </g>
    <g>
      <path class="cls-24" d="M391.44,170.48s-.03-.57,.36-1.06c1.31-1.64,4.37-4.73,9.42-5,5.65-.3,9.05,4.85,10.21,6.69,.2,.32,.2,.61,.2,.61,0,0,.04,.31-.14,.54-.85,1.09-3.7,4.18-9.05,4.54-3.18,.22-7.75-1.26-10.75-5.44-.21-.29-.24-.67-.25-.88Z"/>
      <circle class="cls-49" cx="403.16" cy="170.85" r="5.83"/>
      <circle class="cls-24" cx="399.22" cy="169.96" r="1.63"/>
      <path class="cls-8" d="M411.53,171.29s-7.2-13.96-19.9-1.64"/>
    </g>
    <path class="cls-24" d="M257.32,266.59s-66.58-.23-96.48,31.66c-29.9,31.9-37.98,130.1-37.98,130.1,0,0,56.34,20.49,96.79,11.44l-83.25,7.04-48.32,163.41s166.46,43.86,260.15,34.89l28.91-136.56s18.94-25.92,24.92-59.81l34.89-5.98-8.97-96.68s-11.96-43.26-67.78-65.19c0,0,5.58,29.4-13.35,50.28,0,0-36.4,31.07-75.24-9.71,0,0-20.26-23.99-14.28-54.89Z"/>
    <path class="cls-12" d="M201.7,296.26s26.91-5.98,36.88,29.9c9.97,35.88-4.98,115.62-4.98,115.62l-13.95-1.99"/>
    <line class="cls-12" x1="402.05" y1="448.76" x2="404.54" y2="408.89"/>
    <path class="cls-44" d="M464.71,1001.04l46.99-240.29s18.94-80.74-163.47-115.62c0,0-121.6,3.99-260.15-34.89,0,0-45.85,94.69-11.96,147.52,33.89,52.83,76.75,42.86,76.75,42.86l152.5,2.99s-23.92,61.8-11.96,124.59c11.96,62.8,9.95,71.96,9.95,71.96"/>
    <line class="cls-20" x1="449.89" y1="759.75" x2="419.11" y2="1001.92"/>
    <path class="cls-47" d="M388.68,93.32s-64.95,86.74-138.41,76.73c0,0,2.01,32.78,24.81,29.19,0,0,6.54,46.39-17.76,67.35,0,0-32.78,4.16-54.83,9.28-20.65,4.78-43.24,23.15-43.24,23.15,0,0,44-37.9,55.47-104.95,13.5-78.96,52.65-117.18,52.65-117.18,0,0,58.47-64.95,123.99-15.75,0,0,38.12,7.33,49.09,46.42,6.35,22.61-1.05,61.7-7.28,92.87,0,0-13.13,75.26-49.57,92.19,0,0-29.45-4.75-30.27-23.75,0,0,5.88,1.03,15.67-7.93,13.36-12.22,23.19-24.07,33.63-38.8,0,0,11.17-14.62,9.05-36.3,0,0-.12-11.25,4.08-17.15,0,0,11.77-45.23-27.08-75.35"/>
    <path class="cls-7" d="M267.4,188.44s-11.31,12.9-2.57,22.97c8.74,10.07,6.48-11.84,6.48-11.84"/>
    <g>
      <path class="cls-45" d="M438.29,541.64s7.92,22.74,16.67,33.25c0,0,5.35,1.2,65.58,1.2,0,0,11.63-17.76,14.57-34.45"/>
      <ellipse class="cls-24" cx="486.7" cy="541.4" rx="48.41" ry="6.96"/>
      <polygon class="cls-40" points="469.38 529.79 461.62 543.08 505.71 545.96 469.38 529.79"/>
      <path class="cls-25" d="M461.51,547.51l.11-4.43,44.08,2.88-.11,1.88s-25.03,1.99-44.08-.33Z"/>
    </g>
    <path class="cls-32" d="M219.64,439.79l-2.97,86.56,175.76,50.36s18.34-18.68,33.68-23.35c15.34-4.67,18.68-4.34,27.35-10.67,8.67-6.34,8.34-8.67,11.67-5.67s3.67,6.34-.33,12.67c-4,6.34-7.34,11.01-7.34,11.01l46.69,9.34s5.34,3,3.34,6.67-14.01,3-14.01,3c0,0,1.67,8-7.67,10.34,0,0,.33,7.34-4.67,9,0,0,.33,7-7,7.34s-30.68,6-30.68,6c0,0-18.68,1.67-33.02-3l-16.34,.33s-144.08,18.01-198.77-5.34c0,0-43.43-12.87-53.14-48.25-9.55-34.79-6.79-124.94-6.79-124.94,0,0,38.16,15.38,84.25,8.58Z"/>
    <path class="cls-19" d="M457.47,560.71s-17.34-.67-21.85-3.17"/>
    <path class="cls-19" d="M493.49,579.72s.5,5.84-41.69-1.33"/>
    <path class="cls-19" d="M485.82,590.05s-24.35,2.17-36.19-2.17"/>
    <path class="cls-19" d="M481.15,599.06s-21.34,4.84-31.68,.33"/>
  </g>
  <g class="cls-51">
    <path class="cls-32" d="M802.51,512.23l10.71,21.76,73.21-30.39s.69-13.12,9.67-20.03c8.98-6.91,21.41-3.8,21.41-3.8,0,0,2.07,3.11-3.11,6.22s-7.41,5.66-7.41,5.66l8.57,30.91s-8.07,3.14-12.56,2.45c-4.49-.69-7.25,3.45-7.25,3.45,0,0-56.98,71.14-99.46,59.05,0,0-40.4-16.58-43.51-60.09"/>
    <path class="cls-31" d="M903.55,466s10.27,31.4,25.83,53.42c0,0,7.34,13.21-1.76,15.26-9.1,2.05-11.74-10.57-11.74-10.57,0,0-9.69-39.33-17.32-56.94,0,0-12.91,3.23-18.49-15.26-5.58-18.49-1.76-22.6,3.52-26.41,5.28-3.82,17.02,2.64,21.43,15.26,4.4,12.62-1.47,25.24-1.47,25.24Z"/>
    <path class="cls-32" d="M938.23,505.32s3.8,2.76,.69,6.91-6.91,5.53-14.16,6.22c-7.25,.69-3.11-8.98-3.11-8.98,0,0-9.32,.69-4.49-7.25,0,0-8.98-2.76-2.76-7.94,0,0-6.52-2.84,0-8.29,6.3-5.27,10.06-6.43,10.06-6.43,0,0,7.77,1.81,3.63,8.03,0,0,8.55,1.04,5.57,8.29,0,0,8.72,1.86,4.58,9.45Z"/>
    <line class="cls-18" x1="928.09" y1="487.58" x2="914.4" y2="494.27"/>
    <line class="cls-18" x1="933.65" y1="495.87" x2="917.16" y2="502.21"/>
    <line class="cls-18" x1="938.23" y1="505.32" x2="921.65" y2="509.46"/>
    <g>
      <path class="cls-49" d="M791.26,462.45c13.19-2.85,9.25-14.71,9.25-14.71,7.56,0,5.4-13.17,5.4-13.17,9.15-4.75,3.76-14.96,3.76-14.96,4.45-7.36-3.11-16.47-3.11-16.47,7.24-9.48-2.89-14.07-2.89-14.07,6.62-9.67-4.56-18.95-4.56-18.95,4.89-9.41,2.47-17.22,2.47-17.22,7.07-12.06-.5-20.76-.5-20.76,6.8-9.58,.15-16.19,.15-16.19,5.9-9.02-2.13-16.01-2.13-16.01,5.6-10.06-4.71-15.55-4.71-15.55,1.19-11.29-7.89-14.27-7.89-14.27-1.91-11.08-13.86-14.25-13.86-14.25-7.17-8.91-16.45-8.24-16.45-8.24-11.23-8.57-21.54-4.22-21.54-4.22-11.34-7.72-28.77-2.31-28.77-2.31-15.22-5.49-31.22,6.52-31.22,6.52-15.03-2.04-17.79,13.65-17.79,13.65-13.19,2.85-11.39,16.76-11.39,16.76-9.56-1.37-12.78,8.98-12.78,8.98-9.95-.44-10.51,12.25-10.51,12.25-8.68,2.02-6.07,12.79-6.07,12.79-8.83,5.45-2.62,12.6-2.62,12.6-7.18,6.9-.91,12.68-.91,12.68-6.62,9.67-1.55,16.33-1.55,16.33-7.73,3.78-2.37,12.04-2.37,12.04-9.78,4.72-2.18,13.68-2.18,13.68-9.1,3.72-7.21,13.39-7.21,13.39-7.68,2.75-5.62,15.17-5.62,15.17-7.13,5.87-2.57,18.5-2.57,18.5-12.51,6.72-6.4,19.79-6.4,19.79-9.16,9.77-.53,18.59-.53,18.59-4.52,9.36-.93,14.95-.93,14.95,0,0-11,20.17,10.07,20.21"/>
      <path class="cls-32" d="M765.88,292.91s12.73,2.42,13.25,32.1c0,0-2.36,9.53-1.07,15.34,1.29,5.81,.02,24.15-2.88,34.63-2.9,10.49-11.07,28.04-27.99,35.47-16.92,7.43-42.46-7.45-42.46-7.45,0,0-26.13-14.21-31.35-31.03,0,0-10.4,10.15-19.95,1.1-9.55-9.05-19.39-31.6-8.09-37.07,9.7-4.69,17.8,8.3,19.9,12.07,.35,.62,.53,1,.53,1,0,0,31.72-35.36,28.83-60.5,0,0,16.04,13.9,36.08,8.19,0,0,22.85,10.77,35.2-3.87Z"/>
      <path class="cls-48" d="M654.2,287.91s-1.67,11.82,9.03,14.93c10.7,3.12,8.19-13.24,8.19-13.24,0,0,16.45-.15,15.5-6.46-.94-6.31-10.7-15.58-13.6-11.47-2.9,4.11-3.76,12.37-3.76,12.37,0,0-12.94-.21-15.37,3.87Z"/>
      <path class="cls-32" d="M673.15,371.6s7.5,44.56-24.8,55.72c0,0,7.32,30.45,7.32,44.34,0,0,65.75,22.57,114.5,3.32,0,0-25.04-33.34-29.38-53.75,0,0-6.41-5.54-3.8-12.49l-63.84-37.14Z"/>
      <path class="cls-42" d="M727.11,322.2s-16.48-4.01-30.99,.81c0,0,7.16-8.98,31.44-4.77,0,0,4.01,2.53-.46,3.96Z"/>
      <path class="cls-42" d="M779.35,326.56c-11.51-3.13-20.02-2.4-20.02-2.4-4.2-2.07,.14-3.98,.14-3.98,7.68-.17,16.1,1.62,20.5,2.87,0,0,0,3.69-.62,3.51Z"/>
      <path class="cls-33" d="M721.38,375.57s8.92-2.18,19.17,1.41c0,0,9.12-1.26,17.12,1.03,0,0-1.77,14.49-15.61,16.89-13.84,2.4-21.44-10.85-20.68-19.33Z"/>
      <path class="cls-27" d="M723.51,376.73s-.9,12.87,15.84,13.87c15.2,.91,16.01-10.54,16.01-10.54,0,0-17.17-.25-31.84-3.33Z"/>
      <path class="cls-24" d="M725.57,377.04s3.79,6.21,16.78,6.36c0,0,7.96,.88,11.57-3.17,0,0-16.71-.64-28.35-3.2Z"/>
      <path class="cls-2" d="M748.6,345.63s9.56,10.31-1.39,15.85"/>
      <path class="cls-49" d="M737.08,413.62s-14.44-.97-27.55-7.68c0,0-8.38-3.14-21.14-13.79,0,0,5.59,12.95,30.57,20.38,0,0,8.38,2.81,19.24,4.24,0,0-.13-1.44-1.12-3.15Z"/>
      <path class="cls-48" d="M664.29,417.31s-53.17,20.82-66.55,52.94c-15.48,37.15,6.32,79.1,6.32,79.1,0,0,9.88-5.99,32.88-16.31,0,0-14.59,60.94-15.35,114.57,0,0,76.27,41.82,159.08,2.14,0,0-6.37-79.74-5.61-122.64,0,0,18.72,.83,26.38-16.79l-2.39-34.81s-8.31-43.56-59.64-55.82c0,0,12.91,22.11-13.91,28.24,0,0-45.14,9.98-61.23-30.62Z"/>
      <circle class="cls-44" cx="723.79" cy="465.95" r="6.55"/>
      <circle class="cls-44" cx="710.72" cy="466.91" r="6.55"/>
      <circle class="cls-44" cx="697.45" cy="464.52" r="6.55"/>
      <circle class="cls-44" cx="684.64" cy="460" r="6.55"/>
      <circle class="cls-44" cx="674" cy="452.01" r="6.55"/>
      <circle class="cls-44" cx="664.31" cy="443.36" r="6.55"/>
      <circle class="cls-44" cx="736.14" cy="461.35" r="6.55"/>
      <circle class="cls-44" cx="747.29" cy="454.86" r="6.55"/>
      <circle class="cls-44" cx="753.28" cy="443.04" r="6.55"/>
      <circle class="cls-44" cx="718.63" cy="477.52" r="6.55"/>
      <circle class="cls-44" cx="702.32" cy="476.84" r="6.55"/>
      <circle class="cls-44" cx="687.04" cy="472.74" r="6.55"/>
      <circle class="cls-44" cx="672.9" cy="465.16" r="6.55"/>
      <circle class="cls-44" cx="662.59" cy="456.71" r="6.55"/>
      <circle class="cls-44" cx="733.85" cy="473.81" r="6.55"/>
      <circle class="cls-44" cx="747.63" cy="467.65" r="6.55"/>
      <circle class="cls-44" cx="760" cy="454.34" r="6.55"/>
      <path class="cls-44" d="M664.29,417.31s10.83,32.34,49.16,31.76c38.33-.59,27.34-27.84,27.34-27.84l3.67,.34s8.32,31.71-30.14,30.14c-37.36-1.53-41.26-14.37-53.25-32.48l3.21-1.91Z"/>
      <path class="cls-2" d="M645.35,350.41s5.53-7.38,10.75,.8c5.22,8.18,5.37,10.81,5.37,10.81,0,0-7.4-12.94-11.23-3.14"/>
      <g>
        <path class="cls-26" d="M659.43,341.05s6.53,9.66-.81,13.53c-7.34,3.87,4.62,2,4.62,2,0,0,8.37-2.96-.61-18.47l-3.19,2.94Z"/>
        <path class="cls-24" d="M658.62,354.58s-3.23-10.75-10.66-9.04c-7.43,1.71-.47,15.06-.47,15.06,0,0,1.97,3.13,6.06,3.16,0,0-3.44-7.32,5.08-9.18Z"/>
        <path class="cls-43" d="M641.84,340.16s-6.21,2.92-3.78-4.07c2.43-6.98,12.82-6.54,16.07-5.8,3.25,.74,7.88,2.67,8.49,7.82,.6,5.15-6.23,.17-6.23,.17,0,0-8.17-7.07-14.55,1.87Z"/>
      </g>
      <g>
        <path class="cls-24" d="M706.37,334.56s0-.47,.36-.85c1.18-1.27,3.89-3.63,8.07-3.53,4.68,.11,7.15,4.56,7.99,6.14,.15,.27,.13,.51,.13,.51,0,0,.01,.26-.15,.44-.77,.85-3.31,3.21-7.74,3.18-2.64-.02-6.3-1.52-8.51-5.15-.15-.25-.16-.57-.15-.74Z"/>
        <circle class="cls-49" cx="716" cy="335.61" r="4.84"/>
        <circle class="cls-24" cx="712.97" cy="334.56" r="1.33"/>
        <path class="cls-2" d="M723.08,336.34s-5.44-11.29-16.53-2.67"/>
      </g>
      <g>
        <path class="cls-24" d="M757.07,338.08s-.06-.43,.21-.83c.9-1.33,3.06-3.87,6.9-4.38,4.3-.56,7.2,3.17,8.2,4.51,.17,.23,.19,.45,.19,.45,0,0,.05,.24-.08,.42-.58,.89-2.58,3.41-6.65,4.01-2.42,.35-5.99-.51-8.53-3.52-.18-.21-.23-.5-.24-.66Z"/>
        <circle class="cls-49" cx="766.04" cy="337.68" r="4.47"/>
        <circle class="cls-24" cx="762.98" cy="337.23" r="1.25"/>
        <path class="cls-2" d="M772.47,337.52s-6.33-10.24-15.3-.07"/>
      </g>
      <path class="cls-10" d="M624.71,452.22s20.01-3.27,30.33,35.36c6.1,22.84,3.28,28.06,3.28,28.06l-4.09,11.1"/>
      <path class="cls-44" d="M579.14,761.97s7.97,25.92,31.23,33.89l29.24,3.32,107.65,25.25s-1.99,28.57,7.31,55.15l1.17,22.75s30.73,93.25,58.31,46.21l4.98-48.37,3.04,40.8s32.52,4.79,54.96-30.4l11.11-110.08s3.32-32.56-12.63-39.21l-296.37,.66Z"/>
      <path class="cls-8" d="M819.02,900.18l15.95-111.64s.66-28.57-16.61-28.57"/>
      <line class="cls-10" x1="770.75" y1="524.02" x2="767.04" y2="480.76"/>
      <g>
        <path class="cls-32" d="M811.89,1012.77s-9.53,18.06-5.52,26.59c0,0,18.68,11.83,31.22-1.21,0,0-16.99-7.84-25.7-25.38Z"/>
        <path class="cls-32" d="M816.41,1001.73s9.54,26.8,26.79,31.18c0,0,6.35-14.19,14.85-22.66,0,0-6.1-26.6,18.98-99.68,0,0-17.81,7.82-58.75-1.6,0,0-8.39,21.52-3.38,45.6,5.02,24.08,1.5,47.15,1.5,47.15Z"/>
        <path class="cls-23" d="M806.37,1039.36s-6.52,13.04-4.01,18.06c0,0,13.04,5.02,30.6,.5,0,0,9.53-2.51,19.56,5.52,10.03,8.03,49.16,12.04,61.7,.5,12.54-11.54-9.03-23.58-9.03-23.58,0,0-30.1-8.53-35.11-22.07-5.02-13.54-12.04-8.03-12.04-8.03,0,0-14.05,10.53-16.05,20.57,0,0-16.05-4.51-25.58-29.1l-4.51,11.04s9.53,20.07,24.08,24.58c0,0-5.52,12.04-29.6,2.01Z"/>
        <circle class="cls-42" cx="840.29" cy="1035.98" r="6.52"/>
        <circle class="cls-42" cx="857.08" cy="1054.5" r="4.32"/>
        <circle class="cls-42" cx="871.29" cy="1060.11" r="4.32"/>
        <circle class="cls-42" cx="887.48" cy="1062.37" r="4.32"/>
        <circle class="cls-42" cx="901.21" cy="1060.69" r="4.32"/>
        <circle class="cls-42" cx="912.95" cy="1056.28" r="4.32"/>
        <path class="cls-5" d="M859.05,1044.87s32.11,14.05,48.66,1"/>
      </g>
      <g>
        <path class="cls-32" d="M766.9,1024.02s-10.09,19.13-5.84,28.16c0,0,19.78,12.53,33.06-1.28,0,0-17.99-8.3-27.22-26.88Z"/>
        <path class="cls-32" d="M771.69,1012.33s10.1,28.38,28.37,33.03c0,0,6.72-15.03,15.73-24,0,0-6.9-60.75,9.38-111.02,0,0-29.96,18.06-69.43-8.01,0,0,1.15,34.38,6.46,59.88,5.31,25.5,9.49,50.11,9.49,50.11Z"/>
        <path class="cls-23" d="M761.06,1052.18s-6.91,13.81-4.25,19.13c0,0,13.81,5.31,32.41,.53,0,0,10.09-2.66,20.72,5.84,10.63,8.5,52.07,12.75,65.35,.53,13.28-12.22-9.56-24.97-9.56-24.97,0,0-31.88-9.03-37.19-23.38-5.31-14.35-12.75-8.5-12.75-8.5,0,0-14.88,11.16-17,21.78,0,0-17-4.78-27.1-30.82l-4.78,11.69s10.09,21.25,25.5,26.03c0,0-5.84,12.75-31.35,2.13Z"/>
        <circle class="cls-42" cx="796.98" cy="1048.6" r="6.91"/>
        <circle class="cls-42" cx="814.77" cy="1068.22" r="4.57"/>
        <circle class="cls-42" cx="829.81" cy="1074.16" r="4.57"/>
        <circle class="cls-42" cx="846.97" cy="1076.55" r="4.57"/>
        <circle class="cls-42" cx="861.51" cy="1074.77" r="4.57"/>
        <circle class="cls-42" cx="873.94" cy="1070.11" r="4.57"/>
        <path class="cls-5" d="M816.85,1058.02s34,14.88,51.54,1.06"/>
      </g>
    </g>
  </g>
  <g>
    <path class="cls-35" d="M893.08,615.14s46.91-10.68,64.38-9.38c0,0,13.59-37.53,16.5-44.32l40.76,10.35s-18.12,57.59-27.82,63.09c-9.71,5.5-55.82,9.98-94.14,6.15"/>
    <path class="cls-35" d="M1104.32,447.19s-7.32,15.88-4.02,38.82c0,0-9.55,34.43-51.84,34.95,0,0-43.91-14.3-13.21-42.29,0,0,4.33-1.12,4.52-8.12,0,0,48.79,4.54,64.55-23.35Z"/>
    <path class="cls-22" d="M1158.7,715.05s-84.06,3.41-138.31-38.2c0,0-11.58-62.73-12.32-104.34,0,0,3.45,.85,0,0-11.3-2.79-30.05-1.28-35.74-14.38l7.49-25.98s6.48-42.27,56.27-54.16c0,0-10.77,22.4,15.24,28.35,0,0,2.09,10.87,4.81,10.63s6.06-11.59,6.95-11.56c10.45,.42,26.69-.86,38.39-30.4,0,0,49.76,6.86,54.06,47.37,4.93,46.42,14.79,133.92,14.79,133.92"/>
    <path class="cls-11" d="M1116.11,501.44s-27.93-6.57-37.38,72.3c0,0,46.83,29.17,65.73,16.84,0,0,8.63-13.15,12.32-33.68"/>
    <path class="cls-11" d="M1008.52,530.51s-3.37,20.02-.45,42"/>
    <path class="cls-31" d="M953.14,566.37s5.62,28.43,16.83,49.24c0,0,4.99,12.28-3.15,13.1-8.14,.82-9.1-10.44-9.1-10.44,0,0-4.26-35.26-9.04-51.4,0,0-11.58,1.44-14.48-15.25s.86-19.86,5.86-22.62c5-2.76,14.54,4.1,17.04,15.56,2.5,11.45-3.95,21.82-3.95,21.82Z"/>
    <path class="cls-35" d="M1085.91,577.75l-13.71,33.85-78.8-6.44s-13.23-12.4-19.34-15.43c-6.12-3.03-17.13-.23-17.13-.23l-4.82,6.02s-8.23,1.16-8.34,6.45c-.11,5.29,6.18,5.19,6.18,5.19-4.18,9.01,3.74,8.64,3.74,8.64-3.03,6.12,2.31,6.86,2.31,6.86-2.65,2.46-1.29,7.11-1.29,7.11,5.39,4.87,22.64,4.39,22.64,4.39l29.9-2.39s34.04,17.81,71.81,20.96c28.07,2.34,39.85-16.28,39.85-16.28l17.94-42.72s-21.91,2.37-50.94-15.98Z"/>
    <path class="cls-16" d="M963.48,588.2s8.67-.01,10.58,1.53c1.9,1.54,14.89,9.95,19.34,15.43l9.15,.59"/>
    <path class="cls-16" d="M945.39,605.93s1.5,1.19,4.55,1.23c0,0-4.79,9.11,3.74,8.64,0,0-3.36,5.86,2.31,6.86,0,0-3.19,3.27-1.29,7.11,1.9,3.84,15.65,4.95,34.1,3.47"/>
    <path class="cls-37" d="M1096.75,466.09s5.51-.66,6.79,6.35c.82,4.5,7.34,7.49,7.34,7.49,0,0-1.08,23.42-17.58,34.22,0,0-13.53-11.65-30.21-8.73,0,0,41.67-22.84,33.67-39.32Z"/>
    <path class="cls-37" d="M1040.26,472.47s-11.46,7.87,11.06,33.87c0,0-16.05-2.27-21.89,4.67,0,0-7.84-20.98-7.19-33.41,0,0,14.82-9.78,18.02-5.13Z"/>
    <g>
      <path class="cls-35" d="M996.14,883.27s11.65,14.03,9.71,22.23c0,0-14.15,13.78-27.51,4.68,0,0,13.41-9.98,17.8-26.91Z"/>
      <path class="cls-35" d="M990.17,874.45s-3.41,25.18-17.68,32.18c0,0-8.16-11.24-17.15-17.08,0,0-27.69-76.58-32.5-106.49,0,0,16.79,4.46,50.85-11.3,0,0,9.09,39.21,9.13,61.18,.04,21.97,7.35,41.5,7.35,41.5Z"/>
      <path class="cls-29" d="M1005.85,905.5s8.1,10.2,6.83,15.05c0,0-10.48,6.78-26.66,6.06,0,0-8.79-.44-16.09,8.42s-40.76,19.56-53.85,11.78c-13.08-7.78,3.56-22.27,3.56-22.27,0,0,24.74-12.99,26.64-25.75,1.9-12.76,9.05-9.23,9.05-9.23,0,0,14.22,6.63,17.81,15.03,0,0,13.2-6.9,17.02-30.14l5.98,8.82s-4.64,19.29-16.53,25.91c0,0,7.04,9.51,26.24-3.69Z"/>
      <circle class="cls-42" cx="975.58" cy="908.78" r="5.83"/>
      <circle class="cls-42" cx="964.31" cy="928.06" r="3.86"/>
      <circle class="cls-42" cx="952.92" cy="935.57" r="3.86"/>
      <circle class="cls-42" cx="939.18" cy="940.52" r="3.86"/>
      <circle class="cls-42" cx="926.87" cy="941.58" r="3.86"/>
      <circle class="cls-42" cx="915.8" cy="939.89" r="3.86"/>
      <path class="cls-5" d="M960.82,920s-25.48,18.18-42.35,9.82"/>
    </g>
    <g>
      <path class="cls-35" d="M1048.81,880.73s12.34,14.86,10.29,23.54c0,0-14.99,14.59-29.14,4.96,0,0,14.2-10.57,18.85-28.5Z"/>
      <path class="cls-35" d="M1042.48,871.39s-3.61,26.67-18.73,34.09c0,0-8.64-11.9-18.16-18.08,0,0-29.33-81.11-34.42-112.78,0,0,17.78,4.73,53.85-11.97,0,0,9.63,41.52,9.67,64.79s7.79,43.95,7.79,43.95Z"/>
      <path class="cls-29" d="M1059.09,904.27s8.58,10.81,7.23,15.94c0,0-11.1,7.18-28.23,6.42,0,0-9.31-.47-17.04,8.92-7.73,9.38-43.17,20.72-57.03,12.48-13.86-8.24,3.77-23.59,3.77-23.59,0,0,26.21-13.76,28.21-27.27,2.01-13.52,9.58-9.78,9.58-9.78,0,0,15.06,7.02,18.87,15.92,0,0,13.98-7.31,18.02-31.92l6.33,9.34s-4.92,20.43-17.51,27.45c0,0,7.45,10.07,27.79-3.9Z"/>
      <circle class="cls-42" cx="1027.03" cy="907.74" r="6.17"/>
      <circle class="cls-42" cx="1015.1" cy="928.17" r="4.08"/>
      <circle class="cls-42" cx="1003.03" cy="936.13" r="4.08"/>
      <circle class="cls-42" cx="988.48" cy="941.37" r="4.08"/>
      <circle class="cls-42" cx="975.44" cy="942.49" r="4.08"/>
      <circle class="cls-42" cx="963.71" cy="940.7" r="4.08"/>
      <path class="cls-5" d="M1011.4,919.63s-26.99,19.26-44.86,10.4"/>
    </g>
    <path class="cls-35" d="M1028.83,355.53s-12.21,7.44-15.73,34.54c-3.52,27.09-5.68,33.73-2.26,55.87,3.6,23.29,33.35,29.34,33.35,29.34,0,0,49.38-2.53,59.42-27.75,0,0,9.5,14.77,22.14-1.98,0,0,14.27-18.33,5.04-24.88,0,0-10.22-5.49-18.09,5.05,0,0,12.85-45.66-1.91-55.16,0,0-33.58-43.4-81.96-15.03Z"/>
    <path class="cls-2" d="M1034.66,416.96s-10.02,11.89,4.85,15.03"/>
    <path class="cls-2" d="M1128.6,430.24s-3.19-12.36-14.38,5.75c0,0,8.66-7.59,9.25-.21"/>
    <path class="cls-49" d="M1039.38,473.96s9.96,1.77,20.04-.76c0,0,8.81-.81,20.44-5.79,0,0-8.4,6.73-23.9,9.47,0,0-10.67,1.53-17.71-.75,0,0,.82-1.19,1.12-2.16Z"/>
    <path class="cls-30" d="M1057.64,446.01s-7.01-6.75-17.86-4.01c0,0-8.08-2.65-15.86,.96,0,0-.18,5.37,12.24,8.21,8.49,1.94,16.83,.88,21.47-5.16Z"/>
    <path class="cls-50" d="M1062.03,395.88s18.93,1.59,25.55,8.72c0,0-3.69-9.1-24.93-12.11,0,0-4.21,.9-.62,3.39Z"/>
    <path class="cls-50" d="M1013.42,390.61c.33-.78,9.3-1.78,17.63-1.15,0,0,3.78,1.76-.07,3.44,0,0-15.18-2.84-17.24,1.25,0,0-1.14-1.6-.32-3.54Z"/>
    <g>
      <path class="cls-24" d="M1078.46,410.37s.07-.45-.21-.87c-.92-1.4-3.13-4.1-7.14-4.69-4.49-.66-7.58,3.2-8.64,4.58-.18,.24-.2,.47-.2,.47,0,0-.05,.25,.07,.45,.59,.94,2.64,3.61,6.88,4.29,2.52,.41,6.28-.43,8.98-3.54,.19-.22,.24-.52,.26-.68Z"/>
      <circle class="cls-49" cx="1069.08" cy="409.81" r="4.69"/>
      <circle class="cls-24" cx="1072.15" cy="409.3" r="1.29"/>
      <path class="cls-2" d="M1062.19,409.36s7.03-9.91,16.24,.13"/>
    </g>
    <g>
      <path class="cls-24" d="M1031.26,405.97s.13-.4-.07-.83c-.65-1.42-2.3-4.2-5.89-5.3-4.02-1.24-7.4,1.86-8.57,2.98-.2,.19-.25,.4-.25,.4,0,0-.08,.22,0,.42,.41,.94,1.92,3.68,5.71,4.91,2.26,.73,5.82,.49,8.73-1.98,.2-.17,.3-.44,.34-.59Z"/>
      <circle class="cls-49" cx="1022.74" cy="404.13" r="4.34"/>
      <circle class="cls-24" cx="1025.74" cy="404.2" r="1.21"/>
      <path class="cls-2" d="M1016.62,402.93s7.71-8.77,14.64,2.41"/>
    </g>
    <path class="cls-39" d="M1077.64,413.51s.14,2.32,.27,3.37c.14,1.05,2.31,2.51,2.48,.68,.16-1.83-2.75-4.05-2.75-4.05Z"/>
    <path class="cls-2" d="M1023.93,442.95s12.26,4.23,33.71,3.05"/>
    <path class="cls-55" d="M1023.93,442.95s.5-1.66,1.61-2.53c.85-.66,6.52-3.27,14.74-1.41,0,0,14.52-1.27,17.37,6.99,0,0-6.08-6.29-17.87-4.22,0,0-7.13-2.39-15.84,1.16Z"/>
    <g>
      <path class="cls-46" d="M1024.33,360.2s15.05,4.57,23.19,.31c8.14-4.26,63.33,11.84,65.62,66.38,0,0,5.89-9.41,18.49-4.23,0,0,24.21-82.13-47.99-89.68,0,0-35.27-9.68-59.31,27.22Z"/>
      <path class="cls-42" d="M1126.55,421.83s3.72-32.19-27.37-32.39c0,0-5.61-2.88-1.67-7.47,0,0,35.48,3.86,34.13,40.69,0,0-1.73-1.82-5.09-.83Z"/>
      <path class="cls-42" d="M1075.66,367.07s.77,7.14,7.7,6.49c15.83-1.48,43.76,7.89,50.3,33.26,0,0,2.48-1.48,.36-7.34-2.12-5.87-14.38-37.69-58.36-32.41Z"/>
      <path class="cls-42" d="M1058.01,358s.46,5.88,5.72,5.88c0,0,54.93-14.6,71.83,27.61,0,0-12.43-46.51-77.55-33.48Z"/>
      <path class="cls-42" d="M1042.88,350.38s3.26,7.43,8.23,5.72c4.97-1.71,71.31-16.63,84.22,26.34,0,0-7.76-50.87-92.45-32.05Z"/>
      <path class="cls-42" d="M1049.8,340.67s-2.05,6.04,9.34,3.95c11.39-2.09,61.69-2.48,73.12,23.38,0,0-14.91-38.32-82.46-27.33Z"/>
      <path class="cls-42" d="M1043.62,357.13s-7.91,4.57-10.56,.28c-2.65-4.29-3.74-6.12-3.74-6.12l7.12-6.63,7.17,12.47Z"/>
      <path class="cls-42" d="M1049,345.8s-8.85,5.25-9.78-2.92l5-3.64,4.78,6.56Z"/>
      <polygon class="cls-42" points="1055.46 336.31 1048.16 338.76 1047.46 336.16 1054.49 333.66 1055.46 336.31"/>
      <path class="cls-42" d="M1069.07,335.95l-9.79,.68-1.38-3.54s4.83-2.56,9.65-1.53l1.53,4.39Z"/>
      <path class="cls-42" d="M1082.51,336.67l-10.43-.53-1.3-4.08s6.41-2.04,10.78,.03l.94,4.57Z"/>
      <path class="cls-42" d="M1095.93,339.33l-9.14-1.71-.67-4.53s6.42-.38,9.86,2.38l-.05,3.86Z"/>
      <path class="cls-42" d="M1099.63,336.87l-.63,4.05s14.21,2.83,18.07,6.48c0,0-8.57-8.86-17.43-10.53Z"/>
    </g>
  </g>
  <g>
    <path class="cls-35" d="M893.08,615.14s-13.73-12.63-36.5-12.54c0,0-4.1,6.4,7.76,9.1l-26.05-.09s-9.03,3.1-1.37,5.7c7.66,2.6,16.67,4.61,16.67,4.61l-20.43,.36s-8.57,3.06,.44,5.08c9.01,2.02,17.86,2.19,17.86,2.19l-17,2.39s-6.18,3.79,.9,5.04,19.08,.22,19.08,.22l-12.22,3.84s-3.45,3.09,3.59,3.88,32.24,1.88,42.81-5.07l4.16,1.18"/>
    <path class="cls-11" d="M888.6,639.84s6.26-2.86,6.63-9.4"/>
    <path class="cls-11" d="M881.01,632.59s-8.66-3.44-10.8-12.09"/>
    <path class="cls-32" d="M796.05,637.45l7.92,3.3,13.66,6.63s26.04,.25,39.95,.2c6.5-.02,8.52-11.84,8.52-11.84,7.12-5.46,6.68-11.77,6.68-11.77,8.26-5.64,1.86-9.25,1.86-9.25,1.21-7.51-4.97-5.58-4.97-5.58l-15.82,6.99s-8.04,2.01-20.16-2.52c-12.12-4.53,2.7-8.75,2.7-8.75,9.11-7.07-.13-9.36-.13-9.36-15.39-2.49-29.68,14.25-29.68,14.25l-6.08,1.04s-57.56-22.71-90.24-28.98c0,0-43.2-57.42-51.95-66.17l-46.48,28.98s44.3,67.81,76.56,83.67c32.27,15.86,107.65,9.16,107.65,9.16Z"/>
    <path class="cls-16" d="M874.64,614.72s-13.76,10.9-29.27,9.82"/>
    <path class="cls-16" d="M872.77,623.76s-15.58,10.34-30.39,7.74"/>
    <polyline class="cls-16" points="866.1 635.74 850.17 641.08 840.18 638.85"/>
  </g>
  <g class="cls-53">
    <g>
      <polygon class="cls-28" points="34.97 1232.66 37.5 705.31 1292.49 705.31 1292.49 1235.2 1258.27 1235.2 1229.72 804.19 98.58 804.19 72.71 1232.66 34.97 1232.66"/>
      <g>
        <path class="cls-9" d="M2.52,762.76s-2.47,10.16-.23,16.31c2.24,6.15-1.68,19-1.68,19"/>
        <path class="cls-9" d="M9.65,763.79s-.9,18.9,1.35,33.31"/>
        <path class="cls-9" d="M20,764.69s2.7,6.3-.9,13.5-.9,20.25-.9,20.25"/>
        <path class="cls-9" d="M24.95,795.75s-3.6-19.35,.45-30.61"/>
        <line class="cls-9" x1="29.45" y1="765.59" x2="29" y2="798.45"/>
        <path class="cls-9" d="M105.6,766.81s-2.47,10.16-.23,16.31-1.68,19-1.68,19"/>
        <path class="cls-9" d="M112.72,767.84s-.9,18.9,1.35,33.31"/>
        <path class="cls-9" d="M123.07,768.74s2.7,6.3-.9,13.5c-3.6,7.2-.9,20.25-.9,20.25"/>
        <path class="cls-9" d="M128.02,799.8s-3.6-19.35,.45-30.61"/>
        <line class="cls-9" x1="132.53" y1="769.64" x2="132.08" y2="802.5"/>
        <path class="cls-9" d="M140.25,766.36s-2.47,10.16-.23,16.31c2.24,6.15-1.68,19-1.68,19"/>
        <path class="cls-9" d="M147.38,767.39s-.9,18.9,1.35,33.31"/>
        <path class="cls-9" d="M157.73,768.29s2.7,6.3-.9,13.5c-3.6,7.2-.9,20.25-.9,20.25"/>
        <path class="cls-9" d="M162.68,799.35s-3.6-19.35,.45-30.61"/>
        <line class="cls-9" x1="167.18" y1="769.19" x2="166.73" y2="802.05"/>
        <path class="cls-9" d="M175.36,764.56s-2.47,10.16-.23,16.31-1.68,19-1.68,19"/>
        <path class="cls-9" d="M182.49,765.59s-.9,18.9,1.35,33.31"/>
        <path class="cls-9" d="M192.84,766.49s2.7,6.3-.9,13.5c-3.6,7.2-.9,20.25-.9,20.25"/>
        <path class="cls-9" d="M197.79,797.55s-3.6-19.35,.45-30.61"/>
        <line class="cls-9" x1="202.29" y1="767.39" x2="201.84" y2="800.25"/>
        <path class="cls-9" d="M208.67,761.85s-2.47,10.16-.23,16.31c2.24,6.15-1.68,19-1.68,19"/>
        <path class="cls-9" d="M215.8,762.89s-.9,18.9,1.35,33.31"/>
        <path class="cls-9" d="M226.15,763.79s2.7,6.3-.9,13.5c-3.6,7.2-.9,20.25-.9,20.25"/>
        <path class="cls-9" d="M231.1,794.85s-3.6-19.35,.45-30.61"/>
        <line class="cls-9" x1="235.6" y1="764.69" x2="235.15" y2="797.55"/>
        <path class="cls-9" d="M241.98,758.7s-2.47,10.16-.23,16.31c2.24,6.15-1.68,19-1.68,19"/>
        <path class="cls-9" d="M249.1,759.74s-.9,18.9,1.35,33.31"/>
        <path class="cls-9" d="M259.46,760.64s2.7,6.3-.9,13.5c-3.6,7.2-.9,20.25-.9,20.25"/>
        <path class="cls-9" d="M264.41,791.69s-3.6-19.35,.45-30.61"/>
        <line class="cls-9" x1="268.91" y1="761.54" x2="268.46" y2="794.4"/>
        <path class="cls-9" d="M275.74,756.9s-2.47,10.16-.23,16.31-1.68,19-1.68,19"/>
        <path class="cls-9" d="M282.86,757.94s-.9,18.9,1.35,33.31"/>
        <path class="cls-9" d="M293.21,758.84s2.7,6.3-.9,13.5c-3.6,7.2-.9,20.25-.9,20.25"/>
        <path class="cls-9" d="M298.16,789.89s-3.6-19.35,.45-30.61"/>
        <line class="cls-9" x1="302.67" y1="759.74" x2="302.22" y2="792.6"/>
        <path class="cls-9" d="M308.59,757.35s-2.47,10.16-.23,16.31c2.24,6.15-1.68,19-1.68,19"/>
        <path class="cls-9" d="M315.72,758.39s-.9,18.9,1.35,33.31"/>
        <path class="cls-9" d="M326.07,759.29s2.7,6.3-.9,13.5c-3.6,7.2-.9,20.25-.9,20.25"/>
        <path class="cls-9" d="M331.02,790.34s-3.6-19.35,.45-30.61"/>
        <line class="cls-9" x1="335.52" y1="760.19" x2="335.07" y2="793.05"/>
        <path class="cls-9" d="M342.35,757.35s-2.47,10.16-.23,16.31c2.24,6.15-1.68,19-1.68,19"/>
        <path class="cls-9" d="M349.48,758.39s-.9,18.9,1.35,33.31"/>
        <path class="cls-9" d="M359.83,759.29s2.7,6.3-.9,13.5c-3.6,7.2-.9,20.25-.9,20.25"/>
        <path class="cls-9" d="M364.78,790.34s-3.6-19.35,.45-30.61"/>
        <line class="cls-9" x1="369.28" y1="760.19" x2="368.83" y2="793.05"/>
        <path class="cls-9" d="M376.11,759.6s-2.47,10.16-.23,16.31c2.24,6.15-1.68,19-1.68,19"/>
        <path class="cls-9" d="M383.24,760.64s-.9,18.9,1.35,33.31"/>
        <path class="cls-9" d="M393.59,761.54s2.7,6.3-.9,13.5c-3.6,7.2-.9,20.25-.9,20.25"/>
        <path class="cls-9" d="M398.54,792.6s-3.6-19.35,.45-30.61"/>
        <line class="cls-9" x1="403.04" y1="762.44" x2="402.59" y2="795.3"/>
        <path class="cls-9" d="M409.87,762.76s-2.47,10.16-.23,16.31c2.24,6.15-1.68,19-1.68,19"/>
        <path class="cls-9" d="M416.99,763.79s-.9,18.9,1.35,33.31"/>
        <path class="cls-9" d="M427.35,764.69s2.7,6.3-.9,13.5c-3.6,7.2-.9,20.25-.9,20.25"/>
        <path class="cls-9" d="M432.3,795.75s-3.6-19.35,.45-30.61"/>
        <line class="cls-9" x1="436.8" y1="765.59" x2="436.35" y2="798.45"/>
        <path class="cls-9" d="M444.53,766.36s-2.47,10.16-.23,16.31-1.68,19-1.68,19"/>
        <path class="cls-9" d="M451.65,767.39s-.9,18.9,1.35,33.31"/>
        <path class="cls-9" d="M462,768.29s2.7,6.3-.9,13.5-.9,20.25-.9,20.25"/>
        <path class="cls-9" d="M466.95,799.35s-3.6-19.35,.45-30.61"/>
        <line class="cls-9" x1="471.46" y1="769.19" x2="471.01" y2="802.05"/>
        <path class="cls-9" d="M478.28,768.61s-2.47,10.16-.23,16.31c2.24,6.15-1.68,19-1.68,19"/>
        <path class="cls-9" d="M485.41,769.64s-.9,18.9,1.35,33.31"/>
        <path class="cls-9" d="M495.76,770.54s2.7,6.3-.9,13.5c-3.6,7.2-.9,20.25-.9,20.25"/>
        <path class="cls-9" d="M500.71,801.6s-3.6-19.35,.45-30.61"/>
        <line class="cls-9" x1="505.21" y1="771.44" x2="504.76" y2="804.3"/>
        <path class="cls-9" d="M512.04,770.41s-2.47,10.16-.23,16.31c2.24,6.15-1.68,19-1.68,19"/>
        <path class="cls-9" d="M519.17,771.44s-.9,18.9,1.35,33.31"/>
        <path class="cls-9" d="M529.52,772.34s2.7,6.3-.9,13.5c-3.6,7.2-.9,20.25-.9,20.25"/>
        <path class="cls-9" d="M534.47,803.4s-3.6-19.35,.45-30.61"/>
        <line class="cls-9" x1="538.97" y1="773.24" x2="538.52" y2="806.1"/>
        <path class="cls-9" d="M546.7,769.96s-2.47,10.16-.23,16.31-1.68,19-1.68,19"/>
        <path class="cls-9" d="M553.83,770.99s-.9,18.9,1.35,33.31"/>
        <path class="cls-9" d="M564.18,771.89s2.7,6.3-.9,13.5c-3.6,7.2-.9,20.25-.9,20.25"/>
        <path class="cls-9" d="M569.13,802.95s-3.6-19.35,.45-30.61"/>
        <line class="cls-9" x1="573.63" y1="772.79" x2="573.18" y2="805.65"/>
        <path class="cls-9" d="M580.01,768.16s-2.47,10.16-.23,16.31c2.24,6.15-1.68,19-1.68,19"/>
        <path class="cls-9" d="M587.13,769.19s-.9,18.9,1.35,33.31"/>
        <path class="cls-9" d="M597.49,770.09s2.7,6.3-.9,13.5c-3.6,7.2-.9,20.25-.9,20.25"/>
        <path class="cls-9" d="M602.44,801.15s-3.6-19.35,.45-30.61"/>
        <line class="cls-9" x1="606.94" y1="770.99" x2="606.49" y2="803.85"/>
        <path class="cls-9" d="M612.87,765.01s-2.47,10.16-.23,16.31c2.24,6.15-1.68,19-1.68,19"/>
        <path class="cls-9" d="M619.99,766.04s-.9,18.9,1.35,33.31"/>
        <path class="cls-9" d="M630.34,766.94s2.7,6.3-.9,13.5c-3.6,7.2-.9,20.25-.9,20.25"/>
        <path class="cls-9" d="M635.29,798s-3.6-19.35,.45-30.61"/>
        <line class="cls-9" x1="639.8" y1="767.84" x2="639.35" y2="800.7"/>
        <path class="cls-9" d="M646.62,758.25s-2.47,10.16-.23,16.31c2.24,6.15-1.68,19-1.68,19"/>
        <path class="cls-9" d="M653.75,759.29s-.9,18.9,1.35,33.31"/>
        <path class="cls-9" d="M664.1,760.19s2.7,6.3-.9,13.5c-3.6,7.2-.9,20.25-.9,20.25"/>
        <path class="cls-9" d="M669.05,791.24s-3.6-19.35,.45-30.61"/>
        <line class="cls-9" x1="673.55" y1="761.09" x2="673.1" y2="793.95"/>
        <path class="cls-9" d="M680.38,752.85s-2.47,10.16-.23,16.31c2.24,6.15-1.68,19-1.68,19"/>
        <path class="cls-9" d="M687.51,753.89s-.9,18.9,1.35,33.31"/>
        <path class="cls-9" d="M697.86,754.79s2.7,6.3-.9,13.5-.9,20.25-.9,20.25"/>
        <path class="cls-9" d="M702.81,785.84s-3.6-19.35,.45-30.61"/>
        <line class="cls-9" x1="707.31" y1="755.69" x2="706.86" y2="788.54"/>
        <path class="cls-9" d="M714.59,748.35s-2.47,10.16-.23,16.31c2.24,6.15-1.68,19-1.68,19"/>
        <path class="cls-9" d="M721.72,749.38s-.9,18.9,1.35,33.31"/>
        <path class="cls-9" d="M732.07,750.29s2.7,6.3-.9,13.5c-3.6,7.2-.9,20.25-.9,20.25"/>
        <path class="cls-9" d="M737.02,781.34s-3.6-19.35,.45-30.61"/>
        <line class="cls-9" x1="741.52" y1="751.19" x2="741.07" y2="784.04"/>
        <path class="cls-9" d="M748.35,749.7s-2.47,10.16-.23,16.31c2.24,6.15-1.68,19-1.68,19"/>
        <path class="cls-9" d="M755.47,750.74s-.9,18.9,1.35,33.31"/>
        <path class="cls-9" d="M765.83,751.64s2.7,6.3-.9,13.5c-3.6,7.2-.9,20.25-.9,20.25"/>
        <path class="cls-9" d="M770.78,782.69s-3.6-19.35,.45-30.61"/>
        <line class="cls-9" x1="775.28" y1="752.54" x2="774.83" y2="785.39"/>
        <path class="cls-9" d="M782.11,751.95s-2.47,10.16-.23,16.31-1.68,19-1.68,19"/>
        <path class="cls-9" d="M789.23,752.99s-.9,18.9,1.35,33.31"/>
        <path class="cls-9" d="M799.58,753.89s2.7,6.3-.9,13.5c-3.6,7.2-.9,20.25-.9,20.25"/>
        <path class="cls-9" d="M804.54,784.94s-3.6-19.35,.45-30.61"/>
        <line class="cls-9" x1="809.04" y1="754.79" x2="808.59" y2="787.64"/>
        <path class="cls-9" d="M814.51,760.05s-2.47,10.16-.23,16.31-1.68,19-1.68,19"/>
        <path class="cls-9" d="M821.64,761.09s-.9,18.9,1.35,33.31"/>
        <path class="cls-9" d="M831.99,761.99s2.7,6.3-.9,13.5c-3.6,7.2-.9,20.25-.9,20.25"/>
        <path class="cls-9" d="M836.94,793.05s-3.6-19.35,.45-30.61"/>
        <line class="cls-9" x1="841.44" y1="762.89" x2="840.99" y2="795.75"/>
        <path class="cls-9" d="M846.92,765.01s-2.47,10.16-.23,16.31c2.24,6.15-1.68,19-1.68,19"/>
        <path class="cls-9" d="M854.05,766.04s-.9,18.9,1.35,33.31"/>
        <path class="cls-9" d="M864.4,766.94s2.7,6.3-.9,13.5c-3.6,7.2-.9,20.25-.9,20.25"/>
        <path class="cls-9" d="M869.35,798s-3.6-19.35,.45-30.61"/>
        <line class="cls-9" x1="873.85" y1="767.84" x2="873.4" y2="800.7"/>
        <path class="cls-9" d="M879.33,768.16s-2.47,10.16-.23,16.31-1.68,19-1.68,19"/>
        <path class="cls-9" d="M886.45,769.19s-.9,18.9,1.35,33.31"/>
        <path class="cls-9" d="M896.81,770.09s2.7,6.3-.9,13.5c-3.6,7.2-.9,20.25-.9,20.25"/>
        <path class="cls-9" d="M901.76,801.15s-3.6-19.35,.45-30.61"/>
        <line class="cls-9" x1="906.26" y1="770.99" x2="905.81" y2="803.85"/>
        <path class="cls-9" d="M912.64,771.76s-2.47,10.16-.23,16.31-1.68,19-1.68,19"/>
        <path class="cls-9" d="M919.76,772.79s-.9,18.9,1.35,33.31"/>
        <path class="cls-9" d="M930.11,773.69s2.7,6.3-.9,13.5c-3.6,7.2-.9,20.25-.9,20.25"/>
        <path class="cls-9" d="M935.07,804.75s-3.6-19.35,.45-30.61"/>
        <line class="cls-9" x1="939.57" y1="774.59" x2="939.12" y2="807.45"/>
        <path class="cls-9" d="M946.4,770.41s-2.47,10.16-.23,16.31c2.24,6.15-1.68,19-1.68,19"/>
        <path class="cls-9" d="M953.52,771.44s-.9,18.9,1.35,33.31"/>
        <path class="cls-9" d="M963.87,772.34s2.7,6.3-.9,13.5c-3.6,7.2-.9,20.25-.9,20.25"/>
        <path class="cls-9" d="M968.82,803.4s-3.6-19.35,.45-30.61"/>
        <line class="cls-9" x1="973.33" y1="773.24" x2="972.88" y2="806.1"/>
        <path class="cls-9" d="M980.15,766.36s-2.47,10.16-.23,16.31-1.68,19-1.68,19"/>
        <path class="cls-9" d="M987.28,767.39s-.9,18.9,1.35,33.31"/>
        <path class="cls-9" d="M997.63,768.29s2.7,6.3-.9,13.5c-3.6,7.2-.9,20.25-.9,20.25"/>
        <path class="cls-9" d="M1002.58,799.35s-3.6-19.35,.45-30.61"/>
        <line class="cls-9" x1="1007.08" y1="769.19" x2="1006.63" y2="802.05"/>
        <path class="cls-9" d="M1011.66,756s-2.47,10.16-.23,16.31c2.24,6.15-1.68,19-1.68,19"/>
        <path class="cls-9" d="M1018.79,757.04s-.9,18.9,1.35,33.31"/>
        <path class="cls-9" d="M1029.14,757.94s2.7,6.3-.9,13.5-.9,20.25-.9,20.25"/>
        <path class="cls-9" d="M1034.09,788.99s-3.6-19.35,.45-30.61"/>
        <line class="cls-9" x1="1038.59" y1="758.84" x2="1038.14" y2="791.69"/>
        <path class="cls-9" d="M1043.62,749.7s-2.47,10.16-.23,16.31c2.24,6.15-1.68,19-1.68,19"/>
        <path class="cls-9" d="M1050.74,750.74s-.9,18.9,1.35,33.31"/>
        <path class="cls-9" d="M1061.1,751.64s2.7,6.3-.9,13.5c-3.6,7.2-.9,20.25-.9,20.25"/>
        <path class="cls-9" d="M1066.05,782.69s-3.6-19.35,.45-30.61"/>
        <line class="cls-9" x1="1070.55" y1="752.54" x2="1070.1" y2="785.39"/>
        <path class="cls-9" d="M1076.48,746.55s-2.47,10.16-.23,16.31c2.24,6.15-1.68,19-1.68,19"/>
        <path class="cls-9" d="M1083.6,747.58s-.9,18.9,1.35,33.31"/>
        <path class="cls-9" d="M1093.95,748.48s2.7,6.3-.9,13.5c-3.6,7.2-.9,20.25-.9,20.25"/>
        <path class="cls-9" d="M1098.91,779.54s-3.6-19.35,.45-30.61"/>
        <line class="cls-9" x1="1103.41" y1="749.38" x2="1102.96" y2="782.24"/>
        <path class="cls-9" d="M1109.33,746.55s-2.47,10.16-.23,16.31c2.24,6.15-1.68,19-1.68,19"/>
        <path class="cls-9" d="M1116.46,747.58s-.9,18.9,1.35,33.31"/>
        <path class="cls-9" d="M1126.81,748.48s2.7,6.3-.9,13.5c-3.6,7.2-.9,20.25-.9,20.25"/>
        <path class="cls-9" d="M1131.76,779.54s-3.6-19.35,.45-30.61"/>
        <line class="cls-9" x1="1136.26" y1="749.38" x2="1135.81" y2="782.24"/>
        <path class="cls-9" d="M1142.64,748.35s-2.47,10.16-.23,16.31c2.24,6.15-1.68,19-1.68,19"/>
        <path class="cls-9" d="M1149.77,749.38s-.9,18.9,1.35,33.31"/>
        <path class="cls-9" d="M1160.12,750.29s2.7,6.3-.9,13.5c-3.6,7.2-.9,20.25-.9,20.25"/>
        <path class="cls-9" d="M1165.07,781.34s-3.6-19.35,.45-30.61"/>
        <line class="cls-9" x1="1169.57" y1="751.19" x2="1169.12" y2="784.04"/>
        <path class="cls-9" d="M1175.05,751.95s-2.47,10.16-.23,16.31c2.24,6.15-1.68,19-1.68,19"/>
        <path class="cls-9" d="M1182.17,752.99s-.9,18.9,1.35,33.31"/>
        <path class="cls-9" d="M1192.53,753.89s2.7,6.3-.9,13.5c-3.6,7.2-.9,20.25-.9,20.25"/>
        <path class="cls-9" d="M1197.48,784.94s-3.6-19.35,.45-30.61"/>
        <line class="cls-9" x1="1201.98" y1="754.79" x2="1201.53" y2="787.64"/>
        <path class="cls-9" d="M1209.26,757.8s-2.47,10.16-.23,16.31c2.24,6.15-1.68,19-1.68,19"/>
        <path class="cls-9" d="M1216.38,758.84s-.9,18.9,1.35,33.31"/>
        <path class="cls-9" d="M1226.74,759.74s2.7,6.3-.9,13.5c-3.6,7.2-.9,20.25-.9,20.25"/>
        <path class="cls-9" d="M1231.69,790.79s-3.6-19.35,.45-30.61"/>
        <line class="cls-9" x1="1236.19" y1="760.64" x2="1235.74" y2="793.5"/>
        <path class="cls-9" d="M1242.12,764.56s-2.47,10.16-.23,16.31-1.68,19-1.68,19"/>
        <path class="cls-9" d="M1249.24,765.59s-.9,18.9,1.35,33.31"/>
        <path class="cls-9" d="M1259.59,766.49s2.7,6.3-.9,13.5c-3.6,7.2-.9,20.25-.9,20.25"/>
        <path class="cls-9" d="M1264.54,797.55s-3.6-19.35,.45-30.61"/>
        <line class="cls-9" x1="1269.05" y1="767.39" x2="1268.6" y2="800.25"/>
        <path class="cls-9" d="M1277.22,765.91s-2.47,10.16-.23,16.31c2.24,6.15-1.68,19-1.68,19"/>
        <path class="cls-9" d="M1284.35,766.94s-.9,18.9,1.35,33.31"/>
        <path class="cls-9" d="M1294.7,767.84s2.7,6.3-.9,13.5c-3.6,7.2-.9,20.25-.9,20.25"/>
        <path class="cls-9" d="M1299.65,798.9s-3.6-19.35,.45-30.61"/>
        <line class="cls-9" x1="1304.15" y1="768.74" x2="1303.7" y2="801.6"/>
        <path class="cls-9" d="M1308.73,759.6s-2.47,10.16-.23,16.31c2.24,6.15-1.68,19-1.68,19"/>
        <path class="cls-9" d="M1315.86,760.64s-.9,18.9,1.35,33.31"/>
        <path class="cls-9" d="M1326.21,761.54s2.7,6.3-.9,13.5c-3.6,7.2-.9,20.25-.9,20.25"/>
        <path class="cls-9" d="M1331.16,792.6s-3.6-19.35,.45-30.61"/>
        <path class="cls-9" d="M35.83,765.01s-2.47,10.16-.23,16.31c2.24,6.15-1.68,19-1.68,19"/>
        <path class="cls-9" d="M42.95,766.04s-.9,18.9,1.35,33.31"/>
        <path class="cls-9" d="M53.31,766.94s2.7,6.3-.9,13.5c-3.6,7.2-.9,20.25-.9,20.25"/>
        <path class="cls-9" d="M58.26,798s-3.6-19.35,.45-30.61"/>
        <line class="cls-9" x1="62.76" y1="767.84" x2="62.31" y2="800.7"/>
        <path class="cls-9" d="M70.49,766.36s-2.47,10.16-.23,16.31c2.24,6.15-1.68,19-1.68,19"/>
        <path class="cls-9" d="M77.61,767.39s-.9,18.9,1.35,33.31"/>
        <path class="cls-9" d="M87.97,768.29s2.7,6.3-.9,13.5c-3.6,7.2-.9,20.25-.9,20.25"/>
        <path class="cls-9" d="M92.92,799.35s-3.6-19.35,.45-30.61"/>
        <line class="cls-9" x1="97.42" y1="769.19" x2="96.97" y2="802.05"/>
      </g>
      <path class="cls-41" d="M1331.99,762.76v-115.39H2.52v115.39s123.94,13.83,213.08,2.11c0,0,121.97-11.73,201.72,0,0,0,161.84,23.46,269.74-7.04,0,0,91.48-14.07,124.31,2.35,0,0,130.33,42.88,232.21-4.69,0,0,82.09-14.07,143.08,0,0,0,49.09,33.32,145.34,7.28Z"/>
      <line class="cls-13" x1="215.6" y1="764.86" x2="215.6" y2="692.05"/>
      <line class="cls-13" x1="417.31" y1="764.86" x2="417.31" y2="712.77"/>
      <line class="cls-13" x1="687.05" y1="757.82" x2="687.05" y2="694.67"/>
      <line class="cls-13" x1="811.36" y1="760.17" x2="811.36" y2="696.79"/>
      <line class="cls-13" x1="1043.57" y1="755.48" x2="1043.57" y2="690.41"/>
      <line class="cls-13" x1="1186.65" y1="755.48" x2="1186.65" y2="696.79"/>
      <line class="cls-6" x1="2.33" y1="659.89" x2="1332.02" y2="659.89"/>
      <line class="cls-6" x1="2.33" y1="667.82" x2="1332.02" y2="667.82"/>
      <g class="cls-54">
        <g>
          <line class="cls-9" x1="2.33" y1="663.91" x2="3.83" y2="663.91"/>
          <line class="cls-3" x1="6.82" y1="663.91" x2="1329.03" y2="663.91"/>
          <line class="cls-9" x1="1330.52" y1="663.91" x2="1332.02" y2="663.91"/>
        </g>
      </g>
    </g>
  </g>
  <g class="cls-52">
    <g>
      <path class="cls-38" d="M1247.82,839.15s7.6,24.07,8.23,48.14c0,0,5.7,13.3,13.94,21.54,8.23,8.23,95.01,103.25,95.01,157.09,0,0,25.97,39.91,55.74,13.3,0,0,9.5-57.64,16.47-54.47,0,0-7.6,35.47-6.33,50.04,1.27,14.57-39.91,34.84-65.88,15.2,0,0-6.97,13.99-26.07,12.82,0,0,5.46,17.54-38.99,8.97,0,0-5.07-10.92,4.68-11.31l-30.41-24.17s-19.49-18.71-5.07-36.65c0,0-8.97-21.05-26.51-19.49l-.39,37.82s6.24,37.43,.39,49.9c0,0-15.98,10.92-29.63-1.56,0,0-17.83-2.63-9.84-7.88,8-5.25,11.49-6,11.49-6,0,0,0-36.48,2.25-41.98,2.25-5.5,5.25-22.49,5.25-22.49,0,0-3-24.24-6.5-28.73,0,0-24.69-24.83-20.79-66.18,3.9-41.35,7.41-74.12,7.41-74.12"/>
      <path class="cls-38" d="M1250.64,834.92c-3.37-8.23-11.92-11.19-11.92-11.19,0,0-29.37-11.2-37.33,4.62-7.96,15.82-19.3,15.84-19.3,15.84,0,0-17.92,3.01-20.99,18.56-3.07,15.55,16.95,22.82,16.95,22.82,24.75,16.35,47.76,5.18,65.92-4.29,0,0,8.36-8.3,8.36-12.81s8.05-2.25,4.83,7.72-14.16,31.86-4.18,24.46c9.98-7.4,27.04-21.56,18.02-40.88s-21.59-25.13-21.59-25.13"/>
      <ellipse class="cls-42" cx="1219.25" cy="858.23" rx="5.12" ry="3.41" transform="translate(-153.63 1439.9) rotate(-58.1)"/>
      <ellipse class="cls-42" cx="1197.11" cy="842.41" rx="5.12" ry="3.41" transform="translate(-150.63 1413.64) rotate(-58.1)"/>
      <path class="cls-24" d="M1187.16,859.51s18.17,1.26,27.8-12.84c0,0,12.08-10.32,28.99-6.12l5.45-5.9s-3.29-9.96-18.99-12.41c0,0-11.21,4.68-20.3,18.83-9.09,14.15-35.92,10.66-35.92,10.66l12.96,7.78Z"/>
      <path class="cls-42" d="M1185.88,856.55s-6.85-6.15-12.42-6.79-5.63,9.05-5.63,9.05c0,0-2.16,9.02,11.66,8.51,13.82-.51,6.39-10.78,6.39-10.78Z"/>
      <path class="cls-5" d="M1179.92,885.3s18.73,8.26,33.09-.13"/>
      <path class="cls-42" d="M1200.85,893.92c23.23,1.8,39.88-10.76,39.88-10.76l-.22,4.93s-19.53,10.29-38.56,6.06"/>
      <circle class="cls-24" cx="1221.44" cy="857.9" r="1.48"/>
      <circle class="cls-24" cx="1198.79" cy="842.83" r="1.48"/>
      <path class="cls-4" d="M1426.78,1033.49c-7.06-5.87-10.85-12.23-8.75-15.45,2.57-3.92,12.91-1.69,23.09,4.99,10.19,6.67,16.37,15.26,13.8,19.18-2.14,3.27-9.68,2.26-18.03-2.03"/>
      <path class="cls-4" d="M1423,1034.84c-9.35-7.86-14.25-16.52-11.3-21.03,3.6-5.49,17.49-2.76,31.03,6.11,13.54,8.87,21.6,20.51,18,26-3,4.58-13.15,3.44-24.28-2.2"/>
      <path class="cls-15" d="M1269.15,1039.65s28.79-24.37,77.65,1.35"/>
      <path class="cls-15" d="M1304.62,1100.46s8.02-3.74,15.36-2"/>
      <line class="cls-15" x1="1338.93" y1="1102.8" x2="1313.44" y2="1080.26"/>
      <path class="cls-15" d="M1213.01,1106.31s-3.69-10.05,7.98-10.05,7.05-22.6,7.05-22.6l-5.87-45.69"/>
      <path class="cls-15" d="M1242.64,1020.15l-.87-29.57s7.95-9.27,7.95-20.39"/>
      <path class="cls-4" d="M1414.19,1007.35s9.02-2.41,17.04,2.41"/>
      <path class="cls-4" d="M1444.25,1049.65s12.43,4.61,17.44-.2"/>
    </g>
  </g>
  <g>
    <path class="cls-45" d="M568.71,613.41s7.92,22.74,16.67,33.25c0,0,5.77,.27,66,.27,0,0,11.21-16.83,14.15-33.52"/>
    <ellipse class="cls-24" cx="617.12" cy="613.17" rx="48.41" ry="6.96"/>
    <polygon class="cls-40" points="599.8 601.56 592.04 614.85 636.13 617.73 599.8 601.56"/>
    <path class="cls-25" d="M591.93,619.28l.11-4.43,44.08,2.88-.11,1.88s-25.03,1.99-44.08-.33Z"/>
  </g>
  <g>
    <path class="cls-45" d="M1081.44,613.56s7.92,22.74,16.67,33.25c0,0,5.47,.27,65.7,.27,0,0,11.51-16.83,14.45-33.52"/>
    <ellipse class="cls-24" cx="1129.85" cy="613.32" rx="48.41" ry="6.96"/>
    <polygon class="cls-40" points="1112.53 601.71 1104.78 615 1148.86 617.88 1112.53 601.71"/>
    <path class="cls-25" d="M1104.67,619.43l.11-4.43,44.08,2.88-.11,1.88s-25.03,1.99-44.08-.33Z"/>
  </g>
</svg>