<?xml version="1.0" encoding="UTF-8"?>
<svg xmlns="http://www.w3.org/2000/svg" xmlns:xlink="http://www.w3.org/1999/xlink" viewBox="0 0 1693.15 999.74">
  <defs>
    <style>
      .cls-1, .cls-2, .cls-3, .cls-4, .cls-5, .cls-6, .cls-7, .cls-8, .cls-9, .cls-10, .cls-11, .cls-12, .cls-13, .cls-14, .cls-15, .cls-16 {
        fill: none;
      }

      .cls-2 {
        stroke: #75308e;
        stroke-width: 1.5px;
      }

      .cls-2, .cls-3, .cls-17, .cls-18, .cls-19, .cls-4, .cls-20, .cls-21, .cls-22, .cls-5, .cls-23, .cls-24, .cls-25, .cls-26, .cls-27, .cls-6, .cls-7, .cls-8, .cls-9, .cls-10, .cls-11, .cls-12, .cls-13, .cls-14, .cls-15, .cls-16 {
        stroke-miterlimit: 10;
      }

      .cls-28 {
        fill: url(#linear-gradient);
      }

      .cls-29 {
        clip-path: url(#clippath);
      }

      .cls-3 {
        stroke-width: .8px;
      }

      .cls-3, .cls-20, .cls-21, .cls-5, .cls-15 {
        stroke: #754c29;
      }

      .cls-17 {
        stroke: #6d6e71;
        stroke-width: .3px;
      }

      .cls-17, .cls-30, .cls-19, .cls-22, .cls-25, .cls-27 {
        fill: #fff;
      }

      .cls-31 {
        fill: #f8c184;
      }

      .cls-32 {
        fill: #006087;
      }

      .cls-33, .cls-23 {
        fill: #006386;
      }

      .cls-34 {
        fill: #00628a;
      }

      .cls-35, .cls-24 {
        fill: #0098bd;
      }

      .cls-36, .cls-26 {
        fill: #f15953;
      }

      .cls-37 {
        fill: #f6c463;
      }

      .cls-38 {
        fill: #fff200;
      }

      .cls-39 {
        fill: #ffcb05;
      }

      .cls-40 {
        fill: #feec7f;
      }

      .cls-41 {
        fill: #fdf9ce;
      }

      .cls-42 {
        fill: #803435;
      }

      .cls-43 {
        fill: #98d9e9;
      }

      .cls-44 {
        fill: #9a6c3f;
      }

      .cls-45 {
        fill: #9ecb54;
      }

      .cls-46 {
        fill: #8b5e3c;
      }

      .cls-47 {
        fill: #9054a2;
      }

      .cls-48 {
        fill: #301c12;
      }

      .cls-49, .cls-21 {
        fill: #be9e7d;
      }

      .cls-50 {
        fill: #be8c8c;
      }

      .cls-51 {
        fill: #bde4e0;
      }

      .cls-52 {
        fill: #dad0c1;
      }

      .cls-53 {
        fill: #bf6b6b;
      }

      .cls-54 {
        fill: #c4dd82;
      }

      .cls-55 {
        fill: #d1d3d4;
      }

      .cls-56 {
        fill: #d5b79f;
      }

      .cls-57, .cls-20 {
        fill: #dcbf97;
      }

      .cls-58 {
        fill: #db7777;
      }

      .cls-59 {
        fill: #e2ae6d;
      }

      .cls-60 {
        fill: #134a7e;
      }

      .cls-61 {
        fill: #231f20;
      }

      .cls-62 {
        fill: #414042;
      }

      .cls-63 {
        fill: #0f3e5d;
      }

      .cls-64 {
        fill: #95b3b0;
      }

      .cls-65 {
        fill: #6ca442;
      }

      .cls-66 {
        fill: #808285;
      }

      .cls-67 {
        fill: #288348;
      }

      .cls-68 {
        fill: #288649;
      }

      .cls-69 {
        fill: #3c2415;
      }

      .cls-70 {
        fill: #3ba05e;
      }

      .cls-71 {
        fill: #3aa362;
      }

      .cls-72 {
        fill: #754c29;
      }

      .cls-73 {
        fill: #26130f;
      }

      .cls-18 {
        fill: #bd9154;
        stroke: #006838;
        stroke-width: 2px;
      }

      .cls-19, .cls-23, .cls-6, .cls-10 {
        stroke: #fff;
      }

      .cls-19, .cls-6 {
        stroke-linecap: round;
        stroke-width: 4px;
      }

      .cls-74 {
        clip-path: url(#clippath-1);
      }

      .cls-4 {
        stroke-width: .7px;
      }

      .cls-4, .cls-8, .cls-13 {
        stroke: #231f20;
      }

      .cls-20, .cls-21, .cls-13, .cls-14, .cls-15, .cls-16 {
        stroke-width: .5px;
      }

      .cls-22 {
        stroke: #9a6c3f;
        stroke-width: 8px;
      }

      .cls-5 {
        stroke-width: 10px;
      }

      .cls-24 {
        stroke: #196bac;
      }

      .cls-25 {
        stroke: #808285;
      }

      .cls-26 {
        stroke: #be1e2d;
      }

      .cls-27 {
        stroke: #662d91;
      }

      .cls-7 {
        stroke-width: .2px;
      }

      .cls-7, .cls-16 {
        stroke: #a97c50;
      }

      .cls-75 {
        fill: url(#linear-gradient-2);
      }

      .cls-9 {
        stroke: #fbb040;
      }

      .cls-11 {
        stroke: #ed1c24;
      }

      .cls-12 {
        stroke: #a579b5;
      }

      .cls-14 {
        stroke: #603913;
      }
    </style>
    <clipPath id="clippath">
      <rect class="cls-1" x="319.06" y="398.79" width="652.05" height="475.25"/>
    </clipPath>
    <linearGradient id="linear-gradient" x1="525.45" y1="423.23" x2="525.45" y2="415.26" gradientTransform="translate(-74.52 65.7) rotate(-10.92)" gradientUnits="userSpaceOnUse">
      <stop offset="0" stop-color="#a97c50"/>
      <stop offset="1" stop-color="#fff" stop-opacity="0"/>
    </linearGradient>
    <linearGradient id="linear-gradient-2" x1="565.38" y1="423.46" x2="565.38" y2="416.23" xlink:href="#linear-gradient"/>
    <clipPath id="clippath-1">
      <rect class="cls-1" x="1326.73" y="194.48" width="325.47" height="682.83"/>
    </clipPath>
  </defs>
  <g id="fondo">
    <rect class="cls-51" x="319.54" width="1333.22" height="887.75"/>
    <rect class="cls-59" x="319.54" y="871.91" width="1333.06" height="127.84"/>
    <g>
      <path class="cls-65" d="M1072,605.96s-30.89-29.72-13.95-72.88c16.94-43.16,61.91-58.34,61.91-58.34,0,0-11.55,28.84-9.69,49.49,1.86,20.65-13.2,74.72-38.27,81.73Z"/>
      <path class="cls-70" d="M1083.75,694.39s5.56-44.99,52.83-58.02c47.27-13.03,88.63,15.41,88.63,15.41,0,0-31.73,8.51-48.03,23.18-16.3,14.67-71.61,36.21-93.43,19.44Z"/>
      <path class="cls-67" d="M1050.65,707.13s22.96-39.09,71.52-32.28c48.56,6.8,75.23,49.32,75.23,49.32,0,0-32.5-4.78-53.29,2.21-20.79,6.99-80.1,4.81-93.47-19.25Z"/>
      <path class="cls-68" d="M1070.54,696.86s11.28-38.02-22.06-65.01c-33.35-26.99-76.46-18.66-76.46-18.66,0,0,22.46,17.93,30.4,35.39,7.94,17.47,44.75,54.09,68.12,48.28Z"/>
      <path class="cls-71" d="M982.6,555s40.52-10.12,73.94,30.84c33.42,40.96,10.34,51.72,10.34,51.72,0,0-78.22-34.74-84.28-82.56Z"/>
      <line class="cls-18" x1="1068.32" y1="746.79" x2="1068.32" y2="716.74"/>
      <path class="cls-67" d="M1077.08,673.1s-22.86-36.26,3.94-74.1c26.8-37.84,74.1-41.78,74.1-41.78,0,0-18.13,25.23-21.28,45.72-3.15,20.5-30.74,69.37-56.76,70.16Z"/>
      <path class="cls-65" d="M1068.27,711.61s-5.56-44.99-52.83-58.02c-47.27-13.03-88.63,15.41-88.63,15.41,0,0,31.73,8.51,48.03,23.18,16.3,14.67,71.61,36.21,93.43,19.44Z"/>
      <path class="cls-70" d="M1072.92,703.46s-28.87-34.95-75.74-20.52c-46.87,14.42-66.45,60.64-66.45,60.64,0,0,31.33-9.88,52.96-6.28,21.63,3.6,79.85-7.97,89.23-33.84Z"/>
      <path class="cls-45" d="M1124.48,614.72s-41.62,3.37-60.19,52.87c-18.56,49.5,6.75,52.31,6.75,52.31,0,0,63-57.94,53.44-105.18Z"/>
      <path class="cls-54" d="M1031,540.06s-2.19,42.71,38.87,76.1c0,0,26.28-10.95-3.29-53.66,0,0-14.78-20.26-35.59-22.45Z"/>
      <path class="cls-31" d="M995.78,743.98h148.05s5.14,81.22-26.73,129.54h-89.45s-32.9-27.76-31.87-129.54Z"/>
      <path class="cls-30" d="M998.86,801.24s1.58,12.63,4.74,20.53c0,0,63.7,17.9,133.19,0,0,0,2.11-6.32,4.21-21.58,0,0-68.96,16.32-142.14,1.05Z"/>
      <path class="cls-30" d="M997.98,788.44s-.27,5.44,.82,6.8c0,0,73.4,18.44,142.89,.54,0,0-1.29,8.74,.82-6.53,0,0-73.21,19.6-144.52-.82Z"/>
    </g>
    <rect class="cls-1" x="923.7" y="476.77" width="190.22" height="395.14"/>
    <g>
      <rect class="cls-22" x="382.06" y="194.23" width="134.46" height="101.42"/>
      <rect class="cls-34" x="393.82" y="205.44" width="109.82" height="78.44"/>
    </g>
    <g>
      <rect class="cls-44" x="904.88" y="241.37" width="177.51" height="17.5"/>
      <rect class="cls-44" x="914.33" y="258.4" width="10.18" height="34.5"/>
      <rect class="cls-44" x="1065.37" y="258.4" width="10.18" height="34.5"/>
      <path class="cls-36" d="M987.98,133.23v108.22h-19.17v-108.22s9.78-5.34,19.17,0Z"/>
      <path class="cls-71" d="M1006.87,139.64v101.81h-19.17v-101.81s9.78-5.03,19.17,0Z"/>
      <path class="cls-33" d="M949.94,149.99v91.46h-19.17v-91.46s9.78-4.52,19.17,0Z"/>
      <path class="cls-43" d="M1040.72,155.47l17.1,83.59-12.84,2.63-17.1-83.59s5.7-5.47,12.84-2.63Z"/>
      <path class="cls-39" d="M1029.38,148.84v92.61h-22.56v-92.61s11.51-4.57,22.56,0Z"/>
      <path class="cls-11" d="M1014.96,155.15h5.29s-1.1,6.39,4.02,6.57v70.27s-4.38-.37-3.65,5.84h-5.11s1.28-5.29-3.65-5.84v-70.64s4.02,.55,3.1-6.21Z"/>
      <line class="cls-11" x1="1016.05" y1="165.01" x2="1016.05" y2="227.62"/>
      <line class="cls-11" x1="1019.88" y1="165.01" x2="1019.88" y2="227.62"/>
      <polygon class="cls-11" points="1036.54 169.21 1033.46 179.3 1039.84 186.51 1043.13 177.03 1036.54 169.21"/>
      <polygon class="cls-11" points="1046.02 212.04 1042.93 222.13 1049.31 229.34 1052.61 219.87 1046.02 212.04"/>
      <line class="cls-10" x1="970.61" y1="143.7" x2="985.33" y2="143.7"/>
      <line class="cls-10" x1="970.61" y1="231.51" x2="985.33" y2="231.51"/>
      <line class="cls-10" x1="970.61" y1="186.4" x2="985.33" y2="186.4"/>
      <path class="cls-36" d="M968.37,133.23v108.22h-19.17v-108.22s9.78-5.34,19.17,0Z"/>
      <line class="cls-10" x1="951" y1="143.7" x2="965.72" y2="143.7"/>
      <line class="cls-10" x1="951" y1="231.51" x2="965.72" y2="231.51"/>
      <line class="cls-10" x1="951" y1="186.4" x2="965.72" y2="186.4"/>
      <circle class="cls-30" cx="996.7" cy="152" r="2.2"/>
      <circle class="cls-30" cx="996.7" cy="230.77" r="2.2"/>
      <line class="cls-23" x1="939.13" y1="154.26" x2="939.13" y2="235.79"/>
    </g>
    <rect class="cls-64" x="1322.73" y="120.3" width="329.76" height="690.66"/>
    <rect class="cls-59" x="1326.99" y="810.96" width="325.5" height="61.8"/>
    <polyline class="cls-5" points="1652.49 120.3 1322.73 120.3 1322.73 873.48"/>
    <g class="cls-29">
      <g>
        <rect class="cls-32" x="102.01" y="740.14" width="754.73" height="23.09"/>
        <path class="cls-35" d="M124.88,430.89H446.47c19.72,0,35.74,16.01,35.74,35.74v194.29c0,.21-.17,.38-.38,.38H124.88c-19.72,0-35.74-16.01-35.74-35.74v-158.93c0-19.72,16.01-35.74,35.74-35.74Z"/>
        <rect class="cls-35" x="117.65" y="756.45" width="726.96" height="73.05" rx="15.96" ry="15.96"/>
        <path class="cls-72" d="M69.69,871.71h-21.57c-7.41,0-13.99-4.74-16.33-11.77l-8.87-26.61H98.4l-14.93,29.87c-2.61,5.22-7.94,8.51-13.77,8.51Z"/>
        <path class="cls-35" d="M517.81,430.89h357.25s.08,.03,.08,.08v194.59c0,19.72-16.01,35.74-35.74,35.74h-321.6c-19.72,0-35.74-16.01-35.74-35.74v-158.93c0-19.72,16.01-35.74,35.74-35.74Z" transform="translate(1357.21 1092.19) rotate(-180)"/>
        <path class="cls-72" d="M894.59,871.71h21.57c7.41,0,13.99-4.74,16.33-11.77l8.87-26.61h-75.48s14.93,29.87,14.93,29.87c2.61,5.22,7.94,8.51,13.77,8.51Z"/>
        <rect class="cls-24" x="838.65" y="562.66" width="123.64" height="270.76" rx="35.2" ry="35.2"/>
        <rect class="cls-24" x=".5" y="562.66" width="123.64" height="270.76" rx="35.2" ry="35.2" transform="translate(124.64 1396.08) rotate(-180)"/>
        <rect class="cls-24" x="117.65" y="649.91" width="364.56" height="107.78" rx="15.96" ry="15.96"/>
        <rect class="cls-24" x="482.07" y="649.91" width="364.56" height="107.78" rx="15.96" ry="15.96" transform="translate(1328.71 1407.59) rotate(-180)"/>
        <line class="cls-24" x1="482.07" y1="466.63" x2="482.07" y2="665.87"/>
      </g>
    </g>
  </g>
  <g id="Layer_1" data-name="Layer 1">
    <g>
      <path class="cls-57" d="M448.51,439.5c-17.75-17.36-49.13-33.5-49.13-33.5l17.46-43.5c1.24-3.44,2.47-4.29,2.47-4.29,5.74,2.61,24.27-7.48,29.65-9.11,5.38-1.63,7.28-6.95,2.55-8.3-2.14-.61-9.11,4.79-11.95,2.71s-.59-6.79-.59-6.79c0,0,22.55-24.83,16.32-28.44-6.23-3.61-16.19,15.56-16.19,15.56,0,0-1.27-6.59-6.31-5.06,0,0-2.77-4.3-6.8-3.07,0,0-4.73-5.9-10.3-1.28s-13.63,27.62-13.63,27.62c0,0-.49,4.02-5.69,9.07-2.57,2.49-40.37,59.22-40.37,59.22,0,0-11.05,14.36,.08,25.66,11.14,11.3,60.08,45.61,60.08,45.61"/>
      <path class="cls-57" d="M601.63,425.96l18.02-43.66-17.13-61.44-1.64-2.45s-8.7-.08-18.56-3.99c0,0-5.28-1-8.12,.88s-4.83-1.46-4.83-1.46c0,0,.24-5.61,8.94-6.84l7.42,.1s4.42-.18,1.99-4.58c-2.43-4.4-15.76-15.68-15.76-15.68,0,0-6.49-5.19-3.7-8.73s8.79,4,8.79,4l8.37,8.02s4.05,2.68,3.03-1.24l-9.94-9.72s-8.57-5.83-4.72-8.87,9.13,4.55,9.13,4.55l10.7,9.09s1.36-.25-.52-2.14-8.73-8-8.73-8c0,0-4.8-2.99-1.79-5.53s8.16,3.25,8.16,3.25l10.42,10.2-6.06-8.27s-2.8-3.42-.15-5c2.64-1.58,8.46,4.39,8.46,4.39,0,0,4.59,8.01,8.11,11.38,3.52,3.37,10.23,15.58,9.63,23.11l1.24,9.97s34.75,42.83,39.74,84.63c0,0-11.58,38.46-22.84,53.78"/>
      <path class="cls-15" d="M588.79,290.51s3.75-6.49,12.34-8.8"/>
      <path class="cls-15" d="M587.19,307.21s6.08-4.09,12.92-2.98"/>
      <path class="cls-73" d="M454.16,486.22s-3.14-3.02-1.69-9.69c0,0-6.85-4.31-2.5-11.95,0,0-5.9-7.41,1.06-13.61,0,0-4.85-7.36-1.19-12.2,0,0-3.22-7.61,1.27-10.54,0,0-2.69-5.88,2.55-9.65,0,0-5.28-7.51,1.11-10.12,0,0-4.08-4.49,.28-8.09,0,0-6.66-2.39-3.91-9.57,0,0-4.89-2.73-1.36-8.23,0,0-5.06-3.61-.25-8.44,0,0-3.32-6.48,1.92-9.09,0,0-1.58-8.19,4.84-9.43,0,0,.48-7.1,6.79-7.68,0,0-3.27-8.6,4.71-12.44,0,0-.64-10.44,9.27-11.43,0,0,8.38-10.11,18.93-8.93,0,0,10.3-6.12,18.72-2.92,0,0,5.91-4.35,14.39-.59,0,0,7.73-3.68,13.67,.92,0,0,9.33-.42,12.24,6.36,0,0,6.49,.35,7.46,7.74,0,0,6.8,.75,4.76,8.03,0,0,5.6,1.67,3.21,8.33,0,0,5.79,6.12,2.92,13.27,0,0,8,6.43,5.33,15.21,0,0,4.54,2.11,2.86,8.86,0,0,3.94,4.98,1.2,12.16,0,0,5.42,3.53,2.25,10.69,0,0,6.22,4.66,4.5,10.04,0,0,5,5.69-.11,10.12,0,0,3.39,8.07-1.43,9.23,0,0,4.33,6.97-3.65,10.8,0,0-20.2,33.28-51.87,29.75-31.67-3.53-78.28,13.09-78.28,13.09Z"/>
      <path class="cls-57" d="M596.04,594.5l3.97,14.97s-55,58.59-139.15,7.89l-2.98-22.86s76.87,29.82,138.16,0Z"/>
      <path class="cls-57" d="M564.06,902.19l-3.32,14.41s-21.42,19.38,34.9,35.24c48.97,13.79,38.48,4.36,38.48,4.36,0,0-12.47-13.42-30.03-27.16,0,0-7.89-11.48-3.98-19.61,3.69-7.65-26.13,5.66-36.05-7.24Z"/>
      <path class="cls-57" d="M503.65,406.19s2.32,23.26-3.94,37.1c0,0-5.73,64.74,46.87,66.38,0,0,39.22-10.57,15.43-61.38,0,0-9.46-3.69-9.67-12.85-.22-9.7-1.59-5.65-1.59-5.65l-47.1-23.6"/>
      <path class="cls-62" d="M533.36,792.01c.09,0-.54-115.45,1.17-108.15,2.53,10.8,33.63,49,38,85.93,5.84,49.39-11.52,65.89-9.93,128.87,.05,1.9-.07-1.56,0,0,.26,5.68,4.88,7.81,5.22,7.93,12.96,4.57,25.77,3.9,38.95-2.07l3.6-2.23s4.02-4.62,33.03-79.59c0,0,14.46-27.76,11.57-50.89,0,0-14.95-85.04-52.72-161.17,0,0-68.92,47.59-162.24-5.38,0,0-30.23,85.73,4.14,149l8.63,28.99s9.23,24.71,5.94,57.44c-1.75,17.45-7.89,58.14,9.64,64.64,0,0,8.4,8.65,3.13,9.5,0,0,19.63,16.43,43.68-.94l2.69-7.56s1.85-1.33,2.09-4.2"/>
      <path class="cls-57" d="M494.58,392.5s2.66-1.05,2.76-5.64c.06-3.03,5.89-2.92,3.94-10.88-.95-3.87,5.65-3.75,2.77-12.92-1.95-6.22,6.96-6.69-.01-21.12,0,0,4.96,4.5,12.01-2.7,2.85-2.91,8.43-2.34,12.77-3.91,0,0,5.57-4.29,10.35-.85,6.58,4.73,10.55,1.68,15.54,5.68,6.42,5.13,11.6,14.59,11.97,31.66,0,0-.42,5.08,1.48,8.53,0,0,5.5,4.77,2.95,19.88-2.55,15.11-9.5,25.02-9.5,25.02,0,0-3.98,6.76-14.65,9.03,0,0-8.25,2.73-19.04-1.49,0,0-25.68-7.6-27.29-22.05,0,0-9.16,9.15-17.24-6.71,0,0-8.77-22.45,11.22-11.5Z"/>
      <path class="cls-58" d="M533.98,409.95s9.9-5.64,15.35-2.96c0,0,2.33-3.57,11.7-2.06,0,0,3.41,12.44-9.61,14.95-14.86,2.87-17.44-9.94-17.44-9.94Z"/>
      <path class="cls-42" d="M536.28,410.91s3.05,7.98,13.37,6.09c10.32-1.89,9.77-10.45,9.77-10.45,0,0-17.13,1.59-23.14,4.36Z"/>
      <path class="cls-73" d="M531.06,369.91s-15.48-1.91-21.35,4.12c0,0,3.62-8.58,21.07-7.68,0,0,3.35,1.7,.27,3.56Z"/>
      <path class="cls-73" d="M565.48,359.59c-.49-.69-7.91,.85-14.34,3.82,0,0-2.48,2.82,1.07,3.41,0,0,11.21-7.11,14.06-3.61,0,0,.43-1.92-.79-3.62Z"/>
      <circle class="cls-73" cx="570.37" cy="376.26" r="2.97"/>
      <path class="cls-30" d="M538.73,410.02s2.9,2.03,10.84,.67c7.32-1.25,8.95-4.08,8.95-4.08,0,0-10.99,.7-19.79,3.41Z"/>
      <path class="cls-4" d="M483.2,398.95s1.84-10.72,12.61,3.87c0,0-7.89-5.84-7.87,.47"/>
      <path class="cls-73" d="M554.38,431.21s-6.6,5.98-20.89,3.42c0,0-7.01-1.23-16.5-6.26,0,0,12.41,9.55,27.85,7.72,0,0,4.73-.27,10.02-3.52,0,0-.46,.18-.49-1.36Z"/>
      <path class="cls-66" d="M553.94,934.17s-.46,2.16-.89,8.4l62.12,20.47s19.13,3.62,22.3-7.01"/>
      <path class="cls-55" d="M559.91,914.63s-7.13,7.98-5.97,19.53l58.63,21.99s16.23,6.62,24.9-.12c8.67-6.74-37.05-34.13-37.05-34.13,0,0-23.34,14.02-40.51-7.28Z"/>
      <path class="cls-66" d="M472.66,958.1s0,2.7,1.08,10.27l79.42,8.64s23.77-.54,24.85-14.05"/>
      <path class="cls-55" d="M474.83,933.25s-6.48,11.35-2.16,24.85l75.64,11.35s21.07,3.78,29.72-6.48c8.64-10.27-52.95-31.34-52.95-31.34,0,0-24.31,22.69-50.25,1.62Z"/>
      <path class="cls-57" d="M474.83,933.25s-.55-12.7-1.37-18.29c0,0,18.66,14.5,41.72-1.05,0,0,.82,13.67,9.9,17.73,0,0-14.18,12.45-25.64,10.82-11.46-1.64-13.62,.43-24.61-9.2Z"/>
      <polyline class="cls-10" points="595.93 921.6 599.73 938.02 612.46 931.02 616.72 949.26"/>
      <polyline class="cls-10" points="622.39 936.9 605.96 940.63 606.7 926.13 588.43 930.25"/>
      <polyline class="cls-10" points="553.25 942.55 536.92 950.1 534.47 934.79 516.3 943.16"/>
      <polyline class="cls-10" points="522.21 932.46 529.84 948.76 541.57 938.63 550.08 956.73"/>
      <ellipse class="cls-38" cx="495.89" cy="409.77" rx="1.58" ry="1.91" transform="translate(-68.65 101.37) rotate(-10.92)"/>
      <path class="cls-4" d="M551.89,386.67s7.69,7.73-2.52,10.78"/>
      <path class="cls-61" d="M471.5,914.83s20.46,15.48,43.68-.94l2.69-7.56s-23.54,17.1-49.5-1.01l3.13,9.5Z"/>
      <path class="cls-61" d="M563.66,905.09s14.76,10.54,38.86,4.77l4.25-5.33s-27.36,4.18-43.97-7.31c0,0-2.31,5.7,.86,7.87Z"/>
      <path class="cls-37" d="M501.22,439.51s27.7,27.12,54.81,4.84c0,0,1.5,2.25,5.98,3.93,0,0-28.84,31.9-63.89-4.13,0,0,2.52-.97,3.1-4.65Z"/>
      <path class="cls-40" d="M453.39,552.7h0l-25.95,100.67s36.59,38.65,62.07,43.57c10.43,2.01,38.29-82.16,38.29-82.16,22.02,.69,46.86-3.71,70.27-19.41,0,0-3.26-24.08-6.12-39.61,0,0-2.53-6.1-.27-16.81,0,0,8.74-43.72,15.67-52.5,0,0,4.84-32.5-45.34-38.17,0,0-29.64,27.24-63.89-4.13,0,0-16.17,7.89-32.64-.07-14.37-6.95-8.66,12.95-19.76,59.54,0,0,4.13,22.97,7.67,49.07"/>
      <path class="cls-28" d="M529.25,380.24s-1.31-5.13-6.47-4.6c0,0-2.23-.22-5.04,3.06-2.8,3.28-4.18,3.73-4.18,3.73,0,0,.7-3.45,2.1-5.39,.98-1.37,3.01-3.19,6.76-3.54,0,0,6.78-1.49,6.84,6.74Z"/>
      <path class="cls-75" d="M566.57,372.56s-3.19-2.77-6.21-3.03c0,0-2.56-.02-4.14,2.33-.98,1.45-1.31,3.66-1.31,3.66,0,0-.5-4.04,.9-5.98,.98-1.37,2.21-2.24,5.95-2.59,0,0,4.44,.16,4.82,5.61Z"/>
      <path class="cls-38" d="M529.25,380.24s-1.71-5.04-7.5-3.52c0,0-2.79,.96-4.53,3.04,0,0-1.16,1.81-3.66,2.67,0,0,2.27-1.61,3.75-3.84,1.39-2.1,4.24-3.32,7.16-3,0,0,3.24-.06,4.78,4.65Z"/>
      <g>
        <path class="cls-30" d="M517.83,381.55s-.08-.31,.1-.63c.57-1.05,1.98-3.08,4.78-3.73,3.14-.73,5.55,1.82,6.38,2.73,.14,.16,.17,.32,.17,.32,0,0,.05,.17-.03,.32-.37,.7-1.66,2.71-4.62,3.44-1.76,.44-4.46,.06-6.56-1.98-.15-.14-.2-.35-.22-.47Z"/>
        <circle class="cls-73" cx="524.43" cy="380.61" r="3.33"/>
        <circle class="cls-30" cx="522.23" cy="380.42" r=".91"/>
        <path class="cls-61" d="M529.25,380.24s-5.49-6.69-11.42,.95c0,0-1.44,1.61-4.27,1.23,0,0,2.41-.89,3.66-2.67s4.4-3.61,7.53-3.3,4.49,3.78,4.49,3.78Z"/>
      </g>
      <path class="cls-38" d="M554.99,375.14s3.76-8.39,10.15-3.22c0,0,.61,.82,1.43,.64,0,0-1.57-.97-2.53-2.12s-4.18-2.02-6.58,.11c-1.85,1.64-2.47,4.59-2.47,4.59Z"/>
      <g>
        <path class="cls-30" d="M554.99,375.74s-.12-.28,0-.6c.38-1.06,1.4-3.15,3.91-4.15,2.81-1.13,5.42,.9,6.32,1.63,.16,.13,.2,.27,.2,.27,0,0,.07,.15,.02,.3-.24,.7-1.16,2.75-3.8,3.86-1.58,.66-4.14,.7-6.38-.9-.16-.11-.24-.3-.28-.4Z"/>
        <circle class="cls-73" cx="560.99" cy="373.91" r="3.12"/>
        <circle class="cls-30" cx="558.85" cy="374.14" r=".87"/>
        <path class="cls-61" d="M554.9,375.56c4.31-8.43,10.53-2.68,10.53-2.68,0,0,.82,.54,1.96-.5,0,0-1.25,.65-2.24-.47-1.01-1.14-3.85-2.77-6.66-1.24-2.81,1.54-3.58,4.89-3.58,4.89Z"/>
      </g>
      <path class="cls-16" d="M527.8,614.78s51.84-101.67,66.16-148.82"/>
      <g>
        <circle class="cls-7" cx="535.06" cy="532.46" r="19.4"/>
        <path class="cls-7" d="M546.12,516.65s-14.98,1.56-15.46,15.46c0,0,1.72,2.64-.46,2.9l1.06,2.05-.73,.93,.8,.73s-.86,7.56,11.07,11.53"/>
        <path class="cls-7" d="M527.76,530.81s-.23-3.18-4.62-.53c0,0,1.44,.38,2.12,1.36s2.5-.83,2.5-.83Z"/>
        <path class="cls-7" d="M525.53,529.44s-.9,.42-.38,1.86"/>
        <path class="cls-7" d="M538.62,531.89s4.24-3.84,7.95,.27c0,0-3.93,3.23-7.95-.27Z"/>
        <ellipse class="cls-7" cx="542.64" cy="531.96" rx="1.41" ry="1.48"/>
        <path class="cls-7" d="M531.77,541.57s1.9-.04,2.34,.97c0,0,.71-1.9,4.55,.22,0,0-2.43,1.9-5.83,.97"/>
        <path class="cls-7" d="M530.84,536.4s-.75,.88-2.7,.93c0,0,1.27,2.12,3.18,1.39"/>
        <path class="cls-7" d="M538.81,513.2s.29-4.12,2.65-5.88c0,0,2.74-2.25,2.45-5.49-.29-3.23,3.92-4.21,3.92-4.21,0,0-2.55,2.25-2.06,8.03,0,0,2.06-1.76,1.96-4.31s2.55-4.51,2.55-4.51c0,0,2.16-1.67,2.06-4.41,0,0,.88-2.16,3.43-1.18,0,0-2.35,0-2.25,4.8,.1,4.8-1.76,8.23-1.76,8.23,0,0-.78,1.37,.1,4.12s-6.08,7.64-6.08,7.64"/>
        <path class="cls-7" d="M546.94,516.85s1.38-2.59,3.41-3.05c0,0,2.43-.67,3.17-2.85s3.76-1.6,3.76-1.6c0,0-2.3,.73-3.65,4.62,0,0,1.84-.55,2.51-2.23s2.95-2.19,2.95-2.19c0,0,1.88-.46,2.61-2.27,0,0,1.19-1.14,2.56,.23,0,0-1.53-.68-2.85,2.47-1.32,3.14-3.52,4.83-3.52,4.83,0,0-.9,.66-1.12,2.7-.22,2.03-6.14,3.21-6.14,3.21"/>
        <path class="cls-7" d="M532,513.11s-.84-2.81,.27-4.57c0,0,1.25-2.19,.24-4.26s1.54-3.79,1.54-3.79c0,0-1.12,2.14,.66,5.85,0,0,.92-1.69,.21-3.36s.55-3.63,.55-3.63c0,0,1.01-1.65,.25-3.45,0,0,.04-1.65,1.98-1.65,0,0-1.56,.59-.28,3.76,1.28,3.16,.91,5.91,.91,5.91,0,0-.17,1.11,1.1,2.71,1.28,1.6-2.1,6.61-2.1,6.61"/>
        <path class="cls-7" d="M554.46,530.65s2.83-.76,4.56,.4c0,0,2.15,1.31,4.25,.36s3.74,1.65,3.74,1.65c0,0-2.11-1.18-5.87,.49,0,0,1.66,.97,3.35,.31s3.62,.66,3.62,.66c0,0,1.62,1.06,3.44,.35,0,0,1.65,.09,1.59,2.03,0,0-.55-1.58-3.75-.39-3.2,1.19-5.93,.74-5.93,.74,0,0-1.1-.21-2.74,1.03s-6.54-2.29-6.54-2.29"/>
        <path class="cls-7" d="M550.31,544.75s2.52,1.49,2.9,3.54c0,0,.56,2.46,2.71,3.29s1.44,3.82,1.44,3.82c0,0-.63-2.33-4.45-3.85,0,0,.47,1.87,2.12,2.61s2.06,3.05,2.06,3.05c0,0,.38,1.9,2.15,2.7,0,0,1.09,1.24-.34,2.55,0,0,.74-1.49-2.34-2.95-3.08-1.46-4.67-3.73-4.67-3.73,0,0-.62-.93-2.65-1.24-2.02-.31-2.93-6.28-2.93-6.28"/>
        <path class="cls-7" d="M536.94,551.71s.66,1.66,.08,2.79c0,0-.64,1.4,.08,2.6s-.73,2.38-.73,2.38c0,0,.57-1.36-.72-3.52,0,0-.47,1.08,.05,2.05s-.14,2.24-.14,2.24c0,0-.52,1.06,.03,2.11,0,0,.06,1.01-1.11,1.11,0,0,.92-.44-.03-2.3s-.87-3.54-.87-3.54c0,0,.05-.68-.82-1.58s.92-4.13,.92-4.13"/>
        <path class="cls-7" d="M523.27,516.93s-1.38-2.59-3.41-3.05c0,0-2.43-.67-3.17-2.85-.74-2.18-3.76-1.6-3.76-1.6,0,0,2.3,.73,3.65,4.62,0,0-1.84-.55-2.51-2.23s-2.95-2.19-2.95-2.19c0,0-1.88-.46-2.61-2.27,0,0-1.19-1.14-2.56,.23,0,0,1.53-.68,2.85,2.47,1.32,3.14,3.52,4.83,3.52,4.83,0,0,.9,.66,1.12,2.7s6.14,3.21,6.14,3.21"/>
        <path class="cls-7" d="M515.68,530.44s-2.83-.76-4.56,.4c0,0-2.15,1.31-4.25,.36s-3.74,1.65-3.74,1.65c0,0,2.11-1.18,5.87,.49,0,0-1.66,.97-3.35,.31s-3.62,.66-3.62,.66c0,0-1.62,1.06-3.44,.35,0,0-1.65,.09-1.59,2.03,0,0,.55-1.58,3.75-.39s5.93,.74,5.93,.74c0,0,1.1-.21,2.74,1.03,1.63,1.23,6.54-2.29,6.54-2.29"/>
        <path class="cls-7" d="M519.82,544.55s-2.52,1.49-2.9,3.54c0,0-.56,2.46-2.71,3.29s-1.44,3.82-1.44,3.82c0,0,.63-2.33,4.45-3.85,0,0-.47,1.87-2.12,2.61s-2.06,3.05-2.06,3.05c0,0-.38,1.9-2.15,2.7,0,0-1.09,1.24,.34,2.55,0,0-.74-1.49,2.34-2.95s4.67-3.73,4.67-3.73c0,0,.62-.93,2.65-1.24,2.02-.31,2.93-6.28,2.93-6.28"/>
        <path class="cls-7" d="M551.28,522.22s3.11-2.71,6.02-2.3c0,0,3.53,.34,5.61-2.16s5.75-.22,5.75-.22c0,0-3.4-.2-7.13,4.24,0,0,2.7,.2,4.43-1.67s4.99-1.4,4.99-1.4c0,0,2.7,.34,4.57-1.67,0,0,2.15-.91,3.26,1.59,0,0-1.67-1.66-4.98,1.81-3.32,3.47-7.06,4.59-7.06,4.59,0,0-1.52,.42-2.83,2.99s-9.7,1.13-9.7,1.13"/>
        <path class="cls-7" d="M553.82,537.03s4.11,.32,5.86,2.68c0,0,2.24,2.76,5.47,2.49,3.24-.27,4.19,3.95,4.19,3.95,0,0-2.24-2.56-8.02-2.11,0,0,1.75,2.07,4.3,1.99s4.49,2.58,4.49,2.58c0,0,1.65,2.17,4.4,2.09,0,0,2.15,.9,1.15,3.44,0,0,.02-2.35-4.79-2.29-4.8,.07-8.22-1.82-8.22-1.82,0,0-1.37-.79-4.12,.07-2.75,.86-7.6-6.13-7.6-6.13"/>
        <path class="cls-7" d="M545.2,549.05s2.58,3.22,2.05,6.11c0,0-.48,3.52,1.93,5.69,2.41,2.17-.01,5.75-.01,5.75,0,0,.34-3.38-3.95-7.29,0,0-.31,2.69,1.49,4.5s1.19,5.04,1.19,5.04c0,0-.45,2.69,1.49,4.63,0,0,.82,2.18-1.72,3.19,0,0,1.73-1.6-1.61-5.05-3.33-3.46-4.3-7.24-4.3-7.24,0,0-.36-1.54-2.87-2.95-2.51-1.41-.73-9.74-.73-9.74"/>
        <path class="cls-7" d="M531.23,513.2s-.29-4.12-2.65-5.88c0,0-2.74-2.25-2.45-5.49,.29-3.23-3.92-4.21-3.92-4.21,0,0,2.55,2.25,2.06,8.03,0,0-2.06-1.76-1.96-4.31s-2.55-4.51-2.55-4.51c0,0-2.16-1.67-2.06-4.41,0,0-.88-2.16-3.43-1.18,0,0,2.35,0,2.25,4.8-.1,4.8,1.76,8.23,1.76,8.23,0,0,.78,1.37-.1,4.12-.88,2.74,6.08,7.64,6.08,7.64"/>
        <path class="cls-7" d="M518.76,522.22s-3.11-2.71-6.02-2.3c0,0-3.53,.34-5.61-2.16-2.07-2.5-5.75-.22-5.75-.22,0,0,3.4-.2,7.13,4.24,0,0-2.7,.2-4.43-1.67-1.73-1.87-4.99-1.4-4.99-1.4,0,0-2.7,.34-4.57-1.67,0,0-2.15-.91-3.26,1.59,0,0,1.67-1.66,4.98,1.81,3.32,3.47,7.06,4.59,7.06,4.59,0,0,1.52,.42,2.83,2.99,1.31,2.57,9.7,1.13,9.7,1.13"/>
        <path class="cls-7" d="M516.22,537.03s-4.11,.32-5.86,2.68c0,0-2.24,2.76-5.47,2.49-3.24-.27-4.19,3.95-4.19,3.95,0,0,2.24-2.56,8.02-2.11,0,0-1.75,2.07-4.3,1.99-2.55-.08-4.49,2.58-4.49,2.58,0,0-1.65,2.17-4.4,2.09,0,0-2.15,.9-1.15,3.44,0,0-.02-2.35,4.79-2.29,4.8,.07,8.22-1.82,8.22-1.82,0,0,1.37-.79,4.12,.07,2.75,.86,7.6-6.13,7.6-6.13"/>
        <path class="cls-7" d="M524.84,549.05s-2.58,3.22-2.05,6.11c0,0,.48,3.52-1.93,5.69s.01,5.75,.01,5.75c0,0-.34-3.38,3.95-7.29,0,0,.31,2.69-1.49,4.5s-1.19,5.04-1.19,5.04c0,0,.45,2.69-1.49,4.63,0,0-.82,2.18,1.72,3.19,0,0-1.73-1.6,1.61-5.05s4.3-7.24,4.3-7.24c0,0,.36-1.54,2.87-2.95,2.51-1.41,.73-9.74,.73-9.74"/>
        <ellipse class="cls-7" cx="526.42" cy="530.49" rx=".59" ry=".57"/>
        <polygon class="cls-7" points="485.28 478.36 481.33 477.41 478.31 480.12 477.99 476.07 474.48 474.03 478.23 472.48 479.08 468.51 481.72 471.6 485.76 471.18 483.63 474.64 485.28 478.36"/>
        <polygon class="cls-7" points="495.21 510.74 491.26 509.79 488.23 512.5 487.92 508.45 484.4 506.42 488.15 504.86 489 500.89 491.64 503.98 495.68 503.56 493.56 507.02 495.21 510.74"/>
        <polygon class="cls-7" points="485.28 562.18 481.33 561.23 478.31 563.95 477.99 559.9 474.48 557.86 478.23 556.31 479.08 552.34 481.72 555.43 485.76 555.01 483.63 558.47 485.28 562.18"/>
        <polygon class="cls-7" points="512.44 585.43 508.49 584.47 505.47 587.19 505.15 583.14 501.64 581.1 505.39 579.55 506.24 575.58 508.88 578.67 512.92 578.25 510.79 581.71 512.44 585.43"/>
        <polygon class="cls-7" points="536.99 489.59 533.04 488.63 530.02 491.35 529.7 487.3 526.18 485.26 529.94 483.71 530.79 479.74 533.42 482.83 537.47 482.41 535.34 485.87 536.99 489.59"/>
        <polygon class="cls-7" points="569.11 472.09 565.16 471.14 562.14 473.85 561.82 469.8 558.3 467.77 562.06 466.21 562.91 462.24 565.55 465.33 569.59 464.91 567.46 468.38 569.11 472.09"/>
        <polygon class="cls-7" points="575.64 500.29 571.69 499.34 568.66 502.06 568.35 498.01 564.83 495.97 568.59 494.42 569.44 490.44 572.07 493.54 576.12 493.12 573.99 496.58 575.64 500.29"/>
        <polygon class="cls-7" points="512.7 472.61 508.75 471.66 505.73 474.38 505.41 470.32 501.9 468.29 505.65 466.74 506.5 462.76 509.14 465.85 513.18 465.43 511.05 468.9 512.7 472.61"/>
        <polygon class="cls-7" points="539.34 582.03 535.39 581.08 532.37 583.8 532.05 579.74 528.53 577.71 532.29 576.16 533.14 572.18 535.77 575.27 539.82 574.85 537.69 578.32 539.34 582.03"/>
        <polygon class="cls-7" points="566.24 582.55 562.29 581.6 559.26 584.32 558.95 580.27 555.43 578.23 559.19 576.68 560.04 572.7 562.67 575.8 566.71 575.38 564.59 578.84 566.24 582.55"/>
        <polygon class="cls-7" points="593.4 508.91 589.45 507.96 586.42 510.67 586.11 506.62 582.59 504.59 586.35 503.03 587.2 499.06 589.83 502.15 593.87 501.73 591.75 505.2 593.4 508.91"/>
        <polygon class="cls-7" points="496.65 486.75 494.39 486.21 492.67 487.76 492.49 485.45 490.48 484.29 492.63 483.4 493.11 481.13 494.61 482.9 496.92 482.66 495.71 484.63 496.65 486.75"/>
        <polygon class="cls-7" points="480.06 526.03 477.81 525.49 476.08 527.04 475.9 524.73 473.9 523.57 476.04 522.68 476.53 520.42 478.03 522.18 480.34 521.94 479.12 523.92 480.06 526.03"/>
        <polygon class="cls-7" points="546.15 471.18 543.9 470.64 542.18 472.19 542 469.88 539.99 468.71 542.13 467.83 542.62 465.56 544.12 467.33 546.43 467.09 545.21 469.06 546.15 471.18"/>
        <polygon class="cls-7" points="581.49 480.79 579.24 480.25 577.51 481.8 577.33 479.49 575.33 478.32 577.47 477.44 577.95 475.17 579.46 476.94 581.76 476.7 580.55 478.67 581.49 480.79"/>
        <polygon class="cls-7" points="499.6 568.89 497.35 568.35 495.63 569.9 495.45 567.59 493.44 566.42 495.58 565.54 496.07 563.27 497.57 565.04 499.88 564.8 498.66 566.77 499.6 568.89"/>
        <polygon class="cls-7" points="525.54 595.99 523.29 595.45 521.57 597 521.39 594.68 519.38 593.52 521.52 592.64 522.01 590.37 523.51 592.13 525.82 591.89 524.6 593.87 525.54 595.99"/>
        <polygon class="cls-7" points="481.99 583.86 479.74 583.32 478.01 584.87 477.83 582.55 475.82 581.39 477.97 580.51 478.45 578.24 479.96 580 482.26 579.76 481.05 581.74 481.99 583.86"/>
        <polygon class="cls-7" points="555.5 595.81 553.25 595.26 551.52 596.81 551.34 594.5 549.34 593.34 551.48 592.45 551.96 590.19 553.47 591.95 555.77 591.71 554.56 593.69 555.5 595.81"/>
        <polygon class="cls-7" points="577.54 566.12 575.29 565.57 573.57 567.12 573.39 564.81 571.38 563.65 573.52 562.76 574.01 560.5 575.51 562.26 577.82 562.02 576.6 564 577.54 566.12"/>
      </g>
      <path class="cls-40" d="M482.95,454.52s-20.16-13.77-36.2-18.06c0,0-25.97,13.14-32.61,46.98,0,0,32.72,26.39,54.93,31.4"/>
      <path class="cls-40" d="M559.18,452.24s26.7-24.35,41.95-31.63c0,0,36.84,22.07,38.04,35.76,0,0-24.78,27.44-35.29,31.57"/>
      <path class="cls-14" d="M432.78,318.78l-5.16,6.98s-.9,2.6,1.17,4.18,4.51-.41,4.51-.41l5.78-5.69"/>
      <path class="cls-14" d="M425.97,315.71l-5.36,7.72s-1.29,2.69,1.3,4.15c2.6,1.46,5.7-1.82,5.7-1.82"/>
      <path class="cls-14" d="M419.11,312.76l-4.3,6.93s-1.69,2.79,.64,4.31,5.17-.58,5.17-.58"/>
      <path class="cls-8" d="M389.08,325.9s-4.17-36.51,29.21-50.07"/>
      <path class="cls-8" d="M374.48,322.77s-15.65-44.86,33.38-63.64"/>
      <path class="cls-8" d="M612.33,572.1s28.17,33.38,23.99,70.94"/>
      <path class="cls-8" d="M618.59,561.67s41.73,28.17,30.25,77.2"/>
    </g>
    <g>
      <path class="cls-49" d="M906.61,501.79s-5.44,28.24-9.36,40.44c0,0,37.47,24.83,67.53,8.28,0,0,8.71-10.89,7.41-33.98,0,0,0-5.66,4.36-5.23l-.44-11.33s3.49-5.66,6.54-.87l1.31,22.66s2.18-16.12,1.31-27.01c0,0,3.92-6.1,7.84,.44,0,0,1.31,15.25-1.74,23.96,0,0,3.49-7.41,6.97-18.3,3.49-10.89,5.16,2.09,5.16,2.09,0,0-1.27,14.04-5.59,22.74,0,0-3.05,10.89-3.05,13.94,0,0,2.59-1.25,9.15-8.71,5.51-6.28,6.71,2.59,6.71,2.59,0,0-6.28,12.66-11.51,17.01-5.23,4.36-6.1,16.12-19.17,18.3-13.07,2.18-54.46,11.76-54.46,11.76,0,0-26.58,6.54-30.06,2.61l-9.75-43.61,7.84-36.86,13.01-.93Z"/>
      <line class="cls-3" x1="976.55" y1="511.29" x2="976.55" y2="528.53"/>
      <path class="cls-3" d="M994.85,539.61s-2.74,2.64-7.31,5.21"/>
      <path class="cls-56" d="M776.75,952.41s.46-6.85,6.01-12.19,48.03-14.93,48.03-14.93l7.68,9.13-19.81,29.19-25.87,5.43-16.04-16.64Z"/>
      <path class="cls-52" d="M776.75,952.41s19.93,27.7,46.65,2.92c0,0,8.75-17.98,15.07-20.9l.49,12.15s-8.75,1.94-11.66,16.52c-2.92,14.58-30.62,14.09-30.62,14.09,0,0-15.07-1.46-22.36-13.12l2.43-11.66Z"/>
      <path class="cls-49" d="M837.64,930.77s-13.94,9-14.39,17.99-7.65,12.14-7.65,12.14c0,0-7.65,1.8-7.65-8.55,0,0,0,6.75-4.5,4.95s-2.25-6.3-2.25-6.3c0,0-7.65,9.45-7.65,.45,0,0-6.3,4.95-7.2-3.15,0,0-7.65,.45-3.6-8.1,4.05-8.55,13.49-15.74,13.49-15.74,0,0,5.85-14.39,3.15-43.63,0,0,16.64,.9,29.24-2.7l1.35,11.69s4.5,4.5,4.5,19.34c0,0,6.3,15.74,3.15,21.59Z"/>
      <path class="cls-30" d="M782.76,940.22s31.28-1.47,41.72,12.11l3.83-5.92s-11.14-17.06-41.43-14.27l-4.13,8.08Z"/>
      <path class="cls-30" d="M834.24,937.36s-15.38-20.2-37.98-12.88l-5.19,4.18s24.02-7.31,40.73,12.53l2.44-3.83Z"/>
      <path class="cls-30" d="M838.47,934.43s3.23-13.73-3.98-25.24c0,0,1.14,18.78-.25,28.18l4.23-2.93Z"/>
      <path class="cls-30" d="M834.49,909.18s-24.27,9.38-35.06-1.76l.35-6.61s24.02,6.61,34.12,.35l.6,8.03Z"/>
      <g>
        <path class="cls-56" d="M883.31,806.17s-20.1,2.47-24.06,28.14c-3.96,25.67-15.77,55.21-7.38,56.34l12.15-3.83,22.56-34.68,4.05-30.24-7.32-15.73Z"/>
        <path class="cls-49" d="M829.61,806.24s13.32,12.25,17.43,35.69l3.59,12.3,.98,7.7-1.39,12.2s-4.08,7.38-2.32,9.54c1.75,2.16,2.21,3.64,7.07,1.45,0,0,4.08,.08,4.55-3.17,0,0,3.85-.66,5.26-5.69,0,0,3.1-.02,4.52-5.46,0,0,2.71-.84,2.85-3.86,0,0,8.21-14.44,5.44-22.5-2.77-8.06,2.7-24.35,2.7-24.35l-3.66-12.64s-21.41-10.64-24.97-20.34l-22.05,19.13Z"/>
        <path class="cls-52" d="M883.31,806.17s2.21,5.87-.3,13.07c-2.51,7.2-2.38,25.6-2.38,25.6,0,0,.08,29.02-28.77,45.81l11.18,6.3s28.57-19.5,30.05-50.68c0,0,2.64-22.05,6.15-28.72,0,0-4.72-6.76-15.93-11.38Z"/>
        <path class="cls-30" d="M880.88,834.94s-17.21-6.89-33.84,6.99l3.59,12.3s7.55-11.89,30.01-9.39l.24-9.9Z"/>
        <path class="cls-30" d="M878.91,855.09s-16.41-4.32-27.3,6.84l-1.39,12.2s9.26-8.06,23.75-6.91c0,0,3.21-1.88,4.94-12.13Z"/>
        <path class="cls-30" d="M863.14,797.78s17.22,20.94,18.05,34.69l3.31-21.65s-2.84-5.73-21.37-13.05Z"/>
        <path class="cls-30" d="M854.85,792.62l-20.08,20.64,6.47,11.09s12.97-8.78,23.47-24.58c0,0,5.19,1.41-9.86-7.16Z"/>
        <path class="cls-14" d="M853.09,872.78l-.13,6.51s-.88,4.01,2.01,5.83"/>
        <path class="cls-14" d="M856.51,870.6s-.9,10.58,1.67,11.07l1.35,.28"/>
        <path class="cls-14" d="M861.46,868.66s-.57,6.03,3.33,7.61"/>
        <path class="cls-14" d="M867.02,867.41s-.39,3.09,2.28,3.4"/>
        <path class="cls-17" d="M880.47,806.98s-8.18-7.67-16.15-9.08l-3.05-1.55"/>
      </g>
      <path class="cls-49" d="M806.58,383.14s5.67,24.48-.9,35.82c0,0-4.7,54.72,40.19,56.12,0,0,43.34,14.99,23.04-28.37l-9.86-29.93c-3.23-1.67-4.26-4.61-4.26-4.61l-45.55-25.39"/>
      <path class="cls-49" d="M876.27,330.11s3.41,8.33,.95,27.08c0,0-.76,7.01,.76,11.17,0,0,.76,15.53-5.49,26.7-6.25,11.17-17.61,17.42-17.61,17.42,0,0-10.98,3.22-19.5-.95-8.52-4.17-20.83-6.63-28.78-28.4,0,0-6.63,5.3-10.6-5.3-3.98-10.6-9.09-14.39-4.36-23.1,4.73-8.71,13.63,9.47,13.63,9.47,0,0-7.01-17.23-.95-33.9,6.06-16.66,28.22-27.27,28.22-27.27,0,0,31.43-7.76,43.74,27.08Z"/>
      <path class="cls-73" d="M843.36,348.81s-11.86-2.69-22.2,.92c0,0,5.03-6.51,22.48-3.77,0,0,2.9,1.77-.28,2.84Z"/>
      <path class="cls-73" d="M879.54,348.82c-8.51-.78-14.43,.78-14.43,.78-3.22-.94-.4-2.83-.4-2.83,5.4-1.07,11.56-.85,14.83-.51,0,0,.46,2.6,0,2.56Z"/>
      <path class="cls-50" d="M839.99,387.26s6.29-1.94,13.77,.18c0,0,6.47-1.29,12.29,0,0,0-.65,10.45-10.45,12.76-9.8,2.31-15.81-6.84-15.62-12.94Z"/>
      <path class="cls-42" d="M841.56,388s-.09,9.24,11.92,9.24c10.91,0,11-8.23,11-8.23,0,0-12.29,.55-22.93-1.02Z"/>
      <path class="cls-30" d="M843.06,388.14s2.98,4.28,12.28,3.83c0,0,5.74,.29,8.14-2.76,0,0-11.99,.26-20.42-1.07Z"/>
      <path class="cls-4" d="M858.26,369.2s7.28,5.84-.32,9.56"/>
      <path class="cls-73" d="M854.79,412.16s-12.93,3.42-22.57-2.13c0,0-5.66-1.44-14.79-8.66,0,0,4.51,9.15,22.7,13.4,0,0,8.38,2.03,16.3,.12,0,0-1.52-1.45-1.64-2.73Z"/>
      <path class="cls-4" d="M793.13,365.53s3.14-4.76,6.66,.1c3.52,4.85,3.71,6.47,3.71,6.47,0,0-5.04-7.7-7.04-1.52"/>
      <path class="cls-73" d="M873.5,393.15c3.68-6.82,4.48-24.78,4.48-24.78,0,0-.75-2.6-1.09-7.88-.34-5.25,.77-6.47,.28-11.15,0,0-16.41-3.78-30.33-17.97,0,0,5.31,10.05,17.41,11.41,0,0-16.37,7.64-43.69-17.52,0,0-2.73,25.73-15.29,38.93,0,0-6.21-12.01-12.94-8.88-6.73,3.13,3.54,21.65,3.54,21.65,0,0,3.08,11,10.72,6.18,0,0,.94,6.53,5.67,24.48,0,0-6.52-2.96-9.48-6.52,0,0,2,5.6,5.81,9.41,0,0-16.02-3.81-17.55-19.45,0,0,0-5.34-4.2-6.1-4.2-.76-11.06-13.35-10.3-26.32,.76-12.97,11.7-59.46,40.61-60.43,0,0,15.7-14.18,35.52-2.17,19.81,12.01,27.8,12.55,34.4,47.37,0,0,6.52,26.81-5.77,37.23,0,0,4.53-11.26,2.33-15.18,0,0,2.7,13.69-3.26,19.28,0,0,.93-4.1,.81-10.71,0,0-.01,15.93-11.7,25.72"/>
      <ellipse class="cls-30" cx="803.72" cy="380.94" rx="1.62" ry="1.96"/>
      <g>
        <path class="cls-30" d="M829.11,358.02s-.01-.33,.22-.61c.77-.93,2.57-2.7,5.49-2.8,3.27-.12,5.19,2.88,5.84,3.96,.11,.18,.11,.35,.11,.35,0,0,.02,.18-.09,.31-.5,.63-2.18,2.38-5.27,2.54-1.84,.1-4.47-.8-6.16-3.24-.12-.17-.13-.39-.13-.51Z"/>
        <circle class="cls-73" cx="835.88" cy="358.35" r="3.38"/>
        <circle class="cls-30" cx="833.72" cy="357.74" r=".93"/>
        <path class="cls-13" d="M840.86,358.56s-4.27-7.66-11.66-1.17"/>
      </g>
      <g>
        <path class="cls-30" d="M862.76,359.41s-.06-.3,.12-.6c.58-.98,2-2.87,4.7-3.39,3.02-.58,5.23,1.94,6,2.84,.13,.16,.15,.31,.15,.31,0,0,.04,.17-.04,.3-.38,.65-1.68,2.53-4.54,3.12-1.7,.35-4.27-.1-6.19-2.13-.13-.14-.18-.34-.2-.46Z"/>
        <circle class="cls-73" cx="869.1" cy="358.74" r="3.17"/>
        <circle class="cls-30" cx="866.92" cy="358.55" r=".89"/>
        <path class="cls-13" d="M873.65,358.35s-4.92-6.98-10.84,.6"/>
      </g>
      <path class="cls-8" d="M824.8,352.11s12.92-4.4,24.81,.05c0,0,1.67,17.28-11.43,17.84,0,0-17.01-.33-13.39-17.89Z"/>
      <path class="cls-8" d="M857.92,351.97s11.27-4.26,21.3,1.24c0,0,3.07,15.66-10.03,16.22,0,0-14.89,.11-11.27-17.45Z"/>
      <path class="cls-8" d="M857.92,351.97s-4.81-2.25-8.31,.19"/>
      <line class="cls-8" x1="826.47" y1="351.88" x2="801.74" y2="356.78"/>
      <path class="cls-60" d="M770.39,603.16s-14.19,42.59-8.65,64.73l-32.87,31.22s-16.61,28.6-.92,42.44c15.68,13.84,44.31,35.65,44.31,35.65,0,0,11.97,77.83,24.89,121.19,0,0,17.53,11.99,39.67,.92l-3.69-78.42s22.14-10.15,28.6-32.29l-30.45-28.6,2.77-56.28s76.46-23.13,65.45-94.39c0,0-12.87-14.48-129.11-6.18Z"/>
      <path class="cls-8" d="M831.29,760s-15.71-31.54-43.64-34.33l46.4-21.95"/>
      <path class="cls-8" d="M761.74,667.89s40.57-32.27,60.11-42.05"/>
      <path class="cls-62" d="M841.65,463.1s-31.67-11.97-33.63-46.1l-33.64,7.56s-23.33,5.02-29.79,26.56l-9.49,34.56,34.11,16.11,.47,33.64-1.42,77.23s47.32,18.17,131.24-3.32l-10.46-70.04c8.74-21.94,7.86-36.24,7.86-36.24l9.71-1.27s7.66-57.1-21.32-70.12c-21.4-9.62-26.25-14.9-26.25-14.9,0,0-3.22,43.07-17.4,46.34Z"/>
      <path class="cls-8" d="M772.89,503.66s3.14-9.56,5.09-23.19"/>
      <path class="cls-8" d="M897.01,502.73s1.43-16.91-1.27-30.42"/>
      <path class="cls-49" d="M737.17,486.79l-10.17,48.49-24.76-43.06-.09-3.43s8.2-5.9,14.93-16.21c0,0,4.34-4.48,8.29-4.6,3.95-.12,3.6-4.62,3.6-4.62,0,0-3.98-5.16-13.06-.5l-6.96,5.07s-4.31,2.79-4.95-3.01c-.64-5.8,4.44-25.43,4.44-25.43,0,0,2.68-9.26-2.34-10.76-5.02-1.5-5.66,9.68-5.66,9.68l-2.56,13.21s-2.05,5.25-3.71,.85l2.92-15.88s4.22-11.27-1.46-11.58c-5.68-.31-5.61,10.43-5.61,10.43l-4.06,15.78s-1.46,.68-.94-2.38c.52-3.06,2.92-13.43,2.92-13.43,0,0,2.55-6.05-2.01-6.45s-5.56,8.54-5.56,8.54l-3.05,16.65,.21-11.9s.36-5.12-3.2-4.85c-3.56,.28-5.09,9.83-5.09,9.83,0,0,1.02,10.67-.06,16.23-1.08,5.55,.73,21.64,6.35,28.37l5.5,10.29s9.6,46.08,39.56,76.04c8.42,8.42,19.24,16.83,30.06,.8,6.25-9.26,20.78-37.97,22.25-75.31"/>
      <path class="cls-3" d="M694.93,454.24s-7.9-3.65-17.61-.08"/>
      <path class="cls-3" d="M707.63,469.01s-8.51,.2-14.25,5.83"/>
      <path class="cls-3" d="M727,535.29s11.24,3.47,13.23,12.45"/>
      <line class="cls-14" x1="793.56" y1="951.46" x2="794.73" y2="948.16"/>
      <line class="cls-14" x1="801.2" y1="951.01" x2="801.97" y2="949.11"/>
      <line class="cls-14" x1="808.06" y1="953.71" x2="808.94" y2="949.65"/>
      <line class="cls-14" x1="786.36" y1="948.31" x2="787.56" y2="945.58"/>
      <line class="cls-8" x1="772.26" y1="777.2" x2="833.13" y2="820.89"/>
      <path class="cls-8" d="M891.92,415.62s22.95,19.82,23.99,41.73"/>
      <path class="cls-8" d="M896.09,401.01s33.38,17.73,30.25,58.42"/>
      <path class="cls-8" d="M721.87,680.6s-33.38,21.91-10.43,60.51"/>
      <path class="cls-8" d="M711.44,671.21s-29.21,17.73-15.65,56.33"/>
    </g>
    <g>
      <polyline class="cls-6" points="741.34 333.5 721.87 315.7 722.54 370.43"/>
      <ellipse class="cls-19" cx="712.94" cy="374.52" rx="10.2" ry="8.79" transform="translate(-58.91 144.75) rotate(-11.14)"/>
    </g>
    <g>
      <ellipse class="cls-19" cx="496.33" cy="255.39" rx="5.82" ry="6.76" transform="translate(149.89 693.05) rotate(-78.86)"/>
      <ellipse class="cls-19" cx="471.19" cy="245.42" rx="5.82" ry="6.76" transform="translate(139.39 660.34) rotate(-78.86)"/>
      <polyline class="cls-6" points="489.7 254.08 490.35 221.52 465.61 211.83 464.56 244.11"/>
    </g>
    <g>
      <ellipse class="cls-19" cx="362.77" cy="582.8" rx="9.54" ry="8.23" transform="translate(-105.73 81.04) rotate(-11.14)"/>
      <ellipse class="cls-19" cx="398.27" cy="568.72" rx="9.54" ry="8.23" transform="translate(-102.34 87.63) rotate(-11.14)"/>
      <polyline class="cls-6" points="372.13 580.95 371.21 534.96 406.15 521.28 407.63 566.88"/>
    </g>
    <path class="cls-41" d="M700.04,305.57s2.43,13.16-5.77,17.3c0,0,11.21,.38,14.42,11.05,0,0-4.71-13.53,5.77-16.82,0,0-11.38,1.33-14.42-11.53Z"/>
    <path class="cls-41" d="M754.32,343.54s-5.68,12.12-14.75,10.71c0,0,8.89,6.84,5.29,17.38,0,0,4.04-13.75,14.48-10.32,0,0-10.03-5.55-5.01-17.77Z"/>
    <g>
      <polyline class="cls-6" points="1234.85 384.21 1250.6 369.81 1250.06 414.08"/>
      <ellipse class="cls-19" cx="1257.82" cy="417.38" rx="7.11" ry="8.25" transform="translate(605.37 1570.91) rotate(-78.86)"/>
    </g>
    <path class="cls-41" d="M1268.26,361.62s-1.96,10.64,4.66,13.99c0,0-9.07,.31-11.66,8.94,0,0,3.81-10.94-4.66-13.6,0,0,9.21,1.07,11.66-9.33Z"/>
    <path class="cls-41" d="M1224.36,392.33s4.59,9.8,11.93,8.66c0,0-7.19,5.53-4.28,14.05,0,0-3.27-11.12-11.71-8.35,0,0,8.11-4.48,4.05-14.37Z"/>
    <path class="cls-41" d="M430.51,540.71s-5.68,12.12-14.75,10.71c0,0,8.89,6.84,5.29,17.38,0,0,4.04-13.75,14.48-10.32,0,0-10.03-5.55-5.01-17.77Z"/>
    <path class="cls-41" d="M528.42,248.08s-5.68,12.12-14.75,10.71c0,0,8.89,6.84,5.29,17.38,0,0,4.04-13.75,14.48-10.32,0,0-10.03-5.55-5.01-17.77Z"/>
    <path class="cls-41" d="M434.62,200.57s2.43,13.16-5.77,17.3c0,0,11.21,.38,14.42,11.05,0,0-4.71-13.53,5.77-16.82,0,0-11.38,1.33-14.42-11.53Z"/>
    <path class="cls-41" d="M347.11,508.29s2.43,13.16-5.77,17.3c0,0,11.21,.38,14.42,11.05,0,0-4.71-13.53,5.77-16.82,0,0-11.38,1.33-14.42-11.53Z"/>
    <g>
      <ellipse class="cls-19" cx="995.68" cy="667.41" rx="9.54" ry="8.23" transform="translate(-110.15 204.87) rotate(-11.14)"/>
      <ellipse class="cls-19" cx="1031.18" cy="653.33" rx="9.54" ry="8.23" transform="translate(-106.77 211.46) rotate(-11.14)"/>
      <polyline class="cls-6" points="1005.05 665.57 1004.13 619.57 1039.06 605.89 1040.55 651.49"/>
    </g>
    <path class="cls-41" d="M1063.42,625.32s-5.68,12.12-14.75,10.71c0,0,8.89,6.84,5.29,17.38,0,0,4.04-13.75,14.48-10.32,0,0-10.03-5.55-5.01-17.77Z"/>
    <path class="cls-41" d="M980.03,592.9s2.43,13.16-5.77,17.3c0,0,11.21,.38,14.42,11.05,0,0-4.71-13.53,5.77-16.82,0,0-11.38,1.33-14.42-11.53Z"/>
    <g>
      <ellipse class="cls-19" cx="1025.47" cy="374.52" rx="9.54" ry="8.23" transform="translate(-53.03 205.1) rotate(-11.14)"/>
      <ellipse class="cls-19" cx="1060.97" cy="360.44" rx="9.54" ry="8.23" transform="translate(-49.64 211.7) rotate(-11.14)"/>
      <polyline class="cls-6" points="1034.83 372.68 1033.92 326.69 1068.85 313 1070.33 358.6"/>
    </g>
    <path class="cls-41" d="M1093.21,332.43s-5.68,12.12-14.75,10.71c0,0,8.89,6.84,5.29,17.38,0,0,4.04-13.75,14.48-10.32,0,0-10.03-5.55-5.01-17.77Z"/>
    <path class="cls-41" d="M1009.82,300.01s2.43,13.16-5.77,17.3c0,0,11.21,.38,14.42,11.05,0,0-4.71-13.53,5.77-16.82,0,0-11.38,1.33-14.42-11.53Z"/>
    <g>
      <path class="cls-49" d="M1218.64,540.35s-2.22,44.49,3.24,53.76c0,0,16.83,17.97,32.66,40.3,0,0,12.17,2.1,29.52-8.78,0,0,4.39-2.42,5.92,1.15l8.6-5.18s5.88,.28,3.47,4.7l-17.01,10.69s13.43-5.2,21.51-10.53c0,0,6.41,.43,3.01,6.27,0,0-11.27,7.53-19.33,8.89,0,0,7.23-.46,17.17-2.41,9.94-1.95,.58,4.89,.58,4.89,0,0-11.43,5.02-20.03,5.38,0,0-9.75,2.29-12.12,3.59,0,0,2.08,1.48,10.67,3.37,7.22,1.59,.86,6.31,.86,6.31,0,0-12.5,.54-18.11-1.65-5.61-2.19-16.7,.14-23.98-9.06-7.27-9.21-46.34-39.95-46.34-39.95,0,0-6.33-13.26-4.77-17.64l-8.41-21.79,2.95-25.42,29.93-6.89Z"/>
      <line class="cls-3" x1="1289.99" y1="626.78" x2="1276.61" y2="634.14"/>
      <path class="cls-3" d="M1275.84,653.08s-3.22-.99-7.16-3.44"/>
      <path class="cls-49" d="M1075.93,497.8c-23.16,3.72-44.66,2.48-44.66,2.48-11.47-15.29-20.6-50.14-20.6-50.14,0,0,3.43-10.47,3.43-16.97,0-6.5-.36-19.9-.36-19.9,0,0-3.97-12.28-7.95-13.01s-2.89,2.53-2.89,2.53c0,0-2.89-10.48-6.5-12.65s-4.34,1.45-4.34,1.45c0,0,6.14,9.03,6.5,16.26,0,0-6.5-9.76-11.2-3.61-4.7,6.14-.72,4.7-.72,4.7,0,0-7.59,1.08-3.61,6.14,3.97,5.06,5.42,1.45,5.42,1.45l2.53,3.97s-5.42-4.34-7.23-1.08c-1.81,3.25-.72,5.42,2.17,8.67,2.89,3.25,3.97,10.84,3.97,10.84,0,0-1.56,8.08,6,14.18,0,0-6.81,52.03,18.41,75.72,0,0,22.33,13.65,68.23,4.96"/>
      <path class="cls-15" d="M1002.91,402.79s-.61,6.75,3.16,13.29c0,0-11.56,10.31-8.8,26.65"/>
      <path class="cls-15" d="M986.65,408.93s4.53,1.9,6.42-2.3"/>
      <path class="cls-15" d="M994.75,413.98s-3.99-1.89-3.99-4.62"/>
      <path class="cls-15" d="M990.76,412.09s-1.25,3.6-2.3,4.42"/>
      <path class="cls-15" d="M988.03,421.12s0,4.2-4.62,2.94"/>
      <path class="cls-49" d="M1088.92,901.26c0,28.22-8.75,29.61-8.75,29.61-14.39,7.35-28.86,12.02-28.86,12.02,0,0-16.4,12.65,20.83,8.74,42.81-4.5,42.59-15.4,42.59-15.4,0,0-8.11-8.94-2.35-30.6l-23.46-4.37"/>
      <path class="cls-66" d="M1116.44,953.36s0,2.02-.87,7.69l-63.84,6.47s-19.11-.4-19.98-10.52"/>
      <path class="cls-55" d="M1114.7,934.75s5.21,8.49,1.74,18.61l-60.8,8.49s-16.94,2.83-23.88-4.85c-6.95-7.69,42.56-23.46,42.56-23.46,0,0,19.54,16.99,40.39,1.21Z"/>
      <polyline class="cls-10" points="1055.78 940.88 1068.64 946.42 1070.57 935.19 1084.88 941.33"/>
      <polyline class="cls-10" points="1080.23 933.49 1074.22 945.44 1064.98 938.01 1058.28 951.28"/>
      <path class="cls-49" d="M1165.16,442.62s-8.47,29.1,7.54,33.49c0,0-3.46,41.44-41.75,42.63,0,0-36.26-2.57-18.95-39.55l9.84-5.28c.16-7.06-.81-8.18-.81-8.18l41.17-22.3"/>
      <path class="cls-49" d="M1200.11,910.84c8.26,26.98,.31,30.87,.31,30.87-11.61,11.24-24.08,19.95-24.08,19.95,0,0-11.97,16.9,22.48,2.26,39.62-16.84,36.21-27.2,36.21-27.2,0,0-10.37-6.18-11.21-28.57l-23.72,2.69"/>
      <path class="cls-49" d="M1109.22,394.5s-3.55,6.81-2.92,22.92c0,0,.1,6.01-1.52,9.43,0,0-1.86,13.13,2.58,23.11s13.6,16.17,13.6,16.17c0,0,9.08,3.59,16.64,.72s18.21-4,26.66-21.87c0,0,5.21,5.02,9.42-3.67,4.21-8.7,8.84-11.51,5.5-19.28-3.34-7.77-12.32,6.98-12.32,6.98,0,0,7.3-14.09,3.45-28.71s-21.83-25.36-21.83-25.36c0,0-26.09-9.05-39.27,19.58Z"/>
      <path class="cls-61" d="M1135.71,412.96s10.28-1.36,18.78,2.52c0,0-3.76-5.93-18.8-4.95,0,0-2.6,1.28,.02,2.44Z"/>
      <path class="cls-61" d="M1104.98,410.13c7.29,0,12.19,1.79,12.19,1.79,2.81-.55,.56-2.37,.56-2.37-4.5-1.33-9.76-1.62-12.56-1.59,0,0-.6,2.17-.2,2.17Z"/>
      <circle class="cls-61" cx="1142.22" cy="421.18" r="3.06"/>
      <path class="cls-50" d="M1135.57,445.87s-5.19-2.14-11.71-.92c0,0-5.39-1.6-10.44-.96,0,0-.27,8.92,7.87,11.65,8.14,2.73,13.96-4.57,14.28-9.77Z"/>
      <path class="cls-42" d="M1134.17,446.38s-.64,7.86-10.85,6.92c-9.27-.85-8.7-7.85-8.7-7.85,0,0,10.4,1.43,19.55,.93Z"/>
      <path class="cls-30" d="M1132.9,446.38s-2.86,3.4-10.73,2.29c0,0-4.89-.2-6.7-2.98,0,0,10.16,1.16,17.42,.69Z"/>
      <path class="cls-4" d="M1121.46,429.11s-6.64,4.39-.48,8.14"/>
      <path class="cls-73" d="M1121.36,466.24s10.41,3.53,19.03-.43c0,0,4.92-.78,13.23-6.2,0,0-4.55,7.42-20.32,9.61,0,0-4.96,.63-11.71,0,0,0-1-2.03-.24-2.98Z"/>
      <path class="cls-47" d="M1126.35,502.67s-25.67-.2-4.78-28.75l-25.87,10.94s-15.9,1.45-31.78,13.92l2.55,39.39,24.07,9.08-.66,47.32-6.25,45.87s42.35,19.96,119.14,.29l2.05-9.02c-15.94-58.11-13.06-81.04-13.06-81.04l29.93-6.89s-9.47-49.39-30.11-59.87c-23.88-12.14-22.88-10.24-22.88-10.24,0,0-14.69,29.66-42.36,28.98Z"/>
      <path class="cls-63" d="M1202.78,640.74s21.54,40.65,12.01,80.66c0,0-4.87,71.94-4.87,84.18,0,0,24.35,57.87,16.31,108.21,0,0-14.92,13.56-32.45,.64l-27.34-86.66-21.05-103.65-31.02,93.93,6.96,88.89s-19.01,9.06-40.19-3.86l-14.69-81.93s-3.78-14.62-2.32-25.51l19.51-155.19s42.21,19.81,119.14,.29Z"/>
      <path class="cls-66" d="M1241.68,952.59s.59,1.93,1.42,7.6l-59.14,24.88s-18.39,5.21-22.18-4.21"/>
      <path class="cls-55" d="M1234.57,935.3s7.47,6.6,7.11,17.28l-55.64,25.93s-15.36,7.67-24.26,2.35c-8.89-5.31,33.82-34.9,33.82-34.9,0,0,23.66,10.52,38.97-10.67Z"/>
      <polyline class="cls-10" points="1180.03 958.43 1193.95 959.96 1192.5 948.66 1207.98 950.34"/>
      <polyline class="cls-10" points="1201.24 944.2 1198.99 957.38 1187.98 952.98 1185.46 967.64"/>
      <path class="cls-4" d="M1178.11,430.21s-2.29-4.28-5.66-.44c-3.37,3.85-3.66,5.2-3.66,5.2,0,0,4.88-6.15,6.1-.74"/>
      <path class="cls-12" d="M1122.97,414.48s4.3-2.3,6.91,1.28"/>
      <path class="cls-12" d="M1153.93,417.2s-10.79-6.88-24.28-1.32c0,0,.5,12.1,7.95,12.65,7.45,.55,12.69,3.83,16.33-11.33Z"/>
      <line class="cls-12" x1="1153.93" y1="417.2" x2="1173.71" y2="420.11"/>
      <path class="cls-2" d="M1168.71,473.68s-16.6,31.36-42.36,28.98c0,0-27.16-4.69-4.78-28.75"/>
      <g>
        <path class="cls-30" d="M1148.44,421.68s.04-.3-.15-.58c-.63-.93-2.14-2.7-4.82-3.05-3.01-.39-5.03,2.22-5.72,3.15-.12,.16-.13,.32-.13,.32,0,0-.03,.17,.05,.3,.41,.62,1.81,2.38,4.65,2.79,1.69,.25,4.19-.36,5.96-2.47,.12-.15,.16-.35,.17-.46Z"/>
        <circle class="cls-73" cx="1142.17" cy="421.4" r="3.13"/>
        <circle class="cls-30" cx="1144.22" cy="421.03" r=".86"/>
        <path class="cls-13" d="M1137.56,421.18s4.59-6.7,10.85-.09"/>
      </g>
      <g>
        <path class="cls-30" d="M1116.86,419.25s.08-.27-.05-.55c-.45-.94-1.58-2.78-3.99-3.48-2.7-.78-4.92,1.33-5.69,2.08-.13,.13-.16,.27-.16,.27,0,0-.05,.15,0,.28,.29,.63,1.32,2.44,3.87,3.22,1.52,.46,3.89,.26,5.81-1.42,.13-.12,.19-.3,.22-.4Z"/>
        <circle class="cls-73" cx="1111.15" cy="418.11" r="2.9"/>
        <circle class="cls-30" cx="1113.15" cy="418.13" r=".81"/>
        <path class="cls-13" d="M1107.04,417.38s5.06-5.94,9.81,1.45"/>
      </g>
      <path class="cls-20" d="M1203.63,692.22s1.56-3.91,1.22-6.3"/>
      <line class="cls-27" x1="1185.45" y1="552.28" x2="1181.46" y2="524.28"/>
      <line class="cls-27" x1="1091.01" y1="546.67" x2="1094.97" y2="515.73"/>
      <path class="cls-48" d="M1098.16,488.19c-5.26,.68-2.51,.2-10.84,.3s-2.55-8.96-2.55-8.96c-11.38,6.5-11.11-1.38-11.11-1.38-7.38,3.52-7.56-3.99-7.56-3.99-3.72-.32-3.5-2.8-1.87-7.24,1.63-4.43-4.38-7.04-4.38-7.04-8.91-2.86-1.76-8.48-1.76-8.48-13.36-9.07-2.55-8.96-2.55-8.96-4.99-9.59,2.96-10.14,2.96-10.14-12.98-8.62-.57-12.53-.57-12.53-6.89-6.84,4.38-12.1,4.38-12.1-15.89-13.45,3.56-12.17,3.56-12.17-3.5-12.37,5.78-9.07,5.78-9.07-5.64-11.73,8.1-11.78,8.1-11.78,1.76-10.67,18.58-7.95,18.58-7.95,1.48-16.93,14.69-6.21,14.69-6.21,2.46-4.36,5.6,2.57,5.6,2.57,.43-4.96,5.64-7.41,5.64-7.41,3.02-5.98,7.51-.18,7.51-.18,14.58-4.97,24.96,9.66,24.96,9.66,0,0,9.82-12.46,21.08-3.16,0,0,5.1-1.22,4.22,4.11,0,0,10.81-9.46,11.54,6,0,0,13.16-3.01,8.9,12.43,0,0,7.09-.21,5.89,8.83,0,0,8.98,2.03,4.5,10.38,0,0,12.17,3.56,7.43,10.22,0,0,3.55,6.97-1.2,9.05,0,0,6.28,4.29-2.07,9.39,0,0,9.32,2.89,4.06,10.76,0,0,2.24,7.69-4.96,9.14,0,0,6.03,7.18-.38,9.12,0,0,6.03,7.18-5.71,8.24,0,0,2.41,1.04-3.09,6.8,0,0-2.41,8.53-5.51,10.75,0,0-7.67,6.82-5.94-3.43,0,0-3.18,12.62-11.06,2.78,0,0-.18-7.51-4.17,.05-3.99,7.56-6.36,6.1-7.13,.63,0,0-5.75,8.65-10.95,1.54,0,0,3.97,7-6.14,3.63,0,0-6.55-3.28,.26-11.25,0,0-4.84-5.31,2.21-8.98s2.02-4.51,2.02-4.51c0,0-3.04-2.51,1.46-7.42,4.51-4.91,0,0,0,0,0,0-1.45-3.22,2.58-14.98s0,0,0,0c0,0,6.97,4.5,12.35-9,4.18-10.5,4.86-11.93,.22-14.83-3.73-2.32-10.05,7.87-10.05,7.87,0,0-2.82-2.31,.15-5.92,2.97-3.62,1.95-5.95,1.95-5.95,0,0-4.59-3.46-2.06-9.15,2.53-5.69-.5-5.96-.5-5.96,0,0-8.11-.5-6.58-8.73,0,0-6.12,.08-4.68-7.14,0,0-5.43,3.81-10.2-2.32-4.77-6.12-6.16,.48-6.16,.48,0,0,.21,6.95-7.39,5.27-7.6-1.68-6.97,.41-6.97,.41,0,0,.21,6.95-5.57,5.43,0,0-1.52,5.78-6.56,2.69-5.03-3.09-4.92,2.63-4.92,2.63,0,0-2.12,12.66-.85,19.09,1.27,6.43,0,0,0,0,0,0-.91,4.63-1.6,7.31s-4.07,25.09,16.72,39.2c20.79,14.11,0,0,0,0,0,0,1.19,7.31-.2,9.22"/>
      <path class="cls-12" d="M1123.01,414.26s-10.79-6.88-24.28-1.32c0,0,.5,12.1,7.95,12.65,7.45,.55,12.69,3.83,16.33-11.33Z"/>
    </g>
    <path class="cls-8" d="M1233.68,677.1s16.33,25.55,11.07,46.85"/>
    <path class="cls-8" d="M1241.85,664.29s26.92,26.54,12.3,64.63"/>
    <path class="cls-8" d="M1217.68,464.93s22.95,19.82,23.99,41.73"/>
    <path class="cls-8" d="M1221.85,450.32s33.38,17.73,30.25,58.42"/>
    <g class="cls-74">
      <g>
        <g>
          <path class="cls-61" d="M1574.72,815.67s2.71,2.03,1.35,6.09l-1.35,20.98s-4.06,4.4-14.21,3.38l-9.14-3.72v-6.09s-17.26,17.26-17.26,17.26c0,0-3.76,2.41-17.48,4.45-14.03,2.09-18.25-5.1-18.25-5.1,0,0-10.61-10.23-5.87-14.29l82.21-22.95Z"/>
          <path class="cls-49" d="M1568.29,796.72c7.68,11.79,5.64,21.23,5.64,21.23,0,0-5.4,11.61-16.13,11.25s-22.22,16.32-22.22,16.32c-6.04,4.45-23.23,7.31-23.23,7.31-12.11,2.02-8.7-4.91-8.7-4.91-4.94,.24-3.01-3.48-3.01-3.48-4.46,1.13-3.07-2.53-3.07-2.53-2.45-1.56-.79-3.63-.79-3.63-1.9-.48-.62-1.73-.07-2.07,2.07-1.31,3.77-1.52,3.77-1.52l10.61-2.04,6.21-2.85,8.14-9.05c7.66-9.7,9.7-16.33,9.7-16.33l-.41-8.98-8.1-61.13,13.32-2.88,32.45,8.38s-.99,28.05-3.92,38.31c-2.93,10.26-.19,18.61-.19,18.61"/>
          <path class="cls-14" d="M1503.65,847.92s.57-2.74,4.89-3.27"/>
          <path class="cls-14" d="M1500.64,844.45s2.39-3.32,5.56-3.17"/>
          <path class="cls-14" d="M1497.57,841.92s2.58-3.67,6.09-3.71"/>
          <path class="cls-14" d="M1496.78,838.29s1.79-2.53,4.64-2.58"/>
          <path class="cls-61" d="M1562.2,829.54l4.74-12.18,9.14,4.4s3.05-2.71-1.35-6.09c-4.4-3.38-7.11-3.38-7.11-3.38l4.4-8.12s-1.02-7.11-3.72-7.44c0,0-1.69,8.12-4.74,11.84,0,0-15.71-3.94-28.56-8.68l-.88,5.2,29.1,9.23-5.41,14.89,4.4,.34Z"/>
          <path class="cls-61" d="M1518.22,828.27s3.15,6.77,17.36,17.25c0,0-5.56,8.1-11.99,8.1,0,0-6.59-19.98-16.41-19.98,0,0,8.33-6.05,11.04-5.37Z"/>
        </g>
        <g>
          <path class="cls-61" d="M1608.27,825.34s2.71,2.03,1.35,6.09l-1.35,20.98s-4.06,4.4-14.21,3.38l-9.14-3.72v-6.09s-17.26,17.26-17.26,17.26c0,0-3.76,2.41-17.48,4.45-14.03,2.09-21.04-3.28-21.04-3.28,0,0-14.14-9.52-9.4-13.58l88.53-25.49Z"/>
          <path class="cls-49" d="M1571.03,798.18c.28-23.6-4.56-53.62-4.56-53.62,0,0,37.71-15.48,41.37,.8,3.66,16.28-3.93,42.43-3.93,42.43-3.37,17.42,.56,24.44,.56,24.44,5.83,10.52,1.69,18.26,1.69,18.26,0,0-3.56,7.53-14.8,8.39-10.48,.79-23.97,18.3-23.97,18.3-7.31,8.99-19.62,6.28-19.62,6.28-2.95,1.01-4.79-1.27-4.79-1.27-5.76,.71-6.96-2.26-6.96-2.26-5.37,.56-7.47-2.88-7.47-2.88-3.31,.78-4.78-3.17-4.78-3.17-3.95-3.83-2.71-4.84-1.3-7.34s10.05-1.4,10.05-1.4l12.25-3.32,7.02-3.87,8.58-12.23c4.78-5.62,7.31-10.96,7.31-10.96l3.37-16.58Z"/>
          <path class="cls-14" d="M1534.9,847.38l-6.3,2.35s-4.18,.68-4.83,4.15"/>
          <path class="cls-14" d="M1538.3,849.82s-10.5,3.17-10,5.82l.24,1.4"/>
          <path class="cls-14" d="M1542.04,853.84s-6,1.75-6.04,6.09"/>
          <path class="cls-14" d="M1545.36,858.71s-3.12,.8-2.39,3.48"/>
          <path class="cls-61" d="M1595.75,839.22l4.74-12.18,9.14,4.4s3.05-2.71-1.35-6.09c-4.4-3.38-7.11-3.38-7.11-3.38l4.4-8.12s-1.02-7.11-3.72-7.44c0,0-1.69,8.12-4.74,11.84,0,0-15.71-3.94-28.56-8.68l-.88,5.2,29.1,9.23-5.41,14.89,4.4,.34Z"/>
          <path class="cls-14" d="M1566.57,817.42l-14.79,20.53-9.67,4.95-9.6,2.24s-12.2-2.13-11.32,5.4"/>
          <path class="cls-61" d="M1551.77,837.95s3.15,6.77,17.36,17.25c0,0-5.56,8.1-11.99,8.1,0,0-6.59-19.98-16.41-19.98,0,0,8.33-6.05,11.04-5.37Z"/>
          <line class="cls-14" x1="1570.18" y1="771.25" x2="1567.29" y2="750.98"/>
        </g>
        <g>
          <path class="cls-36" d="M1354.74,784.72l-17.04,35.44,4.76,6.27s104.86,8.24,144.69-18.33l2.07-4.53-24.76-29.82"/>
          <path class="cls-30" d="M1354.74,784.72s61.4-1.21,109.72-10.97c0,0,4.4-.45,1.1-7.01l-36.65,3.45s-5.75-1.16-11.43-5.07l-1.53-4.97s-6.87,5.42-12.33,1.72l.65,4.18s-5.34,6.39-11.79,7.79l-31.66,2.34s-10.03,1.38-6.07,8.54Z"/>
          <path class="cls-46" d="M1411.89,425.7l4.05,334.46s-3.52,7.85-12.33,1.72l-2.73-335.27s3.96-7.05,11.01-.9Z"/>
          <line class="cls-26" x1="1359.49" y1="784.84" x2="1347.41" y2="819.98"/>
          <line class="cls-26" x1="1366.46" y1="784.23" x2="1357.57" y2="823.8"/>
          <line class="cls-26" x1="1375.98" y1="784.5" x2="1374.65" y2="823.92"/>
          <line class="cls-26" x1="1391.3" y1="783.23" x2="1392.39" y2="824.18"/>
          <line class="cls-26" x1="1404.59" y1="781.88" x2="1406.85" y2="823.75"/>
          <line class="cls-26" x1="1421.95" y1="780.69" x2="1427.5" y2="821.54"/>
          <line class="cls-26" x1="1413.2" y1="781.61" x2="1415.93" y2="812.98"/>
          <line class="cls-26" x1="1436.28" y1="779.21" x2="1442.97" y2="817.9"/>
          <line class="cls-26" x1="1451.51" y1="817.96" x2="1445.56" y2="777.38"/>
          <line class="cls-26" x1="1455.75" y1="776.07" x2="1460.86" y2="805.87"/>
          <line class="cls-26" x1="1428" y1="779.55" x2="1432.5" y2="812.31"/>
          <line class="cls-26" x1="1382.3" y1="783.76" x2="1382.45" y2="817.67"/>
          <line class="cls-26" x1="1398.67" y1="782.36" x2="1400.11" y2="819.96"/>
          <line class="cls-26" x1="1370.27" y1="784" x2="1365.95" y2="818.01"/>
        </g>
        <path class="cls-49" d="M1478.91,393.24s-5.01,33.35-8.66,68.73c0,0-27.05,2.06-46.33,5.03,0,0-6.93-14.64-6.72-16.9,.81-8.94-3.3-8.17-3.3-8.17,0,0-2.03,.54-1.78,3.63s.28,17.83,.28,17.83c0,0-8.39-1.22-11.21-.99v-5.25s-12.92,2.43-12.14,9.28c0,0-.23,2.69,.86,5.06,0,0-3.18,2.04-.98,9.89,0,0-2.49,5.11,1.2,9.27,0,0-3.27,9.18,5.2,9.17s26.11-5.23,26.11-5.23l2.75-1.78s64.41,5.63,75.85-4.65c0,0,7.45-29.73,7.76-58.97"/>
        <path class="cls-15" d="M1394.65,483.08s17.63-.64,20.76-2.94c3.13-2.31-.29-5.5-.29-5.5-1.14-2.43-20.49-1.88-20.49-1.88,0,0,18.89,.26,22.34-.9,4.62-1.56,.44-5.97,.44-5.97-8.54-4.54-21.33-3.37-21.33-3.37,0,0,4.28-.09,5.24-1.1"/>
        <path class="cls-15" d="M1396.35,490.37s12.99-1.37,15.62-.16c2.62,1.21,3.14,5.59,.22,6.61"/>
        <path class="cls-15" d="M1411.27,481.58s5.16-.58,4.91,2.13c0,0,3.63,5.86-4.21,6.5"/>
        <path class="cls-49" d="M1580.39,282.62s-2.15,21.58,3.65,34.42c0,0,5.31,60.06-43.48,61.58,0,0-36.38-9.8-14.31-56.95,0,0,8.78-3.43,8.97-11.92,.2-9-1.16,.15-1.16,.15l46.33-27.29"/>
        <path class="cls-63" d="M1629.19,503.12s32.04,68.62,1.61,127.32l-10.63,47.53s-7.9,19.96-4.99,50.32c1.85,19.31-2.75,46.65-7.64,72.19,0,0-12.97,13.4-35.98,2.5,0,0-19.47,8.01-41.21-2.32l-35.22-83.76s-9.29-14.57-9.29-29.78c0,0-7.21-107.14,1.48-176.16,0,0,59.24,41.3,141.87-7.83Z"/>
        <path class="cls-49" d="M1576.53,264.95s-5.37-45.17-46.13-45.26c0,0-28.87,2.32-23.88,42.96,0,0,2.1,6.42,1.27,9.98,0,0-1.56,9.11,3.46,17.17,7.51,12.07,14.56,20.6,14.56,20.6,0,0,4.4,5.7,14.49,5.04,0,0,7.07-.75,15.64-7.24,0,0,22-12.14,19.8-25.45,0,0,10.49,5.86,13.7-10.34,0,0,2.17-22.25-12.91-7.45Z"/>
        <path class="cls-73" d="M1538.27,253.96s13.34-5.6,20.1-1.7c0,0-5.39-6.75-20.75-1.55,0,0-2.57,2.36,.65,3.25Z"/>
        <path class="cls-73" d="M1504.93,253.41c.27-.74,7.27-1.24,13.76-.2,0,0,2.93,1.89-.1,3.31,0,0-11.8-3.52-13.46,.32,0,0-.87-1.6-.2-3.43Z"/>
        <path class="cls-4" d="M1524.33,274.29s-4.92,8.83,4.97,8.99"/>
        <path class="cls-4" d="M1587.72,268.02s-4.34-9.11-10.29,6.64c0,0,5.57-7.2,7.14-1.57"/>
        <path class="cls-73" d="M1534.41,314.98s3.36,2.61,13.85-2.1c0,0,9.19-3.96,16.4-10.84,0,0-8.89,11.72-22.04,14.48,0,0-3.45,1.35-8.62-.01,0,0,.76-.15,.4-1.53Z"/>
        <path class="cls-8" d="M1571.55,802.97l-25.42-99.62s-3.24-19.44-1.62-44.56l3.24-69.67s-4.54-.95-9.1-5.87"/>
        <g>
          <path class="cls-30" d="M1553.45,261.15s-.01-.3-.25-.54c-.77-.79-2.54-2.25-5.21-2.13-2.98,.14-4.5,3.02-5.01,4.05-.09,.18-.07,.33-.07,.33,0,0,0,.17,.1,.28,.5,.53,2.16,2,4.99,1.91,1.68-.05,4-1.07,5.36-3.42,.09-.16,.09-.37,.08-.47Z"/>
          <circle class="cls-73" cx="1547.32" cy="261.96" r="3.09"/>
          <circle class="cls-30" cx="1549.17" cy="260.4" r=".85"/>
          <path class="cls-13" d="M1542.81,262.54s3.29-7.29,10.51-1.96"/>
        </g>
        <g>
          <path class="cls-30" d="M1518.8,265.31s.03-.28-.15-.54c-.61-.85-2.04-2.46-4.54-2.72-2.8-.3-4.61,2.17-5.24,3.05-.11,.15-.11,.29-.11,.29,0,0-.03,.15,.06,.27,.39,.56,1.73,2.17,4.37,2.49,1.57,.19,3.87-.42,5.47-2.41,.11-.14,.14-.33,.14-.43Z"/>
          <circle class="cls-73" cx="1512.98" cy="265.19" r="2.9"/>
          <circle class="cls-30" cx="1515.01" cy="264.05" r=".81"/>
          <path class="cls-13" d="M1508.82,265.19s3.94-6.73,9.91-.29"/>
        </g>
        <path class="cls-30" d="M1584.04,317.04s3.34,6.13,21.17,11.84c17.84,5.71,42.69,43.1,42.69,43.1,0,0-6.2,26.01-36.81,38.33l18.62,92.6s-34.61,28.54-90.26,23.9c0,0-34.29-.17-52.12-15.87,0,0,6.71-36.81,7.06-71.06,0,0-10.6-19.39-10.24-35.8l-4.99-11.77,4.28-33.54s3.57-22.48,27.47-31.75c0,0,8.92-1.78,15.34-5.35,0,0-4.28,24.62-1.78,34.25,0,0,16.41,18.2,48.52-.71,0,0,11.42-14.63,11.06-38.17Z"/>
        <path class="cls-21" d="M1650.64,532.58s1.4-1.98,8.28-4.55c6.89-2.57,6.61,4.12,6.61,4.12l-10.76,5.66-4.13-5.23Z"/>
        <path class="cls-49" d="M1657.49,455.36c-5.08,5.26-36.59,53.18-36.59,53.18l7.25,27.77c3.52,6.25,23.51,13.76,23.51,13.76,9.02-1.16,19.35-13.4,19.35-13.4,3.3-3.11,.66-5.82-2.02-6.35-2.68-.53-13.33,6.49-13.33,6.49-3.5-10.76-12.01-18.01-12.01-18.01,22.77-12.96,48.04-61.41,48.04-61.41,3.61-7.17-.68-11.86-.68-11.86-1.05-2.2-6.77-11.86-6.77-11.86-12.09-29.22-37.88-57.92-37.88-57.92,0,0-31.74,1.51-35.28,34.55,0,0,43.79,43.09,46.4,45.05"/>
        <path class="cls-21" d="M1652.26,530.97s2.21,1.79,3.49,5.56c0,0,6.65-4.01,9.85-5.25"/>
        <line class="cls-25" x1="1484.15" y1="404.09" x2="1486.65" y2="377.47"/>
        <line class="cls-25" x1="1611.09" y1="410.31" x2="1601.89" y2="392.51"/>
        <path class="cls-69" d="M1523.1,226.63s29,45.25,65.71,42.94c0,0-2.18,16.14-13.32,13.54,0,0-4.43,22.22,6.84,33.46,0,0,14.31,10.7,25.03,14.02,10.04,3.11,19.43,14.53,19.43,14.53,0,0-19.91-22.69-21.26-62.4-1.35-39.71-21.82-59.86-21.82-59.86,0,0-26.58-34.24-60.77-12.26,0,0-19.12,2.25-25.96,21.2-3.96,10.96-1.7,30.56,.26,46.2,0,0,3.94,37.82,21.35,47.51,0,0,15.54-.96,16.63-10.33,0,0-3.9-.16-8.42-4.94-6.17-6.53-10.61-12.74-15.24-20.41,0,0-5-7.64-3.17-18.28,0,0,.46-5.56-1.4-8.63,0,0-4.19-22.8,16.11-36.3"/>
        <path class="cls-9" d="M1579.87,276.19s6.21,7.95,.74,13.57c-5.47,5.62-3.41-7.17-3.41-7.17"/>
        <path class="cls-53" d="M1526.57,296.95s3.11-6.03,8.93-5.11c0,0,3.85-3.39,12.83,1.01,0,0-3.28,5.93-11.21,6.74-7.94,.82-10.54-2.65-10.54-2.65Z"/>
        <path class="cls-13" d="M1526.57,296.95s15.25-4.11,21.76-4.09"/>
      </g>
    </g>
  </g>
</svg>