<?xml version="1.0" encoding="UTF-8"?>
<svg xmlns="http://www.w3.org/2000/svg" xmlns:xlink="http://www.w3.org/1999/xlink" viewBox="0 0 1626.16 1145.21">
  <defs>
    <style>
      .cls-1, .cls-2, .cls-3, .cls-4, .cls-5, .cls-6, .cls-7, .cls-8, .cls-9, .cls-10, .cls-11, .cls-12, .cls-13, .cls-14, .cls-15, .cls-16 {
        fill: none;
      }

      .cls-2 {
        stroke: #75308e;
        stroke-width: 1.5px;
      }

      .cls-2, .cls-17, .cls-18, .cls-3, .cls-19, .cls-20, .cls-21, .cls-22, .cls-4, .cls-23, .cls-24, .cls-25, .cls-26, .cls-27, .cls-5, .cls-6, .cls-7, .cls-8, .cls-9, .cls-10, .cls-11, .cls-12, .cls-13, .cls-14, .cls-15, .cls-16 {
        stroke-miterlimit: 10;
      }

      .cls-28 {
        fill: url(#linear-gradient);
      }

      .cls-29 {
        clip-path: url(#clippath);
      }

      .cls-17 {
        stroke: #6d6e71;
        stroke-width: .3px;
      }

      .cls-17, .cls-30, .cls-22, .cls-25, .cls-27 {
        fill: #fff;
      }

      .cls-31 {
        fill: #f8c184;
      }

      .cls-32 {
        fill: #006087;
      }

      .cls-33, .cls-23 {
        fill: #006386;
      }

      .cls-34 {
        fill: #00628a;
      }

      .cls-35, .cls-24 {
        fill: #0098bd;
      }

      .cls-36, .cls-26 {
        fill: #f15953;
      }

      .cls-37 {
        fill: #f6c463;
      }

      .cls-38 {
        fill: #fff200;
      }

      .cls-39 {
        fill: #ffcb05;
      }

      .cls-40 {
        fill: #feec7f;
      }

      .cls-41 {
        fill: #803435;
      }

      .cls-42 {
        fill: #98d9e9;
      }

      .cls-43 {
        fill: #9a6c3f;
      }

      .cls-44 {
        fill: #9ecb54;
      }

      .cls-45 {
        fill: #8b5e3c;
      }

      .cls-46 {
        fill: #9054a2;
      }

      .cls-47 {
        fill: #301c12;
      }

      .cls-48 {
        fill: #bf7c7c;
      }

      .cls-49, .cls-20, .cls-21 {
        fill: #be9e7d;
      }

      .cls-50 {
        fill: #be8c8c;
      }

      .cls-51 {
        fill: #bde4e0;
      }

      .cls-52 {
        fill: #dad0c1;
      }

      .cls-53 {
        fill: #bf6b6b;
      }

      .cls-54 {
        fill: #c4dd82;
      }

      .cls-55 {
        fill: #d1d3d4;
      }

      .cls-56 {
        fill: #d5b79f;
      }

      .cls-57, .cls-19 {
        fill: #dcbf97;
      }

      .cls-58 {
        fill: #db7777;
      }

      .cls-59 {
        fill: #e2ae6d;
      }

      .cls-60 {
        fill: #134a7e;
      }

      .cls-61 {
        fill: #231f20;
      }

      .cls-62 {
        fill: #414042;
      }

      .cls-63 {
        fill: #0f3e5d;
      }

      .cls-64 {
        fill: #95b3b0;
      }

      .cls-65 {
        fill: #6ca442;
      }

      .cls-66 {
        fill: #808285;
      }

      .cls-67 {
        fill: #288348;
      }

      .cls-68 {
        fill: #288649;
      }

      .cls-69 {
        fill: #3c2415;
      }

      .cls-70 {
        fill: #3ba05e;
      }

      .cls-71 {
        fill: #3aa362;
      }

      .cls-72 {
        fill: #754c29;
      }

      .cls-73 {
        fill: #26130f;
      }

      .cls-18 {
        fill: #bd9154;
        stroke: #006838;
      }

      .cls-18, .cls-4 {
        stroke-width: 10px;
      }

      .cls-74 {
        clip-path: url(#clippath-1);
      }

      .cls-3 {
        stroke-width: .7px;
      }

      .cls-3, .cls-7, .cls-13 {
        stroke: #231f20;
      }

      .cls-19, .cls-20, .cls-21, .cls-13, .cls-14, .cls-15, .cls-16 {
        stroke-width: .5px;
      }

      .cls-19, .cls-20, .cls-4, .cls-15 {
        stroke: #754c29;
      }

      .cls-21, .cls-14 {
        stroke: #603913;
      }

      .cls-22 {
        stroke: #9a6c3f;
        stroke-width: 8px;
      }

      .cls-23, .cls-9 {
        stroke: #fff;
      }

      .cls-24 {
        stroke: #196bac;
      }

      .cls-25 {
        stroke: #808285;
      }

      .cls-26 {
        stroke: #be1e2d;
      }

      .cls-27 {
        stroke: #662d91;
      }

      .cls-5 {
        stroke-width: .2px;
      }

      .cls-5, .cls-11, .cls-16 {
        stroke: #a97c50;
      }

      .cls-75 {
        fill: url(#linear-gradient-2);
      }

      .cls-6 {
        stroke: #0c3149;
      }

      .cls-8 {
        stroke: #fbb040;
      }

      .cls-10 {
        stroke: #ed1c24;
      }

      .cls-12 {
        stroke: #a579b5;
      }
    </style>
    <clipPath id="clippath">
      <rect class="cls-1" x="262.17" y="123.85" width="1333.95" height="998.06"/>
    </clipPath>
    <clipPath id="clippath-1">
      <rect class="cls-1" x="97.82" y="413.21" width="1013.54" height="589.51"/>
    </clipPath>
    <linearGradient id="linear-gradient" x1="484.15" y1="454.03" x2="484.15" y2="445.49" gradientTransform="translate(-37.59 46.41) rotate(-4.33)" gradientUnits="userSpaceOnUse">
      <stop offset="0" stop-color="#a97c50"/>
      <stop offset="1" stop-color="#fff" stop-opacity="0"/>
    </linearGradient>
    <linearGradient id="linear-gradient-2" x1="526.93" y1="454.28" x2="526.93" y2="446.53" xlink:href="#linear-gradient"/>
  </defs>
  <g id="fondo">
    <g class="cls-29">
      <g>
        <rect class="cls-51" x="98.41" width="1526.46" height="1014.05"/>
        <rect class="cls-59" x="97.69" y="995.9" width="1528" height="149.31"/>
        <g>
          <path class="cls-65" d="M1227.68,691.31s-35.38-34.04-15.98-83.47c19.4-49.43,70.91-66.81,70.91-66.81,0,0-13.23,33.03-11.1,56.68,2.13,23.65-15.12,85.58-43.83,93.6Z"/>
          <path class="cls-70" d="M1241.13,792.59s6.37-51.53,60.51-66.45c54.14-14.92,101.51,17.65,101.51,17.65,0,0-36.34,9.75-55.01,26.55-18.67,16.8-82.01,41.47-107.01,22.26Z"/>
          <path class="cls-67" d="M1203.22,807.18s26.3-44.76,81.92-36.97c55.62,7.79,86.16,56.49,86.16,56.49,0,0-37.22-5.48-61.03,2.53-23.81,8.01-91.73,5.51-107.05-22.04Z"/>
          <path class="cls-68" d="M1226,795.42s12.92-43.55-25.27-74.46c-38.19-30.91-87.57-21.37-87.57-21.37,0,0,25.73,20.53,34.82,40.54,9.09,20,51.25,61.95,78.01,55.29Z"/>
          <path class="cls-71" d="M1125.28,632.96s46.4-11.59,84.68,35.32c38.28,46.91,11.84,59.24,11.84,59.24,0,0-89.59-39.79-96.52-94.56Z"/>
          <line class="cls-18" x1="1223.46" y1="852.61" x2="1223.46" y2="818.2"/>
          <path class="cls-67" d="M1233.49,768.21s-26.18-41.53,4.51-84.87c30.7-43.34,84.87-47.85,84.87-47.85,0,0-20.77,28.89-24.38,52.36-3.61,23.47-35.21,79.45-65,80.35Z"/>
          <path class="cls-65" d="M1223.4,812.32s-6.37-51.53-60.51-66.45c-54.14-14.92-101.51,17.65-101.51,17.65,0,0,36.34,9.75,55.01,26.55,18.67,16.8,82.01,41.47,107.01,22.26Z"/>
          <path class="cls-70" d="M1228.72,802.99s-33.07-40.02-86.75-23.5c-53.68,16.52-76.11,69.45-76.11,69.45,0,0,35.88-11.32,60.66-7.19,24.77,4.13,91.45-9.12,102.2-38.75Z"/>
          <path class="cls-44" d="M1287.78,701.35s-47.67,3.87-68.93,60.56c-21.26,56.69,7.73,59.91,7.73,59.91,0,0,72.15-66.35,61.2-120.47Z"/>
          <path class="cls-54" d="M1180.71,615.85s-2.51,48.91,44.52,87.16c0,0,30.1-12.54-3.76-61.45,0,0-16.93-23.2-40.76-25.71Z"/>
          <path class="cls-31" d="M1140.38,849.39h169.56s5.89,93.02-30.61,148.36h-102.44s-37.68-31.79-36.5-148.36Z"/>
          <path class="cls-30" d="M1143.9,914.97s1.81,14.47,5.43,23.51c0,0,72.96,20.5,152.54,0,0,0,2.41-7.24,4.82-24.72,0,0-78.98,18.69-162.79,1.21Z"/>
          <path class="cls-30" d="M1142.9,900.31s-.31,6.23,.94,7.79c0,0,84.06,21.12,163.65,.62,0,0-1.48,10,.94-7.48,0,0-83.85,22.44-165.52-.94Z"/>
        </g>
        <rect class="cls-1" x="1057.82" y="543.36" width="217.86" height="452.55"/>
        <g>
          <rect class="cls-22" x="437.49" y="219.77" width="154" height="116.16"/>
          <rect class="cls-34" x="450.97" y="232.61" width="125.77" height="89.84"/>
        </g>
        <g>
          <rect class="cls-43" x="1036.27" y="273.76" width="203.3" height="20.05"/>
          <rect class="cls-43" x="1047.1" y="293.26" width="11.66" height="39.51"/>
          <rect class="cls-43" x="1220.08" y="293.26" width="11.66" height="39.51"/>
          <path class="cls-36" d="M1131.44,149.9v123.95h-21.96v-123.95s11.2-6.12,21.96,0Z"/>
          <path class="cls-71" d="M1153.09,157.25v116.6h-21.96v-116.6s11.2-5.76,21.96,0Z"/>
          <path class="cls-33" d="M1087.88,169.11v104.74h-21.96v-104.74s11.2-5.17,21.96,0Z"/>
          <path class="cls-42" d="M1191.85,175.38l19.58,95.74-14.7,3.01-19.58-95.74s6.53-6.26,14.7-3.01Z"/>
          <path class="cls-39" d="M1178.86,167.79v106.06h-25.84v-106.06s13.18-5.24,25.84,0Z"/>
          <path class="cls-10" d="M1162.34,175.02h6.06s-1.25,7.32,4.6,7.53v80.48s-5.02-.42-4.18,6.69h-5.85s1.46-6.06-4.18-6.69v-80.9s4.6,.63,3.55-7.11Z"/>
          <line class="cls-10" x1="1163.6" y1="186.3" x2="1163.6" y2="258.01"/>
          <line class="cls-10" x1="1167.99" y1="186.3" x2="1167.99" y2="258.01"/>
          <polygon class="cls-10" points="1187.07 191.11 1183.53 202.67 1190.84 210.92 1194.61 200.07 1187.07 191.11"/>
          <polygon class="cls-10" points="1197.92 240.17 1194.38 251.72 1201.69 259.98 1205.46 249.13 1197.92 240.17"/>
          <line class="cls-9" x1="1111.55" y1="161.89" x2="1128.41" y2="161.89"/>
          <line class="cls-9" x1="1111.55" y1="262.47" x2="1128.41" y2="262.47"/>
          <line class="cls-9" x1="1111.55" y1="210.8" x2="1128.41" y2="210.8"/>
          <path class="cls-36" d="M1108.98,149.9v123.95h-21.96v-123.95s11.2-6.12,21.96,0Z"/>
          <line class="cls-9" x1="1089.1" y1="161.89" x2="1105.95" y2="161.89"/>
          <line class="cls-9" x1="1089.1" y1="262.47" x2="1105.95" y2="262.47"/>
          <line class="cls-9" x1="1089.1" y1="210.8" x2="1105.95" y2="210.8"/>
          <circle class="cls-30" cx="1141.44" cy="171.41" r="2.52"/>
          <circle class="cls-30" cx="1141.44" cy="261.62" r="2.52"/>
          <line class="cls-23" x1="1075.5" y1="174" x2="1075.5" y2="267.36"/>
        </g>
        <rect class="cls-64" x="1514.83" y="57.34" width="111.33" height="868.76"/>
        <rect class="cls-59" x="1519.71" y="926.1" width="105.62" height="70.78"/>
        <polyline class="cls-4" points="1625.64 54.26 1514.83 54.26 1514.83 997.71"/>
        <g class="cls-74">
          <g>
            <rect class="cls-32" x="116.76" y="844.99" width="864.39" height="26.45"/>
            <path class="cls-35" d="M137.76,490.81h378.7c19.72,0,35.74,16.01,35.74,35.74v227.76c0,.21-.17,.38-.38,.38H137.76c-19.72,0-35.74-16.01-35.74-35.74v-192.41c0-19.72,16.01-35.74,35.74-35.74Z"/>
            <rect class="cls-35" x="134.67" y="863.68" width="832.58" height="83.67" rx="15.96" ry="15.96"/>
            <path class="cls-72" d="M79.74,995.68h-24.71c-8.49,0-16.02-5.43-18.7-13.48l-10.16-30.48H112.62l-17.1,34.21c-2.99,5.97-9.09,9.75-15.77,9.75Z"/>
            <path class="cls-35" d="M587.78,490.81h414.36s.08,.03,.08,.08v228.07c0,19.72-16.01,35.74-35.74,35.74h-378.7c-19.72,0-35.74-16.01-35.74-35.74v-192.41c0-19.72,16.01-35.74,35.74-35.74Z" transform="translate(1554.25 1245.51) rotate(-180)"/>
            <path class="cls-72" d="M1024.49,995.68h24.71c8.49,0,16.02-5.43,18.7-13.48l10.16-30.48h-86.45s17.1,34.21,17.1,34.21c2.99,5.97,9.09,9.75,15.77,9.75Z"/>
            <rect class="cls-24" x="960.43" y="641.73" width="141.6" height="310.1" rx="35.2" ry="35.2"/>
            <rect class="cls-24" x=".5" y="641.73" width="141.6" height="310.1" rx="35.2" ry="35.2" transform="translate(142.6 1593.55) rotate(-180)"/>
            <rect class="cls-24" x="134.67" y="741.65" width="417.53" height="123.43" rx="15.96" ry="15.96"/>
            <rect class="cls-24" x="552.04" y="741.65" width="417.53" height="123.43" rx="15.96" ry="15.96" transform="translate(1521.61 1606.74) rotate(-180)"/>
            <line class="cls-24" x1="552.04" y1="531.74" x2="552.04" y2="759.93"/>
          </g>
        </g>
      </g>
    </g>
  </g>
  <g id="Layer_1" data-name="Layer 1">
    <g>
      <g>
        <path class="cls-61" d="M1407.99,1034.1s3.51,2.64,1.76,7.91l-1.76,27.23s-5.27,5.71-18.45,4.39l-11.86-4.83v-7.91s-22.4,22.4-22.4,22.4c0,0-4.88,3.13-22.69,5.78-18.21,2.71-23.69-6.62-23.69-6.62,0,0-13.77-13.28-7.62-18.55l106.71-29.8Z"/>
        <path class="cls-49" d="M1399.64,1009.5c9.97,15.3,7.32,27.56,7.32,27.56,0,0-7,15.07-20.93,14.61-13.93-.46-28.84,21.19-28.84,21.19-7.84,5.77-30.16,9.49-30.16,9.49-15.72,2.63-11.3-6.38-11.3-6.38-6.41,.31-3.91-4.51-3.91-4.51-5.78,1.47-3.98-3.28-3.98-3.28-3.18-2.02-1.03-4.71-1.03-4.71-2.47-.62-.81-2.24-.09-2.69,2.68-1.7,4.89-1.98,4.89-1.98l13.78-2.65,8.06-3.69,10.56-11.75c9.94-12.59,12.59-21.2,12.59-21.2l-.53-11.66-10.51-79.35,17.29-3.74,42.13,10.87s-1.29,36.41-5.09,49.73c-3.81,13.32-.25,24.15-.25,24.15"/>
        <path class="cls-14" d="M1315.73,1075.97s.73-3.55,6.35-4.25"/>
        <path class="cls-14" d="M1311.83,1071.45s3.1-4.31,7.22-4.12"/>
        <path class="cls-14" d="M1307.85,1068.17s3.35-4.77,7.9-4.81"/>
        <path class="cls-14" d="M1306.82,1063.47s2.32-3.29,6.02-3.35"/>
        <path class="cls-61" d="M1391.74,1052.11l6.15-15.81,11.86,5.71s3.95-3.51-1.76-7.91c-5.71-4.39-9.22-4.39-9.22-4.39l5.71-10.54s-1.32-9.22-4.83-9.66c0,0-2.2,10.54-6.15,15.37,0,0-20.39-5.11-37.08-11.26l-1.14,6.74,37.78,11.99-7.03,19.32,5.71,.44Z"/>
        <path class="cls-61" d="M1334.65,1050.46s4.09,8.78,22.53,22.4c0,0-7.22,10.51-15.56,10.51,0,0-8.56-25.94-21.3-25.94,0,0,10.81-7.85,14.32-6.97Z"/>
      </g>
      <g>
        <path class="cls-61" d="M1451.54,1046.66s3.51,2.64,1.76,7.91l-1.76,27.23s-5.27,5.71-18.45,4.39l-11.86-4.83v-7.91s-22.4,22.4-22.4,22.4c0,0-4.88,3.13-22.69,5.78-18.21,2.71-27.32-4.26-27.32-4.26,0,0-18.35-12.36-12.2-17.63l114.92-33.08Z"/>
        <path class="cls-49" d="M1403.2,1011.4c.36-30.64-5.92-69.6-5.92-69.6,0,0,48.95-20.1,53.7,1.04,4.75,21.14-5.11,55.07-5.11,55.07-4.38,22.61,.73,31.73,.73,31.73,7.56,13.66,2.19,23.71,2.19,23.71,0,0-4.62,9.78-19.21,10.89-13.6,1.03-31.12,23.76-31.12,23.76-9.48,11.67-25.46,8.15-25.46,8.15-3.83,1.31-6.22-1.65-6.22-1.65-7.48,.92-9.04-2.93-9.04-2.93-6.97,.73-9.69-3.74-9.69-3.74-4.29,1.02-6.21-4.11-6.21-4.11-5.13-4.98-3.51-6.28-1.69-9.53,1.82-3.25,13.04-1.82,13.04-1.82l15.89-4.3,9.11-5.03,11.14-15.88c6.2-7.29,9.48-14.22,9.48-14.22l4.38-21.52Z"/>
        <path class="cls-14" d="M1356.29,1075.26l-8.18,3.05s-5.43,.88-6.27,5.39"/>
        <path class="cls-14" d="M1360.71,1078.44s-13.63,4.11-12.97,7.56l.31,1.82"/>
        <path class="cls-14" d="M1365.57,1083.65s-7.79,2.27-7.84,7.91"/>
        <path class="cls-14" d="M1369.88,1089.97s-4.05,1.04-3.11,4.52"/>
        <path class="cls-61" d="M1435.28,1064.67l6.15-15.81,11.86,5.71s3.95-3.51-1.76-7.91c-5.71-4.39-9.22-4.39-9.22-4.39l5.71-10.54s-1.32-9.22-4.83-9.66c0,0-2.2,10.54-6.15,15.37,0,0-20.39-5.11-37.08-11.26l-1.14,6.74,37.78,11.99-7.03,19.32,5.71,.44Z"/>
        <path class="cls-14" d="M1397.4,1036.38l-19.2,26.64-12.55,6.43-12.46,2.9s-15.83-2.77-14.69,7.01"/>
        <path class="cls-61" d="M1378.2,1063.02s4.09,8.78,22.53,22.4c0,0-7.22,10.51-15.56,10.51,0,0-8.56-25.94-21.3-25.94,0,0,10.81-7.85,14.32-6.97Z"/>
        <line class="cls-14" x1="1402.1" y1="976.44" x2="1398.34" y2="950.13"/>
      </g>
      <g>
        <path class="cls-36" d="M1122.44,993.93l-22.11,46.01,6.18,8.14s136.11,10.7,187.81-23.79l2.69-5.88-32.14-38.71"/>
        <path class="cls-30" d="M1122.44,993.93s79.71-1.56,142.42-14.24c0,0,5.71-.58,1.42-9.09l-47.58,4.48s-7.46-1.51-14.84-6.58l-1.99-6.45s-8.91,7.04-16,2.23l.84,5.42s-6.93,8.3-15.3,10.12l-41.1,3.04s-13.02,1.79-7.87,11.08Z"/>
        <path class="cls-45" d="M1196.63,527.91l5.25,434.14s-4.57,10.19-16,2.23l-3.54-435.19s5.14-9.15,14.29-1.17Z"/>
        <line class="cls-26" x1="1128.61" y1="994.09" x2="1112.93" y2="1039.69"/>
        <line class="cls-26" x1="1137.65" y1="993.3" x2="1126.11" y2="1044.65"/>
        <line class="cls-26" x1="1150.02" y1="993.64" x2="1148.29" y2="1044.81"/>
        <line class="cls-26" x1="1169.9" y1="991.99" x2="1171.32" y2="1045.14"/>
        <line class="cls-26" x1="1187.15" y1="990.24" x2="1190.09" y2="1044.6"/>
        <line class="cls-26" x1="1209.68" y1="988.7" x2="1216.89" y2="1041.72"/>
        <line class="cls-26" x1="1198.32" y1="989.89" x2="1201.87" y2="1030.61"/>
        <line class="cls-26" x1="1228.29" y1="986.78" x2="1236.97" y2="1037"/>
        <line class="cls-26" x1="1248.06" y1="1037.08" x2="1240.33" y2="984.39"/>
        <line class="cls-26" x1="1253.56" y1="982.7" x2="1260.2" y2="1021.39"/>
        <line class="cls-26" x1="1217.54" y1="987.22" x2="1223.37" y2="1029.74"/>
        <line class="cls-26" x1="1158.21" y1="992.68" x2="1158.41" y2="1036.69"/>
        <line class="cls-26" x1="1179.47" y1="990.87" x2="1181.33" y2="1039.67"/>
        <line class="cls-26" x1="1142.6" y1="992.99" x2="1137" y2="1037.14"/>
      </g>
      <path class="cls-49" d="M1283.62,485.77s-6.5,43.29-11.24,89.21c0,0-35.12,2.67-60.14,6.53,0,0-9-19-8.73-21.94,1.05-11.6-4.29-10.61-4.29-10.61,0,0-2.63,.7-2.31,4.71s.37,23.15,.37,23.15c0,0-10.9-1.58-14.54-1.29v-6.81s-16.77,3.16-15.76,12.05c0,0-.3,3.5,1.11,6.57,0,0-4.13,2.65-1.28,12.84,0,0-3.23,6.63,1.55,12.03,0,0-4.25,11.92,6.75,11.9s33.89-6.79,33.89-6.79l3.58-2.32s83.61,7.31,98.45-6.04c0,0,9.67-38.59,10.07-76.54"/>
      <path class="cls-15" d="M1174.25,602.39s22.89-.83,26.95-3.82-.37-7.14-.37-7.14c-1.49-3.16-26.59-2.44-26.59-2.44,0,0,24.52,.34,29-1.17,6-2.03,.57-7.75,.57-7.75-11.08-5.89-27.68-4.38-27.68-4.38,0,0,5.55-.12,6.81-1.43"/>
      <path class="cls-15" d="M1176.45,611.84s16.87-1.77,20.27-.2,4.07,7.25,.28,8.58"/>
      <path class="cls-15" d="M1195.82,600.44s6.7-.75,6.37,2.76c0,0,4.71,7.61-5.47,8.43"/>
      <path class="cls-49" d="M1415.34,342.17s-2.79,28.01,4.74,44.68c0,0,6.9,77.96-56.44,79.94,0,0-47.22-12.73-18.58-73.92,0,0,11.4-4.45,11.64-15.48,.26-11.68-1.51,.2-1.51,.2l60.14-35.42"/>
      <path class="cls-63" d="M1478.69,628.39s41.59,89.08,2.08,165.27l-13.8,61.69s-10.26,25.91-6.48,65.32c2.4,25.07-3.57,60.55-9.92,93.71,0,0-16.83,17.39-46.7,3.24,0,0-25.27,10.39-53.49-3.01l-45.71-108.72s-12.06-18.91-12.06-38.66c0,0-9.36-139.08,1.92-228.67,0,0,76.9,53.61,184.15-10.17Z"/>
      <path class="cls-49" d="M1410.33,319.24s-6.97-58.63-59.88-58.75c0,0-37.48,3.01-30.99,55.76,0,0,2.72,8.33,1.64,12.95,0,0-2.02,11.82,4.49,22.29,9.74,15.67,18.9,26.74,18.9,26.74,0,0,5.71,7.4,18.81,6.54,0,0,9.18-.98,20.3-9.4,0,0,28.56-15.76,25.7-33.04,0,0,13.61,7.61,17.79-13.42,0,0,2.82-28.89-16.76-9.66Z"/>
      <path class="cls-73" d="M1360.67,304.97s17.32-7.27,26.08-2.21c0,0-7-8.76-26.93-2.01,0,0-3.33,3.06,.85,4.22Z"/>
      <path class="cls-73" d="M1317.4,304.27c.35-.96,9.44-1.6,17.86-.26,0,0,3.8,2.46-.13,4.3,0,0-15.32-4.57-17.47,.41,0,0-1.12-2.08-.26-4.45Z"/>
      <path class="cls-3" d="M1342.57,331.37s-6.38,11.47,6.45,11.67"/>
      <path class="cls-3" d="M1424.86,323.23s-5.63-11.82-13.35,8.61c0,0,7.23-9.34,9.27-2.03"/>
      <path class="cls-73" d="M1355.66,384.18s4.36,3.39,17.98-2.73c0,0,11.93-5.14,21.29-14.07,0,0-11.55,15.21-28.6,18.8,0,0-4.48,1.76-11.19-.02,0,0,.99-.19,.52-1.99Z"/>
      <path class="cls-7" d="M1403.87,1017.62l-32.99-129.32s-4.21-25.24-2.1-57.84l4.21-90.43s-5.89-1.24-11.82-7.62"/>
      <g>
        <path class="cls-30" d="M1380.38,314.31s-.02-.39-.32-.7c-1-1.03-3.3-2.93-6.76-2.76-3.87,.18-5.84,3.92-6.5,5.25-.11,.23-.09,.43-.09,.43,0,0,0,.22,.13,.36,.65,.69,2.81,2.59,6.48,2.48,2.18-.07,5.19-1.39,6.95-4.44,.12-.21,.12-.48,.11-.62Z"/>
        <circle class="cls-73" cx="1372.42" cy="315.37" r="4.01"/>
        <circle class="cls-30" cx="1374.82" cy="313.34" r="1.1"/>
        <path class="cls-13" d="M1366.56,316.12s4.28-9.47,13.65-2.55"/>
      </g>
      <g>
        <path class="cls-30" d="M1335.4,319.72s.04-.36-.2-.7c-.79-1.1-2.65-3.19-5.89-3.54-3.63-.38-5.99,2.81-6.8,3.96-.14,.2-.15,.38-.15,.38,0,0-.03,.2,.07,.36,.51,.73,2.24,2.81,5.67,3.23,2.04,.25,5.03-.55,7.1-3.13,.14-.18,.18-.43,.19-.56Z"/>
        <circle class="cls-73" cx="1327.85" cy="319.56" r="3.76"/>
        <circle class="cls-30" cx="1330.48" cy="318.07" r="1.05"/>
        <path class="cls-13" d="M1322.44,319.56s5.11-8.74,12.86-.38"/>
      </g>
      <path class="cls-30" d="M1420.08,386.85s4.33,7.96,27.48,15.37c23.15,7.41,55.41,55.95,55.41,55.95,0,0-8.04,33.76-47.78,49.76l24.17,120.2s-44.92,37.05-117.16,31.03c0,0-44.51-.22-67.66-20.59,0,0,8.71-47.78,9.17-92.23,0,0-13.75-25.17-13.29-46.48l-6.48-15.28,5.56-43.53s4.63-29.18,35.66-41.22c0,0,11.58-2.32,19.91-6.95,0,0-5.56,31.95-2.32,44.46,0,0,21.3,23.62,62.98-.93,0,0,14.82-18.99,14.36-49.55Z"/>
      <path class="cls-20" d="M1506.53,666.64s1.81-2.57,10.75-5.91c8.94-3.34,8.59,5.34,8.59,5.34l-13.97,7.35-5.37-6.78Z"/>
      <path class="cls-49" d="M1515.43,566.4c-6.6,6.83-47.49,69.03-47.49,69.03l9.42,36.04c4.57,8.12,30.52,17.86,30.52,17.86,11.71-1.51,25.12-17.39,25.12-17.39,4.28-4.03,.85-7.55-2.62-8.24-3.47-.69-17.3,8.42-17.3,8.42-4.55-13.96-15.59-23.38-15.59-23.38,29.56-16.82,62.35-79.71,62.35-79.71,4.69-9.3-.88-15.39-.88-15.39-1.36-2.85-8.79-15.39-8.79-15.39-15.7-37.93-49.17-75.18-49.17-75.18,0,0-41.2,1.96-45.8,44.85,0,0,56.83,55.94,60.23,58.47"/>
      <path class="cls-20" d="M1508.64,664.54s2.86,2.33,4.53,7.22c0,0,8.63-5.2,12.78-6.82"/>
      <line class="cls-25" x1="1290.42" y1="499.85" x2="1293.67" y2="465.31"/>
      <line class="cls-25" x1="1455.19" y1="507.93" x2="1443.25" y2="484.82"/>
      <path class="cls-53" d="M1375.03,349.03s-8.03-.45-16.59,3.74c0,0-8.11,.29-14.85,3.16,0,0,3.15,10.95,15.51,10.89,12.36-.06,17.54-11.34,15.94-17.79Z"/>
      <path class="cls-41" d="M1373.29,350.22s2.21,9.81-12.31,12.9c-13.18,2.81-15.15-5.92-15.15-5.92,0,0,14.97-2.57,27.46-6.98Z"/>
      <path class="cls-30" d="M1371.58,350.71s-2.64,5.27-13.97,7.19c0,0-6.86,1.78-10.45-.81,0,0,14.53-2.81,24.42-6.38Z"/>
      <path class="cls-69" d="M1340.98,269.51s37.65,58.73,85.29,55.74c0,0-2.83,20.96-17.3,17.58,0,0-5.75,28.84,8.87,43.43,0,0,18.57,13.89,32.5,18.2,13.03,4.04,25.23,18.86,25.23,18.86,0,0-25.84-29.46-27.6-81-1.76-51.55-28.33-77.71-28.33-77.71,0,0-34.51-44.44-78.88-15.91,0,0-24.82,2.92-33.69,27.51-5.13,14.22-2.21,39.67,.33,59.97,0,0,5.11,49.1,27.72,61.67,0,0,20.17-1.24,21.59-13.41,0,0-5.07-.2-10.93-6.41-8.01-8.47-13.77-16.54-19.78-26.49,0,0-6.49-9.91-4.11-23.73,0,0,.6-7.22-1.81-11.21,0,0-5.44-29.6,20.91-47.12"/>
      <path class="cls-8" d="M1414.67,333.84s8.06,10.32,.96,17.62c-7.1,7.29-4.43-9.3-4.43-9.3"/>
    </g>
    <g>
      <path class="cls-49" d="M1058.57,614.47s2.88,8.2,3.98,11.75c0,0,25.27-29.66,44.63-42.56,0,0-1.81-10.6,14.08-20.22l8.25-10.03s6-4.31,5.62,2.9c0,0-2.37,4.5-4.68,7.59l9.02,1.92s-.78-1.07,4.24-1.6c4.08-.43,3.32,1,3.32,1,0,0,2.08-5.76,5.37-11.05,2.14-3.44,2.23-6.99,6.75-6.66,0,0,4.18,.75,1.31,7.06l-4.4,15.41-18.16,15.61-14.97,7.24-46.15,74.23s-13.38,23.72-37.95,9.2c-16.57-9.79-14.04-48.74-14.04-48.74l33.8-13.07Z"/>
      <path class="cls-19" d="M1126.6,563.66s2.22-.13,3.86,.29"/>
      <path class="cls-21" d="M1123.97,583.82s3.92-9.51,7.37-11.3c0,0,1.55-.62,2.34-4.23,.75-3.43-.19-6.93,2.7-7.14,4.2-.31,3.06,4.67,3.06,4.67l-2,11.09"/>
      <path class="cls-19" d="M1107.18,583.65s2.66,3.34,7.7,4.24"/>
      <path class="cls-21" d="M1138.87,569l1.05-4.56-1.89-5.31s-.8-2.73,1.77-4.05c2.86-1.47,4.43,2,4.43,2l1.95,7.31-1.55,9.66"/>
      <path class="cls-21" d="M1146.17,564.38l.85-2.41-1.89-5.31s-.8-2.73,1.77-4.05c2.86-1.47,4.43,2,4.43,2l1.95,7.31-1.55,9.66"/>
      <path class="cls-49" d="M1015.78,1016.39c0,31.33,9.71,32.87,9.71,32.87,15.98,8.16,32.05,13.35,32.05,13.35,0,0,18.2,14.05-23.13,9.71-47.53-4.99-47.29-17.1-47.29-17.1,0,0,9-9.93,2.61-33.98l26.05-4.85"/>
      <path class="cls-66" d="M985.22,1074.23s0,2.25,.96,8.53l70.88,7.19s21.22-.45,22.18-11.68"/>
      <path class="cls-55" d="M987.15,1053.57s-5.79,9.43-1.93,20.66l67.5,9.43s18.8,3.14,26.52-5.39c7.71-8.53-47.25-26.05-47.25-26.05,0,0-21.7,18.86-44.84,1.35Z"/>
      <polyline class="cls-9" points="1052.56 1060.39 1038.29 1066.54 1036.14 1054.07 1020.26 1060.89"/>
      <polyline class="cls-9" points="1025.42 1052.18 1032.1 1065.45 1042.35 1057.19 1049.79 1071.94"/>
      <path class="cls-49" d="M957.4,504.2s10.37,30.47-7.41,35.33c0,0,3.85,46.01,46.35,47.34,0,0,40.26-2.85,21.04-43.92l-10.93-5.86c-.17-7.84,.9-9.08,.9-9.08l-45.71-24.76"/>
      <path class="cls-49" d="M967.58,1023.62c0,31.33,9.71,32.87,9.71,32.87,15.98,8.16,32.05,13.35,32.05,13.35,0,0,18.2,14.05-23.13,9.71-47.53-4.99-47.29-17.1-47.29-17.1,0,0,9-9.93,2.61-33.98l26.05-4.85"/>
      <path class="cls-49" d="M1019.1,450.08s3.96,7.55,3.33,25.44c0,0-.08,6.67,1.72,10.46,0,0,2.11,14.57-2.77,25.66-4.89,11.09-15.03,18.01-15.03,18.01,0,0-10.06,4.02-18.47,.86-8.41-3.16-20.23-4.37-29.69-24.19,0,0-5.77,5.59-10.47-4.04s-9.86-12.75-6.18-21.39c3.68-8.64,13.7,7.7,13.7,7.7,0,0-8.15-15.61-3.94-31.87,4.21-16.25,24.14-28.24,24.14-28.24,0,0,28.93-10.15,43.67,21.59Z"/>
      <path class="cls-61" d="M989.76,470.67s-11.42-1.47-20.84,2.87c0,0,4.16-6.59,20.85-5.57,0,0,2.89,1.41-.01,2.7Z"/>
      <path class="cls-61" d="M1023.87,467.42c-8.1,.03-13.53,2.04-13.53,2.04-3.12-.6-.63-2.63-.63-2.63,4.99-1.5,10.83-1.84,13.93-1.82,0,0,.67,2.41,.23,2.41Z"/>
      <circle class="cls-61" cx="982.56" cy="479.83" r="3.4"/>
      <path class="cls-50" d="M990.04,507.22s5.75-2.4,13-1.06c0,0,5.98-1.8,11.59-1.11,0,0,.33,9.9-8.7,12.96-9.03,3.06-15.52-5.03-15.89-10.79Z"/>
      <path class="cls-41" d="M991.59,507.78s.74,8.72,12.07,7.64c10.29-.98,9.63-8.74,9.63-8.74,0,0-11.54,1.63-21.7,1.1Z"/>
      <path class="cls-30" d="M993.01,507.77s3.19,3.77,11.92,2.51c0,0,5.43-.24,7.42-3.34,0,0-11.28,1.32-19.34,.83Z"/>
      <path class="cls-3" d="M1005.64,488.55s7.39,4.85,.56,9.04"/>
      <path class="cls-73" d="M1005.89,529.78s-11.54,3.96-21.13-.4c0,0-5.47-.85-14.72-6.84,0,0,5.08,8.22,22.6,10.59,0,0,5.5,.68,13-.04,0,0,1.1-2.26,.25-3.31Z"/>
      <path class="cls-46" d="M1001.46,569.02s28.5-.22,5.3-31.92l28.72,12.15s16.3,8.54,16.98,26.26l6.79,39.87-18.22,7.26,.9,48.43,6.93,50.93s-47.02,22.16-132.28,.33l-2.28-10.01c17.7-64.52,14.5-89.98,14.5-89.98l-33.23-7.65s10.52-54.83,33.43-66.48c26.52-13.48,25.4-11.37,25.4-11.37,0,0,16.31,32.93,47.04,32.18Z"/>
      <path class="cls-63" d="M916.59,722.33s-15.38,28.49-5.65,58.71c0,0,21.95,111,21.95,124.6,0,0-7.67,64.26,1.25,120.16,0,0,20.17,14.77,39.64,.42l8.53-60.84,2.74,55.42s14.87,12.68,38.38-1.67l20.03-105.14s5.38-13.78,3.76-25.87l1.66-166.11s-46.87,22-132.28,.33Z"/>
      <path class="cls-66" d="M937.02,1081.46s0,2.25,.96,8.53l70.88,7.19s21.22-.45,22.18-11.68"/>
      <path class="cls-55" d="M938.95,1060.8s-5.79,9.43-1.93,20.66l67.5,9.43s18.8,3.14,26.52-5.39c7.71-8.53-47.25-26.05-47.25-26.05,0,0-21.7,18.86-44.84,1.35Z"/>
      <polyline class="cls-9" points="1004.37 1067.62 990.09 1073.77 987.95 1061.3 972.06 1068.12"/>
      <polyline class="cls-9" points="977.23 1059.4 983.9 1072.68 994.16 1064.42 1001.6 1079.16"/>
      <path class="cls-49" d="M898.12,615.55s-10.48,47.83-.64,71.87l16.39,55.27s2.71,10.66-.4,16.74c0,0-4.18,13.08,2.18,20.05,0,0,5.64,15.99,23.32,22.12,0,0,5.03-3.34-2.82-9.62,0,0-9.28-8.04-4.68-18.08,0,0,3.73-3.27,3.9,2.84,.18,6.1,1.47,15.82,6.63,14.5,5.17-1.31,2.34-11.14,2.34-11.14,0,0-.79-8.72-.33-15.06,0,0-1.16-11.14-8.1-16.87l-12.35-81.15,12.25-42.91s-18.09-6.11-37.72-8.56Z"/>
      <path class="cls-3" d="M942.75,489.99s2.53-4.77,6.29-.51c3.75,4.26,4.08,5.76,4.08,5.76,0,0-5.45-6.81-6.77-.8"/>
      <path class="cls-6" d="M982.31,965.37s9.85-48.62,7.5-82.57l-4.7-94.18s6.58-1.29,13.21-7.93"/>
      <path class="cls-12" d="M1003.91,472.32s-4.78-2.53-7.67,1.45"/>
      <path class="cls-12" d="M969.54,475.45s11.96-7.68,26.95-1.56c0,0-.51,13.44-8.78,14.07-8.27,.63-14.07,4.3-18.17-12.52Z"/>
      <line class="cls-12" x1="969.54" y1="475.45" x2="947.6" y2="478.76"/>
      <path class="cls-2" d="M954.42,536.84s18.43,34.82,47.04,32.18c0,0,30.15-5.21,5.3-31.92"/>
      <g>
        <path class="cls-30" d="M975.65,480.4s-.05-.33,.16-.65c.7-1.03,2.36-3.01,5.35-3.41,3.34-.44,5.59,2.45,6.37,3.48,.13,.18,.15,.35,.15,.35,0,0,.04,.18-.06,.33-.45,.69-2,2.65-5.15,3.12-1.88,.28-4.65-.38-6.63-2.72-.14-.16-.18-.39-.19-.51Z"/>
        <circle class="cls-73" cx="982.61" cy="480.08" r="3.48"/>
        <circle class="cls-30" cx="980.34" cy="479.67" r=".95"/>
        <path class="cls-13" d="M987.73,479.81s-5.12-7.42-12.05-.06"/>
      </g>
      <g>
        <path class="cls-30" d="M1010.71,477.59s-.09-.3,.06-.62c.5-1.05,1.74-3.09,4.42-3.88,3-.88,5.47,1.45,6.33,2.29,.15,.14,.18,.3,.18,.3,0,0,.06,.16,0,.31-.32,.7-1.46,2.71-4.28,3.59-1.68,.52-4.32,.31-6.46-1.56-.15-.13-.22-.33-.24-.44Z"/>
        <circle class="cls-73" cx="1017.05" cy="476.31" r="3.22"/>
        <circle class="cls-30" cx="1014.83" cy="476.33" r=".9"/>
        <path class="cls-13" d="M1021.6,475.48s-5.64-6.58-10.89,1.65"/>
      </g>
      <path class="cls-21" d="M929.89,797.23s-9.89-11.62-9.4-23.49"/>
      <path class="cls-19" d="M915.65,779.48s-1.73-4.34-1.35-7"/>
      <line class="cls-27" x1="935.84" y1="624.11" x2="940.26" y2="593.02"/>
      <line class="cls-27" x1="1041.04" y1="622.64" x2="1036.64" y2="588.29"/>
      <path class="cls-47" d="M1030.81,553.06c5.77,.75,2.76,.22,11.89,.33,9.14,.12,2.79-9.83,2.79-9.83,12.48,7.13,12.19-1.52,12.19-1.52,8.09,3.86,8.29-4.37,8.29-4.37,4.08-.36,3.84-3.07,2.05-7.94-1.79-4.86,4.8-7.72,4.8-7.72,9.77-3.13,1.93-9.29,1.93-9.29,14.65-9.95,2.79-9.83,2.79-9.83,5.47-10.52-3.25-11.12-3.25-11.12,14.23-9.45,.63-13.74,.63-13.74,7.56-7.5-4.81-13.27-4.81-13.27,17.42-14.75-3.9-13.35-3.9-13.35,3.84-13.57-6.34-9.94-6.34-9.94,6.18-12.86-8.88-12.92-8.88-12.92-1.93-11.7-20.38-8.72-20.38-8.72-1.62-18.57-16.11-6.81-16.11-6.81-2.7-4.78-6.14,2.82-6.14,2.82-.47-5.43-6.18-8.13-6.18-8.13-3.31-6.56-8.23-.2-8.23-.2-15.99-5.45-27.37,10.6-27.37,10.6,0,0-10.77-13.66-23.12-3.46,0,0-5.59-1.34-4.63,4.51,0,0-11.86-10.37-12.66,6.58,0,0-14.43-3.31-9.76,13.63,0,0-7.78-.23-6.46,9.69,0,0-9.84,2.23-4.94,11.38,0,0-13.35,3.9-8.15,11.2,0,0-3.9,7.64,1.32,9.92,0,0-6.89,4.71,2.27,10.3,0,0-10.22,3.17-4.45,11.8,0,0-2.46,8.43,5.44,10.02,0,0-6.61,7.88,.42,10,0,0-6.61,7.88,6.26,9.04,0,0-2.64,1.14,3.39,7.46,0,0,2.64,9.35,6.05,11.79,0,0,8.41,7.48,6.52-3.76,0,0,3.49,13.84,12.13,3.05,0,0,.2-8.23,4.57,.06,4.37,8.29,6.97,6.69,7.82,.69,0,0,6.3,9.49,12.01,1.69,0,0-4.35,7.68,6.73,3.98,0,0,7.18-3.6-.29-12.34,0,0,5.31-5.83-2.42-9.85-7.73-4.02-2.22-4.95-2.22-4.95,0,0,3.34-2.75-1.6-8.13-4.94-5.38,0,0,0,0,0,0,1.59-3.53-2.83-16.43-4.42-12.9,0,0,0,0,0,0-7.65,4.93-13.55-9.87-4.59-11.51-5.33-13.09-.24-16.26,4.09-2.54,11.02,8.63,11.02,8.63,0,0,3.09-2.53-.16-6.49-3.25-3.96-2.13-6.52-2.13-6.52,0,0,5.04-3.79,2.26-10.03-2.78-6.24,.55-6.53,.55-6.53,0,0,8.9-.55,7.22-9.57,0,0,6.72,.09,5.13-7.83,0,0,5.95,4.18,11.18-2.54,5.23-6.72,6.75,.53,6.75,.53,0,0-.23,7.62,8.11,5.78s7.64,.45,7.64,.45c0,0-.23,7.62,6.11,5.95,0,0,1.67,6.34,7.19,2.95,5.52-3.39,5.39,2.88,5.39,2.88,0,0,2.33,13.88,.93,20.94-1.4,7.05,0,0,0,0,0,0,1,5.08,1.76,8.02,.76,2.94,4.46,27.52-18.34,42.99-22.8,15.47,0,0,0,0,0,0-1.31,8.01,.22,10.12"/>
      <path class="cls-12" d="M1003.86,472.07s11.96-7.68,26.95-1.56c0,0-.51,13.44-8.78,14.07-8.27,.63-14.07,4.3-18.17-12.52Z"/>
    </g>
    <g>
      <g>
        <path class="cls-56" d="M715.11,1052.63s12.95-16.99,38.42-6.93c25.48,10.06,50.31,13.07,49.53,19.08l-4.26,13.21-43.58,2.09-29.69-12.41-10.42-15.04Z"/>
        <path class="cls-49" d="M743.75,1003.77s4.07,18.65,23.22,34.87l9.29,9.82,6.49,4.99,11.85,5.23s1.93,.71,3.99,2.79c.55,.55,1.71,2.36-.64,2.4,0,0,1.38,2.86-1.9,4.02,0,0,.64,4.65-4.26,2.13,0,0,1.26,4.86-4.45,3.25,0,0,2.12,9.02-11.49,3.4,0,0-16.99-2.07-22.85-8.88-5.86-6.81-23.61-10.5-23.61-10.5l-9.56-10.06s1.71-25.16-5.23-33.56l29.15-9.89Z"/>
        <path class="cls-52" d="M715.11,1052.63s4.17,5.14,12.06,6.69c7.89,1.55,24.57,11.46,24.57,11.46,0,0,44.02,21.52,51.33-5.99l-2.64,18.52s-24.84,14.83-54.01-.42c0,0-21.48-9.33-29.43-9.69,0,0-3.64-7.9-1.88-20.56Z"/>
        <path class="cls-30" d="M742.6,1065.73s2.89-19.34,24.38-27.09l9.29,9.82s-14.84,.55-24.52,22.32l-9.14-5.05Z"/>
        <path class="cls-30" d="M761.99,1074.66s4.8-17.24,20.76-21.21l11.85,5.23s-12.66,5.76-19.32,19.55c0,0-3.03,.31-13.28-3.57Z"/>
        <path class="cls-30" d="M718.21,1029.8s9.91,26.82,21.98,34.9l-21.47-8.5s-3.7-5.63-.51-26.4Z"/>
        <path class="cls-30" d="M717.92,1019.5l29.48-7.29,6.65,11.8s-14.9,7.13-34.87,8.28c0,0-1.48,5.48-1.27-12.79Z"/>
        <path class="cls-17" d="M717.36,1050.47s-2.63-11.53,.33-19.54l.21-3.6"/>
        <path class="cls-14" d="M787.34,1073.27s.07-3.35-4.83-5.13"/>
        <path class="cls-14" d="M791.79,1070.02s-1.9-4.52-5.64-5.2"/>
        <path class="cls-14" d="M796.05,1067.89s-2.03-4.99-6.12-5.97"/>
        <path class="cls-14" d="M797.94,1063.87s-1.41-3.44-4.73-4.26"/>
      </g>
      <g>
        <path class="cls-56" d="M653.29,1059.83s14.23-15.93,38.85-3.91c24.61,12.02,57.31,19.55,53.24,27.5l-10.63,8.22-43.61-1.32-28.63-14.69-9.22-15.8Z"/>
        <path class="cls-49" d="M685.65,1013.35s2.6,18.91,20.43,36.57l8.5,10.51,6.08,5.48,11.4,6.14s8.85,.91,9.66,3.73c.82,2.82,1.82,4.1-3,7,0,0-2.38,3.58-5.49,2.04,0,0-2.88,2.94-8.09,1.13,0,0-1.88,2.68-7.45,.63,0,0-2.36,1.84-5.06,.15,0,0-17.45-1.58-22.76-8.83-5.31-7.25-22.72-12.31-22.72-12.31l-8.75-10.78s3.67-24.95-2.6-33.87l29.83-7.59Z"/>
        <path class="cls-52" d="M653.29,1059.83s3.75,5.45,11.5,7.61c7.75,2.16,23.6,13.34,23.6,13.34,0,0,25.09,17.53,56.99,2.64l-1.27,13.47s-34.08,13.02-61.97-4.46c0,0-20.69-10.98-28.58-11.95,0,0-3.02-8.16-.27-20.65Z"/>
        <path class="cls-30" d="M679.67,1075.03s4.38-19.05,26.42-25.11l8.5,10.51s-14.84-.61-26.19,20.34l-8.72-5.75Z"/>
        <path class="cls-30" d="M698.31,1085.45s6.13-16.81,22.35-19.53l11.4,6.14s-12.55,3.18-20.27,16.41c0,0-3.56,1.65-13.48-3.02Z"/>
        <path class="cls-30" d="M658.15,1037.31s7.79,27.51,19.19,36.51l-20.74-10.15s-3.25-5.9,1.55-26.36Z"/>
        <path class="cls-30" d="M658.67,1027.02l29.96-4.97,5.71,12.28s-15.41,5.95-35.4,5.54c0,0-1.9,5.34-.27-12.85Z"/>
        <path class="cls-14" d="M729.17,1073.73l5.72,3.8s4,1.65,3.84,5.25"/>
        <path class="cls-14" d="M725.22,1075.37s9.7,5.59,8.58,8.11l-.57,1.34"/>
        <path class="cls-14" d="M720.56,1078.49s5.56,3.13,4.59,7.46"/>
        <path class="cls-14" d="M716.13,1082.56s2.92,1.52,1.57,4.01"/>
        <path class="cls-17" d="M655.69,1057.86s-1.72-11.7,1.85-19.45l.49-3.57"/>
      </g>
      <path class="cls-49" d="M791.67,583.15s-5,22.61-.97,33.19c0,0,2.08,4.23,1.49,13.24-.58,9.01,.58,56.45-3.46,87.07,0,0-2,22.65,2.44,30.44,4.44,7.79-1.54,16.69-1.54,16.69,0,0-18.45,19.58-26.22,20.52l3.01-191.44,25.25-9.71Z"/>
      <path class="cls-57" d="M569.26,603.36s-2.6,40.65,2.82,52.94c0,0,1.1,12.24,.96,22.96-.14,10.72,3.86,31.38,.95,67.94,0,0-.98,26.98,4.76,35.95,5.74,8.97-.8,19.89-.8,19.89,0,0-20.68,24.35-29.84,25.94l-8.17-227.2,29.32,1.59Z"/>
      <path class="cls-73" d="M394.81,565.56s-2.98-3.61-.61-10.52c0,0-6.76-5.43-1.19-13.03,0,0-5.37-8.61,2.81-14.35,0,0-4.25-8.44,.24-13.14,0,0-2.49-8.5,2.65-11.06,0,0-2.14-6.59,3.91-9.96,0,0-4.69-8.64,2.42-10.63,0,0-3.79-5.28,1.29-8.57,0,0-6.79-3.36-2.99-10.67,0,0-4.87-3.51-.43-8.93,0,0-4.94-4.47,.77-9.02,0,0-2.73-7.3,3.16-9.44,0,0-.67-8.91,6.31-9.44,0,0,1.38-7.5,8.17-7.34,0,0-2.42-9.56,6.54-12.66,0,0,.61-11.19,11.28-11.03,0,0,10.16-9.73,21.25-7.18,0,0,11.71-5.25,20.28-.81,0,0,6.83-3.9,15.4,1.14,0,0,8.69-2.96,14.44,2.66,0,0,9.98,.7,12.25,8.28,0,0,6.87,1.18,6.99,9.16,0,0,7.15,1.64,4.08,9.14,0,0,5.76,2.47,2.4,9.26,0,0,5.42,7.23,1.47,14.48,0,0,7.72,7.83,3.81,16.84,0,0,4.57,2.8,1.95,9.78,0,0,3.59,5.78-.22,13.09,0,0,5.34,4.43,1.08,11.66,0,0,6.05,5.72,3.56,11.24,0,0,4.62,6.67-1.37,10.76,0,0,2.62,9.01-2.66,9.65,0,0,3.75,7.95-5.22,11.05,0,0-25.6,32.94-58.88,25.28-33.28-7.65-84.94,4.3-84.94,4.3Z"/>
      <path class="cls-57" d="M551.03,691.71l4.26,16.04s-58.93,62.78-149.12,8.46l-3.2-24.5s82.37,31.95,148.06,0Z"/>
      <path class="cls-57" d="M471.02,1029.84l-.26,15.84s-18.13,25.1,44.45,29.14c54.4,3.51,41.31-4.02,41.31-4.02,0,0-16.07-11.28-37.54-21.75,0,0-10.84-10.27-8.55-19.67,2.16-8.85-26.12,11.77-39.4,.46Z"/>
      <path class="cls-57" d="M452.02,489.91s2.49,24.93-4.22,39.76c0,0-6.14,69.38,50.23,71.14,0,0,42.03-11.32,16.53-65.78,0,0-10.14-3.96-10.36-13.77-.23-10.39,1.34,.18,1.34,.18l-53.52-31.52"/>
      <path class="cls-62" d="M467.02,1021.37c2.67-.03-.05,10.09,4.24,11.6,13.89,4.9,27.67,2.72,41.79-3.68l3.27-6.54s8.82-4.02,39.91-84.37c0,0,4.03-15.09,4.03-32.67,0,0,16.25-116.44-5.04-196.72,0,0-73.85,50.99-173.86-5.77,0,0-32.4,91.86,4.44,159.67l9.25,31.07s9.89,26.48,6.37,61.55c-1.88,18.7-8.46,62.31,10.33,69.27,0,0,9.01,9.26,3.35,10.18,0,0,21.04,17.61,46.8-1l2.89-8.1s1.98-1.43,2.24-4.51"/>
      <path class="cls-57" d="M449.36,470.77s2.96-.79,3.63-5.66c.44-3.22,6.63-2.38,5.53-11.1-.54-4.24,6.47-3.3,4.53-13.42-1.32-6.86,8.23-6.27,2.58-22.48,0,0,4.73,5.4,13.12-1.4,3.39-2.75,9.26-1.45,14.07-2.59,0,0,6.46-3.88,11.12,.37,6.42,5.85,11.02,3.09,15.85,7.95,6.2,6.25,10.56,16.96,8.84,35.17,0,0-1.07,5.36,.53,9.26,0,0,5.27,5.76,.69,21.53-4.57,15.77-13.19,25.46-13.19,25.46,0,0-5.07,6.71-16.71,7.81,0,0-9.12,1.89-20.09-3.93,0,0-26.41-11.25-26.34-26.83,0,0-10.88,8.61-17.53-9.27,0,0-6.57-24.98,13.35-10.87Z"/>
      <path class="cls-58" d="M490.03,494.65s8.41-3.37,15.65,.23c0,0,4.4-3.09,11.8,.74,0,0-2.3,6.53-12.31,6.37-14.66-.24-15.14-7.34-15.14-7.34Z"/>
      <path class="cls-73" d="M490.97,451.2s-16.25-3.94-23.23,1.76c0,0,4.91-8.69,23.38-5.58,0,0,3.36,2.22-.15,3.82Z"/>
      <path class="cls-73" d="M528.89,444.45c-.44-.79-8.52-.07-15.73,2.3,0,0-2.99,2.7,.72,3.76,0,0,12.81-6.19,15.41-2.11,0,0,.69-1.99-.4-3.95Z"/>
      <circle class="cls-73" cx="522.35" cy="459.14" r="3.18"/>
      <path class="cls-3" d="M436.45,476.23s3.27-11.18,12.95,5.68c0,0-7.68-7.19-8.44-.47"/>
      <path class="cls-73" d="M508.26,519.33s-7.76,5.55-22.66,1.07c0,0-7.31-2.17-16.79-8.69,0,0,12.04,11.69,28.7,11.64,0,0,5.07,.3,11.1-2.51,0,0-.51,.14-.35-1.51Z"/>
      <path class="cls-7" d="M467.02,1021.37l23.97-96.89s3.74-22.46,1.87-51.47l-2.85-59.33s4.93-5.41,10.2-11.09"/>
      <path class="cls-66" d="M467.56,1065.61s0,2.37,.95,9.01l69.68,7.58s20.86-.47,21.8-12.32"/>
      <path class="cls-55" d="M469.45,1043.81s-5.69,9.95-1.9,21.8l66.36,9.95s18.49,3.32,26.07-5.69c7.58-9.01-46.45-27.49-46.45-27.49,0,0-21.33,19.91-44.08,1.42Z"/>
      <path class="cls-66" d="M416.34,1081.34s0,2.89,1.16,11l85.11,9.26s25.47-.58,26.63-15.05"/>
      <path class="cls-55" d="M418.65,1054.71s-6.95,12.16-2.32,26.63l81.06,12.16s22.58,4.05,31.84-6.95c9.26-11-56.74-33.58-56.74-33.58,0,0-26.05,24.32-53.84,1.74Z"/>
      <path class="cls-57" d="M418.65,1054.71s-.59-13.61-1.46-19.6c0,0,20,15.53,44.7-1.13,0,0,.88,14.65,10.6,19,0,0-15.19,13.34-27.47,11.59-12.28-1.75-14.59,.47-26.37-9.85Z"/>
      <polyline class="cls-9" points="508.76 1043.07 516.42 1059.42 528.19 1049.25 536.73 1067.42"/>
      <polyline class="cls-9" points="539.91 1053.19 523.52 1060.77 521.06 1045.4 502.83 1053.8"/>
      <polyline class="cls-9" points="502.7 1064.68 485.19 1072.78 482.57 1056.37 463.09 1065.34"/>
      <polyline class="cls-9" points="469.43 1053.87 477.6 1071.34 490.18 1060.47 499.3 1079.88"/>
      <ellipse class="cls-38" cx="448.63" cy="489.31" rx="1.69" ry="2.05" transform="translate(-35.65 35.25) rotate(-4.33)"/>
      <path class="cls-3" d="M511.08,471.61s7.23,9.17-4.01,11.17"/>
      <path class="cls-61" d="M415.09,1034.98s21.93,16.58,46.8-1l2.89-8.1s-25.23,18.33-53.04-1.08l3.35,10.18Z"/>
      <path class="cls-61" d="M471.26,1032.97s17.83,7.75,41.79-3.68l3.27-6.54s-27.74,10.49-47.72,2.16c0,0-1.14,6.49,2.66,8.06Z"/>
      <path class="cls-37" d="M449.42,525.62s29.68,29.06,58.74,5.19c0,0,1.61,2.41,6.41,4.22,0,0-30.9,34.18-68.47-4.42,0,0,2.7-1.04,3.32-4.98Z"/>
      <path class="cls-40" d="M411.17,640.69l-42.42,48.82,1.61,65.28s39.22,41.42,66.52,46.69c11.18,2.16,41.03-88.04,41.03-88.04,23.59,.74,50.21-3.98,75.3-20.79,0,0-.82-23.54-9.99-42.16,0,0,3.42-5.25,3.14-18.31,0,0,20.64-1.04,28.07-10.45,0,0-6.09-80.63-59.86-86.71,0,0-31.77,29.19-68.47-4.42,0,0-26.92,12.92-43.52,17.07-16.6,4.15-36.31,31.66-48.2,81.58,0,0,26.59,17.53,56.79,11.43"/>
      <path class="cls-11" d="M555.29,707.75s-3.6-33.74-12.07-57.26c0,0,8.03-17.06-3.01-38.13"/>
      <path class="cls-11" d="M412.52,620.37c.49,13.13-1.35,20.32-1.35,20.32"/>
      <path class="cls-28" d="M487.78,461.98s-.77-5.62-6.32-5.7c0,0-2.35-.51-5.74,2.64s-4.91,3.45-4.91,3.45c0,0,1.17-3.58,2.89-5.48,1.21-1.34,3.6-3.02,7.63-2.93,0,0,7.4-.76,6.45,8.02Z"/>
      <path class="cls-75" d="M528.45,458.39s-3.06-3.34-6.24-3.99c0,0-2.72-.33-4.7,1.97-1.22,1.42-1.85,3.74-1.85,3.74,0,0-.03-4.36,1.69-6.26,1.21-1.34,2.63-2.11,6.66-2.02,0,0,4.71,.72,4.44,6.56Z"/>
      <path class="cls-38" d="M487.78,461.98s-1.2-5.58-7.55-4.67c0,0-3.09,.68-5.19,2.68,0,0-1.46,1.78-4.23,2.39,0,0,2.62-1.44,4.46-3.62,1.74-2.06,4.92-3.02,7.99-2.31,0,0,3.45,.33,4.51,5.54Z"/>
      <g>
        <path class="cls-30" d="M475.45,461.97s-.04-.34,.18-.66c.74-1.04,2.48-3.04,5.55-3.39,3.43-.39,5.68,2.62,6.46,3.69,.13,.19,.14,.36,.14,.36,0,0,.03,.19-.07,.34-.48,.7-2.1,2.68-5.34,3.09-1.93,.25-4.76-.48-6.74-2.92-.14-.17-.17-.4-.18-.53Z"/>
        <circle class="cls-73" cx="482.59" cy="461.78" r="3.57"/>
        <circle class="cls-30" cx="480.28" cy="461.31" r=".98"/>
        <path class="cls-61" d="M487.78,461.98s-5.07-7.42-12.33-.01c0,0-1.67,1.15-4.64,.41,0,0,2.67-.66,4.23-2.39s5.13-3.3,8.43-2.58,4.32,4.58,4.32,4.58Z"/>
      </g>
      <path class="cls-38" d="M515.81,459.71s5.04-8.47,11.2-2.18c0,0,.55,.95,1.44,.86,0,0-1.56-1.23-2.43-2.57s-4.2-2.66-7.02-.69c-2.18,1.52-3.19,4.58-3.19,4.58Z"/>
      <g>
        <path class="cls-30" d="M515.73,460.35s-.09-.31,.07-.64c.54-1.08,1.88-3.18,4.67-3.94,3.13-.85,5.66,1.62,6.53,2.51,.15,.15,.18,.32,.18,.32,0,0,.06,.17-.01,.32-.34,.72-1.57,2.79-4.52,3.64-1.76,.51-4.5,.23-6.68-1.75-.15-.14-.22-.35-.24-.46Z"/>
        <circle class="cls-73" cx="522.35" cy="459.14" r="3.34"/>
        <circle class="cls-30" cx="520.03" cy="459.12" r=".94"/>
        <path class="cls-61" d="M515.65,460.16c5.62-8.44,11.54-1.56,11.54-1.56,0,0,.8,.68,2.14-.3,0,0-1.41,.54-2.33-.77-.94-1.33-3.76-3.42-6.94-2.14-3.18,1.29-4.42,4.76-4.42,4.76Z"/>
      </g>
      <path class="cls-60" d="M631.79,700.78s-10.85,58.04,.22,92.42c0,0,14.74,74.38,14.74,89.85,0,0-5.29,74.3,4.86,137.9,0,0,28.99,9.95,51.14-6.38l8.85-50.74-1.68,48.79s18.82,12.42,45.58-3.91l22.8-108.63s7.6-30.86,5.76-44.61l-9.26-142.93s-45.84,12.9-143-11.76Z"/>
      <path class="cls-49" d="M684.23,456.01s8.87,37.54-10.93,42.96c0,0,4.28,51.24,51.62,52.72,0,0,44.84-3.18,23.43-48.91l-12.17-6.52c-.19-8.73,1.01-10.11,1.01-10.11l-50.9-27.58"/>
      <path class="cls-49" d="M754.5,398.63s4.07,8.58,2.57,28.46c0,0-.39,7.42,1.45,11.72,0,0,1.7,16.31-4.23,28.43-5.93,12.13-17.53,19.37-17.53,19.37,0,0-11.38,4.03-20.59,.13-9.21-3.89-22.32-5.77-31.96-28.24,0,0-6.67,5.97-11.47-4.97-4.8-10.94-10.41-14.63-5.93-24.07,4.48-9.45,14.91,9.18,14.91,9.18,0,0-8.38-17.74-2.96-35.64,5.41-17.9,28.13-30.35,28.13-30.35,0,0,32.65-10,47.63,25.98Z"/>
      <path class="cls-73" d="M720.93,420.23s-12.64-2.14-23.32,2.26c0,0,4.92-7.15,23.46-5.27,0,0,3.15,1.7-.13,3.01Z"/>
      <path class="cls-73" d="M759.03,418.14c-9.01-.33-15.15,1.66-15.15,1.66-3.45-.81-.58-2.96-.58-2.96,5.62-1.44,12.13-1.56,15.59-1.4,0,0,.64,2.71,.15,2.69Z"/>
      <path class="cls-48" d="M717.48,463.58s6.22-3.23,14.49-1.05c0,0,6.87-2.64,12.97,.09,0,0,.22,5.25-10,7.52-10.22,2.27-17.4-2.06-17.45-6.56Z"/>
      <path class="cls-3" d="M737.8,440.84s8.01,5.73,.22,10.09"/>
      <path class="cls-73" d="M736.25,486.72s-13.02,3.89-23.5-1.39c0,0-6.04-1.19-16.07-8.26,0,0,5.28,9.38,24.68,12.79,0,0,6.66,.58,15.03,.1,0,0,.07-1.9-.14-3.24Z"/>
      <path class="cls-3" d="M669,440.74s3.03-5.19,7.02-.29c3.99,4.9,4.28,6.6,4.28,6.6,0,0-5.76-7.82-7.5-1.19"/>
      <path class="cls-7" d="M711.34,965.11s11.81-65.5,14.48-86.36l-8.78-98.8s6.01-4.76,13.55-12.32"/>
      <path class="cls-73" d="M755.24,465.16c3.47-7.4,3.28-26.35,3.28-26.35,0,0-.94-2.7-1.61-8.23-.66-5.5,.43-6.86-.35-11.75,0,0-17.5-3.03-32.98-17.16,0,0,6.17,10.28,18.99,11.01,0,0-16.8,8.99-47.02-15.91,0,0-1.38,27.25-13.84,41.88,0,0-7.23-12.29-14.14-8.61-6.9,3.68,4.99,22.59,4.99,22.59,0,0,3.88,11.41,11.64,5.88,0,0,1.37,6.83,7.39,25.45,0,0-7.03-2.74-10.36-6.31,0,0,2.43,5.78,6.67,9.58,0,0-17.09-3.09-19.6-19.47,0,0-.31-5.62-4.77-6.18-4.46-.56-12.42-13.42-12.37-27.12,.05-13.7,8.87-63.29,39.26-65.99,0,0,15.71-15.84,37.27-4.35,21.56,11.5,30,11.6,38.97,47.88,0,0,8.42,27.85-3.92,39.54,0,0,4.12-12.12,1.57-16.12,0,0,3.63,14.26-2.32,20.49,0,0,.74-4.37,.23-11.32,0,0,.91,16.78-10.82,27.76"/>
      <ellipse class="cls-30" cx="681.05" cy="456.35" rx="1.71" ry="2.07" transform="translate(-24.07 38.14) rotate(-3.15)"/>
      <path class="cls-49" d="M615.41,581.46s-12.27,56-.74,84.13l19.18,64.7s3.17,12.48-.46,19.6c0,0-4.89,15.31,2.56,23.48,0,0,6.6,18.72,27.31,25.9,0,0,5.89-3.91-3.3-11.27,0,0-10.86-9.41-5.48-21.17,0,0,4.36-3.83,4.57,3.32,.21,7.15,1.72,18.51,7.77,16.98,6.05-1.54,2.74-13.04,2.74-13.04,0,0-.92-10.21-.38-17.64,0,0-1.36-13.05-9.48-19.75l-14.46-95,14.34-50.24s-21.18-7.15-44.16-10.02Z"/>
      <path class="cls-20" d="M654.19,795.95s-11.46-11.87-11.46-28.25"/>
      <path class="cls-20" d="M639.74,780.53s-2.73-8.18-2.18-12.82"/>
      <path class="cls-20" d="M635.95,773.38s-2.2-3.46-1.19-7.18"/>
      <path class="cls-62" d="M724.46,543s11.27-7.99,13.48-46.48l31.88,13.48s18.1,9.48,18.85,29.15l4.25,47.78-16.93,4.53-5.57,34.42,5.23,86.44s-25.18,24.99-119.81,.76l-10.62-71.36c8.57-26.84,11.14-48.66,11.14-48.66l-43.5-10.39s13.37-60.9,38.8-73.83c29.43-14.96,28.19-12.62,28.19-12.62,0,0,28.62,43.08,44.61,46.77Z"/>
      <g>
        <path class="cls-30" d="M706.46,430.75s-.03-.34,.19-.66c.76-1.03,2.55-2.99,5.61-3.27,3.44-.32,5.63,2.73,6.38,3.83,.13,.19,.14,.36,.14,.36,0,0,.03,.19-.07,.34-.49,.69-2.15,2.63-5.4,2.98-1.93,.21-4.75-.58-6.68-3.05-.13-.17-.16-.4-.17-.53Z"/>
        <circle class="cls-73" cx="713.6" cy="430.7" r="3.57"/>
        <circle class="cls-30" cx="711.3" cy="430.18" r=".98"/>
        <path class="cls-13" d="M718.86,430.63s-4.94-7.81-12.34-.56"/>
      </g>
      <g>
        <path class="cls-30" d="M741.98,430.26s-.08-.32,.09-.64c.56-1.07,1.94-3.14,4.75-3.84,3.15-.79,5.62,1.74,6.48,2.65,.15,.16,.18,.32,.18,.32,0,0,.05,.17-.02,.32-.36,.71-1.63,2.76-4.6,3.55-1.77,.47-4.5,.14-6.64-1.88-.15-.14-.21-.35-.23-.47Z"/>
        <circle class="cls-73" cx="748.61" cy="429.18" r="3.34"/>
        <circle class="cls-30" cx="746.3" cy="429.12" r=".94"/>
        <path class="cls-13" d="M753.38,428.52s-5.58-7.07-11.38,1.26"/>
      </g>
      <path class="cls-7" d="M701.57,424.78s13.35-5.38,26.13-1.39c0,0,2.76,18.1-11,19.45,0,0-17.93,.64-15.13-18.06Z"/>
      <path class="cls-7" d="M736.44,422.71s11.62-5.14,22.5,.07c0,0,4.14,16.31-9.62,17.66,0,0-15.68,.98-12.88-17.73Z"/>
      <path class="cls-7" d="M736.44,422.71s-5.19-2.09-8.74,.68"/>
      <line class="cls-7" x1="703.33" y1="424.44" x2="677.57" y2="431.03"/>
      <path class="cls-57" d="M358.84,630.62s-7.52,21.89,.85,64.62l12.59,51.53s6.16,13.11,3.17,24.34c0,0-4.37,16.61,1.46,27.69,0,0,2.52,17.04,26.52,27.1,0,0,8.59-.79-1.75-10.2,0,0-11.24-10.15-3.98-23.68,0,0,5.46-4.21,5.17,4.28-.29,8.48-.29,19.4,6.98,17.94,4.37-.87,3.5-13.41,3.5-13.41,0,0,.04-10.57,1.24-19.33,0,0-2.29-17.21-11.42-25.76l4.02-91.07,2.92-23.77s-23.78,6.5-51.26-10.3Z"/>
      <path class="cls-16" d="M477.9,713.44s55.55-108.95,70.9-159.48"/>
      <g>
        <circle class="cls-5" cx="485.69" cy="625.22" r="20.79"/>
        <path class="cls-5" d="M497.54,608.28s-16.05,1.67-16.57,16.57c0,0,1.85,2.83-.5,3.11l1.14,2.2-.78,.99,.85,.78s-.92,8.1,11.86,12.36"/>
        <path class="cls-5" d="M477.86,623.46s-.24-3.41-4.95-.57c0,0,1.54,.41,2.27,1.46s2.68-.89,2.68-.89Z"/>
        <path class="cls-5" d="M475.47,621.99s-.96,.45-.41,1.99"/>
        <path class="cls-5" d="M489.5,624.62s4.55-4.12,8.52,.28c0,0-4.21,3.46-8.52-.28Z"/>
        <ellipse class="cls-5" cx="493.81" cy="624.69" rx="1.52" ry="1.59"/>
        <path class="cls-5" d="M482.16,634.99s2.04-.05,2.51,1.04c0,0,.76-2.04,4.88,.24,0,0-2.6,2.04-6.25,1.04"/>
        <path class="cls-5" d="M481.17,629.45s-.8,.95-2.89,.99c0,0,1.36,2.27,3.4,1.49"/>
        <path class="cls-5" d="M489.71,604.59s.32-4.41,2.84-6.3c0,0,2.94-2.42,2.63-5.88-.32-3.47,4.2-4.52,4.2-4.52,0,0-2.73,2.42-2.21,8.61,0,0,2.21-1.89,2.1-4.62s2.73-4.83,2.73-4.83c0,0,2.31-1.79,2.21-4.73,0,0,.95-2.31,3.68-1.26,0,0-2.52,0-2.42,5.15,.11,5.15-1.89,8.82-1.89,8.82,0,0-.84,1.47,.11,4.41s-6.51,8.19-6.51,8.19"/>
        <path class="cls-5" d="M498.42,608.49s1.48-2.77,3.66-3.27c0,0,2.6-.72,3.4-3.06s4.03-1.72,4.03-1.72c0,0-2.47,.78-3.91,4.95,0,0,1.98-.59,2.69-2.39,.72-1.8,3.16-2.35,3.16-2.35,0,0,2.01-.49,2.79-2.43,0,0,1.28-1.23,2.75,.24,0,0-1.64-.73-3.05,2.64-1.42,3.37-3.77,5.18-3.77,5.18,0,0-.97,.71-1.2,2.89-.23,2.18-6.59,3.44-6.59,3.44"/>
        <path class="cls-5" d="M482.41,604.49s-.9-3.01,.29-4.9c0,0,1.34-2.34,.26-4.56s1.65-4.06,1.65-4.06c0,0-1.2,2.29,.71,6.27,0,0,.99-1.81,.23-3.6s.59-3.89,.59-3.89c0,0,1.08-1.77,.27-3.69,0,0,.04-1.77,2.12-1.76,0,0-1.67,.64-.3,4.02,1.37,3.39,.97,6.33,.97,6.33,0,0-.19,1.19,1.18,2.9s-2.25,7.08-2.25,7.08"/>
        <path class="cls-5" d="M506.47,623.28s3.03-.82,4.89,.43c0,0,2.31,1.41,4.56,.39s4.01,1.76,4.01,1.76c0,0-2.26-1.27-6.29,.53,0,0,1.78,1.04,3.59,.33s3.88,.7,3.88,.7c0,0,1.74,1.13,3.68,.38,0,0,1.77,.09,1.7,2.17,0,0-.59-1.69-4.01-.42-3.43,1.27-6.36,.79-6.36,.79,0,0-1.18-.22-2.93,1.1s-7.01-2.45-7.01-2.45"/>
        <path class="cls-5" d="M502.03,638.4s2.7,1.6,3.11,3.8c0,0,.6,2.63,2.91,3.53s1.54,4.1,1.54,4.1c0,0-.67-2.5-4.77-4.13,0,0,.5,2,2.27,2.8s2.2,3.26,2.2,3.26c0,0,.4,2.03,2.3,2.9,0,0,1.17,1.33-.36,2.73,0,0,.8-1.6-2.5-3.16-3.3-1.56-5.01-3.99-5.01-3.99,0,0-.67-1-2.84-1.33-2.17-.33-3.14-6.73-3.14-6.73"/>
        <path class="cls-5" d="M487.69,645.85s.71,1.78,.09,2.99c0,0-.69,1.5,.09,2.79s-.78,2.55-.78,2.55c0,0,.61-1.46-.77-3.77,0,0-.5,1.15,.06,2.2s-.15,2.4-.15,2.4c0,0-.56,1.13,.03,2.26,0,0,.07,1.08-1.19,1.19,0,0,.98-.48-.03-2.46s-.93-3.79-.93-3.79c0,0,.05-.73-.87-1.7s.99-4.42,.99-4.42"/>
        <path class="cls-5" d="M473.05,608.58s-1.48-2.77-3.66-3.27c0,0-2.6-.72-3.4-3.06-.79-2.34-4.03-1.72-4.03-1.72,0,0,2.47,.78,3.91,4.95,0,0-1.98-.59-2.69-2.39s-3.16-2.35-3.16-2.35c0,0-2.01-.49-2.79-2.43,0,0-1.28-1.23-2.75,.24,0,0,1.64-.73,3.05,2.64s3.77,5.18,3.77,5.18c0,0,.97,.71,1.2,2.89s6.59,3.44,6.59,3.44"/>
        <path class="cls-5" d="M464.92,623.06s-3.03-.82-4.89,.43c0,0-2.31,1.41-4.56,.39s-4.01,1.76-4.01,1.76c0,0,2.26-1.27,6.29,.53,0,0-1.78,1.04-3.59,.33s-3.88,.7-3.88,.7c0,0-1.74,1.13-3.68,.38,0,0-1.77,.09-1.7,2.17,0,0,.59-1.69,4.01-.42s6.36,.79,6.36,.79c0,0,1.18-.22,2.93,1.1,1.75,1.32,7.01-2.45,7.01-2.45"/>
        <path class="cls-5" d="M469.36,638.18s-2.7,1.6-3.11,3.8c0,0-.6,2.63-2.91,3.53-2.3,.9-1.54,4.1-1.54,4.1,0,0,.67-2.5,4.77-4.13,0,0-.5,2-2.27,2.8s-2.2,3.26-2.2,3.26c0,0-.4,2.03-2.3,2.9,0,0-1.17,1.33,.36,2.73,0,0-.8-1.6,2.5-3.16s5.01-3.99,5.01-3.99c0,0,.67-1,2.84-1.33,2.17-.33,3.14-6.73,3.14-6.73"/>
        <path class="cls-5" d="M503.07,614.25s3.33-2.9,6.45-2.46c0,0,3.79,.36,6.01-2.31,2.22-2.68,6.16-.24,6.16-.24,0,0-3.64-.21-7.64,4.55,0,0,2.9,.22,4.75-1.79s5.34-1.5,5.34-1.5c0,0,2.9,.36,4.9-1.79,0,0,2.3-.97,3.49,1.7,0,0-1.79-1.78-5.34,1.94-3.56,3.72-7.56,4.92-7.56,4.92,0,0-1.63,.45-3.04,3.2-1.4,2.75-10.39,1.21-10.39,1.21"/>
        <path class="cls-5" d="M505.79,630.13s4.41,.34,6.28,2.88c0,0,2.4,2.96,5.86,2.66,3.47-.29,4.49,4.23,4.49,4.23,0,0-2.4-2.75-8.6-2.26,0,0,1.88,2.22,4.61,2.13s4.81,2.76,4.81,2.76c0,0,1.77,2.32,4.71,2.24,0,0,2.3,.96,1.24,3.68,0,0,.02-2.52-5.13-2.45-5.15,.07-8.81-1.95-8.81-1.95,0,0-1.46-.85-4.41,.08-2.95,.93-8.15-6.56-8.15-6.56"/>
        <path class="cls-5" d="M496.55,643.01s2.76,3.45,2.2,6.55c0,0-.52,3.77,2.07,6.1,2.59,2.33-.01,6.17-.01,6.17,0,0,.36-3.63-4.23-7.82,0,0-.33,2.88,1.6,4.82s1.28,5.4,1.28,5.4c0,0-.48,2.88,1.59,4.97,0,0,.88,2.34-1.84,3.42,0,0,1.85-1.71-1.72-5.42-3.57-3.7-4.61-7.76-4.61-7.76,0,0-.38-1.65-3.07-3.16s-.79-10.43-.79-10.43"/>
        <path class="cls-5" d="M481.58,604.59s-.32-4.41-2.84-6.3c0,0-2.94-2.42-2.63-5.88,.32-3.47-4.2-4.52-4.2-4.52,0,0,2.73,2.42,2.21,8.61,0,0-2.21-1.89-2.1-4.62,.11-2.73-2.73-4.83-2.73-4.83,0,0-2.31-1.79-2.21-4.73,0,0-.95-2.31-3.68-1.26,0,0,2.52,0,2.42,5.15-.11,5.15,1.89,8.82,1.89,8.82,0,0,.84,1.47-.11,4.41-.95,2.94,6.51,8.19,6.51,8.19"/>
        <path class="cls-5" d="M468.21,614.25s-3.33-2.9-6.45-2.46c0,0-3.79,.36-6.01-2.31-2.22-2.68-6.16-.24-6.16-.24,0,0,3.64-.21,7.64,4.55,0,0-2.9,.22-4.75-1.79-1.85-2.01-5.34-1.5-5.34-1.5,0,0-2.9,.36-4.9-1.79,0,0-2.3-.97-3.49,1.7,0,0,1.79-1.78,5.34,1.94s7.56,4.92,7.56,4.92c0,0,1.63,.45,3.04,3.2,1.4,2.75,10.39,1.21,10.39,1.21"/>
        <path class="cls-5" d="M465.5,630.13s-4.41,.34-6.28,2.88c0,0-2.4,2.96-5.86,2.66s-4.49,4.23-4.49,4.23c0,0,2.4-2.75,8.6-2.26,0,0-1.88,2.22-4.61,2.13s-4.81,2.76-4.81,2.76c0,0-1.77,2.32-4.71,2.24,0,0-2.3,.96-1.24,3.68,0,0-.02-2.52,5.13-2.45s8.81-1.95,8.81-1.95c0,0,1.46-.85,4.41,.08s8.15-6.56,8.15-6.56"/>
        <path class="cls-5" d="M474.74,643.01s-2.76,3.45-2.2,6.55c0,0,.52,3.77-2.07,6.1s.01,6.17,.01,6.17c0,0-.36-3.63,4.23-7.82,0,0,.33,2.88-1.6,4.82-1.93,1.93-1.28,5.4-1.28,5.4,0,0,.48,2.88-1.59,4.97,0,0-.88,2.34,1.84,3.42,0,0-1.85-1.71,1.72-5.42s4.61-7.76,4.61-7.76c0,0,.38-1.65,3.07-3.16,2.69-1.52,.79-10.43,.79-10.43"/>
        <ellipse class="cls-5" cx="476.43" cy="623.12" rx=".63" ry=".61"/>
        <polygon class="cls-5" points="432.34 567.25 428.11 566.23 424.87 569.14 424.53 564.8 420.76 562.62 424.79 560.95 425.7 556.69 428.52 560.01 432.85 559.56 430.58 563.27 432.34 567.25"/>
        <polygon class="cls-5" points="442.98 601.95 438.74 600.93 435.5 603.84 435.16 599.5 431.4 597.32 435.42 595.65 436.33 591.39 439.16 594.71 443.49 594.26 441.21 597.97 442.98 601.95"/>
        <polygon class="cls-5" points="432.34 657.08 428.11 656.06 424.87 658.97 424.53 654.63 420.76 652.45 424.79 650.78 425.7 646.52 428.52 649.84 432.85 649.39 430.58 653.1 432.34 657.08"/>
        <polygon class="cls-5" points="461.45 681.98 457.21 680.96 453.97 683.87 453.63 679.53 449.87 677.35 453.89 675.69 454.8 671.43 457.63 674.74 461.96 674.29 459.68 678 461.45 681.98"/>
        <polygon class="cls-5" points="487.75 579.28 483.52 578.26 480.28 581.17 479.94 576.83 476.17 574.65 480.2 572.98 481.11 568.73 483.93 572.04 488.26 571.59 485.98 575.3 487.75 579.28"/>
        <polygon class="cls-5" points="522.17 560.53 517.94 559.51 514.7 562.42 514.36 558.08 510.59 555.9 514.62 554.24 515.53 549.98 518.35 553.29 522.68 552.84 520.41 556.55 522.17 560.53"/>
        <polygon class="cls-5" points="529.17 590.75 524.93 589.74 521.7 592.65 521.36 588.3 517.59 586.12 521.61 584.46 522.52 580.2 525.35 583.51 529.68 583.06 527.4 586.77 529.17 590.75"/>
        <polygon class="cls-5" points="461.73 561.09 457.49 560.07 454.25 562.98 453.91 558.64 450.15 556.46 454.17 554.79 455.08 550.54 457.91 553.85 462.24 553.4 459.96 557.11 461.73 561.09"/>
        <polygon class="cls-5" points="490.27 678.35 486.04 677.33 482.8 680.24 482.46 675.9 478.69 673.71 482.71 672.05 483.62 667.79 486.45 671.1 490.78 670.66 488.5 674.37 490.27 678.35"/>
        <polygon class="cls-5" points="519.09 678.91 514.86 677.89 511.62 680.8 511.28 676.46 507.51 674.27 511.54 672.61 512.45 668.35 515.27 671.66 519.61 671.21 517.33 674.93 519.09 678.91"/>
        <polygon class="cls-5" points="548.2 599.99 543.96 598.97 540.72 601.88 540.39 597.54 536.62 595.36 540.64 593.69 541.55 589.44 544.38 592.75 548.71 592.3 546.43 596.01 548.2 599.99"/>
        <polygon class="cls-5" points="444.52 576.24 442.11 575.66 440.26 577.32 440.06 574.85 437.91 573.6 440.21 572.65 440.73 570.22 442.34 572.11 444.81 571.86 443.51 573.97 444.52 576.24"/>
        <polygon class="cls-5" points="426.75 618.34 424.33 617.76 422.49 619.42 422.29 616.94 420.14 615.7 422.44 614.75 422.96 612.32 424.57 614.21 427.04 613.95 425.74 616.07 426.75 618.34"/>
        <polygon class="cls-5" points="497.57 559.56 495.16 558.98 493.31 560.64 493.12 558.16 490.97 556.91 493.26 555.97 493.78 553.54 495.39 555.43 497.86 555.17 496.57 557.29 497.57 559.56"/>
        <polygon class="cls-5" points="535.44 569.86 533.03 569.28 531.18 570.93 530.98 568.46 528.83 567.21 531.13 566.26 531.65 563.84 533.26 565.73 535.73 565.47 534.43 567.59 535.44 569.86"/>
        <polygon class="cls-5" points="447.69 664.26 445.27 663.68 443.43 665.34 443.23 662.87 441.08 661.62 443.38 660.67 443.9 658.24 445.51 660.13 447.98 659.88 446.68 661.99 447.69 664.26"/>
        <polygon class="cls-5" points="475.49 693.3 473.07 692.72 471.22 694.38 471.03 691.91 468.88 690.66 471.18 689.71 471.7 687.28 473.31 689.17 475.78 688.92 474.48 691.03 475.49 693.3"/>
        <polygon class="cls-5" points="428.81 680.31 426.4 679.72 424.55 681.38 424.36 678.91 422.21 677.66 424.5 676.71 425.02 674.28 426.63 676.17 429.1 675.92 427.81 678.03 428.81 680.31"/>
        <polygon class="cls-5" points="507.59 693.11 505.17 692.52 503.32 694.18 503.13 691.71 500.98 690.46 503.28 689.51 503.8 687.09 505.41 688.98 507.88 688.72 506.58 690.84 507.59 693.11"/>
        <polygon class="cls-5" points="531.21 661.29 528.79 660.71 526.95 662.37 526.75 659.89 524.6 658.65 526.9 657.7 527.42 655.27 529.03 657.16 531.5 656.9 530.2 659.02 531.21 661.29"/>
      </g>
      <path class="cls-3" d="M744.94,462.62s-9.12,6.72-27.46,.96"/>
      <path class="cls-13" d="M517.27,495.92s-10.61,4.95-26.62-1.18"/>
      <path class="cls-15" d="M394.85,821.61s-12.84-17.29-9.96-28.56"/>
      <path class="cls-15" d="M376.91,798.8s-.84-4.76,.12-6.67"/>
      <path class="cls-15" d="M383.05,811.01s-4.44-9.36-2.54-18.25"/>
      <line class="cls-7" x1="656.37" y1="593.07" x2="659.25" y2="566.93"/>
      <line class="cls-7" x1="775.99" y1="591.46" x2="772.41" y2="567.48"/>
    </g>
  </g>
</svg>