<?xml version="1.0" encoding="UTF-8"?>
<svg id="Layer_1" data-name="Layer 1" xmlns="http://www.w3.org/2000/svg" xmlns:xlink="http://www.w3.org/1999/xlink" viewBox="0 0 1334.99 1003.22">
  <defs>
    <style>
      .cls-1, .cls-2, .cls-3, .cls-4, .cls-5, .cls-6, .cls-7, .cls-8, .cls-9, .cls-10 {
        fill: none;
      }

      .cls-2 {
        stroke: #231f20;
      }

      .cls-2, .cls-3, .cls-4 {
        stroke-width: 1.5px;
      }

      .cls-2, .cls-3, .cls-4, .cls-11, .cls-5, .cls-6, .cls-7, .cls-8, .cls-9, .cls-10 {
        stroke-miterlimit: 10;
      }

      .cls-3 {
        stroke: #006838;
      }

      .cls-4, .cls-6, .cls-8 {
        stroke: #754c29;
      }

      .cls-12 {
        clip-path: url(#clippath);
      }

      .cls-13 {
        fill: #00a79d;
      }

      .cls-14 {
        fill: #f05380;
      }

      .cls-15 {
        fill: #fff;
      }

      .cls-16 {
        fill: #efcccd;
      }

      .cls-17 {
        fill: #803435;
      }

      .cls-18 {
        fill: #00a651;
      }

      .cls-19 {
        fill: #8c3333;
      }

      .cls-20 {
        fill: #b6302e;
      }

      .cls-21 {
        fill: #8b5e3c;
      }

      .cls-22 {
        fill: #8dc63f;
      }

      .cls-23 {
        fill: #ae8578;
      }

      .cls-24 {
        fill: #a97c50;
      }

      .cls-25, .cls-11 {
        fill: #be9e7d;
      }

      .cls-26 {
        fill: #bf6b6b;
      }

      .cls-27, .cls-28 {
        fill: #dea962;
      }

      .cls-29 {
        fill: #dc3b28;
      }

      .cls-30 {
        fill: #231f20;
      }

      .cls-31 {
        fill: #07935b;
      }

      .cls-32 {
        fill: #3a4851;
      }

      .cls-33 {
        fill: #3c2415;
      }

      .cls-34 {
        fill: #58595b;
      }

      .cls-35 {
        fill: #26130f;
      }

      .cls-36 {
        clip-path: url(#clippath-1);
      }

      .cls-11 {
        stroke: #603913;
      }

      .cls-5 {
        stroke-width: 2px;
      }

      .cls-5, .cls-7 {
        stroke: #be1e2d;
      }

      .cls-37 {
        opacity: .5;
      }

      .cls-8 {
        stroke-width: 8px;
      }

      .cls-28, .cls-38 {
        opacity: .8;
      }

      .cls-38 {
        fill: #edb36e;
      }

      .cls-39 {
        fill: #27aae1;
        opacity: .4;
      }

      .cls-9 {
        stroke: #fff;
      }

      .cls-9, .cls-10 {
        stroke-width: .5px;
      }

      .cls-10 {
        stroke: #fff200;
      }
    </style>
    <clipPath id="clippath">
      <rect class="cls-1" x="70.22" y="293.37" width="612.48" height="133.03"/>
    </clipPath>
    <clipPath id="clippath-1">
      <path class="cls-1" d="M794.27,365.92s-2.93,5.49,23.04,44.81l3.29,14.45-10.42,18.84-13.72-6.4-6.04-43.16-.37-27.25,4.21-1.28Z"/>
    </clipPath>
  </defs>
  <g>
    <g class="cls-37">
      <g class="cls-12">
        <path class="cls-18" d="M134.34,506.52s49.61,41.49,70.63-24.55c21.02-66.04,45.16-51.07,45.16-51.07,0,0,21.56-28.05-14.59-55.82-36.15-27.77-71.64,24.37-71.64,24.37,0,0-18.2,44.61-39.95,7.46-21.75-37.15-64.78,3.66-37.58,28.49s40.67,43.21,47.96,71.12Z"/>
        <path class="cls-22" d="M537.08,489.12s33.19,29.81,33.91-21.42c.72-51.23-46.17-45.64-49.78-63.34-3.61-17.7-20.92-46.57-67.09-46.57s-7.94,80.1-42.57,90.35c-34.63,10.25-63.49,81.03-17.31,74.51,46.17-6.52,93.79,23.29,95.95,30.74s-2.16,6.52,2.16,7.45c4.33,.93,82.97,14.9,44.73-71.72Z"/>
        <path class="cls-18" d="M515.51,448.93s-19-110.84,37.52-115.96c56.51-5.12,39.2,63.8,63.73,56.35,24.53-7.45,41.12-95,65.65-80.1l1.42,136.88-168.31,2.83Z"/>
        <path class="cls-13" d="M248.71,469.11s-2.89-108.04,73.59-81.03c76.47,27.01,96.67,40.05,111.1,22.35,14.43-17.7,36.7,26.08,22.68,58.68H248.71Z"/>
      </g>
    </g>
    <rect class="cls-28" x="793.1" y="119.36" width="119.07" height="300.56" transform="translate(1122.28 -583) rotate(90)"/>
    <rect class="cls-28" x="622.38" y="-621.46" width="90.15" height="1333.07" transform="translate(712.53 -622.38) rotate(90)"/>
    <rect class="cls-38" x="793.1" y="-.33" width="119.07" height="300.56" transform="translate(1002.59 -702.69) rotate(90)"/>
    <rect class="cls-38" x="793.1" y="238.67" width="119.07" height="300.56" transform="translate(1241.58 -463.69) rotate(90)"/>
    <rect class="cls-28" x="-27.78" y="237.88" width="119.07" height="63.51" transform="translate(301.39 237.88) rotate(90)"/>
    <rect class="cls-38" x="-27.78" y="118.2" width="119.07" height="63.51" transform="translate(181.71 118.2) rotate(90)"/>
    <rect class="cls-38" x="-27.78" y="357.19" width="119.07" height="63.51" transform="translate(420.7 357.19) rotate(90)"/>
    <rect class="cls-39" x="81.72" y="112.05" width="601" height="314.33"/>
    <rect class="cls-27" x=".36" y="803.87" width="1333.75" height="195.96"/>
    <rect class="cls-21" x="682.81" y="90.64" width="21.4" height="357.79"/>
    <rect class="cls-21" x="60.38" y="90.64" width="21.4" height="357.79"/>
    <rect class="cls-21" x="371.49" y="-199.48" width="21.4" height="601.64" transform="translate(280.85 483.53) rotate(-90)"/>
    <rect class="cls-21" x="371.49" y="136.25" width="21.4" height="601.64" transform="translate(-54.88 819.27) rotate(-90)"/>
    <rect class="cls-38" x="442.53" y="126.56" width="119.07" height="1002" transform="translate(1129.63 125.49) rotate(90)"/>
    <rect class="cls-28" x="442.53" y="6.88" width="119.07" height="1002" transform="translate(1009.94 5.81) rotate(90)"/>
    <rect class="cls-28" x="442.53" y="245.87" width="119.07" height="1002" transform="translate(1248.94 244.8) rotate(90)"/>
    <rect class="cls-24" x="1007.66" y="49.83" width="327.33" height="754.46"/>
    <polyline class="cls-8" points="1334.79 49.83 1007.66 49.83 1007.66 803.01"/>
  </g>
  <path class="cls-25" d="M624.07,595.93s40.35-5.59,72.59-43.56l2.32,148.16-72.64,45.08-2.28-149.69Z"/>
  <path class="cls-11" d="M464.65,584.2s-5.05,2.54-8.1,5.55"/>
  <path class="cls-11" d="M484.93,630.82s-11.56-8.35-21.43-7.89c0,0-3.98-14.38-11.41-20.11-7.43-5.72-13.13-12.17-22.88-7.8-9.74,4.37-1.2,16.01-1.2,16.01l21.32,25.01"/>
  <path class="cls-11" d="M428.02,611.03s-15.41-20.7-30.47-15.86c-15.06,4.85,4.57,18.01,4.57,18.01l10.99,15.22"/>
  <path class="cls-11" d="M534.36,602.28s-1.59,10.72-11.5,19.11"/>
  <g>
    <path class="cls-25" d="M954.32,353.42s-3.28,51.48,11.61,81.51c0,0,17.73,142.31-98.13,150.08,0,0-87.31-20.21-38.86-134.15,0,0,20.58-8.89,20.31-29.1-.29-21.4-2.75,.46-2.75,.46l107.82-68.8"/>
    <path class="cls-25" d="M958.13,324.11s-1.97-108.17-98.41-118.09c0,0-81.88-.76-66.16,100.8,0,0,2.87,10.88,.06,19.1,0,0-10.12,12.48,1.22,44.33,11.34,31.86,30.24,50.71,30.24,50.71,0,0,11.25,13.16,35.3,14,0,0,18.98,2.76,40.8-10.56,0,0,52.89-26.37,50.84-58.4,0,0,23.42,16.37,34.89-21.21,0,0,10.43-52.15-28.79-20.69Z"/>
    <path class="cls-31" d="M970.3,460.11s31.96,8.19,67.04,25.93c68.59,34.69,46.56,146.67,46.56,146.67,0,0-5.53,6.82-76.15,34.1l43.16,216.96s-19.49,43.69-152.17,37.39c0,0-156.11,16.27-176.79-48.17,0,0,1.02-73.31,9.16-143.86,0,0-16.37-16.77-7.83-66.3l-52.84-35.23,37.45-96.26s7.24-51.55,85.02-66.46c0,0,21.05-5,36.01-14.02,0,0-8.09,58.88-1.33,81.56,0,0,40.56,41.86,115.27-5.82,0,0,17.7-13.87,27.42-66.51Z"/>
    <path class="cls-35" d="M873.79,293.57s33.29-8.77,47.89,2.67c0,0-10.45-17.68-48.36-10.54,0,0-6.83,4.7,.46,7.87Z"/>
    <path class="cls-35" d="M789.27,291c.72-1.44,15.38-10.34,36.64-5.31,0,0,6.75,3.89-.59,6.52,0,0-25.45-7.65-37.5,4.26,0,0-.31-1.91,1.46-5.47Z"/>
    <path class="cls-2" d="M832.28,333.82s-13.86,19.92,9.71,22.67"/>
    <path class="cls-2" d="M982.44,337.3s-6.64-18.49-21.22,10.86c0,0,12.19-12.87,14.15-1.64"/>
    <path class="cls-35" d="M843.19,431.78s16.79,8.45,46.56-1.2c0,0,14.75-5.37,33.45-19.93,0,0-23.3,25.51-57.56,27.46,0,0-10.78,.93-22.92-3.01,0,0,1,.03,.47-3.32Z"/>
    <g>
      <path class="cls-15" d="M903.72,308.91s.04-.71-.45-1.33c-1.64-2.06-5.48-5.94-11.82-6.28-7.1-.38-11.36,6.08-12.82,8.39-.25,.4-.25,.76-.25,.76,0,0-.05,.39,.18,.68,1.06,1.37,4.64,5.24,11.36,5.7,3.99,.27,9.72-1.58,13.49-6.82,.26-.36,.3-.85,.31-1.1Z"/>
      <circle class="cls-35" cx="889.02" cy="309.39" r="7.35"/>
      <circle class="cls-15" cx="893.29" cy="305.91" r="2.02"/>
      <path class="cls-2" d="M878.2,309.68s9.53-16.48,25.35-2.14"/>
    </g>
    <g>
      <path class="cls-15" d="M820.73,310.54s.14-.66-.23-1.3c-1.23-2.15-4.25-6.31-10.09-7.53-6.54-1.37-11.43,4.03-13.12,5.97-.29,.33-.34,.67-.34,.67,0,0-.1,.36,.07,.66,.79,1.43,3.57,5.54,9.75,6.93,3.68,.83,9.27-.08,13.52-4.41,.3-.3,.4-.74,.45-.98Z"/>
      <circle class="cls-35" cx="806.99" cy="308.87" r="6.89"/>
      <circle class="cls-15" cx="810.96" cy="305.82" r="1.93"/>
      <path class="cls-2" d="M797.13,307.88s10.92-15,23.52,1.67"/>
    </g>
    <path class="cls-7" d="M1007.76,666.82s-10.45-44.71-10.46-71.92"/>
    <path class="cls-31" d="M721.96,872.99s-12.83,57.15-13.68,130.23l363.88-.61s5.43-83.33-21.23-118.83c0,0-183.29,90.54-328.97-10.78Z"/>
    <path class="cls-14" d="M1045.71,868.4s-163.06,86.56-324.59,.56l4.03-26.7s104.86,72.49,316.08-2.96l4.48,29.1Z"/>
    <path class="cls-14" d="M971.59,566.53s-100.11,55.18-215.25-9.4l-7.04,20s118.31,72.58,227.02,7.36l-4.73-17.96Z"/>
    <path class="cls-30" d="M775.09,469.46c-3.24-36.88,2.35-95.62,2.35-95.62-14.91-117.22,20.35-155.97,20.35-155.97,81.54-69.67,150.58-15.97,150.58-15.97,19.11,5.88,64.23,32.31,65.7,91.11,1.47,58.79,8.38,76.29,14.25,117.44,0,0,30.59,121.98-2.15,258.76-4.98,20.81,7.56,68.01,7.56,68.01,0,0-82.85,12.29-105.79-199.23-6.89-63.51,22.73-171.58,22.73-171.58,20.07,8.28,25.57-4.39,25.57-4.39,0,0,12.61-18.8,8.06-38.25-4.63-19.75-28.27,1.28-28.27,1.28-13.11-75.16-44.33-94.05-44.33-94.05-78.1,33.16-111.34,25.28-111.34,25.28,0,0-7.66,15.9-8.49,29.27-.82,13.37,1.82,25.02,1.82,25.02,3.82,9.02,.35,18.81,.35,18.81-8.64,19.03,1.17,41.17,1.17,41.17,21.72,56.8,51.98,62.18,51.98,62.18-.26,18.58-27.72,27.18-27.72,27.18"/>
    <polyline class="cls-9" points="1044.16 859.95 1025.98 852.83 1020.38 872.42 999.4 861.73 992.41 881.91 973.53 868.26 965.14 891.41 946.95 872.42 935.07 893.79 920.38 877.17 905.69 897.94 892.41 878.95 879.82 899.13 866.53 881.32 851.84 898.53 840.65 880.13 821.07 895.57 809.88 875.98 793.8 890.22 785.41 870.64 766.52 881.91 760.23 864.11 744.15 870.04 738.55 856.39 726.66 862.92"/>
    <polyline class="cls-9" points="1044.06 844.67 1034.29 868.91 1013.26 856.15 1006.49 879.11 986.96 863.8 980.2 886.13 960.66 870.18 949.39 893.78 933.61 875.28 920.84 896.97 905.81 878.47 893.04 897.61 878.01 880.39 866.74 899.52 854.72 880.39 837.43 896.97 826.16 877.2 808.88 892.5 799.11 873.37 781.08 886.76 772.82 866.99 754.03 879.11 748.77 859.34 735.25 868.91 729.24 850.41"/>
    <polyline class="cls-9" points="932.98 588.44 923.95 600.86 912.1 590.14 905.33 602.55 893.48 593.52 881.63 607.06 872.6 594.09 862.44 604.81 855.11 592.96 842.69 602.55 834.23 590.14 821.25 600.29 813.35 586.75 801.5 594.09 794.73 580.54 780.06 586.19 774.42 572.64 760.31 578.85 757.49 565.31"/>
    <polyline class="cls-9" points="935.23 597.47 922.82 587.31 914.92 602.55 903.07 590.14 894.61 605.94 883.32 593.52 871.47 606.5 862.44 592.96 853.41 604.24 844.95 590.14 833.1 602.55 824.64 587.31 812.79 597.47 804.32 582.24 793.04 591.83 785.7 576.03 770.47 583.93 766.52 566.44 753.27 574.51"/>
    <g>
      <circle class="cls-10" cx="964.14" cy="375.63" r="15.16"/>
      <line class="cls-10" x1="964.14" y1="390.79" x2="964.14" y2="439.82"/>
      <line class="cls-10" x1="975.63" y1="385.59" x2="975.63" y2="411.8"/>
      <line class="cls-10" x1="971.71" y1="388.8" x2="971.71" y2="422.85"/>
      <line class="cls-10" x1="967.97" y1="390.23" x2="967.97" y2="431.58"/>
      <line class="cls-10" x1="956.53" y1="388.8" x2="956.53" y2="422.85"/>
      <line class="cls-10" x1="960.28" y1="390.23" x2="960.28" y2="431.58"/>
      <line class="cls-10" x1="952.49" y1="385.59" x2="952.49" y2="411.8"/>
    </g>
    <g class="cls-36">
      <g>
        <circle class="cls-10" cx="807" cy="373.57" r="15.16"/>
        <line class="cls-10" x1="807" y1="388.73" x2="807" y2="437.76"/>
        <line class="cls-10" x1="814.57" y1="403.31" x2="814.57" y2="420.79"/>
        <line class="cls-10" x1="810.83" y1="388.17" x2="810.83" y2="429.52"/>
        <line class="cls-10" x1="799.39" y1="386.74" x2="799.39" y2="420.79"/>
        <line class="cls-10" x1="803.13" y1="388.17" x2="803.13" y2="429.52"/>
        <line class="cls-10" x1="795.35" y1="383.53" x2="795.35" y2="409.74"/>
      </g>
    </g>
    <path class="cls-14" d="M1082.38,651.68s-16.02,6.37-53.69,7.27l4.02-19.89s9.97,2.31,52.5-10.39l-2.83,23.01Z"/>
    <polyline class="cls-9" points="1081.38 634.53 1071.15 649.86 1058.08 638.61 1047.19 652.1 1032.76 641.47"/>
    <polyline class="cls-9" points="1080.4 648.32 1069.43 636.76 1060.69 651.14 1046.3 640.1 1034.1 653.98"/>
    <path class="cls-26" d="M884.51,380.21s-23.28-8.44-33.99-.7c0,0-6.32-6.8-25.82-.1,0,0,3.05,27.75,26.1,28.51,32.9,1.08,33.71-27.71,33.71-27.71Z"/>
    <path class="cls-17" d="M879.93,383.13s-3.6,18.22-26.41,17.97c-22.81-.25-24.79-18.8-24.79-18.8,0,0,37.29-2.89,51.2,.83Z"/>
    <path class="cls-15" d="M874.35,382.1s-5.46,5.43-22.99,5.43c-16.14,0-20.69-5.45-20.69-5.45,0,0,23.81-2.54,43.68,.02Z"/>
    <path class="cls-14" d="M670.45,627.6s42.21,32.57,52.84,35.23c0,0,.08-11.26,2.73-26.21,0,0-43.51-16.94-47.5-29.23l-8.08,20.21Z"/>
    <path class="cls-3" d="M723.3,662.83s-.71-37.31,15.8-78.87c0,0,14.8-20.5,11.96-55.22"/>
    <polyline class="cls-9" points="673.55 625.66 686.51 622.01 690.82 637.29 703.44 631.97 705.44 645.92 719.72 639.28 721.38 655.55"/>
    <polyline class="cls-9" points="677.87 614.7 682.19 632.97 694.81 627.65 699.13 643.93 711.42 635.63 714.74 652.9 723.71 644.59"/>
  </g>
  <path class="cls-32" d="M628.29,934.27s-8.51,47.27-10.57,67.86l-358.34-.4-.11-81.25,369.02,13.78Z"/>
  <path class="cls-25" d="M401.87,256.76s3.55,39.26-13.85,72.61c0,0-6.21,117.56,86.58,126.99,0,0,121.59-72.23,37.44-125.58l-110.18-74.02Z"/>
  <path class="cls-29" d="M375.22,338.21s-77.53,30.36-102.19,68.35c0,0-25.97,16.28-36.63,64.27,0,0-32.35,97.61-21.2,166.22,0,0,47.68,17.11,125.4,12.98l-81.33,270.45s29.9,39.85,208.93,42.28c0,0,108.11,4.12,170.92-32.95,0,0-10.55-165.41-13.28-330.43,0,0,37.58-6.51,75.7-51.07l-44.7-126.76s-.68-5.69-48.34-39.91c0,0-37.51-19.88-64.34-31.29l-51.62,34.16-16.77,47.67-27.43-45.14s5.52-2.27-73.11-48.82Z"/>
  <path class="cls-25" d="M569.29,106.11s19.27,27.33,14.53,93.23c0,0-2.7,15.83-.98,24.37,1.72,8.54,1.78,22.75-1.42,31.89-3.2,9.14-26.77,70.38-26.77,70.38,0,0-7.7,17.76-38.81,18.16-31.11,.4-57.54-10.92-68.77-24.01-11.23-13.09-39.3-34.28-42.11-54.43,0,0-18.46,4.25-26.04-17.96,0,0-20.19-34.49-.12-43.53s31.77,18.74,31.77,18.74c0,0-24.08-81.8,21.76-113.76,0,0,56.51-47.32,136.97-3.08Z"/>
  <path class="cls-30" d="M505.91,175s-30.23-11.96-53.71,1.24c0,0,17.19-19.44,54.91-8.91,0,0,6,5.32-1.2,7.67Z"/>
  <path class="cls-30" d="M584.99,180.74c-20.37-8.33-37.37-4.47-37.37-4.47-6.68-3.56,.14-7.76,.14-7.76,12.14-1.21,29.06,1.71,36.06,3.64,0,0,2.13,8.99,1.17,8.6Z"/>
  <path class="cls-2" d="M377.65,218.98s8.2-10.97,15.96,1.16c7.76,12.13,7.99,16.04,7.99,16.04,0,0-11.01-19.19-16.67-4.64"/>
  <path class="cls-35" d="M522.62,341.76s-32.31,3.94-54.41-6.68c0,0-13.54-4.29-31.36-24.94,0,0,17.21,30.4,50.58,34.81,0,0,14.93,3.55,30.18-1.57,0,0,4.24,1.63,5-1.61Z"/>
  <path class="cls-5" d="M348.34,648.28s72.27-204.44-31.68-246.82"/>
  <line class="cls-5" x1="623.55" y1="603.87" x2="628" y2="463.45"/>
  <g>
    <path class="cls-15" d="M473.31,197.37s0-.72,.55-1.31c1.8-1.95,5.92-5.57,12.31-5.46,7.15,.13,10.97,6.91,12.27,9.33,.22,.42,.2,.78,.2,.78,0,0,.02,.4-.23,.67-1.16,1.3-5.03,4.93-11.81,4.92-4.03,0-9.65-2.28-13.06-7.81-.24-.38-.25-.87-.23-1.13Z"/>
    <circle class="cls-35" cx="488.04" cy="198.9" r="7.39"/>
    <circle class="cls-15" cx="482.86" cy="195.23" r="2.03"/>
    <path class="cls-2" d="M498.88,199.96s-8.4-17.22-25.29-3.95"/>
  </g>
  <g>
    <path class="cls-15" d="M555.64,204.85s-.1-.67,.32-1.29c1.39-2.07,4.71-6.03,10.66-6.84,6.67-.91,11.19,4.86,12.74,6.92,.27,.36,.29,.7,.29,.7,0,0,.07,.37-.12,.66-.9,1.38-3.98,5.31-10.28,6.26-3.75,.57-9.3-.74-13.26-5.39-.28-.32-.35-.77-.38-1.02Z"/>
    <circle class="cls-35" cx="569.56" cy="204.15" r="6.93"/>
    <circle class="cls-15" cx="564.95" cy="200.78" r="1.94"/>
    <path class="cls-2" d="M579.52,203.86s-9.89-15.83-23.72,0"/>
  </g>
  <polygon class="cls-19" points="377.33 326.56 390.94 324.41 388.41 340.41 377.33 326.56"/>
  <path class="cls-20" d="M365.83,341.78s60.87,37.47,92.69,63.67l-4.21-19.65s-58.53-34.65-76.98-59.24l-11.5,15.22Z"/>
  <path class="cls-20" d="M522.62,341.76s26.19-.86,25.2,16.1l-57.95,41.98,2.66-15.34s25.25-12.63,41.83-33.06c0,0-11.11-1.5-11.74-9.68Z"/>
  <path class="cls-7" d="M475.02,432.38s17.75,169.81,14.95,530.28"/>
  <ellipse class="cls-16" cx="489.06" cy="481.85" rx="4.22" ry="4.57"/>
  <ellipse class="cls-16" cx="493.52" cy="561.61" rx="4.22" ry="4.57"/>
  <ellipse class="cls-16" cx="496.66" cy="647.59" rx="4.22" ry="4.57"/>
  <ellipse class="cls-16" cx="498.47" cy="735" rx="4.22" ry="4.57"/>
  <ellipse class="cls-16" cx="499.46" cy="819.22" rx="4.22" ry="4.57"/>
  <ellipse class="cls-16" cx="497.98" cy="913.73" rx="4.22" ry="4.57"/>
  <g>
    <polygon class="cls-16" points="414.94 959.86 422.34 951.08 405.54 935.45 389.91 952.25 395.01 957.18 414.94 959.86"/>
    <polygon class="cls-16" points="443.1 962.54 454.66 949.92 437.86 934.29 422.23 951.09 432.64 961.56 443.1 962.54"/>
    <rect class="cls-16" x="393.48" y="907.63" width="22.95" height="22.95" transform="translate(-543.8 589.53) rotate(-47.07)"/>
    <rect class="cls-34" x="410.17" y="923.46" width="22.95" height="22.95" transform="translate(-550.06 606.79) rotate(-47.07)"/>
    <rect class="cls-16" x="425.8" y="906.47" width="22.95" height="22.95" transform="translate(-532.64 612.82) rotate(-47.07)"/>
    <rect class="cls-16" x="392.41" y="875.15" width="22.95" height="22.95" transform="translate(-520.35 578.39) rotate(-47.07)"/>
    <rect class="cls-34" x="409.1" y="890.98" width="22.95" height="22.95" transform="translate(-526.62 595.65) rotate(-47.07)"/>
    <rect class="cls-16" x="424.73" y="873.99" width="22.95" height="22.95" transform="translate(-509.2 601.68) rotate(-47.07)"/>
    <rect class="cls-16" x="391.24" y="842.86" width="22.95" height="22.95" transform="translate(-497.09 567.24) rotate(-47.07)"/>
    <rect class="cls-34" x="407.93" y="858.69" width="22.95" height="22.95" transform="translate(-503.35 584.5) rotate(-47.07)"/>
    <rect class="cls-16" x="423.56" y="841.7" width="22.95" height="22.95" transform="translate(-485.93 590.53) rotate(-47.07)"/>
    <rect class="cls-16" x="390.08" y="810.57" width="22.95" height="22.95" transform="translate(-473.82 556.09) rotate(-47.07)"/>
    <rect class="cls-34" x="406.77" y="826.4" width="22.95" height="22.95" transform="translate(-480.08 573.35) rotate(-47.07)"/>
    <rect class="cls-16" x="422.4" y="809.41" width="22.95" height="22.95" transform="translate(-462.66 579.38) rotate(-47.07)"/>
    <rect class="cls-16" x="388.91" y="778.28" width="22.95" height="22.95" transform="translate(-450.55 544.94) rotate(-47.07)"/>
    <rect class="cls-34" x="405.6" y="794.1" width="22.95" height="22.95" transform="translate(-456.81 562.2) rotate(-47.07)"/>
    <rect class="cls-16" x="421.23" y="777.11" width="22.95" height="22.95" transform="translate(-439.39 568.23) rotate(-47.07)"/>
    <rect class="cls-16" x="387.75" y="746.1" width="22.95" height="22.95" transform="translate(-427.36 533.83) rotate(-47.07)"/>
    <rect class="cls-34" x="404.44" y="761.93" width="22.95" height="22.95" transform="translate(-433.62 551.1) rotate(-47.07)"/>
    <rect class="cls-16" x="420.07" y="744.94" width="22.95" height="22.95" transform="translate(-416.2 557.12) rotate(-47.07)"/>
    <rect class="cls-16" x="386.59" y="713.81" width="22.95" height="22.95" transform="translate(-404.09 522.68) rotate(-47.07)"/>
    <rect class="cls-34" x="403.28" y="729.64" width="22.95" height="22.95" transform="translate(-410.35 539.95) rotate(-47.07)"/>
    <rect class="cls-16" x="418.91" y="712.65" width="22.95" height="22.95" transform="translate(-392.93 545.98) rotate(-47.07)"/>
    <rect class="cls-16" x="385.43" y="681.63" width="22.95" height="22.95" transform="translate(-380.9 511.58) rotate(-47.07)"/>
    <rect class="cls-34" x="402.12" y="697.46" width="22.95" height="22.95" transform="translate(-387.16 528.84) rotate(-47.07)"/>
    <rect class="cls-16" x="417.75" y="680.47" width="22.95" height="22.95" transform="translate(-369.74 534.87) rotate(-47.07)"/>
    <rect class="cls-16" x="384.26" y="649.34" width="22.95" height="22.95" transform="translate(-357.63 500.43) rotate(-47.07)"/>
    <rect class="cls-34" x="400.95" y="665.17" width="22.95" height="22.95" transform="translate(-363.89 517.69) rotate(-47.07)"/>
    <rect class="cls-16" x="416.58" y="648.18" width="22.95" height="22.95" transform="translate(-346.47 523.72) rotate(-47.07)"/>
    <rect class="cls-16" x="383.1" y="617.16" width="22.95" height="22.95" transform="translate(-334.44 489.32) rotate(-47.07)"/>
    <rect class="cls-34" x="399.79" y="632.99" width="22.95" height="22.95" transform="translate(-340.71 506.58) rotate(-47.07)"/>
    <rect class="cls-16" x="415.42" y="616" width="22.95" height="22.95" transform="translate(-323.28 512.61) rotate(-47.07)"/>
    <rect class="cls-16" x="381.82" y="584.31" width="22.95" height="22.95" transform="translate(-310.79 477.9) rotate(-47.07)"/>
    <rect class="cls-34" x="398.5" y="600.13" width="22.95" height="22.95" transform="translate(-317.06 495.16) rotate(-47.07)"/>
    <rect class="cls-16" x="414.14" y="583.14" width="22.95" height="22.95" transform="translate(-299.64 501.19) rotate(-47.07)"/>
    <rect class="cls-16" x="380.75" y="551.82" width="22.95" height="22.95" transform="translate(-287.35 466.76) rotate(-47.07)"/>
    <rect class="cls-34" x="397.43" y="567.65" width="22.95" height="22.95" transform="translate(-293.62 484.02) rotate(-47.07)"/>
    <rect class="cls-16" x="413.07" y="550.66" width="22.95" height="22.95" transform="translate(-276.2 490.05) rotate(-47.07)"/>
    <rect class="cls-16" x="379.58" y="519.54" width="22.95" height="22.95" transform="translate(-264.09 455.61) rotate(-47.07)"/>
    <rect class="cls-34" x="396.27" y="535.36" width="22.95" height="22.95" transform="translate(-270.35 472.87) rotate(-47.07)"/>
    <rect class="cls-16" x="411.9" y="518.37" width="22.95" height="22.95" transform="translate(-252.93 478.9) rotate(-47.07)"/>
    <rect class="cls-16" x="378.42" y="487.24" width="22.95" height="22.95" transform="translate(-240.82 444.46) rotate(-47.07)"/>
    <rect class="cls-34" x="395.1" y="503.07" width="22.95" height="22.95" transform="translate(-247.08 461.73) rotate(-47.07)"/>
    <rect class="cls-16" x="410.74" y="486.08" width="22.95" height="22.95" transform="translate(-229.66 467.75) rotate(-47.07)"/>
    <rect class="cls-16" x="377.25" y="454.95" width="22.95" height="22.95" transform="translate(-217.55 433.31) rotate(-47.07)"/>
    <rect class="cls-34" x="393.94" y="470.78" width="22.95" height="22.95" transform="translate(-223.81 450.58) rotate(-47.07)"/>
    <rect class="cls-16" x="409.57" y="453.79" width="22.95" height="22.95" transform="translate(-206.39 456.61) rotate(-47.07)"/>
    <rect class="cls-16" x="376.09" y="422.77" width="22.95" height="22.95" transform="translate(-194.36 422.21) rotate(-47.07)"/>
    <rect class="cls-34" x="392.78" y="438.6" width="22.95" height="22.95" transform="translate(-200.62 439.47) rotate(-47.07)"/>
    <rect class="cls-16" x="408.41" y="421.61" width="22.95" height="22.95" transform="translate(-183.2 445.5) rotate(-47.07)"/>
    <rect class="cls-16" x="374.93" y="390.48" width="22.95" height="22.95" transform="translate(-171.09 411.06) rotate(-47.07)"/>
    <rect class="cls-34" x="391.61" y="406.31" width="22.95" height="22.95" transform="translate(-177.35 428.32) rotate(-47.07)"/>
    <rect class="cls-16" x="407.25" y="389.32" width="22.95" height="22.95" transform="translate(-159.93 434.35) rotate(-47.07)"/>
    <rect class="cls-16" x="373.83" y="358.3" width="22.95" height="22.95" transform="translate(-147.87 400) rotate(-47.07)"/>
    <rect class="cls-34" x="390.52" y="374.12" width="22.95" height="22.95" transform="translate(-154.14 417.26) rotate(-47.07)"/>
    <polyline class="cls-34" points="404.29 366.07 401.52 369.17 384.72 353.54 385.53 352.67"/>
    <polygon class="cls-16" points="418.21 384.82 401.41 369.19 404.29 366.07 422.72 380.09 418.21 384.82"/>
  </g>
  <g>
    <polyline class="cls-16" points="354.73 623.38 330.81 637.91 316.68 614.63 341.68 599.46 355.25 621.77"/>
    <polygon class="cls-34" points="359.62 603.1 355.25 621.77 341.86 599.65 362.94 586.82 359.62 603.1"/>
    <polyline class="cls-16" points="362.87 586.71 341.64 599.59 327.51 576.32 352.51 561.15 364.05 580.16"/>
    <rect class="cls-16" x="282.48" y="596.83" width="29.24" height="27.23" transform="translate(-273.62 242.75) rotate(-31.26)"/>
    <rect class="cls-34" x="307.66" y="581.85" width="29.24" height="27.23" transform="translate(-262.19 253.64) rotate(-31.26)"/>
    <rect class="cls-16" x="293.31" y="558.52" width="29.24" height="27.23" transform="translate(-252.16 242.81) rotate(-31.26)"/>
    <rect class="cls-16" x="243.53" y="588.76" width="29.24" height="27.23" transform="translate(-275.08 221.37) rotate(-31.26)"/>
    <rect class="cls-34" x="268.71" y="573.78" width="29.24" height="27.23" transform="translate(-263.65 232.27) rotate(-31.26)"/>
    <rect class="cls-16" x="254.36" y="550.45" width="29.24" height="27.23" transform="translate(-253.63 221.43) rotate(-31.26)"/>
    <polygon class="cls-16" points="238.75 598.36 214.31 613.48 217.15 579.65 224.63 575.09 238.75 598.36"/>
    <rect class="cls-34" x="229.76" y="565.71" width="29.24" height="27.23" transform="translate(-265.12 210.88) rotate(-31.26)"/>
    <polygon class="cls-16" points="249.58 560.05 224.59 575.22 218.54 565.54 221.24 545.4 235.46 536.77 249.58 560.05"/>
    <polyline class="cls-34" points="218.54 565.54 224.98 575.31 217.15 579.65"/>
  </g>
  <path class="cls-2" d="M535.64,209.39l15.3,25.13s8.22,19.18-4.5,22.46c-11.32,2.92-11.68,.44-11.68,.44"/>
  <path class="cls-23" d="M482.86,271.98s15.46-3.8,33.25,2.39c0,0,15.82-2.21,29.7,1.74,0,0-3.04,25.15-27.04,29.34-24,4.2-37.22-18.76-35.91-33.48Z"/>
  <path class="cls-17" d="M486.55,273.99s-1.53,22.32,27.5,24.02c26.37,1.54,27.74-18.32,27.74-18.32,0,0-29.78-.4-55.24-5.7Z"/>
  <path class="cls-15" d="M490.13,274.52s6.59,10.76,29.12,10.99c0,0,13.82,1.51,20.06-5.52,0,0-29-1.07-49.18-5.47Z"/>
  <path class="cls-25" d="M673.06,630.09s-14.29,40.07-18.43,64.87l-26.32,4.1-1.26,87.77s10.65-3.15,28.19-6.56c8.25-1.6,13.84-7.22,27.67-2.82,13.54,4.31,26.3,11.91,42.7,15.84l6.78-55.78-9.1-74.67-50.24-32.74Z"/>
  <path class="cls-25" d="M221.05,638.98s27.25,145.33,70.88,172.93c43.63,27.6,251.07,34.07,251.07,34.07,0,0,41.38-2.66,63.15,5.36,0,0,74.47,35.52,108.85-16.61,0,0,8.02,2.29,12.03-12.6,0,0,1.13,.41,2.86,7.45,.8,3.23,5.44,3.57,8.53,1.92,1.5-.8,2.37-3.22,2.73-5.25,.15-.81,.13-1.64-.04-2.45l-.33-1.57c-.13-.63-.36-1.24-.67-1.81l-17.1-31.51-40.1-11.46s-15.06-5.77-27.67,2.82l-66.19,13.91s-178.13-77.59-221.09-89.62l-16.66-58.58s-47.97,8.92-130.25-7Z"/>
  <path class="cls-4" d="M686.7,786.89c8.97-1.25,26.17,8.72,33.4,13.46s5.98,8.72,5.98,8.72l.94,13.05s1.42,4.44,2.86,7.45c1.77,3.69,6.67,2.93,8.53,1.92,1.87-1.01,4.67-5.78,1.7-11.09-2.98-5.31-17.1-31.51-17.1-31.51l-41.53-11.91s-13.91-4.31-26.24,3.27l-66.19,13.91"/>
  <path class="cls-4" d="M679.87,803.29s28.41,8.44,30.95,17.16"/>
  <path class="cls-25" d="M973.03,696.32l-10.98,55.04-204.86,82.26s-19.13,3.06-25.78,.34c0,0-5.26-14.74-30-13.68-24.74,1.05-46.84-7.89-46.84-7.89,0,0-19.47-8.95-14.21,6.84,5.26,15.79,17.89,18.42,17.89,18.42,0,0-45.26,18.42-55.26,31.58-10,13.16,10,11.05,10,11.05l10.53-3.68s-1.58,14.74,22.11,10.53c0,0-2.67,10.29,7.34,10.12,.35,0,2.5-.36,2.5-.02,0,4.77,4.92,5.5,8.34,5.76,6.84,.53,37.61-5.33,37.61-5.33l62.15-17.27,249.9-37.27s40.34-11.86,46.67-56.16c6.33-44.29,18.48-133.88,18.48-133.88,0,0-9.31,3.56-49.82,4.65,0,0-15.95,69.71,4.94,79.49,0,0-31.17,1.87-60.71-40.89Z"/>
  <line class="cls-4" x1="623.52" y1="876.59" x2="672.98" y2="858.39"/>
  <path class="cls-4" d="M645.63,887.12s18.53-.16,35.76-11.92"/>
  <path class="cls-4" d="M684.33,826.87c-11.35,3.36-26.07,10.77-26.07,10.77,0,0-12.23-2.05-17.89-18.42-5.67-16.37,14.21-6.84,14.21-6.84,0,0,21.32,8.61,46.84,7.89,25.52-.72,30,13.68,30,13.68"/>
  <path class="cls-6" d="M962.06,751.36s24.78,3.06,30.73,17.19"/>
  <path class="cls-4" d="M658.26,837.65s-28.67,11.37-38.56,19.06"/>
  <path class="cls-4" d="M655.46,897.22s18.33-2.32,31.51-10.18"/>
  <polyline class="cls-4" points="673.06 630.09 654.63 694.96 628.31 699.06"/>
  <path class="cls-33" d="M409.46,224.06l9.83-4.48c.42-25.5,2.82-80.16,20.84-102.98,0,0,76.04-36.6,124.62-5.2,0,0,16.45,12.57,19.9,78.98,0,0,9.97-46.13-4.25-85.82,0,0,12.91-8.94,14.68-13.09,0,0-16.97,2.86-25.36-5.89-4.91-5.13-72.76-61.25-150.15-5.97,0,0-75.26,14.25-46.05,127.91,0,0,24.31-6.39,35.94,16.53Z"/>
  <path class="cls-33" d="M474.01,281.34s-.97-19.27,15.23-23.18c19.9-4.79,41.12-5.28,55.83,3.29,14.71,8.57,22.47,17.56,10.38,17.47-12.09-.09-35.57-16.1-61.77-4.42,0,0-10.48,9.94-19.68,6.84Z"/>
</svg>