<svg xmlns="http://www.w3.org/2000/svg" xmlns:xlink="http://www.w3.org/1999/xlink" width="1200" zoomAndPan="magnify" viewBox="0 0 900 675.000002" height="900" preserveAspectRatio="xMidYMid meet" version="1.0"><defs><clipPath id="cdc51736d8"><path d="M 0.664062 0 L 899.332031 0 L 899.332031 674 L 0.664062 674 Z M 0.664062 0 " clip-rule="nonzero"/></clipPath><clipPath id="0dc46e3525"><path d="M 0.664062 27 L 378 27 L 378 554 L 0.664062 554 Z M 0.664062 27 " clip-rule="nonzero"/></clipPath><clipPath id="3b68b6f303"><path d="M 0.664062 23 L 382 23 L 382 558 L 0.664062 558 Z M 0.664062 23 " clip-rule="nonzero"/></clipPath><clipPath id="e73571475d"><path d="M 0.664062 4 L 451 4 L 451 14 L 0.664062 14 Z M 0.664062 4 " clip-rule="nonzero"/></clipPath><clipPath id="dfc743f7a5"><path d="M 0.664062 259 L 110 259 L 110 390 L 0.664062 390 Z M 0.664062 259 " clip-rule="nonzero"/></clipPath><clipPath id="0ebb12cb76"><path d="M 0.664062 232 L 385 232 L 385 285 L 0.664062 285 Z M 0.664062 232 " clip-rule="nonzero"/></clipPath><clipPath id="d5ba9ba940"><path d="M 0.664062 105 L 76 105 L 76 177 L 0.664062 177 Z M 0.664062 105 " clip-rule="nonzero"/></clipPath><clipPath id="fe08746c1a"><path d="M 0.664062 272 L 28 272 L 28 334 L 0.664062 334 Z M 0.664062 272 " clip-rule="nonzero"/></clipPath><clipPath id="c8f9746f23"><path d="M 0.664062 310 L 38 310 L 38 383 L 0.664062 383 Z M 0.664062 310 " clip-rule="nonzero"/></clipPath><clipPath id="4c075cd359"><path d="M 0.664062 322 L 27 322 L 27 384 L 0.664062 384 Z M 0.664062 322 " clip-rule="nonzero"/></clipPath><clipPath id="61e3378de1"><path d="M 0.664062 360 L 18 360 L 18 394 L 0.664062 394 Z M 0.664062 360 " clip-rule="nonzero"/></clipPath><clipPath id="8ff906761f"><path d="M 0.664062 370 L 51 370 L 51 432 L 0.664062 432 Z M 0.664062 370 " clip-rule="nonzero"/></clipPath><clipPath id="8f06e01b22"><path d="M 0.664062 261 L 42 261 L 42 345 L 0.664062 345 Z M 0.664062 261 " clip-rule="nonzero"/></clipPath><clipPath id="4606e202fd"><path d="M 0.664062 217 L 76 217 L 76 370 L 0.664062 370 Z M 0.664062 217 " clip-rule="nonzero"/></clipPath><clipPath id="0cf26d7b25"><path d="M 0.664062 155 L 35 155 L 35 217 L 0.664062 217 Z M 0.664062 155 " clip-rule="nonzero"/></clipPath><clipPath id="09ad1aaadc"><path d="M 0.664062 153 L 57 153 L 57 215 L 0.664062 215 Z M 0.664062 153 " clip-rule="nonzero"/></clipPath><clipPath id="a48a8fad9a"><path d="M 519 339 L 899.332031 339 L 899.332031 674 L 519 674 Z M 519 339 " clip-rule="nonzero"/></clipPath><clipPath id="9355884c97"><path d="M 448 654 L 626 654 L 626 674 L 448 674 Z M 448 654 " clip-rule="nonzero"/></clipPath><clipPath id="148a59f482"><path d="M 447 645 L 625 645 L 625 674 L 447 674 Z M 447 645 " clip-rule="nonzero"/></clipPath><clipPath id="568d44f825"><path d="M 864 582 L 899.332031 582 L 899.332031 647 L 864 647 Z M 864 582 " clip-rule="nonzero"/></clipPath><clipPath id="fe3ae0bc5c"><path d="M 854 573 L 899.332031 573 L 899.332031 657 L 854 657 Z M 854 573 " clip-rule="nonzero"/></clipPath></defs><g clip-path="url(#cdc51736d8)"><path fill="#ffffff" d="M 0.664062 0 L 899.335938 0 L 899.335938 674 L 0.664062 674 Z M 0.664062 0 " fill-opacity="1" fill-rule="nonzero"/><path fill="#ffffff" d="M 0.664062 0 L 899.335938 0 L 899.335938 674 L 0.664062 674 Z M 0.664062 0 " fill-opacity="1" fill-rule="nonzero"/><path fill="#bcdcca" d="M -2.703125 -5.5625 L 906.558594 -5.5625 L 906.558594 675.804688 L -2.703125 675.804688 Z M -2.703125 -5.5625 " fill-opacity="1" fill-rule="nonzero"/></g><g clip-path="url(#0dc46e3525)"><path fill="#e6e7e8" d="M -19.433594 27.777344 L 377.398438 27.777344 L 377.398438 553.722656 L -19.433594 553.722656 Z M -19.433594 27.777344 " fill-opacity="1" fill-rule="nonzero"/></g><g clip-path="url(#3b68b6f303)"><path stroke-linecap="butt" transform="matrix(0.681538, 0, 0, 0.681408, -25.869234, -5.945148)" fill="none" stroke-linejoin="miter" d="M 9.442816 49.489397 L 591.702194 49.489397 L 591.702194 821.339721 L 9.442816 821.339721 Z M 9.442816 49.489397 " stroke="#ffffff" stroke-width="12" stroke-opacity="1" stroke-miterlimit="10"/></g><g clip-path="url(#e73571475d)"><path stroke-linecap="butt" transform="matrix(0.681538, 0, 0, 0.681408, -25.869234, -5.945148)" fill="none" stroke-linejoin="miter" d="M -0.00272915 22.058849 L 692.708769 22.058849 " stroke="#a97c50" stroke-width="12" stroke-opacity="1" stroke-miterlimit="10"/></g><path stroke-linecap="butt" transform="matrix(0.681538, 0, 0, 0.681408, -25.869234, -5.945148)" fill-opacity="1" fill="#a97c50" fill-rule="nonzero" stroke-linejoin="miter" d="M 721.498194 22.677971 C 721.498194 23.612387 721.40649 24.535337 721.228812 25.452555 C 721.045404 26.364041 720.776022 27.252595 720.420668 28.112487 C 720.059582 28.978112 719.623987 29.792142 719.10815 30.571778 C 718.586582 31.34568 718.001967 32.062257 717.342842 32.721507 C 716.683717 33.380757 715.961546 33.971216 715.18779 34.487152 C 714.414035 35.003087 713.594428 35.444498 712.7347 35.79992 C 711.874972 36.155342 710.986586 36.424774 710.069543 36.608218 C 709.158231 36.791661 708.229725 36.877651 707.301219 36.877651 C 706.366981 36.877651 705.444207 36.791661 704.527163 36.608218 C 703.615852 36.424774 702.727466 36.155342 701.867738 35.79992 C 701.002279 35.444498 700.188403 35.003087 699.408916 34.487152 C 698.635161 33.971216 697.918721 33.380757 697.259596 32.721507 C 696.600471 32.062257 696.010125 31.34568 695.494288 30.571778 C 694.97272 29.792142 694.537124 28.978112 694.18177 28.112487 C 693.826416 27.252595 693.557034 26.364041 693.373626 25.452555 C 693.190217 24.535337 693.098513 23.612387 693.098513 22.677971 C 693.098513 21.749288 693.190217 20.826338 693.373626 19.90912 C 693.557034 18.997634 693.826416 18.109079 694.18177 17.243455 C 694.537124 16.383563 694.97272 15.5638 695.494288 14.789897 C 696.010125 14.015995 696.600471 13.299418 697.259596 12.640168 C 697.918721 11.980917 698.635161 11.390458 699.408916 10.874523 C 700.188403 10.352856 701.002279 9.917177 701.867738 9.561755 C 702.727466 9.206333 703.615852 8.936901 704.527163 8.753457 C 705.444207 8.570013 706.366981 8.478292 707.301219 8.478292 C 708.229725 8.478292 709.158231 8.570013 710.069543 8.753457 C 710.986586 8.936901 711.874972 9.206333 712.7347 9.561755 C 713.594428 9.917177 714.414035 10.352856 715.18779 10.874523 C 715.961546 11.390458 716.683717 11.980917 717.342842 12.640168 C 718.001967 13.299418 718.586582 14.015995 719.10815 14.789897 C 719.623987 15.5638 720.059582 16.383563 720.420668 17.243455 C 720.776022 18.109079 721.045404 18.997634 721.228812 19.90912 C 721.40649 20.826338 721.498194 21.749288 721.498194 22.677971 Z M 721.498194 22.677971 " stroke="#a97c50" stroke-width="2" stroke-opacity="1" stroke-miterlimit="10"/><path fill="#535757" d="M 130.640625 273.882812 L 130.230469 505.976562 L 160.117188 507.203125 L 174.449219 342.648438 C 174.449219 342.648438 175.796875 339.285156 177.480469 342.480469 L 180.636719 505.886719 L 215.054688 506.523438 L 222 275.421875 Z M 130.640625 273.882812 " fill-opacity="1" fill-rule="nonzero"/><path stroke-linecap="round" transform="matrix(0.681538, 0, 0, 0.681408, -25.869234, -5.945148)" fill="none" stroke-linejoin="miter" d="M 227.452639 422.367134 L 365.341546 420.847992 " stroke="#231f20" stroke-width="2" stroke-opacity="1" stroke-miterlimit="10"/><path stroke-linecap="round" transform="matrix(0.681538, 0, 0, 0.681408, -25.869234, -5.945148)" fill="none" stroke-linejoin="miter" d="M 345.097817 423.628309 C 345.097817 423.628309 343.080322 448.427588 361.289361 461.578199 " stroke="#231f20" stroke-width="2" stroke-opacity="1" stroke-miterlimit="10"/><path stroke-linecap="round" transform="matrix(0.681538, 0, 0, 0.681408, -25.869234, -5.945148)" fill="none" stroke-linejoin="miter" d="M 251.742821 423.118106 C 251.742821 423.118106 251.742821 456.011833 230.988987 464.112014 " stroke="#231f20" stroke-width="2" stroke-opacity="1" stroke-miterlimit="10"/><path stroke-linecap="round" transform="matrix(0.681538, 0, 0, 0.681408, -25.869234, -5.945148)" fill="none" stroke-linejoin="miter" d="M 295.760894 422.871604 L 295.250788 442.608987 C 295.250788 442.608987 293.731936 452.732779 305.372653 454.762124 " stroke="#231f20" stroke-width="2" stroke-opacity="1" stroke-miterlimit="10"/><g clip-path="url(#dfc743f7a5)"><path fill="#879d7c" d="M 30.398438 259.816406 C 30.398438 259.816406 -6.472656 256.683594 -12.980469 304.871094 C -12.980469 304.871094 -14.1875 310.894531 -8.886719 314.992188 C -3.582031 319.085938 5.578125 323.183594 5.578125 323.183594 L 1.480469 371.617188 C 1.480469 371.617188 0.0351562 382.21875 11.847656 385.59375 C 23.65625 388.964844 74.023438 389.925781 74.023438 389.925781 C 74.023438 389.925781 84.144531 388.480469 86.558594 379.5625 C 88.96875 370.640625 88.003906 328.960938 88.003906 328.960938 L 107.042969 322.453125 C 107.042969 322.453125 112.109375 318.839844 108.734375 308.960938 C 105.359375 299.082031 101.75 267.277344 71.617188 262.214844 C 71.617188 262.214844 68.96875 278.605469 50.652344 277.875 C 32.339844 277.152344 30.414062 259.804688 30.414062 259.804688 Z M 30.398438 259.816406 " fill-opacity="1" fill-rule="nonzero"/></g><g clip-path="url(#0ebb12cb76)"><path stroke-linecap="round" transform="matrix(0.681538, 0, 0, 0.681408, -25.869234, -5.945148)" fill="none" stroke-linejoin="miter" d="M 574.34142 394.007903 C 452.959291 400.709327 274.789262 400.617605 25.399367 378.942599 " stroke="#231f20" stroke-width="2" stroke-opacity="1" stroke-miterlimit="10"/></g><path fill="#535f97" d="M 286.5625 270.636719 C 286.5625 270.636719 258.203125 269.652344 246.125 318.957031 C 246.125 318.957031 245.136719 324.382812 252.539062 326.601562 C 259.933594 328.824219 265.609375 332.027344 265.609375 332.027344 C 265.609375 332.027344 269.558594 334.246094 273.257812 326.113281 C 273.257812 326.113281 281.117188 346.65625 274.566406 369.171875 C 268.015625 391.675781 264.328125 485.40625 264.328125 485.40625 C 264.328125 485.40625 262.695312 489.089844 269.652344 489.5 C 276.609375 489.910156 363.390625 487.046875 363.390625 487.046875 C 363.390625 487.046875 371.167969 485.820312 370.351562 479.273438 C 369.53125 472.722656 367.488281 393.734375 349.472656 360.992188 C 349.472656 360.992188 342.925781 337.253906 349.882812 323.339844 C 349.882812 323.339844 353.570312 333.980469 360.527344 329.070312 C 367.488281 324.15625 374.855469 321.703125 374.855469 321.703125 C 374.855469 321.703125 380.585938 319.660156 377.71875 312.703125 C 374.855469 305.746094 361.753906 273.003906 342.515625 270.550781 C 342.515625 270.550781 335.558594 268.914062 331.460938 273.003906 C 327.367188 277.097656 303.070312 294.5 286.5625 270.660156 Z M 286.5625 270.636719 " fill-opacity="1" fill-rule="nonzero"/><path fill="#dead6f" d="M 283.679688 261.546875 C 284.027344 261.546875 284.363281 261.617188 284.6875 261.75 C 285.011719 261.882812 285.296875 262.074219 285.542969 262.320312 C 285.789062 262.566406 285.980469 262.851562 286.117188 263.175781 C 286.25 263.5 286.316406 263.835938 286.316406 264.1875 L 286.316406 273.792969 C 286.316406 274.144531 286.25 274.480469 286.117188 274.800781 C 285.980469 275.125 285.789062 275.410156 285.542969 275.65625 C 285.296875 275.90625 285.011719 276.097656 284.6875 276.230469 C 284.363281 276.363281 284.027344 276.429688 283.679688 276.429688 C 283.328125 276.429688 282.992188 276.363281 282.667969 276.230469 C 282.347656 276.097656 282.0625 275.90625 281.8125 275.65625 C 281.566406 275.410156 281.375 275.125 281.242188 274.800781 C 281.109375 274.480469 281.042969 274.144531 281.042969 273.792969 L 281.042969 264.1875 C 281.042969 263.835938 281.109375 263.5 281.242188 263.175781 C 281.375 262.851562 281.566406 262.566406 281.8125 262.320312 C 282.0625 262.074219 282.347656 261.882812 282.667969 261.75 C 282.992188 261.617188 283.328125 261.546875 283.679688 261.546875 Z M 283.679688 261.546875 " fill-opacity="1" fill-rule="nonzero"/><path fill="#dead6f" d="M 338.34375 261.058594 C 338.695312 261.058594 339.03125 261.125 339.355469 261.257812 C 339.675781 261.390625 339.960938 261.582031 340.210938 261.832031 C 340.457031 262.078125 340.648438 262.363281 340.78125 262.6875 C 340.914062 263.007812 340.980469 263.34375 340.980469 263.695312 L 340.980469 273.304688 C 340.980469 273.652344 340.914062 273.988281 340.78125 274.3125 C 340.648438 274.636719 340.457031 274.921875 340.210938 275.167969 C 339.960938 275.414062 339.675781 275.605469 339.355469 275.738281 C 339.03125 275.871094 338.695312 275.941406 338.34375 275.941406 C 337.996094 275.941406 337.660156 275.871094 337.335938 275.738281 C 337.011719 275.605469 336.726562 275.414062 336.480469 275.167969 C 336.234375 274.921875 336.042969 274.636719 335.90625 274.3125 C 335.773438 273.988281 335.707031 273.652344 335.707031 273.304688 L 335.707031 263.695312 C 335.707031 263.34375 335.773438 263.007812 335.90625 262.6875 C 336.042969 262.363281 336.230469 262.078125 336.480469 261.832031 C 336.726562 261.582031 337.011719 261.390625 337.335938 261.257812 C 337.660156 261.125 337.996094 261.058594 338.34375 261.058594 Z M 338.34375 261.058594 " fill-opacity="1" fill-rule="nonzero"/><path fill="#dead6f" d="M 212.277344 263.480469 C 212.605469 263.601562 212.898438 263.777344 213.15625 264.011719 C 213.417969 264.25 213.621094 264.523438 213.769531 264.839844 C 213.917969 265.15625 214 265.492188 214.015625 265.839844 C 214.035156 266.1875 213.980469 266.527344 213.863281 266.855469 L 210.605469 275.894531 C 210.488281 276.226562 210.308594 276.519531 210.074219 276.777344 C 209.839844 277.035156 209.5625 277.238281 209.246094 277.386719 C 208.929688 277.539062 208.597656 277.621094 208.246094 277.636719 C 207.898438 277.652344 207.558594 277.601562 207.230469 277.484375 C 206.902344 277.363281 206.605469 277.1875 206.347656 276.953125 C 206.089844 276.714844 205.886719 276.441406 205.738281 276.125 C 205.589844 275.808594 205.503906 275.472656 205.488281 275.125 C 205.472656 274.777344 205.523438 274.4375 205.644531 274.109375 L 208.902344 265.070312 C 209.019531 264.738281 209.195312 264.445312 209.433594 264.1875 C 209.667969 263.929688 209.945312 263.726562 210.261719 263.578125 C 210.578125 263.429688 210.910156 263.34375 211.257812 263.328125 C 211.609375 263.3125 211.949219 263.363281 212.277344 263.480469 Z M 212.277344 263.480469 " fill-opacity="1" fill-rule="nonzero"/><path fill="#dead6f" d="M 142.214844 262.625 C 142.566406 262.613281 142.902344 262.667969 143.230469 262.789062 C 143.558594 262.910156 143.851562 263.089844 144.109375 263.328125 C 144.363281 263.566406 144.566406 263.84375 144.710938 264.160156 C 144.855469 264.480469 144.9375 264.8125 144.949219 265.164062 L 145.308594 274.765625 C 145.320312 275.113281 145.265625 275.453125 145.144531 275.78125 C 145.023438 276.109375 144.84375 276.398438 144.605469 276.65625 C 144.367188 276.914062 144.089844 277.113281 143.773438 277.257812 C 143.453125 277.40625 143.121094 277.484375 142.769531 277.496094 C 142.421875 277.511719 142.082031 277.457031 141.753906 277.335938 C 141.425781 277.210938 141.136719 277.03125 140.878906 276.796875 C 140.621094 276.558594 140.421875 276.28125 140.273438 275.960938 C 140.128906 275.644531 140.050781 275.308594 140.035156 274.960938 L 139.679688 265.359375 C 139.664062 265.011719 139.71875 264.671875 139.839844 264.34375 C 139.960938 264.015625 140.144531 263.722656 140.378906 263.46875 C 140.617188 263.210938 140.894531 263.011719 141.214844 262.863281 C 141.53125 262.71875 141.867188 262.640625 142.214844 262.625 Z M 142.214844 262.625 " fill-opacity="1" fill-rule="nonzero"/><path fill="#dead6f" d="M 79.257812 253.667969 C 79.585938 253.785156 79.878906 253.960938 80.140625 254.195312 C 80.398438 254.429688 80.605469 254.703125 80.753906 255.019531 C 80.90625 255.335938 80.988281 255.667969 81.007812 256.015625 C 81.027344 256.367188 80.976562 256.707031 80.859375 257.035156 L 77.644531 266.089844 C 77.527344 266.417969 77.351562 266.714844 77.117188 266.972656 C 76.882812 267.230469 76.605469 267.4375 76.292969 267.585938 C 75.976562 267.738281 75.644531 267.820312 75.292969 267.839844 C 74.945312 267.859375 74.605469 267.808594 74.273438 267.691406 C 73.945312 267.574219 73.652344 267.398438 73.390625 267.164062 C 73.132812 266.929688 72.925781 266.65625 72.777344 266.339844 C 72.625 266.023438 72.542969 265.691406 72.523438 265.34375 C 72.503906 264.992188 72.554688 264.652344 72.671875 264.324219 L 75.886719 255.269531 C 76.003906 254.941406 76.179688 254.644531 76.414062 254.386719 C 76.648438 254.125 76.925781 253.921875 77.238281 253.769531 C 77.554688 253.621094 77.886719 253.535156 78.238281 253.519531 C 78.585938 253.5 78.925781 253.550781 79.257812 253.667969 Z M 79.257812 253.667969 " fill-opacity="1" fill-rule="nonzero"/><path fill="#dead6f" d="M 27.671875 250.390625 C 28.023438 250.414062 28.351562 250.503906 28.667969 250.65625 C 28.980469 250.808594 29.253906 251.019531 29.484375 251.28125 C 29.71875 251.542969 29.890625 251.839844 30.003906 252.171875 C 30.117188 252.5 30.160156 252.839844 30.140625 253.191406 L 29.535156 262.777344 C 29.511719 263.128906 29.425781 263.460938 29.269531 263.773438 C 29.117188 264.085938 28.90625 264.359375 28.644531 264.589844 C 28.382812 264.820312 28.085938 264.996094 27.753906 265.109375 C 27.425781 265.222656 27.085938 265.265625 26.734375 265.246094 C 26.386719 265.222656 26.054688 265.132812 25.742188 264.980469 C 25.425781 264.828125 25.152344 264.617188 24.921875 264.355469 C 24.691406 264.09375 24.519531 263.796875 24.40625 263.464844 C 24.292969 263.136719 24.246094 262.796875 24.269531 262.445312 L 24.875 252.859375 C 24.898438 252.507812 24.984375 252.175781 25.136719 251.863281 C 25.292969 251.550781 25.5 251.277344 25.761719 251.046875 C 26.023438 250.8125 26.320312 250.640625 26.652344 250.527344 C 26.984375 250.414062 27.324219 250.371094 27.671875 250.390625 Z M 27.671875 250.390625 " fill-opacity="1" fill-rule="nonzero"/><path fill="#757578" d="M 259.996094 209.011719 L 132.097656 206.476562 C 132.097656 206.476562 102.769531 197.175781 104.238281 179.886719 C 106.773438 150.089844 130.828125 152.03125 130.828125 152.03125 C 130.828125 152.03125 132.097656 117.847656 170.085938 117.847656 C 170.085938 117.847656 199.207031 115.3125 199.207031 152.03125 C 199.207031 152.03125 214.40625 127.980469 239.734375 143.167969 C 239.734375 143.167969 257.460938 162.160156 242.269531 172.285156 C 242.269531 172.285156 275.195312 149.496094 284.054688 178.613281 C 284.054688 178.613281 291.652344 210.265625 259.996094 209 " fill-opacity="0.8" fill-rule="nonzero"/><g clip-path="url(#d5ba9ba940)"><path fill="#757578" d="M -3.792969 112.226562 C 2.953125 106.625 14.667969 101.179688 30.199219 110.492188 C 30.199219 110.492188 47.925781 129.484375 32.734375 139.609375 C 32.734375 139.609375 65.660156 116.824219 74.519531 145.941406 C 74.519531 145.941406 82.121094 177.59375 50.464844 176.324219 L -3.726562 176.324219 " fill-opacity="0.8" fill-rule="nonzero"/></g><path fill="#757578" d="M 327.257812 52.941406 C 320.507812 47.339844 308.792969 41.898438 293.261719 51.210938 C 293.261719 51.210938 275.535156 70.203125 290.726562 80.328125 C 290.726562 80.328125 257.800781 57.542969 248.941406 86.660156 C 248.941406 86.660156 241.339844 118.308594 273 117.042969 L 327.1875 117.042969 " fill-opacity="0.8" fill-rule="nonzero"/><path stroke-linecap="butt" transform="matrix(0.681538, 0, 0, 0.681408, -25.869234, -5.945148)" fill="none" stroke-linejoin="miter" d="M 235.218849 319.799243 L 236.938305 324.499985 " stroke="#757578" stroke-width="3" stroke-opacity="1" stroke-miterlimit="10"/><path fill="#757578" d="M 139.035156 221.519531 L 137.113281 222.222656 M 139.035156 221.519531 L 141.496094 228.222656 L 139.574219 228.925781 L 137.113281 222.222656 M 143.953125 234.925781 L 142.035156 235.632812 M 143.953125 234.925781 L 146.414062 241.632812 L 144.492188 242.335938 L 142.035156 235.632812 M 148.871094 248.335938 L 146.953125 249.039062 M 148.871094 248.335938 L 151.332031 255.039062 L 149.414062 255.742188 L 146.953125 249.039062 M 153.792969 261.746094 L 151.871094 262.449219 M 153.792969 261.746094 L 156.25 268.449219 L 154.332031 269.152344 L 151.871094 262.449219 M 158.710938 275.152344 L 156.792969 275.855469 M 158.710938 275.152344 L 161.171875 281.859375 L 159.25 282.5625 L 156.792969 275.855469 M 163.628906 288.5625 L 161.710938 289.265625 M 163.628906 288.5625 L 166.089844 295.265625 L 164.171875 295.96875 L 161.710938 289.265625 M 168.550781 301.972656 L 166.628906 302.675781 M 168.550781 301.972656 L 171.007812 308.675781 L 169.089844 309.378906 L 166.628906 302.675781 M 173.46875 315.378906 L 171.550781 316.082031 M 173.46875 315.378906 L 175.929688 322.085938 L 174.007812 322.789062 L 171.550781 316.082031 M 178.386719 328.789062 L 176.46875 329.492188 M 178.386719 328.789062 L 180.847656 335.492188 L 178.925781 336.195312 L 176.46875 329.492188 " fill-opacity="1" fill-rule="nonzero"/><path stroke-linecap="butt" transform="matrix(0.681538, 0, 0, 0.681408, -25.869234, -5.945148)" fill="none" stroke-linejoin="miter" d="M 305.510209 511.417527 L 307.229665 516.118268 " stroke="#757578" stroke-width="3" stroke-opacity="1" stroke-miterlimit="10"/><path stroke-linecap="butt" transform="matrix(0.681538, 0, 0, 0.681408, -25.869234, -5.945148)" fill="none" stroke-linejoin="miter" d="M 269.189567 319.799243 L 270.880366 324.51145 " stroke="#757578" stroke-width="3" stroke-opacity="1" stroke-miterlimit="10"/><path fill="#757578" d="M 161.9375 221.039062 L 160.011719 221.730469 M 161.9375 221.039062 L 164.167969 227.25 L 162.242188 227.941406 L 160.011719 221.730469 M 166.394531 233.457031 L 164.472656 234.148438 M 166.394531 233.457031 L 168.625 239.664062 L 166.699219 240.355469 L 164.472656 234.148438 M 170.855469 245.871094 L 168.929688 246.5625 M 170.855469 245.871094 L 173.082031 252.082031 L 171.160156 252.773438 L 168.929688 246.5625 M 175.3125 258.289062 L 173.390625 258.980469 M 175.3125 258.289062 L 177.542969 264.496094 L 175.617188 265.1875 L 173.390625 258.980469 M 179.773438 270.703125 L 177.847656 271.394531 M 179.773438 270.703125 L 182 276.914062 L 180.078125 277.605469 L 177.847656 271.394531 M 184.230469 283.121094 L 182.308594 283.8125 M 184.230469 283.121094 L 186.460938 289.328125 L 184.535156 290.019531 L 182.308594 283.8125 M 188.691406 295.535156 L 186.765625 296.226562 M 188.691406 295.535156 L 190.917969 301.746094 L 188.996094 302.433594 L 186.765625 296.226562 M 193.148438 307.953125 L 191.226562 308.644531 M 193.148438 307.953125 L 195.378906 314.160156 L 193.453125 314.851562 L 191.226562 308.644531 M 197.609375 320.367188 L 195.683594 321.058594 M 197.609375 320.367188 L 199.835938 326.578125 L 197.914062 327.265625 L 195.683594 321.058594 M 202.066406 332.785156 L 200.140625 333.476562 M 202.066406 332.785156 L 204.296875 338.992188 L 202.371094 339.683594 L 200.140625 333.476562 M 206.527344 345.199219 L 204.601562 345.890625 M 206.527344 345.199219 L 208.753906 351.410156 L 206.832031 352.097656 L 204.601562 345.890625 M 210.984375 357.617188 L 209.058594 358.308594 M 210.984375 357.617188 L 213.214844 363.824219 L 211.289062 364.515625 L 209.058594 358.308594 M 215.445312 370.03125 L 213.519531 370.722656 M 215.445312 370.03125 L 217.671875 376.242188 L 215.75 376.929688 L 213.519531 370.722656 " fill-opacity="1" fill-rule="nonzero"/><path stroke-linecap="butt" transform="matrix(0.681538, 0, 0, 0.681408, -25.869234, -5.945148)" fill="none" stroke-linejoin="miter" d="M 359.197356 570.509289 L 360.888155 575.210031 " stroke="#757578" stroke-width="3" stroke-opacity="1" stroke-miterlimit="10"/><path stroke-linecap="butt" transform="matrix(0.681538, 0, 0, 0.681408, -25.869234, -5.945148)" fill="none" stroke-linejoin="miter" d="M 301.790453 319.799243 L 303.481251 324.51145 " stroke="#757578" stroke-width="3" stroke-opacity="1" stroke-miterlimit="10"/><path fill="#757578" d="M 184.269531 221.375 L 182.347656 222.066406 M 184.269531 221.375 L 186.617188 227.917969 L 184.691406 228.609375 L 182.347656 222.066406 M 188.960938 234.460938 L 187.035156 235.152344 M 188.960938 234.460938 L 191.308594 241.003906 L 189.382812 241.695312 L 187.035156 235.152344 M 193.652344 247.546875 L 191.726562 248.238281 M 193.652344 247.546875 L 196 254.089844 L 194.074219 254.777344 L 191.726562 248.238281 M 198.34375 260.632812 L 196.417969 261.320312 M 198.34375 260.632812 L 200.6875 267.175781 L 198.765625 267.863281 L 196.417969 261.320312 M 203.035156 273.71875 L 201.109375 274.40625 M 203.035156 273.71875 L 205.378906 280.261719 L 203.457031 280.949219 L 201.109375 274.40625 M 207.726562 286.804688 L 205.800781 287.492188 M 207.726562 286.804688 L 210.070312 293.347656 L 208.144531 294.035156 L 205.800781 287.492188 M 212.417969 299.890625 L 210.492188 300.578125 M 212.417969 299.890625 L 214.761719 306.433594 L 212.835938 307.121094 L 210.492188 300.578125 M 217.109375 312.976562 L 215.183594 313.664062 M 217.109375 312.976562 L 219.453125 319.515625 L 217.527344 320.207031 L 215.183594 313.664062 M 221.796875 326.058594 L 219.875 326.75 M 221.796875 326.058594 L 224.144531 332.601562 L 222.21875 333.292969 L 219.875 326.75 M 226.488281 339.144531 L 224.566406 339.835938 M 226.488281 339.144531 L 228.835938 345.6875 L 226.910156 346.378906 L 224.566406 339.835938 M 231.179688 352.230469 L 229.253906 352.921875 M 231.179688 352.230469 L 233.527344 358.773438 L 231.601562 359.464844 L 229.253906 352.921875 M 235.871094 365.316406 L 233.945312 366.007812 M 235.871094 365.316406 L 238.21875 371.859375 L 236.292969 372.550781 L 233.945312 366.007812 M 240.5625 378.402344 L 238.636719 379.09375 M 240.5625 378.402344 L 242.90625 384.945312 L 240.984375 385.636719 L 238.636719 379.09375 M 245.253906 391.488281 L 243.328125 392.179688 M 245.253906 391.488281 L 247.597656 398.03125 L 245.675781 398.722656 L 243.328125 392.179688 M 249.945312 404.574219 L 248.019531 405.265625 M 249.945312 404.574219 L 252.289062 411.117188 L 250.363281 411.804688 L 248.019531 405.265625 " fill-opacity="1" fill-rule="nonzero"/><path stroke-linecap="butt" transform="matrix(0.681538, 0, 0, 0.681408, -25.869234, -5.945148)" fill="none" stroke-linejoin="miter" d="M 410.150568 622.131459 L 411.841367 626.837933 " stroke="#757578" stroke-width="3" stroke-opacity="1" stroke-miterlimit="10"/><path stroke-linecap="butt" transform="matrix(0.681538, 0, 0, 0.681408, -25.869234, -5.945148)" fill="none" stroke-linejoin="miter" d="M 332.36238 319.799243 L 334.070373 324.499985 " stroke="#757578" stroke-width="3" stroke-opacity="1" stroke-miterlimit="10"/><path fill="#757578" d="M 205.179688 221.453125 L 203.257812 222.152344 M 205.179688 221.453125 L 207.585938 228.082031 L 205.664062 228.78125 L 203.257812 222.152344 M 209.992188 234.710938 L 208.070312 235.410156 M 209.992188 234.710938 L 212.398438 241.34375 L 210.476562 242.039062 L 208.070312 235.410156 M 214.804688 247.972656 L 212.882812 248.667969 M 214.804688 247.972656 L 217.210938 254.601562 L 215.289062 255.296875 L 212.882812 248.667969 M 219.617188 261.230469 L 217.695312 261.929688 M 219.617188 261.230469 L 222.023438 267.859375 L 220.101562 268.558594 L 217.695312 261.929688 M 224.429688 274.488281 L 222.507812 275.1875 M 224.429688 274.488281 L 226.835938 281.121094 L 224.914062 281.816406 L 222.507812 275.1875 M 229.242188 287.75 L 227.320312 288.445312 M 229.242188 287.75 L 231.648438 294.378906 L 229.726562 295.074219 L 227.320312 288.445312 M 234.054688 301.007812 L 232.132812 301.707031 M 234.054688 301.007812 L 236.460938 307.636719 L 234.539062 308.335938 L 232.132812 301.707031 M 238.867188 314.265625 L 236.945312 314.964844 M 238.867188 314.265625 L 241.273438 320.898438 L 239.351562 321.59375 L 236.945312 314.964844 M 243.679688 327.527344 L 241.757812 328.222656 M 243.679688 327.527344 L 246.085938 334.15625 L 244.164062 334.851562 L 241.757812 328.222656 M 248.492188 340.785156 L 246.566406 341.484375 M 248.492188 340.785156 L 250.898438 347.414062 L 248.972656 348.113281 L 246.566406 341.484375 M 253.300781 354.046875 L 251.378906 354.742188 M 253.300781 354.046875 L 255.707031 360.675781 L 253.785156 361.371094 L 251.378906 354.742188 M 258.113281 367.304688 L 256.191406 368 M 258.113281 367.304688 L 260.519531 373.933594 L 258.597656 374.632812 L 256.191406 368 " fill-opacity="1" fill-rule="nonzero"/><path stroke-linecap="butt" transform="matrix(0.681538, 0, 0, 0.681408, -25.869234, -5.945148)" fill="none" stroke-linejoin="miter" d="M 422.358706 567.797764 L 424.060967 572.498506 " stroke="#757578" stroke-width="3" stroke-opacity="1" stroke-miterlimit="10"/><path stroke-linecap="butt" transform="matrix(0.681538, 0, 0, 0.681408, -25.869234, -5.945148)" fill="none" stroke-linejoin="miter" d="M 363.610627 319.799243 L 365.307156 324.499985 " stroke="#757578" stroke-width="3" stroke-opacity="1" stroke-miterlimit="10"/><path fill="#757578" d="M 226.3125 221.074219 L 224.390625 221.765625 M 226.3125 221.074219 L 228.570312 227.316406 L 226.644531 228.011719 L 224.390625 221.765625 M 230.824219 233.558594 L 228.898438 234.253906 M 230.824219 233.558594 L 233.078125 239.800781 L 231.15625 240.496094 L 228.898438 234.253906 M 235.332031 246.042969 L 233.410156 246.738281 M 235.332031 246.042969 L 237.585938 252.285156 L 235.664062 252.980469 L 233.410156 246.738281 M 239.84375 258.527344 L 237.917969 259.222656 M 239.84375 258.527344 L 242.097656 264.769531 L 240.171875 265.464844 L 237.917969 259.222656 M 244.351562 271.011719 L 242.429688 271.707031 M 244.351562 271.011719 L 246.605469 277.253906 L 244.683594 277.949219 L 242.429688 271.707031 M 248.859375 283.496094 L 246.9375 284.191406 M 248.859375 283.496094 L 251.117188 289.738281 L 249.191406 290.433594 L 246.9375 284.191406 M 253.371094 295.980469 L 251.445312 296.675781 M 253.371094 295.980469 L 255.625 302.222656 L 253.703125 302.917969 L 251.445312 296.675781 M 257.878906 308.464844 L 255.957031 309.160156 M 257.878906 308.464844 L 260.132812 314.707031 L 258.210938 315.402344 L 255.957031 309.160156 M 262.386719 320.949219 L 260.464844 321.644531 M 262.386719 320.949219 L 264.644531 327.195312 L 262.71875 327.886719 L 260.464844 321.644531 M 266.898438 333.4375 L 264.976562 334.128906 M 266.898438 333.4375 L 269.152344 339.679688 L 267.230469 340.371094 L 264.976562 334.128906 M 271.40625 345.921875 L 269.484375 346.613281 M 271.40625 345.921875 L 273.660156 352.164062 L 271.738281 352.855469 L 269.484375 346.613281 M 275.917969 358.40625 L 273.992188 359.101562 M 275.917969 358.40625 L 278.171875 364.648438 L 276.25 365.34375 L 273.992188 359.101562 M 280.425781 370.890625 L 278.503906 371.585938 M 280.425781 370.890625 L 282.679688 377.132812 L 280.757812 377.828125 L 278.503906 371.585938 M 284.933594 383.375 L 283.011719 384.070312 M 284.933594 383.375 L 287.191406 389.617188 L 285.265625 390.3125 L 283.011719 384.070312 M 289.445312 395.859375 L 287.519531 396.554688 M 289.445312 395.859375 L 291.699219 402.101562 L 289.777344 402.796875 L 287.519531 396.554688 " fill-opacity="1" fill-rule="nonzero"/><path stroke-linecap="butt" transform="matrix(0.681538, 0, 0, 0.681408, -25.869234, -5.945148)" fill="none" stroke-linejoin="miter" d="M 467.878437 608.550902 L 469.580699 613.251643 " stroke="#757578" stroke-width="3" stroke-opacity="1" stroke-miterlimit="10"/><path stroke-linecap="butt" transform="matrix(0.681538, 0, 0, 0.681408, -25.869234, -5.945148)" fill="none" stroke-linejoin="miter" d="M 392.142133 319.799243 L 393.838663 324.499985 " stroke="#757578" stroke-width="3" stroke-opacity="1" stroke-miterlimit="10"/><path fill="#757578" d="M 245.921875 221.453125 L 244 222.152344 M 245.921875 221.453125 L 248.328125 228.082031 L 246.40625 228.78125 L 244 222.152344 M 250.734375 234.710938 L 248.8125 235.410156 M 250.734375 234.710938 L 253.140625 241.34375 L 251.21875 242.039062 L 248.8125 235.410156 M 255.546875 247.972656 L 253.625 248.667969 M 255.546875 247.972656 L 257.953125 254.601562 L 256.03125 255.296875 L 253.625 248.667969 M 260.359375 261.230469 L 258.4375 261.929688 M 260.359375 261.230469 L 262.765625 267.859375 L 260.84375 268.558594 L 258.4375 261.929688 M 265.171875 274.488281 L 263.25 275.1875 M 265.171875 274.488281 L 267.578125 281.121094 L 265.65625 281.816406 L 263.25 275.1875 M 269.984375 287.75 L 268.0625 288.445312 M 269.984375 287.75 L 272.390625 294.378906 L 270.46875 295.074219 L 268.0625 288.445312 M 274.796875 301.007812 L 272.875 301.707031 M 274.796875 301.007812 L 277.203125 307.636719 L 275.28125 308.335938 L 272.875 301.707031 M 279.609375 314.265625 L 277.6875 314.964844 M 279.609375 314.265625 L 282.015625 320.898438 L 280.09375 321.59375 L 277.6875 314.964844 M 284.421875 327.527344 L 282.5 328.222656 M 284.421875 327.527344 L 286.828125 334.15625 L 284.90625 334.851562 L 282.5 328.222656 M 289.234375 340.785156 L 287.3125 341.484375 M 289.234375 340.785156 L 291.640625 347.414062 L 289.71875 348.113281 L 287.3125 341.484375 M 294.046875 354.046875 L 292.125 354.742188 M 294.046875 354.046875 L 296.453125 360.675781 L 294.527344 361.371094 L 292.125 354.742188 M 298.859375 367.304688 L 296.933594 368 M 298.859375 367.304688 L 301.261719 373.933594 L 299.339844 374.632812 L 296.933594 368 " fill-opacity="1" fill-rule="nonzero"/><path stroke-linecap="butt" transform="matrix(0.681538, 0, 0, 0.681408, -25.869234, -5.945148)" fill="none" stroke-linejoin="miter" d="M 482.138459 567.797764 L 483.84072 572.498506 " stroke="#757578" stroke-width="3" stroke-opacity="1" stroke-miterlimit="10"/><path stroke-linecap="butt" transform="matrix(0.681538, 0, 0, 0.681408, -25.869234, -5.945148)" fill="none" stroke-linejoin="miter" d="M 423.390379 319.799243 L 425.092641 324.499985 " stroke="#757578" stroke-width="3" stroke-opacity="1" stroke-miterlimit="10"/><path fill="#757578" d="M 267.210938 221.453125 L 265.289062 222.152344 M 267.210938 221.453125 L 269.617188 228.082031 L 267.695312 228.78125 L 265.289062 222.152344 M 272.027344 234.710938 L 270.105469 235.410156 M 272.027344 234.710938 L 274.433594 241.339844 L 272.511719 242.039062 L 270.105469 235.410156 M 276.839844 247.972656 L 274.917969 248.667969 M 276.839844 247.972656 L 279.246094 254.601562 L 277.324219 255.296875 L 274.917969 248.667969 M 281.652344 261.230469 L 279.730469 261.925781 M 281.652344 261.230469 L 284.058594 267.859375 L 282.136719 268.558594 L 279.730469 261.925781 M 286.464844 274.488281 L 284.542969 275.1875 M 286.464844 274.488281 L 288.871094 281.117188 L 286.949219 281.816406 L 284.542969 275.1875 M 291.277344 287.75 L 289.355469 288.445312 M 291.277344 287.75 L 293.683594 294.378906 L 291.761719 295.074219 L 289.355469 288.445312 M 296.089844 301.007812 L 294.167969 301.703125 M 296.089844 301.007812 L 298.496094 307.636719 L 296.574219 308.335938 L 294.167969 301.703125 M 300.902344 314.265625 L 298.980469 314.964844 M 300.902344 314.265625 L 303.308594 320.894531 L 301.386719 321.59375 L 298.980469 314.964844 M 305.714844 327.523438 L 303.792969 328.222656 M 305.714844 327.523438 L 308.121094 334.15625 L 306.199219 334.851562 L 303.792969 328.222656 M 310.527344 340.785156 L 308.605469 341.480469 M 310.527344 340.785156 L 312.933594 347.414062 L 311.011719 348.109375 L 308.605469 341.480469 M 315.339844 354.042969 L 313.417969 354.742188 M 315.339844 354.042969 L 317.746094 360.671875 L 315.824219 361.371094 L 313.417969 354.742188 M 320.152344 367.300781 L 318.230469 368 M 320.152344 367.300781 L 322.5625 373.929688 L 320.640625 374.628906 L 318.230469 368 " fill-opacity="1" fill-rule="nonzero"/><path stroke-linecap="butt" transform="matrix(0.681538, 0, 0, 0.681408, -25.869234, -5.945148)" fill="none" stroke-linejoin="miter" d="M 513.380974 567.797764 L 515.088967 572.498506 " stroke="#757578" stroke-width="3" stroke-opacity="1" stroke-miterlimit="10"/><path stroke-linecap="butt" transform="matrix(0.681538, 0, 0, 0.681408, -25.869234, -5.945148)" fill="none" stroke-linejoin="miter" d="M 454.627163 319.799243 L 456.340887 324.499985 " stroke="#757578" stroke-width="3" stroke-opacity="1" stroke-miterlimit="10"/><path fill="#757578" d="M 288.511719 221.453125 L 286.589844 222.152344 M 288.511719 221.453125 L 290.917969 228.082031 L 288.996094 228.78125 L 286.589844 222.152344 M 293.324219 234.710938 L 291.402344 235.410156 M 293.324219 234.710938 L 295.730469 241.34375 L 293.808594 242.039062 L 291.402344 235.410156 M 298.136719 247.972656 L 296.214844 248.667969 M 298.136719 247.972656 L 300.542969 254.601562 L 298.621094 255.296875 L 296.214844 248.667969 M 302.949219 261.230469 L 301.027344 261.929688 M 302.949219 261.230469 L 305.355469 267.859375 L 303.433594 268.558594 L 301.027344 261.929688 M 307.761719 274.488281 L 305.839844 275.1875 M 307.761719 274.488281 L 310.167969 281.121094 L 308.246094 281.816406 L 305.839844 275.1875 M 312.574219 287.75 L 310.652344 288.445312 M 312.574219 287.75 L 314.980469 294.378906 L 313.058594 295.074219 L 310.652344 288.445312 M 317.386719 301.007812 L 315.464844 301.707031 M 317.386719 301.007812 L 319.792969 307.636719 L 317.867188 308.335938 L 315.464844 301.707031 M 322.199219 314.265625 L 320.273438 314.964844 M 322.199219 314.265625 L 324.601562 320.898438 L 322.679688 321.59375 L 320.273438 314.964844 M 327.007812 327.527344 L 325.085938 328.222656 M 327.007812 327.527344 L 329.414062 334.15625 L 327.492188 334.851562 L 325.085938 328.222656 M 331.820312 340.785156 L 329.898438 341.484375 M 331.820312 340.785156 L 334.226562 347.414062 L 332.304688 348.113281 L 329.898438 341.484375 M 336.632812 354.046875 L 334.710938 354.742188 M 336.632812 354.046875 L 339.039062 360.675781 L 337.117188 361.371094 L 334.710938 354.742188 M 341.445312 367.304688 L 339.523438 368 M 341.445312 367.304688 L 343.851562 373.933594 L 341.929688 374.632812 L 339.523438 368 " fill-opacity="1" fill-rule="nonzero"/><path stroke-linecap="butt" transform="matrix(0.681538, 0, 0, 0.681408, -25.869234, -5.945148)" fill="none" stroke-linejoin="miter" d="M 544.62922 567.797764 L 546.337213 572.498506 " stroke="#757578" stroke-width="3" stroke-opacity="1" stroke-miterlimit="10"/><g clip-path="url(#fe08746c1a)"><path stroke-linecap="butt" transform="matrix(0.681538, 0, 0, 0.681408, -25.869234, -5.945148)" fill="none" stroke-linejoin="miter" d="M 33.371911 451.500268 L 35.59001 455.977437 " stroke="#757578" stroke-width="3" stroke-opacity="1" stroke-miterlimit="10"/></g><g clip-path="url(#c8f9746f23)"><path fill="#757578" d="M 2.472656 310.730469 L 0.640625 311.636719 M 2.472656 310.730469 L 5.644531 317.144531 L 3.8125 318.046875 L 0.640625 311.636719 M 8.816406 323.554688 L 6.984375 324.460938 M 8.816406 323.554688 L 11.988281 329.96875 L 10.15625 330.875 L 6.984375 324.460938 M 15.160156 336.382812 L 13.328125 337.289062 M 15.160156 336.382812 L 18.332031 342.796875 L 16.5 343.703125 L 13.328125 337.289062 M 21.507812 349.210938 L 19.671875 350.117188 M 21.507812 349.210938 L 24.679688 355.621094 L 22.847656 356.527344 L 19.671875 350.117188 M 27.851562 362.035156 L 26.019531 362.941406 M 27.851562 362.035156 L 31.023438 368.449219 L 29.191406 369.355469 L 26.019531 362.941406 M 34.195312 374.863281 L 32.363281 375.769531 M 34.195312 374.863281 L 37.367188 381.277344 L 35.535156 382.183594 L 32.363281 375.769531 " fill-opacity="1" fill-rule="nonzero"/></g><path stroke-linecap="butt" transform="matrix(0.681538, 0, 0, 0.681408, -25.869234, -5.945148)" fill="none" stroke-linejoin="miter" d="M 96.109129 578.3687 L 98.321495 582.851603 " stroke="#757578" stroke-width="3" stroke-opacity="1" stroke-miterlimit="10"/><g clip-path="url(#4c075cd359)"><path stroke-linecap="butt" transform="matrix(0.681538, 0, 0, 0.681408, -25.869234, -5.945148)" fill="none" stroke-linejoin="miter" d="M 32.632545 524.298705 L 34.810523 528.798806 " stroke="#757578" stroke-width="3" stroke-opacity="1" stroke-miterlimit="10"/></g><g clip-path="url(#61e3378de1)"><path fill="#757578" d="M 1.929688 360.425781 L 0.0898438 361.316406 M 1.929688 360.425781 L 5.078125 366.910156 L 3.238281 367.800781 L 0.0898438 361.316406 M 8.230469 373.394531 L 6.390625 374.289062 M 8.230469 373.394531 L 11.378906 379.878906 L 9.539062 380.773438 L 6.390625 374.289062 M 14.527344 386.367188 L 12.6875 387.257812 M 14.527344 386.367188 L 17.675781 392.851562 L 15.835938 393.742188 L 12.6875 387.257812 " fill-opacity="1" fill-rule="nonzero"/></g><g clip-path="url(#8ff906761f)"><path stroke-linecap="butt" transform="matrix(0.681538, 0, 0, 0.681408, -25.869234, -5.945148)" fill="none" stroke-linejoin="miter" d="M 67.170684 595.440418 L 69.348662 599.940519 " stroke="#757578" stroke-width="3" stroke-opacity="1" stroke-miterlimit="10"/></g><g clip-path="url(#8f06e01b22)"><path fill="#757578" d="M 0.453125 261.988281 L -1.375 262.90625 M 0.453125 261.988281 L 3.609375 268.273438 L 1.78125 269.191406 L -1.375 262.90625 M 6.765625 274.554688 L 4.941406 275.472656 M 6.765625 274.554688 L 9.925781 280.839844 L 8.097656 281.757812 L 4.941406 275.472656 M 13.082031 287.125 L 11.257812 288.042969 M 13.082031 287.125 L 16.242188 293.40625 L 14.414062 294.324219 L 11.257812 288.042969 M 19.398438 299.691406 L 17.570312 300.609375 M 19.398438 299.691406 L 22.554688 305.972656 L 20.730469 306.890625 L 17.570312 300.609375 M 25.714844 312.257812 L 23.886719 313.175781 M 25.714844 312.257812 L 28.871094 318.542969 L 27.046875 319.457031 L 23.886719 313.175781 M 32.03125 324.824219 L 30.203125 325.742188 M 32.03125 324.824219 L 35.1875 331.109375 L 33.359375 332.027344 L 30.203125 325.742188 M 38.34375 337.390625 L 36.519531 338.308594 M 38.34375 337.390625 L 41.503906 343.675781 L 39.675781 344.59375 L 36.519531 338.308594 " fill-opacity="1" fill-rule="nonzero"/></g><path stroke-linecap="butt" transform="matrix(0.681538, 0, 0, 0.681408, -25.869234, -5.945148)" fill="none" stroke-linejoin="miter" d="M 102.167345 523.020333 L 104.408369 527.49177 " stroke="#757578" stroke-width="3" stroke-opacity="1" stroke-miterlimit="10"/><g clip-path="url(#4606e202fd)"><path fill="#757578" d="M 0.296875 217.203125 L -1.53125 218.117188 M 0.296875 217.203125 L 3.308594 223.238281 L 1.480469 224.152344 L -1.53125 218.117188 M 6.320312 229.273438 L 4.492188 230.1875 M 6.320312 229.273438 L 9.332031 235.3125 L 7.503906 236.222656 L 4.492188 230.1875 M 12.347656 241.347656 L 10.515625 242.261719 M 12.347656 241.347656 L 15.359375 247.382812 L 13.527344 248.296875 L 10.515625 242.261719 M 18.371094 253.421875 L 16.539062 254.332031 M 18.371094 253.421875 L 21.382812 259.457031 L 19.554688 260.371094 L 16.539062 254.332031 M 24.394531 265.492188 L 22.566406 266.40625 M 24.394531 265.492188 L 27.40625 271.53125 L 25.578125 272.441406 L 22.566406 266.40625 M 30.417969 277.566406 L 28.589844 278.480469 M 30.417969 277.566406 L 33.433594 283.601562 L 31.601562 284.515625 L 28.589844 278.480469 M 36.445312 289.636719 L 34.613281 290.550781 M 36.445312 289.636719 L 39.457031 295.675781 L 37.628906 296.585938 L 34.613281 290.550781 M 42.46875 301.710938 L 40.640625 302.625 M 42.46875 301.710938 L 45.480469 307.746094 L 43.652344 308.660156 L 40.640625 302.625 M 48.492188 313.785156 L 46.664062 314.695312 M 48.492188 313.785156 L 51.507812 319.820312 L 49.675781 320.734375 L 46.664062 314.695312 M 54.519531 325.855469 L 52.6875 326.769531 M 54.519531 325.855469 L 57.53125 331.894531 L 55.699219 332.804688 L 52.6875 326.769531 M 60.542969 337.929688 L 58.714844 338.839844 M 60.542969 337.929688 L 63.554688 343.964844 L 61.726562 344.878906 L 58.714844 338.839844 M 66.566406 350 L 64.738281 350.914062 M 66.566406 350 L 69.578125 356.039062 L 67.75 356.949219 L 64.738281 350.914062 M 72.59375 362.074219 L 70.761719 362.988281 M 72.59375 362.074219 L 75.605469 368.109375 L 73.773438 369.023438 L 70.761719 362.988281 " fill-opacity="1" fill-rule="nonzero"/></g><path stroke-linecap="butt" transform="matrix(0.681538, 0, 0, 0.681408, -25.869234, -5.945148)" fill="none" stroke-linejoin="miter" d="M 151.951327 558.442141 L 154.180888 562.907846 " stroke="#757578" stroke-width="3" stroke-opacity="1" stroke-miterlimit="10"/><g clip-path="url(#0cf26d7b25)"><path stroke-linecap="butt" transform="matrix(0.681538, 0, 0, 0.681408, -25.869234, -5.945148)" fill="none" stroke-linejoin="miter" d="M 44.49106 279.928928 L 46.709158 284.41183 " stroke="#757578" stroke-width="3" stroke-opacity="1" stroke-miterlimit="10"/></g><path fill="#757578" d="M 10.015625 193.722656 L 8.183594 194.632812 M 10.015625 193.722656 L 13.148438 200.042969 L 11.316406 200.949219 L 8.183594 194.632812 M 16.277344 206.363281 L 14.445312 207.269531 M 16.277344 206.363281 L 19.410156 212.683594 L 17.578125 213.589844 L 14.445312 207.269531 M 22.539062 219.003906 L 20.707031 219.910156 M 22.539062 219.003906 L 25.671875 225.324219 L 23.839844 226.230469 L 20.707031 219.910156 M 28.804688 231.640625 L 26.96875 232.550781 M 28.804688 231.640625 L 31.933594 237.960938 L 30.101562 238.871094 L 26.96875 232.550781 M 35.066406 244.28125 L 33.234375 245.1875 M 35.066406 244.28125 L 38.195312 250.601562 L 36.363281 251.507812 L 33.234375 245.1875 M 41.328125 256.921875 L 39.496094 257.828125 M 41.328125 256.921875 L 44.457031 263.242188 L 42.625 264.148438 L 39.496094 257.828125 M 47.589844 269.5625 L 45.757812 270.46875 M 47.589844 269.5625 L 50.71875 275.878906 L 48.886719 276.789062 L 45.757812 270.46875 M 53.851562 282.199219 L 52.019531 283.109375 M 53.851562 282.199219 L 56.980469 288.519531 L 55.148438 289.425781 L 52.019531 283.109375 M 60.113281 294.839844 L 58.28125 295.746094 M 60.113281 294.839844 L 63.246094 301.160156 L 61.414062 302.066406 L 58.28125 295.746094 M 66.375 307.480469 L 64.542969 308.386719 M 66.375 307.480469 L 69.507812 313.800781 L 67.675781 314.707031 L 64.542969 308.386719 M 72.636719 320.117188 L 70.804688 321.027344 M 72.636719 320.117188 L 75.769531 326.4375 L 73.9375 327.347656 L 70.804688 321.027344 M 78.898438 332.757812 L 77.066406 333.664062 M 78.898438 332.757812 L 82.03125 339.078125 L 80.199219 339.984375 L 77.066406 333.664062 " fill-opacity="1" fill-rule="nonzero"/><path stroke-linecap="butt" transform="matrix(0.681538, 0, 0, 0.681408, -25.869234, -5.945148)" fill="none" stroke-linejoin="miter" d="M 161.591744 516.34184 L 163.809842 520.81901 " stroke="#757578" stroke-width="3" stroke-opacity="1" stroke-miterlimit="10"/><g clip-path="url(#09ad1aaadc)"><path stroke-linecap="butt" transform="matrix(0.681538, 0, 0, 0.681408, -25.869234, -5.945148)" fill="none" stroke-linejoin="miter" d="M 75.550167 276.437767 L 77.768265 280.932135 " stroke="#757578" stroke-width="3" stroke-opacity="1" stroke-miterlimit="10"/></g><path fill="#757578" d="M 31.179688 191.347656 L 29.347656 192.253906 M 31.179688 191.347656 L 34.308594 197.664062 L 32.476562 198.574219 L 29.347656 192.253906 M 37.441406 203.984375 L 35.609375 204.894531 M 37.441406 203.984375 L 40.570312 210.304688 L 38.738281 211.210938 L 35.609375 204.894531 M 43.703125 216.625 L 41.871094 217.53125 M 43.703125 216.625 L 46.832031 222.945312 L 45 223.851562 L 41.871094 217.53125 M 49.964844 229.265625 L 48.132812 230.171875 M 49.964844 229.265625 L 53.09375 235.585938 L 51.261719 236.492188 L 48.132812 230.171875 M 56.226562 241.902344 L 54.394531 242.8125 M 56.226562 241.902344 L 59.359375 248.222656 L 57.527344 249.132812 L 54.394531 242.8125 M 62.488281 254.542969 L 60.65625 255.449219 M 62.488281 254.542969 L 65.621094 260.863281 L 63.789062 261.769531 L 60.65625 255.449219 M 68.75 267.183594 L 66.917969 268.089844 M 68.75 267.183594 L 71.882812 273.503906 L 70.050781 274.410156 L 66.917969 268.089844 M 75.011719 279.824219 L 73.179688 280.730469 M 75.011719 279.824219 L 78.144531 286.140625 L 76.3125 287.050781 L 73.179688 280.730469 M 81.273438 292.460938 L 79.441406 293.367188 M 81.273438 292.460938 L 84.40625 298.78125 L 82.574219 299.6875 L 79.441406 293.367188 M 87.539062 305.101562 L 85.703125 306.007812 M 87.539062 305.101562 L 90.667969 311.421875 L 88.835938 312.328125 L 85.703125 306.007812 M 93.800781 317.742188 L 91.96875 318.648438 M 93.800781 317.742188 L 96.929688 324.058594 L 95.097656 324.96875 L 91.96875 318.648438 M 100.0625 330.378906 L 98.230469 331.289062 M 100.0625 330.378906 L 103.191406 336.699219 L 101.359375 337.605469 L 98.230469 331.289062 " fill-opacity="1" fill-rule="nonzero"/><path stroke-linecap="butt" transform="matrix(0.681538, 0, 0, 0.681408, -25.869234, -5.945148)" fill="none" stroke-linejoin="miter" d="M 192.65085 512.850679 L 194.868948 517.327849 " stroke="#757578" stroke-width="3" stroke-opacity="1" stroke-miterlimit="10"/><path stroke-linecap="butt" transform="matrix(0.681538, 0, 0, 0.681408, -25.869234, -5.945148)" fill="none" stroke-linejoin="miter" d="M 106.59781 272.958072 L 108.82164 277.440974 " stroke="#757578" stroke-width="3" stroke-opacity="1" stroke-miterlimit="10"/><path fill="#757578" d="M 52.339844 188.972656 L 50.507812 189.882812 M 52.339844 188.972656 L 55.472656 195.292969 L 53.640625 196.203125 L 50.507812 189.882812 M 58.601562 201.613281 L 56.769531 202.519531 M 58.601562 201.613281 L 61.734375 207.933594 L 59.902344 208.839844 L 56.769531 202.519531 M 64.863281 214.253906 L 63.03125 215.160156 M 64.863281 214.253906 L 67.996094 220.574219 L 66.164062 221.480469 L 63.03125 215.160156 M 71.125 226.894531 L 69.292969 227.800781 M 71.125 226.894531 L 74.257812 233.210938 L 72.425781 234.121094 L 69.292969 227.800781 M 77.386719 239.53125 L 75.554688 240.441406 M 77.386719 239.53125 L 80.519531 245.851562 L 78.6875 246.757812 L 75.554688 240.441406 M 83.652344 252.171875 L 81.820312 253.078125 M 83.652344 252.171875 L 86.78125 258.492188 L 84.949219 259.398438 L 81.820312 253.078125 M 89.914062 264.8125 L 88.082031 265.71875 M 89.914062 264.8125 L 93.042969 271.132812 L 91.210938 272.039062 L 88.082031 265.71875 M 96.175781 277.449219 L 94.34375 278.359375 M 96.175781 277.449219 L 99.304688 283.769531 L 97.472656 284.679688 L 94.34375 278.359375 M 102.4375 290.089844 L 100.605469 290.996094 M 102.4375 290.089844 L 105.566406 296.410156 L 103.734375 297.316406 L 100.605469 290.996094 M 108.699219 302.730469 L 106.867188 303.636719 M 108.699219 302.730469 L 111.828125 309.050781 L 109.996094 309.957031 L 106.867188 303.636719 M 114.960938 315.371094 L 113.128906 316.277344 M 114.960938 315.371094 L 118.09375 321.6875 L 116.261719 322.597656 L 113.128906 316.277344 M 121.222656 328.007812 L 119.390625 328.917969 M 121.222656 328.007812 L 124.355469 334.328125 L 122.523438 335.234375 L 119.390625 328.917969 " fill-opacity="1" fill-rule="nonzero"/><path stroke-linecap="butt" transform="matrix(0.681538, 0, 0, 0.681408, -25.869234, -5.945148)" fill="none" stroke-linejoin="miter" d="M 223.698494 509.370984 L 225.922323 513.848154 " stroke="#757578" stroke-width="3" stroke-opacity="1" stroke-miterlimit="10"/><path stroke-linecap="butt" transform="matrix(0.681538, 0, 0, 0.681408, -25.869234, -5.945148)" fill="none" stroke-linejoin="miter" d="M 153.888581 45.837723 L 153.888581 819.608472 " stroke="#ffffff" stroke-width="12" stroke-opacity="1" stroke-miterlimit="10"/><path stroke-linecap="butt" transform="matrix(0.681538, 0, 0, 0.681408, -25.869234, -5.945148)" fill="none" stroke-linejoin="miter" d="M 165.64966 55.961516 L 165.64966 812.809594 " stroke="#d1d3d4" stroke-width="12" stroke-opacity="1" stroke-miterlimit="10"/><path fill="#f6ac1b" d="M 323.042969 583.160156 L 341.410156 231.179688 L 288.183594 -5.945312 L 348.902344 -4.820312 L 362.394531 -1.449219 L 384.886719 -5.945312 L 435.484375 -5.945312 C 435.484375 -5.945312 436.609375 601.140625 436.609375 601.140625 C 436.609375 601.140625 412.992188 621.378906 375.890625 609.011719 L 375.890625 583.152344 C 375.890625 583.152344 342.15625 592.148438 323.042969 583.152344 " fill-opacity="1" fill-rule="nonzero"/><path stroke-linecap="butt" transform="matrix(0.681538, 0, 0, 0.681408, -25.869234, -5.945148)" fill="none" stroke-linejoin="miter" d="M 589.489827 864.540684 L 595.330246 456.711212 " stroke="#ef4136" stroke-width="2" stroke-opacity="1" stroke-miterlimit="10"/><path stroke-linecap="butt" transform="matrix(0.681538, 0, 0, 0.681408, -25.869234, -5.945148)" fill="none" stroke-linejoin="miter" d="M 549.902219 1.650751 L 565.681093 273.89822 " stroke="#ef4136" stroke-width="2" stroke-opacity="1" stroke-miterlimit="10"/><path stroke-linecap="butt" transform="matrix(0.681538, 0, 0, 0.681408, -25.869234, -5.945148)" fill="none" stroke-linejoin="miter" d="M 602.689517 -0.00024132 L 603.732654 371.048793 " stroke="#ef4136" stroke-width="2" stroke-opacity="1" stroke-miterlimit="10"/><path fill="#be9e7d" d="M 768.4375 283.515625 C 768.4375 283.515625 772.394531 335.085938 788.9375 341.613281 C 788.9375 341.613281 772.628906 424.835938 701.050781 441.992188 C 701.050781 441.992188 655.015625 405.585938 674.683594 354.535156 C 674.683594 354.535156 684.792969 346.363281 685.839844 335.480469 C 685.839844 335.480469 746.386719 319.691406 768.429688 283.515625 Z M 768.4375 283.515625 " fill-opacity="1" fill-rule="nonzero"/><path fill="#be9e7d" d="M 771.617188 246.660156 C 771.617188 246.660156 780.152344 206.632812 760.210938 182.15625 C 748.039062 167.214844 718.601562 164.15625 689.492188 161.804688 C 689.492188 161.804688 627.398438 162.316406 641.445312 240.378906 C 641.445312 240.378906 644.667969 248.207031 642.554688 254.585938 C 642.554688 254.585938 637.984375 266.78125 645.023438 291.9375 C 654.414062 325.472656 671.132812 326.9375 671.132812 326.9375 C 671.132812 326.9375 672.6875 336.457031 691.8125 336.734375 C 691.8125 336.734375 708.632812 340.140625 725.773438 329.546875 C 725.773438 329.546875 770.550781 308.171875 768.421875 283.503906 C 768.421875 283.503906 786.195312 294.1875 794.738281 265.042969 C 794.738281 265.042969 805.179688 214.355469 771.605469 246.644531 Z M 771.617188 246.660156 " fill-opacity="1" fill-rule="nonzero"/><path fill="#e6e7e8" d="M 696.308594 223.65625 C 696.308594 223.65625 724.632812 219.804688 735.511719 230.714844 C 735.511719 230.714844 728.6875 215.082031 696.726562 217.128906 C 696.726562 217.128906 690.617188 220.308594 696.308594 223.65625 Z M 696.308594 223.65625 " fill-opacity="1" fill-rule="nonzero"/><path stroke-linecap="butt" transform="matrix(0.681538, 0, 0, 0.681408, -25.869234, -5.945148)" fill="none" stroke-linejoin="miter" d="M 1024.070862 391.141597 C 1024.070862 391.141597 1005.879018 418.377236 1037.769195 421.478579 " stroke="#231f20" stroke-width="1.2" stroke-opacity="1" stroke-miterlimit="10"/><path stroke-linecap="butt" transform="matrix(0.681538, 0, 0, 0.681408, -25.869234, -5.945148)" fill="none" stroke-linejoin="miter" d="M 1201.077392 380.840094 C 1201.077392 380.840094 1191.408318 355.461821 1172.041512 396.409868 C 1172.041512 396.409868 1188.54829 378.312012 1191.551606 393.761401 " stroke="#231f20" stroke-width="1.2" stroke-opacity="1" stroke-miterlimit="10"/><path stroke-linecap="butt" transform="matrix(0.681538, 0, 0, 0.681408, -25.869234, -5.945148)" fill="none" stroke-linejoin="miter" d="M 1118.262661 357.387979 L 1105.338083 388.957472 C 1105.338083 388.957472 1086.338095 398.978078 1061.021971 392.351179 L 1047.719114 361.739031 C 1047.719114 361.739031 1082.291642 345.360959 1118.251198 357.387979 Z M 1118.262661 357.387979 " stroke="#231f20" stroke-width="1.2" stroke-opacity="1" stroke-miterlimit="10"/><g clip-path="url(#a48a8fad9a)"><path fill="#f7daa6" d="M 845.042969 747.132812 C 867.558594 761.546875 885.484375 752.640625 897.289062 745.335938 C 904.246094 741.027344 916.160156 663.355469 917.105469 658.878906 C 927.703125 608.78125 920.710938 557.109375 920.710938 557.109375 C 913.542969 489.316406 899.992188 443.632812 899.992188 443.632812 C 895.425781 410.386719 870.265625 377.890625 870.265625 377.890625 C 840.269531 345.949219 786.835938 339.597656 786.835938 339.597656 C 786.835938 339.597656 714.867188 457.753906 675.84375 366.308594 L 674.683594 354.539062 C 653.09375 363.71875 622.28125 382.101562 622.28125 382.101562 C 594.875 399.410156 589.101562 452.042969 589.101562 452.042969 L 572.515625 583.277344 C 572.515625 583.277344 545.832031 595.535156 519.148438 641.679688 C 519.148438 641.679688 532.332031 671.804688 551.082031 687.667969 C 557.296875 692.921875 587.660156 662.585938 597.035156 654.652344 C 610.53125 643.238281 600.019531 660.234375 601.464844 731.617188 C 601.964844 756.339844 600.457031 763.894531 601.171875 764.777344 C 627.148438 796.46875 721.273438 793.53125 721.273438 793.53125 C 865.363281 791.574219 839.726562 759.414062 839.726562 759.414062 " fill-opacity="1" fill-rule="nonzero"/></g><path fill="#26130f" d="M 685.839844 335.480469 C 685.839844 335.480469 689.070312 336.945312 692.484375 336.59375 C 692.484375 336.59375 718.820312 341.0625 745.488281 317.640625 C 745.488281 317.640625 737.890625 326.433594 721.878906 334.710938 C 721.878906 334.710938 709.21875 341.613281 685.671875 338.941406 C 685.671875 338.941406 685.914062 336.871094 685.847656 335.480469 Z M 685.839844 335.480469 " fill-opacity="1" fill-rule="nonzero"/><path stroke-linecap="butt" transform="matrix(0.681538, 0, 0, 0.681408, -25.869234, -5.945148)" fill-opacity="1" fill="#e6e7e8" fill-rule="nonzero" stroke-linejoin="miter" d="M 1124.091617 274.511609 C 1124.091617 274.511609 1060.437356 299.001327 1025.492279 268.268795 C 1025.492279 268.268795 1011.358351 289.427865 977.422022 315.127164 C 977.422022 315.127164 971.478436 331.68868 984.082048 371.008665 C 984.082048 371.008665 971.61026 401.620812 988.678727 442.672045 C 988.678727 442.672045 1002.451569 479.068398 1022.689566 488.527207 C 1022.689566 488.527207 1031.670858 498.180926 1044.268739 501.047232 C 1044.268739 501.047232 1044.847622 515.648194 1034.909167 514.40995 C 1034.909167 514.40995 1035.877793 506.630796 1030.530285 503.472127 C 1030.530285 503.472127 945.549039 470.36056 961.448276 335.432076 C 961.448276 335.432076 917.968965 271.519186 974.917347 234.102429 C 1000.651872 217.191224 1025.990922 166.027663 1087.891337 198.502909 C 1087.891337 198.502909 1174.139249 161.659413 1195.592328 245.779759 C 1195.592328 245.779759 1287.199211 275.41163 1226.250228 388.458735 C 1226.250228 388.458735 1240.321109 427.721394 1202.670755 456.000368 C 1198.331994 459.262224 1189.092784 474.602693 1195.208316 497.917226 C 1196.858994 504.211633 1180.32929 491.318989 1175.411646 479.079863 C 1175.411646 479.079863 1166.470475 457.037971 1165.450264 424.797762 C 1165.450264 424.797762 1194.371514 435.431757 1201.249338 402.881986 C 1201.249338 402.881986 1213.388697 367.362723 1200.951299 360.741557 C 1200.951299 360.741557 1186.960659 353.931214 1171.198979 370.699104 C 1171.198979 370.699104 1115.098862 360.540915 1124.080154 274.511609 Z M 1124.091617 274.511609 " stroke="#58595b" stroke-width="0.2" stroke-opacity="1" stroke-miterlimit="10"/><path fill="#e6e7e8" d="M 639.476562 231.894531 C 639.367188 230.320312 651.8125 223.738281 664.535156 220.378906 C 664.535156 220.378906 671.433594 221.476562 667.035156 226.523438 C 667.035156 226.523438 642.550781 229.625 642.632812 238.007812 C 642.632812 238.007812 639.75 235.769531 639.484375 231.886719 Z M 639.476562 231.894531 " fill-opacity="1" fill-rule="nonzero"/><path stroke-linecap="butt" transform="matrix(0.681538, 0, 0, 0.681408, -25.869234, -5.945148)" fill="none" stroke-linejoin="miter" d="M 1036.347778 360.122435 L 1023.428932 391.691928 C 1023.428932 391.691928 1006.727283 399.09273 981.41116 392.460098 L 970.991256 358.717945 C 970.991256 358.717945 1000.382491 348.089682 1036.347778 360.128167 Z M 1036.347778 360.122435 " stroke="#231f20" stroke-width="1.2" stroke-opacity="1" stroke-miterlimit="10"/><path stroke-linecap="butt" transform="matrix(0.681538, 0, 0, 0.681408, -25.869234, -5.945148)" fill="none" stroke-linejoin="miter" d="M 1036.347778 360.122435 C 1036.347778 360.122435 1043.277186 353.627386 1047.719114 361.739031 " stroke="#231f20" stroke-width="1.2" stroke-opacity="1" stroke-miterlimit="10"/><path stroke-linecap="butt" transform="matrix(0.681538, 0, 0, 0.681408, -25.869234, -5.945148)" fill="none" stroke-linejoin="miter" d="M 1118.262661 357.387979 L 1190.491275 356.808985 " stroke="#231f20" stroke-width="1.2" stroke-opacity="1" stroke-miterlimit="10"/><path stroke-linecap="butt" transform="matrix(0.681538, 0, 0, 0.681408, -25.869234, -5.945148)" fill="none" stroke-linejoin="miter" d="M 1101.847588 310.94809 C 1101.847588 310.94809 1073.510953 312.610548 1060.007492 314.949453 C 1046.509763 317.299824 1008.41235 305.112291 1008.41235 305.112291 " stroke="#231f20" stroke-width="0.5" stroke-opacity="1" stroke-miterlimit="10"/><path stroke-linecap="butt" transform="matrix(0.681538, 0, 0, 0.681408, -25.869234, -5.945148)" fill="none" stroke-linejoin="miter" d="M 1070.799944 801.132264 L 1045.879296 800.461548 L 1029.011433 777.152749 L 1001.431359 786.30773 L 984.39155 761.777884 L 955.642246 767.458902 L 944.242253 740.96277 L 919.952071 742.539238 L 910.042273 715.681952 L 899.072144 714.248799 " stroke="#c2b59b" stroke-width="1" stroke-opacity="1" stroke-miterlimit="10"/><path fill="#ffffff" d="M 724.519531 243.402344 C 724.519531 243.402344 724.546875 242.871094 724.164062 242.421875 C 722.917969 240.914062 720.027344 238.074219 715.308594 237.898438 C 710.035156 237.699219 706.949219 242.542969 705.890625 244.273438 C 705.707031 244.574219 705.714844 244.839844 705.714844 244.839844 C 705.714844 244.839844 705.6875 245.132812 705.859375 245.34375 C 706.660156 246.351562 709.367188 249.1875 714.363281 249.445312 C 717.335938 249.601562 721.566406 248.160156 724.308594 244.21875 C 724.496094 243.949219 724.523438 243.585938 724.523438 243.394531 Z M 724.519531 243.402344 " fill-opacity="1" fill-rule="nonzero"/><path fill="#26130f" d="M 719.058594 243.933594 C 719.058594 244.292969 719.023438 244.648438 718.953125 245 C 718.882812 245.351562 718.78125 245.691406 718.644531 246.023438 C 718.507812 246.355469 718.339844 246.667969 718.140625 246.964844 C 717.941406 247.265625 717.714844 247.539062 717.460938 247.792969 C 717.207031 248.046875 716.929688 248.273438 716.632812 248.472656 C 716.335938 248.671875 716.019531 248.839844 715.6875 248.976562 C 715.359375 249.113281 715.015625 249.21875 714.664062 249.289062 C 714.3125 249.355469 713.957031 249.390625 713.601562 249.390625 C 713.242188 249.390625 712.886719 249.355469 712.535156 249.289062 C 712.183594 249.21875 711.839844 249.113281 711.511719 248.976562 C 711.179688 248.839844 710.863281 248.671875 710.566406 248.472656 C 710.269531 248.273438 709.992188 248.046875 709.738281 247.792969 C 709.484375 247.539062 709.257812 247.265625 709.058594 246.964844 C 708.863281 246.667969 708.691406 246.355469 708.554688 246.023438 C 708.417969 245.691406 708.316406 245.351562 708.246094 245 C 708.175781 244.648438 708.140625 244.292969 708.140625 243.933594 C 708.140625 243.574219 708.175781 243.222656 708.246094 242.871094 C 708.316406 242.519531 708.417969 242.175781 708.554688 241.84375 C 708.691406 241.515625 708.863281 241.199219 709.0625 240.902344 C 709.261719 240.605469 709.484375 240.328125 709.738281 240.074219 C 709.992188 239.820312 710.269531 239.59375 710.566406 239.394531 C 710.863281 239.195312 711.179688 239.027344 711.511719 238.890625 C 711.839844 238.753906 712.183594 238.652344 712.535156 238.582031 C 712.886719 238.511719 713.242188 238.476562 713.601562 238.476562 C 713.957031 238.476562 714.3125 238.511719 714.664062 238.582031 C 715.015625 238.652344 715.359375 238.753906 715.6875 238.890625 C 716.019531 239.027344 716.335938 239.195312 716.632812 239.394531 C 716.929688 239.59375 717.207031 239.820312 717.460938 240.074219 C 717.714844 240.328125 717.941406 240.605469 718.140625 240.902344 C 718.339844 241.199219 718.507812 241.515625 718.644531 241.84375 C 718.78125 242.175781 718.882812 242.519531 718.953125 242.871094 C 719.023438 243.222656 719.058594 243.574219 719.058594 243.933594 Z M 719.058594 243.933594 " fill-opacity="1" fill-rule="nonzero"/><path fill="#ffffff" d="M 718.589844 242.953125 C 718.589844 243.152344 718.550781 243.34375 718.472656 243.527344 C 718.398438 243.710938 718.289062 243.871094 718.148438 244.011719 C 718.007812 244.152344 717.847656 244.261719 717.664062 244.335938 C 717.480469 244.414062 717.289062 244.453125 717.089844 244.453125 C 716.890625 244.453125 716.699219 244.414062 716.515625 244.335938 C 716.332031 244.261719 716.167969 244.152344 716.027344 244.011719 C 715.886719 243.871094 715.78125 243.710938 715.703125 243.527344 C 715.628906 243.34375 715.589844 243.152344 715.589844 242.953125 C 715.589844 242.753906 715.628906 242.5625 715.703125 242.378906 C 715.78125 242.195312 715.886719 242.035156 716.027344 241.894531 C 716.167969 241.753906 716.332031 241.644531 716.515625 241.566406 C 716.699219 241.492188 716.890625 241.453125 717.089844 241.453125 C 717.289062 241.453125 717.480469 241.492188 717.664062 241.566406 C 717.847656 241.644531 718.007812 241.753906 718.148438 241.894531 C 718.289062 242.035156 718.398438 242.195312 718.472656 242.378906 C 718.550781 242.5625 718.589844 242.753906 718.589844 242.953125 Z M 718.589844 242.953125 " fill-opacity="1" fill-rule="nonzero"/><path stroke-linecap="butt" transform="matrix(0.681538, 0, 0, 0.681408, -25.869234, -5.945148)" fill="none" stroke-linejoin="miter" d="M 1073.218646 367.207943 C 1073.218646 367.207943 1083.329047 349.087157 1100.810183 364.439091 " stroke="#231f20" stroke-width="1.5" stroke-opacity="1" stroke-miterlimit="10"/><path fill="#ffffff" d="M 664.980469 246.066406 C 664.980469 246.066406 665.074219 245.578125 664.792969 245.097656 C 663.855469 243.519531 661.5625 240.464844 657.210938 239.628906 C 652.328125 238.6875 648.765625 242.753906 647.53125 244.214844 C 647.320312 244.464844 647.285156 244.71875 647.285156 244.71875 C 647.285156 244.71875 647.21875 244.984375 647.347656 245.207031 C 647.953125 246.265625 650.058594 249.28125 654.667969 250.238281 C 657.40625 250.808594 661.550781 250.074219 664.660156 246.804688 C 664.875 246.578125 664.953125 246.242188 664.980469 246.066406 Z M 664.980469 246.066406 " fill-opacity="1" fill-rule="nonzero"/><path fill="#26130f" d="M 659.867188 244.992188 C 659.867188 245.328125 659.835938 245.660156 659.769531 245.988281 C 659.703125 246.316406 659.605469 246.636719 659.476562 246.949219 C 659.347656 247.257812 659.191406 247.554688 659.003906 247.832031 C 658.816406 248.113281 658.605469 248.371094 658.367188 248.609375 C 658.128906 248.847656 657.871094 249.058594 657.59375 249.246094 C 657.3125 249.433594 657.019531 249.589844 656.707031 249.71875 C 656.398438 249.847656 656.078125 249.945312 655.746094 250.007812 C 655.417969 250.074219 655.085938 250.109375 654.75 250.109375 C 654.414062 250.109375 654.078125 250.074219 653.75 250.007812 C 653.421875 249.945312 653.101562 249.847656 652.789062 249.71875 C 652.480469 249.589844 652.183594 249.433594 651.90625 249.246094 C 651.625 249.058594 651.367188 248.847656 651.128906 248.609375 C 650.890625 248.371094 650.679688 248.113281 650.492188 247.832031 C 650.304688 247.554688 650.148438 247.257812 650.019531 246.949219 C 649.890625 246.636719 649.792969 246.316406 649.730469 245.988281 C 649.664062 245.660156 649.628906 245.328125 649.628906 244.992188 C 649.628906 244.65625 649.664062 244.320312 649.730469 243.992188 C 649.792969 243.664062 649.890625 243.34375 650.019531 243.03125 C 650.148438 242.722656 650.304688 242.425781 650.492188 242.148438 C 650.679688 241.867188 650.890625 241.609375 651.128906 241.371094 C 651.367188 241.132812 651.625 240.921875 651.90625 240.734375 C 652.183594 240.546875 652.480469 240.390625 652.789062 240.261719 C 653.101562 240.132812 653.421875 240.035156 653.75 239.972656 C 654.078125 239.90625 654.414062 239.871094 654.75 239.871094 C 655.085938 239.871094 655.417969 239.90625 655.746094 239.972656 C 656.078125 240.035156 656.398438 240.132812 656.707031 240.261719 C 657.019531 240.390625 657.3125 240.546875 657.59375 240.734375 C 657.871094 240.921875 658.128906 241.132812 658.367188 241.371094 C 658.605469 241.609375 658.816406 241.867188 659.003906 242.148438 C 659.191406 242.425781 659.347656 242.722656 659.476562 243.03125 C 659.605469 243.34375 659.703125 243.664062 659.769531 243.992188 C 659.835938 244.320312 659.867188 244.65625 659.867188 244.992188 Z M 659.867188 244.992188 " fill-opacity="1" fill-rule="nonzero"/><path fill="#ffffff" d="M 659.710938 244.691406 C 659.710938 244.878906 659.675781 245.0625 659.601562 245.238281 C 659.527344 245.414062 659.425781 245.566406 659.292969 245.703125 C 659.15625 245.835938 659.003906 245.941406 658.828125 246.011719 C 658.652344 246.085938 658.46875 246.121094 658.28125 246.121094 C 658.089844 246.121094 657.90625 246.085938 657.730469 246.011719 C 657.554688 245.941406 657.402344 245.835938 657.265625 245.703125 C 657.132812 245.566406 657.03125 245.414062 656.957031 245.238281 C 656.882812 245.0625 656.847656 244.878906 656.847656 244.691406 C 656.847656 244.5 656.882812 244.316406 656.957031 244.144531 C 657.03125 243.96875 657.132812 243.8125 657.265625 243.679688 C 657.402344 243.542969 657.554688 243.441406 657.730469 243.367188 C 657.90625 243.296875 658.089844 243.257812 658.28125 243.257812 C 658.46875 243.257812 658.652344 243.296875 658.828125 243.367188 C 659.003906 243.441406 659.15625 243.542969 659.292969 243.679688 C 659.425781 243.8125 659.527344 243.96875 659.601562 244.144531 C 659.675781 244.316406 659.710938 244.5 659.710938 244.691406 Z M 659.710938 244.691406 " fill-opacity="1" fill-rule="nonzero"/><path stroke-linecap="butt" transform="matrix(0.681538, 0, 0, 0.681408, -25.869234, -5.945148)" fill="none" stroke-linejoin="miter" d="M 987.89924 367.351258 C 987.89924 367.351258 999.539957 350.818406 1013.559255 368.761481 " stroke="#231f20" stroke-width="1.5" stroke-opacity="1" stroke-miterlimit="10"/><path fill="#ae8578" d="M 667.277344 302.875 C 667.277344 302.875 675.984375 289.886719 689.050781 293.527344 C 689.050781 293.527344 698.761719 286.765625 718.171875 299.203125 C 718.171875 299.203125 709.113281 311.910156 690.726562 311.707031 C 672.339844 311.503906 667.277344 302.875 667.277344 302.875 Z M 667.277344 302.875 " fill-opacity="1" fill-rule="nonzero"/><path fill="#803435" d="M 669.96875 303.484375 C 669.96875 303.484375 676.347656 296.382812 689.664062 295.863281 C 702.980469 295.347656 715.734375 299.980469 715.734375 299.980469 C 715.734375 299.980469 696.289062 303.054688 691.011719 306.453125 C 691.011719 306.453125 681.089844 303.585938 669.96875 303.484375 Z M 669.96875 303.484375 " fill-opacity="1" fill-rule="nonzero"/><path fill="#ffffff" d="M 675.257812 299.714844 C 675.257812 299.714844 684.375 292.144531 707.40625 297.710938 C 707.40625 297.710938 687.917969 296.8125 675.257812 299.714844 Z M 675.257812 299.714844 " fill-opacity="1" fill-rule="nonzero"/><path stroke-linecap="butt" transform="matrix(0.681538, 0, 0, 0.681408, -25.869234, -5.945148)" fill-opacity="1" fill="#f7daa6" fill-rule="nonzero" stroke-linejoin="miter" d="M 1224.960636 818.519276 C 1224.960636 818.519276 1225.980846 787.058702 1229.740723 772.979407 " stroke="#754c29" stroke-width="1" stroke-opacity="1" stroke-miterlimit="10"/><path fill="#be9e7d" d="M 567.757812 364.082031 C 567.757812 364.082031 562.863281 381.488281 569.964844 404.371094 C 569.964844 404.371094 565.808594 441.085938 522.707031 448.480469 C 522.707031 448.480469 475.539062 441.011719 502.34375 407.445312 C 502.34375 407.445312 506.582031 405.597656 505.640625 398.421875 C 505.640625 398.421875 556.207031 395.132812 567.765625 364.082031 Z M 567.757812 364.082031 " fill-opacity="1" fill-rule="nonzero"/><path fill="#be9e7d" d="M 490.089844 275.78125 C 490.089844 275.78125 477.691406 283.84375 474.863281 311.945312 C 474.558594 315.011719 476.261719 321.15625 475.082031 323.496094 C 465.886719 341.75 468.410156 359.5 473.433594 369.605469 C 474.679688 372.105469 475.15625 375.085938 476.207031 377.394531 C 483.839844 394.246094 509.554688 399.078125 509.554688 399.078125 C 509.554688 399.078125 560.519531 394.976562 570.144531 368.613281 C 570.144531 368.613281 580.414062 383.589844 592.96875 365.898438 C 592.96875 365.898438 607.164062 346.527344 597.429688 340.03125 C 597.429688 340.03125 586.703125 334.664062 578.886719 345.796875 C 578.886719 345.796875 590.792969 298.222656 575.261719 288.851562 C 575.261719 288.851562 539.25 245.011719 490.089844 275.777344 Z M 490.089844 275.78125 " fill-opacity="1" fill-rule="nonzero"/><path stroke-linecap="butt" transform="matrix(0.681538, 0, 0, 0.681408, -25.869234, -5.945148)" fill="none" stroke-linejoin="miter" d="M 911.652831 522.372548 C 911.652831 522.372548 906.270933 503.758757 890.090853 531.72817 C 890.090853 531.72817 902.889337 519.827268 904.121613 531.000129 " stroke="#231f20" stroke-width="1.2" stroke-opacity="1" stroke-miterlimit="10"/><path fill="#26130f" d="M 505.503906 397.945312 C 505.503906 397.945312 514.898438 399.398438 525.242188 396.472656 C 525.242188 396.472656 534.328125 395.378906 546.199219 389.871094 C 546.199219 389.871094 537.6875 397.660156 521.753906 400.945312 C 521.753906 400.945312 513.566406 403.097656 505.289062 400.609375 C 505.289062 400.609375 505.777344 400.808594 505.511719 397.9375 Z M 505.503906 397.945312 " fill-opacity="1" fill-rule="nonzero"/><path fill="#dc3b28" d="M 502.34375 407.445312 C 502.34375 407.445312 486.203125 429.726562 513.105469 435.875 C 513.105469 435.875 553.832031 445.09375 569.972656 404.371094 C 569.972656 404.371094 616.71875 422.171875 636.382812 459.421875 C 657.476562 499.378906 654.101562 527.597656 654.101562 527.597656 C 654.101562 527.597656 634.519531 551.121094 603.785156 543.441406 C 603.785156 543.441406 625.878906 584.507812 623.875 654.222656 C 623.875 654.222656 504.917969 691.898438 448.820312 648.867188 C 448.820312 648.867188 445.148438 594.921875 453.164062 543.441406 C 453.164062 543.441406 418.554688 539.195312 410.875 521.527344 C 410.875 521.527344 424.375 478.421875 438.292969 456.664062 C 450.941406 436.886719 454.402344 423.253906 502.445312 407.375 " fill-opacity="1" fill-rule="nonzero"/><path fill="#231f20" d="M 526.164062 313.191406 C 526.164062 313.191406 545.3125 317.585938 551.046875 325.859375 C 551.046875 325.859375 548.605469 316 527.300781 309.820312 C 527.300781 309.820312 522.863281 310.121094 526.167969 313.191406 Z M 526.164062 313.191406 " fill-opacity="1" fill-rule="nonzero"/><path fill="#231f20" d="M 474.53125 312.386719 C 474.851562 311.550781 484.753906 309.746094 494.050781 309.664062 C 494.050781 309.664062 498.363281 311.15625 494.183594 313.21875 C 494.183594 313.21875 477.132812 311.597656 475.101562 316.011719 C 475.101562 316.011719 473.738281 314.460938 474.53125 312.386719 Z M 474.53125 312.386719 " fill-opacity="1" fill-rule="nonzero"/><path fill="#b6302e" d="M 570.0625 404.304688 C 570.0625 404.304688 558.855469 440.179688 513.195312 435.804688 C 513.195312 435.804688 486.59375 429.050781 502.433594 407.375 C 502.433594 407.375 496.808594 408.625 494.976562 409.84375 C 494.976562 409.84375 479.300781 436.628906 512.257812 442.429688 C 512.257812 442.429688 548.988281 446.148438 566.378906 424.179688 C 566.378906 424.179688 574.007812 414.109375 576.453125 406.484375 L 570.054688 404.296875 Z M 570.0625 404.304688 " fill-opacity="1" fill-rule="nonzero"/><g clip-path="url(#9355884c97)"><path fill="#1fa8df" d="M 468.867188 817.695312 C 468.867188 817.695312 458.382812 807.398438 455.671875 787.171875 L 448.433594 659.949219 C 448.433594 659.949219 492.800781 698.992188 623.867188 654.222656 C 623.867188 654.222656 632.140625 706.304688 616.042969 765.339844 C 616.042969 765.339844 624.496094 791.929688 618.15625 816.761719 C 618.15625 816.761719 562.054688 832.222656 533.753906 820.976562 L 532.445312 812.414062 L 532.554688 821.296875 C 532.554688 821.296875 495.636719 826.972656 468.867188 817.699219 Z M 468.867188 817.695312 " fill-opacity="1" fill-rule="nonzero"/></g><g clip-path="url(#148a59f482)"><path fill="#1c75bc" d="M 623.601562 655.601562 L 624.128906 645.957031 C 624.128906 645.957031 513.792969 686.632812 448.816406 648.867188 C 448.816406 648.867188 446.769531 651.183594 448.433594 659.949219 C 448.433594 659.949219 486.191406 702.3125 623.601562 655.601562 Z M 623.601562 655.601562 " fill-opacity="1" fill-rule="nonzero"/></g><path fill="#00979c" d="M 558.359375 545.941406 L 584.503906 548.167969 L 574.492188 527.03125 L 556.136719 539.828125 Z M 558.359375 545.941406 " fill-opacity="1" fill-rule="nonzero"/><path fill="#ffffff" d="M 541.734375 331.425781 C 541.734375 331.425781 541.789062 330.96875 541.496094 330.554688 C 540.53125 329.171875 538.226562 326.519531 534.179688 326.050781 C 529.644531 325.519531 526.648438 329.484375 525.617188 330.910156 C 525.441406 331.15625 525.425781 331.386719 525.425781 331.386719 C 525.425781 331.386719 525.378906 331.636719 525.515625 331.828125 C 526.144531 332.753906 528.28125 335.378906 532.570312 335.945312 C 535.117188 336.285156 538.867188 335.324219 541.496094 332.121094 C 541.683594 331.898438 541.730469 331.589844 541.742188 331.425781 Z M 541.734375 331.425781 " fill-opacity="1" fill-rule="nonzero"/><path fill="#26130f" d="M 537.011719 331.132812 C 537.011719 331.445312 536.984375 331.75 536.921875 332.054688 C 536.863281 332.359375 536.773438 332.65625 536.652344 332.941406 C 536.535156 333.226562 536.390625 333.5 536.21875 333.757812 C 536.042969 334.015625 535.847656 334.253906 535.628906 334.472656 C 535.410156 334.691406 535.171875 334.886719 534.914062 335.058594 C 534.65625 335.234375 534.382812 335.378906 534.097656 335.496094 C 533.8125 335.617188 533.515625 335.703125 533.210938 335.765625 C 532.90625 335.824219 532.601562 335.855469 532.289062 335.855469 C 531.980469 335.855469 531.671875 335.824219 531.367188 335.765625 C 531.066406 335.703125 530.769531 335.617188 530.484375 335.496094 C 530.195312 335.378906 529.925781 335.234375 529.667969 335.058594 C 529.410156 334.886719 529.167969 334.691406 528.949219 334.472656 C 528.730469 334.253906 528.535156 334.015625 528.363281 333.757812 C 528.191406 333.5 528.046875 333.226562 527.925781 332.941406 C 527.808594 332.65625 527.71875 332.359375 527.65625 332.054688 C 527.597656 331.75 527.566406 331.445312 527.566406 331.132812 C 527.566406 330.824219 527.597656 330.515625 527.65625 330.210938 C 527.71875 329.910156 527.808594 329.613281 527.925781 329.328125 C 528.046875 329.039062 528.191406 328.769531 528.363281 328.511719 C 528.535156 328.253906 528.730469 328.015625 528.949219 327.792969 C 529.167969 327.574219 529.410156 327.378906 529.667969 327.207031 C 529.925781 327.035156 530.195312 326.890625 530.484375 326.769531 C 530.769531 326.652344 531.0625 326.5625 531.367188 326.503906 C 531.671875 326.441406 531.980469 326.410156 532.289062 326.410156 C 532.601562 326.410156 532.90625 326.441406 533.210938 326.503906 C 533.515625 326.5625 533.8125 326.652344 534.097656 326.769531 C 534.382812 326.890625 534.65625 327.035156 534.914062 327.207031 C 535.171875 327.378906 535.410156 327.574219 535.628906 327.792969 C 535.847656 328.015625 536.042969 328.253906 536.21875 328.511719 C 536.390625 328.769531 536.535156 329.039062 536.652344 329.328125 C 536.773438 329.613281 536.863281 329.910156 536.921875 330.210938 C 536.984375 330.515625 537.011719 330.824219 537.011719 331.132812 Z M 537.011719 331.132812 " fill-opacity="1" fill-rule="nonzero"/><path fill="#ffffff" d="M 536.652344 330.527344 C 536.652344 330.699219 536.617188 330.863281 536.554688 331.023438 C 536.488281 331.179688 536.394531 331.320312 536.273438 331.441406 C 536.152344 331.5625 536.011719 331.65625 535.851562 331.722656 C 535.695312 331.789062 535.527344 331.820312 535.355469 331.820312 C 535.183594 331.820312 535.019531 331.789062 534.863281 331.722656 C 534.703125 331.65625 534.5625 331.5625 534.441406 331.441406 C 534.320312 331.320312 534.226562 331.179688 534.160156 331.023438 C 534.09375 330.863281 534.0625 330.699219 534.0625 330.527344 C 534.0625 330.355469 534.09375 330.191406 534.160156 330.03125 C 534.226562 329.875 534.320312 329.734375 534.441406 329.613281 C 534.5625 329.492188 534.703125 329.398438 534.863281 329.332031 C 535.019531 329.265625 535.183594 329.234375 535.355469 329.234375 C 535.527344 329.234375 535.695312 329.265625 535.851562 329.332031 C 536.011719 329.398438 536.152344 329.492188 536.273438 329.613281 C 536.394531 329.734375 536.488281 329.875 536.554688 330.03125 C 536.617188 330.191406 536.652344 330.355469 536.652344 330.527344 Z M 536.652344 330.527344 " fill-opacity="1" fill-rule="nonzero"/><path stroke-linecap="butt" transform="matrix(0.681538, 0, 0, 0.681408, -25.869234, -5.945148)" fill="none" stroke-linejoin="miter" d="M 808.772048 494.311413 C 808.772048 494.311413 818.721966 479.372226 832.752727 493.80121 " stroke="#231f20" stroke-width="1.2" stroke-opacity="1" stroke-miterlimit="10"/><path fill="#ffffff" d="M 493.222656 327.761719 C 493.222656 327.761719 493.339844 327.351562 493.128906 326.929688 C 492.433594 325.527344 490.695312 322.773438 487.050781 321.765625 C 482.96875 320.640625 479.660156 323.855469 478.515625 325.015625 C 478.320312 325.210938 478.277344 325.421875 478.277344 325.421875 C 478.277344 325.421875 478.203125 325.648438 478.292969 325.847656 C 478.734375 326.78125 480.328125 329.492188 484.171875 330.617188 C 486.464844 331.285156 490.035156 330.9375 492.898438 328.367188 C 493.09375 328.191406 493.183594 327.917969 493.21875 327.761719 Z M 493.222656 327.761719 " fill-opacity="1" fill-rule="nonzero"/><path fill="#26130f" d="M 488.964844 326.152344 C 488.964844 326.4375 488.9375 326.722656 488.882812 327.003906 C 488.824219 327.285156 488.742188 327.558594 488.632812 327.820312 C 488.523438 328.085938 488.390625 328.335938 488.230469 328.574219 C 488.070312 328.8125 487.890625 329.035156 487.6875 329.238281 C 487.484375 329.4375 487.265625 329.621094 487.027344 329.777344 C 486.789062 329.9375 486.535156 330.074219 486.273438 330.183594 C 486.007812 330.292969 485.734375 330.375 485.453125 330.429688 C 485.171875 330.484375 484.890625 330.515625 484.601562 330.515625 C 484.316406 330.515625 484.03125 330.484375 483.75 330.429688 C 483.472656 330.375 483.199219 330.292969 482.933594 330.183594 C 482.667969 330.074219 482.417969 329.9375 482.179688 329.777344 C 481.941406 329.621094 481.722656 329.4375 481.519531 329.238281 C 481.316406 329.035156 481.136719 328.8125 480.976562 328.574219 C 480.816406 328.335938 480.683594 328.085938 480.574219 327.820312 C 480.464844 327.558594 480.378906 327.285156 480.324219 327.003906 C 480.269531 326.722656 480.242188 326.4375 480.242188 326.152344 C 480.242188 325.867188 480.269531 325.582031 480.324219 325.300781 C 480.378906 325.019531 480.464844 324.75 480.574219 324.484375 C 480.683594 324.21875 480.816406 323.96875 480.976562 323.730469 C 481.136719 323.492188 481.316406 323.273438 481.519531 323.070312 C 481.722656 322.867188 481.941406 322.6875 482.179688 322.527344 C 482.417969 322.367188 482.667969 322.234375 482.933594 322.125 C 483.199219 322.015625 483.472656 321.929688 483.75 321.875 C 484.03125 321.820312 484.316406 321.792969 484.601562 321.792969 C 484.890625 321.792969 485.171875 321.820312 485.453125 321.875 C 485.734375 321.929688 486.007812 322.015625 486.273438 322.125 C 486.535156 322.234375 486.789062 322.367188 487.027344 322.527344 C 487.265625 322.6875 487.484375 322.867188 487.6875 323.070312 C 487.890625 323.273438 488.070312 323.492188 488.230469 323.730469 C 488.390625 323.96875 488.523438 324.21875 488.632812 324.484375 C 488.742188 324.75 488.824219 325.019531 488.882812 325.300781 C 488.9375 325.582031 488.964844 325.867188 488.964844 326.152344 Z M 488.964844 326.152344 " fill-opacity="1" fill-rule="nonzero"/><path fill="#ffffff" d="M 488.84375 326.140625 C 488.84375 326.300781 488.8125 326.457031 488.75 326.605469 C 488.6875 326.753906 488.597656 326.886719 488.484375 327 C 488.371094 327.117188 488.238281 327.203125 488.089844 327.265625 C 487.941406 327.328125 487.785156 327.359375 487.621094 327.359375 C 487.460938 327.359375 487.304688 327.328125 487.15625 327.265625 C 487.003906 327.203125 486.875 327.117188 486.757812 327 C 486.644531 326.886719 486.558594 326.753906 486.496094 326.605469 C 486.433594 326.457031 486.402344 326.300781 486.402344 326.140625 C 486.402344 325.976562 486.433594 325.820312 486.496094 325.671875 C 486.558594 325.523438 486.644531 325.390625 486.757812 325.277344 C 486.875 325.164062 487.003906 325.074219 487.15625 325.011719 C 487.304688 324.949219 487.460938 324.917969 487.621094 324.917969 C 487.785156 324.917969 487.941406 324.949219 488.089844 325.011719 C 488.238281 325.074219 488.371094 325.164062 488.484375 325.277344 C 488.597656 325.390625 488.6875 325.523438 488.75 325.671875 C 488.8125 325.820312 488.84375 325.976562 488.84375 326.140625 Z M 488.84375 326.140625 " fill-opacity="1" fill-rule="nonzero"/><path stroke-linecap="butt" transform="matrix(0.681538, 0, 0, 0.681408, -25.869234, -5.945148)" fill="none" stroke-linejoin="miter" d="M 739.919299 485.878741 C 739.919299 485.878741 750.929549 472.607744 761.641759 488.808105 " stroke="#231f20" stroke-width="1.2" stroke-opacity="1" stroke-miterlimit="10"/><path fill="#ae8578" d="M 485.640625 369.546875 C 485.640625 369.546875 492.578125 361.96875 500.699219 365.613281 C 500.699219 365.613281 507.671875 362.179688 519.0625 372.160156 C 519.0625 372.160156 511.925781 379.527344 500 377.585938 C 488.070312 375.644531 485.632812 369.546875 485.632812 369.546875 Z M 485.640625 369.546875 " fill-opacity="1" fill-rule="nonzero"/><path fill="#803435" d="M 487.328125 370.207031 C 487.328125 370.207031 492.175781 366.21875 500.871094 367.195312 C 509.574219 368.167969 517.398438 372.425781 517.398438 372.425781 C 517.398438 372.425781 504.46875 372.507812 500.699219 374.199219 C 500.699219 374.199219 494.539062 371.359375 487.320312 370.199219 Z M 487.328125 370.207031 " fill-opacity="1" fill-rule="nonzero"/><path fill="#ffffff" d="M 491.132812 368.277344 C 491.132812 368.277344 497.796875 364.257812 512.210938 370.136719 C 512.210938 370.136719 499.644531 367.636719 491.132812 368.277344 Z M 491.132812 368.277344 " fill-opacity="1" fill-rule="nonzero"/><path fill="#be9e7d" d="M 654.09375 527.589844 C 654.09375 527.589844 656.71875 593.15625 616.894531 594.527344 C 577.074219 595.894531 548.796875 573.449219 537.789062 477.917969 C 537.789062 477.917969 535.683594 455.628906 531.855469 445.882812 C 531.855469 445.882812 522.457031 446.578125 524.886719 433.003906 C 527.328125 419.429688 526.972656 406.203125 526.972656 406.203125 C 526.972656 406.203125 513.746094 383.929688 523.839844 380.449219 L 536.023438 400.289062 L 536.71875 407.601562 L 539.507812 389.851562 L 530.457031 375.582031 C 530.457031 375.582031 526.972656 366.878906 531.847656 364.09375 L 538.8125 372.101562 C 538.8125 372.101562 534.285156 363.398438 538.464844 359.570312 L 545.429688 365.484375 C 545.429688 365.484375 544.734375 362.695312 546.820312 361.652344 L 564.921875 381.140625 C 564.921875 381.140625 566.3125 423.957031 561.441406 441.359375 L 569.101562 464.328125 C 569.101562 464.328125 601.296875 517.949219 607.210938 536.046875 L 610.3125 544.109375 L 654.09375 527.582031 Z M 654.09375 527.589844 " fill-opacity="1" fill-rule="nonzero"/><path stroke-linecap="butt" transform="matrix(0.681538, 0, 0, 0.681408, -25.869234, -5.945148)" fill="none" stroke-linejoin="miter" d="M 844.462222 601.9412 L 846.290577 575.611314 L 818.332223 543.050079 C 810.85259 547.790949 816.291802 559.90969 816.291802 559.90969 L 829.571734 580.850921 L 825.479428 606.899909 L 824.459218 596.16846 L 806.582607 567.052524 C 792.099056 571.661544 811.179286 604.847634 811.179286 604.847634 L 809.729212 635.941321 C 801.687889 663.371869 818.337955 663.079505 818.337955 663.079505 C 818.337955 663.079505 825.657106 687.959041 827.049865 710.092655 " stroke="#603913" stroke-width="1" stroke-opacity="1" stroke-miterlimit="10"/><path stroke-linecap="butt" transform="matrix(0.681538, 0, 0, 0.681408, -25.869234, -5.945148)" fill="none" stroke-linejoin="miter" d="M 828.54006 554.801933 C 828.54006 554.801933 819.667667 541.811835 828.029955 536.411714 L 858.418473 566.69137 L 857.019983 588.721797 " stroke="#603913" stroke-width="1" stroke-opacity="1" stroke-miterlimit="10"/><path stroke-linecap="butt" transform="matrix(0.681538, 0, 0, 0.681408, -25.869234, -5.945148)" fill="none" stroke-linejoin="miter" d="M 838.249255 545.090888 C 838.249255 545.090888 835.458005 541.639856 840.289676 539.467196 L 866.849539 568.067197 " stroke="#603913" stroke-width="1" stroke-opacity="1" stroke-miterlimit="10"/><path fill="#be9e7d" d="M 412.25 521.546875 L 397.980469 544.285156 L 303.449219 492.574219 L 287.84375 469.835938 C 284.277344 458.6875 276.25 456.910156 276.25 456.910156 L 241.914062 440.859375 C 238.347656 447.546875 244.144531 452.007812 244.144531 452.007812 L 265.992188 467.164062 C 265.992188 467.164062 265.992188 471.175781 260.191406 472.511719 C 254.394531 473.847656 251.722656 480.089844 251.722656 480.089844 L 248.601562 489.894531 C 248.601562 489.894531 249.042969 494.800781 253.507812 495.246094 C 253.507812 495.246094 247.265625 509.511719 264.207031 505.050781 C 264.207031 505.050781 275.800781 512.183594 281.148438 517.976562 C 286.5 523.769531 293.1875 523.324219 298.542969 521.988281 C 298.542969 521.988281 353.316406 585.246094 381.855469 596.835938 C 410.390625 608.425781 441.230469 595.152344 453.15625 543.433594 " fill-opacity="1" fill-rule="nonzero"/><path stroke-linecap="butt" transform="matrix(0.681538, 0, 0, 0.681408, -25.869234, -5.945148)" fill="none" stroke-linejoin="miter" d="M 457.131837 701.837694 C 457.131837 701.837694 453.211478 689.357798 431.471823 710.751906 C 431.471823 710.751906 410.437144 724.647757 422.559309 725.719755 C 434.681474 726.791754 440.73969 721.087805 440.73969 721.087805 C 440.73969 721.087805 433.248594 754.600654 471.042236 750.318393 " stroke="#603913" stroke-width="1" stroke-opacity="1" stroke-miterlimit="10"/><path stroke-linecap="butt" transform="matrix(0.681538, 0, 0, 0.681408, -25.869234, -5.945148)" fill="none" stroke-linejoin="miter" d="M 408.752078 711.99015 C 408.752078 711.99015 411.789783 727.170106 428.651915 725.817209 C 428.651915 725.817209 438.09746 733.91739 426.290529 737.970347 C 414.477866 742.017571 409.760825 735.270286 409.760825 735.270286 " stroke="#603913" stroke-width="1" stroke-opacity="1" stroke-miterlimit="10"/><path stroke-linecap="butt" transform="matrix(0.681538, 0, 0, 0.681408, -25.869234, -5.945148)" fill="none" stroke-linejoin="miter" d="M 403.020558 730.20839 C 403.020558 730.20839 434.727326 747.417691 425.287513 750.112018 " stroke="#603913" stroke-width="1" stroke-opacity="1" stroke-miterlimit="10"/><path fill="#231f20" d="M 479.054688 274.992188 C 474.1875 300.355469 475.429688 312.90625 475.429688 312.90625 C 479.613281 287.503906 486.933594 285.410156 486.933594 285.410156 C 517.097656 268.226562 565.316406 291.835938 565.316406 291.835938 C 580.160156 312.96875 578.097656 349.171875 578.097656 349.171875 C 587.671875 337.234375 596.84375 339.773438 596.84375 339.773438 C 614.011719 289.460938 583.964844 276.089844 583.964844 276.089844 C 583.964844 276.089844 562.652344 249.242188 524.410156 251.019531 C 486.171875 252.804688 479.046875 275 479.046875 275 Z M 479.054688 274.992188 " fill-opacity="1" fill-rule="nonzero"/><path stroke-linecap="butt" transform="matrix(0.681538, 0, 0, 0.681408, -25.869234, -5.945148)" fill="none" stroke-linejoin="miter" d="M 769.44809 505.690647 C 769.44809 505.690647 762.06016 509.049958 763.361215 517.780726 C 765.029088 529.051041 778.790467 528.810271 778.790467 528.810271 " stroke="#231f20" stroke-width="1.2" stroke-opacity="1" stroke-miterlimit="10"/><path stroke-linecap="butt" transform="matrix(0.681538, 0, 0, 0.681408, -25.869234, -5.945148)" fill="none" stroke-linejoin="miter" d="M 711.30182 753.67197 L 704.658988 797.939199 " stroke="#be1e2d" stroke-width="1" stroke-opacity="1" stroke-miterlimit="10"/><path fill="#f7daa6" d="M 675.664062 470.15625 L 811.167969 566.5 C 811.167969 566.5 836.660156 618.292969 807.835938 654.878906 C 807.835938 654.878906 723.699219 646.375 637.410156 507.660156 Z M 675.664062 470.15625 " fill-opacity="1" fill-rule="nonzero"/><path fill="#ba9777" d="M 808.578125 550.070312 L 807.351562 565.988281 C 788.984375 545.171875 676.320312 475.996094 676.320312 475.996094 L 662.246094 464.839844 L 627.992188 420.308594 L 592.585938 407.160156 C 592.585938 407.160156 568.453125 411.976562 576.042969 425.34375 C 576.042969 425.34375 569.496094 430.558594 578.820312 438.230469 C 578.820312 438.230469 573.945312 444.996094 585.585938 449.011719 C 585.585938 449.011719 579.710938 469.023438 593.117188 463.722656 C 606.523438 458.421875 602.957031 468.867188 602.957031 468.867188 C 602.957031 468.867188 615.511719 488.238281 636.449219 485.828125 C 636.449219 485.828125 649.71875 493.574219 650 502.316406 C 650 502.316406 700.820312 618.019531 786.542969 649.242188 C 786.542969 649.242188 837.980469 658.429688 864.921875 631.492188 " fill-opacity="1" fill-rule="nonzero"/><path stroke-linecap="butt" transform="matrix(0.681538, 0, 0, 0.681408, -25.869234, -5.945148)" fill="none" stroke-linejoin="miter" d="M 883.167176 632.937432 L 894.882403 619.511655 C 894.882403 619.511655 914.839556 613.670124 938.95206 628.529054 " stroke="#603913" stroke-width="0.8" stroke-opacity="1" stroke-miterlimit="10"/><path stroke-linecap="butt" transform="matrix(0.681538, 0, 0, 0.681408, -25.869234, -5.945148)" fill="none" stroke-linejoin="miter" d="M 887.391307 652.2678 L 899.100802 638.842023 C 899.100802 638.842023 914.747851 636.92733 939.697158 648.392554 " stroke="#603913" stroke-width="0.8" stroke-opacity="1" stroke-miterlimit="10"/><path stroke-linecap="butt" transform="matrix(0.681538, 0, 0, 0.681408, -25.869234, -5.945148)" fill="none" stroke-linejoin="miter" d="M 926.560514 674.097585 C 926.560514 674.097585 906.637751 654.738555 897.16928 667.671328 " stroke="#603913" stroke-width="0.8" stroke-opacity="1" stroke-miterlimit="10"/><g clip-path="url(#568d44f825)"><path fill="#f7daa6" d="M 903.660156 582.921875 C 903.660156 582.921875 896.859375 631.050781 877.503906 646.742188 C 877.503906 646.742188 867.042969 641.507812 864.425781 634.707031 " fill-opacity="1" fill-rule="nonzero"/></g><g clip-path="url(#fe3ae0bc5c)"><path stroke-linecap="butt" transform="matrix(0.681538, 0, 0, 0.681408, -25.869234, -5.945148)" fill="none" stroke-linejoin="miter" d="M 1363.869753 864.190994 C 1363.869753 864.190994 1353.891177 934.822505 1325.491495 957.850406 C 1325.491495 957.850406 1310.142485 950.168707 1306.302367 940.188229 " stroke="#754c29" stroke-width="1" stroke-opacity="1" stroke-miterlimit="10"/></g><path stroke-linecap="butt" transform="matrix(0.681538, 0, 0, 0.681408, -25.869234, -5.945148)" fill-opacity="1" fill="#a97c50" fill-rule="nonzero" stroke-linejoin="miter" d="M 1109.17247 633.768661 C 1109.17247 634.588425 1109.092229 635.402455 1108.931746 636.205021 C 1108.771264 637.013319 1108.53054 637.792955 1108.221038 638.549659 C 1107.905804 639.306364 1107.521793 640.028673 1107.063271 640.710854 C 1106.610481 641.393035 1106.088913 642.023622 1105.510029 642.602616 C 1104.931146 643.18161 1104.300678 643.697545 1103.618627 644.156154 C 1102.936577 644.60903 1102.220137 644.993115 1101.457844 645.308409 C 1100.701284 645.623702 1099.921797 645.858739 1099.119384 646.019253 C 1098.31124 646.179766 1097.497364 646.260022 1096.677757 646.260022 C 1095.858149 646.260022 1095.050005 646.179766 1094.241861 646.019253 C 1093.439448 645.858739 1092.659961 645.623702 1091.897669 645.308409 C 1091.141109 644.993115 1090.424669 644.60903 1089.742618 644.156154 C 1089.060567 643.697545 1088.4301 643.18161 1087.845485 642.602616 C 1087.266601 642.023622 1086.750764 641.393035 1086.292243 640.710854 C 1085.839453 640.028673 1085.455441 639.306364 1085.140207 638.549659 C 1084.824974 637.792955 1084.589981 637.013319 1084.429499 636.205021 C 1084.269016 635.402455 1084.188775 634.588425 1084.188775 633.768661 C 1084.188775 632.948898 1084.269016 632.134867 1084.429499 631.332301 C 1084.589981 630.529735 1084.824974 629.7501 1085.140207 628.987663 C 1085.455441 628.230958 1085.839453 627.514382 1086.292243 626.832201 C 1086.750764 626.15002 1087.266601 625.519433 1087.845485 624.940439 C 1088.4301 624.355712 1089.060567 623.839777 1089.742618 623.386901 C 1090.424669 622.928292 1091.141109 622.544207 1091.897669 622.228913 C 1092.659961 621.919352 1093.439448 621.678583 1094.241861 621.51807 C 1095.050005 621.357556 1095.858149 621.2773 1096.677757 621.2773 C 1097.497364 621.2773 1098.31124 621.357556 1099.119384 621.51807 C 1099.921797 621.678583 1100.701284 621.919352 1101.457844 622.228913 C 1102.220137 622.544207 1102.936577 622.928292 1103.618627 623.386901 C 1104.300678 623.839777 1104.931146 624.355712 1105.510029 624.940439 C 1106.088913 625.519433 1106.610481 626.15002 1107.063271 626.832201 C 1107.521793 627.514382 1107.905804 628.230958 1108.221038 628.987663 C 1108.53054 629.7501 1108.771264 630.529735 1108.931746 631.332301 C 1109.092229 632.134867 1109.17247 632.948898 1109.17247 633.768661 Z M 1109.17247 633.768661 " stroke="#a97c50" stroke-width="0.5" stroke-opacity="1" stroke-miterlimit="10"/><path stroke-linecap="butt" transform="matrix(0.681538, 0, 0, 0.681408, -25.869234, -5.945148)" fill-opacity="1" fill="#a97c50" fill-rule="nonzero" stroke-linejoin="miter" d="M 1105.802337 727.210234 C 1105.802337 728.029998 1105.722095 728.844029 1105.561613 729.646594 C 1105.40113 730.44916 1105.160406 731.234528 1104.850904 731.991232 C 1104.535671 732.747937 1104.151659 733.464514 1103.693137 734.146695 C 1103.240347 734.828875 1102.72451 735.459463 1102.139895 736.044189 C 1101.561012 736.623183 1100.930545 737.139118 1100.248494 737.591994 C 1099.566443 738.050603 1098.850003 738.434688 1098.087711 738.749982 C 1097.33115 739.065275 1096.551663 739.300313 1095.749251 739.460826 C 1094.941106 739.621339 1094.132962 739.701595 1093.307623 739.701595 C 1092.488016 739.701595 1091.679871 739.621339 1090.871727 739.460826 C 1090.069314 739.300313 1089.289828 739.065275 1088.527536 738.749982 C 1087.770975 738.434688 1087.054535 738.050603 1086.372484 737.597727 C 1085.690433 737.139118 1085.059966 736.623183 1084.475351 736.044189 C 1083.896467 735.459463 1083.380631 734.828875 1082.922109 734.146695 C 1082.469319 733.464514 1082.085307 732.747937 1081.770074 731.991232 C 1081.45484 731.234528 1081.219848 730.44916 1081.059365 729.646594 C 1080.898882 728.844029 1080.818641 728.029998 1080.818641 727.210234 C 1080.818641 726.390471 1080.898882 725.57644 1081.059365 724.773874 C 1081.219848 723.971308 1081.45484 723.185941 1081.770074 722.429236 C 1082.085307 721.672531 1082.469319 720.950222 1082.922109 720.268041 C 1083.380631 719.591593 1083.896467 718.955273 1084.481082 718.376279 C 1085.059966 717.797286 1085.690433 717.28135 1086.372484 716.822742 C 1087.054535 716.369865 1087.770975 715.98578 1088.527536 715.670487 C 1089.289828 715.355193 1090.069314 715.120156 1090.871727 714.959643 C 1091.679871 714.79913 1092.488016 714.718873 1093.307623 714.718873 C 1094.132962 714.718873 1094.941106 714.79913 1095.749251 714.959643 C 1096.551663 715.120156 1097.33115 715.355193 1098.087711 715.670487 C 1098.850003 715.98578 1099.566443 716.369865 1100.248494 716.822742 C 1100.930545 717.28135 1101.561012 717.797286 1102.139895 718.376279 C 1102.72451 718.955273 1103.240347 719.591593 1103.693137 720.268041 C 1104.151659 720.950222 1104.535671 721.672531 1104.850904 722.429236 C 1105.160406 723.185941 1105.40113 723.971308 1105.561613 724.773874 C 1105.722095 725.57644 1105.802337 726.390471 1105.802337 727.210234 Z M 1105.802337 727.210234 " stroke="#a97c50" stroke-width="0.5" stroke-opacity="1" stroke-miterlimit="10"/></svg>