<?xml version="1.0" encoding="UTF-8"?>
<svg id="Layer_1" data-name="Layer 1" xmlns="http://www.w3.org/2000/svg" xmlns:xlink="http://www.w3.org/1999/xlink" viewBox="0 0 1334.99 1000.39">
  <defs>
    <style>
      .cls-1, .cls-2, .cls-3, .cls-4, .cls-5, .cls-6, .cls-7, .cls-8, .cls-9, .cls-10, .cls-11 {
        fill: none;
      }

      .cls-2, .cls-3, .cls-4, .cls-5, .cls-6, .cls-7, .cls-8, .cls-9, .cls-12, .cls-10, .cls-11 {
        stroke-miterlimit: 10;
      }

      .cls-2, .cls-3, .cls-4, .cls-5, .cls-12 {
        stroke-width: 1.5px;
      }

      .cls-2, .cls-7 {
        stroke: #231f20;
      }

      .cls-3 {
        stroke: #006838;
      }

      .cls-4, .cls-12 {
        stroke: #603913;
      }

      .cls-5, .cls-6, .cls-8 {
        stroke: #be1e2d;
      }

      .cls-13 {
        clip-path: url(#clippath);
      }

      .cls-14 {
        fill: #00a79d;
      }

      .cls-15 {
        fill: #f05380;
      }

      .cls-16 {
        fill: #fff;
      }

      .cls-17 {
        fill: #efcccd;
      }

      .cls-18 {
        fill: #803435;
      }

      .cls-19 {
        fill: #00a651;
      }

      .cls-20 {
        fill: #8c3333;
      }

      .cls-21 {
        fill: #b6302e;
      }

      .cls-22 {
        fill: #8b5e3c;
      }

      .cls-23 {
        fill: #8dc63f;
      }

      .cls-24 {
        fill: #ae8578;
      }

      .cls-25 {
        fill: #a97c50;
      }

      .cls-26, .cls-12 {
        fill: #be9e7d;
      }

      .cls-27 {
        fill: #bf6b6b;
      }

      .cls-28, .cls-29 {
        fill: #dea962;
      }

      .cls-30 {
        fill: #dc3b28;
      }

      .cls-31 {
        fill: #231f20;
      }

      .cls-32 {
        fill: #07935b;
      }

      .cls-33 {
        fill: #3a4851;
      }

      .cls-34 {
        fill: #3c2415;
      }

      .cls-35 {
        fill: #58595b;
      }

      .cls-36 {
        fill: #26130f;
      }

      .cls-37 {
        clip-path: url(#clippath-1);
      }

      .cls-6 {
        stroke-width: 2px;
      }

      .cls-38 {
        opacity: .5;
      }

      .cls-9 {
        stroke: #754c29;
        stroke-width: 8px;
      }

      .cls-29, .cls-39 {
        opacity: .8;
      }

      .cls-39 {
        fill: #edb36e;
      }

      .cls-40 {
        fill: #27aae1;
        opacity: .4;
      }

      .cls-10 {
        stroke: #fff;
      }

      .cls-10, .cls-11 {
        stroke-width: .5px;
      }

      .cls-11 {
        stroke: #fff200;
      }
    </style>
    <clipPath id="clippath">
      <rect class="cls-1" x="70.22" y="293.37" width="612.48" height="133.03"/>
    </clipPath>
    <clipPath id="clippath-1">
      <path class="cls-1" d="M973.37,376.51s-2.93,5.49,23.04,44.81l3.29,14.45-10.42,18.84-13.72-6.4-6.04-43.16-.37-27.25,4.21-1.28Z"/>
    </clipPath>
  </defs>
  <g>
    <g class="cls-38">
      <g class="cls-13">
        <path class="cls-19" d="M134.34,506.52s49.61,41.49,70.63-24.55c21.02-66.04,45.16-51.07,45.16-51.07,0,0,21.56-28.05-14.59-55.82-36.15-27.77-71.64,24.37-71.64,24.37,0,0-18.2,44.61-39.95,7.46-21.75-37.15-64.78,3.66-37.58,28.49s40.67,43.21,47.96,71.12Z"/>
        <path class="cls-23" d="M537.08,489.12s33.19,29.81,33.91-21.42c.72-51.23-46.17-45.64-49.78-63.34s-20.92-46.57-67.09-46.57-7.94,80.1-42.57,90.35c-34.63,10.25-63.49,81.03-17.31,74.51,46.17-6.52,93.79,23.29,95.95,30.74s-2.16,6.52,2.16,7.45c4.33,.93,82.97,14.9,44.73-71.72Z"/>
        <path class="cls-19" d="M515.51,448.93s-19-110.84,37.52-115.96c56.51-5.12,39.2,63.8,63.73,56.35,24.53-7.45,41.12-95,65.65-80.1l1.42,136.88-168.31,2.83Z"/>
        <path class="cls-14" d="M248.71,469.11s-2.89-108.04,73.59-81.03c76.47,27.01,96.67,40.05,111.1,22.35,14.43-17.7,36.7,26.08,22.68,58.68H248.71Z"/>
      </g>
    </g>
    <rect class="cls-29" x="793.1" y="119.36" width="119.07" height="300.56" transform="translate(1122.28 -583) rotate(90)"/>
    <rect class="cls-29" x="622.38" y="-621.46" width="90.15" height="1333.07" transform="translate(712.53 -622.38) rotate(90)"/>
    <rect class="cls-39" x="793.1" y="-.33" width="119.07" height="300.56" transform="translate(1002.59 -702.69) rotate(90)"/>
    <rect class="cls-39" x="793.1" y="238.67" width="119.07" height="300.56" transform="translate(1241.58 -463.69) rotate(90)"/>
    <rect class="cls-29" x="-27.78" y="237.88" width="119.07" height="63.51" transform="translate(301.39 237.88) rotate(90)"/>
    <rect class="cls-39" x="-27.78" y="118.2" width="119.07" height="63.51" transform="translate(181.71 118.2) rotate(90)"/>
    <rect class="cls-39" x="-27.78" y="357.19" width="119.07" height="63.51" transform="translate(420.7 357.19) rotate(90)"/>
    <rect class="cls-40" x="81.72" y="112.05" width="601" height="314.33"/>
    <rect class="cls-28" x=".36" y="803.87" width="1333.75" height="195.96"/>
    <rect class="cls-22" x="682.81" y="90.64" width="21.4" height="357.79"/>
    <rect class="cls-22" x="60.38" y="90.64" width="21.4" height="357.79"/>
    <rect class="cls-22" x="371.49" y="-199.48" width="21.4" height="601.64" transform="translate(280.85 483.53) rotate(-90)"/>
    <rect class="cls-22" x="371.49" y="136.25" width="21.4" height="601.64" transform="translate(-54.88 819.27) rotate(-90)"/>
    <rect class="cls-39" x="442.53" y="126.56" width="119.07" height="1002" transform="translate(1129.63 125.49) rotate(90)"/>
    <rect class="cls-29" x="442.53" y="6.88" width="119.07" height="1002" transform="translate(1009.94 5.81) rotate(90)"/>
    <rect class="cls-29" x="442.53" y="245.87" width="119.07" height="1002" transform="translate(1248.94 244.8) rotate(90)"/>
    <rect class="cls-25" x="1007.66" y="49.83" width="327.33" height="754.46"/>
    <polyline class="cls-9" points="1334.79 49.83 1007.66 49.83 1007.66 803.01"/>
  </g>
  <g>
    <path class="cls-26" d="M736.8,499.15l-98.88,160.01s-36.64,53.36-100.65,15.53c-43.17-25.51-42.42-77.64-42.42-77.64l88.3-59.77s5.61,5.13,8.48,14.38c0,0,51.66-48.56,102.09-82.19"/>
    <path class="cls-33" d="M509.9,923.25s-9.3,56.55-11.36,77.14H142.58s-1.7-90.92-1.7-90.92l369.02,13.78Z"/>
    <path class="cls-26" d="M283.48,245.74s3.55,39.26-13.85,72.61c0,0-6.21,117.56,86.58,126.99,0,0,121.59-72.23,37.44-125.58l-110.18-74.02Z"/>
    <path class="cls-30" d="M256.83,327.19s-77.53,30.36-102.19,68.35c0,0-15.03,13.14-25.69,61.13,0,0-23.99,94.74-28.81,143.57,0,0,44.35,42.89,122.07,38.76l-81.33,270.45s29.9,39.85,208.93,42.28c0,0,108.11,4.12,170.92-32.95,0,0-10.55-165.41-13.28-330.43,0,0,37.58-6.51,75.7-51.07l-44.7-126.76s-.68-5.69-48.34-39.91c0,0-37.51-19.88-64.34-31.29l-51.62,34.16-16.77,47.67-27.43-45.14s5.52-2.27-73.11-48.82Z"/>
    <path class="cls-26" d="M450.9,95.09s19.27,27.33,14.53,93.23c0,0-2.7,15.83-.98,24.37,1.72,8.54,1.78,22.75-1.42,31.89-3.2,9.14-26.77,70.38-26.77,70.38,0,0-7.7,17.76-38.81,18.16-31.11,.4-57.54-10.92-68.77-24.01-11.23-13.09-39.3-34.28-42.11-54.43,0,0-18.46,4.25-26.04-17.96,0,0-20.19-34.49-.12-43.53,20.07-9.04,31.77,18.74,31.77,18.74,0,0-24.08-81.8,21.76-113.76,0,0,56.51-47.32,136.97-3.08Z"/>
    <path class="cls-31" d="M387.78,157.99s-32.19-4.49-51.91,13.88c0,0,12.12-22.94,51.26-21.61,0,0,7.08,3.75,.65,7.74Z"/>
    <path class="cls-31" d="M464.73,171.5c-17.41-13.46-34.83-14.27-34.83-14.27-5.49-5.21,2.21-7.45,2.21-7.45,12.03,2.07,27.56,9.39,33.78,13.12,0,0-.34,9.23-1.16,8.6Z"/>
    <path class="cls-2" d="M259.26,207.96s8.2-10.97,15.96,1.16c7.76,12.13,7.99,16.04,7.99,16.04,0,0-11.01-19.19-16.67-4.64"/>
    <path class="cls-36" d="M404.23,330.74s-32.31,3.94-54.41-6.68c0,0-13.54-4.29-31.36-24.94,0,0,17.21,30.4,50.58,34.81,0,0,14.93,3.55,30.18-1.57,0,0,4.24,1.63,5-1.61Z"/>
    <path class="cls-6" d="M229.94,637.26s72.27-204.44-31.68-246.82"/>
    <line class="cls-6" x1="505.16" y1="592.85" x2="509.61" y2="452.43"/>
    <path class="cls-24" d="M434.65,277.64s-11.64-17.42-29.15-12.58c0,0-12.99-9.09-39.03,7.53,0,0,12.1,17.05,36.74,16.82,24.64-.23,31.44-11.77,31.44-11.77Z"/>
    <path class="cls-18" d="M431.04,278.45s-8.53-9.53-26.37-10.26c-17.84-.73-34.94,5.45-34.94,5.45,0,0,26.04,4.16,33.1,8.74,0,0,13.3-3.82,28.2-3.93Z"/>
    <path class="cls-16" d="M423.97,273.39s-12.2-10.17-43.07-2.77c0,0,26.11-1.16,43.07,2.77Z"/>
    <path class="cls-36" d="M396.1,146.67s6.6,8.67,.17,16.02c0,0,11.47-7-.17-16.02Z"/>
    <path class="cls-36" d="M420.92,145.64s-4.69,9.21,1.87,15.35c0,0-10.94-5.12-1.87-15.35Z"/>
    <path class="cls-12" d="M591.62,551.67s-35.03,13.07-35.5,40.74"/>
    <path class="cls-26" d="M105.92,604.37s-9.67,97.46-9.67,143.07c0,45.6,46.33,252.95,46.33,252.95l82.81-.48s-7.78-156.41-23.27-253.64c0,0,17.51-68.05,20.09-107.26,0,0-63.51,3.3-116.29-34.64Z"/>
    <path class="cls-26" d="M693.7,469.48c4.3-3.07,8.54-6.01,12.65-8.75,0,0-4.52-26.48,35.17-50.52l20.6-25.05s14.98-10.77,14.05,7.26c0,0-5.91,11.24-11.71,18.96l22.53,4.79s-1.94-2.67,10.59-3.99c10.19-1.07,8.3,2.5,8.3,2.5,0,0,5.2-14.4,13.42-27.6,5.35-8.59,5.58-17.46,16.88-16.64,0,0,10.46,1.88,3.27,17.65l-10.99,38.5-45.36,39.01-37.41,18.1-8.89,15.45"/>
    <path class="cls-12" d="M754.87,410.78s5.55-.33,9.63,.72"/>
    <path class="cls-12" d="M748.32,461.14s9.8-23.75,18.42-28.23c0,0,3.88-1.55,5.85-10.57,1.88-8.58-.49-17.31,6.75-17.85,10.48-.78,7.65,11.68,7.65,11.68l-5,27.71"/>
    <path class="cls-12" d="M706.35,460.73s6.65,8.34,19.23,10.58"/>
    <path class="cls-12" d="M785.53,424.11l2.62-11.4-4.71-13.28s-1.99-6.83,4.42-10.12c7.14-3.67,11.06,5,11.06,5l4.87,18.26-3.86,24.13"/>
    <path class="cls-12" d="M803.78,412.56l2.13-6.02-4.71-13.28s-1.99-6.83,4.42-10.12c7.14-3.67,11.06,5,11.06,5l4.87,18.26-3.86,24.13"/>
    <g>
      <path class="cls-16" d="M354.92,186.35s0-.72,.55-1.31c1.8-1.95,5.92-5.57,12.31-5.46,7.15,.13,10.97,6.91,12.27,9.33,.22,.42,.2,.78,.2,.78,0,0,.02,.4-.23,.67-1.16,1.3-5.03,4.93-11.81,4.92-4.03,0-9.65-2.28-13.06-7.81-.24-.38-.25-.87-.23-1.13Z"/>
      <circle class="cls-36" cx="369.65" cy="187.87" r="7.39"/>
      <circle class="cls-16" cx="365.01" cy="186.29" r="2.03"/>
      <path class="cls-2" d="M380.49,188.93s-8.4-17.22-25.29-3.95"/>
    </g>
    <g>
      <path class="cls-16" d="M437.25,193.83s-.1-.67,.32-1.29c1.39-2.07,4.71-6.03,10.66-6.84,6.67-.91,11.19,4.86,12.74,6.92,.27,.36,.29,.7,.29,.7,0,0,.07,.37-.12,.66-.9,1.38-3.98,5.31-10.28,6.26-3.75,.57-9.3-.74-13.26-5.39-.28-.32-.35-.77-.38-1.02Z"/>
      <circle class="cls-36" cx="451.17" cy="193.13" r="6.93"/>
      <circle class="cls-16" cx="446.42" cy="192.46" r="1.94"/>
      <path class="cls-2" d="M461.13,192.83s-9.89-15.83-23.72,0"/>
    </g>
    <polygon class="cls-20" points="258.94 315.54 272.55 313.39 270.02 329.39 258.94 315.54"/>
    <path class="cls-21" d="M247.44,330.76s60.87,37.47,92.69,63.67l-4.21-19.65s-58.53-34.65-76.98-59.24l-11.5,15.22Z"/>
    <path class="cls-21" d="M404.23,330.74s26.19-.86,25.2,16.1l-57.95,41.98,2.66-15.34s25.25-12.63,41.83-33.06c0,0-11.11-1.5-11.74-9.68Z"/>
    <path class="cls-8" d="M356.63,421.35s17.75,169.81,14.95,530.28"/>
    <ellipse class="cls-17" cx="370.67" cy="470.83" rx="4.22" ry="4.57"/>
    <ellipse class="cls-17" cx="375.13" cy="550.59" rx="4.22" ry="4.57"/>
    <ellipse class="cls-17" cx="378.27" cy="636.57" rx="4.22" ry="4.57"/>
    <ellipse class="cls-17" cx="380.08" cy="723.98" rx="4.22" ry="4.57"/>
    <ellipse class="cls-17" cx="381.07" cy="808.2" rx="4.22" ry="4.57"/>
    <ellipse class="cls-17" cx="379.59" cy="902.71" rx="4.22" ry="4.57"/>
    <g>
      <polygon class="cls-17" points="296.55 948.84 303.95 940.06 287.15 924.43 271.52 941.23 276.62 946.15 296.55 948.84"/>
      <polygon class="cls-17" points="324.71 951.52 336.27 938.89 319.47 923.26 303.84 940.06 314.25 950.53 324.71 951.52"/>
      <rect class="cls-17" x="275.09" y="896.61" width="22.95" height="22.95" transform="translate(-573.47 499.34) rotate(-47.07)"/>
      <rect class="cls-35" x="291.78" y="912.44" width="22.95" height="22.95" transform="translate(-579.74 516.6) rotate(-47.07)"/>
      <rect class="cls-17" x="307.41" y="895.45" width="22.95" height="22.95" transform="translate(-562.31 522.63) rotate(-47.07)"/>
      <rect class="cls-17" x="274.02" y="864.13" width="22.95" height="22.95" transform="translate(-550.03 488.19) rotate(-47.07)"/>
      <rect class="cls-35" x="290.7" y="879.95" width="22.95" height="22.95" transform="translate(-556.3 505.46) rotate(-47.07)"/>
      <rect class="cls-17" x="306.34" y="862.96" width="22.95" height="22.95" transform="translate(-538.87 511.48) rotate(-47.07)"/>
      <rect class="cls-17" x="272.85" y="831.84" width="22.95" height="22.95" transform="translate(-526.77 477.05) rotate(-47.07)"/>
      <rect class="cls-35" x="289.54" y="847.67" width="22.95" height="22.95" transform="translate(-533.03 494.31) rotate(-47.07)"/>
      <rect class="cls-17" x="305.17" y="830.68" width="22.95" height="22.95" transform="translate(-515.61 500.34) rotate(-47.07)"/>
      <rect class="cls-17" x="271.69" y="799.55" width="22.95" height="22.95" transform="translate(-503.49 465.9) rotate(-47.07)"/>
      <rect class="cls-35" x="288.38" y="815.37" width="22.95" height="22.95" transform="translate(-509.76 483.16) rotate(-47.07)"/>
      <rect class="cls-17" x="304.01" y="798.38" width="22.95" height="22.95" transform="translate(-492.34 489.19) rotate(-47.07)"/>
      <rect class="cls-17" x="270.52" y="767.26" width="22.95" height="22.95" transform="translate(-480.22 454.75) rotate(-47.07)"/>
      <rect class="cls-35" x="287.21" y="783.08" width="22.95" height="22.95" transform="translate(-486.49 472.01) rotate(-47.07)"/>
      <rect class="cls-17" x="302.84" y="766.09" width="22.95" height="22.95" transform="translate(-469.07 478.04) rotate(-47.07)"/>
      <rect class="cls-17" x="269.36" y="735.08" width="22.95" height="22.95" transform="translate(-457.04 443.64) rotate(-47.07)"/>
      <rect class="cls-35" x="286.05" y="750.9" width="22.95" height="22.95" transform="translate(-463.3 460.9) rotate(-47.07)"/>
      <rect class="cls-17" x="301.68" y="733.91" width="22.95" height="22.95" transform="translate(-445.88 466.93) rotate(-47.07)"/>
      <rect class="cls-17" x="268.2" y="702.79" width="22.95" height="22.95" transform="translate(-433.77 432.49) rotate(-47.07)"/>
      <rect class="cls-35" x="284.89" y="718.61" width="22.95" height="22.95" transform="translate(-440.03 449.76) rotate(-47.07)"/>
      <rect class="cls-17" x="300.52" y="701.62" width="22.95" height="22.95" transform="translate(-422.61 455.78) rotate(-47.07)"/>
      <rect class="cls-17" x="267.04" y="670.61" width="22.95" height="22.95" transform="translate(-410.58 421.38) rotate(-47.07)"/>
      <rect class="cls-35" x="283.73" y="686.44" width="22.95" height="22.95" transform="translate(-416.84 438.65) rotate(-47.07)"/>
      <rect class="cls-17" x="299.36" y="669.45" width="22.95" height="22.95" transform="translate(-399.42 444.67) rotate(-47.07)"/>
      <rect class="cls-17" x="265.87" y="638.32" width="22.95" height="22.95" transform="translate(-387.31 410.24) rotate(-47.07)"/>
      <rect class="cls-35" x="282.56" y="654.14" width="22.95" height="22.95" transform="translate(-393.57 427.5) rotate(-47.07)"/>
      <rect class="cls-17" x="298.19" y="637.15" width="22.95" height="22.95" transform="translate(-376.15 433.53) rotate(-47.07)"/>
      <rect class="cls-17" x="264.71" y="606.14" width="22.95" height="22.95" transform="translate(-364.12 399.13) rotate(-47.07)"/>
      <rect class="cls-35" x="281.4" y="621.97" width="22.95" height="22.95" transform="translate(-370.38 416.39) rotate(-47.07)"/>
      <rect class="cls-17" x="297.03" y="604.98" width="22.95" height="22.95" transform="translate(-352.96 422.42) rotate(-47.07)"/>
      <rect class="cls-17" x="263.43" y="573.28" width="22.95" height="22.95" transform="translate(-340.47 387.71) rotate(-47.07)"/>
      <rect class="cls-35" x="280.11" y="589.11" width="22.95" height="22.95" transform="translate(-346.74 404.97) rotate(-47.07)"/>
      <rect class="cls-17" x="295.75" y="572.12" width="22.95" height="22.95" transform="translate(-329.31 411) rotate(-47.07)"/>
      <rect class="cls-17" x="262.36" y="540.8" width="22.95" height="22.95" transform="translate(-317.03 376.57) rotate(-47.07)"/>
      <rect class="cls-35" x="279.04" y="556.63" width="22.95" height="22.95" transform="translate(-323.3 393.83) rotate(-47.07)"/>
      <rect class="cls-17" x="294.68" y="539.64" width="22.95" height="22.95" transform="translate(-305.87 399.86) rotate(-47.07)"/>
      <rect class="cls-17" x="261.19" y="508.51" width="22.95" height="22.95" transform="translate(-293.76 365.42) rotate(-47.07)"/>
      <rect class="cls-35" x="277.88" y="524.34" width="22.95" height="22.95" transform="translate(-300.03 382.68) rotate(-47.07)"/>
      <rect class="cls-17" x="293.51" y="507.35" width="22.95" height="22.95" transform="translate(-282.61 388.71) rotate(-47.07)"/>
      <rect class="cls-17" x="260.03" y="476.22" width="22.95" height="22.95" transform="translate(-270.49 354.27) rotate(-47.07)"/>
      <rect class="cls-35" x="276.71" y="492.05" width="22.95" height="22.95" transform="translate(-276.76 371.53) rotate(-47.07)"/>
      <rect class="cls-17" x="292.35" y="475.06" width="22.95" height="22.95" transform="translate(-259.33 377.56) rotate(-47.07)"/>
      <rect class="cls-17" x="258.86" y="443.93" width="22.95" height="22.95" transform="translate(-247.22 343.12) rotate(-47.07)"/>
      <rect class="cls-35" x="275.55" y="459.75" width="22.95" height="22.95" transform="translate(-253.49 360.39) rotate(-47.07)"/>
      <rect class="cls-17" x="291.18" y="442.76" width="22.95" height="22.95" transform="translate(-236.06 366.41) rotate(-47.07)"/>
      <rect class="cls-17" x="257.7" y="411.75" width="22.95" height="22.95" transform="translate(-224.03 332.01) rotate(-47.07)"/>
      <rect class="cls-35" x="274.39" y="427.58" width="22.95" height="22.95" transform="translate(-230.3 349.28) rotate(-47.07)"/>
      <rect class="cls-17" x="290.02" y="410.59" width="22.95" height="22.95" transform="translate(-212.88 355.3) rotate(-47.07)"/>
      <rect class="cls-17" x="256.54" y="379.46" width="22.95" height="22.95" transform="translate(-200.76 320.87) rotate(-47.07)"/>
      <rect class="cls-35" x="273.22" y="395.29" width="22.95" height="22.95" transform="translate(-207.03 338.13) rotate(-47.07)"/>
      <rect class="cls-17" x="288.86" y="378.3" width="22.95" height="22.95" transform="translate(-189.61 344.16) rotate(-47.07)"/>
      <rect class="cls-17" x="255.44" y="347.28" width="22.95" height="22.95" transform="translate(-177.55 309.8) rotate(-47.07)"/>
      <rect class="cls-35" x="272.13" y="363.1" width="22.95" height="22.95" transform="translate(-183.82 327.07) rotate(-47.07)"/>
      <polyline class="cls-35" points="285.9 355.05 283.13 358.15 266.33 342.52 267.14 341.65"/>
      <polygon class="cls-17" points="299.82 373.8 283.02 358.17 285.9 355.05 304.33 369.07 299.82 373.8"/>
    </g>
    <g>
      <polyline class="cls-17" points="235 610.71 210.96 623.37 198.82 600.32 223.94 587.1 235.61 609.2"/>
      <polygon class="cls-35" points="241.03 591.53 235.61 609.2 224.11 587.29 245.29 576.1 241.03 591.53"/>
      <polyline class="cls-17" points="245.23 575.99 223.9 587.22 211.76 564.17 236.88 550.94 246.79 569.78"/>
      <rect class="cls-17" x="165.99" y="582.25" width="28.39" height="26.05" transform="translate(-256.58 152.49) rotate(-27.77)"/>
      <rect class="cls-35" x="191.27" y="569.22" width="28.39" height="26.05" transform="translate(-247.59 162.77) rotate(-27.77)"/>
      <rect class="cls-17" x="178.92" y="546.1" width="28.39" height="26.05" transform="translate(-238.24 154.35) rotate(-27.77)"/>
      <rect class="cls-17" x="128.9" y="572.47" width="28.39" height="26.05" transform="translate(-256.29 134.08) rotate(-27.77)"/>
      <rect class="cls-35" x="154.18" y="559.44" width="28.39" height="26.05" transform="translate(-247.31 144.36) rotate(-27.77)"/>
      <rect class="cls-17" x="141.83" y="536.32" width="28.39" height="26.05" transform="translate(-237.96 135.94) rotate(-27.77)"/>
      <polygon class="cls-17" points="124.62 580.62 100.04 593.82 104.97 561.55 112.48 557.57 124.62 580.62"/>
      <rect class="cls-35" x="117.09" y="549.65" width="28.39" height="26.05" transform="translate(-247.02 125.95) rotate(-27.77)"/>
      <polygon class="cls-17" points="137.56 544.47 112.44 557.69 107.22 548.1 111.14 528.94 125.42 521.42 137.56 544.47"/>
      <polyline class="cls-35" points="107.22 548.1 112.81 557.8 104.97 561.55"/>
    </g>
    <path class="cls-2" d="M417.25,198.36l15.3,25.13s8.22,19.18-4.5,22.46c-11.32,2.92-11.68,.44-11.68,.44"/>
    <path class="cls-34" d="M291.25,211.12l9.83-4.48c.42-25.5,2.82-80.16,20.84-102.98,0,0,76.04-36.6,124.62-5.2,0,0,16.45,12.57,19.9,78.98,0,0,9.97-46.13-4.25-85.82,0,0,12.91-8.94,14.68-13.09,0,0-16.97,2.86-25.36-5.89-4.91-5.13-72.76-61.25-150.15-5.97,0,0-75.26,14.25-46.05,127.91,0,0,24.31-6.39,35.94,16.53Z"/>
    <path class="cls-34" d="M359.83,271.76s-.97-19.27,15.23-23.18c19.9-4.79,41.12-5.28,55.83,3.29,14.71,8.57,22.47,17.56,10.38,17.47-12.09-.09-35.57-16.1-61.77-4.42,0,0-10.48,9.94-19.68,6.84Z"/>
  </g>
  <g>
    <path class="cls-26" d="M1129.04,362.47s-3.22,50.46,11.38,79.89c0,0,17.38,139.48-96.18,147.1,0,0-85.58-19.81-38.08-131.48,0,0,20.17-8.71,19.9-28.52-.28-20.98-2.69,.45-2.69,.45l105.68-67.44"/>
    <path class="cls-26" d="M1132.77,333.74s-1.93-106.02-96.45-115.74c0,0-80.25-.75-64.84,98.8,0,0,2.81,10.66,.06,18.72,0,0-9.91,12.23,1.2,43.45,11.11,31.22,29.64,49.71,29.64,49.71,0,0,11.03,12.9,34.6,13.72,0,0,18.6,2.71,39.99-10.35,0,0,51.84-25.84,49.83-57.24,0,0,22.96,16.04,34.2-20.79,0,0,10.23-51.11-28.21-20.28Z"/>
    <path class="cls-32" d="M1144.7,467.03s31.33,8.03,65.71,25.42c67.23,34,60.55,145.97,60.55,145.97,0,0-22.36,6.65-91.15,9.04l31.71,236.73s-6.9,40.91-136.95,34.74c0,0-153.01,15.95-173.28-47.22,0,0,10.69-73.54,18.67-142.69,0,0-18.46-33.06-14.16-82.48l-16.2-28.29-2.07-81.4s7.09-50.53,83.33-65.14c0,0,20.63-4.9,35.3-13.75,0,0-7.92,57.71-1.3,79.94,0,0,39.75,41.02,112.98-5.7,0,0,17.35-13.59,26.87-65.18Z"/>
    <path class="cls-36" d="M1050.09,295.98s33.59,3.16,43.17,18.62c0,0-3.66-19.8-40.94-26.01,0,0-7.87,2.02-2.23,7.39Z"/>
    <path class="cls-36" d="M969.65,302.3c.15-1.83,10.68-16.02,32.45-16.4,0,0,7.75,2.46,1.81,7.51,0,0-26.67-1.38-33.65,15.47,0,0-.98-2.06-.62-6.57Z"/>
    <path class="cls-7" d="M1009.41,343.26s-13.58,19.52,9.52,22.22"/>
    <path class="cls-2" d="M1156.6,346.66s-6.51-18.12-20.8,10.64c0,0,11.95-12.61,13.87-1.61"/>
    <path class="cls-36" d="M1020.11,439.27s16.46,8.28,45.63-1.18c0,0,14.46-5.26,32.79-19.53,0,0-22.84,25-56.41,26.91,0,0-10.56,.91-22.46-2.95,0,0,.98,.03,.46-3.26Z"/>
    <path class="cls-5" d="M1180.58,648.13s-10.26-49.31-10.26-75.98"/>
    <path class="cls-3" d="M905.79,646.55s-3.89-17.39,12.29-58.13c0,0,14.51-20.09,11.72-54.13"/>
    <path class="cls-36" d="M1038.53,282.55s-5.93,7.79-.15,14.38c0,0-10.3-6.29,.15-14.38Z"/>
    <path class="cls-36" d="M1016.23,281.62s4.21,8.27-1.68,13.78c0,0,9.82-4.59,1.68-13.78Z"/>
    <path class="cls-32" d="M901.29,871.72s-12.57,56.01-13.41,127.64l356.67,.78s-6.9-81.15-33.03-115.95c0,0-167.44,86.83-310.23-12.48Z"/>
    <path class="cls-27" d="M999.13,387.19s10.14-12.72,18.79-11.11c0,0,10.26-6.01,29.31,14.36,0,0-10.41,21.25-24.04,20.08s-23.95-12.95-24.07-23.33Z"/>
    <path class="cls-18" d="M1001.62,388.83s9.35-9.17,21.09-8.43c11.74,.73,19.8,9.53,19.8,9.53,0,0-12.84,6.78-13.75,9.9-.92,3.12-10.27,5.5-15.04-.55-4.77-6.05-12.1-10.45-12.1-10.45Z"/>
    <path class="cls-16" d="M1006.2,385.35s5.5-4.77,13.94-4.95c8.43-.18,16.87,5.13,16.87,5.13l-30.81-.18Z"/>
    <path class="cls-31" d="M1002.95,321.08c-20.42-13.24-29.62-.45-29.62-.45,0,0,6.09-3.13,12.52-2.86,0,0,9.72-.79,17.1,3.31"/>
    <path class="cls-31" d="M1072.29,320.18c-20.65-13.02-31.61,4.25-31.61,4.25,0,0,8.45-6.01,16.85-6.19,0,0,7.23-1.22,14.76,1.93"/>
    <path class="cls-15" d="M1211.55,883.7s-156.66,86.56-311.85,.56l3.87-26.7s100.75,72.49,303.67-2.96l4.3,29.1Z"/>
    <path class="cls-15" d="M1150.17,581.82s-100.11,55.18-215.25-9.4l-7.04,20s118.31,72.58,227.02,7.36l-4.73-17.96Z"/>
    <path class="cls-31" d="M954.49,476.01c-3.16-35.97,2.29-93.25,2.29-93.25-14.54-114.31,19.85-152.1,19.85-152.1,79.51-67.94,146.85-15.58,146.85-15.58,18.63,5.73,62.64,31.51,64.07,88.85,1.43,57.33,8.17,74.4,13.9,114.53,0,0,29.83,118.96-2.09,252.34-4.86,20.29,7.37,66.33,7.37,66.33,0,0-80.8,11.98-103.17-194.29-6.72-61.93,22.17-167.33,22.17-167.33,19.57,8.07,24.94-4.28,24.94-4.28,0,0,12.3-18.33,7.86-37.3-4.51-19.26-27.57,1.25-27.57,1.25-12.79-73.3-43.23-91.71-43.23-91.71-76.16,32.34-108.57,24.66-108.57,24.66,0,0-7.47,15.5-8.27,28.54-.8,13.04,1.77,24.4,1.77,24.4,3.73,8.8,.34,18.34,.34,18.34-8.43,18.56,1.14,40.15,1.14,40.15,21.18,55.4,48.06,60.76,48.06,60.76-.26,18.12-24.41,26.37-24.41,26.37"/>
    <polyline class="cls-10" points="1210.07 875.24 1192.6 868.12 1187.22 887.71 1167.06 877.02 1160.35 897.21 1142.2 883.55 1134.14 906.7 1116.67 887.71 1105.25 909.08 1091.14 892.46 1077.03 913.23 1064.26 894.24 1052.17 914.42 1039.4 896.61 1025.29 913.83 1014.54 895.42 995.73 910.86 984.98 891.27 969.53 905.52 961.46 885.93 943.32 897.21 937.28 879.4 921.82 885.33 916.45 871.68 905.03 878.21"/>
    <polyline class="cls-10" points="1209.97 859.96 1200.59 884.2 1180.37 871.44 1173.88 894.4 1155.11 879.09 1148.61 901.42 1129.84 885.47 1119.01 909.07 1103.85 890.57 1091.58 912.26 1077.14 893.76 1064.87 912.9 1050.43 895.68 1039.6 914.81 1028.05 895.68 1011.45 912.26 1000.62 892.49 984.02 907.79 974.63 888.66 957.31 902.05 949.37 882.28 931.32 894.4 926.27 874.63 913.27 884.2 907.5 865.7"/>
    <polyline class="cls-10" points="1111.56 603.73 1102.53 616.15 1090.68 605.43 1083.91 617.84 1072.06 608.81 1060.21 622.36 1051.18 609.38 1041.02 620.1 1033.69 608.25 1021.27 617.84 1012.81 605.43 999.83 615.58 991.93 602.04 980.08 609.38 973.31 595.84 958.64 601.48 953 587.94 938.89 594.14 936.07 580.6"/>
    <polyline class="cls-10" points="1113.81 612.76 1101.4 602.61 1093.5 617.84 1081.65 605.43 1073.19 621.23 1061.9 608.81 1050.05 621.79 1041.02 608.25 1032 619.53 1023.53 605.43 1011.68 617.84 1003.22 602.61 991.37 612.76 982.9 597.53 971.62 607.12 964.28 591.32 949.05 599.22 945.1 581.73 931.82 594.11"/>
    <g>
      <circle class="cls-11" cx="1142.72" cy="390.92" r="15.16"/>
      <line class="cls-11" x1="1142.72" y1="406.08" x2="1142.72" y2="455.11"/>
      <line class="cls-11" x1="1154.21" y1="400.88" x2="1154.21" y2="427.09"/>
      <line class="cls-11" x1="1150.29" y1="404.09" x2="1150.29" y2="438.14"/>
      <line class="cls-11" x1="1146.55" y1="405.52" x2="1146.55" y2="446.87"/>
      <line class="cls-11" x1="1135.11" y1="404.09" x2="1135.11" y2="438.14"/>
      <line class="cls-11" x1="1138.86" y1="405.52" x2="1138.86" y2="446.87"/>
      <line class="cls-11" x1="1131.07" y1="400.88" x2="1131.07" y2="427.09"/>
    </g>
    <g class="cls-37">
      <g>
        <circle class="cls-11" cx="986.1" cy="384.16" r="15.16"/>
        <line class="cls-11" x1="986.1" y1="399.32" x2="986.1" y2="448.35"/>
        <line class="cls-11" x1="993.67" y1="413.9" x2="993.67" y2="431.37"/>
        <line class="cls-11" x1="989.93" y1="398.76" x2="989.93" y2="440.11"/>
        <line class="cls-11" x1="978.49" y1="397.33" x2="978.49" y2="431.37"/>
        <line class="cls-11" x1="982.24" y1="398.76" x2="982.24" y2="440.11"/>
        <line class="cls-11" x1="974.45" y1="394.12" x2="974.45" y2="420.32"/>
      </g>
    </g>
    <path class="cls-26" d="M902.46,645.9s-74.88,24.91-91.36-1.7c-16.48-26.62-9.6-72.31,8.8-119.43l57.74-128.87,8.45-36.76,15.21-41.82,10.98-5.07,12.25-9.72s2.96-4.65,13.52,4.22l31.7-2.21,1.82,13.31-6.9,.73s8.45,9.72-8.45,9.72c0,0-.84,10.56-13.94,9.72l2.96,2.53s18.04-3.93,28.23-4.88c0,0-2.25,6.71-3.21,15.81l-12.35,1.74s-13.94,25.77-18.17,28.31-13.94,16.9-18.17,17.74l-34.14,138.42s1.46,81.96,15.02,108.21Z"/>
    <path class="cls-4" d="M938.05,306.75s15.86,10.29,26.62,11.83c0,0,8.73,10.35-8.45,9.72,0,0-.47,9.83-13.94,9.72,0,0-13.48-6.04-19.13-13.58l-9.97,8.35"/>
    <path class="cls-4" d="M912.28,312.24s4.18-7.7,13.78-.58,30.15,16.63,30.15,16.63"/>
    <path class="cls-4" d="M886.09,359.14l13.91-22.72s5.73-6.88,14.21-1.6,25.45,13.07,25.45,13.07c0,0,1.4,4.43-2.06,6.65s-5.96,2.29-13.3-.46-11.46-5.96-11.46-5.96c0,0,8.48,35.76-6.42,43.1"/>
    <path class="cls-4" d="M969.75,304.54s.49,6.78,1.82,13.31"/>
    <path class="cls-4" d="M974.41,335.66s-4.43,11.13-4.15,15.82"/>
    <path class="cls-4" d="M887.44,537.69s-.42,54.57-16.09,77.71"/>
    <path class="cls-26" d="M1078.91,466.6s-8.18-23.8,9.67-23.8c0,0,3.35-1.49,2.98,9.3-.37,10.79,7.44,30.12,7.44,30.12,0,0,.37,15.99-5.95,33.47,0,0,91.66,100.31,104.07,130.1l6.95-12.81s12.66,10.19,66.89,5.45c0,0-2.46,47.36-14.72,84.14-12.26,36.78-32.69,53.12-66.55,42.62-33.86-10.51-102.16-143.61-130.77-226.51,0,0-37.6-42.84-44.61-74.72-7.01-31.89-2.45-32.24-2.45-32.24,0,0-5.26-17.17,2.8-17.87,0,0-3.15-11.56,7.71-5.96,0,0,6.31-8.41,12.27-1.75,0,0,33.18,53.67,44.27,60.48Z"/>
    <path class="cls-4" d="M1063.91,553.52l-5-14.86s-20.34-26.22-32.14-44.42-15.94-49.15-15.94-49.15c0,0-2.19-10.51,1.02-13.39,0,0-4.76-16.91,2.8-17.87,0,0-3.54-11.93,7.71-5.96,0,0,6.45-9.48,12.27-1.75,0,0,27.4,45.2,44.27,60.48,0,0-7.95-23.17,9.67-23.8,0,0,3.3-.96,2.98,9.3-.32,10.25,7.44,30.12,7.44,30.12,0,0,2.02,12.36-5.95,33.47l10.02,10.74"/>
    <path class="cls-4" d="M1022.37,407.87s12.88,30.71,20.69,40.8"/>
    <line class="cls-4" x1="1014.66" y1="413.83" x2="1031.34" y2="456.81"/>
    <line class="cls-4" x1="1011.85" y1="431.7" x2="1023.53" y2="463"/>
    <path class="cls-4" d="M1173.66,610.28s35.2,42.2,38.43,76.09"/>
    <path class="cls-15" d="M1269.45,649.3s-34.92,5.65-65.38-16.32l6-14.63s12.74,8.84,61.68,6.63l-2.3,24.33Z"/>
    <polyline class="cls-10" points="1269.77 631.13 1259.8 644.72 1251.25 630.22 1238 644.57 1229.64 627.14 1217.84 638.21 1209.49 620.96"/>
    <polyline class="cls-10" points="1268.52 645.17 1261.06 630.4 1251.63 645.98 1239.99 628.95 1227.1 641.66 1219.11 623.87 1206.22 630.95"/>
    <path class="cls-15" d="M894.73,518.47s6.18,81.2,16.49,89.03c0,0-4.85,31.37-5.98,44.49,0,0-19.67-31.34-17.15-116.65,0,0,1.85-8.77,6.65-16.87Z"/>
    <polyline class="cls-10" points="888.08 535.33 895.12 540.62 890.08 551.66 896.56 557.18 890.56 567.27 898.48 573.99 891.28 587.19 902.56 592.95 896.08 606.4 905.92 607.6 898.72 622.72 904.96 621.52"/>
    <polyline class="cls-10" points="892.24 528.62 888.88 542.78 896.56 548.54 888.64 558.15 898.24 565.59 890.8 575.43 900.16 583.35 892.72 597.03 904.24 601.59 896.56 614.32 907.13 615.28"/>
  </g>
</svg>