<?xml version="1.0" encoding="UTF-8"?>
<svg xmlns="http://www.w3.org/2000/svg" viewBox="0 0 1334.13 1001.13">
  <defs>
    <style>
      .cls-1, .cls-2, .cls-3, .cls-4, .cls-5, .cls-6, .cls-7, .cls-8, .cls-9, .cls-10, .cls-11 {
        fill: none;
      }

      .cls-2 {
        stroke-width: 1.5px;
      }

      .cls-2, .cls-3, .cls-12, .cls-13, .cls-14, .cls-4, .cls-5, .cls-6, .cls-7, .cls-8, .cls-9, .cls-10, .cls-11 {
        stroke-miterlimit: 10;
      }

      .cls-2, .cls-3, .cls-5, .cls-10, .cls-11 {
        stroke: #231f20;
      }

      .cls-3 {
        stroke-width: .8px;
      }

      .cls-15, .cls-14 {
        fill: #f7daa6;
      }

      .cls-16, .cls-12 {
        fill: #e6e7e8;
      }

      .cls-17 {
        fill: #fff;
      }

      .cls-18 {
        fill: #803435;
      }

      .cls-19 {
        fill: #b6302e;
      }

      .cls-20 {
        fill: #b56e5b;
      }

      .cls-21 {
        fill: #ae8578;
      }

      .cls-22 {
        fill: #be9e7d;
      }

      .cls-23 {
        fill: #bfbfbf;
      }

      .cls-24 {
        fill: #bcdcca;
      }

      .cls-25 {
        fill: #d1d3d4;
      }

      .cls-26 {
        fill: #e2c799;
      }

      .cls-27 {
        fill: #d4d5d6;
      }

      .cls-28 {
        fill: #dc3b28;
      }

      .cls-29 {
        fill: #231f20;
      }

      .cls-30 {
        fill: #603913;
      }

      .cls-31 {
        fill: #26130f;
      }

      .cls-12 {
        stroke: #58595b;
        stroke-width: .2px;
      }

      .cls-13 {
        fill: #a97c50;
        stroke: #a97c50;
      }

      .cls-13, .cls-11 {
        stroke-width: .5px;
      }

      .cls-14, .cls-8 {
        stroke: #754c29;
      }

      .cls-4 {
        stroke: #d1d3d4;
        stroke-width: 2px;
      }

      .cls-6 {
        stroke: #c2b59b;
      }

      .cls-7 {
        stroke: #6d6e71;
      }

      .cls-9 {
        stroke: #3c2415;
      }

      .cls-10 {
        stroke-width: 1.2px;
      }
    </style>
  </defs>
  <g id="fondo">
    <rect class="cls-24" width="1334.13" height="1000.48"/>
  </g>
  <g id="Layer_1" data-name="Layer 1">
    <path class="cls-22" d="M921.12,300.36s-2.08,46.79,18.47,86.17c0,0,4.65,163.08-104.93,174.2,0,0-70.17-64.42-59.1-140.72,1.23-8.5,12.14-17.57,15.37-26.82l130.2-92.84Z"/>
    <g>
      <polygon class="cls-23" points="949.97 373.45 932.37 371.02 935.89 390.78 949.97 373.45"/>
      <path class="cls-16" d="M664.7,1000.25s-5.01-15.13-4.16-224.72c0,0-48.44-97.07-52.78-132.27l19.4-75.45s5.5-68.8,68.08-113.09c0,0,23.22-26.42,58.58-41.37l69.86,49.56,7.62,93.83,26.78-80.7s3.58-23.45,107.01-83.95c0,0,75.58,26.4,125.63,76.15,0,0,38.41,32.08,46.62,84.44,0,0,25.51,109.95,16.71,228.7,0,0-13.43,11.43-91.81,11.44l30.02,206.61"/>
      <path class="cls-27" d="M965.08,392.09s-89.57,53.83-107.01,83.95l2.08-29.64s66.39-42.2,89.82-72.95l15.11,18.64Z"/>
      <path class="cls-27" d="M786.11,392.99s-33.85-.62-32.29,20.36l69.86,49.56,2-17.53s-32.83-15.2-54.58-40.21c0,0,14.33-2.04,15.01-12.18Z"/>
      <path class="cls-7" d="M831.3,556.74s-14.68,142.98-13.3,443.51"/>
      <ellipse class="cls-25" cx="851.14" cy="568.09" rx="5.4" ry="5.6" transform="translate(-7.45 11.32) rotate(-.76)"/>
      <ellipse class="cls-25" cx="838.71" cy="662.26" rx="5.4" ry="5.6" transform="translate(-8.69 11.16) rotate(-.76)"/>
      <ellipse class="cls-25" cx="833.3" cy="764.11" rx="5.4" ry="5.6" transform="translate(-10.04 11.1) rotate(-.76)"/>
      <ellipse class="cls-25" cx="832.64" cy="856.96" rx="5.4" ry="5.6" transform="translate(-11.27 11.1) rotate(-.76)"/>
      <ellipse class="cls-25" cx="831.46" cy="973.71" rx="5.4" ry="5.6" transform="translate(-12.82 11.09) rotate(-.76)"/>
      <path class="cls-7" d="M983.4,738.28s5.55-84.4,31.06-139.82"/>
      <path class="cls-25" d="M989.98,617.06l-3.54,83.64s-47.21,46.63-97.51,1.29l-1.21-91.32s34.32,19.67,102.26,6.39Z"/>
      <path class="cls-25" d="M767.09,620.01l-3.54,83.64s-47.21,46.63-97.51,1.29l-1.21-91.32s34.32,19.67,102.26,6.39Z"/>
      <path class="cls-4" d="M995.11,403.16s-92.9,155.98-51.5,594.41"/>
      <path class="cls-4" d="M982.06,399.56s-91.51,161.55-50.11,599.97"/>
      <path class="cls-4" d="M969.4,395.27s-91.63,166.61-50.24,605.04"/>
      <path class="cls-4" d="M1008.16,407.68s-93.51,150.09-52.11,588.51"/>
      <path class="cls-4" d="M755.82,410.59s-85.37,150.19-19.79,586.77"/>
      <path class="cls-4" d="M739.26,420.65s-81.35,141.8-15.9,576.28"/>
      <path class="cls-4" d="M722.33,429.39s-76.25,135.13-10.88,568.17"/>
      <path class="cls-4" d="M769.11,414.66s-85.45,149.23-19.87,585.81"/>
    </g>
    <rect class="cls-1" x="53.37" y="134.43" width="735.36" height="866.14"/>
    <path class="cls-22" d="M715.71,134.83s-20.64,32.58-11.41,108.22c0,0,4.02,18.08,2.52,28.01-1.49,9.93,2.66,25.52,3.46,36.66,4.56,63,34.86,79.54,34.86,79.54,0,0,9.89,20.01,45.75,18.7,35.86-1.32,70.33-14.67,82.51-30.39,12.18-15.72,38.64-42.92,40.73-66.29,0,0,21.5,3.84,28.97-22.17,0,0,21.28-40.88-2.35-50.15-23.64-9.27-35.52,23.4-35.52,23.4,0,0,31.49-94.95-23.14-129.14,0,0-76.22-51.93-166.37,3.63Z"/>
    <path class="cls-16" d="M791.01,215.43s30.45-7.23,56.15,5.18c0,0-11.82-20.97-56.47-14.13,0,0-7.6,5.26,.31,8.95Z"/>
    <path class="cls-16" d="M702.58,230.66c18.91-10.8,31.01-8.58,31.01-8.58,6.38-5.97-2.49-8.6-2.49-8.6-13.89,2.3-23.9,6.17-31.11,10.42,0,0,1.56,7.36,2.59,6.77Z"/>
    <path class="cls-10" d="M942.9,253.89s-10.07-12.17-18.32,2.25c-8.25,14.42-8.29,18.93-8.29,18.93,0,0,11.59-22.74,18.94-6.3"/>
    <path class="cls-12" d="M948.25,242.53s-17.81-16.33-29.68,2.21c-11.87,18.54-9.13,26.5-9.13,26.5l-11.95,.55s35.17-64.97-6.19-87.71c0,0,5.99-47.79-30.33-52.47s-55.81-39.11-149.68,10.71c0,0-11.98-53.21,84.12-73.38,0,0,64.94-14.4,86.07,17.82,0,0,43.8,1.65,59.34,58.48,15.54,56.84,7.43,97.28,7.43,97.28Z"/>
    <path class="cls-31" d="M785.23,405.44s37.3,.52,61.45-11.39c0,0,19.41-6.02,37.74-31.01,0,0-22.95,37.17-60.98,44.27-.19,.04-.35,.05-.54,.08-1.75,.31-23.46,3.99-38.68,.78,0,0,.23-1.76,1.02-2.73Z"/>
    <path class="cls-11" d="M814.59,170.06s-27.75,6-40.72,10.4c-12.97,4.4-52.5-1.78-52.5-1.78"/>
    <path class="cls-16" d="M787.42,304.44s19.48,11.68,34.5,12.81c0,0-2.04,5.97-8.38,5.56,0,0-25.49-2.84-38.99,4.76,0,0-18.51-2.3-34.86,3.78,0,0-1.81,1.49-5.57,1.1,0,0,16.23-14.51,14.96-21.29,0,0,15.53,6.02,25.66-5.97,0,0,4.73,1.8,12.68-.75Z"/>
    <path class="cls-10" d="M758.96,254.75l-13.03,38.57s-5.05,21.03,11.75,19.72c13.94-1.09,14.35-5.51,14.35-5.51"/>
    <path class="cls-9" d="M667.95,1000.22s-32.73-131.75-1.82-245.1l-9.24-200.54"/>
    <path class="cls-10" d="M829.17,321.47s1.32-8.42-8.45-13.45c-9.05-4.66-15.78-21.16-15.78-21.16"/>
    <g>
      <path class="cls-17" d="M829.96,236.56s-.05-.82-.71-1.46c-2.18-2.12-7.14-6.03-14.46-5.51-8.2,.58-12.17,8.6-13.51,11.46-.23,.49-.18,.91-.18,.91,0,0,0,.46,.3,.76,1.42,1.43,6.08,5.35,13.85,4.92,4.62-.26,10.93-3.2,14.51-9.76,.25-.46,.23-1.01,.2-1.31Z"/>
      <circle class="cls-31" cx="813.15" cy="239.21" r="8.5"/>
      <circle class="cls-17" cx="818.38" cy="237.11" r="2.33"/>
      <path class="cls-10" d="M800.78,241.09s8.59-20.27,28.78-6.08"/>
    </g>
    <g>
      <path class="cls-17" d="M734.97,250.45s.07-.77-.45-1.46c-1.72-2.29-5.77-6.63-12.66-7.2-7.71-.63-12.54,6.26-14.2,8.72-.29,.42-.29,.82-.29,.82,0,0-.06,.43,.17,.75,1.11,1.53,4.89,5.85,12.17,6.56,4.34,.42,10.63-1.41,14.89-7,.3-.39,.36-.91,.37-1.19Z"/>
      <circle class="cls-31" cx="718.96" cy="250.49" r="7.96"/>
      <circle class="cls-17" cx="724.37" cy="249.44" r="2.23"/>
      <path class="cls-10" d="M707.51,250.76s10.39-18.77,27.22-1.44"/>
    </g>
    <path class="cls-3" d="M787.04,188.06s2.63,10.51,9.19,13.14"/>
    <path class="cls-3" d="M733.18,195.94s-3.28,10.51-7.22,13.14"/>
    <path class="cls-21" d="M810.77,322.84s-16.79-3.25-35.54,4.34c0,0-17.09-1.53-31.77,3.45,0,0,3.16,22.14,29.14,25.37,25.97,3.23,40.37-17.44,38.18-33.16Z"/>
    <path class="cls-18" d="M806.91,325.19s2.63,19.51-28.43,22.88c-28.21,3.06-30.53-13.83-30.53-13.83,0,0,31.93-2.01,58.96-9.05Z"/>
    <path class="cls-17" d="M803.1,325.95s-6.56,9.65-30.72,11.1c0,0-10.86,2.05-21.58-3.02,0,0,30.88-2.28,52.3-8.08Z"/>
    <path class="cls-22" d="M359.35,382.12s-5.81,75.68-30.08,85.26c0,0,23.93,122.13,128.95,147.31,0,0,67.55-53.43,38.69-128.35,0,0-14.83-11.99-16.37-27.96,0,0-88.84-23.17-121.18-76.26Z"/>
    <path class="cls-22" d="M354.68,328.03s-12.52-58.74,16.74-94.66c17.86-21.93,61.05-26.42,103.76-29.87,0,0,91.11,.75,70.5,115.31,0,0-4.73,11.49-1.63,20.85,0,0,6.71,17.9-3.62,54.82-13.78,49.21-38.31,51.36-38.31,51.36,0,0-2.28,13.97-30.34,14.38,0,0-24.68,5-49.83-10.55,0,0-65.7-31.37-62.58-67.57,0,0-26.08,15.68-38.61-27.09,0,0-15.32-74.39,33.94-27Z"/>
    <path class="cls-16" d="M465.09,295.4s-41.3-7.34-57.9,8.01c0,0,10.94-22.52,57.68-17.61,0,0,8.76,5.03,.22,9.6Z"/>
    <path class="cls-10" d="M500.74,348.46s18.19,27.24-13.7,30.34"/>
    <path class="cls-10" d="M323.73,338.16s9.67-25.38,29.04,15.57c0,0-16.51-18.1-19.51-2.65"/>
    <path class="cls-10" d="M406.55,314.72l12.92,31.57s19,10.02,44.32,3.39l13.3-30.61s-34.57-16.38-70.53-4.35Z"/>
    <path class="cls-15" d="M593.67,1000.63c0-26.22-53.36-94.73,1.45-98.8,7.3-.54,40.45-15.07,40.45-15.07,7.94,1.83,16.88,2.45,16.88,2.45-2.62-52.48,4.86-93.09,4.86-93.09-4.72-4.72-8.43-3.01-8.43-3.01l-26.4-163.69s-8.47-77.25-48.68-102.64c0,0-45.21-26.98-76.89-40.45,0,0-2.15,91.73-108.07,47.22,0,0-29.45-27.72-56.49-69.15,0,0-48.83,6.28-92.84,53.16,0,0-82.83,123.22-62.23,285.03,0,0,29.94,29.21,38.51,60.05,9.99,35.97-7.93,88.71,8.54,138.49"/>
    <path class="cls-31" d="M480.53,458.38s-4.74,2.15-9.75,1.63c0,0-38.64,6.56-77.77-27.81,0,0,11.15,12.9,34.64,25.05,0,0,18.58,10.13,53.13,6.21,0,0-.36-3.04-.26-5.08Z"/>
    <path class="cls-12" d="M400.72,231.84s63.65,24.49,98.6-6.24c0,0,14.13,21.16,48.07,46.86,0,0,5.94,16.56-6.66,55.88,0,0,12.47,30.61-4.6,71.66,0,0-13.77,36.4-34.01,45.86,0,0-8.98,9.65-21.58,12.52,0,0-.58,14.6,9.36,13.36,0,0-.97-7.78,4.38-10.94,0,0,84.98-33.11,69.08-168.04,0,0,43.48-63.91-13.47-101.33-25.73-16.91-51.07-68.07-112.97-35.6,0,0-86.25-36.84-107.7,47.28,0,0-91.61,29.63-30.66,142.68,0,0-14.07,39.26,23.58,67.54,4.34,3.26,13.58,18.6,7.46,41.92-1.65,6.29,14.88-6.6,19.8-18.84,0,0,8.94-22.04,9.96-54.28,0,0-28.92,10.63-35.8-21.92,0,0-12.14-35.52,.3-42.14,0,0,13.99-6.81,29.75,9.96,0,0,56.1-10.16,47.12-96.19Z"/>
    <path class="cls-16" d="M549.1,303.28c-.17-2.31-19.61-9.29-38.79-11.53,0,0-9.79,3.03-2.36,9.45,0,0,36.21-.58,37.84,11.62,0,0,3.73-3.85,3.3-9.54Z"/>
    <path class="cls-10" d="M488.46,317.44l12.92,31.57s16.7,7.4,42.02,.77l10.42-33.74s-29.39-10.63-65.36,1.41Z"/>
    <path class="cls-10" d="M488.46,317.44s-6.93-6.49-11.37,1.62"/>
    <line class="cls-10" x1="406.55" y1="314.72" x2="334.32" y2="314.13"/>
    <path class="cls-11" d="M422.96,268.27s28.34,1.66,41.84,4c13.5,2.35,51.6-9.84,51.6-9.84"/>
    <path class="cls-30" d="M473.29,1000.82c-16.35-91.54-28.21-220.44,11.39-317.76,67.17-165.1,106.34-148.97,106.34-148.97,0,0,64.8,114.65,17.85,287.36-25.77,94.78-12.76,147.78,5.69,178.93"/>
    <polyline class="cls-6" points="454.01 758.45 478.93 757.78 495.8 734.47 523.37 743.63 540.41 719.1 569.17 724.78 580.56 698.28 604.86 699.86 614.76 673.01 625.74 671.58"/>
    <g>
      <path class="cls-17" d="M423.79,323.26s-.04-.78,.52-1.44c1.83-2.21,6.07-6.38,12.99-6.64,7.74-.29,12.27,6.82,13.82,9.36,.27,.44,.26,.83,.26,.83,0,0,.04,.43-.21,.74-1.18,1.48-5.15,5.64-12.48,6.02-4.36,.23-10.57-1.89-14.59-7.67-.28-.4-.32-.93-.32-1.21Z"/>
      <path class="cls-31" d="M447.81,324.03c0-4.42-3.59-8.01-8.01-8.01-4.42,0-8.01,3.59-8.01,8.01s3.59,8.01,8.01,8.01c4.42,0,8.01-3.59,8.01-8.01Z"/>
      <circle class="cls-17" cx="434.69" cy="322.59" r="2.2"/>
      <path class="cls-2" d="M451.59,324.53s-10.11-18.12-27.59-2.77"/>
    </g>
    <g>
      <path class="cls-17" d="M511.15,327.16s-.14-.72,.27-1.42c1.38-2.32,4.74-6.8,11.13-8.03,7.16-1.38,12.39,4.59,14.2,6.73,.31,.37,.36,.74,.36,.74,0,0,.1,.39-.09,.72-.89,1.55-3.98,5.98-10.74,7.38-4.02,.84-10.1-.24-14.66-5.04-.32-.33-.43-.82-.47-1.08Z"/>
      <circle class="cls-31" cx="526.15" cy="325.58" r="7.51"/>
      <circle class="cls-17" cx="520.98" cy="325.14" r="2.1"/>
      <path class="cls-2" d="M536.91,324.67s-11.64-16.53-25.66,1.41"/>
    </g>
    <path class="cls-20" d="M443.65,400.77s26.62-9.82,39.77-1.6c0,0,4.37-5.8,30.17,.36,0,0-6.22,16.55-32.13,16.23-31.68-.39-37.81-14.99-37.81-14.99Z"/>
    <path class="cls-14" d="M327.52,717.92c8.2,68.29-2.62,110.1-2.62,110.1,0,0-97.54,21.93-147.62-25.42"/>
    <path class="cls-3" d="M503.82,274.74s4.34,10.85,9.22,12.48"/>
    <path class="cls-3" d="M456.08,281.25s6.51-1.63,9.77-4.88"/>
    <path class="cls-5" d="M513.59,399.52s-10.6,5.24-30.44,5.63c-9.9,.19-39.5-4.38-39.5-4.38l-7.26-3.37"/>
    <rect class="cls-1" x="160.15" y="125.97" width="580.59" height="874.76"/>
    <g>
      <path class="cls-22" d="M678.53,599.5s-9.93,18.52-.04,50.41c0,0-5.79,42.97-65.84,53.28,0,0-68.83-.71-31.49-47.49,0,0,9.01-12.27,7.7-22.27,0,0,62.29-5.56,89.67-33.93Z"/>
      <path class="cls-22" d="M587.55,454.9s-18.75,8.53-28.5,46.67c-1.06,4.16,0,12.98-2.1,15.96-16.46,23.24-16.69,48.23-11.87,63.2,1.19,3.71,1.24,7.91,2.2,11.31,7,24.81,41.43,36.82,41.43,36.82,0,0,71.07,4.96,89.82-29.37,0,0,11.03,22.78,32.01,1.01,0,0,23.59-23.74,11.53-34.72,0,0-13.66-9.63-26.75,4.08,0,0,26.31-63.09,6.86-79.23,0,0-40.49-67.91-114.63-35.74Z"/>
      <path class="cls-10" d="M717.27,579.11s-2.41-18.24-21.57,5.73c0,0,13.71-9.36,13.27,1.3"/>
      <path class="cls-31" d="M588.71,628.86s7.04,.88,22.15-.32c0,0,12.75,.38,30.25-4.73,0,0-13.35,8.96-35.99,10.17,0,0-6.73,.78-16.26-.56,0,0-.39-.55-.15-4.56Z"/>
      <path class="cls-31" d="M628.38,516.9s26.81,5.56,35.03,16.91c0,0-3.69-13.66-33.56-21.65,0,0-6.17,.55-1.48,4.73Z"/>
      <path class="cls-31" d="M558.49,502.11c.61-1.09,14.64-1.52,27.46,.31,0,0,5.63,2.95-.55,4.93,0,0-23.16-5.78-26.87-.12,0,0-1.55-2.43-.04-5.12Z"/>
      <path class="cls-2" d="M624.65,538.16s11.46-12.61,22.59,2.93"/>
      <path class="cls-2" d="M561.19,520.48s12.22-10.9,19.98,5.83"/>
      <path class="cls-21" d="M611.3,584.5s-9.78-6.15-23.44-5.95c0,0-10.38-5.14-20.85-5.59,0,0-3.65,18.01,11.91,26.38,15.57,8.37,29.91-4.41,32.37-14.84Z"/>
      <path class="cls-18" d="M608.3,585.04s-4.05,15.72-24.42,10.25c-18.51-4.96-14.91-18.95-14.91-18.95,0,0,20.6,6.53,39.34,8.7Z"/>
      <path class="cls-17" d="M605.71,584.59s-7,5.91-22.56,.92c0,0-9.86-2.12-12.55-8.38,0,0,20.21,5.89,35.11,7.47Z"/>
      <path class="cls-28" d="M795.61,681.75l-69.75-26.16s-32.88-9.09-54.54-4.59c-42.46,8.82-90.16,4.69-90.16,4.69,0,0-85.47,15.59-113.37,106.27l50.57,52.31s-20.08,121.6-11.36,186.12c0,0,149.49,.02,258.29-.53l-16.75-210,57.54-15.69-10.46-92.42Z"/>
      <path class="cls-22" d="M1000.4,635.36l-132.28,52.9c-10.46,0-72.51-6.51-72.51-6.51l10.46,92.42s45.34-8.72,73.24-12.21c27.9-3.49,105.64-48.38,105.64-48.38,0,0,5.92-52.26,15.45-78.22Z"/>
      <path class="cls-22" d="M467.79,761.97l-38.96,20.02-100.08-24.4,1.01,27.17-2.57,26.44,100.5,44.94s19.36,13.03,33.31,2.57,57.36-44.42,57.36-44.42l-50.57-52.31Z"/>
      <path class="cls-19" d="M581.16,655.7s41.08,4.14,90.16-4.69l7.17-1.1s-7.72,9.65-49.91,11.03-53.77-3.86-53.77-3.86l6.34-1.38Z"/>
      <path class="cls-29" d="M582.81,439.78c-15.7,32.43-18.55,49.8-18.55,49.8,14.79-32.73,25.41-32.91,25.41-32.91,46.85-12.3,103.33,36.9,103.33,36.9,12.39,33.83-3.44,81.89-3.44,81.89,17.21-12.64,28.73-10.59,28.73-10.59,41.27-61.64,5.52-85.81,5.52-85.81,0,0-19.04-43.87-71.22-55.25-52.18-11.38-69.78,15.97-69.78,15.97Z"/>
      <path class="cls-10" d="M586.98,540.93s-7.25,2-7.33,10.18c-.1,10.55,12.51,12.33,12.51,12.33"/>
    </g>
    <path class="cls-22" d="M183.32,808.91l53.14,108.42c94.7,66.47,317.92,38.11,317.92,38.11l25.34,12.16s63.52,7.67,78.53-2.75c12.52-8.7,16.07-14.73,16.07-14.73,14.09-10.01,13.67-22.19,13.67-22.19,16.28-10.29,4.23-17.67,4.23-17.67,2.86-14.38-9.18-11.08-9.18-11.08l-30.93,12.35s-15.61,3.3-38.62-6.26c-23.01-9.56-.42-26.47-.42-26.47l.95-4.76c1.19-5.96-4.11-11.21-10.06-9.94-26.21,5.6-52.65,40.58-52.65,40.58,0,0-174.94-68.23-231.4-75.52,0,0-79.93,13.51-136.6-20.26Z"/>
    <path class="cls-8" d="M692.22,910.26s-27.24,20.02-57.03,16.85"/>
    <path class="cls-8" d="M688,927.51s-30.72,18.81-59.03,12.78"/>
    <polyline class="cls-8" points="674.32 950.12 643.62 957.53 625.96 957.33"/>
    <path class="cls-22" d="M988.75,739.22c-6.36,32.88-18.37,54.43-18.37,54.43-63.64-31.82-211-42.02-211-42.02,0,0-19.18-41.3-44.55-52.72-5.75-2.59-12.28,1.57-12.38,7.88l-.08,5.03s19.23,22.11-6.22,26.77c-25.45,4.67-40.57-2.1-40.57-2.1l-28.69-19.31s-11.5-5.98-11.75,9.24c0,0-13.85,4.85,.42,18.86,0,0-3.1,12.28,9.02,25.52,0,0,2.27,6.9,13.08,18.47,12.95,13.87,79.1,19.98,79.1,19.98l28.38-6.79s185.08,121.34,293.11,106.8c61.25-8.25,90.15-120.91,90.15-120.91"/>
    <path class="cls-8" d="M615.14,726.43s23.26,26.28,54.19,29.59"/>
    <path class="cls-8" d="M615.65,744.87s27.06,25.82,57.11,25.9"/>
    <polyline class="cls-8" points="624.58 770.8 654.12 785.05 672.09 788.71"/>
    <circle class="cls-13" cx="443.09" cy="615.26" r="13.16"/>
    <circle class="cls-13" cx="446.65" cy="713.69" r="13.16"/>
    <g>
      <path class="cls-26" d="M943.57,128.65s-25.39-59.39-37.69-73.49c-12.3-14.11-133.16-28.62-168.07,1.18,0,0-5.87,13.26-3.53,18.45"/>
      <path class="cls-15" d="M947.29,194.89s88.09-.89,90.14-12.03c4.77-25.89-55.78-42.94-55.78-42.94,0,0-145.05-45.47-197.62-63.79-39.8-13.87-130.82-33.7-145.38,9.39-14.56,43.09,64.57,82.87,64.57,82.87,0,0,147.32-32.96,242.32,9.53,0,0,3.42,9.45,1.74,16.97Z"/>
      <path class="cls-5" d="M703.23,168.39s-74.23-48.21-33.61-77.24c32.67-23.35,94.13-3.26,157.35,27.22,63.22,30.48,155.68,45.63,155.68,45.63,0,0,38.97,19.7-35.36,30.9"/>
    </g>
  </g>
</svg>