<?xml version="1.0" encoding="UTF-8"?>
<svg id="Layer_1" data-name="Layer 1" xmlns="http://www.w3.org/2000/svg" xmlns:xlink="http://www.w3.org/1999/xlink" viewBox="0 0 1334.74 1479.04">
  <defs>
    <style>
      .cls-1, .cls-2, .cls-3, .cls-4, .cls-5, .cls-6, .cls-7, .cls-8, .cls-9, .cls-10, .cls-11, .cls-12, .cls-13, .cls-14, .cls-15, .cls-16, .cls-17, .cls-18, .cls-19, .cls-20 {
        fill: none;
      }

      .cls-2 {
        stroke-width: 1.5px;
      }

      .cls-2, .cls-3, .cls-4, .cls-5, .cls-6, .cls-7, .cls-8, .cls-21, .cls-9, .cls-10, .cls-11, .cls-12, .cls-13, .cls-14, .cls-15, .cls-16, .cls-17, .cls-18, .cls-19, .cls-22, .cls-20 {
        stroke-miterlimit: 10;
      }

      .cls-2, .cls-4, .cls-6, .cls-9, .cls-19 {
        stroke: #231f20;
      }

      .cls-3 {
        stroke-width: 3px;
      }

      .cls-3, .cls-10, .cls-13 {
        stroke: #dc3b28;
      }

      .cls-23 {
        clip-path: url(#clippath);
      }

      .cls-4 {
        stroke-width: 1.3px;
      }

      .cls-5 {
        stroke-width: .8px;
      }

      .cls-5, .cls-15, .cls-22, .cls-20 {
        stroke: #603913;
      }

      .cls-24 {
        fill: #00a151;
      }

      .cls-25 {
        fill: #006838;
      }

      .cls-26 {
        fill: #f7941d;
      }

      .cls-27 {
        fill: #f6ac1b;
      }

      .cls-28 {
        fill: #ebcda1;
      }

      .cls-29 {
        fill: #fff;
      }

      .cls-30 {
        fill: #f5bc49;
      }

      .cls-31 {
        fill: #ed1c24;
      }

      .cls-32 {
        fill: #efcccd;
      }

      .cls-33 {
        fill: #ffcc41;
      }

      .cls-34 {
        fill: #fcd44b;
      }

      .cls-35 {
        fill: #e6a05c;
      }

      .cls-36 {
        fill: #803435;
      }

      .cls-37 {
        fill: #00a651;
      }

      .cls-38 {
        fill: #8c3333;
      }

      .cls-39 {
        fill: #8abc5d;
      }

      .cls-40 {
        fill: #9ecb54;
      }

      .cls-41 {
        fill: #b6302e;
      }

      .cls-42, .cls-21 {
        fill: #8b5e3c;
      }

      .cls-43 {
        fill: #943f23;
      }

      .cls-44 {
        fill: #8daf94;
      }

      .cls-45 {
        fill: #ae8578;
      }

      .cls-46, .cls-22 {
        fill: #be9e7d;
      }

      .cls-47 {
        fill: #be8c8c;
      }

      .cls-48 {
        fill: #d2d292;
      }

      .cls-49 {
        fill: #d14699;
      }

      .cls-50 {
        fill: #dc3b28;
      }

      .cls-51 {
        fill: #b13c27;
      }

      .cls-52 {
        fill: #e19926;
      }

      .cls-53 {
        fill: #a88e69;
      }

      .cls-54 {
        fill: #134a7e;
      }

      .cls-55 {
        fill: #231f20;
      }

      .cls-56 {
        fill: #414d21;
      }

      .cls-57 {
        fill: #414042;
      }

      .cls-58 {
        fill: #16a9de;
      }

      .cls-59 {
        fill: #a3794f;
      }

      .cls-60 {
        fill: #6ca442;
      }

      .cls-61 {
        fill: #2b6666;
      }

      .cls-62 {
        fill: #288348;
      }

      .cls-63 {
        fill: #3c2415;
      }

      .cls-64 {
        fill: #58595b;
      }

      .cls-65 {
        fill: #3aa362;
      }

      .cls-66 {
        fill: #5e8f59;
      }

      .cls-67 {
        fill: #50804a;
      }

      .cls-68 {
        fill: #4c96a4;
      }

      .cls-69 {
        fill: #26130f;
      }

      .cls-70 {
        fill: #517843;
      }

      .cls-6, .cls-7, .cls-8 {
        stroke-width: 5px;
      }

      .cls-7 {
        stroke: #808285;
      }

      .cls-8, .cls-12, .cls-14 {
        stroke: #58595b;
      }

      .cls-21 {
        stroke: #8b5e3c;
      }

      .cls-9, .cls-10, .cls-11, .cls-12 {
        stroke-width: 2px;
      }

      .cls-11, .cls-18 {
        stroke: #be1e2d;
      }

      .cls-13 {
        stroke-width: 4px;
      }

      .cls-16 {
        stroke: #262262;
      }

      .cls-17 {
        stroke: #27aae1;
      }

      .cls-19 {
        stroke-width: 1.2px;
      }

      .cls-22 {
        stroke-width: .7px;
      }

      .cls-20 {
        stroke-width: .5px;
      }
    </style>
    <clipPath id="clippath">
      <rect class="cls-1" y="480.36" width="1333.36" height="703.53"/>
    </clipPath>
  </defs>
  <rect class="cls-44" y="654.07" width="1333.59" height="824.97"/>
  <g>
    <polygon class="cls-39" points="1333.58 479.36 0 480 0 670.66 1333.58 670.52 1333.58 479.36"/>
    <path class="cls-25" d="M882.5,728.16s-425.97-5.44-679.75,9.06c-253.77,14.5,246.52,25.38,246.52,25.38,0,0,297.28,19.94,444.1,70.69,146.82,50.75-10.88-105.13-10.88-105.13Z"/>
    <path class="cls-25" d="M1325.81,918.51s-726.7-31.35-774.65,25.82c-47.95,57.18,70.09,83,123.58,119.89,53.49,36.89,173.37,53.49,324.62-12.91,151.24-66.4,333.84-42.42,333.84-42.42l-7.38-90.38Z"/>
    <path class="cls-24" d="M854.02,898.58s-67.7-85.19,19.65-83.61c0,0-39.31-119.9,63.33-105.7,0,0,205.28-105.7,231.48,56.79,0,0,130.52-73.17,163.27,19.91l-1.77,151.44s-135.65,19.76-292.55-2.91c0,0-113.64-15.55-183.42-35.92Z"/>
    <path class="cls-62" d="M1269.73,964.61s11.39,6.59,23.37,1.8c0,0-5.99-33.56,2.4-43.15,0,0-9.59,10.19-10.19,25.17,0,0-12.58-55.13,10.19-94.68,0,0-16.18,19.78-19.18,45.54,0,0-17.38-28.76-1.2-64.72,0,0-19.18,31.16-11.99,82.1,0,0-3.6-44.94-19.78-48.54,0,0,16.18,23.97,17.38,65.32,0,0-1.8-14.38-10.19-19.18,0,0,25.77,40.15,19.18,50.34Z"/>
    <g class="cls-23">
      <g>
        <path class="cls-42" d="M852.85,791.15s16.88-193.12,8.44-289.16l-86.82-128.16,17.82-8.44,79.85,110.5,4.82-105.43h18.09l-4.82,171.2,3.62,251.58s-19.29,9.4-41-2.09Z"/>
        <path class="cls-60" d="M572.52,354.62s-140.41,49.03-44.57,129.27c0,0,111.44,15.6,167.15-60.18,0,0,46.8,46.8,106.98,11.14,0,0,37.89,46.8,98.06,13.37,0,0,82.46,62.4,147.1,13.37,0,0,60.18,37.89,93.61,2.23,0,0,113.66,44.57,111.44-28.97-2.23-73.55-55.72-84.69-55.72-84.69,0,0,91.38-33.43,24.52-120.35-66.86-86.92-160.47-37.89-160.47-37.89l-488.09,162.7Z"/>
        <path class="cls-40" d="M605.13,171.56s-66.42,50.32-60.38,116.74c6.04,66.42,42.27,120.76,152.97,78.5,0,0,80.51,90.57,253.6,24.15,0,0,134.85,58.37,173.09-32.2,38.24-90.57-32.2-76.48-32.2-76.48,0,0,92.59-231.46-110.7-195.23,0,0-26.17-44.28-114.73-20.13,0,0-12.08-16.1-44.28-4.03,0,0-38.24-94.6-108.69,8.05,0,0-114.73-20.13-108.69,100.64Z"/>
        <path class="cls-65" d="M584.74,220.44s-41.48,33.35-13.53,57.96c27.95,24.62,41.11,14.07,41.11,14.07,0,0,1.33,54.27,58.16,63.23,0,0,31.99,1.77,43.2-36.2,0,0,13.35,44.01,51.91,42.94,38.56-1.07,29.47-27.94,29.47-27.94,0,0,34.26,10.92,48.9-32.76,0,0,35.46-23.36,4.1-56.84,0,0-2.45-68.56-60.75-54.09,0,0-3.69-14.86-23.7-2.61,0,0-18.21-39.17-54.26-8.38,0,0-29.9-52.04-67.97-9.83,0,0-56.53-17.52-56.65,50.46Z"/>
      </g>
      <g>
        <path class="cls-67" d="M652.2,.05s-30.7-3.48-68.17,50.4c-37.48,53.88-114.78,193.64-45.29,249.86,0,0,45.29,20.3,72.62-39.82,27.33-60.12,42.16-135.08,42.16-135.08,0,0,52.8-110.17-1.32-125.36Z"/>
        <path class="cls-40" d="M607.17,489.41s53.18-56.9,160.79-12.37c107.61,44.53,103.9,82.87,103.9,82.87,0,0-4.95,22.26-35.87,14.84l-37.11-12.37-11.13-34.63-4.95,25.97-55.66-14.84-8.66-30.92-3.71,27.21s-96.48-12.37-107.61-45.76Z"/>
        <path class="cls-60" d="M646.98,365s50.1-70.61,170.55-32.16c120.46,38.45,121.07,82.42,121.07,82.42,0,0-2.63,25.84-36.6,20.9l-41.18-9.87-16.05-38.08-2.19,30.06-61.33-10.59-12.96-34.15-.72,31.32s-104.7-3.18-120.6-39.85Z"/>
        <path class="cls-40" d="M623.84,276.31s-11.94-85.75,102.11-140.34c114.05-54.59,144.64-23,144.64-23,0,0,15.8,20.62-12.32,40.31l-36.74,21.05-37.79-16.72,19.02,23.38-51.9,34.33-32.85-15.97,20.95,23.29s-78.4,69.46-115.12,53.67Z"/>
        <path class="cls-66" d="M565.25,344.44s1.32-86.57,122.38-123.07c121.06-36.5,146.46-.61,146.46-.61,0,0,12.46,22.79-18.34,37.95l-39.53,15.18-34.79-22.3,15.22,26.02-56.54,25.99-30.02-20.81,17.15,26.23s-88.1,56.66-121.98,35.43Z"/>
        <path class="cls-70" d="M658.67,325.2s37.35-85.67,182.39-90.43c145.04-4.76,157.39,37.51,157.39,37.51,0,0,3.91,25.89-35.43,32.93l-48.71,4.79-28.07-31.21,5.52,29.81-71.46,11.11-23.56-28.49,7.51,30.52s-118.04,33.36-145.57,3.45Z"/>
        <path class="cls-60" d="M531.46,359.97s23.82-90.37-87-184.05c-110.83-93.67-146.73-68.17-146.73-68.17,0,0-19.12,17.89,7.37,47.81l35.24,33.97,41.38-7.08-22.82,19.96,49.17,53.03,36.15-7.73-24.81,19.29s71.92,99.37,112.06,92.98Z"/>
        <path class="cls-40" d="M407.36,306.19s-1.09-93.45-132.85-154.26c-131.76-60.8-159.58-26.66-159.58-26.66,0,0-13.67,22.33,19.83,44.12l43.01,23.37,38-17.84-16.68,25.31,61.51,38.03,32.79-17.08-18.79,25.2s95.77,76.65,132.76,59.81Z"/>
        <path class="cls-60" d="M407.5,309.85s-42.15-83.41-187.23-79.94c-145.07,3.48-155,46.38-155,46.38,0,0-2.43,26.07,37.24,30.87l48.91,2.02,26.25-32.76-3.82,30.07,71.97,7.04,21.91-29.78-5.76,30.9s119.75,26.61,145.53-4.81Z"/>
        <path class="cls-40" d="M404.58,299.98s-73.56-57.65-203.45,7.04c-129.9,64.69-120.69,107.76-120.69,107.76,0,0,8.86,24.64,46.82,12.16l45.15-18.92,9.88-40.8,9.3,28.86,68.16-24.16,7.21-36.26,7.89,30.42s119.73-26.7,129.75-66.1Z"/>
        <path class="cls-60" d="M437.2,447.37s-65.69-66.48-202.71-18.72c-137.03,47.76-133.33,91.65-133.33,91.65,0,0,5.67,25.56,44.91,17.97l47.17-13.06,14.95-39.22,5.58,29.8,70.66-15.35,11.73-35.06,3.98,31.18s122.14-11.36,137.06-49.17Z"/>
        <path class="cls-70" d="M473.36,342.83s-25.98-82.82-142.48-65.27c-116.5,17.55-128.46,63.18-128.46,63.18,0,0-4.38,27.38,26.94,28.57l38.98-2.59,24.08-36.63-5.87,31.68,56.98,.42,20.32-33.11-7.5,32.73s93.41,16.22,117-18.98Z"/>
        <path class="cls-60" d="M479.96,923.51s15.98-212.15,15.98-356c0,0,36.33,46.5,34.87,61.03,0,0,1.58-74.82,76.35-139.12l13.74,14.16s-62.48,26.15-74.11,133.68c-11.62,107.53,26.15,296.42,26.15,296.42l-93-10.17Z"/>
        <path class="cls-67" d="M530.82,628.54s-14.31-41.09-34.87-61.03c0,0-21.83-94.34-69.75-110.74l11-9.4s40.71,30.84,58.36,67.41c0,0-25.22-104.67-90.8-151.33l23.96-2.52s66.84,92.06,76.93,122.32c10.09,30.27,6.31,58.01,6.31,58.01l10.09-17.65s-2.52-143.76,50.44-192.94l7.13,10.59s-38.65,68.86-36.13,145.79c0,0,33.66-116.86,115.19-161.84l31.09,5.47s-90.8,22.7-131.15,181.59c0,0-13.87,35.31-10.09,46.66,0,0-22.8,52.22-17.7,69.62Z"/>
        <path class="cls-60" d="M473.36,342.83s43.67,32.69,40.33,91.1c0,0,55.07-328.75,138.51-433.88l13.35,8.34s-125.16,210.26-120.15,365.46c0,0-26.69,114.28-23.36,149.76l-10.09,17.65-6.31-58.01s1.37-81.04-45.36-134.44l13.07-5.99Z"/>
        <path class="cls-33" d="M307.7,531.35s-10.68-17.36-14.02-4.67c-3.34,12.68,7.34,56.08,42.06,63.42,0,0,6.01,0,10.68-1.34s9.35,4.67,20.69,0c0,0,10.01,6.68,18.69-1.34,0,0,12.02,2.67,18.02-1.34,0,0,7.34,9.35,19.36,5.34,0,0,6.01,6.01,16.69,0,0,0,36.72-17.36,28.71-64.75,0,0-14.02-6.68-14.69,6.01,0,0-8.68-19.36-20.69-2l-6.01,8.01s-.67-19.36-8.68-18.69c-8.01,.67-19.36,20.69-19.36,20.69,0,0-8.68-34.05-17.36-24.7s-10.68,29.37-10.68,29.37c0,0-25.37-38.05-30.04-24.03-4.67,14.02-2,26.04-2,26.04,0,0-15.35-32.71-21.36-27.37-6.01,5.34-10.01,11.35-10.01,11.35Z"/>
        <ellipse class="cls-56" cx="465.25" cy="520.33" rx="3.34" ry="6.34"/>
        <ellipse class="cls-56" cx="445.19" cy="520.11" rx="3.34" ry="6.34"/>
        <ellipse class="cls-56" cx="420.75" cy="516.35" rx="3.34" ry="6.34"/>
        <ellipse class="cls-56" cx="381.71" cy="513.25" rx="3.34" ry="6.34"/>
        <ellipse class="cls-56" cx="341.96" cy="515.76" rx="3.34" ry="6.34"/>
        <ellipse class="cls-56" cx="318.13" cy="517.74" rx="3.34" ry="6.34"/>
        <ellipse class="cls-56" cx="295.8" cy="518.58" rx="3.34" ry="6.34"/>
        <path class="cls-33" d="M307.7,629.05s-10.68-17.36-14.02-4.67,7.34,56.08,42.06,63.42c0,0,6.01,0,10.68-1.34,4.67-1.34,9.35,4.67,20.69,0,0,0,10.01,6.68,18.69-1.34,0,0,12.02,2.67,18.02-1.34,0,0,7.34,9.35,19.36,5.34,0,0,6.01,6.01,16.69,0,0,0,36.72-17.36,28.71-64.75,0,0-14.02-6.68-14.69,6.01,0,0-8.68-19.36-20.69-2l-6.01,8.01s-.67-19.36-8.68-18.69c-8.01,.67-19.36,20.69-19.36,20.69,0,0-8.68-34.05-17.36-24.7-8.68,9.35-10.68,29.37-10.68,29.37,0,0-25.37-38.05-30.04-24.03-4.67,14.02-2,26.04-2,26.04,0,0-15.35-32.71-21.36-27.37-6.01,5.34-10.01,11.35-10.01,11.35Z"/>
        <ellipse class="cls-56" cx="465.25" cy="618.03" rx="3.34" ry="6.34"/>
        <ellipse class="cls-56" cx="445.19" cy="617.81" rx="3.34" ry="6.34"/>
        <ellipse class="cls-56" cx="420.75" cy="614.05" rx="3.34" ry="6.34"/>
        <ellipse class="cls-56" cx="381.71" cy="610.95" rx="3.34" ry="6.34"/>
        <ellipse class="cls-56" cx="341.96" cy="613.45" rx="3.34" ry="6.34"/>
        <ellipse class="cls-56" cx="318.13" cy="615.44" rx="3.34" ry="6.34"/>
        <ellipse class="cls-56" cx="295.8" cy="616.28" rx="3.34" ry="6.34"/>
        <path class="cls-48" d="M349.41,958.34s238.55,21.05,343.79,2c0,0-2-5.01-11.03-8.02l15.03-5.01s-22.05-23.05-57.13-13.03l26.06-11.03s-16.04-26.06-55.13,4.01c0,0,8.02-23.05,19.04-31.07,0,0-40.09,5.01-52.12,24.06,0,0-3.01-31.07,25.06-43.1,0,0-38.09,2-49.11,23.05l-73.17-2s-16.04-28.06-37.09-25.06c0,0,24.06,13.03,23.05,39.09,0,0-28.06-23.05-41.1-16.04,0,0,19.04,22.05,14.03,34.08,0,0-36.08-27.06-55.13-5.01,0,0,25.06,3.01,25.06,15.03,0,0-43.1-16.04-60.14,18.04Z"/>
      </g>
      <g>
        <path class="cls-44" d="M1334.74,589.07c-31.86,43.11-99.61,11.6-170.83-1.52-71.23-13.12-69.35,54.36-69.35,54.36-43.11,50.61-22.49-14.99-121.83-11.25-99.34,3.75-48.73-157.45-11.25-170.57,37.49-13.12,58.74-114.59,38.12-183.94l68.99-1.71,265.98-.38"/>
        <path class="cls-66" d="M1041.55,402.7s-111.76,51.3-113.59,192.37c0,0,95.27-45.8,113.59-192.37Z"/>
        <path class="cls-66" d="M1010.85,562.95s-108.96,57.01-103.49,197.99c0,0,92.77-50.67,103.49-197.99Z"/>
        <path class="cls-66" d="M1112.22,303.12s-122.86,5.16-177.98,135.03c0,0,105.52-6.31,177.98-135.03Z"/>
        <path class="cls-66" d="M1273.88,370.26s-36.77-91.17-149.36-97.93c0,0,33,77.8,149.36,97.93Z"/>
        <path class="cls-66" d="M1086.48,654.71s.75-66.18-67.48-99.52c0,0,.37,56.89,67.48,99.52Z"/>
        <path class="cls-66" d="M1218.32,625.87s.89-78.68-80.22-118.32c0,0,.44,67.64,80.22,118.32Z"/>
        <path class="cls-66" d="M1137.37,612.24s.62-55-56.07-82.7c0,0,.31,47.28,56.07,82.7Z"/>
        <path class="cls-66" d="M1088.52,292.86s-81.04-49.04-171.75,10.82c0,0,70.41,40.91,171.75-10.82Z"/>
        <path class="cls-66" d="M1090.33,351.26s-83.8,72.98-49.41,195.75c0,0,70.91-64.01,49.41-195.75Z"/>
        <path class="cls-66" d="M1001.95,323.92s-73.21-4.89-114.31,68.57c0,0,63,3.08,114.31-68.57Z"/>
        <path class="cls-66" d="M917.9,576.02s-44.54,11.11-54.95,62.74c0,0,38.11-10.23,54.95-62.74Z"/>
        <path class="cls-66" d="M988.54,684.62s-46.57,46.54-21.26,117.7c0,0,39.31-40.71,21.26-117.7Z"/>
        <path class="cls-66" d="M942.4,456.42s-87.36,23.79-105.7,126.04c0,0,74.72-21.78,105.7-126.04Z"/>
        <path class="cls-66" d="M1134.24,323.81s-66.96,77.96-19.12,185.72c0,0,56.36-68.03,19.12-185.72Z"/>
        <path class="cls-66" d="M1155.06,341.79s-22.99,69.33,37.55,127.28c0,0,18.7-59.94-37.55-127.28Z"/>
        <path class="cls-66" d="M1331.62,424.46s-70.32,20.96-83.19,104.15c0,0,60.12-19.09,83.19-104.15Z"/>
        <path class="cls-66" d="M1331.6,355.97s-70.64,19.84-84.84,102.82c0,0,60.41-18.14,84.84-102.82Z"/>
        <path class="cls-66" d="M1296.45,508.93s-62.93,37.74-54.78,121.53c0,0,53.51-33.4,54.78-121.53Z"/>
        <path class="cls-66" d="M1329.98,329.38s-40.83-60.97-124.11-48.66c0,0,36.02,51.77,124.11,48.66Z"/>
        <path class="cls-30" d="M1213.77,375.22s-27.48,38.47-10.99,75.12c16.49,36.64,21.99,51.3,36.64,31.15,14.66-20.15,10.99-91.61-25.65-106.26Z"/>
        <path class="cls-30" d="M1263.24,274.45s-27.48,38.47-10.99,75.12c16.49,36.64,21.99,51.3,36.64,31.15,14.66-20.15,10.99-91.61-25.65-106.26Z"/>
        <path class="cls-30" d="M1017.74,644.54s-27.48,38.47-10.99,75.12c16.49,36.64,21.99,51.3,36.64,31.15,14.66-20.15,10.99-91.61-25.65-106.26Z"/>
        <path class="cls-30" d="M1076.36,673.85s-27.48,38.47-10.99,75.12c16.49,36.64,21.99,51.3,36.64,31.15,14.66-20.15,10.99-91.61-25.65-106.26Z"/>
        <path class="cls-21" d="M1332.56,912.66s-25.35,118.46-7.03,188.08c0,0-23.82,40.31-95.27,12.82l53.13-252.83s9.16-65.96-9.16-91.61c-18.32-25.65-42.14-86.11-42.14-86.11,0,0-117.26-51.3-152.07-78.78,0,0,0-18.32,29.31-1.83,29.31,16.49,122.75,86.11,159.4,32.98,36.64-53.13,40.31-93.44,40.31-93.44l-16.49,126.42,40.32,132.3"/>
        <path class="cls-60" d="M1332.89,1094.2l-99.62,15.79s-15.21-26.61-35.17-23.76c0,0,22.81,12.36,21.86,37.07,0,0-26.61-21.86-38.97-15.21,0,0,18.06,20.91,13.31,32.32,0,0-34.22-25.66-52.28-4.75,0,0,23.76,2.85,23.76,14.26,0,0-40.87-15.21-57.03,17.11,0,0,124.33,21.8,224.13,3.74"/>
      </g>
    </g>
    <path class="cls-65" d="M665.46,951.36s-68.37-73.05,11.8-78.09c0,0-44.93-106.97,50.19-101.58,0,0,180.29-112.12,216.38,34.86,0,0,114.19-76.75,151.12,6.12l9.63,138.93s-122.86,28.18-268.35,19.06c0,0-105.31-5.81-170.78-19.3Z"/>
  </g>
  <g>
    <rect class="cls-57" x="893.89" y="961.98" width="212.89" height="211.99" transform="translate(2000.66 2135.95) rotate(-180)"/>
    <ellipse class="cls-8" cx="827.03" cy="1276.97" rx="67.38" ry="130.46"/>
    <line class="cls-12" x1="817.94" y1="1288.7" x2="757.93" y2="1363.17"/>
    <ellipse class="cls-6" cx="818.55" cy="1275.07" rx="76.15" ry="140.51"/>
    <ellipse class="cls-58" cx="783.37" cy="1409.84" rx="36.75" ry="36.61"/>
    <circle class="cls-29" cx="783.86" cy="1413.82" r="15.18"/>
    <path class="cls-55" d="M778.8,1408.76s22.64-11.57,17.84-81.01h19.9s8.92,72.16-30.19,89.86c0,0-13.04,8.17-7.55-8.85Z"/>
    <path class="cls-13" d="M993.23,1281.37l-23.9,.55s-20.11-2.51-22.63,30.17l-24.3,96.38"/>
    <polygon class="cls-55" points="732.94 1387.62 928.93 1423.66 930.66 1409.41 733.8 1375.89 732.94 1387.62"/>
    <polygon class="cls-55" points="806.69 1373.38 932.19 1396 941.49 1350.75 812.26 1333.15 806.69 1373.38"/>
    <polyline class="cls-14" points="861.57 1382.74 821.06 1307.82 806.63 1409.94"/>
    <path class="cls-46" d="M850.18,1330.73l2,5.82s6.1,34.22-53.09,38.04c-51.46,3.32-28.02-14.28-28.02-14.28,0,0,15.2-10.67,35.51-20.58,0,0,9.34-2.65,8.3-9.28-.26-1.66,15.17,.55,35.3,.28Z"/>
    <path class="cls-46" d="M901.47,1333.21l11.54,15.39s8.74,19.55-48.56,46.82c-49.82,23.71-33.51-3.08-33.51-3.08,0,0,12.76-12.48,29.01-30.38,0,0,2.55-10.52,.7-17.45,0,0,22.34-5.52,40.82-11.31Z"/>
    <path class="cls-49" d="M851.6,1333.94s11.99,15.35,7.77,26.91c0,0-3.69,17.38-43.22,15.73,0,0-55.45,24.21-60.38-3.73,0,0-4.97-16.7,37.09-25.87,0,0-17.66,19.87,14.64,12.17,0,0,36.08-3.91,44.11-25.22Z"/>
    <path class="cls-49" d="M909.51,1342.68s18.85,12.11,17.59,26.07c0,0,1.22,20.02-45.35,32.66,0,0-56.91,46.22-71.53,18.02,0,0-11.1-16.13,34.99-41.31,0,0-14.27,27.79,20.92,7.73,0,0,40.79-17.36,43.38-43.18Z"/>
    <line class="cls-12" x1="824.21" y1="1280.35" x2="746.34" y2="1317.83"/>
    <line class="cls-3" x1="807.09" y1="1246.05" x2="807.09" y2="1328.47"/>
    <line class="cls-12" x1="818.41" y1="1284.17" x2="752.14" y2="1228.69"/>
    <line class="cls-12" x1="812.15" y1="1278.58" x2="747.8" y2="1280.75"/>
    <path class="cls-13" d="M1112.92,908.02s-17.59-.65-16.87,9.4l-1.44,45.24"/>
    <path class="cls-13" d="M917.32,908.78s-13.95-1.06-13.23,9l-1.44,45.24"/>
    <rect class="cls-55" x="1112.95" y="901.19" width="31.59" height="14.36" transform="translate(2257.5 1816.75) rotate(-180)"/>
    <rect class="cls-55" x="917.69" y="901.19" width="31.59" height="14.36" transform="translate(1866.98 1816.75) rotate(-180)"/>
    <ellipse class="cls-64" cx="819.35" cy="1281.43" rx="11.99" ry="33"/>
    <line class="cls-12" x1="811.63" y1="1260.1" x2="767.78" y2="1164.64"/>
    <line class="cls-14" x1="820.51" y1="1255.66" x2="818.55" y2="1134.56"/>
    <line class="cls-14" x1="826.05" y1="1270.09" x2="876.56" y2="1180.18"/>
    <line class="cls-14" x1="831.34" y1="1281.43" x2="891.54" y2="1235.68"/>
    <line class="cls-14" x1="827.16" y1="1293.39" x2="893.21" y2="1286.18"/>
    <line class="cls-14" x1="822.17" y1="1298.94" x2="884.88" y2="1330.58"/>
    <rect class="cls-57" x="787.89" y="1109.65" width="183" height="82.44" transform="translate(1758.78 2301.73) rotate(-180)"/>
    <path class="cls-10" d="M891.07,1108.14s-4.31-14.36-16.51-15.08c-12.21-.72-65.34,0-65.34,0,0,0-14.36-.72-12.21,18.67"/>
    <polygon class="cls-57" points="932.84 1253.69 787.89 1192.09 933.12 1192.6 932.84 1253.69"/>
    <path class="cls-46" d="M1005.37,875.03s-3.34,42.66,25.12,52.49c0,0-6.45,26.83-6.45,39.08,0,0-54.85,33.61-97.82,16.64,0,0-.96-35.75,2.87-53.74,0,0,19.99-11.24,17.7-17.36l58.57-37.11Z"/>
    <path class="cls-46" d="M940.44,787.69s-20.84,10.93-24.24,42.49c0,0,1.13,8.57-.56,13.52s-4.89,20.71-3.38,30.16c1.51,9.45,5.66,26.09,19.73,34.24,14.07,8.15,41.66-2.48,41.66-2.48,0,0,24.23-9.88,30.44-24.07,0,0,8.11,9.89,17.34,2.91,9.23-6.98,20.03-25.74,10.68-31.62-8.02-5.05-16.37,5.52-18.57,8.62-.36,.51-.56,.82-.56,.82,0,0,.75-63.84-19.84-67.56,0,0-17.82-18.8-52.68-7.03Z"/>
    <path class="cls-55" d="M962.5,832.91s14.85-2.27,27.1,3.34c0,0-5.41-8.79-27.12-6.99,0,0-3.76,1.97,.02,3.65Z"/>
    <path class="cls-55" d="M916.85,828.62c10.5-.6,15.39,2.36,15.39,2.36,4.01-1.06,.63-3.6,.63-3.6-6.58-1.62-11.77-1.98-15.8-1.71,0,0-.79,2.98-.22,2.94Z"/>
    <path class="cls-47" d="M961.48,879.66s-7.55-2.9-16.91-.9c0,0-7.83-2.12-15.08-1.01,0,0-.06,12.87,11.77,16.51,11.83,3.64,19.95-7.1,20.23-14.6Z"/>
    <path class="cls-36" d="M959.49,880.44s-.64,11.35-15.39,10.36c-13.39-.89-12.82-10.99-12.82-10.99,0,0,15.04,1.69,28.21,.63Z"/>
    <path class="cls-29" d="M957.65,880.48s-4,5.01-15.38,3.7c0,0-7.06-.12-9.76-4.06,0,0,14.68,1.3,25.14,.36Z"/>
    <path class="cls-19" d="M939.7,854.2s-6.91,5.78-.4,10.19"/>
    <path class="cls-69" d="M938.68,910.65s17.57,1.29,29.77-3.12c0,0,7.67-1.81,20.01-9.7,0,0-6.33,10.7-28.99,14.42,0,0-7.64,1.52-17.3,1.57,0,0-4.56-1.77-3.5-3.16Z"/>
    <path class="cls-54" d="M812.96,1330.44v-15.43c-8.17-41.3-9-102.81-9-102.81-5.13-60.94,46.72-80.98,46.72-80.98l53.99-16.61c46.72,45.68,153.06,6.17,153.06,6.17,29.62,57.42-31.01,90.75-31.01,90.75,0,0-77.61,1.4-95.3,.45-34.04-1.82-30.41,21.78-30.41,21.78,24.33,55.38,25.59,101.55,25.59,101.55,0,0-13.28,17.08-34.79,9.49-21.51-7.59-32.94,4.77-42.42,5.4-9.49,.63-34.51-19.76-34.51-19.76"/>
    <rect class="cls-57" x="932.84" y="1171.25" width="183" height="82.44" transform="translate(2048.68 2424.94) rotate(-180)"/>
    <path class="cls-13" d="M1109.22,1171.59s.75-18.2-22.19-18.92c-22.94-.72-122.78,0-122.78,0,0,0-22.79,.65-22.94,18.67"/>
    <g>
      <ellipse class="cls-64" cx="1110.61" cy="1283.32" rx="11.99" ry="33"/>
      <line class="cls-12" x1="1138.06" y1="1144.66" x2="1114.02" y2="1260.73"/>
      <line class="cls-12" x1="1117.19" y1="1266.54" x2="1159.67" y2="1205.01"/>
      <line class="cls-12" x1="1118.25" y1="1277.62" x2="1166.02" y2="1246.95"/>
      <line class="cls-12" x1="1122.6" y1="1283.32" x2="1173.16" y2="1276.15"/>
      <line class="cls-12" x1="1120.91" y1="1294.6" x2="1165.77" y2="1334.12"/>
      <line class="cls-12" x1="1115.83" y1="1311.12" x2="1140.42" y2="1408.57"/>
      <line class="cls-12" x1="1108.22" y1="1309.3" x2="1083.4" y2="1434.97"/>
      <line class="cls-12" x1="1105.05" y1="1300.33" x2="1050.13" y2="1383.22"/>
      <line class="cls-12" x1="1103.46" y1="1290.3" x2="1034.82" y2="1332.01"/>
      <line class="cls-12" x1="1100.83" y1="1281.98" x2="1029.54" y2="1285.7"/>
      <line class="cls-12" x1="1101.1" y1="1271.16" x2="1043.27" y2="1199.48"/>
      <line class="cls-12" x1="1105.66" y1="1253.3" x2="1095.5" y2="1124.96"/>
      <ellipse class="cls-6" cx="1100.83" cy="1279.77" rx="71.4" ry="159.67"/>
      <ellipse class="cls-7" cx="1124.44" cy="1284.97" rx="63.3" ry="146.31"/>
    </g>
    <ellipse class="cls-58" cx="1006.05" cy="1422.14" rx="36.75" ry="36.61"/>
    <circle class="cls-29" cx="1006.64" cy="1426.07" r="15.18"/>
    <line class="cls-13" x1="982.78" y1="1248.22" x2="982.78" y2="1330.64"/>
    <path class="cls-55" d="M1011.93,1415.8s-23.86-12.29-18.8-86.04h-20.97s-9.4,76.64,31.81,95.44c0,0,13.74,8.68,7.95-9.4Z"/>
    <path class="cls-19" d="M1029.51,864.18s-4.25-7.48-10.04-.53c-5.79,6.95-6.24,9.37-6.24,9.37,0,0,8.37-11.1,10.76-1.58"/>
    <path class="cls-2" d="M964.64,844.71s6.44-9.93,15.81-.53"/>
    <path class="cls-2" d="M918.22,839.92s7.15-8.84,14.35,1.75"/>
    <path class="cls-55" d="M916.35,839.28l.8-10.6c1.29-22.68,13.8-31.64,13.8-31.64,22.02,12.37,64.29,3.29,64.29,3.29,.48,47.13,17.89,63.41,17.89,63.41,7.19-15.38,18.97-10.9,18.97-10.9,9-25.78-3.22-45.83-3.22-45.83,5.09,34.25,49.58,44.36,49.58,44.36-19.48-8.67-15.73-52.13-15.73-52.13,0,0,7.34-26.05-20.67-39.42-28.01-13.37-35.66,17.38-35.66,17.38-7.79-7.01-45.59-23.98-77.45,7.22,0,0-16.88,14.6-12.59,54.87Z"/>
    <path class="cls-54" d="M1013.3,915.07s13.32-.32,32.15,14.4c29.92,23.39,24.44,68.53,24.44,68.53,0,0-7.59,42.61-19.22,49.47l9.28,73.9s-12.63,24.29-82.99,18.59c0,0-49.56-2.96-72.11-22.22,0,0-1.81-13.15-5.9-54.88,0,0-.89-12.58-.44-32.72l-54.05-50.26,27.59-25.8s18.55-15.36,48.77-26.75c0,0,13.22-2.77,21.34-7.15,0,0-5.85,12.61-2.69,24.43,0,0,11.68,35.84,27.6,38.21,0,0,46.66-38.86,46.21-67.75Z"/>
    <path class="cls-54" d="M1014.39,917.24l-47.31,65.58,30.23,31.28,66.23-70.97s-10.73-12.98-27.88-16.8c-17.15-3.81-21.28-9.1-21.28-9.1Z"/>
    <path class="cls-54" d="M940.82,923.4l26.26,59.43-28.82,26.09-31.86-73.54s15.35-12.5,34.41-11.99Z"/>
    <path class="cls-58" d="M997.32,1014.11l66.23-70.97s-4.91-5.53-11.51-9.6l-63.67,71.28,8.94,9.29Z"/>
    <path class="cls-17" d="M1026.24,921.83s-43.98,55.85-49.61,72.06"/>
    <polygon class="cls-58" points="938.26 1008.92 945.22 1002.5 915.45 929.76 906.41 935.38 938.26 1008.92"/>
    <line class="cls-17" x1="954.15" y1="993.19" x2="926.7" y2="925.28"/>
    <polygon class="cls-29" points="1057.41 948.55 1055.91 938.62 1046.39 940.18 1047.89 950.11 1057.41 948.55"/>
    <polygon class="cls-29" points="1047.23 960.12 1045.73 950.19 1036.2 951.75 1037.7 961.68 1047.23 960.12"/>
    <polygon class="cls-29" points="1036.01 971.93 1034.51 962 1024.99 963.56 1026.49 973.49 1036.01 971.93"/>
    <polygon class="cls-29" points="1024.27 983.78 1022.85 974.41 1014.12 975.84 1015.53 985.21 1024.27 983.78"/>
    <polygon class="cls-29" points="1013.6 995.57 1012.22 986.42 1003.25 987.89 1004.63 997.04 1013.6 995.57"/>
    <polygon class="cls-29" points="909.83 943.35 916.68 945.77 918.99 938.63 912.15 936.22 909.83 943.35"/>
    <polygon class="cls-29" points="914.48 954.2 921.32 956.61 923.64 949.48 916.79 947.06 914.48 954.2"/>
    <polygon class="cls-29" points="919.72 966.39 926.56 968.8 928.88 961.67 922.04 959.26 919.72 966.39"/>
    <polygon class="cls-29" points="924.71 978.04 931.13 980.31 933.31 973.61 926.88 971.35 924.71 978.04"/>
    <polygon class="cls-29" points="929.37 989.64 935.8 991.91 937.97 985.21 931.55 982.94 929.37 989.64"/>
    <polygon class="cls-29" points="934.27 1001.02 940.7 1003.29 942.87 996.6 936.45 994.33 934.27 1001.02"/>
    <path class="cls-17" d="M992,1031.54s.9-5.42,4.52-13.1"/>
    <path class="cls-17" d="M899.19,1029.69s.52-15.64,2.74-20.85"/>
    <path class="cls-58" d="M1057.53,1115.31s-84.07,49.35-152.87-.7l-.88-10.49s50.75,46.27,153.75,2.99v8.21Z"/>
    <polygon class="cls-29" points="1055.61 1112.56 1050.6 1110 1048.27 1114.7 1053.28 1117.26 1055.61 1112.56"/>
    <polygon class="cls-29" points="1047.56 1115.75 1042.56 1113.19 1040.23 1117.89 1045.23 1120.45 1047.56 1115.75"/>
    <polygon class="cls-29" points="1039.21 1118.79 1034.21 1116.23 1031.88 1120.92 1036.88 1123.49 1039.21 1118.79"/>
    <polygon class="cls-29" points="1031.31 1121.67 1026.31 1119.11 1023.98 1123.81 1028.98 1126.37 1031.31 1121.67"/>
    <polygon class="cls-29" points="1022.96 1124.25 1017.96 1121.69 1015.63 1126.39 1020.63 1128.95 1022.96 1124.25"/>
    <polygon class="cls-29" points="1014.42 1127.04 1009.81 1123.82 1006.86 1128.16 1011.47 1131.38 1014.42 1127.04"/>
    <polygon class="cls-29" points="1005.76 1128.4 1001.15 1125.19 998.21 1129.53 1002.82 1132.74 1005.76 1128.4"/>
    <polygon class="cls-29" points="997.26 1129.62 992.65 1126.4 989.71 1130.74 994.32 1133.96 997.26 1129.62"/>
    <polygon class="cls-29" points="988.15 1130.53 983.54 1127.31 980.6 1131.65 985.2 1134.87 988.15 1130.53"/>
    <polygon class="cls-29" points="979.19 1130.98 974.58 1127.77 971.64 1132.11 976.25 1135.32 979.19 1130.98"/>
    <polygon class="cls-29" points="970.42 1132.09 966.59 1127.98 962.8 1131.61 966.63 1135.72 970.42 1132.09"/>
    <polygon class="cls-29" points="961.76 1131.03 957.93 1126.92 954.14 1130.55 957.97 1134.66 961.76 1131.03"/>
    <polygon class="cls-29" points="953.11 1129.36 949.28 1125.25 945.49 1128.88 949.32 1132.99 953.11 1129.36"/>
    <polygon class="cls-29" points="944.91 1127.39 941.08 1123.28 937.29 1126.9 941.12 1131.01 944.91 1127.39"/>
    <polygon class="cls-29" points="936.56 1125.11 932.73 1121 928.94 1124.62 932.77 1128.73 936.56 1125.11"/>
    <polygon class="cls-29" points="928.38 1122.7 925.48 1117.89 921.02 1120.65 923.92 1125.47 928.38 1122.7"/>
    <polygon class="cls-29" points="920.79 1118.91 917.89 1114.09 913.43 1116.86 916.33 1121.67 920.79 1118.91"/>
    <polygon class="cls-29" points="913.04 1114.05 910.15 1109.24 905.69 1112 908.59 1116.81 913.04 1114.05"/>
    <path class="cls-58" d="M926.6,1335.33s-11.58,17.14-34.79,9.49c-19.98-6.59-31.48,2.12-31.48,2.12,0,0-9.42,8.2-25.17-1.92-13.2-8.47-17.2-12.05-17.2-12.05l-6.31-1.68,.8-7.06s20.52,6.29,24.9,16.96c4.38,10.67,22.98-.27,22.98-.27,0,0,12.86-10.4,28.18-2.46,15.32,7.93,37.21-10.4,37.21-10.4l.88,7.27Z"/>
    <path class="cls-22" d="M827.81,1035.44s-.16,4.77-4.09,8.93"/>
    <polygon class="cls-28" points="707.25 1092.44 866.94 1153.84 1046.48 1153.84 827.48 1091.64 707.25 1092.44"/>
    <polygon class="cls-53" points="1046.48 1153.84 866.94 1153.84 707.25 1092.44 707.25 1097.11 866.19 1159.68 1046.58 1159.68 1046.48 1153.84"/>
    <g>
      <polygon class="cls-27" points="793.57 1077.29 815.58 1084.9 815.58 1109.74 793.56 1101.28 793.57 1077.29"/>
      <rect class="cls-52" x="815.58" y="1084.9" width="21.33" height="24.84"/>
      <polygon class="cls-52" points="793.57 1077.29 815.29 1077.29 836.92 1084.9 815.58 1084.9 793.57 1077.29"/>
    </g>
    <g>
      <polygon class="cls-68" points="819.66 1086.22 841.67 1093.84 841.67 1118.68 819.65 1110.21 819.66 1086.22"/>
      <rect class="cls-61" x="841.67" y="1093.84" width="21.33" height="24.84"/>
      <polygon class="cls-61" points="819.66 1086.22 841.38 1086.22 863.01 1093.84 841.67 1093.84 819.66 1086.22"/>
    </g>
    <g>
      <polygon class="cls-51" points="843.96 1095.52 865.98 1103.13 865.98 1127.97 843.96 1119.51 843.96 1095.52"/>
      <rect class="cls-43" x="865.98" y="1103.13" width="21.33" height="24.84"/>
      <polygon class="cls-43" points="843.96 1095.52 865.69 1095.52 887.31 1103.13 865.98 1103.13 843.96 1095.52"/>
    </g>
    <g>
      <polygon class="cls-68" points="797.95 1053.79 819.96 1061.41 819.96 1086.25 797.94 1077.78 797.95 1053.79"/>
      <rect class="cls-61" x="819.96" y="1061.41" width="21.33" height="24.84"/>
      <polygon class="cls-61" points="797.95 1053.79 819.67 1053.79 841.29 1061.41 819.96 1061.41 797.95 1053.79"/>
    </g>
    <g>
      <polygon class="cls-51" points="822.25 1063.08 844.26 1070.7 844.26 1095.54 822.24 1087.07 822.25 1063.08"/>
      <rect class="cls-43" x="844.26" y="1070.7" width="21.33" height="24.84"/>
      <polygon class="cls-43" points="822.25 1063.08 843.97 1063.08 865.6 1070.7 844.26 1070.7 822.25 1063.08"/>
    </g>
    <g>
      <polygon class="cls-27" points="846.11 1071.93 868.12 1079.54 868.12 1104.38 846.1 1095.92 846.11 1071.93"/>
      <rect class="cls-52" x="868.12" y="1079.54" width="21.33" height="24.84"/>
      <polygon class="cls-52" points="846.11 1071.93 867.83 1071.93 889.45 1079.54 868.12 1079.54 846.11 1071.93"/>
    </g>
    <g>
      <polygon class="cls-68" points="815.55 1035.15 837.56 1042.76 837.56 1067.6 815.54 1059.14 815.55 1035.15"/>
      <rect class="cls-61" x="837.56" y="1042.76" width="21.33" height="24.84"/>
      <polygon class="cls-61" points="815.55 1035.15 837.27 1035.15 858.9 1042.76 837.56 1042.76 815.55 1035.15"/>
    </g>
    <g>
      <polygon class="cls-51" points="841.55 1044.85 863.56 1052.47 863.56 1077.31 841.54 1068.84 841.55 1044.85"/>
      <rect class="cls-43" x="863.56" y="1052.47" width="21.33" height="24.84"/>
      <polygon class="cls-43" points="841.55 1044.85 863.27 1044.85 884.9 1052.47 863.56 1052.47 841.55 1044.85"/>
    </g>
    <g>
      <path class="cls-46" d="M992.33,1033.92c.01,5.63-1.86,10.38-1.86,10.38-12.87,13.22-38.28,54.65-38.28,54.65,0,0-9.65,9.92-28.44,6.08-20.79-4.25-29.15,2.2-29.15,2.2l-29.66,17.57s-5.92,5.27,5.11,6.35c0,0-1.06,6.65,7.82,4.15,0,0,2.23,3.28,5.3,2.7,1.02-.19,3.22-.52,6.09-2.44,0,0,14.53-6.9,20.45-6.8,0,0-13.44,4.06-16.83,7.69,0,0,.1,6.14,9.37,2.31,7.11-2.94,15.44-4.19,15.44-4.19,0,0,18.55,3.76,27.78-3.99l14.27-8.01s40.15-19.14,73.74-73.83"/>
      <path class="cls-20" d="M894.57,1116.79s-18.36,8.32-24.51,14.37"/>
      <path class="cls-20" d="M877.87,1135.3s11.43-8.72,23.6-13.27"/>
    </g>
    <g>
      <path class="cls-35" d="M777.2,1064.88s8.07,1.99,10.51,11.72l6.3-.66,3.43-2.32s3.43,5.09,12.16,5.2l-1.22,4.98s-3.1,23.11-11.5,26.43c-8.4,3.32-24.55-2.88-24.55-2.88,0,0-8.18-4.98-6.86-21.34l8.85-19.9,2.88-1.22Z"/>
      <path class="cls-31" d="M763.49,1082.02s-.88,3.1,1.99,3.98c2.88,.88,6.19,2.21,6.19,2.21,0,0,2.65,.44,2.99-1.22s1.22-4.09,1.22-4.09c0,0,1.11-2.76-.77-3.1,0,0-.11-2.32,1.55-2.54s3.1-4.2,1-6.3c-2.1-2.1-4.31-4.53-.44-6.08l-.77-5.53s-3.21-.44-4.09,1.77c0,0-4.2,2.32-3.98,4.76,0,0-3.54,2.32-3.1,4.42l-1.77,6.52v5.2Z"/>
      <path class="cls-26" d="M765.26,1070.29s-4.09,2.76-4.09,3.54,.88,2.32,.88,2.32l1.44,.66,1.99,.66,5.42-1.55s-6.19-3.54-5.64-5.64Z"/>
      <path class="cls-37" d="M797.44,1073.61s7.3-9.62,11.17-8.07c0,0,4.64,1,3.87,5.09s-2.88,8.18-2.88,8.18c0,0-7.3,1.22-12.16-5.2Z"/>
      <path class="cls-34" d="M772.34,1107.34s-3.65,4.76-.77,5.97c2.88,1.22,13.49,4.64,13.49,4.64,0,0,12.72-.77,11.83-7.74,0,0-7.3,2.88-24.55-2.88Z"/>
      <path class="cls-59" d="M805.92,1084.85s-13.42-2.43-17.25,.37c-3.83,2.8-4.2,7.45-4.2,7.45,0,0,0,10.91,8.04,11.72,8.04,.81,11.8-10.62,11.8-10.62,0,0,1.55-2.21,.52-3.17,0,0,2.29-3.1,1.11-5.75Z"/>
      <circle class="cls-55" cx="773.72" cy="1073.11" r="1.82"/>
    </g>
  </g>
  <g>
    <g>
      <path class="cls-55" d="M627.32,1379.85s-6.53-54.03-95.21-18.34c-63.18,25.43-131.47,19.11-124.2,40.08l24.59,33.21,81.32,4.42,81.88-25.92,31.62-33.47Z"/>
      <path class="cls-57" d="M627.32,1379.85s-11.88,13.5-30.43,20.99c-18.19,7.35-63.25,18.45-63.25,18.45,0,0-83.43,46.16-126.73-20.4l2.36,15.32s20.62,54.49,132.17,24.79c0,0,65.26-21.84,83.73-33.96,0,0,4.17-7.35,2.16-25.18Z"/>
      <path class="cls-46" d="M521.04,1265.06c.23,.77,.37,1.57,.43,2.37l6.78,33s11.09,35.11-27.77,48.69c-.39,.14,.33-.25,0,0l-27.41,15.87c-.48,.36-.98,.67-1.5,.95l-15.07,7.96c-.8,.42-1.65,.75-2.53,.97l-28.29,7.11s-4.76,.88-10.38,4.9c-1.49,1.07-4.9,4.8,.54,5.84,0,0-4.35,6.09,2.81,10.1,0,0-3.34,10.56,9.05,6.65,0,0-2.73,6.07,1.76,8.49,3.17,1.7,5.8,4.32,6.52,7.84,.98,4.82,6.08,9.71,24.74,5.78,.87-.18,1.78-.27,2.66-.25,7.06,.2,40.76,.47,55.34-11.58,0,0,25.79-20.53,56.12-21.23,21.49-.49,35.13-14.01,41.26-21.85,2.44-3.12,2.97-7.29,1.55-10.98-4.09-10.64-16.26-37.46-17.92-63.66"/>
      <path class="cls-20" d="M436.73,1418.8s1.16-7.82,13.28-10.01"/>
      <path class="cls-20" d="M427.69,1409.47s6.22-9.74,15.18-9.84"/>
      <path class="cls-20" d="M418.64,1402.82s6.7-10.78,16.59-11.43"/>
      <path class="cls-20" d="M415.83,1392.72s4.65-7.43,12.68-8.02"/>
      <path class="cls-57" d="M532.62,1421.83s-10.14-52.03-49.65-62.54l-50.39,20.46s31.64,20,47.67,54.56c0,0,26.94,2.35,52.37-12.49Z"/>
    </g>
    <path class="cls-54" d="M438.41,1177.77s121.86-47.02,217.59-33.09c95.73,13.92,67.88,125.32,67.88,125.32,0,0-71.36,104.43-90.51,149.68,0,0-74.84,27.85-127.06-15.66,0,0,24.76-92.14,56.09-128.69h0l-123.99-97.55Z"/>
    <g>
      <path class="cls-55" d="M524.53,1450.74s-19.93-50.14,74.21-61.1c67.07-7.81,123.53-45.68,127.15-23.97l-5.67,40.58-68.71,42.4-83.58,16.25-43.4-14.15Z"/>
      <path class="cls-57" d="M524.53,1450.74s16.74,6.12,36.45,3.85c19.32-2.23,63.82-13.92,63.82-13.92,0,0,94.53,.64,100.67-77.84l5.21,14.45s7.88,57.22-103.33,84.24c0,0-67.18,11.92-89,10.12,0,0-7.11-4.42-13.82-20.9Z"/>
      <path class="cls-46" d="M574.64,1328.29s4.35,33.81,38.99,31.59l31.7,3.28,19.51,1.21,30.44-5.47s17.89-11.45,23.6-7.4c5.71,4.05,9.5,4.96,4.8,17.53,0,0,.87,10.24-7.23,11.96,0,0-1.02,9.78-13.44,14.14,0,0,.46,7.8-12.98,12.24,0,0-1.68,6.95-9.23,7.8,0,0-34.96,22.99-55.65,17.33,0,0-31.2-1.37-55.11,7.81-13.49,5.18-23.98,4.34-30.91,2.39-5.61-1.58-9.94-5.96-11.48-11.57-3.04-11.09-9.41-33.06-16.76-51.06"/>
      <path class="cls-20" d="M692.34,1366.33l16.34-1.39s9.93-2.87,14.97,4.11"/>
      <path class="cls-20" d="M687.41,1375.26s26.44-3.98,28.09,2.4l.93,3.34"/>
      <path class="cls-20" d="M683.33,1388.02s15.05-2.42,19.65,7.12"/>
      <path class="cls-20" d="M681.1,1402.22s7.71-1.5,8.9,5.17"/>
      <path class="cls-57" d="M611.37,1445.16s-14-56.49,15.42-84.37l52.15-.3s-17.12,37.78-14.7,75.47c0,0-23.7,10.06-52.87,9.19Z"/>
    </g>
    <path class="cls-46" d="M340.03,728.1s-8.3,36.12-29.3,62.97c0,0-6.13,102.61,72.42,120.1,0,0,60.27-34.08,44.81-103.79l-87.93-79.27Z"/>
    <path class="cls-46" d="M499.63,618.56s13,25,1.58,79.48c0,0-4.05,12.91-3.58,20.23,.47,7.32-1.09,19.2-4.8,26.47-3.71,7.27-30.31,55.73-30.31,55.73,0,0-8.44,13.96-34.46,10.77-26.02-3.19-46.81-15.63-54.7-27.83s-28.93-33.06-29-50.21c0,0-15.89,1.46-19.71-17.94,0,0-12.95-31.08,4.83-36.36,17.78-5.28,24.4,19.24,24.4,19.24,0,0-10.85-71.02,31.04-92.51,0,0,52.53-33.12,114.71,12.92Z"/>
    <path class="cls-45" d="M416.73,749.32s13.63-1.46,28.09,5.89c0,0,13.75-.06,25.14,4.92,0,0-5.5,21.1-26.46,21.91-20.96,.81-29.59-20.31-26.77-32.71Z"/>
    <path class="cls-36" d="M419.65,751.46s-3.89,18.86,20.69,23.67c22.32,4.37,25.78-12.42,25.78-12.42,0,0-25.36-3.78-46.47-11.25Z"/>
    <path class="cls-55" d="M438.9,675.61s-20.26-10.6-40.69-6.45c0,0,12.15-12.71,42.52,.17,0,0,4.44,5.09-1.83,6.28Z"/>
    <path class="cls-55" d="M504.75,686.06c-15-5.31-23.41-2.14-23.41-2.14-5.36-3.46,.67-6.51,.67-6.51,10.28-.15,17.99,1.33,23.72,3.45,0,0-.16,5.5-.98,5.21Z"/>
    <path class="cls-29" d="M422.64,752.32s4.38,9.94,23.57,12.75c0,0,11.61,2.88,17.75-2.39,0,0-24.61-4.26-41.32-10.35Z"/>
    <path class="cls-4" d="M326.85,691.11s8.09-8.23,13.19,2.78c5.11,11.01,4.86,14.3,4.86,14.3,0,0-7.02-17.27-13.4-5.76"/>
    <path class="cls-50" d="M308.26,790.88s-76.75,2.27-112.7,32.5c0,0-41.1,39.21-44.39,78.71,0,0-13.25,45.7-4.01,119.42,0,0-15.51,45.43-22.02,228.78h0s16.73,2.36,169.87,22.6c0,0,96.21-51.32,132.94-82.17,0,0,2.08,33.78,16.47-107.88,0,0,88.52-69.42,101.22-73.17l-19.25-68.29s-7.69-61.67-28.01-85.08c0,0-33.02-24.28-54.85-36.78l-48.77,28.77-13.01,39.46-14.63-38.18s-18.14-29.39-58.87-58.69Z"/>
    <path class="cls-69" d="M429.64,810.8s-23.07-1.15-40.32-12.51c0,0-10.82-5.11-23.36-24.37,0,0,10.93,27.33,38.29,34.78,0,0,12.07,4.65,25.38,2.1,0,0-1,2.62,0,0Z"/>
    <path class="cls-9" d="M428.32,691.83s-5.02-15.38-20.69-6.25"/>
    <path class="cls-9" d="M498.18,703.45s-6.43-14.39-19.84-2.76"/>
    <path class="cls-54" d="M194.04,1234.58s-36.63-6.1-68.89,15.7c0,0-22.67,163.08,107.94,167.2,89.66,2.83,146.35,8.26,213.63-22.43l55.08,34.79s107.03,6.52,124.73-109.14c0,0-155.02-106.23-205.78-169.97-50.75-63.73-115.67-50.75-115.67-50.75,0,0-81.39,20.36-111.04,134.6Z"/>
    <path class="cls-16" d="M446.71,1395.05s-98.05-63.02-121.35-103.49"/>
    <path class="cls-16" d="M194.04,1234.58s-19.54,66.79-15.86,88.87"/>
    <path class="cls-16" d="M501.78,1429.84c114.9-1.59,124.73-109.14,124.73-109.14,0,0-110.3-76.72-166.43-126.79"/>
    <path class="cls-11" d="M257.91,990.66s4.17-61.64-10.12-105.96"/>
    <path class="cls-11" d="M444.42,1082.83s12.81-85.9,12.09-130.22"/>
    <g>
      <polygon class="cls-38" points="306.4 780.68 317.85 778.87 315.72 792.33 306.4 780.68"/>
      <path class="cls-41" d="M296.72,793.48s58.79,35.78,70.41,56.09l-1.61-20.12s-43.6-28.08-59.12-48.77l-9.68,12.81Z"/>
      <path class="cls-41" d="M428.38,811.15s21.63,4.29,17.58,18l-51.67,23.19,1.28-11.91s23.1-5.53,40.59-19.11c0,0-8.82-3.35-7.77-10.17Z"/>
      <path class="cls-18" d="M381.76,887.74s15.51,68.38,8.82,201.59"/>
      <ellipse class="cls-32" cx="376.03" cy="915.72" rx="3.51" ry="3.81"/>
      <ellipse class="cls-32" cx="381.35" cy="975.95" rx="3.51" ry="3.81"/>
      <ellipse class="cls-32" cx="383.51" cy="1031.24" rx="3.51" ry="3.81"/>
      <g>
        <rect class="cls-32" x="314.84" y="1055.19" width="19.31" height="19.31" transform="translate(-676.15 577.09) rotate(-47.07)"/>
        <rect class="cls-32" x="342.04" y="1054.21" width="19.31" height="19.31" transform="translate(-666.76 596.69) rotate(-47.07)"/>
        <rect class="cls-32" x="313.87" y="1028.12" width="19.31" height="19.31" transform="translate(-656.64 567.74) rotate(-47.07)"/>
        <rect class="cls-64" x="327.91" y="1041.43" width="19.31" height="19.31" transform="translate(-661.91 582.27) rotate(-47.07)"/>
        <rect class="cls-32" x="341.06" y="1027.14" width="19.31" height="19.31" transform="translate(-647.25 587.34) rotate(-47.07)"/>
        <rect class="cls-32" x="312.79" y="1000.47" width="19.31" height="19.31" transform="translate(-636.74 558.14) rotate(-47.07)"/>
        <rect class="cls-64" x="326.83" y="1013.79" width="19.31" height="19.31" transform="translate(-642.01 572.66) rotate(-47.07)"/>
        <rect class="cls-32" x="339.98" y="999.49" width="19.31" height="19.31" transform="translate(-627.35 577.73) rotate(-47.07)"/>
        <rect class="cls-32" x="311.89" y="973.14" width="19.31" height="19.31" transform="translate(-617.02 548.76) rotate(-47.07)"/>
        <rect class="cls-64" x="325.92" y="986.46" width="19.31" height="19.31" transform="translate(-622.29 563.29) rotate(-47.07)"/>
        <rect class="cls-32" x="339.08" y="972.16" width="19.31" height="19.31" transform="translate(-607.63 568.36) rotate(-47.07)"/>
        <rect class="cls-32" x="310.91" y="945.98" width="19.31" height="19.31" transform="translate(-597.44 539.39) rotate(-47.07)"/>
        <rect class="cls-64" x="324.95" y="959.29" width="19.31" height="19.31" transform="translate(-602.71 553.91) rotate(-47.07)"/>
        <rect class="cls-32" x="338.1" y="945" width="19.31" height="19.31" transform="translate(-588.06 558.98) rotate(-47.07)"/>
        <rect class="cls-32" x="309.93" y="918.81" width="19.31" height="19.31" transform="translate(-577.86 530) rotate(-47.07)"/>
        <rect class="cls-64" x="323.97" y="932.12" width="19.31" height="19.31" transform="translate(-583.13 544.53) rotate(-47.07)"/>
        <rect class="cls-32" x="337.12" y="917.83" width="19.31" height="19.31" transform="translate(-568.48 549.6) rotate(-47.07)"/>
        <rect class="cls-32" x="308.95" y="891.64" width="19.31" height="19.31" transform="translate(-558.29 520.62) rotate(-47.07)"/>
        <rect class="cls-64" x="322.99" y="904.95" width="19.31" height="19.31" transform="translate(-563.56 535.15) rotate(-47.07)"/>
        <rect class="cls-32" x="336.14" y="890.66" width="19.31" height="19.31" transform="translate(-548.9 540.22) rotate(-47.07)"/>
        <rect class="cls-32" x="307.97" y="864.57" width="19.31" height="19.31" transform="translate(-538.78 511.28) rotate(-47.07)"/>
        <rect class="cls-64" x="322.01" y="877.88" width="19.31" height="19.31" transform="translate(-544.05 525.8) rotate(-47.07)"/>
        <rect class="cls-32" x="335.16" y="863.59" width="19.31" height="19.31" transform="translate(-529.39 530.87) rotate(-47.07)"/>
        <rect class="cls-32" x="306.99" y="837.4" width="19.31" height="19.31" transform="translate(-519.2 501.9) rotate(-47.07)"/>
        <rect class="cls-64" x="321.03" y="850.71" width="19.31" height="19.31" transform="translate(-524.47 516.42) rotate(-47.07)"/>
        <rect class="cls-32" x="334.18" y="836.42" width="19.31" height="19.31" transform="translate(-509.81 521.49) rotate(-47.07)"/>
        <rect class="cls-32" x="306.07" y="810.32" width="19.31" height="19.31" transform="translate(-499.67 492.59) rotate(-47.07)"/>
        <rect class="cls-64" x="320.11" y="823.63" width="19.31" height="19.31" transform="translate(-504.94 507.12) rotate(-47.07)"/>
        <polyline class="cls-64" points="331.69 816.86 329.36 819.47 315.22 806.32 315.91 805.58"/>
        <polygon class="cls-32" points="343.41 832.64 329.27 819.48 331.69 816.86 347.2 828.65 343.41 832.64"/>
      </g>
      <g>
        <polyline class="cls-32" points="258.23 975.32 245.38 987.34 232.83 973.91 246.25 961.36 258.31 974.23"/>
        <polygon class="cls-64" points="258.16 961.71 258.31 974.23 246.4 961.46 257.72 950.85 258.16 961.71"/>
        <polyline class="cls-32" points="257.66 950.78 246.25 961.45 233.69 948.02 247.12 935.46 257.38 946.43"/>
        <rect class="cls-32" x="210.61" y="964.21" width="18.38" height="18.38" transform="translate(-605.6 412.56) rotate(-43.08)"/>
        <rect class="cls-64" x="224.18" y="951.75" width="18.38" height="18.38" transform="translate(-593.43 418.47) rotate(-43.08)"/>
        <rect class="cls-32" x="211.47" y="938.31" width="18.38" height="18.38" transform="translate(-587.68 406.17) rotate(-43.08)"/>
        <rect class="cls-32" x="184.74" y="963.34" width="18.38" height="18.38" transform="translate(-611.98 394.66) rotate(-43.08)"/>
        <rect class="cls-64" x="198.31" y="950.88" width="18.38" height="18.38" transform="translate(-599.81 400.57) rotate(-43.08)"/>
        <rect class="cls-32" x="185.61" y="937.44" width="18.38" height="18.38" transform="translate(-594.06 388.27) rotate(-43.08)"/>
        <rect class="cls-64" x="172.44" y="950.02" width="18.38" height="18.38" transform="translate(-606.19 382.67) rotate(-43.08)"/>
        <rect class="cls-32" x="158.81" y="962.68" width="18.38" height="18.38" transform="translate(-618.52 376.77) rotate(-43.08)"/>
        <rect class="cls-32" x="159.68" y="936.79" width="18.38" height="18.38" transform="translate(-600.6 370.39) rotate(-43.08)"/>
        <rect class="cls-64" x="146.38" y="949.25" width="18.38" height="18.38" transform="translate(-612.7 364.66) rotate(-43.08)"/>
        <polyline class="cls-32" points="142.38 958.11 154.93 971.54 144.15 981.12"/>
        <polyline class="cls-32" points="145.47 935.2 155.8 945.65 142.37 958.2"/>
      </g>
    </g>
    <path class="cls-46" d="M257.91,990.66s5.56,33.37,.79,57.2c0,0,114.41,11.12,143.8,55.61l46.32,57.32s15.49,50.69,3.93,62.55c0,0-14.5,9.63-16.89-34.86,0,0-.27,44.86-8.85,46.65,0,0-12.15,3.57-17.37-11.69,0,0-3.72,13.84-10.15,13.48,0,0-16.08,5-14.48-55.59,0,0-7.15,31.78-17.48,30.19,0,0-9.86,3.95-1.64-44.65,0,0-17.31-20.6-22.87-39.67,0,0-70.03,22.36-125.65,19.18,0,0-42.9,.79-61.97-126.32,0,0,25.42-49.26,102.49-29.4Z"/>
    <line class="cls-15" x1="409.66" y1="1223.45" x2="409.28" y2="1182.51"/>
    <line class="cls-15" x1="436.55" y1="1200.28" x2="434.6" y2="1177.64"/>
    <path class="cls-15" d="M341.92,1126.84s-3.57-7.86-3.22-16.8"/>
    <path class="cls-15" d="M257.59,1047.5s-20.74-4.47-35.22,.35"/>
    <path class="cls-4" d="M458.94,699.87l9.59,25.31s4.2,18.73-7.86,19.55c-10.73,.73-10.64-1.57-10.64-1.57"/>
    <path class="cls-63" d="M348.72,698.62l7.35-.82c4.45-21.88,14.05-73.15,33.22-89.89,0,0,71.31-19.28,108.06,15.54,0,0,12.13,13.46,4.44,71.15,0,0,15.99-38.09,10.13-74.52,0,0,12.54-5.62,14.74-8.9,0,0-15.06-.27-20.87-9.14-3.41-5.2-52.77-64.39-128.24-29.25,0,0-68.4,5.85-54.93,109.92,0,0,17.14-13.06,26.12,15.92Z"/>
    <path class="cls-63" d="M401.19,760.03s.62-16.88,15.04-19.06c17.71-2.67,36.26-1.49,48.44,7.1,12.18,8.59,18.26,17.01,7.73,16.02-10.53-.99-29.8-16.74-53.53-8.53,0,0-9.89,7.87-17.68,4.47Z"/>
  </g>
  <g>
    <path class="cls-46" d="M449.39,1079.79s85.05,54.44,121.6,48.47c64.36-10.51,147.98-92.54,147.98-92.54l5.7-5.3c.2-1.17,7.13-8.75,8.18-9.32,14.44-7.92,10.99-21.71,10.99-21.71l-27.47-133.84c-.45-2.17-2.64-3.66-4.77-3.02-1.55,.47-3,2.03-3.34,6.06-.02,.28-1,1.52-1.02,1.79-.27,3.29,.59,4.47-1.21,1.7-5.8-8.91-9.16-3.83-10.82-2.45-3.63,3.04-1.16,14.26-.63,16.44,.06,.26,.09,.51,.1,.77,.1,3.4,.9,27.3,3.18,34.96,.13,.44,.17,.91,.13,1.37l-.42,5.62c-.06,.77-.39,1.49-.87,2.1-.88,1.11-2.01,3.74-.27,9.26,.26,.83,.25,1.72-.06,2.53-.81,2.12-2.06,6.98-.1,13.47,2.62,8.67,1.23,28.28,1.02,31.05-.02,.23-.05,.45-.11,.68,0,0-1.83,11.45-26.96,24.31-25.12,12.86-112.53,30.13-112.53,30.13l-28.1-23.48s-46.75,21.54-80.21,60.96Z"/>
    <path class="cls-5" d="M724.31,970.39c-6.9-4.3-7.89-16.44-7.89-16.44,0,0,.75-12.49-8.55-21.11-9.29-8.62-12.6,.18-12.6,.18,0,0-1.04,4.34,1.16,7.13,0,0-3.44,9.67-.16,16,3.28,6.33,.91,31.73,.91,31.73"/>
    <path class="cls-5" d="M709.6,1021.7c8.28,2.21,21.59,.23,21.59,.23,0,0,14.32-7.4,12.93-19.1-1.39-11.7-3.77-22.1-3.77-22.1"/>
    <path class="cls-5" d="M713.67,908.69l-7.03-35.82s-4.67-9.69-10.01-5.11c-5.34,4.58-1.95,19.07-1.95,19.07l3.32,36.34-.42,5.62"/>
    <path class="cls-46" d="M889.66,1022.19s-29.81,15.69-48.2,25.72c-15.47,8.44-27.42,.17-27.42,.17-7.77-4.09-18.53-13.29-18.53-13.29,0,0-44.14-34.32-50.31-36.5-6.17-2.19-11.66-9.44-12.2-12.51s-2.17-5.8-2.17-5.8c0,0-3.62-3.02-8.07-8.56-3.62-4.51,2.52-7.42,2.52-7.42-4.08-3.32-9.52-23.23-9.52-23.23,0,0-.72-3.58,1.47-4.95s4.85,4.39,4.85,4.39l-1.56-7.5s-1.52-3.68,1.2-4.66c2.72-.98,4.55,3.54,4.55,3.54,1.24-.83,2.36,.68,2.36,.68,6.05,8.76,11.1,30.17,11.1,30.17l15.12,17.39c18.08,10.17,47.88,23.55,47.88,23.55l18.03,8.03,31.32-24.47"/>
    <path class="cls-5" d="M737.09,958.7s-7.26-22.5-12.2-29.38c-1.02-1.42-2.32-1.59-3.4-1.17-2.25,.86-.97,4.54-.97,4.54l1.56,7.5"/>
    <path class="cls-5" d="M736.52,962.93s-9.99-14.54-16.18-25.65c0,0-1.25-2.31-3.12-1.48-.99,.44-2.02,1.93-1.19,5.6,3.33,14.69,9.23,22.58,9.23,22.58"/>
    <path class="cls-5" d="M742.84,975.76s-7.36-4.08-10.84-8.38-7.04-4.09-8.93-2.22-1.43,5.22,.18,7,6.04,6.05,6.04,6.05c0,0,3.06,2.85,3.47,6.34,.41,3.49,3.85,8.88,10.52,12.95,0,0,3.93,3.09,6.65,3.56,0,0,4.75,.59,10.33-2.61"/>
    <path class="cls-5" d="M706.64,872.87s1.89-17.68,9.72-7.34l10.86,57.81"/>
  </g>
  <polygon class="cls-29" points="668.45 885.47 599.34 832.31 608.2 818.13 668.45 885.47"/>
  <polygon class="cls-29" points="694.98 846.19 653.82 769.32 667.73 760.04 694.98 846.19"/>
  <polygon class="cls-29" points="728.88 838.42 769.5 761.26 784.98 767.58 728.88 838.42"/>
  <polygon class="cls-29" points="737.49 871.78 809.21 822.18 820.01 834.94 737.49 871.78"/>
</svg>