<?xml version="1.0" encoding="UTF-8"?>
<svg id="Layer_1" data-name="Layer 1" xmlns="http://www.w3.org/2000/svg" xmlns:xlink="http://www.w3.org/1999/xlink" viewBox="0 0 1454.94 1630.27">
  <defs>
    <style>
      .cls-1, .cls-2, .cls-3, .cls-4, .cls-5, .cls-6, .cls-7, .cls-8, .cls-9, .cls-10, .cls-11, .cls-12, .cls-13, .cls-14, .cls-15, .cls-16, .cls-17, .cls-18 {
        fill: none;
      }

      .cls-2, .cls-3 {
        stroke-width: 1.5px;
      }

      .cls-2, .cls-3, .cls-4, .cls-5, .cls-6, .cls-7, .cls-19, .cls-20, .cls-8, .cls-9, .cls-10, .cls-11, .cls-12, .cls-13, .cls-14, .cls-15, .cls-16, .cls-17, .cls-18 {
        stroke-miterlimit: 10;
      }

      .cls-2, .cls-4, .cls-19, .cls-10, .cls-16 {
        stroke: #231f20;
      }

      .cls-3 {
        stroke: #b6302e;
      }

      .cls-4, .cls-5 {
        stroke-width: 6px;
      }

      .cls-5 {
        stroke: #ed1c24;
      }

      .cls-21 {
        clip-path: url(#clippath);
      }

      .cls-6, .cls-7 {
        stroke-width: .8px;
      }

      .cls-6, .cls-13 {
        stroke: #754c29;
      }

      .cls-7, .cls-20, .cls-12 {
        stroke: #603913;
      }

      .cls-22 {
        fill: #00a79d;
      }

      .cls-23 {
        fill: #f05380;
      }

      .cls-24 {
        fill: #fff;
      }

      .cls-25 {
        fill: #f1f2f2;
      }

      .cls-26 {
        fill: #efcccd;
      }

      .cls-27 {
        fill: #803435;
      }

      .cls-28 {
        fill: #98b369;
      }

      .cls-29 {
        fill: #00a651;
      }

      .cls-30 {
        fill: #8c3333;
      }

      .cls-31 {
        fill: #b6302e;
      }

      .cls-32 {
        fill: #8b5e3c;
      }

      .cls-33 {
        fill: #8dc63f;
      }

      .cls-34 {
        fill: #ae8578;
      }

      .cls-35 {
        fill: #a97c50;
      }

      .cls-36, .cls-20 {
        fill: #be9e7d;
      }

      .cls-37 {
        fill: #be8c8c;
      }

      .cls-38 {
        fill: #d6e69e;
      }

      .cls-39 {
        fill: #bf6b6b;
      }

      .cls-40 {
        fill: #dc3b28;
      }

      .cls-41 {
        fill: #134a7e;
      }

      .cls-42 {
        fill: #231f20;
      }

      .cls-43 {
        fill: #1c75bc;
      }

      .cls-44 {
        fill: #414042;
      }

      .cls-45 {
        fill: #07935b;
      }

      .cls-46 {
        fill: #16a9de;
      }

      .cls-47, .cls-19 {
        fill: #9c2024;
      }

      .cls-48 {
        fill: #3c2415;
      }

      .cls-49 {
        fill: #58595b;
      }

      .cls-50 {
        fill: #4d6048;
      }

      .cls-51 {
        fill: #26130f;
      }

      .cls-52 {
        clip-path: url(#clippath-1);
      }

      .cls-53 {
        clip-path: url(#clippath-4);
      }

      .cls-54 {
        clip-path: url(#clippath-3);
      }

      .cls-55 {
        clip-path: url(#clippath-2);
      }

      .cls-8, .cls-9 {
        stroke-width: 2px;
      }

      .cls-8, .cls-14 {
        stroke: #27aae1;
      }

      .cls-9 {
        stroke: #58595b;
      }

      .cls-11 {
        stroke: #006838;
      }

      .cls-15 {
        stroke: #be1e2d;
      }

      .cls-16 {
        stroke-width: 1.2px;
      }

      .cls-56 {
        opacity: .5;
      }

      .cls-57 {
        fill: #dea962;
      }

      .cls-57, .cls-58 {
        opacity: .8;
      }

      .cls-58 {
        fill: #edb36e;
      }

      .cls-59 {
        fill: #27aae1;
        opacity: .4;
      }

      .cls-17 {
        stroke: #fff;
      }

      .cls-17, .cls-18 {
        stroke-width: .5px;
      }

      .cls-18 {
        stroke: #fff200;
      }
    </style>
    <clipPath id="clippath">
      <rect class="cls-1" x="121.17" y="289.16" width="947.41" height="217.1"/>
    </clipPath>
    <clipPath id="clippath-1">
      <rect class="cls-1" x="120.17" y="811.96" width="1152.83" height="188.42"/>
    </clipPath>
    <clipPath id="clippath-2">
      <rect class="cls-1" y="810.54" width="1321.63" height="357.74"/>
    </clipPath>
    <clipPath id="clippath-3">
      <rect class="cls-1" x="120.66" y="410.87" width="371.74" height="416.11"/>
    </clipPath>
    <clipPath id="clippath-4">
      <path class="cls-1" d="M1158.35,235.92s-1.32,5.33,28.24,34.42l5.67,11.9-4.83,18.38-12.69-2.89-13.78-36.29-5.84-23.58,3.23-1.93Z"/>
    </clipPath>
  </defs>
  <g>
    <g class="cls-56">
      <g class="cls-21">
        <path class="cls-29" d="M173.68,637.01s80.96,67.71,115.27-40.07c34.31-107.78,73.7-83.34,73.7-83.34,0,0,35.19-45.77-23.81-91.09s-116.92,39.78-116.92,39.78c0,0-29.7,72.8-65.19,12.17-35.49-60.63-105.71,5.98-61.32,46.5,44.38,40.52,66.37,70.52,78.27,116.06Z"/>
        <path class="cls-33" d="M830.92,608.61s54.16,48.64,55.34-34.96c1.18-83.6-75.35-74.48-81.24-103.36-5.89-28.88-34.14-76-109.49-76s-12.95,130.72-69.46,147.44c-56.51,16.72-103.61,132.24-28.26,121.6,75.35-10.64,153.06,38,156.59,50.16,3.53,12.16-3.53,10.64,3.53,12.16,7.06,1.52,135.4,24.32,73-117.04Z"/>
        <path class="cls-29" d="M795.73,543.02s-31-180.88,61.22-189.24c92.22-8.36,63.97,104.12,104,91.96,40.03-12.16,67.11-155.04,107.14-130.72l2.32,223.38-274.68,4.63Z"/>
        <path class="cls-22" d="M360.34,575.95s-4.71-176.32,120.09-132.24c124.8,44.08,157.76,65.36,181.31,36.48,23.55-28.88,59.9,42.56,37.01,95.76H360.34Z"/>
      </g>
    </g>
    <rect class="cls-57" x="1180.26" y="73.67" width="194.32" height="353.53" transform="translate(1527.85 -1026.99) rotate(90)"/>
    <rect class="cls-58" x="1201.28" y="-100.63" width="152.27" height="353.53" transform="translate(1353.56 -1201.28) rotate(90)"/>
    <rect class="cls-58" x="1180.26" y="268.37" width="194.32" height="353.53" transform="translate(1722.55 -832.29) rotate(90)"/>
    <rect class="cls-59" x="120.78" y="0" width="947.82" height="506.22"/>
    <rect class="cls-32" x="1068.75" y="0" width="34.92" height="542.21"/>
    <rect class="cls-32" x="577.47" y="49.53" width="34.92" height="948.3" transform="translate(71.26 1118.61) rotate(-90)"/>
    <rect class="cls-58" x="688.97" y="168.55" width="194.32" height="1331.98" transform="translate(1620.67 48.41) rotate(90)"/>
    <rect class="cls-57" x="689.95" y="-27.8" width="194.32" height="1334.04" transform="translate(1426.33 -147.89) rotate(90)"/>
  </g>
  <g class="cls-52">
    <g class="cls-55">
      <g>
        <polygon class="cls-35" points="1165.21 1630.27 1206.85 1630.27 1228.27 1165.75 1136.94 1165.75 1165.21 1630.27"/>
        <polygon class="cls-35" points="1079.93 1441.87 1121.58 1441.87 1143 977.35 1051.67 977.35 1079.93 1441.87"/>
        <polygon class="cls-38" points="1097.77 817.75 1251.16 920.61 0 920.61 0 817.75 1097.77 817.75"/>
        <path class="cls-28" d="M1251.16,920.61l64.24,260.36s-57.84,28.92-126.93-8.03c0,0-20.89,32.13-70.7,4.82,0,0-17.67,14.46-94.8-1.61,0,0-54.63-6.43-80.34,3.21,0,0-24.1,19.28-62.66-1.61,0,0-33.74,16.07-64.27,0,0,0-40.17,8.03-88.37-6.43-48.2-14.46-123.72,25.71-123.72,25.71,0,0-12.85-24.1-56.24-17.67,0,0-38.56,22.49-69.09,3.21,0,0-43.38-14.46-141.39-1.61,0,0-22.49,17.67-43.38,0,0,0-245.31,8.2-293.51-12.68v-247.68"/>
        <line class="cls-6" x1="1188.46" y1="1172.94" x2="1176.28" y2="982.07"/>
        <line class="cls-6" x1="1117.77" y1="1177.76" x2="1133.08" y2="1032.19"/>
        <line class="cls-6" x1="815.7" y1="1177.76" x2="832.48" y2="973.93"/>
        <path class="cls-6" d="M547.38,1179.36s-30.06-125.99-38-208.09"/>
        <path class="cls-6" d="M603.61,1197.04s28.92-85.4,22.29-201.93"/>
        <line class="cls-6" x1="336.9" y1="1180.97" x2="325.31" y2="1025.57"/>
        <line class="cls-6" x1="294" y1="1179.38" x2="295.64" y2="988.17"/>
        <line class="cls-6" x1="879.97" y1="1177.76" x2="873.68" y2="1060.64"/>
        <line class="cls-6" x1="942.63" y1="1179.36" x2="935.16" y2="1022.96"/>
      </g>
    </g>
  </g>
  <g>
    <path class="cls-36" d="M868.36,622.08s10.86,14.38,21.84,32.13c0,0,76.29-18.5,128.25-23.32,0,0,25.17-32.8,58.57-26.31l29.28-17.5s15.89-5.42,7.26,13.57c0,0-18.39,16.13-26.72,17.08l4.29,11.43s14.05-11.79,20-7.5c5.95,4.28,1.49,14.11,1.49,14.11,0,0,13.09-10.88,26.49-14.82,11.03-3.25,10.93-9.73,19.5-4.26,0,0,10.91,3.86-4.03,13.66l-25.12,25.72-61.19,16.43-28.57-6.66-154.63,84.51s-44.74,22.17-80.03-34.02c-22.96-36.56-26.94-71.78-26.94-71.78l90.26-22.45Z"/>
    <path class="cls-20" d="M1079.54,613.04s4.53,2.11,7.3,4.68"/>
    <path class="cls-20" d="M1062.87,654.76s9.99-7.69,18.71-7.55c0,0,3.13-12.81,9.54-18.07,6.41-5.26,11.27-11.1,20-7.5s1.49,14.11,1.49,14.11l-18.16,22.66"/>
    <path class="cls-20" d="M1112.61,635.75s13.06-18.7,26.49-14.82c13.43,3.88-3.56,16.03-3.56,16.03l-9.3,13.73"/>
    <path class="cls-20" d="M1018.45,630.88s1.69,9.43,10.67,16.57"/>
    <path class="cls-20" d="M890.2,654.2s-31.88-4.44-43.57,16.32"/>
    <path class="cls-36" d="M608.28,344.76s-16.41,55.2-24.74,72.32c0,0,109.6,231.54,135.15,3.86,0,0-9.84-12.66-4.38-61.25l-106.03-14.94Z"/>
    <path class="cls-3" d="M562.86,648.02s5.33-51-2.09-105.39"/>
    <path class="cls-3" d="M799.12,665.64s5.38-63.2,.08-100.49"/>
    <path class="cls-36" d="M717.01,201.15s20.47,20.73,25.82,78.03c0,0-.06,13.99,2.64,21.08,2.7,7.09,4.78,19.3,3.34,27.61-1.44,8.31-12.94,64.31-12.94,64.31,0,0-4.08,16.36-30.76,21.15-26.68,4.79-51.01-1.15-62.53-10.8-11.52-9.65-38.67-23.83-43.97-40.75,0,0-15.25,6.29-24.94-11.71,0,0-22.28-26.75-6.33-37.39,15.95-10.64,29.98,11.56,29.98,11.56,0,0-32.39-66.84,2.43-100.86,0,0,41.79-48.75,117.26-22.24Z"/>
    <path class="cls-48" d="M676.77,272.91s-27.97-4.42-45.43,11.26c0,0,10.92-19.79,44.99-18.01,0,0,6.11,3.38,.44,6.75Z"/>
    <path class="cls-48" d="M741.79,263.46c-18.93-3-32.58,3.66-32.58,3.66-6.38-1.69-1.43-6.61-1.43-6.61,10.06-3.44,24.99-4.34,31.3-4.1,0,0,3.6,7.2,2.71,7.06Z"/>
    <path class="cls-10" d="M568.47,325.56s5.48-10.6,13.88-1.28c8.41,9.32,9.16,12.64,9.16,12.64,0,0-12.21-14.92-14.99-1.6"/>
    <path class="cls-51" d="M706.54,412.42s-23.14,5.9-43.64-.06c0,0-12.24-1.75-30.51-16.95,0,0,19.13,23.67,48.44,22.67,0,0,13.34,.91,25.71-5.67,0,0-.19,2.9,0,0Z"/>
    <g>
      <path class="cls-24" d="M649.12,295.32s-.13-.61,.23-1.21c1.18-1.99,4.04-5.84,9.51-6.91,6.13-1.2,10.63,3.9,12.18,5.72,.27,.32,.31,.63,.31,.63,0,0,.09,.34-.07,.62-.76,1.33-3.4,5.13-9.18,6.36-3.44,.73-8.65-.18-12.57-4.28-.27-.29-.37-.7-.4-.92Z"/>
      <circle class="cls-51" cx="661.97" cy="293.93" r="6.45"/>
      <circle class="cls-24" cx="657.44" cy="291.68" r="1.77"/>
      <path class="cls-10" d="M671.41,292.86s-10.32-13.16-22.31,1.25"/>
    </g>
    <g>
      <path class="cls-24" d="M720.55,285.4s-.18-.56,.1-1.16c.91-1.98,3.21-5.86,8.23-7.39,5.62-1.72,10.32,2.62,11.95,4.18,.28,.27,.35,.56,.35,.56,0,0,.12,.31,0,.58-.58,1.31-2.68,5.13-7.98,6.84-3.15,1.01-8.12,.67-12.18-2.79-.28-.24-.41-.62-.47-.82Z"/>
      <circle class="cls-51" cx="732.44" cy="282.84" r="6.05"/>
      <circle class="cls-24" cx="728.46" cy="281.12" r="1.69"/>
      <path class="cls-10" d="M740.98,281.19s-10.74-12.25-20.44,3.33"/>
    </g>
    <path class="cls-34" d="M678.26,355.67s11.57-6.86,27.48-6.21c0,0,12.25-5.67,24.45-5.87,0,0,3.7,21.08-14.68,30.36-18.38,9.28-34.7-6.05-37.25-18.27Z"/>
    <path class="cls-27" d="M681.74,356.38s4.23,18.43,28.13,12.68c21.7-5.21,17.94-21.62,17.94-21.62,0,0-24.18,6.98-46.07,8.93Z"/>
    <path class="cls-24" d="M684.77,355.94s7.97,7.09,26.25,1.75c0,0,11.54-2.17,14.87-9.38,0,0-23.71,6.24-41.11,7.63Z"/>
    <g>
      <path class="cls-40" d="M828.17,817.25s3.69-57.38-9.85-151.89c0,0,41.73-9.2,76.07-52.24l-36.44-86.83s-15.04-44.36-58.9-75.41c0,0-45.99-24.95-70.63-35.23l-46,41.95-7.36,54.06-27.02-54.69s-33.58,1.43-62.88-44.41c0,0-87.64,42.54-109.99,77.48,0,0-9.12,8.42-16.19,39.35,0,0-11.87,47.61-2.53,134.09,0,0,25.18,8.29,53.38,8.5l-8.51,145.3"/>
      <path class="cls-3" d="M573.94,666.6s-1.77-60.9-12.48-117.62"/>
      <path class="cls-3" d="M818.32,665.37s2.26-66.65-5.3-105.52"/>
      <polygon class="cls-30" points="576.99 404.23 590.08 401.47 588.43 417.11 576.99 404.23"/>
      <path class="cls-31" d="M566.59,419.56s74.77,44.11,92.74,59.91l-11.3-22.49s-51.92-29.81-71.03-52.75l-10.4,15.34Z"/>
      <path class="cls-31" d="M712.15,416.37c-3.36,.8,6.54,4.57,6.54,4.57-15.07,20.65-37.37,33.18-37.37,33.18l2.37,13.63,49.94-42.21c.05-7.27-3.37-9.72-8.86-11.53,0,0-7.2,1.08-12.62,2.37Z"/>
      <path class="cls-15" d="M674.77,509.38s11.21,64.68,26.94,254.2"/>
      <ellipse class="cls-26" cx="670.78" cy="566.1" rx="4.03" ry="4.37" transform="translate(-28 34.94) rotate(-2.92)"/>
      <ellipse class="cls-26" cx="676.66" cy="634.45" rx="4.03" ry="4.37" transform="translate(-31.47 35.33) rotate(-2.92)"/>
      <ellipse class="cls-26" cx="685.74" cy="713.43" rx="4.03" ry="4.37" transform="translate(-35.49 35.9) rotate(-2.92)"/>
      <g>
        <polyline class="cls-26" points="641.13 751.27 647.24 743.65 662.92 756.8"/>
        <polygon class="cls-26" points="616.73 745.52 598.89 732.18 613.22 715.11 630.29 729.44 616.73 745.52"/>
        <polyline class="cls-49" points="616.73 745.52 630.19 729.63 647.26 743.97 641.13 751.27"/>
        <rect class="cls-26" x="634.74" y="716.93" width="22.29" height="22.29" transform="translate(-327.03 754.66) rotate(-49.99)"/>
        <rect class="cls-26" x="600.73" y="688.51" width="22.29" height="22.29" transform="translate(-317.4 718.46) rotate(-49.99)"/>
        <rect class="cls-49" x="617.7" y="703.03" width="22.29" height="22.29" transform="translate(-322.47 736.65) rotate(-49.99)"/>
        <rect class="cls-26" x="632.02" y="685.78" width="22.29" height="22.29" transform="translate(-304.13 741.45) rotate(-49.99)"/>
        <rect class="cls-26" x="597.85" y="656.7" width="22.29" height="22.29" transform="translate(-294.06 704.9) rotate(-49.99)"/>
        <rect class="cls-49" x="614.82" y="671.22" width="22.29" height="22.29" transform="translate(-299.13 723.08) rotate(-49.99)"/>
        <rect class="cls-26" x="629.15" y="653.96" width="22.29" height="22.29" transform="translate(-280.8 727.89) rotate(-49.99)"/>
        <rect class="cls-26" x="595.2" y="625.24" width="22.29" height="22.29" transform="translate(-270.91 691.64) rotate(-49.99)"/>
        <rect class="cls-49" x="612.18" y="639.76" width="22.29" height="22.29" transform="translate(-275.98 709.82) rotate(-49.99)"/>
        <rect class="cls-26" x="626.5" y="622.5" width="22.29" height="22.29" transform="translate(-257.65 714.63) rotate(-49.99)"/>
        <rect class="cls-26" x="592.47" y="593.97" width="22.29" height="22.29" transform="translate(-247.94 678.39) rotate(-49.99)"/>
        <rect class="cls-49" x="609.45" y="608.5" width="22.29" height="22.29" transform="translate(-253.01 696.57) rotate(-49.99)"/>
        <rect class="cls-26" x="623.77" y="591.24" width="22.29" height="22.29" transform="translate(-234.68 701.38) rotate(-49.99)"/>
        <rect class="cls-26" x="589.74" y="562.7" width="22.29" height="22.29" transform="translate(-224.97 665.13) rotate(-49.99)"/>
        <rect class="cls-49" x="606.72" y="577.23" width="22.29" height="22.29" transform="translate(-230.03 683.32) rotate(-49.99)"/>
        <rect class="cls-26" x="621.04" y="559.97" width="22.29" height="22.29" transform="translate(-211.7 688.12) rotate(-49.99)"/>
        <rect class="cls-26" x="587.02" y="531.44" width="22.29" height="22.29" transform="translate(-201.99 651.88) rotate(-49.99)"/>
        <rect class="cls-49" x="603.99" y="545.96" width="22.29" height="22.29" transform="translate(-207.06 670.06) rotate(-49.99)"/>
        <rect class="cls-26" x="618.31" y="528.7" width="22.29" height="22.29" transform="translate(-188.73 674.87) rotate(-49.99)"/>
        <rect class="cls-26" x="584.3" y="500.28" width="22.29" height="22.29" transform="translate(-179.1 638.67) rotate(-49.99)"/>
        <rect class="cls-49" x="601.27" y="514.8" width="22.29" height="22.29" transform="translate(-184.16 656.85) rotate(-49.99)"/>
        <rect class="cls-26" x="615.59" y="497.55" width="22.29" height="22.29" transform="translate(-165.83 661.66) rotate(-49.99)"/>
        <rect class="cls-26" x="581.57" y="469.01" width="22.29" height="22.29" transform="translate(-156.12 625.41) rotate(-49.99)"/>
        <rect class="cls-49" x="598.54" y="483.53" width="22.29" height="22.29" transform="translate(-161.19 643.6) rotate(-49.99)"/>
        <rect class="cls-26" x="612.86" y="466.28" width="22.29" height="22.29" transform="translate(-142.86 648.41) rotate(-49.99)"/>
        <rect class="cls-26" x="578.91" y="437.84" width="22.29" height="22.29" transform="translate(-133.2 612.25) rotate(-49.99)"/>
        <rect class="cls-49" x="595.88" y="452.37" width="22.29" height="22.29" transform="translate(-138.27 630.43) rotate(-49.99)"/>
        <polyline class="cls-49" points="608.29 444.46 605.75 447.6 588.68 433.27 589.42 432.38"/>
        <polygon class="cls-26" points="622.72 461.96 605.65 447.63 608.29 444.46 626.86 457.14 622.72 461.96"/>
      </g>
      <g>
        <polyline class="cls-26" points="569.62 637.63 555.33 650.67 541.71 635.74 556.64 622.13 569.72 636.43"/>
        <polygon class="cls-49" points="569.71 622.67 569.72 636.43 556.8 622.24 569.38 610.73 569.71 622.67"/>
        <polyline class="cls-26" points="569.31 610.66 556.63 622.22 543.01 607.3 557.94 593.68 569.07 605.87"/>
        <rect class="cls-26" x="517.3" y="624.9" width="20.2" height="20.2" transform="translate(-290.2 521.39) rotate(-42.38)"/>
        <rect class="cls-49" x="532.39" y="611.39" width="20.2" height="20.2" transform="translate(-277.15 528.03) rotate(-42.38)"/>
        <rect class="cls-26" x="518.6" y="596.45" width="20.2" height="20.2" transform="translate(-270.69 514.83) rotate(-42.38)"/>
        <rect class="cls-26" x="488.88" y="623.6" width="20.2" height="20.2" transform="translate(-296.75 501.89) rotate(-42.38)"/>
        <rect class="cls-49" x="503.97" y="610.09" width="20.2" height="20.2" transform="translate(-283.7 508.53) rotate(-42.38)"/>
        <rect class="cls-26" x="490.19" y="595.15" width="20.2" height="20.2" transform="translate(-277.23 495.34) rotate(-42.38)"/>
        <rect class="cls-49" x="475.55" y="608.79" width="20.2" height="20.2" transform="translate(-290.25 489.04) rotate(-42.38)"/>
        <rect class="cls-26" x="460.4" y="622.52" width="20.2" height="20.2" transform="translate(-303.46 482.42) rotate(-42.38)"/>
        <rect class="cls-26" x="461.71" y="594.08" width="20.2" height="20.2" transform="translate(-283.95 475.86) rotate(-42.38)"/>
        <polyline class="cls-49" points="454.05 606.99 457.82 603.55 471.44 618.47 456.52 632.09"/>
      </g>
    </g>
    <path class="cls-36" d="M460.1,663.85s3.18,48.11,15.87,84.17c12.43,35.32,23.66,40.45,69.06,59.29,45.4,18.84,244.55,25.12,244.55,25.12,0,0,39.81,13.5,68.97,5.21,0,0-1.82,15.09,6.65,16.29,0,0,4.4,.32,12.68-12.36,0,0,7.26,7.75,14.38-11.35,0,0,9.29,8.19,14.51-7.07l1.53-9.03s9.41,8.64,13.11,4.33c3.7-4.31-4.36-15.21-4.36-15.21,0,0-6.42-19.48-17.14-20.1s-36.48-9.4-36.48-9.4l-73.59,13.52s-123.59-36.11-218.37-64.95c0,0,1.43-15.49-5.54-58.45,0,0-61.96,16.55-105.84,0Z"/>
    <path class="cls-13" d="M908,813.96s.96-15.94-11.22-21.87"/>
    <path class="cls-13" d="M891.96,830.06s4.12-28.1-8.4-26.51"/>
    <path class="cls-13" d="M877.58,841.41s8.37-29.76-7.48-27.32"/>
    <path class="cls-2" d="M700.8,292l15.48,19.7s8.9,15.38-1.53,19.45c-9.27,3.61-9.83,1.56-9.83,1.56"/>
    <path class="cls-48" d="M594.63,326.13l7.73-5.68c-4.27-22.24-12.11-70.17-.59-93.28,0,0,59.44-45.61,107.35-27.15,0,0,16.58,7.94,31.64,65.02,0,0,.28-41.9-19.28-73.81,0,0,9.59-10.11,10.39-14.04,0,0-14.23,5.57-23.11-.51-5.2-3.56-74.35-40.02-131.57,22.08,0,0-62.82,26.05-16.79,119.53,0,0,19.97-9.97,34.23,7.84Z"/>
    <path class="cls-48" d="M667.51,364.1s-4.34-16.57,9.03-22.91c16.42-7.78,34.78-12.06,49.12-7.28,14.34,4.78,22.71,11.18,12.19,13.3s-33.83-7.53-54.48,7.38c0,0-7.3,10.54-15.86,9.52Z"/>
  </g>
  <g>
    <rect class="cls-43" x="379.48" y="868.59" width="128.71" height="15.63"/>
    <polygon class="cls-43" points="323.64 854.35 379.48 868.59 508.19 868.59 447.6 853.24 323.64 854.35"/>
    <polygon class="cls-43" points="326.98 864.89 379.44 881.23 379.48 884.23 326.98 867.25 326.98 864.89"/>
    <polygon class="cls-24" points="326.98 855.4 379.48 868.59 379.48 882.13 326.98 865.16 326.98 855.4"/>
    <line class="cls-19" x1="379.48" y1="868.59" x2="508.19" y2="868.59"/>
    <polygon class="cls-19" points="394.4 856.32 425.56 856.32 451.62 864.49 418.67 864.49 394.4 856.32"/>
  </g>
  <polygon class="cls-24" points="360.12 879.89 221.6 886.72 178.2 865.61 336.92 860.1 360.12 879.89"/>
  <g>
    <rect class="cls-47" x="385.53" y="852.91" width="128.71" height="15.63"/>
    <polygon class="cls-47" points="329.69 838.67 385.53 852.91 514.24 852.91 453.65 837.55 329.69 838.67"/>
    <polygon class="cls-47" points="333.03 849.21 385.49 865.55 385.53 868.54 333.03 851.57 333.03 849.21"/>
    <polygon class="cls-24" points="333.03 839.72 385.53 852.91 385.53 866.45 333.03 849.47 333.03 839.72"/>
    <line class="cls-19" x1="385.53" y1="852.91" x2="514.24" y2="852.91"/>
    <polygon class="cls-19" points="400.45 840.64 431.61 840.64 457.67 848.81 424.72 848.81 400.45 840.64"/>
  </g>
  <g class="cls-54">
    <g>
      <rect class="cls-44" x="99.92" y="646.77" width="215.11" height="170.85"/>
      <path class="cls-36" d="M197.94,560.99s7.83,41.03-20.94,50.96c0,0,31.79,15.32,31.79,27.69,0,0-7,53.56,36.42,36.42,0,0,38.11-43.93,34.24-62.11,0,0-20.2-11.36-17.88-17.55l-63.63-35.41Z"/>
      <path class="cls-5" d="M93.72,592.25s17.77-.66,17.04,9.5l1.45,45.71"/>
      <path class="cls-5" d="M282.99,593.01s14.09-1.07,13.37,9.09l1.45,45.71"/>
      <rect class="cls-42" x="61.76" y="585.35" width="31.92" height="14.51"/>
      <rect class="cls-42" x="251.19" y="585.35" width="31.92" height="14.51"/>
      <g>
        <path class="cls-41" d="M310.42,817.59s1.75-12.18,6.13-56.99c0,0,.95-13.51,.47-35.14l26.16-27.08-12.82-41.48s-4.84-29.62-37.3-41.85c0,0-14.19-2.98-22.91-7.68,0,0,6.28,13.54,2.89,26.24,0,0-12.54,38.49-29.64,41.04,0,0-50.11-41.73-49.63-72.76,0,0-14.33-.38-34.53,15.46-45.89,35.98-53.15,82.64-53.15,82.64,0,0,5.97,27.83,47.54,44.08l-9.44,73.34"/>
        <path class="cls-41" d="M192.59,604.22l50.81,70.43-32.47,33.6-71.13-76.21s11.52-13.94,29.94-18.04c18.41-4.1,22.85-9.78,22.85-9.78Z"/>
        <path class="cls-41" d="M271.6,610.83l-28.21,63.82,30.95,28.02,34.21-78.97s-16.49-13.43-36.96-12.87Z"/>
        <path class="cls-46" d="M210.92,708.25l-71.13-76.21s5.27-5.93,12.36-10.31l68.37,76.55-9.6,9.97Z"/>
        <path class="cls-8" d="M179.87,609.14s47.23,59.98,53.27,77.38"/>
        <polygon class="cls-46" points="274.34 702.67 266.88 695.78 298.84 617.66 308.55 623.7 274.34 702.67"/>
        <line class="cls-8" x1="257.29" y1="685.78" x2="286.76" y2="612.85"/>
        <polygon class="cls-24" points="157.33 650.26 158.94 639.6 169.17 641.28 167.56 651.94 157.33 650.26"/>
        <polygon class="cls-24" points="169.37 662.94 170.98 652.28 181.21 653.96 179.6 664.62 169.37 662.94"/>
        <polygon class="cls-24" points="181.98 675.67 183.5 665.61 192.89 667.15 191.36 677.21 181.98 675.67"/>
        <polygon class="cls-24" points="193.44 688.34 194.92 678.51 204.56 680.09 203.07 689.92 193.44 688.34"/>
        <polygon class="cls-24" points="299.89 643.91 292.54 646.5 290.05 638.84 297.4 636.25 299.89 643.91"/>
        <polygon class="cls-24" points="294.26 657 286.91 659.59 284.42 651.93 291.77 649.34 294.26 657"/>
        <polygon class="cls-24" points="288.9 669.51 282 671.95 279.67 664.76 286.56 662.32 288.9 669.51"/>
        <polygon class="cls-24" points="283.89 681.97 276.99 684.4 274.66 677.21 281.55 674.78 283.89 681.97"/>
        <polygon class="cls-24" points="278.63 694.19 271.73 696.63 269.39 689.44 276.29 687 278.63 694.19"/>
        <path class="cls-14" d="M316.31,724.98s-.56-16.8-2.95-22.39"/>
      </g>
      <rect class="cls-44" x="313.38" y="795.98" width="108.75" height="21.5"/>
      <path class="cls-36" d="M260.49,470.87s21.36,10.45,25.69,42.23c0,0-.9,8.68,.95,13.64,1.85,4.95,5.53,20.78,4.27,30.37-1.26,9.59-4.98,26.51-18.95,35.14-13.98,8.63-42.15-1.32-42.15-1.32,0,0-24.75-9.29-31.42-23.45,0,0-7.91,10.22-17.43,3.43-9.52-6.79-20.96-25.43-11.69-31.64,7.96-5.33,16.69,5.11,19.01,8.18,.38,.51,.59,.81,.59,.81,0,0-2.57-64.46,18.12-68.8,0,0,17.46-19.49,53.01-8.59Z"/>
      <path class="cls-42" d="M239.49,517.17s-15.06-1.87-27.28,4.14c0,0,5.22-9.03,27.19-7.82,0,0,3.85,1.89,.09,3.69Z"/>
      <path class="cls-42" d="M285.48,511.54c-10.62-.31-15.47,2.82-15.47,2.82-4.08-.95-.74-3.61-.74-3.61,6.6-1.83,11.83-2.34,15.91-2.17,0,0,.89,2.98,.3,2.97Z"/>
      <path class="cls-37" d="M241.86,564.36s7.55-3.14,17.06-1.39c0,0,7.85-2.36,15.21-1.44,0,0,.43,13-11.42,17.01-11.85,4.01-20.35-6.6-20.84-14.17Z"/>
      <path class="cls-27" d="M243.89,565.09s.97,11.44,15.84,10.03c13.5-1.28,12.64-11.47,12.64-11.47,0,0-15.14,2.13-28.47,1.44Z"/>
      <path class="cls-24" d="M245.75,565.08s4.19,4.94,15.64,3.3c0,0,7.13-.32,9.74-4.37,0,0-14.79,1.73-25.38,1.08Z"/>
      <path class="cls-10" d="M263.13,538.03s7.15,5.64,.69,10.28"/>
      <path class="cls-51" d="M260.89,595.68s-12.84,1.13-25.29-2.98c0,0-7.8-1.61-20.49-9.23,0,0,6.7,10.62,29.69,13.74,0,0,7.76,1.32,17.51,1.09,0,0-.31-1.24-1.42-2.62Z"/>
      <path class="cls-10" d="M172.71,550.66s4.08-7.68,10.13-.82c6.04,6.86,6.57,9.29,6.57,9.29,0,0-8.77-10.97-10.91-1.3"/>
      <g>
        <path class="cls-24" d="M221.64,529.93s-.06-.44,.22-.86c.93-1.37,3.14-3.99,7.09-4.52,4.43-.59,7.42,3.25,8.44,4.62,.18,.24,.19,.46,.19,.46,0,0,.05,.24-.08,.44-.6,.91-2.65,3.51-6.83,4.14-2.49,.37-6.17-.51-8.79-3.6-.18-.22-.23-.51-.25-.68Z"/>
        <circle class="cls-51" cx="230.88" cy="529.5" r="4.62"/>
        <circle class="cls-24" cx="227.86" cy="528.95" r="1.27"/>
        <path class="cls-10" d="M237.67,529.15s-6.79-9.85-15.98-.09"/>
      </g>
      <g>
        <path class="cls-24" d="M269.98,525.79s-.12-.4,.08-.82c.66-1.39,2.31-4.1,5.86-5.14,3.98-1.16,7.26,1.93,8.39,3.04,.2,.19,.24,.4,.24,.4,0,0,.08,.22,0,.41-.42,.92-1.93,3.6-5.68,4.76-2.23,.69-5.73,.4-8.57-2.07-.2-.17-.29-.44-.32-.59Z"/>
        <circle class="cls-51" cx="278.38" cy="524.09" r="4.27"/>
        <circle class="cls-24" cx="275.43" cy="524.12" r="1.19"/>
        <path class="cls-10" d="M284.42,523s-7.47-8.73-14.44,2.18"/>
      </g>
      <path class="cls-4" d="M82.86,815.74s20.83-20.83,47.46,0"/>
      <path class="cls-9" d="M327.83,794.45s4.35-14.51,16.69-15.24c12.33-.73,66.02,0,66.02,0,0,0,14.51-.73,12.33,18.86"/>
      <path class="cls-36" d="M341.85,701.67c6.51,19.99,21.42,76.95,21.42,76.95l38.97,13.04s-18.63,34.87-65.39,34.13c0,0-12.02-3.29-16.35-11.95-11.74-23.45-22.76-97.14-22.76-97.14"/>
      <polygon class="cls-25" points="315.76 801.44 308.75 790.39 381.41 691.7 440.86 712.68 444.36 716.18 477.38 706.07 481.06 715.04 452.9 744.54 315.76 801.44"/>
      <polygon class="cls-50" points="388.49 704.46 441.39 716.81 445.8 721.21 481.06 715.04 415.82 803.2 392.02 801.44 390.7 804.97 381.88 801 315.76 801.44 388.49 704.46"/>
      <line class="cls-10" x1="441.39" y1="716.81" x2="388.4" y2="793.5"/>
      <line class="cls-10" x1="445.8" y1="721.21" x2="393.49" y2="798.63"/>
      <line class="cls-10" x1="442.3" y1="734.07" x2="459.1" y2="733.3"/>
      <path class="cls-36" d="M450.31,759.31s-.35-16.44,10.5-17.49c0,0-2.45,11.9-3.85,19.94-1.4,8.05-8.05,10.15-8.05,10.15,0,0,.35,11.9-9.8,12.25,0,0,.35,8.75-10.85,6.65,0,0-3.15,5.95-6.65,4.9,0,0-8.52-2.58-10.48-7.16s5.89-4.58,5.89-4.58l6.55,2.18s-11.35-7.42-12.22-13.09,5.24-4.58,5.24-4.58l12.65,8.95-15.05-14.62s-2.4-7.2,6.33-6.11c8.73,1.09,17.02,10.04,17.02,10.04l-9.6-13.75s-1.31-9.16,5.45-6.98c6.76,2.18,16.92,13.32,16.92,13.32Z"/>
      <path class="cls-36" d="M126.51,728.8s18.9,45.09,25.07,57.87c10.07,20.9,36.91,20.53,36.91,20.53,0,0,51.96-.36,86.2-3.36l19.49,1.28,13.06,2.45,38.15-6.73,5.92-11.83,3.26-5.1c3.26-5.1,.2-6.33,.2-6.33,0,0,3.26-1.43,3.26-5.71s-3.26-2.86-3.26-2.86c0,0,3.67-2.65,0-5.3-3.67-2.65-6.33,.2-6.33,.2l-13.14,8.76-18.72-.8s-3.15-1.66-3.15-3.96,11.24,1.02,11.24,1.02l5.14-7.26c-4.6-1.79-16.81-3.75-16.81-3.75-11.95-1.19-19.12,9.16-19.12,9.16l-18.08,8.76c-44.41-13.73-85.63-17.6-85.63-17.6l-6.41-10.13s-32.82-2.55-57.25-19.33Z"/>
      <path class="cls-20" d="M437.53,766.72s4.81,7.32,11.37,5.18"/>
      <path class="cls-20" d="M429.24,777.41s3.77,5.46,9.87,6.74"/>
      <line class="cls-20" x1="423.57" y1="786.14" x2="428.26" y2="790.8"/>
      <path class="cls-20" d="M450.31,759.31s-1.99,6.7,1.97,10.34"/>
      <path class="cls-12" d="M322.35,782.07s21.11,5.4,32.62-13.14"/>
      <path class="cls-12" d="M327.07,789.5s15.17,5.82,27.91-11.99"/>
      <polyline class="cls-12" points="331 797.9 344.28 795.6 351.51 788.93"/>
      <path class="cls-12" d="M329.82,761.69s-18.71-5.67-24.84-3.09"/>
      <path class="cls-12" d="M324.68,768.94s-9.38-3.31-11.24-1.02,4.92,5.51,8.63,4.22"/>
      <line class="cls-12" x1="345.39" y1="800.84" x2="316.96" y2="805.75"/>
      <path class="cls-42" d="M285.62,518.49l-1.82-10.68c-3.48-22.87-17.01-30.76-17.01-30.76-21.15,14.65-64.88,9.47-64.88,9.47,4.01,47.84-13.82,63.37-13.82,63.37-8.76-14.91-18.32-10.63-18.32-10.63-11.58-25.28-1.33-42.77-1.33-42.77-1.89,35.22-46.04,49.71-46.04,49.71,18.92-10.65,10.98-54.36,10.98-54.36,0,0-9.93-25.72,17.19-41.95,27.12-16.23,37.82,14.22,37.82,14.22,7.23-7.85,43.93-28.67,79.22-.07,0,0,18.51,13.19,18.01,54.44Z"/>
    </g>
  </g>
  <g>
    <path class="cls-36" d="M1288.97,207.45s5.22,43.32,22.24,65.99c0,0,36.73,115.6-58.42,139.96,0,0-75.73-3.32-53.04-105.55,0,0,15.74-10.57,12.39-27.34-3.55-17.75-2.21,.81-2.21,.81l79.03-73.87"/>
    <path class="cls-45" d="M1155.43,999.22s-17.55-165.31-.05-304.17c0,0,119.18,83.1,285.41-15.76,0,0,6.84,13,13.34,36.37l.81,284.18"/>
    <path class="cls-36" d="M1285.74,171.79s-22.94-88.59-104.21-77.74c0,0-67.5,15.51-34.55,95.95,0,0,4.5,8.38,3.81,15.7,0,0-5.86,12.26,9.74,36.22,15.6,23.97,34.87,35.75,34.87,35.75,0,0,11.85,8.61,31.79,4.56,0,0,16.15-1.47,31.48-16.72,0,0,38.31-32.11,30.31-58.05,0,0,22.49,8.85,24.52-24.32,0,0-1.69-44.95-27.75-11.34Z"/>
    <path class="cls-39" d="M1231.28,230.95s-21.13-2.29-28.48,6.35c0,0-6.65-4.38-21.55,5.18,0,0,8.2,22.51,27.57,18.45,27.65-5.8,22.45-29.98,22.45-29.98Z"/>
    <path class="cls-45" d="M1332.13,283.75s30.94,2.49,66.83,13.97c35.89,11.48,55.61,74.51,55.61,74.51l-.7,142.34c-7.79,10.06-23.11-11.22-38.71-4.94l33.15,166.03s-105.27,64.95-217.23,55.62c0,0-42.26-2.23-78.15-33.81,0,0,15.68-88.44,16.4-157.34,0,0-27.95-27.95-26.12-68.65l-38.27-28.55,12.14-66.88s7.18-45.22,55.27-63.88c0,0,17.94-3.59,30.86-10.77,0,0-8.61,49.52-3.59,68.9,0,0,33.02,36.6,97.61-1.44,0,0,35.63-37.74,34.91-85.11Z"/>
    <path class="cls-27" d="M1228.06,234.32s.71,15.92-18.35,20.36c-19.06,4.44-24.5-10.62-24.5-10.62,0,0,30.5-10.02,42.85-9.75Z"/>
    <path class="cls-51" d="M1205.92,158.95s26.1-12.91,40.14-5.9c0,0-11.66-12.88-41.86-.54,0,0-4.86,5.05,1.72,6.44Z"/>
    <path class="cls-51" d="M1139.89,169.33c.22-1.57,13.79-5.49,26.98-6.19,0,0,6.55,2.49,1.2,6.56,0,0-24.7-1.96-26.34,6.29,0,0-2.38-2.79-1.84-6.66Z"/>
    <path class="cls-10" d="M1184.13,204.58s-7.47,19.11,12.45,16.73"/>
    <path class="cls-24" d="M1223.2,234.61s-3.45,5.64-18.06,9.22c-13.45,3.3-18.36-.33-18.36-.33,0,0,19.33-6.97,36.42-8.89Z"/>
    <path class="cls-10" d="M1308.33,177.84s-9.1-13.9-15.32,13.11c0,0,7.49-12.99,11.31-4.14"/>
    <path class="cls-51" d="M1212.41,282.99s15.48,3.64,38.06-10.16c0,0,11.07-7.32,23.59-22.98,0,0-14.14,25.57-41.93,33.93,0,0-8.68,2.89-19.45,2.04,0,0,.83-.17-.27-2.82Z"/>
    <g>
      <path class="cls-24" d="M1237.99,170s-.1-.59-.63-1.01c-1.76-1.37-5.68-3.81-10.96-2.83-5.91,1.09-8.14,7.24-8.89,9.42-.13,.38-.05,.67-.05,.67,0,0,.04,.33,.28,.53,1.15,.92,4.85,3.4,10.47,2.45,3.34-.56,7.69-3.22,9.75-8.27,.14-.35,.08-.76,.04-.97Z"/>
      <circle class="cls-51" cx="1225.99" cy="173.3" r="6.21"/>
      <circle class="cls-24" cx="1229.62" cy="171.34" r="1.7"/>
      <path class="cls-16" d="M1217.15,175.67s4.59-15.43,20.43-6.76"/>
    </g>
    <g>
      <path class="cls-24" d="M1170.04,187.7s-.01-.57-.45-1.03c-1.44-1.52-4.74-4.35-9.78-4.2-5.65,.17-8.61,5.57-9.61,7.49-.17,.33-.15,.62-.15,.62,0,0-.01,.32,.19,.53,.93,1.02,4.03,3.85,9.38,3.78,3.19-.05,7.61-1.89,10.25-6.3,.18-.31,.19-.69,.17-.9Z"/>
      <circle class="cls-51" cx="1158.41" cy="189.03" r="5.82"/>
      <circle class="cls-24" cx="1162.26" cy="187.83" r="1.63"/>
      <path class="cls-16" d="M1150.11,190.16s6.02-14.49,19.67-3.26"/>
    </g>
    <path class="cls-11" d="M1402.5,465.44s-69.72-91.9-18.35-152.12"/>
    <path class="cls-11" d="M1143.2,471.47s1.98-24.24,5.89-38.73c2.52-9.34,.56-32.45,.56-32.45"/>
    <path class="cls-23" d="M1449.07,703.97s-149.29,80.84-297.17,.53l3.69-24.94s99.33,66.56,292.71-3.91l.78,28.32Z"/>
    <polygon class="cls-23" points="1143.2 471.47 1145.3 451.44 1108.35 426.47 1104.92 442.26 1143.2 471.47"/>
    <path class="cls-23" d="M1357.87,387.4s-84.17,59.76-192.27,9.42l-4.5,19.19s111.63,57.5,202.56-12.31l-5.79-16.3Z"/>
    <polyline class="cls-17" points="1447.66 696.08 1431.01 689.42 1425.89 707.72 1406.68 697.74 1400.28 716.59 1382.99 703.84 1375.31 725.46 1358.66 707.72 1347.77 727.68 1334.33 712.15 1320.88 731.56 1308.72 713.82 1297.19 732.67 1285.03 716.04 1271.58 732.11 1261.34 714.93 1243.41 729.34 1233.16 711.05 1218.44 724.35 1210.75 706.06 1193.47 716.59 1187.7 699.96 1172.98 705.5 1167.86 692.75 1156.97 698.85"/>
    <polyline class="cls-17" points="1447.57 681.8 1438.62 704.44 1419.36 692.53 1413.17 713.97 1395.28 699.67 1389.09 720.52 1371.21 705.63 1360.89 727.67 1346.44 710.4 1334.75 730.65 1320.99 713.37 1309.29 731.25 1295.54 715.16 1285.22 733.03 1274.21 715.16 1258.39 730.65 1248.07 712.18 1232.25 726.48 1223.3 708.61 1206.79 721.12 1199.23 702.65 1182.03 713.97 1177.21 695.5 1164.83 704.44 1159.33 687.17"/>
    <polyline class="cls-17" points="1325.46 411.03 1318.53 423.33 1307.04 414.37 1302.12 426.48 1290.78 419.09 1281.44 432.68 1272.26 421.37 1264.17 432.2 1256.61 421.8 1246.41 431.76 1237.79 420.94 1227.14 431.48 1218.92 419.55 1209.03 427.37 1201.81 415.35 1189.26 421.83 1183.05 409.72 1171.05 416.68 1167.34 404.33"/>
    <polyline class="cls-17" points="1328.27 419.23 1316.33 410.84 1310.65 425.67 1299.01 415.13 1292.88 430.53 1281.75 419.94 1272.35 433.01 1263.13 421.18 1256.09 432.43 1247.32 420.03 1237.88 432.57 1229.01 419.12 1219.36 429.57 1210.49 416.11 1201.3 425.99 1193.38 411.91 1180.53 420.54 1175.47 404.61 1164.76 417.25"/>
    <polyline class="cls-17" points="1110.89 431.28 1116.21 447.44 1127.97 442.19 1130.28 458.85 1143.21 454.25 1139.22 464.93 1135.04 448.22 1122.87 453.15 1119.25 437.37 1108.23 441.17"/>
    <path class="cls-36" d="M828.55,478.38s21.25,19.86,32.35,21.61c11.1,1.75,36.1,25.81,36.1,25.81l159.85-19.86,49.73-60.98,36.63,26.51s-.3,30.15,10.51,47.01c0,0-44.98,44.87-68.99,57.17-24.01,12.3-192.59-7.57-192.59-7.57l-5.75,4.99-7.59,2.54"/>
    <path class="cls-36" d="M1093.84,594.52l-18.71,11.29s-4.03-4.31-24.44,.85c0,0-5.46-.74-2.07-7.75,3.88-8.01,45.22-4.39,45.22-4.39"/>
    <path class="cls-36" d="M1163.53,644.18l168.59,13.24c65.01-22.99,121.74-126.44,121.74-126.44-54.02-.68-82.05-46.49-82.05-46.49l-64.77,86.03-149.48,28.92h0c-20.45-8.25-42.65-7.99-42.65-7.99,.47,3.07-2.11,7.11-2.11,7.11,0,0-79.7,10.45-89.12,40.1,0,0,4.44,8.09,13.32,.96,0,0-3.9,6.41-2.87,17.55,0,0,6.3,5.78,12.08-2.3,.04-.06,.08-.12,.12-.18l3.57-6.41s-1.21,8.04,.16,13.18c0,0,8.02,5.35,13.16-6.29,0,0,2.05-4.79,3.86-9.1,0,0,0,0,0,0,.03,.06,6.53,11.98,9.55,12.48,8.02,1.34,4.97-16.8,4.97-16.8l4.25-8.57c2.06-3.27,8.45-8.09,8.45-8.09,0,0,2.37-4.34,6.94-6.29,3.12-1.33,7.81,.31,7.81,.31,0,0,11.01,.89,6.56,11.24,0,0,5.77-9.79,17.18-11.24,.05,0-.46,1.46-.41,1.46,.63-.04,5.84-2.7,8.53-.84,0,0,4.04-3.44,6.56-5.62,1.99-1.72,9.11,1.51,11.26,3.6,2.69,2.61,2.37,4.49,2.37,4.49-4.26,4.73-26.7,28.02-26.7,28.02,0,0,10.8,3.42,29.13-6.03Z"/>
    <path class="cls-7" d="M1085.98,623.59s-8.07,.65-13.41,6-5.47,16.46-5.47,16.46c0,0-5.87,22.47-17.02,15.4l-.16-13.18"/>
    <path class="cls-7" d="M1073.39,614.06s-12.85,2.17-21.63,8.66-14.76,16.88-14.76,16.88c0,0-8.1,6.8-13.32-.96,0,0,8.76-29.09,89.12-40.1,0,0,2.4-2.26,2.11-7.11"/>
    <path class="cls-7" d="M1077.3,619.33s-14.85,7.45-19.05,10.89-8.34,18.03-8.34,18.03c0,0-6.95,17.39-15.78,8.9,0,0-1.91-8.87,2.87-17.55"/>
    <path class="cls-23" d="M1371.81,484.48s29.4,51.28,82.05,46.49v-16.41s-47.18-4.79-73.84-38.97l-8.2,8.89Z"/>
    <path class="cls-42" d="M1161.01,317.35c-9.93-30.61-15.16-72.78-15.16-72.78-35.3-96.4-14.42-135.89-14.42-135.89,52.22-74.43,118.77-42.06,118.77-42.06,16.64,1.36,58.41,15.18,71.25,64.67,12.84,49.49,21.89,62.99,34.81,96.72,0,0,48.93,97.46,49.52,219.45,.09,18.56,19.59,56.14,19.59,56.14,0,0-64.65,26.1-125.13-148.6-18.16-52.46-11.26-147.55-11.26-147.55,17.89,3.2,21.4-8.92,21.4-8.92,0,0,5.99-16.53-1.55-32.14-7.66-15.84-23.08,5.39-23.08,5.39-25.51-61.14-59.46-73.57-59.46-73.57-56.67,42.87-85.14,42.5-85.14,42.5,0,0-3.05,14.91-1.07,26.38,1.98,11.47,6.43,20.84,6.43,20.84,4.88,6.91,4.01,15.85,4.01,15.85-3.23,17.75,9.1,34.63,9.1,34.63,28.84,43.97,52.25,43.41,52.25,43.41,3.47,15.78-8.97,22.68-8.97,22.68"/>
    <g>
      <ellipse class="cls-18" cx="1301.89" cy="215.52" rx="12.93" ry="13.52" transform="translate(-14.86 302.33) rotate(-13.17)"/>
      <line class="cls-18" x1="1304.97" y1="228.68" x2="1314.93" y2="271.24"/>
      <line class="cls-18" x1="1313.46" y1="221.94" x2="1318.78" y2="244.69"/>
      <line class="cls-18" x1="1310.85" y1="225.49" x2="1317.77" y2="255.04"/>
      <line class="cls-18" x1="1308.03" y1="227.45" x2="1316.43" y2="263.35"/>
      <line class="cls-18" x1="1298.25" y1="228.44" x2="1305.16" y2="257.99"/>
      <line class="cls-18" x1="1301.65" y1="228.95" x2="1310.05" y2="264.84"/>
      <line class="cls-18" x1="1294.24" y1="226.44" x2="1299.56" y2="249.18"/>
    </g>
    <g class="cls-53">
      <g>
        <ellipse class="cls-18" cx="1170.47" cy="240.09" rx="12.93" ry="13.52" transform="translate(-23.92 273.03) rotate(-13.17)"/>
        <line class="cls-18" x1="1173.55" y1="253.25" x2="1183.51" y2="295.81"/>
        <line class="cls-18" x1="1182.8" y1="264.43" x2="1186.35" y2="279.6"/>
        <line class="cls-18" x1="1176.61" y1="252.02" x2="1185.01" y2="287.91"/>
        <line class="cls-18" x1="1166.83" y1="253" x2="1173.75" y2="282.55"/>
        <line class="cls-18" x1="1170.23" y1="253.51" x2="1178.63" y2="289.41"/>
        <line class="cls-18" x1="1162.82" y1="251" x2="1168.15" y2="273.75"/>
      </g>
    </g>
    <polyline class="cls-17" points="1452.21 526.97 1441.59 514.59 1426.12 523.88 1420.81 508.85 1404.9 514.59 1398.71 504.43"/>
    <polyline class="cls-17" points="1450.88 518.13 1438.5 526.97 1428.77 512.38 1413.74 519.02 1407.99 506.64"/>
    <path class="cls-7" d="M1050.69,606.66s19.48-5.07,24.44-.85l22.07-12.88"/>
    <path class="cls-7" d="M1081.61,641.73s2.97,17.79-4.97,16.8l-9.55-12.48"/>
    <path class="cls-7" d="M1140.91,619.72s17.9-14.11,20.19,2.47l-26.7,28.02"/>
  </g>
</svg>