<?xml version="1.0" encoding="UTF-8"?>
<svg id="Layer_1" data-name="Layer 1" xmlns="http://www.w3.org/2000/svg" xmlns:xlink="http://www.w3.org/1999/xlink" viewBox="0 0 1335.64 1001.5">
  <defs>
    <style>
      .cls-1, .cls-2, .cls-3, .cls-4, .cls-5, .cls-6, .cls-7, .cls-8, .cls-9 {
        fill: none;
      }

      .cls-10 {
        fill: url(#linear-gradient);
      }

      .cls-11 {
        clip-path: url(#clippath);
      }

      .cls-12 {
        fill: #f7941d;
      }

      .cls-13 {
        fill: #f05380;
      }

      .cls-14 {
        fill: #fff;
      }

      .cls-15 {
        fill: #ead788;
      }

      .cls-16 {
        fill: #f1f2f2;
      }

      .cls-17 {
        fill: #803435;
      }

      .cls-18 {
        fill: #b597c0;
      }

      .cls-19 {
        fill: #9054a2;
      }

      .cls-20 {
        fill: #ba9777;
      }

      .cls-21 {
        fill: #ae8578;
      }

      .cls-22 {
        fill: #a97c50;
      }

      .cls-23, .cls-24 {
        fill: #be9e7d;
      }

      .cls-25 {
        fill: #bf6b6b;
      }

      .cls-26 {
        fill: #231f20;
      }

      .cls-27 {
        fill: #1c75bc;
      }

      .cls-28 {
        fill: #07935b;
      }

      .cls-29 {
        fill: #6ca442;
      }

      .cls-30, .cls-31 {
        fill: #754c29;
      }

      .cls-32 {
        fill: #26130f;
      }

      .cls-2 {
        stroke-width: .7px;
      }

      .cls-2, .cls-24, .cls-31, .cls-3, .cls-4, .cls-5, .cls-6, .cls-7, .cls-8, .cls-9 {
        stroke-miterlimit: 10;
      }

      .cls-2, .cls-24, .cls-7 {
        stroke: #603913;
      }

      .cls-31 {
        stroke: #8b5e3c;
      }

      .cls-3 {
        stroke-width: 2px;
      }

      .cls-3, .cls-4, .cls-8 {
        stroke: #231f20;
      }

      .cls-5 {
        stroke: #006838;
      }

      .cls-6 {
        stroke: #fff;
      }

      .cls-8 {
        stroke-width: 1.2px;
      }

      .cls-33 {
        fill: #dea962;
      }

      .cls-33, .cls-34 {
        opacity: .8;
      }

      .cls-34 {
        fill: #edb36e;
      }

      .cls-9 {
        stroke: #fff200;
        stroke-width: .5px;
      }
    </style>
    <clipPath id="clippath">
      <path class="cls-1" d="M1089.02,303.55s1.24,3.67-18.73,25.18l-3.5,8.54,4.48,12.64,9.08-2.53,8.11-25.91,3.01-16.71-2.45-1.22Z"/>
    </clipPath>
    <linearGradient id="linear-gradient" x1="1238.02" y1="438.54" x2="1238.02" y2="282.94" gradientTransform="translate(-937.53 -382.72) rotate(8.31)" gradientUnits="userSpaceOnUse">
      <stop offset="0" stop-color="#be9e7d"/>
      <stop offset=".7" stop-color="#231f20"/>
    </linearGradient>
  </defs>
  <g>
    <rect class="cls-34" x="593.14" y="-157.08" width="149.56" height="1332.82" transform="translate(1177.25 -158.6) rotate(90)"/>
    <rect class="cls-33" x="593.14" y="-306.15" width="149.56" height="1332.82" transform="translate(1028.18 -307.67) rotate(90)"/>
    <rect class="cls-34" x="593.14" y="-455.93" width="149.56" height="1332.82" transform="translate(878.4 -457.45) rotate(90)"/>
    <rect class="cls-33" x="600.44" y="-597.71" width="134.97" height="1332.82" transform="translate(736.62 -599.22) rotate(90)"/>
    <rect class="cls-33" x="593.14" y="-7.23" width="149.56" height="1332.82" transform="translate(1327.1 -8.75) rotate(90)"/>
    <rect class="cls-29" y="733.52" width="1333.94" height="266.59"/>
    <g>
      <path class="cls-15" d="M.22,1.57V95.83s20.42,91.12,23.56,125.68c0,0,18.85-171.24,11-221.51L.22,1.57Z"/>
      <path class="cls-15" d="M1333.99,1.57V95.83s-20.42,91.12-23.56,125.68C1310.42,221.51,1291.57,50.27,1299.43,0l34.56,1.57Z"/>
      <path class="cls-15" d="M86.63,0s-6.28,157.1-29.85,230.93c0,0-26.71-179.09-21.99-230.93h51.84Z"/>
      <path class="cls-15" d="M234.3,0s-6.28,157.1-29.85,230.93c0,0-26.71-179.09-21.99-230.93h51.84Z"/>
      <path class="cls-15" d="M185.6,0s-6.28,133.59-29.85,196.37c0,0-26.71-152.29-21.99-196.37h51.84Z"/>
      <path class="cls-15" d="M135.33,0s-6.28,122.9-29.85,180.66c0,0-26.71-140.11-21.99-180.66h51.84Z"/>
      <path class="cls-15" d="M234.3,0s-11,163.38,6.28,208.94c0,0-4.71-177.52,26.71-208.94h-32.99Z"/>
      <path class="cls-15" d="M315.99,0s-6.28,157.1-29.85,230.93c0,0-26.71-179.09-21.99-230.93h51.84Z"/>
      <path class="cls-15" d="M463.66,0s-6.28,157.1-29.85,230.93c0,0-26.71-179.09-21.99-230.93h51.84Z"/>
      <path class="cls-15" d="M414.96,0s-6.28,133.59-29.85,196.37c0,0-26.71-152.29-21.99-196.37h51.84Z"/>
      <path class="cls-15" d="M364.69,0s-6.28,122.9-29.85,180.66c0,0-26.71-140.11-21.99-180.66h51.84Z"/>
      <path class="cls-15" d="M463.66,0s-11,163.38,6.28,208.94c0,0-4.71-177.52,26.71-208.94h-32.99Z"/>
      <path class="cls-15" d="M542.21,0s-6.28,157.1-29.85,230.93c0,0-26.71-179.09-21.99-230.93h51.84Z"/>
      <path class="cls-15" d="M689.88,0s-6.28,157.1-29.85,230.93c0,0-26.71-179.09-21.99-230.93h51.84Z"/>
      <path class="cls-15" d="M641.18,0s-6.28,133.59-29.85,196.37c0,0-26.71-152.29-21.99-196.37h51.84Z"/>
      <path class="cls-15" d="M590.91,0s-6.28,122.9-29.85,180.66c0,0-26.71-140.11-21.99-180.66h51.84Z"/>
      <path class="cls-15" d="M689.88,0s-11,163.38,6.28,208.94c0,0-4.71-177.52,26.71-208.94h-32.99Z"/>
      <path class="cls-15" d="M771.57,0s-6.28,157.1-29.85,230.93c0,0-26.71-179.09-21.99-230.93h51.84Z"/>
      <path class="cls-15" d="M919.25,0s-6.28,157.1-29.85,230.93c0,0-26.71-179.09-21.99-230.93h51.84Z"/>
      <path class="cls-15" d="M870.55,0s-6.28,133.59-29.85,196.37c0,0-26.71-152.29-21.99-196.37h51.84Z"/>
      <path class="cls-15" d="M820.28,0s-6.28,122.9-29.85,180.66c0,0-26.71-140.11-21.99-180.66h51.84Z"/>
      <path class="cls-15" d="M919.25,0s-11,163.38,6.28,208.94c0,0-4.71-177.52,26.71-208.94h-32.99Z"/>
      <path class="cls-15" d="M1000.94,0s-6.28,157.1-29.85,230.93c0,0-26.71-179.09-21.99-230.93h51.84Z"/>
      <path class="cls-15" d="M1148.61,0s-6.28,157.1-29.85,230.93c0,0-26.71-179.09-21.99-230.93h51.84Z"/>
      <path class="cls-15" d="M1099.91,0s-6.28,133.59-29.85,196.37c0,0-26.71-152.29-21.99-196.37h51.84Z"/>
      <path class="cls-15" d="M1049.64,0s-6.28,122.9-29.85,180.66c0,0-26.71-140.11-21.99-180.66h51.84Z"/>
      <path class="cls-15" d="M1302.57,0s-6.28,157.1-29.85,230.93c0,0-26.71-179.09-21.99-230.93h51.84Z"/>
      <path class="cls-15" d="M1253.87,0s-6.28,133.59-29.85,196.37c0,0-26.71-152.29-21.99-196.37h51.84Z"/>
      <path class="cls-15" d="M1203.6,0s-6.28,122.9-29.85,180.66c0,0-26.71-140.11-21.99-180.66h51.84Z"/>
      <path class="cls-15" d="M1148.61,0s-11,163.38,6.28,208.94c0,0-4.71-177.52,26.71-208.94h-32.99Z"/>
    </g>
  </g>
  <rect class="cls-1" x="54.63" y="73.8" width="1179.9" height="926.11"/>
  <rect class="cls-1" x="75.22" y="52.81" width="1182.48" height="946.39"/>
  <g>
    <polyline class="cls-23" points="1114.54 436.11 1135.17 461.02 1104.42 482.04 1089.64 460.63"/>
    <path class="cls-28" d="M930.12,591.84s-26.35,51.59-12.55,151.66c0,0,6.92,86.58,2.59,111.28,0,0-17.9,68.28-5.51,146.24,0,0,114.52,1.33,153.52-.49l1.24-112.98s1.31-36.11,4.27-88.83l28.35-177"/>
    <path class="cls-23" d="M1059.37,331.05s-9.65,18.85-6.53,25.09c3.12,6.24,19.13,21.89,17.57,35.94-1.56,14.04-32.77,7.8-32.77,7.8,0,0-49.61-28.01-64.21-68.24,0,0,7.73-11.1,20.21-50.1"/>
    <path class="cls-28" d="M973.43,331.64s-51.89,3.02-61.22,83.58c0,0,27.19,35.13,68.25,33.57l-50.35,143.05s131.44,66.46,171.9,29.91l-.3-142.44,3.84-31.6,10.19-14.03s-22.42-80.19-65.12-80.19c0,0,21.35,39.01-3.28,35.89-24.64-3.12-50.92-15.6-73.91-57.73Z"/>
    <path class="cls-5" d="M1105.56,447.7s1.18-16.24-6.2-35.74"/>
    <path class="cls-5" d="M980.47,448.79s14.63-19.1,12.26-43.32"/>
    <path class="cls-13" d="M930.12,591.84s42.44,62.28,171.9,29.91l.6-12.99s-112.99,29.42-168.61-27.81l-3.89,10.89Z"/>
    <polyline class="cls-6" points="934.72 584.86 938.05 598.18 954.1 599.09 963.18 614.84 979.24 610.6 992.56 624.53 1006.19 616.96 1024.36 628.47 1034.35 619.99 1047.98 626.95 1060.4 617.87 1075.85 624.53 1085.23 616.05 1095.23 621.2 1100.07 613.33"/>
    <polyline class="cls-6" points="1093.41 615.14 1086.75 622.11 1074.03 616.96 1060.7 626.05 1044.95 619.08 1034.96 627.86 1023.15 619.99 1006.49 627.26 992.86 615.14 977.12 619.99 966.21 606.97 949.86 606.66 942.89 592.13 932.6 591.82"/>
    <path class="cls-13" d="M1000.79,395.58v12.91s55.51,37.44,89.93,16.35l-3.44-14.2s-12.48,26.25-86.49-15.06Z"/>
    <polyline class="cls-6" points="1003.98 401.11 1007.44 409.89 1013.71 406.44 1023.75 417.11 1031.28 413.34 1045.4 425.26 1056.38 419.62 1069.55 429.34 1076.46 421.18 1087.75 424.32"/>
    <polyline class="cls-6" points="1085.24 418.05 1078.97 427.14 1069.24 422.13 1056.06 426.2 1046.02 417.42 1032.22 420.56 1023.44 410.83 1014.02 413.97 1009 404.24 1003.04 407.38"/>
    <polygon class="cls-13" points="1115.75 433.67 1114.04 428.75 1105.78 435.62 1106.35 448.43 1115.75 433.67"/>
    <path class="cls-23" d="M996.38,262.07s12.77-63.47,70.6-58.96c0,0,48.28,8.34,28.13,66.44,0,0-2.86,6.1-2.08,11.24,0,0,4.62,8.43-5.48,25.97-10.09,17.54-23.24,26.61-23.24,26.61,0,0-8.04,6.54-22.28,4.45,0,0-11.47-.41-22.89-10.59,0,0-28.31-21.2-23.66-39.83,0,0-15.54,7.12-18.26-16.23,0,0-.55-31.82,19.17-9.09Z"/>
    <path class="cls-25" d="M1037.15,301.76s14.84-2.44,20.36,3.38c0,0,4.53-3.35,15.42,2.83,0,0-4.92,16.22-18.76,14.1-19.76-3.03-17.02-20.31-17.02-20.31Z"/>
    <path class="cls-17" d="M1039.56,304.01s.11,11.28,13.75,13.67c13.64,2.4,16.9-8.45,16.9-8.45,0,0-21.93-5.89-30.65-5.22Z"/>
    <path class="cls-32" d="M1052.27,249.91s-18.94-8.11-28.58-2.61c0,0,7.74-9.55,29.55-2,0,0,3.63,3.38-.96,4.62Z"/>
    <path class="cls-32" d="M1099.32,254.68c-.21-1.1-9.95-3.34-19.3-3.33,0,0-4.53,2.02-.59,4.68,0,0,17.37-2.34,18.85,3.42,0,0,1.57-2.06,1.04-4.77Z"/>
    <path class="cls-4" d="M1069.43,281.3s6.02,13.21-8.15,12.3"/>
    <path class="cls-14" d="M1043,304.03s2.66,3.85,13.11,5.81c9.63,1.81,12.96-.94,12.96-.94,0,0-13.92-4.18-26.07-4.87Z"/>
    <path class="cls-4" d="M980.66,267.23s5.89-10.17,11.33,8.67c0,0-5.8-8.88-8.15-2.49"/>
    <path class="cls-32" d="M1052.49,337.79s-10.79,3.17-27.28-5.7c0,0-8.11-4.74-17.55-15.32,0,0,10.98,17.52,30.94,22.34,0,0,6.24,1.7,13.82,.69,0,0-.59-.09,.08-2.01Z"/>
    <g>
      <path class="cls-14" d="M1030.05,258.96s.05-.42,.41-.74c1.19-1.03,3.86-2.91,7.63-2.43,4.22,.54,6.03,4.8,6.64,6.31,.11,.26,.06,.47,.06,.47,0,0-.02,.24-.18,.38-.77,.69-3.3,2.59-7.3,2.14-2.38-.27-5.56-1.97-7.21-5.46-.12-.24-.09-.53-.06-.68Z"/>
      <circle class="cls-32" cx="1038.65" cy="260.82" r="4.4"/>
      <circle class="cls-14" cx="1036.69" cy="257.91" r="1.21"/>
      <path class="cls-4" d="M1044.99,262.16s-3.84-10.72-14.69-3.98"/>
    </g>
    <g>
      <path class="cls-14" d="M1078.73,268.83s-.01-.4,.28-.74c.96-1.13,3.18-3.26,6.75-3.35,4-.1,6.3,3.6,7.08,4.92,.14,.23,.13,.43,.13,.43,0,0,.02,.22-.11,.38-.62,.76-2.7,2.88-6.48,3.03-2.25,.09-5.45-1.04-7.49-4.05-.14-.21-.16-.48-.16-.63Z"/>
      <circle class="cls-32" cx="1087" cy="269.32" r="4.12"/>
      <circle class="cls-14" cx="1085.23" cy="266.83" r="1.15"/>
      <path class="cls-4" d="M1092.9,269.79s-4.82-10-14.02-1.54"/>
    </g>
    <path class="cls-20" d="M1226.64,448.01s-12.59,1.16-19.85,5.21l8.21,8.95,11.64-14.16Z"/>
    <path class="cls-23" d="M1206.79,453.22l-54.03,21.86s4.83,17.53,16.18,17.08c0,0,29.07-3,35.66-13.48,6.59-10.49,8.43-18.73,8.43-18.73l-6.24-6.73Z"/>
    <g>
      <path class="cls-19" d="M1265.24,532.23c1.1-9.73-8.39-34.57-8.39-34.57,0,0-8.12-22.24-19.48-29.43-11.36-7.2-29.73-10.07-29.73-10.07,0,0,1.39,24.89-25.13,29.48-26.52,4.59-31.63-26.38-31.63-26.38,0,0-22.43,9.63-26.8,15.15-4.37,5.52-11.75,23.92-12.16,28.97-.16,1.96-4.99,16.71-10.48,34.31,0,0,6.58,20.27,26.39,25.78,0,0,4.95,73.84,.08,78.39,0,0,103.42,4.97,113.66-1.74,0,0-4.89-86.18-3.5-80.04,0,0,23.52,2.35,27.17-29.84Z"/>
      <path class="cls-18" d="M1150.87,461.27s5.56,29.24,28.66,26.96c0,0,25.95-.02,28.1-30.06l3.96,.9s.21,32.56-31.29,32.65-33.77-28.65-33.77-28.65l4.34-1.79Z"/>
    </g>
    <path class="cls-23" d="M1211.01,472.27c2.07,8.27,7.25,5.26,7.25,5.26,.97,9.33,9.67,5.25,9.67,5.25,7.18,8.62,10.91,3.56,10.91,3.56,1.15,5.75,9.26,2.73,9.26,2.73l3.21-3.13s8.45-12.21,8.9-16.18c.73-6.59-11.49-9.77-11.49-9.77-2.01-9.48-11.21-7.47-11.21-7.47-6.61-8.91-12.64-3.16-12.64-3.16l-8.74,10.41s-6.01,8.87-5.11,12.48Z"/>
    <path class="cls-2" d="M1238.83,486.35s7.69-9.05,12.32-17.09"/>
    <line class="cls-2" x1="1227.92" y1="482.79" x2="1241.98" y2="464"/>
    <path class="cls-2" d="M1218.25,477.54s7.14-14.33,15.48-19.32"/>
    <path class="cls-2" d="M1216.12,459.79s4.24-6.66,10.52-11.79"/>
    <g>
      <path class="cls-23" d="M980.47,448.79c6.5,15.69,11.91,35.08,11.91,35.08,25.02-9.38,86.83-10.44,86.83-10.44l39.36-20.58s16.15,.46,22.34-1.07c6.19-1.53,13.25,8.39,13.25,8.39,0,0,6.49,4.77,5.14,7.86-1.34,3.09-8.19-.16-8.19-.16l.72,5.39c-.29,9.57-6.99,6.56-6.99,6.56-.69,12.08-6.16,8.96-6.16,8.96-2.47,8.64-5.02,9.24-5.02,9.24-5.01,.81-6.63-8.07-6.63-8.07-15.09,9.82-45.88,9.28-45.88,9.28,0,0-77.14,47.81-132.65,45.46,0,0-12.83-7.63-28.21-50.16,0,0-16.35-40.5-5.67-78.24"/>
      <path class="cls-7" d="M1151.11,467.86s-5.35-9.43-9.13-10.72c-3.78-1.28-10.35-1.7-10.35-1.7"/>
      <path class="cls-7" d="M1144.83,479.81s-2.95-13.11-12.75-14.98"/>
      <path class="cls-7" d="M1138.67,488.77s.87-15.36-5.29-14.83c-6.16,.54-15.24,5.83-15.24,5.83"/>
    </g>
    <path class="cls-13" d="M912.22,415.22s26.11,31.33,71.61,35.43l2.24-7.46s-62.28-22.75-72.35-39.53l-1.49,11.56Z"/>
    <polyline class="cls-6" points="915.57 410.75 920.42 420.07 933.1 421.56 937.95 432.38 947.28 429.77 953.99 439.84 965.18 436.48 971.14 445.43 978.98 442.82"/>
    <polyline class="cls-6" points="977.24 446.88 971.94 440.37 962.07 443.26 955.32 433.63 946.41 436.28 940.39 425.92 930.03 427.6 924.73 416.76 914.61 416.28"/>
    <path class="cls-26" d="M1084.05,372.89c5.61-21.78,14.52-63.79,14.52-63.79,20.6-68.77,3.32-95.5,3.32-95.5-41.93-49.87-88.66-24.56-88.66-24.56-12.04,1.62-41.71,12.97-48.44,48.06-6.73,35.09-12.61,44.89-20.23,68.97,0,0-30.47,70.06-24.47,155.3,.91,12.97-11.3,40.01-11.3,40.01,0,0,48.43,15.61,83.23-108.88,10.45-37.38,3.45-105.1,3.45-105.1-12.85,2.96-14.89-5.18-14.89-5.18,0,0-5.69-12.52-1.02-23.72,4.74-11.38,16.81,3.58,16.81,3.58,15.34-43.74,35.93-51.95,35.93-51.95,43.5,27.65,64.21,26.23,64.21,26.23,0,0,3.01,10.29,2.17,18.39s-3.58,14.82-3.58,14.82c-3.19,5.03-2.08,11.24-2.08,11.24,3.29,12.27-4.8,24.56-4.8,24.56-18.67,31.88-35.74,32.44-35.74,32.44-3.31,7.75-2.69,13.38-2.69,13.38"/>
    <g>
      <circle class="cls-9" cx="983.47" cy="295.13" r="9.44"/>
      <line class="cls-9" x1="981.92" y1="304.44" x2="976.91" y2="334.58"/>
      <line class="cls-9" x1="975.39" y1="300.08" x2="972.71" y2="316.18"/>
      <line class="cls-9" x1="977.47" y1="302.45" x2="973.99" y2="323.37"/>
      <line class="cls-9" x1="979.62" y1="303.71" x2="975.4" y2="329.12"/>
      <line class="cls-9" x1="986.8" y1="304" x2="983.32" y2="324.92"/>
      <line class="cls-9" x1="984.35" y1="304.5" x2="980.13" y2="329.91"/>
      <line class="cls-9" x1="989.61" y1="302.44" x2="986.93" y2="318.55"/>
    </g>
    <g class="cls-11">
      <g>
        <circle class="cls-9" cx="1080.41" cy="306.95" r="9.44"/>
        <line class="cls-9" x1="1078.86" y1="316.27" x2="1073.86" y2="346.41"/>
        <line class="cls-9" x1="1072.72" y1="324.46" x2="1070.94" y2="335.2"/>
        <line class="cls-9" x1="1076.57" y1="315.54" x2="1072.35" y2="340.95"/>
        <line class="cls-9" x1="1083.74" y1="315.83" x2="1080.27" y2="336.75"/>
        <line class="cls-9" x1="1081.3" y1="316.32" x2="1077.08" y2="341.74"/>
        <line class="cls-9" x1="1086.55" y1="314.27" x2="1083.88" y2="330.37"/>
      </g>
    </g>
  </g>
  <polygon class="cls-22" points="888.96 818.11 .92 818.11 .92 888.57 981.91 888.57 888.96 818.11"/>
  <rect class="cls-30" x=".92" y="888.28" width="980.99" height="52.5"/>
  <rect class="cls-31" x=".92" y="940.58" width="924.35" height="60.41"/>
  <polygon class="cls-14" points="324.44 833.77 388.8 867.43 614.95 867.43 551.18 832.59 324.44 833.77"/>
  <g>
    <path class="cls-23" d="M226.28,252.06s13.67,50.84-6.23,88.98c0,0-4.97,139.27,101.14,150.05,0,0,74.02-54.24,42.82-143.59l-137.73-95.43Z"/>
    <path class="cls-14" d="M476.32,817.1c-2.95-82.28-7.03-136.59-6-194.12,0,0,67.72-21.96,82.5-55.95l-71.87-114.23s-22.17-84.24-121.18-107.88c0,0-7.78,62.27-59.51,74.1,0,0-47.14-10.22-78.18-88.54,0,0-82.59,28.62-132.16,92.71-52.15,67.42-51.94,193.8-51.94,193.8,0,0,60,83.7,126.7,60.12,0,0-26.68,65.31-48.13,139.83"/>
    <path class="cls-4" d="M166.2,676.82s24.53-55.88,25.88-108.43"/>
    <line class="cls-4" x1="470.32" y1="622.98" x2="465.56" y2="525.44"/>
    <path class="cls-16" d="M360.32,341.72s57,19.47,19.36,115.55l-75.84-40.12-60.49,44.73s-48.58-79.38-35.63-110.18c0,0,7.17-30.35,19.44-23.59,0,0,10.59,69.71,73.76,83.7,0,0,61.98-19.11,57.66-68.38l1.74-1.72Z"/>
    <path class="cls-12" d="M409.17,684.27l118.16,160.65,16.25,13.78-4.8-19.69-118.16-160.65s-9.14-8.71-11.46,5.91Z"/>
    <path class="cls-23" d="M47.14,625.78s3.05,93.89,24.18,152.76c21.13,58.87,286.78,55.09,286.78,55.09,18.27,4.15,57.33,18.53,57.33,18.53,0,0,74,3,81.67,.33,7.67-2.67,5-17,5-17l8.67-.67c15.33-15,3-24,3-24l-15.67-4,19-.33c18.33-8.67,5-25,5-25,12.67-10-.33-22-.33-22l-61.41-10.43-81.12,19.66s-175.09-55.85-207.54-56.6c0,0-3.99-11.63-7.01-35.03,0,0-79.74-5.56-117.54-51.32Z"/>
    <line class="cls-7" x1="522.09" y1="781.5" x2="476.24" y2="774.04"/>
    <line class="cls-7" x1="498.09" y1="806.83" x2="475.06" y2="803.58"/>
    <line class="cls-7" x1="502.09" y1="835.5" x2="470.33" y2="828.39"/>
    <path class="cls-23" d="M421.23,122.11s21.02,26.54,5.9,86.22c0,0-7.81,14.51-7.57,32.33,0,0,3.3,31.77-8.75,56.74-16.36,33.93-36.87,46.14-36.87,46.14,0,0-15.96,11.9-34.26,5.67,0,0-29.98,5.58-52.71-14.1-22.73-19.68-58.59-76.13-58.59-76.13,0,0-23.9,2.91-27.41-21.78-3.51-24.7-11.31-44.33,5.35-56.12,16.66-11.79,29.17,29.16,29.17,29.16,0,0,8.63-11.1,8.39-28.92,0,0,.57-35.32,27.17-73.3,0,0,68.71-18.61,150.16,14.1Z"/>
    <path class="cls-21" d="M317.72,280.4s17.18-2.68,35.95,5.74c0,0,17.42-.91,32.16,4.7,0,0-5.68,27.07-32.19,29.38-26.51,2.3-38.73-23.93-35.92-39.82Z"/>
    <path class="cls-17" d="M321.54,282.93s-3.77,24.14,27.66,28.73c28.55,4.17,31.91-17.32,31.91-17.32,0,0-32.37-3.25-59.57-11.42Z"/>
    <path class="cls-26" d="M344.72,189.83s-30.1-17.55-60.5-5.84c0,0,18.11-27.26,63.24-6.91,0,0,6.58,9.34-2.75,12.76Z"/>
    <path class="cls-26" d="M427.91,198c-21.69-7.68-33.85-.32-33.85-.32-7.75-5.72,.96-12.47,.96-12.47,14.87-1.94,26.01-.36,34.3,2.74,0,0-.23,10.47-1.42,10.05Z"/>
    <path class="cls-14" d="M325.39,283.85s6.15,12.33,30.65,14.71c0,0,14.89,2.95,22.34-4.12,0,0-31.45-3.9-52.99-10.6Z"/>
    <path class="cls-32" d="M337.57,350.78s-35.66,.22-48.54-14.19c0,0-15.82-11.15-32.52-36.44,0,0,18.47,43.59,50.14,52.04,0,0,14.77,4.86,30.92-1.41,0,0-1.11,3.39,0,0Z"/>
    <path class="cls-4" d="M202.09,215.65s13.83-24.99,27.93,20.52c0,0-14.51-21.3-19.92-5.65"/>
    <path class="cls-4" d="M386.97,244.75s12.38,25.81-15.59,24.56"/>
    <g>
      <path class="cls-14" d="M306.92,202.6s.08-.84,.79-1.48c2.32-2.1,7.57-5.93,15.08-5.12,8.41,.91,12.19,9.31,13.46,12.3,.22,.52,.15,.94,.15,.94,0,0-.02,.47-.34,.77-1.51,1.41-6.46,5.28-14.43,4.54-4.75-.44-11.13-3.71-14.55-10.59-.24-.48-.2-1.05-.15-1.36Z"/>
      <circle class="cls-32" cx="324.1" cy="205.96" r="8.75"/>
      <circle class="cls-14" cx="318.81" cy="203.6" r="2.4"/>
      <path class="cls-8" d="M336.76,208.36s-8.06-21.18-29.38-7.35"/>
    </g>
    <g>
      <path class="cls-14" d="M392.24,218.58s-.04-.8,.52-1.49c1.86-2.29,6.19-6.6,13.29-6.92,7.95-.36,12.66,6.91,14.28,9.51,.28,.45,.27,.85,.27,.85,0,0,.05,.44-.21,.76-1.2,1.53-5.25,5.83-12.77,6.28-4.48,.27-10.88-1.86-15.04-7.76-.29-.41-.33-.95-.34-1.24Z"/>
      <circle class="cls-32" cx="408.7" cy="219.24" r="8.2"/>
      <circle class="cls-14" cx="403.18" cy="217.95" r="2.3"/>
      <path class="cls-8" d="M420.47,219.95s-9.97-19.7-27.95-2.52"/>
    </g>
    <path class="cls-26" d="M271.47,111.79s36.65-17.65,52.26,10.67c20.34,36.89,42.76,6.65,60.59,27.95,0,0,25.94-39.02,46.36-6.52,0,0,21.45-45.55-28.04-86.29,0,0-55.64-44.89-121.91-12.35,0,0-60.31,2.48-66.09,58.23,0,0,36.38-25.68,56.82,8.32Z"/>
    <path class="cls-10" d="M228.81,73.54s-37.92,18.52-30.29,114.91c0,0,24.1-24.23,37.65,25.57l7.84,18.99s-4.61-99.82,37.75-132.03l-52.93-27.44Z"/>
  </g>
  <g>
    <path class="cls-23" d="M656.22,717.13s-67.27,54.32-101.41,49.1-88.54-22.54-82.9-53.12l-1.59-90.13,74.36-43.54,111.54,137.69Z"/>
    <polygon class="cls-16" points="487.1 713.66 474.19 693.28 608.13 511.36 717.71 550.04 724.16 556.48 785.04 537.86 791.82 554.39 739.92 608.77 487.1 713.66"/>
    <polygon class="cls-27" points="621.18 534.89 718.69 557.64 726.81 565.77 791.82 554.39 671.56 716.91 627.68 713.66 625.24 720.16 608.99 712.85 487.1 713.66 621.18 534.89"/>
    <line class="cls-3" x1="718.69" y1="557.64" x2="621.02" y2="699.01"/>
    <line class="cls-3" x1="726.81" y1="565.77" x2="630.39" y2="708.47"/>
    <line class="cls-3" x1="727.51" y1="585.51" x2="758.47" y2="584.1"/>
    <path class="cls-23" d="M735.13,635.99s-.64-30.31,19.35-32.25c0,0-4.51,21.93-7.09,36.76-2.58,14.83-14.83,18.7-14.83,18.7,0,0,.64,21.93-18.06,22.57,0,0,.64,16.12-19.99,12.25,0,0-5.8,10.96-12.25,9.03,0,0-15.7-4.75-19.32-13.2-3.62-8.45,10.86-8.45,10.86-8.45l12.07,4.02s-20.91-13.67-22.52-24.13,9.65-8.45,9.65-8.45l23.33,16.49-27.75-26.95s-4.42-13.27,11.66-11.26c16.09,2.01,31.37,18.5,31.37,18.5l-17.7-25.34s-2.41-16.89,10.05-12.87c12.47,4.02,31.18,24.55,31.18,24.55Z"/>
    <path class="cls-24" d="M711.86,647.47s8.87,13.48,20.96,9.56"/>
    <path class="cls-24" d="M696.58,667.18s6.95,10.06,18.19,12.42"/>
    <line class="cls-24" x1="686.12" y1="683.26" x2="694.77" y2="691.85"/>
    <path class="cls-24" d="M735.4,633.81s-3.67,12.36,3.64,19.06"/>
  </g>
  <path class="cls-4" d="M1082.28,144.86s82.24,128.85,253.29,101.44"/>
</svg>