<?xml version="1.0" encoding="UTF-8"?>
<svg xmlns="http://www.w3.org/2000/svg" xmlns:xlink="http://www.w3.org/1999/xlink" viewBox="0 0 1333.83 1147.94">
  <defs>
    <style>
      .cls-1, .cls-2, .cls-3, .cls-4, .cls-5, .cls-6 {
        fill: none;
      }

      .cls-2 {
        stroke-width: 1.5px;
      }

      .cls-2, .cls-7, .cls-8, .cls-3, .cls-9, .cls-10, .cls-11, .cls-4, .cls-5, .cls-6, .cls-12 {
        stroke-miterlimit: 10;
      }

      .cls-2, .cls-9, .cls-10 {
        stroke: #231f20;
      }

      .cls-7 {
        stroke: #808285;
      }

      .cls-7, .cls-8 {
        stroke-width: 5px;
      }

      .cls-7, .cls-8, .cls-13 {
        fill: #ca3d3a;
      }

      .cls-8, .cls-11, .cls-4, .cls-6 {
        stroke: #be1e2d;
      }

      .cls-14 {
        clip-path: url(#clippath);
      }

      .cls-3 {
        stroke: #ef4136;
        stroke-linecap: round;
        stroke-width: 15px;
      }

      .cls-15, .cls-11 {
        fill: #f15953;
      }

      .cls-16 {
        fill: #e6e7e8;
      }

      .cls-17, .cls-9, .cls-10 {
        fill: #fff;
      }

      .cls-18 {
        fill: #efcccd;
      }

      .cls-19 {
        fill: #fbb040;
      }

      .cls-20 {
        fill: #e69b38;
      }

      .cls-21 {
        fill: #803435;
      }

      .cls-22 {
        fill: #69c7b9;
      }

      .cls-23 {
        fill: #8c3333;
      }

      .cls-24 {
        fill: #939598;
      }

      .cls-25 {
        fill: #b6302e;
      }

      .cls-26 {
        fill: #b8cee4;
      }

      .cls-27 {
        fill: #8b5e3c;
      }

      .cls-28 {
        fill: #ae8578;
      }

      .cls-29 {
        fill: #a7a9ac;
      }

      .cls-30 {
        fill: #be1e2d;
      }

      .cls-31 {
        fill: #be9e7d;
      }

      .cls-32 {
        fill: #d1d3d4;
      }

      .cls-33 {
        fill: #dc3b28;
      }

      .cls-34 {
        fill: #231f20;
      }

      .cls-35 {
        fill: #05997e;
      }

      .cls-36 {
        fill: #3e776f;
      }

      .cls-37 {
        fill: #6f8fc8;
      }

      .cls-38 {
        fill: #808285;
      }

      .cls-39 {
        fill: #3c2415;
      }

      .cls-40 {
        fill: #58595b;
      }

      .cls-41 {
        fill: #26130f;
      }

      .cls-9 {
        stroke-width: 4px;
      }

      .cls-42 {
        clip-path: url(#clippath-1);
      }

      .cls-4 {
        stroke-width: 2px;
      }

      .cls-5 {
        stroke: #603913;
      }

      .cls-12 {
        fill: #c49a6c;
        stroke: #8b5e3c;
        stroke-width: 3px;
      }

      .cls-43 {
        fill: #dea962;
      }

      .cls-43, .cls-44 {
        opacity: .8;
      }

      .cls-44 {
        fill: #edb36e;
      }
    </style>
    <clipPath id="clippath">
      <path class="cls-1" d="M474.51,279.26c60.6,3.87,55.71-46.98,55.71-46.98-20.62-67.76-97.23-14.73-97.23-14.73,35.35-23.57-5.89-67.76-5.89-67.76-58.92-35.35-94.28,20.62-94.28,20.62,0-85.44-67.76-79.55-67.76-79.55-88.39,0-91.33,79.55-91.33,79.55,0,0-52.66-11.25-54.67,52.26-1.6,50.42,57.62,74.43,57.62,74.43,0,0-16.77,53.08,37.38,56.95,54.15,3.87,59.31-34.81,59.31-34.81,0,0,44.51,73.5,106.46,36.52,0,0,34.08-31.36,21.19-62.31,0,0,20.63,38.68,58.02,23.21,0,0,23.03-11.98,15.47-37.39"/>
    </clipPath>
    <clipPath id="clippath-1">
      <rect class="cls-1" x="294.79" y="233.37" width="616.4" height="766.6"/>
    </clipPath>
  </defs>
  <g id="FONDO">
    <rect class="cls-43" x="578.83" y="-439.86" width="176.18" height="1333.83" transform="translate(893.97 -439.86) rotate(90)"/>
    <rect class="cls-44" x="597.89" y="-597.89" width="138.06" height="1333.83" transform="translate(735.95 -597.89) rotate(90)"/>
    <rect class="cls-44" x="578.83" y="-263.33" width="176.18" height="1333.83" transform="translate(1070.5 -263.33) rotate(90)"/>
    <rect class="cls-43" x="578.83" y="-87.17" width="176.18" height="1333.83" transform="translate(1246.67 -87.17) rotate(90)"/>
    <rect class="cls-43" x="589.38" y="254.7" width="155.08" height="1333.83" transform="translate(1588.53 254.7) rotate(90)"/>
    <rect class="cls-44" x="578.83" y="89.36" width="176.18" height="1333.83" transform="translate(1423.19 89.36) rotate(90)"/>
  </g>
  <g id="Layer_1" data-name="Layer 1">
    <path class="cls-17" d="M475.04,279.57c60.6,3.87,55.71-46.98,55.71-46.98-20.62-67.76-97.23-14.73-97.23-14.73,35.35-23.57-5.89-67.76-5.89-67.76-58.92-35.35-94.28,20.62-94.28,20.62,0-85.44-67.76-79.55-67.76-79.55-88.39,0-91.33,79.55-91.33,79.55,0,0-52.66-11.25-54.67,52.26-1.6,50.42,57.62,74.43,57.62,74.43,0,0-16.77,53.08,37.38,56.95s59.31-34.81,59.31-34.81c0,0,44.51,73.5,106.46,36.52,0,0,34.08-31.36,21.19-62.31,0,0,20.63,38.68,58.02,23.21,0,0,23.03-11.98,15.47-37.39"/>
    <path class="cls-17" d="M1224.1,528.17c67.22,4.29,61.8-52.11,61.8-52.11-22.88-75.16-107.84-16.34-107.84-16.34,39.21-26.14-6.54-75.16-6.54-75.16-65.36-39.21-104.57,22.88-104.57,22.88,0-94.77-75.16-88.23-75.16-88.23-98.04,0-101.3,88.23-101.3,88.23,0,0-58.41-12.48-60.64,57.96-1.78,55.92,63.91,82.56,63.91,82.56,0,0-18.6,58.87,41.46,63.17,60.07,4.29,65.79-38.61,65.79-38.61,0,0,49.38,81.52,118.08,40.51,0,0,37.8-34.79,23.5-69.11,0,0,22.88,42.9,64.36,25.74,0,0,25.55-13.29,17.16-41.47"/>
    <path class="cls-17" d="M695.62,217.73c-67.22,4.29-61.8-52.11-61.8-52.11,22.88-75.16,107.84-16.34,107.84-16.34-39.21-26.14,6.54-75.16,6.54-75.16,65.36-39.21,104.57,22.88,104.57,22.88,0-94.77,75.16-88.23,75.16-88.23,98.04,0,101.3,88.23,101.3,88.23,0,0,58.41-12.48,60.64,57.96,1.78,55.92-63.91,82.56-63.91,82.56,0,0,18.6,58.87-41.46,63.17-60.07,4.29-65.79-38.61-65.79-38.61,0,0-49.38,81.52-118.08,40.51,0,0-37.8-34.79-23.5-69.11,0,0-22.88,42.9-64.36,25.74,0,0-25.55-13.29-17.16-41.47"/>
    <circle class="cls-17" cx="423.73" cy="370.23" r="19.57"/>
    <circle class="cls-17" cx="472.46" cy="411.8" r="15.72"/>
    <circle class="cls-17" cx="732.59" cy="294.59" r="15.72"/>
    <circle class="cls-17" cx="765.35" cy="402.77" r="15.72"/>
    <circle class="cls-17" cx="825.07" cy="388.24" r="15.72"/>
    <g class="cls-14">
      <g>
        <path class="cls-15" d="M200.25,193.12l-42.76,1.52-3.63,7.76s45.12,105.18,90.86,130.1l5.41-.3,16.2-38.94"/>
        <path class="cls-32" d="M200.25,193.12s32.23,58.54,66.08,100.14c0,0,2.66,4.01,7.3-2.49l-21.87-33.56s-1.79-6.12-.9-13.57l4.01-3.99s-8.7-3.87-7.89-11.01l-3.7,2.73s-8.86-1.91-13.47-7.41l-18.27-29.32s-6.41-8.96-11.29-1.52Z"/>
        <path class="cls-27" d="M575,66.53L254.87,239.64s-9.34,.58-7.89-11.01L568.55,56.38s8.79,.25,6.44,10.15Z"/>
        <line class="cls-11" x1="202.53" y1="197.76" x2="162.58" y2="203.9"/>
        <line class="cls-11" x1="206.64" y1="204.16" x2="164.04" y2="215.61"/>
        <line class="cls-11" x1="211.21" y1="213.47" x2="172.56" y2="232.13"/>
        <line class="cls-11" x1="220.18" y1="227.59" x2="181.29" y2="249.35"/>
        <line class="cls-11" x1="228.21" y1="239.7" x2="189.01" y2="263.07"/>
        <line class="cls-11" x1="238.13" y1="255.82" x2="201.6" y2="281.84"/>
        <line class="cls-11" x1="232.82" y1="247.86" x2="203.99" y2="266.36"/>
        <line class="cls-11" x1="246.81" y1="268.88" x2="212.93" y2="294.9"/>
        <line class="cls-11" x1="217.19" y1="303.16" x2="253.27" y2="276.89"/>
        <line class="cls-11" x1="259.69" y1="286.05" x2="233.57" y2="306.05"/>
        <line class="cls-11" x1="242.29" y1="261.07" x2="213.02" y2="281.98"/>
        <line class="cls-11" x1="215.12" y1="219.18" x2="182.53" y2="236.48"/>
        <line class="cls-11" x1="224.75" y1="234.25" x2="189.26" y2="254.66"/>
        <line class="cls-11" x1="208.8" y1="207.72" x2="173.86" y2="220.76"/>
      </g>
    </g>
    <g>
      <path class="cls-32" d="M1132.02,479.21s4.9-6.01-1.08-19.37c0,0-5.76-19-15.53-35.51,0,0-5.32-10.32-12.49-9.45l20.88,66.24,8.22-1.91Z"/>
      <path class="cls-33" d="M1141.99,504.91c6.76,6.76,6.76,17.71,0,24.47-6.76,6.76-17.71,6.76-24.47,0-6.76-6.76-6.76-17.71,0-24.47,2.13-2.13,4.68-3.59,7.38-4.38,0,0,2.95-.56,3.59-3.56l-4.65-15.95,8.22-1.91s-.45,14.41,2.7,17.79c3.15,3.38,7.23,8.01,7.23,8.01Z"/>
      <circle class="cls-17" cx="1128.99" cy="517.45" r="9.21"/>
      <path class="cls-33" d="M1157.59,488.9c6.76,6.76,17.71,6.76,24.47,0,6.76-6.76,6.76-17.71,0-24.47-6.76-6.76-17.71-6.76-24.47,0-2.13,2.13-3.59,4.68-4.38,7.38,0,0-.56,2.95-3.56,3.59l-15.95-4.65-1.91,8.22s14.41-.45,17.79,2.7,8.01,7.23,8.01,7.23Z"/>
      <circle class="cls-17" cx="1170.14" cy="475.9" r="9.21"/>
      <path class="cls-32" d="M1131.8,478.96s-6.01,4.9-19.37-1.08c0,0-19-5.76-35.51-15.53,0,0-10.32-5.32-9.45-12.49l66.24,20.88-1.91,8.22Z"/>
      <circle class="cls-34" cx="1126.88" cy="474.85" r="2.06"/>
    </g>
    <g>
      <path class="cls-37" d="M803.25,129.04v8.12s10.07,10.35,10.07,10.35c0,0,2.52,2.24,1.96,6.16v61.84s-1.68,7.84-8.12,7.84h-49.47c-6.44,0-8.12-7.84-8.12-7.84v-61.84c-.56-3.92,1.96-6.16,1.96-6.16l10.07-10.35v-8.12"/>
      <rect class="cls-16" x="749.53" y="161.86" width="65.87" height="46.87"/>
      <line class="cls-3" x1="782.31" y1="172.2" x2="782.31" y2="197.51"/>
      <line class="cls-3" x1="794.96" y1="184.86" x2="769.65" y2="184.86"/>
      <rect class="cls-32" x="754.06" y="104.12" width="56.95" height="25.1" rx="8.35" ry="8.35"/>
    </g>
    <g>
      <path class="cls-36" d="M905.49,169.58v4.7s14.94,6,14.94,6c0,0,3.73,1.3,2.9,3.57v35.84s-2.49,4.54-12.03,4.54h-73.35c-9.54,0-12.03-4.54-12.03-4.54v-35.84c-.83-2.27,2.9-3.57,2.9-3.57l14.94-6v-4.7"/>
      <path class="cls-35" d="M853.11,150.17h44.03c6.88,0,12.47,5.59,12.47,12.47v6.63c0,.39-.32,.71-.71,.71h-68.26v-7.34c0-6.88,5.59-12.47,12.47-12.47Z"/>
      <path class="cls-22" d="M826.14,185.83h65.46c5.51,0,9.99,4.48,9.99,9.99v10.26c0,5.74-4.66,10.39-10.39,10.39h-65.06v-30.64h0Z"/>
    </g>
    <g>
      <rect class="cls-32" x="943.84" y="168.45" width="69.11" height="108.99" rx="17.09" ry="17.09" transform="translate(436.48 -621.62) rotate(44.48)"/>
      <circle class="cls-13" cx="993.51" cy="183.32" r="8.77"/>
      <line class="cls-8" x1="991.79" y1="190.93" x2="994.95" y2="175.3"/>
      <circle class="cls-13" cx="1016.81" cy="206.2" r="8.77"/>
      <line class="cls-8" x1="1015.09" y1="213.81" x2="1018.25" y2="198.18"/>
      <circle class="cls-13" cx="975.29" cy="201.88" r="8.77"/>
      <line class="cls-8" x1="973.56" y1="209.49" x2="976.73" y2="193.86"/>
      <circle class="cls-13" cx="998.59" cy="224.76" r="8.77"/>
      <line class="cls-8" x1="996.86" y1="232.37" x2="1000.03" y2="216.74"/>
      <circle class="cls-13" cx="956.93" cy="220.58" r="8.77"/>
      <line class="cls-8" x1="955.2" y1="228.18" x2="958.37" y2="212.56"/>
      <circle class="cls-13" cx="980.23" cy="243.46" r="8.77"/>
      <line class="cls-8" x1="978.51" y1="251.07" x2="981.67" y2="235.44"/>
      <circle class="cls-13" cx="938.84" cy="239" r="8.77"/>
      <line class="cls-8" x1="937.11" y1="246.61" x2="940.28" y2="230.98"/>
      <circle class="cls-13" cx="962.14" cy="261.89" r="8.77"/>
      <line class="cls-8" x1="960.41" y1="269.49" x2="963.58" y2="253.86"/>
      <line class="cls-7" x1="1012.84" y1="186.51" x2="942.73" y2="257.91"/>
    </g>
    <g>
      <path class="cls-38" d="M1033.45,514.45s3.74,18.14,13.73,18.36h-26.06l12.33-18.36Z"/>
      <path class="cls-33" d="M1046.8,479.2h-137.35c-25.27-29.92,0-52.74,0-52.74h136.85"/>
      <ellipse class="cls-30" cx="1047.18" cy="452.82" rx="14.31" ry="26.72"/>
      <ellipse class="cls-12" cx="1048.53" cy="453.03" rx="9.95" ry="19.64"/>
      <path class="cls-19" d="M1046.8,426.96h-137.35c-25.27-29.92,0-52.74,0-52.74h136.85"/>
      <ellipse class="cls-20" cx="1047.18" cy="400.58" rx="14.31" ry="26.72"/>
      <ellipse class="cls-12" cx="1048.53" cy="400.79" rx="9.95" ry="19.64"/>
      <ellipse class="cls-29" cx="1047.18" cy="506.09" rx="14.31" ry="26.72"/>
      <ellipse class="cls-12" cx="1048.53" cy="506.3" rx="9.95" ry="19.64"/>
      <path class="cls-24" d="M1047.18,479.37h-102.73s-9.95,12.24-8.34,25.96c1.61,13.72-5.38,46.27-20.45,52.46h92.01s17.79-.59,25.87-42.82c0,0-3-34.12,13.64-35.6Z"/>
      <path class="cls-24" d="M1012.11,479.37h-102.73s-9.95,12.24-8.34,25.96c1.61,13.72-5.38,46.27-20.45,52.46h92.01s17.49,0,25.56-42.24c0,0-2.69-34.7,13.95-36.18Z"/>
    </g>
    <g>
      <rect class="cls-26" x="957.92" y="87.14" width="20.2" height="80.72" transform="translate(436.53 946.54) rotate(-64.52)"/>
      <rect class="cls-26" x="1010.5" y="139.41" width="14.7" height="24.4" transform="translate(443.15 1005.26) rotate(-64.52)"/>
      <polygon class="cls-26" points="929.2 105.25 926.04 111.89 914.18 104.58 916.16 100.41 929.2 105.25"/>
      <polygon class="cls-34" points="935.89 101.05 927.3 119.06 926.04 111.89 929.2 105.25 935.89 101.05"/>
      <line class="cls-10" x1="914.99" y1="102.58" x2="873.78" y2="82.94"/>
      <line class="cls-9" x1="998.82" y1="159.12" x2="1011.78" y2="131.52"/>
      <line class="cls-9" x1="1025.9" y1="167.65" x2="1035.27" y2="147.45"/>
      <line class="cls-10" x1="941.47" y1="103.49" x2="937.35" y2="112.2"/>
      <line class="cls-10" x1="946.92" y1="105.89" x2="942.79" y2="114.6"/>
      <line class="cls-10" x1="952.53" y1="108.77" x2="946.88" y2="121.06"/>
      <line class="cls-10" x1="958.29" y1="111.66" x2="954.17" y2="120.37"/>
      <line class="cls-10" x1="963.74" y1="114.06" x2="959.61" y2="122.77"/>
      <line class="cls-10" x1="969.35" y1="116.94" x2="963.7" y2="129.23"/>
      <line class="cls-10" x1="975.11" y1="119.99" x2="970.99" y2="128.7"/>
      <line class="cls-10" x1="980.56" y1="122.39" x2="976.43" y2="131.1"/>
      <line class="cls-10" x1="986.17" y1="125.27" x2="980.52" y2="137.56"/>
    </g>
    <g class="cls-42">
      <g>
        <path class="cls-31" d="M556.93,467.49s3.42,37.83-13.35,69.97c0,0-5.99,113.29,83.43,122.37,0,0,117.16-69.6,36.08-121.01l-106.17-71.33Z"/>
        <path class="cls-33" d="M531.25,545.98s-74.71,29.26-98.47,65.87c0,0-14.48,12.67-24.76,58.91,0,0-23.12,91.3-27.76,138.35,0,0-14.1,70.88,60.78,66.9l-21.53,231.06s28.81,38.4,201.32,40.74c0,0,104.18,3.97,164.7-31.75,0,0-10.16-159.39-12.79-318.41,0,0,36.21-6.28,72.94-49.22l-43.08-122.15s-.66-5.48-46.58-38.46c0,0-36.15-19.16-62-30.15l-49.74,32.92-16.16,45.93-26.43-43.5s5.32-2.18-70.45-47.04Z"/>
        <path class="cls-31" d="M694.6,313.32s22.11,23.44,26.58,86.95c0,0-.42,15.47,2.39,23.38,2.81,7.91,4.8,21.46,2.99,30.62-1.81,9.15-15.94,70.79-15.94,70.79,0,0-4.92,17.99-34.55,22.62-29.62,4.62-56.38-2.57-68.87-13.52s-42.16-27.34-47.6-46.18c0,0-17.03,6.57-27.29-13.58,0,0-23.96-30.15-6.05-41.51,17.91-11.36,32.86,13.54,32.86,13.54,0,0-34.13-74.74,5.24-111.48,0,0,47.45-52.85,130.24-21.63Z"/>
        <path class="cls-34" d="M642.97,381.94s-31.32,.11-47.62,20.32c0,0,8.43-23.54,45.95-27.61,0,0,7.27,2.61,1.67,7.29Z"/>
        <path class="cls-34" d="M718.22,384.33c-18.45-10.46-35.17-8.86-35.17-8.86-5.95-4.22,1.09-7.4,1.09-7.4,11.76,.34,27.57,5.2,34.02,7.9,0,0,.93,8.85,.06,8.36Z"/>
        <path class="cls-2" d="M527.19,447.14s6.32-11.58,15.38-1.07c9.06,10.51,9.81,14.21,9.81,14.21,0,0-13.12-16.81-16.54-2.15"/>
        <path class="cls-41" d="M682.23,544.48s-30.29,8.16-52.81,1.05c0,0-13.5-2.24-33.31-19.52,0,0,20.56,26.66,53,26.3,0,0,14.73,1.35,28.58-5.62,0,0,4.27,.98,4.55-2.22Z"/>
        <path class="cls-4" d="M505.34,844.77s69.64-197-30.53-237.84"/>
        <line class="cls-4" x1="770.54" y1="801.97" x2="774.83" y2="666.67"/>
        <path class="cls-28" d="M704,489.68s-13.48-15.03-29.52-8.03c0,0-13.63-6.89-36.2,12.51,0,0,13.87,14.61,37.34,11.04,23.47-3.58,28.38-15.52,28.38-15.52Z"/>
        <path class="cls-21" d="M700.67,490.95s-9.44-7.93-26.56-6.19c-17.12,1.74-32.58,9.96-32.58,9.96,0,0,25.41,.42,32.77,3.82,0,0,12.17-5.46,26.37-7.59Z"/>
        <path class="cls-17" d="M693.23,487.08s-13.02-8.04-41.46,3.24c0,0,24.75-4.67,41.46-3.24Z"/>
        <path class="cls-41" d="M649.36,370.01s7.48,7.37,2.35,15.26c0,0,9.98-8.24-2.35-15.26Z"/>
        <path class="cls-41" d="M672.9,365.63s-3.22,9.42,3.88,14.38c0,0-11.13-3.39-3.88-14.38Z"/>
        <g>
          <path class="cls-17" d="M615.5,413.47s-.09-.69,.35-1.32c1.45-2.1,4.89-6.12,11-6.89,6.84-.86,11.41,5.1,12.98,7.23,.27,.37,.29,.72,.29,.72,0,0,.07,.38-.13,.67-.93,1.4-4.13,5.39-10.59,6.3-3.85,.54-9.52-.85-13.52-5.67-.28-.33-.35-.8-.38-1.05Z"/>
          <circle class="cls-41" cx="629.75" cy="412.92" r="7.12"/>
          <circle class="cls-17" cx="625.11" cy="412.04" r="1.95"/>
          <path class="cls-2" d="M640.23,412.45s-10.36-15.28-24.67-.32"/>
        </g>
        <g>
          <path class="cls-17" d="M695.05,409.37s-.18-.62,.13-1.28c1.05-2.16,3.67-6.39,9.24-7.98,6.24-1.77,11.34,3.11,13.1,4.86,.3,.3,.38,.63,.38,.63,0,0,.12,.34-.02,.64-.67,1.44-3.07,5.61-8.95,7.38-3.5,1.05-8.97,.57-13.38-3.34-.31-.27-.44-.69-.5-.92Z"/>
          <circle class="cls-41" cx="708.23" cy="406.81" r="6.68"/>
          <circle class="cls-17" cx="703.61" cy="406.82" r="1.87"/>
          <path class="cls-2" d="M717.69,405.17s-11.6-13.75-22.63,3.24"/>
        </g>
        <polygon class="cls-23" points="533.28 534.75 546.39 532.68 543.96 548.1 533.28 534.75"/>
        <path class="cls-25" d="M522.2,549.42s58.66,36.11,89.32,61.36l-4.06-18.94s-56.4-33.39-74.18-57.09l-11.08,14.67Z"/>
        <path class="cls-25" d="M673.28,549.4s25.24-.83,24.28,15.52l-55.84,40.46,2.56-14.78s24.34-12.17,40.31-31.86c0,0-10.71-1.44-11.31-9.33Z"/>
        <path class="cls-6" d="M627.42,636.72s17.11,163.63,14.4,510.99"/>
        <ellipse class="cls-18" cx="640.95" cy="684.39" rx="4.06" ry="4.4"/>
        <ellipse class="cls-18" cx="645.24" cy="761.25" rx="4.06" ry="4.4"/>
        <ellipse class="cls-18" cx="648.27" cy="844.11" rx="4.06" ry="4.4"/>
        <ellipse class="cls-18" cx="650.02" cy="928.33" rx="4.06" ry="4.4"/>
        <ellipse class="cls-18" cx="650.97" cy="1009.49" rx="4.06" ry="4.4"/>
        <ellipse class="cls-18" cx="649.54" cy="1100.56" rx="4.06" ry="4.4"/>
        <g>
          <polygon class="cls-18" points="569.53 1145.01 576.65 1136.55 560.47 1121.49 545.4 1137.68 550.32 1142.42 569.53 1145.01"/>
          <polygon class="cls-18" points="596.66 1147.59 607.8 1135.43 591.61 1120.37 576.55 1136.56 586.58 1146.64 596.66 1147.59"/>
          <rect class="cls-18" x="548.84" y="1094.68" width="22.11" height="22.11" transform="translate(-631.03 762.47) rotate(-47.07)"/>
          <rect class="cls-40" x="564.92" y="1109.93" width="22.11" height="22.11" transform="translate(-637.07 779.11) rotate(-47.07)"/>
          <rect class="cls-18" x="579.99" y="1093.56" width="22.11" height="22.11" transform="translate(-620.28 784.92) rotate(-47.07)"/>
          <rect class="cls-18" x="547.81" y="1063.38" width="22.11" height="22.11" transform="translate(-608.45 751.74) rotate(-47.07)"/>
          <rect class="cls-40" x="563.89" y="1078.63" width="22.11" height="22.11" transform="translate(-614.48 768.37) rotate(-47.07)"/>
          <rect class="cls-18" x="578.95" y="1062.26" width="22.11" height="22.11" transform="translate(-597.69 774.18) rotate(-47.07)"/>
          <rect class="cls-18" x="546.69" y="1032.27" width="22.11" height="22.11" transform="translate(-586.03 741) rotate(-47.07)"/>
          <rect class="cls-40" x="562.77" y="1047.52" width="22.11" height="22.11" transform="translate(-592.06 757.63) rotate(-47.07)"/>
          <rect class="cls-18" x="577.83" y="1031.15" width="22.11" height="22.11" transform="translate(-575.27 763.44) rotate(-47.07)"/>
          <rect class="cls-18" x="545.57" y="1001.15" width="22.11" height="22.11" transform="translate(-563.6 730.25) rotate(-47.07)"/>
          <rect class="cls-40" x="561.65" y="1016.4" width="22.11" height="22.11" transform="translate(-569.64 746.89) rotate(-47.07)"/>
          <rect class="cls-18" x="576.71" y="1000.03" width="22.11" height="22.11" transform="translate(-552.85 752.7) rotate(-47.07)"/>
          <rect class="cls-18" x="544.44" y="970.04" width="22.11" height="22.11" transform="translate(-541.18 719.51) rotate(-47.07)"/>
          <rect class="cls-40" x="560.52" y="985.29" width="22.11" height="22.11" transform="translate(-547.21 736.15) rotate(-47.07)"/>
          <rect class="cls-18" x="575.59" y="968.91" width="22.11" height="22.11" transform="translate(-530.42 741.95) rotate(-47.07)"/>
          <rect class="cls-18" x="543.32" y="939.03" width="22.11" height="22.11" transform="translate(-518.83 708.81) rotate(-47.07)"/>
          <rect class="cls-40" x="559.4" y="954.28" width="22.11" height="22.11" transform="translate(-524.87 725.44) rotate(-47.07)"/>
          <rect class="cls-18" x="574.47" y="937.91" width="22.11" height="22.11" transform="translate(-508.08 731.25) rotate(-47.07)"/>
          <rect class="cls-18" x="542.2" y="907.91" width="22.11" height="22.11" transform="translate(-496.41 698.06) rotate(-47.07)"/>
          <rect class="cls-40" x="558.28" y="923.16" width="22.11" height="22.11" transform="translate(-502.45 714.7) rotate(-47.07)"/>
          <rect class="cls-18" x="573.35" y="906.79" width="22.11" height="22.11" transform="translate(-485.66 720.51) rotate(-47.07)"/>
          <rect class="cls-18" x="541.08" y="876.91" width="22.11" height="22.11" transform="translate(-474.06 687.36) rotate(-47.07)"/>
          <rect class="cls-40" x="557.16" y="892.16" width="22.11" height="22.11" transform="translate(-480.1 703.99) rotate(-47.07)"/>
          <rect class="cls-18" x="572.23" y="875.78" width="22.11" height="22.11" transform="translate(-463.31 709.8) rotate(-47.07)"/>
          <rect class="cls-18" x="539.96" y="845.79" width="22.11" height="22.11" transform="translate(-451.64 676.62) rotate(-47.07)"/>
          <rect class="cls-40" x="556.04" y="861.04" width="22.11" height="22.11" transform="translate(-457.68 693.25) rotate(-47.07)"/>
          <rect class="cls-18" x="571.11" y="844.67" width="22.11" height="22.11" transform="translate(-440.89 699.06) rotate(-47.07)"/>
          <rect class="cls-18" x="538.84" y="814.78" width="22.11" height="22.11" transform="translate(-429.3 665.91) rotate(-47.07)"/>
          <rect class="cls-40" x="554.92" y="830.03" width="22.11" height="22.11" transform="translate(-435.33 682.54) rotate(-47.07)"/>
          <rect class="cls-18" x="569.99" y="813.66" width="22.11" height="22.11" transform="translate(-418.54 688.35) rotate(-47.07)"/>
          <rect class="cls-18" x="537.6" y="783.12" width="22.11" height="22.11" transform="translate(-406.51 654.91) rotate(-47.07)"/>
          <rect class="cls-40" x="553.68" y="798.37" width="22.11" height="22.11" transform="translate(-412.55 671.54) rotate(-47.07)"/>
          <rect class="cls-18" x="568.75" y="782" width="22.11" height="22.11" transform="translate(-395.76 677.35) rotate(-47.07)"/>
          <rect class="cls-18" x="536.57" y="751.82" width="22.11" height="22.11" transform="translate(-383.92 644.17) rotate(-47.07)"/>
          <rect class="cls-40" x="552.65" y="767.07" width="22.11" height="22.11" transform="translate(-389.96 660.81) rotate(-47.07)"/>
          <rect class="cls-18" x="567.72" y="750.7" width="22.11" height="22.11" transform="translate(-373.17 666.62) rotate(-47.07)"/>
          <rect class="cls-18" x="535.45" y="720.71" width="22.11" height="22.11" transform="translate(-361.5 633.43) rotate(-47.07)"/>
          <rect class="cls-40" x="551.53" y="735.96" width="22.11" height="22.11" transform="translate(-367.54 650.07) rotate(-47.07)"/>
          <rect class="cls-18" x="566.59" y="719.58" width="22.11" height="22.11" transform="translate(-350.75 655.87) rotate(-47.07)"/>
          <rect class="cls-18" x="534.33" y="689.59" width="22.11" height="22.11" transform="translate(-339.08 622.69) rotate(-47.07)"/>
          <rect class="cls-40" x="550.41" y="704.84" width="22.11" height="22.11" transform="translate(-345.11 639.32) rotate(-47.07)"/>
          <rect class="cls-18" x="565.47" y="688.47" width="22.11" height="22.11" transform="translate(-328.32 645.13) rotate(-47.07)"/>
          <rect class="cls-18" x="533.21" y="658.47" width="22.11" height="22.11" transform="translate(-316.65 611.94) rotate(-47.07)"/>
          <rect class="cls-40" x="549.29" y="673.72" width="22.11" height="22.11" transform="translate(-322.69 628.58) rotate(-47.07)"/>
          <rect class="cls-18" x="564.35" y="657.35" width="22.11" height="22.11" transform="translate(-305.9 634.39) rotate(-47.07)"/>
          <rect class="cls-18" x="532.09" y="627.47" width="22.11" height="22.11" transform="translate(-294.31 601.24) rotate(-47.07)"/>
          <rect class="cls-40" x="548.17" y="642.71" width="22.11" height="22.11" transform="translate(-300.35 617.87) rotate(-47.07)"/>
          <rect class="cls-18" x="563.23" y="626.34" width="22.11" height="22.11" transform="translate(-283.56 623.68) rotate(-47.07)"/>
          <rect class="cls-18" x="530.97" y="596.35" width="22.11" height="22.11" transform="translate(-271.88 590.5) rotate(-47.07)"/>
          <rect class="cls-40" x="547.05" y="611.6" width="22.11" height="22.11" transform="translate(-277.92 607.13) rotate(-47.07)"/>
          <rect class="cls-18" x="562.11" y="595.23" width="22.11" height="22.11" transform="translate(-261.13 612.94) rotate(-47.07)"/>
          <rect class="cls-18" x="529.91" y="565.34" width="22.11" height="22.11" transform="translate(-249.52 579.84) rotate(-47.07)"/>
          <rect class="cls-40" x="545.99" y="580.59" width="22.11" height="22.11" transform="translate(-255.55 596.47) rotate(-47.07)"/>
          <polyline class="cls-40" points="559.26 572.83 556.59 575.81 540.4 560.75 541.18 559.91"/>
          <polygon class="cls-18" points="572.67 590.9 556.49 575.83 559.26 572.83 577.02 586.33 572.67 590.9"/>
        </g>
        <g>
          <polyline class="cls-18" points="510.22 819.19 487.05 831.39 475.35 809.17 499.56 796.43 510.8 817.73"/>
          <polygon class="cls-40" points="516.02 800.7 510.8 817.73 499.72 796.61 520.13 785.83 516.02 800.7"/>
          <polyline class="cls-18" points="520.07 785.72 499.51 796.55 487.82 774.34 512.02 761.59 521.58 779.74"/>
          <rect class="cls-18" x="443.71" y="791.76" width="27.35" height="25.1" transform="translate(-322.04 305.7) rotate(-27.77)"/>
          <rect class="cls-40" x="468.08" y="779.2" width="27.35" height="25.1" transform="translate(-313.38 315.6) rotate(-27.77)"/>
          <rect class="cls-18" x="456.17" y="756.93" width="27.35" height="25.1" transform="translate(-304.38 307.49) rotate(-27.77)"/>
          <rect class="cls-18" x="407.97" y="782.33" width="27.35" height="25.1" transform="translate(-321.76 287.96) rotate(-27.77)"/>
          <rect class="cls-40" x="432.34" y="769.78" width="27.35" height="25.1" transform="translate(-313.11 297.87) rotate(-27.77)"/>
          <rect class="cls-18" x="420.43" y="747.5" width="27.35" height="25.1" transform="translate(-304.1 289.76) rotate(-27.77)"/>
          <polygon class="cls-18" points="403.85 790.19 380.16 802.91 384.91 771.81 392.15 767.98 403.85 790.19"/>
          <rect class="cls-40" x="396.59" y="760.35" width="27.35" height="25.1" transform="translate(-312.83 280.13) rotate(-27.77)"/>
          <polygon class="cls-18" points="416.31 755.35 392.11 768.1 387.08 758.86 390.85 740.39 404.62 733.14 416.31 755.35"/>
          <polyline class="cls-40" points="387.08 758.86 392.47 768.2 384.91 771.81"/>
        </g>
        <path class="cls-2" d="M676.59,416.43l18.02,21.89s10.46,17.17-1.23,22.04c-10.4,4.33-11.08,2.01-11.08,2.01"/>
        <g>
          <path class="cls-31" d="M385.71,813.37s-11.21,130.2,54.31,145c89.21,20.14,131.69-165.5,131.69-165.5,0,0,29.9-121.72,31.32-163.71,0,0,1.8-29.27,14.91-37.9s1.04-67.28,1.04-67.28c0,0,20.01-28.98,6.9-38.64l-18.63,29.67-2.42,12.08s-5.18-15.18-3.45-24.84c0,0,27.26-32.09,12.42-42.78l-12.08,12.42s10.01-17.94,1.38-21.74l-11.73,11.73s2.06-7.36-2.76-6.21l-28.29,30.71s-11.94,50.12-1.59,102.91c0,0-.28,12.89-9.35,25.9-73.66,105.71-121.94,213.67-121.94,213.67l-41.74-15.49Z"/>
          <path class="cls-5" d="M427.44,828.85s-8.29,8.64-8.29,28.07"/>
          <path class="cls-5" d="M571.09,511.52l-.62-25.83,20.9-23.81,11.73-11.73s9.88,5.47-1.38,21.74l-19.87,24.57,1.54,32.29"/>
          <path class="cls-5" d="M603.55,469.39l10.42-9.93s11.11,4.08-1.2,26.53c0,0-6.87,12.46-11.39,16.25,0,0-1.52,15.87,3.45,24.84l2.42-12.08,11.99-18.87,6.81-10.8s10.72,6.81,1.49,21.88c0,0-5,12.99-8.56,16.77,0,0,12.72,51.44-1.04,67.28l-2.77,2.17"/>
          <path class="cls-5" d="M554.69,554.41s-2.22-32.37,5.64-68.03c0,0,22.73-29.8,28.29-30.71s2.76,6.21,2.76,6.21"/>
        </g>
        <g>
          <path class="cls-31" d="M882.71,815.44s-23.13-68.18-99.56-177.88c-9.41-13.51-9.71-26.88-9.71-26.88,10.74-54.78-1.65-106.8-1.65-106.8l-29.36-31.87c-5.01-1.19-2.86,6.44-2.86,6.44l-12.17-12.17c-8.95,3.94,1.43,22.56,1.43,22.56l-12.53-12.89c-15.4,11.1,12.89,44.4,12.89,44.4,1.79,10.02-3.58,25.78-3.58,25.78l-2.51-12.53-19.33-30.79c-13.61,10.02,7.16,40.1,7.16,40.1,0,0-12.53,60.87,1.07,69.82s15.47,39.33,15.47,39.33c1.48,43.58,32.5,169.89,32.5,169.89,0,0,22.12,159.07,114.7,138.16,0,0,51.63-54.44,8.04-144.67"/>
          <path class="cls-5" d="M760.61,529.98l.64-26.81-21.69-24.71-12.17-12.17s-10.25,5.68,1.43,22.56l20.62,25.5-1.6,33.51"/>
          <path class="cls-5" d="M726.93,486.26l-10.81-10.3s-11.52,4.24,1.24,27.53c0,0,7.13,12.94,11.82,16.86,0,0,1.57,16.47-3.58,25.78l-2.51-12.53-12.44-19.58-7.07-11.21s-11.12,7.06-1.55,22.7c0,0,5.18,13.48,8.88,17.4,0,0-3.16,17.27-3.89,26.57"/>
        </g>
        <path class="cls-39" d="M558.6,446.84l8.81-5.34c-2.46-24.21-6.28-76.26,8.24-99.91,0,0,67.96-43.17,117.49-18.85,0,0,16.99,10.07,27.68,72.61,0,0,4.29-44.83-13.61-80.84,0,0,11.23-9.91,12.45-14.04,0,0-15.76,4.61-24.68-2.74-5.23-4.31-75.78-49.91-142.94,11.12,0,0-69.72,21.91-29.34,126.35,0,0,22.32-8.77,35.9,11.65Z"/>
        <path class="cls-39" d="M633.28,490.67s-2.07-18.29,13.12-22.98c18.66-5.75,38.84-7.49,53.36-.21,14.52,7.28,22.44,15.38,10.93,16.01-11.51,.64-34.83-13.21-59.08-.52,0,0-9.38,10.09-18.33,7.69Z"/>
      </g>
    </g>
  </g>
</svg>