<?xml version="1.0" encoding="UTF-8"?>
<svg id="Layer_1" data-name="Layer 1" xmlns="http://www.w3.org/2000/svg" viewBox="0 0 1332.96 999.66">
  <defs>
    <style>
      .cls-1 {
        stroke-width: 1.5px;
      }

      .cls-1, .cls-2, .cls-3, .cls-4, .cls-5, .cls-6, .cls-7, .cls-8, .cls-9, .cls-10, .cls-11, .cls-12, .cls-13, .cls-14, .cls-15, .cls-16, .cls-17, .cls-18, .cls-19, .cls-20, .cls-21, .cls-22, .cls-23, .cls-24, .cls-25, .cls-26 {
        stroke-miterlimit: 10;
      }

      .cls-1, .cls-2, .cls-3, .cls-4, .cls-7, .cls-8, .cls-15, .cls-16, .cls-17, .cls-18, .cls-19, .cls-20, .cls-21, .cls-22, .cls-23, .cls-24, .cls-25, .cls-26 {
        fill: none;
      }

      .cls-1, .cls-4, .cls-7, .cls-8, .cls-14, .cls-17 {
        stroke: #231f20;
      }

      .cls-2, .cls-3, .cls-4 {
        stroke-width: .8px;
      }

      .cls-2, .cls-26 {
        stroke: #754c29;
      }

      .cls-3, .cls-10, .cls-13, .cls-20, .cls-25 {
        stroke: #603913;
      }

      .cls-27 {
        fill: #f7daa6;
      }

      .cls-28 {
        fill: #f7d9a4;
      }

      .cls-29 {
        fill: #f8a69b;
      }

      .cls-30 {
        fill: #f8e2d9;
      }

      .cls-31 {
        fill: #ffde17;
      }

      .cls-32, .cls-6, .cls-12 {
        fill: #e6e7e8;
      }

      .cls-33 {
        fill: #fff;
      }

      .cls-34 {
        fill: #fbc5b3;
      }

      .cls-35 {
        fill: #ef4136;
      }

      .cls-36 {
        fill: #818285;
      }

      .cls-37 {
        fill: #803435;
      }

      .cls-38 {
        fill: #87664d;
      }

      .cls-39 {
        fill: #b6302e;
      }

      .cls-40 {
        fill: #b19074;
      }

      .cls-41 {
        fill: #ae8578;
      }

      .cls-42 {
        fill: #b1dcc4;
      }

      .cls-43 {
        fill: #b1dcc5;
      }

      .cls-44 {
        fill: #a97c50;
      }

      .cls-45, .cls-10 {
        fill: #be9e7d;
      }

      .cls-46, .cls-13 {
        fill: #caa88a;
      }

      .cls-47 {
        fill: #d1d3d4;
      }

      .cls-48 {
        fill: #e2c799;
      }

      .cls-49 {
        fill: #d4d5d6;
      }

      .cls-50 {
        fill: #dc3b28;
      }

      .cls-51 {
        fill: #231f20;
      }

      .cls-52 {
        fill: #1fa8df;
      }

      .cls-53 {
        fill: #1c75bc;
      }

      .cls-54, .cls-14 {
        fill: #9c2024;
      }

      .cls-55 {
        fill: #27aae1;
      }

      .cls-56 {
        fill: #2bb673;
      }

      .cls-57 {
        fill: #26130f;
      }

      .cls-5 {
        fill: #2b3990;
      }

      .cls-5, .cls-8, .cls-15 {
        stroke-linecap: round;
      }

      .cls-5, .cls-15 {
        stroke: #1c75bc;
        stroke-width: 4px;
      }

      .cls-6 {
        stroke: #58595b;
        stroke-width: .2px;
      }

      .cls-7 {
        stroke-width: .7px;
      }

      .cls-8, .cls-9, .cls-10, .cls-24, .cls-25, .cls-26 {
        stroke-width: .5px;
      }

      .cls-9 {
        fill: #754c29;
      }

      .cls-9, .cls-24 {
        stroke: #fff;
      }

      .cls-11 {
        fill: #00979c;
        stroke: #2e3192;
      }

      .cls-12 {
        stroke: #808285;
      }

      .cls-16 {
        stroke: #184359;
      }

      .cls-18 {
        stroke: #f6ac1b;
      }

      .cls-19 {
        stroke: #d1d3d4;
      }

      .cls-21 {
        stroke: #6d6e71;
      }

      .cls-22 {
        stroke: #78c6bd;
      }

      .cls-23 {
        stroke: #be1e2d;
      }
    </style>
  </defs>
  <rect class="cls-42" x=".02" width="1332.93" height="935.73"/>
  <g>
    <rect class="cls-43" x="452.84" y="118.24" width="121.94" height="121.19"/>
    <path class="cls-36" d="M507.51,130.56s-7.74,35.18-43.91,42.42v-42.69l43.91,.27Z"/>
    <path class="cls-36" d="M518.55,130.56s7.74,35.18,43.91,42.42v-42.69l-43.91,.27Z"/>
    <path class="cls-36" d="M507.51,227.09s-7.74-35.18-43.91-42.42v42.69l43.91-.27h0Z"/>
    <path class="cls-36" d="M518.55,227.09s7.74-35.18,43.91-42.42v42.69l-43.91-.27h0Z"/>
    <path class="cls-36" d="M513.03,145.4s-7.33,21.1-33.13,32.54c0,0,30.78,13.19,33.13,34.01,0,0,9.97-24.92,33.71-33.13,0,0-23.46-12.02-33.71-33.42Z"/>
  </g>
  <g>
    <rect class="cls-43" x="337.05" y="118.24" width="121.94" height="121.19"/>
    <path class="cls-36" d="M391.73,130.56s-7.74,35.18-43.91,42.42v-42.69l43.91,.27Z"/>
    <path class="cls-36" d="M402.76,130.56s7.74,35.18,43.91,42.42v-42.69l-43.91,.27Z"/>
    <path class="cls-36" d="M391.73,227.09s-7.74-35.18-43.91-42.42v42.69l43.91-.27h0Z"/>
    <path class="cls-36" d="M402.76,227.09s7.74-35.18,43.91-42.42v42.69l-43.91-.27h0Z"/>
    <path class="cls-36" d="M397.25,145.4s-7.33,21.1-33.13,32.54c0,0,30.78,13.19,33.13,34.01,0,0,9.97-24.92,33.71-33.13,0,0-23.46-12.02-33.71-33.42Z"/>
  </g>
  <g>
    <rect class="cls-43" x="221.26" y="118.24" width="121.94" height="121.19"/>
    <path class="cls-36" d="M275.94,130.56s-7.74,35.18-43.91,42.42v-42.69l43.91,.27Z"/>
    <path class="cls-36" d="M286.99,130.56s7.74,35.18,43.91,42.42v-42.69l-43.91,.27Z"/>
    <path class="cls-36" d="M275.94,227.09s-7.74-35.18-43.91-42.42v42.69l43.91-.27h0Z"/>
    <path class="cls-36" d="M286.99,227.09s7.74-35.18,43.91-42.42v42.69l-43.91-.27h0Z"/>
    <path class="cls-36" d="M281.46,145.4s-7.33,21.1-33.13,32.54c0,0,30.78,13.19,33.13,34.01,0,0,9.97-24.92,33.71-33.13,0,0-23.46-12.02-33.71-33.42Z"/>
  </g>
  <g>
    <rect class="cls-43" x="108.08" y="118.24" width="121.94" height="121.19"/>
    <path class="cls-36" d="M162.76,130.56s-7.74,35.18-43.91,42.42v-42.69l43.91,.27Z"/>
    <path class="cls-36" d="M173.8,130.56s7.74,35.18,43.91,42.42v-42.69l-43.91,.27Z"/>
    <path class="cls-36" d="M162.76,227.09s-7.74-35.18-43.91-42.42v42.69l43.91-.27h0Z"/>
    <path class="cls-36" d="M173.8,227.09s7.74-35.18,43.91-42.42v42.69l-43.91-.27h0Z"/>
    <path class="cls-36" d="M168.28,145.4s-7.33,21.1-33.13,32.54c0,0,30.78,13.19,33.13,34.01,0,0,9.97-24.92,33.71-33.13,0,0-23.46-12.02-33.71-33.42Z"/>
  </g>
  <g>
    <rect class="cls-43" x="452.84" y="1.5" width="121.94" height="121.19"/>
    <path class="cls-36" d="M507.51,13.81s-7.74,35.18-43.91,42.42V13.54l43.91,.27Z"/>
    <path class="cls-36" d="M518.55,13.81s7.74,35.18,43.91,42.42V13.54l-43.91,.27Z"/>
    <path class="cls-36" d="M507.51,110.34s-7.74-35.18-43.91-42.42v42.69l43.91-.27Z"/>
    <path class="cls-36" d="M518.55,110.34s7.74-35.18,43.91-42.42v42.69l-43.91-.27Z"/>
    <path class="cls-36" d="M513.03,28.66s-7.33,21.1-33.13,32.54c0,0,30.78,13.19,33.13,34.01,0,0,9.97-24.92,33.71-33.13,0,0-23.46-12.02-33.71-33.42Z"/>
  </g>
  <g>
    <rect class="cls-43" x="337.05" y="1.5" width="121.94" height="121.19"/>
    <path class="cls-36" d="M391.73,13.81s-7.74,35.18-43.91,42.42V13.54l43.91,.27Z"/>
    <path class="cls-36" d="M402.76,13.81s7.74,35.18,43.91,42.42V13.54l-43.91,.27Z"/>
    <path class="cls-36" d="M391.73,110.34s-7.74-35.18-43.91-42.42v42.69l43.91-.27Z"/>
    <path class="cls-36" d="M402.76,110.34s7.74-35.18,43.91-42.42v42.69l-43.91-.27Z"/>
    <path class="cls-36" d="M397.25,28.66s-7.33,21.1-33.13,32.54c0,0,30.78,13.19,33.13,34.01,0,0,9.97-24.92,33.71-33.13,0,0-23.46-12.02-33.71-33.42Z"/>
  </g>
  <g>
    <rect class="cls-43" x="221.26" y="1.5" width="121.94" height="121.19"/>
    <path class="cls-36" d="M275.94,13.81s-7.74,35.18-43.91,42.42V13.54l43.91,.27Z"/>
    <path class="cls-36" d="M286.99,13.81s7.74,35.18,43.91,42.42V13.54l-43.91,.27Z"/>
    <path class="cls-36" d="M275.94,110.34s-7.74-35.18-43.91-42.42v42.69l43.91-.27Z"/>
    <path class="cls-36" d="M286.99,110.34s7.74-35.18,43.91-42.42v42.69l-43.91-.27Z"/>
    <path class="cls-36" d="M281.46,28.66s-7.33,21.1-33.13,32.54c0,0,30.78,13.19,33.13,34.01,0,0,9.97-24.92,33.71-33.13,0,0-23.46-12.02-33.71-33.42Z"/>
  </g>
  <g>
    <rect class="cls-43" x="108.08" y="1.5" width="121.94" height="121.19"/>
    <path class="cls-36" d="M162.76,13.81s-7.74,35.18-43.91,42.42V13.54l43.91,.27Z"/>
    <path class="cls-36" d="M173.8,13.81s7.74,35.18,43.91,42.42V13.54l-43.91,.27Z"/>
    <path class="cls-36" d="M162.76,110.34s-7.74-35.18-43.91-42.42v42.69l43.91-.27Z"/>
    <path class="cls-36" d="M173.8,110.34s7.74-35.18,43.91-42.42v42.69l-43.91-.27Z"/>
    <path class="cls-36" d="M168.28,28.66s-7.33,21.1-33.13,32.54c0,0,30.78,13.19,33.13,34.01,0,0,9.97-24.92,33.71-33.13,0,0-23.46-12.02-33.71-33.42Z"/>
  </g>
  <rect class="cls-28" y="924.02" width="1332.96" height="75.64"/>
  <g>
    <polygon class="cls-44" points="507.4 681.8 239.78 681.94 297 599.88 473.18 599.88 507.4 681.8"/>
    <rect class="cls-38" x="239.78" y="681.94" width="267.6" height="20.24"/>
    <polygon class="cls-44" points="271.81 947.57 254.49 947.57 246.63 702.46 277.66 702.46 271.81 947.57"/>
    <polygon class="cls-44" points="495.32 947.57 477.82 947.57 471.69 702.74 501.13 702.74 495.32 947.57"/>
    <rect class="cls-44" x="297" y="359.08" width="176.18" height="240.81"/>
  </g>
  <g>
    <polygon class="cls-44" points="1083.71 681.8 816.09 681.94 873.31 599.88 1049.49 599.88 1083.71 681.8"/>
    <rect class="cls-38" x="816.09" y="681.94" width="267.6" height="20.24"/>
    <polygon class="cls-44" points="848.12 947.57 830.8 947.57 822.94 702.46 853.97 702.46 848.12 947.57"/>
    <polygon class="cls-44" points="1071.63 947.57 1054.13 947.57 1048 702.74 1077.44 702.74 1071.63 947.57"/>
    <rect class="cls-44" x="873.31" y="359.08" width="176.18" height="240.81"/>
  </g>
  <g>
    <g>
      <path class="cls-45" d="M886.59,813.96s8.51,16.12,4.92,23.73c0,0-16.67,10.56-27.86-1.08,0,0,15.16-7,22.93-22.65Z"/>
      <path class="cls-45" d="M882.56,804.11s-8.51,23.92-23.9,27.83c0,0-5.67-12.66-13.25-20.22,0,0-11.33-80.56-9.88-110.79,0,0,15.5,7.82,52.03-.59,0,0,.83,40.2-3.65,61.69-4.48,21.49-1.34,42.08-1.34,42.08Z"/>
      <path class="cls-50" d="M891.52,837.68s5.82,11.64,3.58,16.12c0,0-11.64,4.48-27.31,.45,0,0-8.51-2.24-17.46,4.92-8.95,7.16-43.87,10.74-55.07,.45-11.19-10.3,8.06-21.04,8.06-21.04,0,0,26.86-7.61,31.34-19.7s10.74-7.16,10.74-7.16c0,0,12.54,9.4,14.33,18.36,0,0,14.33-4.03,22.83-25.97l4.03,9.85s-8.51,17.91-21.49,21.94c0,0,4.92,10.74,26.41,1.79Z"/>
      <circle class="cls-51" cx="861.25" cy="834.67" r="5.82"/>
      <circle class="cls-51" cx="846.26" cy="851.2" r="3.85"/>
      <circle class="cls-51" cx="833.59" cy="856.2" r="3.85"/>
      <circle class="cls-51" cx="819.13" cy="858.22" r="3.85"/>
      <circle class="cls-51" cx="806.88" cy="856.72" r="3.85"/>
      <circle class="cls-51" cx="796.4" cy="852.79" r="3.85"/>
      <path class="cls-8" d="M844.51,842.61s-28.65,12.54-43.43,.9"/>
    </g>
    <g>
      <path class="cls-45" d="M938.6,822.3s9.01,17.07,5.22,25.13c0,0-17.65,11.18-29.51-1.15,0,0,16.06-7.41,24.29-23.98Z"/>
      <path class="cls-45" d="M934.34,811.87s-9.01,25.33-25.32,29.47c0,0-6-13.41-14.04-21.41,0,0-12-85.32-10.47-117.34,0,0,16.41,8.28,55.11-.63,0,0,.88,42.57-3.86,65.33-4.74,22.76-1.42,44.57-1.42,44.57Z"/>
      <path class="cls-50" d="M943.82,847.43s6.16,12.33,3.79,17.07c0,0-12.33,4.74-28.92,.47,0,0-9.01-2.37-18.49,5.22-9.48,7.59-46.47,11.38-58.32,.47-11.85-10.91,8.53-22.28,8.53-22.28,0,0,28.45-8.06,33.19-20.86,4.74-12.8,11.38-7.59,11.38-7.59,0,0,13.28,9.96,15.17,19.44,0,0,15.17-4.27,24.18-27.5l4.27,10.43s-9.01,18.97-22.76,23.23c0,0,5.22,11.38,27.97,1.9Z"/>
      <circle class="cls-51" cx="911.76" cy="844.24" r="6.16"/>
      <circle class="cls-51" cx="895.89" cy="861.75" r="4.08"/>
      <circle class="cls-51" cx="882.46" cy="867.05" r="4.08"/>
      <circle class="cls-51" cx="867.15" cy="869.18" r="4.08"/>
      <circle class="cls-51" cx="854.18" cy="867.59" r="4.08"/>
      <circle class="cls-51" cx="843.08" cy="863.43" r="4.08"/>
      <path class="cls-8" d="M894.03,852.65s-30.35,13.28-45.99,.95"/>
    </g>
    <path class="cls-45" d="M896.67,488.86c-14.68,12.94-25.39,10.38-25.39,10.38-38.33-.5-58.76-113.75-58.76-113.75,0,0-1.28-5.98-3.2-6.83s-6.83-17.29-6.83-17.29c0,0-3.63-7.47,3.84-7.68,0,0-2.77-8.32,4.7-7.04,0,0-1.07-7.26,5.98-4.7,0,0,2.35-10.88,9.82,2.56,0,0-7.94-8.49-4.86-12.88,0,0,1.42-2.13,4.86,2.25,0,0,2.37,2.73,4.98,3.68s5.93,6.52,6.64,18.85c0,0-.36,7.11-2.73,9.84l-1.66,4.27v3.79s26.53,40.42,37.23,69.54c0,0,9.96-5.79,16.43-10.27"/>
    <path class="cls-25" d="M822.61,338.6s8.94,8.94,2.98,15.17c-5.96,6.22-8.58-11.81-8.58-11.81"/>
    <path class="cls-25" d="M811.03,346.65s3.65,13.48,8.03,12.46,3.5-4.09,3.5-4.09"/>
    <path class="cls-25" d="M806.34,353.69s3.82,10.96,8.64,9.21c4.82-1.75,2.34-4.23,2.34-4.23"/>
    <path class="cls-25" d="M802.5,361.37s3.57,5.32,6.64,3.57,2.19-2.92,2.19-2.92"/>
    <path class="cls-25" d="M827.82,348.02l1.61,4.67s-10.36,3.21-6.86,19.99"/>
    <path class="cls-45" d="M1040.42,488.86c14.68,12.94,25.39,10.38,25.39,10.38,38.33-.5,58.76-113.75,58.76-113.75,0,0,1.28-5.98,3.2-6.83s6.83-17.29,6.83-17.29c0,0,3.63-7.47-3.84-7.68,0,0,2.77-8.32-4.7-7.04,0,0,1.07-7.26-5.98-4.7,0,0-2.35-10.88-9.82,2.56,0,0,7.94-8.49,4.86-12.88,0,0-1.42-2.13-4.86,2.25,0,0-2.37,2.73-4.98,3.68s-5.93,6.52-6.64,18.85c0,0,.36,7.11,2.73,9.84l1.66,4.27v3.79s-26.53,40.42-37.23,69.54c0,0-9.96-5.79-16.43-10.27"/>
    <path class="cls-45" d="M1000.09,346.83s-8.54,15.96-2.52,35.38c0,0-3.53,31.16-40.1,37.43,0,0-40.02-6.34-17.28-34.82,0,0,3.59-1.57,2.8-7.66,0,0,47.29-3.98,57.1-30.33Z"/>
    <path class="cls-45" d="M930.42,272.82s-10.62,6.78-13.24,30.71c-.29,2.61,1.12,7.86,.1,9.84-7.97,15.49-5.96,30.64-1.75,39.29,1.04,2.14,1.43,4.68,2.31,6.66,6.38,14.42,28.26,18.73,28.26,18.73,0,0,43.46-3.12,51.86-25.51,0,0,8.64,12.84,19.47-2.14,0,0,12.24-16.4,3.99-22.01,0,0-9.1-4.66-15.84,4.77,0,0,10.5-40.46-2.67-48.56,0,0-30.36-37.63-72.48-11.78Z"/>
    <path class="cls-4" d="M936.66,326.84s-8.61,10.65,4.55,13.16"/>
    <path class="cls-4" d="M1019.66,336.86s-3.03-10.83-12.57,5.33c0,0,7.49-6.85,8.15-.35"/>
    <path class="cls-57" d="M942.65,377.06s7.99,1.31,16.83-1.11c0,0,7.75-.87,17.91-5.47,0,0-7.31,6.57-20.91,9.26,0,0-6.99,1.78-14.03-.41,0,0,.41,.17,.21-2.28Z"/>
    <path class="cls-57" d="M960.41,307.69s16.74-.21,23.15,5.48c0,0-4.01-7.67-22.89-8.5,0,0-3.61,1.14-.26,3.02Z"/>
    <path class="cls-57" d="M917.54,303.81c.33-.69,8.88-1.48,16.78-.85,0,0,3.55,1.59-.15,3.03,0,0-14.35-2.65-16.41,.94,0,0-1.04-1.42-.22-3.12Z"/>
    <g>
      <path class="cls-33" d="M974.02,320.63s.05-.39-.19-.75c-.82-1.19-2.76-3.46-6.21-3.89-3.86-.49-6.44,2.87-7.33,4.08-.15,.21-.17,.41-.17,.41,0,0-.04,.21,.07,.38,.53,.79,2.33,3.05,5.98,3.56,2.17,.31,5.37-.48,7.64-3.19,.16-.19,.2-.45,.21-.59Z"/>
      <circle class="cls-57" cx="965.97" cy="320.31" r="4.02"/>
      <circle class="cls-33" cx="968.84" cy="321.19" r="1.1"/>
      <path class="cls-4" d="M960.05,320.04s5.86-8.62,13.93-.17"/>
    </g>
    <g>
      <path class="cls-33" d="M932.71,317.15s.1-.35-.07-.71c-.58-1.2-2.04-3.56-5.14-4.45-3.47-.99-6.31,1.73-7.3,2.7-.17,.17-.21,.35-.21,.35,0,0-.07,.19,.01,.36,.37,.8,1.71,3.12,4.98,4.11,1.95,.59,4.99,.32,7.45-1.85,.17-.15,.25-.38,.28-.51Z"/>
      <circle class="cls-57" cx="925.37" cy="315.71" r="3.72"/>
      <circle class="cls-33" cx="927.68" cy="317.07" r="1.04"/>
      <path class="cls-4" d="M920.11,314.8s6.46-7.65,12.6,1.81"/>
    </g>
    <path class="cls-50" d="M940.19,384.82s-13.69,18.91,9.13,24.12c0,0,34.56,7.82,48.25-26.73,0,0,23.11,3.23,38.78,20.81,18.29,20.51,27.57,29.24,27.57,29.24,0,0-5.23,78.93-20.66,64.63,0,0,12.47,39.69,7.98,96.05,0,0-112.39,31.36-159.99-5.15,0,0-6.25-58.85,5.42-98.93,0,0-14.86-30.69-21.21-50.88,0,0,7.09-6.24,18.9-24.7,10.73-16.78,13.85-17.31,45.91-28.52"/>
    <path class="cls-39" d="M997.65,382.15s-9.5,30.44-48.25,26.73c0,0-22.57-5.73-9.13-24.12,0,0-4.77,1.06-6.33,2.1,0,0-13.3,22.73,14.67,27.65,0,0,31.16,3.16,45.92-15.48,0,0,6.47-8.54,8.54-15.02l-5.43-1.86Z"/>
    <path class="cls-52" d="M828.6,701.5s-8.9-8.73-11.2-25.9l-6.14-107.97s45.58,31.84,156.79-6.15c0,0,11.64,42.61-2.02,92.7,0,0-5.38,25.45-10.76,46.52,0,0-47.6,13.12-71.61,3.58l-1.11-7.27,.1,7.54s-31.33,4.81-54.04-3.05Z"/>
    <path class="cls-17" d="M880.19,701.81s-5.3-41.36-1.05-65.12c0,0-8.5-2.43-10.72-8.35"/>
    <path class="cls-26" d="M895.35,781.42s-10.55-49.3-10.11-59.64c.44-10.34-.23-19.97-.23-19.97"/>
    <path class="cls-18" d="M971.22,584.78s-93.93,54.89-158.21,7.88"/>
    <path class="cls-24" d="M971.91,576.37s-95.37,54.98-159.66,7.98"/>
    <path class="cls-16" d="M971.7,591.38s-93.83,54.23-158.11,7.23"/>
    <path class="cls-18" d="M969.45,633.21s-45.43,32.28-89.2,24.54"/>
    <path class="cls-24" d="M971.91,623.76s-51.52,34.47-91.67,26.24"/>
    <path class="cls-16" d="M968.32,640.45s-34.87,30.36-87.84,24.07"/>
    <path class="cls-18" d="M873.57,656.62s-28.72,11.88-57.1-3.06"/>
    <path class="cls-24" d="M876.04,647.17s-36.16,14.6-60.31-5.82"/>
    <path class="cls-16" d="M872.45,663.86s-22.11,11.86-55.23-1.58"/>
    <path class="cls-22" d="M872.02,577.43s8.57,17.99-1.78,40.28c-10.35,22.29,1.9,34.76,1.9,34.76"/>
    <path class="cls-22" d="M865.73,576.73s-12.4,27.58-4.44,69.77"/>
    <line class="cls-23" x1="897.34" y1="488.93" x2="901.61" y2="439.93"/>
    <path class="cls-41" d="M957.66,349.65s-6.42-2.62-14.47-1.08c0,0-6.67-1.96-12.9-1.14,0,0-.29,11.02,9.78,14.35,10.07,3.33,17.22-5.72,17.59-12.14Z"/>
    <path class="cls-37" d="M955.94,350.29s-.76,9.71-13.37,8.6c-11.45-1.01-10.78-9.65-10.78-9.65,0,0,12.85,1.72,24.15,1.05Z"/>
    <path class="cls-33" d="M954.37,350.29s-3.52,4.22-13.24,2.89c0,0-6.05-.23-8.29-3.65,0,0,12.56,1.38,21.53,.76Z"/>
    <path class="cls-23" d="M1019.43,469.87s9.53,19.07,23.84,27.02"/>
    <path class="cls-55" d="M1102.98,339.65l-9.11-10.34-3.71,4.77,10.06,11.72s1.14-4.24,2.75-6.15Z"/>
    <path class="cls-55" d="M1134.92,369.36l-24.85-23.01-2.1,5.96,22.59,20.57s2.75-1.61,4.36-3.52Z"/>
    <polygon class="cls-30" points="1090.17 334.08 1087.3 327.18 1093.88 329.31 1090.17 334.08"/>
    <path class="cls-10" d="M1114.48,338.6s-8.94,8.94-2.98,15.17,8.58-11.81,8.58-11.81"/>
    <path class="cls-10" d="M1126.05,346.65s-3.65,13.48-8.03,12.46-3.5-4.09-3.5-4.09c0,0,1.93-.69,2.87-3.21"/>
    <path class="cls-10" d="M1130.75,353.69s-3.82,10.96-8.64,9.21c-4.82-1.75-2.34-4.23-2.34-4.23,0,0,1.5-.64,2.4-2.53"/>
    <path class="cls-10" d="M1134.59,361.37s-3.57,5.32-6.64,3.57c-3.06-1.75-2.19-2.92-2.19-2.92,0,0,1.28-1.06,2.14-2.51"/>
    <path class="cls-25" d="M1109.27,348.02l-1.61,4.67s10.36,3.21,6.86,19.99"/>
    <path class="cls-51" d="M922.92,265.35c-5.22,21.65-4.66,32.51-4.66,32.51,4.64-21.71,11.03-23.21,11.03-23.21,26.68-13.58,67.24,8.72,67.24,8.72,11.93,18.8,8.67,49.9,8.67,49.9,8.73-9.89,15.94-5.79,15.94-5.79,16.83-42.64-7.91-56.92-7.91-56.92,0,0-17.26-23.99-50.26-24.01-33-.02-40.04,18.81-40.04,18.81Z"/>
  </g>
  <g>
    <path class="cls-33" d="M504.5,875.07s1.5,9.39-1.45,16.58c0,0,30.65,17.53,70.71-9.09l-69.27-7.5Z"/>
    <path class="cls-9" d="M498.67,894.59s-7.01,12.27-2.34,28.64c0,0,12.86,16.95,57.28,12.27,0,0,35.07,21.04,75.98,9.35,0,0,33.9-8.18,7.01-30.39,0,0-35.07-26.89-64.29-32.15,0,0-23.38,23.38-73.64,12.27Z"/>
    <path class="cls-33" d="M447.23,893.27s1.5,9.39-1.45,16.58c0,0,30.65,17.53,70.71-9.09l-69.27-7.5Z"/>
    <path class="cls-9" d="M445.79,909.85s-7.01,12.27-2.34,28.64c0,0,12.86,16.95,57.28,12.27,0,0,35.07,21.04,75.98,9.35,0,0,33.9-8.18,7.01-30.39,0,0-35.07-26.89-64.29-32.15,0,0-23.38,23.38-73.64,12.27Z"/>
    <path class="cls-40" d="M618.32,693.43l-30.29,189.07c-22.71,9.99-55.16,6.65-55.16,6.65l-2.39,11.93c-39.07,9.99-91.87-3.83-91.87-3.83,1.53-97.72,10.16-207.53,10.16-207.53,0,0,43.01,4.55,75.92,4.02,0,0,16.19,1.57,36.56,0,0,0,32.39,1.04,57.05-.31Z"/>
    <line class="cls-20" x1="532.87" y1="889.15" x2="562.45" y2="708.28"/>
    <path class="cls-46" d="M315.85,392.93l3.05,60.36s5.49,25,17.68,31.7c12.19,6.71,202.41,25,202.41,25l26.82,7.49,22.41,2.01s-4.6,7.76,1.72,10.34l8.33-8.33s1.15,5.17,6.32,1.72l6.03-8.62s1.15,6.03,7.18,2.59l4.31-11.49,5.46,5.46s4.31,1.15,4.6-3.16l-8.62-20.98-29.31-13.22-47.41,6.03-154.13-51.99,1.78-30.64-78.65-4.27Z"/>
    <path class="cls-3" d="M598.27,521.5s12.85-12.08-10.13-14.51"/>
    <path class="cls-3" d="M610.63,514.6s7.87-11-3.11-16.38-12.78-6.5-12.78-6.5"/>
    <path class="cls-3" d="M622.12,505.69s4.23-9.27-3.62-13.3-16.82-9.42-16.82-9.42"/>
    <path class="cls-11" d="M393.14,421.51s-11.3,7.13-11.77,30.67"/>
    <path class="cls-46" d="M577.02,378.57l12.92,8.99c18.54-7.3,72.18-16.4,72.18-16.4,3.14-.83,6.2-1.59,9.16-2.27,0,0,3.16-16.18,31.15-21.35l17.26-9.9s10.93-2.92,6.48,7.21c0,0-5.83,5.16-10.83,8.34l11.88,7.64s-.54-1.95,6.94,.01c6.08,1.6,4.22,3.24,4.22,3.24,0,0,6.11-7.13,13.69-12.92,4.93-3.77,6.99-8.81,13.29-5.88,0,0,5.59,3.35-1.96,10.84l-14.67,19.7-34.5,12.53-25.39,2.26-8.45,6.93s-74.17,47.89-101.14,46.77-39.89-5.62-39.89-5.62l37.65-60.12"/>
    <path class="cls-13" d="M709.97,350.77s3.26,1.02,5.37,2.51"/>
    <path class="cls-13" d="M695.27,378.23s10.78-11.5,16.7-12.19c0,0,2.56-.05,5.65-4.79,2.94-4.51,3.48-10.04,7.75-8.77,6.18,1.83,1.85,8.36,1.85,8.36l-8.88,14.81"/>
    <path class="cls-3" d="M671.28,368.89s2,6.23,8.74,10.25"/>
    <path class="cls-13" d="M724.66,365.07l3.98-5.97,.18-8.64s.34-4.35,4.73-4.85c4.9-.56,5.26,5.27,5.26,5.27l-1.17,11.54-7.46,13"/>
    <path class="cls-13" d="M737.64,362.41l2.53-2.99,.18-8.64s.34-4.35,4.73-4.85c4.9-.56,5.26,5.27,5.26,5.27l-1.17,11.54-7.46,13"/>
    <path class="cls-46" d="M399.66,163.63s-2.74,27.66-15.8,49.62c0,0,5.2,76.91,65.3,82.44,0,0,41.59-31.08,23.46-81.47l-72.95-50.6Z"/>
    <g>
      <path class="cls-32" d="M295.25,441.18s-10.75,61.4,.75,97.13c0,0,73.27,30.71,148.1,8.37,0,0,65-17.93,80.72-54.98,0,0,5.82-39.73-8.55-65.57-2.71-4.88,16.82,28.5,17.99,20.46,0,0,39.96-70.31,49.66-73.4l-26.25-59.17s-8.24-42.21-35.56-68.24c0,0-15.27-8.27-32.52-16.99l-36.79,22.5-7.05,46.87-10.68-41.45s-1-11.9-50.87-45.84c0,0-54.72,15.68-81.57,38.95,0,0-26.52,36.1-19.24,67.39l11.85,123.98Z"/>
      <path class="cls-49" d="M384.21,210.86s43.14,30.11,50.87,45.84l-.03-14.96s-31.9-23.47-42.61-39.73l-8.23,8.85Z"/>
      <path class="cls-49" d="M474.07,217.45s17.02,.85,15.52,11.33l-36.79,22.5-.4-8.87s17.01-6.51,28.79-18.32c0,0-7.13-1.52-7.12-6.64Z"/>
      <path class="cls-21" d="M445.76,298.15s8.2,41.85-10.63,250.29"/>
      <ellipse class="cls-47" cx="435.4" cy="303.17" rx="2.82" ry="2.72" transform="translate(97.82 712.47) rotate(-85.33)"/>
      <ellipse class="cls-47" cx="438.42" cy="350.9" rx="2.82" ry="2.72" transform="translate(53.02 759.31) rotate(-85.33)"/>
      <ellipse class="cls-47" cx="437.64" cy="402.24" rx="2.82" ry="2.72" transform="translate(1.13 805.71) rotate(-85.33)"/>
      <ellipse class="cls-47" cx="434.78" cy="448.9" rx="2.82" ry="2.72" transform="translate(-48 845.73) rotate(-85.33)"/>
      <ellipse class="cls-47" cx="431.37" cy="507.58" rx="2.82" ry="2.72" transform="translate(-109.62 896.23) rotate(-85.33)"/>
      <path class="cls-47" d="M363.98,323l-1.09,42.13s22.11,25.04,48.94,3.99l3.74-45.83s-17.91,8.7-51.58-.3Z"/>
      <path class="cls-47" d="M475.83,332.13l-1.09,42.13s22.11,25.04,48.94,3.99l3.74-45.83s-17.91,8.7-51.58-.3Z"/>
      <path class="cls-47" d="M344.79,474.7l-1.24,47.75s25.06,28.38,55.46,4.53l4.24-51.94s-20.3,9.86-58.46-.34Z"/>
      <path class="cls-47" d="M454.36,452.2l7.37,47.2s29.76,23.41,55.37-5.52l-5.17-51.85s-18.2,13.35-57.57,10.17Z"/>
      <path class="cls-19" d="M368.76,215.37s40.76,91.65,3.4,338.67"/>
      <path class="cls-19" d="M375.44,213.79s39.85,94.76,2.49,341.78"/>
      <path class="cls-19" d="M381.97,211.8s39.72,97.63,2.36,344.66"/>
      <path class="cls-19" d="M362.03,217.48s41.29,88.33,3.93,335.36"/>
      <path class="cls-19" d="M488.58,228.85s38.7,79.77-6.17,299.11"/>
      <path class="cls-19" d="M496.76,233.25s36.61,74.27-8.26,293.6"/>
      <path class="cls-19" d="M505.11,237.47s35.67,67.9-9.2,287.23"/>
      <path class="cls-19" d="M481.8,230.39s38.76,79.29-6.11,298.62"/>
      <path class="cls-12" d="M369.17,268.33c36.32,42.35,38.83,117.36,38.83,117.36,0,0-12.09,22.31-78.31,32.63"/>
    </g>
    <path class="cls-46" d="M522.7,76.57s9.97,19.67,.6,62.22c0,0-3.27,10.07-2.96,15.81,.31,5.74-2.9,14.38-3.97,20.68-6.03,35.62-24.17,43.38-24.17,43.38,0,0-6.72,10.85-27.06,8.15-20.34-2.7-39.23-12.18-45.31-21.8-6.08-9.61-19.66-26.54-19.57-39.96,0,0-12.45,1.01-15.28-14.2,0,0-9.89-24.43,4.07-28.42,13.96-3.99,18.95,15.25,18.95,15.25,0,0-12.75-55.76,20.21-72.25,0,0,46.22-25.41,94.51,11.12Z"/>
    <path class="cls-41" d="M456.76,178.25s10.68-1.03,21.94,4.83c0,0,10.76,.06,19.64,4.05,0,0-4.48,16.47-20.89,16.93-16.41,.46-22.99-16.13-20.69-25.82Z"/>
    <path class="cls-37" d="M459.03,179.95s-3.19,14.73,16,18.69c17.43,3.6,20.28-9.52,20.28-9.52,0,0-19.82-3.16-36.28-9.18Z"/>
    <path class="cls-32" d="M474.71,120.74s-15.77-8.46-31.8-5.38c0,0,9.61-9.85,33.28,.47,0,0,3.43,4.02-1.48,4.9Z"/>
    <path class="cls-32" d="M526.17,129.44c-11.7-4.28-18.3-1.87-18.3-1.87-4.17-2.75,.58-5.09,.58-5.09,8.05-.04,14.07,1.19,18.54,2.89,0,0-.17,4.3-.81,4.07Z"/>
    <path class="cls-33" d="M461.37,180.65s3.52,6.42,18.52,8.77c0,0,8.89,3.75,13.74-.33,0,0-19.23-3.53-32.26-8.44Z"/>
    <path class="cls-17" d="M386.88,131.97s6.4-6.38,10.3,2.28c3.91,8.66,3.69,11.23,3.69,11.23,0,0-5.36-13.57-10.44-4.62"/>
    <path class="cls-6" d="M384.19,124.13s11.3-7.25,17.04,3.95c5.75,11.2,3.75,15.58,3.75,15.58l6.77,.96s-16.48-38.9,8.3-49.59c0,0-.81-27.53,20.12-28.21,20.93-.69,33.9-19.22,84.62,14.25,0,0,9.72-29.63-43.89-46.35,0,0-36.18-11.73-49.96,5.46,0,0-25.02-1.45-36.96,30.06-11.94,31.51-9.8,53.9-9.8,53.9Z"/>
    <path class="cls-57" d="M470.16,227.23s-23.04-2.14-36.14-10.24c0,0-10.72-4.48-19.8-19.71,0,0,11.04,22.41,32.3,28.52,.11,.03,.2,.05,.31,.08,.98,.27,12.98,3.74,21.52,4.38,0,0,2.21-2.44,1.81-3.04Z"/>
    <path class="cls-4" d="M464.49,91.23s15.47,4.93,22.61,8.14c7.15,3.21,29.98,1.85,29.98,1.85"/>
    <path class="cls-32" d="M472.63,169.21s-11.72,5.59-20.34,5.41c0,0,.83,3.51,4.47,3.62,0,0,14.67-.23,21.94,4.83,0,0,10.66-.3,19.64,4.05,0,0,.95,.94,3.11,.93,0,0-8.45-9.15-7.36-12.93,0,0-9.17,2.58-14.28-4.8,0,0-2.79,.76-7.18-1.12Z"/>
    <path class="cls-17" d="M491.54,142.47l5.32,22.67s1.73,12.25-7.76,10.58c-7.88-1.38-7.87-3.92-7.87-3.92"/>
    <path class="cls-4" d="M447.6,179.8s.19-9.15,5.88-10.36c5.7-1.21,10.14-11.19,10.14-11.19"/>
    <g>
      <path class="cls-33" d="M452.12,128.25s.07-.47,.48-.79c1.36-1.09,4.39-3.05,8.53-2.35,4.63,.78,6.46,5.56,7.07,7.26,.11,.29,.05,.53,.05,.53,0,0-.03,.26-.21,.42-.88,.73-3.75,2.72-8.15,2.05-2.62-.4-6.05-2.42-7.73-6.34-.12-.27-.08-.59-.04-.76Z"/>
      <circle class="cls-57" cx="461.54" cy="130.68" r="4.86"/>
      <circle class="cls-33" cx="459.88" cy="127.48" r="1.33"/>
      <path class="cls-7" d="M468.48,132.42s-3.78-12.01-16.05-5.03"/>
    </g>
    <g>
      <path class="cls-33" d="M505.44,141.33s0-.44,.34-.81c1.11-1.21,3.65-3.46,7.6-3.41,4.42,.06,6.8,4.25,7.61,5.74,.14,.26,.12,.48,.12,.48,0,0,.01,.25-.14,.42-.72,.81-3.1,3.06-7.29,3.07-2.49,0-5.97-1.38-8.09-4.79-.15-.24-.15-.54-.15-.7Z"/>
      <circle class="cls-57" cx="514.55" cy="142.23" r="4.55"/>
      <circle class="cls-33" cx="512.35" cy="139.15" r="1.28"/>
      <path class="cls-7" d="M521.05,143.01s-4.89-11.25-15.42-2.3"/>
    </g>
    <g>
      <path class="cls-48" d="M386.86,78.25s14.1-34.99,21.1-43.38c7.01-8.39,77.4-18.35,98.15-1.37,0,0,3.59,7.67,2.29,10.73"/>
      <path class="cls-27" d="M385.5,116.98s-51.45,.56-52.78-5.92c-3.1-15.06,32.05-25.76,32.05-25.76,0,0,84.14-28.32,114.61-39.67,23.07-8.59,75.97-21.28,85,3.7,9.03,24.98-36.69,49.18-36.69,49.18,0,0-86.42-17.44-141.37,8.54,0,0-1.88,5.56-.81,9.93Z"/>
      <path class="cls-1" d="M527.69,98.51s42.75-29.06,18.68-45.51c-19.36-13.23-55-.75-91.54,17.82-36.54,18.57-90.34,28.55-90.34,28.55,0,0-22.51,11.98,21.02,17.61"/>
    </g>
  </g>
  <g>
    <polygon class="cls-44" points="168.11 569.81 173.12 972.27 193.16 972.27 228.23 643.29 1106.63 643.29 1141.7 970.6 1163.41 970.6 1163.41 569.81 168.11 569.81"/>
    <path class="cls-29" d="M1189.63,538.1l38.32,155.33s-34.51,17.25-75.72-4.79c0,0-12.46,19.17-42.18,2.88,0,0-10.54,8.63-56.55-.96,0,0-32.59-3.83-47.93,1.92,0,0-14.38,11.5-37.38-.96,0,0-20.13,9.59-38.34,0,0,0-23.96,4.79-52.72-3.83-28.76-8.63-73.81,15.34-73.81,15.34,0,0-7.67-14.38-33.55-10.54,0,0-23.01,13.42-41.22,1.92,0,0-25.88-8.63-84.35-.96,0,0-13.42,10.54-25.88,0,0,0-157.64,4.54-186.4-7.92,0,0-27.63-8.48-41.44,9.48,0,0-19.33-29-51.1-15.19,0,0-20.72,23.48-55.24,4.14,0,0-69.05-30.38-95.29-15.19,0,0-27.62,16.57-66.29-1.38l23.48-129.82,1043.6,.55Z"/>
    <line class="cls-2" x1="1152.23" y1="688.63" x2="1144.96" y2="574.77"/>
    <line class="cls-2" x1="1110.05" y1="691.51" x2="1119.19" y2="604.67"/>
    <line class="cls-2" x1="929.84" y1="691.51" x2="939.86" y2="569.91"/>
    <path class="cls-2" d="M769.77,692.47s-17.93-75.16-22.67-124.14"/>
    <path class="cls-2" d="M803.32,703.01s17.25-50.95,13.3-120.47"/>
    <path class="cls-2" d="M340.13,680.29s-17.93-75.16-22.67-124.14"/>
    <path class="cls-2" d="M390.29,696.37s17.25-50.95,13.3-120.47"/>
    <line class="cls-2" x1="644.2" y1="693.43" x2="637.29" y2="600.72"/>
    <line class="cls-2" x1="618.61" y1="692.48" x2="619.59" y2="578.41"/>
    <line class="cls-2" x1="968.18" y1="691.51" x2="964.43" y2="621.64"/>
    <line class="cls-2" x1="1005.57" y1="692.47" x2="1001.11" y2="599.16"/>
    <line class="cls-2" x1="188.84" y1="668.75" x2="197.14" y2="571.29"/>
    <polygon class="cls-34" points="146.03 537.54 1189.63 538.1 1100.7 507.07 227.04 507.07 146.03 537.54"/>
  </g>
  <polygon class="cls-33" points="830.91 527.85 977.58 535.22 996.02 517.2 850.99 508.18 830.91 527.85"/>
  <g>
    <path class="cls-46" d="M312.98,419.65l6.34,33.34s5.49,25,17.68,31.7c12.19,6.71,202.41,25,202.41,25l26.82,7.49,22.41,2.01s-4.6,7.76,1.72,10.34l8.33-8.33s1.15,5.17,6.32,1.72l6.03-8.62s1.15,6.03,7.18,2.59l4.31-11.49,5.46,5.46s4.31,1.15,4.6-3.16l-8.62-20.98-29.31-13.22-47.41,6.03-154.13-51.99,.66-28.52s-37.04,19.78-80.82,20.62Z"/>
    <path class="cls-3" d="M598.69,521.2s12.85-12.08-10.13-14.51"/>
    <path class="cls-3" d="M611.04,514.3s7.87-11-3.11-16.38c-10.99-5.38-12.78-6.5-12.78-6.5"/>
    <path class="cls-3" d="M622.54,505.4s4.23-9.27-3.62-13.3-16.82-9.42-16.82-9.42"/>
  </g>
  <g>
    <rect class="cls-53" x="245.1" y="515.69" width="130.94" height="15.91" transform="translate(621.14 1047.29) rotate(-180)"/>
    <polygon class="cls-53" points="432.85 501.21 376.04 515.69 245.1 515.69 306.74 500.07 432.85 501.21"/>
    <polygon class="cls-53" points="429.45 511.93 376.08 528.55 376.04 531.6 429.45 514.33 429.45 511.93"/>
    <polygon class="cls-33" points="429.45 502.27 376.04 515.69 376.04 529.47 429.45 512.2 429.45 502.27"/>
    <line class="cls-14" x1="376.04" y1="515.69" x2="245.1" y2="515.69"/>
    <polygon class="cls-14" points="360.86 503.21 329.16 503.21 302.65 511.52 336.17 511.52 360.86 503.21"/>
  </g>
  <g>
    <rect class="cls-54" x="238.95" y="499.74" width="130.94" height="15.91" transform="translate(608.83 1015.38) rotate(-180)"/>
    <polygon class="cls-54" points="426.69 485.25 369.89 499.74 238.95 499.74 300.58 484.11 426.69 485.25"/>
    <polygon class="cls-54" points="423.3 495.97 369.92 512.59 369.89 515.64 423.3 498.37 423.3 495.97"/>
    <polygon class="cls-33" points="423.3 486.32 369.89 499.74 369.89 513.51 423.3 496.24 423.3 486.32"/>
    <line class="cls-14" x1="369.89" y1="499.74" x2="238.95" y2="499.74"/>
    <polygon class="cls-14" points="354.7 487.25 323 487.25 296.5 495.57 330.02 495.57 354.7 487.25"/>
  </g>
  <g>
    <path class="cls-33" d="M631.17,527.37s8.86-7.93,6.53-16.32c0,0,30.54-3.03,42.19-8.16,11.65-5.13,31.78-5.67,42.73,9.25l.62,13.82-92.07,1.4Z"/>
    <path class="cls-33" d="M814.47,527.37s-8.86-7.93-6.53-16.32c0,0-30.54-3.03-42.19-8.16s-32.17-5.67-43.13,9.25l-.23,13.82,92.07,1.4Z"/>
    <path class="cls-15" d="M631.29,528.29l76.27-3.24s18.76,5.95,34.53-.6l72.6,4.34"/>
    <path class="cls-5" d="M710.66,525.51s6.53-11.42,11.89-11.19c5.36,.23,14.92,11.65,14.92,11.65"/>
  </g>
  <g>
    <path class="cls-31" d="M1008.46,521.23l52-8.53s3.59,.99,1.91,4.58l-52.47,8.54-1.45-4.6Z"/>
    <polygon class="cls-30" points="1008.46 521.23 1002.34 525.19 1009.91 525.83 1008.46 521.23"/>
  </g>
  <g>
    <path class="cls-35" d="M1014.72,515.71l51.89,9.19s3.06,2.12,.28,4.96l-52.33-9.33,.16-4.82Z"/>
    <polygon class="cls-30" points="1014.72 515.71 1007.63 517.41 1014.56 520.53 1014.72 515.71"/>
  </g>
  <g>
    <path class="cls-55" d="M1096.61,521.33l-51.73,10.07s-3.62-.88-2.05-4.52l52.19-10.1,1.58,4.55Z"/>
    <polygon class="cls-30" points="1096.61 521.33 1102.61 517.19 1095.03 516.78 1096.61 521.33"/>
  </g>
  <g>
    <path class="cls-56" d="M1009.13,534.88l-51.55-10.95s-2.98-2.22-.11-4.96l51.98,11.1-.32,4.81Z"/>
    <polygon class="cls-30" points="1009.13 534.88 1016.28 533.42 1009.46 530.07 1009.13 534.88"/>
  </g>
</svg>