<?xml version="1.0" encoding="UTF-8"?>
<svg id="Layer_1" data-name="Layer 1" xmlns="http://www.w3.org/2000/svg" xmlns:xlink="http://www.w3.org/1999/xlink" viewBox="0 0 1334.99 1001.85">
  <defs>
    <style>
      .cls-1, .cls-2, .cls-3, .cls-4, .cls-5, .cls-6, .cls-7, .cls-8, .cls-9 {
        fill: none;
      }

      .cls-2 {
        stroke: #231f20;
      }

      .cls-2, .cls-3, .cls-4, .cls-5, .cls-6, .cls-7, .cls-10, .cls-11, .cls-12, .cls-8, .cls-9 {
        stroke-miterlimit: 10;
      }

      .cls-2, .cls-3, .cls-4, .cls-10, .cls-11, .cls-12 {
        stroke-width: 1.5px;
      }

      .cls-3 {
        stroke: #006838;
      }

      .cls-4, .cls-7, .cls-10, .cls-11 {
        stroke: #754c29;
      }

      .cls-13 {
        clip-path: url(#clippath);
      }

      .cls-14 {
        fill: #00a79d;
      }

      .cls-15 {
        fill: #f05380;
      }

      .cls-16 {
        fill: #fff;
      }

      .cls-17 {
        fill: #efcccd;
      }

      .cls-18 {
        fill: #803435;
      }

      .cls-19 {
        fill: #00a651;
      }

      .cls-20 {
        fill: #8c3333;
      }

      .cls-21 {
        fill: #b6302e;
      }

      .cls-22 {
        fill: #8b5e3c;
      }

      .cls-23 {
        fill: #8dc63f;
      }

      .cls-24 {
        fill: #ae8578;
      }

      .cls-25 {
        fill: #a97c50;
      }

      .cls-26, .cls-11, .cls-12 {
        fill: #be9e7d;
      }

      .cls-27 {
        fill: #bf6b6b;
      }

      .cls-28, .cls-29 {
        fill: #dea962;
      }

      .cls-30 {
        fill: #dc3b28;
      }

      .cls-31 {
        fill: #231f20;
      }

      .cls-32 {
        fill: #07935b;
      }

      .cls-33 {
        fill: #3a4851;
      }

      .cls-34 {
        fill: #3c2415;
      }

      .cls-35 {
        fill: #58595b;
      }

      .cls-36 {
        fill: #26130f;
      }

      .cls-37 {
        clip-path: url(#clippath-1);
      }

      .cls-5 {
        stroke-width: 2px;
      }

      .cls-5, .cls-6 {
        stroke: #be1e2d;
      }

      .cls-38 {
        opacity: .5;
      }

      .cls-7 {
        stroke-width: 8px;
      }

      .cls-10 {
        fill: #dcbf97;
      }

      .cls-12 {
        stroke: #603913;
      }

      .cls-29, .cls-39 {
        opacity: .8;
      }

      .cls-39 {
        fill: #edb36e;
      }

      .cls-40 {
        fill: #27aae1;
        opacity: .4;
      }

      .cls-8 {
        stroke: #fff;
      }

      .cls-8, .cls-9 {
        stroke-width: .5px;
      }

      .cls-9 {
        stroke: #fff200;
      }
    </style>
    <clipPath id="clippath">
      <rect class="cls-1" x="70.22" y="293.37" width="612.48" height="133.03"/>
    </clipPath>
    <clipPath id="clippath-1">
      <path class="cls-1" d="M906.69,364.55s-2.93,5.49,23.04,44.81l3.29,14.45-10.42,18.84-13.72-6.4-6.04-43.16-.37-27.25,4.21-1.28Z"/>
    </clipPath>
  </defs>
  <g>
    <g class="cls-38">
      <g class="cls-13">
        <path class="cls-19" d="M134.34,506.52s49.61,41.49,70.63-24.55c21.02-66.04,45.16-51.07,45.16-51.07,0,0,21.56-28.05-14.59-55.82-36.15-27.77-71.64,24.37-71.64,24.37,0,0-18.2,44.61-39.95,7.46-21.75-37.15-64.78,3.66-37.58,28.49,27.2,24.83,40.67,43.21,47.96,71.12Z"/>
        <path class="cls-23" d="M537.08,489.12s33.19,29.81,33.91-21.42c.72-51.23-46.17-45.64-49.78-63.34-3.61-17.7-20.92-46.57-67.09-46.57s-7.94,80.1-42.57,90.35c-34.63,10.25-63.49,81.03-17.31,74.51,46.17-6.52,93.79,23.29,95.95,30.74,2.16,7.45-2.16,6.52,2.16,7.45,4.33,.93,82.97,14.9,44.73-71.72Z"/>
        <path class="cls-19" d="M515.51,448.93s-19-110.84,37.52-115.96c56.51-5.12,39.2,63.8,63.73,56.35,24.53-7.45,41.12-95,65.65-80.1l1.42,136.88-168.31,2.83Z"/>
        <path class="cls-14" d="M248.71,469.11s-2.89-108.04,73.59-81.03c76.47,27.01,96.67,40.05,111.1,22.35,14.43-17.7,36.7,26.08,22.68,58.68H248.71Z"/>
      </g>
    </g>
    <rect class="cls-29" x="793.1" y="119.36" width="119.07" height="300.56" transform="translate(1122.28 -583) rotate(90)"/>
    <rect class="cls-29" x="622.38" y="-621.46" width="90.15" height="1333.07" transform="translate(712.53 -622.38) rotate(90)"/>
    <rect class="cls-39" x="793.1" y="-.33" width="119.07" height="300.56" transform="translate(1002.59 -702.69) rotate(90)"/>
    <rect class="cls-39" x="793.1" y="238.67" width="119.07" height="300.56" transform="translate(1241.58 -463.69) rotate(90)"/>
    <rect class="cls-29" x="-27.78" y="237.88" width="119.07" height="63.51" transform="translate(301.39 237.88) rotate(90)"/>
    <rect class="cls-39" x="-27.78" y="118.2" width="119.07" height="63.51" transform="translate(181.71 118.2) rotate(90)"/>
    <rect class="cls-39" x="-27.78" y="357.19" width="119.07" height="63.51" transform="translate(420.7 357.19) rotate(90)"/>
    <rect class="cls-40" x="81.72" y="112.05" width="601" height="314.33"/>
    <rect class="cls-28" x=".36" y="803.87" width="1333.75" height="195.96"/>
    <rect class="cls-22" x="682.81" y="90.64" width="21.4" height="357.79"/>
    <rect class="cls-22" x="60.38" y="90.64" width="21.4" height="357.79"/>
    <rect class="cls-22" x="371.49" y="-199.48" width="21.4" height="601.64" transform="translate(280.85 483.53) rotate(-90)"/>
    <rect class="cls-22" x="371.49" y="136.25" width="21.4" height="601.64" transform="translate(-54.88 819.27) rotate(-90)"/>
    <rect class="cls-39" x="442.53" y="126.56" width="119.07" height="1002" transform="translate(1129.63 125.49) rotate(90)"/>
    <rect class="cls-29" x="442.53" y="6.88" width="119.07" height="1002" transform="translate(1009.94 5.81) rotate(90)"/>
    <rect class="cls-29" x="442.53" y="245.87" width="119.07" height="1002" transform="translate(1248.94 244.8) rotate(90)"/>
    <rect class="cls-25" x="1007.66" y="49.83" width="327.33" height="754.46"/>
    <polyline class="cls-7" points="1334.79 49.83 1007.66 49.83 1007.66 803.01"/>
  </g>
  <g>
    <path class="cls-26" d="M777.53,575.31l-130.37,135.58s-47.06,44.44-101.67-6.03c-36.83-34.04-25.11-84.84-25.11-84.84l86.01-69.47s17.3,35.85,18.15,45.49c0,0,60.73-36.59,117.11-58.84"/>
    <path class="cls-33" d="M545.81,933.38s-8.51,47.27-10.57,67.86l-358.34-.4-.11-81.25,369.02,13.78Z"/>
    <path class="cls-26" d="M319.39,255.88s3.55,39.26-13.85,72.61c0,0-6.21,117.56,86.58,126.99,0,0,121.59-72.23,37.44-125.58l-110.18-74.02Z"/>
    <path class="cls-30" d="M292.74,337.33s-77.53,30.36-102.19,68.35c0,0-15.03,13.14-25.69,61.13,0,0-23.99,94.74-28.81,143.57,0,0,44.35,42.89,122.07,38.76l-81.33,270.45s29.9,39.85,208.93,42.28c0,0,108.11,4.12,170.92-32.95,0,0-10.55-165.41-13.28-330.43,0,0,37.58-6.51,75.7-51.07l-44.7-126.76s-.68-5.69-48.34-39.91c0,0-37.51-19.88-64.34-31.29l-51.62,34.16-16.77,47.67-27.43-45.14s5.52-2.27-73.11-48.82Z"/>
    <path class="cls-26" d="M486.81,105.23s19.27,27.33,14.53,93.23c0,0-2.7,15.83-.98,24.37,1.72,8.54,1.78,22.75-1.42,31.89s-26.77,70.38-26.77,70.38c0,0-7.7,17.76-38.81,18.16-31.11,.4-57.54-10.92-68.77-24.01-11.23-13.09-39.3-34.28-42.11-54.43,0,0-18.46,4.25-26.04-17.96,0,0-20.19-34.49-.12-43.53,20.07-9.04,31.77,18.74,31.77,18.74,0,0-24.08-81.8,21.76-113.76,0,0,56.51-47.32,136.97-3.08Z"/>
    <path class="cls-31" d="M423.69,168.13s-32.19-4.49-51.91,13.88c0,0,12.12-22.94,51.26-21.61,0,0,7.08,3.75,.65,7.74Z"/>
    <path class="cls-31" d="M500.63,181.64c-17.41-13.46-34.83-14.27-34.83-14.27-5.49-5.21,2.21-7.45,2.21-7.45,12.03,2.07,27.56,9.39,33.78,13.12,0,0-.34,9.23-1.16,8.6Z"/>
    <path class="cls-2" d="M295.16,218.1s8.2-10.97,15.96,1.16c7.76,12.13,7.99,16.04,7.99,16.04,0,0-11.01-19.19-16.67-4.64"/>
    <path class="cls-36" d="M440.14,340.88s-32.31,3.94-54.41-6.68c0,0-13.54-4.29-31.36-24.94,0,0,17.21,30.4,50.58,34.81,0,0,14.93,3.55,30.18-1.57,0,0,4.24,1.63,5-1.61Z"/>
    <path class="cls-5" d="M265.85,647.4s72.27-204.44-31.68-246.82"/>
    <line class="cls-5" x1="541.07" y1="602.99" x2="545.52" y2="462.57"/>
    <path class="cls-24" d="M470.56,287.78s-11.64-17.42-29.15-12.58c0,0-12.99-9.09-39.03,7.53,0,0,12.1,17.05,36.74,16.82,24.64-.23,31.44-11.77,31.44-11.77Z"/>
    <path class="cls-18" d="M466.94,288.59s-8.53-9.53-26.37-10.26c-17.84-.73-34.94,5.45-34.94,5.45,0,0,26.04,4.16,33.1,8.74,0,0,13.3-3.82,28.2-3.93Z"/>
    <path class="cls-16" d="M459.87,283.53s-12.2-10.17-43.07-2.77c0,0,26.11-1.16,43.07,2.77Z"/>
    <path class="cls-36" d="M432,156.81s6.6,8.67,.17,16.02c0,0,11.47-7-.17-16.02Z"/>
    <path class="cls-36" d="M456.83,155.77s-4.69,9.21,1.87,15.35c0,0-10.94-5.12-1.87-15.35Z"/>
    <path class="cls-12" d="M624.54,596.06s-37,5.4-43.29,32.34"/>
    <path class="cls-26" d="M141.82,614.51s-9.67,97.46-9.67,143.07c0,45.6,44.75,243.27,44.75,243.27l83.61-.4s-7-146.81-22.48-244.04c0,0,17.51-68.05,20.09-107.26,0,0-63.51,3.3-116.29-34.64Z"/>
    <path class="cls-26" d="M741.65,537.22c4.85-2.1,9.61-4.07,14.21-5.89,0,0,1.16-26.84,45.02-41.98l25.42-20.15s16.92-7.37,12.2,10.05c0,0-8.14,9.74-15.44,16.07l21.01,9.43s-1.34-3.02,11.19-1.67c10.18,1.1,7.59,4.19,7.59,4.19,0,0,8.12-12.98,18.93-24.15,7.04-7.27,9.13-15.89,20-12.71,0,0,9.83,4.04-.52,17.94l-18.85,35.32-52.56,28.58-40.38,9.81-11.94,13.23"/>
    <path class="cls-12" d="M813.82,492.73s5.5,.85,9.27,2.73"/>
    <path class="cls-12" d="M796.8,540.57s14.58-21.15,23.96-23.71c0,0,4.12-.7,7.94-9.1,3.64-7.99,3.17-17.03,10.36-16.02,10.41,1.45,5.02,13.03,5.02,13.03l-10.72,26.03"/>
    <path class="cls-12" d="M755.86,531.33s4.74,9.56,16.57,14.4"/>
    <path class="cls-12" d="M840.97,512.22l4.96-10.6-1.81-13.97s-.5-7.09,6.45-8.96c7.76-2.09,9.76,7.21,9.76,7.21l.92,18.88-8.86,22.77"/>
    <path class="cls-12" d="M861.25,504.78l3.35-5.44-1.81-13.97s-.5-7.09,6.45-8.96c7.76-2.09,9.76,7.21,9.76,7.21l.92,18.88-8.86,22.77"/>
    <g>
      <path class="cls-16" d="M390.83,196.49s0-.72,.55-1.31c1.8-1.95,5.92-5.57,12.31-5.46,7.15,.13,10.97,6.91,12.27,9.33,.22,.42,.2,.78,.2,.78,0,0,.02,.4-.23,.67-1.16,1.3-5.03,4.93-11.81,4.92-4.03,0-9.65-2.28-13.06-7.81-.24-.38-.25-.87-.23-1.13Z"/>
      <circle class="cls-36" cx="405.55" cy="198.01" r="7.39"/>
      <circle class="cls-16" cx="400.91" cy="196.43" r="2.03"/>
      <path class="cls-2" d="M416.39,199.07s-8.4-17.22-25.29-3.95"/>
    </g>
    <g>
      <path class="cls-16" d="M473.16,203.97s-.1-.67,.32-1.29c1.39-2.07,4.71-6.03,10.66-6.84,6.67-.91,11.19,4.86,12.74,6.92,.27,.36,.29,.7,.29,.7,0,0,.07,.37-.12,.66-.9,1.38-3.98,5.31-10.28,6.26-3.75,.57-9.3-.74-13.26-5.39-.28-.32-.35-.77-.38-1.02Z"/>
      <circle class="cls-36" cx="487.07" cy="203.26" r="6.93"/>
      <circle class="cls-16" cx="482.32" cy="202.6" r="1.94"/>
      <path class="cls-2" d="M497.04,202.97s-9.89-15.83-23.72,0"/>
    </g>
    <polygon class="cls-20" points="294.85 325.68 308.45 323.53 305.93 339.52 294.85 325.68"/>
    <path class="cls-21" d="M283.35,340.9s60.87,37.47,92.69,63.67l-4.21-19.65s-58.53-34.65-76.98-59.24l-11.5,15.22Z"/>
    <path class="cls-21" d="M440.14,340.88s26.19-.86,25.2,16.1l-57.95,41.98,2.66-15.34s25.25-12.63,41.83-33.06c0,0-11.11-1.5-11.74-9.68Z"/>
    <path class="cls-6" d="M392.54,431.49s17.75,169.81,14.95,530.28"/>
    <ellipse class="cls-17" cx="406.58" cy="480.96" rx="4.22" ry="4.57"/>
    <ellipse class="cls-17" cx="411.04" cy="560.72" rx="4.22" ry="4.57"/>
    <ellipse class="cls-17" cx="414.18" cy="646.71" rx="4.22" ry="4.57"/>
    <ellipse class="cls-17" cx="415.99" cy="734.12" rx="4.22" ry="4.57"/>
    <ellipse class="cls-17" cx="416.98" cy="818.33" rx="4.22" ry="4.57"/>
    <ellipse class="cls-17" cx="415.49" cy="912.85" rx="4.22" ry="4.57"/>
    <g>
      <polygon class="cls-17" points="332.46 958.97 339.86 950.2 323.06 934.57 307.43 951.37 312.53 956.29 332.46 958.97"/>
      <polygon class="cls-17" points="360.62 961.65 372.18 949.03 355.38 933.4 339.75 950.2 350.16 960.67 360.62 961.65"/>
      <rect class="cls-17" x="311" y="906.75" width="22.95" height="22.95" transform="translate(-569.45 528.86) rotate(-47.07)"/>
      <rect class="cls-35" x="327.68" y="922.57" width="22.95" height="22.95" transform="translate(-575.71 546.12) rotate(-47.07)"/>
      <rect class="cls-17" x="343.32" y="905.58" width="22.95" height="22.95" transform="translate(-558.29 552.15) rotate(-47.07)"/>
      <rect class="cls-17" x="309.93" y="874.27" width="22.95" height="22.95" transform="translate(-546.01 517.72) rotate(-47.07)"/>
      <rect class="cls-35" x="326.61" y="890.09" width="22.95" height="22.95" transform="translate(-552.27 534.98) rotate(-47.07)"/>
      <rect class="cls-17" x="342.24" y="873.1" width="22.95" height="22.95" transform="translate(-534.85 541.01) rotate(-47.07)"/>
      <rect class="cls-17" x="308.76" y="841.98" width="22.95" height="22.95" transform="translate(-522.74 506.57) rotate(-47.07)"/>
      <rect class="cls-35" x="325.45" y="857.8" width="22.95" height="22.95" transform="translate(-529 523.83) rotate(-47.07)"/>
      <rect class="cls-17" x="341.08" y="840.81" width="22.95" height="22.95" transform="translate(-511.58 529.86) rotate(-47.07)"/>
      <rect class="cls-17" x="307.6" y="809.69" width="22.95" height="22.95" transform="translate(-499.47 495.42) rotate(-47.07)"/>
      <rect class="cls-35" x="324.28" y="825.51" width="22.95" height="22.95" transform="translate(-505.73 512.68) rotate(-47.07)"/>
      <rect class="cls-17" x="339.92" y="808.52" width="22.95" height="22.95" transform="translate(-488.31 518.71) rotate(-47.07)"/>
      <rect class="cls-17" x="306.43" y="777.4" width="22.95" height="22.95" transform="translate(-476.2 484.27) rotate(-47.07)"/>
      <rect class="cls-35" x="323.12" y="793.22" width="22.95" height="22.95" transform="translate(-482.46 501.53) rotate(-47.07)"/>
      <rect class="cls-17" x="338.75" y="776.23" width="22.95" height="22.95" transform="translate(-465.04 507.56) rotate(-47.07)"/>
      <rect class="cls-17" x="305.27" y="745.22" width="22.95" height="22.95" transform="translate(-453.01 473.16) rotate(-47.07)"/>
      <rect class="cls-35" x="321.96" y="761.04" width="22.95" height="22.95" transform="translate(-459.27 490.42) rotate(-47.07)"/>
      <rect class="cls-17" x="337.59" y="744.05" width="22.95" height="22.95" transform="translate(-441.85 496.45) rotate(-47.07)"/>
      <rect class="cls-17" x="304.11" y="712.93" width="22.95" height="22.95" transform="translate(-429.74 462.01) rotate(-47.07)"/>
      <rect class="cls-35" x="320.79" y="728.75" width="22.95" height="22.95" transform="translate(-436 479.28) rotate(-47.07)"/>
      <rect class="cls-17" x="336.43" y="711.76" width="22.95" height="22.95" transform="translate(-418.58 485.3) rotate(-47.07)"/>
      <rect class="cls-17" x="302.95" y="680.75" width="22.95" height="22.95" transform="translate(-406.55 450.9) rotate(-47.07)"/>
      <rect class="cls-35" x="319.63" y="696.57" width="22.95" height="22.95" transform="translate(-412.82 468.17) rotate(-47.07)"/>
      <rect class="cls-17" x="335.26" y="679.58" width="22.95" height="22.95" transform="translate(-395.39 474.2) rotate(-47.07)"/>
      <rect class="cls-17" x="301.78" y="648.46" width="22.95" height="22.95" transform="translate(-383.28 439.76) rotate(-47.07)"/>
      <rect class="cls-35" x="318.47" y="664.28" width="22.95" height="22.95" transform="translate(-389.55 457.02) rotate(-47.07)"/>
      <rect class="cls-17" x="334.1" y="647.29" width="22.95" height="22.95" transform="translate(-372.12 463.05) rotate(-47.07)"/>
      <rect class="cls-17" x="300.62" y="616.28" width="22.95" height="22.95" transform="translate(-360.09 428.65) rotate(-47.07)"/>
      <rect class="cls-35" x="317.31" y="632.1" width="22.95" height="22.95" transform="translate(-366.36 445.91) rotate(-47.07)"/>
      <rect class="cls-17" x="332.94" y="615.11" width="22.95" height="22.95" transform="translate(-348.93 451.94) rotate(-47.07)"/>
      <rect class="cls-17" x="299.33" y="583.42" width="22.95" height="22.95" transform="translate(-336.45 417.23) rotate(-47.07)"/>
      <rect class="cls-35" x="316.02" y="599.25" width="22.95" height="22.95" transform="translate(-342.71 434.49) rotate(-47.07)"/>
      <rect class="cls-17" x="331.65" y="582.26" width="22.95" height="22.95" transform="translate(-325.29 440.52) rotate(-47.07)"/>
      <rect class="cls-17" x="298.26" y="550.94" width="22.95" height="22.95" transform="translate(-313 406.09) rotate(-47.07)"/>
      <rect class="cls-35" x="314.95" y="566.76" width="22.95" height="22.95" transform="translate(-319.27 423.35) rotate(-47.07)"/>
      <rect class="cls-17" x="330.58" y="549.77" width="22.95" height="22.95" transform="translate(-301.85 429.38) rotate(-47.07)"/>
      <rect class="cls-17" x="297.1" y="518.65" width="22.95" height="22.95" transform="translate(-289.74 394.94) rotate(-47.07)"/>
      <rect class="cls-35" x="313.79" y="534.48" width="22.95" height="22.95" transform="translate(-296 412.2) rotate(-47.07)"/>
      <rect class="cls-17" x="329.42" y="517.49" width="22.95" height="22.95" transform="translate(-278.58 418.23) rotate(-47.07)"/>
      <rect class="cls-17" x="295.93" y="486.36" width="22.95" height="22.95" transform="translate(-266.47 383.79) rotate(-47.07)"/>
      <rect class="cls-35" x="312.62" y="502.18" width="22.95" height="22.95" transform="translate(-272.73 401.05) rotate(-47.07)"/>
      <rect class="cls-17" x="328.25" y="485.19" width="22.95" height="22.95" transform="translate(-255.31 407.08) rotate(-47.07)"/>
      <rect class="cls-17" x="294.77" y="454.07" width="22.95" height="22.95" transform="translate(-243.2 372.64) rotate(-47.07)"/>
      <rect class="cls-35" x="311.46" y="469.89" width="22.95" height="22.95" transform="translate(-249.46 389.91) rotate(-47.07)"/>
      <rect class="cls-17" x="327.09" y="452.9" width="22.95" height="22.95" transform="translate(-232.04 395.93) rotate(-47.07)"/>
      <rect class="cls-17" x="293.61" y="421.89" width="22.95" height="22.95" transform="translate(-220.01 361.53) rotate(-47.07)"/>
      <rect class="cls-35" x="310.3" y="437.71" width="22.95" height="22.95" transform="translate(-226.27 378.8) rotate(-47.07)"/>
      <rect class="cls-17" x="325.93" y="420.72" width="22.95" height="22.95" transform="translate(-208.85 384.83) rotate(-47.07)"/>
      <rect class="cls-17" x="292.44" y="389.6" width="22.95" height="22.95" transform="translate(-196.74 350.39) rotate(-47.07)"/>
      <rect class="cls-35" x="309.13" y="405.42" width="22.95" height="22.95" transform="translate(-203 367.65) rotate(-47.07)"/>
      <rect class="cls-17" x="324.76" y="388.43" width="22.95" height="22.95" transform="translate(-185.58 373.68) rotate(-47.07)"/>
      <rect class="cls-17" x="291.35" y="357.42" width="22.95" height="22.95" transform="translate(-173.52 339.32) rotate(-47.07)"/>
      <rect class="cls-35" x="308.04" y="373.24" width="22.95" height="22.95" transform="translate(-179.79 356.59) rotate(-47.07)"/>
      <polyline class="cls-35" points="321.81 365.19 319.03 368.29 302.23 352.66 303.04 351.79"/>
      <polygon class="cls-17" points="335.73 383.94 318.93 368.31 321.81 365.19 340.23 379.2 335.73 383.94"/>
    </g>
    <g>
      <polyline class="cls-17" points="270.91 620.85 246.87 633.51 234.73 610.46 259.85 597.23 271.52 619.34"/>
      <polygon class="cls-35" points="276.94 601.66 271.52 619.34 260.02 597.43 281.2 586.23 276.94 601.66"/>
      <polyline class="cls-17" points="281.14 586.12 259.8 597.36 247.67 574.31 272.79 561.08 282.7 579.91"/>
      <rect class="cls-17" x="201.89" y="592.39" width="28.39" height="26.05" transform="translate(-257.16 170.38) rotate(-27.77)"/>
      <rect class="cls-35" x="227.18" y="579.36" width="28.39" height="26.05" transform="translate(-248.18 180.66) rotate(-27.77)"/>
      <rect class="cls-17" x="214.83" y="556.24" width="28.39" height="26.05" transform="translate(-238.83 172.25) rotate(-27.77)"/>
      <rect class="cls-17" x="164.8" y="582.61" width="28.39" height="26.05" transform="translate(-256.88 151.98) rotate(-27.77)"/>
      <rect class="cls-35" x="190.09" y="569.57" width="28.39" height="26.05" transform="translate(-247.89 162.26) rotate(-27.77)"/>
      <rect class="cls-17" x="177.74" y="546.45" width="28.39" height="26.05" transform="translate(-238.54 153.84) rotate(-27.77)"/>
      <polygon class="cls-17" points="160.53 590.76 135.95 603.96 140.87 571.69 148.39 567.71 160.53 590.76"/>
      <rect class="cls-35" x="152.99" y="559.79" width="28.39" height="26.05" transform="translate(-247.61 143.85) rotate(-27.77)"/>
      <polygon class="cls-17" points="173.46 554.61 148.35 567.83 143.13 558.24 147.04 539.07 161.33 531.55 173.46 554.61"/>
      <polyline class="cls-35" points="143.13 558.24 148.72 567.94 140.87 571.69"/>
    </g>
    <path class="cls-2" d="M453.16,208.5l15.3,25.13s8.22,19.18-4.5,22.46c-11.32,2.92-11.68,.44-11.68,.44"/>
    <path class="cls-34" d="M325.34,221.69l9.83-4.48c.42-25.5,2.82-80.16,20.84-102.98,0,0,76.04-36.6,124.62-5.2,0,0,16.45,12.57,19.9,78.98,0,0,9.97-46.13-4.25-85.82,0,0,12.91-8.94,14.68-13.09,0,0-16.97,2.86-25.36-5.89-4.91-5.13-72.76-61.25-150.15-5.97,0,0-75.26,14.25-46.05,127.91,0,0,24.31-6.39,35.94,16.53Z"/>
    <path class="cls-34" d="M393.92,282.33s-.97-19.27,15.23-23.18c19.9-4.79,41.12-5.28,55.83,3.29,14.71,8.57,22.47,17.56,10.38,17.47-12.09-.09-35.57-16.1-61.77-4.42,0,0-10.48,9.94-19.68,6.84Z"/>
  </g>
  <g>
    <path class="cls-26" d="M790.13,610.4s-5.14,4.7-7.77,13.18c0,0-62.07-55.93-108.27-86.74,0,0-6.97-43.45-41.52-54.28l-18.56-31.21s-12.14-13.11-13.67,9.03c0,0,9.05,24.41,16.37,29.52l-9.8,8.53s-7.19-18.14-14.93-17.14c-7.74,1-8.53,12.45-8.53,12.45,0,0-3-23.22-17.29-27.28-14.3-4.06-5.87-14.98-16.67-14.2,0,0-12.01-3.9-2.58,15.17l10.5,36.79,48.97,46.35,30.12,8.22,103.42,163.29s33.57,48.9,92.23,14.23c39.56-23.38,38.87-71.14,38.87-71.14l-80.91-54.76Z"/>
    <path class="cls-26" d="M1066.75,352.05s-3.28,51.48,11.61,81.51c0,0,17.73,142.31-98.13,150.08,0,0-87.31-20.21-38.86-134.15,0,0,20.58-8.89,20.31-29.1-.29-21.4-2.75,.46-2.75,.46l107.82-68.8"/>
    <path class="cls-26" d="M1070.56,322.74s-1.97-108.17-98.41-118.09c0,0-81.88-.76-66.16,100.8,0,0,2.87,10.88,.06,19.1,0,0-10.12,12.48,1.22,44.33,11.34,31.86,30.24,50.71,30.24,50.71,0,0,11.25,13.16,35.3,14,0,0,18.98,2.76,40.8-10.56,0,0,52.89-26.37,50.84-58.4,0,0,23.42,16.37,34.89-21.21,0,0,10.43-52.15-28.79-20.69Z"/>
    <path class="cls-32" d="M1082.73,458.74s31.96,8.19,67.04,25.93c68.59,34.69,68.17,144.88,68.17,144.88,0,0-27.15,8.61-97.76,35.89l43.16,216.96s-19.49,43.69-152.17,37.39c0,0-156.11,16.27-176.79-48.17,0,0,1.02-73.31,9.16-143.86,0,0-16.51-37.01-7.97-86.54l-45.99-31.66,30.75-79.59s7.24-51.55,85.02-66.46c0,0,21.05-5,36.01-14.02,0,0-8.09,58.88-1.33,81.56,0,0,40.56,41.86,115.27-5.82,0,0,17.7-13.87,27.42-66.51Z"/>
    <path class="cls-36" d="M986.2,284.22s34.27,3.22,44.05,18.99c0,0-3.73-20.2-41.77-26.54,0,0-8.03,2.06-2.27,7.54Z"/>
    <path class="cls-36" d="M904.14,290.66c.15-1.86,10.9-16.35,33.11-16.73,0,0,7.9,2.51,1.85,7.66,0,0-27.21-1.41-34.33,15.78,0,0-1-2.1-.63-6.71Z"/>
    <path class="cls-2" d="M944.7,332.45s-13.86,19.92,9.71,22.67"/>
    <path class="cls-2" d="M1094.87,335.92s-6.64-18.49-21.22,10.86c0,0,12.19-12.87,14.15-1.64"/>
    <path class="cls-36" d="M955.62,430.4s16.79,8.45,46.56-1.2c0,0,14.75-5.37,33.45-19.93,0,0-23.3,25.51-57.56,27.46,0,0-10.78,.93-22.92-3.01,0,0,1,.03,.47-3.32Z"/>
    <g>
      <path class="cls-16" d="M1016.15,307.54s.04-.71-.45-1.33c-1.64-2.06-5.48-5.94-11.82-6.28-7.1-.38-11.36,6.08-12.82,8.39-.25,.4-.25,.76-.25,.76,0,0-.05,.39,.18,.68,1.06,1.37,4.64,5.24,11.36,5.7,3.99,.27,9.72-1.58,13.49-6.82,.26-.36,.3-.85,.31-1.1Z"/>
      <circle class="cls-36" cx="1001.45" cy="308.02" r="7.35"/>
      <circle class="cls-16" cx="1005.72" cy="304.54" r="2.02"/>
      <path class="cls-2" d="M990.63,308.31s9.53-16.48,25.35-2.14"/>
    </g>
    <g>
      <path class="cls-16" d="M933.16,309.17s.14-.66-.23-1.3c-1.23-2.15-4.25-6.31-10.09-7.53-6.54-1.37-11.43,4.03-13.12,5.97-.29,.33-.34,.67-.34,.67,0,0-.1,.36,.07,.66,.79,1.43,3.57,5.54,9.75,6.93,3.68,.83,9.27-.08,13.52-4.41,.3-.3,.4-.74,.45-.98Z"/>
      <circle class="cls-36" cx="919.41" cy="307.49" r="6.89"/>
      <circle class="cls-16" cx="923.38" cy="304.44" r="1.93"/>
      <path class="cls-2" d="M909.56,306.51s10.92-15,23.52,1.67"/>
    </g>
    <path class="cls-6" d="M1120.19,665.45s-10.45-44.71-10.46-71.92"/>
    <path class="cls-3" d="M835.92,641.95s-.91-17.81,15.6-59.37c0,0,14.8-20.5,11.96-55.22"/>
    <path class="cls-27" d="M931.64,383.25s12.37-14.68,27.82-8.5c0,0,12.75-6.96,34.78,10.82,0,0-12.75,14.3-35.17,11.59-22.41-2.71-27.44-13.91-27.44-13.91Z"/>
    <path class="cls-18" d="M934.85,384.36s8.74-7.82,25.06-6.67c16.32,1.15,31.26,8.51,31.26,8.51,0,0-24.14,1.15-31.03,4.6,0,0-11.72-4.83-25.29-6.44Z"/>
    <path class="cls-16" d="M941.8,380.46s12.14-8.02,39.5,1.85c0,0-23.66-3.7-39.5-1.85Z"/>
    <path class="cls-32" d="M834.39,871.62s-12.83,57.15-13.68,130.23l363.88-.61s5.43-83.33-21.23-118.83c0,0-183.29,90.54-328.97-10.78Z"/>
    <path class="cls-10" d="M625.93,489.21s-5.3-.32-9.21,.69"/>
    <path class="cls-11" d="M620.42,536.7s-5.46-12.25-13.7-16.54c0,0,3.55-13.58,.21-21.74-3.34-8.16-4.94-16.1-14.93-17.14-9.99-1.05-8.53,12.45-8.53,12.45l5.53,30.41"/>
    <path class="cls-11" d="M583.47,493.73s-2.76-24.12-17.29-27.28c-14.54-3.16-4.78,16.81-4.78,16.81l1.75,17.57"/>
    <path class="cls-10" d="M674.09,536.83s-6.35,7.97-18.38,10.11"/>
    <path class="cls-4" d="M782.36,623.57s32.1,11.98,32.53,37.33"/>
    <line class="cls-10" x1="650.78" y1="581.5" x2="697.36" y2="656.36"/>
    <line class="cls-10" x1="700.13" y1="556.54" x2="753.37" y2="599.8"/>
    <path class="cls-15" d="M1158.14,867.03s-163.06,86.56-324.59,.56l4.03-26.7s104.86,72.49,316.08-2.96l4.48,29.1Z"/>
    <path class="cls-15" d="M1084.02,565.16s-100.11,55.18-215.25-9.4l-7.04,20s118.31,72.58,227.02,7.36l-4.73-17.96Z"/>
    <path class="cls-31" d="M887.52,468.09c-3.24-36.88,2.35-95.62,2.35-95.62-14.91-117.22,20.35-155.97,20.35-155.97,81.54-69.67,150.58-15.97,150.58-15.97,19.11,5.88,64.23,32.31,65.7,91.11,1.47,58.79,8.38,76.29,14.25,117.44,0,0,30.59,121.98-2.15,258.76-4.98,20.81,7.56,68.01,7.56,68.01,0,0-82.85,12.29-105.79-199.23-6.89-63.51,22.73-171.58,22.73-171.58,20.07,8.28,25.57-4.39,25.57-4.39,0,0,12.61-18.8,8.06-38.25-4.63-19.75-28.27,1.28-28.27,1.28-13.11-75.16-44.33-94.05-44.33-94.05-78.1,33.16-111.34,25.28-111.34,25.28,0,0-7.66,15.9-8.49,29.27-.82,13.37,1.82,25.02,1.82,25.02,3.82,9.02,.35,18.81,.35,18.81-8.64,19.03,1.17,41.17,1.17,41.17,21.72,56.8,51.98,62.18,51.98,62.18-.26,18.58-27.72,27.18-27.72,27.18"/>
    <polyline class="cls-8" points="1156.59 858.58 1138.41 851.46 1132.81 871.04 1111.83 860.36 1104.84 880.54 1085.96 866.89 1077.56 890.04 1059.38 871.04 1047.49 892.41 1032.81 875.79 1018.12 896.57 1004.83 877.57 992.25 897.76 978.96 879.95 964.27 897.16 953.08 878.76 933.5 894.2 922.31 874.61 906.23 888.85 897.83 869.26 878.95 880.54 872.66 862.73 856.57 868.67 850.98 855.02 839.09 861.55"/>
    <polyline class="cls-8" points="1156.49 843.3 1146.72 867.53 1125.68 854.78 1118.92 877.74 1099.39 862.43 1092.62 884.75 1073.09 868.81 1061.82 892.41 1046.04 873.91 1033.26 895.6 1018.24 877.1 1005.46 896.23 990.44 879.01 979.17 898.15 967.14 879.01 949.86 895.6 938.59 875.83 921.31 891.13 911.54 872 893.51 885.39 885.24 865.62 866.46 877.74 861.2 857.97 847.67 867.53 841.66 849.04"/>
    <polyline class="cls-8" points="1045.41 587.07 1036.38 599.49 1024.53 588.76 1017.76 601.18 1005.91 592.15 994.06 605.69 985.03 592.71 974.87 603.44 967.54 591.59 955.12 601.18 946.66 588.76 933.68 598.92 925.78 585.38 913.93 592.71 907.16 579.17 892.49 584.81 886.84 571.27 872.74 577.48 869.92 563.94"/>
    <polyline class="cls-8" points="1047.66 596.1 1035.25 585.94 1027.35 601.18 1015.5 588.76 1007.03 604.56 995.75 592.15 983.9 605.13 974.87 591.59 965.84 602.87 957.38 588.76 945.53 601.18 937.06 585.94 925.21 596.1 916.75 580.86 905.47 590.46 898.13 574.66 882.89 582.56 878.94 565.07 865.67 577.45"/>
    <g>
      <circle class="cls-9" cx="1076.57" cy="374.26" r="15.16"/>
      <line class="cls-9" x1="1076.57" y1="389.42" x2="1076.57" y2="438.45"/>
      <line class="cls-9" x1="1088.06" y1="384.22" x2="1088.06" y2="410.43"/>
      <line class="cls-9" x1="1084.14" y1="387.43" x2="1084.14" y2="421.47"/>
      <line class="cls-9" x1="1080.4" y1="388.86" x2="1080.4" y2="430.21"/>
      <line class="cls-9" x1="1068.96" y1="387.43" x2="1068.96" y2="421.47"/>
      <line class="cls-9" x1="1072.7" y1="388.86" x2="1072.7" y2="430.21"/>
      <line class="cls-9" x1="1064.92" y1="384.22" x2="1064.92" y2="410.43"/>
    </g>
    <g class="cls-37">
      <g>
        <circle class="cls-9" cx="919.43" cy="372.2" r="15.16"/>
        <line class="cls-9" x1="919.43" y1="387.36" x2="919.43" y2="436.39"/>
        <line class="cls-9" x1="927" y1="401.94" x2="927" y2="419.42"/>
        <line class="cls-9" x1="923.25" y1="386.8" x2="923.25" y2="428.15"/>
        <line class="cls-9" x1="911.82" y1="385.37" x2="911.82" y2="419.42"/>
        <line class="cls-9" x1="915.56" y1="386.8" x2="915.56" y2="428.15"/>
        <line class="cls-9" x1="907.78" y1="382.16" x2="907.78" y2="408.37"/>
      </g>
    </g>
    <path class="cls-15" d="M1217.95,629.55s-40.39,29.96-74.99,24.7l2.71-21.35s31.3-4.95,70.14-26.45l2.15,23.09Z"/>
    <polyline class="cls-8" points="1213.31 613.01 1206.59 630.17 1191.42 621.97 1183.67 637.47 1167.3 630.17 1159.59 646.09 1146.41 637.63"/>
    <polyline class="cls-8" points="1215.3 626.69 1202.12 617.74 1196.65 633.66 1180.23 625.95 1171.28 642.11 1156.61 633.9 1146.91 649.07"/>
    <g>
      <path class="cls-26" d="M1217.95,629.55s20.91,144.03-42.46,158.34c-86.28,19.48-111.56-91.8-111.56-91.8,0,0-43.42-109.43-44.79-150.05,0,0-1.74-28.31-14.42-36.65-12.68-8.34-1-65.06-1-65.06,0,0-19.35-28.03-6.67-37.37l18.02,28.69,2.34,11.68s5-14.68,3.34-24.02c0,0-26.36-31.03-12.01-41.37l11.68,12.01s-9.68-17.35-1.33-21.02l11.34,11.34s-2-7.12,2.67-6.01l27.36,29.7s11.55,48.47,1.54,99.52c0,0,.28,12.46,9.05,25.05,71.23,102.23,71.93,121.72,71.93,121.72l74.99-24.7Z"/>
      <path class="cls-4" d="M1143.44,654.64s16.55,21.71,16.55,40.5"/>
      <path class="cls-11" d="M1018.64,391.54l-10.08-9.6s-10.74,3.95,1.16,25.66c0,0,6.65,12.05,11.02,15.71,0,0,1.47,15.35-3.34,24.02l-2.34-11.68-11.59-18.25-6.59-10.45s-10.36,6.58-1.44,21.16c0,0,4.83,12.56,8.28,16.21,0,0-12.31,49.74,1,65.06l4.59,4.11s8.85,13.27,9.45,29.36"/>
      <path class="cls-11" d="M1066.19,447.98s-1.11-22.67-5.75-40.02c0,0-21.99-28.82-27.36-29.7-5.37-.88-2.67,6.01-2.67,6.01"/>
      <path class="cls-11" d="M1050.03,432.28l.59-24.98-20.21-23.03-11.34-11.34s-9.56,5.29,1.33,21.02l19.22,23.76-1.49,31.23"/>
    </g>
    <path class="cls-15" d="M787.99,610.87s37.78,28.57,48.41,31.23c0,0,.08-11.26,2.73-26.21,0,0-38.79-12.95-42.78-25.24l-8.36,20.22Z"/>
    <polyline class="cls-8" points="799.61 601.28 803.92 616.56 816.54 611.24 818.54 625.19 832.82 618.55 834.48 634.83"/>
    <polyline class="cls-8" points="795.29 612.24 807.91 606.93 812.23 623.2 824.52 614.9 827.84 632.17 836.81 623.87"/>
  </g>
</svg>