<?xml version="1.0" encoding="UTF-8"?>
<svg id="Layer_2" data-name="Layer 2" xmlns="http://www.w3.org/2000/svg" xmlns:xlink="http://www.w3.org/1999/xlink" viewBox="0 0 1573.12 1215.2">
  <defs>
    <style>
      .cls-1, .cls-2, .cls-3, .cls-4, .cls-5, .cls-6, .cls-7, .cls-8, .cls-9, .cls-10, .cls-11, .cls-12 {
        fill: none;
      }

      .cls-13 {
        fill: url(#linear-gradient);
      }

      .cls-14 {
        clip-path: url(#clippath);
      }

      .cls-2 {
        stroke: #754c29;
      }

      .cls-2, .cls-3 {
        stroke-width: .8px;
      }

      .cls-2, .cls-3, .cls-15, .cls-16, .cls-4, .cls-5, .cls-6, .cls-7, .cls-8, .cls-9, .cls-10, .cls-17, .cls-11, .cls-12 {
        stroke-miterlimit: 10;
      }

      .cls-3, .cls-15, .cls-8 {
        stroke: #603913;
      }

      .cls-18 {
        fill: #00a79d;
      }

      .cls-19 {
        fill: #00979c;
      }

      .cls-20 {
        fill: #f05380;
      }

      .cls-21, .cls-15, .cls-22 {
        fill: #fff;
      }

      .cls-23 {
        fill: #efcccd;
      }

      .cls-24 {
        fill: #98b369;
      }

      .cls-25 {
        fill: #00a651;
      }

      .cls-26 {
        fill: #8b5e3c;
      }

      .cls-27 {
        fill: #8dc63f;
      }

      .cls-28 {
        fill: #ba9777;
      }

      .cls-29 {
        fill: #ae8578;
      }

      .cls-30 {
        fill: #be9e7d;
      }

      .cls-31 {
        fill: #d6e69e;
      }

      .cls-32 {
        fill: #bf6b6b;
      }

      .cls-33 {
        fill: #231f20;
      }

      .cls-34 {
        fill: #07935b;
      }

      .cls-35, .cls-16 {
        fill: #9c2024;
      }

      .cls-36 {
        fill: #6d6e71;
      }

      .cls-37 {
        fill: #59bede;
      }

      .cls-38 {
        fill: #2e3192;
      }

      .cls-39 {
        fill: #603913;
      }

      .cls-40 {
        fill: #26130f;
      }

      .cls-41 {
        clip-path: url(#clippath-1);
      }

      .cls-42 {
        clip-path: url(#clippath-2);
      }

      .cls-15, .cls-11, .cls-12 {
        stroke-width: .5px;
      }

      .cls-16, .cls-4, .cls-5, .cls-10 {
        stroke: #231f20;
      }

      .cls-4 {
        stroke-width: 2px;
      }

      .cls-6 {
        stroke: #006838;
      }

      .cls-7 {
        stroke: #2e3192;
      }

      .cls-9 {
        stroke: #be1e2d;
      }

      .cls-10 {
        stroke-width: 1.2px;
      }

      .cls-43, .cls-22 {
        opacity: .5;
      }

      .cls-17 {
        fill: #eae1d3;
        stroke: #8b5e3c;
        stroke-width: 3px;
      }

      .cls-44 {
        fill: #dea962;
      }

      .cls-44, .cls-45 {
        opacity: .8;
      }

      .cls-45 {
        fill: #edb36e;
      }

      .cls-46 {
        fill: #27aae1;
        opacity: .4;
      }

      .cls-11 {
        stroke: #fff;
      }

      .cls-12 {
        stroke: #fff200;
      }
    </style>
    <clipPath id="clippath">
      <rect class="cls-1" y="263.04" width="1097.1" height="192.99"/>
    </clipPath>
    <clipPath id="clippath-1">
      <path class="cls-1" d="M961.97,383.78s-2.61,5.8,26.58,44.13l4.35,14.51-9.34,19.93-14.43-5.59-9.11-43.62-2.24-27.77,4.2-1.59Z"/>
    </clipPath>
    <clipPath id="clippath-2">
      <rect class="cls-1" x="1.97" y="887.36" width="1332.22" height="112.64"/>
    </clipPath>
    <linearGradient id="linear-gradient" x1="356.66" y1="329.44" x2="356.66" y2="193.55" gradientTransform="translate(2.91 23.8) rotate(1.03)" gradientUnits="userSpaceOnUse">
      <stop offset="0" stop-color="#be9e7d"/>
      <stop offset=".7" stop-color="#231f20"/>
    </linearGradient>
  </defs>
  <g>
    <g class="cls-43">
      <g class="cls-14">
        <path class="cls-25" d="M114.84,572.25s88.86,60.19,126.52-35.62c37.65-95.81,80.89-74.09,80.89-74.09,0,0,38.62-40.68-26.13-80.97s-128.33,35.36-128.33,35.36c0,0-32.59,64.71-71.55,10.82-38.96-53.9-116.03,5.31-67.31,41.34,48.72,36.02,72.85,62.68,85.91,103.17Z"/>
        <path class="cls-27" d="M836.24,547s59.44,43.24,60.74-31.08c1.29-74.31-82.71-66.21-89.17-91.88-6.46-25.67-37.48-67.56-120.18-67.56s-14.21,116.2-76.24,131.06c-62.03,14.86-113.72,117.55-31.01,108.09,82.71-9.46,167.99,33.78,171.87,44.59s-3.88,9.46,3.88,10.81c7.75,1.35,148.61,21.62,80.12-104.04Z"/>
        <path class="cls-25" d="M797.61,488.7s-34.03-160.79,67.2-168.22c101.23-7.43,70.21,92.56,114.15,81.75,43.94-10.81,73.66-137.82,117.6-116.2l2.54,198.56-301.49,4.11Z"/>
        <path class="cls-18" d="M319.72,517.97s-5.17-156.74,131.81-117.55c136.98,39.18,173.16,58.1,199.01,32.43,25.85-25.67,65.75,37.83,40.63,85.12H319.72Z"/>
      </g>
    </g>
    <rect class="cls-44" x="585.33" y="-95.48" width="162.82" height="1333.41" transform="translate(1237.97 -95.51) rotate(90)"/>
    <rect class="cls-44" x="574.22" y="241.34" width="185.04" height="1333.41" transform="translate(1574.79 241.31) rotate(90)"/>
    <rect class="cls-45" x="585.33" y="67.12" width="162.82" height="1333.41" transform="translate(1400.56 67.09) rotate(90)"/>
    <rect class="cls-44" x="1150.23" y="143.2" width="162.82" height="203.74" transform="translate(1476.71 -986.57) rotate(90)"/>
    <rect class="cls-45" x="1150.23" y="-20.46" width="162.82" height="203.74" transform="translate(1313.05 -1150.23) rotate(90)"/>
    <rect class="cls-45" x="1150.23" y="306.34" width="162.82" height="203.74" transform="translate(1639.86 -823.43) rotate(90)"/>
    <rect class="cls-46" x=".26" width="1096.86" height="455.98"/>
    <rect class="cls-26" x="1097.35" width="33.68" height="484.45"/>
    <rect class="cls-26" x="548.83" y="-92.62" width="33.68" height="1130.82" transform="translate(1038.45 -92.88) rotate(90)"/>
  </g>
  <g>
    <path class="cls-30" d="M874.32,624.45s-.58,119,2.98,158.2l-22.58,122.37h64.13l34.74-211.09-79.27-69.47Z"/>
    <path class="cls-30" d="M1118.19,371.78s-1.25,51.11,14.66,80.27c0,0,23.08,140.24-91.36,152.43,0,0-87.25-16.63-43.69-131.34,0,0,20.03-9.6,18.98-29.61-1.12-21.18-2.7,.56-2.7,.56l104.1-72.32"/>
    <path class="cls-30" d="M1120.46,329.88s-11.65-106.59-107.72-107.72c0,0-80.88,6.59-56.25,105.42,0,0,3.81,10.48,1.77,18.85,0,0-8.86,13.22,5.18,43.65,14.05,30.43,34.4,47.34,34.4,47.34,0,0,12.28,11.98,36.09,10.65,0,0,18.98,1.03,39.33-14.08,0,0,49.84-30.77,44.94-62.2,0,0,24.58,14.05,32.54-24.06,0,0,5.62-52.4-30.27-17.84Z"/>
    <path class="cls-32" d="M1049.14,394.64s-14.01-7.75-28.88,.42c0,0-10.81-3.02-20.95,6.38,0,0,5.73,12.84,26.04,10.73,24.82-2.58,23.79-17.54,23.79-17.54Z"/>
    <path class="cls-34" d="M1155.36,467.53s41.06-.6,75.13,27.48c56.5,46.56,52.32,144.47,52.32,144.47,0,0-.91,32.23-76.52,50.59l29.09,250.17s-144.48,58.86-272.73,29.15c0,0-48.62-9.72-84.91-52.4,0,0,33.11-99.9,45.57-179.68,0,0-27.69-37.12-18.71-84.01l-33.93-30.67,19.74-84.4s15.95-51.22,74.86-64.74c0,0,21.41-1.13,37.6-7.28,0,0-18.34,55.97-15.79,79.29,0,0,32.11,48.01,113.42,14.81,0,0,47.68-37.74,54.84-92.79Z"/>
    <path class="cls-40" d="M1030.07,301.53s32.44-10.56,47.54-.07c0,0-11.35-16.9-48.44-7.68,0,0-6.49,5.04,.9,7.76Z"/>
    <path class="cls-40" d="M951.75,302.42c.52-1.78,16.92-4.04,32.33-2.63,0,0,7.18,4,.28,7.8,0,0-28.31-6.44-31.6,2.85,0,0-2.29-3.63-1.01-8.03Z"/>
    <path class="cls-5" d="M997.11,350.76s-11.89,20.9,11.62,21.5"/>
    <path class="cls-5" d="M1145.63,340.71s-8.21-17.66-19.97,12.62c0,0,10.88-13.79,13.82-2.89"/>
    <path class="cls-40" d="M1016.67,446.46s17.33,6.83,45.85-5.36c0,0,14.08-6.62,31.23-22.67,0,0-20.71,27.27-54.34,32.27,0,0-10.55,1.88-22.89-.91,0,0,.99-.06,.16-3.32Z"/>
    <g>
      <path class="cls-21" d="M1065.39,319.76s-.02-.71-.57-1.27c-1.81-1.88-5.94-5.37-12.23-5.13-7.04,.26-10.66,7.02-11.9,9.43-.21,.42-.18,.77-.18,.77,0,0,0,.39,.24,.66,1.17,1.26,5.05,4.76,11.72,4.61,3.97-.09,9.46-2.43,12.7-7.94,.23-.38,.23-.86,.21-1.12Z"/>
      <circle class="cls-40" cx="1050.92" cy="321.55" r="7.28"/>
      <circle class="cls-21" cx="1054.95" cy="318.36" r="2"/>
      <path class="cls-5" d="M1040.27,322.81s7.93-17.12,24.82-4.39"/>
    </g>
    <g>
      <path class="cls-21" d="M983.62,328.81s.08-.66-.34-1.27c-1.41-2.01-4.76-5.84-10.64-6.52-6.58-.76-10.92,5-12.41,7.07-.26,.36-.28,.69-.28,.69,0,0-.07,.36,.13,.65,.91,1.34,4.02,5.15,10.24,5.96,3.7,.49,9.14-.91,12.95-5.57,.26-.32,.33-.77,.35-1.01Z"/>
      <circle class="cls-40" cx="969.91" cy="328.39" r="6.82"/>
      <circle class="cls-21" cx="974.03" cy="326.03" r="1.91"/>
      <path class="cls-5" d="M960.1,328.3s9.43-15.78,23.36-.46"/>
    </g>
    <path class="cls-9" d="M1206.29,690.08s-65.33-118.32,4.39-179.48"/>
    <path class="cls-6" d="M904.61,653.31s6.39-27.77,13.36-43.92c4.49-10.4,6.12-37.53,6.12-37.53"/>
    <path class="cls-5" d="M999.32,401.45s26.05,5.44,49.82-6.81"/>
    <path class="cls-8" d="M1076.6,568.48s-1.77-18.99-7.35-44.23"/>
    <g>
      <path class="cls-30" d="M1104.07,491.53s-7.59,5.05-17.22-33.44c0,0-1.1-24.01-12.41-25.83,0,0-6.27-10.98-12.27-22.92-3.95-7.84-7.04-11.3-7.04-11.3,0,0-16.86-24.02-20.92-23.69-4.07,.33-6.67,6.12-4.52,11.71,2.15,5.59,12.14,17.56,12.14,17.56l7.69,24.17-17.84-2.76s-8.05-2.33-11.71,8.7c-3.65,11.03-8.94,22.94-7.1,29.63,1.84,6.7,4.77,24.57,11.91,11.71,0,0,3.74,5.22,10.68,10.45s4.35,4.25,4.35,4.25c0,0,8.34,22.95,23.09,26.65,0,0,1.86,.68,6.34,7.84"/>
      <path class="cls-8" d="M1059.58,494.91s-4.25-13.49-2.77-21.93c0,0-5.43-2.64-8.26-7.54,0,0-2.87,2.36-8.21,1.58,0,0,2.11,1.39,1.82,3.08,0,0,13.7,4.49,9.27,13.45,0,0-8.93,2.18-20.5-6.6,0,0-5.13-12.52-2.85-23.79,0,0,1.41-4.47,15.62-4.44,7.59,.02,19.68-1.27,19.68-1.27,0,0,9.44-3.32,13.68,6.08"/>
      <path class="cls-8" d="M1081.26,450.8s-.26-9.88-12.97-11.11c-12.71-1.23-42.59,4.8-42.59,4.8,0,0-4.88,1.55-3.75,9.49,1.12,7.94,4.32,23.77,4.32,23.77,0,0,13.62,12.79,18.56,14.75,0,0,4.55-1.3,3.75-8.4"/>
      <path class="cls-8" d="M1049.52,427.78s-4.78-13.34-7.69-24.17l-12.14-17.56s-4.13-7.49,4.52-11.71c0,0,16.22,14.84,20.92,23.69,4.08,7.69,19.31,34.22,19.31,34.22l-24.92-4.48-20.37-2.76s-5.85-.45-9.18,8.7c-3.33,9.15-6.59,22.16-6.59,22.16,0,0-.66,16.46,6.52,23.55,0,0,3.84,.67,5.76-4.57"/>
      <path class="cls-8" d="M1070.35,525.62s-4.44-7.88-7.45-9.21c-3.01-1.33-12.07-2.33-23.09-26.65"/>
      <path class="cls-8" d="M1074.44,432.26s9.77,.14,12.41,25.83c0,0,6.28,28.97,15.59,34.93"/>
    </g>
    <path class="cls-33" d="M950.08,479.65c-5.68-36.48-4.6-88.35-4.6-88.35-22.67-115.63,9.83-156.54,9.83-156.54,76.47-74.76,148.75-25.95,148.75-25.95,19.4,4.57,66.06,27.86,71.45,86.25,5.39,58.39,13.43,75.34,22.03,115.89,0,0,38.58,119.32,15.15,257.59-3.56,21.03,12.06,67.16,12.06,67.16,0,0-81.61,17.76-118.56-191.15-11.1-62.72,11.73-174.08,11.73-174.08,20.52,6.9,22.27-5.85,22.27-5.85,0,0,13.6-17.92,7.77-36.96-5.92-19.34-28.04,3.17-28.04,3.17-18.07-73.9-52.25-89.72-52.25-89.72-75.48,38.21-107.22,31.7-107.22,31.7,0,0-6.56,16.33-6.49,29.69,.07,13.36,3.48,24.77,3.48,24.77,4.4,8.72,1.61,18.69,1.61,18.69-7.33,19.51,3.92,40.88,3.92,40.88,25.4,55.06,55.67,59.23,55.67,59.23,.98,18.51-15.74,24.76-15.74,24.76"/>
    <g>
      <circle class="cls-12" cx="1135.73" cy="386.88" r="15.5"/>
      <line class="cls-12" x1="1136.77" y1="402.35" x2="1140.13" y2="452.37"/>
      <line class="cls-12" x1="1148.14" y1="396.26" x2="1149.93" y2="422.99"/>
      <line class="cls-12" x1="1144.36" y1="399.8" x2="1146.69" y2="434.53"/>
      <line class="cls-12" x1="1140.63" y1="401.51" x2="1143.47" y2="443.7"/>
      <line class="cls-12" x1="1128.87" y1="400.84" x2="1131.2" y2="435.57"/>
      <line class="cls-12" x1="1132.79" y1="402.04" x2="1135.62" y2="444.23"/>
      <line class="cls-12" x1="1124.53" y1="397.84" x2="1126.32" y2="424.58"/>
    </g>
    <g class="cls-41">
      <g>
        <circle class="cls-12" cx="975.48" cy="390.71" r="15.5"/>
        <line class="cls-12" x1="976.52" y1="406.17" x2="979.88" y2="456.2"/>
        <line class="cls-12" x1="985.24" y1="420.53" x2="986.44" y2="438.36"/>
        <line class="cls-12" x1="980.38" y1="405.34" x2="983.22" y2="447.53"/>
        <line class="cls-12" x1="968.62" y1="404.67" x2="970.95" y2="439.4"/>
        <line class="cls-12" x1="972.54" y1="405.87" x2="975.37" y2="448.06"/>
        <line class="cls-12" x1="964.28" y1="401.67" x2="966.07" y2="428.41"/>
      </g>
    </g>
    <path class="cls-20" d="M1112.26,599.33s-74.15,35.45-176-15.19l-6.2,19.82s93.47,49.77,189.9,13.57l-7.7-18.2Z"/>
    <polyline class="cls-11" points="1110.21 608.64 1101.8 621.1 1089.83 611.02 1083.64 623.41 1071.73 614.98 1060.6 628.65 1051.32 616.26 1041.75 627.11 1034.16 615.77 1022.35 625.59 1013.63 613.73 1001.28 624.12 993.08 611.15 981.74 618.74 974.64 605.72 960.48 611.75 954.49 598.7 940.9 605.26 937.67 592.11"/>
    <polyline class="cls-11" points="1112.73 617.39 1100.23 607.89 1093.03 623.07 1081 611.34 1073.27 627.09 1061.79 615.34 1050.65 628.45 1041.34 615.51 1032.9 626.87 1024.12 613.36 1012.96 625.92 1004.14 611.31 992.9 621.66 984.09 607.04 973.38 616.82 965.65 601.62 951.01 609.88 946.54 592.9 933.98 605.47"/>
    <path class="cls-20" d="M869.85,625.44l3.23-15.07s33.56,27.04,34.6,27.15-3.81,15.71-3.81,15.71l-34.01-27.79Z"/>
    <polyline class="cls-11" points="873.67 614.84 875.54 627.16 882.27 622.71 886.68 637.49 894.18 632.38 898.39 645.68 903.85 639.99"/>
    <polyline class="cls-11" points="869.85 625.44 878.58 617.92 878.89 631.91 888.45 627.02 891.55 640.93 900.43 635.97 902.07 647.16"/>
    <path class="cls-30" d="M1102.44,493.01c31.02,34.35,85.65,142.72,85.65,142.72,4.87,3.41,22.84,34.91,22.84,34.91l5.51-23.7c34.16,8.31,64.97-4.22,64.97-4.22,0,0,17.86,197.08-86.95,150.6-97.66-43.31-105.28-148.05-124.12-267.72"/>
    <path class="cls-8" d="M1222.98,705.79s-10.28-43.3-34.89-70.06c0,0-51.59-102.09-85.65-142.72"/>
    <path class="cls-20" d="M1282.21,644.96s-20.55,12.84-66.55,2.23l1.96-15.84s23.46,9.56,65.75-5.21l-1.16,18.83Z"/>
    <polyline class="cls-11" points="1283.64 629.35 1272.44 644.25 1264.95 635.96 1256.25 647.96 1250.85 638.45 1239.82 648.93 1233.24 638.05 1222.64 645.14 1221.7 637.15"/>
    <polyline class="cls-11" points="1279.56 640.18 1274.42 631.68 1262.72 647.51 1256.55 637.9 1247.05 648.57 1240.22 639.63 1229.5 647.69 1225.53 637.61 1216.2 643.87"/>
  </g>
  <g>
    <circle class="cls-17" cx="1239.01" cy="143.07" r="78.99"/>
    <polygon class="cls-39" points="1236.35 143.07 1236.35 94.97 1242.45 141.55 1278.83 172.82 1236.35 143.07"/>
    <line class="cls-15" x1="1169.49" y1="143.46" x2="1182.45" y2="143.46"/>
    <line class="cls-15" x1="1295.67" y1="143.46" x2="1308.64" y2="143.46"/>
    <line class="cls-15" x1="1239.5" y1="73.46" x2="1239.5" y2="86.42"/>
    <line class="cls-15" x1="1239.5" y1="199.64" x2="1239.5" y2="212.6"/>
  </g>
  <g class="cls-42">
    <g>
      <polygon class="cls-31" points="1312.97 900.04 1496.33 945.21 .66 945.21 .66 900.04 1312.97 900.04"/>
      <path class="cls-24" d="M1496.33,945.21l76.79,254.15s-69.15,28.23-151.74-7.84c0,0-24.97,31.37-84.51,4.71,0,0-21.13,14.12-113.32-1.57,0,0-65.3-6.27-96.04,3.14,0,0-28.81,18.82-74.91-1.57,0,0-40.34,15.68-76.83,0,0,0-48.02,7.84-105.64-6.27-57.62-14.12-147.9,25.09-147.9,25.09,0,0-15.37-23.53-67.23-17.25,0,0-46.1,21.96-82.59,3.14,0,0-51.86-14.12-169.02-1.57,0,0-26.89,17.25-51.86,0,0,0-293.25,8.01-350.88-12.38v-241.77"/>
      <line class="cls-2" x1="1421.38" y1="1191.52" x2="1406.82" y2="1005.21"/>
      <line class="cls-2" x1="1336.87" y1="1196.22" x2="1355.18" y2="1054.13"/>
      <line class="cls-2" x1="975.77" y1="1196.22" x2="995.84" y2="997.25"/>
      <path class="cls-2" d="M655.01,1197.79s-35.93-122.98-45.43-203.12"/>
      <path class="cls-2" d="M722.24,1215.05s34.57-83.36,26.65-197.11"/>
      <line class="cls-2" x1="403.4" y1="1199.36" x2="389.55" y2="1047.67"/>
      <line class="cls-2" x1="352.12" y1="1197.81" x2="354.08" y2="1011.16"/>
      <line class="cls-2" x1="1052.6" y1="1196.22" x2="1045.09" y2="1081.9"/>
      <line class="cls-2" x1="1127.51" y1="1197.79" x2="1118.58" y2="1045.12"/>
    </g>
  </g>
  <polygon class="cls-21" points="706.22 901.07 758.91 929.85 941.4 929.31 888.17 900.52 706.22 901.07"/>
  <path class="cls-36" d="M749.86,937.63l129.25-22.48,10.81-8.17-10.87-2.28-128.48,25.15s-8.62,3.7-.71,7.78Z"/>
  <g>
    <path class="cls-30" d="M359.6,378.89s10.81,34.25-6.65,67.72c0,0-4.37,122.24,88.77,131.7,0,0,69.4-44.92,42.01-123.34l-124.12-76.08Z"/>
    <line class="cls-19" x1="514.58" y1="905.19" x2="249.35" y2="904.61"/>
    <path class="cls-37" d="M278.62,904.06c-65.57,3.03-79.65-45.21-79.65-45.21l2.07-160.75c4.05-99.29,38.83-171.84,38.83-171.84,41.32-52.33,106.56-77.5,106.56-77.5,27.01,13.19,72.64,40.32,72.64,40.32,4.07,37.07,20.05,60.5,20.05,60.5,11.66-23.47,6.3-61.69,6.3-61.69,62.86-33.05,33.88-35.63,33.88-35.63,40.28,3.1,47.73,14.08,79.17,42.78,36.23,33.08,47.36,92.57,47.36,92.57,10.74,44.94,14.8,82.19,16.81,90.94l23.59,226.11-40.37,.28h0c0,21.18,0,0,0,0"/>
    <path class="cls-30" d="M506.52,232.03s22.48,19.44,19.23,73.38c0,0-4.35,13.79-1.22,29.11,0,0,8.05,26.85,1.76,50.36-8.54,31.94-24.22,45.83-24.22,45.83,0,0-11.81,12.87-28.61,10.5,0,0-24.93,9.73-47.76-3.51-22.83-13.24-63-56.04-63-56.04,0,0-20.13,6.43-27.2-14.29-7.07-20.72-17.02-36.37-4.59-49.27,12.43-12.9,29.94,20.36,29.94,20.36,0,0,8.19-10.86,5.06-26.19,0,0-7.86-30.67,8.84-67.78,0,0,56.19-27.32,131.79-12.46Z"/>
    <path class="cls-33" d="M451.99,300.75s-29.61-7.64-52.49,9.52c0,0,8.78-27.35,51.76-20.95,0,0,7.79,6.31,.73,11.43Z"/>
    <path class="cls-33" d="M526.41,298.84c-19.01-6.81-29.71-.38-29.71-.38-6.79-5.04,.88-10.95,.88-10.95,13.05-1.66,22.83-.23,30.1,2.51,0,0-.23,9.19-1.28,8.82Z"/>
    <path class="cls-40" d="M464.74,443.6s-23.57,5.35-37.05-4.97c0,0-15.47-7.03-34.01-26.09,0,0,23.07,34.56,51.77,36.65,0,0,17,.45,23.48-3.2,0,0-2.99-1.47-4.19-2.39Z"/>
    <path class="cls-10" d="M332.9,348.61s7.83-23.82,27.45,13.11c0,0-16-15.99-18.11-1.6"/>
    <path class="cls-10" d="M497.09,343.38s14.9,20.23-9.41,23.74"/>
    <path class="cls-4" d="M420.87,316.69s11.23,16.41,26.58,.23"/>
    <path class="cls-4" d="M497.88,315.9s11.5,15.6,24.56-1.89"/>
    <path class="cls-33" d="M381.53,251.83s29.8-19.34,46.46,3.46c21.7,29.71,37.78,1.02,55.59,17.5,0,0,18.15-36.68,39.44-10.79,0,0,13.54-41.84-33.84-71.65,0,0-53.17-32.73-106.98,2.79,0,0-51.97,8.82-50.81,57.76,0,0,28.68-26.28,50.15,.92Z"/>
    <path class="cls-13" d="M340.34,223.42s-30.8,20.24-13.52,102.91c0,0,18.2-23.66,35.44,17.98l8.89,15.58s-15.05-85.97,18.08-118.56l-48.9-17.91Z"/>
    <path class="cls-38" d="M343.35,449.51s64.71,39.38,77.49,61.73l-1.77-22.15s-47.99-30.91-65.07-53.68l-10.65,14.1Z"/>
    <path class="cls-38" d="M473.28,448.31s24.25-.8,23.33,14.91l-49.6,37.76-1.6-13.09s23.39-11.69,38.74-30.62c0,0-10.29-1.39-10.87-8.97Z"/>
    <g>
      <rect class="cls-21" x="362" y="728.7" width="18.73" height="18.73" transform="translate(-421.96 507.21) rotate(-47.07)"/>
      <polyline class="cls-38" points="371.75 751.45 384.5 737.74 396.45 748.61"/>
      <polygon class="cls-21" points="396.45 748.61 384.5 737.59 397.26 723.88 410.97 736.63 396.45 748.61"/>
      <rect class="cls-21" x="361.05" y="702.35" width="18.73" height="18.73" transform="translate(-402.97 498.11) rotate(-47.07)"/>
      <rect class="cls-38" x="374.67" y="715.26" width="18.73" height="18.73" transform="translate(-408.08 512.2) rotate(-47.07)"/>
      <rect class="cls-21" x="387.42" y="701.4" width="18.73" height="18.73" transform="translate(-393.86 517.12) rotate(-47.07)"/>
      <rect class="cls-21" x="360.1" y="676.09" width="18.73" height="18.73" transform="translate(-384.04 489.05) rotate(-47.07)"/>
      <rect class="cls-38" x="373.72" y="689" width="18.73" height="18.73" transform="translate(-389.15 503.13) rotate(-47.07)"/>
      <rect class="cls-21" x="386.48" y="675.13" width="18.73" height="18.73" transform="translate(-374.93 508.05) rotate(-47.07)"/>
      <rect class="cls-21" x="359.05" y="649.27" width="18.73" height="18.73" transform="translate(-364.74 479.73) rotate(-47.07)"/>
      <rect class="cls-38" x="372.67" y="662.18" width="18.73" height="18.73" transform="translate(-369.86 493.82) rotate(-47.07)"/>
      <rect class="cls-21" x="385.43" y="648.32" width="18.73" height="18.73" transform="translate(-355.64 498.74) rotate(-47.07)"/>
      <rect class="cls-21" x="358.18" y="622.76" width="18.73" height="18.73" transform="translate(-345.61 470.64) rotate(-47.07)"/>
      <rect class="cls-38" x="371.8" y="635.68" width="18.73" height="18.73" transform="translate(-350.73 484.72) rotate(-47.07)"/>
      <rect class="cls-21" x="384.55" y="621.81" width="18.73" height="18.73" transform="translate(-336.51 489.64) rotate(-47.07)"/>
      <rect class="cls-21" x="357.23" y="596.41" width="18.73" height="18.73" transform="translate(-326.63 461.54) rotate(-47.07)"/>
      <rect class="cls-38" x="370.85" y="609.33" width="18.73" height="18.73" transform="translate(-331.74 475.63) rotate(-47.07)"/>
      <rect class="cls-21" x="383.6" y="595.46" width="18.73" height="18.73" transform="translate(-317.52 480.55) rotate(-47.07)"/>
      <rect class="cls-21" x="356.28" y="570.06" width="18.73" height="18.73" transform="translate(-307.63 452.44) rotate(-47.07)"/>
      <rect class="cls-38" x="369.9" y="582.97" width="18.73" height="18.73" transform="translate(-312.75 466.53) rotate(-47.07)"/>
      <rect class="cls-21" x="382.65" y="569.11" width="18.73" height="18.73" transform="translate(-298.53 471.45) rotate(-47.07)"/>
      <rect class="cls-21" x="355.33" y="543.71" width="18.73" height="18.73" transform="translate(-288.64 443.34) rotate(-47.07)"/>
      <rect class="cls-38" x="368.94" y="556.62" width="18.73" height="18.73" transform="translate(-293.76 457.43) rotate(-47.07)"/>
      <rect class="cls-21" x="381.7" y="542.75" width="18.73" height="18.73" transform="translate(-279.54 462.35) rotate(-47.07)"/>
      <rect class="cls-21" x="354.38" y="517.45" width="18.73" height="18.73" transform="translate(-269.72 434.28) rotate(-47.07)"/>
      <rect class="cls-38" x="368" y="530.36" width="18.73" height="18.73" transform="translate(-274.83 448.36) rotate(-47.07)"/>
      <rect class="cls-21" x="380.76" y="516.49" width="18.73" height="18.73" transform="translate(-260.61 453.28) rotate(-47.07)"/>
      <rect class="cls-21" x="353.43" y="491.09" width="18.73" height="18.73" transform="translate(-250.73 425.18) rotate(-47.07)"/>
      <rect class="cls-38" x="367.05" y="504.01" width="18.73" height="18.73" transform="translate(-255.84 439.27) rotate(-47.07)"/>
      <rect class="cls-21" x="379.8" y="490.14" width="18.73" height="18.73" transform="translate(-241.62 444.19) rotate(-47.07)"/>
      <rect class="cls-21" x="352.54" y="464.83" width="18.73" height="18.73" transform="translate(-231.78 416.15) rotate(-47.07)"/>
      <rect class="cls-38" x="366.15" y="477.74" width="18.73" height="18.73" transform="translate(-236.9 430.24) rotate(-47.07)"/>
      <polyline class="cls-38" points="377.39 471.17 375.13 473.7 361.42 460.95 362.08 460.23"/>
      <polygon class="cls-21" points="388.75 486.47 375.04 473.72 377.39 471.17 391.77 483.02 388.75 486.47"/>
    </g>
    <g>
      <polyline class="cls-21" points="546.03 829.4 551.97 840.06 540.84 846.26 534.64 835.13 545.31 829.17"/>
      <polygon class="cls-38" points="536.86 827.18 545.31 829.17 534.73 835.05 529.48 825.66 536.86 827.18"/>
      <polyline class="cls-21" points="529.43 825.69 534.7 835.15 523.57 841.35 517.36 830.22 526.46 825.15"/>
      <rect class="cls-21" x="531.94" y="848.56" width="12.74" height="12.74" transform="translate(-348.11 370.21) rotate(-29.13)"/>
      <rect class="cls-38" x="525.83" y="837.35" width="12.74" height="12.74" transform="translate(-343.42 365.82) rotate(-29.13)"/>
      <rect class="cls-21" x="514.67" y="843.66" width="12.74" height="12.74" transform="translate(-347.9 361.18) rotate(-29.13)"/>
      <rect class="cls-21" x="527.04" y="865.82" width="12.74" height="12.74" transform="translate(-357.13 370.01) rotate(-29.13)"/>
      <rect class="cls-38" x="520.93" y="854.61" width="12.74" height="12.74" transform="translate(-352.44 365.62) rotate(-29.13)"/>
      <rect class="cls-21" x="509.77" y="860.91" width="12.74" height="12.74" transform="translate(-356.92 360.98) rotate(-29.13)"/>
      <rect class="cls-38" x="516.02" y="871.87" width="12.74" height="12.74" transform="translate(-361.46 365.41) rotate(-29.13)"/>
      <polygon class="cls-21" points="531.12 880.56 533.16 885.56 523.31 892.7 519.99 886.77 531.12 880.56"/>
      <rect class="cls-21" x="505.01" y="877.95" width="12.74" height="12.74" transform="translate(-365.82 360.82) rotate(-29.13)"/>
      <path class="cls-38" d="M523.31,892.7l-3.21-6.09-11.13,6.2,2.75,4.14s8.84-2.35,11.59-4.25Z"/>
    </g>
    <path class="cls-7" d="M440.5,549.72s7.2,121.98,11.28,255.92"/>
    <ellipse class="cls-23" cx="426.39" cy="558.4" rx="3.87" ry="4.19"/>
    <ellipse class="cls-23" cx="436.19" cy="628.72" rx="3.87" ry="4.19"/>
    <ellipse class="cls-23" cx="439.14" cy="681.7" rx="3.87" ry="4.19"/>
    <ellipse class="cls-23" cx="438.28" cy="741.68" rx="3.87" ry="4.19"/>
    <path class="cls-5" d="M556.32,623.67s21.98,166.78,24.4,209.87"/>
    <path class="cls-29" d="M496.5,401.92s-10.26-13.69-24.32-8.98c0,0-10.99-6.84-31.49,7.86,0,0,10.62,13.37,30.7,12.1,20.08-1.27,25.12-10.98,25.12-10.98Z"/>
    <path class="cls-10" d="M440.69,400.8s34.2-4.07,55.82,1.12"/>
    <path class="cls-22" d="M473.59,380.35s-34.07,29.3-3.89,53.98c30.18,24.67,64.2,76.09,7.47,130.81-56.73,54.72-61.06,57.81-57.96,85,0,0-25.66-32.85,32.71-97.46,0,0,32.11-55.64-11.69-109.28,0,0-19.84-40.82,33.35-63.05Z"/>
    <path class="cls-22" d="M481.36,379.09s-15.82,59.11,30,81.91c45.83,22.8,105.57-1.54,130.87,61.73,25.3,63.26,92.11,37.89,86.82-1.88-5.29-39.77-41.46-31.89-41.46-31.89,0,0,29.69,20.63,17.54,32.41s-38.25-6.26-44.37-43.35c-6.12-37.09-54.34-53.77-90.47-44.13-34.51,9.21-77.53-19.59-88.93-54.8Z"/>
    <path class="cls-22" d="M520.85,483.71s50.46-2.87,73.47,36.52c23.01,39.38,15.52,61.7,58.42,78.5,0,0-31.41,22.84-71.41-23.27-40-46.11-4.06-64.61-60.48-91.75Z"/>
    <path class="cls-5" d="M541.91,828.06s-176.47-39.39-225.5-44.11c0,0,25.83-139.18-2.25-207.81"/>
    <path class="cls-5" d="M316.41,783.94s-45.2,3.72-57.89,43.12"/>
    <path class="cls-28" d="M553.19,836.39l17.14-.23,82.84-.05,48.02,26.38s17.6,31.05-4.28,35.41c0,0,.49,12.13-16.78,9.18,0,0-2.8,11.76-18.25,2.8,0,0-16.4,25.44-23.29,5.69-6.89-19.74-14.98-5.92-14.98-5.92,0,0-33.17,4.59-50.38-20.67,0,0-13.09-14.68-22.95-6.69l2.92-45.91Z"/>
    <path class="cls-3" d="M696.91,897.91l2.48-17.44s-8.53-18.71-35.23-27.14"/>
    <path class="cls-3" d="M679.72,907.25l2.48-17.44s-8.69-12.94-33.39-24.2"/>
    <path class="cls-3" d="M638.08,892.06s27.36,2.39,23.8,17.83"/>
  </g>
  <g>
    <rect class="cls-35" x="502.3" y="906.7" width="220.13" height="26.74"/>
    <polygon class="cls-35" points="406.8 882.35 502.3 906.7 722.43 906.7 618.81 880.44 406.8 882.35"/>
    <polygon class="cls-35" points="412.5 900.37 502.24 928.31 502.3 933.44 412.5 904.41 412.5 900.37"/>
    <polygon class="cls-21" points="412.5 884.14 502.3 906.7 502.3 929.86 412.5 900.82 412.5 884.14"/>
    <line class="cls-16" x1="502.3" y1="906.7" x2="722.43" y2="906.7"/>
    <polygon class="cls-16" points="527.82 885.71 581.12 885.71 625.68 899.69 569.32 899.69 527.82 885.71"/>
  </g>
</svg>