<?xml version="1.0" encoding="UTF-8"?>
<svg xmlns="http://www.w3.org/2000/svg" xmlns:xlink="http://www.w3.org/1999/xlink" viewBox="0 0 1333.83 1155.77">
  <defs>
    <style>
      .cls-1, .cls-2, .cls-3, .cls-4, .cls-5, .cls-6, .cls-7 {
        fill: none;
      }

      .cls-2 {
        stroke-width: 1.5px;
      }

      .cls-2, .cls-3, .cls-4, .cls-5, .cls-6, .cls-7 {
        stroke-miterlimit: 10;
      }

      .cls-2, .cls-5 {
        stroke: #231f20;
      }

      .cls-3 {
        stroke: #00a651;
        stroke-width: 3px;
      }

      .cls-8 {
        fill: url(#linear-gradient);
      }

      .cls-9 {
        clip-path: url(#clippath);
      }

      .cls-10 {
        fill: #e96d42;
      }

      .cls-11 {
        fill: #fff;
      }

      .cls-12 {
        fill: #efcccd;
      }

      .cls-13 {
        fill: #803435;
      }

      .cls-14 {
        fill: #00a651;
      }

      .cls-15 {
        fill: #8c3333;
      }

      .cls-16 {
        fill: #b6302e;
      }

      .cls-17 {
        fill: #ae8578;
      }

      .cls-18 {
        fill: #be9e7d;
      }

      .cls-19 {
        fill: #be8c8c;
      }

      .cls-20 {
        fill: #dc3b28;
      }

      .cls-21 {
        fill: #231f20;
      }

      .cls-22 {
        fill: #3c2415;
      }

      .cls-23 {
        fill: #58595b;
      }

      .cls-24 {
        fill: #26130f;
      }

      .cls-4 {
        stroke-width: 2px;
      }

      .cls-4, .cls-7 {
        stroke: #be1e2d;
      }

      .cls-25 {
        fill: url(#linear-gradient-2);
      }

      .cls-6 {
        stroke: #603913;
      }

      .cls-26 {
        fill: #dea962;
      }

      .cls-26, .cls-27 {
        opacity: .8;
      }

      .cls-27 {
        fill: #edb36e;
      }
    </style>
    <clipPath id="clippath">
      <rect class="cls-1" x="264.9" y="191.42" width="649.95" height="808.32"/>
    </clipPath>
    <linearGradient id="linear-gradient" x1="250.07" y1="250.99" x2="250.07" y2="136.84" gradientUnits="userSpaceOnUse">
      <stop offset="0" stop-color="#be9e7d"/>
      <stop offset=".7" stop-color="#231f20"/>
    </linearGradient>
    <linearGradient id="linear-gradient-2" x1="2117.93" y1="503.87" x2="2117.93" y2="400.29" gradientTransform="translate(3192.34) rotate(-180) scale(1 -1)" xlink:href="#linear-gradient"/>
  </defs>
  <g id="FONDO">
    <rect class="cls-26" x="578.83" y="-439.86" width="176.18" height="1333.83" transform="translate(893.97 -439.86) rotate(90)"/>
    <rect class="cls-27" x="597.89" y="-597.89" width="138.06" height="1333.83" transform="translate(735.95 -597.89) rotate(90)"/>
    <rect class="cls-27" x="578.83" y="-263.33" width="176.18" height="1333.83" transform="translate(1070.5 -263.33) rotate(90)"/>
    <rect class="cls-26" x="578.83" y="-87.17" width="176.18" height="1333.83" transform="translate(1246.67 -87.17) rotate(90)"/>
    <rect class="cls-26" x="589.38" y="254.7" width="155.08" height="1333.83" transform="translate(1588.53 254.7) rotate(90)"/>
    <rect class="cls-27" x="578.83" y="89.36" width="176.18" height="1333.83" transform="translate(1423.19 89.36) rotate(90)"/>
  </g>
  <g id="Layer_1" data-name="Layer 1">
    <path class="cls-11" d="M474.89,271.34c60.6,4.24,55.71-51.54,55.71-51.54-20.62-74.34-97.23-16.16-97.23-16.16,35.35-25.86-5.89-74.34-5.89-74.34-58.92-38.78-94.28,22.62-94.28,22.62,0-93.73-67.76-87.26-67.76-87.26-88.39,0-91.33,87.26-91.33,87.26,0,0-52.66-12.34-54.67,57.33-1.6,55.31,57.62,81.65,57.62,81.65,0,0-16.77,58.23,37.38,62.47,54.15,4.24,59.31-38.19,59.31-38.19,0,0,44.51,80.62,106.46,40.06,0,0,34.08-34.4,21.19-68.35,0,0,20.63,42.43,58.02,25.46,0,0,23.03-13.14,15.47-41.02"/>
    <path class="cls-11" d="M1223.95,528.37c67.22,4.29,61.8-52.11,61.8-52.11-22.88-75.16-107.84-16.34-107.84-16.34,39.21-26.14-6.54-75.16-6.54-75.16-65.36-39.21-104.57,22.88-104.57,22.88,0-94.77-75.16-88.23-75.16-88.23-98.04,0-101.3,88.23-101.3,88.23,0,0-58.41-12.48-60.64,57.96-1.78,55.92,63.91,82.56,63.91,82.56,0,0-18.6,58.87,41.46,63.17,60.07,4.29,65.79-38.61,65.79-38.61,0,0,49.38,81.52,118.08,40.51,0,0,37.8-34.79,23.5-69.11,0,0,22.88,42.9,64.36,25.74,0,0,25.55-13.29,17.16-41.47"/>
    <path class="cls-11" d="M695.47,217.93c-67.22,4.29-61.8-52.11-61.8-52.11,22.88-75.16,107.84-16.34,107.84-16.34-39.21-26.14,6.54-75.16,6.54-75.16,65.36-39.21,104.57,22.88,104.57,22.88,0-94.77,75.16-88.23,75.16-88.23,98.04,0,101.3,88.23,101.3,88.23,0,0,58.41-12.48,60.64,57.96,1.78,55.92-63.91,82.56-63.91,82.56,0,0,18.6,58.87-41.46,63.17-60.07,4.29-65.79-38.61-65.79-38.61,0,0-49.38,81.52-118.08,40.51,0,0-37.8-34.79-23.5-69.11,0,0-22.88,42.9-64.36,25.74,0,0-25.55-13.29-17.16-41.47"/>
    <circle class="cls-11" cx="423.58" cy="370.43" r="19.57"/>
    <circle class="cls-11" cx="472.31" cy="412" r="15.72"/>
    <circle class="cls-11" cx="732.44" cy="294.79" r="15.72"/>
    <circle class="cls-11" cx="765.2" cy="402.97" r="15.72"/>
    <circle class="cls-11" cx="824.92" cy="388.44" r="15.72"/>
    <g class="cls-9">
      <g>
        <path class="cls-18" d="M541.32,438.29s3.6,39.89-14.08,73.78c0,0-6.31,119.45,87.98,129.03,0,0,123.54-73.39,38.05-127.6l-111.95-75.21Z"/>
        <path class="cls-20" d="M514.24,521.05s-78.78,30.85-103.83,69.45c0,0-15.27,13.35-26.1,62.11,0,0-24.38,96.27-29.27,145.88,0,0,39.04,39.27,118,35.08l-76.61,279.11s30.38,40.49,212.28,42.96c0,0,109.85,4.18,173.66-33.48,0,0-10.72-168.07-13.49-335.74,0,0,38.18-6.62,76.91-51.89l-45.42-128.8s-.69-5.78-49.12-40.55c0,0-38.12-20.2-65.37-31.79l-52.45,34.71-17.04,48.43-27.87-45.86s5.61-2.3-74.29-49.6Z"/>
        <path class="cls-18" d="M686.48,275.72s23.32,24.72,28.02,91.68c0,0-.44,16.31,2.52,24.65s5.06,22.63,3.16,32.28c-1.9,9.65-16.8,74.64-16.8,74.64,0,0-5.19,18.97-36.43,23.85-31.24,4.88-59.45-2.71-72.62-14.26-13.17-11.55-44.46-28.83-50.19-48.69,0,0-17.95,6.93-28.78-14.32,0,0-25.27-31.79-6.38-43.77,18.89-11.98,34.65,14.28,34.65,14.28,0,0-35.99-78.81,5.53-117.55,0,0,50.03-55.73,137.33-22.8Z"/>
        <path class="cls-22" d="M632.04,348.07s-33.03,.12-50.21,21.42c0,0,8.89-24.82,48.45-29.11,0,0,7.67,2.75,1.76,7.69Z"/>
        <path class="cls-22" d="M711.38,350.6c-19.45-11.03-37.08-9.34-37.08-9.34-6.27-4.45,1.15-7.81,1.15-7.81,12.4,.36,29.07,5.48,35.87,8.33,0,0,.98,9.33,.07,8.82Z"/>
        <path class="cls-2" d="M509.95,416.82s6.67-12.21,16.22-1.13c9.55,11.09,10.35,14.98,10.35,14.98,0,0-13.84-17.72-17.44-2.27"/>
        <path class="cls-24" d="M673.43,519.46s-31.94,8.61-55.69,1.11c0,0-14.23-2.37-35.13-20.58,0,0,21.68,28.11,55.89,27.73,0,0,15.53,1.42,30.13-5.92,0,0,4.5,1.03,4.8-2.34Z"/>
        <path class="cls-4" d="M486.92,836.09s73.43-207.72-32.19-250.78"/>
        <line class="cls-4" x1="766.55" y1="790.97" x2="771.07" y2="648.3"/>
        <g>
          <path class="cls-11" d="M603.07,381.32s-.1-.72,.36-1.39c1.53-2.22,5.16-6.46,11.59-7.26,7.21-.9,12.03,5.37,13.68,7.62,.29,.39,.31,.76,.31,.76,0,0,.08,.4-.13,.71-.98,1.48-4.35,5.69-11.17,6.65-4.05,.57-10.03-.9-14.26-5.97-.29-.35-.37-.84-.4-1.1Z"/>
          <circle class="cls-24" cx="618.1" cy="380.74" r="7.51"/>
          <circle class="cls-11" cx="613.2" cy="379.81" r="2.06"/>
          <path class="cls-2" d="M629.15,380.25s-10.92-16.11-26.01-.34"/>
        </g>
        <g>
          <path class="cls-11" d="M686.96,377s-.19-.66,.14-1.35c1.1-2.28,3.87-6.74,9.74-8.41,6.58-1.87,11.95,3.28,13.81,5.13,.32,.32,.4,.66,.4,.66,0,0,.13,.36-.02,.68-.7,1.52-3.24,5.91-9.43,7.78-3.69,1.11-9.46,.6-14.11-3.52-.32-.29-.47-.73-.53-.97Z"/>
          <circle class="cls-24" cx="700.85" cy="374.3" r="7.04"/>
          <circle class="cls-11" cx="695.98" cy="374.31" r="1.97"/>
          <path class="cls-2" d="M710.83,372.57s-12.23-14.5-23.86,3.42"/>
        </g>
        <polygon class="cls-15" points="516.38 509.21 530.2 507.03 527.64 523.28 516.38 509.21"/>
        <path class="cls-16" d="M504.7,524.67s61.85,38.08,94.18,64.7l-4.28-19.97s-59.47-35.21-78.21-60.2l-11.69,15.47Z"/>
        <path class="cls-16" d="M664,524.65s26.61-.88,25.6,16.36l-58.88,42.66,2.7-15.59s25.66-12.83,42.5-33.59c0,0-11.29-1.52-11.93-9.84Z"/>
        <path class="cls-7" d="M615.64,616.72s18.04,172.54,15.19,538.8"/>
        <ellipse class="cls-12" cx="629.9" cy="666.99" rx="4.28" ry="4.64"/>
        <ellipse class="cls-12" cx="634.43" cy="748.03" rx="4.28" ry="4.64"/>
        <ellipse class="cls-12" cx="637.62" cy="835.4" rx="4.28" ry="4.64"/>
        <ellipse class="cls-12" cx="639.47" cy="924.21" rx="4.28" ry="4.64"/>
        <ellipse class="cls-12" cx="640.47" cy="1009.78" rx="4.28" ry="4.64"/>
        <ellipse class="cls-12" cx="638.96" cy="1105.81" rx="4.28" ry="4.64"/>
        <g>
          <polygon class="cls-12" points="554.6 1152.68 562.11 1143.76 545.04 1127.88 529.16 1144.95 534.34 1149.95 554.6 1152.68"/>
          <polygon class="cls-12" points="583.2 1155.4 594.95 1142.58 577.88 1126.7 562 1143.77 572.58 1154.4 583.2 1155.4"/>
          <rect class="cls-12" x="532.79" y="1099.62" width="23.32" height="23.32" transform="translate(-640.01 752.92) rotate(-47.07)"/>
          <rect class="cls-23" x="549.74" y="1115.69" width="23.32" height="23.32" transform="translate(-646.38 770.46) rotate(-47.07)"/>
          <rect class="cls-12" x="565.62" y="1098.43" width="23.32" height="23.32" transform="translate(-628.67 776.59) rotate(-47.07)"/>
          <rect class="cls-12" x="531.7" y="1066.61" width="23.32" height="23.32" transform="translate(-616.19 741.6) rotate(-47.07)"/>
          <rect class="cls-23" x="548.65" y="1082.69" width="23.32" height="23.32" transform="translate(-622.56 759.14) rotate(-47.07)"/>
          <rect class="cls-12" x="564.54" y="1065.43" width="23.32" height="23.32" transform="translate(-604.86 765.27) rotate(-47.07)"/>
          <rect class="cls-12" x="530.51" y="1033.81" width="23.32" height="23.32" transform="translate(-592.55 730.28) rotate(-47.07)"/>
          <rect class="cls-23" x="547.47" y="1049.88" width="23.32" height="23.32" transform="translate(-598.92 747.82) rotate(-47.07)"/>
          <rect class="cls-12" x="563.35" y="1032.62" width="23.32" height="23.32" transform="translate(-581.22 753.94) rotate(-47.07)"/>
          <rect class="cls-12" x="529.33" y="1000.99" width="23.32" height="23.32" transform="translate(-568.91 718.95) rotate(-47.07)"/>
          <rect class="cls-23" x="546.29" y="1017.07" width="23.32" height="23.32" transform="translate(-575.27 736.49) rotate(-47.07)"/>
          <rect class="cls-12" x="562.17" y="999.81" width="23.32" height="23.32" transform="translate(-557.57 742.61) rotate(-47.07)"/>
          <rect class="cls-12" x="528.15" y="968.18" width="23.32" height="23.32" transform="translate(-545.26 707.62) rotate(-47.07)"/>
          <rect class="cls-23" x="545.1" y="984.26" width="23.32" height="23.32" transform="translate(-551.63 725.16) rotate(-47.07)"/>
          <rect class="cls-12" x="560.99" y="967" width="23.32" height="23.32" transform="translate(-533.93 731.29) rotate(-47.07)"/>
          <rect class="cls-12" x="526.97" y="935.49" width="23.32" height="23.32" transform="translate(-521.7 696.33) rotate(-47.07)"/>
          <rect class="cls-23" x="543.92" y="951.57" width="23.32" height="23.32" transform="translate(-528.07 713.87) rotate(-47.07)"/>
          <rect class="cls-12" x="559.81" y="934.3" width="23.32" height="23.32" transform="translate(-510.37 720) rotate(-47.07)"/>
          <rect class="cls-12" x="525.79" y="902.68" width="23.32" height="23.32" transform="translate(-498.06 685.01) rotate(-47.07)"/>
          <rect class="cls-23" x="542.74" y="918.76" width="23.32" height="23.32" transform="translate(-504.42 702.55) rotate(-47.07)"/>
          <rect class="cls-12" x="558.62" y="901.49" width="23.32" height="23.32" transform="translate(-486.72 708.67) rotate(-47.07)"/>
          <rect class="cls-12" x="524.61" y="869.98" width="23.32" height="23.32" transform="translate(-474.5 673.72) rotate(-47.07)"/>
          <rect class="cls-23" x="541.56" y="886.06" width="23.32" height="23.32" transform="translate(-480.86 691.26) rotate(-47.07)"/>
          <rect class="cls-12" x="557.44" y="868.8" width="23.32" height="23.32" transform="translate(-463.16 697.38) rotate(-47.07)"/>
          <rect class="cls-12" x="523.42" y="837.17" width="23.32" height="23.32" transform="translate(-450.85 662.39) rotate(-47.07)"/>
          <rect class="cls-23" x="540.38" y="853.25" width="23.32" height="23.32" transform="translate(-457.22 679.93) rotate(-47.07)"/>
          <rect class="cls-12" x="556.26" y="835.99" width="23.32" height="23.32" transform="translate(-439.52 686.06) rotate(-47.07)"/>
          <rect class="cls-12" x="522.24" y="804.48" width="23.32" height="23.32" transform="translate(-427.29 651.1) rotate(-47.07)"/>
          <rect class="cls-23" x="539.2" y="820.56" width="23.32" height="23.32" transform="translate(-433.66 668.64) rotate(-47.07)"/>
          <rect class="cls-12" x="555.08" y="803.3" width="23.32" height="23.32" transform="translate(-415.96 674.77) rotate(-47.07)"/>
          <rect class="cls-12" x="520.94" y="771.09" width="23.32" height="23.32" transform="translate(-403.27 639.5) rotate(-47.07)"/>
          <rect class="cls-23" x="537.89" y="787.17" width="23.32" height="23.32" transform="translate(-409.63 657.04) rotate(-47.07)"/>
          <rect class="cls-12" x="553.78" y="769.91" width="23.32" height="23.32" transform="translate(-391.93 663.17) rotate(-47.07)"/>
          <rect class="cls-12" x="519.85" y="738.09" width="23.32" height="23.32" transform="translate(-379.45 628.18) rotate(-47.07)"/>
          <rect class="cls-23" x="536.8" y="754.17" width="23.32" height="23.32" transform="translate(-385.81 645.72) rotate(-47.07)"/>
          <rect class="cls-12" x="552.69" y="736.9" width="23.32" height="23.32" transform="translate(-368.11 651.85) rotate(-47.07)"/>
          <rect class="cls-12" x="518.67" y="705.28" width="23.32" height="23.32" transform="translate(-355.81 616.86) rotate(-47.07)"/>
          <rect class="cls-23" x="535.62" y="721.36" width="23.32" height="23.32" transform="translate(-362.17 634.4) rotate(-47.07)"/>
          <rect class="cls-12" x="551.5" y="704.1" width="23.32" height="23.32" transform="translate(-344.47 640.52) rotate(-47.07)"/>
          <rect class="cls-12" x="517.48" y="672.47" width="23.32" height="23.32" transform="translate(-332.16 605.53) rotate(-47.07)"/>
          <rect class="cls-23" x="534.44" y="688.55" width="23.32" height="23.32" transform="translate(-338.53 623.07) rotate(-47.07)"/>
          <rect class="cls-12" x="550.32" y="671.29" width="23.32" height="23.32" transform="translate(-320.83 629.19) rotate(-47.07)"/>
          <rect class="cls-12" x="516.3" y="639.66" width="23.32" height="23.32" transform="translate(-308.52 594.2) rotate(-47.07)"/>
          <rect class="cls-23" x="533.25" y="655.74" width="23.32" height="23.32" transform="translate(-314.89 611.74) rotate(-47.07)"/>
          <rect class="cls-12" x="549.14" y="638.48" width="23.32" height="23.32" transform="translate(-297.18 617.87) rotate(-47.07)"/>
          <rect class="cls-12" x="515.12" y="606.97" width="23.32" height="23.32" transform="translate(-284.96 582.91) rotate(-47.07)"/>
          <rect class="cls-23" x="532.07" y="623.05" width="23.32" height="23.32" transform="translate(-291.32 600.45) rotate(-47.07)"/>
          <rect class="cls-12" x="547.96" y="605.78" width="23.32" height="23.32" transform="translate(-273.62 606.58) rotate(-47.07)"/>
          <rect class="cls-12" x="513.94" y="574.16" width="23.32" height="23.32" transform="translate(-261.31 571.59) rotate(-47.07)"/>
          <rect class="cls-23" x="530.89" y="590.24" width="23.32" height="23.32" transform="translate(-267.68 589.13) rotate(-47.07)"/>
          <rect class="cls-12" x="546.78" y="572.97" width="23.32" height="23.32" transform="translate(-249.98 595.25) rotate(-47.07)"/>
          <rect class="cls-12" x="512.83" y="541.46" width="23.32" height="23.32" transform="translate(-237.73 560.35) rotate(-47.07)"/>
          <rect class="cls-23" x="529.78" y="557.53" width="23.32" height="23.32" transform="translate(-244.09 577.89) rotate(-47.07)"/>
          <polyline class="cls-23" points="543.77 549.35 540.95 552.5 523.88 536.62 524.71 535.74"/>
          <polygon class="cls-12" points="557.92 568.41 540.85 552.52 543.77 549.35 562.49 563.59 557.92 568.41"/>
        </g>
        <g>
          <polyline class="cls-12" points="492.06 809.12 467.63 821.99 455.3 798.56 480.82 785.13 492.67 807.58"/>
          <polygon class="cls-23" points="498.18 789.63 492.67 807.58 480.99 785.32 502.51 773.95 498.18 789.63"/>
          <polyline class="cls-12" points="502.45 773.84 480.77 785.25 468.44 761.83 493.96 748.39 504.04 767.53"/>
          <rect class="cls-12" x="421.93" y="780.21" width="28.84" height="26.47" transform="translate(-319.4 294.65) rotate(-27.77)"/>
          <rect class="cls-23" x="447.63" y="766.96" width="28.84" height="26.47" transform="translate(-310.27 305.09) rotate(-27.77)"/>
          <rect class="cls-12" x="435.08" y="743.47" width="28.84" height="26.47" transform="translate(-300.77 296.54) rotate(-27.77)"/>
          <rect class="cls-12" x="384.25" y="770.26" width="28.84" height="26.47" transform="translate(-319.1 275.95) rotate(-27.77)"/>
          <rect class="cls-23" x="409.94" y="757.02" width="28.84" height="26.47" transform="translate(-309.98 286.39) rotate(-27.77)"/>
          <rect class="cls-12" x="397.39" y="733.53" width="28.84" height="26.47" transform="translate(-300.48 277.84) rotate(-27.77)"/>
          <polygon class="cls-12" points="379.9 778.55 354.92 791.96 359.93 759.17 367.57 755.13 379.9 778.55"/>
          <rect class="cls-23" x="372.25" y="747.08" width="28.84" height="26.47" transform="translate(-309.68 267.69) rotate(-27.77)"/>
          <polygon class="cls-12" points="393.04 741.82 367.52 755.25 362.22 745.51 366.2 726.03 380.71 718.39 393.04 741.82"/>
          <polyline class="cls-23" points="362.22 745.51 367.9 755.36 359.93 759.17"/>
        </g>
        <path class="cls-2" d="M667.49,384.44l19,23.08s11.03,18.11-1.3,23.24c-10.96,4.56-11.68,2.12-11.68,2.12"/>
        <path class="cls-22" d="M543.07,416.51l9.29-5.63c-2.59-25.53-6.63-80.42,8.69-105.34,0,0,71.66-45.52,123.89-19.88,0,0,17.92,10.62,29.19,76.57,0,0,4.52-47.27-14.36-85.24,0,0,11.84-10.45,13.13-14.8,0,0-16.62,4.86-26.03-2.89-5.51-4.54-79.91-52.62-150.72,11.73,0,0-73.52,23.1-30.94,133.22,0,0,23.54-9.25,37.85,12.28Z"/>
        <path class="cls-22" d="M621.82,462.72s-2.19-19.29,13.84-24.23c19.67-6.07,40.96-7.9,56.27-.22,15.31,7.68,23.66,16.21,11.52,16.88-12.14,.67-36.73-13.93-62.3-.54,0,0-9.9,10.64-19.33,8.11Z"/>
        <path class="cls-18" d="M711.01,628.53s21.1,169.11,37.13,214.35c20.51,57.87,88.83,65.86,113.64,48.1,34.15-24.44,8.27-105.6-19.17-151.47-15.48-25.87-59.11-88.42-80.19-114.83-9.56-11.98-18.07-37.64-18.07-37.64"/>
        <g>
          <path class="cls-18" d="M759.74,626.47s-9.73-20.82-8.92-67.02c0,0,6.03-27.33-6.14-32.8,0,0-4.98-14.04-6.87-29.48-1.89-15.44-7.6-31.29-7.6-31.29,0,0-3.56-23.63-8.23-24.49s-10.04,4.56-9.31,11.49,3.14,24.75,3.14,24.75l2.2,36.44-19.23-8.5s-8.35-5.06-15.8,6.24-16.99,23.09-16.96,31.17-2.07,29.07,9.85,16.77c0,0,2.62,7.01,8.85,14.98,6.23,7.98,3.61,6.09,3.61,6.09,0,0,2.43,28.33,17.9,36.96,0,0,1.88,1.33,4.76,10.74"/>
          <path class="cls-6" d="M709.02,592.61s-.69-16.45,3.52-25.5c0,0-5.3-4.61-7-10.97,0,0-3.94,1.79-9.71-.7,0,0,1.95,2.21,1.11,4.01,0,0,14.05,9.2,6.36,17.92,0,0-10.7-.25-21.05-13.63,0,0-1.98-15.63,3.99-27.62,0,0,2.94-4.6,18.91-.26,8.53,2.32,22.51,4.52,22.51,4.52,0,0,11.61-.87,13.55,10.97"/>
          <path class="cls-6" d="M746.74,549.57s2.7-11.19-11.22-16.42c-13.92-5.23-49.34-7.49-49.34-7.49,0,0-5.95,.27-7.09,9.54s-2.34,28.04-2.34,28.04c0,0,11.44,18.5,16.4,22.2,0,0,5.51-.09,6.76-8.31"/>
          <path class="cls-6" d="M729.88,629.26c-7.97,4.59-18.73,.09-18.73,.09"/>
          <path class="cls-6" d="M718.02,514.08s-1.75-20.02-1.75-33.08l-3.59-28.11s-1.83-11.06,9.31-11.49c0,0,6.93,7.58,11.56,34.13,4.64,26.55,11.14,51.14,11.14,51.14l-26.67-12.57-22.07-9.26s-6.44-2.27-12.96,7c-6.52,9.28-14.11,22.92-14.11,22.92,0,0-5.72,18.31,.21,28.45,0,0,4.12,1.91,7.86-3.4"/>
        </g>
        <path class="cls-18" d="M368.76,806.9s-34.02,156.12-27.45,196.66l112.62,5.81,30.14-169.92-115.31-32.56Z"/>
        <path class="cls-17" d="M638.23,459.41s12.53-10.04,28.43-3.39c0,0,15.92-7.21,25.33,.72,0,0,1,10.59-19.09,15.83-20.08,5.24-34.34-3.16-34.67-13.16Z"/>
        <path class="cls-5" d="M691.99,456.74s-24.17,9.82-53.76,2.67"/>
      </g>
    </g>
    <g>
      <path class="cls-18" d="M381.69,151.7s18.07,17.04,13.42,61.96c0,0-4.13,11.36-2.07,24.27,0,0,5.76,22.71-.33,42.12-8.28,26.36-21.87,37.4-21.87,37.4,0,0-10.33,10.33-24.27,7.74,0,0-21.17,7.23-39.76-4.65-18.59-11.88-50.6-49.05-50.6-49.05,0,0-17.04,4.65-22.2-12.91-5.16-17.56-12.91-30.98-2.07-41.31,10.84-10.33,24.27,18.07,24.27,18.07,0,0,5.09-8.97,3.02-21.88,0,0-3.33-25.7,11.95-56.09,0,0,47.9-20.79,110.49-5.68Z"/>
      <path class="cls-17" d="M323.33,277.57s12.19-3.76,26.71,.36c0,0,12.55-2.51,23.84,0,0,0-1.25,20.25-20.25,24.74-19,4.48-30.65-13.26-30.29-25.09Z"/>
      <path class="cls-13" d="M326.38,279.01s-.18,17.92,23.12,17.92c21.16,0,21.33-15.95,21.33-15.95,0,0-23.84,1.08-44.45-1.97Z"/>
      <path class="cls-21" d="M333.33,208.97s-23.71-9.55-44.53,2.17c0,0,10.25-21.71,45.17-11.72,0,0,5.77,6.08-.64,9.55Z"/>
      <path class="cls-21" d="M394.58,206.08c-16.56-3.28-24.6,3.36-24.6,3.36-6.23-3.33-.62-9.16-.62-9.16,10.58-2.98,18.84-3.02,25.19-1.65,0,0,.94,7.62,.04,7.45Z"/>
      <path class="cls-11" d="M329.27,279.26s5.77,8.3,23.81,7.43c0,0,11.12,.56,15.78-5.36,0,0-23.24,.5-39.59-2.07Z"/>
      <path class="cls-5" d="M232.53,242.83s7.39-19.61,22.45,11.94c0,0-12.79-13.92-15.06-1.99"/>
      <path class="cls-5" d="M369.82,244.35s11.72,17.42-8.71,19.48"/>
      <g>
        <path class="cls-11" d="M307.25,222.24s-.03-.62,.41-1.16c1.46-1.77,4.87-5.11,10.4-5.32,6.2-.23,9.83,5.47,11.07,7.5,.21,.35,.21,.67,.21,.67,0,0,.03,.34-.17,.59-.95,1.19-4.13,4.51-9.99,4.82-3.49,.18-8.47-1.51-11.68-6.14-.22-.32-.25-.74-.25-.97Z"/>
        <circle class="cls-24" cx="320.08" cy="222.86" r="6.42"/>
        <circle class="cls-11" cx="315.98" cy="221.71" r="1.76"/>
        <path class="cls-5" d="M329.52,223.26s-8.1-14.52-22.1-2.22"/>
      </g>
      <g>
        <path class="cls-11" d="M370.87,224.8s-.12-.57,.22-1.13c1.11-1.86,3.79-5.45,8.91-6.43,5.73-1.1,9.93,3.68,11.37,5.39,.25,.3,.29,.59,.29,.59,0,0,.08,.32-.07,.58-.71,1.24-3.19,4.79-8.6,5.91-3.22,.67-8.09-.2-11.74-4.04-.25-.27-.34-.65-.38-.86Z"/>
        <circle class="cls-24" cx="382.89" cy="223.53" r="6.01"/>
        <circle class="cls-11" cx="378.75" cy="223.18" r="1.68"/>
        <path class="cls-5" d="M391.51,222.8s-9.32-13.24-20.55,1.13"/>
      </g>
      <path class="cls-21" d="M271.89,160.08s24.73-16.69,39.07,2.21c18.67,24.62,31.74,.29,46.94,13.86,0,0,14.69-31.07,32.96-9.65,0,0,10.74-35.34-29.5-59.66,0,0-45.14-26.69-89.8,3.96,0,0-43.52,8.19-41.8,49.27,0,0,23.69-22.5,42.13,.02Z"/>
      <path class="cls-8" d="M236.87,136.84s-25.57,17.46-9.81,86.62c0,0,14.93-20.14,30.04,14.57l7.7,12.95s-13.93-71.97,13.4-99.84l-41.33-14.31Z"/>
    </g>
    <g>
      <path class="cls-18" d="M825.28,104.43s-4.82,11.78-1.34,38.29c0,0,1.07,9.91-1.07,15.8,0,0-1.07,21.96,7.77,37.76,8.84,15.8,24.9,24.64,24.9,24.64,0,0,15.53,4.55,27.58-1.34,12.05-5.89,29.46-9.37,40.7-40.17,0,0,10.65,7.6,16.27-7.39,5.62-15,11.58-20.46,4.88-32.78s-19.28,13.39-19.28,13.39c0,0,9.91-24.37,1.34-47.93-8.57-23.56-39.9-38.56-39.9-38.56,0,0-44.45-10.98-61.86,38.29Z"/>
      <path class="cls-24" d="M871.82,130.87s16.77-3.8,31.39,1.31c0,0-7.11-9.21-31.79-5.33,0,0-4.1,2.5,.4,4.02Z"/>
      <path class="cls-24" d="M820.65,130.88c12.04-1.11,20.41,1.11,20.41,1.11,4.56-1.34,.56-4,.56-4-7.64-1.52-16.35-1.2-20.97-.73,0,0-.66,3.68,0,3.62Z"/>
      <path class="cls-19" d="M876.58,185.24s-8.89-2.75-19.48,.26c0,0-9.15-1.83-17.39,0,0,0,.92,14.77,14.77,18.04,13.86,3.27,22.35-9.67,22.09-18.3Z"/>
      <path class="cls-13" d="M874.36,186.29s.13,13.07-16.86,13.07c-15.43,0-15.56-11.63-15.56-11.63,0,0,17.39,.78,32.42-1.44Z"/>
      <path class="cls-11" d="M872.25,186.48s-4.21,6.05-17.36,5.42c0,0-8.11,.41-11.51-3.91,0,0,16.95,.37,28.87-1.51Z"/>
      <path class="cls-5" d="M850.75,159.71s-10.3,8.26,.45,13.52"/>
      <path class="cls-5" d="M942.86,154.51s-4.44-6.73-9.42,.13c-4.98,6.86-5.25,9.15-5.25,9.15,0,0,7.13-10.9,9.95-2.15"/>
      <g>
        <path class="cls-11" d="M894.81,142.93s.02-.53-.35-.99c-1.25-1.52-4.17-4.38-8.91-4.55-5.31-.2-8.42,4.68-9.48,6.42-.18,.3-.18,.57-.18,.57,0,0-.03,.3,.14,.51,.81,1.02,3.53,3.87,8.56,4.13,2.99,.16,7.25-1.3,10.01-5.26,.19-.28,.22-.64,.22-.83Z"/>
        <circle class="cls-24" cx="883.82" cy="143.46" r="5.49"/>
        <circle class="cls-11" cx="887.33" cy="142.48" r="1.51"/>
        <path class="cls-5" d="M875.74,143.81s6.93-12.43,18.93-1.9"/>
      </g>
      <g>
        <path class="cls-11" d="M844.21,145.61s.1-.49-.19-.97c-.95-1.59-3.25-4.67-7.63-5.51-4.91-.94-8.5,3.15-9.74,4.62-.21,.25-.25,.51-.25,.51,0,0-.07,.27,.06,.49,.61,1.06,2.73,4.1,7.37,5.07,2.76,.57,6.93-.17,10.06-3.46,.22-.23,.29-.56,.32-.74Z"/>
        <circle class="cls-24" cx="833.91" cy="144.53" r="5.15"/>
        <circle class="cls-11" cx="837.46" cy="144.23" r="1.44"/>
        <path class="cls-5" d="M826.53,143.9s7.99-11.34,17.6,.97"/>
      </g>
      <path class="cls-24" d="M968.68,252.53c-6.17,11.46,8.68,45.89,8.68,45.89-22.33-.62-47.76-55.2-47.76-55.2-12.4-36.59-6.3-69.03-6.3-69.03,10.14,6.14,16.29-2.6,16.29-2.6,12.2-27.65,1.7-29.48,1.7-29.48-12.73-1.35-14.62,8.89-14.62,8.89-32.14-18.99-24.67-67.09-24.67-67.09-35,30.97-74.65,17.19-74.65,17.19-5.98,7.15-4.55,27.16-4.55,27.16,1.58,13.52,1.8,17.74,1.8,17.74-4.6,27.21,3.11,43.4,3.11,43.4,11.36,24.55,28.5,31.63,28.5,31.63,1.03,4.58,0,0,0,0,0,0,11.99,38.32,4.54,55.07s-26.67,27.91-26.67,27.91c0,0,11.42-27.21-2.48-57.68-46.27-101.45-.22-170.31-.22-170.31,40.2-53.59,94.64-8.87,94.64-8.87,59.58,18.93,43.27,166.77,43.27,166.77"/>
      <path class="cls-10" d="M936.95,142.13s7.25-43.12-23.76-67.16c-31.01-24.04-61.27-6.1-68.13-.19-17.85,15.4-17.71,26.32-17.71,26.32,0,0,8.29-16.62,26.66-23.23,0,0,35.06-10.9,57.5,12.44,22.44,23.34,15.16,60.68,15.16,60.68,0,0,1.36-6.91,10.29-8.87Z"/>
    </g>
    <g>
      <path class="cls-18" d="M955.91,407.59s-14.13,10.87-14.85,44.92c-.72,34.05,0,42.02,4.71,69.55,4.71,27.53,45.28,31.88,45.28,31.88,0,0,60.85-9.78,69.91-42.38,0,0,13.76,17.02,27.17-5.43,0,0,15.21-24.63,2.9-31.51,0,0-13.4-5.43-21.73,8.69,0,0,9.78-58.32-9.78-68.1,0,0-47.45-49.26-103.6-7.61Z"/>
      <path class="cls-24" d="M1002.41,453.74s23.45-3.35,33.48,3.48c0,0-7.02-10.03-33.66-7.76,0,0-4.86,2.26,.19,4.29Z"/>
      <path class="cls-24" d="M941.53,451.9c.47-.98,12.55-2.17,23.72-1.35,0,0,5.03,2.22-.19,4.29,0,0-20.33-3.62-23.2,1.48,0,0-1.48-2-.33-4.42Z"/>
      <path class="cls-5" d="M971.4,482.93s-10.82,16.08,8.04,17.98"/>
      <path class="cls-5" d="M1089.6,486.76s-5.61-14.89-17.05,9.06c0,0,9.71-10.58,11.44-1.51"/>
      <path class="cls-19" d="M1002.85,512.97s-9.92-3.06-21.74,.29c0,0-10.21-2.04-19.41,0,0,0,1.02,16.49,16.49,20.14,15.47,3.65,24.95-10.8,24.66-20.43Z"/>
      <path class="cls-13" d="M1000.37,514.14s.15,14.59-18.82,14.59c-17.23,0-17.36-12.99-17.36-12.99,0,0,19.41,.88,36.19-1.61Z"/>
      <path class="cls-11" d="M998.02,514.35s-4.7,6.76-19.38,6.05c0,0-9.05,.46-12.85-4.36,0,0,18.92,.41,32.23-1.69Z"/>
      <g>
        <path class="cls-11" d="M1025.58,468.43s.03-.57-.38-1.05c-1.33-1.62-4.44-4.66-9.48-4.85-5.65-.21-8.96,4.98-10.09,6.84-.2,.32-.19,.61-.19,.61,0,0-.03,.31,.15,.54,.86,1.08,3.76,4.11,9.11,4.4,3.18,.17,7.72-1.38,10.65-5.6,.2-.29,.23-.68,.23-.88Z"/>
        <circle class="cls-24" cx="1013.89" cy="469" r="5.85"/>
        <circle class="cls-11" cx="1017.62" cy="467.95" r="1.6"/>
        <path class="cls-5" d="M1005.28,469.37s7.38-13.23,20.14-2.02"/>
      </g>
      <g>
        <path class="cls-11" d="M964.14,469.01s.1-.52-.2-1.02c-1-1.67-3.41-4.9-8.01-5.78-5.15-.99-8.92,3.3-10.22,4.84-.22,.27-.26,.53-.26,.53,0,0-.07,.28,.06,.52,.64,1.11,2.87,4.3,7.73,5.32,2.89,.6,7.27-.18,10.55-3.63,.23-.24,.31-.59,.34-.78Z"/>
        <circle class="cls-24" cx="953.33" cy="467.87" r="5.4"/>
        <circle class="cls-11" cx="957.06" cy="467.55" r="1.51"/>
        <path class="cls-5" d="M945.59,467.21s8.38-11.9,18.47,1.02"/>
      </g>
      <path class="cls-21" d="M949.65,413.87s-5.64-22.08,29-41.4c0,0,35.72-23.64,76.25,4.17,0,0,39.49,7.43,37.94,44.71,0,0-21.5-20.42-38.23,.02,0,0-13.82-23.01-39.65-11.26,0,0-21.61,7.05-35.23,16.44,0,0-13.15-17.38-30.07-12.68Z"/>
      <path class="cls-25" d="M1086.38,400.29s23.2,15.85,8.9,78.61c0,0-13.55-18.28-27.26,13.22l-6.99,11.75s12.64-65.31-12.16-90.6l37.51-12.98Z"/>
    </g>
    <g>
      <line class="cls-3" x1="992.68" y1="240.93" x2="992.68" y2="200.68"/>
      <polygon class="cls-14" points="1007.64 205.06 992.68 179.15 977.72 205.06 1007.64 205.06"/>
    </g>
  </g>
</svg>