<?xml version="1.0" encoding="UTF-8"?>
<svg id="Layer_1" data-name="Layer 1" xmlns="http://www.w3.org/2000/svg" xmlns:xlink="http://www.w3.org/1999/xlink" viewBox="0 0 1726.01 1518.03">
  <defs>
    <style>
      .cls-1, .cls-2, .cls-3, .cls-4, .cls-5, .cls-6, .cls-7, .cls-8, .cls-9, .cls-10, .cls-11, .cls-12, .cls-13 {
        fill: none;
      }

      .cls-2 {
        stroke-width: 1.5px;
      }

      .cls-2, .cls-3, .cls-4, .cls-14, .cls-15, .cls-16, .cls-17, .cls-5, .cls-6, .cls-7, .cls-8, .cls-9, .cls-10, .cls-11, .cls-12, .cls-13 {
        stroke-miterlimit: 10;
      }

      .cls-2, .cls-3, .cls-14, .cls-15, .cls-8 {
        stroke: #754c29;
      }

      .cls-3 {
        stroke-width: .8px;
      }

      .cls-18 {
        fill: #f6ac1b;
      }

      .cls-19 {
        fill: #e96d42;
      }

      .cls-20 {
        fill: #f05380;
      }

      .cls-21 {
        fill: #fff;
      }

      .cls-22 {
        fill: #803435;
      }

      .cls-23 {
        fill: #98b369;
      }

      .cls-24 {
        fill: #8b5e3c;
      }

      .cls-25 {
        fill: #a97c50;
      }

      .cls-26, .cls-14, .cls-17 {
        fill: #be9e7d;
      }

      .cls-27 {
        fill: #be8c8c;
      }

      .cls-28 {
        fill: #d6e69e;
      }

      .cls-29 {
        fill: #bf6b6b;
      }

      .cls-30 {
        fill: #decea5;
      }

      .cls-31 {
        fill: #231f20;
      }

      .cls-32 {
        fill: #1c75bc;
      }

      .cls-33 {
        fill: #07935b;
      }

      .cls-34 {
        fill: #182850;
      }

      .cls-35 {
        fill: #a36548;
      }

      .cls-36, .cls-16 {
        fill: #9c2024;
      }

      .cls-37 {
        fill: #26130f;
      }

      .cls-38 {
        clip-path: url(#clippath-1);
      }

      .cls-39 {
        clip-path: url(#clippath-3);
      }

      .cls-40 {
        clip-path: url(#clippath-2);
      }

      .cls-4 {
        stroke-width: .7px;
      }

      .cls-4, .cls-7, .cls-13 {
        stroke: #6d6e71;
      }

      .cls-15 {
        fill: #ba9777;
      }

      .cls-16, .cls-5, .cls-10 {
        stroke: #231f20;
      }

      .cls-17 {
        stroke: #603913;
      }

      .cls-6 {
        stroke: #006838;
      }

      .cls-9 {
        stroke: #a97c50;
      }

      .cls-10 {
        stroke-width: 1.2px;
      }

      .cls-41 {
        fill: #dea962;
      }

      .cls-41, .cls-42 {
        opacity: .8;
      }

      .cls-42 {
        fill: #edb36e;
      }

      .cls-11 {
        stroke: #fff;
      }

      .cls-11, .cls-12, .cls-13 {
        stroke-width: .5px;
      }

      .cls-12 {
        stroke: #fff200;
      }
    </style>
    <clipPath id="clippath-1">
      <rect class="cls-1" x="166.51" y="791.64" width="1334.47" height="210.21"/>
    </clipPath>
    <clipPath id="clippath-2">
      <rect class="cls-1" x="253.17" y="81.79" width="590.14" height="709.85" transform="translate(1096.48 873.43) rotate(-180)"/>
    </clipPath>
    <clipPath id="clippath-3">
      <path class="cls-1" d="M568.38,253.95s1.21,4.92-26.06,31.76l-5.23,10.98,4.46,16.96,11.71-2.67,12.72-33.49,5.39-21.76-2.98-1.78Z"/>
    </clipPath>
  </defs>
  <g>
    <rect class="cls-41" x="383.14" y="-82.42" width="131.61" height="561.02" transform="translate(647.04 -250.85) rotate(90)"/>
    <rect class="cls-42" x="383.14" y="-214.7" width="131.61" height="561.02" transform="translate(514.75 -383.14) rotate(90)"/>
    <rect class="cls-42" x="383.14" y="49.45" width="131.61" height="561.02" transform="translate(778.91 -118.98) rotate(90)"/>
    <rect class="cls-41" x="1403.38" y="166.53" width="131.61" height="63.13" transform="translate(1667.28 -1271.09) rotate(90)"/>
    <rect class="cls-42" x="1403.38" y="34.24" width="131.61" height="63.13" transform="translate(1534.99 -1403.38) rotate(90)"/>
    <rect class="cls-42" x="1403.38" y="298.4" width="131.61" height="63.13" transform="translate(1799.15 -1139.22) rotate(90)"/>
    <rect class="cls-24" x="729.45" y=".25" width="23.65" height="395.46" transform="translate(1482.56 395.97) rotate(-180)"/>
    <rect class="cls-24" x="1417.43" y=".25" width="23.65" height="395.46" transform="translate(2858.52 395.97) rotate(-180)"/>
    <rect class="cls-24" x="1073.55" y="-320.42" width="23.65" height="664.99" transform="translate(1073.3 1097.46) rotate(-90)"/>
    <rect class="cls-24" x="1073.55" y="50.67" width="23.65" height="664.99" transform="translate(702.22 1468.54) rotate(-90)"/>
    <rect class="cls-42" x="768.69" y="-72.55" width="131.61" height="1332.52" transform="translate(1428.2 -240.78) rotate(90)"/>
    <rect class="cls-41" x="768.69" y="-204.84" width="131.61" height="1332.52" transform="translate(1295.91 -373.07) rotate(90)"/>
    <rect class="cls-41" x="768.69" y="59.32" width="131.61" height="1332.52" transform="translate(1560.07 -108.91) rotate(90)"/>
    <rect class="cls-34" x="750.15" y="20.04" width="667.73" height="351.3" transform="translate(2168.02 391.37) rotate(-180)"/>
    <path class="cls-30" d="M833.2,71.55s-42.34-13.52-50.57,35.28c0,0-1.76,47.63,50.57,39.4,0,0-24.7-11.17-25.87-37.63-1.18-26.46,25.87-37.05,25.87-37.05Z"/>
    <polygon class="cls-30" points="1170.98 102.24 1176.4 113.23 1188.53 115 1179.75 123.55 1181.83 135.64 1170.98 129.93 1160.12 135.64 1162.2 123.55 1153.42 115 1165.55 113.23 1170.98 102.24"/>
    <polygon class="cls-30" points="955.49 228.93 960.92 239.92 973.05 241.68 964.27 250.24 966.34 262.32 955.49 256.62 944.64 262.32 946.71 250.24 937.94 241.68 950.07 239.92 955.49 228.93"/>
    <polygon class="cls-30" points="1347.38 257.8 1352.8 268.8 1364.94 270.56 1356.16 279.12 1358.23 291.2 1347.38 285.49 1336.53 291.2 1338.6 279.12 1329.82 270.56 1341.95 268.8 1347.38 257.8"/>
  </g>
  <g class="cls-38">
    <g>
      <polygon class="cls-25" points="71.14 889.61 78.96 1518.03 110.25 1518.03 165.01 1004.34 1536.58 1004.34 1591.34 1515.42 1625.24 1515.42 1625.24 889.61 71.14 889.61"/>
      <path class="cls-23" d="M1666.18,840.1l59.84,242.53s-53.88,26.94-118.24-7.48c0,0-19.46,29.93-65.86,4.49,0,0-16.46,13.47-88.31-1.5,0,0-50.89-5.99-74.84,2.99,0,0-22.45,17.96-58.37-1.5,0,0-31.43,14.97-59.87,0,0,0-37.42,7.48-82.32-5.99-44.9-13.47-115.25,23.95-115.25,23.95,0,0-11.97-22.45-52.38-16.46,0,0-35.92,20.95-64.36,2.99,0,0-40.41-13.47-131.71-1.5,0,0-20.95,16.46-40.41,0,0,0-246.15,7.09-291.05-12.36,0,0-43.14-13.23-64.71,14.8,0,0-30.19-45.29-79.79-23.72,0,0-32.35,36.66-86.26,6.47,0,0-107.82-47.44-148.8-23.72,0,0-43.13,25.88-103.51-2.16l36.66-202.71,1629.52,.87Z"/>
      <line class="cls-3" x1="1607.77" y1="1075.15" x2="1596.43" y2="897.35"/>
      <line class="cls-3" x1="1541.92" y1="1079.64" x2="1556.19" y2="944.04"/>
      <line class="cls-2" x1="1260.54" y1="1079.64" x2="1276.17" y2="889.76"/>
      <path class="cls-2" d="M1010.59,1081.14s-28-117.36-35.4-193.84"/>
      <path class="cls-2" d="M1062.97,1097.6s26.94-79.55,20.77-188.1"/>
      <path class="cls-2" d="M339.74,1062.12s-28-117.36-35.4-193.84"/>
      <path class="cls-2" d="M418.06,1087.22s26.94-79.55,20.77-188.1"/>
      <line class="cls-2" x1="814.52" y1="1082.63" x2="803.73" y2="937.87"/>
      <line class="cls-2" x1="774.56" y1="1081.15" x2="776.09" y2="903.03"/>
      <line class="cls-2" x1="1320.41" y1="1079.64" x2="1314.55" y2="970.54"/>
      <line class="cls-2" x1="1378.78" y1="1081.14" x2="1371.82" y2="935.44"/>
      <line class="cls-3" x1="103.51" y1="1044.1" x2="116.47" y2="891.92"/>
      <polygon class="cls-28" points="36.66 839.23 1666.18 840.1 1527.33 791.64 163.15 791.64 36.66 839.23"/>
    </g>
  </g>
  <polygon class="cls-21" points="999.12 826.75 1228.14 838.27 1256.93 810.12 1030.46 796.04 999.12 826.75"/>
  <g>
    <rect class="cls-32" x="678.26" y="801.45" width="174.58" height="21.21" transform="translate(1531.09 1624.11) rotate(-180)"/>
    <polygon class="cls-32" points="928.58 782.14 852.84 801.45 678.26 801.45 760.43 780.62 928.58 782.14"/>
    <polygon class="cls-32" points="924.05 796.43 852.88 818.59 852.84 822.66 924.05 799.63 924.05 796.43"/>
    <polygon class="cls-21" points="924.05 783.56 852.84 801.45 852.84 819.82 924.05 796.79 924.05 783.56"/>
    <line class="cls-16" x1="852.84" y1="801.45" x2="678.26" y2="801.45"/>
    <polygon class="cls-16" points="832.59 784.81 790.33 784.81 754.99 795.89 799.68 795.89 832.59 784.81"/>
  </g>
  <g>
    <rect class="cls-36" x="670.05" y="780.18" width="174.58" height="21.21" transform="translate(1514.68 1581.56) rotate(-180)"/>
    <polygon class="cls-36" points="920.37 760.86 844.63 780.18 670.05 780.18 752.23 759.35 920.37 760.86"/>
    <polygon class="cls-36" points="915.85 775.16 844.68 797.32 844.63 801.38 915.85 778.36 915.85 775.16"/>
    <polygon class="cls-21" points="915.85 762.29 844.63 780.18 844.63 798.54 915.85 775.52 915.85 762.29"/>
    <line class="cls-16" x1="844.63" y1="780.18" x2="670.05" y2="780.18"/>
    <polygon class="cls-16" points="824.39 763.53 782.12 763.53 746.78 774.62 791.47 774.62 824.39 763.53"/>
  </g>
  <g>
    <path class="cls-26" d="M1299.83,493.84s-10.33,53.07,19.69,61.29c0,0-6.5,77.71-78.29,79.96,0,0-59.09-10.34-26.62-79.7l9.87-4.1c.29-13.24-1.85-15.62-1.85-15.62l77.2-41.83"/>
    <path class="cls-26" d="M1188.86,406.72s-5.45,13.33-1.51,43.31c0,0,1.21,11.21-1.21,17.87,0,0-1.21,24.84,8.78,42.71,10,17.87,28.17,27.87,28.17,27.87,0,0,17.57,5.15,31.2-1.51,13.63-6.66,33.32-10.6,46.04-45.43,0,0,10.6,8.48,16.96-8.48,6.36-16.96,14.54-23.02,6.97-36.95-7.57-13.93-21.81,15.14-21.81,15.14,0,0,11.21-27.56,1.51-54.22-9.69-26.65-45.13-43.62-45.13-43.62,0,0-50.28-12.42-69.97,43.31Z"/>
    <path class="cls-37" d="M1241.5,436.63s18.97-4.3,35.51,1.48c0,0-8.05-10.42-35.96-6.02,0,0-4.64,2.83,.45,4.55Z"/>
    <path class="cls-37" d="M1183.63,436.64c13.62-1.25,23.08,1.25,23.08,1.25,5.15-1.51,.64-4.52,.64-4.52-8.64-1.72-18.5-1.36-23.72-.82,0,0-.74,4.16,0,4.09Z"/>
    <path class="cls-5" d="M1217.67,469.25s-11.65,9.35,.51,15.29"/>
    <path class="cls-37" d="M1223.85,538.61s20.05,4.8,35.47-4.06c0,0,9.05-2.31,23.65-13.86,0,0-7.22,14.64-36.31,21.43,0,0-10.87,1.5-23.58,1.47,0,0,.57-2.94,.77-4.98Z"/>
    <path class="cls-5" d="M1321.86,463.37s-5.02-7.61-10.65,.15c-5.63,7.76-5.93,10.35-5.93,10.35,0,0,8.06-12.32,11.26-2.43"/>
    <g>
      <path class="cls-21" d="M1264.96,449.53s.02-.53-.35-.99c-1.25-1.51-4.16-4.37-8.89-4.54-5.3-.2-8.4,4.67-9.46,6.41-.18,.3-.18,.57-.18,.57,0,0-.03,.29,.14,.51,.81,1.01,3.53,3.86,8.54,4.12,2.98,.16,7.23-1.29,9.98-5.25,.19-.28,.22-.63,.22-.83Z"/>
      <circle class="cls-37" cx="1254" cy="450.06" r="5.48"/>
      <circle class="cls-21" cx="1257.95" cy="451.91" r="1.5"/>
      <path class="cls-5" d="M1245.93,450.41s6.92-12.4,18.88-1.9"/>
    </g>
    <g>
      <path class="cls-21" d="M1208.24,452.36s.1-.5-.19-.98c-.96-1.61-3.28-4.71-7.71-5.57-4.96-.95-8.59,3.18-9.84,4.66-.22,.26-.25,.51-.25,.51,0,0-.07,.27,.06,.5,.62,1.07,2.76,4.14,7.45,5.12,2.79,.58,7-.17,10.16-3.5,.22-.23,.3-.57,.32-.75Z"/>
      <circle class="cls-37" cx="1197.84" cy="451.26" r="5.2"/>
      <circle class="cls-21" cx="1201.26" cy="453.21" r="1.46"/>
      <path class="cls-5" d="M1190.38,450.63s8.07-11.46,17.79,.98"/>
    </g>
    <path class="cls-26" d="M1193.42,735.02c-21.13,30.26-46.05,33.13-46.05,33.13,0,0,59.07,.48,0,0-59.07-.48-123.98-73.9-123.98-73.9l-7.28-5.19-21.33,.76-41.39-20.3-14.33-21.88c-10.03-10.53-1.66-11.36-1.66-11.36,8.52,1.11,3.87,7.07,14.02,6.81s16.84,14.29,16.84,14.29c0,0-1.81-7.64,3.04-9.86,4.85-2.23,13.23,8.16,13.23,8.16l4.66-7.56c-5.82-1.85-16.69-15.94-16.69-15.94-3.5-14.76,7.08-8.67,7.08-8.67l18.46,16.59c24.75,.04,38.13,26.99,38.13,26.99,1.05,.31,2.12,.63,3.22,.98,0,0,65.92,16.18,105.12,39.01,0,0,10.82-35.39,13.22-42.59,0,0,13.56,27.97,32.77,32.77s-1.36,9.89-1.36,9.89c0,0-2.46,18.26,4.26,27.87"/>
    <path class="cls-17" d="M995.06,645.81s-3.53,.87-5.87,2.32"/>
    <path class="cls-14" d="M1001.12,677.93s-6.06-6.89-12.31-8.01c0,0-.44-9.59-4.28-14.24-3.84-4.65-6.5-9.5-13.23-8.16-6.73,1.35-3.04,9.86-3.04,9.86l9.79,18.72"/>
    <path class="cls-14" d="M968.27,657.4s-6.7-15.18-16.84-14.29c-10.13,.89,.3,11.94,.3,11.94l4.72,11.11"/>
    <path class="cls-17" d="M1036.18,667.1s-2.53,6.5-9.94,10.34"/>
    <path class="cls-7" d="M1186.77,652.61s-1.79,22.52,2.39,54.55"/>
    <path class="cls-13" d="M1339.95,751.45s17.93-3.59,26.69,13.15"/>
    <path class="cls-37" d="M1353.51,571.81l-47.3-21.47c-18.06-21.85-7.89-62.91-7.89-62.91,11.2,6.79,18-2.88,18-2.88,13.49-30.55,1.87-32.57,1.87-32.57-14.07-1.49-16.16,9.82-16.16,9.82-35.51-20.99-27.25-74.13-27.25-74.13-38.68,34.22-82.48,18.99-82.48,18.99-6.6,7.9-5.03,30.01-5.03,30.01,1.74,14.94,1.99,19.6,1.99,19.6-5.08,30.06,3.44,47.96,3.44,47.96,12.55,27.13,31.5,34.95,31.5,34.95,1.14,5.06,.29,12.11,.29,12.11-4.99,4.61-19.1,9.35-19.1,9.35-8.45,3.67-17.01,6.58-17.01,6.58-34.76-118.2,8.38-188.27,8.38-188.27,44.42-59.21,104.57-9.8,104.57-9.8,65.84,20.92,52.18,202.66,52.18,202.66"/>
    <path class="cls-19" d="M1313.4,451.99s8.01-47.65-26.26-74.21c-34.27-26.56-67.71-6.74-75.28-.21-19.72,17.01-19.57,29.08-19.57,29.08,0,0,9.16-18.36,29.45-25.67,0,0,38.74-12.04,63.53,13.75,24.8,25.79,16.75,67.05,16.75,67.05,0,0,1.51-7.64,11.37-9.8Z"/>
    <path class="cls-7" d="M1329.88,698.51s-9.13-77.81,3.84-89.81"/>
    <path class="cls-14" d="M1339.48,755.18s18.35-.96,32.64,13.34"/>
    <path class="cls-4" d="M1338.75,751.22s17.55-3.51,26.14,12.87"/>
    <g>
      <path class="cls-27" d="M1209.49,506.29s6.99-8.8,16.56-6.05c0,0,7.15-4.97,21.32,7.89,0,0-5.53,8.4-20.49,7.56-14.96-.84-17.39-9.4-17.39-9.4Z"/>
      <path class="cls-22" d="M1210.89,506.61s14.37-8.87,34.52,1.8c0,0-11.23,.76-16.22,2.34-5,1.58-8.43-1.32-8.43-1.32,0,0-4.87-2.6-9.87-2.82Z"/>
      <path class="cls-21" d="M1217.56,504.16s8.61-2.63,18.06,.61l-18.06-.61Z"/>
    </g>
    <path class="cls-18" d="M1173.18,789.77c-.85-19.79-2.45-44.45-5.48-68.06,0,0-.75-12.71-.21-36.71l-29.03-30.04,14.23-46.02s5.37-32.87,41.38-46.43c0,0,15.75-3.3,25.42-8.52,0,0-6.96,15.02-3.2,29.11,0,0,13.91,42.7,32.89,45.53,0,0,55.6-46.29,55.06-80.73,0,0,15.9-.42,38.31,17.15,50.91,39.92,73.37,98.99,73.37,98.99,0,0-28.34,37.2-67.15,41.6l22.43,85.96"/>
    <path class="cls-18" d="M1305.55,550.49l-56.37,78.14,36.02,37.27,78.91-84.55s-12.78-15.47-33.21-20.01c-20.43-4.54-25.35-10.85-25.35-10.85Z"/>
    <path class="cls-18" d="M1217.89,557.82l31.29,70.81-34.34,31.09-37.96-87.62s18.29-14.9,41-14.28Z"/>
    <path class="cls-24" d="M1285.2,665.9l78.91-84.55s-5.85-6.58-13.71-11.44l-75.85,84.92,10.65,11.07Z"/>
    <path class="cls-9" d="M1319.66,555.95s-52.4,66.54-59.1,85.85"/>
    <polygon class="cls-24" points="1214.84 659.72 1223.13 652.07 1187.67 565.4 1176.89 572.1 1214.84 659.72"/>
    <line class="cls-9" x1="1233.77" y1="640.98" x2="1201.06" y2="560.06"/>
    <polygon class="cls-21" points="1356.8 587.79 1355.01 575.96 1343.66 577.82 1345.45 589.65 1356.8 587.79"/>
    <polygon class="cls-21" points="1344.67 601.57 1342.88 589.74 1331.53 591.61 1333.32 603.43 1344.67 601.57"/>
    <polygon class="cls-21" points="1331.31 615.64 1329.52 603.81 1318.17 605.68 1319.96 617.5 1331.31 615.64"/>
    <polygon class="cls-21" points="1318.36 630.28 1316.57 618.45 1305.22 620.31 1307.01 632.14 1318.36 630.28"/>
    <polygon class="cls-21" points="1305.41 644.63 1303.62 632.8 1292.27 634.67 1294.06 646.49 1305.41 644.63"/>
    <polygon class="cls-21" points="1293.94 657.79 1292.15 645.96 1280.81 647.83 1282.59 659.66 1293.94 657.79"/>
    <polygon class="cls-21" points="1180.97 581.6 1189.12 584.47 1191.88 575.98 1183.73 573.1 1180.97 581.6"/>
    <polygon class="cls-21" points="1186.5 594.52 1194.65 597.4 1197.41 588.9 1189.26 586.02 1186.5 594.52"/>
    <polygon class="cls-21" points="1192.75 609.04 1200.9 611.92 1203.66 603.42 1195.51 600.55 1192.75 609.04"/>
    <polygon class="cls-21" points="1198.69 622.93 1206.34 625.63 1208.94 617.65 1201.28 614.95 1198.69 622.93"/>
    <polygon class="cls-21" points="1204.25 636.75 1211.9 639.45 1214.5 631.47 1206.84 628.77 1204.25 636.75"/>
    <polygon class="cls-21" points="1210.09 650.31 1217.74 653.01 1220.33 645.03 1212.68 642.33 1210.09 650.31"/>
    <path class="cls-9" d="M1329.88,698.51s-5.63-24.72-5.63-43.76"/>
    <path class="cls-9" d="M1166.45,686.82s.62-18.64,3.27-24.84"/>
    <path class="cls-35" d="M1246.46,758.48l-83.82,65.05-10.32,4.69,5.32-9.38,83.82-65.05s5.94-3.13,5,4.69Z"/>
    <path class="cls-26" d="M1239.11,822.27c-5.87,8.58-17.12,11.7-17.12,11.7,0,0-39.37,1.6-43.45,.18s-2.66-9.04-2.66-9.04l-4.61-.35c-8.16-7.98-1.6-12.77-1.6-12.77l8.33-2.13-10.11-.18c-9.75-4.61-2.66-13.3-2.66-13.3-6.74-5.32,.18-11.7,.18-11.7l32.67-5.55,39.25,10.83,97.98-33.18s-7.72-37.49-5.44-58.27c0,0,49.61,9.62,71.56-21.61,0,0,21.34,96.53-4.32,123.43-25.66,26.91-152.58,16.52-152.58,16.52l-5.42,5.42Z"/>
    <line class="cls-3" x1="1165.25" y1="796.38" x2="1179.37" y2="794.78"/>
    <line class="cls-3" x1="1175.89" y1="825.11" x2="1185.08" y2="823.33"/>
    <line class="cls-3" x1="1178.02" y1="809.86" x2="1181.27" y2="809.73"/>
  </g>
  <g class="cls-40">
    <g>
      <path class="cls-26" d="M614.69,430.32s-14.47,115.47-12.7,167.75l-3.71,132.18s-5.05,24.35,1.91,37.98c0,0,9.67,29.43-3.33,45.65,0,0-10.9,36.62-47.9,51.6,0,0-10.86-7.29,5.34-22.01,0,0,19.1-18.79,8.74-41.32,0,0-8.09-7.2-8.07,6.67,.01,13.87-2.09,35.98-13.1,33.32-11.01-2.67-5.65-25.14-5.65-25.14,0,0,1.11-19.84-.27-34.21,0,0,1.75-25.37,16.05-38.77l3.74-186.15-8.98-65s51.23-22.92,67.95-62.54Z"/>
      <path class="cls-26" d="M447.82,227.68s-4.82,39.98-20.53,60.9c0,0-33.9,106.69,53.92,129.17,0,0,69.89-3.06,48.95-97.41,0,0-14.53-9.76-11.44-25.23,3.27-16.38,2.04,.75,2.04,.75l-72.94-68.18"/>
      <path class="cls-33" d="M552.51,1095.62s14.57-63.85,14.57-92.11c0,0,20.18-197.67,4.04-325.82,0,0-125.7,71.01-279.12-20.22,0,0-34.6,101.33,13.68,238.11l20.67,106.68s.24,39.68-10.06,93.31"/>
      <path class="cls-26" d="M450.81,194.76s21.17-81.76,96.18-71.75c0,0,62.3,14.31,31.89,88.55,0,0-4.16,7.74-3.52,14.49,0,0,5.41,11.31-8.99,33.43-14.4,22.12-32.18,33-32.18,33,0,0-10.93,7.94-29.34,4.2,0,0-14.91-1.35-29.06-15.44,0,0-35.36-29.63-27.97-53.58,0,0-20.76,8.17-22.63-22.45,0,0,1.56-41.48,25.62-10.47Z"/>
      <path class="cls-29" d="M501.07,249.37s19.5-2.11,26.28,5.86c0,0,6.14-4.04,19.89,4.78,0,0-7.57,20.78-25.45,17.02-25.52-5.36-20.72-27.67-20.72-27.67Z"/>
      <path class="cls-33" d="M407.99,298.09s-28.55,2.3-61.67,12.9c-33.12,10.6-61.67,84.1-61.67,84.1,0,0,1.56,47.8,58.41,70.69l-51.05,191.69s105.93,62.27,209.27,53.65c0,0,39-2.06,72.12-31.21,0,0-14.48-81.62-15.14-145.22,0,0,25.79-25.79,24.11-63.36l35.32-26.35-11.21-61.73s-6.62-41.73-51.01-58.95c0,0-16.56-3.31-28.48-9.94,0,0,7.95,45.71,3.31,63.59,0,0-30.47,33.78-90.09-1.32,0,0-32.88-34.83-32.22-78.55Z"/>
      <path class="cls-22" d="M504.04,252.48s-.66,14.69,16.94,18.79c17.59,4.1,22.61-9.8,22.61-9.8,0,0-28.15-9.24-39.55-8.99Z"/>
      <path class="cls-37" d="M524.47,182.91s-24.09-11.91-37.05-5.45c0,0,10.76-11.89,38.63-.49,0,0,4.49,4.66-1.58,5.94Z"/>
      <path class="cls-37" d="M585.41,192.49c-.2-1.45-12.73-5.07-24.9-5.72,0,0-6.05,2.3-1.11,6.05,0,0,22.8-1.81,24.31,5.81,0,0,2.19-2.57,1.7-6.14Z"/>
      <path class="cls-5" d="M544.58,225.02s6.9,17.64-11.49,15.44"/>
      <path class="cls-21" d="M508.53,252.74s3.18,5.2,16.66,8.51c12.42,3.04,16.95-.3,16.95-.3,0,0-17.84-6.44-33.61-8.2Z"/>
      <path class="cls-5" d="M429.95,200.35s8.4-12.83,14.14,12.1c0,0-6.92-11.98-10.44-3.82"/>
      <path class="cls-37" d="M518.48,297.39s-14.28,3.36-35.13-9.38c0,0-10.22-6.76-21.77-21.21,0,0,13.05,23.6,38.7,31.31,0,0,8.01,2.66,17.95,1.88,0,0-.76-.16,.25-2.61Z"/>
      <g>
        <path class="cls-21" d="M494.87,193.12s.1-.55,.59-.93c1.62-1.26,5.24-3.51,10.11-2.61,5.45,1,7.52,6.68,8.2,8.7,.12,.35,.05,.62,.05,.62,0,0-.04,.31-.26,.49-1.06,.85-4.48,3.14-9.66,2.26-3.08-.52-7.1-2.97-9-7.63-.13-.32-.08-.7-.03-.89Z"/>
        <circle class="cls-37" cx="505.95" cy="196.15" r="5.73"/>
        <circle class="cls-21" cx="502.6" cy="194.35" r="1.57"/>
        <path class="cls-10" d="M514.11,198.34s-4.24-14.24-18.85-6.24"/>
      </g>
      <g>
        <path class="cls-21" d="M557.58,209.45s.01-.52,.41-.95c1.33-1.41,4.37-4.02,9.03-3.88,5.22,.15,7.94,5.14,8.87,6.92,.16,.31,.14,.57,.14,.57,0,0,0,.29-.17,.49-.86,.94-3.72,3.56-8.66,3.49-2.94-.04-7.02-1.75-9.46-5.81-.17-.28-.17-.64-.16-.83Z"/>
        <circle class="cls-37" cx="568.32" cy="210.68" r="5.38"/>
        <circle class="cls-21" cx="564.77" cy="209.56" r="1.51"/>
        <path class="cls-10" d="M575.98,211.72s-5.56-13.37-18.15-3.01"/>
      </g>
      <path class="cls-6" d="M343.05,465.77s64.35-84.81,16.94-140.39"/>
      <path class="cls-6" d="M582.36,471.34s-1.83-22.37-5.43-35.75c-2.32-8.62-.52-29.95-.52-29.95"/>
      <path class="cls-20" d="M289.8,682.96s142.94,74.61,284.53,.48l-3.53-23.01s-95.1,61.43-280.25-3.61l-.74,26.13Z"/>
      <path class="cls-20" d="M281.59,400.41s11.21,47.65,67.4,76.44l3.52-27.38s-32.9-4.83-61.87-66.5l-9.05,17.44Z"/>
      <polygon class="cls-20" points="582.36 471.34 580.42 452.85 614.52 429.82 617.68 444.38 582.36 471.34"/>
      <path class="cls-20" d="M384.23,393.75s77.68,55.15,177.45,8.69l4.15,17.71s-103.03,53.07-186.94-11.36l5.34-15.04Z"/>
      <polyline class="cls-11" points="291.15 675.68 307.09 669.54 312 686.42 330.39 677.21 336.52 694.61 353.07 682.84 360.43 702.79 376.37 686.42 386.79 704.84 399.66 690.51 412.53 708.42 424.18 692.05 435.22 709.45 446.86 694.1 459.74 708.94 469.55 693.07 486.71 706.38 496.52 689.49 510.62 701.77 517.98 684.89 534.53 694.61 540.05 679.26 554.15 684.37 559.05 672.61 569.47 678.23"/>
      <polyline class="cls-11" points="291.24 662.5 299.8 683.39 318.25 672.4 324.17 692.19 341.3 679 347.23 698.24 364.35 684.49 374.23 704.84 388.06 688.89 399.26 707.58 412.43 691.64 423.63 708.13 436.8 693.29 446.68 709.78 457.22 693.29 472.37 707.58 482.25 690.54 497.4 703.74 505.96 687.24 521.77 698.79 529.01 681.75 545.48 692.19 550.09 675.15 561.95 683.39 567.22 667.45"/>
      <polyline class="cls-11" points="414.14 415.56 420.54 426.92 431.14 418.64 435.69 429.82 446.15 423 454.77 435.54 463.24 425.11 470.71 435.1 477.69 425.5 487.1 434.7 495.06 424.71 504.89 434.43 512.47 423.43 521.6 430.64 528.26 419.55 539.85 425.53 545.58 414.35 556.65 420.78 560.07 409.38"/>
      <polyline class="cls-11" points="411.55 423.14 422.57 415.39 427.81 429.08 438.55 419.35 444.21 433.56 454.49 423.79 463.16 435.85 471.67 424.93 478.16 435.32 486.26 423.87 494.98 435.45 503.16 423.03 512.06 432.67 520.25 420.26 528.73 429.37 536.04 416.38 547.9 424.34 552.57 409.64 562.46 421.3"/>
      <polyline class="cls-11" points="289.02 388.13 286.52 404.11 294.29 401.69 292.07 415.56 300.96 411.34 299.57 427.01 308.18 422.19 306.79 438.16 316.51 431.23 315.12 447.2 324.01 438.76 324.56 455.94 330.67 451.12"/>
      <polyline class="cls-11" points="283.46 398.68 292.9 395.06 288.74 410.13 298.46 405.91 294.85 419.78 304.85 416.46 302.35 431.53 312.62 426.71 309.85 443.89 321.51 434.85 319.84 452.03 328.73 444.49"/>
      <polyline class="cls-11" points="612.18 434.25 607.26 449.17 596.42 444.32 594.28 459.7 582.34 455.45 586.03 465.31 589.88 449.89 601.12 454.43 604.46 439.87 614.63 443.38"/>
      <path class="cls-26" d="M351.95,475.83l-12.71,46.09,124.94,23.04,12.67,.9s18.75-28.36,44.46-17.89c0,0,19.39,6.9,28.22,3.74,8.83-3.17,19.76,5.55,19.76,5.55,0,0,3.6,6.99-3.78,8.34-7.37,1.34-34.35,.82-34.35,.82l68.56,44.55s10.29,2.53,6.11,10.65c-4.18,8.13-9.15,4.23-9.15,4.23,0,0-5.82,8.31-15.97,2.06,0,0-11.74,7.83-20.67,2.21,0,0-4.54,3.83-16.34-1.22-11.79-5.04-55.72-23.55-55.72-23.55l-11.4-.52s-171.01,29.24-204.69-4.43c0,0-18.6-18.66-15.04-47.9,5.34-43.92,30.57-115.44,30.57-115.44,0,0,27.72,46.86,64.52,58.77Z"/>
      <line class="cls-15" x1="596.68" y1="605.85" x2="552.73" y2="582.21"/>
      <path class="cls-8" d="M548.78,591.6l31.93,16.31s8.66,3.72,15.97-2.06"/>
      <line class="cls-15" x1="560.05" y1="610.12" x2="535.33" y2="597.59"/>
      <path class="cls-31" d="M565.92,329.11c9.16-28.25,13.99-67.17,13.99-67.17,32.58-88.97,13.31-125.41,13.31-125.41-48.2-68.69-109.61-38.82-109.61-38.82-15.35,1.25-53.91,14.01-65.75,59.69-11.85,45.67-20.21,58.14-32.13,89.26,0,0-45.16,89.95-45.71,202.53-.08,17.13-18.08,51.81-18.08,51.81,0,0,59.67,24.09,115.49-137.15,16.76-48.41,10.39-136.18,10.39-136.18-16.51,2.96-19.75-8.23-19.75-8.23,0,0-5.52-15.26,1.44-29.66,7.07-14.62,21.3,4.97,21.3,4.97,23.54-56.43,54.88-67.9,54.88-67.9,52.3,39.57,78.58,39.22,78.58,39.22,0,0,2.82,13.76,.99,24.35-1.83,10.59-5.93,19.23-5.93,19.23-4.5,6.38-3.7,14.63-3.7,14.63,2.98,16.38-8.4,31.96-8.4,31.96-26.62,40.58-48.22,40.06-48.22,40.06-3.2,14.56,8.28,20.93,8.28,20.93"/>
      <g>
        <ellipse class="cls-12" cx="435.9" cy="235.13" rx="12.47" ry="11.93" transform="translate(107.63 605.98) rotate(-76.83)"/>
        <line class="cls-12" x1="433.06" y1="247.27" x2="423.86" y2="286.55"/>
        <line class="cls-12" x1="425.22" y1="241.05" x2="420.31" y2="262.04"/>
        <line class="cls-12" x1="427.63" y1="244.32" x2="421.24" y2="271.6"/>
        <line class="cls-12" x1="430.23" y1="246.14" x2="422.48" y2="279.27"/>
        <line class="cls-12" x1="439.26" y1="247.05" x2="432.88" y2="274.32"/>
        <line class="cls-12" x1="436.12" y1="247.52" x2="428.37" y2="280.65"/>
        <line class="cls-12" x1="442.96" y1="245.2" x2="438.04" y2="266.19"/>
      </g>
      <g class="cls-39">
        <g>
          <ellipse class="cls-12" cx="557.19" cy="257.8" rx="12.47" ry="11.93" transform="translate(179.21 741.58) rotate(-76.83)"/>
          <line class="cls-12" x1="554.34" y1="269.94" x2="545.15" y2="309.22"/>
          <line class="cls-12" x1="545.81" y1="280.27" x2="542.53" y2="294.27"/>
          <line class="cls-12" x1="551.52" y1="268.81" x2="543.76" y2="301.94"/>
          <line class="cls-12" x1="560.55" y1="269.72" x2="554.17" y2="296.99"/>
          <line class="cls-12" x1="557.41" y1="270.19" x2="549.66" y2="303.32"/>
          <line class="cls-12" x1="564.25" y1="267.87" x2="559.33" y2="288.86"/>
        </g>
      </g>
    </g>
  </g>
</svg>