<?xml version="1.0" encoding="UTF-8"?>
<svg id="Layer_1" data-name="Layer 1" xmlns="http://www.w3.org/2000/svg" xmlns:xlink="http://www.w3.org/1999/xlink" viewBox="0 0 2031.74 1548.6">
  <defs>
    <style>
      .cls-1, .cls-2, .cls-3, .cls-4, .cls-5, .cls-6, .cls-7, .cls-8, .cls-9, .cls-10, .cls-11, .cls-12, .cls-13 {
        fill: none;
      }

      .cls-2 {
        stroke-width: 1.5px;
      }

      .cls-2, .cls-3, .cls-4, .cls-14, .cls-15, .cls-5, .cls-6, .cls-7, .cls-8, .cls-9, .cls-10, .cls-11, .cls-12, .cls-13 {
        stroke-miterlimit: 10;
      }

      .cls-2, .cls-3, .cls-14 {
        stroke: #754c29;
      }

      .cls-16 {
        clip-path: url(#clippath);
      }

      .cls-3 {
        stroke-width: .8px;
      }

      .cls-17 {
        fill: #f6ac1b;
      }

      .cls-18 {
        fill: #e96d42;
      }

      .cls-19 {
        fill: #f05380;
      }

      .cls-20 {
        fill: #fff;
      }

      .cls-21 {
        fill: #f1f2f2;
      }

      .cls-22 {
        fill: #803435;
      }

      .cls-23 {
        fill: #98b369;
      }

      .cls-24 {
        fill: #8b5e3c;
      }

      .cls-25 {
        fill: #a97c50;
      }

      .cls-26, .cls-14 {
        fill: #be9e7d;
      }

      .cls-27 {
        fill: #be8c8c;
      }

      .cls-28 {
        fill: #d6e69e;
      }

      .cls-29 {
        fill: #bf6b6b;
      }

      .cls-30 {
        fill: #decea5;
      }

      .cls-31, .cls-15 {
        fill: #1d8943;
      }

      .cls-32 {
        fill: #231f20;
      }

      .cls-33 {
        fill: #07935b;
      }

      .cls-34 {
        fill: #182850;
      }

      .cls-35 {
        fill: #973b2a;
      }

      .cls-36 {
        fill: #26130f;
      }

      .cls-37 {
        clip-path: url(#clippath-3);
      }

      .cls-38 {
        clip-path: url(#clippath-2);
      }

      .cls-4 {
        stroke-width: .7px;
      }

      .cls-4, .cls-8, .cls-13 {
        stroke: #6d6e71;
      }

      .cls-15, .cls-5, .cls-10 {
        stroke: #231f20;
      }

      .cls-6 {
        stroke: #006838;
      }

      .cls-7 {
        stroke: #603913;
      }

      .cls-9 {
        stroke: #a97c50;
      }

      .cls-10 {
        stroke-width: 1.2px;
      }

      .cls-39 {
        fill: #dea962;
      }

      .cls-39, .cls-40 {
        opacity: .8;
      }

      .cls-40 {
        fill: #edb36e;
      }

      .cls-11 {
        stroke: #fff;
      }

      .cls-11, .cls-12, .cls-13 {
        stroke-width: .5px;
      }

      .cls-12 {
        stroke: #fff200;
      }
    </style>
    <clipPath id="clippath">
      <rect class="cls-1" x="25.93" y="24.77" width="1333.59" height="1000.12"/>
    </clipPath>
    <clipPath id="clippath-2">
      <rect class="cls-1" x="88.43" y="83.46" width="602.25" height="941.49" transform="translate(779.12 1108.42) rotate(-180)"/>
    </clipPath>
    <clipPath id="clippath-3">
      <path class="cls-1" d="M490.96,274.84s.25,5.17-32.31,26.72l-7.39,9.98,1.15,17.86,12.25-.38,19.29-31.06,9.66-20.74-2.64-2.37Z"/>
    </clipPath>
  </defs>
  <g class="cls-16">
    <g>
      <rect class="cls-39" x="221.07" y="-84.11" width="134.31" height="572.53" transform="translate(490.38 -86.06) rotate(90)"/>
      <rect class="cls-40" x="221.07" y="-219.11" width="134.31" height="572.53" transform="translate(355.38 -221.07) rotate(90)"/>
      <rect class="cls-40" x="221.07" y="50.47" width="134.31" height="572.53" transform="translate(624.96 48.51) rotate(90)"/>
      <rect class="cls-39" x="1262.24" y="169.95" width="134.31" height="64.43" transform="translate(1531.56 -1127.24) rotate(90)"/>
      <rect class="cls-40" x="1262.24" y="34.94" width="134.31" height="64.43" transform="translate(1396.56 -1262.24) rotate(90)"/>
      <rect class="cls-40" x="1262.24" y="304.52" width="134.31" height="64.43" transform="translate(1666.14 -992.67) rotate(90)"/>
      <rect class="cls-24" x="574.49" y=".26" width="24.14" height="403.58" transform="translate(1173.12 404.09) rotate(-180)"/>
      <rect class="cls-24" x="1276.58" y=".26" width="24.14" height="403.58" transform="translate(2577.31 404.09) rotate(-180)"/>
      <rect class="cls-24" x="925.65" y="-326.99" width="24.14" height="678.64" transform="translate(925.39 950.04) rotate(-90)"/>
      <rect class="cls-24" x="925.65" y="51.71" width="24.14" height="678.64" transform="translate(546.7 1328.74) rotate(-90)"/>
      <rect class="cls-40" x="614.53" y="-74.04" width="134.31" height="1359.86" transform="translate(1287.58 -75.79) rotate(90)"/>
      <rect class="cls-39" x="614.53" y="-209.04" width="134.31" height="1359.86" transform="translate(1152.57 -210.8) rotate(90)"/>
      <rect class="cls-39" x="614.53" y="60.54" width="134.31" height="1359.86" transform="translate(1422.15 58.78) rotate(90)"/>
      <rect class="cls-40" x="614.53" y="194.08" width="134.31" height="1359.86" transform="translate(1555.7 192.33) rotate(90)"/>
      <rect class="cls-39" x="614.53" y="328.66" width="134.31" height="1359.86" transform="translate(1690.27 326.9) rotate(90)"/>
      <rect class="cls-34" x="595.61" y="20.45" width="681.43" height="358.51" transform="translate(1872.65 399.4) rotate(-180)"/>
      <path class="cls-30" d="M680.36,73.01s-43.21-13.8-51.61,36c0,0-1.8,48.61,51.61,40.21,0,0-25.2-11.4-26.4-38.41-1.2-27,26.4-37.81,26.4-37.81Z"/>
      <polygon class="cls-30" points="1025.07 104.34 1030.61 115.56 1042.99 117.36 1034.03 126.09 1036.14 138.42 1025.07 132.6 1014 138.42 1016.11 126.09 1007.15 117.36 1019.53 115.56 1025.07 104.34"/>
      <polygon class="cls-30" points="805.17 233.62 810.7 244.84 823.09 246.64 814.13 255.37 816.24 267.7 805.17 261.88 794.09 267.7 796.21 255.37 787.25 246.64 799.63 244.84 805.17 233.62"/>
      <polygon class="cls-30" points="1205.09 263.09 1210.63 274.31 1223.01 276.11 1214.05 284.84 1216.17 297.17 1205.09 291.35 1194.02 297.17 1196.13 284.84 1187.18 276.11 1199.56 274.31 1205.09 263.09"/>
    </g>
    <g>
      <polygon class="cls-25" points="342.91 907.28 350.89 1548.6 382.83 1548.6 438.71 1024.37 1838.42 1024.37 1894.3 1545.93 1928.9 1545.93 1928.9 907.28 342.91 907.28"/>
      <path class="cls-23" d="M1970.68,856.75l61.07,247.51s-54.99,27.49-120.67-7.64c0,0-19.86,30.55-67.21,4.58,0,0-16.8,13.75-90.12-1.53,0,0-51.93-6.11-76.37,3.05,0,0-22.91,18.33-59.57-1.53,0,0-32.08,15.27-61.1,0,0,0-38.19,7.64-84.01-6.11-45.82-13.75-117.61,24.44-117.61,24.44,0,0-12.22-22.91-53.46-16.8,0,0-36.66,21.38-65.68,3.05,0,0-41.24-13.75-134.41-1.53,0,0-21.38,16.8-41.24,0,0,0-251.2,7.24-297.02-12.62,0,0-44.03-13.51-66.04,15.1,0,0-30.81-46.21-81.43-24.21,0,0-33.01,37.41-88.03,6.6,0,0-110.04-48.42-151.85-24.21,0,0-44.01,26.41-105.63-2.2l37.41-206.87,1662.95,.88Z"/>
      <line class="cls-3" x1="1911.07" y1="1096.63" x2="1899.5" y2="915.18"/>
      <line class="cls-3" x1="1843.87" y1="1101.21" x2="1858.43" y2="962.83"/>
      <line class="cls-2" x1="1556.71" y1="1101.21" x2="1572.67" y2="907.44"/>
      <path class="cls-2" d="M1301.64,1102.74s-28.57-119.77-36.13-197.82"/>
      <path class="cls-2" d="M1355.1,1119.54s27.49-81.18,21.19-191.96"/>
      <path class="cls-2" d="M617.02,1083.33s-28.57-119.77-36.13-197.82"/>
      <path class="cls-2" d="M696.95,1108.95s27.49-81.18,21.19-191.96"/>
      <line class="cls-2" x1="1101.55" y1="1104.27" x2="1090.53" y2="956.53"/>
      <line class="cls-2" x1="1060.77" y1="1102.75" x2="1062.33" y2="920.98"/>
      <line class="cls-2" x1="1617.81" y1="1101.21" x2="1611.83" y2="989.87"/>
      <line class="cls-2" x1="1677.38" y1="1102.74" x2="1670.28" y2="954.05"/>
      <line class="cls-3" x1="375.95" y1="1064.94" x2="389.17" y2="909.65"/>
      <polygon class="cls-28" points="307.72 855.87 1970.68 856.75 1828.98 807.31 436.81 807.31 307.72 855.87"/>
    </g>
    <rect class="cls-1" y="807.89" width="1361.85" height="214.52"/>
    <g class="cls-38">
      <g>
        <path class="cls-26" d="M495.52,473.55s13.62,39.85,22.73,68.13c0,0,66.36,29.3,93.36,36.88,0,0,21.06-19.33,43.42-23.13,0,0-31.13,18.41-41.5,44.75l-6.82,19.06-14-8.13s-99.86-5.09-116.54-19.04c-35.43-29.65-45.28-73.06-45.28-73.06"/>
        <path class="cls-26" d="M375.35,224.94s-12.65,39.1-32.48,56.98c0,0-54.83,100.23,28.73,139.93,0,0,70.6,10.6,68.08-87.99,0,0-12.64-12.61-6.52-27.51,6.48-15.77,1.9,1.15,1.9,1.15l-59.72-82.55"/>
        <path class="cls-33" d="M393.92,1118.1s14.86-65.16,14.86-94c0,0,20.6-201.72,4.12-332.51,0,0-128.28,72.46-284.84-20.64,0,0-35.31,103.41,13.96,243l21.09,108.86s.24,40.49-10.27,95.23"/>
        <path class="cls-26" d="M384.78,192.55s37.2-77.75,110.37-53.04c0,0,59.6,26.52,14.62,94.93,0,0-5.68,6.94-6.36,13.82,0,0,3.21,12.39-15.55,31.73-18.75,19.34-38.69,26.75-38.69,26.75,0,0-12.51,5.82-30.21-1.53,0,0-14.67-4.27-26.08-21.14,0,0-29.62-36.6-17.53-59.13,0,0-22.39,4.12-18.27-26.91,0,0,9.68-41.24,27.7-5.48Z"/>
        <path class="cls-29" d="M424.44,257.08s19.95,1.7,25.18,11.01c0,0,6.94-2.85,18.98,8.68,0,0-11.64,19.33-28.82,12.07-24.51-10.36-15.34-31.77-15.34-31.77Z"/>
        <path class="cls-33" d="M321.68,287.67s-29.05-3.29-64.3,.85c-35.25,4.14-78.23,72.17-78.23,72.17,0,0-7.79,48.18,44.67,82.23l-95.77,228.04s101.06,37.06,206.25,48.65c0,0,39.47,5.56,78.34-17.15,0,0,1.47-84.59,13.25-148.41,0,0,30.88-20.79,36.54-58.74l40.53-19.48,.85-64.02s1.53-43.09-39.55-69.03c0,0-15.94-6.56-26.58-15.52,0,0-.98,47.33-9.12,64.34,0,0-37.13,27.88-89.97-18.95,0,0-26.12-41.32-16.91-84.97Z"/>
        <path class="cls-22" d="M426.81,260.78s-3.53,14.59,13.29,22.14c16.82,7.55,24.57-5.39,24.57-5.39,0,0-26.38-14.77-37.85-16.75Z"/>
        <path class="cls-36" d="M460.88,195.1s-21.79-16.64-36.04-12.71c0,0,13.1-9.8,38.79,7.06,0,0,3.58,5.55-2.75,5.64Z"/>
        <path class="cls-36" d="M520.05,216.62c.08-1.49-11.76-7.57-23.83-10.6,0,0-6.51,1.12-2.29,5.84,0,0,23.19,2.65,23.21,10.57,0,0,2.7-2.15,2.91-5.82Z"/>
        <path class="cls-5" d="M472.78,241.21s3.46,19.02-14.53,13.22"/>
        <path class="cls-20" d="M431.25,261.92s2.17,5.83,15.03,11.78c11.84,5.48,17.03,3.01,17.03,3.01,0,0-16.61-9.94-32.06-14.79Z"/>
        <path class="cls-5" d="M362.8,194.07s10.93-11.21,11.79,14.89c0,0-4.58-13.36-9.71-5.87"/>
        <path class="cls-36" d="M432.48,308.59s-14.96,.57-33.35-16.27c0,0-8.92-8.77-17.65-25.5,0,0,8.45,26.19,32.63,38.93,0,0,7.5,4.24,17.61,5.4,0,0-.73-.3,.76-2.56Z"/>
        <g>
          <path class="cls-20" d="M429.24,199.53s.2-.53,.77-.82c1.87-.95,5.94-2.49,10.64-.64,5.27,2.07,6.22,8.16,6.51,10.32,.05,.37-.07,.63-.07,.63,0,0-.1,.3-.36,.44-1.22,.64-5.1,2.26-10.12,.38-2.99-1.12-6.53-4.36-7.52-9.4-.07-.35,.06-.71,.14-.9Z"/>
          <circle class="cls-36" cx="439.74" cy="204.74" r="5.85"/>
          <circle class="cls-20" cx="436.74" cy="202.28" r="1.61"/>
          <path class="cls-10" d="M447.48,208.53s-1.46-15.09-17.66-9.94"/>
        </g>
        <g>
          <path class="cls-20" d="M488.85,228.15s.11-.52,.6-.87c1.6-1.15,5.16-3.17,9.8-2.12,5.19,1.17,6.95,6.7,7.53,8.66,.1,.34,.02,.6,.02,.6,0,0-.05,.29-.27,.46-1.05,.77-4.42,2.84-9.35,1.8-2.94-.62-6.69-3.12-8.34-7.67-.11-.32-.05-.67,0-.86Z"/>
          <circle class="cls-36" cx="499.36" cy="231.48" r="5.49"/>
          <circle class="cls-20" cx="496.03" cy="229.68" r="1.54"/>
          <path class="cls-10" d="M506.83,234.02s-2.95-14.48-17.59-6.57"/>
        </g>
        <path class="cls-6" d="M223.83,442.92s81.04-72.36,44.43-137.3"/>
        <path class="cls-6" d="M462.43,495.31s2.55-22.76,1.55-36.86c-.64-9.09,5.34-30.1,5.34-30.1"/>
        <path class="cls-19" d="M125.81,696.98s145.87,76.14,290.37,.49l-3.61-23.49s-97.05,62.69-286-3.68l-.76,26.67Z"/>
        <path class="cls-19" d="M175.06,365.43s1.9,49.92,52.55,89.75l8.88-26.73s-32.01-11.27-48.96-78.71l-12.47,15.69Z"/>
        <polygon class="cls-19" points="462.43 495.31 464.1 476.41 502.77 460.01 503.09 475.22 462.43 495.31"/>
        <path class="cls-19" d="M279.17,378.84s67.02,70.44,176.03,43.42l.69,18.55s-113.57,33-185.02-47.95l8.29-14.02Z"/>
        <polyline class="cls-11" points="127.2 689.54 143.46 683.27 148.47 700.5 167.24 691.11 173.49 708.86 190.38 696.85 197.89 717.21 214.16 700.5 224.79 719.3 237.93 704.68 251.07 722.96 262.96 706.25 274.22 724 286.1 708.34 299.24 723.48 309.25 707.29 326.77 720.87 336.78 703.64 351.17 716.17 358.67 698.94 375.57 708.86 381.2 693.19 395.59 698.42 400.59 686.41 411.23 692.15"/>
        <polyline class="cls-11" points="127.29 676.1 136.03 697.42 154.85 686.2 160.9 706.39 178.37 692.93 184.42 712.56 201.9 698.54 211.98 719.3 226.1 703.03 237.52 722.1 250.97 705.83 262.39 722.66 275.84 707.51 285.92 724.35 296.67 707.51 312.13 722.1 322.21 704.71 337.67 718.17 346.41 701.34 362.54 713.13 369.94 695.73 386.74 706.39 391.45 689 403.55 697.42 408.92 681.15"/>
        <polyline class="cls-11" points="304.86 406.54 309.05 419.16 321.29 412.94 323.65 425.03 335.47 420.24 341.65 434.49 352.17 425.7 357.7 437.17 366.57 428.92 374.19 439.97 384.12 431.52 392.06 443.19 401.81 433.65 409.54 442.66 418.39 432.85 428.82 441.11 436.75 431.04 446.58 439.64 452.24 428.89"/>
        <polyline class="cls-11" points="300.79 413.61 313.34 408.01 315.91 422.74 328.57 415.1 331.46 430.45 343.66 422.67 349.99 436.44 360.65 427.17 365.12 438.85 375.47 428.96 381.93 442.26 392.56 431.43 399.59 442.83 410.22 431.99 416.94 442.78 426.8 431.2 437.12 441.5 444.67 427.68 452.29 441.3"/>
        <polyline class="cls-11" points="184.9 354.58 179.28 370.09 187.54 369.2 182.6 382.65 192.33 380.16 187.87 395.59 197.44 392.44 192.92 408.17 204.01 403.13 199.5 418.85 210.05 412.14 207.24 429.45 214.31 425.82"/>
        <polyline class="cls-11" points="177.28 364.06 187.44 362.28 180.32 376.56 190.88 374.24 184.56 387.42 195.22 386.05 189.77 400.66 201 397.84 194.86 414.5 208.31 407.73 203.28 424.61 213.66 418.8"/>
        <polyline class="cls-11" points="499.56 464 491.72 477.98 481.8 471 476.65 485.98 465.53 479.39 467.29 489.99 474.17 475.29 484.54 482.05 490.72 468.11 500.23 473.62"/>
        <path class="cls-26" d="M232.4,456.04l-45.72,61.1,109.22,69.87,11.63,5.73,31.34-12.62s14.68-4.9,23.17-.67l9.02,8.11s29.27,10.44,27.25,21.45-7.34,8.35-7.34,8.35c0,0,2.82,10.02-6.53,13.61,0,0,4.84,12.32-8.48,14.78,0,0-3.46,10.91-11.66,8.07-8.2-2.85-32.26-6.73-55.82-20.27l-16.18-4.06s-172.89-38.19-191.75-82.97c0,0-6.11-23.8,7.03-50.84,20.86-42.92,67.77-123.08,67.77-123.08,0,0,17.51,66.01,57.08,83.46Z"/>
        <path class="cls-32" d="M473.8,349.63c14.7-26.5,27.15-64.53,27.15-64.53,50.03-82.74,37.86-123.01,37.86-123.01-34.83-78.23-102.19-60.32-102.19-60.32-15.62-1.75-56.73,3.49-77.54,46.92-20.8,43.43-31.61,54.28-49.64,83.12,0,0-62.83,81.26-85.4,193.91-3.43,17.14-28.25,48.36-28.25,48.36,0,0,55.05,35.8,142.5-114.77,26.26-45.21,37.05-134.36,37.05-134.36-17.11-.27-18.17-12.11-18.17-12.11,0,0-2.55-16.36,7.24-29.42,9.94-13.26,20.36,9.15,20.36,9.15,34.62-51.91,68.25-57.27,68.25-57.27,44.64,49.86,71.03,54.66,71.03,54.66,0,0,.13,14.33-3.77,24.58-3.9,10.25-9.7,18.1-9.7,18.1-5.76,5.51-6.57,13.93-6.57,13.93-.22,16.99-14.67,30.36-14.67,30.36-34.6,35.44-56.14,30.69-56.14,30.69-6.06,13.96,4.19,22.58,4.19,22.58"/>
        <g>
          <ellipse class="cls-12" cx="361.95" cy="230.07" rx="12.73" ry="12.18" transform="translate(3.63 465.75) rotate(-65.78)"/>
          <line class="cls-12" x1="356.73" y1="241.68" x2="339.84" y2="279.22"/>
          <line class="cls-12" x1="350.1" y1="233.91" x2="341.07" y2="253.98"/>
          <line class="cls-12" x1="351.87" y1="237.66" x2="340.14" y2="263.73"/>
          <line class="cls-12" x1="354.12" y1="239.99" x2="339.87" y2="271.65"/>
          <line class="cls-12" x1="362.99" y1="242.66" x2="351.26" y2="268.73"/>
          <line class="cls-12" x1="359.75" y1="242.52" x2="345.51" y2="274.19"/>
          <line class="cls-12" x1="367.05" y1="241.54" x2="358.03" y2="261.6"/>
        </g>
        <g class="cls-37">
          <g>
            <ellipse class="cls-12" cx="479" cy="276.5" rx="12.73" ry="12.18" transform="translate(30.31 599.88) rotate(-65.78)"/>
            <line class="cls-12" x1="473.78" y1="288.11" x2="456.88" y2="325.65"/>
            <line class="cls-12" x1="463.21" y1="296.78" x2="457.19" y2="310.16"/>
            <line class="cls-12" x1="471.17" y1="286.42" x2="456.92" y2="318.09"/>
            <line class="cls-12" x1="480.03" y1="289.1" x2="468.31" y2="315.16"/>
            <line class="cls-12" x1="476.8" y1="288.95" x2="462.55" y2="320.62"/>
            <line class="cls-12" x1="484.1" y1="287.97" x2="475.07" y2="308.04"/>
          </g>
        </g>
      </g>
    </g>
    <g>
      <path class="cls-26" d="M720.7,503.97s-10.54,54.16,20.09,62.54c0,0-6.63,79.31-79.9,81.6,0,0-60.3-10.55-27.17-81.33l10.07-4.18c.3-13.51-1.89-15.94-1.89-15.94l78.79-42.69"/>
      <path class="cls-26" d="M625.69,406.73s-7.32,12.74-7.4,43.61c0,0-.29,11.5-3.65,17.91,0,0-4.59,24.96,3.1,44.39,7.69,19.43,24.72,32,24.72,32,0,0,17.07,7.59,31.76,2.7,14.69-4.89,35.14-6.21,52.73-39.72,0,0,9.57,10.02,18.31-6.28,8.73-16.29,17.83-21.31,12.05-36.43-5.77-15.12-24.11,12.36-24.11,12.36,0,0,15.07-26.36,8.88-54.63-6.19-28.27-39.74-50.23-39.74-50.23,0,0-49.17-19.38-76.64,34.33Z"/>
      <path class="cls-36" d="M674.89,444.12s19.77-1.78,35.71,6.31c0,0-6.73-11.63-35.56-10.97,0,0-5.07,2.23-.16,4.66Z"/>
      <path class="cls-36" d="M616.34,436.29c13.94,.58,23.18,4.4,23.18,4.4,5.42-.83,1.26-4.49,1.26-4.49-8.5-2.91-18.53-3.88-23.88-4.04,0,0-1.31,4.11-.55,4.14Z"/>
      <path class="cls-5" d="M646.36,473.88s-13.05,7.87-1.56,15.54"/>
      <path class="cls-36" d="M643.21,544.88s19.63,7.58,36.43,.7c0,0,9.47-1.11,25.8-10.81,0,0-9.28,13.83-39.63,16.76,0,0-11.2,.04-24.05-1.71,0,0,.98-2.89,1.45-4.94Z"/>
      <path class="cls-5" d="M752.54,482.05s-4.05-8.38-10.79-1.29c-6.75,7.09-7.4,9.66-7.4,9.66,0,0,9.83-11.37,11.72-.94"/>
      <g>
        <path class="cls-20" d="M696.86,460.35s.1-.53-.22-1.05c-1.06-1.7-3.61-4.98-8.37-5.8-5.33-.92-9.13,3.58-10.44,5.2-.23,.28-.26,.55-.26,.55,0,0-.07,.29,.07,.53,.68,1.13,3.04,4.38,8.08,5.32,3,.56,7.49-.33,10.81-3.95,.23-.25,.31-.61,.33-.81Z"/>
        <circle class="cls-36" cx="685.7" cy="459.4" r="5.59"/>
        <circle class="cls-20" cx="689.45" cy="461.8" r="1.53"/>
        <path class="cls-5" d="M677.5,458.65s8.68-11.61,19.35,.64"/>
      </g>
      <g>
        <path class="cls-20" d="M639.11,455.52s.17-.49-.06-1.02c-.75-1.76-2.68-5.21-7.05-6.68-4.89-1.64-9.12,2.05-10.58,3.38-.25,.23-.32,.48-.32,.48,0,0-.11,.27,0,.51,.48,1.17,2.23,4.57,6.84,6.19,2.74,.96,7.11,.78,10.75-2.16,.25-.2,.38-.53,.43-.71Z"/>
        <circle class="cls-36" cx="628.74" cy="453" r="5.31"/>
        <circle class="cls-20" cx="631.93" cy="455.44" r="1.49"/>
        <path class="cls-5" d="M621.28,451.35s9.71-10.5,17.86,3.4"/>
      </g>
      <path class="cls-8" d="M605.32,666s-1.83,22.98,2.44,55.67"/>
      <path class="cls-13" d="M761.64,766.86s18.29-3.66,27.24,13.42"/>
      <path class="cls-36" d="M769.86,596.02l-44.65-36.88c-15.31-24.55,.26-55.95,.26-55.95,10.41,8.38,18.6-.47,18.6-.47,17.78-29.07,6.31-32.69,6.31-32.69-14.03-3.42-17.68,7.74-17.68,7.74-33.08-26.04-17.52-78.68-17.52-78.68-43.76,29.37-86,8.03-86,8.03-7.75,7.09-9.15,29.67-9.15,29.67-.26,15.35-.65,20.1-.65,20.1-9.21,29.72-3.02,48.97-3.02,48.97,9.02,29.14,27.12,39.62,27.12,39.62,.47,5.27,.33,17.11,.33,17.11-5.67,3.99-23.9,8.95-23.9,8.95-9.04,2.57-17.17,6.36-17.17,6.36-19.14-124.26,34.7-198.21,34.7-198.21,52.96-53.87,107.1,4.26,107.1,4.26,63.76,30.08,25.32,212.06,25.32,212.06"/>
      <path class="cls-18" d="M745.52,469.4s14.56-47.11-16.5-78.62c-31.06-31.51-67.57-15.99-76.11-10.41-22.25,14.53-23.74,26.76-23.74,26.76,0,0,11.75-17.33,33.27-21.97,0,0,40.81-6.93,62.4,22.52,21.59,29.45,7.85,70.09,7.85,70.09,0,0,2.56-7.52,12.83-8.37Z"/>
      <path class="cls-8" d="M751.36,712.84s-9.31-79.4,3.92-91.66"/>
      <path class="cls-14" d="M761.17,770.68s18.72-.98,33.31,13.61"/>
      <path class="cls-4" d="M760.42,766.63s17.91-3.58,26.67,13.14"/>
      <path class="cls-17" d="M591.45,805.98c-.87-20.2-2.5-45.37-5.59-69.46,0,0-.76-12.97-.21-37.46l-29.62-30.66,14.52-46.96s5.48-33.54,42.23-47.38c0,0,16.07-3.37,25.94-8.69,0,0-7.11,15.33-3.27,29.7,0,0,14.2,43.58,33.56,46.46,0,0,56.74-47.24,56.19-82.38,0,0,16.23-.43,39.09,17.5,51.95,40.73,62.4,111.06,62.4,111.06,0,0-16.44,27.93-56.05,32.42l22.89,87.73"/>
      <path class="cls-17" d="M726.54,561.78l-57.52,79.74,36.76,38.04,80.53-86.29s-13.05-15.79-33.89-20.42c-20.85-4.64-25.87-11.07-25.87-11.07Z"/>
      <path class="cls-17" d="M637.08,569.27l31.94,72.26-35.04,31.73-38.73-89.41s18.67-15.2,41.84-14.57Z"/>
      <path class="cls-24" d="M705.77,679.56l80.53-86.29s-5.97-6.72-13.99-11.67l-77.41,86.67,10.87,11.29Z"/>
      <path class="cls-9" d="M740.94,567.36s-53.48,67.91-60.31,87.61"/>
      <polygon class="cls-24" points="633.97 673.25 642.42 665.45 606.23 577 595.23 583.84 633.97 673.25"/>
      <line class="cls-9" x1="653.28" y1="654.13" x2="619.91" y2="571.55"/>
      <polygon class="cls-20" points="778.84 599.85 777.01 587.77 765.43 589.68 767.26 601.75 778.84 599.85"/>
      <polygon class="cls-20" points="766.45 613.91 764.63 601.84 753.05 603.74 754.88 615.82 766.45 613.91"/>
      <polygon class="cls-20" points="752.82 628.27 751 616.2 739.42 618.1 741.24 630.17 752.82 628.27"/>
      <polygon class="cls-20" points="739.61 643.21 737.78 631.14 726.2 633.04 728.03 645.11 739.61 643.21"/>
      <polygon class="cls-20" points="726.39 657.86 724.57 645.79 712.99 647.69 714.81 659.76 726.39 657.86"/>
      <polygon class="cls-20" points="714.69 671.29 712.86 659.22 701.28 661.12 703.11 673.19 714.69 671.29"/>
      <polygon class="cls-20" points="599.4 593.53 607.72 596.47 610.54 587.79 602.22 584.86 599.4 593.53"/>
      <polygon class="cls-20" points="605.05 606.72 613.37 609.65 616.18 600.98 607.86 598.04 605.05 606.72"/>
      <polygon class="cls-20" points="611.42 621.54 619.74 624.48 622.56 615.8 614.24 612.87 611.42 621.54"/>
      <polygon class="cls-20" points="617.49 635.71 625.3 638.47 627.94 630.32 620.13 627.57 617.49 635.71"/>
      <polygon class="cls-20" points="623.16 649.81 630.97 652.57 633.61 644.43 625.8 641.67 623.16 649.81"/>
      <polygon class="cls-20" points="629.12 663.65 636.93 666.41 639.57 658.27 631.76 655.51 629.12 663.65"/>
      <path class="cls-9" d="M745.73,718.5s-3.99-38.15-3.99-57.59"/>
      <path class="cls-9" d="M584.59,700.92s.64-19.02,3.34-25.35"/>
      <path class="cls-26" d="M598.63,733.89s15.96,26.23-30.79,49.03c-46.75,22.81-124.39-77.99-124.39-77.99l-12.41-5.75s-31.82-8.73-40.76-19.28-.47-15.06-.47-15.06c-4.11-7.53,1.9-9,1.9-9-4.91-9.4,2.65-13.96,2.65-13.96-10.33-10.18,6.37-15.11,6.37-15.11,1.21-4.94,14.08-6.91,14.08-6.91l19.24,13.45,26.6,42.99,95.21,42.76,15.96-45.04"/>
      <path class="cls-21" d="M617.04,796.96s-5.59-37.3-5.2-43.45"/>
      <path class="cls-4" d="M604.61,651.64s-15.13,61.7,7.17,98.72"/>
      <path class="cls-4" d="M749.73,757.13s16.11,5.59,24.87,22.31"/>
      <g>
        <polyline class="cls-20" points="578.06 654.06 580.12 646.65 685.34 641.57 692.29 785.45 690.23 792.87"/>
        <rect class="cls-35" x="581.47" y="651.44" width="105.35" height="144.05" transform="translate(-34.14 31.41) rotate(-2.76)"/>
        <line class="cls-15" x1="587.69" y1="654" x2="594.69" y2="796.58"/>
        <g>
          <path class="cls-31" d="M601.51,676.55c6.06-.37,6.42,5.62,12.48,5.25s5.69-6.36,11.75-6.73,6.42,5.62,12.48,5.25,5.69-6.36,11.75-6.73,6.43,5.62,12.49,5.25"/>
          <path class="cls-5" d="M601.51,676.55c6.06-.37,6.42,5.62,12.48,5.25s5.69-6.36,11.75-6.73,6.42,5.62,12.48,5.25,5.69-6.36,11.75-6.73,6.43,5.62,12.49,5.25"/>
        </g>
      </g>
      <g>
        <polyline class="cls-20" points="566.93 666.43 568.99 659.01 674.22 653.93 681.16 797.81 679.1 805.23"/>
        <rect class="cls-31" x="570.34" y="663.8" width="105.35" height="144.05" transform="translate(-34.75 30.89) rotate(-2.76)"/>
        <line class="cls-15" x1="576.56" y1="666.36" x2="583.56" y2="808.94"/>
        <g>
          <path class="cls-31" d="M590.39,688.92c6.06-.37,6.42,5.62,12.48,5.25s5.69-6.36,11.75-6.73,6.42,5.62,12.48,5.25,5.69-6.36,11.75-6.73,6.43,5.62,12.49,5.25"/>
          <path class="cls-5" d="M590.39,688.92c6.06-.37,6.42,5.62,12.48,5.25s5.69-6.36,11.75-6.73,6.42,5.62,12.48,5.25,5.69-6.36,11.75-6.73,6.43,5.62,12.49,5.25"/>
        </g>
      </g>
      <path class="cls-26" d="M745.73,721.35l3.42,38.2s40.48,10.83,0,0-93.5-11.4-93.5-11.4c0,0-11.49-3.18-17.81-8.17-6.32-4.99-16.3-11.31-26.28-11.64l-15.97-3.33s-2.99,7.98,8.32,11.97c11.31,3.99,9.98,5.99,9.98,5.99,0,0-2,4.32-13.31,3.33-11.31-1-15.3,0-15.3,0l-15.63-8.98s-4.66-4.99-9.65,.67l2.66,5.65s-6.99,3.66,1,10.31c0,0-2.33,6.99,8.32,14.97,0,0,1.33,9.98,7.65,13.31,6.32,3.33,45.9,3.99,45.9,3.99l30.68-4.99s105.35,55.73,145.39,27.37c27.37-19.39,14.25-108.33,14.25-108.33,0,0-47.32,23.38-70.13,21.1Z"/>
      <path class="cls-7" d="M562.66,743.63s15.97,19.29,34.93,14.3"/>
      <path class="cls-7" d="M563.66,753.94s12.97,15.63,30.93,14.3"/>
      <path class="cls-7" d="M571.98,768.91s3.66,10.31,22.62,9.31"/>
      <path class="cls-7" d="M400.73,626.77s-3.99,5.61,.32,8.25,8.92,.53,8.92,.53c0,0,9.63,3.56,9.99,7.45,.36,3.9-7.27,21.93,16.11,34.96"/>
      <path class="cls-7" d="M394.36,641.88s24.41,1.06,21.74,15.81c0,0-2.84,7.59-23.89-4.41"/>
      <path class="cls-7" d="M389.81,664.84s21.77,13.75,22.97,3.69c0,0,.88-4.72-3.7-7.97"/>
      <path class="cls-7" d="M394.96,677.31s11.52,6.95,13.58,2.3-.2-6.57-.2-6.57"/>
      <path class="cls-27" d="M674.99,508.58s-9.58-4.34-21.88-2.48c0,0-10-3.35-19.5-2.47,0,0-1.08,16.69,14,22.33,15.07,5.64,26.44-7.67,27.38-17.38Z"/>
      <path class="cls-22" d="M672.35,509.43s-1.71,14.68-20.77,12.26c-17.31-2.2-15.79-15.26-15.79-15.26,0,0,19.38,3.35,36.56,3Z"/>
      <path class="cls-20" d="M669.96,509.34s-5.58,6.19-20.24,3.61c0,0-9.15-.7-12.35-6.02,0,0,18.95,2.82,32.59,2.41Z"/>
    </g>
  </g>
</svg>