<?xml version="1.0" encoding="UTF-8"?>
<svg xmlns="http://www.w3.org/2000/svg" viewBox="0 0 1336.59 999.75">
  <defs>
    <style>
      .cls-1 {
        stroke: #cfe5ae;
        stroke-width: 1.5px;
      }

      .cls-1, .cls-2, .cls-3, .cls-4, .cls-5, .cls-6, .cls-7, .cls-8, .cls-9, .cls-10, .cls-11, .cls-12, .cls-13, .cls-14, .cls-15, .cls-16, .cls-17, .cls-18, .cls-19, .cls-20, .cls-21, .cls-22, .cls-23, .cls-24, .cls-25 {
        stroke-miterlimit: 10;
      }

      .cls-1, .cls-2, .cls-3, .cls-4, .cls-5, .cls-6, .cls-11, .cls-13, .cls-14, .cls-15, .cls-16, .cls-17, .cls-19, .cls-20, .cls-23, .cls-24, .cls-25 {
        fill: none;
      }

      .cls-2, .cls-3, .cls-21, .cls-22 {
        stroke-width: 6px;
      }

      .cls-2, .cls-15 {
        stroke: #d1d3d4;
      }

      .cls-3, .cls-8, .cls-9, .cls-21, .cls-25 {
        stroke: #fff;
      }

      .cls-4, .cls-5, .cls-6, .cls-12 {
        stroke-width: .8px;
      }

      .cls-4, .cls-20 {
        stroke: #754c29;
      }

      .cls-5, .cls-10, .cls-12, .cls-16 {
        stroke: #603913;
      }

      .cls-6, .cls-13, .cls-19, .cls-23 {
        stroke: #231f20;
      }

      .cls-26 {
        fill: #f7daa6;
      }

      .cls-27 {
        fill: #f7d9a4;
      }

      .cls-28 {
        fill: #f8a69b;
      }

      .cls-29 {
        fill: #e6e7e8;
      }

      .cls-30 {
        fill: #f7941d;
      }

      .cls-31 {
        fill: #f6ac1b;
      }

      .cls-32 {
        fill: #fff;
      }

      .cls-33 {
        fill: #f1f2f2;
      }

      .cls-34 {
        fill: #fbb040;
      }

      .cls-35 {
        fill: #fbc5b3;
      }

      .cls-36 {
        fill: #803435;
      }

      .cls-37 {
        fill: #939598;
      }

      .cls-38 {
        fill: #87664d;
      }

      .cls-39 {
        fill: #8b5e3c;
      }

      .cls-40 {
        fill: #ae8578;
      }

      .cls-41 {
        fill: #b1dcc4;
      }

      .cls-42, .cls-7, .cls-22 {
        fill: #a97c50;
      }

      .cls-43 {
        fill: #bfbfbf;
      }

      .cls-44 {
        fill: #cd6848;
      }

      .cls-45, .cls-10 {
        fill: #caa88a;
      }

      .cls-46, .cls-21 {
        fill: #c8eaf6;
      }

      .cls-47 {
        fill: #d1d3d4;
      }

      .cls-48 {
        fill: #e2c799;
      }

      .cls-49 {
        fill: #c49a6c;
      }

      .cls-50 {
        fill: #dcbf97;
      }

      .cls-51 {
        fill: #d4d5d6;
      }

      .cls-52 {
        fill: #c6837e;
      }

      .cls-53 {
        fill: #231f20;
      }

      .cls-54 {
        fill: #414042;
      }

      .cls-55 {
        fill: #0d3449;
      }

      .cls-56 {
        fill: #9b755d;
      }

      .cls-57 {
        fill: #26130f;
      }

      .cls-7, .cls-11 {
        stroke-width: 2px;
      }

      .cls-7, .cls-22 {
        stroke: #a97c50;
      }

      .cls-8 {
        fill: #fff200;
      }

      .cls-8, .cls-9, .cls-23, .cls-24, .cls-25 {
        stroke-width: .5px;
      }

      .cls-9 {
        fill: #754c29;
      }

      .cls-11 {
        stroke: #009444;
      }

      .cls-12 {
        fill: #be9e7d;
      }

      .cls-14 {
        stroke: #ef4136;
      }

      .cls-17 {
        stroke: #6d6e71;
      }

      .cls-18 {
        fill: #00a151;
        stroke: #006838;
        stroke-width: .1px;
      }

      .cls-19 {
        stroke-width: .3px;
      }

      .cls-20 {
        stroke-width: 8px;
      }

      .cls-24 {
        stroke: #939598;
      }
    </style>
  </defs>
  <g id="Layer_2" data-name="Layer 2">
    <rect class="cls-41" x=".02" width="1333.86" height="941.44"/>
    <rect class="cls-27" y="803.78" width="1333.75" height="195.96"/>
    <rect class="cls-46" x="1003.51" y="50.09" width="318.13" height="753.17"/>
    <polyline class="cls-20" points="1333.86 50.52 1006.72 50.52 1006.72 803.7"/>
    <polygon class="cls-42" points="1333.88 46.73 1145.54 19.63 1145.54 831.28 1336.59 804.18 1333.88 46.73"/>
    <rect class="cls-39" x="1128.3" y="19.63" width="18.97" height="813"/>
    <g>
      <ellipse class="cls-34" cx="1178.2" cy="440.57" rx="14.46" ry="16.58"/>
      <path class="cls-30" d="M1195.31,423.94l-9,.92s-9.51,1.34-9.72,14.12c-.24,14.91,5.81,17.73,8.13,17.79l10.59,.34"/>
      <path class="cls-30" d="M1183.08,430.45h-6.82s-10.09,10.29-.46,20.03l7.28,.17"/>
      <ellipse class="cls-34" cx="1195.31" cy="440.52" rx="14.46" ry="16.58"/>
    </g>
    <path class="cls-18" d="M1010.86,803.46h117.38v-87.49s-71.73-14.13-117.38,9.78v77.71Z"/>
    <g>
      <rect class="cls-21" x="82" y="57.13" width="390.42" height="343.5"/>
      <line class="cls-22" x1="37.01" y1="44.92" x2="517.37" y2="44.92"/>
      <circle class="cls-7" cx="33.43" cy="44.35" r="6.32"/>
      <circle class="cls-7" cx="523.87" cy="45.19" r="6.32"/>
      <path class="cls-31" d="M51.24,35.1l-.73,396.5s15.42,13.22,39.65,5.14v-16.89s22.03,5.87,34.51,0v13.95s22.76,8.81,30.1,.73l-15.42-259.19,8.08-140.24-39.65,.73-8.81,2.2-14.69-2.94H51.24Z"/>
      <path class="cls-31" d="M510.35,35.1l.73,396.5s-15.42,13.22-39.65,5.14v-16.89s-22.03,5.87-34.51,0v13.95s-22.76,8.81-30.1,.73l15.42-259.19-8.08-140.24,39.65,.73,8.81,2.2,14.69-2.94h33.04Z"/>
      <line class="cls-14" x1="90.15" y1="419.85" x2="82.59" y2="263.85"/>
      <line class="cls-14" x1="124.66" y1="419.85" x2="121.13" y2="273.26"/>
      <line class="cls-14" x1="84.28" y1="35.1" x2="81.61" y2="189.77"/>
      <line class="cls-14" x1="98.96" y1="38.04" x2="101.04" y2="269"/>
      <line class="cls-14" x1="436.93" y1="419.85" x2="437.41" y2="280.22"/>
      <line class="cls-14" x1="471.44" y1="419.85" x2="474.04" y2="238.36"/>
      <line class="cls-14" x1="453.82" y1="35.84" x2="453.86" y2="168.09"/>
      <line class="cls-14" x1="477.31" y1="35.1" x2="477.78" y2="200.23"/>
      <line class="cls-3" x1="277.58" y1="55.5" x2="277.58" y2="399.86"/>
      <line class="cls-2" x1="282.81" y1="60.01" x2="282.81" y2="396.83"/>
    </g>
    <g>
      <polygon class="cls-42" points="764.23 658.82 534.85 658.93 583.89 588.6 734.91 588.6 764.23 658.82"/>
      <rect class="cls-38" x="534.85" y="658.93" width="229.37" height="17.35"/>
      <polygon class="cls-42" points="562.3 886.62 547.46 886.62 540.72 676.53 567.32 676.53 562.3 886.62"/>
      <polygon class="cls-42" points="753.88 886.62 738.88 886.62 733.63 676.77 758.86 676.77 753.88 886.62"/>
      <rect class="cls-42" x="583.89" y="382.2" width="151.01" height="206.4"/>
    </g>
    <g>
      <polygon class="cls-42" points="488.62 658.82 259.24 658.93 308.28 588.6 459.29 588.6 488.62 658.82"/>
      <rect class="cls-38" x="259.24" y="658.93" width="229.37" height="17.35"/>
      <polygon class="cls-42" points="286.69 886.62 271.84 886.62 265.11 676.53 291.71 676.53 286.69 886.62"/>
      <polygon class="cls-42" points="478.27 886.62 463.27 886.62 458.01 676.77 483.25 676.77 478.27 886.62"/>
      <rect class="cls-42" x="308.28" y="382.2" width="151.01" height="206.4"/>
    </g>
  </g>
  <g id="Layer_1" data-name="Layer 1">
    <g>
      <polygon class="cls-42" points="60.09 601.15 64.3 939.37 81.14 939.37 110.61 662.9 848.81 662.9 878.28 937.97 896.53 937.97 896.53 601.15 60.09 601.15"/>
      <path class="cls-28" d="M918.56,574.5l32.21,130.54s-29,14.5-63.64-4.03c0,0-10.47,16.11-35.44,2.42,0,0-8.86,7.25-47.53-.81,0,0-27.39-3.22-40.28,1.61,0,0-12.08,9.67-31.42-.81,0,0-16.92,8.06-32.22,0,0,0-20.14,4.03-44.31-3.22-24.17-7.25-62.03,12.89-62.03,12.89,0,0-6.44-12.08-28.19-8.86,0,0-19.33,11.28-34.64,1.61,0,0-21.75-7.25-70.89-.81,0,0-11.28,8.86-21.75,0,0,0-132.48,3.82-156.65-6.65,0,0-23.22-7.12-34.83,7.97,0,0-16.25-24.37-42.94-12.77,0,0-17.41,19.73-46.43,3.48,0,0-58.03-25.53-80.08-12.77,0,0-23.21,13.93-55.71-1.16l19.73-109.1,877.03,.47Z"/>
      <line class="cls-4" x1="887.13" y1="701.01" x2="881.02" y2="605.32"/>
      <line class="cls-4" x1="851.68" y1="703.42" x2="859.36" y2="630.44"/>
      <line class="cls-4" x1="700.24" y1="703.42" x2="708.66" y2="601.23"/>
      <path class="cls-4" d="M565.71,704.23s-15.07-63.16-19.05-104.33"/>
      <path class="cls-4" d="M593.91,713.09s14.5-42.81,11.18-101.24"/>
      <path class="cls-4" d="M204.65,693.99s-15.07-63.16-19.05-104.33"/>
      <path class="cls-4" d="M246.8,707.51s14.5-42.81,11.18-101.24"/>
      <line class="cls-4" x1="460.19" y1="705.04" x2="454.38" y2="627.12"/>
      <line class="cls-4" x1="438.68" y1="704.24" x2="439.5" y2="608.37"/>
      <line class="cls-4" x1="732.46" y1="703.42" x2="729.31" y2="644.71"/>
      <line class="cls-4" x1="763.88" y1="704.23" x2="760.13" y2="625.81"/>
      <line class="cls-4" x1="77.51" y1="684.3" x2="84.48" y2="602.39"/>
      <polygon class="cls-35" points="41.53 574.03 918.56 574.5 843.83 548.42 109.61 548.42 41.53 574.03"/>
    </g>
    <g>
      <path class="cls-32" d="M177.86,328.88s-7.84,15.04-21.56,8.73c-13.73-6.31-5.54-8.71-5.54-8.71,0,0,18.03,3.1,23.57-1.74"/>
      <path class="cls-32" d="M178.41,328.88s7.84,15.04,21.56,8.73,5.54-8.71,5.54-8.71c0,0-18.03,3.1-23.57-1.74"/>
      <path class="cls-32" d="M170.86,326.85s-16.6,3.48-20.43-11.13,3.22-9.81,3.22-9.81c0,0,9.04,15.91,16.3,17.12"/>
      <path class="cls-32" d="M171.98,322.32l-10.26-9.27s-4.42-2.6-.46-7.29c3.96-4.69,8.84-.17,8.84-.17,0,0,7.79,12.27,8.32,16.5"/>
      <path class="cls-32" d="M182.88,323.3l3.24-12.72s-.49-9.77-6.12-9.26c-5.62,.5-3.08,10.8-3.08,10.8l3.42,11.03"/>
      <path class="cls-32" d="M186.7,327.15s14.59-.31,14.82-12.18c.22-11.88-17.02,9.43-17.02,9.43"/>
      <ellipse class="cls-49" cx="178.14" cy="325.3" rx="3.23" ry="9.68" transform="translate(-161.79 473.63) rotate(-84.87)"/>
      <path class="cls-32" d="M130.48,341.44s-16.6,3.48-20.43-11.13c-3.83-14.61,3.22-9.81,3.22-9.81,0,0,9.04,15.91,16.3,17.12"/>
      <path class="cls-32" d="M137.11,342.6s-7.84,15.04-21.56,8.73c-13.73-6.31-5.54-8.71-5.54-8.71,0,0,18.03,3.1,23.57-1.74"/>
      <path class="cls-32" d="M137.66,342.6s7.84,15.04,21.56,8.73,5.54-8.71,5.54-8.71c0,0-18.03,3.1-23.57-1.74"/>
      <path class="cls-32" d="M187,375.6s-7.84,15.04-21.56,8.73c-13.73-6.31-5.54-8.71-5.54-8.71,0,0,18.03,3.1,23.57-1.74"/>
      <path class="cls-32" d="M187.56,375.6s7.84,15.04,21.56,8.73,5.54-8.71,5.54-8.71c0,0-18.03,3.1-23.57-1.74"/>
      <path class="cls-32" d="M131.6,336.91l-10.26-9.27s-4.42-2.6-.46-7.29c3.96-4.69,8.84-.17,8.84-.17,0,0,7.79,12.27,8.32,16.5"/>
      <path class="cls-32" d="M181.07,369.31l-10.26-9.27s-4.42-2.6-.46-7.29c3.96-4.69,8.84-.17,8.84-.17,0,0,7.79,12.27,8.32,16.5"/>
      <path class="cls-32" d="M142.5,337.89l3.24-12.72s-.49-9.77-6.12-9.26c-5.62,.5-3.08,10.8-3.08,10.8l3.42,11.03"/>
      <path class="cls-32" d="M146.32,341.74s14.59-.31,14.82-12.18c.22-11.88-17.02,9.43-17.02,9.43"/>
      <ellipse class="cls-49" cx="137.76" cy="339.88" rx="3.23" ry="9.68" transform="translate(-213.09 446.69) rotate(-84.87)"/>
      <path class="cls-32" d="M180.43,373.62s-16.67,3.09-20.16-11.61c-3.48-14.7,3.45-9.73,3.45-9.73,0,0,8.66,16.12,15.89,17.5"/>
      <path class="cls-32" d="M192.53,370.35l3.54-12.64s-.26-9.78-5.89-9.41-3.34,10.73-3.34,10.73l3.15,11.11"/>
      <path class="cls-32" d="M196.25,374.29s14.6,.04,15.1-11.83c.5-11.87-17.24,9.02-17.24,9.02"/>
      <ellipse class="cls-49" cx="187.74" cy="372.24" rx="3.23" ry="9.68" transform="translate(-203.32 516.72) rotate(-83.51)"/>
      <path class="cls-11" d="M187.37,375.44s-8.45,84.24-37.54,65.08"/>
      <path class="cls-11" d="M177.85,328.51s-6.46,119.88-22.55,112.35"/>
      <path class="cls-11" d="M137.47,343.1s-5.8,74.76,37.33,94.27c0,0,3.7,1.67,7.2-2.1"/>
      <path class="cls-32" d="M211.23,345.05s16.6,3.48,20.43-11.13c3.83-14.61-3.22-9.81-3.22-9.81,0,0-9.04,15.91-16.3,17.12"/>
      <path class="cls-32" d="M204.6,346.22s7.84,15.04,21.56,8.73c13.73-6.31,5.54-8.71,5.54-8.71,0,0-18.03,3.1-23.57-1.74"/>
      <path class="cls-32" d="M204.04,346.22s-7.84,15.04-21.56,8.73c-13.73-6.31-5.54-8.71-5.54-8.71,0,0,18.03,3.1,23.57-1.74"/>
      <path class="cls-32" d="M210.11,340.53l10.26-9.27s4.42-2.6,.46-7.29c-3.96-4.69-8.84-.17-8.84-.17,0,0-7.79,12.27-8.32,16.5"/>
      <path class="cls-32" d="M199.21,341.5l-3.24-12.72s.49-9.77,6.12-9.26c5.62,.5,3.08,10.8,3.08,10.8l-3.42,11.03"/>
      <path class="cls-32" d="M195.39,345.35s-14.59-.31-14.82-12.18c-.22-11.88,17.02,9.43,17.02,9.43"/>
      <ellipse class="cls-49" cx="203.95" cy="343.5" rx="9.68" ry="3.23" transform="translate(-29.9 19.62) rotate(-5.13)"/>
      <path class="cls-11" d="M204.24,346.71s5.8,74.76-37.33,94.27c0,0-3.7,1.67-7.2-2.1"/>
      <path class="cls-44" d="M148.32,421.98h41.64v73.09s16.15,5.47,14.91,29.32-15.65,25.84-15.65,25.84v12.42h-40.25v-10.68s-18.39-9.19-15.16-31.31,15.65-27.33,15.65-27.33l-1.14-71.35Z"/>
    </g>
    <g>
      <path class="cls-50" d="M1016.97,279.03s-8.23,42.26,15.68,48.8c0,0,.02,42.41-57.16,44.19,0,0-16.28-7.48-27.08-45.61,0,0,17.14-5.78,17.37-15.74,.23-10.54-3.09,.33-3.09,.33l54.29-31.97"/>
      <path class="cls-50" d="M1018.85,257.57s-2.86-58.02-48.58-56.63c0,0-33.94-.14-32.12,47.79,0,0,1.81,7.7,.49,11.77,0,0-2.4,12.52,1.53,22.93,5.9,15.63,13.71,23.72,13.71,23.72,0,0,6.64,6.31,18.49,6.53,0,0,8.33-.18,18.98-6.91,0,0,26.88-12,25.62-27.76,0,0,10.13,6.04,15.49-12.56,0,0,6.9-16.07,.73-18.74-7.79-3.37-10.69,1.7-14.33,9.84Z"/>
      <path class="cls-57" d="M976.07,241.74s16.13-5.23,23.63,0c0,0-5.63-8.41-24.07-3.86,0,0-3.23,2.5,.44,3.86Z"/>
      <path class="cls-57" d="M937.2,237.81c.39-.84,8.61-.72,16.08,1.12,0,0,3.23,2.5-.44,3.86,0,0-13.43-5.28-15.74-.96,0,0-.85-1.96,.1-4.02Z"/>
      <path class="cls-13" d="M962.7,275.09c-11.28-1.51-3.79-11.93-3.79-11.93"/>
      <path class="cls-13" d="M1032.41,260.34s-4.17-11.06-12.66,6.73c0,0,7.21-7.85,8.5-1.12"/>
      <path class="cls-57" d="M965.54,312.59s3.66,3.38,16.38-1.08c0,0,11.12-3.72,20.22-11.04,0,0-11.54,12.81-27.16,14.73,0,0-4.16,1.24-10.06-.87,0,0,.9-.1,.62-1.75Z"/>
      <path class="cls-52" d="M983.29,283.64s-7.16-2.21-15.68,.21c0,0-7.37-1.47-13.99,0,0,0,.74,11.89,11.89,14.52,11.15,2.63,17.99-7.79,17.78-14.73Z"/>
      <path class="cls-36" d="M981.5,284.48s.11,10.52-13.57,10.52c-12.42,0-12.52-9.36-12.52-9.36,0,0,13.99,.63,26.1-1.16Z"/>
      <path class="cls-32" d="M979.81,284.63s-3.39,4.87-13.98,4.36c0,0-6.53,.33-9.26-3.14,0,0,13.64,.3,23.24-1.22Z"/>
      <g>
        <path class="cls-32" d="M992.46,251.39s.02-.35-.23-.65c-.83-1-2.74-2.88-5.87-3-3.5-.13-5.55,3.08-6.25,4.23-.12,.2-.12,.38-.12,.38,0,0-.02,.19,.09,.34,.53,.67,2.33,2.55,5.64,2.72,1.97,.1,4.78-.85,6.59-3.46,.13-.18,.14-.42,.14-.55Z"/>
        <circle class="cls-57" cx="985.22" cy="251.73" r="3.62"/>
        <circle class="cls-32" cx="987.53" cy="251.09" r=".99"/>
        <path class="cls-6" d="M979.89,251.96s4.57-8.19,12.47-1.25"/>
      </g>
      <g>
        <path class="cls-32" d="M951.6,252.46s.07-.32-.12-.64c-.62-1.05-2.14-3.07-5.03-3.63-3.23-.62-5.6,2.07-6.41,3.04-.14,.17-.16,.33-.16,.33,0,0-.05,.18,.04,.33,.4,.7,1.8,2.7,4.85,3.34,1.82,.38,4.56-.11,6.62-2.28,.14-.15,.19-.37,.21-.49Z"/>
        <circle class="cls-57" cx="944.81" cy="251.75" r="3.39"/>
        <circle class="cls-32" cx="947.15" cy="251.55" r=".95"/>
        <path class="cls-6" d="M939.95,251.34s5.26-7.47,11.59,.64"/>
      </g>
      <path class="cls-57" d="M942.62,289.34c-6.38-11.96-4.34-27.15-4.34-27.15,0,0,.84-2.89,1.21-8.73,.37-5.81-.85-7.17-.31-12.35,0,0,18.18-4.19,33.61-19.91,0,0,17.9-7.16,4.49-5.65,0,0,5.24-7.08,24.62-1.11,0,0,3.02,28.51,16.94,43.14,0,0,6.88-13.31,14.33-9.84,7.46,3.47-3.93,23.98-3.93,23.98,0,0-3.41,12.19-11.88,6.84,0,0-4.29,11.92-1.39,25.06,0,0,2.33-1.22,5.61-5.16,0,0-2.21,6.2-6.44,10.43,0,0,17.75-4.23,19.44-21.55,0,0,0-5.92,4.65-6.76,4.65-.85,10.97-17.5,10.13-31.86-.85-14.37-11.68-63.18-43.71-64.25,0,0-17.19-7.61-39.14,5.7-21.95,13.3-19.71,16.5-38.32,44.38,0,0-8.5,2.58,5.11,14.13,0,0-3.74,14.64-1.3,10.3,0,0-2.99,15.17,3.61,21.36,0,0-1.03-4.54-.9-11.86,0,0-1.76,16.34,11.18,27.18"/>
      <path class="cls-1" d="M999.76,244.38s-15.49-5.27-29.76,.06c0,0-2.01,20.73,13.71,21.4,0,0,20.4-.39,16.05-21.46Z"/>
      <path class="cls-1" d="M960.04,244.21s5.77-2.7,9.96,.22"/>
      <line class="cls-1" x1="997.75" y1="244.1" x2="1021.5" y2="251.43"/>
      <line class="cls-8" x1="1020.68" y1="276.31" x2="1020.68" y2="288.36"/>
      <polygon class="cls-25" points="1022.29 290.01 1020.82 287.34 1019.59 290.13 1016.6 290.69 1018.87 292.72 1018.48 295.74 1021.11 294.21 1023.87 295.51 1023.23 292.54 1025.31 290.32 1022.29 290.01"/>
      <path class="cls-57" d="M1005.67,184.45s-20.57-15.77-39.35-2.41c0,0-4.61,8.4-16.23,6.27-6.14-1.12-7.65,8.5-7.65,8.5,0,0,1.97,7.96-5.39,7.37,0,0-11.9,3.36-9.91,17.25,1.98,13.89-6.34,18.2-6.34,18.2,0,0-7.04,4.83-3.87,12.46,0,0,3.4,5.1,1.42,7.94-1.98,2.83-5.67,1.98-5.67,1.98,0,0,5.1,3.69,9.36-2.55,4.25-6.24,5.67-11.91,5.67-11.91,0,0-2.55,8.5-.85,13.32,0,0,.28,2.27-3.69,5.95-3.97,3.69-1.98,7.94-1.98,7.94,0,0,1.13-5.39,3.69-5.95,2.55-.57,4.25-1.42,4.25-1.42,0,0,3.54,8.27,6.51,12.91,1.24,1.93,.81,6.25-4.86,7.67-5.67,1.42-.9,12.56-.9,12.56,0,0-.15-10.11,4.67-8.97,4.82,1.13,4.79-3.75,4.79-3.75,0,0-3.69-9.64-2.55-21.54l-1.7-25.23s9.92-1.13,15.88-4.54c0,0,16.2-8.21,21.85-15.3,0,0-8.34,8.09-8.86,11.18-1.18,6.93-8.62,8.62-8.62,8.62,0,0,10.61,1.01,11.66-4.39,1.86-9.63,10.31-9.12,10.31-9.12,0,0,9.39,1.94,14.77-5.72,5.39-7.65,9.86-7.33,9.86-7.33,0,0,14.83-12.3,3.76-29.99Z"/>
      <path class="cls-57" d="M929.12,267.41s2.51,3.5,.24,8.35c-2.26,4.85-5.82,5.18-5.5,9.38,.32,4.21,6.63,11.65,6.63,11.65,0,0-4.53-6.79-2.59-11.65,1.94-4.85,7.73-4.83,7.73-4.83"/>
      <path class="cls-1" d="M960.04,244.21s-13.52-5.11-25.55,1.48c0,0-3.68,18.78,12.03,19.45,0,0,17.86,.13,13.52-20.93Z"/>
      <path class="cls-50" d="M1040.36,904.17c-7.62,28.67,3.11,40.5,3.11,40.5,0,0,.29,14.44-56.38,20.39-49.27,5.17-27.57-11.57-27.57-11.57,0,0,19.16-6.18,38.2-15.92,0,0,11.58-1.84,11.58-39.19l-14.45-107.49,52.33-6.54s8.6,71.53-6.82,119.82"/>
      <path class="cls-54" d="M980.59,945.41s22.88-15.56,26.01-24.25c3.13-8.69,2.5-31.54-1.39-48.16-3.17-13.52-4.86-39.43-4.86-39.43,0,0,25.7,13.18,48.99-2.82,0,0,4.53,29.88-6.81,67.27,0,0-6.15,22.97-4.11,35.78,0,0-12.49,28.62-38.34,23.91l-19.49-12.31Z"/>
      <path class="cls-50" d="M982.91,895.56c-7.62,28.67,3.11,40.5,3.11,40.5,0,0,.29,14.44-56.38,20.39-49.27,5.17-27.57-11.57-27.57-11.57,0,0,19.16-6.18,38.2-15.92,0,0,8.79-3.25,8.79-40.6l-17.66-97.47h49.06s9.47,58.87,2.45,104.66"/>
      <path class="cls-54" d="M922.65,936s19.07-5.74,22.2-14.43c3.13-8.69,5.26-35.49,.04-48.36-5.22-12.87-7.06-44.7-7.06-44.7,0,0,22.88,17.69,46.18,1.69,0,0,6.74,39.91-1.95,69.12,0,0-4.93,21.76,1.45,31.49,0,0-12.93,25.25-38.79,20.53l-22.08-15.34Z"/>
      <path class="cls-53" d="M983.55,929.85c-4.85,7.32-14.46,19.19-36.5,20.03,0,0-5.25-14.24-24.39-13.87,0,0-17.66,1.77-29.98,12.55-10.91,9.55,10.11,22.32,10.11,22.32,0,0,15.02,3.66,33.37-2.58,0,0,8.55-1.77,23.46-5.87,17.13-4.71,26-8.68,26-8.68,0,0,5.17-16.33-2.07-23.89"/>
      <path class="cls-53" d="M986.37,950.76s-.3,3.4-1.48,7.15c0,0-44.46,20.75-77.03,15.96,0,0-9.11-1.23-16.76-9.18,0,0-3.44-4.8-1.6-11.07,0,0,5.76,12.5,19.64,13.08,13.88,.57,46.74-2.76,77.24-15.94Z"/>
      <path class="cls-53" d="M1038.42,933.81c-4.19,7.72-12.73,20.38-34.62,23.14,0,0-6.47-13.73-25.51-11.69,0,0-17.44,3.31-28.77,15.12-10.04,10.46,12.01,21.36,12.01,21.36,0,0,15.28,2.34,33.02-5.49,0,0,8.36-2.51,22.86-7.89,16.65-6.18,25.14-10.91,25.14-10.91,0,0,3.73-16.71-4.14-23.62"/>
      <path class="cls-53" d="M1043.05,954.4s0,3.42-.85,7.26c0,0-42.48,24.55-75.34,22.62,0,0-9.18-.43-17.5-7.68,0,0-3.84-4.48-2.56-10.89,0,0,6.83,11.95,20.7,11.31,13.87-.64,46.32-6.83,75.56-22.62Z"/>
      <g>
        <path class="cls-55" d="M919.49,541.79s59.36,21.36,150.59-2.57c0,0,21.89,9.65,3.47,126.67,0,0-5.42,74.76,2.17,107.26,0,0-16.25,17.34-37.92,11.92,0,0,3.79,20.59-128.93,8.67,0,0-10.7-157.17,10.63-251.94Z"/>
        <line class="cls-17" x1="1037.79" y1="785.07" x2="1044.84" y2="646.38"/>
        <path class="cls-37" d="M919.49,541.79s61.5,19.89,150.59-2.57l8.46,12.61s-111,17.72-160.54-2.89l1.49-7.14Z"/>
      </g>
      <path class="cls-32" d="M1076.9,555.36l-6.1-62.49s29.74-18.51,28.96-37.83c0,0-4.06-56.16-13.1-75.37,0,0-11.3-36.84-35.27-49.74-17.64-9.5-30.6-11.26-30.6-11.26,0,0-10.65,31.94-32.12,37.99-21.47,6.06-30.47-36.16-30.47-36.16l-22.76,9.71c-26.42,10.57-48.8,61.03-48.8,61.03,0,0,24.37,39.87,34.57,46.09h0s8.72,20.46,8.72,27.51c0,4.36-16.09,91.46-16.09,91.46,18.71,11.79,163.06-.95,163.06-.95"/>
      <path class="cls-53" d="M946.73,323.68s-7.97-6.2-23.9,4.43-7.97,70.37-7.97,70.37c0,0,2.21,30.54,13.72,60.19,0,0-4.43-71.26,1.33-93.83,5.75-22.57,16.82-41.16,16.82-41.16Z"/>
      <path class="cls-53" d="M1048.66,319.25s-25.28,.17-13.32,68.83c11.96,68.66,22.49,76.46,22.49,76.46,0,0-10.09-103.03,4.97-126.07,0,0-.82-16.73-14.14-19.22Z"/>
      <path class="cls-53" d="M1099.68,453.92c.87,10.21-2.59,31.34-2.59,31.34,15.36-9.99,16.27-20.87,16.27-20.87,0,0-10.37-46.09-19.59-85.66-9.22-39.56-30.97-40.28-30.97-40.28,14.62,16.52,19.32,29.83,19.32,29.83,0,0,12.97,31.58,17.57,85.63Z"/>
      <g>
        <path class="cls-50" d="M1053.41,457.85c-18.31,1-86.56,23.97-86.56,23.97,0,0-7.02,1.76-9.4,.92l-15.73-9.91s-12.85-5.02-24.99-1.9c0,0-4.74,7.41,11.18,9.15,15.92,1.75-16.48,8.7-16.48,8.7l-11.03-4.62s-7.36-3.39-5.77,3.81c0,0-6.64,4.75,2.14,9.9,0,0-2.58,4.16,8.02,9.71,0,0-4.89,2.88,7.57,9.72l31.21-1.93,13.86-5.89,7.77,.64s104.2,4.99,129.84-24.97c25.63-29.96,0,0,0,0,0,0,9.65-22.64,2.33-39.62,0,0-24.3,7.66-40.28-1l-3.66,13.32Z"/>
        <path class="cls-5" d="M894.63,487.96s8.75,8.04,15.98,9.15c7.23,1.11,18.55-2.06,18.55-2.06"/>
        <path class="cls-5" d="M896.8,497.47s8.75,8.04,15.98,9.15c7.23,1.11,14.59-1.93,14.59-1.93"/>
        <path class="cls-5" d="M904.84,507.48s4.1,3.7,11.33,4.81c7.23,1.11,11.43-.61,11.43-.61"/>
      </g>
      <path class="cls-50" d="M920.07,434.89s-22.84,18.07-39.89,25.23-69.81-78.74-69.81-78.74l-5.43-5.23c-18.02,3.78-29.65-9.46-29.65-9.46-2.95,1.03-9.18,2.48-8.37-1.8,.05-.25,.25-.04,0,0-7.7,1.24-6.89-3.73-6.89-3.73,0,0-4.92,2.19-6.24-1.78-1.23-3.7,5.64-4.14,5.64-4.14l40.56-4.54s-9.77-6.95-12.8-11.57,1.22-6.4,1.22-6.4c1.76-2.52,10.82,4.56,11.11,7.01,.29,2.45,5.04,3.52,5.04,3.52,17.15,3.73,17.45,18.69,17.45,18.69l4.48,5.05s46.79,29.92,54,43.28l7.89-16.64s14.66,26.6,31.71,41.26Z"/>
      <line class="cls-4" x1="760.02" y1="361.15" x2="786.33" y2="358.2"/>
      <path class="cls-4" d="M775.28,366.69s-1.5-2.8,1.49-3.12,11.72,4.44,18.36,1.58"/>
      <path class="cls-4" d="M799.97,350.68s5.32,3,4.27,6.55"/>
      <line class="cls-4" x1="766.92" y1="364.88" x2="789.02" y2="362.15"/>
      <path class="cls-33" d="M962.52,317.68s-22.56,5.33-1.64,50.04l25.43-12.72,26.25,21.74s20.51-39.38,8.2-59.07c0,0-2.87,8.2-7.79,10.66,0,0-.41,20.1-25.43,24.61,0,0-26.66-8.2-24.2-27.48l-.82-7.79Z"/>
      <path class="cls-33" d="M975.24,359.11l-4.1,56.2s9.43,11.49,16.41,.41l4.1-57.84-11.08-4.92-5.33,6.15Z"/>
      <circle class="cls-32" cx="981.7" cy="373.74" r="2.11"/>
      <circle class="cls-32" cx="980.38" cy="394.76" r="2.11"/>
      <polyline class="cls-24" points="960.88 367.72 986.31 355 1012.56 376.74"/>
    </g>
    <g>
      <path class="cls-9" d="M324.19,919.85s-6.71,11.75-2.24,27.41c0,0,12.31,16.22,54.83,11.75,0,0,33.57,20.14,72.73,8.95,0,0,32.45-7.83,6.71-29.09,0,0-33.57-25.73-61.54-30.77,0,0-22.38,22.38-70.49,11.75Z"/>
      <path class="cls-9" d="M289.6,932.58s-6.85,11.99-2.28,27.99c0,0,12.57,16.56,55.97,11.99,0,0,34.27,20.56,74.25,9.14,0,0,33.13-8,6.85-29.7,0,0-34.27-26.27-62.83-31.41,0,0-22.85,22.85-71.97,11.99Z"/>
      <path class="cls-45" d="M345.65,232.77s.62,19.27-9.21,38.11c0,0-2.46,68.79,49.95,74.11,0,0,33.79-21.6,28.5-58.1-.59-4.07-5.8-8.4-7.35-12.83l-61.89-41.3Z"/>
      <path class="cls-56" d="M266.55,525.22s94.31,54.3,198.08,5.63l-17.64,201.93s.58,36.92-6.34,71.61c-6.92,34.69-15.57,115.25-15.57,115.25,0,0-19.6,11.19-49.58,3.36,0,0-34.22,36.96-91.29,7.87,0,0-14.18-72.55-5.53-111.71,0,0,4.52-29.99,2.21-59.08,0,0-36.83-187.3-14.34-234.85Z"/>
      <path class="cls-16" d="M378.15,922.99s10.97-168.54,.55-244.67c0,0,13.67-11.28,19.4-35.62"/>
      <polygon class="cls-43" points="331.78 265.31 339.59 264.13 338.14 272.93 331.78 265.31"/>
      <path class="cls-29" d="M325.17,273.69s-47.05,17.74-69.02,40.15c0,0-15.89,24.82-19.23,48.16,0,0-9.49,25.54-8.03,84.66,0,0,45.49,24.85,59,15.28l-31.83,115.25s32.56,39.52,138.08,40.9c0,0,43.38,.51,65.82-22.36,0,0,14.2-86.81,5.26-153.65,0,0,34.04-45.94,42.36-49.36l-28.15-46.64s-.22-22.15-23.11-41.84c0,0-21.27-15.89-37.08-22.33l-30.78,22.45-2.84,41.77-12.38-35.73s-1.73-10.41-48.08-36.7Z"/>
      <path class="cls-51" d="M325.17,273.69s40.15,23.41,48.08,36.7l-1.1-13.17s-29.77-18.37-40.37-31.91l-6.61,8.38Z"/>
      <path class="cls-51" d="M404.76,273.03s15.05-.47,14.48,8.86l-30.78,22.45-.99-7.78s14.51-6.95,24.03-18.2c0,0-6.39-.82-6.75-5.33Z"/>
      <path class="cls-17" d="M385.63,346.12s10.11,87.09,8.51,271.97"/>
      <ellipse class="cls-47" cx="376.87" cy="351.28" rx="2.4" ry="2.49"/>
      <ellipse class="cls-47" cx="382.96" cy="393.09" rx="2.4" ry="2.49"/>
      <ellipse class="cls-47" cx="385.96" cy="438.35" rx="2.4" ry="2.49"/>
      <ellipse class="cls-47" cx="386.8" cy="479.64" rx="2.4" ry="2.49"/>
      <ellipse class="cls-47" cx="388.02" cy="531.55" rx="2.4" ry="2.49"/>
      <ellipse class="cls-47" cx="388.6" cy="587.19" rx="2.4" ry="2.49"/>
      <path class="cls-45" d="M439.39,155.86s9.84,15.6,5.35,51.76c0,0-1.94,8.64-1.23,13.4,.71,4.75-1.29,12.2-1.69,17.53-2.24,30.13-16.75,38.01-16.75,38.01,0,0-4.75,9.56-21.9,8.9-17.15-.66-33.62-7.08-39.43-14.61-5.81-7.53-18.44-20.56-19.42-31.74,0,0-10.29,1.82-13.83-10.63,0,0-10.14-19.57,1.17-23.98,11.31-4.41,16.97,11.22,16.97,11.22,0,0-14.97-45.44,11.19-61.74,0,0,36.5-24.76,79.56,1.89Z"/>
      <path class="cls-47" d="M403.21,194.98s-14.36-4.22-26.95,1.06c0,0,6.17-9.71,27.32-5.32,0,0,3.5,2.7-.37,4.27Z"/>
      <path class="cls-47" d="M445.86,201.16c-9.38-4.52-15.08-3.06-15.08-3.06-3.24-2.63,.9-4.19,.9-4.19,6.7,.63,11.61,2.15,15.19,3.93,0,0-.5,3.57-1.01,3.32Z"/>
      <path class="cls-23" d="M330.62,212.59s4.83-5.81,8.76,1.09c3.93,6.9,3.95,9.06,3.95,9.06,0,0-5.52-10.88-9.05-3.03"/>
      <path class="cls-47" d="M327.77,206.27s8.84-6.92,14.5,1.96c5.66,8.88,4.34,12.68,4.34,12.68l5.71,.27s-16.76-31.1,3.04-41.94c0,0-2.82-22.86,14.55-25.06,17.37-2.2,26.73-18.65,71.58,5.26,0,0,5.78-25.43-40.16-35.17,0,0-31.04-6.95-41.18,8.44,0,0-20.95,.75-28.43,27.91-7.49,27.17-3.95,45.64-3.95,45.64Z"/>
      <path class="cls-57" d="M403.88,285.43s-15.84,0-27.38-5.72c0,0-9.28-2.9-18.02-14.86,0,0,10.94,17.8,29.12,21.23,.09,.02,.17,.02,.26,.04,.84,.15,7.07,2.37,14.35,.85,0,0,2.04-1.07,1.66-1.53Z"/>
      <path class="cls-19" d="M392.69,179.08s13.26,2.9,19.47,5.01,25.11-.8,25.11-.8"/>
      <path class="cls-47" d="M404.93,236.91s-9.33,5.57-16.51,6.1c0,0,.97,2.86,4,2.67,0,0,12.19-1.34,18.64,2.31,0,0,8.86-1.08,16.67,1.84,0,0,.86,.71,2.66,.53,0,0-7.75-6.96-7.14-10.19,0,0-7.43,2.86-12.27-2.88,0,0-2.26,.85-6.06-.37Z"/>
      <path class="cls-6" d="M418.59,213.17l6.2,18.46s2.4,10.06-5.64,9.42c-6.67-.54-6.86-2.65-6.86-2.65"/>
      <path class="cls-23" d="M383,251.84s-.71-10.8,6.01-13.25c4.57-1.67,7.57-10.11,7.57-10.11"/>
      <g>
        <path class="cls-32" d="M384.65,204.41s.03-.39,.34-.7c1.04-1.01,3.42-2.88,6.92-2.62,3.92,.29,5.81,4.12,6.45,5.49,.11,.24,.08,.43,.08,.43,0,0,0,.22-.15,.36-.68,.68-2.91,2.56-6.63,2.34-2.21-.13-5.23-1.54-6.93-4.68-.12-.22-.11-.48-.09-.63Z"/>
        <circle class="cls-57" cx="392.69" cy="205.69" r="4.06"/>
        <circle class="cls-32" cx="390.31" cy="203.57" r="1.11"/>
        <path class="cls-6" d="M398.6,206.6s-4.09-9.7-13.76-2.93"/>
      </g>
      <g>
        <path class="cls-32" d="M430.07,211.14s-.03-.37,.22-.7c.83-1.09,2.77-3.17,6.06-3.43,3.69-.29,5.99,3,6.78,4.18,.14,.2,.14,.39,.14,.39,0,0,.03,.2-.08,.36-.53,.73-2.34,2.79-5.83,3.13-2.07,.2-5.08-.69-7.11-3.36-.14-.19-.17-.44-.18-.57Z"/>
        <circle class="cls-57" cx="437.73" cy="211.17" r="3.81"/>
        <circle class="cls-32" cx="435.1" cy="209.6" r="1.07"/>
        <path class="cls-6" d="M443.2,211.31s-4.95-8.99-13.02-.72"/>
      </g>
      <g>
        <path class="cls-48" d="M328.66,162.64s12.56-28.78,18.59-35.59c6.03-6.81,64.84-13.42,81.7,1.2,0,0,2.8,6.47,1.65,8.98"/>
        <path class="cls-26" d="M326.61,194.83s-42.82-.76-43.78-6.18c-2.22-12.61,27.28-20.67,27.28-20.67,0,0,70.68-21.57,96.31-30.28,19.4-6.6,63.72-15.9,70.64,5.1,6.92,21-31.7,40.05-31.7,40.05,0,0-71.5-16.57-117.84,3.74,0,0-1.7,4.58-.91,8.24Z"/>
        <path class="cls-23" d="M445.36,182.84s36.26-23.17,16.63-37.43c-15.79-11.47-45.75-1.93-76.6,12.65-30.85,14.58-75.86,21.61-75.86,21.61,0,0-19.02,9.43,17.08,15.15"/>
      </g>
      <path class="cls-47" d="M315.42,373.88l2.07,37.18s21.27,20.46,43.37,0v-40.62s-15.15,8.95-45.44,3.44Z"/>
      <path class="cls-47" d="M414.55,373.88l2.07,37.18s21.27,20.46,43.37,0v-40.62s-15.15,8.95-45.44,3.44Z"/>
      <path class="cls-47" d="M314.04,535l2.34,42.13s24.11,23.19,49.16,0v-46.03s-17.17,10.14-51.5,3.9Z"/>
      <path class="cls-47" d="M410.56,535l2.34,42.13s24.11,23.19,49.16,0v-46.03s-17.17,10.14-51.5,3.9Z"/>
      <path class="cls-15" d="M311.89,279.26s42.47,87.17,27.33,333.98"/>
      <path class="cls-15" d="M317.66,277.16s41.9,90.31,26.75,337.12"/>
      <path class="cls-15" d="M323.26,274.68s41.99,93.16,26.84,339.97"/>
      <path class="cls-15" d="M306.11,281.89s42.7,83.86,27.56,330.66"/>
      <path class="cls-15" d="M418.45,282.87s38.98,83.12,13.07,329.03"/>
      <path class="cls-15" d="M425.84,286.05s36.9,78.11,10.99,324.02"/>
      <path class="cls-15" d="M433.47,289.87s35.68,71.19,9.77,317.1"/>
      <path class="cls-15" d="M412.83,285.17s38.75,82.65,12.84,328.56"/>
      <path class="cls-40" d="M392.83,245.85s8.55-1.63,18.09,2.26c0,0,8.7-.75,16.17,1.8,0,0-2.38,13.64-15.61,15.24-13.23,1.6-19.79-11.31-18.65-19.31Z"/>
      <path class="cls-36" d="M394.79,247.05s-1.48,12.14,14.33,13.91c14.35,1.6,15.67-9.21,15.67-9.21,0,0-16.25-1.07-30-4.7Z"/>
      <path class="cls-32" d="M396.73,247.44s3.32,4.92,15.62,5.7c0,0,7.47,2.36,11.07-1.29,0,0-15.8-1.42-26.7-4.4Z"/>
      <path class="cls-17" d="M287.89,461.94s10.53-20.4,11.61-54.18"/>
      <path class="cls-45" d="M233.71,448.64s-3.36,15.52-3.36,19.86c0,16.34,3.04,21.87,3.04,21.87l25.27,100.92s4.13,15.93,.69,26.86c-3.44,10.93,1.03,22.49,1.03,22.49,0,0,9.63,27.18,40.92,38.11,0,0,6.19-5-5.16-14.68,0,0-13.07-10.93-8.25-26.55,0,0,5.16-5.62,6.19,3.75,1.03,9.37,.69,23.43,10.66,22.49s2.41-21.55,2.41-21.55l-1.38-20.62s-.69-17.18-13.41-21.24l-7.4-114.71,3.4-23.79s-24.07-.3-54.66-13.2Z"/>
      <path class="cls-45" d="M502.71,396.59l17.66,15.54c10.6-13.42,58.18-36.41,58.18-36.41,2.69-1.18,5.33-2.3,7.88-3.33,0,0,.54-14.93,24.86-23.52l14.05-11.3s9.37-4.17,6.82,5.54c0,0-4.49,5.45-8.52,9l11.72,5.16s-.76-1.67,6.21-.97c5.67,.57,4.24,2.3,4.24,2.3,0,0,4.46-7.25,10.43-13.5,3.88-4.07,5.01-8.87,11.07-7.14,0,0,5.48,2.2-.22,9.98l-10.34,19.71-29.1,16.1-22.41,5.62-6.58,7.4s-53.55,76.13-81.81,80.37c-28.26,4.24-51.62-35.05-51.62-35.05,0,0,29.72-39.83,37.49-45.48Z"/>
      <path class="cls-12" d="M618.48,350.7s3.06,.45,5.16,1.48"/>
      <path class="cls-10" d="M609.22,377.36s8.02-11.82,13.22-13.28c0,0,2.29-.41,4.38-5.09,1.99-4.46,1.69-9.48,5.69-8.95,5.79,.76,2.84,7.22,2.84,7.22l-5.85,14.51"/>
      <path class="cls-12" d="M586.42,372.39s2.68,5.29,9.27,7.94"/>
      <path class="cls-10" d="M633.66,361.42l2.71-5.91-1.06-7.76s-.31-3.94,3.55-5.01c4.3-1.19,5.45,3.97,5.45,3.97l.59,10.49-4.83,12.69"/>
      <path class="cls-10" d="M644.9,357.21l1.84-3.04-1.06-7.76s-.31-3.94,3.55-5.01c4.3-1.19,5.45,3.97,5.45,3.97l.59,10.49-4.83,12.69"/>
    </g>
  </g>
</svg>