<?xml version="1.0" encoding="UTF-8"?>
<svg id="Layer_2" data-name="Layer 2" xmlns="http://www.w3.org/2000/svg" xmlns:xlink="http://www.w3.org/1999/xlink" viewBox="0 0 1573.12 1215.2">
  <defs>
    <style>
      .cls-1, .cls-2, .cls-3, .cls-4, .cls-5, .cls-6, .cls-7, .cls-8, .cls-9, .cls-10 {
        fill: none;
      }

      .cls-11 {
        fill: url(#linear-gradient);
      }

      .cls-12 {
        clip-path: url(#clippath);
      }

      .cls-2 {
        stroke-width: .8px;
      }

      .cls-2, .cls-13, .cls-14, .cls-3, .cls-4, .cls-5, .cls-6, .cls-7, .cls-8, .cls-15, .cls-9, .cls-10 {
        stroke-miterlimit: 10;
      }

      .cls-2, .cls-6 {
        stroke: #754c29;
      }

      .cls-16 {
        fill: #00a79d;
      }

      .cls-17 {
        fill: #00979c;
      }

      .cls-18 {
        fill: #f05380;
      }

      .cls-19, .cls-13 {
        fill: #fff;
      }

      .cls-20 {
        fill: #efcccd;
      }

      .cls-21 {
        fill: #803435;
      }

      .cls-22 {
        fill: #98b369;
      }

      .cls-23 {
        fill: #00a651;
      }

      .cls-24 {
        fill: #8b5e3c;
      }

      .cls-25 {
        fill: #8dc63f;
      }

      .cls-26 {
        fill: #ae8578;
      }

      .cls-27 {
        fill: #be9e7d;
      }

      .cls-28 {
        fill: #d6e69e;
      }

      .cls-29 {
        fill: #bf6b6b;
      }

      .cls-30 {
        fill: #231f20;
      }

      .cls-31 {
        fill: #07935b;
      }

      .cls-32, .cls-14 {
        fill: #9c2024;
      }

      .cls-33 {
        fill: #6d6e71;
      }

      .cls-34 {
        fill: #59bede;
      }

      .cls-35 {
        fill: #2e3192;
      }

      .cls-36 {
        fill: #603913;
      }

      .cls-37 {
        fill: #26130f;
      }

      .cls-38 {
        clip-path: url(#clippath-1);
      }

      .cls-39 {
        clip-path: url(#clippath-2);
      }

      .cls-13 {
        stroke: #603913;
      }

      .cls-13, .cls-9, .cls-10 {
        stroke-width: .5px;
      }

      .cls-14, .cls-3, .cls-8 {
        stroke: #231f20;
      }

      .cls-4 {
        stroke: #006838;
      }

      .cls-5 {
        stroke: #2e3192;
      }

      .cls-7 {
        stroke: #be1e2d;
      }

      .cls-8 {
        stroke-width: 1.2px;
      }

      .cls-40 {
        opacity: .5;
      }

      .cls-15 {
        fill: #eae1d3;
        stroke: #8b5e3c;
        stroke-width: 3px;
      }

      .cls-41 {
        fill: #dea962;
      }

      .cls-41, .cls-42 {
        opacity: .8;
      }

      .cls-42 {
        fill: #edb36e;
      }

      .cls-43 {
        fill: #27aae1;
        opacity: .4;
      }

      .cls-9 {
        stroke: #fff;
      }

      .cls-10 {
        stroke: #fff200;
      }
    </style>
    <clipPath id="clippath">
      <rect class="cls-1" y="263.04" width="1097.1" height="192.99"/>
    </clipPath>
    <linearGradient id="linear-gradient" x1="374.56" y1="329.12" x2="374.56" y2="193.23" gradientTransform="translate(2.9 23.8) rotate(1.03)" gradientUnits="userSpaceOnUse">
      <stop offset="0" stop-color="#be9e7d"/>
      <stop offset=".7" stop-color="#231f20"/>
    </linearGradient>
    <clipPath id="clippath-1">
      <path class="cls-1" d="M847.53,383.78s-2.61,5.8,26.58,44.13l4.35,14.51-9.34,19.93-14.43-5.59-9.11-43.62-2.24-27.77,4.2-1.59Z"/>
    </clipPath>
    <clipPath id="clippath-2">
      <rect class="cls-1" x="1.97" y="887.36" width="1332.22" height="112.64"/>
    </clipPath>
  </defs>
  <g>
    <g class="cls-40">
      <g class="cls-12">
        <path class="cls-23" d="M114.84,572.25s88.86,60.19,126.52-35.62c37.65-95.81,80.89-74.09,80.89-74.09,0,0,38.62-40.68-26.13-80.97s-128.33,35.36-128.33,35.36c0,0-32.59,64.71-71.55,10.82-38.96-53.9-116.03,5.31-67.31,41.34,48.72,36.02,72.85,62.68,85.91,103.17Z"/>
        <path class="cls-25" d="M836.24,547s59.44,43.24,60.74-31.08c1.29-74.31-82.71-66.21-89.17-91.88-6.46-25.67-37.48-67.56-120.18-67.56s-14.21,116.2-76.24,131.06c-62.03,14.86-113.72,117.55-31.01,108.09,82.71-9.46,167.99,33.78,171.87,44.59s-3.88,9.46,3.88,10.81c7.75,1.35,148.61,21.62,80.12-104.04Z"/>
        <path class="cls-23" d="M797.61,488.7s-34.03-160.79,67.2-168.22c101.23-7.43,70.21,92.56,114.15,81.75,43.94-10.81,73.66-137.82,117.6-116.2l2.54,198.56-301.49,4.11Z"/>
        <path class="cls-16" d="M319.72,517.97s-5.17-156.74,131.81-117.55c136.98,39.18,173.16,58.1,199.01,32.43,25.85-25.67,65.75,37.83,40.63,85.12H319.72Z"/>
      </g>
    </g>
    <rect class="cls-41" x="585.33" y="-95.48" width="162.82" height="1333.41" transform="translate(1237.97 -95.51) rotate(90)"/>
    <rect class="cls-41" x="574.22" y="241.34" width="185.04" height="1333.41" transform="translate(1574.79 241.31) rotate(90)"/>
    <rect class="cls-42" x="585.33" y="67.12" width="162.82" height="1333.41" transform="translate(1400.56 67.09) rotate(90)"/>
    <rect class="cls-41" x="1150.23" y="143.2" width="162.82" height="203.74" transform="translate(1476.71 -986.57) rotate(90)"/>
    <rect class="cls-42" x="1150.23" y="-20.46" width="162.82" height="203.74" transform="translate(1313.05 -1150.23) rotate(90)"/>
    <rect class="cls-42" x="1150.23" y="306.34" width="162.82" height="203.74" transform="translate(1639.86 -823.43) rotate(90)"/>
    <rect class="cls-43" x=".26" width="1096.86" height="455.98"/>
    <rect class="cls-24" x="1097.35" width="33.68" height="484.45"/>
    <rect class="cls-24" x="548.83" y="-92.62" width="33.68" height="1130.82" transform="translate(1038.45 -92.88) rotate(90)"/>
  </g>
  <g>
    <path class="cls-27" d="M377.5,378.89s10.81,34.25-6.65,67.72c0,0-4.37,122.24,88.77,131.7,0,0,69.4-44.92,42.01-123.34l-124.12-76.08Z"/>
    <line class="cls-17" x1="532.47" y1="905.19" x2="267.25" y2="904.61"/>
    <path class="cls-34" d="M345.34,904.06c-65.57,3.03-77.14-49.2-77.14-49.2l-23.99-156.88c-26.58-112.15,13.56-171.71,13.56-171.71,41.32-52.33,106.56-77.5,106.56-77.5,27.01,13.19,72.64,40.32,72.64,40.32,4.07,37.07,20.05,60.5,20.05,60.5,11.66-23.47,6.3-61.69,6.3-61.69,62.86-33.05,33.88-35.63,33.88-35.63,40.28,3.1,47.73,14.08,79.17,42.78,36.23,33.08,47.36,92.57,47.36,92.57,10.74,44.94,14.8,82.19,16.81,90.94l23.59,226.11-40.37,.28h0c0,21.18,0,0,0,0"/>
    <path class="cls-27" d="M524.42,232.03s22.48,19.44,19.23,73.38c0,0-4.35,13.79-1.22,29.11,0,0,8.05,26.85,1.76,50.36-8.54,31.94-24.22,45.83-24.22,45.83,0,0-11.81,12.87-28.61,10.5,0,0-24.93,9.73-47.76-3.51-22.83-13.24-63-56.04-63-56.04,0,0-20.13,6.43-27.2-14.29-7.07-20.72-17.02-36.37-4.59-49.27,12.43-12.9,29.94,20.36,29.94,20.36,0,0,8.19-10.86,5.06-26.19,0,0-7.86-30.67,8.84-67.78,0,0,56.19-27.32,131.79-12.46Z"/>
    <path class="cls-30" d="M469.9,295.44s-30.55-1.35-49.39,20.17c0,0,2.93-28.57,46.31-31.2,0,0,8.93,4.56,3.08,11.03Z"/>
    <path class="cls-30" d="M543.01,301.71c-17.38-10.29-29.1-6-29.1-6-5.71-6.24,2.94-10.58,2.94-10.58,13.13,.85,22.46,4.09,29.08,8.16,0,0-1.97,8.98-2.92,8.42Z"/>
    <path class="cls-37" d="M482.63,443.6s-23.57,5.35-37.05-4.97c0,0-15.47-7.03-34.01-26.09,0,0,23.07,34.56,51.77,36.65,0,0,17,.45,23.48-3.2,0,0-2.99-1.47-4.19-2.39Z"/>
    <path class="cls-8" d="M350.79,348.61s7.83-23.82,27.45,13.11c0,0-16-15.99-18.11-1.6"/>
    <path class="cls-8" d="M514.98,343.38s14.9,20.23-9.41,23.74"/>
    <path class="cls-30" d="M399.42,251.83s29.8-19.34,46.46,3.46c21.7,29.71,37.78,1.02,55.59,17.5,0,0,18.15-36.68,39.44-10.79,0,0,13.54-41.84-33.84-71.65,0,0-53.17-32.73-106.98,2.79,0,0-51.97,8.82-50.81,57.76,0,0,28.68-26.28,50.15,.92Z"/>
    <path class="cls-11" d="M358.23,223.42s-30.8,20.24-13.52,102.91c0,0,18.2-23.66,35.44,17.98l8.89,15.58s-15.05-85.97,18.08-118.56l-48.9-17.91Z"/>
    <path class="cls-35" d="M361.24,449.51s64.71,39.38,77.49,61.73l-1.77-22.15s-47.99-30.91-65.07-53.68l-10.65,14.1Z"/>
    <path class="cls-35" d="M491.17,448.31s24.25-.8,23.33,14.91l-49.6,37.76-1.6-13.09s23.39-11.69,38.74-30.62c0,0-10.29-1.39-10.87-8.97Z"/>
    <g>
      <polyline class="cls-19" points="645.91 831.99 652.47 842.27 641.73 849.12 634.87 838.38 645.17 831.8"/>
      <polygon class="cls-35" points="636.62 830.32 645.17 831.8 634.96 838.29 629.16 829.24 636.62 830.32"/>
      <polyline class="cls-19" points="629.11 829.27 634.93 838.4 624.19 845.25 617.34 834.51 626.11 828.91"/>
      <rect class="cls-19" x="633.35" y="851.56" width="12.74" height="12.74" transform="translate(-361.12 478.97) rotate(-32.55)"/>
      <rect class="cls-35" x="626.59" y="840.74" width="12.74" height="12.74" transform="translate(-356.35 473.62) rotate(-32.55)"/>
      <rect class="cls-19" x="615.82" y="847.69" width="12.74" height="12.74" transform="translate(-361.79 468.92) rotate(-32.55)"/>
      <rect class="cls-19" x="629.49" y="869.08" width="12.74" height="12.74" transform="translate(-371.15 479.64) rotate(-32.55)"/>
      <rect class="cls-35" x="622.72" y="858.25" width="12.74" height="12.74" transform="translate(-366.39 474.3) rotate(-32.55)"/>
      <rect class="cls-19" x="611.95" y="865.21" width="12.74" height="12.74" transform="translate(-371.82 469.6) rotate(-32.55)"/>
      <rect class="cls-35" x="618.85" y="875.77" width="12.74" height="12.74" transform="translate(-376.42 474.97) rotate(-32.55)"/>
      <polygon class="cls-19" points="634.07 883.95 636.41 888.81 627 896.52 623.33 890.8 634.07 883.95"/>
      <rect class="cls-19" x="608.22" y="882.5" width="12.74" height="12.74" transform="translate(-381.71 470.3) rotate(-32.55)"/>
      <path class="cls-35" d="M627,896.52l-3.57-5.88-10.74,6.86,2.99,3.96s8.68-2.87,11.32-4.94Z"/>
    </g>
    <path class="cls-5" d="M458.4,549.72s7.2,121.98,11.28,255.92"/>
    <ellipse class="cls-20" cx="444.29" cy="558.4" rx="3.87" ry="4.19"/>
    <ellipse class="cls-20" cx="454.09" cy="628.72" rx="3.87" ry="4.19"/>
    <ellipse class="cls-20" cx="457.04" cy="681.7" rx="3.87" ry="4.19"/>
    <ellipse class="cls-20" cx="456.17" cy="741.68" rx="3.87" ry="4.19"/>
    <path class="cls-3" d="M574.21,623.67s21.98,166.78,24.4,209.87"/>
    <path class="cls-3" d="M641.27,831.76s-208.66-40.89-257.69-45.62c0,0-23.45-141.38-51.52-210.01"/>
    <path class="cls-3" d="M384.87,786.54s-45.2,3.72-57.89,43.12"/>
    <g>
      <path class="cls-19" d="M435.01,319.17s-.08-.74,.4-1.42c1.61-2.24,5.42-6.51,12.04-7.21,7.41-.78,12.22,5.76,13.87,8.09,.28,.4,.3,.78,.3,.78,0,0,.07,.41-.15,.73-1.04,1.5-4.58,5.74-11.59,6.58-4.17,.5-10.27-1.13-14.49-6.42-.29-.37-.36-.87-.38-1.14Z"/>
      <circle class="cls-37" cx="450.43" cy="318.88" r="7.7"/>
      <circle class="cls-19" cx="445.43" cy="317.83" r="2.11"/>
      <path class="cls-3" d="M461.77,318.61s-10.87-16.74-26.66-.88"/>
    </g>
    <g>
      <path class="cls-19" d="M511.44,317.12s-.18-.68,.17-1.38c1.18-2.31,4.11-6.83,10.16-8.42,6.78-1.78,12.19,3.61,14.06,5.54,.32,.33,.39,.68,.39,.68,0,0,.12,.37-.04,.7-.75,1.54-3.44,5.99-9.83,7.78-3.8,1.06-9.71,.42-14.39-3.89-.33-.3-.46-.76-.52-1Z"/>
      <circle class="cls-37" cx="525.74" cy="314.62" r="7.22"/>
      <circle class="cls-19" cx="520.75" cy="314.54" r="2.02"/>
      <path class="cls-3" d="M536.01,313.06s-12.24-15.12-24.53,3.01"/>
    </g>
    <path class="cls-26" d="M464.36,387.84s13.02-5.28,29.33-2.13c0,0,13.53-3.94,26.15-2.25,0,0,.53,22.34-19.89,29.05-20.42,6.71-34.88-11.66-35.6-24.67Z"/>
    <path class="cls-21" d="M467.83,389.12s1.49,19.68,27.06,17.48c23.22-2,21.9-19.51,21.9-19.51,0,0-26.05,3.43-48.95,2.03Z"/>
    <path class="cls-19" d="M471.03,389.13s7.12,8.56,26.82,5.9c0,0,12.25-.44,16.81-7.36,0,0-25.45,2.75-43.63,1.46Z"/>
    <g>
      <polyline class="cls-19" points="395.68 786.98 403.23 778.15 417.56 790.41"/>
      <polyline class="cls-19" points="417.47 790.42 429.74 776.08 444.07 788.34 439.46 793.74"/>
      <rect class="cls-19" x="392.76" y="755.53" width="18.87" height="18.87" transform="translate(-440.57 573.45) rotate(-49.46)"/>
      <rect class="cls-35" x="407.01" y="767.95" width="18.87" height="18.87" transform="translate(-445.02 588.63) rotate(-49.46)"/>
      <rect class="cls-19" x="419.27" y="753.46" width="18.87" height="18.87" transform="translate(-429.72 592.87) rotate(-49.46)"/>
      <rect class="cls-19" x="390.7" y="729.13" width="18.87" height="18.87" transform="translate(-421.23 562.65) rotate(-49.46)"/>
      <rect class="cls-35" x="404.95" y="741.56" width="18.87" height="18.87" transform="translate(-425.69 577.83) rotate(-49.46)"/>
      <rect class="cls-19" x="417.21" y="727.07" width="18.87" height="18.87" transform="translate(-410.38 582.07) rotate(-49.46)"/>
      <rect class="cls-19" x="388.63" y="702.65" width="18.87" height="18.87" transform="translate(-401.82 551.8) rotate(-49.46)"/>
      <rect class="cls-35" x="402.89" y="715.07" width="18.87" height="18.87" transform="translate(-406.28 566.98) rotate(-49.46)"/>
      <rect class="cls-19" x="415.14" y="700.58" width="18.87" height="18.87" transform="translate(-390.97 571.23) rotate(-49.46)"/>
      <rect class="cls-19" x="386.57" y="676.25" width="18.87" height="18.87" transform="translate(-382.49 541) rotate(-49.46)"/>
      <rect class="cls-35" x="400.83" y="688.68" width="18.87" height="18.87" transform="translate(-386.94 556.18) rotate(-49.46)"/>
      <rect class="cls-19" x="413.08" y="674.18" width="18.87" height="18.87" transform="translate(-371.63 560.42) rotate(-49.46)"/>
      <rect class="cls-19" x="384.39" y="649.3" width="18.87" height="18.87" transform="translate(-362.77 529.9) rotate(-49.46)"/>
      <rect class="cls-35" x="398.64" y="661.73" width="18.87" height="18.87" transform="translate(-367.23 545.08) rotate(-49.46)"/>
      <rect class="cls-19" x="410.9" y="647.24" width="18.87" height="18.87" transform="translate(-351.92 549.32) rotate(-49.46)"/>
      <rect class="cls-19" x="382.39" y="622.66" width="18.87" height="18.87" transform="translate(-343.22 519.06) rotate(-49.46)"/>
      <rect class="cls-35" x="396.64" y="635.08" width="18.87" height="18.87" transform="translate(-347.67 534.24) rotate(-49.46)"/>
      <rect class="cls-19" x="408.9" y="620.59" width="18.87" height="18.87" transform="translate(-332.37 538.48) rotate(-49.46)"/>
      <rect class="cls-19" x="380.32" y="596.17" width="18.87" height="18.87" transform="translate(-323.81 508.21) rotate(-49.46)"/>
      <rect class="cls-35" x="394.58" y="608.6" width="18.87" height="18.87" transform="translate(-328.27 523.4) rotate(-49.46)"/>
      <rect class="cls-19" x="406.83" y="594.1" width="18.87" height="18.87" transform="translate(-312.96 527.64) rotate(-49.46)"/>
      <rect class="cls-19" x="378.26" y="569.68" width="18.87" height="18.87" transform="translate(-304.41 497.37) rotate(-49.46)"/>
      <rect class="cls-35" x="392.51" y="582.11" width="18.87" height="18.87" transform="translate(-308.86 512.55) rotate(-49.46)"/>
      <rect class="cls-19" x="404.77" y="567.62" width="18.87" height="18.87" transform="translate(-293.55 516.79) rotate(-49.46)"/>
      <rect class="cls-19" x="376.19" y="543.2" width="18.87" height="18.87" transform="translate(-285 486.53) rotate(-49.46)"/>
      <rect class="cls-35" x="390.44" y="555.62" width="18.87" height="18.87" transform="translate(-289.46 501.71) rotate(-49.46)"/>
      <rect class="cls-19" x="402.7" y="541.13" width="18.87" height="18.87" transform="translate(-274.15 505.95) rotate(-49.46)"/>
      <rect class="cls-19" x="374.13" y="516.8" width="18.87" height="18.87" transform="translate(-265.66 475.72) rotate(-49.46)"/>
      <rect class="cls-35" x="388.38" y="529.23" width="18.87" height="18.87" transform="translate(-270.12 490.9) rotate(-49.46)"/>
      <rect class="cls-19" x="400.64" y="514.73" width="18.87" height="18.87" transform="translate(-254.81 495.14) rotate(-49.46)"/>
      <rect class="cls-19" x="372.06" y="490.32" width="18.87" height="18.87" transform="translate(-246.26 464.88) rotate(-49.46)"/>
      <rect class="cls-35" x="386.31" y="502.74" width="18.87" height="18.87" transform="translate(-250.71 480.06) rotate(-49.46)"/>
      <rect class="cls-19" x="398.57" y="488.25" width="18.87" height="18.87" transform="translate(-235.4 484.3) rotate(-49.46)"/>
      <rect class="cls-19" x="370.05" y="463.92" width="18.87" height="18.87" transform="translate(-226.89 454.11) rotate(-49.46)"/>
      <rect class="cls-35" x="384.31" y="476.34" width="18.87" height="18.87" transform="translate(-231.35 469.29) rotate(-49.46)"/>
      <polyline class="cls-35" points="394.96 469.65 392.78 472.3 378.44 460.04 379.08 459.29"/>
      <polygon class="cls-19" points="407.04 484.58 392.7 472.32 394.96 469.65 409.93 480.98 407.04 484.58"/>
    </g>
  </g>
  <g>
    <path class="cls-27" d="M759.88,624.45s-.58,119,2.98,158.2l-22.58,122.37h64.13l34.74-211.09-79.27-69.47Z"/>
    <path class="cls-27" d="M1003.75,371.78s-1.25,51.11,14.66,80.27c0,0,23.08,140.24-91.36,152.43,0,0-87.25-16.63-43.69-131.34,0,0,20.03-9.6,18.98-29.61-1.12-21.18-2.7,.56-2.7,.56l104.1-72.32"/>
    <path class="cls-27" d="M1006.02,329.88s-11.65-106.59-107.72-107.72c0,0-80.88,6.59-56.25,105.42,0,0,3.81,10.48,1.77,18.85,0,0-8.86,13.22,5.18,43.65,14.05,30.43,34.4,47.34,34.4,47.34,0,0,12.28,11.98,36.09,10.65,0,0,18.98,1.03,39.33-14.08,0,0,49.84-30.77,44.94-62.2,0,0,24.58,14.05,32.54-24.06,0,0,5.62-52.4-30.27-17.84Z"/>
    <path class="cls-29" d="M934.7,394.64s-14.01-7.75-28.88,.42c0,0-10.81-3.02-20.95,6.38,0,0,5.73,12.84,26.04,10.73,24.82-2.58,23.79-17.54,23.79-17.54Z"/>
    <path class="cls-31" d="M1040.92,467.53s23.52,0,57.59,28.07c56.5,46.56,35.71,155.44,35.71,155.44,0,0-5.17,23.04-42.37,39.03l29.09,250.17s-144.48,58.86-272.73,29.15c0,0-48.62-9.72-84.91-52.4,0,0,33.11-99.9,45.57-179.68,0,0-27.69-37.12-18.71-84.01l-33.93-30.67,19.74-84.4s15.95-51.22,74.86-64.74c0,0,21.41-1.13,37.6-7.28,0,0-18.34,55.97-15.79,79.29,0,0,32.11,48.01,113.42,14.81,0,0,47.68-37.74,54.84-92.79Z"/>
    <path class="cls-37" d="M915.64,301.53s32.44-10.56,47.54-.07c0,0-11.35-16.9-48.44-7.68,0,0-6.49,5.04,.9,7.76Z"/>
    <path class="cls-37" d="M837.32,302.42c.52-1.78,16.92-4.04,32.33-2.63,0,0,7.18,4,.28,7.8,0,0-28.31-6.44-31.6,2.85,0,0-2.29-3.63-1.01-8.03Z"/>
    <path class="cls-3" d="M882.67,350.76s-11.89,20.9,11.62,21.5"/>
    <path class="cls-3" d="M1031.2,340.71s-8.21-17.66-19.97,12.62c0,0,10.88-13.79,13.82-2.89"/>
    <path class="cls-37" d="M902.23,446.46s17.33,6.83,45.85-5.36c0,0,14.08-6.62,31.23-22.67,0,0-20.71,27.27-54.34,32.27,0,0-10.55,1.88-22.89-.91,0,0,.99-.06,.16-3.32Z"/>
    <g>
      <path class="cls-19" d="M950.95,319.76s-.02-.71-.57-1.27c-1.81-1.88-5.94-5.37-12.23-5.13-7.04,.26-10.66,7.02-11.9,9.43-.21,.42-.18,.77-.18,.77,0,0,0,.39,.24,.66,1.17,1.26,5.05,4.76,11.72,4.61,3.97-.09,9.46-2.43,12.7-7.94,.23-.38,.23-.86,.21-1.12Z"/>
      <circle class="cls-37" cx="936.48" cy="321.55" r="7.28"/>
      <circle class="cls-19" cx="940.51" cy="318.36" r="2"/>
      <path class="cls-3" d="M925.83,322.81s7.93-17.12,24.82-4.39"/>
    </g>
    <g>
      <path class="cls-19" d="M869.18,328.81s.08-.66-.34-1.27c-1.41-2.01-4.76-5.84-10.64-6.52-6.58-.76-10.92,5-12.41,7.07-.26,.36-.28,.69-.28,.69,0,0-.07,.36,.13,.65,.91,1.34,4.02,5.15,10.24,5.96,3.7,.49,9.14-.91,12.95-5.57,.26-.32,.33-.77,.35-1.01Z"/>
      <circle class="cls-37" cx="855.47" cy="328.39" r="6.82"/>
      <circle class="cls-19" cx="859.59" cy="326.03" r="1.91"/>
      <path class="cls-3" d="M845.66,328.3s9.43-15.78,23.36-.46"/>
    </g>
    <path class="cls-7" d="M1091.85,690.08s-65.33-118.32,4.39-179.48"/>
    <path class="cls-4" d="M790.17,653.31s6.39-27.77,13.36-43.92c4.49-10.4,6.12-37.53,6.12-37.53"/>
    <path class="cls-3" d="M884.88,401.45s26.05,5.44,49.82-6.81"/>
    <path class="cls-18" d="M997.82,599.33s-74.15,35.45-176-15.19l-6.2,19.82s93.47,49.77,189.9,13.57l-7.7-18.2Z"/>
    <polyline class="cls-9" points="995.77 608.64 987.37 621.1 975.4 611.02 969.2 623.41 957.29 614.98 946.17 628.65 936.88 616.26 927.31 627.11 919.72 615.77 907.91 625.59 899.19 613.73 886.84 624.12 878.64 611.15 867.3 618.74 860.2 605.72 846.04 611.75 840.05 598.7 826.46 605.26 823.23 592.11"/>
    <polyline class="cls-9" points="998.29 617.39 985.79 607.89 978.59 623.07 966.56 611.34 958.83 627.09 947.35 615.34 936.21 628.45 926.9 615.51 918.46 626.87 909.68 613.36 898.52 625.92 889.71 611.31 878.46 621.66 869.65 607.04 858.94 616.82 851.21 601.62 836.58 609.88 832.1 592.9 819.54 605.47"/>
    <path class="cls-18" d="M755.41,625.44l3.23-15.07s33.56,27.04,34.6,27.15-3.81,15.71-3.81,15.71l-34.01-27.79Z"/>
    <polyline class="cls-9" points="759.23 614.84 761.1 627.16 767.84 622.71 772.24 637.49 779.74 632.38 783.95 645.68 789.41 639.99"/>
    <polyline class="cls-9" points="755.41 625.44 764.15 617.92 764.45 631.91 774.02 627.02 777.12 640.93 785.99 635.97 787.63 647.16"/>
    <path class="cls-18" d="M1133.07,669.88s-20.55,12.84-66.55,2.23l.96-23.49s24.07,11.48,66.75,2.43l-1.16,18.83Z"/>
    <g>
      <path class="cls-27" d="M649.48,904.61s6.2-2.95,15.09-.87c0,0,76.45,36.46,111.74-17.06,0,0,8.23,2.35,12.35-12.94,0,0,5.29,.59,2.94,7.65-2.35,7.06,10,1.18,10,1.18l2.35-8.23-19.41-34.7-41.17-11.76s-15.46-5.92-28.4,2.9l-63.13,9.15s4.14,42.24-2.36,64.68Z"/>
      <path class="cls-6" d="M788.67,873.75l-.96-13.4s1.28-4.09-6.14-8.96-25.08-15.1-34.29-13.82"/>
      <path class="cls-6" d="M740.26,854.41s29.17,8.66,31.77,17.62"/>
      <path class="cls-27" d="M810.54,852.07s-5.4-15.13-30.8-14.05-48.09-8.1-48.09-8.1c0,0-19.99-9.19-14.59,7.02,5.4,16.21,18.37,18.91,18.37,18.91,0,0-46.47,18.91-56.73,32.42s10.27,11.35,10.27,11.35l10.81-3.78s-1.62,15.13,22.69,10.81c0,0,4.23,10.74,15.26,12.32,2.42,.35,6.47,3.37,8.88,3.55,7.02,.54,33.14-5.06,33.14-5.06l62.13-22.69,203.94-36.75c11.9-2.14,22.66-8.42,30.37-17.74,6.34-7.67,14.22-18.81,22.84-34.6,21.44-39.31,33.67-135.57,33.67-135.57,0,0-56.71,10.63-104.85-15.97l-23.63,117.87-167.21,79.73s-19.64,3.14-26.47,.35Z"/>
      <path class="cls-6" d="M750.55,877.15l-50.78,18.69s-14.46,8.95-23.32,.9,36.63-33.04,58.98-40.88c0,0,15.12-7.61,26.76-11.06"/>
      <path class="cls-6" d="M759.18,894.4c-17.69,12.08-36.71,12.24-36.71,12.24,0,0-23.93,4.4-22.69-10.81"/>
      <path class="cls-6" d="M737.73,918.96s-13.53-3.62-15.26-12.32"/>
      <path class="cls-6" d="M735.44,855.86s-24.35-8.64-17.51-27.57c0,0,3.3-4.79,13.73,1.63s48.09,8.1,48.09,8.1"/>
    </g>
    <path class="cls-30" d="M835.64,479.65c-5.68-36.48-4.6-88.35-4.6-88.35-22.67-115.63,9.83-156.54,9.83-156.54,76.47-74.76,148.75-25.95,148.75-25.95,19.4,4.57,66.06,27.86,71.45,86.25,5.39,58.39,13.43,75.34,22.03,115.89,0,0,38.58,119.32,15.15,257.59-3.56,21.03,12.06,67.16,12.06,67.16,0,0-81.61,17.76-118.56-191.15-11.1-62.72,11.73-174.08,11.73-174.08,20.52,6.9,22.27-5.85,22.27-5.85,0,0,13.6-17.92,7.77-36.96-5.92-19.34-28.04,3.17-28.04,3.17-18.07-73.9-52.25-89.72-52.25-89.72-75.48,38.21-107.22,31.7-107.22,31.7,0,0-6.56,16.33-6.49,29.69,.07,13.36,3.48,24.77,3.48,24.77,4.4,8.72,1.61,18.69,1.61,18.69-7.33,19.51,3.92,40.88,3.92,40.88,25.4,55.06,55.67,59.23,55.67,59.23,.98,18.51-15.74,24.76-15.74,24.76"/>
    <g>
      <circle class="cls-10" cx="1021.29" cy="386.88" r="15.5"/>
      <line class="cls-10" x1="1022.33" y1="402.35" x2="1025.69" y2="452.37"/>
      <line class="cls-10" x1="1033.7" y1="396.26" x2="1035.49" y2="422.99"/>
      <line class="cls-10" x1="1029.92" y1="399.8" x2="1032.25" y2="434.53"/>
      <line class="cls-10" x1="1026.2" y1="401.51" x2="1029.03" y2="443.7"/>
      <line class="cls-10" x1="1014.43" y1="400.84" x2="1016.76" y2="435.57"/>
      <line class="cls-10" x1="1018.35" y1="402.04" x2="1021.18" y2="444.23"/>
      <line class="cls-10" x1="1010.09" y1="397.84" x2="1011.88" y2="424.58"/>
    </g>
    <g class="cls-38">
      <g>
        <circle class="cls-10" cx="861.04" cy="390.71" r="15.5"/>
        <line class="cls-10" x1="862.08" y1="406.17" x2="865.44" y2="456.2"/>
        <line class="cls-10" x1="870.8" y1="420.53" x2="872" y2="438.36"/>
        <line class="cls-10" x1="865.95" y1="405.34" x2="868.78" y2="447.53"/>
        <line class="cls-10" x1="854.18" y1="404.67" x2="856.51" y2="439.4"/>
        <line class="cls-10" x1="858.1" y1="405.87" x2="860.93" y2="448.06"/>
        <line class="cls-10" x1="849.84" y1="401.67" x2="851.63" y2="428.41"/>
      </g>
    </g>
    <polyline class="cls-9" points="1129.57 657.12 1122.41 668.53 1112.6 660.31 1105.17 668.53 1100.13 663.49"/>
    <polyline class="cls-9" points="1129.84 667.73 1120.02 659.25 1113.13 668.26 1104.38 659.78 1098.25 668.54"/>
  </g>
  <g>
    <circle class="cls-15" cx="1239.01" cy="143.07" r="78.99"/>
    <polygon class="cls-36" points="1236.35 143.07 1236.35 94.97 1242.45 141.55 1278.83 172.82 1236.35 143.07"/>
    <line class="cls-13" x1="1169.49" y1="143.46" x2="1182.45" y2="143.46"/>
    <line class="cls-13" x1="1295.67" y1="143.46" x2="1308.64" y2="143.46"/>
    <line class="cls-13" x1="1239.5" y1="73.46" x2="1239.5" y2="86.42"/>
    <line class="cls-13" x1="1239.5" y1="199.64" x2="1239.5" y2="212.6"/>
  </g>
  <g class="cls-39">
    <g>
      <polygon class="cls-28" points="1312.97 900.04 1496.33 945.21 .66 945.21 .66 900.04 1312.97 900.04"/>
      <path class="cls-22" d="M1496.33,945.21l76.79,254.15s-69.15,28.23-151.74-7.84c0,0-24.97,31.37-84.51,4.71,0,0-21.13,14.12-113.32-1.57,0,0-65.3-6.27-96.04,3.14,0,0-28.81,18.82-74.91-1.57,0,0-40.34,15.68-76.83,0,0,0-48.02,7.84-105.64-6.27-57.62-14.12-147.9,25.09-147.9,25.09,0,0-15.37-23.53-67.23-17.25,0,0-46.1,21.96-82.59,3.14,0,0-51.86-14.12-169.02-1.57,0,0-26.89,17.25-51.86,0,0,0-293.25,8.01-350.88-12.38v-241.77"/>
      <line class="cls-2" x1="1421.38" y1="1191.52" x2="1406.82" y2="1005.21"/>
      <line class="cls-2" x1="1336.87" y1="1196.22" x2="1355.18" y2="1054.13"/>
      <line class="cls-2" x1="975.77" y1="1196.22" x2="995.84" y2="997.25"/>
      <path class="cls-2" d="M655.01,1197.79s-35.93-122.98-45.43-203.12"/>
      <path class="cls-2" d="M722.24,1215.05s34.57-83.36,26.65-197.11"/>
      <line class="cls-2" x1="403.4" y1="1199.36" x2="389.55" y2="1047.67"/>
      <line class="cls-2" x1="352.12" y1="1197.81" x2="354.08" y2="1011.16"/>
      <line class="cls-2" x1="1052.6" y1="1196.22" x2="1045.09" y2="1081.9"/>
      <line class="cls-2" x1="1127.51" y1="1197.79" x2="1118.58" y2="1045.12"/>
    </g>
  </g>
  <polygon class="cls-19" points="706.22 901.07 758.91 929.85 941.4 929.31 888.17 900.52 706.22 901.07"/>
  <path class="cls-33" d="M749.86,937.63l129.25-22.48,10.81-8.17-10.87-2.28-128.48,25.15s-8.62,3.7-.71,7.78Z"/>
  <g>
    <rect class="cls-32" x="502.3" y="906.7" width="220.13" height="26.74"/>
    <polygon class="cls-32" points="406.8 882.35 502.3 906.7 722.43 906.7 618.81 880.44 406.8 882.35"/>
    <polygon class="cls-32" points="412.5 900.37 502.24 928.31 502.3 933.44 412.5 904.41 412.5 900.37"/>
    <polygon class="cls-19" points="412.5 884.14 502.3 906.7 502.3 929.86 412.5 900.82 412.5 884.14"/>
    <line class="cls-14" x1="502.3" y1="906.7" x2="722.43" y2="906.7"/>
    <polygon class="cls-14" points="527.82 885.71 581.12 885.71 625.68 899.69 569.32 899.69 527.82 885.71"/>
  </g>
</svg>