<?xml version="1.0" encoding="UTF-8"?>
<svg xmlns="http://www.w3.org/2000/svg" xmlns:xlink="http://www.w3.org/1999/xlink" viewBox="0 0 1334.2 1000.63">
  <defs>
    <style>
      .cls-1 {
        stroke-width: 1.5px;
      }

      .cls-1, .cls-2, .cls-3, .cls-4, .cls-5, .cls-6, .cls-7, .cls-8, .cls-9, .cls-10, .cls-11, .cls-12 {
        stroke-miterlimit: 10;
      }

      .cls-1, .cls-2, .cls-3, .cls-5, .cls-6, .cls-7, .cls-8, .cls-9, .cls-10, .cls-11, .cls-12 {
        fill: none;
      }

      .cls-1, .cls-3, .cls-4, .cls-5, .cls-6, .cls-11 {
        stroke: #231f20;
      }

      .cls-13 {
        fill: url(#linear-gradient);
      }

      .cls-2, .cls-3 {
        stroke-width: .8px;
      }

      .cls-2, .cls-12 {
        stroke: #754c29;
      }

      .cls-14 {
        fill: #f6ac1b;
      }

      .cls-15 {
        fill: #f05380;
      }

      .cls-16 {
        fill: #fff;
      }

      .cls-17 {
        fill: #f16225;
      }

      .cls-18 {
        fill: #803435;
      }

      .cls-19 {
        fill: #b6302e;
      }

      .cls-20 {
        fill: #c2b59b;
      }

      .cls-21 {
        fill: #be9e7d;
      }

      .cls-22 {
        fill: #be8c8c;
      }

      .cls-23 {
        fill: #aa856a;
      }

      .cls-24 {
        fill: #d28b29;
      }

      .cls-25 {
        fill: #dc3b28;
      }

      .cls-26 {
        fill: #d5ebe3;
      }

      .cls-27 {
        fill: #134a7e;
      }

      .cls-28, .cls-4 {
        fill: #231f20;
      }

      .cls-29 {
        fill: #1fa8df;
      }

      .cls-30 {
        fill: #092f44;
      }

      .cls-31 {
        fill: #414042;
      }

      .cls-32 {
        fill: #0f3e5d;
      }

      .cls-33 {
        fill: #9b7a64;
      }

      .cls-34 {
        fill: #808285;
      }

      .cls-35 {
        fill: #3c2415;
      }

      .cls-36 {
        fill: #59bede;
      }

      .cls-37 {
        fill: #4a833f;
      }

      .cls-38 {
        fill: #26130f;
      }

      .cls-4 {
        stroke-width: 2px;
      }

      .cls-5 {
        stroke-linecap: round;
      }

      .cls-5, .cls-11, .cls-12 {
        stroke-width: .5px;
      }

      .cls-39 {
        fill: url(#linear-gradient-2);
      }

      .cls-7 {
        stroke: #c3832b;
      }

      .cls-8 {
        stroke: #fff;
      }

      .cls-9 {
        stroke: #594a42;
      }

      .cls-10 {
        stroke: #be1e2d;
      }
    </style>
    <linearGradient id="linear-gradient" x1="348.83" y1="106.22" x2="348.83" y2="29.12" gradientTransform="translate(66.98 -42.59) rotate(16.25)" gradientUnits="userSpaceOnUse">
      <stop offset="0" stop-color="#be9e7d"/>
      <stop offset=".7" stop-color="#231f20"/>
    </linearGradient>
    <linearGradient id="linear-gradient-2" x1="353.86" y1="123.45" x2="378.49" y2="127.8" xlink:href="#linear-gradient"/>
  </defs>
  <g id="fondo">
    <rect class="cls-26" x="1.05" width="1332.04" height="937.53"/>
    <path class="cls-37" d="M1333.9,1000.57l-1333.9,.06v-98.31s3.36-12.72,9.18-13.88l-1.16,22.87s6.2-4.26,7.37-9.3c0,0,2.71,3.88,2.33,10.85,0,0,25.97-20.16,37.21-20.16,0,0-13.18,12.4-13.18,21.71h12.02s-3.1-19.77-8.14-22.87c0,0,12.02,6.2,20.16,20.54,0,0,6.98-7.75,3.88-20.16,0,0,7.37,4.65,9.3,17.06,0,0,8.53-18.22,14.34-18.99,0,0-3.1,16.67-1.94,24.03,0,0,7.75-5.81,7.75-11.63,0,0,3.1,5.81,1.94,12.4,0,0,23.65-18.99,38.38-20.54,0,0-14.34,13.18-15.51,20.93h7.75s-5.04-18.99-7.37-21.32c0,0,16.67,8.53,20.16,19.38,0,0,4.65-17.44,1.55-21.71,0,0,9.69,7.75,10.47,19.77l12.79-22.48-.78,25.2s6.98-6.59,6.98-12.02c0,0,3.88,3.1,2.71,13.57,0,0,30.62-21.71,37.21-21.32,0,0-13.95,11.24-14.34,21.32,0,0,19.38-12.02,23.26-9.69,0,0-6.59,5.04-6.59,12.4H500.93s-1.07-19.84-10.02-19.5c0,0,12.05-3.79,21,11.71,0,0,5.51-8.61,2.41-19.63,0,0,8.95,6.2,9.64,18.25,0,0,8.95-18.94,14.46-18.94,0,0-3.1,14.12-1.38,24.45,0,0,7.92-9.64,7.92-12.4,0,0,2.07,5.85,2.07,13.08,0,0,21.35-20.32,37.19-20.66,0,0-14.46,10.67-14.81,22.04,0,0,17.91-10.67,22.73-10.67,0,0-5.17,6.2-4.82,12.05h182.11s7.79-11.91-4.13-20.62c0,0,17.42,5.04,23.84,17.88,0,0,8.25-11.92,2.75-19.71,0,0,9.63,7.79,10.09,19.26,0,0,8.71-19.71,14.21-22.46,0,0-4.58,13.3-2.29,23.84,0,0,7.79-6.42,7.79-11.92,0,0,2.75,4.58,2.75,13.75,0,0,18.8-16.05,36.68-19.71,0,0-14.21,8.25-14.21,20.63,0,0,15.13-11.92,22.92-11.92,0,0-6.42,4.13-5.04,11h204.18s4.5-10.57,.64-17.01l14.15,17.05s0-22.83-6.11-29.27c0,0,16.72,8.68,19.3,17.37,0,0,8.36-12.86,3.22-19.3,0,0,8.68,6.43,10.29,16.4,0,0,8.36-15.44,12.54-17.69l-1.61,23.48s8.36-6.11,8.36-10.93c0,0,2.57,6.11,2.25,11.9,0,0,25.41-21.55,36.99-20.9,0,0-14.15,14.79-13.51,20.9,0,0,15.12-10.61,21.87-9.33,0,0-6.43,10.29-6.11,15.76h14.47s6.11-17.37-4.18-27.98c0,0,14.79,6.75,17.69,18.65,0,0,7.4-8.04,4.18-18.98,0,0,10.93,10.29,11.26,18.01l8.68-17.69s-9.2,26.62,5.03,29.35h105.69l-.17,82.68Z"/>
    <path class="cls-16" d="M91.59,112.44s-20.11-24.85,13.01-29.58c0,0,2.37-41.41,44.96-29.58,0,0,31.94-29.58,57.97-1.18,0,0,31.94-7.1,33.13,20.11,0,0,17.75-5.92,17.75,17.75,0,0,33.13,1.18,15.38,23.66l-182.2-1.18Z"/>
    <path class="cls-16" d="M970.69,160.19s-15.47-19.11,10.01-22.75c0,0,1.82-31.85,34.58-22.75,0,0,24.57-22.75,44.59-.91,0,0,24.57-5.46,25.48,15.47,0,0,13.65-4.55,13.65,13.65,0,0,25.48,.91,11.83,18.2l-140.13-.91Z"/>
    <path class="cls-16" d="M1333.53,221.17l-148.4-1.18s-20.11-24.85,13.01-29.58c0,0,2.37-41.41,44.96-29.58,0,0,31.94-29.58,57.97-1.18,0,0,31.94-7.1,33.13,20.11"/>
  </g>
  <g id="Layer_1" data-name="Layer 1">
    <g>
      <path class="cls-38" d="M945.27,566.51c-7.52-3.16-3.86-9.77-3.86-9.77-4.49-.85-1.74-8.42-1.74-8.42-4.91-3.84-.57-9.31-.57-9.31-1.83-4.87,3.68-9.44,3.68-9.44-3.25-6.44,3.28-8.04,3.28-8.04-2.86-6.49,4.82-10.76,4.82-10.76-1.86-6.13,.45-10.51,.45-10.51-2.86-7.95,2.6-12.29,2.6-12.29-2.98-6.45,1.71-9.64,1.71-9.64-2.5-6.02,3.05-9.28,3.05-9.28-2.21-6.6,4.53-8.72,4.53-8.72,.55-6.84,6.28-7.61,6.28-7.61,2.37-6.38,9.82-6.93,9.82-6.93,5.25-4.5,10.69-3.07,10.69-3.07,7.63-3.85,13.27-.12,13.27-.12,7.6-3.33,17.36,1.83,17.36,1.83,9.66-1.57,17.83,7.34,17.83,7.34,9.16,.46,9.06,10.09,9.06,10.09,7.52,3.16,4.91,11.23,4.91,11.23,5.83,.24,6.6,6.76,6.6,6.76,5.96,.84,4.89,8.45,4.89,8.45,4.94,2.17,2.18,8.28,2.18,8.28,4.65,4.22,.16,7.78,.16,7.78,3.5,4.9-.87,7.64-.87,7.64,2.86,6.49-.89,9.88-.89,9.88,4.17,3.11,.07,7.42,.07,7.42,5.29,3.89-.23,8.37-.23,8.37,5,3.22,2.8,8.76,2.8,8.76,4.26,2.49,1.65,9.64,1.65,9.64,3.59,4.28-.53,11.28-.53,11.28,6.69,5.38,1.61,12.47,1.61,12.47,4.36,6.83-1.75,11.11-1.75,11.11,1.65,6.06-1.11,8.99-1.11,8.99,0,0,4.29,13.21-8.23,10.89"/>
      <path class="cls-21" d="M979.19,468.56s-7.83,.02-11.44,17.61c0,0,.34,5.93-1.07,9.24-1.41,3.31-2.69,14.35-2.14,20.91,.56,6.56,3.47,17.9,12.69,24.19,9.23,6.3,26.07,.29,26.07,.29,0,0,17.11-5.54,22.08-14.96,0,0,5.05,7.19,11.74,2.87,6.68-4.32,15.03-16.63,8.93-21.14-5.24-3.87-11.5,2.95-13.17,4.97-.28,.33-.43,.53-.43,.53,0,0-14.93-24.54-10.41-39.16,0,0-11.08,6.48-22.36,.86,0,0-14.78,3.86-20.49-6.21Z"/>
      <path class="cls-36" d="M1046.13,478s-.32,7.21-7.03,7.87c-6.7,.67-3.4-8.78-3.4-8.78,0,0-9.76-1.92-8.5-5.57,1.26-3.65,8.09-8.07,9.36-5.31,1.27,2.76,.86,7.77,.86,7.77,0,0,7.71,1.31,8.7,4.01Z"/>
      <path class="cls-21" d="M1111.59,466.39c2.71-.91,3.84-6.63,3.84-6.63l-.19-16.34,2.2-10.87c-.27-3.23-3.36-1.49-3.36-1.49l-2.22,7.95c-.74,1.68-3.26,.56-3.26,.56l1.02-16.81c-.95-5.34-4.22-1.57-4.22-1.57l-2.28,14.65,.67-19.18c-.33-2.66-3.3-2.06-3.3-2.06l-1.38,8.32-.84-6.49c-.99-1.84-3.73-.65-3.73-.65l-2.87,17.8c-2.6,5.87-1.15,15.05-1.15,15.05l5.77,12.8-20.88,56.8-25.95,35.61,24.46,20.61s21.75-28.24,28.83-45.44c7.09-17.2,8.8-62.61,8.8-62.61Z"/>
      <path class="cls-12" d="M1091.7,433.59l5.42-7.94s4.31,.7,3.14,3.8-2.81,11.1-2.81,11.1c0,0,9.12,5.24,8.22,11.57"/>
      <path class="cls-12" d="M1102.61,438.42s7.94-.7,12.64,5"/>
      <path class="cls-21" d="M948.45,446.56l8.09-11.47s3.17-8.73,1.72-14.99l.56-18.02s-2.46-1.69-3.78-.07l-2.05,6.22,.22-8.43s-2.81-1.14-3.63,1.4l-2.98,18.96,.54-14.82s-2.5-4.32-4.44,.74l-2.18,16.7s-2.68,.62-3.09-1.17l-.67-8.23s-2.7-2.3-3.58,.82l.11,11.09-3.28,16.01s.03,5.83,2.52,7.24c0,0-11.14,47.43-7.71,56.31,3.43,8.88,10.24,43.35,10.24,43.35l34.23-6.97-18.27-50.2-2.55-44.46Z"/>
      <path class="cls-12" d="M958.27,420.1l-3.82-8.82s-4.36-.13-3.8,3.14,.66,11.43,.66,11.43c0,0-9.95,3.42-10.27,9.81"/>
      <path class="cls-12" d="M946.64,422.77s-7.66-2.19-13.36,2.51"/>
      <path class="cls-36" d="M1027.94,553.32l9,4.45,20.18-18.78s11.48,15.18,30.52,19.14c0,0-20.52,36.2-26.73,40.1l-25.95,54.84"/>
      <path class="cls-36" d="M978.9,553.92l-12.26-22.16c-5.96-2.45-33.98,10.25-33.98,10.25l11.21,41.69-8.76,46.95"/>
      <path class="cls-21" d="M1021.09,524.55s-4.63,26.4,14.97,35.34c0,0-6.42,18.67-7.25,27.39,0,0-42.62,10.22-72.06-4.79,0,0,17.71-19.42,21.66-31.97,0,0,4.35-3.09,3.14-7.61l39.55-18.36Z"/>
      <path class="cls-28" d="M1000.69,488.5s10.69-.15,18.93,4.84c0,0-3.14-6.52-18.66-7.34,0,0-2.82,.99-.27,2.5Z"/>
      <path class="cls-28" d="M967.97,483.86c7.51-.31,12.64,1.33,12.64,1.33,2.87-.69,.47-2.47,.47-2.47-4.7-1.18-10.12-1.26-13.01-1.11,0,0-.52,2.26-.11,2.25Z"/>
      <path class="cls-22" d="M996.74,522.11s-5.18-2.59-11.98-1.82c0,0-5.43-2.05-10.67-1.77,0,0-.94,9.16,7.23,12.57,8.17,3.41,14.7-3.66,15.42-8.98Z"/>
      <path class="cls-18" d="M995.27,522.53s-1.25,8.04-11.68,6.31c-9.47-1.57-8.36-8.72-8.36-8.72,0,0,10.59,2.25,20.04,2.42Z"/>
      <path class="cls-16" d="M993.96,522.43s-3.2,3.29-11.21,1.56c0,0-5.02-.57-6.67-3.57,0,0,10.36,1.95,17.87,2.01Z"/>
      <path class="cls-3" d="M984.2,499.9s-7.32,5-1.36,9.94"/>
      <path class="cls-38" d="M980.7,542.41s10.07,2.32,19.06,.03c0,0,5.59-.75,14.93-5.51,0,0-5.25,7.17-21.64,8.24,0,0-5.54,.55-12.42-.09,0,0-.77-1.76,.08-2.67Z"/>
      <path class="cls-36" d="M1026.66,552.65s28.66,14.39,35.14,35.35l-10.72,12.52-13.9,31.49s-2.01,22.87-4.74,56.57c0,0-52.43,27.17-102.02-2.7,0,0,2.36-50.3,8.52-77.21,0,0,13.24-18.01,9.49-29.53l-4.2-7.36s2.19-17.54,35.14-22.15c0,0-9.43,13.1,7.03,18.56,0,0,27.73,8.97,40.26-15.54Z"/>
      <circle class="cls-27" cx="986.4" cy="579.6" r="4.13"/>
      <circle class="cls-27" cx="994.55" cy="581" r="4.13"/>
      <circle class="cls-27" cx="1003.02" cy="580.29" r="4.13"/>
      <circle class="cls-27" cx="1011.32" cy="578.22" r="4.13"/>
      <circle class="cls-27" cx="1018.49" cy="573.85" r="4.13"/>
      <circle class="cls-27" cx="1025.09" cy="569" r="4.13"/>
      <circle class="cls-27" cx="978.92" cy="575.98" r="4.13"/>
      <circle class="cls-27" cx="972.32" cy="571.24" r="4.13"/>
      <circle class="cls-27" cx="969.26" cy="563.46" r="4.13"/>
      <circle class="cls-27" cx="988.94" cy="587.18" r="4.13"/>
      <circle class="cls-27" cx="999.22" cy="587.73" r="4.13"/>
      <circle class="cls-27" cx="1009.06" cy="586.07" r="4.13"/>
      <circle class="cls-27" cx="1018.39" cy="582.16" r="4.13"/>
      <circle class="cls-27" cx="1025.36" cy="577.48" r="4.13"/>
      <circle class="cls-27" cx="979.61" cy="583.94" r="4.13"/>
      <circle class="cls-27" cx="971.34" cy="579.24" r="4.13"/>
      <circle class="cls-27" cx="964.37" cy="570.15" r="4.13"/>
      <path class="cls-27" d="M1026.66,552.65s-8.74,19.65-32.76,16.98c-24.02-2.67-14.54-20-14.54-20l-2.62,.19s-7.78,20.09,16.45,21.41c23.54,1.28,26.76-6.55,35.37-17.19l-1.9-1.39Z"/>
      <path class="cls-3" d="M1047,517.3s-2.37-5.31-6.72-1.02c-4.35,4.3-4.82,5.89-4.82,5.89,0,0,6.36-6.92,7.34-.36"/>
      <g>
        <path class="cls-17" d="M1039.66,509.58s-5.37,5.02-1.4,8.43c3.97,3.41-3.12,.58-3.12,.58,0,0-4.73-2.99,2.97-11.27l1.55,2.25Z"/>
        <path class="cls-16" d="M1038.26,518.01s3.49-6.16,7.82-4.06c4.33,2.09-1.82,9.32-1.82,9.32,0,0-1.65,1.65-4.17,1.1,0,0,3.14-4.02-1.83-6.35Z"/>
        <path class="cls-29" d="M1050.59,511.49s3.41,2.66,2.89-1.97c-.51-4.63-6.97-5.82-9.06-5.82-2.1,0-5.22,.53-6.31,3.62-1.09,3.08,3.8,.98,3.8,.98,0,0,6.01-3.2,8.68,3.19Z"/>
      </g>
      <g>
        <path class="cls-16" d="M1011.71,499.01s.06-.29-.1-.57c-.55-.94-1.88-2.77-4.46-3.3-2.89-.59-5.03,1.8-5.77,2.66-.13,.15-.15,.3-.15,.3,0,0-.04,.16,.03,.29,.35,.63,1.58,2.44,4.31,3.04,1.62,.36,4.09-.05,5.96-1.97,.13-.13,.18-.33,.19-.43Z"/>
        <circle class="cls-38" cx="1005.65" cy="498.3" r="3.05"/>
        <circle class="cls-16" cx="1007.66" cy="498.08" r=".84"/>
        <path class="cls-11" d="M1001.19,497.76s4.92-6.18,10.53,.68"/>
      </g>
      <g>
        <path class="cls-16" d="M980.05,494.07s.1-.26-.01-.54c-.37-.94-1.34-2.81-3.63-3.66-2.57-.95-4.87,.94-5.67,1.62-.14,.12-.18,.25-.18,.25,0,0-.06,.14-.01,.27,.23,.63,1.11,2.46,3.52,3.39,1.44,.56,3.76,.53,5.74-.97,.14-.1,.21-.28,.24-.37Z"/>
        <circle class="cls-38" cx="974.59" cy="492.56" r="2.82"/>
        <circle class="cls-16" cx="976.54" cy="492.72" r=".79"/>
        <path class="cls-11" d="M970.67,491.56s5.33-5.41,9.42,2.1"/>
      </g>
      <path class="cls-32" d="M928.04,843.79l-8.28-30.12s-4.02-12.79-2.84-22.22l13.87-105.89s55.55,27.07,101.65,3.03c0,0,5.68,20.11,1.83,50.41,0,0-10.74,52.07-16.95,62.83,0,0,4.73,2.54,7.99,7.07,0,0-12.71,39.36-30.08,27.26l-16.78-13.22c-3.13-2.46-5.58-5.68-7.12-9.35l-4.42-10.52-4.74,39.81s-18.61,12.41-34.12,.93"/>
      <path class="cls-6" d="M966.9,803.05c-2.87-33.53,2.25-74.14,2.25-74.14"/>
      <g>
        <path class="cls-21" d="M965.87,903.15s5.54,10.49,3.21,15.44c0,0-10.85,6.87-18.13-.7,0,0,9.87-4.55,14.93-14.74Z"/>
        <path class="cls-21" d="M963.25,896.74s-5.54,15.57-15.56,18.11c0,0-3.69-8.24-8.63-13.16,0,0,3.54-15.45-11.03-57.9,0,0,10.35,4.54,34.12-.93,0,0,4.88,12.5,1.96,26.49-2.91,13.99-.87,27.39-.87,27.39Z"/>
        <path class="cls-15" d="M969.08,918.59s3.79,7.58,2.33,10.49c0,0-7.58,2.91-17.77,.29,0,0-5.54-1.46-11.36,3.21-5.83,4.66-28.56,6.99-35.84,.29-7.28-6.7,5.24-13.7,5.24-13.7,0,0,17.48-4.95,20.4-12.82,2.91-7.87,6.99-4.66,6.99-4.66,0,0,8.16,6.12,9.32,11.95,0,0,9.32-2.62,14.86-16.9l2.62,6.41s-5.54,11.66-13.99,14.28c0,0,3.21,6.99,17.19,1.17Z"/>
        <circle class="cls-28" cx="949.37" cy="916.63" r="3.79"/>
        <circle class="cls-28" cx="939.62" cy="927.39" r="2.51"/>
        <circle class="cls-28" cx="931.37" cy="930.65" r="2.51"/>
        <circle class="cls-28" cx="921.96" cy="931.96" r="2.51"/>
        <circle class="cls-28" cx="913.99" cy="930.98" r="2.51"/>
        <circle class="cls-28" cx="907.17" cy="928.43" r="2.51"/>
        <path class="cls-5" d="M938.48,921.8s-18.65,8.16-28.26,.58"/>
      </g>
      <g>
        <path class="cls-21" d="M1061.18,870.13s11.24,5.62,12.28,11.32c0,0-5.1,12.61-16.05,10.57,0,0,5.69-10.01,3.77-21.9Z"/>
        <path class="cls-21" d="M1054.97,866.23s4.83,16.82-2.23,25.19c0,0-8.26-4.82-15.54-6.01,0,0-17.29-31.03-41.97-49.26,0,0,20.26-1.6,30.08-27.26,0,0,11.08,16.63,17.2,30.47,6.12,13.84,12.46,26.88,12.46,26.88Z"/>
        <path class="cls-15" d="M1073.46,881.46s7.93,4.19,8.48,7.6c0,0-4.73,7.18-15.13,11.21,0,0-5.67,2.16-7.81,9.77-2.14,7.61-20.28,23.63-30.68,22.35-10.41-1.28-3.93-15.03-3.93-15.03,0,0,12-15.05,9.66-23.62-2.34-8.57,3.15-8.33,3.15-8.33,0,0,10.8,.24,15.4,4.54,0,0,6.41-8.01,2.38-23.72l6.21,3.9s2.42,13.45-3.24,20.92c0,0,7.07,4.05,15.52-9.6Z"/>
        <circle class="cls-28" cx="1055.29" cy="891.91" r="4.01"/>
        <circle class="cls-28" cx="1053.52" cy="907.19" r="2.66"/>
        <circle class="cls-28" cx="1048.43" cy="915.09" r="2.66"/>
        <circle class="cls-28" cx="1041.14" cy="922.02" r="2.66"/>
        <circle class="cls-28" cx="1033.67" cy="926.09" r="2.66"/>
        <circle class="cls-28" cx="1026.22" cy="928.1" r="2.66"/>
        <path class="cls-5" d="M1049.09,903.08s-11.03,18.52-23.98,17.93"/>
      </g>
    </g>
    <g>
      <path class="cls-23" d="M487.17,388.7c1.31,6.72-4.73,31.49-4.73,31.49,10.24,11.6,21.38,32.58,21.38,32.58l23.95,23.07,34.03,8.68,6.6,10.76,10.07,8.33,4.17,20.14s.35,5.9-4.51,1.74c-4.86-4.17-3.13-4.51-3.13-4.51l-7.99,16.67s-4.86,7.64-6.95,.69c-2.08-6.95,2.43-8.68,2.43-8.68l-6.6,3.13s-5.21-5.56,1.39-8.33c6.6-2.78,6.95-7.99,6.95-7.99l-5.21-12.15s-17.02-8.68-11.81,2.43l12.5,9.72s2.43,6.25-5.56,5.21-15.63-6.25-15.63-6.25l-20.49-4.51s-6.62-4.21-11.81-12.5-27.22-16.11-27.22-16.11c0,0-21.84-6.82-31.39-18.43l11.6-75.07"/>
      <path class="cls-34" d="M403.43,920.5s0,2.96,1.26,11.23l92.78,9.46s27.77-.59,29.03-15.37"/>
      <path class="cls-31" d="M407.08,887.22s-8.7,18.51-3.65,33.29l88.36,12.42s24.62,4.14,34.71-7.09c10.1-11.23-61.85-34.29-61.85-34.29,0,0-27.28,18.74-57.57-4.32Z"/>
      <polyline class="cls-8" points="491.59 902.28 472.9 910.37 470.09 893.96 449.3 902.93"/>
      <polyline class="cls-8" points="456.06 891.47 464.79 908.93 478.22 898.07 487.96 917.48"/>
      <path class="cls-34" d="M288.48,928.78s0,2.96,1.26,11.23l92.78,9.46s27.77-.59,29.03-15.37"/>
      <path class="cls-31" d="M291,901.58s-7.57,12.42-2.52,27.2l88.36,12.42s24.62,4.14,34.71-7.09c10.1-11.23-61.85-34.29-61.85-34.29,0,0-28.4,24.83-58.7,1.77Z"/>
      <polyline class="cls-8" points="376.63 910.55 357.94 918.65 355.14 902.24 334.35 911.21"/>
      <polyline class="cls-8" points="341.11 899.74 349.84 917.21 363.27 906.35 373.01 925.75"/>
      <path class="cls-23" d="M374.78,175.87s.42,19.15-13.52,33.69c0,0-20.48,61.95,25.8,80.7,0,0,71.08-31.77,40.54-55.08-4.05-3.09-4.28-5.06-4.47-6.57l-48.35-52.74Z"/>
      <path class="cls-25" d="M350.17,220.15s-47.5,11.27-68.76,31.21c0,0-12.33,9.04-20.86,32.78,0,0-18.82,32.8-21.13,84.58,0,0,26.67,16.6,58.29,18.18l-5.67,40.57-15.87,83.14s20.88,24.71,116.45,32.11c0,0,43.73,3.88,65.45-16.47,0,0,10.27-55,14.44-143.26,0,0,8.52,1.43,16.27-1.32l1.81-78.13s.91-27-23.39-46.91c0,0-18.32-16.26-32.26-23.27l-30.78,24.19-5.2,20.15-7.42-20.06s-9.29-8.91-41.37-37.5Z"/>
      <path class="cls-19" d="M362.97,209.19s-5.77-1.75-8.47,5.51c-1.73,4.66-9.27,6.62-9.27,6.62,0,0-3.28,25.26,12.33,39.95,0,0,16.69-9.9,33.98-3.62,0,0-40.27-32.34-28.57-48.46Z"/>
      <path class="cls-19" d="M424.89,226.35s1.86,13.86-20.73,31.2c0,0,17.61,.61,22.54,9.15,0,0,11.85-16.89,13.5-30.31,0,0-9.73-10.32-15.31-10.04Z"/>
      <path class="cls-19" d="M472.52,383l16.27-1.32-1.62,7.03s-6.85,4.38-15.46,2.08l.82-7.79Z"/>
      <path class="cls-10" d="M298.2,383.36s12.69-25.31,14.34-59.74"/>
      <path class="cls-10" d="M472.52,383s3.06-39.27,1.06-49.03"/>
      <path class="cls-19" d="M239.43,368.72l-1.31,13.3s27.85,16.02,58.32,12.82l1.76-11.47s-36.22-3.06-58.77-14.64Z"/>
      <path class="cls-23" d="M477.16,113.72s6.63,16.18-3.48,49.21c0,0-3.23,7.75-3.35,12.3-.12,4.55-1.75,11.8-4.45,16.09-2.7,4.28-21.86,32.74-21.86,32.74,0,0-6,8.15-21.9,4.72-15.9-3.43-28.05-12.28-32.24-20.26-4.19-7.98-16.03-22.06-15.11-32.65,0,0-9.9,.01-11.17-12.19,0,0-6.26-19.93,5.02-22.2,11.28-2.26,14,13.26,14,13.26,0,0-2.72-44.5,24.37-55.43,0,0,34.32-17.52,70.16,14.42Z"/>
      <path class="cls-22" d="M418.58,189.96s8.56-.34,17.02,5.23c0,0,8.54,.6,15.26,4.45,0,0-4.53,17.11-17.22,13.95-15.82-3.93-17.69-15.5-15.07-23.64Z"/>
      <path class="cls-18" d="M420.28,191.37s-3.46,11.44,11.46,15.79c13.55,3.95,16.63-6.23,16.63-6.23,0,0-15.46-3.76-28.09-9.56Z"/>
      <path class="cls-28" d="M436.5,145.36s-11.65-8.63-24.85-6.05c0,0,8.84-9.32,26.61,1.33,0,0,2.28,4-1.76,4.72Z"/>
      <path class="cls-28" d="M476.71,155.16c-8.87-4.46-14.45-2.29-14.45-2.29-3.02-2.78,1.05-4.93,1.05-4.93,6.45,.18,11.13,1.52,14.52,3.29,0,0-.64,4.17-1.12,3.93Z"/>
      <path class="cls-16" d="M422.09,192.07s2.15,6.39,13.85,9.2c0,0,7.02,2.43,11.1-.48,0,0-14.97-4.01-24.96-8.72Z"/>
      <path class="cls-3" d="M366.32,148.87s5.46-4.63,8,2.46c2.54,7.09,2.2,9.11,2.2,9.11,0,0-3.37-11.07-7.96-4.31"/>
      <path class="cls-38" d="M423.13,228.6s-14.19-2-24.21-9.99c0,0-6.4-3.77-13.07-16.37,0,0,5.22,17.5,21.72,23.64,0,0,7.2,3.55,15.57,2.72,0,0-.77,1.57,0,0Z"/>
      <g>
        <path class="cls-16" d="M418.31,150.47s.09-.39,.46-.63c1.21-.82,3.89-2.26,7.31-1.4,3.83,.96,5.04,5.1,5.44,6.56,.07,.25,0,.44,0,.44,0,0-.04,.22-.21,.33-.79,.56-3.33,2.03-6.97,1.17-2.17-.51-4.91-2.44-6.05-5.84-.08-.24-.02-.5,.02-.64Z"/>
        <circle class="cls-38" cx="426.05" cy="153.13" r="4.09"/>
        <circle class="cls-16" cx="423.75" cy="151.7" r="1.12"/>
        <path class="cls-3" d="M431.75,155.07s-2.36-10.33-13.13-5.3"/>
      </g>
      <g>
        <path class="cls-16" d="M458.46,163.87s.03-.37,.34-.66c1.01-.94,3.29-2.66,6.6-2.35,3.7,.35,5.42,4.02,6,5.33,.1,.23,.07,.41,.07,.41,0,0,0,.21-.14,.34-.66,.63-2.81,2.36-6.32,2.08-2.09-.16-4.92-1.56-6.46-4.57-.11-.21-.09-.46-.08-.6Z"/>
        <circle class="cls-38" cx="466.04" cy="165.24" r="3.83"/>
        <circle class="cls-16" cx="463.57" cy="164.29" r="1.07"/>
        <path class="cls-3" d="M471.44,166.33s-3.34-9.77-12.78-2.97"/>
      </g>
      <path class="cls-13" d="M388.62,81.51s-20.96,14.16-23.81,61.78c0,0,16.3-9.43,15.07,15.98l5.29,1.19s-5.37-39.9,14.18-45.13l-10.73-33.82Z"/>
      <path class="cls-28" d="M438.91,228.89c-9.13,3.86-16,.59-16,.59-7.72-.08-16.35-5.05-16.35-5.05-14.94-6.13-20.28-21.58-20.28-21.58,10.25,16.76,13.06,16.87,15.63,17.43,5.32,1.17,5.46-6.14,5.46-6.14,2.68-14.15,10.89-24.44,10.89-24.44,0,0-9.94,23.93,10.53,29.9,13.59,3.96,22.63-19.98,22.63-19.98-2.36,12.34-6.75,20.79-9.65,25.32,0,0-.99,1.87,3.17-2.39,0,0-2,4.62-6.02,6.32Z"/>
      <path class="cls-35" d="M418.25,189.72s6.87-1.71,12.01-.48c0,0,5.63,1.27,6.06-.21,0,0,2.64,1.1,6.86,1.84,0,0-.44,.67,1.34,2.4,1.78,1.73,6.01,2.71,6.9,6.38,0,0-4.45-2.85-15.67-4.57,0,0-6.41-4.5-17.49-5.35Z"/>
      <path class="cls-3" d="M449.83,172.7s3.52,3.26,1.17,7.91c-3.03,6-10.7,3.32-10.7,3.32"/>
      <path class="cls-39" d="M385.17,160.46s-2.22,35.11,1.1,42.4c0,0-8.83-27.13-6.39-43.59l5.29,1.19Z"/>
      <path class="cls-28" d="M388.62,81.51c31.54-22.18,59.74-6.74,76.9,6.61,15.22,11.84,12.53,29.29,12.53,29.29-23.18,13.21-73.88-14.57-73.88-14.57l-4.82,12.48"/>
      <path class="cls-30" d="M276.18,510.61s-20.23,58.54,1.62,122.4c0,0,14.93,68.59,10.73,98.84,0,0-23.79,61.45,.35,171.3,0,0,41.77,23.82,71.18,2.81l5.62-7.96c5.84-65.29,17.04-231.72,17.04-231.72l38.37,53.51s.74,31.75-3.56,48.23c-5.11,19.58-10.11,63.56-10.11,63.56l-.35,55.64s36.3,31.14,65.73,5.24l38.55-159.81s7.37-40.97-11.47-80.3l-41.8-126.09s-36.97,43.99-181.9-15.64Z"/>
      <path class="cls-23" d="M300.58,497.99l46.28,14.27,11.42,17.97,25.09,23.62c4.97,3.84,16.28-.9,16.28-.9,13.11,2.6,12.21-3.16,12.21-3.16,10.4,.9,6.89-5.43,6.89-5.43,0,0,5.76-.45,4.3-4.86-1.47-4.41-19.33-7.8-19.33-7.8-7.35-9.61-10.62-10.62-12.32-14.35s1.81-3.39,1.81-3.39c0,0,4.07,2.37,9.95,4.41,5.88,2.03,9.04-1.92,9.04-1.92,0,0,.57-2.71-2.83-3.39-3.39-.68-11.57-7.95-11.57-7.95-4.68-4.9-10.82-5.5-10.82-5.5l-21.32-5.53-32.65-28.84s-21.16-23.44-40.95-37.77l4.39-32.64s-24.56,3.59-58.32-12.82c0,0-8.17,52.8-1.69,66.85,12.28,26.61,64.15,49.13,64.15,49.13Z"/>
      <polyline class="cls-2" points="379.79 542.75 388.66 551.43 399.64 552.95"/>
      <polyline class="cls-2" points="386.1 537.81 394.98 546.49 411.85 549.79"/>
      <polyline class="cls-2" points="391.6 532.72 400.47 541.4 418.74 544.36"/>
      <path class="cls-1" d="M382,658.39s-2.08-67.04,16.32-76.24"/>
      <line class="cls-2" x1="568.4" y1="495.28" x2="575" y2="520.98"/>
      <path class="cls-2" d="M564.24,516.47s1.82,8.9-1.74,13.2"/>
    </g>
    <g>
      <g>
        <path class="cls-23" d="M739.85,904.13s4.54,11.51,1.56,16.39c0,0-12.04,5.89-18.73-2.8,0,0,10.76-3.6,17.17-13.58Z"/>
        <path class="cls-23" d="M737.87,897.19s-7.52,15.52-18.21,17.01c0,0-2.88-8.97-7.44-14.64,0,0-1.66-55.23,1.57-75.53,0,0,9.88,6.43,35.17,3.47,0,0-2.43,27.2-7.05,41.38-4.62,14.18-4.04,28.31-4.04,28.31Z"/>
        <path class="cls-20" d="M741.41,920.52s3.06,8.29,1.22,11.15c0,0-8.19,2.16-18.47-1.73,0,0-5.58-2.14-12.15,2.03-6.58,4.17-30.42,3.99-37.21-3.79-6.79-7.78,7.01-13.61,7.01-13.61,0,0,18.7-3.14,22.62-10.97,3.92-7.83,7.79-4.04,7.79-4.04,0,0,7.76,7.28,8.31,13.46,0,0,9.97-1.65,17.35-15.83l1.99,6.95s-7.07,11.46-16.14,13.21c0,0,2.53,7.62,17.7,3.17Z"/>
        <circle class="cls-28" cx="721.2" cy="916.23" r="3.95"/>
        <circle class="cls-28" cx="709.86" cy="926.28" r="2.62"/>
        <circle class="cls-28" cx="700.92" cy="928.72" r="2.62"/>
        <circle class="cls-28" cx="691.01" cy="929" r="2.62"/>
        <circle class="cls-28" cx="682.85" cy="927.08" r="2.62"/>
        <circle class="cls-28" cx="676.07" cy="923.65" r="2.62"/>
        <path class="cls-5" d="M709.31,920.35s-20.28,6.33-29.39-2.62"/>
      </g>
      <g>
        <path class="cls-23" d="M845.11,862.95s12.32,4.49,14.08,10.28c0,0-3.79,13.68-15.38,12.87,0,0,4.71-11.05,1.3-23.15Z"/>
        <path class="cls-23" d="M838.21,859.64s7.01,16.87,.69,26.38c0,0-9.13-4.02-16.83-4.39,0,0-44.94-37.5-58.75-54.32,0,0,12.04-3.31,27.47-25.44,0,0,19.85,21.04,27.83,34.66,7.99,13.62,19.6,23.09,19.6,23.09Z"/>
        <path class="cls-20" d="M859.2,873.23s8.72,3.4,9.69,6.87c0,0-4.05,8.01-14.35,13.42,0,0-5.62,2.91-6.94,11.06s-18.21,26.91-29.15,26.82c-10.94-.09-5.86-15.11-5.86-15.11,0,0,10.65-17.03,7.21-25.63-3.45-8.61,2.27-9.01,2.27-9.01,0,0,11.22-1.04,16.5,2.87,0,0,5.7-9.06-.36-24.87l6.9,3.31s4.11,13.66-.87,22.07c0,0,7.81,3.35,14.95-11.8Z"/>
        <circle class="cls-28" cx="841.59" cy="886.23" r="4.19"/>
        <circle class="cls-28" cx="841.58" cy="902.28" r="2.77"/>
        <circle class="cls-28" cx="837.24" cy="911.07" r="2.77"/>
        <circle class="cls-28" cx="830.5" cy="919.12" r="2.77"/>
        <circle class="cls-28" cx="823.24" cy="924.24" r="2.77"/>
        <circle class="cls-28" cx="815.76" cy="927.2" r="2.77"/>
        <path class="cls-5" d="M836.5,898.55s-9.23,20.52-22.73,21.44"/>
      </g>
      <path class="cls-20" d="M710.89,824.54s-2.83-5.1-4.35-16.97l-4.08-74.64s30.26,22.01,104.11-4.25c0,0,7.73,29.45-1.34,64.09,0,0,4.3,10.44,.73,25.01,0,0-28.57,16.59-44.51,10l-6.44-19.11-2.58,4.72-1.77,14.97s-24.69,1.62-39.77-3.82Z"/>
      <path class="cls-9" d="M755.22,809.74s-2.54-17.8,.39-34.23c0,0-5.88-1.68-7.41-5.77"/>
      <path class="cls-23" d="M774.58,554.28s-2.95,10.51,1.33,24.34c0,0-.81,31.79-26.84,36.26,0,0-30.18-14.13-14-34.4,0,0,2.56-1.11,1.99-5.45,0,0,30.53-1.99,37.51-20.74Z"/>
      <path class="cls-23" d="M740.06,500.04s-8.2,3.53-12.75,19.98c-4.55,16.44-6.47,20.36-6.3,34.35,.18,14.72,18.05,21.06,18.05,21.06,0,0,30.75,2.76,39.17-11.95,0,0,4.58,9.96,13.86,.71,0,0,10.43-10.08,5.3-14.94,0,0-5.84-4.29-11.63,1.54,0,0,11.95-27.11,3.65-34.27,0,0-16.96-29.77-49.36-16.48Z"/>
      <path class="cls-11" d="M795.2,554.98s-.89-7.92-9.4,2.3c0,0,6.02-3.94,5.74,.68"/>
      <path class="cls-38" d="M736.77,574.34s5.44,1.82,11.9,1.14c0,0,5.52,.27,13.15-1.79,0,0-5.86,3.77-15.68,4.1,0,0-5.52,.04-9.67-1.98,0,0,.29-.55,.31-1.46Z"/>
      <path class="cls-22" d="M749.85,557s-4.44-2.71-10.59-2.54c0,0-4.71-2.25-9.42-2.39,0,0-1.54,8.13,5.52,11.81,7.06,3.68,13.45-2.16,14.49-6.88Z"/>
      <path class="cls-18" d="M748.5,557.26s-1.73,7.1-10.94,4.76c-8.37-2.13-6.83-8.45-6.83-8.45,0,0,9.31,2.82,17.77,3.69Z"/>
      <path class="cls-16" d="M747.33,557.08s-3.12,2.7-10.16,.54c0,0-4.45-.9-5.7-3.7,0,0,9.14,2.53,15.86,3.16Z"/>
      <g>
        <path class="cls-16" d="M765.94,538.3s.08-.27-.05-.56c-.45-.95-1.58-2.81-4.01-3.52-2.72-.8-4.97,1.31-5.74,2.07-.13,.13-.17,.27-.17,.27,0,0-.05,.15,0,.28,.29,.63,1.32,2.46,3.88,3.26,1.52,.47,3.92,.28,5.86-1.4,.14-.12,.2-.3,.22-.4Z"/>
        <circle class="cls-38" cx="760.19" cy="537.13" r="2.93"/>
        <circle class="cls-16" cx="761.37" cy="539.01" r=".8"/>
        <path class="cls-11" d="M755.97,536.25s5.22-5.51,10.03,1.5"/>
      </g>
      <g>
        <path class="cls-16" d="M736.95,531.65s.11-.22,.03-.49c-.26-.87-.98-2.62-2.97-3.55-2.22-1.04-4.43,.47-5.2,1.02-.13,.09-.18,.21-.18,.21,0,0-.07,.12-.03,.24,.16,.58,.8,2.28,2.89,3.31,1.24,.61,3.32,.76,5.21-.43,.13-.08,.21-.23,.24-.31Z"/>
        <circle class="cls-38" cx="732.18" cy="529.88" r="2.54"/>
        <circle class="cls-16" cx="732.95" cy="531.58" r=".7"/>
        <path class="cls-11" d="M728.68,528.57s5.2-4.04,8.4,2.62"/>
      </g>
      <path class="cls-11" d="M737.88,538.81s-3.17,.69-3.39,4.21c-.3,4.54,5.09,5.6,5.09,5.6"/>
      <path class="cls-33" d="M734.95,504.61s9,3.68,14.25,1.53c5.25-2.15,38.3,10.94,36.56,44.64,0,0,4.17-5.45,11.63-1.54,0,0,19.64-49.16-24.36-57.97,0,0-21.15-7.99-38.08,13.33Z"/>
      <path class="cls-28" d="M756.84,528.76s12.2,.21,16.11,5.91c0,0-1.91-7.57-15.53-8.85,0,0-2.78,1.02-.58,2.94Z"/>
      <path class="cls-28" d="M727.53,518.3c.39-.59,6.04,.36,10.91,2.54,0,0,1.85,2.22-.88,2.86,0,0-8.46-5.39-10.7-2.38,0,0-.29-1.56,.67-3.02Z"/>
      <path class="cls-28" d="M794.31,548.45s4.15-19.6-14.98-21.51c0,0-3.29-2.1-.6-4.7,0,0,21.62,4.43,18.66,27.01,0,0-.96-1.22-3.08-.8Z"/>
      <path class="cls-28" d="M766.14,511.81s.06,4.44,4.37,4.44c9.83,0,26.48,7.38,29.04,23.37,0,0,1.61-.77,.64-4.5-.97-3.73-6.68-24.02-34.05-23.31Z"/>
      <path class="cls-28" d="M755.8,505.21s-.06,3.65,3.18,3.95c0,0,34.65-5.82,42.62,21.13,0,0-4.97-29.35-45.8-25.08Z"/>
      <path class="cls-28" d="M746.93,499.64s1.58,4.76,4.74,3.99c3.16-.77,44.85-6.12,50.32,21.07,0,0-1.84-31.76-55.05-25.06Z"/>
      <path class="cls-28" d="M751.75,494.07s-1.61,3.6,5.52,2.97,38.11,2.03,43.66,18.6c0,0-6.96-24.44-49.18-21.58Z"/>
      <path class="cls-28" d="M747,503.84s-5.13,2.36-6.51-.44c-1.38-2.79-1.95-3.98-1.95-3.98l4.77-3.67,3.7,8.09Z"/>
      <path class="cls-28" d="M750.96,497.18s-5.75,2.72-5.85-2.36l3.29-1.95,2.56,4.31Z"/>
      <polygon class="cls-28" points="755.49 491.71 750.85 492.79 750.57 491.15 755.04 490.02 755.49 491.71"/>
      <path class="cls-28" d="M763.89,492.27l-6.06-.15-.65-2.26s3.12-1.3,6.02-.39l.69,2.79Z"/>
      <path class="cls-28" d="M772.12,493.49l-6.39-.93-.56-2.58s4.06-.89,6.64,.64l.32,2.87Z"/>
      <path class="cls-28" d="M780.22,495.9l-5.53-1.58-.15-2.83s3.97,.14,5.93,2.03l-.26,2.38Z"/>
      <path class="cls-28" d="M782.64,494.6l-.62,2.46s8.59,2.56,10.75,5.03c0,0-4.76-5.95-10.12-7.48Z"/>
      <path class="cls-23" d="M637.96,596.47l-.27-14.46s-2.7-9.18-7.71-13.5l-10.53-15.3s-3.08,.1-3.18,2.25l2.09,6.41-4.96-7.14s-3.03,.76-2.16,3.38l9.09,17.56-8.58-12.63s-4.71-2.06-3.24,3.33l8.37,15.2s-1.85,2.15-3.28,.92l-5.57-6.42s-3.64-.26-2.47,2.87l6.85,9.14,7.04,15.29s3.58,4.83,6.5,4.48c0,0,18.09,45.87,33.78,50.08,16.15,4.33,42.16-18.52,42.16-18.52l-13.4-39.4-24.43,25.22-26.09-28.74Z"/>
      <path class="cls-12" d="M629.97,568.51l-8.55-4.99s-3.7,2.56-1.24,4.92,7.52,9.09,7.52,9.09c0,0-6.17,8.91-2.55,14.4"/>
      <path class="cls-12" d="M621.95,577.82s-7.7,2.85-9.56,10.23"/>
      <path class="cls-23" d="M871,642.23c2.93,.17,6.19-4.87,6.19-4.87l6.04-15.67,6.24-9.53c.97-3.19-2.64-2.7-2.64-2.7l-5.14,6.74c-1.35,1.32-3.33-.7-3.33-.7l7.37-15.65c1.13-5.45-3.43-3.1-3.43-3.1l-7.74,13.12,7.93-18.05c.7-2.66-2.36-3.23-2.36-3.23l-4.48,7.42,1.67-6.52c-.24-2.14-3.31-2.04-3.31-2.04l-9.51,15.9c-4.72,4.62-6.82,13.93-6.82,13.93l.64,14.41-17.37,18.73-16.55-32.7-26.4,20.09s26.18,57.68,43.34,49.25c22.46-11.03,29.66-44.83,29.66-44.83Z"/>
      <path class="cls-12" d="M864.49,603.35l8.19-5.51s3.84,2.31,1.55,4.82c-2.29,2.51-6.9,9.53-6.9,9.53,0,0,6.71,8.47,3.45,14.17"/>
      <path class="cls-12" d="M873.06,612.11s7.84,2.35,10.16,9.58"/>
      <path class="cls-14" d="M782.46,580.91s16.97,6.46,31.4,23.02c18.02,20.68,22.75,32.8,22.75,32.8,0,0-13.06,21.62-30.44,19.8-1.29-.13-7.89-8.25-9.16-8.57,0,0,9.09,48.55,9.55,80.72,0,0-71.48,30.47-105.03,4.74,0,0,5.22-62.68,4.76-88.41l-7.68,2.36c-8.38-6.7-24.18-28.36-27.78-36.64l33.09-21.57s2.44-4.56,28.46-5.42c0,0-1.91,13.14,14.17,16.81,0,0-.77,7.51,3.81,11.74,0,0,.32-7.57,3.99-11.18,6.12-6.02,24.26-10.52,28.09-20.19Z"/>
      <path class="cls-24" d="M773.94,572.28s3.64-.86,5.02,3.74c.89,2.95,5.47,4.46,5.47,4.46,0,0,1.03,15.75-9.2,24.21,0,0-9.92-6.78-20.86-3.58,0,0,26.16-18.4,19.57-28.83Z"/>
      <path class="cls-24" d="M736.64,578.72s-7.08,6.12,9.94,21.83c0,0-10.91-.32-14.29,4.76,0,0-6.82-13.45-7.31-21.81,0,0,9.18-7.65,11.67-4.78Z"/>
      <path class="cls-7" d="M706.33,655.87s.21-20.2,.93-21.87"/>
      <path class="cls-7" d="M797.02,647.96l-6.52-18.54s-3.57-14.73-1.34-18.3"/>
    </g>
    <g>
      <circle class="cls-16" cx="544.11" cy="903.46" r="49.22"/>
      <polygon class="cls-28" points="548.1 873.5 529.29 882.61 532.15 903.32 552.73 907 562.58 888.56 548.1 873.5"/>
      <path class="cls-28" d="M502.61,929.91l3.58-17.88,17.13,6.4,4.14,17.69-7.91,10.73s-10.35-6.02-16.94-16.94Z"/>
      <path class="cls-28" d="M575.27,941.58l2.28-16.27-18.29-.12-10.17,15.06,6.23,11.12s9.91-1.93,19.95-9.79Z"/>
      <path class="cls-28" d="M515.6,864.4l2.93,13.28-14.53,15.02-7.6-4.58s3.39-15.81,19.2-23.72Z"/>
      <path class="cls-28" d="M582.8,875.13l-2.82,15.25,7.29,17.08,7.39-1.83s-.56-21.46-11.86-30.49Z"/>
      <line class="cls-4" x1="532.15" y1="903.32" x2="523.31" y2="918.43"/>
      <line class="cls-4" x1="552.73" y1="907" x2="559.26" y2="925.19"/>
      <line class="cls-4" x1="577.54" y1="925.31" x2="587.26" y2="907.46"/>
      <line class="cls-4" x1="549.09" y1="940.25" x2="527.46" y2="936.12"/>
      <line class="cls-4" x1="506.19" y1="912.03" x2="503.99" y2="892.7"/>
      <line class="cls-4" x1="518.53" y1="877.68" x2="529.29" y2="882.61"/>
      <path class="cls-4" d="M548.1,873.5l.25-12.86-10.54-4.52s6.96-2.82,22.59,2.26l-10.16,2.45"/>
      <line class="cls-4" x1="562.58" y1="888.56" x2="579.97" y2="890.38"/>
    </g>
  </g>
</svg>