<?xml version="1.0" encoding="UTF-8"?>
<svg xmlns="http://www.w3.org/2000/svg" xmlns:xlink="http://www.w3.org/1999/xlink" viewBox="0 0 1468.64 1000.74">
  <defs>
    <style>
      .cls-1, .cls-2, .cls-3, .cls-4, .cls-5, .cls-6, .cls-7, .cls-8, .cls-9, .cls-10, .cls-11, .cls-12, .cls-13, .cls-14, .cls-15, .cls-16, .cls-17, .cls-18 {
        fill: none;
      }

      .cls-2, .cls-3, .cls-4, .cls-5, .cls-6, .cls-19, .cls-20, .cls-7, .cls-8, .cls-9, .cls-21, .cls-22, .cls-23, .cls-24, .cls-25, .cls-26, .cls-27, .cls-28, .cls-10, .cls-11, .cls-12, .cls-13, .cls-14, .cls-15, .cls-29, .cls-16, .cls-17, .cls-18 {
        stroke-miterlimit: 10;
      }

      .cls-2, .cls-6, .cls-8, .cls-9, .cls-11, .cls-16 {
        stroke: #231f20;
      }

      .cls-2, .cls-29 {
        stroke-width: 1.5px;
      }

      .cls-3 {
        stroke: #f7941d;
      }

      .cls-3, .cls-4 {
        stroke-width: 3px;
      }

      .cls-4 {
        stroke: #009444;
      }

      .cls-30 {
        clip-path: url(#clippath);
      }

      .cls-5, .cls-6 {
        stroke-width: .8px;
      }

      .cls-5, .cls-18 {
        stroke: #754c29;
      }

      .cls-31 {
        fill: #f7daa6;
      }

      .cls-32 {
        fill: #f7d9a4;
      }

      .cls-33, .cls-20, .cls-23 {
        fill: #e6e7e8;
      }

      .cls-34 {
        fill: #fff;
      }

      .cls-35 {
        fill: #fbb040;
      }

      .cls-36 {
        fill: #803435;
      }

      .cls-37, .cls-19 {
        fill: #87664d;
      }

      .cls-38 {
        fill: #9f5079;
      }

      .cls-39 {
        fill: #b19074;
      }

      .cls-40 {
        fill: #ae8578;
      }

      .cls-41 {
        fill: #b1dcc4;
      }

      .cls-42 {
        fill: #a97c50;
      }

      .cls-43, .cls-29 {
        fill: #a7a9ac;
      }

      .cls-44 {
        fill: #b0c2cc;
      }

      .cls-45 {
        fill: #be1e2d;
      }

      .cls-46, .cls-22, .cls-27 {
        fill: #be9e7d;
      }

      .cls-47, .cls-25 {
        fill: #caa88a;
      }

      .cls-48 {
        fill: #d1d3d4;
      }

      .cls-49 {
        fill: #e2c799;
      }

      .cls-50 {
        fill: #d4d5d6;
      }

      .cls-51 {
        fill: #dc3b28;
      }

      .cls-52, .cls-26 {
        fill: #245272;
      }

      .cls-53 {
        fill: #231f20;
      }

      .cls-54 {
        fill: #1fa8df;
      }

      .cls-55 {
        fill: #1c75bc;
      }

      .cls-56 {
        fill: #444848;
      }

      .cls-57, .cls-28 {
        fill: #727b78;
      }

      .cls-58 {
        fill: #26130f;
      }

      .cls-19, .cls-22, .cls-25, .cls-27, .cls-13, .cls-17 {
        stroke: #603913;
      }

      .cls-19, .cls-10 {
        stroke-width: 2px;
      }

      .cls-20 {
        stroke: #58595b;
        stroke-width: .2px;
      }

      .cls-7 {
        stroke: #b0c2cc;
        stroke-width: 5px;
      }

      .cls-59 {
        clip-path: url(#clippath-1);
      }

      .cls-8 {
        stroke-width: .7px;
      }

      .cls-9 {
        stroke-linecap: round;
      }

      .cls-9, .cls-21, .cls-22, .cls-16, .cls-17, .cls-18 {
        stroke-width: .5px;
      }

      .cls-21 {
        fill: #754c29;
        stroke: #fff;
      }

      .cls-23 {
        stroke: #808285;
      }

      .cls-24 {
        fill: #d8c9bf;
        stroke: #a97c50;
      }

      .cls-26 {
        stroke: #2b3990;
      }

      .cls-28 {
        stroke: #414042;
      }

      .cls-10 {
        stroke: #444848;
      }

      .cls-12 {
        stroke: #d1d3d4;
      }

      .cls-14 {
        stroke: #6d6e71;
      }

      .cls-15 {
        stroke: #be1e2d;
      }

      .cls-29 {
        stroke: #a7a9ac;
      }
    </style>
    <clipPath id="clippath">
      <path class="cls-1" d="M1022.39,985.39c39.83-.17,49.94-33.13,49.94-33.13l5.78,3.19-2.18-49.83-6.46,4.78c-12.37-14.13-21.19-26.7-47.05-25.71l18.47,39.98-17.33,30.33,17.25,12.55-18.42,17.85Z"/>
    </clipPath>
    <clipPath id="clippath-1">
      <rect class="cls-1" x="134.74" y="218.97" width="954" height="636.34"/>
    </clipPath>
  </defs>
  <g id="Layer_2" data-name="Layer 2">
    <rect class="cls-41" x="134.1" width="1334.54" height="874.05"/>
    <rect class="cls-32" x="134.52" y="838.45" width="1334.09" height="161.9"/>
    <g>
      <path class="cls-4" d="M737.85,954.35s7.94-41.7,38.3-53.59"/>
      <path class="cls-38" d="M732.28,962.26s-14.2,14.4-21.62,10.28c0,0-7.98-4.51-2.28-13.19,5.7-8.67,23.9,2.9,23.9,2.9Z"/>
      <path class="cls-38" d="M732.48,962.49s-19.84-3.89-20.51-12.35c0,0-.64-9.14,9.74-9.18,10.38-.04,10.77,21.53,10.77,21.53Z"/>
      <path class="cls-38" d="M732.37,961.8s-16.89,11.12-14.3,19.2c0,0,2.87,8.7,12.49,4.8,9.62-3.9,1.81-24.01,1.81-24.01Z"/>
      <path class="cls-38" d="M732.28,962.26s18.21,8.8,23.81,2.43c0,0,6-6.93-2.28-13.19s-21.54,10.76-21.54,10.76Z"/>
      <path class="cls-38" d="M732.26,962.43s18.24-8.74,16.76-17.09c0,0-1.67-9.01-11.72-6.45-10.06,2.56-5.04,23.54-5.04,23.54Z"/>
      <path class="cls-38" d="M732.04,961.16s20.11,2.11,21.53,10.47c0,0,1.46,9.05-8.88,10.01-10.33,.96-12.65-20.48-12.65-20.48Z"/>
      <circle class="cls-35" cx="732.99" cy="961.24" r="4.42"/>
      <path class="cls-4" d="M835.98,957.12s44.84-2.32,76.61,4.96"/>
      <path class="cls-38" d="M826.95,960.82s-14.2-14.39-9.98-21.76c0,0,4.62-7.92,13.22-2.1,8.6,5.82-3.23,23.86-3.23,23.86Z"/>
      <path class="cls-38" d="M826.92,960.52s10.09,17.52,18.31,15.42c0,0,8.86-2.34,5.54-12.18-3.32-9.84-23.85-3.24-23.85-3.24Z"/>
      <path class="cls-38" d="M826.8,960.64s19.99,3.06,23.48-4.68c0,0,3.7-8.38-6.05-11.93-9.75-3.55-17.42,16.61-17.42,16.61Z"/>
      <path class="cls-38" d="M827.34,959.47s15.43,13.07,11.89,20.78c0,0-3.89,8.3-12.98,3.27s1.09-24.05,1.09-24.05Z"/>
      <path class="cls-4" d="M816.37,900.51s37.91,4.3,69.69,11.58"/>
      <path class="cls-38" d="M807.31,903.91s-19.84,3.9-23.65-3.68c0,0-4.05-8.22,5.54-12.18,9.6-3.96,18.11,15.86,18.11,15.86Z"/>
      <path class="cls-38" d="M807.34,904.21s-14.2-14.39-9.98-21.76c0,0,4.62-7.92,13.22-2.1,8.6,5.82-3.23,23.86-3.23,23.86Z"/>
      <path class="cls-38" d="M807.65,903.57s-20.22-.32-22.63,7.81c0,0-2.53,8.81,7.61,11,10.14,2.2,15.02-18.82,15.02-18.82Z"/>
      <path class="cls-38" d="M807.31,903.91s10.09,17.52,18.31,15.42c0,0,8.86-2.34,5.54-12.18-3.32-9.84-23.85-3.24-23.85-3.24Z"/>
      <path class="cls-38" d="M807.2,904.04s19.99,3.06,23.48-4.68c0,0,3.7-8.38-6.05-11.93-9.75-3.55-17.42,16.61-17.42,16.61Z"/>
      <path class="cls-38" d="M807.73,902.87s15.43,13.07,11.89,20.78c0,0-3.89,8.3-12.98,3.27-9.08-5.03,1.09-24.05,1.09-24.05Z"/>
      <circle class="cls-35" cx="808.47" cy="903.47" r="4.42"/>
      <path class="cls-4" d="M864.8,909.89s50.71-25.69,50.17-58.29"/>
      <path class="cls-38" d="M870.27,917.87s8.53,18.33,2.08,23.85c0,0-7.01,5.9-13.15-2.47-6.14-8.37,11.07-21.38,11.07-21.38Z"/>
      <path class="cls-38" d="M870.55,917.77s-10.58,17.23-18.74,14.9c0,0-8.79-2.59-5.2-12.33,3.59-9.74,23.94-2.57,23.94-2.57Z"/>
      <path class="cls-38" d="M869.86,917.63s4.52,19.71,13,20.1c0,0,9.16,.35,8.86-10.02-.29-10.37-21.86-10.08-21.86-10.08Z"/>
      <path class="cls-38" d="M870.27,917.87s14.6-13.99,10.59-21.47c0,0-4.39-8.04-13.15-2.47s2.56,23.94,2.56,23.94Z"/>
      <path class="cls-38" d="M870.42,917.95s-1.81-20.14-10.16-21.68c0,0-9.03-1.59-10.14,8.73-1.11,10.32,20.3,12.94,20.3,12.94Z"/>
      <path class="cls-38" d="M869.15,917.71s9-18.11,17.33-16.51c0,0,8.99,1.8,6.28,11.82-2.71,10.02-23.61,4.7-23.61,4.7Z"/>
      <circle class="cls-35" cx="869.56" cy="916.85" r="4.42"/>
      <path class="cls-24" d="M944.25,958.3s-15.57,2.73-25.88,13.62l-9.94,.47-3.01-63.07,11.23-.54s9.57,8.82,27.45,11.43c0,0,5.45,9.42,14.02,9.44l-11.47,12.19-2.4,16.46Z"/>
      <path class="cls-24" d="M1022.51,985.57c39.83-.17,49.94-33.13,49.94-33.13l5.78,3.19-2.18-49.83-6.46,4.78c-12.37-14.13-21.19-26.7-47.05-25.71l18.47,39.98-17.33,30.33,17.25,12.55-18.42,17.85Z"/>
      <path class="cls-52" d="M925.28,966.14c-2.4,1.6-4.77,3.51-6.91,5.77l-9.94,.47-3.01-63.07,11.23-.54s2.28,2.82,6.22,5.09"/>
      <path class="cls-3" d="M1072.46,952.44s4.98-16.32-2.86-41.86"/>
      <path class="cls-38" d="M826.92,960.52s-19.84,3.9-23.65-3.68c0,0-4.05-8.22,5.54-12.18,9.6-3.96,18.11,15.86,18.11,15.86Z"/>
      <path class="cls-38" d="M827.25,960.18s-20.22-.32-22.63,7.81c0,0-2.53,8.81,7.61,11,10.14,2.2,15.02-18.82,15.02-18.82Z"/>
      <circle class="cls-35" cx="828.08" cy="960.07" r="4.42"/>
      <g class="cls-30">
        <path class="cls-26" d="M1066.36,933.4s-29.48,23.3-42.22,14.01c0,0-13.68-10.14-1.19-24.84,12.5-14.69,43.41,10.83,43.41,10.83Z"/>
        <path class="cls-26" d="M1066.47,933.69s-36.61-8.49-37.3-24.24c0,0-.61-17.02,18.66-16.43s18.64,40.67,18.64,40.67Z"/>
        <path class="cls-26" d="M1066.36,931.3s-35.63,11.94-34.82,27.68c0,0,1.01,17,20.14,14.58,19.13-2.42,14.68-42.26,14.68-42.26Z"/>
      </g>
      <path class="cls-24" d="M960.6,911.29s6.79-10.94,15.55-15.01l15.62,23.05-17.63,23.75-13.54-31.79Z"/>
      <path class="cls-24" d="M962.82,949.57l-8.24,14.89s-.85,23.74,10.99,28.07l7.36-24.71-10.11-18.24Z"/>
      <polygon class="cls-24" points="996.99 940.25 984.85 952.03 1002.9 971.5 1008.65 945.07 996.99 940.25"/>
      <polygon class="cls-24" points="1002.76 895.39 1017.08 894.47 1010.89 919.05 1002.76 895.39"/>
      <polygon class="cls-24" points="1023.14 920.73 1009.12 928.47 1007.54 937.4 1025.21 941.06 1023.14 920.73"/>
      <path class="cls-24" d="M1017.59,963.44l-10.34,13-10.17,18.65s8.11,6.88,14.49,4.74l6.03-36.38Z"/>
      <polygon class="cls-24" points="984.19 969.13 991.36 980.14 976.13 989.67 984.19 969.13"/>
    </g>
    <g>
      <rect class="cls-42" x="991.68" y="718.2" width="329.49" height="35.97" transform="translate(53.61 1550.5) rotate(-68.92)"/>
      <polygon class="cls-42" points="1222.8 599.08 1444.04 684.35 1438.13 699.69 1263.9 648.7 1177.65 872.5 1342.8 950.84 1335.9 968.74 1118.21 881.91 1222.8 599.08"/>
      <line class="cls-19" x1="1227.61" y1="600.46" x2="1118.21" y2="881.91"/>
    </g>
    <g class="cls-59">
      <g>
        <rect class="cls-56" x="507.75" y="638" width="67.16" height="107.42"/>
        <path class="cls-57" d="M928.48,266.04s49.54,6.1,48.82,47.21l-17.86,155.01v172.01H134.79l-27.63-170.99-12.58-155.57s-4.36-48.17,79.83-53.93c0,0,353.77-35.75,754.07,6.27Z"/>
        <rect class="cls-56" x="21.89" y="744.23" width="1028.52" height="58.17"/>
        <rect class="cls-37" x="21.91" y="801.95" width="57.36" height="50.53"/>
        <rect class="cls-37" x="993.13" y="801.33" width="57.36" height="36.35"/>
        <path class="cls-56" d="M62.53,469.17h48.76s26.02,8.19,26.02,37.22v132.24H53.87s8.65-169.46,8.65-169.46Z"/>
        <path class="cls-56" d="M1011.44,469.17h-48.76s-26.02,8.19-26.02,37.22v132.24h83.44l-8.65-169.46Z"/>
        <rect class="cls-57" x=".75" y="469.17" width="98.43" height="197.51" rx="15.24" ry="15.24"/>
        <rect class="cls-57" x="970.07" y="469.17" width="98.43" height="197.51" rx="15.66" ry="15.66"/>
        <rect class="cls-28" x=".5" y="638.81" width="536.94" height="106.61" rx="36.95" ry="36.95"/>
        <rect class="cls-28" x="538.21" y="638.81" width="531.56" height="106.61" rx="36.95" ry="36.95"/>
        <g>
          <line class="cls-10" x1="646.85" y1="513.87" x2="646.85" y2="637.99"/>
          <line class="cls-10" x1="654.63" y1="516.66" x2="654.63" y2="637.99"/>
          <line class="cls-10" x1="661.97" y1="504.05" x2="661.97" y2="637.99"/>
          <line class="cls-10" x1="669.75" y1="507.06" x2="669.75" y2="637.99"/>
          <line class="cls-10" x1="703.92" y1="276.9" x2="703.92" y2="637.99"/>
          <line class="cls-10" x1="711.7" y1="285.01" x2="711.7" y2="637.99"/>
          <line class="cls-10" x1="719.04" y1="248.3" x2="719.04" y2="637.99"/>
          <line class="cls-10" x1="726.81" y1="257.06" x2="726.81" y2="637.99"/>
          <line class="cls-10" x1="760.64" y1="276.9" x2="760.64" y2="637.99"/>
          <line class="cls-10" x1="768.41" y1="285.01" x2="768.41" y2="637.99"/>
          <line class="cls-10" x1="775.76" y1="257.47" x2="775.76" y2="637.99"/>
          <line class="cls-10" x1="783.53" y1="257.06" x2="783.53" y2="637.99"/>
          <line class="cls-10" x1="820.32" y1="276.9" x2="820.32" y2="637.99"/>
          <line class="cls-10" x1="828.1" y1="285.01" x2="828.1" y2="637.99"/>
          <line class="cls-10" x1="835.44" y1="259.47" x2="835.44" y2="637.99"/>
          <line class="cls-10" x1="843.22" y1="257.06" x2="843.22" y2="637.99"/>
          <line class="cls-10" x1="906.24" y1="276.9" x2="906.24" y2="637.99"/>
          <line class="cls-10" x1="914.01" y1="285.01" x2="914.01" y2="637.99"/>
          <line class="cls-10" x1="921.36" y1="267.64" x2="921.36" y2="637.99"/>
          <line class="cls-10" x1="929.13" y1="266.04" x2="929.13" y2="637.99"/>
        </g>
        <g>
          <line class="cls-10" x1="428.32" y1="513.87" x2="428.32" y2="637.99"/>
          <line class="cls-10" x1="420.54" y1="516.66" x2="420.54" y2="637.99"/>
          <line class="cls-10" x1="413.2" y1="504.05" x2="413.2" y2="637.99"/>
          <line class="cls-10" x1="405.42" y1="507.06" x2="405.42" y2="637.99"/>
          <line class="cls-10" x1="371.25" y1="276.9" x2="371.25" y2="637.99"/>
          <line class="cls-10" x1="363.47" y1="285.01" x2="363.47" y2="637.99"/>
          <line class="cls-10" x1="356.13" y1="248.3" x2="356.13" y2="637.99"/>
          <line class="cls-10" x1="348.35" y1="257.06" x2="348.35" y2="637.99"/>
          <line class="cls-10" x1="314.53" y1="276.9" x2="314.53" y2="637.99"/>
          <line class="cls-10" x1="306.76" y1="285.01" x2="306.76" y2="637.99"/>
          <line class="cls-10" x1="299.41" y1="248.3" x2="299.41" y2="637.99"/>
          <line class="cls-10" x1="291.64" y1="257.06" x2="291.64" y2="637.99"/>
          <line class="cls-10" x1="254.85" y1="276.9" x2="254.85" y2="637.99"/>
          <line class="cls-10" x1="247.07" y1="285.01" x2="247.07" y2="637.99"/>
          <line class="cls-10" x1="239.73" y1="258.14" x2="239.73" y2="637.99"/>
          <line class="cls-10" x1="231.95" y1="257.06" x2="231.95" y2="637.99"/>
          <line class="cls-10" x1="168.93" y1="276.9" x2="168.93" y2="637.99"/>
          <line class="cls-10" x1="161.15" y1="285.01" x2="161.15" y2="637.99"/>
          <line class="cls-10" x1="153.81" y1="267.64" x2="153.81" y2="637.99"/>
          <line class="cls-10" x1="146.04" y1="266.04" x2="146.04" y2="637.99"/>
        </g>
        <path class="cls-7" d="M535.83,620.7c6.29-5.76,13.05,1.61,19.34-4.15s-.46-13.14,5.83-18.9,13.05,1.61,19.34-4.15-.46-13.14,5.83-18.9c6.29-5.76,13.05,1.61,19.34-4.15s-.46-13.14,5.83-18.9c6.29-5.76,13.05,1.61,19.34-4.16s-.47-13.14,5.83-18.9,13.05,1.61,19.34-4.16-.46-13.14,5.83-18.9,13.05,1.61,19.34-4.16-.46-13.14,5.83-18.9,13.05,1.61,19.34-4.16c6.29-5.76-.47-13.14,5.82-18.9s13.05,1.61,19.34-4.15-.47-13.14,5.82-18.9,13.05,1.61,19.34-4.16-.46-13.14,5.83-18.9,13.05,1.61,19.34-4.16-.46-13.14,5.83-18.9,13.05,1.61,19.34-4.16-.46-13.14,5.83-18.9,13.05,1.61,19.34-4.16-.46-13.14,5.83-18.9,13.05,1.61,19.34-4.16-.47-13.14,5.83-18.9,13.05,1.61,19.34-4.16-.46-13.14,5.83-18.91,13.05,1.61,19.34-4.16-.46-13.14,5.84-18.91,13.05,1.6,19.35-4.17"/>
        <path class="cls-7" d="M168.27,262.56c6.01,5.78-.92,12.99,5.09,18.76s12.94-1.43,18.95,4.35-.92,12.99,5.09,18.76,12.94-1.43,18.95,4.35-.92,12.99,5.09,18.76,12.94-1.43,18.95,4.35-.92,12.99,5.09,18.76,12.94-1.43,18.95,4.35-.92,12.99,5.09,18.76c6.01,5.78,12.94-1.43,18.95,4.35s-.92,12.99,5.09,18.76c6.01,5.78,12.94-1.43,18.95,4.35,6.01,5.78-.92,12.99,5.09,18.76s12.94-1.43,18.95,4.34-.92,12.99,5.09,18.76,12.94-1.43,18.95,4.34-.92,12.99,5.09,18.76,12.94-1.43,18.95,4.35-.92,12.99,5.09,18.76,12.94-1.43,18.95,4.35-.92,12.99,5.09,18.77,12.94-1.43,18.95,4.35-.92,12.99,5.09,18.77,12.94-1.43,18.95,4.35-.92,12.99,5.09,18.77,12.94-1.43,18.95,4.35-.92,12.99,5.09,18.77,12.94-1.43,18.96,4.35-.92,12.99,5.09,18.77,12.95-1.43,18.96,4.36c6.01,5.78-.92,12.99,5.1,18.77"/>
        <path class="cls-44" d="M537.6,623.29l390.87-357.26s-358.72-50.92-765.64-4.93"/>
      </g>
    </g>
  </g>
  <g id="Layer_1" data-name="Layer 1">
    <g>
      <path class="cls-21" d="M539.01,808.07s-8.62,12.33-5.24,30.13c0,0,12,19.21,59.53,18.53,0,0,35.14,25.69,79.64,17.24,0,0,36.72-5.4,10.37-31.54,0,0-34.58-31.88-65.05-40.27,0,0-27.04,22.53-79.25,5.91Z"/>
      <path class="cls-21" d="M465.94,820.69s-8.77,12.61-5.27,30.78c0,0,12.3,19.58,60.82,18.77,0,0,35.94,26.13,81.35,17.4,0,0,37.48-5.61,10.5-32.23,0,0-35.38-32.46-66.51-40.95,0,0-27.54,23.07-80.89,6.23Z"/>
      <path class="cls-39" d="M288.67,522.76s-43.46,114.36,55.89,116.16c99.35,1.81,120.65,2.17,120.65,2.17,0,0-11.11,105.54-3.88,179.6,.32,5.44,64.86,18.94,85.5-6,0,0,21.42-93.27,26.84-170.94,0,0-30.38,103.99-26.84,167.62,0,0,58.06,14.95,79.68-14.12,0,0,32.06-160.73,15.8-209.5-16.26-48.77-123.53-76.74-123.53-76.74,0,0-73.24,83.04-230.11,11.75Z"/>
      <path class="cls-13" d="M470.83,557.22s83.47,21.16,101.18,47.22c17.35,25.53-25.18,206.94-25.18,206.94"/>
      <g>
        <path class="cls-47" d="M582.83,408.49l16.28,22.02s-28.27,5.75,0,0c28.27-5.75,98.67-13.02,98.67-13.02,3.51-.19,6.93-.32,10.21-.4,0,0,6.9-16.45,37.71-15.79l20.47-6.7s12.23-.7,5.29,9.07c0,0-7.32,4.19-13.32,6.46l10.92,10.71s-.14-2.19,7.35,1.54c6.09,3.03,3.76,4.36,3.76,4.36,0,0,8.04-6.22,17.35-10.69,6.06-2.91,9.35-7.8,15.38-3.31,0,0,5.19,4.78-4.46,11.06l-19.87,17.66-39.32,5.71-27.42-3.18-13,9.83s-117.62,65-139.33,57.65c-21.71-7.35-38.55-46.53-38.55-46.53"/>
        <path class="cls-47" d="M434.07,194.98s-5.02,25.61-19.19,44.97c0,0-1.98,72.34,53.69,82.86,0,0,41.64-25.35,29.17-74.05l-63.68-53.78Z"/>
        <g>
          <path class="cls-33" d="M296.44,412.24s-18.88,65.59-7.77,110.52c0,0,80.42,50.3,153.14,41.57,0,0,58.98-20.09,76.97-53.31,0,0,12.05-34.9,.92-60.33-2.1-4.8,13.19,28.14,15,20.72,0,0,43.6-62.15,52.94-64.18l-19.27-57.64s-3.95-40.18-27.17-66.94c0,0-13.53-9.09-28.88-18.77l-36.38,17.75-10.75,43.17-6.3-39.69s.13-11.21-43.46-47.36c0,0-52.54,9.78-79.69,29.14,0,0-30.88,34.47-32.41,69.56l-6.89,75.79Z"/>
          <path class="cls-50" d="M415.43,237.74s37.64,31.98,43.46,47.36l1.3-13.98s-27.73-24.78-36.29-40.92l-8.48,7.54Z"/>
          <path class="cls-50" d="M498.83,251.89s15.83,2.31,13.5,11.97l-36.38,17.75,.41-8.33s16.48-4.57,28.54-14.56c0,0-6.53-2.05-6.06-6.83Z"/>
          <path class="cls-14" d="M465.19,324.79s3.94,39.84-32.2,232.97"/>
          <ellipse class="cls-48" cx="455.07" cy="328.56" rx="2.65" ry="2.55" transform="translate(51.77 718.93) rotate(-79.9)"/>
          <ellipse class="cls-48" cx="453.64" cy="373.44" rx="2.65" ry="2.55" transform="translate(6.41 754.53) rotate(-79.9)"/>
          <ellipse class="cls-48" cx="448.34" cy="421.35" rx="2.65" ry="2.55" transform="translate(-45.12 788.83) rotate(-79.9)"/>
          <ellipse class="cls-48" cx="441.52" cy="464.71" rx="2.65" ry="2.55" transform="translate(-93.43 817.86) rotate(-79.9)"/>
          <ellipse class="cls-48" cx="433.12" cy="519.24" rx="2.65" ry="2.55" transform="translate(-154.06 854.55) rotate(-79.9)"/>
          <path class="cls-48" d="M386.56,340.75l-4.77,39.28s18.44,25.37,45.38,8.09l7.57-42.5s-17.52,6.54-48.18-4.87Z"/>
          <path class="cls-48" d="M490.28,359.23l-4.77,39.28s18.44,25.37,45.38,8.09l7.57-42.5s-17.52,6.54-48.18-4.87Z"/>
          <path class="cls-48" d="M355.12,480.81l-5.41,44.52s20.9,28.75,51.43,9.16l8.58-48.16s-19.85,7.41-54.61-5.52Z"/>
          <path class="cls-48" d="M459.53,469.53l2.69,44.77s25.73,24.53,52.24-.23l-.22-48.92s-18.19,10.86-54.71,4.39Z"/>
          <path class="cls-12" d="M400.59,240.58s29.94,89.28-26.96,316.82"/>
          <path class="cls-12" d="M406.98,239.69s28.81,92.1-28.08,319.64"/>
          <path class="cls-12" d="M413.26,238.41s28.44,94.78-28.46,322.32"/>
          <path class="cls-12" d="M394.12,241.95s30.73,86.23-26.16,313.76"/>
          <path class="cls-12" d="M511.38,263.84s29.07,78-32.38,278.99"/>
          <path class="cls-12" d="M518.63,268.68s27.61,72.67-33.84,273.66"/>
          <path class="cls-12" d="M526.06,273.36s27.3,66.63-34.15,267.62"/>
          <path class="cls-12" d="M504.9,264.68s29.17,77.55-32.27,278.54"/>
        </g>
        <path class="cls-47" d="M556.81,124.55s7.57,19.27-4.98,58.21c0,0-3.95,9.12-4.18,14.51-.22,5.39-3.99,13.18-5.55,18.97-8.8,32.75-26.45,38.39-26.45,38.39,0,0-7.24,9.55-26.01,5.21-18.77-4.34-35.58-14.88-40.41-24.4-4.83-9.53-16.01-26.55-14.74-39.08,0,0-11.73-.16-13.02-14.63,0,0-7.07-23.71,6.33-26.2,13.4-2.48,16.35,15.94,16.35,15.94,0,0-6.96-53.25,25.31-65.73,0,0,45.45-19.63,87.34,18.8Z"/>
        <path class="cls-33" d="M509.36,157.71s-16.04-5-30.27,.69c0,0,7.11-10.79,30.76-5.47,0,0,3.88,3.1-.5,4.78Z"/>
        <path class="cls-33" d="M555.35,174.27c-10.55-5.04-16.94-3.37-16.94-3.37-3.65-2.94,.99-4.7,.99-4.7,7.53,.68,13.04,2.36,17.07,4.35,0,0-.54,4-1.12,3.73Z"/>
        <path class="cls-11" d="M424.95,164.25s6.54-5.39,9.43,3.05,2.45,10.82,2.45,10.82c0,0-3.8-13.16-9.34-5.24"/>
        <path class="cls-20" d="M423.13,156.69s11.2-5.77,15.58,5.21c4.37,10.98,2.12,14.9,2.12,14.9l6.24,1.5s-11.95-37.82,12.17-45.61c0,0,1.69-25.8,21.32-24.58,19.62,1.22,33.39-14.95,77.82,20.84,0,0,11.72-26.83-36.89-47.23,0,0-32.77-14.18-47.18,.66,0,0-23.26-3.58-37.22,24.81-13.97,28.38-13.95,49.5-13.95,49.5Z"/>
        <path class="cls-58" d="M494.3,260.68s-21.34-4.05-32.86-12.78c0,0-9.62-5.14-16.75-20.18,0,0,8.33,21.92,27.65,29.53,.1,.04,.18,.06,.28,.1,.89,.34,11.79,4.65,19.72,6.01,0,0,2.28-2.08,1.96-2.68Z"/>
        <path class="cls-6" d="M501.11,133.08s14.02,5.98,20.41,9.61c6.39,3.64,27.86,4.39,27.86,4.39"/>
        <path class="cls-33" d="M501.78,206.68s-11.45,4.18-19.49,3.25c0,0,.47,3.36,3.85,3.78,0,0,13.73,1.09,20.07,6.47,0,0,9.99,.67,17.99,5.53,0,0,.8,.97,2.83,1.14,0,0-7.08-9.3-5.73-12.74,0,0-8.8,1.6-12.92-5.75,0,0-2.67,.47-6.61-1.68Z"/>
        <path class="cls-11" d="M521.83,183.38l2.95,21.66s.53,11.6-8.2,9.2c-7.24-1.99-7.01-4.36-7.01-4.36"/>
        <path class="cls-6" d="M477.45,214.35s.99-8.54,6.42-9.16c5.43-.62,10.47-9.55,10.47-9.55"/>
        <g>
          <path class="cls-34" d="M486.25,166.58s.11-.43,.52-.7c1.37-.9,4.37-2.46,8.18-1.44,4.26,1.14,5.54,5.77,5.96,7.41,.07,.28,0,.5,0,.5,0,0-.05,.24-.24,.37-.89,.61-3.75,2.21-7.8,1.19-2.41-.6-5.44-2.8-6.66-6.62-.08-.27-.02-.56,.03-.71Z"/>
          <circle class="cls-58" cx="494.84" cy="169.68" r="4.56"/>
          <circle class="cls-34" cx="493.57" cy="166.54" r="1.25"/>
          <path class="cls-8" d="M501.17,171.93s-2.47-11.56-14.56-6.13"/>
        </g>
        <g>
          <path class="cls-34" d="M534.92,183.54s.04-.41,.39-.73c1.14-1.03,3.72-2.91,7.4-2.51,4.13,.45,5.98,4.57,6.6,6.04,.11,.25,.07,.46,.07,.46,0,0-.01,.23-.17,.38-.74,.69-3.17,2.59-7.08,2.22-2.33-.22-5.46-1.82-7.14-5.2-.12-.23-.1-.52-.07-.67Z"/>
          <circle class="cls-58" cx="543.35" cy="185.19" r="4.28"/>
          <circle class="cls-34" cx="541.57" cy="182.12" r="1.2"/>
          <path class="cls-8" d="M549.36,186.5s-3.57-10.95-14.2-3.53"/>
        </g>
        <g>
          <path class="cls-49" d="M429.71,114.04s16.29-31.45,23.58-38.66c7.3-7.21,73.97-10.26,91.85,7.45,0,0,2.67,7.49,1.18,10.23"/>
          <path class="cls-31" d="M425,150.11s-48.13-4.05-48.8-10.23c-1.56-14.35,32.24-21.22,32.24-21.22,0,0,81.15-18.99,110.64-26.88,22.32-5.97,72.89-13.13,79.11,11.02,6.22,24.15-38.66,42.7-38.66,42.7,0,0-79.22-23.99-132.88-4.6,0,0-2.25,5.03-1.64,9.21Z"/>
          <path class="cls-2" d="M559.52,145.51s42.54-23.36,21.51-40.87c-16.92-14.09-51.34-5.6-87.14,8.51-35.8,14.11-86.97,18.65-86.97,18.65,0,0-22.11,9.2,18.08,18.33"/>
        </g>
        <path class="cls-27" d="M752.98,406.38s3.23,1.79,5.14,3.84"/>
        <path class="cls-27" d="M707.99,417.09s.75,7.05,7.01,12.78"/>
        <path class="cls-13" d="M593.21,432.56s-22.25,8.29-30.36,31.2"/>
        <path class="cls-25" d="M731.36,432.27s13.95-9.82,20.38-9.26c0,0,2.73,.51,7.04-3.84,4.11-4.14,5.89-9.88,10.14-7.6,6.15,3.3,.13,9.27,.13,9.27l-12.67,13.75"/>
        <path class="cls-25" d="M765.41,424.77l5.53-5.46,2.09-9.12s1.32-4.53,6.08-4.1c5.31,.49,4.42,6.74,4.42,6.74l-3.77,11.97-10.76,12.15"/>
        <path class="cls-25" d="M779.76,424.81l3.34-2.62,2.09-9.12s1.32-4.53,6.08-4.1c5.31,.49,4.42,6.74,4.42,6.74l-3.77,11.97-10.76,12.15"/>
        <path class="cls-47" d="M378.24,406.08c-4.8,18.58-23.58,73.69-23.58,73.69,34.54,10.16,97.02,56.74,97.02,56.74l47.54-10.86,29.2,8.19,11.46,19.47s1.55,8.24-9.08,.24l-3.05,11.17s-4.12,5.85-8.06-1.79l-4.96,9.61s-6.09,2.03-6.99-1.55l-5.55,9.73s-7.6-2.09-4.86-10.76l-22.87,1.36-31.58-10.25-7-1.15s-114.18-12.47-144.4-56.19c0,0-4.16-45.66,8.86-90.18"/>
        <path class="cls-5" d="M530.81,553.55s-5.49-14.82-15.97-14.38"/>
        <path class="cls-5" d="M519.7,562.92s2.37-15.07-8.75-14.21"/>
        <path class="cls-5" d="M507.76,570.98s1.61-13.81-5.4-12.33"/>
        <path class="cls-23" d="M370.78,285.58c30.18,42.81,14.87,115.59,14.87,115.59,0,0-44.15,28.05-89.21,11.07"/>
        <path class="cls-58" d="M517.01,152.2s2.14,5.97-2.54,7.73c0,0,7.32-.75,2.54-7.73Z"/>
        <path class="cls-40" d="M485.34,220.71s12.42-4.49,17.09-2.33,4.96,3.03,4.96,3.03c0,0,5.11-1.28,6.92,.73,1.81,2.01,5.46,7.33,5.08,10.46,0,0-8.67,7.9-17.43,5.31-8.76-2.59-15.17-9.96-16.63-17.21Z"/>
        <path class="cls-36" d="M488.36,222.34s11.64-.96,17.78,1.85c6.14,2.81,10.93,8.06,10.93,8.06,0,0-4.62-1.67-13.02,2.1,0,0-2.9,0-5.63-2.21s-6.21-8.3-10.06-9.8Z"/>
        <path class="cls-34" d="M512.61,228.37s-6.63-7.1-18.43-6.18c0,0,12.46,2.6,18.43,6.18"/>
      </g>
    </g>
    <g>
      <rect class="cls-34" x="146.45" y="580.07" width="171.73" height="56.79" rx="15.83" ry="15.83"/>
      <rect class="cls-43" x="238.93" y="589.16" width="51.76" height="24.86"/>
      <rect class="cls-43" x="172.17" y="579.93" width="21.51" height="53.97"/>
      <line class="cls-29" x1="199.54" y1="584.31" x2="232.95" y2="584.22"/>
      <line class="cls-29" x1="199.39" y1="590.2" x2="232.8" y2="590.1"/>
      <line class="cls-29" x1="199.3" y1="596.78" x2="232.72" y2="596.69"/>
      <line class="cls-29" x1="199.66" y1="603.09" x2="233.07" y2="603"/>
      <line class="cls-29" x1="199.51" y1="608.97" x2="232.92" y2="608.88"/>
      <line class="cls-29" x1="199.82" y1="614.82" x2="233.24" y2="614.72"/>
      <line class="cls-29" x1="200.18" y1="621.12" x2="233.59" y2="621.03"/>
      <line class="cls-29" x1="200.03" y1="627.01" x2="233.44" y2="626.92"/>
      <line class="cls-29" x1="200.32" y1="632.62" x2="233.73" y2="632.53"/>
      <line class="cls-29" x1="238.83" y1="620.07" x2="290.11" y2="620.18"/>
      <line class="cls-29" x1="238.96" y1="626.4" x2="290.24" y2="626.51"/>
      <line class="cls-29" x1="239.1" y1="632.97" x2="290.39" y2="633.07"/>
      <line class="cls-29" x1="238.95" y1="583.9" x2="290.24" y2="584"/>
    </g>
    <g>
      <path class="cls-46" d="M614.31,469.97s20.05,69.88,46.8,69.48,33.23-23.1,33.23-23.1l4.46-21.08-31.61-12.56-4.46,5.27-31.38-29.74"/>
      <path class="cls-46" d="M785.62,366.37s-3.83,13.62,1.73,31.54c0,0-3.25,28.73-36.98,34.52,0,0-36.91-5.84-15.94-32.12,0,0,3.31-1.44,2.58-7.06,0,0,39.57-2.58,48.61-26.88Z"/>
      <path class="cls-46" d="M735.52,295.67s-10.33,5.21-14.93,26.84c-.5,2.36,.3,7.29-.82,9-8.71,13.42-8.27,27.44-5.22,35.74,.75,2.05,.88,4.41,1.49,6.3,4.5,13.76,24.09,19.72,24.09,19.72,0,0,39.99,1.16,49.73-18.53,0,0,6.71,12.53,17.98-.16,0,0,12.7-13.86,5.68-19.74,0,0-7.89-5.09-14.92,2.9,0,0,13.33-36,2.04-44.61,0,0-24.27-37.18-65.14-17.45Z"/>
      <path class="cls-6" d="M736.24,345.59s-8.85,8.94,2.94,12.44"/>
      <path class="cls-6" d="M811.15,362.41s-1.77-10.18-11.97,3.71c0,0,7.48-5.56,7.48,.43"/>
      <path class="cls-58" d="M737.08,392.03s7.18,1.93,15.48,.54c0,0,7.16-.08,16.87-3.35,0,0-7.29,5.33-19.96,6.53,0,0-6.55,.98-12.78-1.66,0,0,.36,.2,.4-2.06Z"/>
      <path class="cls-51" d="M734.42,400.32s-12.63,17.44,8.42,22.25c0,0,31.87,7.22,44.5-24.66,0,0,39.89,16.27,55.28,45.43,16.51,31.28,11.24,59.74,11.24,59.74,0,0-16,9.69-40.06,3.68,0,0,29.25,35.86,18.61,86.83,0,0-90.21,31.88-134.11-1.79,0,0-6.51-47.91-2.37-85.04,0,0-27.52-9.91-33.54-23.74,0,0,11.01-27.15,21.89-44.18,9.9-15.48,12.61-26.15,50.2-38.58"/>
      <path class="cls-58" d="M760.07,328.73s14.92,3.71,19.29,10.27c0,0-1.77-7.75-18.35-12.89,0,0-3.48,.17-.93,2.62Z"/>
      <path class="cls-58" d="M720.75,324.04c.27-.65,8.07-1.78,15.34-1.57,0,0,3.33,1.29,0,2.79,0,0-13.29-1.76-15,1.64,0,0-1.02-1.26-.35-2.85Z"/>
      <path class="cls-45" d="M787.42,397.86s-8.77,28.08-44.5,24.66c0,0-20.82-5.29-8.42-22.25,0,0-4.4,.98-5.83,1.93,0,0-12.26,20.97,13.53,25.5,0,0,28.74,2.91,42.35-14.28,0,0,5.97-7.88,7.88-13.85l-5.01-1.71Z"/>
      <path class="cls-54" d="M708.23,721.41s-8.2-8.06-10.33-23.89l-.19-99.58s33.74,29.38,136.31-5.66c0,0,13.56,39.28,.96,85.49,0,0-4.96,23.47-9.93,42.9,0,0-43.9,12.1-66.05,3.3l-1.02-6.71,.09,6.95s-28.89,4.44-49.84-2.82Z"/>
      <path class="cls-11" d="M759.01,723.98s-8.08-40.43-4.16-62.35c0,0-7.84-2.24-9.89-7.7"/>
      <path class="cls-17" d="M768.88,765s-4.34-13.61-6.21-22.96c-1.13-5.65-.94-17.51-.94-17.51"/>
      <path class="cls-55" d="M834.02,592.29l.63-8.52s-88.75,35.07-136.66,5.51c0,0-1.51,1.81-.28,8.67,0,0,34.98,30.9,136.31-5.66Z"/>
      <g>
        <path class="cls-34" d="M770.95,343.36s.08-.35-.11-.7c-.64-1.16-2.2-3.42-5.31-4.13-3.48-.8-6.15,2.03-7.07,3.05-.16,.18-.19,.35-.19,.35,0,0-.06,.19,.03,.35,.41,.77,1.85,3,5.13,3.81,1.96,.48,4.95,.06,7.27-2.21,.16-.16,.22-.39,.25-.52Z"/>
        <circle class="cls-58" cx="763.62" cy="342.33" r="3.69"/>
        <circle class="cls-34" cx="766.06" cy="342.12" r="1.01"/>
        <path class="cls-16" d="M758.24,341.54s6.15-7.34,12.74,1.13"/>
      </g>
      <g>
        <path class="cls-34" d="M733.53,336.37s.13-.31,0-.66c-.42-1.15-1.54-3.44-4.29-4.54-3.08-1.22-5.93,1-6.92,1.8-.17,.14-.22,.3-.22,.3,0,0-.08,.17-.02,.33,.27,.77,1.27,3.01,4.17,4.21,1.73,.72,4.53,.75,6.98-1,.17-.12,.26-.33,.3-.44Z"/>
        <circle class="cls-58" cx="726.96" cy="334.39" r="3.41"/>
        <circle class="cls-34" cx="729.31" cy="334.63" r=".96"/>
        <path class="cls-16" d="M722.23,333.06s6.61-6.4,11.34,2.82"/>
      </g>
      <path class="cls-40" d="M754.95,372.2s-5.91-5.47-9.58-5.46c-3.67,.01-4.07,.08-4.07,.08,0,0-3.4-1.67-5.17-.91s-4.8,1.77-6.76,3.87c0,0,3.27,7.69,9.71,8.62s12.78-1.94,15.88-6.2Z"/>
      <path class="cls-36" d="M752.51,372.36s-7.25-4.08-12.06-4.09-9.47,1.97-9.47,1.97c0,0,2.66,1.05,7.8,5.23,0,0,1.88,.86,4.3,.24,2.42-.62,6.49-3.53,9.42-3.35Z"/>
      <path class="cls-34" d="M735.02,369.05s6.41-2.63,13.77,1.48c0,0-8.84-2.02-13.77-1.48"/>
      <path class="cls-46" d="M853.86,503.08s11.37,60.77-18.54,61.8-58.61-40.14-61.7-110.96c0,0-1.58-16.74-4.46-24.06,0,0-5.52-1.83-5.23-9.67,.38-10.35,1.57-20.13,1.57-20.13,0,0-9.94-16.73-2.35-19.35l9.15,14.9,.52,5.49,2.09-13.33-6.8-10.72s-2.61-6.54,1.05-8.63l5.23,6.01s-3.4-6.54-.26-9.41l5.23,4.44s-.52-2.09,1.05-2.88l13.6,14.64s1.05,32.16-2.61,45.23l5.75,17.26s26.93,45.23,31.38,58.83l2.04,2.02,23.31-1.49Z"/>
      <path class="cls-17" d="M782.54,398.55l.94-13.48-12.88-15c-.93-1.09-2.73-.77-3.18,.59-.91,2.78,.7,6.37,.7,6.37l6.8,10.72-2.09,13.33-.52-5.49-8.15-13.28c-.73-1.18-2.45-1.14-3.13,.07-2.81,4.97,4.49,17.66,4.49,17.66l-1.57,20.13"/>
      <path class="cls-17" d="M774.39,374.42s-2.83-4.15-1.91-7.25c.39-1.33,2.12-1.7,3.1-.72l14.11,14.06-.72,11.28"/>
      <path class="cls-13" d="M828.51,502.54s13.93,10.79,12.95,31.32"/>
      <path class="cls-17" d="M779.36,369.46s-1.44-3.35,1.05-2.88,8.77,9.3,8.77,9.3"/>
      <path class="cls-15" d="M695.94,506.76s-.54-30.89,3.31-47.94"/>
      <path class="cls-15" d="M813.1,473.67s-1.65-20.9,1.65-32.45"/>
      <path class="cls-46" d="M631.35,458.24c-1.7-1.21-3.38-2.37-5-3.46,0,0,1.79-10.47-13.9-19.97l-8.14-9.9s-5.92-4.26-5.55,2.87c0,0,2.34,4.44,4.63,7.5l-8.91,1.89s.77-1.05-4.19-1.58c-4.03-.42-3.28,.99-3.28,.99,0,0-2.06-5.69-5.3-10.91-2.11-3.4-2.2-6.9-6.67-6.58,0,0-4.13,.74-1.29,6.98l4.34,15.22,17.93,15.42,14.79,7.16,3.51,6.11"/>
      <path class="cls-22" d="M607.16,435.03s-2.19-.13-3.81,.28"/>
      <path class="cls-22" d="M609.76,454.94s-3.87-9.39-7.28-11.16c0,0-1.53-.61-2.31-4.18s.19-6.84-2.67-7.06c-4.14-.31-3.02,4.62-3.02,4.62l1.97,10.95"/>
      <path class="cls-22" d="M626.34,454.78s-2.63,3.3-7.6,4.18"/>
      <path class="cls-22" d="M595.05,440.3l-1.03-4.51,1.86-5.25s.79-2.7-1.75-4c-2.82-1.45-4.37,1.98-4.37,1.98l-1.93,7.22,1.53,9.54"/>
      <path class="cls-22" d="M587.83,435.74l-.84-2.38,1.86-5.25s.79-2.7-1.75-4c-2.82-1.45-4.37,1.98-4.37,1.98l-1.93,7.22,1.53,9.54"/>
      <path class="cls-18" d="M662.73,487.98s8.49,7.64,8.27,16.72"/>
      <path class="cls-53" d="M729.55,289.66c-6.79,19.01-7.33,28.85-7.33,28.85,6.27-19.12,12.17-19.86,12.17-19.86,25.35-9.67,59.76,14.33,59.76,14.33,8.94,18.09,3.01,45.81,3.01,45.81,8.82-8.08,14.92-3.68,14.92-3.68,19.27-36.81-1.65-52.06-1.65-52.06,0,0-13.25-23.29-42.99-26.48-29.74-3.19-37.9,13.1-37.9,13.1Z"/>
      <g>
        <path class="cls-46" d="M761.69,825.08s8.55,14.68,5.52,21.91c0,0-15.11,10.49-25.99,.08,0,0,13.85-7.11,20.47-21.99Z"/>
        <path class="cls-46" d="M757.56,816.07s-6.99,22.61-21.17,26.86c0,0-5.77-11.57-13.14-18.31,0,0-13.71-74.58-13.55-102.79,0,0,15.78,6.58,49.31,2.16,0,0,1.48,32.65-1.85,52.84-3.33,20.19,.4,39.25,.4,39.25Z"/>
        <path class="cls-51" d="M767.21,846.99s5.88,10.61,3.97,14.87c0,0-10.67,4.63-25.42,1.49,0,0-8.01-1.75-16.07,5.27-8.06,7.02-40.44,11.73-51.27,2.58-10.83-9.15,6.68-19.91,6.68-19.91,0,0,24.72-8.14,28.41-19.57,3.7-11.43,9.73-7.09,9.73-7.09,0,0,12.04,8.26,14.06,16.53,0,0,13.18-4.31,20.25-25.08l4.14,9.01s-7.22,17.01-19.15,21.27c0,0,5.01,9.81,24.67,.63Z"/>
        <circle class="cls-53" cx="738.9" cy="845.37" r="5.43"/>
        <circle class="cls-53" cx="725.59" cy="861.35" r="3.59"/>
        <circle class="cls-53" cx="713.98" cy="866.51" r="3.59"/>
        <circle class="cls-53" cx="700.6" cy="868.95" r="3.59"/>
        <circle class="cls-53" cx="689.13" cy="868.04" r="3.59"/>
        <circle class="cls-53" cx="679.22" cy="864.79" r="3.59"/>
        <path class="cls-9" d="M723.62,853.42s-26.19,12.8-40.41,2.54"/>
      </g>
      <g>
        <path class="cls-46" d="M815.19,827.48s8.55,14.68,5.52,21.91c0,0-15.11,10.49-25.99,.08,0,0,13.85-7.11,20.47-21.99Z"/>
        <path class="cls-46" d="M811.05,818.46s-6.99,22.61-21.17,26.86c0,0-5.77-11.57-13.14-18.31,0,0-17.9-74.82-17.73-103.03,0,0,18.93,6.91,52.62-2.36,0,0,2.35,37.41-.98,57.6-3.33,20.19,.4,39.25,.4,39.25Z"/>
        <path class="cls-51" d="M820.71,849.38s5.88,10.61,3.97,14.87c0,0-10.67,4.63-25.42,1.49,0,0-8.01-1.75-16.07,5.27-8.06,7.02-40.44,11.73-51.27,2.58-10.83-9.15,6.68-19.91,6.68-19.91,0,0,24.72-8.14,28.41-19.57,3.7-11.43,9.73-7.09,9.73-7.09,0,0,12.04,8.26,14.06,16.53,0,0,13.18-4.31,20.25-25.08l4.14,9.01s-7.22,17.01-19.15,21.27c0,0,5.01,9.81,24.67,.63Z"/>
        <circle class="cls-53" cx="792.4" cy="847.76" r="5.43"/>
        <circle class="cls-53" cx="779.09" cy="863.75" r="3.59"/>
        <circle class="cls-53" cx="767.48" cy="868.91" r="3.59"/>
        <circle class="cls-53" cx="754.1" cy="871.35" r="3.59"/>
        <circle class="cls-53" cx="742.63" cy="870.43" r="3.59"/>
        <circle class="cls-53" cx="732.71" cy="867.18" r="3.59"/>
        <path class="cls-9" d="M777.12,855.81s-26.19,12.8-40.41,2.54"/>
      </g>
    </g>
  </g>
</svg>