<svg xmlns="http://www.w3.org/2000/svg" xmlns:xlink="http://www.w3.org/1999/xlink" width="1200" zoomAndPan="magnify" viewBox="0 0 900 675.000002" height="900" preserveAspectRatio="xMidYMid meet" version="1.0"><defs><clipPath id="36fe5cbcea"><path d="M 0.664062 0 L 899.332031 0 L 899.332031 674 L 0.664062 674 Z M 0.664062 0 " clip-rule="nonzero"/></clipPath><clipPath id="beb7c83945"><path d="M 60 647 L 899.332031 647 L 899.332031 674 L 60 674 Z M 60 647 " clip-rule="nonzero"/></clipPath><clipPath id="b12c071605"><path d="M 0.664062 603 L 899.332031 603 L 899.332031 674 L 0.664062 674 Z M 0.664062 603 " clip-rule="nonzero"/></clipPath><clipPath id="c78d91fb45"><path d="M 842 637 L 889 637 L 889 674 L 842 674 Z M 842 637 " clip-rule="nonzero"/></clipPath><clipPath id="9aeb1b5b61"><path d="M 256 620 L 304 620 L 304 674 L 256 674 Z M 256 620 " clip-rule="nonzero"/></clipPath><clipPath id="3a6d2d83ec"><path d="M 355 647 L 391 647 L 391 674 L 355 674 Z M 355 647 " clip-rule="nonzero"/></clipPath><clipPath id="aa2ba2cb1f"><path d="M 666 651 L 685 651 L 685 674 L 666 674 Z M 666 651 " clip-rule="nonzero"/></clipPath><clipPath id="d9ab832746"><path d="M 81 641 L 109 641 L 109 674 L 81 674 Z M 81 641 " clip-rule="nonzero"/></clipPath><clipPath id="43a7a0d583"><path d="M 30 561 L 899.332031 561 L 899.332031 605 L 30 605 Z M 30 561 " clip-rule="nonzero"/></clipPath></defs><g clip-path="url(#36fe5cbcea)"><path fill="#ffffff" d="M 0.664062 0 L 899.335938 0 L 899.335938 674 L 0.664062 674 Z M 0.664062 0 " fill-opacity="1" fill-rule="nonzero"/><path fill="#ffffff" d="M 0.664062 0 L 899.335938 0 L 899.335938 674 L 0.664062 674 Z M 0.664062 0 " fill-opacity="1" fill-rule="nonzero"/><rect x="-90" width="1080" fill="#b1dcc4" y="-67.5" height="810.000002" fill-opacity="1"/></g><path stroke-linecap="butt" transform="matrix(0.695701, 0, 0, 0.695942, -23.708418, -271.242211)" fill-opacity="1" fill="#c8eaf6" fill-rule="nonzero" stroke-linejoin="miter" d="M 172.332643 51.358022 L 1082.722699 51.358022 L 1082.722699 852.340576 L 172.332643 852.340576 Z M 172.332643 51.358022 " stroke="#ffffff" stroke-width="12" stroke-opacity="1" stroke-miterlimit="10"/><path fill="#f6ac1b" d="M 46.277344 -271.242188 L 45.089844 372.199219 C 45.089844 372.199219 70.101562 393.648438 109.414062 380.535156 L 109.414062 353.128906 C 109.414062 353.128906 145.144531 362.664062 165.398438 353.128906 L 165.398438 375.769531 C 165.398438 375.769531 202.324219 390.070312 214.234375 376.957031 L 189.226562 -43.664062 L 202.316406 -271.242188 L 137.992188 -270.050781 L 123.695312 -266.476562 L 99.882812 -271.242188 Z M 46.277344 -271.242188 " fill-opacity="1" fill-rule="nonzero"/><path fill="#f6ac1b" d="M 791.074219 -271.242188 L 792.265625 372.199219 C 792.265625 372.199219 767.253906 393.648438 727.941406 380.535156 L 727.941406 353.128906 C 727.941406 353.128906 692.210938 362.664062 671.957031 353.128906 L 671.957031 375.769531 C 671.957031 375.769531 635.03125 390.070312 623.121094 376.957031 L 648.128906 -43.664062 L 635.035156 -271.242188 L 699.363281 -270.050781 L 713.660156 -266.476562 L 737.480469 -271.242188 L 791.082031 -271.242188 Z M 791.074219 -271.242188 " fill-opacity="1" fill-rule="nonzero"/><path stroke-linecap="butt" transform="matrix(0.695701, 0, 0, 0.695942, -23.708418, -271.242211)" fill="none" stroke-linejoin="miter" d="M 191.338874 897.170768 L 173.719508 533.410275 " stroke="#ef4136" stroke-width="2" stroke-opacity="1" stroke-miterlimit="10"/><path stroke-linecap="butt" transform="matrix(0.695701, 0, 0, 0.695942, -23.708418, -271.242211)" fill="none" stroke-linejoin="miter" d="M 271.821982 897.170768 L 263.590627 555.339855 " stroke="#ef4136" stroke-width="2" stroke-opacity="1" stroke-miterlimit="10"/><path stroke-linecap="butt" transform="matrix(0.695701, 0, 0, 0.695942, -23.708418, -271.242211)" fill="none" stroke-linejoin="miter" d="M 211.889186 6.858991 L 216.740407 545.42187 " stroke="#ef4136" stroke-width="2" stroke-opacity="1" stroke-miterlimit="10"/><path stroke-linecap="butt" transform="matrix(0.695701, 0, 0, 0.695942, -23.708418, -271.242211)" fill="none" stroke-linejoin="miter" d="M 999.959967 897.170768 L 1001.07732 571.561122 " stroke="#ef4136" stroke-width="2" stroke-opacity="1" stroke-miterlimit="10"/><path stroke-linecap="butt" transform="matrix(0.695701, 0, 0, 0.695942, -23.708418, -271.242211)" fill="none" stroke-linejoin="miter" d="M 1080.431844 897.170768 L 1086.490256 473.958492 " stroke="#ef4136" stroke-width="2" stroke-opacity="1" stroke-miterlimit="10"/><path stroke-linecap="butt" transform="matrix(0.695701, 0, 0, 0.695942, -23.708418, -271.242211)" fill="none" stroke-linejoin="miter" d="M 628.392356 47.580544 L 628.392356 850.538837 " stroke="#ffffff" stroke-width="12" stroke-opacity="1" stroke-miterlimit="10"/><path stroke-linecap="butt" transform="matrix(0.695701, 0, 0, 0.695942, -23.708418, -271.242211)" fill="none" stroke-linejoin="miter" d="M 640.587787 58.08227 L 640.587787 843.489041 " stroke="#d1d3d4" stroke-width="12" stroke-opacity="1" stroke-miterlimit="10"/><path fill="#ffffff" d="M 248.136719 69.476562 L 368.429688 67.097656 C 368.429688 67.097656 396.015625 58.34375 394.628906 42.078125 C 392.25 14.039062 369.621094 15.867188 369.621094 15.867188 C 369.621094 15.867188 368.429688 -16.296875 332.699219 -16.296875 C 332.699219 -16.296875 305.300781 -18.679688 305.300781 15.867188 C 305.300781 15.867188 291.011719 -6.769531 267.191406 7.53125 C 267.191406 7.53125 250.515625 25.402344 264.8125 34.9375 C 264.8125 34.9375 233.847656 13.488281 225.503906 40.894531 C 225.503906 40.894531 218.359375 70.679688 248.136719 69.492188 " fill-opacity="0.8" fill-rule="nonzero"/><path fill="#be9e7d" d="M 574.449219 236.34375 C 574.449219 236.34375 568.875 269.496094 585.320312 275.992188 C 585.320312 275.992188 569.105469 358.789062 497.941406 375.859375 C 497.941406 375.859375 452.164062 339.640625 471.722656 288.84375 C 471.722656 288.84375 490.519531 281.789062 490.679688 241.152344 C 490.679688 241.152344 552.527344 272.332031 574.449219 236.34375 Z M 574.449219 236.34375 " fill-opacity="1" fill-rule="nonzero"/><path fill="#be9e7d" d="M 585.542969 201.253906 C 585.542969 201.253906 602.519531 164.25 588.488281 136.15625 C 579.921875 119 552.027344 109.640625 524.296875 101.03125 C 524.296875 101.03125 463.9375 88.03125 460.605469 166.875 C 460.605469 166.875 462.03125 175.167969 458.59375 180.910156 C 458.59375 180.910156 451.503906 191.753906 452.875 217.710938 C 454.699219 252.308594 470.601562 257.367188 470.601562 257.367188 C 470.601562 257.367188 470.042969 266.945312 488.535156 271.375 C 488.535156 271.375 504.113281 278.335938 523.050781 271.773438 C 523.050781 271.773438 571.144531 260.75 574.441406 236.34375 C 574.441406 236.34375 589.363281 250.582031 603.988281 224.144531 C 603.988281 224.144531 625.136719 177.203125 585.542969 201.253906 Z M 585.542969 201.253906 " fill-opacity="1" fill-rule="nonzero"/><path fill="#d1d3d4" d="M 517.214844 165.316406 C 517.214844 165.316406 545.582031 163.554688 555.582031 175.167969 C 555.582031 175.167969 549.953125 159.164062 518.105469 158.863281 C 518.105469 158.863281 511.816406 161.578125 517.214844 165.316406 Z M 517.214844 165.316406 " fill-opacity="1" fill-rule="nonzero"/><path stroke-linecap="butt" transform="matrix(0.695701, 0, 0, 0.695942, -23.708418, -271.242211)" fill="none" stroke-linejoin="miter" d="M 732.547627 667.272206 C 732.547627 667.272206 709.470637 689.291592 739.111374 699.018739 " stroke="#231f20" stroke-width="1.5" stroke-opacity="1" stroke-miterlimit="10"/><path stroke-linecap="butt" transform="matrix(0.695701, 0, 0, 0.695942, -23.708418, -271.242211)" fill="none" stroke-linejoin="miter" d="M 902.997305 695.140229 C 902.997305 695.140229 899.207289 668.961687 872.082 703.761635 C 872.082 703.761635 891.621641 690.060559 891.189298 705.400601 " stroke="#231f20" stroke-width="1.5" stroke-opacity="1" stroke-miterlimit="10"/><path stroke-linecap="butt" transform="matrix(0.695701, 0, 0, 0.695942, -23.708418, -271.242211)" fill="none" stroke-linejoin="miter" d="M 829.26885 655.238159 L 810.268233 682.499989 C 810.268233 682.499989 790.071656 687.978175 767.421394 676.292128 L 761.301219 644.371594 C 761.301219 644.371594 797.640459 636.148703 829.26885 655.249385 Z M 829.26885 655.238159 " stroke="#231f20" stroke-width="1.5" stroke-opacity="1" stroke-miterlimit="10"/><path fill="#26130f" d="M 485.863281 270.5 C 485.863281 270.5 485.828125 270.964844 489.21875 271.363281 C 489.21875 271.363281 513.804688 281.425781 544.761719 264.488281 C 544.761719 264.488281 535.480469 271.371094 518.144531 275.929688 C 518.144531 275.929688 499.527344 278.929688 484.941406 272.96875 C 484.941406 272.96875 485.390625 271.667969 485.863281 270.507812 Z M 485.863281 270.5 " fill-opacity="1" fill-rule="nonzero"/><path stroke-linecap="butt" transform="matrix(0.695701, 0, 0, 0.695942, -23.708418, -271.242211)" fill-opacity="1" fill="#d1d3d4" fill-rule="nonzero" stroke-linejoin="miter" d="M 852.441292 577.690403 C 852.441292 577.690403 786.719597 587.41755 760.03788 550.782185 C 760.03788 550.782185 742.098468 567.879063 704.377977 585.088198 C 704.377977 585.088198 695.208945 599.569467 698.819286 639.628698 C 698.819286 639.628698 680.447532 666.071046 687.937728 708.729047 C 687.937728 708.729047 693.27744 746.262476 710.509382 759.559424 C 710.509382 759.559424 717.241574 774.012628 732.452174 778.441202 C 732.452174 778.441202 711.952396 788.078543 702.772133 784.789386 C 702.772133 784.789386 711.138244 772.452243 706.719365 768.309927 C 706.719365 768.309927 641.048204 725.882054 684.87764 601.000755 C 684.87764 601.000755 657.151563 531.002343 719.251687 507.540442 C 747.309039 496.937684 782.289489 453.701554 834.209908 497.740328 C 834.209908 497.740328 924.041723 481.07003 926.517868 565.611453 C 926.517868 565.611453 1007.298562 613.270544 925.299447 707.758016 C 925.299447 707.758016 930.319114 748.069828 888.51102 766.94038 C 883.687873 769.118184 871.649657 781.730358 872.491883 805.197872 C 872.722092 811.529217 859.751813 795.762596 857.679937 783.07184 C 857.679937 783.07184 853.867461 760.221745 859.768657 729.350823 C 859.768657 729.350823 885.001745 745.61138 898.460515 716.132456 C 898.460515 716.132456 917.550969 684.947212 907.141057 676.011483 C 907.141057 676.011483 895.288131 666.559368 876.742317 679.137865 C 876.742317 679.137865 825.56867 657.539446 852.418832 577.679177 Z M 852.441292 577.690403 " stroke="#58595b" stroke-width="0.2" stroke-opacity="1" stroke-miterlimit="10"/><path fill="#d1d3d4" d="M 461.792969 151.820312 C 462.433594 150.386719 476.429688 150.414062 489.167969 153.402344 C 489.167969 153.402344 494.714844 157.589844 488.496094 159.96875 C 488.496094 159.96875 465.550781 151.257812 461.703125 158.664062 C 461.703125 158.664062 460.214844 155.347656 461.792969 151.820312 Z M 461.792969 151.820312 " fill-opacity="1" fill-rule="nonzero"/><path stroke-linecap="butt" transform="matrix(0.695701, 0, 0, 0.695942, -23.708418, -271.242211)" fill="none" stroke-linejoin="miter" d="M 750.829544 640.397665 L 731.828927 667.659495 C 731.828927 667.659495 714.378006 671.13949 691.727744 659.44783 L 688.998932 625.158655 C 688.998932 625.158655 719.201153 621.308209 750.829544 640.408891 Z M 750.829544 640.397665 " stroke="#231f20" stroke-width="1.5" stroke-opacity="1" stroke-miterlimit="10"/><path stroke-linecap="butt" transform="matrix(0.695701, 0, 0, 0.695942, -23.708418, -271.242211)" fill="none" stroke-linejoin="miter" d="M 750.829544 640.397665 C 750.829544 640.397665 758.791386 635.710897 761.301219 644.360369 " stroke="#231f20" stroke-width="1.5" stroke-opacity="1" stroke-miterlimit="10"/><path stroke-linecap="butt" transform="matrix(0.695701, 0, 0, 0.695942, -23.708418, -271.242211)" fill="none" stroke-linejoin="miter" d="M 829.26885 655.238159 L 898.050632 670.050589 " stroke="#231f20" stroke-width="1.5" stroke-opacity="1" stroke-miterlimit="10"/><path stroke-linecap="butt" transform="matrix(0.695701, 0, 0, 0.695942, -23.708418, -271.242211)" fill="none" stroke-linejoin="miter" d="M 823.558558 607.590294 C 823.558558 607.590294 796.270439 603.128043 782.94081 602.488173 C 769.611181 601.848303 735.978293 582.152654 735.978293 582.152654 " stroke="#231f20" stroke-width="0.5" stroke-opacity="1" stroke-miterlimit="10"/><path stroke-linecap="butt" transform="matrix(0.695701, 0, 0, 0.695942, -23.708418, -271.242211)" fill="none" stroke-linejoin="miter" d="M 702.867586 638.101991 C 702.867586 638.101991 706.837277 654.379386 728.987818 645.960044 " stroke="#231f20" stroke-width="1.5" stroke-opacity="1" stroke-miterlimit="10"/><path stroke-linecap="butt" transform="matrix(0.695701, 0, 0, 0.695942, -23.708418, -271.242211)" fill="none" stroke-linejoin="miter" d="M 784.428742 656.568415 C 784.428742 656.568415 793.451789 674.540904 812.721918 659.919313 " stroke="#231f20" stroke-width="1.5" stroke-opacity="1" stroke-miterlimit="10"/><path fill="#b56e5b" d="M 478.683594 232.816406 C 478.683594 232.816406 486.421875 224.207031 495.902344 229.703125 C 495.902344 229.703125 506.125 226.398438 517.820312 239.621094 C 517.820312 239.621094 510.660156 247.605469 494.714844 244.554688 C 478.769531 241.515625 478.683594 232.808594 478.683594 232.808594 Z M 478.683594 232.816406 " fill-opacity="1" fill-rule="nonzero"/><path stroke-linecap="butt" transform="matrix(0.695701, 0, 0, 0.695942, -23.708418, -271.242211)" fill="none" stroke-linejoin="miter" d="M 722.137714 724.282379 C 722.137714 724.282379 750.880077 725.197281 778.39279 734.060042 " stroke="#231f20" stroke-width="1.5" stroke-opacity="1" stroke-miterlimit="10"/><path fill="#be9e7d" d="M 369.3125 446.015625 C 358.585938 464.792969 355.90625 520.460938 355.90625 520.460938 L 322.257812 528.0625 C 322.257812 528.0625 313.582031 529.703125 303.269531 524.777344 C 292.953125 519.847656 270.691406 508.359375 270.691406 508.359375 C 270.691406 508.359375 265.765625 503.90625 255.21875 510.238281 L 237.636719 517.039062 C 237.636719 517.039062 232.714844 517.976562 232.714844 523.371094 C 232.714844 523.371094 232.011719 541.898438 234.589844 545.648438 C 234.589844 545.648438 236.699219 550.804688 242.792969 550.804688 C 242.792969 550.804688 245.375 555.730469 249.828125 554.320312 C 249.828125 554.320312 248.886719 559.949219 260.144531 559.710938 C 271.394531 559.476562 269.523438 551.507812 269.523438 551.507812 C 269.523438 551.507812 286.636719 560.1875 297.886719 558.78125 C 309.136719 557.375 316.167969 556.671875 316.167969 556.671875 L 326.042969 560.332031 C 326.042969 560.332031 391.207031 567.375 418.695312 562.007812 L 424.964844 459.441406 " fill-opacity="1" fill-rule="nonzero"/><path stroke-linecap="butt" transform="matrix(0.695701, 0, 0, 0.695942, -23.708418, -271.242211)" fill="none" stroke-linejoin="miter" d="M 418.53212 1150.222522 C 417.229477 1148.66775 415.691011 1146.237366 416.100894 1143.812596 C 416.100894 1143.812596 398.24009 1150.211296 386.112037 1148.858588 C 386.112037 1148.858588 386.448928 1154.589354 384.090695 1156.26761 " stroke="#754c29" stroke-width="0.8" stroke-opacity="1" stroke-miterlimit="10"/><path stroke-linecap="butt" transform="matrix(0.695701, 0, 0, 0.695942, -23.708418, -271.242211)" fill="none" stroke-linejoin="miter" d="M 421.47991 1182.21041 C 421.47991 1182.21041 420.542232 1180.229058 416.449014 1181.508798 C 416.449014 1181.508798 410.042483 1186.139436 393.16989 1186.251694 " stroke="#754c29" stroke-width="0.8" stroke-opacity="1" stroke-miterlimit="10"/><path stroke-linecap="butt" transform="matrix(0.695701, 0, 0, 0.695942, -23.708418, -271.242211)" fill="none" stroke-linejoin="miter" d="M 411.850461 1174.352357 C 411.850461 1174.352357 418.498431 1175.879064 416.449014 1181.508798 " stroke="#754c29" stroke-width="0.8" stroke-opacity="1" stroke-miterlimit="10"/><path stroke-linecap="butt" transform="matrix(0.695701, 0, 0, 0.695942, -23.708418, -271.242211)" fill="none" stroke-linejoin="miter" d="M 386.100808 1148.847363 C 386.100808 1148.847363 386.190645 1141.791954 382.748748 1139.142667 " stroke="#754c29" stroke-width="0.8" stroke-opacity="1" stroke-miterlimit="10"/><path stroke-linecap="butt" transform="matrix(0.695701, 0, 0, 0.695942, -23.708418, -271.242211)" fill="none" stroke-linejoin="miter" d="M 416.089665 1143.80137 C 416.089665 1143.80137 415.050919 1138.457894 417.077876 1132.351064 " stroke="#754c29" stroke-width="0.8" stroke-opacity="1" stroke-miterlimit="10"/><path fill="#f6ac1b" d="M 301.644531 486.171875 L 242.785156 555.453125 L 235.363281 560.234375 L 238.878906 550.539062 L 296.683594 482.046875 C 296.683594 482.046875 300.632812 480.738281 301.648438 486.171875 Z M 301.644531 486.171875 " fill-opacity="1" fill-rule="nonzero"/><path fill="#dcbf97" d="M 242.785156 555.453125 L 238.871094 550.539062 L 235.363281 560.234375 L 242.785156 555.453125 " fill-opacity="1" fill-rule="nonzero"/><path fill="#d1d3d4" d="M 296.605469 491.640625 C 296.605469 491.640625 294.886719 487.273438 292.117188 487.597656 L 296.675781 482.039062 C 296.675781 482.039062 300.890625 480.257812 301.644531 486.164062 L 296.605469 491.636719 Z M 296.605469 491.640625 " fill-opacity="1" fill-rule="nonzero"/><path stroke-linecap="butt" transform="matrix(0.695701, 0, 0, 0.695942, -23.708418, -271.242211)" fill-opacity="1" fill="#be9e7d" fill-rule="nonzero" stroke-linejoin="miter" d="M 448.099864 1182.552796 C 448.099864 1182.552796 431.929126 1181.200089 425.191319 1173.448681 C 425.191319 1173.448681 406.99924 1170.417718 383.068794 1181.200089 C 383.068794 1181.200089 365.550495 1180.189768 372.962083 1166.707594 C 380.368057 1153.231034 420.132349 1151.878326 420.132349 1151.878326 " stroke="#603913" stroke-width="1" stroke-opacity="1" stroke-miterlimit="10"/><path fill="#f7daa6" d="M 396.53125 658.976562 C 395.136719 590.242188 421.699219 538.457031 419.292969 517.328125 C 419.292969 517.328125 362.636719 512.292969 350.132812 480.898438 L 383.375 396.046875 C 383.375 396.046875 401.710938 355.921875 429.511719 327.554688 C 429.511719 327.554688 450.941406 297.675781 471.722656 288.839844 C 471.722656 288.839844 456.214844 343.335938 517.949219 335.996094 C 517.949219 335.996094 553.542969 332.277344 574.929688 281.488281 C 574.929688 281.488281 624.183594 292.421875 653.046875 323.175781 C 653.046875 323.175781 698.347656 372.664062 719.621094 464.800781 C 719.621094 464.800781 710.195312 469.972656 699.25 470.855469 C 699.25 470.855469 725.5 551.960938 657.558594 520.238281 C 653.5625 518.375 669.167969 663.277344 662.46875 667.421875 " fill-opacity="1" fill-rule="nonzero"/><path stroke-linecap="butt" transform="matrix(0.695701, 0, 0, 0.695942, -23.708418, -271.242211)" fill-opacity="1" fill="#a97c50" fill-rule="nonzero" stroke-linejoin="miter" d="M 770.150206 1008.811248 C 770.150206 1009.524085 770.082828 1010.23131 769.942457 1010.927309 C 769.802086 1011.628921 769.594337 1012.308081 769.324824 1012.96479 C 769.049697 1013.627111 768.718422 1014.250143 768.319768 1014.84511 C 767.921115 1015.434464 767.471927 1015.984527 766.966592 1016.489688 C 766.466871 1016.994848 765.916617 1017.44388 765.321444 1017.842396 C 764.731886 1018.235298 764.103024 1018.572072 763.446088 1018.841491 C 762.789151 1019.116523 762.109756 1019.3242 761.407901 1019.458909 C 760.711661 1019.599232 760.004191 1019.672199 759.291106 1019.672199 C 758.578022 1019.672199 757.870552 1019.599232 757.168697 1019.458909 C 756.472457 1019.3242 755.793062 1019.116523 755.136125 1018.841491 C 754.473574 1018.572072 753.850327 1018.235298 753.255154 1017.842396 C 752.665596 1017.44388 752.115342 1016.994848 751.610006 1016.489688 C 751.104671 1015.984527 750.655484 1015.434464 750.262445 1014.84511 C 749.863791 1014.250143 749.526901 1013.627111 749.257389 1012.96479 C 748.982261 1012.308081 748.780127 1011.628921 748.639756 1010.927309 C 748.499385 1010.23131 748.432007 1009.524085 748.432007 1008.811248 C 748.432007 1008.09841 748.499385 1007.391185 748.639756 1006.689573 C 748.780127 1005.993574 748.982261 1005.314414 749.257389 1004.652092 C 749.526901 1003.995384 749.863791 1003.36674 750.262445 1002.777386 C 750.655484 1002.182419 751.104671 1001.632355 751.610006 1001.132807 C 752.115342 1000.627647 752.665596 1000.178615 753.255154 999.7801 C 753.850327 999.381584 754.473574 999.050423 755.136125 998.775392 C 755.793062 998.505973 756.472457 998.298295 757.168697 998.157973 C 757.870552 998.017651 758.578022 997.950296 759.291106 997.950296 C 760.004191 997.950296 760.711661 998.017651 761.407901 998.157973 C 762.109756 998.298295 762.789151 998.505973 763.446088 998.775392 C 764.103024 999.050423 764.731886 999.381584 765.321444 999.7801 C 765.916617 1000.178615 766.466871 1000.627647 766.966592 1001.132807 C 767.471927 1001.632355 767.921115 1002.182419 768.319768 1002.777386 C 768.718422 1003.36674 769.049697 1003.995384 769.324824 1004.652092 C 769.594337 1005.314414 769.802086 1005.993574 769.942457 1006.689573 C 770.082828 1007.391185 770.150206 1008.09841 770.150206 1008.811248 Z M 770.150206 1008.811248 " stroke="#a97c50" stroke-width="0.5" stroke-opacity="1" stroke-miterlimit="10"/><path stroke-linecap="butt" transform="matrix(0.695701, 0, 0, 0.695942, -23.708418, -271.242211)" fill-opacity="1" fill="#a97c50" fill-rule="nonzero" stroke-linejoin="miter" d="M 770.891365 1094.121637 C 770.891365 1094.834475 770.818372 1095.5417 770.683616 1096.237699 C 770.543245 1096.939311 770.335496 1097.618471 770.065983 1098.275179 C 769.790856 1098.931888 769.453966 1099.560532 769.060927 1100.155499 C 768.662273 1100.744853 768.213086 1101.294917 767.707751 1101.800077 C 767.202415 1102.305238 766.657776 1102.75427 766.062603 1103.147172 C 765.473045 1103.545688 764.844183 1103.882462 764.187246 1104.15188 C 763.524695 1104.426912 762.8453 1104.634589 762.14906 1104.769299 C 761.447205 1104.909621 760.74535 1104.982589 760.032265 1104.982589 C 759.319181 1104.982589 758.611711 1104.909621 757.909856 1104.769299 C 757.213616 1104.634589 756.53422 1104.426912 755.871669 1104.15188 C 755.214733 1103.882462 754.591486 1103.545688 753.996313 1103.147172 C 753.40114 1102.75427 752.856501 1102.305238 752.351165 1101.800077 C 751.845829 1101.294917 751.396642 1100.744853 750.997989 1100.155499 C 750.60495 1099.560532 750.26806 1098.931888 749.998547 1098.275179 C 749.72342 1097.618471 749.515671 1096.939311 749.380915 1096.237699 C 749.240544 1095.5417 749.167551 1094.834475 749.167551 1094.121637 C 749.167551 1093.4088 749.240544 1092.701575 749.380915 1091.999963 C 749.515671 1091.303964 749.72342 1090.624804 749.998547 1089.962482 C 750.26806 1089.305773 750.60495 1088.677129 750.997989 1088.087775 C 751.396642 1087.492808 751.845829 1086.942745 752.351165 1086.443197 C 752.856501 1085.938036 753.40114 1085.489005 753.996313 1085.090489 C 754.591486 1084.691974 755.214733 1084.360813 755.871669 1084.085781 C 756.53422 1083.816362 757.213616 1083.608685 757.909856 1083.468363 C 758.611711 1083.32804 759.319181 1083.260686 760.032265 1083.260686 C 760.74535 1083.260686 761.447205 1083.32804 762.14906 1083.468363 C 762.8453 1083.608685 763.524695 1083.816362 764.187246 1084.085781 C 764.844183 1084.360813 765.473045 1084.691974 766.062603 1085.090489 C 766.657776 1085.489005 767.202415 1085.938036 767.707751 1086.443197 C 768.213086 1086.942745 768.662273 1087.492808 769.060927 1088.087775 C 769.453966 1088.677129 769.790856 1089.305773 770.065983 1089.962482 C 770.335496 1090.624804 770.543245 1091.303964 770.683616 1091.999963 C 770.818372 1092.701575 770.891365 1093.4088 770.891365 1094.121637 Z M 770.891365 1094.121637 " stroke="#a97c50" stroke-width="0.5" stroke-opacity="1" stroke-miterlimit="10"/><path stroke-linecap="butt" transform="matrix(0.695701, 0, 0, 0.695942, -23.708418, -271.242211)" fill="none" stroke-linejoin="miter" d="M 935.400543 1084.5292 C 935.400543 1084.5292 899.589098 999.331068 903.289277 928.939753 " stroke="#3c2415" stroke-width="0.5" stroke-opacity="1" stroke-miterlimit="10"/><path stroke-linecap="butt" transform="matrix(0.695701, 0, 0, 0.695942, -23.708418, -271.242211)" fill="none" stroke-linejoin="miter" d="M 636.769697 1133.097579 C 636.769697 1133.097579 644.018454 1020.278392 649.431159 989.951921 " stroke="#3c2415" stroke-width="0.5" stroke-opacity="1" stroke-miterlimit="10"/><g clip-path="url(#beb7c83945)"><path fill="#a97c50" d="M 60.636719 647.339844 L 67.46875 1196.207031 L 94.789062 1196.207031 L 142.597656 747.546875 L 1340.136719 747.546875 L 1387.945312 1193.933594 L 1417.539062 1193.933594 L 1417.539062 647.339844 Z M 60.636719 647.339844 " fill-opacity="1" fill-rule="nonzero"/></g><g clip-path="url(#b12c071605)"><path fill="#f8a69b" d="M 1453.285156 604.09375 L 1505.53125 815.921875 C 1505.53125 815.921875 1458.488281 839.453125 1402.296875 809.390625 C 1402.296875 809.390625 1385.308594 835.535156 1344.796875 813.3125 C 1344.796875 813.3125 1330.425781 825.082031 1267.699219 812.003906 C 1267.699219 812.003906 1223.273438 806.777344 1202.359375 814.621094 C 1202.359375 814.621094 1182.753906 830.308594 1151.394531 813.3125 C 1151.394531 813.3125 1123.949219 826.382812 1099.117188 813.3125 C 1099.117188 813.3125 1066.449219 819.847656 1027.246094 808.085938 C 988.042969 796.320312 926.621094 829 926.621094 829 C 926.621094 829 916.164062 809.390625 880.882812 814.621094 C 880.882812 814.621094 849.523438 832.925781 824.691406 817.238281 C 824.691406 817.238281 789.40625 805.472656 709.691406 815.929688 C 709.691406 815.929688 691.394531 830.308594 674.40625 815.929688 C 674.40625 815.929688 459.492188 822.125 420.289062 805.128906 C 420.289062 805.128906 382.617188 793.570312 363.789062 818.054688 C 363.789062 818.054688 337.429688 778.503906 294.121094 797.335938 C 294.121094 797.335938 265.878906 829.355469 218.8125 802.984375 C 218.8125 802.984375 124.671875 761.550781 88.898438 782.269531 C 88.898438 782.269531 51.238281 804.871094 -1.480469 780.382812 L 30.527344 603.335938 L 1453.277344 604.09375 Z M 1453.285156 604.09375 " fill-opacity="1" fill-rule="nonzero"/></g><g clip-path="url(#c78d91fb45)"><path stroke-linecap="butt" transform="matrix(0.695701, 0, 0, 0.695942, -23.708418, -271.242211)" fill="none" stroke-linejoin="miter" d="M 1300.258421 1560.278172 C 1300.258421 1560.278172 1265.120756 1412.990197 1255.828197 1317.009694 " stroke="#754c29" stroke-width="0.8" stroke-opacity="1" stroke-miterlimit="10"/></g><g clip-path="url(#9aeb1b5b61)"><path stroke-linecap="butt" transform="matrix(0.695701, 0, 0, 0.695942, -23.708418, -271.242211)" fill="none" stroke-linejoin="miter" d="M 458.341331 1536.412143 C 458.341331 1536.412143 423.198051 1389.118555 413.911107 1293.138052 " stroke="#754c29" stroke-width="0.8" stroke-opacity="1" stroke-miterlimit="10"/></g><g clip-path="url(#3a6d2d83ec)"><path stroke-linecap="butt" transform="matrix(0.695701, 0, 0, 0.695942, -23.708418, -271.242211)" fill="none" stroke-linejoin="miter" d="M 556.629094 1567.917322 C 556.629094 1567.917322 590.430427 1468.091986 582.687564 1331.850188 " stroke="#754c29" stroke-width="0.8" stroke-opacity="1" stroke-miterlimit="10"/></g><g clip-path="url(#aa2ba2cb1f)"><path stroke-linecap="butt" transform="matrix(0.695701, 0, 0, 0.695942, -23.708418, -271.242211)" fill="none" stroke-linejoin="miter" d="M 1004.041955 1560.300624 L 1005.96223 1336.761471 " stroke="#754c29" stroke-width="0.8" stroke-opacity="1" stroke-miterlimit="10"/></g><g clip-path="url(#d9ab832746)"><path stroke-linecap="butt" transform="matrix(0.695701, 0, 0, 0.695942, -23.708418, -271.242211)" fill="none" stroke-linejoin="miter" d="M 161.872197 1513.792176 L 178.132772 1322.81904 " stroke="#754c29" stroke-width="0.8" stroke-opacity="1" stroke-miterlimit="10"/></g><g clip-path="url(#43a7a0d583)"><path fill="#fbc5b3" d="M 30.535156 603.339844 L 1453.285156 604.09375 L 1332.054688 561.773438 L 140.972656 561.773438 Z M 30.535156 603.339844 " fill-opacity="1" fill-rule="nonzero"/></g><path fill="#ffffff" d="M 318.421875 565.167969 L 197.675781 565.167969 L 159.351562 594.886719 L 291.929688 594.886719 Z M 318.421875 565.167969 " fill-opacity="1" fill-rule="nonzero"/><path fill="#ffffff" d="M 168.453125 570.445312 L 135.390625 571.398438 L 86.519531 594.886719 L 127.246094 594.886719 Z M 168.453125 570.445312 " fill-opacity="1" fill-rule="nonzero"/><path fill="#ffffff" d="M 308.441406 596.199219 C 308.441406 596.199219 311.175781 585.699219 330.167969 580.355469 C 348.339844 575.238281 363.59375 582.519531 363.59375 582.519531 C 363.59375 582.519531 404.125 604.300781 422.367188 593.617188 C 422.367188 593.617188 428.21875 589.429688 429.117188 587.070312 C 429.117188 587.070312 412.515625 589.332031 398.796875 586.597656 C 385.085938 583.863281 372.195312 571.835938 352.570312 569.378906 C 339.191406 567.707031 320.921875 570.117188 312.023438 579.128906 C 312.023438 579.128906 306.792969 588.644531 308.441406 596.199219 Z M 308.441406 596.199219 " fill-opacity="1" fill-rule="nonzero"/><path stroke-linecap="butt" transform="matrix(0.695701, 0, 0, 0.695942, -23.708418, -271.242211)" fill="none" stroke-linejoin="miter" d="M 693.951221 735.120879 C 693.951221 735.120879 645.242489 743.242738 615.270477 700.781188 C 615.270477 700.781188 625.888138 660.188732 596.539372 656.439318 C 567.190607 652.689905 569.060349 692.030685 569.060349 692.030685 C 569.060349 692.030685 534.091129 677.667287 529.099537 708.26879 C 524.10233 738.870293 559.071549 739.487711 559.071549 739.487711 C 559.071549 739.487711 544.70879 773.209984 579.049148 779.451523 C 613.389505 785.687449 609.02116 744.477575 609.02116 744.477575 C 609.02116 744.477575 652.109438 760.092649 693.939991 735.109653 Z M 693.951221 735.120879 " stroke="#ffffff" stroke-width="5" stroke-opacity="1" stroke-miterlimit="10"/><path fill="#ffffff" d="M 459.796875 239.558594 C 459.796875 239.558594 425.910156 245.210938 405.058594 215.660156 C 405.058594 215.660156 412.449219 187.410156 392.027344 184.800781 C 371.609375 182.191406 372.910156 209.570312 372.910156 209.570312 C 372.910156 209.570312 348.582031 199.578125 345.109375 220.871094 C 341.632812 242.167969 365.960938 242.601562 365.960938 242.601562 C 365.960938 242.601562 355.96875 266.066406 379.859375 270.410156 C 403.75 274.753906 400.710938 246.074219 400.710938 246.074219 C 400.710938 246.074219 430.6875 256.9375 459.789062 239.550781 Z M 459.796875 239.558594 " fill-opacity="0.5" fill-rule="nonzero"/><path fill="#be9e7d" d="M 531.789062 537.464844 L 517.46875 539.648438 L 456.277344 531.253906 L 418.417969 548.3125 C 418.417969 548.3125 403.257812 570.722656 419.523438 575.328125 C 419.523438 575.328125 418.421875 584.46875 431.648438 583.269531 C 431.648438 583.269531 433.0625 592.332031 445.269531 586.484375 C 445.269531 586.484375 456.128906 606.695312 462.523438 592.183594 C 468.917969 577.675781 474.199219 588.609375 474.199219 588.609375 C 474.199219 588.609375 498.984375 594.070312 513.5 576.011719 C 513.5 576.011719 524.265625 565.703125 531.238281 572.328125 L 531.789062 537.457031 Z M 531.789062 537.464844 " fill-opacity="1" fill-rule="nonzero"/><path stroke-linecap="butt" transform="matrix(0.695701, 0, 0, 0.695942, -23.708418, -271.242211)" fill="none" stroke-linejoin="miter" d="M 637.100972 1216.43223 L 635.910626 1197.281033 C 635.910626 1197.281033 646.780955 1177.697642 676.51153 1170.849911 " stroke="#603913" stroke-width="0.8" stroke-opacity="1" stroke-miterlimit="10"/><path stroke-linecap="butt" transform="matrix(0.695701, 0, 0, 0.695942, -23.708418, -271.242211)" fill="none" stroke-linejoin="miter" d="M 654.961776 1228.062148 L 653.77143 1208.910951 C 653.77143 1208.910951 664.321713 1195.60839 692.120783 1185.510792 " stroke="#603913" stroke-width="0.8" stroke-opacity="1" stroke-miterlimit="10"/><path stroke-linecap="butt" transform="matrix(0.695701, 0, 0, 0.695942, -23.708418, -271.242211)" fill="none" stroke-linejoin="miter" d="M 701.49195 1215.158103 C 701.49195 1215.158103 671.570471 1215.388232 674.102764 1232.468271 " stroke="#603913" stroke-width="0.8" stroke-opacity="1" stroke-miterlimit="10"/><path fill="#be9e7d" d="M 711.996094 459.476562 C 711.996094 459.476562 729.832031 503.328125 703.089844 568.628906 C 693.15625 592.894531 519.285156 571.238281 519.285156 571.238281 C 512.574219 557.804688 517.46875 539.648438 517.46875 539.648438 C 517.46875 539.648438 606.671875 498.558594 638.273438 502.828125 C 638.273438 502.828125 634.925781 495.625 638.292969 479.289062 " fill-opacity="1" fill-rule="nonzero"/></svg>