<?xml version="1.0" encoding="UTF-8"?>
<svg xmlns="http://www.w3.org/2000/svg" viewBox="0 0 1334.05 999.94">
  <defs>
    <style>
      .cls-1 {
        stroke-width: 1.5px;
      }

      .cls-1, .cls-2, .cls-3, .cls-4, .cls-5, .cls-6, .cls-7, .cls-8, .cls-9, .cls-10, .cls-11, .cls-12, .cls-13, .cls-14, .cls-15, .cls-16, .cls-17, .cls-18, .cls-19, .cls-20 {
        stroke-miterlimit: 10;
      }

      .cls-1, .cls-2, .cls-3, .cls-5, .cls-6, .cls-7, .cls-9, .cls-10, .cls-11, .cls-12, .cls-13, .cls-14, .cls-15, .cls-16, .cls-17, .cls-18, .cls-19, .cls-20 {
        fill: none;
      }

      .cls-1, .cls-3, .cls-6, .cls-12, .cls-18, .cls-19, .cls-20 {
        stroke: #231f20;
      }

      .cls-2 {
        stroke: #603913;
      }

      .cls-2, .cls-3 {
        stroke-width: .8px;
      }

      .cls-4 {
        stroke: #808285;
      }

      .cls-4, .cls-21 {
        fill: #fff;
      }

      .cls-4, .cls-19 {
        stroke-width: 1.2px;
      }

      .cls-22 {
        fill: #f6ac1b;
      }

      .cls-23 {
        fill: #f05380;
      }

      .cls-24 {
        fill: #f16225;
      }

      .cls-25 {
        fill: #81aa40;
      }

      .cls-26 {
        fill: #80cfd3;
      }

      .cls-27 {
        fill: #8b6340;
      }

      .cls-28 {
        fill: #c2b59b;
      }

      .cls-29 {
        fill: #bd9154;
      }

      .cls-30 {
        fill: #be9e7d;
      }

      .cls-31 {
        fill: #be8c8c;
      }

      .cls-32 {
        fill: #bde4e0;
      }

      .cls-33 {
        fill: #aa856a;
      }

      .cls-34 {
        fill: #bf6b6b;
      }

      .cls-35 {
        fill: #d28b29;
      }

      .cls-36 {
        fill: #ac8263;
      }

      .cls-37 {
        fill: #e2b159;
      }

      .cls-38 {
        fill: #ca544c;
      }

      .cls-39 {
        fill: #231f20;
      }

      .cls-40 {
        fill: #1fa8df;
      }

      .cls-41 {
        fill: #0f3e5d;
      }

      .cls-42 {
        fill: #961f47;
      }

      .cls-43 {
        fill: #463b3e;
      }

      .cls-44 {
        fill: #9b7a64;
      }

      .cls-45 {
        fill: #3c2415;
      }

      .cls-46 {
        fill: #338ecd;
      }

      .cls-47 {
        fill: #59bede;
      }

      .cls-48 {
        fill: #7d2f7c;
      }

      .cls-49, .cls-50 {
        fill: #26130f;
      }

      .cls-5 {
        stroke-width: .7px;
      }

      .cls-5, .cls-15 {
        stroke: #754c29;
      }

      .cls-6 {
        stroke-linecap: round;
      }

      .cls-6, .cls-20 {
        stroke-width: .5px;
      }

      .cls-7 {
        stroke-dasharray: 0 0 2.99 2.99;
      }

      .cls-7, .cls-14 {
        stroke: #fff;
      }

      .cls-8 {
        fill: #dcbf97;
      }

      .cls-8, .cls-13 {
        stroke: #006838;
      }

      .cls-9 {
        stroke: #1c75bc;
      }

      .cls-9, .cls-10 {
        stroke-width: 2px;
      }

      .cls-10 {
        stroke: #fbb040;
      }

      .cls-11 {
        stroke: #0c3149;
      }

      .cls-16 {
        stroke: #262262;
      }

      .cls-17 {
        stroke: #be1e2d;
      }

      .cls-18 {
        stroke-width: .6px;
      }

      .cls-51, .cls-50 {
        opacity: .8;
      }
    </style>
  </defs>
  <g id="fondo">
    <rect class="cls-32" x="1.03" width="1332.85" height="686.71"/>
    <g>
      <polyline class="cls-36" points="1068.4 289.03 1080.67 457.39 1072.86 630.22 1094.05 630.22 1101.85 549.94 1199.97 549.94 1206.66 630.22 1227.85 630.22 1215.58 440.67 1107.43 440.67"/>
      <polygon class="cls-32" points="1104.7 526.73 1108.23 473.74 1191.25 473.74 1195.67 527.62 1104.7 526.73"/>
      <polygon class="cls-36" points="1068.4 289.03 1227.14 289.03 1215.58 440.67 1079.96 440.67 1068.4 289.03"/>
    </g>
    <rect class="cls-29" y="628.19" width="1333.5" height="371.75"/>
    <g>
      <polygon class="cls-36" points="596.99 287.72 609.26 456.09 601.45 628.92 622.64 628.92 630.44 548.64 728.57 548.64 735.26 628.92 756.44 628.92 744.18 439.36 636.02 439.36 624.87 286.61 596.99 287.72"/>
      <polygon class="cls-32" points="633.29 525.43 636.83 472.44 719.85 472.44 724.26 526.31 633.29 525.43"/>
    </g>
    <polygon class="cls-37" points="362.82 879.23 1.12 879.23 1.12 999.47 292.36 999.47 362.82 879.23"/>
    <polygon class="cls-25" points="653.23 879.23 362.82 879.23 291.53 999.47 582.77 999.47 653.23 879.23"/>
    <polygon class="cls-46" points="943.46 879.23 653.05 879.23 581.76 999.47 873 999.47 943.46 879.23"/>
    <polygon class="cls-48" points="1233.1 879.23 942.69 879.23 871.4 999.47 1162.64 999.47 1233.1 879.23"/>
    <polygon class="cls-37" points="723.95 758.14 433.54 758.14 362.25 878.38 653.49 878.38 723.95 758.14"/>
    <polygon class="cls-48" points="433.85 758.14 143.44 758.14 72.15 878.38 363.39 878.38 433.85 758.14"/>
    <polygon class="cls-25" points="146.43 758.14 3.06 758.14 1.12 879.23 75.97 878.38 146.43 758.14"/>
    <polygon class="cls-37" points="1014.19 758.14 723.77 758.14 652.48 878.38 943.72 878.38 1014.19 758.14"/>
    <polygon class="cls-46" points="1303.83 758.14 1013.41 758.14 942.12 878.38 1233.36 878.38 1303.83 758.14"/>
  </g>
  <g id="Layer_1" data-name="Layer 1">
    <path class="cls-21" d="M923.69,332.64s2.39-9.2,19.03-13.88c15.91-4.48,29.28,1.89,29.28,1.89,0,0,35.5,19.07,51.48,9.72,0,0,5.13-3.67,5.91-5.73,0,0-14.54,1.98-26.55-.41-12.01-2.39-23.3-12.93-40.49-15.07-11.72-1.46-27.72,.65-35.51,8.53,0,0-4.58,8.33-3.14,14.95Z"/>
    <g>
      <polygon class="cls-27" points="679.92 628.97 681.2 363.12 1313.86 363.12 1313.86 630.25 1296.61 630.25 1282.22 412.97 711.99 412.97 698.95 628.97 679.92 628.97"/>
      <g>
        <path class="cls-14" d="M663.57,392.08s-1.24,5.12-.12,8.22-.85,9.58-.85,9.58"/>
        <path class="cls-14" d="M667.16,392.6s-.45,9.53,.68,16.79"/>
        <path class="cls-14" d="M672.38,393.06s1.36,3.18-.45,6.81-.45,10.21-.45,10.21"/>
        <path class="cls-14" d="M674.87,408.71s-1.82-9.76,.23-15.43"/>
        <line class="cls-14" x1="677.14" y1="393.51" x2="676.92" y2="410.07"/>
        <path class="cls-14" d="M715.53,394.12s-1.24,5.12-.12,8.22-.85,9.58-.85,9.58"/>
        <path class="cls-14" d="M719.12,394.64s-.45,9.53,.68,16.79"/>
        <path class="cls-14" d="M724.34,395.1s1.36,3.18-.45,6.81-.45,10.21-.45,10.21"/>
        <path class="cls-14" d="M726.84,410.75s-1.82-9.76,.23-15.43"/>
        <line class="cls-14" x1="729.1" y1="395.55" x2="728.88" y2="412.12"/>
        <path class="cls-14" d="M733,393.9s-1.24,5.12-.12,8.22-.85,9.58-.85,9.58"/>
        <path class="cls-14" d="M736.59,394.42s-.45,9.53,.68,16.79"/>
        <path class="cls-14" d="M741.81,394.87s1.36,3.18-.45,6.81-.45,10.21-.45,10.21"/>
        <path class="cls-14" d="M744.31,410.53s-1.82-9.76,.23-15.43"/>
        <line class="cls-14" x1="746.58" y1="395.33" x2="746.35" y2="411.89"/>
        <path class="cls-14" d="M750.7,392.99s-1.24,5.12-.12,8.22c1.13,3.1-.85,9.58-.85,9.58"/>
        <path class="cls-14" d="M754.29,393.51s-.45,9.53,.68,16.79"/>
        <path class="cls-14" d="M759.51,393.96s1.36,3.18-.45,6.81-.45,10.21-.45,10.21"/>
        <path class="cls-14" d="M762.01,409.62s-1.82-9.76,.23-15.43"/>
        <line class="cls-14" x1="764.27" y1="394.42" x2="764.05" y2="410.98"/>
        <path class="cls-14" d="M767.49,391.63s-1.24,5.12-.12,8.22-.85,9.58-.85,9.58"/>
        <path class="cls-14" d="M771.08,392.15s-.45,9.53,.68,16.79"/>
        <path class="cls-14" d="M776.3,392.6s1.36,3.18-.45,6.81-.45,10.21-.45,10.21"/>
        <path class="cls-14" d="M778.8,408.26s-1.82-9.76,.23-15.43"/>
        <line class="cls-14" x1="781.07" y1="393.06" x2="780.84" y2="409.62"/>
        <path class="cls-14" d="M784.28,390.04s-1.24,5.12-.12,8.22c1.13,3.1-.85,9.58-.85,9.58"/>
        <path class="cls-14" d="M787.87,390.56s-.45,9.53,.68,16.79"/>
        <path class="cls-14" d="M793.09,391.01s1.36,3.18-.45,6.81c-1.82,3.63-.45,10.21-.45,10.21"/>
        <path class="cls-14" d="M795.59,406.67s-1.82-9.76,.23-15.43"/>
        <line class="cls-14" x1="797.86" y1="391.47" x2="797.63" y2="408.03"/>
        <path class="cls-14" d="M801.3,389.13s-1.24,5.12-.12,8.22c1.13,3.1-.85,9.58-.85,9.58"/>
        <path class="cls-14" d="M804.89,389.65s-.45,9.53,.68,16.79"/>
        <path class="cls-14" d="M810.11,390.11s1.36,3.18-.45,6.81-.45,10.21-.45,10.21"/>
        <path class="cls-14" d="M812.61,405.76s-1.82-9.76,.23-15.43"/>
        <line class="cls-14" x1="814.87" y1="390.56" x2="814.65" y2="407.12"/>
        <path class="cls-14" d="M817.86,389.36s-1.24,5.12-.12,8.22-.85,9.58-.85,9.58"/>
        <path class="cls-14" d="M821.45,389.88s-.45,9.53,.68,16.79"/>
        <path class="cls-14" d="M826.67,390.33s1.36,3.18-.45,6.81-.45,10.21-.45,10.21"/>
        <path class="cls-14" d="M829.17,405.99s-1.82-9.76,.23-15.43"/>
        <line class="cls-14" x1="831.44" y1="390.79" x2="831.21" y2="407.35"/>
        <path class="cls-14" d="M834.88,389.36s-1.24,5.12-.12,8.22-.85,9.58-.85,9.58"/>
        <path class="cls-14" d="M838.47,389.88s-.45,9.53,.68,16.79"/>
        <path class="cls-14" d="M843.69,390.33s1.36,3.18-.45,6.81-.45,10.21-.45,10.21"/>
        <path class="cls-14" d="M846.19,405.99s-1.82-9.76,.23-15.43"/>
        <line class="cls-14" x1="848.46" y1="390.79" x2="848.23" y2="407.35"/>
        <path class="cls-14" d="M851.9,390.49s-1.24,5.12-.12,8.22-.85,9.58-.85,9.58"/>
        <path class="cls-14" d="M855.49,391.01s-.45,9.53,.68,16.79"/>
        <path class="cls-14" d="M860.71,391.47s1.36,3.18-.45,6.81-.45,10.21-.45,10.21"/>
        <path class="cls-14" d="M863.21,407.12s-1.82-9.76,.23-15.43"/>
        <line class="cls-14" x1="865.47" y1="391.92" x2="865.25" y2="408.49"/>
        <path class="cls-14" d="M868.92,392.08s-1.24,5.12-.12,8.22c1.13,3.1-.85,9.58-.85,9.58"/>
        <path class="cls-14" d="M872.51,392.6s-.45,9.53,.68,16.79"/>
        <path class="cls-14" d="M877.73,393.06s1.36,3.18-.45,6.81-.45,10.21-.45,10.21"/>
        <path class="cls-14" d="M880.22,408.71s-1.82-9.76,.23-15.43"/>
        <line class="cls-14" x1="882.49" y1="393.51" x2="882.27" y2="410.07"/>
        <path class="cls-14" d="M886.39,393.9s-1.24,5.12-.12,8.22-.85,9.58-.85,9.58"/>
        <path class="cls-14" d="M889.98,394.42s-.45,9.53,.68,16.79"/>
        <path class="cls-14" d="M895.2,394.87s1.36,3.18-.45,6.81-.45,10.21-.45,10.21"/>
        <path class="cls-14" d="M897.7,410.53s-1.82-9.76,.23-15.43"/>
        <line class="cls-14" x1="899.96" y1="395.33" x2="899.74" y2="411.89"/>
        <path class="cls-14" d="M903.41,395.03s-1.24,5.12-.12,8.22-.85,9.58-.85,9.58"/>
        <path class="cls-14" d="M907,395.55s-.45,9.53,.68,16.79"/>
        <path class="cls-14" d="M912.22,396.01s1.36,3.18-.45,6.81c-1.82,3.63-.45,10.21-.45,10.21"/>
        <path class="cls-14" d="M914.71,411.66s-1.82-9.76,.23-15.43"/>
        <line class="cls-14" x1="916.98" y1="396.46" x2="916.76" y2="413.02"/>
        <path class="cls-14" d="M920.42,395.94s-1.24,5.12-.12,8.22c1.13,3.1-.85,9.58-.85,9.58"/>
        <path class="cls-14" d="M924.02,396.46s-.45,9.53,.68,16.79"/>
        <path class="cls-14" d="M929.23,396.91s1.36,3.18-.45,6.81-.45,10.21-.45,10.21"/>
        <path class="cls-14" d="M931.73,412.57s-1.82-9.76,.23-15.43"/>
        <line class="cls-14" x1="934" y1="397.37" x2="933.77" y2="413.93"/>
        <path class="cls-14" d="M937.9,395.71s-1.24,5.12-.12,8.22-.85,9.58-.85,9.58"/>
        <path class="cls-14" d="M941.49,396.23s-.45,9.53,.68,16.79"/>
        <path class="cls-14" d="M946.71,396.69s1.36,3.18-.45,6.81c-1.82,3.63-.45,10.21-.45,10.21"/>
        <path class="cls-14" d="M949.2,412.34s-1.82-9.76,.23-15.43"/>
        <line class="cls-14" x1="951.47" y1="397.14" x2="951.24" y2="413.7"/>
        <path class="cls-14" d="M954.69,394.8s-1.24,5.12-.12,8.22-.85,9.58-.85,9.58"/>
        <path class="cls-14" d="M958.28,395.33s-.45,9.53,.68,16.79"/>
        <path class="cls-14" d="M963.5,395.78s1.36,3.18-.45,6.81c-1.82,3.63-.45,10.21-.45,10.21"/>
        <path class="cls-14" d="M965.99,411.44s-1.82-9.76,.23-15.43"/>
        <line class="cls-14" x1="968.26" y1="396.23" x2="968.04" y2="412.8"/>
        <path class="cls-14" d="M971.25,393.22s-1.24,5.12-.12,8.22-.85,9.58-.85,9.58"/>
        <path class="cls-14" d="M974.84,393.74s-.45,9.53,.68,16.79"/>
        <path class="cls-14" d="M980.06,394.19s1.36,3.18-.45,6.81c-1.82,3.63-.45,10.21-.45,10.21"/>
        <path class="cls-14" d="M982.56,409.85s-1.82-9.76,.23-15.43"/>
        <line class="cls-14" x1="984.83" y1="394.64" x2="984.6" y2="411.21"/>
        <path class="cls-14" d="M988.27,389.81s-1.24,5.12-.12,8.22-.85,9.58-.85,9.58"/>
        <path class="cls-14" d="M991.86,390.33s-.45,9.53,.68,16.79"/>
        <path class="cls-14" d="M997.08,390.79s1.36,3.18-.45,6.81c-1.82,3.63-.45,10.21-.45,10.21"/>
        <path class="cls-14" d="M999.58,406.44s-1.82-9.76,.23-15.43"/>
        <line class="cls-14" x1="1001.84" y1="391.24" x2="1001.62" y2="407.81"/>
        <path class="cls-14" d="M1005.29,387.09s-1.24,5.12-.12,8.22c1.13,3.1-.85,9.58-.85,9.58"/>
        <path class="cls-14" d="M1008.88,387.61s-.45,9.53,.68,16.79"/>
        <path class="cls-14" d="M1014.1,388.06s1.36,3.18-.45,6.81c-1.82,3.63-.45,10.21-.45,10.21"/>
        <path class="cls-14" d="M1016.59,403.72s-1.82-9.76,.23-15.43"/>
        <line class="cls-14" x1="1018.86" y1="388.52" x2="1018.64" y2="405.08"/>
        <path class="cls-14" d="M1022.53,384.82s-1.24,5.12-.12,8.22-.85,9.58-.85,9.58"/>
        <path class="cls-14" d="M1026.12,385.34s-.45,9.53,.68,16.79"/>
        <path class="cls-14" d="M1031.34,385.8s1.36,3.18-.45,6.81c-1.82,3.63-.45,10.21-.45,10.21"/>
        <path class="cls-14" d="M1033.84,401.45s-1.82-9.76,.23-15.43"/>
        <line class="cls-14" x1="1036.11" y1="386.25" x2="1035.88" y2="402.81"/>
        <path class="cls-14" d="M1039.55,385.5s-1.24,5.12-.12,8.22c1.13,3.1-.85,9.58-.85,9.58"/>
        <path class="cls-14" d="M1043.14,386.02s-.45,9.53,.68,16.79"/>
        <path class="cls-14" d="M1048.36,386.48s1.36,3.18-.45,6.81c-1.82,3.63-.45,10.21-.45,10.21"/>
        <path class="cls-14" d="M1050.86,402.13s-1.82-9.76,.23-15.43"/>
        <line class="cls-14" x1="1053.13" y1="386.93" x2="1052.9" y2="403.49"/>
        <path class="cls-14" d="M1056.57,386.64s-1.24,5.12-.12,8.22c1.13,3.1-.85,9.58-.85,9.58"/>
        <path class="cls-14" d="M1060.16,387.16s-.45,9.53,.68,16.79"/>
        <path class="cls-14" d="M1065.38,387.61s1.36,3.18-.45,6.81-.45,10.21-.45,10.21"/>
        <path class="cls-14" d="M1067.87,403.27s-1.82-9.76,.23-15.43"/>
        <line class="cls-14" x1="1070.14" y1="388.06" x2="1069.92" y2="404.63"/>
        <path class="cls-14" d="M1072.9,390.72s-1.24,5.12-.12,8.22c1.13,3.1-.85,9.58-.85,9.58"/>
        <path class="cls-14" d="M1076.5,391.24s-.45,9.53,.68,16.79"/>
        <path class="cls-14" d="M1081.72,391.69s1.36,3.18-.45,6.81c-1.82,3.63-.45,10.21-.45,10.21"/>
        <path class="cls-14" d="M1084.21,407.35s-1.82-9.76,.23-15.43"/>
        <line class="cls-14" x1="1086.48" y1="392.15" x2="1086.25" y2="408.71"/>
        <path class="cls-14" d="M1089.24,393.22s-1.24,5.12-.12,8.22c1.13,3.1-.85,9.58-.85,9.58"/>
        <path class="cls-14" d="M1092.83,393.74s-.45,9.53,.68,16.79"/>
        <path class="cls-14" d="M1098.05,394.19s1.36,3.18-.45,6.81-.45,10.21-.45,10.21"/>
        <path class="cls-14" d="M1100.55,409.85s-1.82-9.76,.23-15.43"/>
        <line class="cls-14" x1="1102.82" y1="394.64" x2="1102.59" y2="411.21"/>
        <path class="cls-14" d="M1105.58,394.8s-1.24,5.12-.12,8.22c1.13,3.1-.85,9.58-.85,9.58"/>
        <path class="cls-14" d="M1109.17,395.33s-.45,9.53,.68,16.79"/>
        <path class="cls-14" d="M1114.39,395.78s1.36,3.18-.45,6.81c-1.82,3.63-.45,10.21-.45,10.21"/>
        <path class="cls-14" d="M1116.89,411.44s-1.82-9.76,.23-15.43"/>
        <line class="cls-14" x1="1119.15" y1="396.23" x2="1118.93" y2="412.8"/>
        <path class="cls-14" d="M1122.37,396.62s-1.24,5.12-.12,8.22c1.13,3.1-.85,9.58-.85,9.58"/>
        <path class="cls-14" d="M1125.96,397.14s-.45,9.53,.68,16.79"/>
        <path class="cls-14" d="M1131.18,397.59s1.36,3.18-.45,6.81-.45,10.21-.45,10.21"/>
        <path class="cls-14" d="M1133.68,413.25s-1.82-9.76,.23-15.43"/>
        <line class="cls-14" x1="1135.95" y1="398.05" x2="1135.72" y2="414.61"/>
        <path class="cls-14" d="M1139.39,395.94s-1.24,5.12-.12,8.22c1.13,3.1-.85,9.58-.85,9.58"/>
        <path class="cls-14" d="M1142.98,396.46s-.45,9.53,.68,16.79"/>
        <path class="cls-14" d="M1148.2,396.91s1.36,3.18-.45,6.81-.45,10.21-.45,10.21"/>
        <path class="cls-14" d="M1150.69,412.57s-1.82-9.76,.23-15.43"/>
        <line class="cls-14" x1="1152.96" y1="397.37" x2="1152.74" y2="413.93"/>
        <path class="cls-14" d="M1156.41,393.9s-1.24,5.12-.12,8.22c1.13,3.1-.85,9.58-.85,9.58"/>
        <path class="cls-14" d="M1160,394.42s-.45,9.53,.68,16.79"/>
        <path class="cls-14" d="M1165.22,394.87s1.36,3.18-.45,6.81-.45,10.21-.45,10.21"/>
        <path class="cls-14" d="M1167.71,410.53s-1.82-9.76,.23-15.43"/>
        <line class="cls-14" x1="1169.98" y1="395.33" x2="1169.75" y2="411.89"/>
        <path class="cls-14" d="M1172.29,388.68s-1.24,5.12-.12,8.22c1.13,3.1-.85,9.58-.85,9.58"/>
        <path class="cls-14" d="M1175.88,389.2s-.45,9.53,.68,16.79"/>
        <path class="cls-14" d="M1181.1,389.65s1.36,3.18-.45,6.81c-1.82,3.63-.45,10.21-.45,10.21"/>
        <path class="cls-14" d="M1183.6,405.31s-1.82-9.76,.23-15.43"/>
        <line class="cls-14" x1="1185.86" y1="390.11" x2="1185.64" y2="406.67"/>
        <path class="cls-14" d="M1188.4,385.5s-1.24,5.12-.12,8.22c1.13,3.1-.85,9.58-.85,9.58"/>
        <path class="cls-14" d="M1191.99,386.02s-.45,9.53,.68,16.79"/>
        <path class="cls-14" d="M1197.21,386.48s1.36,3.18-.45,6.81c-1.82,3.63-.45,10.21-.45,10.21"/>
        <path class="cls-14" d="M1199.71,402.13s-1.82-9.76,.23-15.43"/>
        <line class="cls-14" x1="1201.98" y1="386.93" x2="1201.75" y2="403.49"/>
        <path class="cls-14" d="M1204.96,383.91s-1.24,5.12-.12,8.22c1.13,3.1-.85,9.58-.85,9.58"/>
        <path class="cls-14" d="M1208.56,384.43s-.45,9.53,.68,16.79"/>
        <path class="cls-14" d="M1213.77,384.89s1.36,3.18-.45,6.81-.45,10.21-.45,10.21"/>
        <path class="cls-14" d="M1216.27,400.54s-1.82-9.76,.23-15.43"/>
        <line class="cls-14" x1="1218.54" y1="385.34" x2="1218.31" y2="401.91"/>
        <path class="cls-14" d="M1221.53,383.91s-1.24,5.12-.12,8.22c1.13,3.1-.85,9.58-.85,9.58"/>
        <path class="cls-14" d="M1225.12,384.43s-.45,9.53,.68,16.79"/>
        <path class="cls-14" d="M1230.34,384.89s1.36,3.18-.45,6.81-.45,10.21-.45,10.21"/>
        <path class="cls-14" d="M1232.83,400.54s-1.82-9.76,.23-15.43"/>
        <line class="cls-14" x1="1235.1" y1="385.34" x2="1234.88" y2="401.91"/>
        <path class="cls-14" d="M1238.32,384.82s-1.24,5.12-.12,8.22c1.13,3.1-.85,9.58-.85,9.58"/>
        <path class="cls-14" d="M1241.91,385.34s-.45,9.53,.68,16.79"/>
        <path class="cls-14" d="M1247.13,385.8s1.36,3.18-.45,6.81c-1.82,3.63-.45,10.21-.45,10.21"/>
        <path class="cls-14" d="M1249.63,401.45s-1.82-9.76,.23-15.43"/>
        <line class="cls-14" x1="1251.89" y1="386.25" x2="1251.67" y2="402.81"/>
        <path class="cls-14" d="M1254.66,386.64s-1.24,5.12-.12,8.22c1.13,3.1-.85,9.58-.85,9.58"/>
        <path class="cls-14" d="M1258.25,387.16s-.45,9.53,.68,16.79"/>
        <path class="cls-14" d="M1263.47,387.61s1.36,3.18-.45,6.81c-1.82,3.63-.45,10.21-.45,10.21"/>
        <path class="cls-14" d="M1265.96,403.27s-1.82-9.76,.23-15.43"/>
        <line class="cls-14" x1="1268.23" y1="388.06" x2="1268" y2="404.63"/>
        <path class="cls-14" d="M1271.9,389.59s-1.24,5.12-.12,8.22c1.13,3.1-.85,9.58-.85,9.58"/>
        <path class="cls-14" d="M1275.49,390.11s-.45,9.53,.68,16.79"/>
        <path class="cls-14" d="M1280.71,390.56s1.36,3.18-.45,6.81c-1.82,3.63-.45,10.21-.45,10.21"/>
        <path class="cls-14" d="M1283.21,406.22s-1.82-9.76,.23-15.43"/>
        <line class="cls-14" x1="1285.48" y1="391.01" x2="1285.25" y2="407.58"/>
        <path class="cls-14" d="M1288.46,392.99s-1.24,5.12-.12,8.22c1.13,3.1-.85,9.58-.85,9.58"/>
        <path class="cls-14" d="M1292.06,393.51s-.45,9.53,.68,16.79"/>
        <path class="cls-14" d="M1297.28,393.96s1.36,3.18-.45,6.81-.45,10.21-.45,10.21"/>
        <path class="cls-14" d="M1299.77,409.62s-1.82-9.76,.23-15.43"/>
        <line class="cls-14" x1="1302.04" y1="394.42" x2="1301.81" y2="410.98"/>
        <path class="cls-14" d="M1306.16,393.67s-1.24,5.12-.12,8.22c1.13,3.1-.85,9.58-.85,9.58"/>
        <path class="cls-14" d="M1309.76,394.19s-.45,9.53,.68,16.79"/>
        <path class="cls-14" d="M1314.97,394.64s1.36,3.18-.45,6.81c-1.82,3.63-.45,10.21-.45,10.21"/>
        <path class="cls-14" d="M1317.47,410.3s-1.82-9.76,.23-15.43"/>
        <line class="cls-14" x1="1319.74" y1="395.1" x2="1319.51" y2="411.66"/>
        <path class="cls-14" d="M1322.05,390.49s-1.24,5.12-.12,8.22-.85,9.58-.85,9.58"/>
        <path class="cls-14" d="M1325.64,391.01s-.45,9.53,.68,16.79"/>
        <path class="cls-14" d="M1330.86,391.47s1.36,3.18-.45,6.81c-1.82,3.63-.45,10.21-.45,10.21"/>
        <path class="cls-14" d="M1333.35,407.12s-1.82-9.76,.23-15.43"/>
        <path class="cls-14" d="M680.36,393.22s-1.24,5.12-.12,8.22-.85,9.58-.85,9.58"/>
        <path class="cls-14" d="M683.95,393.74s-.45,9.53,.68,16.79"/>
        <path class="cls-14" d="M689.17,394.19s1.36,3.18-.45,6.81-.45,10.21-.45,10.21"/>
        <path class="cls-14" d="M691.66,409.85s-1.82-9.76,.23-15.43"/>
        <line class="cls-14" x1="693.93" y1="394.64" x2="693.71" y2="411.21"/>
        <path class="cls-14" d="M697.83,393.9s-1.24,5.12-.12,8.22-.85,9.58-.85,9.58"/>
        <path class="cls-14" d="M701.42,394.42s-.45,9.53,.68,16.79"/>
        <path class="cls-14" d="M706.64,394.87s1.36,3.18-.45,6.81-.45,10.21-.45,10.21"/>
        <path class="cls-14" d="M709.14,410.53s-1.82-9.76,.23-15.43"/>
        <line class="cls-14" x1="711.41" y1="395.33" x2="711.18" y2="411.89"/>
      </g>
      <path class="cls-38" d="M1333.77,392.08v-58.17H663.57v58.17s62.48,6.97,107.41,1.06c0,0,61.49-5.91,101.69,0,0,0,81.59,11.82,135.98-3.55,0,0,46.11-7.09,62.67,1.18,0,0,65.7,21.62,117.06-2.36,0,0,41.38-7.09,72.13,0,0,0,24.75,16.8,73.27,3.67Z"/>
      <line class="cls-17" x1="770.98" y1="393.14" x2="770.98" y2="356.44"/>
      <line class="cls-17" x1="872.67" y1="393.14" x2="872.67" y2="366.88"/>
      <line class="cls-17" x1="1008.65" y1="389.6" x2="1008.65" y2="357.76"/>
      <line class="cls-17" x1="1071.32" y1="390.78" x2="1071.32" y2="358.83"/>
      <line class="cls-17" x1="1188.38" y1="388.41" x2="1188.38" y2="355.61"/>
      <line class="cls-17" x1="1260.5" y1="388.41" x2="1260.5" y2="358.83"/>
      <line class="cls-9" x1="663.47" y1="340.22" x2="1333.79" y2="340.22"/>
      <line class="cls-9" x1="663.47" y1="344.22" x2="1333.79" y2="344.22"/>
      <g class="cls-51">
        <g>
          <line class="cls-14" x1="663.47" y1="342.25" x2="664.97" y2="342.25"/>
          <line class="cls-7" x1="667.96" y1="342.25" x2="1330.79" y2="342.25"/>
          <line class="cls-14" x1="1332.29" y1="342.25" x2="1333.79" y2="342.25"/>
        </g>
      </g>
    </g>
    <g>
      <ellipse class="cls-30" cx="620.2" cy="200.18" rx="13.9" ry="19.47"/>
      <ellipse class="cls-30" cx="761.9" cy="200.18" rx="13.9" ry="19.47"/>
      <path class="cls-30" d="M641.94,242.55s10.85,32.31-1.06,55.13c0,0-27.84,67.77,54.54,77.5,0,0,74.04-15.99,41.81-77.5-9.7-18.5,4.42-39.97,2.55-45.33l-97.84-9.8Z"/>
      <path class="cls-30" d="M747.98,88.17c6.76,11.6,16.4,20.91,16.81,44.68,.17,9.63-7.83,72.18-10.87,82.05-10.64,34.57-43.57,56.88-64.19,56.31-25.26-.7-56.06-28.7-65-55.91-6.64-20.19-8.92-98.58-1.76-115.25"/>
      <path class="cls-12" d="M609.82,183.53c5.45-11.31,10.48,17.18,10.48,17.18,0,0-5.03-15.08-7.54-9.64"/>
      <path class="cls-12" d="M769.45,185.62c-5.45-11.31-10.48,17.18-10.48,17.18,0,0,5.03-15.08,7.54-9.64"/>
      <path class="cls-45" d="M757.68,187.67c9.44,9.62,11.53,21.67,11.53,21.67-5.33,11.82-15.29,5.56-15.29,5.56-7.82,22.94-26.65,37.54-26.65,37.54,0,20.86,11.12,47.85,11.12,47.85,0,0,19.9,62.89,53.27,36.82,33.37-26.07,21.66-133,3.04-171.34-6.89-14.18-16.16-41.71-16.16-41.71-17.21-60.48-73.52-52.14-73.52-52.14-47.97-25.03-85.43,34.65-92.37,45.68-9.76,15.5-23.03,55.39-25.6,64.25-16.25,55.97-17.45,143.23-17.45,143.23-18.77,83.43,71.29-27.39,71.29-27.39,13.04-11.47,10.43-45.88,10.43-45.88-20.34-14.6-26.59-36.5-26.59-36.5-8.86,0-12.51-4.69-12.51-4.69,0,0-6.78-22.42,28.16-45.88s49.36-69.87,49.36-69.87c51.97,1.56,50.23,28.68,50.23,28.68,0,0-2,44.04,17.73,64.13Z"/>
      <path class="cls-49" d="M673.68,153.45s-20.2-4.66-37.17,3.67c0,0,7.74-13.94,37.34-9.6,0,0,5.06,3.45-.17,5.93Z"/>
      <path class="cls-49" d="M710.7,153.45s20.2-4.66,37.17,3.67c0,0-7.74-13.94-37.34-9.6,0,0-5.06,3.45,.17,5.93Z"/>
      <path class="cls-39" d="M675.12,173.07s-11.82,12.86-31.28-1.39c0,0,9.99,4.47,16.24,4.56,7.88,.12,15.04-3.17,15.04-3.17Z"/>
      <path class="cls-39" d="M741.83,172.36c-16.86,12.69-29.97,.71-29.97,.71,0,0,6.34,3.63,15.38,3.28,7.29-.28,14.6-4,14.6-4Z"/>
      <path class="cls-19" d="M706.18,210.78c0,4.7-5.68,8.52-12.69,8.52s-12.69-3.81-12.69-8.52"/>
      <path class="cls-10" d="M617.35,206.52s-10.34,8.59-3.06,17.19c4.77,5.63,5.56-11.08,5.56-11.08"/>
      <path class="cls-10" d="M767.08,206.28s10.34,8.59,3.06,17.19c-4.77,5.63-5.56-11.08-5.56-11.08"/>
      <path class="cls-49" d="M651.31,251.8s13.36,15.66,38.41,19.41c0,0,18.28,1.81,37.54-18.77,0,0-14.11,21.59-36.59,21.59s-39.36-22.23-39.36-22.23Z"/>
      <path class="cls-30" d="M938.1,610.11s-33.76-40.92-64.71-72.47c0,0-13.45-78.47-24.77-113.78l-54.66,25.66s-8.81,76.4,22.77,124.88c31.59,48.48,110.34,68.32,110.34,68.32"/>
      <path class="cls-30" d="M938.1,610.11l5.88,3.13s16.74-19.3,43.31-5.46c0,0,7.62,2.57,11.81,2.18,10.51-.98,18.08-1.22,20.87,1.65,0,0,3.62,6.98-5.39,9.73-9.01,2.75-29.43,1.19-29.43,1.19l48.24,50.28s8.6,8.08,1.62,11.32c-5.02,2.33-8.9-4.21-8.9-4.21,0,0-5.77,7.36-12.43,.15-1.28-1.38,.65-1.3-1.95-.49-8.09,2.51-14.93-5.45-17.16-7.44,0,0-24.24,3.05-43.75-21.61l-23.75-7.81,11.02-32.6Z"/>
      <line class="cls-15" x1="1026.12" y1="679.92" x2="994.83" y2="647.3"/>
      <path class="cls-15" d="M994.72,671.45s5.02-2.03,1.45-5.72c-3.57-3.69-22.55-5.6-28.14-16.61"/>
      <path class="cls-15" d="M985.16,622.54s-10.26-1.88-12.76,3.92"/>
      <line class="cls-15" x1="1013.16" y1="678.72" x2="985.88" y2="649.58"/>
      <path class="cls-30" d="M442.48,612.83s33.76-40.92,64.71-72.47c0,0,13.45-78.47,24.77-113.78l54.66,25.66s8.81,76.4-22.77,124.88-110.34,68.32-110.34,68.32"/>
      <path class="cls-41" d="M563.02,616.42s-27.86,70.52-31.9,101.71c-4.91,37.85-4.3,58.4-2.4,81.27,1.91,22.87,25.73,101,42.88,107.66s59.07,10.48,80.03-5.72c20.96-16.2,30.49-45.73,30.49-45.73,0,0,20.01,40.97,40.02,45.73,20.01,4.76,53.36,19.06,88.61-8.58s33-139.59,33-139.59c0,0-2.51-85.31-30.14-132.95,0,0-109.57,33.35-250.58-3.81Z"/>
      <path class="cls-1" d="M682.12,855.62l1.35-139.33s-3.31-23.19-39.75-33.95"/>
      <path class="cls-1" d="M724.05,690.61s-21.53,0-40.58,25.67"/>
      <path class="cls-21" d="M525.03,425.72c14.88-60,20.59-68.01,42.73-95,22.15-26.99,73.57-33.55,73.57-33.55-10.42,22.45,2.43,39.58,2.43,39.58,50.18,57.89,94.79,0,94.79,0,10.4-17.12-1.31-39.58-1.31-39.58,0,0,50.77,5.52,72.92,32.51,22.15,26.99,34.24,53.84,42.99,94.68,0,0-29.57,17.27-54.1,22.38l.08,94.21,14.47,79.27s-104.8,62.76-250.58-3.81l20.81-78.41-2.86-89.22s-40.68-12.66-55.95-23.07"/>
      <line class="cls-4" x1="579.7" y1="400.28" x2="580.98" y2="448.79"/>
      <line class="cls-4" x1="799.26" y1="397.61" x2="799.05" y2="446.75"/>
      <path class="cls-30" d="M442.48,612.83l-5.88,3.13s-16.74-19.3-43.31-5.46c0,0-7.62,2.57-11.81,2.18-10.51-.98-18.08-1.22-20.87,1.65,0,0-3.62,6.98,5.39,9.73,9.01,2.75,29.43,1.19,29.43,1.19l-48.24,50.28s-8.6,8.08-1.62,11.32c5.02,2.33,8.9-4.21,8.9-4.21,0,0,5.77,7.36,12.43,.15,1.28-1.38-.65-1.3,1.95-.49,8.09,2.51,14.93-5.45,17.16-7.44,0,0,24.24,3.05,43.75-21.61l23.75-7.81-11.02-32.6Z"/>
      <line class="cls-15" x1="354.46" y1="682.63" x2="385.74" y2="650.01"/>
      <path class="cls-15" d="M385.85,674.16s-5.02-2.03-1.45-5.72c3.57-3.69,22.55-5.6,28.14-16.61"/>
      <path class="cls-15" d="M395.42,625.25s10.26-1.88,12.76,3.92"/>
      <line class="cls-15" x1="367.42" y1="681.44" x2="394.7" y2="652.29"/>
      <g>
        <path class="cls-34" d="M712.3,237.21s-9.1-5.56-19.41-1.77c0,0-7.72-4.87-21.32,1.79,0,0,5.3,12.83,21.56,12.58,16.27-.26,19.16-12.59,19.16-12.59Z"/>
        <path class="cls-19" d="M671.57,237.23s23.05,8.35,40.72-.02"/>
      </g>
    </g>
    <path class="cls-13" d="M90.67,687.83c20.56,2.38,29.61,49.24,29.61,49.24,0,0-.83,2.55-2.08,3.56"/>
    <line class="cls-13" x1="238.3" y1="739.93" x2="236.87" y2="712.98"/>
    <rect class="cls-43" x="694.95" y="874.31" width="52.12" height="152.67" rx="6.34" ry="6.34" transform="translate(1586.26 129.12) rotate(83.66)"/>
    <rect class="cls-26" x="701.16" y="875.79" width="32.96" height="141.56" rx="6.34" ry="6.34" transform="translate(1579.22 128.84) rotate(83.66)"/>
    <g>
      <path class="cls-49" d="M265.57,665.14c11.4-5.76,4.95-15.69,4.95-15.69,6.92-1.82,1.8-13.35,1.8-13.35,7.24-6.54-.13-14.6-.13-14.6,2.32-7.81-6.79-14.34-6.79-14.34,4.36-10.41-6.01-12.19-6.01-12.19,3.75-10.44-8.71-16.27-8.71-16.27,2.23-9.78-1.86-16.37-1.86-16.37,3.59-12.74-5.42-18.9-5.42-18.9,3.94-10.4-3.73-14.86-3.73-14.86,3.25-9.67-5.78-14.15-5.78-14.15,2.73-10.56-8.03-13.12-8.03-13.12-1.61-10.63-10.64-11.19-10.64-11.19-4.4-9.7-16.1-9.74-16.1-9.74-8.69-6.45-17.04-3.62-17.04-3.62-12.34-5.17-20.74,1.28-20.74,1.28-12.24-4.36-26.9,4.76-26.9,4.76-15.26-1.39-27.04,13.44-27.04,13.44-14.26,1.72-13.03,16.75-13.03,16.75-11.4,5.76-6.43,18.08-6.43,18.08-9.08,1.02-9.56,11.28-9.56,11.28-9.22,1.97-6.7,13.73-6.7,13.73-7.47,3.93-2.5,13.17-2.5,13.17-6.79,7.1,.61,12.17,.61,12.17-4.93,8.04,2.2,11.83,2.2,11.83-3.75,10.44,2.48,15.33,2.48,15.33-6.18,5.31,.7,11.6,.7,11.6-7.83,6.66,1.28,13.05,1.28,13.05-7.45,5.58-3.4,13.99-3.4,13.99-6.38,4.36-1.52,15.24-1.52,15.24-5.13,7.08,2.07,17.56,2.07,17.56-9.86,9.14-1.14,19.65-1.14,19.65-6.05,11.14,3.95,17.16,3.95,17.16-1.9,9.65,2.72,13.92,2.72,13.92,0,0-5.25,21.11,14.06,16.11"/>
      <path class="cls-30" d="M201.79,515.91s12.23-.83,19.81,26.24c0,0,.12,9.3,2.69,14.31,2.57,5.01,5.79,22.12,5.64,32.41-.15,10.3-3.44,28.33-17.16,39.18-13.72,10.85-40.68,3.32-40.68,3.32,0,0-27.33-6.77-36.14-20.92,0,0-7.1,11.79-18.01,5.78-10.91-6.01-25.31-24.31-16.27-32.02,7.76-6.62,18.29,3.35,21.11,6.3,.47,.49,.72,.79,.72,.79,0,0,20.61-39.98,11.95-62.31,0,0,18.01,8.9,35.01-1.12,0,0,23.5,4.4,31.32-11.96Z"/>
      <path class="cls-47" d="M98.29,538.03s1.3,11.22,11.84,11.52c10.54,.3,4.34-14.09,4.34-14.09,0,0,15.03-4.07,12.65-9.63-2.37-5.55-13.52-11.71-15.2-7.26-1.67,4.45-.49,12.23-.49,12.23,0,0-11.9,2.9-13.15,7.22Z"/>
      <path class="cls-30" d="M265.91,683.73s40.92-12.67,42.83-13.52c16.25-7.2,41.39-23.58,41.39-23.58l21.73-17.4,17.46-2.9s1.31,.41,11.51,2.9,6.87,7.56,6.87,7.56c12.24,7.07,.56,9.72,.56,9.72,0,0,6.33,4.82,4.37,9.23-1.96,4.42-10.56-1.47-10.56-1.47l-11.69-.45-5.66,3.53s-16.62,8.8-7.08,8.36c9.54-.44,11.76,4.8,11.76,4.8,0,0,1.56,6.2-1.3,5.01-2.86-1.19-11.68,1.1-11.68,1.1,0,0-7.27-.04-12.31-3.95-5.04-3.9-12.52,3.13-12.52,3.13l-39.6,41.42s-27.48,17.12-65.93,13.58"/>
      <path class="cls-30" d="M135.75,610.3s14.29,27.99-16.3,38.55c0,0,6.93,28.83,6.93,41.98,0,0,62.25,21.37,108.41,3.14,0,0-23.7-31.57-27.82-50.89,0,0-6.07-5.25-3.6-11.83l-67.63-20.96Z"/>
      <path class="cls-49" d="M202.83,632.28s-11.49,2.83-25.15,.05c0,0-8.44-.73-22.79-7.18,0,0,8.4,10.38,33.07,10.79,0,0,4.54,.35,14.82-1.12,0,0,.17-1.22,.06-2.54Z"/>
      <path class="cls-47" d="M134.55,639.38s-40.06,15.58-55.01,44.94c-19.26,37.83-3.81,77.34-3.81,77.34,0,0,23.04,5.44,42.85-20.4,0,0-24.01,51.66-24.74,102.43,0,0,69.4,24.51,147.8-13.06,0,0-2.93-46.68-2.2-87.29,0,0-.11-13.55,7.14-30.23l12.57-18.09s-10.32-41.51-53.46-53.38c0,0,12.22,20.94-13.17,26.74,0,0-42.74,9.45-57.97-28.99Z"/>
      <circle class="cls-41" cx="190.88" cy="685.43" r="6.2"/>
      <circle class="cls-41" cx="178.5" cy="686.35" r="6.2"/>
      <circle class="cls-41" cx="165.94" cy="684.07" r="6.2"/>
      <circle class="cls-41" cx="153.82" cy="679.8" r="6.2"/>
      <circle class="cls-41" cx="143.74" cy="672.23" r="6.2"/>
      <circle class="cls-41" cx="134.56" cy="664.04" r="6.2"/>
      <circle class="cls-41" cx="202.57" cy="681.07" r="6.2"/>
      <circle class="cls-41" cx="213.13" cy="674.93" r="6.2"/>
      <circle class="cls-41" cx="186" cy="696.38" r="6.2"/>
      <circle class="cls-41" cx="170.55" cy="695.74" r="6.2"/>
      <circle class="cls-41" cx="156.09" cy="691.86" r="6.2"/>
      <circle class="cls-41" cx="142.7" cy="684.68" r="6.2"/>
      <circle class="cls-41" cx="132.94" cy="676.68" r="6.2"/>
      <circle class="cls-41" cx="200.4" cy="692.88" r="6.2"/>
      <circle class="cls-41" cx="213.45" cy="687.04" r="6.2"/>
      <path class="cls-41" d="M134.55,639.38s10.26,30.62,46.54,30.07c36.29-.55,24.59-27.82,24.59-27.82l4.77,1.48s7.88,30.32-28.53,28.83-39.07-13.61-50.42-30.75l3.04-1.81Z"/>
      <path class="cls-39" d="M172.48,553.3s-15.99-1.54-28.93,4.92c0,0,5.5-9.38,28.83-8.69,0,0,4.09,1.83,.1,3.77Z"/>
      <path class="cls-39" d="M221.08,540.89c-11.2,1.44-18.38,5.16-18.38,5.16-4.43-.29-1.33-3.53-1.33-3.53,6.65-2.94,14.67-4.42,18.97-4.93,0,0,1.35,3.22,.73,3.3Z"/>
      <path class="cls-12" d="M197.93,567.39s11.34,6.96,2.77,14.8"/>
      <path class="cls-12" d="M105.01,598.07s3.16-8.14,10.01-2.01c6.84,6.13,7.65,8.49,7.65,8.49,0,0-10.05-9.91-11.04,0"/>
      <g>
        <path class="cls-24" d="M115.46,585.95s8.42,7.14,2.71,12.54c-5.71,5.4,4.72,.65,4.72,.65,0,0,6.88-4.83-5.27-16.68l-2.16,3.5Z"/>
        <path class="cls-21" d="M118.16,598.49s-5.69-8.98-12.03-5.53,3.41,13.85,3.41,13.85c0,0,2.59,2.36,6.33,1.34,0,0-5-5.79,2.29-9.66Z"/>
        <path class="cls-40" d="M99.19,589.61s-4.92,4.24-4.48-2.74c.43-6.99,10.02-9.23,13.17-9.38,3.15-.15,7.87,.42,9.73,4.97,1.87,4.55-5.63,1.75-5.63,1.75,0,0-9.25-4.36-12.79,5.41Z"/>
      </g>
      <g>
        <path class="cls-21" d="M156.6,568.06s-.11-.43,.11-.87c.75-1.46,2.62-4.3,6.46-5.28,4.29-1.1,7.68,2.33,8.86,3.56,.2,.21,.24,.43,.24,.43,0,0,.08,.24-.03,.44-.48,.97-2.2,3.77-6.24,4.87-2.41,.65-6.14,.22-9.08-2.52-.2-.19-.29-.48-.32-.64Z"/>
        <circle class="cls-49" cx="165.65" cy="566.56" r="4.58"/>
        <circle class="cls-21" cx="162.62" cy="566.38" r="1.26"/>
        <path class="cls-3" d="M172.29,565.42s-7.84-8.91-15.75,1.78"/>
      </g>
      <g>
        <path class="cls-21" d="M203.73,558.35s-.16-.38-.02-.81c.49-1.44,1.8-4.31,5.18-5.75,3.78-1.61,7.37,1.05,8.62,2.02,.22,.17,.29,.36,.29,.36,0,0,.1,.2,.04,.41-.31,.96-1.48,3.77-5.04,5.35-2.12,.94-5.6,1.07-8.68-1.03-.21-.15-.33-.4-.39-.54Z"/>
        <circle class="cls-49" cx="211.8" cy="555.69" r="4.23"/>
        <circle class="cls-21" cx="208.9" cy="556.06" r="1.19"/>
        <path class="cls-3" d="M217.62,553.9s-8.38-7.72-13.97,3.83"/>
      </g>
      <path class="cls-31" d="M182.45,604.08s4.92-7.22,15.35-5.28c0,0,8.5-4.54,14.75,1.25,0,0,.02,4.62-11.95,7.88-7.62,2.08-17.52,1.62-18.15-3.84Z"/>
      <path class="cls-20" d="M212.55,600.04s-13.11,0-30.1,4.04"/>
      <path class="cls-5" d="M408.27,646.5s-12.22-10.61-25.09-.88"/>
      <path class="cls-5" d="M407.71,636.78s-13.28-7.12-24.73-3.47"/>
      <path class="cls-47" d="M217.74,646.82s35.94,18.74,49.08,34.4c0,0,4.55,32.38-25.8,54.13l-8.09-3.04"/>
      <path class="cls-8" d="M241.01,735.36s-.82-23.13-1.96-31.16"/>
      <circle class="cls-41" cx="218.8" cy="663.74" r="6.2"/>
      <circle class="cls-41" cx="225.16" cy="674.44" r="6.2"/>
      <line class="cls-8" x1="118.58" y1="741.26" x2="110.27" y2="703.44"/>
      <path class="cls-23" d="M334.42,906.95s28.05,10.99,49.2,4.63c21.16-6.35,15.53-42.33,15.53-42.33,0,0-3.6-13.93-23.82-6.13-20.22,7.8-40.91,43.82-40.91,43.82Z"/>
      <path class="cls-41" d="M93.32,843.66s-11.55,38.86,.69,63.18c12.24,24.32,24.77,30.27,24.77,30.27l46.51,.76s41.97-2.76,52.9-38.76c0,0,34.2,15.49,73.09,25.89l23.29-19.31s4.34,3.75,9.46,6.7c0,0,54.47-23.05,76.36-68.41,24.16-50.08-34.17-57.15-34.17-57.15,0,0-52.01,.72-112.17,27.3,0,0-26.76-54.46-112.22,26.76-11.18,10.63-32.72-10.95-48.49,2.76Z"/>
      <path class="cls-16" d="M300.35,862.19s7.94-16.94,31.86-39.52c0,0,18.29-11.1,29.71-6.89"/>
      <path class="cls-16" d="M218.18,899.12s-14.82-6.56-20.32-21.58"/>
      <path class="cls-16" d="M141.81,840.9s-21.92,15.76-25.69,30.31"/>
      <path class="cls-30" d="M264.41,891.28s15.84-4.89,24.34-9.65l11.59-19.44,39.22,42.63s-43.02,23.77-76.96,35.3"/>
      <path class="cls-23" d="M247.39,884.95s12.13-2.32,17.03,6.32,8.13,26.33,3.32,43.38c0,0-7.27,13.48-19.84,11.77-12.57-1.72-.5-61.47-.5-61.47Z"/>
      <path class="cls-42" d="M233.19,890.77s10.78-12.42,18.17-2.22c7.39,10.2,5.83,43.93,5.83,43.93,0,0,3.18,21.21-29.94,13.11-33.12-8.1-15.59-32.5-15.59-32.5l21.53-22.32Z"/>
      <line class="cls-16" x1="254.03" y1="814.14" x2="287.37" y2="882.45"/>
    </g>
    <path class="cls-30" d="M118.2,740.64s13.12,39.13,18.41,52.33c0,0,48.62-18.33,69.1-4.38l30.02,16.48s15.59,19.06,12.71,26.2c0,0-4.54,6.7-13.4-12.01,0,0,7.79,19.34,4.42,21.62,0,0-4.59,3.68-9.53-1.97,0,0,.84,6.6-1.99,7.58,0,0-6.03,4.99-16.02-21.35,0,0,2.53,14.92-2.19,16.06,0,0-3.54,3.44-8.57-18.91,0,0-11.07-5.81-16.83-13.03,0,0-28.59,16.43-53.06,24.87,0,0-33.26,2.48-50.63-71.98,0,0,21.12-2.39,37.57-21.53Z"/>
    <line class="cls-2" x1="229.92" y1="838.91" x2="222.55" y2="821.37"/>
    <line class="cls-2" x1="237.4" y1="824.21" x2="232.57" y2="814.82"/>
    <path class="cls-2" d="M183.78,809.31s-2.92-2.75-4.34-6.66"/>
    <path class="cls-2" d="M137.37,792.8s-9.71,1.73-15.08,6.36"/>
    <g>
      <path class="cls-28" d="M1249.48,827.82c1.24,7.28,10.6,70.9-39.42,77.26,0,0,1.33,5.03,1.78,17.62,0,0-98.47,28.7-123.65,20.16s-37.77-22.93-36.88-33.28c0,0-39.58-18.43-1.8-61.16l70.03-35.78s-9.15,16.86,134.55,14.13l-4.04,.32c-.37,.03-.64,.36-.58,.73Z"/>
      <path class="cls-11" d="M1051.33,909.58s-12.37-47.49,87.17-74.15"/>
      <g>
        <path class="cls-33" d="M1220.62,899.42s10.16-7.32,15.68-5.6c0,0,8.77,10.34,1.91,19.07,0,0-6.2-9.66-17.59-13.46Z"/>
        <path class="cls-33" d="M1143.9,943.49c20.57-3.08,79.11-15.83,79.11-15.83,4.42-5.88,12.5-10.94,12.5-10.94-4.12-10.11-21.21-13.63-21.21-13.63,0,0-13.72,4.09-28.77,3.08-15.05-1.01-42.81,.62-42.81,.62,0,0-24.46-1.18-35.91,2.76,0,0-43.33,1.09-51.99-19.63,0,0-19.96-6.4-16.57-27.11,0,0-18.45,31.25,13.56,49.71,0,0,3.43,44.23,92.09,30.96Z"/>
        <path class="cls-28" d="M1236.3,893.81s7.37-5.07,10.63-3.97c0,0,4.15,7.5,2.9,18.55,0,0-.72,6,5.01,11.42,5.73,5.41,11.48,28.84,5.53,37.44-5.95,8.6-15.09-3.49-15.09-3.49,0,0-7.73-17.56-16.38-19.46-8.65-1.9-5.9-6.63-5.9-6.63,0,0,5.21-9.42,11.13-11.49,0,0-4.1-9.37-19.84-13.08l6.32-3.68s13,4.09,16.97,12.55c0,0,6.85-4.37-1.29-18.15Z"/>
        <circle class="cls-39" cx="1237.12" cy="914.7" r="4"/>
        <circle class="cls-39" cx="1249.8" cy="923.33" r="2.65"/>
        <circle class="cls-39" cx="1254.41" cy="931.49" r="2.65"/>
        <circle class="cls-39" cx="1257.15" cy="941.14" r="2.65"/>
        <circle class="cls-39" cx="1257.3" cy="949.62" r="2.65"/>
        <circle class="cls-39" cx="1255.62" cy="957.12" r="2.65"/>
        <path class="cls-6" d="M1244.12,925.34s11.25,18.31,4.73,29.47"/>
      </g>
      <path class="cls-33" d="M1204.7,636.78s-5.71,13.26-1.82,21.69c0,0-2.31,40.25-35.39,45.92,0,0-37.09-17.79-16.52-43.56,0,0,3.25-1.42,2.53-6.93,0,0,35.59,2.47,51.2-17.12Z"/>
      <path class="cls-33" d="M1148.96,560.95s-9.97,5.43-13.81,26.78c-3.84,21.34-5.81,26.52-3.95,44.21,1.95,18.61,25.31,24.55,25.31,24.55,0,0,39.25-.1,48.18-19.71,0,0,6.97,12.08,17.63-.72,0,0,12.02-13.98,4.96-19.53,0,0-7.89-4.75-14.53,3.31,0,0,11.95-35.71,.62-43.81,0,0-24.95-35.7-64.4-15.08Z"/>
      <path class="cls-20" d="M1151.22,609.88s-8.4,9.04,3.27,12.11"/>
      <path class="cls-20" d="M1225.18,624.03s-2.05-9.92-11.63,4.01c0,0,7.16-5.69,7.35,.19"/>
      <path class="cls-49" d="M1153.49,655.37s7.1,1.67,15.19,.05c0,0,7.02-.3,16.43-3.8,0,0-6.98,5.45-19.37,7.02,0,0-6.98,.7-12.47-1.38,0,0,.3-.73,.22-1.89Z"/>
      <path class="cls-31" d="M1167.27,634.99s-3.96-5.81-12.36-4.26c0,0-6.85-3.66-11.88,1,0,0-.02,3.72,9.62,6.35,6.14,1.67,14.11,1.3,14.62-3.09Z"/>
      <path class="cls-22" d="M1202.88,658.46s45.51,11.28,53.77,42.55c8.26,31.26,6.17,62.37,6.17,62.37,0,0-10.39,7.75-33.99,1.85,0,0,19.93,20.62,20.52,61.91,0,0-130.94,24.74-130.07-13.66,0,0-3.2-14.93-3.79-47.96,0,0-.8-22.83,.42-33.27l-13.31-28.36s8.85-33.62,48.37-43.06c0,0-6.87,23.2,13.78,27.92,0,0,1.64,12.17,3.83,12.39s4.94-11.5,6.17-11.68c7.71-1.11,18.75-7.3,28.14-30.99Z"/>
      <path class="cls-50" d="M1173.56,596.73s14.98-1.77,21.26,2.73c0,0-4.31-6.5-21.31-5.46,0,0-3.13,1.37,.05,2.73Z"/>
      <path class="cls-50" d="M1135.99,586.1c.45-.5,7.43,1.1,13.51,3.74,0,0,2.37,2.31-.95,2.56,0,0-10.64-6.1-13.25-3.57,0,0-.43-1.5,.68-2.74Z"/>
      <g>
        <path class="cls-21" d="M1186.19,606.35s.07-.35-.13-.7c-.68-1.15-2.33-3.37-5.48-3.99-3.53-.69-6.13,2.24-7.03,3.3-.15,.18-.18,.36-.18,.36,0,0-.05,.19,.04,.36,.44,.77,1.96,2.96,5.29,3.67,1.99,.42,4.99-.1,7.25-2.46,.16-.16,.21-.4,.23-.53Z"/>
        <circle class="cls-49" cx="1178.78" cy="605.54" r="3.72"/>
        <circle class="cls-21" cx="1180.77" cy="607.25" r="1.02"/>
        <path class="cls-18" d="M1173.33,604.91s5.96-7.59,12.87,.73"/>
      </g>
      <g>
        <path class="cls-21" d="M1148.94,601.04s.12-.31-.02-.66c-.46-1.15-1.66-3.42-4.46-4.43-3.14-1.13-5.94,1.19-6.91,2.03-.17,.14-.22,.31-.22,.31,0,0-.07,.17-.01,.33,.29,.76,1.38,2.99,4.34,4.11,1.76,.67,4.59,.61,7-1.24,.17-.13,.25-.34,.29-.45Z"/>
        <circle class="cls-49" cx="1142.26" cy="599.24" r="3.44"/>
        <circle class="cls-21" cx="1143.37" cy="601.33" r=".96"/>
        <path class="cls-18" d="M1137.46,598.06s6.45-6.65,11.52,2.48"/>
      </g>
      <path class="cls-20" d="M1143.02,631.74s10.56,0,24.25,3.25"/>
      <path class="cls-33" d="M1190.92,861.68l-13.87,3.31c-5.2,6.31-18.43,6.31-18.43,6.31,0,0-5.52,1.93-9.96,4.8-5.79,3.75-6.74-.27-6.74-.27,1.8-2.83,10.4-7.28,10.4-7.28-4.06,.72-13.01,7.18-13.01,7.18-1.69,1.64-3.15,2.15-3.82,2.41-2.01,.79-4.01-1.07-4.01-1.07-5.71,2.82-5.95-1.68-5.95-1.68-7.7,.76-4.41-3.49-4.41-3.49l17.75-15.47s4.78-5.34,19.62-5.32c13.41,.02,18.58-7.77,18.58-7.77,0,0,19.86-20.03,39.52-32.68,0,0,2.39-28.98,7.07-47.54,0,0,19.79,8.27,37.19,1.23,0,0-6.85,43.17-17.25,62.86-12.06,22.83-52.71,34.46-52.71,34.46Z"/>
      <path class="cls-2" d="M1140.25,862.71s-11.36,7.9-14.7,12.69"/>
      <path class="cls-2" d="M1131.5,877.08s6.56-7.24,14.23-11.85"/>
      <path class="cls-2" d="M1223.69,763.12s-3.41-36.24,.17-46.69"/>
      <path class="cls-33" d="M1097.2,693.35s-30.77-10.67-32.2-11.36c-12.16-5.88-30.85-18.97-30.85-18.97l-16.06-13.77-13.19-2.65s-1.01,.28-8.82,1.91c-7.81,1.63-5.41,5.57-5.41,5.57-9.48,5.06-.67,7.37-.67,7.37,0,0-4.93,3.5-3.56,6.9,1.38,3.41,8.06-.85,8.06-.85l8.89-.05,4.21,2.83s12.4,7.11,5.16,6.53c-7.24-.58-9.05,3.35-9.05,3.35,0,0-1.35,4.67,.86,3.84,2.21-.83,8.85,1.13,8.85,1.13,0,0,5.53,.15,9.46-2.69,3.93-2.84,9.43,2.7,9.43,2.7l29.04,32.47s20.44,13.71,49.74,11.99"/>
      <path class="cls-5" d="M1009.08,661.41c-9.54-7.71-19.09,.03-19.09,.03,0,0-3.92-1.38-3.7-3.69s4.37-3.68,4.37-3.68"/>
      <path class="cls-5" d="M1009.54,652.06c-8.61-3.06-18.88,2.01-18.88,2.01,0,0-1.59-3.37,5.41-5.57,2.42-.76,8.82-1.91,8.82-1.91l13.19,2.65"/>
      <path class="cls-22" d="M1134.74,666.53s-27.78,13.32-38.16,24.89c0,0-4.28,24.49,18.23,41.78l6.23-2.1"/>
      <line class="cls-2" x1="1115.81" y1="733.1" x2="1117.13" y2="707.59"/>
      <path class="cls-5" d="M989.99,661.45c-1.8,.5-6.56,7.2-2.82,7.97s7.32-1.92,7.32-1.92c0,0,6.52-.69,8.89-.05s13.48,8.45,11.61,9.22-8.8-.88-10.45,2.64c-1.65,3.52-.52,3.66,.02,4.69,0,0,4.3-.42,8.85,1.13,0,0,6.77-.43,9.46-2.69"/>
      <g>
        <path class="cls-44" d="M1143.4,567.33s11.95,3.81,18.48,.5c6.53-3.3,50.35,10.13,51.58,53.63,0,0,4.8-7.44,14.78-3.17,0,0,20.2-65.2-37.27-72.01,0,0-28.01-8.1-47.57,21.04Z"/>
        <path class="cls-39" d="M1224.19,617.57s3.32-25.62-21.46-26.12c0,0-4.44-2.36-1.25-5.97,0,0,28.24,3.47,26.76,32.81,0,0-1.36-1.47-4.04-.72Z"/>
        <path class="cls-39" d="M1184.23,573.37s.53,5.7,6.07,5.26c12.63-1.01,34.79,6.77,39.72,27.06,0,0,1.99-1.15,.37-5.85-1.63-4.7-11.05-30.19-46.16-26.47Z"/>
        <path class="cls-39" d="M1170.26,565.95s.3,4.69,4.49,4.75c0,0,43.94-11.03,56.95,22.79,0,0-9.4-37.21-61.44-27.54Z"/>
        <path class="cls-39" d="M1158.29,559.71s2.52,5.96,6.5,4.65c3.98-1.31,57.02-12.47,66.84,21.91,0,0-5.63-40.63-73.34-26.56Z"/>
        <path class="cls-39" d="M1163.91,552.05s-1.7,4.79,7.4,3.25,49.19-1.3,58.03,19.43c0,0-11.46-30.7-65.43-22.69Z"/>
        <path class="cls-39" d="M1158.81,565.1s-6.35,3.56-8.42,.11c-2.06-3.45-2.92-4.92-2.92-4.92l5.75-5.21,5.58,10.01Z"/>
        <path class="cls-39" d="M1163.21,556.13s-7.11,4.09-7.76-2.43l4.02-2.85,3.74,5.28Z"/>
        <polygon class="cls-39" points="1168.47 548.63 1162.63 550.5 1162.1 548.42 1167.73 546.51 1168.47 548.63"/>
        <path class="cls-39" d="M1179.32,548.49l-7.81,.43-1.06-2.83s3.88-1.99,7.7-1.11l1.17,3.51Z"/>
        <path class="cls-39" d="M1190.03,549.22l-8.31-.53-.99-3.26s5.13-1.56,8.59,.14l.7,3.66Z"/>
        <path class="cls-39" d="M1200.69,551.48l-7.26-1.46-.49-3.62s5.12-.23,7.84,2l-.08,3.08Z"/>
        <path class="cls-39" d="M1203.67,549.56l-.55,3.22s11.3,2.41,14.33,5.36c0,0-6.73-7.16-13.78-8.58Z"/>
      </g>
      <path class="cls-35" d="M1199.83,652.52s4.66-1.1,6.43,4.79c1.13,3.78,7.01,5.71,7.01,5.71,0,0,1.32,20.18-11.79,31.02,0,0-12.72-8.68-26.73-4.58,0,0,33.52-23.58,25.08-36.94Z"/>
      <path class="cls-35" d="M1152.02,660.77s-9.07,7.84,12.73,27.97c0,0-13.97-.41-18.32,6.11,0,0-8.74-17.23-9.37-27.94,0,0,11.77-9.81,14.95-6.13Z"/>
    </g>
  </g>
</svg>