<svg xmlns="http://www.w3.org/2000/svg" xmlns:xlink="http://www.w3.org/1999/xlink" width="1200" zoomAndPan="magnify" viewBox="0 0 900 675.000002" height="900" preserveAspectRatio="xMidYMid meet" version="1.0"><defs><clipPath id="cf34e7c5ef"><path d="M 0.664062 0 L 899.332031 0 L 899.332031 674 L 0.664062 674 Z M 0.664062 0 " clip-rule="nonzero"/></clipPath><clipPath id="d626360d4e"><path d="M 0.664062 0 L 899.332031 0 L 899.332031 648 L 0.664062 648 Z M 0.664062 0 " clip-rule="nonzero"/></clipPath><clipPath id="74f0acb8ac"><path d="M 736 0 L 899.332031 0 L 899.332031 628 L 736 628 Z M 736 0 " clip-rule="nonzero"/></clipPath><clipPath id="1c9ac931ff"><path d="M 735 0 L 899.332031 0 L 899.332031 633 L 735 633 Z M 735 0 " clip-rule="nonzero"/></clipPath><clipPath id="4c1b053962"><path d="M 0.664062 627 L 899.332031 627 L 899.332031 673.636719 L 0.664062 673.636719 Z M 0.664062 627 " clip-rule="nonzero"/></clipPath><clipPath id="7bf6062a2c"><path d="M 191 616 L 312 616 L 312 673.636719 L 191 673.636719 Z M 191 616 " clip-rule="nonzero"/></clipPath></defs><g clip-path="url(#cf34e7c5ef)"><path fill="#ffffff" d="M 0.664062 0 L 899.335938 0 L 899.335938 674 L 0.664062 674 Z M 0.664062 0 " fill-opacity="1" fill-rule="nonzero"/><path fill="#ffffff" d="M 0.664062 0 L 899.335938 0 L 899.335938 674 L 0.664062 674 Z M 0.664062 0 " fill-opacity="1" fill-rule="nonzero"/></g><g clip-path="url(#d626360d4e)"><path fill="#a3d7bb" d="M 0.773438 -0.359375 L 899.902344 -0.359375 L 899.902344 647.222656 L 0.773438 647.222656 Z M 0.773438 -0.359375 " fill-opacity="1" fill-rule="nonzero"/></g><g clip-path="url(#74f0acb8ac)"><path fill="#a97c50" d="M 736.773438 -32.5 L 1028.574219 -32.5 L 1028.574219 627.972656 L 736.773438 627.972656 Z M 736.773438 -32.5 " fill-opacity="1" fill-rule="nonzero"/></g><g clip-path="url(#1c9ac931ff)"><path stroke-linecap="butt" transform="matrix(0.674097, 0, 0, 0.674068, 0.760252, -36.158794)" fill="none" stroke-linejoin="miter" d="M 1096.029185 985.850413 L 1096.029185 6.001642 L 1531.281828 6.001642 L 1531.281828 985.131827 " stroke="#754c29" stroke-width="12" stroke-opacity="1" stroke-miterlimit="10"/></g><g clip-path="url(#4c1b053962)"><path fill="#f7d9a4" d="M 0.761719 627.367188 L 899.917969 627.367188 L 899.917969 673.789062 L 0.761719 673.789062 Z M 0.761719 627.367188 " fill-opacity="1" fill-rule="nonzero"/></g><path fill="#fbb040" d="M 777.878906 320.222656 C 777.878906 321.089844 777.804688 321.949219 777.65625 322.800781 C 777.507812 323.65625 777.289062 324.480469 777 325.285156 C 776.710938 326.085938 776.355469 326.851562 775.933594 327.570312 C 775.511719 328.292969 775.035156 328.960938 774.5 329.578125 C 773.964844 330.191406 773.378906 330.738281 772.75 331.222656 C 772.121094 331.707031 771.453125 332.113281 770.753906 332.445312 C 770.054688 332.777344 769.332031 333.027344 768.589844 333.199219 C 767.847656 333.367188 767.097656 333.453125 766.339844 333.453125 C 765.582031 333.453125 764.832031 333.367188 764.085938 333.199219 C 763.34375 333.027344 762.621094 332.777344 761.921875 332.445312 C 761.222656 332.113281 760.558594 331.707031 759.925781 331.222656 C 759.296875 330.738281 758.714844 330.191406 758.179688 329.578125 C 757.640625 328.960938 757.164062 328.292969 756.742188 327.570312 C 756.320312 326.851562 755.964844 326.085938 755.675781 325.285156 C 755.386719 324.480469 755.167969 323.652344 755.019531 322.800781 C 754.871094 321.949219 754.796875 321.089844 754.796875 320.222656 C 754.796875 319.351562 754.871094 318.492188 755.019531 317.640625 C 755.167969 316.789062 755.386719 315.960938 755.675781 315.15625 C 755.964844 314.355469 756.320312 313.59375 756.742188 312.871094 C 757.164062 312.148438 757.640625 311.480469 758.179688 310.863281 C 758.714844 310.25 759.296875 309.703125 759.925781 309.21875 C 760.558594 308.734375 761.222656 308.328125 761.921875 307.996094 C 762.621094 307.664062 763.34375 307.414062 764.085938 307.242188 C 764.832031 307.074219 765.582031 306.988281 766.339844 306.988281 C 767.097656 306.988281 767.847656 307.074219 768.589844 307.242188 C 769.332031 307.414062 770.054688 307.664062 770.753906 307.996094 C 771.453125 308.328125 772.121094 308.734375 772.75 309.21875 C 773.378906 309.703125 773.964844 310.25 774.5 310.863281 C 775.035156 311.480469 775.511719 312.148438 775.933594 312.871094 C 776.355469 313.59375 776.710938 314.355469 777 315.15625 C 777.289062 315.960938 777.507812 316.789062 777.65625 317.640625 C 777.804688 318.492188 777.878906 319.351562 777.878906 320.222656 Z M 777.878906 320.222656 " fill-opacity="1" fill-rule="nonzero"/><path fill="#f7941d" d="M 779.988281 306.957031 L 772.804688 307.691406 C 772.804688 307.691406 765.210938 308.761719 765.042969 318.960938 C 764.847656 330.863281 769.675781 333.109375 771.527344 333.15625 L 779.980469 333.433594 " fill-opacity="1" fill-rule="nonzero"/><path fill="#f7941d" d="M 770.234375 312.144531 L 764.792969 312.144531 C 764.792969 312.144531 756.746094 320.355469 764.425781 328.128906 L 770.234375 328.269531 " fill-opacity="1" fill-rule="nonzero"/><path fill="#fbb040" d="M 791.53125 320.1875 C 791.53125 321.054688 791.457031 321.917969 791.308594 322.769531 C 791.160156 323.621094 790.941406 324.449219 790.652344 325.25 C 790.359375 326.054688 790.003906 326.816406 789.585938 327.539062 C 789.164062 328.261719 788.683594 328.929688 788.148438 329.542969 C 787.613281 330.15625 787.03125 330.707031 786.402344 331.1875 C 785.769531 331.671875 785.105469 332.078125 784.40625 332.410156 C 783.707031 332.746094 782.984375 332.996094 782.242188 333.164062 C 781.496094 333.335938 780.746094 333.417969 779.988281 333.417969 C 779.230469 333.417969 778.480469 333.335938 777.738281 333.164062 C 776.996094 332.996094 776.273438 332.746094 775.574219 332.410156 C 774.871094 332.078125 774.207031 331.671875 773.578125 331.1875 C 772.949219 330.707031 772.363281 330.15625 771.828125 329.542969 C 771.292969 328.929688 770.8125 328.261719 770.394531 327.539062 C 769.972656 326.816406 769.617188 326.054688 769.328125 325.25 C 769.035156 324.449219 768.816406 323.621094 768.671875 322.769531 C 768.523438 321.917969 768.449219 321.054688 768.449219 320.1875 C 768.449219 319.316406 768.523438 318.457031 768.671875 317.605469 C 768.816406 316.753906 769.035156 315.925781 769.328125 315.125 C 769.617188 314.320312 769.972656 313.558594 770.394531 312.835938 C 770.8125 312.113281 771.292969 311.445312 771.828125 310.832031 C 772.363281 310.214844 772.945312 309.667969 773.578125 309.183594 C 774.207031 308.703125 774.871094 308.292969 775.574219 307.960938 C 776.273438 307.628906 776.996094 307.378906 777.738281 307.210938 C 778.480469 307.039062 779.230469 306.957031 779.988281 306.957031 C 780.746094 306.957031 781.496094 307.039062 782.242188 307.210938 C 782.984375 307.378906 783.707031 307.628906 784.40625 307.960938 C 785.105469 308.292969 785.769531 308.703125 786.402344 309.183594 C 787.03125 309.667969 787.613281 310.214844 788.148438 310.832031 C 788.683594 311.445312 789.164062 312.113281 789.585938 312.835938 C 790.003906 313.558594 790.359375 314.320312 790.652344 315.125 C 790.941406 315.925781 791.160156 316.753906 791.308594 317.605469 C 791.457031 318.457031 791.53125 319.316406 791.53125 320.1875 Z M 791.53125 320.1875 " fill-opacity="1" fill-rule="nonzero"/><path fill="#d5b79f" d="M 521.425781 624.109375 C 521.425781 624.109375 510.160156 609.328125 487.996094 618.085938 C 465.832031 626.832031 444.234375 629.457031 444.910156 634.679688 L 448.617188 646.171875 L 486.527344 647.984375 L 512.359375 637.1875 L 521.425781 624.105469 Z M 521.425781 624.109375 " fill-opacity="1" fill-rule="nonzero"/><path fill="#dcbf97" d="M 496.511719 581.609375 C 496.511719 581.609375 492.972656 597.835938 476.308594 611.945312 L 468.226562 620.484375 L 462.582031 624.824219 L 452.277344 629.375 C 452.277344 629.375 450.597656 629.988281 448.804688 631.800781 C 448.328125 632.28125 447.324219 633.851562 449.363281 633.890625 C 449.363281 633.890625 448.164062 636.378906 451.015625 637.390625 C 451.015625 637.390625 450.457031 641.433594 454.722656 639.242188 C 454.722656 639.242188 453.632812 643.46875 458.59375 642.074219 C 458.59375 642.074219 456.753906 649.921875 468.582031 645.035156 C 468.582031 645.035156 483.367188 643.234375 488.460938 637.308594 C 493.558594 631.382812 508.996094 628.167969 508.996094 628.167969 L 517.3125 619.414062 C 517.3125 619.414062 515.824219 597.527344 521.863281 590.21875 L 496.503906 581.609375 Z M 496.511719 581.609375 " fill-opacity="1" fill-rule="nonzero"/><path fill="#dad0c1" d="M 521.425781 624.109375 C 521.425781 624.109375 517.800781 628.578125 510.9375 629.929688 C 504.066406 631.277344 489.5625 639.898438 489.5625 639.898438 C 489.5625 639.898438 451.265625 658.621094 444.910156 634.679688 L 447.199219 650.789062 C 447.199219 650.789062 468.8125 663.691406 494.191406 650.425781 C 494.191406 650.425781 512.878906 642.3125 519.792969 642 C 519.792969 642 522.960938 635.125 521.425781 624.109375 Z M 521.425781 624.109375 " fill-opacity="1" fill-rule="nonzero"/><path fill="#ffffff" d="M 497.515625 635.503906 C 497.515625 635.503906 495.007812 618.683594 476.308594 611.9375 L 468.226562 620.476562 C 468.226562 620.476562 481.136719 620.957031 489.5625 639.898438 L 497.515625 635.507812 Z M 497.515625 635.503906 " fill-opacity="1" fill-rule="nonzero"/><path fill="#ffffff" d="M 480.644531 643.273438 C 480.644531 643.273438 476.464844 628.285156 462.582031 624.820312 L 452.277344 629.367188 C 452.277344 629.367188 463.285156 634.375 469.082031 646.375 C 469.082031 646.375 471.71875 646.644531 480.636719 643.269531 Z M 480.644531 643.273438 " fill-opacity="1" fill-rule="nonzero"/><path fill="#ffffff" d="M 518.730469 604.246094 C 518.730469 604.246094 510.113281 627.574219 499.613281 634.605469 L 518.292969 627.210938 C 518.292969 627.210938 521.511719 622.3125 518.730469 604.246094 Z M 518.730469 604.246094 " fill-opacity="1" fill-rule="nonzero"/><path fill="#ffffff" d="M 518.980469 595.289062 L 493.328125 588.945312 L 487.539062 599.203125 C 487.539062 599.203125 500.5 605.40625 517.867188 606.410156 C 517.867188 606.410156 519.152344 611.175781 518.972656 595.289062 Z M 518.980469 595.289062 " fill-opacity="1" fill-rule="nonzero"/><path stroke-linecap="butt" transform="matrix(0.674097, 0, 0, 0.674068, 0.760252, -36.158794)" fill-opacity="1" fill="#ffffff" fill-rule="nonzero" stroke-linejoin="miter" d="M 769.492641 976.752198 C 769.492641 976.752198 772.882594 961.870531 769.069621 951.532178 L 768.797266 946.89035 " stroke="#6d6e71" stroke-width="0.3" stroke-opacity="1" stroke-miterlimit="10"/><path stroke-linecap="butt" transform="matrix(0.674097, 0, 0, 0.674068, 0.760252, -36.158794)" fill="none" stroke-linejoin="miter" d="M 679.180803 1006.167827 C 679.180803 1006.167827 679.082292 1001.850522 685.421795 999.5383 " stroke="#603913" stroke-width="0.5" stroke-opacity="1" stroke-miterlimit="10"/><path stroke-linecap="butt" transform="matrix(0.674097, 0, 0, 0.674068, 0.760252, -36.158794)" fill="none" stroke-linejoin="miter" d="M 673.438164 1001.972218 C 673.438164 1001.972218 675.889361 996.142406 680.722218 995.26156 " stroke="#603913" stroke-width="0.5" stroke-opacity="1" stroke-miterlimit="10"/><path stroke-linecap="butt" transform="matrix(0.674097, 0, 0, 0.674068, 0.760252, -36.158794)" fill="none" stroke-linejoin="miter" d="M 667.938906 999.219573 C 667.938906 999.219573 670.558152 992.792872 675.831413 991.517963 " stroke="#603913" stroke-width="0.5" stroke-opacity="1" stroke-miterlimit="10"/><path stroke-linecap="butt" transform="matrix(0.674097, 0, 0, 0.674068, 0.760252, -36.158794)" fill="none" stroke-linejoin="miter" d="M 665.487709 994.027216 C 665.487709 994.027216 667.307274 989.588214 671.589625 988.527722 " stroke="#603913" stroke-width="0.5" stroke-opacity="1" stroke-miterlimit="10"/><path fill="#d5b79f" d="M 562.949219 627.378906 C 562.949219 627.378906 550.566406 613.519531 529.15625 623.976562 C 507.75 634.429688 479.300781 640.984375 482.839844 647.898438 L 492.082031 655.050781 L 530.019531 653.90625 L 554.929688 641.125 L 562.949219 627.375 Z M 562.949219 627.378906 " fill-opacity="1" fill-rule="nonzero"/><path fill="#dcbf97" d="M 534.800781 586.949219 C 534.800781 586.949219 532.535156 603.398438 517.023438 618.757812 L 509.628906 627.898438 L 504.34375 632.664062 L 494.429688 638.003906 C 494.429688 638.003906 486.730469 638.796875 486.023438 641.246094 C 485.3125 643.691406 484.4375 644.816406 488.632812 647.332031 C 488.632812 647.332031 490.699219 650.445312 493.402344 649.105469 C 493.402344 649.105469 495.910156 651.660156 500.441406 650.089844 C 500.441406 650.089844 502.078125 652.414062 506.917969 650.636719 C 506.917969 650.636719 508.976562 652.238281 511.320312 650.761719 C 511.320312 650.761719 526.5 649.394531 531.121094 643.085938 C 535.738281 636.777344 550.882812 632.375 550.882812 632.375 L 558.496094 623 C 558.496094 623 555.304688 601.292969 560.753906 593.535156 L 534.800781 586.9375 Z M 534.800781 586.949219 " fill-opacity="1" fill-rule="nonzero"/><path fill="#dad0c1" d="M 562.949219 627.378906 C 562.949219 627.378906 559.6875 632.117188 552.945312 634 C 546.207031 635.878906 532.414062 645.605469 532.414062 645.605469 C 532.414062 645.605469 510.59375 660.859375 482.839844 647.90625 L 483.9375 659.621094 C 483.9375 659.621094 513.578125 670.945312 537.851562 655.746094 C 537.851562 655.746094 555.851562 646.199219 562.722656 645.351562 C 562.722656 645.351562 565.34375 638.253906 562.957031 627.394531 Z M 562.949219 627.378906 " fill-opacity="1" fill-rule="nonzero"/><path fill="#ffffff" d="M 540.003906 640.605469 C 540.003906 640.605469 536.1875 624.03125 517.023438 618.765625 L 509.628906 627.90625 C 509.628906 627.90625 522.539062 627.375 532.414062 645.605469 L 540.003906 640.613281 Z M 540.003906 640.605469 " fill-opacity="1" fill-rule="nonzero"/><path fill="#ffffff" d="M 523.785156 649.664062 C 523.785156 649.664062 518.453125 635.042969 504.34375 632.671875 L 494.429688 638.011719 C 494.429688 638.011719 505.347656 640.773438 512.0625 652.285156 C 512.0625 652.285156 515.15625 653.722656 523.785156 649.65625 Z M 523.785156 649.664062 " fill-opacity="1" fill-rule="nonzero"/><path fill="#ffffff" d="M 558.714844 607.792969 C 558.714844 607.792969 551.941406 631.722656 542.027344 639.546875 L 560.070312 630.714844 C 560.070312 630.714844 562.902344 625.582031 558.722656 607.792969 Z M 558.714844 607.792969 " fill-opacity="1" fill-rule="nonzero"/><path fill="#ffffff" d="M 558.273438 598.839844 L 532.203125 594.511719 L 527.238281 605.195312 C 527.238281 605.195312 540.644531 610.375 558.035156 610.015625 C 558.035156 610.015625 559.6875 614.667969 558.273438 598.839844 Z M 558.273438 598.839844 " fill-opacity="1" fill-rule="nonzero"/><path stroke-linecap="butt" transform="matrix(0.674097, 0, 0, 0.674068, 0.760252, -36.158794)" fill="none" stroke-linejoin="miter" d="M 736.068279 1002.30833 L 728.691508 1007.222525 C 728.691508 1007.222525 723.528349 1009.337715 723.742756 1013.991133 " stroke="#603913" stroke-width="0.5" stroke-opacity="1" stroke-miterlimit="10"/><path stroke-linecap="butt" transform="matrix(0.674097, 0, 0, 0.674068, 0.760252, -36.158794)" fill="none" stroke-linejoin="miter" d="M 741.161901 1004.429315 C 741.161901 1004.429315 728.639355 1011.638347 730.082259 1014.889365 L 730.812402 1016.610492 " stroke="#603913" stroke-width="0.5" stroke-opacity="1" stroke-miterlimit="10"/><path stroke-linecap="butt" transform="matrix(0.674097, 0, 0, 0.674068, 0.760252, -36.158794)" fill="none" stroke-linejoin="miter" d="M 747.182691 1008.462664 C 747.182691 1008.462664 739.997148 1012.501808 741.260413 1018.082432 " stroke="#603913" stroke-width="0.5" stroke-opacity="1" stroke-miterlimit="10"/><path stroke-linecap="butt" transform="matrix(0.674097, 0, 0, 0.674068, 0.760252, -36.158794)" fill="none" stroke-linejoin="miter" d="M 752.890561 1013.718766 C 752.890561 1013.718766 749.118151 1015.67749 750.862384 1018.899533 " stroke="#603913" stroke-width="0.5" stroke-opacity="1" stroke-miterlimit="10"/><path stroke-linecap="butt" transform="matrix(0.674097, 0, 0, 0.674068, 0.760252, -36.158794)" fill-opacity="1" fill="#ffffff" fill-rule="nonzero" stroke-linejoin="miter" d="M 830.888465 981.828654 C 830.888465 981.828654 833.10787 966.732571 828.5126 956.71874 L 827.869378 952.111682 " stroke="#6d6e71" stroke-width="0.3" stroke-opacity="1" stroke-miterlimit="10"/><path fill="#dcbf97" d="M 534.058594 154.527344 C 534.058594 154.527344 527.828125 186.539062 545.9375 191.5 C 545.9375 191.5 545.949219 223.625 502.632812 224.976562 C 502.632812 224.976562 490.296875 219.304688 482.113281 190.421875 C 482.113281 190.421875 495.101562 186.039062 495.269531 178.5 C 495.445312 170.511719 492.933594 178.746094 492.933594 178.746094 L 534.058594 154.527344 " fill-opacity="1" fill-rule="nonzero"/><path fill="#0f3e5d" d="M 573.640625 333.808594 C 573.640625 333.808594 601.125 393.734375 581.089844 449.925781 L 569.5625 487.8125 C 569.5625 487.8125 562.722656 507.53125 565.308594 534.480469 C 566.953125 551.621094 563.636719 574.9375 559.296875 597.613281 C 559.296875 597.613281 544.304688 612.429688 523.878906 602.757812 C 523.878906 602.757812 506.816406 607.90625 487.527344 598.738281 L 457.082031 523.210938 C 457.082031 523.210938 451.070312 512.289062 451.070312 498.78125 C 451.070312 498.78125 440.574219 382.449219 457.933594 339.242188 C 457.933594 339.242188 500.3125 377.429688 573.648438 333.816406 Z M 573.640625 333.808594 " fill-opacity="1" fill-rule="nonzero"/><path fill="#dcbf97" d="M 535.488281 138.277344 C 535.488281 138.277344 533.324219 94.320312 498.683594 95.378906 C 498.683594 95.378906 472.972656 95.269531 474.355469 131.582031 C 474.355469 131.582031 475.730469 137.414062 474.722656 140.5 C 474.722656 140.5 472.902344 149.992188 475.882812 157.878906 C 480.351562 169.722656 486.273438 175.847656 486.273438 175.847656 C 486.273438 175.847656 491.300781 180.628906 500.28125 180.796875 C 500.28125 180.796875 506.589844 180.660156 514.65625 175.558594 C 514.65625 175.558594 535.023438 166.464844 534.070312 154.527344 C 534.070312 154.527344 541.75 159.105469 545.808594 145.015625 C 545.808594 145.015625 551.039062 132.84375 546.359375 130.820312 C 540.457031 128.265625 538.257812 132.117188 535.5 138.277344 Z M 535.488281 138.277344 " fill-opacity="1" fill-rule="nonzero"/><path fill="#26130f" d="M 503.078125 126.277344 C 503.078125 126.277344 515.296875 122.320312 520.972656 126.277344 C 520.972656 126.277344 516.714844 119.90625 502.738281 123.359375 C 502.738281 123.359375 500.292969 125.253906 503.078125 126.277344 Z M 503.078125 126.277344 " fill-opacity="1" fill-rule="nonzero"/><path fill="#26130f" d="M 473.632812 123.304688 C 473.921875 122.671875 480.15625 122.757812 485.820312 124.15625 C 485.820312 124.15625 488.265625 126.050781 485.484375 127.074219 C 485.484375 127.074219 475.3125 123.078125 473.558594 126.351562 C 473.558594 126.351562 472.910156 124.871094 473.632812 123.304688 Z M 473.632812 123.304688 " fill-opacity="1" fill-rule="nonzero"/><path stroke-linecap="butt" transform="matrix(0.674097, 0, 0, 0.674068, 0.760252, -36.158794)" fill="none" stroke-linejoin="miter" d="M 730.140207 278.472896 C 717.461201 276.780744 725.881034 265.068965 725.881034 265.068965 " stroke="#231f20" stroke-width="0.8" stroke-opacity="1" stroke-miterlimit="10"/><path stroke-linecap="butt" transform="matrix(0.674097, 0, 0, 0.674068, 0.760252, -36.158794)" fill="none" stroke-linejoin="miter" d="M 808.491593 261.887487 C 808.491593 261.887487 803.809401 249.457124 794.259583 269.461606 C 794.259583 269.461606 802.372292 260.629963 803.809401 268.198287 " stroke="#231f20" stroke-width="0.8" stroke-opacity="1" stroke-miterlimit="10"/><path fill="#26130f" d="M 495.09375 179.953125 C 495.09375 179.953125 497.867188 182.515625 507.503906 179.132812 C 507.503906 179.132812 515.933594 176.3125 522.820312 170.773438 C 522.820312 170.773438 514.078125 180.472656 502.246094 181.9375 C 502.246094 181.9375 499.09375 182.871094 494.625 181.28125 C 494.625 181.28125 495.304688 181.207031 495.089844 179.960938 Z M 495.09375 179.953125 " fill-opacity="1" fill-rule="nonzero"/><path stroke-linecap="butt" transform="matrix(0.674097, 0, 0, 0.674068, 0.760252, -36.158794)" fill="none" stroke-linejoin="miter" d="M 776.017577 947.840736 L 743.827506 814.780792 C 743.827506 814.780792 742.448345 811.002425 744.580829 777.930124 L 751.082586 671.509985 C 751.082586 671.509985 743.149515 667.951829 737.140316 661.478768 " stroke="#231f20" stroke-width="1.2" stroke-opacity="1" stroke-miterlimit="10"/><path fill="#c6837e" d="M 508.550781 158.019531 C 508.550781 158.019531 503.128906 156.347656 496.671875 158.183594 C 496.671875 158.183594 491.089844 157.0625 486.070312 158.183594 C 486.070312 158.183594 486.628906 167.1875 495.074219 169.183594 C 503.523438 171.175781 508.707031 163.285156 508.542969 158.019531 Z M 508.550781 158.019531 " fill-opacity="1" fill-rule="nonzero"/><path fill="#803435" d="M 507.195312 158.660156 C 507.195312 158.660156 507.277344 166.632812 496.914062 166.632812 C 487.503906 166.632812 487.429688 159.542969 487.429688 159.542969 C 487.429688 159.542969 498.035156 160.023438 507.203125 158.667969 Z M 507.195312 158.660156 " fill-opacity="1" fill-rule="nonzero"/><path fill="#ffffff" d="M 505.90625 158.773438 C 505.90625 158.773438 503.339844 162.46875 495.316406 162.078125 C 495.316406 162.078125 490.371094 162.328125 488.300781 159.699219 C 488.300781 159.699219 498.632812 159.921875 505.90625 158.773438 Z M 505.90625 158.773438 " fill-opacity="1" fill-rule="nonzero"/><path fill="#01a04c" d="M 573.640625 333.808594 C 573.640625 333.808594 568.175781 318.523438 566.785156 295.410156 C 566.785156 295.410156 558.480469 269.644531 557.039062 268.679688 C 552.757812 265.804688 570.082031 267.925781 576.164062 264.886719 C 578.46875 263.734375 581.769531 240.425781 582.855469 231.648438 C 586.550781 201.875 550.140625 193.96875 550.140625 193.96875 L 541.546875 189.675781 C 541.546875 189.675781 538.324219 220.976562 512.636719 220.976562 C 498.632812 220.976562 487.714844 218.988281 487.84375 188.144531 L 477.40625 192.746094 C 477.40625 192.746094 450.445312 192.59375 440.957031 249.894531 C 439.960938 255.921875 454.914062 257.335938 459.753906 256.21875 C 459.753906 256.21875 456.171875 270.136719 463.964844 288.457031 C 463.964844 288.457031 464.605469 308.242188 457.925781 339.234375 C 457.925781 339.234375 500.628906 380.628906 573.640625 333.808594 Z M 573.640625 333.808594 " fill-opacity="1" fill-rule="nonzero"/><path fill="#ffffff" d="M 515.492188 133.589844 C 515.492188 133.589844 515.507812 133.328125 515.320312 133.097656 C 514.691406 132.34375 513.242188 130.914062 510.871094 130.828125 C 508.21875 130.726562 506.667969 133.167969 506.136719 134.03125 C 506.042969 134.179688 506.050781 134.3125 506.050781 134.3125 C 506.050781 134.3125 506.035156 134.460938 506.117188 134.570312 C 506.519531 135.074219 507.882812 136.496094 510.390625 136.632812 C 511.878906 136.710938 514.011719 135.984375 515.386719 134.007812 C 515.480469 133.875 515.492188 133.691406 515.492188 133.597656 Z M 515.492188 133.589844 " fill-opacity="1" fill-rule="nonzero"/><path fill="#26130f" d="M 512.75 133.855469 C 512.75 134.21875 512.679688 134.566406 512.542969 134.90625 C 512.402344 135.242188 512.203125 135.539062 511.945312 135.792969 C 511.6875 136.050781 511.390625 136.25 511.054688 136.390625 C 510.71875 136.527344 510.371094 136.597656 510.007812 136.597656 C 509.644531 136.597656 509.292969 136.527344 508.957031 136.390625 C 508.621094 136.25 508.324219 136.050781 508.066406 135.792969 C 507.808594 135.539062 507.609375 135.242188 507.472656 134.90625 C 507.332031 134.566406 507.261719 134.21875 507.261719 133.855469 C 507.261719 133.492188 507.332031 133.140625 507.472656 132.804688 C 507.609375 132.46875 507.808594 132.171875 508.066406 131.914062 C 508.324219 131.65625 508.621094 131.460938 508.957031 131.320312 C 509.292969 131.179688 509.644531 131.109375 510.007812 131.109375 C 510.371094 131.109375 510.71875 131.179688 511.054688 131.320312 C 511.390625 131.460938 511.6875 131.65625 511.945312 131.914062 C 512.203125 132.171875 512.402344 132.46875 512.542969 132.804688 C 512.679688 133.140625 512.75 133.492188 512.75 133.855469 Z M 512.75 133.855469 " fill-opacity="1" fill-rule="nonzero"/><path fill="#ffffff" d="M 512.515625 133.363281 C 512.515625 133.570312 512.441406 133.75 512.292969 133.894531 C 512.144531 134.042969 511.96875 134.117188 511.757812 134.117188 C 511.550781 134.117188 511.371094 134.042969 511.226562 133.894531 C 511.078125 133.75 511.003906 133.570312 511.003906 133.363281 C 511.003906 133.152344 511.078125 132.976562 511.226562 132.828125 C 511.371094 132.679688 511.550781 132.609375 511.757812 132.609375 C 511.96875 132.609375 512.144531 132.679688 512.292969 132.828125 C 512.441406 132.976562 512.515625 133.152344 512.515625 133.363281 Z M 512.515625 133.363281 " fill-opacity="1" fill-rule="nonzero"/><path stroke-linecap="butt" transform="matrix(0.674097, 0, 0, 0.674068, 0.760252, -36.158794)" fill="none" stroke-linejoin="miter" d="M 749.471634 252.482135 C 749.471634 252.482135 754.600025 243.27961 763.477646 251.068145 " stroke="#231f20" stroke-width="0.8" stroke-opacity="1" stroke-miterlimit="10"/><path fill="#ffffff" d="M 484.539062 134.40625 C 484.539062 134.40625 484.585938 134.164062 484.445312 133.921875 C 483.972656 133.125 482.820312 131.597656 480.636719 131.171875 C 478.1875 130.699219 476.394531 132.742188 475.777344 133.476562 C 475.667969 133.605469 475.65625 133.726562 475.65625 133.726562 C 475.65625 133.726562 475.621094 133.859375 475.679688 133.976562 C 475.984375 134.5 477.042969 136.023438 479.355469 136.503906 C 480.730469 136.785156 482.8125 136.421875 484.371094 134.777344 C 484.476562 134.664062 484.519531 134.5 484.53125 134.40625 Z M 484.539062 134.40625 " fill-opacity="1" fill-rule="nonzero"/><path fill="#26130f" d="M 481.964844 133.867188 C 481.964844 134.207031 481.898438 134.535156 481.769531 134.851562 C 481.636719 135.164062 481.453125 135.441406 481.210938 135.683594 C 480.972656 135.925781 480.691406 136.109375 480.378906 136.242188 C 480.0625 136.371094 479.734375 136.4375 479.394531 136.4375 C 479.054688 136.4375 478.726562 136.371094 478.414062 136.242188 C 478.097656 136.109375 477.820312 135.925781 477.578125 135.683594 C 477.339844 135.441406 477.152344 135.164062 477.023438 134.851562 C 476.894531 134.535156 476.828125 134.207031 476.828125 133.867188 C 476.828125 133.527344 476.894531 133.199219 477.023438 132.886719 C 477.152344 132.570312 477.339844 132.292969 477.578125 132.050781 C 477.820312 131.8125 478.097656 131.625 478.414062 131.496094 C 478.726562 131.363281 479.054688 131.300781 479.394531 131.300781 C 479.734375 131.300781 480.0625 131.363281 480.378906 131.496094 C 480.691406 131.625 480.972656 131.8125 481.210938 132.050781 C 481.453125 132.292969 481.636719 132.570312 481.769531 132.886719 C 481.898438 133.199219 481.964844 133.527344 481.964844 133.867188 Z M 481.964844 133.867188 " fill-opacity="1" fill-rule="nonzero"/><path fill="#ffffff" d="M 481.890625 133.714844 C 481.890625 133.914062 481.820312 134.082031 481.679688 134.222656 C 481.539062 134.363281 481.367188 134.433594 481.167969 134.433594 C 480.96875 134.433594 480.800781 134.363281 480.660156 134.222656 C 480.519531 134.082031 480.449219 133.914062 480.449219 133.714844 C 480.449219 133.515625 480.519531 133.34375 480.660156 133.203125 C 480.800781 133.0625 480.96875 132.992188 481.167969 132.992188 C 481.367188 132.992188 481.539062 133.0625 481.679688 133.203125 C 481.820312 133.34375 481.890625 133.515625 481.890625 133.714844 Z M 481.890625 133.714844 " fill-opacity="1" fill-rule="nonzero"/><path stroke-linecap="butt" transform="matrix(0.674097, 0, 0, 0.674068, 0.760252, -36.158794)" fill="none" stroke-linejoin="miter" d="M 704.579378 251.769345 C 704.579378 251.769345 710.490066 243.37233 717.611866 252.48793 " stroke="#231f20" stroke-width="0.8" stroke-opacity="1" stroke-miterlimit="10"/><path fill="#26130f" d="M 477.738281 162.339844 C 472.90625 153.28125 474.449219 141.773438 474.449219 141.773438 C 474.449219 141.773438 475.082031 139.589844 475.363281 135.164062 C 475.648438 130.761719 474.71875 129.730469 475.128906 125.804688 C 475.128906 125.804688 488.902344 122.632812 500.589844 110.726562 C 500.589844 110.726562 514.152344 105.308594 503.992188 106.445312 C 503.992188 106.445312 507.964844 101.089844 522.644531 105.605469 C 522.644531 105.605469 524.9375 127.203125 535.480469 138.28125 C 535.480469 138.28125 540.691406 128.199219 546.339844 130.828125 C 551.988281 133.449219 543.367188 148.992188 543.367188 148.992188 C 543.367188 148.992188 540.785156 158.230469 534.367188 154.175781 C 534.367188 154.175781 531.113281 163.203125 533.316406 173.167969 C 533.316406 173.167969 535.082031 172.242188 537.570312 169.257812 C 537.570312 169.257812 535.890625 173.953125 532.691406 177.15625 C 532.691406 177.15625 546.136719 173.953125 547.417969 160.832031 C 547.417969 160.832031 547.417969 156.347656 550.9375 155.707031 C 554.457031 155.066406 559.25 142.457031 558.609375 131.570312 C 557.96875 120.683594 549.765625 83.710938 525.496094 82.894531 C 525.496094 82.894531 512.472656 77.132812 495.84375 87.210938 C 479.214844 97.285156 480.914062 99.707031 466.808594 120.824219 C 466.808594 120.824219 460.371094 122.78125 470.6875 131.527344 C 470.6875 131.527344 467.855469 142.625 469.703125 139.335938 C 469.703125 139.335938 467.4375 150.828125 472.4375 155.511719 C 472.4375 155.511719 471.65625 152.074219 471.757812 146.527344 C 471.757812 146.527344 470.421875 158.902344 480.230469 167.121094 " fill-opacity="1" fill-rule="nonzero"/><path stroke-linecap="butt" transform="matrix(0.674097, 0, 0, 0.674068, 0.760252, -36.158794)" fill="none" stroke-linejoin="miter" d="M 771.798968 243.951834 C 771.798968 243.951834 754.391412 238.017712 738.351427 244.021375 C 738.351427 244.021375 736.097253 267.311646 753.74819 268.070797 C 753.74819 268.070797 776.678183 267.630373 771.787379 243.957629 Z M 771.798968 243.951834 " stroke="#cfe5ae" stroke-width="1.2" stroke-opacity="1" stroke-miterlimit="10"/><path stroke-linecap="butt" transform="matrix(0.674097, 0, 0, 0.674068, 0.760252, -36.158794)" fill="none" stroke-linejoin="miter" d="M 727.150094 243.772188 C 727.150094 243.772188 711.961943 238.029302 698.442693 245.44116 C 698.442693 245.44116 694.299416 266.552496 711.961943 267.300056 C 711.961943 267.300056 732.029309 267.439137 727.150094 243.772188 Z M 727.150094 243.772188 " stroke="#cfe5ae" stroke-width="1.2" stroke-opacity="1" stroke-miterlimit="10"/><path stroke-linecap="butt" transform="matrix(0.674097, 0, 0, 0.674068, 0.760252, -36.158794)" fill="none" stroke-linejoin="miter" d="M 727.150094 243.772188 C 727.150094 243.772188 733.628672 240.741382 738.351427 244.021375 " stroke="#cfe5ae" stroke-width="1.2" stroke-opacity="1" stroke-miterlimit="10"/><path stroke-linecap="butt" transform="matrix(0.674097, 0, 0, 0.674068, 0.760252, -36.158794)" fill="none" stroke-linejoin="miter" d="M 769.52741 243.638902 L 796.218223 251.867861 " stroke="#cfe5ae" stroke-width="1.2" stroke-opacity="1" stroke-miterlimit="10"/><path stroke-linecap="butt" transform="matrix(0.674097, 0, 0, 0.674068, 0.760252, -36.158794)" fill="none" stroke-linejoin="miter" d="M 795.30844 279.828935 L 795.30844 293.389332 " stroke="#ffffff" stroke-width="0.5" stroke-opacity="1" stroke-miterlimit="10"/><path stroke-linecap="butt" transform="matrix(0.674097, 0, 0, 0.674068, 0.760252, -36.158794)" fill="none" stroke-linejoin="miter" d="M 797.110621 295.23795 L 795.470695 292.241914 L 794.091534 295.371236 L 790.730555 296.002896 L 793.268674 298.280347 L 792.839859 301.682036 L 795.789408 299.960909 L 798.889622 301.421259 L 798.171068 298.077521 L 800.512164 295.591448 Z M 797.110621 295.23795 " stroke="#ffffff" stroke-width="0.5" stroke-opacity="1" stroke-miterlimit="10"/><path fill="#26130f" d="M 525.503906 82.882812 C 525.503906 82.882812 509.917969 70.9375 495.695312 81.054688 C 495.695312 81.054688 492.203125 87.417969 483.398438 85.808594 C 478.75 84.957031 477.601562 92.25 477.601562 92.25 C 477.601562 92.25 479.09375 98.277344 473.523438 97.832031 C 473.523438 97.832031 464.511719 100.378906 466.015625 110.902344 C 467.519531 121.425781 461.207031 124.6875 461.207031 124.6875 C 461.207031 124.6875 455.875 128.347656 458.277344 134.125 C 458.277344 134.125 460.851562 137.988281 459.347656 140.136719 C 457.84375 142.289062 455.054688 141.640625 455.054688 141.640625 C 455.054688 141.640625 458.917969 144.429688 462.140625 139.707031 C 465.359375 134.980469 466.433594 130.6875 466.433594 130.6875 C 466.433594 130.6875 464.5 137.128906 465.785156 140.777344 C 465.785156 140.777344 466 142.496094 462.996094 145.285156 C 459.988281 148.078125 461.492188 151.300781 461.492188 151.300781 C 461.492188 151.300781 462.347656 147.222656 464.28125 146.789062 C 466.21875 146.359375 467.503906 145.71875 467.503906 145.71875 C 467.503906 145.71875 470.179688 151.980469 472.4375 155.5 C 473.375 156.953125 473.046875 160.238281 468.75 161.308594 C 464.457031 162.382812 468.070312 170.828125 468.070312 170.828125 C 468.070312 170.828125 467.957031 163.167969 471.601562 164.03125 C 475.257812 164.886719 475.230469 161.1875 475.230469 161.1875 C 475.230469 161.1875 472.4375 153.886719 473.296875 144.867188 L 472.007812 125.757812 C 472.007812 125.757812 479.523438 124.902344 484.035156 122.320312 C 484.035156 122.320312 496.300781 116.101562 500.582031 110.726562 C 500.582031 110.726562 494.265625 116.863281 493.867188 119.195312 C 492.972656 124.4375 487.34375 125.71875 487.34375 125.71875 C 487.34375 125.71875 495.386719 126.488281 496.175781 122.390625 C 497.582031 115.09375 503.980469 115.480469 503.980469 115.480469 C 503.980469 115.480469 511.09375 116.949219 515.171875 111.144531 C 519.25 105.347656 522.640625 105.589844 522.640625 105.589844 C 522.640625 105.589844 533.875 96.269531 525.492188 82.875 Z M 525.503906 82.882812 " fill-opacity="1" fill-rule="nonzero"/><path fill="#26130f" d="M 467.503906 145.726562 C 467.503906 145.726562 469.40625 148.378906 467.6875 152.054688 C 465.976562 155.726562 463.277344 155.976562 463.519531 159.160156 C 463.761719 162.347656 468.542969 167.984375 468.542969 167.984375 C 468.542969 167.984375 465.113281 162.839844 466.582031 159.160156 C 468.050781 155.480469 472.433594 155.5 472.433594 155.5 " fill-opacity="1" fill-rule="nonzero"/><path fill="#dcbf97" d="M 398.707031 327.199219 L 409.574219 325.699219 C 420.890625 325.539062 442.433594 318.992188 455.285156 316.332031 C 468.132812 313.667969 463.964844 288.464844 463.964844 288.464844 C 457.023438 266.667969 459.753906 256.226562 459.753906 256.226562 C 459.753906 256.226562 450.316406 258.105469 442.414062 253.265625 L 438.585938 290.933594 C 424.855469 294.035156 408.070312 302.296875 408.070312 302.296875 C 408.070312 302.296875 402.988281 305.480469 396.796875 307.027344 " fill-opacity="1" fill-rule="nonzero"/><path fill="#dcbf97" d="M 399.210938 327.164062 C 399.210938 327.164062 389.847656 329.488281 383.847656 333.0625 C 377.851562 336.632812 362.460938 345.722656 359.796875 340.464844 C 359.796875 340.464844 344.429688 345.910156 344.824219 338.914062 C 344.824219 338.914062 341.085938 338.515625 342.351562 333.863281 C 342.351562 333.863281 339.546875 328.671875 345.101562 328.34375 C 350.648438 328.011719 368.371094 315.460938 368.371094 315.460938 C 368.371094 315.460938 372.148438 311.429688 365.789062 311.207031 C 359.433594 310.984375 357.160156 309.738281 356.152344 306.5625 C 355.140625 303.390625 356.8125 301.84375 359.988281 303.078125 C 363.160156 304.3125 366.875 305.390625 370.554688 304.589844 C 376.945312 303.195312 382.792969 305.484375 382.792969 305.484375 C 382.792969 305.484375 389.371094 308.304688 396.804688 307.023438 " fill-opacity="1" fill-rule="nonzero"/><path stroke-linecap="butt" transform="matrix(0.674097, 0, 0, 0.674068, 0.760252, -36.158794)" fill="none" stroke-linejoin="miter" d="M 506.739375 548.939065 C 506.739375 548.939065 506.438046 554.282094 534.450072 539.238166 " stroke="#603913" stroke-width="1" stroke-opacity="1" stroke-miterlimit="10"/><path stroke-linecap="butt" transform="matrix(0.674097, 0, 0, 0.674068, 0.760252, -36.158794)" fill="none" stroke-linejoin="miter" d="M 510.407478 556.432054 C 510.407478 556.432054 525.769473 554.931138 541.009776 546.487763 " stroke="#603913" stroke-width="1" stroke-opacity="1" stroke-miterlimit="10"/><path stroke-linecap="butt" transform="matrix(0.674097, 0, 0, 0.674068, 0.760252, -36.158794)" fill="none" stroke-linejoin="miter" d="M 532.618917 558.732685 C 532.618917 558.732685 539.879792 556.148097 544.231681 553.969161 " stroke="#603913" stroke-width="1" stroke-opacity="1" stroke-miterlimit="10"/><path stroke-linecap="butt" transform="matrix(0.674097, 0, 0, 0.674068, 0.760252, -36.158794)" fill="none" stroke-linejoin="miter" d="M 545.338486 521.638626 C 545.338486 521.638626 545.350076 530.01246 556.841149 533.321429 " stroke="#603913" stroke-width="1" stroke-opacity="1" stroke-miterlimit="10"/><path fill="#be9e7d" d="M 349.269531 249.503906 L 355.289062 272.847656 L 395.199219 313.128906 L 371.855469 325.550781 L 329.6875 299.574219 L 324.414062 266.820312 Z M 349.269531 249.503906 " fill-opacity="1" fill-rule="nonzero"/><path stroke-linecap="butt" transform="matrix(0.674097, 0, 0, 0.674068, 0.760252, -36.158794)" fill-opacity="1" fill="#754c29" fill-rule="nonzero" stroke-linejoin="miter" d="M 332.489971 974.509517 C 332.489971 974.509517 325.130585 987.380303 330.038774 1004.551011 C 330.038774 1004.551011 343.529051 1022.330198 390.107591 1017.421798 C 390.107591 1017.421798 426.887137 1039.489315 469.797574 1027.232803 C 469.797574 1027.232803 505.348625 1018.650347 477.162755 995.348485 C 477.162755 995.348485 440.377414 967.149814 409.728758 961.63873 C 409.728758 961.63873 385.210991 986.15755 332.489971 974.509517 Z M 332.489971 974.509517 " stroke="#ffffff" stroke-width="0.5" stroke-opacity="1" stroke-miterlimit="10"/><path fill="#754c29" d="M 199.34375 630.128906 C 199.34375 630.128906 194.28125 638.988281 197.65625 650.796875 C 197.65625 650.796875 206.9375 663.03125 239 659.65625 C 239 659.65625 264.3125 674.839844 293.84375 666.402344 C 293.84375 666.402344 318.3125 660.496094 298.90625 644.46875 C 298.90625 644.46875 273.59375 625.0625 252.5 621.265625 C 252.5 621.265625 235.628906 638.136719 199.347656 630.125 Z M 199.34375 630.128906 " fill-opacity="1" fill-rule="nonzero"/><g clip-path="url(#7bf6062a2c)"><path stroke-linecap="butt" transform="matrix(0.674097, 0, 0, 0.674068, 0.760252, -36.158794)" fill="none" stroke-linejoin="miter" d="M 294.59203 988.458181 C 294.59203 988.458181 287.081979 1001.601335 292.08868 1019.119745 C 292.08868 1019.119745 305.857106 1037.269814 353.420761 1032.262899 C 353.420761 1032.262899 390.971015 1054.788224 434.779645 1042.270935 C 434.779645 1042.270935 471.078223 1033.508833 442.289695 1009.731778 C 442.289695 1009.731778 404.739441 980.942013 373.447563 975.309232 C 373.447563 975.309232 348.419855 1000.338016 294.597825 988.452386 Z M 294.59203 988.458181 " stroke="#ffffff" stroke-width="0.5" stroke-opacity="1" stroke-miterlimit="10"/></g><path fill="#be9e7d" d="M 240.746094 113.269531 C 240.746094 113.269531 241.203125 127.503906 233.945312 141.417969 C 233.945312 141.417969 232.128906 192.222656 270.835938 196.152344 C 270.835938 196.152344 295.792969 180.195312 291.882812 153.242188 C 291.445312 150.234375 287.59375 147.03125 286.457031 143.769531 L 240.738281 113.269531 Z M 240.746094 113.269531 " fill-opacity="1" fill-rule="nonzero"/><path fill="#9b755d" d="M 182.316406 329.261719 C 182.316406 329.261719 251.976562 369.367188 328.621094 333.417969 L 315.597656 482.554688 C 315.597656 482.554688 316.023438 509.828125 310.910156 535.445312 C 305.800781 561.066406 299.410156 620.566406 299.410156 620.566406 C 299.410156 620.566406 284.933594 628.828125 262.796875 623.046875 C 262.796875 623.046875 237.515625 650.339844 195.363281 628.855469 C 195.363281 628.855469 184.890625 575.273438 191.28125 546.351562 C 191.28125 546.351562 194.617188 524.199219 192.917969 502.71875 C 192.917969 502.71875 165.71875 364.386719 182.320312 329.265625 Z M 182.316406 329.261719 " fill-opacity="1" fill-rule="nonzero"/><path stroke-linecap="butt" transform="matrix(0.674097, 0, 0, 0.674068, 0.760252, -36.158794)" fill="none" stroke-linejoin="miter" d="M 391.608442 977.951771 C 391.608442 977.951771 403.632636 793.281189 392.211101 709.867364 C 392.211101 709.867364 407.190639 697.512335 413.460604 670.84935 " stroke="#603913" stroke-width="1" stroke-opacity="1" stroke-miterlimit="10"/><path fill="#bfbfbf" d="M 230.492188 137.300781 L 236.261719 136.421875 L 235.191406 142.925781 Z M 230.492188 137.300781 " fill-opacity="1" fill-rule="nonzero"/><path fill="#e6e7e8" d="M 225.613281 143.488281 C 225.613281 143.488281 202.839844 152.363281 186.621094 168.917969 C 186.621094 168.917969 173.53125 183.269531 171.058594 200.5 C 171.058594 200.5 163.277344 221.558594 178.835938 261.375 L 186.210938 282.34375 L 174.554688 367.640625 C 174.554688 367.640625 198.609375 396.835938 276.546875 397.847656 C 276.546875 397.847656 308.585938 398.222656 325.15625 381.332031 C 325.15625 381.332031 335.644531 317.214844 329.046875 267.847656 C 329.046875 267.847656 347.285156 250.710938 353.425781 248.191406 L 339.539062 196.949219 C 339.539062 196.949219 339.378906 180.585938 322.472656 166.042969 C 322.472656 166.042969 306.765625 154.304688 295.085938 149.546875 L 272.355469 166.128906 L 270.257812 196.980469 L 261.109375 170.589844 C 261.109375 170.589844 259.828125 162.90625 225.597656 143.488281 Z M 225.613281 143.488281 " fill-opacity="1" fill-rule="nonzero"/><path fill="#d4d5d6" d="M 225.613281 143.488281 C 225.613281 143.488281 255.265625 160.777344 261.125 170.589844 L 260.308594 160.863281 C 260.308594 160.863281 238.320312 147.296875 230.492188 137.292969 L 225.613281 143.480469 Z M 225.613281 143.488281 " fill-opacity="1" fill-rule="nonzero"/><path fill="#d4d5d6" d="M 284.398438 143.007812 C 284.398438 143.007812 295.515625 142.65625 295.089844 149.554688 L 272.359375 166.136719 L 271.625 160.386719 C 271.625 160.386719 282.34375 155.25 289.375 146.9375 C 289.375 146.9375 284.65625 146.332031 284.394531 143 Z M 284.398438 143.007812 " fill-opacity="1" fill-rule="nonzero"/><path stroke-linecap="butt" transform="matrix(0.674097, 0, 0, 0.674068, 0.760252, -36.158794)" fill="none" stroke-linejoin="miter" d="M 399.808073 345.880817 C 399.808073 345.880817 410.881921 441.307762 409.131894 643.867638 " stroke="#6d6e71" stroke-width="1" stroke-opacity="1" stroke-miterlimit="10"/><path fill="#d1d3d4" d="M 265.574219 200.796875 C 265.574219 201.039062 265.527344 201.273438 265.4375 201.5 C 265.347656 201.726562 265.21875 201.925781 265.054688 202.097656 C 264.886719 202.269531 264.695312 202.402344 264.476562 202.496094 C 264.261719 202.589844 264.035156 202.636719 263.800781 202.636719 C 263.5625 202.636719 263.339844 202.589844 263.121094 202.496094 C 262.902344 202.402344 262.710938 202.269531 262.546875 202.097656 C 262.378906 201.925781 262.25 201.726562 262.160156 201.5 C 262.070312 201.273438 262.027344 201.039062 262.027344 200.796875 C 262.027344 200.550781 262.070312 200.316406 262.160156 200.09375 C 262.25 199.867188 262.378906 199.667969 262.546875 199.496094 C 262.710938 199.324219 262.902344 199.1875 263.121094 199.097656 C 263.339844 199.003906 263.5625 198.957031 263.800781 198.957031 C 264.035156 198.957031 264.261719 199.003906 264.476562 199.097656 C 264.695312 199.1875 264.886719 199.324219 265.054688 199.496094 C 265.21875 199.667969 265.347656 199.867188 265.4375 200.09375 C 265.527344 200.316406 265.574219 200.550781 265.574219 200.796875 Z M 265.574219 200.796875 " fill-opacity="1" fill-rule="nonzero"/><path fill="#d1d3d4" d="M 270.070312 231.675781 C 270.070312 231.917969 270.023438 232.152344 269.933594 232.378906 C 269.84375 232.605469 269.714844 232.804688 269.550781 232.976562 C 269.382812 233.148438 269.191406 233.28125 268.972656 233.375 C 268.757812 233.46875 268.53125 233.515625 268.296875 233.515625 C 268.0625 233.515625 267.835938 233.46875 267.617188 233.375 C 267.398438 233.28125 267.207031 233.148438 267.042969 232.976562 C 266.875 232.804688 266.746094 232.605469 266.65625 232.378906 C 266.566406 232.152344 266.523438 231.917969 266.523438 231.675781 C 266.523438 231.429688 266.566406 231.195312 266.65625 230.972656 C 266.746094 230.746094 266.875 230.546875 267.042969 230.375 C 267.207031 230.203125 267.398438 230.070312 267.617188 229.976562 C 267.835938 229.882812 268.0625 229.835938 268.296875 229.835938 C 268.53125 229.835938 268.757812 229.882812 268.972656 229.976562 C 269.191406 230.070312 269.382812 230.203125 269.550781 230.375 C 269.714844 230.546875 269.84375 230.746094 269.933594 230.972656 C 270.023438 231.195312 270.070312 231.429688 270.070312 231.675781 Z M 270.070312 231.675781 " fill-opacity="1" fill-rule="nonzero"/><path fill="#d1d3d4" d="M 272.285156 265.101562 C 272.285156 265.347656 272.242188 265.582031 272.152344 265.804688 C 272.0625 266.03125 271.933594 266.230469 271.765625 266.402344 C 271.601562 266.574219 271.410156 266.707031 271.191406 266.800781 C 270.976562 266.894531 270.75 266.941406 270.511719 266.941406 C 270.277344 266.941406 270.050781 266.894531 269.835938 266.800781 C 269.617188 266.707031 269.425781 266.574219 269.261719 266.402344 C 269.09375 266.230469 268.964844 266.03125 268.875 265.804688 C 268.785156 265.582031 268.742188 265.347656 268.742188 265.101562 C 268.742188 264.859375 268.785156 264.625 268.875 264.398438 C 268.964844 264.171875 269.09375 263.972656 269.261719 263.800781 C 269.425781 263.628906 269.617188 263.496094 269.835938 263.402344 C 270.050781 263.308594 270.277344 263.261719 270.511719 263.261719 C 270.75 263.261719 270.976562 263.308594 271.191406 263.402344 C 271.410156 263.496094 271.601562 263.628906 271.765625 263.800781 C 271.933594 263.972656 272.0625 264.171875 272.152344 264.398438 C 272.242188 264.625 272.285156 264.859375 272.285156 265.101562 Z M 272.285156 265.101562 " fill-opacity="1" fill-rule="nonzero"/><path fill="#d1d3d4" d="M 272.90625 295.597656 C 272.90625 295.839844 272.863281 296.074219 272.773438 296.300781 C 272.679688 296.527344 272.554688 296.726562 272.386719 296.898438 C 272.222656 297.070312 272.027344 297.203125 271.8125 297.296875 C 271.59375 297.390625 271.367188 297.4375 271.132812 297.4375 C 270.898438 297.4375 270.671875 297.390625 270.457031 297.296875 C 270.238281 297.203125 270.046875 297.070312 269.878906 296.898438 C 269.714844 296.726562 269.585938 296.527344 269.496094 296.300781 C 269.40625 296.074219 269.359375 295.839844 269.359375 295.597656 C 269.359375 295.351562 269.40625 295.117188 269.496094 294.894531 C 269.585938 294.667969 269.714844 294.46875 269.878906 294.296875 C 270.046875 294.125 270.238281 293.992188 270.457031 293.898438 C 270.671875 293.804688 270.898438 293.757812 271.132812 293.757812 C 271.367188 293.757812 271.59375 293.804688 271.8125 293.898438 C 272.027344 293.992188 272.222656 294.125 272.386719 294.296875 C 272.554688 294.46875 272.679688 294.667969 272.773438 294.894531 C 272.863281 295.117188 272.90625 295.351562 272.90625 295.597656 Z M 272.90625 295.597656 " fill-opacity="1" fill-rule="nonzero"/><path fill="#d1d3d4" d="M 273.804688 333.9375 C 273.804688 334.183594 273.757812 334.417969 273.667969 334.640625 C 273.578125 334.867188 273.449219 335.066406 273.285156 335.238281 C 273.117188 335.410156 272.925781 335.542969 272.707031 335.636719 C 272.492188 335.730469 272.265625 335.777344 272.03125 335.777344 C 271.796875 335.777344 271.570312 335.730469 271.351562 335.636719 C 271.132812 335.542969 270.941406 335.410156 270.777344 335.238281 C 270.609375 335.066406 270.480469 334.867188 270.390625 334.640625 C 270.300781 334.417969 270.257812 334.183594 270.257812 333.9375 C 270.257812 333.695312 270.300781 333.460938 270.390625 333.234375 C 270.480469 333.007812 270.609375 332.808594 270.777344 332.636719 C 270.941406 332.464844 271.132812 332.332031 271.351562 332.238281 C 271.570312 332.144531 271.796875 332.097656 272.03125 332.097656 C 272.265625 332.097656 272.492188 332.144531 272.707031 332.238281 C 272.925781 332.332031 273.117188 332.464844 273.285156 332.636719 C 273.449219 332.808594 273.578125 333.007812 273.667969 333.234375 C 273.757812 333.460938 273.804688 333.695312 273.804688 333.9375 Z M 273.804688 333.9375 " fill-opacity="1" fill-rule="nonzero"/><path fill="#d1d3d4" d="M 274.242188 375.035156 C 274.242188 375.28125 274.195312 375.515625 274.105469 375.738281 C 274.015625 375.964844 273.886719 376.164062 273.722656 376.335938 C 273.554688 376.507812 273.363281 376.644531 273.148438 376.734375 C 272.929688 376.828125 272.703125 376.875 272.46875 376.875 C 272.234375 376.875 272.007812 376.828125 271.789062 376.734375 C 271.574219 376.644531 271.382812 376.507812 271.214844 376.335938 C 271.046875 376.164062 270.921875 375.964844 270.832031 375.738281 C 270.742188 375.515625 270.695312 375.28125 270.695312 375.035156 C 270.695312 374.792969 270.742188 374.558594 270.832031 374.332031 C 270.921875 374.105469 271.046875 373.90625 271.214844 373.734375 C 271.382812 373.5625 271.574219 373.429688 271.789062 373.335938 C 272.007812 373.242188 272.234375 373.195312 272.46875 373.195312 C 272.703125 373.195312 272.929688 373.242188 273.148438 373.335938 C 273.363281 373.429688 273.554688 373.5625 273.722656 373.734375 C 273.886719 373.90625 274.015625 374.105469 274.105469 374.332031 C 274.195312 374.558594 274.242188 374.792969 274.242188 375.035156 Z M 274.242188 375.035156 " fill-opacity="1" fill-rule="nonzero"/><path fill="#be9e7d" d="M 309.976562 56.464844 C 309.976562 56.464844 317.242188 67.992188 313.933594 94.699219 C 313.933594 94.699219 312.503906 101.082031 313.023438 104.59375 C 313.542969 108.105469 312.066406 113.605469 311.773438 117.535156 C 310.117188 139.785156 299.40625 145.605469 299.40625 145.605469 C 299.40625 145.605469 295.898438 152.667969 283.234375 152.175781 C 270.566406 151.683594 258.398438 146.945312 254.113281 141.382812 C 249.820312 135.824219 240.496094 126.195312 239.773438 117.941406 C 239.773438 117.941406 232.175781 119.28125 229.554688 110.085938 C 229.554688 110.085938 222.066406 95.636719 230.417969 92.371094 C 238.769531 89.117188 242.949219 100.664062 242.949219 100.664062 C 242.949219 100.664062 231.894531 67.109375 251.214844 55.0625 C 251.214844 55.0625 278.171875 36.773438 309.980469 56.457031 Z M 309.976562 56.464844 " fill-opacity="1" fill-rule="nonzero"/><path fill="#d1d3d4" d="M 283.253906 85.355469 C 283.253906 85.355469 272.644531 82.242188 263.347656 86.136719 C 263.347656 86.136719 267.90625 78.964844 283.53125 82.207031 C 283.53125 82.207031 286.113281 84.203125 283.253906 85.363281 Z M 283.253906 85.355469 " fill-opacity="1" fill-rule="nonzero"/><path fill="#d1d3d4" d="M 314.753906 89.917969 C 307.824219 86.582031 303.617188 87.660156 303.617188 87.660156 C 301.226562 85.710938 304.277344 84.566406 304.277344 84.566406 C 309.226562 85.03125 312.855469 86.152344 315.503906 87.472656 C 315.503906 87.472656 315.140625 90.109375 314.753906 89.925781 Z M 314.753906 89.917969 " fill-opacity="1" fill-rule="nonzero"/><path stroke-linecap="butt" transform="matrix(0.674097, 0, 0, 0.674068, 0.760252, -36.158794)" fill="none" stroke-linejoin="miter" d="M 339.542234 199.561818 C 339.542234 199.561818 344.832879 193.187272 349.13841 200.761391 C 353.449735 208.318125 353.461325 210.688297 353.461325 210.688297 C 353.461325 210.688297 347.411561 198.762102 343.54064 207.367738 " stroke="#231f20" stroke-width="0.5" stroke-opacity="1" stroke-miterlimit="10"/><path fill="#d1d3d4" d="M 227.53125 93.699219 C 227.53125 93.699219 234.066406 88.589844 238.246094 95.148438 C 242.425781 101.707031 241.453125 104.519531 241.453125 104.519531 L 245.671875 104.722656 C 245.671875 104.722656 233.289062 81.75 247.925781 73.746094 C 247.925781 73.746094 245.839844 56.863281 258.675781 55.238281 C 271.511719 53.605469 278.414062 41.460938 311.546875 59.121094 C 311.546875 59.121094 315.8125 40.335938 281.878906 33.140625 C 281.878906 33.140625 258.953125 28.011719 251.464844 39.378906 C 251.464844 39.378906 235.992188 39.929688 230.457031 59.996094 C 224.929688 80.0625 227.539062 93.707031 227.539062 93.707031 Z M 227.53125 93.699219 " fill-opacity="1" fill-rule="nonzero"/><path fill="#26130f" d="M 283.753906 152.164062 C 283.753906 152.164062 272.058594 152.164062 263.53125 147.9375 C 263.53125 147.9375 256.675781 145.800781 250.214844 136.957031 C 250.214844 136.957031 258.300781 150.097656 271.726562 152.632812 C 271.792969 152.648438 271.855469 152.65625 271.921875 152.660156 C 272.542969 152.769531 277.148438 154.414062 282.527344 153.289062 C 282.527344 153.289062 284.027344 152.5 283.753906 152.15625 Z M 283.753906 152.164062 " fill-opacity="1" fill-rule="nonzero"/><path stroke-linecap="butt" transform="matrix(0.674097, 0, 0, 0.674068, 0.760252, -36.158794)" fill="none" stroke-linejoin="miter" d="M 407.538326 162.850231 C 407.538326 162.850231 422.071665 166.020118 428.868956 168.338135 C 435.660453 170.661947 456.38263 167.457289 456.38263 167.457289 " stroke="#231f20" stroke-width="0.3" stroke-opacity="1" stroke-miterlimit="10"/><path fill="#d1d3d4" d="M 284.527344 116.320312 C 284.527344 116.320312 277.640625 120.433594 272.332031 120.824219 C 272.332031 120.824219 273.046875 122.933594 275.285156 122.792969 C 275.285156 122.792969 284.292969 121.808594 289.058594 124.5 C 289.058594 124.5 295.597656 123.695312 301.367188 125.859375 C 301.367188 125.859375 302.007812 126.386719 303.335938 126.25 C 303.335938 126.25 297.613281 121.113281 298.0625 118.722656 C 298.0625 118.722656 292.570312 120.839844 289.003906 116.589844 C 289.003906 116.589844 287.332031 117.226562 284.527344 116.316406 Z M 284.527344 116.320312 " fill-opacity="1" fill-rule="nonzero"/><path stroke-linecap="butt" transform="matrix(0.674097, 0, 0, 0.674068, 0.760252, -36.158794)" fill="none" stroke-linejoin="miter" d="M 435.921219 200.199272 L 442.712715 220.429762 C 442.712715 220.429762 445.337756 231.457725 436.529672 230.75073 C 429.228234 230.159636 429.019621 227.847415 429.019621 227.847415 " stroke="#231f20" stroke-width="0.8" stroke-opacity="1" stroke-miterlimit="10"/><path stroke-linecap="butt" transform="matrix(0.674097, 0, 0, 0.674068, 0.760252, -36.158794)" fill="none" stroke-linejoin="miter" d="M 396.922267 242.572615 C 396.922267 242.572615 396.13997 230.73914 403.499356 228.050241 C 408.511851 226.219008 411.791704 216.981712 411.791704 216.981712 " stroke="#231f20" stroke-width="0.5" stroke-opacity="1" stroke-miterlimit="10"/><path fill="#ffffff" d="M 269.550781 92.320312 C 269.550781 92.320312 269.570312 92.027344 269.800781 91.800781 C 270.566406 91.050781 272.328125 89.675781 274.910156 89.863281 C 277.800781 90.074219 279.203125 92.910156 279.675781 93.921875 C 279.753906 94.097656 279.734375 94.246094 279.734375 94.246094 C 279.734375 94.246094 279.734375 94.40625 279.628906 94.515625 C 279.128906 95.023438 277.476562 96.402344 274.734375 96.25 C 273.101562 96.152344 270.871094 95.109375 269.617188 92.789062 C 269.527344 92.628906 269.535156 92.433594 269.550781 92.324219 Z M 269.550781 92.320312 " fill-opacity="1" fill-rule="nonzero"/><path fill="#26130f" d="M 278.480469 93.261719 C 278.480469 93.660156 278.40625 94.042969 278.253906 94.410156 C 278.101562 94.777344 277.882812 95.101562 277.601562 95.382812 C 277.320312 95.664062 276.996094 95.882812 276.628906 96.035156 C 276.261719 96.1875 275.878906 96.261719 275.480469 96.261719 C 275.082031 96.261719 274.699219 96.1875 274.332031 96.035156 C 273.964844 95.882812 273.640625 95.664062 273.359375 95.382812 C 273.078125 95.101562 272.863281 94.777344 272.710938 94.410156 C 272.558594 94.042969 272.480469 93.660156 272.480469 93.261719 C 272.480469 92.863281 272.558594 92.480469 272.710938 92.113281 C 272.863281 91.746094 273.078125 91.421875 273.359375 91.140625 C 273.640625 90.859375 273.964844 90.644531 274.332031 90.492188 C 274.699219 90.339844 275.082031 90.261719 275.480469 90.261719 C 275.878906 90.261719 276.261719 90.339844 276.628906 90.492188 C 276.996094 90.644531 277.320312 90.859375 277.601562 91.140625 C 277.882812 91.421875 278.101562 91.746094 278.253906 92.113281 C 278.40625 92.480469 278.480469 92.863281 278.480469 93.261719 Z M 278.480469 93.261719 " fill-opacity="1" fill-rule="nonzero"/><path fill="#ffffff" d="M 274.550781 91.699219 C 274.550781 91.925781 274.472656 92.121094 274.308594 92.28125 C 274.148438 92.441406 273.957031 92.519531 273.730469 92.519531 C 273.5 92.519531 273.308594 92.441406 273.148438 92.28125 C 272.988281 92.121094 272.90625 91.925781 272.90625 91.699219 C 272.90625 91.472656 272.988281 91.277344 273.148438 91.117188 C 273.308594 90.957031 273.5 90.875 273.730469 90.875 C 273.957031 90.875 274.148438 90.957031 274.308594 91.117188 C 274.472656 91.277344 274.550781 91.472656 274.550781 91.699219 Z M 274.550781 91.699219 " fill-opacity="1" fill-rule="nonzero"/><path stroke-linecap="butt" transform="matrix(0.674097, 0, 0, 0.674068, 0.760252, -36.158794)" fill="none" stroke-linejoin="miter" d="M 414.022699 193.001831 C 414.022699 193.001831 409.537529 182.36793 398.938854 189.779788 " stroke="#231f20" stroke-width="0.8" stroke-opacity="1" stroke-miterlimit="10"/><path fill="#ffffff" d="M 303.09375 97.285156 C 303.09375 97.285156 303.066406 97.011719 303.253906 96.765625 C 303.867188 95.957031 305.296875 94.429688 307.730469 94.234375 C 310.453125 94.015625 312.160156 96.449219 312.738281 97.320312 C 312.839844 97.46875 312.839844 97.609375 312.839844 97.609375 C 312.839844 97.609375 312.859375 97.757812 312.78125 97.871094 C 312.386719 98.410156 311.046875 99.933594 308.472656 100.179688 C 306.941406 100.328125 304.71875 99.671875 303.21875 97.699219 C 303.121094 97.5625 303.09375 97.375 303.09375 97.28125 Z M 303.09375 97.285156 " fill-opacity="1" fill-rule="nonzero"/><path fill="#26130f" d="M 311.558594 97.3125 C 311.558594 97.6875 311.488281 98.042969 311.34375 98.390625 C 311.203125 98.734375 311 99.039062 310.734375 99.300781 C 310.472656 99.566406 310.167969 99.765625 309.824219 99.910156 C 309.480469 100.054688 309.121094 100.125 308.75 100.125 C 308.375 100.125 308.015625 100.054688 307.671875 99.910156 C 307.328125 99.765625 307.023438 99.566406 306.761719 99.300781 C 306.496094 99.039062 306.292969 98.734375 306.152344 98.390625 C 306.007812 98.042969 305.9375 97.6875 305.9375 97.3125 C 305.9375 96.941406 306.007812 96.582031 306.152344 96.238281 C 306.292969 95.894531 306.496094 95.589844 306.761719 95.324219 C 307.023438 95.0625 307.328125 94.859375 307.671875 94.714844 C 308.015625 94.574219 308.375 94.503906 308.75 94.503906 C 309.121094 94.503906 309.480469 94.574219 309.824219 94.714844 C 310.167969 94.859375 310.472656 95.0625 310.734375 95.324219 C 311 95.589844 311.203125 95.894531 311.34375 96.238281 C 311.488281 96.582031 311.558594 96.941406 311.558594 97.3125 Z M 311.558594 97.3125 " fill-opacity="1" fill-rule="nonzero"/><path fill="#ffffff" d="M 307.59375 96.152344 C 307.59375 96.371094 307.519531 96.558594 307.363281 96.710938 C 307.210938 96.867188 307.023438 96.941406 306.808594 96.941406 C 306.589844 96.941406 306.402344 96.867188 306.25 96.710938 C 306.09375 96.558594 306.019531 96.371094 306.019531 96.152344 C 306.019531 95.9375 306.09375 95.75 306.25 95.597656 C 306.402344 95.441406 306.589844 95.367188 306.808594 95.367188 C 307.023438 95.367188 307.210938 95.441406 307.363281 95.597656 C 307.519531 95.75 307.59375 95.9375 307.59375 96.152344 Z M 307.59375 96.152344 " fill-opacity="1" fill-rule="nonzero"/><path stroke-linecap="butt" transform="matrix(0.674097, 0, 0, 0.674068, 0.760252, -36.158794)" fill="none" stroke-linejoin="miter" d="M 462.890182 198.171008 C 462.890182 198.171008 457.472051 188.319438 448.629198 197.388677 " stroke="#231f20" stroke-width="0.8" stroke-opacity="1" stroke-miterlimit="10"/><path fill="#e2c799" d="M 228.1875 61.464844 C 228.1875 61.464844 237.460938 40.214844 241.917969 35.179688 C 246.375 30.148438 289.8125 25.261719 302.261719 36.0625 C 302.261719 36.0625 304.332031 40.839844 303.484375 42.695312 " fill-opacity="1" fill-rule="nonzero"/><path fill="#f7daa6" d="M 226.675781 85.242188 C 226.675781 85.242188 195.046875 84.679688 194.339844 80.675781 C 192.695312 71.367188 214.488281 65.410156 214.488281 65.410156 C 214.488281 65.410156 266.699219 49.480469 285.625 43.042969 C 299.957031 38.171875 332.691406 31.300781 337.800781 46.8125 C 342.910156 62.324219 314.390625 76.390625 314.390625 76.390625 C 314.390625 76.390625 261.582031 64.15625 227.351562 79.152344 C 227.351562 79.152344 226.097656 82.539062 226.675781 85.242188 Z M 226.675781 85.242188 " fill-opacity="1" fill-rule="nonzero"/><path stroke-linecap="butt" transform="matrix(0.674097, 0, 0, 0.674068, 0.760252, -36.158794)" fill="none" stroke-linejoin="miter" d="M 465.248662 166.970505 C 465.248662 166.970505 504.989348 141.588224 483.467489 125.958998 C 466.158445 113.389553 433.342536 123.838012 399.541513 139.820737 C 365.740489 155.797666 316.432602 163.499275 316.432602 163.499275 C 316.432602 163.499275 295.588734 173.837629 335.138191 180.102069 " stroke="#231f20" stroke-width="0.5" stroke-opacity="1" stroke-miterlimit="10"/><path fill="#d1d3d4" d="M 291.632812 217.484375 L 293.15625 244.941406 C 293.15625 244.941406 308.871094 260.054688 325.191406 244.941406 L 325.191406 214.9375 C 325.191406 214.9375 314 221.550781 291.625 217.480469 Z M 291.632812 217.484375 " fill-opacity="1" fill-rule="nonzero"/><path fill="#d1d3d4" d="M 217.394531 336.484375 L 219.121094 367.601562 C 219.121094 367.601562 236.921875 384.730469 255.425781 367.601562 L 255.425781 333.601562 C 255.425781 333.601562 242.746094 341.089844 217.394531 336.480469 Z M 217.394531 336.484375 " fill-opacity="1" fill-rule="nonzero"/><path fill="#d1d3d4" d="M 288.6875 336.484375 L 290.414062 367.601562 C 290.414062 367.601562 308.214844 384.730469 326.71875 367.601562 L 326.71875 333.601562 C 326.71875 333.601562 314.039062 341.089844 288.6875 336.480469 Z M 288.6875 336.484375 " fill-opacity="1" fill-rule="nonzero"/><path stroke-linecap="butt" transform="matrix(0.674097, 0, 0, 0.674068, 0.760252, -36.158794)" fill="none" stroke-linejoin="miter" d="M 319.011285 272.619904 C 319.011285 272.619904 365.549261 368.12798 348.947181 638.55938 " stroke="#d1d3d4" stroke-width="1" stroke-opacity="1" stroke-miterlimit="10"/><path stroke-linecap="butt" transform="matrix(0.674097, 0, 0, 0.674068, 0.760252, -36.158794)" fill="none" stroke-linejoin="miter" d="M 325.327608 270.319273 C 325.327608 270.319273 371.239747 369.269604 354.637667 639.701003 " stroke="#d1d3d4" stroke-width="1" stroke-opacity="1" stroke-miterlimit="10"/><path stroke-linecap="butt" transform="matrix(0.674097, 0, 0, 0.674068, 0.760252, -36.158794)" fill="none" stroke-linejoin="miter" d="M 331.470088 267.589808 C 331.470088 267.589808 377.480739 369.669461 360.878659 640.089271 " stroke="#d1d3d4" stroke-width="1" stroke-opacity="1" stroke-miterlimit="10"/><path stroke-linecap="butt" transform="matrix(0.674097, 0, 0, 0.674068, 0.760252, -36.158794)" fill="none" stroke-linejoin="miter" d="M 312.677577 275.50004 C 312.677577 275.50004 359.470524 367.38042 342.868444 637.811819 " stroke="#d1d3d4" stroke-width="1" stroke-opacity="1" stroke-miterlimit="10"/><path stroke-linecap="butt" transform="matrix(0.674097, 0, 0, 0.674068, 0.760252, -36.158794)" fill="none" stroke-linejoin="miter" d="M 435.770554 276.577917 C 435.770554 276.577917 478.489763 367.652787 450.101075 637.099029 " stroke="#d1d3d4" stroke-width="1" stroke-opacity="1" stroke-miterlimit="10"/><path stroke-linecap="butt" transform="matrix(0.674097, 0, 0, 0.674068, 0.760252, -36.158794)" fill="none" stroke-linejoin="miter" d="M 443.871674 280.060737 C 443.871674 280.060737 484.301939 365.641908 455.907457 635.08815 " stroke="#d1d3d4" stroke-width="1" stroke-opacity="1" stroke-miterlimit="10"/><path stroke-linecap="butt" transform="matrix(0.674097, 0, 0, 0.674068, 0.760252, -36.158794)" fill="none" stroke-linejoin="miter" d="M 452.221969 284.238962 C 452.221969 284.238962 491.307843 362.240218 462.919156 631.680666 " stroke="#d1d3d4" stroke-width="1" stroke-opacity="1" stroke-miterlimit="10"/><path stroke-linecap="butt" transform="matrix(0.674097, 0, 0, 0.674068, 0.760252, -36.158794)" fill="none" stroke-linejoin="miter" d="M 429.61069 279.09876 C 429.61069 279.09876 472.069133 369.657871 443.680445 639.098319 " stroke="#d1d3d4" stroke-width="1" stroke-opacity="1" stroke-miterlimit="10"/><path fill="#ae8578" d="M 275.589844 122.929688 C 275.589844 122.929688 281.90625 121.722656 288.949219 124.597656 C 288.949219 124.597656 295.375 124.046875 300.894531 125.933594 C 300.894531 125.933594 299.136719 136.011719 289.367188 137.191406 C 279.601562 138.378906 274.753906 128.832031 275.597656 122.929688 Z M 275.589844 122.929688 " fill-opacity="1" fill-rule="nonzero"/><path fill="#803435" d="M 277.03125 123.816406 C 277.03125 123.816406 275.941406 132.789062 287.617188 134.089844 C 298.21875 135.269531 299.191406 127.289062 299.191406 127.289062 C 299.191406 127.289062 287.183594 126.492188 277.03125 123.816406 Z M 277.03125 123.816406 " fill-opacity="1" fill-rule="nonzero"/><path fill="#ffffff" d="M 278.46875 124.109375 C 278.46875 124.109375 280.921875 127.742188 290.007812 128.3125 C 290.007812 128.3125 295.523438 130.058594 298.183594 127.355469 C 298.183594 127.355469 286.515625 126.3125 278.46875 124.109375 Z M 278.46875 124.109375 " fill-opacity="1" fill-rule="nonzero"/><path fill="#dcbf97" d="M 574.605469 264.972656 C 574.605469 264.972656 564.648438 299.9375 546.339844 323.328125 C 546.339844 323.328125 524.242188 335.589844 442.359375 349.320312 L 438.363281 350.363281 L 415.066406 354.644531 C 415.066406 354.644531 401.046875 352.84375 398.597656 352.230469 C 396.152344 351.617188 395.496094 347.386719 395.496094 347.386719 C 386.652344 347.453125 388.136719 342.207031 388.136719 342.207031 L 384.09375 342.894531 C 384.09375 342.894531 376.71875 342.425781 381.152344 338.273438 C 385.589844 334.121094 403.128906 330.238281 403.128906 330.238281 C 403.128906 330.238281 398.714844 328.503906 397.78125 322.457031 C 396.851562 316.414062 403.351562 320.855469 403.351562 320.855469 C 403.351562 320.855469 410.839844 325.222656 419.839844 326.605469 C 427.449219 327.769531 431.378906 332.941406 431.378906 332.941406 L 434.644531 331.566406 L 520.355469 297.355469 L 540.261719 257.75 C 540.261719 257.75 555.480469 268.871094 574.605469 264.96875 Z M 574.605469 264.972656 " fill-opacity="1" fill-rule="nonzero"/><path stroke-linecap="butt" transform="matrix(0.674097, 0, 0, 0.674068, 0.760252, -36.158794)" fill="none" stroke-linejoin="miter" d="M 574.67752 561.328864 L 602.927132 556.072761 " stroke="#754c29" stroke-width="1" stroke-opacity="1" stroke-miterlimit="10"/><path stroke-linecap="butt" transform="matrix(0.674097, 0, 0, 0.674068, 0.760252, -36.158794)" fill="none" stroke-linejoin="miter" d="M 585.589113 569.007294 C 585.589113 569.007294 595.567746 570.618315 605.89986 565.872176 " stroke="#754c29" stroke-width="1" stroke-opacity="1" stroke-miterlimit="10"/><path stroke-linecap="butt" transform="matrix(0.674097, 0, 0, 0.674068, 0.760252, -36.158794)" fill="none" stroke-linejoin="miter" d="M 611.90906 540.159578 C 605.50002 540.930318 596.912137 543.567062 596.912137 543.567062 C 596.912137 543.567062 588.527073 538.977389 589.30937 530.788996 C 590.091667 522.600602 602.179604 532.347862 602.179604 532.347862 C 602.179604 532.347862 613.502628 537.192517 621.690669 538.177674 C 629.878711 539.168626 638.808486 547.577231 638.808486 547.577231 L 683.909354 528.442004 " stroke="#754c29" stroke-width="1" stroke-opacity="1" stroke-miterlimit="10"/><path fill="#be9e7d" d="M 359.765625 340.023438 C 359.765625 340.023438 370.503906 342.695312 377.378906 346.785156 C 384.253906 350.878906 401.902344 361.296875 404.957031 355.273438 C 404.957031 355.273438 422.570312 361.515625 422.117188 353.5 C 422.117188 353.5 426.410156 353.046875 424.957031 347.714844 C 424.957031 347.714844 428.164062 341.765625 421.808594 341.378906 C 415.445312 341.003906 395.128906 326.609375 395.128906 326.609375 C 395.128906 326.609375 392.761719 321.589844 400.046875 321.332031 C 407.328125 321.078125 410.117188 318.625 411.277344 314.976562 C 412.4375 311.328125 411.582031 307.71875 407.941406 309.132812 C 404.300781 310.546875 397.019531 313.371094 392.941406 311.96875 C 388.863281 310.566406 378.597656 315.171875 378.597656 315.171875 C 378.597656 315.171875 373.386719 319.425781 364.199219 314.34375 " fill-opacity="1" fill-rule="nonzero"/><path stroke-linecap="butt" transform="matrix(0.674097, 0, 0, 0.674068, 0.760252, -36.158794)" fill="none" stroke-linejoin="miter" d="M 629.281847 569.482487 C 629.281847 569.482487 629.629535 575.607846 597.509001 558.361803 " stroke="#603913" stroke-width="1" stroke-opacity="1" stroke-miterlimit="10"/><path stroke-linecap="butt" transform="matrix(0.674097, 0, 0, 0.674068, 0.760252, -36.158794)" fill="none" stroke-linejoin="miter" d="M 625.069033 578.070738 C 625.069033 578.070738 607.458659 576.349611 589.981566 566.677687 " stroke="#603913" stroke-width="1" stroke-opacity="1" stroke-miterlimit="10"/><path stroke-linecap="butt" transform="matrix(0.674097, 0, 0, 0.674068, 0.760252, -36.158794)" fill="none" stroke-linejoin="miter" d="M 599.612511 580.701687 C 599.612511 580.701687 591.291189 577.740421 586.301873 575.248553 " stroke="#603913" stroke-width="1" stroke-opacity="1" stroke-miterlimit="10"/><path fill="#be9e7d" d="M 255.277344 245.816406 C 259.324219 257.753906 270.566406 264.664062 274.792969 281.265625 C 274.792969 281.265625 328.382812 298.253906 368.371094 315.460938 C 368.371094 315.460938 368.492188 337.226562 359.796875 340.464844 C 359.796875 340.464844 293.285156 335.75 252.183594 321.441406 C 241.667969 317.78125 225.355469 298.253906 212.199219 280.484375 " fill-opacity="1" fill-rule="nonzero"/><path stroke-linecap="butt" transform="matrix(0.674097, 0, 0, 0.674068, 0.760252, -36.158794)" fill="none" stroke-linejoin="miter" d="M 406.958847 470.682827 C 406.958847 470.682827 394.627529 476.002675 390.490047 499.298741 " stroke="#603913" stroke-width="1" stroke-opacity="1" stroke-miterlimit="10"/><path stroke-linecap="butt" transform="matrix(0.674097, 0, 0, 0.674068, 0.760252, -36.158794)" fill="none" stroke-linejoin="miter" d="M 490.102526 499.588493 L 545.338486 521.632831 C 545.338486 521.632831 552.332801 525.648794 564.380174 520.108735 C 576.427547 514.568675 583.931803 516.527399 583.931803 516.527399 " stroke="#603913" stroke-width="1" stroke-opacity="1" stroke-miterlimit="10"/><path stroke-linecap="butt" transform="matrix(0.674097, 0, 0, 0.674068, 0.760252, -36.158794)" fill-opacity="1" fill="#e6e7e8" fill-rule="nonzero" stroke-linejoin="miter" d="M 281.831897 306.277504 C 281.831897 306.277504 354.492798 332.082823 385.037148 412.88888 C 385.037148 412.88888 351.091255 457.02971 300.838816 476.72126 " stroke="#6d6e71" stroke-width="1" stroke-opacity="1" stroke-miterlimit="10"/></svg>