<?xml version="1.0" encoding="UTF-8"?>
<svg xmlns="http://www.w3.org/2000/svg" viewBox="0 0 1335.08 998.97">
  <defs>
    <style>
      .cls-1 {
        stroke-width: .8px;
      }

      .cls-1, .cls-2, .cls-3, .cls-4, .cls-5, .cls-6, .cls-7, .cls-8, .cls-9, .cls-10, .cls-11, .cls-12, .cls-13, .cls-14, .cls-15, .cls-16, .cls-17, .cls-18, .cls-19 {
        stroke-miterlimit: 10;
      }

      .cls-1, .cls-6, .cls-7, .cls-10, .cls-11, .cls-12, .cls-13, .cls-14, .cls-17, .cls-18, .cls-19 {
        fill: none;
      }

      .cls-1, .cls-6, .cls-10, .cls-17 {
        stroke: #231f20;
      }

      .cls-2 {
        stroke-width: .3px;
      }

      .cls-2, .cls-20, .cls-4 {
        fill: #fff;
      }

      .cls-2, .cls-13 {
        stroke: #6d6e71;
      }

      .cls-21 {
        fill: #f7daa6;
      }

      .cls-22 {
        fill: #f9edde;
      }

      .cls-23 {
        fill: #01a04c;
      }

      .cls-24 {
        fill: #eeece8;
      }

      .cls-25 {
        fill: #efaf9e;
      }

      .cls-26, .cls-16 {
        fill: #eae1d3;
      }

      .cls-27, .cls-3 {
        fill: #e6e7e8;
      }

      .cls-28 {
        fill: #f6ac1b;
      }

      .cls-29 {
        fill: #fbc5b3;
      }

      .cls-30 {
        fill: #803435;
      }

      .cls-31 {
        fill: #87664d;
      }

      .cls-32 {
        fill: #b19074;
      }

      .cls-33 {
        fill: #ae8578;
      }

      .cls-34 {
        fill: #b1dcc4;
      }

      .cls-35 {
        fill: #a97c50;
      }

      .cls-36 {
        fill: #a3d7bb;
      }

      .cls-37 {
        fill: #be9e7d;
      }

      .cls-38 {
        fill: #bfbfbf;
      }

      .cls-39 {
        fill: #dad0c1;
      }

      .cls-40 {
        fill: #d1d3d4;
      }

      .cls-41 {
        fill: #e2c799;
      }

      .cls-42 {
        fill: #c49a6c;
      }

      .cls-43 {
        fill: #d5b79f;
      }

      .cls-44, .cls-9 {
        fill: #dcbf97;
      }

      .cls-45 {
        fill: #d4d5d6;
      }

      .cls-46, .cls-15 {
        fill: #e0d5c6;
      }

      .cls-47 {
        fill: #c6837e;
      }

      .cls-48 {
        fill: #0f3e5d;
      }

      .cls-49 {
        fill: #808285;
      }

      .cls-50 {
        fill: #26130f;
      }

      .cls-3 {
        stroke: #58595b;
        stroke-width: .2px;
      }

      .cls-4, .cls-5, .cls-8, .cls-9, .cls-17, .cls-18, .cls-19 {
        stroke-width: .5px;
      }

      .cls-4, .cls-7, .cls-9, .cls-12, .cls-19 {
        stroke: #603913;
      }

      .cls-5 {
        fill: #fff200;
      }

      .cls-5, .cls-8, .cls-18 {
        stroke: #fff;
      }

      .cls-6, .cls-7 {
        stroke-width: .7px;
      }

      .cls-8 {
        fill: #754c29;
      }

      .cls-11 {
        stroke: #d1d3d4;
      }

      .cls-14 {
        stroke: #cfe5ae;
      }

      .cls-15 {
        stroke: #e0d5c6;
        stroke-width: 1.5px;
      }

      .cls-16 {
        stroke: #8b5e3c;
        stroke-width: 3px;
      }
    </style>
  </defs>
  <g id="Layer_2" data-name="Layer 2">
    <rect class="cls-36" x=".23" width="1333.64" height="936.16"/>
    <g>
      <path class="cls-24" d="M461.73,499.57v-159.1s2.82-43.31,76.98-43.31h639.41s50.68,2.8,45.61,42.89v297.12H488.44l-26.71-137.6Z"/>
      <rect class="cls-46" x="384.91" y="786.19" width="921.71" height="93.02"/>
      <rect class="cls-31" x="415.42" y="878.06" width="63.25" height="54.05"/>
      <rect class="cls-31" x="1217.18" y="878.06" width="63.25" height="54.05"/>
      <path class="cls-46" d="M443.23,499.4h53.77s28.69,6.88,28.69,31.28v111.16h-92s9.54-142.44,9.54-142.44Z"/>
      <path class="cls-46" d="M1248.04,499.4h-53.77s-28.69,6.88-28.69,31.28v111.16h92l-9.54-142.44Z"/>
      <rect class="cls-24" x="375.11" y="499.4" width="108.52" height="166.02" rx="7.12" ry="7.12"/>
      <rect class="cls-24" x="1202.42" y="499.4" width="108.52" height="166.02" rx="7.12" ry="7.12"/>
      <rect class="cls-24" x="352.26" y="632.51" width="980.65" height="153.69" rx="4.21" ry="4.21"/>
      <line class="cls-15" x1="356.48" y1="632.51" x2="1328.7" y2="632.51"/>
    </g>
    <rect class="cls-22" y="930.38" width="1335.08" height="68.59"/>
    <g>
      <rect class="cls-42" x="610.97" y="24.33" width="121.84" height="141.68"/>
      <rect class="cls-26" x="621.52" y="33.69" width="102.95" height="123.45"/>
      <g>
        <path class="cls-25" d="M656.8,77.64s-15.48-25.96,.75-31.7c0,0,20.97-2.25,6.99,31.2l-2.5,4.74-5.24-4.24Z"/>
        <path class="cls-25" d="M661.7,77.64s10.45-28.36,25.12-19.36c0,0,14.93,14.89-19.86,25.06l-5.26,1.04v-6.74Z"/>
        <path class="cls-25" d="M667.3,82.72s25.78-15.77,31.71,.39c0,0,2.48,20.94-31.12,7.34l-4.77-2.44,4.18-5.29Z"/>
        <path class="cls-25" d="M670.2,87.12s28.25,10.75,19.09,25.32c0,0-15.04,14.78-24.85-20.12l-.99-5.27,6.74,.07Z"/>
        <path class="cls-25" d="M661.82,92.79s19.42,23.16,4.31,31.41c0,0-20.34,5.56-11.87-29.69l1.71-5.08,5.85,3.35Z"/>
        <path class="cls-25" d="M661.38,96.73s-10.63,28.29-25.24,19.19c0,0-14.84-14.98,20.02-24.93l5.26-1.01-.05,6.74Z"/>
        <path class="cls-25" d="M654.26,94.18s-27.38,12.81-31.47-3.91c0,0-.14-21.09,31.74-3.84l4.47,2.96-4.75,4.79Z"/>
        <path class="cls-25" d="M653.65,84.67s-29.58-6.19-22.82-22.01c0,0,12.54-16.95,27.69,15.98l1.8,5.05-6.67,.98Z"/>
        <circle class="cls-28" cx="661.27" cy="87.28" r="9.19"/>
      </g>
      <g>
        <path class="cls-29" d="M692.32,96.69s-11.8-19.79,.57-24.16c0,0,15.98-1.71,5.33,23.78l-1.9,3.62-4-3.23Z"/>
        <path class="cls-29" d="M696.06,96.69s7.97-21.62,19.15-14.75c0,0,11.38,11.35-15.14,19.1l-4.01,.79v-5.14Z"/>
        <path class="cls-29" d="M700.32,100.56s19.65-12.02,24.17,.3c0,0,1.89,15.96-23.72,5.59l-3.64-1.86,3.19-4.03Z"/>
        <path class="cls-29" d="M702.53,103.91s21.53,8.19,14.55,19.3c0,0-11.47,11.26-18.94-15.34l-.75-4.02,5.14,.06Z"/>
        <path class="cls-29" d="M696.15,108.24s14.8,17.65,3.29,23.95c0,0-15.51,4.24-9.05-22.63l1.3-3.87,4.46,2.56Z"/>
        <path class="cls-29" d="M695.81,111.24s-8.11,21.56-19.24,14.63c0,0-11.31-11.42,15.26-19l4.01-.77-.04,5.14Z"/>
        <path class="cls-29" d="M690.38,109.29s-20.87,9.76-23.99-2.98c0,0-.11-16.07,24.2-2.93l3.41,2.25-3.62,3.65Z"/>
        <path class="cls-29" d="M689.92,102.04s-22.55-4.72-17.4-16.78c0,0,9.56-12.92,21.11,12.18l1.37,3.85-5.09,.75Z"/>
        <circle class="cls-28" cx="695.73" cy="104.04" r="7"/>
      </g>
    </g>
    <g>
      <circle class="cls-16" cx="1022.46" cy="87.86" r="64.33"/>
      <polyline class="cls-35" points="1020.29 87.86 1022.95 48.69 1025.13 90.13"/>
      <line class="cls-4" x1="965.84" y1="88.18" x2="976.4" y2="88.18"/>
      <line class="cls-4" x1="1068.61" y1="88.18" x2="1079.17" y2="88.18"/>
      <line class="cls-4" x1="1022.85" y1="31.16" x2="1022.85" y2="41.72"/>
      <line class="cls-4" x1="1022.85" y1="133.93" x2="1022.85" y2="144.49"/>
      <polygon class="cls-35" points="1025.18 90.28 1002.66 101.26 1019.96 87.3 1025.18 90.28"/>
    </g>
    <g>
      <rect class="cls-34" x="298.4" y="199.24" width="103.08" height="102.45"/>
      <path class="cls-49" d="M344.62,209.65s-6.54,29.74-37.12,35.86v-36.09l37.12,.23Z"/>
      <path class="cls-49" d="M353.95,209.65s6.54,29.74,37.12,35.86v-36.09s-37.12,.23-37.12,.23Z"/>
      <path class="cls-49" d="M344.62,291.25s-6.54-29.74-37.12-35.86v36.09l37.12-.23Z"/>
      <path class="cls-49" d="M353.95,291.25s6.54-29.74,37.12-35.86v36.09s-37.12-.23-37.12-.23Z"/>
      <path class="cls-49" d="M349.29,222.2s-6.2,17.84-28.01,27.51c0,0,26.02,11.15,28.01,28.75,0,0,8.43-21.07,28.5-28.01,0,0-19.83-10.16-28.5-28.25Z"/>
    </g>
    <g>
      <rect class="cls-34" x="200.52" y="199.24" width="103.08" height="102.45"/>
      <path class="cls-49" d="M246.74,209.65s-6.54,29.74-37.12,35.86v-36.09l37.12,.23Z"/>
      <path class="cls-49" d="M256.08,209.65s6.54,29.74,37.12,35.86v-36.09s-37.12,.23-37.12,.23Z"/>
      <path class="cls-49" d="M246.74,291.25s-6.54-29.74-37.12-35.86v36.09l37.12-.23Z"/>
      <path class="cls-49" d="M256.08,291.25s6.54-29.74,37.12-35.86v36.09s-37.12-.23-37.12-.23Z"/>
      <path class="cls-49" d="M251.41,222.2s-6.2,17.84-28.01,27.51c0,0,26.02,11.15,28.01,28.75,0,0,8.43-21.07,28.5-28.01,0,0-19.83-10.16-28.5-28.25Z"/>
    </g>
    <g>
      <rect class="cls-34" x="102.64" y="199.24" width="103.08" height="102.45"/>
      <path class="cls-49" d="M148.87,209.65s-6.54,29.74-37.12,35.86v-36.09l37.12,.23Z"/>
      <path class="cls-49" d="M158.2,209.65s6.54,29.74,37.12,35.86v-36.09s-37.12,.23-37.12,.23Z"/>
      <path class="cls-49" d="M148.87,291.25s-6.54-29.74-37.12-35.86v36.09l37.12-.23Z"/>
      <path class="cls-49" d="M158.2,291.25s6.54-29.74,37.12-35.86v36.09s-37.12-.23-37.12-.23Z"/>
      <path class="cls-49" d="M153.53,222.2s-6.2,17.84-28.01,27.51c0,0,26.02,11.15,28.01,28.75,0,0,8.43-21.07,28.5-28.01,0,0-19.83-10.16-28.5-28.25Z"/>
    </g>
    <g>
      <rect class="cls-34" x="6.97" y="199.24" width="103.08" height="102.45"/>
      <path class="cls-49" d="M53.19,209.65s-6.54,29.74-37.12,35.86v-36.09l37.12,.23Z"/>
      <path class="cls-49" d="M62.52,209.65s6.54,29.74,37.12,35.86v-36.09s-37.12,.23-37.12,.23Z"/>
      <path class="cls-49" d="M53.19,291.25s-6.54-29.74-37.12-35.86v36.09l37.12-.23Z"/>
      <path class="cls-49" d="M62.52,291.25s6.54-29.74,37.12-35.86v36.09s-37.12-.23-37.12-.23Z"/>
      <path class="cls-49" d="M57.86,222.2s-6.2,17.84-28.01,27.51c0,0,26.02,11.15,28.01,28.75,0,0,8.43-21.07,28.5-28.01,0,0-19.83-10.16-28.5-28.25Z"/>
    </g>
    <g>
      <rect class="cls-34" x="298.4" y="100.55" width="103.08" height="102.45"/>
      <path class="cls-49" d="M344.62,110.96s-6.54,29.74-37.12,35.86v-36.09l37.12,.23Z"/>
      <path class="cls-49" d="M353.95,110.96s6.54,29.74,37.12,35.86v-36.09s-37.12,.23-37.12,.23Z"/>
      <path class="cls-49" d="M344.62,192.56s-6.54-29.74-37.12-35.86v36.09l37.12-.23Z"/>
      <path class="cls-49" d="M353.95,192.56s6.54-29.74,37.12-35.86v36.09s-37.12-.23-37.12-.23Z"/>
      <path class="cls-49" d="M349.29,123.51s-6.2,17.84-28.01,27.51c0,0,26.02,11.15,28.01,28.75,0,0,8.43-21.07,28.5-28.01,0,0-19.83-10.16-28.5-28.25Z"/>
    </g>
    <g>
      <rect class="cls-34" x="200.52" y="100.55" width="103.08" height="102.45"/>
      <path class="cls-49" d="M246.74,110.96s-6.54,29.74-37.12,35.86v-36.09l37.12,.23Z"/>
      <path class="cls-49" d="M256.08,110.96s6.54,29.74,37.12,35.86v-36.09s-37.12,.23-37.12,.23Z"/>
      <path class="cls-49" d="M246.74,192.56s-6.54-29.74-37.12-35.86v36.09l37.12-.23Z"/>
      <path class="cls-49" d="M256.08,192.56s6.54-29.74,37.12-35.86v36.09s-37.12-.23-37.12-.23Z"/>
      <path class="cls-49" d="M251.41,123.51s-6.2,17.84-28.01,27.51c0,0,26.02,11.15,28.01,28.75,0,0,8.43-21.07,28.5-28.01,0,0-19.83-10.16-28.5-28.25Z"/>
    </g>
    <g>
      <rect class="cls-34" x="102.64" y="100.55" width="103.08" height="102.45"/>
      <path class="cls-49" d="M148.87,110.96s-6.54,29.74-37.12,35.86v-36.09l37.12,.23Z"/>
      <path class="cls-49" d="M158.2,110.96s6.54,29.74,37.12,35.86v-36.09s-37.12,.23-37.12,.23Z"/>
      <path class="cls-49" d="M148.87,192.56s-6.54-29.74-37.12-35.86v36.09l37.12-.23Z"/>
      <path class="cls-49" d="M158.2,192.56s6.54-29.74,37.12-35.86v36.09s-37.12-.23-37.12-.23Z"/>
      <path class="cls-49" d="M153.53,123.51s-6.2,17.84-28.01,27.51c0,0,26.02,11.15,28.01,28.75,0,0,8.43-21.07,28.5-28.01,0,0-19.83-10.16-28.5-28.25Z"/>
    </g>
    <g>
      <rect class="cls-34" x="6.97" y="100.55" width="103.08" height="102.45"/>
      <path class="cls-49" d="M53.19,110.96s-6.54,29.74-37.12,35.86v-36.09l37.12,.23Z"/>
      <path class="cls-49" d="M62.52,110.96s6.54,29.74,37.12,35.86v-36.09s-37.12,.23-37.12,.23Z"/>
      <path class="cls-49" d="M53.19,192.56s-6.54-29.74-37.12-35.86v36.09l37.12-.23Z"/>
      <path class="cls-49" d="M62.52,192.56s6.54-29.74,37.12-35.86v36.09s-37.12-.23-37.12-.23Z"/>
      <path class="cls-49" d="M57.86,123.51s-6.2,17.84-28.01,27.51c0,0,26.02,11.15,28.01,28.75,0,0,8.43-21.07,28.5-28.01,0,0-19.83-10.16-28.5-28.25Z"/>
    </g>
    <g>
      <rect class="cls-34" x="298.4" y="2.79" width="103.08" height="102.45"/>
      <path class="cls-49" d="M344.62,13.2s-6.54,29.74-37.12,35.86V12.97l37.12,.23Z"/>
      <path class="cls-49" d="M353.95,13.2s6.54,29.74,37.12,35.86V12.97s-37.12,.23-37.12,.23Z"/>
      <path class="cls-49" d="M344.62,94.8s-6.54-29.74-37.12-35.86v36.09l37.12-.23Z"/>
      <path class="cls-49" d="M353.95,94.8s6.54-29.74,37.12-35.86v36.09s-37.12-.23-37.12-.23Z"/>
      <path class="cls-49" d="M349.29,25.75s-6.2,17.84-28.01,27.51c0,0,26.02,11.15,28.01,28.75,0,0,8.43-21.07,28.5-28.01,0,0-19.83-10.16-28.5-28.25Z"/>
    </g>
    <g>
      <rect class="cls-34" x="200.52" y="2.79" width="103.08" height="102.45"/>
      <path class="cls-49" d="M246.74,13.2s-6.54,29.74-37.12,35.86V12.97l37.12,.23Z"/>
      <path class="cls-49" d="M256.08,13.2s6.54,29.74,37.12,35.86V12.97s-37.12,.23-37.12,.23Z"/>
      <path class="cls-49" d="M246.74,94.8s-6.54-29.74-37.12-35.86v36.09l37.12-.23Z"/>
      <path class="cls-49" d="M256.08,94.8s6.54-29.74,37.12-35.86v36.09s-37.12-.23-37.12-.23Z"/>
      <path class="cls-49" d="M251.41,25.75s-6.2,17.84-28.01,27.51c0,0,26.02,11.15,28.01,28.75,0,0,8.43-21.07,28.5-28.01,0,0-19.83-10.16-28.5-28.25Z"/>
    </g>
    <g>
      <rect class="cls-34" x="102.64" y="2.79" width="103.08" height="102.45"/>
      <path class="cls-49" d="M148.87,13.2s-6.54,29.74-37.12,35.86V12.97l37.12,.23Z"/>
      <path class="cls-49" d="M158.2,13.2s6.54,29.74,37.12,35.86V12.97s-37.12,.23-37.12,.23Z"/>
      <path class="cls-49" d="M148.87,94.8s-6.54-29.74-37.12-35.86v36.09l37.12-.23Z"/>
      <path class="cls-49" d="M158.2,94.8s6.54-29.74,37.12-35.86v36.09s-37.12-.23-37.12-.23Z"/>
      <path class="cls-49" d="M153.53,25.75s-6.2,17.84-28.01,27.51c0,0,26.02,11.15,28.01,28.75,0,0,8.43-21.07,28.5-28.01,0,0-19.83-10.16-28.5-28.25Z"/>
    </g>
    <g>
      <rect class="cls-34" x="6.97" y="2.79" width="103.08" height="102.45"/>
      <path class="cls-49" d="M53.19,13.2s-6.54,29.74-37.12,35.86V12.97l37.12,.23Z"/>
      <path class="cls-49" d="M62.52,13.2s6.54,29.74,37.12,35.86V12.97s-37.12,.23-37.12,.23Z"/>
      <path class="cls-49" d="M53.19,94.8s-6.54-29.74-37.12-35.86v36.09l37.12-.23Z"/>
      <path class="cls-49" d="M62.52,94.8s6.54-29.74,37.12-35.86v36.09s-37.12-.23-37.12-.23Z"/>
      <path class="cls-49" d="M57.86,25.75s-6.2,17.84-28.01,27.51c0,0,26.02,11.15,28.01,28.75,0,0,8.43-21.07,28.5-28.01,0,0-19.83-10.16-28.5-28.25Z"/>
    </g>
  </g>
  <g id="Layer_1" data-name="Layer 1">
    <g>
      <path class="cls-8" d="M156.37,897.31s-7.09,12.41-2.36,28.95c0,0,13,17.14,57.91,12.41,0,0,35.45,21.27,76.81,9.45,0,0,34.27-8.27,7.09-30.73,0,0-35.45-27.18-65-32.5,0,0-23.64,23.64-74.45,12.41Z"/>
      <path class="cls-8" d="M119.83,910.76s-7.24,12.67-2.41,29.56c0,0,13.27,17.49,59.12,12.67,0,0,36.19,21.72,78.42,9.65,0,0,34.99-8.45,7.24-31.37,0,0-36.19-27.75-66.36-33.18,0,0-24.13,24.13-76.01,12.67Z"/>
      <path class="cls-37" d="M324.25,348.35s-3.89,15.99,.57,30.95c0,0,2.39,6.01,1,18.48-1.39,12.47-3.24,78.41-10.62,120.68,0,0-4.18,31.32,1.01,42.43,5.19,11.11-3.17,23.07-3.17,23.07,0,0-11.18,26.58-21.3,27.37l19.99-261.26,12.53-1.71Z"/>
      <path class="cls-37" d="M177.46,173.06s-.84,17.17-11.22,37.06c0,0-26,75.58,50.21,89.45,0,0,41.3-32.23,35.71-70.77-.62-4.3-6.13-8.87-7.76-13.55l-66.95-42.19Z"/>
      <path class="cls-32" d="M95.49,480.51s99.61,57.35,209.21,5.94l-18.63,213.27s.61,39-6.7,75.63c-7.31,36.63-16.44,121.72-16.44,121.72,0,0-20.7,11.82-52.36,3.55,0,0-36.14,39.03-96.42,8.31,0,0-14.98-76.62-5.85-117.99,0,0,4.77-31.67,2.34-62.4,0,0-38.9-197.82-15.15-248.04Z"/>
      <path class="cls-12" d="M213.35,900.62s11.59-178.01,.58-258.41c0,0,14.44-11.92,20.49-37.62"/>
      <g>
        <polygon class="cls-38" points="157.84 211.4 166.24 210.12 164.68 219.59 157.84 211.4"/>
        <path class="cls-27" d="M150.73,220.41s-45.87,13.07-69.49,37.18c0,0-21.17,17.82-24.77,42.91,0,0-10.56,65.97,15.88,105.2,0,0,7.8,8.38,19.85,6.77l-9.64,139.01s28.87,37.88,142.36,39.35c0,0,46.65,.55,70.79-24.05,0,0,21.67-71.83,19.94-172.08,0,0,2.14,2.27,11.08-1.41l-3.75-88.61s-.96-30.64-31.18-51.43c0,0-22.87-17.09-39.88-24.02l-33.1,24.15-3.05,44.93-13.32-38.43s-1.86-11.19-51.71-39.47Z"/>
        <path class="cls-45" d="M150.73,220.41s43.18,25.18,51.71,39.47l-1.18-14.16s-32.02-19.76-43.42-34.33l-7.11,9.01Z"/>
        <path class="cls-45" d="M236.34,219.7s16.19-.51,15.57,9.53l-33.1,24.15-1.07-8.37s15.61-7.48,25.85-19.58c0,0-6.87-.89-7.26-5.73Z"/>
        <path class="cls-13" d="M215.76,298.31s10.87,93.67,9.15,292.52"/>
        <ellipse class="cls-40" cx="206.34" cy="303.87" rx="2.58" ry="2.68"/>
        <ellipse class="cls-40" cx="212.89" cy="348.83" rx="2.58" ry="2.68"/>
        <ellipse class="cls-40" cx="216.12" cy="397.51" rx="2.58" ry="2.68"/>
        <ellipse class="cls-40" cx="217.02" cy="441.92" rx="2.58" ry="2.68"/>
        <ellipse class="cls-40" cx="218.33" cy="497.76" rx="2.58" ry="2.68"/>
        <ellipse class="cls-40" cx="218.96" cy="557.61" rx="2.58" ry="2.68"/>
        <path class="cls-40" d="M140.24,328.17l2.22,39.99s22.88,22.01,46.65,0v-43.69s-16.29,9.63-48.87,3.7Z"/>
        <path class="cls-40" d="M246.87,328.17l2.22,39.99s22.88,22.01,46.65,0v-43.69s-16.29,9.63-48.87,3.7Z"/>
        <path class="cls-40" d="M138.76,501.47l2.52,45.32s25.93,24.94,52.87,0v-49.51s-18.46,10.91-55.39,4.2Z"/>
        <path class="cls-40" d="M242.58,501.47l2.52,45.32s25.93,24.94,52.87,0v-49.51s-18.46,10.91-55.39,4.2Z"/>
        <path class="cls-11" d="M136.44,226.4s45.68,93.76,29.39,359.22"/>
        <path class="cls-11" d="M142.65,224.15s45.06,97.14,28.77,362.6"/>
        <path class="cls-11" d="M148.68,221.47s45.16,100.2,28.87,365.66"/>
        <path class="cls-11" d="M130.23,229.23s45.93,90.19,29.64,355.65"/>
        <path class="cls-11" d="M250.96,229.38s42.03,90.31,14.17,354.8"/>
        <path class="cls-11" d="M259.01,233.71s39.69,84.01,11.82,348.51"/>
        <path class="cls-11" d="M267.21,237.81s38.37,76.57,10.51,341.06"/>
        <path class="cls-11" d="M244.63,231.93s42.06,89.72,14.2,354.22"/>
      </g>
      <path class="cls-37" d="M72.34,405.71s58.43,58.45,88.55,27.73,33.93-161.08,33.93-161.08c-17.13-8.86-23.83-11.26-23.83-11.26,0,0-40.74,69.43-54.36,121.64"/>
      <path class="cls-13" d="M130.83,333.05s-.59-29.54-14.18-44.89"/>
      <path class="cls-37" d="M279.22,87.84s10.18,16.61,4.94,54.74c0,0-2.17,9.1-1.49,14.13,.68,5.03-1.53,12.87-2.03,18.49-2.78,31.79-18.21,39.91-18.21,39.91,0,0-5.14,10.03-23.25,9.1-18.1-.94-35.41-7.94-41.44-15.97-6.03-8.03-19.19-21.97-20.07-33.79,0,0-10.89,1.78-14.46-11.42,0,0-10.44-20.81,1.57-25.31,12.01-4.5,17.76,12.09,17.76,12.09,0,0-15.18-48.19,12.66-65.05,0,0,38.89-25.65,84,3.09Z"/>
      <path class="cls-27" d="M240.7,125.95s-15.74-1.54-27.75,6.43c0,0,4.48-11.3,27.29-10.93,0,0,4.17,2.11,.46,4.5Z"/>
      <path class="cls-27" d="M283.78,138.12c-7.8-7.76-13.99-8.27-13.99-8.27-2.32-3.75,2.35-3.87,2.35-3.87,6.47,2.95,10.84,6.16,13.8,9.18,0,0-1.73,3.39-2.16,2.96Z"/>
      <path class="cls-1" d="M163.57,146.25s5.18-6.07,9.23,1.28c4.06,7.34,4.04,9.62,4.04,9.62,0,0-5.68-11.57-9.52-3.32"/>
      <path class="cls-3" d="M160.64,139.54s9.43-7.19,15.29,2.27c5.85,9.46,4.41,13.45,4.41,13.45l6.03,.37s-17.27-33.08,3.79-44.25c0,0-2.67-24.18,15.71-26.27,18.38-2.09,28.48-19.33,75.52,6.54,0,0,6.45-26.78-41.93-37.7,0,0-32.69-7.76-43.6,8.35,0,0-22.13,.5-30.41,29.09-8.28,28.59-4.8,48.15-4.8,48.15Z"/>
      <path class="cls-50" d="M240.34,224.17s-11.33,.73-29.23-6.4c0,0-9.76-3.19-18.83-15.95,0,0,12.88,18.96,32.04,22.84,.1,.02-.1-.02,0,0,.88,.17,11.17,2.81,19.28,.78,0,0-2.87-.77-3.26-1.27Z"/>
      <path class="cls-17" d="M229.01,104.88s13.97,3.24,20.49,5.56c6.52,2.32,26.53-.5,26.53-.5"/>
      <path class="cls-27" d="M241.71,172.96s-9.93,5.75-17.52,6.21c0,0,.98,3.03,4.19,2.87,0,0,12.9-1.24,19.66,2.7,0,0,9.37-1.02,17.58,2.17,0,0,.9,.76,2.81,.6,0,0-8.09-7.45-7.4-10.86,0,0-7.89,2.92-12.91-3.21,0,0-2.4,.87-6.4-.48Z"/>
      <path class="cls-1" d="M256.46,148.08l6.29,19.58s2.39,10.66-6.08,9.87c-7.03-.66-7.21-2.89-7.21-2.89"/>
      <path class="cls-17" d="M220.43,184.05s-.49-8.07,4.44-9.54c4.93-1.47,8.13-10.57,8.13-10.57"/>
      <g>
        <path class="cls-20" d="M220.75,138.35s.03-.42,.37-.73c1.12-1.06,3.65-2.99,7.34-2.68,4.14,.36,6.08,4.44,6.74,5.89,.11,.25,.08,.46,.08,.46,0,0,0,.23-.16,.38-.73,.71-3.11,2.66-7.03,2.38-2.33-.16-5.5-1.7-7.25-5.04-.12-.23-.11-.51-.09-.66Z"/>
        <circle class="cls-50" cx="229.21" cy="139.82" r="4.29"/>
        <circle class="cls-20" cx="226.59" cy="138.72" r="1.18"/>
        <path class="cls-6" d="M235.45,140.86s-4.18-10.3-14.49-3.29"/>
      </g>
      <g>
        <path class="cls-20" d="M268.62,146.08s-.03-.39,.24-.74c.89-1.14,2.97-3.31,6.45-3.54,3.9-.26,6.29,3.26,7.11,4.51,.14,.22,.14,.42,.14,.42,0,0,.03,.22-.09,.38-.57,.76-2.51,2.92-6.2,3.22-2.19,.18-5.36-.79-7.46-3.65-.15-.2-.17-.46-.18-.6Z"/>
        <circle class="cls-50" cx="276.7" cy="146.23" r="4.02"/>
        <circle class="cls-20" cx="273.98" cy="145.65" r="1.13"/>
        <path class="cls-6" d="M282.48,146.45s-5.1-9.56-13.74-.94"/>
      </g>
      <path class="cls-50" d="M244.39,120.5s2.53,3.14,.51,6.14c0,0,3.87-3.01-.51-6.14Z"/>
      <path class="cls-50" d="M269.19,124.2s-3.11,2.49-1.75,5.79c0,0-3.18-3.69,1.75-5.79Z"/>
      <g>
        <path class="cls-33" d="M262.92,194.13s-5.06-9.88-14.86-9.08c0,0-5.96-6.2-22.19,3.5,0,0,3.72,9.21,18.37,11.3s18.67-5.73,18.67-5.73Z"/>
        <path class="cls-30" d="M261.5,194.18s-12.2-11.39-33.79-4.97c0,0,10.73,2.92,15.26,5.42s8.42,.36,8.42,.36c0,0,5.22-1.58,10.11-.81Z"/>
        <path class="cls-20" d="M255.51,190.51s-7.83-4.22-17.62-2.92l17.62,2.92Z"/>
      </g>
      <g>
        <path class="cls-41" d="M158.98,92.68s9.85-31.67,15.39-39.53c5.54-7.85,66.53-21.62,85.93-8.22,0,0,3.7,6.47,2.77,9.24"/>
        <path class="cls-21" d="M160.56,126.71s-45.05,4.17-46.69-1.41c-3.8-12.98,26.24-24.87,26.24-24.87,0,0,71.72-30.85,97.61-42.97,19.61-9.18,65.07-24.09,74.77-2.84,9.7,21.25-28.64,45.73-28.64,45.73,0,0-77-9.1-123.3,17.59,0,0-1.25,5.01,0,8.76Z"/>
        <path class="cls-10" d="M283.86,100.36s35.39-28.53,13.12-41.23c-17.91-10.21-48.26,3.28-78.96,22.17-30.7,18.89-77.14,31.49-77.14,31.49,0,0-18.88,12.11,19.69,13.93"/>
      </g>
      <path class="cls-37" d="M171.15,258.01c-.87-17.47,9.62-57.58,9.62-57.58l21.26-14.52c1.75,1.43,.49,3.91,.49,3.91l7.84-4.09c3.12,4.51-3.01,11.75-3.01,11.75l8.29-6.06c4,3.67-1.15,11.14-1.15,11.14l-11.6,11.53-1.18,17.35,2.22-6.75,15.75-16.11c8.78,5.45-8.48,23.64-8.48,23.64,0,0-3.16,12.41-3.77,25.74-.61,13.33-9.33,10.66-9.33,10.66,0,0-2.3,1.09-3.28,3.73-.97,2.64,0,0,0,0l-23.83-11.26,.16-3.08Z"/>
      <path class="cls-19" d="M190.23,225.48l2.67-17.2,22.74-16.86c4.12,4.14-1.15,11.14-1.15,11.14l-11.6,11.53-1.18,17.35,2.22-6.75,15.75-16.11c8.64,5.08-8.48,23.64-8.48,23.64l-3.61,20.21s-.31,9.34-2.45,13.63"/>
      <path class="cls-19" d="M207.35,197.49s7.6-7.06,3.01-11.75l-23.97,15.03-2.32,14.37"/>
      <path class="cls-19" d="M174.52,228.24s3.21-17.18,6.26-27.81l21.26-14.52s1.7,1.06,.49,3.91"/>
    </g>
    <g>
      <g>
        <path class="cls-43" d="M605.55,637.36s8.17-24.27-18.93-42.8c-27.1-18.53-54.32-48.14-60.19-39.2l-2.27,15.94,27.2,44.67,32.27,21.14,21.93,.25Z"/>
        <path class="cls-44" d="M634.82,576.11s-21.25,8.49-50.21,.37l-15.99-2.63-9.31-3.09-13.15-8.25s-6.19-8.68-9.61-7.86c-3.42,.82-5.35,.53-5.52,7.27,0,0-2.32,4.61,1.13,6.92,0,0-1.36,4.75,3.61,9.1,0,0-1.67,3.55,3.75,8.13,0,0-.52,3.55,2.84,5.36,0,0,11.98,17.25,22.68,18.49,10.7,1.24,26.28,16.38,26.28,16.38l16.41,2.74s23.83-18.6,36.83-17.35l-9.76-35.58Z"/>
        <path class="cls-39" d="M605.55,637.36s-7.9-.68-14.74-7.48c-6.84-6.8-27.88-16.69-27.88-16.69,0,0-33.13-15.76-36.5-57.82l-13.29,9.3s6.61,43.22,41.35,61.94c0,0,23.69,15.06,29.38,22.71,0,0,10.29-1.69,21.67-11.95Z"/>
        <path class="cls-20" d="M574.09,618.88s17.26-15.85,10.52-42.4l-15.99-2.63s9.42,15.1-5.69,39.34l11.15,5.69Z"/>
        <path class="cls-20" d="M552.2,605.62s13.88-16.35,7.12-34.86l-13.15-8.25s4.13,14.96-5.1,30.85c0,0,.39,4.68,11.13,12.26Z"/>
        <path class="cls-20" d="M626.14,618.96s-33.28,8.18-49.41,1.63l22.86,15.6s8.08-.11,26.55-17.23Z"/>
        <path class="cls-20" d="M636.56,612.33l-12.56-34.17-16.18,1.32s2.93,19.58,15.19,40.18c0,0-4.44,5.15,13.55-7.33Z"/>
        <path class="cls-19" d="M546.13,566.52l-7.35-3.71s-4.09-3.2-7.74-.89"/>
        <path class="cls-19" d="M546.76,571.61s-11.57-6.8-13.53-4.14l-1.06,1.38"/>
        <path class="cls-19" d="M546.27,578.31s-6.56-3.94-10.49-.36"/>
        <path class="cls-19" d="M544.65,585.34s-3.31-2.14-5.11,.74"/>
        <path class="cls-2" d="M606.19,633.69s13.21-5.13,19.18-13.45l3.43-2.63"/>
      </g>
      <path class="cls-44" d="M1233.35,495.65s-30.3,11.38-31.16,24.93c0,0-47.54,44.99-83.59-9.17,0,0,1.73,2.01,32.09-31.32,0,0,11.48,.07,21.35-14.9,6.6-10.01-2.17-2.79-2.17-2.79l63.48,33.25"/>
      <path class="cls-44" d="M1249.92,480.72s49.4-43.89,15.56-83.43c0,0-24.07-30.18-65.26,5.6,0,0-5.53,7.1-10.08,8.83,0,0-12.81,6.8-19.24,17.7-9.65,16.37-11.25,29.06-11.25,29.06,0,0-.86,10.38,7.39,21.04,0,0,6.1,7.25,19.65,11.89,0,0,29.8,15.27,42.87,2.92,0,0,1.87,13.29,22.17,4.78,0,0,19.16-5.34,17.13-12.72-2.57-9.31-9.13-8.26-18.94-5.69Z"/>
      <path class="cls-50" d="M1236.63,428.61s11.71,15.32,8.95,25.34c0,0,6.89-9.22-4.98-27.28,0,0-3.9-2.52-3.97,1.94Z"/>
      <path class="cls-50" d="M1205.65,396.97c.8-.67,9.22,3.42,16.02,8.93,0,0,2.12,4.14-2.32,3.76,0,0-11.27-11.93-15.75-8.6,0,0,.07-2.43,2.05-4.09Z"/>
      <path class="cls-1" d="M1194.37,443.44c-6.71-11.07,7.87-11.86,7.87-11.86"/>
      <path class="cls-1" d="M1257.14,494.71s6.83-11.58-14.99-6.43c0,0,12.1,.79,7.05,6.73"/>
      <path class="cls-50" d="M1163.62,474.2s1.66,4.22,12.17,12.24c0,0,11.22,7.21,24.19,10.05,0,0-19.58-1.1-32.42-13.57,0,0-2.9-2.31-5.31-6.88,0,0,.11-.42,1.37-1.85Z"/>
      <path class="cls-47" d="M1198,468.96s1.3-8.17-8.06-13.06c0,0-4.09-7.34-13.4-6.29,0,0-2.24,6.17,6.31,13.77,7.28,6.48,11.12,8.24,15.15,5.57Z"/>
      <g>
        <path class="cls-20" d="M1236.6,452.92s.32-.24,.41-.67c.3-1.44,.6-4.49-1.52-7.34-2.38-3.19-6.69-2.72-8.2-2.52-.26,.03-.42,.16-.42,.16,0,0-.19,.12-.23,.32-.21,.95-.6,3.88,1.61,6.94,1.31,1.82,4.16,3.63,7.77,3.37,.25-.02,.47-.17,.59-.26Z"/>
        <circle class="cls-50" cx="1231.13" cy="446.75" r="4.12"/>
        <circle class="cls-20" cx="1230.17" cy="449.7" r="1.13"/>
        <path class="cls-6" d="M1227.13,442.2s10.51-1.79,10,10.16"/>
      </g>
      <g>
        <path class="cls-20" d="M1206.51,417.47s.33-.17,.48-.57c.48-1.3,1.2-4.09-.37-7.04-1.75-3.31-5.83-3.48-7.27-3.52-.25,0-.41,.09-.41,.09,0,0-.19,.09-.26,.27-.33,.85-1.11,3.52,.5,6.68,.96,1.88,3.35,3.97,6.74,4.25,.24,.02,.46-.09,.58-.16Z"/>
        <circle class="cls-50" cx="1202.31" cy="410.95" r="3.86"/>
        <circle class="cls-20" cx="1201.12" cy="413.58" r="1.08"/>
        <path class="cls-6" d="M1199.21,406.35s10.37-.66,7.7,10.73"/>
      </g>
      <path class="cls-50" d="M1167.43,435.8c6.06-14.18,20.97-23.2,20.97-23.2,0,0,3.15-1.32,8.6-5.15,5.42-3.81,5.75-5.87,10.73-9.08,0,0,16.67,13.13,41.6,15.6,0,0,19.1,10.76,8.21-.05,0,0,10.01-.4,18.54,21.03,0,0-23.12,23-26.16,45.76,0,0,16.7-3.39,18.94,5.69,2.24,9.08-24.06,13.62-24.06,13.62,0,0-13.24,5.67-14.53-5.65,0,0-13.62,4.69-23.2,16.63,0,0,2.74,1.19,8.57,1.29,0,0-7.08,2.46-13.84,1.73,0,0,16.4,12.72,32.96,1.87,0,0,5.24-4.22,9.31-.7,4.06,3.52,23.33-2.74,35.46-13.74,12.13-10.99,47.67-55.39,25.79-84.55,0,0-5.51-20.66-32.95-30.63-27.44-9.97-28.67-5.71-66.65-2.34,0,0-8.34-5.7-8.88,14.6,0,0-15.65,7.12-10.06,6.19,0,0-15.58,8.17-16.36,18.43,0,0,3.29-4.15,9.87-9.26,0,0-15.74,10.09-16.12,29.29"/>
      <path class="cls-14" d="M1248.01,454.4s-6.37-17.49-21.27-26.34c0,0-19.8,13-9.19,27.4,0,0,14.89,17.8,30.46-1.06Z"/>
      <path class="cls-14" d="M1219.84,419.07s-5.11-15.62-19.53-21.59c0,0-19.27,10.13-8.66,24.53,0,0,12.62,15.92,28.19-2.94Z"/>
      <path class="cls-14" d="M1219.84,419.07s6.5,3.19,6.9,8.99"/>
      <line class="cls-14" x1="1246.82" y1="452.42" x2="1257.26" y2="478.69"/>
      <line class="cls-5" x1="1234.63" y1="495.7" x2="1223.94" y2="504.3"/>
      <polygon class="cls-18" points="1223.62 506.89 1224.94 503.7 1221.6 504.59 1218.97 502.34 1218.78 505.8 1215.83 507.61 1219.06 508.85 1219.87 512.21 1222.05 509.53 1225.5 509.8 1223.62 506.89"/>
      <path class="cls-50" d="M1305.34,416.92s-.69-29.48-25.92-36.6c0,0-10.73,1.9-17.13-9.91-3.38-6.24-12.99-.72-12.99-.72,0,0-5.65,7.41-10.37,.48,0,0-11.46-8.15-22.36,3.51-10.9,11.66-20.65,7.35-20.65,7.35,0,0-9.3-2.8-13.8,5.45,0,0-2.1,6.65-6.03,6.91-3.93,.26-5.8-3.61-5.8-3.61,0,0,.37,7.15,8.93,6.47,8.56-.68,14.6-3.46,14.6-3.46,0,0-9.36,3.8-12.42,8.74,0,0-1.81,1.87-7.9,.98-6.1-.89-8.45,3.9-8.45,3.9,0,0,5.58-2.83,7.9-.98,2.32,1.86,4.29,2.76,4.29,2.76,0,0-4.81,9.03-6.8,14.97-.83,2.47-4.97,5.17-10.26,1.15-5.3-4.02-11.77,8.16-11.77,8.16,0,0,8.85-7.34,11.28-2.26,2.43,5.08,6.74,1.57,6.74,1.57,0,0,5.92-10.14,17.28-17.62l21.15-19.49s8.08,7.99,15.34,10.84c0,0,18.82,8.5,29.14,8.46,0,0-13.12-1.62-16.23,.11-6.98,3.89-13.78-1.5-13.78-1.5,0,0,6.67,10.13,12.2,7.2,9.86-5.22,15.43,2.63,15.43,2.63,0,0,4.98,9.7,15.6,9.02,10.62-.68,13.52,3.52,13.52,3.52,0,0,21.48,4.38,29.26-18.04Z"/>
      <path class="cls-50" d="M1177.24,408.2s-1.32,4.72-7.23,6.17c-5.92,1.45-8.74-1.47-12.24,1.81-3.5,3.28-5.6,14.18-5.6,14.18,0,0,2.79-8.86,8.48-10.6,5.68-1.74,9.79,3.41,9.79,3.41"/>
      <path class="cls-48" d="M623.92,577.38s1.26,30.83,3.85,41.67c2.59,10.84,86.48,27.45,142.7,10.69,0,0,84.76,9.85,115.89,16.75,0,0,77.39,15.37,109.99,.9,0,0-28.69-78.74-9.67-120.12l-45.84-18.72s-85.71-101.98-123.67-92.62c-47.89,11.81-83.82,141.39-83.82,141.39,0,0-64.46,6.27-109.43,20.06Z"/>
      <path class="cls-10" d="M733.35,557.32s47.09-8.43,65.25-6.46c0,0,8.86,1.92,14.24,1.04,26.66-4.36,103.02-19.66,135.41-18.02"/>
      <path class="cls-24" d="M812.85,551.9l9.51-30.54s11.24,22.66,17.3,25.62l-26.81,4.93Z"/>
      <path class="cls-23" d="M983.84,527.57s23.5-17.23,43.01-25.81c19.51-8.58,37-31.03,87.85-24.56,0,0,26.93,4.73,36,2.89,0,0-1.39,28.06,17.62,32.54,19.01,4.48,33.88,7.95,33.88,7.95l2.13,21.08s8.47,41.14-5.65,77.45c-8.17,21-61.72,13.31-65.75,6.45,.06-3.25-.98-30.4-.76-24.58,.59,15.77-94.86,42.24-135.82,46.4,0,0-32.24-80.04-12.51-119.82Z"/>
      <path class="cls-1" d="M1176.54,449.62s13.17,6.94,21.46,19.34"/>
      <path class="cls-44" d="M1193.84,625.97s-3.23,38.72-21.39,66.55l-38.49,68.64s-7.85,13.27-5.77,22.78c0,0,.95,19.41-10.66,26.18,0,0-13.99,19.25-41.24,20.16,0,0-5.83-6.61,7.61-11.83,0,0,16.11-6.99,13.43-22.47,0,0-4.02-5.97-6.58,2.2-2.56,8.17-8.05,20.75-14.84,16.83s.92-16.02,.92-16.02c0,0,4.41-11.45,6.16-20.21,0,0,5.86-14.57,17.8-19.41l33.09-104.53-.54-27.66s28.64,12.1,60.51-1.21Z"/>
      <path class="cls-7" d="M1076.28,830.28s27.42-6.92,30.08-30.73"/>
      <path class="cls-7" d="M1105.59,820.81s9.64-10.97,10.63-22.71"/>
      <path class="cls-9" d="M1022.67,502.86s-8.63-1.31-10.64,5.94c-1.6,5.77,2.3,17,5.05,20.22,0,0,10.11-1.84,9.19-5.97-.92-4.14-6.36-10.99-3.6-20.18Z"/>
      <path class="cls-9" d="M995.5,516.29s-8.45,2.3-8.06,7.29,1.92,14.2,4.22,16.89c0,0,8.45-1.54,7.68-4.99s-6.14-11.52-3.84-19.19Z"/>
      <path class="cls-9" d="M1013.75,504.52s-10.85,2.96-10.35,9.37c.49,6.41,2.47,18.24,5.42,21.69,0,0,10.85-1.97,9.86-6.41-.99-4.44-7.89-14.79-4.93-24.65Z"/>
      <path class="cls-9" d="M1004.42,510.27s-10.11,2.76-9.65,8.73,2.3,17,5.05,20.22c0,0,10.11-1.84,9.19-5.97s-7.35-13.78-4.59-22.97Z"/>
    </g>
  </g>
</svg>