<?xml version="1.0" encoding="UTF-8"?>
<svg xmlns="http://www.w3.org/2000/svg" viewBox="0 0 1334.6 999.99">
  <defs>
    <style>
      .cls-1 {
        stroke: #fbb040;
        stroke-width: 1.5px;
      }

      .cls-1, .cls-2, .cls-3, .cls-4, .cls-5, .cls-6, .cls-7, .cls-8, .cls-9, .cls-10, .cls-11, .cls-12, .cls-13, .cls-14, .cls-15, .cls-16, .cls-17, .cls-18, .cls-19, .cls-20, .cls-21 {
        stroke-miterlimit: 10;
      }

      .cls-1, .cls-2, .cls-3, .cls-4, .cls-5, .cls-6, .cls-7, .cls-8, .cls-9, .cls-11, .cls-12, .cls-14, .cls-15, .cls-16, .cls-19, .cls-20, .cls-21 {
        fill: none;
      }

      .cls-2 {
        stroke-width: 12px;
      }

      .cls-2, .cls-20 {
        stroke: #754c29;
      }

      .cls-3 {
        stroke: #d1d3d4;
      }

      .cls-3, .cls-4, .cls-17, .cls-18 {
        stroke-width: 6px;
      }

      .cls-4, .cls-17 {
        stroke: #fff;
      }

      .cls-5 {
        stroke: #3c2415;
      }

      .cls-5, .cls-6 {
        stroke-width: .4px;
      }

      .cls-6 {
        stroke: #603913;
      }

      .cls-7 {
        stroke: #c16b7b;
      }

      .cls-7, .cls-8, .cls-9 {
        stroke-width: .8px;
      }

      .cls-8 {
        stroke: #662d91;
      }

      .cls-9, .cls-12, .cls-14, .cls-16, .cls-19 {
        stroke: #231f20;
      }

      .cls-22 {
        fill: #f7daa6;
      }

      .cls-23 {
        fill: #f7d9a4;
      }

      .cls-24 {
        fill: #ec6b8a;
      }

      .cls-25 {
        fill: #e6e7e8;
      }

      .cls-26 {
        fill: #f7941d;
      }

      .cls-27 {
        fill: #f6ac1b;
      }

      .cls-28 {
        fill: #fff;
      }

      .cls-29 {
        fill: #fbb040;
      }

      .cls-30 {
        fill: #803435;
      }

      .cls-31 {
        fill: #b56e5b;
      }

      .cls-32 {
        fill: #8b5e3c;
      }

      .cls-33 {
        fill: #9054a2;
      }

      .cls-34 {
        fill: #b1dcc4;
      }

      .cls-35, .cls-10, .cls-13, .cls-18 {
        fill: #a97c50;
      }

      .cls-36 {
        fill: #bcbec0;
      }

      .cls-37 {
        fill: #be9e7d;
      }

      .cls-38 {
        fill: #be8c8c;
      }

      .cls-39 {
        fill: #d1d3d4;
      }

      .cls-40 {
        fill: #dcbf97;
      }

      .cls-41 {
        fill: #231f20;
      }

      .cls-42 {
        fill: #092f44;
      }

      .cls-43 {
        fill: #9adaf2;
      }

      .cls-44 {
        fill: #2bb673;
      }

      .cls-45 {
        fill: #3c2415;
      }

      .cls-46 {
        fill: #26130f;
      }

      .cls-10 {
        stroke-width: 2px;
      }

      .cls-10, .cls-13, .cls-18, .cls-21 {
        stroke: #a97c50;
      }

      .cls-11 {
        stroke: #939598;
        stroke-width: 5px;
      }

      .cls-12 {
        stroke-width: .7px;
      }

      .cls-13, .cls-19, .cls-20, .cls-21 {
        stroke-width: .5px;
      }

      .cls-14 {
        stroke-width: .2px;
      }

      .cls-15 {
        stroke: #ef4136;
      }

      .cls-16 {
        stroke-width: .6px;
      }

      .cls-17 {
        fill: #d9f0f7;
      }
    </style>
  </defs>
  <g id="Layer_1" data-name="Layer 1">
    <rect class="cls-34" width="1333.89" height="886.76"/>
    <rect class="cls-23" x=".9" y="876.85" width="1333.7" height="123.13"/>
    <g>
      <rect class="cls-17" x="66.79" y="67.39" width="422.35" height="371.59"/>
      <line class="cls-18" x1="18.13" y1="54.18" x2="537.77" y2="54.18"/>
      <circle class="cls-10" cx="14.26" cy="53.57" r="6.83"/>
      <circle class="cls-10" cx="544.8" cy="54.48" r="6.83"/>
      <path class="cls-27" d="M33.52,43.56l-.79,428.92s16.68,14.3,42.89,5.56v-18.27s23.83,6.35,37.33,0v15.09s24.62,9.53,32.57,.79l-16.68-280.39,8.74-151.71-42.89,.79-9.53,2.38-15.89-3.18H33.52Z"/>
      <path class="cls-27" d="M530.18,43.56l.79,428.92s-16.68,14.3-42.89,5.56v-18.27s-23.83,6.35-37.33,0v15.09s-24.62,9.53-32.57,.79l16.68-280.39-8.74-151.71,42.89,.79,9.53,2.38,15.89-3.18h35.74Z"/>
      <line class="cls-15" x1="75.62" y1="459.77" x2="67.44" y2="291.02"/>
      <line class="cls-15" x1="112.95" y1="459.77" x2="109.13" y2="301.19"/>
      <line class="cls-15" x1="69.26" y1="43.56" x2="66.37" y2="210.88"/>
      <line class="cls-15" x1="85.15" y1="46.74" x2="87.4" y2="296.59"/>
      <line class="cls-15" x1="450.75" y1="459.77" x2="451.27" y2="308.72"/>
      <line class="cls-15" x1="488.08" y1="459.77" x2="490.89" y2="263.44"/>
      <line class="cls-15" x1="469.02" y1="44.36" x2="469.06" y2="187.43"/>
      <line class="cls-15" x1="494.43" y1="43.56" x2="494.94" y2="222.2"/>
      <line class="cls-4" x1="278.37" y1="65.63" x2="278.37" y2="438.14"/>
      <line class="cls-3" x1="284.03" y1="70.5" x2="284.03" y2="434.87"/>
    </g>
    <g>
      <polyline class="cls-2" points="965.03 877.06 965.03 60.83 1328.11 60.83 1328.11 877.06"/>
      <polygon class="cls-35" points="1322.04 66.15 1120.27 37.12 1120.27 906.6 1324.94 877.57 1322.04 66.15"/>
      <rect class="cls-32" x="1101.81" y="36.95" width="20.32" height="869.4"/>
      <g>
        <ellipse class="cls-29" cx="1155.26" cy="488.05" rx="15.49" ry="17.77"/>
        <path class="cls-26" d="M1173.59,470.24l-9.65,.98s-10.19,1.43-10.41,15.13c-.26,15.98,6.22,18.99,8.71,19.06l11.35,.37"/>
        <path class="cls-26" d="M1160.5,477.21h-7.31s-10.81,11.02-.5,21.46l7.8,.19"/>
        <ellipse class="cls-29" cx="1173.59" cy="488" rx="15.49" ry="17.77"/>
      </g>
      <rect class="cls-45" x="1106.73" y="472" width="6.72" height="32.15"/>
      <rect class="cls-43" x="971.12" y="67.78" width="129.53" height="804.11"/>
      <path class="cls-44" d="M969.84,683.37s55.15-14.11,74.38-7.69,56.43,10.26,56.43,10.26v191.38l-129.53-.48-1.28-193.46Z"/>
    </g>
    <g>
      <path class="cls-40" d="M609.73,690s19.43,12.71,25.41,21.3c0,0,22.32-.78,34.27,1.46,0,0,3,8.04,0,14.02,0,0-29.42,8.8-39.14,6.56s-25.13-7.27-25.13-7.27"/>
      <path class="cls-40" d="M538.88,687.92c-8.07-10.6-36-25.51-36-25.51-1.22-14.69-18.36-39.17-18.36-39.17,0,0-5.42,15.84-21.94,12.78,0,0,18.27,45.37,28.68,51.49s37.95,30.6,37.95,30.6"/>
      <path class="cls-40" d="M574.58,910.22s1.32,.23,1.48-4.83c0,0,7.76,2.46,17.74,1.54,0,0,.94,4.78,6.96,6.53,0,0,8.56,3.6,2.22,8.36-6.34,4.76-25.97-3.84-25.97-3.84l-2.43-7.76Z"/>
      <path class="cls-24" d="M574.58,910.22s-4.62,6.97-2.31,11.69c0,0,2.31,7.22,19.51,4.98,0,0,25.19,8.09,26.22-3.93,0,0,1.5-7.27-17.24-9.51,0,0,8.51,7.72-5.9,5.72,0,0-15.91-.25-20.28-8.96Z"/>
      <path class="cls-40" d="M546.61,912.12s1.32,.23,1.48-4.83c0,0,7.76,2.46,17.74,1.54,0,0,.94,4.78,6.96,6.53,0,0,8.56,3.6,2.22,8.36-6.34,4.76-25.97-3.84-25.97-3.84l-2.43-7.76Z"/>
      <path class="cls-25" d="M530.54,765.54s-7.45,19.54-4.81,39.67c0,0,7.36,35.32,11.62,42.47,0,0-.11,28.71,10.74,59.6,0,0,10.26,5.91,18.5,1.43l7.95-43.14,.03,7.99,1.5,31.83s6.02,8.98,17.74,1.54l14.69-50.3s3.08-10.78,2.27-17.05l-2.93-67.17s-45.55,15.52-77.29-6.86Z"/>
      <path class="cls-24" d="M546.61,912.12s-4.62,6.97-2.31,11.69c0,0,2.31,7.22,19.51,4.98,0,0,25.19,8.09,26.22-3.93,0,0,1.5-7.27-17.24-9.51,0,0,8.51,7.72-5.9,5.72,0,0-15.91-.25-20.28-8.96Z"/>
      <path class="cls-7" d="M574.53,865.57s2.92-1.88,4.08-22.15c1.16-20.27,.41-38.53,.41-38.53"/>
      <path class="cls-40" d="M552.29,656.37s4.67,11.83,.62,22.1c0,0,9.03,28.33,30.2,26.77,0,0,14.94,.62,10.9-22.73,0,0-5.92-.93-6.23-7.16l-35.49-18.99Z"/>
      <path class="cls-40" d="M551.04,642.98s-5.6-9.03-10.9-5.92c-5.29,3.11-.93,14.32-.93,14.32,0,0,6.23,9.34,13.08,4.98,0,0,7.7,18.49,33,21.17,0,0,10.6,1.81,19.28-8.73,8.37-10.16,4.89-27.83,4.89-27.83,0,0,1.36-2.97,1.36-13.87s-3.11-23.66-17.12-28.33c-14.01-4.67-22.73-6.54-36.11,3.74s-6.54,40.47-6.54,40.47Z"/>
      <path class="cls-38" d="M584.51,658.46s3.71-1.05,8.33-.09c0,0,3.68-.3,7.37,.52,0,0,.53,5.03-5.69,6.49-6.22,1.47-10.13-3.05-10.02-6.92Z"/>
      <path class="cls-30" d="M585.1,658.72s-.06,5.86,7.56,5.86c6.92,0,6.98-5.22,6.98-5.22,0,0-7.8,.35-14.54-.65Z"/>
      <path class="cls-41" d="M581.15,628.45s-6.03-1.6-11.07,1.72c0,0-2.83-1.11,.98-2.83s6.64-2.83,10.33-.98c0,0,1.6,1.35-.25,2.09Z"/>
      <path class="cls-41" d="M601.44,628.7s3.81-2.09,8.85,1.23c0,0,1.99-1.09,0-2.34-2.95-1.84-5.04-2.09-9.1-.98,0,0-1.6,1.35,.25,2.09Z"/>
      <path class="cls-33" d="M514.51,708.02c3.64-8.45,11.39-32.33,11.39-32.33,0,0,13.63,3.01,26.95,2.04,2.05-.15,11.85,10.6,24.64,11.21,12.79,.61,11.45-8.92,11.45-8.92,2.49-2.1,5.83,1.29,5.83,1.29,17.3,3.55,29.04,18.71,29.04,18.71l-18.66,26.07,2.68,46.32c-27.74,30.07-79.67-2.11-79.67-2.11,0,0,3.94-46.86-2.36-55.52"/>
      <path class="cls-28" d="M586.15,658.83s1.93,2.78,7.96,2.48c0,0,3.72,.19,5.28-1.79,0,0-7.77,.17-13.24-.69Z"/>
      <path class="cls-8" d="M605.15,726.08s.7-.07-2.32-13.14"/>
      <path class="cls-46" d="M588.09,677.62s-5.83,.81-14.78-2.81c0,0-3.3-.75-9.8-5.11,0,0,4.7,4.54,13.95,8.1,0,0,3.89,1.61,11.18,1.6,0,0-.45-.59-.56-1.77Z"/>
      <path class="cls-16" d="M541.28,644.9s2.43-3.69,5.16,.07c2.73,3.76,2.88,5.02,2.88,5.02,0,0-3.91-5.97-5.46-1.18"/>
      <path class="cls-16" d="M597.32,643.98s4.75,7.06-3.53,7.89"/>
      <g>
        <path class="cls-28" d="M573.74,637.74s-.01-.25,.17-.46c.59-.71,1.95-2.05,4.16-2.13,2.48-.09,3.94,2.19,4.43,3,.09,.14,.08,.27,.08,.27,0,0,.01,.14-.07,.24-.38,.47-1.65,1.81-4,1.93-1.4,.07-3.39-.61-4.68-2.46-.09-.13-.1-.3-.1-.39Z"/>
        <circle class="cls-46" cx="578.87" cy="637.99" r="2.57"/>
        <circle class="cls-28" cx="577.24" cy="637.53" r=".7"/>
        <path class="cls-19" d="M582.65,638.15s-3.24-5.81-8.85-.89"/>
      </g>
      <g>
        <path class="cls-28" d="M599.83,638.2s-.05-.23,.09-.45c.44-.73,1.5-2.15,3.52-2.54,2.26-.43,3.92,1.45,4.49,2.13,.1,.12,.11,.23,.11,.23,0,0,.03,.12-.03,.23-.28,.49-1.26,1.89-3.4,2.33-1.27,.26-3.19-.08-4.63-1.59-.1-.11-.14-.26-.15-.34Z"/>
        <circle class="cls-46" cx="604.57" cy="637.7" r="2.37"/>
        <circle class="cls-28" cx="602.93" cy="637.56" r=".66"/>
        <path class="cls-19" d="M607.97,637.41s-3.68-5.23-8.11,.45"/>
      </g>
      <path class="cls-8" d="M525.79,714.77s6.27-2.79,6.27-11.32"/>
      <path class="cls-40" d="M669.41,712.76c1.35-.24,2.7-.53,4.02-.86l13.68-10.03,17.36-2.61s3.46,1.48,.35,3.46c-3.93,2.5-9.87,3.39-9.87,3.39,0,0,3.57,5.6,3.74,7.1,.19,1.7,.01,4.54,.01,4.54,0,0-.57,2.02-1.82,2.03,0,0,1.66,5.83-7.43,2.9,0,0-9.28,6.01-16.1,2.74,0,0-1.45,.53-3.95,1.36"/>
      <path class="cls-20" d="M683.18,704.92s2.67-1.12,6.83,.75c1.97,.88,5.06,4.85,5.06,4.85,0,0-.25,3.84-3.65,2.43s-5.5-2.2-5.5-2.2c0,0-.41,11.6-10.34,7.06"/>
      <path class="cls-20" d="M698.67,713.91s-3.36,2.6-7.75,1.78c0,0-2.74,.99-.66,3.5,0,0,3.14,1.25,6.64,.59"/>
      <path class="cls-20" d="M690.25,719.2s-3.63,1.11-.78,3.49"/>
      <line class="cls-20" x1="697.06" y1="709.65" x2="695.07" y2="710.51"/>
      <path class="cls-20" d="M690.29,712.45s-.77,.61-.7,1.46c.11,1.41,1.33,1.79,1.33,1.79"/>
      <path class="cls-45" d="M543.88,609.39s-8.64,11.7-4.26,27.56c0,0,6.38-3.93,11.46,7.19,0,0,11.12-9.09,13.3-37.41,0,0,25.05,7.16,38.79,.6,0,0,7.16,5.89,7.03,19.58l.7,8.1c4.19-24.04-6.01-35.19-6.01-35.19-17.91-20.04-41.31-11.35-46.28-7.45,0,0-8.39-11.95-21.65-2.17,0,0-7.17,4.13-5.65,10.43,0,0-12.41-5.86-14.7,9.1,0,0-10.14,3.3-4.56,14.96,0,0-6.34,7.35,2.03,13.44,0,0,9.38,7.35,13.69-1.78,0,0,8.37,4.82,7.86-3.8,0,0,9.13,1.01,9.64-7.1,.51-8.12-1.38-16.06-1.38-16.06Z"/>
    </g>
  </g>
  <g id="Layer_2" data-name="Layer 2">
    <g>
      <g>
        <path class="cls-37" d="M428.43,479.65s.42,10,3.33,27.5,24.53,71.03,24.53,71.03v10.19s-14.26,9.68-12.22,24.96c0,0-5.6,8.15-.51,8.15s8.15-8.66,8.15-8.66c0,0,0-15.79,11.21-16.3,11.21-.51,7.94,9.77,7.94,9.77,0,0-3.36,20.79-19.65,14.17,0,0-5.6,3.57,0,5.09,0,0,1.53,5.09,6.62,4.58,0,0-1.02,5.6,4.07,4.58,0,0,1.53,4.58,7.13,3.06s12.73-5.09,12.73-5.09l6.62-17.32s2.55-16.3-6.62-20.88l-2.92-17.75s-2.15-52.97-9.58-82.49c-11.29-44.81-10.09-39.06-10.09-39.06"/>
        <path class="cls-5" d="M451.2,625.54s9.3,2.27,16.54-1.5,12.16-14.77,12.16-14.77"/>
        <polyline class="cls-5" points="457.82 630.12 471.07 628.86 480.51 616.97"/>
        <path class="cls-5" d="M461.9,634.71s11.27-.25,12.84-2,7.34-9.79,7.34-9.79"/>
      </g>
      <path class="cls-32" d="M346.67,881.86s-9.91,15.41-4.95,25.87c0,0,4.95,15.97,41.84,11.01,0,0,48.72,19.18,60.28-8.34,0,0-.82-16.43-41.01-21.39,0,0,4.95,13.21-12.66,12.66,0,0-34.13-.55-43.49-19.82Z"/>
      <path class="cls-37" d="M346.67,881.86s1.58-9.44,4.46-13.55c0,0-5.35-39.47-1.23-58.39,0,0,25.49,5.76,43.17,4.93,0,0-6.17,38.65-8.63,57.97,0,0-1.23,10.69,6.17,11.92l12.22,4.26s6.45,22.05-25.24,12.09c-31.69-9.96-30.92-19.25-30.92-19.25Z"/>
      <path class="cls-37" d="M325.8,247.57s-2.71,35.3-14.03,39.77c0,0,11.16,56.97,60.14,68.71,0,0,31.51-24.92,18.05-59.87,0,0-6.92-5.59-7.64-13.04,0,0-41.44-10.81-56.52-35.57Z"/>
      <path class="cls-42" d="M247.73,491.06s-17.16,179.86-5.62,309.99c0,0,106.42,41.67,198.09,.64,0,0,1.98-208.82-5.75-289.55,0,0-97.59,40-186.72-21.08Z"/>
      <path class="cls-37" d="M323.62,222.34s-5.84-27.4,7.81-44.15c8.33-10.23,28.47-12.32,48.4-13.93,0,0,42.49,.35,32.88,53.79,0,0-2.2,5.36-.76,9.73,0,0,3.13,8.35-1.69,25.57-6.43,22.95-17.87,23.96-17.87,23.96,0,0-1.07,6.51-14.15,6.71,0,0-11.51,2.33-23.24-4.92,0,0-30.64-14.63-29.19-31.51,0,0-12.16,7.31-18.01-12.63,0,0-7.15-34.7,15.83-12.6Z"/>
      <path class="cls-31" d="M361.99,253.46s12.58-4.22,18.21,.07c0,0,3.47-3.56,13.83,.28,0,0,1.1,14.98-14.34,14.93-17.63-.06-17.69-15.27-17.69-15.27Z"/>
      <path class="cls-30" d="M364.41,255.08s1.69,9.8,13.91,9.96c12.21,.16,13.52-9.75,13.52-9.75,0,0-19.93-2.03-27.43-.21Z"/>
      <path class="cls-36" d="M374.81,208.92s-18.59-6.1-27.26-.1c0,0,6.53-9.68,27.79-4.35,0,0,3.72,2.9-.53,4.45Z"/>
      <path class="cls-19" d="M391.74,231.87s8.48,12.71-6.39,14.15"/>
      <path class="cls-28" d="M367.41,254.61s2.86,2.98,12.24,3.2c8.64,.21,11.15-2.65,11.15-2.65,0,0-12.71-1.67-23.39-.55Z"/>
      <path class="cls-19" d="M309.18,227.06s4.51-11.84,13.54,7.26c0,0-7.7-8.44-9.1-1.23"/>
      <path class="cls-12" d="M347.81,216.13l6.03,14.72s8.86,4.67,20.67,1.58l6.2-14.28s-16.12-7.64-32.9-2.03Z"/>
      <path class="cls-32" d="M285.54,891.31s-10.68,16.61-5.34,27.89c0,0,5.34,17.21,45.09,11.87,0,0,52.5,20.67,64.96-8.99,0,0-.88-17.71-44.2-23.05,0,0,5.34,14.24-13.65,13.65,0,0-36.78-.59-46.87-21.36Z"/>
      <path class="cls-46" d="M382.32,283.14s-2.21,1-4.55,.76c0,0-18.02,3.06-36.27-12.97,0,0,5.2,6.02,16.16,11.68,0,0,8.66,4.73,24.78,2.9,0,0-.17-1.42-.12-2.37Z"/>
      <path class="cls-39" d="M345.09,177.47s29.69,11.42,45.99-2.91c0,0,6.59,9.87,22.42,21.86,0,0,2.77,7.72-3.11,26.06,0,0,5.82,14.28-2.15,33.43,0,0-6.42,16.98-15.86,21.39,0,0-4.19,4.5-10.06,5.84,0,0-.27,6.81,4.36,6.23,0,0-.45-3.63,2.04-5.1,0,0,39.64-15.44,32.22-78.38,0,0,20.28-29.81-6.28-47.26-12-7.89-23.82-31.75-52.69-16.61,0,0-40.23-17.19-50.23,22.05,0,0-42.73,13.82-14.3,66.55,0,0-6.56,18.31,11,31.5,2.03,1.52,6.33,8.67,3.48,19.55-.77,2.93,6.94-3.08,9.24-8.79,0,0,4.17-10.28,4.64-25.32,0,0-13.49,4.96-16.7-10.22,0,0-5.66-16.57,.14-19.65,0,0,6.53-3.17,13.88,4.64,0,0,26.17-4.74,21.98-44.87Z"/>
      <path class="cls-36" d="M413.66,203.55c-.45-.98-10.08-.88-18.83,1.24,0,0-3.79,2.91,.5,4.52,0,0,15.74-6.12,18.43-1.05,0,0,1.01-2.29-.1-4.71Z"/>
      <path class="cls-12" d="M386.01,217.4l6.03,14.72s7.79,3.45,19.6,.36l4.86-15.74s-13.71-4.96-30.49,.66Z"/>
      <path class="cls-12" d="M386.01,217.4s-3.23-3.03-5.31,.76"/>
      <line class="cls-12" x1="347.81" y1="216.13" x2="314.12" y2="215.86"/>
      <path class="cls-14" d="M355.46,194.46s13.22,.77,19.51,1.87c6.3,1.09,24.07-4.59,24.07-4.59"/>
      <g>
        <circle class="cls-21" cx="261.77" cy="744.89" r="4.56"/>
        <circle class="cls-21" cx="258.56" cy="761.53" r="4.56"/>
        <circle class="cls-21" cx="265.68" cy="754.12" r="4.56"/>
        <circle class="cls-21" cx="249.5" cy="756.53" r="4.56"/>
        <circle class="cls-21" cx="252.35" cy="747.3" r="4.56"/>
      </g>
      <g>
        <circle class="cls-21" cx="291.12" cy="706.91" r="4.56"/>
        <circle class="cls-21" cx="287.91" cy="723.55" r="4.56"/>
        <circle class="cls-21" cx="295.02" cy="716.14" r="4.56"/>
        <circle class="cls-21" cx="278.84" cy="718.55" r="4.56"/>
        <circle class="cls-21" cx="281.69" cy="709.32" r="4.56"/>
      </g>
      <g>
        <circle class="cls-21" cx="262.2" cy="670.25" r="4.56"/>
        <circle class="cls-21" cx="258.99" cy="686.9" r="4.56"/>
        <circle class="cls-21" cx="266.1" cy="679.48" r="4.56"/>
        <circle class="cls-21" cx="249.93" cy="681.89" r="4.56"/>
        <circle class="cls-21" cx="252.77" cy="672.67" r="4.56"/>
      </g>
      <g>
        <circle class="cls-21" cx="314.69" cy="666.68" r="4.56"/>
        <circle class="cls-21" cx="311.48" cy="683.33" r="4.56"/>
        <circle class="cls-21" cx="318.59" cy="675.91" r="4.56"/>
        <circle class="cls-21" cx="302.42" cy="678.32" r="4.56"/>
        <circle class="cls-21" cx="305.26" cy="669.1" r="4.56"/>
      </g>
      <g>
        <circle class="cls-21" cx="430.4" cy="737.45" r="4.56"/>
        <circle class="cls-21" cx="427.19" cy="754.1" r="4.56"/>
        <circle class="cls-21" cx="434.31" cy="746.68" r="4.56"/>
        <circle class="cls-21" cx="418.13" cy="749.09" r="4.56"/>
        <circle class="cls-21" cx="420.97" cy="739.87" r="4.56"/>
      </g>
      <g>
        <circle class="cls-21" cx="400.26" cy="779.81" r="4.56"/>
        <circle class="cls-21" cx="397.05" cy="796.45" r="4.56"/>
        <circle class="cls-21" cx="404.17" cy="789.04" r="4.56"/>
        <circle class="cls-21" cx="387.99" cy="791.45" r="4.56"/>
        <circle class="cls-21" cx="390.84" cy="782.22" r="4.56"/>
      </g>
      <g>
        <circle class="cls-21" cx="341.21" cy="789.99" r="4.56"/>
        <circle class="cls-21" cx="338" cy="806.64" r="4.56"/>
        <circle class="cls-21" cx="345.11" cy="799.22" r="4.56"/>
        <circle class="cls-21" cx="328.94" cy="801.63" r="4.56"/>
        <circle class="cls-21" cx="331.78" cy="792.41" r="4.56"/>
      </g>
      <g>
        <circle class="cls-21" cx="304.15" cy="768" r="4.56"/>
        <circle class="cls-21" cx="300.94" cy="784.64" r="4.56"/>
        <circle class="cls-21" cx="308.05" cy="777.23" r="4.56"/>
        <circle class="cls-21" cx="291.88" cy="779.64" r="4.56"/>
        <circle class="cls-21" cx="294.72" cy="770.41" r="4.56"/>
      </g>
      <g>
        <circle class="cls-21" cx="350.98" cy="723.61" r="4.56"/>
        <circle class="cls-21" cx="347.77" cy="740.25" r="4.56"/>
        <circle class="cls-21" cx="354.89" cy="732.84" r="4.56"/>
        <circle class="cls-21" cx="338.71" cy="735.25" r="4.56"/>
        <circle class="cls-21" cx="341.56" cy="726.02" r="4.56"/>
      </g>
      <g>
        <circle class="cls-21" cx="397.82" cy="710.98" r="4.56"/>
        <circle class="cls-21" cx="394.61" cy="727.63" r="4.56"/>
        <circle class="cls-21" cx="401.72" cy="720.21" r="4.56"/>
        <circle class="cls-21" cx="385.55" cy="722.62" r="4.56"/>
        <circle class="cls-21" cx="388.39" cy="713.4" r="4.56"/>
      </g>
      <g>
        <circle class="cls-21" cx="374.2" cy="670.66" r="4.56"/>
        <circle class="cls-21" cx="370.99" cy="687.31" r="4.56"/>
        <circle class="cls-21" cx="378.1" cy="679.89" r="4.56"/>
        <circle class="cls-21" cx="361.93" cy="682.3" r="4.56"/>
        <circle class="cls-21" cx="364.77" cy="673.08" r="4.56"/>
      </g>
      <g>
        <circle class="cls-21" cx="428.7" cy="654.45" r="4.56"/>
        <circle class="cls-21" cx="425.49" cy="671.09" r="4.56"/>
        <circle class="cls-21" cx="432.6" cy="663.68" r="4.56"/>
        <circle class="cls-21" cx="416.42" cy="666.09" r="4.56"/>
        <circle class="cls-21" cx="419.27" cy="656.86" r="4.56"/>
      </g>
      <g>
        <circle class="cls-21" cx="430.33" cy="610.05" r="4.56"/>
        <circle class="cls-21" cx="427.12" cy="626.7" r="4.56"/>
        <circle class="cls-21" cx="434.23" cy="619.28" r="4.56"/>
        <circle class="cls-21" cx="418.05" cy="621.69" r="4.56"/>
        <circle class="cls-21" cx="420.9" cy="612.47" r="4.56"/>
      </g>
      <g>
        <circle class="cls-21" cx="381.45" cy="608.83" r="4.56"/>
        <circle class="cls-21" cx="378.24" cy="625.48" r="4.56"/>
        <circle class="cls-21" cx="385.36" cy="618.06" r="4.56"/>
        <circle class="cls-21" cx="369.18" cy="620.47" r="4.56"/>
        <circle class="cls-21" cx="372.02" cy="611.25" r="4.56"/>
      </g>
      <g>
        <circle class="cls-21" cx="351.72" cy="636.12" r="4.56"/>
        <circle class="cls-21" cx="348.51" cy="652.76" r="4.56"/>
        <circle class="cls-21" cx="355.62" cy="645.35" r="4.56"/>
        <circle class="cls-21" cx="339.45" cy="647.76" r="4.56"/>
        <circle class="cls-21" cx="342.29" cy="638.53" r="4.56"/>
      </g>
      <g>
        <circle class="cls-21" cx="316.29" cy="609.65" r="4.56"/>
        <circle class="cls-21" cx="313.08" cy="626.29" r="4.56"/>
        <circle class="cls-21" cx="320.19" cy="618.88" r="4.56"/>
        <circle class="cls-21" cx="304.02" cy="621.29" r="4.56"/>
        <circle class="cls-21" cx="306.86" cy="612.06" r="4.56"/>
      </g>
      <path class="cls-37" d="M285.54,891.31s1.71-10.17,4.81-14.6c0,0-5.76-42.54-1.33-62.92,0,0,27.47,6.2,46.53,5.32,0,0-6.65,41.65-9.31,62.48,0,0-1.33,11.52,6.65,12.85l13.17,4.59s6.95,23.77-27.2,13.03c-34.15-10.73-33.32-20.75-33.32-20.75Z"/>
      <g>
        <path class="cls-28" d="M355.85,220.11s-.02-.36,.24-.67c.85-1.03,2.83-2.98,6.06-3.1,3.61-.13,5.73,3.18,6.45,4.37,.12,.2,.12,.39,.12,.39,0,0,.02,.2-.1,.35-.55,.69-2.4,2.63-5.82,2.81-2.03,.11-4.93-.88-6.8-3.58-.13-.19-.15-.43-.15-.56Z"/>
        <circle class="cls-46" cx="363.32" cy="220.47" r="3.74"/>
        <circle class="cls-28" cx="360.94" cy="219.8" r="1.02"/>
        <path class="cls-9" d="M368.82,220.71s-4.71-8.45-12.87-1.29"/>
      </g>
      <g>
        <path class="cls-28" d="M396.6,221.93s-.07-.33,.13-.66c.64-1.08,2.21-3.17,5.19-3.75,3.34-.64,5.78,2.14,6.62,3.14,.15,.17,.17,.34,.17,.34,0,0,.05,.18-.04,.34-.41,.72-1.86,2.79-5.01,3.44-1.88,.39-4.71-.11-6.84-2.35-.15-.16-.2-.38-.22-.5Z"/>
        <circle class="cls-46" cx="403.6" cy="221.19" r="3.5"/>
        <circle class="cls-28" cx="401.18" cy="220.99" r=".98"/>
        <path class="cls-9" d="M408.61,220.77s-5.43-7.71-11.97,.66"/>
      </g>
      <path class="cls-1" d="M320.3,243.69s-3.98,6.04,.25,9.74c4.23,3.7,2.02-5.31,2.02-5.31"/>
      <path class="cls-22" d="M313.2,285.95s8.61,46.03,46.21,45.4c26.67-.45,29.52-9.97,30.55-35.17,0,0,32.6,8.24,46.53,23.1,13.93,14.86,35.29,82.65,30.65,125.37,0,0-2.79,23.22-32.5,41.79,0,0,6.62,66.89,5.63,90.56,0,0-11.21,19.96-61.35,19.96l-11.14-74.29,.93,73.37s-88.69,12.04-130.62-8.23c0,0,3.31-42.24-2.26-47.5-1.61-1.52,39.51-54.32,36.56-63.92,0,0-35.45-7.43-62.38-26.93,0,0,2.21-157.81,103.21-163.5Z"/>
      <path class="cls-21" d="M272.37,476.37s15.46-45.69,8.57-90.24"/>
      <path class="cls-21" d="M434.63,486.44s.1-75.91-11.56-96.06"/>
      <circle class="cls-13" cx="356.44" cy="359.87" r="6.86"/>
      <circle class="cls-13" cx="358.29" cy="411.16" r="6.86"/>
      <circle class="cls-13" cx="357.82" cy="465.03" r="6.86"/>
      <g>
        <path class="cls-40" d="M470.35,607.51s4.41-3.31,2.02-6.62-9.01-4.78-9.01-4.78c0,0-12.14,2.21-11.59,12.14,0,0-.92,8.83-1.84,11.22,0,0,1.66,6.07,7.36,5.89,5.7-.18,7.91-.92,7.91-.92,0,0,1.29-.18,.74-1.66,0,0,5.52,1.84,6.62-1.66s-1.66-3.5-1.66-3.5c0,0,3.31-.37,2.76-2.76s-3.31-3.5-3.31-3.5c0,0,2.02-2.39,0-3.86Z"/>
        <path class="cls-5" d="M465.93,622.78s-10-.16-13.11-5.86"/>
        <path class="cls-5" d="M470.9,617.63s-12.2-.02-15.66-5.2"/>
        <path class="cls-5" d="M470.35,611.37s-12.69-1.19-14.76-4.47"/>
        <path class="cls-5" d="M470.35,607.51s-7.51-.26-7.68-3.55,1.73-3.45,1.73-3.45"/>
      </g>
      <g>
        <g>
          <line class="cls-11" x1="303.04" y1="623.67" x2="295.85" y2="973.31"/>
          <rect class="cls-41" x="286.3" y="960.93" width="19.61" height="13.5" rx="1.81" ry="1.81"/>
          <rect class="cls-41" x="281.43" y="618.38" width="67.5" height="12.46" rx="1.77" ry="1.77"/>
        </g>
        <path class="cls-37" d="M272.37,476.37l-3.47,34.97c10.93,20.1,30.26,82.55,30.26,82.55,.95,4.74,12.31,2.21,22.41,4.1,10.1,1.89,19.89,4.1,21.15,9.47s1.26,11.05,1.26,11.05c-2.53,2.21-2.84,.63-2.84,.63,2.21,9.79-4.1,12.31-4.1,12.31-.63,3.79-5.52,4.14-5.52,4.14-1.26,6.31-7.42,5.64-7.42,5.64-2.53,4.1-8.84,10.42-12.31,8.52s1.89-10.73,1.89-10.73c3.47-12.94-12.63-14.21-12.63-14.21-22.1,4.42-20.2-16.42-20.2-16.42,0,0-56.97-64.29-64.84-93.14s-.56-60.93-.56-60.93"/>
        <path class="cls-6" d="M324.1,641.24s.95-16.73-3.47-23.36"/>
        <path class="cls-6" d="M331.52,635.6s2.13-19.18-1.89-20.48"/>
        <path class="cls-6" d="M337.04,631.46s2.88-17.64-1.38-20.48"/>
        <path class="cls-6" d="M341.14,619.14s2.21-11.84-10.81-18.94"/>
      </g>
    </g>
  </g>
</svg>