<?xml version="1.0" encoding="UTF-8"?>
<svg xmlns="http://www.w3.org/2000/svg" xmlns:xlink="http://www.w3.org/1999/xlink" viewBox="0 0 1920.62 1440.52">
  <defs>
    <style>
      .cls-1, .cls-2, .cls-3, .cls-4, .cls-5, .cls-6, .cls-7, .cls-8, .cls-9, .cls-10, .cls-11, .cls-12, .cls-13 {
        fill: none;
      }

      .cls-14 {
        fill: url(#linear-gradient);
      }

      .cls-15 {
        clip-path: url(#clippath);
      }

      .cls-2, .cls-16, .cls-17, .cls-18, .cls-19, .cls-3, .cls-4, .cls-20, .cls-5, .cls-6, .cls-7, .cls-8, .cls-9, .cls-10, .cls-11, .cls-12, .cls-21, .cls-13 {
        stroke-miterlimit: 10;
      }

      .cls-2, .cls-20 {
        stroke-width: .8px;
      }

      .cls-2, .cls-5, .cls-12 {
        stroke: #231f20;
      }

      .cls-22 {
        fill: #f7d9a4;
      }

      .cls-23 {
        fill: #f8e8c5;
      }

      .cls-24, .cls-16 {
        fill: #00a79d;
      }

      .cls-25 {
        fill: #f15953;
      }

      .cls-26 {
        fill: #e6e7e8;
      }

      .cls-27 {
        fill: #f6ac1b;
      }

      .cls-28 {
        fill: #f6aac1;
      }

      .cls-29 {
        fill: #f05549;
      }

      .cls-30, .cls-21 {
        fill: #fff;
      }

      .cls-31 {
        fill: #efcccd;
      }

      .cls-32 {
        fill: #ffcb05;
      }

      .cls-33 {
        fill: #efe3c0;
      }

      .cls-34 {
        fill: #fec252;
      }

      .cls-35 {
        fill: #803435;
      }

      .cls-36 {
        fill: #98d9e9;
      }

      .cls-37 {
        fill: #96d9ec;
      }

      .cls-38 {
        fill: #96d9f1;
      }

      .cls-39 {
        fill: #87664d;
      }

      .cls-40 {
        fill: #b6302e;
      }

      .cls-41 {
        fill: #8cb13e;
      }

      .cls-42 {
        fill: #cee186;
      }

      .cls-43 {
        fill: #ae8578;
      }

      .cls-44 {
        fill: #b183bb;
      }

      .cls-45, .cls-19, .cls-20 {
        fill: #be9e7d;
      }

      .cls-46 {
        fill: #c0a1cc;
      }

      .cls-47 {
        fill: #c66f2b;
      }

      .cls-48 {
        fill: #c8eaf6;
      }

      .cls-49 {
        fill: #d0bada;
      }

      .cls-50 {
        fill: #d39494;
      }

      .cls-51 {
        fill: #d1d3d4;
      }

      .cls-52 {
        fill: #dbaa89;
      }

      .cls-53 {
        fill: #db964d;
      }

      .cls-54, .cls-17 {
        fill: #dc3b28;
      }

      .cls-55 {
        fill: #231f20;
      }

      .cls-56 {
        fill: #414042;
      }

      .cls-57 {
        fill: #0f3e5d;
      }

      .cls-58 {
        fill: #87b13f;
      }

      .cls-59 {
        fill: #5a8fc8;
      }

      .cls-60 {
        fill: #3a6bb4;
      }

      .cls-61 {
        fill: #3c2415;
      }

      .cls-62 {
        fill: #58595b;
      }

      .cls-63 {
        fill: #6189c6;
      }

      .cls-64 {
        fill: #26130f;
      }

      .cls-16 {
        stroke: #006838;
      }

      .cls-17, .cls-4, .cls-11 {
        stroke: #be1e2d;
      }

      .cls-18 {
        fill: #dcbf97;
      }

      .cls-18, .cls-20, .cls-9, .cls-13 {
        stroke: #603913;
      }

      .cls-19 {
        stroke: #754c29;
      }

      .cls-3 {
        stroke: #db964d;
      }

      .cls-3, .cls-4 {
        stroke-width: 2px;
      }

      .cls-6 {
        stroke: #92278f;
      }

      .cls-7 {
        stroke: #ed1c24;
      }

      .cls-8 {
        stroke: #d1d3d4;
      }

      .cls-10 {
        stroke: #27aae1;
      }

      .cls-12 {
        stroke-width: 1.2px;
      }

      .cls-21 {
        stroke: #fff;
        stroke-width: 6px;
      }

      .cls-13 {
        stroke-width: .5px;
      }
    </style>
    <clipPath id="clippath">
      <rect class="cls-1" x=".3" y="440.81" width="1333.19" height="999.29"/>
    </clipPath>
    <linearGradient id="linear-gradient" x1="1046.69" y1="1109.81" x2="1046.69" y2="1047.4" gradientTransform="translate(1579.95 -387.52) rotate(155.43) scale(1 -1)" gradientUnits="userSpaceOnUse">
      <stop offset="0" stop-color="#be9e7d"/>
      <stop offset=".7" stop-color="#231f20"/>
    </linearGradient>
  </defs>
  <g id="Layer_2" data-name="Layer 2">
    <g class="cls-15">
      <g>
        <rect class="cls-22" x="0" y=".72" width="1920.44" height="1301.1"/>
        <rect class="cls-26" y="1191.95" width="1920.62" height="248.58"/>
        <rect class="cls-39" x="2.62" y="990.96" width="1216.05" height="75.04" transform="translate(1221.29 2056.95) rotate(-180)"/>
        <rect class="cls-39" x=".06" y="522.92" width="75.22" height="666.77" transform="translate(75.34 1712.6) rotate(-180)"/>
        <rect class="cls-51" x="31.07" y="888.23" width="1208.81" height="103.21" rx="8.69" ry="8.69" transform="translate(1270.94 1879.66) rotate(-180)"/>
        <path class="cls-30" d="M74.21,888.1s-14.42-116.58,114.18-111.78c30.86,1.15,57.01,4.11,81.38,14.13,77.18,31.73,129.42,97.52,129.42,97.52l-324.99,.13Z"/>
        <g>
          <rect class="cls-30" x="1364.49" y="1.03" width="555.42" height="345.16" transform="translate(3284.4 347.21) rotate(-180)"/>
          <rect class="cls-48" x="1382.52" y=".7" width="537.27" height="327.45" transform="translate(3302.3 328.86) rotate(-180)"/>
          <line class="cls-21" x1="1889.97" y1="1.87" x2="1889.97" y2="344.24"/>
          <line class="cls-21" x1="1492.16" y1="190.16" x2="1918.6" y2="190.16"/>
          <line class="cls-21" x1="1492.16" y1="25.74" x2="1918.6" y2="25.74"/>
          <line class="cls-21" x1="1748.36" y1="1.87" x2="1748.36" y2="344.24"/>
          <line class="cls-21" x1="1592.5" y1="1.87" x2="1592.5" y2="344.24"/>
          <path class="cls-46" d="M1495.72,0l14.49,374.63s-33.12,12.42-64.16,6.21l2.07,28.98s-57.95,28.98-117.98,4.14L1348.77,0h146.95Z"/>
          <line class="cls-6" x1="1448.12" y1="409.81" x2="1420.22" y2="109.72"/>
          <line class="cls-8" x1="1738.79" y1="210.9" x2="1720.11" y2="236.25"/>
          <line class="cls-8" x1="1725.44" y1="201.56" x2="1706.76" y2="226.91"/>
          <line class="cls-8" x1="1800.84" y1="144.18" x2="1782.16" y2="169.53"/>
          <line class="cls-8" x1="1787.5" y1="134.84" x2="1768.81" y2="160.19"/>
          <line class="cls-8" x1="1733.45" y1="48.1" x2="1714.77" y2="73.45"/>
          <line class="cls-8" x1="1720.11" y1="38.75" x2="1701.42" y2="64.11"/>
          <line class="cls-8" x1="1577.32" y1="147.51" x2="1558.64" y2="172.87"/>
          <line class="cls-8" x1="1563.97" y1="138.17" x2="1545.29" y2="163.53"/>
          <line class="cls-8" x1="1874.9" y1="297.64" x2="1856.22" y2="322.99"/>
          <line class="cls-8" x1="1861.56" y1="288.3" x2="1842.88" y2="313.65"/>
          <line class="cls-8" x1="1581.99" y1="297.64" x2="1563.31" y2="322.99"/>
          <line class="cls-8" x1="1568.65" y1="288.3" x2="1549.96" y2="313.65"/>
        </g>
        <rect class="cls-39" x="255.17" y="415.96" width="681.04" height="20.55" transform="translate(1191.39 852.48) rotate(-180)"/>
        <path class="cls-53" d="M403.63,301.12s25.04-7.88,11.59-56.12c0,0-4.17-10.2-8.35-13.45,0,0,17.16-2.78,6.96-18.09-10.2-15.3-19.48,6.03-19.48,6.03,0,0-27.36-18.55-54.26-.46,0,0-8.35-16.23-17.62-4.64-9.28,11.59,5.1,17.16,5.1,17.16,0,0-29.68,38.49-1.39,67.71,0,0-51.48,23.65-39.42,47.77,0,0,6.96,10.2,25.04-5.1,0,0-2.78,16.7,0,26.43,0,0-33.85-7.88-24.12,20.87s36.64,26.9,36.64,26.9c0,0,12.06-3.25,12.06-13.91,0,0,21.8,21.33,57.04,1.39,0,0,2.78,24.58,29.68,9.28,26.9-15.3,18.55-38.49,18.55-38.49,0,0-6.96-7.88-19.94-6.03,0,0,1.86-16.7-3.25-25.51,0,0,13.91,12.06,26.43,5.57,12.52-6.49-10.67-30.14-10.67-30.14,0,0-17.62-16.23-30.61-17.16Z"/>
        <path class="cls-47" d="M296.96,366.51s37.1-2.32,39.42,35.71c0,0-3.71,21.8-25.97,11.59,0,0,30.14,6.03,20.41-22.26,0,0-12.52-21.8-33.85-25.04Z"/>
        <path class="cls-47" d="M417.08,415.2s-19.94,8.35-23.65-11.59c-3.71-19.94,25.04-35.25,25.04-35.25,0,0,17.62-4.17,19.48,2.78,0,0-19.48-6.49-32,12.99-12.52,19.48-3.25,27.36-3.25,27.36,0,0,7.42,3.71,14.38,3.71Z"/>
        <ellipse class="cls-47" cx="294.27" cy="340.65" rx="5.98" ry="3.99" transform="translate(-137.23 212.4) rotate(-32.62)"/>
        <ellipse class="cls-47" cx="436.27" cy="339.8" rx="3.99" ry="5.98" transform="translate(-85.12 524.04) rotate(-57.38)"/>
        <ellipse class="cls-37" cx="362.9" cy="310.44" rx="5.95" ry="5.29"/>
        <polygon class="cls-37" points="388.14 300.66 387.35 321.27 362.9 310.44 339.25 321.01 339.25 301.98 362.77 308.32 388.14 300.66"/>
        <ellipse class="cls-23" cx="367.26" cy="281.76" rx="27.48" ry="17.84"/>
        <ellipse class="cls-28" cx="332.12" cy="273.7" rx="6.34" ry="6.08"/>
        <ellipse class="cls-28" cx="401.43" cy="273.7" rx="6.34" ry="6.08"/>
        <ellipse class="cls-55" cx="388.01" cy="257.06" rx="3.83" ry="4.76"/>
        <ellipse class="cls-55" cx="347.64" cy="257.06" rx="3.83" ry="4.76"/>
        <path class="cls-23" d="M336.19,221.5s-4.2-9.74-10.07-4.36c-5.88,5.37,3.19,10.74,3.19,10.74,0,0,4.87-1.34,6.88-6.38Z"/>
        <path class="cls-23" d="M397.61,221.5s4.2-9.74,10.07-4.36c5.88,5.37-3.19,10.74-3.19,10.74,0,0-4.87-1.34-6.88-6.38Z"/>
        <path class="cls-25" d="M595.36,201.58v213.89s37.89,0,37.89,0V201.58s-19.32-10.56-37.89,0Z"/>
        <path class="cls-42" d="M557.53,201.58v213.89s37.89,0,37.89,0V201.58s-19.32-10.56-37.89,0Z"/>
        <path class="cls-36" d="M491.11,245.54l-33.79,165.21,25.37,5.19,33.79-165.21s-11.27-10.8-25.37-5.19Z"/>
        <path class="cls-32" d="M513.53,232.44v183.02s44.59,0,44.59,0V232.44s-22.74-9.04-44.59,0Z"/>
        <path class="cls-55" d="M365.89,277.25l-5.2-6.6c-.84-1.06-.08-2.63,1.27-2.63h10.41c1.35,0,2.11,1.56,1.27,2.63l-5.2,6.6c-.65,.82-1.9,.82-2.55,0Z"/>
        <path class="cls-5" d="M377.92,286.32s-9.91,2.99-10.7-9.12"/>
        <path class="cls-5" d="M356.53,286.32s9.91,2.99,10.7-9.12"/>
        <path class="cls-33" d="M614.38,261.19l-1.63-.85c-1.54-.81-3.35,.5-3.05,2.22l.31,1.81c.12,.68-.11,1.38-.61,1.86l-1.32,1.28c-1.25,1.22-.56,3.34,1.17,3.59l1.82,.26c.69,.1,1.28,.53,1.59,1.15l.81,1.65c.77,1.56,3,1.56,3.78,0l.81-1.65c.31-.62,.9-1.05,1.59-1.15l1.82-.26c1.73-.25,2.42-2.37,1.17-3.59l-1.32-1.28c-.5-.48-.72-1.18-.61-1.86l.31-1.81c.29-1.72-1.51-3.03-3.05-2.22l-1.63,.85c-.61,.32-1.35,.32-1.96,0Z"/>
        <path class="cls-33" d="M614.38,284.6l-1.63-.85c-1.54-.81-3.35,.5-3.05,2.22l.31,1.81c.12,.68-.11,1.38-.61,1.86l-1.32,1.28c-1.25,1.22-.56,3.34,1.17,3.59l1.82,.26c.69,.1,1.28,.53,1.59,1.15l.81,1.65c.77,1.56,3,1.56,3.78,0l.81-1.65c.31-.62,.9-1.05,1.59-1.15l1.82-.26c1.73-.25,2.42-2.37,1.17-3.59l-1.32-1.28c-.5-.48-.72-1.18-.61-1.86l.31-1.81c.29-1.72-1.51-3.03-3.05-2.22l-1.63,.85c-.61,.32-1.35,.32-1.96,0Z"/>
        <path class="cls-33" d="M614.38,307.01l-1.63-.85c-1.54-.81-3.35,.5-3.05,2.22l.31,1.81c.12,.68-.11,1.38-.61,1.86l-1.32,1.28c-1.25,1.22-.56,3.34,1.17,3.59l1.82,.26c.69,.1,1.28,.53,1.59,1.15l.81,1.65c.77,1.56,3,1.56,3.78,0l.81-1.65c.31-.62,.9-1.05,1.59-1.15l1.82-.26c1.73-.25,2.42-2.37,1.17-3.59l-1.32-1.28c-.5-.48-.72-1.18-.61-1.86l.31-1.81c.29-1.72-1.51-3.03-3.05-2.22l-1.63,.85c-.61,.32-1.35,.32-1.96,0Z"/>
        <path class="cls-33" d="M614.38,329.75l-1.63-.85c-1.54-.81-3.35,.5-3.05,2.22l.31,1.81c.12,.68-.11,1.38-.61,1.86l-1.32,1.28c-1.25,1.22-.56,3.34,1.17,3.59l1.82,.26c.69,.1,1.28,.53,1.59,1.15l.81,1.65c.77,1.56,3,1.56,3.78,0l.81-1.65c.31-.62,.9-1.05,1.59-1.15l1.82-.26c1.73-.25,2.42-2.37,1.17-3.59l-1.32-1.28c-.5-.48-.72-1.18-.61-1.86l.31-1.81c.29-1.72-1.51-3.03-3.05-2.22l-1.63,.85c-.61,.32-1.35,.32-1.96,0Z"/>
        <path class="cls-33" d="M614.38,349.49l-1.63-.85c-1.54-.81-3.35,.5-3.05,2.22l.31,1.81c.12,.68-.11,1.38-.61,1.86l-1.32,1.28c-1.25,1.22-.56,3.34,1.17,3.59l1.82,.26c.69,.1,1.28,.53,1.59,1.15l.81,1.65c.77,1.56,3,1.56,3.78,0l.81-1.65c.31-.62,.9-1.05,1.59-1.15l1.82-.26c1.73-.25,2.42-2.37,1.17-3.59l-1.32-1.28c-.5-.48-.72-1.18-.61-1.86l.31-1.81c.29-1.72-1.51-3.03-3.05-2.22l-1.63,.85c-.61,.32-1.35,.32-1.96,0Z"/>
        <path class="cls-59" d="M576.57,261.19l-1.63-.85c-1.54-.81-3.35,.5-3.05,2.22l.31,1.81c.12,.68-.11,1.38-.61,1.86l-1.32,1.28c-1.25,1.22-.56,3.34,1.17,3.59l1.82,.26c.69,.1,1.28,.53,1.59,1.15l.81,1.65c.77,1.56,3,1.56,3.78,0l.81-1.65c.31-.62,.9-1.05,1.59-1.15l1.82-.26c1.73-.25,2.42-2.37,1.17-3.59l-1.32-1.28c-.5-.48-.72-1.18-.61-1.86l.31-1.81c.29-1.72-1.51-3.03-3.05-2.22l-1.63,.85c-.61,.32-1.35,.32-1.96,0Z"/>
        <path class="cls-59" d="M576.57,284.6l-1.63-.85c-1.54-.81-3.35,.5-3.05,2.22l.31,1.81c.12,.68-.11,1.38-.61,1.86l-1.32,1.28c-1.25,1.22-.56,3.34,1.17,3.59l1.82,.26c.69,.1,1.28,.53,1.59,1.15l.81,1.65c.77,1.56,3,1.56,3.78,0l.81-1.65c.31-.62,.9-1.05,1.59-1.15l1.82-.26c1.73-.25,2.42-2.37,1.17-3.59l-1.32-1.28c-.5-.48-.72-1.18-.61-1.86l.31-1.81c.29-1.72-1.51-3.03-3.05-2.22l-1.63,.85c-.61,.32-1.35,.32-1.96,0Z"/>
        <path class="cls-59" d="M576.57,307.01l-1.63-.85c-1.54-.81-3.35,.5-3.05,2.22l.31,1.81c.12,.68-.11,1.38-.61,1.86l-1.32,1.28c-1.25,1.22-.56,3.34,1.17,3.59l1.82,.26c.69,.1,1.28,.53,1.59,1.15l.81,1.65c.77,1.56,3,1.56,3.78,0l.81-1.65c.31-.62,.9-1.05,1.59-1.15l1.82-.26c1.73-.25,2.42-2.37,1.17-3.59l-1.32-1.28c-.5-.48-.72-1.18-.61-1.86l.31-1.81c.29-1.72-1.51-3.03-3.05-2.22l-1.63,.85c-.61,.32-1.35,.32-1.96,0Z"/>
        <path class="cls-59" d="M576.57,329.75l-1.63-.85c-1.54-.81-3.35,.5-3.05,2.22l.31,1.81c.12,.68-.11,1.38-.61,1.86l-1.32,1.28c-1.25,1.22-.56,3.34,1.17,3.59l1.82,.26c.69,.1,1.28,.53,1.59,1.15l.81,1.65c.77,1.56,3,1.56,3.78,0l.81-1.65c.31-.62,.9-1.05,1.59-1.15l1.82-.26c1.73-.25,2.42-2.37,1.17-3.59l-1.32-1.28c-.5-.48-.72-1.18-.61-1.86l.31-1.81c.29-1.72-1.51-3.03-3.05-2.22l-1.63,.85c-.61,.32-1.35,.32-1.96,0Z"/>
        <path class="cls-59" d="M576.57,349.49l-1.63-.85c-1.54-.81-3.35,.5-3.05,2.22l.31,1.81c.12,.68-.11,1.38-.61,1.86l-1.32,1.28c-1.25,1.22-.56,3.34,1.17,3.59l1.82,.26c.69,.1,1.28,.53,1.59,1.15l.81,1.65c.77,1.56,3,1.56,3.78,0l.81-1.65c.31-.62,.9-1.05,1.59-1.15l1.82-.26c1.73-.25,2.42-2.37,1.17-3.59l-1.32-1.28c-.5-.48-.72-1.18-.61-1.86l.31-1.81c.29-1.72-1.51-3.03-3.05-2.22l-1.63,.85c-.61,.32-1.35,.32-1.96,0Z"/>
        <path class="cls-7" d="M542.04,244.91h-10.46s2.16,12.63-7.94,12.99v138.88s8.66-.72,7.21,11.54h10.1s-2.53-10.46,7.21-11.54v-139.6s-7.94,1.08-6.13-12.26Z"/>
        <line class="cls-7" x1="539.87" y1="264.39" x2="539.87" y2="388.12"/>
        <line class="cls-7" x1="532.3" y1="264.39" x2="532.3" y2="388.12"/>
        <polygon class="cls-7" points="499.37 272.69 505.47 292.63 492.86 306.87 486.35 288.15 499.37 272.69"/>
        <polygon class="cls-7" points="480.65 357.34 486.75 377.28 474.14 391.53 467.62 372.81 480.65 357.34"/>
        <g>
          <line class="cls-3" x1="790.87" y1="275.41" x2="756.89" y2="334.55"/>
          <line class="cls-3" x1="699.46" y1="283.93" x2="714.91" y2="337.28"/>
          <line class="cls-3" x1="737.54" y1="249.49" x2="735.95" y2="336.15"/>
          <g>
            <polygon class="cls-29" points="699.98 281.32 700.5 253.22 669.8 252.7 699.98 281.32"/>
            <polygon class="cls-38" points="698.94 282.37 670.84 281.84 670.32 312.55 698.94 282.37"/>
            <polygon class="cls-29" points="699.46 283.93 698.94 312.03 729.65 312.55 699.46 283.93"/>
            <polygon class="cls-38" points="700.76 283.41 728.87 283.93 729.39 253.22 700.76 283.41"/>
            <ellipse class="cls-55" cx="700" cy="283.42" rx="4.81" ry="5.2"/>
          </g>
          <g>
            <polygon class="cls-34" points="739.58 231.72 746.78 204.55 717.08 196.73 739.58 231.72"/>
            <polygon class="cls-63" points="738.32 232.49 711.15 225.28 703.32 254.98 738.32 232.49"/>
            <polygon class="cls-34" points="738.45 234.13 731.25 261.29 760.94 269.12 738.45 234.13"/>
            <polygon class="cls-63" points="739.84 233.93 767.01 241.13 774.83 211.44 739.84 233.93"/>
            <ellipse class="cls-55" cx="739.1" cy="233.76" rx="5.2" ry="4.81" transform="translate(335.91 895.84) rotate(-76.21)"/>
          </g>
          <g>
            <polygon class="cls-41" points="793.72 271.17 813.71 251.41 792.09 229.61 793.72 271.17"/>
            <polygon class="cls-30" points="792.25 271.19 772.49 251.2 750.68 272.83 792.25 271.19"/>
            <polygon class="cls-58" points="791.53 272.67 771.54 292.43 793.17 314.24 791.53 272.67"/>
            <polygon class="cls-30" points="792.83 273.21 812.59 293.2 834.39 271.57 792.83 273.21"/>
            <ellipse class="cls-55" cx="792.28" cy="272.69" rx="5.2" ry="4.81" transform="translate(43.98 649.67) rotate(-45.73)"/>
          </g>
          <rect class="cls-25" x="699.98" y="331.55" width="70.52" height="84.57" transform="translate(1470.48 747.66) rotate(-180)"/>
        </g>
        <path class="cls-49" d="M669.56,1140.32c207.92-63.81,511.91,8.6,511.91,8.6,244.51,40.38,232.29,13.62,232.29,13.62,0,0-7.17-197.88-3.58-238.75,3.58-40.87-7.89-62.38-7.89-62.38,0,0-48.75-34.41-71.7-50.19-22.94-15.77-40.5-12.41-40.5-12.41,0,0-26.17,13.84-267.07-1.93-240.9-15.77-428.74,18.64-428.74,18.64,0,0,10.39,201.65,78.68,335.27"/>
        <path class="cls-44" d="M446.31,833.38s55.01-21.43,146.9-29.78c0,0,6.96,171.8,79.75,347.21,0,0-82.34-2.39-130.07,13.13,0,0-89.34-121.73-96.58-330.55Z"/>
      </g>
    </g>
    <ellipse class="cls-52" cx="727.73" cy="1317.67" rx="598.77" ry="113.64"/>
  </g>
  <g id="Layer_1" data-name="Layer 1">
    <g>
      <path class="cls-45" d="M983.23,1223.82l-79.55,47.07s-3.65,17.88,2.92,28.83l36.25-5.11,40.38-70.79Z"/>
      <path class="cls-30" d="M852.96,1227.47s-4.38,8.03,6.93,21.16l10.95,44.15s2.92,13.87,10.58,15.69,25.18-8.76,25.18-8.76l-2.92-28.83s-29.56-22.99-38.68-35.4c0,0-2.92-18.25-12.04-8.03Z"/>
      <polyline class="cls-19" points="1021.54 1222.74 991.32 1235.96 923.39 1292.52 944.15 1297.18 992 1280.64 1029.81 1247.56"/>
      <g>
        <path class="cls-19" d="M900.5,1301.8s.12-1.7,3.41-2.28c0,0,.28-4.41,8.27-6.44,0,0,4.8-3.3,11.08-2.92,0,0,2.83-2.88,7.4,2.6,0,0,6.04-4.13,5.33,3.53"/>
        <line class="cls-9" x1="925.32" y1="1298.48" x2="930.66" y2="1292.76"/>
        <line class="cls-9" x1="915.67" y1="1299.37" x2="923.26" y2="1290.16"/>
        <line class="cls-19" x1="908.57" y1="1300.44" x2="912.18" y2="1293.08"/>
      </g>
      <path class="cls-45" d="M1058.6,1121.3l1.7,5.47-5.84,12.2s20.68-9.12,25.79-14.35c5.11-5.23,23.35-24.61,23.35-24.61l-14.35-18.12-.36-6.93"/>
      <path class="cls-24" d="M1038.89,1156.45s11.19-21.41,21.41-29.68c0,0-4.38,7.3-1.46,9.24s25.3-21.41,25.3-21.41c0,0,13.14-17.03,19.46-14.6,6.33,2.43,20.92,14.11,20.92,14.11,0,0,36.98,35.52,43.79,75.9,6.81,40.38,15.57,75.41,4.38,104.12,0,0-14.11-32.11-61.3-46.22l-65.68-65.2-6.81-26.27Z"/>
      <path class="cls-18" d="M1025.39,1252.67s-27,28.83-45.61,29.56l-45.49,13.87"/>
      <path class="cls-19" d="M950.55,1295.45s6.6-71.36,37.25-123.42c0,0,16.06-29.68,46.71-18.49,0,0,17.52,8.27,27.25,24.81,0,0-26.76,38.92-42.33,48.17,0,0,2.27,41.7-35.2,84.02,0,0-21.03,18.96-33.68-15.09Z"/>
      <path class="cls-56" d="M1061.76,1178.35s30.17,19.46,49.63,69.58c0,0,52.06,12.16,61.3,46.22,0,0,2.92,43.79-29.68,48.65-32.6,4.87-65.2,.97-65.2,.97,0,0-20.43-4.87-30.17-24.81-9.73-19.95-28.22-92.44-28.22-92.44,0,0,29.19-24.81,42.33-48.17Z"/>
      <g>
        <path class="cls-60" d="M977.68,1341.17s.74,4.69-2.07,8.46c0,0-24.77,1.64-37.05-9.9,0,0-46.64-1.26-55.23-16.17,0,0-6.46-9.12-1.94-13.7"/>
        <path class="cls-56" d="M986.18,1311.9s4.01,14.38-8.51,29.28c0,0-25.7,.03-37.66-7.99,0,0-16.33,2.35-27.77-.92,0,0-28.64-4.45-30.62-19.15-1.98-14.7,26.02-14.3,26.02-14.3l42.9-3.37s7.66,25.47,35.63,16.45Z"/>
        <path class="cls-30" d="M936.52,1296.57s-1.55,6.65,2.49,10.54c0,0-1.87,2.94-4.3,1.06,0,0-4.92-5.83-2.81-10.94,0,0,1.26-2.72,4.62-.66Z"/>
        <path class="cls-30" d="M928.68,1296.5s-1.55,6.65,2.49,10.54c0,0-1.87,2.94-4.3,1.06,0,0-4.92-5.83-2.81-10.94,0,0,1.26-2.72,4.62-.66Z"/>
      </g>
      <path class="cls-45" d="M991.88,1043.89s-5.12,11.04,5.21,31.88c10.32,20.84,13.28,25.43,24.83,40.61,11.55,15.17,37.48,4.98,37.48,4.98,0,0,33.74-25.15,28.92-47.75,0,0,13.71,5.95,14.73-11.87,0,0,1.42-19.72-8.21-19.99,0,0-9.83,.95-10.41,12.13,0,0-12.51-38.39-27.44-38.13,0,0-44.29-14.82-65.11,28.14Z"/>
      <path class="cls-64" d="M1034.61,1057.13s13.14-9.44,21.36-8.47c0,0-7.42-3.86-22.83,5.94,0,0-2.23,2.9,1.47,2.53Z"/>
      <path class="cls-64" d="M997.18,1075.26c-.03-.74,6.91-5.28,13.93-8.31,0,0,3.75-.25,1.24,2.66,0,0-13.45,4.23-13.58,8.23,0,0-1.53-.74-1.6-2.57Z"/>
      <path class="cls-2" d="M1025.06,1084.6s-1.47,13.15,10.55,8.34"/>
      <path class="cls-2" d="M1097.82,1049.56s-8.1-7.24-7.46,10.88c0,0,2.54-9.47,6.45-4.53"/>
      <path class="cls-64" d="M1058.6,1121.3s4.66-2.05,10.6-8.61c0,0,5.85-4.74,11.72-13.77,0,0-2.53,9.15-12.2,18.42,0,0-3.53,4.19-8.75,6.43,0,0,.08-.58-1.37-2.46Z"/>
      <path class="cls-50" d="M1053.6,1092.85s-6.97,1.28-13.07,7.05c0,0-6.83,1.99-11.75,6.13,0,0,5.83,9.66,16.34,6.98,10.52-2.68,11.69-14.42,8.47-20.16Z"/>
      <path class="cls-35" d="M1052.47,1094.34s4.7,8.79-6.78,14.78c-10.43,5.45-14.61-2.37-14.61-2.37,0,0,12.02-5.6,21.4-12.41Z"/>
      <path class="cls-30" d="M1051.11,1095.21s-.71,5.58-9.82,9.79c0,0-5.34,3.14-9.15,1.42,0,0,11.58-5.73,18.97-11.21Z"/>
      <g>
        <path class="cls-30" d="M1053.28,1058.71s-.16-.35-.56-.52c-1.32-.56-4.16-1.42-7.27,.06-3.49,1.66-3.85,5.85-3.95,7.33-.02,.26,.08,.43,.08,.43,0,0,.08,.2,.26,.28,.86,.38,3.58,1.3,6.9-.22,1.98-.9,4.24-3.27,4.68-6.75,.03-.24-.07-.48-.14-.61Z"/>
        <circle class="cls-64" cx="1046.38" cy="1062.74" r="3.99"/>
        <circle class="cls-30" cx="1048.3" cy="1060.93" r="1.1"/>
        <path class="cls-2" d="M1041.28,1065.69s.28-10.34,11.55-7.59"/>
      </g>
      <g>
        <path class="cls-30" d="M1016.27,1078.47s-.1-.35-.44-.56c-1.13-.7-3.61-1.89-6.68-.97-3.43,1.03-4.35,4.82-4.65,6.16-.05,.23,.01,.4,.01,.4,0,0,.05,.19,.2,.29,.74,.47,3.1,1.7,6.36,.77,1.94-.55,4.35-2.4,5.24-5.53,.06-.22,0-.45-.04-.58Z"/>
        <circle class="cls-64" cx="1009.37" cy="1081.2" r="3.69"/>
        <circle class="cls-30" cx="1011.52" cy="1079.83" r="1.03"/>
        <path class="cls-2" d="M1004.47,1083.25s1.31-9.85,11.5-5.22"/>
      </g>
      <path class="cls-27" d="M1141.92,1261.95s.61,51.7-22.75,36.13c-23.35-15.57-26.76-26.27-26.76-26.27l-48.17-68.6-7.78,7.78,57.41,82.71s22.38,28.71,39.41,18.49c17.03-10.22,18.61-43.3,18.61-43.3l-9.97-6.93Z"/>
      <path class="cls-56" d="M1060.3,1126.78s-4.74,7.93-1.46,9.24c0,0,3.71,.93,25.3-21.41,0,0,13.87-17.07,19.46-14.6l2.86,1.38s-8.39,1.82-18.61,15.14c-10.22,13.32-24.63,24.08-28.1,23.54s-4.38-5.11-3.47-9.49l4.01-3.81Z"/>
      <g>
        <path class="cls-60" d="M856.84,1349.99s2.01,4.25,.39,8.62c0,0-23.09,8.45-37.98,.9,0,0-44.69,11.79-57.01,.01,0,0-8.68-6.87-5.66-12.49"/>
        <path class="cls-56" d="M856.78,1319.78s7.82,12.56,.06,30.2c0,0-24.43,7.19-38.03,2.89,0,0-14.87,6.78-26.66,6.86,0,0-28.47,3.74-34.45-9.68-5.98-13.42,20.76-20.84,20.76-20.84l39.85-15.15s14.38,22.08,38.46,5.72Z"/>
        <path class="cls-30" d="M805.29,1319.04s.38,6.75,5.31,9.33c0,0-.96,3.32-3.79,2.21,0,0-6.3-4.17-5.72-9.62,0,0,.44-2.94,4.21-1.91Z"/>
        <path class="cls-30" d="M797.82,1321.16s.38,6.75,5.31,9.33c0,0-.96,3.32-3.79,2.21,0,0-6.3-4.17-5.72-9.62,0,0,.44-2.94,4.21-1.91Z"/>
        <path class="cls-55" d="M818.32,1314.06s30.05-9.49,38.46,5.72c0,0-21.27,16.93-38.46-5.72Z"/>
      </g>
      <path class="cls-19" d="M1058.9,1186.27l-21.27,52.72s-41.2,37.22-45.63,40.76-16.01,7.47-16.01,7.47c0,0-10.99-4.6-19.98,.35-8.99,4.95-17.71,6.15-17.71,6.15,0,0-3.73,4.14,3.67,5.76,7.4,1.62,11.68-1.76,11.68-1.76,0,0,4.33,.22,2.59,3.44s-4.42,10.5-12.19,2.4c-7.77-8.1-8.81-.77-8.81-.77,0,0,1.84,9.22,7.89,14.49,0,0,.22,6.14,9.18,7.24,0,0,2.45,5.31,9.02,4.7,0,0,2.38,2.53,6,1.66,0,0,13-2.37,19.61-22.54,0,0,8.7-3.66,12.58-4.67,10.19-2.66,62.91-31.46,62.91-31.46,0,0,7.97-2.22,11.52-12.41,2.93-8.41,26.58-53.17,26.58-53.17"/>
      <path class="cls-16" d="M1086.79,1129.65s-9.6-1.5-34.4,56.38c0,0,34.52,22.63,58.98,24.29,0,0,25.89-39.38,23.13-69.66"/>
      <path class="cls-9" d="M952.32,1324.53s12.88-1.58,14.87-12.43"/>
      <path class="cls-9" d="M961.34,1329.23s11.39-4.07,12.95-14.48"/>
      <path class="cls-9" d="M943.13,1317.28s10.54,1.68,16.75-8.29"/>
      <path class="cls-55" d="M991.03,1053.31s-11.09-21.27,4.85-43c0,0,15.4-24.7,48.31-18.97,0,0,26.51-6.56,36.08,16.92,0,0-19.05-6.55-23.63,10.81,0,0-15.04-10.32-27.69,4.24,0,0-11.37,10.46-17.13,20.12,0,0-16.52-1.56-20.79,9.87Z"/>
      <path class="cls-14" d="M1070.33,997.06s21.06,5.08,29.96,47.91c0,0-13.26-5.72-15.36,14.04l-7.08-7.07s-4.56-27.63-27.03-36.26l19.52-18.62Z"/>
    </g>
    <g>
      <path class="cls-45" d="M544.92,934.22l18.57,34.95c30.58-10.38,73.46-21.85,73.46-21.85l16.11-29.77,27.31-14.47s4.92,.27,3.82,4.92-7.65,10.65-7.65,10.65l30.58-14.2,30.58-7.1s4.92,2.73,3.28,6.28-6.28,6.01-6.28,6.01l-17.48,3.82-16.93,12.29,44.24-14.75s4.64-.27,4.92,3.82c.27,4.1-4.37,7.37-4.37,7.37l-22.67,7.92-12.83,8.74,34.95-12.83s6.01-.82,6.55,3c.55,3.82-1.09,5.46-3.55,7.1s-32.77,14.47-32.77,14.47l26.49-6.28s4.64,2.46,1.09,4.92c-3.55,2.46-26.49,10.92-26.49,10.92l-25.94,16.93-45.88,6.55s-36.87,47.24-93.67,89.84c0,0-38.23,15.84-60.62-14.2l-13.11-51.88"/>
      <path class="cls-55" d="M358.98,1210.79s-2.96-16.64-19.8-28.09c0,0-24.79-5.71-62,32.62,0,0-48.32,7.55-76.94,49.63,0,0-24.86,33.49,16.85,33.28,0,0,52.8-2.18,83.67-19.74,0,0,3.56-39.38,58.22-67.7Z"/>
      <g>
        <path class="cls-55" d="M281.3,1246.15s29.53,34.22-41.97,68.71c-50.94,24.58-85.23,70.04-94.05,53.85l-6.64-33.67,42.75-52.41,61.69-35.78,38.23-.7Z"/>
        <path class="cls-56" d="M281.3,1246.15s-14.93-.25-29.9,6.95c-14.68,7.06-46.69,28.52-46.69,28.52,0,0-74.98,25.42-58.32,89.22l-8.09-10.01s-21.93-43.12,58.67-95.01c0,0,49.9-27.86,67.66-32.43,0,0,6.84,1.55,16.67,12.75Z"/>
        <path class="cls-45" d="M286.33,1348.76s-23.81-17.51-50.61-6.26l-25.98,6.1-15.77,4.39-22.59,12.68s-11.02,13.97-16.65,12.33c-5.63-1.64-8.88-1.32-8.61-12.56,0,0-3.5-7.86,2.44-11.45,0,0-1.87-8.02,6.76-14.88,0,0-2.5-6.05,6.91-13.25,0,0-.58-5.96,5.17-8.71,0,0,21.36-27.78,39.29-28.98,0,0,25.07-7.47,41.47-21.3,9.25-7.8,17.79-10.02,23.8-10.37,4.87-.28,9.5,1.99,12.26,6.01,5.45,7.94,16.51,23.58,27.27,35.81"/>
        <path class="cls-13" d="M171.65,1358.99l-12.55,5.59s-7.07,4.99-12.98,.86"/>
        <path class="cls-13" d="M173.1,1350.56s-19.84,10.4-22.89,5.81l-1.65-2.39"/>
        <path class="cls-13" d="M172.83,1339.35s-11.25,6.04-17.51-.24"/>
        <path class="cls-13" d="M170.7,1327.5s-5.69,3.3-8.46-1.65"/>
        <path class="cls-56" d="M214.11,1274.39s26.58,40.86,10.94,71l-41.19,14.54s3.18-34.59-9.07-63.76c0,0,16-14.46,39.32-21.78Z"/>
      </g>
      <path class="cls-57" d="M476,1116.11s129.13,70.09,163.09,115.38c33.97,45.29-3.23,88.96-29.11,88.96,0,0,5.66,43.67-51.76,58.23-57.42,14.56-288.71-26.69-288.71-26.69,0,0-12.94-50.14,18.6-88.15,0,0-122.66-20.49-81.14-152.58"/>
      <path class="cls-10" d="M288.1,1263.84s122.93,25.07,144.76,29.11c21.84,4.04,30.73,9.7,31.54,16.17"/>
      <path class="cls-10" d="M609.97,1320.45s12.13-47.71-19.41-71.98c-31.54-24.26-144.76-105.13-144.76-105.13"/>
      <path class="cls-45" d="M397.06,709.03s2.7,28.16-13.04,52.27c0,0-11.23,94.51,58.75,108.59,0,0,52.84-31.32,37.87-92.87l-83.58-67.99Z"/>
      <path class="cls-54" d="M249.63,943.68s-10.04-122.72,51.98-159.05c0,0,32.47-17.48,79.72-26.05,0,0-8.41,12.31,44.67,58.35l13.83,34.45,9.54-27.12s25.17-13.38,42.27-33.77c0,0,35.62,9.2,54.23,52.62,0,0,16.13,35.83,17.02,109.38l-36.81,21.91-50.1,141.71s-78.55,89.43-269.04-4.85l39.42-140.55,3.25-27.03Z"/>
      <path class="cls-4" d="M526.68,973.96s.88-53.31-1.66-66.01"/>
      <path class="cls-45" d="M538.27,612.19s10.75,22.57-1.06,70.52c0,0-3.99,11.32-3.8,17.83,.19,6.51-1.56,16.99-5.07,23.32-3.51,6.33-28.6,48.47-28.6,48.47,0,0-7.91,12.11-30.89,8.48-22.97-3.63-41.01-15.3-47.63-26.37-6.62-11.06-24.63-30.21-24.16-45.41,0,0-14.13,.8-16.92-16.51,0,0-10.52-27.96,5.41-32.08,15.93-4.13,21.04,17.81,21.04,17.81,0,0-7.42-63.3,30.38-81.06,0,0,47.6-27.73,101.3,15.01Z"/>
      <path class="cls-43" d="M460.72,725.56s12.13-.87,24.72,6.09c0,0,12.19,.37,22.14,5.14,0,0-5.53,18.54-24.14,18.6-18.61,.07-25.6-18.92-22.72-29.83Z"/>
      <path class="cls-35" d="M463.24,727.54s-4.03,16.6,17.61,21.63c19.65,4.56,23.24-10.21,23.24-10.21,0,0-22.37-4.14-40.85-11.41Z"/>
      <path class="cls-55" d="M482.67,660.9s-17.63-10.03-35.88-6.98c0,0,11.16-10.9,37.69,1.47,0,0,3.78,4.65-1.82,5.51Z"/>
      <path class="cls-55" d="M540.72,672.2c-13.13-5.17-20.69-2.63-20.69-2.63-4.64-3.24,.8-5.75,.8-5.75,9.12,.18,15.91,1.74,20.92,3.79,0,0-.31,4.87-1.03,4.59Z"/>
      <path class="cls-30" d="M465.87,728.4s3.57,8.95,20.51,12.03c0,0,10.21,2.92,15.81-1.57,0,0-21.69-4.54-36.31-10.46Z"/>
      <path class="cls-12" d="M382.84,671.17s7.42-7.05,11.61,2.87c4.19,9.92,3.86,12.82,3.86,12.82,0,0-5.69-15.53-11.7-5.52"/>
      <path class="cls-64" d="M470.27,780.47s-20.42-1.73-35.36-12.34c0,0-9.43-4.87-19.95-22.33,0,0,8.84,24.57,32.87,32.02,0,0,10.55,4.5,22.43,2.65,0,0-.97,2.29,0,0Z"/>
      <g>
        <path class="cls-30" d="M456.83,668.92s.1-.53,.57-.89c1.58-1.2,5.09-3.35,9.79-2.44,5.26,1.02,7.2,6.52,7.85,8.47,.11,.34,.04,.6,.04,.6,0,0-.04,.3-.25,.47-1.03,.81-4.35,2.99-9.35,2.11-2.97-.53-6.83-2.93-8.63-7.45-.13-.31-.07-.67-.03-.86Z"/>
        <circle class="cls-64" cx="467.5" cy="671.95" r="5.54"/>
        <circle class="cls-30" cx="464.28" cy="670.18" r="1.52"/>
        <path class="cls-5" d="M475.36,674.13s-3.97-13.79-18.15-6.18"/>
      </g>
      <g>
        <path class="cls-30" d="M516.61,685.07s.02-.51,.41-.91c1.29-1.35,4.25-3.84,8.75-3.67,5.04,.19,7.63,5.03,8.51,6.75,.15,.3,.13,.55,.13,.55,0,0,0,.28-.17,.47-.84,.9-3.62,3.4-8.39,3.29-2.84-.07-6.77-1.74-9.09-5.69-.16-.27-.16-.62-.15-.8Z"/>
        <circle class="cls-64" cx="526.97" cy="686.35" r="5.19"/>
        <circle class="cls-30" cx="523.55" cy="685.24" r="1.45"/>
        <path class="cls-5" d="M534.36,687.42s-5.26-12.96-17.51-3.06"/>
      </g>
      <path class="cls-12" d="M503.1,683.51l7.83,21.9s3.3,16.16-7.07,16.67c-9.23,.45-9.11-1.52-9.11-1.52"/>
      <path class="cls-40" d="M369.54,764.1s49.61,43.89,57.16,65.11l1.9-19.34s-36.53-34.02-47.71-56.26l-11.35,10.49Z"/>
      <path class="cls-40" d="M482.54,782.29s18.59,3.75,15.38,17.13l-48.53,24.84,.65-11.51s17.74-6.51,33.87-20.43c0,0-2.04-3.42-1.37-10.03Z"/>
      <path class="cls-11" d="M440.45,875.8s-.86,43.18-9.44,131.97"/>
      <ellipse class="cls-31" cx="429.23" cy="880.83" rx="3.11" ry="2.87" transform="translate(-500.04 1191.55) rotate(-82.51)"/>
      <ellipse class="cls-31" cx="429.64" cy="933.51" rx="3.11" ry="2.87" transform="translate(-551.92 1237.77) rotate(-82.51)"/>
      <ellipse class="cls-31" cx="425.84" cy="989.99" rx="3.11" ry="2.87" transform="translate(-611.22 1283.12) rotate(-82.51)"/>
      <g>
        <rect class="cls-31" x="366.25" y="991.56" width="15.77" height="15.77" transform="translate(-550.97 467.43) rotate(-39.57)"/>
        <rect class="cls-31" x="388.37" y="993.66" width="15.77" height="15.77" transform="translate(-547.24 482) rotate(-39.57)"/>
        <rect class="cls-31" x="368.34" y="969.53" width="15.77" height="15.77" transform="translate(-536.46 463.71) rotate(-39.57)"/>
        <rect class="cls-62" x="378.29" y="981.81" width="15.77" height="15.77" transform="translate(-542 472.86) rotate(-39.57)"/>
        <rect class="cls-31" x="390.47" y="971.63" width="15.77" height="15.77" transform="translate(-532.73 478.29) rotate(-39.57)"/>
        <rect class="cls-31" x="370.41" y="947.03" width="15.77" height="15.77" transform="translate(-521.65 459.87) rotate(-39.57)"/>
        <rect class="cls-62" x="380.36" y="959.31" width="15.77" height="15.77" transform="translate(-527.19 469.02) rotate(-39.57)"/>
        <rect class="cls-31" x="392.53" y="949.13" width="15.77" height="15.77" transform="translate(-517.92 474.45) rotate(-39.57)"/>
        <rect class="cls-31" x="372.59" y="924.8" width="15.77" height="15.77" transform="translate(-506.99 456.17) rotate(-39.57)"/>
        <rect class="cls-62" x="382.54" y="937.08" width="15.77" height="15.77" transform="translate(-512.53 465.32) rotate(-39.57)"/>
        <rect class="cls-31" x="394.72" y="926.9" width="15.77" height="15.77" transform="translate(-503.26 470.74) rotate(-39.57)"/>
        <rect class="cls-31" x="374.69" y="902.7" width="15.77" height="15.77" transform="translate(-492.43 452.44) rotate(-39.57)"/>
        <rect class="cls-62" x="384.64" y="914.98" width="15.77" height="15.77" transform="translate(-497.97 461.59) rotate(-39.57)"/>
        <rect class="cls-31" x="396.81" y="904.8" width="15.77" height="15.77" transform="translate(-488.69 467.01) rotate(-39.57)"/>
        <rect class="cls-31" x="376.79" y="880.59" width="15.77" height="15.77" transform="translate(-477.86 448.71) rotate(-39.57)"/>
        <rect class="cls-62" x="386.74" y="892.87" width="15.77" height="15.77" transform="translate(-483.4 457.86) rotate(-39.57)"/>
        <rect class="cls-31" x="398.91" y="882.69" width="15.77" height="15.77" transform="translate(-474.13 463.28) rotate(-39.57)"/>
        <rect class="cls-31" x="378.89" y="858.49" width="15.77" height="15.77" transform="translate(-463.3 444.98) rotate(-39.57)"/>
        <rect class="cls-62" x="388.84" y="870.76" width="15.77" height="15.77" transform="translate(-468.84 454.13) rotate(-39.57)"/>
        <rect class="cls-31" x="401.01" y="860.59" width="15.77" height="15.77" transform="translate(-459.57 459.56) rotate(-39.57)"/>
        <rect class="cls-31" x="380.98" y="836.46" width="15.77" height="15.77" transform="translate(-448.79 441.26) rotate(-39.57)"/>
        <rect class="cls-62" x="390.93" y="848.74" width="15.77" height="15.77" transform="translate(-454.33 450.42) rotate(-39.57)"/>
        <rect class="cls-31" x="403.11" y="838.56" width="15.77" height="15.77" transform="translate(-445.05 455.84) rotate(-39.57)"/>
        <rect class="cls-31" x="383.08" y="814.36" width="15.77" height="15.77" transform="translate(-434.22 437.53) rotate(-39.57)"/>
        <rect class="cls-62" x="393.03" y="826.63" width="15.77" height="15.77" transform="translate(-439.76 446.69) rotate(-39.57)"/>
        <rect class="cls-31" x="405.21" y="816.46" width="15.77" height="15.77" transform="translate(-430.49 452.11) rotate(-39.57)"/>
        <rect class="cls-31" x="385.22" y="792.33" width="15.77" height="15.77" transform="translate(-419.7 433.85) rotate(-39.57)"/>
        <rect class="cls-62" x="395.17" y="804.61" width="15.77" height="15.77" transform="translate(-425.24 443) rotate(-39.57)"/>
        <polyline class="cls-62" points="406.37 799.39 404.2 801.26 394.15 789.1 394.79 788.58"/>
        <polygon class="cls-31" points="414.17 813.42 404.13 801.26 406.37 799.39 417.67 810.59 414.17 813.42"/>
      </g>
      <path class="cls-61" d="M405.84,677.88l7.92-1.8c4.18-18.72,14.25-58.61,30.99-72.69,0,0,61.57-15.41,92.58,15.09,0,0,8.58,9.6,1.03,59.04,0,0,15.98-30.31,11.53-61.71,0,0,10.87-4.62,12.8-7.41,0,0-12.94-.47-17.78-8.19-2.84-4.52-44.29-56.17-109.7-27.2,0,0-57.4,.74-53.14,88.9,0,0,18.67-2.69,23.76,15.95Z"/>
      <path class="cls-61" d="M452.52,734.26s.8-14.49,13.23-16.13c15.26-2.01,31.17-.7,41.5,6.88,10.32,7.58,15.41,14.91,6.38,13.89-9.03-1.02-25.33-14.86-45.85-8.19,0,0-8.62,6.6-15.26,3.56Z"/>
      <path class="cls-20" d="M378.7,921.09l49.07,80.57c29.9-13.52,179.14-40.14,179.14-40.14l16.11-29.77,27.31-14.47s4.92,.27,3.82,4.92c-1.09,4.64-7.65,10.65-7.65,10.65l30.58-14.2,30.58-7.1s4.92,2.73,3.28,6.28-6.28,6.01-6.28,6.01l-17.48,3.82-16.93,12.29,44.24-14.75s4.64-.27,4.92,3.82c.27,4.1-4.37,7.37-4.37,7.37l-22.67,7.92-12.83,8.74,34.95-12.83s6.01-.82,6.55,3-1.09,5.46-3.55,7.1-32.77,14.47-32.77,14.47l26.49-6.28s4.64,2.46,1.09,4.92-26.49,10.92-26.49,10.92l-25.94,16.93-45.88,6.55s-134.63,80.83-205.49,75.51c0,0-38.09,0-73.32-45.88l-39.22-57.94"/>
      <polygon class="cls-30" points="704.91 828.67 715.83 827.58 711.46 890.39 704.91 828.67"/>
      <polygon class="cls-30" points="754.35 830.81 764.99 833.51 739.46 891.06 754.35 830.81"/>
      <polygon class="cls-30" points="810.89 869.24 817.05 878.33 759.73 904.38 810.89 869.24"/>
      <polygon class="cls-30" points="826.14 922.94 826.62 933.91 764.15 926.05 826.14 922.94"/>
      <polygon class="cls-30" points="818.52 977.59 813.99 987.59 761.84 952.32 818.52 977.59"/>
      <path class="cls-17" d="M307.96,804.09c54.33,6.73,79.51,123.61,79.51,123.61l-95.07,45.28s-19.63-22.2-29.54-45.07"/>
      <g>
        <polyline class="cls-31" points="379.33 909.8 372.47 928.05 354.33 921.24 361.49 902.17 378.9 908.69"/>
        <polygon class="cls-62" points="373.06 896.51 378.9 908.69 361.68 902.2 367.7 886.1 373.06 896.51"/>
        <polyline class="cls-31" points="367.61 886.06 361.53 902.26 343.39 895.45 350.55 876.38 365.37 881.95"/>
        <rect class="cls-31" x="331.42" y="917.62" width="20.37" height="19.38" transform="translate(-646.6 921.05) rotate(-69.41)"/>
        <rect class="cls-62" x="338.77" y="898.57" width="20.37" height="19.38" transform="translate(-624.01 915.58) rotate(-69.41)"/>
        <rect class="cls-31" x="320.48" y="891.82" width="20.37" height="19.38" transform="translate(-629.55 894.08) rotate(-69.41)"/>
        <rect class="cls-31" x="306.23" y="929.81" width="20.37" height="19.38" transform="translate(-674.35 905.38) rotate(-69.41)"/>
        <rect class="cls-62" x="313.58" y="910.77" width="20.37" height="19.38" transform="translate(-651.76 899.91) rotate(-69.41)"/>
        <rect class="cls-31" x="295.29" y="904.02" width="20.37" height="19.38" transform="translate(-657.3 878.41) rotate(-69.41)"/>
        <rect class="cls-62" x="288.39" y="922.97" width="20.37" height="19.38" transform="translate(-679.52 884.23) rotate(-69.41)"/>
        <rect class="cls-31" x="281.08" y="942.25" width="20.37" height="19.38" transform="translate(-702.3 889.89) rotate(-69.41)"/>
        <rect class="cls-31" x="270.14" y="916.45" width="20.37" height="19.38" transform="translate(-685.25 862.93) rotate(-69.41)"/>
        <polyline class="cls-62" points="266.12 936.97 267.93 932.15 286.07 938.97 278.91 958.03"/>
      </g>
    </g>
  </g>
</svg>