<?xml version="1.0" encoding="UTF-8"?>
<svg id="Layer_1" data-name="Layer 1" xmlns="http://www.w3.org/2000/svg" xmlns:xlink="http://www.w3.org/1999/xlink" viewBox="0 0 1335.05 999.94">
  <defs>
    <style>
      .cls-1, .cls-2, .cls-3, .cls-4, .cls-5, .cls-6, .cls-7, .cls-8, .cls-9, .cls-10 {
        fill: none;
      }

      .cls-2, .cls-3, .cls-4, .cls-5, .cls-11, .cls-6, .cls-7, .cls-8, .cls-12, .cls-13, .cls-14, .cls-9, .cls-10 {
        stroke-miterlimit: 10;
      }

      .cls-2, .cls-3, .cls-4, .cls-12, .cls-13, .cls-14 {
        stroke-width: 1.5px;
      }

      .cls-2, .cls-11 {
        stroke: #231f20;
      }

      .cls-3 {
        stroke: #006838;
      }

      .cls-4, .cls-12, .cls-13 {
        stroke: #754c29;
      }

      .cls-15 {
        clip-path: url(#clippath);
      }

      .cls-5 {
        stroke: #dea962;
        stroke-width: 15px;
      }

      .cls-16 {
        fill: #f05380;
      }

      .cls-17 {
        fill: #fff;
      }

      .cls-18 {
        fill: #efcccd;
      }

      .cls-19 {
        fill: #803435;
      }

      .cls-20 {
        fill: #8c3333;
      }

      .cls-21 {
        fill: #b6302e;
      }

      .cls-22 {
        fill: #8b5e3c;
      }

      .cls-23 {
        fill: #ae8578;
      }

      .cls-24 {
        fill: #a97c50;
      }

      .cls-25, .cls-13, .cls-14 {
        fill: #be9e7d;
      }

      .cls-26 {
        fill: #bf6b6b;
      }

      .cls-27, .cls-28 {
        fill: #dea962;
      }

      .cls-29, .cls-11 {
        fill: #c7624e;
      }

      .cls-30 {
        fill: #dc3b28;
      }

      .cls-31 {
        fill: #231f20;
      }

      .cls-32 {
        fill: #404577;
      }

      .cls-33 {
        fill: #07935b;
      }

      .cls-34 {
        fill: #3a4851;
      }

      .cls-35 {
        fill: #3c2415;
      }

      .cls-36 {
        fill: #58595b;
      }

      .cls-37 {
        fill: #5f6275;
      }

      .cls-38 {
        fill: #26130f;
      }

      .cls-11 {
        stroke-linecap: round;
        stroke-width: 4px;
      }

      .cls-6 {
        stroke-width: 2px;
      }

      .cls-6, .cls-8 {
        stroke: #be1e2d;
      }

      .cls-7, .cls-14 {
        stroke: #603913;
      }

      .cls-12 {
        fill: #dcbf97;
      }

      .cls-28, .cls-39 {
        opacity: .8;
      }

      .cls-39 {
        fill: #edb36e;
      }

      .cls-40 {
        fill: #27aae1;
        opacity: .4;
      }

      .cls-9 {
        stroke: #fff;
      }

      .cls-9, .cls-10 {
        stroke-width: .5px;
      }

      .cls-10 {
        stroke: #fff200;
      }
    </style>
    <clipPath id="clippath">
      <path class="cls-1" d="M890.64,385.4s-2.82,5.29,22.2,43.18l3.17,13.92-10.04,18.15-13.22-6.17-5.82-41.59-.35-26.26,4.05-1.23Z"/>
    </clipPath>
  </defs>
  <g>
    <rect class="cls-24" y="780.53" width="1334.06" height="219.41"/>
    <rect class="cls-22" x="18.9" y="858.71" width="403.5" height="73.62"/>
    <rect class="cls-22" x="20.36" y="955.24" width="403.5" height="42.54"/>
    <rect class="cls-22" x="1093.53" y="858.71" width="240.64" height="73.62"/>
    <rect class="cls-22" x="1094.41" y="955.24" width="240.64" height="42.54"/>
    <g>
      <rect class="cls-40" x="271.91" y="36.98" width="1025.32" height="491.05"/>
      <rect class="cls-39" x="54.76" width="128.05" height="780.37"/>
      <rect class="cls-28" x=".14" width="55.06" height="780.37"/>
      <rect class="cls-28" x="1204.68" y="558.84" width="128.05" height="221.7"/>
      <rect class="cls-39" x="1077.04" y="558.84" width="128.05" height="221.7"/>
      <rect class="cls-28" x="949.41" y="558.84" width="128.05" height="221.7"/>
      <rect class="cls-39" x="821.78" y="558.84" width="128.05" height="221.7"/>
      <rect class="cls-28" x="693.4" y="558.84" width="128.05" height="221.7"/>
      <rect class="cls-39" x="565.77" y="558.84" width="128.05" height="221.7"/>
      <rect class="cls-28" x="181.52" y="558.84" width="134.03" height="221.7"/>
      <rect class="cls-28" x="183.03" y=".9" width="93.15" height="557.41"/>
      <rect class="cls-28" x="438.14" y="558.84" width="128.05" height="221.7"/>
      <rect class="cls-39" x="310.51" y="558.84" width="128.05" height="221.7"/>
      <rect class="cls-27" x="1296.89" y=".39" width="36.47" height="565.23"/>
      <rect class="cls-27" x="236.13" y=".39" width="36.47" height="565.23"/>
      <rect class="cls-27" x="768.92" y=".39" width="36.47" height="565.23"/>
      <rect class="cls-27" x="766.34" y="-493.92" width="36.47" height="1025.32" transform="translate(765.83 803.31) rotate(-90)"/>
      <rect class="cls-27" x="766.34" y="33.6" width="36.47" height="1025.32" transform="translate(238.31 1330.83) rotate(-90)"/>
      <line class="cls-5" x1="791.64" y1="532.54" x2="1313.3" y2="20.33"/>
      <line class="cls-5" x1="791.64" y1="442.71" x2="1225.04" y2="18.76"/>
      <line class="cls-5" x1="791.64" y1="344.99" x2="1129.69" y2="16.39"/>
      <line class="cls-5" x1="791.64" y1="245.7" x2="1027.25" y2="19.55"/>
      <line class="cls-5" x1="791.64" y1="143.26" x2="929.54" y2="14.82"/>
      <line class="cls-5" x1="884.23" y1="547.12" x2="1308.17" y2="113.71"/>
      <line class="cls-5" x1="981.94" y1="547.12" x2="1310.54" y2="209.06"/>
      <line class="cls-5" x1="1081.23" y1="547.12" x2="1307.39" y2="311.5"/>
      <line class="cls-5" x1="1183.67" y1="547.12" x2="1312.11" y2="409.22"/>
      <line class="cls-5" x1="779.03" y1="532.54" x2="257.37" y2="20.33"/>
      <line class="cls-5" x1="779.03" y1="442.71" x2="345.62" y2="18.76"/>
      <line class="cls-5" x1="779.03" y1="344.99" x2="440.97" y2="16.39"/>
      <line class="cls-5" x1="779.03" y1="245.7" x2="543.41" y2="19.55"/>
      <line class="cls-5" x1="779.03" y1="143.26" x2="641.13" y2="14.82"/>
      <line class="cls-5" x1="686.44" y1="547.12" x2="262.49" y2="113.71"/>
      <line class="cls-5" x1="588.72" y1="547.12" x2="260.13" y2="209.06"/>
      <line class="cls-5" x1="489.44" y1="547.12" x2="263.28" y2="311.5"/>
      <line class="cls-5" x1="386.99" y1="547.12" x2="258.55" y2="409.22"/>
      <rect class="cls-27" x="7.78" y="202.48" width="218.34" height="26.44"/>
      <path class="cls-32" d="M68,315.81s-18.89-101.24,2.27-103.5c21.15-2.27,9.07,101.99,9.07,101.99"/>
      <path class="cls-37" d="M165.8,291.42s-18.89-77.39,2.27-79.12c21.15-1.73,9.07,77.97,9.07,77.97"/>
      <circle class="cls-32" cx="75.34" cy="379.6" r="72.9"/>
      <circle class="cls-37" cx="172.91" cy="314.53" r="40.8"/>
    </g>
    <rect class="cls-29" x="474.35" y="912.04" width="177.24" height="86.95"/>
    <rect class="cls-29" x="663.13" y="912.04" width="177.24" height="86.95"/>
    <rect class="cls-29" x="854.21" y="912.04" width="177.24" height="86.95"/>
    <rect class="cls-29" x="375.95" y="812.5" width="177.24" height="86.95"/>
    <rect class="cls-29" x="564.73" y="812.5" width="177.24" height="86.95"/>
    <rect class="cls-29" x="755.81" y="812.5" width="177.24" height="86.95"/>
    <line class="cls-11" x1="523.01" y1="774.42" x2="926.53" y2="774.42"/>
  </g>
  <g>
    <path class="cls-25" d="M771.43,618.3l-149,103.2s-52.92,33.01-94.88-25.08c-28.29-39.17-7.54-84.92-7.54-84.92l94.49-49.21s9.5,37.16,8.47,46.43c0,0,64.34-22.97,121.84-33.24"/>
    <path class="cls-34" d="M542.88,933.53s-8.2,45.55-10.18,65.39l-345.31-.38-.11-78.29,355.59,13.28Z"/>
    <path class="cls-25" d="M324.7,280.68s3.42,37.83-13.35,69.97c0,0-5.99,113.29,83.43,122.37,0,0,117.16-69.6,36.08-121.01l-106.17-71.33Z"/>
    <path class="cls-30" d="M299.02,359.17s-74.71,29.26-98.47,65.87c0,0-14.48,12.67-24.76,58.91,0,0-23.12,91.3-27.76,138.35,0,0-14.1,70.88,60.78,66.9l-21.53,231.06s28.81,38.4,201.32,40.74c0,0,104.18,3.97,164.7-31.75,0,0-10.16-159.39-12.79-318.41,0,0,36.21-6.28,72.94-49.22l-43.08-122.15s-.66-5.48-46.58-38.46c0,0-36.15-19.16-62-30.15l-49.74,32.92-16.16,45.93-26.43-43.5s5.32-2.18-70.45-47.04Z"/>
    <path class="cls-25" d="M486.03,135.51s18.57,26.34,14,89.84c0,0-2.6,15.25-.95,23.48,1.66,8.23,1.71,21.93-1.37,30.73s-25.8,67.82-25.8,67.82c0,0-7.42,17.11-37.4,17.5-29.98,.38-55.45-10.52-66.27-23.14-10.82-12.62-37.87-33.03-40.58-52.45,0,0-17.79,4.09-25.09-17.3,0,0-19.45-33.24-.11-41.95,19.34-8.71,30.61,18.06,30.61,18.06,0,0-23.2-78.82,20.97-109.62,0,0,54.45-45.6,131.99-2.97Z"/>
    <path class="cls-35" d="M425.2,196.12s-31.02-4.32-50.02,13.37c0,0,11.68-22.11,49.39-20.83,0,0,6.83,3.62,.62,7.46Z"/>
    <path class="cls-35" d="M499.35,209.14c-16.78-12.97-33.56-13.75-33.56-13.75-5.29-5.02,2.13-7.18,2.13-7.18,11.59,2,26.55,9.05,32.56,12.64,0,0-.33,8.9-1.12,8.29Z"/>
    <path class="cls-2" d="M301.35,244.27s7.9-10.57,15.38,1.12c7.48,11.69,7.7,15.46,7.7,15.46,0,0-10.61-18.49-16.07-4.47"/>
    <path class="cls-38" d="M441.05,362.58s-31.14,3.79-52.43-6.43c0,0-13.04-4.13-30.21-24.04,0,0,16.58,29.3,48.74,33.54,0,0,14.39,3.42,29.09-1.52,0,0,4.09,1.57,4.82-1.55Z"/>
    <path class="cls-6" d="M273.11,657.95s69.64-197-30.53-237.84"/>
    <line class="cls-6" x1="538.31" y1="615.16" x2="542.6" y2="479.85"/>
    <path class="cls-23" d="M470.37,311.42s-11.21-16.79-28.09-12.13c0,0-12.52-8.75-37.61,7.26,0,0,11.66,16.43,35.4,16.21,23.74-.22,30.3-11.34,30.3-11.34Z"/>
    <path class="cls-19" d="M466.89,312.2s-8.22-9.19-25.41-9.89c-17.19-.7-33.67,5.25-33.67,5.25,0,0,25.09,4.01,31.9,8.42,0,0,12.82-3.68,27.18-3.78Z"/>
    <path class="cls-17" d="M460.07,307.32s-11.75-9.8-41.5-2.66c0,0,25.16-1.12,41.5,2.66Z"/>
    <path class="cls-38" d="M433.22,185.22s6.36,8.36,.16,15.43c0,0,11.05-6.75-.16-15.43Z"/>
    <path class="cls-38" d="M457.14,184.22s-4.52,8.87,1.81,14.79c0,0-10.54-4.93-1.81-14.79Z"/>
    <path class="cls-14" d="M622.97,608.71s-35.98-1.96-47.06,22.29"/>
    <path class="cls-25" d="M744.81,575.48c4.99-1.05,9.86-2.01,14.55-2.85,0,0,6.22-25.13,50.53-31.06l27.85-14.18s17.38-3.74,9.61,11.82c0,0-9.55,7.65-17.65,12.23l18.05,12.91s-.69-3.11,10.89,.56c9.41,2.98,6.37,5.41,6.37,5.41,0,0,10.14-10.71,22.49-19.2,8.03-5.53,11.66-13.27,21.32-8.19,0,0,8.51,5.69-3.92,16.85l-24.55,29.76-55.1,16.97-40.02,1.56-13.8,10.22"/>
    <path class="cls-14" d="M821.46,547.22s5.03,1.85,8.23,4.35"/>
    <path class="cls-14" d="M796.26,589.16s17.81-17.2,27.15-17.83c0,0,4.02,.12,9.24-7.08,4.96-6.85,6.24-15.48,12.84-13.16,9.56,3.35,2.26,13.26,2.26,13.26l-15.09,22.54"/>
    <path class="cls-14" d="M759.35,572.63s2.66,9.93,12.91,16.76"/>
    <path class="cls-14" d="M843.39,570.8l6.71-9.06,.96-13.54s.88-6.8,7.8-7.24c7.72-.49,7.84,8.68,7.84,8.68l-2.74,18.01-12.71,19.82"/>
    <path class="cls-14" d="M863.97,567.65l4.2-4.5,.96-13.54s.88-6.8,7.8-7.24c7.72-.49,7.84,8.68,7.84,8.68l-2.74,18.01-12.71,19.82"/>
    <g>
      <path class="cls-17" d="M393.54,223.45s0-.69,.53-1.26c1.73-1.88,5.71-5.37,11.86-5.26,6.89,.12,10.57,6.66,11.82,8.99,.22,.4,.19,.75,.19,.75,0,0,.02,.38-.22,.65-1.12,1.26-4.85,4.75-11.38,4.74-3.88,0-9.3-2.19-12.58-7.52-.23-.37-.24-.84-.22-1.09Z"/>
      <circle class="cls-38" cx="407.73" cy="224.92" r="7.12"/>
      <circle class="cls-17" cx="403.26" cy="223.39" r="1.95"/>
      <path class="cls-2" d="M418.17,225.94s-8.09-16.59-24.37-3.81"/>
    </g>
    <g>
      <path class="cls-17" d="M472.88,230.66s-.09-.64,.31-1.25c1.34-1.99,4.54-5.81,10.28-6.59,6.42-.87,10.78,4.68,12.28,6.67,.26,.34,.28,.67,.28,.67,0,0,.07,.35-.11,.63-.86,1.33-3.83,5.12-9.9,6.03-3.61,.55-8.96-.71-12.78-5.2-.27-.31-.34-.75-.36-.98Z"/>
      <circle class="cls-38" cx="486.28" cy="229.98" r="6.68"/>
      <circle class="cls-17" cx="481.71" cy="229.34" r="1.87"/>
      <path class="cls-2" d="M495.88,229.7s-9.53-15.25-22.86,0"/>
    </g>
    <polygon class="cls-20" points="301.05 347.94 314.16 345.87 311.73 361.28 301.05 347.94"/>
    <path class="cls-21" d="M289.97,362.61s58.66,36.11,89.32,61.36l-4.06-18.94s-56.4-33.39-74.18-57.09l-11.08,14.67Z"/>
    <path class="cls-21" d="M441.05,362.58s25.24-.83,24.28,15.52l-55.84,40.46,2.56-14.78s24.34-12.17,40.31-31.86c0,0-10.71-1.44-11.31-9.33Z"/>
    <path class="cls-8" d="M395.18,449.9s17.11,163.63,14.4,510.99"/>
    <ellipse class="cls-18" cx="408.71" cy="497.57" rx="4.06" ry="4.4"/>
    <ellipse class="cls-18" cx="413.01" cy="574.43" rx="4.06" ry="4.4"/>
    <ellipse class="cls-18" cx="416.04" cy="657.29" rx="4.06" ry="4.4"/>
    <ellipse class="cls-18" cx="417.78" cy="741.52" rx="4.06" ry="4.4"/>
    <ellipse class="cls-18" cx="418.74" cy="822.67" rx="4.06" ry="4.4"/>
    <ellipse class="cls-18" cx="417.31" cy="913.75" rx="4.06" ry="4.4"/>
    <g>
      <polygon class="cls-18" points="337.29 958.19 344.42 949.74 328.23 934.68 313.17 950.86 318.09 955.61 337.29 958.19"/>
      <polygon class="cls-18" points="364.43 960.78 375.57 948.61 359.38 933.55 344.32 949.74 354.35 959.83 364.43 960.78"/>
      <rect class="cls-18" x="316.61" y="907.87" width="22.11" height="22.11" transform="translate(-568.3 532.89) rotate(-47.07)"/>
      <rect class="cls-36" x="332.69" y="923.12" width="22.11" height="22.11" transform="translate(-574.34 549.52) rotate(-47.07)"/>
      <rect class="cls-18" x="347.75" y="906.75" width="22.11" height="22.11" transform="translate(-557.55 555.33) rotate(-47.07)"/>
      <rect class="cls-18" x="315.58" y="876.57" width="22.11" height="22.11" transform="translate(-545.72 522.15) rotate(-47.07)"/>
      <rect class="cls-36" x="331.66" y="891.82" width="22.11" height="22.11" transform="translate(-551.75 538.78) rotate(-47.07)"/>
      <rect class="cls-18" x="346.72" y="875.45" width="22.11" height="22.11" transform="translate(-534.96 544.59) rotate(-47.07)"/>
      <rect class="cls-18" x="314.46" y="845.46" width="22.11" height="22.11" transform="translate(-523.3 511.41) rotate(-47.07)"/>
      <rect class="cls-36" x="330.54" y="860.71" width="22.11" height="22.11" transform="translate(-529.33 528.04) rotate(-47.07)"/>
      <rect class="cls-18" x="345.6" y="844.33" width="22.11" height="22.11" transform="translate(-512.54 533.85) rotate(-47.07)"/>
      <rect class="cls-18" x="313.33" y="814.34" width="22.11" height="22.11" transform="translate(-500.87 500.67) rotate(-47.07)"/>
      <rect class="cls-36" x="329.41" y="829.59" width="22.11" height="22.11" transform="translate(-506.91 517.3) rotate(-47.07)"/>
      <rect class="cls-18" x="344.48" y="813.22" width="22.11" height="22.11" transform="translate(-490.12 523.11) rotate(-47.07)"/>
      <rect class="cls-18" x="312.21" y="783.22" width="22.11" height="22.11" transform="translate(-478.45 489.92) rotate(-47.07)"/>
      <rect class="cls-36" x="328.29" y="798.47" width="22.11" height="22.11" transform="translate(-484.48 506.56) rotate(-47.07)"/>
      <rect class="cls-18" x="343.36" y="782.1" width="22.11" height="22.11" transform="translate(-467.7 512.37) rotate(-47.07)"/>
      <rect class="cls-18" x="311.09" y="752.22" width="22.11" height="22.11" transform="translate(-456.1 479.22) rotate(-47.07)"/>
      <rect class="cls-36" x="327.17" y="767.46" width="22.11" height="22.11" transform="translate(-462.14 495.85) rotate(-47.07)"/>
      <rect class="cls-18" x="342.24" y="751.09" width="22.11" height="22.11" transform="translate(-445.35 501.66) rotate(-47.07)"/>
      <rect class="cls-18" x="309.97" y="721.1" width="22.11" height="22.11" transform="translate(-433.68 468.48) rotate(-47.07)"/>
      <rect class="cls-36" x="326.05" y="736.35" width="22.11" height="22.11" transform="translate(-439.72 485.11) rotate(-47.07)"/>
      <rect class="cls-18" x="341.12" y="719.98" width="22.11" height="22.11" transform="translate(-422.93 490.92) rotate(-47.07)"/>
      <rect class="cls-18" x="308.85" y="690.09" width="22.11" height="22.11" transform="translate(-411.33 457.77) rotate(-47.07)"/>
      <rect class="cls-36" x="324.93" y="705.34" width="22.11" height="22.11" transform="translate(-417.37 474.4) rotate(-47.07)"/>
      <rect class="cls-18" x="340" y="688.97" width="22.11" height="22.11" transform="translate(-400.58 480.21) rotate(-47.07)"/>
      <rect class="cls-18" x="307.73" y="658.98" width="22.11" height="22.11" transform="translate(-388.91 447.03) rotate(-47.07)"/>
      <rect class="cls-36" x="323.81" y="674.22" width="22.11" height="22.11" transform="translate(-394.95 463.66) rotate(-47.07)"/>
      <rect class="cls-18" x="338.87" y="657.85" width="22.11" height="22.11" transform="translate(-378.16 469.47) rotate(-47.07)"/>
      <rect class="cls-18" x="306.61" y="627.97" width="22.11" height="22.11" transform="translate(-366.57 436.32) rotate(-47.07)"/>
      <rect class="cls-36" x="322.69" y="643.22" width="22.11" height="22.11" transform="translate(-372.6 452.96) rotate(-47.07)"/>
      <rect class="cls-18" x="337.76" y="626.85" width="22.11" height="22.11" transform="translate(-355.81 458.77) rotate(-47.07)"/>
      <rect class="cls-18" x="305.37" y="596.31" width="22.11" height="22.11" transform="translate(-343.78 425.32) rotate(-47.07)"/>
      <rect class="cls-36" x="321.45" y="611.55" width="22.11" height="22.11" transform="translate(-349.82 441.95) rotate(-47.07)"/>
      <rect class="cls-18" x="336.52" y="595.18" width="22.11" height="22.11" transform="translate(-333.03 447.76) rotate(-47.07)"/>
      <rect class="cls-18" x="304.34" y="565" width="22.11" height="22.11" transform="translate(-321.19 414.58) rotate(-47.07)"/>
      <rect class="cls-36" x="320.42" y="580.25" width="22.11" height="22.11" transform="translate(-327.23 431.22) rotate(-47.07)"/>
      <rect class="cls-18" x="335.49" y="563.88" width="22.11" height="22.11" transform="translate(-310.44 437.03) rotate(-47.07)"/>
      <rect class="cls-18" x="303.22" y="533.89" width="22.11" height="22.11" transform="translate(-298.77 403.84) rotate(-47.07)"/>
      <rect class="cls-36" x="319.3" y="549.14" width="22.11" height="22.11" transform="translate(-304.81 420.48) rotate(-47.07)"/>
      <rect class="cls-18" x="334.36" y="532.77" width="22.11" height="22.11" transform="translate(-288.02 426.29) rotate(-47.07)"/>
      <rect class="cls-18" x="302.1" y="502.77" width="22.11" height="22.11" transform="translate(-276.35 393.1) rotate(-47.07)"/>
      <rect class="cls-36" x="318.18" y="518.02" width="22.11" height="22.11" transform="translate(-282.38 409.73) rotate(-47.07)"/>
      <rect class="cls-18" x="333.24" y="501.65" width="22.11" height="22.11" transform="translate(-265.6 415.54) rotate(-47.07)"/>
      <rect class="cls-18" x="300.97" y="471.66" width="22.11" height="22.11" transform="translate(-253.92 382.36) rotate(-47.07)"/>
      <rect class="cls-36" x="317.05" y="486.91" width="22.11" height="22.11" transform="translate(-259.96 398.99) rotate(-47.07)"/>
      <rect class="cls-18" x="332.12" y="470.53" width="22.11" height="22.11" transform="translate(-243.17 404.8) rotate(-47.07)"/>
      <rect class="cls-18" x="299.86" y="440.65" width="22.11" height="22.11" transform="translate(-231.58 371.65) rotate(-47.07)"/>
      <rect class="cls-36" x="315.94" y="455.9" width="22.11" height="22.11" transform="translate(-237.62 388.29) rotate(-47.07)"/>
      <rect class="cls-18" x="331" y="439.53" width="22.11" height="22.11" transform="translate(-220.83 394.09) rotate(-47.07)"/>
      <rect class="cls-18" x="298.73" y="409.53" width="22.11" height="22.11" transform="translate(-209.16 360.91) rotate(-47.07)"/>
      <rect class="cls-36" x="314.81" y="424.78" width="22.11" height="22.11" transform="translate(-215.19 377.54) rotate(-47.07)"/>
      <rect class="cls-18" x="329.88" y="408.41" width="22.11" height="22.11" transform="translate(-198.4 383.35) rotate(-47.07)"/>
      <rect class="cls-18" x="297.68" y="378.52" width="22.11" height="22.11" transform="translate(-186.79 350.25) rotate(-47.07)"/>
      <rect class="cls-36" x="313.76" y="393.77" width="22.11" height="22.11" transform="translate(-192.82 366.88) rotate(-47.07)"/>
      <polyline class="cls-36" points="327.03 386.01 324.36 389 308.17 373.94 308.95 373.1"/>
      <polygon class="cls-18" points="340.44 404.08 324.25 389.02 327.03 386.01 344.78 399.52 340.44 404.08"/>
    </g>
    <g>
      <polyline class="cls-18" points="277.98 632.37 254.82 644.57 243.12 622.36 267.32 609.61 278.57 630.91"/>
      <polygon class="cls-36" points="283.79 613.88 278.57 630.91 267.49 609.8 287.9 599.02 283.79 613.88"/>
      <polyline class="cls-18" points="287.84 598.91 267.28 609.73 255.59 587.52 279.79 574.78 289.35 592.93"/>
      <rect class="cls-18" x="211.48" y="604.95" width="27.35" height="25.1" transform="translate(-261.75 176) rotate(-27.77)"/>
      <rect class="cls-36" x="235.85" y="592.39" width="27.35" height="25.1" transform="translate(-253.09 185.9) rotate(-27.77)"/>
      <rect class="cls-18" x="223.94" y="570.11" width="27.35" height="25.1" transform="translate(-244.08 177.79) rotate(-27.77)"/>
      <rect class="cls-18" x="175.74" y="595.52" width="27.35" height="25.1" transform="translate(-261.47 158.26) rotate(-27.77)"/>
      <rect class="cls-36" x="200.11" y="582.96" width="27.35" height="25.1" transform="translate(-252.82 168.17) rotate(-27.77)"/>
      <rect class="cls-18" x="188.2" y="560.68" width="27.35" height="25.1" transform="translate(-243.81 160.06) rotate(-27.77)"/>
      <polygon class="cls-18" points="171.62 603.38 147.93 616.1 152.68 585 159.92 581.16 171.62 603.38"/>
      <rect class="cls-36" x="164.36" y="573.53" width="27.35" height="25.1" transform="translate(-252.54 150.43) rotate(-27.77)"/>
      <polygon class="cls-18" points="184.08 568.54 159.88 581.28 154.85 572.04 158.62 553.57 172.39 546.33 184.08 568.54"/>
      <polyline class="cls-36" points="154.85 572.04 160.24 581.39 152.68 585"/>
    </g>
    <path class="cls-2" d="M453.6,235.03l14.74,24.22s7.92,18.48-4.34,21.64c-10.9,2.81-11.25,.42-11.25,.42"/>
    <path class="cls-35" d="M331.58,248.45l9.49-4.32c.4-24.61,2.72-77.35,20.11-99.38,0,0,73.38-35.32,120.25-5.02,0,0,15.87,12.13,19.21,76.22,0,0,9.62-44.52-4.1-82.82,0,0,12.46-8.63,14.17-12.63,0,0-16.38,2.76-24.47-5.68-4.74-4.95-70.21-59.11-144.9-5.76,0,0-72.63,13.75-44.44,123.44,0,0,23.46-6.16,34.68,15.95Z"/>
    <path class="cls-35" d="M397.76,306.97s-.93-18.6,14.7-22.37c19.2-4.63,39.68-5.1,53.88,3.17,14.19,8.27,21.68,16.94,10.02,16.86s-34.32-15.54-59.61-4.27c0,0-10.11,9.59-18.99,6.6Z"/>
    <g>
      <path class="cls-25" d="M153.48,626.55s-11.21,130.2,54.31,145c89.21,20.14,131.69-165.5,131.69-165.5,0,0,29.9-121.72,31.32-163.71,0,0,1.8-29.27,14.91-37.9,13.11-8.63,1.04-67.28,1.04-67.28,0,0,20.01-28.98,6.9-38.64l-18.63,29.67-2.42,12.08s-5.18-15.18-3.45-24.84c0,0,27.26-32.09,12.42-42.78l-12.08,12.42s10.01-17.94,1.38-21.74l-11.73,11.73s2.06-7.36-2.76-6.21l-28.29,30.71s-11.94,50.12-1.59,102.91c0,0-.28,12.89-9.35,25.9-73.66,105.71-121.94,213.67-121.94,213.67l-41.74-15.49Z"/>
      <path class="cls-7" d="M195.21,642.04s-8.29,8.64-8.29,28.07"/>
      <path class="cls-7" d="M338.86,324.7l-.62-25.83,20.9-23.81,11.73-11.73s9.88,5.47-1.38,21.74l-19.87,24.57,1.54,32.29"/>
      <path class="cls-7" d="M371.32,282.57l10.42-9.93s11.11,4.08-1.2,26.53c0,0-6.87,12.46-11.39,16.25,0,0-1.52,15.87,3.45,24.84l2.42-12.08,11.99-18.87,6.81-10.8s10.72,6.81,1.49,21.88c0,0-5,12.99-8.56,16.77,0,0,12.72,51.44-1.04,67.28l-2.77,2.17"/>
      <path class="cls-7" d="M322.46,367.59s-2.22-32.37,5.64-68.03c0,0,22.73-29.8,28.29-30.71s2.76,6.21,2.76,6.21"/>
    </g>
  </g>
  <g>
    <path class="cls-25" d="M778.31,622.3s-4.96,4.53-7.48,12.7c0,0-59.81-53.89-104.33-83.59,0,0-6.72-41.87-40-52.3l-17.88-30.07s-11.69-12.64-13.17,8.7c0,0,8.72,23.52,15.78,28.45l-9.44,8.22s-6.92-17.48-14.38-16.52c-7.46,.96-8.22,12-8.22,12,0,0-2.89-22.38-16.67-26.29-13.78-3.91-5.66-14.44-16.06-13.68,0,0-11.57-3.76-2.49,14.61l10.12,35.45,47.19,44.66,29.03,7.92,99.66,157.35s32.35,47.12,88.87,13.72c38.12-22.53,37.46-68.55,37.46-68.55l-77.96-52.77Z"/>
    <path class="cls-25" d="M1044.87,373.35s-3.16,49.61,11.19,78.54c0,0,17.09,137.13-94.56,144.62,0,0-84.14-19.48-37.44-129.27,0,0,19.83-8.57,19.57-28.04-.28-20.62-2.65,.44-2.65,.44l103.9-66.3"/>
    <path class="cls-25" d="M1048.54,345.11s-1.9-104.24-94.83-113.79c0,0-78.9-.74-63.75,97.13,0,0,2.76,10.48,.06,18.4,0,0-9.75,12.02,1.18,42.72,10.93,30.7,29.14,48.87,29.14,48.87,0,0,10.84,12.68,34.01,13.49,0,0,18.29,2.66,39.32-10.17,0,0,50.97-25.41,48.99-56.27,0,0,22.57,15.77,33.62-20.44,0,0,10.05-50.25-27.74-19.94Z"/>
    <path class="cls-33" d="M1060.27,476.16s30.8,7.89,64.6,24.99c66.1,33.43,65.69,139.61,65.69,139.61,0,0-26.16,8.3-94.21,34.59l41.59,209.07s-18.78,42.1-146.64,36.03c0,0-150.43,15.68-170.36-46.42,0,0,.99-70.64,8.83-138.63,0,0-15.91-35.66-7.68-83.39l-44.32-30.51,29.63-76.7s6.97-49.68,81.93-64.04c0,0,20.28-4.82,34.7-13.51,0,0-7.79,56.74-1.28,78.6,0,0,39.08,40.33,111.08-5.61,0,0,17.06-13.37,26.42-64.09Z"/>
    <path class="cls-38" d="M967.25,307.99s33.02,3.11,42.45,18.3c0,0-3.59-19.47-40.25-25.57,0,0-7.74,1.99-2.19,7.27Z"/>
    <path class="cls-38" d="M888.17,314.2c.15-1.8,10.5-15.75,31.91-16.12,0,0,7.61,2.42,1.78,7.38,0,0-26.22-1.35-33.08,15.2,0,0-.97-2.03-.61-6.46Z"/>
    <path class="cls-2" d="M927.26,354.47s-13.35,19.19,9.36,21.84"/>
    <path class="cls-2" d="M1071.97,357.81s-6.4-17.82-20.45,10.46c0,0,11.75-12.4,13.63-1.58"/>
    <path class="cls-38" d="M937.78,448.86s16.18,8.14,44.87-1.16c0,0,14.21-5.17,32.23-19.2,0,0-22.46,24.58-55.46,26.46,0,0-10.38,.89-22.09-2.9,0,0,.96,.03,.45-3.2Z"/>
    <g>
      <path class="cls-17" d="M996.11,330.46s.04-.69-.44-1.28c-1.58-1.98-5.28-5.72-11.39-6.05-6.84-.36-10.94,5.86-12.35,8.08-.24,.38-.24,.73-.24,.73,0,0-.04,.38,.17,.66,1.02,1.32,4.47,5.05,10.94,5.5,3.85,.26,9.37-1.52,13-6.57,.25-.35,.29-.81,.3-1.06Z"/>
      <circle class="cls-38" cx="981.94" cy="330.92" r="7.08"/>
      <circle class="cls-17" cx="986.06" cy="327.57" r="1.94"/>
      <path class="cls-2" d="M971.52,331.2s9.19-15.88,24.43-2.07"/>
    </g>
    <g>
      <path class="cls-17" d="M916.13,332.03s.14-.63-.22-1.26c-1.19-2.07-4.09-6.08-9.72-7.25-6.31-1.32-11.02,3.88-12.64,5.75-.28,.32-.33,.65-.33,.65,0,0-.1,.35,.07,.64,.76,1.38,3.44,5.34,9.39,6.68,3.54,.8,8.93-.08,13.03-4.25,.29-.29,.39-.72,.43-.95Z"/>
      <circle class="cls-38" cx="902.89" cy="330.42" r="6.64"/>
      <circle class="cls-17" cx="906.72" cy="327.48" r="1.86"/>
      <path class="cls-2" d="M893.4,329.46s10.52-14.45,22.66,1.61"/>
    </g>
    <path class="cls-8" d="M1096.36,675.35s-10.07-43.08-10.08-69.31"/>
    <path class="cls-3" d="M822.44,652.71s-.88-17.16,15.03-57.21c0,0,14.26-19.75,11.52-53.21"/>
    <path class="cls-26" d="M914.67,403.42s11.92-14.15,26.81-8.19c0,0,12.29-6.7,33.51,10.43,0,0-12.29,13.78-33.89,11.17-21.6-2.61-26.44-13.41-26.44-13.41Z"/>
    <path class="cls-19" d="M917.76,404.48s8.42-7.53,24.14-6.42c15.73,1.11,30.13,8.2,30.13,8.2,0,0-23.26,1.11-29.9,4.43,0,0-11.3-4.65-24.37-6.2Z"/>
    <path class="cls-17" d="M924.47,400.73s11.7-7.73,38.07,1.78c0,0-22.8-3.57-38.07-1.78Z"/>
    <path class="cls-33" d="M820.96,874.02s-12.36,55.07-13.18,125.49l350.64-.59s5.23-80.3-20.46-114.51c0,0-176.62,87.24-317-10.39Z"/>
    <path class="cls-12" d="M620.08,505.52s-5.11-.3-8.87,.66"/>
    <path class="cls-13" d="M614.77,551.29s-5.26-11.81-13.2-15.93c0,0,3.42-13.09,.2-20.95-3.22-7.87-4.76-15.51-14.38-16.52-9.62-1.01-8.22,12-8.22,12l5.33,29.3"/>
    <path class="cls-13" d="M579.17,509.88s-2.66-23.24-16.67-26.29c-14.01-3.05-4.61,16.2-4.61,16.2l1.69,16.93"/>
    <path class="cls-12" d="M666.49,551.41s-6.12,7.68-17.71,9.74"/>
    <path class="cls-4" d="M770.83,634.99s30.93,11.54,31.35,35.97"/>
    <line class="cls-12" x1="644.03" y1="594.45" x2="688.92" y2="666.59"/>
    <line class="cls-12" x1="691.59" y1="570.4" x2="742.89" y2="612.08"/>
    <path class="cls-16" d="M1132.93,869.6s-157.13,83.41-312.78,.54l3.89-25.73s101.05,69.85,304.58-2.85l4.31,28.04Z"/>
    <path class="cls-16" d="M1061.51,578.71s-96.47,53.18-207.42-9.06l-6.79,19.27s114.01,69.94,218.76,7.09l-4.55-17.31Z"/>
    <path class="cls-31" d="M872.16,485.17c-3.12-35.54,2.27-92.14,2.27-92.14-14.37-112.96,19.61-150.3,19.61-150.3,78.57-67.13,145.1-15.39,145.1-15.39,18.41,5.67,61.89,31.14,63.31,87.79,1.42,56.65,8.07,73.51,13.74,113.17,0,0,29.47,117.55-2.07,249.34-4.8,20.05,7.28,65.54,7.28,65.54,0,0-79.84,11.84-101.94-191.98-6.64-61.2,21.9-165.34,21.9-165.34,19.34,7.98,24.64-4.23,24.64-4.23,0,0,12.15-18.11,7.77-36.86-4.46-19.03-27.24,1.24-27.24,1.24-12.63-72.43-42.71-90.63-42.71-90.63-75.25,31.96-107.29,24.36-107.29,24.36,0,0-7.38,15.32-8.18,28.2-.79,12.88,1.75,24.11,1.75,24.11,3.68,8.69,.34,18.12,.34,18.12-8.33,18.34,1.13,39.67,1.13,39.67,20.93,54.74,50.09,59.91,50.09,59.91-.25,17.91-26.71,26.19-26.71,26.19"/>
    <polyline class="cls-9" points="1131.44 861.45 1113.92 854.59 1108.53 873.46 1088.31 863.17 1081.57 882.62 1063.38 869.46 1055.29 891.77 1037.77 873.46 1026.31 894.06 1012.16 878.04 998.01 898.06 985.21 879.76 973.08 899.2 960.27 882.04 946.12 898.63 935.34 880.9 916.47 895.77 905.69 876.9 890.19 890.62 882.1 871.75 863.9 882.62 857.84 865.46 842.34 871.18 836.95 858.02 825.49 864.31"/>
    <polyline class="cls-9" points="1131.34 846.73 1121.93 870.08 1101.66 857.79 1095.14 879.91 1076.32 865.16 1069.8 886.67 1050.98 871.31 1040.12 894.05 1024.91 876.23 1012.6 897.12 998.12 879.3 985.81 897.74 971.33 881.14 960.47 899.58 948.89 881.14 932.23 897.12 921.37 878.07 904.72 892.82 895.31 874.38 877.93 887.29 869.97 868.24 851.87 879.91 846.8 860.86 833.76 870.08 827.97 852.26"/>
    <polyline class="cls-9" points="1024.3 599.82 1015.6 611.79 1004.18 601.45 997.66 613.42 986.24 604.72 974.82 617.77 966.12 605.26 956.33 615.59 949.26 604.17 937.3 613.42 929.15 601.45 916.64 611.24 909.03 598.19 897.61 605.26 891.08 592.21 876.95 597.65 871.51 584.6 857.91 590.58 855.2 577.53"/>
    <polyline class="cls-9" points="1026.48 608.52 1014.51 598.74 1006.9 613.42 995.48 601.45 987.33 616.68 976.45 604.72 965.03 617.22 956.33 604.17 947.63 615.05 939.48 601.45 928.06 613.42 919.9 598.74 908.48 608.52 900.33 593.84 889.45 603.09 882.38 587.86 867.7 595.47 863.9 578.62 851.1 590.55"/>
    <g>
      <circle class="cls-10" cx="1054.33" cy="394.75" r="14.61"/>
      <line class="cls-10" x1="1054.33" y1="409.36" x2="1054.33" y2="456.61"/>
      <line class="cls-10" x1="1065.4" y1="404.35" x2="1065.4" y2="429.6"/>
      <line class="cls-10" x1="1061.63" y1="407.44" x2="1061.63" y2="440.25"/>
      <line class="cls-10" x1="1058.02" y1="408.82" x2="1058.02" y2="448.67"/>
      <line class="cls-10" x1="1047" y1="407.44" x2="1047" y2="440.25"/>
      <line class="cls-10" x1="1050.61" y1="408.82" x2="1050.61" y2="448.67"/>
      <line class="cls-10" x1="1043.1" y1="404.35" x2="1043.1" y2="429.6"/>
    </g>
    <g class="cls-15">
      <g>
        <circle class="cls-10" cx="902.91" cy="392.77" r="14.61"/>
        <line class="cls-10" x1="902.91" y1="407.38" x2="902.91" y2="454.62"/>
        <line class="cls-10" x1="910.2" y1="421.43" x2="910.2" y2="438.27"/>
        <line class="cls-10" x1="906.59" y1="406.84" x2="906.59" y2="446.68"/>
        <line class="cls-10" x1="895.57" y1="405.46" x2="895.57" y2="438.27"/>
        <line class="cls-10" x1="899.18" y1="406.84" x2="899.18" y2="446.68"/>
        <line class="cls-10" x1="891.68" y1="402.37" x2="891.68" y2="427.62"/>
      </g>
    </g>
    <path class="cls-16" d="M776.25,622.76s36.4,27.53,46.65,30.09c0,0,.07-10.85,2.64-25.26,0,0-37.38-12.48-41.22-24.32l-8.06,19.49Z"/>
    <polyline class="cls-9" points="787.44 613.51 791.6 628.24 803.77 623.12 805.69 636.56 819.45 630.16 821.05 645.84"/>
    <polyline class="cls-9" points="783.28 624.08 795.45 618.95 799.61 634.64 811.45 626.64 814.65 643.28 823.29 635.28"/>
    <path class="cls-25" d="M1188.32,641.55s15.74,107.98,15.74,145.69-35.57,208.47-35.57,208.47l-61.19,1.42s3.56-118.11,16.36-198.51c0,0-16.47-57.71-14.47-56.84,4.01,1.76,12.21,1.4,12.21,1.4,0,0-20.2-71.77-3.93-78.45,14.87-6.1,45.14-7.02,70.85-23.18Z"/>
    <path class="cls-16" d="M1190.57,640.76s-41.03,28.86-74.38,23.79l4.72-20.56s30.16-4.77,67.59-25.48l2.07,22.25Z"/>
    <polyline class="cls-9" points="1186.1 624.82 1179.62 641.36 1165.01 633.45 1157.53 648.39 1141.76 641.36 1134.33 656.69 1121.63 648.55"/>
    <polyline class="cls-9" points="1188.01 638 1175.31 629.37 1170.04 644.71 1154.22 637.28 1145.59 652.86 1131.45 644.95 1122.11 659.57"/>
  </g>
</svg>