<?xml version="1.0" encoding="UTF-8" standalone="no"?>
<!DOCTYPE svg PUBLIC "-//W3C//DTD SVG 1.1//EN" "http://www.w3.org/Graphics/SVG/1.1/DTD/svg11.dtd">
<svg width="100%" height="100%" viewBox="0 0 446 215" version="1.1" xmlns="http://www.w3.org/2000/svg" xmlns:xlink="http://www.w3.org/1999/xlink" xml:space="preserve" xmlns:serif="http://www.serif.com/" style="fill-rule:evenodd;clip-rule:evenodd;">
    <g>
        <g>
            <clipPath id="_clip1">
                <path d="M438.334,17.779L438.334,192.779C438.334,199.402 432.957,204.779 426.334,204.779L19.334,204.779C12.711,204.779 7.334,199.402 7.334,192.779L7.334,17.779C7.334,11.156 12.711,5.779 19.334,5.779L426.334,5.779C432.957,5.779 438.334,11.156 438.334,17.779Z"/>
            </clipPath>
            <g clip-path="url(#_clip1)">
                <path d="M307.637,110.497C332.267,124.341 384.794,96.838 404.079,123.887C423.364,150.937 376.912,192.166 347.922,170.565C318.931,148.965 313.006,130.46 298.166,117.289C283.325,104.118 245.993,92.039 233.02,58.422C220.047,24.804 253.582,10.806 266.985,36.291C280.389,61.776 276.85,93.193 307.637,110.497Z" style="fill:none;fill-rule:nonzero;stroke:white;stroke-opacity:0.2;stroke-width:1px;"/>
                <path d="M318.323,105.517C342.952,119.361 395.48,91.858 414.765,118.908C434.05,145.957 387.598,187.186 358.607,165.585C329.616,143.985 323.692,125.48 308.851,112.309C294.011,99.138 256.678,87.059 243.706,53.441C230.733,19.824 264.268,5.826 277.671,31.311C291.074,56.796 287.536,88.213 318.323,105.517Z" style="fill:none;fill-rule:nonzero;stroke:white;stroke-opacity:0.2;stroke-width:1px;"/>
                <path d="M327.731,99.583C352.361,113.426 404.888,85.924 424.173,112.973C443.458,140.022 397.006,181.252 368.015,159.651C339.025,138.05 333.1,119.546 318.26,106.375C303.419,93.204 266.087,81.124 253.114,47.507C240.141,13.889 273.676,-0.109 287.079,25.376C300.483,50.861 296.944,82.279 327.731,99.583Z" style="fill:none;fill-rule:nonzero;stroke:white;stroke-opacity:0.2;stroke-width:1px;"/>
                <path d="M336.018,93.811C360.648,107.654 413.175,80.152 432.46,107.201C451.745,134.25 405.293,175.48 376.302,153.879C347.312,132.278 341.387,113.774 326.547,100.603C311.706,87.432 274.374,75.352 261.401,41.735C248.428,8.118 281.963,-5.881 295.366,19.604C308.77,45.089 305.231,76.507 336.018,93.811Z" style="fill:none;fill-rule:nonzero;stroke:white;stroke-opacity:0.2;stroke-width:1px;"/>
                <path d="M143.748,90.269C119.559,72.489 60.609,94.713 43.762,63.695C26.916,32.677 81.23,-4.809 109.017,21.716C136.803,48.24 140.663,68.521 154.614,84.329C168.565,100.136 206.379,117.695 215.72,154.825C225.062,191.955 187.887,202.389 177.041,173.78C166.195,145.172 173.984,112.494 143.748,90.269Z" style="fill:none;fill-rule:nonzero;stroke:white;stroke-opacity:0.2;stroke-width:1px;"/>
                <path d="M131.835,94.141C107.647,76.361 48.697,98.585 31.85,67.567C15.003,36.55 69.318,-0.936 97.104,25.588C124.891,52.113 128.751,72.394 142.702,88.201C156.653,104.008 194.466,121.568 203.808,158.698C213.15,195.828 175.974,206.262 165.129,177.653C154.283,149.044 162.071,116.366 131.835,94.141Z" style="fill:none;fill-rule:nonzero;stroke:white;stroke-opacity:0.2;stroke-width:1px;"/>
                <path d="M121.148,99.186C96.959,81.406 38.01,103.63 21.163,72.612C4.316,41.594 58.63,4.108 86.417,30.633C114.203,57.157 118.063,77.438 132.014,93.246C145.965,109.053 183.779,126.612 193.121,163.742C202.462,200.872 165.287,211.306 154.441,182.697C143.595,154.089 151.384,121.411 121.148,99.186Z" style="fill:none;fill-rule:nonzero;stroke:white;stroke-opacity:0.2;stroke-width:1px;"/>
                <path d="M111.662,104.203C87.473,86.423 28.523,108.647 11.676,77.629C-5.17,46.612 49.144,9.126 76.931,35.65C104.717,62.175 108.577,82.456 122.528,98.263C136.479,114.07 174.293,131.63 183.634,168.76C192.976,205.89 155.801,216.324 144.955,187.715C134.109,159.106 141.898,126.428 111.662,104.203Z" style="fill:none;fill-rule:nonzero;stroke:white;stroke-opacity:0.2;stroke-width:1px;"/>
            </g>
        </g>
    </g>
</svg>
