<?xml version="1.0" encoding="UTF-8"?>
<svg xmlns="http://www.w3.org/2000/svg" viewBox="0 0 1333.56 999.05">
  <defs>
    <style>
      .cls-1 {
        stroke: #754c29;
      }

      .cls-1, .cls-2, .cls-3 {
        stroke-width: .8px;
      }

      .cls-1, .cls-2, .cls-3, .cls-4, .cls-5, .cls-6, .cls-7, .cls-8, .cls-9, .cls-10, .cls-11, .cls-12, .cls-13, .cls-14, .cls-15, .cls-16, .cls-17, .cls-18 {
        stroke-miterlimit: 10;
      }

      .cls-1, .cls-2, .cls-3, .cls-5, .cls-6, .cls-8, .cls-10, .cls-11, .cls-12, .cls-13, .cls-14, .cls-15, .cls-16, .cls-17, .cls-18 {
        fill: none;
      }

      .cls-2 {
        stroke: #92278f;
      }

      .cls-3, .cls-7, .cls-8, .cls-14 {
        stroke: #231f20;
      }

      .cls-19 {
        fill: #f7daa6;
      }

      .cls-20 {
        fill: #f7d9a4;
      }

      .cls-21 {
        fill: #ed9525;
      }

      .cls-22 {
        fill: #ec6b8a;
      }

      .cls-23, .cls-4 {
        fill: #e6e7e8;
      }

      .cls-24 {
        fill: #e974aa;
      }

      .cls-25 {
        fill: #fff;
      }

      .cls-26 {
        fill: #ffebda;
      }

      .cls-27 {
        fill: #fbb040;
      }

      .cls-28 {
        fill: #ef4136;
      }

      .cls-29 {
        fill: #803435;
      }

      .cls-30 {
        fill: #87664d;
      }

      .cls-31 {
        fill: #b56e5b;
      }

      .cls-32 {
        fill: #8b5e3c;
      }

      .cls-33 {
        fill: #9054a2;
      }

      .cls-34 {
        fill: #b1dcc4;
      }

      .cls-35 {
        fill: #b0c2cc;
      }

      .cls-36 {
        fill: #be9e7d;
      }

      .cls-37 {
        fill: #be8c8c;
      }

      .cls-38 {
        fill: #d6e8f6;
      }

      .cls-39 {
        fill: #dcbf97;
      }

      .cls-40 {
        fill: #231f20;
      }

      .cls-41 {
        fill: #092f44;
      }

      .cls-42 {
        fill: #1c75bc;
      }

      .cls-43 {
        fill: #1c4824;
      }

      .cls-44 {
        fill: #444848;
      }

      .cls-45 {
        fill: #1a152b;
      }

      .cls-46 {
        fill: #88b241;
      }

      .cls-47 {
        fill: #3c2415;
      }

      .cls-48, .cls-9 {
        fill: #727b78;
      }

      .cls-49 {
        fill: #26130f;
      }

      .cls-4 {
        stroke: #58595b;
        stroke-width: .2px;
      }

      .cls-5 {
        stroke: #b0c2cc;
        stroke-width: 5px;
      }

      .cls-6 {
        stroke: #1a152b;
        stroke-linecap: round;
      }

      .cls-7 {
        fill: #fafaf9;
      }

      .cls-7, .cls-14, .cls-15, .cls-16, .cls-17, .cls-18 {
        stroke-width: .5px;
      }

      .cls-8 {
        stroke-width: .7px;
      }

      .cls-9 {
        stroke: #414042;
      }

      .cls-10 {
        stroke: #444848;
        stroke-width: 2px;
      }

      .cls-11, .cls-17 {
        stroke: #603913;
      }

      .cls-12 {
        stroke: #517569;
      }

      .cls-13 {
        stroke: #c16b7b;
      }

      .cls-15 {
        stroke: #fff;
      }

      .cls-16 {
        stroke: #cfb637;
      }

      .cls-18 {
        stroke: #a97c50;
      }
    </style>
  </defs>
  <g id="Layer_2" data-name="Layer 2">
    <rect class="cls-34" width="1333.56" height="955.55"/>
    <rect class="cls-20" x=".42" y="905.68" width="1333.11" height="93.37"/>
    <g>
      <rect class="cls-44" x="634.8" y="694.29" width="72.98" height="116.74"/>
      <path class="cls-48" d="M1092.02,290.06s53.84,6.63,53.06,51.3l-19.41,168.45v186.93H229.5l-30.03-185.82-13.68-169.07s-4.74-52.35,86.75-58.61c0,0,384.46-38.85,819.47,6.81Z"/>
      <rect class="cls-44" x="106.8" y="809.73" width="1117.73" height="63.22"/>
      <rect class="cls-30" x="106.82" y="872.46" width="62.34" height="54.92"/>
      <rect class="cls-30" x="1162.28" y="871.78" width="62.34" height="55.54"/>
      <path class="cls-44" d="M150.96,510.81h52.99s28.28,8.9,28.28,40.45v143.71h-90.67s9.4-184.16,9.4-184.16Z"/>
      <path class="cls-44" d="M1182.18,510.81h-52.99s-28.28,8.9-28.28,40.45v143.71h90.67l-9.4-184.16Z"/>
      <rect class="cls-48" x="83.82" y="510.81" width="106.96" height="214.64" rx="15.24" ry="15.24"/>
      <rect class="cls-48" x="1137.22" y="510.81" width="106.96" height="214.64" rx="15.66" ry="15.66"/>
      <rect class="cls-9" x="83.56" y="695.17" width="583.51" height="115.85" rx="36.95" ry="36.95"/>
      <rect class="cls-9" x="667.9" y="695.17" width="577.67" height="115.85" rx="36.95" ry="36.95"/>
      <g>
        <line class="cls-10" x1="785.97" y1="559.39" x2="785.97" y2="694.28"/>
        <line class="cls-10" x1="794.42" y1="562.42" x2="794.42" y2="694.28"/>
        <line class="cls-10" x1="802.4" y1="548.71" x2="802.4" y2="694.28"/>
        <line class="cls-10" x1="810.85" y1="551.98" x2="810.85" y2="694.28"/>
        <line class="cls-10" x1="847.99" y1="301.86" x2="847.99" y2="694.28"/>
        <line class="cls-10" x1="856.44" y1="310.68" x2="856.44" y2="694.28"/>
        <line class="cls-10" x1="864.42" y1="270.79" x2="864.42" y2="694.28"/>
        <line class="cls-10" x1="872.87" y1="280.31" x2="872.87" y2="694.28"/>
        <line class="cls-10" x1="909.63" y1="301.86" x2="909.63" y2="694.28"/>
        <line class="cls-10" x1="918.08" y1="310.68" x2="918.08" y2="694.28"/>
        <line class="cls-10" x1="926.06" y1="280.75" x2="926.06" y2="694.28"/>
        <line class="cls-10" x1="934.51" y1="280.31" x2="934.51" y2="694.28"/>
        <line class="cls-10" x1="974.49" y1="301.86" x2="974.49" y2="694.28"/>
        <line class="cls-10" x1="982.94" y1="310.68" x2="982.94" y2="694.28"/>
        <line class="cls-10" x1="990.92" y1="282.92" x2="990.92" y2="694.28"/>
        <line class="cls-10" x1="999.37" y1="280.31" x2="999.37" y2="694.28"/>
        <line class="cls-10" x1="1067.86" y1="301.86" x2="1067.86" y2="694.28"/>
        <line class="cls-10" x1="1076.31" y1="310.68" x2="1076.31" y2="694.28"/>
        <line class="cls-10" x1="1084.29" y1="291.81" x2="1084.29" y2="694.28"/>
        <line class="cls-10" x1="1092.74" y1="290.06" x2="1092.74" y2="694.28"/>
      </g>
      <g>
        <line class="cls-10" x1="548.48" y1="559.39" x2="548.48" y2="694.28"/>
        <line class="cls-10" x1="540.03" y1="562.42" x2="540.03" y2="694.28"/>
        <line class="cls-10" x1="532.05" y1="548.71" x2="532.05" y2="694.28"/>
        <line class="cls-10" x1="523.6" y1="551.98" x2="523.6" y2="694.28"/>
        <line class="cls-10" x1="486.46" y1="301.86" x2="486.46" y2="694.28"/>
        <line class="cls-10" x1="478.01" y1="310.68" x2="478.01" y2="694.28"/>
        <line class="cls-10" x1="470.03" y1="270.79" x2="470.03" y2="694.28"/>
        <line class="cls-10" x1="461.58" y1="280.31" x2="461.58" y2="694.28"/>
        <line class="cls-10" x1="424.83" y1="301.86" x2="424.83" y2="694.28"/>
        <line class="cls-10" x1="416.38" y1="310.68" x2="416.38" y2="694.28"/>
        <line class="cls-10" x1="408.4" y1="270.79" x2="408.4" y2="694.28"/>
        <line class="cls-10" x1="399.95" y1="280.31" x2="399.95" y2="694.28"/>
        <line class="cls-10" x1="359.97" y1="301.86" x2="359.97" y2="694.28"/>
        <line class="cls-10" x1="351.52" y1="310.68" x2="351.52" y2="694.28"/>
        <line class="cls-10" x1="343.54" y1="281.47" x2="343.54" y2="694.28"/>
        <line class="cls-10" x1="335.09" y1="280.31" x2="335.09" y2="694.28"/>
        <line class="cls-10" x1="266.6" y1="301.86" x2="266.6" y2="694.28"/>
        <line class="cls-10" x1="258.15" y1="310.68" x2="258.15" y2="694.28"/>
        <line class="cls-10" x1="250.17" y1="291.81" x2="250.17" y2="694.28"/>
        <line class="cls-10" x1="241.72" y1="290.06" x2="241.72" y2="694.28"/>
      </g>
      <path class="cls-5" d="M665.62,675.8c6.84-6.26,13.59,1.11,20.43-5.15,6.84-6.26,.08-13.64,6.92-19.9,6.84-6.26,13.59,1.11,20.43-5.15,6.84-6.26,.08-13.64,6.92-19.9,6.84-6.26,13.59,1.11,20.43-5.15,6.84-6.26,.08-13.64,6.92-19.9s13.59,1.11,20.43-5.16,.08-13.64,6.92-19.9,13.59,1.11,20.43-5.16c6.84-6.26,.08-13.64,6.92-19.9s13.59,1.11,20.43-5.16,.08-13.64,6.92-19.9,13.59,1.11,20.43-5.16c6.84-6.26,.08-13.64,6.92-19.9,6.84-6.26,13.59,1.11,20.43-5.16,6.83-6.26,.08-13.64,6.91-19.9s13.59,1.11,20.43-5.15c6.84-6.26,.08-13.64,6.92-19.9,6.84-6.26,13.59,1.11,20.43-5.15,6.84-6.26,.08-13.64,6.92-19.9s13.59,1.11,20.43-5.16,.08-13.64,6.92-19.9c6.84-6.26,13.59,1.11,20.43-5.16,6.84-6.27,.08-13.64,6.92-19.9,6.84-6.27,13.59,1.11,20.43-5.16s.08-13.64,6.92-19.9c6.84-6.27,13.59,1.11,20.43-5.16,6.84-6.27,.08-13.64,6.92-19.91,6.84-6.27,13.59,1.11,20.43-5.16,6.84-6.27,.09-13.64,6.93-19.91,6.84-6.27,13.6,1.1,20.44-5.17"/>
      <path class="cls-5" d="M265.58,286.59c6.53,6.28-.4,13.49,6.13,19.76,6.53,6.28,13.46-.93,19.99,5.35s-.4,13.49,6.13,19.76c6.53,6.28,13.46-.93,19.99,5.35s-.4,13.49,6.13,19.77,13.46-.93,19.99,5.35-.4,13.49,6.13,19.77,13.46-.93,19.99,5.35c6.53,6.28-.4,13.49,6.13,19.77s13.46-.93,19.99,5.35-.4,13.49,6.13,19.77,13.46-.93,19.99,5.35-.4,13.49,6.13,19.77,13.46-.93,19.99,5.35c6.53,6.28-.4,13.49,6.13,19.77s13.46-.93,19.99,5.35-.4,13.49,6.13,19.77,13.46-.93,19.99,5.35-.4,13.49,6.13,19.77,13.46-.93,19.99,5.35-.4,13.49,6.13,19.77,13.46-.93,20,5.35-.4,13.49,6.13,19.77,13.46-.93,19.99,5.35-.4,13.49,6.13,19.77,13.46-.93,19.99,5.35-.4,13.49,6.13,19.77,13.46-.93,20,5.36-.4,13.49,6.13,19.77,13.47-.92,20,5.36-.39,13.49,6.14,19.78"/>
      <path class="cls-35" d="M667.25,678.3l424.77-388.24s-389.83-55.34-832.04-5.36"/>
    </g>
  </g>
  <g id="Layer_1" data-name="Layer 1">
    <g>
      <path class="cls-19" d="M737.89,382.82l29.93,59.86,70.02-19.76,17.47,59.61s-73.37,49.94-110.65,40.34l-68.89-90.92"/>
      <path class="cls-32" d="M659.55,899.89s-12.73,19.8-6.36,33.23c0,0,6.36,20.51,53.74,14.14,0,0,62.57,24.64,77.42-10.71,0,0-1.05-21.11-52.67-27.47,0,0,6.36,16.97-16.26,16.26,0,0-43.84-.71-55.86-25.46Z"/>
      <path class="cls-36" d="M659.55,899.89s2.03-12.12,5.73-17.4c0,0-6.87-50.7-1.58-74.99,0,0,33.63-4.35,56.34-5.41,0,0-8.81,61.39-11.98,86.21,0,0-1.58,13.73,7.92,15.32l15.7,5.47s8.28,28.32-32.41,15.53c-40.7-12.79-39.71-24.73-39.71-24.73Z"/>
      <path class="cls-36" d="M575.27,905.67s3.1-12.88,7.48-18.27c0,0-3.54-55.02,3.98-80.74,0,0,34.64,10.43,59.13,11.02,0,0-12.28,52.77-17.57,79.21,0,0-2.74,14.64,7.35,17.06l16.46,7.07s6.76,31.08-36.02,14.24c-42.78-16.84-40.82-29.59-40.82-29.59Z"/>
      <path class="cls-41" d="M450.54,693.38c-27.37-2.05-41.19-95.48-20.11-131.38,0,0,116.45,59.47,220.13,.43l17.87,14.64s86.78,10.1,85.27,94.87-19.76,143.44-19.76,143.44c0,0-108.91,41.63-169.41,11.29,0,0-19.76-63.94,0-127.19,0,0-55.06-1.69-113.99-6.11Z"/>
      <path class="cls-36" d="M553.18,205.37s-1.27,48.2-15.85,53.61c0,0,12.76,73.06,75.01,89.36,0,0,40.91-31,24.63-76,0,0-8.69-7.32-9.41-16.86,0,0-55.77-18.07-74.39-50.1Z"/>
      <path class="cls-19" d="M694.9,489.2c22.71-11.4,24.3-63.76,24.3-63.76l-9.16-66.3s-4.09-46.13-27.74-61.75c0,0-26.61-16.63-45.32-25.05l-4.94,21.24s-19.39,31.27-60.02,5.57c0,0-17.21-16.88-32.81-41.89,0,0-46.83,4.59-73.62,31.98,0,0-22.58,27.96-27.17,56.95,0,0-15.19,47.76-1.85,113.46l-4.92,103s18.49,31.21,124.55,28.61c0,0,72.03,3.7,108.9-20.14,.83-.54-12.95,17.32,0,0,5.28-7.06,5.85-28.01,3.48-80.85"/>
      <path class="cls-32" d="M575.27,905.67s-15.18,20.32-9.36,35.25c0,0,5.29,22.53,56.7,19.28,0,0,65.4,31.23,84.04-5.65,0,0,.47-22.77-54.54-33.52,0,0,5.55,18.73-18.72,16.25,0,0-47.08-4.08-58.12-31.6Z"/>
      <path class="cls-36" d="M561.41,172.99s.36-35.79,22.05-52.87c13.24-10.43,38.94-7.42,64.23-3.87,0,0,52.89,12.29,26,76.23,0,0-4.24,6.07-3.66,11.91,0,0,1.58,11.28-9.24,31.41-14.41,26.83-28.96,24.89-28.96,24.89,0,0-3.15,7.83-19.52,4.42,0,0-15-.31-27.61-12.62,0,0-34.13-26.79-27.61-47.44,0,0-17.21,5.73-18.93-20.78,0,0,.77-45.26,23.25-11.29Z"/>
      <path class="cls-23" d="M629.42,171.25s-16.88-10.07-29.24-4.7c0,0,5.67-12.69,31-.75,0,0,3.94,4.55-1.76,5.44Z"/>
      <path class="cls-3" d="M643.7,203.88s7.03,18.21-11.91,15.86"/>
      <path class="cls-3" d="M542.1,174.86s8.92-13.5,14.86,12.83c0,0-7.24-12.68-11-4.08"/>
      <path class="cls-3" d="M593.31,172l3.41,20.04s9.75,8.3,25.33,7.74l11.71-16.07s-17.97-14.02-40.45-11.71Z"/>
      <path class="cls-49" d="M624.73,265.49s-6.65,1.48-12.96-.64c0,0-23.33-1.21-41.61-26.29,0,0,4.81,8.95,16.89,19.07,0,0,10.72,12.42,38.03,11.38,0,0,.02-1.28-.34-3.53Z"/>
      <path class="cls-4" d="M600.71,123.04s33.83,22.52,58.15,9.2c0,0,5.47,14.14,21.86,33.5,0,0,1.3,10.4-11.14,31.63,0,0,3.27,19.43-12,41.08,0,0-12.74,19.38-25.75,22.24,0,0-3.37,4.55-7.1,4.79,0,0,6.81,7,12.75,7.58,0,0-2.72-8.19,.8-9.33,0,0,40.77-3.58,49.08-84.11,0,0,33.6-31.51,5.35-60.68-12.76-13.18-20.85-46.23-61.07-35.4,0,0-45.37-32.65-68.78,13.49,0,0-57.13,5.31-36.39,78.99,0,0-13.29,21,4.93,42.34,2.1,2.46,5.48,12.58-1.11,25.35-1.78,3.44,9.51-1.9,13.97-8.38,0,0,8.07-11.65,12.85-30.27,0,0-18.2,2.42-17.97-17.4,0,0-2.44-22.24,5.66-24.47,0,0,9.02-2.14,16.01,9.66,0,0,33.95,1.39,39.91-49.81Z"/>
      <path class="cls-23" d="M676.09,180.42c0-1.38-11.28-6.32-22.59-8.43,0,0-5.94,1.41-1.78,5.52,0,0,21.55,1.12,22.03,8.44,0,0,2.37-2.14,2.35-5.54Z"/>
      <path class="cls-3" d="M640.59,184.24l3.41,20.04s8.75,6.48,24.33,5.91l10.45-18.27s-15.71-10-38.19-7.68Z"/>
      <path class="cls-3" d="M640.59,184.24s-3.18-4.67-6.83-.54"/>
      <line class="cls-3" x1="593.31" y1="172" x2="551.38" y2="162.26"/>
      <path class="cls-14" d="M608.9,147.12s16.27,4.65,23.81,7.77c7.54,3.12,31.29,.99,31.29,.99"/>
      <g>
        <path class="cls-25" d="M602.23,179.21s.08-.46,.49-.77c1.35-1.05,4.36-2.92,8.42-2.17,4.54,.84,6.25,5.57,6.82,7.24,.1,.29,.04,.52,.04,.52,0,0-.03,.26-.22,.4-.88,.71-3.73,2.61-8.04,1.88-2.56-.43-5.9-2.47-7.48-6.36-.11-.27-.06-.58-.03-.74Z"/>
        <circle class="cls-49" cx="611.44" cy="181.74" r="4.77"/>
        <circle class="cls-25" cx="608.94" cy="178.96" r="1.31"/>
        <path class="cls-8" d="M618.23,183.57s-3.52-11.85-15.69-5.2"/>
      </g>
      <g>
        <path class="cls-25" d="M652.52,192.85s0-.44,.34-.79c1.11-1.17,3.64-3.34,7.52-3.22,4.34,.13,6.61,4.28,7.38,5.76,.13,.25,.11,.48,.11,.48,0,0,0,.24-.14,.41-.72,.78-3.1,2.96-7.21,2.9-2.45-.04-5.84-1.46-7.87-4.84-.14-.24-.14-.53-.13-.69Z"/>
        <circle class="cls-49" cx="661.46" cy="193.88" r="4.47"/>
        <circle class="cls-25" cx="658.59" cy="191.7" r="1.25"/>
        <path class="cls-8" d="M667.83,194.75s-4.62-11.13-15.11-2.52"/>
      </g>
      <g>
        <circle class="cls-18" cx="678.79" cy="746.99" r="5.85"/>
        <circle class="cls-18" cx="674.67" cy="768.37" r="5.85"/>
        <circle class="cls-18" cx="683.8" cy="758.85" r="5.85"/>
        <path class="cls-18" d="M668.88,761.95c0,3.23-2.62,5.85-5.85,5.85-3.23,0-5.85-2.62-5.85-5.85,0-3.23,2.62-5.85,5.85-5.85,3.23,0,5.85,2.62,5.85,5.85Z"/>
        <circle class="cls-18" cx="666.68" cy="750.1" r="5.85"/>
      </g>
      <g>
        <path class="cls-18" d="M619.11,728.21c0,3.23-2.62,5.85-5.85,5.85-3.23,0-5.85-2.62-5.85-5.85,0-3.23,2.62-5.85,5.85-5.85s5.85,2.62,5.85,5.85Z"/>
        <circle class="cls-18" cx="609.14" cy="749.59" r="5.85"/>
        <circle class="cls-18" cx="618.27" cy="740.07" r="5.85"/>
        <circle class="cls-18" cx="597.5" cy="743.17" r="5.85"/>
        <circle class="cls-18" cx="601.15" cy="731.32" r="5.85"/>
      </g>
      <g>
        <path class="cls-18" d="M599.41,677.97c0,3.23-2.62,5.85-5.85,5.85-3.23,0-5.85-2.62-5.85-5.85,0-3.23,2.62-5.85,5.85-5.85s5.85,2.62,5.85,5.85Z"/>
        <path class="cls-18" d="M595.29,699.35c0,3.23-2.62,5.85-5.85,5.85-3.23,0-5.85-2.62-5.85-5.85,0-3.23,2.62-5.85,5.85-5.85s5.85,2.62,5.85,5.85Z"/>
        <circle class="cls-18" cx="598.57" cy="689.82" r="5.85"/>
        <circle class="cls-18" cx="577.8" cy="692.92" r="5.85"/>
        <circle class="cls-18" cx="581.45" cy="681.07" r="5.85"/>
      </g>
      <g>
        <path class="cls-18" d="M633.29,633.92c0,3.23-2.62,5.85-5.85,5.85-3.23,0-5.85-2.62-5.85-5.85,0-3.23,2.62-5.85,5.85-5.85s5.85,2.62,5.85,5.85Z"/>
        <path class="cls-18" d="M629.17,655.3c0,3.23-2.62,5.85-5.85,5.85-3.23,0-5.85-2.62-5.85-5.85,0-3.23,2.62-5.85,5.85-5.85s5.85,2.62,5.85,5.85Z"/>
        <circle class="cls-18" cx="632.45" cy="645.78" r="5.85"/>
        <circle class="cls-18" cx="611.68" cy="648.87" r="5.85"/>
        <circle class="cls-18" cx="615.33" cy="637.02" r="5.85"/>
      </g>
      <g>
        <path class="cls-18" d="M542.88,665.46c0,3.23-2.62,5.85-5.85,5.85-3.23,0-5.85-2.62-5.85-5.85s2.62-5.85,5.85-5.85,5.85,2.62,5.85,5.85Z"/>
        <circle class="cls-18" cx="532.9" cy="686.84" r="5.85"/>
        <path class="cls-18" d="M547.89,677.31c0,3.23-2.62,5.85-5.85,5.85-3.23,0-5.85-2.62-5.85-5.85s2.62-5.85,5.85-5.85,5.85,2.62,5.85,5.85Z"/>
        <circle class="cls-18" cx="521.26" cy="680.41" r="5.85"/>
        <circle class="cls-18" cx="524.92" cy="668.56" r="5.85"/>
      </g>
      <g>
        <circle class="cls-18" cx="655.79" cy="677.67" r="5.85"/>
        <circle class="cls-18" cx="651.67" cy="699.05" r="5.85"/>
        <circle class="cls-18" cx="660.81" cy="689.53" r="5.85"/>
        <circle class="cls-18" cx="640.03" cy="692.62" r="5.85"/>
        <circle class="cls-18" cx="643.69" cy="680.77" r="5.85"/>
      </g>
      <g>
        <path class="cls-18" d="M709.78,700.19c0,3.23-2.62,5.85-5.85,5.85-3.23,0-5.85-2.62-5.85-5.85,0-3.23,2.62-5.85,5.85-5.85,3.23,0,5.85,2.62,5.85,5.85Z"/>
        <circle class="cls-18" cx="699.81" cy="721.57" r="5.85"/>
        <path class="cls-18" d="M714.8,712.05c0,3.23-2.62,5.85-5.85,5.85-3.23,0-5.85-2.62-5.85-5.85,0-3.23,2.62-5.85,5.85-5.85s5.85,2.62,5.85,5.85Z"/>
        <circle class="cls-18" cx="688.17" cy="715.15" r="5.85"/>
        <circle class="cls-18" cx="691.82" cy="703.3" r="5.85"/>
      </g>
      <g>
        <circle class="cls-18" cx="726.95" cy="652.18" r="5.85"/>
        <circle class="cls-18" cx="722.82" cy="673.56" r="5.85"/>
        <circle class="cls-18" cx="731.96" cy="664.04" r="5.85"/>
        <circle class="cls-18" cx="711.19" cy="667.14" r="5.85"/>
        <path class="cls-18" d="M720.69,655.29c0,3.23-2.62,5.85-5.85,5.85-3.23,0-5.85-2.62-5.85-5.85s2.62-5.85,5.85-5.85,5.85,2.62,5.85,5.85Z"/>
      </g>
      <g>
        <circle class="cls-18" cx="599.54" cy="779.2" r="5.85"/>
        <circle class="cls-18" cx="595.42" cy="800.58" r="5.85"/>
        <circle class="cls-18" cx="604.55" cy="791.06" r="5.85"/>
        <circle class="cls-18" cx="583.78" cy="794.15" r="5.85"/>
        <path class="cls-18" d="M593.28,782.3c0,3.23-2.62,5.85-5.85,5.85-3.23,0-5.85-2.62-5.85-5.85s2.62-5.85,5.85-5.85,5.85,2.62,5.85,5.85Z"/>
      </g>
      <g>
        <circle class="cls-18" cx="649.35" cy="796.5" r="5.85"/>
        <circle class="cls-18" cx="645.23" cy="817.87" r="5.85"/>
        <circle class="cls-18" cx="654.37" cy="808.35" r="5.85"/>
        <circle class="cls-18" cx="633.59" cy="811.45" r="5.85"/>
        <path class="cls-18" d="M643.1,799.6c0,3.23-2.62,5.85-5.85,5.85-3.23,0-5.85-2.62-5.85-5.85s2.62-5.85,5.85-5.85,5.85,2.62,5.85,5.85Z"/>
      </g>
      <g>
        <circle class="cls-18" cx="715.08" cy="781.27" r="5.85"/>
        <circle class="cls-18" cx="710.96" cy="802.65" r="5.85"/>
        <path class="cls-18" d="M725.95,793.13c0,3.23-2.62,5.85-5.85,5.85-3.23,0-5.85-2.62-5.85-5.85,0-3.23,2.62-5.85,5.85-5.85,3.23,0,5.85,2.62,5.85,5.85Z"/>
        <circle class="cls-18" cx="699.32" cy="796.23" r="5.85"/>
        <circle class="cls-18" cx="702.97" cy="784.38" r="5.85"/>
      </g>
      <g>
        <path class="cls-18" d="M740.95,730.41c0,3.23-2.62,5.85-5.85,5.85-3.23,0-5.85-2.62-5.85-5.85,0-3.23,2.62-5.85,5.85-5.85s5.85,2.62,5.85,5.85Z"/>
        <path class="cls-18" d="M736.82,751.79c0,3.23-2.62,5.85-5.85,5.85-3.23,0-5.85-2.62-5.85-5.85s2.62-5.85,5.85-5.85,5.85,2.62,5.85,5.85Z"/>
        <circle class="cls-18" cx="740.11" cy="742.26" r="5.85"/>
        <circle class="cls-18" cx="719.33" cy="745.36" r="5.85"/>
        <circle class="cls-18" cx="722.98" cy="733.51" r="5.85"/>
      </g>
      <g>
        <circle class="cls-18" cx="458.94" cy="592.14" r="5.85"/>
        <circle class="cls-18" cx="454.82" cy="613.52" r="5.85"/>
        <circle class="cls-18" cx="463.96" cy="603.99" r="5.85"/>
        <circle class="cls-18" cx="443.18" cy="607.09" r="5.85"/>
        <circle class="cls-18" cx="446.83" cy="595.24" r="5.85"/>
      </g>
      <g>
        <circle class="cls-18" cx="579.6" cy="612.37" r="5.85"/>
        <path class="cls-18" d="M581.33,633.75c0,3.23-2.62,5.85-5.85,5.85-3.23,0-5.85-2.62-5.85-5.85,0-3.23,2.62-5.85,5.85-5.85,3.23,0,5.85,2.62,5.85,5.85Z"/>
        <circle class="cls-18" cx="584.61" cy="624.22" r="5.85"/>
        <path class="cls-18" d="M569.69,627.32c0,3.23-2.62,5.85-5.85,5.85-3.23,0-5.85-2.62-5.85-5.85s2.62-5.85,5.85-5.85,5.85,2.62,5.85,5.85Z"/>
        <path class="cls-18" d="M573.35,615.47c0,3.23-2.62,5.85-5.85,5.85-3.23,0-5.85-2.62-5.85-5.85,0-3.23,2.62-5.85,5.85-5.85,3.23,0,5.85,2.62,5.85,5.85Z"/>
      </g>
      <g>
        <path class="cls-18" d="M482.89,653.26c0,3.23-2.62,5.85-5.85,5.85-3.23,0-5.85-2.62-5.85-5.85,0-3.23,2.62-5.85,5.85-5.85,3.23,0,5.85,2.62,5.85,5.85Z"/>
        <path class="cls-18" d="M478.77,674.64c0,3.23-2.62,5.85-5.85,5.85-3.23,0-5.85-2.62-5.85-5.85,0-3.23,2.62-5.85,5.85-5.85,3.23,0,5.85,2.62,5.85,5.85Z"/>
        <circle class="cls-18" cx="482.05" cy="665.11" r="5.85"/>
        <path class="cls-18" d="M467.13,668.21c0,3.23-2.62,5.85-5.85,5.85-3.23,0-5.85-2.62-5.85-5.85,0-3.23,2.62-5.85,5.85-5.85,3.23,0,5.85,2.62,5.85,5.85Z"/>
        <path class="cls-18" d="M470.78,656.36c0,3.23-2.62,5.85-5.85,5.85-3.23,0-5.85-2.62-5.85-5.85,0-3.23,2.62-5.85,5.85-5.85,3.23,0,5.85,2.62,5.85,5.85Z"/>
      </g>
      <g>
        <path class="cls-18" d="M521.56,605.76c0,3.23-2.62,5.85-5.85,5.85-3.23,0-5.85-2.62-5.85-5.85,0-3.23,2.62-5.85,5.85-5.85s5.85,2.62,5.85,5.85Z"/>
        <path class="cls-18" d="M517.44,627.14c0,3.23-2.62,5.85-5.85,5.85-3.23,0-5.85-2.62-5.85-5.85,0-3.23,2.62-5.85,5.85-5.85s5.85,2.62,5.85,5.85Z"/>
        <path class="cls-18" d="M526.57,617.62c0,3.23-2.62,5.85-5.85,5.85-3.23,0-5.85-2.62-5.85-5.85,0-3.23,2.62-5.85,5.85-5.85,3.23,0,5.85,2.62,5.85,5.85Z"/>
        <path class="cls-18" d="M505.8,620.71c0,3.23-2.62,5.85-5.85,5.85-3.23,0-5.85-2.62-5.85-5.85,0-3.23,2.62-5.85,5.85-5.85s5.85,2.62,5.85,5.85Z"/>
        <path class="cls-18" d="M509.45,608.86c0,3.23-2.62,5.85-5.85,5.85-3.23,0-5.85-2.62-5.85-5.85,0-3.23,2.62-5.85,5.85-5.85s5.85,2.62,5.85,5.85Z"/>
      </g>
      <path class="cls-31" d="M604.74,223.99s15.99-3.44,21.95,3.28c0,0,4.88-4.16,16.62,2.8,0,0-1.61,20.25-20.22,17.48-21.25-3.17-18.35-23.55-18.35-23.55Z"/>
      <path class="cls-29" d="M607.33,226.59s.13,13.42,14.83,15.77c14.7,2.35,18.21-10.68,18.21-10.68,0,0-23.64-6.21-33.04-5.09Z"/>
      <path class="cls-25" d="M611.04,226.47s2.86,4.48,14.13,6.44c10.38,1.8,13.97-1.6,13.97-1.6,0,0-15.01-4.46-28.1-4.84Z"/>
      <path class="cls-15" d="M652.11,921.02s40.41,7.65,51.71,25.34"/>
      <g>
        <path class="cls-43" d="M879.42,420.43s2.07,.15,4.03,3.69l-30.11,139.83s-1.28,6.16-11.21,3.14l-96.16-25.37-90.2-16.4-8.87-2.89s-1.5-1.14-.49-5.18l29.79-138.29s3.79-7.27,15.11-2.46l78.14,43.91"/>
        <path class="cls-7" d="M879.42,420.43l-4.67-5.14s-57.27-18.33-98.7-11.65c0,0-40.64-26.86-87.14-27.15l-7.47,2.1-29.86,139.92,6.38,3.58,90.08,13.86,101.66,28.34,29.73-143.86Z"/>
        <line class="cls-7" x1="657.95" y1="522.09" x2="688.91" y2="376.49"/>
        <line class="cls-7" x1="685.27" y1="377.76" x2="655.43" y2="520.47"/>
        <line class="cls-7" x1="683.23" y1="378.36" x2="653.6" y2="519.48"/>
        <line class="cls-7" x1="776.05" y1="403.63" x2="748.03" y2="535.95"/>
        <line class="cls-7" x1="874.75" y1="415.29" x2="844.07" y2="563.03"/>
        <line class="cls-7" x1="877.28" y1="418.3" x2="846.33" y2="563.91"/>
        <path class="cls-6" d="M758.7,422.62s-2.53,2.72-5.52-1.03c-2.99-3.75-7.7-1.14-7.7-1.14,0,0-3.39,.16-3.93-2.27s-6.66,0-6.66,0c0,0-4.48,.11-6.31-2.82s-6.34,.13-6.34,.13c0,0-2.74,1.34-4.57-2.51-1.13-2.37-5.05,.63-5.05,.63"/>
        <path class="cls-6" d="M753.28,442.29s-2.35,2.52-5.13-.96c-2.77-3.48-7.15-1.06-7.15-1.06,0,0-3.15,.15-3.65-2.1s-6.19,0-6.19,0c0,0-4.16,.1-5.86-2.62s-5.89,.12-5.89,.12c0,0-2.55,1.25-4.25-2.34-1.05-2.2-4.7,.58-4.7,.58"/>
        <path class="cls-6" d="M748.18,457.33s-2.35,2.52-5.13-.96-7.15-1.06-7.15-1.06c0,0-2.65-.02-3.65-2.1-2.07-4.29-8.15-.54-8.15-.54"/>
        <path class="cls-38" d="M846.31,523.99l21.32-101.29s-52.74-17.13-85.54-11.26l-21.35,94.6"/>
        <path class="cls-46" d="M760.73,506.03l-6.44,29.6,85.23,20.98,6.78-32.62s-50.38-21.2-85.57-17.96Z"/>
        <g>
          <path class="cls-45" d="M790.83,453.65s-1.86-3.15,.25-8.45c0,0,4.88-.74,7.13,2.17"/>
          <path class="cls-21" d="M789.99,485.02s16.79,8.87,34.07,6.81c0,0,6.74,.52,7.76-6.53,0,0,2.72-10.38,.28-20.11s-9.62-11.87-9.62-11.87c0,0-8.25-3.95-17.11-3.73-8.86,.22-15.16,11.78-15.16,11.78,0,0-4.24,7.44-4.93,14.18-.68,6.74,4.71,9.47,4.71,9.47Z"/>
          <path class="cls-26" d="M808.22,470.87s-6.96-.31-8.76,9.39c0,0-.31,3.1,2.77,4.37l1.41,3.15,.46-1.06,2.49,2.76,.48-1.7,.6,1.52,1.65-1.35,.39,1.3,2.75-2.28s6.09,.93,4.97-8.33c0,0-.1-3.97-4.83-7.01l.53,3.66s-1.45-1.76-7.03-1.71l2.12-2.73Z"/>
          <path class="cls-45" d="M806.15,474.64l1.97,2.87c.21,.35,1.5,.45,1.84,.22l2.7-1.49c.44-.29,.47-1.02,.04-1.33-1.22-.88-3.37-1.27-6.03-1.35-.57-.02-.81,.58-.51,1.07Z"/>
          <path class="cls-24" d="M804.97,480.48s-.06,3.22,2.5,3.78c0,0,3.27,.86,4.16-2.01,0,0-2.05-.18-2.98-1.3,0,0-3.23,.35-3.69-.47Z"/>
          <path class="cls-6" d="M809.15,477.67l-.57,3.04s-3.91,1.57-5.03-2.56"/>
          <path class="cls-6" d="M808.58,480.71s3,3.31,5.96-.18"/>
          <ellipse class="cls-26" cx="820.75" cy="472.26" rx="3.7" ry="2.95" transform="translate(113.67 1102.11) rotate(-71.61)"/>
          <path class="cls-45" d="M821.83,471.53c-.38-.27-.85-.44-1.35-.46-1.35-.04-2.47,1.02-2.51,2.37s1.02,2.47,2.37,2.51,2.47-1.02,2.51-2.37c.02-.52-.13-1-.39-1.4l-1.02,.74,.4-1.39Z"/>
          <ellipse class="cls-26" cx="801.24" cy="468.11" rx="3.7" ry="2.95" transform="translate(104.27 1080.76) rotate(-71.61)"/>
          <path class="cls-45" d="M802.33,467.37c-.38-.27-.85-.44-1.35-.46-1.35-.04-2.47,1.02-2.51,2.37s1.02,2.47,2.37,2.51,2.47-1.02,2.51-2.37c.02-.52-.13-1-.39-1.4l-1.02,.74,.4-1.39Z"/>
          <path class="cls-6" d="M798.96,464.56s1.29-3.12,4.07-1.14"/>
          <path class="cls-6" d="M795.37,466.6s1.94,.58,2.51,.58"/>
          <path class="cls-6" d="M821.15,467.81s2.61-.81,2.84,2.17"/>
          <line class="cls-6" x1="823.84" y1="472.75" x2="826.29" y2="473.27"/>
          <path class="cls-21" d="M792.8,457.56s-3.92-1.88-.39-10.3c0,0,7.25-1.87,9.38,2.93"/>
          <path class="cls-26" d="M793.85,456.01s-1.48-3.2-.36-7.08c0,0,3.48-.21,5.87,2.13,0,0-4.11,2.21-5.51,4.95Z"/>
          <path class="cls-45" d="M835.25,462.79s2.79-2.37,2.51-8.07c0,0-4.38-2.29-7.45-.27"/>
          <path class="cls-21" d="M832.12,465.85s4.32-.51,3.72-9.62c0,0-6.25-4.12-9.83-.28"/>
          <path class="cls-26" d="M831.63,464.05s2.44-2.54,2.64-6.58c0,0-3.22-1.33-6.24,.11,0,0,3.16,3.43,3.6,6.47Z"/>
          <path class="cls-45" d="M803.95,451.96s4.15-3.6,10.49,1.83c0,0,7.59-2.49,9.86,1.62,0,0-6.39-1.52-10.38,.83,0,0-5.52-5.34-9.97-4.27Z"/>
          <path class="cls-45" d="M803.2,455.73s4.15-3.6,10.49,1.83c0,0,7.59-2.49,9.86,1.62,0,0-6.39-1.52-10.38,.83,0,0-5.52-5.34-9.97-4.27Z"/>
          <path class="cls-45" d="M802.33,459.55s4.15-3.6,10.49,1.83c0,0,7.59-2.49,9.86,1.62,0,0-6.39-1.52-10.38,.83,0,0-5.52-5.34-9.97-4.27Z"/>
          <path class="cls-45" d="M788.48,464.57l-1.44,4s1.88,4.85,7.42,5.21c0,0-5.45-5.65-5.98-9.21Z"/>
          <path class="cls-45" d="M785.35,474.57l-.03,3.22s3,3.12,9.59,.1c0,0-8.11-1.19-9.56-3.32Z"/>
          <path class="cls-45" d="M833.21,474.01l-.19,4.25s-3.58,3.77-8.84,1.99c0,0,7.19-3.15,9.03-6.24Z"/>
          <path class="cls-45" d="M832.3,484.46l-1.19,2.99s-3.96,1.74-8.91-3.56c0,0,7.95,1.99,10.1,.57Z"/>
          <path class="cls-21" d="M818.88,491.83s-.13,2.14,3.92,2.47c0,0,7.29,2.13,11.83-1.02,0,0,1.99-.82,3.38-3.13,0,0,1.66-1.77,4.42-.33s.04,5.12,.04,5.12c0,0-5.44,9.74-20.5,9.71,0,0,1.34,2.9,.62,7.51,0,0,4.9-.44,7.54,1.07,2.65,1.51,7.08-.38,7.08-.38,0,0,4.2-2.57,.79-6.71,0,0-.37-4.47,3.08-1.68,0,0,2.75,3.7,.16,8.67-2.59,4.97-12.13,3.17-12.13,3.17,0,0-5.59-1.6-7.81-.49,0,0-2.49,12.89-7.65,16.69l-10.86-2.85s.77-3.26,3.77-2.24l1.69-2.9s-3.55-2.29-7.58-2.75c-3.31-.38-7.85,.78-7.85,.78l.35,2.45c2.83,.93,1.56,4.17,1.56,4.17l-10.09-3.16c-2.38-1.92-1.62-13.26-1.62-13.26-1-6.01,3.84-15.79,3.84-15.79-11.49-4.21-13.66-19.09-13.66-19.09,0,0-.45-4.56,2.66-4.38,3.11,.18,3.63,2.55,3.63,2.55,0,2.69,1.3,4.42,1.3,4.42,2.29,5.03,9.64,6.94,9.64,6.94,3.65,1.79,4.63-.11,4.63-.11"/>
          <path class="cls-26" d="M797.88,488.37s-11.1,13.81-6.93,20.75c0,0,2.1,5.87,10.05,7.2,7.96,1.33,10.94-.09,12.76-1.81s5.02-13.23,2.01-22.33"/>
          <path class="cls-45" d="M780.77,480.45s-3.31,2.22-3.24,4.11c0,0,3.52-1.73,5.4-1.23,0,0-1.43-1.39-2.17-2.88Z"/>
          <path class="cls-45" d="M783.61,483.99s-2.8,3.01-1.66,4.75c0,0,2.15-2.27,4.57-3.08,0,0-2.01-.44-2.92-1.67Z"/>
          <path class="cls-45" d="M787.46,486.25s-1.73,3.1-.78,5.03c0,0,1.91-3.27,3.74-3.89,0,0-2.02-.54-2.95-1.14Z"/>
          <ellipse class="cls-26" cx="776.4" cy="478.41" rx="1.99" ry="2.02" transform="translate(275.05 1240.21) rotate(-88.29)"/>
          <ellipse class="cls-26" cx="774.17" cy="476.32" rx=".73" ry=".8" transform="translate(274.98 1235.95) rotate(-88.29)"/>
          <ellipse class="cls-26" cx="775.92" cy="475.31" rx=".73" ry=".8" transform="translate(277.69 1236.72) rotate(-88.29)"/>
          <ellipse class="cls-26" cx="777.88" cy="475.84" rx=".73" ry=".8" transform="translate(279.06 1239.19) rotate(-88.29)"/>
          <path class="cls-45" d="M786.35,498.15s1.91,1.57,3.97,2.33c0,0-2.74,.93-4.92-.21l.95-2.12Z"/>
          <path class="cls-45" d="M784.16,503.83s2.48,1.65,4.99,1.92c0,0-3.26,1.29-5.7,.46"/>
          <path class="cls-45" d="M782.89,510.36s2.63,.71,4.79,.14c0,0-2.15,2.4-4.68,2.26"/>
          <path class="cls-45" d="M782.95,520.96s3.39,.8,5.49,.16c0,0-2.7,1.75-4.98,1.93"/>
          <path class="cls-26" d="M784.17,526.62s.91-2.88,6.24-1.77c5.33,1.11,4.31,4.34,4.31,4.34,0,0-.22,2.35-5.22,.88-5.01-1.47-5.25-1.92-5.33-3.44Z"/>
          <path class="cls-45" d="M834.54,493.44s1.64,3.63,.58,5.2c0,0-2.08-3.32-3.94-3.89,0,0,1.95-.43,3.36-1.31Z"/>
          <path class="cls-45" d="M830.26,494.94s.8,4.04-1.1,4.91c0,0-.63-3.06-2.26-5.03,0,0,1.94,.69,3.36,.12Z"/>
          <path class="cls-45" d="M825.8,494.84s-.16,3.55-1.99,4.68c0,0,.1-3.78-1.12-5.27,0,0,2.01,.61,3.11,.59Z"/>
          <ellipse class="cls-26" cx="839.63" cy="493.8" rx="1.99" ry="2.02" transform="translate(17.1 1015.6) rotate(-62.85)"/>
          <ellipse class="cls-26" cx="842.59" cy="493.05" rx=".73" ry=".8" transform="translate(19.39 1017.83) rotate(-62.85)"/>
          <ellipse class="cls-26" cx="841.55" cy="491.31" rx=".73" ry=".8" transform="translate(20.36 1015.95) rotate(-62.85)"/>
          <ellipse class="cls-26" cx="839.58" cy="490.84" rx=".73" ry=".8" transform="translate(19.71 1013.94) rotate(-62.85)"/>
          <path class="cls-45" d="M822.3,505.49s-2.33,.82-4.53,.83c0,0,2.26,1.81,4.69,1.49l-.16-2.31Z"/>
          <path class="cls-45" d="M822.41,511.58s-2.89,.7-5.35,.09c0,0,2.62,2.33,5.19,2.39"/>
          <path class="cls-45" d="M821.37,518.15s-2.71-.23-4.55-1.51c0,0,1.2,2.99,3.62,3.73"/>
          <path class="cls-45" d="M817.67,528.09s-3.45-.41-5.21-1.73c0,0,1.94,2.57,4.02,3.52"/>
          <path class="cls-26" d="M809.56,532.27s.59-2.96-4.61-4.56c-5.2-1.61-5.87,1.72-5.87,1.72,0,0-.94,2.16,4.15,3.29s5.52,.85,6.33-.44Z"/>
          <path class="cls-45" d="M825.07,512.06l-.29,3.46s1.83,.05,3.83,.68l.48-3.46s-2.38-.64-4.02-.69Z"/>
          <path class="cls-45" d="M832.09,513.78l.04,2.84s2.65,.14,4.11-.38l-.42-2.98s-1.78,1.06-3.74,.52Z"/>
          <path class="cls-45" d="M837.68,512.56l2.67,1.59s1.49-1.16,1.81-3.48l-2.85-1.66s-.08,2.65-1.62,3.55Z"/>
          <path class="cls-45" d="M838.98,507.11l2.86-.8s-.42-2.85-3.14-2.68c0,0-1.94,1.39,.27,3.48Z"/>
        </g>
        <polygon class="cls-46" points="838.6 415.51 830.13 420.17 839.86 426.54 838.6 415.51"/>
        <polygon class="cls-42" points="828.51 421.33 819.5 424.85 828.33 432.44 828.51 421.33"/>
        <polygon class="cls-27" points="816.56 426.5 807.2 428.93 815.07 437.5 816.56 426.5"/>
        <polygon class="cls-46" points="803.77 429.94 794.11 430.5 800.15 440.45 803.77 429.94"/>
        <polygon class="cls-42" points="791.08 431.19 781.41 430.92 786.57 441.35 791.08 431.19"/>
        <path class="cls-6" d="M777.41,429.69s29.29,7.48,61.19-14.19"/>
        <ellipse class="cls-28" cx="843.5" cy="442.78" rx="13.28" ry="10.08" transform="translate(346.35 1255.43) rotate(-86.24)"/>
        <polyline class="cls-28" points="843.78 455.9 843.91 459.14 839.39 458.64 840.99 455.24"/>
        <path class="cls-6" d="M838.73,489.32s3.93-3.33,2.48-11.39c-1.45-8.06-2.72-14.79,1.08-18.87"/>
      </g>
      <rect class="cls-36" x="827.96" y="398.35" width="15.58" height="9.93" rx="4.37" ry="4.37" transform="translate(1471.75 -272.44) rotate(107.5)"/>
      <rect class="cls-36" x="859.28" y="409.66" width="15.58" height="9.93" rx="4.37" ry="4.37" transform="translate(1227.98 -476.14) rotate(86.5)"/>
      <rect class="cls-36" x="835.43" y="402.35" width="19.76" height="11.14" rx="4.91" ry="4.91" transform="translate(1488.57 -275.58) rotate(107.5)"/>
      <rect class="cls-36" x="846.56" y="405.87" width="19.76" height="11.14" rx="4.91" ry="4.91" transform="translate(1372.19 -386.55) rotate(97.22)"/>
    </g>
    <g>
      <path class="cls-39" d="M652.36,477.09l6.96,6.59,48.11-2.9c1.7,.27,3.09-1.51,4.58-2.34l14.8-17.87,17.75-7.77s4.96,1.1,.69,5.06c-4.28,3.96-9.1,6.61-9.1,6.61,0,0,6.13,5.61,6.82,7.37,.78,1.99,1.48,5.48,1.48,5.48,0,0-.03,2.63-1.54,3.04,0,0,3.9,6.51-8.04,5.91,0,0-7.95,8.8-17.26,7.07,0,0-4.48,1-7.23,2.82,0,0-44.83,25.4-53.81,24.04s-21.79-6.13-21.79-6.13"/>
      <path class="cls-39" d="M660.48,711.59s2.2-.16,.43-8.31c0,0,13.38,.82,28.95-4.63,0,0,3.41,7.25,13.73,7.65,0,0,15.11,2.33,6.89,12.46-8.22,10.13-43.02,4.24-43.02,4.24l-6.98-11.42Z"/>
      <path class="cls-22" d="M660.48,711.59s-4.6,12.97,.98,19.6c0,0,6.57,10.6,33.15,.16,0,0,43.46,2.86,40.31-16.75,0,0-.5-12.2-31.33-8.3,0,0,16.68,8.94-7.14,11.5,0,0-25.52,5.96-35.96-6.21Z"/>
      <path class="cls-39" d="M612.53,716.53s2.18,.33,2.23-8.02c0,0,12.88,3.71,29.26,1.77,0,0,1.75,7.82,11.74,10.46,0,0,14.24,5.56,4.01,13.66-10.22,8.1-42.91-5.21-42.91-5.21l-4.33-12.66Z"/>
      <path class="cls-22" d="M612.53,716.53s-7.31,11.66-3.31,19.35c0,0,4.11,11.78,32.32,7.36,0,0,41.8,12.24,42.99-7.58,0,0,2.16-12.02-28.77-14.91,0,0,14.34,12.35-9.47,9.67,0,0-26.2,.27-33.75-13.88Z"/>
      <path class="cls-33" d="M625.37,443.62s22.09,13.7,33.95,33.47c0,0-13.91,33.31-18.67,41.37,0,0-10.55-.34-12.39-7.71"/>
      <path class="cls-39" d="M558.98,407.96s2.41,23.06-5.94,35.67c0,0,10.64,30.37,39.43,34.32,0,0,19.83,5.1,21.07-27.33,0,0-7.34-5.06-5.98-13.49l-48.59-29.18Z"/>
      <path class="cls-33" d="M517.28,566.84s-4.94-88.35,23.52-115.34c0,0,13.57-13.45,16.99-14.77,0,0,7.85,28.59,42.01,23.43,0,0,18.07-5.31,2.2-29.59,0,0,21.32,5.09,26.49,18.07,5.16,12.99-.24,62.12-.24,62.12,0,0,11.72,61.91-16.03,69.36-25.8,6.92-52.61,3.53-94.94-13.27Z"/>
      <path class="cls-39" d="M555.73,389.81s-7.45-12.49-14.77-8.36c-7.32,4.13-1.63,19.58-1.63,19.58,0,0,8.3,12.94,17.78,7.14,0,0,10.1,25.5,44.66,29.78,0,0,14.47,2.73,26.6-11.48,11.7-13.71,7.36-37.98,7.36-37.98,0,0,1.94-4.04,2.2-18.95,.26-14.92-3.69-32.46-22.75-39.2-19.06-6.73-30.95-9.5-49.53,4.24-18.57,13.74-9.93,55.24-9.93,55.24Z"/>
      <path class="cls-37" d="M601.16,411.82s5.1-1.35,11.41,.08c0,0,5.04-.32,10.08,.89,0,0,.6,6.89-7.94,8.75-8.54,1.86-13.8-4.43-13.54-9.72Z"/>
      <path class="cls-29" d="M601.97,412.19s-.22,8.03,10.21,8.21c9.48,.17,9.68-6.98,9.68-6.98,0,0-10.68,.29-19.89-1.24Z"/>
      <path class="cls-40" d="M597.3,370.66s-8.21-2.33-15.19,2.09c0,0-3.84-1.58,1.42-3.85s9.16-3.71,14.16-1.1c0,0,2.16,1.89-.39,2.86Z"/>
      <path class="cls-40" d="M625.06,371.49s5.27-2.77,12.09,1.9c0,0,2.75-1.45,.06-3.2-3.99-2.6-6.85-2.98-12.43-1.57,0,0-2.22,1.81,.29,2.87Z"/>
      <path class="cls-25" d="M603.4,412.36s2.58,3.85,10.84,3.59c0,0,5.09,.35,7.27-2.32,0,0-10.64,.04-18.11-1.27Z"/>
      <path class="cls-49" d="M605.6,438.13s-8,.96-20.16-4.21c0,0-4.5-1.1-13.29-7.24,0,0,6.33,6.34,18.9,11.42,0,0,5.29,2.3,15.27,2.46,0,0-.6-.82-.73-2.43Z"/>
      <path class="cls-3" d="M542.32,392.21s3.42-4.99,7.07,.23c3.64,5.22,3.82,6.94,3.82,6.94,0,0-5.21-8.27-7.44-1.75"/>
      <path class="cls-3" d="M619.06,392.31s6.33,9.78-5.02,10.72"/>
      <g>
        <path class="cls-25" d="M586.93,383.19s0-.34,.24-.63c.82-.96,2.72-2.75,5.75-2.81,3.4-.07,5.33,3.09,5.99,4.22,.11,.19,.11,.37,.11,.37,0,0,.02,.19-.1,.32-.53,.64-2.3,2.43-5.52,2.55-1.91,.07-4.63-.91-6.34-3.48-.12-.18-.13-.41-.13-.53Z"/>
        <circle class="cls-49" cx="593.95" cy="383.66" r="3.52"/>
        <circle class="cls-25" cx="591.78" cy="382.25" r=".96"/>
        <path class="cls-8" d="M599.12,383.97s-4.29-8.03-12.09-1.43"/>
      </g>
      <g>
        <path class="cls-25" d="M622.62,384.46s-.06-.31,.13-.61c.62-.99,2.1-2.91,4.88-3.39,3.11-.54,5.33,2.08,6.09,3.02,.13,.16,.15,.32,.15,.32,0,0,.04,.17-.04,.31-.4,.66-1.77,2.56-4.71,3.11-1.75,.33-4.37-.18-6.31-2.3-.13-.15-.18-.36-.19-.47Z"/>
        <circle class="cls-49" cx="629.13" cy="383.89" r="3.25"/>
        <circle class="cls-25" cx="627.02" cy="382.69" r=".91"/>
        <path class="cls-8" d="M633.79,383.58s-4.91-7.24-11.12,.42"/>
      </g>
      <path class="cls-2" d="M629.93,521.84s-.41-3.92-1.68-11.08c0,0,2.37-26.45-.04-37.38"/>
      <path class="cls-1" d="M721.51,466.84s2.87-2.22,8.49-1.31c2.67,.43,7.69,4.22,7.69,4.22,0,0,.94,4.73-3.63,4.11-4.57-.61-7.36-.87-7.36-.87,0,0,3.27,14.15-10.2,11.88"/>
      <path class="cls-1" d="M743.15,472.69s-3.22,4.23-8.79,4.67c0,0-2.98,2.09,.33,4.44,0,0,4.2,.49,8.22-1.44"/>
      <path class="cls-1" d="M734.69,481.81s-4.03,2.52,.18,4.47"/>
      <line class="cls-1" x1="739.82" y1="468.06" x2="737.7" y2="469.75"/>
      <path class="cls-1" d="M732.55,473.64s-.73,.99-.38,1.99c.59,1.67,2.19,1.74,2.19,1.74"/>
      <path class="cls-23" d="M624.95,568.42s34.93,11.26,50.2,32.64c15.27,21.38,19.45,98.34,19.45,98.34,0,0-10.4,14.04-34.07,6.4,0,0-23.55-53.58-24.32-80.3l-33.66-19.46s22.21,13.35,29.08,26.33c6.87,12.98,14.4,76.63,14.4,76.63,0,0-13.46,15.8-34.07,2.82,0,0-22.33-38.99-22.33-62.66,0,0-39.87-11.66-54.97-27.49-16.03-16.8-16.8-54.21-16.8-54.21,0,0,87.44,27.68,107.09,.96Z"/>
      <path class="cls-15" d="M658.55,721.09s25.27,2.26,25.69,13.69"/>
      <g>
        <path class="cls-12" d="M639.77,708.08s-7.63-2.62-.87-11.22"/>
        <path class="cls-16" d="M639.14,709.53s-10.58-3.78-1.71-13.91"/>
        <path class="cls-13" d="M638.45,710.8s-13.17-5.39-2.15-16.14"/>
      </g>
      <g>
        <path class="cls-12" d="M616.36,702.35s-2.65-7.62,8.29-7.61"/>
        <path class="cls-16" d="M614.82,702.76s-3.56-10.65,9.88-9.93"/>
        <path class="cls-13" d="M613.4,703s-3.9-13.69,11.36-11.66"/>
      </g>
      <g>
        <path class="cls-12" d="M610.71,650.49s-4.4,6.77-11.1-1.88"/>
        <path class="cls-16" d="M611.98,651.46s-6.23,9.34-13.9-1.72"/>
        <path class="cls-13" d="M613.04,652.43s-8.42,11.47-16.18-1.83"/>
      </g>
      <g>
        <path class="cls-12" d="M624.68,684.11s3.52-7.45,11.3-.23"/>
        <path class="cls-16" d="M623.3,683.4s5.03-10.31,14.08-.91"/>
        <path class="cls-13" d="M622.11,682.65s6.94-12.8,16.36-1.23"/>
      </g>
      <g>
        <path class="cls-12" d="M620.49,665.31s3.52-7.45,11.3-.23"/>
        <path class="cls-16" d="M619.11,664.61s5.03-10.31,14.08-.91"/>
        <path class="cls-13" d="M617.93,663.85s6.94-12.8,16.36-1.23"/>
      </g>
      <g>
        <path class="cls-12" d="M613.67,639.73s3.52-7.45,11.3-.23"/>
        <path class="cls-16" d="M612.29,639.02s5.03-10.31,14.08-.91"/>
        <path class="cls-13" d="M611.1,638.27s6.94-12.8,16.36-1.23"/>
      </g>
      <g>
        <path class="cls-12" d="M601.78,679.99s3.52-7.45,11.3-.23"/>
        <path class="cls-16" d="M600.4,679.28s5.03-10.31,14.08-.91"/>
        <path class="cls-13" d="M599.22,678.53s6.94-12.8,16.36-1.23"/>
      </g>
      <g>
        <path class="cls-12" d="M688.61,696.22s-7.63-2.62-.87-11.22"/>
        <path class="cls-16" d="M687.98,697.68s-10.58-3.78-1.71-13.91"/>
        <path class="cls-13" d="M687.3,698.94s-13.17-5.39-2.15-16.14"/>
      </g>
      <g>
        <path class="cls-12" d="M665.2,690.49s-2.65-7.62,8.29-7.61"/>
        <path class="cls-16" d="M663.67,690.9s-3.56-10.65,9.88-9.93"/>
        <path class="cls-13" d="M662.25,691.14s-3.9-13.69,11.36-11.66"/>
      </g>
      <g>
        <path class="cls-12" d="M659.56,638.64s-4.4,6.77-11.1-1.88"/>
        <path class="cls-16" d="M660.82,639.6s-6.23,9.34-13.9-1.72"/>
        <path class="cls-13" d="M661.89,640.57s-8.42,11.47-16.18-1.83"/>
      </g>
      <g>
        <path class="cls-12" d="M673.52,672.25s3.52-7.45,11.3-.23"/>
        <path class="cls-16" d="M672.14,671.54s5.03-10.31,14.08-.91"/>
        <path class="cls-13" d="M670.96,670.79s6.94-12.8,16.36-1.23"/>
      </g>
      <g>
        <path class="cls-12" d="M669.34,653.46s3.52-7.45,11.3-.23"/>
        <path class="cls-16" d="M667.96,652.75s5.03-10.31,14.08-.91"/>
        <path class="cls-13" d="M666.77,651.99s6.94-12.8,16.36-1.23"/>
      </g>
      <g>
        <path class="cls-12" d="M662.52,627.87s3.52-7.45,11.3-.23"/>
        <path class="cls-16" d="M661.14,627.16s5.03-10.31,14.08-.91"/>
        <path class="cls-13" d="M659.95,626.41s6.94-12.8,16.36-1.23"/>
      </g>
      <g>
        <path class="cls-12" d="M650.63,668.13s3.52-7.45,11.3-.23"/>
        <path class="cls-16" d="M649.25,667.43s5.03-10.31,14.08-.91"/>
        <path class="cls-13" d="M648.06,666.67s6.94-12.8,16.36-1.23"/>
      </g>
      <g>
        <path class="cls-12" d="M613.84,623.06s-6.9,4.19-9.18-6.51"/>
        <path class="cls-16" d="M614.56,624.48s-9.67,5.71-11.78-7.58"/>
        <path class="cls-13" d="M615.1,625.81s-12.57,6.68-13.78-8.66"/>
      </g>
      <g>
        <path class="cls-12" d="M594.48,637.39s-7.55-2.84-.55-11.24"/>
        <path class="cls-16" d="M593.8,638.83s-10.47-4.08-1.32-13.95"/>
        <path class="cls-13" d="M593.09,640.08s-13.01-5.76-1.7-16.19"/>
      </g>
      <g>
        <path class="cls-12" d="M551,608.57s2.39,7.71-8.55,7.33"/>
        <path class="cls-16" d="M552.55,608.22s3.2,10.77-10.21,9.59"/>
        <path class="cls-13" d="M553.98,608.02s3.43,13.81-11.75,11.27"/>
      </g>
      <g>
        <path class="cls-12" d="M533.21,575.53s2.39,7.71-8.55,7.33"/>
        <path class="cls-16" d="M534.76,575.18s3.2,10.77-10.21,9.59"/>
        <path class="cls-13" d="M536.19,574.98s3.43,13.81-11.75,11.27"/>
      </g>
      <g>
        <path class="cls-12" d="M581.59,614.47s5.42-6.21,10.94,2.86"/>
        <path class="cls-16" d="M580.46,613.41s7.64-8.56,13.8,2.95"/>
        <path class="cls-13" d="M579.52,612.36s10.16-10.43,16.08,3.27"/>
      </g>
      <g>
        <path class="cls-12" d="M568.65,610.53s-3.47-7.47,7.05-8.83"/>
        <path class="cls-16" d="M567.22,611.14s-4.71-10.46,8.3-11.41"/>
        <path class="cls-13" d="M565.88,611.57s-5.41-13.52,9.52-13.36"/>
      </g>
      <g>
        <path class="cls-12" d="M544.62,599.41s-3.47-7.47,7.05-8.83"/>
        <path class="cls-16" d="M543.19,600.02s-4.71-10.46,8.3-11.41"/>
        <path class="cls-13" d="M541.85,600.45s-5.41-13.52,9.52-13.36"/>
      </g>
      <g>
        <path class="cls-12" d="M567.97,634.3s-3.47-7.47,7.05-8.83"/>
        <path class="cls-16" d="M566.54,634.91s-4.71-10.46,8.3-11.41"/>
        <path class="cls-13" d="M565.2,635.34s-5.41-13.52,9.52-13.36"/>
      </g>
      <g>
        <path class="cls-12" d="M672.57,604.14s-6.9,4.19-9.18-6.51"/>
        <path class="cls-16" d="M673.29,605.56s-9.67,5.71-11.78-7.58"/>
        <path class="cls-13" d="M673.83,606.9s-12.57,6.68-13.78-8.66"/>
      </g>
      <g>
        <path class="cls-12" d="M653.2,618.48s-7.55-2.84-.55-11.24"/>
        <path class="cls-16" d="M652.53,619.92s-10.47-4.08-1.32-13.95"/>
        <path class="cls-13" d="M651.81,621.17s-13.01-5.76-1.7-16.19"/>
      </g>
      <g>
        <path class="cls-12" d="M609.73,589.65s2.39,7.71-8.55,7.33"/>
        <path class="cls-16" d="M611.28,589.3s3.2,10.77-10.21,9.59"/>
        <path class="cls-13" d="M612.71,589.1s3.43,13.81-11.75,11.27"/>
      </g>
      <g>
        <path class="cls-12" d="M644.5,600.41s-3.47-7.47,7.05-8.83"/>
        <path class="cls-16" d="M643.07,601.02s-4.71-10.46,8.3-11.41"/>
        <path class="cls-13" d="M641.74,601.45s-5.41-13.52,9.52-13.36"/>
      </g>
      <g>
        <path class="cls-12" d="M627.38,591.61s-3.47-7.47,7.05-8.83"/>
        <path class="cls-16" d="M625.95,592.22s-4.71-10.46,8.3-11.41"/>
        <path class="cls-13" d="M624.61,592.65s-5.41-13.52,9.52-13.36"/>
      </g>
      <g>
        <path class="cls-12" d="M580.14,591.38s3.43-7.49,11.3-.37"/>
        <path class="cls-16" d="M578.75,590.68s4.9-10.38,14.07-1.09"/>
        <path class="cls-13" d="M577.56,589.94s6.78-12.89,16.34-1.43"/>
      </g>
      <g>
        <path class="cls-12" d="M626.7,615.38s-3.47-7.47,7.05-8.83"/>
        <path class="cls-16" d="M625.27,615.99s-4.71-10.46,8.3-11.41"/>
        <path class="cls-13" d="M623.93,616.42s-5.41-13.52,9.52-13.36"/>
      </g>
      <path class="cls-47" d="M545.7,344.52s-11.84,16.04-5.85,37.78c0,0,8.75-5.38,15.71,9.85,0,0,15.25-12.46,18.23-51.28,0,0,34.34,9.81,53.17,.83,0,0,9.82,8.07,9.64,26.83l.96,11.1c5.75-32.96-8.24-48.24-8.24-48.24-24.55-27.47-56.63-15.56-63.44-10.21,0,0-11.5-16.38-29.67-2.98,0,0-9.83,5.66-7.75,14.3,0,0-17.02-8.04-20.15,12.47,0,0-13.91,4.52-6.26,20.51,0,0-8.69,10.08,2.78,18.42,0,0,12.86,10.08,18.77-2.43,0,0,11.47,6.6,10.78-5.21,0,0,12.51,1.39,13.21-9.73,.7-11.12-1.89-22.01-1.89-22.01Z"/>
    </g>
    <g>
      <path class="cls-39" d="M547.49,535.14l-1.59,6.35c8.21,0,45.56,14.5,45.56,14.5,0,0,11.74-5.31,16.4-9.49l11.54-3.14,9.04,.42s3.95,2.12,1.48,3.53c-1.98,1.13-4.8,.64-8.71,.63l-3.38,1.13,6.75,1.13s3.54,2.41,.16,5.15c0,0,5.47,1.61,.64,6.27,0,0,2.09,3.86-.96,5.79-3.06,1.93-7.88,4.5-7.88,4.5,0,0-3.86,.8-3.86-2.41l-7.72,1.77s-1.77,.96-5.47-.32c-3.7-1.29-5.47-.96-5.47-.96,0,0-48.93,10.15-67.19-4.93s0,0,0,0c0,0-12.97-17.47-10.85-30.44"/>
      <path class="cls-17" d="M624.75,555.34s-4.66-3.7-8.84-1.45"/>
      <path class="cls-17" d="M625.39,561.62s-5.79-2.73-9.17-2.09"/>
      <path class="cls-17" d="M620.89,566.44s-4.34-1.29-8.2,3.06"/>
    </g>
    <g>
      <path class="cls-36" d="M438.43,446.42s3.19,37.69,26.05,72.09c0,0,30.61,27.35,149.2,20.01l-4.99-27.15-88.53-40.07s-1.79-9.2-6.99-33.18"/>
      <path class="cls-36" d="M608.69,511.36s22.78-10.3,31.83-18.41l24.65-8.11,31.52,1.25s3.74,5.31-3.12,7.49-19.66,4.06-27.15,2.18l-6.55,2.18,13.11,2.18s6.87,4.68,.31,9.99c0,0,10.61,3.12,1.25,12.17,0,0,4.06,7.49-1.87,11.23-5.93,3.74-15.29,8.74-15.29,8.74,0,0-7.49,1.56-7.49-4.68l-14.98,3.43s-3.43,1.87-10.61-.62c-7.18-2.5-10.61-1.87-10.61-1.87"/>
      <path class="cls-11" d="M673.29,510.11s-9.05-7.18-17.16-2.81"/>
      <path class="cls-11" d="M674.54,522.28s-11.23-5.31-17.79-4.06"/>
      <path class="cls-11" d="M665.8,531.65s-8.43-2.5-15.92,5.93"/>
    </g>
  </g>
</svg>