<?xml version="1.0" encoding="UTF-8"?>
<svg id="Layer_1" data-name="Layer 1" xmlns="http://www.w3.org/2000/svg" viewBox="0 0 1334.19 1000.02">
  <defs>
    <style>
      .cls-1, .cls-2, .cls-3, .cls-4, .cls-5, .cls-6, .cls-7, .cls-8, .cls-9 {
        stroke-miterlimit: 10;
      }

      .cls-1, .cls-2, .cls-3, .cls-5, .cls-6, .cls-7, .cls-8 {
        fill: none;
      }

      .cls-1, .cls-2, .cls-3, .cls-9 {
        stroke-width: 1.5px;
      }

      .cls-1, .cls-4, .cls-5 {
        stroke: #231f20;
      }

      .cls-2 {
        stroke: #603913;
      }

      .cls-3 {
        stroke: #808285;
      }

      .cls-10 {
        fill: #fff;
      }

      .cls-11 {
        fill: #fbb040;
      }

      .cls-12 {
        fill: #803435;
      }

      .cls-13 {
        fill: #8b5e3c;
      }

      .cls-14, .cls-9 {
        fill: #9054a2;
      }

      .cls-15 {
        fill: #301c12;
      }

      .cls-16 {
        fill: #bd9154;
      }

      .cls-17 {
        fill: #be9e7d;
      }

      .cls-18 {
        fill: #be8c8c;
      }

      .cls-19 {
        fill: #bde4e0;
      }

      .cls-20 {
        fill: #bf6b6b;
      }

      .cls-21 {
        fill: #231f20;
      }

      .cls-22, .cls-4 {
        fill: #9c2024;
      }

      .cls-23 {
        fill: #3c2415;
      }

      .cls-24 {
        fill: #26130f;
      }

      .cls-5, .cls-6, .cls-7 {
        stroke-width: 2px;
      }

      .cls-6 {
        stroke: #a579b5;
      }

      .cls-7 {
        stroke: #fbb040;
      }

      .cls-8 {
        stroke: #75308e;
        stroke-width: 4px;
      }

      .cls-9 {
        stroke: #662d91;
      }
    </style>
  </defs>
  <g>
    <rect class="cls-19" width="1333.75" height="1000.02"/>
    <rect class="cls-16" y="803.03" width="1334.03" height="197"/>
    <rect class="cls-13" x=".17" y="928.63" width="1334.03" height="71.25"/>
  </g>
  <polygon class="cls-10" points="290.16 803.71 336.28 828.91 496.01 828.43 449.42 803.24 290.16 803.71"/>
  <polygon class="cls-10" points="776.34 308.81 779.16 311.63 726.94 363.51 776.34 308.81"/>
  <polygon class="cls-10" points="749.09 279.94 752.28 282.34 707.98 341.12 749.09 279.94"/>
  <polygon class="cls-10" points="710.97 258.86 714.62 260.47 684.92 327.82 710.97 258.86"/>
  <polygon class="cls-10" points="650.93 254.8 654.91 254.63 657.99 328.17 650.93 254.8"/>
  <polygon class="cls-10" points="596.5 279.18 600 277.27 635.21 341.91 596.5 279.18"/>
  <polygon class="cls-10" points="557.18 336.5 559.11 333.01 623.38 368.89 557.18 336.5"/>
  <g>
    <path class="cls-17" d="M982.51,582.51l-86.95,95.04c-.07,.08-.15,.16-.23,.23-38.98,36.64-79.34,1.8-79.34,1.8,0,0-42.94-31.42-83.98-98.27-23.18-37.77-37.83-73.94-41.07-82.22-.42-1.08-1.31-1.9-2.42-2.24-15.31-4.72-14.72-18.55-14.72-18.55v-132.95c0-2.16,1.8-4,3.95-3.81,1.56,.14,3.25,1.35,4.37,5.13,.08,.27,.15,.53,.23,.78,.9,3.09,4.98,3.72,6.8,1.07s3.76-4.41,5.61-3.41c4.05,2.18,3.89,13.36,3.82,15.55,0,.26,0,.5,.05,.76,.57,3.26,4.48,26.2,3.8,33.95-.04,.45,.02,.9,.14,1.34l1.5,5.27c.21,.73,.66,1.34,1.24,1.83,1.06,.88,2.65,3.17,2.07,8.78-.09,.84,.1,1.69,.55,2.4,1.18,1.86,3.33,6.25,2.73,12.82-.8,8.78,4.36,27.2,5.1,29.79,.06,.22,.14,.42,.24,.63,1.57,3.18,16.06,30.28,81.24,93.31l38.54,37.53c1.7,1.65,4.48,1.37,5.81-.59,26.64-39.1,44.02-70,49.61-80.24,1.07-1.95,3.57-2.57,5.44-1.35l108.95,71.65"/>
    <path class="cls-2" d="M707.12,405.55s-4.88-7.74-12.05,2.29-4.02,21.8-4.02,21.8c0,0,1.43,11.76-4.3,17.21"/>
    <path class="cls-2" d="M690.27,497.33s13.07-.72,20.54-4.45"/>
    <path class="cls-17" d="M1083.85,287.87s13.45,48.5,58.15,51.55c0,0-10.54,175.09-128.45,192.14,0,0-90.9-13.81-50.29-134.16,0,0,8.39-8,8.16-22.9"/>
    <path class="cls-17" d="M1070.74,249.58s-16.19-109.81-115.61-107.25c0,0-70.27,7.63-55.3,106.42,0,0,5.55,15.51,3.77,24.25,0,0-3.18,22.32,9.6,41.65,19.13,28.94,36.93,49.25,36.93,49.25,0,0,11.11,13.61,35.69,11.3,0,0,17.19-2.32,37.66-18.73,0,0,52.84-31.12,46.55-63.44,0,0,25.98,13.58,32.72-26.15,0,0,3.78-54.43-32-17.28Z"/>
    <path class="cls-24" d="M976.67,225.4s32.16-14.58,48.9-5.52c0,0-13.61-16.09-50.72-2.36,0,0-6.1,5.93,1.82,7.88Z"/>
    <path class="cls-24" d="M895.31,226.35c.6-1.82,17.66-3.51,33.55-1.44,0,0,7.27,4.42-.02,8.08,0,0-29.03-7.79-32.8,1.7,0,0-2.22-3.85-.73-8.35Z"/>
    <path class="cls-1" d="M944.05,275.95s-11.39,21.88,12.74,21.6"/>
    <path class="cls-1" d="M1098.24,256.32s-11.21-21.92-24.64,16.89c0,0,13.09-17.94,17.32-4.31"/>
    <path class="cls-24" d="M971.42,374.5s8.37,6.14,33.65-6.07c0,0,22.15-10.3,39.27-27.56,0,0-20.89,29.2-52.76,36.83,0,0-8.33,3.54-21.02,.56,0,0,1.84-.41,.87-3.76Z"/>
    <path class="cls-20" d="M1006.86,308.88s-16.71-3.16-35.33,4.47c0,0-17-1.45-31.59,3.57,0,0,4.69,26.65,30.54,29.74,25.84,3.1,38.63-22.16,36.38-37.78Z"/>
    <path class="cls-12" d="M1003.04,311.23s2.92,23.72-27.95,27.21c-28.04,3.17-30.65-17.95-30.65-17.95,0,0,31.75-2.14,58.6-9.26Z"/>
    <path class="cls-10" d="M999.25,312s-6.41,11.86-30.43,13.4c0,0-14.65,2.4-21.71-4.74,0,0,30.87-2.81,52.14-8.67Z"/>
    <path class="cls-5" d="M988.32,246.02s7.54-18.02,25.51-5.5"/>
    <path class="cls-5" d="M905.6,254.82s9.14-16.69,24.14-1.39"/>
    <path class="cls-10" d="M960.89,809.29s10.05-65.5-11.29-137.12c0,0-44.93-22.46-46.98-84.48l-32.64-46.77,32.43-70.02s9.58-30.96,44.96-68.55c0,0,2-1.85,16.81-5.56,0,0-2.53,22,17.18,46.63,0,0,42.49,62.65,103.04,4.23,0,0,44.6-50.9,23.91-104.1,0,0,53.25,13.97,97.89,23.76,73.95,16.22,70.95,121.96,70.95,121.96,0,0-6.46,230.64,15.53,259.57l38.53,59.64"/>
    <path class="cls-3" d="M1169.28,566.85s-12.89-28.37-11.43-63.68"/>
    <path class="cls-3" d="M902.62,587.69s-5.04-23.17,4.42-50.89"/>
    <path class="cls-17" d="M1276.2,520.25s9.25,150.68,6.63,189.03c-2.71,39.65-20.95,48.56-66.72,65.35-48.98,17.97-217.89,43.51-217.89,43.51,0,0-41.07,17.45-72.59,10.98,0,0,3.12,15.83-5.74,17.77,0,0-4.63,.68-14.4-12.08,0,0-7.07,8.77-16.12-10.88,0,0-9.19,9.4-15.92-6.33l-2.34-9.44s-9.27,9.89-13.53,5.62,3.42-16.44,3.42-16.44c0,0,5.25-21.13,16.55-22.64,11.3-1.51,37.87-12.84,37.87-12.84l78.96,8.48s84.68-47.56,177.5-96.93c0,0-3.93-67.58-4.87-103.08,0,0,65.8-1.24,109.21-50.09Z"/>
    <path class="cls-2" d="M957.32,766.58l-41.92-4.71-37.87,12.84s-7.74,1.4-12.56,10.88c-4.82,9.48-8.74,21.54-8.74,21.54,0,0-2.34,16.44,14.87,1.03,0,0,1.3,19.63,12.26,18.34,0,0,3.92-.94,6.01-2.57,0,0,8.8,20.4,16.12,10.88,0,0-9.59-16.11-2.9-22.77,6.7-6.65,17.49-6.42,17.49-6.42"/>
    <path class="cls-2" d="M871.09,808.16s2.73-19.2,8.17-23.8,16.12-9.6,16.12-9.6"/>
    <path class="cls-2" d="M889.35,823.93s-3.67-23.75,11.41-33.27"/>
    <path class="cls-23" d="M940.46,155.96s69.91,112.43,161.59,104.94c0,0-4.02,38.09-32.02,32.11,0,0,4.78,46.07,33.48,73.66,0,0,25.06,21.37,59.14,24.08,26.21,2.08,71.37-11.33,71.37-11.33,0,0-41.07-22.75-74.07-104.99-37.01-92.23-68.09-130.74-68.09-130.74,0,0-68.1-84.36-152.56-27.78,0,0-47.71,6.53-63.91,54.24-9.37,27.59-2.82,76.5,2.82,115.53,0,0,16.07,96.97,60.08,120.38,0,0,35.96,.8,33.47-31.61,0,0-7.53,.36-18.09-9.52-16.39-15.36-27.13-31.36-39.08-50.31,0,0-12.86-18.86-8.79-45.58,0,0,.9-13.93-3.9-21.52,0,0-11.57-56.82,38.58-91.54"/>
    <path class="cls-7" d="M1084.76,277.23s15.9,19.59,2.5,33.9c-13.41,14.31-8.87-17.76-8.87-17.76"/>
    <path class="cls-2" d="M905.47,834.81s7.9,11.38,14.4,12.08c0,0,9.03-2.58,5.74-17.77,0,0,30.45,6.25,72.59-10.98,0,0,49.33-6.45,56.51-9.6"/>
  </g>
  <g>
    <path class="cls-17" d="M299.29,383.03s12.36,63.52-23.57,73.36c0,0,7.78,93.02,93.71,95.71,0,0,81.4-5.77,42.54-88.79l-22.1-11.84c-.35-15.84,1.83-18.36,1.83-18.36l-92.41-50.07"/>
    <path class="cls-17" d="M436.34,277.13s7.29,15.62,4.32,51.7c0,0-.8,13.47,2.48,21.3,0,0,2.89,29.62-8.03,51.57-10.92,21.94-32.06,34.95-32.06,34.95,0,0-20.71,7.17-37.39,0-16.68-7.18-40.45-10.75-57.67-51.65,0,0-12.18,10.75-20.77-9.16-8.59-19.91-18.71-26.68-10.47-43.78,8.25-17.1,26.95,16.84,26.95,16.84,0,0-14.99-32.3-4.95-64.73,10.04-32.43,51.43-54.76,51.43-54.76,0,0,59.39-17.76,86.16,47.73Z"/>
    <path class="cls-21" d="M375.13,315.93s-22.93-4.04-42.37,3.82c0,0,9.02-12.92,42.65-9.28,0,0,5.71,3.12-.28,5.46Z"/>
    <path class="cls-21" d="M444.33,312.59c-16.35-.71-27.52,2.83-27.52,2.83-6.25-1.51-1.02-5.37-1.02-5.37,10.23-2.55,22.04-2.69,28.31-2.35,0,0,1.13,4.93,.23,4.89Z"/>
    <path class="cls-18" d="M372.52,391.21s11.51-5.12,26.23-2.77c0,0,12.01-3.93,23.37-2.79,0,0,1.14,20.01-16.97,26.62-18.1,6.61-31.6-9.42-32.63-21.06Z"/>
    <path class="cls-12" d="M375.67,392.26s1.92,17.59,24.77,14.87c20.75-2.47,19.05-18.13,19.05-18.13,0,0-23.25,3.84-43.81,3.26Z"/>
    <path class="cls-10" d="M379.18,392.22s6.44,8.47,24,5.36c0,0,10.92-.97,14.67-8.36,0,0-21.46,3.3-38.68,3Z"/>
    <path class="cls-1" d="M408.76,353.39s14.47,10.5,.28,18.31"/>
    <path class="cls-24" d="M393.76,438.98c-6.77,.87-18.46,1.23-28.1-2.35,0,0-17.12-4.84-35.24-17.8,0,0,12.83,15.34,44.71,22.78,0,0,6.54,1.43,15.27,1.01"/>
    <path class="cls-14" d="M498.67,527.61c-25.65-40.54-51.42-52.98-51.42-52.98l-56.75-23.17c46.91,64.1-10.72,64.55-10.72,64.55-62.12,1.52-95.1-65.07-95.1-65.07,0,0,.52-4.89-53.42,21.71-37.26,18.37-55.15,65.28-55.15,65.28,53.21,29.57,57.11,75.47,57.11,75.47-4.82,6.39-6,9.74-13.09,17.81l2.01,87.19-10.7,82.51c162.51,6.16,251.4,3.16,251.4,3.16l-5.19-71.82,7.11-88.86,11.07,6.79s38.95-97.13,22.85-122.58Z"/>
    <path class="cls-1" d="M278.37,350.51s5.56-9.39,12.74-.43c7.18,8.95,7.69,12.03,7.69,12.03,0,0-10.35-14.27-13.6-2.26"/>
    <path class="cls-8" d="M284.68,450.94s37.27,70.4,95.1,65.07c0,0,56.54-2.32,10.72-64.55"/>
    <path class="cls-5" d="M370.19,334.19s-9.64-15.48-24.33-1.26"/>
    <path class="cls-5" d="M437.69,327.67s-10.77-13.82-22.15,2.3"/>
    <path class="cls-11" d="M411.7,864.76l104.92-46.68,7.43-9.24-9.72,.39-103.69,48.78s-6.53,4.98,1.06,6.76Z"/>
    <path class="cls-17" d="M113.53,635.31s8.33,37.81,46.88,35.18c0,0,48.28-15.58,72.8-57.08,0,0-3.62-43.13-54.19-73.83l-17.36,24.52s-26.7-74.19-37.19-86.43c0,0-.87-4.18-.22-7.34,0,0,4.95-29.72-4.95-48.77,0,0-1.89-6.79-1.36-15.29s-7.97-5.05-7.97-5.05c0,0-5.05,3.45-4.78,11.42s.8,12.49,.8,12.49c0,0-2.56,1.13-7.97-.27-11.69-3.03-36.66-22.85-36.66-22.85,0,0-18.38-17.07-25.99-13.61,0,0-4.38,4.84,2.87,10.69,11.93,9.62,14.35,11.69,14.35,11.69,0,0,1.59,3.19-4.78,2.13s-25.24-16.47-25.24-16.47c0,0-6.11-4.75-9.57,.04s2.54,8.07,2.54,8.07c0,0-7.31-1.62-7.84,3.69s2.92,5.74,2.92,5.74l21.52,13.55s.8,1.86-4.25,1.86-11.69-4.52-15.67-1.59,5.84,8.24,5.84,8.24c0,0,45.79,3.98,68.9,41.97,0,0,5.72,10.58,4.79,16.12s13.11,106.75,21.79,141.2Z"/>
    <path class="cls-17" d="M577.92,634.89s-19.91,37.96-54.4,30.44-44.83-22.79-44.83-22.79c0,0,15.25-32.93,23.24-104.92l35.67,21.72,31.4-25.37s47.03-45.51,74.16-76.99l16.64-43.06s-5.07-43.78,.36-64.4c0,0,1.09-3.62,3.98-2.89,0,0,.36-9.77,6.15-9.77s5.43,7.96,5.43,7.96l2.17,15.2s1.09-12.66,6.15-11.58,6.15,8.32,6.15,8.32c0,0,3.32,41.21-2.11,50.26,0,0,13.56,1.3,9.81,12.26-4.61,13.48-9.38,21.64-9.38,21.64,0,0-1.23,6.25-.14,12.4s-4.33,23.56-14.46,31.89c-10.13,8.32-65.57,103.77-65.57,103.77,0,0-18.56,32.92-30.42,45.91Z"/>
    <path class="cls-2" d="M662.22,405.12s-1.64-47.33,2.98-63.66c.95-3.37,3.3-4.57,5.61-4.53,4.82,.1,4.91,7.89,4.91,7.89l2.17,15.2"/>
    <path class="cls-2" d="M666.17,412.71s8.92-34.2,13.01-59.34c0,0,.79-5.22,4.87-4.92,2.16,.16,5.12,2.26,6.05,9.74,3.74,29.94-2.02,48.83-2.02,48.83"/>
    <path class="cls-2" d="M663.01,441.16s11.08-12.69,14.71-23.17,10.48-12.49,15.31-10.28c4.84,2.22,6.25,8.87,4.43,13.3-1.81,4.43-7.25,15.52-7.25,15.52,0,0-3.83,7.46-2.22,14.31s-1.21,19.36-10.99,31.56"/>
    <path class="cls-2" d="M666.91,493.62s-8.55,4.34-21.23,2.12"/>
    <line class="cls-2" x1="15.53" y1="404.54" x2="50.81" y2="424.16"/>
    <path class="cls-2" d="M75,439.54s20.46,4.45,26.25,23.13"/>
    <path class="cls-2" d="M105.98,425.12s-1.25,6.38,.72,11.69"/>
    <path class="cls-9" d="M464.75,643.39s5.4-39.45-1.71-59.48"/>
    <path class="cls-15" d="M452.14,486.94c11.68,2,5.6,.67,24.19,1.65,18.6,.99,6.5-19.78,6.5-19.78,24.84,15.54,24.95-2.09,24.95-2.09,16.17,8.52,17.24-8.23,17.24-8.23,8.33-.39,8.07-5.94,4.82-15.99-3.25-10.05,10.41-15.33,10.41-15.33,20.15-5.58,4.69-18.77,4.69-18.77,30.65-19.06,6.5-19.78,6.5-19.78,12.01-20.97-5.71-22.92-5.71-22.92,29.76-18.09,2.41-27.94,2.41-27.94,16.01-14.66-8.7-27.42-8.7-27.42,36.69-28.61-6.85-27.51-6.85-27.51,8.93-27.32-12.1-20.77-12.1-20.77,13.64-25.68-17.03-27.03-17.03-27.03-2.98-23.98-40.79-19.43-40.79-19.43-1.77-37.95-32.25-15.19-32.25-15.19-5.1-9.96-12.74,5.23-12.74,5.23-.52-11.11-11.93-17.07-11.93-17.07-6.2-13.62-16.75-1.07-16.75-1.07-32.12-12.41-56.61,19.34-56.61,19.34,0,0-20.82-28.71-46.8-8.94,0,0-11.28-3.18-9.79,8.81,0,0-23.29-22.1-26.32,12.36,0,0-29.12-7.92-21,26.95,0,0-15.82-1.12-13.94,19.2,0,0-20.23,3.73-10.99,22.78,0,0-27.51,6.85-17.52,22.15,0,0-8.56,15.24,1.88,20.32,0,0-14.42,9.02,3.77,21.16,0,0-21.07,5.62-10.03,23.66,0,0-5.7,16.96,10.25,20.86,0,0-14.12,15.5,.03,20.41,0,0-14.12,15.5,12.01,18.92,0,0-5.47,2.11,6.29,15.47,0,0,4.61,19.26,11.35,24.51,0,0,16.51,15.92,13.58-7.13,0,0,5.97,28.48,24.45,7.21,0,0,1.07-16.75,9.3,.49s13.65,14.2,15.86,2.04c0,0,12.06,19.84,24.32,4.43,0,0-9.49,15.28,13.39,8.65,0,0,14.92-6.74,.42-25.15,0,0,11.28-11.44-4.13-20.26-15.41-8.83-4.12-10.26-4.12-10.26,0,0,7.02-5.33-2.6-16.7-9.62-11.37,0,0,0,0,0,0,3.53-7.07-4.42-33.7-7.95-26.63,0,0,0,0,0,0-15.98,9.41-26.78-21.21-8.4-23.82-9.78-27.09,.85-33.13,8.53-4.85,21.74,18.49,21.74,18.49,0,0,6.5-4.9,.2-13.24-6.3-8.34-3.81-13.46-3.81-13.46,0,0,10.57-7.31,5.42-20.25-5.15-12.94,1.65-13.26,1.65-13.26,0,0,18.16-.39,15.48-18.9,0,0,13.67,.73,11.09-15.52,0,0,11.78,8.99,22.98-4.26,11.2-13.25,13.71,1.63,13.71,1.63,0,0-1.09,15.5,16.03,12.43,17.13-3.07,15.53,1.55,15.53,1.55,0,0-1.09,15.5,11.95,12.62,0,0,2.88,13.05,14.4,6.6,11.52-6.45,10.75,6.32,10.75,6.32,0,0,3.47,25.45,.04,39.7l3.06,19.49c1.31,6.05,8.37,63.53-48.18,88.29-6.84,3-3.88,12.48-3.88,12.48,0,0,7.87,1.49,10.8,5.9"/>
    <path class="cls-6" d="M399.36,320.55s-9.65-5.15-15.51,2.88"/>
    <path class="cls-6" d="M329.84,326.67s24.23-15.45,54.5-2.98c0,0-1.11,27.17-17.84,28.4-16.73,1.23-28.48,8.61-36.65-25.42Z"/>
    <path class="cls-6" d="M399.25,320.04s24.23-15.45,54.5-2.98c0,0-1.11,27.17-17.84,28.4-16.73,1.23-28.48,8.61-36.65-25.42Z"/>
    <line class="cls-6" x1="329.84" y1="326.67" x2="285.46" y2="333.2"/>
  </g>
  <g>
    <rect class="cls-22" x="114.05" y="818.66" width="192.67" height="23.41"/>
    <polygon class="cls-22" points="30.46 797.34 114.05 818.66 306.72 818.66 216.03 795.67 30.46 797.34"/>
    <polygon class="cls-22" points="35.45 813.12 113.99 837.58 114.05 842.06 35.45 816.65 35.45 813.12"/>
    <polygon class="cls-10" points="35.45 798.92 114.05 818.66 114.05 838.93 35.45 813.52 35.45 798.92"/>
    <line class="cls-4" x1="114.05" y1="818.66" x2="306.72" y2="818.66"/>
    <polygon class="cls-4" points="136.39 800.29 183.04 800.29 222.04 812.53 172.71 812.53 136.39 800.29"/>
  </g>
</svg>