<?xml version="1.0" encoding="UTF-8"?>
<svg xmlns="http://www.w3.org/2000/svg" xmlns:xlink="http://www.w3.org/1999/xlink" viewBox="0 0 1936.93 999.94">
  <defs>
    <style>
      .cls-1, .cls-2, .cls-3, .cls-4, .cls-5, .cls-6, .cls-7, .cls-8, .cls-9, .cls-10, .cls-11, .cls-12, .cls-13, .cls-14, .cls-15, .cls-16, .cls-17, .cls-18, .cls-19, .cls-20, .cls-21, .cls-22, .cls-23, .cls-24, .cls-25 {
        fill: none;
      }

      .cls-2, .cls-3 {
        stroke-width: 1.5px;
      }

      .cls-2, .cls-3, .cls-4, .cls-5, .cls-26, .cls-27, .cls-28, .cls-6, .cls-7, .cls-8, .cls-29, .cls-30, .cls-31, .cls-32, .cls-33, .cls-34, .cls-35, .cls-36, .cls-37, .cls-38, .cls-9, .cls-10, .cls-11, .cls-12, .cls-13, .cls-14, .cls-15, .cls-16, .cls-17, .cls-18, .cls-19, .cls-20, .cls-21, .cls-22, .cls-39, .cls-40, .cls-23, .cls-24, .cls-25 {
        stroke-miterlimit: 10;
      }

      .cls-2, .cls-9 {
        stroke: #16a9de;
      }

      .cls-3, .cls-6, .cls-7, .cls-8, .cls-36, .cls-37, .cls-15, .cls-21, .cls-23 {
        stroke: #231f20;
      }

      .cls-4 {
        stroke: #d1d3d4;
      }

      .cls-4, .cls-5, .cls-39, .cls-40 {
        stroke-width: 6px;
      }

      .cls-5, .cls-27, .cls-29, .cls-14, .cls-17, .cls-22, .cls-39 {
        stroke: #fff;
      }

      .cls-41 {
        clip-path: url(#clippath);
      }

      .cls-42 {
        fill: #006087;
      }

      .cls-43 {
        fill: #00628a;
      }

      .cls-44, .cls-31 {
        fill: #0098bd;
      }

      .cls-45 {
        fill: #f15953;
      }

      .cls-46 {
        fill: #f05380;
      }

      .cls-47, .cls-27, .cls-30, .cls-32, .cls-33 {
        fill: #fff;
      }

      .cls-48 {
        fill: #f1f2f2;
      }

      .cls-49 {
        fill: #f08681;
      }

      .cls-50 {
        fill: #ffcb05;
      }

      .cls-51 {
        fill: #fbb040;
      }

      .cls-52 {
        fill: #f16225;
      }

      .cls-53 {
        fill: #fdf9ce;
      }

      .cls-54 {
        fill: #803435;
      }

      .cls-55 {
        fill: #9a6c3f;
      }

      .cls-56 {
        fill: #8b5e3c;
      }

      .cls-57 {
        fill: #8b6340;
      }

      .cls-58 {
        fill: #8fb359;
      }

      .cls-59, .cls-36 {
        fill: #cf9f73;
      }

      .cls-60, .cls-35 {
        fill: #bd9154;
      }

      .cls-61 {
        fill: #be9e7d;
      }

      .cls-62 {
        fill: #be8c8c;
      }

      .cls-63 {
        fill: #bde4e0;
      }

      .cls-64 {
        fill: #bf6b6b;
      }

      .cls-65 {
        fill: #d1d3d4;
      }

      .cls-66 {
        fill: #ac8263;
      }

      .cls-67 {
        fill: #e2ae6d;
      }

      .cls-68, .cls-34 {
        fill: #ca544c;
      }

      .cls-69 {
        fill: #231f20;
      }

      .cls-70 {
        fill: #1fa8df;
      }

      .cls-71, .cls-38 {
        fill: #0f3e5d;
      }

      .cls-72, .cls-37 {
        fill: #9c2024;
      }

      .cls-73 {
        fill: #808285;
      }

      .cls-74 {
        fill: #3c2415;
      }

      .cls-75 {
        fill: #59bede;
      }

      .cls-76 {
        fill: #3aa362;
      }

      .cls-77 {
        fill: #749147;
      }

      .cls-78, .cls-28 {
        fill: #754c29;
      }

      .cls-79 {
        fill: #26130f;
      }

      .cls-26, .cls-9, .cls-10, .cls-11, .cls-12, .cls-13 {
        stroke-width: 2px;
      }

      .cls-26, .cls-40 {
        fill: #a97c50;
        stroke: #a97c50;
      }

      .cls-27, .cls-6, .cls-8, .cls-14 {
        stroke-linecap: round;
      }

      .cls-27, .cls-14 {
        stroke-width: 4px;
      }

      .cls-28 {
        stroke-width: .2px;
      }

      .cls-28, .cls-19, .cls-25 {
        stroke: #754c29;
      }

      .cls-80 {
        clip-path: url(#clippath-1);
      }

      .cls-7 {
        stroke-width: .7px;
      }

      .cls-8, .cls-29, .cls-23, .cls-24, .cls-25 {
        stroke-width: .5px;
      }

      .cls-29 {
        fill: #d784b7;
      }

      .cls-30 {
        stroke: #9a6c3f;
        stroke-width: 8px;
      }

      .cls-31 {
        stroke: #196bac;
      }

      .cls-32, .cls-38 {
        stroke: #2e3192;
      }

      .cls-33 {
        stroke: #6d6e71;
      }

      .cls-34, .cls-20 {
        stroke: #be1e2d;
      }

      .cls-35, .cls-24 {
        stroke: #603913;
      }

      .cls-10 {
        stroke: #1c75bc;
      }

      .cls-11 {
        stroke: #0f3e5d;
      }

      .cls-12 {
        stroke: #8b645f;
      }

      .cls-13 {
        stroke: #8fb359;
      }

      .cls-16 {
        stroke: #fbb040;
      }

      .cls-18 {
        stroke: #749147;
      }

      .cls-21 {
        stroke-width: .6px;
      }

      .cls-81 {
        opacity: .8;
      }

      .cls-22 {
        stroke-dasharray: 0 0 3 3;
      }

      .cls-39 {
        fill: #c8eaf6;
      }
    </style>
    <clipPath id="clippath">
      <rect class="cls-1" x="962.16" y="417.69" width="493.89" height="475.11"/>
    </clipPath>
    <clipPath id="clippath-1">
      <rect class="cls-1" x="122.26" y="587.22" width="642.55" height="373.5"/>
    </clipPath>
  </defs>
  <g id="fondo">
    <rect class="cls-63" x="122.98" width="1333.22" height="885.41"/>
    <rect class="cls-67" x="122.98" y="869.57" width="1333.06" height="130.37"/>
    <g>
      <g>
        <path class="cls-58" d="M793.37,414.02s-15.41,.88-26.46-3.78c0,0-13.96-2.91-7.85,14.83s36.63,6.11,38.09-.29"/>
        <path class="cls-58" d="M801.3,432.92s-5.59,3.96-19.33,2.79c-13.74-1.16-14.44,10.48-14.44,10.48,0,0,.47,12.11,20.26,11.41,0,0,11.64-.7,18.4-14.2"/>
        <path class="cls-58" d="M809.22,450.15s-7.22,12.34-19.09,12.11c-11.88-.23-6.75,12.11-6.75,12.11,0,0,3.73,9.08,15.37,3.26,11.64-5.82,13.51-19.09,13.51-19.09"/>
        <path class="cls-58" d="M795.51,413s12.2-11.3,17.45-21.39c0,0,6.39-11.91,14.62,4.94,8.22,16.86-21.58,30.22-27.14,26.73"/>
        <path class="cls-58" d="M804.69,432.18s6.75-1.15,15.64-11.69c8.89-10.54,17.62-2.8,17.62-2.8,0,0,8.23,8.89-6.26,22.39,0,0-8.73,7.74-23.05,2.97"/>
        <path class="cls-58" d="M809.45,451.39s13.83,3.62,22.06-4.94c8.23-8.56,13.34,3.79,13.34,3.79,0,0,3.79,9.06-8.56,13.17-12.35,4.12-23.05-3.95-23.05-3.95"/>
        <path class="cls-58" d="M790.01,410.53c-30.04-11.18-20.03-32.37-20.03-32.37,23.75,.93,23.29,30.27,23.29,30.27"/>
        <path class="cls-13" d="M820.18,494.66s-12.29-70.7-36.45-94.41"/>
      </g>
      <g>
        <path class="cls-77" d="M850.18,435.1s11.57,.66,19.87-2.84c0,0,10.48-2.18,5.9,11.14-4.59,13.32-27.51,4.59-28.61-.22"/>
        <path class="cls-77" d="M844.22,449.29s4.2,2.97,14.52,2.1c10.32-.87,10.84,7.87,10.84,7.87,0,0-.35,9.09-15.22,8.57,0,0-8.74-.52-13.82-10.67"/>
        <path class="cls-77" d="M838.28,462.24s5.42,9.27,14.34,9.09c8.92-.17,5.07,9.09,5.07,9.09,0,0-2.8,6.82-11.54,2.45-8.74-4.37-10.14-14.34-10.14-14.34"/>
        <path class="cls-77" d="M848.58,434.34s-9.16-8.49-13.11-16.07c0,0-4.8-8.95-10.98,3.71-6.18,12.66,16.21,22.7,20.38,20.07"/>
        <path class="cls-77" d="M841.68,448.74s-5.07-.87-11.75-8.78c-6.68-7.91-13.23-2.1-13.23-2.1,0,0-6.18,6.68,4.7,16.82,0,0,6.55,5.81,17.31,2.23"/>
        <path class="cls-77" d="M838.11,463.16s-10.39,2.72-16.57-3.71-10.02,2.84-10.02,2.84c0,0-2.84,6.8,6.43,9.89,9.27,3.09,17.31-2.97,17.31-2.97"/>
        <path class="cls-77" d="M852.7,432.48c22.56-8.39,15.04-24.31,15.04-24.31-17.84,.7-17.49,22.74-17.49,22.74"/>
        <path class="cls-18" d="M830.05,495.66s9.23-53.1,27.37-70.9"/>
      </g>
      <path class="cls-49" d="M863.61,547.65v-59.84s-77.76,0-77.76,0v59.52s37.08,22.54,77.76,.32Z"/>
      <rect class="cls-49" x="799.05" y="553.24" width="50.47" height="9.7" transform="translate(1648.58 1116.17) rotate(-180)"/>
      <polyline class="cls-12" points="862.51 515.14 849.95 513.14 837.37 515.14 824.8 513.14 812.23 515.14 799.64 513.14 787.06 515.14"/>
      <polyline class="cls-12" points="862.51 525.65 849.95 523.65 837.37 525.65 824.8 523.65 812.23 525.65 799.64 523.65 787.06 525.65"/>
    </g>
    <g>
      <rect class="cls-60" x="429.36" y="581.11" width="522.94" height="271.38" transform="translate(1381.66 1433.61) rotate(-180)"/>
      <rect class="cls-55" x="412.72" y="563.81" width="539.7" height="18.43" transform="translate(1365.14 1146.06) rotate(-180)"/>
      <polygon class="cls-55" points="952.4 869.89 419.12 869.89 429.46 852.42 952.4 851.46 952.4 869.89"/>
      <rect class="cls-35" x="698.97" y="597.35" width="239.71" height="46.36" transform="translate(1637.64 1241.06) rotate(-180)"/>
      <path class="cls-19" d="M806.32,620.82c0,6.82,5.53,12.35,12.35,12.35s12.35-5.53,12.35-12.35"/>
      <circle class="cls-28" cx="830.89" cy="620.87" r="1.9"/>
      <circle class="cls-28" cx="806.29" cy="620.87" r="1.9"/>
      <rect class="cls-35" x="444.64" y="597.35" width="239.71" height="46.36" transform="translate(1128.98 1241.06) rotate(-180)"/>
      <path class="cls-19" d="M551.99,620.82c0,6.82,5.53,12.35,12.35,12.35,6.82,0,12.35-5.53,12.35-12.35"/>
      <circle class="cls-28" cx="576.56" cy="620.87" r="1.9"/>
      <circle class="cls-28" cx="551.96" cy="620.87" r="1.9"/>
      <rect class="cls-35" x="698.97" y="659.47" width="239.71" height="46.36" transform="translate(1637.64 1365.29) rotate(-180)"/>
      <path class="cls-19" d="M806.32,682.94c0,6.82,5.53,12.35,12.35,12.35,6.82,0,12.35-5.53,12.35-12.35"/>
      <circle class="cls-28" cx="830.89" cy="682.99" r="1.9"/>
      <circle class="cls-28" cx="806.29" cy="682.99" r="1.9"/>
      <rect class="cls-35" x="444.64" y="659.47" width="239.71" height="46.36" transform="translate(1128.98 1365.29) rotate(-180)"/>
      <path class="cls-19" d="M551.99,682.94c0,6.82,5.53,12.35,12.35,12.35,6.82,0,12.35-5.53,12.35-12.35"/>
      <circle class="cls-28" cx="576.56" cy="682.99" r="1.9"/>
      <circle class="cls-28" cx="551.96" cy="682.99" r="1.9"/>
      <rect class="cls-35" x="698.97" y="722.2" width="239.71" height="46.36" transform="translate(1637.64 1490.76) rotate(-180)"/>
      <path class="cls-19" d="M806.32,745.67c0,6.82,5.53,12.35,12.35,12.35s12.35-5.53,12.35-12.35"/>
      <circle class="cls-28" cx="830.89" cy="745.73" r="1.9"/>
      <circle class="cls-28" cx="806.29" cy="745.73" r="1.9"/>
      <rect class="cls-35" x="444.64" y="722.2" width="239.71" height="46.36" transform="translate(1128.98 1490.76) rotate(-180)"/>
      <path class="cls-19" d="M551.99,745.67c0,6.82,5.53,12.35,12.35,12.35s12.35-5.53,12.35-12.35"/>
      <circle class="cls-28" cx="576.56" cy="745.73" r="1.9"/>
      <circle class="cls-28" cx="551.96" cy="745.73" r="1.9"/>
      <rect class="cls-35" x="698.97" y="784.93" width="239.71" height="46.36" transform="translate(1637.64 1616.23) rotate(-180)"/>
      <path class="cls-19" d="M806.32,808.4c0,6.82,5.53,12.35,12.35,12.35s12.35-5.53,12.35-12.35"/>
      <circle class="cls-28" cx="830.89" cy="808.46" r="1.9"/>
      <circle class="cls-28" cx="806.29" cy="808.46" r="1.9"/>
      <rect class="cls-35" x="444.64" y="784.93" width="239.71" height="46.36" transform="translate(1128.98 1616.23) rotate(-180)"/>
      <path class="cls-19" d="M551.99,808.4c0,6.82,5.53,12.35,12.35,12.35s12.35-5.53,12.35-12.35"/>
      <circle class="cls-28" cx="576.56" cy="808.46" r="1.9"/>
      <circle class="cls-28" cx="551.96" cy="808.46" r="1.9"/>
    </g>
    <polygon class="cls-48" points="705.06 629.16 503.8 563.08 906.32 563.08 705.06 629.16"/>
    <polyline class="cls-2" points="906.47 566.12 901.25 566.78 896.66 569.34 891.44 570 886.85 572.56 881.64 573.22 877.04 575.78 871.82 576.44 867.23 579 862.01 579.66 857.42 582.22 852.2 582.88 847.61 585.44 842.39 586.1 837.79 588.66 832.57 589.33 827.98 591.89 822.76 592.55 818.16 595.11 812.94 595.77 808.35 598.33 803.13 598.99 798.53 601.56 793.31 602.22 788.71 604.78 783.49 605.44 778.89 608 773.67 608.67 769.07 611.23 763.85 611.89 759.25 614.45 754.03 615.11 749.44 617.67 744.21 618.34 739.61 620.9 734.39 621.56 729.79 624.12 724.57 624.79 719.97 627.35 714.74 628.01 710.13 630.58 705.06 631.22 700 630.58 695.4 628.02 690.19 627.36 685.59 624.8 680.38 624.14 675.79 621.58 670.57 620.92 665.97 618.36 660.76 617.7 656.17 615.14 650.95 614.48 646.35 611.92 641.13 611.26 636.54 608.69 631.32 608.03 626.72 605.47 621.5 604.81 616.91 602.25 611.69 601.59 607.09 599.03 601.87 598.36 597.27 595.8 592.05 595.14 587.46 592.58 582.23 591.92 577.64 589.36 572.41 588.69 567.81 586.13 562.59 585.47 558 582.91 552.78 582.25 548.18 579.68 542.96 579.02 538.36 576.46 533.13 575.8 528.53 573.23 523.31 572.57 518.71 570.01 513.49 569.35 508.88 566.78 503.65 566.12"/>
    <polyline class="cls-9" points="906.32 563.08 705.06 629.16 503.8 563.08"/>
    <rect class="cls-1" x="754.46" y="562.62" width="197.94" height="307.28"/>
    <g>
      <rect class="cls-30" x="940.8" y="191.89" width="134.46" height="101.42"/>
      <rect class="cls-43" x="952.57" y="203.1" width="109.82" height="78.44"/>
    </g>
    <g>
      <polyline class="cls-66" points="331.47 557.05 345.21 734.09 336.47 915.82 360.19 915.82 368.93 831.4 478.8 831.4 486.29 915.82 510.02 915.82 496.28 716.5 375.17 716.5"/>
      <polygon class="cls-63" points="372.12 811.12 376.07 763.89 469.04 763.89 473.98 811.91 372.12 811.12"/>
      <polygon class="cls-66" points="331.47 557.05 509.23 557.05 496.28 726.85 344.41 726.85 331.47 557.05"/>
      <rect class="cls-56" x="343.05" y="721.95" width="154.02" height="20.25"/>
      <polygon class="cls-60" points="473.98 811.91 427.59 811.91 427.59 763.98 469.04 763.98 473.98 811.91"/>
    </g>
    <g>
      <rect class="cls-39" x="201.62" y="59.66" width="390.42" height="343.5"/>
      <line class="cls-40" x1="156.63" y1="47.45" x2="636.99" y2="47.45"/>
      <circle class="cls-26" cx="153.05" cy="46.88" r="6.32"/>
      <circle class="cls-26" cx="643.49" cy="47.73" r="6.32"/>
      <path class="cls-68" d="M170.86,37.64l-.73,396.5s15.42,13.22,39.65,5.14v-16.89s22.03,5.87,34.51,0v13.95s22.76,8.81,30.1,.73l-15.42-259.19,8.08-140.24-39.65,.73-8.81,2.2-14.69-2.94h-33.04Z"/>
      <path class="cls-68" d="M629.98,37.64l.73,396.5s-15.42,13.22-39.65,5.14v-16.89s-22.03,5.87-34.51,0v13.95s-22.76,8.81-30.1,.73l15.42-259.19-8.08-140.24,39.65,.73,8.81,2.2,14.69-2.94h33.04Z"/>
      <line class="cls-20" x1="209.77" y1="422.39" x2="202.21" y2="266.39"/>
      <line class="cls-20" x1="244.28" y1="422.39" x2="240.75" y2="275.79"/>
      <line class="cls-20" x1="203.9" y1="37.64" x2="201.23" y2="192.3"/>
      <line class="cls-20" x1="218.58" y1="40.57" x2="220.66" y2="271.54"/>
      <line class="cls-20" x1="556.55" y1="422.39" x2="557.03" y2="282.75"/>
      <line class="cls-20" x1="591.06" y1="422.39" x2="593.66" y2="240.89"/>
      <line class="cls-20" x1="573.44" y1="38.37" x2="573.48" y2="170.63"/>
      <line class="cls-20" x1="596.93" y1="37.64" x2="597.4" y2="202.77"/>
      <line class="cls-5" x1="397.2" y1="58.04" x2="397.2" y2="402.39"/>
      <line class="cls-4" x1="402.43" y1="62.54" x2="402.43" y2="399.37"/>
    </g>
    <g class="cls-41">
      <g>
        <rect class="cls-42" x="1076.16" y="737.8" width="754.73" height="23.09"/>
        <path class="cls-44" d="M1099.02,428.55h321.6c19.72,0,35.74,16.01,35.74,35.74v194.29c0,.21-.17,.38-.38,.38h-356.95c-19.72,0-35.74-16.01-35.74-35.74v-158.93c0-19.72,16.01-35.74,35.74-35.74Z"/>
        <rect class="cls-44" x="1091.79" y="754.11" width="726.96" height="73.05" rx="15.96" ry="15.96"/>
        <path class="cls-78" d="M1043.84,869.37h-21.57c-7.41,0-13.99-4.74-16.33-11.77l-8.87-26.61h75.48l-14.93,29.87c-2.61,5.22-7.94,8.51-13.77,8.51Z"/>
        <path class="cls-44" d="M1491.95,428.55h357.25s.08,.03,.08,.08v194.59c0,19.72-16.01,35.74-35.74,35.74h-321.6c-19.72,0-35.74-16.01-35.74-35.74v-158.93c0-19.72,16.01-35.74,35.74-35.74Z" transform="translate(3305.5 1087.51) rotate(-180)"/>
        <path class="cls-78" d="M1868.74,869.37h21.57c7.41,0,13.99-4.74,16.33-11.77l8.87-26.61h-75.48s14.93,29.87,14.93,29.87c2.61,5.22,7.94,8.51,13.77,8.51Z"/>
        <rect class="cls-31" x="1812.8" y="560.32" width="123.64" height="270.76" rx="35.2" ry="35.2"/>
        <rect class="cls-31" x="974.64" y="560.32" width="123.64" height="270.76" rx="35.2" ry="35.2" transform="translate(2072.93 1391.4) rotate(-180)"/>
        <rect class="cls-31" x="1091.79" y="647.57" width="364.56" height="107.78" rx="15.96" ry="15.96"/>
        <rect class="cls-31" x="1456.22" y="647.57" width="364.56" height="107.78" rx="15.96" ry="15.96" transform="translate(3277 1402.92) rotate(-180)"/>
        <line class="cls-31" x1="1456.22" y1="464.29" x2="1456.22" y2="663.53"/>
      </g>
    </g>
    <g class="cls-80">
      <g>
        <polygon class="cls-57" points="19.87 949.04 21.3 651.35 729.74 651.35 729.74 950.47 710.42 950.47 694.31 707.17 55.78 707.17 41.18 949.04 19.87 949.04"/>
        <g>
          <path class="cls-17" d="M1.56,683.77s-1.39,5.73-.13,9.2-.95,10.72-.95,10.72"/>
          <path class="cls-17" d="M5.58,684.36s-.51,10.67,.76,18.8"/>
          <path class="cls-17" d="M11.42,684.87s1.52,3.56-.51,7.62c-2.03,4.07-.51,11.43-.51,11.43"/>
          <path class="cls-17" d="M14.22,702.4s-2.03-10.93,.25-17.28"/>
          <line class="cls-17" x1="16.76" y1="685.37" x2="16.5" y2="703.92"/>
          <path class="cls-17" d="M59.74,686.06s-1.39,5.73-.13,9.2c1.26,3.47-.95,10.72-.95,10.72"/>
          <path class="cls-17" d="M63.76,686.64s-.51,10.67,.76,18.8"/>
          <path class="cls-17" d="M69.61,687.15s1.52,3.56-.51,7.62c-2.03,4.07-.51,11.43-.51,11.43"/>
          <path class="cls-17" d="M72.4,704.68s-2.03-10.93,.25-17.28"/>
          <line class="cls-17" x1="74.94" y1="687.66" x2="74.69" y2="706.21"/>
          <path class="cls-17" d="M79.31,685.81s-1.39,5.73-.13,9.2-.95,10.72-.95,10.72"/>
          <path class="cls-17" d="M83.33,686.39s-.51,10.67,.76,18.8"/>
          <path class="cls-17" d="M89.17,686.9s1.52,3.56-.51,7.62-.51,11.43-.51,11.43"/>
          <path class="cls-17" d="M91.97,704.43s-2.03-10.93,.25-17.28"/>
          <line class="cls-17" x1="94.51" y1="687.41" x2="94.25" y2="705.95"/>
          <path class="cls-17" d="M99.12,684.79s-1.39,5.73-.13,9.2-.95,10.72-.95,10.72"/>
          <path class="cls-17" d="M103.15,685.37s-.51,10.67,.76,18.8"/>
          <path class="cls-17" d="M108.99,685.88s1.52,3.56-.51,7.62-.51,11.43-.51,11.43"/>
          <path class="cls-17" d="M111.79,703.41s-2.03-10.93,.25-17.28"/>
          <line class="cls-17" x1="114.33" y1="686.39" x2="114.07" y2="704.94"/>
          <path class="cls-17" d="M117.93,683.27s-1.39,5.73-.13,9.2c1.26,3.47-.95,10.72-.95,10.72"/>
          <path class="cls-17" d="M121.95,683.85s-.51,10.67,.76,18.8"/>
          <path class="cls-17" d="M127.79,684.36s1.52,3.56-.51,7.62-.51,11.43-.51,11.43"/>
          <path class="cls-17" d="M130.59,701.89s-2.03-10.93,.25-17.28"/>
          <line class="cls-17" x1="133.13" y1="684.87" x2="132.87" y2="703.41"/>
          <path class="cls-17" d="M136.73,681.49s-1.39,5.73-.13,9.2-.95,10.72-.95,10.72"/>
          <path class="cls-17" d="M140.75,682.07s-.51,10.67,.76,18.8"/>
          <path class="cls-17" d="M146.6,682.58s1.52,3.56-.51,7.62c-2.03,4.07-.51,11.43-.51,11.43"/>
          <path class="cls-17" d="M149.39,700.11s-2.03-10.93,.25-17.28"/>
          <line class="cls-17" x1="151.93" y1="683.09" x2="151.68" y2="701.63"/>
          <path class="cls-17" d="M155.79,680.47s-1.39,5.73-.13,9.2-.95,10.72-.95,10.72"/>
          <path class="cls-17" d="M159.81,681.05s-.51,10.67,.76,18.8"/>
          <path class="cls-17" d="M165.65,681.56s1.52,3.56-.51,7.62-.51,11.43-.51,11.43"/>
          <path class="cls-17" d="M168.45,699.09s-2.03-10.93,.25-17.28"/>
          <line class="cls-17" x1="170.99" y1="682.07" x2="170.73" y2="700.62"/>
          <path class="cls-17" d="M174.33,680.73s-1.39,5.73-.13,9.2-.95,10.72-.95,10.72"/>
          <path class="cls-17" d="M178.36,681.31s-.51,10.67,.76,18.8"/>
          <path class="cls-17" d="M184.2,681.82s1.52,3.56-.51,7.62-.51,11.43-.51,11.43"/>
          <path class="cls-17" d="M186.99,699.35s-2.03-10.93,.25-17.28"/>
          <line class="cls-17" x1="189.54" y1="682.32" x2="189.28" y2="700.87"/>
          <path class="cls-17" d="M193.39,680.73s-1.39,5.73-.13,9.2-.95,10.72-.95,10.72"/>
          <path class="cls-17" d="M197.41,681.31s-.51,10.67,.76,18.8"/>
          <path class="cls-17" d="M203.26,681.82s1.52,3.56-.51,7.62-.51,11.43-.51,11.43"/>
          <path class="cls-17" d="M206.05,699.35s-2.03-10.93,.25-17.28"/>
          <line class="cls-17" x1="208.59" y1="682.32" x2="208.34" y2="700.87"/>
          <path class="cls-17" d="M212.45,682s-1.39,5.73-.13,9.2-.95,10.72-.95,10.72"/>
          <path class="cls-17" d="M216.47,682.58s-.51,10.67,.76,18.8"/>
          <path class="cls-17" d="M222.31,683.09s1.52,3.56-.51,7.62-.51,11.43-.51,11.43"/>
          <path class="cls-17" d="M225.11,700.62s-2.03-10.93,.25-17.28"/>
          <line class="cls-17" x1="227.65" y1="683.59" x2="227.39" y2="702.14"/>
          <path class="cls-17" d="M231.5,683.77s-1.39,5.73-.13,9.2-.95,10.72-.95,10.72"/>
          <path class="cls-17" d="M235.52,684.36s-.51,10.67,.76,18.8"/>
          <path class="cls-17" d="M241.37,684.87s1.52,3.56-.51,7.62-.51,11.43-.51,11.43"/>
          <path class="cls-17" d="M244.16,702.4s-2.03-10.93,.25-17.28"/>
          <line class="cls-17" x1="246.7" y1="685.37" x2="246.45" y2="703.92"/>
          <path class="cls-17" d="M251.07,685.81s-1.39,5.73-.13,9.2c1.26,3.47-.95,10.72-.95,10.72"/>
          <path class="cls-17" d="M255.09,686.39s-.51,10.67,.76,18.8"/>
          <path class="cls-17" d="M260.93,686.9s1.52,3.56-.51,7.62-.51,11.43-.51,11.43"/>
          <path class="cls-17" d="M263.73,704.43s-2.03-10.93,.25-17.28"/>
          <line class="cls-17" x1="266.27" y1="687.41" x2="266.01" y2="705.95"/>
          <path class="cls-17" d="M270.12,687.08s-1.39,5.73-.13,9.2-.95,10.72-.95,10.72"/>
          <path class="cls-17" d="M274.15,687.66s-.51,10.67,.76,18.8"/>
          <path class="cls-17" d="M279.99,688.17s1.52,3.56-.51,7.62c-2.03,4.07-.51,11.43-.51,11.43"/>
          <path class="cls-17" d="M282.78,705.7s-2.03-10.93,.25-17.28"/>
          <line class="cls-17" x1="285.33" y1="688.68" x2="285.07" y2="707.22"/>
          <path class="cls-17" d="M289.18,688.09s-1.39,5.73-.13,9.2-.95,10.72-.95,10.72"/>
          <path class="cls-17" d="M293.2,688.68s-.51,10.67,.76,18.8"/>
          <path class="cls-17" d="M299.05,689.18s1.52,3.56-.51,7.62c-2.03,4.07-.51,11.43-.51,11.43"/>
          <path class="cls-17" d="M301.84,706.72s-2.03-10.93,.25-17.28"/>
          <line class="cls-17" x1="304.38" y1="689.69" x2="304.13" y2="708.24"/>
          <path class="cls-17" d="M308.74,687.84s-1.39,5.73-.13,9.2-.95,10.72-.95,10.72"/>
          <path class="cls-17" d="M312.77,688.42s-.51,10.67,.76,18.8"/>
          <path class="cls-17" d="M318.61,688.93s1.52,3.56-.51,7.62c-2.03,4.07-.51,11.43-.51,11.43"/>
          <path class="cls-17" d="M321.41,706.46s-2.03-10.93,.25-17.28"/>
          <line class="cls-17" x1="323.95" y1="689.44" x2="323.69" y2="707.99"/>
          <path class="cls-17" d="M327.55,686.82s-1.39,5.73-.13,9.2c1.26,3.47-.95,10.72-.95,10.72"/>
          <path class="cls-17" d="M331.57,687.41s-.51,10.67,.76,18.8"/>
          <path class="cls-17" d="M337.41,687.91s1.52,3.56-.51,7.62-.51,11.43-.51,11.43"/>
          <path class="cls-17" d="M340.21,705.45s-2.03-10.93,.25-17.28"/>
          <line class="cls-17" x1="342.75" y1="688.42" x2="342.49" y2="706.97"/>
          <path class="cls-17" d="M346.09,685.04s-1.39,5.73-.13,9.2-.95,10.72-.95,10.72"/>
          <path class="cls-17" d="M350.12,685.63s-.51,10.67,.76,18.8"/>
          <path class="cls-17" d="M355.96,686.14s1.52,3.56-.51,7.62-.51,11.43-.51,11.43"/>
          <path class="cls-17" d="M358.76,703.67s-2.03-10.93,.25-17.28"/>
          <line class="cls-17" x1="361.3" y1="686.64" x2="361.04" y2="705.19"/>
          <path class="cls-17" d="M365.15,681.23s-1.39,5.73-.13,9.2-.95,10.72-.95,10.72"/>
          <path class="cls-17" d="M369.17,681.82s-.51,10.67,.76,18.8"/>
          <path class="cls-17" d="M375.02,682.32s1.52,3.56-.51,7.62-.51,11.43-.51,11.43"/>
          <path class="cls-17" d="M377.81,699.86s-2.03-10.93,.25-17.28"/>
          <line class="cls-17" x1="380.35" y1="682.83" x2="380.1" y2="701.38"/>
          <path class="cls-17" d="M384.21,678.18s-1.39,5.73-.13,9.2-.95,10.72-.95,10.72"/>
          <path class="cls-17" d="M388.23,678.77s-.51,10.67,.76,18.8"/>
          <path class="cls-17" d="M394.07,679.28s1.52,3.56-.51,7.62-.51,11.43-.51,11.43"/>
          <path class="cls-17" d="M396.87,696.81s-2.03-10.93,.25-17.28"/>
          <line class="cls-17" x1="399.41" y1="679.78" x2="399.16" y2="698.33"/>
          <path class="cls-17" d="M403.52,675.64s-1.39,5.73-.13,9.2-.95,10.72-.95,10.72"/>
          <path class="cls-17" d="M407.54,676.23s-.51,10.67,.76,18.8"/>
          <path class="cls-17" d="M413.38,676.73s1.52,3.56-.51,7.62c-2.03,4.07-.51,11.43-.51,11.43"/>
          <path class="cls-17" d="M416.18,694.27s-2.03-10.93,.25-17.28"/>
          <line class="cls-17" x1="418.72" y1="677.24" x2="418.47" y2="695.79"/>
          <path class="cls-17" d="M422.57,676.41s-1.39,5.73-.13,9.2-.95,10.72-.95,10.72"/>
          <path class="cls-17" d="M426.6,676.99s-.51,10.67,.76,18.8"/>
          <path class="cls-17" d="M432.44,677.5s1.52,3.56-.51,7.62c-2.03,4.07-.51,11.43-.51,11.43"/>
          <path class="cls-17" d="M435.24,695.03s-2.03-10.93,.25-17.28"/>
          <line class="cls-17" x1="437.78" y1="678.01" x2="437.52" y2="696.55"/>
          <path class="cls-17" d="M441.63,677.68s-1.39,5.73-.13,9.2-.95,10.72-.95,10.72"/>
          <path class="cls-17" d="M445.65,678.26s-.51,10.67,.76,18.8"/>
          <path class="cls-17" d="M451.5,678.77s1.52,3.56-.51,7.62c-2.03,4.07-.51,11.43-.51,11.43"/>
          <path class="cls-17" d="M454.29,696.3s-2.03-10.93,.25-17.28"/>
          <line class="cls-17" x1="456.83" y1="679.28" x2="456.58" y2="697.82"/>
          <path class="cls-17" d="M459.92,682.25s-1.39,5.73-.13,9.2-.95,10.72-.95,10.72"/>
          <path class="cls-17" d="M463.95,682.83s-.51,10.67,.76,18.8"/>
          <path class="cls-17" d="M469.79,683.34s1.52,3.56-.51,7.62c-2.03,4.07-.51,11.43-.51,11.43"/>
          <path class="cls-17" d="M472.59,700.87s-2.03-10.93,.25-17.28"/>
          <line class="cls-17" x1="475.13" y1="683.85" x2="474.87" y2="702.4"/>
          <path class="cls-17" d="M478.22,685.04s-1.39,5.73-.13,9.2c1.26,3.47-.95,10.72-.95,10.72"/>
          <path class="cls-17" d="M482.24,685.63s-.51,10.67,.76,18.8"/>
          <path class="cls-17" d="M488.09,686.14s1.52,3.56-.51,7.62c-2.03,4.07-.51,11.43-.51,11.43"/>
          <path class="cls-17" d="M490.88,703.67s-2.03-10.93,.25-17.28"/>
          <line class="cls-17" x1="493.42" y1="686.64" x2="493.17" y2="705.19"/>
          <path class="cls-17" d="M496.51,686.82s-1.39,5.73-.13,9.2-.95,10.72-.95,10.72"/>
          <path class="cls-17" d="M500.54,687.41s-.51,10.67,.76,18.8"/>
          <path class="cls-17" d="M506.38,687.91s1.52,3.56-.51,7.62c-2.03,4.07-.51,11.43-.51,11.43"/>
          <path class="cls-17" d="M509.17,705.45s-2.03-10.93,.25-17.28"/>
          <line class="cls-17" x1="511.72" y1="688.42" x2="511.46" y2="706.97"/>
          <path class="cls-17" d="M515.32,688.86s-1.39,5.73-.13,9.2-.95,10.72-.95,10.72"/>
          <path class="cls-17" d="M519.34,689.44s-.51,10.67,.76,18.8"/>
          <path class="cls-17" d="M525.18,689.95s1.52,3.56-.51,7.62c-2.03,4.07-.51,11.43-.51,11.43"/>
          <path class="cls-17" d="M527.98,707.48s-2.03-10.93,.25-17.28"/>
          <line class="cls-17" x1="530.52" y1="690.46" x2="530.26" y2="709"/>
          <path class="cls-17" d="M534.37,688.09s-1.39,5.73-.13,9.2c1.26,3.47-.95,10.72-.95,10.72"/>
          <path class="cls-17" d="M538.39,688.68s-.51,10.67,.76,18.8"/>
          <path class="cls-17" d="M544.24,689.18s1.52,3.56-.51,7.62c-2.03,4.07-.51,11.43-.51,11.43"/>
          <path class="cls-17" d="M547.03,706.72s-2.03-10.93,.25-17.28"/>
          <line class="cls-17" x1="549.57" y1="689.69" x2="549.32" y2="708.24"/>
          <path class="cls-17" d="M553.43,685.81s-1.39,5.73-.13,9.2c1.26,3.47-.95,10.72-.95,10.72"/>
          <path class="cls-17" d="M557.45,686.39s-.51,10.67,.76,18.8"/>
          <path class="cls-17" d="M563.29,686.9s1.52,3.56-.51,7.62c-2.03,4.07-.51,11.43-.51,11.43"/>
          <path class="cls-17" d="M566.09,704.43s-2.03-10.93,.25-17.28"/>
          <line class="cls-17" x1="568.63" y1="687.41" x2="568.38" y2="705.95"/>
          <path class="cls-17" d="M571.21,679.96s-1.39,5.73-.13,9.2-.95,10.72-.95,10.72"/>
          <path class="cls-17" d="M575.24,680.55s-.51,10.67,.76,18.8"/>
          <path class="cls-17" d="M581.08,681.05s1.52,3.56-.51,7.62-.51,11.43-.51,11.43"/>
          <path class="cls-17" d="M583.88,698.59s-2.03-10.93,.25-17.28"/>
          <line class="cls-17" x1="586.42" y1="681.56" x2="586.16" y2="700.11"/>
          <path class="cls-17" d="M589.25,676.41s-1.39,5.73-.13,9.2-.95,10.72-.95,10.72"/>
          <path class="cls-17" d="M593.28,676.99s-.51,10.67,.76,18.8"/>
          <path class="cls-17" d="M599.12,677.5s1.52,3.56-.51,7.62c-2.03,4.07-.51,11.43-.51,11.43"/>
          <path class="cls-17" d="M601.92,695.03s-2.03-10.93,.25-17.28"/>
          <line class="cls-17" x1="604.46" y1="678.01" x2="604.2" y2="696.55"/>
          <path class="cls-17" d="M607.8,674.63s-1.39,5.73-.13,9.2-.95,10.72-.95,10.72"/>
          <path class="cls-17" d="M611.82,675.21s-.51,10.67,.76,18.8"/>
          <path class="cls-17" d="M617.67,675.72s1.52,3.56-.51,7.62-.51,11.43-.51,11.43"/>
          <path class="cls-17" d="M620.46,693.25s-2.03-10.93,.25-17.28"/>
          <line class="cls-17" x1="623" y1="676.23" x2="622.75" y2="694.77"/>
          <path class="cls-17" d="M626.35,674.63s-1.39,5.73-.13,9.2-.95,10.72-.95,10.72"/>
          <path class="cls-17" d="M630.37,675.21s-.51,10.67,.76,18.8"/>
          <path class="cls-17" d="M636.22,675.72s1.52,3.56-.51,7.62c-2.03,4.07-.51,11.43-.51,11.43"/>
          <path class="cls-17" d="M639.01,693.25s-2.03-10.93,.25-17.28"/>
          <line class="cls-17" x1="641.55" y1="676.23" x2="641.3" y2="694.77"/>
          <path class="cls-17" d="M645.15,675.64s-1.39,5.73-.13,9.2-.95,10.72-.95,10.72"/>
          <path class="cls-17" d="M649.18,676.23s-.51,10.67,.76,18.8"/>
          <path class="cls-17" d="M655.02,676.73s1.52,3.56-.51,7.62c-2.03,4.07-.51,11.43-.51,11.43"/>
          <path class="cls-17" d="M657.81,694.27s-2.03-10.93,.25-17.28"/>
          <line class="cls-17" x1="660.35" y1="677.24" x2="660.1" y2="695.79"/>
          <path class="cls-17" d="M663.45,677.68s-1.39,5.73-.13,9.2-.95,10.72-.95,10.72"/>
          <path class="cls-17" d="M667.47,678.26s-.51,10.67,.76,18.8"/>
          <path class="cls-17" d="M673.31,678.77s1.52,3.56-.51,7.62c-2.03,4.07-.51,11.43-.51,11.43"/>
          <path class="cls-17" d="M676.11,696.3s-2.03-10.93,.25-17.28"/>
          <line class="cls-17" x1="678.65" y1="679.28" x2="678.39" y2="697.82"/>
          <path class="cls-17" d="M682.76,680.98s-1.39,5.73-.13,9.2-.95,10.72-.95,10.72"/>
          <path class="cls-17" d="M686.78,681.56s-.51,10.67,.76,18.8"/>
          <path class="cls-17" d="M692.62,682.07s1.52,3.56-.51,7.62c-2.03,4.07-.51,11.43-.51,11.43"/>
          <path class="cls-17" d="M695.42,699.6s-2.03-10.93,.25-17.28"/>
          <line class="cls-17" x1="697.96" y1="682.58" x2="697.71" y2="701.13"/>
          <path class="cls-17" d="M701.31,684.79s-1.39,5.73-.13,9.2-.95,10.72-.95,10.72"/>
          <path class="cls-17" d="M705.33,685.37s-.51,10.67,.76,18.8"/>
          <path class="cls-17" d="M711.17,685.88s1.52,3.56-.51,7.62-.51,11.43-.51,11.43"/>
          <path class="cls-17" d="M713.97,703.41s-2.03-10.93,.25-17.28"/>
          <line class="cls-17" x1="716.51" y1="686.39" x2="716.25" y2="704.94"/>
          <path class="cls-17" d="M721.12,685.55s-1.39,5.73-.13,9.2-.95,10.72-.95,10.72"/>
          <path class="cls-17" d="M725.15,686.14s-.51,10.67,.76,18.8"/>
          <path class="cls-17" d="M730.99,686.64s1.52,3.56-.51,7.62-.51,11.43-.51,11.43"/>
          <path class="cls-17" d="M733.79,704.18s-2.03-10.93,.25-17.28"/>
          <line class="cls-17" x1="736.33" y1="687.15" x2="736.07" y2="705.7"/>
          <path class="cls-17" d="M738.91,682s-1.39,5.73-.13,9.2-.95,10.72-.95,10.72"/>
          <path class="cls-17" d="M742.93,682.58s-.51,10.67,.76,18.8"/>
          <path class="cls-17" d="M748.78,683.09s1.52,3.56-.51,7.62-.51,11.43-.51,11.43"/>
          <path class="cls-17" d="M751.57,700.62s-2.03-10.93,.25-17.28"/>
          <path class="cls-17" d="M20.36,685.04s-1.39,5.73-.13,9.2-.95,10.72-.95,10.72"/>
          <path class="cls-17" d="M24.38,685.63s-.51,10.67,.76,18.8"/>
          <path class="cls-17" d="M30.22,686.14s1.52,3.56-.51,7.62-.51,11.43-.51,11.43"/>
          <path class="cls-17" d="M33.02,703.67s-2.03-10.93,.25-17.28"/>
          <line class="cls-17" x1="35.56" y1="686.64" x2="35.31" y2="705.19"/>
          <path class="cls-17" d="M39.92,685.81s-1.39,5.73-.13,9.2-.95,10.72-.95,10.72"/>
          <path class="cls-17" d="M43.94,686.39s-.51,10.67,.76,18.8"/>
          <path class="cls-17" d="M49.79,686.9s1.52,3.56-.51,7.62c-2.03,4.07-.51,11.43-.51,11.43"/>
          <path class="cls-17" d="M52.58,704.43s-2.03-10.93,.25-17.28"/>
          <line class="cls-17" x1="55.12" y1="687.41" x2="54.87" y2="705.95"/>
        </g>
        <path class="cls-68" d="M752.04,683.77v-65.14H1.56v65.14s69.97,7.81,120.28,1.19c0,0,68.85-6.62,113.87,0,0,0,91.36,13.24,152.27-3.97,0,0,51.64-7.94,70.17,1.32,0,0,73.57,24.21,131.08-2.65,0,0,46.34-7.94,80.77,0,0,0,27.71,18.81,82.04,4.11Z"/>
        <line class="cls-20" x1="121.84" y1="684.96" x2="121.84" y2="643.86"/>
        <line class="cls-20" x1="235.71" y1="684.96" x2="235.71" y2="655.56"/>
        <line class="cls-20" x1="387.97" y1="680.99" x2="387.97" y2="645.34"/>
        <line class="cls-20" x1="458.15" y1="682.31" x2="458.15" y2="646.54"/>
        <line class="cls-20" x1="589.23" y1="679.67" x2="589.23" y2="642.93"/>
        <line class="cls-20" x1="669.99" y1="679.67" x2="669.99" y2="646.54"/>
        <line class="cls-10" x1="1.45" y1="625.71" x2="752.06" y2="625.71"/>
        <line class="cls-10" x1="1.45" y1="630.18" x2="752.06" y2="630.18"/>
        <g class="cls-81">
          <g>
            <line class="cls-17" x1="1.45" y1="627.98" x2="2.95" y2="627.98"/>
            <line class="cls-22" x1="5.95" y1="627.98" x2="749.06" y2="627.98"/>
            <line class="cls-17" x1="750.56" y1="627.98" x2="752.06" y2="627.98"/>
          </g>
        </g>
      </g>
      <polyline class="cls-68" points="122.54 599.14 706.02 599.14 751.2 618.6 121.85 618.6"/>
      <line class="cls-34" x1="123.09" y1="618.57" x2="751.2" y2="618.57"/>
    </g>
    <path class="cls-45" d="M739.92,918.75s59.84-53.3,137.45-37.4c77.61,15.9,150.54,0,150.54,0,0,0-63.58,21.51-70.13,49.56,0,0-30.86-39.27-62.65-30.86-31.79,8.42-75.74,74.8-111.27,76.67,0,0-10.29-52.36-43.95-57.97Z"/>
    <path class="cls-76" d="M1261.6,991.39s12.26-63.76,84.6-67.43,106.67-12.26,106.67-12.26c0,0-41.69,58.85-34.33,82.15,0,0-102.99-39.23-156.94-2.45Z"/>
    <path class="cls-50" d="M1024.66,558.78s-42.16-9.48-46.83,35.72c-4.67,45.2,16.18,94.24,16.18,94.24,0,0-2.45,15.94-28.2,11.03,0,0-12.26,13.49-29.43-4.9,0,0,1.23-145.9,88.28-136.1Z"/>
    <g>
      <rect class="cls-72" x="624.55" y="599.72" width="89.72" height="10.9"/>
      <polygon class="cls-72" points="585.62 589.8 624.55 599.72 714.27 599.72 672.03 589.02 585.62 589.8"/>
      <polygon class="cls-72" points="587.94 597.14 624.52 608.53 624.55 610.62 587.94 598.79 587.94 597.14"/>
      <polygon class="cls-47" points="587.94 590.53 624.55 599.72 624.55 609.16 587.94 597.33 587.94 590.53"/>
      <line class="cls-37" x1="624.55" y1="599.72" x2="714.27" y2="599.72"/>
      <polygon class="cls-37" points="634.95 591.17 656.67 591.17 674.83 596.87 651.86 596.87 634.95 591.17"/>
    </g>
  </g>
  <g id="Layer_1" data-name="Layer 1">
    <polygon class="cls-47" points="534.32 615.67 453 615.67 441.41 604.13 516.38 604.13 534.32 615.67"/>
    <path class="cls-51" d="M399.79,608.12l55.01,3.92,6.51-1.15-5.58-2.44-54.86-4.21s-3.42,.6-1.08,3.89Z"/>
    <g>
      <g>
        <path class="cls-69" d="M1025.58,816.79s4.1-1.83,7.94,2.37l23.45,15.13s2.47,7.55-5.27,18.67l-10.22,8.19-7.06-3.94,8.85,31.17s.36,5.92-6.14,23.15c-6.65,17.62-17.72,17.86-17.72,17.86,0,0-18.72,5.68-20.37-2.44l26.54-110.16Z"/>
        <path class="cls-61" d="M999.46,811.99c18.63-1.28,28.26,7.19,28.26,7.19,0,0,9.97,13.76,2.62,25.97s4.56,36.32,4.56,36.32c1.25,9.88-6.54,31.67-6.54,31.67-5.49,15.35-11.33,6.91-11.33,6.91-2.92,5.88-5.98,1.24-5.98,1.24-1.57,5.9-4.92,1.92-4.92,1.92-3.39,1.83-4.72-1.43-4.72-1.43-1.78,1.9-2.4-.39-2.45-1.26-.18-3.24,.67-5.35,.67-5.35l4.5-13.62,.72-9.04-5.23-15.29c-6.29-15.15-12.67-21.81-12.67-21.81l-10.68-5.34-76.12-30.14,5.27-17.31,30.7-32.22s31.88,19.29,41.88,29.32c10,10.03,21.45,12.25,21.45,12.25"/>
        <path class="cls-24" d="M1017.03,920.05s-2.81-2.43-.63-7.79"/>
        <path class="cls-24" d="M1011.05,921.29s-2.3-4.92-.09-8.5"/>
        <path class="cls-24" d="M1006.14,923.21s-2.59-5.37-.36-9.46"/>
        <path class="cls-24" d="M1001.42,921.79s-1.78-3.71,0-7.05"/>
        <path class="cls-69" d="M1033.57,840.27l-11.06-13.37,11.01-7.75s-1.17-5.28-7.94-2.37c-6.77,2.91-8.52,6.05-8.52,6.05l-6.57-10.35s-8.9-3.42-11.04-.5c0,0,8.32,7.21,10.67,13.15,0,0-14.72,15.67-28.53,27.51l5.46,4.38,29.53-27.78,13.76,15.9,3.24-4.88Z"/>
        <path class="cls-69" d="M1003.67,890.44s9.88,.72,31.23-8.97c0,0,5.79,11.68,1.64,19.14,0,0-27.43-5.27-33.78,6.1,0,0-1.63-13.57,.91-16.27Z"/>
      </g>
      <g>
        <path class="cls-69" d="M982.99,900.74s3.56,2.67,1.78,8.01l-1.78,27.59s-5.34,5.79-18.69,4.45l-12.02-4.9v-8.01s-22.7,22.7-22.7,22.7c0,0-4.95,3.17-23,5.86-18.45,2.75-27.68-4.32-27.68-4.32,0,0-18.6-12.52-12.37-17.86l116.45-33.52Z"/>
        <path class="cls-61" d="M934.01,865.01c.37-31.04-6-70.53-6-70.53,0,0,49.6-20.37,54.41,1.05,4.81,21.42-5.17,55.81-5.17,55.81-4.43,22.91,.74,32.15,.74,32.15,7.66,13.84,2.22,24.02,2.22,24.02,0,0-4.69,9.91-19.47,11.03-13.78,1.05-31.53,24.08-31.53,24.08-9.61,11.83-25.81,8.26-25.81,8.26-3.88,1.33-6.31-1.67-6.31-1.67-7.58,.94-9.16-2.97-9.16-2.97-7.06,.74-9.82-3.79-9.82-3.79-4.35,1.03-6.29-4.16-6.29-4.16-5.2-5.04-3.56-6.37-1.71-9.66,1.85-3.29,13.22-1.84,13.22-1.84l16.11-4.36,9.23-5.1,11.29-16.09c6.28-7.39,9.61-14.41,9.61-14.41l4.43-21.81Z"/>
        <path class="cls-24" d="M886.47,929.72l-8.29,3.09s-5.5,.89-6.35,5.46"/>
        <path class="cls-24" d="M890.94,932.94s-13.82,4.17-13.15,7.66l.32,1.84"/>
        <path class="cls-24" d="M895.88,938.22s-7.9,2.3-7.94,8.01"/>
        <path class="cls-24" d="M900.24,944.63s-4.11,1.05-3.15,4.58"/>
        <path class="cls-69" d="M966.52,918.99l6.23-16.02,12.02,5.79s4.01-3.56-1.78-8.01c-5.79-4.45-9.35-4.45-9.35-4.45l5.79-10.68s-1.34-9.35-4.9-9.79c0,0-2.23,10.68-6.23,15.58,0,0-20.66-5.18-37.57-11.41l-1.15,6.83,38.28,12.15-7.12,19.58,5.79,.45Z"/>
        <path class="cls-24" d="M928.13,890.32l-19.46,27-12.72,6.52-12.62,2.94s-16.04-2.81-14.89,7.1"/>
        <path class="cls-69" d="M908.68,917.32s4.14,8.9,22.84,22.7c0,0-7.31,10.65-15.77,10.65,0,0-8.67-26.28-21.58-26.28,0,0,10.96-7.95,14.52-7.06Z"/>
        <line class="cls-24" x1="932.89" y1="829.58" x2="929.08" y2="802.92"/>
      </g>
      <path class="cls-61" d="M930.71,250.28s-1.24,26.43,6.65,41.7c0,0,10.32,72.82-49.03,77.8,0,0-44.95-9.61-21.08-68.45,0,0,1.2-2.76,8.01-10.47,7.26-8.23,8.62-39.88,8.62-39.88l46.82-.69"/>
      <path class="cls-71" d="M999.43,524.21s27.97,65.48,1.39,129.87l-16.54,77.98s-4.9,22.96-1.45,58.93c2.19,22.88-3.26,55.27-9.06,85.53,0,0-15.36,15.87-42.63,2.96l-12.11-46.12-78.44-55.86s-11.01-17.26-11.01-35.29c0,0-8.55-126.94,1.76-208.72,0,0,70.19,48.94,168.09-9.28Z"/>
      <path class="cls-3" d="M931.14,879.48l-30.11-118.03s-3.84-23.04-1.92-52.79l1.58-101.98s-10.63-6.2-14.62-16.39"/>
      <path class="cls-47" d="M937.36,291.98s9.99,7.76,32.09,13.57c22.1,5.81,8.48,69.97,8.48,69.97,0,0-2.13,30.56-2.13,60.27l26.79,86.27s-36.76,32.51-104.85,30.42c0,0-46.67-.3-69.37-20.74,0,0,6.11-57.85,4.36-99.59,0,0-17.84-25.38-11.09-51.54l-4.16-31.34h0s2.91-27.61,31.43-40.44c0,0,10.75-2.74,18.35-7.5,0,0-3.64,30.26,.02,41.84,0,0,21.16,21.12,59.06-3.97,0,0,12.97-18.55,11.03-47.21Z"/>
      <path class="cls-61" d="M1030.91,191.1l-26.3-16.48-8.56-13.94s1.9-8.87,5.39-9.51c0,0,4.12-11.41,10.77-3.8,0,0,3.49-5.07,9.82-1.27,0,0,1.27-4.12,6.34-.95,0,0,3.49-5.7,10.46,.95s11.72,29.15,11.72,29.15l3.49,8.87s46.26,76.05,42.78,92.52-71.68,65.74-71.68,65.74c0,0-6.91-35.32-25.92-43.56,0,0,33.57-24.61,55.36-35.27,0,0-17.65-46.8-23.67-72.47Z"/>
      <path class="cls-25" d="M1001.45,151.18s4.07-2.55,5.73,.57,0,6.22,0,6.22c0,0,2.07,6.85,4.77,7.26s15.56-4.15,23.65,12.65"/>
      <path class="cls-25" d="M1012.22,147.38s-.28,17.02,10.1,15.78c0,0,5.39-1.66-2.07-16.8"/>
      <path class="cls-25" d="M1028.38,145.16s8.66,15.71,1.61,16.13c0,0-3.32,.41-5.39-2.9"/>
      <path class="cls-25" d="M1036.84,149.25s4.36,8.3,1.04,9.54-4.56-.41-4.56-.41"/>
      <path class="cls-47" d="M977.93,375.52c28.64-9.19,51.32-35.48,51.32-35.48,10.14-26.61-26.29-46.57-26.29-46.57,0,0-16.16,7.92-28.83,12.67,0,0-5.07,0-9.19-1.9"/>
      <path class="cls-71" d="M983.14,797.86s10.7,7.53,13.48,11.89c0,0-3.17,30.92-14.67,44.79l-4.76-.79"/>
      <path class="cls-3" d="M982.83,790.99s1.1,38.19-6.03,67.92"/>
      <path class="cls-33" d="M977.93,375.52s-4.2-19.84,3.38-33.73"/>
      <path class="cls-61" d="M845.98,303.57l-38.94-64-.24-106.67s8.2-17.03,13.2-23.24,2-9.81,2-9.81l-6.8-18.21s-3.8-6.2-7.8-6-3,4.4-3,4.4c-4.8,.8-7.8,5.6-7.8,5.6-7.4-.4-9.01,5.6-9.01,5.6-2.8-1-4.4,1.6-4.4,1.6,0,0-1.4,9.21-.6,11.61s5,1.8,5,1.8v3.07c-12.86,9.29-9.29,33.21-9.29,33.21l1.07,6.5s-20.02,82.17-16.74,100.35c7.79,43.28,49.48,101.77,49.48,101.77"/>
      <path class="cls-25" d="M785.44,125.83s.51-14.94,12.92-22.8c12.41-7.85,6.04-22.99,6.04-22.99,0,0,.62-10.06,9.57-.4s1.61,29.35,1.61,29.35"/>
      <path class="cls-25" d="M796.59,85.64s-2.57,11.28-.04,15.81c0,0,1.27,1.27,3.44,.18"/>
      <path class="cls-25" d="M787.58,91.25s-3.54,13.65,0,15.01,8.97-4.8,8.97-4.8"/>
      <path class="cls-47" d="M837.24,286.33s-21.39,28-44.31,36.46c0,0,17.06,29.59,26.58,41.57,0,0,35.51-57.3,41.1-59.86,0,0-14.94-8.27-23.37-18.17Z"/>
      <path class="cls-33" d="M819.51,364.37s2.52-18.08,9.97-27.87"/>
      <path class="cls-61" d="M884.98,228.06s8.91-54.77,58.59-52.74c0,0,35.07,4.34,26.85,53.61,0,0-2.89,7.71-2.07,12.09,0,0,1.42,11.18-5.11,20.75-9.78,14.32-18.83,24.34-18.83,24.34,0,0-5.66,6.72-17.92,5.38,0,0-8.58-1.29-18.68-9.65,0,0-26.18-15.95-22.79-32.06,0,0-13.09,6.6-16.16-13.32,0,0-1.48-27.23,16.13-8.4Z"/>
      <path class="cls-79" d="M932.19,216.67s-15.97-7.53-24.4-3.13c0,0,6.92-7.94,25.37-.8,0,0,3,3.01-.97,3.92Z"/>
      <path class="cls-79" d="M972.84,217.76c-.29-.92-8.8-1.89-16.76-.97,0,0-3.67,2.15-.05,4.04,0,0,14.57-3.67,16.38,1.1,0,0,1.14-1.91,.43-4.17Z"/>
      <path class="cls-7" d="M948.11,242.19s5.53,11.02-6.53,10.7"/>
      <path class="cls-7" d="M871.18,231.22s5.77-10.87,12.19,8.63c0,0-6.41-9.07-8.63-2.28"/>
      <path class="cls-79" d="M933.69,291.24s-4.23,3.01-16.78-3.29c0,0-10.99-5.31-19.42-14.07,0,0,10.23,14.75,26.1,18.81,0,0,4.14,1.83,10.5,.44,0,0-.92-.22-.41-1.89Z"/>
      <path class="cls-64" d="M916.47,258.18s8.38-1.46,17.63,2.5c0,0,8.51-.6,15.76,2.02,0,0-2.54,13.28-15.49,14.64-12.94,1.35-19.14-11.37-17.9-19.16Z"/>
      <path class="cls-54" d="M918.36,259.38s-1.64,11.84,13.77,13.81c13.99,1.79,15.45-8.74,15.45-8.74,0,0-15.85-1.31-29.22-5.07Z"/>
      <path class="cls-47" d="M920.25,259.8s3.12,5.98,15.11,6.93c0,0,7.31,1.31,10.89-2.2,0,0-15.41-1.63-26-4.72Z"/>
      <g>
        <path class="cls-47" d="M913.31,224.64s.03-.36,.33-.64c.98-.92,3.22-2.61,6.46-2.32,3.63,.33,5.32,3.92,5.89,5.2,.1,.22,.07,.4,.07,.4,0,0,0,.2-.14,.33-.64,.62-2.74,2.32-6.18,2.06-2.05-.15-4.82-1.51-6.35-4.45-.11-.2-.09-.45-.08-.58Z"/>
        <circle class="cls-79" cx="920.74" cy="225.96" r="3.77"/>
        <circle class="cls-47" cx="918.57" cy="223.96" r="1.03"/>
        <path class="cls-21" d="M926.21,226.9s-3.63-9.06-12.71-2.94"/>
      </g>
      <g>
        <path class="cls-47" d="M955.32,231.54s-.02-.34,.21-.64c.78-1,2.62-2.89,5.67-3.08,3.42-.21,5.51,2.88,6.22,3.99,.12,.19,.12,.37,.12,.37,0,0,.02,.19-.08,.33-.51,.67-2.22,2.55-5.45,2.8-1.93,.15-4.7-.72-6.54-3.23-.13-.17-.15-.41-.15-.53Z"/>
        <circle class="cls-79" cx="962.41" cy="231.69" r="3.53"/>
        <circle class="cls-47" cx="960" cy="230.19" r=".99"/>
        <path class="cls-21" d="M967.49,231.91s-4.44-8.41-12.06-.87"/>
      </g>
      <path class="cls-74" d="M952.25,183.85s-38.51,53.95-83.58,48.86c0,0,1.69,20.02,15.58,17.5,0,0,2.35,37.87-16.99,51.11,0,0-4.3,2.84-6.71,4.12-4.4,2.35-7.4-6.27-14.95-11.26-10.82-7.14-11.09-9-11.09-9,0,0,10.13-13.19,12.76-37.31,5.31-48.72,30.57-72.4,30.57-72.4,0,0,34.85-40.54,75.61-11.36,0,0,23.41,3.95,30.67,27.71,4.2,13.74,.22,37.75-3.16,56.9,0,0-3.65,41.86-25.69,52.72,0,0-21,1.21-21.77-10.4,0,0,3.2,1.2,9.06-4.42,8-7.66,13.85-15.04,20.03-24.2,0,0,6.63-9.1,5.03-22.33,0,0-.23-6.88,2.25-10.55,0,0,6.57-27.83-17.61-45.71"/>
      <path class="cls-16" d="M879.27,241.41s-8.14,9.41-1.75,16.67c6.39,7.26,4.64-8.62,4.64-8.62"/>
    </g>
    <g>
      <polyline class="cls-14" points="1377.21 480.18 1392.96 465.79 1392.41 510.05"/>
      <ellipse class="cls-27" cx="1400.17" cy="513.36" rx="7.11" ry="8.25" transform="translate(626.05 1788.03) rotate(-78.86)"/>
    </g>
    <path class="cls-53" d="M1410.61,457.6s-1.96,10.64,4.66,13.99c0,0-9.07,.31-11.66,8.94,0,0,3.81-10.94-4.66-13.6,0,0,9.21,1.07,11.66-9.33Z"/>
    <path class="cls-53" d="M1366.71,488.31s4.59,9.8,11.93,8.66c0,0-7.19,5.53-4.28,14.05,0,0-3.27-11.12-11.71-8.35,0,0,8.11-4.48,4.05-14.37Z"/>
    <g>
      <polyline class="cls-14" points="900.7 97.14 884.95 82.75 885.49 127.01"/>
      <ellipse class="cls-27" cx="877.73" cy="130.32" rx="8.25" ry="7.11" transform="translate(-8.64 171.97) rotate(-11.14)"/>
    </g>
    <path class="cls-53" d="M867.3,74.55s1.96,10.64-4.66,13.99c0,0,9.07,.31,11.66,8.94,0,0-3.81-10.94,4.66-13.6,0,0-9.21,1.07-11.66-9.33Z"/>
    <path class="cls-53" d="M911.2,105.26s-4.59,9.8-11.93,8.66c0,0,7.19,5.53,4.28,14.05,0,0,3.27-11.12,11.71-8.35,0,0-8.11-4.48-4.05-14.37Z"/>
    <g>
      <ellipse class="cls-27" cx="1120.19" cy="388.38" rx="6.06" ry="7.03" transform="translate(522.78 1412.47) rotate(-78.86)"/>
      <ellipse class="cls-27" cx="1094.03" cy="378" rx="6.06" ry="7.03" transform="translate(511.85 1378.42) rotate(-78.86)"/>
      <polyline class="cls-14" points="1113.29 387.02 1113.97 353.12 1088.22 343.03 1087.12 376.64"/>
    </g>
    <path class="cls-53" d="M1070.26,357.35s4.19,8.93,10.88,7.9c0,0-6.56,5.04-3.9,12.81,0,0-2.98-10.13-10.67-7.61,0,0,7.39-4.09,3.7-13.1Z"/>
    <path class="cls-53" d="M1131.73,333.45s-1.79,9.7,4.25,12.75c0,0-8.26,.28-10.63,8.15,0,0,3.47-9.98-4.25-12.4,0,0,8.39,.98,10.63-8.5Z"/>
    <g>
      <ellipse class="cls-27" cx="1191.85" cy="475.81" rx="9.54" ry="8.23" transform="translate(-69.46 239.14) rotate(-11.14)"/>
      <ellipse class="cls-27" cx="1227.34" cy="461.74" rx="9.54" ry="8.23" transform="translate(-66.07 245.74) rotate(-11.14)"/>
      <polyline class="cls-14" points="1201.21 473.97 1200.29 427.98 1235.23 414.3 1236.71 459.89"/>
    </g>
    <path class="cls-53" d="M1266.27,419.47s-5.68,12.12-14.75,10.71c0,0,8.89,6.84,5.29,17.38,0,0,4.04-13.75,14.48-10.32,0,0-10.03-5.55-5.01-17.77Z"/>
    <path class="cls-53" d="M1160.29,479.36s2.43,13.16-5.77,17.3c0,0,11.21,.38,14.42,11.05,0,0-4.71-13.53,5.77-16.82,0,0-11.38,1.33-14.42-11.53Z"/>
    <g>
      <ellipse class="cls-27" cx="677.16" cy="192.61" rx="9.54" ry="8.23" transform="translate(-24.45 134.41) rotate(-11.14)"/>
      <ellipse class="cls-27" cx="712.65" cy="178.54" rx="9.54" ry="8.23" transform="translate(-21.06 141) rotate(-11.14)"/>
      <polyline class="cls-14" points="686.52 190.77 685.6 144.78 720.54 131.1 722.02 176.69"/>
    </g>
    <path class="cls-53" d="M744.89,150.53s-5.68,12.12-14.75,10.71c0,0,8.89,6.84,5.29,17.38,0,0,4.04-13.75,14.48-10.32,0,0-10.03-5.55-5.01-17.77Z"/>
    <path class="cls-53" d="M661.5,118.1s2.43,13.16-5.77,17.3c0,0,11.21,.38,14.42,11.05,0,0-4.71-13.53,5.77-16.82,0,0-11.38,1.33-14.42-11.53Z"/>
    <g>
      <path class="cls-59" d="M718.12,868.54s-25.06,2.8-27.24-29.99c0,0,17.04,38.35,37.75,8.64,20.71-29.71,16.97-78.28,16.97-78.28l-7.83-31.3s21.66,15.49,41.46,15.17c0,0,9.42,19.06,15.91,22.77,6.5,3.71,4,44.38,4,44.38,0,0-15.13,49.2-31.83,53.85,0,0,.94,27.53-16.06,41.46,0,0-13.91,12.07,2.49,25.98,0,0,12.68,2.16,8.05,10.51s-14.23,0-14.23,0l-12.39-21.96,1.54-7.43s-10.82,9.29-6.17,25.06c4.65,15.77,11.45,12.06,11.45,12.06,0,0,7.43,4.95-.61,9.28-8.04,4.34-12.68-.3-12.68-.3,0,0-7.12-4.95-6.81-12.68s-4.65-12.37-4.65-12.37c0,0-1.24-8.35,3.7-15.78,0,0,1.85-9.9-1.87-18.25s-5.89-25.06-.95-40.84Z"/>
      <path class="cls-59" d="M797.06,806.51s19.8,2.15,40.53,6.78c0,0,17.02,5.87,16.08-5.89s-12.07-4.02-12.07-4.02c0,0-36.82-9.88-44.87-18.54"/>
      <path class="cls-15" d="M733.62,923.59s15.77-19.5,15.13-45.48c0,0,5.57,1.54,18.56-4.34"/>
      <path class="cls-36" d="M798.22,816.21s19.8,2.15,40.53,6.78c0,0,17.02,5.87,16.08-5.89-.93-11.76-12.07-4.02-12.07-4.02,0,0-36.82-9.88-44.87-18.54"/>
      <path class="cls-59" d="M732.22,742.18s-9.97,22.19-1.16,21.46c5.27-.44,6.1-24.94,16.52-18.65,10.42,6.29,23.65,13.78,38.94,5.01,0,0,12.15-3.56,10.91-12.9-1.24-9.34-11.76-11.79-11.76-11.79,0,0-6.73-.44-10.86-10.12-4.13-9.68-21.97-4.13-21.97-4.13,0,0-5.18,1.43-7.49,6.19,0,0-4.67,.16-10.13,1.45-8.92,2.1-3.01,23.49-3.01,23.49Z"/>
      <ellipse class="cls-69" cx="763.11" cy="732.25" rx="2.03" ry="3.04" transform="translate(-255.9 449.16) rotate(-28.29)"/>
      <ellipse class="cls-69" cx="776.83" cy="723.68" rx="2.03" ry="3.04" transform="translate(-250.2 454.64) rotate(-28.29)"/>
      <path class="cls-47" d="M782.1,734.2s-10.82,.07-16.01-8.66c0,0-6.78-6.57-16.97-4.71l-3.02-3.71s2.33-5.79,11.73-6.65c0,0,6.47,3.2,11.34,11.93s20.91,7.67,20.91,7.67l-7.98,4.13Z"/>
      <path class="cls-69" d="M782.97,732.5s4.29-3.39,7.62-3.56c3.33-.17,3,5.58,3,5.58,0,0,.94,5.43-7.23,4.61-8.18-.82-3.39-6.63-3.39-6.63Z"/>
      <path class="cls-69" d="M772.69,754.1c-13.85,.2-23.26-7.88-23.26-7.88l-.05,2.93s11.2,6.84,22.65,5.03"/>
      <path class="cls-29" d="M784.86,750.11s5.09-1.6,8.94,3.49c3.85,5.09-9.16,2.11-9.16,2.11,0,0-4.22-2.91-15.92-5.6,0,0,7.05,2.98,16.13,0Z"/>
      <path class="cls-6" d="M785.43,749.77s-11.42,4.2-19.62-1.32"/>
      <path class="cls-6" d="M687.65,844.54s.34,11.13,4.89,17.87"/>
      <path class="cls-6" d="M683.77,839.31s-3.03,8.26,.67,13.83"/>
    </g>
    <path class="cls-73" d="M646.41,932.4s.98,1.77,2.96,7.15l-52.74,36.54s-16.92,8.89-22.57,.46"/>
    <path class="cls-65" d="M635.89,916.96s8.67,4.91,10.52,15.45l-49.1,36.84s-13.45,10.67-23.25,7.3c-9.8-3.37,25.9-41.12,25.9-41.12,0,0,25.32,5.42,35.93-18.47Z"/>
    <polyline class="cls-17" points="587.29 950.83 601.22 949.46 597.48 938.69 612.97 937.15"/>
    <polyline class="cls-17" points="605.1 932.53 605.62 945.9 593.94 943.86 594.5 958.72"/>
    <g>
      <path class="cls-79" d="M1204.16,605.94c-6.92-3.65-2.87-9.66-2.87-9.66-4.22-1.18-.96-8.2-.96-8.2-4.37-4.08,.24-8.94,.24-8.94-1.34-4.81,4.31-8.72,4.31-8.72-2.56-6.43,3.81-7.41,3.81-7.41-2.19-6.44,5.5-9.88,5.5-9.88-1.26-6.02,1.31-10.01,1.31-10.01-2.06-7.84,3.52-11.52,3.52-11.52-2.3-6.41,2.44-9.07,2.44-9.07-1.89-5.96,3.69-8.61,3.69-8.61-1.56-6.5,5.06-7.95,5.06-7.95,1.1-6.49,6.64-6.74,6.64-6.74,2.8-5.89,9.97-5.8,9.97-5.8,5.39-3.86,10.48-2.04,10.48-2.04,7.61-3.03,12.69,1,12.69,1,7.54-2.54,16.43,3.2,16.43,3.2,9.36-.69,16.42,8.52,16.42,8.52,8.72,1.21,7.81,10.4,7.81,10.4,6.92,3.65,3.75,11.14,3.75,11.14,5.55,.72,5.74,7.01,5.74,7.01,5.63,1.31,3.96,8.48,3.96,8.48,4.53,2.48,1.39,8.09,1.39,8.09,4.08,4.42-.5,7.45-.5,7.45,2.93,4.97-1.47,7.22-1.47,7.22,2.19,6.44-1.68,9.37-1.68,9.37,3.73,3.32-.55,7.1-.55,7.1,4.73,4.16-.92,7.98-.92,7.98,4.5,3.5,1.94,8.6,1.94,8.6,3.86,2.74,.77,9.35,.77,9.35,3.07,4.39-1.45,10.74-1.45,10.74,5.94,5.71,.49,12.05,.49,12.05,3.59,6.89-2.6,10.47-2.6,10.47,1.06,5.93-1.81,8.5-1.81,8.5,0,0,2.99,12.99-8.78,9.72"/>
      <path class="cls-61" d="M1244.8,515.2s-7.49-.64-12.41,15.86c0,0-.17,5.69-1.8,8.74-1.63,3.04-3.78,13.49-3.8,19.8-.02,6.31,1.81,17.39,10.1,24.18,8.29,6.79,24.88,2.46,24.88,2.46,0,0,16.81-3.86,22.36-12.44,0,0,4.23,7.3,10.97,3.73,6.75-3.56,15.76-14.62,10.3-19.44-4.68-4.14-11.24,1.86-13,3.64-.29,.29-.45,.47-.45,.47,0,0-12.2-24.7-6.66-38.29,0,0-11.13,5.26-21.43-1.06,0,0-14.44,2.45-19.06-7.65Z"/>
      <path class="cls-75" d="M1307.96,529.84s-.91,6.86-7.37,6.93c-6.46,.07-2.51-8.67-2.51-8.67,0,0-9.16-2.65-7.65-6.03,1.51-3.38,8.41-7.03,9.39-4.28,.98,2.75,.17,7.49,.17,7.49,0,0,7.26,1.9,7.98,4.56Z"/>
      <path class="cls-61" d="M1286.38,568.16s-12.35,23.4,6.33,29.85c0,0-4.23,17.6-4.23,25.64,0,0-38.01,13.05-66.2,1.92,0,0,9.93-23.01,16.99-31.08,0,0,3.7-3.2,2.2-7.22l44.92-19.11Z"/>
      <path class="cls-69" d="M1261.66,537.26s9.8,.4,17.09,5.38c0,0-2.55-6.13-16.72-7.65,0,0-2.63,.77-.38,2.27Z"/>
      <path class="cls-69" d="M1231.93,531.37c6.9,.09,11.51,1.85,11.51,1.85,2.66-.48,.56-2.24,.56-2.24-4.24-1.32-9.21-1.66-11.85-1.67,0,0-.59,2.05-.21,2.05Z"/>
      <path class="cls-62" d="M1256.36,567.84s-4.61-2.63-10.88-2.27c0,0-4.87-2.15-9.68-2.15,0,0-1.32,8.34,5.99,11.87,7.31,3.54,13.64-2.62,14.57-7.45Z"/>
      <path class="cls-54" d="M1254.99,568.14s-1.55,7.29-11.01,5.19c-8.59-1.91-7.22-8.4-7.22-8.4,0,0,9.58,2.59,18.23,3.21Z"/>
      <path class="cls-47" d="M1253.8,567.99s-3.09,2.85-10.34,.87c0,0-4.57-.78-5.93-3.6,0,0,9.39,2.3,16.26,2.73Z"/>
      <path class="cls-23" d="M1245.99,546.87s-6.95,4.21-1.75,9.03"/>
      <path class="cls-79" d="M1241.45,586.12s8.31,2.12,16.66,.48c0,0,5.16-.41,13.94-4.3,0,0-5.17,6.31-20.23,6.47,0,0-3.76,.06-10.02-.87,0,0-.33-1.03-.35-1.77Z"/>
      <path class="cls-71" d="M1303.68,726.49s10.88,21.32,7.35,49.09c0,0-9.84,47.72-15.53,57.59,0,0,5.03,17.2,3.95,33.46,0,0-22.07,17.35-36.9,6.04l-4.52-31.38-2.48-66.98-12.36,57.09,1.89,13.73-2.52,18.47s-22.25,13.43-30.96,5.47l-6.18-26.43s-4.68-9.79-3.6-18.44l14.38-97.59s45.24,21.92,87.48-.12Z"/>
      <path class="cls-23" d="M1302.62,565.94s-1.9-4.98-6.1-1.27c-4.2,3.72-4.7,5.16-4.7,5.16,0,0,6.17-6.02,6.74,.04"/>
      <g>
        <path class="cls-52" d="M1296.28,558.5s-5.17,4.33-1.7,7.65c3.47,3.32-2.89,.38-2.89,.38,0,0-4.18-2.98,3.28-10.17l1.31,2.14Z"/>
        <path class="cls-47" d="M1294.58,566.15s3.51-5.46,7.36-3.33c3.86,2.13-2.13,8.44-2.13,8.44,0,0-1.59,1.43-3.87,.8,0,0,3.08-3.52-1.36-5.91Z"/>
        <path class="cls-70" d="M1306.2,560.8s2.99,2.61,2.75-1.66-6.09-5.68-8.01-5.78c-1.92-.1-4.81,.23-5.96,3s3.43,1.09,3.43,1.09c0,0,5.66-2.63,7.79,3.35Z"/>
      </g>
      <g>
        <path class="cls-47" d="M1271.22,547.43s.07-.26-.07-.53c-.45-.89-1.59-2.63-3.92-3.25-2.62-.68-4.7,1.4-5.42,2.14-.12,.13-.15,.26-.15,.26,0,0-.05,.14,.01,.27,.29,.59,1.33,2.31,3.8,3,1.47,.41,3.75,.16,5.55-1.51,.13-.12,.18-.29,.2-.39Z"/>
        <circle class="cls-79" cx="1265.71" cy="546.48" r="2.8"/>
        <circle class="cls-47" cx="1267.56" cy="546.38" r=".77"/>
        <path class="cls-21" d="M1261.65,545.76s4.82-5.41,9.61,1.15"/>
      </g>
      <g>
        <path class="cls-47" d="M1242.49,541.32s.1-.23,.01-.5c-.29-.88-1.08-2.64-3.14-3.53-2.3-1-4.51,.62-5.27,1.2-.13,.1-.18,.22-.18,.22,0,0-.06,.12-.03,.25,.18,.59,.89,2.31,3.06,3.28,1.29,.58,3.41,.67,5.3-.6,.13-.09,.2-.24,.24-.33Z"/>
        <circle class="cls-79" cx="1237.56" cy="539.67" r="2.58"/>
        <circle class="cls-47" cx="1239.33" cy="539.91" r=".72"/>
        <path class="cls-21" d="M1234.02,538.56s5.15-4.69,8.52,2.39"/>
      </g>
      <path class="cls-75" d="M1299.2,659.57s-6.4,17.83,6.63,65.33l-2.15,1.58c-46.66,26.44-87.48,.12-87.48,.12l.66-38.37,.54-38.68-3.42,1.46-18.73-13.43c5.38-26.93,26.36-39.03,26.36-39.03l21.15-8.94c-17.08,23.34,3.9,23.5,3.9,23.5,22.62,.55,34.63-23.69,34.63-23.69,0,0-.82-1.55,18.7,8.37,16.87,8.57,24.87,41.76,24.87,41.76,0,0-11.64,18.37-25.65,20.03"/>
      <line class="cls-38" x1="1299.14" y1="659.16" x2="1295.88" y2="636.26"/>
      <line class="cls-32" x1="1217.77" y1="649.08" x2="1221.01" y2="623.79"/>
      <path class="cls-61" d="M1197.26,638.81l-6.22,34.41-30.83-12.01s-6.81-10.21-17.02-13.82c-10.21-3.6-15.02-6.01-15.02-6.01,0,0-4.4-1.2-3.8,2.6s3.2,4.61,3.2,4.61c0,0-.2,3.6,1,4.4,0,0-.2,3.8,1,4.2,0,0-1.4,7.81,3,11.21,0,0-.6,6.21,7.41,6.21h15.42l36.44,27.43s10.01,6.41,19.22-4.81l6.28-34.4,.05-13.3-20.13-10.74Z"/>
      <path class="cls-25" d="M1132.58,668.41s-.75-5.77,2.59-7.22,10.02,.15,10.02,.15c0,0,6.24,2.9,1.16,5.08-5.08,2.18-7.26-.15-7.26-.15,0,0,.44,1.45,.29,3.05"/>
      <path class="cls-25" d="M1129.57,657.2s1-.83,3.05-.2,16.71,2.36,16.71,2.36c0,0,4.57,2.84-.95,4.26"/>
      <path class="cls-25" d="M1128.57,653s3.89-2.62,8.15-.73c4.26,1.89,11.19,3.94,11.19,3.94,0,0,2.99,1.58,1.42,3.15"/>
      <path class="cls-25" d="M1127.57,648.59s9.31-4.2,14.19,5.1"/>
      <path class="cls-25" d="M1191.04,673.22s7.35,4.68,5.81,13.89"/>
      <path class="cls-61" d="M1299.2,659.57l28.92,36.73c9.26,7.41,16.61-1.95,16.61-1.95l28.3-39.35s6.85-2.81,14.26-5.85c7.41-3.04,4.5-8.56,4.5-8.56,2.78-4.82-1.48-11.51-1.48-11.51,.96-.83-.67-4.27-.67-4.27,.81-1.2-.75-4.46-.75-4.46,0,0,2.1-1.73,1.21-5.48-.89-3.75-4.51-.96-4.51-.96,0,0-3.53,4.05-11.61,11.26-8.08,7.21-10.5,19.24-10.5,19.24l-23.96,22.82-15.79-26.6s-9.07,15.1-24.55,18.93Z"/>
      <path class="cls-25" d="M1391.8,640.6s-1.49-5.63-5.14-5.7-9.22,3.94-9.22,3.94c0,0-4.67,5.06,.86,5.14s6.66-2.89,6.66-2.89c0,0,.15,1.51,.89,2.93"/>
      <path class="cls-25" d="M1390.32,629.08s-1.24-.39-2.9,.97c-1.66,1.36-14.56,8.53-14.56,8.53,0,0-3.15,4.36,2.49,3.58"/>
      <path class="cls-25" d="M1389.65,624.81s-4.59-.94-7.81,2.42-8.86,7.9-8.86,7.9c0,0-2.17,2.6-.12,3.46"/>
      <path class="cls-25" d="M1388.91,620.36s-10.2-.35-11.19,10.11"/>
      <path class="cls-25" d="M1339.54,667.24s-4.2,3.62-4.99,10.77"/>
      <circle class="cls-71" cx="1244.12" cy="621.24" r="3.79"/>
      <circle class="cls-71" cx="1251.68" cy="621.8" r="3.79"/>
      <circle class="cls-71" cx="1259.35" cy="620.42" r="3.79"/>
      <circle class="cls-71" cx="1266.75" cy="617.81" r="3.79"/>
      <circle class="cls-71" cx="1272.91" cy="613.19" r="3.79"/>
      <circle class="cls-71" cx="1278.51" cy="608.18" r="3.79"/>
      <circle class="cls-71" cx="1236.98" cy="618.58" r="3.79"/>
      <circle class="cls-71" cx="1230.53" cy="614.83" r="3.79"/>
      <circle class="cls-71" cx="1227.07" cy="608" r="3.79"/>
      <circle class="cls-71" cx="1247.1" cy="627.93" r="3.79"/>
      <circle class="cls-71" cx="1256.53" cy="627.54" r="3.79"/>
      <circle class="cls-71" cx="1265.37" cy="625.17" r="3.79"/>
      <circle class="cls-71" cx="1273.54" cy="620.79" r="3.79"/>
      <circle class="cls-71" cx="1279.5" cy="615.9" r="3.79"/>
      <circle class="cls-71" cx="1238.3" cy="625.79" r="3.79"/>
      <circle class="cls-71" cx="1230.34" cy="622.23" r="3.79"/>
      <circle class="cls-71" cx="1223.19" cy="614.53" r="3.79"/>
      <path class="cls-11" d="M1242.75,589.61s-10.72,12.94-5.11,19.91c5.61,6.97,22.78,.85,22.78,.85,0,0,13.66-7.72,20.86-20.95"/>
      <g>
        <path class="cls-61" d="M1254.11,918.01s6.46,8.81,5.01,13.63c0,0-8.95,7.73-16.61,1.82,0,0,8.37-5.49,11.6-15.45Z"/>
        <path class="cls-61" d="M1250.85,912.53s-2.94,14.93-11.72,18.61c0,0-4.48-7.01-9.64-10.82,0,0,1.14-14.55-17.89-51.25,0,0,10.04,2.74,30.96-5.47,0,0,6.14,10.73,5.38,23.86-.76,13.14,2.91,25.07,2.91,25.07Z"/>
        <path class="cls-46" d="M1259.12,931.65s4.48,6.39,3.54,9.24c0,0-6.51,3.68-16.15,2.67,0,0-5.24-.58-9.92,4.46-4.68,5.04-25.07,10.24-32.61,5.12-7.54-5.12,2.92-13.19,2.92-13.19,0,0,15.26-6.88,16.85-14.44,1.59-7.56,5.74-5.19,5.74-5.19,0,0,8.26,4.47,10.11,9.62,0,0,8.14-3.65,11.25-17.41l3.26,5.48s-3.46,11.37-10.81,14.9c0,0,3.87,5.94,15.82-1.27Z"/>
        <circle class="cls-69" cx="1240.91" cy="932.53" r="3.49"/>
        <circle class="cls-69" cx="1233.48" cy="943.65" r="2.31"/>
        <circle class="cls-69" cx="1226.4" cy="947.74" r="2.31"/>
        <circle class="cls-69" cx="1218.01" cy="950.21" r="2.31"/>
        <circle class="cls-69" cx="1210.61" cy="950.4" r="2.31"/>
        <circle class="cls-69" cx="1204.05" cy="948.99" r="2.31"/>
        <path class="cls-8" d="M1231.68,938.71s-15.88,9.96-25.67,4.36"/>
      </g>
      <g>
        <path class="cls-61" d="M1296.57,931.93s5.88,9.96,3.84,14.9c0,0-10.25,7.2-17.7,.15,0,0,9.41-4.89,13.86-15.05Z"/>
        <path class="cls-61" d="M1293.72,925.81s-4.68,15.42-14.32,18.37c0,0-3.97-7.86-9.01-12.42,0,0,2.15-32.64-7.83-59.09,0,0,16.47,8.89,36.9-6.04,0,0,.26,18.4-1.93,32.17-2.19,13.76-3.8,27.02-3.8,27.02Z"/>
        <path class="cls-46" d="M1300.41,946.83s4.04,7.21,2.76,10.11c0,0-7.25,3.19-17.31,1.11,0,0-5.46-1.16-10.92,3.65-5.46,4.81-27.5,8.13-34.91,1.94-7.41-6.19,4.48-13.59,4.48-13.59,0,0,16.81-5.64,19.28-13.44,2.48-7.8,6.6-4.87,6.6-4.87,0,0,8.23,5.58,9.64,11.21,0,0,8.96-2.99,13.7-17.15l2.85,6.12s-4.86,11.61-12.97,14.56c0,0,3.45,6.67,16.81,.34Z"/>
        <circle class="cls-69" cx="1281.12" cy="945.83" r="3.7"/>
        <circle class="cls-69" cx="1272.12" cy="956.77" r="2.45"/>
        <circle class="cls-69" cx="1264.23" cy="960.32" r="2.45"/>
        <circle class="cls-69" cx="1255.12" cy="962.04" r="2.45"/>
        <circle class="cls-69" cx="1247.31" cy="961.45" r="2.45"/>
        <circle class="cls-69" cx="1240.54" cy="959.28" r="2.45"/>
        <path class="cls-8" d="M1270.75,951.37s-17.79,8.81-27.51,1.88"/>
      </g>
    </g>
  </g>
</svg>