<svg xmlns="http://www.w3.org/2000/svg" xmlns:xlink="http://www.w3.org/1999/xlink" width="1200" zoomAndPan="magnify" viewBox="0 0 900 675.000002" height="900" preserveAspectRatio="xMidYMid meet" version="1.0"><defs><clipPath id="1483816b34"><path d="M 0.664062 0 L 899.332031 0 L 899.332031 674 L 0.664062 674 Z M 0.664062 0 " clip-rule="nonzero"/></clipPath><clipPath id="f20e46fc57"><path d="M 113 647 L 460 647 L 460 674 L 113 674 Z M 113 647 " clip-rule="nonzero"/></clipPath><clipPath id="eeaf1cd109"><path d="M 131 249 L 483 249 L 483 674 L 131 674 Z M 131 249 " clip-rule="nonzero"/></clipPath><clipPath id="e1d5daae1b"><path d="M 522 372 L 771 372 L 771 674 L 522 674 Z M 522 372 " clip-rule="nonzero"/></clipPath></defs><g clip-path="url(#1483816b34)"><path fill="#ffffff" d="M 0.664062 0 L 899.335938 0 L 899.335938 674 L 0.664062 674 Z M 0.664062 0 " fill-opacity="1" fill-rule="nonzero"/><path fill="#ffffff" d="M 0.664062 0 L 899.335938 0 L 899.335938 674 L 0.664062 674 Z M 0.664062 0 " fill-opacity="1" fill-rule="nonzero"/><rect x="-90" width="1080" fill="#bde4e0" y="-67.5" height="810.000002" fill-opacity="1"/></g><path fill="#be9e7d" d="M 482.316406 419.585938 L 476.074219 546.308594 L 583.390625 562.339844 L 570.257812 639.835938 L 453.371094 616.195312 L 427.144531 477.796875 Z M 482.316406 419.585938 " fill-opacity="1" fill-rule="nonzero"/><path fill="#be9e7d" d="M 272.4375 175.304688 C 272.4375 175.304688 275.429688 222.007812 261.929688 249.25 C 261.929688 249.25 245.878906 378.34375 350.972656 385.367188 C 350.972656 385.367188 430.160156 367.011719 386.179688 263.675781 C 386.179688 263.675781 367.511719 255.613281 367.757812 237.277344 C 368.011719 217.863281 370.246094 237.695312 370.246094 237.695312 L 272.4375 175.3125 " fill-opacity="1" fill-rule="nonzero"/><g clip-path="url(#f20e46fc57)"><path fill="#3e3e3e" d="M 150.363281 647.039062 C 150.363281 647.039062 76.039062 792.5625 137.164062 921.453125 L 156.445312 1024.75 C 156.445312 1024.75 171.953125 1068.398438 163.359375 1133.636719 C 157.894531 1175.128906 165.726562 1234.433594 174.320312 1289.890625 C 174.320312 1289.890625 201.25 1319.769531 251.703125 1298.023438 C 251.703125 1298.023438 293.070312 1316.78125 340.726562 1296.179688 L 423.054688 1118.261719 C 423.054688 1118.261719 444.203125 1087.566406 445.359375 1054.753906 C 445.359375 1054.753906 469.105469 824.277344 455.636719 674.78125 C 455.636719 674.78125 324.757812 759.3125 150.363281 647.046875 Z M 150.363281 647.039062 " fill-opacity="1" fill-rule="nonzero"/></g><path fill="#be9e7d" d="M 286.128906 137.378906 C 286.128906 137.378906 307.136719 41.511719 394.671875 49.859375 C 394.671875 49.859375 456.183594 60.90625 436.925781 147.117188 C 436.925781 147.117188 431.082031 160.460938 432.117188 168.273438 C 432.117188 168.273438 433.550781 188.15625 421.09375 204.425781 C 402.445312 228.777344 385.503906 245.597656 385.503906 245.597656 C 385.503906 245.597656 374.863281 256.917969 353.332031 253.378906 C 353.332031 253.378906 338.3125 250.277344 321.269531 234.542969 C 321.269531 234.542969 276.574219 203.851562 284.105469 175.726562 C 284.105469 175.726562 260.359375 186.109375 256.847656 150.644531 C 256.847656 150.644531 256.847656 102.398438 286.136719 137.363281 Z M 286.128906 137.378906 " fill-opacity="1" fill-rule="nonzero"/><path fill="#26130f" d="M 370.578125 121.8125 C 370.578125 121.8125 343.105469 106.976562 327.785156 113.945312 C 327.785156 113.945312 340.773438 100.589844 372.664062 114.972656 C 372.664062 114.972656 377.675781 120.578125 370.578125 121.8125 Z M 370.578125 121.8125 " fill-opacity="1" fill-rule="nonzero"/><path fill="#26130f" d="M 442.273438 127.652344 C 441.855469 126.003906 426.917969 123.472656 412.773438 124.324219 C 412.773438 124.324219 406.09375 127.773438 412.292969 131.457031 C 412.292969 131.457031 438.371094 126.367188 441.121094 134.96875 C 441.121094 134.96875 443.316406 131.710938 442.28125 127.652344 Z M 442.273438 127.652344 " fill-opacity="1" fill-rule="nonzero"/><path stroke-linecap="butt" transform="matrix(0.6859, 0, 0, 0.685986, -8.396244, -10.513596)" fill="none" stroke-linejoin="miter" d="M 589.949396 260.827174 C 589.949396 260.827174 602.638018 289.987988 571.639737 287.459692 " stroke="#231f20" stroke-width="1.5" stroke-opacity="1" stroke-miterlimit="10"/><path stroke-linecap="butt" transform="matrix(0.6859, 0, 0, 0.685986, -8.396244, -10.513596)" fill="none" stroke-linejoin="miter" d="M 393.429518 221.79234 C 393.429518 221.79234 409.797157 194.607469 423.602014 245.70865 C 423.602014 245.70865 408.367694 221.467762 401.710154 238.619172 " stroke="#231f20" stroke-width="1.5" stroke-opacity="1" stroke-miterlimit="10"/><path fill="#26130f" d="M 372.585938 252.679688 C 372.585938 252.679688 358.304688 258.5625 336.753906 246.238281 C 336.753906 246.238281 317.851562 235.796875 303.8125 219.519531 C 303.8125 219.519531 320.453125 246.554688 348.085938 255.246094 C 348.085938 255.246094 363.566406 260.074219 374.714844 257.136719 C 374.714844 257.136719 373.394531 255.414062 372.585938 252.679688 Z M 372.585938 252.679688 " fill-opacity="1" fill-rule="nonzero"/><path fill="#ffffff" d="M 336.472656 134.066406 C 336.472656 134.066406 336.5625 133.425781 337.113281 132.960938 C 338.945312 131.421875 343.046875 128.652344 348.738281 129.480469 C 355.117188 130.410156 357.757812 136.910156 358.640625 139.222656 C 358.792969 139.621094 358.730469 139.945312 358.730469 139.945312 C 358.730469 139.945312 358.703125 140.300781 358.449219 140.519531 C 357.265625 141.554688 353.386719 144.355469 347.332031 143.574219 C 343.730469 143.105469 338.964844 140.4375 336.550781 135.101562 C 336.386719 134.730469 336.425781 134.296875 336.472656 134.066406 Z M 336.472656 134.066406 " fill-opacity="1" fill-rule="nonzero"/><path fill="#26130f" d="M 356.125 137.109375 C 356.125 137.546875 356.082031 137.980469 355.996094 138.410156 C 355.910156 138.839844 355.785156 139.253906 355.617188 139.660156 C 355.449219 140.0625 355.246094 140.449219 355.003906 140.8125 C 354.761719 141.175781 354.484375 141.511719 354.175781 141.820312 C 353.867188 142.128906 353.527344 142.40625 353.164062 142.648438 C 352.800781 142.890625 352.417969 143.097656 352.015625 143.265625 C 351.609375 143.433594 351.195312 143.558594 350.765625 143.644531 C 350.335938 143.730469 349.902344 143.769531 349.464844 143.769531 C 349.027344 143.769531 348.59375 143.730469 348.164062 143.644531 C 347.738281 143.558594 347.320312 143.433594 346.917969 143.265625 C 346.511719 143.097656 346.128906 142.890625 345.765625 142.648438 C 345.402344 142.40625 345.066406 142.128906 344.753906 141.820312 C 344.445312 141.511719 344.171875 141.175781 343.925781 140.8125 C 343.683594 140.449219 343.480469 140.0625 343.3125 139.660156 C 343.144531 139.253906 343.019531 138.839844 342.933594 138.410156 C 342.847656 137.980469 342.804688 137.546875 342.804688 137.109375 C 342.804688 136.671875 342.847656 136.238281 342.933594 135.8125 C 343.019531 135.382812 343.144531 134.964844 343.3125 134.5625 C 343.480469 134.15625 343.683594 133.773438 343.925781 133.410156 C 344.171875 133.046875 344.445312 132.710938 344.753906 132.402344 C 345.066406 132.089844 345.402344 131.816406 345.765625 131.570312 C 346.128906 131.328125 346.511719 131.125 346.917969 130.957031 C 347.320312 130.789062 347.738281 130.664062 348.164062 130.578125 C 348.59375 130.492188 349.027344 130.449219 349.464844 130.449219 C 349.902344 130.449219 350.335938 130.492188 350.765625 130.578125 C 351.195312 130.664062 351.609375 130.789062 352.015625 130.957031 C 352.417969 131.125 352.800781 131.328125 353.164062 131.570312 C 353.527344 131.816406 353.867188 132.089844 354.175781 132.402344 C 354.484375 132.710938 354.761719 133.046875 355.003906 133.410156 C 355.246094 133.773438 355.449219 134.15625 355.617188 134.5625 C 355.785156 134.964844 355.910156 135.382812 355.996094 135.8125 C 356.082031 136.238281 356.125 136.671875 356.125 137.109375 Z M 356.125 137.109375 " fill-opacity="1" fill-rule="nonzero"/><path fill="#ffffff" d="M 348.839844 132.425781 C 348.839844 132.667969 348.792969 132.902344 348.703125 133.125 C 348.609375 133.351562 348.476562 133.546875 348.304688 133.71875 C 348.132812 133.890625 347.933594 134.023438 347.710938 134.117188 C 347.484375 134.210938 347.253906 134.257812 347.007812 134.257812 C 346.765625 134.257812 346.53125 134.210938 346.308594 134.117188 C 346.085938 134.023438 345.886719 133.890625 345.714844 133.71875 C 345.542969 133.546875 345.410156 133.351562 345.316406 133.125 C 345.226562 132.902344 345.179688 132.667969 345.179688 132.425781 C 345.179688 132.183594 345.226562 131.949219 345.316406 131.722656 C 345.410156 131.5 345.542969 131.300781 345.714844 131.128906 C 345.886719 130.957031 346.085938 130.824219 346.308594 130.734375 C 346.53125 130.640625 346.765625 130.59375 347.007812 130.59375 C 347.253906 130.59375 347.484375 130.640625 347.710938 130.734375 C 347.933594 130.824219 348.132812 130.957031 348.304688 131.128906 C 348.476562 131.300781 348.609375 131.5 348.703125 131.722656 C 348.792969 131.949219 348.839844 132.183594 348.839844 132.425781 Z M 348.839844 132.425781 " fill-opacity="1" fill-rule="nonzero"/><path stroke-linecap="butt" transform="matrix(0.6859, 0, 0, 0.685986, -8.396244, -10.513596)" fill="none" stroke-linejoin="miter" d="M 535.692437 218.392808 C 535.692437 218.392808 527.611129 194.550525 503.378594 209.031281 " stroke="#231f20" stroke-width="1.5" stroke-opacity="1" stroke-miterlimit="10"/><path fill="#ffffff" d="M 409.996094 150.289062 C 409.996094 150.289062 409.988281 149.679688 410.433594 149.171875 C 411.917969 147.484375 415.332031 144.3125 420.75 144.273438 C 426.8125 144.222656 430.203125 149.890625 431.355469 151.914062 C 431.554688 152.265625 431.539062 152.574219 431.539062 152.574219 C 431.539062 152.574219 431.5625 152.910156 431.363281 153.148438 C 430.402344 154.28125 427.199219 157.441406 421.464844 157.574219 C 418.046875 157.65625 413.234375 155.851562 410.230469 151.242188 C 410.015625 150.917969 410.003906 150.507812 410.007812 150.289062 Z M 409.996094 150.289062 " fill-opacity="1" fill-rule="nonzero"/><path fill="#26130f" d="M 428.769531 151.25 C 428.769531 151.660156 428.730469 152.066406 428.648438 152.46875 C 428.570312 152.871094 428.449219 153.261719 428.292969 153.640625 C 428.136719 154.019531 427.945312 154.378906 427.714844 154.71875 C 427.488281 155.0625 427.230469 155.378906 426.9375 155.667969 C 426.648438 155.957031 426.332031 156.21875 425.992188 156.445312 C 425.652344 156.671875 425.289062 156.867188 424.910156 157.023438 C 424.53125 157.179688 424.140625 157.296875 423.738281 157.378906 C 423.335938 157.457031 422.929688 157.496094 422.519531 157.5 C 422.109375 157.496094 421.703125 157.457031 421.300781 157.378906 C 420.898438 157.296875 420.507812 157.179688 420.128906 157.023438 C 419.75 156.867188 419.390625 156.671875 419.050781 156.445312 C 418.707031 156.21875 418.390625 155.957031 418.101562 155.667969 C 417.8125 155.378906 417.554688 155.0625 417.324219 154.71875 C 417.097656 154.378906 416.90625 154.019531 416.746094 153.640625 C 416.589844 153.261719 416.472656 152.871094 416.390625 152.46875 C 416.3125 152.066406 416.273438 151.660156 416.273438 151.25 C 416.273438 150.839844 416.3125 150.433594 416.390625 150.03125 C 416.472656 149.628906 416.589844 149.234375 416.746094 148.855469 C 416.90625 148.476562 417.097656 148.117188 417.324219 147.777344 C 417.554688 147.4375 417.8125 147.121094 418.101562 146.828125 C 418.390625 146.539062 418.707031 146.28125 419.050781 146.050781 C 419.390625 145.824219 419.75 145.632812 420.128906 145.476562 C 420.507812 145.316406 420.898438 145.199219 421.300781 145.121094 C 421.703125 145.039062 422.109375 145 422.519531 145 C 422.929688 145 423.335938 145.039062 423.738281 145.121094 C 424.140625 145.199219 424.53125 145.316406 424.910156 145.476562 C 425.289062 145.632812 425.652344 145.824219 425.992188 146.050781 C 426.332031 146.28125 426.648438 146.539062 426.9375 146.828125 C 427.230469 147.121094 427.488281 147.4375 427.714844 147.777344 C 427.945312 148.117188 428.136719 148.476562 428.292969 148.855469 C 428.449219 149.234375 428.570312 149.628906 428.648438 150.03125 C 428.730469 150.433594 428.769531 150.839844 428.769531 151.25 Z M 428.769531 151.25 " fill-opacity="1" fill-rule="nonzero"/><path fill="#ffffff" d="M 421.839844 147.167969 C 421.839844 147.398438 421.796875 147.621094 421.707031 147.835938 C 421.621094 148.050781 421.492188 148.238281 421.328125 148.402344 C 421.164062 148.566406 420.976562 148.695312 420.761719 148.785156 C 420.546875 148.871094 420.324219 148.917969 420.09375 148.917969 C 419.859375 148.917969 419.636719 148.871094 419.421875 148.78125 C 419.207031 148.695312 419.019531 148.566406 418.855469 148.402344 C 418.691406 148.238281 418.566406 148.050781 418.476562 147.835938 C 418.386719 147.621094 418.34375 147.398438 418.34375 147.167969 C 418.34375 146.933594 418.386719 146.710938 418.476562 146.496094 C 418.566406 146.285156 418.691406 146.09375 418.855469 145.929688 C 419.019531 145.765625 419.207031 145.640625 419.421875 145.550781 C 419.636719 145.460938 419.859375 145.417969 420.09375 145.417969 C 420.324219 145.417969 420.546875 145.460938 420.761719 145.550781 C 420.976562 145.640625 421.164062 145.765625 421.328125 145.929688 C 421.492188 146.09375 421.621094 146.285156 421.707031 146.496094 C 421.796875 146.710938 421.839844 146.933594 421.839844 147.167969 Z M 421.839844 147.167969 " fill-opacity="1" fill-rule="nonzero"/><path stroke-linecap="butt" transform="matrix(0.6859, 0, 0, 0.685986, -8.396244, -10.513596)" fill="none" stroke-linejoin="miter" d="M 641.279087 237.087389 C 641.279087 237.087389 631.022261 214.811056 610.360537 233.152587 " stroke="#231f20" stroke-width="1.5" stroke-opacity="1" stroke-miterlimit="10"/><g clip-path="url(#eeaf1cd109)"><path fill="#ffffff" d="M 261.929688 249.242188 C 261.929688 249.242188 254.6875 263.824219 215.371094 273.15625 C 143.523438 290.207031 131.925781 405.058594 131.925781 405.058594 C 131.925781 405.058594 130.699219 433.945312 196.480469 448.300781 L 149.265625 646.550781 C 149.265625 646.550781 221.695312 710.738281 342.042969 704.996094 C 342.042969 704.996094 422.230469 702.453125 461.890625 669.964844 C 461.890625 669.964844 449.339844 567.839844 451.191406 493.96875 C 451.191406 493.96875 470.167969 480.007812 470.65625 444.589844 L 482.324219 419.585938 L 475.65625 346.945312 C 475.65625 346.945312 469.683594 298.207031 418.859375 276.378906 C 418.859375 276.378906 396.195312 271.886719 382.621094 263.703125 C 382.621094 263.703125 399.371094 293.859375 388.066406 322.757812 C 388.066406 322.757812 337.394531 367.992188 279.179688 316.058594 C 279.179688 316.058594 259.367188 299.992188 261.9375 249.242188 Z M 261.929688 249.242188 " fill-opacity="1" fill-rule="nonzero"/></g><path stroke-linecap="butt" transform="matrix(0.6859, 0, 0, 0.685986, -8.396244, -10.513596)" fill-opacity="1" fill="#ffffff" fill-rule="nonzero" stroke-linejoin="miter" d="M 698.417753 663.42977 L 693.51999 579.500607 " stroke="#808285" stroke-width="2" stroke-opacity="1" stroke-miterlimit="10"/><path stroke-linecap="butt" transform="matrix(0.6859, 0, 0, 0.685986, -8.396244, -10.513596)" fill-opacity="1" fill="#ffffff" fill-rule="nonzero" stroke-linejoin="miter" d="M 326.928153 662.211177 L 329.718738 592.648883 " stroke="#808285" stroke-width="2" stroke-opacity="1" stroke-miterlimit="10"/><path fill="#bf6b6b" d="M 339.710938 192.375 C 339.710938 192.375 353.066406 192.929688 366.550781 201.242188 C 366.550781 201.242188 379.917969 203.027344 390.597656 208.878906 C 390.597656 208.878906 383.621094 226.480469 363.191406 224.382812 C 342.757812 222.28125 336.007812 202.78125 339.703125 192.375 Z M 339.710938 192.375 " fill-opacity="1" fill-rule="nonzero"/><path fill="#803435" d="M 342.378906 194.625 C 342.378906 194.625 337.144531 210.496094 360.652344 217.960938 C 382.003906 224.738281 386.667969 210.605469 386.667969 210.605469 C 386.667969 210.605469 362.3125 203.933594 342.378906 194.625 Z M 342.378906 194.625 " fill-opacity="1" fill-rule="nonzero"/><path fill="#ffffff" d="M 345.144531 195.722656 C 345.144531 195.722656 348.65625 204.859375 367.09375 209.867188 C 367.09375 209.867188 378.15625 213.921875 384.507812 210.214844 C 384.507812 210.214844 360.917969 203.21875 345.144531 195.722656 Z M 345.144531 195.722656 " fill-opacity="1" fill-rule="nonzero"/><path fill="#3c2415" d="M 405.105469 65.378906 C 405.105469 65.378906 338.894531 158 261.492188 149.191406 C 261.492188 149.191406 260.238281 180.046875 284.097656 175.738281 C 284.097656 175.738281 295.210938 226.761719 270.183594 249.335938 C 270.183594 249.335938 235.796875 268.320312 212.75 274.199219 C 191.171875 279.699219 176.640625 294.757812 176.640625 294.757812 C 176.640625 294.757812 217.585938 259.097656 224.714844 175.230469 C 231.839844 91.363281 277.300781 50.917969 277.300781 50.917969 C 277.300781 50.917969 337.207031 -18.671875 407.175781 31.503906 C 407.175781 31.503906 447.382812 38.316406 459.820312 79.136719 C 467.015625 102.75 460.148438 143.976562 454.320312 176.863281 C 454.320312 176.863281 442.300781 253.34375 404.417969 271.980469 C 404.417969 271.980469 374.054688 269.4375 372.75 249.488281 C 372.75 249.488281 378.246094 251.546875 388.316406 241.914062 C 402.066406 228.765625 412.117188 216.09375 422.746094 200.371094 C 422.746094 200.371094 434.140625 184.753906 431.410156 162.027344 C 431.410156 162.027344 431.027344 150.207031 435.292969 143.910156 C 435.292969 143.910156 446.609375 96.117188 405.097656 65.382812 " fill-opacity="1" fill-rule="nonzero"/><path stroke-linecap="butt" transform="matrix(0.6859, 0, 0, 0.685986, -8.396244, -10.513596)" fill="none" stroke-linejoin="miter" d="M 420.019813 254.620322 C 420.019813 254.620322 399.631452 278.177887 415.611827 296.359976 C 431.592201 314.542066 427.252555 274.789743 427.252555 274.789743 " stroke="#fbb040" stroke-width="2" stroke-opacity="1" stroke-miterlimit="10"/><path fill="#be9e7d" d="M 451.59375 518.582031 L 488.078125 516.960938 L 528.617188 449.667969 L 572.394531 484.527344 L 526.1875 570.476562 C 526.1875 570.476562 509.972656 581.828125 495.382812 576.964844 L 454.519531 572.363281 L 451.601562 518.585938 Z M 451.59375 518.582031 " fill-opacity="1" fill-rule="nonzero"/><path fill="#be9e7d" d="M 214.917969 447.746094 L 214.855469 538.453125 C 214.855469 538.453125 303.550781 551.953125 368.191406 568.84375 L 368.082031 619.796875 C 368.082031 619.796875 209.152344 638.210938 150.707031 617.863281 C 150.707031 617.863281 120.945312 608.039062 122.878906 543.785156 C 125.285156 463.921875 130.992188 409.054688 130.992188 409.054688 C 130.992188 409.054688 163.148438 457.773438 214.914062 447.746094 Z M 214.917969 447.746094 " fill-opacity="1" fill-rule="nonzero"/><path fill="#be9e7d" d="M 368.191406 568.835938 L 376.511719 570.53125 L 452.699219 548.097656 L 502.53125 560.335938 L 524.480469 591.136719 C 524.480469 591.136719 524.011719 604.382812 507.796875 589.148438 L 505.734375 607.921875 C 505.734375 607.921875 499.664062 621.671875 492.433594 608.847656 L 483.476562 625.285156 C 483.476562 625.285156 476.15625 634.800781 472.390625 622.796875 L 462.640625 641.996094 C 462.640625 641.996094 450.191406 638.765625 453.496094 624.214844 L 410.742188 628.984375 L 368.085938 619.785156 L 368.195312 568.828125 Z M 368.191406 568.835938 " fill-opacity="1" fill-rule="nonzero"/><path stroke-linecap="butt" transform="matrix(0.6859, 0, 0, 0.685986, -8.396244, -10.513596)" fill="none" stroke-linejoin="miter" d="M 730.179174 902.877582 C 730.179174 902.877582 734.530209 879.542097 715.457411 873.722462 C 696.390307 867.902826 683.701685 862.948734 683.701685 862.948734 " stroke="#754c29" stroke-width="1" stroke-opacity="1" stroke-miterlimit="10"/><path stroke-linecap="butt" transform="matrix(0.6859, 0, 0, 0.685986, -8.396244, -10.513596)" fill="none" stroke-linejoin="miter" d="M 700.957755 923.217833 C 700.957755 923.217833 718.789028 906.618776 699.158112 898.208207 C 679.527196 889.797638 675.517865 894.159517 675.517865 894.159517 " stroke="#754c29" stroke-width="1" stroke-opacity="1" stroke-miterlimit="10"/><path fill="#be9e7d" d="M 705.460938 325.050781 C 705.460938 325.050781 681.234375 368.855469 710.769531 376.953125 C 710.769531 376.953125 704.378906 453.425781 633.738281 455.632812 C 633.738281 455.632812 566.820312 450.886719 598.769531 382.636719 L 614.394531 372.566406 C 618.957031 362.238281 618.042969 354.335938 618.042969 354.335938 L 691.394531 316.648438 " fill-opacity="1" fill-rule="nonzero"/><path fill="#be9e7d" d="M 617.335938 217.425781 C 617.335938 217.425781 608.476562 228.484375 603.832031 257.878906 C 603.832031 257.878906 601.847656 268.792969 597.707031 274.402344 C 597.707031 274.402344 589.640625 297.507812 594.085938 317.160156 C 598.535156 336.816406 612.898438 351.316406 612.898438 351.316406 C 612.898438 351.316406 628.042969 361.078125 642.761719 358.589844 C 657.480469 356.097656 677.160156 357.875 698.875 328.546875 C 698.875 328.546875 706.515625 339.511719 717.246094 325.277344 C 727.980469 311.042969 737.382812 307.605469 734.125 292.34375 C 730.867188 277.078125 709.324219 300.554688 709.324219 300.554688 C 709.324219 300.554688 727.582031 277.667969 725.867188 249.8125 C 724.152344 221.953125 695.441406 196.0625 695.441406 196.0625 C 695.441406 196.0625 651.460938 170.324219 617.34375 217.433594 Z M 617.335938 217.425781 " fill-opacity="1" fill-rule="nonzero"/><path fill="#231f20" d="M 658.675781 260.335938 C 658.675781 260.335938 677.769531 261.5625 691.769531 271.632812 C 691.769531 271.632812 687.078125 259.558594 659.519531 255.921875 C 659.519531 255.921875 654.355469 257.300781 658.683594 260.339844 Z M 658.675781 260.335938 " fill-opacity="1" fill-rule="nonzero"/><path fill="#231f20" d="M 604.058594 244.207031 C 617.261719 246.820312 625.492188 251.828125 625.492188 251.828125 C 630.78125 251.839844 627.351562 247.734375 627.351562 247.734375 C 619.675781 243.707031 610.273438 241.292969 605.195312 240.34375 C 605.195312 240.34375 603.335938 244.0625 604.058594 244.207031 Z M 604.058594 244.207031 " fill-opacity="1" fill-rule="nonzero"/><path fill="#231f20" d="M 673.160156 277.558594 C 673.160156 277.929688 673.125 278.296875 673.054688 278.660156 C 672.980469 279.027344 672.875 279.378906 672.730469 279.722656 C 672.589844 280.066406 672.414062 280.390625 672.210938 280.699219 C 672.003906 281.007812 671.769531 281.292969 671.507812 281.554688 C 671.242188 281.820312 670.957031 282.054688 670.648438 282.257812 C 670.339844 282.464844 670.015625 282.640625 669.671875 282.78125 C 669.328125 282.921875 668.976562 283.03125 668.613281 283.101562 C 668.25 283.175781 667.882812 283.210938 667.511719 283.210938 C 667.140625 283.210938 666.769531 283.175781 666.40625 283.101562 C 666.042969 283.03125 665.691406 282.921875 665.347656 282.78125 C 665.003906 282.640625 664.679688 282.464844 664.371094 282.257812 C 664.0625 282.054688 663.777344 281.820312 663.511719 281.554688 C 663.25 281.292969 663.015625 281.007812 662.8125 280.699219 C 662.605469 280.390625 662.429688 280.066406 662.289062 279.722656 C 662.144531 279.378906 662.039062 279.027344 661.96875 278.660156 C 661.894531 278.296875 661.859375 277.929688 661.859375 277.558594 C 661.859375 277.1875 661.894531 276.820312 661.96875 276.457031 C 662.039062 276.09375 662.144531 275.738281 662.289062 275.394531 C 662.429688 275.054688 662.605469 274.726562 662.8125 274.417969 C 663.015625 274.109375 663.25 273.824219 663.511719 273.5625 C 663.777344 273.300781 664.0625 273.066406 664.371094 272.859375 C 664.679688 272.652344 665.003906 272.480469 665.347656 272.335938 C 665.691406 272.195312 666.042969 272.085938 666.40625 272.015625 C 666.769531 271.941406 667.140625 271.90625 667.511719 271.90625 C 667.882812 271.90625 668.25 271.941406 668.613281 272.015625 C 668.976562 272.085938 669.328125 272.195312 669.671875 272.335938 C 670.015625 272.480469 670.339844 272.652344 670.648438 272.859375 C 670.957031 273.066406 671.242188 273.300781 671.507812 273.5625 C 671.769531 273.824219 672.003906 274.109375 672.210938 274.417969 C 672.414062 274.726562 672.589844 275.054688 672.730469 275.394531 C 672.875 275.738281 672.980469 276.09375 673.054688 276.457031 C 673.125 276.820312 673.160156 277.1875 673.160156 277.558594 Z M 673.160156 277.558594 " fill-opacity="1" fill-rule="nonzero"/><path stroke-linecap="butt" transform="matrix(0.6859, 0, 0, 0.685986, -8.396244, -10.513596)" fill="none" stroke-linejoin="miter" d="M 926.499724 430.012285 C 926.499724 430.012285 906.680871 438.132441 920.981199 451.252245 " stroke="#231f20" stroke-width="1.2" stroke-opacity="1" stroke-miterlimit="10"/><path fill="#26130f" d="M 618.042969 354.320312 C 618.042969 354.320312 631.15625 361.769531 648.1875 357.703125 C 648.1875 357.703125 657.371094 358.046875 674.367188 351.21875 C 674.367188 351.21875 663.492188 364.125 634.148438 362.421875 C 634.148438 362.421875 628.984375 362.527344 617.835938 359.6875 C 617.835938 359.6875 616.328125 355.753906 618.042969 354.3125 Z M 618.042969 354.320312 " fill-opacity="1" fill-rule="nonzero"/><g clip-path="url(#e1d5daae1b)"><path fill="#9054a2" d="M 625.230469 425.964844 C 625.230469 425.964844 577.855469 425.601562 616.417969 372.898438 L 568.679688 393.085938 C 568.679688 393.085938 555.179688 396.996094 545.152344 422.914062 L 522.351562 458.054688 L 559.445312 515.082031 L 557.953125 595.582031 L 546.429688 680.246094 C 546.429688 680.246094 624.574219 717.078125 766.273438 680.789062 L 770.050781 664.148438 C 740.632812 556.898438 745.941406 514.582031 745.941406 514.582031 L 763.441406 489.75 C 763.441406 489.75 783.695312 410.714844 745.621094 391.363281 C 701.542969 368.960938 703.394531 372.472656 703.394531 372.472656 C 703.394531 372.472656 676.289062 427.214844 625.222656 425.964844 Z M 625.230469 425.964844 " fill-opacity="1" fill-rule="nonzero"/></g><path stroke-linecap="butt" transform="matrix(0.6859, 0, 0, 0.685986, -8.396244, -10.513596)" fill="none" stroke-linejoin="miter" d="M 1075.408793 462.538466 C 1075.408793 462.538466 1071.587399 450.027958 1060.69842 458.421444 C 1049.798051 466.809235 1048.328722 470.23724 1048.328722 470.23724 C 1048.328722 470.23724 1064.428693 456.559388 1064.810263 471.467221 " stroke="#231f20" stroke-width="1.2" stroke-opacity="1" stroke-miterlimit="10"/><path stroke-linecap="butt" transform="matrix(0.6859, 0, 0, 0.685986, -8.396244, -10.513596)" fill="none" stroke-linejoin="miter" d="M 938.117673 392.19035 C 938.117673 392.19035 950.669613 388.380824 955.692667 399.188718 " stroke="#a579b5" stroke-width="3" stroke-opacity="1" stroke-miterlimit="10"/><path stroke-linecap="butt" transform="matrix(0.6859, 0, 0, 0.685986, -8.396244, -10.513596)" fill="none" stroke-linejoin="miter" d="M 1018.418199 415.560001 C 1018.418199 415.560001 993.530731 391.751884 955.037734 399.382326 C 955.037734 399.382326 950.031765 431.589623 969.412098 436.919543 C 988.792431 442.249463 1000.888765 453.660959 1018.418199 415.560001 Z M 1018.418199 415.560001 " stroke="#a579b5" stroke-width="3" stroke-opacity="1" stroke-miterlimit="10"/><path stroke-linecap="butt" transform="matrix(0.6859, 0, 0, 0.685986, -8.396244, -10.513596)" fill="none" stroke-linejoin="miter" d="M 1018.418199 415.560001 L 1069.087262 433.57126 " stroke="#a579b5" stroke-width="3" stroke-opacity="1" stroke-miterlimit="10"/><path stroke-linecap="butt" transform="matrix(0.6859, 0, 0, 0.685986, -8.396244, -10.513596)" fill="none" stroke-linejoin="miter" d="M 1037.770057 558.300507 C 1037.770057 558.300507 993.097906 642.679524 923.80026 636.279065 C 923.80026 636.279065 850.732475 623.671753 910.952175 558.921192 " stroke="#75308e" stroke-width="5" stroke-opacity="1" stroke-miterlimit="10"/><path fill="#ffffff" d="M 678.59375 280.695312 C 678.59375 280.695312 678.78125 280.167969 678.53125 279.589844 C 677.714844 277.683594 675.632812 273.921875 670.890625 272.332031 C 665.589844 270.546875 660.992188 274.546875 659.394531 275.988281 C 659.121094 276.234375 659.046875 276.511719 659.046875 276.511719 C 659.046875 276.511719 658.929688 276.796875 659.039062 277.066406 C 659.554688 278.335938 661.453125 282.023438 666.445312 283.789062 C 669.417969 284.835938 674.15625 284.644531 678.121094 281.460938 C 678.394531 281.242188 678.53125 280.886719 678.585938 280.6875 Z M 678.59375 280.695312 " fill-opacity="1" fill-rule="nonzero"/><path fill="#26130f" d="M 673.121094 277.949219 C 673.121094 278.328125 673.082031 278.707031 673.007812 279.078125 C 672.933594 279.449219 672.824219 279.8125 672.679688 280.164062 C 672.535156 280.515625 672.355469 280.847656 672.144531 281.164062 C 671.933594 281.480469 671.695312 281.769531 671.425781 282.039062 C 671.160156 282.308594 670.867188 282.546875 670.550781 282.757812 C 670.234375 282.96875 669.902344 283.148438 669.550781 283.292969 C 669.199219 283.4375 668.839844 283.546875 668.464844 283.621094 C 668.09375 283.695312 667.71875 283.734375 667.339844 283.734375 C 666.957031 283.734375 666.582031 283.695312 666.210938 283.621094 C 665.839844 283.546875 665.476562 283.4375 665.125 283.292969 C 664.773438 283.148438 664.441406 282.96875 664.125 282.757812 C 663.808594 282.546875 663.519531 282.308594 663.25 282.039062 C 662.980469 281.769531 662.742188 281.480469 662.53125 281.164062 C 662.320312 280.847656 662.140625 280.515625 661.996094 280.164062 C 661.851562 279.8125 661.742188 279.449219 661.667969 279.078125 C 661.59375 278.707031 661.554688 278.328125 661.554688 277.949219 C 661.554688 277.570312 661.59375 277.195312 661.667969 276.820312 C 661.742188 276.449219 661.851562 276.089844 661.996094 275.738281 C 662.140625 275.386719 662.320312 275.054688 662.53125 274.738281 C 662.742188 274.421875 662.980469 274.128906 663.25 273.859375 C 663.519531 273.59375 663.808594 273.351562 664.125 273.140625 C 664.441406 272.929688 664.773438 272.753906 665.125 272.609375 C 665.476562 272.460938 665.839844 272.351562 666.210938 272.277344 C 666.582031 272.203125 666.957031 272.167969 667.339844 272.167969 C 667.71875 272.167969 668.09375 272.203125 668.464844 272.277344 C 668.839844 272.351562 669.199219 272.460938 669.550781 272.609375 C 669.902344 272.753906 670.234375 272.929688 670.550781 273.140625 C 670.867188 273.351562 671.160156 273.59375 671.425781 273.859375 C 671.695312 274.128906 671.933594 274.421875 672.144531 274.738281 C 672.355469 275.054688 672.535156 275.386719 672.679688 275.738281 C 672.824219 276.089844 672.933594 276.449219 673.007812 276.820312 C 673.082031 277.195312 673.121094 277.570312 673.121094 277.949219 Z M 673.121094 277.949219 " fill-opacity="1" fill-rule="nonzero"/><path fill="#ffffff" d="M 671.0625 281.6875 C 671.0625 281.898438 671.023438 282.101562 670.941406 282.296875 C 670.863281 282.488281 670.746094 282.660156 670.597656 282.808594 C 670.449219 282.957031 670.277344 283.074219 670.085938 283.152344 C 669.890625 283.234375 669.6875 283.273438 669.480469 283.273438 C 669.269531 283.273438 669.066406 283.234375 668.871094 283.152344 C 668.679688 283.074219 668.507812 282.957031 668.359375 282.808594 C 668.210938 282.660156 668.09375 282.488281 668.015625 282.296875 C 667.933594 282.101562 667.894531 281.898438 667.894531 281.6875 C 667.894531 281.480469 667.933594 281.277344 668.015625 281.082031 C 668.09375 280.886719 668.210938 280.71875 668.359375 280.570312 C 668.507812 280.417969 668.679688 280.304688 668.871094 280.226562 C 669.066406 280.144531 669.269531 280.105469 669.480469 280.105469 C 669.6875 280.105469 669.890625 280.144531 670.085938 280.226562 C 670.277344 280.304688 670.449219 280.417969 670.597656 280.570312 C 670.746094 280.71875 670.863281 280.886719 670.941406 281.082031 C 671.023438 281.277344 671.0625 281.480469 671.0625 281.6875 Z M 671.0625 281.6875 " fill-opacity="1" fill-rule="nonzero"/><path stroke-linecap="butt" transform="matrix(0.6859, 0, 0, 0.685986, -8.396244, -10.513596)" fill="none" stroke-linejoin="miter" d="M 973.13098 417.501777 C 973.13098 417.501777 988.752565 402.212423 1001.822757 422.928502 " stroke="#231f20" stroke-width="1" stroke-opacity="1" stroke-miterlimit="10"/><path fill="#ffffff" d="M 622.289062 264.976562 C 622.289062 264.976562 622.527344 264.519531 622.386719 263.957031 C 621.910156 262.089844 620.519531 258.351562 616.402344 256.226562 C 611.792969 253.839844 607.015625 256.855469 605.347656 257.953125 C 605.058594 258.144531 604.957031 258.386719 604.957031 258.386719 C 604.957031 258.386719 604.804688 258.632812 604.867188 258.894531 C 605.160156 260.128906 606.382812 263.785156 610.710938 266.101562 C 613.289062 267.488281 617.660156 267.976562 621.738281 265.617188 C 622.019531 265.453125 622.199219 265.144531 622.273438 264.972656 Z M 622.289062 264.976562 " fill-opacity="1" fill-rule="nonzero"/><path fill="#26130f" d="M 617.699219 260.863281 C 617.699219 261.214844 617.664062 261.5625 617.597656 261.90625 C 617.527344 262.25 617.425781 262.582031 617.292969 262.90625 C 617.160156 263.230469 616.996094 263.539062 616.800781 263.832031 C 616.605469 264.121094 616.382812 264.394531 616.136719 264.640625 C 615.886719 264.890625 615.617188 265.109375 615.324219 265.304688 C 615.035156 265.5 614.726562 265.664062 614.402344 265.800781 C 614.078125 265.933594 613.742188 266.035156 613.398438 266.105469 C 613.054688 266.171875 612.707031 266.207031 612.355469 266.207031 C 612.007812 266.207031 611.660156 266.171875 611.316406 266.105469 C 610.96875 266.035156 610.636719 265.933594 610.3125 265.800781 C 609.988281 265.664062 609.679688 265.5 609.386719 265.304688 C 609.097656 265.109375 608.828125 264.890625 608.578125 264.640625 C 608.332031 264.394531 608.109375 264.121094 607.914062 263.832031 C 607.71875 263.539062 607.554688 263.230469 607.421875 262.90625 C 607.285156 262.582031 607.183594 262.25 607.117188 261.90625 C 607.046875 261.5625 607.015625 261.214844 607.015625 260.863281 C 607.015625 260.511719 607.046875 260.164062 607.117188 259.820312 C 607.183594 259.476562 607.285156 259.140625 607.421875 258.816406 C 607.554688 258.492188 607.71875 258.183594 607.914062 257.894531 C 608.109375 257.601562 608.332031 257.332031 608.578125 257.082031 C 608.828125 256.835938 609.097656 256.613281 609.386719 256.417969 C 609.679688 256.222656 609.988281 256.058594 610.3125 255.925781 C 610.636719 255.792969 610.96875 255.691406 611.316406 255.621094 C 611.660156 255.554688 612.007812 255.519531 612.355469 255.519531 C 612.707031 255.519531 613.054688 255.554688 613.398438 255.621094 C 613.742188 255.691406 614.078125 255.792969 614.402344 255.925781 C 614.726562 256.058594 615.035156 256.222656 615.324219 256.417969 C 615.617188 256.613281 615.886719 256.835938 616.136719 257.082031 C 616.382812 257.332031 616.605469 257.601562 616.800781 257.894531 C 616.996094 258.183594 617.160156 258.492188 617.292969 258.816406 C 617.425781 259.140625 617.527344 259.476562 617.597656 259.820312 C 617.664062 260.164062 617.699219 260.511719 617.699219 260.863281 Z M 617.699219 260.863281 " fill-opacity="1" fill-rule="nonzero"/><path fill="#ffffff" d="M 615.820312 264.210938 C 615.820312 264.410156 615.78125 264.597656 615.707031 264.78125 C 615.632812 264.964844 615.523438 265.128906 615.382812 265.265625 C 615.242188 265.40625 615.082031 265.515625 614.898438 265.589844 C 614.714844 265.667969 614.523438 265.707031 614.324219 265.707031 C 614.128906 265.707031 613.9375 265.667969 613.753906 265.589844 C 613.570312 265.515625 613.410156 265.40625 613.269531 265.265625 C 613.128906 265.128906 613.019531 264.964844 612.945312 264.78125 C 612.867188 264.597656 612.832031 264.410156 612.832031 264.210938 C 612.832031 264.011719 612.867188 263.820312 612.945312 263.636719 C 613.019531 263.453125 613.128906 263.292969 613.269531 263.152344 C 613.410156 263.011719 613.570312 262.902344 613.753906 262.828125 C 613.9375 262.753906 614.128906 262.714844 614.324219 262.714844 C 614.523438 262.714844 614.714844 262.753906 614.898438 262.828125 C 615.082031 262.902344 615.242188 263.011719 615.382812 263.152344 C 615.523438 263.292969 615.632812 263.453125 615.707031 263.636719 C 615.78125 263.820312 615.820312 264.011719 615.820312 264.210938 Z M 615.820312 264.210938 " fill-opacity="1" fill-rule="nonzero"/><path stroke-linecap="butt" transform="matrix(0.6859, 0, 0, 0.685986, -8.396244, -10.513596)" fill="none" stroke-linejoin="miter" d="M 894.567451 391.529804 C 894.567451 391.529804 911.031906 378.489721 919.711197 400.492726 " stroke="#231f20" stroke-width="1" stroke-opacity="1" stroke-miterlimit="10"/><path stroke-linecap="butt" transform="matrix(0.6859, 0, 0, 0.685986, -8.396244, -10.513596)" fill-opacity="1" fill="#ffffff" fill-rule="nonzero" stroke-linejoin="miter" d="M 1082.812388 769.760543 L 1072.077176 694.412779 " stroke="#662d91" stroke-width="1" stroke-opacity="1" stroke-miterlimit="10"/><path stroke-linecap="butt" transform="matrix(0.6859, 0, 0, 0.685986, -8.396244, -10.513596)" fill-opacity="1" fill="#ffffff" fill-rule="nonzero" stroke-linejoin="miter" d="M 827.878148 766.178791 L 838.550715 682.950034 " stroke="#662d91" stroke-width="1.5" stroke-opacity="1" stroke-miterlimit="10"/><path fill="#be9e7d" d="M 697.492188 485.253906 L 686.105469 549.023438 C 686.105469 549.023438 611.027344 573.40625 536.003906 605.363281 C 536.003906 605.363281 506.707031 587.816406 485.472656 589.648438 L 470.464844 581.957031 C 470.464844 581.957031 463.875 583.054688 467.898438 589.285156 C 471.925781 595.507812 478.878906 603.566406 478.878906 603.566406 C 478.878906 603.566406 447.398438 613.453125 436.78125 621.140625 C 426.164062 628.832031 440.074219 628.832031 440.074219 628.832031 L 450.691406 628.46875 C 450.691406 628.46875 449.628906 636.160156 458.097656 637.007812 C 458.097656 637.007812 461.488281 643.503906 466.570312 643.785156 C 466.570312 643.785156 468.542969 650 476.453125 650 C 484.359375 650 501.867188 651.695312 501.867188 651.695312 L 524.738281 648.308594 C 524.738281 648.308594 536.679688 642.847656 542.820312 641.824219 C 548.960938 640.800781 710.304688 613.171875 710.304688 613.171875 C 710.304688 613.171875 741.71875 605.921875 752.347656 567.738281 C 762.980469 529.554688 768.785156 498.136719 768.785156 498.136719 " fill-opacity="1" fill-rule="nonzero"/><path fill="#9054a2" d="M 723.289062 388.058594 C 723.289062 388.058594 757.089844 384.621094 773.398438 423.035156 C 789.710938 461.453125 771.464844 504.25 771.464844 504.25 C 771.464844 504.25 716.929688 501.964844 696.042969 484.425781 C 696.042969 484.425781 694.742188 411.011719 723.289062 388.066406 Z M 723.289062 388.058594 " fill-opacity="1" fill-rule="nonzero"/><path stroke-linecap="butt" transform="matrix(0.6859, 0, 0, 0.685986, -8.396244, -10.513596)" fill="none" stroke-linejoin="miter" d="M 710.417271 895.178808 L 741.119409 886.637269 " stroke="#754c29" stroke-width="1" stroke-opacity="1" stroke-miterlimit="10"/><path stroke-linecap="butt" transform="matrix(0.6859, 0, 0, 0.685986, -8.396244, -10.513596)" fill="none" stroke-linejoin="miter" d="M 669.321626 931.46896 L 721.232214 920.137185 " stroke="#754c29" stroke-width="1" stroke-opacity="1" stroke-miterlimit="10"/><path stroke-linecap="butt" transform="matrix(0.6859, 0, 0, 0.685986, -8.396244, -10.513596)" fill="none" stroke-linejoin="miter" d="M 680.119484 943.922524 C 680.119484 943.922524 719.039611 938.142749 727.770158 933.78087 " stroke="#754c29" stroke-width="1" stroke-opacity="1" stroke-miterlimit="10"/><path stroke-linecap="butt" transform="matrix(0.6859, 0, 0, 0.685986, -8.396244, -10.513596)" fill="none" stroke-linejoin="miter" d="M 692.472097 953.802237 C 692.472097 953.802237 722.308583 952.879751 735.959673 947.418861 " stroke="#754c29" stroke-width="1" stroke-opacity="1" stroke-miterlimit="10"/><path stroke-linecap="butt" transform="matrix(0.6859, 0, 0, 0.685986, -8.396244, -10.513596)" fill="none" stroke-linejoin="miter" d="M 1027.02915 721.489458 C 1027.02915 721.489458 1019.517348 659.597466 1052.178591 596.737433 " stroke="#662d91" stroke-width="1.5" stroke-opacity="1" stroke-miterlimit="10"/><path fill="#be8c8c" d="M 652.351562 320.40625 C 652.351562 320.40625 643.1875 314.28125 630.148438 314.117188 C 630.148438 314.117188 620.382812 308.941406 610.410156 308.238281 C 610.410156 308.238281 606.453125 325.316406 621.074219 333.714844 C 635.699219 342.109375 649.726562 330.292969 652.34375 320.40625 Z M 652.351562 320.40625 " fill-opacity="1" fill-rule="nonzero"/><path fill="#803435" d="M 649.476562 320.839844 C 649.476562 320.839844 645.203125 335.722656 625.910156 329.976562 C 608.386719 324.753906 612.183594 311.5 612.183594 311.5 C 612.183594 311.5 631.65625 318.273438 649.476562 320.839844 Z M 649.476562 320.839844 " fill-opacity="1" fill-rule="nonzero"/><path fill="#ffffff" d="M 647.015625 320.335938 C 647.015625 320.335938 640.183594 325.785156 625.472656 320.617188 C 625.472656 320.617188 616.121094 318.339844 613.730469 312.289062 C 613.730469 312.289062 632.84375 318.445312 647.023438 320.34375 Z M 647.015625 320.335938 " fill-opacity="1" fill-rule="nonzero"/><path stroke-linecap="butt" transform="matrix(0.6859, 0, 0, 0.685986, -8.396244, -10.513596)" fill="none" stroke-linejoin="miter" d="M 760.892702 855.039269 L 776.890161 877.059356 C 776.890161 877.059356 777.510924 886.250052 767.669838 884.217166 C 757.828752 882.189974 752.56081 874.160927 752.56081 874.160927 C 752.56081 874.160927 754.12126 870.590564 748.158519 857.522009 C 742.201473 844.44776 697.352774 840.290878 697.352774 840.290878 " stroke="#754c29" stroke-width="1" stroke-opacity="1" stroke-miterlimit="10"/><path fill="#301c12" d="M 568.6875 393.085938 C 558.960938 392.386719 558.21875 381.609375 543.164062 378.742188 C 528.109375 375.875 541.859375 361.65625 541.859375 361.65625 C 518.949219 369.191406 522.332031 355.074219 522.332031 355.074219 C 507.738281 358.710938 510.171875 345.109375 510.171875 345.109375 C 503.585938 343.160156 504.890625 338.769531 509.464844 331.375 C 514.039062 323.980469 504.15625 317.070312 504.15625 317.070312 C 489.148438 308.65625 504.09375 301.144531 504.09375 301.144531 C 483.347656 279.886719 502.792969 284.054688 502.792969 284.054688 C 497.316406 264.9375 511.859375 266.851562 511.859375 266.851562 C 491.625 246.539062 515.425781 244.042969 515.425781 244.042969 C 505.507812 229.175781 527.773438 223.832031 527.773438 223.832031 C 504.066406 193.746094 538.648438 203.191406 538.648438 203.191406 C 536.878906 179.601562 552.402344 188.964844 552.402344 188.964844 C 546.542969 165.75 571.328125 170.703125 571.328125 170.703125 C 578.417969 152.121094 607.746094 163.191406 607.746094 163.191406 C 616.625 133.207031 636.507812 157.386719 636.507812 157.386719 C 642.542969 150.425781 645.664062 164.078125 645.664062 164.078125 C 648.261719 155.304688 658.550781 152.777344 658.550781 152.777344 C 666.1875 143.105469 672.148438 155.214844 672.148438 155.214844 C 700.253906 151.605469 713.589844 181.800781 713.589844 181.800781 C 713.589844 181.800781 735.875 162.945312 752.753906 183.847656 C 752.753906 183.847656 762.398438 183.515625 758.851562 192.8125 C 758.851562 192.8125 781.816406 179.722656 777.460938 207.871094 C 777.460938 207.871094 802.296875 207.265625 788.949219 233.546875 C 788.949219 233.546875 801.816406 235.761719 796.320312 251.636719 C 796.320312 251.636719 811.761719 258.59375 800.636719 272.003906 C 800.636719 272.003906 821.273438 282.882812 810.285156 293.152344 C 810.285156 293.152344 814.136719 307.015625 804.792969 309.027344 C 804.792969 309.027344 814.546875 319.066406 797.617188 325.199219 C 797.617188 325.199219 813.351562 333.835938 800.980469 346.082031 C 800.980469 346.082031 802.199219 360.761719 788.6875 360.742188 C 788.6875 360.742188 796.925781 375.910156 784.65625 377.046875 C 784.65625 377.046875 792.890625 392.214844 771.335938 389.808594 C 771.335938 389.808594 775.292969 392.570312 763.269531 400.941406 C 763.269531 400.941406 755.800781 415.4375 749.378906 418.308594 C 749.378906 418.308594 733.046875 427.796875 739.925781 409.941406 C 739.925781 409.941406 729.5625 431.527344 718.964844 410.894531 C 718.964844 410.894531 721.402344 397.296875 711.433594 409.460938 C 701.46875 421.625 697.730469 418.132812 698.355469 407.972656 C 698.355469 407.972656 684.816406 421.464844 678.046875 406.730469 C 678.046875 406.730469 682.628906 420.8125 665.644531 411.011719 C 665.644531 411.011719 655.046875 402.691406 670.246094 390.824219 C 670.246094 390.824219 663.476562 379.460938 677.53125 375.4375 C 691.585938 371.410156 682.839844 368.039062 682.839844 368.039062 C 682.839844 368.039062 678.273438 362.402344 688.195312 355.207031 C 698.121094 348.011719 688.195312 355.207031 688.195312 355.207031 C 688.195312 355.207031 686.761719 348.859375 698.347656 329.136719 C 709.933594 309.410156 698.347656 329.136719 698.347656 329.136719 C 698.347656 329.136719 709.273438 339.804688 723.925781 317.449219 C 735.324219 300.058594 737.066406 297.714844 729.753906 290.796875 C 723.890625 285.25 708.746094 301.300781 708.746094 301.300781 C 708.746094 301.300781 704.515625 296.109375 711.1875 290.683594 C 717.863281 285.25 716.882812 280.671875 716.882812 280.671875 C 716.882812 280.671875 709.871094 272.75 716.53125 263.421875 C 723.191406 254.089844 717.8125 252.5 717.8125 252.5 C 717.8125 252.5 703.375 248.617188 709.15625 234.347656 C 709.15625 234.347656 698.085938 232.242188 703.339844 219.765625 C 703.339844 219.765625 692.15625 224.640625 685.808594 211.847656 C 679.464844 199.054688 674.527344 210.457031 674.527344 210.457031 C 674.527344 210.457031 672.351562 223.066406 659.265625 217.242188 C 646.179688 211.417969 646.550781 215.421875 646.550781 215.421875 C 646.550781 215.421875 644.375 228.03125 634.511719 223.160156 C 634.511719 223.160156 629.640625 233.023438 621.707031 225.609375 C 613.769531 218.195312 611.871094 228.546875 611.871094 228.546875 C 611.871094 228.546875 603.398438 250.59375 603.332031 262.660156 C 603.269531 274.726562 603.332031 262.660156 603.332031 262.660156 C 603.332031 262.660156 599.996094 270.679688 597.753906 275.253906 C 595.511719 279.828125 587.472656 308.828125 598.804688 330.402344 C 610.394531 352.488281 618.042969 354.320312 618.042969 354.320312 C 618.042969 354.320312 617.652344 372.21875 614.441406 375.167969 " fill-opacity="1" fill-rule="nonzero"/><path stroke-linecap="butt" transform="matrix(0.6859, 0, 0, 0.685986, -8.396244, -10.513596)" fill="none" stroke-linejoin="miter" d="M 938.362561 391.632303 C 938.362561 391.632303 913.469397 367.818492 874.982095 375.448933 C 874.982095 375.448933 869.970431 407.661924 889.350764 412.991845 C 908.731097 418.321765 920.827432 429.727567 938.362561 391.632303 Z M 938.362561 391.632303 " stroke="#a579b5" stroke-width="3" stroke-opacity="1" stroke-miterlimit="10"/></svg>