<svg xmlns="http://www.w3.org/2000/svg" xmlns:xlink="http://www.w3.org/1999/xlink" width="1200" zoomAndPan="magnify" viewBox="0 0 900 675.000002" height="900" preserveAspectRatio="xMidYMid meet" version="1.0"><defs><clipPath id="298b7d1b4a"><path d="M 0.664062 0 L 899.332031 0 L 899.332031 674 L 0.664062 674 Z M 0.664062 0 " clip-rule="nonzero"/></clipPath><clipPath id="d493b0ec98"><path d="M 0.664062 1.753906 L 899.332031 1.753906 L 899.332031 674 L 0.664062 674 Z M 0.664062 1.753906 " clip-rule="nonzero"/></clipPath><clipPath id="5b9f7269b6"><path d="M 120 648 L 461 648 L 461 674 L 120 674 Z M 120 648 " clip-rule="nonzero"/></clipPath><clipPath id="3a78de09cd"><path d="M 138 257 L 483 257 L 483 674 L 138 674 Z M 138 257 " clip-rule="nonzero"/></clipPath><clipPath id="4722754d39"><path d="M 533 409 L 747 409 L 747 674 L 533 674 Z M 533 409 " clip-rule="nonzero"/></clipPath></defs><g clip-path="url(#298b7d1b4a)"><path fill="#ffffff" d="M 0.664062 0 L 899.335938 0 L 899.335938 674 L 0.664062 674 Z M 0.664062 0 " fill-opacity="1" fill-rule="nonzero"/><path fill="#ffffff" d="M 0.664062 0 L 899.335938 0 L 899.335938 674 L 0.664062 674 Z M 0.664062 0 " fill-opacity="1" fill-rule="nonzero"/></g><g clip-path="url(#d493b0ec98)"><path fill="#bde4e0" d="M 0.761719 1.753906 L 899.238281 1.753906 L 899.238281 674.308594 L 0.761719 674.308594 Z M 0.761719 1.753906 " fill-opacity="1" fill-rule="nonzero"/></g><path fill="#be9e7d" d="M 482.898438 424.925781 L 476.765625 549.324219 L 582.113281 565.0625 L 569.226562 641.136719 L 454.484375 617.925781 L 428.738281 482.070312 Z M 482.898438 424.925781 " fill-opacity="1" fill-rule="nonzero"/><path fill="#be9e7d" d="M 276.871094 185.117188 C 276.871094 185.117188 279.804688 230.964844 266.554688 257.703125 C 266.554688 257.703125 250.796875 384.433594 353.964844 391.328125 C 353.964844 391.328125 431.699219 373.308594 388.527344 271.867188 C 388.527344 271.867188 370.199219 263.953125 370.441406 245.953125 C 370.691406 226.894531 372.886719 246.363281 372.886719 246.363281 L 276.871094 185.125 " fill-opacity="1" fill-rule="nonzero"/><g clip-path="url(#5b9f7269b6)"><path fill="#3e3e3e" d="M 157.03125 648.207031 C 157.03125 648.207031 84.070312 791.0625 144.078125 917.589844 L 163.003906 1018.992188 C 163.003906 1018.992188 178.226562 1061.839844 169.792969 1125.882812 C 164.425781 1166.617188 172.113281 1224.832031 180.550781 1279.273438 C 180.550781 1279.273438 206.984375 1308.605469 256.515625 1287.257812 C 256.515625 1287.257812 297.121094 1305.667969 343.90625 1285.445312 L 424.722656 1110.792969 C 424.722656 1110.792969 445.480469 1080.65625 446.621094 1048.449219 C 446.621094 1048.449219 469.929688 822.195312 456.707031 675.441406 C 456.707031 675.441406 328.230469 758.425781 157.03125 648.214844 Z M 157.03125 648.207031 " fill-opacity="1" fill-rule="nonzero"/></g><path fill="#be9e7d" d="M 290.300781 147.890625 C 290.300781 147.890625 310.925781 53.78125 396.855469 61.980469 C 396.855469 61.980469 457.238281 72.820312 438.332031 157.453125 C 438.332031 157.453125 432.59375 170.550781 433.613281 178.222656 C 433.613281 178.222656 435.019531 197.738281 422.792969 213.710938 C 404.484375 237.617188 387.851562 254.128906 387.851562 254.128906 C 387.851562 254.128906 377.410156 265.238281 356.273438 261.765625 C 356.273438 261.765625 341.527344 258.722656 324.796875 243.273438 C 324.796875 243.273438 280.921875 213.144531 288.316406 185.535156 C 288.316406 185.535156 265.003906 195.730469 261.558594 160.914062 C 261.558594 160.914062 261.558594 113.554688 290.308594 147.878906 Z M 290.300781 147.890625 " fill-opacity="1" fill-rule="nonzero"/><path fill="#26130f" d="M 373.207031 132.613281 C 373.207031 132.613281 346.242188 118.046875 331.199219 124.886719 C 331.199219 124.886719 343.953125 111.777344 375.253906 125.898438 C 375.253906 125.898438 380.175781 131.398438 373.207031 132.613281 Z M 373.207031 132.613281 " fill-opacity="1" fill-rule="nonzero"/><path fill="#26130f" d="M 443.589844 138.335938 C 443.179688 136.71875 428.515625 134.234375 414.628906 135.070312 C 414.628906 135.070312 408.074219 138.457031 414.160156 142.074219 C 414.160156 142.074219 439.757812 137.078125 442.457031 145.523438 C 442.457031 145.523438 444.613281 142.324219 443.597656 138.335938 Z M 443.589844 138.335938 " fill-opacity="1" fill-rule="nonzero"/><path stroke-linecap="butt" transform="matrix(0.673319, 0, 0, 0.673408, 0.761465, 1.755669)" fill="none" stroke-linejoin="miter" d="M 590.568212 262.247766 C 590.568212 262.247766 603.261858 291.407967 572.258729 288.878855 " stroke="#231f20" stroke-width="1.5" stroke-opacity="1" stroke-miterlimit="10"/><path stroke-linecap="butt" transform="matrix(0.673319, 0, 0, 0.673408, 0.761465, 1.755669)" fill="none" stroke-linejoin="miter" d="M 394.048753 223.208945 C 394.048753 223.208945 410.42054 196.032589 424.22227 247.131099 C 424.22227 247.131099 408.987573 222.889906 402.32747 240.042624 " stroke="#231f20" stroke-width="1.5" stroke-opacity="1" stroke-miterlimit="10"/><path fill="#26130f" d="M 375.175781 261.078125 C 375.175781 261.078125 361.15625 266.855469 340 254.753906 C 340 254.753906 321.441406 244.503906 307.660156 228.527344 C 307.660156 228.527344 323.996094 255.066406 351.125 263.597656 C 351.125 263.597656 366.320312 268.335938 377.261719 265.457031 C 377.261719 265.457031 375.96875 263.765625 375.175781 261.078125 Z M 375.175781 261.078125 " fill-opacity="1" fill-rule="nonzero"/><path fill="#ffffff" d="M 339.730469 144.640625 C 339.730469 144.640625 339.816406 144.011719 340.355469 143.554688 C 342.15625 142.046875 346.179688 139.328125 351.769531 140.140625 C 358.03125 141.050781 360.625 147.433594 361.492188 149.703125 C 361.640625 150.09375 361.578125 150.410156 361.578125 150.410156 C 361.578125 150.410156 361.554688 150.761719 361.304688 150.976562 C 360.140625 151.992188 356.335938 154.742188 350.390625 153.972656 C 346.855469 153.515625 342.175781 150.894531 339.804688 145.65625 C 339.644531 145.292969 339.683594 144.867188 339.730469 144.640625 Z M 339.730469 144.640625 " fill-opacity="1" fill-rule="nonzero"/><path fill="#26130f" d="M 359.019531 147.628906 C 359.019531 148.058594 358.980469 148.484375 358.894531 148.90625 C 358.8125 149.324219 358.6875 149.734375 358.523438 150.132812 C 358.359375 150.527344 358.15625 150.90625 357.917969 151.261719 C 357.679688 151.617188 357.410156 151.949219 357.105469 152.253906 C 356.800781 152.554688 356.472656 152.828125 356.117188 153.066406 C 355.757812 153.304688 355.382812 153.507812 354.984375 153.671875 C 354.589844 153.835938 354.179688 153.957031 353.757812 154.042969 C 353.335938 154.125 352.914062 154.167969 352.484375 154.167969 C 352.054688 154.167969 351.628906 154.125 351.207031 154.042969 C 350.785156 153.957031 350.378906 153.835938 349.980469 153.671875 C 349.585938 153.507812 349.207031 153.304688 348.851562 153.066406 C 348.492188 152.828125 348.164062 152.554688 347.859375 152.253906 C 347.554688 151.949219 347.285156 151.617188 347.046875 151.261719 C 346.808594 150.90625 346.605469 150.527344 346.441406 150.132812 C 346.277344 149.734375 346.15625 149.324219 346.070312 148.90625 C 345.988281 148.484375 345.945312 148.058594 345.945312 147.628906 C 345.945312 147.199219 345.988281 146.773438 346.070312 146.355469 C 346.15625 145.933594 346.277344 145.523438 346.441406 145.128906 C 346.605469 144.730469 346.808594 144.355469 347.046875 143.996094 C 347.285156 143.640625 347.554688 143.308594 347.859375 143.003906 C 348.164062 142.703125 348.492188 142.429688 348.851562 142.191406 C 349.207031 141.953125 349.585938 141.753906 349.980469 141.589844 C 350.378906 141.425781 350.785156 141.300781 351.207031 141.214844 C 351.628906 141.132812 352.054688 141.089844 352.484375 141.089844 C 352.914062 141.089844 353.335938 141.132812 353.757812 141.214844 C 354.179688 141.300781 354.589844 141.425781 354.984375 141.589844 C 355.382812 141.753906 355.757812 141.953125 356.117188 142.191406 C 356.472656 142.429688 356.800781 142.703125 357.105469 143.003906 C 357.410156 143.308594 357.679688 143.640625 357.917969 143.996094 C 358.15625 144.355469 358.359375 144.730469 358.523438 145.128906 C 358.6875 145.523438 358.8125 145.933594 358.894531 146.355469 C 358.980469 146.773438 359.019531 147.199219 359.019531 147.628906 Z M 359.019531 147.628906 " fill-opacity="1" fill-rule="nonzero"/><path fill="#ffffff" d="M 351.863281 143.03125 C 351.863281 143.269531 351.816406 143.496094 351.726562 143.71875 C 351.636719 143.9375 351.503906 144.132812 351.335938 144.300781 C 351.167969 144.46875 350.972656 144.601562 350.753906 144.691406 C 350.535156 144.78125 350.304688 144.828125 350.066406 144.828125 C 349.828125 144.828125 349.597656 144.78125 349.378906 144.691406 C 349.15625 144.601562 348.964844 144.46875 348.792969 144.300781 C 348.625 144.132812 348.496094 143.9375 348.40625 143.71875 C 348.3125 143.496094 348.269531 143.269531 348.269531 143.03125 C 348.269531 142.792969 348.3125 142.5625 348.40625 142.34375 C 348.496094 142.121094 348.625 141.925781 348.792969 141.757812 C 348.964844 141.589844 349.15625 141.460938 349.378906 141.367188 C 349.597656 141.277344 349.828125 141.230469 350.066406 141.230469 C 350.304688 141.230469 350.535156 141.277344 350.753906 141.367188 C 350.972656 141.460938 351.167969 141.589844 351.335938 141.757812 C 351.503906 141.925781 351.636719 142.121094 351.726562 142.34375 C 351.816406 142.5625 351.863281 142.792969 351.863281 143.03125 Z M 351.863281 143.03125 " fill-opacity="1" fill-rule="nonzero"/><path stroke-linecap="butt" transform="matrix(0.673319, 0, 0, 0.673408, 0.761465, 1.755669)" fill="none" stroke-linejoin="miter" d="M 536.318538 219.798124 C 536.318538 219.798124 528.242873 195.95718 504.010075 210.441569 " stroke="#231f20" stroke-width="1.5" stroke-opacity="1" stroke-miterlimit="10"/><path fill="#ffffff" d="M 411.902344 160.566406 C 411.902344 160.566406 411.898438 159.964844 412.335938 159.46875 C 413.789062 157.8125 417.140625 154.699219 422.460938 154.660156 C 428.414062 154.613281 431.738281 160.175781 432.871094 162.160156 C 433.066406 162.503906 433.050781 162.808594 433.050781 162.808594 C 433.050781 162.808594 433.074219 163.136719 432.878906 163.375 C 431.933594 164.484375 428.789062 167.589844 423.160156 167.71875 C 419.808594 167.796875 415.082031 166.027344 412.132812 161.5 C 411.921875 161.183594 411.910156 160.78125 411.917969 160.566406 Z M 411.902344 160.566406 " fill-opacity="1" fill-rule="nonzero"/><path fill="#26130f" d="M 430.324219 161.507812 C 430.324219 161.910156 430.285156 162.308594 430.207031 162.707031 C 430.128906 163.101562 430.011719 163.484375 429.859375 163.855469 C 429.703125 164.226562 429.515625 164.582031 429.292969 164.917969 C 429.066406 165.25 428.8125 165.5625 428.527344 165.847656 C 428.242188 166.132812 427.933594 166.386719 427.597656 166.609375 C 427.265625 166.832031 426.910156 167.023438 426.539062 167.175781 C 426.167969 167.332031 425.785156 167.445312 425.386719 167.523438 C 424.992188 167.605469 424.59375 167.644531 424.191406 167.644531 C 423.789062 167.644531 423.390625 167.605469 422.996094 167.523438 C 422.601562 167.445312 422.214844 167.332031 421.84375 167.175781 C 421.472656 167.023438 421.117188 166.832031 420.785156 166.609375 C 420.449219 166.386719 420.140625 166.132812 419.855469 165.847656 C 419.570312 165.5625 419.316406 165.25 419.089844 164.917969 C 418.867188 164.582031 418.679688 164.226562 418.523438 163.855469 C 418.371094 163.484375 418.253906 163.101562 418.175781 162.707031 C 418.097656 162.308594 418.058594 161.910156 418.058594 161.507812 C 418.058594 161.105469 418.097656 160.707031 418.175781 160.3125 C 418.253906 159.917969 418.371094 159.53125 418.523438 159.160156 C 418.679688 158.789062 418.867188 158.433594 419.089844 158.101562 C 419.316406 157.765625 419.570312 157.457031 419.855469 157.171875 C 420.140625 156.886719 420.449219 156.632812 420.785156 156.40625 C 421.117188 156.183594 421.472656 155.996094 421.84375 155.839844 C 422.214844 155.6875 422.601562 155.570312 422.996094 155.492188 C 423.390625 155.414062 423.789062 155.375 424.191406 155.375 C 424.59375 155.375 424.992188 155.414062 425.386719 155.492188 C 425.785156 155.570312 426.167969 155.6875 426.539062 155.839844 C 426.910156 155.996094 427.265625 156.183594 427.597656 156.40625 C 427.933594 156.632812 428.242188 156.886719 428.527344 157.171875 C 428.8125 157.457031 429.066406 157.765625 429.292969 158.101562 C 429.515625 158.433594 429.703125 158.789062 429.859375 159.160156 C 430.011719 159.53125 430.128906 159.917969 430.207031 160.3125 C 430.285156 160.707031 430.324219 161.105469 430.324219 161.507812 Z M 430.324219 161.507812 " fill-opacity="1" fill-rule="nonzero"/><path fill="#ffffff" d="M 423.53125 157.5 C 423.53125 157.730469 423.488281 157.949219 423.402344 158.160156 C 423.3125 158.367188 423.191406 158.554688 423.027344 158.714844 C 422.867188 158.875 422.683594 159 422.472656 159.089844 C 422.261719 159.175781 422.042969 159.21875 421.816406 159.21875 C 421.585938 159.21875 421.367188 159.175781 421.15625 159.089844 C 420.949219 159 420.761719 158.875 420.601562 158.714844 C 420.441406 158.554688 420.316406 158.367188 420.230469 158.160156 C 420.140625 157.949219 420.097656 157.730469 420.097656 157.5 C 420.097656 157.273438 420.140625 157.054688 420.230469 156.84375 C 420.316406 156.632812 420.441406 156.449219 420.601562 156.289062 C 420.761719 156.125 420.949219 156.003906 421.15625 155.914062 C 421.367188 155.828125 421.585938 155.785156 421.816406 155.785156 C 422.042969 155.785156 422.261719 155.828125 422.472656 155.914062 C 422.683594 156.003906 422.867188 156.125 423.027344 156.289062 C 423.191406 156.449219 423.3125 156.632812 423.402344 156.84375 C 423.488281 157.054688 423.53125 157.273438 423.53125 157.5 Z M 423.53125 157.5 " fill-opacity="1" fill-rule="nonzero"/><path stroke-linecap="butt" transform="matrix(0.673319, 0, 0, 0.673408, 0.761465, 1.755669)" fill="none" stroke-linejoin="miter" d="M 641.89974 238.511235 C 641.89974 238.511235 631.642717 216.230684 610.977832 234.572549 " stroke="#231f20" stroke-width="1.5" stroke-opacity="1" stroke-miterlimit="10"/><g clip-path="url(#3a78de09cd)"><path fill="#ffffff" d="M 266.554688 257.703125 C 266.554688 257.703125 259.445312 272.019531 220.847656 281.179688 C 150.320312 297.921875 138.933594 410.664062 138.933594 410.664062 C 138.933594 410.664062 137.726562 439.019531 202.304688 453.113281 L 155.953125 647.730469 C 155.953125 647.730469 227.058594 710.738281 345.199219 705.105469 C 345.199219 705.105469 423.914062 702.605469 462.847656 670.710938 C 462.847656 670.710938 450.523438 570.460938 452.34375 497.941406 C 452.34375 497.941406 470.972656 484.238281 471.453125 449.472656 L 482.90625 424.925781 L 476.359375 353.617188 C 476.359375 353.617188 470.496094 305.773438 420.601562 284.34375 C 420.601562 284.34375 398.355469 279.933594 385.03125 271.898438 C 385.03125 271.898438 401.472656 301.503906 390.378906 329.875 C 390.378906 329.875 340.632812 374.277344 283.488281 323.292969 C 283.488281 323.292969 264.035156 307.523438 266.5625 257.703125 Z M 266.554688 257.703125 " fill-opacity="1" fill-rule="nonzero"/></g><path stroke-linecap="butt" transform="matrix(0.673319, 0, 0, 0.673408, 0.761465, 1.755669)" fill-opacity="1" fill="#ffffff" fill-rule="nonzero" stroke-linejoin="miter" d="M 699.050156 664.852282 L 694.142101 580.921718 " stroke="#808285" stroke-width="2" stroke-opacity="1" stroke-miterlimit="10"/><path stroke-linecap="butt" transform="matrix(0.673319, 0, 0, 0.673408, 0.761465, 1.755669)" fill-opacity="1" fill="#ffffff" fill-rule="nonzero" stroke-linejoin="miter" d="M 327.557948 663.622531 L 330.348462 594.071942 " stroke="#808285" stroke-width="2" stroke-opacity="1" stroke-miterlimit="10"/><path fill="#bf6b6b" d="M 342.910156 201.878906 C 342.910156 201.878906 356.019531 202.425781 369.253906 210.585938 C 369.253906 210.585938 382.378906 212.335938 392.863281 218.082031 C 392.863281 218.082031 386.015625 235.359375 365.957031 233.300781 C 345.898438 231.238281 339.273438 212.09375 342.902344 201.878906 Z M 342.910156 201.878906 " fill-opacity="1" fill-rule="nonzero"/><path fill="#803435" d="M 345.527344 204.089844 C 345.527344 204.089844 340.390625 219.671875 363.464844 226.996094 C 384.425781 233.652344 389.003906 219.777344 389.003906 219.777344 C 389.003906 219.777344 365.09375 213.226562 345.527344 204.089844 Z M 345.527344 204.089844 " fill-opacity="1" fill-rule="nonzero"/><path fill="#ffffff" d="M 348.242188 205.164062 C 348.242188 205.164062 351.6875 214.136719 369.789062 219.050781 C 369.789062 219.050781 380.648438 223.03125 386.882812 219.394531 C 386.882812 219.394531 363.726562 212.527344 348.242188 205.164062 Z M 348.242188 205.164062 " fill-opacity="1" fill-rule="nonzero"/><path fill="#3c2415" d="M 407.097656 77.210938 C 407.097656 77.210938 342.101562 168.132812 266.117188 159.488281 C 266.117188 159.488281 264.882812 189.777344 288.308594 185.550781 C 288.308594 185.550781 299.21875 235.636719 274.648438 257.800781 C 274.648438 257.800781 240.894531 276.433594 218.269531 282.203125 C 197.085938 287.605469 182.820312 302.386719 182.820312 302.386719 C 182.820312 302.386719 223.015625 267.382812 230.011719 185.050781 C 237.007812 102.71875 281.636719 63.015625 281.636719 63.015625 C 281.636719 63.015625 340.445312 -5.292969 409.128906 43.957031 C 409.128906 43.957031 448.597656 50.644531 460.808594 90.71875 C 467.871094 113.898438 461.128906 154.371094 455.40625 186.652344 C 455.40625 186.652344 443.609375 261.730469 406.421875 280.027344 C 406.421875 280.027344 376.613281 277.53125 375.335938 257.945312 C 375.335938 257.945312 380.730469 259.96875 390.613281 250.511719 C 404.113281 237.601562 413.976562 225.164062 424.414062 209.730469 C 424.414062 209.730469 435.597656 194.398438 432.917969 172.085938 C 432.917969 172.085938 432.539062 160.484375 436.730469 154.304688 C 436.730469 154.304688 447.839844 107.386719 407.089844 77.21875 " fill-opacity="1" fill-rule="nonzero"/><path stroke-linecap="butt" transform="matrix(0.673319, 0, 0, 0.673408, 0.761465, 1.755669)" fill="none" stroke-linejoin="miter" d="M 420.648556 256.029398 C 420.648556 256.029398 400.262142 279.591908 416.239428 297.771353 C 432.222516 315.950798 427.877204 276.198489 427.877204 276.198489 " stroke="#fbb040" stroke-width="2" stroke-opacity="1" stroke-miterlimit="10"/><path fill="#26130f" d="M 555.375 434.414062 C 542.5625 428.695312 549.105469 417.464844 549.105469 417.464844 C 541.410156 415.839844 546.425781 402.910156 546.425781 402.910156 C 538.128906 396.125 545.792969 386.882812 545.792969 386.882812 C 542.835938 378.441406 552.472656 370.785156 552.472656 370.785156 C 547.132812 359.585938 558.417969 357.085938 558.417969 357.085938 C 553.75 345.828125 567.105469 338.769531 567.105469 338.769531 C 564.140625 328.148438 568.269531 320.714844 568.269531 320.714844 C 563.65625 306.929688 573.210938 299.691406 573.210938 299.691406 C 568.335938 288.492188 576.515625 283.1875 576.515625 283.1875 C 572.4375 272.75 582.105469 267.347656 582.105469 267.347656 C 578.550781 255.90625 590.21875 252.527344 590.21875 252.527344 C 591.417969 240.78125 601.292969 239.683594 601.292969 239.683594 C 605.609375 228.816406 618.4375 228.136719 618.4375 228.136719 C 627.636719 220.59375 636.941406 223.261719 636.941406 223.261719 C 650.199219 216.9375 659.757812 223.5625 659.757812 223.5625 C 672.949219 218.128906 689.527344 227.355469 689.527344 227.355469 C 706.191406 225.015625 719.90625 240.652344 719.90625 240.652344 C 735.640625 241.785156 735.097656 258.34375 735.097656 258.34375 C 747.910156 264.0625 743.109375 277.832031 743.109375 277.832031 C 753.128906 278.472656 754.199219 289.699219 754.199219 289.699219 C 764.421875 291.375 762.277344 304.414062 762.277344 304.414062 C 770.683594 308.324219 765.71875 318.730469 765.71875 318.730469 C 773.542969 326.164062 765.699219 332.117188 765.699219 332.117188 C 771.53125 340.667969 763.914062 345.214844 763.914062 345.214844 C 768.582031 356.472656 762.003906 362.171875 762.003906 362.171875 C 769.058594 367.671875 761.847656 374.929688 761.847656 374.929688 C 770.796875 381.820312 761.140625 389.316406 761.140625 389.316406 C 769.609375 395.046875 765.617188 404.480469 765.617188 404.480469 C 772.851562 408.925781 768.097656 421.113281 768.097656 421.113281 C 774.101562 428.609375 766.757812 440.496094 766.757812 440.496094 C 778.0625 450.003906 769.050781 462.003906 769.050781 462.003906 C 776.289062 473.910156 765.625 481.039062 765.625 481.039062 C 768.222656 491.53125 763.382812 496.460938 763.382812 496.460938 C 763.382812 496.460938 770.265625 519.34375 748.820312 514.886719 " fill-opacity="1" fill-rule="nonzero"/><path fill="#be9e7d" d="M 617.402344 267.28125 C 617.402344 267.28125 603.933594 267.023438 597.058594 297.125 C 597.058594 297.125 597.421875 307.335938 594.871094 312.972656 C 592.320312 318.609375 589.695312 337.542969 590.40625 348.835938 C 591.113281 360.128906 595.6875 379.738281 611.3125 390.910156 C 626.941406 402.089844 656.117188 392.394531 656.117188 392.394531 C 656.117188 392.394531 685.742188 383.511719 694.652344 367.511719 C 694.652344 367.511719 703.066406 380.0625 714.722656 372.898438 C 726.371094 365.726562 741.195312 344.878906 730.867188 336.898438 C 722 330.050781 710.984375 341.542969 708.042969 344.9375 C 707.558594 345.496094 707.289062 345.839844 707.289062 345.839844 C 707.289062 345.839844 682.550781 303.070312 690.867188 278.109375 C 690.867188 278.109375 671.574219 288.828125 652.398438 278.742188 C 652.398438 278.742188 626.847656 284.824219 617.40625 267.289062 Z M 617.402344 267.28125 " fill-opacity="1" fill-rule="nonzero"/><path fill="#59bede" d="M 732.128906 286.042969 C 732.128906 286.042969 731.300781 298.425781 719.75 299.316406 C 708.203125 300.203125 714.238281 284.089844 714.238281 284.089844 C 714.238281 284.089844 697.53125 280.417969 699.84375 274.195312 C 702.152344 267.972656 714.054688 260.628906 716.128906 265.421875 C 718.203125 270.222656 717.3125 278.808594 717.3125 278.808594 C 717.3125 278.808594 730.523438 281.355469 732.128906 286.035156 Z M 732.128906 286.042969 " fill-opacity="1" fill-rule="nonzero"/><path fill="#231f20" d="M 652.171875 303.253906 C 652.171875 303.253906 670.054688 303.429688 683.621094 312.117188 C 683.621094 312.117188 678.632812 301.085938 652.730469 299.09375 C 652.730469 299.09375 647.984375 300.640625 652.171875 303.253906 Z M 652.171875 303.253906 " fill-opacity="1" fill-rule="nonzero"/><path fill="#231f20" d="M 597.664062 294.167969 C 610.238281 293.953125 618.742188 296.902344 618.742188 296.902344 C 623.566406 295.875 619.636719 292.796875 619.636719 292.796875 C 611.832031 290.628906 602.769531 290.285156 597.941406 290.417969 C 597.941406 290.417969 596.980469 294.183594 597.664062 294.167969 Z M 597.664062 294.167969 " fill-opacity="1" fill-rule="nonzero"/><path fill="#be8c8c" d="M 644.199219 359.273438 C 644.199219 359.273438 635.652344 354.734375 624.25 355.746094 C 624.25 355.746094 615.257812 352.097656 606.484375 352.359375 C 606.484375 352.359375 604.539062 367.632812 618.058594 373.664062 C 631.582031 379.707031 642.777344 368.136719 644.191406 359.273438 Z M 644.199219 359.273438 " fill-opacity="1" fill-rule="nonzero"/><path fill="#803435" d="M 641.726562 359.914062 C 641.726562 359.914062 639.316406 373.296875 621.953125 369.980469 C 606.183594 366.972656 608.332031 355.066406 608.332031 355.066406 C 608.332031 355.066406 625.9375 359.253906 641.726562 359.914062 Z M 641.726562 359.914062 " fill-opacity="1" fill-rule="nonzero"/><path fill="#ffffff" d="M 639.539062 359.691406 C 639.539062 359.691406 634.058594 365.058594 620.746094 361.847656 C 620.746094 361.847656 612.382812 360.683594 609.75 355.613281 C 609.75 355.613281 626.996094 359.289062 639.539062 359.691406 Z M 639.539062 359.691406 " fill-opacity="1" fill-rule="nonzero"/><path stroke-linecap="butt" transform="matrix(0.673319, 0, 0, 0.673408, 0.761465, 1.755669)" fill="none" stroke-linejoin="miter" d="M 925.830154 475.01224 C 925.830154 475.01224 907.35823 486.967516 921.850336 499.589875 " stroke="#231f20" stroke-width="1" stroke-opacity="1" stroke-miterlimit="10"/><path fill="#26130f" d="M 618.304688 394.089844 C 618.304688 394.089844 633.3125 396.84375 648.441406 393.375 C 648.441406 393.375 657.8125 392.339844 673.609375 384.761719 C 673.609375 384.761719 664.539062 396.542969 637.101562 397.664062 C 637.101562 397.664062 627.816406 398.367188 616.34375 397.011719 C 616.34375 397.011719 616.855469 395.578125 618.308594 394.082031 Z M 618.304688 394.089844 " fill-opacity="1" fill-rule="nonzero"/><path stroke-linecap="butt" transform="matrix(0.673319, 0, 0, 0.673408, 0.761465, 1.755669)" fill="none" stroke-linejoin="miter" d="M 1080.660151 521.992241 C 1080.660151 521.992241 1075.10233 508.662195 1064.038901 519.06868 C 1052.981273 529.480966 1051.728152 533.408051 1051.728152 533.408051 C 1051.728152 533.408051 1067.937498 516.620778 1069.97962 532.961396 " stroke="#231f20" stroke-width="1" stroke-opacity="1" stroke-miterlimit="10"/><path fill="#f16225" d="M 716.4375 340.0625 C 716.4375 340.0625 707.261719 348.238281 713.765625 354.097656 C 720.261719 359.953125 708.527344 354.945312 708.527344 354.945312 C 708.527344 354.945312 700.742188 349.753906 713.941406 336.230469 L 716.445312 340.0625 Z M 716.4375 340.0625 " fill-opacity="1" fill-rule="nonzero"/><path fill="#ffffff" d="M 713.757812 354.089844 C 713.757812 354.089844 719.847656 343.941406 726.996094 347.613281 C 734.140625 351.28125 723.578125 363.121094 723.578125 363.121094 C 723.578125 363.121094 720.753906 365.8125 716.566406 364.785156 C 716.566406 364.785156 721.980469 358.199219 713.757812 354.089844 Z M 713.757812 354.089844 " fill-opacity="1" fill-rule="nonzero"/><path fill="#1fa8df" d="M 734.640625 343.699219 C 734.640625 343.699219 740.226562 348.292969 739.554688 340.519531 C 738.878906 332.757812 728.148438 330.511719 724.640625 330.433594 C 721.132812 330.351562 715.894531 331.113281 713.941406 336.222656 C 711.988281 341.335938 720.257812 338.015625 720.257812 338.015625 C 720.257812 338.015625 730.429688 332.902344 734.640625 343.699219 Z M 734.640625 343.699219 " fill-opacity="1" fill-rule="nonzero"/><path fill="#ffffff" d="M 670.15625 321.269531 C 670.15625 321.269531 670.269531 320.78125 670.007812 320.304688 C 669.132812 318.703125 666.96875 315.589844 662.679688 314.609375 C 657.875 313.503906 654.191406 317.410156 652.925781 318.816406 C 652.703125 319.058594 652.664062 319.308594 652.664062 319.308594 C 652.664062 319.308594 652.582031 319.570312 652.703125 319.800781 C 653.269531 320.863281 655.253906 323.933594 659.785156 325.050781 C 662.484375 325.710938 666.621094 325.132812 669.820312 321.996094 C 670.039062 321.78125 670.128906 321.457031 670.160156 321.273438 Z M 670.15625 321.269531 " fill-opacity="1" fill-rule="nonzero"/><path fill="#26130f" d="M 665.152344 319.839844 C 665.152344 320.175781 665.121094 320.507812 665.054688 320.835938 C 664.988281 321.164062 664.890625 321.480469 664.765625 321.789062 C 664.636719 322.101562 664.480469 322.394531 664.292969 322.671875 C 664.105469 322.949219 663.894531 323.207031 663.660156 323.445312 C 663.421875 323.679688 663.164062 323.894531 662.886719 324.078125 C 662.609375 324.265625 662.316406 324.421875 662.003906 324.550781 C 661.695312 324.679688 661.378906 324.773438 661.050781 324.839844 C 660.722656 324.90625 660.390625 324.9375 660.054688 324.9375 C 659.71875 324.9375 659.390625 324.90625 659.0625 324.839844 C 658.734375 324.773438 658.414062 324.679688 658.105469 324.550781 C 657.796875 324.421875 657.5 324.265625 657.222656 324.078125 C 656.945312 323.894531 656.6875 323.679688 656.453125 323.445312 C 656.214844 323.207031 656.003906 322.949219 655.816406 322.671875 C 655.632812 322.394531 655.472656 322.101562 655.347656 321.789062 C 655.21875 321.480469 655.121094 321.164062 655.054688 320.835938 C 654.992188 320.507812 654.957031 320.175781 654.957031 319.839844 C 654.957031 319.503906 654.992188 319.171875 655.054688 318.84375 C 655.121094 318.515625 655.21875 318.199219 655.347656 317.890625 C 655.472656 317.578125 655.632812 317.285156 655.816406 317.007812 C 656.003906 316.730469 656.214844 316.472656 656.453125 316.234375 C 656.6875 316 656.945312 315.789062 657.222656 315.601562 C 657.5 315.414062 657.796875 315.257812 658.105469 315.128906 C 658.414062 315.003906 658.734375 314.90625 659.0625 314.839844 C 659.390625 314.773438 659.71875 314.742188 660.054688 314.742188 C 660.390625 314.742188 660.722656 314.773438 661.050781 314.839844 C 661.378906 314.90625 661.695312 315.003906 662.003906 315.128906 C 662.316406 315.257812 662.609375 315.414062 662.886719 315.601562 C 663.164062 315.789062 663.421875 316 663.660156 316.234375 C 663.894531 316.472656 664.105469 316.730469 664.292969 317.007812 C 664.480469 317.285156 664.636719 317.578125 664.765625 317.890625 C 664.890625 318.199219 664.988281 318.515625 665.054688 318.84375 C 665.121094 319.171875 665.152344 319.503906 665.152344 319.839844 Z M 665.152344 319.839844 " fill-opacity="1" fill-rule="nonzero"/><path fill="#ffffff" d="M 664.824219 319.550781 C 664.824219 319.734375 664.785156 319.914062 664.714844 320.085938 C 664.644531 320.257812 664.542969 320.410156 664.414062 320.539062 C 664.28125 320.671875 664.128906 320.773438 663.957031 320.84375 C 663.785156 320.914062 663.609375 320.949219 663.421875 320.953125 C 663.234375 320.949219 663.058594 320.914062 662.886719 320.84375 C 662.714844 320.773438 662.5625 320.671875 662.429688 320.539062 C 662.300781 320.410156 662.199219 320.257812 662.128906 320.085938 C 662.058594 319.914062 662.019531 319.734375 662.019531 319.550781 C 662.019531 319.363281 662.058594 319.1875 662.128906 319.015625 C 662.199219 318.84375 662.300781 318.691406 662.429688 318.558594 C 662.5625 318.429688 662.714844 318.328125 662.886719 318.257812 C 663.058594 318.183594 663.234375 318.148438 663.421875 318.148438 C 663.609375 318.148438 663.785156 318.183594 663.957031 318.257812 C 664.128906 318.328125 664.28125 318.429688 664.414062 318.558594 C 664.542969 318.691406 664.644531 318.84375 664.714844 319.015625 C 664.785156 319.1875 664.824219 319.363281 664.824219 319.550781 Z M 664.824219 319.550781 " fill-opacity="1" fill-rule="nonzero"/><path stroke-linecap="butt" transform="matrix(0.673319, 0, 0, 0.673408, 0.761465, 1.755669)" fill="none" stroke-linejoin="miter" d="M 968.128772 470.731311 C 968.128772 470.731311 980.717992 455.690054 994.24125 473.039996 " stroke="#231f20" stroke-width="1.2" stroke-opacity="1" stroke-miterlimit="10"/><path fill="#ffffff" d="M 617.453125 311.726562 C 617.453125 311.726562 617.628906 311.300781 617.453125 310.824219 C 616.875 309.234375 615.332031 306.074219 611.535156 304.566406 C 607.289062 302.875 603.355469 305.941406 601.996094 307.046875 C 601.757812 307.234375 601.683594 307.457031 601.683594 307.457031 C 601.683594 307.457031 601.578125 307.683594 601.652344 307.90625 C 602.015625 308.964844 603.402344 312.0625 607.402344 313.726562 C 609.777344 314.714844 613.65625 314.761719 617.03125 312.339844 C 617.265625 312.167969 617.386719 311.886719 617.449219 311.726562 Z M 617.453125 311.726562 " fill-opacity="1" fill-rule="nonzero"/><path fill="#26130f" d="M 613.097656 308.984375 C 613.097656 309.292969 613.066406 309.601562 613.007812 309.90625 C 612.945312 310.207031 612.859375 310.503906 612.738281 310.789062 C 612.621094 311.074219 612.476562 311.347656 612.304688 311.605469 C 612.132812 311.859375 611.9375 312.097656 611.71875 312.316406 C 611.5 312.535156 611.261719 312.730469 611.003906 312.902344 C 610.746094 313.074219 610.472656 313.222656 610.1875 313.339844 C 609.902344 313.457031 609.609375 313.546875 609.304688 313.609375 C 609 313.667969 608.695312 313.699219 608.386719 313.699219 C 608.074219 313.699219 607.769531 313.667969 607.464844 313.609375 C 607.160156 313.546875 606.867188 313.457031 606.582031 313.339844 C 606.296875 313.222656 606.023438 313.074219 605.765625 312.902344 C 605.507812 312.730469 605.269531 312.535156 605.050781 312.316406 C 604.832031 312.097656 604.636719 311.859375 604.464844 311.605469 C 604.292969 311.347656 604.148438 311.074219 604.03125 310.789062 C 603.910156 310.503906 603.824219 310.207031 603.761719 309.90625 C 603.703125 309.601562 603.671875 309.292969 603.671875 308.984375 C 603.671875 308.675781 603.703125 308.367188 603.761719 308.066406 C 603.824219 307.761719 603.910156 307.464844 604.03125 307.179688 C 604.148438 306.894531 604.292969 306.625 604.464844 306.367188 C 604.636719 306.109375 604.832031 305.871094 605.050781 305.652344 C 605.269531 305.433594 605.507812 305.238281 605.765625 305.066406 C 606.023438 304.894531 606.296875 304.75 606.582031 304.628906 C 606.867188 304.511719 607.160156 304.421875 607.464844 304.363281 C 607.769531 304.300781 608.074219 304.269531 608.386719 304.269531 C 608.695312 304.269531 609 304.300781 609.304688 304.363281 C 609.609375 304.421875 609.902344 304.511719 610.1875 304.628906 C 610.472656 304.75 610.746094 304.894531 611.003906 305.066406 C 611.261719 305.238281 611.5 305.433594 611.71875 305.652344 C 611.9375 305.871094 612.132812 306.109375 612.304688 306.367188 C 612.476562 306.625 612.621094 306.894531 612.738281 307.179688 C 612.859375 307.464844 612.945312 307.761719 613.007812 308.066406 C 613.066406 308.367188 613.097656 308.675781 613.097656 308.984375 Z M 613.097656 308.984375 " fill-opacity="1" fill-rule="nonzero"/><path fill="#ffffff" d="M 612.949219 309.320312 C 612.949219 309.496094 612.917969 309.664062 612.847656 309.828125 C 612.78125 309.988281 612.6875 310.132812 612.5625 310.253906 C 612.441406 310.378906 612.296875 310.472656 612.136719 310.539062 C 611.972656 310.609375 611.804688 310.640625 611.628906 310.640625 C 611.457031 310.640625 611.285156 310.609375 611.125 310.539062 C 610.964844 310.472656 610.820312 310.378906 610.695312 310.253906 C 610.574219 310.132812 610.476562 309.988281 610.410156 309.828125 C 610.34375 309.664062 610.308594 309.496094 610.308594 309.320312 C 610.308594 309.144531 610.34375 308.976562 610.410156 308.816406 C 610.476562 308.65625 610.574219 308.511719 610.695312 308.386719 C 610.820312 308.265625 610.964844 308.167969 611.125 308.101562 C 611.285156 308.035156 611.457031 308 611.628906 308 C 611.804688 308 611.972656 308.035156 612.136719 308.101562 C 612.296875 308.167969 612.441406 308.265625 612.5625 308.386719 C 612.6875 308.511719 612.78125 308.65625 612.847656 308.816406 C 612.917969 308.976562 612.949219 309.144531 612.949219 309.320312 Z M 612.949219 309.320312 " fill-opacity="1" fill-rule="nonzero"/><path stroke-linecap="butt" transform="matrix(0.673319, 0, 0, 0.673408, 0.761465, 1.755669)" fill="none" stroke-linejoin="miter" d="M 892.738491 453.520586 C 892.738491 453.520586 906.279154 440.422568 915.979235 459.292299 " stroke="#231f20" stroke-width="1.2" stroke-opacity="1" stroke-miterlimit="10"/><path fill="#be9e7d" d="M 452.585938 535.296875 L 504.175781 533.453125 L 539.007812 475.625 L 576.625 505.585938 L 536.917969 579.433594 C 536.917969 579.433594 522.988281 589.183594 510.449219 585.007812 L 456.390625 584.261719 Z M 452.585938 535.296875 " fill-opacity="1" fill-rule="nonzero"/><path fill="#be9e7d" d="M 219.980469 450.144531 L 219.921875 539.1875 C 219.921875 539.1875 306.988281 552.441406 370.441406 569.019531 L 370.332031 619.042969 C 370.332031 619.042969 214.316406 637.117188 156.945312 617.144531 C 156.945312 617.144531 127.730469 607.5 129.628906 544.421875 C 131.992188 466.023438 137.59375 412.164062 137.59375 412.164062 C 137.59375 412.164062 169.160156 459.988281 219.972656 450.144531 Z M 219.980469 450.144531 " fill-opacity="1" fill-rule="nonzero"/><path fill="#be9e7d" d="M 370.441406 569.019531 L 378.609375 570.683594 L 453.398438 548.664062 L 502.316406 560.679688 L 523.863281 590.914062 C 523.863281 590.914062 523.40625 603.917969 507.488281 588.960938 L 505.460938 607.390625 C 505.460938 607.390625 499.503906 620.886719 492.40625 608.300781 L 483.613281 624.4375 C 483.613281 624.4375 476.429688 633.777344 472.730469 621.992188 L 463.15625 640.839844 C 463.15625 640.839844 450.9375 637.667969 454.179688 623.386719 L 412.214844 628.066406 L 370.339844 619.035156 L 370.449219 569.015625 Z M 370.441406 569.019531 " fill-opacity="1" fill-rule="nonzero"/><path stroke-linecap="butt" transform="matrix(0.673319, 0, 0, 0.673408, 0.761465, 1.755669)" fill="none" stroke-linejoin="miter" d="M 672.247301 812.13827 L 744.899282 829.981274 L 776.900266 874.878818 C 776.900266 874.878818 777.89232 884.28758 766.962324 881.86288 C 756.032329 879.43238 752.580446 871.97846 752.580446 871.97846 L 749.569476 899.35204 C 749.569476 899.35204 738.448032 919.561736 730.180918 900.697806 L 716.361783 927.189678 C 716.361783 927.189678 702.971959 932.688757 700.958844 921.040918 L 686.739408 949.029375 " stroke="#754c29" stroke-width="1" stroke-opacity="1" stroke-miterlimit="10"/><path stroke-linecap="butt" transform="matrix(0.673319, 0, 0, 0.673408, 0.761465, 1.755669)" fill="none" stroke-linejoin="miter" d="M 730.180918 900.709408 C 730.180918 900.709408 734.53203 877.367325 715.462553 871.549207 C 696.387275 865.731088 683.69943 860.777277 683.69943 860.777277 " stroke="#754c29" stroke-width="1" stroke-opacity="1" stroke-miterlimit="10"/><path stroke-linecap="butt" transform="matrix(0.673319, 0, 0, 0.673408, 0.761465, 1.755669)" fill="none" stroke-linejoin="miter" d="M 700.958844 921.040918 C 700.958844 921.040918 718.792605 904.439268 699.160384 896.02823 C 679.528163 887.617191 675.519338 891.97933 675.519338 891.97933 " stroke="#754c29" stroke-width="1" stroke-opacity="1" stroke-miterlimit="10"/><path fill="#be9e7d" d="M 690.960938 368.546875 C 690.960938 368.546875 670.140625 406.191406 695.527344 413.140625 C 695.527344 413.140625 690.03125 478.851562 629.332031 480.75 C 629.332031 480.75 571.835938 476.675781 599.289062 418.03125 L 612.714844 409.375 C 616.632812 400.5 615.84375 393.707031 615.84375 393.707031 L 678.875 361.320312 " fill-opacity="1" fill-rule="nonzero"/><path fill="#26130f" d="M 615.84375 393.707031 C 615.84375 393.707031 628.585938 397.128906 645.304688 393.132812 C 645.304688 393.132812 654.320312 393.46875 671.003906 386.769531 C 671.003906 386.769531 654.25 397.261719 634.65625 398.183594 C 634.65625 398.183594 626.1875 399.671875 615.246094 396.890625 C 615.246094 396.890625 614.160156 395.121094 615.839844 393.707031 Z M 615.84375 393.707031 " fill-opacity="1" fill-rule="nonzero"/><g clip-path="url(#4722754d39)"><path fill="#59bede" d="M 622.027344 455.261719 C 622.027344 455.261719 579.582031 454.664062 612.714844 409.375 L 573.433594 427.011719 C 573.433594 427.011719 561.839844 430.375 553.21875 452.636719 L 533.625 482.832031 L 565.496094 531.835938 L 557.617188 598.996094 L 553.578125 675.050781 L 743.6875 675.050781 L 746.460938 659.917969 C 721.1875 567.769531 725.75 531.40625 725.75 531.40625 L 740.785156 510.0625 C 740.785156 510.0625 758.191406 442.15625 725.476562 425.53125 C 687.601562 406.285156 689.195312 409.296875 689.195312 409.296875 C 689.195312 409.296875 665.90625 456.332031 622.027344 455.261719 Z M 622.027344 455.261719 " fill-opacity="1" fill-rule="nonzero"/></g><path fill="#0f3e5d" d="M 613.226562 408.972656 C 583.285156 456.386719 622.375 454.488281 622.375 454.488281 C 661.589844 457.222656 689.191406 409.296875 689.191406 409.296875 L 694.738281 410.757812 C 694.738281 410.757812 678.058594 444.199219 650.890625 454.609375 C 627.007812 463.761719 612.15625 458.648438 612.15625 458.648438 C 612.15625 458.648438 586.609375 450.449219 600.15625 425.492188 L 608 411.941406 Z M 613.226562 408.972656 " fill-opacity="1" fill-rule="nonzero"/><path stroke-linecap="butt" transform="matrix(0.673319, 0, 0, 0.673408, 0.761465, 1.755669)" fill-opacity="1" fill="#ffffff" fill-rule="nonzero" stroke-linejoin="miter" d="M 1061.869146 790.292773 L 1052.482345 724.332828 " stroke="#662d91" stroke-width="1" stroke-opacity="1" stroke-miterlimit="10"/><path stroke-linecap="butt" transform="matrix(0.673319, 0, 0, 0.673408, 0.761465, 1.755669)" fill-opacity="1" fill="#ffffff" fill-rule="nonzero" stroke-linejoin="miter" d="M 838.738281 787.160386 L 848.07867 714.297588 " stroke="#2e3192" stroke-width="1.5" stroke-opacity="1" stroke-miterlimit="10"/><path fill="#be9e7d" d="M 684.105469 506.207031 L 674.324219 561 C 674.324219 561 609.8125 581.949219 545.347656 609.414062 C 545.347656 609.414062 520.179688 594.335938 501.933594 595.910156 L 489.03125 589.304688 C 489.03125 589.304688 483.371094 590.246094 486.832031 595.59375 C 490.292969 600.941406 496.269531 607.863281 496.269531 607.863281 C 496.269531 607.863281 469.214844 616.355469 460.09375 622.96875 C 450.96875 629.582031 462.921875 629.574219 462.921875 629.574219 L 472.042969 629.257812 C 472.042969 629.257812 471.128906 635.863281 478.40625 636.589844 C 478.40625 636.589844 481.316406 642.171875 485.6875 642.417969 C 485.6875 642.417969 487.382812 647.757812 494.175781 647.757812 C 500.96875 647.757812 516.011719 649.210938 516.011719 649.210938 L 535.667969 646.300781 C 535.667969 646.300781 545.929688 641.613281 551.199219 640.734375 C 556.472656 639.851562 695.109375 616.113281 695.109375 616.113281 C 695.109375 616.113281 722.101562 609.882812 731.230469 577.074219 C 740.367188 544.265625 745.351562 517.269531 745.351562 517.269531 " fill-opacity="1" fill-rule="nonzero"/><path stroke-linecap="butt" transform="matrix(0.673319, 0, 0, 0.673408, 0.761465, 1.755669)" fill="none" stroke-linejoin="miter" d="M 826.450738 894.40983 L 808.808426 902.362612 C 808.808426 902.362612 768.261857 879.10754 744.330736 882.309536 L 725.168436 872.500524 C 725.168436 872.500524 717.342234 873.730276 721.9022 881.839678 C 726.462167 889.949079 735.918585 900.059727 735.918585 900.059727 C 735.918585 900.059727 680.72907 915.860879 677.09154 927.601528 C 677.09154 927.601528 672.618596 934.040324 699.949386 931.830251 " stroke="#754c29" stroke-width="1" stroke-opacity="1" stroke-miterlimit="10"/><path fill="#59bede" d="M 706.277344 422.691406 C 706.277344 422.691406 735.324219 419.738281 749.335938 452.742188 C 763.347656 485.746094 747.675781 522.523438 747.675781 522.523438 C 747.675781 522.523438 700.816406 520.5625 682.867188 505.484375 C 682.867188 505.484375 681.742188 442.398438 706.277344 422.683594 Z M 706.277344 422.691406 " fill-opacity="1" fill-rule="nonzero"/><path stroke-linecap="butt" transform="matrix(0.673319, 0, 0, 0.673408, 0.761465, 1.755669)" fill="none" stroke-linejoin="miter" d="M 735.918585 900.059727 L 762.80266 892.588405 " stroke="#754c29" stroke-width="1" stroke-opacity="1" stroke-miterlimit="10"/><path stroke-linecap="butt" transform="matrix(0.673319, 0, 0, 0.673408, 0.761465, 1.755669)" fill="none" stroke-linejoin="miter" d="M 699.949386 931.830251 L 745.380805 921.911026 " stroke="#754c29" stroke-width="1" stroke-opacity="1" stroke-miterlimit="10"/><path stroke-linecap="butt" transform="matrix(0.673319, 0, 0, 0.673408, 0.761465, 1.755669)" fill="none" stroke-linejoin="miter" d="M 709.400003 942.729797 C 709.400003 942.729797 743.472117 937.671572 751.112671 933.8489 " stroke="#754c29" stroke-width="1" stroke-opacity="1" stroke-miterlimit="10"/><path stroke-linecap="butt" transform="matrix(0.673319, 0, 0, 0.673408, 0.761465, 1.755669)" fill="none" stroke-linejoin="miter" d="M 720.208167 951.378665 C 720.208167 951.378665 746.332248 950.572365 758.271702 945.798376 " stroke="#754c29" stroke-width="1" stroke-opacity="1" stroke-miterlimit="10"/><path stroke-linecap="butt" transform="matrix(0.673319, 0, 0, 0.673408, 0.761465, 1.755669)" fill="none" stroke-linejoin="miter" d="M 1013.04966 748.040355 C 1013.04966 748.040355 1006.470778 693.867465 1035.06049 638.847671 " stroke="#2e3192" stroke-width="1.5" stroke-opacity="1" stroke-miterlimit="10"/><path stroke-linecap="butt" transform="matrix(0.673319, 0, 0, 0.673408, 0.761465, 1.755669)" fill="none" stroke-linejoin="miter" d="M 760.888171 852.8709 L 776.888663 874.890419 C 776.888663 874.890419 777.509422 884.078754 767.670105 882.048503 C 757.830789 880.018253 752.55724 871.990061 752.55724 871.990061 C 752.55724 871.990061 754.117839 868.422621 748.159716 855.347806 C 742.201592 842.278792 697.350321 838.119679 697.350321 838.119679 " stroke="#754c29" stroke-width="1" stroke-opacity="1" stroke-miterlimit="10"/><path fill="#0f3e5d" d="M 619.257812 469.707031 C 619.257812 470.160156 619.214844 470.609375 619.125 471.054688 C 619.039062 471.5 618.90625 471.933594 618.734375 472.351562 C 618.558594 472.769531 618.347656 473.167969 618.09375 473.546875 C 617.84375 473.921875 617.554688 474.273438 617.234375 474.59375 C 616.914062 474.914062 616.566406 475.199219 616.1875 475.453125 C 615.8125 475.703125 615.414062 475.917969 614.996094 476.089844 C 614.574219 476.265625 614.144531 476.394531 613.699219 476.484375 C 613.253906 476.570312 612.804688 476.617188 612.351562 476.617188 C 611.898438 476.617188 611.449219 476.570312 611.003906 476.484375 C 610.558594 476.394531 610.125 476.265625 609.707031 476.089844 C 609.289062 475.917969 608.890625 475.703125 608.511719 475.453125 C 608.136719 475.199219 607.785156 474.914062 607.464844 474.59375 C 607.144531 474.273438 606.859375 473.921875 606.605469 473.546875 C 606.355469 473.167969 606.140625 472.769531 605.96875 472.351562 C 605.792969 471.933594 605.664062 471.5 605.574219 471.054688 C 605.488281 470.609375 605.441406 470.160156 605.441406 469.707031 C 605.441406 469.253906 605.488281 468.804688 605.574219 468.359375 C 605.664062 467.914062 605.792969 467.480469 605.96875 467.0625 C 606.140625 466.644531 606.355469 466.246094 606.605469 465.867188 C 606.859375 465.492188 607.144531 465.140625 607.464844 464.820312 C 607.785156 464.5 608.136719 464.214844 608.511719 463.960938 C 608.890625 463.710938 609.289062 463.496094 609.707031 463.324219 C 610.125 463.148438 610.558594 463.019531 611.003906 462.929688 C 611.449219 462.84375 611.898438 462.796875 612.351562 462.796875 C 612.804688 462.796875 613.253906 462.84375 613.699219 462.929688 C 614.144531 463.019531 614.574219 463.148438 614.996094 463.324219 C 615.414062 463.496094 615.8125 463.710938 616.1875 463.960938 C 616.566406 464.214844 616.914062 464.5 617.234375 464.820312 C 617.554688 465.140625 617.84375 465.492188 618.09375 465.867188 C 618.347656 466.246094 618.558594 466.644531 618.734375 467.0625 C 618.90625 467.480469 619.039062 467.914062 619.125 468.359375 C 619.214844 468.804688 619.257812 469.253906 619.257812 469.707031 Z M 619.257812 469.707031 " fill-opacity="1" fill-rule="nonzero"/><path fill="#0f3e5d" d="M 632.949219 471.605469 C 632.949219 472.058594 632.902344 472.507812 632.816406 472.953125 C 632.726562 473.398438 632.59375 473.832031 632.421875 474.25 C 632.25 474.667969 632.035156 475.066406 631.785156 475.445312 C 631.53125 475.820312 631.246094 476.171875 630.925781 476.492188 C 630.601562 476.8125 630.253906 477.097656 629.878906 477.351562 C 629.5 477.601562 629.101562 477.816406 628.683594 477.988281 C 628.265625 478.164062 627.832031 478.292969 627.386719 478.382812 C 626.941406 478.472656 626.492188 478.515625 626.039062 478.515625 C 625.585938 478.515625 625.136719 478.472656 624.691406 478.382812 C 624.246094 478.292969 623.816406 478.164062 623.394531 477.988281 C 622.976562 477.816406 622.578125 477.601562 622.199219 477.351562 C 621.824219 477.097656 621.476562 476.8125 621.15625 476.492188 C 620.832031 476.171875 620.546875 475.820312 620.296875 475.445312 C 620.042969 475.066406 619.832031 474.667969 619.65625 474.25 C 619.484375 473.832031 619.351562 473.398438 619.265625 472.953125 C 619.175781 472.507812 619.132812 472.058594 619.132812 471.605469 C 619.132812 471.152344 619.175781 470.703125 619.265625 470.257812 C 619.351562 469.8125 619.484375 469.382812 619.65625 468.960938 C 619.832031 468.542969 620.042969 468.144531 620.296875 467.765625 C 620.546875 467.390625 620.832031 467.042969 621.15625 466.71875 C 621.476562 466.398438 621.824219 466.113281 622.199219 465.859375 C 622.578125 465.609375 622.976562 465.394531 623.394531 465.222656 C 623.816406 465.050781 624.246094 464.917969 624.691406 464.828125 C 625.136719 464.742188 625.585938 464.695312 626.039062 464.695312 C 626.492188 464.695312 626.941406 464.742188 627.386719 464.828125 C 627.832031 464.917969 628.265625 465.050781 628.683594 465.222656 C 629.101562 465.394531 629.5 465.609375 629.878906 465.859375 C 630.253906 466.113281 630.601562 466.398438 630.925781 466.71875 C 631.246094 467.042969 631.53125 467.390625 631.785156 467.765625 C 632.035156 468.144531 632.25 468.542969 632.421875 468.960938 C 632.59375 469.382812 632.726562 469.8125 632.816406 470.257812 C 632.902344 470.703125 632.949219 471.152344 632.949219 471.605469 Z M 632.949219 471.605469 " fill-opacity="1" fill-rule="nonzero"/><path fill="#0f3e5d" d="M 647.066406 469.984375 C 647.066406 470.4375 647.023438 470.886719 646.933594 471.332031 C 646.847656 471.777344 646.714844 472.207031 646.542969 472.628906 C 646.367188 473.046875 646.15625 473.445312 645.902344 473.820312 C 645.652344 474.199219 645.363281 474.546875 645.042969 474.867188 C 644.722656 475.1875 644.375 475.476562 643.996094 475.726562 C 643.621094 475.980469 643.222656 476.191406 642.800781 476.367188 C 642.382812 476.539062 641.953125 476.671875 641.507812 476.757812 C 641.0625 476.847656 640.613281 476.890625 640.160156 476.890625 C 639.707031 476.890625 639.253906 476.847656 638.8125 476.757812 C 638.367188 476.671875 637.933594 476.539062 637.515625 476.367188 C 637.097656 476.191406 636.699219 475.980469 636.320312 475.726562 C 635.945312 475.476562 635.59375 475.1875 635.273438 474.867188 C 634.953125 474.546875 634.667969 474.199219 634.414062 473.820312 C 634.164062 473.445312 633.949219 473.046875 633.777344 472.628906 C 633.601562 472.207031 633.472656 471.777344 633.382812 471.332031 C 633.292969 470.886719 633.25 470.4375 633.25 469.984375 C 633.25 469.53125 633.292969 469.082031 633.382812 468.636719 C 633.472656 468.191406 633.601562 467.757812 633.777344 467.339844 C 633.949219 466.917969 634.164062 466.523438 634.414062 466.144531 C 634.667969 465.765625 634.953125 465.417969 635.273438 465.097656 C 635.59375 464.777344 635.945312 464.492188 636.320312 464.238281 C 636.699219 463.984375 637.097656 463.773438 637.515625 463.601562 C 637.933594 463.425781 638.367188 463.296875 638.8125 463.207031 C 639.253906 463.117188 639.707031 463.074219 640.160156 463.074219 C 640.613281 463.074219 641.0625 463.117188 641.507812 463.207031 C 641.953125 463.296875 642.382812 463.425781 642.800781 463.601562 C 643.222656 463.773438 643.621094 463.984375 643.996094 464.238281 C 644.375 464.492188 644.722656 464.777344 645.042969 465.097656 C 645.363281 465.417969 645.652344 465.765625 645.902344 466.144531 C 646.15625 466.523438 646.367188 466.917969 646.542969 467.339844 C 646.714844 467.757812 646.847656 468.191406 646.933594 468.636719 C 647.023438 469.082031 647.066406 469.53125 647.066406 469.984375 Z M 647.066406 469.984375 " fill-opacity="1" fill-rule="nonzero"/><path fill="#0f3e5d" d="M 660.84375 466.105469 C 660.84375 466.558594 660.800781 467.007812 660.710938 467.453125 C 660.621094 467.898438 660.492188 468.328125 660.316406 468.75 C 660.144531 469.167969 659.929688 469.566406 659.679688 469.941406 C 659.425781 470.320312 659.140625 470.667969 658.820312 470.988281 C 658.5 471.3125 658.148438 471.597656 657.773438 471.847656 C 657.394531 472.101562 656.996094 472.3125 656.578125 472.488281 C 656.160156 472.660156 655.726562 472.792969 655.28125 472.878906 C 654.835938 472.96875 654.386719 473.011719 653.933594 473.011719 C 653.480469 473.011719 653.03125 472.96875 652.585938 472.878906 C 652.140625 472.792969 651.710938 472.660156 651.292969 472.488281 C 650.871094 472.3125 650.472656 472.101562 650.097656 471.847656 C 649.71875 471.597656 649.371094 471.3125 649.050781 470.988281 C 648.730469 470.667969 648.441406 470.320312 648.191406 469.941406 C 647.9375 469.566406 647.726562 469.167969 647.550781 468.75 C 647.378906 468.328125 647.246094 467.898438 647.160156 467.453125 C 647.070312 467.007812 647.027344 466.558594 647.027344 466.105469 C 647.027344 465.652344 647.070312 465.203125 647.160156 464.757812 C 647.246094 464.3125 647.378906 463.878906 647.550781 463.460938 C 647.726562 463.042969 647.9375 462.644531 648.191406 462.265625 C 648.441406 461.886719 648.730469 461.539062 649.050781 461.21875 C 649.371094 460.898438 649.71875 460.613281 650.097656 460.359375 C 650.472656 460.109375 650.871094 459.894531 651.292969 459.722656 C 651.710938 459.546875 652.140625 459.417969 652.585938 459.328125 C 653.03125 459.238281 653.480469 459.195312 653.933594 459.195312 C 654.386719 459.195312 654.835938 459.238281 655.28125 459.328125 C 655.726562 459.417969 656.160156 459.546875 656.578125 459.722656 C 656.996094 459.894531 657.394531 460.109375 657.773438 460.359375 C 658.148438 460.613281 658.5 460.898438 658.820312 461.21875 C 659.140625 461.539062 659.425781 461.886719 659.679688 462.265625 C 659.929688 462.644531 660.144531 463.042969 660.316406 463.460938 C 660.492188 463.878906 660.621094 464.3125 660.710938 464.757812 C 660.800781 465.203125 660.84375 465.652344 660.84375 466.105469 Z M 660.84375 466.105469 " fill-opacity="1" fill-rule="nonzero"/><path fill="#0f3e5d" d="M 672.578125 458.414062 C 672.578125 458.867188 672.535156 459.316406 672.445312 459.761719 C 672.359375 460.207031 672.226562 460.640625 672.054688 461.058594 C 671.878906 461.476562 671.667969 461.875 671.414062 462.253906 C 671.164062 462.628906 670.875 462.980469 670.554688 463.300781 C 670.234375 463.621094 669.886719 463.90625 669.507812 464.160156 C 669.132812 464.410156 668.734375 464.625 668.3125 464.796875 C 667.894531 464.972656 667.464844 465.101562 667.019531 465.191406 C 666.574219 465.277344 666.125 465.324219 665.671875 465.324219 C 665.21875 465.324219 664.769531 465.277344 664.324219 465.191406 C 663.878906 465.101562 663.445312 464.972656 663.027344 464.796875 C 662.609375 464.625 662.210938 464.410156 661.832031 464.160156 C 661.457031 463.90625 661.105469 463.621094 660.785156 463.300781 C 660.464844 462.980469 660.179688 462.628906 659.925781 462.253906 C 659.675781 461.875 659.460938 461.476562 659.289062 461.058594 C 659.113281 460.640625 658.984375 460.207031 658.894531 459.761719 C 658.808594 459.316406 658.761719 458.867188 658.761719 458.414062 C 658.761719 457.960938 658.808594 457.511719 658.894531 457.066406 C 658.984375 456.621094 659.113281 456.1875 659.289062 455.769531 C 659.460938 455.351562 659.675781 454.953125 659.925781 454.574219 C 660.179688 454.199219 660.464844 453.847656 660.785156 453.527344 C 661.105469 453.207031 661.457031 452.921875 661.832031 452.667969 C 662.210938 452.417969 662.609375 452.203125 663.027344 452.03125 C 663.445312 451.855469 663.878906 451.726562 664.324219 451.636719 C 664.769531 451.550781 665.21875 451.503906 665.671875 451.503906 C 666.125 451.503906 666.574219 451.550781 667.019531 451.636719 C 667.464844 451.726562 667.894531 451.855469 668.3125 452.03125 C 668.734375 452.203125 669.132812 452.417969 669.507812 452.667969 C 669.886719 452.921875 670.234375 453.207031 670.554688 453.527344 C 670.875 453.847656 671.164062 454.199219 671.414062 454.574219 C 671.667969 454.953125 671.878906 455.351562 672.054688 455.769531 C 672.226562 456.1875 672.359375 456.621094 672.445312 457.066406 C 672.535156 457.511719 672.578125 457.960938 672.578125 458.414062 Z M 672.578125 458.414062 " fill-opacity="1" fill-rule="nonzero"/><path fill="#0f3e5d" d="M 683.359375 449.96875 C 683.359375 450.421875 683.316406 450.871094 683.226562 451.316406 C 683.136719 451.761719 683.007812 452.195312 682.832031 452.613281 C 682.660156 453.03125 682.445312 453.429688 682.195312 453.808594 C 681.941406 454.183594 681.65625 454.535156 681.335938 454.855469 C 681.015625 455.175781 680.664062 455.460938 680.289062 455.714844 C 679.910156 455.964844 679.511719 456.179688 679.09375 456.351562 C 678.675781 456.527344 678.242188 456.65625 677.796875 456.746094 C 677.351562 456.835938 676.902344 456.878906 676.449219 456.878906 C 675.996094 456.878906 675.546875 456.835938 675.101562 456.746094 C 674.65625 456.65625 674.226562 456.527344 673.808594 456.351562 C 673.386719 456.179688 672.988281 455.964844 672.613281 455.714844 C 672.234375 455.460938 671.886719 455.175781 671.566406 454.855469 C 671.246094 454.535156 670.957031 454.183594 670.707031 453.808594 C 670.453125 453.429688 670.242188 453.03125 670.066406 452.613281 C 669.894531 452.195312 669.761719 451.761719 669.675781 451.316406 C 669.585938 450.871094 669.542969 450.421875 669.542969 449.96875 C 669.542969 449.515625 669.585938 449.066406 669.675781 448.621094 C 669.761719 448.175781 669.894531 447.746094 670.066406 447.324219 C 670.242188 446.90625 670.453125 446.507812 670.707031 446.132812 C 670.957031 445.753906 671.246094 445.40625 671.566406 445.082031 C 671.886719 444.761719 672.234375 444.476562 672.613281 444.222656 C 672.988281 443.972656 673.386719 443.757812 673.808594 443.585938 C 674.226562 443.414062 674.65625 443.28125 675.101562 443.191406 C 675.546875 443.105469 675.996094 443.058594 676.449219 443.058594 C 676.902344 443.058594 677.355469 443.105469 677.796875 443.191406 C 678.242188 443.28125 678.675781 443.414062 679.09375 443.585938 C 679.511719 443.757812 679.910156 443.972656 680.289062 444.222656 C 680.664062 444.476562 681.015625 444.761719 681.335938 445.082031 C 681.65625 445.40625 681.941406 445.753906 682.195312 446.132812 C 682.445312 446.507812 682.660156 446.90625 682.832031 447.324219 C 683.007812 447.746094 683.136719 448.175781 683.226562 448.621094 C 683.316406 449.066406 683.359375 449.515625 683.359375 449.96875 Z M 683.359375 449.96875 " fill-opacity="1" fill-rule="nonzero"/><path fill="#0f3e5d" d="M 606.585938 464.03125 C 606.585938 464.484375 606.542969 464.933594 606.453125 465.378906 C 606.367188 465.824219 606.234375 466.253906 606.0625 466.675781 C 605.886719 467.09375 605.675781 467.492188 605.421875 467.867188 C 605.171875 468.246094 604.882812 468.59375 604.5625 468.914062 C 604.242188 469.238281 603.894531 469.523438 603.515625 469.773438 C 603.140625 470.027344 602.742188 470.238281 602.324219 470.414062 C 601.902344 470.585938 601.472656 470.71875 601.027344 470.804688 C 600.582031 470.894531 600.132812 470.9375 599.679688 470.9375 C 599.226562 470.9375 598.777344 470.894531 598.332031 470.804688 C 597.886719 470.71875 597.453125 470.585938 597.035156 470.414062 C 596.617188 470.238281 596.21875 470.027344 595.839844 469.773438 C 595.464844 469.523438 595.113281 469.238281 594.792969 468.914062 C 594.472656 468.59375 594.1875 468.246094 593.933594 467.867188 C 593.683594 467.492188 593.46875 467.09375 593.296875 466.675781 C 593.121094 466.253906 592.992188 465.824219 592.902344 465.378906 C 592.816406 464.933594 592.769531 464.484375 592.769531 464.03125 C 592.769531 463.578125 592.816406 463.128906 592.902344 462.683594 C 592.992188 462.238281 593.121094 461.804688 593.296875 461.386719 C 593.46875 460.96875 593.683594 460.570312 593.933594 460.191406 C 594.1875 459.8125 594.472656 459.464844 594.792969 459.144531 C 595.113281 458.824219 595.464844 458.539062 595.839844 458.285156 C 596.21875 458.035156 596.617188 457.820312 597.035156 457.648438 C 597.453125 457.472656 597.886719 457.34375 598.332031 457.253906 C 598.777344 457.164062 599.226562 457.121094 599.679688 457.121094 C 600.132812 457.121094 600.582031 457.164062 601.027344 457.253906 C 601.472656 457.34375 601.902344 457.472656 602.324219 457.648438 C 602.742188 457.820312 603.140625 458.035156 603.515625 458.285156 C 603.894531 458.539062 604.242188 458.824219 604.5625 459.144531 C 604.882812 459.464844 605.171875 459.8125 605.421875 460.191406 C 605.675781 460.570312 605.886719 460.96875 606.0625 461.386719 C 606.234375 461.804688 606.367188 462.238281 606.453125 462.683594 C 606.542969 463.128906 606.585938 463.578125 606.585938 464.03125 Z M 606.585938 464.03125 " fill-opacity="1" fill-rule="nonzero"/><path fill="#0f3e5d" d="M 595.296875 456.449219 C 595.296875 456.902344 595.25 457.351562 595.164062 457.796875 C 595.074219 458.242188 594.941406 458.671875 594.769531 459.089844 C 594.597656 459.511719 594.382812 459.910156 594.132812 460.285156 C 593.878906 460.664062 593.59375 461.011719 593.273438 461.332031 C 592.953125 461.652344 592.601562 461.941406 592.226562 462.191406 C 591.847656 462.445312 591.449219 462.65625 591.03125 462.832031 C 590.613281 463.003906 590.179688 463.136719 589.734375 463.222656 C 589.289062 463.3125 588.839844 463.355469 588.386719 463.355469 C 587.933594 463.355469 587.484375 463.3125 587.039062 463.222656 C 586.59375 463.136719 586.164062 463.003906 585.742188 462.832031 C 585.324219 462.65625 584.925781 462.445312 584.550781 462.191406 C 584.171875 461.941406 583.824219 461.652344 583.503906 461.332031 C 583.179688 461.011719 582.894531 460.664062 582.644531 460.285156 C 582.390625 459.910156 582.179688 459.511719 582.003906 459.089844 C 581.832031 458.671875 581.699219 458.242188 581.613281 457.796875 C 581.523438 457.351562 581.480469 456.902344 581.480469 456.449219 C 581.480469 455.992188 581.523438 455.542969 581.613281 455.101562 C 581.699219 454.65625 581.832031 454.222656 582.003906 453.804688 C 582.179688 453.382812 582.390625 452.984375 582.644531 452.609375 C 582.894531 452.230469 583.179688 451.882812 583.503906 451.5625 C 583.824219 451.242188 584.171875 450.953125 584.550781 450.703125 C 584.925781 450.449219 585.324219 450.238281 585.742188 450.0625 C 586.164062 449.890625 586.59375 449.757812 587.039062 449.671875 C 587.484375 449.582031 587.933594 449.539062 588.386719 449.539062 C 588.839844 449.539062 589.289062 449.582031 589.734375 449.671875 C 590.179688 449.757812 590.613281 449.890625 591.03125 450.0625 C 591.449219 450.238281 591.847656 450.449219 592.226562 450.703125 C 592.601562 450.953125 592.953125 451.242188 593.273438 451.5625 C 593.59375 451.882812 593.878906 452.230469 594.132812 452.609375 C 594.382812 452.984375 594.597656 453.382812 594.769531 453.804688 C 594.941406 454.222656 595.074219 454.65625 595.164062 455.101562 C 595.25 455.542969 595.296875 455.992188 595.296875 456.449219 Z M 595.296875 456.449219 " fill-opacity="1" fill-rule="nonzero"/><path fill="#0f3e5d" d="M 589.789062 443.613281 C 589.789062 444.066406 589.742188 444.515625 589.65625 444.960938 C 589.566406 445.40625 589.433594 445.835938 589.261719 446.257812 C 589.089844 446.675781 588.875 447.074219 588.625 447.449219 C 588.371094 447.828125 588.085938 448.175781 587.765625 448.496094 C 587.445312 448.820312 587.09375 449.105469 586.71875 449.355469 C 586.339844 449.609375 585.941406 449.820312 585.523438 449.996094 C 585.105469 450.167969 584.671875 450.300781 584.226562 450.390625 C 583.78125 450.476562 583.332031 450.523438 582.878906 450.523438 C 582.425781 450.523438 581.976562 450.476562 581.53125 450.390625 C 581.085938 450.300781 580.65625 450.167969 580.234375 449.996094 C 579.816406 449.820312 579.417969 449.609375 579.042969 449.355469 C 578.664062 449.105469 578.316406 448.820312 577.996094 448.496094 C 577.675781 448.175781 577.386719 447.828125 577.136719 447.449219 C 576.882812 447.074219 576.671875 446.675781 576.496094 446.257812 C 576.324219 445.835938 576.191406 445.40625 576.105469 444.960938 C 576.015625 444.515625 575.972656 444.066406 575.972656 443.613281 C 575.972656 443.160156 576.015625 442.710938 576.105469 442.265625 C 576.191406 441.820312 576.324219 441.386719 576.496094 440.96875 C 576.671875 440.550781 576.882812 440.152344 577.136719 439.773438 C 577.386719 439.398438 577.675781 439.046875 577.996094 438.726562 C 578.316406 438.40625 578.664062 438.121094 579.042969 437.867188 C 579.417969 437.617188 579.816406 437.402344 580.234375 437.230469 C 580.65625 437.054688 581.085938 436.925781 581.53125 436.835938 C 581.976562 436.746094 582.425781 436.703125 582.878906 436.703125 C 583.332031 436.703125 583.78125 436.746094 584.226562 436.835938 C 584.671875 436.925781 585.105469 437.054688 585.523438 437.230469 C 585.941406 437.402344 586.339844 437.617188 586.71875 437.867188 C 587.09375 438.121094 587.445312 438.40625 587.765625 438.726562 C 588.085938 439.046875 588.371094 439.398438 588.625 439.773438 C 588.875 440.152344 589.089844 440.550781 589.261719 440.96875 C 589.433594 441.386719 589.566406 441.820312 589.65625 442.265625 C 589.742188 442.710938 589.789062 443.160156 589.789062 443.613281 Z M 589.789062 443.613281 " fill-opacity="1" fill-rule="nonzero"/><path fill="#0f3e5d" d="M 623.90625 482.226562 C 623.90625 482.679688 623.859375 483.128906 623.773438 483.574219 C 623.683594 484.019531 623.550781 484.449219 623.378906 484.871094 C 623.207031 485.289062 622.992188 485.6875 622.742188 486.0625 C 622.488281 486.441406 622.203125 486.789062 621.882812 487.109375 C 621.5625 487.433594 621.210938 487.71875 620.835938 487.96875 C 620.457031 488.222656 620.058594 488.433594 619.640625 488.609375 C 619.222656 488.78125 618.789062 488.914062 618.34375 489.003906 C 617.898438 489.089844 617.449219 489.136719 616.996094 489.136719 C 616.542969 489.136719 616.09375 489.089844 615.648438 489.003906 C 615.203125 488.914062 614.773438 488.78125 614.351562 488.609375 C 613.933594 488.433594 613.535156 488.222656 613.160156 487.96875 C 612.78125 487.71875 612.433594 487.433594 612.113281 487.109375 C 611.789062 486.789062 611.503906 486.441406 611.253906 486.0625 C 611 485.6875 610.789062 485.289062 610.613281 484.871094 C 610.441406 484.449219 610.308594 484.019531 610.222656 483.574219 C 610.132812 483.128906 610.089844 482.679688 610.089844 482.226562 C 610.089844 481.773438 610.132812 481.324219 610.222656 480.878906 C 610.308594 480.433594 610.441406 480 610.613281 479.582031 C 610.789062 479.164062 611 478.765625 611.253906 478.386719 C 611.503906 478.011719 611.789062 477.660156 612.113281 477.339844 C 612.433594 477.019531 612.78125 476.734375 613.160156 476.480469 C 613.535156 476.230469 613.933594 476.015625 614.351562 475.84375 C 614.773438 475.667969 615.203125 475.539062 615.648438 475.449219 C 616.09375 475.359375 616.542969 475.316406 616.996094 475.316406 C 617.449219 475.316406 617.898438 475.359375 618.34375 475.449219 C 618.789062 475.539062 619.222656 475.667969 619.640625 475.84375 C 620.058594 476.015625 620.457031 476.230469 620.835938 476.480469 C 621.210938 476.734375 621.5625 477.019531 621.882812 477.339844 C 622.203125 477.660156 622.488281 478.011719 622.742188 478.386719 C 622.992188 478.765625 623.207031 479.164062 623.378906 479.582031 C 623.550781 480 623.683594 480.433594 623.773438 480.878906 C 623.859375 481.324219 623.90625 481.773438 623.90625 482.226562 Z M 623.90625 482.226562 " fill-opacity="1" fill-rule="nonzero"/><path fill="#0f3e5d" d="M 641.113281 482.617188 C 641.113281 483.070312 641.070312 483.519531 640.980469 483.964844 C 640.894531 484.410156 640.761719 484.839844 640.589844 485.261719 C 640.414062 485.679688 640.203125 486.078125 639.949219 486.453125 C 639.699219 486.832031 639.414062 487.179688 639.089844 487.5 C 638.769531 487.824219 638.421875 488.109375 638.042969 488.359375 C 637.667969 488.613281 637.269531 488.824219 636.851562 489 C 636.429688 489.171875 636 489.304688 635.554688 489.394531 C 635.109375 489.480469 634.660156 489.527344 634.207031 489.527344 C 633.753906 489.527344 633.304688 489.480469 632.859375 489.394531 C 632.414062 489.304688 631.980469 489.171875 631.5625 489 C 631.144531 488.824219 630.746094 488.613281 630.367188 488.359375 C 629.992188 488.109375 629.640625 487.824219 629.320312 487.5 C 629 487.179688 628.714844 486.832031 628.460938 486.453125 C 628.210938 486.078125 627.996094 485.679688 627.824219 485.261719 C 627.652344 484.839844 627.519531 484.410156 627.429688 483.964844 C 627.34375 483.519531 627.296875 483.070312 627.296875 482.617188 C 627.296875 482.164062 627.34375 481.714844 627.429688 481.269531 C 627.519531 480.824219 627.652344 480.390625 627.824219 479.972656 C 627.996094 479.554688 628.210938 479.15625 628.460938 478.777344 C 628.714844 478.402344 629 478.050781 629.320312 477.730469 C 629.640625 477.410156 629.992188 477.125 630.367188 476.871094 C 630.746094 476.621094 631.144531 476.40625 631.5625 476.234375 C 631.980469 476.058594 632.414062 475.929688 632.859375 475.839844 C 633.304688 475.75 633.753906 475.707031 634.207031 475.707031 C 634.660156 475.707031 635.109375 475.75 635.554688 475.839844 C 636 475.929688 636.429688 476.058594 636.851562 476.234375 C 637.269531 476.40625 637.667969 476.621094 638.042969 476.871094 C 638.421875 477.125 638.769531 477.410156 639.089844 477.730469 C 639.414062 478.050781 639.699219 478.402344 639.949219 478.777344 C 640.203125 479.15625 640.414062 479.554688 640.589844 479.972656 C 640.761719 480.390625 640.894531 480.824219 640.980469 481.269531 C 641.070312 481.714844 641.113281 482.164062 641.113281 482.617188 Z M 641.113281 482.617188 " fill-opacity="1" fill-rule="nonzero"/><path fill="#0f3e5d" d="M 657.457031 479.335938 C 657.457031 479.789062 657.410156 480.238281 657.324219 480.683594 C 657.234375 481.128906 657.105469 481.5625 656.929688 481.980469 C 656.757812 482.398438 656.542969 482.796875 656.292969 483.175781 C 656.039062 483.550781 655.753906 483.902344 655.433594 484.222656 C 655.113281 484.542969 654.761719 484.828125 654.386719 485.082031 C 654.007812 485.332031 653.609375 485.546875 653.191406 485.71875 C 652.773438 485.894531 652.339844 486.023438 651.894531 486.113281 C 651.449219 486.203125 651 486.246094 650.546875 486.246094 C 650.09375 486.246094 649.644531 486.203125 649.199219 486.113281 C 648.753906 486.023438 648.324219 485.894531 647.90625 485.71875 C 647.484375 485.546875 647.085938 485.332031 646.710938 485.082031 C 646.332031 484.828125 645.984375 484.542969 645.664062 484.222656 C 645.34375 483.902344 645.054688 483.550781 644.804688 483.175781 C 644.550781 482.796875 644.339844 482.398438 644.164062 481.980469 C 643.992188 481.5625 643.859375 481.128906 643.773438 480.683594 C 643.683594 480.238281 643.640625 479.789062 643.640625 479.335938 C 643.640625 478.882812 643.683594 478.433594 643.773438 477.988281 C 643.859375 477.542969 643.992188 477.113281 644.164062 476.691406 C 644.339844 476.273438 644.550781 475.875 644.804688 475.5 C 645.054688 475.121094 645.34375 474.773438 645.664062 474.453125 C 645.984375 474.128906 646.332031 473.84375 646.710938 473.59375 C 647.085938 473.339844 647.484375 473.128906 647.90625 472.953125 C 648.324219 472.78125 648.753906 472.648438 649.199219 472.558594 C 649.644531 472.472656 650.09375 472.425781 650.546875 472.425781 C 651 472.425781 651.449219 472.472656 651.894531 472.558594 C 652.339844 472.648438 652.773438 472.78125 653.191406 472.953125 C 653.609375 473.128906 654.007812 473.339844 654.386719 473.59375 C 654.761719 473.84375 655.113281 474.128906 655.433594 474.453125 C 655.753906 474.773438 656.039062 475.121094 656.292969 475.5 C 656.542969 475.875 656.757812 476.273438 656.929688 476.691406 C 657.105469 477.113281 657.234375 477.542969 657.324219 477.988281 C 657.410156 478.433594 657.457031 478.882812 657.457031 479.335938 Z M 657.457031 479.335938 " fill-opacity="1" fill-rule="nonzero"/><path fill="#0f3e5d" d="M 672.847656 472.320312 C 672.847656 472.773438 672.804688 473.222656 672.714844 473.667969 C 672.628906 474.113281 672.496094 474.542969 672.324219 474.964844 C 672.148438 475.382812 671.9375 475.78125 671.683594 476.160156 C 671.433594 476.535156 671.144531 476.882812 670.824219 477.207031 C 670.503906 477.527344 670.15625 477.8125 669.777344 478.066406 C 669.402344 478.316406 669.003906 478.53125 668.582031 478.703125 C 668.164062 478.875 667.734375 479.007812 667.289062 479.097656 C 666.84375 479.183594 666.394531 479.230469 665.941406 479.230469 C 665.488281 479.230469 665.039062 479.183594 664.59375 479.097656 C 664.148438 479.007812 663.714844 478.875 663.296875 478.703125 C 662.878906 478.53125 662.480469 478.316406 662.101562 478.066406 C 661.726562 477.8125 661.375 477.527344 661.054688 477.207031 C 660.734375 476.882812 660.449219 476.535156 660.195312 476.160156 C 659.945312 475.78125 659.730469 475.382812 659.558594 474.964844 C 659.382812 474.542969 659.253906 474.113281 659.164062 473.667969 C 659.074219 473.222656 659.03125 472.773438 659.03125 472.320312 C 659.03125 471.867188 659.074219 471.417969 659.164062 470.972656 C 659.253906 470.527344 659.382812 470.09375 659.558594 469.675781 C 659.730469 469.257812 659.945312 468.859375 660.195312 468.480469 C 660.449219 468.105469 660.734375 467.753906 661.054688 467.433594 C 661.375 467.113281 661.726562 466.828125 662.101562 466.574219 C 662.480469 466.324219 662.878906 466.109375 663.296875 465.9375 C 663.714844 465.761719 664.148438 465.632812 664.59375 465.542969 C 665.039062 465.453125 665.488281 465.410156 665.941406 465.410156 C 666.394531 465.410156 666.84375 465.453125 667.289062 465.542969 C 667.734375 465.632812 668.164062 465.761719 668.582031 465.9375 C 669.003906 466.109375 669.402344 466.324219 669.777344 466.574219 C 670.15625 466.828125 670.503906 467.113281 670.824219 467.433594 C 671.144531 467.753906 671.433594 468.105469 671.683594 468.480469 C 671.9375 468.859375 672.148438 469.257812 672.324219 469.675781 C 672.496094 470.09375 672.628906 470.527344 672.714844 470.972656 C 672.804688 471.417969 672.847656 471.867188 672.847656 472.320312 Z M 672.847656 472.320312 " fill-opacity="1" fill-rule="nonzero"/><path fill="#0f3e5d" d="M 684.261719 464.125 C 684.261719 464.578125 684.21875 465.027344 684.128906 465.472656 C 684.039062 465.917969 683.910156 466.347656 683.734375 466.769531 C 683.5625 467.1875 683.347656 467.585938 683.097656 467.964844 C 682.84375 468.339844 682.558594 468.6875 682.238281 469.011719 C 681.917969 469.332031 681.566406 469.617188 681.191406 469.871094 C 680.8125 470.121094 680.414062 470.335938 679.996094 470.507812 C 679.578125 470.679688 679.144531 470.8125 678.699219 470.902344 C 678.253906 470.988281 677.804688 471.035156 677.351562 471.035156 C 676.898438 471.035156 676.449219 470.988281 676.003906 470.902344 C 675.558594 470.8125 675.128906 470.679688 674.710938 470.507812 C 674.289062 470.335938 673.890625 470.121094 673.515625 469.871094 C 673.136719 469.617188 672.789062 469.332031 672.46875 469.011719 C 672.148438 468.6875 671.859375 468.339844 671.609375 467.964844 C 671.355469 467.585938 671.144531 467.1875 670.96875 466.769531 C 670.796875 466.347656 670.664062 465.917969 670.578125 465.472656 C 670.488281 465.027344 670.445312 464.578125 670.445312 464.125 C 670.445312 463.671875 670.488281 463.222656 670.578125 462.777344 C 670.664062 462.332031 670.796875 461.898438 670.96875 461.480469 C 671.144531 461.0625 671.355469 460.664062 671.609375 460.285156 C 671.859375 459.910156 672.148438 459.558594 672.46875 459.238281 C 672.789062 458.917969 673.136719 458.632812 673.515625 458.378906 C 673.890625 458.128906 674.289062 457.914062 674.710938 457.742188 C 675.128906 457.566406 675.558594 457.4375 676.003906 457.347656 C 676.449219 457.257812 676.898438 457.214844 677.351562 457.214844 C 677.804688 457.214844 678.253906 457.257812 678.699219 457.347656 C 679.144531 457.4375 679.578125 457.566406 679.996094 457.742188 C 680.414062 457.914062 680.8125 458.128906 681.191406 458.378906 C 681.566406 458.632812 681.917969 458.917969 682.238281 459.238281 C 682.558594 459.558594 682.84375 459.910156 683.097656 460.285156 C 683.347656 460.664062 683.5625 461.0625 683.734375 461.480469 C 683.910156 461.898438 684.039062 462.332031 684.128906 462.777344 C 684.21875 463.222656 684.261719 463.671875 684.261719 464.125 Z M 684.261719 464.125 " fill-opacity="1" fill-rule="nonzero"/><path fill="#0f3e5d" d="M 608.148438 477.304688 C 608.148438 477.757812 608.105469 478.207031 608.015625 478.652344 C 607.929688 479.097656 607.796875 479.527344 607.625 479.945312 C 607.449219 480.367188 607.238281 480.765625 606.984375 481.140625 C 606.734375 481.519531 606.445312 481.867188 606.125 482.1875 C 605.804688 482.507812 605.457031 482.796875 605.078125 483.046875 C 604.703125 483.300781 604.304688 483.511719 603.882812 483.6875 C 603.464844 483.859375 603.035156 483.992188 602.589844 484.078125 C 602.144531 484.167969 601.695312 484.210938 601.242188 484.210938 C 600.789062 484.210938 600.339844 484.167969 599.894531 484.078125 C 599.449219 483.992188 599.015625 483.859375 598.597656 483.6875 C 598.179688 483.511719 597.78125 483.300781 597.402344 483.046875 C 597.027344 482.796875 596.675781 482.507812 596.355469 482.1875 C 596.035156 481.867188 595.75 481.519531 595.496094 481.140625 C 595.246094 480.765625 595.03125 480.367188 594.859375 479.945312 C 594.683594 479.527344 594.554688 479.097656 594.464844 478.652344 C 594.375 478.207031 594.332031 477.757812 594.332031 477.304688 C 594.332031 476.847656 594.375 476.398438 594.464844 475.957031 C 594.554688 475.511719 594.683594 475.078125 594.859375 474.660156 C 595.03125 474.238281 595.246094 473.839844 595.496094 473.464844 C 595.75 473.085938 596.035156 472.738281 596.355469 472.417969 C 596.675781 472.097656 597.027344 471.808594 597.402344 471.558594 C 597.78125 471.304688 598.179688 471.09375 598.597656 470.917969 C 599.015625 470.746094 599.449219 470.613281 599.894531 470.527344 C 600.339844 470.4375 600.789062 470.394531 601.242188 470.394531 C 601.695312 470.394531 602.144531 470.4375 602.589844 470.527344 C 603.035156 470.613281 603.464844 470.746094 603.882812 470.917969 C 604.304688 471.09375 604.703125 471.304688 605.078125 471.558594 C 605.457031 471.808594 605.804688 472.097656 606.125 472.417969 C 606.445312 472.738281 606.734375 473.085938 606.984375 473.464844 C 607.238281 473.839844 607.449219 474.238281 607.625 474.660156 C 607.796875 475.078125 607.929688 475.511719 608.015625 475.957031 C 608.105469 476.398438 608.148438 476.847656 608.148438 477.304688 Z M 608.148438 477.304688 " fill-opacity="1" fill-rule="nonzero"/><path fill="#0f3e5d" d="M 594.078125 469.882812 C 594.078125 470.335938 594.03125 470.785156 593.945312 471.230469 C 593.855469 471.675781 593.722656 472.105469 593.550781 472.527344 C 593.378906 472.945312 593.164062 473.34375 592.914062 473.71875 C 592.660156 474.097656 592.375 474.445312 592.054688 474.765625 C 591.734375 475.089844 591.382812 475.375 591.007812 475.625 C 590.628906 475.878906 590.230469 476.089844 589.8125 476.265625 C 589.394531 476.4375 588.960938 476.570312 588.515625 476.660156 C 588.070312 476.746094 587.621094 476.792969 587.167969 476.792969 C 586.714844 476.792969 586.265625 476.746094 585.820312 476.660156 C 585.375 476.570312 584.945312 476.4375 584.523438 476.265625 C 584.105469 476.089844 583.707031 475.878906 583.332031 475.625 C 582.953125 475.375 582.605469 475.089844 582.285156 474.765625 C 581.960938 474.445312 581.675781 474.097656 581.425781 473.71875 C 581.171875 473.34375 580.960938 472.945312 580.785156 472.527344 C 580.613281 472.105469 580.480469 471.675781 580.394531 471.230469 C 580.304688 470.785156 580.261719 470.335938 580.261719 469.882812 C 580.261719 469.429688 580.304688 468.980469 580.394531 468.535156 C 580.480469 468.089844 580.613281 467.65625 580.785156 467.238281 C 580.960938 466.820312 581.171875 466.421875 581.425781 466.042969 C 581.675781 465.667969 581.960938 465.316406 582.285156 464.996094 C 582.605469 464.675781 582.953125 464.390625 583.332031 464.136719 C 583.707031 463.886719 584.105469 463.671875 584.523438 463.5 C 584.945312 463.324219 585.375 463.195312 585.820312 463.105469 C 586.265625 463.015625 586.714844 462.972656 587.167969 462.972656 C 587.621094 462.972656 588.070312 463.015625 588.515625 463.105469 C 588.960938 463.195312 589.394531 463.324219 589.8125 463.5 C 590.230469 463.671875 590.628906 463.886719 591.007812 464.136719 C 591.382812 464.390625 591.734375 464.675781 592.054688 464.996094 C 592.375 465.316406 592.660156 465.667969 592.914062 466.042969 C 593.164062 466.421875 593.378906 466.820312 593.550781 467.238281 C 593.722656 467.65625 593.855469 468.089844 593.945312 468.535156 C 594.03125 468.980469 594.078125 469.429688 594.078125 469.882812 Z M 594.078125 469.882812 " fill-opacity="1" fill-rule="nonzero"/><path fill="#0f3e5d" d="M 581.964844 455.039062 C 581.964844 455.492188 581.917969 455.941406 581.832031 456.386719 C 581.742188 456.832031 581.613281 457.265625 581.4375 457.683594 C 581.265625 458.101562 581.050781 458.5 580.800781 458.878906 C 580.546875 459.257812 580.261719 459.605469 579.941406 459.925781 C 579.621094 460.246094 579.269531 460.53125 578.894531 460.785156 C 578.515625 461.035156 578.117188 461.25 577.699219 461.421875 C 577.28125 461.597656 576.847656 461.726562 576.402344 461.816406 C 575.957031 461.90625 575.507812 461.949219 575.054688 461.949219 C 574.601562 461.949219 574.152344 461.90625 573.707031 461.816406 C 573.261719 461.726562 572.832031 461.597656 572.410156 461.421875 C 571.992188 461.25 571.59375 461.035156 571.21875 460.785156 C 570.839844 460.53125 570.492188 460.246094 570.171875 459.925781 C 569.851562 459.605469 569.5625 459.257812 569.3125 458.878906 C 569.058594 458.5 568.847656 458.101562 568.671875 457.683594 C 568.5 457.265625 568.367188 456.832031 568.28125 456.386719 C 568.191406 455.941406 568.148438 455.492188 568.148438 455.039062 C 568.148438 454.585938 568.191406 454.136719 568.28125 453.691406 C 568.367188 453.246094 568.5 452.816406 568.671875 452.394531 C 568.847656 451.976562 569.058594 451.578125 569.3125 451.203125 C 569.5625 450.824219 569.851562 450.476562 570.171875 450.15625 C 570.492188 449.832031 570.839844 449.546875 571.21875 449.296875 C 571.59375 449.042969 571.992188 448.832031 572.410156 448.65625 C 572.832031 448.484375 573.261719 448.351562 573.707031 448.265625 C 574.152344 448.175781 574.601562 448.132812 575.054688 448.132812 C 575.507812 448.132812 575.957031 448.175781 576.402344 448.265625 C 576.847656 448.351562 577.28125 448.484375 577.699219 448.65625 C 578.117188 448.832031 578.515625 449.042969 578.894531 449.296875 C 579.269531 449.546875 579.621094 449.832031 579.941406 450.15625 C 580.261719 450.476562 580.546875 450.824219 580.800781 451.203125 C 581.050781 451.578125 581.265625 451.976562 581.4375 452.394531 C 581.613281 452.816406 581.742188 453.246094 581.832031 453.691406 C 581.917969 454.136719 581.964844 454.585938 581.964844 455.039062 Z M 581.964844 455.039062 " fill-opacity="1" fill-rule="nonzero"/><path stroke-linecap="butt" transform="matrix(0.673319, 0, 0, 0.673408, 0.761465, 1.755669)" fill="none" stroke-linejoin="miter" d="M 811.308866 828.908141 C 811.308866 828.908141 795.517227 864.431728 772.282285 867.059452 " stroke="#754c29" stroke-width="1" stroke-opacity="1" stroke-miterlimit="10"/><path stroke-linecap="butt" transform="matrix(0.673319, 0, 0, 0.673408, 0.761465, 1.755669)" fill="none" stroke-linejoin="miter" d="M 706.940174 791.197684 L 671.040593 792.299821 " stroke="#754c29" stroke-width="1" stroke-opacity="1" stroke-miterlimit="10"/></svg>