<svg xmlns="http://www.w3.org/2000/svg" xmlns:xlink="http://www.w3.org/1999/xlink" width="1200" zoomAndPan="magnify" viewBox="0 0 900 675.000002" height="900" preserveAspectRatio="xMidYMid meet" version="1.0"><defs><clipPath id="7ce1ec6289"><path d="M 0.664062 0 L 899.332031 0 L 899.332031 674 L 0.664062 674 Z M 0.664062 0 " clip-rule="nonzero"/></clipPath><clipPath id="a7c6464686"><path d="M 0.664062 114 L 81 114 L 81 249 L 0.664062 249 Z M 0.664062 114 " clip-rule="nonzero"/></clipPath><clipPath id="990d3c2192"><path d="M 0.664062 128 L 7 128 L 7 176 L 0.664062 176 Z M 0.664062 128 " clip-rule="nonzero"/></clipPath><clipPath id="268faa089f"><path d="M 0.664062 188 L 7 188 L 7 236 L 0.664062 236 Z M 0.664062 188 " clip-rule="nonzero"/></clipPath><clipPath id="dc85980658"><path d="M 0.664062 144 L 50 144 L 50 219 L 0.664062 219 Z M 0.664062 144 " clip-rule="nonzero"/></clipPath><clipPath id="fdaa9a5dcb"><path d="M 0.664062 0 L 81 0 L 81 120 L 0.664062 120 Z M 0.664062 0 " clip-rule="nonzero"/></clipPath><clipPath id="2d95da5b68"><path d="M 0.664062 0 L 7 0 L 7 47 L 0.664062 47 Z M 0.664062 0 " clip-rule="nonzero"/></clipPath><clipPath id="7a502485da"><path d="M 0.664062 59 L 7 59 L 7 107 L 0.664062 107 Z M 0.664062 59 " clip-rule="nonzero"/></clipPath><clipPath id="82d8cc8bb1"><path d="M 0.664062 15 L 50 15 L 50 90 L 0.664062 90 Z M 0.664062 15 " clip-rule="nonzero"/></clipPath><clipPath id="3629f67eef"><path d="M 34 647 L 332 647 L 332 674 L 34 674 Z M 34 647 " clip-rule="nonzero"/></clipPath><clipPath id="c840641a9d"><path d="M 548 647 L 845 647 L 845 674 L 548 674 Z M 548 647 " clip-rule="nonzero"/></clipPath><clipPath id="c633392d1c"><path d="M 0.664062 614 L 899.332031 614 L 899.332031 674 L 0.664062 674 Z M 0.664062 614 " clip-rule="nonzero"/></clipPath><clipPath id="5e684cc659"><path d="M 0.664062 578 L 899.332031 578 L 899.332031 674 L 0.664062 674 Z M 0.664062 578 " clip-rule="nonzero"/></clipPath><clipPath id="fa70ae0abc"><path d="M 722 606 L 749 606 L 749 674 L 722 674 Z M 722 606 " clip-rule="nonzero"/></clipPath><clipPath id="4ae56eff99"><path d="M 520 605 L 561 605 L 561 674 L 520 674 Z M 520 605 " clip-rule="nonzero"/></clipPath><clipPath id="bbed3adabe"><path d="M 582 620 L 614 620 L 614 674 L 582 674 Z M 582 620 " clip-rule="nonzero"/></clipPath><clipPath id="86bf9d0162"><path d="M 44 591 L 86 591 L 86 674 L 44 674 Z M 44 591 " clip-rule="nonzero"/></clipPath><clipPath id="b51373ad90"><path d="M 125 613 L 156 613 L 156 674 L 125 674 Z M 125 613 " clip-rule="nonzero"/></clipPath><clipPath id="1e1dee2e53"><path d="M 398 640 L 422 640 L 422 674 L 398 674 Z M 398 640 " clip-rule="nonzero"/></clipPath><clipPath id="32a1bd6c6f"><path d="M 377 616 L 395 616 L 395 674 L 377 674 Z M 377 616 " clip-rule="nonzero"/></clipPath><clipPath id="caf2804f59"><path d="M 760 664 L 781 664 L 781 674 L 760 674 Z M 760 664 " clip-rule="nonzero"/></clipPath><clipPath id="5effab58ed"><path d="M 801 639 L 822 639 L 822 674 L 801 674 Z M 801 639 " clip-rule="nonzero"/></clipPath><clipPath id="322b58899a"><path d="M 0.664062 544 L 899.332031 544 L 899.332031 580 L 0.664062 580 Z M 0.664062 544 " clip-rule="nonzero"/></clipPath><clipPath id="6f011ff33b"><path d="M 0.664062 554 L 118 554 L 118 573 L 0.664062 573 Z M 0.664062 554 " clip-rule="nonzero"/></clipPath><clipPath id="90301bc1b5"><path d="M 0.664062 537 L 180 537 L 180 555 L 0.664062 555 Z M 0.664062 537 " clip-rule="nonzero"/></clipPath><clipPath id="7e7893a4f2"><path d="M 0.664062 554 L 118 554 L 118 555 L 0.664062 555 Z M 0.664062 554 " clip-rule="nonzero"/></clipPath><clipPath id="6330968897"><path d="M 0.664062 536 L 111 536 L 111 555 L 0.664062 555 Z M 0.664062 536 " clip-rule="nonzero"/></clipPath><clipPath id="4bc502deb2"><path d="M 0.664062 519 L 174 519 L 174 537 L 0.664062 537 Z M 0.664062 519 " clip-rule="nonzero"/></clipPath><clipPath id="43294d9032"><path d="M 0.664062 536 L 111 536 L 111 538 L 0.664062 538 Z M 0.664062 536 " clip-rule="nonzero"/></clipPath><clipPath id="a3916535fc"><path d="M 839 560 L 899.332031 560 L 899.332031 577 L 839 577 Z M 839 560 " clip-rule="nonzero"/></clipPath><clipPath id="35f6b4ec7a"><path d="M 897 560 L 899.332031 560 L 899.332031 566 L 897 566 Z M 897 560 " clip-rule="nonzero"/></clipPath></defs><g clip-path="url(#7ce1ec6289)"><path fill="#ffffff" d="M 0.664062 0 L 899.335938 0 L 899.335938 674 L 0.664062 674 Z M 0.664062 0 " fill-opacity="1" fill-rule="nonzero"/><path fill="#ffffff" d="M 0.664062 0 L 899.335938 0 L 899.335938 674 L 0.664062 674 Z M 0.664062 0 " fill-opacity="1" fill-rule="nonzero"/><rect x="-90" width="1080" fill="#b1dcc4" y="-67.5" height="810.000002" fill-opacity="1"/></g><path fill="#b1dcc5" d="M 202.109375 114.738281 L 337.074219 114.738281 L 337.074219 248.828125 L 202.109375 248.828125 Z M 202.109375 114.738281 " fill-opacity="1" fill-rule="nonzero"/><path fill="#818285" d="M 262.617188 128.359375 C 262.617188 128.359375 254.054688 167.285156 214.019531 175.296875 L 214.019531 128.0625 Z M 262.617188 128.359375 " fill-opacity="1" fill-rule="nonzero"/><path fill="#818285" d="M 274.839844 128.359375 C 274.839844 128.359375 283.402344 167.285156 323.441406 175.296875 L 323.441406 128.0625 Z M 274.839844 128.359375 " fill-opacity="1" fill-rule="nonzero"/><path fill="#818285" d="M 262.617188 235.167969 C 262.617188 235.167969 254.054688 196.242188 214.019531 188.230469 L 214.019531 235.464844 Z M 262.617188 235.167969 " fill-opacity="1" fill-rule="nonzero"/><path fill="#818285" d="M 274.839844 235.167969 C 274.839844 235.167969 283.402344 196.242188 323.441406 188.230469 L 323.441406 235.464844 Z M 274.839844 235.167969 " fill-opacity="1" fill-rule="nonzero"/><path fill="#818285" d="M 268.726562 144.789062 C 268.726562 144.789062 260.609375 168.136719 232.054688 180.796875 C 232.054688 180.796875 266.121094 195.386719 268.726562 218.425781 C 268.726562 218.425781 279.765625 190.851562 306.042969 181.765625 C 306.042969 181.765625 280.078125 168.46875 268.726562 144.789062 Z M 268.726562 144.789062 " fill-opacity="1" fill-rule="nonzero"/><path fill="#b1dcc5" d="M 73.953125 114.738281 L 208.914062 114.738281 L 208.914062 248.828125 L 73.953125 248.828125 Z M 73.953125 114.738281 " fill-opacity="1" fill-rule="nonzero"/><path fill="#818285" d="M 134.46875 128.359375 C 134.46875 128.359375 125.902344 167.285156 85.867188 175.296875 L 85.867188 128.0625 Z M 134.46875 128.359375 " fill-opacity="1" fill-rule="nonzero"/><path fill="#818285" d="M 146.683594 128.359375 C 146.683594 128.359375 155.246094 167.285156 195.28125 175.296875 L 195.28125 128.0625 Z M 146.683594 128.359375 " fill-opacity="1" fill-rule="nonzero"/><path fill="#818285" d="M 134.46875 235.167969 C 134.46875 235.167969 125.902344 196.242188 85.867188 188.230469 L 85.867188 235.464844 Z M 134.46875 235.167969 " fill-opacity="1" fill-rule="nonzero"/><path fill="#818285" d="M 146.683594 235.167969 C 146.683594 235.167969 155.246094 196.242188 195.28125 188.230469 L 195.28125 235.464844 Z M 146.683594 235.167969 " fill-opacity="1" fill-rule="nonzero"/><path fill="#818285" d="M 140.582031 144.789062 C 140.582031 144.789062 132.464844 168.136719 103.910156 180.796875 C 103.910156 180.796875 137.976562 195.386719 140.582031 218.425781 C 140.582031 218.425781 151.621094 190.851562 177.898438 181.765625 C 177.898438 181.765625 151.933594 168.46875 140.582031 144.789062 Z M 140.582031 144.789062 " fill-opacity="1" fill-rule="nonzero"/><g clip-path="url(#a7c6464686)"><path fill="#b1dcc5" d="M -54.199219 114.738281 L 80.765625 114.738281 L 80.765625 248.828125 L -54.199219 248.828125 Z M -54.199219 114.738281 " fill-opacity="1" fill-rule="nonzero"/></g><g clip-path="url(#990d3c2192)"><path fill="#818285" d="M 6.316406 128.359375 C 6.316406 128.359375 -2.246094 167.285156 -42.285156 175.296875 L -42.285156 128.0625 Z M 6.316406 128.359375 " fill-opacity="1" fill-rule="nonzero"/></g><path fill="#818285" d="M 18.546875 128.359375 C 18.546875 128.359375 27.109375 167.285156 67.144531 175.296875 L 67.144531 128.0625 Z M 18.546875 128.359375 " fill-opacity="1" fill-rule="nonzero"/><g clip-path="url(#268faa089f)"><path fill="#818285" d="M 6.316406 235.167969 C 6.316406 235.167969 -2.246094 196.242188 -42.285156 188.230469 L -42.285156 235.464844 Z M 6.316406 235.167969 " fill-opacity="1" fill-rule="nonzero"/></g><path fill="#818285" d="M 18.546875 235.167969 C 18.546875 235.167969 27.109375 196.242188 67.144531 188.230469 L 67.144531 235.464844 Z M 18.546875 235.167969 " fill-opacity="1" fill-rule="nonzero"/><g clip-path="url(#dc85980658)"><path fill="#818285" d="M 12.429688 144.789062 C 12.429688 144.789062 4.316406 168.136719 -24.238281 180.796875 C -24.238281 180.796875 9.824219 195.386719 12.429688 218.425781 C 12.429688 218.425781 23.472656 190.851562 49.746094 181.765625 C 49.746094 181.765625 23.785156 168.46875 12.429688 144.789062 Z M 12.429688 144.789062 " fill-opacity="1" fill-rule="nonzero"/></g><path fill="#b1dcc5" d="M 202.109375 -14.433594 L 337.074219 -14.433594 L 337.074219 119.65625 L 202.109375 119.65625 Z M 202.109375 -14.433594 " fill-opacity="1" fill-rule="nonzero"/><path fill="#818285" d="M 262.617188 -0.808594 C 262.617188 -0.808594 254.054688 38.117188 214.019531 46.128906 L 214.019531 -1.113281 L 262.617188 -0.8125 Z M 262.617188 -0.808594 " fill-opacity="1" fill-rule="nonzero"/><path fill="#818285" d="M 274.839844 -0.808594 C 274.839844 -0.808594 283.402344 38.117188 323.441406 46.128906 L 323.441406 -1.113281 L 274.839844 -0.8125 Z M 274.839844 -0.808594 " fill-opacity="1" fill-rule="nonzero"/><path fill="#818285" d="M 262.617188 105.992188 C 262.617188 105.992188 254.054688 67.070312 214.019531 59.058594 L 214.019531 106.292969 Z M 262.617188 105.992188 " fill-opacity="1" fill-rule="nonzero"/><path fill="#818285" d="M 274.839844 105.992188 C 274.839844 105.992188 283.402344 67.070312 323.441406 59.058594 L 323.441406 106.292969 Z M 274.839844 105.992188 " fill-opacity="1" fill-rule="nonzero"/><path fill="#818285" d="M 268.726562 15.617188 C 268.726562 15.617188 260.609375 38.964844 232.054688 51.625 C 232.054688 51.625 266.121094 66.214844 268.726562 89.253906 C 268.726562 89.253906 279.765625 61.675781 306.042969 52.59375 C 306.042969 52.59375 280.078125 39.296875 268.726562 15.617188 Z M 268.726562 15.617188 " fill-opacity="1" fill-rule="nonzero"/><path fill="#b1dcc5" d="M 73.953125 -14.433594 L 208.914062 -14.433594 L 208.914062 119.65625 L 73.953125 119.65625 Z M 73.953125 -14.433594 " fill-opacity="1" fill-rule="nonzero"/><path fill="#818285" d="M 134.46875 -0.808594 C 134.46875 -0.808594 125.902344 38.117188 85.867188 46.128906 L 85.867188 -1.113281 L 134.46875 -0.8125 Z M 134.46875 -0.808594 " fill-opacity="1" fill-rule="nonzero"/><path fill="#818285" d="M 146.683594 -0.808594 C 146.683594 -0.808594 155.246094 38.117188 195.28125 46.128906 L 195.28125 -1.113281 L 146.683594 -0.8125 Z M 146.683594 -0.808594 " fill-opacity="1" fill-rule="nonzero"/><path fill="#818285" d="M 134.46875 105.992188 C 134.46875 105.992188 125.902344 67.070312 85.867188 59.058594 L 85.867188 106.292969 Z M 134.46875 105.992188 " fill-opacity="1" fill-rule="nonzero"/><path fill="#818285" d="M 146.683594 105.992188 C 146.683594 105.992188 155.246094 67.070312 195.28125 59.058594 L 195.28125 106.292969 Z M 146.683594 105.992188 " fill-opacity="1" fill-rule="nonzero"/><path fill="#818285" d="M 140.582031 15.617188 C 140.582031 15.617188 132.464844 38.964844 103.910156 51.625 C 103.910156 51.625 137.976562 66.214844 140.582031 89.253906 C 140.582031 89.253906 151.621094 61.675781 177.898438 52.59375 C 177.898438 52.59375 151.933594 39.296875 140.582031 15.617188 Z M 140.582031 15.617188 " fill-opacity="1" fill-rule="nonzero"/><g clip-path="url(#fdaa9a5dcb)"><path fill="#b1dcc5" d="M -54.199219 -14.433594 L 80.765625 -14.433594 L 80.765625 119.65625 L -54.199219 119.65625 Z M -54.199219 -14.433594 " fill-opacity="1" fill-rule="nonzero"/></g><g clip-path="url(#2d95da5b68)"><path fill="#818285" d="M 6.316406 -0.808594 C 6.316406 -0.808594 -2.246094 38.117188 -42.285156 46.128906 L -42.285156 -1.113281 L 6.316406 -0.8125 Z M 6.316406 -0.808594 " fill-opacity="1" fill-rule="nonzero"/></g><path fill="#818285" d="M 18.546875 -0.808594 C 18.546875 -0.808594 27.109375 38.117188 67.144531 46.128906 L 67.144531 -1.113281 L 18.546875 -0.8125 Z M 18.546875 -0.808594 " fill-opacity="1" fill-rule="nonzero"/><g clip-path="url(#7a502485da)"><path fill="#818285" d="M 6.316406 105.992188 C 6.316406 105.992188 -2.246094 67.070312 -42.285156 59.058594 L -42.285156 106.292969 Z M 6.316406 105.992188 " fill-opacity="1" fill-rule="nonzero"/></g><path fill="#818285" d="M 18.546875 105.992188 C 18.546875 105.992188 27.109375 67.070312 67.144531 59.058594 L 67.144531 106.292969 Z M 18.546875 105.992188 " fill-opacity="1" fill-rule="nonzero"/><g clip-path="url(#82d8cc8bb1)"><path fill="#818285" d="M 12.429688 15.617188 C 12.429688 15.617188 4.316406 38.964844 -24.238281 51.625 C -24.238281 51.625 9.824219 66.214844 12.429688 89.253906 C 12.429688 89.253906 23.472656 61.675781 49.746094 52.59375 C 49.746094 52.59375 23.785156 39.296875 12.429688 15.617188 Z M 12.429688 15.617188 " fill-opacity="1" fill-rule="nonzero"/></g><g clip-path="url(#3629f67eef)"><path fill="#a97c50" d="M 331.128906 738.269531 L 34.933594 738.421875 L 98.265625 647.636719 L 293.265625 647.636719 Z M 331.128906 738.269531 " fill-opacity="1" fill-rule="nonzero"/></g><path fill="#a97c50" d="M 98.265625 381.203125 L 293.265625 381.203125 L 293.265625 647.636719 L 98.265625 647.636719 Z M 98.265625 381.203125 " fill-opacity="1" fill-rule="nonzero"/><g clip-path="url(#c840641a9d)"><path fill="#a97c50" d="M 844.894531 738.269531 L 548.695312 738.421875 L 612.03125 647.636719 L 807.027344 647.636719 Z M 844.894531 738.269531 " fill-opacity="1" fill-rule="nonzero"/></g><path fill="#a97c50" d="M 612.03125 381.203125 L 807.027344 381.203125 L 807.027344 647.636719 L 612.03125 647.636719 Z M 612.03125 381.203125 " fill-opacity="1" fill-rule="nonzero"/><path fill="#caa88a" d="M 393.789062 251.210938 C 438.582031 272.929688 473.164062 399.914062 473.164062 399.914062 C 536.007812 406.804688 601.910156 426.472656 601.910156 426.472656 L 614.941406 458.144531 C 614.941406 458.144531 480.167969 492.765625 444.804688 475.375 C 405.386719 455.980469 403.039062 454.304688 403.039062 454.304688 " fill-opacity="1" fill-rule="nonzero"/><path fill="#caa88a" d="M 180.617188 418.65625 L 183.992188 485.433594 C 183.992188 485.433594 190.0625 513.089844 203.5625 520.511719 C 217.058594 527.933594 427.589844 548.167969 427.589844 548.167969 L 457.269531 556.457031 L 482.074219 558.683594 C 482.074219 558.683594 476.984375 567.265625 483.980469 570.125 L 493.203125 560.90625 C 493.203125 560.90625 494.472656 566.632812 500.199219 562.8125 L 506.875 553.277344 C 506.875 553.277344 508.144531 559.953125 514.828125 556.140625 L 519.597656 543.417969 L 525.640625 549.457031 C 525.640625 549.457031 530.410156 550.726562 530.726562 545.957031 L 521.1875 522.75 L 488.75 508.125 L 436.277344 514.800781 L 265.6875 457.269531 L 267.660156 423.363281 L 180.613281 418.640625 Z M 180.617188 418.65625 " fill-opacity="1" fill-rule="nonzero"/><path stroke-linecap="butt" transform="matrix(0.678586, 0, 0, 0.678358, -299.094477, -16.090287)" fill="none" stroke-linejoin="miter" d="M 1167.571055 850.577727 C 1167.571055 850.577727 1188.51879 830.872527 1151.061546 826.910757 " stroke="#603913" stroke-width="0.8" stroke-opacity="1" stroke-miterlimit="10"/><path stroke-linecap="butt" transform="matrix(0.678586, 0, 0, 0.678358, -299.094477, -16.090287)" fill="none" stroke-linejoin="miter" d="M 1187.730156 839.331597 C 1187.730156 839.331597 1200.572804 821.388464 1182.647207 812.612682 C 1164.727367 803.831143 1161.797332 801.999976 1161.797332 801.999976 " stroke="#603913" stroke-width="0.8" stroke-opacity="1" stroke-miterlimit="10"/><path stroke-linecap="butt" transform="matrix(0.678586, 0, 0, 0.678358, -299.094477, -16.090287)" fill="none" stroke-linejoin="miter" d="M 1206.467413 824.797429 C 1206.467413 824.797429 1213.357888 809.687422 1200.561291 803.099827 C 1187.758938 796.517991 1173.13179 787.74221 1173.13179 787.74221 " stroke="#603913" stroke-width="0.8" stroke-opacity="1" stroke-miterlimit="10"/><path stroke-linecap="butt" transform="matrix(0.678586, 0, 0, 0.678358, -299.094477, -16.090287)" fill-opacity="1" fill="#00979c" fill-rule="nonzero" stroke-linejoin="miter" d="M 832.977186 687.500212 C 832.977186 687.500212 814.550778 699.132154 813.790926 737.529077 " stroke="#2e3192" stroke-width="1" stroke-opacity="1" stroke-miterlimit="10"/><path fill="#caa88a" d="M 273.375 164.957031 C 273.375 164.957031 270.347656 195.558594 255.878906 219.863281 C 255.878906 219.863281 261.640625 304.957031 328.148438 311.082031 C 328.148438 311.082031 374.183594 276.6875 354.113281 220.941406 Z M 273.375 164.957031 " fill-opacity="1" fill-rule="nonzero"/><path fill="#e6e7e8" d="M 157.824219 472.042969 C 157.824219 472.042969 145.921875 539.980469 158.660156 579.515625 C 158.660156 579.515625 239.75 613.496094 322.570312 588.773438 C 322.570312 588.773438 394.507812 568.933594 411.90625 527.945312 C 411.90625 527.945312 418.355469 483.996094 402.441406 455.402344 C 399.433594 450.003906 421.0625 486.941406 422.359375 478.039062 C 422.359375 478.039062 466.589844 400.246094 477.324219 396.832031 L 448.265625 331.359375 C 448.265625 331.359375 439.140625 284.652344 408.910156 255.851562 C 408.910156 255.851562 392.011719 246.699219 372.921875 237.046875 L 332.199219 261.933594 L 324.402344 313.789062 L 312.582031 267.925781 C 312.582031 267.925781 311.484375 254.757812 256.28125 217.210938 C 256.28125 217.210938 195.71875 234.554688 166 260.308594 C 166 260.308594 136.644531 300.253906 144.699219 334.871094 L 157.816406 472.050781 Z M 157.824219 472.042969 " fill-opacity="1" fill-rule="nonzero"/><path fill="#d4d5d6" d="M 256.273438 217.210938 C 256.273438 217.210938 304.027344 250.523438 312.578125 267.925781 L 312.542969 251.371094 C 312.542969 251.371094 277.234375 225.398438 265.378906 207.421875 Z M 256.273438 217.210938 " fill-opacity="1" fill-rule="nonzero"/><path fill="#d4d5d6" d="M 355.742188 224.503906 C 355.742188 224.503906 374.578125 225.445312 372.917969 237.046875 L 332.195312 261.933594 L 331.746094 252.117188 C 331.746094 252.117188 350.578125 244.921875 363.613281 231.84375 C 363.613281 231.84375 355.722656 230.160156 355.734375 224.503906 Z M 355.742188 224.503906 " fill-opacity="1" fill-rule="nonzero"/><path stroke-linecap="butt" transform="matrix(0.678586, 0, 0, 0.678358, -299.094477, -16.090287)" fill="none" stroke-linejoin="miter" d="M 918.811667 486.290661 C 918.811667 486.290661 932.178152 554.539061 901.467472 894.519976 " stroke="#6d6e71" stroke-width="1" stroke-opacity="1" stroke-miterlimit="10"/><path fill="#d1d3d4" d="M 313.238281 316.261719 C 313.632812 316.296875 314.011719 316.40625 314.363281 316.59375 C 314.71875 316.78125 315.023438 317.03125 315.28125 317.347656 C 315.539062 317.660156 315.726562 318.015625 315.847656 318.410156 C 315.96875 318.804688 316.011719 319.207031 315.980469 319.617188 C 315.945312 320.03125 315.835938 320.421875 315.652344 320.789062 C 315.472656 321.160156 315.226562 321.476562 314.921875 321.746094 C 314.617188 322.015625 314.273438 322.210938 313.894531 322.339844 C 313.515625 322.46875 313.125 322.515625 312.730469 322.484375 C 312.332031 322.453125 311.957031 322.339844 311.601562 322.152344 C 311.246094 321.964844 310.941406 321.714844 310.683594 321.398438 C 310.429688 321.085938 310.238281 320.730469 310.117188 320.335938 C 309.996094 319.945312 309.953125 319.542969 309.988281 319.128906 C 310.019531 318.714844 310.128906 318.324219 310.3125 317.957031 C 310.496094 317.589844 310.738281 317.269531 311.042969 317 C 311.347656 316.734375 311.691406 316.535156 312.070312 316.40625 C 312.453125 316.277344 312.839844 316.230469 313.238281 316.261719 Z M 313.238281 316.261719 " fill-opacity="1" fill-rule="nonzero"/><path fill="#d1d3d4" d="M 316.5625 369.070312 C 316.960938 369.101562 317.335938 369.210938 317.691406 369.398438 C 318.046875 369.585938 318.351562 369.839844 318.609375 370.152344 C 318.863281 370.46875 319.054688 370.820312 319.175781 371.214844 C 319.296875 371.609375 319.339844 372.011719 319.304688 372.425781 C 319.273438 372.835938 319.164062 373.226562 318.980469 373.597656 C 318.796875 373.964844 318.554688 374.28125 318.25 374.550781 C 317.945312 374.820312 317.601562 375.019531 317.222656 375.148438 C 316.839844 375.273438 316.453125 375.320312 316.054688 375.289062 C 315.660156 375.257812 315.28125 375.148438 314.929688 374.960938 C 314.574219 374.773438 314.269531 374.519531 314.011719 374.207031 C 313.753906 373.890625 313.566406 373.539062 313.445312 373.144531 C 313.324219 372.75 313.28125 372.347656 313.3125 371.933594 C 313.347656 371.523438 313.457031 371.132812 313.640625 370.761719 C 313.820312 370.394531 314.066406 370.074219 314.371094 369.808594 C 314.675781 369.539062 315.019531 369.339844 315.398438 369.210938 C 315.777344 369.085938 316.167969 369.035156 316.5625 369.070312 Z M 316.5625 369.070312 " fill-opacity="1" fill-rule="nonzero"/><path fill="#d1d3d4" d="M 315.703125 425.882812 C 316.097656 425.917969 316.472656 426.027344 316.828125 426.214844 C 317.183594 426.402344 317.488281 426.652344 317.746094 426.96875 C 318.003906 427.28125 318.191406 427.636719 318.3125 428.03125 C 318.433594 428.425781 318.476562 428.828125 318.441406 429.238281 C 318.410156 429.652344 318.300781 430.042969 318.117188 430.410156 C 317.933594 430.78125 317.691406 431.097656 317.386719 431.367188 C 317.082031 431.636719 316.738281 431.832031 316.359375 431.960938 C 315.980469 432.089844 315.589844 432.136719 315.191406 432.105469 C 314.796875 432.074219 314.417969 431.960938 314.066406 431.773438 C 313.710938 431.585938 313.40625 431.335938 313.148438 431.019531 C 312.890625 430.707031 312.703125 430.351562 312.582031 429.957031 C 312.460938 429.566406 312.417969 429.164062 312.449219 428.75 C 312.484375 428.335938 312.59375 427.945312 312.777344 427.578125 C 312.960938 427.210938 313.203125 426.890625 313.507812 426.621094 C 313.8125 426.355469 314.15625 426.15625 314.535156 426.027344 C 314.914062 425.898438 315.304688 425.851562 315.703125 425.882812 Z M 315.703125 425.882812 " fill-opacity="1" fill-rule="nonzero"/><path fill="#d1d3d4" d="M 312.542969 477.515625 C 312.941406 477.546875 313.316406 477.65625 313.671875 477.847656 C 314.027344 478.035156 314.332031 478.285156 314.589844 478.597656 C 314.84375 478.914062 315.035156 479.269531 315.15625 479.660156 C 315.277344 480.054688 315.320312 480.457031 315.285156 480.871094 C 315.253906 481.28125 315.144531 481.671875 314.960938 482.042969 C 314.777344 482.410156 314.535156 482.730469 314.230469 482.996094 C 313.925781 483.265625 313.582031 483.464844 313.203125 483.59375 C 312.820312 483.71875 312.433594 483.769531 312.035156 483.734375 C 311.640625 483.703125 311.261719 483.59375 310.910156 483.40625 C 310.554688 483.21875 310.25 482.964844 309.992188 482.652344 C 309.734375 482.335938 309.546875 481.984375 309.425781 481.589844 C 309.304688 481.195312 309.261719 480.792969 309.292969 480.378906 C 309.328125 479.96875 309.4375 479.578125 309.621094 479.210938 C 309.800781 478.839844 310.046875 478.523438 310.351562 478.253906 C 310.65625 477.984375 311 477.785156 311.378906 477.660156 C 311.757812 477.53125 312.148438 477.484375 312.542969 477.515625 Z M 312.542969 477.515625 " fill-opacity="1" fill-rule="nonzero"/><path fill="#d1d3d4" d="M 308.769531 542.445312 C 309.167969 542.476562 309.542969 542.585938 309.898438 542.773438 C 310.253906 542.960938 310.558594 543.214844 310.816406 543.527344 C 311.074219 543.84375 311.261719 544.195312 311.382812 544.589844 C 311.503906 544.984375 311.546875 545.386719 311.511719 545.796875 C 311.480469 546.210938 311.371094 546.601562 311.1875 546.96875 C 311.003906 547.339844 310.761719 547.65625 310.457031 547.925781 C 310.152344 548.195312 309.808594 548.394531 309.429688 548.519531 C 309.046875 548.648438 308.660156 548.695312 308.261719 548.664062 C 307.867188 548.632812 307.488281 548.519531 307.136719 548.332031 C 306.78125 548.144531 306.476562 547.894531 306.21875 547.578125 C 305.960938 547.265625 305.773438 546.910156 305.652344 546.519531 C 305.53125 546.125 305.488281 545.722656 305.519531 545.308594 C 305.554688 544.898438 305.664062 544.507812 305.847656 544.136719 C 306.03125 543.769531 306.273438 543.449219 306.578125 543.179688 C 306.882812 542.914062 307.226562 542.714844 307.605469 542.585938 C 307.984375 542.457031 308.375 542.410156 308.769531 542.445312 Z M 308.769531 542.445312 " fill-opacity="1" fill-rule="nonzero"/><path fill="#d1d3d4" d="M 233.894531 341.289062 L 232.6875 387.90625 C 232.6875 387.90625 257.164062 415.617188 286.851562 392.320312 L 290.992188 341.613281 C 290.992188 341.613281 271.164062 351.242188 233.902344 341.28125 Z M 233.894531 341.289062 " fill-opacity="1" fill-rule="nonzero"/><path fill="#d1d3d4" d="M 357.6875 351.390625 L 356.480469 398.007812 C 356.480469 398.007812 380.957031 425.71875 410.644531 402.421875 L 414.785156 351.714844 C 414.785156 351.714844 394.957031 361.339844 357.695312 351.382812 Z M 357.6875 351.390625 " fill-opacity="1" fill-rule="nonzero"/><path fill="#d1d3d4" d="M 212.648438 509.128906 L 211.277344 561.964844 C 211.277344 561.964844 239.019531 593.367188 272.660156 566.972656 L 277.351562 509.507812 C 277.351562 509.507812 254.882812 520.421875 212.648438 509.128906 Z M 212.648438 509.128906 " fill-opacity="1" fill-rule="nonzero"/><path fill="#d1d3d4" d="M 333.925781 484.234375 L 342.074219 536.453125 C 342.074219 536.453125 375.011719 562.359375 403.359375 530.347656 L 397.636719 472.972656 C 397.636719 472.972656 377.496094 487.746094 333.917969 484.226562 Z M 333.925781 484.234375 " fill-opacity="1" fill-rule="nonzero"/><path stroke-linecap="butt" transform="matrix(0.678586, 0, 0, 0.678358, -299.094477, -16.090287)" fill="none" stroke-linejoin="miter" d="M 793.217361 351.268007 C 793.217361 351.268007 859.698644 500.761487 798.760825 903.658536 " stroke="#d1d3d4" stroke-width="1" stroke-opacity="1" stroke-miterlimit="10"/><path stroke-linecap="butt" transform="matrix(0.678586, 0, 0, 0.678358, -299.094477, -16.090287)" fill="none" stroke-linejoin="miter" d="M 804.131597 348.68825 C 804.131597 348.68825 869.127715 503.237593 808.189897 906.140401 " stroke="#d1d3d4" stroke-width="1" stroke-opacity="1" stroke-miterlimit="10"/><path stroke-linecap="butt" transform="matrix(0.678586, 0, 0, 0.678358, -299.094477, -16.090287)" fill="none" stroke-linejoin="miter" d="M 814.769523 345.452037 C 814.769523 345.452037 879.558409 504.700223 818.620591 907.597273 " stroke="#d1d3d4" stroke-width="1" stroke-opacity="1" stroke-miterlimit="10"/><path stroke-linecap="butt" transform="matrix(0.678586, 0, 0, 0.678358, -299.094477, -16.090287)" fill="none" stroke-linejoin="miter" d="M 782.251316 354.711523 C 782.251316 354.711523 849.601824 498.792119 788.652493 901.689168 " stroke="#d1d3d4" stroke-width="1" stroke-opacity="1" stroke-miterlimit="10"/><path stroke-linecap="butt" transform="matrix(0.678586, 0, 0, 0.678358, -299.094477, -16.090287)" fill="none" stroke-linejoin="miter" d="M 988.660475 373.270803 C 988.660475 373.270803 1051.77999 503.381553 978.592438 861.13285 " stroke="#d1d3d4" stroke-width="1" stroke-opacity="1" stroke-miterlimit="10"/><path stroke-linecap="butt" transform="matrix(0.678586, 0, 0, 0.678358, -299.094477, -16.090287)" fill="none" stroke-linejoin="miter" d="M 1002.009691 380.428478 C 1002.009691 380.428478 1061.721385 501.567661 988.53959 859.307441 " stroke="#d1d3d4" stroke-width="1" stroke-opacity="1" stroke-miterlimit="10"/><path stroke-linecap="butt" transform="matrix(0.678586, 0, 0, 0.678358, -299.094477, -16.090287)" fill="none" stroke-linejoin="miter" d="M 1015.629461 387.321267 C 1015.629461 387.321267 1073.809938 498.060803 1000.628143 855.800583 " stroke="#d1d3d4" stroke-width="1" stroke-opacity="1" stroke-miterlimit="10"/><path stroke-linecap="butt" transform="matrix(0.678586, 0, 0, 0.678358, -299.094477, -16.090287)" fill="none" stroke-linejoin="miter" d="M 977.602328 375.78146 C 977.602328 375.78146 1040.819702 505.097552 967.637907 862.837332 " stroke="#d1d3d4" stroke-width="1" stroke-opacity="1" stroke-miterlimit="10"/><path stroke-linecap="butt" transform="matrix(0.678586, 0, 0, 0.678358, -299.094477, -16.090287)" fill-opacity="1" fill="#e6e7e8" fill-rule="nonzero" stroke-linejoin="miter" d="M 793.902379 437.661084 C 853.142043 506.738692 857.240638 629.081378 857.240638 629.081378 C 857.240638 629.081378 837.519028 665.480141 729.522201 682.300389 " stroke="#808285" stroke-width="1" stroke-opacity="1" stroke-miterlimit="10"/><path fill="#caa88a" d="M 409.554688 68.625 C 409.554688 68.625 420.59375 90.390625 410.21875 137.46875 C 410.21875 137.46875 406.59375 148.613281 406.941406 154.964844 C 407.28125 161.3125 403.730469 170.878906 402.550781 177.84375 C 395.878906 217.25 375.792969 225.839844 375.792969 225.839844 C 375.792969 225.839844 368.355469 237.847656 345.847656 234.863281 C 323.332031 231.871094 302.425781 221.382812 295.699219 210.746094 C 288.976562 200.109375 273.945312 181.386719 274.03125 166.539062 C 274.03125 166.539062 260.25 167.65625 257.117188 150.828125 C 257.117188 150.828125 246.171875 123.792969 261.621094 119.382812 C 277.074219 114.976562 282.589844 136.261719 282.589844 136.261719 C 282.589844 136.261719 268.476562 74.566406 304.957031 56.324219 C 304.957031 56.324219 356.109375 28.214844 409.558594 68.628906 Z M 409.554688 68.625 " fill-opacity="1" fill-rule="nonzero"/><path fill="#ae8578" d="M 336.578125 181.128906 C 336.578125 181.128906 348.398438 179.988281 360.859375 186.472656 C 360.859375 186.472656 372.765625 186.550781 382.59375 190.957031 C 382.59375 190.957031 377.640625 209.179688 359.472656 209.695312 C 341.308594 210.203125 334.027344 191.839844 336.578125 181.128906 Z M 336.578125 181.128906 " fill-opacity="1" fill-rule="nonzero"/><path fill="#803435" d="M 339.089844 183.007812 C 339.089844 183.007812 335.554688 199.308594 356.800781 203.691406 C 376.09375 207.671875 379.246094 193.164062 379.246094 193.164062 C 379.246094 193.164062 357.308594 189.664062 339.089844 183.007812 Z M 339.089844 183.007812 " fill-opacity="1" fill-rule="nonzero"/><path fill="#e6e7e8" d="M 356.445312 117.492188 C 356.445312 117.492188 338.988281 108.128906 321.253906 111.542969 C 321.253906 111.542969 331.890625 100.640625 358.089844 112.066406 C 358.089844 112.066406 361.890625 116.515625 356.445312 117.484375 Z M 356.445312 117.492188 " fill-opacity="1" fill-rule="nonzero"/><path fill="#e6e7e8" d="M 413.394531 127.125 C 400.445312 122.390625 393.136719 125.0625 393.136719 125.0625 C 388.523438 122.015625 393.777344 119.433594 393.777344 119.433594 C 402.6875 119.390625 409.34375 120.75 414.296875 122.628906 C 414.296875 122.628906 414.105469 127.390625 413.402344 127.125 Z M 413.394531 127.125 " fill-opacity="1" fill-rule="nonzero"/><path fill="#ffffff" d="M 341.675781 183.78125 C 341.675781 183.78125 345.570312 190.882812 362.175781 193.480469 C 362.175781 193.480469 372.015625 197.632812 377.382812 193.117188 C 377.382812 193.117188 356.101562 189.207031 341.675781 183.78125 Z M 341.675781 183.78125 " fill-opacity="1" fill-rule="nonzero"/><path stroke-linecap="butt" transform="matrix(0.678586, 0, 0, 0.678358, -299.094477, -16.090287)" fill="none" stroke-linejoin="miter" d="M 822.788263 215.237636 C 822.788263 215.237636 833.218957 204.837989 839.597108 218.957554 C 845.981015 233.082877 845.612602 237.269224 845.612602 237.269224 C 845.612602 237.269224 836.868549 215.128226 828.579255 229.737254 " stroke="#231f20" stroke-width="1" stroke-opacity="1" stroke-miterlimit="10"/><path stroke-linecap="butt" transform="matrix(0.678586, 0, 0, 0.678358, -299.094477, -16.090287)" fill-opacity="1" fill="#e6e7e8" fill-rule="nonzero" stroke-linejoin="miter" d="M 818.401845 202.471292 C 818.401845 202.471292 836.822497 190.637807 846.19976 208.909169 C 855.571267 227.18053 852.31887 234.332446 852.31887 234.332446 L 863.359748 235.898728 C 863.359748 235.898728 836.471353 172.45858 876.898927 155.022185 C 876.898927 155.022185 875.5807 110.118285 909.722226 109.001158 C 943.857996 107.878272 965.007207 77.6525 1047.738959 132.242007 C 1047.738959 132.242007 1063.592233 83.90035 976.151702 56.62863 C 976.151702 56.62863 917.142295 37.487752 894.657587 65.531096 C 894.657587 65.531096 853.850087 63.170157 834.370248 114.558001 C 814.890409 165.951603 818.390332 202.471292 818.390332 202.471292 Z M 818.401845 202.471292 " stroke="#58595b" stroke-width="0.2" stroke-opacity="1" stroke-miterlimit="10"/><path fill="#26130f" d="M 351.40625 235.324219 C 351.40625 235.324219 325.902344 232.957031 311.402344 223.996094 C 311.402344 223.996094 299.535156 219.035156 289.492188 202.191406 C 289.492188 202.191406 301.710938 226.984375 325.246094 233.75 C 325.359375 233.78125 325.460938 233.804688 325.585938 233.835938 C 326.671875 234.136719 339.945312 237.976562 349.394531 238.6875 C 349.394531 238.6875 351.839844 235.988281 351.398438 235.328125 Z M 351.40625 235.324219 " fill-opacity="1" fill-rule="nonzero"/><path stroke-linecap="butt" transform="matrix(0.678586, 0, 0, 0.678358, -299.094477, -16.090287)" fill="none" stroke-linejoin="miter" d="M 949.372679 148.808886 C 949.372679 148.808886 974.597459 156.841835 986.248521 162.081967 C 997.911096 167.310583 1035.161108 165.087845 1035.161108 165.087845 " stroke="#231f20" stroke-width="0.8" stroke-opacity="1" stroke-miterlimit="10"/><path fill="#e6e7e8" d="M 354.148438 171.128906 C 354.148438 171.128906 341.171875 177.316406 331.636719 177.121094 C 331.636719 177.121094 332.5625 181.007812 336.578125 181.128906 C 336.578125 181.128906 352.808594 180.871094 360.859375 186.472656 C 360.859375 186.472656 372.660156 186.140625 382.59375 190.957031 C 382.59375 190.957031 383.644531 192.003906 386.039062 191.984375 C 386.039062 191.984375 376.6875 181.863281 377.898438 177.675781 C 377.898438 177.675781 367.746094 180.53125 362.09375 172.371094 C 362.09375 172.371094 359.003906 173.21875 354.148438 171.128906 Z M 354.148438 171.128906 " fill-opacity="1" fill-rule="nonzero"/><path stroke-linecap="butt" transform="matrix(0.678586, 0, 0, 0.678358, -299.094477, -16.090287)" fill="none" stroke-linejoin="miter" d="M 993.49014 232.380353 L 1002.159359 269.349197 C 1002.159359 269.349197 1004.980022 289.330799 989.500918 286.61284 C 976.652513 284.361311 976.658269 280.221031 976.658269 280.221031 " stroke="#231f20" stroke-width="1" stroke-opacity="1" stroke-miterlimit="10"/><path stroke-linecap="butt" transform="matrix(0.678586, 0, 0, 0.678358, -299.094477, -16.090287)" fill="none" stroke-linejoin="miter" d="M 921.822292 293.25226 C 921.822292 293.25226 922.121627 278.320763 931.412544 276.351395 C 940.697703 274.382027 947.950835 258.097309 947.950835 258.097309 " stroke="#231f20" stroke-width="0.8" stroke-opacity="1" stroke-miterlimit="10"/><path fill="#ffffff" d="M 331.441406 125.816406 C 331.441406 125.816406 331.523438 125.300781 331.976562 124.933594 C 333.476562 123.726562 336.835938 121.5625 341.417969 122.328125 C 346.546875 123.191406 348.5625 128.480469 349.242188 130.359375 C 349.355469 130.6875 349.292969 130.945312 349.292969 130.945312 C 349.292969 130.945312 349.265625 131.234375 349.058594 131.40625 C 348.078125 132.21875 344.902344 134.410156 340.039062 133.671875 C 337.140625 133.230469 333.339844 131 331.488281 126.648438 C 331.359375 126.34375 331.40625 126 331.441406 125.816406 Z M 331.441406 125.816406 " fill-opacity="1" fill-rule="nonzero"/><path fill="#26130f" d="M 347.246094 128.496094 C 347.246094 128.847656 347.210938 129.195312 347.140625 129.542969 C 347.074219 129.890625 346.972656 130.226562 346.835938 130.550781 C 346.699219 130.875 346.535156 131.1875 346.339844 131.480469 C 346.144531 131.773438 345.921875 132.042969 345.671875 132.292969 C 345.421875 132.542969 345.148438 132.765625 344.855469 132.960938 C 344.5625 133.15625 344.253906 133.324219 343.925781 133.457031 C 343.601562 133.59375 343.265625 133.695312 342.917969 133.765625 C 342.574219 133.832031 342.222656 133.867188 341.871094 133.867188 C 341.519531 133.867188 341.167969 133.832031 340.824219 133.765625 C 340.476562 133.695312 340.140625 133.59375 339.8125 133.457031 C 339.488281 133.324219 339.179688 133.15625 338.886719 132.960938 C 338.589844 132.765625 338.320312 132.542969 338.070312 132.292969 C 337.820312 132.042969 337.597656 131.773438 337.402344 131.480469 C 337.207031 131.1875 337.039062 130.875 336.90625 130.550781 C 336.769531 130.226562 336.667969 129.890625 336.601562 129.542969 C 336.53125 129.195312 336.496094 128.847656 336.496094 128.496094 C 336.496094 128.140625 336.53125 127.792969 336.601562 127.445312 C 336.667969 127.101562 336.769531 126.765625 336.90625 126.4375 C 337.039062 126.113281 337.207031 125.804688 337.402344 125.511719 C 337.597656 125.21875 337.820312 124.945312 338.070312 124.695312 C 338.320312 124.445312 338.589844 124.222656 338.886719 124.027344 C 339.179688 123.832031 339.488281 123.667969 339.8125 123.53125 C 340.140625 123.394531 340.476562 123.292969 340.824219 123.226562 C 341.167969 123.15625 341.519531 123.121094 341.871094 123.121094 C 342.222656 123.121094 342.574219 123.15625 342.917969 123.226562 C 343.265625 123.292969 343.601562 123.394531 343.925781 123.53125 C 344.253906 123.667969 344.5625 123.832031 344.855469 124.027344 C 345.148438 124.222656 345.421875 124.445312 345.671875 124.695312 C 345.921875 124.945312 346.144531 125.21875 346.339844 125.511719 C 346.535156 125.804688 346.699219 126.113281 346.835938 126.4375 C 346.972656 126.765625 347.074219 127.101562 347.140625 127.445312 C 347.210938 127.792969 347.246094 128.140625 347.246094 128.496094 Z M 347.246094 128.496094 " fill-opacity="1" fill-rule="nonzero"/><path fill="#ffffff" d="M 341.503906 124.953125 C 341.503906 125.148438 341.46875 125.335938 341.390625 125.515625 C 341.316406 125.699219 341.210938 125.855469 341.074219 125.996094 C 340.933594 126.132812 340.777344 126.238281 340.59375 126.3125 C 340.414062 126.386719 340.226562 126.425781 340.03125 126.425781 C 339.835938 126.425781 339.648438 126.386719 339.46875 126.3125 C 339.289062 126.238281 339.128906 126.132812 338.992188 125.996094 C 338.851562 125.855469 338.746094 125.699219 338.671875 125.515625 C 338.597656 125.335938 338.558594 125.148438 338.558594 124.953125 C 338.558594 124.757812 338.597656 124.570312 338.671875 124.390625 C 338.746094 124.210938 338.851562 124.050781 338.992188 123.914062 C 339.128906 123.773438 339.289062 123.667969 339.46875 123.59375 C 339.648438 123.519531 339.835938 123.480469 340.03125 123.480469 C 340.226562 123.480469 340.414062 123.519531 340.59375 123.59375 C 340.777344 123.667969 340.933594 123.773438 341.074219 123.914062 C 341.210938 124.050781 341.316406 124.210938 341.390625 124.390625 C 341.46875 124.570312 341.503906 124.757812 341.503906 124.953125 Z M 341.503906 124.953125 " fill-opacity="1" fill-rule="nonzero"/><path stroke-linecap="butt" transform="matrix(0.678586, 0, 0, 0.678358, -299.094477, -16.090287)" fill="none" stroke-linejoin="miter" d="M 955.877472 215.980468 C 955.877472 215.980468 949.71231 196.401953 929.702877 207.780525 " stroke="#231f20" stroke-width="1.2" stroke-opacity="1" stroke-miterlimit="10"/><path fill="#ffffff" d="M 390.449219 140.285156 C 390.449219 140.285156 390.449219 139.796875 390.824219 139.390625 C 392.046875 138.054688 394.863281 135.5625 399.230469 135.617188 C 404.125 135.6875 406.757812 140.3125 407.652344 141.96875 C 407.808594 142.253906 407.789062 142.503906 407.789062 142.503906 C 407.789062 142.503906 407.800781 142.773438 407.632812 142.964844 C 406.839844 143.859375 404.199219 146.355469 399.5625 146.363281 C 396.808594 146.363281 392.953125 144.828125 390.605469 141.058594 C 390.445312 140.792969 390.4375 140.460938 390.445312 140.285156 Z M 390.449219 140.285156 " fill-opacity="1" fill-rule="nonzero"/><path fill="#26130f" d="M 405.578125 141.273438 C 405.578125 141.605469 405.542969 141.933594 405.480469 142.257812 C 405.414062 142.582031 405.320312 142.898438 405.191406 143.203125 C 405.066406 143.511719 404.910156 143.800781 404.726562 144.074219 C 404.542969 144.351562 404.332031 144.605469 404.101562 144.839844 C 403.867188 145.074219 403.609375 145.28125 403.335938 145.464844 C 403.058594 145.648438 402.769531 145.804688 402.464844 145.933594 C 402.15625 146.058594 401.84375 146.152344 401.519531 146.21875 C 401.195312 146.285156 400.867188 146.316406 400.535156 146.316406 C 400.203125 146.316406 399.875 146.285156 399.550781 146.21875 C 399.226562 146.152344 398.910156 146.058594 398.605469 145.933594 C 398.300781 145.804688 398.007812 145.648438 397.734375 145.464844 C 397.457031 145.28125 397.203125 145.074219 396.96875 144.839844 C 396.734375 144.605469 396.527344 144.351562 396.34375 144.074219 C 396.160156 143.800781 396.003906 143.511719 395.875 143.203125 C 395.75 142.898438 395.652344 142.582031 395.589844 142.257812 C 395.523438 141.933594 395.492188 141.605469 395.492188 141.273438 C 395.492188 140.945312 395.523438 140.617188 395.589844 140.292969 C 395.652344 139.96875 395.75 139.652344 395.875 139.347656 C 396.003906 139.039062 396.160156 138.75 396.34375 138.476562 C 396.527344 138.199219 396.734375 137.945312 396.96875 137.710938 C 397.203125 137.476562 397.457031 137.269531 397.734375 137.085938 C 398.007812 136.902344 398.300781 136.746094 398.605469 136.617188 C 398.910156 136.492188 399.226562 136.398438 399.550781 136.332031 C 399.875 136.265625 400.203125 136.234375 400.535156 136.234375 C 400.867188 136.234375 401.195312 136.265625 401.519531 136.332031 C 401.84375 136.398438 402.15625 136.492188 402.464844 136.617188 C 402.769531 136.746094 403.058594 136.902344 403.335938 137.085938 C 403.609375 137.269531 403.867188 137.476562 404.101562 137.710938 C 404.332031 137.945312 404.542969 138.199219 404.726562 138.476562 C 404.910156 138.75 405.066406 139.039062 405.191406 139.347656 C 405.320312 139.652344 405.414062 139.96875 405.480469 140.292969 C 405.542969 140.617188 405.578125 140.945312 405.578125 141.273438 Z M 405.578125 141.273438 " fill-opacity="1" fill-rule="nonzero"/><path fill="#ffffff" d="M 399.511719 137.871094 C 399.511719 138.058594 399.472656 138.238281 399.402344 138.410156 C 399.332031 138.582031 399.230469 138.734375 399.097656 138.867188 C 398.964844 139 398.8125 139.101562 398.640625 139.171875 C 398.464844 139.246094 398.285156 139.28125 398.097656 139.28125 C 397.910156 139.28125 397.730469 139.246094 397.558594 139.171875 C 397.386719 139.101562 397.234375 139 397.101562 138.867188 C 396.96875 138.734375 396.867188 138.582031 396.792969 138.410156 C 396.722656 138.238281 396.6875 138.058594 396.6875 137.871094 C 396.6875 137.683594 396.722656 137.503906 396.792969 137.328125 C 396.867188 137.15625 396.96875 137.003906 397.101562 136.871094 C 397.234375 136.738281 397.386719 136.636719 397.558594 136.566406 C 397.730469 136.496094 397.910156 136.457031 398.097656 136.457031 C 398.285156 136.457031 398.464844 136.496094 398.636719 136.566406 C 398.8125 136.636719 398.964844 136.738281 399.097656 136.871094 C 399.230469 137.003906 399.332031 137.15625 399.402344 137.328125 C 399.472656 137.503906 399.511719 137.683594 399.511719 137.871094 Z M 399.511719 137.871094 " fill-opacity="1" fill-rule="nonzero"/><path stroke-linecap="butt" transform="matrix(0.678586, 0, 0, 0.678358, -299.094477, -16.090287)" fill="none" stroke-linejoin="miter" d="M 1041.619849 233.24987 C 1041.619849 233.24987 1033.641404 214.897891 1016.469903 229.489643 " stroke="#231f20" stroke-width="1.2" stroke-opacity="1" stroke-miterlimit="10"/><path fill="#e2c799" d="M 259.210938 70.488281 C 259.210938 70.488281 274.8125 31.773438 282.570312 22.496094 C 290.324219 13.214844 368.234375 2.199219 391.203125 20.980469 C 391.203125 20.980469 395.179688 29.46875 393.734375 32.851562 " fill-opacity="1" fill-rule="nonzero"/><path fill="#f7daa6" d="M 257.710938 113.332031 C 257.710938 113.332031 200.773438 113.949219 199.292969 106.789062 C 195.859375 90.128906 234.761719 78.289062 234.761719 78.289062 C 234.761719 78.289062 327.886719 46.949219 361.609375 34.398438 C 387.144531 24.894531 445.695312 10.855469 455.691406 38.496094 C 465.6875 66.132812 415.082031 92.910156 415.082031 92.910156 C 415.082031 92.910156 319.429688 73.617188 258.609375 102.351562 C 258.609375 102.351562 256.523438 108.496094 257.710938 113.332031 Z M 257.710938 113.332031 " fill-opacity="1" fill-rule="nonzero"/><path stroke-linecap="butt" transform="matrix(0.678586, 0, 0, 0.678358, -299.094477, -16.090287)" fill="none" stroke-linejoin="miter" d="M 1052.441982 160.682679 C 1052.441982 160.682679 1122.169905 113.279639 1082.910891 86.451315 C 1051.330986 64.868881 993.202317 85.21902 933.599996 115.519652 C 873.997675 145.808766 786.240539 162.087726 786.240539 162.087726 C 786.240539 162.087726 749.520121 181.63169 820.531733 190.810559 " stroke="#231f20" stroke-width="2" stroke-opacity="1" stroke-miterlimit="10"/><path fill="#caa88a" d="M 601.910156 426.472656 C 605.371094 426.320312 608.746094 426.226562 611.980469 426.191406 C 611.980469 426.191406 618.972656 410.054688 649.332031 411.058594 L 669.585938 404.6875 C 669.585938 404.6875 681.652344 404.140625 674.695312 413.691406 C 674.695312 413.691406 667.4375 417.742188 661.5 419.902344 L 672.144531 430.582031 C 672.144531 430.582031 672.03125 428.425781 679.378906 432.175781 C 685.351562 435.226562 683.035156 436.511719 683.035156 436.511719 C 683.035156 436.511719 691.039062 430.472656 700.265625 426.171875 C 706.273438 423.371094 709.570312 418.589844 715.472656 423.078125 C 715.472656 423.078125 720.535156 427.847656 710.953125 433.925781 L 691.160156 451.109375 L 652.332031 456.292969 L 625.335938 452.84375 L 614.941406 458.144531 " fill-opacity="1" fill-rule="nonzero"/><path fill="#be9e7d" d="M 752.355469 367.648438 C 752.355469 367.648438 742.902344 385.300781 749.566406 406.792969 C 749.566406 406.792969 745.664062 441.265625 705.1875 448.207031 C 705.1875 448.207031 660.894531 441.199219 686.0625 409.675781 C 686.0625 409.675781 690.039062 407.945312 689.15625 401.203125 C 689.15625 401.203125 741.503906 396.800781 752.355469 367.648438 Z M 752.355469 367.648438 " fill-opacity="1" fill-rule="nonzero"/><path fill="#be9e7d" d="M 675.246094 285.773438 C 675.246094 285.773438 663.492188 293.269531 660.589844 319.75 C 660.269531 322.640625 661.832031 328.449219 660.703125 330.640625 C 651.882812 347.773438 654.117188 364.535156 658.769531 374.109375 C 659.925781 376.484375 660.351562 379.285156 661.320312 381.476562 C 668.378906 397.429688 692.597656 402.199219 692.597656 402.199219 C 692.597656 402.199219 740.695312 398.753906 749.992188 373.972656 C 749.992188 373.972656 759.554688 388.183594 771.539062 371.605469 C 771.539062 371.605469 785.082031 353.460938 775.957031 347.253906 C 775.957031 347.253906 765.886719 342.097656 758.421875 352.535156 C 758.421875 352.535156 770.046875 307.773438 755.46875 298.808594 C 755.46875 298.808594 721.867188 257.171875 675.246094 285.777344 Z M 675.246094 285.773438 " fill-opacity="1" fill-rule="nonzero"/><path stroke-linecap="butt" transform="matrix(0.678586, 0, 0, 0.678358, -299.094477, -16.090287)" fill="none" stroke-linejoin="miter" d="M 1446.010719 533.08907 C 1446.010719 533.08907 1431.959216 550.462123 1453.430788 554.550578 " stroke="#231f20" stroke-width="1" stroke-opacity="1" stroke-miterlimit="10"/><path stroke-linecap="butt" transform="matrix(0.678586, 0, 0, 0.678358, -299.094477, -16.090287)" fill="none" stroke-linejoin="miter" d="M 1581.379483 549.437131 C 1581.379483 549.437131 1576.440446 531.7704 1560.880752 558.132295 C 1560.880752 558.132295 1573.101703 546.972541 1574.172403 557.550698 " stroke="#231f20" stroke-width="1" stroke-opacity="1" stroke-miterlimit="10"/><path fill="#26130f" d="M 688.777344 401.09375 C 688.777344 401.09375 697.621094 402.539062 707.40625 399.871094 C 707.40625 399.871094 715.980469 398.910156 727.226562 393.820312 C 727.226562 393.820312 719.136719 401.09375 704.078125 404.066406 C 704.078125 404.066406 696.34375 406.03125 688.554688 403.617188 C 688.554688 403.617188 689.015625 403.808594 688.785156 401.101562 Z M 688.777344 401.09375 " fill-opacity="1" fill-rule="nonzero"/><path fill="#26130f" d="M 708.429688 324.351562 C 708.429688 324.351562 726.960938 324.113281 734.054688 330.414062 C 734.054688 330.414062 729.621094 321.929688 708.714844 321.007812 C 708.714844 321.007812 704.71875 322.269531 708.429688 324.351562 Z M 708.429688 324.351562 " fill-opacity="1" fill-rule="nonzero"/><path fill="#26130f" d="M 660.984375 320.058594 C 661.347656 319.296875 670.808594 318.421875 679.550781 319.121094 C 679.550781 319.121094 683.476562 320.878906 679.378906 322.472656 C 679.378906 322.472656 663.492188 319.535156 661.21875 323.507812 C 661.21875 323.507812 660.066406 321.9375 660.984375 320.058594 Z M 660.984375 320.058594 " fill-opacity="1" fill-rule="nonzero"/><path fill="#ffffff" d="M 723.496094 338.664062 C 723.496094 338.664062 723.546875 338.238281 723.277344 337.835938 C 722.375 336.519531 720.222656 334.011719 716.410156 333.527344 C 712.132812 332.992188 709.277344 336.710938 708.292969 338.039062 C 708.125 338.269531 708.109375 338.488281 708.109375 338.488281 C 708.109375 338.488281 708.0625 338.726562 708.183594 338.910156 C 708.769531 339.785156 710.765625 342.28125 714.800781 342.847656 C 717.203125 343.1875 720.746094 342.320312 723.25 339.316406 C 723.425781 339.105469 723.472656 338.820312 723.488281 338.664062 Z M 723.496094 338.664062 " fill-opacity="1" fill-rule="nonzero"/><path fill="#26130f" d="M 719.035156 338.3125 C 719.035156 338.601562 719.007812 338.894531 718.949219 339.179688 C 718.894531 339.464844 718.808594 339.746094 718.695312 340.015625 C 718.585938 340.285156 718.449219 340.539062 718.285156 340.785156 C 718.125 341.027344 717.9375 341.25 717.730469 341.457031 C 717.523438 341.664062 717.300781 341.847656 717.058594 342.011719 C 716.8125 342.171875 716.558594 342.3125 716.289062 342.421875 C 716.019531 342.535156 715.738281 342.617188 715.453125 342.675781 C 715.167969 342.734375 714.875 342.761719 714.585938 342.761719 C 714.292969 342.761719 714.003906 342.734375 713.714844 342.675781 C 713.429688 342.617188 713.152344 342.535156 712.878906 342.421875 C 712.609375 342.3125 712.355469 342.171875 712.109375 342.011719 C 711.867188 341.847656 711.644531 341.664062 711.4375 341.457031 C 711.230469 341.25 711.046875 341.027344 710.882812 340.785156 C 710.71875 340.539062 710.582031 340.285156 710.472656 340.015625 C 710.359375 339.746094 710.273438 339.464844 710.21875 339.179688 C 710.160156 338.894531 710.132812 338.601562 710.132812 338.3125 C 710.132812 338.019531 710.160156 337.730469 710.21875 337.441406 C 710.273438 337.15625 710.359375 336.878906 710.472656 336.609375 C 710.582031 336.339844 710.71875 336.082031 710.882812 335.839844 C 711.046875 335.597656 711.230469 335.371094 711.4375 335.164062 C 711.644531 334.957031 711.867188 334.773438 712.109375 334.609375 C 712.355469 334.449219 712.609375 334.3125 712.878906 334.199219 C 713.152344 334.089844 713.429688 334.003906 713.714844 333.945312 C 714.003906 333.890625 714.292969 333.859375 714.585938 333.859375 C 714.875 333.859375 715.167969 333.890625 715.453125 333.945312 C 715.738281 334.003906 716.019531 334.089844 716.289062 334.199219 C 716.558594 334.3125 716.8125 334.449219 717.058594 334.609375 C 717.300781 334.773438 717.523438 334.957031 717.730469 335.164062 C 717.9375 335.371094 718.125 335.597656 718.285156 335.839844 C 718.449219 336.082031 718.585938 336.339844 718.695312 336.609375 C 718.808594 336.878906 718.894531 337.15625 718.949219 337.441406 C 719.007812 337.730469 719.035156 338.019531 719.035156 338.3125 Z M 719.035156 338.3125 " fill-opacity="1" fill-rule="nonzero"/><path fill="#ffffff" d="M 718.980469 339.28125 C 718.980469 339.441406 718.949219 339.597656 718.886719 339.75 C 718.828125 339.898438 718.738281 340.03125 718.625 340.144531 C 718.507812 340.257812 718.378906 340.347656 718.226562 340.410156 C 718.078125 340.472656 717.921875 340.503906 717.761719 340.503906 C 717.597656 340.503906 717.441406 340.472656 717.292969 340.410156 C 717.144531 340.347656 717.011719 340.257812 716.894531 340.144531 C 716.78125 340.03125 716.695312 339.898438 716.632812 339.75 C 716.570312 339.597656 716.539062 339.441406 716.539062 339.28125 C 716.539062 339.121094 716.570312 338.964844 716.632812 338.8125 C 716.695312 338.664062 716.78125 338.53125 716.894531 338.417969 C 717.011719 338.304688 717.144531 338.214844 717.292969 338.152344 C 717.441406 338.089844 717.597656 338.058594 717.761719 338.058594 C 717.921875 338.058594 718.078125 338.089844 718.226562 338.152344 C 718.378906 338.214844 718.507812 338.304688 718.625 338.417969 C 718.738281 338.53125 718.828125 338.664062 718.886719 338.8125 C 718.949219 338.964844 718.980469 339.121094 718.980469 339.28125 Z M 718.980469 339.28125 " fill-opacity="1" fill-rule="nonzero"/><path stroke-linecap="butt" transform="matrix(0.678586, 0, 0, 0.678358, -299.094477, -16.090287)" fill="none" stroke-linejoin="miter" d="M 1484.158738 521.998417 C 1484.158738 521.998417 1493.708694 507.930678 1506.87946 521.722015 " stroke="#231f20" stroke-width="1" stroke-opacity="1" stroke-miterlimit="10"/><path fill="#ffffff" d="M 677.777344 334.8125 C 677.777344 334.8125 677.894531 334.425781 677.695312 334.023438 C 677.050781 332.695312 675.4375 330.082031 672.003906 329.105469 C 668.164062 328.015625 665.011719 331.019531 663.929688 332.097656 C 663.738281 332.28125 663.695312 332.484375 663.695312 332.484375 C 663.695312 332.484375 663.621094 332.695312 663.710938 332.878906 C 664.117188 333.765625 665.597656 336.332031 669.222656 337.421875 C 671.378906 338.074219 674.75 337.777344 677.464844 335.375 C 677.65625 335.203125 677.738281 334.945312 677.769531 334.8125 Z M 677.777344 334.8125 " fill-opacity="1" fill-rule="nonzero"/><path fill="#26130f" d="M 673.765625 333.222656 C 673.765625 333.492188 673.742188 333.761719 673.6875 334.027344 C 673.636719 334.289062 673.558594 334.546875 673.453125 334.796875 C 673.351562 335.046875 673.222656 335.28125 673.074219 335.507812 C 672.925781 335.730469 672.753906 335.941406 672.5625 336.128906 C 672.371094 336.320312 672.164062 336.492188 671.941406 336.640625 C 671.714844 336.792969 671.476562 336.917969 671.230469 337.019531 C 670.980469 337.125 670.722656 337.203125 670.457031 337.253906 C 670.191406 337.308594 669.925781 337.335938 669.65625 337.335938 C 669.386719 337.335938 669.117188 337.308594 668.851562 337.253906 C 668.589844 337.203125 668.332031 337.125 668.082031 337.019531 C 667.832031 336.917969 667.59375 336.792969 667.371094 336.640625 C 667.144531 336.492188 666.9375 336.320312 666.746094 336.128906 C 666.554688 335.941406 666.386719 335.730469 666.234375 335.507812 C 666.085938 335.28125 665.960938 335.046875 665.855469 334.796875 C 665.753906 334.546875 665.675781 334.289062 665.621094 334.027344 C 665.570312 333.761719 665.542969 333.492188 665.542969 333.222656 C 665.542969 332.953125 665.570312 332.6875 665.621094 332.421875 C 665.675781 332.15625 665.753906 331.898438 665.855469 331.648438 C 665.960938 331.402344 666.085938 331.164062 666.234375 330.941406 C 666.386719 330.714844 666.554688 330.507812 666.746094 330.316406 C 666.9375 330.125 667.144531 329.957031 667.371094 329.804688 C 667.59375 329.65625 667.832031 329.527344 668.082031 329.425781 C 668.332031 329.324219 668.589844 329.246094 668.851562 329.191406 C 669.117188 329.140625 669.386719 329.113281 669.65625 329.113281 C 669.925781 329.113281 670.191406 329.140625 670.457031 329.191406 C 670.722656 329.246094 670.980469 329.324219 671.230469 329.425781 C 671.476562 329.527344 671.714844 329.65625 671.941406 329.804688 C 672.164062 329.957031 672.371094 330.125 672.5625 330.316406 C 672.753906 330.507812 672.925781 330.714844 673.074219 330.941406 C 673.222656 331.164062 673.351562 331.402344 673.453125 331.648438 C 673.558594 331.898438 673.636719 332.15625 673.6875 332.421875 C 673.742188 332.6875 673.765625 332.953125 673.765625 333.222656 Z M 673.765625 333.222656 " fill-opacity="1" fill-rule="nonzero"/><path fill="#ffffff" d="M 673.359375 334.730469 C 673.359375 334.882812 673.332031 335.03125 673.273438 335.171875 C 673.214844 335.3125 673.128906 335.4375 673.023438 335.546875 C 672.914062 335.652344 672.789062 335.738281 672.648438 335.792969 C 672.507812 335.851562 672.359375 335.882812 672.207031 335.882812 C 672.054688 335.882812 671.90625 335.851562 671.765625 335.792969 C 671.625 335.738281 671.5 335.652344 671.390625 335.546875 C 671.28125 335.4375 671.199219 335.3125 671.140625 335.171875 C 671.082031 335.03125 671.054688 334.882812 671.054688 334.730469 C 671.054688 334.578125 671.082031 334.429688 671.140625 334.289062 C 671.199219 334.148438 671.28125 334.023438 671.390625 333.914062 C 671.5 333.804688 671.625 333.722656 671.765625 333.664062 C 671.90625 333.605469 672.054688 333.578125 672.207031 333.578125 C 672.359375 333.578125 672.507812 333.605469 672.648438 333.664062 C 672.789062 333.722656 672.914062 333.804688 673.023438 333.914062 C 673.128906 334.023438 673.214844 334.148438 673.273438 334.289062 C 673.332031 334.429688 673.359375 334.578125 673.359375 334.730469 Z M 673.359375 334.730469 " fill-opacity="1" fill-rule="nonzero"/><path stroke-linecap="butt" transform="matrix(0.678586, 0, 0, 0.678358, -299.094477, -16.090287)" fill="none" stroke-linejoin="miter" d="M 1419.007195 513.447213 C 1419.007195 513.447213 1429.547262 500.968789 1439.557735 516.412782 " stroke="#231f20" stroke-width="1" stroke-opacity="1" stroke-miterlimit="10"/><path fill="#dc3b28" d="M 686.054688 409.679688 C 686.054688 409.679688 670.902344 430.601562 696.160156 436.375 C 696.160156 436.375 734.40625 445.03125 749.566406 406.796875 C 749.566406 406.796875 775.140625 410.378906 792.484375 429.820312 C 812.726562 452.511719 809.914062 521.71875 809.914062 521.71875 C 809.914062 521.71875 791.046875 526.121094 790.417969 534.921875 C 790.417969 534.921875 813.9375 577.59375 808.96875 639.957031 C 808.96875 639.957031 684.570312 674.65625 631.890625 634.257812 C 631.890625 634.257812 624.96875 569.148438 637.890625 524.792969 C 637.890625 524.792969 621.347656 517.019531 614.324219 494.679688 C 614.324219 494.679688 622.269531 461.597656 635.339844 441.171875 C 647.214844 422.605469 650.660156 422.019531 686.152344 409.613281 " fill-opacity="1" fill-rule="nonzero"/><path fill="#b6302e" d="M 749.652344 406.730469 C 749.652344 406.730469 739.136719 440.417969 696.25 436.308594 C 696.25 436.308594 671.269531 429.964844 686.144531 409.613281 C 686.144531 409.613281 680.867188 410.785156 679.140625 411.933594 C 679.140625 411.933594 664.421875 437.085938 695.375 442.527344 C 695.375 442.527344 729.867188 446.019531 746.199219 425.390625 C 746.199219 425.390625 753.367188 415.9375 755.660156 408.777344 L 749.652344 406.722656 Z M 749.652344 406.730469 " fill-opacity="1" fill-rule="nonzero"/><path stroke-linecap="butt" transform="matrix(0.678586, 0, 0, 0.678358, -299.094477, -16.090287)" fill="none" stroke-linejoin="miter" d="M 1381.872312 797.468125 L 1388.849134 717.541716 " stroke="#be1e2d" stroke-width="1" stroke-opacity="1" stroke-miterlimit="10"/><path fill="#ae8578" d="M 705.390625 370.777344 C 705.390625 370.777344 698.285156 367.882812 689.367188 369.582031 C 689.367188 369.582031 681.984375 367.417969 675.082031 368.328125 C 675.082031 368.328125 674.765625 380.527344 685.914062 384.210938 C 697.054688 387.890625 704.976562 377.878906 705.382812 370.777344 Z M 705.390625 370.777344 " fill-opacity="1" fill-rule="nonzero"/><path fill="#803435" d="M 703.488281 371.476562 C 703.488281 371.476562 702.65625 382.222656 688.6875 380.992188 C 676.011719 379.882812 676.753906 370.316406 676.753906 370.316406 C 676.753906 370.316406 690.976562 372.214844 703.488281 371.476562 Z M 703.488281 371.476562 " fill-opacity="1" fill-rule="nonzero"/><path fill="#ffffff" d="M 701.746094 371.476562 C 701.746094 371.476562 697.851562 376.144531 687.089844 374.671875 C 687.089844 374.671875 680.398438 374.421875 677.914062 370.636719 C 677.914062 370.636719 691.8125 372.160156 701.738281 371.484375 Z M 701.746094 371.476562 " fill-opacity="1" fill-rule="nonzero"/><path stroke-linecap="butt" transform="matrix(0.678586, 0, 0, 0.678358, -299.094477, -16.090287)" fill="none" stroke-linejoin="miter" d="M 1560.149682 678.810807 C 1560.149682 678.810807 1541.608145 705.690956 1551.509245 767.207802 " stroke="#be1e2d" stroke-width="1" stroke-opacity="1" stroke-miterlimit="10"/><path fill="#f8e2d9" d="M 852.046875 353.539062 L 848.875 345.914062 L 856.152344 348.261719 Z M 852.046875 353.539062 " fill-opacity="1" fill-rule="nonzero"/><path fill="#231f20" d="M 666.933594 277.503906 C 661.160156 301.457031 661.777344 313.476562 661.777344 313.476562 C 666.90625 289.457031 673.976562 287.792969 673.976562 287.792969 C 703.503906 272.769531 748.398438 297.441406 748.398438 297.441406 C 761.597656 318.246094 758 352.652344 758 352.652344 C 767.671875 341.703125 775.644531 346.246094 775.644531 346.246094 C 794.269531 299.066406 766.882812 283.269531 766.882812 283.269531 C 766.882812 283.269531 747.78125 256.726562 711.253906 256.699219 C 674.722656 256.675781 666.933594 277.511719 666.933594 277.511719 Z M 666.933594 277.503906 " fill-opacity="1" fill-rule="nonzero"/><path fill="#be9e7d" d="M 805.753906 522.171875 C 805.753906 522.171875 774.054688 585.550781 727.4375 579.027344 C 680.816406 572.5 681.128906 447.203125 681.128906 447.203125 L 680.6875 444.371094 C 680.6875 444.371094 669.738281 434.820312 666.152344 427.855469 C 666.152344 427.855469 664.164062 421.085938 667.75 420.09375 C 667.75 420.09375 666.554688 412.332031 671.332031 410.9375 C 671.332031 410.9375 669.539062 405.957031 680.289062 405.359375 L 682.480469 394.8125 C 682.480469 394.8125 684.671875 391.628906 691.640625 391.230469 C 698.609375 390.828125 695.625 396.210938 695.625 396.210938 L 691.246094 398.792969 L 691.246094 403.167969 L 693.832031 406.949219 L 695.429688 407.347656 C 695.429688 407.347656 694.234375 395.207031 700.207031 391.820312 C 706.175781 388.433594 706.976562 389.628906 706.976562 389.628906 C 706.976562 389.628906 710.160156 391.019531 705.980469 402.367188 C 705.980469 402.367188 705.78125 412.125 707.769531 418.289062 C 709.757812 424.460938 701.203125 440.179688 701.203125 440.179688 L 701.859375 442.738281 C 701.859375 442.738281 730.714844 500.730469 738.171875 524.03125 C 738.171875 524.03125 746.289062 513.667969 753.746094 504.347656 " fill-opacity="1" fill-rule="nonzero"/><path fill="#be9e7d" d="M 616.167969 500.519531 C 602.761719 540.359375 608.886719 572.921875 608.886719 572.921875 C 634.0625 597.152344 711.496094 584.332031 711.496094 584.332031 L 723.546875 586.027344 C 723.546875 586.027344 730.015625 588.449219 735.871094 587.640625 C 741.726562 586.835938 755.265625 590.265625 755.265625 590.265625 C 755.265625 590.265625 759.308594 592.085938 758.300781 586.425781 L 748.804688 584.007812 L 742.949219 581.378906 L 763.761719 582.996094 C 763.761719 582.996094 770.226562 582.792969 768.003906 577.140625 C 768.003906 577.140625 773.253906 576.539062 769.414062 570.472656 L 759.308594 567.644531 L 758.503906 562.792969 L 767.59375 566.226562 C 767.59375 566.226562 773.253906 566.828125 771.234375 561.78125 C 769.210938 556.734375 756.875 555.847656 756.875 555.847656 L 695.753906 557.503906 C 695.753906 557.503906 665.917969 548.804688 650.382812 548.390625 L 646.148438 529.859375 " fill-opacity="1" fill-rule="nonzero"/><path stroke-linecap="butt" transform="matrix(0.678586, 0, 0, 0.678358, -299.094477, -16.090287)" fill="none" stroke-linejoin="miter" d="M 1472.409816 635.438637 C 1471.21823 629.340506 1463.228272 623.622428 1463.228272 623.622428 L 1459.4175 618.048309 L 1459.4175 611.598916 C 1459.4175 611.598916 1465.087607 608.97885 1465.870484 607.792622 C 1466.647605 606.600636 1467.211738 602.938302 1464.920669 601.141686 C 1462.629601 599.339311 1452.561563 601.648424 1452.561563 601.648424 C 1452.561563 601.648424 1444.640683 603.450799 1443.650573 619.689449 " stroke="#603913" stroke-width="1" stroke-opacity="1" stroke-miterlimit="10"/><path stroke-linecap="butt" transform="matrix(0.678586, 0, 0, 0.678358, -299.094477, -16.090287)" fill="none" stroke-linejoin="miter" d="M 1465.571149 624.209783 C 1465.571149 624.209783 1465.398455 605.708086 1472.611291 601.320196 C 1479.818371 596.938063 1482.587226 598.089741 1482.587226 598.089741 C 1488.337923 601.59084 1481.11933 616.86784 1481.11933 616.86784 C 1481.11933 616.86784 1481.251728 633.647779 1483.761542 640.339025 C 1486.271356 647.03027 1474.280663 671.618582 1474.280663 671.618582 L 1476.468115 679.380887 " stroke="#603913" stroke-width="1" stroke-opacity="1" stroke-miterlimit="10"/><g clip-path="url(#c633392d1c)"><path fill="#a97c50" d="M -113.03125 614.363281 L -107.488281 1059.65625 L -85.304688 1059.65625 L -46.492188 695.65625 L 925.71875 695.65625 L 964.535156 1057.804688 L 988.5625 1057.804688 L 988.5625 614.363281 Z M -113.03125 614.363281 " fill-opacity="1" fill-rule="nonzero"/></g><g clip-path="url(#5e684cc659)"><path fill="#f8a69b" d="M 1017.578125 579.277344 L 1059.992188 751.132812 C 1059.992188 751.132812 1021.800781 770.222656 976.179688 745.828125 C 976.179688 745.828125 962.390625 767.039062 929.5 749.011719 C 929.5 749.011719 917.828125 758.554688 866.90625 747.953125 C 866.90625 747.953125 830.832031 743.710938 813.863281 750.074219 C 813.863281 750.074219 797.949219 762.800781 772.488281 749.015625 C 772.488281 749.015625 750.210938 759.621094 730.050781 749.015625 C 730.050781 749.015625 703.523438 754.320312 671.699219 744.777344 C 639.871094 735.230469 590.007812 761.742188 590.007812 761.742188 C 590.007812 761.742188 581.519531 745.835938 552.878906 750.074219 C 552.878906 750.074219 527.417969 764.925781 507.257812 752.199219 C 507.257812 752.199219 478.613281 742.652344 413.894531 751.140625 C 413.894531 751.140625 399.042969 762.808594 385.253906 751.140625 C 385.253906 751.140625 210.773438 756.167969 178.949219 742.382812 C 178.949219 742.382812 148.363281 733.007812 133.082031 752.871094 C 133.082031 752.871094 111.679688 720.78125 76.523438 736.058594 C 76.523438 736.058594 53.59375 762.035156 15.382812 740.644531 C 15.382812 740.644531 -61.046875 707.027344 -90.089844 723.835938 C -90.089844 723.835938 -120.660156 742.171875 -163.457031 722.308594 L -137.476562 578.675781 L 1017.578125 579.285156 Z M 1017.578125 579.277344 " fill-opacity="1" fill-rule="nonzero"/></g><g clip-path="url(#fa70ae0abc)"><path stroke-linecap="butt" transform="matrix(0.678586, 0, 0, 0.678358, -299.094477, -16.090287)" fill="none" stroke-linejoin="miter" d="M 1516.607867 1127.878601 L 1532.938926 929.542485 " stroke="#754c29" stroke-width="0.8" stroke-opacity="1" stroke-miterlimit="10"/></g><g clip-path="url(#4ae56eff99)"><path stroke-linecap="butt" transform="matrix(0.678586, 0, 0, 0.678358, -299.094477, -16.090287)" fill="none" stroke-linejoin="miter" d="M 1255.518154 1129.439124 C 1255.518154 1129.439124 1226.269613 1006.848828 1218.538696 926.962727 " stroke="#754c29" stroke-width="0.8" stroke-opacity="1" stroke-miterlimit="10"/></g><g clip-path="url(#bbed3adabe)"><path stroke-linecap="butt" transform="matrix(0.678586, 0, 0, 0.678358, -299.094477, -16.090287)" fill="none" stroke-linejoin="miter" d="M 1310.239003 1146.639425 C 1310.239003 1146.639425 1338.382305 1063.551662 1331.92932 950.157509 " stroke="#754c29" stroke-width="0.8" stroke-opacity="1" stroke-miterlimit="10"/></g><g clip-path="url(#86bf9d0162)"><path stroke-linecap="butt" transform="matrix(0.678586, 0, 0, 0.678358, -299.094477, -16.090287)" fill="none" stroke-linejoin="miter" d="M 554.762024 1109.57269 C 554.762024 1109.57269 525.507726 986.982393 517.782566 907.090535 " stroke="#754c29" stroke-width="0.8" stroke-opacity="1" stroke-miterlimit="10"/></g><g clip-path="url(#b51373ad90)"><path stroke-linecap="butt" transform="matrix(0.678586, 0, 0, 0.678358, -299.094477, -16.090287)" fill="none" stroke-linejoin="miter" d="M 636.572743 1135.802142 C 636.572743 1135.802142 664.710289 1052.70862 658.257304 939.320226 " stroke="#754c29" stroke-width="0.8" stroke-opacity="1" stroke-miterlimit="10"/></g><g clip-path="url(#1e1dee2e53)"><path stroke-linecap="butt" transform="matrix(0.678586, 0, 0, 0.678358, -299.094477, -16.090287)" fill="none" stroke-linejoin="miter" d="M 1050.709289 1130.999647 L 1039.432397 979.790168 " stroke="#754c29" stroke-width="0.8" stroke-opacity="1" stroke-miterlimit="10"/></g><g clip-path="url(#32a1bd6c6f)"><path stroke-linecap="butt" transform="matrix(0.678586, 0, 0, 0.678358, -299.094477, -16.090287)" fill="none" stroke-linejoin="miter" d="M 1008.969244 1129.462158 L 1010.569538 943.397163 " stroke="#754c29" stroke-width="0.8" stroke-opacity="1" stroke-miterlimit="10"/></g><g clip-path="url(#caf2804f59)"><path stroke-linecap="butt" transform="matrix(0.678586, 0, 0, 0.678358, -299.094477, -16.090287)" fill="none" stroke-linejoin="miter" d="M 1579.140223 1127.878601 L 1573.032626 1013.90861 " stroke="#754c29" stroke-width="0.8" stroke-opacity="1" stroke-miterlimit="10"/></g><g clip-path="url(#5effab58ed)"><path stroke-linecap="butt" transform="matrix(0.678586, 0, 0, 0.678358, -299.094477, -16.090287)" fill="none" stroke-linejoin="miter" d="M 1640.118337 1129.439124 L 1632.847936 977.250719 " stroke="#754c29" stroke-width="0.8" stroke-opacity="1" stroke-miterlimit="10"/></g><g clip-path="url(#322b58899a)"><path fill="#fbc5b3" d="M -137.46875 578.660156 L 1017.578125 579.277344 L 919.164062 544.9375 L -47.8125 544.9375 Z M -137.46875 578.660156 " fill-opacity="1" fill-rule="nonzero"/></g><path fill="#ffffff" d="M 620.550781 567.9375 L 782.890625 576.097656 L 803.296875 556.144531 L 642.777344 546.175781 Z M 620.550781 567.9375 " fill-opacity="1" fill-rule="nonzero"/><path fill="#caa88a" d="M 177.441406 448.21875 L 184.460938 485.109375 C 184.460938 485.109375 190.53125 512.765625 204.03125 520.1875 C 217.527344 527.605469 428.058594 547.84375 428.058594 547.84375 L 457.738281 556.132812 L 482.542969 558.355469 C 482.542969 558.355469 477.453125 566.9375 484.449219 569.800781 L 493.671875 560.582031 C 493.671875 560.582031 494.941406 566.308594 500.667969 562.488281 L 507.34375 552.949219 C 507.34375 552.949219 508.613281 559.625 515.296875 555.8125 L 520.066406 543.09375 L 526.105469 549.132812 C 526.105469 549.132812 530.878906 550.398438 531.195312 545.632812 L 521.65625 522.425781 L 489.21875 507.800781 L 436.742188 514.472656 L 266.15625 456.941406 L 266.886719 425.386719 C 266.886719 425.386719 225.894531 447.277344 177.441406 448.207031 Z M 177.441406 448.21875 " fill-opacity="1" fill-rule="nonzero"/><path stroke-linecap="butt" transform="matrix(0.678586, 0, 0, 0.678358, -299.094477, -16.090287)" fill="none" stroke-linejoin="miter" d="M 1168.250317 850.09978 C 1168.250317 850.09978 1189.198052 830.388822 1151.740808 826.432811 " stroke="#603913" stroke-width="1" stroke-opacity="1" stroke-miterlimit="10"/><path stroke-linecap="butt" transform="matrix(0.678586, 0, 0, 0.678358, -299.094477, -16.090287)" fill="none" stroke-linejoin="miter" d="M 1188.397905 838.847893 C 1188.397905 838.847893 1201.240553 820.910518 1183.320713 812.128978 C 1165.400872 803.347438 1162.470837 801.522029 1162.470837 801.522029 " stroke="#603913" stroke-width="1" stroke-opacity="1" stroke-miterlimit="10"/><path stroke-linecap="butt" transform="matrix(0.678586, 0, 0, 0.678358, -299.094477, -16.090287)" fill="none" stroke-linejoin="miter" d="M 1207.152431 824.319483 C 1207.152431 824.319483 1214.042906 809.209476 1201.240553 802.621881 C 1188.4382 796.040045 1173.811051 787.258505 1173.811051 787.258505 " stroke="#603913" stroke-width="1" stroke-opacity="1" stroke-miterlimit="10"/><g clip-path="url(#6f011ff33b)"><path fill="#1c75bc" d="M 117.101562 572.085938 L -27.824219 572.085938 L -27.824219 554.492188 L 117.101562 554.492188 Z M 117.101562 572.085938 " fill-opacity="1" fill-rule="nonzero"/></g><g clip-path="url(#90301bc1b5)"><path fill="#1c75bc" d="M 179.980469 538.453125 L 117.109375 554.484375 L -27.816406 554.484375 L 40.402344 537.199219 Z M 179.980469 538.453125 " fill-opacity="1" fill-rule="nonzero"/></g><path fill="#1c75bc" d="M 176.226562 550.320312 L 117.144531 568.707031 L 117.109375 572.082031 L 176.226562 552.976562 Z M 176.226562 550.320312 " fill-opacity="1" fill-rule="nonzero"/><path fill="#ffffff" d="M 176.226562 539.640625 L 117.109375 554.484375 L 117.109375 569.726562 L 176.226562 550.617188 Z M 176.226562 539.640625 " fill-opacity="1" fill-rule="nonzero"/><g clip-path="url(#7e7893a4f2)"><path stroke-linecap="butt" transform="matrix(0.678586, 0, 0, 0.678358, -299.094477, -16.090287)" fill="none" stroke-linejoin="miter" d="M 613.339696 841.110939 L 399.769509 841.110939 " stroke="#231f20" stroke-width="1" stroke-opacity="1" stroke-miterlimit="10"/></g><path stroke-linecap="butt" transform="matrix(0.678586, 0, 0, 0.678358, -299.094477, -16.090287)" fill-opacity="1" fill="#9c2024" fill-rule="nonzero" stroke-linejoin="miter" d="M 588.569676 820.749283 L 536.870966 820.749283 L 493.639999 834.310284 L 548.309039 834.310284 Z M 588.569676 820.749283 " stroke="#231f20" stroke-width="1" stroke-opacity="1" stroke-miterlimit="10"/><g clip-path="url(#6330968897)"><path fill="#9c2024" d="M 110.296875 554.429688 L -34.628906 554.429688 L -34.628906 536.832031 L 110.296875 536.832031 Z M 110.296875 554.429688 " fill-opacity="1" fill-rule="nonzero"/></g><g clip-path="url(#4bc502deb2)"><path fill="#9c2024" d="M 173.167969 520.804688 L 110.296875 536.832031 L -34.628906 536.832031 L 33.589844 519.546875 Z M 173.167969 520.804688 " fill-opacity="1" fill-rule="nonzero"/></g><path fill="#9c2024" d="M 169.414062 532.667969 L 110.335938 551.058594 L 110.296875 554.429688 L 169.414062 535.320312 Z M 169.414062 532.667969 " fill-opacity="1" fill-rule="nonzero"/><path fill="#ffffff" d="M 169.414062 521.984375 L 110.296875 536.832031 L 110.296875 552.070312 L 169.414062 532.964844 Z M 169.414062 521.984375 " fill-opacity="1" fill-rule="nonzero"/><g clip-path="url(#43294d9032)"><path stroke-linecap="butt" transform="matrix(0.678586, 0, 0, 0.678358, -299.094477, -16.090287)" fill="none" stroke-linejoin="miter" d="M 603.300441 815.088789 L 389.730254 815.088789 " stroke="#231f20" stroke-width="1" stroke-opacity="1" stroke-miterlimit="10"/></g><path stroke-linecap="butt" transform="matrix(0.678586, 0, 0, 0.678358, -299.094477, -16.090287)" fill-opacity="1" fill="#9c2024" fill-rule="nonzero" stroke-linejoin="miter" d="M 578.530421 794.727133 L 526.831711 794.727133 L 483.600744 808.288134 L 538.269784 808.288134 Z M 578.530421 794.727133 " stroke="#231f20" stroke-width="1" stroke-opacity="1" stroke-miterlimit="10"/><path fill="#ffffff" d="M 399.488281 567.414062 C 399.488281 567.414062 409.296875 558.640625 406.714844 549.363281 C 406.714844 549.363281 440.515625 546.011719 453.410156 540.332031 C 466.308594 534.664062 488.582031 534.066406 500.707031 550.570312 L 501.398438 565.867188 Z M 399.488281 567.414062 " fill-opacity="1" fill-rule="nonzero"/><path fill="#ffffff" d="M 602.351562 567.414062 C 602.351562 567.414062 592.546875 558.640625 595.125 549.363281 C 595.125 549.363281 561.324219 546.011719 548.433594 540.332031 C 535.53125 534.664062 512.828125 534.066406 500.699219 550.570312 L 500.441406 565.867188 Z M 602.351562 567.414062 " fill-opacity="1" fill-rule="nonzero"/><path stroke-linecap="round" transform="matrix(0.678586, 0, 0, 0.678358, -299.094477, -16.090287)" fill="none" stroke-linejoin="miter" d="M 1029.657938 861.662621 L 1154.060659 856.370664 C 1154.060659 856.370664 1184.650453 866.079304 1210.387558 855.397496 L 1328.809322 862.491829 " stroke="#1c75bc" stroke-width="4" stroke-opacity="1" stroke-miterlimit="10"/><path stroke-linecap="round" transform="matrix(0.678586, 0, 0, 0.678358, -299.094477, -16.090287)" fill-opacity="1" fill="#2b3990" fill-rule="nonzero" stroke-linejoin="miter" d="M 1159.109068 857.119254 C 1159.109068 857.119254 1169.758508 838.490873 1178.502561 838.870926 C 1187.240857 839.25098 1202.829334 857.879361 1202.829334 857.879361 " stroke="#1c75bc" stroke-width="4" stroke-opacity="1" stroke-miterlimit="10"/><path fill="#ffde17" d="M 608.601562 569.558594 L 666.160156 560.128906 C 666.160156 560.128906 670.128906 561.21875 668.269531 565.195312 L 610.203125 574.644531 Z M 608.601562 569.558594 " fill-opacity="1" fill-rule="nonzero"/><path fill="#f8e2d9" d="M 608.601562 569.558594 L 601.824219 573.9375 L 610.203125 574.644531 Z M 608.601562 569.558594 " fill-opacity="1" fill-rule="nonzero"/><path fill="#ef4136" d="M 621.660156 546.105469 L 679.085938 556.273438 C 679.085938 556.273438 682.472656 558.621094 679.398438 561.753906 L 621.476562 551.4375 L 621.652344 546.105469 Z M 621.660156 546.105469 " fill-opacity="1" fill-rule="nonzero"/><path fill="#f8e2d9" d="M 621.660156 546.105469 L 613.808594 547.992188 L 621.480469 551.429688 Z M 621.660156 546.105469 " fill-opacity="1" fill-rule="nonzero"/><g clip-path="url(#a3916535fc)"><path fill="#27aae1" d="M 899.675781 565.390625 L 842.421875 576.53125 C 842.421875 576.53125 838.417969 575.554688 840.15625 571.523438 L 897.917969 560.351562 L 899.667969 565.390625 Z M 899.675781 565.390625 " fill-opacity="1" fill-rule="nonzero"/></g><g clip-path="url(#35f6b4ec7a)"><path fill="#f8e2d9" d="M 899.675781 565.390625 L 906.324219 560.804688 L 897.925781 560.351562 Z M 899.675781 565.390625 " fill-opacity="1" fill-rule="nonzero"/></g><path fill="#2bb673" d="M 665.542969 567.703125 L 608.488281 555.589844 C 608.488281 555.589844 605.183594 553.128906 608.359375 550.101562 L 665.894531 562.378906 L 665.535156 567.703125 Z M 665.542969 567.703125 " fill-opacity="1" fill-rule="nonzero"/><path fill="#f8e2d9" d="M 665.542969 567.703125 L 673.449219 566.082031 L 665.894531 562.386719 Z M 665.542969 567.703125 " fill-opacity="1" fill-rule="nonzero"/></svg>