<?xml version="1.0" encoding="UTF-8"?>
<svg id="Layer_1" data-name="Layer 1" xmlns="http://www.w3.org/2000/svg" viewBox="0 0 1334.25 999.77">
  <defs>
    <style>
      .cls-1, .cls-2 {
        stroke-width: 1.5px;
      }

      .cls-1, .cls-2, .cls-3, .cls-4, .cls-5, .cls-6, .cls-7, .cls-8, .cls-9, .cls-10, .cls-11, .cls-12, .cls-13, .cls-14, .cls-15, .cls-16, .cls-17, .cls-18, .cls-19, .cls-20, .cls-21 {
        stroke-miterlimit: 10;
      }

      .cls-1, .cls-2, .cls-3, .cls-4, .cls-5, .cls-6, .cls-8, .cls-16, .cls-17, .cls-18, .cls-19, .cls-20, .cls-21 {
        fill: none;
      }

      .cls-1, .cls-9, .cls-21 {
        stroke: #fff;
      }

      .cls-2, .cls-6, .cls-8, .cls-16 {
        stroke: #231f20;
      }

      .cls-3, .cls-4, .cls-5, .cls-6, .cls-15 {
        stroke-width: .8px;
      }

      .cls-3, .cls-15 {
        stroke: #754c29;
      }

      .cls-4 {
        stroke: #c16b7b;
      }

      .cls-5, .cls-12, .cls-14, .cls-18 {
        stroke: #603913;
      }

      .cls-22 {
        fill: #f7daa6;
      }

      .cls-23 {
        fill: #f7d9a4;
      }

      .cls-24 {
        fill: #017d75;
      }

      .cls-25 {
        fill: #00714f;
      }

      .cls-26, .cls-11 {
        fill: #ec6b8a;
      }

      .cls-27, .cls-7, .cls-10 {
        fill: #e6e7e8;
      }

      .cls-28 {
        fill: #f6ac1b;
      }

      .cls-29 {
        fill: #e96d42;
      }

      .cls-30 {
        fill: #fff;
      }

      .cls-31 {
        fill: #803435;
      }

      .cls-32 {
        fill: #016041;
      }

      .cls-33 {
        fill: #8b5e3c;
      }

      .cls-34, .cls-13 {
        fill: #9054a2;
      }

      .cls-35 {
        fill: #943f23;
      }

      .cls-36 {
        fill: #8bcda9;
      }

      .cls-37 {
        fill: #b19074;
      }

      .cls-38 {
        fill: #ae8578;
      }

      .cls-39 {
        fill: #a97c50;
      }

      .cls-40 {
        fill: #be8c8c;
      }

      .cls-41, .cls-12 {
        fill: #caa88a;
      }

      .cls-42 {
        fill: #d1d3d4;
      }

      .cls-43 {
        fill: #e2c799;
      }

      .cls-44 {
        fill: #dcbf97;
      }

      .cls-45 {
        fill: #d4d5d6;
      }

      .cls-46 {
        fill: #b13c27;
      }

      .cls-47 {
        fill: #e19926;
      }

      .cls-48 {
        fill: #231f20;
      }

      .cls-49 {
        fill: #194246;
      }

      .cls-50 {
        fill: #0e8e81;
      }

      .cls-51 {
        fill: #2b6666;
      }

      .cls-52 {
        fill: #3c2415;
      }

      .cls-53 {
        fill: #4c96a4;
      }

      .cls-54 {
        fill: #26130f;
      }

      .cls-7 {
        stroke: #58595b;
        stroke-width: .2px;
      }

      .cls-8 {
        stroke-width: .7px;
      }

      .cls-9 {
        fill: #754c29;
      }

      .cls-9, .cls-20, .cls-21 {
        stroke-width: .5px;
      }

      .cls-10 {
        stroke: #808285;
      }

      .cls-11, .cls-13 {
        stroke: #662d91;
      }

      .cls-14, .cls-15 {
        fill: #be9e7d;
      }

      .cls-17 {
        stroke: #d1d3d4;
      }

      .cls-19 {
        stroke: #6d6e71;
      }

      .cls-20 {
        stroke: #f8b8a7;
      }
    </style>
  </defs>
  <g>
    <rect class="cls-36" width="1334.25" height="739.17"/>
    <g>
      <rect class="cls-33" x="3.22" y="291.31" width="631.29" height="349.85"/>
      <rect class="cls-39" x="37" y="313.65" width="562.88" height="91.57"/>
      <polygon class="cls-33" points="27.98 717.73 .58 717.73 28.65 640.58 62.06 640.58 27.98 717.73"/>
      <polygon class="cls-33" points="599.35 717.73 626.75 717.73 598.68 640.58 565.27 640.58 599.35 717.73"/>
      <rect class="cls-33" x="279.42" y="352.25" width="79.41" height="13.49"/>
      <rect class="cls-39" x="37" y="417.23" width="562.88" height="91.57"/>
      <rect class="cls-33" x="279.42" y="455.83" width="79.41" height="13.49"/>
      <rect class="cls-39" x="37" y="520.81" width="562.88" height="91.57"/>
      <rect class="cls-33" x="279.42" y="559.41" width="79.41" height="13.49"/>
      <rect class="cls-30" x="21.34" y="290.6" width="593.23" height="30.3"/>
      <polyline class="cls-1" points="22.32 317.96 22.69 324.43 26.96 319.55 27.34 326.03 31.62 321.15 32.97 327.79 34.31 321.16 38.59 326.03 38.96 319.56 43.24 324.43 44.59 317.79 45.94 324.43 50.22 319.55 50.59 326.03 54.87 321.15 56.22 327.79 57.57 321.16 61.85 326.03 62.22 319.56 66.5 324.43 67.85 317.79 69.2 324.43 73.48 319.55 73.85 326.03 78.13 321.15 79.48 327.79 80.83 321.16 85.11 326.03 85.48 319.56 89.76 324.43 91.11 317.79 92.46 324.43 96.73 319.55 97.11 326.03 101.39 321.15 102.74 327.79 104.09 321.16 108.36 326.03 108.74 319.56 113.02 324.43 114.37 317.79 115.72 324.43 119.99 319.55 120.37 326.03 124.65 321.15 126 327.79 127.35 321.16 131.62 326.03 131.99 319.56 136.27 324.43 137.63 317.79 138.98 324.43 143.25 319.55 143.62 326.03 147.9 321.15 149.26 327.79 150.61 321.16 154.88 326.03 155.26 319.56 159.54 324.43 160.89 317.79 162.24 324.43 166.51 319.55 166.88 326.03 171.16 321.15 172.52 327.79 173.87 321.16 178.14 326.03 178.51 319.56 182.79 324.43 184.15 317.79 185.5 324.43 189.77 319.55 190.15 326.03 194.43 321.15 195.78 327.79 197.13 321.16 201.4 326.03 201.77 319.56 206.05 324.43 207.41 317.79 208.76 324.43 213.03 319.55 213.41 326.03 217.69 321.15 219.04 327.79 220.39 321.16 224.66 326.03 225.04 319.56 229.32 324.43 230.67 317.79 232.02 324.43 236.29 319.55 236.67 326.03 240.95 321.15 242.3 327.79 243.65 321.16 247.92 326.03 248.3 319.56 252.58 324.43 253.93 317.79 255.28 324.43 259.56 319.55 259.93 326.03 264.21 321.15 265.56 327.79 266.91 321.16 271.19 326.03 271.56 319.56 275.84 324.43 277.19 317.79 278.54 324.43 282.82 319.55 283.19 326.03 287.47 321.15 288.82 327.79 290.18 321.16 294.45 326.03 294.83 319.56 299.11 324.43 300.46 317.79 301.81 324.43 306.08 319.55 306.46 326.03 310.74 321.15 312.09 327.79 313.44 321.16 317.71 326.03 318.09 319.56 322.37 324.43 323.72 317.79 325.07 324.43 329.35 319.55 329.72 326.03 334 321.15 335.35 327.79 336.7 321.16 340.98 326.03 341.35 319.56 345.63 324.43 346.99 317.79 348.34 324.43 352.61 319.55 352.99 326.03 357.27 321.15 358.62 327.79 359.97 321.16 364.24 326.03 364.62 319.56 368.9 324.43 370.25 317.79 371.6 324.43 375.88 319.55 376.25 326.03 380.53 321.15 381.88 327.79 383.23 321.16 387.51 326.03 387.88 319.56 392.16 324.43 393.52 317.79 394.87 324.43 399.14 319.55 399.51 326.03 403.79 321.15 405.15 327.79 406.49 321.16 410.77 326.03 411.14 319.56 415.42 324.43 416.77 317.79 418.12 324.43 422.4 319.55 422.77 326.03 427.05 321.15 428.41 327.79 429.76 321.16 434.03 326.03 434.4 319.56 438.68 324.43 440.04 317.79 441.39 324.43 445.66 319.55 446.04 326.03 450.32 321.15 451.67 327.79 453.02 321.16 457.29 326.03 457.67 319.56 461.95 324.43 463.3 317.79 464.65 324.43 468.93 319.55 469.3 326.03 473.58 321.15 474.94 327.79 476.29 321.16 480.56 326.03 480.94 319.56 485.22 324.43 486.57 317.79 487.92 324.43 492.19 319.55 492.57 326.03 496.85 321.15 498.2 327.79 499.55 321.16 503.83 326.03 504.2 319.56 508.48 324.43 509.84 317.79 511.19 324.43 515.46 319.55 515.84 326.03 520.12 321.15 521.47 327.79 522.82 321.16 527.1 326.03 527.47 319.56 531.75 324.43 533.11 317.79 534.46 324.43 538.73 319.55 539.11 326.03 543.39 321.15 544.74 327.79 546.09 321.16 550.37 326.03 550.74 319.56 555.02 324.43 556.37 317.79 557.72 324.43 562 319.55 562.38 326.03 566.66 321.15 568.01 327.79 569.36 321.16 573.64 326.03 574.01 319.56 578.29 324.43 579.65 317.79 581 324.43 585.27 319.55 585.65 326.03 589.93 321.15 591.28 327.79 592.63 321.16 596.91 326.03 597.29 319.56 601.57 324.43 602.93 317.79 604.28 324.43 608.55 319.55 608.93 326.03 613.21 321.15 613.59 327.63"/>
    </g>
    <rect class="cls-23" y="714.81" width="1333.02" height="284.96"/>
    <g>
      <path class="cls-50" d="M372.01,137.67s13.98,45.17-28.14,87.59c0,0-33.97-25.31-3.02-62.96,0,0,18.23-17.33,31.16-24.63Z"/>
      <path class="cls-29" d="M270.58,209.68v39.56s.72,25.12,24.68,41.29h40.43s24.33-12.13,25.4-41.87v-40.14l-90.51,1.15Z"/>
      <path class="cls-25" d="M335.31,213.59s41.95-32.24,72-20.35c0,0,5.63,46.96-46.33,31.93,0,0-15.96-10.33-25.67-11.58Z"/>
      <path class="cls-24" d="M413.52,159.66s-47.27,.55-74.64,46.72c0,0,34.56,21.29,60.82-14.38,0,0,8.29-23.78,13.82-32.35Z"/>
      <path class="cls-25" d="M289.42,131.97s-28.8,67.66,38.85,72.68c0,0,22.78-47.23-38.85-72.68Z"/>
      <path class="cls-50" d="M247.89,146.71s-29.47,39.19,47.23,49.57l12.06,.67s-13.4-37.51-59.28-50.24Z"/>
      <path class="cls-24" d="M302.85,188.1s-87.42-5.02-88.42,13.4c-1,18.42,51.58,14.74,51.58,14.74,0,0,28.47-4.35,46.22-21.1"/>
      <path class="cls-50" d="M355.76,197.19s-45.5-4.7-68.1-.59c0,0-32.88,32.29,3.23,44.33,0,0,18.79,7.05,36.99-26.71,0,0,12.04-14.68,27.89-17.03Z"/>
      <path class="cls-32" d="M355.76,197.19s7.8,5.36,7.33,17.66c0,0-23.89,6.03-36.88,1.62,0,0,8.07-16.99,29.55-19.28Z"/>
      <path class="cls-20" d="M271.53,241.38s43.77,22.38,88.53,0"/>
      <path class="cls-20" d="M271.53,248.82s43.77,22.38,88.53,0"/>
    </g>
    <polygon class="cls-34" points="715.97 964.8 36.57 964.8 171.98 763.34 804.89 763.34 715.97 964.8"/>
  </g>
  <g>
    <path class="cls-34" d="M321.56,697.86c2.58,1.4,5.04,2.63,7.38,3.72,0,0,19.34-30.69,19.34-36.54l-30.61-19.17"/>
    <path class="cls-44" d="M246.39,607.58s2.59,24.76-6.37,38.29c0,0,11.42,32.61,42.34,36.85,0,0,21.29,5.47,22.62-29.34,0,0-7.88-5.43-6.42-14.48l-52.17-31.33Z"/>
    <path class="cls-34" d="M201.61,778.17s-5.31-94.86,25.26-123.84c0,0,14.57-14.44,18.25-15.86,0,0,8.43,30.69,45.11,25.15,0,0,19.4-5.7,2.36-31.77,0,0,22.9,5.46,28.44,19.4,5.54,13.94-.26,66.69-.26,66.69,0,0,12.58,66.47-17.22,74.47-27.7,7.43-56.48,3.79-101.93-14.24Z"/>
    <path class="cls-26" d="M231.04,818.06s-6.77,1.13-12.98,11.29c0,0-11.85,9.03-22.01,12.42-10.16,3.39-12.42,14.11-12.42,14.11,0,0-.47,10.3,24.22-.28,0,0,10.11-17.87,18.58-22.34,8.47-4.47,11.99-4,11.52-9.17l-6.91-6.02Z"/>
    <path class="cls-44" d="M215.69,850.35l12.05,6.46-2.76,18.01-5,.03s-6.85-1.33-18.05,2.72c-11.2,4.06-16.35,4.28-16.35,4.28l-.53-10.12,18.66-16.07,11.96-5.32Z"/>
    <path class="cls-26" d="M208.77,844.33s-6.77,1.13-12.98,11.29c0,0-11.65,9.72-22.01,12.42-12.96,3.37-12.42,14.11-12.42,14.11,0,0-.47,10.3,24.22-.28,0,0,10.11-17.87,18.58-22.34,8.47-4.47,11.99-4,11.52-9.17l-6.91-6.02Z"/>
    <path class="cls-21" d="M188.66,860.93l7.13-5.31s3.93-8.96,12.98-11.29"/>
    <path class="cls-44" d="M240.23,590.57s-8.97-12.79-16.48-7.78c-7.51,5.01-.18,21.1-.18,21.1,0,0,9.91,13.19,19.6,6.23,0,0,12.84,26.5,50.19,28.33,0,0,15.71,1.77,27.57-14.41,11.44-15.61,4.86-41.26,4.86-41.26,0,0,1.76-4.48,.85-20.47-.9-15.99-6.53-34.47-27.48-40.16-20.95-5.69-33.9-7.71-52.69,8.48-18.79,16.19-6.24,59.94-6.24,59.94Z"/>
    <path class="cls-40" d="M290.64,610.51s5.36-1.85,12.22-.82c0,0,5.37-.74,10.86,.16,0,0,1.19,7.33-7.81,10-9,2.67-15.12-3.64-15.27-9.33Z"/>
    <path class="cls-31" d="M291.53,610.85s.4,8.61,11.59,7.98c10.16-.57,9.81-8.24,9.81-8.24,0,0-11.42,1.16-21.4,.26Z"/>
    <path class="cls-48" d="M283.22,566.75s-8.98-1.85-16.1,3.44c0,0-4.24-1.39,1.21-4.23s9.51-4.7,15.08-2.3c0,0,2.46,1.85-.19,3.09Z"/>
    <path class="cls-48" d="M313.02,565.43s5.42-3.38,13.1,1.07c0,0,2.83-1.77-.19-3.43-4.48-2.46-7.57-2.65-13.44-.69,0,0-2.23,2.12,.53,3.05Z"/>
    <path class="cls-30" d="M293.07,610.92s3.06,3.91,11.89,2.99c0,0,5.47-.03,7.6-3.07,0,0-11.39,.89-19.49,.08Z"/>
    <path class="cls-54" d="M297.48,638.33s-8.49,1.67-21.92-2.91c0,0-4.91-.82-14.81-6.69,0,0,7.28,6.28,21.15,10.72,0,0,5.84,2.04,16.55,1.42,0,0-.71-.83-.97-2.54Z"/>
    <path class="cls-6" d="M226.07,594.2s3.27-5.61,7.58-.32c4.32,5.29,4.64,7.12,4.64,7.12,0,0-6.23-8.44-8.11-1.28"/>
    <path class="cls-6" d="M308.24,588.2s7.56,9.97-4.53,11.88"/>
    <g>
      <path class="cls-30" d="M273.11,581s-.04-.36,.2-.69c.8-1.09,2.69-3.16,5.93-3.47,3.63-.34,5.96,2.88,6.75,4.04,.14,.2,.14,.38,.14,.38,0,0,.03,.2-.08,.35-.52,.73-2.27,2.79-5.71,3.17-2.05,.22-5.03-.61-7.07-3.22-.14-.18-.17-.43-.18-.56Z"/>
      <circle class="cls-54" cx="280.67" cy="580.93" r="3.77"/>
      <circle class="cls-30" cx="278.24" cy="579.6" r="1.04"/>
      <path class="cls-8" d="M286.23,580.86s-5.24-8.26-13.06-.57"/>
    </g>
    <g>
      <path class="cls-30" d="M311.44,579.51s-.09-.33,.09-.66c.58-1.11,2.02-3.28,4.95-4.02,3.28-.83,5.87,1.8,6.76,2.75,.15,.16,.19,.33,.19,.33,0,0,.06,.18-.02,.34-.37,.74-1.69,2.88-4.79,3.71-1.84,.49-4.69,.15-6.93-1.96-.16-.15-.22-.37-.25-.49Z"/>
      <circle class="cls-54" cx="318.36" cy="578.38" r="3.49"/>
      <circle class="cls-30" cx="316" cy="577.27" r=".98"/>
      <path class="cls-8" d="M323.32,577.68s-5.83-7.37-11.87,1.33"/>
    </g>
    <path class="cls-44" d="M347.74,666.9l17.03,11.17c7.98-4.79,45.99-5.27,45.99-5.27,0,0,4.92-2.55,8.21-6.94s16.01-11.06,18.64-7.55c2.64,3.51-4.15,6-4.15,6,0,0-2.85,2.42,2.99,1.05,5.84-1.37,8.19-5.96,10.3-4.03,2.64,2.41,.31,4.44,.31,4.44l-9.44,6.82s4.33,1.56,8.15-1.04,5.32-3.97,7.01-2.93c2.31,1.43,2.35,3.32-1.73,5.56-4.08,2.24-5.45,4.09-9.44,4.62,0,0,2.04,2.17,7.56-.18,0,0,4-.53,1.8,2.77-2.19,3.3-10.65,5.39-10.65,5.39,0,0,2.66,1.16,6.11,1.18,3.45,.02-.04,3.6-.04,3.6,0,0-18.94,6.12-30.93,1.73,0,0-40.84,15.64-58.93,13.51s-26.6-7.45-26.6-7.45"/>
    <path class="cls-27" d="M200.69,775.18s-5.95,18.19-3.56,37.91c0,0-.6,26.18,22.28,39.64,0,0,12.48,9.69,.52,22.62,0,0,103.51,19.39,121.72,5.92,18.21-13.46,18.73-20.46,18.73-20.46,0,0,13.52-2.69,14.04-21,.52-18.31-12.48-32.31-12.48-32.31l-43.11-30.05s-14.33,40.22-118.13-2.26Z"/>
    <path class="cls-4" d="M307.84,801.57l42.65,23.16s18.73,9.16,9.88,36.08"/>
    <path class="cls-4" d="M219.42,852.73s30.69,9.16,45.25,4.85l54.62,4.31"/>
    <path class="cls-11" d="M321.66,740.82s1.35-15.98-.9-22.88c0,0,2.54-28.4-.05-40.13"/>
    <path class="cls-3" d="M430.22,666.96s1.41,10.73-2.26,14.12"/>
    <g>
      <rect class="cls-53" x="333.27" y="753.93" width="40.55" height="27.57" transform="translate(39.18 -16.86) rotate(2.89)"/>
      <path class="cls-44" d="M232.06,744.26s6.19,10.84,17.81,21.16,53.17,13.16,53.17,13.16l6.41,3.28c7.79,5.18,20.38,6.2,20.38,6.2,0,0,8.9,2.17,13.63,3.37,4.73,1.2,3.99-3.06,3.99-3.06,9.94,.5,10.79-8.84,10.79-8.84,6.41-1.78,3.4-6.53,3.4-6.53,2.79-5.99-4.38-4.25-4.38-4.25-1.85,2.4-9.15,2.8-9.15,2.8-15.63-1.56-14.96-7.27-14.96-7.27l.41-8.03c-12.2,2.64-18.82,8.44-18.82,8.44l-7.04-2.89s-36.13-22.71-45.68-25.04l-1.03-5.68"/>
      <path class="cls-3" d="M361.63,773s-11.05,8.5-23.65,2.79"/>
      <path class="cls-3" d="M358.23,779.54s-10.29,8.35-21.06,.85"/>
      <path class="cls-15" d="M347.44,788.38s-7.49,.11-9.72-1.59"/>
      <polygon class="cls-51" points="383.6 777.17 373.07 783.1 374.49 754.97 384.92 751.03 383.6 777.17"/>
      <polygon class="cls-51" points="333.93 753.2 374.44 755.05 384.87 751.1 345.18 749.1 333.93 753.2"/>
    </g>
    <path class="cls-52" d="M225.41,542.13s-11.34,18.42-2.87,41.39c0,0,8.97-6.62,17.89,9.22,0,0,15.35-14.87,15.03-57.12,0,0,38.03,7.47,57.57-3.97,0,0,11.35,7.83,12.87,28.14l2.05,11.92c3.21-36.16-13.32-51.41-13.32-51.41-29.06-27.46-62.67-11.65-69.54-5.24,0,0-13.94-16.66-32.36-.51,0,0-10.11,7.02-7.07,16.17,0,0-19.14-7.13-20.64,15.33,0,0-14.62,6.16-4.89,22.75,0,0-8.48,11.7,4.69,19.67,0,0,14.83,9.73,20.08-4.35,0,0,13.01,6.09,11.18-6.62,0,0,13.66,.36,13.4-11.73-.26-12.09-4.06-23.63-4.06-23.63Z"/>
    <path class="cls-13" d="M213.3,713.32s8.29,28.25,18.76,30.93c0,0,29.84-9.38,32.76-15.59,0,0-.37-32.88-16.81-53.71"/>
  </g>
  <g>
    <g>
      <rect class="cls-46" x="587.02" y="716.76" width="40.55" height="27.57"/>
      <polygon class="cls-35" points="637.79 738.28 627.57 744.73 627.57 716.56 637.79 712.1 637.79 738.28"/>
      <polygon class="cls-35" points="587.02 716.76 627.57 716.56 637.79 712.1 598.05 712.1 587.02 716.76"/>
    </g>
    <g>
      <rect class="cls-46" x="461.07" y="795.86" width="40.55" height="27.57"/>
      <polygon class="cls-35" points="511.84 817.37 501.62 823.83 501.62 795.66 511.84 791.2 511.84 817.37"/>
      <polygon class="cls-35" points="461.07 795.86 501.62 795.66 511.84 791.2 472.1 791.2 461.07 795.86"/>
    </g>
    <g>
      <rect class="cls-46" x="587.2" y="832.07" width="40.55" height="27.57"/>
      <polygon class="cls-35" points="637.97 853.59 627.75 860.05 627.75 831.88 637.97 827.41 637.97 853.59"/>
      <polygon class="cls-35" points="587.2 832.07 627.75 831.88 637.97 827.41 598.22 827.41 587.2 832.07"/>
    </g>
    <g>
      <rect class="cls-53" x="639.75" y="725.45" width="40.55" height="27.57"/>
      <polygon class="cls-51" points="690.52 746.97 680.3 753.43 680.3 725.26 690.52 720.79 690.52 746.97"/>
      <polygon class="cls-51" points="639.75 725.45 680.3 725.26 690.52 720.79 650.77 720.79 639.75 725.45"/>
    </g>
    <g>
      <rect class="cls-53" x="517.45" y="808.81" width="40.55" height="27.57"/>
      <polygon class="cls-51" points="568.22 830.32 558 836.78 558 808.61 568.22 804.15 568.22 830.32"/>
      <polygon class="cls-49" points="517.45 808.81 558 808.61 568.22 804.15 528.48 804.15 517.45 808.81"/>
    </g>
    <g>
      <rect class="cls-28" x="691.85" y="711.52" width="40.55" height="27.57"/>
      <polygon class="cls-47" points="742.62 733.04 732.4 739.49 732.4 711.32 742.62 706.86 742.62 733.04"/>
      <polygon class="cls-47" points="691.85 711.52 732.4 711.32 742.62 706.86 702.88 706.86 691.85 711.52"/>
    </g>
    <g>
      <rect class="cls-28" x="573.21" y="773.58" width="40.55" height="27.57"/>
      <polygon class="cls-47" points="623.98 795.1 613.76 801.56 613.76 773.39 623.98 768.92 623.98 795.1"/>
      <polygon class="cls-47" points="573.21 773.58 613.76 773.39 623.98 768.92 584.23 768.92 573.21 773.58"/>
    </g>
    <g>
      <rect class="cls-28" x="643.79" y="863.63" width="40.55" height="27.57"/>
      <polygon class="cls-47" points="694.56 885.15 684.34 891.61 684.34 863.44 694.56 858.97 694.56 885.15"/>
      <polygon class="cls-47" points="643.79 863.63 684.34 863.44 694.56 858.97 654.81 858.97 643.79 863.63"/>
    </g>
    <g>
      <rect class="cls-28" x="517.63" y="781.09" width="40.55" height="27.57"/>
      <polygon class="cls-47" points="568.4 802.6 558.18 809.06 558.18 780.89 568.4 776.43 568.4 802.6"/>
      <polygon class="cls-47" points="517.63 781.09 558.18 780.89 568.4 776.43 528.66 776.43 517.63 781.09"/>
    </g>
    <g>
      <g>
        <rect class="cls-53" x="436.39" y="854.52" width="40.55" height="27.57"/>
        <polygon class="cls-51" points="487.16 876.04 476.94 882.5 476.94 854.33 487.16 849.86 487.16 876.04"/>
        <polygon class="cls-51" points="436.39 854.52 476.94 854.33 487.16 849.86 447.42 849.86 436.39 854.52"/>
      </g>
      <g>
        <rect class="cls-28" x="481.02" y="854.06" width="40.55" height="27.57"/>
        <polygon class="cls-47" points="531.79 875.58 521.57 882.04 521.57 853.87 531.79 849.4 531.79 875.58"/>
        <polygon class="cls-47" points="481.02 854.06 521.57 853.87 531.79 849.4 492.05 849.4 481.02 854.06"/>
      </g>
      <g>
        <rect class="cls-46" x="525.87" y="854.73" width="40.55" height="27.57"/>
        <polygon class="cls-35" points="576.64 876.24 566.42 882.7 566.42 854.53 576.64 850.06 576.64 876.24"/>
        <polygon class="cls-35" points="525.87 854.73 566.42 854.53 576.64 850.06 536.9 850.06 525.87 854.73"/>
      </g>
      <g>
        <rect class="cls-28" x="516.67" y="876.7" width="40.55" height="27.57"/>
        <polygon class="cls-47" points="567.44 898.21 557.22 904.67 557.22 876.5 567.44 872.04 567.44 898.21"/>
        <polygon class="cls-47" points="516.67 876.7 557.22 876.5 567.44 872.04 527.7 872.04 516.67 876.7"/>
      </g>
      <g>
        <rect class="cls-53" x="420.04" y="860.97" width="40.55" height="27.57"/>
        <polygon class="cls-51" points="470.82 882.49 460.59 888.95 460.59 860.78 470.82 856.31 470.82 882.49"/>
        <polygon class="cls-51" points="420.04 860.97 460.59 860.78 470.82 856.31 431.07 856.31 420.04 860.97"/>
      </g>
      <g>
        <rect class="cls-46" x="405.93" y="867.24" width="40.55" height="27.57"/>
        <polygon class="cls-35" points="456.7 888.75 446.48 895.21 446.48 867.04 456.7 862.58 456.7 888.75"/>
        <polygon class="cls-35" points="405.93 867.24 446.48 867.04 456.7 862.58 416.96 862.58 405.93 867.24"/>
      </g>
      <g>
        <rect class="cls-28" x="388.78" y="875.18" width="40.55" height="27.57"/>
        <polygon class="cls-47" points="439.55 896.69 429.33 903.15 429.33 874.98 439.55 870.52 439.55 896.69"/>
        <polygon class="cls-47" points="388.78 875.18 429.33 874.98 439.55 870.52 399.8 870.52 388.78 875.18"/>
      </g>
      <g>
        <rect class="cls-46" x="372.89" y="882.17" width="40.55" height="27.57"/>
        <polygon class="cls-35" points="423.66 903.68 413.44 910.14 413.44 881.97 423.66 877.51 423.66 903.68"/>
        <polygon class="cls-35" points="372.89 882.17 413.44 881.97 423.66 877.51 383.92 877.51 372.89 882.17"/>
      </g>
      <g>
        <rect class="cls-53" x="358.69" y="892.17" width="40.55" height="27.57"/>
        <polygon class="cls-51" points="409.46 913.68 399.24 920.14 399.24 891.97 409.46 887.5 409.46 913.68"/>
        <polygon class="cls-51" points="358.69 892.17 399.24 891.97 409.46 887.5 369.72 887.5 358.69 892.17"/>
      </g>
      <g>
        <rect class="cls-53" x="403.39" y="892.17" width="40.55" height="27.57"/>
        <polygon class="cls-51" points="454.16 913.68 443.94 920.14 443.94 891.97 454.16 887.5 454.16 913.68"/>
        <polygon class="cls-51" points="403.39 892.17 443.94 891.97 454.16 887.5 414.42 887.5 403.39 892.17"/>
      </g>
      <g>
        <rect class="cls-53" x="503.42" y="884.3" width="40.55" height="27.57"/>
        <polygon class="cls-51" points="554.19 905.81 543.97 912.27 543.97 884.1 554.19 879.64 554.19 905.81"/>
        <polygon class="cls-51" points="503.42 884.3 543.97 884.1 554.19 879.64 514.45 879.64 503.42 884.3"/>
      </g>
      <g>
        <rect class="cls-46" x="446.75" y="892.37" width="40.55" height="27.57"/>
        <polygon class="cls-35" points="497.52 913.88 487.3 920.34 487.3 892.17 497.52 887.71 497.52 913.88"/>
        <polygon class="cls-35" points="446.75 892.37 487.3 892.17 497.52 887.71 457.78 887.71 446.75 892.37"/>
      </g>
      <g>
        <rect class="cls-28" x="490.07" y="892.06" width="40.55" height="27.57"/>
        <polygon class="cls-47" points="540.84 913.58 530.62 920.03 530.62 891.86 540.84 887.4 540.84 913.58"/>
        <polygon class="cls-47" points="490.07 892.06 530.62 891.86 540.84 887.4 501.1 887.4 490.07 892.06"/>
      </g>
    </g>
  </g>
  <g>
    <path class="cls-41" d="M891.95,454.14l-17.74,25.69s32.42,5.5,0,0c-32.42-5.5-112.89-11.2-112.89-11.2-4-.09-7.9-.11-11.65-.08,0,0-8.47-18.49-43.54-16.6l-23.57-6.88s-13.96-.35-5.69,10.53c0,0,8.49,4.51,15.41,6.87l-12.05,12.6s.08-2.5-8.32,2.02c-6.83,3.67-4.13,5.1-4.13,5.1,0,0-9.39-6.79-20.16-11.54-7.01-3.09-10.93-8.54-17.65-3.21,0,0-5.74,5.63,5.48,12.43l23.29,19.39,45.01,5.05,31.12-4.63,15.17,10.72s136.4,69.73,160.86,60.55,42.2-54.44,42.2-54.44"/>
    <path class="cls-41" d="M1053.57,205.41s6.66,28.99,23.51,50.53c0,0,4.92,82.35-58.12,96.38,0,0-48.37-27.35-35.96-83.29l70.57-63.61Z"/>
    <path class="cls-9" d="M943.45,863.5s9.8,14.02,5.96,34.25c0,0-13.63,21.83-67.67,21.07,0,0-39.95,29.19-90.52,19.59,0,0-41.74-6.14-11.78-35.85,0,0,39.31-36.24,73.94-45.78,0,0,30.73,25.61,90.07,6.72Z"/>
    <path class="cls-9" d="M1026.5,877.84s9.96,14.34,5.99,34.98c0,0-13.98,22.25-69.13,21.34,0,0-40.86,29.7-92.46,19.78,0,0-42.6-6.38-11.94-36.63,0,0,40.22-36.89,75.6-46.55,0,0,31.31,26.22,91.94,7.09Z"/>
    <polygon class="cls-33" points="1131.05 923.54 1145.17 920.25 1145.17 773.4 1131.05 773.4 1131.05 923.54"/>
    <polygon class="cls-39" points="1106.47 920.25 1131.34 923.54 1131.34 773.4 1106.47 773.4 1106.47 920.25"/>
    <polygon class="cls-33" points="1199.14 906.99 1213.26 903.7 1213.26 756.85 1199.14 756.85 1199.14 906.99"/>
    <polygon class="cls-39" points="1174.56 903.7 1199.43 906.99 1199.43 756.85 1174.56 756.85 1174.56 903.7"/>
    <polygon class="cls-39" points="1149.75 728.91 1149.75 783.96 881.96 782.47 881.96 730.4 1149.75 728.91"/>
    <polygon class="cls-33" points="1149.75 728.91 1249.42 730.4 1249.42 779.49 1149.75 783.96 1149.75 728.91"/>
    <path class="cls-37" d="M1215.65,589.06s21.95,122-65.9,139.86c-84.31,17.13-133.59,3.11-133.59,3.11,0,0,18.89,61.85,10.68,146.03-.36,6.18-73.58,24.82-97.04-3.53,0,0-19.59-64.72-25.75-153.01,0,0,30.39,77.05,26.37,149.37,0,0-66.41,16.34-86.94-6.24,0,0-35.93-151.34-17.45-206.78,18.48-55.44,140.4-87.23,140.4-87.23,0,0,70.91,99.45,249.21,18.42Z"/>
    <path class="cls-18" d="M1020.95,623.16s-94.88,24.06-115.01,53.67c-19.72,29.02,20.72,187.87,20.72,187.87"/>
    <g>
      <path class="cls-27" d="M1196.96,489.67s24.87,59.9,17.51,99.39c0,0-73.61,42.55-156.07,28.99,0,0-71.43-10.21-93.14-47.4,0,0-11.57-41.38,.18-70.76,2.22-5.55-13.99,32.54-16.32,24.16,0,0-51.97-69.21-62.68-71.17l19.83-66.38s3.02-45.93,28.49-77.27c0,0,15.08-10.85,32.21-22.45l42.11,18.89,13.84,48.79,5.71-45.45s-.56-12.77,47.77-55.56c0,0,60.21,9.21,91.87,30.27,0,0,33.05,34.72,29.57,68.92l-.87,137.04Z"/>
      <path class="cls-45" d="M1076.38,253.44s-41.71,37.82-47.77,55.56l-2-15.88s30.68-29.25,39.84-47.95l9.93,8.27Z"/>
      <path class="cls-45" d="M981.88,272.63s-17.95,3.21-14.93,14.14l42.11,18.89-.78-9.47s-18.94-4.6-33.05-15.54c0,0,7.36-2.58,6.66-8.01Z"/>
      <path class="cls-19" d="M1022.9,354.45s-3.02,45.53,45.26,264.24"/>
      <ellipse class="cls-42" cx="1034.57" cy="358.37" rx="2.91" ry="3.02" transform="translate(-51.79 222.06) rotate(-11.95)"/>
      <ellipse class="cls-42" cx="1037.85" cy="409.44" rx="2.91" ry="3.02" transform="translate(-62.3 223.85) rotate(-11.95)"/>
      <ellipse class="cls-42" cx="1045.65" cy="463.84" rx="2.91" ry="3.02" transform="translate(-73.4 226.64) rotate(-11.95)"/>
      <ellipse class="cls-42" cx="1055.01" cy="512.98" rx="2.91" ry="3.02" transform="translate(-83.37 229.65) rotate(-11.95)"/>
      <ellipse class="cls-42" cx="1066.6" cy="574.81" rx="2.91" ry="3.02" transform="translate(-95.93 233.39) rotate(-11.95)"/>
      <path class="cls-42" d="M1113.08,369.73l6.88,44.58s-20.08,29.59-51.4,10.88l-10.19-48.14s20.2,6.81,54.71-7.32Z"/>
      <path class="cls-42" d="M995.58,394.61l6.88,44.58s-20.08,29.59-51.4,10.88l-10.19-48.14s20.2,6.81,54.71-7.32Z"/>
      <path class="cls-42" d="M1154.05,528.15l7.8,50.52s-22.75,33.53-58.26,12.33l-11.55-54.56s22.89,7.71,62.01-8.3Z"/>
      <path class="cls-42" d="M1034.68,519.14l-1.41,51.1s-28.41,28.89-59.52,1.66l-1.56-55.75s21.13,11.7,62.49,2.98Z"/>
      <path class="cls-17" d="M1093.4,256.12s-30.82,102.82,42.37,359.96"/>
      <path class="cls-17" d="M1086.08,255.35s-29.44,106,43.76,363.14"/>
      <path class="cls-17" d="M1078.89,254.13s-28.91,109.03,44.29,366.17"/>
      <path class="cls-17" d="M1100.82,257.45s-31.84,99.37,41.36,356.51"/>
      <path class="cls-17" d="M968.03,286.71s-30.25,89.93,47.16,316.66"/>
      <path class="cls-17" d="M959.94,292.48s-28.78,83.81,48.63,310.54"/>
      <path class="cls-17" d="M951.65,298.09s-28.65,76.91,48.75,303.65"/>
      <path class="cls-17" d="M975.44,287.42s-30.38,89.43,47.02,316.16"/>
      <path class="cls-10" d="M1100.14,312.4c-32.8,49.89-25.29,129.85-25.29,129.85,0,0,15.86,22.05,87.55,24.01"/>
    </g>
    <path class="cls-41" d="M1080.86,447.52l-3.04,26.85c-29.38,31.91-76.76,113.56-76.76,113.56,0,0-6.18,19.69-34.64,27.86-31.48,9.04-38.34,23.3-38.34,23.3l-28.16,43.68s-4.38,11.02,11.48,4.69c0,0,3.25,9.4,13.64-.08,0,0,5.38,2.72,9.17-.19,1.26-.97,4.03-2.94,6.62-7.45,0,0,15-19.17,23.18-23.19,0,0-15.52,14.7-17.6,21.82,0,0,4.48,7.93,14.46-3.56,7.65-8.81,18.17-16.28,18.17-16.28,0,0,28.06-8.1,35.21-24.67l17.32-9.79s114.13-92.97,120.21-108.67c6.08-15.7,10.64-49.13,10.64-49.13"/>
    <path class="cls-5" d="M934.8,651.56s-19.24,23.71-23.39,35.9"/>
    <path class="cls-5" d="M925.05,687.38s9.48-19.38,22.92-33.84"/>
    <path class="cls-41" d="M911.15,129.69s-7.92,22.24,7.81,66.13c0,0,4.84,10.25,5.29,16.38,.45,6.13,5.03,14.87,7.02,21.41,11.23,36.99,31.55,42.76,31.55,42.76,0,0,8.6,10.61,29.83,4.98,21.23-5.63,39.99-18.26,45.14-29.29,5.15-11.03,17.26-30.84,15.35-45.07,0,0,13.35-.61,14.29-17.15,0,0,7.18-27.28-8.18-29.61-15.36-2.34-18.04,18.76-18.04,18.76,0,0,5.97-60.92-31.26-73.95,0,0-52.51-20.7-98.81,24.64Z"/>
    <path class="cls-38" d="M994.94,228.67s-11.48,.36-22.63,8.11c0,0-11.41,1.53-20.29,6.97,0,0,6.99,16.88,24.47,15.14,17.48-1.74,22.22-20.25,18.46-30.21Z"/>
    <path class="cls-31" d="M992.76,230.78s5.39,15.21-14.45,22.02c-18.02,6.18-22.82-7.35-22.82-7.35,0,0,20.61-6.05,37.27-14.67Z"/>
    <path class="cls-27" d="M968.08,170.06s15.59-11.12,33.02-10.02c0,0-11.54-9.16-35.26,5.02,0,0-3.1,4.74,2.24,5Z"/>
    <path class="cls-27" d="M914.64,186.28c11.84-6.13,19.18-4.47,19.18-4.47,4.05-3.49-1.3-5.32-1.3-5.32-8.55,1.05-14.77,3.17-19.29,5.58,0,0,.77,4.54,1.41,4.21Z"/>
    <path class="cls-30" d="M990.38,231.84s-2.87,7.29-18.47,11.82c0,0-8.93,5.19-14.63,1.51,0,0,19.93-6.36,33.1-13.33Z"/>
    <path class="cls-16" d="M1062.83,170.06s-7.65-5.9-10.63,3.82-2.39,12.42-2.39,12.42c0,0,3.85-15.14,10.45-6.32"/>
    <path class="cls-7" d="M1064.63,161.38s-12.97-6.16-17.55,6.51c-4.58,12.67-1.87,17.05-1.87,17.05l-7.06,1.94s12.22-43.53-15.54-51.51c0,0-2.88-29.33-25.19-27.22-22.31,2.11-38.59-15.8-87.89,26.61,0,0-14.34-30.14,40.3-55.16,0,0,36.81-17.37,53.78-.99,0,0,26.36-4.93,43.32,26.89,16.96,31.82,17.72,55.88,17.72,55.88Z"/>
    <path class="cls-54" d="M987.37,282.48s24.17-5.4,36.97-15.78c0,0,10.77-6.22,18.34-23.61,0,0-8.68,25.29-30.42,34.66-.11,.05-.2,.08-.31,.12-1,.42-13.27,5.73-22.25,7.57,0,0-2.67-2.29-2.33-2.98Z"/>
    <path class="cls-6" d="M974.92,137.35s-15.75,7.33-22.9,11.71c-7.15,4.38-31.58,6.03-31.58,6.03"/>
    <path class="cls-27" d="M976.86,221.23s13.2,4.34,22.32,2.99c0,0-.41,3.84-4.25,4.45,0,0-15.6,1.75-22.63,8.11,0,0-11.36,1.13-20.29,6.97,0,0-.88,1.13-3.18,1.41,0,0,7.73-10.86,6.06-14.73,0,0,10.08,1.5,14.51-7.03,0,0,3.06,.43,7.47-2.16Z"/>
    <path class="cls-16" d="M953.16,195.42l-2.57,24.78s-.17,13.24,9.68,10.18c8.17-2.54,7.82-5.23,7.82-5.23"/>
    <path class="cls-6" d="M1004.87,229.07s-1.44-9.69-7.65-10.2c-6.21-.51-12.28-10.5-12.28-10.5"/>
    <g>
      <path class="cls-30" d="M993.08,174.97s-.14-.48-.62-.78c-1.59-.97-5.07-2.64-9.37-1.34-4.81,1.45-6.1,6.78-6.52,8.66-.07,.33,.02,.57,.02,.57,0,0,.06,.27,.28,.41,1.04,.66,4.35,2.37,8.93,1.07,2.72-.78,6.09-3.39,7.34-7.78,.09-.31,0-.64-.06-.81Z"/>
      <circle class="cls-54" cx="983.41" cy="178.82" r="5.2"/>
      <circle class="cls-30" cx="984.74" cy="175.2" r="1.43"/>
      <path class="cls-8" d="M976.28,181.62s2.39-13.26,16.36-7.52"/>
    </g>
    <g>
      <path class="cls-30" d="M938.26,196.09s-.06-.47-.47-.81c-1.34-1.13-4.34-3.18-8.53-2.59-4.68,.66-6.64,5.43-7.3,7.12-.11,.29-.07,.53-.07,.53,0,0,.02,.26,.2,.42,.87,.76,3.71,2.83,8.15,2.27,2.65-.33,6.15-2.28,7.94-6.19,.12-.27,.09-.59,.06-.76Z"/>
      <circle class="cls-54" cx="928.71" cy="198.28" r="4.87"/>
      <circle class="cls-30" cx="930.63" cy="194.71" r="1.37"/>
      <path class="cls-8" d="M921.91,199.99s3.66-12.61,16.05-4.54"/>
    </g>
    <g>
      <path class="cls-43" d="M1055.56,113.04s-19.71-35.23-28.29-43.18c-8.58-7.95-84.65-8.97-104.37,11.87,0,0-2.77,8.63-.97,11.7"/>
      <path class="cls-22" d="M1062.26,153.96s54.69-6.39,55.22-13.45c1.25-16.41-37.51-22.99-37.51-22.99,0,0-93.16-18.64-127.04-26.55-25.65-5.98-83.53-12.27-89.73,15.47-6.19,27.74,45.62,47.22,45.62,47.22,0,0,89.37-30.25,151.23-10.13,0,0,2.75,5.64,2.21,10.43Z"/>
      <path class="cls-2" d="M908.83,153.66s-49.33-25.05-26.01-45.78c18.75-16.67,58.28-8.27,99.59,6.49,41.31,14.75,99.78,18.04,99.78,18.04,0,0,25.53,9.66-19.93,21.54"/>
    </g>
    <path class="cls-14" d="M698.02,458s-3.61,2.16-5.72,4.56"/>
    <path class="cls-14" d="M749.67,468.55s-.6,8.06-7.52,14.82"/>
    <path class="cls-18" d="M881.01,481.94s25.65,8.63,35.73,34.42"/>
    <g>
      <rect class="cls-46" x="653.89" y="447.93" width="45.83" height="31.17"/>
      <polygon class="cls-35" points="711.28 472.25 699.72 479.55 699.72 447.71 711.28 442.67 711.28 472.25"/>
      <polygon class="cls-35" points="653.89 447.93 699.72 447.71 711.28 442.67 666.36 442.67 653.89 447.93"/>
    </g>
    <path class="cls-12" d="M723.6,486.7s-16.26-10.68-23.56-9.8c0,0-3.09,.68-8.17-4.12-4.83-4.57-7.08-11.04-11.84-8.28-6.89,3.98,.19,10.57,.19,10.57l14.94,15.2"/>
    <path class="cls-12" d="M684.54,479.41l-6.5-6.02-2.72-10.31s-1.67-5.12-7.08-4.45c-6.03,.75-4.79,7.84-4.79,7.84l4.74,13.5,12.71,13.44"/>
    <path class="cls-12" d="M668.19,479.98l-3.9-2.86-2.72-10.31s-1.67-5.12-7.08-4.45c-6.03,.75-4.79,7.84-4.79,7.84l4.74,13.5,12.71,13.44"/>
  </g>
</svg>