<?xml version="1.0" encoding="UTF-8"?>
<svg xmlns="http://www.w3.org/2000/svg" xmlns:xlink="http://www.w3.org/1999/xlink" viewBox="0 0 1334.63 1001.63">
  <defs>
    <style>
      .cls-1, .cls-2 {
        stroke-width: 1.5px;
      }

      .cls-1, .cls-2, .cls-3, .cls-4, .cls-5, .cls-6, .cls-7, .cls-8, .cls-9, .cls-10, .cls-11, .cls-12, .cls-13, .cls-14, .cls-15, .cls-16, .cls-17, .cls-18, .cls-19, .cls-20 {
        stroke-miterlimit: 10;
      }

      .cls-1, .cls-2, .cls-3, .cls-4, .cls-5, .cls-6, .cls-7, .cls-12, .cls-14, .cls-15, .cls-16, .cls-17, .cls-18, .cls-19, .cls-20 {
        fill: none;
      }

      .cls-1, .cls-4, .cls-7, .cls-10, .cls-14 {
        stroke: #231f20;
      }

      .cls-2 {
        stroke: #cfe5ae;
      }

      .cls-3 {
        stroke-width: 12px;
      }

      .cls-3, .cls-6, .cls-11, .cls-13 {
        stroke: #603913;
      }

      .cls-4 {
        stroke-width: 3px;
      }

      .cls-21 {
        fill: url(#linear-gradient);
      }

      .cls-5, .cls-6, .cls-7, .cls-13 {
        stroke-width: .8px;
      }

      .cls-5, .cls-18 {
        stroke: #754c29;
      }

      .cls-22, .cls-9 {
        fill: #006386;
      }

      .cls-23 {
        fill: #f15953;
      }

      .cls-24 {
        fill: #e6e7e8;
      }

      .cls-25, .cls-8 {
        fill: #fff200;
      }

      .cls-26, .cls-10 {
        fill: #fff;
      }

      .cls-27 {
        fill: #f1f2f2;
      }

      .cls-28 {
        fill: #ffcb05;
      }

      .cls-29 {
        fill: #fcc5a6;
      }

      .cls-30 {
        fill: #664c3d;
      }

      .cls-31 {
        fill: #803435;
      }

      .cls-32 {
        fill: #98d9e9;
      }

      .cls-33 {
        fill: #9a6c3f;
      }

      .cls-34 {
        fill: #9ecde1;
      }

      .cls-35 {
        fill: #8b5e3c;
      }

      .cls-36 {
        fill: #a48367;
      }

      .cls-37 {
        fill: #be9e7d;
      }

      .cls-38 {
        fill: #be8c8c;
      }

      .cls-39, .cls-11, .cls-13 {
        fill: #dcbf97;
      }

      .cls-40 {
        fill: #db7777;
      }

      .cls-41 {
        fill: #c6837e;
      }

      .cls-42 {
        fill: #231f20;
      }

      .cls-43 {
        fill: #414042;
      }

      .cls-44 {
        fill: #0d3449;
      }

      .cls-45 {
        fill: #3b6733;
      }

      .cls-46 {
        fill: #3aa362;
      }

      .cls-47 {
        fill: #603913;
      }

      .cls-48 {
        fill: #26130f;
      }

      .cls-8, .cls-9, .cls-15, .cls-20 {
        stroke: #fff;
      }

      .cls-8, .cls-20 {
        stroke-width: .5px;
      }

      .cls-12 {
        stroke: #58595b;
        stroke-width: 2px;
      }

      .cls-49 {
        fill: url(#linear-gradient-2);
      }

      .cls-16 {
        stroke: #ed1c24;
      }

      .cls-17 {
        stroke: #2e3192;
      }

      .cls-19 {
        stroke: #3c2415;
      }

      .cls-50 {
        fill: #fbb040;
        opacity: .5;
      }
    </style>
    <linearGradient id="linear-gradient" x1="422.95" y1="366.61" x2="422.95" y2="356.83" gradientUnits="userSpaceOnUse">
      <stop offset="0" stop-color="#a97c50"/>
      <stop offset="1" stop-color="#fff" stop-opacity="0"/>
    </linearGradient>
    <linearGradient id="linear-gradient-2" x1="471.91" y1="366.89" x2="471.91" y2="358.03" xlink:href="#linear-gradient"/>
  </defs>
  <g id="Layer_2" data-name="Layer 2">
    <rect class="cls-24" width="1334.63" height="998.98"/>
    <g>
      <rect class="cls-45" x="297.58" y="117.87" width="683.31" height="410.83"/>
      <polyline class="cls-3" points="981.92 525.87 297.58 525.87 297.58 118.46 981.88 118.46 981.52 531.82"/>
      <rect class="cls-47" x="294.22" y="528.93" width="693.08" height="18.04"/>
      <line class="cls-4" x1="294.22" y1="528.64" x2="987.07" y2="528.64"/>
      <rect class="cls-26" x="479" y="523.91" width="34.15" height="3.93" rx="1.96" ry="1.96"/>
    </g>
    <g>
      <rect class="cls-33" x="96.04" y="235.88" width="146.7" height="14.47"/>
      <rect class="cls-33" x="103.85" y="249.95" width="8.41" height="28.51"/>
      <rect class="cls-33" x="228.68" y="249.95" width="8.41" height="28.51"/>
      <path class="cls-23" d="M164.71,146.51v89.44h-15.84v-89.44s8.08-4.42,15.84,0Z"/>
      <path class="cls-46" d="M180.33,151.81v84.14h-15.84v-84.14s8.08-4.15,15.84,0Z"/>
      <path class="cls-22" d="M133.28,160.37v75.58h-15.84v-75.58s8.08-3.73,15.84,0Z"/>
      <path class="cls-32" d="M208.3,164.89l14.13,69.08-10.61,2.17-14.13-69.08s4.71-4.52,10.61-2.17Z"/>
      <path class="cls-28" d="M198.93,159.41v76.53h-18.65v-76.53s9.51-3.78,18.65,0Z"/>
      <path class="cls-16" d="M187.01,164.63h4.37s-.91,5.28,3.32,5.43v58.07s-3.62-.3-3.02,4.83h-4.22s1.06-4.37-3.02-4.83v-58.37s3.32,.45,2.56-5.13Z"/>
      <line class="cls-16" x1="187.92" y1="172.77" x2="187.92" y2="224.51"/>
      <line class="cls-16" x1="191.08" y1="172.77" x2="191.08" y2="224.51"/>
      <polygon class="cls-16" points="204.85 176.24 202.3 184.58 207.57 190.54 210.3 182.71 204.85 176.24"/>
      <polygon class="cls-16" points="212.68 211.64 210.13 219.98 215.4 225.94 218.13 218.11 212.68 211.64"/>
      <line class="cls-15" x1="150.36" y1="155.16" x2="162.53" y2="155.16"/>
      <line class="cls-15" x1="150.36" y1="227.74" x2="162.53" y2="227.74"/>
      <line class="cls-15" x1="150.36" y1="190.45" x2="162.53" y2="190.45"/>
      <path class="cls-23" d="M148.13,146.51v89.44h-15.47v-89.44s7.89-4.42,15.47,0Z"/>
      <line class="cls-15" x1="134.16" y1="155.16" x2="146.32" y2="155.16"/>
      <line class="cls-15" x1="134.16" y1="227.74" x2="146.32" y2="227.74"/>
      <line class="cls-15" x1="134.16" y1="190.45" x2="146.32" y2="190.45"/>
      <circle class="cls-26" cx="171.93" cy="162.02" r="1.82"/>
      <circle class="cls-26" cx="171.93" cy="227.12" r="1.82"/>
      <line class="cls-9" x1="124.35" y1="163.89" x2="124.35" y2="231.26"/>
    </g>
    <rect class="cls-26" x="104.1" y="316.33" width="137.54" height="141.88"/>
    <rect class="cls-23" x="119.86" y="337.97" width="44.11" height="44.11"/>
    <circle class="cls-22" cx="203.8" cy="360.26" r="21.82"/>
    <polygon class="cls-28" points="173.45 399.31 150.57 438.96 196.34 438.96 173.45 399.31"/>
    <rect class="cls-46" x="225.27" y="394.41" width="19.92" height="46"/>
    <rect class="cls-50" x="149.47" y="312.29" width="39.96" height="8.96"/>
    <g>
      <polygon class="cls-35" points="454.98 779.86 447.54 828.2 441.59 828.2 427.46 779.12 454.98 779.86"/>
      <polygon class="cls-35" points="106.01 779.86 113.44 828.2 119.39 828.2 133.52 779.12 106.01 779.86"/>
      <polygon class="cls-34" points="107.07 780.4 457.92 780.4 485.17 576.87 71.3 576.87 107.07 780.4"/>
      <rect class="cls-35" x="40.21" y="556.42" width="472.53" height="27.48"/>
      <path class="cls-23" d="M371.23,483.95H217.45c-6.67,0-11.74,5.98-10.65,12.56l9.93,60.05h154.85l8.79-62.09c.79-5.56-3.53-10.52-9.14-10.52Z"/>
      <path class="cls-46" d="M154.58,556.62H79s-3.73-8.08,0-15.84h75.58s4.47,7.79,0,15.84Z"/>
      <line class="cls-9" x1="82.53" y1="549.7" x2="149.9" y2="549.7"/>
    </g>
    <g>
      <rect class="cls-35" x="1036.28" y="114.28" width="297.7" height="715.27"/>
      <rect class="cls-42" x="1060.75" y="708.03" width="245.29" height="95.47"/>
      <rect class="cls-19" x="1060.75" y="146.12" width="245.29" height="539.88"/>
      <line class="cls-19" x1="1176.78" y1="146.95" x2="1176.78" y2="683.06"/>
      <rect class="cls-19" x="1189.47" y="400.08" width="9.72" height="41.52"/>
      <rect class="cls-19" x="1153.22" y="400.08" width="9.72" height="41.52"/>
    </g>
    <rect class="cls-29" x="2.21" y="828.2" width="1332.42" height="170.79"/>
  </g>
  <g id="Layer_1" data-name="Layer 1">
    <g>
      <path class="cls-35" d="M721.65,836.86l-28.44,163.74h27.67l26.14-116.08,122.23-4.61s10.76-3.84,10.76,13.84l18.45,106.08h26.14l-28.44-156.82s-1.54-8.46,6.15-9.99"/>
      <path class="cls-36" d="M679.5,800.45s-4.64,30.91,12.25,34.85c16.89,3.94,237.52-1.13,237.52-1.13,0,0,16.72,1.46,8.64-34.73"/>
      <path class="cls-35" d="M695.59,783.35s-17.09,6.03-16.09,17.09c0,0,169.93,33.18,258.41-1.01,0,0-4.02-13.07-36.2-22.12"/>
    </g>
    <g>
      <path class="cls-35" d="M348.85,839.21l5.51,6.89-28.24,153.62h27.56l16.53-108.16s0-8.96,16.53-8.27h112.98s10.33-2.07,11.71,9.64l19.29,107.47h24.11l-26.18-156.38s0-5.51,6.2-6.89"/>
      <path class="cls-36" d="M311.06,803.24s-12.18,31.32,7.7,35.46,227.79-1.66,227.79-1.66l16.57-31.48s-217.52,17.72-252.06-2.32Z"/>
      <path class="cls-35" d="M344.49,782.92s-28.19,6.56-33.43,20.32c0,0,34.35,22.89,263.4,2.37l-18.53-37.18-211.44,14.49Z"/>
    </g>
    <g>
      <path class="cls-35" d="M1256.99,840.43l-5.51,6.89,28.24,153.62h-27.56s-16.53-108.16-16.53-108.16c0,0,0-8.96-16.53-8.27h-112.98s-10.33-2.07-11.71,9.64l-19.29,107.47h-24.11s26.18-156.38,26.18-156.38c0,0,0-5.51-6.2-6.89"/>
      <path class="cls-36" d="M1294.78,804.45s12.18,31.32-7.7,35.46c-19.88,4.14-227.79-1.66-227.79-1.66l-16.57-31.48s217.52,17.72,252.06-2.32Z"/>
      <path class="cls-35" d="M1261.35,784.13s28.19,6.56,33.43,20.32c0,0-34.35,22.89-263.4,2.37l18.53-37.18,211.44,14.49Z"/>
    </g>
    <g>
      <path class="cls-13" d="M684.33,558.27s-20.38,46.47-10.81,57.87,28.33,22.07,50.4,10.3l9.2-9.57s-7.3-47.57-5.96-56.6"/>
      <path class="cls-39" d="M838.38,381.8s-9.35,48.05,17.83,55.5c0,0,.02,48.22-64.99,50.25,0,0-18.52-8.51-30.8-51.87,0,0,19.5-6.58,19.75-17.9,.27-11.98-3.52,.37-3.52,.37l61.73-36.35"/>
      <path class="cls-39" d="M840.53,357.41s-3.25-65.98-55.25-64.39c0,0-38.59-.16-36.52,54.35,0,0,2.06,8.76,.56,13.38,0,0-2.73,14.24,1.74,26.08,6.7,17.77,15.59,26.97,15.59,26.97,0,0,7.55,7.17,21.02,7.43,0,0,9.47-.21,21.58-7.86,0,0,30.57-13.65,29.14-31.57,0,0,11.52,6.87,17.62-14.28,0,0,7.85-18.27,.83-21.31-8.86-3.83-12.16,1.94-16.3,11.19Z"/>
      <path class="cls-48" d="M791.88,339.4s18.34-5.94,26.87,0c0,0-6.4-9.56-27.37-4.38,0,0-3.67,2.84,.5,4.38Z"/>
      <path class="cls-48" d="M747.68,334.94c.44-.95,9.8-.82,18.29,1.27,0,0,3.67,2.84-.5,4.38,0,0-15.27-6-17.9-1.09,0,0-.97-2.22,.11-4.57Z"/>
      <path class="cls-14" d="M776.67,377.33c-12.83-1.71-4.31-13.56-4.31-13.56"/>
      <path class="cls-14" d="M855.94,360.56s-4.74-12.58-14.4,7.66c0,0,8.2-8.93,9.66-1.28"/>
      <path class="cls-48" d="M779.9,419.97s4.16,3.85,18.63-1.23c0,0,12.65-4.23,22.99-12.55,0,0-13.12,14.56-30.88,16.75,0,0-4.73,1.41-11.44-.98,0,0,1.03-.11,.7-1.99Z"/>
      <path class="cls-41" d="M800.09,387.05s-8.14-2.51-17.83,.24c0,0-8.38-1.68-15.91,0,0,0,.84,13.52,13.52,16.51,12.68,2.99,20.46-8.85,20.22-16.75Z"/>
      <path class="cls-31" d="M798.06,388.01s.12,11.96-15.43,11.96c-14.13,0-14.24-10.65-14.24-10.65,0,0,15.91,.72,29.67-1.32Z"/>
      <path class="cls-26" d="M796.13,388.18s-3.85,5.54-15.89,4.96c0,0-7.42,.37-10.54-3.58,0,0,15.51,.34,26.43-1.38Z"/>
      <g>
        <path class="cls-26" d="M810.52,350.37s.02-.4-.27-.74c-.94-1.14-3.12-3.28-6.67-3.41-3.98-.15-6.31,3.51-7.1,4.81-.14,.22-.13,.43-.13,.43,0,0-.02,.22,.11,.38,.61,.76,2.65,2.9,6.41,3.09,2.24,.12,5.43-.97,7.49-3.94,.14-.21,.16-.48,.16-.62Z"/>
        <circle class="cls-48" cx="802.29" cy="350.77" r="4.11"/>
        <circle class="cls-26" cx="804.91" cy="350.03" r="1.13"/>
        <path class="cls-7" d="M796.23,351.03s5.19-9.31,14.18-1.42"/>
      </g>
      <g>
        <path class="cls-26" d="M764.05,351.6s.07-.37-.14-.73c-.71-1.19-2.43-3.49-5.72-4.13-3.68-.71-6.37,2.36-7.29,3.46-.16,.19-.18,.38-.18,.38,0,0-.05,.2,.04,.37,.46,.79,2.05,3.07,5.52,3.79,2.07,.43,5.19-.13,7.53-2.59,.16-.17,.22-.42,.24-.55Z"/>
        <circle class="cls-48" cx="756.34" cy="350.79" r="3.86"/>
        <circle class="cls-26" cx="759" cy="350.56" r="1.08"/>
        <path class="cls-7" d="M750.81,350.32s5.98-8.5,13.18,.73"/>
      </g>
      <path class="cls-48" d="M753.85,393.53c-7.25-13.6-4.93-30.87-4.93-30.87,0,0,.95-3.28,1.38-9.92,.43-6.61-.97-8.15-.35-14.04,0,0,20.67-4.76,38.22-22.64,0,0,20.35-8.14,5.11-6.43,0,0,5.96-8.05,28-1.27,0,0,3.44,32.42,19.26,49.05,0,0,7.82-15.13,16.3-11.19,8.48,3.94-4.47,27.27-4.47,27.27,0,0-3.88,13.86-13.5,7.78,0,0-4.88,13.55-1.58,28.5,0,0,2.65-1.39,6.38-5.87,0,0-2.52,7.06-7.32,11.86,0,0,20.18-4.81,22.11-24.51,0,0,0-6.73,5.29-7.69,5.29-.96,12.48-19.89,11.52-36.23-.96-16.34-13.28-71.84-49.7-73.06,0,0-19.55-8.65-44.51,6.48-24.96,15.13-22.41,18.76-43.58,50.46,0,0-9.66,2.93,5.81,16.06,0,0-4.25,16.65-1.48,11.72,0,0-3.4,17.25,4.11,24.29,0,0-1.17-5.16-1.02-13.49,0,0-2,18.58,12.72,30.91"/>
      <path class="cls-2" d="M818.82,342.41s-17.62-6-33.84,.07c0,0-2.28,23.57,15.59,24.33,0,0,23.2-.45,18.26-24.4Z"/>
      <path class="cls-2" d="M773.65,342.22s6.56-3.07,11.33,.25"/>
      <line class="cls-2" x1="816.53" y1="342.09" x2="843.54" y2="350.42"/>
      <line class="cls-8" x1="842.61" y1="378.71" x2="842.61" y2="392.42"/>
      <polygon class="cls-20" points="844.43 394.3 842.77 391.26 841.37 394.43 837.97 395.07 840.55 397.38 840.11 400.81 843.1 399.07 846.23 400.55 845.5 397.17 847.88 394.65 844.43 394.3"/>
      <path class="cls-48" d="M825.54,274.26s-23.39-17.93-44.75-2.74c0,0-5.24,9.55-18.45,7.13-6.98-1.28-8.7,9.67-8.7,9.67,0,0,2.24,9.05-6.12,8.38,0,0-13.53,3.82-11.27,19.62,2.26,15.8-7.21,20.69-7.21,20.69,0,0-8.01,5.5-4.4,14.17,0,0,3.87,5.8,1.61,9.03-2.26,3.22-6.45,2.26-6.45,2.26,0,0,5.8,4.19,10.64-2.9,4.84-7.09,6.45-13.54,6.45-13.54,0,0-2.9,9.67-.97,15.15,0,0,.32,2.58-4.19,6.77-4.51,4.19-2.26,9.03-2.26,9.03,0,0,1.29-6.12,4.19-6.77,2.9-.64,4.84-1.61,4.84-1.61,0,0,4.02,9.4,7.41,14.68,1.41,2.19,.92,7.11-5.53,8.72-6.45,1.61-1.02,14.28-1.02,14.28,0,0-.17-11.49,5.31-10.2,5.48,1.29,5.45-4.27,5.45-4.27,0,0-4.19-10.96-2.9-24.5l-1.93-28.69s11.28-1.29,18.05-5.16c0,0,18.42-9.34,24.84-17.4,0,0-9.48,9.2-10.08,12.71-1.34,7.88-9.8,9.8-9.8,9.8,0,0,12.07,1.15,13.26-5,2.11-10.95,11.72-10.37,11.72-10.37,0,0,10.67,2.2,16.8-6.5,6.12-8.7,11.21-8.33,11.21-8.33,0,0,16.87-13.99,4.28-34.1Z"/>
      <path class="cls-48" d="M738.49,368.59s2.85,3.98,.27,9.5c-2.57,5.52-6.62,5.89-6.25,10.67,.37,4.78,7.54,13.24,7.54,13.24,0,0-5.15-7.72-2.94-13.24,2.21-5.52,8.79-5.49,8.79-5.49"/>
      <path class="cls-2" d="M773.65,342.22s-15.37-5.81-29.05,1.69c0,0-4.18,21.36,13.68,22.12,0,0,20.31,.15,15.37-23.8Z"/>
      <path class="cls-26" d="M818.48,667.62c59.82,2.63,97.16,27.91,97.16,27.91-15.01-44.41-20.31-86.92-20.31-86.92,7.51-2.5,18.8-51.9,18.8-51.9,0,0,10.89-55.7-1-87.6-11.88-31.9-55.04-46.33-55.04-46.33-8.8,14.78-38.69,34.65-38.69,34.65l-14.92-11.38-17.62,15.76-5.39-18.29-14.92-11.89s-42.88,12.93-51.81,42.69c-8.93,29.76-29.66,73.21-29.66,73.21,0,0,6.5-5.81,43.41,3.71,0,0-5.75,25.78,3.52,70.11l-11.91,55.96s23.87-10.45,51.23-9.69"/>
      <path class="cls-14" d="M863.19,545.99s1.71-15.6,.03-39.43c-1.67-23.83,20.91-48.09,20.91-48.09"/>
      <path class="cls-13" d="M690.02,593.4s-7.61,5.46-14.12,21.05"/>
      <path class="cls-13" d="M732.01,621.35c-9.92-20.74-18.91-29.29-18.91-29.29"/>
      <line class="cls-11" x1="687.9" y1="549.79" x2="695.71" y2="544.21"/>
      <path class="cls-12" d="M745.41,540.96s-4.09-13.64-15.68-14.32c-11.59-.68-62.05,0-62.05,0,0,0-13.64-.68-11.59,17.73"/>
      <polygon class="cls-27" points="756.75 547.53 763.34 537.14 695.05 444.39 639.19 464.11 635.9 467.4 604.86 457.9 601.41 466.33 627.87 494.05 756.75 547.53"/>
      <polygon class="cls-30" points="688.4 456.39 638.69 467.99 634.55 472.13 601.41 466.33 662.72 549.18 685.09 547.53 686.33 550.84 694.61 547.11 756.75 547.53 688.4 456.39"/>
      <line class="cls-14" x1="638.69" y1="467.99" x2="688.48" y2="540.06"/>
      <line class="cls-14" x1="634.55" y1="472.13" x2="683.71" y2="544.88"/>
      <line class="cls-14" x1="633.96" y1="482.28" x2="618.18" y2="481.56"/>
      <g>
        <path class="cls-13" d="M690.02,593.4l-.33-12.71c-3.68-8.03-3.35-18.07-3.35-18.07l-2.01-4.35,1.67-7.03-2.68-6.36-4.68-9.03s1-9.7,6.36-13.72c5.35-4.01,6.36,2.01,6.36,2.01l-2.34,10.71,6.69,9.37,8.03-4.01s13.05-3.35,19.41-2.01c0,0,4.68,1.67,2.68,6.69,0,0,4.68,1.67,2.68,6.36,0,0,4.68,2.34-1.34,9.03-6.02,6.69-13.38,16.06-13.38,16.06l-.67,15.73"/>
        <path class="cls-13" d="M698.08,557.37s9.99-10.05,27.73-12.48"/>
        <line class="cls-13" x1="701.16" y1="567.79" x2="728.49" y2="551.24"/>
        <line class="cls-13" x1="708.74" y1="579.63" x2="713.77" y2="576.33"/>
      </g>
      <path class="cls-39" d="M779.7,563.76l-10.36-16.25-9.4-4.58,3.4-5.78-17.39-24.12,1.69-.48-.96-7.96s12.3-13.02,20.98-6.27c0,0,11.33-6.03,13.75,5.79l7.48,8.92v4.34s6.75,1.45,6.51,17.84l6.01,4.23,45.1,26.51,17.3-10.2,.64-9.94s33.03,14.43,49.7,10.9c0,0,.32,53.23-24.05,57.08s-50.34,6.73-74.07-8.34-36.32-41.69-36.32-41.69Z"/>
      <path class="cls-6" d="M747.64,512.54s2.53,7.9,4.71,8.67c0,0,1.24-9.49,13.84-15.71"/>
      <path class="cls-6" d="M752.35,521.21s1.71,5.13,4.36,5.44c0,0,5.76-12.76,23.64-14,0,0-16.33,5.6-23.8,15.09,0,0,1.36,4.18,7.21,2.47s13.5-7.29,13.5-7.29l3.06,2.34"/>
      <path class="cls-6" d="M788.69,526.08s-7.65-6.03-21.33,7.92c0,0,.81,4.95,7.29,3.51,6.48-1.44,8.46-3.96,8.46-3.96l3.78,3.87"/>
      <path class="cls-44" d="M720.11,677.31s-28.91,35.46-28.44,48.13,4.22,77.42,4.22,77.42c0,0-2.35-57.71,42.7-60.06,45.04-2.35,69.91,3.75,69.91,3.75,0,0,37.54,4.93,38,65.22,0,0,13.14-12.43,34.72-17.13,21.58-4.69,33.78-38.94,33.78-38.94,0,0,7.38-47.62,.64-60.17,0,0-78.43-53.91-195.54-18.22Z"/>
      <path class="cls-39" d="M729.45,998.83s-33.55-134.04-33.56-195.98c0-61.94,42.7-60.06,42.7-60.06,0,0,27.07,4.3,30.61,27.27s-2.65,229.65-2.65,229.65l-37.1-.88Z"/>
      <path class="cls-43" d="M729.45,998.83s-19.3-76.53-25.18-122.22c0,0,28.09,25.58,65.3-3.8l-3.02,126.9-37.1-.88Z"/>
      <path class="cls-39" d="M810.91,998.83s33.55-134.04,33.56-195.98-42.7-60.06-42.7-60.06c0,0-27.07,4.3-30.61,27.27s2.65,229.65,2.65,229.65l37.1-.88Z"/>
      <path class="cls-43" d="M810.91,998.83s20.36-84.88,26.23-130.58c0,0-28.85,29.38-66.05,0l2.72,131.46,37.1-.88Z"/>
      <path class="cls-42" d="M738.59,742.8s35.66-2.42,57.73,1.46c0,0-28.34,3.88-26.55,42.65,0,0-.62-41.1-31.18-44.11Z"/>
      <path class="cls-27" d="M782.95,446.62l2.44,61.04s7.8,7.49,11.89-1.11l-2.11-49.17-8.3,4.41-3.92-15.18Z"/>
      <circle class="cls-26" cx="789.47" cy="476.72" r="1.54"/>
      <circle class="cls-26" cx="790.32" cy="492.02" r="1.54"/>
      <path class="cls-27" d="M766.56,431.62l11.38-7.33s1.77,9.61,6.32,12.14l3.54,25.29,12.14-23.77s23.34-8.3,37.34-28.17l20.83,13s-18.97,28.83-38.69,34.65l-14.92-11.38-17.2,22.51-5.82-25.04-11.89,7.33s-3.79-3.29-3.03-19.22Z"/>
      <path class="cls-6" d="M863.8,555.74s15.5,2.06,19.97,17.27"/>
    </g>
    <g>
      <path class="cls-37" d="M971.64,722.99s-27.14,12.12-10.15,61.79l18.3,64.04s49.66,20.91,88.22-5.23c0,0-2.89-26.4-15.5-34.44l-38.09-75.34-42.78-10.82Z"/>
      <path class="cls-44" d="M1106.93,677.65s-57.44,8.31-135.29,45.35c0,0,29.48,5.29,47.61,36.28,18.14,30.99,33.25,49.88,33.25,49.88l142.84-1.51s46.1,11.34,80.11-34.77c0,0,18.14-36.28,8.31-71.04l-176.85-24.19Z"/>
      <path class="cls-37" d="M1213.96,382.78s-7.79,40.04,14.86,46.25c0,0-4.9,58.64-59.08,60.34,0,0-51.32-3.64-26.82-55.98l13.93-7.47c.22-9.99-1.15-11.58-1.15-11.58l58.26-31.57"/>
      <path class="cls-37" d="M1130.23,317.04s-4.11,10.06-1.14,32.68c0,0,.91,8.46-.91,13.49,0,0-.91,18.74,6.63,32.23,7.54,13.49,21.26,21.03,21.26,21.03,0,0,13.26,3.89,23.54-1.14,10.29-5.03,25.14-8,34.74-34.28,0,0,8,6.4,12.8-6.4,4.8-12.8,10.97-17.37,5.26-27.88-5.71-10.51-16.46,11.43-16.46,11.43,0,0,8.46-20.8,1.14-40.91-7.31-20.11-34.06-32.91-34.06-32.91,0,0-37.94-9.37-52.8,32.68Z"/>
      <path class="cls-48" d="M1169.95,339.61s14.31-3.25,26.79,1.12c0,0-6.07-7.86-27.14-4.55,0,0-3.5,2.14,.34,3.43Z"/>
      <path class="cls-48" d="M1126.27,339.62c10.28-.95,17.42,.95,17.42,.95,3.89-1.14,.48-3.41,.48-3.41-6.52-1.29-13.96-1.02-17.9-.62,0,0-.56,3.14,0,3.09Z"/>
      <path class="cls-38" d="M1174.01,386.02s-7.59-2.34-16.62,.22c0,0-7.81-1.56-14.84,0,0,0,.78,12.61,12.61,15.4,11.83,2.79,19.08-8.26,18.86-15.62Z"/>
      <path class="cls-31" d="M1172.12,386.91s.11,11.16-14.39,11.16c-13.17,0-13.28-9.93-13.28-9.93,0,0,14.84,.67,27.67-1.23Z"/>
      <path class="cls-26" d="M1170.32,387.07s-3.59,5.17-14.82,4.62c0,0-6.92,.35-9.82-3.33,0,0,14.47,.31,24.64-1.29Z"/>
      <path class="cls-14" d="M1151.97,364.22s-8.79,7.05,.38,11.54"/>
      <path class="cls-48" d="M1156.63,416.56s15.13,3.62,26.77-3.07c0,0,6.83-1.74,17.85-10.46,0,0-5.45,11.05-27.4,16.17,0,0-7.57,1.08-17.17,1.06,0,0-.2-2.17-.05-3.71Z"/>
      <path class="cls-14" d="M1230.58,359.79s-3.79-5.74-8.04,.11c-4.25,5.86-4.48,7.81-4.48,7.81,0,0,6.09-9.3,8.5-1.84"/>
      <path class="cls-48" d="M1138.42,401.07c-14.1-11.81-14.12-31.04-14.12-31.04-.14,7.98,.98,12.92,.98,12.92-7.19-6.74-3.94-23.27-3.94-23.27,0,0-7.88-10.07-4.15-26.61,9.41-41.73,17.61-42.68,41.52-57.17,23.91-14.49,42.87,2.62,42.87,2.62,34.9,1.18,48.09,57.29,49.01,72.94,.92,15.65-7.37,30.85-12.43,31.77-5.06,.92-5.06,7.37-5.06,7.37-1.84,18.88-21.18,23.48-21.18,23.48,4.6-4.6,7.01-11.36,7.01-11.36-3.58,4.29-11.44,7.87-11.44,7.87,5.71-21.66,6.84-29.54,6.84-29.54,9.22,5.82,12.94-7.45,12.94-7.45,0,0,12.4-22.35,4.28-26.13-8.12-3.78-15.61,10.72-15.61,10.72-14.82-8.42-28.19-43.72-28.19-43.72-4.22,.46-6.94,15.51-6.94,15.51-10.04-3.99-13.93-11.52-15.36-10.19-8.67,8.09,.74,21.71,.74,21.71-10.19,.22-26.58-30.57-26.58-30.57-11.22,13.29-10.45,29.33-10.45,29.33-.59,5.64,.74,7.12,.33,13.45-.41,6.36-1.32,9.51-1.32,9.51,0,0,.97,21.68,5.4,29.91"/>
      <ellipse class="cls-26" cx="1217.79" cy="378.38" rx="1.95" ry="2.36"/>
      <g>
        <path class="cls-26" d="M1187.15,350.72s.02-.4-.26-.74c-.93-1.13-3.1-3.25-6.62-3.38-3.95-.15-6.26,3.48-7.05,4.77-.14,.22-.13,.42-.13,.42,0,0-.02,.22,.11,.38,.6,.75,2.63,2.87,6.36,3.07,2.22,.12,5.39-.96,7.44-3.91,.14-.21,.16-.47,.16-.62Z"/>
        <circle class="cls-48" cx="1178.98" cy="351.12" r="4.08"/>
        <circle class="cls-26" cx="1181.59" cy="350.38" r="1.12"/>
        <path class="cls-7" d="M1172.97,351.37s5.15-9.24,14.07-1.41"/>
      </g>
      <g>
        <path class="cls-26" d="M1146.53,352.4s.07-.37-.14-.72c-.71-1.18-2.42-3.47-5.67-4.09-3.65-.7-6.32,2.34-7.24,3.43-.16,.19-.18,.38-.18,.38,0,0-.05,.2,.04,.37,.45,.79,2.03,3.05,5.48,3.76,2.05,.43,5.15-.12,7.48-2.57,.16-.17,.22-.42,.24-.55Z"/>
        <circle class="cls-48" cx="1138.88" cy="351.59" r="3.83"/>
        <circle class="cls-26" cx="1141.52" cy="351.37" r="1.07"/>
        <path class="cls-7" d="M1133.39,351.12s5.94-8.43,13.08,.72"/>
      </g>
      <path class="cls-1" d="M1192.36,343.59s-15.59-5.31-29.95,.06c0,0-2.02,20.86,13.79,21.53,0,0,20.53-.4,16.16-21.59Z"/>
      <path class="cls-1" d="M1152.38,343.43s-13.6-5.14-25.71,1.49c0,0-3.7,18.9,12.11,19.57,0,0,17.98,.13,13.6-21.07Z"/>
      <path class="cls-1" d="M1152.38,343.43s5.8-2.71,10.03,.23"/>
      <line class="cls-1" x1="1190.33" y1="343.31" x2="1220.18" y2="349.23"/>
      <path class="cls-43" d="M1034.68,998.46l-54.89-149.64s52.93,16.34,88.22-5.23c0,0,15.03,33.98,12.42,84.29l5.23,71.88-50.97-1.31Z"/>
      <path class="cls-18" d="M1045.13,998.46l-45.74-125.46s-65.34-144.41-8.49-141.8"/>
      <path class="cls-39" d="M1125.72,597.55s-15.84,19.92-29.38,20.59c0,0-21.6-34.87-31.4-43.5l21.86-14.06s30.27,37.64,38.91,36.97Z"/>
      <path class="cls-26" d="M1119.9,595.03s-13.84,68.02-12.97,82.62c2.74,46.43,176.85,24.19,176.85,24.19l-5.02-59.85c-1.03-22.48-4.21-75.12-4.21-75.12l17.67-6.81c-1.76-47.97-21.5-105.99-21.5-105.99-6.7-19.92-44.83-31.09-44.83-31.09l-46.5,23.27-14.92,22.51-5.79-30.32-12.2-6.61s-34.21,17.3-37.83,38.72c-3.63,21.43-21.84,90.02-21.84,90.02,0,0,22.49,33.71,33.09,34.45Z"/>
      <g>
        <path class="cls-10" d="M971.93,517.74l6.96-6.34s25.5-1.65,26.47,21.05c0,0,14.45-14.98,53.18-19.56l9.82,9.08-68.9,22.79-8.58-1.97-18.94-25.05Z"/>
        <path class="cls-30" d="M1072.97,521.65s-59.66,1.98-71.4,21.08l-8.19-3.1s13.93-17.98-26.29-23.2l59.38,97.04,22.16,23.79s33.75-8.43,70.83-.25c0,0-19.05-73.18-46.51-115.36Z"/>
        <line class="cls-14" x1="993.39" y1="539.63" x2="1046.85" y2="635.15"/>
        <line class="cls-14" x1="1001.58" y1="542.73" x2="1055.69" y2="634.09"/>
      </g>
      <path class="cls-37" d="M1234.7,561.72c-4.09,10.7-7.78,49.09-7.78,49.09-27.51-6.04-86.83-1.42-86.83-1.42,0,0-18.59-22.74-30.93-22.46l-8.62-1.32s-1.95,3.39,2.32,6.82c0,0,10.04,8.81,5.67,9.78-10.18,2.28-16.04-.29-16.04-.29l-11.06-8.17s-4.46-2.49-4.8,4.31c0,0-5.57,2.39-.13,8.42,0,0-1.42,5.53,3.16,11.26,0,0,1.54,9.35,4.58,11.55,3.04,2.2,31.32,4.16,31.32,4.16l21.16-.89s65.75,28.17,125.53,10.58c0,0,23.37-48.21,26.34-82.61"/>
      <path class="cls-5" d="M1076.62,598.05s8.79,11.37,20.99,12.36"/>
      <path class="cls-5" d="M1076.52,606.28s10.31,11.1,22.21,10.66"/>
      <polyline class="cls-5" points="1079.64 617.73 1091.07 624.45 1099.18 623.73"/>
      <path class="cls-17" d="M1118.25,484.33s-.42,15.07-1.69,24.8c-1.27,9.73-2.95,42.79,1.69,64.19s1.65,21.71,1.65,21.71"/>
      <path class="cls-17" d="M1240.58,457.59s-19.83,4.38-19.83,29.66c0,25.29,7.42,72.21,7.42,72.21"/>
      <path class="cls-5" d="M1226.73,611.21s12.16,2,17.29,14.62"/>
      <path class="cls-5" d="M1084.36,562.35s13.74,6.52,14.23,20.49"/>
      <path class="cls-27" d="M1160.7,446.84l2.12,61.04s6.77,7.49,10.32-1.11l-1.83-49.17-7.2,4.41-3.4-15.18Z"/>
      <ellipse class="cls-26" cx="1166.35" cy="476.94" rx="1.33" ry="1.54"/>
      <ellipse class="cls-26" cx="1167.09" cy="492.24" rx="1.33" ry="1.54"/>
      <path class="cls-27" d="M1146.48,431.84l9.87-7.33s1.54,9.61,5.48,12.14l3.07,25.29,10.53-23.77s27.3-3.05,39.44-22.92l11.01,7.75s-16.45,28.83-33.56,34.65l-12.94-11.38-14.92,22.51-5.05-25.04-10.31,7.33s-3.29-3.29-2.63-19.22Z"/>
    </g>
    <g>
      <path class="cls-39" d="M488.52,612.6s18.26,19.92,33.87,20.59c0,0,24.91-34.87,36.2-43.5l-25.2-14.06s-34.9,37.64-44.86,36.97Z"/>
      <path class="cls-39" d="M629.26,722.75s31.06,12.12,11.61,61.79l-32.36,97.03s-52.31,14.69-96.43-11.45c0,0,10.19-53.16,24.62-61.2l43.59-75.34,48.97-10.82Z"/>
      <path class="cls-43" d="M557.11,998.22l51.41-116.65s-56.05,10.11-96.43-11.45c0,0-10.32,7.22-7.33,57.53l-5.98,71.88,58.34-1.31Z"/>
      <path class="cls-18" d="M545.14,998.22l52.36-125.46s74.79-144.41,9.72-141.8"/>
      <path class="cls-44" d="M305.3,689.8s-15.84,67.45,7.67,90.45c23.51,23,89.43,26.57,89.43,26.57l149.21-1.53s29.13-35.77,37.81-56.21c8.69-20.44,41.39-24.53,41.39-24.53,0,0-12.41-19.24-113-44.11l-78.51-33.06-133.99,42.42Z"/>
      <path class="cls-48" d="M317.47,476.79s-3.08-4.37,.22-12.06c0,0-7.25-6.78-.23-14.97,0,0-5.38-10.29,4.44-16.14,0,0-4.12-9.99,1.4-14.97,0,0-2.1-9.91,3.98-12.4,0,0-1.87-7.71,5.32-11.02,0,0-4.61-10.27,3.68-11.93,0,0-3.87-6.36,2.21-9.67,0,0-7.46-4.42-2.49-12.44,0,0-5.25-4.42,.28-10.23,0,0-5.25-5.53,1.66-10.23,0,0-2.49-8.57,4.42-10.5,0,0,0-10.23,8.02-10.23,0,0,2.22-8.44,9.96-7.67,0,0-1.94-11.12,8.56-13.88,0,0,1.66-12.71,13.82-11.61,0,0,12.44-10.23,24.88-6.36,0,0,13.82-4.98,23.22,.83,0,0,8.13-3.86,17.47,2.63,0,0,10.17-2.63,16.25,4.28,0,0,11.33,1.66,13.27,10.5,0,0,7.74,1.93,7.19,11.06,0,0,8.02,2.49,3.87,10.78,0,0,6.36,3.32,1.93,10.78,0,0,5.56,8.71,.43,16.66,0,0,8.14,9.6,2.89,19.55,0,0,4.98,3.59,1.38,11.33,0,0,3.59,6.91-1.38,14.93,0,0,5.71,5.52,.23,13.4,0,0,6.41,7.05,3.09,13.13,0,0,4.7,8.02-2.49,12.16,0,0,2.21,10.5-3.87,10.78,0,0,3.59,9.4-6.91,12.16,0,0-32.06,35.38-69.38,23.77-37.31-11.61-97.3-2.43-97.3-2.43Z"/>
      <path class="cls-39" d="M390.94,396.66s2.85,28.53-4.83,45.5c0,0-7.03,79.4,57.49,81.42,0,0,48.1-12.96,18.92-75.28,0,0-11.61-4.53-11.86-15.76-.26-11.89,1.53,.2,1.53,.2l-61.26-36.08"/>
      <path class="cls-39" d="M387.91,373.32s3.45-.64,4.63-6.15c.78-3.63,7.77-2.14,7.27-12.19-.25-4.89,7.67-3.21,6.33-14.92-.91-7.94,9.94-6.44,4.89-25.43,0,0,4.93,6.57,15.09-.46,4.11-2.85,10.7-.85,16.28-1.75,0,0,7.7-3.87,12.66,1.38,6.82,7.23,12.31,4.48,17.4,10.45,6.54,7.67,10.58,20.27,7.05,40.9,0,0-1.69,6.02-.2,10.61,0,0,5.51,7.02-1.07,24.63-6.58,17.61-17.25,27.92-17.25,27.92,0,0-6.37,7.22-19.74,7.47,0,0-10.57,1.37-22.58-6.22,0,0-29.16-15.12-27.74-32.9,0,0-13.16,8.89-19.21-12.09,0,0-5.34-29.07,16.18-11.25Z"/>
      <path class="cls-40" d="M431.3,403.48s13.23-4.49,19.17,0c0,0,3.64-3.76,14.56,.24,0,0,1.21,15.77-15.05,15.77-18.57,0-18.69-16.02-18.69-16.02Z"/>
      <path class="cls-31" d="M433.85,405.18s1.82,10.31,14.68,10.44c12.86,.12,14.2-10.31,14.2-10.31,0,0-20.99-2.06-28.88-.12Z"/>
      <path class="cls-48" d="M437.09,354.58s-18.2-5.9-26.66,0c0,0,6.35-9.49,27.16-4.35,0,0,3.64,2.82-.5,4.35Z"/>
      <path class="cls-48" d="M480.94,350.15c-.44-.94-9.72-.82-18.15,1.26,0,0-3.64,2.82,.5,4.35,0,0,15.15-5.96,17.76-1.08,0,0,.96-2.21-.11-4.54Z"/>
      <circle class="cls-48" cx="472.21" cy="366.36" r="3.64"/>
      <path class="cls-26" d="M437.01,404.67s3.02,3.12,12.9,3.33c9.1,.19,11.73-2.84,11.73-2.84,0,0-13.39-1.71-24.63-.49Z"/>
      <path class="cls-14" d="M372.71,378.44s4.7-12.48,14.29,7.6c0,0-8.14-8.86-9.59-1.27"/>
      <path class="cls-48" d="M450.93,433.82s-9.33,5.67-25.95-.74c0,0-8.15-3.11-18.42-11.37,0,0,12.73,14.38,31.75,15.76,0,0,5.76,.78,12.89-1.91,0,0-.59,.11-.27-1.75Z"/>
      <ellipse class="cls-25" cx="385.47" cy="394.42" rx="1.94" ry="2.35"/>
      <path class="cls-14" d="M458.28,379.61s7.46,11.09-5.54,12.4"/>
      <path class="cls-21" d="M432.51,366.61s-.39-6.48-6.72-7.05c0,0-2.64-.79-6.78,2.52s-5.9,3.52-5.9,3.52c0,0,1.65-3.99,3.78-6,1.5-1.42,4.37-3.14,8.96-2.69,0,0,8.51-.22,6.66,9.71Z"/>
      <path class="cls-49" d="M479.24,366.03s-3.2-4.08-6.78-5.09c0,0-3.07-.61-5.53,1.84-1.52,1.52-2.43,4.11-2.43,4.11,0,0,.34-4.98,2.47-7,1.5-1.42,3.18-2.18,7.77-1.74,0,0,5.31,1.23,4.5,7.87Z"/>
      <path class="cls-25" d="M432.51,366.61s-.89-6.47-8.21-5.99c0,0-3.59,.51-6.16,2.61,0,0-1.82,1.91-5.03,2.37,0,0,3.11-1.42,5.4-3.75,2.16-2.2,5.88-3.02,9.32-1.95,0,0,3.91,.68,4.67,6.71Z"/>
      <g>
        <path class="cls-26" d="M418.45,365.54s-.02-.4,.26-.74c.93-1.13,3.1-3.25,6.62-3.38,3.95-.15,6.26,3.48,7.05,4.77,.14,.22,.13,.42,.13,.42,0,0,.02,.22-.11,.38-.6,.75-2.63,2.87-6.36,3.07-2.22,.12-5.39-.96-7.44-3.91-.14-.21-.16-.47-.16-.62Z"/>
        <circle class="cls-48" cx="426.62" cy="365.93" r="4.08"/>
        <circle class="cls-26" cx="424.01" cy="365.2" r="1.12"/>
        <path class="cls-42" d="M432.51,366.61s-5.04-9.67-13.96-1.84c0,0-2.12,1.94-5.44,.83,0,0,3.11-.52,5.03-2.37s6.14-3.33,9.84-2.22c3.7,1.11,4.53,5.6,4.53,5.6Z"/>
      </g>
      <path class="cls-25" d="M464.7,366.44s6.48-9.23,12.97-1.52c0,0,.55,1.13,1.57,1.11,0,0-1.67-1.54-2.55-3.15-.88-1.61-4.57-3.4-7.95-1.39-2.61,1.55-4.04,4.96-4.04,4.96Z"/>
      <g>
        <path class="cls-26" d="M464.56,367.17s-.07-.37,.14-.72c.71-1.18,2.42-3.47,5.67-4.09,3.65-.7,6.32,2.34,7.24,3.43,.16,.19,.18,.38,.18,.38,0,0,.05,.2-.04,.37-.45,.79-2.03,3.05-5.48,3.76-2.05,.43-5.15-.12-7.48-2.57-.16-.17-.22-.42-.24-.55Z"/>
        <circle class="cls-48" cx="472.21" cy="366.36" r="3.83"/>
        <circle class="cls-26" cx="469.57" cy="366.13" r="1.07"/>
        <path class="cls-42" d="M464.48,366.93c7.15-9.15,13.21-1.04,13.21-1.04,0,0,.96,1.1,2.57,.11,0,0-1.66,.5-2.59-1.08-.95-1.6-4-4.23-7.74-3.04-3.74,1.2-5.45,5.05-5.45,5.05Z"/>
      </g>
      <path class="cls-26" d="M495.23,610.08s20.82,62.61,6.87,72.77c-41.05,29.93-197.97,9.98-197.97,9.98l4.21-28.27c1.19-22.48,12.75-83.58,12.75-83.58l-24.52-5.86c2.03-47.97,24.78-105.99,24.78-105.99,7.72-19.92,51.68-31.09,51.68-31.09l53.61,23.27,17.2,22.51,6.67-30.32,14.06-6.61s39.43,17.3,43.62,38.72c4.18,21.43,25.18,90.02,25.18,90.02,0,0-25.93,33.71-38.15,34.45Z"/>
      <g>
        <path class="cls-10" d="M665.7,605.72l-4.92-8.02s-24.04-8.67-31.28,12.86c0,0-9.72-18.41-45.65-33.56l-11.96,5.99,59.86,41.03,8.79,.5,25.16-18.8Z"/>
        <path class="cls-30" d="M567.55,581.41s56.76,18.48,62.73,40.09l8.73-.7s-8.39-21.14,31.7-14.98l-84.01,76.72-27.9,16.69s-30.08-17.48-67.98-19.92c0,0,38.63-65.01,76.73-97.9Z"/>
        <line class="cls-14" x1="639.01" y1="620.79" x2="561.11" y2="697.7"/>
        <line class="cls-14" x1="630.28" y1="621.49" x2="552.92" y2="694.22"/>
      </g>
      <path class="cls-39" d="M370.41,574.51c1.1,11.41-4.79,41.23-4.79,41.23,32.4,1.84,100.88,31.29,100.88,31.29,0,0,27.88-16.67,41.45-12.98l9.97,1.13s1.07,3.8-4.75,5.91c0,0-13.93,5.67-9.41,7.82,10.55,5.02,17.85,4.17,17.85,4.17l14.86-4.78s5.74-1.15,3.94,5.48c0,0,5.4,3.84-2.55,8.12,0,0-.2,5.71-7.11,9.94,0,0-4.7,8.56-8.77,9.82-4.07,1.27-36.02-4.7-36.02-4.7l-23.15-6.73s-94.18,16.21-154.74-17.29c0,0-10.75-40.88-3.02-74.75"/>
      <path class="cls-5" d="M540.42,653.79s-13.38,8.48-27.21,6.04"/>
      <path class="cls-5" d="M537.88,661.72s-14.97,7.8-28.01,4.07"/>
      <polyline class="cls-5" points="530.76 671.85 515.96 675.13 507.2 672.19"/>
      <path class="cls-17" d="M497.13,499.38s.49,15.07,1.95,24.8,3.4,42.79-1.95,64.19c-5.35,21.4-1.9,21.71-1.9,21.71"/>
      <path class="cls-17" d="M356.11,472.64s22.86,4.38,22.86,29.66-8.55,72.21-8.55,72.21"/>
      <path class="cls-5" d="M365.83,611.23s-14.1-1.46-23.83,9.24"/>
      <path class="cls-5" d="M536.2,577.4s-15.84,6.52-16.4,20.49"/>
      <path class="cls-27" d="M448.2,461.89l-2.44,61.04s-7.8,7.49-11.89-1.11l2.11-49.17,8.3,4.41,3.92-15.18Z"/>
      <circle class="cls-26" cx="441.68" cy="491.99" r="1.54"/>
      <circle class="cls-26" cx="440.83" cy="507.29" r="1.54"/>
      <path class="cls-27" d="M464.59,446.89l-11.38-7.33s-1.77,9.61-6.32,12.14l-3.54,25.29-12.14-23.77s-27.7-3.35-41.7-23.22l-16.46,8.05s18.97,28.83,38.69,34.65l14.92-11.38,17.2,22.51,5.82-25.04,11.89,7.33s3.79-3.29,3.03-19.22Z"/>
    </g>
  </g>
</svg>