<?xml version="1.0" encoding="UTF-8"?>
<svg xmlns="http://www.w3.org/2000/svg" viewBox="0 0 1334.22 999.53">
  <defs>
    <style>
      .cls-1, .cls-2 {
        stroke-width: .8px;
      }

      .cls-1, .cls-2, .cls-3, .cls-4, .cls-5, .cls-6, .cls-7, .cls-8, .cls-9, .cls-10, .cls-11, .cls-12, .cls-13, .cls-14, .cls-15, .cls-16 {
        stroke-miterlimit: 10;
      }

      .cls-1, .cls-2, .cls-4, .cls-8, .cls-9, .cls-10, .cls-11, .cls-12, .cls-13, .cls-14, .cls-15, .cls-16 {
        fill: none;
      }

      .cls-1, .cls-11, .cls-15 {
        stroke: #754c29;
      }

      .cls-2, .cls-4, .cls-9, .cls-10, .cls-12 {
        stroke: #231f20;
      }

      .cls-17 {
        fill: #f7daa6;
      }

      .cls-18 {
        fill: #f7d9a4;
      }

      .cls-19 {
        fill: #f8a69b;
      }

      .cls-20 {
        fill: #f15a29;
      }

      .cls-21 {
        fill: #f7941d;
      }

      .cls-22 {
        fill: #fff;
      }

      .cls-23 {
        fill: #fbb040;
      }

      .cls-24 {
        fill: #fbc5b3;
      }

      .cls-25 {
        fill: #803435;
      }

      .cls-26 {
        fill: #87664d;
      }

      .cls-27 {
        fill: #b6302e;
      }

      .cls-28 {
        fill: #8b5e3c;
      }

      .cls-29 {
        fill: #ae8578;
      }

      .cls-30 {
        fill: #b1dcc4;
      }

      .cls-31, .cls-5 {
        fill: #a97c50;
      }

      .cls-32 {
        fill: #be1e2d;
      }

      .cls-33, .cls-6 {
        fill: #be9e7d;
      }

      .cls-34 {
        fill: #cd6848;
      }

      .cls-35, .cls-3 {
        fill: #d1d3d4;
      }

      .cls-36 {
        fill: #c49a6c;
      }

      .cls-37 {
        fill: #dc3b28;
      }

      .cls-38 {
        fill: #acbfe3;
      }

      .cls-39 {
        fill: #231f20;
      }

      .cls-40 {
        fill: #092f44;
      }

      .cls-41 {
        fill: #52ba61;
      }

      .cls-42 {
        fill: #808285;
      }

      .cls-43 {
        fill: #58595b;
      }

      .cls-44 {
        fill: #4c301a;
      }

      .cls-45 {
        fill: #26130f;
      }

      .cls-3 {
        stroke: #58595b;
      }

      .cls-3, .cls-9 {
        stroke-width: .2px;
      }

      .cls-4 {
        stroke-linecap: round;
      }

      .cls-4, .cls-5, .cls-6, .cls-12, .cls-13, .cls-14, .cls-15, .cls-16 {
        stroke-width: .5px;
      }

      .cls-5, .cls-16 {
        stroke: #a97c50;
      }

      .cls-6 {
        stroke: #603913;
      }

      .cls-7 {
        fill: #6dc8c3;
        stroke: #be1e2d;
      }

      .cls-8 {
        stroke: #009444;
        stroke-width: 2px;
      }

      .cls-11 {
        stroke-width: 8px;
      }

      .cls-13 {
        stroke: #fff;
      }

      .cls-14 {
        stroke: #3c2415;
      }
    </style>
  </defs>
  <g id="Layer_2" data-name="Layer 2">
    <rect class="cls-30" x=".36" width="1333.86" height="941.44"/>
  </g>
  <g id="Layer_1" data-name="Layer 1">
    <rect class="cls-31" x="1009.22" y="54.84" width="324.53" height="748.72"/>
    <rect class="cls-18" y="803.57" width="1333.75" height="195.96"/>
    <polyline class="cls-11" points="1333.86 50.3 1006.72 50.3 1006.72 803.48"/>
    <g>
      <ellipse class="cls-23" cx="1046.08" cy="440.35" rx="14.46" ry="16.58"/>
      <path class="cls-21" d="M1063.19,423.72l-9,.92s-9.51,1.34-9.72,14.12c-.24,14.91,5.81,17.73,8.13,17.79l10.59,.34"/>
      <path class="cls-21" d="M1050.97,430.23h-6.82s-10.09,10.29-.46,20.03l7.28,.17"/>
      <ellipse class="cls-23" cx="1063.19" cy="440.3" rx="14.46" ry="16.58"/>
    </g>
    <g>
      <polygon class="cls-31" points="473.37 651.97 243.99 652.08 293.04 583.44 444.05 583.44 473.37 651.97"/>
      <rect class="cls-26" x="243.99" y="652.08" width="229.37" height="16.94"/>
      <polygon class="cls-31" points="271.44 874.31 256.6 874.31 249.86 669.25 276.46 669.25 271.44 874.31"/>
      <polygon class="cls-31" points="320.57 826.54 305.73 826.54 298.99 669.25 325.59 669.25 320.57 826.54"/>
      <polygon class="cls-31" points="423.91 826.54 409.07 826.54 402.33 669.25 428.93 669.25 423.91 826.54"/>
      <polygon class="cls-31" points="463.02 874.31 448.02 874.31 442.77 669.48 468 669.48 463.02 874.31"/>
      <rect class="cls-31" x="293.04" y="381.98" width="151.01" height="201.45"/>
    </g>
    <g>
      <polygon class="cls-31" points="708.8 649.43 479.42 649.54 528.47 580.89 679.48 580.89 708.8 649.43"/>
      <rect class="cls-26" x="479.42" y="649.54" width="229.37" height="16.94"/>
      <polygon class="cls-31" points="506.87 871.77 492.03 871.77 485.29 666.71 511.89 666.71 506.87 871.77"/>
      <polygon class="cls-31" points="556 824 541.16 824 534.42 666.71 561.02 666.71 556 824"/>
      <polygon class="cls-31" points="659.34 824 644.5 824 637.77 666.71 664.36 666.71 659.34 824"/>
      <polygon class="cls-31" points="698.45 871.77 683.45 871.77 678.2 666.94 703.43 666.94 698.45 871.77"/>
      <rect class="cls-31" x="528.47" y="379.44" width="151.01" height="201.45"/>
    </g>
    <g>
      <rect class="cls-30" x="310.35" y="211.58" width="103.08" height="102.45"/>
      <path class="cls-42" d="M356.57,221.99s-6.54,29.74-37.12,35.86v-36.09l37.12,.23Z"/>
      <path class="cls-42" d="M365.9,221.99s6.54,29.74,37.12,35.86v-36.09s-37.12,.23-37.12,.23Z"/>
      <path class="cls-42" d="M356.57,303.59s-6.54-29.74-37.12-35.86v36.09l37.12-.23Z"/>
      <path class="cls-42" d="M365.9,303.59s6.54-29.74,37.12-35.86v36.09s-37.12-.23-37.12-.23Z"/>
      <path class="cls-42" d="M361.23,234.53s-6.2,17.84-28.01,27.51c0,0,26.02,11.15,28.01,28.75,0,0,8.43-21.07,28.5-28.01,0,0-19.83-10.16-28.5-28.25Z"/>
    </g>
    <g>
      <rect class="cls-30" x="212.47" y="211.58" width="103.08" height="102.45"/>
      <path class="cls-42" d="M258.69,221.99s-6.54,29.74-37.12,35.86v-36.09l37.12,.23Z"/>
      <path class="cls-42" d="M268.02,221.99s6.54,29.74,37.12,35.86v-36.09s-37.12,.23-37.12,.23Z"/>
      <path class="cls-42" d="M258.69,303.59s-6.54-29.74-37.12-35.86v36.09l37.12-.23Z"/>
      <path class="cls-42" d="M268.02,303.59s6.54-29.74,37.12-35.86v36.09s-37.12-.23-37.12-.23Z"/>
      <path class="cls-42" d="M263.36,234.53s-6.2,17.84-28.01,27.51c0,0,26.02,11.15,28.01,28.75,0,0,8.43-21.07,28.5-28.01,0,0-19.83-10.16-28.5-28.25Z"/>
    </g>
    <g>
      <rect class="cls-30" x="114.59" y="211.58" width="103.08" height="102.45"/>
      <path class="cls-42" d="M160.81,221.99s-6.54,29.74-37.12,35.86v-36.09l37.12,.23Z"/>
      <path class="cls-42" d="M170.15,221.99s6.54,29.74,37.12,35.86v-36.09s-37.12,.23-37.12,.23Z"/>
      <path class="cls-42" d="M160.81,303.59s-6.54-29.74-37.12-35.86v36.09l37.12-.23Z"/>
      <path class="cls-42" d="M170.15,303.59s6.54-29.74,37.12-35.86v36.09s-37.12-.23-37.12-.23Z"/>
      <path class="cls-42" d="M165.48,234.53s-6.2,17.84-28.01,27.51c0,0,26.02,11.15,28.01,28.75,0,0,8.43-21.07,28.5-28.01,0,0-19.83-10.16-28.5-28.25Z"/>
    </g>
    <g>
      <rect class="cls-30" x="18.91" y="211.58" width="103.08" height="102.45"/>
      <path class="cls-42" d="M65.14,221.99s-6.54,29.74-37.12,35.86v-36.09l37.12,.23Z"/>
      <path class="cls-42" d="M74.47,221.99s6.54,29.74,37.12,35.86v-36.09s-37.12,.23-37.12,.23Z"/>
      <path class="cls-42" d="M65.14,303.59s-6.54-29.74-37.12-35.86v36.09l37.12-.23Z"/>
      <path class="cls-42" d="M74.47,303.59s6.54-29.74,37.12-35.86v36.09s-37.12-.23-37.12-.23Z"/>
      <path class="cls-42" d="M69.8,234.53s-6.2,17.84-28.01,27.51c0,0,26.02,11.15,28.01,28.75,0,0,8.43-21.07,28.5-28.01,0,0-19.83-10.16-28.5-28.25Z"/>
    </g>
    <g>
      <rect class="cls-30" x="310.35" y="112.89" width="103.08" height="102.45"/>
      <path class="cls-42" d="M356.57,123.3s-6.54,29.74-37.12,35.86v-36.09l37.12,.23Z"/>
      <path class="cls-42" d="M365.9,123.3s6.54,29.74,37.12,35.86v-36.09s-37.12,.23-37.12,.23Z"/>
      <path class="cls-42" d="M356.57,204.89s-6.54-29.74-37.12-35.86v36.09l37.12-.23Z"/>
      <path class="cls-42" d="M365.9,204.89s6.54-29.74,37.12-35.86v36.09s-37.12-.23-37.12-.23Z"/>
      <path class="cls-42" d="M361.23,135.84s-6.2,17.84-28.01,27.51c0,0,26.02,11.15,28.01,28.75,0,0,8.43-21.07,28.5-28.01,0,0-19.83-10.16-28.5-28.25Z"/>
    </g>
    <g>
      <rect class="cls-30" x="212.47" y="112.89" width="103.08" height="102.45"/>
      <path class="cls-42" d="M258.69,123.3s-6.54,29.74-37.12,35.86v-36.09l37.12,.23Z"/>
      <path class="cls-42" d="M268.02,123.3s6.54,29.74,37.12,35.86v-36.09s-37.12,.23-37.12,.23Z"/>
      <path class="cls-42" d="M258.69,204.89s-6.54-29.74-37.12-35.86v36.09l37.12-.23Z"/>
      <path class="cls-42" d="M268.02,204.89s6.54-29.74,37.12-35.86v36.09s-37.12-.23-37.12-.23Z"/>
      <path class="cls-42" d="M263.36,135.84s-6.2,17.84-28.01,27.51c0,0,26.02,11.15,28.01,28.75,0,0,8.43-21.07,28.5-28.01,0,0-19.83-10.16-28.5-28.25Z"/>
    </g>
    <g>
      <rect class="cls-30" x="114.59" y="112.89" width="103.08" height="102.45"/>
      <path class="cls-42" d="M160.81,123.3s-6.54,29.74-37.12,35.86v-36.09l37.12,.23Z"/>
      <path class="cls-42" d="M170.15,123.3s6.54,29.74,37.12,35.86v-36.09s-37.12,.23-37.12,.23Z"/>
      <path class="cls-42" d="M160.81,204.89s-6.54-29.74-37.12-35.86v36.09l37.12-.23Z"/>
      <path class="cls-42" d="M170.15,204.89s6.54-29.74,37.12-35.86v36.09s-37.12-.23-37.12-.23Z"/>
      <path class="cls-42" d="M165.48,135.84s-6.2,17.84-28.01,27.51c0,0,26.02,11.15,28.01,28.75,0,0,8.43-21.07,28.5-28.01,0,0-19.83-10.16-28.5-28.25Z"/>
    </g>
    <g>
      <rect class="cls-30" x="18.91" y="112.89" width="103.08" height="102.45"/>
      <path class="cls-42" d="M65.14,123.3s-6.54,29.74-37.12,35.86v-36.09l37.12,.23Z"/>
      <path class="cls-42" d="M74.47,123.3s6.54,29.74,37.12,35.86v-36.09s-37.12,.23-37.12,.23Z"/>
      <path class="cls-42" d="M65.14,204.89s-6.54-29.74-37.12-35.86v36.09l37.12-.23Z"/>
      <path class="cls-42" d="M74.47,204.89s6.54-29.74,37.12-35.86v36.09s-37.12-.23-37.12-.23Z"/>
      <path class="cls-42" d="M69.8,135.84s-6.2,17.84-28.01,27.51c0,0,26.02,11.15,28.01,28.75,0,0,8.43-21.07,28.5-28.01,0,0-19.83-10.16-28.5-28.25Z"/>
    </g>
    <g>
      <rect class="cls-30" x="310.35" y="15.13" width="103.08" height="102.45"/>
      <path class="cls-42" d="M356.57,25.54s-6.54,29.74-37.12,35.86V25.31l37.12,.23Z"/>
      <path class="cls-42" d="M365.9,25.54s6.54,29.74,37.12,35.86V25.31s-37.12,.23-37.12,.23Z"/>
      <path class="cls-42" d="M356.57,107.13s-6.54-29.74-37.12-35.86v36.09l37.12-.23Z"/>
      <path class="cls-42" d="M365.9,107.13s6.54-29.74,37.12-35.86v36.09s-37.12-.23-37.12-.23Z"/>
      <path class="cls-42" d="M361.23,38.08s-6.2,17.84-28.01,27.51c0,0,26.02,11.15,28.01,28.75,0,0,8.43-21.07,28.5-28.01,0,0-19.83-10.16-28.5-28.25Z"/>
    </g>
    <g>
      <rect class="cls-30" x="212.47" y="15.13" width="103.08" height="102.45"/>
      <path class="cls-42" d="M258.69,25.54s-6.54,29.74-37.12,35.86V25.31l37.12,.23Z"/>
      <path class="cls-42" d="M268.02,25.54s6.54,29.74,37.12,35.86V25.31s-37.12,.23-37.12,.23Z"/>
      <path class="cls-42" d="M258.69,107.13s-6.54-29.74-37.12-35.86v36.09l37.12-.23Z"/>
      <path class="cls-42" d="M268.02,107.13s6.54-29.74,37.12-35.86v36.09s-37.12-.23-37.12-.23Z"/>
      <path class="cls-42" d="M263.36,38.08s-6.2,17.84-28.01,27.51c0,0,26.02,11.15,28.01,28.75,0,0,8.43-21.07,28.5-28.01,0,0-19.83-10.16-28.5-28.25Z"/>
    </g>
    <g>
      <rect class="cls-30" x="114.59" y="15.13" width="103.08" height="102.45"/>
      <path class="cls-42" d="M160.81,25.54s-6.54,29.74-37.12,35.86V25.31l37.12,.23Z"/>
      <path class="cls-42" d="M170.15,25.54s6.54,29.74,37.12,35.86V25.31s-37.12,.23-37.12,.23Z"/>
      <path class="cls-42" d="M160.81,107.13s-6.54-29.74-37.12-35.86v36.09l37.12-.23Z"/>
      <path class="cls-42" d="M170.15,107.13s6.54-29.74,37.12-35.86v36.09s-37.12-.23-37.12-.23Z"/>
      <path class="cls-42" d="M165.48,38.08s-6.2,17.84-28.01,27.51c0,0,26.02,11.15,28.01,28.75,0,0,8.43-21.07,28.5-28.01,0,0-19.83-10.16-28.5-28.25Z"/>
    </g>
    <g>
      <rect class="cls-30" x="18.91" y="15.13" width="103.08" height="102.45"/>
      <path class="cls-42" d="M65.14,25.54s-6.54,29.74-37.12,35.86V25.31l37.12,.23Z"/>
      <path class="cls-42" d="M74.47,25.54s6.54,29.74,37.12,35.86V25.31s-37.12,.23-37.12,.23Z"/>
      <path class="cls-42" d="M65.14,107.13s-6.54-29.74-37.12-35.86v36.09l37.12-.23Z"/>
      <path class="cls-42" d="M74.47,107.13s6.54-29.74,37.12-35.86v36.09s-37.12-.23-37.12-.23Z"/>
      <path class="cls-42" d="M69.8,38.08s-6.2,17.84-28.01,27.51c0,0,26.02,11.15,28.01,28.75,0,0,8.43-21.07,28.5-28.01,0,0-19.83-10.16-28.5-28.25Z"/>
    </g>
    <g>
      <path class="cls-28" d="M391.77,834.18s-10.12,18-3.82,26.1c6.3,8.1,32.84,8.55,32.84,8.55,0,0,38.07,26.37,67.73,2.36,0,0,1.95-6-9.15-10.8-13.81-5.97-18.74-6.87-18.74-6.87,0,0,4.7,19.58-43.66-.66l-25.2-18.67Z"/>
      <path class="cls-33" d="M391.77,834.18s4.27-9.22,3.82-23.17-13.5-66.59-4.95-91.78l57.59-4.05s-11.25,74.46-17.55,95.16c0,0-5.17,13.95,.98,24.5,0,0,17.28,9.22,28.96,18.68,0,0,4.25,20.26-43.66-.66l-25.2-18.67Z"/>
      <path class="cls-28" d="M338.12,840.89s-10.12,18-3.82,26.1c6.3,8.1,32.84,8.55,32.84,8.55,0,0,38.07,26.37,67.73,2.36,0,0,1.95-6-9.15-10.8-13.81-5.97-18.74-6.87-18.74-6.87,0,0,4.7,19.58-43.66-.66l-25.2-18.67Z"/>
      <path class="cls-33" d="M338.12,840.89s4.27-9.22,3.82-23.17c-.45-13.95-13.5-66.59-4.95-91.78l57.59-4.05s-11.25,74.46-17.55,95.16c0,0-5.17,13.95,.98,24.5,0,0,17.28,9.22,28.96,18.68,0,0,4.25,20.26-43.66-.66l-25.2-18.67Z"/>
      <path class="cls-33" d="M336.53,334.14s-1.08,33.96-11.22,37.96c0,0,10,51.02,53.87,61.54,0,0,28.22-22.32,16.16-53.62,0,0-6.2-5.01-6.84-11.68,0,0-38.46-12.02-51.97-34.2Z"/>
      <path class="cls-40" d="M292.7,529.26s35.37,80.35,27.23,165.89c-2.82,29.65-7.31,38.31-4.89,65.51,0,0,53.8,45.78,135.91,9.04,0,0,12.96-71.06,12.96-144.82,0,0-91.38-40.91-171.2-95.61Z"/>
      <path class="cls-33" d="M336.68,311.46s-2.94-24.92,10.62-38.73c8.28-8.43,26.41-8.63,44.31-8.41,0,0,37.87,3.83,24.87,50.69,0,0-2.41,4.6-1.48,8.61,0,0,2.1,7.7-3.63,22.66-7.63,19.94-17.92,19.88-17.92,19.88,0,0-1.49,5.72-13.18,4.81,0,0-10.46,1.12-20.32-6.32,0,0-26.12-15.59-23.42-30.52,0,0-11.45,5.52-15.01-12.76,0,0-3.5-31.54,15.16-9.92Z"/>
      <path class="cls-35" d="M384.03,300.98s-17.28-2.91-24.16,3.56c0,0,4.49-9.45,24.03-7.57,0,0,3.68,2.07,.13,4.01Z"/>
      <path class="cls-2" d="M396.65,325.6s6.51,12.03-6.87,12.09"/>
      <path class="cls-12" d="M323.42,314.47s5-10.18,11.48,7.6c0,0-6.17-8.17-8.01-1.86"/>
      <path class="cls-2" d="M358.77,307.92l4.15,13.63s7.52,4.9,18.3,3.12l6.71-12.22s-13.74-8.15-29.17-4.53Z"/>
      <path class="cls-17" d="M252.96,616.42s99.32,47.39,187.45,15.11c.65-.24-.48-5.17-.18-20.33,.88-43.76-16.03-76.73-14.5-90.18,0,0,11.95,2.84,15.76-.38,11.49-9.72,21.9-17.68,21.9-17.68-30.29,2.99-14.71-20.5-14.71-20.5l-4.61-39.91s-8.05-31.74-24.85-42.35c0,0-10.64-14.54-23.88-20.17,0,0,6.87,30.22-32.45,25.54,0,0-22.67-2.37-36.29-34.71,0,0-31.37,6.96-49.76,26.54,0,0-14.58,17.2-18.73,75.22,0,0,24.84,23.99,31.81,24.55,0,0-12.56,15.9-9.49,19.25,1.9,2.07-13.85,97.51-9.59,100.15"/>
      <path class="cls-45" d="M388.01,369.61s-6.07,1.64-8.13,1.23c0,0-16.33,1.23-31.27-14.57,0,0,4.14,5.8,13.44,11.76,0,0,8.73,7.18,27.01,4.03,0,0-1.16-1.6-1.04-2.45Z"/>
      <path class="cls-3" d="M359.55,273.22s25.53,12.65,41.25,1.22c0,0,5.06,9.35,18.18,21.35,0,0,1.83,7.12-4.93,22.99,0,0,4.01,13.22-4.68,29.63,0,0-7.13,14.61-15.92,17.76,0,0-2.43,1.88-5.44,3.44,0,0,1.54,5.75,5.73,5.62,0,0-2.45-4.1-.1-5.21,0,0,32.61-8.44,31.21-65.18,0,0,20.55-24.9-1.69-42.67-10.05-8.03-18.61-30.29-45.61-19.17,0,0-34.45-18.66-46.62,15.51,0,0-39.25,8.78-18.27,58.16,0,0-7.37,15.79,7.2,29,1.68,1.52,4.93,8.26,1.48,17.73-.93,2.55,6.44-2.17,8.96-7.07,0,0,4.57-8.82,6.24-22.19,0,0-12.44,3.3-14.04-10.5,0,0-3.68-15.24,1.75-17.51,0,0,6.08-2.29,11.99,5.29,0,0,23.73-2.06,23.32-38.19Z"/>
      <path class="cls-35" d="M418.34,307.73c.09-.96-7.46-5.15-15.21-7.37,0,0-4.24,.59-1.61,3.74,0,0,14.97,2.2,14.82,7.34,0,0,1.8-1.33,2.01-3.71Z"/>
      <path class="cls-2" d="M392.74,312.22l4.15,13.63s6.66,3.72,17.45,1.94l5.64-13.63s-11.81-5.56-27.24-1.94Z"/>
      <path class="cls-2" d="M392.74,312.22s-2.63-2.97-4.79,.23"/>
      <line class="cls-2" x1="358.77" y1="307.92" x2="328.75" y2="304.89"/>
      <path class="cls-9" d="M367.39,289.24s11.72,1.78,17.25,3.28c5.52,1.5,21.85-2.1,21.85-2.1"/>
      <g>
        <circle class="cls-16" cx="344.66" cy="695.02" r="4.08"/>
        <circle class="cls-16" cx="341.79" cy="709.93" r="4.08"/>
        <circle class="cls-16" cx="348.16" cy="703.29" r="4.08"/>
        <circle class="cls-16" cx="333.67" cy="705.45" r="4.08"/>
        <circle class="cls-16" cx="336.22" cy="697.18" r="4.08"/>
      </g>
      <g>
        <circle class="cls-16" cx="441.81" cy="738.74" r="4.08"/>
        <circle class="cls-16" cx="438.93" cy="753.65" r="4.08"/>
        <circle class="cls-16" cx="445.3" cy="747.01" r="4.08"/>
        <circle class="cls-16" cx="430.82" cy="749.17" r="4.08"/>
        <circle class="cls-16" cx="433.37" cy="740.91" r="4.08"/>
      </g>
      <g>
        <circle class="cls-16" cx="388.92" cy="747.86" r="4.08"/>
        <circle class="cls-16" cx="386.04" cy="762.77" r="4.08"/>
        <circle class="cls-16" cx="392.41" cy="756.13" r="4.08"/>
        <circle class="cls-16" cx="377.93" cy="758.29" r="4.08"/>
        <circle class="cls-16" cx="380.47" cy="750.03" r="4.08"/>
      </g>
      <g>
        <circle class="cls-16" cx="355.73" cy="728.17" r="4.08"/>
        <circle class="cls-16" cx="352.85" cy="743.07" r="4.08"/>
        <circle class="cls-16" cx="359.22" cy="736.43" r="4.08"/>
        <circle class="cls-16" cx="344.73" cy="738.59" r="4.08"/>
        <circle class="cls-16" cx="347.28" cy="730.33" r="4.08"/>
      </g>
      <g>
        <circle class="cls-16" cx="393.37" cy="703.64" r="4.08"/>
        <circle class="cls-16" cx="390.49" cy="718.55" r="4.08"/>
        <circle class="cls-16" cx="396.86" cy="711.91" r="4.08"/>
        <circle class="cls-16" cx="382.38" cy="714.07" r="4.08"/>
        <circle class="cls-16" cx="384.92" cy="705.81" r="4.08"/>
      </g>
      <g>
        <circle class="cls-16" cx="436.4" cy="708.26" r="4.08"/>
        <circle class="cls-16" cx="433.53" cy="723.16" r="4.08"/>
        <circle class="cls-16" cx="439.9" cy="716.52" r="4.08"/>
        <circle class="cls-16" cx="425.41" cy="718.68" r="4.08"/>
        <circle class="cls-16" cx="427.96" cy="710.42" r="4.08"/>
      </g>
      <g>
        <circle class="cls-16" cx="438.25" cy="605.78" r="4.08"/>
        <circle class="cls-16" cx="435.38" cy="620.69" r="4.08"/>
        <circle class="cls-16" cx="441.75" cy="614.05" r="4.08"/>
        <circle class="cls-16" cx="427.26" cy="616.21" r="4.08"/>
        <circle class="cls-16" cx="429.81" cy="607.95" r="4.08"/>
      </g>
      <g>
        <circle class="cls-16" cx="379.89" cy="606.51" r="4.08"/>
        <circle class="cls-16" cx="377.02" cy="621.42" r="4.08"/>
        <circle class="cls-16" cx="383.39" cy="614.78" r="4.08"/>
        <circle class="cls-16" cx="368.9" cy="616.94" r="4.08"/>
        <circle class="cls-16" cx="371.45" cy="608.68" r="4.08"/>
      </g>
      <path class="cls-14" d="M398.5,607.54s6.18,4.69,6.4,14.61"/>
      <path class="cls-14" d="M398.59,611.78s6.18,4.69,6.4,14.61"/>
      <path class="cls-14" d="M401.46,608.34s6.18,4.69,6.4,14.61"/>
      <path class="cls-14" d="M404.17,605.3s6.18,4.69,6.4,14.61"/>
      <path class="cls-14" d="M406.96,602.35s6.18,4.69,6.4,14.61"/>
      <path class="cls-14" d="M410.49,599.55s6.18,4.69,6.4,14.61"/>
      <path class="cls-14" d="M414.76,596.6s6.18,4.69,6.4,14.61"/>
      <path class="cls-14" d="M419.28,593.81s6.18,4.69,6.4,14.61"/>
      <path class="cls-14" d="M424.77,591.43s6.18,4.69,6.4,14.61"/>
      <path class="cls-14" d="M430.93,589.13s6.18,4.69,6.4,14.61"/>
      <path class="cls-14" d="M436.76,587.41s6.18,4.69,6.4,14.61"/>
      <g>
        <path class="cls-22" d="M365.61,312.14s.02-.32,.27-.58c.85-.85,2.77-2.42,5.66-2.26,3.23,.18,4.84,3.31,5.39,4.43,.09,.19,.08,.36,.08,.36,0,0,0,.18-.11,.3-.55,.57-2.36,2.15-5.42,2.02-1.82-.07-4.32-1.19-5.77-3.75-.1-.18-.1-.4-.09-.52Z"/>
        <circle class="cls-45" cx="372.24" cy="313.08" r="3.35"/>
        <circle class="cls-22" cx="370.17" cy="312.29" r=".92"/>
        <path class="cls-12" d="M377.13,313.75s-3.5-7.93-11.37-2.22"/>
      </g>
      <g>
        <path class="cls-22" d="M401.8,317.14s-.03-.3,.17-.58c.66-.91,2.23-2.65,4.94-2.91,3.03-.3,4.98,2.39,5.64,3.35,.12,.17,.12,.32,.12,.32,0,0,.03,.17-.06,.3-.43,.61-1.89,2.33-4.75,2.66-1.7,.19-4.19-.49-5.9-2.66-.12-.15-.15-.36-.15-.47Z"/>
        <circle class="cls-45" cx="408.1" cy="317.06" r="3.14"/>
        <circle class="cls-22" cx="405.97" cy="316.68" r=".88"/>
        <path class="cls-12" d="M412.61,317.1s-4.2-7.33-10.73-.4"/>
      </g>
      <path class="cls-33" d="M448.68,482.45c30.64-17.05,84.96-23.78,84.96-23.78,0,0,9.08-2.33,12.82-5.57s20.68-11.46,20.68-11.46c0,0,5.23,2.99,.75,5.98l-10.46,6.98,30.62-5.02-21.35,38.42s-25.97,3.22-29.46-2.26c0,0-66.94,52.96-101.14,42.96,0,0-8.45-1.15-12.3-6.53"/>
      <path class="cls-13" d="M406.98,860.22s20.04,5.17,27.19,15.5"/>
      <circle class="cls-5" cx="370.14" cy="429.95" r="4.81"/>
      <circle class="cls-5" cx="371.44" cy="465.94" r="4.81"/>
      <circle class="cls-5" cx="371.11" cy="503.74" r="4.81"/>
      <path class="cls-14" d="M293.41,499.49s15.87-37.75,14.23-68.94"/>
      <path class="cls-29" d="M370.5,343.8s11.36-2.62,15.92,1.61c0,0,3.34-2.82,12.07,1.42,0,0-.32,13.2-13.82,11.83-15.42-1.56-14.17-14.87-14.17-14.87Z"/>
      <path class="cls-25" d="M372.48,345.42s.64,8.72,11.31,9.9c10.67,1.18,12.65-7.37,12.65-7.37,0,0-17.26-3.48-23.97-2.53Z"/>
      <path class="cls-22" d="M375.14,345.26s2.24,2.85,10.43,3.85c7.54,.92,9.98-1.37,9.98-1.37,0,0-10.98-2.54-20.41-2.48Z"/>
    </g>
    <g>
      <polygon class="cls-33" points="513.52 490.44 511.95 548.8 504.12 576.22 549.95 578.17 540.55 499.45 513.52 490.44"/>
      <path class="cls-33" d="M598.61,413.82s-2.93,10.43,1.32,24.13c0,0-2.49,21.99-28.3,26.42,0,0-28.25-4.47-12.2-24.58,0,0,2.54-1.1,1.97-5.41,0,0,30.28-1.97,37.2-20.57Z"/>
      <path class="cls-33" d="M546.42,362.17s-7.02,5.4-7.38,22.31c-.04,1.85,1.27,5.43,.68,6.88-4.62,11.33-2.28,21.82,1.2,27.61,.86,1.44,1.29,3.19,2.02,4.52,5.35,9.7,20.94,11.37,20.94,11.37,0,0,30.23-4.86,34.73-21.05,0,0,6.84,8.46,13.5-2.7,0,0,7.56-12.24,1.44-15.66,0,0-6.66-2.7-10.8,4.32,0,0,4.86-28.97-4.86-33.83,0,0-23.57-24.47-51.47-3.78Z"/>
      <path class="cls-12" d="M554.11,399.6s-5.37,7.99,3.99,8.93"/>
      <path class="cls-12" d="M612.83,401.5s-2.79-7.4-8.47,4.5c0,0,4.83-5.25,5.68-.75"/>
      <path class="cls-45" d="M561.4,434.39s5.67,.42,11.71-1.81c0,0,5.37-1.09,12.2-4.93,0,0-4.71,5.05-14.07,7.77,0,0-4.79,1.67-9.85,.58,0,0,.3,.1,0-1.61Z"/>
      <path class="cls-37" d="M559.43,439.79s-9.66,13.35,6.44,17.03c0,0,24.39,5.52,34.06-18.87,0,0,19.64,7.36,31.42,29.67,12.63,23.93,11.41,48.57,11.41,48.57,0,0-4.17,9.66-22.58,5.06,0,0,25.77,26.44,17.63,65.45,0,0-79.33,22.14-112.93-3.64,0,0-3.15-33.51,5.09-61.81,0,0-15.14-8.04-19.74-18.63,0,0,2.5-20.32,10.84-33.35,7.57-11.85,9.65-20.01,38.42-29.52"/>
      <path class="cls-45" d="M569.6,383.56s11.75,.57,16.01,4.84c0,0-2.48-5.55-15.7-6.95,0,0-2.58,.65-.31,2.11Z"/>
      <path class="cls-45" d="M539.38,385.62c.11-.53,5.81-2.49,11.31-3.38,0,0,2.69,.49,.4,2.09,0,0-10.24,.59-11.04,3.38,0,0-.95-.8-.67-2.1Z"/>
      <path class="cls-27" d="M599.98,437.91s-6.71,21.49-34.06,18.87c0,0-15.93-4.04-6.44-17.03,0,0-3.37,.75-4.46,1.48,0,0-9.39,16.05,10.35,19.52,0,0,22,2.23,32.41-10.93,0,0,4.57-6.03,6.03-10.6l-3.83-1.31Z"/>
      <line class="cls-7" x1="529.98" y1="521.25" x2="533" y2="486.66"/>
      <path class="cls-39" d="M540.32,359.56c-1.95,15.4-.72,22.89-.72,22.89,1.54-15.4,5.85-16.94,5.85-16.94,17.44-11.47,47.27,.85,47.27,.85,9.72,12.11,9.86,33.91,9.86,33.91,5.29-7.53,10.6-5.24,10.6-5.24,8.37-30.85-9.88-38.83-9.88-38.83,0,0-13.81-15.29-36.68-12.76-22.87,2.53-26.29,16.12-26.29,16.12Z"/>
      <g>
        <path class="cls-33" d="M524.37,747.22s5.8,10.98,3.36,16.17c0,0-11.36,7.2-18.99-.74,0,0,10.33-4.77,15.63-15.43Z"/>
        <path class="cls-33" d="M521.63,740.51s-5.8,16.3-16.29,18.97c0,0-3.86-8.63-9.03-13.78,0,0-7.72-54.91-6.74-75.51,0,0,10.56,5.33,35.46-.4,0,0,.56,27.4-2.49,42.04-3.05,14.65-.92,28.68-.92,28.68Z"/>
        <path class="cls-37" d="M527.73,763.39s3.97,7.93,2.44,10.98c0,0-7.93,3.05-18.61,.31,0,0-5.8-1.53-11.9,3.36-6.1,4.88-29.9,7.32-37.53,.31s5.49-14.34,5.49-14.34c0,0,18.31-5.19,21.36-13.42,3.05-8.24,7.32-4.88,7.32-4.88,0,0,8.54,6.41,9.76,12.51,0,0,9.76-2.75,15.56-17.7l2.75,6.71s-5.8,12.2-14.65,14.95c0,0,3.36,7.32,18,1.22Z"/>
        <circle class="cls-39" cx="507.1" cy="761.33" r="3.97"/>
        <circle class="cls-39" cx="496.89" cy="772.6" r="2.63"/>
        <circle class="cls-39" cx="488.25" cy="776.01" r="2.63"/>
        <circle class="cls-39" cx="478.4" cy="777.39" r="2.63"/>
        <circle class="cls-39" cx="470.05" cy="776.37" r="2.63"/>
        <circle class="cls-39" cx="462.91" cy="773.69" r="2.63"/>
        <path class="cls-4" d="M495.69,766.75s-19.53,8.54-29.6,.61"/>
      </g>
      <g>
        <path class="cls-33" d="M559.82,752.91s6.14,11.63,3.55,17.13c0,0-12.03,7.62-20.11-.78,0,0,10.94-5.05,16.56-16.35Z"/>
        <path class="cls-33" d="M556.91,745.8s-6.14,17.26-17.25,20.09c0,0-4.09-9.14-9.57-14.59,0,0-8.18-58.15-7.13-79.97,0,0,11.19,5.64,37.56-.43,0,0,.6,29.02-2.63,44.53-3.23,15.51-.97,30.38-.97,30.38Z"/>
        <path class="cls-37" d="M563.38,770.03s4.2,8.4,2.59,11.63c0,0-8.4,3.23-19.71,.32,0,0-6.14-1.62-12.6,3.55-6.46,5.17-31.67,7.76-39.75,.32-8.08-7.43,5.82-15.19,5.82-15.19,0,0,19.39-5.49,22.62-14.22s7.76-5.17,7.76-5.17c0,0,9.05,6.79,10.34,13.25,0,0,10.34-2.91,16.48-18.74l2.91,7.11s-6.14,12.93-15.51,15.83c0,0,3.55,7.76,19.07,1.29Z"/>
        <circle class="cls-39" cx="541.53" cy="767.86" r="4.2"/>
        <circle class="cls-39" cx="530.71" cy="779.79" r="2.78"/>
        <circle class="cls-39" cx="521.56" cy="783.4" r="2.78"/>
        <circle class="cls-39" cx="511.13" cy="784.86" r="2.78"/>
        <circle class="cls-39" cx="502.28" cy="783.78" r="2.78"/>
        <circle class="cls-39" cx="494.72" cy="780.94" r="2.78"/>
        <path class="cls-4" d="M529.45,773.59s-20.68,9.05-31.35,.65"/>
      </g>
      <g>
        <path class="cls-22" d="M579.4,392.25s.01-.28-.18-.51c-.65-.78-2.15-2.26-4.6-2.35-2.74-.1-4.35,2.42-4.9,3.32-.09,.16-.09,.3-.09,.3,0,0-.02,.15,.07,.26,.42,.52,1.83,2,4.42,2.13,1.55,.08,3.75-.67,5.17-2.72,.1-.14,.11-.33,.11-.43Z"/>
        <circle class="cls-45" cx="573.73" cy="392.52" r="2.84"/>
        <circle class="cls-22" cx="575.54" cy="392.01" r=".78"/>
        <path class="cls-12" d="M569.55,392.7s3.58-6.43,9.78-.98"/>
      </g>
      <g>
        <path class="cls-22" d="M550.14,392.36s.05-.25-.1-.5c-.48-.81-1.66-2.38-3.89-2.81-2.5-.48-4.33,1.6-4.96,2.35-.11,.13-.13,.26-.13,.26,0,0-.04,.14,.03,.25,.31,.54,1.39,2.09,3.76,2.58,1.41,.29,3.53-.09,5.13-1.76,.11-.12,.15-.29,.16-.38Z"/>
        <circle class="cls-45" cx="544.9" cy="391.8" r="2.62"/>
        <circle class="cls-22" cx="546.71" cy="391.65" r=".74"/>
        <path class="cls-12" d="M541.14,391.48s4.07-5.78,8.97,.49"/>
      </g>
      <path class="cls-29" d="M569.67,415.72s-4.53-1.85-10.22-.76c0,0-4.71-1.38-9.11-.8,0,0-.2,7.78,6.91,10.13s12.16-4.04,12.42-8.57Z"/>
      <path class="cls-25" d="M568.46,416.16s-.53,6.85-9.44,6.07c-8.09-.71-7.61-6.81-7.61-6.81,0,0,9.07,1.21,17.05,.74Z"/>
      <path class="cls-22" d="M567.35,416.17s-2.49,2.98-9.35,2.04c0,0-4.27-.16-5.85-2.58,0,0,8.86,.97,15.19,.54Z"/>
    </g>
    <g>
      <polygon class="cls-31" points="60.09 600.93 64.3 939.16 81.14 939.16 110.61 662.68 848.81 662.68 878.28 937.75 896.53 937.75 896.53 600.93 60.09 600.93"/>
      <path class="cls-19" d="M918.56,574.28l32.21,130.54s-29,14.5-63.64-4.03c0,0-10.47,16.11-35.44,2.42,0,0-8.86,7.25-47.53-.81,0,0-27.39-3.22-40.28,1.61,0,0-12.08,9.67-31.42-.81,0,0-16.92,8.06-32.22,0,0,0-20.14,4.03-44.31-3.22-24.17-7.25-62.03,12.89-62.03,12.89,0,0-6.44-12.08-28.19-8.86,0,0-19.33,11.28-34.64,1.61,0,0-21.75-7.25-70.89-.81,0,0-11.28,8.86-21.75,0,0,0-132.48,3.82-156.65-6.65,0,0-23.22-7.12-34.83,7.97,0,0-16.25-24.37-42.94-12.77,0,0-17.41,19.73-46.43,3.48,0,0-58.03-25.53-80.08-12.77,0,0-23.21,13.93-55.71-1.16l19.73-109.1,877.03,.47Z"/>
      <line class="cls-1" x1="887.13" y1="700.79" x2="881.02" y2="605.1"/>
      <line class="cls-1" x1="851.68" y1="703.21" x2="859.36" y2="630.22"/>
      <line class="cls-1" x1="700.24" y1="703.21" x2="708.66" y2="601.01"/>
      <path class="cls-1" d="M565.71,704.01s-15.07-63.16-19.05-104.33"/>
      <path class="cls-1" d="M593.91,712.87s14.5-42.81,11.18-101.24"/>
      <path class="cls-1" d="M204.65,693.78s-15.07-63.16-19.05-104.33"/>
      <path class="cls-1" d="M246.8,707.29s14.5-42.81,11.18-101.24"/>
      <line class="cls-1" x1="460.19" y1="704.82" x2="454.38" y2="626.91"/>
      <line class="cls-1" x1="438.68" y1="704.02" x2="439.5" y2="608.16"/>
      <line class="cls-1" x1="732.46" y1="703.21" x2="729.31" y2="644.49"/>
      <line class="cls-1" x1="763.88" y1="704.01" x2="760.13" y2="625.6"/>
      <line class="cls-1" x1="77.51" y1="684.08" x2="84.48" y2="602.18"/>
      <polygon class="cls-24" points="41.53 573.82 918.56 574.28 843.83 548.2 109.61 548.2 41.53 573.82"/>
    </g>
    <g>
      <polyline class="cls-22" points="786.89 734.05 782.39 731.68 744.09 771.67 745.12 786.47 749.88 785.94"/>
      <path class="cls-32" d="M787.9,748.67l-1.01-14.62-37.98,39.53,.08,24.48s31.34-17.11,38.91-49.39Z"/>
      <polyline class="cls-22" points="800.62 731.77 795.94 730.22 766.38 776.71 769.87 791.22 774.3 789.85"/>
      <path class="cls-41" d="M804.07,746.09l-3.44-14.33-29.35,45.98,3.03,12.1s28.07-10.37,29.76-43.76Z"/>
      <polyline class="cls-22" points="807.44 744.15 804.28 743.1 784.31 774.5 786.67 784.3 789.67 783.37"/>
      <path class="cls-38" d="M809.77,753.82l-2.33-9.68-19.82,31.05,2.04,8.17s18.95-7,20.1-29.55Z"/>
      <path class="cls-20" d="M809.77,753.82s42.11,64.34,36.04,92.97-62.32,35.37-95.67,27.96c0,0-9.66-5.24-12.01-25.79-1.86-16.26,2.93-44.78,6.28-69.21,0,0,61.65,16.51,65.35-25.94Z"/>
      <path class="cls-21" d="M807.07,840.73s11.45-32,29.31-37.73c17.85-5.73,18.19,29.98,18.19,29.98,0,0-5.73,30.99-32,36.04-26.28,5.05-15.5-28.3-15.5-28.3Z"/>
      <path class="cls-10" d="M842.78,806.04s-19.54,6.06-31.33,37.73"/>
      <path class="cls-10" d="M783.81,844.1c-4.91-8.96-6.65-53.74-6.65-53.74,0,0,33.31,1.35,35.57-26.17"/>
      <path class="cls-44" d="M744.41,779.76s-13.08,.25-17.29,23.56c0,0-5.83,21.37-8.74,25.9-2.91,4.53-6.42,50.6,31.76,45.54l-7.8-8.63s-20.72-2.27-20.4-31.41c0,0,3.24-15.54,8.42-30.76,5.18-15.22,13.27-18.45,13.27-18.45l.78-5.75Z"/>
      <path class="cls-44" d="M744.41,779.76s-9.55,3.52-10.96-.23,5.05-19.95,17.98-15.61l-5.9,6.42s-1.75-2.55-3.86-.2,2.48,3.67,2.48,3.67l.27,5.95Z"/>
      <path class="cls-10" d="M771.61,790.82s-18.87-.49-24.02-4.17"/>
    </g>
    <polygon class="cls-22" points="735.11 570.79 650.06 570.79 640.38 554.62 726.61 554.62 735.11 570.79"/>
    <polygon class="cls-22" points="823.67 567.29 738.61 567.29 728.94 551.12 815.16 551.12 823.67 567.29"/>
    <g>
      <rect class="cls-43" x="241.76" y="551.39" width="63.08" height="16.82" rx="5.46" ry="5.46" transform="translate(66.4 -27.79) rotate(6.62)"/>
      <rect class="cls-42" x="244.11" y="552.43" width="58.86" height="14.44" rx="5.46" ry="5.46" transform="translate(66.38 -27.82) rotate(6.62)"/>
    </g>
    <g>
      <path class="cls-33" d="M299.95,537.2c19.5,12.34,112.22,15.23,112.22,15.23,0,0,18.5-1.19,28.23,2.4,0,0,33.29,15.88,48.65-7.43,0,0,2.44,3.85,4.23-2.8,0,0,2.68-.26,1.65,2.81s5.12-1.8,5.12-1.8l1.02-3.58-8.45-15.11-17.92-5.12s-6.73-2.58-12.37,1.26l-30.36,4.67"/>
      <path class="cls-15" d="M491.34,532.03c-3.23-2.12-10.92-6.57-14.93-6.02"/>
      <path class="cls-15" d="M487.21,533.51s12.7,3.77,13.83,7.67"/>
      <path class="cls-6" d="M523.45,536.45s-15.32,2.09-17.77,1.09c0,0-1.93-5.41-11.02-5.03-9.09,.39-17.21-2.9-17.21-2.9,0,0-7.16-3.29-5.22,2.51s6.57,6.77,6.57,6.77c0,0-16.63,6.77-20.3,11.6s3.67,4.06,3.67,4.06l3.87-1.35s.21,4.35,5.32,2.49c0,0,1.08,2.55,3.73,3.33,1.2,.35,1.64,2.2,2.94,2.3,2.51,.19,16.63-.39,16.63-.39l21.41-7.17"/>
      <line class="cls-15" x1="466.04" y1="553.2" x2="482.19" y2="545.79"/>
      <path class="cls-15" d="M471.38,555.67s4.93-1.07,11.9-4.93"/>
      <path class="cls-15" d="M478.8,538.89s5.41-2.72,9.58-3.96"/>
      <path class="cls-15" d="M475.32,559.23s5.17-1.99,10.12-4"/>
      <path class="cls-15" d="M496.09,532.62l-3.44-5.71-19.72-6.09s-2.89-1.11-10.57,2.23-21.27,3.11-21.27,3.11l-16.48-4.01"/>
    </g>
    <path class="cls-33" d="M262.77,477.16s-3.45,25.83,12.47,52.69c0,0,16.91,14.44,38.27,17.92s119.39,4.63,119.39,4.63l-1.58-29.44-105.79-22.36h0"/>
    <path class="cls-33" d="M639.35,516.49s-8.02-2.56-32.35-7.59l-21.25,22.15-62.3,5.39-7.38,17.31,74.76,8.54c3.77,.46,12.97-.35,16.31-2.17,8.91-4.89,20.93-17.39,32.21-43.63Z"/>
    <g>
      <path class="cls-22" d="M178.48,329.08s-7.84,15.04-21.56,8.73c-13.73-6.31-5.54-8.71-5.54-8.71,0,0,18.03,3.1,23.57-1.74"/>
      <path class="cls-22" d="M179.03,329.08s7.84,15.04,21.56,8.73c13.73-6.31,5.54-8.71,5.54-8.71,0,0-18.03,3.1-23.57-1.74"/>
      <path class="cls-22" d="M171.48,327.04s-16.6,3.48-20.43-11.13c-3.83-14.61,3.22-9.81,3.22-9.81,0,0,9.04,15.91,16.3,17.12"/>
      <path class="cls-22" d="M172.6,322.51l-10.26-9.27s-4.42-2.6-.46-7.29c3.96-4.69,8.84-.17,8.84-.17,0,0,7.79,12.27,8.32,16.5"/>
      <path class="cls-22" d="M183.5,323.49l3.24-12.72s-.49-9.77-6.12-9.26c-5.62,.5-3.08,10.8-3.08,10.8l3.42,11.03"/>
      <path class="cls-22" d="M187.32,327.34s14.59-.31,14.82-12.18c.22-11.88-17.02,9.43-17.02,9.43"/>
      <ellipse class="cls-36" cx="178.76" cy="325.49" rx="3.23" ry="9.68" transform="translate(-161.41 474.42) rotate(-84.87)"/>
      <path class="cls-22" d="M131.1,341.63s-16.6,3.48-20.43-11.13c-3.83-14.61,3.22-9.81,3.22-9.81,0,0,9.04,15.91,16.3,17.12"/>
      <path class="cls-22" d="M137.73,342.79s-7.84,15.04-21.56,8.73c-13.73-6.31-5.54-8.71-5.54-8.71,0,0,18.03,3.1,23.57-1.74"/>
      <path class="cls-22" d="M138.28,342.79s7.84,15.04,21.56,8.73,5.54-8.71,5.54-8.71c0,0-18.03,3.1-23.57-1.74"/>
      <path class="cls-22" d="M187.62,375.79s-7.84,15.04-21.56,8.73c-13.73-6.31-5.54-8.71-5.54-8.71,0,0,18.03,3.1,23.57-1.74"/>
      <path class="cls-22" d="M188.18,375.79s7.84,15.04,21.56,8.73c13.73-6.31,5.54-8.71,5.54-8.71,0,0-18.03,3.1-23.57-1.74"/>
      <path class="cls-22" d="M132.22,337.1l-10.26-9.27s-4.42-2.6-.46-7.29c3.96-4.69,8.84-.17,8.84-.17,0,0,7.79,12.27,8.32,16.5"/>
      <path class="cls-22" d="M181.69,369.5l-10.26-9.27s-4.42-2.6-.46-7.29c3.96-4.69,8.84-.17,8.84-.17,0,0,7.79,12.27,8.32,16.5"/>
      <path class="cls-22" d="M143.12,338.08l3.24-12.72s-.49-9.77-6.12-9.26c-5.62,.5-3.08,10.8-3.08,10.8l3.42,11.03"/>
      <path class="cls-22" d="M146.94,341.93s14.59-.31,14.82-12.18c.22-11.88-17.02,9.43-17.02,9.43"/>
      <ellipse class="cls-36" cx="138.38" cy="340.08" rx="3.23" ry="9.68" transform="translate(-212.71 447.48) rotate(-84.87)"/>
      <path class="cls-22" d="M181.05,373.81s-16.67,3.09-20.16-11.61c-3.48-14.7,3.45-9.73,3.45-9.73,0,0,8.66,16.12,15.89,17.5"/>
      <path class="cls-22" d="M193.15,370.54l3.54-12.64s-.26-9.78-5.89-9.41-3.34,10.73-3.34,10.73l3.15,11.11"/>
      <path class="cls-22" d="M196.87,374.48s14.6,.04,15.1-11.83c.5-11.87-17.24,9.02-17.24,9.02"/>
      <ellipse class="cls-36" cx="188.36" cy="372.43" rx="3.23" ry="9.68" transform="translate(-202.96 517.51) rotate(-83.51)"/>
      <path class="cls-8" d="M187.99,375.63s-8.45,84.24-37.54,65.08"/>
      <path class="cls-8" d="M178.47,328.7s-6.46,119.88-22.55,112.35"/>
      <path class="cls-8" d="M138.09,343.29s-5.8,74.76,37.33,94.27c0,0,3.7,1.67,7.2-2.1"/>
      <path class="cls-22" d="M211.85,345.25s16.6,3.48,20.43-11.13c3.83-14.61-3.22-9.81-3.22-9.81,0,0-9.04,15.91-16.3,17.12"/>
      <path class="cls-22" d="M205.22,346.41s7.84,15.04,21.56,8.73c13.73-6.31,5.54-8.71,5.54-8.71,0,0-18.03,3.1-23.57-1.74"/>
      <path class="cls-22" d="M204.66,346.41s-7.84,15.04-21.56,8.73c-13.73-6.31-5.54-8.71-5.54-8.71,0,0,18.03,3.1,23.57-1.74"/>
      <path class="cls-22" d="M210.73,340.72l10.26-9.27s4.42-2.6,.46-7.29c-3.96-4.69-8.84-.17-8.84-.17,0,0-7.79,12.27-8.32,16.5"/>
      <path class="cls-22" d="M199.83,341.69l-3.24-12.72s.49-9.77,6.12-9.26c5.62,.5,3.08,10.8,3.08,10.8l-3.42,11.03"/>
      <path class="cls-22" d="M196.01,345.54s-14.59-.31-14.82-12.18c-.22-11.88,17.02,9.43,17.02,9.43"/>
      <ellipse class="cls-36" cx="204.57" cy="343.69" rx="9.68" ry="3.23" transform="translate(-29.92 19.67) rotate(-5.13)"/>
      <path class="cls-8" d="M204.86,346.91s5.8,74.76-37.33,94.27c0,0-3.7,1.67-7.2-2.1"/>
      <path class="cls-34" d="M148.94,422.17h41.64v73.09s16.15,5.47,14.91,29.32-15.65,25.84-15.65,25.84v12.42h-40.25v-10.68s-18.39-9.19-15.16-31.31c3.23-22.11,15.65-27.33,15.65-27.33l-1.14-71.35Z"/>
    </g>
  </g>
</svg>