<svg xmlns="http://www.w3.org/2000/svg" xmlns:xlink="http://www.w3.org/1999/xlink" width="1200" zoomAndPan="magnify" viewBox="0 0 900 675.000002" height="900" preserveAspectRatio="xMidYMid meet" version="1.0"><defs><clipPath id="42b1467645"><path d="M 0.664062 0 L 899.332031 0 L 899.332031 674 L 0.664062 674 Z M 0.664062 0 " clip-rule="nonzero"/></clipPath><clipPath id="4ec5588e20"><path d="M 1 296 L 899.332031 296 L 899.332031 398 L 1 398 Z M 1 296 " clip-rule="nonzero"/></clipPath><clipPath id="dd2b1b9968"><path d="M 1 194 L 899.332031 194 L 899.332031 297 L 1 297 Z M 1 194 " clip-rule="nonzero"/></clipPath><clipPath id="0a09c0eef4"><path d="M 1 92 L 899.332031 92 L 899.332031 195 L 1 195 Z M 1 92 " clip-rule="nonzero"/></clipPath><clipPath id="dd5f461dc9"><path d="M 1 1 L 899.332031 1 L 899.332031 93 L 1 93 Z M 1 1 " clip-rule="nonzero"/></clipPath><clipPath id="f476cd30a1"><path d="M 1 398 L 899.332031 398 L 899.332031 500 L 1 500 Z M 1 398 " clip-rule="nonzero"/></clipPath><clipPath id="38c8e872a7"><path d="M 0.664062 499 L 899.332031 499 L 899.332031 674 L 0.664062 674 Z M 0.664062 499 " clip-rule="nonzero"/></clipPath><clipPath id="897547b0cb"><path d="M 0.664062 0 L 26 0 L 26 152 L 0.664062 152 Z M 0.664062 0 " clip-rule="nonzero"/></clipPath><clipPath id="0f7adf6f9a"><path d="M 883 0 L 899.332031 0 L 899.332031 152 L 883 152 Z M 883 0 " clip-rule="nonzero"/></clipPath><clipPath id="754ff7b81f"><path d="M 631 403 L 762 403 L 762 674 L 631 674 Z M 631 403 " clip-rule="nonzero"/></clipPath><clipPath id="a4028d5ce2"><path d="M 2 640 L 632 640 L 632 674 L 2 674 Z M 2 640 " clip-rule="nonzero"/></clipPath><clipPath id="09cd82cee0"><path d="M 126 55 L 179 55 L 179 162 L 126 162 Z M 126 55 " clip-rule="nonzero"/></clipPath><clipPath id="35c1576ad7"><path d="M 139.886719 55.175781 C 139.886719 55.175781 116.179688 71.382812 130.792969 135.542969 C 130.792969 135.542969 144.632812 116.855469 158.640625 149.0625 L 165.78125 161.082031 C 165.78125 161.082031 152.863281 94.304688 178.210938 68.449219 Z M 139.886719 55.175781 " clip-rule="nonzero"/></clipPath><linearGradient x1="1215.28003" gradientTransform="matrix(0.680221, 0, 0, 0.680623, -674.535445, 0.263909)" y1="236.280047" x2="1215.28003" gradientUnits="userSpaceOnUse" y2="80.680035" id="0014cb4ccc"><stop stop-opacity="1" stop-color="rgb(74.508667%, 61.959839%, 49.01886%)" offset="0"/><stop stop-opacity="1" stop-color="rgb(74.169922%, 61.680603%, 48.815918%)" offset="0.00390625"/><stop stop-opacity="1" stop-color="rgb(73.831177%, 61.402893%, 48.612976%)" offset="0.0078125"/><stop stop-opacity="1" stop-color="rgb(73.490906%, 61.125183%, 48.408508%)" offset="0.0117188"/><stop stop-opacity="1" stop-color="rgb(73.152161%, 60.847473%, 48.205566%)" offset="0.015625"/><stop stop-opacity="1" stop-color="rgb(72.813416%, 60.569763%, 48.001099%)" offset="0.0195313"/><stop stop-opacity="1" stop-color="rgb(72.47467%, 60.292053%, 47.798157%)" offset="0.0234375"/><stop stop-opacity="1" stop-color="rgb(72.134399%, 60.014343%, 47.593689%)" offset="0.0273438"/><stop stop-opacity="1" stop-color="rgb(71.795654%, 59.736633%, 47.390747%)" offset="0.03125"/><stop stop-opacity="1" stop-color="rgb(71.456909%, 59.457397%, 47.186279%)" offset="0.0351562"/><stop stop-opacity="1" stop-color="rgb(71.118164%, 59.179688%, 46.983337%)" offset="0.0390625"/><stop stop-opacity="1" stop-color="rgb(70.777893%, 58.901978%, 46.780396%)" offset="0.0429688"/><stop stop-opacity="1" stop-color="rgb(70.439148%, 58.624268%, 46.577454%)" offset="0.046875"/><stop stop-opacity="1" stop-color="rgb(70.098877%, 58.346558%, 46.372986%)" offset="0.0507812"/><stop stop-opacity="1" stop-color="rgb(69.760132%, 58.068848%, 46.170044%)" offset="0.0546875"/><stop stop-opacity="1" stop-color="rgb(69.421387%, 57.791138%, 45.965576%)" offset="0.0585937"/><stop stop-opacity="1" stop-color="rgb(69.082642%, 57.513428%, 45.762634%)" offset="0.0625"/><stop stop-opacity="1" stop-color="rgb(68.742371%, 57.234192%, 45.558167%)" offset="0.0664063"/><stop stop-opacity="1" stop-color="rgb(68.403625%, 56.956482%, 45.355225%)" offset="0.0703125"/><stop stop-opacity="1" stop-color="rgb(68.06488%, 56.678772%, 45.152283%)" offset="0.0742188"/><stop stop-opacity="1" stop-color="rgb(67.726135%, 56.401062%, 44.949341%)" offset="0.078125"/><stop stop-opacity="1" stop-color="rgb(67.385864%, 56.123352%, 44.744873%)" offset="0.0820313"/><stop stop-opacity="1" stop-color="rgb(67.047119%, 55.845642%, 44.541931%)" offset="0.0859375"/><stop stop-opacity="1" stop-color="rgb(66.708374%, 55.567932%, 44.337463%)" offset="0.0898438"/><stop stop-opacity="1" stop-color="rgb(66.369629%, 55.290222%, 44.134521%)" offset="0.09375"/><stop stop-opacity="1" stop-color="rgb(66.029358%, 55.010986%, 43.930054%)" offset="0.0976562"/><stop stop-opacity="1" stop-color="rgb(65.690613%, 54.733276%, 43.727112%)" offset="0.101563"/><stop stop-opacity="1" stop-color="rgb(65.351868%, 54.455566%, 43.52417%)" offset="0.105469"/><stop stop-opacity="1" stop-color="rgb(65.013123%, 54.177856%, 43.321228%)" offset="0.109375"/><stop stop-opacity="1" stop-color="rgb(64.672852%, 53.900146%, 43.11676%)" offset="0.113281"/><stop stop-opacity="1" stop-color="rgb(64.334106%, 53.622437%, 42.913818%)" offset="0.117188"/><stop stop-opacity="1" stop-color="rgb(63.993835%, 53.344727%, 42.709351%)" offset="0.121094"/><stop stop-opacity="1" stop-color="rgb(63.65509%, 53.067017%, 42.506409%)" offset="0.125"/><stop stop-opacity="1" stop-color="rgb(63.316345%, 52.787781%, 42.301941%)" offset="0.128906"/><stop stop-opacity="1" stop-color="rgb(62.9776%, 52.510071%, 42.098999%)" offset="0.132812"/><stop stop-opacity="1" stop-color="rgb(62.637329%, 52.232361%, 41.896057%)" offset="0.136719"/><stop stop-opacity="1" stop-color="rgb(62.298584%, 51.954651%, 41.693115%)" offset="0.140625"/><stop stop-opacity="1" stop-color="rgb(61.959839%, 51.676941%, 41.488647%)" offset="0.144531"/><stop stop-opacity="1" stop-color="rgb(61.621094%, 51.399231%, 41.285706%)" offset="0.148438"/><stop stop-opacity="1" stop-color="rgb(61.280823%, 51.121521%, 41.081238%)" offset="0.152344"/><stop stop-opacity="1" stop-color="rgb(60.942078%, 50.843811%, 40.878296%)" offset="0.15625"/><stop stop-opacity="1" stop-color="rgb(60.603333%, 50.564575%, 40.673828%)" offset="0.160156"/><stop stop-opacity="1" stop-color="rgb(60.264587%, 50.286865%, 40.470886%)" offset="0.164063"/><stop stop-opacity="1" stop-color="rgb(59.924316%, 50.009155%, 40.267944%)" offset="0.167969"/><stop stop-opacity="1" stop-color="rgb(59.585571%, 49.731445%, 40.065002%)" offset="0.171875"/><stop stop-opacity="1" stop-color="rgb(59.2453%, 49.453735%, 39.860535%)" offset="0.175781"/><stop stop-opacity="1" stop-color="rgb(58.906555%, 49.176025%, 39.657593%)" offset="0.179688"/><stop stop-opacity="1" stop-color="rgb(58.56781%, 48.898315%, 39.453125%)" offset="0.183594"/><stop stop-opacity="1" stop-color="rgb(58.229065%, 48.620605%, 39.250183%)" offset="0.1875"/><stop stop-opacity="1" stop-color="rgb(57.888794%, 48.34137%, 39.045715%)" offset="0.191406"/><stop stop-opacity="1" stop-color="rgb(57.550049%, 48.06366%, 38.842773%)" offset="0.195312"/><stop stop-opacity="1" stop-color="rgb(57.211304%, 47.78595%, 38.639832%)" offset="0.199219"/><stop stop-opacity="1" stop-color="rgb(56.872559%, 47.50824%, 38.43689%)" offset="0.203125"/><stop stop-opacity="1" stop-color="rgb(56.532288%, 47.23053%, 38.232422%)" offset="0.207031"/><stop stop-opacity="1" stop-color="rgb(56.193542%, 46.95282%, 38.02948%)" offset="0.210938"/><stop stop-opacity="1" stop-color="rgb(55.854797%, 46.67511%, 37.825012%)" offset="0.214844"/><stop stop-opacity="1" stop-color="rgb(55.516052%, 46.3974%, 37.62207%)" offset="0.21875"/><stop stop-opacity="1" stop-color="rgb(55.175781%, 46.118164%, 37.417603%)" offset="0.222656"/><stop stop-opacity="1" stop-color="rgb(54.837036%, 45.840454%, 37.214661%)" offset="0.226562"/><stop stop-opacity="1" stop-color="rgb(54.498291%, 45.562744%, 37.011719%)" offset="0.230469"/><stop stop-opacity="1" stop-color="rgb(54.159546%, 45.285034%, 36.808777%)" offset="0.234375"/><stop stop-opacity="1" stop-color="rgb(53.819275%, 45.007324%, 36.604309%)" offset="0.238281"/><stop stop-opacity="1" stop-color="rgb(53.48053%, 44.729614%, 36.401367%)" offset="0.242188"/><stop stop-opacity="1" stop-color="rgb(53.140259%, 44.451904%, 36.196899%)" offset="0.246094"/><stop stop-opacity="1" stop-color="rgb(52.801514%, 44.174194%, 35.993958%)" offset="0.25"/><stop stop-opacity="1" stop-color="rgb(52.462769%, 43.894958%, 35.78949%)" offset="0.253906"/><stop stop-opacity="1" stop-color="rgb(52.124023%, 43.617249%, 35.586548%)" offset="0.257812"/><stop stop-opacity="1" stop-color="rgb(51.783752%, 43.339539%, 35.383606%)" offset="0.261719"/><stop stop-opacity="1" stop-color="rgb(51.445007%, 43.061829%, 35.180664%)" offset="0.265625"/><stop stop-opacity="1" stop-color="rgb(51.106262%, 42.784119%, 34.976196%)" offset="0.269531"/><stop stop-opacity="1" stop-color="rgb(50.767517%, 42.506409%, 34.773254%)" offset="0.273438"/><stop stop-opacity="1" stop-color="rgb(50.427246%, 42.228699%, 34.568787%)" offset="0.277344"/><stop stop-opacity="1" stop-color="rgb(50.088501%, 41.950989%, 34.365845%)" offset="0.28125"/><stop stop-opacity="1" stop-color="rgb(49.749756%, 41.671753%, 34.161377%)" offset="0.285156"/><stop stop-opacity="1" stop-color="rgb(49.411011%, 41.394043%, 33.958435%)" offset="0.289062"/><stop stop-opacity="1" stop-color="rgb(49.07074%, 41.116333%, 33.755493%)" offset="0.292969"/><stop stop-opacity="1" stop-color="rgb(48.731995%, 40.838623%, 33.552551%)" offset="0.296875"/><stop stop-opacity="1" stop-color="rgb(48.391724%, 40.560913%, 33.348083%)" offset="0.300781"/><stop stop-opacity="1" stop-color="rgb(48.052979%, 40.283203%, 33.145142%)" offset="0.304688"/><stop stop-opacity="1" stop-color="rgb(47.714233%, 40.005493%, 32.940674%)" offset="0.308594"/><stop stop-opacity="1" stop-color="rgb(47.375488%, 39.727783%, 32.737732%)" offset="0.3125"/><stop stop-opacity="1" stop-color="rgb(47.035217%, 39.448547%, 32.533264%)" offset="0.316406"/><stop stop-opacity="1" stop-color="rgb(46.696472%, 39.170837%, 32.330322%)" offset="0.320312"/><stop stop-opacity="1" stop-color="rgb(46.357727%, 38.893127%, 32.12738%)" offset="0.324219"/><stop stop-opacity="1" stop-color="rgb(46.018982%, 38.615417%, 31.924438%)" offset="0.328125"/><stop stop-opacity="1" stop-color="rgb(45.678711%, 38.337708%, 31.719971%)" offset="0.332031"/><stop stop-opacity="1" stop-color="rgb(45.339966%, 38.059998%, 31.517029%)" offset="0.335938"/><stop stop-opacity="1" stop-color="rgb(45.001221%, 37.782288%, 31.312561%)" offset="0.339844"/><stop stop-opacity="1" stop-color="rgb(44.662476%, 37.504578%, 31.109619%)" offset="0.34375"/><stop stop-opacity="1" stop-color="rgb(44.322205%, 37.225342%, 30.905151%)" offset="0.347656"/><stop stop-opacity="1" stop-color="rgb(43.983459%, 36.947632%, 30.702209%)" offset="0.351562"/><stop stop-opacity="1" stop-color="rgb(43.644714%, 36.669922%, 30.499268%)" offset="0.355469"/><stop stop-opacity="1" stop-color="rgb(43.305969%, 36.392212%, 30.296326%)" offset="0.359375"/><stop stop-opacity="1" stop-color="rgb(42.965698%, 36.114502%, 30.091858%)" offset="0.363281"/><stop stop-opacity="1" stop-color="rgb(42.626953%, 35.836792%, 29.888916%)" offset="0.367188"/><stop stop-opacity="1" stop-color="rgb(42.286682%, 35.559082%, 29.684448%)" offset="0.371094"/><stop stop-opacity="1" stop-color="rgb(41.947937%, 35.281372%, 29.481506%)" offset="0.375"/><stop stop-opacity="1" stop-color="rgb(41.609192%, 35.002136%, 29.277039%)" offset="0.378906"/><stop stop-opacity="1" stop-color="rgb(41.270447%, 34.724426%, 29.074097%)" offset="0.382812"/><stop stop-opacity="1" stop-color="rgb(40.930176%, 34.446716%, 28.871155%)" offset="0.386719"/><stop stop-opacity="1" stop-color="rgb(40.591431%, 34.169006%, 28.668213%)" offset="0.390625"/><stop stop-opacity="1" stop-color="rgb(40.252686%, 33.891296%, 28.463745%)" offset="0.394531"/><stop stop-opacity="1" stop-color="rgb(39.91394%, 33.613586%, 28.260803%)" offset="0.398438"/><stop stop-opacity="1" stop-color="rgb(39.573669%, 33.335876%, 28.056335%)" offset="0.402344"/><stop stop-opacity="1" stop-color="rgb(39.234924%, 33.058167%, 27.853394%)" offset="0.40625"/><stop stop-opacity="1" stop-color="rgb(38.896179%, 32.778931%, 27.648926%)" offset="0.410156"/><stop stop-opacity="1" stop-color="rgb(38.557434%, 32.501221%, 27.445984%)" offset="0.414062"/><stop stop-opacity="1" stop-color="rgb(38.217163%, 32.223511%, 27.243042%)" offset="0.417969"/><stop stop-opacity="1" stop-color="rgb(37.878418%, 31.945801%, 27.0401%)" offset="0.421875"/><stop stop-opacity="1" stop-color="rgb(37.538147%, 31.668091%, 26.835632%)" offset="0.425781"/><stop stop-opacity="1" stop-color="rgb(37.199402%, 31.390381%, 26.63269%)" offset="0.429688"/><stop stop-opacity="1" stop-color="rgb(36.860657%, 31.112671%, 26.428223%)" offset="0.433594"/><stop stop-opacity="1" stop-color="rgb(36.521912%, 30.834961%, 26.225281%)" offset="0.4375"/><stop stop-opacity="1" stop-color="rgb(36.181641%, 30.555725%, 26.020813%)" offset="0.441406"/><stop stop-opacity="1" stop-color="rgb(35.842896%, 30.278015%, 25.817871%)" offset="0.445312"/><stop stop-opacity="1" stop-color="rgb(35.50415%, 30.000305%, 25.614929%)" offset="0.449219"/><stop stop-opacity="1" stop-color="rgb(35.165405%, 29.722595%, 25.411987%)" offset="0.453125"/><stop stop-opacity="1" stop-color="rgb(34.825134%, 29.444885%, 25.20752%)" offset="0.457031"/><stop stop-opacity="1" stop-color="rgb(34.486389%, 29.167175%, 25.004578%)" offset="0.460938"/><stop stop-opacity="1" stop-color="rgb(34.147644%, 28.889465%, 24.80011%)" offset="0.464844"/><stop stop-opacity="1" stop-color="rgb(33.808899%, 28.611755%, 24.597168%)" offset="0.46875"/><stop stop-opacity="1" stop-color="rgb(33.468628%, 28.33252%, 24.3927%)" offset="0.472656"/><stop stop-opacity="1" stop-color="rgb(33.129883%, 28.05481%, 24.189758%)" offset="0.476562"/><stop stop-opacity="1" stop-color="rgb(32.791138%, 27.7771%, 23.986816%)" offset="0.480469"/><stop stop-opacity="1" stop-color="rgb(32.452393%, 27.49939%, 23.783875%)" offset="0.484375"/><stop stop-opacity="1" stop-color="rgb(32.112122%, 27.22168%, 23.579407%)" offset="0.488281"/><stop stop-opacity="1" stop-color="rgb(31.773376%, 26.94397%, 23.376465%)" offset="0.492188"/><stop stop-opacity="1" stop-color="rgb(31.433105%, 26.66626%, 23.171997%)" offset="0.496094"/><stop stop-opacity="1" stop-color="rgb(31.09436%, 26.38855%, 22.969055%)" offset="0.5"/><stop stop-opacity="1" stop-color="rgb(30.755615%, 26.109314%, 22.764587%)" offset="0.503906"/><stop stop-opacity="1" stop-color="rgb(30.41687%, 25.831604%, 22.561646%)" offset="0.507812"/><stop stop-opacity="1" stop-color="rgb(30.076599%, 25.553894%, 22.358704%)" offset="0.511719"/><stop stop-opacity="1" stop-color="rgb(29.737854%, 25.276184%, 22.155762%)" offset="0.515625"/><stop stop-opacity="1" stop-color="rgb(29.399109%, 24.998474%, 21.951294%)" offset="0.519531"/><stop stop-opacity="1" stop-color="rgb(29.060364%, 24.720764%, 21.748352%)" offset="0.523437"/><stop stop-opacity="1" stop-color="rgb(28.720093%, 24.443054%, 21.543884%)" offset="0.527344"/><stop stop-opacity="1" stop-color="rgb(28.381348%, 24.165344%, 21.340942%)" offset="0.53125"/><stop stop-opacity="1" stop-color="rgb(28.042603%, 23.886108%, 21.136475%)" offset="0.535156"/><stop stop-opacity="1" stop-color="rgb(27.703857%, 23.608398%, 20.933533%)" offset="0.539063"/><stop stop-opacity="1" stop-color="rgb(27.363586%, 23.330688%, 20.730591%)" offset="0.542969"/><stop stop-opacity="1" stop-color="rgb(27.024841%, 23.052979%, 20.527649%)" offset="0.546875"/><stop stop-opacity="1" stop-color="rgb(26.68457%, 22.775269%, 20.323181%)" offset="0.550781"/><stop stop-opacity="1" stop-color="rgb(26.345825%, 22.497559%, 20.120239%)" offset="0.554688"/><stop stop-opacity="1" stop-color="rgb(26.00708%, 22.219849%, 19.915771%)" offset="0.558594"/><stop stop-opacity="1" stop-color="rgb(25.668335%, 21.942139%, 19.71283%)" offset="0.5625"/><stop stop-opacity="1" stop-color="rgb(25.328064%, 21.662903%, 19.508362%)" offset="0.566406"/><stop stop-opacity="1" stop-color="rgb(24.989319%, 21.385193%, 19.30542%)" offset="0.570312"/><stop stop-opacity="1" stop-color="rgb(24.650574%, 21.107483%, 19.102478%)" offset="0.574219"/><stop stop-opacity="1" stop-color="rgb(24.311829%, 20.829773%, 18.899536%)" offset="0.578125"/><stop stop-opacity="1" stop-color="rgb(23.971558%, 20.552063%, 18.695068%)" offset="0.582031"/><stop stop-opacity="1" stop-color="rgb(23.632812%, 20.274353%, 18.492126%)" offset="0.585937"/><stop stop-opacity="1" stop-color="rgb(23.294067%, 19.996643%, 18.287659%)" offset="0.589844"/><stop stop-opacity="1" stop-color="rgb(22.955322%, 19.718933%, 18.084717%)" offset="0.59375"/><stop stop-opacity="1" stop-color="rgb(22.615051%, 19.439697%, 17.880249%)" offset="0.597656"/><stop stop-opacity="1" stop-color="rgb(22.276306%, 19.161987%, 17.677307%)" offset="0.601563"/><stop stop-opacity="1" stop-color="rgb(21.937561%, 18.884277%, 17.474365%)" offset="0.605469"/><stop stop-opacity="1" stop-color="rgb(21.598816%, 18.606567%, 17.271423%)" offset="0.609375"/><stop stop-opacity="1" stop-color="rgb(21.258545%, 18.328857%, 17.066956%)" offset="0.613281"/><stop stop-opacity="1" stop-color="rgb(20.9198%, 18.051147%, 16.864014%)" offset="0.617188"/><stop stop-opacity="1" stop-color="rgb(20.579529%, 17.773438%, 16.659546%)" offset="0.621094"/><stop stop-opacity="1" stop-color="rgb(20.240784%, 17.495728%, 16.456604%)" offset="0.625"/><stop stop-opacity="1" stop-color="rgb(19.902039%, 17.216492%, 16.252136%)" offset="0.628906"/><stop stop-opacity="1" stop-color="rgb(19.563293%, 16.938782%, 16.049194%)" offset="0.632812"/><stop stop-opacity="1" stop-color="rgb(19.223022%, 16.661072%, 15.846252%)" offset="0.636719"/><stop stop-opacity="1" stop-color="rgb(18.884277%, 16.383362%, 15.643311%)" offset="0.640625"/><stop stop-opacity="1" stop-color="rgb(18.545532%, 16.105652%, 15.438843%)" offset="0.644531"/><stop stop-opacity="1" stop-color="rgb(18.206787%, 15.827942%, 15.235901%)" offset="0.648437"/><stop stop-opacity="1" stop-color="rgb(17.866516%, 15.548706%, 15.031433%)" offset="0.652344"/><stop stop-opacity="1" stop-color="rgb(17.527771%, 15.270996%, 14.828491%)" offset="0.65625"/><stop stop-opacity="1" stop-color="rgb(17.189026%, 14.993286%, 14.624023%)" offset="0.660156"/><stop stop-opacity="1" stop-color="rgb(16.850281%, 14.715576%, 14.421082%)" offset="0.664062"/><stop stop-opacity="1" stop-color="rgb(16.51001%, 14.437866%, 14.21814%)" offset="0.667969"/><stop stop-opacity="1" stop-color="rgb(16.171265%, 14.160156%, 14.015198%)" offset="0.671875"/><stop stop-opacity="1" stop-color="rgb(15.830994%, 13.882446%, 13.81073%)" offset="0.675781"/><stop stop-opacity="1" stop-color="rgb(15.492249%, 13.604736%, 13.607788%)" offset="0.679688"/><stop stop-opacity="1" stop-color="rgb(15.153503%, 13.3255%, 13.40332%)" offset="0.683594"/><stop stop-opacity="1" stop-color="rgb(14.814758%, 13.047791%, 13.200378%)" offset="0.6875"/><stop stop-opacity="1" stop-color="rgb(14.474487%, 12.770081%, 12.995911%)" offset="0.691406"/><stop stop-opacity="1" stop-color="rgb(14.135742%, 12.492371%, 12.792969%)" offset="0.695312"/><stop stop-opacity="1" stop-color="rgb(13.9328%, 12.32605%, 12.670898%)" offset="0.699219"/><stop stop-opacity="1" stop-color="rgb(13.729858%, 12.159729%, 12.548828%)" offset="0.703125"/><stop stop-opacity="1" stop-color="rgb(13.729858%, 12.159729%, 12.548828%)" offset="0.71875"/><stop stop-opacity="1" stop-color="rgb(13.729858%, 12.159729%, 12.548828%)" offset="0.75"/><stop stop-opacity="1" stop-color="rgb(13.729858%, 12.159729%, 12.548828%)" offset="1"/></linearGradient><clipPath id="223e0a53b9"><path d="M 726 89 L 899.332031 89 L 899.332031 181 L 726 181 Z M 726 89 " clip-rule="nonzero"/></clipPath><clipPath id="16fe9461a1"><path d="M 864 163 L 899.332031 163 L 899.332031 291 L 864 291 Z M 864 163 " clip-rule="nonzero"/></clipPath></defs><g clip-path="url(#42b1467645)"><path fill="#ffffff" d="M 0.664062 0 L 899.335938 0 L 899.335938 674 L 0.664062 674 Z M 0.664062 0 " fill-opacity="1" fill-rule="nonzero"/><path fill="#ffffff" d="M 0.664062 0 L 899.335938 0 L 899.335938 674 L 0.664062 674 Z M 0.664062 0 " fill-opacity="1" fill-rule="nonzero"/></g><g clip-path="url(#4ec5588e20)"><path fill="#edb36e" d="M 908.304688 296.023438 L 908.304688 397.816406 L 1.691406 397.816406 L 1.691406 296.023438 Z M 908.304688 296.023438 " fill-opacity="0.8" fill-rule="nonzero"/></g><g clip-path="url(#dd2b1b9968)"><path fill="#dea962" d="M 908.304688 194.5625 L 908.304688 296.355469 L 1.691406 296.355469 L 1.691406 194.5625 Z M 908.304688 194.5625 " fill-opacity="0.8" fill-rule="nonzero"/></g><g clip-path="url(#0a09c0eef4)"><path fill="#edb36e" d="M 908.304688 92.617188 L 908.304688 194.410156 L 1.691406 194.410156 L 1.691406 92.617188 Z M 908.304688 92.617188 " fill-opacity="0.8" fill-rule="nonzero"/></g><g clip-path="url(#dd5f461dc9)"><path fill="#dea962" d="M 908.304688 1.09375 L 908.304688 92.957031 L 1.691406 92.957031 L 1.691406 1.09375 Z M 908.304688 1.09375 " fill-opacity="0.8" fill-rule="nonzero"/></g><g clip-path="url(#f476cd30a1)"><path fill="#dea962" d="M 908.304688 398.011719 L 908.304688 499.808594 L 1.691406 499.808594 L 1.691406 398.011719 Z M 908.304688 398.011719 " fill-opacity="0.8" fill-rule="nonzero"/></g><g clip-path="url(#38c8e872a7)"><path fill="#6ca442" d="M 0.664062 499.515625 L 908.039062 499.515625 L 908.039062 680.960938 L 0.664062 680.960938 Z M 0.664062 499.515625 " fill-opacity="1" fill-rule="nonzero"/></g><g clip-path="url(#897547b0cb)"><path fill="#ead788" d="M 0.816406 1.332031 L 0.816406 65.488281 C 0.816406 65.488281 14.707031 127.507812 16.839844 151.027344 C 16.839844 151.027344 29.664062 34.480469 24.324219 0.265625 Z M 0.816406 1.332031 " fill-opacity="1" fill-rule="nonzero"/></g><g clip-path="url(#0f7adf6f9a)"><path fill="#ead788" d="M 908.074219 1.332031 L 908.074219 65.488281 C 908.074219 65.488281 894.183594 127.507812 892.046875 151.027344 C 892.042969 151.027344 879.21875 34.480469 884.566406 0.265625 Z M 908.074219 1.332031 " fill-opacity="1" fill-rule="nonzero"/></g><path fill="#ead788" d="M 59.59375 0.265625 C 59.59375 0.265625 55.320312 107.191406 39.289062 157.441406 C 39.289062 157.441406 21.121094 35.546875 24.332031 0.265625 Z M 59.59375 0.265625 " fill-opacity="1" fill-rule="nonzero"/><path fill="#ead788" d="M 160.042969 0.265625 C 160.042969 0.265625 155.769531 107.191406 139.738281 157.441406 C 139.738281 157.441406 121.566406 35.546875 124.777344 0.265625 Z M 160.042969 0.265625 " fill-opacity="1" fill-rule="nonzero"/><path fill="#ead788" d="M 126.914062 0.265625 C 126.914062 0.265625 122.644531 91.1875 106.609375 133.917969 C 106.609375 133.917969 88.441406 30.265625 91.652344 0.265625 Z M 126.914062 0.265625 " fill-opacity="1" fill-rule="nonzero"/><path fill="#ead788" d="M 92.71875 0.265625 C 92.71875 0.265625 88.449219 83.914062 72.414062 123.226562 C 72.414062 123.226562 54.246094 27.863281 57.457031 0.265625 Z M 92.71875 0.265625 " fill-opacity="1" fill-rule="nonzero"/><path fill="#ead788" d="M 160.042969 0.265625 C 160.042969 0.265625 152.558594 111.464844 164.3125 142.472656 C 164.3125 142.472656 161.109375 21.648438 182.480469 0.265625 Z M 160.042969 0.265625 " fill-opacity="1" fill-rule="nonzero"/><path fill="#ead788" d="M 215.609375 0.265625 C 215.609375 0.265625 211.335938 107.191406 195.304688 157.441406 C 195.304688 157.441406 177.136719 35.546875 180.347656 0.265625 Z M 215.609375 0.265625 " fill-opacity="1" fill-rule="nonzero"/><path fill="#ead788" d="M 316.058594 0.265625 C 316.058594 0.265625 311.785156 107.191406 295.753906 157.441406 C 295.753906 157.441406 277.582031 35.546875 280.792969 0.265625 Z M 316.058594 0.265625 " fill-opacity="1" fill-rule="nonzero"/><path fill="#ead788" d="M 282.929688 0.265625 C 282.929688 0.265625 278.660156 91.1875 262.625 133.917969 C 262.625 133.917969 244.457031 30.265625 247.667969 0.265625 Z M 282.929688 0.265625 " fill-opacity="1" fill-rule="nonzero"/><path fill="#ead788" d="M 248.734375 0.265625 C 248.734375 0.265625 244.464844 83.914062 228.429688 123.226562 C 228.429688 123.226562 210.261719 27.863281 213.472656 0.265625 Z M 248.734375 0.265625 " fill-opacity="1" fill-rule="nonzero"/><path fill="#ead788" d="M 316.058594 0.265625 C 316.058594 0.265625 308.574219 111.464844 320.328125 142.472656 C 320.328125 142.472656 317.125 21.648438 338.496094 0.265625 Z M 316.058594 0.265625 " fill-opacity="1" fill-rule="nonzero"/><path fill="#ead788" d="M 369.488281 0.265625 C 369.488281 0.265625 365.214844 107.191406 349.183594 157.441406 C 349.183594 157.441406 331.015625 35.546875 334.226562 0.265625 Z M 369.488281 0.265625 " fill-opacity="1" fill-rule="nonzero"/><path fill="#ead788" d="M 469.9375 0.265625 C 469.9375 0.265625 465.664062 107.191406 449.632812 157.441406 C 449.632812 157.441406 431.464844 35.546875 434.675781 0.265625 Z M 469.9375 0.265625 " fill-opacity="1" fill-rule="nonzero"/><path fill="#ead788" d="M 436.808594 0.265625 C 436.808594 0.265625 432.539062 91.1875 416.503906 133.917969 C 416.503906 133.917969 398.335938 30.265625 401.546875 0.265625 Z M 436.808594 0.265625 " fill-opacity="1" fill-rule="nonzero"/><path fill="#ead788" d="M 402.613281 0.265625 C 402.613281 0.265625 398.34375 83.914062 382.3125 123.226562 C 382.3125 123.226562 364.140625 27.863281 367.351562 0.265625 Z M 402.613281 0.265625 " fill-opacity="1" fill-rule="nonzero"/><path fill="#ead788" d="M 469.9375 0.265625 C 469.9375 0.265625 462.453125 111.464844 474.207031 142.472656 C 474.207031 142.472656 471.003906 21.648438 492.378906 0.265625 Z M 469.9375 0.265625 " fill-opacity="1" fill-rule="nonzero"/><path fill="#ead788" d="M 525.503906 0.265625 C 525.503906 0.265625 521.230469 107.191406 505.199219 157.441406 C 505.199219 157.441406 487.03125 35.546875 490.242188 0.265625 Z M 525.503906 0.265625 " fill-opacity="1" fill-rule="nonzero"/><path fill="#ead788" d="M 625.957031 0.265625 C 625.957031 0.265625 621.6875 107.191406 605.65625 157.441406 C 605.65625 157.441406 587.484375 35.546875 590.695312 0.265625 L 625.960938 0.265625 Z M 625.957031 0.265625 " fill-opacity="1" fill-rule="nonzero"/><path fill="#ead788" d="M 592.832031 0.265625 C 592.832031 0.265625 588.558594 91.1875 572.527344 133.917969 C 572.527344 133.917969 554.359375 30.265625 557.570312 0.265625 Z M 592.832031 0.265625 " fill-opacity="1" fill-rule="nonzero"/><path fill="#ead788" d="M 558.636719 0.265625 C 558.636719 0.265625 554.367188 83.914062 538.332031 123.226562 C 538.332031 123.226562 520.164062 27.863281 523.375 0.265625 Z M 558.636719 0.265625 " fill-opacity="1" fill-rule="nonzero"/><path fill="#ead788" d="M 625.957031 0.265625 C 625.957031 0.265625 618.476562 111.464844 630.230469 142.472656 C 630.230469 142.472656 627.027344 21.648438 648.398438 0.265625 Z M 625.957031 0.265625 " fill-opacity="1" fill-rule="nonzero"/><path fill="#ead788" d="M 681.527344 0.265625 C 681.527344 0.265625 677.253906 107.191406 661.222656 157.441406 C 661.222656 157.441406 643.054688 35.546875 646.261719 0.265625 Z M 681.527344 0.265625 " fill-opacity="1" fill-rule="nonzero"/><path fill="#ead788" d="M 781.972656 0.265625 C 781.972656 0.265625 777.703125 107.191406 761.667969 157.441406 C 761.667969 157.441406 743.5 35.546875 746.710938 0.265625 Z M 781.972656 0.265625 " fill-opacity="1" fill-rule="nonzero"/><path fill="#ead788" d="M 748.847656 0.265625 C 748.847656 0.265625 744.574219 91.1875 728.542969 133.917969 C 728.542969 133.917969 710.375 30.265625 713.585938 0.265625 Z M 748.847656 0.265625 " fill-opacity="1" fill-rule="nonzero"/><path fill="#ead788" d="M 714.652344 0.265625 C 714.652344 0.265625 710.382812 83.914062 694.347656 123.226562 C 694.347656 123.226562 676.179688 27.863281 679.390625 0.265625 Z M 714.652344 0.265625 " fill-opacity="1" fill-rule="nonzero"/><path fill="#ead788" d="M 886.703125 0.265625 C 886.703125 0.265625 882.429688 107.191406 866.398438 157.441406 C 866.398438 157.441406 848.226562 35.546875 851.4375 0.265625 Z M 886.703125 0.265625 " fill-opacity="1" fill-rule="nonzero"/><path fill="#ead788" d="M 853.574219 0.265625 C 853.574219 0.265625 849.304688 91.1875 833.269531 133.917969 C 833.269531 133.917969 815.101562 30.265625 818.3125 0.265625 Z M 853.574219 0.265625 " fill-opacity="1" fill-rule="nonzero"/><path fill="#ead788" d="M 819.378906 0.265625 C 819.378906 0.265625 815.109375 83.914062 799.074219 123.226562 C 799.074219 123.226562 780.90625 27.863281 784.117188 0.265625 Z M 819.378906 0.265625 " fill-opacity="1" fill-rule="nonzero"/><path fill="#ead788" d="M 781.972656 0.265625 C 781.972656 0.265625 774.492188 111.464844 786.246094 142.472656 C 786.246094 142.472656 783.042969 21.648438 804.414062 0.265625 Z M 781.972656 0.265625 " fill-opacity="1" fill-rule="nonzero"/><path fill="#be9e7d" d="M 769.90625 297.445312 L 786.734375 311.289062 L 845.902344 278.15625 L 855.695312 263.984375 L 865.226562 253.304688 L 869.464844 252.019531 L 886.035156 239.113281 C 886.035156 239.113281 889.578125 240.816406 887.308594 243.757812 C 885.035156 246.695312 881.933594 250.175781 881.933594 250.175781 L 886.597656 246.71875 C 886.597656 246.71875 885.359375 250.285156 885.292969 253.910156 L 875.988281 262.039062 C 875.988281 262.039062 874.4375 264.324219 876.382812 263.371094 C 878.328125 262.417969 885.136719 256.335938 885.136719 256.335938 C 885.136719 256.335938 884.703125 259.574219 885.28125 263.039062 L 877.621094 269.539062 L 878.164062 272.058594 C 878.164062 272.058594 880.394531 271.988281 886.035156 269.179688 L 886.585938 274.488281 C 886.585938 274.488281 880.734375 278.09375 878.457031 278.789062 C 878.457031 278.789062 863.007812 296.949219 854.390625 296.417969 L 806.570312 344.039062 C 806.570312 344.039062 786.59375 359.121094 769.199219 350.007812 C 758.996094 344.660156 754.390625 342.386719 754.390625 342.386719 L 747.203125 321.648438 L 769.925781 297.4375 Z M 769.90625 297.445312 " fill-opacity="1" fill-rule="nonzero"/><path stroke-linecap="butt" transform="matrix(0.680221, 0, 0, 0.680623, 0.665679, 0.263932)" fill-opacity="1" fill="#be9e7d" fill-rule="nonzero" stroke-linejoin="miter" d="M 1156.681417 456.902675 C 1156.681417 456.902675 1146.482528 465.649263 1146.752431 476.668586 " stroke="#603913" stroke-width="1" stroke-opacity="1" stroke-miterlimit="10"/><path stroke-linecap="butt" transform="matrix(0.680221, 0, 0, 0.680623, 0.665679, 0.263932)" fill-opacity="1" fill="#be9e7d" fill-rule="nonzero" stroke-linejoin="miter" d="M 1277.207477 369.890192 L 1291.230949 367.267363 C 1291.230949 367.267363 1293.71176 372.260494 1288.549147 375.508899 C 1283.392276 378.757304 1278.528279 381.030039 1278.528279 381.030039 L 1273.750421 385.087676 C 1273.750421 385.087676 1278.229663 398.259211 1270.442673 407.740421 " stroke="#603913" stroke-width="1" stroke-opacity="1" stroke-miterlimit="10"/><path stroke-linecap="butt" transform="matrix(0.680221, 0, 0, 0.680623, 0.665679, 0.263932)" fill-opacity="1" fill="#be9e7d" fill-rule="nonzero" stroke-linejoin="miter" d="M 1284.868129 388.502518 C 1284.868129 388.502518 1291.638675 395.51012 1289.921633 405.502121 " stroke="#603913" stroke-width="1" stroke-opacity="1" stroke-miterlimit="10"/><g clip-path="url(#754ff7b81f)"><path fill="#07935b" d="M 644.773438 403.152344 C 644.773438 403.152344 626.851562 438.265625 636.238281 506.375 C 636.238281 506.375 640.945312 565.304688 638 582.113281 C 638 582.113281 625.824219 628.585938 634.25 681.648438 C 634.25 681.648438 712.148438 682.554688 738.679688 681.316406 L 739.523438 604.417969 C 739.523438 604.417969 740.414062 579.839844 742.425781 543.957031 L 761.710938 423.488281 " fill-opacity="1" fill-rule="nonzero"/></g><path fill="#be9e7d" d="M 732.691406 225.652344 C 732.691406 225.652344 726.128906 238.480469 728.25 242.730469 C 730.371094 246.976562 741.261719 257.628906 740.203125 267.191406 C 739.140625 276.746094 717.910156 272.5 717.910156 272.5 C 717.910156 272.5 684.164062 253.433594 674.234375 226.054688 C 674.234375 226.054688 679.492188 218.5 687.980469 191.953125 " fill-opacity="1" fill-rule="nonzero"/><path fill="#be9e7d" d="M 686.757812 174.039062 C 686.757812 174.039062 686.988281 127.804688 728.058594 126.738281 C 728.058594 126.738281 764.195312 130.453125 752.277344 174.78125 C 752.277344 174.78125 751.308594 176.769531 752.226562 180.34375 C 752.226562 180.34375 756.335938 185.863281 750.515625 198.964844 C 744.691406 212.066406 737.605469 218.953125 737.605469 218.953125 C 737.605469 218.953125 734.664062 224.507812 724.476562 224.078125 C 724.476562 224.078125 716.367188 224.632812 707.570312 218.292969 C 707.570312 218.292969 686.070312 205.429688 687.976562 191.953125 C 687.976562 191.953125 677.546875 198.121094 673.914062 181.855469 C 673.914062 181.855469 671.195312 159.46875 686.75 174.035156 Z M 686.757812 174.039062 " fill-opacity="1" fill-rule="nonzero"/><path fill="#bf6b6b" d="M 713.503906 198.71875 C 713.503906 198.71875 723.78125 195.910156 728.09375 199.605469 C 728.09375 199.605469 731.039062 196.910156 739.167969 200.460938 C 739.167969 200.460938 736.894531 212.257812 726.984375 211.78125 C 712.84375 211.101562 713.503906 198.71875 713.503906 198.71875 Z M 713.503906 198.71875 " fill-opacity="1" fill-rule="nonzero"/><path fill="#803435" d="M 715.367188 200.128906 C 715.367188 200.128906 716.277344 208.070312 726.058594 208.753906 C 735.84375 209.441406 737.34375 201.550781 737.34375 201.550781 C 737.34375 201.550781 721.460938 199.011719 715.367188 200.121094 Z M 715.367188 200.128906 " fill-opacity="1" fill-rule="nonzero"/><path fill="#26130f" d="M 720.347656 161.0625 C 720.347656 161.0625 706.410156 156.738281 700.015625 161.320312 C 700.015625 161.320312 704.761719 154.015625 720.679688 157.738281 C 720.679688 157.738281 723.488281 159.855469 720.339844 161.0625 Z M 720.347656 161.0625 " fill-opacity="1" fill-rule="nonzero"/><path fill="#26130f" d="M 753.847656 160.964844 C 753.617188 160.210938 746.589844 159.339844 740.003906 160.039062 C 740.003906 160.039062 736.957031 161.796875 739.929688 163.382812 C 739.929688 163.382812 751.996094 160.457031 753.460938 164.410156 C 753.460938 164.410156 754.410156 162.84375 753.847656 160.964844 Z M 753.847656 160.964844 " fill-opacity="1" fill-rule="nonzero"/><path stroke-linecap="butt" transform="matrix(0.680221, 0, 0, 0.680623, 0.665679, 0.263932)" fill="none" stroke-linejoin="miter" d="M 1079.179049 266.89969 C 1079.179049 266.89969 1086.839701 279.927744 1072.069689 280.518885 " stroke="#231f20" stroke-width="1" stroke-opacity="1" stroke-miterlimit="10"/><path fill="#ffffff" d="M 717.796875 199.882812 C 717.796875 199.882812 719.953125 202.402344 727.460938 203.015625 C 734.378906 203.578125 736.523438 201.394531 736.523438 201.394531 C 736.523438 201.394531 726.40625 199.476562 717.796875 199.882812 Z M 717.796875 199.882812 " fill-opacity="1" fill-rule="nonzero"/><path stroke-linecap="butt" transform="matrix(0.680221, 0, 0, 0.680623, 0.665679, 0.263932)" fill="none" stroke-linejoin="miter" d="M 992.901961 262.34848 C 992.901961 262.34848 997.898039 251.179936 1005.570176 270.102181 C 1005.570176 270.102181 998.610123 261.52777 996.858625 268.409108 " stroke="#231f20" stroke-width="1" stroke-opacity="1" stroke-miterlimit="10"/><path fill="#26130f" d="M 731.847656 223.285156 C 731.847656 223.285156 724.480469 226.3125 712.210938 221.269531 C 712.210938 221.269531 706.148438 218.519531 698.722656 211.761719 C 698.722656 211.761719 707.75 223.304688 722.15625 225.238281 C 722.15625 225.238281 726.679688 225.980469 731.9375 224.707031 C 731.9375 224.707031 731.515625 224.6875 731.847656 223.285156 Z M 731.847656 223.285156 " fill-opacity="1" fill-rule="nonzero"/><path fill="#ffffff" d="M 705.359375 169.070312 C 705.359375 169.070312 705.359375 168.773438 705.59375 168.519531 C 706.355469 167.703125 708.101562 166.1875 710.789062 166.246094 C 713.804688 166.316406 715.394531 169.1875 715.933594 170.207031 C 716.027344 170.386719 716.011719 170.535156 716.011719 170.535156 C 716.011719 170.535156 716.011719 170.707031 715.917969 170.820312 C 715.421875 171.367188 713.789062 172.890625 710.933594 172.863281 C 709.238281 172.847656 706.871094 171.882812 705.449219 169.542969 C 705.347656 169.378906 705.347656 169.175781 705.355469 169.066406 Z M 705.359375 169.070312 " fill-opacity="1" fill-rule="nonzero"/><path fill="#26130f" d="M 713.222656 169.574219 C 713.222656 169.988281 713.144531 170.386719 712.988281 170.769531 C 712.828125 171.152344 712.605469 171.488281 712.3125 171.78125 C 712.019531 172.070312 711.683594 172.296875 711.300781 172.457031 C 710.917969 172.613281 710.523438 172.691406 710.109375 172.691406 C 709.695312 172.691406 709.296875 172.613281 708.917969 172.457031 C 708.535156 172.296875 708.199219 172.070312 707.90625 171.78125 C 707.613281 171.488281 707.390625 171.152344 707.230469 170.769531 C 707.074219 170.386719 706.992188 169.988281 706.992188 169.574219 C 706.992188 169.164062 707.074219 168.765625 707.230469 168.382812 C 707.390625 168 707.613281 167.664062 707.90625 167.371094 C 708.199219 167.078125 708.535156 166.855469 708.917969 166.695312 C 709.296875 166.539062 709.695312 166.457031 710.109375 166.457031 C 710.523438 166.457031 710.917969 166.539062 711.300781 166.695312 C 711.683594 166.855469 712.019531 167.078125 712.3125 167.371094 C 712.605469 167.664062 712.828125 168 712.988281 168.382812 C 713.144531 168.765625 713.222656 169.164062 713.222656 169.574219 Z M 713.222656 169.574219 " fill-opacity="1" fill-rule="nonzero"/><path fill="#ffffff" d="M 713.066406 168.601562 C 713.066406 168.839844 712.984375 169.042969 712.816406 169.207031 C 712.648438 169.375 712.449219 169.460938 712.210938 169.460938 C 711.972656 169.460938 711.773438 169.375 711.605469 169.207031 C 711.4375 169.042969 711.355469 168.839844 711.355469 168.601562 C 711.355469 168.367188 711.4375 168.164062 711.605469 167.996094 C 711.773438 167.828125 711.972656 167.746094 712.210938 167.746094 C 712.449219 167.746094 712.648438 167.828125 712.816406 167.996094 C 712.984375 168.164062 713.066406 168.367188 713.066406 168.601562 Z M 713.066406 168.601562 " fill-opacity="1" fill-rule="nonzero"/><path stroke-linecap="butt" transform="matrix(0.680221, 0, 0, 0.680623, 0.665679, 0.263932)" fill="none" stroke-linejoin="miter" d="M 1051.792506 249.722171 C 1051.792506 249.722171 1046.652863 239.029984 1036.13813 247.179692 " stroke="#231f20" stroke-width="0.8" stroke-opacity="1" stroke-miterlimit="10"/><path fill="#ffffff" d="M 740.378906 172.449219 C 740.378906 172.449219 740.339844 172.167969 740.515625 171.902344 C 741.105469 171.03125 742.515625 169.371094 745.023438 169.042969 C 747.835938 168.675781 749.726562 171.121094 750.378906 171.992188 C 750.488281 172.140625 750.5 172.285156 750.5 172.285156 C 750.5 172.285156 750.527344 172.441406 750.453125 172.5625 C 750.070312 173.140625 748.765625 174.789062 746.113281 175.175781 C 744.535156 175.410156 742.195312 174.84375 740.542969 172.871094 C 740.425781 172.734375 740.394531 172.542969 740.386719 172.441406 Z M 740.378906 172.449219 " fill-opacity="1" fill-rule="nonzero"/><path fill="#26130f" d="M 747.785156 172.257812 C 747.785156 172.644531 747.710938 173.015625 747.5625 173.375 C 747.417969 173.730469 747.207031 174.046875 746.933594 174.320312 C 746.65625 174.59375 746.34375 174.804688 745.984375 174.953125 C 745.628906 175.101562 745.253906 175.175781 744.867188 175.175781 C 744.480469 175.175781 744.109375 175.101562 743.75 174.953125 C 743.394531 174.804688 743.078125 174.59375 742.804688 174.320312 C 742.53125 174.046875 742.320312 173.730469 742.171875 173.375 C 742.023438 173.015625 741.949219 172.644531 741.949219 172.257812 C 741.949219 171.871094 742.023438 171.496094 742.171875 171.140625 C 742.320312 170.78125 742.53125 170.464844 742.804688 170.191406 C 743.078125 169.917969 743.394531 169.707031 743.75 169.558594 C 744.109375 169.410156 744.480469 169.335938 744.867188 169.335938 C 745.253906 169.335938 745.628906 169.410156 745.984375 169.558594 C 746.34375 169.707031 746.65625 169.917969 746.933594 170.191406 C 747.207031 170.464844 747.417969 170.78125 747.5625 171.140625 C 747.710938 171.496094 747.785156 171.871094 747.785156 172.257812 Z M 747.785156 172.257812 " fill-opacity="1" fill-rule="nonzero"/><path fill="#ffffff" d="M 747.609375 171.242188 C 747.609375 171.46875 747.53125 171.660156 747.371094 171.820312 C 747.210938 171.980469 747.019531 172.058594 746.792969 172.058594 C 746.566406 172.058594 746.375 171.980469 746.214844 171.820312 C 746.058594 171.660156 745.976562 171.46875 745.976562 171.242188 C 745.976562 171.019531 746.058594 170.824219 746.214844 170.664062 C 746.375 170.507812 746.566406 170.425781 746.792969 170.425781 C 747.019531 170.425781 747.210938 170.507812 747.371094 170.664062 C 747.53125 170.824219 747.609375 171.019531 747.609375 171.242188 Z M 747.609375 171.242188 " fill-opacity="1" fill-rule="nonzero"/><path stroke-linecap="butt" transform="matrix(0.680221, 0, 0, 0.680623, 0.665679, 0.263932)" fill="none" stroke-linejoin="miter" d="M 1102.241402 252.448306 C 1102.241402 252.448306 1096.171455 242.611264 1087.551786 252.367957 " stroke="#231f20" stroke-width="0.8" stroke-opacity="1" stroke-miterlimit="10"/><path fill="#07935b" d="M 674.234375 226.054688 C 674.234375 226.054688 638.9375 228.109375 632.589844 282.941406 C 632.589844 282.941406 651.085938 306.851562 679.015625 305.789062 L 644.765625 403.152344 C 644.765625 403.152344 734.175781 448.386719 761.695312 423.507812 L 761.492188 326.5625 L 764.105469 305.054688 L 771.035156 295.503906 C 771.035156 295.503906 755.785156 240.925781 726.742188 240.925781 C 726.742188 240.925781 741.261719 267.476562 724.507812 265.351562 C 707.753906 263.230469 689.871094 254.734375 674.234375 226.058594 Z M 674.234375 226.054688 " fill-opacity="1" fill-rule="nonzero"/><path fill="#231f20" d="M 750.398438 255.097656 C 749.433594 252.613281 736.066406 240.742188 726.746094 240.925781 C 726.746094 240.925781 725.386719 231.421875 729.582031 223.839844 C 729.582031 223.839844 739.707031 222.808594 750.519531 198.957031 C 750.519531 198.957031 755.453125 188.734375 752.234375 180.335938 C 752.234375 180.335938 750.875 176.648438 752.753906 172.871094 C 752.753906 172.871094 753.847656 166.738281 753.839844 160.972656 C 753.839844 155.207031 753.519531 149.484375 753.519531 149.484375 C 753.519531 149.484375 737.664062 152.574219 704.988281 136.28125 C 704.988281 136.28125 694.347656 142.078125 686.757812 174.039062 C 686.757812 174.039062 677.152344 164.382812 674.648438 172.753906 C 672.1875 180.996094 677.113281 189.402344 677.113281 189.402344 C 677.113281 189.402344 679.144531 194.988281 687.980469 191.953125 C 687.980469 191.953125 691.382812 216.199219 674.234375 226.054688 C 674.234375 226.054688 652.601562 227.355469 639.644531 255.996094 C 639.644531 255.996094 635.726562 232.777344 653.488281 205.757812 C 663.316406 190.804688 660.492188 183.976562 662.65625 158.746094 C 664.820312 133.515625 684.894531 123.335938 693.253906 121.304688 C 693.253906 121.304688 718.039062 95.332031 751.929688 132.453125 C 751.929688 132.453125 766.804688 149.632812 757.34375 199.625 C 757.34375 199.625 751.957031 220.492188 749.609375 236.261719 C 749.609375 236.261719 749.046875 242.933594 750.398438 255.097656 " fill-opacity="1" fill-rule="nonzero"/><path stroke-linecap="butt" transform="matrix(0.680221, 0, 0, 0.680623, 0.665679, 0.263932)" fill="none" stroke-linejoin="miter" d="M 1122.352049 447.800254 C 1122.352049 447.800254 1123.529286 431.55823 1116.150022 412.062062 " stroke="#006838" stroke-width="1" stroke-opacity="1" stroke-miterlimit="10"/><path stroke-linecap="butt" transform="matrix(0.680221, 0, 0, 0.680623, 0.665679, 0.263932)" fill="none" stroke-linejoin="miter" d="M 997.260608 448.890708 C 997.260608 448.890708 1011.892798 429.790547 1009.521097 405.570992 " stroke="#006838" stroke-width="1" stroke-opacity="1" stroke-miterlimit="10"/><path stroke-linecap="butt" transform="matrix(0.680221, 0, 0, 0.680623, 0.665679, 0.263932)" fill="none" stroke-linejoin="miter" d="M 1007.269991 284.857744 C 1007.269991 285.328361 1007.22405 285.798978 1007.132168 286.258116 C 1007.040286 286.722994 1006.902463 287.170654 1006.724442 287.601096 C 1006.546421 288.037278 1006.322459 288.450503 1006.064041 288.84077 C 1005.799881 289.236777 1005.501265 289.598349 1005.168193 289.931224 C 1004.835121 290.2641 1004.473336 290.56254 1004.082838 290.820805 C 1003.69234 291.08481 1003.278872 291.302901 1002.842433 291.486556 C 1002.405994 291.664472 1001.958069 291.802214 1001.49866 291.894041 C 1001.039251 291.985869 1000.568356 292.031783 1000.097461 292.031783 C 999.626567 292.031783 999.161415 291.985869 998.702005 291.894041 C 998.236853 291.802214 997.788929 291.664472 997.358233 291.486556 C 996.921794 291.302901 996.508325 291.08481 996.117827 290.820805 C 995.727329 290.56254 995.365544 290.2641 995.032473 289.931224 C 994.699401 289.598349 994.400785 289.236777 994.136624 288.84077 C 993.878206 288.450503 993.654244 288.037278 993.476223 287.601096 C 993.298202 287.170654 993.160379 286.722994 993.068497 286.258116 C 992.976615 285.798978 992.930674 285.328361 992.930674 284.857744 C 992.930674 284.387127 992.976615 283.922249 993.068497 283.463111 C 993.160379 282.998233 993.298202 282.550573 993.476223 282.114392 C 993.654244 281.683949 993.878206 281.270725 994.136624 280.874718 C 994.400785 280.48445 994.699401 280.122878 995.032473 279.790003 C 995.365544 279.457128 995.727329 279.158688 996.117827 278.900422 C 996.508325 278.636417 996.921794 278.418327 997.358233 278.234671 C 997.788929 278.056755 998.236853 277.919014 998.702005 277.827186 C 999.161415 277.735358 999.626567 277.689444 1000.097461 277.689444 C 1000.568356 277.689444 1001.039251 277.735358 1001.49866 277.827186 C 1001.958069 277.919014 1002.405994 278.056755 1002.842433 278.234671 C 1003.278872 278.418327 1003.69234 278.636417 1004.082838 278.900422 C 1004.473336 279.158688 1004.835121 279.457128 1005.168193 279.790003 C 1005.501265 280.122878 1005.799881 280.48445 1006.064041 280.874718 C 1006.322459 281.270725 1006.546421 281.683949 1006.724442 282.114392 C 1006.902463 282.550573 1007.040286 282.998233 1007.132168 283.463111 C 1007.22405 283.922249 1007.269991 284.387127 1007.269991 284.857744 Z M 1007.269991 284.857744 " stroke="#fff200" stroke-width="0.5" stroke-opacity="1" stroke-miterlimit="10"/><path stroke-linecap="butt" transform="matrix(0.680221, 0, 0, 0.680623, 0.665679, 0.263932)" fill="none" stroke-linejoin="miter" d="M 1000.189343 292.031783 L 1000.470731 315.229755 " stroke="#fff200" stroke-width="0.5" stroke-opacity="1" stroke-miterlimit="10"/><path stroke-linecap="butt" transform="matrix(0.680221, 0, 0, 0.680623, 0.665679, 0.263932)" fill="none" stroke-linejoin="miter" d="M 1005.598889 289.51226 L 1005.748197 301.909 " stroke="#fff200" stroke-width="0.5" stroke-opacity="1" stroke-miterlimit="10"/><path stroke-linecap="butt" transform="matrix(0.680221, 0, 0, 0.680623, 0.665679, 0.263932)" fill="none" stroke-linejoin="miter" d="M 1003.761251 291.050374 L 1003.950758 307.160396 " stroke="#fff200" stroke-width="0.5" stroke-opacity="1" stroke-miterlimit="10"/><path stroke-linecap="butt" transform="matrix(0.680221, 0, 0, 0.680623, 0.665679, 0.263932)" fill="none" stroke-linejoin="miter" d="M 1001.998268 291.750561 L 1002.227972 311.30986 " stroke="#fff200" stroke-width="0.5" stroke-opacity="1" stroke-miterlimit="10"/><path stroke-linecap="butt" transform="matrix(0.680221, 0, 0, 0.680623, 0.665679, 0.263932)" fill="none" stroke-linejoin="miter" d="M 996.577237 291.142202 L 996.772486 307.240745 " stroke="#fff200" stroke-width="0.5" stroke-opacity="1" stroke-miterlimit="10"/><path stroke-linecap="butt" transform="matrix(0.680221, 0, 0, 0.680623, 0.665679, 0.263932)" fill="none" stroke-linejoin="miter" d="M 998.357448 291.790735 L 998.592896 311.361513 " stroke="#fff200" stroke-width="0.5" stroke-opacity="1" stroke-miterlimit="10"/><path stroke-linecap="butt" transform="matrix(0.680221, 0, 0, 0.680623, 0.665679, 0.263932)" fill="none" stroke-linejoin="miter" d="M 994.647717 289.638524 L 994.802768 302.041002 " stroke="#fff200" stroke-width="0.5" stroke-opacity="1" stroke-miterlimit="10"/><path fill="#f05380" d="M 644.773438 403.152344 C 644.773438 403.152344 673.640625 445.539062 761.703125 423.507812 L 762.113281 414.667969 C 762.113281 414.667969 685.253906 434.691406 647.417969 395.738281 Z M 644.773438 403.152344 " fill-opacity="1" fill-rule="nonzero"/><path stroke-linecap="butt" transform="matrix(0.680221, 0, 0, 0.680623, 0.665679, 0.263932)" fill="none" stroke-linejoin="miter" d="M 951.509173 584.962138 L 954.839891 598.282893 L 970.890508 599.189692 L 979.969586 614.938142 L 996.031688 610.702589 L 1009.348818 624.631703 L 1022.981793 617.061658 L 1041.151435 628.568816 L 1051.137847 620.091972 L 1064.770822 627.059398 L 1077.192104 617.968456 L 1092.639745 624.631703 L 1102.01744 616.14912 L 1112.02108 621.29721 L 1116.862106 613.428724 " stroke="#ffffff" stroke-width="1" stroke-opacity="1" stroke-miterlimit="10"/><path stroke-linecap="butt" transform="matrix(0.680221, 0, 0, 0.680623, 0.665679, 0.263932)" fill="none" stroke-linejoin="miter" d="M 1110.20067 615.242321 L 1103.539233 622.209748 L 1090.819335 617.061658 L 1077.49072 626.1526 L 1061.738719 619.179434 L 1051.752307 627.960457 L 1039.939743 620.091972 L 1023.280409 627.357838 L 1009.647435 615.242321 L 993.912662 620.091972 L 983.001689 607.069656 L 966.652456 606.759738 L 959.680918 592.228005 L 949.390147 591.929565 " stroke="#ffffff" stroke-width="1" stroke-opacity="1" stroke-miterlimit="10"/><path fill="#f05380" d="M 692.84375 269.574219 L 692.84375 278.359375 C 692.84375 278.359375 730.605469 303.84375 754.015625 289.488281 L 751.675781 279.824219 C 751.675781 279.824219 743.1875 297.6875 692.84375 269.574219 Z M 692.84375 269.574219 " fill-opacity="1" fill-rule="nonzero"/><path stroke-linecap="butt" transform="matrix(0.680221, 0, 0, 0.680623, 0.665679, 0.263932)" fill="none" stroke-linejoin="miter" d="M 1020.770885 401.209176 L 1024.227941 409.9902 L 1030.498879 406.540922 L 1040.542718 417.210152 L 1048.071289 413.439477 L 1062.192386 425.35986 L 1073.172271 419.718196 L 1086.340094 429.440454 L 1093.248463 421.290746 L 1104.538449 424.418627 " stroke="#ffffff" stroke-width="1" stroke-opacity="1" stroke-miterlimit="10"/><path stroke-linecap="butt" transform="matrix(0.680221, 0, 0, 0.680623, 0.665679, 0.263932)" fill="none" stroke-linejoin="miter" d="M 1102.028925 418.151386 L 1095.757987 427.248067 L 1086.029992 422.23198 L 1072.850685 426.312573 L 1062.812589 417.520071 L 1049.007336 420.65943 L 1040.232616 410.931433 L 1030.808981 414.070793 L 1025.789933 404.342796 L 1019.829096 407.482156 " stroke="#ffffff" stroke-width="1" stroke-opacity="1" stroke-miterlimit="10"/><path fill="#f05380" d="M 632.597656 282.941406 C 632.597656 282.941406 650.359375 304.265625 681.308594 307.054688 L 682.832031 301.976562 C 682.832031 301.976562 640.46875 286.492188 633.617188 275.070312 L 632.605469 282.941406 Z M 632.597656 282.941406 " fill-opacity="1" fill-rule="nonzero"/><path stroke-linecap="butt" transform="matrix(0.680221, 0, 0, 0.680623, 0.665679, 0.263932)" fill="none" stroke-linejoin="miter" d="M 932.357543 410.851084 L 937.210055 420.171596 L 949.889755 421.658056 L 954.742267 432.482246 L 964.062535 429.870896 L 970.781398 439.937507 L 981.968017 436.580057 L 987.928854 445.527519 L 995.767528 442.921908 " stroke="#ffffff" stroke-width="1" stroke-opacity="1" stroke-miterlimit="10"/><path stroke-linecap="butt" transform="matrix(0.680221, 0, 0, 0.680623, 0.665679, 0.263932)" fill="none" stroke-linejoin="miter" d="M 994.027514 446.979544 L 988.732821 440.482734 L 978.861261 443.369568 L 972.107943 433.727659 L 963.201143 436.379184 L 957.177137 426.019872 L 946.817455 427.707206 L 941.522761 416.871538 L 931.398526 416.377964 " stroke="#ffffff" stroke-width="1" stroke-opacity="1" stroke-miterlimit="10"/><path fill="#f05380" d="M 771.042969 295.496094 L 769.878906 292.148438 L 764.261719 296.832031 L 764.648438 305.542969 Z M 771.042969 295.496094 " fill-opacity="1" fill-rule="nonzero"/><path fill="#be9e7d" d="M 634.222656 283.660156 L 628.089844 345.421875 C 628.089844 345.421875 627.109375 359.277344 632.699219 370.230469 C 640.441406 385.378906 662.003906 384.347656 662.003906 384.347656 C 662.003906 384.347656 724.945312 382.183594 731.398438 383.953125 C 738.789062 385.972656 746.554688 384.269531 746.554688 384.269531 C 746.554688 384.269531 765.1875 379.539062 773.738281 360.886719 C 773.738281 360.886719 770.613281 356.890625 763.667969 363.417969 C 763.667969 363.417969 755.820312 370.9375 745.507812 367.335938 C 745.507812 367.335938 741.929688 363.949219 748.261719 363.714844 C 754.601562 363.484375 764.035156 364.289062 763.785156 358.15625 C 763.535156 352.023438 749.390625 355.773438 749.390625 355.773438 L 735.480469 355.738281 C 735.480469 355.738281 723.910156 355.433594 720.695312 363.035156 L 714.027344 363.035156 C 714.027344 363.035156 680.558594 344.394531 667.96875 344.746094 C 667.96875 344.746094 676.226562 322.347656 680.136719 307.011719 C 680.136719 307.011719 651.71875 303.046875 634.222656 283.667969 Z M 634.222656 283.660156 " fill-opacity="1" fill-rule="nonzero"/><path fill="#fbb040" d="M 666.984375 341.664062 C 666.984375 341.664062 690.785156 373.441406 688.75 391.308594 C 688.75 391.308594 689.96875 406.332031 687.53125 414.449219 C 685.097656 422.570312 680.226562 446.121094 685.90625 456.675781 C 685.90625 456.675781 698.890625 462.359375 709.441406 455.457031 C 719.992188 448.554688 735.816406 456.675781 735.816406 456.675781 C 735.816406 456.675781 748.390625 458.703125 751.636719 456.265625 C 751.636719 456.265625 756.910156 436.371094 748.792969 426.226562 C 740.679688 416.078125 739.460938 373.851562 739.460938 373.851562 C 739.460938 373.851562 737.835938 347.863281 726.066406 342.179688 C 714.300781 336.5 691.316406 337.601562 666.96875 341.664062 Z M 666.984375 341.664062 " fill-opacity="1" fill-rule="nonzero"/><path stroke-linecap="butt" transform="matrix(0.680221, 0, 0, 0.680623, 0.665679, 0.263932)" fill="none" stroke-linejoin="miter" d="M 1030.297888 528.178186 C 1030.297888 528.178186 1043.419769 570.527972 1030.900863 609.307956 C 1018.381956 648.087941 1035.667235 652.857242 1035.667235 652.857242 " stroke="#2b3990" stroke-width="0.8" stroke-opacity="1" stroke-miterlimit="10"/><path stroke-linecap="butt" transform="matrix(0.680221, 0, 0, 0.680623, 0.665679, 0.263932)" fill="none" stroke-linejoin="miter" d="M 1065.488649 586.637993 C 1065.488649 586.637993 1064.299927 645.097801 1088.751993 657.632282 " stroke="#2b3990" stroke-width="0.8" stroke-opacity="1" stroke-miterlimit="10"/><path stroke-linecap="butt" transform="matrix(0.680221, 0, 0, 0.680623, 0.665679, 0.263932)" fill="none" stroke-linejoin="miter" d="M 1057.138883 524.602645 C 1057.138883 524.602645 1072.649693 546.078847 1070.260764 561.580511 " stroke="#2b3990" stroke-width="0.8" stroke-opacity="1" stroke-miterlimit="10"/><path fill="#a97c50" d="M 606.503906 557.15625 L 2.441406 557.15625 L 2.441406 605.113281 L 669.730469 605.113281 Z M 606.503906 557.15625 " fill-opacity="1" fill-rule="nonzero"/><path fill="#754c29" d="M 2.441406 604.914062 L 669.730469 604.914062 L 669.730469 640.648438 L 2.441406 640.648438 Z M 2.441406 604.914062 " fill-opacity="1" fill-rule="nonzero"/><g clip-path="url(#a4028d5ce2)"><path stroke-linecap="butt" transform="matrix(0.680221, 0, 0, 0.680623, 0.665679, 0.263932)" fill-opacity="1" fill="#754c29" fill-rule="nonzero" stroke-linejoin="miter" d="M 2.610514 940.679681 L 926.959483 940.679681 L 926.959483 1001.090828 L 2.610514 1001.090828 Z M 2.610514 940.679681 " stroke="#8b5e3c" stroke-width="1" stroke-opacity="1" stroke-miterlimit="10"/></g><path fill="#1c75bc" d="M 408.425781 549.320312 L 555.027344 549.320312 L 555.027344 571.753906 L 408.425781 571.753906 Z M 408.425781 549.320312 " fill-opacity="1" fill-rule="nonzero"/><path fill="#1c75bc" d="M 408.371094 550.957031 L 377.949219 542.523438 L 378.242188 540.691406 L 512.769531 540.691406 L 555.027344 549.320312 " fill-opacity="1" fill-rule="nonzero"/><path fill="#1c75bc" d="M 408.425781 571.753906 L 380.386719 557.300781 L 380.523438 555.257812 L 385.417969 555.394531 L 408.417969 567.917969 Z M 408.425781 571.753906 " fill-opacity="1" fill-rule="nonzero"/><path fill="#ffffff" d="M 408.417969 567.917969 L 385.472656 555.292969 L 385.472656 544.570312 L 408.371094 550.957031 Z M 408.417969 567.917969 " fill-opacity="1" fill-rule="nonzero"/><path stroke-linecap="butt" transform="matrix(0.680221, 0, 0, 0.680623, 0.665679, 0.263932)" fill="none" stroke-linejoin="miter" d="M 599.371858 809.102069 L 810.90118 809.102069 " stroke="#231f20" stroke-width="2" stroke-opacity="1" stroke-miterlimit="10"/><path stroke-linecap="butt" transform="matrix(0.680221, 0, 0, 0.680623, 0.665679, 0.263932)" fill="none" stroke-linejoin="miter" d="M 608.382025 816.098192 L 608.382025 828.391625 " stroke="#231f20" stroke-width="2" stroke-opacity="1" stroke-miterlimit="10"/><path stroke-linecap="butt" transform="matrix(0.680221, 0, 0, 0.680623, 0.665679, 0.263932)" fill="none" stroke-linejoin="miter" d="M 613.291963 812.097948 L 613.291963 828.391625 " stroke="#231f20" stroke-width="2" stroke-opacity="1" stroke-miterlimit="10"/><path fill="#ffffff" d="M 222.507812 567.820312 L 266.285156 590.722656 L 420.109375 590.722656 L 376.738281 567.019531 Z M 222.507812 567.820312 " fill-opacity="1" fill-rule="nonzero"/><path stroke-linecap="butt" transform="matrix(0.680221, 0, 0, 0.680623, 0.665679, 0.263932)" fill-opacity="1" fill="#be9e7d" fill-rule="nonzero" stroke-linejoin="miter" d="M 431.561084 612.619493 C 431.561084 612.619493 425.73807 688.170731 467.917596 745.982006 C 510.097123 803.787541 722.200707 633.992389 722.200707 633.992389 L 747.169609 616.809131 L 792.708567 621.641564 L 857.858564 611.529039 L 890.551287 581.897389 C 906.452595 571.319986 897.758272 563.480196 897.758272 563.480196 C 887.668493 556.128241 882.28766 564.300906 872.289762 569.230906 C 856.922518 576.800951 843.668556 587.252091 843.668556 587.252091 C 843.668556 587.252091 847.510367 585.002313 837.357419 580.078052 C 824.867226 574.017424 825.131386 577.650358 825.131386 577.650358 L 806.841149 560.059614 C 816.75865 556.202851 828.829632 549.132118 828.829632 549.132118 C 840.200015 532.809745 819.911347 534.169943 819.911347 534.169943 L 786.058615 545.619709 C 734.93209 545.022829 723.751214 572.427657 723.751214 572.427657 C 718.30147 572.599834 704.582356 574.258472 698.759342 574.631522 C 698.759342 574.631522 609.168763 604.13117 574.678602 617.612624 C 574.678602 617.612624 534.158691 566.992605 534.187404 554.11951 " stroke="#754c29" stroke-width="0.5" stroke-opacity="1" stroke-miterlimit="10"/><path stroke-linecap="butt" transform="matrix(0.680221, 0, 0, 0.680623, 0.665679, 0.263932)" fill-opacity="1" fill="#be9e7d" fill-rule="nonzero" stroke-linejoin="miter" d="M 798.198509 553.918637 C 798.198509 553.918637 803.590827 556.839906 806.800951 560.197356 " stroke="#603913" stroke-width="1" stroke-opacity="1" stroke-miterlimit="10"/><path stroke-linecap="butt" transform="matrix(0.680221, 0, 0, 0.680623, 0.665679, 0.263932)" fill-opacity="1" fill="#be9e7d" fill-rule="nonzero" stroke-linejoin="miter" d="M 762.772301 597.232614 C 762.772301 597.232614 785.759999 580.709368 796.429783 581.541556 C 796.429783 581.541556 800.960708 582.339309 808.052841 575.050486 C 814.800417 568.111756 817.671726 558.567414 824.752373 562.280697 C 835.008689 567.652617 825.108416 577.661836 825.108416 577.661836 L 804.308654 600.681892 " stroke="#603913" stroke-width="1" stroke-opacity="1" stroke-miterlimit="10"/><path stroke-linecap="butt" transform="matrix(0.680221, 0, 0, 0.680623, 0.665679, 0.263932)" fill-opacity="1" fill="#be9e7d" fill-rule="nonzero" stroke-linejoin="miter" d="M 723.739729 572.427657 C 723.739729 572.427657 725.112214 584.112732 735.581006 593.53081 " stroke="#603913" stroke-width="1" stroke-opacity="1" stroke-miterlimit="10"/><path stroke-linecap="butt" transform="matrix(0.680221, 0, 0, 0.680623, 0.665679, 0.263932)" fill-opacity="1" fill="#be9e7d" fill-rule="nonzero" stroke-linejoin="miter" d="M 819.130351 584.238995 L 828.209429 575.090661 L 831.528662 559.921873 C 831.528662 559.921873 833.641946 552.380523 841.54953 553.017578 C 850.370191 553.740721 848.991963 564.128729 848.991963 564.128729 L 842.922016 584.0496 L 825.269209 604.377957 " stroke="#603913" stroke-width="1" stroke-opacity="1" stroke-miterlimit="10"/><path stroke-linecap="butt" transform="matrix(0.680221, 0, 0, 0.680623, 0.665679, 0.263932)" fill-opacity="1" fill="#be9e7d" fill-rule="nonzero" stroke-linejoin="miter" d="M 842.927758 584.061079 L 848.429186 579.659088 L 851.748419 564.490301 C 851.748419 564.490301 853.861702 556.948951 861.769287 557.591745 C 870.589948 558.309149 869.211719 568.697157 869.211719 568.697157 L 863.141772 588.618028 L 845.488966 608.952124 " stroke="#603913" stroke-width="1" stroke-opacity="1" stroke-miterlimit="10"/><path fill="#be9e7d" d="M 156.652344 179.933594 C 156.652344 179.933594 165.035156 206.492188 151.496094 232.453125 C 151.496094 232.453125 148.117188 327.242188 220.296875 334.578125 C 220.296875 334.578125 270.644531 297.660156 249.421875 236.847656 L 156.660156 179.941406 Z M 156.652344 179.933594 " fill-opacity="1" fill-rule="nonzero"/><path fill="#be9e7d" d="M 274.175781 68.964844 C 274.175781 68.964844 290.929688 84.777344 286.625 126.453125 C 286.625 126.453125 282.792969 136.988281 284.707031 148.964844 C 284.707031 148.964844 290.046875 170.039062 284.398438 188.039062 C 276.726562 212.503906 264.121094 222.738281 264.121094 222.738281 C 264.121094 222.738281 254.542969 232.320312 241.621094 229.925781 C 241.621094 229.925781 221.988281 236.628906 204.753906 225.617188 C 187.515625 214.597656 157.832031 180.105469 157.832031 180.105469 C 157.832031 180.105469 142.027344 184.414062 137.242188 168.125 C 132.453125 151.839844 125.269531 139.382812 135.320312 129.800781 C 145.375 120.21875 157.824219 146.5625 157.824219 146.5625 C 157.824219 146.5625 162.542969 138.238281 160.625 126.269531 C 160.625 126.269531 157.539062 102.417969 171.707031 74.226562 C 171.707031 74.226562 216.125 54.929688 274.164062 68.960938 Z M 274.175781 68.964844 " fill-opacity="1" fill-rule="nonzero"/><path fill="#ae8578" d="M 220.058594 185.753906 C 220.058594 185.753906 231.355469 182.261719 244.824219 186.085938 C 244.824219 186.085938 256.457031 183.757812 266.929688 186.085938 C 266.929688 186.085938 265.769531 204.878906 248.152344 209.039062 C 230.53125 213.195312 219.730469 196.734375 220.0625 185.753906 Z M 220.058594 185.753906 " fill-opacity="1" fill-rule="nonzero"/><path fill="#803435" d="M 222.886719 187.082031 C 222.886719 187.082031 222.722656 203.707031 244.328125 203.707031 C 263.953125 203.707031 264.109375 188.90625 264.109375 188.90625 C 264.109375 188.90625 242 189.90625 222.886719 187.074219 Z M 222.886719 187.082031 " fill-opacity="1" fill-rule="nonzero"/><path fill="#231f20" d="M 229.335938 122.101562 C 229.335938 122.101562 207.351562 113.242188 188.039062 124.117188 C 188.039062 124.117188 197.550781 103.976562 229.925781 113.242188 C 229.925781 113.242188 235.273438 118.882812 229.335938 122.101562 Z M 229.335938 122.101562 " fill-opacity="1" fill-rule="nonzero"/><path fill="#231f20" d="M 286.128906 119.421875 C 270.773438 116.378906 263.3125 122.539062 263.3125 122.539062 C 257.53125 119.449219 262.734375 114.042969 262.734375 114.042969 C 272.550781 111.273438 280.203125 111.246094 286.09375 112.511719 C 286.09375 112.511719 286.964844 119.582031 286.128906 119.421875 Z M 286.128906 119.421875 " fill-opacity="1" fill-rule="nonzero"/><path fill="#ffffff" d="M 225.558594 187.320312 C 225.558594 187.320312 230.914062 195.023438 247.632812 194.214844 C 247.632812 194.214844 257.945312 194.730469 262.265625 189.246094 C 262.265625 189.246094 240.714844 189.714844 225.554688 187.320312 Z M 225.558594 187.320312 " fill-opacity="1" fill-rule="nonzero"/><path fill="#26130f" d="M 240.335938 231.191406 C 240.335938 231.191406 216.355469 234.847656 206.269531 226.40625 C 206.269531 226.40625 194.527344 220.453125 180.800781 205.0625 C 180.800781 205.0625 197.515625 232.601562 219.664062 235.179688 C 219.664062 235.179688 230.082031 237 240.335938 231.191406 C 240.335938 231.191406 239.917969 233.582031 240.335938 231.191406 Z M 240.335938 231.191406 " fill-opacity="1" fill-rule="nonzero"/><path stroke-linecap="butt" transform="matrix(0.680221, 0, 0, 0.680623, 0.665679, 0.263932)" fill="none" stroke-linejoin="miter" d="M 198.761106 225.158262 C 198.761106 225.158262 208.827915 198.430663 229.357773 241.428982 C 229.357773 241.428982 211.928929 222.449345 208.827915 238.720065 " stroke="#231f20" stroke-width="1" stroke-opacity="1" stroke-miterlimit="10"/><path stroke-linecap="butt" transform="matrix(0.680221, 0, 0, 0.680623, 0.665679, 0.263932)" fill="none" stroke-linejoin="miter" d="M 385.907274 227.241603 C 385.907274 227.241603 401.888978 250.990541 374.03154 253.802765 " stroke="#231f20" stroke-width="1" stroke-opacity="1" stroke-miterlimit="10"/><path fill="#ffffff" d="M 205.140625 134.414062 C 205.140625 134.414062 205.113281 133.835938 205.519531 133.339844 C 206.882812 131.691406 210.03125 128.59375 215.167969 128.40625 C 220.914062 128.1875 224.28125 133.476562 225.4375 135.359375 C 225.636719 135.6875 225.628906 135.980469 225.628906 135.980469 C 225.628906 135.980469 225.664062 136.300781 225.472656 136.53125 C 224.59375 137.632812 221.640625 140.71875 216.207031 141.011719 C 212.96875 141.179688 208.351562 139.609375 205.371094 135.3125 C 205.167969 135.011719 205.132812 134.625 205.132812 134.414062 Z M 205.140625 134.414062 " fill-opacity="1" fill-rule="nonzero"/><path fill="#26130f" d="M 222.988281 134.988281 C 222.988281 131.699219 220.324219 129.03125 217.039062 129.03125 C 213.75 129.03125 211.085938 131.699219 211.085938 134.988281 C 211.085938 138.273438 213.75 140.941406 217.039062 140.941406 C 220.324219 140.941406 222.988281 138.273438 222.988281 134.988281 Z M 222.988281 134.988281 " fill-opacity="1" fill-rule="nonzero"/><path fill="#ffffff" d="M 214.875 133.917969 C 214.875 134.132812 214.832031 134.34375 214.75 134.542969 C 214.667969 134.742188 214.550781 134.917969 214.394531 135.074219 C 214.242188 135.226562 214.066406 135.34375 213.867188 135.425781 C 213.667969 135.511719 213.457031 135.550781 213.242188 135.550781 C 213.023438 135.550781 212.816406 135.511719 212.617188 135.425781 C 212.417969 135.34375 212.242188 135.226562 212.085938 135.074219 C 211.933594 134.917969 211.816406 134.742188 211.734375 134.542969 C 211.652344 134.34375 211.609375 134.132812 211.609375 133.917969 C 211.609375 133.699219 211.652344 133.492188 211.734375 133.292969 C 211.816406 133.09375 211.933594 132.914062 212.085938 132.761719 C 212.242188 132.609375 212.417969 132.492188 212.617188 132.410156 C 212.816406 132.324219 213.023438 132.285156 213.242188 132.285156 C 213.457031 132.285156 213.667969 132.324219 213.867188 132.410156 C 214.066406 132.492188 214.242188 132.609375 214.394531 132.761719 C 214.550781 132.914062 214.667969 133.09375 214.75 133.292969 C 214.832031 133.492188 214.875 133.699219 214.875 133.917969 Z M 214.875 133.917969 " fill-opacity="1" fill-rule="nonzero"/><path stroke-linecap="butt" transform="matrix(0.680221, 0, 0, 0.680623, 0.665679, 0.263932)" fill="none" stroke-linejoin="miter" d="M 330.961908 198.488055 C 330.961908 198.488055 319.918854 178.699186 300.830393 195.457741 " stroke="#231f20" stroke-width="1.2" stroke-opacity="1" stroke-miterlimit="10"/><path fill="#ffffff" d="M 264.140625 136.789062 C 264.140625 136.789062 264.035156 136.257812 264.347656 135.734375 C 265.375 134.011719 267.863281 130.679688 272.609375 129.765625 C 277.921875 128.746094 281.816406 133.175781 283.15625 134.769531 C 283.386719 135.039062 283.421875 135.3125 283.421875 135.3125 C 283.421875 135.3125 283.496094 135.605469 283.359375 135.851562 C 282.699219 137 280.398438 140.296875 275.378906 141.335938 C 272.394531 141.957031 267.875 141.152344 264.488281 137.585938 C 264.25 137.339844 264.167969 136.980469 264.140625 136.78125 Z M 264.140625 136.789062 " fill-opacity="1" fill-rule="nonzero"/><path fill="#26130f" d="M 280.871094 135.613281 C 280.871094 135.980469 280.832031 136.34375 280.761719 136.703125 C 280.691406 137.0625 280.585938 137.410156 280.445312 137.75 C 280.304688 138.085938 280.132812 138.410156 279.929688 138.714844 C 279.726562 139.019531 279.496094 139.300781 279.234375 139.558594 C 278.976562 139.816406 278.695312 140.050781 278.390625 140.253906 C 278.085938 140.457031 277.765625 140.628906 277.425781 140.769531 C 277.085938 140.910156 276.738281 141.015625 276.378906 141.085938 C 276.019531 141.15625 275.65625 141.195312 275.292969 141.195312 C 274.925781 141.195312 274.5625 141.15625 274.203125 141.085938 C 273.84375 141.015625 273.496094 140.910156 273.15625 140.769531 C 272.820312 140.628906 272.496094 140.457031 272.191406 140.253906 C 271.886719 140.050781 271.605469 139.816406 271.347656 139.558594 C 271.089844 139.300781 270.855469 139.019531 270.652344 138.714844 C 270.449219 138.410156 270.277344 138.085938 270.136719 137.75 C 269.996094 137.410156 269.890625 137.0625 269.820312 136.703125 C 269.75 136.34375 269.714844 135.980469 269.714844 135.613281 C 269.714844 135.246094 269.75 134.882812 269.820312 134.523438 C 269.890625 134.164062 269.996094 133.816406 270.136719 133.476562 C 270.277344 133.136719 270.449219 132.816406 270.652344 132.511719 C 270.855469 132.207031 271.089844 131.925781 271.347656 131.667969 C 271.605469 131.40625 271.886719 131.175781 272.191406 130.972656 C 272.496094 130.769531 272.820312 130.597656 273.15625 130.457031 C 273.496094 130.316406 273.84375 130.210938 274.203125 130.136719 C 274.5625 130.066406 274.925781 130.03125 275.292969 130.03125 C 275.65625 130.03125 276.019531 130.066406 276.378906 130.136719 C 276.738281 130.210938 277.085938 130.316406 277.425781 130.457031 C 277.765625 130.597656 278.085938 130.769531 278.390625 130.972656 C 278.695312 131.175781 278.976562 131.40625 279.234375 131.667969 C 279.496094 131.925781 279.726562 132.207031 279.929688 132.511719 C 280.132812 132.816406 280.304688 133.136719 280.445312 133.476562 C 280.585938 133.816406 280.691406 134.164062 280.761719 134.523438 C 280.832031 134.882812 280.871094 135.246094 280.871094 135.613281 Z M 280.871094 135.613281 " fill-opacity="1" fill-rule="nonzero"/><path fill="#ffffff" d="M 273.003906 135.285156 C 273.003906 135.492188 272.964844 135.691406 272.886719 135.886719 C 272.808594 136.078125 272.695312 136.246094 272.546875 136.394531 C 272.402344 136.539062 272.230469 136.652344 272.039062 136.730469 C 271.847656 136.8125 271.648438 136.851562 271.441406 136.851562 C 271.234375 136.851562 271.035156 136.8125 270.84375 136.730469 C 270.652344 136.652344 270.480469 136.539062 270.335938 136.394531 C 270.1875 136.246094 270.074219 136.078125 269.996094 135.886719 C 269.917969 135.691406 269.875 135.492188 269.875 135.285156 C 269.875 135.078125 269.917969 134.878906 269.996094 134.6875 C 270.074219 134.496094 270.1875 134.324219 270.335938 134.179688 C 270.480469 134.03125 270.652344 133.917969 270.84375 133.839844 C 271.035156 133.761719 271.234375 133.71875 271.441406 133.71875 C 271.648438 133.71875 271.847656 133.761719 272.039062 133.839844 C 272.230469 133.917969 272.402344 134.03125 272.546875 134.179688 C 272.695312 134.324219 272.808594 134.496094 272.886719 134.6875 C 272.964844 134.878906 273.003906 135.078125 273.003906 135.285156 Z M 273.003906 135.285156 " fill-opacity="1" fill-rule="nonzero"/><path stroke-linecap="butt" transform="matrix(0.680221, 0, 0, 0.680623, 0.665679, 0.263932)" fill="none" stroke-linejoin="miter" d="M 415.470269 197.862479 C 415.470269 197.862479 402.761856 179.812597 387.452038 199.400593 " stroke="#231f20" stroke-width="1.2" stroke-opacity="1" stroke-miterlimit="10"/><path fill="#231f20" d="M 172.351562 76.746094 C 172.351562 76.746094 195.289062 61.253906 208.582031 78.792969 C 225.902344 101.636719 238.015625 79.066406 252.109375 91.65625 C 252.109375 91.65625 265.734375 62.828125 282.679688 82.699219 C 282.679688 82.699219 292.636719 49.914062 255.328125 27.347656 C 255.328125 27.347656 213.464844 2.585938 172.0625 31.015625 C 172.0625 31.015625 131.710938 38.617188 133.296875 76.730469 C 133.296875 76.730469 155.257812 55.855469 172.359375 76.746094 Z M 172.351562 76.746094 " fill-opacity="1" fill-rule="nonzero"/><g clip-path="url(#09cd82cee0)"><g clip-path="url(#35c1576ad7)"><path fill="url(#0014cb4ccc)" d="M 116.179688 55.175781 L 116.179688 161.082031 L 178.210938 161.082031 L 178.210938 55.175781 Z M 116.179688 55.175781 " fill-rule="nonzero"/></g></g><path fill="#ffffff" d="M 325.816406 556.46875 C 323.8125 500.46875 323.070312 457.445312 323.769531 418.296875 C 323.769531 418.296875 361.957031 385.652344 372.003906 362.519531 L 328.960938 308.523438 C 328.960938 308.523438 313.878906 251.1875 246.53125 235.097656 C 246.53125 235.097656 241.238281 277.480469 206.050781 285.535156 C 206.050781 285.535156 173.984375 278.578125 152.871094 225.269531 C 152.871094 225.269531 96.691406 244.75 62.972656 288.371094 C 27.5 334.257812 27.644531 420.277344 27.644531 420.277344 C 27.644531 420.277344 68.457031 477.246094 113.828125 461.195312 C 113.828125 461.195312 95.679688 505.648438 81.089844 556.367188 " fill-opacity="1" fill-rule="nonzero"/><path stroke-linecap="butt" transform="matrix(0.680221, 0, 0, 0.680623, 0.665679, 0.263932)" fill="none" stroke-linejoin="miter" d="M 167.888794 676.921838 C 167.888794 676.921838 192.421256 621.038945 193.770771 568.490545 " stroke="#231f20" stroke-width="1" stroke-opacity="1" stroke-miterlimit="10"/><path stroke-linecap="butt" transform="matrix(0.680221, 0, 0, 0.680623, 0.665679, 0.263932)" fill="none" stroke-linejoin="miter" d="M 474.998244 614.192042 L 467.251453 525.538139 " stroke="#231f20" stroke-width="1" stroke-opacity="1" stroke-miterlimit="10"/><path fill="#f1f2f2" d="M 246.914062 232.914062 C 246.914062 232.914062 285.683594 246.167969 260.082031 311.558594 L 208.492188 284.253906 L 167.347656 314.699219 C 167.347656 314.699219 134.300781 260.671875 143.109375 239.707031 C 143.109375 239.707031 147.988281 219.050781 156.335938 223.652344 C 156.335938 223.652344 163.539062 271.097656 206.507812 280.621094 C 206.507812 280.621094 248.667969 267.613281 245.730469 234.078125 L 246.914062 232.90625 Z M 246.914062 232.914062 " fill-opacity="1" fill-rule="nonzero"/><path fill="#f7941d" d="M 321.792969 590.859375 L 362.339844 461.332031 L 363.351562 446.859375 L 354.484375 457.425781 L 313.933594 586.953125 C 313.933594 586.953125 312.839844 595.476562 321.792969 590.859375 Z M 321.792969 590.859375 " fill-opacity="1" fill-rule="nonzero"/><path fill="#be9e7d" d="M 33.875 426.253906 C 33.875 426.253906 35.949219 490.15625 50.320312 530.222656 C 64.695312 570.292969 245.394531 567.71875 245.394531 567.71875 C 257.824219 570.542969 284.394531 580.332031 284.394531 580.332031 C 284.394531 580.332031 334.730469 582.375 339.945312 580.554688 C 345.164062 578.738281 343.347656 568.984375 343.347656 568.984375 L 349.246094 568.53125 C 359.671875 558.320312 351.285156 552.195312 351.285156 552.195312 L 340.625 549.472656 L 353.550781 549.246094 C 366.019531 543.347656 356.953125 532.230469 356.953125 532.230469 C 365.570312 525.425781 356.726562 517.257812 356.726562 517.257812 L 314.953125 510.160156 L 259.777344 523.539062 C 259.777344 523.539062 140.675781 485.527344 118.601562 485.015625 C 118.601562 485.015625 115.886719 477.101562 113.835938 461.175781 C 113.835938 461.175781 59.59375 457.390625 33.878906 426.246094 Z M 33.875 426.253906 " fill-opacity="1" fill-rule="nonzero"/><path stroke-linecap="butt" transform="matrix(0.680221, 0, 0, 0.680623, 0.665679, 0.263932)" fill="none" stroke-linejoin="miter" d="M 523.781781 781.599674 L 477.932722 774.150152 " stroke="#603913" stroke-width="1" stroke-opacity="1" stroke-miterlimit="10"/><path stroke-linecap="butt" transform="matrix(0.680221, 0, 0, 0.680623, 0.665679, 0.263932)" fill="none" stroke-linejoin="miter" d="M 499.777639 806.93264 L 476.749742 803.678496 " stroke="#603913" stroke-width="1" stroke-opacity="1" stroke-miterlimit="10"/><path stroke-linecap="butt" transform="matrix(0.680221, 0, 0, 0.680623, 0.665679, 0.263932)" fill="none" stroke-linejoin="miter" d="M 503.780244 835.600099 L 472.017825 828.489192 " stroke="#603913" stroke-width="1" stroke-opacity="1" stroke-miterlimit="10"/><g clip-path="url(#223e0a53b9)"><path stroke-linecap="butt" transform="matrix(0.680221, 0, 0, 0.680623, 0.665679, 0.263932)" fill="none" stroke-linejoin="miter" d="M 1080.637674 145.451821 C 1080.637674 145.451821 1162.877702 274.297559 1333.927312 246.89273 " stroke="#231f20" stroke-width="1" stroke-opacity="1" stroke-miterlimit="10"/></g><g clip-path="url(#16fe9461a1)"><path fill="#9054a2" d="M 865.042969 213.496094 C 864.292969 206.875 870.75 189.96875 870.75 189.96875 C 870.75 189.96875 876.273438 174.828125 884 169.9375 C 891.726562 165.035156 904.222656 163.082031 904.222656 163.082031 C 904.222656 163.082031 903.277344 180.023438 921.316406 183.148438 C 939.355469 186.269531 942.832031 165.191406 942.832031 165.191406 C 942.832031 165.191406 958.089844 171.746094 961.0625 175.503906 C 964.035156 179.261719 969.054688 191.785156 969.335938 195.222656 C 969.445312 196.554688 972.730469 206.59375 976.464844 218.574219 C 976.464844 218.574219 971.988281 232.371094 958.511719 236.121094 C 958.511719 236.121094 955.144531 286.378906 958.457031 289.472656 C 958.457031 289.472656 888.109375 292.855469 881.144531 288.289062 C 881.144531 288.289062 884.46875 229.632812 883.523438 233.8125 C 883.523438 233.8125 867.527344 235.414062 865.042969 213.503906 Z M 865.042969 213.496094 " fill-opacity="1" fill-rule="nonzero"/></g><path fill="#00aeef" d="M 890.515625 154.464844 L 891.484375 154.464844 C 891.808594 154.464844 892.121094 154.527344 892.421875 154.652344 C 892.71875 154.777344 892.984375 154.953125 893.214844 155.183594 C 893.445312 155.414062 893.621094 155.679688 893.746094 155.976562 C 893.871094 156.277344 893.933594 156.589844 893.933594 156.914062 L 893.933594 171.945312 C 893.933594 172.269531 893.871094 172.582031 893.746094 172.882812 C 893.621094 173.183594 893.445312 173.445312 893.214844 173.675781 C 892.984375 173.90625 892.71875 174.082031 892.421875 174.207031 C 892.121094 174.332031 891.808594 174.394531 891.484375 174.394531 L 890.515625 174.394531 C 890.191406 174.394531 889.878906 174.332031 889.582031 174.207031 C 889.28125 174.082031 889.015625 173.90625 888.785156 173.675781 C 888.554688 173.445312 888.378906 173.183594 888.253906 172.882812 C 888.128906 172.582031 888.070312 172.269531 888.070312 171.945312 L 888.070312 156.914062 C 888.070312 156.589844 888.128906 156.277344 888.253906 155.976562 C 888.378906 155.679688 888.554688 155.414062 888.785156 155.183594 C 889.015625 154.953125 889.28125 154.777344 889.582031 154.652344 C 889.878906 154.527344 890.191406 154.464844 890.515625 154.464844 Z M 890.515625 154.464844 " fill-opacity="1" fill-rule="nonzero"/></svg>