<?xml version="1.0" encoding="UTF-8"?>
<svg xmlns="http://www.w3.org/2000/svg" viewBox="0 0 1333.56 999.05">
  <defs>
    <style>
      .cls-1, .cls-2, .cls-3 {
        stroke-width: .8px;
      }

      .cls-1, .cls-2, .cls-3, .cls-4, .cls-5, .cls-6, .cls-7, .cls-8, .cls-9, .cls-10, .cls-11, .cls-12, .cls-13, .cls-14, .cls-15, .cls-16 {
        stroke-miterlimit: 10;
      }

      .cls-1, .cls-2, .cls-3, .cls-5, .cls-6, .cls-7, .cls-11, .cls-12, .cls-13, .cls-14, .cls-15, .cls-16 {
        fill: none;
      }

      .cls-1, .cls-13 {
        stroke: #754c29;
      }

      .cls-2 {
        stroke: #92278f;
      }

      .cls-3, .cls-7, .cls-14 {
        stroke: #231f20;
      }

      .cls-17, .cls-10 {
        fill: #f7daa6;
      }

      .cls-18 {
        fill: #f7d9a4;
      }

      .cls-19 {
        fill: #ed9525;
      }

      .cls-20 {
        fill: #ec6b8a;
      }

      .cls-21, .cls-4 {
        fill: #e6e7e8;
      }

      .cls-22 {
        fill: #e974aa;
      }

      .cls-23 {
        fill: #fff;
      }

      .cls-24 {
        fill: #ffebda;
      }

      .cls-25 {
        fill: #803435;
      }

      .cls-26 {
        fill: #87664d;
      }

      .cls-27 {
        fill: #b56e5b;
      }

      .cls-28 {
        fill: #8b5e3c;
      }

      .cls-29, .cls-8 {
        fill: #9054a2;
      }

      .cls-30 {
        fill: #b1dcc4;
      }

      .cls-31 {
        fill: #b0c2cc;
      }

      .cls-32 {
        fill: #be9e7d;
      }

      .cls-33 {
        fill: #be8c8c;
      }

      .cls-34 {
        fill: #d6e8f6;
      }

      .cls-35 {
        fill: #dcbf97;
      }

      .cls-36 {
        fill: #231f20;
      }

      .cls-37 {
        fill: #092f44;
      }

      .cls-38 {
        fill: #1c4824;
      }

      .cls-39 {
        fill: #444848;
      }

      .cls-40 {
        fill: #1a152b;
      }

      .cls-41 {
        fill: #88b241;
      }

      .cls-42 {
        fill: #3c2415;
      }

      .cls-43, .cls-9 {
        fill: #727b78;
      }

      .cls-44 {
        fill: #26130f;
      }

      .cls-4 {
        stroke: #58595b;
        stroke-width: .2px;
      }

      .cls-5 {
        stroke: #b0c2cc;
        stroke-width: 5px;
      }

      .cls-6, .cls-11 {
        stroke: #1a152b;
        stroke-linecap: round;
      }

      .cls-7 {
        stroke-width: .7px;
      }

      .cls-8 {
        stroke: #662d91;
      }

      .cls-9 {
        stroke: #414042;
      }

      .cls-10 {
        stroke: #603913;
      }

      .cls-11, .cls-12 {
        stroke-width: 2px;
      }

      .cls-12 {
        stroke: #444848;
      }

      .cls-14, .cls-15, .cls-16 {
        stroke-width: .5px;
      }

      .cls-15 {
        stroke: #fff;
      }

      .cls-16 {
        stroke: #a97c50;
      }
    </style>
  </defs>
  <g id="Layer_2" data-name="Layer 2">
    <rect class="cls-30" width="1333.56" height="955.55"/>
    <rect class="cls-18" x=".42" y="905.68" width="1333.11" height="93.37"/>
    <g>
      <rect class="cls-39" x="634.26" y="694.91" width="72.98" height="116.74"/>
      <path class="cls-43" d="M1091.48,290.69s53.84,6.63,53.06,51.3l-19.41,168.45v186.93H228.96l-30.03-185.82-13.68-169.07s-4.74-52.35,86.75-58.61c0,0,384.46-38.85,819.47,6.81Z"/>
      <rect class="cls-39" x="106.26" y="810.36" width="1117.73" height="63.22"/>
      <rect class="cls-26" x="106.28" y="873.08" width="62.34" height="54.92"/>
      <rect class="cls-26" x="1161.74" y="872.41" width="62.34" height="55.54"/>
      <path class="cls-39" d="M150.42,511.44h52.99s28.28,8.9,28.28,40.45v143.71h-90.67s9.4-184.16,9.4-184.16Z"/>
      <path class="cls-39" d="M1181.64,511.44h-52.99s-28.28,8.9-28.28,40.45v143.71h90.67l-9.4-184.16Z"/>
      <rect class="cls-43" x="83.28" y="511.44" width="106.96" height="214.64" rx="15.24" ry="15.24"/>
      <rect class="cls-43" x="1136.68" y="511.44" width="106.96" height="214.64" rx="15.66" ry="15.66"/>
      <rect class="cls-9" x="83.01" y="695.8" width="583.51" height="115.85" rx="36.95" ry="36.95"/>
      <rect class="cls-9" x="667.36" y="695.8" width="577.67" height="115.85" rx="36.95" ry="36.95"/>
      <g>
        <line class="cls-12" x1="785.43" y1="560.02" x2="785.43" y2="694.91"/>
        <line class="cls-12" x1="793.88" y1="563.05" x2="793.88" y2="694.91"/>
        <line class="cls-12" x1="801.86" y1="549.34" x2="801.86" y2="694.91"/>
        <line class="cls-12" x1="810.31" y1="552.61" x2="810.31" y2="694.91"/>
        <line class="cls-12" x1="847.45" y1="302.49" x2="847.45" y2="694.91"/>
        <line class="cls-12" x1="855.9" y1="311.31" x2="855.9" y2="694.91"/>
        <line class="cls-12" x1="863.88" y1="271.42" x2="863.88" y2="694.91"/>
        <line class="cls-12" x1="872.33" y1="280.93" x2="872.33" y2="694.91"/>
        <line class="cls-12" x1="909.08" y1="302.49" x2="909.08" y2="694.91"/>
        <line class="cls-12" x1="917.53" y1="311.31" x2="917.53" y2="694.91"/>
        <line class="cls-12" x1="925.51" y1="281.38" x2="925.51" y2="694.91"/>
        <line class="cls-12" x1="933.96" y1="280.93" x2="933.96" y2="694.91"/>
        <line class="cls-12" x1="973.94" y1="302.49" x2="973.94" y2="694.91"/>
        <line class="cls-12" x1="982.39" y1="311.31" x2="982.39" y2="694.91"/>
        <line class="cls-12" x1="990.37" y1="283.55" x2="990.37" y2="694.91"/>
        <line class="cls-12" x1="998.82" y1="280.93" x2="998.82" y2="694.91"/>
        <line class="cls-12" x1="1067.31" y1="302.49" x2="1067.31" y2="694.91"/>
        <line class="cls-12" x1="1075.76" y1="311.31" x2="1075.76" y2="694.91"/>
        <line class="cls-12" x1="1083.74" y1="292.43" x2="1083.74" y2="694.91"/>
        <line class="cls-12" x1="1092.19" y1="290.69" x2="1092.19" y2="694.91"/>
      </g>
      <g>
        <line class="cls-12" x1="547.94" y1="560.02" x2="547.94" y2="694.91"/>
        <line class="cls-12" x1="539.49" y1="563.05" x2="539.49" y2="694.91"/>
        <line class="cls-12" x1="531.51" y1="549.34" x2="531.51" y2="694.91"/>
        <line class="cls-12" x1="523.06" y1="552.61" x2="523.06" y2="694.91"/>
        <line class="cls-12" x1="485.92" y1="302.49" x2="485.92" y2="694.91"/>
        <line class="cls-12" x1="477.47" y1="311.31" x2="477.47" y2="694.91"/>
        <line class="cls-12" x1="469.49" y1="271.42" x2="469.49" y2="694.91"/>
        <line class="cls-12" x1="461.04" y1="280.93" x2="461.04" y2="694.91"/>
        <line class="cls-12" x1="424.28" y1="302.49" x2="424.28" y2="694.91"/>
        <line class="cls-12" x1="415.83" y1="311.31" x2="415.83" y2="694.91"/>
        <line class="cls-12" x1="407.85" y1="271.42" x2="407.85" y2="694.91"/>
        <line class="cls-12" x1="399.4" y1="280.93" x2="399.4" y2="694.91"/>
        <line class="cls-12" x1="359.42" y1="302.49" x2="359.42" y2="694.91"/>
        <line class="cls-12" x1="350.97" y1="311.31" x2="350.97" y2="694.91"/>
        <line class="cls-12" x1="342.99" y1="282.1" x2="342.99" y2="694.91"/>
        <line class="cls-12" x1="334.54" y1="280.93" x2="334.54" y2="694.91"/>
        <line class="cls-12" x1="266.05" y1="302.49" x2="266.05" y2="694.91"/>
        <line class="cls-12" x1="257.6" y1="311.31" x2="257.6" y2="694.91"/>
        <line class="cls-12" x1="249.62" y1="292.43" x2="249.62" y2="694.91"/>
        <line class="cls-12" x1="241.17" y1="290.69" x2="241.17" y2="694.91"/>
      </g>
      <path class="cls-5" d="M665.07,676.43c6.84-6.26,13.59,1.11,20.43-5.15s.08-13.64,6.92-19.9,13.59,1.11,20.43-5.15,.08-13.64,6.92-19.9c6.84-6.26,13.59,1.11,20.43-5.15s.08-13.64,6.92-19.9,13.59,1.11,20.43-5.16,.08-13.64,6.92-19.9,13.59,1.11,20.43-5.16,.08-13.64,6.92-19.9,13.59,1.11,20.43-5.16,.08-13.64,6.92-19.9,13.59,1.11,20.43-5.16c6.84-6.26,.08-13.64,6.92-19.9s13.59,1.11,20.43-5.16c6.83-6.26,.08-13.64,6.91-19.9s13.59,1.11,20.43-5.15,.08-13.64,6.92-19.9,13.59,1.11,20.43-5.15,.08-13.64,6.92-19.9,13.59,1.11,20.43-5.16,.08-13.64,6.92-19.9,13.59,1.11,20.43-5.16c6.84-6.27,.08-13.64,6.92-19.9,6.84-6.27,13.59,1.11,20.43-5.16,6.84-6.26,.08-13.64,6.92-19.9,6.84-6.27,13.59,1.11,20.43-5.16,6.84-6.27,.08-13.64,6.92-19.91,6.84-6.27,13.59,1.11,20.43-5.16,6.84-6.27,.09-13.64,6.93-19.91,6.84-6.27,13.6,1.1,20.44-5.17"/>
      <path class="cls-5" d="M265.04,287.22c6.53,6.28-.4,13.49,6.13,19.76s13.46-.93,19.99,5.35-.4,13.49,6.13,19.76,13.46-.93,19.99,5.35-.4,13.49,6.13,19.77,13.46-.93,19.99,5.35c6.53,6.28-.4,13.49,6.13,19.77s13.46-.93,19.99,5.35c6.53,6.28-.4,13.49,6.13,19.77s13.46-.93,19.99,5.35-.4,13.49,6.13,19.77,13.46-.93,19.99,5.35-.4,13.49,6.13,19.77,13.46-.93,19.99,5.35c6.53,6.28-.4,13.49,6.13,19.77s13.46-.93,19.99,5.35-.4,13.49,6.13,19.77c6.53,6.28,13.46-.93,19.99,5.35s-.4,13.49,6.13,19.77c6.53,6.28,13.46-.93,19.99,5.35s-.4,13.49,6.13,19.77,13.46-.93,20,5.35-.4,13.49,6.13,19.77,13.46-.93,19.99,5.35-.4,13.49,6.13,19.77,13.46-.93,19.99,5.35-.4,13.49,6.13,19.77,13.46-.93,20,5.36-.4,13.49,6.13,19.77,13.47-.92,20,5.36-.39,13.49,6.14,19.78"/>
      <path class="cls-31" d="M666.7,678.93l424.77-388.24s-389.83-55.34-832.04-5.36"/>
    </g>
  </g>
  <g id="Layer_1" data-name="Layer 1">
    <g>
      <path class="cls-32" d="M711.18,431.61l45.52,34.33,76.43-41.38,17.47,59.61s-73.37,49.94-110.65,40.34l-70.52-37.46"/>
      <path class="cls-28" d="M654.84,901.54s-12.73,19.8-6.36,33.23c0,0,6.36,20.51,53.74,14.14,0,0,62.57,24.64,77.42-10.71,0,0-1.05-21.11-52.67-27.47,0,0,6.36,16.97-16.26,16.26,0,0-43.84-.71-55.86-25.46Z"/>
      <path class="cls-32" d="M654.84,901.54s2.03-12.12,5.73-17.4c0,0-6.87-50.7-1.58-74.99,0,0,33.63-4.35,56.34-5.41,0,0-8.81,61.39-11.98,86.21,0,0-1.58,13.73,7.92,15.32l15.7,5.47s8.28,28.32-32.41,15.53-39.71-24.73-39.71-24.73Z"/>
      <path class="cls-32" d="M570.57,907.31s3.1-12.88,7.48-18.27c0,0-3.54-55.02,3.98-80.74,0,0,34.64,10.43,59.13,11.02,0,0-12.28,52.77-17.57,79.21,0,0-2.74,14.64,7.35,17.06l16.46,7.07s6.76,31.08-36.02,14.24c-42.78-16.84-40.82-29.59-40.82-29.59Z"/>
      <path class="cls-37" d="M445.83,695.03c-27.37-2.05-41.19-95.48-20.11-131.38,0,0,116.45,59.47,220.13,.43l17.87,14.64s86.78,10.1,85.27,94.87c-1.51,84.77-19.76,143.44-19.76,143.44,0,0-108.91,41.63-169.41,11.29,0,0-19.76-63.94,0-127.19,0,0-55.06-1.69-113.99-6.11Z"/>
      <path class="cls-32" d="M548.48,207.02s-1.27,48.2-15.85,53.61c0,0,12.76,73.06,75.01,89.36,0,0,40.91-31,24.63-76,0,0-8.69-7.32-9.41-16.86,0,0-55.77-18.07-74.39-50.1Z"/>
      <path class="cls-17" d="M669.44,487.06c2.36,52.83,.27,76.63-5.01,83.69-12.95,17.32,.83-.54,0,0-36.87,23.84-112.95,22.14-112.95,22.14-106.06,2.6-124.55-28.61-124.55-28.61l4.92-103c-17.01-18.07-24.41-36.33-24.41-36.33,12.34-78.47,53.43-134.08,53.43-134.08,26.8-27.39,73.62-31.98,73.62-31.98,15.6,25.02,32.81,41.89,32.81,41.89,0,0,35.18,22.28,60.02-5.57l4.94-21.24c18.71,8.42,45.32,25.05,45.32,25.05,23.65,15.63,27.74,61.75,27.74,61.75l9.16,66.3s-1.59,52.36-24.3,63.76"/>
      <path class="cls-28" d="M570.57,907.31s-15.18,20.32-9.36,35.25c0,0,5.29,22.53,56.7,19.28,0,0,65.4,31.23,84.04-5.65,0,0,.47-22.77-54.54-33.52,0,0,5.55,18.73-18.72,16.25,0,0-47.08-4.08-58.12-31.6Z"/>
      <path class="cls-32" d="M552.23,174.14s-1.39-35.76,19.43-53.89c12.71-11.07,38.53-9.32,63.96-7.02,0,0,53.43,9.68,29.7,74.87,0,0-3.94,6.27-3.07,12.08,0,0,2.13,11.19-7.69,31.83-13.08,27.5-27.71,26.28-27.71,26.28,0,0-2.76,7.97-19.28,5.37,0,0-15,.43-28.19-11.25,0,0-35.4-25.08-29.9-46.02,0,0-16.9,6.56-19.93-19.82,0,0-1.45-45.24,22.67-12.42Z"/>
      <path class="cls-21" d="M620.07,169.06s-17.36-9.23-29.43-3.26c0,0,5.04-12.96,30.92-2.27,0,0,4.16,4.35-1.49,5.52Z"/>
      <path class="cls-3" d="M635.93,200.95s7.92,17.84-11.12,16.43"/>
      <path class="cls-3" d="M533.03,176.95s8.25-13.92,15.47,12.09c0,0-7.86-12.31-11.19-3.53"/>
      <path class="cls-3" d="M584.04,171.58l4.39,19.85s10.14,7.81,25.68,6.48l10.91-16.62s-18.64-13.13-40.98-9.71Z"/>
      <path class="cls-44" d="M620,263.42s-6.57,1.81-12.98,0c0,0-23.36-.07-42.85-24.22,0,0,5.24,8.71,17.8,18.22,0,0,11.32,11.88,38.54,9.51,0,0-.05-1.28-.52-3.51Z"/>
      <path class="cls-4" d="M589.02,122.32s34.9,20.84,58.53,6.34c0,0,6.15,13.86,23.47,32.39,0,0,1.81,10.33-9.58,32.14,0,0,4.22,19.24-9.97,41.62,0,0-11.78,19.98-24.62,23.48,0,0-3.14,4.71-6.85,5.14,0,0,7.14,6.66,13.1,6.94,0,0-3.12-8.04,.34-9.36,0,0,40.55-5.57,44.9-86.42,0,0,32.01-33.12,2.37-60.87-13.4-12.54-23.09-45.15-62.73-32.36,0,0-46.91-30.38-68.04,16.84,0,0-56.8,8.11-32.48,80.68,0,0-12.24,21.63,7,42.05,2.22,2.36,6.09,12.3,.13,25.38-1.61,3.53,9.41-2.37,13.54-9.06,0,0,7.49-12.03,11.35-30.87,0,0-18.06,3.31-18.8-16.5,0,0-3.52-22.09,4.45-24.71,0,0,8.91-2.58,16.46,8.87,0,0,33.98-.27,37.42-51.71Z"/>
      <path class="cls-21" d="M667.13,175.93c-.08-1.38-11.58-5.75-22.98-7.31,0,0-5.87,1.7-1.51,5.61,0,0,21.58,.06,22.41,7.35,0,0,2.26-2.25,2.08-5.65Z"/>
      <path class="cls-3" d="M631.86,181.49l4.39,19.85s9.06,6.04,24.6,4.71l9.54-18.76s-16.18-9.22-38.52-5.8Z"/>
      <path class="cls-3" d="M631.86,181.49s-3.41-4.51-6.84-.2"/>
      <line class="cls-3" x1="584.04" y1="171.58" x2="541.68" y2="163.91"/>
      <path class="cls-14" d="M598.38,145.97s16.47,3.85,24.16,6.59c7.69,2.75,31.3-.54,31.3-.54"/>
      <g>
        <path class="cls-23" d="M593.29,178.34s.06-.46,.45-.8c1.3-1.11,4.21-3.13,8.3-2.58,4.57,.62,6.52,5.25,7.17,6.9,.11,.28,.07,.51,.07,.51,0,0-.02,.26-.2,.41-.84,.75-3.6,2.79-7.94,2.27-2.58-.31-6.02-2.18-7.79-5.98-.12-.26-.09-.58-.06-.74Z"/>
        <circle class="cls-44" cx="602.62" cy="180.42" r="4.77"/>
        <circle class="cls-23" cx="600.67" cy="177.94" r="1.31"/>
        <path class="cls-7" d="M609.49,181.91s-4.1-11.67-15.92-4.43"/>
      </g>
      <g>
        <path class="cls-23" d="M644.2,189.5s-.01-.44,.3-.8c1.05-1.22,3.47-3.51,7.35-3.59,4.34-.08,6.81,3.95,7.65,5.39,.15,.25,.14,.47,.14,.47,0,0,.02,.24-.12,.41-.68,.82-2.95,3.11-7.06,3.25-2.45,.08-5.91-1.17-8.1-4.45-.15-.23-.17-.52-.17-.68Z"/>
        <circle class="cls-44" cx="653.17" cy="190.09" r="4.47"/>
        <circle class="cls-23" cx="650.77" cy="188.13" r="1.25"/>
        <path class="cls-7" d="M659.58,190.65s-5.16-10.89-15.21-1.77"/>
      </g>
      <g>
        <circle class="cls-16" cx="674.09" cy="748.64" r="5.85"/>
        <circle class="cls-16" cx="669.96" cy="770.02" r="5.85"/>
        <circle class="cls-16" cx="679.1" cy="760.5" r="5.85"/>
        <path class="cls-16" d="M664.18,763.59c0,3.23-2.62,5.85-5.85,5.85-3.23,0-5.85-2.62-5.85-5.85,0-3.23,2.62-5.85,5.85-5.85,3.23,0,5.85,2.62,5.85,5.85Z"/>
        <circle class="cls-16" cx="661.98" cy="751.75" r="5.85"/>
      </g>
      <g>
        <path class="cls-16" d="M614.41,729.86c0,3.23-2.62,5.85-5.85,5.85-3.23,0-5.85-2.62-5.85-5.85,0-3.23,2.62-5.85,5.85-5.85s5.85,2.62,5.85,5.85Z"/>
        <circle class="cls-16" cx="604.43" cy="751.24" r="5.85"/>
        <circle class="cls-16" cx="613.57" cy="741.72" r="5.85"/>
        <circle class="cls-16" cx="592.79" cy="744.81" r="5.85"/>
        <circle class="cls-16" cx="596.45" cy="732.96" r="5.85"/>
      </g>
      <g>
        <path class="cls-16" d="M594.71,679.61c0,3.23-2.62,5.85-5.85,5.85-3.23,0-5.85-2.62-5.85-5.85,0-3.23,2.62-5.85,5.85-5.85s5.85,2.62,5.85,5.85Z"/>
        <path class="cls-16" d="M590.58,700.99c0,3.23-2.62,5.85-5.85,5.85-3.23,0-5.85-2.62-5.85-5.85,0-3.23,2.62-5.85,5.85-5.85s5.85,2.62,5.85,5.85Z"/>
        <circle class="cls-16" cx="593.87" cy="691.47" r="5.85"/>
        <circle class="cls-16" cx="573.09" cy="694.56" r="5.85"/>
        <circle class="cls-16" cx="576.74" cy="682.72" r="5.85"/>
      </g>
      <g>
        <path class="cls-16" d="M628.59,635.57c0,3.23-2.62,5.85-5.85,5.85-3.23,0-5.85-2.62-5.85-5.85,0-3.23,2.62-5.85,5.85-5.85s5.85,2.62,5.85,5.85Z"/>
        <path class="cls-16" d="M624.46,656.95c0,3.23-2.62,5.85-5.85,5.85-3.23,0-5.85-2.62-5.85-5.85,0-3.23,2.62-5.85,5.85-5.85s5.85,2.62,5.85,5.85Z"/>
        <circle class="cls-16" cx="627.75" cy="647.42" r="5.85"/>
        <circle class="cls-16" cx="606.97" cy="650.52" r="5.85"/>
        <circle class="cls-16" cx="610.63" cy="638.67" r="5.85"/>
      </g>
      <g>
        <path class="cls-16" d="M538.17,667.1c0,3.23-2.62,5.85-5.85,5.85-3.23,0-5.85-2.62-5.85-5.85s2.62-5.85,5.85-5.85,5.85,2.62,5.85,5.85Z"/>
        <circle class="cls-16" cx="528.2" cy="688.48" r="5.85"/>
        <path class="cls-16" d="M543.19,678.96c0,3.23-2.62,5.85-5.85,5.85-3.23,0-5.85-2.62-5.85-5.85s2.62-5.85,5.85-5.85,5.85,2.62,5.85,5.85Z"/>
        <circle class="cls-16" cx="516.56" cy="682.05" r="5.85"/>
        <circle class="cls-16" cx="520.21" cy="670.21" r="5.85"/>
      </g>
      <g>
        <circle class="cls-16" cx="651.09" cy="679.32" r="5.85"/>
        <circle class="cls-16" cx="646.97" cy="700.7" r="5.85"/>
        <circle class="cls-16" cx="656.1" cy="691.18" r="5.85"/>
        <circle class="cls-16" cx="635.33" cy="694.27" r="5.85"/>
        <circle class="cls-16" cx="638.98" cy="682.42" r="5.85"/>
      </g>
      <g>
        <path class="cls-16" d="M705.08,701.84c0,3.23-2.62,5.85-5.85,5.85-3.23,0-5.85-2.62-5.85-5.85,0-3.23,2.62-5.85,5.85-5.85,3.23,0,5.85,2.62,5.85,5.85Z"/>
        <circle class="cls-16" cx="695.1" cy="723.22" r="5.85"/>
        <path class="cls-16" d="M710.09,713.7c0,3.23-2.62,5.85-5.85,5.85-3.23,0-5.85-2.62-5.85-5.85,0-3.23,2.62-5.85,5.85-5.85s5.85,2.62,5.85,5.85Z"/>
        <circle class="cls-16" cx="683.46" cy="716.79" r="5.85"/>
        <circle class="cls-16" cx="687.12" cy="704.95" r="5.85"/>
      </g>
      <g>
        <circle class="cls-16" cx="722.24" cy="653.83" r="5.85"/>
        <circle class="cls-16" cx="718.12" cy="675.21" r="5.85"/>
        <circle class="cls-16" cx="727.25" cy="665.69" r="5.85"/>
        <circle class="cls-16" cx="706.48" cy="668.78" r="5.85"/>
        <path class="cls-16" d="M715.99,656.93c0,3.23-2.62,5.85-5.85,5.85-3.23,0-5.85-2.62-5.85-5.85s2.62-5.85,5.85-5.85,5.85,2.62,5.85,5.85Z"/>
      </g>
      <g>
        <circle class="cls-16" cx="594.83" cy="780.85" r="5.85"/>
        <circle class="cls-16" cx="590.71" cy="802.23" r="5.85"/>
        <circle class="cls-16" cx="599.84" cy="792.7" r="5.85"/>
        <circle class="cls-16" cx="579.07" cy="795.8" r="5.85"/>
        <path class="cls-16" d="M588.58,783.95c0,3.23-2.62,5.85-5.85,5.85-3.23,0-5.85-2.62-5.85-5.85s2.62-5.85,5.85-5.85,5.85,2.62,5.85,5.85Z"/>
      </g>
      <g>
        <circle class="cls-16" cx="644.65" cy="798.14" r="5.85"/>
        <circle class="cls-16" cx="640.52" cy="819.52" r="5.85"/>
        <circle class="cls-16" cx="649.66" cy="810" r="5.85"/>
        <circle class="cls-16" cx="628.89" cy="813.09" r="5.85"/>
        <path class="cls-16" d="M638.39,801.25c0,3.23-2.62,5.85-5.85,5.85-3.23,0-5.85-2.62-5.85-5.85s2.62-5.85,5.85-5.85,5.85,2.62,5.85,5.85Z"/>
      </g>
      <g>
        <circle class="cls-16" cx="710.38" cy="782.92" r="5.85"/>
        <circle class="cls-16" cx="706.25" cy="804.3" r="5.85"/>
        <path class="cls-16" d="M721.24,794.78c0,3.23-2.62,5.85-5.85,5.85-3.23,0-5.85-2.62-5.85-5.85,0-3.23,2.62-5.85,5.85-5.85,3.23,0,5.85,2.62,5.85,5.85Z"/>
        <circle class="cls-16" cx="694.61" cy="797.87" r="5.85"/>
        <circle class="cls-16" cx="698.27" cy="786.02" r="5.85"/>
      </g>
      <g>
        <path class="cls-16" d="M736.24,732.06c0,3.23-2.62,5.85-5.85,5.85-3.23,0-5.85-2.62-5.85-5.85,0-3.23,2.62-5.85,5.85-5.85s5.85,2.62,5.85,5.85Z"/>
        <path class="cls-16" d="M732.12,753.43c0,3.23-2.62,5.85-5.85,5.85-3.23,0-5.85-2.62-5.85-5.85s2.62-5.85,5.85-5.85,5.85,2.62,5.85,5.85Z"/>
        <circle class="cls-16" cx="735.4" cy="743.91" r="5.85"/>
        <circle class="cls-16" cx="714.62" cy="747.01" r="5.85"/>
        <circle class="cls-16" cx="718.28" cy="735.16" r="5.85"/>
      </g>
      <g>
        <circle class="cls-16" cx="454.24" cy="593.79" r="5.85"/>
        <circle class="cls-16" cx="450.11" cy="615.16" r="5.85"/>
        <circle class="cls-16" cx="459.25" cy="605.64" r="5.85"/>
        <circle class="cls-16" cx="438.47" cy="608.74" r="5.85"/>
        <circle class="cls-16" cx="442.13" cy="596.89" r="5.85"/>
      </g>
      <g>
        <circle class="cls-16" cx="574.9" cy="614.01" r="5.85"/>
        <path class="cls-16" d="M576.63,635.39c0,3.23-2.62,5.85-5.85,5.85-3.23,0-5.85-2.62-5.85-5.85,0-3.23,2.62-5.85,5.85-5.85,3.23,0,5.85,2.62,5.85,5.85Z"/>
        <circle class="cls-16" cx="579.91" cy="625.87" r="5.85"/>
        <path class="cls-16" d="M564.99,628.97c0,3.23-2.62,5.85-5.85,5.85-3.23,0-5.85-2.62-5.85-5.85s2.62-5.85,5.85-5.85,5.85,2.62,5.85,5.85Z"/>
        <path class="cls-16" d="M568.64,617.12c0,3.23-2.62,5.85-5.85,5.85-3.23,0-5.85-2.62-5.85-5.85,0-3.23,2.62-5.85,5.85-5.85,3.23,0,5.85,2.62,5.85,5.85Z"/>
      </g>
      <g>
        <path class="cls-16" d="M478.18,654.9c0,3.23-2.62,5.85-5.85,5.85-3.23,0-5.85-2.62-5.85-5.85,0-3.23,2.62-5.85,5.85-5.85,3.23,0,5.85,2.62,5.85,5.85Z"/>
        <path class="cls-16" d="M474.06,676.28c0,3.23-2.62,5.85-5.85,5.85-3.23,0-5.85-2.62-5.85-5.85,0-3.23,2.62-5.85,5.85-5.85,3.23,0,5.85,2.62,5.85,5.85Z"/>
        <circle class="cls-16" cx="477.34" cy="666.76" r="5.85"/>
        <path class="cls-16" d="M462.42,669.86c0,3.23-2.62,5.85-5.85,5.85-3.23,0-5.85-2.62-5.85-5.85,0-3.23,2.62-5.85,5.85-5.85,3.23,0,5.85,2.62,5.85,5.85Z"/>
        <path class="cls-16" d="M466.08,658.01c0,3.23-2.62,5.85-5.85,5.85-3.23,0-5.85-2.62-5.85-5.85,0-3.23,2.62-5.85,5.85-5.85,3.23,0,5.85,2.62,5.85,5.85Z"/>
      </g>
      <g>
        <path class="cls-16" d="M516.85,607.41c0,3.23-2.62,5.85-5.85,5.85-3.23,0-5.85-2.62-5.85-5.85,0-3.23,2.62-5.85,5.85-5.85s5.85,2.62,5.85,5.85Z"/>
        <path class="cls-16" d="M512.73,628.79c0,3.23-2.62,5.85-5.85,5.85-3.23,0-5.85-2.62-5.85-5.85,0-3.23,2.62-5.85,5.85-5.85s5.85,2.62,5.85,5.85Z"/>
        <path class="cls-16" d="M521.87,619.27c0,3.23-2.62,5.85-5.85,5.85-3.23,0-5.85-2.62-5.85-5.85,0-3.23,2.62-5.85,5.85-5.85,3.23,0,5.85,2.62,5.85,5.85Z"/>
        <path class="cls-16" d="M501.09,622.36c0,3.23-2.62,5.85-5.85,5.85-3.23,0-5.85-2.62-5.85-5.85,0-3.23,2.62-5.85,5.85-5.85s5.85,2.62,5.85,5.85Z"/>
        <path class="cls-16" d="M504.74,610.51c0,3.23-2.62,5.85-5.85,5.85-3.23,0-5.85-2.62-5.85-5.85,0-3.23,2.62-5.85,5.85-5.85s5.85,2.62,5.85,5.85Z"/>
      </g>
      <path class="cls-27" d="M598,222.95s15.8-4.22,22.08,2.2c0,0,4.67-4.39,16.74,1.98,0,0-.61,20.31-19.34,18.45-21.38-2.13-19.48-22.62-19.48-22.62Z"/>
      <path class="cls-25" d="M600.72,225.41s.78,13.4,15.58,15.03c14.8,1.63,17.66-11.56,17.66-11.56,0,0-23.91-5.04-33.25-3.47Z"/>
      <path class="cls-23" d="M604.42,225.12s3.08,4.34,14.43,5.73c10.46,1.29,13.87-2.28,13.87-2.28,0,0-15.21-3.72-28.3-3.45Z"/>
      <g>
        <path class="cls-38" d="M770.13,380.91l-31.99,161.65,119.76,29.35,31.7-163.09s3.21-9.23-7.52-11.85l-111.95-16.05Z"/>
        <polygon class="cls-23" points="874.42 396.85 885.64 401.85 855.52 565.1 843.3 562.71 874.42 396.85"/>
        <path class="cls-38" d="M755.1,374.01l-33.49,166.72,121.26,24.28,31.7-163.09s3.21-9.23-7.52-11.85l-111.95-16.05Z"/>
        <path class="cls-34" d="M764.75,383.02l-28.12,152.04,101.86,22.15,26.62-148.73s2.7-8.41-6.32-10.81l-94.04-14.65Z"/>
        <path class="cls-41" d="M742.91,499.9l-6.58,35.46,102.16,21.85,6.88-39.06s-60.7-23.39-102.46-18.24Z"/>
        <g>
          <path class="cls-40" d="M776.81,436.48s-2.33-3.68,0-10.06c0,0,5.78-1.06,8.56,2.32"/>
          <path class="cls-19" d="M776.95,473.83s20.3,9.94,40.79,6.86c0,0,8.04,.38,8.99-8.05,0,0,2.86-12.45-.4-23.93-3.26-11.49-11.88-13.78-11.88-13.78,0,0-9.96-4.4-20.49-3.81-10.53,.58-17.6,14.57-17.6,14.57,0,0-4.78,9-5.35,17.04-.57,8.04,5.94,11.1,5.94,11.1Z"/>
          <path class="cls-24" d="M798.12,456.33s-8.3-.12-10.07,11.5c0,0-.25,3.7,3.45,5.1l1.79,3.7,.51-1.28,3.07,3.19,.51-2.04,.77,1.79,1.91-1.66,.51,1.53,3.19-2.81s7.28,.89,5.61-10.09c0,0-.26-4.72-6.01-8.16l.77,4.34s-1.79-2.04-8.43-1.78l2.42-3.32Z"/>
          <path class="cls-40" d="M795.8,460.9l2.44,3.35c.27,.41,1.8,.48,2.2,.19l3.16-1.87c.51-.37,.52-1.23,0-1.58-1.48-1-4.05-1.39-7.23-1.38-.68,0-.94,.72-.57,1.29Z"/>
          <path class="cls-22" d="M794.61,467.88s.05,3.83,3.11,4.4c0,0,3.93,.91,4.88-2.54,0,0-2.44-.14-3.59-1.43,0,0-3.83,.53-4.4-.43Z"/>
          <path class="cls-6" d="M799.48,464.39l-.57,3.64s-4.59,2.01-6.08-2.87"/>
          <path class="cls-6" d="M798.91,468.02s3.69,3.83,7.08-.44"/>
          <ellipse class="cls-24" cx="813.08" cy="457.54" rx="4.4" ry="3.51" transform="translate(141.92 1105.6) rotate(-73.36)"/>
          <path class="cls-40" d="M814.34,456.62c-.46-.31-1.02-.5-1.62-.49-1.6,0-2.9,1.3-2.9,2.91s1.3,2.9,2.91,2.9,2.9-1.3,2.9-2.91c0-.62-.19-1.19-.52-1.66l-1.19,.92,.42-1.67Z"/>
          <ellipse class="cls-24" cx="789.73" cy="453.3" rx="4.4" ry="3.51" transform="translate(129.31 1080.2) rotate(-73.36)"/>
          <path class="cls-40" d="M790.99,452.39c-.46-.31-1.02-.5-1.62-.49-1.6,0-2.9,1.3-2.9,2.91s1.3,2.9,2.91,2.9,2.9-1.3,2.9-2.91c0-.62-.19-1.19-.52-1.66l-1.19,.92,.42-1.67Z"/>
          <path class="cls-6" d="M786.88,449.17s1.42-3.76,4.81-1.51"/>
          <path class="cls-6" d="M782.68,451.73s2.33,.62,3,.6"/>
          <path class="cls-6" d="M813.4,452.23s3.08-1.05,3.46,2.48"/>
          <line class="cls-6" x1="816.78" y1="458.01" x2="819.71" y2="458.53"/>
          <path class="cls-19" d="M779.29,441.06s-4.73-2.1-.84-12.24c0,0,8.56-2.49,11.27,3.15"/>
          <path class="cls-24" d="M780.49,439.18s-1.88-3.75-.68-8.41c0,0,4.13-.38,7.06,2.32,0,0-4.8,2.78-6.38,6.09Z"/>
          <path class="cls-40" d="M830,445.74s3.23-2.92,2.69-9.7c0,0-5.29-2.56-8.87-.05"/>
          <path class="cls-19" d="M826.38,449.49s5.12-.76,4.07-11.58c0,0-7.59-4.68-11.7,.03"/>
          <path class="cls-24" d="M825.73,447.36s2.81-3.12,2.9-7.92c0,0-3.88-1.47-7.43,.35,0,0,3.89,3.96,4.52,7.57Z"/>
          <path class="cls-40" d="M792.36,433.99s4.8-4.44,12.54,1.79c0,0,8.94-3.24,11.79,1.57,0,0-7.66-1.57-12.32,1.36,0,0-6.76-6.15-12.02-4.72Z"/>
          <path class="cls-40" d="M791.61,438.5s4.8-4.44,12.54,1.79c0,0,8.94-3.24,11.79,1.57,0,0-7.66-1.57-12.32,1.36,0,0-6.76-6.15-12.02-4.72Z"/>
          <path class="cls-40" d="M790.71,443.08s4.8-4.44,12.54,1.79c0,0,8.94-3.24,11.79,1.57,0,0-7.66-1.57-12.32,1.36,0,0-6.76-6.15-12.02-4.72Z"/>
          <path class="cls-40" d="M774.42,449.55l-1.57,4.81s2.41,5.71,9.02,5.93c0,0-6.69-6.53-7.44-10.73Z"/>
          <path class="cls-40" d="M771.05,461.57l.08,3.83s3.68,3.6,11.42-.23c0,0-9.69-1.12-11.49-3.6Z"/>
          <path class="cls-40" d="M827.97,459.16l-.07,5.06s-4.12,4.62-10.45,2.69c0,0,8.44-4.02,10.52-7.75Z"/>
          <path class="cls-40" d="M827.27,471.63l-1.31,3.6s-4.65,2.22-10.73-3.91c0,0,9.53,2.07,12.04,.31Z"/>
          <path class="cls-19" d="M811.58,480.89s-.08,2.55,4.75,2.8c0,0,8.75,2.27,14.04-1.64,0,0,2.34-1.04,3.9-3.84,0,0,1.91-2.17,5.25-.55s.23,6.09,.23,6.09c0,0-6.12,11.79-24.04,12.3,0,0,1.71,3.4,1.01,8.91,0,0,5.81-.71,9.01,.99s8.41-.71,8.41-.71c0,0,4.9-3.21,.69-8.01,0,0-.61-5.31,3.6-2.11,0,0,3.41,4.3,.51,10.31-2.9,6.01-14.32,4.22-14.32,4.22,0,0-6.71-1.7-9.31-.29,0,0-2.49,15.42-8.5,20.14l-13.02-2.99s.8-3.91,4.4-2.81l1.9-3.51s-4.31-2.6-9.12-3c-3.95-.33-9.31,1.21-9.31,1.21l.5,2.9c3.41,1,2.01,4.91,2.01,4.91l-12.12-3.4c-2.91-2.2-2.42-15.72-2.42-15.72-1.41-7.11,3.99-18.93,3.99-18.93-13.82-4.6-16.94-22.22-16.94-22.22,0,0-.71-5.41,3-5.31s4.41,2.9,4.41,2.9c.1,3.2,1.71,5.21,1.71,5.21,2.91,5.91,11.72,7.9,11.72,7.9,4.41,2,5.51-.3,5.51-.3"/>
          <path class="cls-24" d="M786.46,477.53s-12.7,16.83-7.49,24.94c0,0,2.71,6.91,12.22,8.2,9.51,1.29,13.02-.51,15.12-2.62,2.1-2.1,5.5-15.93,1.58-26.64"/>
          <path class="cls-40" d="M765.82,468.74s-3.85,2.76-3.7,5.01c0,0,4.13-2.18,6.38-1.66,0,0-1.75-1.6-2.68-3.35Z"/>
          <path class="cls-40" d="M769.33,472.84s-3.23,3.68-1.8,5.71c0,0,2.48-2.78,5.33-3.83,0,0-2.4-.45-3.53-1.87Z"/>
          <path class="cls-40" d="M773.99,475.39s-1.95,3.76-.75,6.01c0,0,2.15-3.96,4.3-4.76,0,0-2.43-.57-3.56-1.25Z"/>
          <ellipse class="cls-24" cx="760.54" cy="466.47" rx="2.4" ry="2.37"/>
          <ellipse class="cls-24" cx="757.81" cy="464.06" rx=".96" ry=".86"/>
          <ellipse class="cls-24" cx="759.86" cy="462.79" rx=".96" ry=".86"/>
          <ellipse class="cls-24" cx="762.21" cy="463.36" rx=".96" ry=".86"/>
          <path class="cls-40" d="M773.1,489.59s2.33,1.8,4.81,2.62c0,0-3.23,1.2-5.86-.07l1.05-2.55Z"/>
          <path class="cls-40" d="M770.7,496.42s3.01,1.88,6.01,2.1c0,0-3.83,1.66-6.76,.76"/>
          <path class="cls-40" d="M769.43,504.24s3.16,.75,5.71,0c0,0-2.48,2.93-5.48,2.86"/>
          <path class="cls-40" d="M769.89,516.85s4.06,.82,6.53,0c0,0-3.15,2.18-5.86,2.48"/>
          <path class="cls-24" d="M771.55,523.54s.97-3.46,7.36-2.33c6.38,1.12,5.29,5,5.29,5,0,0-.17,2.8-6.18,1.23-6.01-1.57-6.31-2.1-6.46-3.9Z"/>
          <path class="cls-40" d="M830.26,482.22s2.08,4.25,.88,6.17c0,0-2.6-3.88-4.83-4.49,0,0,2.3-.58,3.95-1.68Z"/>
          <path class="cls-40" d="M825.23,484.17s1.09,4.77-1.13,5.88c0,0-.86-3.62-2.87-5.9,0,0,2.33,.75,4,.02Z"/>
          <path class="cls-40" d="M819.92,484.21s-.07,4.23-2.19,5.64c0,0-.02-4.5-1.53-6.23,0,0,2.41,.65,3.72,.59Z"/>
          <ellipse class="cls-24" cx="836.33" cy="482.48" rx="2.37" ry="2.4" transform="translate(41.8 1031.08) rotate(-64.6)"/>
          <ellipse class="cls-24" cx="839.83" cy="481.47" rx=".86" ry=".96" transform="translate(44.71 1033.66) rotate(-64.6)"/>
          <ellipse class="cls-24" cx="838.52" cy="479.44" rx=".86" ry=".96" transform="translate(45.79 1031.32) rotate(-64.6)"/>
          <ellipse class="cls-24" cx="836.16" cy="478.95" rx=".86" ry=".96" transform="translate(44.89 1028.9) rotate(-64.6)"/>
          <path class="cls-40" d="M816.14,497.02s-2.75,1.06-5.36,1.15c0,0,2.75,2.07,5.64,1.6l-.28-2.75Z"/>
          <path class="cls-40" d="M816.49,504.25s-3.42,.94-6.36,.3c0,0,3.2,2.68,6.26,2.65"/>
          <path class="cls-40" d="M815.49,512.1s-3.24-.18-5.47-1.63c0,0,1.54,3.51,4.44,4.3"/>
          <path class="cls-40" d="M811.45,524.07s-4.12-.37-6.26-1.86c0,0,2.4,2.99,4.91,4.05"/>
          <path class="cls-24" d="M801.95,529.34s.6-3.54-5.65-5.26c-6.25-1.72-6.92,2.26-6.92,2.26,0,0-1.04,2.61,5.06,3.76s6.6,.81,7.51-.76Z"/>
          <path class="cls-40" d="M819.67,504.72l-.22,4.13s2.18,0,4.58,.67l.45-4.13s-2.85-.67-4.81-.67Z"/>
          <path class="cls-40" d="M828.09,506.52l.15,3.38s3.15,.07,4.88-.6l-.6-3.53s-2.08,1.33-4.43,.75Z"/>
          <path class="cls-40" d="M834.7,504.86l3.23,1.8s1.73-1.43,2.02-4.21l-3.46-1.87s0,3.15-1.8,4.28Z"/>
          <path class="cls-40" d="M836.04,498.32l3.38-1.05s-.6-3.38-3.83-3.08c0,0-2.25,1.73,.45,4.13Z"/>
        </g>
        <path class="cls-11" d="M770.15,403c3.23-1.27,5.43,8.55,9.64,7.55,1.92-.46,2.34-10.73,4.93-11.11,2.11-.31,5.46,9.37,7.93,9.22,2.19-.14,4.33-10.18,6.75-10.12,2.23,.05,3.85,10.17,6.23,10.44,2.23,.25,6.11-9.25,8.44-8.76,2.2,.46,1.94,10.7,4.21,11.41,2.15,.67,7.75-7.93,9.94-7.01s-.14,10.88,1.95,12.01c1.98,1.07,9.11-6.31,11.09-4.99,1.87,1.25-2.16,10.67-.31,12.16"/>
        <line class="cls-11" x1="881.63" y1="400.35" x2="851.72" y2="564.41"/>
        <line class="cls-11" x1="877.72" y1="398.85" x2="847.81" y2="562.91"/>
      </g>
      <rect class="cls-32" x="881.72" y="416.79" width="15.58" height="9.93" rx="4.37" ry="4.37" transform="translate(1710.08 965.6) rotate(-171.83)"/>
      <rect class="cls-32" x="875.64" y="449.52" width="15.58" height="9.93" rx="4.37" ry="4.37" transform="translate(1845.75 701.36) rotate(167.16)"/>
      <rect class="cls-32" x="876.64" y="426.37" width="19.76" height="11.14" rx="4.91" ry="4.91" transform="translate(1702.69 985.44) rotate(-171.83)"/>
      <rect class="cls-32" x="874.97" y="437.92" width="19.76" height="11.14" rx="4.91" ry="4.91" transform="translate(1785.51 853.94) rotate(177.88)"/>
      <path class="cls-15" d="M647.41,922.66s40.41,7.65,51.71,25.34"/>
      <line class="cls-10" x1="467.25" y1="448.33" x2="473.62" y2="383.09"/>
    </g>
    <g>
      <path class="cls-35" d="M620.66,445.27s20.48,16.15,32.34,35.91l49.71,1.25,2.96,15.38-53.81,24.04s-26.48-2.08-28.32-9.44"/>
      <path class="cls-35" d="M655.77,713.24s2.2-.16,.43-8.31c0,0,13.38,.82,28.95-4.63,0,0,3.41,7.25,13.73,7.65,0,0,15.11,2.33,6.89,12.46-8.22,10.13-43.02,4.24-43.02,4.24l-6.98-11.42Z"/>
      <path class="cls-20" d="M655.77,713.24s-4.6,12.97,.98,19.6c0,0,6.57,10.6,33.15,.16,0,0,43.46,2.86,40.31-16.75,0,0-.5-12.2-31.33-8.3,0,0,16.68,8.94-7.14,11.5,0,0-25.52,5.96-35.96-6.21Z"/>
      <path class="cls-35" d="M607.83,718.18s2.18,.33,2.23-8.02c0,0,12.88,3.71,29.26,1.77,0,0,1.75,7.82,11.74,10.46,0,0,14.24,5.56,4.01,13.66-10.22,8.1-42.91-5.21-42.91-5.21l-4.33-12.66Z"/>
      <path class="cls-20" d="M607.83,718.18s-7.31,11.66-3.31,19.35c0,0,4.11,11.78,32.32,7.36,0,0,41.8,12.24,42.99-7.58,0,0,2.16-12.02-28.77-14.91,0,0,14.34,12.35-9.47,9.67,0,0-26.2,.27-33.75-13.88Z"/>
      <path class="cls-35" d="M554.28,409.6s2.41,23.06-5.94,35.67c0,0,10.64,30.37,39.43,34.32,0,0,19.83,5.1,21.07-27.33,0,0-7.34-5.06-5.98-13.49l-48.59-29.18Z"/>
      <path class="cls-29" d="M512.57,568.49s-4.94-88.35,23.52-115.34c0,0,13.57-13.45,16.99-14.77,0,0,7.85,28.59,42.01,23.43,0,0,18.07-5.31,2.2-29.59,0,0,24.85,5.18,30.01,18.17,1.2,3.01,24.4,20.97,24.37,26.81-.11,19.3-26.81,42.51-26.81,42.51,0,0,10.38,54.61-17.37,62.06-25.8,6.92-52.61,3.53-94.94-13.27Z"/>
      <path class="cls-35" d="M550.98,391.28s-7.36-12.55-14.71-8.47c-7.35,4.08-1.77,19.57-1.77,19.57,0,0,8.2,12.99,17.73,7.26,0,0,9.91,25.57,44.45,30.1,0,0,14.45,2.83,26.68-11.29,11.8-13.62,7.63-37.93,7.63-37.93,0,0,1.97-4.02,2.34-18.94s-3.46-32.49-22.47-39.36c-19.02-6.87-30.88-9.72-49.55,3.88-18.67,13.61-10.32,55.17-10.32,55.17Z"/>
      <path class="cls-33" d="M596.26,413.6s5.11-1.31,11.41,.16c0,0,5.04-.28,10.07,.97,0,0,.55,6.9-8.01,8.69-8.56,1.8-13.76-4.52-13.47-9.82Z"/>
      <path class="cls-25" d="M597.06,413.98s-.28,8.02,10.15,8.28c9.48,.24,9.73-6.91,9.73-6.91,0,0-10.69,.22-19.88-1.38Z"/>
      <path class="cls-36" d="M592.68,372.42s-8.19-2.39-15.2,1.98c0,0-3.83-1.61,1.44-3.84s9.18-3.64,14.17-1c0,0,2.14,1.91-.41,2.85Z"/>
      <path class="cls-36" d="M620.44,373.44s5.29-2.73,12.08,1.98c0,0,2.76-1.43,.08-3.2-3.98-2.62-6.83-3.03-12.42-1.66,0,0-2.23,1.8,.27,2.87Z"/>
      <path class="cls-23" d="M598.48,414.16s2.55,3.86,10.81,3.67c0,0,5.08,.38,7.28-2.27,0,0-10.64-.03-18.1-1.4Z"/>
      <path class="cls-44" d="M600.5,439.94s-8.01,.91-20.13-4.36c0,0-4.49-1.13-13.24-7.33,0,0,6.28,6.38,18.82,11.55,0,0,5.27,2.34,15.25,2.57,0,0-.6-.82-.71-2.44Z"/>
      <path class="cls-3" d="M537.56,393.57s3.46-4.97,7.06,.28c3.61,5.24,3.77,6.96,3.77,6.96,0,0-5.15-8.31-7.43-1.8"/>
      <path class="cls-3" d="M614.29,394.22s6.26,9.82-5.1,10.68"/>
      <g>
        <path class="cls-23" d="M582.22,384.88s0-.34,.24-.63c.83-.95,2.74-2.73,5.77-2.77,3.4-.04,5.31,3.13,5.96,4.26,.11,.2,.1,.37,.1,.37,0,0,.01,.19-.1,.32-.53,.64-2.32,2.42-5.54,2.51-1.92,.05-4.62-.94-6.32-3.52-.12-.18-.13-.41-.13-.53Z"/>
        <circle class="cls-44" cx="589.24" cy="385.39" r="3.52"/>
        <circle class="cls-23" cx="587.09" cy="383.97" r=".96"/>
        <path class="cls-7" d="M594.41,385.74s-4.24-8.06-12.08-1.52"/>
      </g>
      <g>
        <path class="cls-23" d="M617.91,386.4s-.05-.31,.13-.61c.62-.99,2.12-2.89,4.9-3.35,3.11-.52,5.31,2.12,6.07,3.06,.13,.16,.15,.32,.15,.32,0,0,.04,.17-.04,.31-.4,.66-1.79,2.54-4.73,3.08-1.75,.32-4.37-.21-6.29-2.34-.13-.15-.18-.36-.19-.47Z"/>
        <circle class="cls-44" cx="624.42" cy="385.87" r="3.25"/>
        <circle class="cls-23" cx="622.32" cy="384.66" r=".91"/>
        <path class="cls-7" d="M629.08,385.59s-4.86-7.28-11.12,.34"/>
      </g>
      <path class="cls-2" d="M625.23,523.48s-.41-3.92-1.68-11.08c0,0,2.37-26.45-.04-37.38"/>
      <path class="cls-35" d="M702.71,482.43c1.7,.27,3.09-1.51,4.58-2.34l14.8-17.87,17.75-7.77s4.96,1.1,.69,5.06c-4.28,3.96-9.1,6.61-9.1,6.61,0,0,6.13,5.61,6.82,7.37,.78,1.99,1.48,5.48,1.48,5.48,0,0-.03,2.63-1.54,3.04,0,0,3.9,6.51-8.04,5.91,0,0-7.95,8.8-17.26,7.07,0,0-4.48,1-7.23,2.82"/>
      <path class="cls-1" d="M716.81,468.49s2.87-2.22,8.49-1.31c2.67,.43,7.69,4.22,7.69,4.22,0,0,.94,4.73-3.63,4.11-4.57-.61-7.36-.87-7.36-.87,0,0,3.27,14.15-10.2,11.88"/>
      <path class="cls-1" d="M738.44,474.34s-3.22,4.23-8.79,4.67c0,0-2.98,2.09,.33,4.44,0,0,4.2,.49,8.22-1.44"/>
      <path class="cls-1" d="M729.98,483.45s-4.03,2.52,.18,4.47"/>
      <line class="cls-1" x1="735.11" y1="469.71" x2="732.99" y2="471.4"/>
      <path class="cls-1" d="M727.84,475.28s-.73,.99-.38,1.99c.59,1.67,2.19,1.74,2.19,1.74"/>
      <path class="cls-21" d="M620.24,570.07s34.93,11.26,50.2,32.64c15.27,21.38,19.45,98.34,19.45,98.34,0,0-10.4,14.04-34.07,6.4,0,0-23.55-53.58-24.32-80.3l-33.66-19.46s22.21,13.35,29.08,26.33c6.87,12.98,14.4,76.63,14.4,76.63,0,0-13.46,15.8-34.07,2.82,0,0-22.33-38.99-22.33-62.66,0,0-39.87-11.66-54.97-27.49-16.03-16.8-16.8-54.21-16.8-54.21,0,0,87.44,27.68,107.09,.96Z"/>
      <path class="cls-42" d="M540.9,345.72s-11.84,16.04-5.85,37.78c0,0,8.75-5.38,15.71,9.85,0,0,15.25-12.46,18.23-51.28,0,0,34.34,9.81,53.17,.83,0,0,9.82,8.07,9.64,26.83l.96,11.1c5.75-32.96-8.24-48.24-8.24-48.24-24.55-27.47-56.63-15.56-63.44-10.21,0,0-11.5-16.38-29.67-2.98,0,0-9.83,5.66-7.75,14.3,0,0-17.02-8.04-20.15,12.47,0,0-13.91,4.52-6.26,20.51,0,0-8.69,10.08,2.78,18.42,0,0,12.86,10.08,18.77-2.43,0,0,11.47,6.6,10.78-5.21,0,0,12.51,1.39,13.21-9.73,.7-11.12-1.89-22.01-1.89-22.01Z"/>
    </g>
    <g>
      <g>
        <path class="cls-32" d="M488.64,542.45s34.64,26.35,59.48,18.82c0,0,20.71,7.91,32.38,0,0,0,1.88-2.64-.38-4.52,0,0,13.18,6.4,16.19-1.51,0,0,10.54-9.41-2.64-14.68,0,0,1.51-9.41-9.04-12.8-10.54-3.39-39.91-13.93-39.91-13.93,0,0-30.12-9.04-47.81-8.66,0,0-10.68,30.68-8.28,37.27Z"/>
        <path class="cls-13" d="M593.67,540.56s-16.94-12.05-37.65-15.06"/>
        <path class="cls-13" d="M596.31,555.25s-17.04-12.14-49.22-22.87"/>
        <path class="cls-13" d="M580.12,556.75s-20.33-9.13-29.08-11.11"/>
      </g>
      <path class="cls-32" d="M411.39,431.37l-3.41,12.02s-9.04,40.66,7.34,54.78,73.32,44.28,73.32,44.28c0,0,4.54-19.03,8.28-37.27l-30.77-56.14"/>
      <path class="cls-13" d="M466.71,450.16s-15.81-2.26-20.89,3.39"/>
    </g>
    <g>
      <path class="cls-35" d="M557.4,522.2c8.41,10.82,16.83,40.87,16.83,40.87,0,0,6.76,3.9,11.2,6.44,5.02,2.87,16.65,5.7,14.79,9.34-1.86,3.65-7.55,2.15-7.55,2.15,0,0-3.19-1.4,.34,2.93,3.54,4.33,8.34,4.4,7.59,6.96-.94,3.2-3.58,2.08-3.58,2.08l-9.57-5.1s.47,4.26,4.21,6.39c3.74,2.13,5.5,2.83,5.32,4.66-.25,2.51-1.81,3.33-5.36,.83-3.55-2.5-5.65-2.88-7.73-6,0,0-.98,2.6,3.25,6.25,0,0,2.08,3.13-1.57,2.64s-8.87-6.7-8.87-6.7c0,0,.12,2.7,1.51,5.59,1.4,2.89-3.03,1.44-3.03,1.44,0,0-12.88-13.33-14.13-25.16,0,0-32.19-26.46-34.89-49"/>
      <path class="cls-8" d="M559.51,460s12.02,27.04,2.1,60.7c0,0-30.35,10.22-41.17,7.81l-4.55-20.95"/>
      <path class="cls-13" d="M557.4,522.2s13.47,24.6,16.83,40.87"/>
      <path class="cls-13" d="M526.15,528.81s.17,10.93,17.94,33.01"/>
    </g>
  </g>
</svg>