<?xml version="1.0" encoding="UTF-8"?>
<svg xmlns="http://www.w3.org/2000/svg" xmlns:xlink="http://www.w3.org/1999/xlink" viewBox="0 0 1333.86 1684.79">
  <defs>
    <style>
      .cls-1, .cls-2, .cls-3, .cls-4, .cls-5, .cls-6, .cls-7, .cls-8, .cls-9, .cls-10, .cls-11, .cls-12 {
        fill: none;
      }

      .cls-2 {
        stroke: #fbb040;
        stroke-width: 3px;
      }

      .cls-2, .cls-13, .cls-3, .cls-14, .cls-15, .cls-16, .cls-4, .cls-17, .cls-5, .cls-6, .cls-7, .cls-8, .cls-9, .cls-10, .cls-11, .cls-12 {
        stroke-miterlimit: 10;
      }

      .cls-18 {
        clip-path: url(#clippath);
      }

      .cls-19 {
        fill: #f7daa6;
      }

      .cls-20 {
        fill: #01a04c;
      }

      .cls-21, .cls-13 {
        fill: #e6e7e8;
      }

      .cls-22 {
        fill: #fff;
      }

      .cls-23 {
        fill: #803435;
      }

      .cls-24 {
        fill: #b56e5b;
      }

      .cls-25 {
        fill: #ba9777;
      }

      .cls-26 {
        fill: #a7d8ba;
      }

      .cls-27, .cls-17 {
        fill: #be9e7d;
      }

      .cls-28, .cls-16 {
        fill: #dcbf97;
      }

      .cls-29 {
        fill: #c6837e;
      }

      .cls-30 {
        fill: #231f20;
      }

      .cls-31 {
        fill: #0f3e5d;
      }

      .cls-32 {
        fill: #26130f;
      }

      .cls-13 {
        stroke: #58595b;
        stroke-width: .2px;
      }

      .cls-3 {
        stroke-linecap: round;
      }

      .cls-3, .cls-15, .cls-6 {
        stroke: #fff;
      }

      .cls-14 {
        fill: #a97c50;
      }

      .cls-14, .cls-9 {
        stroke: #a97c50;
      }

      .cls-14, .cls-11, .cls-12 {
        stroke-width: .5px;
      }

      .cls-15 {
        fill: #fff200;
      }

      .cls-16, .cls-17, .cls-7, .cls-12 {
        stroke: #603913;
      }

      .cls-4 {
        stroke: #cfe5ae;
        stroke-width: 2px;
      }

      .cls-17 {
        stroke-width: .8px;
      }

      .cls-5, .cls-10, .cls-11 {
        stroke: #231f20;
      }

      .cls-8 {
        stroke: #754c29;
      }

      .cls-10 {
        stroke-width: 1.2px;
      }
    </style>
    <clipPath id="clippath">
      <rect class="cls-1" x="97.88" y="124.01" width="1178.49" height="875.58"/>
    </clipPath>
  </defs>
  <g id="Layer_2" data-name="Layer 2">
    <rect class="cls-26" width="1333.86" height="999.57"/>
  </g>
  <g id="Layer_1" data-name="Layer 1">
    <g class="cls-18">
      <rect class="cls-31" x="183.98" y="854.69" width="354.16" height="145.03"/>
      <g>
        <path class="cls-27" d="M337.41,361.2s-12.63,61.3-29.39,81.77c0,0,21.87,111.59,117.82,134.6,0,0,61.72-48.82,35.35-117.27,0,0-13.55-10.95-14.96-25.55,0,0-79.26-25.03-108.82-73.54Z"/>
        <path class="cls-27" d="M336.85,309.38s-7.69-56.81,22.74-88.89c18.58-19.59,60-20.75,100.9-20.97,0,0,86.66,7.26,58.81,114.82,0,0-5.32,10.59-3.05,19.73,0,0,5.1,17.52-7.39,51.92-16.65,45.85-40.15,46.13-40.15,46.13,0,0-3.18,13.13-29.92,11.51,0,0-23.85,2.98-46.67-13.63,0,0-60.28-34.58-54.71-68.81,0,0-25.95,13.05-34.8-28.56,0,0-9.24-71.91,34.24-23.26Z"/>
        <path class="cls-21" d="M444.71,289.01s-30.03-9.45-47.3,3.49c0,0,4.14-21.88,48.03-12.62,0,0,7.82,5.64-.73,9.14Z"/>
        <path class="cls-5" d="M474.4,339.33s15.35,27.24-15.22,27.89"/>
        <path class="cls-5" d="M306.66,316.79s11.02-23.46,26.52,16.91c0,0-14.41-18.42-18.38-3.92"/>
        <path class="cls-10" d="M387.18,300.44l10.03,30.97s17.37,10.9,41.94,6.41l14.86-28.17s-31.72-18.08-66.82-9.21Z"/>
        <path class="cls-32" d="M448.72,443.48s-2.99,.46-10.85-.13c0,0-37.25,3.46-72.02-32.06,0,0,9.68,13.08,31.17,26.33,0,0,25.93,14.69,53.31,9.72,0,0,.6,.41-1.61-3.86Z"/>
        <path class="cls-13" d="M387.59,221.13s58.83,27.88,94.29,1.15c0,0,11.93,21.15,42.38,48.06,0,0,4.46,16.19-10.36,52.71,0,0,9.67,30.03-9.53,67.88,0,0-15.72,33.65-35.67,41.2,0,0-2.98,4.18-6.1,6.8,0,0,8.36,11.97,17.91,11.51,0,0-6.21-12.35-.89-14.97,0,0,63.8-15.08,58.37-144.65,0,0,45.98-57.7-5.54-97.42-23.28-17.95-43.72-68.46-104.96-42.01,0,0-79.45-41.27-105.91,37.26,0,0-89.33,21.61-39.44,133.6,0,0-16.21,36.36,17.59,65.98,3.9,3.42,11.59,18.68,4.09,40.44-2.02,5.87,14.64-5.21,20.2-16.51,0,0,10.1-20.33,13.38-50.95,0,0-28.29,8.04-32.5-23.43,0,0-9-34.68,3.32-40.08,0,0,13.8-5.47,27.6,11.62,0,0,54.13-5.63,51.76-88.17Z"/>
        <path class="cls-21" d="M520.32,294.66c-.33-2.18-19.34-7.4-37.76-8.14,0,0-9.1,3.6-1.55,9.17,0,0,34.42-3.2,36.86,8.29,0,0,3.27-3.93,2.45-9.32Z"/>
        <path class="cls-10" d="M464.94,308.92l10.03,30.97s15.36,8.24,39.94,3.75l12.35-31.37s-27.21-12.23-62.31-3.36Z"/>
        <path class="cls-10" d="M464.94,308.92s-6.13-6.67-10.94,.72"/>
        <line class="cls-10" x1="387.18" y1="300.44" x2="318.47" y2="294.69"/>
        <path class="cls-11" d="M406.13,257.41s26.85,3.61,39.53,6.82c12.68,3.2,49.83-5.66,49.83-5.66"/>
        <g>
          <path class="cls-22" d="M402.97,309.8s.02-.74,.59-1.34c1.9-1.97,6.24-5.64,12.84-5.38,7.39,.28,11.19,7.38,12.49,9.91,.22,.44,.19,.81,.19,.81,0,0,0,.41-.25,.69-1.23,1.32-5.31,4.99-12.31,4.83-4.17-.1-9.93-2.56-13.33-8.35-.24-.4-.24-.9-.22-1.17Z"/>
          <circle class="cls-32" cx="418.16" cy="311.69" r="7.64"/>
          <circle class="cls-22" cx="413.4" cy="309.96" r="2.1"/>
          <path class="cls-5" d="M429.34,313.02s-8.32-17.98-26.06-4.62"/>
        </g>
        <g>
          <path class="cls-22" d="M485.84,319.81s-.09-.69,.36-1.33c1.48-2.11,5-6.13,11.17-6.84,6.91-.79,11.46,5.26,13.03,7.43,.27,.37,.29,.73,.29,.73,0,0,.07,.38-.13,.68-.96,1.41-4.22,5.4-10.75,6.26-3.89,.51-9.6-.96-13.59-5.86-.28-.34-.35-.81-.37-1.06Z"/>
          <circle class="cls-32" cx="500.24" cy="319.37" r="7.17"/>
          <circle class="cls-22" cx="495.34" cy="318.59" r="2.01"/>
          <path class="cls-5" d="M510.54,319.28s-9.89-16.57-24.52-.5"/>
        </g>
        <path class="cls-24" d="M415.99,388.78s24.72-17.77,36.48-8.93c0,0,18.48-9.1,27.46,13.47,0,0-1.12,14.48-32.22,13.68-31.1-.8-31.72-18.23-31.72-18.23Z"/>
        <path class="cls-23" d="M422.06,390.13s34.1-17.8,53.56,4.58c0,0-15.84-.73-24.24,3.45,0,0-16.88-8.21-29.32-8.03Z"/>
        <path class="cls-22" d="M432.8,385.86s26.44-7.42,38.01,4.61l-38.01-4.61Z"/>
        <path class="cls-30" d="M453.68,280.33s6.38,8.54,.26,13.52c0,0,10.41-4.93-.26-13.52Z"/>
        <path class="cls-25" d="M732.36,705.36l9.28-8.48s.81-35.12,35.92-42.38c0,0,12.51-1.61,18.16-12.51,5.65-10.9,21.39-14.93,24.62-12.11,3.23,2.83,7.27,14.93-2.02,20.59-9.28,5.65-25.83,20.59-25.83,20.59l98.08,8.07s16.15,3.23,14.53,11.3c-1.61,8.07-19.78,3.23-19.78,3.23l-35.52,14.13s-26.24,28.66-65.39,22.6l-15.74,10.9-36.33-35.92Z"/>
        <path class="cls-12" d="M789.83,683.35s15.06,5.69,16.4,18.41"/>
        <path class="cls-12" d="M817.13,704.65s36.09-27.74,48.12-8.69"/>
        <line class="cls-12" x1="809.11" y1="688.95" x2="832.84" y2="690.62"/>
        <path class="cls-27" d="M584.66,651.49s25.58,90.64,36.53,107.07l111.17-53.2,33.44,33.59s-48.55,94.18-123.4,130.7c-74.85,36.51-102.41-2.07-102.41-2.07,0,0,3.39-21.51,28.54-97.93,25.16-76.43,16.13-118.15,16.13-118.15Z"/>
        <path class="cls-19" d="M312.75,435.98s16.08,85.99,86.32,84.8c49.81-.84,55.14-18.63,57.06-65.69,0,0,60.9,15.39,86.92,43.14,26.02,27.76,65.92,154.39,57.25,234.19,0,0-5.2,43.37-60.72,78.06,0,0,12.37,124.94,10.52,169.16,0,0-20.93,37.28-114.61,37.28l-20.82-138.78,1.73,137.05s-88.21,15.31-166.54-22.55c0,0-63.29-35.87-73.7-45.69-3-2.83,17.68-169.62,12.16-187.56,0,0,25.92,22.53-24.39-13.9,0,0-39.87-298.89,148.8-309.5Z"/>
        <path class="cls-9" d="M330.97,751.24s4.34-133.19-61.91-161.98"/>
        <path class="cls-9" d="M539.58,810.48s.19-141.8-21.6-179.44"/>
        <circle class="cls-14" cx="393.53" cy="574.06" r="12.81"/>
        <circle class="cls-14" cx="396.99" cy="669.86" r="12.81"/>
        <circle class="cls-14" cx="396.11" cy="770.5" r="12.81"/>
        <path class="cls-2" d="M326.84,351.4s-9,13.66,.56,22.04c9.57,8.37,4.58-12.03,4.58-12.03"/>
      </g>
      <g>
        <path class="cls-28" d="M820.94,771.89s-28.99,68.98-75.86,68.17c-52.01-.9-96.19-94.24-75.34-297.92l52.15,4.71,32.08,95.65,24.22-64.56s47.06-100.51,81.4-103.44"/>
        <path class="cls-28" d="M1084.66,779.21s-42.02-12.23-60.11-39.1l15.41-89.17,44.69,128.27Z"/>
        <path class="cls-28" d="M1025.47,362.59s-18.25,93.75,34.79,108.27c0,0,.04,94.07-126.8,98.04,0,0-36.13-16.6-60.08-101.19,0,0,38.03-12.83,38.52-34.92,.52-23.38-6.86,.73-6.86,.73l120.43-70.93"/>
        <path class="cls-31" d="M1141.89,890.1s100.42,184.99,21.31,337.55l-33.76,110.95s-20.03,57.74-12.46,136.65c4.81,50.19-4.89,118.48-17.61,184.87,0,0-43.91,43.4-103.72,15.06,0,0-49.96,15.08-106.46-11.76l-89.14-221.19s-17.61-31.98-17.61-71.53c0,0-30.73-340.67,20.09-467.2,0,0,133.2,90.26,339.35-13.4Z"/>
        <path class="cls-28" d="M1036.05,316.1s-8.83-128.57-110.2-123.51c0,0-75.28,1.15-69.18,107.39,0,0,4.35,17,1.6,26.09,0,0-4.78,27.88,4.37,50.8,13.75,34.41,31.43,52.02,31.43,52.02,0,0,14.99,13.71,41.29,13.69,0,0,18.47-.76,41.79-16.14,0,0,59.11-27.78,55.64-62.68,0,0,22.74,12.96,33.82-28.52,0,0,14.62-35.94,.8-41.6-17.43-7.14-23.64,4.24-31.37,22.45Z"/>
        <path class="cls-32" d="M939.7,277.19s37.41-3.92,51.28,10.87c0,0-8.34-20.84-50.47-19.44,0,0-8.16,3.94-.81,8.57Z"/>
        <path class="cls-32" d="M853.67,282.5c.13-2.04,17.26-8.36,34.2-10.49,0,0,8.68,2.6,2.15,8.34,0,0-32.01-.23-33.36,10.56,0,0-3.32-3.37-2.99-8.41Z"/>
        <path class="cls-10" d="M912.26,357.37c-25.09-2.86-8.91-26.29-8.91-26.29"/>
        <path class="cls-10" d="M1066.24,321.65s-9.72-24.35-27.8,15.48c0,0,15.66-17.73,18.8-2.85"/>
        <path class="cls-32" d="M910.3,438.1s18.14,9.67,46.16-.78c0,0,24.51-8.73,44.37-25.35,0,0-26.01,28-60.56,32.94,0,0-17.5,2.29-32.31-3.49,0,0,1.07-1.82,2.33-3.32Z"/>
        <path class="cls-20" d="M1141.89,890.1s-2.36-60.08-13.76-106.2c0,0-23.49-109.65-27.7-112.49-50.77-34.17-27.25-195.97-27.25-195.97l-25.75-9.93s-9.43,91.66-84.67,91.66c-41.01,0-72.54-7.9-72.17-98.22l-30.99,15.55s-19.27,94.01-33.99,160.56c0,0-28.2,66.09-5.37,119.74,0,0,1.87,57.94-17.69,148.7,0,0,142.64,104.17,339.35-13.4Z"/>
        <path class="cls-32" d="M868.34,389.84c-14.66-26.26-10.79-60.04-10.79-60.04,0,0,1.73-6.44,2.31-19.41,.58-12.91-2.2-15.87-1.21-27.38,0,0,40.14-10.07,73.69-45.6,0,0,39.39-16.65,9.72-12.73,0,0,11.31-15.93,54.57-3.53,0,0,7.94,63.11,39.42,94.95,0,0,14.68-29.82,31.37-22.45,16.69,7.37-7.68,53.36-7.68,53.36,0,0-7.04,27.18-26.04,15.69,0,0-9.01,26.61-2,55.65,0,0,5.11-2.81,12.22-11.69,0,0-4.64,13.86-13.83,23.41,0,0,39.19-10.14,42.19-48.64,0,0-.25-13.12,10.02-15.2,10.28-2.07,23.59-39.28,21.09-71.11-2.49-31.84-28.62-139.62-99.72-140.64,0,0-38.46-16.13-86.58,14.32-48.12,30.45-43,37.44-83.09,100.08,0,0-18.74,6.08,11.95,31.11,0,0-7.67,32.64-2.44,22.91,0,0-5.97,33.78,8.93,47.22,0,0-2.48-10.02-2.51-26.28,0,0-3.2,36.32,25.98,59.81"/>
        <path class="cls-4" d="M993.15,287.65s-34.59-11.03-66.01,1.41c0,0-3.56,46.06,31.32,46.87,0,0,45.23-1.75,34.69-48.28Z"/>
        <path class="cls-4" d="M905.03,289s-30.2-10.75-56.6,4.39c0,0-7.35,41.82,27.53,42.62,0,0,39.62-.48,29.08-47.01Z"/>
        <path class="cls-4" d="M905.03,289s12.68-6.23,22.11,.07"/>
        <line class="cls-4" x1="988.67" y1="287.13" x2="1041.66" y2="302.36"/>
        <line class="cls-15" x1="1040.92" y1="357.57" x2="1041.44" y2="384.32"/>
        <polygon class="cls-6" points="1045.07 387.91 1041.72 382.05 1039.11 388.27 1032.5 389.65 1037.61 394.06 1036.88 400.77 1042.65 397.27 1048.81 400.04 1047.26 393.47 1051.8 388.46 1045.07 387.91"/>
        <path class="cls-32" d="M1003.68,154.48s-46.31-34.09-87.38-3.65c0,0-9.87,18.82-35.72,14.61-13.67-2.23-16.61,19.19-16.61,19.19,0,0,4.7,17.56-11.63,16.58,0,0-26.25,7.96-21.25,38.69,5,30.72-13.29,40.64-13.29,40.64,0,0-15.41,11.02-8.05,27.81,0,0,7.76,11.17,3.49,17.54-4.28,6.37-12.49,4.65-12.49,4.65,0,0,11.48,7.95,20.64-6.06,9.16-14.02,12.06-26.65,12.06-26.65,0,0-5.29,18.97-1.31,29.59,0,0,.73,5.02-7.92,13.36-8.64,8.34-4.06,17.69-4.06,17.69,0,0,2.28-12,7.92-13.36,5.63-1.37,9.37-3.33,9.37-3.33,0,0,8.2,18.18,15,28.35,2.82,4.22,2.05,13.83-10.46,17.22-12.51,3.39-1.45,27.9-1.45,27.9,0,0-.78-22.41,9.96-20.1,10.74,2.31,10.46-8.53,10.46-8.53,0,0-8.59-21.22-6.59-47.68l-4.86-55.89s21.96-2.94,35.02-10.74c0,0,35.57-18.91,47.8-34.88,0,0-18.14,18.31-19.18,25.18-2.33,15.42-18.74,19.48-18.74,19.48,0,0,23.59,1.79,25.67-10.24,3.71-21.44,22.47-20.68,22.47-20.68,0,0,20.9,3.89,32.52-13.32,11.62-17.21,21.56-16.68,21.56-16.68,0,0,32.37-27.93,7.05-66.67Z"/>
        <path class="cls-32" d="M841.98,326.38s4.75,8.29-1.32,18.49c-6.08,10.21-14,10.13-14.22,19.49-.22,9.35,12.05,27.18,12.05,27.18,0,0-8.49-16-3.13-26.28,5.36-10.28,18.13-8.94,18.13-8.94"/>
        <path class="cls-28" d="M1166.02,703.5l49.91,67.47,16.2,39.86c20.85-32.67-18.07-158.32-18.07-158.32,0,0-46.8-121.18-85.51-152.76-38.71-31.58-55.38-24.29-55.38-24.29,0,0-20.74,71.21,27.25,195.97l65.6,32.08Z"/>
        <path class="cls-16" d="M1060.85,476.55c.18-28.75-19.91-93.88-19.91-93.88l-35.95-22.33c-2.77,2.48-.53,6.46-.53,6.46l-13.17-6.16c-4.8,7.63,5.79,19.09,5.79,19.09l-14.04-9.37c-6.31,6.32,2.68,18.21,2.68,18.21l19.87,18.11,3.17,28.41-4.13-10.93-27.02-25.34c-14.03,9.57,15.61,38.22,15.61,38.22,0,0,4.98,20.28,8.03,42.01,2.2,15.61,16.08,16.85,16.08,16.85,0,0,3.86,1.63,5.65,5.9,1.79,4.27,0,0,0,0l38.34-20.2-.48-5.05Z"/>
        <polyline class="cls-7" points="1027.2 424.48 1021.59 396.43 983.04 370.36"/>
        <polyline class="cls-7" points="1004.46 366.81 1031.72 383.63 1036.56 407.07"/>
        <path class="cls-28" d="M1060.77,480.44l-38.07,19.71s18.96,312.05,173.98,329.43c0,0,43.4-8.09,41.71-40.32-1.5-28.52-27.36-73.38-65.05-130.8-49.65-75.66-112.57-178.02-112.57-178.02Z"/>
        <path class="cls-30" d="M932.68,267.05s-5.87,7.97,.73,13.28c0,0-12.67-6.18-.73-13.28Z"/>
        <g>
          <path class="cls-29" d="M889.67,388.56s12.84-17.15,30.45-11.26c0,0,13.76-8.57,39.44,9.83,0,0-13.29,16.75-38.44,15.17-25.15-1.58-31.46-13.74-31.46-13.74Z"/>
          <path class="cls-23" d="M893.31,389.59s9.23-9.27,27.49-9.03c18.26,.23,35.38,7.47,35.38,7.47,0,0-26.82,2.83-34.28,7.11,0,0-13.37-4.63-28.59-5.55Z"/>
          <path class="cls-22" d="M900.81,384.8s13.01-9.72,44.13-.47c0,0-26.6-2.61-44.13,.47Z"/>
        </g>
        <path class="cls-3" d="M867.07,366.23c-6.31-16.24-.42-51.06-.42-51.06"/>
        <path class="cls-3" d="M872.38,316.38s-.67,2.14-.21,8.65"/>
        <path class="cls-3" d="M870.99,328.6s-.28,2.55-.17,4.85"/>
        <path class="cls-3" d="M974.14,313.19s9.34,14.44,7.64,51.9"/>
        <path class="cls-3" d="M970.03,317.56s1.63,4.35,1.61,7.03"/>
        <path class="cls-3" d="M975.62,336.76s1.12,3.2,.59,5.62"/>
        <path class="cls-28" d="M721.88,546.85c-1.56-5-3.14-9.84-4.74-14.46,0,0,19.4-18.18,2.49-60.86l-1.26-32.07s-5.37-17.45-15.41-2.68c0,0-2.06,12.39-2.11,21.95l-20.62-9.7s3.13-.94-5.96-9.47c-7.39-6.94-8.04-2.99-8.04-2.99,0,0,4.51-14.46,5.93-29.78,.92-9.97,6.04-17.1-3.36-23.21,0,0-9.36-4.77-13.13,11.96l-14.36,36.92,12.43,57.88,18.67,36.64-2.23,17.49"/>
        <path class="cls-17" d="M708.76,463.99s-4.18-3.58-8.03-5.19"/>
        <path class="cls-16" d="M683.82,507.61s6.48-24.58,2.36-33.27c0,0-2.13-3.54,1.71-11.83,3.65-7.89,10.74-13.36,5.35-18.11-7.8-6.88-13.01,4.63-13.01,4.63l-12.63,24.83"/>
        <path class="cls-16" d="M717.14,532.38s-10.23,2.6-21.49-3.16"/>
        <path class="cls-16" d="M676.62,456.17l4.76-10.55,11.65-7.65s5.65-4.19,2.57-10.62c-3.43-7.17-11.71-2.68-11.71-2.68l-14.76,11.48-11.38,21.33"/>
        <path class="cls-16" d="M669.14,436.15l1.92-6.02,11.65-7.65s5.65-4.19,2.57-10.62c-3.43-7.17-11.71-2.68-11.71-2.68l-14.76,11.48-11.38,21.33"/>
        <path class="cls-7" d="M753.96,642.5s24.24,46.46,18.58,90.9"/>
        <path class="cls-7" d="M1017.34,495.9s9.36,.71,7.97,28.86"/>
        <g>
          <path class="cls-22" d="M974.65,306.06s.03-.77-.51-1.43c-1.81-2.19-6-6.3-12.83-6.56-7.65-.29-12.13,6.74-13.66,9.25-.26,.43-.25,.82-.25,.82,0,0-.04,.42,.2,.73,1.17,1.46,5.09,5.57,12.33,5.95,4.31,.23,10.45-1.87,14.41-7.57,.28-.4,.31-.92,.31-1.19Z"/>
          <circle class="cls-32" cx="958.83" cy="306.82" r="7.91"/>
          <circle class="cls-22" cx="963.88" cy="305.4" r="2.17"/>
          <path class="cls-5" d="M947.18,307.32s9.98-17.91,27.26-2.74"/>
        </g>
        <g>
          <path class="cls-22" d="M887.74,308.07s.14-.71-.27-1.4c-1.37-2.29-4.68-6.72-10.99-7.93-7.07-1.36-12.24,4.53-14.02,6.65-.31,.36-.35,.73-.35,.73,0,0-.1,.39,.08,.71,.88,1.53,3.94,5.91,10.61,7.29,3.97,.83,9.98-.24,14.48-4.98,.31-.33,.42-.81,.46-1.07Z"/>
          <circle class="cls-32" cx="872.92" cy="306.5" r="7.42"/>
          <circle class="cls-22" cx="878.03" cy="306.07" r="2.08"/>
          <path class="cls-5" d="M862.29,305.61s11.5-16.33,25.35,1.4"/>
        </g>
        <path class="cls-20" d="M1073.17,475.45s57.98-13.72,115.58,117.66l-30.42,25.89s-49.83-84.14-93.84-131.38l8.68-12.16Z"/>
        <path class="cls-7" d="M1216.14,736.44s-58.39-141.99-145.98-241.4"/>
        <path class="cls-20" d="M859.59,474.5s-40.39,4.69-86.99,116.66l52.99,43.91,43.44-140.34"/>
      </g>
    </g>
    <g>
      <path class="cls-27" d="M207.86,772.84c24.01,78.57,56.13,86.44,56.13,86.44,145.68,55.65,304.45-10.91,304.45-10.91l-7.64-52.02-206.81-22.79-23.04-22.32"/>
      <path class="cls-27" d="M568.45,848.36c6.55-1.82,18.91-1.45,18.91-1.45l10.18,1.82,28.01,2.91s60.02-6.18,72.75-19.28c6.38-6.56,12-22.55,12-22.55,10.58-13.79,6.56-25.37,6.56-25.37,12.6-14.7-1.17-18.23-1.17-18.23-1.51-14.66-12.11-7.93-12.11-7.93l-26.06,21.03s-14.02,7.79-38.96,5.42c-24.94-2.37,.65-17.72,.65-17.72,10.71-14.69-5.66-13.96-5.66-13.96-21.44,6.39-47.62,38.09-47.62,38.09,0,0-14.95,6.28-25.13,5.19"/>
      <path class="cls-8" d="M665.89,799.29c29.56-5.78,49.8-33.08,49.8-33.08,0,0-2.04-15.56-12.11-7.93-12.46,9.46-26.06,21.03-26.06,21.03,0,0-25.87,13.54-49.96,1.75,0,0-4.38-4.52,11.65-14.05,0,0,9.56-14.8-5.66-13.96s-47.62,38.09-47.62,38.09c0,0-16.42,4.17-25.13,5.19"/>
      <path class="cls-8" d="M716.75,784.04s-23.94,27.17-52.92,29.76"/>
      <path class="cls-8" d="M663.41,828.67l19.8-.87,27.1-17.99s-4.31,16.94-12,22.55-39.91,16.04-72.75,19.28l-38.19-4.73-43.98,8.46"/>
    </g>
  </g>
</svg>