<?xml version="1.0" encoding="UTF-8"?>
<svg xmlns="http://www.w3.org/2000/svg" xmlns:xlink="http://www.w3.org/1999/xlink" viewBox="0 0 1412.25 1206.31">
  <defs>
    <style>
      .cls-1, .cls-2, .cls-3, .cls-4, .cls-5, .cls-6, .cls-7, .cls-8, .cls-9, .cls-10, .cls-11, .cls-12, .cls-13, .cls-14 {
        fill: none;
      }

      .cls-2 {
        stroke-width: 12px;
      }

      .cls-2, .cls-3, .cls-4, .cls-15, .cls-16, .cls-17, .cls-18, .cls-5, .cls-6, .cls-19, .cls-7, .cls-8, .cls-9, .cls-10, .cls-11, .cls-12, .cls-13, .cls-14 {
        stroke-miterlimit: 10;
      }

      .cls-2, .cls-5, .cls-13 {
        stroke: #789699;
      }

      .cls-20 {
        fill: url(#linear-gradient);
      }

      .cls-21 {
        clip-path: url(#clippath);
      }

      .cls-3, .cls-4, .cls-19 {
        stroke-width: .8px;
      }

      .cls-3, .cls-16, .cls-19 {
        stroke: #754c29;
      }

      .cls-4, .cls-6, .cls-7, .cls-14 {
        stroke: #231f20;
      }

      .cls-22 {
        fill: #f7941d;
      }

      .cls-23, .cls-24 {
        fill: #fff;
      }

      .cls-25 {
        fill: #f1f2f2;
      }

      .cls-26 {
        fill: #fbb040;
      }

      .cls-27 {
        fill: #f16225;
      }

      .cls-28 {
        fill: #803435;
      }

      .cls-29 {
        fill: #69c395;
      }

      .cls-30, .cls-15 {
        fill: #939598;
      }

      .cls-31 {
        fill: #b6302e;
      }

      .cls-32 {
        fill: #b8cee4;
      }

      .cls-33 {
        fill: #8b5e3c;
      }

      .cls-34 {
        fill: #8dc63f;
      }

      .cls-35 {
        fill: #a97c50;
      }

      .cls-36 {
        fill: #bcbec0;
      }

      .cls-37 {
        fill: #a7a9ac;
      }

      .cls-38 {
        fill: #acd4e2;
      }

      .cls-39 {
        fill: #a48367;
      }

      .cls-40, .cls-16 {
        fill: #be9e7d;
      }

      .cls-41 {
        fill: #be8c8c;
      }

      .cls-42 {
        fill: #bde4e0;
      }

      .cls-43 {
        fill: #aa856a;
      }

      .cls-44 {
        fill: #df9f6f;
      }

      .cls-45 {
        fill: #cc7840;
      }

      .cls-46 {
        fill: #dd6b57;
      }

      .cls-47 {
        fill: #dc3b28;
      }

      .cls-48 {
        fill: #e1c46f;
      }

      .cls-49 {
        fill: #dee2d0;
      }

      .cls-50 {
        fill: #131314;
      }

      .cls-51 {
        fill: #231f20;
      }

      .cls-52 {
        fill: #1fa8df;
      }

      .cls-53 {
        fill: #092f44;
      }

      .cls-54 {
        fill: #0c0c0c;
      }

      .cls-55 {
        fill: #1c75bc;
      }

      .cls-56 {
        fill: #414042;
      }

      .cls-57 {
        fill: #6d6e71;
      }

      .cls-58 {
        fill: #3c2415;
      }

      .cls-59, .cls-17 {
        fill: #59bede;
      }

      .cls-60 {
        fill: #603913;
      }

      .cls-61, .cls-18 {
        fill: #754c29;
      }

      .cls-62 {
        fill: #26130f;
      }

      .cls-15 {
        stroke: #fff;
      }

      .cls-17 {
        stroke: #2e3192;
      }

      .cls-18 {
        stroke: #8b5e3c;
      }

      .cls-5 {
        stroke-width: 20px;
      }

      .cls-6 {
        stroke-width: 2px;
      }

      .cls-63 {
        fill: url(#linear-gradient-2);
      }

      .cls-19 {
        fill: #dcbf97;
      }

      .cls-8 {
        stroke: #d1d3d4;
      }

      .cls-9 {
        stroke: #603913;
      }

      .cls-10 {
        stroke: #891926;
      }

      .cls-11 {
        stroke: #bcbec0;
      }

      .cls-12 {
        stroke: #be1e2d;
      }

      .cls-13 {
        stroke-width: 7px;
      }

      .cls-24 {
        opacity: .3;
      }

      .cls-14 {
        stroke-width: .5px;
      }
    </style>
    <clipPath id="clippath">
      <rect class="cls-1" x="77.55" y="204.81" width="574.48" height="427.17"/>
    </clipPath>
    <linearGradient id="linear-gradient" x1="1932.15" y1="73.51" x2="1932.15" y2="-9.54" gradientTransform="translate(-698.1 -103.24) rotate(14.99)" gradientUnits="userSpaceOnUse">
      <stop offset="0" stop-color="#be9e7d"/>
      <stop offset=".7" stop-color="#231f20"/>
    </linearGradient>
    <linearGradient id="linear-gradient-2" x1="1937.57" y1="92.08" x2="1964.11" y2="96.76" xlink:href="#linear-gradient"/>
  </defs>
  <g id="fondo">
    <rect class="cls-42" x="77.55" y="205.59" width="1333.93" height="1000.13"/>
    <g class="cls-21">
      <g>
        <rect class="cls-57" x="6" y="6.82" width="627.93" height="596.99"/>
        <rect class="cls-2" x="6" y="6.82" width="627.93" height="596.99"/>
        <line class="cls-13" x1="7.82" y1="166.99" x2="637.57" y2="166.99"/>
        <line class="cls-13" x1="7.82" y1="299.86" x2="637.57" y2="299.86"/>
        <line class="cls-13" x1="7.82" y1="443.64" x2="637.57" y2="443.64"/>
        <circle class="cls-46" cx="155.05" cy="88.44" r="71.59"/>
        <circle class="cls-25" cx="428.57" cy="371.52" r="66.23"/>
        <g>
          <path class="cls-37" d="M412.47,67.34h180.35v59.75c0,19.49-15.83,35.32-35.32,35.32h-110.04c-19.32,0-35-15.68-35-35v-60.07h0Z"/>
          <path class="cls-37" d="M434.17,33.51h137.51c11.51,0,20.86,9.35,20.86,20.86v7.66h-179.23v-7.66c0-11.51,9.35-20.86,20.86-20.86Z"/>
          <rect class="cls-50" x="492.72" y="21.48" width="20.13" height="12.02" rx="3.77" ry="3.77"/>
          <rect class="cls-50" x="592.83" y="85.52" width="20.13" height="12.02" rx="3.77" ry="3.77"/>
          <rect class="cls-50" x="392.9" y="85.52" width="20.13" height="12.02" rx="3.77" ry="3.77"/>
        </g>
        <path class="cls-45" d="M80.36,597.07c-16.12-25.48-36.2-92.31-36.2-92.31,0,0-10.4-6.24-7.28-12.48l-9.88-21.84s-4.68-15.6,8.84-12.48l20.28,39s84.75,16.12,163.27,0l20.28-39c13.52-3.12,8.84,12.48,8.84,12.48l-9.88,21.84c3.12,6.24-7.28,12.48-7.28,12.48,0,0-14.17,66.35-30.29,91.83,0,0-39.16,.48-120.7,.48"/>
        <rect class="cls-25" x="124.84" y="413.95" width="164.43" height="23.08" rx="8.44" ry="8.44"/>
        <rect class="cls-25" x="124.84" y="388.43" width="164.43" height="23.08" rx="8.44" ry="8.44"/>
        <rect class="cls-25" x="124.84" y="362.91" width="164.43" height="23.08" rx="8.44" ry="8.44"/>
        <rect class="cls-38" x="490.86" y="275.61" width="127.77" height="17.93" rx="6.56" ry="6.56"/>
        <rect class="cls-38" x="490.86" y="255.78" width="127.77" height="17.93" rx="6.56" ry="6.56"/>
        <rect class="cls-38" x="490.86" y="235.94" width="127.77" height="17.93" rx="6.56" ry="6.56"/>
        <g>
          <path class="cls-25" d="M34.53,254.14l.18,41.05s18.16,2.08,43.21-.19l-.19-41.77s-20.85,8.02-43.21,.91Z"/>
          <path class="cls-25" d="M34.52,261.82c-5.57,.03-10.25,3.41-10.22,9.89,.03,6.48,4.8,11.79,10.37,11.77"/>
          <path class="cls-57" d="M34.74,265.17c-3.63,.02-6.67,2.22-6.65,6.44s3.13,7.68,6.75,7.66"/>
          <path class="cls-36" d="M34.53,254.14s16.46-5.52,43.21-.91c0,0-20.35,8.34-43.21,.91Z"/>
        </g>
        <g>
          <path class="cls-25" d="M90.21,254.14l.18,41.05s18.16,2.08,43.21-.19l-.19-41.77s-20.85,8.02-43.21,.91Z"/>
          <path class="cls-25" d="M90.2,261.82c-5.57,.03-10.25,3.41-10.22,9.89,.03,6.48,4.8,11.79,10.37,11.77"/>
          <path class="cls-57" d="M90.42,265.17c-3.63,.02-6.67,2.22-6.65,6.44s3.13,7.68,6.75,7.66"/>
          <path class="cls-36" d="M90.21,254.14s16.46-5.52,43.21-.91c0,0-20.35,8.34-43.21,.91Z"/>
        </g>
        <g>
          <path class="cls-25" d="M149.4,254.14l.18,41.05s18.16,2.08,43.21-.19l-.19-41.77s-20.85,8.02-43.21,.91Z"/>
          <path class="cls-25" d="M149.39,261.82c-5.57,.03-10.25,3.41-10.22,9.89,.03,6.48,4.8,11.79,10.37,11.77"/>
          <path class="cls-57" d="M149.61,265.17c-3.63,.02-6.67,2.22-6.65,6.44,.02,4.22,3.13,7.68,6.75,7.66"/>
          <path class="cls-36" d="M149.4,254.14s16.46-5.52,43.21-.91c0,0-20.35,8.34-43.21,.91Z"/>
        </g>
        <g>
          <path class="cls-25" d="M206.83,254.14l.18,41.05s18.16,2.08,43.21-.19l-.19-41.77s-20.85,8.02-43.21,.91Z"/>
          <path class="cls-25" d="M206.82,261.82c-5.57,.03-10.25,3.41-10.22,9.89s4.8,11.79,10.37,11.77"/>
          <path class="cls-57" d="M207.04,265.17c-3.63,.02-6.67,2.22-6.65,6.44s3.13,7.68,6.75,7.66"/>
          <path class="cls-36" d="M206.83,254.14s16.46-5.52,43.21-.91c0,0-20.35,8.34-43.21,.91Z"/>
        </g>
        <g>
          <path class="cls-38" d="M437.32,254.14l.18,41.05s18.16,2.08,43.21-.19l-.19-41.77s-20.85,8.02-43.21,.91Z"/>
          <path class="cls-38" d="M437.31,261.82c-5.57,.03-10.25,3.41-10.22,9.89,.03,6.48,4.8,11.79,10.37,11.77"/>
          <path class="cls-57" d="M437.54,265.17c-3.63,.02-6.67,2.22-6.65,6.44s3.13,7.68,6.75,7.66"/>
          <path class="cls-36" d="M437.32,254.14s16.46-5.52,43.21-.91c0,0-20.35,8.34-43.21,.91Z"/>
        </g>
        <circle class="cls-11" cx="428.18" cy="371.24" r="50.63"/>
        <circle class="cls-11" cx="155.93" cy="89.23" r="50.63"/>
        <polygon class="cls-32" points="449.71 344.17 499.69 344.17 494.47 438.17 455.68 438.17 449.71 344.17"/>
        <polygon class="cls-32" points="506.89 344.17 556.87 344.17 551.65 438.17 512.86 438.17 506.89 344.17"/>
        <polygon class="cls-32" points="568.47 344.17 618.45 344.17 613.23 438.17 574.44 438.17 568.47 344.17"/>
        <g>
          <rect class="cls-49" x="178.77" y="101" width="61.52" height="61.33" rx="9.73" ry="9.73"/>
          <path class="cls-48" d="M183.61,126.54l.37,25.17s-.37,5.78,4.85,6.15h42.87s3.91-1.86,3.73-7.27v-20.88s-4.47,.75-6.9-1.12-10.81-.56-13.42,2.24-11.56,2.61-13.79-1.68-13.79-5.78-17.71-2.61Z"/>
          <rect class="cls-54" x="185.66" y="88.51" width="46.98" height="12.49" rx="3.31" ry="3.31"/>
        </g>
        <g>
          <rect class="cls-49" x="242.63" y="101" width="61.52" height="61.33" rx="9.73" ry="9.73"/>
          <path class="cls-44" d="M247.48,126.54l.37,25.17s-.37,5.78,4.85,6.15h42.87s3.91-1.86,3.73-7.27v-20.88s-4.47,.75-6.9-1.12-10.81-.56-13.42,2.24-11.56,2.61-13.79-1.68-13.79-5.78-17.71-2.61Z"/>
          <rect class="cls-54" x="249.53" y="88.51" width="46.98" height="12.49" rx="3.31" ry="3.31"/>
        </g>
        <g>
          <rect class="cls-49" x="491.03" y="535.9" width="61.52" height="61.33" rx="9.73" ry="9.73"/>
          <path class="cls-48" d="M495.87,561.44l.37,25.17s-.37,5.78,4.85,6.15h42.87s3.91-1.86,3.73-7.27v-20.88s-4.47,.75-6.9-1.12-10.81-.56-13.42,2.24-11.56,2.61-13.79-1.68-13.79-5.78-17.71-2.61Z"/>
          <rect class="cls-54" x="497.92" y="523.41" width="46.98" height="12.49" rx="3.31" ry="3.31"/>
        </g>
        <g>
          <rect class="cls-49" x="554.9" y="535.9" width="61.52" height="61.33" rx="9.73" ry="9.73"/>
          <path class="cls-34" d="M559.74,561.44l.37,25.17s-.37,5.78,4.85,6.15h42.87s3.91-1.86,3.73-7.27v-20.88s-4.47,.75-6.9-1.12-10.81-.56-13.42,2.24-11.56,2.61-13.79-1.68c-2.24-4.29-13.79-5.78-17.71-2.61Z"/>
          <rect class="cls-54" x="561.79" y="523.41" width="46.98" height="12.49" rx="3.31" ry="3.31"/>
        </g>
        <rect class="cls-24" x="13.97" y="14.41" width="612.03" height="582.56"/>
        <line class="cls-5" x1="317.24" y1="6.82" x2="317.24" y2="609.27"/>
        <line class="cls-7" x1="315.2" x2="315.2" y2="608.96"/>
      </g>
    </g>
  </g>
  <g id="Layer_1" data-name="Layer 1">
    <rect class="cls-1" x="340.61" y="225.2" width="824.81" height="979.53"/>
    <rect class="cls-1" x="184.45" y="634.74" width="361.52" height="570.87"/>
    <polygon class="cls-35" points="965.16 1022.71 77.12 1022.71 77.12 1093.17 1058.11 1093.17 965.16 1022.71"/>
    <rect class="cls-61" x="77.12" y="1092.87" width="980.99" height="52.5"/>
    <rect class="cls-18" x="77.12" y="1145.18" width="924.35" height="60.41"/>
    <g>
      <polygon class="cls-29" points="979.05 1029.28 77.9 1029.28 78.55 1074.25 1038.23 1074.25 979.05 1029.28"/>
      <ellipse class="cls-26" cx="150.42" cy="1041.82" rx="10.97" ry="5.32"/>
      <ellipse class="cls-26" cx="221.06" cy="1059.43" rx="10.97" ry="5.32"/>
      <ellipse class="cls-26" cx="294.5" cy="1041.91" rx="10.97" ry="5.32"/>
      <ellipse class="cls-26" cx="364.84" cy="1059.28" rx="10.97" ry="5.32"/>
      <ellipse class="cls-26" cx="444.66" cy="1041.82" rx="10.97" ry="5.32"/>
      <ellipse class="cls-26" cx="515.29" cy="1059.43" rx="10.97" ry="5.32"/>
      <ellipse class="cls-26" cx="614.97" cy="1041.91" rx="10.97" ry="5.32"/>
      <ellipse class="cls-26" cx="685.32" cy="1059.28" rx="10.97" ry="5.32"/>
      <ellipse class="cls-26" cx="765.14" cy="1041.82" rx="10.97" ry="5.32"/>
      <ellipse class="cls-26" cx="835.77" cy="1059.43" rx="10.97" ry="5.32"/>
      <ellipse class="cls-26" cx="919.15" cy="1041.91" rx="10.97" ry="5.32"/>
      <ellipse class="cls-26" cx="989.5" cy="1059.28" rx="10.97" ry="5.32"/>
    </g>
    <polygon class="cls-23" points="479.92 1033.32 544.28 1066.98 770.42 1066.98 706.65 1032.14 479.92 1033.32"/>
    <g>
      <g>
        <path class="cls-40" d="M518.62,892.08l.71,10.71c20.71,17.14,85.57,73.6,85.57,73.6,0,0,9.96,4.84,24.07,2.27,14.11-2.57,44.85-9.15,44.85-9.15,0,0,7.43-3.77,18.11,7.36l19.05,14.02s5.65,2.76,3.88,9.28c0,0-5.24,22.65-9.6,26.35,0,0-4.25,5.55-11.63,3.54,0,0-4.74,5.11-9.67,1.94,0,0-.72,7.12-14.26,3.13-13.55-3.99-8.65-13.02-8.65-13.02,0,0-23.57,4.87-36.73-.54s-21.44-8.57-21.44-8.57l-9.44-2.26s-69.81-3.69-110.53-30.12l-55.71-42.14"/>
        <path class="cls-19" d="M661.06,1022.13s1.24-1.45,4.39,.56c0,0,4.34,5.37,18.52,9.33"/>
        <path class="cls-19" d="M670.97,1017.71s-5.95-.23-5.52,4.98"/>
        <path class="cls-19" d="M698.5,1002.13s1.54-5.97,5.05-7.41"/>
        <path class="cls-19" d="M674.39,991.01s2.1-4.26,1.79-9.87"/>
        <path class="cls-22" d="M737.73,937.65l-77.27,102.18-5.51,12.53,11.25-6.56,77.27-102.18s3.69-7.22-5.74-5.97Z"/>
        <path class="cls-3" d="M690.64,999.84c-8.39-3.35-16.24-8.83-16.24-8.83,0,0-1.05,3.71-4.78,5.43"/>
        <path class="cls-3" d="M698.5,1008.84c-1.6-1.96,0-6.71,0-6.71"/>
        <path class="cls-16" d="M638.56,1016.32s13.93,2.57,21.38-2.42c0,0,16.02,1.61,33.7,16.17,0,0,14.99,3.16,11.83-9.89-3.16-13.05-36.34-23.29-36.34-23.29"/>
        <polyline class="cls-10" points="468.6 832.48 466.03 887.44 478.91 1001.64"/>
      </g>
      <path class="cls-62" d="M471.79,791.95c19.24-3.25,14.33-20.64,14.33-20.64,10.92,.49,8.67-18.66,8.67-18.66,13.53-6.26,6.42-21.36,6.42-21.36,6.92-10.34-3.4-24-3.4-24,11.08-13.22-3.24-20.51-3.24-20.51,10.2-13.54-5.33-27.68-5.33-27.68,7.68-13.27,4.71-24.72,4.71-24.72,11.01-16.95,.65-30.03,.65-30.03,10.46-13.38,1.29-23.38,1.29-23.38,9.12-12.64-2.02-23.26-2.02-23.26,8.76-14.17-5.77-22.78-5.77-22.78,2.46-16.23-10.45-21.14-10.45-21.14-2.03-16.14-19.08-21.51-19.08-21.51-9.76-13.35-23.22-13-23.22-13-15.66-13.13-30.84-7.53-30.84-7.53-15.88-11.91-41.41-5.24-41.41-5.24-21.63-8.93-45.54,7.35-45.54,7.35-21.58-3.94-26.6,18.54-26.6,18.54-19.24,3.25-17.57,23.46-17.57,23.46-13.71-2.62-19.06,12.12-19.06,12.12-14.34-1.3-16,17-16,17-12.68,2.34-9.61,18.08-9.61,18.08-13.12,7.29-4.62,18.03-4.62,18.03-10.83,9.49-2.15,18.25-2.15,18.25-10.2,13.54-3.32,23.5-3.32,23.5-11.42,4.95-4.23,17.24-4.23,17.24-14.44,6.17-4.05,19.62-4.05,19.62-13.39,4.77-11.3,18.86-11.3,18.86-11.28,3.47-9.12,21.54-9.12,21.54-10.7,8.01-4.93,26.56-4.93,26.56-18.52,8.87-10.56,28.16-10.56,28.16-13.88,13.51-2,26.82-2,26.82-7.15,13.22-2.34,21.54-2.34,21.54,0,0-17.22,28.42,13.21,29.87"/>
      <path class="cls-40" d="M307.49,653.45s34.02,70.13-21.21,85.4c0,0,10.62,44.18,10.62,64.35,0,0,95.41,32.75,166.16,4.81,0,0-36.33-48.38-42.63-78,0,0-9.3-8.04-5.52-18.13l-107.41-58.44Z"/>
      <path class="cls-40" d="M446.35,545.35s18.22,4.33,17.02,47.25c0,0-4.04,13.62-2.56,22.09,1.48,8.47-1.57,34.89-6.45,49.84-4.88,14.96-17.85,39.77-42.78,49.39-24.93,9.62-60.85-13.58-60.85-13.58,0,0-36.81-22.25-43.24-46.9,0,0-15.7,13.98-28.9,.28-13.2-13.7-25.91-46.93-9.23-54.09,14.32-6.14,25.16,13.16,27.95,18.76,.46,.92,.7,1.47,.7,1.47,0,0,48.17-48.99,45.65-85.49,0,0,22.25,21.14,51.58,14.22,0,0,32.3,17.07,51.1-3.26Z"/>
      <path class="cls-51" d="M387.8,584.28s-23.7-6.52-44.91-.18c0,0,10.76-12.69,45.74-5.53,0,0,5.69,3.84-.83,5.71Z"/>
      <path class="cls-51" d="M463.25,592.88c-16.53-5.03-28.88-4.35-28.88-4.35-5.99-3.19,.37-5.76,.37-5.76,11.13,.09,23.24,3.05,29.57,5.05,0,0-.15,5.34-1.05,5.06Z"/>
      <path class="cls-41" d="M377.16,661.31s13.01-2.76,27.69,2.88c0,0,13.26-1.43,24.75,2.24,0,0-3.2,20.91-23.35,23.78-20.15,2.87-30.58-16.65-29.09-28.89Z"/>
      <path class="cls-28" d="M380.19,663.09s-1.87,18.59,22.32,20.78c21.97,1.99,23.64-14.56,23.64-14.56,0,0-24.85-1.12-45.96-6.22Z"/>
      <path class="cls-23" d="M383.16,663.63s5.22,9.16,24.02,9.95c0,0,11.49,1.62,16.89-4.08,0,0-24.18-1.66-40.91-5.87Z"/>
      <path class="cls-4" d="M417.89,619.16s10.13,9.41,2.35,19.32c0,0-5.94,5.48-12.74,4.58"/>
      <path class="cls-62" d="M414.91,711.89s-20.57,12.45-56.24-7.13c0,0-11.99-4.91-30-20.89,0,0,7.53,18.99,43.37,30.85,0,0,21.18,7.38,41.99,3.29,0,0,2.25-3.6,.89-6.13Z"/>
      <path class="cls-59" d="M285.33,530.74s-3.19,16.96,12.06,22.17c15.24,5.21,12.71-18.58,12.71-18.58,0,0,23.77,.86,22.82-8.31-.95-9.18-14.43-23.21-18.89-17.47-4.46,5.74-6.25,17.61-6.25,17.61,0,0-18.67-1.16-22.45,4.58Z"/>
      <path class="cls-14" d="M268.17,621.55s8.34-10.45,15.53,1.63c7.2,12.07,7.3,15.89,7.3,15.89,0,0-10.15-19.06-16.12-5.04"/>
      <g>
        <path class="cls-27" d="M288.96,608.62s9.04,14.27-1.77,19.55c-10.8,5.28,6.6,3.1,6.6,3.1,0,0,12.25-3.92-.08-26.77l-4.75,4.12Z"/>
        <path class="cls-23" d="M287.19,628.17s-4.21-15.71-15.04-13.56c-10.83,2.15-1.34,21.78-1.34,21.78,0,0,2.71,4.63,8.64,4.85,0,0-4.66-10.75,7.75-13.07Z"/>
        <path class="cls-52" d="M263.53,606.55s-9.12,3.95-5.29-6.05c3.82-10.01,18.85-8.91,23.52-7.7,4.67,1.22,11.3,4.21,11.95,11.7,.65,7.49-9.02-.02-9.02-.02,0,0-11.52-10.6-21.16,2.07Z"/>
      </g>
      <g>
        <path class="cls-23" d="M358.98,602.21s.03-.75,.62-1.34c1.94-1.96,6.38-5.59,13.03-5.24,7.45,.39,11.18,7.61,12.45,10.18,.22,.44,.18,.82,.18,.82,0,0,0,.42-.26,.69-1.26,1.32-5.43,4.96-12.49,4.69-4.2-.16-9.97-2.73-13.32-8.62-.23-.41-.22-.92-.2-1.19Z"/>
        <circle class="cls-62" cx="374.27" cy="604.34" r="7.71"/>
        <circle class="cls-23" cx="370.01" cy="600.59" r="2.12"/>
        <path class="cls-7" d="M385.53,605.84s-8.12-18.25-26.22-5.05"/>
      </g>
      <g>
        <path class="cls-23" d="M430.54,609.44s-.07-.69,.38-1.32c1.51-2.07,5.06-6.03,11.21-6.64,6.88-.69,11.32,5.4,12.85,7.58,.26,.38,.28,.73,.28,.73,0,0,.06,.38-.14,.67-.97,1.39-4.28,5.31-10.79,6.06-3.87,.45-9.53-1.09-13.43-6.02-.27-.34-.34-.81-.35-1.06Z"/>
        <circle class="cls-62" cx="444.87" cy="609.22" r="7.13"/>
        <circle class="cls-23" cx="440.71" cy="605.94" r="2"/>
        <path class="cls-7" d="M455.12,609.28s-9.59-16.63-24.38-.86"/>
      </g>
      <path class="cls-23" d="M476.14,932.75c0,6.26,7.65,89.98,7.65,89.98,0,0-.07,1.66-241.9,.39l-1.11-66.61s-50.94-32.56-49.77-60.34c0,0,15.02-82.12,28.69-109.73,0,0,16.13-36.35,46.73-46.91,28.32-9.78,45.62-16.32,45.62-16.32-2.97,26.7,28.28,61.43,28.28,61.43l40.36-23.49,44.48,16.2c13.35-16.32-11.13-59.34-11.13-59.34l42.92,19.75c39.96,15.19,45.91,37,45.91,37,0,0,19.55,60.59,31.79,107.32l-57.88,34.01"/>
      <path class="cls-25" d="M414.02,718.02s35.23,11.25,11.13,59.34l-44.48-16.2-40.36,23.49s-39.96-27.31-32.36-64.03c0,0,3.58-8.49,6.55-7.75,0,0,28.33,41.8,66.17,48.29,0,0,37.07-8.74,33.35-36.46v-6.68Z"/>
      <path class="cls-17" d="M282.63,910.06s10.88-43.51,8.37-83.68"/>
      <g>
        <polygon class="cls-25" points="363.65 1002.8 373.9 986.62 267.56 842.18 180.56 872.89 175.44 878.01 127.1 863.22 121.72 876.35 162.93 919.52 363.65 1002.8"/>
        <polygon class="cls-55" points="257.2 860.86 179.78 878.93 173.33 885.38 121.72 876.35 217.2 1005.38 252.04 1002.8 253.97 1007.96 266.87 1002.15 363.65 1002.8 257.2 860.86"/>
        <line class="cls-6" x1="179.78" y1="878.93" x2="257.32" y2="991.17"/>
        <line class="cls-6" x1="173.33" y1="885.38" x2="249.88" y2="998.68"/>
        <line class="cls-6" x1="172.77" y1="901.05" x2="148.19" y2="899.93"/>
        <path class="cls-40" d="M166.73,941.13s.51-24.07-15.36-25.6c0,0,3.58,17.41,5.63,29.19,2.05,11.78,11.78,14.85,11.78,14.85,0,0-.51,17.41,14.34,17.92,0,0-.51,12.8,15.87,9.73,0,0,4.61,8.71,9.73,7.17,0,0,12.46-3.77,15.34-10.48s-8.62-6.71-8.62-6.71l-9.58,3.19s16.6-10.86,17.88-19.16c1.28-8.3-7.66-6.71-7.66-6.71l-18.52,13.09,22.03-21.39s3.51-10.54-9.26-8.94c-12.77,1.6-24.91,14.69-24.91,14.69l14.05-20.12s1.92-13.41-7.98-10.22-24.76,19.49-24.76,19.49Z"/>
        <path class="cls-9" d="M185.42,951.98s-7.04,10.71-16.64,7.59"/>
        <path class="cls-9" d="M197.55,967.63s-5.52,7.99-14.44,9.86"/>
        <line class="cls-9" x1="205.86" y1="980.4" x2="198.99" y2="987.22"/>
        <path class="cls-9" d="M166.73,941.13s2.91,9.81-2.89,15.13"/>
      </g>
    </g>
    <g>
      <path class="cls-53" d="M1104.06,816.76s-30.49,68.65,7.78,159.52c0,0,13.73,81.32,8.75,106.03,0,0-17.12,45.57-2.92,123.53,0,0,49.73,1.31,94.47-.5l21.16-109.57s14.41-38.95,17.8-91.67l18.02-143.82"/>
      <path class="cls-43" d="M1223.03,533.29s-2.8,21.97,.66,28.21c3.46,6.24,21.24,21.89,19.5,35.94s-36.37,7.8-36.37,7.8c0,0-55.06-28.01-71.27-68.24,0,0,11.43-10.79,17.04-49.31"/>
      <polyline class="cls-43" points="1284.07 627.96 1311.3 722.32 1411.57 787 1387.55 810.93 1264.56 763.53"/>
      <path class="cls-47" d="M1136.05,537s-64.27,10.43-73.09,130.76c0,0,2.59,22.85,48.18,21.29l-18.5,155.99s136.36,53.4,181.29,16.85l4.57-177.22,21.94-4.02-6.36-41.61s-24.89-80.19-72.31-80.19c0,0-1.11,11.46-8.04,17.8-.95,.87,0,18.87-3.5,17.46-3.5-1.41-11.44-22.25-13.13-22.38-27.47-2.18-32.75-8.65-61.05-34.72Z"/>
      <path class="cls-12" d="M1278.5,684.67s.87-34.75-7.32-54.24"/>
      <rect class="cls-39" x="1263.71" y="922.69" width="147.79" height="282.93"/>
      <polygon class="cls-39" points="1263.71 922.21 1327.29 865.84 1411.54 865.84 1411.54 922.21 1263.71 922.21"/>
      <polygon class="cls-56" points="1280.67 914.9 1340.98 858.53 1411.66 858.53 1412.25 914.9 1280.67 914.9"/>
      <ellipse class="cls-8" cx="1349.3" cy="901.39" rx="21.53" ry="8.79"/>
      <path class="cls-30" d="M1411.04,882.12c-7.41,.65-15.56,1.01-24.11,1.01-34.21,0-61.94-5.74-61.94-12.81v-71.55h85.95"/>
      <path class="cls-15" d="M1411.57,787c-7.55-.68-15.88-1.05-24.63-1.05-34.21,0-61.94,5.74-61.94,12.81s27.73,12.81,61.94,12.81c8.55,0,16.7-.36,24.11-1.01"/>
      <path class="cls-33" d="M1332.15,804.01s13.61-8.81,78.93-7.04l-.02,12.65s-43.75,5.15-78.92-5.6Z"/>
      <path class="cls-60" d="M1300.13,689.23l79.56,117.3,6.03-3.02-76.31-120.67s-12.36-11.15-9.27,6.38Z"/>
      <path class="cls-43" d="M1278.15,743.54c-5.57-1-9.53-.85-9.53-.85-140.37,35.88-184.65,9.18-196.68-1.28-12.03-10.46-1.98-69.34-1.98-69.34,0,0,24.26,11.31,65.59,17.91l.45,7.84,135.03,14.54s4.43,.64,11.3,1.86l4.44,.27c15.59-2.27,26.21-.71,26.21-.71,43.6,4.41,53.04,12.5,53.04,12.5,5.22,9.19-9.44,10.85-9.44,10.85,1.41,10.11-10.25,9.19-10.25,9.19,.6,9.01-8.24,12.5-8.24,12.5,.2,7.35-9.07,6.21-9.07,6.21-7.23-.74-17.05-7.8-17.05-7.8l-11.44-5.58-8.89-4.86-13.47-3.26Z"/>
      <path class="cls-12" d="M1141.94,681.96s18.17-46.92,15.54-71.14"/>
      <path class="cls-3" d="M1277.84,713.11l8.91,1.38s37.21-6.54,79.25,11.8c0,0,5.98,8.76-9.44,10.85,0,0-7.22-5.71-16.08-6.91"/>
      <path class="cls-3" d="M1331.65,738.68c8.55,.6,14.81,7.4,14.81,7.4,0,0,10.85,2.22,9.89-9.19"/>
      <path class="cls-3" d="M1327.02,750.09c4.11,1.2,10.97,8.5,10.97,8.5,0,0,10.55-3.4,7.95-12.5"/>
      <path class="cls-3" d="M1337.82,758.69s.11,7.59-9.07,6.11c-9.18-1.48-17.05-7.68-17.05-7.68l-20.33-10.26-13.47-3.21"/>
      <line class="cls-6" x1="1250.14" y1="1005.51" x2="1250.14" y2="900.27"/>
      <line class="cls-8" x1="1324.66" y1="901.58" x2="1332.24" y2="901.58"/>
      <line class="cls-8" x1="1366.48" y1="901.58" x2="1374.06" y2="901.58"/>
      <line class="cls-8" x1="1349.29" y1="913.43" x2="1349.37" y2="906.82"/>
      <line class="cls-8" x1="1348.97" y1="896.25" x2="1349.05" y2="889.64"/>
      <path class="cls-31" d="M1144.66,519.4s-12.61,9.83-15.29,20.3c0,0,27.5,25.39,52.34,39.41,0,0,2.46-10.24,15.39-7.39,0,0-53.34-25.74-52.44-52.31Z"/>
      <path class="cls-31" d="M1222.5,541.7s14.62,2.31,9.69,31.25c-.58,3.4-16.48-.42-18.47,3.69l8.04-17.8,.73-17.15Z"/>
      <path class="cls-31" d="M1062.96,667.76s51.41,23.59,77.19,18.53l-1.84,6.91s-59.39,3.68-75.51-16.11l.16-9.32Z"/>
      <polygon class="cls-31" points="1299.22 676.53 1300.13 689.23 1278 695.5 1278 679.75 1299.22 676.53"/>
      <path class="cls-62" d="M1212.42,541.16s-15.4,1.11-27.77-5.03c0,0-7.59-2.51-17.48-14.28,0,0,9.47,17.25,28.23,19.97,0,0,8.38,2.11,17.01-.67,0,0-.45,1.82,0,0Z"/>
      <path class="cls-43" d="M1261.4,418.32s7.53,17.27-2.58,53.08c0,0-3.29,8.43-3.31,13.33-.02,4.91-1.6,12.75-4.41,17.43-2.8,4.68-22.76,35.79-22.76,35.79,0,0-6.27,8.92-23.48,5.61-17.21-3.31-30.5-12.56-35.21-21.06-4.7-8.5-17.78-23.37-17.05-34.81,0,0-10.67,.25-12.33-12.86,0,0-7.22-21.32,4.88-24.03,12.1-2.71,15.4,13.95,15.4,13.95,0,0-3.99-47.86,24.93-60.28,0,0,36.55-19.69,75.91,13.86Z"/>
      <path class="cls-41" d="M1200.11,501.84s9.21-.57,18.46,5.23c0,0,9.21,.44,16.54,4.43,0,0-4.47,18.54-18.21,15.44-17.13-3.86-19.42-16.27-16.79-25.1Z"/>
      <path class="cls-28" d="M1201.99,503.31s-3.45,12.4,12.71,16.73c14.68,3.93,17.76-7.11,17.76-7.11,0,0-16.74-3.68-30.48-9.63Z"/>
      <path class="cls-51" d="M1218.36,453.37s-12.75-9.02-26.91-5.93c0,0,9.3-10.25,28.69,.8,0,0,2.55,4.25-1.78,5.13Z"/>
      <path class="cls-51" d="M1261.9,462.97c-9.66-4.59-15.61-2.12-15.61-2.12-3.32-2.93,1.02-5.33,1.02-5.33,6.95,.04,12.03,1.37,15.71,3.2,0,0-.59,4.51-1.12,4.26Z"/>
      <path class="cls-23" d="M1203.94,504.02s2.47,6.83,15.14,9.58c0,0,7.61,2.45,11.95-.78,0,0-16.22-3.97-27.09-8.79Z"/>
      <path class="cls-7" d="M1142.85,458.82s5.77-5.12,8.67,2.46,2.59,9.76,2.59,9.76c0,0-3.89-11.84-8.67-4.45"/>
      <g>
        <path class="cls-23" d="M1198.88,459.3s.09-.42,.48-.69c1.29-.92,4.13-2.53,7.84-1.68,4.15,.95,5.55,5.37,6.01,6.94,.08,.27,.02,.48,.02,.48,0,0-.04,.23-.21,.36-.84,.62-3.54,2.26-7.48,1.42-2.35-.5-5.35-2.51-6.66-6.15-.09-.25-.04-.54,0-.69Z"/>
        <circle class="cls-62" cx="1207.28" cy="461.99" r="4.4"/>
        <circle class="cls-23" cx="1205.08" cy="459.33" r="1.21"/>
        <path class="cls-7" d="M1213.47,463.94s-2.79-11.07-14.26-5.4"/>
      </g>
      <g>
        <path class="cls-23" d="M1242.45,472.79s.03-.4,.35-.71c1.06-1.04,3.48-2.94,7.05-2.68,4,.29,5.93,4.2,6.58,5.59,.11,.24,.09,.44,.09,.44,0,0,0,.22-.15,.37-.69,.69-2.97,2.61-6.76,2.39-2.25-.13-5.33-1.57-7.07-4.76-.12-.22-.11-.49-.1-.64Z"/>
        <circle class="cls-62" cx="1250.65" cy="474.08" r="4.13"/>
        <circle class="cls-23" cx="1248.09" cy="471.96" r="1.16"/>
        <path class="cls-7" d="M1256.49,475.13s-3.83-10.44-13.83-2.9"/>
      </g>
      <path class="cls-20" d="M1165.27,385.74s-22.24,15.75-24.17,67.11c0,0,17.34-10.54,16.61,16.85l5.72,1.16s-6.73-42.85,14.2-48.95l-12.36-36.17Z"/>
      <path class="cls-51" d="M1222.94,543.28c-9.74,4.38-17.22,1.02-17.22,1.02-8.32,.1-17.73-5.05-17.73-5.05-16.24-6.25-22.36-22.76-22.36-22.76,11.43,17.81,14.47,17.86,17.24,18.41,5.75,1.14,5.74-6.74,5.74-6.74,2.55-15.3,11.15-26.58,11.15-26.58,0,0-10.14,26.01,12.06,31.96,14.73,3.94,23.9-22.06,23.9-22.06-2.25,13.35-6.78,22.55-9.79,27.5,0,0-1.03,2.04,3.36-2.65,0,0-2.04,5.02-6.33,6.95Z"/>
      <path class="cls-58" d="M1199.76,501.58s7.35-2.01,12.92-.8c0,0,6.09,1.23,6.52-.38,0,0,2.87,1.12,7.43,1.81,0,0-.46,.74,1.5,2.55,1.96,1.82,6.53,2.78,7.59,6.71,0,0-4.86-2.96-16.99-4.55,0,0-7.01-4.69-18.96-5.35Z"/>
      <path class="cls-7" d="M1233.37,482.5s3.86,3.43,1.45,8.49c-3.12,6.54-11.44,3.83-11.44,3.83"/>
      <path class="cls-63" d="M1163.43,470.85s-1.56,37.87,2.19,45.65c0,0-10.15-29.01-7.92-46.8l5.72,1.16Z"/>
      <path class="cls-51" d="M1165.27,385.74c33.45-24.64,64.18-8.68,82.98,5.29,16.67,12.39,14.19,31.25,14.19,31.25-24.65,14.78-79.92-13.93-79.92-13.93l-4.9,13.56"/>
    </g>
  </g>
</svg>