<?xml version="1.0" encoding="UTF-8"?>
<svg xmlns="http://www.w3.org/2000/svg" xmlns:xlink="http://www.w3.org/1999/xlink" viewBox="0 0 1334.06 1756.35">
  <defs>
    <style>
      .cls-1, .cls-2, .cls-3, .cls-4, .cls-5, .cls-6, .cls-7, .cls-8, .cls-9, .cls-10 {
        fill: none;
      }

      .cls-2 {
        stroke: #fbb040;
      }

      .cls-2, .cls-3 {
        stroke-width: 1.5px;
      }

      .cls-2, .cls-3, .cls-4, .cls-5, .cls-11, .cls-12, .cls-6, .cls-7, .cls-8, .cls-9, .cls-10, .cls-13 {
        stroke-miterlimit: 10;
      }

      .cls-3, .cls-4, .cls-6, .cls-10 {
        stroke: #231f20;
      }

      .cls-14 {
        clip-path: url(#clippath);
      }

      .cls-4 {
        stroke-width: 1.3px;
      }

      .cls-15 {
        fill: #f9edde;
      }

      .cls-16, .cls-11 {
        fill: #fff;
      }

      .cls-17 {
        fill: #f16225;
      }

      .cls-18 {
        fill: #803435;
      }

      .cls-19 {
        fill: #8b5e3c;
      }

      .cls-20, .cls-12, .cls-13 {
        fill: #be9e7d;
      }

      .cls-21 {
        fill: #be8c8c;
      }

      .cls-22 {
        fill: #bf6b6b;
      }

      .cls-23 {
        fill: #dc3b28;
      }

      .cls-24 {
        fill: #231f20;
      }

      .cls-25 {
        fill: #1fa8df;
      }

      .cls-26 {
        fill: #0f3e5d;
      }

      .cls-27 {
        fill: #3c2415;
      }

      .cls-28 {
        fill: #59bede;
      }

      .cls-29 {
        fill: #26130f;
      }

      .cls-5 {
        stroke-linecap: round;
      }

      .cls-5, .cls-9 {
        stroke: #fff;
      }

      .cls-11 {
        stroke: #808285;
      }

      .cls-12, .cls-8, .cls-13 {
        stroke: #603913;
      }

      .cls-7 {
        stroke: #2e3192;
      }

      .cls-9 {
        stroke-width: .3px;
      }

      .cls-10 {
        stroke-width: 1.2px;
      }

      .cls-13 {
        stroke-width: .7px;
      }
    </style>
    <clipPath id="clippath">
      <rect class="cls-1" x="203.35" y="44.82" width="728.36" height="955.95"/>
    </clipPath>
  </defs>
  <g id="Layer_2" data-name="Layer 2">
    <rect class="cls-15" width="1334.06" height="1000.32"/>
  </g>
  <g id="Layer_1" data-name="Layer 1">
    <g class="cls-14">
      <g>
        <path class="cls-20" d="M651.17,569.89l9.43,102.77c29.42,.66,121.91,9.15,121.91,9.15,5.64,.07,11.14,.22,16.42,.46,0,0,12.84-25.65,62.17-21.27l33.55-8.55s19.7,.19,7.51,15.12c0,0-12.18,5.94-22.05,8.93l16.36,18.35s.01-3.52,11.63,3.25c9.44,5.51,5.57,7.39,5.57,7.39,0,0,13.57-9.1,28.98-15.28,10.03-4.02,15.83-11.5,25.03-3.66,0,0,7.81,8.22-8.33,17.26l-33.77,26.19-63.68,4.93-43.63-8.05-17.4,7.68s-127.32,48.49-180.79,40.15c-53.47-8.35-51.89-128.54-51.89-128.54"/>
        <path class="cls-20" d="M410,272.36s1.96,55.61-15.02,87.53c0,0-23.49,152.9,101.21,164.83,0,0,94.76-19.12,46.01-143.45,0,0-21.92-10.22-21-32,.97-23.07,2.95,.58,2.95,.58l-114.15-77.49"/>
        <path class="cls-19" d="M388.31,1675.34s-4.78,41.07,21.45,39.06c0,0,32.71,6.07,57.36,2.98,0,0,20.91-1.38,36.97,7.39,0,0,93.91,25.26,140.02-15.47,0,0,3.93-5.53,.16-12.6"/>
        <path class="cls-20" d="M407.26,1584.58l-3.96,26.83s-12.51,70.23,108.97,78.08c105.63,6.82,57.52-29.31,57.52-29.31,0,0-31.2-21.9-72.89-42.24,0,0-12.01-4.35-13.64-18.02-2.1-17.55-50.22,6.61-76.01-15.35Z"/>
        <path class="cls-29" d="M404.56,1608.93s-8.41,13.79,12.01,25.33c20.41,11.55,53.15,40.99,112.58,51.3,0,0,50.22,5.49,40.65-25.37,0,0,20.78,10.23,57.08,19.72,36.29,9.49,7.06,30.32,7.06,30.32,0,0-51.77,27.95-127.09,6.08,0,0-30.61-17.1-69.22-20.87-38.61-3.77-49.32-20.1-49.32-20.1,0,0-6.06-18.28,7.09-41.36,0,0,2.36-4.86,2.05-11.32,0,0-4.72-8.41,7.12-13.73Z"/>
        <path class="cls-19" d="M284.22,1685.9s-7.2,43.65,20.93,42.83c0,0,34.65,8.15,61.15,6.11,0,0,22.42-.41,39.14,9.78,0,0,99.06,31.8,150.43-9.38,0,0,4.48-5.71,.82-13.45"/>
        <path class="cls-20" d="M309.12,1589.88l-5.6,28.47s-16.96,74.42,112.47,89.01c112.53,12.69,62.97-28.38,62.97-28.38,0,0-32.23-25-75.74-48.86,0,0-12.61-5.26-13.66-19.95-1.35-18.87-54.01,4.49-80.44-20.29Z"/>
        <path class="cls-26" d="M247.33,832.75s-82.21,176.07-4.12,326.67l27.27,121.94s20.27,51.22,12.8,129.11c-4.75,49.54,7.06,119.69,19.61,185.22,0,0,33.27,34.37,92.31,6.4,0,0,49.95,20.55,105.73-5.95l90.36-214.9s23.84-37.37,23.84-76.41c0,0,18.51-274.9-3.8-451.99,0,0-151.99,105.98-364-20.09Z"/>
        <path class="cls-20" d="M434.62,226.05s28.66-113.13,132.39-99.84c0,0,72.69,15.49,46.48,117.22,0,0-7.46,15.63-6.53,24.96,0,0,.94,23.68-14.49,42.54-23.1,28.23-43.89,47.57-43.89,47.57,0,0-13.08,13.05-38.54,8.01,0,0-17.74-4.26-37.39-23.62,0,0-51.94-38.19-41.91-71.33,0,0-28.62,11.43-31.43-30.85,0,0,1.86-57.34,35.32-14.65Z"/>
        <path class="cls-29" d="M537.47,205.37s-35.54-10.74-51.73,1.03c0,0,11.95-18.66,52.53-9.49,0,0,7.18,5.33-.8,8.46Z"/>
        <path class="cls-29" d="M620.19,225.34c.07-2.02-16.12-9.93-32.54-13.71,0,0-8.78,1.69-2.95,7.97,0,0,31.46,2.96,31.71,13.7,0,0,3.6-2.98,3.78-7.96Z"/>
        <path class="cls-3" d="M564.32,267.17s9.57,24.11-15.63,21.23"/>
        <path class="cls-3" d="M405.13,230.16s14.07-21.73,23.96,20.3c0,0-11.78-20.17-17.66-6.36"/>
        <path class="cls-29" d="M525.16,367.32s-9.41,5.53-34.55-9.94c0,0-22.07-13.14-38.13-33.03,0,0,18.74,32.77,51.25,44.16,0,0,8.33,4.59,21.93,2.83,0,0-.48-1.7-.51-4.02Z"/>
        <path class="cls-6" d="M395.21,1602.1l65.21-255.61s8.31-49.88,4.16-114.32l-8.31-178.75s11.64-2.44,23.36-15.06"/>
        <path class="cls-29" d="M304.99,1615.76s-9.69,14.31,11.54,27.69c21.23,13.38,54.71,46.52,117.69,60.57,0,0,53.38,8.43,44.74-25.04,0,0,21.69,12,59.99,24,38.3,12,6,32.76,6,32.76,0,0-56.76,27.23-136.13,0,0,0-31.84-19.84-72.91-25.84-41.07-6-51.68-24-51.68-24,0,0-5.54-19.84,9.69-43.84,0,0,2.77-5.08,2.77-12,0,0-4.61-9.23,8.31-14.31Z"/>
        <path class="cls-9" d="M557.39,1736.28s7.23-29.8-18.45-33.31c-22.68-3.1-59.99-24-59.99-24,0,0-40.99-31.01-54.8-37.36,0,0-23.22-13.21-27.31-15.08"/>
        <g>
          <path class="cls-16" d="M494.59,224.05s.13-.76,.8-1.29c2.23-1.76,7.22-4.89,13.95-3.69,7.55,1.35,10.43,9.18,11.4,11.96,.17,.48,.07,.86,.07,.86,0,0-.05,.42-.36,.67-1.45,1.18-6.17,4.37-13.33,3.2-4.26-.69-9.83-4.05-12.49-10.48-.19-.45-.11-.96-.05-1.24Z"/>
          <circle class="cls-29" cx="509.92" cy="228.17" r="7.92"/>
          <circle class="cls-16" cx="507.21" cy="222.93" r="2.17"/>
          <path class="cls-4" d="M521.21,231.14s-5.96-19.65-26.1-8.48"/>
        </g>
        <g>
          <path class="cls-16" d="M581.36,246.16s.01-.72,.56-1.31c1.82-1.95,6.01-5.58,12.45-5.42,7.21,.18,11.02,7.04,12.31,9.49,.22,.42,.19,.79,.19,.79,0,0,.02,.4-.23,.68-1.18,1.31-5.11,4.94-11.94,4.88-4.06-.04-9.72-2.36-13.11-7.96-.24-.39-.24-.88-.23-1.14Z"/>
          <circle class="cls-29" cx="596.2" cy="247.79" r="7.43"/>
          <circle class="cls-16" cx="593.38" cy="243.16" r="2.08"/>
          <path class="cls-4" d="M606.79,249.17s-7.78-18.43-25.11-4.03"/>
        </g>
        <path class="cls-16" d="M394.99,359.89s-24.09,7.84-67.82,27.75c-83.94,38.2-71.53,178.79-71.53,178.79,0,0,2.95,4.43,54.76,27.84l-62.9,234.03s83.91,78.77,227.18,76.05c0,0,95.41-.29,143.67-37.55,0,0-11.44-121.81-6.72-209.56,0,0,23.04-15.95,24.82-58.03l14.73-29.32-5.45-86.57s-5.44-58.14-65.11-85.82c0,0-22.54-6.03-38.4-16.23,0,0,8.13,51.22-12.84,78.42,0,0-26.3,46.33-105.4-7.37,0,0-33.77-32.21-28.99-92.44Z"/>
        <g>
          <circle class="cls-23" cx="369.68" cy="519.74" r="6.96"/>
          <circle class="cls-23" cx="360.56" cy="529.94" r="6.96"/>
          <circle class="cls-23" cx="357.39" cy="542.55" r="6.96"/>
          <circle class="cls-23" cx="371.15" cy="534.99" r="6.96"/>
          <circle class="cls-23" cx="346.47" cy="531.11" r="6.96"/>
          <circle class="cls-23" cx="354.83" cy="518.96" r="6.96"/>
        </g>
        <g>
          <path class="cls-22" d="M496.02,307.47s2.51,11.27,14.72,20.32c9.45,7,15.05,7.94,24.44,6.97,9.39-.97,19.96-10.15,19.96-10.15,0,0-.13-8.19-5.47-13.29-5.34-5.1-14.05-4.83-14.05-4.83,0,0-9.82-7.12-18.85-4.65-9.03,2.47-20.75,5.63-20.75,5.63Z"/>
          <path class="cls-18" d="M498.53,308.12s12.79,5.59,21.24,15.18c0,0,4.89,6.19,18.49,2.07,13.6-4.12,14.45-1.98,14.45-1.98,0,0-2.87-10.24-19.62-14.37-16.75-4.13-34.56-.9-34.56-.9Z"/>
          <path class="cls-16" d="M513.14,307.03s26.14-.88,36.3,10.98c0,0-23.63-8.59-36.3-10.98Z"/>
        </g>
        <path class="cls-11" d="M345.13,399.26c62.91,23.04,51.9,186.41,51.9,186.41,0,0-63.42,25.36-136.96-16.28"/>
        <path class="cls-13" d="M872.22,669.93s4.99,3.22,7.84,6.7"/>
        <path class="cls-13" d="M798.92,682.27s.45,11.38,9.87,21.26"/>
        <path class="cls-13" d="M890.18,700.76l9.45-8.16,4.33-14.4s2.6-7.13,10.19-5.92c8.47,1.35,6.36,11.29,6.36,11.29l-7.34,18.79-18.56,18.33"/>
        <path class="cls-13" d="M913.19,702.35l5.64-3.84,4.33-14.4s2.6-7.13,10.19-5.92c8.47,1.35,6.36,11.29,6.36,11.29l-7.34,18.79-18.56,18.33"/>
        <path class="cls-11" d="M636.44,599.21s1.46-44.67-11.12-81.38"/>
        <path class="cls-24" d="M555.13,197.81s1.23,9.54-5.08,12.93c0,0,11.95-.85,5.08-12.93Z"/>
        <path class="cls-24" d="M581.85,206.4s-7.64,5.85-5.6,12.72c0,0-7.82-9.08,5.6-12.72Z"/>
        <path class="cls-27" d="M576.98,139.02s-83.87,110.02-177.55,96.45c0,0,2.26,40.49,31.4,36.15,0,0,6.67,59.32-24.58,85.81,0,0-40.99,22.42-69.2,28.71-26.41,5.88-46.84,29.6-46.84,29.6,0,0,51.79-48.41,63.56-150.01,11.77-101.6,68.5-149.03,68.5-149.03,0,0,75.35-82.28,158.47-18.74,0,0,48.58,9.77,62.17,59.81,7.86,28.94-2.02,78.76-10.31,118.48,0,0-20.13,96.86-66.83,118.08,0,0-39.78-2.73-40.62-27,0,0,13.88-1.37,26.47-12.69,17.19-15.46,28.27-32.31,41.76-51.01,0,0,14.42-18.55,11.95-46.25,0,0-.03-14.37,5.39-21.86,0,0,15.52-57.62-33.75-96.5"/>
        <path class="cls-2" d="M420.98,254.32s-17.59,19.1-4.74,34.66c12.85,15.56,10.25-17.67,10.25-17.67"/>
      </g>
    </g>
    <g>
      <path class="cls-29" d="M803.09,754.33c-17.55-4.55-11.61-20.26-11.61-20.26-10.15-.43-6.52-17.97-6.52-17.97-12.02-6.88-4.22-20.29-4.22-20.29-5.57-10.13,5.08-21.95,5.08-21.95-9.19-13.13,4.65-18.73,4.65-18.73-8.35-13.35,7.16-25.2,7.16-25.2-6.04-12.9-2.37-23.26-2.37-23.26-8.83-16.58,1.81-27.85,1.81-27.85-8.61-13.23,.69-21.75,.69-21.75-7.43-12.43,3.74-21.38,3.74-21.38-6.97-13.82,7.18-20.62,7.18-20.62-.98-15.23,11.38-18.73,11.38-18.73,3.18-14.78,19.39-18.38,19.39-18.38,10.11-11.57,22.54-10.16,22.54-10.16,15.55-10.89,29.16-4.49,29.16-4.49,15.66-9.75,38.76-1.52,38.76-1.52,20.74-6.53,41.57,10.47,41.57,10.47,20.3-1.92,23.14,19.3,23.14,19.3,17.55,4.55,14.38,23.13,14.38,23.13,12.91-1.32,16.67,12.76,16.67,12.76,13.38-.05,13.44,17.03,13.44,17.03,11.55,3.19,7.44,17.51,7.44,17.51,11.56,7.8,2.83,17.06,2.83,17.06,9.26,9.66,.52,17.07,.52,17.07,8.35,13.35,1.19,22.02,1.19,22.02,10.17,5.5,2.53,16.3,2.53,16.3,12.87,6.87,2.17,18.49,2.17,18.49,12.02,5.5,8.94,18.37,8.94,18.37,10.17,4.12,6.71,20.67,6.71,20.67,9.26,8.27,2.43,24.99,2.43,24.99,16.44,9.71,7.51,26.92,7.51,26.92,11.76,13.63-.3,24.99-.3,24.99,5.56,12.81,.43,20.13,.43,20.13,0,0,13.66,27.69-14.63,26.59"/>
      <path class="cls-20" d="M852.3,520.19s-17.4,.37-24.7,39.61c0,0,1.01,13.16-1.99,20.57-3,7.41-5.39,32-3.88,46.55,1.51,14.54,8.45,39.62,29.21,53.23,20.77,13.61,57.93-.45,57.93-.45,0,0,37.79-13.03,48.45-34.16,0,0,11.53,15.77,26.2,5.9,14.67-9.87,32.72-37.58,18.95-47.34-11.81-8.38-25.43,7.04-29.06,11.58-.6,.75-.92,1.2-.92,1.2,0,0-34.19-53.92-24.77-86.59,0,0-24.34,14.86-49.64,2.84,0,0-32.68,9.19-45.79-12.95Z"/>
      <path class="cls-28" d="M1001.44,538.38s-.42,16.03-15.29,17.79c-14.87,1.76-7.92-19.37-7.92-19.37,0,0-21.77-3.86-19.11-12.01,2.65-8.15,17.64-18.27,20.57-12.18,2.93,6.09,2.24,17.22,2.24,17.22,0,0,17.19,2.59,19.51,8.55Z"/>
      <path class="cls-20" d="M785.33,836.95l-50.02-95.8c-2.4-3.36-5.85-9.7-8.19-12.77,0,0,10.05-18.42-13.17-46.23l-8.87-23.72s-8.34-11.75-12.21,1.8c0,0,1.52,9.8,3.84,16.97l-17.85-2.17s2.11-1.48-6.81-5.63c-7.25-3.37-6.77-.26-6.77-.26,0,0-.19-11.95-2.91-23.79-1.77-7.7,.31-14.31-8.25-16.57,0,0-8.2-1.26-6.89,12.21l-1.64,31.22,23.62,40.32,23.04,22.85,5.76,18.48s23.48,125.76,40.01,156.7,38.75,39.92,57.65,38.15c15.14-1.42,18.06-3.68,30.35-23.18,12.29-19.5-5.46-75.71-5.46-75.71l-35.23-12.88Z"/>
      <path class="cls-8" d="M703.94,679.19s-4.02-1.65-7.3-1.91"/>
      <path class="cls-12" d="M696.02,718.04s-1.22-20.02-6.45-25.52c0,0-2.47-2.13-1.64-9.29,.79-6.81,4.75-12.66-.46-14.89-7.55-3.23-8.61,6.68-8.61,6.68l-3.33,21.73"/>
      <path class="cls-12" d="M677.92,681.26l.96-9.09,6.85-8.61s3.2-4.54-.7-8.6c-4.34-4.52-9.44,.89-9.44,.89l-8.23,12.25-3.26,18.8"/>
      <path class="cls-12" d="M667.37,668.11l-.05-4.99,6.85-8.61s3.2-4.54-.7-8.6c-4.34-4.52-9.44,.89-9.44,.89l-8.23,12.25-3.26,18.8"/>
      <path class="cls-8" d="M782.73,831.81s21.44,29.1,21.44,62.77"/>
      <path class="cls-20" d="M958.99,637.5s-10.33,61.32,34.12,76.67c0,0-10.07,41.9-10.07,61.02,0,0-90.47,31.05-157.56,4.57,0,0,34.45-45.88,40.43-73.96,0,0,7.64-12.09,4.05-21.65l89.03-46.63Z"/>
      <path class="cls-24" d="M901.43,559.68s22.97,4.15,38.53,18.29c0,0-4-15.29-36.9-23.53,0,0-6.45,.95-1.63,5.23Z"/>
      <path class="cls-24" d="M830.16,557.72c15.64-4.97,27.38-4.47,27.38-4.47,5.65-3.1-.42-5.47-.42-5.47-10.57,.21-22.03,3.17-28.02,5.14,0,0,.2,5.07,1.06,4.79Z"/>
      <path class="cls-10" d="M864.88,588.65s-15.92,10.99-2.86,21.7"/>
      <path class="cls-29" d="M869.96,684.13s9.77,2.29,29.38-2.81c0,0,12.19-1.71,32.51-12.2,0,0-11.38,15.72-47.14,18.24,0,0-8.65,1.1-14.08-.12,0,0-.44-1.66-.66-3.1Z"/>
      <path class="cls-28" d="M971.18,700.4s70.64,15.43,83.11,52.82c17.51,52.53,13.66,76.59,13.66,76.59,0,0-16.97,40.39-59.14,29.84,0,0,20.37,65.26,21.42,139.05,0,0-83.62,5.19-215.01,1.56,0,0,4.58-89.75,3.53-148.78,0,0-25.76,1.15-36.3-23.1l3.28-47.9s10.73-59.77,81.35-76.63c0,0-17.05,30.25,19.84,38.68,0,0,62.11,13.74,84.25-42.13Z"/>
      <circle class="cls-26" cx="889.3" cy="767.32" r="9.02"/>
      <circle class="cls-26" cx="907.29" cy="768.65" r="9.02"/>
      <circle class="cls-26" cx="925.55" cy="765.35" r="9.02"/>
      <circle class="cls-26" cx="943.17" cy="759.14" r="9.02"/>
      <circle class="cls-26" cx="957.82" cy="748.15" r="9.02"/>
      <circle class="cls-26" cx="971.16" cy="736.24" r="9.02"/>
      <circle class="cls-26" cx="872.31" cy="760.99" r="9.02"/>
      <circle class="cls-26" cx="856.97" cy="752.07" r="9.02"/>
      <circle class="cls-26" cx="848.72" cy="735.81" r="9.02"/>
      <circle class="cls-26" cx="896.4" cy="783.24" r="9.02"/>
      <circle class="cls-26" cx="918.86" cy="782.31" r="9.02"/>
      <circle class="cls-26" cx="939.88" cy="776.66" r="9.02"/>
      <circle class="cls-26" cx="959.33" cy="766.23" r="9.02"/>
      <circle class="cls-26" cx="973.52" cy="754.61" r="9.02"/>
      <circle class="cls-26" cx="875.47" cy="778.15" r="9.02"/>
      <circle class="cls-26" cx="856.51" cy="769.66" r="9.02"/>
      <circle class="cls-26" cx="839.48" cy="751.35" r="9.02"/>
      <path class="cls-26" d="M971.18,700.4s-14.9,44.5-67.65,43.7c-52.74-.81-36.45-40.25-36.45-40.25l-5.54,1.33s-12.14,44.71,40.78,42.55c51.41-2.1,56.78-19.78,73.27-44.69l-4.42-2.63Z"/>
      <path class="cls-10" d="M1002.13,625.92s-5.23-11.57-14.68-2.14c-9.45,9.43-10.44,12.92-10.44,12.92,0,0,13.81-15.17,16.02-.86"/>
      <g>
        <path class="cls-17" d="M986.02,609.14s-11.66,11.02-2.95,18.41c8.71,7.39-6.8,1.31-6.8,1.31,0,0-10.36-6.48,6.35-24.62l3.41,4.9Z"/>
        <path class="cls-16" d="M983.07,627.55s7.56-13.48,17.02-8.96c9.47,4.52-3.87,20.36-3.87,20.36,0,0-3.58,3.62-9.08,2.44,0,0,6.81-8.8-4.07-13.84Z"/>
        <path class="cls-25" d="M1009.91,613.2s7.47,5.77,6.29-4.33c-1.18-10.11-15.27-12.62-19.85-12.59-4.58,.03-11.39,1.23-13.74,7.97-2.35,6.74,8.31,2.1,8.31,2.1,0,0,13.08-7.06,18.99,6.86Z"/>
      </g>
      <g>
        <path class="cls-16" d="M924.91,586.4s.13-.63-.23-1.25c-1.21-2.06-4.14-6.03-9.78-7.15-6.31-1.26-10.97,3.98-12.57,5.86-.28,.32-.32,.65-.32,.65,0,0-.09,.35,.07,.64,.78,1.37,3.48,5.3,9.44,6.58,3.55,.76,8.92-.16,12.97-4.37,.28-.29,.38-.72,.42-.95Z"/>
        <circle class="cls-29" cx="911.67" cy="584.93" r="6.65"/>
        <circle class="cls-16" cx="916.05" cy="584.42" r="1.83"/>
        <path class="cls-6" d="M901.93,583.79s10.68-13.54,23,1.36"/>
      </g>
      <g>
        <path class="cls-16" d="M855.76,575.97s.21-.56-.04-1.18c-.82-2.06-2.95-6.12-7.96-7.94-5.61-2.04-10.62,2.11-12.36,3.6-.3,.26-.39,.55-.39,.55,0,0-.13,.31-.02,.59,.52,1.36,2.45,5.35,7.73,7.37,3.14,1.2,8.2,1.11,12.51-2.18,.3-.23,.45-.6,.52-.81Z"/>
        <circle class="cls-29" cx="843.83" cy="572.74" r="6.15"/>
        <circle class="cls-16" cx="848.07" cy="573.06" r="1.72"/>
        <path class="cls-6" d="M835.25,570.61s11.56-11.86,20.57,4.47"/>
      </g>
      <path class="cls-7" d="M1006.79,737.99s-23.83,6.7-19.5,61.54c4.33,54.84,5.28,46.72,5.28,46.72"/>
      <line class="cls-7" x1="824.69" y1="847.23" x2="829.8" y2="787.71"/>
      <path class="cls-24" d="M895.28,551.57s-7.44,3.16-1.7,7.65c0,0-2-3.98,1.7-7.65Z"/>
      <path class="cls-24" d="M865.85,545.92s1.91,4.02-1.88,7.6c0,0,7.52-2.98,1.88-7.6"/>
      <path class="cls-21" d="M891.18,647.28s-13.39-19.53-26.43-14.93c0,0-10.11-8.49-22.48,4.83,0,0,1.95,13.17,18.57,16.44,16.63,3.27,30.34-6.34,30.34-6.34Z"/>
      <path class="cls-18" d="M888.4,646.83s-21.5-19.36-43.78-8.68c0,0,6.14,3.85,11.65,8.43,5.3,4.4,12.86,2.93,12.86,2.93,0,0,13.16-3.83,19.26-2.69Z"/>
      <path class="cls-16" d="M881.36,641.68s-14.82-10.24-31.31-5.46c0,0,24.17,3.42,31.31,5.46Z"/>
      <path class="cls-20" d="M625.22,775.72l17.28,5.32s12.82-12.84,23.48-18.16,24.86-10.94,39.43-8.42l19.94,3.1s8.39,11.24-9.21,13.62c-17.6,2.38-16.27,5.67-16.27,5.67,0,0,1.59,6.87,18.29,8.83,16.7,1.96,22.18,4.61,22.18,4.61l25.37-8.31s8.25-5.83,13.78,3.87l-5.56,7.4s9.02,7.41-4.55,14.65c0,0,1.27,10.83-16.56,19.2,0,0-4.94,14.07-15.1,16.98-10.16,2.92-67.75-8.04-67.75-8.04l-23.04-10.69-19.72,.89s1.11-26.36-1.99-50.51Z"/>
      <path class="cls-8" d="M773.93,793.24s-28.96,23.16-54.94,10.21"/>
      <path class="cls-8" d="M717.21,833.78c27.19,7.16,35.6-6.69,35.6-6.69,0,0,18.16-7.26,16.56-19.2,0,0-23.52,18.76-49.16,11.42"/>
      <path class="cls-20" d="M260.06,569.39c81.52,41.65,131.58,17.28,131.58,17.28,0,0,15.59,111.08,16.48,134.12,0,0,132.38,24.05,220.99,55.95,0,0,3.4,36.18-.15,49.47,0,0-195.15,13.32-252.74,.03s-77.09-52.28-77.09-52.28c0,0-36.42-87.01-39.08-204.56"/>
      <path class="cls-8" d="M408.13,720.78s-22.15,6.2-23.92,25.7"/>
      <path class="cls-20" d="M994.71,853.34l24.37,110.39-.57,35.4h57.49s9.34-19.32,2.3-62.54c-6.15-37.74-10.85-104.35-10.85-104.35,0,0-32.15,31.08-72.73,21.1Z"/>
      <path class="cls-5" d="M831.7,621.25c-2.65-13.32,7.81-43.19,7.81-43.19,0,0,6.16,3.42,11.74,1.11"/>
      <path class="cls-5" d="M843.5,581.54s-1.8,3.72-2.32,8.78"/>
      <path class="cls-5" d="M839.79,592.9s-.56,1.92-.78,3.7"/>
      <path class="cls-5" d="M902.86,587.36s8.86,9.75,19.94,2.22c0,0,6.9,10.4,.54,38.93"/>
      <path class="cls-5" d="M921.07,594.48s.66,3.56,.28,5.62"/>
      <path class="cls-5" d="M922.77,609.97s.43,2.61-.3,4.4"/>
      <path class="cls-8" d="M611.4,770.53l31.1,10.51s24.72-26.55,55.51-27.17c0,0,30.13-1.27,31.48,4.61,3.83,16.69-19.97,5.75-27.36,15.59,0,0-7.93,6.02,5.75,10.67s49.79-.27,49.79-.27"/>
      <path class="cls-8" d="M717.72,843.28s26.54,3.56,23.25-7.39"/>
      <path class="cls-8" d="M698.01,753.87l-5.76-18.48-23.04-22.85-23.62-40.32,1.01-33.97s.83-10.08,7.52-9.46"/>
      <path class="cls-8" d="M711.9,675.89l2.05,6.26s20.7,23.43,13.17,46.23c0,0-7.03,4.48-16.89,2.94"/>
      <line class="cls-8" x1="741.87" y1="754.64" x2="727.12" y2="728.38"/>
    </g>
  </g>
</svg>