<?xml version="1.0" encoding="UTF-8"?>
<svg id="Layer_1" data-name="Layer 1" xmlns="http://www.w3.org/2000/svg" xmlns:xlink="http://www.w3.org/1999/xlink" viewBox="0 0 2013.52 1000.31">
  <defs>
    <style>
      .cls-1, .cls-2, .cls-3, .cls-4, .cls-5, .cls-6, .cls-7, .cls-8, .cls-9, .cls-10, .cls-11, .cls-12, .cls-13 {
        fill: none;
      }

      .cls-2 {
        stroke: #fbb040;
        stroke-width: 1.5px;
      }

      .cls-2, .cls-3, .cls-4, .cls-14, .cls-15, .cls-16, .cls-5, .cls-6, .cls-7, .cls-8, .cls-9, .cls-17, .cls-10, .cls-11, .cls-18, .cls-19, .cls-12, .cls-13 {
        stroke-miterlimit: 10;
      }

      .cls-3 {
        stroke: #754c29;
        stroke-width: 12px;
      }

      .cls-20 {
        clip-path: url(#clippath);
      }

      .cls-4 {
        stroke-width: .8px;
      }

      .cls-4, .cls-5, .cls-7, .cls-9, .cls-10, .cls-12 {
        stroke: #231f20;
      }

      .cls-21 {
        fill: #f8c184;
      }

      .cls-22 {
        fill: #f9edde;
      }

      .cls-23 {
        fill: #006087;
      }

      .cls-24 {
        fill: #f7941d;
      }

      .cls-25 {
        fill: #f05380;
      }

      .cls-26, .cls-17, .cls-27 {
        fill: #fff;
      }

      .cls-28 {
        fill: #fbb040;
      }

      .cls-29 {
        fill: #f16225;
      }

      .cls-30 {
        fill: #803435;
      }

      .cls-31 {
        fill: #9ecb54;
      }

      .cls-32 {
        fill: #8b5e3c;
      }

      .cls-33 {
        fill: #a97c50;
      }

      .cls-34, .cls-19 {
        fill: #be9e7d;
      }

      .cls-35 {
        fill: #be8c8c;
      }

      .cls-36 {
        fill: #bf6b6b;
      }

      .cls-37 {
        fill: #c4dd82;
      }

      .cls-38, .cls-16 {
        fill: #cd6848;
      }

      .cls-39 {
        fill: #c8eaf6;
      }

      .cls-40 {
        fill: #e2ae6d;
      }

      .cls-41 {
        fill: #231f20;
      }

      .cls-42 {
        fill: #1fa8df;
      }

      .cls-43 {
        fill: #0f3e5d;
      }

      .cls-44 {
        fill: #6ca442;
      }

      .cls-45 {
        fill: #288348;
      }

      .cls-46 {
        fill: #288649;
      }

      .cls-47 {
        fill: #3c2415;
      }

      .cls-48 {
        fill: #3ba05e;
      }

      .cls-49 {
        fill: #59bede;
      }

      .cls-50 {
        fill: #3aa362;
      }

      .cls-51 {
        fill: #754c29;
      }

      .cls-52 {
        fill: #79c79d;
      }

      .cls-53 {
        fill: #26130f;
      }

      .cls-14 {
        fill: #0098bd;
      }

      .cls-14, .cls-15, .cls-16 {
        stroke-width: 2px;
      }

      .cls-14, .cls-16 {
        stroke: #be1e2d;
      }

      .cls-15 {
        fill: #bd9154;
      }

      .cls-15, .cls-11, .cls-18 {
        stroke: #006838;
      }

      .cls-5 {
        stroke-width: .9px;
      }

      .cls-6 {
        stroke: #fff;
      }

      .cls-6, .cls-9 {
        stroke-linecap: round;
      }

      .cls-54 {
        clip-path: url(#clippath-1);
      }

      .cls-7, .cls-8, .cls-19 {
        stroke-width: .7px;
      }

      .cls-8, .cls-19, .cls-13 {
        stroke: #603913;
      }

      .cls-9, .cls-12, .cls-13 {
        stroke-width: .5px;
      }

      .cls-17 {
        stroke: #808285;
      }

      .cls-18 {
        fill: #00a151;
        stroke-width: .1px;
      }

      .cls-27 {
        opacity: .8;
      }
    </style>
    <clipPath id="clippath">
      <rect class="cls-1" x="921.75" y="510.58" width="338.17" height="395.14"/>
    </clipPath>
    <clipPath id="clippath-1">
      <rect class="cls-1" x="679.27" y="414" width="282.22" height="509.19"/>
    </clipPath>
  </defs>
  <rect class="cls-22" x="679.46" width="1334.06" height="908.92"/>
  <g class="cls-20">
    <g>
      <path class="cls-44" d="M1070.06,639.76s-30.89-29.72-13.95-72.88c16.94-43.16,61.91-58.34,61.91-58.34,0,0-11.55,28.84-9.69,49.49,1.86,20.65-13.2,74.72-38.27,81.73Z"/>
      <path class="cls-48" d="M1081.8,728.2s5.56-44.99,52.83-58.02c47.27-13.03,88.63,15.41,88.63,15.41,0,0-31.73,8.51-48.03,23.18-16.3,14.67-71.61,36.21-93.43,19.44Z"/>
      <path class="cls-45" d="M1048.71,740.94s22.96-39.09,71.52-32.28c48.56,6.8,75.23,49.32,75.23,49.32,0,0-32.5-4.78-53.29,2.21-20.79,6.99-80.1,4.81-93.47-19.25Z"/>
      <path class="cls-46" d="M1068.6,730.67s11.28-38.02-22.06-65.01c-33.35-26.99-76.46-18.66-76.46-18.66,0,0,22.46,17.93,30.4,35.39,7.94,17.47,44.75,54.09,68.12,48.28Z"/>
      <path class="cls-50" d="M980.65,588.81s40.52-10.12,73.94,30.84,10.34,51.72,10.34,51.72c0,0-78.22-34.74-84.28-82.56Z"/>
      <line class="cls-15" x1="1066.37" y1="780.6" x2="1066.37" y2="750.55"/>
      <path class="cls-45" d="M1075.14,706.91s-22.86-36.26,3.94-74.1c26.8-37.84,74.1-41.78,74.1-41.78,0,0-18.13,25.23-21.28,45.72-3.15,20.5-30.74,69.37-56.76,70.16Z"/>
      <path class="cls-44" d="M1066.32,745.42s-5.56-44.99-52.83-58.02c-47.27-13.03-88.63,15.41-88.63,15.41,0,0,31.73,8.51,48.03,23.18,16.3,14.67,71.61,36.21,93.43,19.44Z"/>
      <path class="cls-48" d="M1070.97,737.27s-28.87-34.95-75.74-20.52c-46.87,14.42-66.45,60.64-66.45,60.64,0,0,31.33-9.88,52.96-6.28,21.63,3.6,79.85-7.97,89.23-33.84Z"/>
      <path class="cls-31" d="M1122.54,648.52s-41.62,3.37-60.19,52.87c-18.56,49.5,6.75,52.31,6.75,52.31,0,0,63-57.94,53.44-105.18Z"/>
      <path class="cls-37" d="M1029.06,573.87s-2.19,42.71,38.87,76.1c0,0,26.28-10.95-3.29-53.66,0,0-14.78-20.26-35.59-22.45Z"/>
      <path class="cls-21" d="M993.84,777.79h148.05s5.14,81.22-26.73,129.54h-89.45s-32.9-27.76-31.87-129.54Z"/>
      <path class="cls-26" d="M996.91,835.05s1.58,12.63,4.74,20.53c0,0,63.7,17.9,133.19,0,0,0,2.11-6.32,4.21-21.58,0,0-68.96,16.32-142.14,1.05Z"/>
      <path class="cls-26" d="M996.04,822.25s-.27,5.44,.82,6.8c0,0,73.4,18.44,142.89,.54,0,0-1.29,8.74,.82-6.53,0,0-73.21,19.6-144.52-.82Z"/>
    </g>
  </g>
  <rect class="cls-40" x="680.27" y="905.52" width="1333.12" height="94.79"/>
  <g>
    <polyline class="cls-3" points="1619.65 906.1 1619.65 36.27 2006.57 36.27 2006.57 906.09"/>
    <polygon class="cls-33" points="2000.11 41.94 1785.09 11 1785.09 937.58 2003.2 906.64 2000.11 41.94"/>
    <rect class="cls-32" x="1765.41" y="10.82" width="21.66" height="926.49"/>
    <g>
      <ellipse class="cls-28" cx="1822.38" cy="491.54" rx="16.51" ry="18.93"/>
      <path class="cls-24" d="M1841.91,472.56l-10.28,1.05s-10.86,1.53-11.1,16.12c-.28,17.03,6.63,20.24,9.28,20.31l12.09,.39"/>
      <path class="cls-24" d="M1827.95,479.98h-7.79s-11.52,11.75-.53,22.87l8.32,.2"/>
      <ellipse class="cls-28" cx="1841.91" cy="491.49" rx="16.51" ry="18.93"/>
    </g>
    <rect class="cls-47" x="1770.66" y="474.43" width="7.16" height="34.26"/>
    <rect class="cls-39" x="1625.24" y="42.81" width="140.26" height="859.95"/>
    <path class="cls-18" d="M1624.97,906.02h140.73v-87.49s-95.08-14.13-140.73,9.78v77.71Z"/>
    <path class="cls-27" d="M1727.63,369.37l-63.72-1.26s-14.61-4.64-13.88-13.25c1.26-14.85,13.25-13.88,13.25-13.88,0,0,.63-17.03,19.56-17.03,0,0,14.51-1.26,14.51,17.03,0,0,7.57-11.99,20.19-4.42,0,0,8.83,9.46,1.26,14.51,0,0,16.4-11.36,20.82,3.15,0,0,3.79,15.77-11.99,15.14"/>
  </g>
  <g>
    <path class="cls-53" d="M1483.3,541.54c-8.95-2.35-5.89-10.36-5.89-10.36-5.18-.24-3.3-9.18-3.3-9.18-6.12-3.53-2.12-10.36-2.12-10.36-2.82-5.18,2.63-11.19,2.63-11.19-4.67-6.71,2.41-9.55,2.41-9.55-4.24-6.83,3.7-12.84,3.7-12.84-3.06-6.59-1.17-11.87-1.17-11.87-4.47-8.47,.97-14.21,.97-14.21-4.37-6.76,.39-11.09,.39-11.09-3.77-6.36,1.95-10.9,1.95-10.9-3.53-7.06,3.7-10.51,3.7-10.51-.47-7.77,5.84-9.54,5.84-9.54,1.65-7.53,9.92-9.34,9.92-9.34,5.18-5.89,11.52-5.15,11.52-5.15,7.95-5.53,14.88-2.24,14.88-2.24,8-4.94,19.77-.71,19.77-.71,10.59-3.3,21.19,5.41,21.19,5.41,10.36-.94,11.77,9.89,11.77,9.89,8.95,2.35,7.29,11.83,7.29,11.83,6.59-.65,8.48,6.54,8.48,6.54,6.83,0,6.83,8.71,6.83,8.71,5.89,1.65,3.77,8.95,3.77,8.95,5.89,4,1.41,8.71,1.41,8.71,4.71,4.94,.24,8.71,.24,8.71,4.24,6.83,.57,11.24,.57,11.24,5.18,2.82,1.26,8.32,1.26,8.32,6.56,3.53,1.07,9.44,1.07,9.44,6.12,2.82,4.53,9.39,4.53,9.39,5.18,2.12,3.39,10.56,3.39,10.56,4.71,4.24,1.2,12.75,1.2,12.75,8.37,4.98,3.79,13.75,3.79,13.75,5.98,6.97-.2,12.75-.2,12.75,2.81,6.55,.18,10.27,.18,10.27,0,0,6.92,14.15-7.51,13.54"/>
    <path class="cls-34" d="M1505.84,426.19s-8.79,1.27-10.05,21.59c0,0,1.33,6.6,.27,10.54-1.06,3.94-.75,16.54,.92,23.81,1.67,7.27,6.73,19.54,18.09,25.14,11.36,5.6,29.31-3.82,29.31-3.82,0,0,18.33-8.94,22.42-20.3,0,0,6.82,7.27,13.63,1.36,6.82-5.91,14.24-21.05,6.66-25.14-6.5-3.51-12.44,5.14-14,7.66-.26,.42-.39,.67-.39,.67,0,0-20.65-25.18-17.91-42.31,0,0-11.41,9.03-24.96,4.52,0,0-15.98,6.68-23.99-3.72Z"/>
    <path class="cls-49" d="M1582.49,426.16s.78,8.14-6.64,9.95c-7.42,1.81-5.21-9.32-5.21-9.32,0,0-11.26-.61-10.42-4.9,.84-4.29,7.8-10.34,9.66-7.44,1.86,2.9,2.2,8.58,2.2,8.58,0,0,8.87,.25,10.41,3.12Z"/>
    <path class="cls-34" d="M1560,483.9s-2.22,28.3,19.35,35.75c0,0-4.89,20.33-4.89,29.61,0,0-43.91,15.07-76.46,2.22,0,0,16.72-22.26,19.62-35.89,0,0,4.28-3.7,2.54-8.34l39.85-23.34Z"/>
    <path class="cls-41" d="M1531.72,447.06s11.33,.02,19.97,5.45c0,0-3.22-6.96-19.64-8.09,0,0-3,1-.33,2.64Z"/>
    <path class="cls-41" d="M1497.1,450.75c7.44-2.84,13.14-2.92,13.14-2.92,2.65-1.66-.35-2.64-.35-2.64-5.11,.39-10.59,2.14-13.43,3.26,0,0,.24,2.45,.64,2.29Z"/>
    <path class="cls-4" d="M1516.45,463.58s-6.78,6.49,.29,10.62"/>
    <path class="cls-53" d="M1520.68,508.97s10.4,.32,19.4-3.63c0,0,5.71-1.76,14.64-8.35,0,0-4.25,8.41-21.19,12.36,0,0-6,1.53-13.3,2.05,0,0,.33-1.44,.44-2.44Z"/>
    <path class="cls-49" d="M1568.7,512.97s31.67,12.28,40.61,33.73c10.33,24.81,7.62,30.89,7.62,30.89,0,0-11.66,13.98-32.12,8.86,0,0,11.89,44.51,12.4,80.32,0,0-50.93,27.93-106.23,1.43,0,0,4.25-53.25,3.74-81.9,0,0-18.21-.26-23.33-12.03l5.98-21.93s6.88-29.59,41.15-37.77c0,0-8.62,14.77,9.29,18.86,0,0,30.14,6.67,40.89-20.45Z"/>
    <path class="cls-43" d="M1597.22,666.76s6.52,22.07,2.44,54.15c0,0-10.5,58.96-17.07,70.36,0,0,6.5,18.91,1.81,40.71,0,0-22.3,20.68-40.14,5.68l-5.46-20.07,1.94,21.23-1.54,3.05s-24,7.9-34.07-1.29l-8.03-37.92s-5.32-20.66-4.07-30.65l-2.05-103.82s57.43,24.03,106.23-1.43Z"/>
    <path class="cls-10" d="M1538.79,817.59c-6.63-60.26-2.55-101.06-2.55-101.06"/>
    <circle class="cls-43" cx="1528.97" cy="545.45" r="4.38"/>
    <circle class="cls-43" cx="1537.7" cy="546.09" r="4.38"/>
    <circle class="cls-52" cx="1546.56" cy="544.49" r="4.38"/>
    <circle class="cls-52" cx="1555.12" cy="541.48" r="4.38"/>
    <circle class="cls-43" cx="1562.22" cy="536.14" r="4.38"/>
    <circle class="cls-43" cx="1568.7" cy="530.36" r="4.38"/>
    <circle class="cls-43" cx="1520.73" cy="542.37" r="4.38"/>
    <circle class="cls-43" cx="1513.28" cy="538.04" r="4.38"/>
    <circle class="cls-43" cx="1509.28" cy="530.15" r="4.38"/>
    <circle class="cls-43" cx="1532.42" cy="553.17" r="4.38"/>
    <circle class="cls-43" cx="1543.31" cy="552.72" r="4.38"/>
    <circle class="cls-52" cx="1553.51" cy="549.98" r="4.38"/>
    <circle class="cls-43" cx="1562.96" cy="544.92" r="4.38"/>
    <circle class="cls-43" cx="1569.84" cy="539.28" r="4.38"/>
    <circle class="cls-43" cx="1522.26" cy="550.7" r="4.38"/>
    <circle class="cls-43" cx="1513.06" cy="546.58" r="4.38"/>
    <circle class="cls-43" cx="1504.79" cy="537.69" r="4.38"/>
    <path class="cls-43" d="M1568.7,512.97s-7.23,21.6-32.83,21.21c-25.6-.39-18.26-18.59-18.26-18.59l-2.45,.23s-5.56,21.17,20.12,20.12c24.95-1.02,27.55-9.6,35.56-21.69l-2.15-1.28Z"/>
    <path class="cls-12" d="M1585.09,470.89s-3.39-5.14-7.2,.1c-3.8,5.24-4.01,6.99-4.01,6.99,0,0,5.45-8.33,7.61-1.65"/>
    <g>
      <path class="cls-29" d="M1576.08,464.09s-4.74,6.18,0,9.05c4.74,2.87-3.16,1.15-3.16,1.15,0,0-5.46-2.31,1.15-12.29l2.01,2.09Z"/>
      <path class="cls-26" d="M1576.08,473.14s2.59-7.04,7.47-5.6-.29,10.05-.29,10.05c0,0-1.44,2.01-4.17,1.87,0,0,2.59-4.74-3.02-6.32Z"/>
      <path class="cls-42" d="M1587.84,464.19s4.02,2.19,2.68-2.56c-1.34-4.75-8.29-4.87-10.48-4.51s-5.36,1.46-5.97,4.87c-.61,3.41,4.14,.37,4.14,.37,0,0,5.73-4.39,9.63,1.83Z"/>
    </g>
    <path class="cls-35" d="M1509.73,488.04s4.82-5.27,10.47-2.73c0,0,4.85-2.39,12.76,4.55,0,0-4.96,5.12-13.25,3.77-8.29-1.35-9.98-5.59-9.98-5.59Z"/>
    <path class="cls-30" d="M1510.9,488.5s3.37-2.77,9.41-2.09c6.05,.68,11.49,3.64,11.49,3.64,0,0-8.99,.06-11.6,1.23,0,0-4.28-1.97-9.3-2.78Z"/>
    <path class="cls-26" d="M1513.55,487.16s4.63-2.8,14.65,1.29c0,0-8.74-1.74-14.65-1.29Z"/>
    <path class="cls-34" d="M1587.03,595.75c-3.67-11.24-23.46-46.88-23.46-46.88l-4.76-14.27c3.03-10.81,2.16-37.4,2.16-37.4l-11.24-12.11c-1.3,.65-.86,2.38-.86,2.38l-4.32-3.67c-2.59,2.38,.22,7.78,.22,7.78l-4.32-4.97c-3.03,1.73-.86,7.13-.86,7.13l5.62,8.86-1.73,11.02-.43-4.54-7.57-12.32c-6.27,2.16,1.95,16,1.95,16,0,0-.1,4.61-.62,13.16s3.64,11.48,3.64,11.48c2.38,6.05,3.69,19.9,3.69,19.9,6.83,59.33,24.39,73.27,49.12,72.42,24.73-.85,23.68-52.14,23.68-52.14,0,0-12.63,12.49-32.12,8.86"/>
    <path class="cls-13" d="M1551.5,511.53l.77-11.14-10.75-12.52c-.68-.8-2.01-.65-2.41,.32-.98,2.33,.47,5.56,.47,5.56l5.62,8.86-1.73,11.02-.43-4.54-6.92-11.27c-.43-.7-1.42-.83-1.99-.23-3.38,3.58,3.29,15.18,3.29,15.18l-.62,13.16c-.11,9.09,3.64,11.48,3.64,11.48"/>
    <path class="cls-13" d="M1544.77,491.58s-2.41-3.53-1.55-6.1c.34-1.04,1.67-1.34,2.45-.57l11.74,11.7-.59,9.32"/>
    <path class="cls-13" d="M1548.88,487.47s-.74-.92-.03-1.76c.38-.44,1.07-.43,1.46,0l10.67,11.49-.42,27.99"/>
    <path class="cls-34" d="M1494.73,586.29l.97,17.99,5.01-.26,65.19-.53s11.11-8.14,23.12-10.24c0,0,8.95-4.32,10.88-4.47,0,0,6.04,7.44-9.92,10.8l12.58-.82s14.5,1.75,13.22,6.98c-1.28,5.23-12.64-.26-12.64-.26l-8.84,1.62s15.57-.64,21.58,5.3c0,0,.09,5.11-13.92,1.09l-7.86,1.89s17.24,.73,20.08,1.71-2.3,4.81-2.3,4.81c0,0-9.08,1.2-19.63,.53,0,0,8.31,2.68,12.97,2.68,0,0,4.55,3.28-1.97,4.13,0,0-8.46-1.1-12.82-1.15s-16.88,2.62-27.8-4.52l-59.27,14.63s-17.67,2.53-27.17-3.54c0,0-7.89-5.24-9.16-11.52-1.26-6.27,.3-27.17,5.02-47.11,0,0,4.65,8.2,22.67,10.26Z"/>
    <path class="cls-13" d="M1562.64,623.57c10.91,7.13,23.43,4.46,27.8,4.52s12.82,1.15,12.82,1.15c2.04-.26,2.99-.77,3.34-1.33,1.32-2.12-1.37-2.8-1.37-2.8-4.66,0-12.97-2.68-12.97-2.68,10.55,.68,19.63-.53,19.63-.53,0,0,1.49-.29,2.42-1.37s1.3-2.95-.12-3.45c-2.84-.98-20.08-1.71-20.08-1.71l7.86-1.89c14.02,4.02,13.34-.97,13.34-.97,.54-4.35-21-5.42-21-5.42l8.84-1.62s11.36,5.49,12.64,.26c1.28-5.23-13.22-6.98-13.22-6.98l-12.58,.82c15.95-3.36,9.92-10.8,9.92-10.8-1.29-.2-10.88,4.47-10.88,4.47-12.01,2.1-23.12,10.24-23.12,10.24h-10.77"/>
    <path class="cls-13" d="M1495.7,604.28s-6.33,3.1-8.71,9.83"/>
    <path class="cls-6" d="M1501.59,481.03c-2.27-6.67,1.87-21.3,1.87-21.3,0,0,3.54,1.64,6.25,.07"/>
    <path class="cls-6" d="M1504.95,459.82s-.67,2.03-.6,4.67"/>
    <path class="cls-6" d="M1503.82,465.91s-.16,1.03-.15,1.96"/>
    <path class="cls-6" d="M1531.83,460.46s6.91,4.28,13.9,1.01c0,0,3.07,3.93,1.74,19.03"/>
    <path class="cls-6" d="M1550.65,469.25s.52,1.6,.47,2.56"/>
    <path class="cls-6" d="M1552.37,476.26s.36,1.17,.13,2.04"/>
    <path class="cls-10" d="M1500.23,457.68s5.5,4.22,13.29,.67"/>
    <path class="cls-10" d="M1530.18,459.46s9.27,4.82,17.06,1.27"/>
    <line class="cls-11" x1="1494.73" y1="586.29" x2="1495.39" y2="558.16"/>
    <path class="cls-11" d="M1588.58,536.6s-13.51,9.97-3.77,49.84"/>
    <g>
      <path class="cls-34" d="M1538.97,902.19s4.84,10.81,2.19,15.6c0,0-11.26,6.14-18.02-1.88,0,0,10.13-3.9,15.83-13.72Z"/>
      <path class="cls-34" d="M1536.78,895.63s-6.53,15.15-16.68,17.04c0,0-3.14-8.45-7.74-13.67,0,0,4.54-15.16-7.23-58.41,0,0,10.01,5.2,34.07,1.29,0,0,4.05,12.77,.23,26.52-3.81,13.75-2.65,27.24-2.65,27.24Z"/>
      <path class="cls-25" d="M1541.17,917.78s3.28,7.8,1.64,10.6c0,0-7.74,2.41-17.73-.86,0,0-5.42-1.81-11.53,2.46-6.11,4.27-28.91,5.11-35.73-2.04-6.82-7.15,6.12-13.31,6.12-13.31,0,0,17.74-3.8,21.16-11.45,3.42-7.65,7.27-4.19,7.27-4.19,0,0,7.73,6.63,8.52,12.51,0,0,9.46-2.01,15.91-15.88l2.2,6.56s-6.27,11.25-14.87,13.32c0,0,2.74,7.18,17.06,2.28Z"/>
      <circle class="cls-41" cx="1521.66" cy="914.55" r="3.78"/>
      <circle class="cls-41" cx="1511.24" cy="924.64" r="2.5"/>
      <circle class="cls-41" cx="1502.81" cy="927.35" r="2.5"/>
      <circle class="cls-41" cx="1493.35" cy="928.04" r="2.5"/>
      <circle class="cls-41" cx="1485.46" cy="926.55" r="2.5"/>
      <circle class="cls-41" cx="1478.83" cy="923.56" r="2.5"/>
      <path class="cls-9" d="M1510.47,918.99s-19.11,6.92-28.2-1.26"/>
    </g>
    <g>
      <path class="cls-34" d="M1579.73,902.7s6.14,10.94,3.81,16.24c0,0-11.28,7.56-19.19-.25,0,0,10.31-5.08,15.38-15.99Z"/>
      <path class="cls-34" d="M1576.79,896s-5.43,16.61-15.96,19.57c0,0-4.12-8.61-9.48-13.68,0,0,3.09-35.33-7.1-64.24,0,0,17.64,10.03,40.14-5.68,0,0-.15,19.95-2.85,34.82-2.7,14.87-4.76,29.2-4.76,29.2Z"/>
      <path class="cls-25" d="M1583.54,918.94s4.21,7.91,2.75,11.03c0,0-7.93,3.29-18.79,.79,0,0-5.89-1.39-11.93,3.7-6.03,5.09-30,8.17-37.89,1.28-7.88-6.89,5.17-14.62,5.17-14.62,0,0,18.35-5.71,21.22-14.11,2.87-8.4,7.27-5.12,7.27-5.12,0,0,8.79,6.25,10.18,12.38,0,0,9.79-3.03,15.25-18.27l2.95,6.71s-5.54,12.47-14.4,15.48c0,0,3.58,7.31,18.21,.76Z"/>
      <circle class="cls-41" cx="1562.66" cy="917.4" r="4.01"/>
      <circle class="cls-41" cx="1552.64" cy="929.05" r="2.65"/>
      <circle class="cls-41" cx="1544" cy="932.72" r="2.65"/>
      <circle class="cls-41" cx="1534.09" cy="934.36" r="2.65"/>
      <circle class="cls-41" cx="1525.63" cy="933.54" r="2.65"/>
      <circle class="cls-41" cx="1518.35" cy="931.03" r="2.65"/>
      <path class="cls-9" d="M1551.28,923.17s-19.5,9.13-29.87,1.39"/>
    </g>
  </g>
  <g class="cls-54">
    <g>
      <rect class="cls-23" x="101.45" y="768.35" width="746.81" height="24.19"/>
      <path class="cls-38" d="M124.45,444.38H441.92c19.72,0,35.74,16.01,35.74,35.74v205.26c0,.21-.17,.38-.38,.38H124.45c-19.72,0-35.74-16.01-35.74-35.74v-169.9c0-19.72,16.01-35.74,35.74-35.74Z"/>
      <rect class="cls-38" x="116.92" y="785.44" width="719.33" height="76.53" rx="15.96" ry="15.96"/>
      <path class="cls-51" d="M69.47,906.19h-21.35c-7.33,0-13.84-4.97-16.16-12.33l-8.78-27.88H97.87l-14.78,31.29c-2.58,5.46-7.86,8.92-13.63,8.92Z"/>
      <path class="cls-38" d="M513.26,444.38h353.13s.08,.03,.08,.08v205.56c0,19.72-16.01,35.74-35.74,35.74h-317.47c-19.72,0-35.74-16.01-35.74-35.74v-169.9c0-19.72,16.01-35.74,35.74-35.74Z" transform="translate(1343.98 1130.13) rotate(-180)"/>
      <path class="cls-51" d="M885.71,906.19h21.35c7.33,0,13.84-4.97,16.16-12.33l8.78-27.88h-74.69s14.78,31.29,14.78,31.29c2.58,5.46,7.86,8.92,13.63,8.92Z"/>
      <rect class="cls-16" x="830.36" y="582.42" width="122.34" height="283.65" rx="35.2" ry="35.2"/>
      <rect class="cls-16" x="1" y="582.42" width="122.34" height="283.65" rx="35.2" ry="35.2" transform="translate(124.34 1448.5) rotate(-180)"/>
      <rect class="cls-16" x="116.92" y="673.83" width="360.74" height="112.91" rx="15.96" ry="15.96"/>
      <rect class="cls-16" x="477.52" y="673.83" width="360.74" height="112.91" rx="15.96" ry="15.96" transform="translate(1315.78 1460.56) rotate(-180)"/>
      <line class="cls-14" x1="477.52" y1="481.82" x2="477.52" y2="690.55"/>
    </g>
  </g>
  <g>
    <g>
      <path class="cls-41" d="M1101.1,883.9s-3.45,2.59-1.72,7.76l1.72,26.74s5.17,5.61,18.11,4.31l11.64-4.74v-7.76l21.99,21.99s4.79,3.07,22.28,5.68c17.88,2.66,23.26-6.5,23.26-6.5,0,0,13.52-13.04,7.48-18.22l-104.77-29.26Z"/>
      <path class="cls-34" d="M1109.29,859.75c-9.79,15.02-7.18,27.06-7.18,27.06,0,0,6.88,14.8,20.55,14.34,13.68-.46,28.32,20.8,28.32,20.8,7.7,5.67,29.61,9.32,29.61,9.32,15.44,2.58,11.09-6.26,11.09-6.26,6.3,.3,3.83-4.43,3.83-4.43,5.68,1.45,3.91-3.22,3.91-3.22,3.12-1.99,1.01-4.62,1.01-4.62,2.42-.61,.79-2.2,.09-2.64-2.63-1.67-4.8-1.94-4.8-1.94l-13.53-2.6-7.91-3.63-10.37-11.54c-9.76-12.36-12.36-20.82-12.36-20.82l.52-11.45,10.32-77.91-16.98-3.67-41.36,10.67s1.27,35.75,5,48.83c3.74,13.08,.24,23.71,.24,23.71"/>
      <path class="cls-13" d="M1191.68,925.01s-.72-3.49-6.23-4.17"/>
      <path class="cls-13" d="M1195.52,920.58s-3.05-4.23-7.08-4.05"/>
      <path class="cls-13" d="M1199.42,917.35s-3.29-4.68-7.76-4.73"/>
      <path class="cls-13" d="M1200.43,912.73s-2.28-3.23-5.92-3.29"/>
      <path class="cls-41" d="M1117.06,901.58l-6.04-15.52-11.64,5.61s-3.88-3.45,1.72-7.76c5.61-4.31,9.06-4.31,9.06-4.31l-5.61-10.35s1.29-9.06,4.74-9.49c0,0,2.16,10.35,6.04,15.09,0,0,20.02-5.02,36.41-11.06l1.12,6.62-37.09,11.77,6.9,18.97-5.61,.43Z"/>
      <path class="cls-41" d="M1173.1,899.96s-4.01,8.62-22.13,21.99c0,0,7.09,10.32,15.28,10.32,0,0,8.4-25.47,20.91-25.47,0,0-10.62-7.71-14.06-6.84Z"/>
    </g>
    <g>
      <path class="cls-41" d="M1058.34,896.23s-3.45,2.59-1.72,7.76l1.72,26.74s5.17,5.61,18.11,4.31l11.64-4.74v-7.76s21.99,21.99,21.99,21.99c0,0,4.79,3.07,22.28,5.68,17.88,2.66,26.82-4.18,26.82-4.18,0,0,18.02-12.13,11.98-17.31l-112.83-32.48Z"/>
      <path class="cls-34" d="M1105.8,861.61c-.36-30.08,5.81-68.34,5.81-68.34,0,0-48.06-19.73-52.72,1.02-4.67,20.75,5.01,54.07,5.01,54.07,4.3,22.2-.72,31.15-.72,31.15-7.43,13.41-2.15,23.28-2.15,23.28,0,0,4.54,9.6,18.87,10.69,13.35,1.01,30.55,23.33,30.55,23.33,9.31,11.46,25,8,25,8,3.76,1.29,6.11-1.62,6.11-1.62,7.35,.91,8.87-2.88,8.87-2.88,6.84,.72,9.51-3.67,9.51-3.67,4.21,1,6.09-4.03,6.09-4.03,5.04-4.89,3.45-6.17,1.66-9.36-1.79-3.19-12.81-1.79-12.81-1.79l-15.61-4.23-8.95-4.94-10.94-15.59c-6.09-7.16-9.31-13.97-9.31-13.97l-4.3-21.13Z"/>
      <path class="cls-13" d="M1151.86,924.31l8.03,3s5.33,.86,6.16,5.29"/>
      <path class="cls-13" d="M1147.52,927.43s13.39,4.04,12.74,7.42l-.31,1.79"/>
      <path class="cls-13" d="M1142.74,932.55s7.65,2.23,7.7,7.76"/>
      <path class="cls-13" d="M1138.51,938.76s3.98,1.02,3.05,4.43"/>
      <path class="cls-41" d="M1074.3,913.91l-6.04-15.52-11.64,5.61s-3.88-3.45,1.72-7.76c5.61-4.31,9.06-4.31,9.06-4.31l-5.61-10.35s1.29-9.06,4.74-9.49c0,0,2.16,10.35,6.04,15.09,0,0,20.02-5.02,36.41-11.06l1.12,6.62-37.09,11.77,6.9,18.97-5.61,.43Z"/>
      <path class="cls-13" d="M1111.49,886.13l18.85,26.16,12.32,6.31,12.23,2.85s15.54-2.72,14.43,6.88"/>
      <path class="cls-41" d="M1130.34,912.29s-4.01,8.62-22.13,21.99c0,0,7.09,10.32,15.28,10.32,0,0,8.4-25.47,20.91-25.47,0,0-10.62-7.71-14.06-6.84Z"/>
      <line class="cls-13" x1="1106.88" y1="827.29" x2="1110.57" y2="801.46"/>
    </g>
    <path class="cls-34" d="M1233.07,356.98l4.67,50.92c14.57,.33,60.4,4.54,60.4,4.54,2.8,.04,5.52,.11,8.13,.23,0,0,6.36-12.71,30.8-10.54l16.62-4.23s9.76,.1,3.72,7.49c0,0-6.04,2.94-10.92,4.42l8.11,9.09s0-1.75,5.76,1.61c4.68,2.73,2.76,3.66,2.76,3.66,0,0,6.72-4.51,14.36-7.57,4.97-1.99,7.84-5.7,12.4-1.81,0,0,3.87,4.07-4.13,8.55l-16.73,12.98-31.55,2.44-21.62-3.99-8.62,3.81s-63.08,24.03-89.57,19.89-25.71-63.68-25.71-63.68"/>
    <path class="cls-34" d="M1113.58,209.57s.97,27.55-7.44,43.37c0,0-11.64,75.76,50.15,81.67,0,0,46.95-9.47,22.8-71.07,0,0-10.86-5.06-10.41-15.86,.48-11.43,1.46,.29,1.46,.29l-56.56-38.39"/>
    <path class="cls-43" d="M1039.77,489.51s-47.52,84.95-8.83,159.56l13.51,60.42s10.04,25.38,6.34,63.97c-2.35,24.55,3.5,59.3,9.72,91.77,0,0,16.48,17.03,45.74,3.17,0,0,24.75,10.18,52.38-2.95l44.77-106.48s11.81-18.52,11.81-37.86c0,0,4.37-137.29-6.69-225.04,0,0-63.72,55.89-168.76-6.57Z"/>
    <path class="cls-34" d="M1121.19,186.18s10.64-56.83,62.35-53.5c0,0,36.43,5.39,26.64,56.51,0,0-3.2,7.96-2.45,12.55,0,0,1.2,11.68-5.84,21.49-10.54,14.68-20.22,24.89-20.22,24.89,0,0-6.06,6.86-18.81,5.16,0,0-8.9-1.55-19.23-10.51,0,0-26.88-17.27-22.95-33.96,0,0-13.8,6.55-16.51-14.28,0,0-.87-28.41,17.01-8.35Z"/>
    <path class="cls-53" d="M1171.23,173.64s-17.55-5.53-25.64,.2c0,0,6.03-9.17,26.08-4.39,0,0,3.53,2.68-.45,4.19Z"/>
    <path class="cls-53" d="M1212.99,179.51c-.08-1-8.52-3.93-16.82-4.82,0,0-4.22,1.35-.98,4.1,0,0,15.65-.4,16.41,4.86,0,0,1.59-1.68,1.39-4.14Z"/>
    <path class="cls-5" d="M1186.61,202.47s5.49,11.62-7.07,10.98"/>
    <path class="cls-5" d="M1106.73,189.13s6.28-11.18,12.48,9.29c0,0-6.45-9.6-8.93-2.59"/>
    <path class="cls-53" d="M1170.37,253.21s-4.48,3.03-17.39-3.84c0,0-11.32-5.81-19.88-15.14,0,0,10.29,15.62,26.72,20.24,0,0,4.26,2.01,10.93,.72,0,0-.95-.25-.38-1.97Z"/>
    <path class="cls-10" d="M1106.25,868.4l32.31-126.64s4.12-24.72,2.06-56.64l-4.12-88.56s5.77-1.21,11.57-7.46"/>
    <g>
      <path class="cls-26" d="M1150.78,183.32s.04-.38,.36-.66c1.05-.94,3.42-2.64,6.78-2.26,3.77,.43,5.45,4.21,6.01,5.56,.1,.23,.06,.42,.06,.42,0,0-.01,.21-.15,.34-.68,.63-2.91,2.35-6.49,2-2.13-.21-4.99-1.7-6.5-4.79-.11-.22-.09-.47-.06-.61Z"/>
      <circle class="cls-53" cx="1158.49" cy="184.88" r="3.93"/>
      <circle class="cls-26" cx="1156.12" cy="183.8" r="1.08"/>
      <path class="cls-7" d="M1164.16,185.99s-3.56-9.53-13.17-3.38"/>
    </g>
    <g>
      <path class="cls-26" d="M1194.38,191.55s-.02-.36,.24-.67c.84-1.02,2.8-2.95,5.99-3.07,3.57-.14,5.67,3.14,6.38,4.31,.12,.2,.12,.38,.12,.38,0,0,.02,.2-.09,.34-.54,.68-2.37,2.6-5.75,2.79-2.01,.11-4.88-.86-6.73-3.53-.13-.19-.15-.43-.15-.56Z"/>
      <circle class="cls-53" cx="1201.77" cy="191.89" r="3.68"/>
      <circle class="cls-26" cx="1199.29" cy="191.29" r="1.03"/>
      <path class="cls-7" d="M1207.05,192.24s-4.42-8.87-12.54-1.21"/>
    </g>
    <path class="cls-26" d="M1106.14,252.94s-10.27,9.04-33.6,13.75c-29.05,5.86-53.92,59.3-53.92,59.3,0,0,4.58,32.93,42.95,47.93l-21.8,115.59s34.87,34.54,105.85,33.19c0,0,41.19,.61,65.1-17.85,0,0,.42-61.11,2.75-104.59,0,0,11.41-7.9,12.3-28.75l7.3-14.53-2.7-42.89s-2.69-28.8-32.26-42.52c0,0-11.17-2.99-19.03-8.04,0,0,5.3,22.96-2.59,36.28,0,0-26.17,26.76-55.61-1.19,0,0-17.12-15.84-14.75-45.68Z"/>
    <g>
      <path class="cls-36" d="M1154.09,224.52s1.59,5.5,7.91,9.59c4.89,3.17,7.69,3.46,12.3,2.68s9.55-5.64,9.55-5.64c0,0-.32-4.04-3.12-6.4s-7.1-1.95-7.1-1.95c0,0-5.08-3.21-9.46-1.71s-10.09,3.43-10.09,3.43Z"/>
      <path class="cls-30" d="M1155.35,224.77s6.5,2.36,10.98,6.85c0,0,2.61,2.91,9.21,.45,6.6-2.46,7.08-1.43,7.08-1.43,0,0-1.74-4.97-10.15-6.5s-17.12,.63-17.12,.63Z"/>
      <path class="cls-26" d="M1162.54,223.77s12.9-1.25,18.29,4.3c0,0-11.95-3.51-18.29-4.3Z"/>
    </g>
    <path class="cls-17" d="M1064.23,369.06s18.7-33.17,18.23-70.9"/>
    <path class="cls-19" d="M1342.59,406.55s2.47,1.6,3.88,3.32"/>
    <path class="cls-19" d="M1324.04,425.97s11.61-7.06,16.69-6.27c0,0,2.14,.55,5.8-2.68s5.21-7.53,8.46-5.5c4.71,2.95-.39,7.37-.39,7.37l-10.8,10.25"/>
    <path class="cls-19" d="M1306.27,412.66s.22,5.64,4.89,10.53"/>
    <path class="cls-19" d="M1351.49,421.82l4.68-4.04,2.15-7.14s1.29-3.53,5.05-2.93c4.2,.67,3.15,5.59,3.15,5.59l-3.64,9.31-9.2,9.08"/>
    <path class="cls-19" d="M1362.89,422.61l2.79-1.9,2.15-7.14s1.29-3.53,5.05-2.93c4.2,.67,3.15,5.59,3.15,5.59l-3.64,9.31-9.2,9.08"/>
    <path class="cls-17" d="M1225.77,371.51s.73-22.13-5.51-40.32"/>
    <path class="cls-47" d="M1191.78,141.09s-40.39,55.74-87.15,50.12c0,0,1.61,20.11,16.06,17.6,0,0,4.03,29.42-11.19,42.98,0,0-20.12,11.65-34.07,15.11-13.07,3.24-24.09,11.74-24.09,11.74,0,0,26.32-21.16,30.95-71.83,4.63-50.68,32.27-74.95,32.27-74.95,0,0,36.49-41.84,78.6-11.24,0,0,24.28,4.27,31.64,29,4.26,14.3-.05,39.2-3.7,59.06,0,0-8.84,48.42-31.82,59.54,0,0-18.21-2.94-18.93-15,0,0,4.46,.32,10.59-5.47,8.36-7.9,14.49-15.52,20.98-24.98,0,0,6.95-9.4,5.39-23.15,0,0-.19-7.15,2.42-10.94,0,0,7.03-28.85-17.95-47.59"/>
    <path class="cls-2" d="M1115.58,200.32s-8.52,9.71-1.94,17.3c6.58,7.58,4.88-8.91,4.88-8.91"/>
    <path class="cls-19" d="M1116.24,286.73c-1.65-14.7,5.12-49.11,5.12-49.11l17.19-13.37c1.55,1.12,.62,3.28,.62,3.28l6.4-3.86c2.87,3.64-1.93,10.08-1.93,10.08l6.68-5.55c3.57,2.89-.39,9.46-.39,9.46l-9.19,10.34-.09,14.71,1.53-5.81,12.46-14.43c7.7,4.14-5.92,20.4-5.92,20.4,0,0-.22,10.76-1.84,21.93-1.19,8.19-7.32,9.49-7.32,9.49,0,0-1.89,1.04-2.57,3.32-.68,2.28,0,0,0,0l-20.71-8.27-.03-2.61Z"/>
    <polyline class="cls-8" points="1139.17 227.53 1126.13 237.61 1124.92 249.86"/>
    <path class="cls-34" d="M1021.03,331.37c-24.42,74.45-.79,100.08,17.28,106.33,7.23,2.5,16.61-2.77,22.6-7.53,49.36-39.32,76.83-133.27,76.83-133.27l-21.6-8.4c-.48,2.76-.96,3.36-.96,3.36,0,0-35.91,31.34-65.35,72.29,0,0-22.6-19.05-28.8-32.79"/>
    <polyline class="cls-8" points="1143.64 233.74 1134.49 241.23 1132.57 254.19"/>
    <path class="cls-19" d="M1137.43,296.55s-2.06,2.6-3.06,7.56c-.45,2.25-2.51,11.98-2.51,11.98"/>
    <path class="cls-19" d="M1116.13,288.51s-.96,3.36-4.21,6.31"/>
  </g>
</svg>