<?xml version="1.0" encoding="UTF-8"?>
<svg id="Layer_1" data-name="Layer 1" xmlns="http://www.w3.org/2000/svg" xmlns:xlink="http://www.w3.org/1999/xlink" viewBox="0 0 1334.33 1000.11">
  <defs>
    <style>
      .cls-1 {
        fill: url(#linear-gradient);
      }

      .cls-2, .cls-3, .cls-4, .cls-5, .cls-6, .cls-7, .cls-8, .cls-9, .cls-10, .cls-11, .cls-12, .cls-13, .cls-14, .cls-15, .cls-16, .cls-17 {
        stroke-miterlimit: 10;
      }

      .cls-2, .cls-3, .cls-4, .cls-8, .cls-9, .cls-10, .cls-11, .cls-12, .cls-14, .cls-17 {
        fill: none;
      }

      .cls-2, .cls-3, .cls-7 {
        stroke-width: .8px;
      }

      .cls-2, .cls-7, .cls-10, .cls-17 {
        stroke: #603913;
      }

      .cls-3, .cls-4, .cls-8, .cls-14 {
        stroke: #231f20;
      }

      .cls-18, .cls-13 {
        fill: #00a151;
      }

      .cls-19, .cls-5 {
        fill: #00a79d;
      }

      .cls-20 {
        fill: #006838;
      }

      .cls-21 {
        fill: #f26522;
      }

      .cls-22 {
        fill: #f6ac1b;
      }

      .cls-23 {
        fill: #fff;
      }

      .cls-24 {
        fill: #ead788;
      }

      .cls-25 {
        fill: #efcccd;
      }

      .cls-26 {
        fill: #803435;
      }

      .cls-27 {
        fill: #8c3333;
      }

      .cls-28 {
        fill: #b6302e;
      }

      .cls-29 {
        fill: #943f23;
      }

      .cls-30 {
        fill: #8dc63f;
      }

      .cls-31 {
        fill: #b27a50;
      }

      .cls-32 {
        fill: #ae8578;
      }

      .cls-33 {
        fill: #a8866a;
      }

      .cls-34, .cls-7 {
        fill: #be9e7d;
      }

      .cls-35 {
        fill: #be8c8c;
      }

      .cls-36 {
        fill: #d4edf4;
      }

      .cls-37, .cls-16 {
        fill: #dc3b28;
      }

      .cls-38 {
        fill: #b13c27;
      }

      .cls-39 {
        fill: #e19926;
      }

      .cls-40 {
        fill: #cba27a;
      }

      .cls-41 {
        fill: #134a7e;
      }

      .cls-42 {
        fill: #231f20;
      }

      .cls-43 {
        fill: #414042;
      }

      .cls-44, .cls-6, .cls-15 {
        fill: #16a9de;
      }

      .cls-45 {
        fill: #6ca442;
      }

      .cls-46 {
        fill: #2b6666;
      }

      .cls-47 {
        fill: #3c2415;
      }

      .cls-48 {
        fill: #25b9e7;
      }

      .cls-49 {
        fill: #58595b;
      }

      .cls-50 {
        fill: #5f8f3e;
      }

      .cls-51 {
        fill: #75c482;
      }

      .cls-52 {
        fill: #4c96a4;
      }

      .cls-53 {
        fill: #26130f;
      }

      .cls-4 {
        stroke-linecap: round;
      }

      .cls-4, .cls-17 {
        stroke-width: .5px;
      }

      .cls-5, .cls-9, .cls-13 {
        stroke: #006838;
      }

      .cls-6, .cls-15 {
        stroke: #2e3192;
      }

      .cls-11 {
        stroke: #27aae1;
      }

      .cls-12, .cls-16 {
        stroke: #be1e2d;
      }

      .cls-13, .cls-15, .cls-16 {
        stroke-width: .1px;
      }

      .cls-14 {
        stroke-width: 1.2px;
      }

      .cls-54 {
        fill: #dea962;
      }

      .cls-54, .cls-55 {
        opacity: .8;
      }

      .cls-55 {
        fill: #edb36e;
      }
    </style>
    <linearGradient id="linear-gradient" x1="397.14" y1="474.04" x2="397.14" y2="404.56" gradientTransform="translate(-54.35 64.06) rotate(-7.91)" gradientUnits="userSpaceOnUse">
      <stop offset="0" stop-color="#be9e7d"/>
      <stop offset=".7" stop-color="#231f20"/>
    </linearGradient>
  </defs>
  <g>
    <rect class="cls-55" x="593.14" y="-157.08" width="149.56" height="1332.82" transform="translate(1177.25 -158.6) rotate(90)"/>
    <rect class="cls-54" x="593.14" y="-306.15" width="149.56" height="1332.82" transform="translate(1028.18 -307.67) rotate(90)"/>
    <rect class="cls-55" x="593.14" y="-455.93" width="149.56" height="1332.82" transform="translate(878.4 -457.45) rotate(90)"/>
    <rect class="cls-54" x="600.44" y="-597.71" width="134.97" height="1332.82" transform="translate(736.62 -599.22) rotate(90)"/>
    <rect class="cls-54" x="593.14" y="-7.23" width="149.56" height="1332.82" transform="translate(1327.1 -8.75) rotate(90)"/>
    <rect class="cls-45" y="733.52" width="1333.94" height="266.59"/>
    <g>
      <path class="cls-24" d="M.22,1.57V95.83s20.42,91.12,23.56,125.68c0,0,18.85-171.24,11-221.51L.22,1.57Z"/>
      <path class="cls-24" d="M1333.99,1.57V95.83s-20.42,91.12-23.56,125.68C1310.42,221.51,1291.57,50.27,1299.43,0l34.56,1.57Z"/>
      <path class="cls-24" d="M86.63,0s-6.28,157.1-29.85,230.93c0,0-26.71-179.09-21.99-230.93h51.84Z"/>
      <path class="cls-24" d="M234.3,0s-6.28,157.1-29.85,230.93c0,0-26.71-179.09-21.99-230.93h51.84Z"/>
      <path class="cls-24" d="M185.6,0s-6.28,133.59-29.85,196.37c0,0-26.71-152.29-21.99-196.37h51.84Z"/>
      <path class="cls-24" d="M135.33,0s-6.28,122.9-29.85,180.66c0,0-26.71-140.11-21.99-180.66h51.84Z"/>
      <path class="cls-24" d="M234.3,0s-11,163.38,6.28,208.94c0,0-4.71-177.52,26.71-208.94h-32.99Z"/>
      <path class="cls-24" d="M315.99,0s-6.28,157.1-29.85,230.93c0,0-26.71-179.09-21.99-230.93h51.84Z"/>
      <path class="cls-24" d="M463.66,0s-6.28,157.1-29.85,230.93c0,0-26.71-179.09-21.99-230.93h51.84Z"/>
      <path class="cls-24" d="M414.96,0s-6.28,133.59-29.85,196.37c0,0-26.71-152.29-21.99-196.37h51.84Z"/>
      <path class="cls-24" d="M364.69,0s-6.28,122.9-29.85,180.66c0,0-26.71-140.11-21.99-180.66h51.84Z"/>
      <path class="cls-24" d="M463.66,0s-11,163.38,6.28,208.94c0,0-4.71-177.52,26.71-208.94h-32.99Z"/>
      <path class="cls-24" d="M542.21,0s-6.28,157.1-29.85,230.93c0,0-26.71-179.09-21.99-230.93h51.84Z"/>
      <path class="cls-24" d="M689.88,0s-6.28,157.1-29.85,230.93c0,0-26.71-179.09-21.99-230.93h51.84Z"/>
      <path class="cls-24" d="M641.18,0s-6.28,133.59-29.85,196.37c0,0-26.71-152.29-21.99-196.37h51.84Z"/>
      <path class="cls-24" d="M590.91,0s-6.28,122.9-29.85,180.66c0,0-26.71-140.11-21.99-180.66h51.84Z"/>
      <path class="cls-24" d="M689.88,0s-11,163.38,6.28,208.94c0,0-4.71-177.52,26.71-208.94h-32.99Z"/>
      <path class="cls-24" d="M771.57,0s-6.28,157.1-29.85,230.93c0,0-26.71-179.09-21.99-230.93h51.84Z"/>
      <path class="cls-24" d="M919.25,0s-6.28,157.1-29.85,230.93c0,0-26.71-179.09-21.99-230.93h51.84Z"/>
      <path class="cls-24" d="M870.55,0s-6.28,133.59-29.85,196.37c0,0-26.71-152.29-21.99-196.37h51.84Z"/>
      <path class="cls-24" d="M820.28,0s-6.28,122.9-29.85,180.66c0,0-26.71-140.11-21.99-180.66h51.84Z"/>
      <path class="cls-24" d="M919.25,0s-11,163.38,6.28,208.94c0,0-4.71-177.52,26.71-208.94h-32.99Z"/>
      <path class="cls-24" d="M1000.94,0s-6.28,157.1-29.85,230.93c0,0-26.71-179.09-21.99-230.93h51.84Z"/>
      <path class="cls-24" d="M1148.61,0s-6.28,157.1-29.85,230.93c0,0-26.71-179.09-21.99-230.93h51.84Z"/>
      <path class="cls-24" d="M1099.91,0s-6.28,133.59-29.85,196.37c0,0-26.71-152.29-21.99-196.37h51.84Z"/>
      <path class="cls-24" d="M1049.64,0s-6.28,122.9-29.85,180.66c0,0-26.71-140.11-21.99-180.66h51.84Z"/>
      <path class="cls-24" d="M1302.57,0s-6.28,157.1-29.85,230.93c0,0-26.71-179.09-21.99-230.93h51.84Z"/>
      <path class="cls-24" d="M1253.87,0s-6.28,133.59-29.85,196.37c0,0-26.71-152.29-21.99-196.37h51.84Z"/>
      <path class="cls-24" d="M1203.6,0s-6.28,122.9-29.85,180.66c0,0-26.71-140.11-21.99-180.66h51.84Z"/>
      <path class="cls-24" d="M1148.61,0s-11,163.38,6.28,208.94c0,0-4.71-177.52,26.71-208.94h-32.99Z"/>
    </g>
  </g>
  <ellipse class="cls-50" cx="728.13" cy="877.31" rx="598.77" ry="113.64"/>
  <g>
    <circle class="cls-13" cx="37.5" cy="891.26" r="24.05"/>
    <path class="cls-9" d="M43.26,871.72s9.24,3.33,11.09,12.94"/>
  </g>
  <rect class="cls-21" x="17.29" y="938.21" width="69.89" height="10.35"/>
  <rect class="cls-37" x="71.13" y="959.09" width="69.89" height="10.35" transform="translate(-501.1 207.69) rotate(-32.47)"/>
  <rect class="cls-22" x="63.12" y="913.03" width="69.89" height="10.35" transform="translate(-80.46 12.2) rotate(-5.05)"/>
  <rect class="cls-30" x="35.42" y="935.47" width="69.89" height="10.35" transform="translate(334.54 35.12) rotate(20.54)"/>
  <rect class="cls-48" x="97.87" y="931.01" width="69.89" height="10.35" transform="translate(61.66 -6.69) rotate(3.76)"/>
  <g>
    <rect class="cls-52" x="167.47" y="874.5" width="62.83" height="42.72"/>
    <polygon class="cls-46" points="246.14 907.83 230.3 917.84 230.3 874.19 246.14 867.27 246.14 907.83"/>
    <polygon class="cls-46" points="167.47 874.5 230.3 874.19 246.14 867.27 184.56 867.27 167.47 874.5"/>
  </g>
  <g>
    <rect class="cls-52" x="195.76" y="753.56" width="62.83" height="42.72"/>
    <polygon class="cls-46" points="274.43 786.89 258.59 796.9 258.59 753.25 274.43 746.34 274.43 786.89"/>
    <polygon class="cls-46" points="195.76 753.56 258.59 753.25 274.43 746.34 212.85 746.34 195.76 753.56"/>
  </g>
  <g>
    <rect class="cls-22" x="39.48" y="783.25" width="62.83" height="42.72"/>
    <polygon class="cls-39" points="118.15 816.58 102.31 826.59 102.31 782.94 118.15 776.02 118.15 816.58"/>
    <polygon class="cls-39" points="39.48 783.25 102.31 782.94 118.15 776.02 56.57 776.02 39.48 783.25"/>
  </g>
  <g>
    <path class="cls-42" d="M994.88,774.66s3.46-19.42,23.1-32.78c0,0,28.93-6.67,72.34,38.06,0,0,56.38,8.81,89.77,57.91,0,0,29.01,39.07-19.66,38.83,0,0-61.61-2.54-97.62-23.03,0,0-4.15-45.95-67.93-78.99Z"/>
    <g>
      <path class="cls-42" d="M1105.33,825.73s-34.67,29.68,31.48,74.97c47.13,32.26,74.48,82.85,85.73,68.03l11.74-32.61-34.73-58.8-56.16-45.08-38.06-6.5Z"/>
      <path class="cls-43" d="M1105.33,825.73s14.94,2.02,28.8,11.47c13.58,9.28,42.29,35.56,42.29,35.56,0,0,71.01,36.75,44.7,97.92l9.59-8.77s28.43-39.73-44.17-103.75c0,0-45.59-35.38-62.63-42.64,0,0-7.07,.51-18.57,10.21Z"/>
      <path class="cls-34" d="M1094.61,937.12s16.57-23.59,41.63-8.29l25.02,10.03,15.08,6.78,20.63,16.08s8.88,15.62,14.75,14.83c5.87-.78,9.07,.02,10.5-11.24,0,0,4.69-7.32-.7-11.8,0,0,3.09-7.72-4.49-15.88,0,0,3.42-5.66-4.89-14.28,0,0,1.48-5.86-3.84-9.48,0,0-17.11-30.98-34.83-34.89,0,0-23.89-11.26-38.18-27.56-8.06-9.19-16.24-12.7-22.19-13.96-4.82-1.02-9.78,.54-13.15,4.14-6.64,7.1-20.06,21.04-32.66,31.62"/>
      <path class="cls-17" d="M1197.7,955.01l11.68,7.48s6.3,6.06,12.82,2.82"/>
      <path class="cls-17" d="M1197.52,946.38s18.23,13.39,21.97,9.27l2.01-2.13"/>
      <path class="cls-17" d="M1199.5,935.22s10.31,7.74,17.52,2.41"/>
      <path class="cls-17" d="M1203.42,923.72s5.18,4.16,8.7-.36"/>
      <path class="cls-43" d="M1168.14,864.11s-32.73,36.77-21.69,69.23l38.92,20.76s2.07-35.02,18.72-62.28c0,0-13.78-16.86-35.95-27.71Z"/>
    </g>
    <path class="cls-34" d="M542.07,592.63l9.44-4.25s2.83-2.36-6.61-7.55c-9.44-5.19-22.65-11.32-19.34-24.53l37.74,16.04s25.48,3.3,40.58,16.51l139.66-45.77,44.72-50.59,78.09,16.52-7.51,66.83s-63.4,50.76-102.09,54.06l-138.24,.47s-8.49,1.89-10.85,6.61l-42.93,14.15-22.65-58.5Z"/>
    <path class="cls-41" d="M858.34,664.19s-150.67,81.78-190.3,134.62c-39.63,52.84,3.77,103.8,33.97,103.8,0,0-6.61,50.96,60.39,67.94,67,16.99,336.87-31.14,336.87-31.14,0,0,15.1-58.5-21.7-102.85,0,0,143.12-23.91,94.68-178.03"/>
    <path class="cls-34" d="M989.19,196.78s.47,38.89,14.79,66.35c0,0,3.58,100.28-72.82,108.04,0,0-83.24-54.12-30.83-103.4l88.86-71Z"/>
    <path class="cls-37" d="M1015.63,265.58s61.78,7.98,92.46,40.66c0,0,25.29,33.88,29.96,67.9,0,0-9.62,70.33-2.28,139.7,0,0,26.42,98.77,36.49,144.69h0s-75.8,82.72-313.91,5.66c0,0,31.35,33.35,0,0,0,0-11.95-23.91-16.99-155.38,0,0-51.29-8.23-62.91-13.21l13.48-115.77s1.25-41.53,40.49-69.71c0,0,29.71-23.17,51.8-32.56l42.99,32.73,7.9,38.86,13.36-30.06s2.42-15.17,67.16-53.5Z"/>
    <path class="cls-12" d="M1077.11,301.99s-34.44,8.02-45.77,45.77c-11.32,37.74-27.37,93.89-27.37,93.89l35.61,7.38"/>
    <line class="cls-12" x1="823.75" y1="388.81" x2="842.15" y2="504.4"/>
    <path class="cls-10" d="M555.28,592.63s4.72,19.34,21.23,22.65"/>
    <path class="cls-11" d="M1077.58,836.56s-143.43,29.25-168.91,33.97c-25.48,4.72-35.86,11.32-36.8,18.87"/>
    <path class="cls-11" d="M702.02,902.61s-14.15-55.67,22.65-83.98c36.8-28.31,168.91-122.67,168.91-122.67"/>
    <polygon class="cls-27" points="1012 253.15 999.67 251.2 1001.95 265.7 1012 253.15"/>
    <path class="cls-28" d="M1022.42,266.94s-63.34,38.54-75.85,60.43l1.74-21.68s46.97-30.25,63.69-52.54l10.43,13.8Z"/>
    <path class="cls-28" d="M900.47,271.3s-23.74-.78-22.84,14.59l48.55,36.97,1.56-12.81s-22.89-11.45-37.92-29.97c0,0,10.07-1.36,10.64-8.78Z"/>
    <path class="cls-12" d="M935.58,348.22s1.7,117.84-5.9,334.3"/>
    <ellipse class="cls-25" cx="945.04" cy="381.66" rx="3.79" ry="4.1"/>
    <ellipse class="cls-25" cx="945.16" cy="542.1" rx="3.79" ry="4.1"/>
    <ellipse class="cls-25" cx="946.38" cy="457.64" rx="3.79" ry="4.1"/>
    <ellipse class="cls-25" cx="943.79" cy="644.68" rx="3.79" ry="4.1"/>
    <g>
      <polygon class="cls-25" points="995.47 695.25 988.75 688.46 999.65 677.41 1010.69 688.32 1005.21 695.96 995.47 695.25"/>
      <polygon class="cls-25" points="971.01 691.92 966.88 688.6 977.78 677.55 988.82 688.46 984.55 693.58 971.01 691.92"/>
      <rect class="cls-25" x="991.82" y="658.59" width="15.52" height="15.52" transform="translate(-176.87 909.56) rotate(-45.37)"/>
      <rect class="cls-49" x="981" y="669.77" width="15.52" height="15.52" transform="translate(-188.04 905.18) rotate(-45.37)"/>
      <rect class="cls-25" x="969.95" y="658.74" width="15.52" height="15.52" transform="translate(-183.48 894.04) rotate(-45.37)"/>
      <rect class="cls-25" x="991.61" y="636.62" width="15.52" height="15.52" transform="translate(-161.29 902.87) rotate(-45.37)"/>
      <rect class="cls-49" x="980.79" y="647.79" width="15.52" height="15.52" transform="translate(-172.46 898.5) rotate(-45.37)"/>
      <rect class="cls-25" x="969.74" y="636.76" width="15.52" height="15.52" transform="translate(-167.9 887.35) rotate(-45.37)"/>
      <rect class="cls-25" x="991.47" y="614.77" width="15.52" height="15.52" transform="translate(-145.79 896.27) rotate(-45.37)"/>
      <rect class="cls-49" x="980.65" y="625.94" width="15.52" height="15.52" transform="translate(-156.96 891.9) rotate(-45.37)"/>
      <rect class="cls-25" x="969.6" y="614.91" width="15.52" height="15.52" transform="translate(-152.39 880.75) rotate(-45.37)"/>
      <rect class="cls-25" x="991.33" y="592.92" width="15.52" height="15.52" transform="translate(-130.28 889.67) rotate(-45.37)"/>
      <rect class="cls-49" x="980.51" y="604.09" width="15.52" height="15.52" transform="translate(-141.45 885.3) rotate(-45.37)"/>
      <rect class="cls-25" x="969.46" y="593.06" width="15.52" height="15.52" transform="translate(-136.88 874.15) rotate(-45.37)"/>
      <rect class="cls-25" x="991.19" y="571.06" width="15.52" height="15.52" transform="translate(-114.77 883.07) rotate(-45.37)"/>
      <rect class="cls-49" x="980.37" y="582.23" width="15.52" height="15.52" transform="translate(-125.94 878.7) rotate(-45.37)"/>
      <rect class="cls-25" x="969.32" y="571.2" width="15.52" height="15.52" transform="translate(-121.37 867.55) rotate(-45.37)"/>
      <rect class="cls-25" x="991.05" y="549.29" width="15.52" height="15.52" transform="translate(-99.31 876.5) rotate(-45.37)"/>
      <rect class="cls-49" x="980.23" y="560.46" width="15.52" height="15.52" transform="translate(-110.48 872.12) rotate(-45.37)"/>
      <rect class="cls-25" x="969.18" y="549.43" width="15.52" height="15.52" transform="translate(-105.92 860.97) rotate(-45.37)"/>
      <rect class="cls-25" x="990.91" y="527.44" width="15.52" height="15.52" transform="translate(-83.81 869.9) rotate(-45.37)"/>
      <rect class="cls-49" x="980.09" y="538.61" width="15.52" height="15.52" transform="translate(-94.97 865.52) rotate(-45.37)"/>
      <rect class="cls-25" x="969.04" y="527.58" width="15.52" height="15.52" transform="translate(-90.41 854.37) rotate(-45.37)"/>
      <rect class="cls-25" x="990.77" y="505.66" width="15.52" height="15.52" transform="translate(-68.35 863.32) rotate(-45.37)"/>
      <rect class="cls-49" x="979.95" y="516.83" width="15.52" height="15.52" transform="translate(-79.52 858.94) rotate(-45.37)"/>
      <rect class="cls-25" x="968.9" y="505.8" width="15.52" height="15.52" transform="translate(-74.96 847.8) rotate(-45.37)"/>
      <rect class="cls-25" x="990.63" y="483.81" width="15.52" height="15.52" transform="translate(-52.84 856.72) rotate(-45.37)"/>
      <rect class="cls-49" x="979.81" y="494.98" width="15.52" height="15.52" transform="translate(-64.01 852.34) rotate(-45.37)"/>
      <rect class="cls-25" x="968.76" y="483.95" width="15.52" height="15.52" transform="translate(-59.45 841.2) rotate(-45.37)"/>
      <rect class="cls-25" x="990.49" y="462.04" width="15.52" height="15.52" transform="translate(-37.39 850.14) rotate(-45.37)"/>
      <rect class="cls-49" x="979.67" y="473.21" width="15.52" height="15.52" transform="translate(-48.56 845.77) rotate(-45.37)"/>
      <rect class="cls-25" x="968.61" y="462.18" width="15.52" height="15.52" transform="translate(-43.99 834.62) rotate(-45.37)"/>
      <rect class="cls-25" x="990.41" y="439.8" width="15.52" height="15.52" transform="translate(-21.59 843.47) rotate(-45.37)"/>
      <rect class="cls-49" x="979.59" y="450.97" width="15.52" height="15.52" transform="translate(-32.75 839.1) rotate(-45.37)"/>
      <rect class="cls-25" x="968.54" y="439.94" width="15.52" height="15.52" transform="translate(-28.19 827.95) rotate(-45.37)"/>
      <rect class="cls-25" x="990.2" y="417.82" width="15.52" height="15.52" transform="translate(-6.01 836.79) rotate(-45.37)"/>
      <rect class="cls-49" x="979.38" y="428.99" width="15.52" height="15.52" transform="translate(-17.18 832.41) rotate(-45.37)"/>
      <rect class="cls-25" x="968.33" y="417.96" width="15.52" height="15.52" transform="translate(-12.61 821.26) rotate(-45.37)"/>
      <rect class="cls-25" x="990.06" y="395.97" width="15.52" height="15.52" transform="translate(9.5 830.19) rotate(-45.37)"/>
      <rect class="cls-49" x="979.24" y="407.14" width="15.52" height="15.52" transform="translate(-1.67 825.81) rotate(-45.37)"/>
      <rect class="cls-25" x="968.19" y="396.11" width="15.52" height="15.52" transform="translate(2.89 814.67) rotate(-45.37)"/>
      <rect class="cls-25" x="989.92" y="374.12" width="15.52" height="15.52" transform="translate(25.01 823.59) rotate(-45.37)"/>
      <rect class="cls-49" x="979.1" y="385.29" width="15.52" height="15.52" transform="translate(13.84 819.21) rotate(-45.37)"/>
      <rect class="cls-25" x="968.05" y="374.26" width="15.52" height="15.52" transform="translate(18.4 808.07) rotate(-45.37)"/>
      <rect class="cls-25" x="989.78" y="352.27" width="15.52" height="15.52" transform="translate(40.52 816.99) rotate(-45.37)"/>
      <rect class="cls-49" x="978.96" y="363.44" width="15.52" height="15.52" transform="translate(29.35 812.61) rotate(-45.37)"/>
      <rect class="cls-25" x="967.91" y="352.41" width="15.52" height="15.52" transform="translate(33.91 801.47) rotate(-45.37)"/>
      <rect class="cls-25" x="989.64" y="330.49" width="15.52" height="15.52" transform="translate(55.97 810.41) rotate(-45.37)"/>
      <rect class="cls-49" x="978.82" y="341.66" width="15.52" height="15.52" transform="translate(44.8 806.03) rotate(-45.37)"/>
      <rect class="cls-25" x="967.77" y="330.63" width="15.52" height="15.52" transform="translate(49.37 794.89) rotate(-45.37)"/>
      <rect class="cls-25" x="989.5" y="308.64" width="15.52" height="15.52" transform="translate(71.48 803.81) rotate(-45.37)"/>
      <rect class="cls-49" x="978.68" y="319.81" width="15.52" height="15.52" transform="translate(60.31 799.43) rotate(-45.37)"/>
      <rect class="cls-25" x="967.63" y="308.78" width="15.52" height="15.52" transform="translate(64.87 788.29) rotate(-45.37)"/>
      <rect class="cls-25" x="989.31" y="286.87" width="15.52" height="15.52" transform="translate(86.92 797.2) rotate(-45.37)"/>
      <rect class="cls-49" x="978.49" y="298.04" width="15.52" height="15.52" transform="translate(75.75 792.82) rotate(-45.37)"/>
      <polyline class="cls-49" points="984.14 292.67 986.1 294.68 997 283.64 996.43 283.08"/>
      <polygon class="cls-25" points="975.27 305.74 986.17 294.69 984.14 292.67 972.09 302.67 975.27 305.74"/>
    </g>
    <g>
      <polyline class="cls-25" points="1010.29 423.1 1020.01 438.01 1035.59 427.86 1025.44 412.28 1010.48 422"/>
      <polygon class="cls-49" points="1013.66 409.74 1010.48 422 1025.27 412.34 1016.72 399.18 1013.66 409.74"/>
      <polyline class="cls-25" points="1016.8 399.14 1025.42 412.37 1041 402.22 1030.85 386.64 1018.12 394.93"/>
      <rect class="cls-25" x="1039.21" y="421.2" width="18.59" height="18.59" transform="translate(-65 642.16) rotate(-33.09)"/>
      <rect class="cls-49" x="1028.89" y="405.69" width="18.59" height="18.59" transform="translate(-58.2 634.01) rotate(-33.09)"/>
      <rect class="cls-25" x="1044.62" y="395.57" width="18.59" height="18.59" transform="translate(-50.13 640.96) rotate(-33.09)"/>
      <rect class="cls-25" x="1064.82" y="426.61" width="18.59" height="18.59" transform="translate(-63.8 657.02) rotate(-33.09)"/>
      <rect class="cls-49" x="1054.5" y="411.09" width="18.59" height="18.59" transform="translate(-57 648.87) rotate(-33.09)"/>
      <rect class="cls-25" x="1070.23" y="400.97" width="18.59" height="18.59" transform="translate(-48.92 655.82) rotate(-33.09)"/>
      <rect class="cls-49" x="1080.12" y="416.5" width="18.59" height="18.59" transform="translate(-55.8 663.73) rotate(-33.09)"/>
      <rect class="cls-25" x="1090.44" y="432.23" width="18.59" height="18.59" transform="translate(-62.71 671.92) rotate(-33.09)"/>
      <rect class="cls-25" x="1095.85" y="406.59" width="18.59" height="18.59" transform="translate(-47.84 670.71) rotate(-33.09)"/>
      <polyline class="cls-49" points="1120.31 422.49 1117.75 418.56 1102.17 428.71 1112.32 444.28"/>
    </g>
    <path class="cls-34" d="M834.2,92.52s-12.46,23.83-1.67,75.85c0,0,3.84,12.33,3.37,19.32s1,18.32,4.52,25.27c3.52,6.94,28.82,53.25,28.82,53.25,0,0,8.03,13.34,32.86,10.35,24.84-2.99,44.7-14.82,52.26-26.44,7.56-11.63,27.68-31.5,27.78-47.86,0,0,15.16,1.43,18.85-17.08,0,0,12.42-29.64-4.53-34.71-16.96-5.07-23.33,18.31-23.33,18.31,0,0,10.5-67.75-29.43-88.35,0,0-50.07-31.71-109.5,12.1Z"/>
    <path class="cls-42" d="M890.86,141.97s21.4-4.26,38.99,5.04c0,0-7.7-14.91-38.98-11.28,0,0-5.43,3.47-.01,6.24Z"/>
    <path class="cls-42" d="M831.64,161.19c11.24-10.21,19.81-10.52,19.81-10.52,3.44-5.02-2.99-5.48-2.99-5.48-9.11,3.66-15.34,7.81-19.61,11.78,0,0,2.17,4.78,2.79,4.22Z"/>
    <path class="cls-14" d="M998.93,162.12s-7.7-7.87-12.6,2.62c-4.9,10.49-4.67,13.63-4.67,13.63,0,0,6.74-16.47,12.8-5.47"/>
    <path class="cls-53" d="M900.59,276.13s22.02-1.05,38.5-11.86c0,0,10.33-4.86,22.34-23.21,0,0-10.48,26.06-36.62,33.12,0,0-11.53,4.41-24.22,1.95,0,0,.95,2.51,0,0Z"/>
    <g>
      <path class="cls-23" d="M919.49,156.75s-.08-.57-.58-.98c-1.65-1.36-5.34-3.8-10.42-3.01-5.69,.88-8,6.72-8.78,8.79-.13,.36-.07,.64-.07,.64,0,0,.03,.32,.26,.51,1.07,.91,4.56,3.39,9.96,2.64,3.22-.45,7.46-2.87,9.57-7.66,.15-.33,.1-.72,.06-.93Z"/>
      <circle class="cls-53" cx="907.9" cy="159.58" r="5.96"/>
      <circle class="cls-23" cx="911.43" cy="157.81" r="1.63"/>
      <path class="cls-8" d="M899.36,161.61s4.82-14.67,19.76-5.92"/>
    </g>
    <g>
      <path class="cls-23" d="M854.57,171.73s0-.54-.4-1c-1.34-1.5-4.42-4.3-9.26-4.29-5.42,0-8.4,5.1-9.42,6.92-.18,.31-.16,.59-.16,.59,0,0-.02,.3,.16,.51,.87,1,3.75,3.8,8.89,3.88,3.06,.04,7.34-1.61,10-5.76,.18-.29,.2-.66,.19-.85Z"/>
      <circle class="cls-53" cx="843.39" cy="172.69" r="5.58"/>
      <circle class="cls-23" cx="847.11" cy="171.64" r="1.56"/>
      <path class="cls-8" d="M835.4,173.54s6.17-13.72,18.94-2.59"/>
    </g>
    <g>
      <path class="cls-32" d="M918.13,228.72s-17.19-14.15-32.37-8.41c0,0-14.54-1.3-20.7,16.03,0,0,9.68,14.33,24.1,9.96,14.42-4.36,21.94-7.7,28.97-17.58Z"/>
      <path class="cls-26" d="M915.23,228.84s-22.92-6.98-29.78-4.06c0,0-10.65,.33-18.68,11.63,0,0,14.17-1.17,21.56,2.77,0,0,14.39-7.83,26.9-10.33Z"/>
      <path class="cls-23" d="M901.65,225.82s-19.03-5.36-28.96,4.65c0,0,14.89-2.86,28.96-4.65Z"/>
    </g>
    <path class="cls-14" d="M870.63,175.57l-7.83,23s-3.19,16.93,7.65,17.3c9.65,.33,9.49-1.74,9.49-1.74"/>
    <path class="cls-47" d="M973.86,169.87l-8.3-1.76c-4.66-19.49-15.82-61-33.52-75.43,0,0-64.56-15.12-96.46,17.23,0,0-10.48,12.44-1.81,63.97,0,0-15.5-33.69-11.36-66.54,0,0-11.42-4.66-13.49-7.54,0,0,13.51-.7,18.45-8.83,2.9-4.77,45.37-59.37,114.15-30.15,0,0,60.15-1.89,57.11,90.26,0,0-19.74-.76-24.75,18.8Z"/>
    <path class="cls-47" d="M925.99,229.51s-1.07-15.12-14.07-16.64c-15.97-1.86-32.57-.23-43.24,7.84s-15.86,15.82-6.44,14.61c9.42-1.21,26.22-15.92,47.76-9.29,0,0,9.11,6.76,15.99,3.47Z"/>
    <path class="cls-34" d="M931.36,360.61c-.56-4.3-3.57-11.3-3.57-11.3,0,0-9.28-1.55-10.38-19.2-1.28-20.52,3.11-39.96,3.11-39.96,0,0-19.72-33.21-4.67-38.4l18.16,29.58,1.04,10.9,4.15-26.47-13.49-21.28s-5.19-12.97,2.08-17.13l10.38,11.94s-6.75-12.97-.52-18.68l10.38,8.82s-1.04-4.15,2.08-5.71l26.99,29.06s2.08,63.83-5.19,89.78c0,0,4.17,14.24,15.28,28.68,13.29,17.28,45.63,64.68,45.63,64.68,0,0,40.32,40.32,81.52,21.71,0,0,10.63,135.57-40.32,140.89,0,0-47.83,24.48-87.28-46.08-37.66-67.34-55.38-191.84-55.38-191.84Z"/>
    <path class="cls-2" d="M954.35,287.19l1.86-26.75-28.41-33.08c-7.6,4.81-2.08,17.13-2.08,17.13l13.49,21.28-4.15,26.47-1.04-10.9-18.16-29.58c-14.71,4.68,4.67,38.4,4.67,38.4l-2.97,20.66s-2.79,36.47,10.23,38.5l2.39,6.02"/>
    <path class="cls-2" d="M938.18,239.29s-9.01-13.2-.52-18.68l30.87,30.76-1.42,22.38"/>
    <path class="cls-2" d="M1032.82,435.93s32.06,34.6,43.13,71.82"/>
    <path class="cls-2" d="M948.04,229.43s-.82-3.3,2.08-5.71l26.99,29.06s1.38,32.33-.39,50.27"/>
  </g>
  <g>
    <path class="cls-34" d="M578.4,873.8l5.9,23.59c5.9,23.59-13.47,27.6-13.47,27.6-14.06,16.78-104.47-4.01-121.7-4.01s-33.57,3.18-33.57,3.18c0,0-42.64,8.16-57.61,4.99s-29.48,3.18-29.48,3.18c-10.43,1.81-5.44-5.44-5.44-5.44-.91-3.18,3.18-5.9,3.18-5.9-1.36-3.18,4.08-5.9,4.08-5.9-1.81-3.63,4.99-5.9,4.99-5.9-2.72-1.81,5.56-9.51,5.56-9.51,0,0,8.2-11.28,14.36-9.23s22.56-5.13,22.56-5.13c29.74-19.49,36.92-1.03,36.92-1.03,0,0,8.14,4.48,15.4,1.3,7.26-3.18,59.42-17.69,68.04-16.33"/>
    <path class="cls-34" d="M599.51,821.7s23.67,16.16,16.74,45.6c-6.93,29.44-21.36,34.06-21.36,34.06,0,0-9.24,39.83-60.61,34.06-51.37-5.77-87.22-25.93-87.22-25.93,0,0-48.43,1.69-59.39,10.35l4.62-40.41"/>
    <path class="cls-7" d="M335.28,909.18s6.8,4.99,17.24-.91"/>
    <path class="cls-7" d="M330.29,915.08s5.24,5.71,15.99,2.92"/>
    <path class="cls-7" d="M326.21,920.98s7.73,8.97,19.68,3.4"/>
    <path class="cls-7" d="M323.03,926.87s2.54,5.07,10.9,2.68"/>
    <path class="cls-34" d="M418.59,482.7s6.29,20.54,1.68,38.58c0,0,5.17,33.93,45.43,39.26,0,0,43.51-8.61,17.44-38.82,0,0-4-1.56-3.38-8.26,0,0-49.33-2.36-61.17-30.76Z"/>
    <path class="cls-34" d="M483.54,401.31s12.01,6.65,16.49,32.51c4.47,25.86,4.84,32.01,4.42,53.52-.42,21.51-30.82,29.5-30.82,29.5,0,0-47.49-.44-58.14-24.24,0,0-8.53,14.55-21.32-1.01,0,0-14.43-17.01-5.84-23.67,0,0,9.58-5.68,17.56,4.12,0,0-14.17-43.3-.39-53,0,0,30.48-42.99,78.04-17.72Z"/>
    <path class="cls-53" d="M452.77,438.65s-17.57,4.94-22.51,12.87c0,0,1.82-9.26,21.31-15.95,0,0,4.13,.08,1.2,3.08Z"/>
    <path class="cls-53" d="M500.77,434.83c-.25-.79-9.35-2.98-17.96-3.53,0,0-4.08,1.16-.31,3.29,0,0,15.9-.62,17.55,3.57,0,0,1.34-1.37,.72-3.33Z"/>
    <path class="cls-3" d="M480.41,460.49s10.09,11-4.05,14.62"/>
    <path class="cls-3" d="M390.81,477.01s2.56-11.99,14.03,4.94c0,0-8.62-6.94-8.89,.17"/>
    <path class="cls-53" d="M481.27,514.12s-12.58,3.36-22.35,1.34c0,0-8.49-.42-19.85-4.74,0,0,8.4,6.66,23.38,8.65,0,0,10.6,1.77,18.91-1.83,0,0-.15-.74-.09-3.42Z"/>
    <path class="cls-19" d="M420.26,521.28s-58.02,14.37-66.55,52.55c-8.53,38.18-9.64,79.82-9.64,79.82,0,0,20.94,7.45,49.2-.78,0,0-14.2,23.49-34.73,65.26-13.68,27.84-15.53,55.08-15.1,73.13,0,0,150.04,44.51,181.11-16.36,0,0,1.49-50.64,9.08-128.7,0,0,15.87-8.35,22.37-25.03l-12.38-49.64s-12.26-40.24-60.48-49.82c0,0,15.77,20.11-8.97,26.77,0,0-37.47,10.01-53.9-27.21Z"/>
    <path class="cls-43" d="M420.26,521.28s11.67,32.9,53.9,27.21c0,0,24.45-7.22,8.97-26.77,0,0,5.26,.96,7.01,2.03,0,0,15.5,24.31-14.88,30.86,0,0-33.95,4.76-50.88-15.01,0,0-7.44-9.07-9.98-16.07l5.86-2.26Z"/>
    <g>
      <path class="cls-23" d="M437.47,455.68s-.08-.43,.17-.85c.83-1.38,2.84-4.06,6.67-4.78,4.28-.81,7.4,2.76,8.48,4.05,.19,.22,.21,.44,.21,.44,0,0,.06,.24-.05,.43-.53,.92-2.39,3.57-6.43,4.4-2.41,.49-6.04-.16-8.76-3.04-.19-.2-.25-.49-.28-.65Z"/>
      <circle class="cls-53" cx="446.44" cy="454.77" r="4.5"/>
      <circle class="cls-23" cx="443.48" cy="454.4" r="1.24"/>
      <path class="cls-3" d="M453.04,454.06s-7.14-9.23-15.58,.78"/>
    </g>
    <g>
      <path class="cls-23" d="M484.34,449.05s-.14-.38,.03-.8c.57-1.39,2.03-4.12,5.44-5.33,3.81-1.35,7.18,1.49,8.34,2.51,.2,.18,.26,.37,.26,.37,0,0,.09,.21,.01,.4-.36,.92-1.69,3.61-5.28,4.94-2.14,.79-5.56,.7-8.46-1.55-.2-.16-.3-.41-.35-.55Z"/>
      <circle class="cls-53" cx="492.44" cy="446.93" r="4.16"/>
      <circle class="cls-23" cx="489.57" cy="447.12" r="1.17"/>
      <path class="cls-3" d="M498.26,445.54s-7.75-8.1-13.95,2.9"/>
    </g>
    <path class="cls-43" d="M343.3,786.45s146.04,45.6,181.25-11.54l73.88,46.75s-17.89,4.91-21.93,21.93l5.48,2.89s-43.29,1.15-47.33,54.55l-82.83-6.64s-40.12,11.54-84.56-13.85c-44.45-25.4-23.95-94.09-23.95-94.09Z"/>
    <path class="cls-8" d="M517.04,802.03s-8.66,1.73,.58,11.54l64.36,32.9"/>
    <path class="cls-7" d="M580.68,846.91s28.14,19.77,13.13,54.4"/>
    <path class="cls-22" d="M373.6,795.11s-29.01,64.07,41.99,74.46,119.05,24.24,119.05,24.24l3.03-12.99s-86.58-24.68-122.08-27.27c-35.5-2.6-39.4-25.97-30.3-55.85l-11.69-2.6Z"/>
    <line class="cls-6" x1="537.83" y1="586.97" x2="540.66" y2="625.66"/>
    <g>
      <path class="cls-35" d="M459.59,490.51s3.19,5.05,10.56,7.29c5.7,1.73,8.5,1.2,12.75-.94,4.25-2.14,7.58-8.49,7.58-8.49,0,0-1.52-3.97-4.95-5.5s-7.48,.14-7.48,.14c0,0-5.9-1.72-9.7,1.08-3.81,2.8-8.77,6.42-8.77,6.42Z"/>
      <path class="cls-26" d="M460.89,490.38s7.02,.45,12.71,3.63c0,0,3.41,2.15,9.08-2.27,5.67-4.42,6.45-3.53,6.45-3.53,0,0-3.18-4.48-11.81-3.52-8.63,.96-16.43,5.69-16.43,5.69Z"/>
      <path class="cls-23" d="M467.57,487.26s12.15-5.07,19.05-1.09c0,0-12.66,0-19.05,1.09Z"/>
    </g>
    <path class="cls-53" d="M477.88,429.22s-2.98,3.89,0,5.95c0,0-.69-3.43,0-5.95Z"/>
    <path class="cls-42" d="M489.58,407.33s1.93-17.13-26.04-28.01c0,0-29.23-14-56.71,11.06,0,0-28.82,9.68-23.78,37.46,0,0,13.98-17.54,28.65-3.97,0,0,7.96-18.68,28.55-12.57,0,0,16.93,3.03,28.12,8.66,0,0,8.05-14.4,21.21-12.64Z"/>
    <path class="cls-1" d="M385.69,411.38s-15.74,14.29,1.51,59.84c0,0,8.25-15.11,21.8,7.07l.14-10.54s-9.95-29.01,6.01-50.54l-29.46-5.83Z"/>
    <g>
      <path class="cls-33" d="M452.84,643.47s7.14-20.7,3.46-32.78l7.36,.44s8.17,28.93-10.82,32.34Z"/>
      <path class="cls-33" d="M478.3,642.46l-.2-5.41s6.92-5.45,5.6-25.04l10.6,1.03s2.01,33.79-16,29.41Z"/>
      <path class="cls-31" d="M514.05,616.01s-79.02-8.64-103.51-5.37c0,0,79.82-7,101.52-2.33,0,0,7.96,2.1,1.99,7.7Z"/>
      <path class="cls-51" d="M413.88,610.07s-12.05,1.14-14.16,11.23c0,0,18.88,4.23,14.16-11.23Z"/>
      <path class="cls-51" d="M427.76,610.1s-10.42-3.26-10.91-14.49c0,0,17.09-2.93,10.91,14.49Z"/>
      <path class="cls-40" d="M452.84,643.47s2.02-18.15-16.38-20.67c-18.4-2.52-24.95,14.62-24.95,14.62,0,0-4.79,22.18,10.84,23.69,15.63,1.51,21.67,7.56,21.67,7.56,0,0,19.91,16.38,36.8,13.11,16.89-3.28,27.22-9.58,29.49-25.45,2.27-15.88-.5-38.56-5.8-45.62,0,0-2.77-8.57-6.55-6.8s-3.28,12.6-3.28,12.6c0,0-.39,18.39-6.3,22.18-6.3,4.03-10.08,3.78-10.08,3.78,0,0-.76-29.74-7.31-34.78-6.55-5.04-8.82,2.27-8.82,2.27,0,0,4.87,7.18,1.76,19.91-2.52,10.33-7.81,11.84-7.81,11.84l-3.28,1.76Z"/>
      <path class="cls-23" d="M427.3,634.58s-11.12,2.32-11.12,9.42,.77,13.28,12.05,12.97c11.28-.31,19.92-11.89,19.92-11.89,0,0,3.24-10.5-2.63-13.59-5.87-3.09-15.75-4.02-18.23,3.09Z"/>
      <path class="cls-42" d="M416.34,651.9s2.33-9.04,6.85-9.53c4.52-.49,5.44,2.61,5.44,2.61,0,0,.49,2.82-3.6,5.29s-3.6,6-3.6,6c0,0-3.67-.35-5.08-4.38Z"/>
      <path class="cls-42" d="M447.19,634.5s-10.36-2.16-12.3,1.62c-1.94,3.78,2.16,5.83,2.16,5.83,0,0,5.94-1.51,11.65-.76,0,0,1.62-3.67-1.51-6.69Z"/>
      <path class="cls-42" d="M435.43,649.61s-6.15,.32-4.21-2.59c1.94-2.91,5.29-2.37,5.29-2.37,0,0,1.51,.97-1.08,4.96Z"/>
      <path class="cls-4" d="M435.43,649.61c.43,4.75-5.61,2.48-5.61,2.48"/>
      <path class="cls-4" d="M440.83,647.12s-2.07,3.95-5.74,2.74"/>
      <circle class="cls-23" cx="424.36" cy="646.36" r="2.13"/>
      <circle class="cls-42" cx="424.44" cy="646.33" r="1.39"/>
      <circle class="cls-23" cx="423.48" cy="646.29" r=".8"/>
      <circle class="cls-23" cx="438.87" cy="638.27" r="2.13"/>
      <circle class="cls-42" cx="438.96" cy="638.25" r="1.39"/>
      <circle class="cls-23" cx="437.99" cy="638.21" r=".8"/>
    </g>
    <path class="cls-5" d="M379.61,557.09s21.07,.31,28.94,27.68,11.95,58.82,11.95,58.82l-17.9,5.89"/>
    <path class="cls-34" d="M547.97,692.03s-13.59,.41-21.1-24.55c-9.19-30.55-3.85-93.12-3.85-93.12-.61-6.29-4.19-12.31-4.19-12.31,0,0-7.57-5.41-7.04-14.74,.67-11.72,.38-22.87,.38-22.87,0,0-12.39-18.23-4-21.71l11.38,16.21,.97,6.17,1.44-15.22-8.43-11.65s-3.41-7.21,.58-9.83l6.33,6.44s-4.3-7.15-.95-10.62l6.22,4.66s-.74-2.33,.98-3.32l16.39,15.61s3.86,33.12,.63,48.16l.2,8.18c23.53,61.47,27.19,95.55,27.19,95.55,0,0,6.29,38.14-23.13,38.95Z"/>
    <path class="cls-17" d="M531.33,521.58l.12-15.3-17.34-17.85c-4.16,3.01-.58,9.83-.58,9.83l8.43,11.65-1.44,15.22-.97-6.17-11.38-16.21c-8.22,3.18,4,21.71,4,21.71l.26,18.05"/>
    <path class="cls-17" d="M520.44,494.86s-5.59-7.21-.95-10.62l18.66,16.44-.03,12.8"/>
    <path class="cls-34" d="M424.7,558.98l4.33-8.11c-3.23-15.03,.63-48.16,.63-48.16l16.39-15.61c1.72,1,.98,3.32,.98,3.32l6.22-4.66c3.35,3.47-.95,10.62-.95,10.62l6.33-6.44c3.99,2.62,.58,9.83,.58,9.83l-8.43,11.65,1.44,15.22,.97-6.17,11.38-16.21c8.39,3.48-4,21.71-4,21.71,0,0-.3,11.16,.38,22.87,.54,9.33-7.04,14.74-7.04,14.74,0,0-7.1,7.31-7.57,9.74,0,0-14.61,67.62-26.78,97.11-12.17,29.48-40.85,36.52-40.85,36.52,0,0-25.16-3.79-30.3-29.21-5.14-25.43-1.64-24.27-1.64-24.27,0,0,3.5-1.19,25.14-1.46,0,0,25.73-49.74,52.78-93.02Z"/>
    <path class="cls-17" d="M441.41,523.09l-.12-15.3,17.34-17.85c4.16,3.01,.58,9.83,.58,9.83l-8.43,11.65,1.44,15.22,.97-6.17,11.38-16.21c8.22,3.18-4,21.71-4,21.71l.38,22.87s-.13,4.66-1.16,6.29"/>
    <path class="cls-17" d="M452.3,496.38s5.59-7.21,.95-10.62l-18.66,16.44,.03,12.8"/>
    <path class="cls-17" d="M427.24,512.54l.5-13.97,15.96-13.47s2.93,.88,3.33,5.3"/>
    <path class="cls-36" d="M437.61,455.45s3.44,4.21,8.19,3.83c2.77-.22,4.48-1.47,7.28-4.55,0,0-1.71,6.58-11.52,5.33,0,0-1.88,16.34-1.33,21.42,0,0,1.44,1.99-.11,2.54s-.44-2.76-.44-2.76c0,0-.55-13.25,1.1-21.2,0,0-2.52-2.15-3.17-4.61Z"/>
    <path class="cls-36" d="M437.11,466.16s1.66,.08,.99-5.47c0,0-.83,2.82-1.57,3.98,0,0-1.17,1.32,.58,1.49Z"/>
    <path class="cls-36" d="M498.31,446.66s-2.05,4.51-7.65,4.55c-2.78,.02-2.77-.06-5.98-1.97,0,0,2.52,4.1,10.27,2.42,0,0,3.13,16.15,2.97,21.26,0,0-1.28,2.09,.31,2.52s.23-2.79,.23-2.79c0,0-.47-13.26-2.73-21.06,0,0,2.12-2.43,2.58-4.94Z"/>
    <path class="cls-36" d="M499.86,457.4s-1.65,.21-1.41-5.37c0,0,1.04,2.74,1.87,3.84,0,0,1.27,1.23-.46,1.53Z"/>
  </g>
  <g>
    <rect class="cls-38" x="39.13" y="742.4" width="62.83" height="42.72"/>
    <polygon class="cls-29" points="117.8 775.74 101.96 785.74 101.96 742.1 117.8 735.18 117.8 775.74"/>
    <polygon class="cls-29" points="39.13 742.4 101.96 742.1 117.8 735.18 56.22 735.18 39.13 742.4"/>
  </g>
  <g>
    <rect class="cls-28" x="73.88" y="860.18" width="76.11" height="16.38"/>
    <polygon class="cls-37" points="73.88 860.2 149.99 860.2 165.64 842.91 97.88 843.19 73.88 860.2"/>
    <polygon class="cls-28" points="149.99 860.18 165.64 842.91 165.64 858.2 149.99 876.56 149.99 860.18"/>
    <path class="cls-28" d="M95.83,848.64v3.55s6.98,3.02,13.69-.11l.17-3.44h-13.87Z"/>
    <ellipse class="cls-16" cx="102.76" cy="848.64" rx="6.93" ry="2.1"/>
    <path class="cls-28" d="M114.61,848.64v3.55s6.98,3.02,13.69-.11l.17-3.44h-13.87Z"/>
    <ellipse class="cls-16" cx="121.54" cy="848.64" rx="6.93" ry="2.1"/>
    <path class="cls-28" d="M134.51,848.95v3.55s6.98,3.02,13.69-.11l.17-3.44h-13.87Z"/>
    <ellipse class="cls-16" cx="141.44" cy="848.95" rx="6.93" ry="2.1"/>
  </g>
  <g>
    <rect class="cls-41" x="164.42" y="948.98" width="35.96" height="18.22"/>
    <polygon class="cls-44" points="164.42 948.99 200.38 948.99 211.5 929.75 180.13 930.07 164.42 948.99"/>
    <polygon class="cls-41" points="200.38 948.98 211.5 929.75 211.5 946.77 200.38 967.2 200.38 948.98"/>
    <path class="cls-41" d="M174.14,942.06v2.75s5.4,2.34,10.6-.09l.14-2.66h-10.73Z"/>
    <ellipse class="cls-15" cx="179.5" cy="942.06" rx="5.37" ry="1.63"/>
    <path class="cls-41" d="M188.68,942.06v2.75s5.4,2.34,10.6-.09l.14-2.66h-10.73Z"/>
    <ellipse class="cls-15" cx="194.04" cy="942.06" rx="5.37" ry="1.63"/>
    <path class="cls-41" d="M179.98,933.48v2.75s5.4,2.34,10.6-.09l.14-2.66h-10.73Z"/>
    <ellipse class="cls-15" cx="185.35" cy="933.48" rx="5.37" ry="1.63"/>
    <path class="cls-41" d="M194.52,933.48v2.75s5.4,2.34,10.6-.09l.14-2.66h-10.73Z"/>
    <ellipse class="cls-15" cx="199.89" cy="933.48" rx="5.37" ry="1.63"/>
  </g>
  <g>
    <rect class="cls-20" x="120.45" y="805.96" width="35.96" height="18.22"/>
    <polygon class="cls-18" points="120.45 805.98 156.41 805.98 167.53 786.73 136.16 787.05 120.45 805.98"/>
    <polygon class="cls-20" points="156.41 805.96 167.53 786.73 167.53 803.76 156.41 824.18 156.41 805.96"/>
    <path class="cls-20" d="M130.17,799.04v2.75s5.4,2.34,10.6-.09l.14-2.66h-10.73Z"/>
    <ellipse class="cls-13" cx="135.53" cy="799.04" rx="5.37" ry="1.63"/>
    <path class="cls-20" d="M144.71,799.04v2.75s5.4,2.34,10.6-.09l.14-2.66h-10.73Z"/>
    <ellipse class="cls-13" cx="150.07" cy="799.04" rx="5.37" ry="1.63"/>
    <path class="cls-20" d="M136.01,790.46v2.75s5.4,2.34,10.6-.09l.14-2.66h-10.73Z"/>
    <ellipse class="cls-13" cx="141.38" cy="790.46" rx="5.37" ry="1.63"/>
    <path class="cls-20" d="M150.55,790.46v2.75s5.4,2.34,10.6-.09l.14-2.66h-10.73Z"/>
    <ellipse class="cls-13" cx="155.92" cy="790.46" rx="5.37" ry="1.63"/>
  </g>
</svg>