<?xml version="1.0" encoding="UTF-8"?>
<svg xmlns="http://www.w3.org/2000/svg" xmlns:xlink="http://www.w3.org/1999/xlink" viewBox="0 0 1334.33 1000.11">
  <defs>
    <style>
      .cls-1 {
        fill: url(#linear-gradient);
      }

      .cls-2 {
        stroke: #754c29;
      }

      .cls-2, .cls-3 {
        stroke-width: .8px;
      }

      .cls-2, .cls-3, .cls-4, .cls-5, .cls-6, .cls-7, .cls-8, .cls-9, .cls-10, .cls-11, .cls-12, .cls-13, .cls-14, .cls-15, .cls-16, .cls-17, .cls-18, .cls-19 {
        stroke-miterlimit: 10;
      }

      .cls-2, .cls-3, .cls-4, .cls-5, .cls-6, .cls-10, .cls-11, .cls-12, .cls-13, .cls-14, .cls-16, .cls-19 {
        fill: none;
      }

      .cls-3, .cls-4, .cls-6, .cls-10, .cls-16 {
        stroke: #231f20;
      }

      .cls-20, .cls-15 {
        fill: #00a151;
      }

      .cls-21, .cls-7 {
        fill: #00a79d;
      }

      .cls-22 {
        fill: #006838;
      }

      .cls-23 {
        fill: #f26522;
      }

      .cls-24 {
        fill: #f6ac1b;
      }

      .cls-25 {
        fill: #fff;
      }

      .cls-26 {
        fill: #ead788;
      }

      .cls-27 {
        fill: #efcccd;
      }

      .cls-28 {
        fill: #803435;
      }

      .cls-29 {
        fill: #8c3333;
      }

      .cls-30 {
        fill: #b6302e;
      }

      .cls-31 {
        fill: #943f23;
      }

      .cls-32 {
        fill: #8dc63f;
      }

      .cls-33 {
        fill: #b27a50;
      }

      .cls-34 {
        fill: #ae8578;
      }

      .cls-35 {
        fill: #a8866a;
      }

      .cls-36 {
        fill: #be9e7d;
      }

      .cls-37 {
        fill: #d39494;
      }

      .cls-38, .cls-8, .cls-18 {
        fill: #dc3b28;
      }

      .cls-39 {
        fill: #b13c27;
      }

      .cls-40 {
        fill: #e19926;
      }

      .cls-41 {
        fill: #cba27a;
      }

      .cls-42 {
        fill: #134a7e;
      }

      .cls-43 {
        fill: #231f20;
      }

      .cls-44 {
        fill: #414042;
      }

      .cls-45, .cls-9, .cls-17 {
        fill: #16a9de;
      }

      .cls-46 {
        fill: #6ca442;
      }

      .cls-47 {
        fill: #2b6666;
      }

      .cls-48 {
        fill: #3c2415;
      }

      .cls-49 {
        fill: #25b9e7;
      }

      .cls-50 {
        fill: #58595b;
      }

      .cls-51 {
        fill: #5f8f3e;
      }

      .cls-52 {
        fill: #75c482;
      }

      .cls-53 {
        fill: #4c96a4;
      }

      .cls-54 {
        fill: #26130f;
      }

      .cls-4, .cls-5 {
        stroke-width: .7px;
      }

      .cls-5, .cls-12, .cls-19 {
        stroke: #603913;
      }

      .cls-6 {
        stroke-linecap: round;
      }

      .cls-6, .cls-19 {
        stroke-width: .5px;
      }

      .cls-7, .cls-11, .cls-15 {
        stroke: #006838;
      }

      .cls-8, .cls-14, .cls-18 {
        stroke: #be1e2d;
      }

      .cls-9 {
        stroke: #2b3990;
      }

      .cls-13 {
        stroke: #27aae1;
      }

      .cls-15, .cls-17, .cls-18 {
        stroke-width: .1px;
      }

      .cls-16 {
        stroke-width: 1.2px;
      }

      .cls-17 {
        stroke: #2e3192;
      }

      .cls-55 {
        fill: #dea962;
      }

      .cls-55, .cls-56 {
        opacity: .8;
      }

      .cls-56 {
        fill: #edb36e;
      }
    </style>
    <linearGradient id="linear-gradient" x1="612.71" y1="357.12" x2="612.71" y2="287.63" gradientTransform="translate(59.22 -149.83) rotate(9.33)" gradientUnits="userSpaceOnUse">
      <stop offset="0" stop-color="#be9e7d"/>
      <stop offset=".7" stop-color="#231f20"/>
    </linearGradient>
  </defs>
  <g id="Layer_2" data-name="Layer 2">
    <g>
      <rect class="cls-56" x="593.14" y="-157.08" width="149.56" height="1332.82" transform="translate(1177.25 -158.6) rotate(90)"/>
      <rect class="cls-55" x="593.14" y="-306.15" width="149.56" height="1332.82" transform="translate(1028.18 -307.67) rotate(90)"/>
      <rect class="cls-56" x="593.14" y="-455.93" width="149.56" height="1332.82" transform="translate(878.4 -457.45) rotate(90)"/>
      <rect class="cls-55" x="600.44" y="-597.71" width="134.97" height="1332.82" transform="translate(736.62 -599.22) rotate(90)"/>
      <rect class="cls-55" x="593.14" y="-7.23" width="149.56" height="1332.82" transform="translate(1327.1 -8.75) rotate(90)"/>
      <rect class="cls-46" y="733.52" width="1333.94" height="266.59"/>
      <g>
        <path class="cls-26" d="M.22,1.57V95.83s20.42,91.12,23.56,125.68c0,0,18.85-171.24,11-221.51L.22,1.57Z"/>
        <path class="cls-26" d="M1333.99,1.57V95.83s-20.42,91.12-23.56,125.68C1310.42,221.51,1291.57,50.27,1299.43,0l34.56,1.57Z"/>
        <path class="cls-26" d="M86.63,0s-6.28,157.1-29.85,230.93c0,0-26.71-179.09-21.99-230.93h51.84Z"/>
        <path class="cls-26" d="M234.3,0s-6.28,157.1-29.85,230.93c0,0-26.71-179.09-21.99-230.93h51.84Z"/>
        <path class="cls-26" d="M185.6,0s-6.28,133.59-29.85,196.37c0,0-26.71-152.29-21.99-196.37h51.84Z"/>
        <path class="cls-26" d="M135.33,0s-6.28,122.9-29.85,180.66c0,0-26.71-140.11-21.99-180.66h51.84Z"/>
        <path class="cls-26" d="M234.3,0s-11,163.38,6.28,208.94c0,0-4.71-177.52,26.71-208.94h-32.99Z"/>
        <path class="cls-26" d="M315.99,0s-6.28,157.1-29.85,230.93c0,0-26.71-179.09-21.99-230.93h51.84Z"/>
        <path class="cls-26" d="M463.66,0s-6.28,157.1-29.85,230.93c0,0-26.71-179.09-21.99-230.93h51.84Z"/>
        <path class="cls-26" d="M414.96,0s-6.28,133.59-29.85,196.37c0,0-26.71-152.29-21.99-196.37h51.84Z"/>
        <path class="cls-26" d="M364.69,0s-6.28,122.9-29.85,180.66c0,0-26.71-140.11-21.99-180.66h51.84Z"/>
        <path class="cls-26" d="M463.66,0s-11,163.38,6.28,208.94c0,0-4.71-177.52,26.71-208.94h-32.99Z"/>
        <path class="cls-26" d="M542.21,0s-6.28,157.1-29.85,230.93c0,0-26.71-179.09-21.99-230.93h51.84Z"/>
        <path class="cls-26" d="M689.88,0s-6.28,157.1-29.85,230.93c0,0-26.71-179.09-21.99-230.93h51.84Z"/>
        <path class="cls-26" d="M641.18,0s-6.28,133.59-29.85,196.37c0,0-26.71-152.29-21.99-196.37h51.84Z"/>
        <path class="cls-26" d="M590.91,0s-6.28,122.9-29.85,180.66c0,0-26.71-140.11-21.99-180.66h51.84Z"/>
        <path class="cls-26" d="M689.88,0s-11,163.38,6.28,208.94c0,0-4.71-177.52,26.71-208.94h-32.99Z"/>
        <path class="cls-26" d="M771.57,0s-6.28,157.1-29.85,230.93c0,0-26.71-179.09-21.99-230.93h51.84Z"/>
        <path class="cls-26" d="M919.25,0s-6.28,157.1-29.85,230.93c0,0-26.71-179.09-21.99-230.93h51.84Z"/>
        <path class="cls-26" d="M870.55,0s-6.28,133.59-29.85,196.37c0,0-26.71-152.29-21.99-196.37h51.84Z"/>
        <path class="cls-26" d="M820.28,0s-6.28,122.9-29.85,180.66c0,0-26.71-140.11-21.99-180.66h51.84Z"/>
        <path class="cls-26" d="M919.25,0s-11,163.38,6.28,208.94c0,0-4.71-177.52,26.71-208.94h-32.99Z"/>
        <path class="cls-26" d="M1000.94,0s-6.28,157.1-29.85,230.93c0,0-26.71-179.09-21.99-230.93h51.84Z"/>
        <path class="cls-26" d="M1148.61,0s-6.28,157.1-29.85,230.93c0,0-26.71-179.09-21.99-230.93h51.84Z"/>
        <path class="cls-26" d="M1099.91,0s-6.28,133.59-29.85,196.37c0,0-26.71-152.29-21.99-196.37h51.84Z"/>
        <path class="cls-26" d="M1049.64,0s-6.28,122.9-29.85,180.66c0,0-26.71-140.11-21.99-180.66h51.84Z"/>
        <path class="cls-26" d="M1302.57,0s-6.28,157.1-29.85,230.93c0,0-26.71-179.09-21.99-230.93h51.84Z"/>
        <path class="cls-26" d="M1253.87,0s-6.28,133.59-29.85,196.37c0,0-26.71-152.29-21.99-196.37h51.84Z"/>
        <path class="cls-26" d="M1203.6,0s-6.28,122.9-29.85,180.66c0,0-26.71-140.11-21.99-180.66h51.84Z"/>
        <path class="cls-26" d="M1148.61,0s-11,163.38,6.28,208.94c0,0-4.71-177.52,26.71-208.94h-32.99Z"/>
      </g>
    </g>
    <ellipse class="cls-51" cx="728.13" cy="877.31" rx="598.77" ry="113.64"/>
    <g>
      <circle class="cls-15" cx="37.5" cy="891.26" r="24.05"/>
      <path class="cls-11" d="M43.26,871.72s9.24,3.33,11.09,12.94"/>
    </g>
    <rect class="cls-23" x="17.29" y="938.21" width="69.89" height="10.35"/>
    <rect class="cls-38" x="71.13" y="959.09" width="69.89" height="10.35" transform="translate(-501.1 207.69) rotate(-32.47)"/>
    <rect class="cls-24" x="63.12" y="913.03" width="69.89" height="10.35" transform="translate(-80.46 12.2) rotate(-5.05)"/>
    <rect class="cls-32" x="35.42" y="935.47" width="69.89" height="10.35" transform="translate(334.54 35.12) rotate(20.54)"/>
    <rect class="cls-49" x="97.87" y="931.01" width="69.89" height="10.35" transform="translate(61.66 -6.69) rotate(3.76)"/>
    <g>
      <rect class="cls-53" x="167.47" y="874.5" width="62.83" height="42.72"/>
      <polygon class="cls-47" points="246.14 907.83 230.3 917.84 230.3 874.19 246.14 867.27 246.14 907.83"/>
      <polygon class="cls-47" points="167.47 874.5 230.3 874.19 246.14 867.27 184.56 867.27 167.47 874.5"/>
    </g>
    <g>
      <rect class="cls-53" x="195.76" y="753.56" width="62.83" height="42.72"/>
      <polygon class="cls-47" points="274.43 786.89 258.59 796.9 258.59 753.25 274.43 746.34 274.43 786.89"/>
      <polygon class="cls-47" points="195.76 753.56 258.59 753.25 274.43 746.34 212.85 746.34 195.76 753.56"/>
    </g>
    <g>
      <rect class="cls-24" x="39.48" y="783.25" width="62.83" height="42.72"/>
      <polygon class="cls-40" points="118.15 816.58 102.31 826.59 102.31 782.94 118.15 776.02 118.15 816.58"/>
      <polygon class="cls-40" points="39.48 783.25 102.31 782.94 118.15 776.02 56.57 776.02 39.48 783.25"/>
    </g>
    <g>
      <rect class="cls-39" x="39.13" y="742.4" width="62.83" height="42.72"/>
      <polygon class="cls-31" points="117.8 775.74 101.96 785.74 101.96 742.1 117.8 735.18 117.8 775.74"/>
      <polygon class="cls-31" points="39.13 742.4 101.96 742.1 117.8 735.18 56.22 735.18 39.13 742.4"/>
    </g>
    <g>
      <rect class="cls-30" x="73.88" y="860.18" width="76.11" height="16.38"/>
      <polygon class="cls-38" points="73.88 860.2 149.99 860.2 165.64 842.91 97.88 843.19 73.88 860.2"/>
      <polygon class="cls-30" points="149.99 860.18 165.64 842.91 165.64 858.2 149.99 876.56 149.99 860.18"/>
      <path class="cls-30" d="M95.83,848.64v3.55s6.98,3.02,13.69-.11l.17-3.44h-13.87Z"/>
      <ellipse class="cls-18" cx="102.76" cy="848.64" rx="6.93" ry="2.1"/>
      <path class="cls-30" d="M114.61,848.64v3.55s6.98,3.02,13.69-.11l.17-3.44h-13.87Z"/>
      <ellipse class="cls-18" cx="121.54" cy="848.64" rx="6.93" ry="2.1"/>
      <path class="cls-30" d="M134.51,848.95v3.55s6.98,3.02,13.69-.11l.17-3.44h-13.87Z"/>
      <ellipse class="cls-18" cx="141.44" cy="848.95" rx="6.93" ry="2.1"/>
    </g>
    <g>
      <rect class="cls-42" x="164.42" y="948.98" width="35.96" height="18.22"/>
      <polygon class="cls-45" points="164.42 948.99 200.38 948.99 211.5 929.75 180.13 930.07 164.42 948.99"/>
      <polygon class="cls-42" points="200.38 948.98 211.5 929.75 211.5 946.77 200.38 967.2 200.38 948.98"/>
      <path class="cls-42" d="M174.14,942.06v2.75s5.4,2.34,10.6-.09l.14-2.66h-10.73Z"/>
      <ellipse class="cls-17" cx="179.5" cy="942.06" rx="5.37" ry="1.63"/>
      <path class="cls-42" d="M188.68,942.06v2.75s5.4,2.34,10.6-.09l.14-2.66h-10.73Z"/>
      <ellipse class="cls-17" cx="194.04" cy="942.06" rx="5.37" ry="1.63"/>
      <path class="cls-42" d="M179.98,933.48v2.75s5.4,2.34,10.6-.09l.14-2.66h-10.73Z"/>
      <ellipse class="cls-17" cx="185.35" cy="933.48" rx="5.37" ry="1.63"/>
      <path class="cls-42" d="M194.52,933.48v2.75s5.4,2.34,10.6-.09l.14-2.66h-10.73Z"/>
      <ellipse class="cls-17" cx="199.89" cy="933.48" rx="5.37" ry="1.63"/>
    </g>
    <g>
      <rect class="cls-22" x="120.45" y="805.96" width="35.96" height="18.22"/>
      <polygon class="cls-20" points="120.45 805.98 156.41 805.98 167.53 786.73 136.16 787.05 120.45 805.98"/>
      <polygon class="cls-22" points="156.41 805.96 167.53 786.73 167.53 803.76 156.41 824.18 156.41 805.96"/>
      <path class="cls-22" d="M130.17,799.04v2.75s5.4,2.34,10.6-.09l.14-2.66h-10.73Z"/>
      <ellipse class="cls-15" cx="135.53" cy="799.04" rx="5.37" ry="1.63"/>
      <path class="cls-22" d="M144.71,799.04v2.75s5.4,2.34,10.6-.09l.14-2.66h-10.73Z"/>
      <ellipse class="cls-15" cx="150.07" cy="799.04" rx="5.37" ry="1.63"/>
      <path class="cls-22" d="M136.01,790.46v2.75s5.4,2.34,10.6-.09l.14-2.66h-10.73Z"/>
      <ellipse class="cls-15" cx="141.38" cy="790.46" rx="5.37" ry="1.63"/>
      <path class="cls-22" d="M150.55,790.46v2.75s5.4,2.34,10.6-.09l.14-2.66h-10.73Z"/>
      <ellipse class="cls-15" cx="155.92" cy="790.46" rx="5.37" ry="1.63"/>
    </g>
  </g>
  <g id="Layer_1" data-name="Layer 1">
    <g>
      <path class="cls-43" d="M994.79,775.17s3.46-19.42,23.1-32.78c0,0,28.93-6.67,72.34,38.06,0,0,56.38,8.81,89.77,57.91,0,0,29.01,39.07-19.66,38.83,0,0-61.61-2.54-97.62-23.03,0,0-4.15-45.95-67.93-78.99Z"/>
      <g>
        <path class="cls-43" d="M1096.61,825.15s-37.09,31.75,33.68,80.2c50.42,34.51,79.67,88.63,91.71,72.77l12.56-34.88-37.16-62.9-60.08-48.23-40.71-6.95Z"/>
        <path class="cls-44" d="M1096.61,825.15s15.99,2.16,30.81,12.27c14.53,9.92,45.24,38.04,45.24,38.04,0,0,75.96,39.32,47.81,104.75l10.26-9.38s30.42-42.5-47.25-110.99c0,0-48.77-37.85-67-45.61,0,0-7.56,.54-19.87,10.92Z"/>
        <path class="cls-36" d="M1085.14,944.31s17.72-25.24,44.53-8.87l26.76,10.73,16.13,7.25,22.07,17.2s9.5,16.71,15.78,15.87c6.28-.84,9.7,.03,11.23-12.02,0,0,5.01-7.83-.75-12.62,0,0,3.3-8.26-4.8-16.98,0,0,3.65-6.05-5.23-15.27,0,0,1.59-6.27-4.11-10.14,0,0-18.31-33.14-37.26-37.33,0,0-25.56-12.05-40.84-29.48-8.62-9.83-17.37-13.58-23.74-14.93-5.16-1.09-10.47,.58-14.07,4.43-7.1,7.6-21.46,22.51-34.94,33.83"/>
        <path class="cls-19" d="M1195.42,963.45l12.5,8s6.74,6.48,13.72,3.02"/>
        <path class="cls-19" d="M1195.23,954.22s19.5,14.33,23.5,9.92l2.15-2.28"/>
        <path class="cls-19" d="M1197.34,942.29s11.03,8.28,18.74,2.58"/>
        <path class="cls-19" d="M1201.54,929.98s5.54,4.45,9.31-.39"/>
        <path class="cls-44" d="M1163.79,866.21s-35.01,39.33-23.2,74.06l41.63,22.21s2.21-37.46,20.03-66.63c0,0-14.74-18.04-38.46-29.64Z"/>
      </g>
      <path class="cls-36" d="M554.4,575.42l9.44-4.25s2.83-2.36-6.61-7.55c-9.44-5.19-11.72-3.91-8.42-17.12l26.82,8.63s25.48,3.3,40.58,16.51l139.66-45.77,39.16-41.52,78.32,36.8,2.83,62.28s-68.41,25.95-107.1,29.25l-138.24,.47s-8.49,1.89-10.85,6.61l-42.93,14.15-22.65-58.5Z"/>
      <path class="cls-12" d="M567.61,575.42s4.72,19.34,21.23,22.65"/>
      <path class="cls-42" d="M858.26,664.7s-150.67,81.78-190.3,134.62c-39.63,52.84,3.77,103.8,33.97,103.8,0,0-6.61,50.96,60.39,67.94,67,16.99,336.87-31.14,336.87-31.14,0,0,15.1-58.5-21.7-102.85,0,0,143.12-23.91,94.68-178.03"/>
      <path class="cls-36" d="M989.11,197.29s.47,38.89,14.79,66.35c0,0,3.58,100.28-72.82,108.04,0,0-53.3-39.06-30.83-103.4l88.86-71Z"/>
      <path class="cls-38" d="M1015.55,266.09s61.78,7.98,92.46,40.66c0,0,25.29,33.88,29.96,67.9,0,0-9.62,70.33-2.28,139.7,0,0,26.42,98.77,36.49,144.69h0s-75.8,82.72-313.91,5.66c0,0,31.35,33.35,0,0,0,0-11.95-23.91-16.99-155.38,0,0-51.29-8.23-62.91-13.21l13.48-115.77s1.25-41.53,40.49-69.71c0,0,29.71-23.17,51.8-32.56l42.99,32.73,7.9,38.86,13.36-30.06s2.42-15.17,67.16-53.5Z"/>
      <line class="cls-14" x1="823.66" y1="389.32" x2="842.06" y2="504.91"/>
      <path class="cls-13" d="M1077.5,837.07s-143.43,29.25-168.91,33.97c-25.48,4.72-35.86,11.32-36.8,18.87"/>
      <path class="cls-13" d="M701.94,903.12s-14.15-55.67,22.65-83.98c36.8-28.31,168.91-122.67,168.91-122.67"/>
      <path class="cls-30" d="M1023.27,267.77s-63.34,38.54-75.85,60.43l1.74-21.68s46.97-30.25,63.69-52.54l10.43,13.8Z"/>
      <path class="cls-30" d="M901.32,272.13s-23.74-.78-22.84,14.59l48.55,36.97,1.56-12.81s-22.89-11.45-37.92-29.97c0,0,10.07-1.36,10.64-8.78Z"/>
      <path class="cls-14" d="M936.42,349.05s1.7,117.84-5.9,334.3"/>
      <ellipse class="cls-27" cx="947.22" cy="458.46" rx="3.79" ry="4.1"/>
      <ellipse class="cls-27" cx="944.63" cy="645.5" rx="3.79" ry="4.1"/>
      <g>
        <polygon class="cls-27" points="996.31 696.07 989.59 689.28 1000.49 678.23 1011.54 689.14 1006.05 696.78 996.31 696.07"/>
        <polygon class="cls-27" points="971.86 692.74 967.72 689.42 978.62 678.38 989.67 689.28 985.39 694.41 971.86 692.74"/>
        <rect class="cls-27" x="992.66" y="659.42" width="15.52" height="15.52" transform="translate(-177.21 910.4) rotate(-45.37)"/>
        <rect class="cls-50" x="981.84" y="670.59" width="15.52" height="15.52" transform="translate(-188.37 906.03) rotate(-45.37)"/>
        <rect class="cls-27" x="970.79" y="659.56" width="15.52" height="15.52" transform="translate(-183.81 894.88) rotate(-45.37)"/>
        <rect class="cls-27" x="992.45" y="637.44" width="15.52" height="15.52" transform="translate(-161.63 903.72) rotate(-45.37)"/>
        <rect class="cls-50" x="981.63" y="648.61" width="15.52" height="15.52" transform="translate(-172.8 899.34) rotate(-45.37)"/>
        <rect class="cls-27" x="970.58" y="637.58" width="15.52" height="15.52" transform="translate(-168.23 888.2) rotate(-45.37)"/>
        <rect class="cls-27" x="992.31" y="615.59" width="15.52" height="15.52" transform="translate(-146.12 897.12) rotate(-45.37)"/>
        <rect class="cls-50" x="981.49" y="626.76" width="15.52" height="15.52" transform="translate(-157.29 892.74) rotate(-45.37)"/>
        <rect class="cls-27" x="970.44" y="615.73" width="15.52" height="15.52" transform="translate(-152.73 881.6) rotate(-45.37)"/>
        <rect class="cls-27" x="992.17" y="593.74" width="15.52" height="15.52" transform="translate(-130.61 890.52) rotate(-45.37)"/>
        <rect class="cls-50" x="981.35" y="604.91" width="15.52" height="15.52" transform="translate(-141.78 886.14) rotate(-45.37)"/>
        <rect class="cls-27" x="970.3" y="593.88" width="15.52" height="15.52" transform="translate(-137.22 875) rotate(-45.37)"/>
        <rect class="cls-27" x="992.03" y="571.89" width="15.52" height="15.52" transform="translate(-115.1 883.92) rotate(-45.37)"/>
        <rect class="cls-50" x="981.21" y="583.06" width="15.52" height="15.52" transform="translate(-126.27 879.54) rotate(-45.37)"/>
        <rect class="cls-27" x="970.16" y="572.03" width="15.52" height="15.52" transform="translate(-121.71 868.4) rotate(-45.37)"/>
        <rect class="cls-27" x="991.89" y="550.11" width="15.52" height="15.52" transform="translate(-99.65 877.34) rotate(-45.37)"/>
        <rect class="cls-50" x="981.07" y="561.28" width="15.52" height="15.52" transform="translate(-110.82 872.96) rotate(-45.37)"/>
        <rect class="cls-27" x="970.02" y="550.25" width="15.52" height="15.52" transform="translate(-106.25 861.82) rotate(-45.37)"/>
        <rect class="cls-27" x="991.75" y="528.26" width="15.52" height="15.52" transform="translate(-84.14 870.74) rotate(-45.37)"/>
        <rect class="cls-50" x="980.93" y="539.43" width="15.52" height="15.52" transform="translate(-95.31 866.36) rotate(-45.37)"/>
        <rect class="cls-27" x="969.88" y="528.4" width="15.52" height="15.52" transform="translate(-90.75 855.22) rotate(-45.37)"/>
        <rect class="cls-27" x="991.61" y="506.48" width="15.52" height="15.52" transform="translate(-68.69 864.16) rotate(-45.37)"/>
        <rect class="cls-50" x="980.79" y="517.66" width="15.52" height="15.52" transform="translate(-79.85 859.79) rotate(-45.37)"/>
        <rect class="cls-27" x="969.74" y="506.63" width="15.52" height="15.52" transform="translate(-75.29 848.64) rotate(-45.37)"/>
        <rect class="cls-27" x="991.47" y="484.63" width="15.52" height="15.52" transform="translate(-53.18 857.56) rotate(-45.37)"/>
        <rect class="cls-50" x="980.65" y="495.8" width="15.52" height="15.52" transform="translate(-64.35 853.19) rotate(-45.37)"/>
        <rect class="cls-27" x="969.6" y="484.77" width="15.52" height="15.52" transform="translate(-59.78 842.04) rotate(-45.37)"/>
        <rect class="cls-27" x="991.33" y="462.86" width="15.52" height="15.52" transform="translate(-37.72 850.99) rotate(-45.37)"/>
        <rect class="cls-50" x="980.51" y="474.03" width="15.52" height="15.52" transform="translate(-48.89 846.61) rotate(-45.37)"/>
        <rect class="cls-27" x="969.46" y="463" width="15.52" height="15.52" transform="translate(-44.33 835.46) rotate(-45.37)"/>
        <rect class="cls-27" x="991.25" y="440.62" width="15.52" height="15.52" transform="translate(-21.92 844.32) rotate(-45.37)"/>
        <rect class="cls-50" x="980.43" y="451.79" width="15.52" height="15.52" transform="translate(-33.09 839.94) rotate(-45.37)"/>
        <rect class="cls-27" x="969.38" y="440.76" width="15.52" height="15.52" transform="translate(-28.53 828.8) rotate(-45.37)"/>
        <rect class="cls-27" x="991.04" y="418.64" width="15.52" height="15.52" transform="translate(-6.34 837.63) rotate(-45.37)"/>
        <rect class="cls-50" x="980.22" y="429.81" width="15.52" height="15.52" transform="translate(-17.51 833.25) rotate(-45.37)"/>
        <rect class="cls-27" x="969.17" y="418.78" width="15.52" height="15.52" transform="translate(-12.95 822.11) rotate(-45.37)"/>
        <rect class="cls-27" x="990.9" y="396.79" width="15.52" height="15.52" transform="translate(9.17 831.03) rotate(-45.37)"/>
        <rect class="cls-50" x="980.08" y="407.96" width="15.52" height="15.52" transform="translate(-2 826.66) rotate(-45.37)"/>
        <rect class="cls-27" x="969.03" y="396.93" width="15.52" height="15.52" transform="translate(2.56 815.51) rotate(-45.37)"/>
        <rect class="cls-27" x="990.76" y="374.94" width="15.52" height="15.52" transform="translate(24.67 824.43) rotate(-45.37)"/>
        <rect class="cls-50" x="979.94" y="386.11" width="15.52" height="15.52" transform="translate(13.51 820.05) rotate(-45.37)"/>
        <rect class="cls-27" x="968.89" y="375.08" width="15.52" height="15.52" transform="translate(18.07 808.91) rotate(-45.37)"/>
        <rect class="cls-27" x="990.62" y="353.09" width="15.52" height="15.52" transform="translate(40.18 817.83) rotate(-45.37)"/>
        <rect class="cls-50" x="979.8" y="364.26" width="15.52" height="15.52" transform="translate(29.01 813.45) rotate(-45.37)"/>
        <rect class="cls-27" x="968.75" y="353.23" width="15.52" height="15.52" transform="translate(33.58 802.31) rotate(-45.37)"/>
        <rect class="cls-27" x="990.48" y="331.31" width="15.52" height="15.52" transform="translate(55.64 811.25) rotate(-45.37)"/>
        <rect class="cls-50" x="979.66" y="342.49" width="15.52" height="15.52" transform="translate(44.47 806.88) rotate(-45.37)"/>
        <rect class="cls-27" x="968.61" y="331.46" width="15.52" height="15.52" transform="translate(49.03 795.73) rotate(-45.37)"/>
        <rect class="cls-27" x="990.34" y="309.46" width="15.52" height="15.52" transform="translate(71.15 804.65) rotate(-45.37)"/>
        <rect class="cls-50" x="979.52" y="320.63" width="15.52" height="15.52" transform="translate(59.98 800.28) rotate(-45.37)"/>
        <rect class="cls-27" x="968.47" y="309.6" width="15.52" height="15.52" transform="translate(64.54 789.13) rotate(-45.37)"/>
        <rect class="cls-27" x="990.15" y="287.69" width="15.52" height="15.52" transform="translate(86.59 798.04) rotate(-45.37)"/>
        <rect class="cls-50" x="979.33" y="298.86" width="15.52" height="15.52" transform="translate(75.42 793.67) rotate(-45.37)"/>
        <polyline class="cls-50" points="984.98 293.49 986.95 295.51 997.85 284.46 997.27 283.9"/>
        <polygon class="cls-27" points="976.11 306.56 987.02 295.52 984.98 293.49 972.93 303.49 976.11 306.56"/>
      </g>
      <path class="cls-8" d="M1077.03,302.5s-28.42,7.46-50.15,40.34c-30.96,46.85-56.71,103.67-56.71,103.67l93.92,64.68,59.17-79.42"/>
      <g>
        <polyline class="cls-27" points="978.05 431.34 982.88 450.06 1002.74 444.93 997.69 425.37 978.63 430.27"/>
        <polygon class="cls-50" points="986.31 418.72 978.63 430.27 997.49 425.38 993.26 408.87 986.31 418.72"/>
        <polyline class="cls-27" points="993.35 408.84 997.64 425.46 1017.51 420.33 1012.46 400.77 996.23 404.96"/>
        <rect class="cls-27" x="1005.02" y="441.99" width="20.52" height="20.2" transform="translate(-80.77 268.07) rotate(-14.47)"/>
        <rect class="cls-50" x="999.78" y="422.44" width="20.52" height="20.2" transform="translate(-76.05 266.14) rotate(-14.47)"/>
        <rect class="cls-27" x="1019.79" y="417.39" width="20.52" height="20.2" transform="translate(-74.15 270.98) rotate(-14.47)"/>
        <rect class="cls-27" x="1029.83" y="456.36" width="20.52" height="20.2" transform="translate(-83.57 274.72) rotate(-14.47)"/>
        <rect class="cls-50" x="1024.58" y="436.81" width="20.52" height="20.2" transform="translate(-78.85 272.79) rotate(-14.47)"/>
        <rect class="cls-27" x="1044.59" y="431.76" width="20.52" height="20.2" transform="translate(-76.95 277.63) rotate(-14.47)"/>
        <rect class="cls-50" x="1049.38" y="451.18" width="20.52" height="20.2" transform="translate(-81.65 279.45) rotate(-14.47)"/>
        <rect class="cls-27" x="1054.55" y="470.96" width="20.52" height="20.2" transform="translate(-86.43 281.36) rotate(-14.47)"/>
        <rect class="cls-27" x="1069.32" y="446.36" width="20.52" height="20.2" transform="translate(-79.82 284.27) rotate(-14.47)"/>
        <polyline class="cls-50" points="1093.05 468.47 1091.78 463.53 1071.91 468.66 1076.96 488.22"/>
      </g>
      <path class="cls-36" d="M834.12,93.03s-12.46,23.83-1.67,75.85c0,0,3.84,12.33,3.37,19.32s1,18.32,4.52,25.27c3.52,6.94,28.82,53.25,28.82,53.25,0,0,8.03,13.34,32.86,10.35,24.84-2.99,44.7-14.82,52.26-26.44,7.56-11.63,27.68-31.5,27.78-47.86,0,0,15.16,1.43,18.85-17.08,0,0,12.42-29.64-4.53-34.71-16.96-5.07-23.33,18.31-23.33,18.31,0,0,10.5-67.75-29.43-88.35,0,0-50.07-31.71-109.5,12.1Z"/>
      <path class="cls-43" d="M891.17,145.05s20.6-7.2,39.31-.45c0,0-9.71-13.69-40.17-5.73,0,0-4.89,4.19,.86,6.19Z"/>
      <path class="cls-43" d="M830.05,159.58c13.12-7.64,21.57-6.17,21.57-6.17,4.41-4.2-1.78-5.98-1.78-5.98-9.67,1.68-16.63,4.45-21.63,7.45,0,0,1.13,5.13,1.85,4.71Z"/>
      <path class="cls-16" d="M871.1,173.85l-9.19,32.85s-1.75,9.33,7.88,7.84l9.63-1.49"/>
      <path class="cls-16" d="M998.85,162.63s-7.7-7.87-12.6,2.62c-4.9,10.49-4.67,13.63-4.67,13.63,0,0,6.74-16.47,12.8-5.47"/>
      <path class="cls-54" d="M900.51,276.64s22.02-1.05,38.5-11.86c0,0,10.33-4.86,22.34-23.21,0,0-10.48,26.06-36.62,33.12,0,0-11.53,4.41-24.22,1.95,0,0,.95,2.51,0,0Z"/>
      <g>
        <path class="cls-25" d="M919.41,157.26s-.08-.57-.58-.98c-1.65-1.36-5.34-3.8-10.42-3.01-5.69,.88-8,6.72-8.78,8.79-.13,.36-.07,.64-.07,.64,0,0,.03,.32,.26,.51,1.07,.91,4.56,3.39,9.96,2.64,3.22-.45,7.46-2.87,9.57-7.66,.15-.33,.1-.72,.06-.93Z"/>
        <circle class="cls-54" cx="907.82" cy="160.09" r="5.96"/>
        <circle class="cls-25" cx="911.35" cy="158.32" r="1.63"/>
        <path class="cls-10" d="M899.28,162.12s4.82-14.67,19.76-5.92"/>
      </g>
      <g>
        <path class="cls-25" d="M854.49,172.24s0-.54-.4-1c-1.34-1.5-4.42-4.3-9.26-4.29-5.42,0-8.4,5.1-9.42,6.92-.18,.31-.16,.59-.16,.59,0,0-.02,.3,.16,.51,.87,1,3.75,3.8,8.89,3.88,3.06,.04,7.34-1.61,10-5.76,.18-.29,.2-.66,.19-.85Z"/>
        <circle class="cls-54" cx="843.31" cy="173.2" r="5.58"/>
        <circle class="cls-25" cx="847.02" cy="172.15" r="1.56"/>
        <path class="cls-10" d="M835.32,174.06s6.17-13.72,18.94-2.59"/>
      </g>
      <g>
        <path class="cls-34" d="M913.79,219.38s-12.62-1.71-26.23,4.73c0,0-12.76-.42-23.47,3.9,0,0,4.55,19.73,23.99,21.04,19.44,1.3,28-18.08,25.71-29.66Z"/>
        <path class="cls-28" d="M911.02,221.29s3.11,17.62-19.83,21.43c-20.83,3.46-23.61-12.21-23.61-12.21,0,0,23.65-2.84,43.44-9.22Z"/>
        <path class="cls-25" d="M908.22,222.02s-4.33,9.12-22.22,11.21c0,0-10.86,2.37-16.41-2.69,0,0,22.96-3.31,38.64-8.52Z"/>
      </g>
      <polygon class="cls-29" points="1012.84 253.97 1000.51 252.02 1002.8 266.52 1012.84 253.97"/>
      <path class="cls-48" d="M974.7,170.7l-8.3-1.76c-4.66-19.49-15.82-61-33.52-75.43,0,0-64.56-15.12-96.46,17.23,0,0-10.48,12.44-1.81,63.97,0,0-15.5-33.69-11.36-66.54,0,0-11.42-4.66-13.49-7.54,0,0,13.51-.7,18.45-8.83,2.9-4.77,45.37-59.37,114.15-30.15,0,0,60.15-1.89,57.11,90.26,0,0-19.74-.76-24.75,18.8Z"/>
      <path class="cls-48" d="M926.84,230.33s-1.07-15.12-14.07-16.64c-15.97-1.86-32.57-.23-43.24,7.84-10.66,8.08-15.86,15.82-6.44,14.61,9.42-1.21,26.22-15.92,47.76-9.29,0,0,9.11,6.76,15.99,3.47Z"/>
    </g>
    <g>
      <polygon class="cls-36" points="730.3 481.65 746.74 520.26 697.41 519.54 700.27 490.95 730.3 481.65"/>
      <path class="cls-36" d="M581.53,879.93s-12.78-48.31-12.78-53.58c0,0-8.57-36.66-5.94-77.65,0,0,3.15-28.37-4.2-52.02,0,0,55.17-10.51,68.83-1.58,0,0-.75,52.48-3.54,66.31-2.78,13.82-10.18,67.78-14.88,118.69,0,0-6.18,26.14-27.49-.18Z"/>
      <path class="cls-36" d="M620.22,871.74s-.16-10.36-.16-15.63c0,0-15.56-74.26-12.93-115.24,0,0,3.15-28.37-4.2-52.02,0,0,55.17-10.51,68.83-1.58,0,0,2.41,52.22-.37,66.04-2.78,13.82-5.55,56.28-13.46,79.82,0,0-16.4,64.92-37.71,38.6Z"/>
      <path class="cls-36" d="M616.29,316.01s3.01,20.97-4.22,37.85c0,0-.11,33.85,38.32,45.16,0,0,43.71-1.79,22.89-35.18,0,0-3.66-2.13-2.04-8.56,0,0-47.72-9.79-54.94-39.27Z"/>
      <path class="cls-44" d="M680.06,739.71s9.14-9.35,11.51-27.72l6.31-115.54s-46.85,34.07-161.16-6.58c0,0-11.96,45.59,2.08,99.2,0,0,5.53,27.23,11.06,49.78,0,0,48.93,14.04,73.61,3.83l1.14-7.78-.1,8.07s32.2,5.15,55.54-3.27Z"/>
      <path class="cls-10" d="M624.12,740.04s5.67-44.26,1.13-69.68c0,0,9.1-2.6,11.47-8.93"/>
      <path class="cls-24" d="M550.17,596.84s-3.39,89.12,17.92,145.79l-12.59-2.91s-26.16-99.29-14.05-147.24l8.72,4.36Z"/>
      <path class="cls-21" d="M612.06,353.86s-22.9,.15-52.58,29.84-4.4,94.71-4.4,94.71c0,0,.26,25.2-6.82,51.2,0,0-8.36,11.39-14.77,60.25,0,0,110.55,42.72,166.16,9.52,0,0-1.34-67.48,3.93-106.56,0,0,18.55,5,27.42-10.27l-6.35-60.98s-5.84-41.08-51.38-57.73c0,0,12.32,21.99-12.81,24.73,0,0-38.04,4.07-48.4-34.7Z"/>
      <g>
        <path class="cls-35" d="M634.12,464.44s12.95-17.66,13.02-30.28l6.9,2.6s-.77,30.05-19.92,27.68Z"/>
        <path class="cls-35" d="M658.73,471.02l1.41-5.22s8.23-3.15,12.76-22.26l9.82,4.13s-8.09,32.87-24,23.35Z"/>
        <path class="cls-33" d="M700.71,456.35s-72.91-31.67-97.27-35.8c0,0,78.31,16.96,97.65,27.85,0,0,6.98,4.37-.38,7.95Z"/>
        <path class="cls-52" d="M606.8,420.99s-11.84-2.48-16.86,6.53c0,0,16.78,9.64,16.86-6.53Z"/>
        <path class="cls-52" d="M620.05,425.14s-8.99-6.2-6.12-17.07c0,0,17.19,2.27,6.12,17.07Z"/>
        <path class="cls-41" d="M634.12,464.44s7.3-16.73-9.52-24.59-28.16,6.57-28.16,6.57c0,0-11.14,19.76,3.33,25.84,14.48,6.07,18.46,13.64,18.46,13.64,0,0,14.16,21.54,31.26,23.42,17.1,1.87,28.83-1.08,35.7-15.57,6.87-14.49,10.94-36.98,7.98-45.28,0,0-.11-9.01-4.24-8.44s-6.86,11.06-6.86,11.06c0,0-5.82,17.45-12.59,19.32-7.21,1.98-10.75,.62-10.75,.62,0,0,8.09-28.63,3.32-35.38s-9.1-.45-9.1-.45c0,0,2.53,8.3-4.21,19.54-5.47,9.12-10.97,9-10.97,9l-3.65,.71Z"/>
        <path class="cls-25" d="M612.35,448.38s-11.31-1.08-13.41,5.7-3.2,12.92,7.66,15.96c10.86,3.05,22.55-5.46,22.55-5.46,0,0,6.21-9.07,1.52-13.76-4.69-4.69-13.86-8.5-18.32-2.45Z"/>
        <path class="cls-43" d="M596.75,461.68s4.9-7.94,9.36-7.07c4.46,.87,4.42,4.11,4.42,4.11,0,0-.36,2.84-5.01,3.99s-5.22,4.66-5.22,4.66c0,0-3.4-1.42-3.56-5.69Z"/>
        <path class="cls-43" d="M631.38,454.2s-9.25-5.13-12.23-2.1c-2.97,3.03,.33,6.21,.33,6.21,0,0,6.12,.32,11.36,2.73,0,0,2.63-3.02,.54-6.84Z"/>
        <path class="cls-43" d="M615.67,465.15s-5.97-1.51-3.25-3.72c2.72-2.21,5.75-.7,5.75-.7,0,0,1.16,1.38-2.5,4.42Z"/>
        <path class="cls-6" d="M615.67,465.15c-.99,4.66-6.09,.71-6.09,.71"/>
        <path class="cls-6" d="M621.56,464.37s-3.15,3.16-6.3,.91"/>
        <circle class="cls-25" cx="606.06" cy="458.76" r="2.13"/>
        <circle class="cls-43" cx="606.14" cy="458.76" r="1.39"/>
        <circle class="cls-25" cx="605.24" cy="458.44" r=".8"/>
        <circle class="cls-25" cx="622.31" cy="455.34" r="2.13"/>
        <circle class="cls-43" cx="622.4" cy="455.34" r="1.39"/>
        <circle class="cls-25" cx="621.49" cy="455.02" r=".8"/>
      </g>
      <path class="cls-36" d="M702.89,247.76s9.71,9.45,7.25,35.21c-2.45,25.76-3.7,31.72-9.68,52.08-5.98,20.36-36.98,20.07-36.98,20.07,0,0-45.07-12.74-49.04-38.15,0,0-11.89,11.64-20.03-6.49,0,0-9.31-19.93,.59-24.04,0,0,10.59-2.92,15.64,8.48,0,0-2.25-44.88,13.38-50.54,0,0,40.16-33,78.86,3.38Z"/>
      <path class="cls-54" d="M663.92,277.1s-17.82-2.53-25.44,2.67c0,0,5.32-7.63,25.58-5.92,0,0,3.69,1.71-.14,3.26Z"/>
      <path class="cls-54" d="M709.68,283.99c-.14-.81-8.73-4.17-17.07-5.88,0,0-4.14,.58-.75,3.18,0,0,15.61,1.54,16.67,5.86,0,0,1.5-1.16,1.15-3.16Z"/>
      <path class="cls-4" d="M684.56,303.26s6.75,13.09-7.65,12.86"/>
      <path class="cls-4" d="M595.01,295.74s5.55-10.75,12.07,8.34c0,0-6.4-8.84-8.5-2.15"/>
      <path class="cls-54" d="M671.47,354.52s-12.84-.06-21.62-4.52c0,0-7.97-2.6-17.66-9.66,0,0,6.26,8.51,20,14.3,0,0,9.63,4.44,18.47,3.16,0,0,.05-.75,.8-3.28Z"/>
      <path class="cls-37" d="M658.18,323.17s7.76-1.44,16.39,2.14c0,0,7.89-.64,14.65,1.71,0,0-2.22,12.36-14.22,13.75-12,1.39-17.88-10.35-16.81-17.59Z"/>
      <path class="cls-28" d="M659.95,324.27s-1.4,11,12.92,12.67c13,1.52,14.25-8.27,14.25-8.27,0,0-14.73-1.05-27.17-4.4Z"/>
      <path class="cls-25" d="M661.7,324.63s2.95,5.51,14.1,6.27c0,0,6.79,1.14,10.08-2.16,0,0-14.32-1.36-24.18-4.11Z"/>
      <path class="cls-44" d="M612.06,353.86s6.38,33.84,48.4,34.7c0,0,24.92-3.32,12.81-24.73,0,0,4.98,1.73,6.52,3.04,0,0,11.42,26.04-19.19,27.82,0,0-33.81-.51-47.31-22.35,0,0-5.87-9.97-7.28-17.17l6.05-1.31Z"/>
      <g>
        <path class="cls-25" d="M644.95,287.55s.03-.43,.38-.76c1.15-1.1,3.76-3.13,7.58-2.82,4.28,.34,6.33,4.55,7.02,6.05,.12,.26,.09,.48,.09,.48,0,0,0,.24-.16,.4-.75,.74-3.2,2.77-7.26,2.52-2.42-.15-5.71-1.72-7.54-5.16-.13-.24-.12-.53-.1-.69Z"/>
        <circle class="cls-54" cx="653.72" cy="289.01" r="4.44"/>
        <circle class="cls-25" cx="651" cy="287.88" r="1.22"/>
        <path class="cls-3" d="M660.19,290.04s-4.4-10.64-15.03-3.3"/>
      </g>
      <g>
        <path class="cls-25" d="M691.27,293.4s-.03-.4,.24-.75c.9-1.17,3.01-3.4,6.56-3.66,3.98-.29,6.44,3.28,7.29,4.56,.15,.22,.15,.42,.15,.42,0,0,.03,.22-.09,.39-.58,.78-2.54,3-6.3,3.33-2.24,.2-5.47-.77-7.65-3.67-.15-.2-.18-.47-.19-.62Z"/>
        <circle class="cls-54" cx="699.53" cy="293.49" r="4.11"/>
        <circle class="cls-25" cx="696.74" cy="292.92" r="1.15"/>
        <path class="cls-3" d="M705.43,293.67s-5.28-9.72-14.03-.86"/>
      </g>
      <path class="cls-36" d="M568.49,470.81s24.79,81.67,58.82,82.64c34.03,.97,130.28-24.79,130.28-24.79,0,0,27.83,4.25,41.32-11.42l14.22-6.2s8.39-3.65,5.1-9.12c0,0,12.03-4.01,9.12-9.48,0,0,6.56-8.39-6.56-7.66,0,0-1.09-6.56-10.21-4.74s-41.93,9.48-41.93,9.48c0,0-1.46-3.65,2.19-10.94,0,0,.73-10.21-4.74-10.57,0,0-4.98,6.56-5.35,12.4-.36,5.83-8.99,16.89-9.72,25.16l-108.41-1.46-26.74-52.99"/>
      <path class="cls-5" d="M795.27,498.82c14.04-5.83,32.09-6.38,32.09-6.38,0,0,5.62-8.67-6.56-7.66"/>
      <path class="cls-5" d="M797.09,507.03c6.38-3.46,21.15-5.1,21.15-5.1,0,0,12.21-2.54,9.12-9.48"/>
      <path class="cls-7" d="M567.72,391.78s15.62-6.69,36.06,20.82,20.82,38.3,20.82,38.3c0,0-43.87,30.86-69.53,27.51l-2.54-7.58"/>
      <path class="cls-9" d="M702.14,504.5s8.86-55.38,8.86-64.68"/>
      <path class="cls-5" d="M698,505.09c14.82-.05,53.03,.48,53.03,.48,0,0,3.82-9.14,9.14-22.43,0,0,1.82-10.46,5.93-15.13,0,0,5.66,.71,4.74,10.57,0,0-3.15,6.99-2.19,10.94l41.93-9.48s8.81-2.77,10.21,4.74c0,0-15.86-1.09-28.62,6.2"/>
      <path class="cls-36" d="M977.61,451.12l-46.52,79.57-153.32-6.17s-11.12-5.17-19.8-12.6c-8.67-7.43-22.45-16.96-36.58-18l-22.44-5.63s-4.7,11.14,11.1,17.45c15.8,6.3,13.8,9.06,13.8,9.06,0,0-3.08,6.01-19.05,3.95-15.97-2.06-21.69-.87-21.69-.87l-21.64-13.62s-6.31-7.34-13.71,.39l3.45,8.17s-10.11,4.79,.82,14.67c0,0-3.7,9.77,10.93,21.69,0,0,1.32,14.22,10.08,19.29s64.83,8.28,64.83,8.28l38-5.55s81.48,34.74,140.6,45.57c59.53,10.9,83.36-26.15,83.36-26.15,0,0-3.2,4.35,58.83-83.37"/>
      <path class="cls-12" d="M651.23,512.82s21.53,28.26,48.68,22.27"/>
      <path class="cls-12" d="M695.08,549.53c-25.53,.86-43.03-22.04-43.03-22.04,0,0-10.84-8.22-.82-14.67,0,0-.29-14.58,14.06-6.88,13.74,7.37,34.53,13.94,34.53,13.94,0,0,10.19,1.25,19.56-1.46s.83-8.11,.83-8.11c0,0-14.15-7.28-19.76-10.19s-1.49-11.81-1.49-11.81c0,0,26.03,7.03,31.44,7.23s19.56,10.4,19.56,10.4l19.14,13.94,8.67,4.66,64.48,2.87"/>
      <path class="cls-12" d="M694.51,563.67c-26.93,.33-31.52-14.49-31.52-14.49,0,0-14.65-11.45-10.93-21.69"/>
      <path class="cls-12" d="M847.1,597.95c-20.68-5.32-71.21-26.75-71.21-26.75l-7.09,1.23s-31.68,7.04-69.67,.47"/>
      <path class="cls-5" d="M795.02,520.95l3.89-3.71,14.22-6.2s7.94-3.92,5.1-9.12"/>
      <path class="cls-43" d="M708.68,258.76s6.92-15.79-16.57-34.46c0,0-23.77-22.03-57.44-6.24,0,0-30.4,.71-33.81,28.73,0,0,18.55-12.61,28.54,4.7,0,0,13.14-15.48,30.99-3.54,0,0,15.27,7.91,24.29,16.6,0,0,11.95-11.36,24-5.78Z"/>
      <path class="cls-1" d="M608.26,231.84s-19.27,8.99-16.29,57.6c0,0,12.36-11.99,18.73,13.21l3.25-10.03s-.9-30.66,20.72-46.49l-26.41-14.29Z"/>
      <path class="cls-36" d="M657.93,833.14l-11.18,48.76,38.31,23.6s7.34-3.98,10.07,1.89c0,0,12.37-5.03,12.37,3.56s-11.95,6.5-11.95,6.5l-75.07-.63s-19.81,7.11-18.88-15.23c.93-22.35,13.5-73.56,13.5-73.56l42.83,5.12Z"/>
      <path class="cls-36" d="M612.22,879.23s24.7,28.64,49.05,32.58c0,0,14.32-2.86,12.17,8.59,0,0-4.65,6.09-8.59,4.3,0,0-4.65,2.51-7.88,1.43l-5.37,.36s-7.52,1.79-10.02-.72c0,0-5.01,3.22-12.89,1.07s-30.43-10.74-47.61-9.31c-17.18,1.43-6.09-20.41-6.09-20.41,0,0,2.86-11.81,1.07-18.97l-7.31-51.81,50.28-.77-6.8,53.65Z"/>
      <path class="cls-2" d="M641.58,925.77s1.66-3.96-5.97-7.58"/>
      <path class="cls-2" d="M651.6,926.48s5.01-3.78-9.16-10.2"/>
      <path class="cls-2" d="M656.97,926.12s5.33-5.48-6.54-10.56"/>
      <path class="cls-2" d="M664.85,924.69s5.08-7.19-9.09-10.95"/>
      <path class="cls-2" d="M685.05,905.49s5.52,3.09,10.07,1.89"/>
      <path class="cls-2" d="M624.12,740.04s-.65,10.31-.22,21.37c.43,11.06-9.49,67.17-9.49,67.17,0,0-1.19,52.4,4.13,56.92,0,0,26.01,26.18,42.72,26.29,0,0,11.54-2.18,12.12,5.28"/>
    </g>
  </g>
</svg>