<svg xmlns="http://www.w3.org/2000/svg" xmlns:xlink="http://www.w3.org/1999/xlink" width="1200" zoomAndPan="magnify" viewBox="0 0 900 675.000002" height="900" preserveAspectRatio="xMidYMid meet" version="1.0"><defs><clipPath id="bc03f4fcd0"><path d="M 0.664062 0 L 899.332031 0 L 899.332031 674 L 0.664062 674 Z M 0.664062 0 " clip-rule="nonzero"/></clipPath><clipPath id="4d7e0cd990"><path d="M 0.664062 357 L 443 357 L 443 647 L 0.664062 647 Z M 0.664062 357 " clip-rule="nonzero"/></clipPath><clipPath id="324f3d0f54"><path d="M 441 357 L 899.332031 357 L 899.332031 647 L 441 647 Z M 441 357 " clip-rule="nonzero"/></clipPath><clipPath id="a4aabf9f2e"><path d="M 0.664062 617 L 443 617 L 443 674 L 0.664062 674 Z M 0.664062 617 " clip-rule="nonzero"/></clipPath><clipPath id="868d1ca348"><path d="M 0.664062 598 L 462 598 L 462 674 L 0.664062 674 Z M 0.664062 598 " clip-rule="nonzero"/></clipPath><clipPath id="878ebf3252"><path d="M 441 617 L 899.332031 617 L 899.332031 674 L 441 674 Z M 441 617 " clip-rule="nonzero"/></clipPath><clipPath id="cf183ac8bd"><path d="M 422 598 L 899.332031 598 L 899.332031 674 L 422 674 Z M 422 598 " clip-rule="nonzero"/></clipPath><clipPath id="b79c27929d"><path d="M 181 475 L 501 475 L 501 674 L 181 674 Z M 181 475 " clip-rule="nonzero"/></clipPath><clipPath id="57afcf07ef"><path d="M 340 496 L 435 496 L 435 674 L 340 674 Z M 340 496 " clip-rule="nonzero"/></clipPath><clipPath id="070315a507"><path d="M 498 518 L 709 518 L 709 674 L 498 674 Z M 498 518 " clip-rule="nonzero"/></clipPath><clipPath id="fa5983b5de"><path d="M 526 527 L 607 527 L 607 674 L 526 674 Z M 526 527 " clip-rule="nonzero"/></clipPath></defs><g clip-path="url(#bc03f4fcd0)"><path fill="#ffffff" d="M 0.664062 0 L 899.335938 0 L 899.335938 674 L 0.664062 674 Z M 0.664062 0 " fill-opacity="1" fill-rule="nonzero"/><path fill="#ffffff" d="M 0.664062 0 L 899.335938 0 L 899.335938 674 L 0.664062 674 Z M 0.664062 0 " fill-opacity="1" fill-rule="nonzero"/><path fill="#f9edde" d="M -190.082031 0.0664062 L 1090.167969 0.0664062 L 1090.167969 895.730469 L -190.082031 895.730469 Z M -190.082031 0.0664062 " fill-opacity="1" fill-rule="nonzero"/></g><g clip-path="url(#4d7e0cd990)"><path fill="#cd6848" d="M -27.375 357.289062 L 418.078125 357.289062 C 431.371094 357.289062 442.167969 368.082031 442.167969 381.378906 L 442.167969 646.367188 C 442.167969 646.507812 442.054688 646.621094 441.914062 646.621094 L -27.375 646.621094 C -40.667969 646.621094 -51.464844 635.832031 -51.464844 622.535156 L -51.464844 381.378906 C -51.464844 368.085938 -40.675781 357.289062 -27.375 357.289062 Z M -27.375 357.289062 " fill-opacity="1" fill-rule="nonzero"/></g><g clip-path="url(#324f3d0f54)"><path fill="#cd6848" d="M 911.535156 646.617188 L 442.042969 646.617188 C 442.042969 646.617188 441.988281 646.59375 441.988281 646.5625 L 441.988281 381.371094 C 441.988281 368.082031 452.777344 357.285156 466.078125 357.285156 L 911.535156 357.285156 C 924.824219 357.285156 935.625 368.074219 935.625 381.371094 L 935.625 622.527344 C 935.625 635.820312 924.832031 646.617188 911.535156 646.617188 Z M 911.535156 646.617188 " fill-opacity="1" fill-rule="nonzero"/></g><g clip-path="url(#a4aabf9f2e)"><path fill="#cd6848" d="M 431.40625 767.65625 L -4.910156 767.65625 C -10.855469 767.65625 -15.667969 762.835938 -15.667969 756.898438 L -15.667969 643.078125 C -15.667969 637.132812 -10.847656 632.320312 -4.910156 617.324219 L 431.40625 617.324219 C 437.351562 632.320312 442.164062 637.140625 442.164062 643.078125 L 442.164062 756.898438 C 442.164062 762.84375 437.34375 767.65625 431.40625 767.65625 Z M 431.40625 767.65625 " fill-opacity="1" fill-rule="nonzero"/></g><g clip-path="url(#868d1ca348)"><path stroke-linecap="butt" transform="matrix(0.674035, 0, 0, 0.673979, -190.2573, 0.0000199704)" fill="none" stroke-linejoin="miter" d="M 922.301746 1138.990754 L 274.98153 1138.990754 C 266.161048 1138.990754 259.02121 1131.838736 259.02121 1123.029119 L 259.02121 954.151074 C 259.02121 945.329865 266.172639 938.189438 274.98153 915.939358 L 922.301746 915.939358 C 931.122227 938.189438 938.262066 945.341456 938.262066 954.151074 L 938.262066 1123.029119 C 938.262066 1131.850328 931.110637 1138.990754 922.301746 1138.990754 Z M 922.301746 1138.990754 " stroke="#be1e2d" stroke-width="2" stroke-opacity="1" stroke-miterlimit="10"/></g><g clip-path="url(#878ebf3252)"><path fill="#cd6848" d="M 889.0625 752.660156 L 452.746094 752.660156 C 452.039062 752.660156 451.339844 752.589844 450.644531 752.453125 C 449.953125 752.316406 449.28125 752.109375 448.628906 751.839844 C 447.976562 751.570312 447.355469 751.238281 446.769531 750.847656 C 446.179688 750.453125 445.636719 750.007812 445.136719 749.507812 C 444.640625 749.011719 444.191406 748.464844 443.800781 747.878906 C 443.40625 747.292969 443.078125 746.671875 442.804688 746.019531 C 442.535156 745.367188 442.332031 744.695312 442.195312 744 C 442.054688 743.308594 441.988281 742.609375 441.988281 741.902344 L 441.988281 628.082031 C 441.988281 627.375 442.054688 626.675781 442.195312 625.984375 C 442.332031 625.289062 442.535156 624.617188 442.804688 623.964844 C 443.078125 623.3125 443.40625 622.691406 443.800781 622.105469 C 444.191406 621.519531 444.640625 620.976562 445.136719 620.476562 C 445.636719 619.976562 446.179688 619.53125 446.769531 619.136719 C 447.355469 618.746094 447.976562 618.414062 448.628906 618.144531 C 449.28125 617.875 449.953125 617.667969 450.644531 617.53125 C 451.339844 617.394531 452.039062 617.324219 452.746094 617.324219 L 889.0625 617.324219 C 889.769531 617.324219 890.46875 617.394531 891.160156 617.53125 C 891.851562 617.667969 892.527344 617.875 893.179688 618.144531 C 893.832031 618.414062 894.449219 618.746094 895.039062 619.136719 C 895.625 619.53125 896.167969 619.976562 896.667969 620.476562 C 897.167969 620.976562 897.613281 621.519531 898.007812 622.105469 C 898.398438 622.691406 898.730469 623.3125 899 623.964844 C 899.269531 624.617188 899.472656 625.289062 899.613281 625.984375 C 899.75 626.675781 899.820312 627.375 899.820312 628.082031 L 899.820312 741.902344 C 899.820312 742.609375 899.75 743.308594 899.613281 744 C 899.472656 744.695312 899.269531 745.367188 899 746.019531 C 898.730469 746.671875 898.398438 747.292969 898.007812 747.878906 C 897.613281 748.464844 897.167969 749.011719 896.667969 749.507812 C 896.167969 750.007812 895.625 750.453125 895.039062 750.847656 C 894.449219 751.238281 893.832031 751.570312 893.179688 751.839844 C 892.527344 752.109375 891.851562 752.316406 891.160156 752.453125 C 890.46875 752.589844 889.769531 752.660156 889.0625 752.660156 Z M 889.0625 752.660156 " fill-opacity="1" fill-rule="nonzero"/></g><g clip-path="url(#cf183ac8bd)"><path stroke-linecap="butt" transform="matrix(-0.674035, 0, 0, -0.673979, 1532.07036, 1369.977602)" fill="none" stroke-linejoin="miter" d="M 953.968223 915.929339 L 1601.288438 915.929339 C 1602.337392 915.929339 1603.374755 916.033664 1604.406322 916.236517 C 1605.432095 916.43937 1606.42889 916.746547 1607.396709 917.146458 C 1608.364528 917.546368 1609.285984 918.039011 1610.155283 918.618591 C 1611.030377 919.203967 1611.835927 919.864688 1612.577728 920.606551 C 1613.313734 921.342617 1613.980196 922.15403 1614.559729 923.0234 C 1615.145056 923.89277 1615.631863 924.814302 1616.037536 925.782201 C 1616.437413 926.7501 1616.73877 927.746977 1616.941606 928.77863 C 1617.150238 929.804487 1617.248759 930.841935 1617.248759 931.890975 L 1617.248759 1100.76902 C 1617.248759 1101.81806 1617.150238 1102.855509 1616.941606 1103.881365 C 1616.73877 1104.913018 1616.437413 1105.909896 1616.037536 1106.877794 C 1615.631863 1107.845693 1615.145056 1108.767226 1614.559729 1109.636596 C 1613.980196 1110.505966 1613.313734 1111.311582 1612.577728 1112.053445 C 1611.835927 1112.795307 1611.030377 1113.456028 1610.155283 1114.041404 C 1609.285984 1114.620984 1608.364528 1115.113627 1607.396709 1115.513538 C 1606.42889 1115.913448 1605.432095 1116.220625 1604.406322 1116.423478 C 1603.374755 1116.626331 1602.337392 1116.730656 1601.288438 1116.730656 L 953.968223 1116.730656 C 952.919269 1116.730656 951.881906 1116.626331 950.856134 1116.423478 C 949.830362 1116.220625 948.827771 1115.913448 947.859952 1115.513538 C 946.892133 1115.113627 945.976472 1114.620984 945.101378 1114.041404 C 944.23208 1113.456028 943.42653 1112.795307 942.684729 1112.053445 C 941.942927 1111.311582 941.28226 1110.505966 940.696933 1109.636596 C 940.1174 1108.767226 939.624798 1107.845693 939.224921 1106.877794 C 938.825043 1105.909896 938.523687 1104.913018 938.315055 1103.881365 C 938.112219 1102.855509 938.007903 1101.81806 938.007903 1100.76902 L 938.007903 931.890975 C 938.007903 930.841935 938.112219 929.804487 938.315055 928.77863 C 938.523687 927.746977 938.825043 926.7501 939.224921 925.782201 C 939.624798 924.814302 940.1174 923.89277 940.696933 923.0234 C 941.28226 922.15403 941.942927 921.342617 942.684729 920.606551 C 943.42653 919.864688 944.23208 919.203967 945.101378 918.618591 C 945.976472 918.039011 946.892133 917.546368 947.859952 917.146458 C 948.827771 916.746547 949.830362 916.43937 950.856134 916.236517 C 951.881906 916.033664 952.919269 915.929339 953.968223 915.929339 Z M 953.968223 915.929339 " stroke="#be1e2d" stroke-width="2" stroke-opacity="1" stroke-miterlimit="10"/></g><path stroke-linecap="butt" transform="matrix(0.674035, 0, 0, 0.673979, -190.2573, 0.0000199704)" fill="none" stroke-linejoin="miter" d="M 938.012867 596.700852 L 938.012867 967.927692 " stroke="#196bac" stroke-width="2" stroke-opacity="1" stroke-miterlimit="10"/><g clip-path="url(#b79c27929d)"><path fill="#0f3e5d" d="M 199.691406 475.089844 C 199.691406 475.089844 154.96875 556.929688 204.753906 615.988281 C 204.753906 615.988281 241.878906 639.613281 311.070312 632.867188 C 311.070312 632.867188 294.191406 687.707031 311.070312 745.925781 C 327.949219 804.144531 322.886719 835.355469 322.886719 835.355469 C 322.886719 835.355469 352.234375 852.328125 386.824219 837.980469 L 388.507812 821.289062 L 391.132812 838.167969 C 391.132812 838.167969 430.886719 848.007812 456.195312 835.355469 C 456.195312 835.355469 495.007812 681.804688 500.917969 573.804688 C 500.917969 573.804688 505.980469 520.648438 424.980469 497.027344 C 424.980469 497.027344 421.328125 489.996094 419.917969 484.09375 C 419.917969 484.09375 325.609375 510.5 199.691406 475.09375 Z M 199.691406 475.089844 " fill-opacity="1" fill-rule="nonzero"/></g><g clip-path="url(#57afcf07ef)"><path stroke-linecap="butt" transform="matrix(0.674035, 0, 0, 0.673979, -190.2573, 0.0000199704)" fill="none" stroke-linejoin="miter" d="M 858.669097 1218.5671 C 858.669097 1218.5671 921.542558 977.380643 911.52824 868.889047 C 911.52824 868.889047 921.542558 798.788836 833.082745 770.412595 L 801.370736 750.382307 " stroke="#231f20" stroke-width="1" stroke-opacity="1" stroke-miterlimit="10"/></g><g clip-path="url(#070315a507)"><path fill="#0f3e5d" d="M 705.105469 518.902344 C 705.105469 518.902344 712.957031 569.210938 705.683594 591.976562 C 697.246094 618.410156 676.996094 643.722656 620.183594 636.410156 C 620.183594 636.410156 625.242188 660.035156 617.929688 697.722656 C 610.617188 735.414062 607.808594 738.78125 607.808594 738.78125 C 607.808594 738.78125 582.867188 749.472656 568.242188 741.59375 L 563.367188 723.03125 L 564.183594 732.527344 C 564.183594 732.527344 548.742188 749.847656 521.929688 738.410156 L 499.238281 593.667969 C 499.238281 593.667969 488.550781 557.105469 530.746094 536.300781 C 572.933594 515.488281 576.308594 518.863281 576.308594 518.863281 " fill-opacity="1" fill-rule="nonzero"/></g><g clip-path="url(#fa5983b5de)"><path stroke-linecap="butt" transform="matrix(0.674035, 0, 0, 0.673979, -190.2573, 0.0000199704)" fill="none" stroke-linejoin="miter" d="M 1118.079354 1072.779525 L 1088.870925 922.558163 C 1088.870925 922.558163 1068.842288 835.771841 1118.079354 823.252911 L 1161.480529 804.057219 " stroke="#231f20" stroke-width="1.5" stroke-opacity="1" stroke-miterlimit="10"/></g><path fill="#be9e7d" d="M 477.347656 348.460938 L 481.6875 393.703125 L 536.230469 394.324219 L 543.671875 426.554688 L 414.742188 424.695312 L 440.152344 362.09375 Z M 477.347656 348.460938 " fill-opacity="1" fill-rule="nonzero"/><path fill="#be9e7d" d="M 369.617188 150.054688 C 369.617188 150.054688 365.550781 183.28125 352.460938 200.65625 C 352.460938 200.65625 324.132812 289.3125 397.117188 308.117188 C 397.117188 308.117188 455.230469 305.664062 437.941406 227.199219 C 437.941406 227.199219 425.878906 219.070312 428.472656 206.210938 C 431.214844 192.597656 430.171875 206.832031 430.171875 206.832031 L 369.617188 150.054688 " fill-opacity="1" fill-rule="nonzero"/><path fill="#be9e7d" d="M 375.175781 122.523438 C 375.175781 122.523438 395.15625 55.210938 457.195312 65.71875 C 457.195312 65.71875 500.515625 76.800781 482.289062 137.308594 C 482.289062 137.308594 477.421875 146.523438 477.75 152.15625 C 477.75 152.15625 477.738281 166.417969 468.003906 177.378906 C 453.433594 193.78125 440.464844 204.902344 440.464844 204.902344 C 440.464844 204.902344 432.289062 212.429688 417.101562 208.785156 C 417.101562 208.785156 406.539062 205.792969 395.195312 193.679688 C 395.195312 193.679688 364.898438 169.457031 371.734375 149.785156 C 371.734375 149.785156 354.25 155.964844 353.585938 130.476562 C 353.585938 130.476562 356.101562 96.054688 375.175781 122.523438 Z M 375.175781 122.523438 " fill-opacity="1" fill-rule="nonzero"/><path fill="#26130f" d="M 436.257812 115.808594 C 436.257812 115.808594 417.425781 103.792969 406.128906 107.972656 C 406.128906 107.972656 416.089844 99.117188 438.105469 111.039062 C 438.105469 111.039062 441.394531 115.296875 436.257812 115.808594 Z M 436.257812 115.808594 " fill-opacity="1" fill-rule="nonzero"/><path fill="#26130f" d="M 487.121094 123.703125 C 486.90625 122.507812 476.375 119.921875 466.238281 119.792969 C 466.238281 119.792969 461.292969 121.910156 465.523438 124.855469 C 465.523438 124.855469 484.40625 122.582031 485.914062 128.859375 C 485.914062 128.859375 487.652344 126.648438 487.121094 123.695312 Z M 487.121094 123.703125 " fill-opacity="1" fill-rule="nonzero"/><path stroke-linecap="butt" transform="matrix(0.674035, 0, 0, 0.673979, -190.2573, 0.0000199704)" fill="none" stroke-linejoin="miter" d="M 953.092298 223.138303 C 953.092298 223.138303 960.75951 244.988473 938.377972 241.510992 " stroke="#231f20" stroke-width="1.5" stroke-opacity="1" stroke-miterlimit="10"/><path stroke-linecap="butt" transform="matrix(0.674035, 0, 0, 0.673979, -190.2573, 0.0000199704)" fill="none" stroke-linejoin="miter" d="M 812.428213 184.387579 C 812.428213 184.387579 825.757456 165.522247 833.071154 203.357235 C 833.071154 203.357235 823.288649 184.949771 817.551279 197.057199 " stroke="#231f20" stroke-width="1.5" stroke-opacity="1" stroke-miterlimit="10"/><path fill="#26130f" d="M 430.886719 209.285156 C 430.886719 209.285156 420.390625 212.742188 405.648438 202.828125 C 405.648438 202.828125 392.703125 194.394531 383.527344 182.046875 C 383.527344 182.046875 393.996094 202.207031 413.265625 209.84375 C 413.265625 209.84375 424.066406 214.097656 432.167969 212.578125 C 432.167969 212.578125 431.316406 211.285156 430.878906 209.289062 Z M 430.886719 209.285156 " fill-opacity="1" fill-rule="nonzero"/><path fill="#ffffff" d="M 411.285156 122.777344 C 411.285156 122.777344 411.378906 122.328125 411.796875 122.023438 C 413.179688 121.019531 416.253906 119.261719 420.277344 120.144531 C 424.78125 121.132812 426.328125 125.914062 426.84375 127.609375 C 426.929688 127.902344 426.867188 128.128906 426.867188 128.128906 C 426.867188 128.128906 426.828125 128.386719 426.640625 128.527344 C 425.738281 129.203125 422.824219 131 418.550781 130.125 C 416.003906 129.605469 412.742188 127.449219 411.296875 123.519531 C 411.199219 123.242188 411.25 122.941406 411.296875 122.777344 Z M 411.285156 122.777344 " fill-opacity="1" fill-rule="nonzero"/><path fill="#26130f" d="M 425.164062 125.621094 C 425.164062 125.9375 425.132812 126.246094 425.070312 126.550781 C 425.011719 126.859375 424.921875 127.15625 424.800781 127.445312 C 424.679688 127.734375 424.535156 128.011719 424.359375 128.269531 C 424.1875 128.53125 423.988281 128.769531 423.769531 128.992188 C 423.546875 129.214844 423.304688 129.410156 423.046875 129.585938 C 422.785156 129.757812 422.511719 129.90625 422.222656 130.023438 C 421.933594 130.144531 421.632812 130.234375 421.328125 130.296875 C 421.019531 130.359375 420.710938 130.386719 420.398438 130.386719 C 420.085938 130.386719 419.773438 130.359375 419.46875 130.296875 C 419.160156 130.234375 418.863281 130.144531 418.574219 130.023438 C 418.285156 129.90625 418.011719 129.757812 417.75 129.585938 C 417.492188 129.410156 417.25 129.214844 417.027344 128.992188 C 416.808594 128.769531 416.609375 128.53125 416.4375 128.269531 C 416.261719 128.011719 416.113281 127.734375 415.996094 127.445312 C 415.875 127.15625 415.785156 126.859375 415.722656 126.550781 C 415.664062 126.246094 415.632812 125.9375 415.632812 125.621094 C 415.632812 125.308594 415.664062 125 415.722656 124.695312 C 415.785156 124.386719 415.875 124.089844 415.996094 123.800781 C 416.113281 123.511719 416.261719 123.234375 416.4375 122.976562 C 416.609375 122.714844 416.808594 122.476562 417.027344 122.253906 C 417.25 122.03125 417.492188 121.835938 417.75 121.660156 C 418.011719 121.488281 418.285156 121.339844 418.574219 121.21875 C 418.863281 121.101562 419.160156 121.011719 419.46875 120.949219 C 419.773438 120.886719 420.085938 120.859375 420.398438 120.859375 C 420.710938 120.859375 421.019531 120.886719 421.328125 120.949219 C 421.632812 121.011719 421.933594 121.101562 422.222656 121.21875 C 422.511719 121.339844 422.785156 121.488281 423.046875 121.660156 C 423.304688 121.835938 423.546875 122.03125 423.769531 122.253906 C 423.988281 122.476562 424.1875 122.714844 424.359375 122.976562 C 424.535156 123.234375 424.679688 123.511719 424.800781 123.800781 C 424.921875 124.089844 425.011719 124.386719 425.070312 124.695312 C 425.132812 125 425.164062 125.308594 425.164062 125.621094 Z M 425.164062 125.621094 " fill-opacity="1" fill-rule="nonzero"/><path fill="#ffffff" d="M 420.195312 122.160156 C 420.195312 122.332031 420.164062 122.5 420.097656 122.660156 C 420.03125 122.820312 419.933594 122.960938 419.8125 123.082031 C 419.691406 123.207031 419.546875 123.300781 419.386719 123.367188 C 419.226562 123.433594 419.0625 123.464844 418.886719 123.464844 C 418.714844 123.464844 418.546875 123.433594 418.386719 123.367188 C 418.226562 123.300781 418.085938 123.207031 417.964844 123.082031 C 417.839844 122.960938 417.746094 122.820312 417.679688 122.660156 C 417.613281 122.5 417.582031 122.332031 417.582031 122.160156 C 417.582031 121.984375 417.613281 121.820312 417.679688 121.660156 C 417.746094 121.5 417.839844 121.355469 417.964844 121.234375 C 418.085938 121.113281 418.226562 121.015625 418.386719 120.949219 C 418.546875 120.882812 418.714844 120.851562 418.886719 120.851562 C 419.0625 120.851562 419.226562 120.882812 419.386719 120.949219 C 419.546875 121.015625 419.691406 121.113281 419.8125 121.234375 C 419.933594 121.355469 420.03125 121.5 420.097656 121.660156 C 420.164062 121.820312 420.195312 121.984375 420.195312 122.160156 Z M 420.195312 122.160156 " fill-opacity="1" fill-rule="nonzero"/><path stroke-linecap="butt" transform="matrix(0.674035, 0, 0, 0.673979, -190.2573, 0.0000199704)" fill="none" stroke-linejoin="miter" d="M 915.932685 189.447313 C 915.932685 189.447313 911.319608 171.712162 892.960024 180.939077 " stroke="#231f20" stroke-width="1.5" stroke-opacity="1" stroke-miterlimit="10"/><path fill="#ffffff" d="M 462.910156 138.179688 C 462.910156 138.179688 462.9375 137.742188 463.28125 137.402344 C 464.425781 136.277344 467.027344 134.195312 470.898438 134.445312 C 475.222656 134.726562 477.347656 138.949219 478.070312 140.449219 C 478.191406 140.707031 478.164062 140.929688 478.164062 140.929688 C 478.164062 140.929688 478.164062 141.171875 478.007812 141.332031 C 477.265625 142.089844 474.8125 144.175781 470.714844 143.976562 C 468.273438 143.855469 464.929688 142.316406 463.023438 138.875 C 462.890625 138.628906 462.902344 138.339844 462.917969 138.179688 Z M 462.910156 138.179688 " fill-opacity="1" fill-rule="nonzero"/><path fill="#26130f" d="M 476.261719 139.515625 C 476.261719 139.808594 476.234375 140.097656 476.175781 140.386719 C 476.117188 140.671875 476.035156 140.953125 475.921875 141.222656 C 475.808594 141.496094 475.671875 141.753906 475.507812 141.996094 C 475.347656 142.238281 475.160156 142.464844 474.953125 142.671875 C 474.746094 142.882812 474.519531 143.066406 474.277344 143.230469 C 474.03125 143.390625 473.773438 143.53125 473.503906 143.640625 C 473.230469 143.753906 472.953125 143.839844 472.664062 143.894531 C 472.378906 143.953125 472.085938 143.980469 471.792969 143.980469 C 471.5 143.980469 471.210938 143.953125 470.921875 143.894531 C 470.632812 143.839844 470.355469 143.753906 470.082031 143.640625 C 469.8125 143.53125 469.554688 143.390625 469.308594 143.230469 C 469.066406 143.066406 468.839844 142.882812 468.632812 142.671875 C 468.425781 142.464844 468.242188 142.238281 468.078125 141.996094 C 467.914062 141.753906 467.777344 141.496094 467.664062 141.222656 C 467.550781 140.953125 467.46875 140.671875 467.410156 140.386719 C 467.351562 140.097656 467.324219 139.808594 467.324219 139.515625 C 467.324219 139.21875 467.351562 138.929688 467.410156 138.640625 C 467.46875 138.355469 467.550781 138.074219 467.664062 137.804688 C 467.777344 137.53125 467.914062 137.273438 468.078125 137.03125 C 468.242188 136.789062 468.425781 136.5625 468.632812 136.355469 C 468.839844 136.148438 469.066406 135.960938 469.308594 135.796875 C 469.554688 135.636719 469.8125 135.496094 470.082031 135.386719 C 470.355469 135.273438 470.632812 135.1875 470.921875 135.132812 C 471.210938 135.074219 471.5 135.046875 471.792969 135.046875 C 472.085938 135.046875 472.378906 135.074219 472.664062 135.132812 C 472.953125 135.1875 473.230469 135.273438 473.503906 135.386719 C 473.773438 135.496094 474.03125 135.636719 474.277344 135.796875 C 474.519531 135.960938 474.746094 136.148438 474.953125 136.355469 C 475.160156 136.5625 475.347656 136.789062 475.507812 137.03125 C 475.671875 137.273438 475.808594 137.53125 475.921875 137.804688 C 476.035156 138.074219 476.117188 138.355469 476.175781 138.640625 C 476.234375 138.929688 476.261719 139.21875 476.261719 139.515625 Z M 476.261719 139.515625 " fill-opacity="1" fill-rule="nonzero"/><path fill="#ffffff" d="M 471.53125 136.472656 C 471.53125 136.640625 471.5 136.800781 471.433594 136.953125 C 471.371094 137.105469 471.28125 137.242188 471.164062 137.359375 C 471.046875 137.476562 470.910156 137.570312 470.757812 137.632812 C 470.601562 137.695312 470.441406 137.726562 470.277344 137.726562 C 470.109375 137.726562 469.949219 137.695312 469.796875 137.632812 C 469.644531 137.570312 469.507812 137.476562 469.390625 137.359375 C 469.273438 137.242188 469.183594 137.105469 469.117188 136.953125 C 469.054688 136.800781 469.023438 136.640625 469.023438 136.472656 C 469.023438 136.308594 469.054688 136.148438 469.117188 135.996094 C 469.183594 135.839844 469.273438 135.707031 469.390625 135.585938 C 469.507812 135.46875 469.644531 135.378906 469.796875 135.316406 C 469.949219 135.253906 470.109375 135.21875 470.277344 135.21875 C 470.441406 135.21875 470.601562 135.253906 470.757812 135.316406 C 470.910156 135.378906 471.046875 135.46875 471.164062 135.585938 C 471.28125 135.707031 471.371094 135.839844 471.433594 135.996094 C 471.5 136.148438 471.53125 136.308594 471.53125 136.472656 Z M 471.53125 136.472656 " fill-opacity="1" fill-rule="nonzero"/><path stroke-linecap="butt" transform="matrix(0.674035, 0, 0, 0.673979, -190.2573, 0.0000199704)" fill="none" stroke-linejoin="miter" d="M 991.619606 208.608231 C 991.619606 208.608231 985.349067 191.887345 969.371361 204.110689 " stroke="#231f20" stroke-width="1.5" stroke-opacity="1" stroke-miterlimit="10"/><path fill="#bf6b6b" d="M 412.640625 166.046875 C 412.640625 166.046875 422.191406 166.554688 431.777344 172.613281 C 431.777344 172.613281 441.328125 174 448.921875 178.265625 C 448.921875 178.265625 443.789062 190.804688 429.1875 189.132812 C 414.589844 187.46875 409.917969 173.457031 412.648438 166.046875 Z M 412.640625 166.046875 " fill-opacity="1" fill-rule="nonzero"/><path fill="#803435" d="M 414.535156 167.679688 C 414.535156 167.679688 410.660156 178.996094 427.414062 184.523438 C 442.632812 189.542969 446.09375 179.472656 446.09375 179.472656 C 446.09375 179.472656 428.722656 174.5 414.535156 167.679688 Z M 414.535156 167.679688 " fill-opacity="1" fill-rule="nonzero"/><path fill="#ffffff" d="M 416.496094 168.488281 C 416.496094 168.488281 418.933594 175.050781 432.085938 178.785156 C 432.085938 178.785156 439.972656 181.773438 444.542969 179.175781 C 444.542969 179.175781 427.726562 173.980469 416.496094 168.488281 Z M 416.496094 168.488281 " fill-opacity="1" fill-rule="nonzero"/><path fill="#ffffff" d="M 358.332031 192.886719 C 358.332031 192.886719 356.121094 224.160156 360.855469 237.476562 C 369.246094 261.074219 410.152344 277.328125 425.359375 249.535156 C 425.359375 249.535156 433.082031 234.417969 430.820312 219.535156 C 430.820312 219.535156 460.609375 239.992188 466.191406 249.90625 C 471.773438 259.820312 482.929688 345.972656 482.929688 345.972656 C 482.929688 345.972656 466.8125 360.847656 450.695312 359.609375 C 450.695312 359.609375 448.277344 380.0625 425.136719 401.550781 C 425.136719 401.550781 425.964844 454.855469 419.925781 484.085938 C 419.925781 484.085938 300.117188 537.066406 199.699219 475.089844 L 235.253906 380.0625 L 242.074219 306.921875 C 242.074219 306.921875 246.417969 231.308594 293.523438 213.335938 C 328.75 199.894531 358.339844 192.878906 358.339844 192.878906 Z M 358.332031 192.886719 " fill-opacity="1" fill-rule="nonzero"/><path stroke-linecap="butt" transform="matrix(0.674035, 0, 0, 0.673979, -190.2573, 0.0000199704)" fill-opacity="1" fill="#ffffff" fill-rule="nonzero" stroke-linejoin="miter" d="M 720.491206 322.061032 C 720.491206 322.061032 803.978632 322.918811 784.66282 474.658673 L 766.4713 482.987239 " stroke="#808285" stroke-width="2" stroke-opacity="1" stroke-miterlimit="10"/><path stroke-linecap="butt" transform="matrix(0.674035, 0, 0, 0.673979, -190.2573, 0.0000199704)" fill-opacity="1" fill="#ffffff" fill-rule="nonzero" stroke-linejoin="miter" d="M 950.907461 533.567193 C 950.907461 533.567193 953.851485 520.387542 955.288725 487.902078 " stroke="#808285" stroke-width="2" stroke-opacity="1" stroke-miterlimit="10"/><path fill="#3c2415" d="M 464.390625 72.539062 C 464.390625 72.539062 411.980469 137.113281 354.328125 125.675781 C 354.328125 125.675781 353.527344 151.539062 371.738281 149.785156 C 371.738281 149.785156 372.71875 183.046875 358.332031 192.886719 C 358.332031 192.886719 324.476562 206.683594 306.777344 209.667969 C 290.207031 212.464844 272.859375 225.832031 272.859375 225.832031 C 272.859375 225.832031 299.578125 198.730469 319.453125 140.882812 C 340.09375 80.824219 369.183594 53.703125 369.183594 53.703125 C 369.183594 53.703125 418.566406 5.117188 468.058594 47.191406 C 468.058594 47.191406 497.871094 54.816406 504.679688 86.28125 C 508.617188 104.480469 500.890625 135.050781 494.460938 159.417969 C 494.460938 159.417969 479.101562 222.199219 449.457031 233.851562 C 449.457031 233.851562 427.152344 224.402344 427.414062 209.324219 C 427.414062 209.324219 432.605469 210.835938 440.78125 204.214844 C 451.9375 195.183594 460.289062 186.289062 469.257812 175.125 C 469.257812 175.125 478.796875 164.09375 478.164062 146.832031 C 478.164062 146.832031 478.609375 137.921875 482.214844 133.453125 C 482.214844 133.453125 493.699219 98.234375 464.398438 72.535156 " fill-opacity="1" fill-rule="nonzero"/><path stroke-linecap="butt" transform="matrix(0.674035, 0, 0, 0.673979, -190.2573, 0.0000199704)" fill="none" stroke-linejoin="miter" d="M 824.470895 207.651923 C 824.470895 207.651923 809.397259 224.830677 821.040063 238.24216 C 832.682868 251.647848 829.68089 222.471786 829.68089 222.471786 " stroke="#fbb040" stroke-width="2" stroke-opacity="1" stroke-miterlimit="10"/><path fill="#26130f" d="M 551.78125 345.90625 C 542.539062 341.769531 547.277344 333.671875 547.277344 333.671875 C 541.730469 332.496094 545.355469 323.171875 545.355469 323.171875 C 539.378906 318.265625 544.917969 311.613281 544.917969 311.613281 C 542.796875 305.523438 549.757812 300.007812 549.757812 300.007812 C 545.917969 291.925781 554.066406 290.132812 554.066406 290.132812 C 550.710938 282.007812 560.355469 276.929688 560.355469 276.929688 C 558.230469 269.269531 561.21875 263.910156 561.21875 263.910156 C 557.902344 253.960938 564.804688 248.746094 564.804688 248.746094 C 561.296875 240.664062 567.203125 236.84375 567.203125 236.84375 C 564.269531 229.308594 571.253906 225.425781 571.253906 225.425781 C 568.707031 217.167969 577.125 214.742188 577.125 214.742188 C 578 206.269531 585.132812 205.488281 585.132812 205.488281 C 588.257812 197.652344 597.515625 197.179688 597.515625 197.179688 C 604.160156 191.753906 610.867188 193.679688 610.867188 193.679688 C 620.445312 189.132812 627.332031 193.925781 627.332031 193.925781 C 636.859375 190.015625 648.808594 196.695312 648.808594 196.695312 C 660.832031 195.03125 670.714844 206.324219 670.714844 206.324219 C 682.066406 207.160156 681.652344 219.105469 681.652344 219.105469 C 690.894531 223.242188 687.417969 233.175781 687.417969 233.175781 C 694.644531 233.648438 695.40625 241.75 695.40625 241.75 C 702.777344 242.96875 701.222656 252.371094 701.222656 252.371094 C 707.28125 255.203125 703.6875 262.703125 703.6875 262.703125 C 709.328125 268.074219 703.65625 272.363281 703.65625 272.363281 C 707.855469 278.542969 702.355469 281.804688 702.355469 281.804688 C 705.710938 289.933594 700.957031 294.035156 700.957031 294.035156 C 706.046875 298.011719 700.832031 303.242188 700.832031 303.242188 C 707.273438 308.222656 700.304688 313.621094 700.304688 313.621094 C 706.410156 317.769531 703.519531 324.566406 703.519531 324.566406 C 708.730469 327.78125 705.292969 336.570312 705.292969 336.570312 C 709.621094 341.992188 704.308594 350.550781 704.308594 350.550781 C 712.449219 357.425781 705.941406 366.066406 705.941406 366.066406 C 711.148438 374.660156 703.445312 379.792969 703.445312 379.792969 C 705.3125 387.363281 701.808594 390.914062 701.808594 390.914062 C 701.808594 390.914062 706.75 407.425781 691.28125 404.183594 " fill-opacity="1" fill-rule="nonzero"/><path fill="#be9e7d" d="M 596.71875 225.40625 C 596.71875 225.40625 587.007812 225.203125 582.011719 246.914062 C 582.011719 246.914062 582.261719 254.277344 580.414062 258.335938 C 578.566406 262.402344 576.652344 276.054688 577.152344 284.203125 C 577.652344 292.351562 580.925781 306.5 592.191406 314.578125 C 603.453125 322.660156 624.515625 315.699219 624.515625 315.699219 C 624.515625 315.699219 645.902344 309.324219 652.347656 297.792969 C 652.347656 297.792969 658.40625 306.855469 666.820312 301.699219 C 675.230469 296.539062 685.953125 281.515625 678.507812 275.746094 C 672.117188 270.792969 664.15625 279.074219 662.027344 281.519531 C 661.675781 281.925781 661.480469 282.167969 661.480469 282.167969 C 661.480469 282.167969 643.679688 251.285156 649.703125 233.292969 C 649.703125 233.292969 635.773438 241.007812 621.949219 233.710938 C 621.949219 233.710938 603.507812 238.070312 596.710938 225.40625 Z M 596.71875 225.40625 " fill-opacity="1" fill-rule="nonzero"/><path fill="#59bede" d="M 679.476562 239.058594 C 679.476562 239.058594 678.863281 247.992188 670.53125 248.625 C 662.195312 249.25 666.570312 237.636719 666.570312 237.636719 C 666.570312 237.636719 654.515625 234.96875 656.195312 230.488281 C 657.867188 226.003906 666.46875 220.714844 667.957031 224.179688 C 669.445312 227.644531 668.800781 233.835938 668.800781 233.835938 C 668.800781 233.835938 678.332031 235.691406 679.476562 239.066406 Z M 679.476562 239.058594 " fill-opacity="1" fill-rule="nonzero"/><path fill="#231f20" d="M 622.023438 251.183594 C 622.023438 251.183594 635.058594 251.3125 644.945312 257.640625 C 644.945312 257.640625 641.3125 249.601562 622.425781 248.152344 C 622.425781 248.152344 618.96875 249.277344 622.023438 251.183594 Z M 622.023438 251.183594 " fill-opacity="1" fill-rule="nonzero"/><path fill="#231f20" d="M 582.292969 244.566406 C 591.460938 244.410156 597.65625 246.554688 597.65625 246.554688 C 601.175781 245.800781 598.308594 243.5625 598.308594 243.5625 C 592.621094 241.984375 586.015625 241.730469 582.496094 241.832031 C 582.496094 241.832031 581.796875 244.574219 582.292969 244.566406 Z M 582.292969 244.566406 " fill-opacity="1" fill-rule="nonzero"/><path fill="#be8c8c" d="M 616.210938 292.015625 C 616.210938 292.015625 609.984375 288.707031 601.671875 289.445312 C 601.671875 289.445312 595.121094 286.785156 588.726562 286.980469 C 588.726562 286.980469 587.308594 298.109375 597.164062 302.507812 C 607.019531 306.910156 615.179688 298.476562 616.210938 292.023438 Z M 616.210938 292.015625 " fill-opacity="1" fill-rule="nonzero"/><path fill="#803435" d="M 614.414062 292.472656 C 614.414062 292.472656 612.652344 302.226562 600 299.8125 C 588.507812 297.621094 590.074219 288.941406 590.074219 288.941406 C 590.074219 288.941406 602.90625 291.996094 614.417969 292.472656 Z M 614.414062 292.472656 " fill-opacity="1" fill-rule="nonzero"/><path fill="#ffffff" d="M 612.816406 292.316406 C 612.816406 292.316406 608.816406 296.226562 599.117188 293.890625 C 599.117188 293.890625 593.019531 293.039062 591.105469 289.347656 C 591.105469 289.347656 603.675781 292.027344 612.816406 292.316406 Z M 612.816406 292.316406 " fill-opacity="1" fill-rule="nonzero"/><path stroke-linecap="butt" transform="matrix(0.674035, 0, 0, 0.673979, -190.2573, 0.0000199704)" fill="none" stroke-linejoin="miter" d="M 1174.792387 392.561154 C 1174.792387 392.561154 1161.341442 401.272243 1171.88893 410.458587 " stroke="#231f20" stroke-width="1" stroke-opacity="1" stroke-miterlimit="10"/><path fill="#26130f" d="M 597.339844 317.382812 C 597.339844 317.382812 608.277344 319.390625 619.304688 316.863281 C 619.304688 316.863281 626.140625 316.109375 637.652344 310.589844 C 637.652344 310.589844 631.039062 319.175781 611.042969 319.992188 C 611.042969 319.992188 604.273438 320.503906 595.910156 319.519531 C 595.910156 319.519531 596.28125 318.476562 597.347656 317.382812 Z M 597.339844 317.382812 " fill-opacity="1" fill-rule="nonzero"/><path stroke-linecap="butt" transform="matrix(0.674035, 0, 0, 0.673979, -190.2573, 0.0000199704)" fill="none" stroke-linejoin="miter" d="M 1287.528809 426.767971 C 1287.528809 426.767971 1283.477878 417.060004 1275.428174 424.640912 C 1267.372675 432.221819 1266.468605 435.079149 1266.468605 435.079149 C 1266.468605 435.079149 1278.267883 422.861601 1279.757281 434.748788 " stroke="#231f20" stroke-width="1" stroke-opacity="1" stroke-miterlimit="10"/><path fill="#f16225" d="M 668.867188 278.007812 C 668.867188 278.007812 662.179688 283.96875 666.917969 288.234375 C 671.65625 292.5 663.097656 288.855469 663.097656 288.855469 C 663.097656 288.855469 657.421875 285.066406 667.039062 275.21875 L 668.867188 278.011719 Z M 668.867188 278.007812 " fill-opacity="1" fill-rule="nonzero"/><path fill="#ffffff" d="M 666.917969 288.234375 C 666.917969 288.234375 671.363281 280.839844 676.566406 283.515625 C 681.773438 286.191406 674.070312 294.820312 674.070312 294.820312 C 674.070312 294.820312 672.015625 296.78125 668.960938 296.03125 C 668.960938 296.03125 672.90625 291.234375 666.914062 288.242188 Z M 666.917969 288.234375 " fill-opacity="1" fill-rule="nonzero"/><path fill="#1fa8df" d="M 682.132812 280.660156 C 682.132812 280.660156 686.203125 284 685.710938 278.347656 C 685.21875 272.683594 677.402344 271.054688 674.839844 270.992188 C 672.285156 270.933594 668.464844 271.492188 667.042969 275.210938 C 665.617188 278.941406 671.644531 276.519531 671.644531 276.519531 C 671.644531 276.519531 679.058594 272.800781 682.132812 280.660156 Z M 682.132812 280.660156 " fill-opacity="1" fill-rule="nonzero"/><path fill="#ffffff" d="M 635.132812 264.308594 C 635.132812 264.308594 635.214844 263.957031 635.023438 263.605469 C 634.382812 262.441406 632.8125 260.167969 629.6875 259.457031 C 626.179688 258.652344 623.5 261.496094 622.574219 262.523438 C 622.414062 262.695312 622.386719 262.878906 622.386719 262.878906 C 622.386719 262.878906 622.332031 263.074219 622.414062 263.234375 C 622.824219 264.011719 624.273438 266.25 627.574219 267.0625 C 629.542969 267.550781 632.558594 267.125 634.890625 264.839844 C 635.050781 264.679688 635.113281 264.441406 635.140625 264.316406 Z M 635.132812 264.308594 " fill-opacity="1" fill-rule="nonzero"/><path fill="#26130f" d="M 631.480469 263.269531 C 631.480469 263.761719 631.382812 264.234375 631.195312 264.691406 C 631.007812 265.144531 630.738281 265.546875 630.390625 265.894531 C 630.042969 266.242188 629.640625 266.511719 629.1875 266.699219 C 628.730469 266.890625 628.257812 266.984375 627.765625 266.984375 C 627.273438 266.984375 626.796875 266.890625 626.34375 266.699219 C 625.886719 266.511719 625.488281 266.242188 625.140625 265.894531 C 624.789062 265.546875 624.523438 265.144531 624.332031 264.691406 C 624.144531 264.234375 624.050781 263.761719 624.050781 263.269531 C 624.050781 262.777344 624.144531 262.304688 624.332031 261.847656 C 624.523438 261.394531 624.789062 260.992188 625.140625 260.644531 C 625.488281 260.296875 625.886719 260.027344 626.34375 259.839844 C 626.796875 259.652344 627.273438 259.554688 627.765625 259.554688 C 628.257812 259.554688 628.730469 259.652344 629.1875 259.839844 C 629.640625 260.027344 630.042969 260.296875 630.390625 260.644531 C 630.738281 260.992188 631.007812 261.394531 631.195312 261.847656 C 631.382812 262.304688 631.480469 262.777344 631.480469 263.269531 Z M 631.480469 263.269531 " fill-opacity="1" fill-rule="nonzero"/><path fill="#ffffff" d="M 631.242188 263.0625 C 631.242188 263.195312 631.21875 263.324219 631.164062 263.449219 C 631.113281 263.574219 631.039062 263.683594 630.945312 263.78125 C 630.847656 263.875 630.738281 263.949219 630.613281 264 C 630.488281 264.054688 630.359375 264.078125 630.226562 264.078125 C 630.089844 264.078125 629.960938 264.054688 629.835938 264 C 629.710938 263.949219 629.601562 263.875 629.503906 263.78125 C 629.410156 263.683594 629.335938 263.574219 629.285156 263.449219 C 629.234375 263.324219 629.207031 263.195312 629.207031 263.0625 C 629.207031 262.925781 629.234375 262.796875 629.285156 262.671875 C 629.335938 262.546875 629.410156 262.4375 629.503906 262.339844 C 629.601562 262.246094 629.710938 262.171875 629.835938 262.121094 C 629.960938 262.070312 630.089844 262.042969 630.226562 262.042969 C 630.359375 262.042969 630.488281 262.070312 630.613281 262.121094 C 630.738281 262.171875 630.847656 262.246094 630.945312 262.339844 C 631.039062 262.4375 631.113281 262.546875 631.164062 262.671875 C 631.21875 262.796875 631.242188 262.925781 631.242188 263.0625 Z M 631.242188 263.0625 " fill-opacity="1" fill-rule="nonzero"/><path stroke-linecap="butt" transform="matrix(0.674035, 0, 0, 0.673979, -190.2573, 0.0000199704)" fill="none" stroke-linejoin="miter" d="M 1205.588734 389.437217 C 1205.588734 389.437217 1214.762731 378.488949 1224.597394 391.117999 " stroke="#231f20" stroke-width="1" stroke-opacity="1" stroke-miterlimit="10"/><path fill="#ffffff" d="M 596.710938 257.359375 C 596.710938 257.359375 596.839844 257.050781 596.710938 256.699219 C 596.289062 255.539062 595.167969 253.234375 592.398438 252.136719 C 589.296875 250.902344 586.441406 253.132812 585.441406 253.941406 C 585.273438 254.082031 585.21875 254.246094 585.21875 254.246094 C 585.21875 254.246094 585.140625 254.414062 585.199219 254.574219 C 585.46875 255.34375 586.480469 257.601562 589.390625 258.816406 C 591.125 259.535156 593.957031 259.570312 596.410156 257.804688 C 596.578125 257.683594 596.671875 257.472656 596.710938 257.359375 Z M 596.710938 257.359375 " fill-opacity="1" fill-rule="nonzero"/><path fill="#26130f" d="M 593.539062 255.355469 C 593.539062 255.8125 593.449219 256.25 593.277344 256.671875 C 593.101562 257.089844 592.855469 257.460938 592.53125 257.78125 C 592.210938 258.105469 591.839844 258.351562 591.417969 258.527344 C 591 258.699219 590.5625 258.789062 590.105469 258.789062 C 589.652344 258.789062 589.214844 258.699219 588.792969 258.527344 C 588.375 258.351562 588.003906 258.105469 587.679688 257.78125 C 587.359375 257.460938 587.109375 257.089844 586.9375 256.671875 C 586.761719 256.25 586.675781 255.8125 586.675781 255.355469 C 586.675781 254.902344 586.761719 254.464844 586.9375 254.042969 C 587.109375 253.625 587.359375 253.253906 587.679688 252.929688 C 588.003906 252.609375 588.375 252.363281 588.792969 252.1875 C 589.214844 252.015625 589.652344 251.925781 590.105469 251.925781 C 590.5625 251.925781 591 252.015625 591.417969 252.1875 C 591.839844 252.363281 592.210938 252.609375 592.53125 252.929688 C 592.855469 253.253906 593.101562 253.625 593.277344 254.042969 C 593.449219 254.464844 593.539062 254.902344 593.539062 255.355469 Z M 593.539062 255.355469 " fill-opacity="1" fill-rule="nonzero"/><path fill="#ffffff" d="M 593.4375 255.605469 C 593.4375 255.871094 593.34375 256.101562 593.152344 256.289062 C 592.964844 256.476562 592.738281 256.570312 592.472656 256.570312 C 592.207031 256.570312 591.980469 256.476562 591.789062 256.289062 C 591.601562 256.101562 591.507812 255.871094 591.507812 255.605469 C 591.507812 255.339844 591.601562 255.113281 591.789062 254.925781 C 591.980469 254.738281 592.207031 254.644531 592.472656 254.644531 C 592.738281 254.644531 592.964844 254.738281 593.152344 254.925781 C 593.34375 255.113281 593.4375 255.339844 593.4375 255.605469 Z M 593.4375 255.605469 " fill-opacity="1" fill-rule="nonzero"/><path stroke-linecap="butt" transform="matrix(0.674035, 0, 0, 0.673979, -190.2573, 0.0000199704)" fill="none" stroke-linejoin="miter" d="M 1150.701228 376.912492 C 1150.701228 376.912492 1160.559073 367.372603 1167.629367 381.108651 " stroke="#231f20" stroke-width="1" stroke-opacity="1" stroke-miterlimit="10"/><path fill="#be9e7d" d="M 529.933594 398.886719 L 516.515625 425.1875 L 434.222656 425.113281 L 425.128906 421.808594 L 421.410156 456.519531 C 421.410156 456.519531 522.421875 465.4375 534.761719 461.683594 C 547.101562 457.929688 557.839844 429.488281 557.839844 429.488281 " fill-opacity="1" fill-rule="nonzero"/><path fill="#be9e7d" d="M 326.371094 325.523438 L 340.625 408.578125 C 340.625 408.578125 398.511719 428.238281 444.765625 440.316406 L 444.691406 476.773438 C 444.691406 476.773438 344.015625 485.117188 302.199219 470.558594 C 302.199219 470.558594 273.066406 463.535156 263.976562 432.546875 C 246.570312 373.222656 247.449219 332.136719 247.449219 332.136719 C 247.449219 332.136719 282.371094 341.019531 326.375 325.523438 Z M 326.371094 325.523438 " fill-opacity="1" fill-rule="nonzero"/><path fill="#be9e7d" d="M 444.765625 440.316406 L 450.714844 441.53125 L 505.230469 425.484375 L 540.886719 434.238281 L 556.59375 456.269531 C 556.59375 456.269531 556.257812 465.746094 544.65625 454.847656 L 543.179688 468.28125 C 543.179688 468.28125 538.832031 478.113281 533.664062 468.941406 L 527.253906 480.703125 C 527.253906 480.703125 522.015625 487.507812 519.328125 478.921875 L 512.34375 492.660156 C 512.34375 492.660156 503.433594 490.347656 505.796875 479.941406 L 475.203125 483.351562 L 444.683594 476.765625 L 444.757812 440.3125 Z M 444.765625 440.316406 " fill-opacity="1" fill-rule="nonzero"/><path stroke-linecap="butt" transform="matrix(0.674035, 0, 0, 0.673979, -190.2573, 0.0000199704)" fill="none" stroke-linejoin="miter" d="M 1074.011716 695.791659 C 1074.011716 695.791659 1077.181758 678.792575 1063.290368 674.550049 C 1049.398979 670.307522 1040.172824 666.70833 1040.172824 666.70833 " stroke="#754c29" stroke-width="1" stroke-opacity="1" stroke-miterlimit="10"/><path fill="#be9e7d" d="M 650.296875 298.769531 C 650.296875 298.769531 635.125 326.199219 653.621094 331.269531 C 653.621094 331.269531 649.617188 379.152344 605.375 380.542969 C 605.375 380.542969 563.460938 377.570312 583.472656 334.832031 L 593.261719 328.523438 C 596.117188 322.054688 595.546875 317.105469 595.546875 317.105469 L 641.488281 293.503906 " fill-opacity="1" fill-rule="nonzero"/><path fill="#26130f" d="M 595.828125 316.574219 C 595.828125 316.574219 605.210938 321.90625 617.398438 318.996094 C 617.398438 318.996094 623.96875 319.242188 636.128906 314.359375 C 636.128906 314.359375 628.34375 323.589844 607.347656 322.371094 C 607.347656 322.371094 603.65625 322.445312 595.679688 320.417969 C 595.679688 320.417969 594.601562 317.605469 595.828125 316.574219 Z M 595.828125 316.574219 " fill-opacity="1" fill-rule="nonzero"/><path fill="#59bede" d="M 593.269531 329.125 C 593.269531 329.125 571.800781 330.734375 559.992188 342.542969 C 548.179688 354.351562 527.792969 395.132812 527.792969 395.132812 C 527.792969 395.132812 541.746094 418.742188 557.847656 429.480469 L 570.726562 491.730469 L 573.382812 519.53125 C 573.382812 519.53125 655.890625 547.121094 706.34375 519.21875 L 693.09375 456.851562 L 691.480469 401.578125 C 691.480469 401.578125 703.734375 356.320312 676.902344 336.996094 L 645.390625 322.640625 C 645.390625 322.640625 639.816406 336.046875 630.304688 347.539062 C 620.902344 358.902344 607.609375 365.511719 597.761719 363.242188 C 591.050781 361.691406 586.371094 357.734375 585.46875 353.015625 C 583.554688 343.023438 593.261719 329.136719 593.261719 329.136719 Z M 593.269531 329.125 " fill-opacity="1" fill-rule="nonzero"/><path fill="#0f3e5d" d="M 593.960938 328.789062 C 572.136719 363.34375 600.453125 362.816406 600.453125 362.816406 C 629.03125 364.8125 645.390625 322.632812 645.390625 322.632812 L 649.832031 324.183594 C 649.832031 324.183594 639.808594 351.042969 621.414062 362.042969 C 605.414062 371.613281 593.179688 364.988281 593.179688 364.988281 C 593.179688 364.988281 574.554688 359.007812 584.429688 340.824219 L 590.222656 329.65625 Z M 593.960938 328.789062 " fill-opacity="1" fill-rule="nonzero"/><path fill="#0f3e5d" d="M 598.355469 373.039062 C 598.355469 373.371094 598.324219 373.699219 598.261719 374.023438 C 598.195312 374.347656 598.101562 374.660156 597.972656 374.96875 C 597.847656 375.273438 597.691406 375.5625 597.507812 375.835938 C 597.324219 376.113281 597.117188 376.367188 596.882812 376.601562 C 596.648438 376.835938 596.394531 377.042969 596.117188 377.226562 C 595.84375 377.410156 595.554688 377.566406 595.25 377.691406 C 594.941406 377.820312 594.628906 377.914062 594.304688 377.980469 C 593.980469 378.042969 593.652344 378.074219 593.320312 378.074219 C 592.992188 378.074219 592.664062 378.042969 592.339844 377.980469 C 592.015625 377.914062 591.699219 377.820312 591.394531 377.691406 C 591.089844 377.566406 590.800781 377.410156 590.523438 377.226562 C 590.25 377.042969 589.996094 376.835938 589.761719 376.601562 C 589.527344 376.367188 589.320312 376.113281 589.136719 375.835938 C 588.953125 375.5625 588.796875 375.273438 588.667969 374.96875 C 588.542969 374.660156 588.449219 374.347656 588.382812 374.023438 C 588.320312 373.699219 588.285156 373.371094 588.285156 373.039062 C 588.285156 372.710938 588.320312 372.382812 588.382812 372.058594 C 588.449219 371.734375 588.542969 371.417969 588.667969 371.113281 C 588.796875 370.808594 588.953125 370.519531 589.136719 370.242188 C 589.320312 369.96875 589.527344 369.714844 589.761719 369.480469 C 589.996094 369.246094 590.25 369.039062 590.523438 368.855469 C 590.800781 368.671875 591.089844 368.515625 591.394531 368.390625 C 591.699219 368.261719 592.015625 368.167969 592.339844 368.101562 C 592.664062 368.039062 592.992188 368.007812 593.320312 368.007812 C 593.652344 368.007812 593.980469 368.039062 594.304688 368.101562 C 594.628906 368.167969 594.941406 368.261719 595.25 368.390625 C 595.554688 368.515625 595.84375 368.671875 596.117188 368.855469 C 596.394531 369.039062 596.648438 369.246094 596.882812 369.480469 C 597.117188 369.714844 597.324219 369.96875 597.507812 370.242188 C 597.691406 370.519531 597.847656 370.808594 597.972656 371.113281 C 598.101562 371.417969 598.195312 371.734375 598.261719 372.058594 C 598.324219 372.382812 598.355469 372.710938 598.355469 373.039062 Z M 598.355469 373.039062 " fill-opacity="1" fill-rule="nonzero"/><path fill="#0f3e5d" d="M 608.332031 374.429688 C 608.332031 374.761719 608.300781 375.085938 608.234375 375.410156 C 608.171875 375.734375 608.074219 376.050781 607.949219 376.355469 C 607.824219 376.660156 607.667969 376.953125 607.484375 377.226562 C 607.300781 377.5 607.089844 377.753906 606.859375 377.988281 C 606.625 378.222656 606.371094 378.429688 606.09375 378.617188 C 605.820312 378.800781 605.53125 378.953125 605.222656 379.082031 C 604.917969 379.207031 604.605469 379.300781 604.28125 379.367188 C 603.957031 379.429688 603.628906 379.464844 603.296875 379.464844 C 602.964844 379.464844 602.640625 379.429688 602.316406 379.367188 C 601.992188 379.300781 601.675781 379.207031 601.371094 379.082031 C 601.066406 378.953125 600.773438 378.800781 600.5 378.617188 C 600.226562 378.429688 599.972656 378.222656 599.738281 377.988281 C 599.503906 377.753906 599.292969 377.5 599.109375 377.226562 C 598.925781 376.953125 598.773438 376.660156 598.644531 376.355469 C 598.519531 376.050781 598.421875 375.734375 598.359375 375.410156 C 598.292969 375.085938 598.261719 374.761719 598.261719 374.429688 C 598.261719 374.097656 598.292969 373.769531 598.359375 373.445312 C 598.421875 373.121094 598.519531 372.808594 598.644531 372.503906 C 598.773438 372.195312 598.925781 371.90625 599.109375 371.632812 C 599.292969 371.355469 599.503906 371.101562 599.738281 370.871094 C 599.972656 370.636719 600.226562 370.425781 600.5 370.242188 C 600.773438 370.058594 601.066406 369.90625 601.371094 369.777344 C 601.675781 369.652344 601.992188 369.554688 602.316406 369.492188 C 602.640625 369.425781 602.964844 369.394531 603.296875 369.394531 C 603.628906 369.394531 603.957031 369.425781 604.28125 369.492188 C 604.605469 369.554688 604.917969 369.652344 605.222656 369.777344 C 605.53125 369.90625 605.820312 370.058594 606.09375 370.242188 C 606.371094 370.425781 606.625 370.636719 606.859375 370.871094 C 607.089844 371.101562 607.300781 371.355469 607.484375 371.632812 C 607.667969 371.90625 607.824219 372.195312 607.949219 372.503906 C 608.074219 372.808594 608.171875 373.121094 608.234375 373.445312 C 608.300781 373.769531 608.332031 374.097656 608.332031 374.429688 Z M 608.332031 374.429688 " fill-opacity="1" fill-rule="nonzero"/><path fill="#0f3e5d" d="M 618.625 373.25 C 618.625 373.582031 618.59375 373.90625 618.527344 374.230469 C 618.464844 374.554688 618.367188 374.871094 618.242188 375.175781 C 618.113281 375.480469 617.960938 375.773438 617.777344 376.046875 C 617.59375 376.320312 617.382812 376.574219 617.148438 376.808594 C 616.917969 377.042969 616.660156 377.253906 616.386719 377.4375 C 616.113281 377.621094 615.820312 377.773438 615.515625 377.902344 C 615.210938 378.027344 614.894531 378.125 614.570312 378.1875 C 614.246094 378.253906 613.921875 378.285156 613.589844 378.285156 C 613.257812 378.285156 612.933594 378.253906 612.609375 378.1875 C 612.285156 378.125 611.96875 378.027344 611.664062 377.902344 C 611.359375 377.773438 611.066406 377.621094 610.792969 377.4375 C 610.519531 377.253906 610.261719 377.042969 610.03125 376.808594 C 609.796875 376.574219 609.585938 376.320312 609.402344 376.046875 C 609.21875 375.773438 609.066406 375.480469 608.9375 375.175781 C 608.8125 374.871094 608.714844 374.554688 608.652344 374.230469 C 608.585938 373.90625 608.554688 373.582031 608.554688 373.25 C 608.554688 372.917969 608.585938 372.59375 608.652344 372.265625 C 608.714844 371.941406 608.8125 371.628906 608.9375 371.324219 C 609.066406 371.019531 609.21875 370.726562 609.402344 370.453125 C 609.585938 370.179688 609.796875 369.921875 610.03125 369.691406 C 610.261719 369.457031 610.519531 369.246094 610.792969 369.0625 C 611.066406 368.878906 611.359375 368.726562 611.664062 368.597656 C 611.96875 368.472656 612.285156 368.375 612.609375 368.3125 C 612.933594 368.246094 613.257812 368.214844 613.589844 368.214844 C 613.921875 368.214844 614.246094 368.246094 614.570312 368.3125 C 614.894531 368.375 615.210938 368.472656 615.515625 368.597656 C 615.820312 368.726562 616.113281 368.878906 616.386719 369.0625 C 616.660156 369.246094 616.917969 369.457031 617.148438 369.691406 C 617.382812 369.921875 617.59375 370.179688 617.777344 370.453125 C 617.960938 370.726562 618.113281 371.019531 618.242188 371.324219 C 618.367188 371.628906 618.464844 371.941406 618.527344 372.265625 C 618.59375 372.59375 618.625 372.917969 618.625 373.25 Z M 618.625 373.25 " fill-opacity="1" fill-rule="nonzero"/><path fill="#0f3e5d" d="M 628.667969 370.417969 C 628.667969 370.75 628.636719 371.078125 628.570312 371.402344 C 628.507812 371.726562 628.410156 372.039062 628.285156 372.34375 C 628.160156 372.652344 628.003906 372.941406 627.820312 373.214844 C 627.636719 373.492188 627.425781 373.746094 627.195312 373.980469 C 626.960938 374.210938 626.707031 374.421875 626.429688 374.605469 C 626.15625 374.789062 625.867188 374.945312 625.558594 375.070312 C 625.253906 375.195312 624.941406 375.292969 624.617188 375.355469 C 624.292969 375.421875 623.964844 375.453125 623.632812 375.453125 C 623.300781 375.453125 622.976562 375.421875 622.652344 375.355469 C 622.328125 375.292969 622.011719 375.195312 621.707031 375.070312 C 621.402344 374.945312 621.109375 374.789062 620.835938 374.605469 C 620.5625 374.421875 620.304688 374.210938 620.074219 373.980469 C 619.839844 373.746094 619.628906 373.492188 619.445312 373.214844 C 619.261719 372.941406 619.109375 372.652344 618.980469 372.34375 C 618.855469 372.039062 618.757812 371.726562 618.695312 371.402344 C 618.628906 371.078125 618.597656 370.75 618.597656 370.417969 C 618.597656 370.089844 618.628906 369.761719 618.695312 369.4375 C 618.757812 369.113281 618.855469 368.796875 618.980469 368.492188 C 619.109375 368.1875 619.261719 367.898438 619.445312 367.621094 C 619.628906 367.347656 619.839844 367.09375 620.074219 366.859375 C 620.304688 366.625 620.5625 366.417969 620.835938 366.234375 C 621.109375 366.050781 621.402344 365.894531 621.707031 365.769531 C 622.011719 365.640625 622.328125 365.546875 622.652344 365.480469 C 622.976562 365.417969 623.300781 365.382812 623.632812 365.382812 C 623.964844 365.382812 624.289062 365.417969 624.617188 365.480469 C 624.941406 365.546875 625.253906 365.640625 625.558594 365.769531 C 625.867188 365.894531 626.15625 366.050781 626.429688 366.234375 C 626.707031 366.417969 626.960938 366.625 627.191406 366.859375 C 627.425781 367.09375 627.636719 367.347656 627.820312 367.621094 C 628.003906 367.898438 628.160156 368.1875 628.285156 368.492188 C 628.410156 368.796875 628.507812 369.113281 628.570312 369.4375 C 628.636719 369.761719 628.667969 370.089844 628.667969 370.417969 Z M 628.667969 370.417969 " fill-opacity="1" fill-rule="nonzero"/><path fill="#0f3e5d" d="M 637.222656 364.816406 C 637.222656 365.148438 637.1875 365.476562 637.125 365.800781 C 637.058594 366.125 636.964844 366.441406 636.839844 366.746094 C 636.710938 367.050781 636.558594 367.339844 636.371094 367.617188 C 636.1875 367.890625 635.980469 368.144531 635.746094 368.378906 C 635.511719 368.613281 635.257812 368.820312 634.984375 369.003906 C 634.710938 369.1875 634.417969 369.34375 634.113281 369.46875 C 633.808594 369.597656 633.492188 369.691406 633.167969 369.757812 C 632.84375 369.820312 632.515625 369.851562 632.1875 369.851562 C 631.855469 369.851562 631.527344 369.820312 631.203125 369.757812 C 630.878906 369.691406 630.566406 369.597656 630.257812 369.46875 C 629.953125 369.34375 629.664062 369.1875 629.390625 369.003906 C 629.113281 368.820312 628.859375 368.613281 628.625 368.378906 C 628.390625 368.144531 628.183594 367.890625 628 367.617188 C 627.816406 367.339844 627.660156 367.050781 627.535156 366.746094 C 627.410156 366.441406 627.3125 366.125 627.25 365.800781 C 627.183594 365.476562 627.152344 365.148438 627.152344 364.816406 C 627.152344 364.488281 627.183594 364.160156 627.25 363.835938 C 627.3125 363.511719 627.410156 363.195312 627.535156 362.890625 C 627.660156 362.585938 627.816406 362.296875 628 362.019531 C 628.183594 361.746094 628.390625 361.492188 628.625 361.257812 C 628.859375 361.023438 629.113281 360.816406 629.390625 360.632812 C 629.664062 360.449219 629.953125 360.292969 630.257812 360.167969 C 630.566406 360.039062 630.878906 359.945312 631.203125 359.878906 C 631.527344 359.816406 631.855469 359.785156 632.1875 359.785156 C 632.515625 359.785156 632.84375 359.816406 633.167969 359.878906 C 633.492188 359.945312 633.808594 360.039062 634.113281 360.167969 C 634.417969 360.292969 634.710938 360.449219 634.984375 360.632812 C 635.257812 360.816406 635.511719 361.023438 635.746094 361.257812 C 635.980469 361.492188 636.1875 361.746094 636.371094 362.019531 C 636.558594 362.296875 636.710938 362.585938 636.839844 362.890625 C 636.964844 363.195312 637.058594 363.511719 637.125 363.835938 C 637.1875 364.160156 637.222656 364.488281 637.222656 364.816406 Z M 637.222656 364.816406 " fill-opacity="1" fill-rule="nonzero"/><path fill="#0f3e5d" d="M 645.082031 358.65625 C 645.082031 358.988281 645.046875 359.316406 644.984375 359.640625 C 644.917969 359.964844 644.824219 360.28125 644.699219 360.585938 C 644.570312 360.890625 644.414062 361.179688 644.230469 361.457031 C 644.046875 361.730469 643.839844 361.984375 643.605469 362.21875 C 643.371094 362.453125 643.117188 362.660156 642.84375 362.84375 C 642.566406 363.027344 642.277344 363.183594 641.972656 363.308594 C 641.667969 363.4375 641.351562 363.53125 641.027344 363.597656 C 640.703125 363.660156 640.375 363.691406 640.046875 363.691406 C 639.714844 363.691406 639.386719 363.660156 639.0625 363.597656 C 638.738281 363.53125 638.425781 363.4375 638.117188 363.308594 C 637.8125 363.183594 637.523438 363.027344 637.25 362.84375 C 636.972656 362.660156 636.71875 362.453125 636.484375 362.21875 C 636.25 361.984375 636.042969 361.730469 635.859375 361.457031 C 635.675781 361.179688 635.519531 360.890625 635.394531 360.585938 C 635.265625 360.28125 635.171875 359.964844 635.109375 359.640625 C 635.042969 359.316406 635.011719 358.988281 635.011719 358.65625 C 635.011719 358.328125 635.042969 358 635.109375 357.675781 C 635.171875 357.351562 635.265625 357.035156 635.394531 356.730469 C 635.519531 356.425781 635.675781 356.136719 635.859375 355.859375 C 636.042969 355.585938 636.25 355.332031 636.484375 355.097656 C 636.71875 354.863281 636.972656 354.65625 637.25 354.472656 C 637.523438 354.289062 637.8125 354.132812 638.117188 354.007812 C 638.425781 353.878906 638.738281 353.785156 639.0625 353.71875 C 639.386719 353.65625 639.714844 353.625 640.046875 353.625 C 640.375 353.625 640.703125 353.65625 641.027344 353.71875 C 641.351562 353.785156 641.667969 353.878906 641.972656 354.007812 C 642.277344 354.132812 642.566406 354.289062 642.84375 354.472656 C 643.117188 354.65625 643.371094 354.863281 643.605469 355.097656 C 643.839844 355.332031 644.046875 355.585938 644.230469 355.859375 C 644.414062 356.136719 644.570312 356.425781 644.699219 356.730469 C 644.824219 357.035156 644.917969 357.351562 644.984375 357.675781 C 645.046875 358 645.082031 358.328125 645.082031 358.65625 Z M 645.082031 358.65625 " fill-opacity="1" fill-rule="nonzero"/><path fill="#0f3e5d" d="M 589.117188 368.910156 C 589.117188 369.238281 589.082031 369.566406 589.019531 369.890625 C 588.953125 370.214844 588.859375 370.53125 588.734375 370.835938 C 588.605469 371.140625 588.449219 371.429688 588.265625 371.707031 C 588.082031 371.980469 587.875 372.234375 587.640625 372.46875 C 587.40625 372.703125 587.152344 372.910156 586.878906 373.09375 C 586.601562 373.277344 586.3125 373.433594 586.007812 373.5625 C 585.703125 373.6875 585.386719 373.78125 585.0625 373.847656 C 584.738281 373.910156 584.410156 373.945312 584.082031 373.945312 C 583.75 373.945312 583.421875 373.910156 583.097656 373.847656 C 582.773438 373.78125 582.460938 373.6875 582.152344 373.5625 C 581.847656 373.433594 581.558594 373.277344 581.285156 373.09375 C 581.007812 372.910156 580.753906 372.703125 580.519531 372.46875 C 580.285156 372.234375 580.078125 371.980469 579.894531 371.707031 C 579.710938 371.429688 579.554688 371.140625 579.429688 370.835938 C 579.300781 370.53125 579.207031 370.214844 579.140625 369.890625 C 579.078125 369.566406 579.046875 369.238281 579.046875 368.910156 C 579.046875 368.578125 579.078125 368.25 579.140625 367.925781 C 579.207031 367.601562 579.300781 367.289062 579.429688 366.984375 C 579.554688 366.675781 579.710938 366.386719 579.894531 366.113281 C 580.078125 365.835938 580.285156 365.582031 580.519531 365.347656 C 580.753906 365.117188 581.007812 364.90625 581.285156 364.722656 C 581.558594 364.539062 581.847656 364.382812 582.152344 364.257812 C 582.460938 364.132812 582.773438 364.035156 583.097656 363.972656 C 583.421875 363.90625 583.75 363.875 584.082031 363.875 C 584.410156 363.875 584.738281 363.90625 585.0625 363.972656 C 585.386719 364.035156 585.703125 364.132812 586.007812 364.257812 C 586.3125 364.382812 586.601562 364.539062 586.878906 364.722656 C 587.152344 364.90625 587.40625 365.117188 587.640625 365.347656 C 587.875 365.582031 588.082031 365.835938 588.265625 366.113281 C 588.449219 366.386719 588.605469 366.675781 588.734375 366.984375 C 588.859375 367.289062 588.953125 367.601562 589.019531 367.925781 C 589.082031 368.25 589.117188 368.578125 589.117188 368.910156 Z M 589.117188 368.910156 " fill-opacity="1" fill-rule="nonzero"/><path fill="#0f3e5d" d="M 580.886719 363.382812 C 580.886719 363.714844 580.851562 364.039062 580.789062 364.363281 C 580.722656 364.6875 580.628906 365.003906 580.503906 365.308594 C 580.375 365.613281 580.222656 365.90625 580.039062 366.179688 C 579.851562 366.453125 579.644531 366.707031 579.410156 366.941406 C 579.175781 367.175781 578.921875 367.386719 578.648438 367.570312 C 578.375 367.753906 578.082031 367.90625 577.777344 368.035156 C 577.472656 368.160156 577.15625 368.257812 576.832031 368.320312 C 576.507812 368.386719 576.179688 368.417969 575.851562 368.417969 C 575.519531 368.417969 575.191406 368.386719 574.867188 368.320312 C 574.542969 368.257812 574.230469 368.160156 573.921875 368.035156 C 573.617188 367.90625 573.328125 367.753906 573.054688 367.570312 C 572.777344 367.386719 572.523438 367.175781 572.289062 366.941406 C 572.058594 366.707031 571.847656 366.453125 571.664062 366.179688 C 571.480469 365.90625 571.324219 365.613281 571.199219 365.308594 C 571.074219 365.003906 570.976562 364.6875 570.914062 364.363281 C 570.847656 364.039062 570.816406 363.714844 570.816406 363.382812 C 570.816406 363.050781 570.847656 362.726562 570.914062 362.402344 C 570.976562 362.078125 571.074219 361.761719 571.199219 361.457031 C 571.324219 361.152344 571.480469 360.859375 571.664062 360.585938 C 571.847656 360.3125 572.058594 360.054688 572.289062 359.824219 C 572.523438 359.589844 572.777344 359.378906 573.054688 359.195312 C 573.328125 359.011719 573.617188 358.859375 573.921875 358.730469 C 574.230469 358.605469 574.542969 358.507812 574.867188 358.445312 C 575.191406 358.378906 575.519531 358.347656 575.851562 358.347656 C 576.179688 358.347656 576.507812 358.378906 576.832031 358.445312 C 577.15625 358.507812 577.472656 358.605469 577.777344 358.730469 C 578.082031 358.859375 578.371094 359.011719 578.648438 359.195312 C 578.921875 359.378906 579.175781 359.589844 579.410156 359.824219 C 579.644531 360.054688 579.851562 360.3125 580.039062 360.585938 C 580.222656 360.859375 580.375 361.152344 580.503906 361.457031 C 580.628906 361.761719 580.722656 362.078125 580.789062 362.402344 C 580.851562 362.726562 580.886719 363.050781 580.886719 363.382812 Z M 580.886719 363.382812 " fill-opacity="1" fill-rule="nonzero"/><path fill="#0f3e5d" d="M 576.875 354.027344 C 576.875 354.359375 576.84375 354.6875 576.777344 355.011719 C 576.714844 355.335938 576.617188 355.648438 576.492188 355.953125 C 576.367188 356.261719 576.210938 356.550781 576.027344 356.824219 C 575.84375 357.101562 575.632812 357.355469 575.402344 357.585938 C 575.167969 357.820312 574.914062 358.03125 574.636719 358.214844 C 574.363281 358.398438 574.074219 358.554688 573.765625 358.679688 C 573.460938 358.804688 573.148438 358.902344 572.824219 358.964844 C 572.5 359.03125 572.171875 359.0625 571.839844 359.0625 C 571.507812 359.0625 571.183594 359.03125 570.859375 358.964844 C 570.535156 358.902344 570.21875 358.804688 569.914062 358.679688 C 569.609375 358.554688 569.316406 358.398438 569.042969 358.214844 C 568.769531 358.03125 568.515625 357.820312 568.28125 357.585938 C 568.046875 357.355469 567.835938 357.101562 567.652344 356.824219 C 567.46875 356.550781 567.316406 356.261719 567.1875 355.953125 C 567.0625 355.648438 566.964844 355.335938 566.902344 355.011719 C 566.835938 354.6875 566.804688 354.359375 566.804688 354.027344 C 566.804688 353.699219 566.835938 353.371094 566.902344 353.046875 C 566.964844 352.722656 567.0625 352.40625 567.1875 352.101562 C 567.316406 351.796875 567.46875 351.503906 567.652344 351.230469 C 567.835938 350.957031 568.046875 350.703125 568.28125 350.46875 C 568.515625 350.234375 568.769531 350.027344 569.042969 349.839844 C 569.316406 349.65625 569.609375 349.503906 569.914062 349.375 C 570.21875 349.25 570.535156 349.15625 570.859375 349.089844 C 571.183594 349.027344 571.507812 348.992188 571.839844 348.992188 C 572.171875 348.992188 572.5 349.027344 572.824219 349.089844 C 573.148438 349.15625 573.460938 349.25 573.765625 349.375 C 574.074219 349.503906 574.363281 349.65625 574.636719 349.839844 C 574.914062 350.027344 575.167969 350.234375 575.402344 350.46875 C 575.632812 350.703125 575.84375 350.957031 576.027344 351.230469 C 576.210938 351.503906 576.367188 351.796875 576.492188 352.101562 C 576.617188 352.40625 576.714844 352.722656 576.777344 353.046875 C 576.84375 353.371094 576.875 353.699219 576.875 354.027344 Z M 576.875 354.027344 " fill-opacity="1" fill-rule="nonzero"/><path fill="#0f3e5d" d="M 601.742188 382.167969 C 601.742188 382.496094 601.707031 382.824219 601.644531 383.148438 C 601.578125 383.472656 601.484375 383.789062 601.355469 384.09375 C 601.230469 384.398438 601.074219 384.6875 600.890625 384.964844 C 600.707031 385.238281 600.5 385.492188 600.265625 385.726562 C 600.03125 385.960938 599.777344 386.167969 599.503906 386.351562 C 599.226562 386.535156 598.9375 386.691406 598.632812 386.816406 C 598.328125 386.945312 598.011719 387.039062 597.6875 387.105469 C 597.363281 387.167969 597.035156 387.199219 596.707031 387.203125 C 596.375 387.199219 596.046875 387.167969 595.722656 387.105469 C 595.398438 387.039062 595.085938 386.945312 594.777344 386.816406 C 594.472656 386.691406 594.183594 386.535156 593.90625 386.351562 C 593.632812 386.167969 593.378906 385.960938 593.144531 385.726562 C 592.910156 385.492188 592.703125 385.238281 592.519531 384.964844 C 592.335938 384.6875 592.179688 384.398438 592.054688 384.09375 C 591.925781 383.789062 591.832031 383.472656 591.765625 383.148438 C 591.703125 382.824219 591.671875 382.496094 591.671875 382.167969 C 591.671875 381.835938 591.703125 381.507812 591.765625 381.183594 C 591.832031 380.859375 591.925781 380.546875 592.054688 380.238281 C 592.179688 379.933594 592.335938 379.644531 592.519531 379.371094 C 592.703125 379.09375 592.910156 378.839844 593.144531 378.605469 C 593.378906 378.371094 593.632812 378.164062 593.90625 377.980469 C 594.183594 377.796875 594.472656 377.640625 594.777344 377.515625 C 595.085938 377.386719 595.398438 377.292969 595.722656 377.230469 C 596.046875 377.164062 596.375 377.132812 596.707031 377.132812 C 597.035156 377.132812 597.363281 377.164062 597.6875 377.230469 C 598.011719 377.292969 598.328125 377.386719 598.632812 377.515625 C 598.9375 377.640625 599.226562 377.796875 599.503906 377.980469 C 599.777344 378.164062 600.03125 378.371094 600.265625 378.605469 C 600.5 378.839844 600.707031 379.09375 600.890625 379.371094 C 601.074219 379.644531 601.230469 379.933594 601.355469 380.238281 C 601.484375 380.546875 601.578125 380.859375 601.644531 381.183594 C 601.707031 381.507812 601.742188 381.835938 601.742188 382.167969 Z M 601.742188 382.167969 " fill-opacity="1" fill-rule="nonzero"/><path fill="#0f3e5d" d="M 614.285156 382.457031 C 614.285156 382.785156 614.25 383.113281 614.1875 383.4375 C 614.121094 383.761719 614.027344 384.078125 613.902344 384.382812 C 613.773438 384.6875 613.621094 384.980469 613.4375 385.253906 C 613.25 385.527344 613.042969 385.78125 612.808594 386.015625 C 612.574219 386.25 612.320312 386.457031 612.046875 386.640625 C 611.769531 386.824219 611.480469 386.980469 611.175781 387.109375 C 610.871094 387.234375 610.554688 387.328125 610.230469 387.394531 C 609.90625 387.457031 609.578125 387.492188 609.25 387.492188 C 608.917969 387.492188 608.589844 387.457031 608.265625 387.394531 C 607.941406 387.328125 607.628906 387.234375 607.324219 387.109375 C 607.015625 386.980469 606.726562 386.824219 606.453125 386.640625 C 606.175781 386.457031 605.921875 386.25 605.6875 386.015625 C 605.453125 385.78125 605.246094 385.527344 605.0625 385.253906 C 604.878906 384.980469 604.722656 384.6875 604.597656 384.382812 C 604.472656 384.078125 604.375 383.761719 604.3125 383.4375 C 604.246094 383.113281 604.214844 382.785156 604.214844 382.457031 C 604.214844 382.125 604.246094 381.796875 604.3125 381.472656 C 604.375 381.148438 604.472656 380.835938 604.597656 380.53125 C 604.722656 380.222656 604.878906 379.933594 605.0625 379.660156 C 605.246094 379.382812 605.453125 379.128906 605.6875 378.894531 C 605.921875 378.664062 606.175781 378.453125 606.453125 378.269531 C 606.726562 378.085938 607.015625 377.929688 607.324219 377.804688 C 607.628906 377.679688 607.941406 377.582031 608.265625 377.519531 C 608.589844 377.453125 608.917969 377.421875 609.25 377.421875 C 609.578125 377.421875 609.90625 377.453125 610.230469 377.519531 C 610.554688 377.582031 610.871094 377.679688 611.175781 377.804688 C 611.480469 377.929688 611.769531 378.085938 612.046875 378.269531 C 612.320312 378.453125 612.574219 378.664062 612.808594 378.894531 C 613.042969 379.128906 613.25 379.382812 613.4375 379.660156 C 613.621094 379.933594 613.773438 380.222656 613.902344 380.53125 C 614.027344 380.835938 614.121094 381.148438 614.1875 381.472656 C 614.25 381.796875 614.285156 382.125 614.285156 382.457031 Z M 614.285156 382.457031 " fill-opacity="1" fill-rule="nonzero"/><path fill="#0f3e5d" d="M 626.199219 380.0625 C 626.199219 380.394531 626.167969 380.722656 626.105469 381.046875 C 626.039062 381.371094 625.945312 381.683594 625.816406 381.992188 C 625.691406 382.296875 625.535156 382.585938 625.351562 382.859375 C 625.167969 383.136719 624.960938 383.390625 624.726562 383.625 C 624.492188 383.859375 624.238281 384.066406 623.964844 384.25 C 623.6875 384.433594 623.398438 384.589844 623.09375 384.714844 C 622.789062 384.839844 622.472656 384.9375 622.148438 385 C 621.824219 385.066406 621.496094 385.097656 621.167969 385.097656 C 620.835938 385.097656 620.507812 385.066406 620.183594 385 C 619.859375 384.9375 619.542969 384.839844 619.238281 384.714844 C 618.933594 384.589844 618.644531 384.433594 618.367188 384.25 C 618.09375 384.066406 617.839844 383.859375 617.605469 383.625 C 617.371094 383.390625 617.164062 383.136719 616.980469 382.859375 C 616.796875 382.585938 616.640625 382.296875 616.515625 381.992188 C 616.386719 381.683594 616.292969 381.371094 616.226562 381.046875 C 616.164062 380.722656 616.132812 380.394531 616.132812 380.0625 C 616.132812 379.734375 616.164062 379.40625 616.226562 379.082031 C 616.292969 378.757812 616.386719 378.441406 616.515625 378.136719 C 616.640625 377.832031 616.796875 377.542969 616.980469 377.265625 C 617.164062 376.992188 617.371094 376.738281 617.605469 376.503906 C 617.839844 376.269531 618.09375 376.0625 618.367188 375.878906 C 618.644531 375.695312 618.933594 375.539062 619.238281 375.414062 C 619.542969 375.285156 619.859375 375.191406 620.183594 375.125 C 620.507812 375.0625 620.835938 375.027344 621.167969 375.027344 C 621.496094 375.027344 621.824219 375.0625 622.148438 375.125 C 622.472656 375.191406 622.789062 375.285156 623.09375 375.414062 C 623.398438 375.539062 623.6875 375.695312 623.964844 375.878906 C 624.238281 376.0625 624.492188 376.269531 624.726562 376.503906 C 624.960938 376.738281 625.167969 376.992188 625.351562 377.265625 C 625.535156 377.542969 625.691406 377.832031 625.816406 378.136719 C 625.945312 378.441406 626.039062 378.757812 626.105469 379.082031 C 626.167969 379.40625 626.199219 379.734375 626.199219 380.0625 Z M 626.199219 380.0625 " fill-opacity="1" fill-rule="nonzero"/><path fill="#0f3e5d" d="M 637.417969 374.949219 C 637.417969 375.277344 637.382812 375.605469 637.320312 375.929688 C 637.253906 376.253906 637.160156 376.570312 637.035156 376.875 C 636.90625 377.179688 636.753906 377.46875 636.570312 377.746094 C 636.386719 378.019531 636.175781 378.273438 635.941406 378.507812 C 635.707031 378.742188 635.453125 378.949219 635.179688 379.132812 C 634.90625 379.316406 634.613281 379.472656 634.308594 379.597656 C 634.003906 379.726562 633.6875 379.820312 633.363281 379.886719 C 633.039062 379.949219 632.710938 379.984375 632.382812 379.984375 C 632.050781 379.984375 631.722656 379.949219 631.398438 379.886719 C 631.074219 379.820312 630.761719 379.726562 630.457031 379.597656 C 630.148438 379.472656 629.859375 379.316406 629.585938 379.132812 C 629.308594 378.949219 629.054688 378.742188 628.820312 378.507812 C 628.585938 378.273438 628.378906 378.019531 628.195312 377.746094 C 628.011719 377.46875 627.855469 377.179688 627.730469 376.875 C 627.605469 376.570312 627.507812 376.253906 627.445312 375.929688 C 627.378906 375.605469 627.347656 375.277344 627.347656 374.949219 C 627.347656 374.617188 627.378906 374.289062 627.445312 373.964844 C 627.507812 373.640625 627.605469 373.328125 627.730469 373.023438 C 627.855469 372.714844 628.011719 372.425781 628.195312 372.152344 C 628.378906 371.875 628.585938 371.621094 628.820312 371.386719 C 629.054688 371.15625 629.308594 370.945312 629.585938 370.761719 C 629.859375 370.578125 630.148438 370.421875 630.457031 370.296875 C 630.761719 370.171875 631.074219 370.074219 631.398438 370.011719 C 631.722656 369.945312 632.050781 369.914062 632.382812 369.914062 C 632.710938 369.914062 633.039062 369.945312 633.363281 370.011719 C 633.6875 370.074219 634.003906 370.171875 634.308594 370.296875 C 634.613281 370.421875 634.90625 370.578125 635.179688 370.761719 C 635.453125 370.945312 635.707031 371.15625 635.941406 371.386719 C 636.175781 371.621094 636.386719 371.875 636.570312 372.152344 C 636.753906 372.425781 636.90625 372.714844 637.035156 373.023438 C 637.160156 373.328125 637.253906 373.640625 637.320312 373.964844 C 637.382812 374.289062 637.417969 374.617188 637.417969 374.949219 Z M 637.417969 374.949219 " fill-opacity="1" fill-rule="nonzero"/><path fill="#0f3e5d" d="M 590.253906 378.582031 C 590.253906 378.910156 590.222656 379.238281 590.15625 379.5625 C 590.09375 379.886719 589.996094 380.203125 589.871094 380.507812 C 589.746094 380.8125 589.589844 381.101562 589.40625 381.378906 C 589.222656 381.652344 589.015625 381.90625 588.78125 382.140625 C 588.546875 382.375 588.292969 382.582031 588.015625 382.765625 C 587.742188 382.949219 587.453125 383.105469 587.148438 383.230469 C 586.839844 383.359375 586.527344 383.453125 586.203125 383.519531 C 585.878906 383.582031 585.550781 383.617188 585.21875 383.617188 C 584.890625 383.617188 584.5625 383.582031 584.238281 383.519531 C 583.914062 383.453125 583.597656 383.359375 583.292969 383.230469 C 582.988281 383.105469 582.699219 382.949219 582.421875 382.765625 C 582.148438 382.582031 581.894531 382.375 581.660156 382.140625 C 581.425781 381.90625 581.21875 381.652344 581.03125 381.378906 C 580.847656 381.101562 580.695312 380.8125 580.566406 380.507812 C 580.441406 380.203125 580.347656 379.886719 580.28125 379.5625 C 580.21875 379.238281 580.183594 378.910156 580.183594 378.582031 C 580.183594 378.25 580.21875 377.921875 580.28125 377.597656 C 580.347656 377.273438 580.441406 376.960938 580.566406 376.652344 C 580.695312 376.347656 580.847656 376.058594 581.03125 375.785156 C 581.21875 375.507812 581.425781 375.253906 581.660156 375.019531 C 581.894531 374.789062 582.148438 374.578125 582.421875 374.394531 C 582.699219 374.210938 582.988281 374.054688 583.292969 373.929688 C 583.597656 373.804688 583.914062 373.707031 584.238281 373.644531 C 584.5625 373.578125 584.890625 373.546875 585.21875 373.546875 C 585.550781 373.546875 585.878906 373.578125 586.203125 373.644531 C 586.527344 373.707031 586.839844 373.804688 587.148438 373.929688 C 587.453125 374.054688 587.742188 374.210938 588.015625 374.394531 C 588.292969 374.578125 588.546875 374.789062 588.78125 375.019531 C 589.015625 375.253906 589.222656 375.507812 589.40625 375.785156 C 589.589844 376.058594 589.746094 376.347656 589.871094 376.65625 C 589.996094 376.960938 590.09375 377.273438 590.15625 377.597656 C 590.222656 377.921875 590.253906 378.25 590.253906 378.582031 Z M 590.253906 378.582031 " fill-opacity="1" fill-rule="nonzero"/><path fill="#0f3e5d" d="M 580.003906 373.167969 C 580.003906 373.5 579.96875 373.828125 579.90625 374.152344 C 579.839844 374.476562 579.746094 374.789062 579.621094 375.09375 C 579.492188 375.402344 579.335938 375.691406 579.152344 375.964844 C 578.96875 376.242188 578.761719 376.496094 578.527344 376.730469 C 578.292969 376.960938 578.039062 377.171875 577.765625 377.355469 C 577.488281 377.539062 577.199219 377.695312 576.894531 377.820312 C 576.589844 377.945312 576.273438 378.042969 575.949219 378.105469 C 575.625 378.171875 575.296875 378.203125 574.96875 378.203125 C 574.636719 378.203125 574.308594 378.171875 573.984375 378.105469 C 573.660156 378.042969 573.347656 377.945312 573.039062 377.820312 C 572.734375 377.695312 572.445312 377.539062 572.171875 377.355469 C 571.894531 377.171875 571.640625 376.960938 571.40625 376.730469 C 571.171875 376.496094 570.964844 376.242188 570.78125 375.964844 C 570.597656 375.691406 570.441406 375.402344 570.316406 375.09375 C 570.191406 374.789062 570.09375 374.476562 570.03125 374.152344 C 569.964844 373.828125 569.933594 373.5 569.933594 373.167969 C 569.933594 372.839844 569.964844 372.511719 570.03125 372.1875 C 570.09375 371.863281 570.191406 371.546875 570.316406 371.242188 C 570.441406 370.9375 570.597656 370.648438 570.78125 370.371094 C 570.964844 370.097656 571.171875 369.84375 571.40625 369.609375 C 571.640625 369.375 571.894531 369.167969 572.171875 368.984375 C 572.445312 368.800781 572.734375 368.644531 573.039062 368.515625 C 573.347656 368.390625 573.660156 368.296875 573.984375 368.230469 C 574.308594 368.167969 574.636719 368.132812 574.96875 368.132812 C 575.296875 368.132812 575.625 368.167969 575.949219 368.230469 C 576.273438 368.296875 576.589844 368.390625 576.894531 368.515625 C 577.199219 368.644531 577.488281 368.800781 577.765625 368.984375 C 578.039062 369.167969 578.292969 369.375 578.527344 369.609375 C 578.761719 369.84375 578.96875 370.097656 579.152344 370.371094 C 579.335938 370.648438 579.492188 370.9375 579.621094 371.242188 C 579.746094 371.546875 579.839844 371.863281 579.90625 372.1875 C 579.96875 372.511719 580.003906 372.839844 580.003906 373.167969 Z M 580.003906 373.167969 " fill-opacity="1" fill-rule="nonzero"/><path fill="#0f3e5d" d="M 571.167969 362.359375 C 571.167969 362.6875 571.132812 363.015625 571.070312 363.339844 C 571.003906 363.664062 570.910156 363.980469 570.78125 364.285156 C 570.65625 364.589844 570.5 364.878906 570.316406 365.15625 C 570.132812 365.429688 569.925781 365.683594 569.691406 365.917969 C 569.457031 366.152344 569.203125 366.359375 568.929688 366.542969 C 568.652344 366.726562 568.363281 366.882812 568.058594 367.007812 C 567.753906 367.136719 567.4375 367.230469 567.113281 367.296875 C 566.789062 367.359375 566.460938 367.394531 566.132812 367.394531 C 565.800781 367.394531 565.472656 367.359375 565.148438 367.296875 C 564.824219 367.230469 564.507812 367.136719 564.203125 367.007812 C 563.898438 366.882812 563.609375 366.726562 563.332031 366.542969 C 563.058594 366.359375 562.804688 366.152344 562.570312 365.917969 C 562.335938 365.683594 562.128906 365.429688 561.945312 365.15625 C 561.761719 364.878906 561.605469 364.589844 561.480469 364.285156 C 561.351562 363.980469 561.257812 363.664062 561.191406 363.339844 C 561.128906 363.015625 561.097656 362.6875 561.097656 362.359375 C 561.097656 362.027344 561.128906 361.699219 561.191406 361.375 C 561.257812 361.050781 561.351562 360.738281 561.480469 360.429688 C 561.605469 360.125 561.761719 359.835938 561.945312 359.5625 C 562.128906 359.285156 562.335938 359.03125 562.570312 358.796875 C 562.804688 358.566406 563.058594 358.355469 563.332031 358.171875 C 563.609375 357.988281 563.898438 357.832031 564.203125 357.707031 C 564.507812 357.582031 564.824219 357.484375 565.148438 357.421875 C 565.472656 357.355469 565.800781 357.324219 566.132812 357.324219 C 566.460938 357.324219 566.789062 357.355469 567.113281 357.421875 C 567.4375 357.484375 567.753906 357.582031 568.058594 357.707031 C 568.363281 357.832031 568.652344 357.988281 568.929688 358.171875 C 569.203125 358.355469 569.457031 358.566406 569.691406 358.796875 C 569.925781 359.03125 570.132812 359.285156 570.316406 359.5625 C 570.5 359.835938 570.65625 360.125 570.78125 360.429688 C 570.910156 360.738281 571.003906 361.050781 571.070312 361.375 C 571.132812 361.699219 571.167969 362.027344 571.167969 362.359375 Z M 571.167969 362.359375 " fill-opacity="1" fill-rule="nonzero"/><path stroke-linecap="butt" transform="matrix(0.674035, 0, 0, 0.673979, -190.2573, 0.0000199704)" fill="none" stroke-linejoin="miter" d="M 1052.74288 710.59993 C 1052.74288 710.59993 1065.718609 698.509889 1051.427342 692.389524 C 1037.14187 686.269158 1034.221027 689.439461 1034.221027 689.439461 " stroke="#754c29" stroke-width="1" stroke-opacity="1" stroke-miterlimit="10"/><path fill="#be9e7d" d="M 632.441406 486.355469 C 663.988281 463.117188 668.402344 421.957031 668.402344 421.957031 L 630.300781 411.230469 L 612.585938 453.621094 C 612.585938 453.621094 582.738281 454.585938 543.902344 462.789062 C 538.757812 463.871094 533.453125 465.085938 528.042969 466.449219 C 528.042969 466.449219 509.695312 455.460938 496.394531 456.609375 L 486.992188 451.796875 C 486.992188 451.796875 482.867188 452.484375 485.386719 456.378906 C 487.910156 460.273438 492.269531 465.320312 492.269531 465.320312 C 492.269531 465.320312 472.546875 471.515625 465.902344 476.328125 C 459.25 481.140625 467.964844 481.140625 467.964844 481.140625 L 474.617188 480.910156 C 474.617188 480.910156 473.949219 485.730469 479.253906 486.257812 C 479.253906 486.257812 481.378906 490.320312 484.558594 490.503906 C 484.558594 490.503906 485.800781 494.390625 490.746094 494.390625 C 495.695312 494.390625 506.660156 495.449219 506.660156 495.449219 L 520.984375 493.324219 C 520.984375 493.324219 526.625 488.601562 530.46875 487.960938 C 530.46875 487.960938 612.464844 496.777344 632.4375 486.351562 " fill-opacity="1" fill-rule="nonzero"/><path stroke-linecap="butt" transform="matrix(0.674035, 0, 0, 0.673979, -190.2573, 0.0000199704)" fill="none" stroke-linejoin="miter" d="M 1019.477725 706.322629 L 986.39802 713.538401 C 986.39802 713.538401 966.861986 717.479546 970.947689 708.177285 C 975.039187 698.880821 1012.587086 690.40736 1012.587086 690.40736 L 1032.157892 684.970899 " stroke="#754c29" stroke-width="1" stroke-opacity="1" stroke-miterlimit="10"/><path stroke-linecap="butt" transform="matrix(0.674035, 0, 0, 0.673979, -190.2573, 0.0000199704)" fill="none" stroke-linejoin="miter" d="M 993.288659 721.478648 C 993.288659 721.478648 1018.098438 717.798315 1023.661948 715.022126 " stroke="#754c29" stroke-width="1" stroke-opacity="1" stroke-miterlimit="10"/><path stroke-linecap="butt" transform="matrix(0.674035, 0, 0, 0.673979, -190.2573, 0.0000199704)" fill="none" stroke-linejoin="miter" d="M 1001.158708 727.778684 C 1001.158708 727.778684 1020.178959 727.187512 1028.877739 723.710032 " stroke="#754c29" stroke-width="1" stroke-opacity="1" stroke-miterlimit="10"/><path stroke-linecap="butt" transform="matrix(0.674035, 0, 0, 0.673979, -190.2573, 0.0000199704)" fill-opacity="1" fill="#59bede" fill-rule="nonzero" stroke-linejoin="miter" d="M 1266.509172 506.089301 C 1266.509172 506.089301 1242.452785 507.289032 1231.621326 533.758454 C 1220.789867 560.227877 1206.347922 605.95095 1206.347922 605.95095 L 1292.982208 632.420372 L 1302.60824 601.140435 " stroke="#2e3192" stroke-width="1" stroke-opacity="1" stroke-miterlimit="10"/><path stroke-linecap="butt" transform="matrix(0.674035, 0, 0, 0.673979, -190.2573, 0.0000199704)" fill-opacity="1" fill="#59bede" fill-rule="nonzero" stroke-linejoin="miter" d="M 1103.967742 569.431609 C 1103.967742 569.431609 1105.810655 615.409697 1109.878972 637.219295 " stroke="#2e3192" stroke-width="1" stroke-opacity="1" stroke-miterlimit="10"/><path stroke-linecap="butt" transform="matrix(0.674035, 0, 0, 0.673979, -190.2573, 0.0000199704)" fill="none" stroke-linejoin="miter" d="M 910.369175 644.498821 L 950.948028 655.110933 L 1024.722493 634.159113 L 1055.020442 636.941097 L 1096.381664 660.958896 L 1108.030264 676.990081 C 1108.030264 676.990081 1108.482299 683.678435 1101.319279 682.200506 C 1094.162055 680.722577 1090.319756 674.880409 1090.319756 674.880409 C 1090.319756 674.880409 1091.461435 672.278095 1087.109147 662.767186 C 1082.762654 653.262072 1050.111803 650.230868 1050.111803 650.230868 " stroke="#754c29" stroke-width="1" stroke-opacity="1" stroke-miterlimit="10"/><path stroke-linecap="butt" transform="matrix(0.674035, 0, 0, 0.673979, -190.2573, 0.0000199704)" fill="none" stroke-linejoin="miter" d="M 1089.201258 686.657477 L 1065.672246 692.088142 C 1065.672246 692.088142 1044.258527 674.689148 1018.718538 677.48852 C 1018.718538 677.48852 1008.808535 668.591965 1004.769195 670.348093 C 994.772262 674.700739 1012.587086 690.418951 1012.587086 690.418951 " stroke="#754c29" stroke-width="1" stroke-opacity="1" stroke-miterlimit="10"/><path stroke-linecap="butt" transform="matrix(0.674035, 0, 0, 0.673979, -190.2573, 0.0000199704)" fill="none" stroke-linejoin="miter" d="M 1068.477183 591.838175 L 1048.581838 630.84971 L 926.480174 630.73959 L 913.000252 625.842138 " stroke="#754c29" stroke-width="1" stroke-opacity="1" stroke-miterlimit="10"/></svg>