<?xml version="1.0" encoding="utf-8"?>
<!-- Generator: Adobe Illustrator 27.0.0, SVG Export Plug-In . SVG Version: 6.00 Build 0)  -->
<svg version="1.1" xmlns="http://www.w3.org/2000/svg" xmlns:xlink="http://www.w3.org/1999/xlink" x="0px" y="0px"
	 viewBox="0 0 1334 1000" style="enable-background:new 0 0 1334 1000;" xml:space="preserve">
<style type="text/css">
	.st0{fill:#8DD5E7;}
	.st1{clip-path:url(#SVGID_00000139977193406585682870000014201904741236802721_);}
	.st2{fill:#F4C470;}
	.st3{fill:#CE8D50;stroke:#CB8B2A;stroke-width:5;stroke-miterlimit:10;}
	.st4{fill:#B6E4F6;}
	.st5{fill:#F9EDDE;}
	.st6{fill:#E96D42;}
	.st7{fill:#E6E7E8;}
	.st8{fill:none;stroke:#414042;stroke-width:0.8;stroke-miterlimit:10;}
	.st9{fill:#414042;}
	.st10{fill:#D1D3D4;}
	.st11{fill:#FFFFFF;}
	.st12{opacity:0.8;fill:#FFFFFF;}
	.st13{fill:#A7A9AC;}
	.st14{fill:#323233;}
	.st15{fill:#48494A;}
	.st16{fill:#808285;}
	.st17{fill:#8B5E3C;}
	.st18{fill:#6CA442;}
	.st19{fill:#9ECB54;}
	.st20{fill:#00A151;}
	.st21{fill:#0E8E81;}
	.st22{fill:#00714F;}
	.st23{fill:#017D75;}
	.st24{fill:#016041;}
	.st25{fill:#288348;}
	.st26{clip-path:url(#SVGID_00000153667556096830535110000014255295988045753520_);}
	.st27{fill:#ABAAAA;}
	.st28{fill:#7E2519;}
	.st29{fill:#BAE1EA;}
	.st30{fill:#BCBEC0;}
	.st31{fill:none;stroke:#461A15;stroke-miterlimit:10;}
	.st32{fill:#58595B;}
	.st33{fill:#27AAE1;}
	.st34{fill:#ED1C24;}
	.st35{fill:#C5C3C3;}
	.st36{fill:#6F6E6F;}
	.st37{fill:#575556;}
	.st38{fill:#BE9E7D;}
	.st39{fill:#C6837E;}
	.st40{fill:#803435;}
	.st41{fill:none;stroke:#000000;stroke-miterlimit:10;}
	.st42{fill:#3C2415;}
	.st43{fill:#26130F;}
	.st44{fill:none;stroke:#000000;stroke-width:0.8;stroke-miterlimit:10;}
	.st45{fill:none;stroke:#58595B;stroke-width:0.8;stroke-miterlimit:10;}
	.st46{fill:#F6AC1B;}
	.st47{fill:none;stroke:#000000;stroke-width:0.5;stroke-miterlimit:10;}
	.st48{fill:#BE9E7D;stroke:#603913;stroke-width:0.5;stroke-miterlimit:10;}
	.st49{fill:#9054A2;}
	.st50{fill:none;stroke:#000000;stroke-width:0.2;stroke-miterlimit:10;}
	.st51{fill:none;stroke:#FFFFFF;stroke-linecap:round;stroke-miterlimit:10;}
	.st52{fill:#EF4136;}
	.st53{fill:#59BEDE;}
	.st54{fill:#BE8C8C;}
	.st55{fill:none;stroke:#000000;stroke-width:0.7;stroke-miterlimit:10;}
	.st56{fill:#0F3E5D;}
	.st57{fill:#F16225;}
	.st58{fill:#1FA8DF;}
	.st59{fill:none;stroke:#2E3192;stroke-miterlimit:10;}
	.st60{stroke:#000000;stroke-width:2;stroke-miterlimit:10;}
	.st61{fill:none;stroke:#754C29;stroke-width:0.7;stroke-miterlimit:10;}
	.st62{fill:#F05380;}
	.st63{fill:none;stroke:#000000;stroke-width:0.5;stroke-linecap:round;stroke-miterlimit:10;}
</style>
<g id="fondo">
</g>
<g id="Layer_1">
	<rect x="-0.05" y="0.12" class="st0" width="1333.99" height="434.99"/>
	<g>
		<defs>
			<rect id="SVGID_1_" x="546.6" y="87.25" width="786.44" height="352.41"/>
		</defs>
		<clipPath id="SVGID_00000079447457643805487720000010337120731717730189_">
			<use xlink:href="#SVGID_1_"  style="overflow:visible;"/>
		</clipPath>
		<g style="clip-path:url(#SVGID_00000079447457643805487720000010337120731717730189_);">
			<rect x="587.52" y="199.6" class="st2" width="784.68" height="216.01"/>
			<path class="st3" d="M1008.18,412.18V264.73c0,0,34.65-24.17,74.93,0l-0.91,147.34L1008.18,412.18z"/>
			<path class="st4" d="M884.71,361.05V256.62c0,0,47.36-17.12,102.42,0l-1.25,104.35L884.71,361.05z"/>
			<path class="st4" d="M579.83,361.05V256.62c0,0,33.98-17.12,73.49,0l-0.9,104.35L579.83,361.05z"/>
			<path class="st4" d="M1182.45,361.05V256.62c0,0,47.36-17.12,102.42,0l-1.25,104.35L1182.45,361.05z"/>
			<rect x="569.45" y="200.5" class="st5" width="23.57" height="233.86"/>
			<rect x="832.55" y="200.5" class="st5" width="23.57" height="233.86"/>
			<rect x="1101.3" y="200.5" class="st5" width="23.57" height="233.86"/>
			<rect x="1370.04" y="200.5" class="st6" width="23.57" height="233.86"/>
			<polygon class="st5" points="510.05,202.39 1452.08,202.39 1452.08,192.85 981.88,120.05 512.17,186.78 			"/>
			<polygon class="st3" points="512.17,186.78 482.31,177.49 991.45,106.09 1492.59,187.5 1452.08,192.85 981.88,120.05 			"/>
			<polygon class="st7" points="482.31,177.49 482.31,163.19 991.11,91.15 1496.91,173.05 1492.59,187.5 991.45,106.09 			"/>
			<rect x="569.45" y="414.68" class="st5" width="824.16" height="19.68"/>
			<g>
				<line class="st8" x1="1174.62" y1="242.87" x2="1174.62" y2="362.14"/>
				<circle class="st9" cx="1174.65" cy="245.35" r="2.46"/>
				<circle class="st9" cx="1174.74" cy="364.6" r="2.46"/>
				<line class="st8" x1="1187.28" y1="242.87" x2="1187.28" y2="362.14"/>
				<circle class="st9" cx="1187.31" cy="245.35" r="2.46"/>
				<circle class="st9" cx="1187.4" cy="364.6" r="2.46"/>
				<line class="st8" x1="1201.02" y1="242.87" x2="1201.02" y2="362.14"/>
				<circle class="st9" cx="1201.05" cy="245.35" r="2.46"/>
				<circle class="st9" cx="1201.14" cy="364.6" r="2.46"/>
				<line class="st8" x1="1213.41" y1="242.87" x2="1213.41" y2="362.14"/>
				<circle class="st9" cx="1213.45" cy="245.35" r="2.46"/>
				<circle class="st9" cx="1213.53" cy="364.6" r="2.46"/>
				<line class="st8" x1="1226.07" y1="242.87" x2="1226.07" y2="362.14"/>
				<circle class="st9" cx="1226.11" cy="245.35" r="2.46"/>
				<circle class="st9" cx="1226.2" cy="364.6" r="2.46"/>
				<line class="st8" x1="1239.81" y1="242.87" x2="1239.81" y2="362.14"/>
				<circle class="st9" cx="1239.85" cy="245.35" r="2.46"/>
				<circle class="st9" cx="1239.94" cy="364.6" r="2.46"/>
				<line class="st8" x1="1252.48" y1="242.87" x2="1252.48" y2="362.14"/>
				<circle class="st9" cx="1252.51" cy="245.35" r="2.46"/>
				<circle class="st9" cx="1252.6" cy="364.6" r="2.46"/>
				<line class="st8" x1="1265.14" y1="242.87" x2="1265.14" y2="362.14"/>
				<circle class="st9" cx="1265.17" cy="245.35" r="2.46"/>
				<circle class="st9" cx="1265.26" cy="364.6" r="2.46"/>
				<line class="st8" x1="1278.88" y1="242.87" x2="1278.88" y2="362.14"/>
				<circle class="st9" cx="1278.91" cy="245.35" r="2.46"/>
				<circle class="st9" cx="1279" cy="364.6" r="2.46"/>
				<line class="st8" x1="1291.81" y1="242.87" x2="1291.81" y2="362.14"/>
				<circle class="st9" cx="1291.85" cy="245.35" r="2.46"/>
				<circle class="st9" cx="1291.93" cy="364.6" r="2.46"/>
			</g>
			<g>
				<line class="st8" x1="877.59" y1="242.87" x2="877.59" y2="362.14"/>
				<circle class="st9" cx="877.62" cy="245.35" r="2.46"/>
				<circle class="st9" cx="877.71" cy="364.6" r="2.46"/>
				<line class="st8" x1="890.25" y1="242.87" x2="890.25" y2="362.14"/>
				<circle class="st9" cx="890.28" cy="245.35" r="2.46"/>
				<circle class="st9" cx="890.37" cy="364.6" r="2.46"/>
				<line class="st8" x1="903.99" y1="242.87" x2="903.99" y2="362.14"/>
				<circle class="st9" cx="904.02" cy="245.35" r="2.46"/>
				<circle class="st9" cx="904.11" cy="364.6" r="2.46"/>
				<line class="st8" x1="916.38" y1="242.87" x2="916.38" y2="362.14"/>
				<circle class="st9" cx="916.42" cy="245.35" r="2.46"/>
				<circle class="st9" cx="916.5" cy="364.6" r="2.46"/>
				<line class="st8" x1="929.04" y1="242.87" x2="929.04" y2="362.14"/>
				<circle class="st9" cx="929.08" cy="245.35" r="2.46"/>
				<circle class="st9" cx="929.17" cy="364.6" r="2.46"/>
				<line class="st8" x1="942.78" y1="242.87" x2="942.78" y2="362.14"/>
				<circle class="st9" cx="942.82" cy="245.35" r="2.46"/>
				<circle class="st9" cx="942.91" cy="364.6" r="2.46"/>
				<line class="st8" x1="955.45" y1="242.87" x2="955.45" y2="362.14"/>
				<circle class="st9" cx="955.48" cy="245.35" r="2.46"/>
				<circle class="st9" cx="955.57" cy="364.6" r="2.46"/>
				<line class="st8" x1="968.11" y1="242.87" x2="968.11" y2="362.14"/>
				<circle class="st9" cx="968.14" cy="245.35" r="2.46"/>
				<circle class="st9" cx="968.23" cy="364.6" r="2.46"/>
				<line class="st8" x1="981.85" y1="242.87" x2="981.85" y2="362.14"/>
				<circle class="st9" cx="981.88" cy="245.35" r="2.46"/>
				<circle class="st9" cx="981.97" cy="364.6" r="2.46"/>
				<line class="st8" x1="994.78" y1="242.87" x2="994.78" y2="362.14"/>
				<circle class="st9" cx="994.82" cy="245.35" r="2.46"/>
				<circle class="st9" cx="994.9" cy="364.6" r="2.46"/>
			</g>
			<g>
				<line class="st8" x1="605.25" y1="242.87" x2="605.25" y2="362.14"/>
				<circle class="st9" cx="605.28" cy="245.35" r="2.46"/>
				<circle class="st9" cx="605.37" cy="364.6" r="2.46"/>
				<line class="st8" x1="617.91" y1="242.87" x2="617.91" y2="362.14"/>
				<circle class="st9" cx="617.95" cy="245.35" r="2.46"/>
				<circle class="st9" cx="618.03" cy="364.6" r="2.46"/>
				<line class="st8" x1="630.57" y1="242.87" x2="630.57" y2="362.14"/>
				<circle class="st9" cx="630.61" cy="245.35" r="2.46"/>
				<circle class="st9" cx="630.7" cy="364.6" r="2.46"/>
				<line class="st8" x1="644.31" y1="242.87" x2="644.31" y2="362.14"/>
				<circle class="st9" cx="644.35" cy="245.35" r="2.46"/>
				<circle class="st9" cx="644.44" cy="364.6" r="2.46"/>
				<line class="st8" x1="657.25" y1="242.87" x2="657.25" y2="362.14"/>
				<circle class="st9" cx="657.28" cy="245.35" r="2.46"/>
				<circle class="st9" cx="657.37" cy="364.6" r="2.46"/>
			</g>
		</g>
	</g>
	<rect x="458.62" y="490.76" class="st10" width="874.16" height="508.9"/>
	<path class="st11" d="M530.15,85.48l-92.77-1.84c0,0-21.27-6.75-20.21-19.29c1.84-21.62,19.29-20.21,19.29-20.21
		s0.92-24.8,28.47-24.8c0,0,21.12-1.84,21.12,24.8c0,0,11.02-17.45,29.39-6.43c0,0,12.86,13.78,1.84,21.12
		c0,0,23.88-16.53,30.31,4.59C547.6,63.44,553.11,86.4,530.15,85.48"/>
	<path class="st11" d="M263.22,102.83l-92.77-1.84c0,0-21.27-6.75-20.21-19.29c1.84-21.62,19.29-20.21,19.29-20.21
		s0.92-24.8,28.47-24.8c0,0,21.12-1.84,21.12,24.8c0,0,11.02-17.45,29.39-6.43c0,0,12.86,13.78,1.84,21.12
		c0,0,23.88-16.53,30.31,4.59C280.67,80.79,286.18,103.75,263.22,102.83"/>
	<path class="st12" d="M937.4,51.05l-57.68-1.14c0,0-13.23-4.2-12.56-11.99c1.14-13.44,11.99-12.56,11.99-12.56
		s0.57-15.42,17.7-15.42c0,0,13.13-1.14,13.13,15.42c0,0,6.85-10.85,18.27-4c0,0,7.99,8.57,1.14,13.13c0,0,14.85-10.28,18.84,2.86
		C948.25,37.35,951.68,51.63,937.4,51.05"/>
	<path class="st12" d="M811.16,85.75l-57.68-1.14c0,0-13.23-4.2-12.56-11.99c1.14-13.44,11.99-12.56,11.99-12.56
		s0.57-15.42,17.7-15.42c0,0,13.13-1.14,13.13,15.42c0,0,6.85-10.85,18.27-4c0,0,7.99,8.57,1.14,13.13c0,0,14.85-10.28,18.84,2.86
		C822.01,72.04,825.44,86.32,811.16,85.75"/>
	<rect x="502.64" y="529.58" class="st13" width="831.3" height="9.94"/>
	<polygon class="st14" points="-0.01,870.61 297.77,721.93 763.5,999.68 -0.35,999.32 	"/>
	<polygon class="st15" points="511.56,813.56 517.17,854.24 763.5,999.68 842.37,999.68 	"/>
	<polygon class="st16" points="514.36,768.68 511.56,813.56 842.37,999.68 998.61,999.68 	"/>
	<g>
		<g>
			<path class="st17" d="M489.21,478c0,0,10.44-119.44,5.22-178.83l-53.7-79.26l11.02-5.22l49.39,68.34l2.98-65.21h11.19
				l-2.98,105.88l2.24,155.59C514.57,479.29,502.64,485.1,489.21,478z"/>
			<path class="st18" d="M315.84,208.02c0,0-86.84,30.32-27.57,79.95c0,0,68.92,9.65,103.38-37.22c0,0,28.95,28.95,66.16,6.89
				c0,0,23.43,28.95,60.65,8.27c0,0,51,38.59,90.97,8.27c0,0,37.22,23.43,57.89,1.38c0,0,70.3,27.57,68.92-17.92
				c-1.38-45.49-34.46-52.38-34.46-52.38s56.51-20.68,15.16-74.43S617.7,107.4,617.7,107.4L315.84,208.02z"/>
			<path class="st19" d="M336.01,94.81c0,0-41.08,31.12-37.34,72.2s26.14,74.69,94.6,48.55c0,0,49.79,56.02,156.84,14.94
				c0,0,83.4,36.1,107.05-19.92c23.65-56.02-19.92-47.3-19.92-47.3s57.26-143.15-68.46-120.75c0,0-16.18-27.39-70.95-12.45
				c0,0-7.47-9.96-27.39-2.49c0,0-23.65-58.51-67.22,4.98C403.22,32.57,332.27,20.12,336.01,94.81z"/>
		</g>
	</g>
	<rect x="430.72" y="435.11" class="st18" width="903.22" height="58.11"/>
	<path class="st20" d="M472.89,445.58c0,0-36.23-38.71,6.25-41.38c0,0-23.81-56.68,26.6-53.83c0,0,95.53-59.41,114.65,18.47
		c0,0,60.51-40.67,80.08,3.25l4.16,72.31c0,0-64.17,16.23-141.26,11.4C563.38,455.8,507.58,452.72,472.89,445.58z"/>
	<path class="st18" d="M558.27,463.26c0,0,151.96,13.41,219,1.28c0,0-1.28-3.19-7.02-5.11l9.58-3.19c0,0-14.05-14.69-36.39-8.3
		l16.6-7.02c0,0-10.22-16.6-35.12,2.55c0,0,5.11-14.69,12.13-19.79c0,0-25.54,3.19-33.2,15.32c0,0-1.92-19.79,15.96-27.46
		c0,0-24.26,1.28-31.29,14.69l-46.61-1.28c0,0-10.22-17.88-23.62-15.96c0,0,15.32,8.3,14.69,24.9c0,0-17.88-14.69-26.18-10.22
		c0,0,12.13,14.05,8.94,21.71c0,0-22.99-17.24-35.12-3.19c0,0,15.96,1.92,15.96,9.58C596.58,451.77,569.12,441.55,558.27,463.26z"/>
	<g>
		<path class="st21" d="M724.82,410.7c0,0,11.02,35.61-22.19,69.06c0,0-26.78-19.96-2.38-49.64
			C700.25,430.12,714.62,416.46,724.82,410.7z"/>
		<path class="st22" d="M695.88,470.56c0,0,33.07-25.42,56.77-16.04c0,0,4.44,37.02-36.53,25.18
			C716.12,479.69,703.53,471.55,695.88,470.56z"/>
		<path class="st23" d="M757.55,428.04c0,0-37.27,0.44-58.85,36.84c0,0,27.25,16.78,47.96-11.34
			C746.65,453.55,753.19,434.8,757.55,428.04z"/>
		<path class="st22" d="M659.7,406.2c0,0-22.71,53.35,30.63,57.31C690.33,463.51,708.29,426.27,659.7,406.2z"/>
		<path class="st21" d="M626.95,417.82c0,0-23.24,30.9,37.24,39.08l9.51,0.53C673.7,457.44,663.13,427.86,626.95,417.82z"/>
		<path class="st23" d="M670.29,450.46c0,0-68.93-3.96-69.72,10.56s40.67,11.62,40.67,11.62s22.45-3.43,36.44-16.64"/>
		<path class="st21" d="M712.01,457.63c0,0-35.88-3.7-53.7-0.46c0,0-25.92,25.46,2.55,34.95c0,0,14.81,5.55,29.16-21.06
			C690.02,471.06,699.51,459.48,712.01,457.63z"/>
		<path class="st24" d="M712.01,457.63c0,0,6.15,4.23,5.78,13.92c0,0-18.84,4.76-29.08,1.28
			C688.71,472.83,695.07,459.44,712.01,457.63z"/>
	</g>
	<g>
		<path class="st21" d="M1299.38,391.99c0,0,11.02,35.61-22.19,69.06c0,0-26.78-19.96-2.38-49.64
			C1274.82,411.42,1289.19,397.75,1299.38,391.99z"/>
		<path class="st22" d="M1270.45,451.85c0,0,33.07-25.42,56.77-16.04c0,0,4.44,37.02-36.53,25.18
			C1290.69,460.99,1278.1,452.84,1270.45,451.85z"/>
		<path class="st23" d="M1332.12,409.34c0,0-37.27,0.44-58.85,36.84c0,0,27.25,16.78,47.96-11.34
			C1321.22,434.84,1327.76,416.09,1332.12,409.34z"/>
		<path class="st22" d="M1234.27,387.5c0,0-22.71,53.35,30.63,57.31C1264.9,444.8,1282.86,407.57,1234.27,387.5z"/>
		<path class="st21" d="M1201.52,399.12c0,0-23.24,30.9,37.24,39.08l9.51,0.53C1248.26,438.73,1237.7,409.15,1201.52,399.12z"/>
		<path class="st23" d="M1244.86,431.76c0,0-68.93-3.96-69.72,10.56c-0.79,14.52,40.67,11.62,40.67,11.62s22.45-3.43,36.44-16.64"/>
		<path class="st21" d="M1286.58,438.93c0,0-35.88-3.7-53.7-0.46c0,0-25.92,25.46,2.55,34.95c0,0,14.81,5.55,29.16-21.06
			C1264.59,452.35,1274.08,440.78,1286.58,438.93z"/>
		<path class="st24" d="M1286.58,438.93c0,0,6.15,4.23,5.78,13.92c0,0-18.84,4.76-29.08,1.28
			C1263.28,454.13,1269.64,440.73,1286.58,438.93z"/>
	</g>
	<path class="st25" d="M551.3,462.26c0,0,6.03,3.49,12.38,0.95c0,0-3.18-17.78,1.27-22.86c0,0-5.08,5.4-5.4,13.34
		c0,0-6.67-29.21,5.4-50.17c0,0-8.57,10.48-10.16,24.13c0,0-9.21-15.24-0.64-34.29c0,0-10.16,16.51-6.35,43.5
		c0,0-1.91-23.81-10.48-25.72c0,0,8.57,12.7,9.21,34.61c0,0-0.95-7.62-5.4-10.16C541.14,435.59,554.79,456.86,551.3,462.26z"/>
	<g>
		<defs>
			<rect id="SVGID_00000106144060225415152500000015480541153407206044_" x="-0.42" y="65.78" width="602.67" height="933.89"/>
		</defs>
		<clipPath id="SVGID_00000163770718512924975090000003663805556619524252_">
			<use xlink:href="#SVGID_00000106144060225415152500000015480541153407206044_"  style="overflow:visible;"/>
		</clipPath>
		<g style="clip-path:url(#SVGID_00000163770718512924975090000003663805556619524252_);">
			<path class="st27" d="M40.72,771.8c0,0-184.71-1.3-286.26,7.48c-60.76,5.25-58.93,61.07-58.93,104.06H51.59L40.72,771.8z"/>
			<path d="M524.85,1127.04H392.12c-3.45,0-6.28-2.83-6.28-6.28V759.57c0-3.45,2.83-6.28,6.28-6.28h132.73
				c3.45,0,6.28,2.83,6.28,6.28v361.19C531.13,1124.21,528.3,1127.04,524.85,1127.04z"/>
			<path class="st28" d="M-241.54,834.57c0,0-149.24,14.58-195.55,3.43s-61.75-63.47-61.75-63.47
				c-26.59-140.66-28.3-235.01-28.3-235.01l30.88-64.33c17.15-26.59,53.18-57.47,53.18-57.47s90.06-239.3,113.22-279.61
				s66.9-40.31,66.9-40.31l216.14-6.86c0,0,25.7-19.46,46.41-18.01c0,0,55.15,3.18,77.45,5.75l278.3,22.26
				c0,0,39.66,3.48,55.66,52.88c14.33,44.23,59.81,263.9,59.81,263.9s36.02,30.88,53.18,57.47l30.88,64.33
				c0,0-1.72,94.35-28.3,235.01c0,0-15.44,52.32-61.75,63.47s-195.55-3.43-195.55-3.43"/>
			<path class="st29" d="M13.52,374.8c202.92-6.74,422.95,8.42,422.95,8.42s-29.16-168-33.44-187.24
				c-11.53-51.88-47.27-74.85-47.27-74.85C242.09,100.93,12.82,96.09,12.82,96.09s-158.79,5.96-307.39,28.2
				c0,0-23.86,38.34-30.59,56.86c-6.74,18.52-75.78,202.08-75.78,202.08s212.18-15.16,415.1-8.42"/>
			<path class="st30" d="M103.65,374.33l5.01-52.45c0,0,1.37-32.33,39.62-40.98l107.92,0.46c0,0,47.81,5.01,56.47,40.07
				s6.82,56.25,6.82,56.25"/>
			<path d="M69.68,176.48H-32.86c-5.38,0-9.74-4.36-9.74-9.74v-32.17c0-5.38,4.36-9.74,9.74-9.74H69.68c5.38,0,9.74,4.36,9.74,9.74
				v32.17C79.42,172.12,75.06,176.48,69.68,176.48z"/>
			<rect x="10.83" y="110.27" width="14.89" height="14.89"/>
			<path class="st31" d="M234.95,616.97c0,0,69.44-158.73,149.39-200.74"/>
			<line class="st31" x1="393.68" y1="408.64" x2="408.27" y2="401.64"/>
			<line class="st31" x1="225.62" y1="633.31" x2="218.62" y2="648.48"/>
			<path class="st31" d="M461.37,436.07c0,0-2.92,31.51-9.34,50.19"/>
			<path class="st28" d="M470.78,417.73c0,0,2.85-29.52,11.02-48.19c0,0,4.08-10.5,18.67-9.34c0,0,32.68,5.84,56.6,17.51
				s2.33,29.76,2.33,29.76s-10.5,11.67-25.68,12.25s-26.84,4.08-26.84,4.08l-5.25,22.76"/>
			<path class="st30" d="M-75.97,373.38l-5.01-51.51c0,0-1.37-32.33-39.62-40.98l-107.92,0.46c0,0-47.81,5.01-56.47,40.07
				c-8.65,35.06-4.55,56.69-4.55,56.69"/>
			<path class="st31" d="M-207.28,616.97c0,0-69.44-158.73-149.39-200.74"/>
			<line class="st31" x1="-366" y1="408.64" x2="-380.59" y2="401.64"/>
			<line class="st31" x1="-197.94" y1="633.31" x2="-190.94" y2="648.48"/>
			<path class="st31" d="M-433.69,436.07c0,0,2.92,31.51,9.34,50.19"/>
			<path d="M-443.1,417.73c0,0-2.85-29.52-11.02-48.19c0,0-4.08-10.5-18.67-9.34c0,0-32.68,5.84-56.6,17.51s-2.33,29.76-2.33,29.76
				s10.5,11.67,25.68,12.25s26.84,4.08,26.84,4.08l5.25,22.76"/>
			<path class="st30" d="M34.47,565.34l437.21,1.63c0,0,37.38-3.25,27.63,40.63s-47.13,69.89-110.52,84.52l-349.44,3.25"/>
			<path class="st32" d="M251.07,582.07l38.23,90.05h69.66c0,0,108.74-4.25,117.24-79.01c0,0,2.55-15.29-22.09-11.89L251.07,582.07z
				"/>
			<ellipse class="st33" cx="361.37" cy="622.5" rx="33.65" ry="33.57"/>
			<circle class="st10" cx="294.07" cy="617.5" r="21.34"/>
			<circle class="st34" cx="430.5" cy="616.23" r="21.34"/>
			<rect x="35.95" y="586.72" class="st32" width="204.24" height="14.11"/>
			<rect x="35.95" y="621.59" class="st32" width="215.37" height="14.11"/>
			<rect x="35.95" y="655.92" class="st32" width="229.07" height="14.11"/>
			<path class="st35" d="M40.71,704.43h485.91c0,0,25.8-1.43,25.8,15.77l-21.5,70.23H39.28"/>
			<path class="st36" d="M530.52,790.02c0,0-10.98,78.68-36.6,78.68s-86.92,0-86.92,0s-18.3,1.83-28.36-17.38
				s-28.36-60.38-28.36-60.38L530.52,790.02z"/>
			<circle class="st10" cx="456.92" cy="829.33" r="21.34"/>
			<path class="st37" d="M-108.89,799.34c0,0-159.22-2.51-159.22,48.9h164.24L-108.89,799.34z"/>
			<path class="st27" d="M37.39,771.8c0,0,184.71-1.3,286.26,7.48c60.76,5.25,58.93,61.07,58.93,104.06H26.52L37.39,771.8z"/>
			<path class="st37" d="M187,799.34c0,0,159.22-2.51,159.22,48.9H181.98L187,799.34z"/>
			<path class="st36" d="M192,868.68h-301.81c-3.12,0-5.67-2.55-5.67-5.67v-71.71c0-3.12,2.55-5.67,5.67-5.67H192
				c3.12,0,5.67,2.55,5.67,5.67v71.71C197.67,866.12,195.11,868.68,192,868.68z"/>
			<path class="st30" d="M-125.47,222.18h-104.38c-6.6,0-12,5.4-12,12v29.12c0,6.6,5.4,12,12,12h104.38c6.6,0,12-5.4,12-12v-29.12
				C-113.47,227.58-118.87,222.18-125.47,222.18z"/>
			<path class="st30" d="M258.2,222.18H153.82c-6.6,0-12,5.4-12,12v29.12c0,6.6,5.4,12,12,12H258.2c6.6,0,12-5.4,12-12v-29.12
				C270.2,227.58,264.8,222.18,258.2,222.18z"/>
		</g>
		<g style="clip-path:url(#SVGID_00000163770718512924975090000003663805556619524252_);">
			<path class="st38" d="M223.59,231.75c0,0,5.68,18-3.5,35.59c0,0,1.18,85.08,50.12,90.05c0,0,35.36-49.82,20.96-91.03
				L223.59,231.75z"/>
			<path class="st11" d="M208.38,272.05c0,0-35.87,6.86-62.24,20.04l-61.19,81.76c0,0,192.2,1.09,351.45,9.28l-6.73-37.65
				c-2.22-2.46-25.67-9.21-28-11.2c0,0-13.97-28.53-29.27-40.66c-15.3-12.13-69.34-23.68-69.34-23.68l-22.64,22.23
				c-6.33,12.11-9.01,35.79-11.12,59c0,0-5.51-30.95-17.93-58.55C246.62,282.07,212.48,278.55,208.38,272.05z"/>
			<path class="st38" d="M86.54,341.29c0,0-4.41,2.11-4.22,12.27c0,0-0.58,3.45-4.22,8.63c0,0-1.93,3.54-1.74,11.79l22.18,0.26
				l2.95-5.14L86.54,341.29z"/>
			<path class="st38" d="M303.28,144.75c0,0,10.73,13.47,10.28,47.5c0,0-0.91,8.22,0.23,12.56c1.14,4.34,1.6,11.65,0.23,16.44
				c-1.37,4.8-11.65,36.99-11.65,36.99s-3.43,9.36-19.41,10.5c-15.98,1.14-29.91-3.88-36.08-10.28
				c-6.17-6.39-21.24-16.44-23.29-26.72c0,0-9.36,2.74-13.93-8.45c0,0-11.42-17.13-1.37-22.38c10.05-5.25,16.9,8.68,16.9,8.68
				s-14.84-41.33,7.76-59.14C232.95,150.45,260.58,124.42,303.28,144.75z"/>
			<path class="st39" d="M268.9,232.92c0,0,8.01-2.47,17.54,0.24c0,0,8.24-1.65,15.66,0c0,0-0.82,13.3-13.3,16.25
				C276.31,252.35,268.66,240.69,268.9,232.92z"/>
			<path class="st40" d="M270.9,233.86c0,0-0.12,11.77,15.19,11.77c13.9,0,14.01-10.48,14.01-10.48S284.44,235.86,270.9,233.86z"/>
			<path d="M273.55,186.1c0,0-13.4-3.98-25.17,0.91c0,0,5.79-9.05,25.53-4.89C273.91,182.12,277.17,184.65,273.55,186.1z"/>
			<path d="M314.28,184.64c-9.62-1.43-14.29,1.46-14.29,1.46c-3.62-1.45-0.36-3.98-0.36-3.98c6.15-1.3,10.95-1.31,14.64-0.72
				C314.26,181.4,314.81,184.72,314.28,184.64z"/>
			<path class="st11" d="M272.8,234.03c0,0,3.79,5.45,15.64,4.88c0,0,7.43,0,10.49-3.89C298.93,235.02,283.54,235.72,272.8,234.03z"
				/>
			<path class="st41" d="M289.85,200.07l6.28,13.28c0,0,6.22,10.56-0.52,12.15c-6.08,1.43-6.24,0.24-6.24,0.24"/>
			<path class="st41" d="M208.15,208.55c0,0,3.89-5.89,8.24,0.12c4.36,6,4.59,8.01,4.59,8.01s-6.24-9.54-8.71-1.88"/>
			<path class="st42" d="M204.85,202.98c0,0,7.5-7.33,13.66,0.33c6.16,7.66,5.33,11.33,5.33,11.33l5.33-0.33
				c0,0-4.91-29.61,6.42-50.26c0,0,33.31-32.21,72.4-8.82c0,0,13.2-16.15,3.5-26.95c-6.48-7.22-18.36-14.74-47.85-10.35
				c0,0-37.65,5.5-44.23,23.79c0,0-8.39,1.39-15,24.83C197.28,191.88,204.85,202.98,204.85,202.98z"/>
			<path class="st43" d="M283.86,268.29c0,0-13.97,2.02-25.65-2.77c0,0-7.09-1.8-16.87-11.88c0,0,9.76,15.11,27.06,16.37
				C268.39,270.01,276.17,271.38,283.86,268.29C283.86,268.29,283.57,269.98,283.86,268.29z"/>
			<g>
				<path class="st11" d="M257.46,195.51c0,0-0.02-0.37,0.25-0.69c0.87-1.05,2.89-3.04,6.19-3.16c3.69-0.14,5.85,3.25,6.59,4.46
					c0.13,0.21,0.12,0.4,0.12,0.4s0.02,0.2-0.1,0.35c-0.56,0.71-2.45,2.69-5.95,2.87c-2.08,0.11-5.04-0.9-6.95-3.65
					C257.48,195.9,257.46,195.65,257.46,195.51z"/>
				<circle class="st43" cx="265.09" cy="195.88" r="3.82"/>
				<circle class="st11" cx="262.65" cy="195.2" r="1.05"/>
				<path class="st44" d="M270.71,196.12c0,0-4.82-8.64-13.15-1.32"/>
			</g>
			<g>
				<path class="st11" d="M300.1,197.04c0,0-0.07-0.34,0.13-0.68c0.66-1.11,2.26-3.24,5.3-3.83c3.41-0.66,5.9,2.19,6.76,3.21
					c0.15,0.18,0.17,0.35,0.17,0.35s0.05,0.19-0.04,0.34c-0.42,0.74-1.9,2.85-5.12,3.52c-1.92,0.4-4.81-0.12-6.99-2.4
					C300.17,197.39,300.12,197.16,300.1,197.04z"/>
				<circle class="st43" cx="307.25" cy="196.28" r="3.58"/>
				<circle class="st11" cx="304.79" cy="196.07" r="1"/>
				<path class="st44" d="M312.38,195.85c0,0-5.55-7.88-12.23,0.67"/>
			</g>
			<path class="st42" d="M307.99,155.23c0,0,5.4,13.62,5.15,23.45c0,0,5.25-16.16-1.55-32.63"/>
			<path class="st7" d="M345.67,329.6l-1.22,42.86c0,0-0.92,5.51-6.12,5.51c-5.2,0-30-3.06-30-3.06s-5.2-1.53-5.2-7.35
				c0-5.82,0.61-41.02,0.61-41.02L345.67,329.6z"/>
			<path d="M285.97,377.32c-17.98-31.93-48.76-53.57-88.02-53.57c-38.1,0-67.48,20.15-85.85,50.54l-14.62-0.12
				c16.61-39.56,55.72-67.34,101.31-67.34c47.07,0,86.75,29.39,102.38,71L285.97,377.32z"/>
			<path class="st7" d="M222.04,258.64c0,0-9.81,5.88-12.8,13c0,0,6.88,26.05,31.34,37.49c0,0,2.37-12.62,11.44-16.96
				C252.02,292.17,232.69,280.73,222.04,258.64z"/>
			<path class="st7" d="M291.07,265.74c0,0,0,17.36-10.65,26.43c0,0,11.04,6.31,10.26,17.75c0,0,11.04-2.37,13.02-39.84
				C303.7,270.08,301.72,264.96,291.07,265.74z"/>
			<line class="st45" x1="368.63" y1="329.2" x2="375.13" y2="380.31"/>
			<path class="st45" d="M160.69,331.48c0,0,6.92,20.85,7.88,42.14"/>
			<path class="st45" d="M269.03,355.91c0,0,0.21,11.08,0.21,20.76"/>
			<ellipse cx="257.15" cy="356.53" rx="2.11" ry="2"/>
			<path class="st46" d="M104.15,334.29c0,0-6.82-3.27-9.31-1.55c-2.49,1.72-10.96,8.85-12.7,13.02s1.43,9.4,5.42,9.64
				C87.56,355.4,92.95,345.1,104.15,334.29z"/>
			<path class="st38" d="M133.31,353.94c0,0,5.56,5.37,9.2,1.15c3.64-4.22-0.77-11.31-0.77-11.31s-8.82-12.46-22.43-15.72
				c0,0-6.9-2.68-7.86,2.88c0,0-6.13-3.64-11.88,3.45c0,0-4.6,3.07-1.73,5.94c0,0-5.75-1.73-7.48,9.39l-3.64,4.22
				c0,0-2.88,11.69,10.73,14.18s16.87,1.73,16.87,1.73s2.3-0.77,1.92-2.88c0,0,7.67,1.34,7.86-6.71
				C124.11,360.27,135.03,361.8,133.31,353.94z"/>
			<path class="st47" d="M133.31,353.94c0,0-5.75-9.78-20.7-14.18"/>
			<line class="st47" x1="124.11" y1="360.27" x2="103.6" y2="349.15"/>
			<path class="st47" d="M116.25,366.97c0,0-8.63-6.71-18.02-8.63"/>
			<path d="M82.07,349.7c0,0,9.69-4.19,15.06-16.92c0,0-1.48-0.28-3.54,1.44c-2.07,1.72-6.41,5.06-10.68,10.98
				C82.91,345.2,81.93,347.7,82.07,349.7z"/>
			<path d="M100.07,368.6c-16.8-1.38-13.92-13.52-13.92-13.52s-2.35-1.05-3.13-2.34c0,0-3.87,17.12,15.83,17.98L100.07,368.6z"/>
			<path class="st38" d="M496.72,318.65c2.85-0.93,5.64-1.8,8.33-2.59c0,0,2.04-15.1,27.59-21.39l15.39-10.07
				c0,0,9.93-3.29,6.37,6.31c0,0-5.1,5.08-9.55,8.28l11.38,6.41c0,0-0.6-1.77,6.41-0.36c5.7,1.15,4.07,2.76,4.07,2.76
				s5.25-6.91,11.94-12.67c4.35-3.74,5.98-8.51,11.95-6.14c0,0,5.34,2.79-1.22,10.11l-12.47,18.98l-31.16,13.43l-23.32,3.46
				l-7.43,6.86"/>
			<path class="st48" d="M539.77,297.24c0,0,3.06,0.76,5.09,2.02"/>
			<path class="st48" d="M505.05,316.06c0,0,2.19,5.64,8.62,8.99"/>
			<path class="st48" d="M554.1,309.65l3.35-5.73l-0.3-7.99c0,0,0.08-4.03,4.11-4.73c4.49-0.78,5.14,4.58,5.14,4.58l-0.46,10.71
				l-6.18,12.4"/>
			<path class="st48" d="M565.94,306.49l2.17-2.9l-0.3-7.99c0,0,0.08-4.03,4.11-4.73c4.49-0.78,5.14,4.58,5.14,4.58l-0.46,10.71
				l-6.18,12.4"/>
			<path class="st11" d="M453.93,339.1l43.08-26.27c0,0,10.54,22.21,19.95,31.25l-52.39,44.83L453.93,339.1z"/>
			<g>
				<circle class="st49" cx="521.4" cy="305.46" r="7.25"/>
				<path class="st49" d="M527.5,301.72c0,0,1.15-6.12,5.46-7.18c0,0-1.41,1.91,0.21,2.89c1.62,0.99,2.26-0.56,3.32,0.28
					c1.06,0.85-1.41,3.04-1.41,3.04s-0.78,0.71,1.13,0.85s3.46,1.48,2.47,1.98s-3.6,0.35-3.6,0.35s-0.78,0.42,0.35,0.85
					c1.13,0.42,4.02,0.35,2.96,1.76c-1.06,1.41-5.15-0.28-5.15-0.28l-4.8-2.42L527.5,301.72z"/>
				<path class="st50" d="M528.12,302.09c0,0,2.35-3.58,3.76-4.56"/>
				<line class="st50" x1="534.75" y1="304.4" x2="528.78" y2="303.22"/>
				<path class="st50" d="M528.73,302.66c0,0,3.48-1.22,5.46-1.55"/>
				<line class="st50" x1="528.49" y1="302.19" x2="531.6" y2="299.74"/>
				<path class="st49" d="M514.37,306.96c0,0-4.9-3.84-8.84-1.79c0,0,2.32,0.5,1.75,2.31s-2.07,1.07-2.31,2.4
					c-0.24,1.34,3.06,1.35,3.06,1.35s1.05,0.02-0.29,1.38c-1.34,1.36-1.62,3.4-0.55,3.12c1.07-0.28,2.94-2.11,2.94-2.11
					s0.86-0.19,0.29,0.87s-2.79,2.92-1.06,3.28s3.69-3.61,3.69-3.61l2.01-4.99L514.37,306.96z"/>
				<path class="st50" d="M514.16,307.65c0,0-4.13-1.13-5.84-0.95"/>
				<line class="st50" x1="510.69" y1="313.76" x2="514.41" y2="308.93"/>
				<path class="st50" d="M514.07,308.47c0,0-3.42,1.38-5.13,2.44"/>
				<line class="st50" x1="513.94" y1="307.97" x2="509.99" y2="308.18"/>
				<path class="st50" d="M516.35,304.64c-0.85,0.99-1.51,3.01-1.51,3.01s2.16,1.98,4.61,1.84"/>
				<path class="st50" d="M523.88,300.12c2.54,0.75,3.86,2.64,3.86,2.64s-0.05,1.55-2.07,2.49"/>
				<path class="st51" d="M527.27,301.15c0,0,1.27,1.88,1.36,3.29"/>
				<path class="st51" d="M514.17,306.38c0,0,0.29,2.25,1.15,3.38"/>
			</g>
			<g>
				<circle class="st52" cx="534.32" cy="309.95" r="7.25"/>
				<path class="st52" d="M538.86,304.41c0,0-0.91-6.16,2.81-8.57c0,0-0.71,2.26,1.15,2.67c1.86,0.4,1.95-1.27,3.23-0.82
					s-0.34,3.33-0.34,3.33s-0.5,0.92,1.34,0.43c1.85-0.49,3.75,0.27,2.98,1.06c-0.77,0.79-3.29,1.51-3.29,1.51s-0.6,0.65,0.61,0.69
					c1.21,0.03,3.92-0.98,3.38,0.7c-0.54,1.68-4.96,1.42-4.96,1.42l-5.33-0.72L538.86,304.41z"/>
				<path class="st50" d="M539.56,304.57c0,0,1.05-4.15,2.07-5.54"/>
				<line class="st50" x1="546.59" y1="304.58" x2="540.56" y2="305.42"/>
				<path class="st50" d="M540.33,304.9c0,0,2.89-2.29,4.65-3.25"/>
				<line class="st50" x1="539.95" y1="304.54" x2="542.09" y2="301.21"/>
				<path class="st52" d="M528.16,313.66c0,0-5.89-2.02-8.94,1.2c0,0,2.35-0.29,2.41,1.61c0.06,1.9-1.61,1.68-1.39,3.02
					c0.21,1.34,3.34,0.27,3.34,0.27s1-0.33,0.18,1.4c-0.82,1.73-0.42,3.74,0.5,3.12c0.92-0.61,2.09-2.95,2.09-2.95
					s0.75-0.47,0.56,0.73c-0.19,1.19-1.68,3.67,0.07,3.45c1.75-0.22,2.3-4.62,2.3-4.62l0.27-5.37L528.16,313.66z"/>
				<path class="st50" d="M528.19,314.38c0,0-4.27,0.28-5.83,1.02"/>
				<line class="st50" x1="526.91" y1="321.29" x2="528.84" y2="315.51"/>
				<path class="st50" d="M528.38,315.19c0,0-2.79,2.42-4.05,3.98"/>
				<line class="st50" x1="528.08" y1="314.76" x2="524.42" y2="316.25"/>
				<path class="st50" d="M529.28,310.82c-0.48,1.21-0.44,3.34-0.44,3.34s2.69,1.16,4.96,0.23"/>
				<path class="st50" d="M534.92,304.09c2.65-0.12,4.51,1.23,4.51,1.23s0.46,1.48-1.14,3.03"/>
				<path class="st51" d="M538.46,303.96c0,0,1.82,1.36,2.37,2.67"/>
				<path class="st51" d="M527.79,313.18c0,0,1.01,2.03,2.19,2.81"/>
			</g>
			<path class="st48" d="M527.69,323.39c0,0,9.33-11.19,14.75-12.16c0,0,2.36-0.18,4.96-4.73c2.47-4.33,2.67-9.45,6.68-8.52
				c5.8,1.36,2.16,7.62,2.16,7.62l-7.4,14.15"/>
		</g>
	</g>
	<g>
		<path class="st43" d="M736.65,381.28c-8.46-2.07-5.71-9.65-5.71-9.65c-4.88-0.13-3.26-8.59-3.26-8.59
			c-5.82-3.22-2.17-9.72-2.17-9.72c-2.75-4.83,2.29-10.58,2.29-10.58c-4.51-6.24,2.1-9.03,2.1-9.03c-4.1-6.36,3.26-12.15,3.26-12.15
			c-2.99-6.15-1.3-11.15-1.3-11.15c-4.35-7.9,0.68-13.39,0.68-13.39c-4.22-6.29,0.18-10.45,0.18-10.45
			c-3.65-5.92,1.65-10.29,1.65-10.29c-3.44-6.59,3.3-9.95,3.3-9.95c-0.57-7.31,5.34-9.07,5.34-9.07c1.42-7.12,9.19-8.96,9.19-8.96
			c4.78-5.63,10.76-5.04,10.76-5.04c7.39-5.34,13.97-2.36,13.97-2.36c7.45-4.79,18.6-1,18.6-1c9.92-3.28,20.04,4.74,20.04,4.74
			c9.73-1.06,11.25,9.11,11.25,9.11c8.46,2.07,7.06,11.01,7.06,11.01c6.19-0.72,8.09,6.01,8.09,6.01c6.43-0.11,6.57,8.08,6.57,8.08
			c5.57,1.45,3.7,8.36,3.7,8.36c5.61,3.67,1.48,8.18,1.48,8.18c4.52,4.57,0.37,8.2,0.37,8.2c4.1,6.36,0.72,10.57,0.72,10.57
			c4.92,2.57,1.33,7.81,1.33,7.81c6.23,3.21,1.17,8.86,1.17,8.86c5.81,2.56,4.42,8.76,4.42,8.76c4.91,1.91,3.37,9.88,3.37,9.88
			c4.5,3.91,1.34,11.98,1.34,11.98c7.96,4.55,3.79,12.88,3.79,12.88c5.74,6.46,0.03,12.01,0.03,12.01c2.76,6.11,0.35,9.66,0.35,9.66
			s-0.17,14.87-13.76,14.54"/>
		<path class="st38" d="M755.93,272.32c0,0-8.25,1.34-9.1,20.49c0,0,1.36,6.19,0.43,9.92c-0.93,3.73-0.42,15.58,1.27,22.4
			c1.69,6.82,6.66,18.28,17.45,23.37c10.79,5.08,27.53-4.08,27.53-4.08s17.1-8.72,20.76-19.48c0,0,6.54,6.73,12.86,1.05
			c6.32-5.68,13.05-20.06,5.85-23.78c-6.18-3.19-11.63,5.05-13.05,7.45c-0.23,0.4-0.36,0.63-0.36,0.63s-19.87-23.36-17.57-39.53
			c0,0-10.59,8.7-23.42,4.67C778.57,275.42,763.65,281.97,755.93,272.32z"/>
		<path class="st53" d="M828.08,271c0,0,0.87,7.65-6.08,9.48c-6.95,1.83-5.06-8.68-5.06-8.68s-10.61-0.38-9.89-4.44
			c0.72-4.06,7.17-9.87,8.97-7.17c1.8,2.7,2.22,8.04,2.22,8.04S826.58,268.32,828.08,271z"/>
		<path class="st38" d="M730.56,412.7c0,0,3.21,15.6,0.62,22.9c0,0-1.34,2.92-0.96,9.13c0.38,6.22-0.37,38.94,2.22,60.08
			c0,0,1.28,15.63-1.57,21s0.99,11.51,0.99,11.51s11.86,13.51,16.85,14.16l-1.93-132.08L730.56,412.7z"/>
		<path class="st38" d="M806.98,326.05c0,0-2.08,26.42,18.06,33.38c0,0-4.56,18.98-4.56,27.65c0,0-40.99,14.07-71.39,2.07
			c0,0,15.61-20.79,18.32-33.51c0,0,3.99-3.46,2.37-7.79L806.98,326.05z"/>
		<path d="M780.57,293.28c0,0,10.41-1.88,19.26,1.66c0,0-4.12-5.86-19.39-4.14C780.43,290.8,777.85,292.23,780.57,293.28z"/>
		<path d="M747.89,294.05c7.28-1.52,12.55-0.75,12.55-0.75c2.69-1.13,0.06-2.48,0.06-2.48c-4.77-0.39-10.08,0.41-12.87,1.02
			C747.64,291.84,747.5,294.13,747.89,294.05z"/>
		<path class="st54" d="M782.15,326.72c0,0-5.47-1.69-11.98,0.16c0,0-5.63-1.13-10.7,0c0,0,0.56,9.09,9.09,11.1
			S782.31,332.02,782.15,326.72z"/>
		<path class="st40" d="M780.78,327.36c0,0,0.08,8.04-10.37,8.04c-9.49,0-9.57-7.16-9.57-7.16S771.53,328.73,780.78,327.36z"/>
		<path class="st11" d="M779.48,327.48c0,0-2.59,3.72-10.68,3.33c0,0-4.99,0.25-7.08-2.4C761.72,328.41,772.15,328.63,779.48,327.48
			z"/>
		<path class="st55" d="M766.32,307.07c0,0-6.33,6.06,0.28,9.91"/>
		<path class="st43" d="M770.96,349.81c0,0,9.02-0.06,17.43-3.75c0,0,5.33-1.64,13.67-7.79c0,0-3.96,7.85-19.78,11.54
			c0,0-5.32,1.44-12.14,1.92C770.14,351.73,770.28,350.84,770.96,349.81z"/>
		<path class="st53" d="M815.11,353.19c0,0,29.57,11.46,37.92,31.49c9.65,23.16,7.32,39.43,7.32,39.43s-6.87,7.04-25.98,2.26
			c0,0,6.88,36.98,7.36,70.41c0,0-47.56,26.07-99.19,1.33c0,0,3.97-49.72,3.49-76.47c0,0-11.67,0.52-16.45-10.47l1.49-21.7
			c0,0,5.18-27.16,37.19-34.8c0,0-8.05,13.79,8.67,17.61C776.93,372.28,805.08,378.5,815.11,353.19z"/>
		<path class="st56" d="M836.89,497.98c0,0,11.74,22.99,7.93,52.94c0,0-10.61,51.46-16.75,62.1c0,0,2.31,23.49-2.61,44.06
			c0,0-23.42,7.18-35.3,0.51l-2.97-19.99l2.04,10.1l0,0c0,0-25.91,9.09-35.3,0.51l-5.66-24.55c0,0-5.36-12.23-4.19-21.55l-1.52-104
			C742.54,498.11,791.33,521.75,836.89,497.98z"/>
		<path class="st41" d="M787.18,637.6c-6.19-56.26-2.38-94.35-2.38-94.35"/>
		<circle class="st56" cx="778.01" cy="383.51" r="4.09"/>
		<circle class="st56" cx="786.16" cy="384.11" r="4.09"/>
		<circle class="st56" cx="794.43" cy="382.62" r="4.09"/>
		<circle class="st56" cx="802.42" cy="379.8" r="4.09"/>
		<circle class="st56" cx="809.06" cy="374.82" r="4.09"/>
		<circle class="st56" cx="815.1" cy="369.42" r="4.09"/>
		<circle class="st56" cx="770.31" cy="380.64" r="4.09"/>
		<circle class="st56" cx="763.36" cy="376.6" r="4.09"/>
		<circle class="st56" cx="759.62" cy="369.23" r="4.09"/>
		<circle class="st56" cx="781.23" cy="390.72" r="4.09"/>
		<circle class="st56" cx="791.4" cy="390.3" r="4.09"/>
		<circle class="st56" cx="800.92" cy="387.74" r="4.09"/>
		<circle class="st56" cx="809.74" cy="383.02" r="4.09"/>
		<circle class="st56" cx="816.17" cy="377.75" r="4.09"/>
		<circle class="st56" cx="771.74" cy="388.42" r="4.09"/>
		<circle class="st56" cx="763.15" cy="384.57" r="4.09"/>
		<circle class="st56" cx="755.43" cy="376.27" r="4.09"/>
		<path class="st56" d="M815.11,353.19c0,0-6.75,20.17-30.65,19.8c-23.9-0.36-17.05-17.36-17.05-17.36l-2.29,0.21
			c0,0-5.19,19.77,18.79,18.79c23.29-0.95,25.73-8.96,33.2-20.25L815.11,353.19z"/>
		<path class="st55" d="M830.4,313.9c0,0-3.17-4.8-6.72,0.1c-3.55,4.9-3.74,6.53-3.74,6.53s5.09-7.78,7.11-1.54"/>
		<g>
			<path class="st57" d="M821.99,307.55c0,0-4.43,5.77,0,8.45s-2.95,1.07-2.95,1.07s-5.1-2.15,1.07-11.47L821.99,307.55z"/>
			<path class="st11" d="M821.99,316c0,0,2.41-6.57,6.97-5.23c4.56,1.34-0.27,9.39-0.27,9.39s-1.34,1.88-3.89,1.74
				C824.81,321.9,827.22,317.47,821.99,316z"/>
			<path class="st58" d="M832.97,307.65c0,0,3.75,2.05,2.5-2.39s-7.74-4.55-9.78-4.21c-2.05,0.34-5.01,1.37-5.57,4.55
				c-0.57,3.19,3.87,0.34,3.87,0.34S829.33,301.84,832.97,307.65z"/>
		</g>
		<g>
			<path class="st11" d="M793.02,301.76c0,0,0.01-0.29-0.19-0.54c-0.69-0.83-2.29-2.4-4.89-2.5c-2.91-0.11-4.62,2.57-5.2,3.52
				c-0.1,0.16-0.1,0.31-0.1,0.31s-0.02,0.16,0.08,0.28c0.45,0.56,1.94,2.12,4.7,2.27c1.64,0.09,3.98-0.71,5.49-2.89
				C793,302.06,793.02,301.86,793.02,301.76z"/>
			<circle class="st43" cx="786.99" cy="302.05" r="3.01"/>
			<circle class="st11" cx="788.91" cy="301.51" r="0.83"/>
			<path class="st44" d="M782.55,302.24c0,0,3.8-6.82,10.39-1.04"/>
		</g>
		<g>
			<path class="st11" d="M761.34,302.05c0,0,0.05-0.27-0.1-0.53c-0.51-0.86-1.76-2.52-4.13-2.98c-2.66-0.51-4.6,1.7-5.27,2.5
				c-0.12,0.14-0.13,0.27-0.13,0.27s-0.04,0.15,0.03,0.27c0.33,0.57,1.48,2.22,3.99,2.74c1.49,0.31,3.75-0.09,5.44-1.87
				C761.28,302.33,761.32,302.15,761.34,302.05z"/>
			<circle class="st43" cx="755.77" cy="301.46" r="2.79"/>
			<circle class="st11" cx="757.69" cy="301.3" r="0.78"/>
			<path class="st44" d="M751.77,301.13c0,0,4.32-6.14,9.52,0.52"/>
		</g>
		<path class="st59" d="M826.81,425.76l-7.58,0.87c0,0-6.03-42.2,9.78-53.49"/>
		<g>
			<circle class="st11" cx="766.19" cy="476.2" r="47.62"/>
			<polygon points="770.05,447.21 751.85,456.03 754.62,476.06 774.52,479.62 784.06,461.79 			"/>
			<path d="M726.04,501.78l3.46-17.3l16.57,6.19l4.01,17.12l-7.65,10.38C742.43,518.17,732.41,512.35,726.04,501.78z"/>
			<path d="M796.33,513.07l2.2-15.73l-17.69-0.12L771,511.79l6.03,10.76C777.03,522.54,786.61,520.67,796.33,513.07z"/>
			<path d="M738.61,438.42l2.83,12.84l-14.06,14.53l-7.35-4.43C720.03,461.36,723.31,446.06,738.61,438.42z"/>
			<path d="M803.61,448.8l-2.73,14.75l7.05,16.52l7.15-1.77C815.08,478.29,814.54,457.54,803.61,448.8z"/>
			<line class="st60" x1="754.62" y1="476.06" x2="746.07" y2="490.68"/>
			<line class="st60" x1="774.52" y1="479.62" x2="780.84" y2="497.22"/>
			<line class="st60" x1="798.53" y1="497.34" x2="807.93" y2="480.06"/>
			<line class="st60" x1="771" y1="511.79" x2="750.08" y2="507.79"/>
			<line class="st60" x1="729.5" y1="484.49" x2="727.38" y2="465.79"/>
			<line class="st60" x1="741.44" y1="451.26" x2="751.85" y2="456.03"/>
			<path class="st60" d="M770.05,447.21l0.24-12.44l-10.2-4.37c0,0,6.74-2.73,21.85,2.19l-9.83,2.37"/>
			<line class="st60" x1="784.06" y1="461.79" x2="800.88" y2="463.54"/>
		</g>
		<path class="st38" d="M809.15,502.95l-5.86,6.89c0,0-19.21,11.37-22.13,11.51c-2.93,0.14-7.97-4.27-7.97-4.27
			c-5.45-1.1-6.92-4.74-6.92-4.74c-6.13-0.89-3.55-4.64-3.55-4.64c-2.72-3.85,1.25-4.46,1.25-4.46l10.71-0.41
			c0,0,5.02-1.07,10.54-6.89s-3.89-4.14-3.89-4.14c-7-1.46-2.48-5.25-2.48-5.25c7.89-5.58,20.41-0.15,20.41-0.15l26.38-30.03
			l1.17-30.61c0,0,19.83,2.04,32.07-0.87c0,0,0,42.57-9.62,48.4c-9.62,5.83-39.36,25.95-39.36,25.95L809.15,502.95z"/>
		<path class="st61" d="M762.71,507.7c0,0,10.63,2.32,18.98-2.51"/>
		<path class="st61" d="M766.21,512.22c0,0,11.49,1.51,19.03-3.96"/>
		<polyline class="st61" points="773.19,517.08 783.51,515.72 788.47,511.76 		"/>
		<path class="st59" d="M746.04,421.64c0,0-2.3-15.75,0.81-29.3"/>
		<g>
			<path class="st38" d="M792.26,710.1c0,0,5.59,10.92,3.11,16.01c0,0-11.31,6.96-18.74-0.97
				C776.63,725.15,786.9,720.57,792.26,710.1z"/>
			<path class="st38" d="M789.64,703.44c0,0-5.93,16.03-16.33,18.53c0,0-3.7-8.57-8.75-13.72c0,0,3.87-15.93-10.64-60.03
				c0,0,10.64,4.83,35.3-0.51c0,0,4.88,12.99,1.68,27.42C787.7,689.55,789.64,703.44,789.64,703.44z"/>
			<path class="st62" d="M795.37,726.12c0,0,3.82,7.89,2.27,10.88c0,0-7.87,2.91-18.39,0.07c0,0-5.71-1.58-11.8,3.16
				c-6.09,4.74-29.62,6.85-37.07-0.17c-7.45-7.03,5.61-14.09,5.61-14.09s18.15-4.89,21.26-12.99c3.12-8.1,7.29-4.73,7.29-4.73
				s8.36,6.44,9.49,12.48c0,0,9.68-2.59,15.59-17.28l2.63,6.66c0,0-5.88,11.98-14.65,14.58
				C777.61,724.68,780.83,731.96,795.37,726.12z"/>
			<circle cx="775.02" cy="723.82" r="3.92"/>
			<circle cx="764.79" cy="734.83" r="2.59"/>
			<circle cx="756.22" cy="738.08" r="2.59"/>
			<circle cx="746.47" cy="739.32" r="2.59"/>
			<circle cx="738.24" cy="738.2" r="2.59"/>
			<circle cx="731.22" cy="735.47" r="2.59"/>
			<path class="st63" d="M763.69,729.03c0,0-19.39,8.19-29.24,0.23"/>
		</g>
		<g>
			<path class="st38" d="M828.49,719.48c0,0,5.59,10.92,3.11,16.01c0,0-11.31,6.96-18.74-0.97
				C812.86,734.53,823.13,729.95,828.49,719.48z"/>
			<path class="st38" d="M825.87,712.82c0,0-5.93,16.03-16.33,18.53c0,0-3.7-8.57-8.75-13.72c0,0,3.87-15.93-10.64-60.03
				c0,0,10.64,4.83,35.3-0.51c0,0,4.88,12.99,1.68,27.42S825.87,712.82,825.87,712.82z"/>
			<path class="st62" d="M831.6,735.5c0,0,3.82,7.89,2.27,10.88c0,0-7.87,2.91-18.39,0.07c0,0-5.71-1.58-11.8,3.16
				c-6.09,4.74-29.62,6.85-37.07-0.17s5.61-14.09,5.61-14.09s18.15-4.89,21.26-12.99c3.12-8.1,7.29-4.73,7.29-4.73
				s8.36,6.44,9.49,12.48c0,0,9.68-2.59,15.59-17.28l2.63,6.66c0,0-5.88,11.98-14.65,14.58C813.84,734.06,817.06,741.34,831.6,735.5
				z"/>
			<circle cx="811.25" cy="733.2" r="3.92"/>
			<circle cx="801.03" cy="744.21" r="2.59"/>
			<circle cx="792.45" cy="747.47" r="2.59"/>
			<circle cx="782.7" cy="748.7" r="2.59"/>
			<circle cx="774.47" cy="747.58" r="2.59"/>
			<circle cx="767.45" cy="744.85" r="2.59"/>
			<path class="st63" d="M799.92,738.41c0,0-19.39,8.19-29.24,0.23"/>
		</g>
	</g>
</g>
</svg>
