<?xml version="1.0" encoding="UTF-8"?>
<svg xmlns="http://www.w3.org/2000/svg" xmlns:xlink="http://www.w3.org/1999/xlink" viewBox="0 0 2221.37 1262.56">
  <defs>
    <style>
      .cls-1, .cls-2, .cls-3, .cls-4, .cls-5, .cls-6, .cls-7, .cls-8, .cls-9, .cls-10, .cls-11, .cls-12 {
        fill: none;
      }

      .cls-2 {
        stroke-width: 1.5px;
      }

      .cls-2, .cls-13, .cls-3, .cls-4, .cls-5, .cls-6, .cls-14, .cls-7, .cls-8, .cls-9, .cls-10, .cls-11, .cls-15, .cls-12 {
        stroke-miterlimit: 10;
      }

      .cls-2, .cls-4, .cls-6, .cls-14, .cls-7, .cls-8, .cls-9, .cls-10, .cls-12 {
        stroke: #231f20;
      }

      .cls-13 {
        fill: #ce8d50;
        stroke: #cb8b2a;
        stroke-width: 5px;
      }

      .cls-16 {
        clip-path: url(#clippath);
      }

      .cls-3 {
        stroke: #58595b;
      }

      .cls-3, .cls-5, .cls-6 {
        stroke-width: .8px;
      }

      .cls-4 {
        stroke-dasharray: 0 0 11.12 11.12;
      }

      .cls-5 {
        stroke: #414042;
      }

      .cls-17 {
        fill: #f4c470;
      }

      .cls-18 {
        fill: #f9edde;
      }

      .cls-19 {
        fill: #017d75;
      }

      .cls-20 {
        fill: #00a151;
      }

      .cls-21 {
        fill: #00714f;
      }

      .cls-22 {
        fill: #e6e7e8;
      }

      .cls-23 {
        fill: #f6ac1b;
      }

      .cls-24 {
        fill: #e96d42;
      }

      .cls-25 {
        fill: #f05380;
      }

      .cls-26, .cls-27 {
        fill: #fff;
      }

      .cls-28 {
        fill: #ed1c24;
      }

      .cls-29 {
        fill: #f16225;
      }

      .cls-30 {
        fill: #803435;
      }

      .cls-31 {
        fill: #7e2519;
      }

      .cls-32 {
        fill: #016041;
      }

      .cls-33 {
        fill: #9ecb54;
      }

      .cls-34 {
        fill: #bae1ea;
      }

      .cls-35 {
        fill: #8b5e3c;
      }

      .cls-36 {
        fill: #b6e4f6;
      }

      .cls-37 {
        fill: #323233;
      }

      .cls-38 {
        fill: #8dd5e7;
      }

      .cls-39 {
        fill: #bcbec0;
      }

      .cls-40 {
        fill: #a7a9ac;
      }

      .cls-41, .cls-15 {
        fill: #be9e7d;
      }

      .cls-42 {
        fill: #be8c8c;
      }

      .cls-43 {
        fill: #abaaaa;
      }

      .cls-44 {
        fill: #d1d3d4;
      }

      .cls-45 {
        fill: #dcbf97;
      }

      .cls-46 {
        fill: #c6837e;
      }

      .cls-47 {
        fill: #c5c3c3;
      }

      .cls-48, .cls-14 {
        fill: #231f20;
      }

      .cls-49 {
        fill: #1fa8df;
      }

      .cls-50 {
        fill: #414042;
      }

      .cls-51 {
        fill: #0f3e5d;
      }

      .cls-52 {
        fill: #0e8e81;
      }

      .cls-53 {
        fill: #6f6e6f;
      }

      .cls-54 {
        fill: #6ca442;
      }

      .cls-55 {
        fill: #808285;
      }

      .cls-56 {
        fill: #27aae1;
      }

      .cls-57 {
        fill: #288348;
      }

      .cls-58 {
        fill: #48494a;
      }

      .cls-59 {
        fill: #3c2415;
      }

      .cls-60 {
        fill: #59bede;
      }

      .cls-61 {
        fill: #58595b;
      }

      .cls-62 {
        fill: #575556;
      }

      .cls-63 {
        fill: #26130f;
      }

      .cls-14 {
        stroke-width: 2px;
      }

      .cls-7 {
        stroke-dasharray: 0 0 12.32 12.32;
      }

      .cls-64 {
        clip-path: url(#clippath-1);
      }

      .cls-8, .cls-15 {
        stroke-width: .7px;
      }

      .cls-9 {
        stroke-linecap: round;
      }

      .cls-9, .cls-12 {
        stroke-width: .5px;
      }

      .cls-11 {
        stroke: #461a15;
      }

      .cls-15 {
        stroke: #603913;
      }

      .cls-27 {
        opacity: .8;
      }
    </style>
    <clipPath id="clippath">
      <rect class="cls-1" x="1258.21" y="87.14" width="786.44" height="352.41"/>
    </clipPath>
    <clipPath id="clippath-1">
      <rect class="cls-1" x="711.64" y="64.31" width="581.29" height="935.71"/>
    </clipPath>
  </defs>
  <g id="fondo">
    <rect class="cls-38" x="711.56" width="1333.99" height="434.99"/>
    <g class="cls-16">
      <g>
        <rect class="cls-17" x="1299.14" y="199.48" width="784.68" height="216.01"/>
        <path class="cls-13" d="M1719.8,412.06v-147.45s34.65-24.17,74.93,0l-.91,147.34-74.02,.11Z"/>
        <path class="cls-36" d="M1596.32,360.93v-104.43s47.36-17.12,102.42,0l-1.25,104.35-101.17,.08Z"/>
        <path class="cls-36" d="M1291.44,360.93v-104.43s33.98-17.12,73.49,0l-.9,104.35-72.59,.08Z"/>
        <path class="cls-36" d="M1894.07,360.93v-104.43s47.36-17.12,102.42,0l-1.25,104.35-101.17,.08Z"/>
        <rect class="cls-18" x="1281.07" y="200.38" width="23.57" height="233.86"/>
        <rect class="cls-18" x="1544.16" y="200.38" width="23.57" height="233.86"/>
        <rect class="cls-18" x="1812.91" y="200.38" width="23.57" height="233.86"/>
        <rect class="cls-24" x="2081.66" y="200.38" width="23.57" height="233.86"/>
        <polygon class="cls-18" points="1221.66 202.27 2163.7 202.27 2163.7 192.73 1693.5 119.93 1223.78 186.66 1221.66 202.27"/>
        <polygon class="cls-13" points="1223.78 186.66 1193.93 177.37 1703.07 105.97 2204.2 187.38 2163.7 192.73 1693.5 119.93 1223.78 186.66"/>
        <polygon class="cls-22" points="1193.93 177.37 1193.93 163.07 1702.73 91.03 2208.53 172.93 2204.2 187.38 1703.07 105.97 1193.93 177.37"/>
        <rect class="cls-18" x="1281.07" y="414.56" width="824.16" height="19.68"/>
        <g>
          <line class="cls-5" x1="1886.23" y1="242.75" x2="1886.23" y2="362.02"/>
          <circle class="cls-50" cx="1886.27" cy="245.23" r="2.46"/>
          <circle class="cls-50" cx="1886.35" cy="364.48" r="2.46"/>
          <line class="cls-5" x1="1898.9" y1="242.75" x2="1898.9" y2="362.02"/>
          <circle class="cls-50" cx="1898.93" cy="245.23" r="2.46"/>
          <circle class="cls-50" cx="1899.02" cy="364.48" r="2.46"/>
          <line class="cls-5" x1="1912.64" y1="242.75" x2="1912.64" y2="362.02"/>
          <circle class="cls-50" cx="1912.67" cy="245.23" r="2.46"/>
          <circle class="cls-50" cx="1912.76" cy="364.48" r="2.46"/>
          <line class="cls-5" x1="1925.03" y1="242.75" x2="1925.03" y2="362.02"/>
          <circle class="cls-50" cx="1925.06" cy="245.23" r="2.46"/>
          <circle class="cls-50" cx="1925.15" cy="364.48" r="2.46"/>
          <line class="cls-5" x1="1937.69" y1="242.75" x2="1937.69" y2="362.02"/>
          <circle class="cls-50" cx="1937.73" cy="245.23" r="2.46"/>
          <circle class="cls-50" cx="1937.81" cy="364.48" r="2.46"/>
          <line class="cls-5" x1="1951.43" y1="242.75" x2="1951.43" y2="362.02"/>
          <circle class="cls-50" cx="1951.47" cy="245.23" r="2.46"/>
          <circle class="cls-50" cx="1951.55" cy="364.48" r="2.46"/>
          <line class="cls-5" x1="1964.09" y1="242.75" x2="1964.09" y2="362.02"/>
          <circle class="cls-50" cx="1964.13" cy="245.23" r="2.46"/>
          <circle class="cls-50" cx="1964.22" cy="364.48" r="2.46"/>
          <line class="cls-5" x1="1976.76" y1="242.75" x2="1976.76" y2="362.02"/>
          <circle class="cls-50" cx="1976.79" cy="245.23" r="2.46"/>
          <circle class="cls-50" cx="1976.88" cy="364.48" r="2.46"/>
          <line class="cls-5" x1="1990.5" y1="242.75" x2="1990.5" y2="362.02"/>
          <circle class="cls-50" cx="1990.53" cy="245.23" r="2.46"/>
          <circle class="cls-50" cx="1990.62" cy="364.48" r="2.46"/>
          <line class="cls-5" x1="2003.43" y1="242.75" x2="2003.43" y2="362.02"/>
          <circle class="cls-50" cx="2003.46" cy="245.23" r="2.46"/>
          <circle class="cls-50" cx="2003.55" cy="364.48" r="2.46"/>
        </g>
        <g>
          <line class="cls-5" x1="1589.2" y1="242.75" x2="1589.2" y2="362.02"/>
          <circle class="cls-50" cx="1589.24" cy="245.23" r="2.46"/>
          <circle class="cls-50" cx="1589.32" cy="364.48" r="2.46"/>
          <line class="cls-5" x1="1601.87" y1="242.75" x2="1601.87" y2="362.02"/>
          <circle class="cls-50" cx="1601.9" cy="245.23" r="2.46"/>
          <circle class="cls-50" cx="1601.99" cy="364.48" r="2.46"/>
          <line class="cls-5" x1="1615.61" y1="242.75" x2="1615.61" y2="362.02"/>
          <circle class="cls-50" cx="1615.64" cy="245.23" r="2.46"/>
          <circle class="cls-50" cx="1615.73" cy="364.48" r="2.46"/>
          <line class="cls-5" x1="1628" y1="242.75" x2="1628" y2="362.02"/>
          <circle class="cls-50" cx="1628.03" cy="245.23" r="2.46"/>
          <circle class="cls-50" cx="1628.12" cy="364.48" r="2.46"/>
          <line class="cls-5" x1="1640.66" y1="242.75" x2="1640.66" y2="362.02"/>
          <circle class="cls-50" cx="1640.7" cy="245.23" r="2.46"/>
          <circle class="cls-50" cx="1640.78" cy="364.48" r="2.46"/>
          <line class="cls-5" x1="1654.4" y1="242.75" x2="1654.4" y2="362.02"/>
          <circle class="cls-50" cx="1654.44" cy="245.23" r="2.46"/>
          <circle class="cls-50" cx="1654.52" cy="364.48" r="2.46"/>
          <line class="cls-5" x1="1667.06" y1="242.75" x2="1667.06" y2="362.02"/>
          <circle class="cls-50" cx="1667.1" cy="245.23" r="2.46"/>
          <circle class="cls-50" cx="1667.19" cy="364.48" r="2.46"/>
          <line class="cls-5" x1="1679.73" y1="242.75" x2="1679.73" y2="362.02"/>
          <circle class="cls-50" cx="1679.76" cy="245.23" r="2.46"/>
          <circle class="cls-50" cx="1679.85" cy="364.48" r="2.46"/>
          <line class="cls-5" x1="1693.47" y1="242.75" x2="1693.47" y2="362.02"/>
          <circle class="cls-50" cx="1693.5" cy="245.23" r="2.46"/>
          <circle class="cls-50" cx="1693.59" cy="364.48" r="2.46"/>
          <line class="cls-5" x1="1706.4" y1="242.75" x2="1706.4" y2="362.02"/>
          <circle class="cls-50" cx="1706.43" cy="245.23" r="2.46"/>
          <circle class="cls-50" cx="1706.52" cy="364.48" r="2.46"/>
        </g>
        <g>
          <line class="cls-5" x1="1316.87" y1="242.75" x2="1316.87" y2="362.02"/>
          <circle class="cls-50" cx="1316.9" cy="245.23" r="2.46"/>
          <circle class="cls-50" cx="1316.99" cy="364.48" r="2.46"/>
          <line class="cls-5" x1="1329.53" y1="242.75" x2="1329.53" y2="362.02"/>
          <circle class="cls-50" cx="1329.56" cy="245.23" r="2.46"/>
          <circle class="cls-50" cx="1329.65" cy="364.48" r="2.46"/>
          <line class="cls-5" x1="1342.19" y1="242.75" x2="1342.19" y2="362.02"/>
          <circle class="cls-50" cx="1342.23" cy="245.23" r="2.46"/>
          <circle class="cls-50" cx="1342.31" cy="364.48" r="2.46"/>
          <line class="cls-5" x1="1355.93" y1="242.75" x2="1355.93" y2="362.02"/>
          <circle class="cls-50" cx="1355.97" cy="245.23" r="2.46"/>
          <circle class="cls-50" cx="1356.05" cy="364.48" r="2.46"/>
          <line class="cls-5" x1="1368.86" y1="242.75" x2="1368.86" y2="362.02"/>
          <circle class="cls-50" cx="1368.9" cy="245.23" r="2.46"/>
          <circle class="cls-50" cx="1368.99" cy="364.48" r="2.46"/>
        </g>
      </g>
    </g>
    <rect class="cls-44" x="1170.24" y="490.64" width="874.16" height="508.9"/>
    <path class="cls-26" d="M1241.77,85.37l-92.77-1.84s-21.27-6.75-20.21-19.29c1.84-21.62,19.29-20.21,19.29-20.21,0,0,.92-24.8,28.47-24.8,0,0,21.12-1.84,21.12,24.8,0,0,11.02-17.45,29.39-6.43,0,0,12.86,13.78,1.84,21.12,0,0,23.88-16.53,30.31,4.59,0,0,5.51,22.96-17.45,22.04"/>
    <path class="cls-26" d="M974.84,102.71l-92.77-1.84s-21.27-6.75-20.21-19.29c1.84-21.62,19.29-20.21,19.29-20.21,0,0,.92-24.8,28.47-24.8,0,0,21.12-1.84,21.12,24.8,0,0,11.02-17.45,29.39-6.43,0,0,12.86,13.78,1.84,21.12,0,0,23.88-16.53,30.31,4.59,0,0,5.51,22.96-17.45,22.04"/>
    <path class="cls-27" d="M1649.02,50.94l-57.68-1.14s-13.23-4.2-12.56-11.99c1.14-13.44,11.99-12.56,11.99-12.56,0,0,.57-15.42,17.7-15.42,0,0,13.13-1.14,13.13,15.42,0,0,6.85-10.85,18.27-4,0,0,7.99,8.57,1.14,13.13,0,0,14.85-10.28,18.84,2.86,0,0,3.43,14.28-10.85,13.71"/>
    <path class="cls-27" d="M1522.78,85.63l-57.68-1.14s-13.23-4.2-12.56-11.99c1.14-13.44,11.99-12.56,11.99-12.56,0,0,.57-15.42,17.7-15.42,0,0,13.13-1.14,13.13,15.42,0,0,6.85-10.85,18.27-4,0,0,7.99,8.57,1.14,13.13,0,0,14.85-10.28,18.84,2.86,0,0,3.43,14.28-10.85,13.71"/>
    <g>
      <circle class="cls-26" cx="1981.82" cy="652.39" r="49.22"/>
      <polygon class="cls-48" points="1985.81 622.42 1967 631.54 1969.86 652.25 1990.44 655.92 2000.29 637.49 1985.81 622.42"/>
      <path class="cls-48" d="M1940.32,678.84l3.58-17.88,17.13,6.4,4.14,17.69-7.91,10.73s-10.35-6.02-16.94-16.94Z"/>
      <path class="cls-48" d="M2012.98,690.51l2.28-16.27-18.29-.12-10.17,15.06,6.23,11.12s9.91-1.93,19.95-9.79Z"/>
      <path class="cls-48" d="M1953.31,613.33l2.93,13.28-14.53,15.02-7.6-4.58s3.39-15.81,19.2-23.72Z"/>
      <path class="cls-48" d="M2020.51,624.06l-2.82,15.25,7.29,17.08,7.39-1.83s-.56-21.46-11.86-30.49Z"/>
      <line class="cls-14" x1="1969.86" y1="652.25" x2="1961.03" y2="667.35"/>
      <line class="cls-14" x1="1990.44" y1="655.92" x2="1996.97" y2="674.12"/>
      <line class="cls-14" x1="2015.25" y1="674.24" x2="2024.97" y2="656.38"/>
      <line class="cls-14" x1="1986.8" y1="689.18" x2="1965.17" y2="685.05"/>
      <line class="cls-14" x1="1943.9" y1="660.95" x2="1941.7" y2="641.63"/>
      <line class="cls-14" x1="1956.24" y1="626.61" x2="1967" y2="631.54"/>
      <path class="cls-14" d="M1985.81,622.42l.25-12.86-10.54-4.52s6.96-2.82,22.59,2.26l-10.16,2.45"/>
      <line class="cls-14" x1="2000.29" y1="637.49" x2="2017.68" y2="639.31"/>
    </g>
    <rect class="cls-40" x="1214.25" y="529.47" width="831.3" height="9.94"/>
    <polygon class="cls-37" points="711.6 870.49 1009.39 721.81 1475.12 999.56 711.27 999.2 711.6 870.49"/>
    <polygon class="cls-58" points="1223.17 813.45 1228.78 854.12 1475.12 999.56 1553.99 999.56 1223.17 813.45"/>
    <polygon class="cls-55" points="1225.98 768.56 1223.17 813.45 1553.99 999.56 1710.23 999.56 1225.98 768.56"/>
    <g>
      <path class="cls-10" d="M1672.83,749.94s2.07-.63,5.8-1.51"/>
      <path class="cls-7" d="M1690.71,746.01c33.02-5.57,104.51-9.59,151.95,46.28"/>
      <path class="cls-10" d="M1846.56,797.08c1.21,1.56,2.41,3.16,3.59,4.81,0,0-.51-2.09-.87-5.93"/>
      <path class="cls-4" d="M1848.99,784.86c.81-22.45,10.02-64.42,59.13-109.71"/>
      <path class="cls-10" d="M1912.25,671.42c1.48-1.31,2.99-2.62,4.53-3.93"/>
    </g>
    <g>
      <path class="cls-35" d="M1200.83,477.88s10.44-119.44,5.22-178.83l-53.7-79.26,11.02-5.22,49.39,68.34,2.98-65.21h11.19l-2.98,105.88,2.24,155.59s-11.93,5.81-25.36-1.29Z"/>
      <path class="cls-54" d="M1027.46,207.91s-86.84,30.32-27.57,79.95c0,0,68.92,9.65,103.38-37.22,0,0,28.95,28.95,66.16,6.89,0,0,23.43,28.95,60.65,8.27,0,0,51,38.59,90.97,8.27,0,0,37.22,23.43,57.89,1.38,0,0,70.3,27.57,68.92-17.92-1.38-45.49-34.46-52.38-34.46-52.38,0,0,56.51-20.68,15.16-74.43-41.35-53.76-99.24-23.43-99.24-23.43l-301.86,100.62Z"/>
      <path class="cls-33" d="M1047.62,94.69s-41.08,31.12-37.34,72.2c3.73,41.08,26.14,74.69,94.6,48.55,0,0,49.79,56.02,156.84,14.94,0,0,83.4,36.1,107.05-19.92,23.65-56.02-19.92-47.3-19.92-47.3,0,0,57.26-143.15-68.46-120.75,0,0-16.18-27.39-70.95-12.45,0,0-7.47-9.96-27.39-2.49,0,0-23.65-58.51-67.22,4.98,0,0-70.95-12.45-67.22,62.24Z"/>
    </g>
    <rect class="cls-54" x="1142.34" y="434.99" width="903.22" height="58.11"/>
    <path class="cls-20" d="M1184.5,445.46s-36.23-38.71,6.25-41.38c0,0-23.81-56.68,26.6-53.83,0,0,95.53-59.41,114.65,18.47,0,0,60.51-40.67,80.08,3.25l4.16,72.31s-64.17,16.23-141.26,11.4c0,0-55.8-3.08-90.49-10.22Z"/>
    <path class="cls-54" d="M1269.89,463.14s151.96,13.41,219,1.28c0,0-1.28-3.19-7.02-5.11l9.58-3.19s-14.05-14.69-36.39-8.3l16.6-7.02s-10.22-16.6-35.12,2.55c0,0,5.11-14.69,12.13-19.79,0,0-25.54,3.19-33.2,15.32,0,0-1.92-19.79,15.96-27.46,0,0-24.26,1.28-31.29,14.69l-46.61-1.28s-10.22-17.88-23.62-15.96c0,0,15.32,8.3,14.69,24.9,0,0-17.88-14.69-26.18-10.22,0,0,12.13,14.05,8.94,21.71,0,0-22.99-17.24-35.12-3.19,0,0,15.96,1.92,15.96,9.58,0,0-27.46-10.22-38.31,11.49Z"/>
    <g>
      <path class="cls-52" d="M1436.43,410.58s11.02,35.61-22.19,69.06c0,0-26.78-19.96-2.38-49.64,0,0,14.37-13.66,24.57-19.42Z"/>
      <path class="cls-21" d="M1407.5,470.44s33.07-25.42,56.77-16.04c0,0,4.44,37.02-36.53,25.18,0,0-12.59-8.15-20.24-9.13Z"/>
      <path class="cls-19" d="M1469.17,427.93s-37.27,.44-58.85,36.84c0,0,27.25,16.78,47.96-11.34,0,0,6.54-18.75,10.9-25.5Z"/>
      <path class="cls-21" d="M1371.32,406.09s-22.71,53.35,30.63,57.31c0,0,17.96-37.24-30.63-57.31Z"/>
      <path class="cls-52" d="M1338.57,417.71s-23.24,30.9,37.24,39.08l9.51,.53s-10.56-29.58-46.74-39.61Z"/>
      <path class="cls-19" d="M1381.91,450.35s-68.93-3.96-69.72,10.56c-.79,14.52,40.67,11.62,40.67,11.62,0,0,22.45-3.43,36.44-16.64"/>
      <path class="cls-52" d="M1423.63,457.52s-35.88-3.7-53.7-.46c0,0-25.92,25.46,2.55,34.95,0,0,14.81,5.55,29.16-21.06,0,0,9.49-11.57,21.99-13.42Z"/>
      <path class="cls-32" d="M1423.63,457.52s6.15,4.23,5.78,13.92c0,0-18.84,4.76-29.08,1.28,0,0,6.36-13.39,23.3-15.2Z"/>
    </g>
    <g>
      <path class="cls-52" d="M2011,391.88s11.02,35.61-22.19,69.06c0,0-26.78-19.96-2.38-49.64,0,0,14.37-13.66,24.57-19.42Z"/>
      <path class="cls-21" d="M1982.07,451.74s33.07-25.42,56.77-16.04c0,0,4.44,37.02-36.53,25.18,0,0-12.59-8.15-20.24-9.13Z"/>
      <path class="cls-19" d="M2043.74,409.22s-37.27,.44-58.85,36.84c0,0,27.25,16.78,47.96-11.34,0,0,6.54-18.75,10.9-25.5Z"/>
      <path class="cls-21" d="M1945.89,387.38s-22.71,53.35,30.63,57.31c0,0,17.96-37.24-30.63-57.31Z"/>
      <path class="cls-52" d="M1913.14,399s-23.24,30.9,37.24,39.08l9.51,.53s-10.56-29.58-46.74-39.61Z"/>
      <path class="cls-19" d="M1956.48,431.64s-68.93-3.96-69.72,10.56c-.79,14.52,40.67,11.62,40.67,11.62,0,0,22.45-3.43,36.44-16.64"/>
      <path class="cls-52" d="M1998.19,438.81s-35.88-3.7-53.7-.46c0,0-25.92,25.46,2.55,34.95,0,0,14.81,5.55,29.16-21.06,0,0,9.49-11.57,21.99-13.42Z"/>
      <path class="cls-32" d="M1998.19,438.81s6.15,4.23,5.78,13.92c0,0-18.84,4.76-29.08,1.28,0,0,6.36-13.39,23.3-15.2Z"/>
    </g>
    <path class="cls-57" d="M1262.92,462.14s6.03,3.49,12.38,.95c0,0-3.18-17.78,1.27-22.86,0,0-5.08,5.4-5.4,13.34,0,0-6.67-29.21,5.4-50.17,0,0-8.57,10.48-10.16,24.13,0,0-9.21-15.24-.64-34.29,0,0-10.16,16.51-6.35,43.5,0,0-1.91-23.81-10.48-25.72,0,0,8.57,12.7,9.21,34.61,0,0-.95-7.62-5.4-10.16,0,0,13.65,21.27,10.16,26.67Z"/>
  </g>
  <g id="Layer_1" data-name="Layer 1">
    <g>
      <path class="cls-63" d="M1619.55,431.55c8.22-2.87,4.75-10.16,4.75-10.16,4.84-.61,2.41-8.86,2.41-8.86,5.48-3.77,1.22-9.88,1.22-9.88,2.27-5.07-3.3-10.3-3.3-10.3,3.88-6.65-2.97-8.78-2.97-8.78,3.47-6.72-4.42-11.78-4.42-11.78,2.38-6.41,.21-11.23,.21-11.23,3.57-8.29-1.97-13.26-1.97-13.26,3.6-6.67-1.19-10.38-1.19-10.38,3.06-6.25-2.64-10.08-2.64-10.08,2.79-6.89-4.25-9.59-4.25-9.59-.13-7.33-6.19-8.52-6.19-8.52-2.11-6.95-10.01-8.03-10.01-8.03-5.3-5.14-11.19-3.97-11.19-3.97-7.88-4.6-14.13-1-14.13-1-7.88-4.05-18.61,.81-18.61,.81-10.19-2.31-19.48,6.65-19.48,6.65-9.79-.11-10.31,10.15-10.31,10.15-8.22,2.87-5.97,11.64-5.97,11.64-6.23-.12-7.47,6.76-7.47,6.76-6.41,.51-5.76,8.68-5.76,8.68-5.4,1.98-2.87,8.68-2.87,8.68-5.23,4.19-.68,8.28-.68,8.28-4.05,4.99,.43,8.19,.43,8.19-3.47,6.72,.3,10.59,.3,10.59-4.65,3.04-.57,7.9-.57,7.9-5.89,3.8-.31,8.94-.31,8.94-5.54,3.11-3.55,9.15-3.55,9.15-4.7,2.37-2.39,10.16-2.39,10.16-4.1,4.33-.18,12.06-.18,12.06-7.48,5.3-2.53,13.18-2.53,13.18-5.09,6.99,1.13,11.95,1.13,11.95-2.15,6.35,.59,9.65,.59,9.65,0,0,1.6,14.79,15.1,13.14"/>
      <path class="cls-41" d="M1589.83,324.96s8.34,.54,11.04,19.51c0,0-.75,6.29,.53,9.91,1.29,3.62,1.93,15.47,.9,22.42-1.02,6.95-4.87,18.84-15.11,24.94-10.25,6.1-27.79-1.41-27.79-1.41,0,0-17.87-7.03-22.55-17.39,0,0-5.86,7.33-12.69,2.29-6.84-5.04-14.93-18.7-8.12-23.1,5.84-3.78,12.06,3.9,13.71,6.15,.27,.37,.42,.6,.42,.6,0,0,17.52-25.17,13.67-41.04,0,0,11.38,7.63,23.76,2.38,0,0,15.49,5.08,22.24-5.27Z"/>
      <path class="cls-60" d="M1517.89,330.63s-.13,7.7,6.97,8.85c7.1,1.15,4.2-9.13,4.2-9.13,0,0,10.52-1.4,9.42-5.37-1.11-3.97-8.09-9.13-9.62-6.27-1.53,2.86-1.43,8.22-1.43,8.22,0,0-8.3,.89-9.54,3.7Z"/>
      <path class="cls-41" d="M1448.38,317.88c-2.81-1.03-3.81-7.06-3.81-7.06l.71-17.1-1.97-11.44c.39-3.38,3.56-1.45,3.56-1.45l2.07,8.39c.73,1.78,3.4,.69,3.4,.69l-.55-17.63c1.16-5.56,4.47-1.51,4.47-1.51l1.92,15.41-.1-20.09c.43-2.77,3.52-2.06,3.52-2.06l1.18,8.75,1.08-6.77c1.09-1.9,3.92-.56,3.92-.56l2.45,18.72c2.54,6.23,.73,15.79,.73,15.79l-6.44,13.21,20.08,60.1,26.05,38.09-26.25,20.81s-21.88-30.24-28.76-48.47c-6.88-18.23-7.26-65.82-7.26-65.82Z"/>
      <path class="cls-15" d="M1470.23,284.17l-5.43-8.48s-4.53,.6-3.4,3.88c1.13,3.28,2.6,11.71,2.6,11.71,0,0-9.71,5.21-8.97,11.86"/>
      <path class="cls-15" d="M1458.66,288.88s-8.29-.98-13.39,4.84"/>
      <path class="cls-41" d="M1619.77,302.22l-8.11-12.26s-3.04-9.24-1.34-15.75l-.02-18.88s2.63-1.7,3.96,.04l1.95,6.57,.03-8.83s2.97-1.11,3.76,1.58l2.53,19.94-.1-15.53s2.75-4.44,4.63,.91l1.76,17.55s2.79,.73,3.28-1.13l.96-8.59s2.89-2.32,3.72,.97l-.46,11.6,2.93,16.86s-.21,6.11-2.86,7.5c0,0,10.18,49.99,6.32,59.18-3.86,9.19-12.07,45.06-12.07,45.06l-35.61-8.37,20.69-51.97,4.06-46.46Z"/>
      <path class="cls-15" d="M1610.32,274.21l4.28-9.11s4.57,0,3.88,3.4-1.04,11.95-1.04,11.95c0,0,10.31,3.89,10.44,10.58"/>
      <path class="cls-15" d="M1622.41,277.37s8.09-2.05,13.91,3.05"/>
      <path class="cls-60" d="M1533.23,411.48l-9.56,4.38-17.99-18.02s-2.34,20.43-29.65,25.98c0,0,17.22,31.72,29.65,39.25l16.94,32"/>
      <path class="cls-60" d="M1584.54,413.64l10.64-16.36c6.31-2.38,36.71,9.6,36.71,9.6l-11.6,39.03,4.38,26.3"/>
      <path class="cls-41" d="M1541.3,381.59s4.03,27.78-16.77,36.52c0,0,6.14,19.74,6.74,28.9,0,0,44.29,12.03,75.58-2.76,0,0-17.94-20.88-21.68-34.14,0,0-4.46-3.37-3.04-8.06l-40.82-20.45Z"/>
      <path class="cls-48" d="M1566.94,345.14s-11.13-1.26-20.23,3.09c0,0,3.95-6.47,20.2-5.72,0,0,2.83,1.33,.03,2.63Z"/>
      <path class="cls-48" d="M1601.52,343.68c-7.8-1.1-13.31,.08-13.31,.08-2.92-1.01-.24-2.62-.24-2.62,5.02-.75,10.68-.27,13.67,.19,0,0,.31,2.41-.12,2.35Z"/>
      <path class="cls-42" d="M1567.59,380.57s5.66-2.16,12.67-.66c0,0,5.87-1.58,11.3-.74,0,0,.04,9.64-8.83,12.36-8.87,2.72-14.94-5.33-15.14-10.95Z"/>
      <path class="cls-30" d="M1569.08,381.16s.47,8.5,11.52,7.78c10.03-.66,9.62-8.23,9.62-8.23,0,0-11.27,1.25-21.13,.45Z"/>
      <path class="cls-26" d="M1570.46,381.19s3,3.76,11.52,2.78c0,0,5.29-.08,7.32-3.03,0,0-11,.96-18.83,.25Z"/>
      <path class="cls-6" d="M1582.95,358.71s7.11,5.96,.4,10.5"/>
      <path class="cls-63" d="M1581.02,404.2s-9.54,.56-18.68-2.76c0,0-5.75-1.36-14.98-7.29,0,0,4.73,8.02,21.71,10.83,0,0,5.72,1.15,12.96,1.19,0,0-.21-.93-1-1.97Z"/>
      <path class="cls-60" d="M1534.6,410.83s-30.45,14.16-37.88,35.9l10.83,13.44,13.56,33.4s1.39,24,3.2,59.37c0,0,55.49,26.73,108.33-2.99,0,0-2.36-49.37-7.97-77.73,0,0-13.3-19.27-9.01-31.21l4.63-7.57s-1.75-18.43-36.09-24.28c0,0,9.46,14.01-7.94,19.21,0,0-29.31,8.53-41.66-17.53Z"/>
      <circle class="cls-51" cx="1575.9" cy="440.3" r="4.33"/>
      <circle class="cls-51" cx="1567.33" cy="441.5" r="4.33"/>
      <circle class="cls-51" cx="1558.48" cy="440.49" r="4.33"/>
      <circle class="cls-51" cx="1549.85" cy="438.07" r="4.33"/>
      <circle class="cls-51" cx="1542.49" cy="433.27" r="4.33"/>
      <circle class="cls-51" cx="1535.73" cy="427.98" r="4.33"/>
      <circle class="cls-51" cx="1583.84" cy="436.73" r="4.33"/>
      <circle class="cls-51" cx="1590.9" cy="431.98" r="4.33"/>
      <circle class="cls-51" cx="1594.34" cy="423.93" r="4.33"/>
      <circle class="cls-51" cx="1573" cy="448.14" r="4.33"/>
      <circle class="cls-51" cx="1562.22" cy="448.4" r="4.33"/>
      <circle class="cls-51" cx="1551.98" cy="446.36" r="4.33"/>
      <circle class="cls-51" cx="1542.34" cy="441.97" r="4.33"/>
      <circle class="cls-51" cx="1535.18" cy="436.85" r="4.33"/>
      <circle class="cls-51" cx="1582.86" cy="445.05" r="4.33"/>
      <circle class="cls-51" cx="1591.67" cy="440.39" r="4.33"/>
      <circle class="cls-51" cx="1599.25" cy="431.08" r="4.33"/>
      <path class="cls-51" d="M1534.6,410.83s8.53,20.84,33.76,18.8c25.23-2.04,16.81-19.53,16.81-19.53l2.43,.07s6.85,20.53-18.55,21.16c-24.68,.61-27.81-7.69-36.49-19.1l2.03-1.4Z"/>
      <path class="cls-6" d="M1515.71,370.37s3.02-5.29,7.11-.36c4.09,4.93,4.41,6.64,4.41,6.64,0,0-5.92-7.87-7.61-1.13"/>
      <g>
        <path class="cls-29" d="M1524.16,363.08s5.08,5.79,.59,8.93c-4.49,3.14,3.19,.93,3.19,.93,0,0,5.24-2.63-1.93-12.05l-1.85,2.19Z"/>
        <path class="cls-26" d="M1524.74,372.01s-3.01-6.78-7.73-5.04c-4.73,1.73,.93,9.9,.93,9.9,0,0,1.55,1.89,4.23,1.57,0,0-2.86-4.51,2.57-6.43Z"/>
        <path class="cls-49" d="M1512.57,363.94s-3.83,2.42-2.81-2.35c1.01-4.78,7.86-5.34,10.05-5.13,2.19,.22,5.38,1.1,6.21,4.42,.82,3.33-4.06,.63-4.06,.63,0,0-5.93-3.96-9.38,2.43Z"/>
      </g>
      <g>
        <path class="cls-26" d="M1554.37,354.95s-.03-.31,.17-.59c.67-.93,2.25-2.7,4.99-2.98,3.07-.32,5.06,2.39,5.74,3.36,.12,.17,.12,.32,.12,.32,0,0,.03,.17-.06,.3-.43,.62-1.9,2.38-4.81,2.72-1.73,.21-4.26-.48-6-2.67-.12-.15-.15-.36-.16-.47Z"/>
        <circle class="cls-63" cx="1560.76" cy="354.84" r="3.19"/>
        <circle class="cls-26" cx="1558.69" cy="354.4" r=".88"/>
        <path class="cls-8" d="M1565.47,354.73s-4.49-6.95-11.05-.38"/>
      </g>
      <g>
        <path class="cls-26" d="M1587.87,353.07s-.07-.28,.07-.56c.48-.95,1.68-2.79,4.16-3.44,2.77-.72,4.98,1.48,5.74,2.27,.13,.14,.16,.28,.16,.28,0,0,.05,.15-.02,.28-.31,.63-1.41,2.45-4.02,3.17-1.56,.43-3.97,.16-5.88-1.6-.13-.12-.19-.31-.21-.41Z"/>
        <circle class="cls-63" cx="1593.72" cy="352.06" r="2.95"/>
        <circle class="cls-26" cx="1591.68" cy="352.02" r=".83"/>
        <path class="cls-8" d="M1597.91,351.43s-4.99-6.19-10.03,1.21"/>
      </g>
      <path class="cls-51" d="M1523.37,541s-5.4,32.77-1.37,64.48c0,0,9.29,54.37,15.79,65.64,0,0-5.31,3.54-9.05,9.62,0,0,8.01,32.33,33.07,29.53l17.94-16.3,6.65-19.53,.43,9.99,3.69,17.56s30.27,10.72,40.22,1.64l6.94-20.66s3.19-14.08,1.96-23.96l-6.99-109.06s-48.09,27.58-109.27-8.94Z"/>
      <path class="cls-2" d="M1586.4,674.44c6.11-33.4,1.35-86.76,1.35-86.76"/>
      <g>
        <path class="cls-41" d="M1585.18,773.02s-6.69,12.28-4.02,18.16c0,0,12.68,8.27,21.39-.54,0,0-11.56-5.53-17.37-17.62Z"/>
        <path class="cls-41" d="M1588.38,765.5s6.29,18.44,18.06,21.6c0,0,4.48-9.66,10.38-15.38,0,0-3.93-18.27,13.92-68.1,0,0-12.27,5.19-40.22-1.64,0,0-5.95,14.66-2.73,31.2,3.21,16.54,.6,32.31,.6,32.31Z"/>
        <path class="cls-25" d="M1581.16,791.18s-4.59,8.87-2.91,12.33c0,0,8.89,3.56,20.95,.62,0,0,6.55-1.63,13.35,3.96,6.8,5.59,33.56,8.7,42.26,.91,8.7-7.79-5.97-16.23-5.97-16.23,0,0-20.54-6.12-23.85-15.44-3.31-9.32-8.17-5.61-8.17-5.61,0,0-9.72,7.09-11.18,13.94,0,0-10.95-3.24-17.26-20.16l-3.19,7.52s6.34,13.83,16.27,17.06c0,0-3.89,8.2-20.29,1.1Z"/>
        <circle class="cls-48" cx="1604.42" cy="789.17" r="4.47"/>
        <circle class="cls-48" cx="1615.75" cy="802.02" r="2.96"/>
        <circle class="cls-48" cx="1625.43" cy="805.99" r="2.96"/>
        <circle class="cls-48" cx="1636.5" cy="807.68" r="2.96"/>
        <circle class="cls-48" cx="1645.92" cy="806.66" r="2.96"/>
        <circle class="cls-48" cx="1654" cy="803.75" r="2.96"/>
        <path class="cls-9" d="M1617.19,795.44s21.86,9.92,33.32,1.13"/>
      </g>
      <g>
        <path class="cls-41" d="M1490.06,747.91s-12.22,6.23-13.32,12.46c0,0,5.68,13.72,17.61,11.42,0,0-6.29-10.88-4.29-23.88Z"/>
        <path class="cls-41" d="M1496.81,743.6s-5.14,18.41,2.64,27.49c0,0,8.98-5.33,16.92-6.69,0,0,18.63-34.02,45.43-54.13,0,0-22.13-1.58-33.07-29.53,0,0-11.97,18.24-18.53,33.41-6.57,15.16-13.39,29.45-13.39,29.45Z"/>
        <path class="cls-25" d="M1476.74,760.37s-8.63,4.64-9.19,8.36c0,0,5.22,7.8,16.61,12.12,0,0,6.2,2.31,8.61,10.6,2.4,8.29,22.33,25.64,33.69,24.16,11.35-1.48,4.17-16.44,4.17-16.44,0,0-13.23-16.33-10.74-25.71,2.49-9.38-3.5-9.07-3.5-9.07,0,0-11.79,.35-16.77,5.08,0,0-7.07-8.69-2.79-25.88l-6.75,4.31s-2.53,14.71,3.71,22.82c0,0-7.69,4.47-17.03-10.35Z"/>
        <circle class="cls-48" cx="1496.68" cy="771.64" r="4.38"/>
        <circle class="cls-48" cx="1498.72" cy="788.32" r="2.9"/>
        <circle class="cls-48" cx="1504.36" cy="796.89" r="2.9"/>
        <circle class="cls-48" cx="1512.37" cy="804.4" r="2.9"/>
        <circle class="cls-48" cx="1520.56" cy="808.79" r="2.9"/>
        <circle class="cls-48" cx="1528.71" cy="810.92" r="2.9"/>
        <path class="cls-9" d="M1503.53,783.79s12.19,20.14,26.33,19.38"/>
      </g>
    </g>
    <g>
      <path class="cls-45" d="M914.51,231.78s5.68,18-3.5,35.59c0,0,1.18,85.08,50.12,90.05,0,0,35.36-49.82,20.96-91.03l-67.59-34.61Z"/>
      <path class="cls-26" d="M899.3,272.08s-35.87,6.86-62.24,20.04l-61.19,81.76s189.95,.08,351.3,10.02c0,0-14.51-39.03-32.97-54.86,0,0-6.86-20.57-22.15-32.7-15.3-12.13-78.07-26.37-78.07-26.37l-22.64,22.23c-6.33,12.11-9.01,35.79-11.12,59,0,0-5.51-30.95-17.93-58.55-4.75-10.55-38.89-14.07-42.99-20.57Z"/>
      <path class="cls-45" d="M777.46,341.32s-4.41,2.11-4.22,12.27c0,0-.58,3.45-4.22,8.63,0,0-1.93,3.54-1.74,11.79l22.18,.26,2.95-5.14-14.95-27.79Z"/>
      <path class="cls-45" d="M994.21,144.78s10.73,13.47,10.28,47.5c0,0-.91,8.22,.23,12.56,1.14,4.34,1.6,11.65,.23,16.44-1.37,4.8-11.65,36.99-11.65,36.99,0,0-3.43,9.36-19.41,10.5-15.98,1.14-29.91-3.88-36.08-10.28s-21.24-16.44-23.29-26.72c0,0-9.36,2.74-13.93-8.45,0,0-11.42-17.13-1.37-22.38,10.05-5.25,16.9,8.68,16.9,8.68,0,0-14.84-41.33,7.76-59.14,0,0,27.63-26.03,70.33-5.71Z"/>
      <path class="cls-46" d="M959.82,232.95s8.01-2.47,17.54,.24c0,0,8.24-1.65,15.66,0,0,0-.82,13.3-13.3,16.25-12.48,2.94-20.13-8.71-19.9-16.48Z"/>
      <path class="cls-30" d="M961.82,233.9s-.12,11.77,15.19,11.77c13.9,0,14.01-10.48,14.01-10.48,0,0-15.66,.71-29.2-1.3Z"/>
      <path class="cls-48" d="M964.47,186.14s-13.4-3.98-25.17,.91c0,0,5.79-9.05,25.53-4.89,0,0,3.26,2.53-.36,3.98Z"/>
      <path class="cls-48" d="M1005.2,184.67c-9.62-1.43-14.29,1.46-14.29,1.46-3.62-1.45-.36-3.98-.36-3.98,6.15-1.3,10.95-1.31,14.64-.72,0,0,.55,3.32,.02,3.24Z"/>
      <path class="cls-26" d="M963.72,234.06s3.79,5.45,15.64,4.88c0,0,7.43,0,10.49-3.89,0,0-15.39,.7-26.13-.99Z"/>
      <path class="cls-10" d="M980.78,200.11l6.28,13.28s6.22,10.56-.52,12.15c-6.08,1.43-6.24,.24-6.24,.24"/>
      <path class="cls-10" d="M899.07,208.58s3.89-5.89,8.24,.12c4.36,6,4.59,8.01,4.59,8.01,0,0-6.24-9.54-8.71-1.88"/>
      <path class="cls-59" d="M895.78,203.02s7.5-7.33,13.66,.33c6.16,7.66,5.33,11.33,5.33,11.33l5.33-.33s-4.91-29.61,6.42-50.26c0,0,33.31-32.21,72.4-8.82,0,0,13.2-16.15,3.5-26.95-6.48-7.22-18.36-14.74-47.85-10.35,0,0-37.65,5.5-44.23,23.79,0,0-8.39,1.39-15,24.83-7.14,25.33,.43,36.43,.43,36.43Z"/>
      <path class="cls-63" d="M974.78,268.32s-13.97,2.02-25.65-2.77c0,0-7.09-1.8-16.87-11.88,0,0,9.76,15.11,27.05,16.37,0,0,7.78,1.37,15.47-1.72,0,0-.29,1.69,0,0Z"/>
      <g>
        <path class="cls-26" d="M948.38,195.55s-.02-.37,.25-.69c.87-1.05,2.89-3.04,6.19-3.16,3.69-.14,5.85,3.25,6.59,4.46,.13,.21,.12,.4,.12,.4,0,0,.02,.2-.1,.35-.56,.71-2.45,2.69-5.95,2.87-2.08,.11-5.04-.9-6.95-3.65-.13-.19-.15-.44-.15-.58Z"/>
        <circle class="cls-63" cx="956.01" cy="195.92" r="3.82"/>
        <circle class="cls-26" cx="953.58" cy="195.23" r="1.05"/>
        <path class="cls-6" d="M961.63,196.16s-4.82-8.64-13.15-1.32"/>
      </g>
      <g>
        <path class="cls-26" d="M991.03,197.07s-.07-.34,.13-.68c.66-1.11,2.26-3.24,5.3-3.83,3.41-.66,5.9,2.19,6.76,3.21,.15,.18,.17,.35,.17,.35,0,0,.05,.19-.04,.34-.42,.74-1.9,2.85-5.12,3.52-1.92,.4-4.81-.12-6.99-2.4-.15-.16-.2-.39-.22-.51Z"/>
        <circle class="cls-63" cx="998.18" cy="196.32" r="3.58"/>
        <circle class="cls-26" cx="995.71" cy="196.11" r="1"/>
        <path class="cls-6" d="M1003.3,195.88s-5.55-7.88-12.23,.67"/>
      </g>
      <path class="cls-59" d="M998.92,155.26s5.4,13.62,5.15,23.45c0,0,5.25-16.16-1.55-32.63"/>
      <path class="cls-59" d="M989.36,263.48c-7.37,6.01-14.58,4.84-14.58,4.84-7.13,2-16.41-.26-16.41-.26-15.41-1.64-26.11-14.4-26.11-14.4,13.94,12.69,18.2,12,20.71,11.83,5.21-.35,3.38-7.12,3.38-7.12-1.33-13.75,3.47-25.43,3.47-25.43,0,0-2.73,24.71,17.73,24.71,13.58,0,15.47-24.47,15.47-24.47,1.14,12-.64,20.96-2.09,25.91,0,0,.34,2.1,3.03-2.95,0,0-1.35,4.68-4.6,7.33Z"/>
      <path class="cls-59" d="M959.82,232.95s5.86-3.42,10.93-3.67c0,0,5.52-.34,5.52-1.82,0,0,2.72,.3,6.81-.15,0,0-.22,.74,1.87,1.85s6.26,.89,8.07,4.02c0,0-4.86-1.43-15.66,0,0,0-7.11-2.42-17.54-.24Z"/>
      <path class="cls-22" d="M1036.6,329.63l-1.22,42.86s-.92,5.51-6.12,5.51c-5.2,0-30-3.06-30-3.06,0,0-5.2-1.53-5.2-7.35s.61-41.02,.61-41.02l41.94,3.06Z"/>
      <path class="cls-48" d="M976.9,377.35c-17.98-31.93-48.76-53.57-88.02-53.57s-67.48,20.15-85.85,50.54l-14.62-.12c16.61-39.56,55.72-67.34,101.31-67.34s86.75,29.39,102.38,71l-15.21-.51Z"/>
      <path class="cls-22" d="M912.97,258.68s-9.81,5.88-12.8,13c0,0,6.88,26.05,31.34,37.49,0,0,2.37-12.62,11.44-16.96,0,0-19.33-11.44-29.98-33.53Z"/>
      <path class="cls-22" d="M982,265.78s0,17.36-10.65,26.43c0,0,11.04,6.31,10.26,17.75,0,0,11.04-2.37,13.02-39.84,0,0-1.97-5.13-12.62-4.34Z"/>
      <path class="cls-22" d="M1057.73,366.37s13.02,5.52,12.62,13.81c0,0,5.52-.79,14.99,.79,0,0,0-11.44-7.89-16.17,0,0-12.62-3.55-19.72,1.58Z"/>
      <path class="cls-3" d="M1069.16,328.31l-4.61,36.31s23.63-2.88,35.73-.58"/>
      <path class="cls-45" d="M1057.73,366.37s-33.8,6.95-45.09,12c0,0,32.62,1.77,57.72,1.8,0,0,.47-7.63-12.62-13.81Z"/>
      <path class="cls-3" d="M851.61,331.52s6.92,20.85,7.88,42.14"/>
      <path class="cls-3" d="M959.96,355.95s.21,11.08,.21,20.76"/>
      <ellipse class="cls-48" cx="948.07" cy="356.56" rx="2.11" ry="2"/>
      <path class="cls-23" d="M795.08,334.33s-6.82-3.27-9.31-1.55c-2.49,1.72-10.96,8.85-12.7,13.02-1.74,4.18,1.43,9.4,5.42,9.64,0,0,5.39-10.3,16.6-21.11Z"/>
      <path class="cls-45" d="M824.23,353.98s5.56,5.37,9.2,1.15-.77-11.31-.77-11.31c0,0-8.82-12.46-22.43-15.72,0,0-6.9-2.68-7.86,2.88,0,0-6.13-3.64-11.88,3.45,0,0-4.6,3.07-1.73,5.94,0,0-5.75-1.73-7.48,9.39l-3.64,4.22s-2.88,11.69,10.73,14.18c13.61,2.49,16.87,1.73,16.87,1.73,0,0,2.3-.77,1.92-2.88,0,0,7.67,1.34,7.86-6.71,0,0,10.93,1.53,9.2-6.33Z"/>
      <path class="cls-12" d="M824.23,353.98s-5.75-9.78-20.7-14.18"/>
      <line class="cls-12" x1="815.03" y1="360.3" x2="794.52" y2="349.18"/>
      <path class="cls-12" d="M807.17,367.01s-8.63-6.71-18.02-8.63"/>
      <path class="cls-48" d="M772.99,349.73s9.69-4.19,15.06-16.92c0,0-1.48-.28-3.54,1.44s-6.41,5.06-10.68,10.98c0,0-.98,2.5-.84,4.5Z"/>
      <path class="cls-48" d="M790.99,368.63c-16.8-1.38-13.92-13.52-13.92-13.52,0,0-2.35-1.05-3.13-2.34,0,0-3.87,17.12,15.83,17.98l1.22-2.12Z"/>
    </g>
    <g class="cls-64">
      <g>
        <path class="cls-43" d="M664.96,856.26s-211.26-1.49-327.41,8.55c-69.5,6.01-67.4,69.85-67.4,119.02h407.24l-12.43-127.57Z"/>
        <rect class="cls-48" x="1059.69" y="835.08" width="166.17" height="427.48" rx="6.28" ry="6.28"/>
        <path class="cls-31" d="M342.13,928.05s-170.69,16.68-223.66,3.92c-52.97-12.75-70.63-72.59-70.63-72.59C17.42,698.5,15.46,590.59,15.46,590.59l35.32-73.57c19.62-30.41,60.82-65.73,60.82-65.73,0,0,103-273.69,129.49-319.8,26.49-46.11,76.52-46.11,76.52-46.11l247.21-7.85s45.89-3.74,69.58-2.07c0,0,46.58-14.89,72.09-11.94l318.3,25.46s45.36,3.98,63.66,60.48c16.39,50.58,68.4,301.83,68.4,301.83,0,0,41.2,35.32,60.82,65.73l35.32,73.57s-1.96,107.91-32.37,268.79c0,0-17.66,59.84-70.63,72.59-52.97,12.75-223.66-3.92-223.66-3.92"/>
        <path class="cls-34" d="M633.85,402.19c232.09-7.7,483.75,9.63,483.75,9.63,0,0-33.35-192.15-38.24-214.16-13.19-59.34-54.07-85.6-54.07-85.6-130.01-23.11-392.23-28.65-392.23-28.65,0,0-181.62,6.82-351.58,32.25,0,0-27.29,43.85-34.99,65.03-7.7,21.19-86.67,231.13-86.67,231.13,0,0,242.68-17.33,474.77-9.63"/>
        <path class="cls-39" d="M736.94,401.65l5.73-59.99s1.56-36.98,45.31-46.87l123.44,.52s54.69,5.73,64.58,45.83c9.9,40.1,7.8,64.33,7.8,64.33"/>
        <rect class="cls-48" x="569.67" y="116.29" width="139.55" height="59.06" rx="9.74" ry="9.74"/>
        <rect class="cls-48" x="630.78" y="99.63" width="17.03" height="17.03"/>
        <path class="cls-11" d="M887.12,679.16s79.42-181.54,170.86-229.6"/>
        <line class="cls-11" x1="1068.66" y1="440.89" x2="1085.35" y2="432.88"/>
        <line class="cls-11" x1="876.44" y1="697.85" x2="868.43" y2="715.2"/>
        <path class="cls-11" d="M1146.08,472.26s-3.34,36.04-10.68,57.4"/>
        <path class="cls-31" d="M1156.84,451.29s3.26-33.76,12.6-55.12c0,0,4.67-12.01,21.36-10.68,0,0,37.38,6.67,64.74,20.02,27.36,13.35,2.67,34.04,2.67,34.04,0,0-12.01,13.35-29.37,14.02-17.35,.67-30.7,4.67-30.7,4.67l-6.01,26.03"/>
        <path class="cls-39" d="M531.5,400.56l-5.73-58.91s-1.56-36.98-45.31-46.87l-123.44,.52s-54.69,5.73-64.58,45.83c-9.9,40.1-5.21,64.84-5.21,64.84"/>
        <path class="cls-11" d="M381.32,679.16s-79.42-181.54-170.86-229.6"/>
        <line class="cls-11" x1="199.78" y1="440.89" x2="183.09" y2="432.88"/>
        <line class="cls-11" x1="392" y1="697.85" x2="400.01" y2="715.2"/>
        <path class="cls-11" d="M122.35,472.26s3.34,36.04,10.68,57.4"/>
        <path class="cls-48" d="M111.6,451.29s-3.26-33.76-12.6-55.12c0,0-4.67-12.01-21.36-10.68,0,0-37.38,6.67-64.74,20.02-27.36,13.35-2.67,34.04-2.67,34.04,0,0,12.01,13.35,29.37,14.02,17.35,.67,30.7,4.67,30.7,4.67l6.01,26.03"/>
        <path class="cls-39" d="M657.82,620.11l500.06,1.86s42.76-3.72,31.6,46.47c-11.15,50.19-53.91,79.93-126.41,96.67l-399.67,3.72"/>
        <path class="cls-61" d="M905.55,639.25l43.72,103h79.68s124.37-4.86,134.09-90.36c0,0,2.91-17.49-25.26-13.6l-232.23,.97Z"/>
        <ellipse class="cls-56" cx="1031.71" cy="685.49" rx="38.48" ry="38.4"/>
        <circle class="cls-44" cx="954.74" cy="679.77" r="24.4"/>
        <circle class="cls-28" cx="1110.77" cy="678.32" r="24.4"/>
        <rect class="cls-61" x="659.51" y="644.56" width="233.59" height="16.14"/>
        <rect class="cls-61" x="659.51" y="684.44" width="246.33" height="16.14"/>
        <rect class="cls-61" x="659.51" y="723.71" width="262" height="16.14"/>
        <path class="cls-47" d="M664.95,779.2h555.76s29.51-1.64,29.51,18.03l-24.59,80.33H663.31"/>
        <path class="cls-53" d="M1225.17,877.09s-12.56,89.99-41.86,89.99c-29.3,0-99.41,0-99.41,0,0,0-20.93,2.09-32.44-19.88-11.51-21.98-32.44-69.06-32.44-69.06l206.15-1.05Z"/>
        <circle class="cls-44" cx="1140.99" cy="922.06" r="24.4"/>
        <path class="cls-62" d="M493.85,887.75s-182.11-2.87-182.11,55.92h187.85l-5.74-55.92Z"/>
        <path class="cls-43" d="M661.16,856.26s211.26-1.49,327.41,8.55c69.5,6.01,67.4,69.85,67.4,119.02h-407.24s12.43-127.57,12.43-127.57Z"/>
        <path class="cls-62" d="M832.27,887.75s182.11-2.87,182.11,55.92h-187.85s5.74-55.92,5.74-55.92Z"/>
        <rect class="cls-53" x="486.3" y="872.06" width="358.17" height="94.99" rx="5.67" ry="5.67"/>
        <rect class="cls-39" x="341.77" y="227.62" width="146.84" height="60.76" rx="12" ry="12"/>
        <rect class="cls-39" x="780.59" y="227.62" width="146.84" height="60.76" rx="12" ry="12"/>
      </g>
      <g>
        <path class="cls-41" d="M867.51,240.81s6.44,20.41-3.96,40.35c0,0,1.34,96.49,56.84,102.12,0,0,40.09-56.5,23.77-103.23l-76.65-39.24Z"/>
        <path class="cls-26" d="M850.26,286.51s-40.67,7.78-70.58,22.73l-69.39,92.71s215.4,.09,398.37,11.36c0,0-16.45-44.26-37.38-62.21,0,0-7.78-23.33-25.12-37.09-17.35-13.76-88.53-29.91-88.53-29.91l-25.67,25.21c-7.18,13.73-10.22,40.58-12.61,66.9,0,0-6.25-35.09-20.34-66.4-5.38-11.96-44.1-15.95-48.75-23.33Z"/>
        <path class="cls-45" d="M712.09,365.03s-5,2.39-4.78,13.91c0,0-.65,3.91-4.78,9.78,0,0-2.19,4.02-1.98,13.36l25.15,.29,3.34-5.83-16.95-31.52Z"/>
        <path class="cls-41" d="M957.88,142.15s12.17,15.28,11.65,53.86c0,0-1.04,9.32,.26,14.24,1.29,4.92,1.81,13.21,.26,18.64-1.55,5.44-13.21,41.95-13.21,41.95,0,0-3.88,10.62-22.01,11.91-18.13,1.29-33.92-4.4-40.91-11.65s-24.08-18.64-26.41-30.3c0,0-10.62,3.11-15.8-9.58,0,0-12.95-19.42-1.55-25.38,11.39-5.96,19.16,9.84,19.16,9.84,0,0-16.83-46.87,8.8-67.07,0,0,31.33-29.52,79.76-6.47Z"/>
        <path class="cls-42" d="M918.89,242.14s9.08-2.8,19.89,.27c0,0,9.35-1.87,17.76,0,0,0-.93,15.09-15.09,18.42-14.15,3.34-22.83-9.88-22.56-18.69Z"/>
        <path class="cls-30" d="M921.16,243.21s-.13,13.35,17.22,13.35c15.76,0,15.89-11.88,15.89-11.88,0,0-17.76,.8-33.11-1.47Z"/>
        <path class="cls-48" d="M924.16,189.05s-15.19-4.52-28.54,1.03c0,0,6.57-10.27,28.95-5.54,0,0,3.7,2.87-.41,4.52Z"/>
        <path class="cls-48" d="M970.35,187.39c-10.91-1.62-16.21,1.66-16.21,1.66-4.11-1.64-.41-4.52-.41-4.52,6.97-1.47,12.41-1.49,16.6-.81,0,0,.62,3.76,.02,3.67Z"/>
        <path class="cls-26" d="M923.31,243.4s4.3,6.18,17.73,5.53c0,0,8.43,0,11.9-4.41,0,0-17.45,.79-29.63-1.13Z"/>
        <path class="cls-10" d="M942.65,204.89l7.13,15.06s7.05,11.98-.58,13.78c-6.89,1.62-7.08,.27-7.08,.27"/>
        <path class="cls-10" d="M850,214.5s4.41-6.68,9.35,.13c4.94,6.81,5.21,9.08,5.21,9.08,0,0-7.08-10.81-9.88-2.14"/>
        <path class="cls-48" d="M846.26,208.19s8.5-8.31,15.49,.38c6.99,8.69,6.04,12.84,6.04,12.84l6.04-.38s-5.57-33.58,7.28-57c0,0,37.78-36.52,82.1-10,0,0,14.97-18.31,3.97-30.56-7.35-8.19-20.82-16.72-54.26-11.73,0,0-42.7,6.23-50.15,26.98,0,0-9.52,1.58-17.01,28.16-8.1,28.72,.49,41.31,.49,41.31Z"/>
        <path class="cls-63" d="M935.85,282.25s-15.85,2.29-29.09-3.15c0,0-8.04-2.04-19.13-13.47,0,0,11.07,17.14,30.68,18.57,0,0,8.83,1.56,17.54-1.95,0,0-.33,1.92,0,0Z"/>
        <g>
          <path class="cls-26" d="M905.91,199.72s-.02-.42,.28-.78c.99-1.2,3.28-3.45,7.02-3.59,4.18-.16,6.63,3.69,7.47,5.06,.14,.24,.14,.45,.14,.45,0,0,.02,.23-.11,.4-.64,.8-2.78,3.05-6.74,3.25-2.36,.12-5.71-1.02-7.88-4.14-.15-.22-.17-.5-.17-.65Z"/>
          <circle class="cls-63" cx="914.57" cy="200.14" r="4.33"/>
          <circle class="cls-26" cx="911.81" cy="199.36" r="1.19"/>
          <path class="cls-6" d="M920.94,200.41s-5.46-9.79-14.91-1.5"/>
        </g>
        <g>
          <path class="cls-26" d="M954.27,201.45s-.08-.39,.15-.77c.75-1.25,2.56-3.68,6.01-4.34,3.87-.74,6.7,2.48,7.67,3.64,.17,.2,.19,.4,.19,.4,0,0,.05,.21-.05,.39-.48,.83-2.15,3.23-5.8,3.99-2.17,.45-5.46-.13-7.92-2.73-.17-.18-.23-.44-.25-.58Z"/>
          <circle class="cls-63" cx="962.38" cy="200.59" r="4.06"/>
          <circle class="cls-26" cx="959.59" cy="200.36" r="1.14"/>
          <path class="cls-6" d="M968.2,200.1s-6.29-8.93-13.87,.76"/>
        </g>
        <path class="cls-48" d="M963.22,154.04s6.12,15.45,5.84,26.59c0,0,5.95-18.33-1.75-37"/>
        <path class="cls-22" d="M1005.95,351.78l-1.39,48.61s-1.04,6.25-6.94,6.25c-5.9,0-34.02-3.47-34.02-3.47,0,0-5.9-1.74-5.9-8.33s.69-46.52,.69-46.52l47.56,3.47Z"/>
        <path class="cls-48" d="M938.25,405.89c-20.39-36.21-55.3-60.75-99.81-60.75s-76.52,22.85-97.35,57.31l-16.58-.13c18.84-44.86,63.18-76.37,114.89-76.37s98.38,33.33,116.1,80.51l-17.25-.57Z"/>
        <path class="cls-22" d="M865.76,271.31s-11.13,6.67-14.51,14.74c0,0,7.8,29.54,35.54,42.52,0,0,2.68-14.31,12.97-19.23,0,0-21.92-12.97-34-38.02Z"/>
        <path class="cls-22" d="M944.04,279.36s0,19.68-12.08,29.97c0,0,12.52,7.16,11.63,20.13,0,0,12.52-2.68,14.76-45.18,0,0-2.24-5.82-14.31-4.92Z"/>
        <path class="cls-22" d="M1029.92,393.43s14.76,6.26,14.31,15.66c0,0,6.26-.89,17,.89,0,0,0-12.97-8.95-18.34,0,0-14.31-4.03-22.37,1.79Z"/>
        <path class="cls-3" d="M1042.88,350.27l-5.23,41.17s26.8-3.27,40.52-.65"/>
        <path class="cls-41" d="M1029.92,393.43s-38.33,7.88-51.14,13.61c0,0,36.99,2.01,65.45,2.05,0,0,.53-8.66-14.31-15.66Z"/>
        <path class="cls-3" d="M796.17,353.91s7.84,23.65,8.94,47.79"/>
        <path class="cls-3" d="M919.04,381.62s.23,12.57,.23,23.54"/>
        <ellipse class="cls-48" cx="905.56" cy="382.31" rx="2.39" ry="2.27"/>
        <path class="cls-23" d="M732.07,357.1s-7.74-3.71-10.56-1.76c-2.82,1.95-12.43,10.03-14.4,14.77-1.98,4.74,1.62,10.66,6.14,10.93,0,0,6.11-11.68,18.82-23.94Z"/>
        <path class="cls-45" d="M765.13,379.38s6.3,6.09,10.43,1.3c4.13-4.78-.87-12.82-.87-12.82,0,0-10-14.13-25.43-17.82,0,0-7.83-3.04-8.91,3.26,0,0-6.96-4.13-13.48,3.91,0,0-5.22,3.48-1.96,6.74,0,0-6.52-1.96-8.48,10.65l-4.13,4.78s-3.26,13.26,12.17,16.09c15.43,2.83,19.13,1.96,19.13,1.96,0,0,2.61-.87,2.17-3.26,0,0,8.69,1.52,8.91-7.61,0,0,12.39,1.74,10.43-7.17Z"/>
        <path class="cls-12" d="M765.13,379.38s-6.52-11.09-23.48-16.09"/>
        <line class="cls-12" x1="754.69" y1="386.55" x2="731.44" y2="373.94"/>
        <path class="cls-12" d="M745.78,394.16s-9.78-7.61-20.43-9.78"/>
        <path class="cls-48" d="M707.02,374.57s10.99-4.75,17.08-19.19c0,0-1.67-.32-4.01,1.63s-7.27,5.74-12.11,12.45c0,0-1.11,2.84-.95,5.1Z"/>
        <path class="cls-48" d="M727.43,396c-19.05-1.57-15.79-15.33-15.79-15.33,0,0-2.67-1.19-3.54-2.65,0,0-4.39,19.41,17.95,20.38l1.38-2.41Z"/>
      </g>
    </g>
  </g>
</svg>