<?xml version="1.0" encoding="UTF-8"?>
<svg xmlns="http://www.w3.org/2000/svg" xmlns:xlink="http://www.w3.org/1999/xlink" viewBox="0 0 1343.1 1504.58">
  <defs>
    <style>
      .cls-1, .cls-2, .cls-3, .cls-4, .cls-5, .cls-6, .cls-7, .cls-8, .cls-9, .cls-10 {
        fill: none;
      }

      .cls-11 {
        clip-path: url(#clippath);
      }

      .cls-2 {
        stroke-width: .8px;
      }

      .cls-2, .cls-12, .cls-13, .cls-14, .cls-15, .cls-3, .cls-4, .cls-5, .cls-6, .cls-7, .cls-8, .cls-9, .cls-10 {
        stroke-miterlimit: 10;
      }

      .cls-2, .cls-3 {
        stroke: #231f20;
      }

      .cls-12 {
        stroke: #6d6e71;
        stroke-width: .3px;
      }

      .cls-12, .cls-16, .cls-17 {
        fill: #fff;
      }

      .cls-18 {
        fill: #00a79d;
      }

      .cls-19 {
        fill: #006838;
      }

      .cls-20 {
        fill: #f6ac1b;
      }

      .cls-21 {
        fill: #f05380;
      }

      .cls-22 {
        fill: #fff200;
      }

      .cls-23 {
        fill: #f5bc49;
      }

      .cls-24 {
        fill: #ffcc41;
      }

      .cls-25 {
        fill: #803435;
      }

      .cls-26 {
        fill: #8abc5d;
      }

      .cls-27 {
        fill: #9ecb54;
      }

      .cls-28, .cls-14 {
        fill: #8b5e3c;
      }

      .cls-29 {
        fill: #8daf94;
      }

      .cls-30 {
        fill: #8dd5e7;
      }

      .cls-31, .cls-13, .cls-15 {
        fill: #be9e7d;
      }

      .cls-32 {
        fill: #be8c8c;
      }

      .cls-33 {
        fill: #dad0c1;
      }

      .cls-34 {
        fill: #d2d292;
      }

      .cls-35 {
        fill: #d5b79f;
      }

      .cls-36 {
        fill: #231f20;
      }

      .cls-37 {
        fill: #414d21;
      }

      .cls-38 {
        fill: #414042;
      }

      .cls-39 {
        fill: #6ca442;
      }

      .cls-40 {
        fill: #288348;
      }

      .cls-41 {
        fill: #59bede;
      }

      .cls-42 {
        fill: #3aa362;
      }

      .cls-43 {
        fill: #5e8f59;
      }

      .cls-44 {
        fill: #603913;
      }

      .cls-45 {
        fill: #754c29;
      }

      .cls-46 {
        fill: #50804a;
      }

      .cls-47 {
        fill: #26130f;
      }

      .cls-48 {
        fill: #517843;
      }

      .cls-49 {
        clip-path: url(#clippath-1);
      }

      .cls-13, .cls-15, .cls-8, .cls-10 {
        stroke: #603913;
      }

      .cls-13, .cls-10 {
        stroke-width: .5px;
      }

      .cls-14 {
        stroke: #8b5e3c;
      }

      .cls-4 {
        stroke: #006838;
      }

      .cls-5 {
        stroke: #00aeef;
      }

      .cls-6 {
        stroke: #ec008c;
      }

      .cls-7 {
        stroke: #59bede;
      }

      .cls-9 {
        stroke: #a97c50;
      }

      .cls-17 {
        opacity: .8;
      }
    </style>
    <clipPath id="clippath">
      <rect class="cls-1" y="216.28" width="680.04" height="603.25"/>
    </clipPath>
    <clipPath id="clippath-1">
      <rect class="cls-1" x="32.56" y="304.72" width="1286.8" height="910.69"/>
    </clipPath>
  </defs>
  <g id="fondo">
    <rect class="cls-30" x="7.05" y="216.33" width="1333.99" height="505.77"/>
    <path class="cls-26" d="M8.04,551.8s301.24-142.62,339.9-149.29c38.65-6.66,211.94,18.66,409.21,151.95l582.49,58.65,.84,97.69L6.78,722.74l1.26-170.93Z"/>
    <rect class="cls-40" x="6.89" y="721.13" width="1332.55" height="494.34"/>
    <path class="cls-16" d="M231.32,291.45l-92.77-1.84s-21.27-6.75-20.21-19.29c1.84-21.62,19.29-20.21,19.29-20.21,0,0,.92-24.8,28.47-24.8,0,0,21.12-1.84,21.12,24.8,0,0,11.02-17.45,29.39-6.43,0,0,12.86,13.78,1.84,21.12,0,0,23.88-16.53,30.31,4.59,0,0,5.51,22.96-17.45,22.04"/>
    <path class="cls-16" d="M1308.07,308.85l-92.77-1.84s-21.27-6.75-20.21-19.29c1.84-21.62,19.29-20.21,19.29-20.21,0,0,.92-24.8,28.47-24.8,0,0,21.12-1.84,21.12,24.8,0,0,11.02-17.45,29.39-6.43,0,0,12.86,13.78,1.84,21.12,0,0,23.88-16.53,30.31,4.59,0,0,5.51,22.96-17.45,22.04"/>
    <path class="cls-17" d="M536.93,374.03l-67.43-1.34s-15.46-4.91-14.69-14.02c1.34-15.71,14.02-14.69,14.02-14.69,0,0,.67-18.03,20.7-18.03,0,0,15.36-1.34,15.36,18.03,0,0,8.01-12.69,21.36-4.67,0,0,9.35,10.01,1.34,15.36,0,0,17.36-12.02,22.03,3.34,0,0,4.01,16.69-12.69,16.02"/>
    <path class="cls-17" d="M1047.9,275.49l-57.68-1.14s-13.23-4.2-12.56-11.99c1.14-13.44,11.99-12.56,11.99-12.56,0,0,.57-15.42,17.7-15.42,0,0,13.13-1.14,13.13,15.42,0,0,6.85-10.85,18.27-4,0,0,7.99,8.57,1.14,13.13,0,0,14.85-10.28,18.84,2.86,0,0,3.43,14.28-10.85,13.71"/>
    <g>
      <polygon class="cls-29" points="1222.69 660.52 1221.02 723.31 1231.06 723.31 1231.06 661.36 1222.69 660.52"/>
      <polygon class="cls-29" points="1155.71 660.52 1154.87 723.31 1159.9 723.31 1159.9 661.36 1155.71 660.52"/>
      <polygon class="cls-29" points="1036.82 660.52 1035.99 723.31 1041.01 723.31 1041.01 661.36 1036.82 660.52"/>
      <polygon class="cls-29" points="964.82 660.52 963.98 723.31 969.01 723.31 969.01 661.36 964.82 660.52"/>
      <polygon class="cls-29" points="537.12 660.52 536.29 723.31 541.31 723.31 541.31 661.36 537.12 660.52"/>
      <polygon class="cls-29" points="755.51 660.52 754.67 723.31 759.7 723.31 759.7 661.36 755.51 660.52"/>
      <polygon class="cls-29" points="461.14 662.2 459.68 724.99 468.47 724.99 468.47 663.03 461.14 662.2"/>
      <polygon class="cls-29" points="702.97 662.2 701.51 724.99 710.3 724.99 710.3 663.03 702.97 662.2"/>
      <polygon class="cls-29" points="147.33 662.2 145.86 724.99 154.65 724.99 154.65 663.03 147.33 662.2"/>
      <polygon class="cls-29" points="99.25 662.2 97.79 724.99 106.58 724.99 106.58 663.03 99.25 662.2"/>
      <polygon class="cls-29" points="32.86 662.2 32.08 724.99 36.75 724.99 36.75 663.03 32.86 662.2"/>
      <ellipse class="cls-29" cx="1232.74" cy="632.47" rx="67.82" ry="59.03"/>
      <ellipse class="cls-29" cx="966.62" cy="628.16" rx="61.2" ry="59.03"/>
      <ellipse class="cls-29" cx="539.79" cy="638.95" rx="61.2" ry="59.03"/>
      <ellipse class="cls-29" cx="115.93" cy="653.84" rx="61.2" ry="59.03"/>
      <ellipse class="cls-29" cx="54.22" cy="640" rx="45.19" ry="59.03"/>
      <ellipse class="cls-29" cx="465.64" cy="634.63" rx="35.32" ry="59.03"/>
      <ellipse class="cls-29" cx="1065.81" cy="631.03" rx="79.36" ry="59.03"/>
      <path class="cls-29" d="M1341.26,708.77c-36.19,0-65.52-26.43-65.52-59.03s29.33-59.03,65.52-59.03"/>
      <ellipse class="cls-29" cx="1155.86" cy="623.84" rx="32.43" ry="59.03"/>
    </g>
    <g>
      <path class="cls-28" d="M964.97,973.37s13.27-151.81,6.64-227.3l-68.25-100.74,14.01-6.64,62.77,86.87,3.79-82.88h14.22l-3.79,134.58,2.84,197.76s-15.17,7.39-32.23-1.64Z"/>
      <path class="cls-39" d="M744.61,630.23s-110.37,38.54-35.04,101.61c0,0,87.6,12.26,131.4-47.3,0,0,36.79,36.79,84.09,8.76,0,0,29.78,36.79,77.09,10.51,0,0,64.82,49.05,115.63,10.51,0,0,47.3,29.78,73.58,1.75,0,0,89.35,35.04,87.6-22.78-1.75-57.81-43.8-66.57-43.8-66.57,0,0,71.83-26.28,19.27-94.61-52.56-68.33-126.14-29.78-126.14-29.78l-383.68,127.89Z"/>
      <path class="cls-27" d="M770.24,486.33s-52.21,39.55-47.46,91.77c4.75,52.21,33.23,94.93,120.24,61.7,0,0,63.29,71.2,199.35,18.99,0,0,106,45.88,136.07-25.31,30.06-71.2-25.31-60.12-25.31-60.12,0,0,72.78-181.95-87.02-153.47,0,0-20.57-34.81-90.18-15.82,0,0-9.49-12.66-34.81-3.16,0,0-30.06-74.36-85.44,6.33,0,0-90.18-15.82-85.44,79.11Z"/>
      <path class="cls-42" d="M754.22,524.75s-32.6,26.21-10.63,45.56c21.97,19.35,32.31,11.06,32.31,11.06,0,0,1.05,42.66,45.72,49.7,0,0,25.15,1.39,33.96-28.46,0,0,10.49,34.6,40.81,33.75,30.31-.84,23.17-21.96,23.17-21.96,0,0,26.93,8.58,38.44-25.75,0,0,27.88-18.36,3.22-44.68,0,0-1.93-53.89-47.75-42.52,0,0-2.9-11.68-18.63-2.05,0,0-14.32-30.79-42.65-6.59,0,0-23.5-40.91-53.43-7.73,0,0-44.43-13.78-44.53,39.66Z"/>
    </g>
    <g class="cls-11">
      <g>
        <rect class="cls-39" x="153.79" y="158.66" width="402.26" height="255.18"/>
        <path class="cls-40" d="M251.35,66.57s-26.25,32.57-.66,46.78c25.6,14.21,33.93,3.9,33.93,3.9,0,0,10.14,41.46,55.28,38.79,0,0,24.86-4.01,27.09-35.05,0,0,17.64,31.56,47.07,24.26,29.43-7.3,17.94-26.41,17.94-26.41,0,0,28.14,2.63,32.05-33.37,0,0,23.31-23.89-6.4-44.33,0,0-13.39-52.24-55.73-31.34,0,0-5.33-10.79-18.64,1.97,0,0-20.56-27.02-43.07,2.68,0,0-31.7-34.94-53.84,3.86,0,0-46.35-3.97-35.03,48.26Z"/>
        <path class="cls-40" d="M455.29,241s-26.25,32.57-.66,46.78c25.6,14.21,33.93,3.9,33.93,3.9,0,0,10.14,41.46,55.28,38.79,0,0,24.86-4.01,27.09-35.05,0,0,17.64,31.56,47.07,24.26,29.43-7.3,17.94-26.41,17.94-26.41,0,0,28.14,2.63,32.05-33.37,0,0,23.31-23.89-6.4-44.33,0,0-13.39-52.24-55.73-31.34,0,0-5.33-10.79-18.64,1.97,0,0-20.56-27.02-43.07,2.68,0,0-31.7-34.94-53.84,3.86,0,0-46.35-3.97-35.03,48.26Z"/>
        <path class="cls-40" d="M87.98,141.23s-26.25,32.57-.66,46.78c25.6,14.21,33.93,3.9,33.93,3.9,0,0,10.14,41.46,55.28,38.79,0,0,24.86-4.01,27.09-35.05,0,0,17.64,31.56,47.07,24.26,29.43-7.3,17.94-26.41,17.94-26.41,0,0,28.14,2.63,32.05-33.37,0,0,23.31-23.89-6.4-44.33,0,0-13.39-52.24-55.73-31.34,0,0-5.33-10.79-18.64,1.97,0,0-20.56-27.02-43.07,2.68,0,0-31.7-34.94-53.84,3.86,0,0-46.35-3.97-35.03,48.26Z"/>
        <path class="cls-40" d="M300.3,493.5s-24.11,34.19,2.35,46.73c26.46,12.54,34.11,1.71,34.11,1.71,0,0,12.78,40.72,57.66,35.16,0,0,24.55-5.6,24.79-36.72,0,0,19.63,30.36,48.54,21.18,28.9-9.18,16.21-27.5,16.21-27.5,0,0,28.25,.82,29.84-35.36,0,0,21.73-25.34-9.23-43.83,0,0-16.72-51.27-57.63-27.7,0,0-6.01-10.43-18.48,3.17,0,0-22.25-25.64-42.81,5.44,0,0-33.88-32.83-53.49,7.31,0,0-46.51-.98-31.86,50.41Z"/>
        <path class="cls-27" d="M433.31,391.36s-37.96,17.59-21.29,41.66c16.66,24.07,28.7,18.52,28.7,18.52,0,0-9.26,41.66,32.4,59.25,0,0,24.07,7.41,39.81-19.44,0,0,1.85,36.11,31.48,42.59,29.63,6.48,27.77-15.74,27.77-15.74,0,0,24.07,14.81,43.51-15.74,0,0,31.48-11.11,13.89-42.59,0,0,11.11-52.77-36.11-52.77,0,0,0-12.04-17.59-6.48,0,0-6.48-33.33-39.81-16.66,0,0-12.96-45.36-49.99-20.37,0,0-39.81-24.07-52.77,27.77Z"/>
        <path class="cls-42" d="M454.23,294.47s-32.6,26.21-10.63,45.56c21.97,19.35,32.31,11.06,32.31,11.06,0,0,1.05,42.66,45.72,49.7,0,0,25.15,1.39,33.96-28.46,0,0,10.49,34.6,40.81,33.75,30.31-.84,23.17-21.96,23.17-21.96,0,0,26.93,8.58,38.44-25.75,0,0,27.88-18.36,3.22-44.68,0,0-1.93-53.89-47.75-42.52,0,0-2.9-11.68-18.63-2.05,0,0-14.32-30.79-42.65-6.59,0,0-23.5-40.91-53.43-7.73,0,0-44.43-13.78-44.53,39.66Z"/>
        <path class="cls-27" d="M448.81,182.83s-26.25,32.57-.66,46.78c25.6,14.21,33.93,3.9,33.93,3.9,0,0,10.14,41.46,55.28,38.79,0,0,24.86-4.01,27.09-35.05,0,0,17.64,31.56,47.07,24.26,29.43-7.3,17.94-26.41,17.94-26.41,0,0,28.14,2.63,32.05-33.37,0,0,23.31-23.89-6.4-44.33,0,0-13.39-52.24-55.73-31.34,0,0-5.33-10.79-18.64,1.97,0,0-20.56-27.02-43.07,2.68,0,0-31.7-34.94-53.84,3.86,0,0-46.35-3.97-35.03,48.26Z"/>
        <path class="cls-42" d="M290.87,121.03s-26.25,32.57-.66,46.78c25.6,14.21,33.93,3.9,33.93,3.9,0,0,10.14,41.46,55.28,38.79,0,0,24.86-4.01,27.09-35.05,0,0,17.64,31.56,47.07,24.26,29.43-7.3,17.94-26.41,17.94-26.41,0,0,28.14,2.63,32.05-33.37,0,0,23.31-23.89-6.4-44.33,0,0-13.39-52.24-55.73-31.34,0,0-5.33-10.79-18.64,1.97,0,0-20.56-27.02-43.07,2.68,0,0-31.7-34.94-53.84,3.86,0,0-46.35-3.97-35.03,48.26Z"/>
        <path class="cls-42" d="M192.77,252.48s-26.25,32.57-.66,46.78c25.6,14.21,33.93,3.9,33.93,3.9,0,0,10.14,41.46,55.28,38.79,0,0,24.86-4.01,27.09-35.05,0,0,17.64,31.56,47.07,24.26,29.43-7.3,17.94-26.41,17.94-26.41,0,0,28.14,2.63,32.05-33.37,0,0,23.31-23.89-6.4-44.33,0,0-13.39-52.24-55.73-31.34,0,0-5.33-10.79-18.64,1.97,0,0-20.56-27.02-43.07,2.68,0,0-31.7-34.94-53.84,3.86,0,0-46.35-3.97-35.03,48.26Z"/>
        <path class="cls-42" d="M62.12,452.68s-3.23,41.71,25.92,38.95c29.15-2.76,30.19-15.97,30.19-15.97,0,0,31.8,28.46,67.53,.73,0,0,18.24-17.37,2.52-44.23,0,0,32.4,16.05,52.54-6.62,20.15-22.67-.14-31.92-.14-31.92,0,0,24.7-13.75,7.56-45.65,0,0,5.71-32.89-30.35-32.95,0,0-40.59-35.51-63.69,5.67,0,0-10.5-5.89-14.26,12.17,0,0-32.24-10.65-34.01,26.57,0,0-45.91-10.89-42.22,33.64,0,0-40.47,22.94-1.59,59.61Z"/>
        <path class="cls-27" d="M158.54,438.14s-28.36,30.75-3.77,46.64c24.59,15.88,33.6,6.15,33.6,6.15,0,0,7.36,42.04,52.58,42.38,0,0,25.07-2.35,29.37-33.17,0,0,15.5,32.66,45.36,27.34,29.85-5.33,19.66-25.15,19.66-25.15,0,0,27.9,4.5,34.2-31.16,0,0,24.85-22.29-3.43-44.66,0,0-9.89-53.01-53.52-34.98,0,0-4.6-11.12-18.73,.73,0,0-18.72-28.33-43.16-.2,0,0-29.3-36.97-53.98,.27,0,0-45.98-7.04-38.16,45.82Z"/>
        <path class="cls-42" d="M32.29,353.02s-3.76,41.67,25.42,39.28c29.18-2.39,30.39-15.59,30.39-15.59,0,0,31.44,28.86,67.51,1.59,0,0,18.46-17.14,3.08-44.2,0,0,32.19,16.46,52.62-5.95,20.43-22.41,.27-31.92,.27-31.92,0,0,24.87-13.43,8.14-45.55,0,0,6.13-32.81-29.93-33.33,0,0-40.13-36.02-63.76,4.86,0,0-10.42-6.02-14.41,11.99,0,0-32.1-11.06-34.34,26.13,0,0-45.76-11.47-42.65,33.1,0,0-40.76,22.43-2.35,59.59Z"/>
        <path class="cls-28" d="M258.25,523.64l41.87,92.71,41.87,7.97s3.99,108.66-9.97,142.55c0,0-9.97,16.95-41.87,27.91,0,0,54.83,32.9,136.57,0,0,0-38.88-12.96-42.87-29.91l-5.98-95.7,55.82-50.84,1-34.89,37.49-23.67-14.24-.55-23,13.14v-19.17l-8.76-7.12-.55,65.72-47.65,44.36-3.29-85.99-33.41-29.58-.55,61.34-33.41-1.64-44.91-88.73-4.17,12.06Z"/>
        <path class="cls-39" d="M259.67,328.57s-37.96,17.59-21.29,41.66c16.66,24.07,28.7,18.52,28.7,18.52,0,0-9.26,41.66,32.4,59.25,0,0,24.07,7.41,39.81-19.44,0,0,1.85,36.11,31.48,42.59,29.63,6.48,27.77-15.74,27.77-15.74,0,0,24.07,14.81,43.51-15.74,0,0,31.48-11.11,13.89-42.59,0,0,11.11-52.77-36.11-52.77,0,0,0-12.04-17.59-6.48,0,0-6.48-33.33-39.81-16.66,0,0-12.96-45.36-49.99-20.37,0,0-39.81-24.07-52.77,27.77Z"/>
        <path class="cls-39" d="M74.45,277.48s-3.76,41.67,25.42,39.28c29.18-2.39,30.39-15.59,30.39-15.59,0,0,31.44,28.86,67.51,1.59,0,0,18.46-17.14,3.08-44.2,0,0,32.19,16.46,52.62-5.95,20.43-22.41,.27-31.92,.27-31.92,0,0,24.87-13.43,8.14-45.55,0,0,6.13-32.81-29.93-33.33,0,0-40.13-36.02-63.76,4.86,0,0-10.42-6.02-14.41,11.99,0,0-32.1-11.06-34.34,26.13,0,0-45.76-11.47-42.65,33.1,0,0-40.76,22.43-2.35,59.59Z"/>
      </g>
    </g>
    <path class="cls-19" d="M212.59,861.85s392.9-16.95,418.82,13.96c25.93,30.91-37.89,44.87-66.81,64.82-28.92,19.94-93.74,28.92-175.51-6.98-81.77-35.9-180.49-22.94-180.49-22.94l3.99-48.86Z"/>
    <path class="cls-39" d="M459.5,857.23s36.6-46.06-10.63-45.21c0,0,21.25-64.82-34.24-57.15,0,0-110.98-57.15-125.15,30.71,0,0-70.56-39.56-88.28,10.77l.96,81.87s73.34,10.68,158.17-1.57c0,0,61.44-8.41,99.17-19.42Z"/>
    <path class="cls-19" d="M1265.06,812.16s-334.85-4.27-534.33,7.12c-199.48,11.4,193.78,19.95,193.78,19.95,0,0,233.68,15.67,349.1,55.57,115.42,39.9-8.55-82.64-8.55-82.64Z"/>
    <rect class="cls-19" x="7.05" y="722.1" width="1333.84" height="27.21"/>
    <g>
      <path class="cls-46" d="M747.44,215.76s-30.08-3.41-66.8,49.38c-36.72,52.79-112.46,189.74-44.37,244.82,0,0,44.37,19.89,71.15-39.02,26.78-58.91,41.31-132.36,41.31-132.36,0,0,51.74-107.94-1.29-122.83Z"/>
      <path class="cls-27" d="M703.31,695.25s52.11-55.75,157.55-12.12c105.44,43.63,101.8,81.2,101.8,81.2,0,0-4.85,21.81-35.15,14.54l-36.36-12.12-10.91-33.93-4.85,25.45-54.54-14.54-8.48-30.3-3.64,26.66s-94.53-12.12-105.44-44.84Z"/>
      <path class="cls-39" d="M742.32,573.35s49.09-69.19,167.11-31.52c118.03,37.67,118.63,80.76,118.63,80.76,0,0-2.58,25.32-35.86,20.48l-40.35-9.67-15.73-37.31-2.14,29.45-60.09-10.37-12.7-33.46-.7,30.69s-102.59-3.11-118.17-39.05Z"/>
      <path class="cls-27" d="M719.65,486.45s-11.7-84.02,100.06-137.51c111.75-53.49,141.73-22.54,141.73-22.54,0,0,15.48,20.2-12.07,39.49l-36,20.62-37.03-16.38,18.63,22.91-50.86,33.64-32.18-15.65,20.53,22.83s-76.82,68.06-112.8,52.58Z"/>
      <path class="cls-43" d="M662.23,553.21s1.29-84.83,119.91-120.59c118.62-35.77,143.51-.6,143.51-.6,0,0,12.21,22.33-17.97,37.18l-38.73,14.87-34.09-21.85,14.91,25.49-55.4,25.47-29.41-20.39,16.8,25.7s-86.33,55.51-119.52,34.72Z"/>
      <path class="cls-48" d="M753.78,534.35s36.6-83.94,178.71-88.61c142.11-4.66,154.21,36.76,154.21,36.76,0,0,3.83,25.37-34.71,32.27l-47.73,4.7-27.5-30.58,5.41,29.21-70.01,10.89-23.09-27.91,7.36,29.9s-115.66,32.69-142.64,3.38Z"/>
      <path class="cls-39" d="M629.13,568.43s23.34-88.55-85.25-180.34c-108.59-91.79-143.77-66.8-143.77-66.8,0,0-18.74,17.53,7.22,46.84l34.53,33.28,40.54-6.94-22.36,19.56,48.18,51.96,35.42-7.58-24.31,18.9s70.47,97.37,109.8,91.11Z"/>
      <path class="cls-27" d="M507.53,515.72s-1.06-91.57-130.17-151.15c-129.1-59.58-156.36-26.12-156.36-26.12,0,0-13.4,21.88,19.43,43.23l42.14,22.89,37.23-17.48-16.35,24.8,60.27,37.26,32.13-16.73-18.41,24.69s93.84,75.11,130.09,58.6Z"/>
      <path class="cls-39" d="M507.67,519.32s-41.3-81.73-183.45-78.32c-142.15,3.41-151.88,45.45-151.88,45.45,0,0-2.39,25.54,36.49,30.25l47.92,1.98,25.72-32.1-3.75,29.47,70.52,6.9,21.47-29.18-5.65,30.27s117.33,26.07,142.6-4.71Z"/>
      <path class="cls-27" d="M504.8,509.64s-72.08-56.49-199.35,6.9c-127.28,63.39-118.25,105.59-118.25,105.59,0,0,8.68,24.14,45.87,11.91l44.24-18.53,9.68-39.98,9.11,28.27,66.78-23.67,7.06-35.53,7.73,29.81s117.31-26.16,127.13-64.76Z"/>
      <path class="cls-39" d="M536.77,654.06s-64.36-65.14-198.63-18.35c-134.27,46.8-130.65,89.8-130.65,89.8,0,0,5.56,25.05,44,17.61l46.22-12.8,14.65-38.43,5.46,29.2,69.24-15.04,11.5-34.35,3.9,30.55s119.68-11.13,134.3-48.18Z"/>
      <path class="cls-48" d="M572.2,551.63s-25.45-81.15-139.61-63.96c-114.15,17.19-125.87,61.91-125.87,61.91,0,0-4.29,26.83,26.4,28l38.19-2.54,23.59-35.89-5.75,31.05,55.83,.41,19.91-32.44-7.35,32.07s91.53,15.89,114.64-18.6Z"/>
      <path class="cls-39" d="M578.67,1120.59s15.66-207.87,15.66-348.82c0,0,35.59,45.56,34.17,59.8,0,0,1.55-73.31,74.81-136.32l13.46,13.88s-61.22,25.63-72.61,130.99c-11.39,105.36,25.63,290.45,25.63,290.45l-91.12-9.97Z"/>
      <path class="cls-46" d="M628.5,831.57s-14.02-40.26-34.17-59.8c0,0-21.39-92.44-68.34-108.5l10.77-9.21s39.89,30.22,57.19,66.05c0,0-24.71-102.56-88.97-148.28l23.48-2.47s65.49,90.2,75.37,119.86c9.89,29.66,6.18,56.84,6.18,56.84l9.89-17.3s-2.47-140.86,49.43-189.05l6.98,10.37s-37.87,67.47-35.4,142.85c0,0,32.98-114.5,112.87-158.57l30.47,5.36s-88.97,22.24-128.51,177.93c0,0-13.59,34.6-9.89,45.72,0,0-22.34,51.17-17.35,68.22Z"/>
      <path class="cls-39" d="M572.2,551.63s42.79,32.03,39.52,89.26c0,0,53.96-322.12,135.71-425.13l13.08,8.18s-122.63,206.02-117.73,358.09c0,0-26.15,111.98-22.89,146.74l-9.89,17.3-6.18-56.84s1.34-79.4-44.44-131.72l12.8-5.87Z"/>
      <path class="cls-24" d="M409.88,736.34s-10.47-17.01-13.74-4.58c-3.27,12.43,7.2,54.95,41.21,62.14,0,0,5.89,0,10.47-1.31,4.58-1.31,9.16,4.58,20.28,0,0,0,9.81,6.54,18.32-1.31,0,0,11.77,2.62,17.66-1.31,0,0,7.2,9.16,18.97,5.23,0,0,5.89,5.89,16.35,0,0,0,35.98-17.01,28.13-63.45,0,0-13.74-6.54-14.39,5.89,0,0-8.5-18.97-20.28-1.96l-5.89,7.85s-.65-18.97-8.5-18.32c-7.85,.65-18.97,20.28-18.97,20.28,0,0-8.5-33.36-17.01-24.2-8.5,9.16-10.47,28.78-10.47,28.78,0,0-24.86-37.28-29.43-23.55s-1.96,25.51-1.96,25.51c0,0-15.04-32.05-20.93-26.82-5.89,5.23-9.81,11.12-9.81,11.12Z"/>
      <ellipse class="cls-37" cx="564.25" cy="725.55" rx="3.27" ry="6.21"/>
      <ellipse class="cls-37" cx="544.6" cy="725.33" rx="3.27" ry="6.21"/>
      <ellipse class="cls-37" cx="520.65" cy="721.65" rx="3.27" ry="6.21"/>
      <ellipse class="cls-37" cx="482.4" cy="718.61" rx="3.27" ry="6.21"/>
      <ellipse class="cls-37" cx="443.45" cy="721.07" rx="3.27" ry="6.21"/>
      <ellipse class="cls-37" cx="420.1" cy="723.01" rx="3.27" ry="6.21"/>
      <ellipse class="cls-37" cx="398.22" cy="723.84" rx="3.27" ry="6.21"/>
      <path class="cls-24" d="M409.88,832.07s-10.47-17.01-13.74-4.58c-3.27,12.43,7.2,54.95,41.21,62.14,0,0,5.89,0,10.47-1.31s9.16,4.58,20.28,0c0,0,9.81,6.54,18.32-1.31,0,0,11.77,2.62,17.66-1.31,0,0,7.2,9.16,18.97,5.23,0,0,5.89,5.89,16.35,0,0,0,35.98-17.01,28.13-63.45,0,0-13.74-6.54-14.39,5.89,0,0-8.5-18.97-20.28-1.96l-5.89,7.85s-.65-18.97-8.5-18.32c-7.85,.65-18.97,20.28-18.97,20.28,0,0-8.5-33.36-17.01-24.2s-10.47,28.78-10.47,28.78c0,0-24.86-37.28-29.43-23.55-4.58,13.74-1.96,25.51-1.96,25.51,0,0-15.04-32.05-20.93-26.82-5.89,5.23-9.81,11.12-9.81,11.12Z"/>
      <ellipse class="cls-37" cx="564.25" cy="821.28" rx="3.27" ry="6.21"/>
      <ellipse class="cls-37" cx="544.6" cy="821.06" rx="3.27" ry="6.21"/>
      <ellipse class="cls-37" cx="520.65" cy="817.38" rx="3.27" ry="6.21"/>
      <ellipse class="cls-37" cx="482.4" cy="814.34" rx="3.27" ry="6.21"/>
      <ellipse class="cls-37" cx="443.45" cy="816.8" rx="3.27" ry="6.21"/>
      <ellipse class="cls-37" cx="420.1" cy="818.74" rx="3.27" ry="6.21"/>
      <ellipse class="cls-37" cx="398.22" cy="819.57" rx="3.27" ry="6.21"/>
      <path class="cls-34" d="M450.75,1154.72s233.74,20.62,336.86,1.96c0,0-1.96-4.91-10.8-7.86l14.73-4.91s-21.61-22.59-55.98-12.77l25.53-10.8s-15.71-25.53-54.02,3.93c0,0,7.86-22.59,18.66-30.45,0,0-39.28,4.91-51.07,23.57,0,0-2.95-30.45,24.55-42.23,0,0-37.32,1.96-48.12,22.59l-71.69-1.96s-15.71-27.5-36.34-24.55c0,0,23.57,12.77,22.59,38.3,0,0-27.5-22.59-40.27-15.71,0,0,18.66,21.61,13.75,33.39,0,0-35.36-26.52-54.02-4.91,0,0,24.55,2.95,24.55,14.73,0,0-42.23-15.71-58.93,17.68Z"/>
    </g>
    <g>
      <path class="cls-29" d="M1343.1,663.24c-22.14,29.96-69.22,8.06-118.71-1.06-49.49-9.12-48.19,37.77-48.19,37.77-29.96,35.17-15.63-10.42-84.66-7.81-69.03,2.6-33.86-109.41-7.81-118.53,26.05-9.12,44.28-65.12,29.96-113.32-14.33-48.19,69.03-135.46,69.03-135.46,0,0,111.31-65.78,157.5,1.59"/>
      <path class="cls-43" d="M1139.37,533.73s-77.66,35.65-78.93,133.68c0,0,66.2-31.83,78.93-133.68Z"/>
      <path class="cls-43" d="M1118.03,645.09s-75.71,39.62-71.91,137.58c0,0,64.47-35.21,71.91-137.58Z"/>
      <path class="cls-43" d="M1188.47,464.54s-85.38,3.58-123.68,93.83c0,0,73.33-4.39,123.68-93.83Z"/>
      <path class="cls-43" d="M1170.97,331.59s-31.49,60.62,15.84,123.09c0,0,26.14-52.59-15.84-123.09Z"/>
      <path class="cls-43" d="M1260.09,329.37s-60.67,31.39-58,109.72c0,0,51.67-27.91,58-109.72Z"/>
      <path class="cls-43" d="M1300.81,511.19s-25.55-63.35-103.79-68.05c0,0,22.93,54.06,103.79,68.05Z"/>
      <path class="cls-43" d="M1170.59,708.85s.52-45.99-46.89-69.16c0,0,.26,39.53,46.89,69.16Z"/>
      <path class="cls-43" d="M1262.2,688.81s.62-54.67-55.75-82.22c0,0,.31,47,55.75,82.22Z"/>
      <path class="cls-43" d="M1205.95,679.34s.43-38.22-38.97-57.47c0,0,.21,32.85,38.97,57.47Z"/>
      <path class="cls-43" d="M1177.43,451.52s-56.32-34.08-119.35,7.52c0,0,48.93,28.43,119.35-7.52Z"/>
      <path class="cls-43" d="M1173.26,497.99s-58.23,50.71-34.33,136.03c0,0,49.28-44.48,34.33-136.03Z"/>
      <path class="cls-43" d="M1111.84,478.99s-50.87-3.4-79.43,47.65c0,0,43.78,2.14,79.43-47.65Z"/>
      <path class="cls-43" d="M1053.44,654.17s-30.95,7.72-38.19,43.59c0,0,26.49-7.11,38.19-43.59Z"/>
      <path class="cls-43" d="M1102.53,729.64s-32.36,32.34-14.77,81.79c0,0,27.32-28.29,14.77-81.79Z"/>
      <path class="cls-43" d="M1070.46,571.07s-60.71,16.53-73.45,87.58c0,0,51.92-15.14,73.45-87.58Z"/>
      <path class="cls-43" d="M1310.9,419.13s-47.1-19.53-90.52,19.68c0,0,40.78,16.06,90.52-19.68Z"/>
      <path class="cls-43" d="M1156.47,433.08s.86-50.98-51.55-76.96c0,0,.04,43.83,51.55,76.96Z"/>
      <path class="cls-43" d="M1315,357.79s-50.99,.26-75.81,53.24c0,0,43.82-1.01,75.81-53.24Z"/>
      <path class="cls-43" d="M1203.04,328.75s-21.14,26.28-4.29,61.12c0,0,17.76-22.91,4.29-61.12Z"/>
      <path class="cls-43" d="M1203.77,478.92s-46.53,54.17-13.29,129.06c0,0,39.16-47.27,13.29-129.06Z"/>
      <path class="cls-43" d="M1218.24,491.41s-15.98,48.18,26.09,88.45c0,0,12.99-41.65-26.09-88.45Z"/>
      <path class="cls-43" d="M1340.93,548.85s-48.86,14.57-57.81,72.38c0,0,41.77-13.27,57.81-72.38Z"/>
      <path class="cls-43" d="M1340.92,501.26s-49.09,13.79-58.95,71.45c0,0,41.98-12.6,58.95-71.45Z"/>
      <path class="cls-43" d="M1316.49,607.55s-43.73,26.22-38.07,84.45c0,0,37.18-23.21,38.07-84.45Z"/>
      <path class="cls-43" d="M1336.08,475.36s-28.37-42.37-86.24-33.81c0,0,25.03,35.98,86.24,33.81Z"/>
      <path class="cls-43" d="M1305.2,378.5s-2.37,33.64,31.34,52.66c0,0,1.52-28.95-31.34-52.66Z"/>
      <path class="cls-23" d="M1259.04,514.64s-19.1,26.74-7.64,52.2c11.46,25.46,15.28,35.65,25.46,21.64,10.19-14,7.64-63.66-17.82-73.84Z"/>
      <path class="cls-23" d="M1293.41,444.61s-19.1,26.74-7.64,52.2c11.46,25.46,15.28,35.65,25.46,21.64,10.19-14,7.64-63.66-17.82-73.84Z"/>
      <path class="cls-23" d="M1122.81,701.79s-19.1,26.74-7.64,52.2c11.46,25.46,15.28,35.65,25.46,21.64,10.19-14,7.64-63.66-17.82-73.84Z"/>
      <path class="cls-23" d="M1163.56,722.16s-19.1,26.74-7.64,52.2c11.46,25.46,15.28,35.65,25.46,21.64,10.19-14,7.64-63.66-17.82-73.84Z"/>
      <path class="cls-14" d="M1341.59,888.1s-17.62,82.32-4.88,130.7c0,0-16.55,28.01-66.2,8.91l36.92-175.69s6.37-45.83-6.37-63.66c-12.73-17.82-29.28-59.84-29.28-59.84,0,0-81.48-35.65-105.67-54.74,0,0,0-12.73,20.37-1.27,20.37,11.46,85.3,59.84,110.76,22.92,25.46-36.92,28.01-64.93,28.01-64.93l-11.46,87.85,28.02,91.93"/>
      <path class="cls-39" d="M1341.81,1014.25l-69.22,10.98s-10.57-18.49-24.44-16.51c0,0,15.85,8.59,15.19,25.76,0,0-18.49-15.19-27.08-10.57,0,0,12.55,14.53,9.25,22.46,0,0-23.78-17.83-36.33-3.3,0,0,16.51,1.98,16.51,9.91,0,0-28.4-10.57-39.63,11.89,0,0,86.4,15.15,155.75,2.6"/>
    </g>
  </g>
  <g id="Layer_1" data-name="Layer 1">
    <g class="cls-49">
      <g>
        <path class="cls-31" d="M171.01,455.77s3.8,38.07-6.45,60.73c0,0-9.38,105.96,76.72,108.65,0,0,64.19-17.3,25.25-100.47,0,0-15.49-6.04-15.82-21.03-.35-15.87,2.05,.27,2.05,.27l-81.75-48.14"/>
        <path class="cls-31" d="M166.97,424.63s-5.43-85.36,66.21-91.59c0,0,68.89,5.55,56.04,80.69,0,0-2.25,8.03-.27,14.16,0,0,7.36,9.37-1.42,32.87-8.78,23.49-23.02,37.26-23.02,37.26,0,0-8.5,9.63-26.34,9.97,0,0-14.11,1.83-30.14-8.31,0,0-38.92-20.17-37.02-43.9,0,0-17.56,11.87-25.63-16.14,0,0-7.13-38.8,21.59-15.01Z"/>
        <path class="cls-47" d="M229.66,395.04s-26.29-2.25-33.82,11.06c0,0,2.9-18.41,32.09-18.5,0,0,6.16,3.18,1.73,7.44Z"/>
        <path class="cls-47" d="M291.78,396.18c-.07-1.65-11.92-5.3-23.67-5.55,0,0-6.06,2.88-1.58,6.98,0,0,22.25-2.99,23.08,5.68,0,0,2.34-3.04,2.16-7.11Z"/>
        <path class="cls-47" d="M284.32,415.33c0-2.68-2.18-4.86-4.86-4.86s-4.86,2.18-4.86,4.86,2.18,4.86,4.86,4.86,4.86-2.18,4.86-4.86Z"/>
        <path class="cls-3" d="M146.69,431.46s6.28-16.66,19.07,10.14c0,0-10.86-11.83-12.79-1.69"/>
        <path class="cls-47" d="M251.07,505.37s-12.45,7.56-34.63-.98c0,0-10.88-4.15-24.58-15.17,0,0,16.99,19.19,42.37,21.04,0,0,7.69,1.04,17.2-2.55,0,0-.79,.15-.36-2.33Z"/>
        <path class="cls-22" d="M166.3,452.78c0,1.73-1.16,3.13-2.59,3.13s-2.59-1.4-2.59-3.13,1.16-3.13,2.59-3.13,2.59,1.4,2.59,3.13Z"/>
        <path class="cls-3" d="M260.88,433.02s9.96,14.8-7.4,16.55"/>
        <g>
          <path class="cls-16" d="M207.72,414.24s-.02-.53,.35-.98c1.24-1.51,4.13-4.34,8.84-4.52,5.27-.2,8.35,4.64,9.41,6.37,.18,.3,.18,.57,.18,.57,0,0,.03,.29-.14,.5-.8,1.01-3.51,3.83-8.49,4.1-2.97,.16-7.19-1.28-9.92-5.22-.19-.27-.22-.63-.22-.82Z"/>
          <circle class="cls-47" cx="218.62" cy="414.76" r="5.45"/>
          <path class="cls-16" d="M216.64,413.78c0-.83-.67-1.49-1.49-1.49s-1.49,.67-1.49,1.49c0,.83,.67,1.49,1.49,1.49s1.49-.67,1.49-1.49Z"/>
          <path class="cls-3" d="M226.64,415.11s-6.88-12.33-18.77-1.89"/>
        </g>
        <g>
          <path class="cls-16" d="M269.26,416.41s-.1-.49,.19-.96c.94-1.58,3.22-4.63,7.57-5.46,4.87-.94,8.43,3.12,9.66,4.58,.21,.25,.24,.5,.24,.5,0,0,.07,.27-.06,.49-.6,1.05-2.71,4.07-7.31,5.02-2.74,.57-6.87-.17-9.98-3.43-.22-.23-.29-.56-.32-.73Z"/>
          <circle class="cls-47" cx="279.47" cy="415.33" r="5.11"/>
          <circle class="cls-16" cx="275.94" cy="415.04" r="1.43"/>
          <path class="cls-3" d="M286.79,414.71s-7.92-11.25-17.46,.96"/>
        </g>
        <g>
          <path class="cls-45" d="M186.53,1401.52s4.2-40.92,70.51-16.06c47.24,17.71,98.3,13.31,92.86,27.91l-18.39,23.12-67.41,8.19-56.52-18.29-21.06-24.88Z"/>
          <path class="cls-44" d="M186.53,1401.52s8.32,8.43,23.14,10.27c14.83,1.84,46.9,17.19,46.9,17.19,0,0,61.92,31.28,93.33-15.61l-3.68,22.46s-39.6,30.12-95.48,6.87c0,0-47.12-17.43-61.93-19.59,0,0-4.12,.49-2.29-21.58Z"/>
          <path class="cls-31" d="M203.69,1345.52s8.4-21.82,5.61-40.01c-4.75-30.97-4.19-81.87-4.19-81.87,0,0,6.98-38.41,10.07-56.67,3.01-17.84-3.66-35.52-3.66-35.52l100.89-.47s4.66,23.2-.5,43.63c-5.16,20.43-13.1,37.06-13.1,37.06l-33.76,107.44-1.4,18.07s-3.82,18.77,18.98,37.76l19.07,13.31,12.76,6.28,22.14,5.18s3.56,.61,7.76,3.41c1.12,.74,3.67,3.34-.4,4.06,0,0,3.25,4.24-2.1,7.03,0,0,2.5,7.35-6.77,4.63,0,0,3.63,7.51-6.76,6.5,0,0,6.36,14-18.94,8.69,0,0-30.15,1.37-42.36-8.03,0,0-19.28-14.29-41.96-14.78-22.68-.49-33.67-19.03-33.67-19.03,0,0,10.62-22.4,12.27-46.66"/>
          <path class="cls-10" d="M328.34,1425.34s-.87-5.44-9.93-6.97"/>
          <path class="cls-10" d="M335.11,1418.84s-4.65-6.78-11.35-6.85"/>
          <path class="cls-10" d="M341.87,1414.21s-5.01-7.5-12.4-7.96"/>
          <path class="cls-10" d="M343.97,1407.18s-3.48-5.17-9.48-5.58"/>
          <path class="cls-45" d="M240.23,1418.02s-1-32.66,38.73-46.66l19.07,11.91s-23.28,5.29-40.66,43.24l-17.15-8.49Z"/>
          <path class="cls-45" d="M276.55,1432.96s8.33-32.36,37.87-39.68l24.3,7.52s-24.71,11.13-36.7,35.19c0,0-6.3,3.42-25.47-3.03Z"/>
        </g>
        <g>
          <path class="cls-45" d="M111.81,1407.95s4.4-42.83,73.81-16.81c49.45,18.53,115.75,20.64,110.06,35.93l-18.26,17.43-84.4,8.63-59.16-19.14-22.05-26.04Z"/>
          <path class="cls-44" d="M111.81,1407.95s8.71,8.83,24.22,10.75c15.52,1.92,49.09,17.99,49.09,17.99,0,0,53.09,25.14,110.54-9.63l-1.31,17.29s-56.83,31.02-115.33,6.69c0,0-49.32-18.24-64.82-20.51,0,0-4.31,.51-2.39-22.59Z"/>
          <path class="cls-31" d="M208.3,1208.32s-9.93,39.41-20.38,85.14l-3.64,46s-3.01,25.13,24.28,36.93l22.77,14.56,14.35,8.39,25.44,7.87s18.36-1.21,21.03,3.86,5.17,7.19-3.62,14.28c0,0-3.58,7.59-10.46,5.69,0,0-4.83,6.54-16.09,4.84,0,0-2.88,5.71-14.96,3.67,0,0-4.16,4.28-10.26,1.97,0,0-36.14,2.8-49.55-9.19,0,0-23.18-13.01-45.19-15.73-23.61-2.92-27.2-17.65-27.2-17.65,0,0,10.82-25.51,13.42-47.36,0,0,4.71-25.57-7.08-60,0,0-14.52-36.76-9.68-84.51,0,0,.74-10.17,4.63-20.48,3.61-9.56-7.14-32.76-7.14-32.76l100.37-9.25s1.76,8.42,2.09,18c.44,12.87,1.81,31.09-3.13,45.73Z"/>
          <path class="cls-10" d="M265.82,1411.33l13.02,5.32s8.75,1.8,9.7,8.69"/>
          <path class="cls-10" d="M258.36,1415.77s21.78,7.39,20.39,12.54l-.68,2.72"/>
          <path class="cls-10" d="M249.97,1423.24s12.46,4.09,12.01,12.63"/>
          <path class="cls-10" d="M242.39,1432.44s6.49,1.92,4.64,7.1"/>
          <path class="cls-45" d="M168.02,1425.22s-1.05-34.18,40.54-48.84l19.96,12.46s-24.37,5.53-42.56,45.26l-17.95-8.89Z"/>
          <path class="cls-45" d="M206.04,1440.86s8.72-33.88,39.64-41.53l25.44,7.87s-25.87,11.65-38.42,36.83c0,0-6.59,3.58-26.66-3.17Z"/>
        </g>
        <path class="cls-21" d="M114.98,768.71s-51.01,111.47-43.99,245.16c7.03,133.69-29.51,343.55-29.51,343.55,0,0,24.49,44.14,74.23,34.1,34.33-6.93,55.55-17.48,55.55-17.48,0,0,39.27-3.3,57.57-2.15,16.45,1.03,36.29-15.96,48.74-13.73,18.24,3.26,66.34,4.12,86.62-17.67,0,0-17.43-172.36-8.64-220.47,0,0,19.4-198.36-37.7-349.53,0,0-61.11,65.74-202.87-1.78Z"/>
        <path class="cls-21" d="M166.09,513.61s-18.49-.47-44.56,19.14c-59.22,44.54-54.62,146.58-54.62,146.58,0,0,10.96,11.5,46.01,19.72l-26.84,117.84s60.64,46.57,158.15,39c0,0,59.9-.56,91.15-26.17,0,0-8.01-80.35-8.64-136.23,0,0,15-11.06,14.38-37.84l21.55-40.16-20.55-35.38s-6-35.06-47.88-50.2c0,0-18.32-3.68-29.57-9.5,0,0,8.1,16.76,3.73,32.48,0,0-16.18,47.65-38.26,50.8,0,0-64.67-51.65-64.05-90.07Z"/>
        <path class="cls-41" d="M106.89,829.28s114.78,66.84,228.49,.43l-2.84-20.62s-76.37,55.04-225.05-3.23l-.6,23.41Z"/>
        <path class="cls-41" d="M41.48,1357.41s27.53,66.4,128.64,19.93c0,0,16.49-6.46,36.88-2.42,20.39,4.04,32.54-.4,51.2-8.49,18.66-8.08,43.83-2.83,43.83-2.83,0,0,36.23,3.45,62.16-23.12l-1.85-16.88s-21.26,24.65-62.48,22.63c-41.22-2.02-52.5,8.49-52.5,8.49,0,0-21.26,12.53-41.22,5.66-19.96-6.87-40.35,4.44-40.35,4.44,0,0-83.31,45.25-121.5-21.01l-2.8,13.6Z"/>
        <path class="cls-21" d="M164.57,516.5l65.57,87.19-41.9,41.59-91.79-94.34s14.87-17.26,38.63-22.33c23.76-5.07,29.49-12.1,29.49-12.1Z"/>
        <path class="cls-21" d="M266.53,524.68l-36.4,79,39.95,34.69,44.15-97.76s-21.28-16.62-47.69-15.93Z"/>
        <path class="cls-41" d="M188.23,645.27l-91.79-94.34s6.8-7.35,15.94-12.76l88.23,94.76-12.39,12.35Z"/>
        <path class="cls-7" d="M148.15,522.59s60.96,74.25,68.75,95.79"/>
        <polygon class="cls-41" points="270.08 638.37 260.44 629.84 301.69 533.13 314.23 540.61 270.08 638.37"/>
        <line class="cls-7" x1="248.07" y1="617.47" x2="286.11" y2="527.18"/>
        <rect class="cls-16" x="105.91" y="545.87" width="13.36" height="13.36" transform="translate(-450.75 577.77) rotate(-81.05)"/>
        <rect class="cls-16" x="120.02" y="561.25" width="13.36" height="13.36" transform="translate(-454.03 604.7) rotate(-81.05)"/>
        <rect class="cls-16" x="135.56" y="576.95" width="13.36" height="13.36" transform="translate(-456.42 633.3) rotate(-81.05)"/>
        <rect class="cls-16" x="150.63" y="593.28" width="13.36" height="13.36" transform="translate(-459.83 661.97) rotate(-81.05)"/>
        <rect class="cls-16" x="165.69" y="609.3" width="13.36" height="13.36" transform="translate(-462.93 690.38) rotate(-81.05)"/>
        <rect class="cls-16" x="180.44" y="624.84" width="13.36" height="13.36" transform="translate(-465.83 718.06) rotate(-81.05)"/>
        <rect class="cls-16" x="298.13" y="543.07" width="10.01" height="10.01" transform="translate(-159.78 126.19) rotate(-18.71)"/>
        <rect class="cls-16" x="291.69" y="557.48" width="10.01" height="10.01" transform="translate(-164.74 124.89) rotate(-18.71)"/>
        <rect class="cls-16" x="284.42" y="573.69" width="10.01" height="10.01" transform="translate(-170.33 123.41) rotate(-18.71)"/>
        <rect class="cls-16" x="278.21" y="589.68" width="9.4" height="9.4" transform="translate(-175.7 122.15) rotate(-18.71)"/>
        <rect class="cls-16" x="271.74" y="605.1" width="9.4" height="9.4" transform="translate(-180.99 120.89) rotate(-18.71)"/>
        <rect class="cls-16" x="264.95" y="620.23" width="9.4" height="9.4" transform="translate(-186.2 119.51) rotate(-18.71)"/>
        <rect class="cls-16" x="113.96" y="816.97" width="13.36" height="13.36" transform="translate(-564.56 350.94) rotate(-47.07)"/>
        <rect class="cls-16" x="134.39" y="823.78" width="13.36" height="13.36" transform="translate(-563.03 368.06) rotate(-47.07)"/>
        <rect class="cls-16" x="155.84" y="829.57" width="13.36" height="13.36" transform="translate(-560.43 385.61) rotate(-47.07)"/>
        <rect class="cls-16" x="177.63" y="834.33" width="13.36" height="13.36" transform="translate(-556.97 403.09) rotate(-47.07)"/>
        <rect class="cls-16" x="200.1" y="837.06" width="13.36" height="13.36" transform="translate(-551.8 420.41) rotate(-47.07)"/>
        <rect class="cls-16" x="222.57" y="839.44" width="13.36" height="13.36" transform="translate(-546.38 437.62) rotate(-47.07)"/>
        <rect class="cls-16" x="245.38" y="838.42" width="13.36" height="13.36" transform="translate(-538.36 454) rotate(-47.07)"/>
        <rect class="cls-16" x="268.19" y="834.67" width="13.36" height="13.36" transform="translate(-528.34 469.5) rotate(-47.07)"/>
        <rect class="cls-16" x="289.64" y="829.57" width="13.36" height="13.36" transform="translate(-517.77 483.58) rotate(-47.07)"/>
        <rect class="cls-16" x="310.75" y="821.4" width="13.36" height="13.36" transform="translate(-505.05 496.43) rotate(-47.07)"/>
        <path class="cls-6" d="M147.28,664.73s-3.58-22.82-15.22-39.38"/>
        <path class="cls-6" d="M326.74,693.48s-1.23-42.07-4.3-49"/>
        <path class="cls-47" d="M209.93,355.47s-4.77,33.92-42.31,73.1c0,0-7.35-14.52-18.25-10.24-10.9,4.29-.89,28.93-.89,28.93,0,0,8.46,17.36,22.52,8.51,0,0,14.93,19.72,4.85,34.61,0,0,12.49,2.4,6.72,19.69,0,0,16.81,8.17,7.2,24.98,0,0,14.62,5.77,.48,23.53,0,0,17.29,20.17-12.49,43.23,0,0,7.2-15.37,2.88-23.05-4.32-7.68,0-20.65,0-20.65,0,0-13.93-12.01-6.24-28.34,0,0-13.93-11.53-6.24-25.46,0,0-26-11.58-18.79-30.79,0,0-45.38-35.57-10.36-102.48,6.1-11.65,9.57-19.14,28.16-31.92,0,0,40.98-45.54,106.42-1.24,0,0,39.07,29.28,16.53,78.89,0,0-2.84-5.82-.24-18,0,0,.15-13.5-4.4-23.3,0,0-40.57,1.07-75.56-19.99Z"/>
        <path class="cls-47" d="M233.6,387.39s3.07,4.6,0,8.95c0,0,4.6-4.86,0-8.95Z"/>
        <path class="cls-47" d="M259.31,389.24s-3.07,4.6,0,8.95c0,0-4.6-4.86,0-8.95Z"/>
        <g>
          <path class="cls-32" d="M264.68,473.3s-6.93-10.58-17.94-8.47c0,0-7.51-6.3-24.71,6.67,0,0,5.34,9.98,22.19,10.57,16.86,.59,20.46-8.76,20.46-8.76Z"/>
          <path class="cls-25" d="M263.08,473.52s-15.2-11.41-38.88-1.51c0,0,12.51,2,17.95,4.28,5.44,2.28,9.58-.62,9.58-.62,0,0,5.72-2.42,11.35-2.15Z"/>
          <path class="cls-16" d="M255.85,470.09s-9.38-3.83-20.31-1.16l20.31,1.16Z"/>
        </g>
        <path class="cls-31" d="M249.23,757.82l-76.11-3.53s-14.4,5-18.81,11.17c-4.41,6.17,2.64,6.17,2.64,6.17l15.28-5.29,4.41,4.41s-15.28,4.11-21.16,8.52c-5.88,4.41,2.64,7.93,2.64,7.93-6.17,5.88,4.11,8.52,4.11,8.52l32.03-1.76-6.47,3.23s-9.11,1.76-15.58,4.11,.88,5.88,.88,5.88c0,0,15.28-4.41,37.32-5s38.2-9.7,38.2-9.7c0,0,84.76,7.23,115.87-47.43,0,0,15.09-3.92-6.23-121.69l-17.16,32.26-14.38,28.37,.19,38.4s-43.45,17.95-77.7,35.4Z"/>
        <line class="cls-13" x1="158.13" y1="787.21" x2="174.95" y2="785.25"/>
        <path class="cls-13" d="M140.07,672.42c12.17,7.51,27.66,22.54,27.66,22.54,13.87-44.47,61.33-109.8,61.33-109.8l5.56-12.35s-12.04-27.8-9.88-33.05c2.16-5.25,2.78-21.93,2.78-21.93,0,0-10.19-24.09,.93-20.69,11.12,3.4,13.28,13.59,13.28,15.75,0,2.16,1.54,11.74,1.54,11.74l4.94-6.18-.93-8.34c-5.25,.93-6.49-5.25-6.49-5.25l7.72-4.63c11.43-.31,12.66,5.56,12.66,5.56l2.78,15.75c13.9-.93,14.52,8.03,14.52,8.03,7.41,1.85,4.32,13.28,4.32,13.28,5.56,.62,2.47,12.35,2.47,12.35l-19.77,29.03-3.09,12.35s-9.87,111.03-47.17,160.77-78.72,5.76-78.72,5.76c0,0-53.54-34.2-61.19-77.23"/>
        <path class="cls-13" d="M236.12,534.65s3.06-8.49,7.15-10.02"/>
      </g>
      <g>
        <path class="cls-31" d="M585.19,647.62c-1.57,4.72-11.91,27.82-11.91,27.82l-53.4-60.93c-4.91-5.14-6.11-8.63-9.12-10.19,0,0,1.1-18.38-27.73-31.79l-15.91-15.52s-11.01-6.22-9.03,5.99c0,0,4.87,7.21,9.39,12.04l-14.99,4.95s1.12-1.96-7.51-1.93c-7.02,.03-5.47,2.32-5.47,2.32,0,0-4.62-9.42-11.2-17.8-4.28-5.45-5.1-11.48-12.74-10.07,0,0-6.98,2.06-.91,12.27l10.36,25.4,33.82,23.19,26.84,9.53,3.36,6.32s39.05,122.54,99.92,131.98c0,0,42.83,4.28,75.21-75.75"/>
        <path class="cls-15" d="M473.98,573.92s-3.81,.19-6.51,1.21"/>
        <path class="cls-15" d="M482.21,607.74s-8.45-15.45-14.66-17.85c0,0-2.76-.77-4.77-6.76s-.96-11.83-5.93-11.65c-7.2,.25-4.34,8.53-4.34,8.53l5.47,18.5"/>
        <path class="cls-15" d="M510.77,604.32s-3.91,6.18-12.31,8.65"/>
        <path class="cls-15" d="M454.1,585.29l-2.63-7.57,2.22-9.4s.84-4.8-3.77-6.56c-5.14-1.97-7.16,4.23-7.16,4.23l-1.96,12.8,4.43,16.15"/>
        <path class="cls-15" d="M440.8,578.79l-1.9-3.94,2.22-9.4s.84-4.8-3.77-6.56c-5.14-1.97-7.16,4.23-7.16,4.23l-1.96,12.8,4.43,16.15"/>
        <g>
          <path class="cls-35" d="M732.62,1412.13s-21.7-28.47-64.39-11.61c-42.69,16.86-84.31,21.91-83.01,31.98l7.14,22.14,42.35,4.02,80.49-30.88,17.42-15.64Z"/>
          <path class="cls-31" d="M708.68,1419.94s-29.74,6.18-39.56,17.6c-9.82,11.42-38.29,14.88-38.29,14.88-22.79,9.41-19.25-5.7-19.25-5.7-9.56,2.69-7.45-5.45-7.45-5.45-8.21,4.23-7.14-3.57-7.14-3.57-5.5-1.95-3.18-6.74-3.18-6.74-3.93-.08-1.99-3.1-1.08-4.02,3.46-3.49,6.68-4.68,6.68-4.68l19.85-8.77,10.87-8.36,15.57-16.45c32.1-27.18,38.91-58.43,38.91-58.43l48.85,16.58c-11.63,14.08-8.76,56.25-8.76,56.25,0,0,7.1,14.33-16.03,16.86Z"/>
          <path class="cls-33" d="M732.62,1412.13s-6.98,8.61-20.21,11.21c-13.23,2.6-41.17,19.21-41.17,19.21,0,0-73.78,36.07-86.02-10.04l4.88,23.04s36.9,18.7,85.79-6.86c0,0,42.83-21.24,56.15-21.84,0,0,4.06-4.06,.58-14.71Z"/>
          <path class="cls-16" d="M686.56,1434.09s-4.84-32.4-40.85-45.4l-15.57,16.45s24.87,.92,41.1,37.41l15.33-8.46Z"/>
          <path class="cls-16" d="M654.05,1449.05s-8.05-28.88-34.79-35.55l-19.85,8.77s21.21,9.64,32.38,32.76c0,0,5.08,.52,22.26-5.98Z"/>
          <path class="cls-10" d="M611.58,1446.73s-.12-5.61,8.1-8.6"/>
          <path class="cls-10" d="M604.13,1441.28s3.19-7.57,9.45-8.72"/>
          <path class="cls-10" d="M596.99,1437.71s3.4-8.35,10.25-10"/>
          <path class="cls-10" d="M593.81,1430.97s2.37-5.76,7.92-7.14"/>
        </g>
        <g>
          <path class="cls-35" d="M836.23,1424.2s-23.85-26.69-65.1-6.56c-41.25,20.14-96.04,32.77-89.23,46.08l17.81,13.78,72.8-9.52,46.54-24.13,17.17-19.66Z"/>
          <path class="cls-31" d="M810.42,1434.65c-7.31,2.38-28.22,9.87-35.51,19.83-8.9,12.15-38.14,14.79-38.14,14.79-4.52,2.83-8.48-.25-8.48-.25-9.32,3.43-12.48-1.06-12.48-1.06-8.72,3.03-13.56-1.9-13.56-1.9-5.2,2.59-9.2-3.41-9.2-3.41-8.07-4.85-6.39-7.01-5.03-11.73s16.19-6.25,16.19-6.25l19.11-10.29,10.19-9.19,14.24-17.61c29.88-29.6,34.24-61.28,34.24-61.28l50,12.72c-8.29,11.8-7.68,34.6-3.84,47.21,0,0,6.15,17.37,.15,21.52-6,4.15-17.89,6.88-17.89,6.88Z"/>
          <path class="cls-33" d="M836.23,1424.2s-6.29,9.13-19.27,12.75c-12.99,3.62-39.55,22.36-39.55,22.36,0,0-42.04,29.38-95.5,4.42l1.33,10.12s54.25,24.12,101-5.17c0,0,39.17-26.63,52.4-28.27,0,0,3.73-5.13-.41-16.21Z"/>
          <path class="cls-16" d="M792.02,1449.68s-7.35-31.93-44.27-42.08l-14.24,17.61s24.87-1.02,43.89,34.09l14.62-9.63Z"/>
          <path class="cls-16" d="M760.78,1467.13s-10.28-28.17-37.45-32.73l-19.11,10.29s21.04,5.32,33.97,27.5c0,0,5.96,2.77,22.59-5.06Z"/>
          <path class="cls-10" d="M709.07,1447.49l-9.59,6.37s-6.71,2.76-6.43,8.8"/>
          <path class="cls-10" d="M715.68,1450.24s-16.26,9.37-14.39,13.59l.95,2.24"/>
          <path class="cls-10" d="M723.49,1455.47s-9.32,5.25-7.69,12.5"/>
          <path class="cls-10" d="M730.92,1462.3s-4.89,2.55-2.63,6.73"/>
          <path class="cls-12" d="M832.2,1420.89s2.89-19.6-3.1-32.6l-.83-5.98"/>
        </g>
        <path class="cls-31" d="M760.46,468.76s-10.81,55.54,20.61,64.14c0,0-6.8,81.33-81.94,83.68,0,0-71.17-5.05-37.19-77.63l19.32-10.35c.31-13.85-1.6-16.06-1.6-16.06l80.8-43.78"/>
        <path class="cls-31" d="M644.32,377.59s-5.71,13.95-1.59,45.33c0,0,1.27,11.73-1.27,18.7,0,0-1.27,25.99,9.19,44.7,10.46,18.7,29.48,29.16,29.48,29.16,0,0,18.39,5.39,32.65-1.59,14.27-6.97,34.87-11.1,48.18-47.55,0,0,12.61,9,19.26-8.75,6.66-17.75,13.7-24.22,5.78-38.8-7.93-14.58-22.82,15.85-22.82,15.85,0,0,11.73-28.85,1.59-56.74s-47.23-45.65-47.23-45.65c0,0-52.62-13-73.23,45.33Z"/>
        <path class="cls-47" d="M699.41,408.89s19.85-4.5,37.16,1.55c0,0-8.42-10.9-37.64-6.3,0,0-4.85,2.96,.48,4.76Z"/>
        <path class="cls-47" d="M638.84,408.9c14.25-1.31,24.16,1.31,24.16,1.31,5.39-1.58,.66-4.73,.66-4.73-9.04-1.8-19.36-1.42-24.83-.86,0,0-.78,4.35,0,4.28Z"/>
        <path class="cls-2" d="M674.47,443.02s-12.19,9.78,.53,16"/>
        <path class="cls-47" d="M680.94,515.62s20.98,5.03,37.13-4.25c0,0,9.47-2.42,24.75-14.5,0,0-7.55,15.32-38,22.43,0,0-10.5,1.5-23.81,1.47,0,0-.27-3.01-.07-5.15Z"/>
        <path class="cls-2" d="M783.51,436.87s-5.25-7.96-11.15,.16c-5.89,8.12-6.21,10.83-6.21,10.83,0,0,8.44-12.9,11.78-2.55"/>
        <g>
          <path class="cls-16" d="M723.31,422.7s.03-.55-.37-1.03c-1.3-1.57-4.31-4.53-9.22-4.71-5.49-.2-8.71,4.84-9.81,6.65-.19,.31-.18,.59-.18,.59,0,0-.03,.31,.15,.53,.84,1.05,3.66,4,8.86,4.27,3.09,.16,7.51-1.34,10.35-5.44,.2-.29,.23-.66,.23-.86Z"/>
          <circle class="cls-47" cx="711.94" cy="423.25" r="5.69"/>
          <circle class="cls-16" cx="715.57" cy="422.23" r="1.56"/>
          <path class="cls-3" d="M703.57,423.6s7.17-12.87,19.59-1.97"/>
        </g>
        <g>
          <path class="cls-16" d="M664.07,425.12s.1-.51-.19-1.01c-.98-1.65-3.36-4.83-7.9-5.7-5.08-.98-8.8,3.26-10.08,4.78-.22,.26-.25,.52-.25,.52,0,0-.07,.28,.06,.51,.63,1.1,2.83,4.24,7.63,5.24,2.85,.59,7.17-.17,10.41-3.58,.23-.24,.3-.58,.33-.77Z"/>
          <circle class="cls-47" cx="653.41" cy="423.99" r="5.33"/>
          <circle class="cls-16" cx="657.09" cy="423.68" r="1.49"/>
          <path class="cls-3" d="M645.78,423.34s8.26-11.74,18.22,1"/>
        </g>
        <path class="cls-47" d="M819.49,550.58l-50.68-23c-19.35-23.41-8.45-67.4-8.45-67.4,12,7.27,19.29-3.08,19.29-3.08,14.45-32.73,2.01-34.9,2.01-34.9-15.07-1.6-17.31,10.52-17.31,10.52-38.05-22.49-29.2-79.42-29.2-79.42-41.44,36.67-88.37,20.35-88.37,20.35-7.07,8.46-5.38,32.15-5.38,32.15,1.87,16,2.13,21,2.13,21-5.44,32.21,3.68,51.38,3.68,51.38,13.45,29.07,33.74,37.44,33.74,37.44,1.22,5.42,.31,12.98,.31,12.98-5.34,4.94-20.46,10.01-20.46,10.01-9.05,3.93-18.23,7.05-18.23,7.05-37.25-126.64,8.98-201.71,8.98-201.71,47.59-63.44,112.04-10.5,112.04-10.5,70.54,22.41,55.91,217.13,55.91,217.13"/>
        <path class="cls-41" d="M820.09,784.99s49.8,113.45,42.94,249.52c-6.86,136.07,28.81,349.66,28.81,349.66,0,0-23.91,44.92-72.47,34.71-33.51-7.05-54.23-17.79-54.23-17.79,0,0-38.34-3.36-56.2-2.19-16.06,1.05-35.43-16.24-47.58-13.98-17.81,3.32-64.77,4.19-84.56-17.98,0,0,27.74-174.76,19.16-223.72,0,0-9.16-162.92,27.77-315.54,0,0,57.98,26.04,196.38-42.68Z"/>
        <path class="cls-41" d="M770.19,525.36s18.06-.47,43.5,19.48c57.81,45.33,73.24,89.96,73.24,89.96,0,0-13.81,49.23-66.18,69.7l27.55,129.53s-59.2,47.4-154.4,39.69c0,0-40.96-2.23-71.47-28.3,0,0,.19-64.19-7.3-122.67,0,0-.85-14.43-.24-41.69l-32.96-34.12,16.16-52.26s6.1-37.32,46.99-52.73c0,0,17.88-3.75,28.87-9.67,0,0-7.91,17.06-3.64,33.05,0,0,15.8,48.49,37.35,51.7,0,0,63.14-52.57,62.53-91.67Z"/>
        <path class="cls-28" d="M827.98,846.64s-117.92,58.58-209.19,6.04l4.99-19.56s58.47,48.99,203.62-10.31l.58,23.83Z"/>
        <path class="cls-20" d="M891.84,1384.17s-26.88,67.58-125.58,20.29c0,0-16.1-6.58-36.01-2.47s-31.77-.41-49.99-8.64c-18.22-8.22-42.79-2.88-42.79-2.88,0,0-35.37,3.51-60.68-23.53l1.8-17.18s20.76,25.09,61,23.03c40.24-2.06,51.26,8.64,51.26,8.64,0,0,20.76,12.75,40.24,5.76,19.49-6.99,39.4,4.52,39.4,4.52,0,0,81.33,46.06,118.61-21.38l2.74,13.85Z"/>
        <path class="cls-41" d="M771.68,528.3l-64.01,88.74,40.9,42.33,89.61-96.02s-14.52-17.57-37.72-22.73c-23.2-5.16-28.79-12.32-28.79-12.32Z"/>
        <path class="cls-41" d="M672.13,536.63l35.54,80.41-39,35.31-43.1-99.5s20.78-16.92,46.56-16.22Z"/>
        <path class="cls-28" d="M748.57,659.36l89.61-96.02s-6.64-7.48-15.57-12.99l-86.14,96.44,12.09,12.57Z"/>
        <path class="cls-9" d="M787.7,534.5s-59.51,75.57-67.12,97.49"/>
        <polygon class="cls-28" points="668.67 652.34 678.08 643.66 637.81 545.23 625.57 552.84 668.67 652.34"/>
        <line class="cls-9" x1="690.16" y1="631.06" x2="653.02" y2="539.17"/>
        <polygon class="cls-16" points="829.88 570.65 827.85 557.22 814.96 559.34 816.99 572.77 829.88 570.65"/>
        <polygon class="cls-16" points="816.1 586.31 814.07 572.87 801.18 574.99 803.22 588.42 816.1 586.31"/>
        <polygon class="cls-16" points="800.93 602.28 798.9 588.85 786.01 590.97 788.04 604.4 800.93 602.28"/>
        <polygon class="cls-16" points="786.22 618.91 784.19 605.47 771.31 607.59 773.34 621.02 786.22 618.91"/>
        <polygon class="cls-16" points="771.52 635.21 769.49 621.77 756.6 623.89 758.63 637.32 771.52 635.21"/>
        <polygon class="cls-16" points="758.49 650.15 756.46 636.72 743.58 638.84 745.61 652.27 758.49 650.15"/>
        <polygon class="cls-16" points="630.2 563.62 639.46 566.89 642.6 557.24 633.34 553.97 630.2 563.62"/>
        <polygon class="cls-16" points="636.49 578.3 645.74 581.57 648.88 571.92 639.62 568.65 636.49 578.3"/>
        <polygon class="cls-16" points="643.58 594.79 652.84 598.06 655.97 588.41 646.72 585.14 643.58 594.79"/>
        <polygon class="cls-16" points="650.33 610.56 659.02 613.63 661.96 604.57 653.27 601.5 650.33 610.56"/>
        <polygon class="cls-16" points="656.64 626.25 665.33 629.32 668.28 620.26 659.59 617.19 656.64 626.25"/>
        <polygon class="cls-16" points="663.27 641.66 671.96 644.72 674.91 635.66 666.22 632.6 663.27 641.66"/>
        <polygon class="cls-16" points="814.23 850.52 823.78 841.26 814.9 831.3 805.35 840.57 814.23 850.52"/>
        <polygon class="cls-16" points="794.29 857.45 803.84 848.19 794.95 838.23 785.4 847.5 794.29 857.45"/>
        <polygon class="cls-16" points="773.35 863.34 782.9 854.08 774.01 844.12 764.46 853.39 773.35 863.34"/>
        <polygon class="cls-16" points="752.07 868.19 761.62 858.93 752.74 848.98 743.19 858.24 752.07 868.19"/>
        <polygon class="cls-16" points="730.13 870.97 739.68 861.7 730.8 851.75 721.25 861.01 730.13 870.97"/>
        <polygon class="cls-16" points="708.2 873.39 717.75 864.13 708.86 854.17 699.31 863.44 708.2 873.39"/>
        <polygon class="cls-16" points="685.92 872.35 695.47 863.09 686.59 853.13 677.04 862.4 685.92 872.35"/>
        <polygon class="cls-16" points="663.65 868.54 673.2 859.28 664.32 849.32 654.77 858.58 663.65 868.54"/>
        <polygon class="cls-16" points="642.71 863.34 652.26 854.08 643.38 844.12 633.83 853.39 642.71 863.34"/>
        <path class="cls-9" d="M820.76,704.5s-6.1-7.91-11.69-29.73"/>
        <path class="cls-9" d="M613.72,683.12s.71-21.16,3.71-28.21"/>
        <path class="cls-31" d="M873.04,662.99s18.26,88.85,.86,131.34l-28.97,97.7s-4.79,18.84,.7,29.6c0,0,7.39,23.12-3.86,35.45,0,0-9.97,28.26-41.23,39.1,0,0-8.9-5.91,4.98-17.01,0,0,16.4-14.21,8.27-31.96,0,0-6.59-5.78-6.9,5.01-.32,10.79-2.6,27.96-11.73,25.64-9.13-2.32-4.13-19.69-4.13-19.69,0,0,1.39-15.42,.58-26.63,0,0,2.06-19.7,14.32-29.82l21.83-143.45-8.45-55.81s28.49-6.11,53.73-39.48Z"/>
        <ellipse class="cls-16" cx="769.16" cy="457.15" rx="2.68" ry="3.25"/>
        <path class="cls-32" d="M707.85,474.44s-10.47-3.23-22.94,.31c0,0-10.78-2.16-20.48,0,0,0,1.08,17.4,17.4,21.25,16.32,3.85,26.33-11.39,26.02-21.56Z"/>
        <path class="cls-25" d="M705.23,475.67s.15,15.4-19.86,15.4c-18.18,0-18.32-13.7-18.32-13.7,0,0,20.48,.92,38.19-1.69Z"/>
        <path class="cls-16" d="M702.74,475.89s-4.96,7.13-20.45,6.38c0,0-9.55,.48-13.56-4.6,0,0,19.96,.43,34.01-1.78Z"/>
      </g>
      <g>
        <g>
          <path class="cls-36" d="M1112.37,1425s-5.28-43.67-76.95-14.82c-51.07,20.56-106.26,15.45-100.38,32.4l19.88,26.84,65.73,3.57,66.18-20.95,25.56-27.05Z"/>
          <path class="cls-38" d="M1112.37,1425s-9.6,10.91-24.6,16.96c-14.7,5.94-51.12,14.91-51.12,14.91,0,0-67.43,37.31-102.42-16.49l1.9,12.38s16.66,44.04,106.82,20.03c0,0,52.75-17.65,67.67-27.44,0,0,3.37-5.94,1.74-20.35Z"/>
          <path class="cls-31" d="M1026.47,1332.22c.18,.62,.3,1.27,.35,1.92l5.48,26.67s8.97,28.38-22.44,39.35c-.32,.11,.27-.2,0,0l-22.15,12.83c-.38,.29-.79,.55-1.22,.77l-12.18,6.43c-.65,.34-1.34,.61-2.05,.79l-22.87,5.74s-3.85,.71-8.39,3.96c-1.21,.86-3.96,3.88,.43,4.72,0,0-3.51,4.93,2.27,8.16,0,0-2.7,8.53,7.31,5.37,0,0-2.21,4.9,1.43,6.86,2.56,1.38,4.69,3.49,5.27,6.34,.79,3.9,4.91,7.85,20,4.67,.7-.15,1.44-.22,2.15-.2,5.7,.16,32.94,.38,44.73-9.36,0,0,20.84-16.59,45.36-17.16,17.37-.4,28.39-11.32,33.34-17.66,1.97-2.52,2.4-5.89,1.25-8.87-3.3-8.6-13.14-30.28-14.48-51.45"/>
          <path class="cls-10" d="M958.33,1456.48s.94-6.32,10.73-8.09"/>
          <path class="cls-10" d="M951.03,1448.94s5.03-7.87,12.27-7.95"/>
          <path class="cls-10" d="M943.71,1443.56s5.42-8.71,13.41-9.24"/>
          <path class="cls-10" d="M941.44,1435.4s3.76-6,10.25-6.48"/>
          <path class="cls-38" d="M1035.84,1458.93s-8.2-42.05-40.13-50.54l-40.73,16.54s25.57,16.17,38.53,44.1c0,0,21.78,1.9,42.33-10.09Z"/>
        </g>
        <g>
          <path class="cls-36" d="M1191.59,1446.81s-5.55-45.91-80.89-15.58c-53.68,21.61-111.7,16.24-105.52,34.06l20.89,28.22,69.09,3.76,69.56-22.02,26.86-28.43Z"/>
          <path class="cls-38" d="M1191.59,1446.81s-10.1,11.47-25.85,17.83c-15.45,6.24-53.74,15.68-53.74,15.68,0,0-70.88,39.22-107.67-17.34l2,13.01s17.52,46.29,112.29,21.06c0,0,55.45-18.56,71.14-28.85,0,0,3.54-6.24,1.83-21.39Z"/>
          <path class="cls-31" d="M1103.71,1375.18s10.58,27.22-16.4,39.75l-22.51,15.45-14.19,8.9-25.15,8.35s-18.16-1.28-20.79,4.1c-2.64,5.39-5.11,7.63,3.58,15.16,0,0,3.54,8.06,10.34,6.04,0,0,4.78,6.94,15.91,5.14,0,0,2.85,6.06,14.79,3.9,0,0,4.11,4.54,10.15,2.09,0,0,35.73,2.98,48.99-9.76,0,0,22.92-13.82,44.68-16.7,12.27-1.63,19.83-6.56,24.24-10.87,3.57-3.49,5.04-8.55,3.9-13.41-2.26-9.59-6.47-28.74-8.31-45.3"/>
          <path class="cls-10" d="M1030.7,1452.04l-12.87,5.65s-8.65,1.91-9.59,9.23"/>
          <path class="cls-10" d="M1038.08,1456.74s-21.53,7.84-20.16,13.31l.67,2.89"/>
          <path class="cls-10" d="M1046.37,1464.68s-12.32,4.35-11.88,13.41"/>
          <path class="cls-10" d="M1053.87,1474.45s-6.42,2.03-4.58,7.54"/>
          <path class="cls-38" d="M1123.95,1478.19s-12.61-48.25-46.18-57.18l-39.37,21.14s28.36,21.42,41.99,50.78c0,0,21.96-2.14,43.56-14.74Z"/>
        </g>
        <path class="cls-31" d="M1111.16,515.59s-3.91,39.18,6.63,62.49c0,0,9.65,109.03-78.94,111.8,0,0-66.05-17.8-25.98-103.38,0,0,15.94-6.22,16.28-21.64,.36-16.33-2.11,.28-2.11,.28l84.12-49.54"/>
        <path class="cls-31" d="M1115.32,483.54s-4.74-.88-6.36-8.44c-1.07-4.99-10.68-2.94-9.98-16.74,.34-6.71-10.54-4.41-8.7-20.49,1.25-10.91-13.65-8.84-6.71-34.93,0,0-6.77,9.03-20.72-.64-5.64-3.91-14.69-1.17-22.36-2.4,0,0-10.58-5.31-17.38,1.9-9.37,9.92-16.91,6.15-23.89,14.34-8.98,10.54-14.53,27.83-9.69,56.17,0,0,2.32,8.27,.27,14.58,0,0-7.57,9.64,1.47,33.82,9.04,24.18,23.69,38.34,23.69,38.34,0,0,8.74,9.91,27.11,10.26,0,0,14.51,1.88,31.01-8.55,0,0,40.05-20.76,38.09-45.18,0,0,18.07,12.21,26.37-16.61,0,0,7.34-39.92-22.22-15.44Z"/>
        <path class="cls-36" d="M1047.36,455s25.98-3.92,36.12,5.95c0,0-6.48-14.28-35.83-11.96,0,0-5.57,3.01-.3,6.01Z"/>
        <path class="cls-36" d="M987.12,454.9c.28-1.4,12.71-4.22,24.64-4.15,0,0,5.77,2.59,.73,5.97,0,0-22.15-3.08-24.06,4.28,0,0-1.99-2.64-1.31-6.09Z"/>
        <circle class="cls-47" cx="999.56" cy="473.97" r="5"/>
        <path class="cls-2" d="M1136.19,490.57s-6.46-17.14-19.62,10.43c0,0,11.18-12.17,13.16-1.74"/>
        <path class="cls-47" d="M1028.78,566.62s12.81,7.78,35.64-1.01c0,0,11.19-4.27,25.29-15.61,0,0-17.48,19.75-43.59,21.65,0,0-7.91,1.07-17.7-2.62,0,0,.81,.15,.37-2.4Z"/>
        <path class="cls-2" d="M1018.69,492.17s-10.24,15.23,7.61,17.03"/>
        <g>
          <path class="cls-16" d="M1073.39,472.85s.02-.54-.36-1.01c-1.28-1.55-4.25-4.47-9.09-4.65-5.42-.2-8.59,4.78-9.68,6.56-.19,.31-.18,.58-.18,.58,0,0-.03,.3,.14,.52,.83,1.04,3.61,3.95,8.74,4.22,3.05,.16,7.4-1.32,10.21-5.37,.2-.28,.22-.65,.22-.85Z"/>
          <circle class="cls-47" cx="1062.17" cy="473.39" r="5.61"/>
          <circle class="cls-16" cx="1065.75" cy="472.38" r="1.54"/>
          <path class="cls-2" d="M1054.07,474.33s1.46-7.31,9.86-7.14,9.45,5.66,9.45,5.66"/>
        </g>
        <g>
          <path class="cls-16" d="M1010.07,475.08s.1-.5-.19-.99c-.97-1.62-3.32-4.76-7.79-5.62-5.01-.96-8.68,3.21-9.94,4.71-.22,.26-.25,.52-.25,.52,0,0-.07,.28,.06,.5,.62,1.08,2.79,4.19,7.52,5.17,2.82,.59,7.07-.17,10.26-3.53,.22-.23,.3-.57,.33-.76Z"/>
          <circle class="cls-47" cx="999.56" cy="473.97" r="5.26"/>
          <circle class="cls-16" cx="1003.19" cy="473.67" r="1.47"/>
          <path class="cls-2" d="M991.9,473.7s1.97-5.22,9.38-5.55c0,0,6,.67,8.61,5.94"/>
        </g>
        <path class="cls-36" d="M1114.86,484.32s-33.88-31.5-35.09-76.18c0,0-38.34,26.07-93.3,33.93,0,0-2.75-37.28,32.51-55.48,35.27-18.2,75.98,1.41,75.98,1.41,0,0,1.48-2.38,8.78-1.86,0,0,31.07-26.53,68.55,2.35,0,0,40.09,26.98,18.47,114.57-21.62,87.6,57.15,141.67,57.15,141.67,0,0-98.39-42.62-105.21-138.18,0,0-.13,32.27-32.46,29.93,0,0-1.46-10.72,.67-21.76,0,0,18.84,10.94,25.01-15.75,0,0,3.37-20.13-6.47-22.48,0,0-6.7-.28-14.6,7.83Z"/>
        <path class="cls-31" d="M926.95,701.44s9.4,34.99,2.54,51.59c0,0-3.57,6.65-2.31,20.65,1.26,13.99,.37,87.83,8.27,135.33,0,0,4.09,35.16-3.57,47.44-7.66,12.28,3.14,25.91,3.14,25.91,0,0,13.89,30.06,27.66,31.24l-8.04-290.08-27.69-22.07Z"/>
        <path class="cls-18" d="M1172.29,826.18s54.14,108.42,46.68,238.47c-7.46,130.05,31.32,334.17,31.32,334.17,0,0-25.99,42.93-78.78,33.17-36.43-6.74-58.96-17-58.96-17,0,0-41.68-3.21-61.1-2.1-17.46,1.01-38.51-15.52-51.73-13.36-19.36,3.17-70.41,4.01-91.93-17.19,0,0,30.16-167.02,20.82-213.82,0,0-9.95-155.71,30.18-301.57,0,0,63.03,24.89,213.48-40.79Z"/>
        <path class="cls-18" d="M1118.05,578.05s19.63-.45,47.29,18.62c62.85,43.32,79.62,85.98,79.62,85.98,0,0-15.01,47.05-71.94,66.61l29.95,123.79s-64.35,45.3-167.85,37.94c0,0-44.53-2.14-77.7-27.05,0,0,.2-61.35-7.94-117.24,0,0-.92-13.8-.26-39.84l-35.83-32.61,17.57-49.95s6.63-35.67,51.09-50.39c0,0,19.44-3.58,31.38-9.25,0,0-8.6,16.3-3.95,31.59,0,0,17.17,46.35,40.6,49.41,0,0,68.64-50.24,67.97-87.61Z"/>
        <path class="cls-41" d="M1180.87,885.1s-128.19,55.99-227.41,5.77l5.42-18.69s63.56,46.82,221.36-9.85l.63,22.78Z"/>
        <path class="cls-41" d="M1250.29,1398.83s-29.22,64.59-136.52,19.39c0,0-17.5-6.29-39.14-2.36-21.64,3.93-34.54-.39-54.34-8.25-19.8-7.86-46.51-2.75-46.51-2.75,0,0-38.46,3.36-65.97-22.49l1.96-16.42s22.57,23.97,66.31,22.01c43.75-1.97,55.72,8.25,55.72,8.25,0,0,22.57,12.18,43.75,5.5,21.18-6.68,42.83,4.32,42.83,4.32,0,0,88.42,44.02,128.94-20.44l2.97,13.23Z"/>
        <path class="cls-18" d="M1119.66,580.85l-69.59,84.81,44.47,40.45,97.42-91.77s-15.78-16.79-41-21.72c-25.22-4.93-31.3-11.77-31.3-11.77Z"/>
        <path class="cls-18" d="M1011.44,588.81l38.63,76.85-42.39,33.74-46.86-95.09s22.59-16.17,50.62-15.5Z"/>
        <path class="cls-41" d="M1094.54,706.11l97.42-91.77s-7.22-7.15-16.92-12.41l-93.64,92.17,13.15,12.01Z"/>
        <path class="cls-5" d="M1137.08,586.78s-64.69,72.22-72.96,93.18"/>
        <polygon class="cls-41" points="1007.68 699.4 1017.91 691.1 974.13 597.03 960.82 604.31 1007.68 699.4"/>
        <line class="cls-5" x1="1031.04" y1="679.07" x2="990.67" y2="591.24"/>
        <polygon class="cls-16" points="1182.93 621.33 1180.72 608.49 1166.72 610.52 1168.92 623.35 1182.93 621.33"/>
        <polygon class="cls-16" points="1167.95 636.29 1165.75 623.46 1151.74 625.48 1153.95 638.32 1167.95 636.29"/>
        <polygon class="cls-16" points="1151.46 651.56 1149.25 638.73 1135.25 640.75 1137.45 653.59 1151.46 651.56"/>
        <polygon class="cls-16" points="1135.47 667.45 1133.27 654.61 1119.26 656.63 1121.47 669.47 1135.47 667.45"/>
        <polygon class="cls-16" points="1119.49 683.03 1117.28 670.19 1103.27 672.21 1105.48 685.05 1119.49 683.03"/>
        <polygon class="cls-16" points="1105.33 697.31 1103.12 684.48 1089.12 686.5 1091.32 699.34 1105.33 697.31"/>
        <polygon class="cls-16" points="965.86 614.61 975.93 617.74 979.34 608.51 969.27 605.39 965.86 614.61"/>
        <polygon class="cls-16" points="972.69 628.64 982.76 631.76 986.17 622.54 976.1 619.42 972.69 628.64"/>
        <polygon class="cls-16" points="980.41 644.4 990.47 647.53 993.88 638.3 983.82 635.18 980.41 644.4"/>
        <polygon class="cls-16" points="987.74 659.47 997.19 662.4 1000.39 653.75 990.94 650.81 987.74 659.47"/>
        <polygon class="cls-16" points="994.61 674.47 1004.05 677.4 1007.25 668.74 997.8 665.81 994.61 674.47"/>
        <polygon class="cls-16" points="1001.81 689.19 1011.26 692.12 1014.46 683.46 1005.01 680.53 1001.81 689.19"/>
        <polygon class="cls-16" points="1165.92 888.81 1176.3 879.96 1166.64 870.44 1156.26 879.29 1165.92 888.81"/>
        <polygon class="cls-16" points="1144.24 895.43 1154.62 886.58 1144.96 877.06 1134.58 885.92 1144.24 895.43"/>
        <polygon class="cls-16" points="1121.47 901.06 1131.86 892.21 1122.2 882.7 1111.82 891.55 1121.47 901.06"/>
        <polygon class="cls-16" points="1098.35 905.7 1108.73 896.85 1099.07 887.33 1088.69 896.18 1098.35 905.7"/>
        <polygon class="cls-16" points="1074.5 908.35 1084.88 899.5 1075.22 889.98 1064.84 898.83 1074.5 908.35"/>
        <polygon class="cls-16" points="1050.65 910.67 1061.03 901.81 1051.37 892.3 1040.99 901.15 1050.65 910.67"/>
        <polygon class="cls-16" points="1026.44 909.67 1036.82 900.82 1027.16 891.31 1016.78 900.16 1026.44 909.67"/>
        <polygon class="cls-16" points="1002.23 906.03 1012.61 897.18 1002.95 887.66 992.57 896.52 1002.23 906.03"/>
        <polygon class="cls-16" points="979.46 901.06 989.84 892.21 980.19 882.7 969.8 891.55 979.46 901.06"/>
        <path class="cls-4" d="M1173.02,749.25s-6.63-7.56-12.7-28.42"/>
        <path class="cls-4" d="M947.94,728.82s.77-20.23,4.04-26.96"/>
        <path class="cls-32" d="M1059.83,531.49s-12.99-11.11-26.83-8.8c0,0-12.37-2.31-19.91,8.59,0,0,6.5,10.48,19.49,9.01,12.99-1.47,19.91-2.93,27.25-8.8Z"/>
        <path class="cls-25" d="M1057.31,531.28s-18.86-6.92-25.15-5.66c0,0-9.22-.84-17.61,5.87,0,0,12.37,.63,18.23,3.98,0,0,13.41-3.77,24.52-4.19Z"/>
        <path class="cls-16" d="M1045.99,527.93s-15.72-5.45-25.57,.21c0,0,13.2-.42,25.57-.21Z"/>
        <path class="cls-31" d="M1180.82,746.59c11.81,13.44,55.08,40.04,55.08,40.04-8.55,6.52-37.48,58.25-37.48,58.25l-5.28,3.2s-13.44-26.88-17.15-27.81-13.9-.46-13.9-.46h-13.9s-6.95,10.2,13.44,11.59l-18.07,1.39s-7.42,4.63,4.17,10.2c0,0-2.32,7.88,10.2,9.27s18.07,3.24,18.07,3.24l-11.63,.37s-7.37,6.73-1.28,11.21,26.9,7.05,26.9,7.05l6.73,21.14,22.42-17.94s58.05-32.98,90.98-98.06c0,0,16.66-12.88-70.65-85.28,0,0-16.05,32.12-58.65,52.6"/>
        <path class="cls-8" d="M1147.73,842.99s20.24-4.7,32.32-1.62"/>
        <path class="cls-8" d="M1176,855.5s20.15-.41,21.33,13.33"/>
      </g>
    </g>
  </g>
</svg>