<?xml version="1.0" encoding="UTF-8"?>
<svg id="Layer_1" data-name="Layer 1" xmlns="http://www.w3.org/2000/svg" viewBox="0 0 1333.72 1000.29">
  <defs>
    <style>
      .cls-1 {
        stroke: #fbb040;
      }

      .cls-1, .cls-2 {
        stroke-width: 1.5px;
      }

      .cls-1, .cls-2, .cls-3, .cls-4, .cls-5, .cls-6, .cls-7, .cls-8 {
        stroke-miterlimit: 10;
      }

      .cls-1, .cls-2, .cls-4, .cls-7, .cls-8 {
        fill: none;
      }

      .cls-2, .cls-4, .cls-7 {
        stroke: #231f20;
      }

      .cls-9 {
        fill: #f9edde;
      }

      .cls-10, .cls-3 {
        fill: #fff;
      }

      .cls-11 {
        fill: #f16225;
      }

      .cls-12, .cls-6 {
        fill: #be9e7d;
      }

      .cls-13 {
        fill: #be8c8c;
      }

      .cls-14 {
        fill: #bf6b6b;
      }

      .cls-15 {
        fill: #231f20;
      }

      .cls-16 {
        fill: #1fa8df;
      }

      .cls-17 {
        fill: #0f3e5d;
      }

      .cls-18 {
        fill: #3c2415;
      }

      .cls-19, .cls-5 {
        fill: #59bede;
      }

      .cls-20 {
        fill: #26130f;
      }

      .cls-3 {
        stroke: #808285;
        stroke-width: 2px;
      }

      .cls-4 {
        stroke-width: 1.4px;
      }

      .cls-5 {
        stroke: #2e3192;
      }

      .cls-6 {
        stroke: #603913;
        stroke-width: .4px;
      }

      .cls-8 {
        stroke: #754c29;
      }
    </style>
  </defs>
  <rect class="cls-9" width="1333.72" height="1000.29"/>
  <g>
    <path class="cls-12" d="M567.85,251.44s1.11,59.98-17.77,94.08c0,0-28.09,164.39,106.11,179.52,0,0,102.5-18.89,52.2-153.8,0,0-23.44-11.41-22.06-34.88,1.46-24.85,3.17,.68,3.17,.68l-121.64-85.6"/>
    <path class="cls-12" d="M572.71,203.25s24.18-123.47,136.62-115.29c0,0,79.16,12.39,56.96,123.44,0,0-7.11,17.27-5.56,27.25,0,0,2.41,25.44-13.09,46.65-23.2,31.75-44.44,53.8-44.44,53.8,0,0-13.31,14.82-41.01,10.9,0,0-19.35-3.54-41.64-23.22,0,0-58.17-38.05-49.33-74.31,0,0-30.14,14-35.66-31.36,0,0-1.38-61.83,37.16-17.86Z"/>
    <path class="cls-20" d="M681.63,177.6s-37.71-13.44-55.76-1.62c0,0,13.86-19.46,57.07-7.45,0,0,7.45,6.12-1.31,9.07Z"/>
    <path class="cls-20" d="M772.6,190.19c-.18-2.17-18.53-8.55-36.6-10.47,0,0-9.18,2.95-2.12,8.91,0,0,34.06-.89,35.71,10.56,0,0,3.47-3.65,3.02-9.01Z"/>
    <path class="cls-2" d="M714.76,239.86s11.73,25.39-15.57,23.77"/>
    <path class="cls-2" d="M541.2,209.41s13.86-24.22,27,20.44c0,0-13.87-21.01-19.38-5.8"/>
    <path class="cls-20" d="M686.85,348.54s-18.13,7.95-46.11-7.22c0,0-24.53-12.84-42.99-33.3,0,0,22.1,34.17,57.78,44.52,0,0,19.98,5.75,34.18,1.66,0,0-1.74-2.17-2.85-5.65Z"/>
    <path class="cls-10" d="M557.11,328.73s-14.29,40.1,5.41,78.13c22.38,43.2,86.92,60.89,121.79,13.01,0,0,17.24-34.6,9.5-60.45,0,0,57.98,28.84,70.36,45.04s53.72,166.28,53.72,166.28c0,0-24.87,30.43-53.78,32.26,0,0,.83,36.9-34.86,80.81,0,0,26.25,156.27,22.84,209.65,0,0-165.13,123.39-423.79-26.06l58.66-174.22-66.72-154.22s36.46-128.45,123.17-162.15c62.97-24.48,113.69-48.09,113.69-48.09Z"/>
    <path class="cls-3" d="M452.89,388.9s92.32,26.46,21.24,196.4l-26.66,7.77"/>
    <path class="cls-3" d="M764.12,603.01s1.3-16.26-2.46-55.36"/>
    <path class="cls-14" d="M651.82,286.3s21.31-4.56,31.48,4.05c0,0,13.55-2.51,25.55,7.86,0,0-4.64,14.08-30.39,8.95-29.4-5.85-26.65-20.87-26.65-20.87Z"/>
    <path class="cls-7" d="M708.86,298.22s-24.94,5.12-57.04-11.92"/>
    <path class="cls-2" d="M635.73,197.3s9.76,21.17,29.78,7.9"/>
    <path class="cls-2" d="M730.51,215.81s12.46,18.62,28.81,3.48"/>
    <path class="cls-17" d="M759.11,999.72c-1.96-36.6-4.85-72.08-8.96-104.65,0,0-172.94,120.58-414.17-22.86,0,0-24.54,52.56-36.54,126.86"/>
    <path class="cls-18" d="M730.45,103.55s-90.35,118.53-191.28,103.9c0,0,2.43,43.62,33.83,38.94,0,0,7.19,63.9-26.48,92.44,0,0-41.71,20.31-72.1,27.08-28.45,6.34-64.42,28.93-64.42,28.93,0,0,67.3-45.35,79.99-154.8,12.68-109.45,73.8-160.55,73.8-160.55,0,0,81.18-88.64,170.72-20.19,0,0,52.34,10.53,66.97,64.43,8.47,31.18-2.17,84.84-11.11,127.64,0,0-15.96,101.72-66.27,124.59,0,0-43.36,1.25-44.27-24.9,0,0,9.73-3.03,23.3-15.23,18.52-16.65,30.45-34.81,44.99-54.95,0,0,15.53-19.98,12.87-49.82,0,0-.03-15.48,5.81-23.55,0,0,16.72-62.07-36.36-103.95"/>
    <path class="cls-1" d="M562.39,227.75s-18.95,20.58-5.11,37.34c13.85,16.76,11.04-19.04,11.04-19.04"/>
  </g>
  <g>
    <path class="cls-20" d="M737.69,628.51c-17.87-3.09-13.24-19.24-13.24-19.24-10.15,.41-7.99-17.37-7.99-17.37-12.55-5.86-5.89-19.87-5.89-19.87-6.39-9.64,3.25-22.29,3.25-22.29-10.25-12.32,3.09-19.05,3.09-19.05-9.43-12.62,5.05-25.71,5.05-25.71-7.09-12.36-4.28-22.99-4.28-22.99-10.17-15.8-.5-27.91-.5-27.91-9.67-12.47-1.11-21.73-1.11-21.73-8.43-11.78,1.96-21.61,1.96-21.61-8.09-13.2,5.45-21.15,5.45-21.15-2.23-15.09,9.79-19.61,9.79-19.61,1.95-14.99,17.81-19.92,17.81-19.92,9.12-12.37,21.63-11.99,21.63-11.99,14.6-12.14,28.68-6.88,28.68-6.88,14.8-11.01,38.5-4.72,38.5-4.72,20.13-8.22,42.29,7,42.29,7,20.07-3.59,24.66,17.32,24.66,17.32,17.87,3.09,16.24,21.86,16.24,21.86,12.75-2.38,17.66,11.33,17.66,11.33,13.33-1.15,14.8,15.86,14.8,15.86,11.77,2.22,8.87,16.83,8.87,16.83,12.17,6.82,4.23,16.77,4.23,16.77,10.03,8.86,1.93,16.97,1.93,16.97,9.43,12.62,3,21.85,3,21.85,10.59,4.64,3.87,16.04,3.87,16.04,13.4,5.79,3.69,18.24,3.69,18.24,12.43,4.48,10.43,17.57,10.43,17.57,10.47,3.26,8.4,20.05,8.4,20.05,9.91,7.48,4.49,24.7,4.49,24.7,17.18,8.31,9.71,26.21,9.71,26.21,12.85,12.61,1.76,24.93,1.76,24.93,6.6,12.31,2.09,20.03,2.09,20.03,0,0,15.9,26.47-12.39,27.71"/>
    <path class="cls-12" d="M767.38,391.11s-17.31,1.81-21.34,41.51c0,0,2.09,13.03-.29,20.67-2.38,7.63-2.73,32.34-.02,46.71,2.71,14.37,11.69,38.79,33.51,50.63,21.82,11.85,57.7-5.23,57.7-5.23,0,0,36.58-16.1,45.46-38.04,0,0,12.8,14.76,26.6,3.71,13.8-11.05,29.5-40.15,14.98-48.74-12.46-7.37-24.76,9.12-28,13.94-.53,.8-.82,1.28-.82,1.28,0,0-38.53-50.91-31.84-84.25,0,0-23.03,16.82-49.24,6.94,0,0-31.8,11.86-46.7-9.12Z"/>
    <path class="cls-19" d="M917.51,396.91s.91,16.01-13.76,18.99c-14.67,2.98-9.49-18.65-9.49-18.65,0,0-22.01-2.05-20.04-10.39,1.97-8.35,16.07-19.66,19.5-13.84,3.42,5.82,3.65,16.98,3.65,16.98,0,0,17.35,1.16,20.15,6.91Z"/>
    <path class="cls-12" d="M447.47,593.07l-44.43,114.96s30.41,32.45,113.29,54.1l-.14,65.33s-122.63,3.84-197.56-22.24c0,0-34.43-19.99-36.65-59.98-5.92-106.61,42.26-194.75,42.26-194.75,0,0,45.48,45.92,123.23,42.58Z"/>
    <path class="cls-12" d="M516.33,762.13l10.66,2.17,97.69-28.76,63.89,15.69,28.14,39.49s-.6,16.99-21.39-2.55l-2.64,24.07s-7.79,17.63-17.05,1.19l-11.49,21.07s-9.38,12.2-14.21-3.19l-12.51,24.62s-15.96-4.15-11.72-22.79l-54.82,6.11-54.69-11.8,.14-65.33Z"/>
    <path class="cls-8" d="M675.63,813.43s3.83-20.53-12.95-25.65c-16.78-5.12-27.93-9.47-27.93-9.47"/>
    <path class="cls-12" d="M884.61,508.47s-27.19,49.16,5.96,58.24c0,0-7.17,85.82-86.45,88.29,0,0-75.1-5.32-39.24-81.91l17.54-11.3c5.12-11.6,4.09-20.46,4.09-20.46l82.32-42.29"/>
    <path class="cls-8" d="M695.32,788.17s1.37-3.14-3.87-14.63c-5.25-11.49-44.68-15.15-44.68-15.15"/>
    <g>
      <path class="cls-15" d="M815.54,425.55s23.15,3.05,39.38,16.44c0,0-4.73-15.08-38-21.75,0,0-6.4,1.26-1.38,5.31Z"/>
      <path class="cls-15" d="M743.84,432.03c15.36-5.8,27.12-5.92,27.12-5.92,5.48-3.39-.71-5.44-.71-5.44-10.55,.77-21.85,4.34-27.72,6.63,0,0,.47,5.05,1.31,4.73Z"/>
      <path class="cls-4" d="M782.2,459.71s-14.6,12.71-.42,21.89"/>
      <path class="cls-20" d="M784.9,553.09s19.01,3.37,41.93-5.1c0,0,11.93-3.07,30.96-15.77,0,0-9.56,16.9-44.83,23.41,0,0-12.56,1.8-27.64,2.17,0,0-.67-2.57-.41-4.71Z"/>
      <path class="cls-7" d="M922.82,481.41s-6.49-10.92-14.83-.49c-8.34,10.43-8.94,14.01-8.94,14.01,0,0,12.03-16.63,15.83-2.65"/>
      <g>
        <path class="cls-11" d="M904.93,466.53s-10.36,12.26-.88,18.63c9.48,6.37-6.62,2.06-6.62,2.06,0,0-11.02-5.28,3.55-25.19l3.94,4.49Z"/>
        <path class="cls-10" d="M904.06,485.17s6.01-14.24,15.92-10.81c9.92,3.43-1.56,20.68-1.56,20.68,0,0-3.15,4-8.76,3.44,0,0,5.78-9.51-5.6-13.31Z"/>
        <path class="cls-16" d="M929.13,467.89s8.07,4.91,5.77-5.01c-2.3-9.92-16.59-10.84-21.14-10.3-4.55,.54-11.18,2.49-12.77,9.46-1.58,6.97,8.5,1.15,8.5,1.15,0,0,12.22-8.48,19.65,4.7Z"/>
      </g>
    </g>
    <path class="cls-19" d="M782.42,562.87s-24.78,13.37-47.84,32.43c-25.55,21.1-22.77,65.53-22.77,65.53,0,0,.56,47.76,7.14,81.87l13.96,110.65-.63,46.26s94.52,52.28,242.76-8.5l-13.75-99.36-2.88-99.05s21.96-81.1-26.12-115.72l-56.46-25.73s-9.99,24.02-27.03,44.61c-16.85,20.36-40.66,32.21-58.31,28.14-12.03-2.78-20.41-9.87-22.03-18.33-3.43-17.91,13.97-42.79,13.97-42.79Z"/>
    <path class="cls-17" d="M783.67,562.26c-39.11,61.92,11.63,60.98,11.63,60.98,51.21,3.57,80.52-72.01,80.52-72.01l7.96,2.78s-17.96,48.13-50.92,67.84c-28.67,17.15-50.59,5.28-50.59,5.28,0,0-33.37-10.71-15.67-43.3l10.37-20.01,6.7-1.56Z"/>
    <circle class="cls-17" cx="782.53" cy="641.57" r="9.02"/>
    <circle class="cls-17" cx="800.4" cy="644.06" r="9.02"/>
    <circle class="cls-17" cx="818.84" cy="641.94" r="9.02"/>
    <circle class="cls-17" cx="836.84" cy="636.87" r="9.02"/>
    <circle class="cls-17" cx="852.17" cy="626.83" r="9.02"/>
    <circle class="cls-17" cx="866.25" cy="615.8" r="9.02"/>
    <circle class="cls-17" cx="765.97" cy="634.16" r="9.02"/>
    <circle class="cls-17" cx="751.22" cy="624.26" r="9.02"/>
    <circle class="cls-17" cx="744.04" cy="607.5" r="9.02"/>
    <circle class="cls-17" cx="788.59" cy="657.92" r="9.02"/>
    <circle class="cls-17" cx="811.07" cy="658.44" r="9.02"/>
    <circle class="cls-17" cx="832.42" cy="654.15" r="9.02"/>
    <circle class="cls-17" cx="852.51" cy="644.99" r="9.02"/>
    <circle class="cls-17" cx="768.01" cy="651.49" r="9.02"/>
    <circle class="cls-17" cx="749.63" cy="641.8" r="9.02"/>
    <circle class="cls-17" cx="733.81" cy="622.42" r="9.02"/>
    <path class="cls-8" d="M649.93,831.31s15.68-14.6-1.58-22c-17.26-7.4-20.79-3.56-20.79-3.56"/>
    <path class="cls-12" d="M852.63,844.63c56.52-41.64,64.43-115.4,64.43-115.4l-68.28-19.23-31.73,75.97s-68.58,2.21-151.49,22.99c0,0-32.88-19.69-56.71-17.63l-16.85-8.63s-7.4,1.23-2.88,8.22,12.33,16.02,12.33,16.02c0,0-35.33,11.09-47.25,19.72-11.92,8.63,3.7,8.63,3.7,8.63l11.92-.41s-1.19,8.63,8.31,9.58c0,0,3.8,7.29,9.51,7.61,0,0,2.22,6.97,11.09,6.97s28.52,1.9,28.52,1.9l25.67-3.8s10.1-8.47,16.99-9.62c0,0,146.93,15.8,182.71-2.88"/>
    <path class="cls-8" d="M609.77,826.15l-39.95,8.73s-15.08,.87-18.66-.11-3.25-6.5,4.22-10.07,46.07-17.76,46.07-17.76"/>
    <path class="cls-8" d="M614.81,836.65c-6.72,3.36-36.68,7.81-36.68,7.81,0,0-9.15-.05-8.31-9.58"/>
    <path class="cls-8" d="M587.64,852.06s22.97-.71,33.47-4.91"/>
    <path class="cls-5" d="M908.13,584.33s-29.06,1.45-42.14,33.42c-13.08,31.97-30.52,87.19-30.52,87.19l104.63,31.97,11.63-37.78"/>
    <path class="cls-8" d="M725.88,796.7c-28.32,3.89-60.32,12.26-60.32,12.26,0,0-36.38-20.79-56.71-17.63l-16.85-8.63s-7.15,.43-2.88,8.22,12.33,16.02,12.33,16.02l23.63-6.57"/>
    <path class="cls-8" d="M669.91,847.52s28.62,5.07,62.82,4.9"/>
    <path class="cls-13" d="M816.12,509.16s-16.1-7-25.5-1.82c0,0-10.29-4.14-21.42,2.13,0,0,1.42,11.85,22.56,11.91,24.14,.07,24.36-12.22,24.36-12.22Z"/>
    <path class="cls-7" d="M769.2,509.47s18.87,8.02,46.92-.31"/>
    <path class="cls-4" d="M750.59,446.1s6.74,12.64,20.71,2.89"/>
    <g>
      <path class="cls-6" d="M957.04,616.87s10.44-6.88,13.3,3.32c2.87,10.2-1.27,16.86-3.42,18.18s-10.06,4.04-9.85-4.99c.22-9.03,2.12-13.47,2.12-13.47l-2.16-3.05Z"/>
      <path class="cls-6" d="M944.43,601.63s13.5-8.9,17.21,4.3-1.65,21.81-4.42,23.52-13.02,5.23-12.74-6.45c.28-11.68,2.75-17.42,2.75-17.42l-2.79-3.95Z"/>
      <path class="cls-6" d="M930.36,584.42s15.42-10.16,19.65,4.91c4.23,15.07-1.88,24.9-5.05,26.86-3.17,1.96-14.87,5.97-14.55-7.37,.32-13.34,3.14-19.89,3.14-19.89l-3.19-4.5Z"/>
      <path class="cls-6" d="M914.33,568.64s17.57-12.09,21.98,3.59-1.96,25.92-5.26,27.95-15.47,6.22-15.14-7.67c.33-13.88,3.26-20.7,3.26-20.7l-4.84-3.17Z"/>
    </g>
    <path class="cls-17" d="M726.64,1000.07l5.65-100.46s120.39,51.09,240.21-11.42c0,0,19.62,47.66,18.82,111.99"/>
  </g>
  <path class="cls-4" d="M818.78,452.06s9.24,12.43,22.85-1.3"/>
</svg>