<?xml version="1.0" encoding="UTF-8"?>
<svg xmlns="http://www.w3.org/2000/svg" xmlns:xlink="http://www.w3.org/1999/xlink" viewBox="0 0 1333.86 1696.9">
  <defs>
    <style>
      .cls-1, .cls-2, .cls-3, .cls-4, .cls-5, .cls-6, .cls-7, .cls-8, .cls-9, .cls-10, .cls-11, .cls-12 {
        fill: none;
      }

      .cls-2 {
        stroke: #fbb040;
        stroke-width: 3px;
      }

      .cls-2, .cls-13, .cls-3, .cls-14, .cls-15, .cls-4, .cls-5, .cls-6, .cls-7, .cls-8, .cls-9, .cls-10, .cls-11, .cls-12 {
        stroke-miterlimit: 10;
      }

      .cls-16 {
        clip-path: url(#clippath);
      }

      .cls-17 {
        fill: #f7daa6;
      }

      .cls-18 {
        fill: #01a04c;
      }

      .cls-19, .cls-13 {
        fill: #e6e7e8;
      }

      .cls-20 {
        fill: #fff;
      }

      .cls-21 {
        fill: #b56e5b;
      }

      .cls-22 {
        fill: #8b5e3c;
      }

      .cls-23 {
        fill: #ba9777;
      }

      .cls-24 {
        fill: #a7d8ba;
      }

      .cls-25 {
        fill: #be9e7d;
      }

      .cls-26 {
        fill: #dcbf97;
      }

      .cls-27 {
        fill: #c6837e;
      }

      .cls-28 {
        fill: #231f20;
      }

      .cls-29 {
        fill: #0f3e5d;
      }

      .cls-30 {
        fill: #26130f;
      }

      .cls-13 {
        stroke: #58595b;
        stroke-width: .2px;
      }

      .cls-3 {
        stroke-linecap: round;
      }

      .cls-3, .cls-15, .cls-6 {
        stroke: #fff;
      }

      .cls-14 {
        fill: #a97c50;
      }

      .cls-14, .cls-7, .cls-12 {
        stroke: #a97c50;
      }

      .cls-14, .cls-9, .cls-10, .cls-11, .cls-12 {
        stroke-width: .5px;
      }

      .cls-15 {
        fill: #fff200;
      }

      .cls-4 {
        stroke: #cfe5ae;
        stroke-width: 2px;
      }

      .cls-5, .cls-8, .cls-9 {
        stroke: #231f20;
      }

      .cls-8 {
        stroke-width: 1.2px;
      }

      .cls-10 {
        stroke: #603913;
      }

      .cls-11 {
        stroke: #3c2415;
      }
    </style>
    <clipPath id="clippath">
      <rect class="cls-1" x="196.69" y="95.71" width="909.12" height="902.28"/>
    </clipPath>
  </defs>
  <g id="fondo">
    <rect class="cls-24" width="1333.86" height="999.57"/>
  </g>
  <g id="Layer_1" data-name="Layer 1">
    <g class="cls-16">
      <g>
        <path class="cls-22" d="M471.07,1586.8s-19.41,30.2-9.71,50.69c0,0,9.71,31.27,81.96,21.57,0,0,95.43,37.58,118.08-16.34,0,0-1.61-32.19-80.33-41.89,0,0,9.71,25.88-24.8,24.8,0,0-66.86-1.08-85.2-38.82Z"/>
        <path class="cls-23" d="M471.07,1586.8s3.1-18.49,8.74-26.54c0,0-10.47-77.32-2.42-114.37,0,0,49.94,11.28,84.57,9.67,0,0-12.08,75.71-16.91,113.57,0,0-2.42,20.94,12.08,23.36l23.94,8.35s12.63,43.2-49.44,23.69c-62.07-19.51-60.56-37.71-60.56-37.71Z"/>
        <path class="cls-25" d="M432.08,340.4s-12.63,61.3-29.39,81.77c0,0,21.87,111.59,117.82,134.6,0,0,61.72-48.82,35.35-117.27,0,0-13.55-10.95-14.96-25.55,0,0-79.26-25.03-108.82-73.54Z"/>
        <path class="cls-29" d="M244.56,938.73s-.92,234.84,21.68,489.77c0,0,208.46,81.63,388.04,1.26,0,0,15.26-282.03,.12-440.17,0,0-73.52-116.84-149.01-113.56-82.03,3.57-169.92,125.01-260.83,62.7Z"/>
        <path class="cls-22" d="M351.31,1605.3s-20.92,32.54-10.46,54.62c0,0,10.46,33.7,88.33,23.24,0,0,102.85,40.5,127.25-17.61,0,0-1.73-34.69-86.57-45.15,0,0,10.46,27.89-26.73,26.73,0,0-72.06-1.16-91.82-41.84Z"/>
        <g>
          <circle class="cls-12" cx="304.76" cy="1318.48" r="8.93"/>
          <circle class="cls-12" cx="298.47" cy="1351.08" r="8.93"/>
          <circle class="cls-12" cx="312.41" cy="1336.56" r="8.93"/>
          <circle class="cls-12" cx="280.72" cy="1341.28" r="8.93"/>
          <circle class="cls-12" cx="286.29" cy="1323.21" r="8.93"/>
        </g>
        <g>
          <circle class="cls-12" cx="362.24" cy="1244.07" r="8.93"/>
          <circle class="cls-12" cx="355.95" cy="1276.68" r="8.93"/>
          <circle class="cls-12" cx="369.88" cy="1262.16" r="8.93"/>
          <circle class="cls-12" cx="338.2" cy="1266.88" r="8.93"/>
          <circle class="cls-12" cx="343.77" cy="1248.81" r="8.93"/>
        </g>
        <g>
          <circle class="cls-12" cx="305.59" cy="1172.27" r="8.93"/>
          <circle class="cls-12" cx="299.3" cy="1204.88" r="8.93"/>
          <circle class="cls-12" cx="313.24" cy="1190.35" r="8.93"/>
          <circle class="cls-12" cx="281.55" cy="1195.07" r="8.93"/>
          <circle class="cls-12" cx="287.12" cy="1177" r="8.93"/>
        </g>
        <g>
          <circle class="cls-12" cx="413.3" cy="1154.72" r="8.93"/>
          <circle class="cls-12" cx="407.01" cy="1187.32" r="8.93"/>
          <circle class="cls-12" cx="420.94" cy="1172.8" r="8.93"/>
          <circle class="cls-12" cx="389.26" cy="1177.52" r="8.93"/>
          <circle class="cls-12" cx="394.83" cy="1159.45" r="8.93"/>
        </g>
        <g>
          <circle class="cls-12" cx="635.09" cy="1303.91" r="8.93"/>
          <circle class="cls-12" cx="628.8" cy="1336.52" r="8.93"/>
          <circle class="cls-12" cx="642.73" cy="1321.99" r="8.93"/>
          <circle class="cls-12" cx="611.05" cy="1326.71" r="8.93"/>
          <circle class="cls-12" cx="616.62" cy="1308.64" r="8.93"/>
        </g>
        <g>
          <circle class="cls-12" cx="576.05" cy="1386.88" r="8.93"/>
          <circle class="cls-12" cx="569.76" cy="1419.49" r="8.93"/>
          <circle class="cls-12" cx="583.7" cy="1404.96" r="8.93"/>
          <circle class="cls-12" cx="552.01" cy="1409.68" r="8.93"/>
          <circle class="cls-12" cx="557.58" cy="1391.61" r="8.93"/>
        </g>
        <g>
          <circle class="cls-12" cx="460.37" cy="1406.83" r="8.93"/>
          <circle class="cls-12" cx="454.08" cy="1439.43" r="8.93"/>
          <circle class="cls-12" cx="468.01" cy="1424.91" r="8.93"/>
          <circle class="cls-12" cx="436.33" cy="1429.63" r="8.93"/>
          <circle class="cls-12" cx="441.9" cy="1411.56" r="8.93"/>
        </g>
        <g>
          <circle class="cls-12" cx="387.77" cy="1363.74" r="8.93"/>
          <circle class="cls-12" cx="381.48" cy="1396.35" r="8.93"/>
          <circle class="cls-12" cx="395.41" cy="1381.83" r="8.93"/>
          <circle class="cls-12" cx="363.73" cy="1386.55" r="8.93"/>
          <circle class="cls-12" cx="369.3" cy="1368.48" r="8.93"/>
        </g>
        <g>
          <circle class="cls-12" cx="479.51" cy="1276.78" r="8.93"/>
          <circle class="cls-12" cx="473.23" cy="1309.39" r="8.93"/>
          <circle class="cls-12" cx="487.16" cy="1294.87" r="8.93"/>
          <circle class="cls-12" cx="455.48" cy="1299.59" r="8.93"/>
          <circle class="cls-12" cx="461.05" cy="1281.52" r="8.93"/>
        </g>
        <g>
          <circle class="cls-12" cx="571.26" cy="1252.05" r="8.93"/>
          <circle class="cls-12" cx="564.98" cy="1284.66" r="8.93"/>
          <circle class="cls-12" cx="578.91" cy="1270.13" r="8.93"/>
          <circle class="cls-12" cx="547.22" cy="1274.85" r="8.93"/>
          <circle class="cls-12" cx="552.8" cy="1256.78" r="8.93"/>
        </g>
        <g>
          <circle class="cls-12" cx="524.99" cy="1173.07" r="8.93"/>
          <circle class="cls-12" cx="518.7" cy="1205.67" r="8.93"/>
          <circle class="cls-12" cx="532.64" cy="1191.15" r="8.93"/>
          <circle class="cls-12" cx="500.95" cy="1195.87" r="8.93"/>
          <circle class="cls-12" cx="506.52" cy="1177.8" r="8.93"/>
        </g>
        <g>
          <circle class="cls-12" cx="631.75" cy="1141.31" r="8.93"/>
          <circle class="cls-12" cx="625.46" cy="1173.91" r="8.93"/>
          <circle class="cls-12" cx="639.39" cy="1159.39" r="8.93"/>
          <circle class="cls-12" cx="607.71" cy="1164.11" r="8.93"/>
          <circle class="cls-12" cx="613.28" cy="1146.04" r="8.93"/>
        </g>
        <g>
          <circle class="cls-12" cx="634.94" cy="1054.35" r="8.93"/>
          <circle class="cls-12" cx="628.65" cy="1086.95" r="8.93"/>
          <circle class="cls-12" cx="642.58" cy="1072.43" r="8.93"/>
          <circle class="cls-12" cx="610.9" cy="1077.15" r="8.93"/>
          <circle class="cls-12" cx="616.47" cy="1059.08" r="8.93"/>
        </g>
        <g>
          <circle class="cls-12" cx="539.2" cy="1051.95" r="8.93"/>
          <circle class="cls-12" cx="532.91" cy="1084.56" r="8.93"/>
          <circle class="cls-12" cx="546.84" cy="1070.04" r="8.93"/>
          <circle class="cls-12" cx="515.16" cy="1074.75" r="8.93"/>
          <circle class="cls-12" cx="520.73" cy="1056.68" r="8.93"/>
        </g>
        <g>
          <circle class="cls-12" cx="480.96" cy="1105.41" r="8.93"/>
          <circle class="cls-12" cx="474.67" cy="1138.01" r="8.93"/>
          <circle class="cls-12" cx="488.6" cy="1123.49" r="8.93"/>
          <circle class="cls-12" cx="456.92" cy="1128.21" r="8.93"/>
          <circle class="cls-12" cx="462.49" cy="1110.14" r="8.93"/>
        </g>
        <g>
          <circle class="cls-12" cx="411.55" cy="1053.55" r="8.93"/>
          <circle class="cls-12" cx="405.26" cy="1086.15" r="8.93"/>
          <circle class="cls-12" cx="419.2" cy="1071.63" r="8.93"/>
          <circle class="cls-12" cx="387.51" cy="1076.35" r="8.93"/>
          <circle class="cls-12" cx="393.08" cy="1058.28" r="8.93"/>
        </g>
        <g>
          <circle class="cls-12" cx="336.19" cy="1093.29" r="8.93"/>
          <circle class="cls-12" cx="329.9" cy="1125.9" r="8.93"/>
          <circle class="cls-12" cx="343.83" cy="1111.37" r="8.93"/>
          <circle class="cls-12" cx="312.15" cy="1116.09" r="8.93"/>
          <circle class="cls-12" cx="317.72" cy="1098.02" r="8.93"/>
        </g>
        <g>
          <circle class="cls-12" cx="301.86" cy="1015.99" r="8.93"/>
          <circle class="cls-12" cx="295.57" cy="1048.6" r="8.93"/>
          <circle class="cls-12" cx="309.51" cy="1034.08" r="8.93"/>
          <circle class="cls-12" cx="277.82" cy="1038.8" r="8.93"/>
          <circle class="cls-12" cx="283.39" cy="1020.73" r="8.93"/>
        </g>
        <path class="cls-23" d="M351.31,1605.3s3.34-19.92,9.42-28.6c0,0-11.28-83.33-2.6-123.26,0,0,53.82,12.15,91.14,10.42,0,0-13.02,81.59-18.23,122.39,0,0-2.6,22.57,13.02,25.17l25.8,8.99s13.62,46.55-53.28,25.53c-66.89-21.02-65.27-40.64-65.27-40.64Z"/>
        <path class="cls-11" d="M469.85,1620.41s70.49,.31,86.32,42.27"/>
        <path class="cls-25" d="M431.52,288.58s-7.69-56.81,22.74-88.89c18.58-19.59,60-20.75,100.9-20.97,0,0,86.66,7.26,58.81,114.82,0,0-5.32,10.59-3.05,19.73,0,0,5.1,17.52-7.39,51.92-16.65,45.85-40.15,46.13-40.15,46.13,0,0-3.18,13.13-29.92,11.51,0,0-23.85,2.98-46.67-13.63,0,0-60.28-34.58-54.71-68.81,0,0-25.95,13.05-34.8-28.56,0,0-9.24-71.91,34.24-23.26Z"/>
        <path class="cls-19" d="M538.96,269.94s-29.18-11.82-47.43-.31c0,0,5.88-21.47,48.89-8.74,0,0,7.35,6.24-1.46,9.05Z"/>
        <path class="cls-5" d="M569.07,318.53s15.35,27.24-15.22,27.89"/>
        <path class="cls-5" d="M401.33,296s11.02-23.46,26.52,16.91c0,0-14.41-18.42-18.38-3.92"/>
        <path class="cls-8" d="M481.85,279.64l10.03,30.97s17.37,10.9,41.94,6.41l14.86-28.17s-31.72-18.08-66.82-9.21Z"/>
        <path class="cls-30" d="M543.39,422.68s-2.99,.46-10.85-.13c0,0-37.25,3.46-72.02-32.06,0,0,9.68,13.08,31.17,26.33,0,0,25.93,14.69,53.31,9.72,0,0,.6,.41-1.61-3.86Z"/>
        <path class="cls-13" d="M482.26,200.33s58.83,27.88,94.29,1.15c0,0,11.93,21.15,42.38,48.06,0,0,4.46,16.19-10.36,52.71,0,0,9.67,30.03-9.53,67.88,0,0-15.72,33.65-35.67,41.2,0,0-2.98,4.18-6.1,6.8,0,0,8.36,11.97,17.91,11.51,0,0-6.21-12.35-.89-14.97,0,0,63.8-15.08,58.37-144.65,0,0,45.98-57.7-5.54-97.42-23.28-17.95-43.72-68.46-104.96-42.01,0,0-79.45-41.27-105.91,37.26,0,0-89.33,21.61-39.44,133.6,0,0-16.21,36.36,17.59,65.98,3.9,3.42,11.59,18.68,4.09,40.44-2.02,5.87,14.64-5.21,20.2-16.51,0,0,10.1-20.33,13.38-50.95,0,0-28.29,8.04-32.5-23.43,0,0-9-34.68,3.32-40.08,0,0,13.8-5.47,27.6,11.62,0,0,54.13-5.63,51.76-88.17Z"/>
        <path class="cls-19" d="M615,272.88c-.43-2.16-19.67-6.49-38.1-6.35,0,0-8.92,4.02-1.12,9.23,0,0,34.23-4.82,37.21,6.54,0,0,3.08-4.08,2.01-9.43Z"/>
        <path class="cls-8" d="M559.61,288.13l10.03,30.97s15.36,8.24,39.94,3.75l12.35-31.37s-27.21-12.23-62.31-3.36Z"/>
        <path class="cls-8" d="M559.61,288.13s-6.13-6.67-10.94,.72"/>
        <line class="cls-8" x1="481.85" y1="279.64" x2="413.14" y2="273.89"/>
        <path class="cls-9" d="M500.8,236.61s26.85,3.61,39.53,6.82c12.68,3.2,49.83-5.66,49.83-5.66"/>
        <g>
          <path class="cls-20" d="M497.64,289.01s.02-.74,.59-1.34c1.9-1.97,6.24-5.64,12.84-5.38,7.39,.28,11.19,7.38,12.49,9.91,.22,.44,.19,.81,.19,.81,0,0,0,.41-.25,.69-1.23,1.32-5.31,4.99-12.31,4.83-4.17-.1-9.93-2.56-13.33-8.35-.24-.4-.24-.9-.22-1.17Z"/>
          <circle class="cls-30" cx="512.83" cy="290.89" r="7.64"/>
          <circle class="cls-20" cx="508.07" cy="289.16" r="2.1"/>
          <path class="cls-5" d="M524.01,292.22s-8.32-17.98-26.06-4.62"/>
        </g>
        <g>
          <path class="cls-20" d="M580.51,299.01s-.09-.69,.36-1.33c1.48-2.11,5-6.13,11.17-6.84,6.91-.79,11.46,5.26,13.03,7.43,.27,.37,.29,.73,.29,.73,0,0,.07,.38-.13,.68-.96,1.41-4.22,5.4-10.75,6.26-3.89,.51-9.6-.96-13.59-5.86-.28-.34-.35-.81-.37-1.06Z"/>
          <circle class="cls-30" cx="594.91" cy="298.58" r="7.17"/>
          <circle class="cls-20" cx="590.01" cy="297.79" r="2.01"/>
          <path class="cls-5" d="M605.21,298.49s-9.89-16.57-24.52-.5"/>
        </g>
        <path class="cls-25" d="M827.03,684.57l9.28-8.48s.81-35.12,35.92-42.38c0,0,12.51-1.61,18.16-12.51,5.65-10.9,21.39-14.93,24.62-12.11,3.23,2.83,7.27,14.93-2.02,20.59s-25.83,20.59-25.83,20.59l98.08,8.07s16.15,3.23,14.53,11.3c-1.61,8.07-19.78,3.23-19.78,3.23l-35.52,14.13s-26.24,28.66-65.39,22.6l-15.74,10.9-36.33-35.92Z"/>
        <path class="cls-10" d="M884.5,662.55s15.06,5.69,16.4,18.41"/>
        <path class="cls-10" d="M911.81,683.85s36.09-27.74,48.12-8.69"/>
        <line class="cls-10" x1="903.79" y1="668.15" x2="927.51" y2="669.82"/>
        <path class="cls-25" d="M679.33,630.7s25.58,90.64,36.53,107.07l111.17-53.2,36.33,35.92s-47.09,98.51-121.94,135.03c-74.85,36.51-94.02-1.83-94.02-1.83,0,0-9.36-28.41,15.8-104.84,25.16-76.43,16.13-118.15,16.13-118.15Z"/>
        <g>
          <path class="cls-21" d="M561.66,373.68s-8.78-11.33-22.54-8.09c0,0-9.49-6.51-30.56,.75,0,0,5.91,13.37,26.73,15.58,20.82,2.21,26.37-8.24,26.37-8.24Z"/>
          <path class="cls-8" d="M508.56,366.34s30.13,4.25,53.1,7.34"/>
        </g>
        <path class="cls-17" d="M406.19,417.59s16.53,88.43,88.77,87.21c51.23-.87,56.7-19.16,58.68-67.56,0,0,62.63,15.82,89.39,44.37,26.76,28.54,67.79,158.77,58.87,240.83,0,0-5.35,44.6-62.44,80.28,0,0,12.72,128.49,10.82,173.96,0,0-21.53,38.33-117.86,38.33l-21.41-142.72,1.78,140.93s-90.71,15.74-171.26-23.19c0,0-94.91-31.32-105.62-41.42-3.09-2.91,22.97-145.8,17.29-164.26,0,0-.55,3.85-28.47-33.74,0,0-12.57-322.12,181.45-333.03Z"/>
        <path class="cls-7" d="M375.38,719.99s41.25-80.48,10.11-194.31"/>
        <path class="cls-7" d="M639.45,802.72s.2-145.82-22.22-184.53"/>
        <circle class="cls-14" cx="489.26" cy="559.59" r="13.17"/>
        <circle class="cls-14" cx="499.3" cy="662.37" r="13.17"/>
        <circle class="cls-14" cx="502.78" cy="774.84" r="13.17"/>
      </g>
      <g>
        <path class="cls-26" d="M637.49,855.61c9.96-99.57,23.9-254.9,23.9-254.9,0,0-1.2-96.17,40.76-124.98,41.96-28.81,64.22-24.31,64.22-24.31,0,0,44.59,118.07-57.67,181.18l18.19,113.89,2.76,51.39"/>
        <path class="cls-26" d="M973.37,758.41s-42.02-12.23-60.11-39.1l15.41-89.17,44.69,128.27Z"/>
        <path class="cls-26" d="M914.18,341.79s-18.25,93.75,34.79,108.27c0,0,.04,94.07-126.8,98.04,0,0-36.13-16.6-60.08-101.19,0,0,38.03-12.83,38.52-34.92,.52-23.38-6.86,.73-6.86,.73l120.43-70.93"/>
        <path class="cls-29" d="M1030.59,869.31s100.42,184.99,21.31,337.55l-33.76,110.95s-20.03,57.74-12.46,136.65c4.81,50.19-4.89,118.48-17.61,184.87,0,0-43.91,43.4-103.72,15.06,0,0-49.96,15.08-106.46-11.76l-89.14-221.19s-17.61-31.98-17.61-71.53c0,0-30.73-340.67,20.09-467.2,0,0,133.2,90.26,339.35-13.4Z"/>
        <path class="cls-26" d="M914.2,299.1s-17.18-127.73-118-116.08c0,0-75.05,6.04-62.05,111.66,0,0,5.45,16.68,3.29,25.93,0,0-2.96,28.14,7.67,50.41,15.96,33.45,34.75,49.87,34.75,49.87,0,0,15.85,12.7,42.09,10.98,0,0,18.38-1.96,40.65-18.83,0,0,57.18-31.56,51.44-66.16,0,0,23.53,11.46,31.89-30.66,0,0,12.25-36.81-1.9-41.56-17.86-5.99-23.32,5.77-29.84,24.44Z"/>
        <path class="cls-30" d="M815.52,266.55s37.08-6.35,51.88,7.51c0,0-9.68-20.25-51.62-16.11,0,0-7.88,4.46-.25,8.61Z"/>
        <path class="cls-30" d="M730.02,277.44c0-2.04,16.68-9.46,33.44-12.69,0,0,8.83,2.03,2.69,8.18,0,0-31.96,1.85-32.6,12.71,0,0-3.54-3.15-3.54-8.19Z"/>
        <path class="cls-8" d="M793.36,348.34c-25.22-1.22-10.6-25.66-10.6-25.66"/>
        <path class="cls-8" d="M944.69,302.68s-11.28-23.67-26.73,17.25c0,0,14.47-18.71,18.57-4.07"/>
        <path class="cls-30" d="M793.46,428.11s21.93,9.38,49.21-2.87c0,0,23.89-10.3,42.63-28.18,0,0-24.13,29.63-58.28,36.81,0,0-20.11,4.29-36.95-2.8,0,0,1.99-1.77,3.4-2.95Z"/>
        <path class="cls-18" d="M1030.59,869.31s-2.36-60.08-13.76-106.2c0,0-23.49-109.65-27.7-112.49-50.77-34.17-27.25-195.97-27.25-195.97l-25.75-9.93s-9.43,91.66-84.67,91.66c-41.01,0-72.54-7.9-72.17-98.22l-30.99,15.55s-19.27,94.01-33.99,160.56c0,0-28.2,66.09-5.37,119.74,0,0,1.87,57.94-17.69,148.7,0,0,142.64,104.17,339.35-13.4Z"/>
        <path class="cls-30" d="M751.65,383.6c-16.34-25.25-14.68-59.21-14.68-59.21,0,0,1.31-6.54,1.05-19.52-.26-12.92-3.23-15.69-2.99-27.24,0,0,39.4-12.66,70.56-50.3,0,0,38.22-19.17,8.87-13.34,0,0,10.25-16.63,54.22-7.07,0,0,12.02,62.46,45.52,92.18,0,0,12.71-30.71,29.84-24.44,17.13,6.26-4.19,53.75-4.19,53.75,0,0-5.26,27.58-24.97,17.35,0,0-7.26,27.14,1.62,55.66,0,0,4.92-3.14,11.44-12.46,0,0-3.73,14.13-12.28,24.26,0,0,38.45-12.67,38.94-51.29,0,0-1.11-13.08,9.01-15.82,10.12-2.74,20.98-40.73,16.42-72.33-4.56-31.61-37.64-137.46-108.66-133.85,0,0-39.42-13.59-85.46,19.93-46.04,33.52-40.47,40.16-76.41,105.27,0,0-18.31,7.29,13.95,30.27,0,0-5.53,33.07-.95,23.02,0,0-3.76,34.09,11.98,46.54,0,0-3.13-9.84-4.21-26.06,0,0-.83,36.45,29.81,57.99"/>
        <path class="cls-4" d="M869.54,273.51s-35.24-8.76-65.78,5.7c0,0-.55,46.19,34.31,44.73,0,0,45.02-4.69,31.47-50.43Z"/>
        <path class="cls-4" d="M781.7,280.58s-30.83-8.76-56.2,8.06c0,0-4.62,42.21,30.24,40.74,0,0,39.51-3.06,25.96-48.8Z"/>
        <path class="cls-4" d="M781.7,280.58s12.24-7.04,22.07-1.37"/>
        <line class="cls-4" x1="865.04" y1="273.28" x2="918.91" y2="285.02"/>
        <line class="cls-15" x1="921.76" y1="340.17" x2="924.02" y2="366.82"/>
        <polygon class="cls-6" points="927.87 370.17 924.14 364.54 921.95 370.92 915.44 372.73 920.83 376.79 920.54 383.54 926.07 379.67 932.4 382.03 930.42 375.57 934.62 370.29 927.87 370.17"/>
        <path class="cls-30" d="M871.38,139.93s-48.43-31-87.44,2.04c0,0-8.62,19.42-34.7,16.9-13.79-1.33-15.33,20.23-15.33,20.23,0,0,5.84,17.22-10.53,17.3,0,0-25.67,9.65-18.68,39.99,6.99,30.33-10.62,41.41-10.62,41.41,0,0-14.66,12-6.22,28.27,0,0,8.48,10.64,4.62,17.28-3.86,6.64-12.16,5.45-12.16,5.45,0,0,11.97,7.19,20.2-7.39,8.23-14.58,10.3-27.38,10.3-27.38,0,0-4.05,19.28,.61,29.61,0,0,1.05,4.96-7.03,13.85-8.08,8.89-2.9,17.92-2.9,17.92,0,0,1.5-12.12,7.03-13.85,5.53-1.73,9.13-3.93,9.13-3.93,0,0,9.36,17.61,16.81,27.31,3.09,4.03,2.95,13.67-9.32,17.86-12.27,4.19,.37,27.93,.37,27.93,0,0-2.23-22.31,8.63-20.71,10.87,1.6,9.88-9.19,9.88-9.19,0,0-9.95-20.62-9.67-47.15l-8.48-55.45s21.72-4.36,34.24-13c0,0,34.27-21.18,45.43-37.92,0,0-16.91,19.45-17.5,26.37-1.32,15.53-17.43,20.66-17.43,20.66,0,0,23.65,.25,24.95-11.89,2.3-21.64,21.07-22.1,21.07-22.1,0,0,21.11,2.52,31.59-15.41,10.47-17.93,20.42-18.05,20.42-18.05,0,0,30.48-29.98,2.7-66.99Z"/>
        <path class="cls-30" d="M721.21,321.98s5.28,7.96-.11,18.54c-5.4,10.58-13.31,11.02-12.92,20.37,.39,9.35,13.8,26.34,13.8,26.34,0,0-9.51-15.41-4.83-26.02,4.68-10.61,17.51-10.1,17.51-10.1"/>
        <path class="cls-28" d="M807.86,256.88s-5.34,8.34,1.59,13.2c0,0-13.04-5.34-1.59-13.2Z"/>
        <path class="cls-3" d="M748.84,360.12c-7.36-15.8-3.75-50.93-3.75-50.93"/>
        <path class="cls-3" d="M750.89,310.03s-.53,2.18,.35,8.65"/>
        <path class="cls-3" d="M750.3,322.32s-.11,2.56,.15,4.85"/>
        <path class="cls-3" d="M852.24,300.23s10.26,13.8,11,51.29"/>
        <path class="cls-3" d="M848.41,304.86s1.91,4.24,2.06,6.92"/>
        <path class="cls-3" d="M855.24,323.65s1.33,3.12,.96,5.57"/>
        <path class="cls-5" d="M825.47,297.65s12,13.5,28.83-3.93"/>
        <path class="cls-5" d="M740.1,301.16s7.28,14.42,28.55,1.13"/>
        <g>
          <path class="cls-27" d="M783.03,379.52s9.75-10.5,23.17-6.05c0,0,10.04-5.64,30.37,3.47,0,0-7.07,12.79-28.01,13.13-20.94,.34-25.54-10.56-25.54-10.56Z"/>
          <path class="cls-8" d="M836.57,376.94s-30.39,1.55-53.55,2.58"/>
        </g>
        <path class="cls-18" d="M748.29,453.71s-88.74-1.13-86.91,147.01l69.47,33.43"/>
      </g>
      <path class="cls-18" d="M961.88,454.65s109.71,11.33,115.58,135.66l.98,23.5s-9.79,62.65-89.09,62.65c0,0-75.51-106.85-27.48-221.81Z"/>
      <path class="cls-2" d="M418.43,330.12s-9.26,14.05,.58,22.66c9.84,8.61,4.71-12.37,4.71-12.37"/>
    </g>
    <g>
      <path class="cls-26" d="M973.69,674.5l-35.35,119s-114.89,21.21-168.91,41.47l-.77,62.69s174.38,20.46,239.97,.2c0,0,27.93-7.29,48-80.44,23.55-85.81,23.76-198.73,23.76-198.73,0,0-46.01,68.53-106.71,55.8Z"/>
      <path class="cls-25" d="M529.67,858.84l21.22,1.49c8.54,24.89,45.43,26.51,45.43,26.51l44.26,3.01s44.17,15.09,46.33-4.35c2.16-19.44-28.04-19-48.15-21.16-20.11-2.16-7.96-12.14-7.96-12.14,33.62-9.14,56.91,16.53,56.91,16.53,20.63,22.3,31.46,10.3,31.46,10.3-23.03-61.23-81.26-80.45-81.26-80.45,0,0-24.34-7.15-48.29-2.37-20.94,4.17-43.58-5.19-43.58-5.19,0,0,3.51,26.3-16.36,67.82Z"/>
      <path class="cls-26" d="M769.44,834.97l-9.29,1.55-83.59-27.86-55.73,11.61-25.54,33.28s0,14.71,18.58-1.55l1.55,20.9s6.19,15.48,14.71,1.55l9.29,18.58s7.74,10.84,12.38-2.32l10.06,21.67s13.93-3.1,10.84-19.35l47.21,6.97,48.76-2.32,.77-62.69Z"/>
      <path class="cls-11" d="M656.76,827.74s-34.22,1.96-39.1,11.73c-4.89,9.78-3.8,12.53-3.8,12.53"/>
      <path class="cls-11" d="M630.11,874.44s-2.68-17.87,11.98-21.78c14.66-3.91,24.44-7.33,24.44-7.33"/>
      <path class="cls-11" d="M651.79,890.7s-13.11-13.11,2.04-18.97c15.15-5.87,18.09-2.44,18.09-2.44"/>
      <path class="cls-25" d="M354.43,720.71c8.67,7.22,12.45,14.05,11.69,13.19s-1.16-.14,0,0c13.15,1.58,60.82,8.65,179.91,57.12,0,0,3.97,45.92-16.36,67.82,0,0-194.3-.03-262.89-39.38,0,0-34.15-31.24-33.42-66.84"/>
    </g>
  </g>
</svg>