<svg xmlns="http://www.w3.org/2000/svg" xmlns:xlink="http://www.w3.org/1999/xlink" width="1200" zoomAndPan="magnify" viewBox="0 0 900 675.000002" height="900" preserveAspectRatio="xMidYMid meet" version="1.0"><defs><clipPath id="22b36e333f"><path d="M 0.664062 0 L 899.332031 0 L 899.332031 674 L 0.664062 674 Z M 0.664062 0 " clip-rule="nonzero"/></clipPath><clipPath id="c376d52249"><path d="M 163 594 L 447 594 L 447 674 L 163 674 Z M 163 594 " clip-rule="nonzero"/></clipPath><clipPath id="6e4b81ca7e"><path d="M 149 283 L 475 283 L 475 674 L 149 674 Z M 149 283 " clip-rule="nonzero"/></clipPath><clipPath id="edc5a4cfa0"><path d="M 446 590 L 733 590 L 733 674 L 446 674 Z M 446 590 " clip-rule="nonzero"/></clipPath></defs><g clip-path="url(#22b36e333f)"><path fill="#ffffff" d="M 0.664062 0 L 899.335938 0 L 899.335938 674 L 0.664062 674 Z M 0.664062 0 " fill-opacity="1" fill-rule="nonzero"/><path fill="#ffffff" d="M 0.664062 0 L 899.335938 0 L 899.335938 674 L 0.664062 674 Z M 0.664062 0 " fill-opacity="1" fill-rule="nonzero"/><rect x="-90" width="1080" fill="#a7d8ba" y="-67.5" height="810.000002" fill-opacity="1"/></g><path fill="#be9e7d" d="M 290.511719 231.203125 C 290.511719 231.203125 281.933594 272.835938 270.550781 286.738281 C 270.550781 286.738281 285.40625 362.53125 350.574219 378.160156 C 350.574219 378.160156 392.492188 345.003906 374.582031 298.511719 C 374.582031 298.511719 365.378906 291.074219 364.421875 281.15625 C 364.421875 281.15625 310.589844 264.15625 290.511719 231.207031 Z M 290.511719 231.203125 " fill-opacity="1" fill-rule="nonzero"/><g clip-path="url(#c376d52249)"><path fill="#0f3e5d" d="M 163.152344 637.589844 C 163.152344 637.589844 162.527344 797.09375 177.875 970.242188 C 177.875 970.242188 319.460938 1025.6875 441.425781 971.101562 C 441.425781 971.101562 451.792969 779.542969 441.507812 672.132812 C 441.507812 672.132812 391.574219 592.777344 340.304688 595.003906 C 284.589844 597.429688 224.898438 679.910156 163.152344 637.589844 Z M 163.152344 637.589844 " fill-opacity="1" fill-rule="nonzero"/></g><path fill="#be9e7d" d="M 290.132812 196.003906 C 290.132812 196.003906 284.910156 157.417969 305.578125 135.628906 C 318.195312 122.324219 346.328125 121.535156 374.105469 121.386719 C 374.105469 121.386719 432.964844 126.320312 414.050781 199.375 C 414.050781 199.375 410.4375 206.566406 411.976562 212.773438 C 411.976562 212.773438 415.441406 224.675781 406.957031 248.039062 C 395.648438 279.179688 379.6875 279.371094 379.6875 279.371094 C 379.6875 279.371094 377.53125 288.289062 359.367188 287.1875 C 359.367188 287.1875 343.167969 289.210938 327.671875 277.929688 C 327.671875 277.929688 286.730469 254.445312 290.511719 231.195312 C 290.511719 231.195312 272.886719 240.058594 266.875 211.796875 C 266.875 211.796875 260.601562 162.953125 290.132812 196 Z M 290.132812 196.003906 " fill-opacity="1" fill-rule="nonzero"/><path fill="#e6e7e8" d="M 363.105469 183.34375 C 363.105469 183.34375 343.285156 175.316406 330.890625 183.132812 C 330.890625 183.132812 334.882812 168.550781 364.09375 177.199219 C 364.09375 177.199219 369.085938 181.4375 363.105469 183.34375 Z M 363.105469 183.34375 " fill-opacity="1" fill-rule="nonzero"/><path stroke-linecap="butt" transform="matrix(0.679185, 0, 0, 0.679205, -2.949577, 0.0000199704)" fill="none" stroke-linejoin="miter" d="M 569.071016 318.530808 C 569.071016 318.530808 584.421454 345.768545 553.852859 346.418432 " stroke="#231f20" stroke-width="1" stroke-opacity="1" stroke-miterlimit="10"/><path stroke-linecap="butt" transform="matrix(0.679185, 0, 0, 0.679205, -2.949577, 0.0000199704)" fill="none" stroke-linejoin="miter" d="M 401.331961 295.997562 C 401.331961 295.997562 412.351609 272.538372 427.851583 312.911875 C 427.851583 312.911875 413.43862 294.490745 409.470166 308.989549 " stroke="#231f20" stroke-width="1" stroke-opacity="1" stroke-miterlimit="10"/><path stroke-linecap="butt" transform="matrix(0.679185, 0, 0, 0.679205, -2.949577, 0.0000199704)" fill="none" stroke-linejoin="miter" d="M 481.851308 279.641118 L 491.881718 310.61139 C 491.881718 310.61139 509.250892 321.509936 533.820796 317.01824 L 548.682367 288.848807 C 548.682367 288.848807 516.957744 270.77275 481.862811 279.641118 Z M 481.851308 279.641118 " stroke="#231f20" stroke-width="1.2" stroke-opacity="1" stroke-miterlimit="10"/><path fill="#26130f" d="M 366.113281 287.085938 C 366.113281 287.085938 364.082031 287.398438 358.742188 286.996094 C 358.742188 286.996094 333.445312 289.347656 309.828125 265.222656 C 309.828125 265.222656 316.402344 274.105469 331 283.105469 C 331 283.105469 348.609375 293.082031 367.207031 289.707031 C 367.207031 289.707031 367.613281 289.988281 366.113281 287.085938 Z M 366.113281 287.085938 " fill-opacity="1" fill-rule="nonzero"/><path stroke-linecap="butt" transform="matrix(0.679185, 0, 0, 0.679205, -2.949577, 0.0000199704)" fill-opacity="1" fill="#e6e7e8" fill-rule="nonzero" stroke-linejoin="miter" d="M 482.259656 200.331914 C 482.259656 200.331914 541.090543 228.208035 576.547812 201.482156 C 576.547812 201.482156 588.48193 222.62936 618.929746 249.539278 C 618.929746 249.539278 623.392818 265.728937 608.571507 302.249129 C 608.571507 302.249129 618.23958 332.281955 599.041467 370.130676 C 599.041467 370.130676 583.317189 403.781013 563.371396 411.332354 C 563.371396 411.332354 560.39218 415.507733 557.26918 418.130286 C 557.26918 418.130286 565.631689 430.098556 575.178983 429.638459 C 575.178983 429.638459 568.967491 417.290609 574.287519 414.668056 C 574.287519 414.668056 638.087599 399.58838 632.658295 270.019341 C 632.658295 270.019341 678.640593 212.317438 627.119714 172.599573 C 603.83812 154.650042 583.397708 104.137154 522.162744 130.592726 C 522.162744 130.592726 442.707403 89.322033 416.251046 167.849072 C 416.251046 167.849072 326.920581 189.462124 376.808068 301.449711 C 376.808068 301.449711 360.600674 337.808869 394.401546 367.427607 C 398.300983 370.849578 405.99058 386.107541 398.490778 407.870125 C 396.472043 413.742111 413.128045 402.659527 418.689632 391.358397 C 418.689632 391.358397 428.789058 371.027865 432.067346 340.408416 C 432.067346 340.408416 403.78205 348.44861 399.572038 316.977981 C 399.572038 316.977981 390.571125 282.298177 402.890585 276.89779 C 402.890585 276.89779 416.688151 271.428388 430.491467 288.520988 C 430.491467 288.520988 484.617723 282.890552 482.248154 200.349167 Z M 482.259656 200.331914 " stroke="#58595b" stroke-width="0.2" stroke-opacity="1" stroke-miterlimit="10"/><path fill="#e6e7e8" d="M 414.75 185.339844 C 414.457031 183.875 401.390625 180.933594 388.871094 181.027344 C 388.871094 181.027344 382.8125 183.757812 388.113281 187.296875 C 388.113281 187.296875 411.359375 184.023438 413.382812 191.738281 C 413.382812 191.738281 415.476562 188.96875 414.75 185.335938 Z M 414.75 185.339844 " fill-opacity="1" fill-rule="nonzero"/><path stroke-linecap="butt" transform="matrix(0.679185, 0, 0, 0.679205, -2.949577, 0.0000199704)" fill="none" stroke-linejoin="miter" d="M 559.609992 288.129905 L 569.640403 319.100178 C 569.640403 319.100178 585.002344 327.341664 609.577999 322.849968 L 621.931967 291.482862 C 621.931967 291.482862 594.722179 279.250035 559.621495 288.118403 Z M 559.609992 288.129905 " stroke="#231f20" stroke-width="1.2" stroke-opacity="1" stroke-miterlimit="10"/><path stroke-linecap="butt" transform="matrix(0.679185, 0, 0, 0.679205, -2.949577, 0.0000199704)" fill="none" stroke-linejoin="miter" d="M 559.609992 288.129905 C 559.609992 288.129905 553.479019 281.4585 548.670864 288.848807 " stroke="#231f20" stroke-width="1.2" stroke-opacity="1" stroke-miterlimit="10"/><path stroke-linecap="butt" transform="matrix(0.679185, 0, 0, 0.679205, -2.949577, 0.0000199704)" fill="none" stroke-linejoin="miter" d="M 481.851308 279.641118 L 413.139548 273.889906 " stroke="#231f20" stroke-width="1.2" stroke-opacity="1" stroke-miterlimit="10"/><path stroke-linecap="butt" transform="matrix(0.679185, 0, 0, 0.679205, -2.949577, 0.0000199704)" fill="none" stroke-linejoin="miter" d="M 500.802112 236.610555 C 500.802112 236.610555 527.649563 240.222315 540.33136 243.431491 C 553.007406 246.629165 590.161333 237.772299 590.161333 237.772299 " stroke="#231f20" stroke-width="0.5" stroke-opacity="1" stroke-miterlimit="10"/><path fill="#ffffff" d="M 335.039062 196.296875 C 335.039062 196.296875 335.054688 195.792969 335.441406 195.386719 C 336.730469 194.046875 339.679688 191.554688 344.160156 191.734375 C 349.179688 191.921875 351.761719 196.746094 352.644531 198.464844 C 352.792969 198.761719 352.773438 199.015625 352.773438 199.015625 C 352.773438 199.015625 352.773438 199.292969 352.605469 199.484375 C 351.769531 200.378906 348.996094 202.871094 344.242188 202.761719 C 341.410156 202.695312 337.5 201.023438 335.1875 197.089844 C 335.027344 196.820312 335.027344 196.480469 335.039062 196.296875 Z M 335.039062 196.296875 " fill-opacity="1" fill-rule="nonzero"/><path fill="#26130f" d="M 350.546875 197.574219 C 350.546875 197.914062 350.511719 198.253906 350.445312 198.585938 C 350.378906 198.921875 350.28125 199.246094 350.152344 199.558594 C 350.019531 199.875 349.859375 200.171875 349.671875 200.457031 C 349.480469 200.738281 349.265625 201.003906 349.027344 201.242188 C 348.785156 201.484375 348.523438 201.699219 348.238281 201.886719 C 347.957031 202.078125 347.65625 202.238281 347.34375 202.367188 C 347.027344 202.5 346.703125 202.597656 346.367188 202.664062 C 346.035156 202.730469 345.699219 202.761719 345.355469 202.761719 C 345.015625 202.761719 344.679688 202.730469 344.34375 202.664062 C 344.011719 202.597656 343.6875 202.5 343.371094 202.367188 C 343.054688 202.238281 342.757812 202.078125 342.472656 201.886719 C 342.191406 201.699219 341.929688 201.484375 341.6875 201.242188 C 341.445312 201.003906 341.230469 200.738281 341.042969 200.457031 C 340.851562 200.171875 340.691406 199.875 340.5625 199.558594 C 340.433594 199.246094 340.332031 198.921875 340.265625 198.585938 C 340.199219 198.253906 340.167969 197.914062 340.167969 197.574219 C 340.167969 197.234375 340.199219 196.894531 340.265625 196.5625 C 340.332031 196.226562 340.433594 195.902344 340.5625 195.589844 C 340.691406 195.273438 340.851562 194.972656 341.042969 194.691406 C 341.230469 194.40625 341.445312 194.144531 341.6875 193.90625 C 341.929688 193.664062 342.191406 193.449219 342.472656 193.257812 C 342.757812 193.070312 343.054688 192.910156 343.371094 192.78125 C 343.6875 192.648438 344.011719 192.550781 344.34375 192.484375 C 344.679688 192.417969 345.015625 192.382812 345.355469 192.382812 C 345.699219 192.382812 346.035156 192.417969 346.367188 192.484375 C 346.703125 192.550781 347.027344 192.648438 347.34375 192.78125 C 347.65625 192.910156 347.957031 193.070312 348.238281 193.257812 C 348.523438 193.449219 348.785156 193.664062 349.027344 193.90625 C 349.265625 194.144531 349.480469 194.40625 349.671875 194.691406 C 349.859375 194.972656 350.019531 195.273438 350.152344 195.589844 C 350.28125 195.902344 350.378906 196.226562 350.445312 196.5625 C 350.511719 196.894531 350.546875 197.234375 350.546875 197.574219 Z M 350.546875 197.574219 " fill-opacity="1" fill-rule="nonzero"/><path fill="#ffffff" d="M 343.550781 196.398438 C 343.550781 196.589844 343.515625 196.769531 343.441406 196.945312 C 343.367188 197.121094 343.265625 197.273438 343.132812 197.40625 C 343 197.542969 342.84375 197.644531 342.667969 197.714844 C 342.496094 197.789062 342.3125 197.824219 342.125 197.824219 C 341.933594 197.824219 341.753906 197.789062 341.578125 197.714844 C 341.402344 197.644531 341.25 197.542969 341.113281 197.40625 C 340.980469 197.273438 340.878906 197.121094 340.804688 196.945312 C 340.734375 196.769531 340.699219 196.589844 340.699219 196.398438 C 340.699219 196.210938 340.734375 196.027344 340.804688 195.851562 C 340.878906 195.679688 340.980469 195.523438 341.113281 195.390625 C 341.25 195.257812 341.402344 195.152344 341.578125 195.082031 C 341.753906 195.007812 341.933594 194.972656 342.125 194.972656 C 342.3125 194.972656 342.496094 195.007812 342.667969 195.082031 C 342.84375 195.152344 343 195.257812 343.132812 195.390625 C 343.265625 195.523438 343.367188 195.679688 343.441406 195.851562 C 343.515625 196.027344 343.550781 196.210938 343.550781 196.398438 Z M 343.550781 196.398438 " fill-opacity="1" fill-rule="nonzero"/><path stroke-linecap="butt" transform="matrix(0.679185, 0, 0, 0.679205, -2.949577, 0.0000199704)" fill="none" stroke-linejoin="miter" d="M 524.008938 292.219017 C 524.008938 292.219017 515.69244 274.24073 497.949426 287.600794 " stroke="#231f20" stroke-width="1" stroke-opacity="1" stroke-miterlimit="10"/><path fill="#ffffff" d="M 391.324219 203.089844 C 391.324219 203.089844 391.261719 202.621094 391.570312 202.1875 C 392.574219 200.753906 394.964844 198.023438 399.15625 197.539062 C 403.847656 197.003906 406.9375 201.113281 408.003906 202.585938 C 408.1875 202.835938 408.203125 203.082031 408.203125 203.082031 C 408.203125 203.082031 408.25 203.339844 408.113281 203.542969 C 407.460938 204.5 405.246094 207.210938 400.8125 207.796875 C 398.171875 208.140625 394.292969 207.144531 391.582031 203.816406 C 391.390625 203.585938 391.34375 203.265625 391.332031 203.097656 Z M 391.324219 203.089844 " fill-opacity="1" fill-rule="nonzero"/><path fill="#26130f" d="M 405.972656 202.796875 C 405.972656 203.117188 405.941406 203.433594 405.878906 203.746094 C 405.816406 204.0625 405.726562 204.363281 405.601562 204.660156 C 405.480469 204.957031 405.332031 205.238281 405.152344 205.503906 C 404.976562 205.769531 404.773438 206.015625 404.546875 206.242188 C 404.320312 206.464844 404.074219 206.667969 403.808594 206.847656 C 403.542969 207.023438 403.261719 207.171875 402.96875 207.296875 C 402.671875 207.417969 402.367188 207.511719 402.054688 207.574219 C 401.742188 207.636719 401.425781 207.667969 401.105469 207.667969 C 400.785156 207.667969 400.46875 207.636719 400.152344 207.574219 C 399.839844 207.511719 399.535156 207.417969 399.242188 207.296875 C 398.945312 207.171875 398.664062 207.023438 398.398438 206.847656 C 398.132812 206.667969 397.886719 206.464844 397.660156 206.242188 C 397.433594 206.015625 397.234375 205.769531 397.054688 205.503906 C 396.878906 205.238281 396.726562 204.957031 396.605469 204.660156 C 396.484375 204.363281 396.390625 204.0625 396.328125 203.746094 C 396.265625 203.433594 396.234375 203.117188 396.234375 202.796875 C 396.234375 202.476562 396.265625 202.160156 396.328125 201.847656 C 396.390625 201.535156 396.484375 201.230469 396.605469 200.933594 C 396.726562 200.636719 396.878906 200.355469 397.054688 200.089844 C 397.234375 199.824219 397.433594 199.578125 397.660156 199.351562 C 397.886719 199.128906 398.132812 198.925781 398.398438 198.746094 C 398.664062 198.570312 398.945312 198.421875 399.242188 198.296875 C 399.535156 198.175781 399.839844 198.082031 400.152344 198.019531 C 400.46875 197.957031 400.785156 197.925781 401.105469 197.925781 C 401.425781 197.925781 401.742188 197.957031 402.054688 198.019531 C 402.367188 198.082031 402.671875 198.175781 402.96875 198.296875 C 403.261719 198.421875 403.542969 198.570312 403.808594 198.746094 C 404.074219 198.925781 404.320312 199.128906 404.546875 199.351562 C 404.773438 199.578125 404.976562 199.824219 405.152344 200.089844 C 405.332031 200.355469 405.480469 200.636719 405.601562 200.933594 C 405.726562 201.230469 405.816406 201.535156 405.878906 201.847656 C 405.941406 202.160156 405.972656 202.476562 405.972656 202.796875 Z M 405.972656 202.796875 " fill-opacity="1" fill-rule="nonzero"/><path fill="#ffffff" d="M 399.140625 202.261719 C 399.140625 202.441406 399.105469 202.617188 399.039062 202.78125 C 398.96875 202.949219 398.871094 203.097656 398.742188 203.226562 C 398.613281 203.355469 398.464844 203.453125 398.296875 203.523438 C 398.132812 203.589844 397.957031 203.625 397.777344 203.625 C 397.59375 203.625 397.421875 203.589844 397.253906 203.523438 C 397.085938 203.453125 396.9375 203.355469 396.8125 203.226562 C 396.683594 203.097656 396.585938 202.949219 396.515625 202.78125 C 396.445312 202.617188 396.410156 202.441406 396.410156 202.261719 C 396.410156 202.078125 396.445312 201.90625 396.515625 201.738281 C 396.585938 201.570312 396.683594 201.421875 396.8125 201.296875 C 396.9375 201.167969 397.085938 201.070312 397.253906 201 C 397.421875 200.929688 397.59375 200.894531 397.777344 200.894531 C 397.957031 200.894531 398.132812 200.929688 398.296875 201 C 398.464844 201.070312 398.613281 201.167969 398.742188 201.296875 C 398.871094 201.421875 398.96875 201.570312 399.039062 201.738281 C 399.105469 201.90625 399.140625 202.078125 399.140625 202.261719 Z M 399.140625 202.261719 " fill-opacity="1" fill-rule="nonzero"/><path stroke-linecap="butt" transform="matrix(0.679185, 0, 0, 0.679205, -2.949577, 0.0000199704)" fill="none" stroke-linejoin="miter" d="M 605.2127 298.487837 C 605.2127 298.487837 595.320323 281.918597 580.688807 297.987482 " stroke="#231f20" stroke-width="1" stroke-opacity="1" stroke-miterlimit="10"/><path fill="#be9e7d" d="M 558.757812 464.964844 L 565.058594 459.203125 C 565.058594 459.203125 565.609375 435.351562 589.457031 430.417969 C 589.457031 430.417969 597.953125 429.324219 601.789062 421.921875 C 605.628906 414.519531 616.316406 411.78125 618.511719 413.695312 C 620.703125 415.617188 623.449219 423.835938 617.140625 427.683594 C 610.828125 431.527344 599.597656 441.667969 599.597656 441.667969 L 666.210938 447.148438 C 666.210938 447.148438 677.179688 449.339844 676.078125 454.824219 C 674.984375 460.304688 662.644531 457.015625 662.644531 457.015625 L 638.519531 466.613281 C 638.519531 466.613281 620.699219 486.078125 594.109375 481.964844 L 583.417969 489.367188 L 558.742188 464.96875 Z M 558.757812 464.964844 " fill-opacity="1" fill-rule="nonzero"/><path stroke-linecap="butt" transform="matrix(0.679185, 0, 0, 0.679205, -2.949577, 0.0000199704)" fill="none" stroke-linejoin="miter" d="M 884.499808 662.551015 C 884.499808 662.551015 899.562677 668.238963 900.902749 680.960642 " stroke="#603913" stroke-width="0.5" stroke-opacity="1" stroke-miterlimit="10"/><path stroke-linecap="butt" transform="matrix(0.679185, 0, 0, 0.679205, -2.949577, 0.0000199704)" fill="none" stroke-linejoin="miter" d="M 911.80737 683.84775 C 911.80737 683.84775 947.897291 656.109658 959.929182 675.15767 " stroke="#603913" stroke-width="0.5" stroke-opacity="1" stroke-miterlimit="10"/><path stroke-linecap="butt" transform="matrix(0.679185, 0, 0, 0.679205, -2.949577, 0.0000199704)" fill="none" stroke-linejoin="miter" d="M 903.789943 668.152694 L 927.508642 669.820546 " stroke="#603913" stroke-width="0.5" stroke-opacity="1" stroke-miterlimit="10"/><path fill="#be9e7d" d="M 458.441406 428.375 C 458.441406 428.375 475.8125 489.9375 483.25 501.097656 L 558.757812 464.964844 L 583.429688 489.359375 C 583.429688 489.359375 551.449219 556.269531 500.613281 581.074219 C 449.773438 605.871094 436.753906 579.832031 436.753906 579.832031 C 436.753906 579.832031 430.398438 560.535156 447.484375 508.621094 C 464.574219 456.710938 458.441406 428.375 458.441406 428.375 Z M 458.441406 428.375 " fill-opacity="1" fill-rule="nonzero"/><path fill="#b56e5b" d="M 378.519531 253.804688 C 378.519531 253.804688 372.558594 246.109375 363.210938 248.308594 C 363.210938 248.308594 356.765625 243.890625 342.457031 248.820312 C 342.457031 248.820312 346.46875 257.902344 360.609375 259.402344 C 374.75 260.902344 378.519531 253.804688 378.519531 253.804688 Z M 378.519531 253.804688 " fill-opacity="1" fill-rule="nonzero"/><path stroke-linecap="butt" transform="matrix(0.679185, 0, 0, 0.679205, -2.949577, 0.0000199704)" fill="none" stroke-linejoin="miter" d="M 508.560726 366.340628 C 508.560726 366.340628 538.692216 370.590773 561.657484 373.679173 " stroke="#231f20" stroke-width="1.2" stroke-opacity="1" stroke-miterlimit="10"/><g clip-path="url(#6e4b81ca7e)"><path fill="#f7daa6" d="M 272.929688 283.628906 C 272.929688 283.628906 284.15625 343.691406 333.21875 342.863281 C 368.015625 342.273438 371.730469 329.847656 373.074219 296.976562 C 373.074219 296.976562 415.613281 307.71875 433.785156 327.113281 C 451.960938 346.496094 479.828125 434.949219 473.769531 490.683594 C 473.769531 490.683594 470.136719 520.976562 431.363281 545.210938 C 431.363281 545.210938 440 632.480469 438.710938 663.367188 C 438.710938 663.367188 424.085938 689.398438 358.660156 689.398438 L 344.121094 592.464844 L 345.328125 688.183594 C 345.328125 688.183594 283.71875 698.875 229.011719 672.433594 C 229.011719 672.433594 164.550781 651.160156 157.277344 644.300781 C 155.179688 642.324219 172.878906 545.273438 169.019531 532.734375 C 169.019531 532.734375 168.644531 535.347656 149.683594 509.816406 C 149.683594 509.816406 141.144531 291.03125 272.921875 283.621094 Z M 272.929688 283.628906 " fill-opacity="1" fill-rule="nonzero"/></g><path stroke-linecap="butt" transform="matrix(0.679185, 0, 0, 0.679205, -2.949577, 0.0000199704)" fill="none" stroke-linejoin="miter" d="M 375.381725 719.988362 C 375.381725 719.988362 416.630637 639.511662 385.492655 525.677937 " stroke="#a97c50" stroke-width="1" stroke-opacity="1" stroke-miterlimit="10"/><path stroke-linecap="butt" transform="matrix(0.679185, 0, 0, 0.679205, -2.949577, 0.0000199704)" fill="none" stroke-linejoin="miter" d="M 639.450677 802.719536 C 639.450677 802.719536 639.651975 656.897574 617.227337 618.191922 " stroke="#a97c50" stroke-width="1" stroke-opacity="1" stroke-miterlimit="10"/><path stroke-linecap="butt" transform="matrix(0.679185, 0, 0, 0.679205, -2.949577, 0.0000199704)" fill-opacity="1" fill="#a97c50" fill-rule="nonzero" stroke-linejoin="miter" d="M 502.429753 559.59283 C 502.429753 560.455512 502.343482 561.312442 502.176692 562.15787 C 502.009902 563.009049 501.756841 563.831473 501.429013 564.630891 C 501.095432 565.430309 500.692836 566.189469 500.20972 566.908371 C 499.732355 567.627272 499.185974 568.288661 498.570576 568.904041 C 497.960929 569.513669 497.293769 570.060034 496.574846 570.543136 C 495.855923 571.020487 495.096741 571.428823 494.297299 571.756642 C 493.503608 572.090212 492.675409 572.337514 491.829956 572.504299 C 490.978752 572.676836 490.127547 572.757353 489.259088 572.757353 C 488.396381 572.757353 487.539425 572.676836 486.688221 572.504299 C 485.842767 572.337514 485.02032 572.090212 484.220878 571.756642 C 483.421436 571.428823 482.662253 571.020487 481.94333 570.543136 C 481.224408 570.060034 480.557247 569.513669 479.947601 568.904041 C 479.337954 568.288661 478.791573 567.627272 478.308457 566.908371 C 477.831092 566.189469 477.422744 565.430309 477.094915 564.630891 C 476.761335 563.831473 476.514026 563.009049 476.341484 562.15787 C 476.174694 561.312442 476.088424 560.455512 476.088424 559.59283 C 476.088424 558.724397 476.174694 557.867467 476.341484 557.022038 C 476.514026 556.170859 476.761335 555.348436 477.094915 554.549018 C 477.422744 553.749599 477.831092 552.990439 478.308457 552.271538 C 478.791573 551.552637 479.337954 550.891247 479.947601 550.275868 C 480.557247 549.666239 481.224408 549.119874 481.94333 548.636772 C 482.662253 548.159422 483.421436 547.751086 484.220878 547.423267 C 485.02032 547.089697 485.842767 546.842394 486.688221 546.675609 C 487.539425 546.503073 488.396381 546.422556 489.259088 546.422556 C 490.127547 546.422556 490.978752 546.503073 491.829956 546.675609 C 492.675409 546.842394 493.503608 547.089697 494.297299 547.423267 C 495.096741 547.751086 495.855923 548.159422 496.574846 548.636772 C 497.293769 549.119874 497.960929 549.666239 498.570576 550.275868 C 499.185974 550.891247 499.732355 551.552637 500.20972 552.271538 C 500.692836 552.990439 501.095432 553.749599 501.429013 554.549018 C 501.756841 555.348436 502.009902 556.170859 502.176692 557.022038 C 502.343482 557.867467 502.429753 558.724397 502.429753 559.59283 Z M 502.429753 559.59283 " stroke="#a97c50" stroke-width="0.5" stroke-opacity="1" stroke-miterlimit="10"/><path stroke-linecap="butt" transform="matrix(0.679185, 0, 0, 0.679205, -2.949577, 0.0000199704)" fill-opacity="1" fill="#a97c50" fill-rule="nonzero" stroke-linejoin="miter" d="M 512.471666 662.372727 C 512.471666 663.235409 512.385395 664.092339 512.218605 664.937767 C 512.046064 665.788947 511.798754 666.61137 511.465174 667.410788 C 511.137345 668.210207 510.728997 668.969366 510.251632 669.688268 C 509.768516 670.407169 509.222135 671.068559 508.612489 671.683938 C 508.002842 672.293567 507.335682 672.839932 506.616759 673.323033 C 505.897836 673.800384 505.138654 674.20872 504.339212 674.536539 C 503.53977 674.870109 502.717322 675.117411 501.871869 675.284196 C 501.020664 675.456733 500.163709 675.53725 499.301001 675.53725 C 498.432543 675.53725 497.581338 675.456733 496.730133 675.284196 C 495.88468 675.117411 495.056481 674.870109 494.262791 674.536539 C 493.463349 674.20872 492.704166 673.800384 491.985243 673.323033 C 491.266321 672.839932 490.59916 672.293567 489.989514 671.683938 C 489.374116 671.068559 488.827735 670.407169 488.35037 669.688268 C 487.867254 668.969366 487.464657 668.210207 487.131077 667.410788 C 486.803248 666.61137 486.550187 665.788947 486.383397 664.937767 C 486.216607 664.092339 486.130337 663.235409 486.130337 662.372727 C 486.130337 661.504294 486.216607 660.647364 486.383397 659.801936 C 486.550187 658.950756 486.803248 658.128333 487.131077 657.328915 C 487.464657 656.529496 487.867254 655.770336 488.35037 655.051435 C 488.827735 654.332534 489.374116 653.671144 489.989514 653.055765 C 490.59916 652.446136 491.266321 651.899771 491.985243 651.422421 C 492.704166 650.939319 493.463349 650.530983 494.262791 650.203164 C 495.056481 649.869594 495.88468 649.622292 496.730133 649.455506 C 497.581338 649.28297 498.432543 649.202453 499.301001 649.202453 C 500.163709 649.202453 501.020664 649.28297 501.871869 649.455506 C 502.717322 649.622292 503.53977 649.869594 504.339212 650.203164 C 505.138654 650.530983 505.897836 650.939319 506.616759 651.41667 C 507.335682 651.899771 508.002842 652.446136 508.612489 653.055765 C 509.222135 653.671144 509.768516 654.332534 510.251632 655.051435 C 510.728997 655.770336 511.137345 656.529496 511.465174 657.328915 C 511.798754 658.128333 512.046064 658.950756 512.218605 659.801936 C 512.385395 660.647364 512.471666 661.504294 512.471666 662.372727 Z M 512.471666 662.372727 " stroke="#a97c50" stroke-width="0.5" stroke-opacity="1" stroke-miterlimit="10"/><path stroke-linecap="butt" transform="matrix(0.679185, 0, 0, 0.679205, -2.949577, 0.0000199704)" fill-opacity="1" fill="#a97c50" fill-rule="nonzero" stroke-linejoin="miter" d="M 515.951252 774.837664 C 515.951252 775.706097 515.864981 776.563027 515.698191 777.408455 C 515.52565 778.259635 515.27834 779.082058 514.94476 779.881476 C 514.616931 780.680895 514.208583 781.440055 513.731219 782.158956 C 513.248102 782.877857 512.701721 783.539247 512.092075 784.154626 C 511.482428 784.764255 510.815268 785.31062 510.096345 785.78797 C 509.377422 786.271072 508.61824 786.673657 507.818798 787.007227 C 507.019356 787.340797 506.196908 787.588099 505.351455 787.754885 C 504.500251 787.927421 503.643295 788.007938 502.780587 788.007938 C 501.91788 788.007938 501.060924 787.927421 500.20972 787.754885 C 499.364266 787.588099 498.536067 787.340797 497.742377 787.007227 C 496.942935 786.673657 496.183752 786.271072 495.464829 785.78797 C 494.745907 785.31062 494.078746 784.764255 493.4691 784.154626 C 492.853702 783.539247 492.307321 782.877857 491.829956 782.158956 C 491.34684 781.440055 490.944243 780.680895 490.610663 779.881476 C 490.282834 779.082058 490.029773 778.259635 489.862983 777.408455 C 489.696193 776.563027 489.609923 775.706097 489.609923 774.837664 C 489.609923 773.974982 489.696193 773.118052 489.862983 772.272624 C 490.029773 771.421444 490.282834 770.599021 490.610663 769.799603 C 490.944243 769.000185 491.34684 768.241025 491.829956 767.522123 C 492.307321 766.803222 492.853702 766.136081 493.4691 765.526453 C 494.078746 764.916824 494.745907 764.370459 495.464829 763.887358 C 496.183752 763.410007 496.942935 763.001671 497.742377 762.673852 C 498.536067 762.340282 499.364266 762.09298 500.20972 761.920443 C 501.060924 761.753658 501.91788 761.66739 502.780587 761.66739 C 503.643295 761.66739 504.500251 761.753658 505.351455 761.920443 C 506.196908 762.09298 507.019356 762.340282 507.818798 762.673852 C 508.61824 763.001671 509.377422 763.410007 510.096345 763.887358 C 510.815268 764.370459 511.482428 764.916824 512.092075 765.526453 C 512.701721 766.136081 513.248102 766.803222 513.731219 767.522123 C 514.208583 768.241025 514.616931 769.000185 514.94476 769.799603 C 515.27834 770.599021 515.52565 771.421444 515.698191 772.272624 C 515.864981 773.118052 515.951252 773.974982 515.951252 774.837664 Z M 515.951252 774.837664 " stroke="#a97c50" stroke-width="0.5" stroke-opacity="1" stroke-miterlimit="10"/><path fill="#dcbf97" d="M 430.023438 581.132812 C 436.789062 513.507812 446.257812 408.003906 446.257812 408.003906 C 446.257812 408.003906 445.441406 342.6875 473.941406 323.117188 C 502.4375 303.550781 517.558594 306.605469 517.558594 306.605469 C 517.558594 306.605469 547.84375 386.800781 478.386719 429.664062 L 490.742188 507.019531 L 492.617188 541.925781 " fill-opacity="1" fill-rule="nonzero"/><path fill="#dcbf97" d="M 658.148438 515.117188 C 658.148438 515.117188 629.609375 506.808594 617.324219 488.558594 L 627.789062 427.992188 L 658.140625 515.117188 Z M 658.148438 515.117188 " fill-opacity="1" fill-rule="nonzero"/><path fill="#dcbf97" d="M 617.949219 232.144531 C 617.949219 232.144531 605.550781 295.820312 641.578125 305.683594 C 641.578125 305.683594 641.601562 369.574219 555.457031 372.273438 C 555.457031 372.273438 530.917969 360.996094 514.648438 303.542969 C 514.648438 303.542969 540.480469 294.828125 540.8125 279.824219 C 541.164062 263.945312 536.152344 280.320312 536.152344 280.320312 L 617.949219 232.144531 " fill-opacity="1" fill-rule="nonzero"/><g clip-path="url(#edc5a4cfa0)"><path fill="#0f3e5d" d="M 697.011719 590.441406 C 697.011719 590.441406 765.214844 716.085938 711.484375 819.703125 L 688.554688 895.0625 C 688.554688 895.0625 674.953125 934.28125 680.09375 987.875 C 683.359375 1021.964844 676.773438 1068.347656 668.132812 1113.441406 C 668.132812 1113.441406 638.308594 1142.917969 597.6875 1123.667969 C 597.6875 1123.667969 563.753906 1133.910156 525.382812 1115.683594 L 464.839844 965.449219 C 464.839844 965.449219 452.878906 943.726562 452.878906 916.867188 C 452.878906 916.867188 432.007812 685.480469 466.523438 599.539062 C 466.523438 599.539062 556.992188 660.847656 697.003906 590.4375 Z M 697.011719 590.441406 " fill-opacity="1" fill-rule="nonzero"/></g><path fill="#dcbf97" d="M 617.960938 203.148438 C 617.960938 203.148438 606.292969 116.394531 537.816406 124.308594 C 537.816406 124.308594 486.84375 128.410156 495.671875 200.148438 C 495.671875 200.148438 499.375 211.476562 497.910156 217.761719 C 497.910156 217.761719 495.898438 236.871094 503.117188 252 C 513.957031 274.71875 526.71875 285.871094 526.71875 285.871094 C 526.71875 285.871094 537.484375 294.496094 555.304688 293.328125 C 555.304688 293.328125 567.789062 291.996094 582.914062 280.539062 C 582.914062 280.539062 621.75 259.101562 617.851562 235.601562 C 617.851562 235.601562 633.832031 243.386719 639.511719 214.777344 C 639.511719 214.777344 647.832031 189.777344 638.222656 186.550781 C 626.089844 182.480469 622.382812 190.46875 617.953125 203.148438 Z M 617.960938 203.148438 " fill-opacity="1" fill-rule="nonzero"/><path fill="#26130f" d="M 550.9375 181.042969 C 550.9375 181.042969 576.125 176.730469 586.175781 186.144531 C 586.175781 186.144531 579.601562 172.390625 551.117188 175.199219 C 551.117188 175.199219 545.761719 178.230469 550.945312 181.050781 Z M 550.9375 181.042969 " fill-opacity="1" fill-rule="nonzero"/><path fill="#26130f" d="M 492.867188 188.4375 C 492.867188 187.054688 504.199219 182.011719 515.582031 179.820312 C 515.582031 179.820312 521.578125 181.199219 517.40625 185.375 C 517.40625 185.375 495.699219 186.632812 495.265625 194.007812 C 495.265625 194.007812 492.863281 191.867188 492.863281 188.445312 Z M 492.867188 188.4375 " fill-opacity="1" fill-rule="nonzero"/><path stroke-linecap="butt" transform="matrix(0.679185, 0, 0, 0.679205, -2.949577, 0.0000199704)" fill="none" stroke-linejoin="miter" d="M 793.357658 348.339337 C 768.137848 347.12008 782.757861 322.677432 782.757861 322.677432 " stroke="#231f20" stroke-width="1.2" stroke-opacity="1" stroke-miterlimit="10"/><path stroke-linecap="butt" transform="matrix(0.679185, 0, 0, 0.679205, -2.949577, 0.0000199704)" fill="none" stroke-linejoin="miter" d="M 944.68802 302.68047 C 944.68802 302.68047 933.40956 279.008484 917.961348 319.928353 C 917.961348 319.928353 932.431825 301.219662 936.532561 315.862246 " stroke="#231f20" stroke-width="1.2" stroke-opacity="1" stroke-miterlimit="10"/><path fill="#26130f" d="M 535.957031 290.773438 C 535.957031 290.773438 550.851562 297.144531 569.378906 288.824219 C 569.378906 288.824219 585.605469 281.828125 598.332031 269.683594 C 598.332031 269.683594 581.945312 289.808594 558.75 294.6875 C 558.75 294.6875 545.089844 297.601562 533.652344 292.785156 C 533.652344 292.785156 535.003906 291.582031 535.964844 290.78125 Z M 535.957031 290.773438 " fill-opacity="1" fill-rule="nonzero"/><path fill="#01a04c" d="M 697.011719 590.441406 C 697.011719 590.441406 695.410156 549.632812 687.664062 518.308594 C 687.664062 518.308594 671.710938 443.832031 668.851562 441.902344 C 634.371094 418.695312 650.34375 308.800781 650.34375 308.800781 L 632.855469 302.054688 C 632.855469 302.054688 626.449219 364.3125 575.347656 364.3125 C 547.496094 364.3125 526.082031 358.945312 526.332031 297.601562 L 505.285156 308.160156 C 505.285156 308.160156 492.195312 372.015625 482.199219 417.214844 C 482.199219 417.214844 463.046875 462.105469 478.550781 498.542969 C 478.550781 498.542969 479.820312 537.894531 466.535156 599.539062 C 466.535156 599.539062 563.414062 670.292969 697.019531 590.441406 Z M 697.011719 590.441406 " fill-opacity="1" fill-rule="nonzero"/><path fill="#26130f" d="M 507.558594 260.542969 C 496.460938 243.394531 497.589844 220.328125 497.589844 220.328125 C 497.589844 220.328125 498.480469 215.886719 498.300781 207.070312 C 498.125 198.292969 496.109375 196.414062 496.273438 188.566406 C 496.273438 188.566406 523.03125 179.96875 544.195312 154.402344 C 544.195312 154.402344 570.152344 141.382812 550.21875 145.34375 C 550.21875 145.34375 557.179688 134.046875 587.042969 140.542969 C 587.042969 140.542969 595.207031 182.964844 617.960938 203.148438 C 617.960938 203.148438 626.59375 182.292969 638.226562 186.550781 C 649.863281 190.800781 635.382812 223.058594 635.382812 223.058594 C 635.382812 223.058594 631.808594 241.789062 618.421875 234.84375 C 618.421875 234.84375 613.492188 253.277344 619.523438 272.644531 C 619.523438 272.644531 622.863281 270.515625 627.292969 264.183594 C 627.292969 264.183594 624.757812 273.78125 618.953125 280.660156 C 618.953125 280.660156 645.066406 272.054688 645.398438 245.824219 C 645.398438 245.824219 644.644531 236.941406 651.519531 235.078125 C 658.394531 233.21875 665.769531 207.414062 662.671875 185.953125 C 659.574219 164.484375 637.105469 92.589844 588.871094 95.042969 C 588.871094 95.042969 562.097656 85.8125 530.828125 108.578125 C 499.558594 131.34375 503.34375 135.855469 478.933594 180.078125 C 478.933594 180.078125 466.496094 185.027344 488.40625 200.636719 C 488.40625 200.636719 484.652344 223.097656 487.761719 216.273438 C 487.761719 216.273438 485.207031 239.425781 495.898438 247.882812 C 495.898438 247.882812 493.773438 241.199219 493.039062 230.183594 C 493.039062 230.183594 492.476562 254.941406 513.285156 269.570312 " fill-opacity="1" fill-rule="nonzero"/><path stroke-linecap="butt" transform="matrix(0.679185, 0, 0, 0.679205, -2.949577, 0.0000199704)" fill="none" stroke-linejoin="miter" d="M 869.540463 273.510326 C 869.540463 273.510326 834.301746 264.751232 803.761908 279.209777 C 803.761908 279.209777 803.209775 325.397755 838.068901 323.942698 C 838.068901 323.942698 883.090719 319.24971 869.540463 273.510326 Z M 869.540463 273.510326 " stroke="#cfe5ae" stroke-width="2" stroke-opacity="1" stroke-miterlimit="10"/><path stroke-linecap="butt" transform="matrix(0.679185, 0, 0, 0.679205, -2.949577, 0.0000199704)" fill="none" stroke-linejoin="miter" d="M 781.699607 280.578565 C 781.699607 280.578565 750.8722 271.81947 725.502854 288.641763 C 725.502854 288.641763 720.878743 330.849903 755.737869 329.377593 C 755.737869 329.377593 795.249863 326.317948 781.699607 280.578565 Z M 781.699607 280.578565 " stroke="#cfe5ae" stroke-width="2" stroke-opacity="1" stroke-miterlimit="10"/><path stroke-linecap="butt" transform="matrix(0.679185, 0, 0, 0.679205, -2.949577, 0.0000199704)" fill="none" stroke-linejoin="miter" d="M 781.699607 280.578565 C 781.699607 280.578565 793.938548 273.539082 803.767659 279.209777 " stroke="#cfe5ae" stroke-width="2" stroke-opacity="1" stroke-miterlimit="10"/><path stroke-linecap="butt" transform="matrix(0.679185, 0, 0, 0.679205, -2.949577, 0.0000199704)" fill="none" stroke-linejoin="miter" d="M 865.037131 273.280278 L 918.910326 285.0185 " stroke="#cfe5ae" stroke-width="2" stroke-opacity="1" stroke-miterlimit="10"/><path stroke-linecap="butt" transform="matrix(0.679185, 0, 0, 0.679205, -2.949577, 0.0000199704)" fill-opacity="1" fill="#fff200" fill-rule="nonzero" stroke-linejoin="miter" d="M 921.75726 340.172616 L 924.017553 366.817978 " stroke="#ffffff" stroke-width="1" stroke-opacity="1" stroke-miterlimit="10"/><path stroke-linecap="butt" transform="matrix(0.679185, 0, 0, 0.679205, -2.949577, 0.0000199704)" fill="none" stroke-linejoin="miter" d="M 927.870979 370.170935 L 924.138332 364.540499 L 921.952807 370.918592 L 915.442243 372.730224 L 920.831288 376.790579 L 920.537967 383.542501 L 926.070797 379.671936 L 932.397317 382.029932 L 930.418842 375.571322 L 934.61735 370.29171 Z M 927.870979 370.170935 " stroke="#ffffff" stroke-width="1" stroke-opacity="1" stroke-miterlimit="10"/><path fill="#26130f" d="M 588.878906 95.042969 C 588.878906 95.042969 555.984375 73.984375 529.492188 96.425781 C 529.492188 96.425781 523.636719 109.617188 505.921875 107.90625 C 496.558594 107 495.511719 121.644531 495.511719 121.644531 C 495.511719 121.644531 499.476562 133.339844 488.359375 133.394531 C 488.359375 133.394531 470.925781 139.949219 475.671875 160.558594 C 480.417969 181.15625 468.457031 188.683594 468.457031 188.683594 C 468.457031 188.683594 458.503906 196.832031 464.234375 207.882812 C 464.234375 207.882812 469.992188 215.109375 467.371094 219.621094 C 464.75 224.128906 459.113281 223.324219 459.113281 223.324219 C 459.113281 223.324219 467.242188 228.207031 472.832031 218.304688 C 478.421875 208.402344 479.828125 199.707031 479.828125 199.707031 C 479.828125 199.707031 477.078125 212.800781 480.242188 219.816406 C 480.242188 219.816406 480.957031 223.1875 475.46875 229.226562 C 469.980469 235.261719 473.5 241.394531 473.5 241.394531 C 473.5 241.394531 474.515625 233.164062 478.273438 231.988281 C 482.027344 230.8125 484.472656 229.320312 484.472656 229.320312 C 484.472656 229.320312 490.832031 241.28125 495.890625 247.867188 C 497.988281 250.605469 497.894531 257.152344 489.5625 260 C 481.226562 262.84375 489.8125 278.96875 489.8125 278.96875 C 489.8125 278.96875 488.296875 263.816406 495.671875 264.902344 C 503.054688 265.988281 502.382812 258.660156 502.382812 258.660156 C 502.382812 258.660156 495.625 244.65625 495.816406 226.636719 L 490.058594 188.976562 C 490.058594 188.976562 504.808594 186.015625 513.3125 180.144531 C 513.3125 180.144531 536.585938 165.761719 544.167969 154.390625 C 544.167969 154.390625 532.683594 167.601562 532.28125 172.300781 C 531.386719 182.847656 520.445312 186.332031 520.445312 186.332031 C 520.445312 186.332031 536.507812 186.503906 537.390625 178.257812 C 538.953125 163.558594 551.699219 163.246094 551.699219 163.246094 C 551.699219 163.246094 566.039062 164.957031 573.15625 152.78125 C 580.265625 140.601562 587.023438 140.519531 587.023438 140.519531 C 587.023438 140.519531 607.726562 120.15625 588.859375 95.019531 Z M 588.878906 95.042969 " fill-opacity="1" fill-rule="nonzero"/><path fill="#26130f" d="M 486.886719 218.691406 C 486.886719 218.691406 490.472656 224.097656 486.808594 231.28125 C 483.144531 238.46875 477.769531 238.769531 478.035156 245.117188 C 478.300781 251.46875 487.40625 263.007812 487.40625 263.007812 C 487.40625 263.007812 480.949219 252.542969 484.128906 245.335938 C 487.304688 238.128906 496.019531 238.476562 496.019531 238.476562 " fill-opacity="1" fill-rule="nonzero"/><path fill="#231f20" d="M 545.738281 174.472656 C 545.738281 174.472656 542.109375 180.140625 546.816406 183.441406 C 546.816406 183.441406 537.960938 179.8125 545.738281 174.472656 Z M 545.738281 174.472656 " fill-opacity="1" fill-rule="nonzero"/><path stroke-linecap="round" transform="matrix(0.679185, 0, 0, 0.679205, -2.949577, 0.0000199704)" fill="none" stroke-linejoin="miter" d="M 748.841962 360.117817 C 741.480193 344.31924 745.092061 309.190841 745.092061 309.190841 " stroke="#ffffff" stroke-width="1" stroke-opacity="1" stroke-miterlimit="10"/><path stroke-linecap="round" transform="matrix(0.679185, 0, 0, 0.679205, -2.949577, 0.0000199704)" fill="none" stroke-linejoin="miter" d="M 750.889454 310.030518 C 750.889454 310.030518 750.360327 312.210227 751.240288 318.68034 " stroke="#ffffff" stroke-width="1" stroke-opacity="1" stroke-miterlimit="10"/><path stroke-linecap="round" transform="matrix(0.679185, 0, 0, 0.679205, -2.949577, 0.0000199704)" fill="none" stroke-linejoin="miter" d="M 750.302813 322.320857 C 750.302813 322.320857 750.187785 324.880146 750.452349 327.169128 " stroke="#ffffff" stroke-width="1" stroke-opacity="1" stroke-miterlimit="10"/><path stroke-linecap="round" transform="matrix(0.679185, 0, 0, 0.679205, -2.949577, 0.0000199704)" fill="none" stroke-linejoin="miter" d="M 852.240307 300.230454 C 852.240307 300.230454 862.500772 314.02761 863.2427 351.519756 " stroke="#ffffff" stroke-width="1" stroke-opacity="1" stroke-miterlimit="10"/><path stroke-linecap="round" transform="matrix(0.679185, 0, 0, 0.679205, -2.949577, 0.0000199704)" fill="none" stroke-linejoin="miter" d="M 848.409886 304.860179 C 848.409886 304.860179 850.319345 309.098822 850.468881 311.778886 " stroke="#ffffff" stroke-width="1" stroke-opacity="1" stroke-miterlimit="10"/><path stroke-linecap="round" transform="matrix(0.679185, 0, 0, 0.679205, -2.949577, 0.0000199704)" fill="none" stroke-linejoin="miter" d="M 855.242528 323.649386 C 855.242528 323.649386 856.571097 326.772294 856.197257 329.22231 " stroke="#ffffff" stroke-width="1" stroke-opacity="1" stroke-miterlimit="10"/><path stroke-linecap="butt" transform="matrix(0.679185, 0, 0, 0.679205, -2.949577, 0.0000199704)" fill="none" stroke-linejoin="miter" d="M 825.467624 297.64816 C 825.467624 297.64816 837.470758 311.152004 854.299301 293.720083 " stroke="#231f20" stroke-width="1" stroke-opacity="1" stroke-miterlimit="10"/><path stroke-linecap="butt" transform="matrix(0.679185, 0, 0, 0.679205, -2.949577, 0.0000199704)" fill="none" stroke-linejoin="miter" d="M 740.099861 301.16215 C 740.099861 301.16215 747.381111 315.580437 768.649721 302.289388 " stroke="#231f20" stroke-width="1" stroke-opacity="1" stroke-miterlimit="10"/><path fill="#c6837e" d="M 528.871094 257.773438 C 528.871094 257.773438 535.496094 250.640625 544.609375 253.664062 C 544.609375 253.664062 551.429688 249.832031 565.234375 256.019531 C 565.234375 256.019531 560.433594 264.707031 546.210938 264.9375 C 531.988281 265.167969 528.867188 257.765625 528.867188 257.765625 Z M 528.871094 257.773438 " fill-opacity="1" fill-rule="nonzero"/><path stroke-linecap="butt" transform="matrix(0.679185, 0, 0, 0.679205, -2.949577, 0.0000199704)" fill="none" stroke-linejoin="miter" d="M 836.567791 376.94011 C 836.567791 376.94011 806.177488 378.487186 783.022425 379.522404 " stroke="#231f20" stroke-width="1.2" stroke-opacity="1" stroke-miterlimit="10"/><path fill="#01a04c" d="M 505.277344 308.160156 C 505.277344 308.160156 445.007812 307.394531 446.25 408.011719 L 493.433594 430.71875 " fill-opacity="1" fill-rule="nonzero"/><path fill="#01a04c" d="M 650.34375 308.800781 C 650.34375 308.800781 724.859375 316.496094 728.84375 400.941406 L 729.511719 416.902344 C 729.511719 416.902344 722.859375 459.453125 669 459.453125 C 669 459.453125 617.714844 386.882812 650.335938 308.800781 Z M 650.34375 308.800781 " fill-opacity="1" fill-rule="nonzero"/><path stroke-linecap="butt" transform="matrix(0.679185, 0, 0, 0.679205, -2.949577, 0.0000199704)" fill="none" stroke-linejoin="miter" d="M 418.430819 330.119499 C 418.430819 330.119499 409.171095 344.169708 419.011709 352.779272 C 428.852324 361.388835 423.722091 340.408416 423.722091 340.408416 " stroke="#fbb040" stroke-width="3" stroke-opacity="1" stroke-miterlimit="10"/><path fill="#dcbf97" d="M 658.367188 458.125 L 634.355469 538.949219 C 634.355469 538.949219 556.324219 553.355469 519.636719 567.117188 L 519.113281 609.695312 C 519.113281 609.695312 637.546875 623.589844 682.097656 609.832031 C 682.097656 609.832031 701.066406 604.878906 714.695312 555.195312 C 730.691406 496.914062 730.835938 420.21875 730.835938 420.21875 C 730.835938 420.21875 699.585938 466.761719 658.359375 458.117188 Z M 658.367188 458.125 " fill-opacity="1" fill-rule="nonzero"/><path fill="#be9e7d" d="M 356.792969 583.328125 L 371.207031 584.339844 C 377.007812 601.246094 402.0625 602.347656 402.0625 602.347656 L 432.121094 604.390625 C 432.121094 604.390625 462.121094 614.640625 463.589844 601.4375 C 465.054688 588.230469 444.542969 588.53125 430.886719 587.0625 C 417.226562 585.597656 425.480469 578.816406 425.480469 578.816406 C 448.3125 572.609375 464.132812 590.046875 464.132812 590.046875 C 478.144531 605.191406 485.5 597.042969 485.5 597.042969 C 469.859375 555.453125 430.308594 542.398438 430.308594 542.398438 C 430.308594 542.398438 413.777344 537.542969 397.511719 540.789062 C 383.289062 543.621094 367.914062 537.265625 367.914062 537.265625 C 367.914062 537.265625 370.296875 555.128906 356.800781 583.328125 Z M 356.792969 583.328125 " fill-opacity="1" fill-rule="nonzero"/><path fill="#dcbf97" d="M 519.640625 567.117188 L 513.332031 568.167969 L 456.558594 549.246094 L 418.707031 557.132812 L 401.363281 579.734375 C 401.363281 579.734375 401.363281 589.726562 413.980469 578.683594 L 415.035156 592.878906 C 415.035156 592.878906 419.238281 603.390625 425.023438 593.929688 L 431.335938 606.550781 C 431.335938 606.550781 436.589844 613.914062 439.742188 604.972656 L 446.574219 619.691406 C 446.574219 619.691406 456.035156 617.585938 453.9375 606.550781 L 486.003906 611.285156 L 519.121094 609.707031 L 519.640625 567.128906 Z M 519.640625 567.117188 " fill-opacity="1" fill-rule="nonzero"/><path stroke-linecap="butt" transform="matrix(0.679185, 0, 0, 0.679205, -2.949577, 0.0000199704)" fill="none" stroke-linejoin="miter" d="M 656.762337 827.737305 C 656.762337 827.737305 622.541614 829.698469 617.658691 839.469777 C 612.770016 849.252587 613.862778 852.001666 613.862778 852.001666 " stroke="#3c2415" stroke-width="0.5" stroke-opacity="1" stroke-miterlimit="10"/><path stroke-linecap="butt" transform="matrix(0.679185, 0, 0, 0.679205, -2.949577, 0.0000199704)" fill="none" stroke-linejoin="miter" d="M 630.110433 874.437141 C 630.110433 874.437141 627.430289 856.568128 642.090561 852.657304 C 656.750834 848.752232 666.528183 845.330261 666.528183 845.330261 " stroke="#3c2415" stroke-width="0.5" stroke-opacity="1" stroke-miterlimit="10"/><path stroke-linecap="butt" transform="matrix(0.679185, 0, 0, 0.679205, -2.949577, 0.0000199704)" fill="none" stroke-linejoin="miter" d="M 651.787391 890.701567 C 651.787391 890.701567 638.679992 877.588805 653.829132 871.728321 C 668.978272 865.862085 671.917228 869.289807 671.917228 869.289807 " stroke="#3c2415" stroke-width="0.5" stroke-opacity="1" stroke-miterlimit="10"/><path fill="#be9e7d" d="M 237.773438 489.507812 C 243.664062 494.414062 246.230469 499.050781 245.714844 498.46875 C 245.199219 497.882812 244.925781 498.375 245.714844 498.46875 C 254.644531 499.542969 287.023438 504.34375 367.90625 537.265625 C 367.90625 537.265625 370.601562 568.453125 356.792969 583.328125 C 356.792969 583.328125 224.828125 583.308594 178.242188 556.582031 C 178.242188 556.582031 155.050781 535.363281 155.546875 511.183594 " fill-opacity="1" fill-rule="nonzero"/></svg>