<svg xmlns="http://www.w3.org/2000/svg" xmlns:xlink="http://www.w3.org/1999/xlink" width="1200" zoomAndPan="magnify" viewBox="0 0 900 675.000002" height="900" preserveAspectRatio="xMidYMid meet" version="1.0"><defs><clipPath id="22e6ca41ad"><path d="M 0.664062 0 L 899.332031 0 L 899.332031 674 L 0.664062 674 Z M 0.664062 0 " clip-rule="nonzero"/></clipPath><clipPath id="b522703e87"><path d="M 117 581 L 395 581 L 395 674 L 117 674 Z M 117 581 " clip-rule="nonzero"/></clipPath><clipPath id="f81ca897b3"><path d="M 111 280 L 427 280 L 427 674 L 111 674 Z M 111 280 " clip-rule="nonzero"/></clipPath><clipPath id="1f2a0cc3dd"><path d="M 492 303 L 590 303 L 590 674 L 492 674 Z M 492 303 " clip-rule="nonzero"/></clipPath><clipPath id="47b491e7d5"><path d="M 511 589 L 800 589 L 800 674 L 511 674 Z M 511 589 " clip-rule="nonzero"/></clipPath><clipPath id="f8344ab149"><path d="M 713 306 L 826 306 L 826 674 L 713 674 Z M 713 306 " clip-rule="nonzero"/></clipPath></defs><g clip-path="url(#22e6ca41ad)"><path fill="#ffffff" d="M 0.664062 0 L 899.335938 0 L 899.335938 674 L 0.664062 674 Z M 0.664062 0 " fill-opacity="1" fill-rule="nonzero"/><path fill="#ffffff" d="M 0.664062 0 L 899.335938 0 L 899.335938 674 L 0.664062 674 Z M 0.664062 0 " fill-opacity="1" fill-rule="nonzero"/><path fill="#a7d8ba" d="M -5.5625 0.167969 L 905.839844 0.167969 L 905.839844 682.726562 L -5.5625 682.726562 Z M -5.5625 0.167969 " fill-opacity="1" fill-rule="nonzero"/></g><path fill="#be9e7d" d="M 239.484375 228.328125 C 239.484375 228.328125 230.851562 270.1875 219.402344 284.167969 C 219.402344 284.167969 234.34375 360.367188 299.90625 376.078125 C 299.90625 376.078125 342.078125 342.742188 324.058594 296 C 324.058594 296 314.800781 288.523438 313.835938 278.554688 C 313.835938 278.554688 259.679688 261.460938 239.484375 228.335938 Z M 239.484375 228.328125 " fill-opacity="1" fill-rule="nonzero"/><g clip-path="url(#b522703e87)"><path fill="#0f3e5d" d="M 121.460938 624.277344 C 121.460938 624.277344 110.726562 797.269531 126.167969 971.34375 C 126.167969 971.34375 268.605469 1027.085938 391.308594 972.203125 C 391.308594 972.203125 399.1875 765.621094 388.839844 657.632812 C 388.839844 657.632812 346.996094 579.957031 296.132812 581.160156 C 254.441406 582.144531 175.191406 661.089844 121.460938 624.28125 Z M 121.460938 624.277344 " fill-opacity="1" fill-rule="nonzero"/></g><path fill="#be9e7d" d="M 239.101562 192.945312 C 239.101562 192.945312 233.847656 154.152344 254.636719 132.246094 C 267.332031 118.867188 295.636719 118.074219 323.582031 117.925781 C 323.582031 117.925781 382.792969 122.882812 363.765625 196.332031 C 363.765625 196.332031 360.128906 203.5625 361.679688 209.804688 C 361.679688 209.804688 365.164062 221.765625 356.632812 245.257812 C 345.253906 276.566406 329.199219 276.757812 329.199219 276.757812 C 329.199219 276.757812 327.023438 285.722656 308.753906 284.617188 C 308.753906 284.617188 292.457031 286.652344 276.867188 275.308594 C 276.867188 275.308594 235.675781 251.695312 239.484375 228.324219 C 239.484375 228.324219 221.75 237.234375 215.703125 208.820312 C 215.703125 208.820312 209.390625 159.714844 239.101562 192.9375 Z M 239.101562 192.945312 " fill-opacity="1" fill-rule="nonzero"/><path fill="#e6e7e8" d="M 312.800781 179.035156 C 312.800781 179.035156 292.28125 172.582031 280.480469 181.417969 C 280.480469 181.417969 283.308594 166.476562 313.296875 172.800781 C 313.296875 172.800781 318.640625 176.652344 312.800781 179.039062 Z M 312.800781 179.035156 " fill-opacity="1" fill-rule="nonzero"/><path stroke-linecap="butt" transform="matrix(0.68328, 0, 0, 0.682855, -5.561691, 0.167126)" fill="none" stroke-linejoin="miter" d="M 495.620646 312.258745 C 495.620646 312.258745 510.97055 339.499617 480.402231 340.151751 " stroke="#231f20" stroke-width="1" stroke-opacity="1" stroke-miterlimit="10"/><path stroke-linecap="butt" transform="matrix(0.68328, 0, 0, 0.682855, -5.561691, 0.167126)" fill="none" stroke-linejoin="miter" d="M 327.892212 289.731539 C 327.892212 289.731539 338.908698 266.271896 354.407243 306.641245 C 354.407243 306.641245 340.000628 288.221335 336.027376 302.722723 " stroke="#231f20" stroke-width="1" stroke-opacity="1" stroke-miterlimit="10"/><path stroke-linecap="butt" transform="matrix(0.68328, 0, 0, 0.682855, -5.561691, 0.167126)" fill="none" stroke-linejoin="miter" d="M 408.397744 273.370998 L 418.430922 304.341616 C 418.430922 304.341616 435.798896 315.239109 460.370177 310.748541 L 475.228427 282.580953 C 475.228427 282.580953 443.511008 264.498551 408.409178 273.370998 Z M 408.397744 273.370998 " stroke="#231f20" stroke-width="1.2" stroke-opacity="1" stroke-miterlimit="10"/><path fill="#26130f" d="M 315.539062 284.515625 C 315.539062 284.515625 313.496094 284.828125 308.125 284.425781 C 308.125 284.425781 282.671875 286.789062 258.914062 262.535156 C 258.914062 262.535156 265.53125 271.464844 280.214844 280.511719 C 280.214844 280.511719 297.929688 290.542969 316.640625 287.152344 C 316.640625 287.152344 317.050781 287.429688 315.539062 284.515625 Z M 315.539062 284.515625 " fill-opacity="1" fill-rule="nonzero"/><path stroke-linecap="butt" transform="matrix(0.68328, 0, 0, 0.682855, -5.561691, 0.167126)" fill-opacity="1" fill="#e6e7e8" fill-rule="nonzero" stroke-linejoin="miter" d="M 408.809362 194.062418 C 408.809362 194.062418 467.642087 221.938263 503.098365 195.212233 C 503.098365 195.212233 515.029557 216.360806 545.477822 243.269891 C 545.477822 243.269891 549.942729 259.458818 535.11878 295.978291 C 535.11878 295.978291 544.791792 326.010752 525.58869 363.857374 C 525.58869 363.857374 509.867187 397.510892 489.920886 405.06191 C 489.920886 405.06191 486.942376 409.237853 483.820943 411.857827 C 483.820943 411.857827 492.179066 423.830769 501.732023 423.367411 C 501.732023 423.367411 495.517742 411.022639 500.840185 408.402664 C 500.840185 408.402664 564.640905 393.317788 559.20984 263.749169 C 559.20984 263.749169 605.190951 206.052521 553.670154 166.329586 C 530.390895 148.378754 509.947224 97.872735 448.707679 124.318463 C 448.707679 124.318463 369.259776 83.051001 342.801914 161.581596 C 342.801914 161.581596 253.469473 183.187807 303.36095 295.177425 C 303.36095 295.177425 287.147792 331.542445 320.951883 361.157312 C 324.850816 364.578153 332.54006 379.840363 325.039474 401.601027 C 323.021404 407.470228 339.680481 396.38968 345.237318 385.091754 C 345.237318 385.091754 355.339099 364.761208 358.620605 334.139538 C 358.620605 334.139538 330.327616 342.182517 326.11997 310.708498 C 326.11997 310.708498 317.121553 276.031016 329.441495 270.630893 C 329.441495 270.630893 343.242117 265.162125 357.042738 282.249166 C 357.042738 282.249166 411.170446 276.620224 408.797928 194.07958 Z M 408.809362 194.062418 " stroke="#58595b" stroke-width="0.2" stroke-opacity="1" stroke-miterlimit="10"/><path fill="#e6e7e8" d="M 364.46875 182.898438 C 364.242188 181.410156 351.253906 177.847656 338.667969 177.339844 C 338.667969 177.339844 332.449219 179.800781 337.609375 183.601562 C 337.609375 183.601562 361.128906 181.417969 362.792969 189.261719 C 362.792969 189.261719 365.027344 186.578125 364.46875 182.898438 Z M 364.46875 182.898438 " fill-opacity="1" fill-rule="nonzero"/><path stroke-linecap="butt" transform="matrix(0.68328, 0, 0, 0.682855, -5.561691, 0.167126)" fill="none" stroke-linejoin="miter" d="M 486.159159 281.860174 L 496.192337 312.830792 C 496.192337 312.830792 511.547958 321.068267 536.130673 316.577699 L 548.4792 285.212368 C 548.4792 285.212368 521.272423 272.982006 486.170593 281.848733 Z M 486.159159 281.860174 " stroke="#231f20" stroke-width="1.2" stroke-opacity="1" stroke-miterlimit="10"/><path stroke-linecap="butt" transform="matrix(0.68328, 0, 0, 0.682855, -5.561691, 0.167126)" fill="none" stroke-linejoin="miter" d="M 486.159159 281.860174 C 486.159159 281.860174 480.030631 275.190107 475.22271 282.580953 " stroke="#231f20" stroke-width="1.2" stroke-opacity="1" stroke-miterlimit="10"/><path stroke-linecap="butt" transform="matrix(0.68328, 0, 0, 0.682855, -5.561691, 0.167126)" fill="none" stroke-linejoin="miter" d="M 408.397744 273.370998 L 339.691915 267.621927 " stroke="#231f20" stroke-width="1.2" stroke-opacity="1" stroke-miterlimit="10"/><path stroke-linecap="butt" transform="matrix(0.68328, 0, 0, 0.682855, -5.561691, 0.167126)" fill="none" stroke-linejoin="miter" d="M 427.360736 230.341632 C 427.360736 230.341632 454.207347 233.951247 466.887454 237.16043 C 479.567562 240.358172 516.721762 231.497166 516.721762 231.497166 " stroke="#231f20" stroke-width="0.5" stroke-opacity="1" stroke-miterlimit="10"/><path fill="#ffffff" d="M 284.277344 193.238281 C 284.277344 193.238281 284.292969 192.730469 284.683594 192.324219 C 285.980469 190.976562 288.945312 188.472656 293.457031 188.648438 C 298.503906 188.839844 301.101562 193.6875 301.988281 195.414062 C 302.140625 195.714844 302.121094 195.96875 302.121094 195.96875 C 302.121094 195.96875 302.121094 196.25 301.949219 196.441406 C 301.109375 197.339844 298.320312 199.847656 293.539062 199.738281 C 290.6875 199.671875 286.753906 197.988281 284.429688 194.035156 C 284.265625 193.761719 284.265625 193.421875 284.277344 193.238281 Z M 284.277344 193.238281 " fill-opacity="1" fill-rule="nonzero"/><path fill="#26130f" d="M 299.878906 194.519531 C 299.878906 194.863281 299.84375 195.203125 299.777344 195.539062 C 299.710938 195.875 299.613281 196.203125 299.480469 196.519531 C 299.347656 196.835938 299.1875 197.136719 299 197.417969 C 298.808594 197.703125 298.589844 197.96875 298.347656 198.210938 C 298.105469 198.453125 297.84375 198.667969 297.558594 198.859375 C 297.273438 199.050781 296.972656 199.210938 296.65625 199.339844 C 296.339844 199.472656 296.011719 199.570312 295.675781 199.636719 C 295.339844 199.703125 295 199.738281 294.65625 199.738281 C 294.316406 199.738281 293.976562 199.703125 293.640625 199.636719 C 293.304688 199.570312 292.976562 199.472656 292.660156 199.339844 C 292.34375 199.210938 292.042969 199.050781 291.757812 198.859375 C 291.472656 198.667969 291.207031 198.453125 290.964844 198.210938 C 290.722656 197.96875 290.507812 197.703125 290.316406 197.417969 C 290.125 197.136719 289.964844 196.835938 289.835938 196.519531 C 289.703125 196.203125 289.605469 195.875 289.539062 195.539062 C 289.472656 195.203125 289.4375 194.863281 289.4375 194.519531 C 289.4375 194.179688 289.472656 193.839844 289.539062 193.503906 C 289.605469 193.167969 289.703125 192.839844 289.835938 192.523438 C 289.964844 192.207031 290.125 191.90625 290.316406 191.621094 C 290.507812 191.339844 290.722656 191.074219 290.964844 190.832031 C 291.207031 190.589844 291.472656 190.375 291.757812 190.183594 C 292.042969 189.992188 292.34375 189.832031 292.660156 189.703125 C 292.976562 189.570312 293.304688 189.472656 293.640625 189.40625 C 293.976562 189.335938 294.316406 189.304688 294.65625 189.304688 C 295 189.304688 295.339844 189.335938 295.675781 189.40625 C 296.011719 189.472656 296.339844 189.570312 296.65625 189.703125 C 296.972656 189.832031 297.273438 189.992188 297.558594 190.183594 C 297.84375 190.375 298.105469 190.589844 298.347656 190.832031 C 298.589844 191.074219 298.808594 191.339844 299 191.621094 C 299.1875 191.90625 299.347656 192.207031 299.480469 192.523438 C 299.613281 192.839844 299.710938 193.167969 299.777344 193.503906 C 299.84375 193.839844 299.878906 194.179688 299.878906 194.519531 Z M 299.878906 194.519531 " fill-opacity="1" fill-rule="nonzero"/><path fill="#ffffff" d="M 292.839844 193.339844 C 292.839844 193.53125 292.804688 193.714844 292.730469 193.890625 C 292.660156 194.0625 292.554688 194.21875 292.421875 194.355469 C 292.285156 194.488281 292.128906 194.59375 291.953125 194.664062 C 291.777344 194.738281 291.59375 194.773438 291.40625 194.773438 C 291.214844 194.773438 291.03125 194.738281 290.855469 194.664062 C 290.679688 194.59375 290.523438 194.488281 290.390625 194.355469 C 290.257812 194.21875 290.152344 194.0625 290.078125 193.890625 C 290.007812 193.714844 289.96875 193.53125 289.96875 193.339844 C 289.96875 193.148438 290.007812 192.96875 290.078125 192.792969 C 290.152344 192.617188 290.257812 192.460938 290.390625 192.324219 C 290.523438 192.191406 290.679688 192.085938 290.855469 192.015625 C 291.03125 191.941406 291.214844 191.90625 291.40625 191.90625 C 291.59375 191.90625 291.777344 191.941406 291.953125 192.015625 C 292.128906 192.085938 292.285156 192.191406 292.421875 192.324219 C 292.554688 192.460938 292.660156 192.617188 292.730469 192.792969 C 292.804688 192.96875 292.839844 193.148438 292.839844 193.339844 Z M 292.839844 193.339844 " fill-opacity="1" fill-rule="nonzero"/><path stroke-linecap="butt" transform="matrix(0.68328, 0, 0, 0.682855, -5.561691, 0.167126)" fill="none" stroke-linejoin="miter" d="M 450.559958 285.950309 C 450.559958 285.950309 442.241854 267.970875 424.502281 281.32817 " stroke="#231f20" stroke-width="1" stroke-opacity="1" stroke-miterlimit="10"/><path fill="#ffffff" d="M 340.902344 200.066406 C 340.902344 200.066406 340.839844 199.59375 341.148438 199.15625 C 342.160156 197.71875 344.566406 194.972656 348.78125 194.488281 C 353.5 193.949219 356.609375 198.078125 357.683594 199.5625 C 357.867188 199.8125 357.882812 200.058594 357.882812 200.058594 C 357.882812 200.058594 357.929688 200.320312 357.792969 200.523438 C 357.136719 201.488281 354.910156 204.210938 350.449219 204.796875 C 347.789062 205.148438 343.886719 204.144531 341.160156 200.796875 C 340.96875 200.566406 340.921875 200.242188 340.910156 200.074219 Z M 340.902344 200.066406 " fill-opacity="1" fill-rule="nonzero"/><path fill="#26130f" d="M 355.640625 199.773438 C 355.640625 200.09375 355.609375 200.414062 355.546875 200.726562 C 355.484375 201.042969 355.390625 201.347656 355.269531 201.644531 C 355.144531 201.941406 354.992188 202.226562 354.816406 202.492188 C 354.636719 202.761719 354.433594 203.007812 354.207031 203.234375 C 353.976562 203.460938 353.730469 203.664062 353.464844 203.84375 C 353.195312 204.023438 352.914062 204.171875 352.617188 204.296875 C 352.320312 204.417969 352.011719 204.511719 351.695312 204.574219 C 351.382812 204.636719 351.0625 204.667969 350.742188 204.667969 C 350.417969 204.667969 350.101562 204.636719 349.785156 204.574219 C 349.46875 204.511719 349.164062 204.417969 348.867188 204.296875 C 348.570312 204.171875 348.289062 204.023438 348.019531 203.84375 C 347.753906 203.664062 347.503906 203.460938 347.277344 203.234375 C 347.050781 203.007812 346.847656 202.761719 346.667969 202.492188 C 346.488281 202.226562 346.339844 201.941406 346.214844 201.644531 C 346.09375 201.347656 346 201.042969 345.9375 200.726562 C 345.875 200.414062 345.84375 200.09375 345.84375 199.773438 C 345.84375 199.449219 345.875 199.132812 345.9375 198.816406 C 346 198.5 346.09375 198.195312 346.214844 197.898438 C 346.339844 197.601562 346.488281 197.320312 346.667969 197.050781 C 346.847656 196.785156 347.050781 196.539062 347.277344 196.308594 C 347.503906 196.082031 347.753906 195.878906 348.019531 195.703125 C 348.289062 195.523438 348.570312 195.371094 348.867188 195.25 C 349.164062 195.125 349.46875 195.03125 349.785156 194.96875 C 350.101562 194.90625 350.417969 194.875 350.742188 194.875 C 351.0625 194.875 351.382812 194.90625 351.695312 194.96875 C 352.011719 195.03125 352.320312 195.125 352.617188 195.25 C 352.914062 195.371094 353.195312 195.523438 353.464844 195.703125 C 353.730469 195.878906 353.976562 196.082031 354.207031 196.308594 C 354.433594 196.539062 354.636719 196.785156 354.816406 197.050781 C 354.992188 197.320312 355.144531 197.601562 355.269531 197.898438 C 355.390625 198.195312 355.484375 198.5 355.546875 198.816406 C 355.609375 199.132812 355.640625 199.449219 355.640625 199.773438 Z M 355.640625 199.773438 " fill-opacity="1" fill-rule="nonzero"/><path fill="#ffffff" d="M 348.765625 199.234375 C 348.765625 199.414062 348.730469 199.589844 348.664062 199.757812 C 348.59375 199.925781 348.492188 200.074219 348.363281 200.203125 C 348.234375 200.332031 348.085938 200.429688 347.917969 200.5 C 347.75 200.570312 347.574219 200.605469 347.394531 200.605469 C 347.210938 200.605469 347.035156 200.570312 346.867188 200.5 C 346.699219 200.429688 346.550781 200.332031 346.421875 200.203125 C 346.292969 200.074219 346.195312 199.925781 346.125 199.757812 C 346.054688 199.589844 346.019531 199.414062 346.019531 199.234375 C 346.019531 199.050781 346.054688 198.875 346.125 198.707031 C 346.195312 198.539062 346.292969 198.390625 346.421875 198.261719 C 346.550781 198.132812 346.699219 198.035156 346.867188 197.964844 C 347.035156 197.894531 347.210938 197.859375 347.394531 197.859375 C 347.574219 197.859375 347.75 197.894531 347.917969 197.964844 C 348.085938 198.035156 348.234375 198.132812 348.363281 198.261719 C 348.492188 198.390625 348.59375 198.539062 348.664062 198.707031 C 348.730469 198.875 348.765625 199.050781 348.765625 199.234375 Z M 348.765625 199.234375 " fill-opacity="1" fill-rule="nonzero"/><path stroke-linecap="butt" transform="matrix(0.68328, 0, 0, 0.682855, -5.561691, 0.167126)" fill="none" stroke-linejoin="miter" d="M 531.757237 292.219943 C 531.757237 292.219943 521.872699 275.647745 507.237408 291.722262 " stroke="#231f20" stroke-width="1" stroke-opacity="1" stroke-miterlimit="10"/><path fill="#231f20" d="M 318.929688 173.105469 C 318.929688 173.105469 323.289062 178.9375 319.105469 182.339844 C 319.105469 182.339844 326.21875 178.972656 318.929688 173.105469 Z M 318.929688 173.105469 " fill-opacity="1" fill-rule="nonzero"/><path fill="#be9e7d" d="M 509.34375 463.347656 L 515.683594 457.558594 C 515.683594 457.558594 516.238281 433.574219 540.230469 428.617188 C 540.230469 428.617188 548.777344 427.519531 552.636719 420.074219 C 556.496094 412.632812 567.253906 409.878906 569.460938 411.804688 C 571.667969 413.738281 574.425781 422 568.078125 425.867188 C 561.730469 429.730469 550.429688 439.925781 550.429688 439.925781 L 617.445312 445.4375 C 617.445312 445.4375 628.480469 447.640625 627.375 453.152344 C 626.273438 458.664062 613.859375 455.359375 613.859375 455.359375 L 589.589844 465.007812 C 589.589844 465.007812 571.660156 484.578125 544.910156 480.441406 L 534.152344 487.882812 L 509.332031 463.355469 Z M 509.34375 463.347656 " fill-opacity="1" fill-rule="nonzero"/><path stroke-linecap="butt" transform="matrix(0.68328, 0, 0, 0.682855, -5.561691, 0.167126)" fill="none" stroke-linejoin="miter" d="M 811.051177 656.282019 C 811.051177 656.282019 826.109519 661.968165 827.447276 674.690487 " stroke="#603913" stroke-width="0.5" stroke-opacity="1" stroke-miterlimit="10"/><path stroke-linecap="butt" transform="matrix(0.68328, 0, 0, 0.682855, -5.561691, 0.167126)" fill="none" stroke-linejoin="miter" d="M 838.360858 677.579324 C 838.360858 677.579324 874.451713 649.840771 886.480093 668.889932 " stroke="#603913" stroke-width="0.5" stroke-opacity="1" stroke-miterlimit="10"/><path stroke-linecap="butt" transform="matrix(0.68328, 0, 0, 0.682855, -5.561691, 0.167126)" fill="none" stroke-linejoin="miter" d="M 830.340033 661.882358 L 854.059494 663.552734 " stroke="#603913" stroke-width="0.5" stroke-opacity="1" stroke-miterlimit="10"/><path fill="#be9e7d" d="M 408.429688 426.5625 C 408.429688 426.5625 425.910156 488.457031 433.390625 499.675781 L 509.351562 463.347656 L 534.175781 487.875 C 534.175781 487.875 502 555.144531 450.855469 580.082031 C 399.710938 605.011719 386.613281 578.832031 386.613281 578.832031 C 386.613281 578.832031 363.265625 561.414062 380.457031 509.222656 C 397.648438 457.03125 408.429688 426.5625 408.429688 426.5625 Z M 408.429688 426.5625 " fill-opacity="1" fill-rule="nonzero"/><path fill="#b56e5b" d="M 291.945312 246.199219 C 291.945312 246.199219 304.648438 237.609375 316.742188 241.050781 C 316.742188 241.050781 327.996094 240.238281 333.625 250.707031 C 333.625 250.707031 326.777344 259.390625 315.347656 256.777344 C 303.910156 254.167969 297.890625 252.167969 291.945312 246.199219 Z M 291.945312 246.199219 " fill-opacity="1" fill-rule="nonzero"/><path fill="#803435" d="M 294.207031 246.269531 C 294.207031 246.269531 311.71875 242 317.191406 243.75 C 317.191406 243.75 325.496094 243.925781 332.300781 250.742188 C 332.300781 250.742188 321.210938 250.058594 315.648438 252.460938 C 315.648438 252.460938 304.066406 247.757812 294.207031 246.269531 Z M 294.207031 246.269531 " fill-opacity="1" fill-rule="nonzero"/><path fill="#ffffff" d="M 304.632812 244.417969 C 304.632812 244.417969 319.195312 241.140625 327.40625 247.167969 C 327.40625 247.167969 315.675781 245.46875 304.632812 244.417969 Z M 304.632812 244.417969 " fill-opacity="1" fill-rule="nonzero"/><g clip-path="url(#f81ca897b3)"><path fill="#f7daa6" d="M 226.472656 280.34375 C 226.472656 280.34375 237.625 339.960938 286.355469 339.136719 C 320.917969 338.550781 324.613281 326.222656 325.945312 293.589844 C 325.945312 293.589844 368.199219 304.257812 386.25 323.5 C 404.304688 342.742188 431.984375 430.550781 425.96875 485.875 C 425.96875 485.875 422.363281 515.949219 383.847656 539.996094 C 383.847656 539.996094 392.429688 626.625 391.144531 657.285156 C 391.144531 657.285156 376.625 683.132812 311.628906 683.132812 L 297.1875 586.910156 L 298.386719 681.929688 C 298.386719 681.929688 237.195312 692.539062 182.847656 666.292969 C 182.847656 666.292969 125.730469 642.105469 118.507812 635.296875 C 116.425781 633.332031 128.960938 520.480469 125.136719 508.039062 C 125.136719 508.039062 120.722656 510.984375 112.671875 501.730469 C 112.671875 501.730469 95.570312 287.695312 226.464844 280.335938 Z M 226.472656 280.34375 " fill-opacity="1" fill-rule="nonzero"/></g><path stroke-linecap="butt" transform="matrix(0.68328, 0, 0, 0.682855, -5.561691, 0.167126)" fill="none" stroke-linejoin="miter" d="M 362.582424 705.798397 C 362.582424 705.798397 369.042533 565.812804 303.709681 513.401869 " stroke="#a97c50" stroke-width="1" stroke-opacity="1" stroke-miterlimit="10"/><path stroke-linecap="butt" transform="matrix(0.68328, 0, 0, 0.682855, -5.561691, 0.167126)" fill="none" stroke-linejoin="miter" d="M 569.911897 790.570024 C 569.911897 790.570024 570.111988 646.591544 547.981828 608.367372 " stroke="#a97c50" stroke-width="1" stroke-opacity="1" stroke-miterlimit="10"/><path stroke-linecap="butt" transform="matrix(0.68328, 0, 0, 0.682855, -5.561691, 0.167126)" fill-opacity="1" fill="#a97c50" fill-rule="nonzero" stroke-linejoin="miter" d="M 434.621212 550.51055 C 434.621212 551.3629 434.535459 552.20953 434.369668 553.050438 C 434.203878 553.885627 433.958051 554.697933 433.632187 555.487358 C 433.300606 556.276783 432.900422 557.026164 432.425919 557.735502 C 431.951415 558.450561 431.414025 559.102694 430.808033 559.709064 C 430.207757 560.315434 429.550313 560.853158 428.835699 561.327957 C 428.126802 561.802756 427.377887 562.203189 426.588953 562.529255 C 425.800019 562.855322 424.988218 563.101302 424.147832 563.267196 C 423.307447 563.43881 422.467061 563.518896 421.609524 563.518896 C 420.757704 563.518896 419.911602 563.43881 419.071216 563.267196 C 418.236547 563.101302 417.419029 562.855322 416.630095 562.529255 C 415.841162 562.203189 415.092246 561.802756 414.383349 561.327957 C 413.674453 560.853158 413.017008 560.315434 412.411015 559.709064 C 411.805023 559.102694 411.267633 558.450561 410.79313 557.735502 C 410.318626 557.026164 409.918442 556.276783 409.592579 555.487358 C 409.260998 554.697933 409.015171 553.885627 408.84938 553.050438 C 408.68359 552.20953 408.597836 551.3629 408.597836 550.51055 C 408.597836 549.6582 408.68359 548.811571 408.84938 547.970662 C 409.015171 547.135474 409.260998 546.323167 409.592579 545.533742 C 409.918442 544.744318 410.318626 543.994936 410.79313 543.279878 C 411.267633 542.57054 411.805023 541.912686 412.411015 541.312036 C 413.017008 540.705667 413.674453 540.167943 414.383349 539.693144 C 415.092246 539.218345 415.841162 538.817912 416.630095 538.491845 C 417.419029 538.165779 418.236547 537.914078 419.071216 537.748184 C 419.911602 537.582291 420.757704 537.502204 421.609524 537.502204 C 422.467061 537.502204 423.307447 537.582291 424.147832 537.748184 C 424.988218 537.914078 425.800019 538.165779 426.588953 538.491845 C 427.377887 538.817912 428.126802 539.218345 428.835699 539.693144 C 429.550313 540.167943 430.207757 540.705667 430.808033 541.312036 C 431.414025 541.912686 431.951415 542.57054 432.425919 543.279878 C 432.900422 543.994936 433.300606 544.744318 433.632187 545.533742 C 433.958051 546.323167 434.203878 547.135474 434.369668 547.970662 C 434.535459 548.811571 434.621212 549.6582 434.621212 550.51055 Z M 434.621212 550.51055 " stroke="#a97c50" stroke-width="0.5" stroke-opacity="1" stroke-miterlimit="10"/><path stroke-linecap="butt" transform="matrix(0.68328, 0, 0, 0.682855, -5.561691, 0.167126)" fill-opacity="1" fill="#a97c50" fill-rule="nonzero" stroke-linejoin="miter" d="M 438.131395 647.787122 C 438.131395 648.645193 438.045642 649.491822 437.879851 650.327011 C 437.714061 651.167919 437.468234 651.980226 437.14237 652.769651 C 436.810789 653.559075 436.410605 654.308457 435.936102 655.017795 C 435.461598 655.727133 434.924208 656.384987 434.318216 656.991357 C 433.71794 657.592006 433.060496 658.13545 432.345882 658.604529 C 431.636985 659.079328 430.88807 659.485481 430.099136 659.811548 C 429.310202 660.137615 428.498401 660.383595 427.658015 660.549488 C 426.81763 660.715382 425.971527 660.801189 425.119707 660.801189 C 424.267887 660.801189 423.421785 660.715382 422.581399 660.549488 C 421.74673 660.383595 420.929212 660.137615 420.140278 659.811548 C 419.351345 659.485481 418.602429 659.079328 417.893532 658.604529 C 417.178919 658.13545 416.527191 657.592006 415.921198 656.991357 C 415.315206 656.384987 414.777816 655.727133 414.303313 655.017795 C 413.828809 654.308457 413.428625 653.559075 413.102761 652.769651 C 412.771181 651.980226 412.525354 651.167919 412.359563 650.327011 C 412.193773 649.491822 412.108019 648.645193 412.108019 647.787122 C 412.108019 646.934773 412.193773 646.088143 412.359563 645.252955 C 412.525354 644.412046 412.771181 643.599739 413.102761 642.810315 C 413.428625 642.02089 413.828809 641.271508 414.303313 640.56217 C 414.777816 639.852832 415.315206 639.194978 415.921198 638.588609 C 416.527191 637.987959 417.178919 637.444515 417.893532 636.969716 C 418.602429 636.500637 419.351345 636.094484 420.140278 635.768417 C 420.929212 635.442351 421.74673 635.196371 422.581399 635.030477 C 423.421785 634.864583 424.267887 634.778776 425.119707 634.778776 C 425.971527 634.778776 426.81763 634.864583 427.658015 635.030477 C 428.498401 635.196371 429.310202 635.442351 430.099136 635.768417 C 430.88807 636.094484 431.636985 636.500637 432.345882 636.969716 C 433.060496 637.444515 433.71794 637.987959 434.318216 638.588609 C 434.924208 639.194978 435.461598 639.852832 435.936102 640.56217 C 436.410605 641.271508 436.810789 642.02089 437.14237 642.810315 C 437.468234 643.599739 437.714061 644.412046 437.879851 645.252955 C 438.045642 646.088143 438.131395 646.934773 438.131395 647.787122 Z M 438.131395 647.787122 " stroke="#a97c50" stroke-width="0.5" stroke-opacity="1" stroke-miterlimit="10"/><path stroke-linecap="butt" transform="matrix(0.68328, 0, 0, 0.682855, -5.561691, 0.167126)" fill-opacity="1" fill="#a97c50" fill-rule="nonzero" stroke-linejoin="miter" d="M 437.239557 749.971857 C 437.239557 750.824207 437.153803 751.670836 436.988013 752.506024 C 436.822223 753.346933 436.576396 754.15924 436.250532 754.948665 C 435.924668 755.738089 435.524484 756.487471 435.04998 757.196809 C 434.575477 757.906147 434.03237 758.564001 433.432095 759.170371 C 432.826102 759.77102 432.168658 760.314464 431.459761 760.789263 C 430.745147 761.264062 429.996232 761.664495 429.207298 761.990562 C 428.418364 762.316628 427.606563 762.562609 426.766177 762.728502 C 425.931508 762.894396 425.085406 762.980203 424.227869 762.980203 C 423.376049 762.980203 422.529947 762.894396 421.689561 762.728502 C 420.854892 762.562609 420.043091 762.316628 419.24844 761.990562 C 418.459507 761.664495 417.710591 761.264062 417.001694 760.789263 C 416.292797 760.314464 415.635353 759.77102 415.02936 759.170371 C 414.429085 758.564001 413.885978 757.906147 413.411475 757.196809 C 412.936971 756.487471 412.536787 755.738089 412.210923 754.948665 C 411.88506 754.15924 411.639232 753.346933 411.467725 752.506024 C 411.301935 751.670836 411.221898 750.824207 411.221898 749.971857 C 411.221898 749.113786 411.301935 748.267157 411.467725 747.431969 C 411.639232 746.59678 411.88506 745.778753 412.210923 744.989328 C 412.536787 744.199904 412.936971 743.450522 413.411475 742.741184 C 413.885978 742.031846 414.429085 741.373992 415.02936 740.767622 C 415.635353 740.166973 416.292797 739.629249 417.001694 739.15445 C 417.710591 738.679651 418.459507 738.279218 419.24844 737.947431 C 420.043091 737.621365 420.854892 737.375384 421.689561 737.209491 C 422.529947 737.043597 423.376049 736.95779 424.227869 736.95779 C 425.085406 736.95779 425.931508 737.043597 426.766177 737.209491 C 427.606563 737.375384 428.418364 737.621365 429.207298 737.947431 C 429.996232 738.279218 430.745147 738.679651 431.459761 739.15445 C 432.168658 739.629249 432.826102 740.166973 433.432095 740.767622 C 434.03237 741.373992 434.575477 742.031846 435.04998 742.741184 C 435.524484 743.450522 435.924668 744.199904 436.250532 744.989328 C 436.576396 745.778753 436.822223 746.59678 436.988013 747.431969 C 437.153803 748.267157 437.239557 749.113786 437.239557 749.971857 Z M 437.239557 749.971857 " stroke="#a97c50" stroke-width="0.5" stroke-opacity="1" stroke-miterlimit="10"/><path stroke-linecap="butt" transform="matrix(0.68328, 0, 0, 0.682855, -5.561691, 0.167126)" fill="none" stroke-linejoin="miter" d="M 353.898437 324.420462 C 353.898437 324.420462 344.762815 338.292598 354.470129 346.798936 C 364.188876 355.299552 359.117977 334.591455 359.117977 334.591455 " stroke="#fbb040" stroke-width="3" stroke-opacity="1" stroke-miterlimit="10"/><g clip-path="url(#1f2a0cc3dd)"><path fill="#dcbf97" d="M 556.355469 505.625 L 558.238281 540.714844 L 545.585938 715.238281 C 559.53125 729.175781 560.46875 754.734375 560.46875 754.734375 C 558.609375 769.136719 559.074219 789.125 559.074219 789.125 C 559.074219 789.125 563.71875 811.890625 552.5625 814.21875 C 541.402344 816.539062 540.011719 794.238281 540.476562 780.292969 C 540.9375 766.359375 532.570312 773.324219 532.570312 773.324219 C 521.410156 795.625 540.011719 815.140625 540.011719 815.140625 C 555.820312 830.476562 544.65625 837.441406 544.65625 837.441406 C 507.921875 821.175781 498.160156 784.003906 498.160156 784.003906 C 485.605469 767.273438 496.300781 738 496.300781 738 C 503.742188 724.527344 499.464844 699.882812 499.464844 699.882812 L 495.277344 580.136719 C 502.082031 512.144531 511.605469 406.078125 511.605469 406.078125 C 511.605469 406.078125 510.785156 340.40625 539.457031 320.734375 C 568.128906 301.058594 583.335938 304.132812 583.335938 304.132812 C 583.335938 304.132812 613.804688 384.757812 543.933594 427.851562 L 556.359375 505.625 Z M 556.355469 505.625 " fill-opacity="1" fill-rule="nonzero"/></g><path fill="#dcbf97" d="M 724.777344 513.769531 C 724.777344 513.769531 696.0625 505.417969 683.703125 487.070312 L 694.234375 426.179688 L 724.769531 513.769531 Z M 724.777344 513.769531 " fill-opacity="1" fill-rule="nonzero"/><path fill="#dcbf97" d="M 684.332031 229.277344 C 684.332031 229.277344 671.863281 293.296875 708.105469 303.210938 C 708.105469 303.210938 708.132812 367.449219 621.464844 370.160156 C 621.464844 370.160156 596.777344 358.824219 580.414062 301.058594 C 580.414062 301.058594 606.398438 292.300781 606.730469 277.214844 C 607.085938 261.25 602.046875 277.714844 602.046875 277.714844 L 684.332031 229.277344 " fill-opacity="1" fill-rule="nonzero"/><g clip-path="url(#47b491e7d5)"><path fill="#0f3e5d" d="M 763.871094 589.5 C 763.871094 589.5 832.488281 715.820312 778.433594 819.996094 L 755.367188 895.757812 C 755.367188 895.757812 741.679688 935.1875 746.851562 989.070312 C 750.140625 1023.34375 743.511719 1069.976562 734.820312 1115.308594 C 734.820312 1115.308594 704.816406 1144.945312 663.949219 1125.59375 C 663.949219 1125.59375 629.8125 1135.890625 591.207031 1117.5625 L 530.300781 966.523438 C 530.300781 966.523438 518.269531 944.683594 518.269531 917.679688 C 518.269531 917.679688 497.269531 685.050781 531.996094 598.648438 C 531.996094 598.648438 623.007812 660.28125 763.867188 589.5 Z M 763.871094 589.5 " fill-opacity="1" fill-rule="nonzero"/></g><path fill="#01a04c" d="M 763.871094 589.5 C 763.871094 589.5 762.261719 548.472656 754.472656 516.980469 C 754.472656 516.980469 738.421875 442.105469 735.542969 440.164062 C 700.855469 416.832031 716.925781 306.34375 716.925781 306.34375 L 699.332031 299.566406 C 699.332031 299.566406 692.886719 362.15625 641.476562 362.15625 C 613.457031 362.15625 591.910156 356.761719 592.164062 295.085938 L 570.988281 305.703125 C 570.988281 305.703125 557.824219 369.898438 547.765625 415.34375 C 547.765625 415.34375 528.496094 460.472656 544.097656 497.109375 C 544.097656 497.109375 545.375 536.671875 532.007812 598.648438 C 532.007812 598.648438 629.472656 669.78125 763.878906 589.5 Z M 763.871094 589.5 " fill-opacity="1" fill-rule="nonzero"/><g clip-path="url(#f8344ab149)"><path fill="#dcbf97" d="M 741.734375 477.613281 L 749.214844 538.917969 L 754.722656 717.425781 C 740.777344 731.359375 739.84375 756.921875 739.84375 756.921875 C 741.699219 771.320312 741.234375 791.308594 741.234375 791.308594 C 741.234375 791.308594 736.589844 814.074219 747.746094 816.402344 C 758.90625 818.726562 760.300781 796.421875 759.835938 782.480469 C 759.371094 768.542969 767.742188 775.507812 767.742188 775.507812 C 778.898438 797.808594 760.300781 817.324219 760.300781 817.324219 C 744.488281 832.664062 755.652344 839.628906 755.652344 839.628906 C 792.386719 823.363281 802.148438 786.1875 802.148438 786.1875 C 814.703125 769.457031 804.007812 740.183594 804.007812 740.183594 C 796.566406 726.710938 800.84375 702.066406 800.84375 702.066406 L 820.101562 575.71875 C 837.679688 519.65625 802.683594 402.347656 802.683594 402.347656 C 802.683594 402.347656 789.753906 346.769531 761.085938 327.089844 C 732.414062 307.417969 716.972656 306.3125 716.972656 306.3125 C 716.972656 306.3125 700.121094 420.265625 737.417969 448.214844 L 741.722656 477.597656 Z M 741.734375 477.613281 " fill-opacity="1" fill-rule="nonzero"/></g><path fill="#dcbf97" d="M 686.285156 205.242188 C 686.285156 205.242188 680.253906 117.449219 610.988281 120.902344 C 610.988281 120.902344 559.550781 121.6875 563.71875 194.234375 C 563.71875 194.234375 566.691406 205.84375 564.8125 212.050781 C 564.8125 212.050781 561.546875 231.089844 567.800781 246.738281 C 577.195312 270.234375 589.273438 282.261719 589.273438 282.261719 C 589.273438 282.261719 599.515625 291.625 617.488281 291.609375 C 617.488281 291.609375 630.105469 291.089844 646.042969 280.589844 C 646.042969 280.589844 686.429688 261.617188 684.058594 237.785156 C 684.058594 237.785156 699.597656 246.636719 707.167969 218.3125 C 707.167969 218.3125 717.15625 193.769531 707.714844 189.90625 C 695.804688 185.03125 691.5625 192.800781 686.28125 205.234375 Z M 686.285156 205.242188 " fill-opacity="1" fill-rule="nonzero"/><path fill="#26130f" d="M 620.445312 178.671875 C 620.445312 178.671875 646.007812 175.996094 655.484375 186.09375 C 655.484375 186.09375 649.785156 171.863281 621 172.820312 C 621 172.820312 615.421875 175.511719 620.445312 178.671875 Z M 620.445312 178.671875 " fill-opacity="1" fill-rule="nonzero"/><path fill="#26130f" d="M 561.664062 182.292969 C 561.753906 180.898438 573.457031 176.582031 585.03125 175.128906 C 585.03125 175.128906 590.960938 176.902344 586.5 180.824219 C 586.5 180.824219 564.628906 180.667969 563.707031 188.035156 C 563.707031 188.035156 561.4375 185.734375 561.664062 182.292969 Z M 561.664062 182.292969 " fill-opacity="1" fill-rule="nonzero"/><path stroke-linecap="butt" transform="matrix(0.68328, 0, 0, 0.682855, -5.561691, 0.167126)" fill="none" stroke-linejoin="miter" d="M 888.738272 341.587588 C 863.652469 338.727354 879.831326 315.302034 879.831326 315.302034 " stroke="#231f20" stroke-width="1.2" stroke-opacity="1" stroke-miterlimit="10"/><path stroke-linecap="butt" transform="matrix(0.68328, 0, 0, 0.682855, -5.561691, 0.167126)" fill="none" stroke-linejoin="miter" d="M 1042.72897 305.868981 C 1042.72897 305.868981 1033.010223 281.522666 1014.927635 321.34857 C 1014.927635 321.34857 1030.59197 303.620837 1033.730553 318.499776 " stroke="#231f20" stroke-width="1.2" stroke-opacity="1" stroke-miterlimit="10"/><path fill="#26130f" d="M 600.363281 288.542969 C 600.363281 288.542969 612.757812 295.148438 631.902344 288.011719 C 631.902344 288.011719 648.652344 282.050781 662.222656 270.699219 C 662.222656 270.699219 644.449219 289.820312 620.84375 293.195312 C 620.84375 293.195312 608.882812 294.757812 598.765625 290.8125 C 598.765625 290.8125 599.496094 289.566406 600.355469 288.542969 Z M 600.363281 288.542969 " fill-opacity="1" fill-rule="nonzero"/><path fill="#26130f" d="M 571.695312 255.597656 C 561.675781 237.664062 564.320312 214.597656 564.320312 214.597656 C 564.320312 214.597656 565.503906 210.199219 565.898438 201.34375 C 566.296875 192.527344 564.394531 190.507812 565.074219 182.644531 C 565.074219 182.644531 592.5 175.769531 615.421875 151.507812 C 615.421875 151.507812 642.339844 140.140625 622.066406 142.816406 C 622.066406 142.816406 629.792969 131.9375 659.351562 140.40625 C 659.351562 140.40625 664.777344 183.5 686.285156 205.242188 C 686.285156 205.242188 696.316406 184.878906 707.722656 189.910156 C 719.125 194.945312 702.472656 226.347656 702.472656 226.347656 C 702.472656 226.347656 697.664062 244.910156 684.679688 237.0625 C 684.679688 237.0625 678.523438 255.234375 683.3125 275.0625 C 683.3125 275.0625 686.804688 273.144531 691.664062 267.082031 C 691.664062 267.082031 688.492188 276.546875 682.214844 283.066406 C 682.214844 283.066406 708.992188 276.144531 711.042969 249.851562 C 711.042969 249.851562 710.871094 240.894531 717.886719 239.472656 C 724.914062 238.058594 734.007812 212.652344 732.296875 190.914062 C 730.597656 169.171875 712.742188 95.574219 664.160156 94.878906 C 664.160156 94.878906 637.882812 83.863281 605.003906 104.65625 C 572.125 125.449219 575.621094 130.222656 548.230469 172.996094 C 548.230469 172.996094 535.425781 177.148438 556.394531 194.242188 C 556.394531 194.242188 551.152344 216.53125 554.726562 209.886719 C 554.726562 209.886719 550.648438 232.953125 560.828125 242.128906 C 560.828125 242.128906 559.136719 235.289062 559.113281 224.183594 C 559.113281 224.183594 556.929688 248.984375 576.867188 265.027344 " fill-opacity="1" fill-rule="nonzero"/><path stroke-linecap="butt" transform="matrix(0.68328, 0, 0, 0.682855, -5.561691, 0.167126)" fill="none" stroke-linejoin="miter" d="M 969.632554 271.872235 C 969.632554 271.872235 935.039529 260.837451 903.61939 273.27947 C 903.61939 273.27947 900.057755 319.340685 934.942342 320.147271 C 934.942342 320.147271 980.16882 318.402528 969.632554 271.872235 Z M 969.632554 271.872235 " stroke="#cfe5ae" stroke-width="2" stroke-opacity="1" stroke-miterlimit="10"/><path stroke-linecap="butt" transform="matrix(0.68328, 0, 0, 0.682855, -5.561691, 0.167126)" fill="none" stroke-linejoin="miter" d="M 881.517814 273.222266 C 881.517814 273.222266 851.321094 262.467784 824.920401 277.609865 C 824.920401 277.609865 817.568455 319.432213 852.447325 320.227358 C 852.447325 320.227358 892.071231 319.752559 881.529248 273.222266 Z M 881.517814 273.222266 " stroke="#cfe5ae" stroke-width="2" stroke-opacity="1" stroke-miterlimit="10"/><path stroke-linecap="butt" transform="matrix(0.68328, 0, 0, 0.682855, -5.561691, 0.167126)" fill="none" stroke-linejoin="miter" d="M 881.517814 273.222266 C 881.517814 273.222266 894.197922 266.992675 903.630824 273.290911 " stroke="#cfe5ae" stroke-width="2" stroke-opacity="1" stroke-miterlimit="10"/><path stroke-linecap="butt" transform="matrix(0.68328, 0, 0, 0.682855, -5.561691, 0.167126)" fill="none" stroke-linejoin="miter" d="M 965.16193 271.351672 L 1018.151973 286.568119 " stroke="#cfe5ae" stroke-width="2" stroke-opacity="1" stroke-miterlimit="10"/><path stroke-linecap="butt" transform="matrix(0.68328, 0, 0, 0.682855, -5.561691, 0.167126)" fill-opacity="1" fill="#fff200" fill-rule="nonzero" stroke-linejoin="miter" d="M 1017.408774 341.787805 L 1017.929013 368.530997 " stroke="#ffffff" stroke-width="1" stroke-opacity="1" stroke-miterlimit="10"/><path stroke-linecap="butt" transform="matrix(0.68328, 0, 0, 0.682855, -5.561691, 0.167126)" fill="none" stroke-linejoin="miter" d="M 1021.559251 372.117731 L 1018.197708 366.271411 L 1015.590797 372.489561 L 1008.982048 373.868194 L 1014.098683 378.278675 L 1013.372636 384.988785 L 1019.140998 381.482138 L 1025.298111 384.250845 L 1023.748828 377.678026 L 1028.282338 372.678336 Z M 1021.559251 372.117731 " stroke="#ffffff" stroke-width="1" stroke-opacity="1" stroke-miterlimit="10"/><path fill="#26130f" d="M 664.167969 94.878906 C 664.167969 94.878906 632.527344 71.601562 604.464844 92.386719 C 604.464844 92.386719 597.71875 105.238281 580.058594 102.363281 C 570.714844 100.839844 568.707031 115.46875 568.707031 115.46875 C 568.707031 115.46875 571.917969 127.457031 560.761719 126.789062 C 560.761719 126.789062 542.824219 132.222656 546.242188 153.207031 C 549.65625 174.1875 537.160156 180.960938 537.160156 180.960938 C 537.160156 180.960938 526.632812 188.484375 531.660156 199.949219 C 531.660156 199.949219 536.960938 207.578125 534.046875 211.925781 C 531.121094 216.277344 525.511719 215.101562 525.511719 215.101562 C 525.511719 215.101562 533.355469 220.53125 539.613281 210.964844 C 545.871094 201.390625 547.855469 192.765625 547.855469 192.765625 C 547.855469 192.765625 544.238281 205.71875 546.957031 212.972656 C 546.957031 212.972656 547.457031 216.398438 541.546875 222.09375 C 535.644531 227.789062 538.773438 234.175781 538.773438 234.175781 C 538.773438 234.175781 540.332031 225.980469 544.183594 225.050781 C 548.03125 224.117188 550.585938 222.777344 550.585938 222.777344 C 550.585938 222.777344 556.191406 235.191406 560.835938 242.136719 C 562.761719 245.019531 562.238281 251.582031 553.6875 253.894531 C 545.140625 256.210938 552.699219 272.945312 552.699219 272.945312 C 552.699219 272.945312 552.164062 257.644531 559.503906 259.222656 C 566.84375 260.800781 566.652344 253.398438 566.652344 253.398438 C 566.652344 253.398438 560.78125 238.90625 562.148438 220.839844 L 558.828125 182.671875 C 558.828125 182.671875 573.832031 180.667969 582.757812 175.339844 C 582.757812 175.339844 607.058594 162.425781 615.417969 151.523438 C 615.417969 151.523438 603.023438 164.023438 602.3125 168.714844 C 600.71875 179.246094 589.507812 182.019531 589.507812 182.019531 C 589.507812 182.019531 605.625 183.242188 607.046875 175.027344 C 609.582031 160.386719 622.398438 160.90625 622.398438 160.90625 C 622.398438 160.90625 636.679688 163.5625 644.621094 151.808594 C 652.558594 140.058594 659.351562 140.417969 659.351562 140.417969 C 659.351562 140.417969 681.46875 121.347656 664.167969 94.894531 Z M 664.167969 94.878906 " fill-opacity="1" fill-rule="nonzero"/><path fill="#26130f" d="M 553.675781 212.253906 C 553.675781 212.253906 556.921875 217.914062 552.773438 224.882812 C 548.621094 231.851562 543.207031 231.796875 543.058594 238.191406 C 542.90625 244.574219 551.289062 256.75 551.289062 256.75 C 551.289062 256.75 545.488281 245.824219 549.152344 238.804688 C 552.816406 231.785156 561.539062 232.699219 561.539062 232.699219 " fill-opacity="1" fill-rule="nonzero"/><path fill="#231f20" d="M 615.65625 171.75 C 615.65625 171.75 611.644531 177.191406 616.15625 180.816406 C 616.15625 180.816406 607.496094 176.597656 615.65625 171.75 Z M 615.65625 171.75 " fill-opacity="1" fill-rule="nonzero"/><path stroke-linecap="round" transform="matrix(0.68328, 0, 0, 0.682855, -5.561691, 0.167126)" fill="none" stroke-linejoin="miter" d="M 848.862822 300.600429 C 848.862822 300.600429 848.188227 302.739885 848.651297 309.249778 " stroke="#ffffff" stroke-width="1" stroke-opacity="1" stroke-miterlimit="10"/><path stroke-linecap="round" transform="matrix(0.68328, 0, 0, 0.682855, -5.561691, 0.167126)" fill="none" stroke-linejoin="miter" d="M 843.071592 310.679896 C 843.071592 310.679896 842.791463 313.231225 842.900085 315.530853 " stroke="#ffffff" stroke-width="1" stroke-opacity="1" stroke-miterlimit="10"/><path stroke-linecap="round" transform="matrix(0.68328, 0, 0, 0.682855, -5.561691, 0.167126)" fill="none" stroke-linejoin="miter" d="M 946.507652 301.778846 C 946.507652 301.778846 948.142688 306.132123 948.11982 308.809302 " stroke="#ffffff" stroke-width="1" stroke-opacity="1" stroke-miterlimit="10"/><path stroke-linecap="round" transform="matrix(0.68328, 0, 0, 0.682855, -5.561691, 0.167126)" fill="none" stroke-linejoin="miter" d="M 952.110224 320.98246 C 952.110224 320.98246 953.230738 324.180202 952.699066 326.59996 " stroke="#ffffff" stroke-width="1" stroke-opacity="1" stroke-miterlimit="10"/><path fill="#ffffff" d="M 644.332031 198.386719 C 644.332031 198.386719 644.355469 197.859375 643.984375 197.410156 C 642.746094 195.914062 639.886719 193.109375 635.21875 192.929688 C 629.992188 192.730469 626.929688 197.53125 625.882812 199.246094 C 625.707031 199.539062 625.714844 199.804688 625.714844 199.804688 C 625.714844 199.804688 625.6875 200.09375 625.851562 200.304688 C 626.648438 201.300781 629.328125 204.109375 634.273438 204.367188 C 637.21875 204.523438 641.414062 203.089844 644.121094 199.199219 C 644.3125 198.925781 644.332031 198.570312 644.332031 198.386719 Z M 644.332031 198.386719 " fill-opacity="1" fill-rule="nonzero"/><path fill="#26130f" d="M 638.921875 198.90625 C 638.921875 199.261719 638.886719 199.609375 638.816406 199.957031 C 638.75 200.308594 638.644531 200.644531 638.511719 200.972656 C 638.375 201.300781 638.207031 201.609375 638.011719 201.90625 C 637.8125 202.199219 637.589844 202.472656 637.339844 202.722656 C 637.085938 202.976562 636.816406 203.199219 636.519531 203.394531 C 636.222656 203.59375 635.914062 203.757812 635.585938 203.894531 C 635.257812 204.03125 634.917969 204.132812 634.570312 204.203125 C 634.222656 204.273438 633.871094 204.304688 633.515625 204.304688 C 633.160156 204.304688 632.808594 204.273438 632.460938 204.203125 C 632.113281 204.132812 631.777344 204.03125 631.449219 203.894531 C 631.121094 203.757812 630.808594 203.59375 630.515625 203.394531 C 630.21875 203.199219 629.945312 202.976562 629.695312 202.722656 C 629.445312 202.472656 629.21875 202.199219 629.023438 201.90625 C 628.824219 201.609375 628.660156 201.300781 628.523438 200.972656 C 628.386719 200.644531 628.285156 200.308594 628.214844 199.957031 C 628.148438 199.609375 628.113281 199.261719 628.113281 198.90625 C 628.113281 198.550781 628.148438 198.199219 628.214844 197.851562 C 628.285156 197.503906 628.386719 197.164062 628.523438 196.839844 C 628.660156 196.511719 628.824219 196.199219 629.023438 195.90625 C 629.21875 195.609375 629.445312 195.335938 629.695312 195.085938 C 629.945312 194.835938 630.21875 194.609375 630.515625 194.414062 C 630.808594 194.21875 631.121094 194.050781 631.449219 193.914062 C 631.777344 193.777344 632.113281 193.675781 632.460938 193.609375 C 632.808594 193.539062 633.160156 193.503906 633.515625 193.503906 C 633.871094 193.503906 634.222656 193.539062 634.570312 193.609375 C 634.917969 193.675781 635.257812 193.777344 635.585938 193.914062 C 635.914062 194.050781 636.222656 194.21875 636.519531 194.414062 C 636.816406 194.609375 637.085938 194.835938 637.339844 195.085938 C 637.589844 195.335938 637.8125 195.609375 638.011719 195.90625 C 638.207031 196.199219 638.375 196.511719 638.511719 196.839844 C 638.644531 197.164062 638.75 197.503906 638.816406 197.851562 C 638.886719 198.199219 638.921875 198.550781 638.921875 198.90625 Z M 638.921875 198.90625 " fill-opacity="1" fill-rule="nonzero"/><path fill="#ffffff" d="M 638.449219 197.9375 C 638.449219 198.132812 638.414062 198.320312 638.335938 198.503906 C 638.261719 198.683594 638.15625 198.84375 638.015625 198.984375 C 637.875 199.121094 637.714844 199.230469 637.535156 199.304688 C 637.351562 199.378906 637.164062 199.417969 636.96875 199.417969 C 636.769531 199.417969 636.582031 199.378906 636.398438 199.304688 C 636.21875 199.230469 636.058594 199.121094 635.917969 198.984375 C 635.78125 198.84375 635.671875 198.683594 635.597656 198.503906 C 635.523438 198.320312 635.484375 198.132812 635.484375 197.9375 C 635.484375 197.738281 635.523438 197.550781 635.597656 197.367188 C 635.671875 197.1875 635.78125 197.027344 635.917969 196.886719 C 636.058594 196.75 636.21875 196.640625 636.398438 196.566406 C 636.582031 196.492188 636.769531 196.453125 636.96875 196.453125 C 637.164062 196.453125 637.351562 196.492188 637.535156 196.566406 C 637.714844 196.640625 637.875 196.75 638.015625 196.886719 C 638.15625 197.027344 638.261719 197.1875 638.335938 197.367188 C 638.414062 197.550781 638.449219 197.738281 638.449219 197.9375 Z M 638.449219 197.9375 " fill-opacity="1" fill-rule="nonzero"/><path stroke-linecap="butt" transform="matrix(0.68328, 0, 0, 0.682855, -5.561691, 0.167126)" fill="none" stroke-linejoin="miter" d="M 923.668595 291.539207 C 923.668595 291.539207 933.65032 273.628419 950.93254 288.799102 " stroke="#231f20" stroke-width="1" stroke-opacity="1" stroke-miterlimit="10"/><path fill="#ffffff" d="M 584.949219 199.757812 C 584.949219 199.757812 585.046875 199.273438 584.765625 198.804688 C 583.828125 197.238281 581.566406 194.214844 577.253906 193.386719 C 572.425781 192.460938 568.890625 196.480469 567.675781 197.929688 C 567.464844 198.175781 567.4375 198.425781 567.4375 198.425781 C 567.4375 198.425781 567.367188 198.695312 567.492188 198.910156 C 568.09375 199.957031 570.183594 202.949219 574.742188 203.890625 C 577.453125 204.457031 581.558594 203.726562 584.636719 200.488281 C 584.847656 200.265625 584.921875 199.9375 584.949219 199.757812 Z M 584.949219 199.757812 " fill-opacity="1" fill-rule="nonzero"/><path fill="#26130f" d="M 579.886719 198.6875 C 579.886719 199.019531 579.855469 199.347656 579.789062 199.675781 C 579.722656 200 579.628906 200.316406 579.5 200.625 C 579.371094 200.933594 579.214844 201.226562 579.03125 201.5 C 578.847656 201.777344 578.636719 202.035156 578.402344 202.269531 C 578.164062 202.503906 577.910156 202.714844 577.632812 202.898438 C 577.355469 203.085938 577.0625 203.242188 576.757812 203.367188 C 576.449219 203.496094 576.132812 203.589844 575.804688 203.65625 C 575.480469 203.722656 575.148438 203.753906 574.816406 203.753906 C 574.484375 203.753906 574.152344 203.722656 573.828125 203.65625 C 573.5 203.589844 573.183594 203.496094 572.875 203.367188 C 572.570312 203.242188 572.277344 203.085938 572 202.898438 C 571.722656 202.714844 571.464844 202.503906 571.230469 202.269531 C 570.996094 202.035156 570.785156 201.777344 570.601562 201.5 C 570.414062 201.226562 570.257812 200.933594 570.132812 200.625 C 570.003906 200.316406 569.910156 200 569.84375 199.675781 C 569.777344 199.347656 569.746094 199.019531 569.746094 198.6875 C 569.746094 198.355469 569.777344 198.023438 569.84375 197.699219 C 569.910156 197.371094 570.003906 197.054688 570.132812 196.746094 C 570.257812 196.441406 570.414062 196.148438 570.601562 195.871094 C 570.785156 195.59375 570.996094 195.339844 571.230469 195.105469 C 571.464844 194.867188 571.722656 194.660156 572 194.472656 C 572.277344 194.289062 572.570312 194.132812 572.875 194.003906 C 573.183594 193.878906 573.5 193.78125 573.828125 193.71875 C 574.152344 193.652344 574.484375 193.621094 574.816406 193.621094 C 575.148438 193.621094 575.480469 193.652344 575.804688 193.71875 C 576.132812 193.78125 576.449219 193.878906 576.757812 194.003906 C 577.0625 194.132812 577.355469 194.289062 577.632812 194.472656 C 577.910156 194.660156 578.164062 194.867188 578.402344 195.105469 C 578.636719 195.339844 578.847656 195.59375 579.03125 195.871094 C 579.214844 196.148438 579.371094 196.441406 579.5 196.746094 C 579.628906 197.054688 579.722656 197.371094 579.789062 197.699219 C 579.855469 198.023438 579.886719 198.355469 579.886719 198.6875 Z M 579.886719 198.6875 " fill-opacity="1" fill-rule="nonzero"/><path fill="#ffffff" d="M 579.734375 198.394531 C 579.734375 198.582031 579.699219 198.761719 579.628906 198.9375 C 579.554688 199.109375 579.453125 199.265625 579.320312 199.398438 C 579.1875 199.53125 579.03125 199.632812 578.859375 199.707031 C 578.683594 199.777344 578.503906 199.8125 578.316406 199.8125 C 578.125 199.8125 577.945312 199.777344 577.769531 199.707031 C 577.597656 199.632812 577.441406 199.53125 577.308594 199.398438 C 577.175781 199.265625 577.074219 199.109375 577 198.9375 C 576.929688 198.761719 576.894531 198.582031 576.894531 198.394531 C 576.894531 198.203125 576.929688 198.023438 577 197.847656 C 577.074219 197.675781 577.175781 197.523438 577.308594 197.390625 C 577.441406 197.253906 577.597656 197.152344 577.769531 197.082031 C 577.945312 197.007812 578.125 196.972656 578.316406 196.972656 C 578.503906 196.972656 578.683594 197.007812 578.859375 197.082031 C 579.03125 197.152344 579.1875 197.253906 579.320312 197.390625 C 579.453125 197.523438 579.554688 197.675781 579.628906 197.847656 C 579.699219 198.023438 579.734375 198.203125 579.734375 198.394531 Z M 579.734375 198.394531 " fill-opacity="1" fill-rule="nonzero"/><path stroke-linecap="butt" transform="matrix(0.68328, 0, 0, 0.682855, -5.561691, 0.167126)" fill="none" stroke-linejoin="miter" d="M 838.778192 289.817346 C 838.778192 289.817346 850.280616 273.491128 864.13269 291.218861 " stroke="#231f20" stroke-width="1" stroke-opacity="1" stroke-miterlimit="10"/><path fill="#c6837e" d="M 588.558594 257.371094 C 588.558594 257.371094 596.585938 246.644531 607.613281 250.332031 C 607.613281 250.332031 616.222656 244.976562 632.292969 256.476562 C 632.292969 256.476562 623.976562 266.953125 608.242188 265.960938 C 592.511719 264.976562 588.558594 257.371094 588.558594 257.371094 Z M 588.558594 257.371094 " fill-opacity="1" fill-rule="nonzero"/><path fill="#803435" d="M 590.839844 258.011719 C 590.839844 258.011719 596.613281 252.214844 608.039062 252.367188 C 619.460938 252.507812 630.167969 257.035156 630.167969 257.035156 C 630.167969 257.035156 613.386719 258.804688 608.71875 261.480469 C 608.71875 261.480469 600.355469 258.585938 590.839844 258.011719 Z M 590.839844 258.011719 " fill-opacity="1" fill-rule="nonzero"/><path fill="#ffffff" d="M 595.527344 255.023438 C 595.527344 255.023438 603.664062 248.945312 623.136719 254.730469 C 623.136719 254.730469 606.492188 253.097656 595.527344 255.023438 Z M 595.527344 255.023438 " fill-opacity="1" fill-rule="nonzero"/><path fill="#01a04c" d="M 716.917969 306.34375 C 716.917969 306.34375 793.417969 306.523438 811.628906 435.144531 C 811.628906 435.144531 773.519531 464.335938 729.066406 460.109375 C 729.066406 460.109375 688.253906 345.945312 716.917969 306.34375 Z M 716.917969 306.34375 " fill-opacity="1" fill-rule="nonzero"/><path fill="#01a04c" d="M 570.984375 305.703125 C 570.984375 305.703125 508.492188 308.214844 509.761719 408.070312 L 546.152344 420.984375 L 575.835938 325.152344 " fill-opacity="1" fill-rule="nonzero"/><path stroke-linecap="butt" transform="matrix(0.68328, 0, 0, 0.682855, -5.561691, 0.167126)" fill-opacity="1" fill="#01a04c" fill-rule="nonzero" stroke-linejoin="miter" d="M 1089.967801 672.179201 L 1085.851626 613.189727 " stroke="#006838" stroke-width="1" stroke-opacity="1" stroke-miterlimit="10"/><path fill="#be9e7d" d="M 142.609375 510.558594 C 210.164062 597.6875 243.636719 595.164062 243.636719 595.164062 C 300.949219 604.898438 352.496094 483.941406 352.496094 483.941406 L 327.972656 454.941406 L 254.871094 503.445312 L 237.277344 485.070312 " fill-opacity="1" fill-rule="nonzero"/><path fill="#be9e7d" d="M 325.105469 465.121094 C 326.175781 461.757812 327.140625 458.355469 327.972656 454.941406 L 319.988281 406.378906 L 339.960938 356.480469 C 339.960938 356.480469 347.285156 352.484375 347.285156 364.464844 C 347.285156 376.441406 340.628906 399.058594 340.628906 399.058594 C 340.628906 399.058594 357.648438 397.644531 361.265625 399.058594 C 365.351562 400.65625 371.609375 404.472656 371.609375 404.472656 C 371.609375 404.472656 375.53125 408.179688 374.046875 411.046875 C 374.046875 411.046875 389.3125 414.265625 371.730469 431.402344 C 371.730469 431.402344 374.273438 459.695312 358.667969 471.304688 C 358.667969 471.304688 353.605469 477.257812 352.496094 483.941406 " fill-opacity="1" fill-rule="nonzero"/><path stroke-linecap="butt" transform="matrix(0.68328, 0, 0, 0.682855, -5.561691, 0.167126)" fill="none" stroke-linejoin="miter" d="M 552.178041 631.518109 C 552.178041 631.518109 537.131132 643.267952 536.307897 637.919314 C 535.490379 632.570675 537.54275 625.168389 543.299679 622.290993 " stroke="#754c29" stroke-width="1" stroke-opacity="1" stroke-miterlimit="10"/><path stroke-linecap="butt" transform="matrix(0.68328, 0, 0, 0.682855, -5.561691, 0.167126)" fill="none" stroke-linejoin="miter" d="M 555.562452 601.708746 C 555.562452 601.708746 542.470727 603.390564 539.589404 608.727761 " stroke="#754c29" stroke-width="1" stroke-opacity="1" stroke-miterlimit="10"/><path stroke-linecap="butt" transform="matrix(0.68328, 0, 0, 0.682855, -5.561691, 0.167126)" fill="none" stroke-linejoin="miter" d="M 541.241591 586.520901 C 541.241591 586.520901 523.14757 588.58027 516.161505 598.442358 " stroke="#754c29" stroke-width="1" stroke-opacity="1" stroke-miterlimit="10"/><path stroke-linecap="butt" transform="matrix(0.68328, 0, 0, 0.682855, -5.561691, 0.167126)" fill="none" stroke-linejoin="miter" d="M 551.989383 592.081197 C 551.989383 592.081197 533.838192 595.158809 528.898781 602.561096 " stroke="#754c29" stroke-width="1" stroke-opacity="1" stroke-miterlimit="10"/></svg>