<svg xmlns="http://www.w3.org/2000/svg" xmlns:xlink="http://www.w3.org/1999/xlink" width="1200" zoomAndPan="magnify" viewBox="0 0 900 675.000002" height="900" preserveAspectRatio="xMidYMid meet" version="1.0"><defs><clipPath id="4ed88f9c41"><path d="M 0.664062 0 L 899.332031 0 L 899.332031 674 L 0.664062 674 Z M 0.664062 0 " clip-rule="nonzero"/></clipPath><clipPath id="ec50b809d6"><path d="M 0.664062 0 L 899.332031 0 L 899.332031 673.253906 L 0.664062 673.253906 Z M 0.664062 0 " clip-rule="nonzero"/></clipPath><clipPath id="477ae410fb"><path d="M 124 573 L 397 573 L 397 673.253906 L 124 673.253906 Z M 124 573 " clip-rule="nonzero"/></clipPath><clipPath id="86ce7ea76a"><path d="M 143 654 L 166 654 L 166 673.253906 L 143 673.253906 Z M 143 654 " clip-rule="nonzero"/></clipPath><clipPath id="6da2c0b71c"><path d="M 149 666 L 171 666 L 171 673.253906 L 149 673.253906 Z M 149 666 " clip-rule="nonzero"/></clipPath><clipPath id="bd965ae2d8"><path d="M 131 657 L 154 657 L 154 673.253906 L 131 673.253906 Z M 131 657 " clip-rule="nonzero"/></clipPath><clipPath id="7f4237eb34"><path d="M 491 284 L 588 284 L 588 673.253906 L 491 673.253906 Z M 491 284 " clip-rule="nonzero"/></clipPath><clipPath id="e205ac0ec7"><path d="M 511 565 L 795 565 L 795 673.253906 L 511 673.253906 Z M 511 565 " clip-rule="nonzero"/></clipPath><clipPath id="ba59ab5234"><path d="M 709 286 L 820 286 L 820 673.253906 L 709 673.253906 Z M 709 286 " clip-rule="nonzero"/></clipPath></defs><g clip-path="url(#4ed88f9c41)"><path fill="#ffffff" d="M 0.664062 0 L 899.335938 0 L 899.335938 674 L 0.664062 674 Z M 0.664062 0 " fill-opacity="1" fill-rule="nonzero"/><path fill="#ffffff" d="M 0.664062 0 L 899.335938 0 L 899.335938 674 L 0.664062 674 Z M 0.664062 0 " fill-opacity="1" fill-rule="nonzero"/></g><g clip-path="url(#ec50b809d6)"><path fill="#a7d8ba" d="M 0.855469 0 L 899.144531 0 L 899.144531 673.160156 L 0.855469 673.160156 Z M 0.855469 0 " fill-opacity="1" fill-rule="nonzero"/></g><path fill="#be9e7d" d="M 242.441406 209.800781 C 242.441406 209.800781 233.9375 251.082031 222.648438 264.867188 C 222.648438 264.867188 237.378906 340.019531 301.996094 355.515625 C 301.996094 355.515625 343.5625 322.636719 325.800781 276.539062 C 325.800781 276.539062 316.675781 269.164062 315.726562 259.332031 C 315.726562 259.332031 262.351562 242.476562 242.441406 209.808594 Z M 242.441406 209.800781 " fill-opacity="1" fill-rule="nonzero"/><g clip-path="url(#477ae410fb)"><path fill="#0f3e5d" d="M 135.128906 601.242188 C 135.128906 601.242188 115.539062 770.90625 130.765625 942.582031 C 130.765625 942.582031 271.152344 997.554688 392.089844 943.429688 C 392.089844 943.429688 402.367188 753.496094 392.171875 646.996094 C 392.171875 646.996094 340.921875 575.03125 289.167969 573.039062 C 240.199219 571.152344 192.289062 640.417969 135.128906 601.242188 Z M 135.128906 601.242188 " fill-opacity="1" fill-rule="nonzero"/></g><g clip-path="url(#86ce7ea76a)"><path stroke-linecap="butt" transform="matrix(0.673451, 0, 0, 0.673451, 0.855605, 0.0000199704)" fill="none" stroke-linejoin="miter" d="M 237.44879 987.132803 C 237.44879 987.718638 237.390786 988.298674 237.28058 988.872908 C 237.164573 989.447143 236.996363 990.003977 236.770149 990.54921 C 236.543935 991.088643 236.271319 991.604874 235.946499 992.092103 C 235.621679 992.579333 235.250457 993.03176 234.832831 993.443585 C 234.421006 993.861211 233.968579 994.226633 233.48135 994.557253 C 232.99412 994.882073 232.477889 995.154689 231.938456 995.380903 C 231.393223 995.607117 230.836389 995.775327 230.262154 995.885533 C 229.68792 996.00154 229.107884 996.059544 228.522049 996.059544 C 227.936213 996.059544 227.350378 996.00154 226.776143 995.885533 C 226.201908 995.775327 225.645075 995.607117 225.099841 995.380903 C 224.560409 995.154689 224.044178 994.882073 223.556948 994.557253 C 223.069718 994.226633 222.617291 993.861211 222.205466 993.443585 C 221.793641 993.03176 221.422419 992.579333 221.097599 992.092103 C 220.766979 991.604874 220.494362 991.088643 220.268149 990.54921 C 220.047735 990.003977 219.873725 989.447143 219.763518 988.872908 C 219.647511 988.298674 219.589507 987.718638 219.589507 987.132803 C 219.589507 986.541167 219.647511 985.961132 219.763518 985.386897 C 219.873725 984.812662 220.047735 984.255828 220.268149 983.710595 C 220.494362 983.171163 220.766979 982.654931 221.097599 982.167702 C 221.422419 981.680472 221.793641 981.228045 222.205466 980.81622 C 222.617291 980.398595 223.069718 980.033173 223.556948 979.702552 C 224.044178 979.377733 224.560409 979.105116 225.099841 978.878903 C 225.645075 978.652689 226.201908 978.484479 226.776143 978.374272 C 227.350378 978.258265 227.936213 978.200261 228.522049 978.200261 C 229.107884 978.200261 229.68792 978.258265 230.262154 978.374272 C 230.836389 978.484479 231.393223 978.652689 231.938456 978.878903 C 232.477889 979.105116 232.99412 979.377733 233.48135 979.702552 C 233.968579 980.033173 234.421006 980.398595 234.832831 980.81622 C 235.250457 981.228045 235.621679 981.680472 235.946499 982.167702 C 236.271319 982.654931 236.543935 983.171163 236.770149 983.710595 C 236.996363 984.255828 237.164573 984.812662 237.28058 985.386897 C 237.390786 985.961132 237.44879 986.541167 237.44879 987.132803 Z M 237.44879 987.132803 " stroke="#a97c50" stroke-width="0.5" stroke-opacity="1" stroke-miterlimit="10"/></g><g clip-path="url(#6da2c0b71c)"><path stroke-linecap="butt" transform="matrix(0.673451, 0, 0, 0.673451, 0.855605, 0.0000199704)" fill="none" stroke-linejoin="miter" d="M 245.087853 1005.212499 C 245.087853 1005.798334 245.03565 1006.378369 244.919643 1006.952604 C 244.803636 1007.526839 244.635426 1008.083673 244.409212 1008.628906 C 244.182998 1009.168338 243.910382 1009.68457 243.585562 1010.171799 C 243.260742 1010.659029 242.88952 1011.111456 242.471894 1011.523281 C 242.060069 1011.940907 241.607642 1012.306329 241.120413 1012.636949 C 240.633183 1012.961768 240.116952 1013.234385 239.577519 1013.460599 C 239.038086 1013.686812 238.475452 1013.855023 237.901217 1013.97103 C 237.326983 1014.081236 236.746947 1014.13924 236.161112 1014.13924 C 235.575276 1014.13924 234.995241 1014.081236 234.415206 1013.97103 C 233.840971 1013.855023 233.284138 1013.686812 232.744705 1013.460599 C 232.199472 1013.234385 231.689041 1012.961768 231.196011 1012.636949 C 230.708781 1012.306329 230.262154 1011.940907 229.844529 1011.523281 C 229.432704 1011.111456 229.061482 1010.659029 228.736662 1010.171799 C 228.411842 1009.68457 228.133425 1009.168338 227.907212 1008.628906 C 227.686798 1008.083673 227.518588 1007.526839 227.402581 1006.952604 C 227.286574 1006.378369 227.228571 1005.798334 227.228571 1005.212499 C 227.228571 1004.620863 227.286574 1004.040828 227.402581 1003.466593 C 227.518588 1002.892358 227.686798 1002.335524 227.907212 1001.790291 C 228.133425 1001.250859 228.411842 1000.734627 228.736662 1000.247398 C 229.061482 999.760168 229.432704 999.307741 229.844529 998.895916 C 230.262154 998.478291 230.708781 998.112868 231.196011 997.782248 C 231.689041 997.457429 232.199472 997.184812 232.744705 996.958598 C 233.284138 996.738185 233.840971 996.564175 234.415206 996.453968 C 234.995241 996.337961 235.575276 996.279957 236.161112 996.279957 C 236.746947 996.279957 237.326983 996.337961 237.901217 996.453968 C 238.475452 996.564175 239.038086 996.738185 239.577519 996.958598 C 240.116952 997.184812 240.633183 997.457429 241.120413 997.782248 C 241.607642 998.112868 242.060069 998.478291 242.471894 998.895916 C 242.88952 999.307741 243.260742 999.760168 243.585562 1000.247398 C 243.910382 1000.734627 244.182998 1001.250859 244.409212 1001.790291 C 244.635426 1002.335524 244.803636 1002.892358 244.919643 1003.466593 C 245.03565 1004.040828 245.087853 1004.620863 245.087853 1005.212499 Z M 245.087853 1005.212499 " stroke="#a97c50" stroke-width="0.5" stroke-opacity="1" stroke-miterlimit="10"/></g><g clip-path="url(#bd965ae2d8)"><path stroke-linecap="butt" transform="matrix(0.673451, 0, 0, 0.673451, 0.855605, 0.0000199704)" fill="none" stroke-linejoin="miter" d="M 218.980471 991.860089 C 218.980471 992.445925 218.922467 993.02596 218.80646 993.600195 C 218.696253 994.17443 218.522243 994.737064 218.301829 995.276496 C 218.075616 995.82173 217.802999 996.33216 217.472379 996.81939 C 217.147559 997.30662 216.776337 997.759047 216.364512 998.176672 C 215.952687 998.588497 215.50026 998.95972 215.01303 999.284539 C 214.525801 999.609359 214.009569 999.887776 213.470137 1000.108189 C 212.924904 1000.334403 212.36807 1000.502613 211.793835 1000.61862 C 211.2196 1000.734627 210.633765 1000.792631 210.047929 1000.792631 C 209.462094 1000.792631 208.882058 1000.734627 208.307824 1000.61862 C 207.733589 1000.502613 207.176755 1000.334403 206.631522 1000.108189 C 206.092089 999.887776 205.575858 999.609359 205.088629 999.284539 C 204.601399 998.95972 204.148972 998.588497 203.737147 998.176672 C 203.319521 997.759047 202.948299 997.30662 202.623479 996.81939 C 202.298659 996.33216 202.026043 995.82173 201.799829 995.276496 C 201.573616 994.737064 201.405405 994.17443 201.289398 993.600195 C 201.179192 993.02596 201.121188 992.445925 201.121188 991.860089 C 201.121188 991.274254 201.179192 990.694219 201.289398 990.119984 C 201.405405 989.539949 201.573616 988.983115 201.799829 988.443682 C 202.026043 987.898449 202.298659 987.388018 202.623479 986.900789 C 202.948299 986.413559 203.319521 985.961132 203.737147 985.543507 C 204.148972 985.131682 204.601399 984.760459 205.088629 984.435639 C 205.575858 984.11082 206.092089 983.832403 206.631522 983.611989 C 207.176755 983.385776 207.733589 983.217566 208.307824 983.101559 C 208.882058 982.985551 209.462094 982.927548 210.047929 982.927548 C 210.633765 982.927548 211.2196 982.985551 211.793835 983.101559 C 212.36807 983.217566 212.924904 983.385776 213.470137 983.611989 C 214.009569 983.832403 214.525801 984.11082 215.01303 984.435639 C 215.50026 984.760459 215.952687 985.131682 216.364512 985.543507 C 216.776337 985.961132 217.147559 986.413559 217.472379 986.900789 C 217.802999 987.388018 218.075616 987.898449 218.301829 988.443682 C 218.522243 988.983115 218.696253 989.539949 218.80646 990.119984 C 218.922467 990.694219 218.980471 991.274254 218.980471 991.860089 Z M 218.980471 991.860089 " stroke="#a97c50" stroke-width="0.5" stroke-opacity="1" stroke-miterlimit="10"/></g><path fill="#be9e7d" d="M 242.070312 174.902344 C 242.070312 174.902344 236.894531 136.644531 257.386719 115.039062 C 269.898438 101.847656 297.792969 101.066406 325.335938 100.917969 C 325.335938 100.917969 383.699219 105.804688 364.941406 178.242188 C 364.941406 178.242188 361.359375 185.375 362.890625 191.53125 C 362.890625 191.53125 366.324219 203.328125 357.914062 226.496094 C 346.699219 257.371094 330.875 257.5625 330.875 257.5625 C 330.875 257.5625 328.730469 266.402344 310.722656 265.3125 C 310.722656 265.3125 294.660156 267.320312 279.292969 256.132812 C 279.292969 256.132812 238.699219 232.84375 242.449219 209.792969 C 242.449219 209.792969 224.972656 218.582031 219.011719 190.558594 C 219.011719 190.558594 212.789062 142.132812 242.070312 174.894531 Z M 242.070312 174.902344 " fill-opacity="1" fill-rule="nonzero"/><path fill="#e6e7e8" d="M 314.710938 161.191406 C 314.710938 161.191406 294.488281 154.828125 282.855469 163.539062 C 282.855469 163.539062 285.644531 148.804688 315.203125 155.042969 C 315.203125 155.042969 320.46875 158.839844 314.710938 161.195312 Z M 314.710938 161.191406 " fill-opacity="1" fill-rule="nonzero"/><path stroke-linecap="butt" transform="matrix(0.673451, 0, 0, 0.673451, 0.855605, 0.0000199704)" fill="none" stroke-linejoin="miter" d="M 495.732645 289.657927 C 495.732645 289.657927 511.080375 316.902179 480.512523 317.551818 " stroke="#231f20" stroke-width="1" stroke-opacity="1" stroke-miterlimit="10"/><path stroke-linecap="butt" transform="matrix(0.673451, 0, 0, 0.673451, 0.855605, 0.0000199704)" fill="none" stroke-linejoin="miter" d="M 327.992278 267.129362 C 327.992278 267.129362 339.007146 243.67274 354.511485 284.037387 C 354.511485 284.037387 340.097612 265.62127 336.130171 280.122149 " stroke="#231f20" stroke-width="1" stroke-opacity="1" stroke-miterlimit="10"/><path stroke-linecap="butt" transform="matrix(0.673451, 0, 0, 0.673451, 0.855605, 0.0000199704)" fill="none" stroke-linejoin="miter" d="M 408.501158 250.77237 L 418.529966 281.740447 C 418.529966 281.740447 435.902019 292.639308 460.472308 288.149836 L 475.332809 259.977528 C 475.332809 259.977528 443.610686 241.897832 408.512759 250.77237 Z M 408.501158 250.77237 " stroke="#231f20" stroke-width="1.2" stroke-opacity="1" stroke-miterlimit="10"/><path fill="#26130f" d="M 317.410156 265.210938 C 317.410156 265.210938 315.398438 265.519531 310.105469 265.125 C 310.105469 265.125 285.019531 267.453125 261.601562 243.535156 C 261.601562 243.535156 268.121094 252.34375 282.59375 261.265625 C 282.59375 261.265625 300.054688 271.15625 318.496094 267.8125 C 318.496094 267.8125 318.898438 268.085938 317.410156 265.210938 Z M 317.410156 265.210938 " fill-opacity="1" fill-rule="nonzero"/><path stroke-linecap="butt" transform="matrix(0.673451, 0, 0, 0.673451, 0.855605, 0.0000199704)" fill-opacity="1" fill="#e6e7e8" fill-rule="nonzero" stroke-linejoin="miter" d="M 408.918783 171.469964 C 408.918783 171.469964 467.751749 199.352254 503.209298 172.618433 C 503.209298 172.618433 515.140622 193.772315 545.592467 220.680146 C 545.592467 220.680146 550.052938 236.868928 535.227239 273.387941 C 535.227239 273.387941 544.902225 303.422161 525.697261 341.269456 C 525.697261 341.269456 509.978309 374.917295 490.0309 382.469353 C 490.0309 382.469353 487.049519 386.651406 483.92893 389.267365 C 483.92893 389.267365 492.287236 401.23929 501.840415 400.781063 C 501.840415 400.781063 495.628239 388.432114 500.947161 385.810355 C 500.947161 385.810355 564.751029 370.729441 559.321899 241.161188 C 559.321899 241.161188 605.301286 183.45929 553.782564 143.738483 C 530.499953 125.792195 510.059514 75.282733 448.819402 101.732337 C 448.819402 101.732337 369.371986 60.462835 342.910782 138.987995 C 342.910782 138.987995 253.579568 160.600105 303.468392 272.587493 C 303.468392 272.587493 287.262209 308.949897 321.060858 338.572292 C 324.958694 341.988699 332.64996 357.249424 325.150106 379.012343 C 323.131583 384.882299 339.790193 373.797827 345.35273 362.498742 C 345.35273 362.498742 355.451142 342.16851 358.728341 311.548454 C 358.728341 311.548454 330.440026 319.587741 326.228971 288.120834 C 326.228971 288.120834 317.232626 253.440532 329.552573 248.040405 C 329.552573 248.040405 343.351609 242.570673 357.150645 259.658509 C 357.150645 259.658509 411.279526 254.032168 408.907182 171.487365 Z M 408.918783 171.469964 " stroke="#58595b" stroke-width="0.2" stroke-opacity="1" stroke-miterlimit="10"/><path fill="#e6e7e8" d="M 365.628906 164.996094 C 365.40625 163.527344 352.605469 160.011719 340.199219 159.511719 C 340.199219 159.511719 334.070312 161.9375 339.15625 165.6875 C 339.15625 165.6875 362.335938 163.535156 363.980469 171.273438 C 363.980469 171.273438 366.183594 168.625 365.628906 164.996094 Z M 365.628906 164.996094 " fill-opacity="1" fill-rule="nonzero"/><path stroke-linecap="butt" transform="matrix(0.673451, 0, 0, 0.673451, 0.855605, 0.0000199704)" fill="none" stroke-linejoin="miter" d="M 486.272272 259.258285 L 496.30108 290.232162 C 496.30108 290.232162 511.660411 298.468661 536.242301 293.979189 L 548.591249 262.610888 C 548.591249 262.610888 521.3818 250.377946 486.278072 259.252484 Z M 486.272272 259.258285 " stroke="#231f20" stroke-width="1.2" stroke-opacity="1" stroke-miterlimit="10"/><path stroke-linecap="butt" transform="matrix(0.673451, 0, 0, 0.673451, 0.855605, 0.0000199704)" fill="none" stroke-linejoin="miter" d="M 486.272272 259.258285 C 486.272272 259.258285 480.1413 252.58788 475.332809 259.977528 " stroke="#231f20" stroke-width="1.2" stroke-opacity="1" stroke-miterlimit="10"/><path stroke-linecap="butt" transform="matrix(0.673451, 0, 0, 0.673451, 0.855605, 0.0000199704)" fill="none" stroke-linejoin="miter" d="M 408.501158 250.77237 L 339.801794 245.018422 " stroke="#231f20" stroke-width="1.2" stroke-opacity="1" stroke-miterlimit="10"/><path stroke-linecap="butt" transform="matrix(0.673451, 0, 0, 0.673451, 0.855605, 0.0000199704)" fill="none" stroke-linejoin="miter" d="M 427.462507 207.739562 C 427.462507 207.739562 454.312335 211.347381 466.991903 214.560775 C 479.671472 217.762569 516.822724 208.899632 516.822724 208.899632 " stroke="#231f20" stroke-width="0.5" stroke-opacity="1" stroke-miterlimit="10"/><path fill="#ffffff" d="M 286.601562 175.191406 C 286.601562 175.191406 286.613281 174.691406 286.996094 174.289062 C 288.277344 172.960938 291.199219 170.492188 295.644531 170.664062 C 300.621094 170.855469 303.179688 175.636719 304.054688 177.339844 C 304.203125 177.636719 304.183594 177.886719 304.183594 177.886719 C 304.183594 177.886719 304.183594 178.160156 304.015625 178.351562 C 303.1875 179.238281 300.441406 181.710938 295.726562 181.601562 C 292.917969 181.535156 289.039062 179.878906 286.75 175.980469 C 286.585938 175.710938 286.585938 175.375 286.601562 175.191406 Z M 286.601562 175.191406 " fill-opacity="1" fill-rule="nonzero"/><path fill="#26130f" d="M 301.976562 176.464844 C 301.976562 176.800781 301.941406 177.136719 301.875 177.46875 C 301.8125 177.800781 301.714844 178.121094 301.582031 178.433594 C 301.453125 178.746094 301.296875 179.042969 301.109375 179.324219 C 300.921875 179.605469 300.707031 179.863281 300.46875 180.101562 C 300.230469 180.339844 299.96875 180.554688 299.6875 180.742188 C 299.40625 180.929688 299.113281 181.089844 298.800781 181.21875 C 298.488281 181.347656 298.164062 181.445312 297.835938 181.511719 C 297.503906 181.578125 297.167969 181.609375 296.832031 181.609375 C 296.492188 181.609375 296.15625 181.578125 295.828125 181.511719 C 295.496094 181.445312 295.171875 181.347656 294.863281 181.21875 C 294.550781 181.089844 294.253906 180.929688 293.972656 180.742188 C 293.691406 180.554688 293.429688 180.339844 293.191406 180.101562 C 292.953125 179.863281 292.738281 179.605469 292.550781 179.324219 C 292.363281 179.042969 292.207031 178.746094 292.078125 178.433594 C 291.949219 178.121094 291.851562 177.800781 291.785156 177.46875 C 291.71875 177.136719 291.683594 176.800781 291.683594 176.464844 C 291.683594 176.125 291.71875 175.792969 291.785156 175.460938 C 291.851562 175.128906 291.949219 174.808594 292.078125 174.496094 C 292.207031 174.183594 292.363281 173.886719 292.550781 173.605469 C 292.738281 173.324219 292.953125 173.066406 293.191406 172.824219 C 293.429688 172.585938 293.691406 172.375 293.972656 172.1875 C 294.253906 172 294.550781 171.839844 294.863281 171.710938 C 295.171875 171.582031 295.496094 171.484375 295.828125 171.417969 C 296.15625 171.351562 296.492188 171.320312 296.832031 171.320312 C 297.167969 171.320312 297.503906 171.351562 297.835938 171.417969 C 298.164062 171.484375 298.488281 171.582031 298.800781 171.710938 C 299.113281 171.839844 299.40625 172 299.6875 172.1875 C 299.96875 172.375 300.230469 172.585938 300.46875 172.824219 C 300.707031 173.066406 300.921875 173.324219 301.109375 173.605469 C 301.296875 173.886719 301.453125 174.183594 301.582031 174.496094 C 301.714844 174.808594 301.8125 175.128906 301.875 175.460938 C 301.941406 175.792969 301.976562 176.125 301.976562 176.464844 Z M 301.976562 176.464844 " fill-opacity="1" fill-rule="nonzero"/><path fill="#ffffff" d="M 295.03125 175.292969 C 295.03125 175.480469 294.996094 175.660156 294.925781 175.832031 C 294.851562 176.007812 294.75 176.160156 294.617188 176.292969 C 294.484375 176.425781 294.332031 176.527344 294.160156 176.597656 C 293.984375 176.671875 293.804688 176.707031 293.617188 176.707031 C 293.429688 176.707031 293.25 176.671875 293.078125 176.597656 C 292.902344 176.527344 292.75 176.425781 292.617188 176.292969 C 292.484375 176.160156 292.382812 176.007812 292.3125 175.832031 C 292.238281 175.660156 292.203125 175.480469 292.203125 175.292969 C 292.203125 175.105469 292.238281 174.925781 292.3125 174.75 C 292.382812 174.578125 292.484375 174.425781 292.617188 174.292969 C 292.75 174.160156 292.902344 174.058594 293.078125 173.984375 C 293.25 173.914062 293.429688 173.878906 293.617188 173.878906 C 293.804688 173.878906 293.984375 173.914062 294.160156 173.984375 C 294.332031 174.058594 294.484375 174.160156 294.617188 174.292969 C 294.75 174.425781 294.851562 174.578125 294.925781 174.75 C 294.996094 174.925781 295.03125 175.105469 295.03125 175.292969 Z M 295.03125 175.292969 " fill-opacity="1" fill-rule="nonzero"/><path stroke-linecap="butt" transform="matrix(0.673451, 0, 0, 0.673451, 0.855605, 0.0000199704)" fill="none" stroke-linejoin="miter" d="M 450.669714 263.347532 C 450.669714 263.347532 442.35201 245.372243 424.608734 258.730453 " stroke="#231f20" stroke-width="1" stroke-opacity="1" stroke-miterlimit="10"/><path fill="#ffffff" d="M 342.410156 181.925781 C 342.410156 181.925781 342.347656 181.460938 342.652344 181.03125 C 343.648438 179.609375 346.019531 176.902344 350.175781 176.425781 C 354.828125 175.890625 357.890625 179.964844 358.949219 181.425781 C 359.132812 181.675781 359.144531 181.917969 359.144531 181.917969 C 359.144531 181.917969 359.191406 182.175781 359.058594 182.378906 C 358.410156 183.328125 356.214844 186.015625 351.816406 186.59375 C 349.199219 186.9375 345.351562 185.945312 342.664062 182.648438 C 342.476562 182.417969 342.429688 182.101562 342.417969 181.933594 Z M 342.410156 181.925781 " fill-opacity="1" fill-rule="nonzero"/><path fill="#26130f" d="M 356.929688 181.636719 C 356.929688 181.953125 356.898438 182.265625 356.835938 182.578125 C 356.773438 182.890625 356.683594 183.191406 356.5625 183.484375 C 356.441406 183.777344 356.292969 184.054688 356.117188 184.320312 C 355.9375 184.582031 355.738281 184.828125 355.515625 185.050781 C 355.289062 185.273438 355.046875 185.476562 354.78125 185.652344 C 354.519531 185.828125 354.242188 185.976562 353.949219 186.097656 C 353.65625 186.21875 353.351562 186.308594 353.042969 186.371094 C 352.730469 186.433594 352.417969 186.464844 352.101562 186.464844 C 351.785156 186.464844 351.46875 186.433594 351.160156 186.371094 C 350.847656 186.308594 350.546875 186.21875 350.253906 186.097656 C 349.960938 185.976562 349.679688 185.828125 349.417969 185.652344 C 349.152344 185.476562 348.910156 185.273438 348.6875 185.050781 C 348.460938 184.828125 348.261719 184.582031 348.085938 184.320312 C 347.910156 184.054688 347.761719 183.777344 347.640625 183.484375 C 347.519531 183.191406 347.425781 182.890625 347.363281 182.578125 C 347.304688 182.265625 347.273438 181.953125 347.273438 181.636719 C 347.273438 181.320312 347.300781 181.003906 347.363281 180.695312 C 347.425781 180.382812 347.519531 180.082031 347.640625 179.789062 C 347.761719 179.496094 347.910156 179.21875 348.085938 178.953125 C 348.261719 178.691406 348.460938 178.445312 348.6875 178.222656 C 348.910156 177.996094 349.152344 177.796875 349.417969 177.621094 C 349.679688 177.445312 349.960938 177.296875 350.253906 177.175781 C 350.546875 177.054688 350.847656 176.960938 351.160156 176.902344 C 351.46875 176.839844 351.785156 176.808594 352.101562 176.808594 C 352.417969 176.808594 352.730469 176.839844 353.042969 176.902344 C 353.351562 176.960938 353.65625 177.054688 353.949219 177.175781 C 354.242188 177.296875 354.519531 177.445312 354.78125 177.621094 C 355.046875 177.796875 355.289062 177.996094 355.515625 178.222656 C 355.738281 178.445312 355.9375 178.691406 356.117188 178.953125 C 356.292969 179.21875 356.441406 179.496094 356.5625 179.789062 C 356.683594 180.082031 356.773438 180.382812 356.835938 180.695312 C 356.898438 181.003906 356.929688 181.320312 356.929688 181.636719 Z M 356.929688 181.636719 " fill-opacity="1" fill-rule="nonzero"/><path fill="#ffffff" d="M 350.160156 181.105469 C 350.160156 181.285156 350.125 181.457031 350.058594 181.621094 C 349.988281 181.789062 349.890625 181.933594 349.765625 182.0625 C 349.636719 182.1875 349.492188 182.285156 349.324219 182.355469 C 349.160156 182.421875 348.988281 182.457031 348.808594 182.457031 C 348.628906 182.457031 348.453125 182.421875 348.289062 182.355469 C 348.125 182.285156 347.976562 182.1875 347.851562 182.0625 C 347.722656 181.933594 347.625 181.789062 347.554688 181.621094 C 347.488281 181.457031 347.453125 181.285156 347.453125 181.105469 C 347.453125 180.925781 347.488281 180.753906 347.554688 180.585938 C 347.625 180.421875 347.722656 180.273438 347.851562 180.148438 C 347.976562 180.019531 348.125 179.921875 348.289062 179.855469 C 348.453125 179.785156 348.628906 179.75 348.808594 179.75 C 348.988281 179.75 349.160156 179.785156 349.324219 179.855469 C 349.492188 179.921875 349.636719 180.019531 349.765625 180.148438 C 349.890625 180.273438 349.988281 180.421875 350.058594 180.585938 C 350.125 180.753906 350.160156 180.925781 350.160156 181.105469 Z M 350.160156 181.105469 " fill-opacity="1" fill-rule="nonzero"/><path stroke-linecap="butt" transform="matrix(0.673451, 0, 0, 0.673451, 0.855605, 0.0000199704)" fill="none" stroke-linejoin="miter" d="M 531.868836 269.617713 C 531.868836 269.617713 521.979236 253.051908 507.350749 269.118882 " stroke="#231f20" stroke-width="1" stroke-opacity="1" stroke-miterlimit="10"/><path fill="#231f20" d="M 320.75 155.339844 C 320.75 155.339844 325.046875 161.089844 320.925781 164.441406 C 320.925781 164.441406 327.9375 161.125 320.75 155.339844 Z M 320.75 155.339844 " fill-opacity="1" fill-rule="nonzero"/><path fill="#be9e7d" d="M 508.429688 441.582031 L 514.679688 435.871094 C 514.679688 435.871094 515.222656 412.21875 538.867188 407.328125 C 538.867188 407.328125 547.292969 406.246094 551.097656 398.90625 C 554.902344 391.5625 565.503906 388.851562 567.679688 390.75 C 569.855469 392.65625 572.574219 400.804688 566.316406 404.617188 C 560.0625 408.425781 548.921875 418.480469 548.921875 418.480469 L 614.976562 423.917969 C 614.976562 423.917969 625.851562 426.09375 624.761719 431.527344 C 623.675781 436.960938 611.441406 433.703125 611.441406 433.703125 L 587.519531 443.21875 C 587.519531 443.21875 569.847656 462.519531 543.480469 458.4375 L 532.882812 465.777344 L 508.414062 441.589844 Z M 508.429688 441.582031 " fill-opacity="1" fill-rule="nonzero"/><path stroke-linecap="butt" transform="matrix(0.673451, 0, 0, 0.673451, 0.855605, 0.0000199704)" fill="none" stroke-linejoin="miter" d="M 811.161564 633.682579 C 811.161564 633.682579 826.219277 639.372724 827.559158 652.087095 " stroke="#603913" stroke-width="0.5" stroke-opacity="1" stroke-miterlimit="10"/><path stroke-linecap="butt" transform="matrix(0.673451, 0, 0, 0.673451, 0.855605, 0.0000199704)" fill="none" stroke-linejoin="miter" d="M 838.458019 654.987271 C 838.458019 654.987271 874.547806 627.249989 886.577735 646.298344 " stroke="#603913" stroke-width="0.5" stroke-opacity="1" stroke-miterlimit="10"/><path stroke-linecap="butt" transform="matrix(0.673451, 0, 0, 0.673451, 0.855605, 0.0000199704)" fill="none" stroke-linejoin="miter" d="M 830.441933 639.279919 L 854.171171 640.95042 " stroke="#603913" stroke-width="0.5" stroke-opacity="1" stroke-miterlimit="10"/><path fill="#be9e7d" d="M 408.960938 405.304688 C 408.960938 405.304688 426.1875 466.34375 433.5625 477.410156 L 508.429688 441.582031 L 532.894531 465.773438 C 532.894531 465.773438 501.183594 532.113281 450.773438 556.707031 C 400.367188 581.296875 387.457031 555.476562 387.457031 555.476562 C 387.457031 555.476562 366.261719 539.527344 383.207031 488.0625 C 400.152344 436.589844 408.960938 405.304688 408.960938 405.304688 Z M 408.960938 405.304688 " fill-opacity="1" fill-rule="nonzero"/><path fill="#b56e5b" d="M 294.15625 227.429688 C 294.15625 227.429688 306.675781 218.960938 318.597656 222.351562 C 318.597656 222.351562 329.6875 221.550781 335.238281 231.875 C 335.238281 231.875 328.488281 240.441406 317.222656 237.863281 C 305.949219 235.289062 300.015625 233.316406 294.15625 227.429688 Z M 294.15625 227.429688 " fill-opacity="1" fill-rule="nonzero"/><path fill="#803435" d="M 296.386719 227.492188 C 296.386719 227.492188 313.644531 223.28125 319.039062 225.007812 C 319.039062 225.007812 327.222656 225.183594 333.929688 231.902344 C 333.929688 231.902344 323 231.230469 317.519531 233.601562 C 317.519531 233.601562 306.105469 228.960938 296.386719 227.492188 Z M 296.386719 227.492188 " fill-opacity="1" fill-rule="nonzero"/><path fill="#ffffff" d="M 306.664062 225.667969 C 306.664062 225.667969 321.015625 222.433594 329.109375 228.378906 C 329.109375 228.378906 317.546875 226.703125 306.664062 225.667969 Z M 306.664062 225.667969 " fill-opacity="1" fill-rule="nonzero"/><path fill="#f7daa6" d="M 224.785156 261.980469 C 224.785156 261.980469 235.917969 321.53125 284.566406 320.710938 C 319.066406 320.125 322.75 307.808594 324.085938 275.210938 C 324.085938 275.210938 366.261719 285.867188 384.285156 305.09375 C 402.304688 324.3125 429.9375 412.015625 423.929688 467.28125 C 423.929688 467.28125 420.328125 497.316406 381.878906 521.34375 C 381.878906 521.34375 390.445312 607.875 389.167969 638.5 C 389.167969 638.5 374.667969 664.3125 309.792969 664.3125 L 295.375 568.195312 L 296.574219 663.105469 C 296.574219 663.105469 235.484375 673.707031 181.238281 647.488281 C 181.238281 647.488281 134.378906 630.464844 127.167969 623.664062 C 125.085938 621.703125 136.050781 528.335938 132.230469 515.910156 C 132.230469 515.910156 121.382812 511.574219 102.582031 486.257812 C 102.582031 486.257812 94.113281 269.328125 224.777344 261.980469 Z M 224.785156 261.980469 " fill-opacity="1" fill-rule="nonzero"/><path stroke-linecap="butt" transform="matrix(0.673451, 0, 0, 0.673451, 0.855605, 0.0000199704)" fill="none" stroke-linejoin="miter" d="M 332.539754 728.477725 C 332.539754 728.477725 337.910879 646.872579 306.768792 533.040679 " stroke="#a97c50" stroke-width="1" stroke-opacity="1" stroke-miterlimit="10"/><path stroke-linecap="butt" transform="matrix(0.673451, 0, 0, 0.673451, 0.855605, 0.0000199704)" fill="none" stroke-linejoin="miter" d="M 565.777691 774.132292 C 565.777691 774.132292 565.980703 628.311454 543.562344 589.599907 " stroke="#a97c50" stroke-width="1" stroke-opacity="1" stroke-miterlimit="10"/><path stroke-linecap="butt" transform="matrix(0.673451, 0, 0, 0.673451, 0.855605, 0.0000199704)" fill-opacity="1" fill="#a97c50" fill-rule="nonzero" stroke-linejoin="miter" d="M 428.750185 531.010556 C 428.750185 531.874809 428.66318 532.733261 428.49497 533.580112 C 428.32676 534.426963 428.077344 535.250613 427.746724 536.051062 C 427.416104 536.85151 427.01008 537.605556 426.528651 538.3248 C 426.047221 539.044043 425.501988 539.711084 424.892951 540.32012 C 424.283915 540.934958 423.616874 541.480191 422.89763 541.96162 C 422.178387 542.443049 421.418541 542.849074 420.618092 543.179694 C 419.823444 543.510314 418.999794 543.759729 418.147143 543.927939 C 417.300291 544.096149 416.441839 544.177354 415.577587 544.177354 C 414.713334 544.177354 413.860683 544.096149 413.008031 543.927939 C 412.16118 543.759729 411.33753 543.510314 410.537081 543.179694 C 409.742433 542.849074 408.982587 542.443049 408.263343 541.96162 C 407.5441 541.480191 406.877059 540.934958 406.268023 540.32012 C 405.653185 539.711084 405.107952 539.044043 404.632323 538.3248 C 404.150894 537.605556 403.74487 536.85151 403.41425 536.051062 C 403.08363 535.250613 402.834214 534.426963 402.660204 533.580112 C 402.491994 532.733261 402.410789 531.874809 402.410789 531.010556 C 402.410789 530.146304 402.491994 529.287852 402.660204 528.441 C 402.834214 527.594149 403.08363 526.770499 403.41425 525.970051 C 403.74487 525.169602 404.150894 524.409756 404.632323 523.690512 C 405.107952 522.971269 405.653185 522.310029 406.268023 521.695192 C 406.877059 521.086155 407.5441 520.540922 408.263343 520.059492 C 408.982587 519.578063 409.742433 519.172039 410.537081 518.841419 C 411.33753 518.510799 412.16118 518.261383 413.008031 518.093173 C 413.860683 517.924963 414.713334 517.837958 415.577587 517.837958 C 416.441839 517.837958 417.300291 517.924963 418.147143 518.093173 C 418.999794 518.261383 419.823444 518.510799 420.618092 518.841419 C 421.418541 519.172039 422.178387 519.578063 422.89763 520.059492 C 423.616874 520.540922 424.283915 521.086155 424.892951 521.695192 C 425.501988 522.310029 426.047221 522.971269 426.528651 523.690512 C 427.01008 524.409756 427.416104 525.169602 427.746724 525.970051 C 428.077344 526.770499 428.32676 527.594149 428.49497 528.441 C 428.66318 529.287852 428.750185 530.146304 428.750185 531.010556 Z M 428.750185 531.010556 " stroke="#a97c50" stroke-width="0.5" stroke-opacity="1" stroke-miterlimit="10"/><path stroke-linecap="butt" transform="matrix(0.673451, 0, 0, 0.673451, 0.855605, 0.0000199704)" fill-opacity="1" fill="#a97c50" fill-rule="nonzero" stroke-linejoin="miter" d="M 438.790594 633.792786 C 438.790594 634.657038 438.703589 635.50969 438.535378 636.356541 C 438.367168 637.209193 438.117753 638.032843 437.787133 638.827491 C 437.456513 639.62794 437.050488 640.387786 436.569059 641.107029 C 436.08763 641.826273 435.542397 642.493313 434.93336 643.10235 C 434.318523 643.711387 433.657283 644.262421 432.938039 644.738049 C 432.218795 645.219479 431.458949 645.625503 430.658501 645.956123 C 429.863853 646.286743 429.040203 646.536158 428.187551 646.704369 C 427.3407 646.878379 426.482248 646.959584 425.617995 646.959584 C 424.753743 646.959584 423.901091 646.878379 423.04844 646.704369 C 422.201588 646.536158 421.377938 646.286743 420.57749 645.956123 C 419.782842 645.625503 419.022996 645.219479 418.303752 644.738049 C 417.584508 644.262421 416.917468 643.711387 416.308431 643.10235 C 415.693594 642.493313 415.148361 641.826273 414.666932 641.107029 C 414.191303 640.387786 413.785278 639.62794 413.454658 638.827491 C 413.124038 638.032843 412.868823 637.209193 412.700612 636.356541 C 412.532402 635.50969 412.451197 634.657038 412.451197 633.792786 C 412.451197 632.922733 412.532402 632.070082 412.700612 631.22323 C 412.868823 630.370579 413.124038 629.546929 413.454658 628.752281 C 413.785278 627.951832 414.191303 627.191986 414.666932 626.472742 C 415.148361 625.753499 415.693594 625.086458 416.308431 624.477421 C 416.917468 623.868385 417.584508 623.317351 418.303752 622.841722 C 419.022996 622.360293 419.782842 621.954269 420.57749 621.623648 C 421.377938 621.293028 422.201588 621.043613 423.04844 620.875403 C 423.901091 620.707193 424.753743 620.620188 425.617995 620.620188 C 426.482248 620.620188 427.3407 620.707193 428.187551 620.875403 C 429.040203 621.043613 429.863853 621.293028 430.658501 621.623648 C 431.458949 621.954269 432.218795 622.360293 432.938039 622.841722 C 433.657283 623.317351 434.318523 623.868385 434.93336 624.477421 C 435.542397 625.086458 436.08763 625.753499 436.569059 626.472742 C 437.050488 627.191986 437.456513 627.951832 437.787133 628.752281 C 438.117753 629.546929 438.367168 630.370579 438.535378 631.22323 C 438.703589 632.070082 438.790594 632.922733 438.790594 633.792786 Z M 438.790594 633.792786 " stroke="#a97c50" stroke-width="0.5" stroke-opacity="1" stroke-miterlimit="10"/><path stroke-linecap="butt" transform="matrix(0.673451, 0, 0, 0.673451, 0.855605, 0.0000199704)" fill-opacity="1" fill="#a97c50" fill-rule="nonzero" stroke-linejoin="miter" d="M 442.270805 746.261603 C 442.270805 747.125855 442.183799 747.978507 442.015589 748.831159 C 441.847379 749.67801 441.597964 750.50166 441.267344 751.302109 C 440.936724 752.096757 440.530699 752.856603 440.04927 753.575846 C 439.567841 754.29509 439.022608 754.96213 438.413571 755.571167 C 437.798734 756.186005 437.137494 756.731238 436.41825 757.212667 C 435.699006 757.688296 434.93916 758.09432 434.138712 758.42494 C 433.338263 758.75556 432.514613 759.010776 431.667762 759.178986 C 430.820911 759.347196 429.962459 759.428401 429.098206 759.428401 C 428.233954 759.428401 427.381302 759.347196 426.528651 759.178986 C 425.681799 759.010776 424.858149 758.75556 424.057701 758.42494 C 423.263053 758.09432 422.503207 757.688296 421.783963 757.212667 C 421.064719 756.731238 420.397679 756.186005 419.788642 755.571167 C 419.173805 754.96213 418.628572 754.29509 418.147143 753.575846 C 417.671514 752.856603 417.265489 752.096757 416.934869 751.302109 C 416.604249 750.50166 416.349034 749.67801 416.180823 748.831159 C 416.012613 747.978507 415.931408 747.125855 415.931408 746.261603 C 415.931408 745.397351 416.012613 744.538899 416.180823 743.692047 C 416.349034 742.845196 416.604249 742.021546 416.934869 741.221098 C 417.265489 740.420649 417.671514 739.660803 418.147143 738.941559 C 418.628572 738.222316 419.173805 737.561076 419.788642 736.946238 C 420.397679 736.337202 421.064719 735.791968 421.783963 735.310539 C 422.503207 734.82911 423.263053 734.423086 424.057701 734.092465 C 424.858149 733.761845 425.681799 733.51243 426.528651 733.34422 C 427.381302 733.17601 428.233954 733.089005 429.098206 733.089005 C 429.962459 733.089005 430.820911 733.17601 431.667762 733.34422 C 432.514613 733.51243 433.338263 733.761845 434.138712 734.092465 C 434.93916 734.423086 435.699006 734.82911 436.41825 735.310539 C 437.137494 735.791968 437.798734 736.337202 438.413571 736.946238 C 439.022608 737.561076 439.567841 738.222316 440.04927 738.941559 C 440.530699 739.660803 440.936724 740.420649 441.267344 741.221098 C 441.597964 742.021546 441.847379 742.845196 442.015589 743.692047 C 442.183799 744.538899 442.270805 745.397351 442.270805 746.261603 Z M 442.270805 746.261603 " stroke="#a97c50" stroke-width="0.5" stroke-opacity="1" stroke-miterlimit="10"/><path stroke-linecap="butt" transform="matrix(0.673451, 0, 0, 0.673451, 0.855605, 0.0000199704)" fill="none" stroke-linejoin="miter" d="M 345.857361 301.392038 C 345.857361 301.392038 336.6 315.44049 346.437396 324.048212 C 356.280593 332.661734 351.147282 311.681862 351.147282 311.681862 " stroke="#fbb040" stroke-width="3" stroke-opacity="1" stroke-miterlimit="10"/><g clip-path="url(#7f4237eb34)"><path fill="#dcbf97" d="M 554.753906 483.28125 L 556.613281 517.890625 L 544.140625 690.011719 C 557.886719 703.753906 558.808594 728.964844 558.808594 728.964844 C 556.976562 743.167969 557.4375 762.878906 557.4375 762.878906 C 557.4375 762.878906 562.015625 785.332031 551.015625 787.628906 C 540.019531 789.917969 538.644531 767.921875 539.105469 754.171875 C 539.5625 740.425781 531.3125 747.292969 531.3125 747.292969 C 520.316406 769.289062 538.644531 788.535156 538.644531 788.535156 C 554.230469 803.664062 543.226562 810.53125 543.226562 810.53125 C 507.019531 794.488281 497.398438 757.828125 497.398438 757.828125 C 485.027344 741.328125 495.566406 712.457031 495.566406 712.457031 C 502.898438 699.167969 498.683594 674.863281 498.683594 674.863281 L 494.554688 556.769531 C 501.261719 489.714844 510.652344 385.105469 510.652344 385.105469 C 510.652344 385.105469 509.84375 320.339844 538.101562 300.9375 C 566.359375 281.535156 581.351562 284.566406 581.351562 284.566406 C 581.351562 284.566406 611.378906 364.082031 542.511719 406.582031 L 554.761719 483.28125 Z M 554.753906 483.28125 " fill-opacity="1" fill-rule="nonzero"/></g><path fill="#dcbf97" d="M 720.753906 491.308594 C 720.753906 491.308594 692.457031 483.074219 680.273438 464.976562 L 690.652344 404.925781 L 720.746094 491.308594 Z M 720.753906 491.308594 " fill-opacity="1" fill-rule="nonzero"/><path fill="#dcbf97" d="M 680.890625 210.742188 C 680.890625 210.742188 668.601562 273.878906 704.320312 283.65625 C 704.320312 283.65625 704.347656 347.007812 618.929688 349.683594 C 618.929688 349.683594 594.597656 338.503906 578.46875 281.535156 C 578.46875 281.535156 604.078125 272.894531 604.410156 258.019531 C 604.757812 242.273438 599.789062 258.511719 599.789062 258.511719 L 680.890625 210.742188 " fill-opacity="1" fill-rule="nonzero"/><g clip-path="url(#e205ac0ec7)"><path fill="#0f3e5d" d="M 759.289062 565.996094 C 759.289062 565.996094 826.917969 690.578125 773.640625 793.316406 L 750.90625 868.039062 C 750.90625 868.039062 737.414062 906.921875 742.511719 960.0625 C 745.753906 993.863281 739.21875 1039.855469 730.652344 1084.566406 C 730.652344 1084.566406 701.082031 1113.792969 660.804688 1094.707031 C 660.804688 1094.707031 627.15625 1104.863281 589.109375 1086.789062 L 529.078125 937.828125 C 529.078125 937.828125 517.21875 916.289062 517.21875 889.65625 C 517.21875 889.65625 496.523438 660.230469 530.746094 575.019531 C 530.746094 575.019531 620.449219 635.804688 759.28125 565.996094 Z M 759.289062 565.996094 " fill-opacity="1" fill-rule="nonzero"/></g><path fill="#01a04c" d="M 759.289062 565.996094 C 759.289062 565.996094 757.699219 525.535156 750.023438 494.472656 C 750.023438 494.472656 734.203125 420.628906 731.367188 418.71875 C 697.175781 395.707031 713.015625 286.742188 713.015625 286.742188 L 695.675781 280.054688 C 695.675781 280.054688 689.324219 341.78125 638.652344 341.78125 C 611.035156 341.78125 589.800781 336.460938 590.050781 275.636719 L 569.179688 286.109375 C 569.179688 286.109375 556.203125 349.417969 546.289062 394.238281 C 546.289062 394.238281 527.296875 438.746094 542.671875 474.875 C 542.671875 474.875 543.933594 513.898438 530.761719 575.019531 C 530.761719 575.019531 626.820312 645.171875 759.296875 565.996094 Z M 759.289062 565.996094 " fill-opacity="1" fill-rule="nonzero"/><g clip-path="url(#ba59ab5234)"><path fill="#dcbf97" d="M 737.46875 455.65625 L 744.84375 516.117188 L 750.269531 692.164062 C 736.527344 705.910156 735.605469 731.117188 735.605469 731.117188 C 737.433594 745.320312 736.976562 765.03125 736.976562 765.03125 C 736.976562 765.03125 732.398438 787.484375 743.394531 789.78125 C 754.394531 792.070312 755.765625 770.078125 755.308594 756.324219 C 754.851562 742.582031 763.101562 749.449219 763.101562 749.449219 C 774.097656 771.445312 755.765625 790.691406 755.765625 790.691406 C 740.183594 805.816406 751.1875 812.6875 751.1875 812.6875 C 787.390625 796.644531 797.015625 759.980469 797.015625 759.980469 C 809.386719 743.484375 798.847656 714.613281 798.847656 714.613281 C 791.511719 701.324219 795.730469 677.019531 795.730469 677.019531 L 814.707031 552.410156 C 832.035156 497.121094 797.539062 381.429688 797.539062 381.429688 C 797.539062 381.429688 784.800781 326.617188 756.542969 307.207031 C 728.285156 287.804688 713.0625 286.714844 713.0625 286.714844 C 713.0625 286.714844 696.457031 399.101562 733.214844 426.664062 L 737.457031 455.644531 Z M 737.46875 455.65625 " fill-opacity="1" fill-rule="nonzero"/></g><path fill="#dcbf97" d="M 682.820312 187.03125 C 682.820312 187.03125 676.871094 100.445312 608.605469 103.851562 C 608.605469 103.851562 557.90625 104.628906 562.015625 176.175781 C 562.015625 176.175781 564.945312 187.625 563.09375 193.746094 C 563.09375 193.746094 559.875 212.519531 566.035156 227.957031 C 575.296875 251.128906 587.203125 262.988281 587.203125 262.988281 C 587.203125 262.988281 597.296875 272.222656 615.007812 272.207031 C 615.007812 272.207031 627.449219 271.695312 643.152344 261.339844 C 643.152344 261.339844 682.960938 242.628906 680.625 219.128906 C 680.625 219.128906 695.9375 227.855469 703.398438 199.921875 C 703.398438 199.921875 713.246094 175.714844 703.9375 171.90625 C 692.199219 167.097656 688.019531 174.761719 682.8125 187.023438 Z M 682.820312 187.03125 " fill-opacity="1" fill-rule="nonzero"/><path fill="#26130f" d="M 617.929688 160.828125 C 617.929688 160.828125 643.125 158.1875 652.464844 168.148438 C 652.464844 168.148438 646.847656 154.113281 618.476562 155.054688 C 618.476562 155.054688 612.980469 157.707031 617.929688 160.828125 Z M 617.929688 160.828125 " fill-opacity="1" fill-rule="nonzero"/><path fill="#26130f" d="M 559.996094 164.402344 C 560.082031 163.027344 571.617188 158.773438 583.027344 157.339844 C 583.027344 157.339844 588.871094 159.089844 584.476562 162.953125 C 584.476562 162.953125 562.917969 162.800781 562.007812 170.066406 C 562.007812 170.066406 559.773438 167.796875 559.996094 164.402344 Z M 559.996094 164.402344 " fill-opacity="1" fill-rule="nonzero"/><path stroke-linecap="butt" transform="matrix(0.673451, 0, 0, 0.673451, 0.855605, 0.0000199704)" fill="none" stroke-linejoin="miter" d="M 888.851473 318.990305 C 863.759152 316.130732 879.942133 292.697311 879.942133 292.697311 " stroke="#231f20" stroke-width="1.2" stroke-opacity="1" stroke-miterlimit="10"/><path stroke-linecap="butt" transform="matrix(0.673451, 0, 0, 0.673451, 0.855605, 0.0000199704)" fill="none" stroke-linejoin="miter" d="M 1042.827606 283.27174 C 1042.827606 283.27174 1033.112017 258.921864 1015.032321 298.752878 C 1015.032321 298.752878 1030.68747 281.021204 1033.831261 295.899106 " stroke="#231f20" stroke-width="1.2" stroke-opacity="1" stroke-miterlimit="10"/><path fill="#26130f" d="M 598.132812 269.191406 C 598.132812 269.191406 610.347656 275.703125 629.21875 268.667969 C 629.21875 268.667969 645.726562 262.789062 659.101562 251.59375 C 659.101562 251.59375 641.582031 270.449219 618.316406 273.777344 C 618.316406 273.777344 606.53125 275.320312 596.554688 271.425781 C 596.554688 271.425781 597.277344 270.203125 598.125 269.191406 Z M 598.132812 269.191406 " fill-opacity="1" fill-rule="nonzero"/><path fill="#26130f" d="M 569.875 236.691406 C 560 219.007812 562.609375 196.257812 562.609375 196.257812 C 562.609375 196.257812 563.773438 191.921875 564.164062 183.183594 C 564.554688 174.492188 562.683594 172.496094 563.347656 164.746094 C 563.347656 164.746094 590.378906 157.964844 612.976562 134.035156 C 612.976562 134.035156 639.503906 122.824219 619.519531 125.464844 C 619.519531 125.464844 627.136719 114.734375 656.269531 123.085938 C 656.269531 123.085938 661.617188 165.589844 682.820312 187.03125 C 682.820312 187.03125 692.703125 166.949219 703.945312 171.910156 C 715.183594 176.875 698.773438 207.847656 698.773438 207.847656 C 698.773438 207.847656 694.03125 226.152344 681.234375 218.414062 C 681.234375 218.414062 675.167969 236.335938 679.890625 255.890625 C 679.890625 255.890625 683.332031 254 688.117188 248.019531 C 688.117188 248.019531 684.992188 257.351562 678.804688 263.785156 C 678.804688 263.785156 705.195312 256.953125 707.21875 231.027344 C 707.21875 231.027344 707.050781 222.191406 713.964844 220.789062 C 720.890625 219.398438 729.851562 194.335938 728.167969 172.902344 C 726.492188 151.460938 708.894531 78.875 661.011719 78.1875 C 661.011719 78.1875 635.109375 67.324219 602.703125 87.832031 C 570.296875 108.339844 573.746094 113.046875 546.746094 155.230469 C 546.746094 155.230469 534.128906 159.324219 554.796875 176.179688 C 554.796875 176.179688 549.628906 198.164062 553.152344 191.609375 C 553.152344 191.609375 549.132812 214.359375 559.167969 223.410156 C 559.167969 223.410156 557.496094 216.664062 557.476562 205.710938 C 557.476562 205.710938 555.320312 230.171875 574.972656 245.992188 " fill-opacity="1" fill-rule="nonzero"/><path stroke-linecap="butt" transform="matrix(0.673451, 0, 0, 0.673451, 0.855605, 0.0000199704)" fill="none" stroke-linejoin="miter" d="M 969.737376 249.28168 C 969.737376 249.28168 935.149879 238.249411 903.729375 250.691165 C 903.729375 250.691165 900.167959 296.751757 935.051273 297.558006 C 935.051273 297.558006 980.282415 295.8121 969.737376 249.28168 Z M 969.737376 249.28168 " stroke="#cfe5ae" stroke-width="2" stroke-opacity="1" stroke-miterlimit="10"/><path stroke-linecap="butt" transform="matrix(0.673451, 0, 0, 0.673451, 0.855605, 0.0000199704)" fill="none" stroke-linejoin="miter" d="M 881.618435 250.621561 C 881.618435 250.621561 851.421804 239.867709 825.018604 255.012427 C 825.018604 255.012427 817.669559 296.827162 852.552873 297.62761 C 852.552873 297.62761 892.169274 297.151981 881.630035 250.621561 Z M 881.618435 250.621561 " stroke="#cfe5ae" stroke-width="2" stroke-opacity="1" stroke-miterlimit="10"/><path stroke-linecap="butt" transform="matrix(0.673451, 0, 0, 0.673451, 0.855605, 0.0000199704)" fill="none" stroke-linejoin="miter" d="M 881.618435 250.621561 C 881.618435 250.621561 894.298003 244.391984 903.729375 250.691165 " stroke="#cfe5ae" stroke-width="2" stroke-opacity="1" stroke-miterlimit="10"/><path stroke-linecap="butt" transform="matrix(0.673451, 0, 0, 0.673451, 0.855605, 0.0000199704)" fill="none" stroke-linejoin="miter" d="M 965.259504 248.748048 L 1018.251516 263.979771 " stroke="#cfe5ae" stroke-width="2" stroke-opacity="1" stroke-miterlimit="10"/><path stroke-linecap="butt" transform="matrix(0.673451, 0, 0, 0.673451, 0.855605, 0.0000199704)" fill-opacity="1" fill="#fff200" fill-rule="nonzero" stroke-linejoin="miter" d="M 1017.509071 319.187517 L 1018.031103 345.938739 " stroke="#ffffff" stroke-width="1" stroke-opacity="1" stroke-miterlimit="10"/><path stroke-linecap="butt" transform="matrix(0.673451, 0, 0, 0.673451, 0.855605, 0.0000199704)" fill="none" stroke-linejoin="miter" d="M 1021.662123 349.529156 L 1018.30952 343.670801 L 1015.699362 349.888778 L 1009.092761 351.269262 L 1014.202871 355.677529 L 1013.472027 362.388536 L 1019.237576 358.890924 L 1025.397549 361.657691 L 1023.848856 355.091693 L 1028.390531 350.08019 Z M 1021.662123 349.529156 " stroke="#ffffff" stroke-width="1" stroke-opacity="1" stroke-miterlimit="10"/><path fill="#26130f" d="M 661.019531 78.1875 C 661.019531 78.1875 629.832031 55.230469 602.171875 75.730469 C 602.171875 75.730469 595.527344 88.402344 578.117188 85.570312 C 568.910156 84.066406 566.929688 98.492188 566.929688 98.492188 C 566.929688 98.492188 570.097656 110.316406 559.097656 109.65625 C 559.097656 109.65625 541.421875 115.019531 544.789062 135.714844 C 548.15625 156.402344 535.839844 163.082031 535.839844 163.082031 C 535.839844 163.082031 525.460938 170.503906 530.417969 181.8125 C 530.417969 181.8125 535.644531 189.332031 532.765625 193.625 C 529.882812 197.914062 524.355469 196.753906 524.355469 196.753906 C 524.355469 196.753906 532.085938 202.109375 538.253906 192.675781 C 544.425781 183.234375 546.378906 174.726562 546.378906 174.726562 C 546.378906 174.726562 542.816406 187.503906 545.496094 194.652344 C 545.496094 194.652344 545.988281 198.035156 540.160156 203.652344 C 534.34375 209.269531 537.425781 215.566406 537.425781 215.566406 C 537.425781 215.566406 538.964844 207.484375 542.761719 206.566406 C 546.550781 205.644531 549.070312 204.324219 549.070312 204.324219 C 549.070312 204.324219 554.59375 216.566406 559.171875 223.417969 C 561.070312 226.257812 560.554688 232.730469 552.128906 235.015625 C 543.703125 237.296875 551.152344 253.804688 551.152344 253.804688 C 551.152344 253.804688 550.628906 238.710938 557.859375 240.265625 C 565.09375 241.824219 564.902344 234.523438 564.902344 234.523438 C 564.902344 234.523438 559.121094 220.230469 560.464844 202.414062 L 557.191406 164.773438 C 557.191406 164.773438 571.980469 162.792969 580.777344 157.539062 C 580.777344 157.539062 604.730469 144.804688 612.96875 134.050781 C 612.96875 134.050781 600.753906 146.382812 600.050781 151.007812 C 598.484375 161.390625 587.429688 164.125 587.429688 164.125 C 587.429688 164.125 603.316406 165.332031 604.71875 157.230469 C 607.21875 142.792969 619.851562 143.304688 619.851562 143.304688 C 619.851562 143.304688 633.925781 145.921875 641.75 134.332031 C 649.578125 122.742188 656.269531 123.101562 656.269531 123.101562 C 656.269531 123.101562 678.070312 104.289062 661.019531 78.199219 Z M 661.019531 78.1875 " fill-opacity="1" fill-rule="nonzero"/><path fill="#26130f" d="M 552.121094 193.953125 C 552.121094 193.953125 555.320312 199.535156 551.234375 206.40625 C 547.136719 213.28125 541.804688 213.226562 541.65625 219.53125 C 541.507812 225.828125 549.773438 237.835938 549.773438 237.835938 C 549.773438 237.835938 544.054688 227.0625 547.664062 220.136719 C 551.273438 213.214844 559.875 214.117188 559.875 214.117188 " fill-opacity="1" fill-rule="nonzero"/><path fill="#231f20" d="M 613.203125 153.996094 C 613.203125 153.996094 609.25 159.367188 613.695312 162.941406 C 613.695312 162.941406 605.164062 158.78125 613.203125 153.996094 Z M 613.203125 153.996094 " fill-opacity="1" fill-rule="nonzero"/><path fill="#c6837e" d="M 584.238281 235.828125 C 584.238281 235.828125 592.886719 224.277344 604.746094 228.246094 C 604.746094 228.246094 614.011719 222.472656 631.304688 234.867188 C 631.304688 234.867188 622.355469 246.144531 605.417969 245.082031 C 588.480469 244.019531 584.230469 235.828125 584.230469 235.828125 Z M 584.238281 235.828125 " fill-opacity="1" fill-rule="nonzero"/><path fill="#803435" d="M 586.691406 236.523438 C 586.691406 236.523438 592.90625 230.28125 605.203125 230.441406 C 617.5 230.597656 629.03125 235.472656 629.03125 235.472656 C 629.03125 235.472656 610.96875 237.378906 605.945312 240.261719 C 605.945312 240.261719 596.941406 237.140625 586.691406 236.523438 Z M 586.691406 236.523438 " fill-opacity="1" fill-rule="nonzero"/><path fill="#ffffff" d="M 591.742188 233.296875 C 591.742188 233.296875 600.503906 226.75 621.460938 232.980469 C 621.460938 232.980469 603.546875 231.222656 591.742188 233.296875 Z M 591.742188 233.296875 " fill-opacity="1" fill-rule="nonzero"/><path stroke-linecap="round" transform="matrix(0.673451, 0, 0, 0.673451, 0.855605, 0.0000199704)" fill="none" stroke-linejoin="miter" d="M 843.660934 327.847442 C 837.350151 311.612258 843.237508 276.792747 843.237508 276.792747 " stroke="#ffffff" stroke-width="1" stroke-opacity="1" stroke-miterlimit="10"/><path stroke-linecap="round" transform="matrix(0.673451, 0, 0, 0.673451, 0.855605, 0.0000199704)" fill="none" stroke-linejoin="miter" d="M 848.968256 277.999221 C 848.968256 277.999221 848.301215 280.13955 848.759443 286.647545 " stroke="#ffffff" stroke-width="1" stroke-opacity="1" stroke-miterlimit="10"/><path stroke-linecap="round" transform="matrix(0.673451, 0, 0, 0.673451, 0.855605, 0.0000199704)" fill="none" stroke-linejoin="miter" d="M 847.581972 290.220561 C 847.581972 290.220561 847.297754 292.772716 847.407961 295.069655 " stroke="#ffffff" stroke-width="1" stroke-opacity="1" stroke-miterlimit="10"/><path stroke-linecap="round" transform="matrix(0.673451, 0, 0, 0.673451, 0.855605, 0.0000199704)" fill="none" stroke-linejoin="miter" d="M 950.729624 274.809027 C 950.729624 274.809027 960.06819 289.251903 958.368687 326.710573 " stroke="#ffffff" stroke-width="1" stroke-opacity="1" stroke-miterlimit="10"/><path stroke-linecap="round" transform="matrix(0.673451, 0, 0, 0.673451, 0.855605, 0.0000199704)" fill="none" stroke-linejoin="miter" d="M 946.617174 279.182492 C 946.617174 279.182492 948.252874 283.532756 948.229672 286.212518 " stroke="#ffffff" stroke-width="1" stroke-opacity="1" stroke-miterlimit="10"/><path stroke-linecap="round" transform="matrix(0.673451, 0, 0, 0.673451, 0.855605, 0.0000199704)" fill="none" stroke-linejoin="miter" d="M 952.208713 298.381656 C 952.208713 298.381656 953.328181 301.57765 952.800349 304.002197 " stroke="#ffffff" stroke-width="1" stroke-opacity="1" stroke-miterlimit="10"/><path fill="#ffffff" d="M 641.46875 180.269531 C 641.46875 180.269531 641.488281 179.75 641.125 179.304688 C 639.90625 177.832031 637.085938 175.0625 632.484375 174.886719 C 627.332031 174.691406 624.316406 179.425781 623.285156 181.117188 C 623.109375 181.40625 623.117188 181.671875 623.117188 181.671875 C 623.117188 181.671875 623.089844 181.953125 623.25 182.160156 C 624.039062 183.144531 626.679688 185.914062 631.554688 186.167969 C 634.457031 186.324219 638.59375 184.910156 641.261719 181.070312 C 641.449219 180.800781 641.46875 180.449219 641.46875 180.269531 Z M 641.46875 180.269531 " fill-opacity="1" fill-rule="nonzero"/><path fill="#26130f" d="M 636.140625 180.78125 C 636.140625 181.132812 636.109375 181.476562 636.039062 181.820312 C 635.972656 182.164062 635.871094 182.496094 635.734375 182.820312 C 635.601562 183.144531 635.4375 183.449219 635.242188 183.742188 C 635.050781 184.03125 634.828125 184.300781 634.582031 184.546875 C 634.335938 184.796875 634.066406 185.015625 633.773438 185.210938 C 633.484375 185.40625 633.175781 185.570312 632.851562 185.703125 C 632.53125 185.835938 632.195312 185.9375 631.855469 186.003906 C 631.511719 186.074219 631.164062 186.109375 630.816406 186.109375 C 630.464844 186.109375 630.117188 186.074219 629.777344 186.003906 C 629.433594 185.9375 629.097656 185.835938 628.777344 185.703125 C 628.453125 185.570312 628.144531 185.40625 627.855469 185.210938 C 627.5625 185.015625 627.296875 184.796875 627.046875 184.546875 C 626.800781 184.300781 626.578125 184.03125 626.386719 183.742188 C 626.191406 183.449219 626.027344 183.144531 625.894531 182.820312 C 625.757812 182.496094 625.660156 182.164062 625.589844 181.820312 C 625.523438 181.476562 625.488281 181.132812 625.488281 180.78125 C 625.488281 180.429688 625.523438 180.085938 625.589844 179.742188 C 625.660156 179.398438 625.757812 179.066406 625.894531 178.742188 C 626.027344 178.417969 626.191406 178.113281 626.386719 177.820312 C 626.578125 177.53125 626.800781 177.261719 627.046875 177.015625 C 627.296875 176.765625 627.5625 176.546875 627.855469 176.351562 C 628.144531 176.15625 628.453125 175.992188 628.777344 175.859375 C 629.097656 175.726562 629.433594 175.625 629.777344 175.554688 C 630.117188 175.488281 630.464844 175.453125 630.816406 175.453125 C 631.164062 175.453125 631.511719 175.488281 631.855469 175.554688 C 632.195312 175.625 632.53125 175.726562 632.851562 175.859375 C 633.175781 175.992188 633.484375 176.15625 633.773438 176.351562 C 634.066406 176.546875 634.335938 176.765625 634.582031 177.015625 C 634.828125 177.261719 635.050781 177.53125 635.242188 177.820312 C 635.4375 178.113281 635.601562 178.417969 635.734375 178.742188 C 635.871094 179.066406 635.972656 179.398438 636.039062 179.742188 C 636.109375 180.085938 636.140625 180.429688 636.140625 180.78125 Z M 636.140625 180.78125 " fill-opacity="1" fill-rule="nonzero"/><path fill="#ffffff" d="M 635.675781 179.824219 C 635.675781 180.019531 635.640625 180.203125 635.566406 180.382812 C 635.492188 180.5625 635.386719 180.722656 635.25 180.859375 C 635.113281 180.996094 634.953125 181.101562 634.773438 181.175781 C 634.597656 181.25 634.410156 181.285156 634.214844 181.285156 C 634.023438 181.285156 633.835938 181.25 633.65625 181.175781 C 633.476562 181.101562 633.320312 180.996094 633.183594 180.859375 C 633.046875 180.722656 632.941406 180.5625 632.867188 180.382812 C 632.792969 180.203125 632.753906 180.019531 632.753906 179.824219 C 632.753906 179.632812 632.792969 179.445312 632.867188 179.265625 C 632.941406 179.085938 633.046875 178.929688 633.183594 178.792969 C 633.320312 178.65625 633.476562 178.546875 633.65625 178.476562 C 633.835938 178.402344 634.023438 178.363281 634.214844 178.363281 C 634.410156 178.363281 634.597656 178.402344 634.773438 178.476562 C 634.953125 178.546875 635.113281 178.65625 635.25 178.792969 C 635.386719 178.929688 635.492188 179.085938 635.566406 179.265625 C 635.640625 179.445312 635.675781 179.632812 635.675781 179.824219 Z M 635.675781 179.824219 " fill-opacity="1" fill-rule="nonzero"/><path stroke-linecap="butt" transform="matrix(0.673451, 0, 0, 0.673451, 0.855605, 0.0000199704)" fill="none" stroke-linejoin="miter" d="M 923.76959 268.939071 C 923.76959 268.939071 933.751995 251.027586 951.031242 266.201305 " stroke="#231f20" stroke-width="1" stroke-opacity="1" stroke-miterlimit="10"/><path fill="#ffffff" d="M 582.9375 181.621094 C 582.9375 181.621094 583.035156 181.144531 582.757812 180.679688 C 581.835938 179.136719 579.605469 176.15625 575.355469 175.339844 C 570.59375 174.421875 567.113281 178.390625 565.914062 179.816406 C 565.707031 180.058594 565.679688 180.308594 565.679688 180.308594 C 565.679688 180.308594 565.609375 180.574219 565.734375 180.789062 C 566.324219 181.816406 568.386719 184.769531 572.878906 185.699219 C 575.550781 186.257812 579.597656 185.535156 582.628906 182.34375 C 582.839844 182.121094 582.914062 181.796875 582.9375 181.621094 Z M 582.9375 181.621094 " fill-opacity="1" fill-rule="nonzero"/><path fill="#26130f" d="M 577.957031 180.566406 C 577.957031 180.894531 577.921875 181.21875 577.859375 181.539062 C 577.796875 181.863281 577.699219 182.175781 577.574219 182.476562 C 577.449219 182.78125 577.296875 183.070312 577.113281 183.339844 C 576.929688 183.613281 576.722656 183.867188 576.492188 184.097656 C 576.261719 184.332031 576.007812 184.539062 575.734375 184.71875 C 575.460938 184.902344 575.175781 185.054688 574.871094 185.183594 C 574.566406 185.308594 574.253906 185.402344 573.933594 185.464844 C 573.613281 185.53125 573.285156 185.5625 572.957031 185.5625 C 572.628906 185.5625 572.304688 185.53125 571.984375 185.464844 C 571.660156 185.402344 571.347656 185.308594 571.046875 185.183594 C 570.742188 185.054688 570.457031 184.902344 570.183594 184.71875 C 569.910156 184.539062 569.65625 184.332031 569.425781 184.097656 C 569.191406 183.867188 568.984375 183.613281 568.804688 183.339844 C 568.621094 183.070312 568.46875 182.78125 568.34375 182.476562 C 568.214844 182.175781 568.121094 181.863281 568.058594 181.539062 C 567.992188 181.21875 567.960938 180.894531 567.960938 180.566406 C 567.960938 180.238281 567.992188 179.914062 568.058594 179.589844 C 568.121094 179.269531 568.214844 178.957031 568.34375 178.652344 C 568.46875 178.351562 568.621094 178.0625 568.804688 177.789062 C 568.984375 177.515625 569.191406 177.265625 569.425781 177.03125 C 569.65625 176.800781 569.910156 176.59375 570.183594 176.410156 C 570.457031 176.226562 570.742188 176.074219 571.046875 175.949219 C 571.347656 175.824219 571.660156 175.730469 571.984375 175.664062 C 572.304688 175.601562 572.628906 175.570312 572.957031 175.570312 C 573.285156 175.570312 573.613281 175.601562 573.933594 175.664062 C 574.253906 175.730469 574.566406 175.824219 574.871094 175.949219 C 575.175781 176.074219 575.460938 176.226562 575.734375 176.410156 C 576.007812 176.59375 576.261719 176.800781 576.492188 177.03125 C 576.722656 177.265625 576.929688 177.515625 577.113281 177.789062 C 577.296875 178.0625 577.449219 178.351562 577.574219 178.652344 C 577.699219 178.957031 577.796875 179.269531 577.859375 179.589844 C 577.921875 179.914062 577.957031 180.238281 577.957031 180.566406 Z M 577.957031 180.566406 " fill-opacity="1" fill-rule="nonzero"/><path fill="#ffffff" d="M 577.800781 180.277344 C 577.800781 180.460938 577.765625 180.640625 577.695312 180.8125 C 577.621094 180.984375 577.523438 181.136719 577.390625 181.265625 C 577.257812 181.398438 577.109375 181.5 576.9375 181.570312 C 576.765625 181.640625 576.585938 181.675781 576.398438 181.675781 C 576.214844 181.675781 576.035156 181.640625 575.863281 181.570312 C 575.691406 181.5 575.539062 181.398438 575.410156 181.265625 C 575.277344 181.136719 575.175781 180.984375 575.105469 180.8125 C 575.035156 180.640625 575 180.460938 575 180.277344 C 575 180.089844 575.035156 179.910156 575.105469 179.738281 C 575.175781 179.566406 575.277344 179.417969 575.410156 179.285156 C 575.539062 179.152344 575.691406 179.054688 575.863281 178.980469 C 576.035156 178.910156 576.214844 178.875 576.398438 178.875 C 576.585938 178.875 576.765625 178.910156 576.9375 178.980469 C 577.109375 179.054688 577.257812 179.152344 577.390625 179.285156 C 577.523438 179.417969 577.621094 179.566406 577.695312 179.738281 C 577.765625 179.910156 577.800781 180.089844 577.800781 180.277344 Z M 577.800781 180.277344 " fill-opacity="1" fill-rule="nonzero"/><path stroke-linecap="butt" transform="matrix(0.673451, 0, 0, 0.673451, 0.855605, 0.0000199704)" fill="none" stroke-linejoin="miter" d="M 838.881444 267.227968 C 838.881444 267.227968 850.377741 250.899978 864.228981 268.631653 " stroke="#231f20" stroke-width="1" stroke-opacity="1" stroke-miterlimit="10"/><path fill="#01a04c" d="M 713.078125 286.726562 C 713.078125 286.726562 788.558594 286.027344 806.765625 416.597656 C 806.765625 416.597656 771.390625 450.929688 733.941406 446.765625 C 733.941406 446.765625 683.371094 393.550781 713.078125 286.726562 Z M 713.078125 286.726562 " fill-opacity="1" fill-rule="nonzero"/><path fill="#01a04c" d="M 569.171875 286.109375 C 569.171875 286.109375 504.535156 288.621094 507.652344 399.941406 C 507.652344 399.941406 533.664062 415.546875 547.1875 415.027344 " fill-opacity="1" fill-rule="nonzero"/><path stroke-linecap="butt" transform="matrix(0.673451, 0, 0, 0.673451, 0.855605, 0.0000199704)" fill-opacity="1" fill="#01a04c" fill-rule="nonzero" stroke-linejoin="miter" d="M 1088.551777 663.39198 L 1079.282816 596.960554 " stroke="#006838" stroke-width="1" stroke-opacity="1" stroke-miterlimit="10"/><path fill="#be9e7d" d="M 356.625 537.804688 C 356.625 537.804688 360.019531 506.683594 385.484375 504.421875 C 385.484375 504.421875 402.796875 501.277344 410.089844 496.65625 C 418.246094 491.484375 426.597656 493.671875 426.597656 493.671875 C 426.597656 493.671875 433.265625 498.8125 427.789062 503.019531 C 422.320312 507.230469 401.316406 515.363281 401.316406 515.363281 L 476.222656 522.941406 C 476.222656 522.941406 485.886719 523.511719 486.070312 529.277344 C 486.273438 535.640625 480.015625 536.410156 480.015625 536.410156 C 480.015625 536.410156 478.757812 545.671875 467.8125 544.828125 C 467.8125 544.828125 461.503906 556.1875 451.816406 555.347656 C 451.816406 555.347656 449.71875 560.398438 437.933594 561.242188 C 426.144531 562.082031 382.386719 565.449219 382.386719 565.449219 C 382.386719 565.449219 364.382812 565.429688 360.605469 565.429688 " fill-opacity="1" fill-rule="nonzero"/><path stroke-linecap="butt" transform="matrix(0.673451, 0, 0, 0.673451, 0.855605, 0.0000199704)" fill="none" stroke-linejoin="miter" d="M 643.281989 795.280374 L 711.511524 796.510049 C 711.511524 796.510049 730.107451 788.598369 713.999875 778.482556 L 594.651841 765.269355 L 633.960824 746.940244 C 633.960824 746.940244 643.339992 734.568094 632.191716 733.060003 C 621.03764 731.551911 607.679431 737.491471 607.679431 737.491471 " stroke="#754c29" stroke-width="1" stroke-opacity="1" stroke-miterlimit="10"/><path stroke-linecap="butt" transform="matrix(0.673451, 0, 0, 0.673451, 0.855605, 0.0000199704)" fill-opacity="1" fill="#ba9777" fill-rule="nonzero" stroke-linejoin="miter" d="M 644.360854 809.160616 L 693.379625 808.998206 " stroke="#754c29" stroke-width="1" stroke-opacity="1" stroke-miterlimit="10"/><path stroke-linecap="butt" transform="matrix(0.673451, 0, 0, 0.673451, 0.855605, 0.0000199704)" fill-opacity="1" fill="#ba9777" fill-rule="nonzero" stroke-linejoin="miter" d="M 669.638786 824.630153 L 631.75089 824.862167 " stroke="#754c29" stroke-width="1" stroke-opacity="1" stroke-miterlimit="10"/><path fill="#be9e7d" d="M 118.683594 495.714844 C 133.277344 543.46875 177.070312 572.332031 177.070312 572.332031 C 265.617188 606.160156 360.605469 565.421875 360.605469 565.421875 L 359.550781 528.578125 L 233.699219 517.371094 L 219.882812 489.738281 " fill-opacity="1" fill-rule="nonzero"/></svg>