<?xml version="1.0" encoding="UTF-8"?>
<svg xmlns="http://www.w3.org/2000/svg" xmlns:xlink="http://www.w3.org/1999/xlink" viewBox="0 0 1333.86 1668.03">
  <defs>
    <style>
      .cls-1, .cls-2, .cls-3, .cls-4, .cls-5, .cls-6, .cls-7, .cls-8, .cls-9, .cls-10, .cls-11, .cls-12, .cls-13 {
        fill: none;
      }

      .cls-2 {
        stroke: #fbb040;
        stroke-width: 3px;
      }

      .cls-2, .cls-14, .cls-3, .cls-15, .cls-16, .cls-17, .cls-18, .cls-4, .cls-5, .cls-6, .cls-7, .cls-8, .cls-9, .cls-10, .cls-11, .cls-12, .cls-13 {
        stroke-miterlimit: 10;
      }

      .cls-19 {
        clip-path: url(#clippath);
      }

      .cls-20 {
        fill: #f7daa6;
      }

      .cls-21, .cls-16 {
        fill: #01a04c;
      }

      .cls-22, .cls-14 {
        fill: #e6e7e8;
      }

      .cls-23 {
        fill: #fff;
      }

      .cls-24 {
        fill: #803435;
      }

      .cls-25 {
        fill: #b56e5b;
      }

      .cls-26 {
        fill: #8b5e3c;
      }

      .cls-27, .cls-18 {
        fill: #ba9777;
      }

      .cls-28 {
        fill: #a7d8ba;
      }

      .cls-29 {
        fill: #be9e7d;
      }

      .cls-30 {
        fill: #dcbf97;
      }

      .cls-31 {
        fill: #c6837e;
      }

      .cls-32 {
        fill: #231f20;
      }

      .cls-33 {
        fill: #0f3e5d;
      }

      .cls-34 {
        fill: #26130f;
      }

      .cls-14 {
        stroke: #58595b;
        stroke-width: .2px;
      }

      .cls-3 {
        stroke-linecap: round;
      }

      .cls-3, .cls-17, .cls-6 {
        stroke: #fff;
      }

      .cls-15 {
        fill: #a97c50;
      }

      .cls-15, .cls-8, .cls-13 {
        stroke: #a97c50;
      }

      .cls-15, .cls-10, .cls-11, .cls-12, .cls-13 {
        stroke-width: .5px;
      }

      .cls-16 {
        stroke: #006838;
      }

      .cls-17 {
        fill: #fff200;
      }

      .cls-18, .cls-7 {
        stroke: #754c29;
      }

      .cls-4 {
        stroke: #cfe5ae;
        stroke-width: 2px;
      }

      .cls-5, .cls-9, .cls-10 {
        stroke: #231f20;
      }

      .cls-9 {
        stroke-width: 1.2px;
      }

      .cls-11 {
        stroke: #603913;
      }

      .cls-12 {
        stroke: #3c2415;
      }
    </style>
    <clipPath id="clippath">
      <rect class="cls-1" x="135.09" y="51.65" width="1139.5" height="948.11"/>
    </clipPath>
  </defs>
  <g id="Layer_2" data-name="Layer 2">
    <rect class="cls-28" width="1333.86" height="999.57"/>
  </g>
  <g id="Layer_1" data-name="Layer 1">
    <g class="cls-19">
      <g>
        <path class="cls-26" d="M397.72,1557.93s-19.41,30.2-9.71,50.69c0,0,9.71,31.27,81.96,21.57,0,0,95.43,37.58,118.08-16.34,0,0-1.61-32.19-80.33-41.89,0,0,9.71,25.88-24.8,24.8,0,0-66.86-1.08-85.2-38.82Z"/>
        <path class="cls-27" d="M397.72,1557.93s3.1-18.49,8.74-26.54c0,0-10.47-77.32-2.42-114.37,0,0,49.94,11.28,84.57,9.67,0,0-12.08,75.71-16.91,113.57,0,0-2.42,20.94,12.08,23.36l23.94,8.35s12.63,43.2-49.44,23.69-60.56-37.71-60.56-37.71Z"/>
        <path class="cls-29" d="M358.73,311.53s-12.63,61.3-29.39,81.77c0,0,21.87,111.59,117.82,134.6,0,0,61.72-48.82,35.35-117.27,0,0-13.55-10.95-14.96-25.55,0,0-79.26-25.03-108.82-73.54Z"/>
        <path class="cls-33" d="M199.38,892.78s-29.09,251.93-6.48,506.85c0,0,208.46,81.63,388.04,1.26,0,0,15.26-282.03,.12-440.17,0,0-76.1-106.86-152.95-109.82-72.71-2.8-143.85,100.05-228.73,41.88Z"/>
        <path class="cls-26" d="M277.96,1576.43s-20.92,32.54-10.46,54.62c0,0,10.46,33.7,88.33,23.24,0,0,102.85,40.5,127.25-17.61,0,0-1.73-34.69-86.57-45.15,0,0,10.46,27.89-26.73,26.73,0,0-72.06-1.16-91.82-41.84Z"/>
        <g>
          <circle class="cls-13" cx="231.42" cy="1289.61" r="8.93"/>
          <circle class="cls-13" cx="225.13" cy="1322.22" r="8.93"/>
          <circle class="cls-13" cx="239.06" cy="1307.69" r="8.93"/>
          <circle class="cls-13" cx="207.38" cy="1312.41" r="8.93"/>
          <circle class="cls-13" cx="212.95" cy="1294.34" r="8.93"/>
        </g>
        <g>
          <circle class="cls-13" cx="288.89" cy="1215.21" r="8.93"/>
          <circle class="cls-13" cx="282.6" cy="1247.81" r="8.93"/>
          <circle class="cls-13" cx="296.54" cy="1233.29" r="8.93"/>
          <circle class="cls-13" cx="264.85" cy="1238.01" r="8.93"/>
          <circle class="cls-13" cx="270.42" cy="1219.94" r="8.93"/>
        </g>
        <g>
          <circle class="cls-13" cx="232.25" cy="1143.4" r="8.93"/>
          <circle class="cls-13" cx="225.96" cy="1176.01" r="8.93"/>
          <circle class="cls-13" cx="239.89" cy="1161.49" r="8.93"/>
          <circle class="cls-13" cx="208.21" cy="1166.21" r="8.93"/>
          <circle class="cls-13" cx="213.78" cy="1148.14" r="8.93"/>
        </g>
        <g>
          <circle class="cls-13" cx="339.95" cy="1125.85" r="8.93"/>
          <circle class="cls-13" cx="333.66" cy="1158.46" r="8.93"/>
          <circle class="cls-13" cx="347.6" cy="1143.93" r="8.93"/>
          <circle class="cls-13" cx="315.91" cy="1148.65" r="8.93"/>
          <circle class="cls-13" cx="321.48" cy="1130.58" r="8.93"/>
        </g>
        <g>
          <circle class="cls-13" cx="561.74" cy="1275.04" r="8.93"/>
          <circle class="cls-13" cx="555.46" cy="1307.65" r="8.93"/>
          <circle class="cls-13" cx="569.39" cy="1293.13" r="8.93"/>
          <circle class="cls-13" cx="537.7" cy="1297.84" r="8.93"/>
          <circle class="cls-13" cx="543.28" cy="1279.77" r="8.93"/>
        </g>
        <g>
          <circle class="cls-13" cx="502.71" cy="1358.01" r="8.93"/>
          <circle class="cls-13" cx="496.42" cy="1390.62" r="8.93"/>
          <circle class="cls-13" cx="510.35" cy="1376.1" r="8.93"/>
          <circle class="cls-13" cx="478.67" cy="1380.82" r="8.93"/>
          <circle class="cls-13" cx="484.24" cy="1362.75" r="8.93"/>
        </g>
        <g>
          <circle class="cls-13" cx="387.02" cy="1377.96" r="8.93"/>
          <circle class="cls-13" cx="380.73" cy="1410.57" r="8.93"/>
          <circle class="cls-13" cx="394.67" cy="1396.04" r="8.93"/>
          <circle class="cls-13" cx="362.98" cy="1400.76" r="8.93"/>
          <circle class="cls-13" cx="368.55" cy="1382.69" r="8.93"/>
        </g>
        <g>
          <circle class="cls-13" cx="314.42" cy="1334.88" r="8.93"/>
          <circle class="cls-13" cx="308.13" cy="1367.48" r="8.93"/>
          <circle class="cls-13" cx="322.07" cy="1352.96" r="8.93"/>
          <circle class="cls-13" cx="290.38" cy="1357.68" r="8.93"/>
          <circle class="cls-13" cx="295.95" cy="1339.61" r="8.93"/>
        </g>
        <g>
          <circle class="cls-13" cx="406.17" cy="1247.92" r="8.93"/>
          <circle class="cls-13" cx="399.88" cy="1280.52" r="8.93"/>
          <circle class="cls-13" cx="413.82" cy="1266" r="8.93"/>
          <circle class="cls-13" cx="382.13" cy="1270.72" r="8.93"/>
          <circle class="cls-13" cx="387.7" cy="1252.65" r="8.93"/>
        </g>
        <g>
          <circle class="cls-13" cx="497.92" cy="1223.18" r="8.93"/>
          <circle class="cls-13" cx="491.63" cy="1255.79" r="8.93"/>
          <circle class="cls-13" cx="505.56" cy="1241.27" r="8.93"/>
          <circle class="cls-13" cx="473.88" cy="1245.99" r="8.93"/>
          <circle class="cls-13" cx="479.45" cy="1227.92" r="8.93"/>
        </g>
        <g>
          <circle class="cls-13" cx="451.65" cy="1144.2" r="8.93"/>
          <circle class="cls-13" cx="445.36" cy="1176.81" r="8.93"/>
          <circle class="cls-13" cx="459.29" cy="1162.28" r="8.93"/>
          <circle class="cls-13" cx="427.61" cy="1167" r="8.93"/>
          <circle class="cls-13" cx="433.18" cy="1148.93" r="8.93"/>
        </g>
        <g>
          <circle class="cls-13" cx="558.4" cy="1112.44" r="8.93"/>
          <circle class="cls-13" cx="552.11" cy="1145.05" r="8.93"/>
          <circle class="cls-13" cx="566.05" cy="1130.52" r="8.93"/>
          <circle class="cls-13" cx="534.36" cy="1135.24" r="8.93"/>
          <circle class="cls-13" cx="539.93" cy="1117.17" r="8.93"/>
        </g>
        <g>
          <circle class="cls-13" cx="561.59" cy="1025.48" r="8.93"/>
          <circle class="cls-13" cx="555.3" cy="1058.09" r="8.93"/>
          <circle class="cls-13" cx="569.24" cy="1043.56" r="8.93"/>
          <circle class="cls-13" cx="537.55" cy="1048.28" r="8.93"/>
          <circle class="cls-13" cx="543.12" cy="1030.21" r="8.93"/>
        </g>
        <g>
          <circle class="cls-13" cx="465.85" cy="1023.09" r="8.93"/>
          <circle class="cls-13" cx="459.57" cy="1055.69" r="8.93"/>
          <circle class="cls-13" cx="473.5" cy="1041.17" r="8.93"/>
          <circle class="cls-13" cx="441.82" cy="1045.89" r="8.93"/>
          <circle class="cls-13" cx="447.39" cy="1027.82" r="8.93"/>
        </g>
        <g>
          <circle class="cls-13" cx="407.61" cy="1076.54" r="8.93"/>
          <circle class="cls-13" cx="401.33" cy="1109.15" r="8.93"/>
          <circle class="cls-13" cx="415.26" cy="1094.62" r="8.93"/>
          <circle class="cls-13" cx="383.58" cy="1099.34" r="8.93"/>
          <circle class="cls-13" cx="389.15" cy="1081.27" r="8.93"/>
        </g>
        <g>
          <circle class="cls-13" cx="338.2" cy="1024.68" r="8.93"/>
          <circle class="cls-13" cx="331.92" cy="1057.29" r="8.93"/>
          <circle class="cls-13" cx="345.85" cy="1042.76" r="8.93"/>
          <circle class="cls-13" cx="314.17" cy="1047.48" r="8.93"/>
          <circle class="cls-13" cx="319.74" cy="1029.41" r="8.93"/>
        </g>
        <g>
          <circle class="cls-13" cx="262.84" cy="1064.42" r="8.93"/>
          <circle class="cls-13" cx="256.55" cy="1097.03" r="8.93"/>
          <circle class="cls-13" cx="270.49" cy="1082.51" r="8.93"/>
          <circle class="cls-13" cx="238.8" cy="1087.22" r="8.93"/>
          <circle class="cls-13" cx="244.37" cy="1069.15" r="8.93"/>
        </g>
        <g>
          <circle class="cls-13" cx="228.52" cy="987.13" r="8.93"/>
          <circle class="cls-13" cx="222.23" cy="1019.73" r="8.93"/>
          <circle class="cls-13" cx="236.16" cy="1005.21" r="8.93"/>
          <circle class="cls-13" cx="204.48" cy="1009.93" r="8.93"/>
          <circle class="cls-13" cx="210.05" cy="991.86" r="8.93"/>
        </g>
        <path class="cls-27" d="M277.96,1576.43s3.34-19.92,9.42-28.6c0,0-11.28-83.33-2.6-123.26,0,0,53.82,12.15,91.14,10.42,0,0-13.02,81.59-18.23,122.39,0,0-2.6,22.57,13.02,25.17l25.8,8.99s13.62,46.55-53.28,25.53c-66.89-21.02-65.27-40.64-65.27-40.64Z"/>
        <path class="cls-12" d="M396.51,1591.54s70.49,.31,86.32,42.27"/>
        <path class="cls-29" d="M358.18,259.71s-7.69-56.81,22.74-88.89c18.58-19.59,60-20.75,100.9-20.97,0,0,86.66,7.26,58.81,114.82,0,0-5.32,10.59-3.05,19.73,0,0,5.1,17.52-7.39,51.92-16.65,45.85-40.15,46.13-40.15,46.13,0,0-3.18,13.13-29.92,11.51,0,0-23.85,2.98-46.67-13.63,0,0-60.28-34.58-54.71-68.81,0,0-25.95,13.05-34.8-28.56,0,0-9.24-71.91,34.24-23.26Z"/>
        <path class="cls-22" d="M466.04,239.35s-30.03-9.45-47.3,3.49c0,0,4.14-21.88,48.03-12.62,0,0,7.82,5.64-.73,9.14Z"/>
        <path class="cls-5" d="M495.73,289.66s15.35,27.24-15.22,27.89"/>
        <path class="cls-5" d="M327.99,267.13s11.02-23.46,26.52,16.91c0,0-14.41-18.42-18.38-3.92"/>
        <path class="cls-9" d="M408.5,250.77l10.03,30.97s17.37,10.9,41.94,6.41l14.86-28.17s-31.72-18.08-66.82-9.21Z"/>
        <path class="cls-34" d="M470.05,393.81s-2.99,.46-10.85-.13c0,0-37.25,3.46-72.02-32.06,0,0,9.68,13.08,31.17,26.33,0,0,25.93,14.69,53.31,9.72,0,0,.6,.41-1.61-3.86Z"/>
        <path class="cls-14" d="M408.92,171.47s58.83,27.88,94.29,1.15c0,0,11.93,21.15,42.38,48.06,0,0,4.46,16.19-10.36,52.71,0,0,9.67,30.03-9.53,67.88,0,0-15.72,33.65-35.67,41.2,0,0-2.98,4.18-6.1,6.8,0,0,8.36,11.97,17.91,11.51,0,0-6.21-12.35-.89-14.97,0,0,63.8-15.08,58.37-144.65,0,0,45.98-57.7-5.54-97.42-23.28-17.95-43.72-68.46-104.96-42.01,0,0-79.45-41.27-105.91,37.26,0,0-89.33,21.61-39.44,133.6,0,0-16.21,36.36,17.59,65.98,3.9,3.42,11.59,18.68,4.09,40.44-2.02,5.87,14.64-5.21,20.2-16.51,0,0,10.1-20.33,13.38-50.95,0,0-28.29,8.04-32.5-23.43,0,0-9-34.68,3.32-40.08,0,0,13.8-5.47,27.6,11.62,0,0,54.13-5.63,51.76-88.17Z"/>
        <path class="cls-22" d="M541.65,245c-.33-2.18-19.34-7.4-37.76-8.14,0,0-9.1,3.6-1.55,9.17,0,0,34.42-3.2,36.86,8.29,0,0,3.27-3.93,2.45-9.32Z"/>
        <path class="cls-9" d="M486.27,259.26l10.03,30.97s15.36,8.24,39.94,3.75l12.35-31.37s-27.21-12.23-62.31-3.36Z"/>
        <path class="cls-9" d="M486.27,259.26s-6.13-6.67-10.94,.72"/>
        <line class="cls-9" x1="408.5" y1="250.77" x2="339.8" y2="245.02"/>
        <path class="cls-10" d="M427.46,207.74s26.85,3.61,39.53,6.82c12.68,3.2,49.83-5.66,49.83-5.66"/>
        <g>
          <path class="cls-23" d="M424.3,260.14s.02-.74,.59-1.34c1.9-1.97,6.24-5.64,12.84-5.38,7.39,.28,11.19,7.38,12.49,9.91,.22,.44,.19,.81,.19,.81,0,0,0,.41-.25,.69-1.23,1.32-5.31,4.99-12.31,4.83-4.17-.1-9.93-2.56-13.33-8.35-.24-.4-.24-.9-.22-1.17Z"/>
          <circle class="cls-34" cx="439.49" cy="262.03" r="7.64"/>
          <circle class="cls-23" cx="434.72" cy="260.29" r="2.1"/>
          <path class="cls-5" d="M450.67,263.35s-8.32-17.98-26.06-4.62"/>
        </g>
        <g>
          <path class="cls-23" d="M507.17,270.14s-.09-.69,.36-1.33c1.48-2.11,5-6.13,11.17-6.84,6.91-.79,11.46,5.26,13.03,7.43,.27,.37,.29,.73,.29,.73,0,0,.07,.38-.13,.68-.96,1.41-4.22,5.4-10.75,6.26-3.89,.51-9.6-.96-13.59-5.86-.28-.34-.35-.81-.37-1.06Z"/>
          <circle class="cls-34" cx="521.56" cy="269.71" r="7.17"/>
          <circle class="cls-23" cx="516.67" cy="268.92" r="2.01"/>
          <path class="cls-5" d="M531.87,269.62s-9.89-16.57-24.52-.5"/>
        </g>
        <path class="cls-32" d="M475.01,230.66s6.38,8.54,.26,13.52c0,0,10.41-4.93-.26-13.52Z"/>
        <path class="cls-29" d="M753.69,655.7l9.28-8.48s.81-35.12,35.92-42.38c0,0,12.51-1.61,18.16-12.51,5.65-10.9,21.39-14.93,24.62-12.11,3.23,2.83,7.27,14.93-2.02,20.59s-25.83,20.59-25.83,20.59l98.08,8.07s16.15,3.23,14.53,11.3c-1.61,8.07-19.78,3.23-19.78,3.23l-35.52,14.13s-26.24,28.66-65.39,22.6l-15.74,10.9-36.33-35.92Z"/>
        <path class="cls-11" d="M811.16,633.68s15.06,5.69,16.4,18.41"/>
        <path class="cls-11" d="M838.46,654.99s36.09-27.74,48.12-8.69"/>
        <line class="cls-11" x1="830.44" y1="639.28" x2="854.17" y2="640.95"/>
        <path class="cls-29" d="M605.99,601.83s25.58,90.64,36.53,107.07l111.17-53.2,36.33,35.92s-47.09,98.51-121.94,135.03c-74.85,36.51-94.02-1.83-94.02-1.83,0,0-31.47-23.68-6.31-100.1,25.16-76.43,38.24-122.89,38.24-122.89Z"/>
        <path class="cls-25" d="M435.52,337.71s18.59-12.58,36.29-7.54c0,0,16.47-1.19,24.71,14.14,0,0-10.02,12.72-26.75,8.89-16.74-3.82-25.55-6.75-34.25-15.49Z"/>
        <path class="cls-24" d="M438.83,337.8s25.63-6.25,33.64-3.69c0,0,12.15,.26,22.11,10.24,0,0-16.23-1-24.37,2.52,0,0-16.95-6.89-31.38-9.07Z"/>
        <path class="cls-23" d="M454.09,335.09s21.31-4.8,33.33,4.03c0,0-17.17-2.49-33.33-4.03Z"/>
        <path class="cls-20" d="M332.51,389.01s16.53,88.43,88.77,87.21c51.23-.87,56.7-19.16,58.68-67.56,0,0,62.63,15.82,89.39,44.37,26.76,28.54,67.79,158.77,58.87,240.83,0,0-5.35,44.6-62.44,80.28,0,0,12.72,128.49,10.82,173.96,0,0-21.53,38.33-117.86,38.33l-21.41-142.72,1.78,140.93s-90.71,15.74-171.26-23.19c0,0-69.58-25.28-80.29-35.38-3.09-2.91,13.19-141.55,7.52-160,0,0-16.11-6.44-44.03-44.03,0,0-12.57-322.12,181.45-333.03Z"/>
        <path class="cls-8" d="M332.54,728.48s5.37-81.61-25.77-195.44"/>
        <path class="cls-8" d="M565.78,774.13s.2-145.82-22.22-184.53"/>
        <circle class="cls-15" cx="415.58" cy="531.01" r="13.17"/>
        <circle class="cls-15" cx="425.62" cy="633.79" r="13.17"/>
        <circle class="cls-15" cx="429.1" cy="746.26" r="13.17"/>
        <path class="cls-2" d="M345.86,301.39s-9.26,14.05,.58,22.66c9.84,8.61,4.71-12.37,4.71-12.37"/>
      </g>
      <g>
        <path class="cls-30" d="M822.48,717.62l2.76,51.39-18.52,255.58c20.41,20.41,21.78,57.84,21.78,57.84-2.72,21.09-2.04,50.36-2.04,50.36,0,0,6.8,33.34-9.53,36.75-16.33,3.4-18.37-29.26-17.69-49.68,.68-20.41-11.57-10.21-11.57-10.21-16.33,32.66,10.89,61.24,10.89,61.24,23.14,22.46,6.8,32.66,6.8,32.66-53.76-23.82-68.05-78.26-68.05-78.26-18.37-24.5-2.72-67.37-2.72-67.37,10.89-19.73,4.63-55.82,4.63-55.82l-6.13-175.36c9.96-99.57,23.9-254.9,23.9-254.9,0,0-1.2-96.17,40.76-124.98,41.96-28.81,64.22-24.31,64.22-24.31,0,0,44.59,118.07-57.67,181.18l18.19,113.89Z"/>
        <path class="cls-30" d="M1068.97,729.54s-42.02-12.23-60.11-39.1l15.41-89.17,44.69,128.27Z"/>
        <path class="cls-30" d="M1009.78,312.93s-18.25,93.75,34.79,108.27c0,0,.04,94.07-126.8,98.04,0,0-36.13-16.6-60.08-101.19,0,0,38.03-12.83,38.52-34.92,.52-23.38-6.86,.73-6.86,.73l120.43-70.93"/>
        <path class="cls-33" d="M1126.19,840.44s100.42,184.99,21.31,337.55l-33.76,110.95s-20.03,57.74-12.46,136.65c4.81,50.19-4.89,118.48-17.61,184.87,0,0-43.91,43.4-103.72,15.06,0,0-49.96,15.08-106.46-11.76l-89.14-221.19s-17.61-31.98-17.61-71.53c0,0-30.73-340.67,20.09-467.2,0,0,133.2,90.26,339.35-13.4Z"/>
        <path class="cls-21" d="M1126.19,840.44s-2.36-60.08-13.76-106.2c0,0-23.49-109.65-27.7-112.49-50.77-34.17-27.25-195.97-27.25-195.97l-25.75-9.93s-9.43,91.66-84.67,91.66c-41.01,0-72.54-7.9-72.17-98.22l-30.99,15.55s-19.27,94.01-33.99,160.56c0,0-28.2,66.09-5.37,119.74,0,0,1.87,57.94-17.69,148.7,0,0,142.64,104.17,339.35-13.4Z"/>
        <path class="cls-30" d="M1093.79,676.6l10.95,89.78,8.06,261.41c-20.41,20.41-21.78,57.84-21.78,57.84,2.72,21.09,2.04,50.36,2.04,50.36,0,0-6.8,33.34,9.53,36.75,16.33,3.4,18.37-29.26,17.69-49.68-.68-20.41,11.57-10.21,11.57-10.21,16.33,32.66-10.89,61.24-10.89,61.24-23.14,22.46-6.8,32.66-6.8,32.66,53.76-23.82,68.05-78.26,68.05-78.26,18.37-24.5,2.72-67.37,2.72-67.37-10.89-19.73-4.63-55.82-4.63-55.82l28.18-185.03c25.73-82.1-25.49-253.89-25.49-253.89,0,0-18.92-81.39-60.88-110.21-41.96-28.81-64.56-30.43-64.56-30.43,0,0-24.66,166.88,29.92,207.81l6.3,43.03Z"/>
        <path class="cls-30" d="M1012.64,277.72s-8.83-128.57-110.2-123.51c0,0-75.28,1.15-69.18,107.39,0,0,4.35,17,1.6,26.09,0,0-4.78,27.88,4.37,50.8,13.75,34.41,31.43,52.02,31.43,52.02,0,0,14.99,13.71,41.29,13.69,0,0,18.47-.76,41.79-16.14,0,0,59.11-27.78,55.64-62.68,0,0,22.74,12.96,33.82-28.52,0,0,14.62-35.94,.8-41.6-17.43-7.14-23.64,4.24-31.37,22.45Z"/>
        <path class="cls-34" d="M916.29,238.81s37.41-3.92,51.28,10.87c0,0-8.34-20.84-50.47-19.44,0,0-8.16,3.94-.81,8.57Z"/>
        <path class="cls-34" d="M830.26,244.12c.13-2.04,17.26-8.36,34.2-10.49,0,0,8.68,2.6,2.15,8.34,0,0-32.01-.23-33.36,10.56,0,0-3.32-3.37-2.99-8.41Z"/>
        <path class="cls-9" d="M888.85,318.99c-25.09-2.86-8.91-26.29-8.91-26.29"/>
        <path class="cls-9" d="M1042.83,283.27s-9.72-24.35-27.8,15.48c0,0,15.66-17.73,18.8-2.85"/>
        <path class="cls-34" d="M886.89,399.72s18.14,9.67,46.16-.78c0,0,24.51-8.73,44.37-25.35,0,0-26.01,28-60.56,32.94,0,0-17.5,2.29-32.31-3.49,0,0,1.07-1.82,2.33-3.32Z"/>
        <path class="cls-34" d="M844.93,351.46c-14.66-26.26-10.79-60.04-10.79-60.04,0,0,1.73-6.44,2.31-19.41,.58-12.91-2.2-15.87-1.21-27.38,0,0,40.14-10.07,73.69-45.6,0,0,39.39-16.65,9.72-12.73,0,0,11.31-15.93,54.57-3.53,0,0,7.94,63.11,39.42,94.95,0,0,14.68-29.82,31.37-22.45,16.69,7.37-7.68,53.36-7.68,53.36,0,0-7.04,27.18-26.04,15.69,0,0-9.01,26.61-2,55.65,0,0,5.11-2.81,12.22-11.69,0,0-4.64,13.86-13.83,23.41,0,0,39.19-10.14,42.19-48.64,0,0-.25-13.12,10.02-15.2,10.28-2.07,23.59-39.28,21.09-71.11-2.49-31.84-28.62-139.62-99.72-140.64,0,0-38.46-16.13-86.58,14.32-48.12,30.45-43,37.44-83.09,100.08,0,0-18.74,6.08,11.95,31.11,0,0-7.67,32.64-2.44,22.91,0,0-5.97,33.78,8.93,47.22,0,0-2.48-10.02-2.51-26.28,0,0-3.2,36.32,25.98,59.81"/>
        <path class="cls-4" d="M969.74,249.28s-34.59-11.03-66.01,1.41c0,0-3.56,46.06,31.32,46.87,0,0,45.23-1.75,34.69-48.28Z"/>
        <path class="cls-4" d="M881.62,250.62s-30.2-10.75-56.6,4.39c0,0-7.35,41.82,27.53,42.62,0,0,39.62-.48,29.08-47.01Z"/>
        <path class="cls-4" d="M881.62,250.62s12.68-6.23,22.11,.07"/>
        <line class="cls-4" x1="965.26" y1="248.75" x2="1018.25" y2="263.98"/>
        <line class="cls-17" x1="1017.51" y1="319.19" x2="1018.03" y2="345.94"/>
        <polygon class="cls-6" points="1021.66 349.53 1018.31 343.67 1015.7 349.89 1009.09 351.27 1014.2 355.68 1013.47 362.39 1019.24 358.89 1025.4 361.66 1023.85 355.09 1028.39 350.08 1021.66 349.53"/>
        <path class="cls-34" d="M980.27,116.1s-46.31-34.09-87.38-3.65c0,0-9.87,18.82-35.72,14.61-13.67-2.23-16.61,19.19-16.61,19.19,0,0,4.7,17.56-11.63,16.58,0,0-26.25,7.96-21.25,38.69,5,30.72-13.29,40.64-13.29,40.64,0,0-15.41,11.02-8.05,27.81,0,0,7.76,11.17,3.49,17.54-4.28,6.37-12.49,4.65-12.49,4.65,0,0,11.48,7.95,20.64-6.06,9.16-14.02,12.06-26.65,12.06-26.65,0,0-5.29,18.97-1.31,29.59,0,0,.73,5.02-7.92,13.36-8.64,8.34-4.06,17.69-4.06,17.69,0,0,2.28-12,7.92-13.36,5.63-1.37,9.37-3.33,9.37-3.33,0,0,8.2,18.18,15,28.35,2.82,4.22,2.05,13.83-10.46,17.22-12.51,3.39-1.45,27.9-1.45,27.9,0,0-.78-22.41,9.96-20.1,10.74,2.31,10.46-8.53,10.46-8.53,0,0-8.59-21.22-6.59-47.68l-4.86-55.89s21.96-2.94,35.02-10.74c0,0,35.57-18.91,47.8-34.88,0,0-18.14,18.31-19.18,25.18-2.33,15.42-18.74,19.48-18.74,19.48,0,0,23.59,1.79,25.67-10.24,3.71-21.44,22.47-20.68,22.47-20.68,0,0,20.9,3.89,32.52-13.32,11.62-17.21,21.56-16.68,21.56-16.68,0,0,32.37-27.93,7.05-66.67Z"/>
        <path class="cls-34" d="M818.57,288s4.75,8.29-1.32,18.49c-6.08,10.21-14,10.13-14.22,19.49-.22,9.35,12.05,27.18,12.05,27.18,0,0-8.49-16-3.13-26.28,5.36-10.28,18.13-8.94,18.13-8.94"/>
        <path class="cls-32" d="M909.27,228.67s-5.87,7.97,.73,13.28c0,0-12.67-6.18-.73-13.28Z"/>
        <g>
          <path class="cls-31" d="M866.26,350.18s12.84-17.15,30.45-11.26c0,0,13.76-8.57,39.44,9.83,0,0-13.29,16.75-38.44,15.17-25.15-1.58-31.46-13.74-31.46-13.74Z"/>
          <path class="cls-24" d="M869.9,351.21s9.23-9.27,27.49-9.03c18.26,.23,35.38,7.47,35.38,7.47,0,0-26.82,2.83-34.28,7.11,0,0-13.37-4.63-28.59-5.55Z"/>
          <path class="cls-23" d="M877.4,346.42s13.01-9.72,44.13-.47c0,0-26.6-2.61-44.13,.47Z"/>
        </g>
        <path class="cls-3" d="M843.66,327.85c-6.31-16.24-.42-51.06-.42-51.06"/>
        <path class="cls-3" d="M848.97,278s-.67,2.14-.21,8.65"/>
        <path class="cls-3" d="M847.58,290.22s-.28,2.55-.17,4.85"/>
        <path class="cls-3" d="M950.73,274.81s9.34,14.44,7.64,51.9"/>
        <path class="cls-3" d="M946.62,279.18s1.63,4.35,1.61,7.03"/>
        <path class="cls-3" d="M952.21,298.38s1.12,3.2,.59,5.62"/>
        <g>
          <path class="cls-23" d="M951.24,267.68s.03-.77-.51-1.43c-1.81-2.19-6-6.3-12.83-6.56-7.65-.29-12.13,6.74-13.66,9.25-.26,.43-.25,.82-.25,.82,0,0-.04,.42,.2,.73,1.17,1.46,5.09,5.57,12.33,5.95,4.31,.23,10.45-1.87,14.41-7.57,.28-.4,.31-.92,.31-1.19Z"/>
          <circle class="cls-34" cx="935.42" cy="268.44" r="7.91"/>
          <circle class="cls-23" cx="940.47" cy="267.02" r="2.17"/>
          <path class="cls-5" d="M923.77,268.94s9.98-17.91,27.26-2.74"/>
        </g>
        <g>
          <path class="cls-23" d="M864.33,269.69s.14-.71-.27-1.4c-1.37-2.29-4.68-6.72-10.99-7.93-7.07-1.36-12.24,4.53-14.02,6.65-.31,.36-.35,.73-.35,.73,0,0-.1,.39,.08,.71,.88,1.53,3.94,5.91,10.61,7.29,3.97,.83,9.98-.24,14.48-4.98,.31-.33,.42-.81,.46-1.07Z"/>
          <circle class="cls-34" cx="849.51" cy="268.12" r="7.42"/>
          <circle class="cls-23" cx="854.62" cy="267.69" r="2.08"/>
          <path class="cls-5" d="M838.88,267.23s11.5-16.33,25.35,1.4"/>
        </g>
        <path class="cls-21" d="M1057.57,425.76s112.08-1.04,139.12,192.84c0,0-52.53,50.98-108.14,44.8,0,0-75.09-79.02-30.98-237.64Z"/>
        <path class="cls-21" d="M843.89,424.84s-95.98,3.73-91.35,169.03c0,0,38.62,23.17,58.7,22.4"/>
        <line class="cls-16" x1="1088.55" y1="663.39" x2="1079.28" y2="596.96"/>
      </g>
    </g>
    <g>
      <path class="cls-29" d="M528.28,798.58s5.04-46.21,42.85-49.57c0,0,25.71-4.67,36.54-11.53,12.11-7.68,24.51-4.43,24.51-4.43,0,0,9.9,7.63,1.77,13.88-8.12,6.25-39.31,18.33-39.31,18.33l111.23,11.25s14.35,.85,14.62,9.41c.3,9.45-8.99,10.59-8.99,10.59,0,0-1.87,13.75-18.12,12.5,0,0-9.37,16.87-23.75,15.62,0,0-3.12,7.5-20.62,8.75-17.5,1.25-82.48,6.25-82.48,6.25,0,0-26.73-.03-32.34-.03"/>
      <path class="cls-7" d="M643.28,795.28l68.23,1.23s18.6-7.91,2.49-18.03l-119.35-13.21,39.31-18.33s9.38-12.37-1.77-13.88-24.51,4.43-24.51,4.43"/>
      <line class="cls-18" x1="644.36" y1="809.16" x2="693.38" y2="809"/>
      <line class="cls-18" x1="669.64" y1="824.63" x2="631.75" y2="824.86"/>
      <path class="cls-29" d="M174.96,736.08c21.67,70.91,86.7,113.77,86.7,113.77,131.48,50.23,272.53-10.26,272.53-10.26l-1.57-54.71-186.87-16.64-20.52-41.03"/>
    </g>
  </g>
</svg>