<svg xmlns="http://www.w3.org/2000/svg" xmlns:xlink="http://www.w3.org/1999/xlink" width="1200" zoomAndPan="magnify" viewBox="0 0 900 675.000002" height="900" preserveAspectRatio="xMidYMid meet" version="1.0"><defs><clipPath id="d50d4a0202"><path d="M 0.664062 0 L 899.332031 0 L 899.332031 674 L 0.664062 674 Z M 0.664062 0 " clip-rule="nonzero"/></clipPath><clipPath id="432b9b5fb9"><path d="M 0.664062 0 L 897.835938 0 L 897.835938 673 L 0.664062 673 Z M 0.664062 0 " clip-rule="nonzero"/></clipPath><clipPath id="430eba2e63"><path d="M 124 575 L 363 575 L 363 672.636719 L 124 672.636719 Z M 124 575 " clip-rule="nonzero"/></clipPath><clipPath id="43f5ebf707"><path d="M 108 293 L 406 293 L 406 672.636719 L 108 672.636719 Z M 108 293 " clip-rule="nonzero"/></clipPath><clipPath id="70972048e4"><path d="M 520 598 L 804 598 L 804 672.636719 L 520 672.636719 Z M 520 598 " clip-rule="nonzero"/></clipPath></defs><g clip-path="url(#d50d4a0202)"><path fill="#ffffff" d="M 0.664062 0 L 899.335938 0 L 899.335938 674 L 0.664062 674 Z M 0.664062 0 " fill-opacity="1" fill-rule="nonzero"/><path fill="#ffffff" d="M 0.664062 0 L 899.335938 0 L 899.335938 674 L 0.664062 674 Z M 0.664062 0 " fill-opacity="1" fill-rule="nonzero"/></g><g clip-path="url(#432b9b5fb9)"><path fill="#a7d8ba" d="M 0.664062 0.328125 L 897.835938 0.328125 L 897.835938 672.625 L 0.664062 672.625 Z M 0.664062 0.328125 " fill-opacity="1" fill-rule="nonzero"/></g><g clip-path="url(#430eba2e63)"><path fill="#0f3e5d" d="M 124.414062 575.179688 L 362.625 575.179688 L 362.625 672.722656 L 124.414062 672.722656 Z M 124.414062 575.179688 " fill-opacity="1" fill-rule="nonzero"/></g><path fill="#be9e7d" d="M 227.613281 243.265625 C 227.613281 243.265625 219.117188 284.496094 207.84375 298.261719 C 207.84375 298.261719 222.554688 373.316406 287.089844 388.792969 C 287.089844 388.792969 328.605469 355.957031 310.867188 309.917969 C 310.867188 309.917969 301.753906 302.554688 300.804688 292.734375 C 300.804688 292.734375 247.496094 275.898438 227.613281 243.273438 Z M 227.613281 243.265625 " fill-opacity="1" fill-rule="nonzero"/><path fill="#be9e7d" d="M 227.234375 208.414062 C 227.234375 208.414062 222.0625 170.203125 242.53125 148.625 C 255.027344 135.449219 282.886719 134.671875 310.398438 134.523438 C 310.398438 134.523438 368.6875 139.40625 349.953125 211.75 C 349.953125 211.75 346.375 218.871094 347.902344 225.019531 C 347.902344 225.019531 351.332031 236.800781 342.929688 259.9375 C 331.730469 290.777344 315.925781 290.964844 315.925781 290.964844 C 315.925781 290.964844 313.785156 299.796875 295.800781 298.707031 C 295.800781 298.707031 279.757812 300.710938 264.410156 289.539062 C 264.410156 289.539062 223.867188 266.28125 227.613281 243.257812 C 227.613281 243.257812 210.15625 252.035156 204.203125 224.050781 C 204.203125 224.050781 197.988281 175.683594 227.234375 208.40625 Z M 227.234375 208.414062 " fill-opacity="1" fill-rule="nonzero"/><path fill="#e6e7e8" d="M 299.78125 194.710938 C 299.78125 194.710938 279.585938 188.355469 267.96875 197.058594 C 267.96875 197.058594 270.753906 182.34375 300.273438 188.570312 C 300.273438 188.570312 305.535156 192.363281 299.78125 194.71875 Z M 299.78125 194.710938 " fill-opacity="1" fill-rule="nonzero"/><path stroke-linecap="butt" transform="matrix(0.672612, 0, 0, 0.672585, 0.665679, 0.327825)" fill="none" stroke-linejoin="miter" d="M 474.401295 339.327882 C 474.401295 339.327882 489.750726 366.572345 459.17963 367.22282 " stroke="#231f20" stroke-width="1" stroke-opacity="1" stroke-miterlimit="10"/><path stroke-linecap="butt" transform="matrix(0.672612, 0, 0, 0.672585, 0.665679, 0.327825)" fill="none" stroke-linejoin="miter" d="M 306.660993 316.78775 C 306.660993 316.78775 317.67797 293.329982 333.178398 333.700109 C 333.178398 333.700109 318.769795 315.277717 314.797411 329.779833 " stroke="#231f20" stroke-width="1" stroke-opacity="1" stroke-miterlimit="10"/><path stroke-linecap="butt" transform="matrix(0.672612, 0, 0, 0.672585, 0.665679, 0.327825)" fill="none" stroke-linejoin="miter" d="M 387.177267 300.438749 L 397.212763 331.411829 C 397.212763 331.411829 414.577424 342.307291 439.149291 337.81785 L 454.010885 309.649944 C 454.010885 309.649944 422.289889 291.570214 387.188882 300.438749 Z M 387.177267 300.438749 " stroke="#231f20" stroke-width="1.2" stroke-opacity="1" stroke-miterlimit="10"/><path fill="#26130f" d="M 302.480469 298.605469 C 302.480469 298.605469 300.46875 298.914062 295.183594 298.519531 C 295.183594 298.519531 270.128906 300.84375 246.742188 276.957031 C 246.742188 276.957031 253.25 285.753906 267.707031 294.664062 C 267.707031 294.664062 285.148438 304.542969 303.5625 301.203125 C 303.5625 301.203125 303.96875 301.476562 302.480469 298.605469 Z M 302.480469 298.605469 " fill-opacity="1" fill-rule="nonzero"/><path stroke-linecap="butt" transform="matrix(0.672612, 0, 0, 0.672585, 0.665679, 0.327825)" fill-opacity="1" fill="#e6e7e8" fill-rule="nonzero" stroke-linejoin="miter" d="M 387.589605 221.127218 C 387.589605 221.127218 446.42038 249.010541 481.881456 222.277166 C 481.881456 222.277166 493.810223 243.42923 524.25936 270.342648 C 524.25936 270.342648 528.71958 286.52903 513.898639 323.048575 C 513.898639 323.048575 523.568258 353.080789 504.368402 390.930324 C 504.368402 390.930324 488.647286 424.580808 468.698252 432.130968 C 468.698252 432.130968 465.718964 436.312595 462.600294 438.93192 C 462.600294 438.93192 470.9574 450.901828 480.510868 450.437203 C 480.510868 450.437203 474.302566 438.089787 479.622308 435.470462 C 479.622308 435.470462 543.418562 420.387565 537.988476 290.821006 C 537.988476 290.821006 583.967078 233.120358 532.448046 193.400706 C 509.17127 175.448748 488.728592 124.938176 427.487672 151.392776 C 427.487672 151.392776 348.039993 110.122438 321.580663 188.649913 C 321.580663 188.649913 232.248485 210.260795 282.141395 322.247096 C 282.141395 322.247096 265.932442 358.60983 299.732552 388.22969 C 303.629437 391.650493 311.318671 406.907625 303.821087 428.66951 C 301.80005 434.541211 318.461993 423.459899 324.019846 412.15789 C 324.019846 412.15789 334.119226 391.830535 337.400508 361.211731 C 337.400508 361.211731 309.111791 369.249748 304.901297 337.777195 C 304.901297 337.777195 295.899549 303.098728 308.217424 297.69746 C 308.217424 297.69746 322.022039 292.232305 335.820847 309.318899 C 335.820847 309.318899 389.947482 303.691125 387.57799 221.15045 Z M 387.589605 221.127218 " stroke="#58595b" stroke-width="0.2" stroke-opacity="1" stroke-miterlimit="10"/><path fill="#e6e7e8" d="M 350.640625 198.511719 C 350.417969 197.046875 337.632812 193.535156 325.242188 193.035156 C 325.242188 193.035156 319.121094 195.457031 324.199219 199.203125 C 324.199219 199.203125 347.351562 197.050781 348.992188 204.78125 C 348.992188 204.78125 351.191406 202.136719 350.640625 198.511719 Z M 350.640625 198.511719 " fill-opacity="1" fill-rule="nonzero"/><path stroke-linecap="butt" transform="matrix(0.672612, 0, 0, 0.672585, 0.665679, 0.327825)" fill="none" stroke-linejoin="miter" d="M 464.940749 308.918159 L 474.970437 339.89124 C 474.970437 339.89124 490.331484 348.13253 514.909158 343.637281 L 527.261878 312.269269 C 527.261878 312.269269 500.047563 300.038009 464.952364 308.912352 Z M 464.940749 308.918159 " stroke="#231f20" stroke-width="1.2" stroke-opacity="1" stroke-miterlimit="10"/><path stroke-linecap="butt" transform="matrix(0.672612, 0, 0, 0.672585, 0.665679, 0.327825)" fill="none" stroke-linejoin="miter" d="M 464.940749 308.918159 C 464.940749 308.918159 458.807945 302.250787 453.99927 309.638328 " stroke="#231f20" stroke-width="1.2" stroke-opacity="1" stroke-miterlimit="10"/><path stroke-linecap="butt" transform="matrix(0.672612, 0, 0, 0.672585, 0.665679, 0.327825)" fill="none" stroke-linejoin="miter" d="M 387.177267 300.438749 L 318.467801 294.689011 " stroke="#231f20" stroke-width="1.2" stroke-opacity="1" stroke-miterlimit="10"/><path stroke-linecap="butt" transform="matrix(0.672612, 0, 0, 0.672585, 0.665679, 0.327825)" fill="none" stroke-linejoin="miter" d="M 406.127397 257.408642 C 406.127397 257.408642 432.981642 261.021104 445.659587 264.232826 C 458.337531 267.427124 495.488614 258.570206 495.488614 258.570206 " stroke="#231f20" stroke-width="0.5" stroke-opacity="1" stroke-miterlimit="10"/><path fill="#ffffff" d="M 271.707031 208.695312 C 271.707031 208.695312 271.722656 208.195312 272.105469 207.792969 C 273.382812 206.46875 276.300781 204 280.742188 204.175781 C 285.710938 204.363281 288.269531 209.136719 289.140625 210.839844 C 289.289062 211.136719 289.269531 211.386719 289.269531 211.386719 C 289.269531 211.386719 289.269531 211.660156 289.101562 211.847656 C 288.273438 212.738281 285.53125 215.207031 280.820312 215.097656 C 278.015625 215.03125 274.144531 213.375 271.855469 209.480469 C 271.695312 209.210938 271.695312 208.875 271.707031 208.695312 Z M 271.707031 208.695312 " fill-opacity="1" fill-rule="nonzero"/><path fill="#26130f" d="M 287.0625 209.964844 C 287.0625 210.304688 287.03125 210.636719 286.964844 210.96875 C 286.898438 211.300781 286.800781 211.621094 286.671875 211.933594 C 286.542969 212.242188 286.386719 212.539062 286.199219 212.820312 C 286.011719 213.101562 285.796875 213.359375 285.558594 213.597656 C 285.320312 213.839844 285.0625 214.050781 284.78125 214.238281 C 284.5 214.425781 284.203125 214.585938 283.890625 214.714844 C 283.578125 214.84375 283.257812 214.941406 282.929688 215.003906 C 282.597656 215.070312 282.261719 215.105469 281.925781 215.105469 C 281.585938 215.105469 281.253906 215.070312 280.921875 215.003906 C 280.59375 214.941406 280.269531 214.84375 279.957031 214.714844 C 279.648438 214.585938 279.351562 214.425781 279.070312 214.238281 C 278.789062 214.050781 278.53125 213.839844 278.292969 213.597656 C 278.054688 213.359375 277.839844 213.101562 277.652344 212.820312 C 277.464844 212.539062 277.308594 212.242188 277.175781 211.933594 C 277.046875 211.621094 276.949219 211.300781 276.886719 210.96875 C 276.820312 210.636719 276.785156 210.304688 276.785156 209.964844 C 276.785156 209.628906 276.820312 209.292969 276.886719 208.964844 C 276.949219 208.632812 277.046875 208.3125 277.175781 208 C 277.308594 207.6875 277.464844 207.390625 277.652344 207.109375 C 277.839844 206.832031 278.054688 206.570312 278.292969 206.332031 C 278.53125 206.09375 278.789062 205.878906 279.070312 205.691406 C 279.351562 205.507812 279.648438 205.347656 279.957031 205.21875 C 280.269531 205.089844 280.59375 204.992188 280.921875 204.925781 C 281.253906 204.859375 281.585938 204.828125 281.925781 204.828125 C 282.261719 204.828125 282.597656 204.859375 282.929688 204.925781 C 283.257812 204.992188 283.578125 205.089844 283.890625 205.21875 C 284.203125 205.347656 284.5 205.503906 284.78125 205.691406 C 285.0625 205.878906 285.320312 206.09375 285.558594 206.332031 C 285.796875 206.570312 286.011719 206.832031 286.199219 207.109375 C 286.386719 207.390625 286.542969 207.6875 286.671875 208 C 286.800781 208.3125 286.898438 208.632812 286.964844 208.964844 C 287.03125 209.292969 287.0625 209.628906 287.0625 209.964844 Z M 287.0625 209.964844 " fill-opacity="1" fill-rule="nonzero"/><path fill="#ffffff" d="M 280.136719 208.800781 C 280.136719 208.988281 280.101562 209.167969 280.027344 209.34375 C 279.957031 209.515625 279.855469 209.667969 279.722656 209.800781 C 279.589844 209.933594 279.4375 210.035156 279.265625 210.105469 C 279.089844 210.179688 278.910156 210.214844 278.722656 210.214844 C 278.535156 210.214844 278.355469 210.179688 278.183594 210.105469 C 278.011719 210.035156 277.855469 209.933594 277.726562 209.800781 C 277.59375 209.667969 277.492188 209.515625 277.417969 209.34375 C 277.347656 209.167969 277.3125 208.988281 277.3125 208.800781 C 277.3125 208.613281 277.347656 208.433594 277.417969 208.261719 C 277.492188 208.089844 277.59375 207.9375 277.726562 207.804688 C 277.855469 207.671875 278.011719 207.570312 278.183594 207.496094 C 278.355469 207.425781 278.535156 207.390625 278.722656 207.390625 C 278.910156 207.390625 279.089844 207.425781 279.265625 207.496094 C 279.4375 207.570312 279.589844 207.671875 279.722656 207.804688 C 279.855469 207.9375 279.957031 208.089844 280.027344 208.261719 C 280.101562 208.433594 280.136719 208.613281 280.136719 208.800781 Z M 280.136719 208.800781 " fill-opacity="1" fill-rule="nonzero"/><path stroke-linecap="butt" transform="matrix(0.672612, 0, 0, 0.672585, 0.665679, 0.327825)" fill="none" stroke-linejoin="miter" d="M 429.34029 313.018477 C 429.34029 313.018477 421.018029 295.03748 403.281683 308.401264 " stroke="#231f20" stroke-width="1" stroke-opacity="1" stroke-miterlimit="10"/><path fill="#ffffff" d="M 327.449219 215.425781 C 327.449219 215.425781 327.386719 214.964844 327.691406 214.53125 C 328.683594 213.113281 331.054688 210.410156 335.203125 209.933594 C 339.851562 209.402344 342.910156 213.46875 343.96875 214.929688 C 344.148438 215.179688 344.164062 215.421875 344.164062 215.421875 C 344.164062 215.421875 344.210938 215.675781 344.074219 215.878906 C 343.429688 216.828125 341.234375 219.511719 336.84375 220.089844 C 334.226562 220.429688 330.386719 219.441406 327.703125 216.148438 C 327.515625 215.917969 327.46875 215.601562 327.453125 215.433594 Z M 327.449219 215.425781 " fill-opacity="1" fill-rule="nonzero"/><path fill="#26130f" d="M 341.957031 215.132812 C 341.957031 215.449219 341.925781 215.761719 341.863281 216.070312 C 341.800781 216.382812 341.710938 216.683594 341.589844 216.976562 C 341.46875 217.269531 341.320312 217.546875 341.144531 217.808594 C 340.96875 218.074219 340.765625 218.316406 340.542969 218.542969 C 340.320312 218.765625 340.074219 218.964844 339.8125 219.140625 C 339.550781 219.316406 339.269531 219.464844 338.980469 219.585938 C 338.6875 219.707031 338.382812 219.800781 338.074219 219.859375 C 337.761719 219.921875 337.449219 219.953125 337.132812 219.953125 C 336.816406 219.953125 336.503906 219.921875 336.191406 219.859375 C 335.882812 219.800781 335.582031 219.707031 335.289062 219.585938 C 334.996094 219.464844 334.71875 219.316406 334.453125 219.140625 C 334.191406 218.964844 333.945312 218.765625 333.722656 218.542969 C 333.5 218.316406 333.300781 218.074219 333.125 217.808594 C 332.949219 217.546875 332.800781 217.269531 332.679688 216.976562 C 332.554688 216.683594 332.464844 216.382812 332.402344 216.070312 C 332.339844 215.761719 332.3125 215.449219 332.3125 215.132812 C 332.3125 214.816406 332.339844 214.5 332.402344 214.191406 C 332.464844 213.878906 332.554688 213.578125 332.679688 213.285156 C 332.800781 212.992188 332.949219 212.714844 333.125 212.453125 C 333.300781 212.1875 333.5 211.945312 333.722656 211.722656 C 333.945312 211.496094 334.191406 211.296875 334.453125 211.121094 C 334.71875 210.945312 334.996094 210.796875 335.289062 210.675781 C 335.582031 210.554688 335.882812 210.464844 336.191406 210.402344 C 336.503906 210.339844 336.816406 210.308594 337.132812 210.308594 C 337.449219 210.308594 337.761719 210.339844 338.074219 210.402344 C 338.382812 210.464844 338.6875 210.554688 338.980469 210.675781 C 339.269531 210.796875 339.550781 210.945312 339.8125 211.121094 C 340.074219 211.296875 340.320312 211.496094 340.542969 211.722656 C 340.765625 211.945312 340.96875 212.1875 341.144531 212.453125 C 341.320312 212.714844 341.46875 212.992188 341.589844 213.285156 C 341.710938 213.578125 341.800781 213.878906 341.863281 214.191406 C 341.925781 214.5 341.957031 214.816406 341.957031 215.132812 Z M 341.957031 215.132812 " fill-opacity="1" fill-rule="nonzero"/><path fill="#ffffff" d="M 335.191406 214.605469 C 335.191406 214.785156 335.15625 214.957031 335.085938 215.125 C 335.019531 215.289062 334.921875 215.4375 334.792969 215.5625 C 334.667969 215.6875 334.519531 215.785156 334.355469 215.855469 C 334.1875 215.925781 334.015625 215.957031 333.835938 215.957031 C 333.660156 215.957031 333.484375 215.925781 333.320312 215.855469 C 333.15625 215.785156 333.007812 215.6875 332.882812 215.5625 C 332.753906 215.4375 332.65625 215.289062 332.589844 215.125 C 332.519531 214.957031 332.484375 214.785156 332.484375 214.605469 C 332.484375 214.425781 332.519531 214.253906 332.589844 214.089844 C 332.65625 213.921875 332.753906 213.777344 332.882812 213.652344 C 333.007812 213.523438 333.15625 213.425781 333.320312 213.359375 C 333.484375 213.289062 333.660156 213.253906 333.835938 213.253906 C 334.015625 213.253906 334.1875 213.289062 334.355469 213.359375 C 334.519531 213.425781 334.667969 213.523438 334.792969 213.652344 C 334.921875 213.777344 335.019531 213.921875 335.085938 214.089844 C 335.15625 214.253906 335.191406 214.425781 335.191406 214.605469 Z M 335.191406 214.605469 " fill-opacity="1" fill-rule="nonzero"/><path stroke-linecap="butt" transform="matrix(0.672612, 0, 0, 0.672585, 0.665679, 0.327825)" fill="none" stroke-linejoin="miter" d="M 510.541858 319.279302 C 510.541858 319.279302 500.651551 302.709604 486.02226 318.77983 " stroke="#231f20" stroke-width="1" stroke-opacity="1" stroke-miterlimit="10"/><path fill="#b56e5b" d="M 280.464844 261.816406 C 280.464844 261.816406 297.09375 249.863281 305.003906 255.808594 C 305.003906 255.808594 317.433594 249.6875 323.472656 264.867188 C 323.472656 264.867188 322.71875 274.609375 301.800781 274.070312 C 280.882812 273.53125 280.464844 261.808594 280.464844 261.808594 Z M 280.464844 261.816406 " fill-opacity="1" fill-rule="nonzero"/><path fill="#803435" d="M 284.546875 262.722656 C 284.546875 262.722656 307.484375 250.75 320.574219 265.804688 C 320.574219 265.804688 309.917969 265.3125 304.269531 268.125 C 304.269531 268.125 292.914062 262.601562 284.546875 262.722656 Z M 284.546875 262.722656 " fill-opacity="1" fill-rule="nonzero"/><path fill="#ffffff" d="M 291.773438 259.851562 C 291.773438 259.851562 309.554688 254.859375 317.339844 262.953125 Z M 291.773438 259.851562 " fill-opacity="1" fill-rule="nonzero"/><path fill="#231f20" d="M 305.816406 188.875 C 305.816406 188.875 310.109375 194.617188 305.992188 197.96875 C 305.992188 197.96875 312.992188 194.652344 305.816406 188.875 Z M 305.816406 188.875 " fill-opacity="1" fill-rule="nonzero"/><path fill="#ba9777" d="M 493.261719 474.742188 L 499.503906 469.039062 C 499.503906 469.039062 500.046875 445.417969 523.664062 440.535156 C 523.664062 440.535156 532.078125 439.453125 535.875 432.121094 C 539.675781 424.789062 550.265625 422.078125 552.4375 423.976562 C 554.609375 425.878906 557.328125 434.015625 551.078125 437.824219 C 544.835938 441.625 533.703125 451.671875 533.703125 451.671875 L 599.675781 457.101562 C 599.675781 457.101562 610.535156 459.273438 609.445312 464.699219 C 608.363281 470.128906 596.144531 466.875 596.144531 466.875 L 572.25 476.375 C 572.25 476.375 554.601562 495.652344 528.269531 491.578125 L 517.683594 498.910156 L 493.246094 474.75 Z M 493.261719 474.742188 " fill-opacity="1" fill-rule="nonzero"/><path stroke-linecap="butt" transform="matrix(0.672612, 0, 0, 0.672585, 0.665679, 0.327825)" fill="none" stroke-linejoin="miter" d="M 789.828328 683.348033 C 789.828328 683.348033 804.88738 689.039692 806.228931 701.758809 " stroke="#603913" stroke-width="0.5" stroke-opacity="1" stroke-miterlimit="10"/><path stroke-linecap="butt" transform="matrix(0.672612, 0, 0, 0.672585, 0.665679, 0.327825)" fill="none" stroke-linejoin="miter" d="M 817.129756 704.651101 C 817.129756 704.651101 853.218052 676.907166 865.251355 695.962609 " stroke="#603913" stroke-width="0.5" stroke-opacity="1" stroke-miterlimit="10"/><path stroke-linecap="butt" transform="matrix(0.672612, 0, 0, 0.672585, 0.665679, 0.327825)" fill="none" stroke-linejoin="miter" d="M 809.10949 688.952575 L 832.839257 690.619418 " stroke="#603913" stroke-width="0.5" stroke-opacity="1" stroke-miterlimit="10"/><path fill="#be9e7d" d="M 393.914062 438.511719 C 393.914062 438.511719 411.121094 499.472656 418.484375 510.523438 L 493.261719 474.742188 L 515.753906 497.335938 C 515.753906 497.335938 483.097656 560.679688 432.75 585.242188 C 382.40625 609.796875 363.871094 583.847656 363.871094 583.847656 C 363.871094 583.847656 366.148438 569.382812 383.066406 517.984375 C 399.988281 466.578125 393.914062 438.515625 393.914062 438.515625 Z M 393.914062 438.511719 " fill-opacity="1" fill-rule="nonzero"/><g clip-path="url(#43f5ebf707)"><path fill="#f7daa6" d="M 211.023438 293.5625 C 211.023438 293.5625 221.839844 351.398438 269.085938 350.597656 C 302.589844 350.03125 306.171875 338.066406 307.464844 306.414062 C 307.464844 306.414062 348.425781 316.765625 365.929688 335.429688 C 383.429688 354.101562 410.265625 439.269531 404.433594 492.941406 C 404.433594 492.941406 400.9375 522.113281 363.59375 545.445312 C 363.59375 545.445312 371.914062 629.476562 370.667969 659.21875 C 370.667969 659.21875 356.59375 684.292969 293.582031 684.292969 L 279.578125 590.953125 L 280.742188 683.128906 C 280.742188 683.128906 221.410156 693.425781 168.726562 667.960938 C 168.726562 667.960938 126.15625 643.835938 119.152344 637.230469 C 117.136719 635.328125 131.042969 523.148438 127.332031 511.082031 C 127.332031 511.082031 144.765625 526.234375 110.925781 501.734375 C 110.925781 501.734375 84.109375 300.703125 211.011719 293.566406 Z M 211.023438 293.5625 " fill-opacity="1" fill-rule="nonzero"/></g><path stroke-linecap="butt" transform="matrix(0.672612, 0, 0, 0.672585, 0.665679, 0.327825)" fill="none" stroke-linejoin="miter" d="M 330.971518 751.241398 C 330.971518 751.241398 335.30978 618.050762 269.062727 589.26142 " stroke="#a97c50" stroke-width="1" stroke-opacity="1" stroke-miterlimit="10"/><path stroke-linecap="butt" transform="matrix(0.672612, 0, 0, 0.672585, 0.665679, 0.327825)" fill="none" stroke-linejoin="miter" d="M 539.579753 810.481117 C 539.579753 810.481117 539.771403 668.677491 517.981367 631.042846 " stroke="#a97c50" stroke-width="1" stroke-opacity="1" stroke-miterlimit="10"/><path stroke-linecap="butt" transform="matrix(0.672612, 0, 0, 0.672585, 0.665679, 0.327825)" fill-opacity="1" fill="#a97c50" fill-rule="nonzero" stroke-linejoin="miter" d="M 406.342278 574.062366 C 406.342278 574.898692 406.255164 575.735017 406.092552 576.559727 C 405.929939 577.384437 405.686021 578.185915 405.366604 578.964163 C 405.04138 579.736602 404.646464 580.480003 404.181858 581.176941 C 403.711444 581.873878 403.182955 582.524354 402.590582 583.116751 C 401.992401 583.714956 401.34776 584.243467 400.645043 584.7139 C 399.948133 585.178526 399.210571 585.573457 398.432355 585.892887 C 397.654139 586.218125 396.852694 586.462053 396.028017 586.624672 C 395.203341 586.78729 394.372857 586.8686 393.530758 586.8686 C 392.68866 586.8686 391.858176 586.78729 391.0335 586.624672 C 390.203016 586.462053 389.407377 586.218125 388.629162 585.892887 C 387.850946 585.573457 387.113384 585.178526 386.410667 584.7139 C 385.713757 584.243467 385.069116 583.714956 384.470935 583.116751 C 383.878562 582.524354 383.344265 581.873878 382.879659 581.176941 C 382.409245 580.480003 382.014329 579.736602 381.694913 578.964163 C 381.375496 578.185915 381.131577 577.384437 380.968965 576.559727 C 380.800545 575.735017 380.719239 574.898692 380.719239 574.062366 C 380.719239 573.220233 380.800545 572.383908 380.968965 571.559198 C 381.131577 570.734488 381.375496 569.933009 381.694913 569.16057 C 382.014329 568.382323 382.409245 567.64473 382.879659 566.941984 C 383.344265 566.245047 383.878562 565.594571 384.470935 565.002174 C 385.069116 564.409777 385.713757 563.875458 386.410667 563.410833 C 387.113384 562.940399 387.850946 562.545468 388.629162 562.226038 C 389.407377 561.9008 390.203016 561.66268 391.0335 561.494253 C 391.858176 561.331635 392.68866 561.250325 393.530758 561.250325 C 394.372857 561.250325 395.203341 561.331635 396.028017 561.494253 C 396.852694 561.66268 397.654139 561.9008 398.432355 562.226038 C 399.210571 562.545468 399.948133 562.940399 400.645043 563.410833 C 401.34776 563.875458 401.992401 564.409777 402.590582 565.002174 C 403.182955 565.594571 403.711444 566.245047 404.181858 566.941984 C 404.646464 567.64473 405.04138 568.382323 405.366604 569.16057 C 405.686021 569.933009 405.929939 570.734488 406.092552 571.559198 C 406.255164 572.383908 406.342278 573.220233 406.342278 574.062366 Z M 406.342278 574.062366 " stroke="#a97c50" stroke-width="0.5" stroke-opacity="1" stroke-miterlimit="10"/><path stroke-linecap="butt" transform="matrix(0.672612, 0, 0, 0.672585, 0.665679, 0.327825)" fill-opacity="1" fill="#a97c50" fill-rule="nonzero" stroke-linejoin="miter" d="M 409.797787 669.862285 C 409.797787 670.698611 409.716481 671.534936 409.553869 672.359646 C 409.391256 673.184356 409.147338 673.985834 408.822114 674.764082 C 408.502697 675.536521 408.107782 676.279922 407.643175 676.976859 C 407.172761 677.673797 406.644272 678.324273 406.046091 678.91667 C 405.453718 679.514875 404.803269 680.043386 404.10636 680.513819 C 403.40945 680.978444 402.671888 681.373376 401.893672 681.692806 C 401.115457 682.018043 400.314011 682.261972 399.489334 682.42459 C 398.664658 682.587209 397.828367 682.668519 396.992075 682.668519 C 396.149977 682.668519 395.313685 682.587209 394.489009 682.42459 C 393.664333 682.261972 392.862887 682.018043 392.090479 681.692806 C 391.312263 681.373376 390.574701 680.978444 389.871984 680.513819 C 389.175074 680.043386 388.524625 679.514875 387.932252 678.91667 C 387.339879 678.324273 386.805582 677.673797 386.340976 676.976859 C 385.870562 676.279922 385.475647 675.536521 385.15623 674.764082 C 384.831005 673.985834 384.592895 673.184356 384.424475 672.359646 C 384.261863 671.534936 384.180556 670.698611 384.180556 669.862285 C 384.180556 669.020152 384.261863 668.183827 384.424475 667.359117 C 384.592895 666.534407 384.831005 665.732928 385.15623 664.960489 C 385.475647 664.182242 385.870562 663.444649 386.340976 662.741903 C 386.805582 662.044965 387.339879 661.39449 387.932252 660.802093 C 388.524625 660.209696 389.175074 659.675377 389.871984 659.210751 C 390.574701 658.740318 391.312263 658.345387 392.090479 658.025957 C 392.862887 657.700719 393.664333 657.462599 394.489009 657.294172 C 395.313685 657.131553 396.149977 657.050244 396.992075 657.050244 C 397.828367 657.050244 398.664658 657.131553 399.489334 657.294172 C 400.314011 657.462599 401.115457 657.700719 401.893672 658.025957 C 402.671888 658.345387 403.40945 658.740318 404.10636 659.210751 C 404.803269 659.675377 405.453718 660.209696 406.046091 660.802093 C 406.644272 661.39449 407.172761 662.044965 407.643175 662.741903 C 408.107782 663.444649 408.502697 664.182242 408.822114 664.960489 C 409.147338 665.732928 409.391256 666.534407 409.553869 667.359117 C 409.716481 668.183827 409.797787 669.020152 409.797787 669.862285 Z M 409.797787 669.862285 " stroke="#a97c50" stroke-width="0.5" stroke-opacity="1" stroke-miterlimit="10"/><path stroke-linecap="butt" transform="matrix(0.672612, 0, 0, 0.672585, 0.665679, 0.327825)" fill-opacity="1" fill="#a97c50" fill-rule="nonzero" stroke-linejoin="miter" d="M 408.920843 770.500115 C 408.920843 771.342248 408.839536 772.172765 408.671117 772.997475 C 408.508504 773.822185 408.264586 774.623664 407.945169 775.401911 C 407.625752 776.180158 407.230837 776.917751 406.760423 777.614689 C 406.295817 778.317434 405.76152 778.962102 405.169147 779.560307 C 404.570966 780.152704 403.926325 780.681215 403.229415 781.151648 C 402.526698 781.616274 401.789136 782.011205 401.01092 782.336443 C 400.232705 782.655873 399.431259 782.899801 398.606582 783.06242 C 397.781906 783.225039 396.951422 783.312156 396.109323 783.312156 C 395.267225 783.312156 394.436741 783.225039 393.612065 783.06242 C 392.787388 782.899801 391.985942 782.655873 391.207727 782.336443 C 390.429511 782.011205 389.691949 781.616274 388.995039 781.151648 C 388.292322 780.681215 387.647681 780.152704 387.0495 779.560307 C 386.457127 778.962102 385.928638 778.317434 385.458224 777.614689 C 384.993617 776.917751 384.598702 776.180158 384.273478 775.401911 C 383.954061 774.623664 383.710143 773.822185 383.54753 772.997475 C 383.379111 772.172765 383.297804 771.342248 383.297804 770.500115 C 383.297804 769.657981 383.379111 768.827464 383.54753 768.002754 C 383.710143 767.178044 383.954061 766.376565 384.273478 765.598318 C 384.598702 764.820071 384.993617 764.082478 385.458224 763.38554 C 385.928638 762.682795 386.457127 762.038127 387.0495 761.439922 C 387.647681 760.847525 388.292322 760.313206 388.995039 759.848581 C 389.691949 759.383955 390.429511 758.989024 391.207727 758.663786 C 391.985942 758.344356 392.787388 758.100428 393.612065 757.937809 C 394.436741 757.769383 395.267225 757.688073 396.109323 757.688073 C 396.951422 757.688073 397.781906 757.769383 398.606582 757.937809 C 399.431259 758.100428 400.232705 758.344356 401.01092 758.663786 C 401.789136 758.989024 402.526698 759.383955 403.229415 759.848581 C 403.926325 760.313206 404.570966 760.847525 405.169147 761.439922 C 405.76152 762.038127 406.295817 762.682795 406.760423 763.38554 C 407.230837 764.082478 407.625752 764.820071 407.945169 765.598318 C 408.264586 766.376565 408.508504 767.178044 408.671117 768.002754 C 408.839536 768.827464 408.920843 769.657981 408.920843 770.500115 Z M 408.920843 770.500115 " stroke="#a97c50" stroke-width="0.5" stroke-opacity="1" stroke-miterlimit="10"/><path stroke-linecap="butt" transform="matrix(0.672612, 0, 0, 0.672585, 0.665679, 0.327825)" fill="none" stroke-linejoin="miter" d="M 326.84233 351.402331 C 326.84233 351.402331 317.840583 365.062313 327.399857 373.437183 C 336.970747 381.812053 331.982037 361.409197 331.982037 361.409197 " stroke="#fbb040" stroke-width="3" stroke-opacity="1" stroke-miterlimit="10"/><path fill="#dcbf97" d="M 552.839844 519.488281 C 552.839844 519.488281 533.339844 565.882812 501.816406 565.339844 C 466.832031 564.734375 437.117188 501.957031 451.140625 364.964844 L 486.21875 368.132812 L 507.796875 432.464844 L 524.085938 389.042969 C 524.085938 389.042969 555.738281 321.441406 578.835938 319.46875 " fill-opacity="1" fill-rule="nonzero"/><path fill="#dcbf97" d="M 730.222656 524.414062 C 730.222656 524.414062 701.957031 516.1875 689.789062 498.113281 L 700.15625 438.140625 L 730.214844 524.414062 Z M 730.222656 524.414062 " fill-opacity="1" fill-rule="nonzero"/><path fill="#dcbf97" d="M 690.410156 244.199219 C 690.410156 244.199219 678.132812 307.253906 713.808594 317.019531 C 713.808594 317.019531 713.835938 380.292969 628.523438 382.960938 C 628.523438 382.960938 604.222656 371.796875 588.113281 314.902344 C 588.113281 314.902344 613.691406 306.273438 614.019531 291.414062 C 614.371094 275.691406 609.40625 291.90625 609.40625 291.90625 L 690.410156 244.199219 " fill-opacity="1" fill-rule="nonzero"/><g clip-path="url(#70972048e4)"><path fill="#0f3e5d" d="M 768.714844 598.996094 C 768.714844 598.996094 836.257812 723.417969 783.046875 826.027344 L 760.339844 900.648438 C 760.339844 900.648438 746.867188 939.484375 751.960938 992.558594 C 755.195312 1026.316406 748.671875 1072.246094 740.117188 1116.898438 C 740.117188 1116.898438 710.582031 1146.089844 670.351562 1127.027344 C 670.351562 1127.027344 636.75 1137.171875 598.746094 1119.121094 L 538.789062 970.351562 C 538.789062 970.351562 526.945312 948.839844 526.945312 922.238281 C 526.945312 922.238281 506.273438 693.109375 540.457031 608.007812 C 540.457031 608.007812 630.050781 668.714844 768.707031 598.996094 Z M 768.714844 598.996094 " fill-opacity="1" fill-rule="nonzero"/></g><path fill="#dcbf97" d="M 697.527344 212.933594 C 697.527344 212.933594 691.585938 126.457031 623.402344 129.859375 C 623.402344 129.859375 572.769531 130.632812 576.871094 202.089844 C 576.871094 202.089844 579.796875 213.523438 577.949219 219.636719 C 577.949219 219.636719 574.734375 238.390625 580.886719 253.804688 C 590.136719 276.949219 602.027344 288.792969 602.027344 288.792969 C 602.027344 288.792969 612.109375 298.015625 629.800781 298 C 629.800781 298 642.222656 297.488281 657.910156 287.144531 C 657.910156 287.144531 697.667969 268.460938 695.332031 244.988281 C 695.332031 244.988281 710.628906 253.703125 718.082031 225.804688 C 718.082031 225.804688 727.914062 201.632812 718.617188 197.824219 C 706.894531 193.023438 702.71875 200.675781 697.519531 212.925781 Z M 697.527344 212.933594 " fill-opacity="1" fill-rule="nonzero"/><path fill="#26130f" d="M 632.71875 186.761719 C 632.71875 186.761719 657.882812 184.125 667.210938 194.074219 C 667.210938 194.074219 661.601562 180.054688 633.265625 180.996094 C 633.265625 180.996094 627.777344 183.648438 632.71875 186.761719 Z M 632.71875 186.761719 " fill-opacity="1" fill-rule="nonzero"/><path fill="#26130f" d="M 574.855469 190.332031 C 574.941406 188.960938 586.464844 184.710938 597.859375 183.277344 C 597.859375 183.277344 603.695312 185.027344 599.304688 188.886719 C 599.304688 188.886719 577.773438 188.730469 576.867188 195.988281 C 576.867188 195.988281 574.632812 193.722656 574.855469 190.332031 Z M 574.855469 190.332031 " fill-opacity="1" fill-rule="nonzero"/><path stroke-linecap="butt" transform="matrix(0.672612, 0, 0, 0.672585, 0.665679, 0.327825)" fill="none" stroke-linejoin="miter" d="M 912.257899 357.372765 C 887.169158 354.509512 903.349073 331.080784 903.349073 331.080784 " stroke="#231f20" stroke-width="1.2" stroke-opacity="1" stroke-miterlimit="10"/><path stroke-linecap="butt" transform="matrix(0.672612, 0, 0, 0.672585, 0.665679, 0.327825)" fill="none" stroke-linejoin="miter" d="M 1066.240046 321.648891 C 1066.240046 321.648891 1056.518159 297.302528 1038.439166 337.132528 C 1038.439166 337.132528 1054.102206 319.401267 1057.238299 334.28089 " stroke="#231f20" stroke-width="1.2" stroke-opacity="1" stroke-miterlimit="10"/><path fill="#26130f" d="M 612.945312 294.988281 C 612.945312 294.988281 625.144531 301.492188 643.992188 294.460938 C 643.992188 294.460938 660.476562 288.589844 673.835938 277.414062 C 673.835938 277.414062 656.339844 296.246094 633.101562 299.566406 C 633.101562 299.566406 621.332031 301.109375 611.371094 297.21875 C 611.371094 297.21875 612.089844 295.996094 612.9375 294.988281 Z M 612.945312 294.988281 " fill-opacity="1" fill-rule="nonzero"/><path fill="#01a04c" d="M 768.714844 598.996094 C 768.714844 598.996094 767.128906 558.585938 759.460938 527.566406 C 759.460938 527.566406 743.660156 453.816406 740.828125 451.90625 C 706.679688 428.925781 722.5 320.101562 722.5 320.101562 L 705.179688 313.421875 C 705.179688 313.421875 698.835938 375.070312 648.230469 375.070312 C 620.644531 375.070312 599.4375 369.757812 599.6875 309.011719 L 578.84375 319.46875 C 578.84375 319.46875 565.882812 382.699219 555.980469 427.460938 C 555.980469 427.460938 537.011719 471.910156 552.371094 507.996094 C 552.371094 507.996094 553.628906 546.964844 540.472656 608.007812 C 540.472656 608.007812 636.414062 678.070312 768.722656 598.996094 Z M 768.714844 598.996094 " fill-opacity="1" fill-rule="nonzero"/><path fill="#26130f" d="M 584.722656 262.527344 C 574.863281 244.867188 577.464844 222.144531 577.464844 222.144531 C 577.464844 222.144531 578.628906 217.816406 579.019531 209.089844 C 579.410156 200.410156 577.539062 198.417969 578.203125 190.675781 C 578.203125 190.675781 605.203125 183.902344 627.769531 160.007812 C 627.769531 160.007812 654.261719 148.808594 634.308594 151.445312 C 634.308594 151.445312 641.914062 140.730469 671.011719 149.070312 C 671.011719 149.070312 676.351562 191.515625 697.527344 212.933594 C 697.527344 212.933594 707.398438 192.875 718.625 197.832031 C 729.851562 202.789062 713.460938 233.722656 713.460938 233.722656 C 713.460938 233.722656 708.726562 252.003906 695.945312 244.273438 C 695.945312 244.273438 689.886719 262.171875 694.601562 281.703125 C 694.601562 281.703125 698.035156 279.8125 702.820312 273.839844 C 702.820312 273.839844 699.699219 283.164062 693.515625 289.585938 C 693.515625 289.585938 719.875 282.765625 721.894531 256.871094 C 721.894531 256.871094 721.726562 248.046875 728.632812 246.648438 C 735.546875 245.257812 744.5 220.230469 742.820312 198.820312 C 741.144531 177.40625 723.570312 104.914062 675.746094 104.230469 C 675.746094 104.230469 649.878906 93.378906 617.511719 113.859375 C 585.144531 134.339844 588.589844 139.042969 561.625 181.171875 C 561.625 181.171875 549.019531 185.261719 569.664062 202.097656 C 569.664062 202.097656 564.503906 224.050781 568.019531 217.503906 C 568.019531 217.503906 564.003906 240.226562 574.027344 249.265625 C 574.027344 249.265625 572.359375 242.527344 572.339844 231.589844 C 572.339844 231.589844 570.1875 256.019531 589.8125 271.816406 " fill-opacity="1" fill-rule="nonzero"/><path stroke-linecap="butt" transform="matrix(0.672612, 0, 0, 0.672585, 0.665679, 0.327825)" fill="none" stroke-linejoin="miter" d="M 993.151666 287.649938 C 993.151666 287.649938 958.561726 276.620897 927.142724 289.061238 C 927.142724 289.061238 923.582678 335.117216 958.457189 335.93031 C 958.457189 335.93031 1003.692421 334.182157 993.151666 287.649938 Z M 993.151666 287.649938 " stroke="#cfe5ae" stroke-width="2" stroke-opacity="1" stroke-miterlimit="10"/><path stroke-linecap="butt" transform="matrix(0.672612, 0, 0, 0.672585, 0.665679, 0.327825)" fill="none" stroke-linejoin="miter" d="M 905.027463 288.997352 C 905.027463 288.997352 874.828053 278.252893 848.432607 293.38806 C 848.432607 293.38806 841.080212 335.210141 875.960531 336.011619 C 875.960531 336.011619 915.579834 335.529571 905.039078 288.997352 Z M 905.027463 288.997352 " stroke="#cfe5ae" stroke-width="2" stroke-opacity="1" stroke-miterlimit="10"/><path stroke-linecap="butt" transform="matrix(0.672612, 0, 0, 0.672585, 0.665679, 0.327825)" fill="none" stroke-linejoin="miter" d="M 905.027463 288.997352 C 905.027463 288.997352 917.711216 282.771373 927.142724 289.072853 " stroke="#cfe5ae" stroke-width="2" stroke-opacity="1" stroke-miterlimit="10"/><path stroke-linecap="butt" transform="matrix(0.672612, 0, 0, 0.672585, 0.665679, 0.327825)" fill="none" stroke-linejoin="miter" d="M 988.668215 287.127235 L 1041.662372 302.361135 " stroke="#cfe5ae" stroke-width="2" stroke-opacity="1" stroke-miterlimit="10"/><path stroke-linecap="butt" transform="matrix(0.672612, 0, 0, 0.672585, 0.665679, 0.327825)" fill-opacity="1" fill="#fff200" fill-rule="nonzero" stroke-linejoin="miter" d="M 1040.919002 357.570231 L 1041.441684 384.32103 " stroke="#ffffff" stroke-width="1" stroke-opacity="1" stroke-miterlimit="10"/><path stroke-linecap="butt" transform="matrix(0.672612, 0, 0, 0.672585, 0.665679, 0.327825)" fill="none" stroke-linejoin="miter" d="M 1045.071421 387.91026 L 1041.720448 382.050174 L 1039.112845 388.270344 L 1032.498013 389.652604 L 1037.608682 394.060737 L 1036.882735 400.768764 L 1042.649661 397.272459 L 1048.811502 400.042787 L 1047.260878 393.468339 L 1051.802405 388.462002 Z M 1045.071421 387.91026 " stroke="#ffffff" stroke-width="1" stroke-opacity="1" stroke-miterlimit="10"/><path fill="#26130f" d="M 675.753906 104.230469 C 675.753906 104.230469 644.605469 81.300781 616.980469 101.773438 C 616.980469 101.773438 610.339844 114.433594 592.953125 111.601562 C 583.761719 110.101562 581.78125 124.507812 581.78125 124.507812 C 581.78125 124.507812 584.945312 136.316406 573.960938 135.660156 C 573.960938 135.660156 556.304688 141.011719 559.667969 161.679688 C 563.03125 182.34375 550.726562 189.015625 550.726562 189.015625 C 550.726562 189.015625 540.363281 196.425781 545.3125 207.71875 C 545.3125 207.71875 550.53125 215.230469 547.660156 219.515625 C 544.78125 223.800781 539.261719 222.644531 539.261719 222.644531 C 539.261719 222.644531 546.980469 227.992188 553.144531 218.566406 C 559.304688 209.136719 561.253906 200.644531 561.253906 200.644531 C 561.253906 200.644531 557.695312 213.402344 560.375 220.546875 C 560.375 220.546875 560.863281 223.921875 555.046875 229.53125 C 549.234375 235.140625 552.316406 241.429688 552.316406 241.429688 C 552.316406 241.429688 553.847656 233.359375 557.644531 232.445312 C 561.429688 231.523438 563.945312 230.203125 563.945312 230.203125 C 563.945312 230.203125 569.460938 242.429688 574.035156 249.273438 C 575.929688 252.109375 575.414062 258.574219 567 260.855469 C 558.585938 263.132812 566.023438 279.617188 566.023438 279.617188 C 566.023438 279.617188 565.5 264.546875 572.722656 266.101562 C 579.945312 267.652344 579.757812 260.363281 579.757812 260.363281 C 579.757812 260.363281 573.980469 246.089844 575.324219 228.292969 L 572.058594 190.703125 C 572.058594 190.703125 586.828125 188.726562 595.613281 183.480469 C 595.613281 183.480469 619.535156 170.761719 627.761719 160.019531 C 627.761719 160.019531 615.5625 172.335938 614.863281 176.957031 C 613.292969 187.328125 602.257812 190.058594 602.257812 190.058594 C 602.257812 190.058594 618.125 191.261719 619.523438 183.171875 C 622.019531 168.75 634.636719 169.261719 634.636719 169.261719 C 634.636719 169.261719 648.695312 171.878906 656.511719 160.300781 C 664.324219 148.726562 671.011719 149.082031 671.011719 149.082031 C 671.011719 149.082031 692.785156 130.296875 675.753906 104.242188 Z M 675.753906 104.230469 " fill-opacity="1" fill-rule="nonzero"/><path fill="#26130f" d="M 566.992188 219.847656 C 566.992188 219.847656 570.1875 225.421875 566.105469 232.28125 C 562.015625 239.148438 556.6875 239.09375 556.539062 245.390625 C 556.390625 251.679688 564.644531 263.671875 564.644531 263.671875 C 564.644531 263.671875 558.933594 252.910156 562.539062 245.996094 C 566.144531 239.082031 574.734375 239.984375 574.734375 239.984375 " fill-opacity="1" fill-rule="nonzero"/><path fill="#dcbf97" d="M 784.945312 473.492188 L 818.515625 518.871094 L 829.410156 545.679688 C 843.4375 523.707031 817.257812 439.195312 817.257812 439.195312 C 817.257812 439.195312 785.78125 357.691406 759.742188 336.453125 C 733.707031 315.210938 722.492188 320.113281 722.492188 320.113281 C 722.492188 320.113281 708.542969 368.011719 740.820312 451.921875 L 784.945312 473.5 Z M 784.945312 473.492188 " fill-opacity="1" fill-rule="nonzero"/><path stroke-linecap="butt" transform="matrix(0.672612, 0, 0, 0.672585, 0.665679, 0.327825)" fill-opacity="1" fill="#dcbf97" fill-rule="nonzero" stroke-linejoin="miter" d="M 1060.850613 476.549142 C 1061.030648 447.800455 1040.942232 382.67161 1040.942232 382.67161 L 1004.987511 360.340559 C 1002.217296 362.820496 1004.459022 366.79885 1004.459022 366.79885 L 991.287433 360.642565 C 986.490373 368.268227 997.077589 379.732855 997.077589 379.732855 L 983.040671 370.359041 C 976.727832 376.677944 985.717965 388.572351 985.717965 388.572351 L 1005.5915 406.68112 L 1008.762438 435.087146 L 1004.627441 424.162645 L 977.610584 398.817338 C 963.579474 408.388618 993.221357 437.038572 993.221357 437.038572 C 993.221357 437.038572 998.198452 457.319464 1001.247431 479.05231 C 1003.448503 494.657911 1017.328617 495.900784 1017.328617 495.900784 C 1017.328617 495.900784 1021.190657 497.53278 1022.979391 501.801524 C 1024.768125 506.070269 1022.979391 501.801524 1022.979391 501.801524 L 1061.321027 481.601942 L 1060.838998 476.549142 Z M 1060.850613 476.549142 " stroke="#603913" stroke-width="1" stroke-opacity="1" stroke-miterlimit="10"/><path stroke-linecap="butt" transform="matrix(0.672612, 0, 0, 0.672585, 0.665679, 0.327825)" fill="none" stroke-linejoin="miter" d="M 1027.201501 424.482075 L 1021.591379 396.430325 L 983.040671 370.359041 " stroke="#603913" stroke-width="1" stroke-opacity="1" stroke-miterlimit="10"/><path stroke-linecap="butt" transform="matrix(0.672612, 0, 0, 0.672585, 0.665679, 0.327825)" fill="none" stroke-linejoin="miter" d="M 1004.459022 366.810466 L 1031.719797 383.6299 L 1036.55751 407.070244 " stroke="#603913" stroke-width="1" stroke-opacity="1" stroke-miterlimit="10"/><path fill="#dcbf97" d="M 714.152344 323.464844 L 688.546875 336.722656 C 688.546875 336.722656 701.300781 546.601562 805.566406 558.289062 C 805.566406 558.289062 834.757812 552.851562 833.621094 531.171875 C 832.613281 511.988281 815.21875 481.816406 789.867188 443.199219 C 756.472656 392.308594 714.152344 323.464844 714.152344 323.464844 Z M 714.152344 323.464844 " fill-opacity="1" fill-rule="nonzero"/><path fill="#231f20" d="M 627.996094 179.941406 C 627.996094 179.941406 624.050781 185.300781 628.488281 188.875 C 628.488281 188.875 619.96875 184.71875 627.996094 179.941406 Z M 627.996094 179.941406 " fill-opacity="1" fill-rule="nonzero"/><path fill="#c6837e" d="M 599.070312 261.667969 C 599.070312 261.667969 607.707031 250.132812 619.550781 254.09375 C 619.550781 254.09375 628.804688 248.332031 646.078125 260.707031 C 646.078125 260.707031 637.140625 271.972656 620.222656 270.910156 C 603.304688 269.847656 599.0625 261.667969 599.0625 261.667969 Z M 599.070312 261.667969 " fill-opacity="1" fill-rule="nonzero"/><path fill="#803435" d="M 601.515625 262.359375 C 601.515625 262.359375 607.726562 256.125 620.007812 256.285156 C 632.289062 256.441406 643.804688 261.3125 643.804688 261.3125 C 643.804688 261.3125 625.765625 263.214844 620.746094 266.09375 C 620.746094 266.09375 611.753906 262.980469 601.515625 262.359375 Z M 601.515625 262.359375 " fill-opacity="1" fill-rule="nonzero"/><path fill="#ffffff" d="M 606.5625 259.136719 C 606.5625 259.136719 615.3125 252.601562 636.242188 258.824219 C 636.242188 258.824219 618.351562 257.066406 606.5625 259.136719 Z M 606.5625 259.136719 " fill-opacity="1" fill-rule="nonzero"/><path stroke-linecap="round" transform="matrix(0.672612, 0, 0, 0.672585, 0.665679, 0.327825)" fill="none" stroke-linejoin="miter" d="M 867.069127 366.229684 C 860.762097 349.991031 866.650982 315.167369 866.650982 315.167369 " stroke="#ffffff" stroke-width="1" stroke-opacity="1" stroke-miterlimit="10"/><path stroke-linecap="round" transform="matrix(0.672612, 0, 0, 0.672585, 0.665679, 0.327825)" fill="none" stroke-linejoin="miter" d="M 872.377255 316.381202 C 872.377255 316.381202 871.709383 318.518479 872.168182 325.02904 " stroke="#ffffff" stroke-width="1" stroke-opacity="1" stroke-miterlimit="10"/><path stroke-linecap="round" transform="matrix(0.672612, 0, 0, 0.672585, 0.665679, 0.327825)" fill="none" stroke-linejoin="miter" d="M 870.989243 328.600847 C 870.989243 328.600847 870.710479 331.150478 870.820823 333.450373 " stroke="#ffffff" stroke-width="1" stroke-opacity="1" stroke-miterlimit="10"/><path stroke-linecap="round" transform="matrix(0.672612, 0, 0, 0.672585, 0.665679, 0.327825)" fill="none" stroke-linejoin="miter" d="M 974.137652 313.192712 C 974.137652 313.192712 983.482047 327.630941 981.780426 365.091352 " stroke="#ffffff" stroke-width="1" stroke-opacity="1" stroke-miterlimit="10"/><path stroke-linecap="round" transform="matrix(0.672612, 0, 0, 0.672585, 0.665679, 0.327825)" fill="none" stroke-linejoin="miter" d="M 970.031694 317.560189 C 970.031694 317.560189 971.657816 321.910243 971.640393 324.587646 " stroke="#ffffff" stroke-width="1" stroke-opacity="1" stroke-miterlimit="10"/><path stroke-linecap="round" transform="matrix(0.672612, 0, 0, 0.672585, 0.665679, 0.327825)" fill="none" stroke-linejoin="miter" d="M 975.618585 336.760827 C 975.618585 336.760827 976.739448 339.960934 976.210958 342.382793 " stroke="#ffffff" stroke-width="1" stroke-opacity="1" stroke-miterlimit="10"/><path fill="#dcbf97" d="M 486.210938 368.132812 C 485.160156 364.769531 484.097656 361.511719 483.023438 358.40625 C 483.023438 358.40625 496.070312 346.179688 484.699219 317.472656 L 483.851562 295.902344 C 483.851562 295.902344 480.238281 284.164062 473.484375 294.097656 C 473.484375 294.097656 472.101562 302.433594 472.066406 308.863281 L 458.195312 302.339844 C 458.195312 302.339844 460.300781 301.707031 454.1875 295.96875 C 449.21875 291.300781 448.78125 293.957031 448.78125 293.957031 C 448.78125 293.957031 451.8125 284.234375 452.769531 273.929688 C 453.386719 267.222656 456.832031 262.425781 450.507812 258.316406 C 450.507812 258.316406 444.214844 255.109375 441.675781 266.363281 L 432.019531 291.195312 L 440.378906 330.125 L 452.9375 354.765625 L 451.4375 366.53125 " fill-opacity="1" fill-rule="nonzero"/><path stroke-linecap="butt" transform="matrix(0.672612, 0, 0, 0.672585, 0.665679, 0.327825)" fill-opacity="1" fill="#be9e7d" fill-rule="nonzero" stroke-linejoin="miter" d="M 708.760334 463.992645 C 708.760334 463.992645 704.578877 460.409222 700.728452 458.800457 " stroke="#603913" stroke-width="0.8" stroke-opacity="1" stroke-miterlimit="10"/><path stroke-linecap="butt" transform="matrix(0.672612, 0, 0, 0.672585, 0.665679, 0.327825)" fill-opacity="1" fill="#dcbf97" fill-rule="nonzero" stroke-linejoin="miter" d="M 683.82259 507.60934 C 683.82259 507.60934 690.298041 483.030664 686.180467 474.342172 C 686.180467 474.342172 684.049086 470.799404 687.887895 462.511652 C 691.540863 454.61883 698.631916 449.147868 693.242483 444.402882 C 685.437097 437.520621 680.227699 449.031711 680.227699 449.031711 L 667.602022 473.860123 " stroke="#603913" stroke-width="1" stroke-opacity="1" stroke-miterlimit="10"/><path stroke-linecap="butt" transform="matrix(0.672612, 0, 0, 0.672585, 0.665679, 0.327825)" fill-opacity="1" fill="#dcbf97" fill-rule="nonzero" stroke-linejoin="miter" d="M 717.14067 532.379674 C 717.14067 532.379674 706.907716 534.981575 695.652628 529.220222 " stroke="#603913" stroke-width="1" stroke-opacity="1" stroke-miterlimit="10"/><path stroke-linecap="butt" transform="matrix(0.672612, 0, 0, 0.672585, 0.665679, 0.327825)" fill-opacity="1" fill="#dcbf97" fill-rule="nonzero" stroke-linejoin="miter" d="M 676.621192 456.169517 L 681.377599 445.622524 L 693.027603 437.967823 C 693.027603 437.967823 698.678377 433.780388 695.60036 427.351136 C 692.168081 420.178483 683.892281 424.667925 683.892281 424.667925 L 669.129416 436.149976 L 657.752368 457.482083 " stroke="#603913" stroke-width="1" stroke-opacity="1" stroke-miterlimit="10"/><path stroke-linecap="butt" transform="matrix(0.672612, 0, 0, 0.672585, 0.665679, 0.327825)" fill-opacity="1" fill="#dcbf97" fill-rule="nonzero" stroke-linejoin="miter" d="M 669.141031 436.149976 L 671.057532 430.127272 L 682.707535 422.478378 C 682.707535 422.478378 688.358309 418.290943 685.280292 411.861691 C 681.848013 404.689039 673.572213 409.178481 673.572213 409.178481 L 658.809348 420.660532 L 647.432301 441.992639 " stroke="#603913" stroke-width="1" stroke-opacity="1" stroke-miterlimit="10"/><path stroke-linecap="butt" transform="matrix(0.672612, 0, 0, 0.672585, 0.665679, 0.327825)" fill="none" stroke-linejoin="miter" d="M 753.960721 642.501666 C 753.960721 642.501666 778.201555 688.958383 772.539166 733.399788 " stroke="#603913" stroke-width="1" stroke-opacity="1" stroke-miterlimit="10"/><path stroke-linecap="butt" transform="matrix(0.672612, 0, 0, 0.672585, 0.665679, 0.327825)" fill="none" stroke-linejoin="miter" d="M 1017.340232 495.900784 C 1017.340232 495.900784 1026.702049 496.609337 1025.30823 524.759819 " stroke="#603913" stroke-width="1" stroke-opacity="1" stroke-miterlimit="10"/><path fill="#ffffff" d="M 656.226562 206.179688 C 656.226562 206.179688 656.246094 205.660156 655.882812 205.21875 C 654.667969 203.746094 651.847656 200.980469 647.253906 200.804688 C 642.109375 200.609375 639.097656 205.339844 638.066406 207.027344 C 637.890625 207.316406 637.898438 207.578125 637.898438 207.578125 C 637.898438 207.578125 637.871094 207.859375 638.035156 208.070312 C 638.820312 209.050781 641.457031 211.816406 646.328125 212.070312 C 649.226562 212.226562 653.355469 210.8125 656.019531 206.980469 C 656.207031 206.710938 656.226562 206.359375 656.226562 206.179688 Z M 656.226562 206.179688 " fill-opacity="1" fill-rule="nonzero"/><path fill="#26130f" d="M 650.90625 206.691406 C 650.90625 207.039062 650.871094 207.386719 650.804688 207.726562 C 650.738281 208.070312 650.636719 208.402344 650.503906 208.726562 C 650.367188 209.050781 650.203125 209.355469 650.011719 209.644531 C 649.816406 209.9375 649.597656 210.207031 649.347656 210.453125 C 649.101562 210.699219 648.832031 210.917969 648.542969 211.113281 C 648.253906 211.308594 647.945312 211.472656 647.621094 211.605469 C 647.300781 211.738281 646.96875 211.839844 646.625 211.910156 C 646.28125 211.976562 645.9375 212.011719 645.585938 212.011719 C 645.238281 212.011719 644.890625 211.976562 644.546875 211.910156 C 644.207031 211.839844 643.875 211.738281 643.550781 211.605469 C 643.226562 211.472656 642.921875 211.308594 642.628906 211.113281 C 642.339844 210.917969 642.070312 210.699219 641.824219 210.453125 C 641.578125 210.207031 641.355469 209.9375 641.164062 209.644531 C 640.96875 209.355469 640.804688 209.050781 640.671875 208.726562 C 640.539062 208.402344 640.4375 208.070312 640.367188 207.726562 C 640.300781 207.386719 640.265625 207.039062 640.265625 206.691406 C 640.265625 206.339844 640.300781 205.996094 640.367188 205.652344 C 640.4375 205.308594 640.539062 204.976562 640.671875 204.65625 C 640.804688 204.332031 640.96875 204.023438 641.164062 203.734375 C 641.355469 203.445312 641.578125 203.175781 641.824219 202.929688 C 642.070312 202.679688 642.339844 202.460938 642.628906 202.265625 C 642.921875 202.074219 643.226562 201.910156 643.550781 201.773438 C 643.875 201.640625 644.207031 201.539062 644.546875 201.472656 C 644.890625 201.40625 645.238281 201.371094 645.585938 201.371094 C 645.9375 201.371094 646.28125 201.40625 646.625 201.472656 C 646.96875 201.539062 647.300781 201.640625 647.621094 201.773438 C 647.945312 201.910156 648.253906 202.074219 648.542969 202.265625 C 648.832031 202.460938 649.101562 202.679688 649.347656 202.929688 C 649.59375 203.175781 649.816406 203.445312 650.011719 203.734375 C 650.203125 204.023438 650.367188 204.332031 650.503906 204.65625 C 650.636719 204.976562 650.738281 205.308594 650.804688 205.652344 C 650.871094 205.996094 650.90625 206.339844 650.90625 206.691406 Z M 650.90625 206.691406 " fill-opacity="1" fill-rule="nonzero"/><path fill="#ffffff" d="M 650.441406 205.734375 C 650.441406 205.929688 650.40625 206.113281 650.332031 206.292969 C 650.257812 206.472656 650.152344 206.628906 650.015625 206.765625 C 649.878906 206.902344 649.71875 207.007812 649.542969 207.082031 C 649.363281 207.15625 649.175781 207.195312 648.984375 207.195312 C 648.789062 207.195312 648.605469 207.15625 648.425781 207.082031 C 648.246094 207.007812 648.089844 206.902344 647.953125 206.765625 C 647.8125 206.628906 647.707031 206.472656 647.636719 206.292969 C 647.5625 206.113281 647.523438 205.929688 647.523438 205.734375 C 647.523438 205.542969 647.5625 205.355469 647.636719 205.175781 C 647.707031 204.996094 647.8125 204.839844 647.953125 204.703125 C 648.089844 204.566406 648.246094 204.460938 648.425781 204.386719 C 648.605469 204.3125 648.789062 204.277344 648.984375 204.277344 C 649.175781 204.277344 649.363281 204.3125 649.542969 204.386719 C 649.71875 204.460938 649.878906 204.566406 650.015625 204.703125 C 650.152344 204.839844 650.257812 204.996094 650.332031 205.175781 C 650.40625 205.355469 650.441406 205.542969 650.441406 205.734375 Z M 650.441406 205.734375 " fill-opacity="1" fill-rule="nonzero"/><path stroke-linecap="butt" transform="matrix(0.672612, 0, 0, 0.672585, 0.665679, 0.327825)" fill="none" stroke-linejoin="miter" d="M 947.178871 307.32101 C 947.178871 307.32101 957.162099 289.409707 974.439646 304.579721 " stroke="#231f20" stroke-width="1" stroke-opacity="1" stroke-miterlimit="10"/><path fill="#ffffff" d="M 597.769531 207.53125 C 597.769531 207.53125 597.863281 207.054688 597.589844 206.589844 C 596.667969 205.050781 594.441406 202.070312 590.195312 201.257812 C 585.441406 200.339844 581.964844 204.300781 580.765625 205.730469 C 580.558594 205.972656 580.53125 206.21875 580.53125 206.21875 C 580.53125 206.21875 580.464844 206.480469 580.585938 206.695312 C 581.175781 207.726562 583.234375 210.671875 587.722656 211.601562 C 590.390625 212.160156 594.433594 211.4375 597.460938 208.25 C 597.667969 208.027344 597.742188 207.707031 597.769531 207.53125 Z M 597.769531 207.53125 " fill-opacity="1" fill-rule="nonzero"/><path fill="#26130f" d="M 592.792969 206.476562 C 592.792969 206.804688 592.761719 207.128906 592.699219 207.449219 C 592.632812 207.769531 592.539062 208.082031 592.414062 208.386719 C 592.289062 208.6875 592.132812 208.976562 591.953125 209.246094 C 591.769531 209.519531 591.5625 209.773438 591.332031 210.003906 C 591.101562 210.234375 590.847656 210.441406 590.574219 210.625 C 590.304688 210.808594 590.015625 210.960938 589.710938 211.085938 C 589.410156 211.210938 589.097656 211.304688 588.777344 211.371094 C 588.453125 211.433594 588.128906 211.464844 587.800781 211.464844 C 587.476562 211.464844 587.148438 211.433594 586.828125 211.371094 C 586.507812 211.304688 586.195312 211.210938 585.894531 211.085938 C 585.589844 210.960938 585.300781 210.808594 585.03125 210.625 C 584.757812 210.441406 584.503906 210.234375 584.273438 210.003906 C 584.042969 209.773438 583.835938 209.519531 583.652344 209.246094 C 583.472656 208.976562 583.316406 208.6875 583.191406 208.386719 C 583.066406 208.082031 582.972656 207.769531 582.90625 207.449219 C 582.84375 207.128906 582.8125 206.804688 582.8125 206.476562 C 582.8125 206.148438 582.84375 205.824219 582.90625 205.5 C 582.972656 205.179688 583.066406 204.867188 583.191406 204.566406 C 583.316406 204.261719 583.472656 203.976562 583.652344 203.703125 C 583.835938 203.429688 584.042969 203.179688 584.273438 202.945312 C 584.503906 202.714844 584.757812 202.507812 585.03125 202.324219 C 585.300781 202.144531 585.589844 201.988281 585.894531 201.863281 C 586.195312 201.738281 586.507812 201.644531 586.828125 201.582031 C 587.148438 201.515625 587.476562 201.484375 587.800781 201.484375 C 588.128906 201.484375 588.453125 201.515625 588.777344 201.582031 C 589.097656 201.644531 589.410156 201.738281 589.710938 201.863281 C 590.015625 201.988281 590.304688 202.144531 590.574219 202.324219 C 590.847656 202.507812 591.101562 202.714844 591.332031 202.945312 C 591.5625 203.179688 591.769531 203.429688 591.953125 203.703125 C 592.132812 203.976562 592.289062 204.261719 592.414062 204.566406 C 592.539062 204.867188 592.632812 205.179688 592.699219 205.5 C 592.761719 205.824219 592.792969 206.148438 592.792969 206.476562 Z M 592.792969 206.476562 " fill-opacity="1" fill-rule="nonzero"/><path fill="#ffffff" d="M 592.636719 206.1875 C 592.636719 206.371094 592.601562 206.550781 592.53125 206.722656 C 592.460938 206.894531 592.359375 207.042969 592.230469 207.175781 C 592.097656 207.304688 591.945312 207.40625 591.773438 207.476562 C 591.605469 207.550781 591.425781 207.585938 591.238281 207.585938 C 591.054688 207.585938 590.875 207.550781 590.703125 207.476562 C 590.53125 207.40625 590.382812 207.304688 590.25 207.175781 C 590.117188 207.042969 590.019531 206.894531 589.945312 206.722656 C 589.875 206.550781 589.839844 206.371094 589.839844 206.1875 C 589.839844 206 589.875 205.820312 589.945312 205.652344 C 590.019531 205.480469 590.117188 205.328125 590.25 205.195312 C 590.382812 205.066406 590.53125 204.964844 590.703125 204.894531 C 590.875 204.824219 591.054688 204.785156 591.238281 204.785156 C 591.425781 204.785156 591.605469 204.824219 591.773438 204.894531 C 591.945312 204.964844 592.097656 205.066406 592.230469 205.195312 C 592.359375 205.328125 592.460938 205.480469 592.53125 205.652344 C 592.601562 205.820312 592.636719 206 592.636719 206.1875 Z M 592.636719 206.1875 " fill-opacity="1" fill-rule="nonzero"/><path stroke-linecap="butt" transform="matrix(0.672612, 0, 0, 0.672585, 0.665679, 0.327825)" fill="none" stroke-linejoin="miter" d="M 862.28949 305.607704 C 862.28949 305.607704 873.788496 289.281935 887.639572 307.007388 " stroke="#231f20" stroke-width="1" stroke-opacity="1" stroke-miterlimit="10"/><path fill="#01a04c" d="M 722.492188 320.109375 C 722.492188 320.109375 761.492188 310.878906 800.234375 399.246094 L 779.773438 416.65625 C 779.773438 416.65625 746.257812 360.066406 716.65625 328.292969 L 722.492188 320.113281 Z M 722.492188 320.109375 " fill-opacity="1" fill-rule="nonzero"/><path stroke-linecap="butt" transform="matrix(0.672612, 0, 0, 0.672585, 0.665679, 0.327825)" fill="none" stroke-linejoin="miter" d="M 1216.139465 736.437276 C 1216.139465 736.437276 1157.750067 594.447799 1070.160162 495.041227 " stroke="#603913" stroke-width="1" stroke-opacity="1" stroke-miterlimit="10"/><path fill="#01a04c" d="M 578.835938 319.46875 C 578.835938 319.46875 551.667969 322.625 520.324219 397.933594 L 555.96875 427.464844 L 585.1875 333.074219 " fill-opacity="1" fill-rule="nonzero"/><path fill="#be9e7d" d="M 140.476562 520.128906 C 156.625 572.972656 178.230469 578.265625 178.230469 578.265625 C 276.214844 615.695312 383.003906 570.929688 383.003906 570.929688 L 377.867188 535.941406 L 238.765625 520.613281 L 223.265625 505.601562 " fill-opacity="1" fill-rule="nonzero"/><path fill="#be9e7d" d="M 383.011719 570.921875 C 387.417969 569.699219 395.730469 569.945312 395.730469 569.945312 L 402.578125 571.171875 L 421.417969 573.128906 C 421.417969 573.128906 461.789062 568.972656 470.351562 560.160156 C 474.640625 555.75 478.421875 544.992188 478.421875 544.992188 C 485.539062 535.71875 482.835938 527.929688 482.835938 527.929688 C 491.308594 518.042969 482.046875 515.667969 482.046875 515.667969 C 481.03125 505.808594 473.902344 510.335938 473.902344 510.335938 L 456.375 524.480469 C 456.375 524.480469 446.945312 529.71875 430.167969 528.125 C 413.394531 526.53125 430.605469 516.207031 430.605469 516.207031 C 437.808594 506.328125 426.800781 506.816406 426.800781 506.816406 C 412.378906 511.117188 394.769531 532.4375 394.769531 532.4375 C 394.769531 532.4375 384.714844 536.660156 377.867188 535.925781 " fill-opacity="1" fill-rule="nonzero"/><path stroke-linecap="butt" transform="matrix(0.672612, 0, 0, 0.672585, 0.665679, 0.327825)" fill="none" stroke-linejoin="miter" d="M 665.888787 799.289457 C 695.449363 793.51068 715.688776 766.208139 715.688776 766.208139 C 715.688776 766.208139 713.650315 750.649001 703.579974 758.28047 C 691.122717 767.741402 677.521367 779.310571 677.521367 779.310571 C 677.521367 779.310571 651.648603 792.848589 627.558766 781.058723 C 627.558766 781.058723 623.179851 776.540243 639.208769 767.009617 C 639.208769 767.009617 648.768044 752.211303 633.552187 753.047629 C 618.330523 753.889762 585.93004 791.141091 585.93004 791.141091 C 585.93004 791.141091 569.512015 795.311103 560.800646 796.327471 " stroke="#754c29" stroke-width="1" stroke-opacity="1" stroke-miterlimit="10"/><path stroke-linecap="butt" transform="matrix(0.672612, 0, 0, 0.672585, 0.665679, 0.327825)" fill="none" stroke-linejoin="miter" d="M 716.751563 784.038133 C 716.751563 784.038133 692.812722 811.207094 663.832904 813.79738 " stroke="#754c29" stroke-width="1" stroke-opacity="1" stroke-miterlimit="10"/><path stroke-linecap="butt" transform="matrix(0.672612, 0, 0, 0.672585, 0.665679, 0.327825)" fill="none" stroke-linejoin="miter" d="M 663.40895 828.671196 L 683.212794 827.800024 L 710.310958 809.807411 C 710.310958 809.807411 706.001734 826.748809 698.3125 832.359159 C 690.617457 837.969509 658.402817 848.400346 625.560959 851.641107 L 587.37032 846.907737 L 543.389525 855.369724 " stroke="#754c29" stroke-width="1" stroke-opacity="1" stroke-miterlimit="10"/></svg>