<?xml version="1.0" encoding="UTF-8"?>
<svg id="Layer_2" data-name="Layer 2" xmlns="http://www.w3.org/2000/svg" xmlns:xlink="http://www.w3.org/1999/xlink" viewBox="0 0 1333.48 1070.69">
  <defs>
    <style>
      .cls-1, .cls-2, .cls-3, .cls-4, .cls-5, .cls-6, .cls-7, .cls-8, .cls-9, .cls-10, .cls-11 {
        fill: none;
      }

      .cls-2 {
        stroke-width: 1.5px;
      }

      .cls-2, .cls-12, .cls-3, .cls-4, .cls-5, .cls-6, .cls-7, .cls-8, .cls-9, .cls-10, .cls-11 {
        stroke-miterlimit: 10;
      }

      .cls-2, .cls-3, .cls-9 {
        stroke: #231f20;
      }

      .cls-13 {
        fill: url(#linear-gradient);
      }

      .cls-14 {
        clip-path: url(#clippath);
      }

      .cls-15 {
        fill: #00a79d;
      }

      .cls-16 {
        fill: #f05380;
      }

      .cls-17 {
        fill: #fff;
      }

      .cls-18 {
        fill: #efcccd;
      }

      .cls-19 {
        fill: #803435;
      }

      .cls-20 {
        fill: #98b369;
      }

      .cls-21 {
        fill: #00a651;
      }

      .cls-22 {
        fill: #8b5e3c;
      }

      .cls-23 {
        fill: #8dc63f;
      }

      .cls-24 {
        fill: #ae8578;
      }

      .cls-25 {
        fill: #be9e7d;
      }

      .cls-26 {
        fill: #d6e69e;
      }

      .cls-27 {
        fill: #d3b694;
      }

      .cls-28 {
        fill: #db7777;
      }

      .cls-29 {
        fill: #231f20;
      }

      .cls-30 {
        fill: #414042;
      }

      .cls-31 {
        fill: #07935b;
      }

      .cls-32 {
        fill: #59bede;
      }

      .cls-33 {
        fill: #2e3192;
      }

      .cls-34 {
        fill: #26130f;
      }

      .cls-35 {
        clip-path: url(#clippath-1);
      }

      .cls-36 {
        clip-path: url(#clippath-2);
      }

      .cls-12 {
        fill: #e6e7e8;
      }

      .cls-12, .cls-5, .cls-10 {
        stroke: #fff;
      }

      .cls-4 {
        stroke: #006838;
      }

      .cls-6 {
        stroke: #2e3192;
      }

      .cls-7 {
        stroke: #603913;
      }

      .cls-8 {
        stroke: #be1e2d;
      }

      .cls-9 {
        stroke-width: 1.2px;
      }

      .cls-37 {
        opacity: .5;
      }

      .cls-38 {
        fill: #dea962;
      }

      .cls-38, .cls-39 {
        opacity: .8;
      }

      .cls-39 {
        fill: #edb36e;
      }

      .cls-40 {
        fill: #27aae1;
        opacity: .4;
      }

      .cls-10, .cls-11 {
        stroke-width: .5px;
      }

      .cls-11 {
        stroke: #fff200;
      }
    </style>
    <clipPath id="clippath">
      <rect class="cls-1" x="90.6" y="263.04" width="1117.82" height="192.99"/>
    </clipPath>
    <linearGradient id="linear-gradient" x1="2107.7" y1="411.73" x2="2107.7" y2="289.75" gradientTransform="translate(3276.85) rotate(-180) scale(1 -1)" gradientUnits="userSpaceOnUse">
      <stop offset="0" stop-color="#be9e7d"/>
      <stop offset=".7" stop-color="#231f20"/>
    </linearGradient>
    <clipPath id="clippath-1">
      <polygon class="cls-1" points="1127.01 537.21 1169.58 500.37 1185.95 516.74 1176.95 793.44 1104.91 809.81 1127.01 537.21"/>
    </clipPath>
    <clipPath id="clippath-2">
      <path class="cls-1" d="M341.98,407.84s2.91,5.46-22.93,44.58l-3.28,14.38,10.37,18.74,13.65-6.37,6-42.94,.36-27.11-4.19-1.27Z"/>
    </clipPath>
  </defs>
  <g>
    <g class="cls-37">
      <g class="cls-14">
        <path class="cls-21" d="M207.61,572.25s90.54,60.19,128.91-35.62c38.37-95.81,82.42-74.09,82.42-74.09,0,0,39.35-40.68-26.63-80.97-65.98-40.28-130.75,35.36-130.75,35.36,0,0-33.21,64.71-72.91,10.82-39.7-53.9-118.22,5.31-68.58,41.34,49.64,36.02,74.22,62.68,87.54,103.17Z"/>
        <path class="cls-23" d="M942.63,547s60.57,43.24,61.88-31.08c1.32-74.31-84.27-66.21-90.85-91.88-6.58-25.67-38.18-67.56-122.45-67.56s-14.48,116.2-77.68,131.06c-63.2,14.86-115.87,117.55-31.6,108.09,84.27-9.46,171.17,33.78,175.12,44.59s-3.95,9.46,3.95,10.81c7.9,1.35,151.42,21.62,81.63-104.04Z"/>
        <path class="cls-21" d="M903.27,488.7s-34.67-160.79,68.47-168.22c103.14-7.43,71.54,92.56,116.3,81.75,44.77-10.81,75.05-137.82,119.82-116.2l2.59,198.56-307.18,4.11Z"/>
        <path class="cls-15" d="M416.36,517.97s-5.27-156.74,134.3-117.55c139.57,39.18,176.44,58.1,202.77,32.43s66.99,37.83,41.39,85.12H416.36Z"/>
      </g>
    </g>
    <rect class="cls-38" x="-40.44" y="204.1" width="162.82" height="81.94" transform="translate(286.04 204.1) rotate(90)"/>
    <rect class="cls-38" x="585.29" y="-95.48" width="162.82" height="1333.41" transform="translate(1237.93 -95.48) rotate(90)"/>
    <rect class="cls-38" x="585.29" y="229.95" width="162.82" height="1333.41" transform="translate(1563.36 229.95) rotate(90)"/>
    <rect class="cls-39" x="585.29" y="67.12" width="162.82" height="1333.41" transform="translate(1400.53 67.12) rotate(90)"/>
    <rect class="cls-39" x="-40.44" y="40.44" width="162.82" height="81.94" transform="translate(122.38 40.44) rotate(90)"/>
    <rect class="cls-39" x="-40.44" y="367.24" width="162.82" height="81.94" transform="translate(449.18 367.24) rotate(90)"/>
    <rect class="cls-38" x="1206.26" y="199.26" width="162.82" height="91.62" transform="translate(1532.74 -1042.59) rotate(90)"/>
    <rect class="cls-39" x="1206.26" y="35.6" width="162.82" height="91.62" transform="translate(1369.08 -1206.26) rotate(90)"/>
    <rect class="cls-39" x="1206.26" y="362.4" width="162.82" height="91.62" transform="translate(1695.88 -879.45) rotate(90)"/>
    <rect class="cls-40" x="111.58" width="1096.86" height="455.98"/>
    <rect class="cls-22" x="77.9" width="33.68" height="484.45"/>
    <rect class="cls-22" x="1208.67" width="33.68" height="484.45"/>
    <rect class="cls-22" x="643.19" y="-109.58" width="33.68" height="1164.74" transform="translate(1132.82 -187.25) rotate(90)"/>
  </g>
  <rect class="cls-26" x=".17" y="900.08" width="1333" height="98.54"/>
  <rect class="cls-20" x=".17" y="949.5" width="1333" height="49.27"/>
  <g>
    <path class="cls-25" d="M1163.57,433.51s-9.88,31.3,6.08,61.88c0,0,3.99,111.69-81.11,120.34,0,0-59.37-43.5-34.34-115.16l109.37-67.06Z"/>
    <path class="cls-32" d="M1027.6,916.7c180.43,8.34,215.15-6.48,241.7-23.33,9.97-6.33,29.75-40.2,30-52.01l3.21-159.74c-4.39-60.69-35.3-114.73-35.3-114.73-37.75-47.82-97.56-71.51-97.56-71.51-23.96,28.87-48.03,41.75-57.23,58.3-12.58,22.65-21.5,35.8-21.5,35.8-12.14-9.31-2.52-54.67-2.52-54.67-27.41-12.3-38.27-30.25-38.27-30.25-35.4,9.29-39.96,13.15-67.84,37.12-33.99,29.22-42.86,80.69-42.86,80.69-10.79,51.09-7.94,74.16-27.74,150.03l-12.72,30.69c-21.27,49.31-1.93,99.59-1.93,99.59l49.46,5.97,75.47,5.77,5.64,2.29"/>
    <path class="cls-25" d="M1025.01,302.75s-19.76,18.63-14.68,67.74c0,0,4.52,12.42,2.26,26.53,0,0-6.3,24.83,.36,46.05,9.05,28.82,23.91,40.89,23.91,40.89,0,0,11.29,11.29,26.53,8.47,0,0,23.14,7.9,43.47-5.08,20.32-12.98,55.32-53.63,55.32-53.63,0,0,18.63,5.08,24.27-14.11,5.64-19.19,14.11-33.87,2.26-45.16-11.85-11.29-26.53,19.76-26.53,19.76,0,0-1.61-10.27,.65-24.39,0,0-.32-27.63-17.02-60.85,0,0-52.37-22.73-120.8-6.21Z"/>
    <path class="cls-29" d="M1077.44,356.75s27.94-.32,44.51,19.88c0,0-1.83-26.18-41.37-29.87,0,0-8.29,3.9-3.14,9.99Z"/>
    <path class="cls-29" d="M1011.82,366.2c14.73-11.12,25.81-8.42,25.81-8.42,4.55-6.25-3.75-9.31-3.75-9.31-11.84,2.11-19.97,6.01-25.57,10.38,0,0,2.71,7.95,3.51,7.34Z"/>
    <path class="cls-34" d="M1064.91,493.91s28.27,4.31,40.17-5.64c0,0,13.84-7.02,30.03-25.15,0,0-19.71,32.45-45.82,35.49,0,0-12.28,2.14-24.37-4.7,0,0,.49,2.82,0,0Z"/>
    <path class="cls-32" d="M1120.41,806.9s-70.63,12.24-130.95,29.7l-42.06,5.39s-21.54,38.24-.9,71.75c0,0,31.98,2.44,49.46-4.65,0,0,32.99,10.08,73.14,8.03,0,0-31.16-67.88,51.31-110.22Z"/>
    <path class="cls-9" d="M1188.08,402.37s-8.08-21.44-24.54,13.05c0,0,13.98-15.22,16.47-2.17"/>
    <path class="cls-9" d="M1037.99,404.04s-12.81,19.05,9.52,21.3"/>
    <g>
      <path class="cls-17" d="M1106.4,379.86s.03-.68-.45-1.26c-1.6-1.94-5.32-5.59-11.37-5.81-6.78-.25-10.75,5.98-12.11,8.2-.23,.38-.23,.73-.23,.73,0,0-.04,.38,.18,.65,1.04,1.3,4.51,4.94,10.93,5.27,3.82,.2,9.26-1.65,12.77-6.71,.24-.35,.28-.81,.28-1.06Z"/>
      <circle class="cls-34" cx="1092.37" cy="380.54" r="7.01"/>
      <circle class="cls-17" cx="1096.85" cy="379.28" r="1.92"/>
      <path class="cls-3" d="M1082.05,380.98s8.85-15.87,24.16-2.43"/>
    </g>
    <g>
      <path class="cls-17" d="M1036.84,382.66s.13-.63-.24-1.24c-1.21-2.03-4.15-5.96-9.75-7.03-6.27-1.2-10.85,4.02-12.43,5.89-.27,.32-.31,.65-.31,.65,0,0-.09,.34,.07,.63,.78,1.35,3.49,5.24,9.41,6.47,3.52,.73,8.85-.21,12.84-4.42,.28-.29,.37-.71,.41-.94Z"/>
      <circle class="cls-34" cx="1023.7" cy="381.28" r="6.57"/>
      <circle class="cls-17" cx="1028.23" cy="380.89" r="1.84"/>
      <path class="cls-3" d="M1014.28,380.48s10.19-14.48,22.47,1.24"/>
    </g>
    <path class="cls-27" d="M944.82,847.98l-78.95-16.67-56.4,19.62-17.16,34.82c5.39,15.2,16.67-3.43,16.67-3.43l5.88,19.62c10.3,5.88,12.75-1.96,12.75-1.96l9.32,14.22c7.36,3.43,9.81-4.41,9.81-4.41l14.22,17.65c10.79-5.39,6.87-19.13,6.87-19.13,37.27,7.36,71.11-12.75,71.11-12.75"/>
    <path class="cls-7" d="M865.51,888.35s-34.24,1.53-18.77,21.42l14.22,17.65s11.31-.73,6.87-19.13c0,0,30.79,8.69,71.11-12.75"/>
    <path class="cls-7" d="M851.74,864.67l-25.88,12.66s-7.57,8.4,1.75,22.62"/>
    <path class="cls-7" d="M845.69,847.05s-34.69,9.36-36.89,24.78,.18,10.47,.18,10.47"/>
    <path class="cls-3" d="M957.06,648.75s-7.1,92.31,8.52,183.2"/>
    <path class="cls-3" d="M1208.42,599.04c-25.56,62.49,4.26,194.56,4.26,194.56-40.86-2.19-92.27,13.3-92.27,13.3,0,0-104.74,21.16-130.95,29.7l-43.64-2.14-1.01,13.51"/>
    <path class="cls-3" d="M1212.68,793.6s36.92,5.68,44.02,25.56"/>
    <path class="cls-29" d="M1144.89,314.59s-26.99-17.84-42.62,2.36c-20.37,26.31-34.63,.31-51.22,14.81,0,0-16.03-33.21-35.97-10.31,0,0-11.72-37.76,32.18-63.76,0,0,49.25-28.52,97.98,4.23,0,0,47.48,8.75,45.61,52.66,0,0-25.84-24.04-45.96,.02Z"/>
    <path class="cls-13" d="M1183.25,289.75s27.32,18.66,10.48,92.57c0,0-15.95-21.53-32.1,15.57l-8.23,13.84s14.88-76.92-14.32-106.7l44.17-15.29Z"/>
    <path class="cls-33" d="M1184.89,502.43s-61.2,33.28-73.83,55.36l1.75-21.88s41.25-23.26,58.12-45.76l13.95,12.28Z"/>
    <path class="cls-33" d="M1060.87,495.71s-23.96-.79-23.06,14.73l49.01,37.31,1.58-12.94s-23.11-11.55-38.27-30.25c0,0,10.17-1.37,10.74-8.86Z"/>
    <path class="cls-6" d="M1091.34,617.17s-6.82,61.37-10.88,189"/>
    <ellipse class="cls-18" cx="1105.28" cy="625.75" rx="3.82" ry="4.14"/>
    <ellipse class="cls-18" cx="1095.6" cy="695.23" rx="3.82" ry="4.14"/>
    <ellipse class="cls-18" cx="1090.81" cy="770.45" rx="3.82" ry="4.14"/>
    <g>
      <polyline class="cls-17" points="996.72 834.7 987.26 845.98 998.89 855.73 1008.77 843.95 997.63 834.58"/>
      <polygon class="cls-33" points="1008.01 834.08 997.63 834.58 1008.68 843.83 1017.03 833.9 1008.01 834.08"/>
      <polyline class="cls-17" points="1017.09 833.95 1008.7 843.95 1020.32 853.7 1030.2 841.92 1020.7 833.96"/>
      <rect class="cls-17" x="992.15" y="858.93" width="15.38" height="15.17" transform="translate(-306.58 1075.85) rotate(-50.02)"/>
      <rect class="cls-33" x="1001.94" y="847.03" width="15.38" height="15.17" transform="translate(-293.96 1079.09) rotate(-50.02)"/>
      <rect class="cls-17" x="1013.58" y="856.91" width="15.38" height="15.17" transform="translate(-297.36 1091.55) rotate(-50.02)"/>
      <rect class="cls-17" x="993.89" y="880.37" width="15.38" height="15.17" transform="translate(-322.38 1084.84) rotate(-50.02)"/>
      <rect class="cls-33" x="1003.68" y="868.47" width="15.38" height="15.17" transform="translate(-309.76 1088.09) rotate(-50.02)"/>
      <rect class="cls-17" x="1015.32" y="878.35" width="15.38" height="15.17" transform="translate(-313.17 1100.54) rotate(-50.02)"/>
      <rect class="cls-33" x="1005.42" y="889.91" width="15.38" height="15.17" transform="translate(-325.57 1097.09) rotate(-50.02)"/>
      <polygon class="cls-17" points="1002.31 898.34 998.75 903.79 1008.65 914.36 1013.94 908.09 1002.31 898.34"/>
      <rect class="cls-17" x="1016.93" y="899.49" width="15.38" height="15.17" transform="translate(-328.8 1109.34) rotate(-50.02)"/>
    </g>
    <g class="cls-35">
      <g>
        <rect class="cls-17" x="1141.46" y="957.04" width="18.5" height="18.5" transform="translate(-349.97 1042.66) rotate(-42.93)"/>
        <rect class="cls-33" x="1128" y="969.8" width="18.5" height="18.5" transform="translate(-362.26 1036.91) rotate(-42.93)"/>
        <rect class="cls-17" x="1115.4" y="956.1" width="18.5" height="18.5" transform="translate(-356.31 1024.65) rotate(-42.93)"/>
        <rect class="cls-17" x="1142.32" y="930.85" width="18.5" height="18.5" transform="translate(-331.89 1036.23) rotate(-42.93)"/>
        <rect class="cls-33" x="1128.87" y="943.61" width="18.5" height="18.5" transform="translate(-344.19 1030.48) rotate(-42.93)"/>
        <rect class="cls-17" x="1116.26" y="929.91" width="18.5" height="18.5" transform="translate(-338.23 1018.22) rotate(-42.93)"/>
        <rect class="cls-17" x="1143.26" y="904.81" width="18.5" height="18.5" transform="translate(-313.91 1029.89) rotate(-42.93)"/>
        <rect class="cls-33" x="1129.81" y="917.58" width="18.5" height="18.5" transform="translate(-326.2 1024.15) rotate(-42.93)"/>
        <rect class="cls-17" x="1117.2" y="903.88" width="18.5" height="18.5" transform="translate(-320.25 1011.89) rotate(-42.93)"/>
        <rect class="cls-17" x="1138.79" y="1035.6" width="18.5" height="18.5" transform="translate(-404.19 1061.88) rotate(-42.93)"/>
        <rect class="cls-33" x="1125.33" y="1048.36" width="18.5" height="18.5" transform="translate(-416.49 1056.13) rotate(-42.93)"/>
        <rect class="cls-17" x="1112.73" y="1034.66" width="18.5" height="18.5" transform="translate(-410.53 1043.87) rotate(-42.93)"/>
        <rect class="cls-17" x="1139.65" y="1009.41" width="18.5" height="18.5" transform="translate(-386.12 1055.45) rotate(-42.93)"/>
        <rect class="cls-33" x="1126.19" y="1022.17" width="18.5" height="18.5" transform="translate(-398.41 1049.7) rotate(-42.93)"/>
        <rect class="cls-17" x="1113.59" y="1008.47" width="18.5" height="18.5" transform="translate(-392.46 1037.45) rotate(-42.93)"/>
        <rect class="cls-17" x="1140.59" y="983.37" width="18.5" height="18.5" transform="translate(-368.13 1049.12) rotate(-42.93)"/>
        <rect class="cls-33" x="1127.13" y="996.13" width="18.5" height="18.5" transform="translate(-380.43 1043.37) rotate(-42.93)"/>
        <rect class="cls-17" x="1114.53" y="982.43" width="18.5" height="18.5" transform="translate(-374.47 1031.11) rotate(-42.93)"/>
        <rect class="cls-17" x="1144.2" y="878.77" width="18.5" height="18.5" transform="translate(-295.92 1023.56) rotate(-42.93)"/>
        <rect class="cls-33" x="1130.74" y="891.54" width="18.5" height="18.5" transform="translate(-308.21 1017.81) rotate(-42.93)"/>
        <rect class="cls-17" x="1118.14" y="877.83" width="18.5" height="18.5" transform="translate(-302.26 1005.55) rotate(-42.93)"/>
        <rect class="cls-17" x="1145.14" y="852.74" width="18.5" height="18.5" transform="translate(-277.93 1017.22) rotate(-42.93)"/>
        <rect class="cls-33" x="1131.68" y="865.5" width="18.5" height="18.5" transform="translate(-290.23 1011.48) rotate(-42.93)"/>
        <rect class="cls-17" x="1119.08" y="851.8" width="18.5" height="18.5" transform="translate(-284.27 999.22) rotate(-42.93)"/>
        <rect class="cls-17" x="1146.08" y="826.79" width="18.5" height="18.5" transform="translate(-260.01 1010.91) rotate(-42.93)"/>
        <rect class="cls-33" x="1132.62" y="839.55" width="18.5" height="18.5" transform="translate(-272.3 1005.16) rotate(-42.93)"/>
        <rect class="cls-17" x="1120.01" y="825.85" width="18.5" height="18.5" transform="translate(-266.35 992.91) rotate(-42.93)"/>
        <rect class="cls-17" x="1147.01" y="800.75" width="18.5" height="18.5" transform="translate(-242.02 1004.57) rotate(-42.93)"/>
        <rect class="cls-33" x="1133.56" y="813.51" width="18.5" height="18.5" transform="translate(-254.31 998.83) rotate(-42.93)"/>
        <rect class="cls-17" x="1120.95" y="799.81" width="18.5" height="18.5" transform="translate(-248.36 986.57) rotate(-42.93)"/>
        <rect class="cls-17" x="1147.95" y="774.8" width="18.5" height="18.5" transform="translate(-224.09 998.26) rotate(-42.93)"/>
        <rect class="cls-33" x="1134.49" y="787.56" width="18.5" height="18.5" transform="translate(-236.39 992.51) rotate(-42.93)"/>
        <rect class="cls-17" x="1121.89" y="773.86" width="18.5" height="18.5" transform="translate(-230.43 980.26) rotate(-42.93)"/>
        <rect class="cls-17" x="1148.89" y="748.76" width="18.5" height="18.5" transform="translate(-206.1 991.93) rotate(-42.93)"/>
        <rect class="cls-33" x="1135.43" y="761.52" width="18.5" height="18.5" transform="translate(-218.4 986.18) rotate(-42.93)"/>
        <rect class="cls-17" x="1122.83" y="747.82" width="18.5" height="18.5" transform="translate(-212.44 973.92) rotate(-42.93)"/>
        <rect class="cls-17" x="1149.83" y="722.82" width="18.5" height="18.5" transform="translate(-188.18 985.61) rotate(-42.93)"/>
        <rect class="cls-33" x="1136.37" y="735.58" width="18.5" height="18.5" transform="translate(-200.47 979.87) rotate(-42.93)"/>
        <rect class="cls-17" x="1123.76" y="721.88" width="18.5" height="18.5" transform="translate(-194.52 967.61) rotate(-42.93)"/>
        <rect class="cls-17" x="1150.86" y="696.32" width="18.5" height="18.5" transform="translate(-169.85 979.22) rotate(-42.93)"/>
        <rect class="cls-33" x="1137.41" y="709.08" width="18.5" height="18.5" transform="translate(-182.15 973.48) rotate(-42.93)"/>
        <rect class="cls-17" x="1124.8" y="695.38" width="18.5" height="18.5" transform="translate(-176.19 961.22) rotate(-42.93)"/>
        <rect class="cls-17" x="1151.73" y="670.13" width="18.5" height="18.5" transform="translate(-151.78 972.79) rotate(-42.93)"/>
        <rect class="cls-33" x="1138.27" y="682.89" width="18.5" height="18.5" transform="translate(-164.08 967.05) rotate(-42.93)"/>
        <rect class="cls-17" x="1125.66" y="669.19" width="18.5" height="18.5" transform="translate(-158.12 954.79) rotate(-42.93)"/>
        <rect class="cls-17" x="1152.66" y="644.09" width="18.5" height="18.5" transform="translate(-133.79 966.46) rotate(-42.93)"/>
        <rect class="cls-33" x="1139.21" y="656.85" width="18.5" height="18.5" transform="translate(-146.09 960.71) rotate(-42.93)"/>
        <rect class="cls-17" x="1126.6" y="643.15" width="18.5" height="18.5" transform="translate(-140.13 948.46) rotate(-42.93)"/>
        <rect class="cls-17" x="1153.6" y="618.05" width="18.5" height="18.5" transform="translate(-115.81 960.12) rotate(-42.93)"/>
        <rect class="cls-33" x="1140.15" y="630.81" width="18.5" height="18.5" transform="translate(-128.1 954.38) rotate(-42.93)"/>
        <rect class="cls-17" x="1127.54" y="617.11" width="18.5" height="18.5" transform="translate(-122.15 942.12) rotate(-42.93)"/>
        <rect class="cls-17" x="1154.54" y="592.01" width="18.5" height="18.5" transform="translate(-97.82 953.79) rotate(-42.93)"/>
        <rect class="cls-33" x="1141.09" y="604.77" width="18.5" height="18.5" transform="translate(-110.11 948.04) rotate(-42.93)"/>
        <rect class="cls-17" x="1128.48" y="591.07" width="18.5" height="18.5" transform="translate(-104.16 935.79) rotate(-42.93)"/>
        <rect class="cls-17" x="1155.48" y="566.07" width="18.5" height="18.5" transform="translate(-79.89 947.48) rotate(-42.93)"/>
        <rect class="cls-33" x="1142.02" y="578.83" width="18.5" height="18.5" transform="translate(-92.19 941.73) rotate(-42.93)"/>
        <rect class="cls-17" x="1129.42" y="565.13" width="18.5" height="18.5" transform="translate(-86.23 929.47) rotate(-42.93)"/>
        <rect class="cls-17" x="1156.42" y="540.03" width="18.5" height="18.5" transform="translate(-61.9 941.14) rotate(-42.93)"/>
        <rect class="cls-33" x="1142.96" y="552.79" width="18.5" height="18.5" transform="translate(-74.2 935.39) rotate(-42.93)"/>
        <rect class="cls-17" x="1130.36" y="539.09" width="18.5" height="18.5" transform="translate(-68.24 923.14) rotate(-42.93)"/>
        <rect class="cls-17" x="1157.3" y="514.08" width="18.5" height="18.5" transform="translate(-43.99 934.79) rotate(-42.93)"/>
        <rect class="cls-33" x="1143.84" y="526.84" width="18.5" height="18.5" transform="translate(-56.29 929.04) rotate(-42.93)"/>
        <polyline class="cls-33" points="1151.24 520.34 1153.48 522.84 1167.03 510.24 1166.37 509.54"/>
        <polygon class="cls-17" points="1140.02 535.46 1153.57 522.86 1151.24 520.34 1137.04 532.05 1140.02 535.46"/>
      </g>
    </g>
    <path class="cls-24" d="M1034.3,453.62s10.84-15.71,26.72-11.07c0,0,11.96-8.1,35.45,7.39,0,0-11.25,15.37-33.69,14.83-22.44-.54-28.48-11.15-28.48-11.15Z"/>
    <path class="cls-19" d="M1037.58,454.41s7.9-8.57,24.16-8.99,31.75,5.43,31.75,5.43c0,0-23.78,3.44-30.27,7.51,0,0-12.06-3.66-25.64-3.96Z"/>
    <path class="cls-17" d="M1044.09,449.89s11.25-9.1,39.27-1.94c0,0-23.77-1.41-39.27,1.94Z"/>
    <path class="cls-34" d="M1039.3,345.41s5.91,7.4,.47,13.91c0,0,9.82-6.31-.47-13.91Z"/>
    <path class="cls-34" d="M1071.77,344.38s-4.84,7.56,.3,13.43c0,0-9.01-5.36-.3-13.43Z"/>
  </g>
  <g>
    <path class="cls-30" d="M568.89,502.5s4.37-13.1-8.06-17.13l-42.98,1.68s-8.73,0-11.75,9.74l-35.59,100.74s-4.7,11.75,7.72,13.77l25.52-.34,39.62-37.61,25.52-70.85Z"/>
    <path class="cls-5" d="M561.84,489.07l-39.96,1.01s-8.06-1.34-12.76,10.07l-34.92,101.75s-4.7,7.39,4.03,9.4"/>
    <ellipse class="cls-12" cx="555.46" cy="501.66" rx="3.69" ry="3.86"/>
    <path class="cls-25" d="M418.21,658.83s16.21,19.45,16.21,28.99l73.08-80.7v-6.9c0-2.81,1.11-5.5,3.1-7.48l8.19-8.19-1.74-13.02s-12.8-2.95-14.35-9.66c-.42-1.84,1.25-3.48,3.1-3.1l17.31,3.53-2.61-6.71-16.4-6.71s-6.34-8.57,4.47-12.67l32.8,8.95,7.08,10.81v-16.03s-19.19-2.28-19.89-15.94c-.08-1.51,1.37-2.62,2.79-2.11l25.31,9.11,8.2,22.74,2.66,27.64c.2,2.12-.4,4.23-1.7,5.92l-30.16,34.06s-53.35,200.14-101.27,195.9-55.21-34.99-55.21-34.99c0,0-6.01-63.08-3.09-98.2l42.12-25.22Z"/>
    <path class="cls-25" d="M193.94,404.82s2.97,49.71-11.52,78.63c0,0-17.67,137.3,94.15,145.25,0,0,87.39-22.19,41.06-132.35,0,0-22.87-5.64-22.52-25.15,.36-20.66,2.65,.46,2.65,.46l-103.81-66.83"/>
    <path class="cls-25" d="M185.07,366.06s5.23-104.3,98.58-110.9c0,0,79.02,1.78,60.73,99.29,0,0-3.1,10.41-.64,18.43,0,0,9.38,12.35-2.54,42.74-11.92,30.39-30.74,48-30.74,48,0,0-11.26,12.35-34.49,12.42,0,0-18.39,2.08-39.04-11.44,0,0-50.22-27.07-47.25-57.91,0,0-23.1,15.07-33.01-21.54,0,0-8.46-50.63,28.41-19.08Z"/>
    <path class="cls-31" d="M407.67,901.35s-11.41-83.9-12.23-162.54c0,0,19.66-15.56,18.84-53.24l11.47-27.03-16.12-73.13s-3.78-47.65-58.66-68.95c0,0-18.6-11.92-33.35-20.11,0,0,7.86,31.94,2.12,54.05,0,0-48.08,43.41-121.8,0,0,0-13.84-10.64-13.02-64.7,0,0-18.84,13.24-58.98,28.67-66.65,25.62-74.68,119-74.68,119,0,0,1.25,38.19,71.55,66.49l-39.59,200.64"/>
    <path class="cls-34" d="M271.66,330.23s-33.01-3.81-45.39,9.13c0,0,7.56-18.33,44.76-16.71,0,0,7.17,3.55,.64,7.58Z"/>
    <path class="cls-34" d="M347.77,332.9c-.28-1.78-15.84-6-30.91-6.54,0,0-7.43,2.97-1.24,7.5,0,0,28.15-2.72,30.18,6.67,0,0,2.66-3.23,1.97-7.63Z"/>
    <path class="cls-9" d="M306.2,379.31s12.76,19.64-10.07,21.57"/>
    <path class="cls-9" d="M161.21,378.04s6.97-17.64,20.14,11.13c0,0-11.37-12.79-13.6-2.02"/>
    <path class="cls-34" d="M292.65,473.48s-16.46,7.63-44.88-2.59c0,0-14.07-5.63-31.66-20.26,0,0,21.7,25.33,54.69,28.27,0,0,10.37,1.23,22.21-2.2,0,0-.96,0-.35-3.22Z"/>
    <g>
      <path class="cls-17" d="M238.04,353.07s-.02-.69,.48-1.27c1.65-1.93,5.47-5.56,11.59-5.69,6.86-.14,10.77,6.22,12.11,8.49,.23,.39,.22,.74,.22,.74,0,0,.03,.38-.19,.65-1.07,1.29-4.64,4.92-11.13,5.15-3.86,.14-9.33-1.82-12.8-7-.24-.36-.27-.82-.26-1.07Z"/>
      <circle class="cls-34" cx="252.21" cy="353.99" r="7.09"/>
      <circle class="cls-17" cx="247.7" cy="352.64" r="1.95"/>
      <path class="cls-2" d="M262.63,354.6s-8.69-16.19-24.39-2.85"/>
    </g>
    <g>
      <path class="cls-17" d="M318.06,357.2s-.12-.64,.26-1.25c1.26-2.03,4.29-5.95,9.97-6.95,6.36-1.12,10.91,4.24,12.47,6.16,.27,.33,.31,.66,.31,.66,0,0,.08,.35-.09,.64-.81,1.36-3.61,5.24-9.62,6.38-3.57,.68-8.94-.36-12.91-4.68-.28-.3-.37-.73-.4-.96Z"/>
      <circle class="cls-34" cx="331.37" cy="356.01" r="6.65"/>
      <circle class="cls-17" cx="326.79" cy="355.55" r="1.86"/>
      <path class="cls-2" d="M340.9,355.36s-10.07-14.81-22.74,.89"/>
    </g>
    <path class="cls-8" d="M170.58,704.6s.5-27.11-.12-53.41"/>
    <line class="cls-4" x1="414.28" y1="685.56" x2="406.26" y2="644.9"/>
    <path class="cls-29" d="M359.38,520.67c3.14-35.79-.9-106.6-.9-106.6,14.47-113.74-19.75-151.34-19.75-151.34-79.12-67.6-146.11-15.5-146.11-15.5-18.54,5.7-62.32,31.36-63.75,88.4-1.43,57.05-8.13,74.02-13.83,113.95,0,0-29.68,118.36,2.08,251.08,4.83,20.19-7.33,65.99-7.33,65.99,0,0,80.39,11.92,102.65-193.31,6.68-61.62-22.06-166.49-22.06-166.49-19.47,8.03-24.81-4.26-24.81-4.26,0,0-12.24-18.24-7.82-37.11,4.49-19.17,27.43,1.25,27.43,1.25,12.72-72.93,43.01-91.26,43.01-91.26,75.78,32.18,108.03,24.53,108.03,24.53,0,0,7.43,15.43,8.23,28.4,.8,12.97-1.76,24.28-1.76,24.28-3.71,8.75-.34,18.25-.34,18.25,8.39,18.47-1.14,39.95-1.14,39.95-21.07,55.12-47.82,60.46-47.82,60.46,.26,18.03,24.29,26.24,24.29,26.24"/>
    <g>
      <circle class="cls-11" cx="173.48" cy="422.18" r="15.08"/>
      <line class="cls-11" x1="173.48" y1="437.27" x2="173.48" y2="486.05"/>
      <line class="cls-11" x1="162.05" y1="432.1" x2="162.05" y2="458.17"/>
      <line class="cls-11" x1="165.95" y1="435.29" x2="165.95" y2="469.16"/>
      <line class="cls-11" x1="169.67" y1="436.71" x2="169.67" y2="477.85"/>
      <line class="cls-11" x1="181.05" y1="435.29" x2="181.05" y2="469.16"/>
      <line class="cls-11" x1="177.33" y1="436.71" x2="177.33" y2="477.85"/>
      <line class="cls-11" x1="185.07" y1="432.1" x2="185.07" y2="458.17"/>
    </g>
    <g class="cls-36">
      <g>
        <circle class="cls-11" cx="329.31" cy="415.45" r="15.08"/>
        <line class="cls-11" x1="329.31" y1="430.54" x2="329.31" y2="479.32"/>
        <line class="cls-11" x1="321.78" y1="445.04" x2="321.78" y2="462.43"/>
        <line class="cls-11" x1="325.51" y1="429.98" x2="325.51" y2="471.12"/>
        <line class="cls-11" x1="336.88" y1="428.56" x2="336.88" y2="462.43"/>
        <line class="cls-11" x1="333.16" y1="429.98" x2="333.16" y2="471.12"/>
        <line class="cls-11" x1="340.91" y1="425.37" x2="340.91" y2="451.44"/>
      </g>
    </g>
    <path class="cls-16" d="M46.98,638.62s25.86,43.46,69.28,58.48l-4.96-23.67s-10.92,6.46-57.33-56.21l-6.99,21.4Z"/>
    <polygon class="cls-16" points="413.83 687.5 412.76 667.66 422.93 643.96 425.85 658.9 413.83 687.5"/>
    <path class="cls-16" d="M200.81,643.57s96.97,19.48,171.84-27.44l6.89,19.57s-78.74,53.83-183.11,24.33l4.38-16.46Z"/>
    <polyline class="cls-10" points="199.84 646.76 208.67 658.91 220.27 648.42 226.89 660.57 238.49 651.73 250.08 664.98 258.91 652.29 268.85 662.77 276.02 651.18 288.17 660.57 296.45 648.42 309.15 658.36 316.88 645.11 328.47 652.29 335.09 639.04 349.45 644.56 354.97 631.31 368.77 637.38 371.53 624.13"/>
    <polyline class="cls-10" points="197.63 655.6 209.78 645.66 217.51 660.57 229.1 648.42 237.38 663.88 248.42 651.73 260.02 664.43 268.85 651.18 277.68 662.22 285.96 648.42 297.55 660.57 305.84 645.66 317.43 655.6 325.71 640.69 336.75 650.08 343.93 634.62 358.83 642.35 362.7 625.23 375.69 637.35"/>
    <polyline class="cls-10" points="53.14 623.32 53.49 641.69 62.07 637.34 62.31 653.29 71.83 646.68 73.41 664.47 82.47 657.25 84.11 675.38 94.14 668.15 95.69 683.7 104.79 674.43 108.49 691.44 113.4 685.35"/>
    <polyline class="cls-10" points="48.82 636.29 59.1 630.23 57.32 647.94 67.8 641.16 66.42 657.41 77.41 651.57 77.57 668.93 88.58 661.35 88.85 681.12 99.88 671.29 102.18 688.07 111.01 677.76"/>
    <polyline class="cls-10" points="422.72 647.15 422.18 661.67 418.21 658.83 418.57 672.09 413.15 671.46 416.04 676.51 415.86 665.14 420.37 668.3 420.37 653.15 423.99 656.3"/>
    <path class="cls-7" d="M541.85,568.63s.71-15.52-8.82-19.05-30.34-9.17-30.34-9.17"/>
    <path class="cls-7" d="M532.49,578.29s-2.86-13.25-9.4-16"/>
    <line class="cls-7" x1="548.44" y1="555.95" x2="551.48" y2="563.76"/>
    <path class="cls-7" d="M434.41,691.18s-23.73,21.47-21.3,55.05"/>
    <path class="cls-28" d="M309.76,433.77s-9.2-14.79-23.88-11.24c0,0-10.55-7.9-32.63,5.21,0,0,9.6,14.49,30.07,14.96,20.47,.47,26.44-8.94,26.44-8.94Z"/>
    <path class="cls-19" d="M306.74,434.35s-6.83-8.15-21.63-9.23-29.17,3.59-29.17,3.59c0,0,21.52,4.16,27.27,8.15,0,0,11.15-2.82,23.54-2.5Z"/>
    <path class="cls-17" d="M301,429.95s-9.86-8.78-35.71-3.45c0,0,21.72-.26,35.71,3.45Z"/>
    <path class="cls-34" d="M282.03,319.37s4.4,7.92-1.76,13.2c0,0,10.27-4.4,1.76-13.2Z"/>
    <path class="cls-34" d="M309.16,321.92s-4.95,7.02-.28,12.85c0,0-8.39-5.51,.28-12.85Z"/>
    <path class="cls-25" d="M52.74,645.5s-13.27,172.76,44.35,174.75c57.63,1.99,118.57-94.72,124.53-231.18,0,0,3.05-32.26,8.59-46.37,0,0,13.6,1.01,10.08-18.64-3.53-19.65-3.02-38.79-3.02-38.79,0,0,19.14-32.24,4.53-37.28l-17.63,28.72-1.01,10.58-4.03-25.69,13.1-20.66s5.04-12.6-2.02-16.63l-10.08,11.59s6.55-12.6,.5-18.14l-10.08,8.56s1.01-4.03-2.02-5.54l-26.2,28.21s-2.02,61.97,5.04,87.16l-11.08,33.25s-51.89,87.16-60.46,113.36h0s-27.03,7.68-63.12-37.26Z"/>
    <path class="cls-7" d="M204.44,482.4l-1.8-25.97,27.58-32.12c7.38,4.67,2.02,16.63,2.02,16.63l-13.1,20.66,4.03,25.69,1.01-10.58,17.63-28.72c14.28,4.55-4.53,37.28-4.53,37.28l1.43,30.67c1.36,20.47-8.49,26.77-8.49,26.77,0,0-7.22,24.54-8.59,46.37"/>
    <path class="cls-7" d="M220.14,435.9s8.74-12.82,.5-18.14l-29.97,29.86,1.38,21.73"/>
    <path class="cls-7" d="M216.25,420.34s2.63-3.25-1.92-5.28l-24.98,26.9"/>
    <path class="cls-7" d="M115.85,682.76s-26.84,20.8-24.96,60.34"/>
  </g>
</svg>