<?xml version="1.0" encoding="UTF-8"?>
<svg xmlns="http://www.w3.org/2000/svg" viewBox="0 0 1334.71 1002.2">
  <defs>
    <style>
      .cls-1 {
        stroke-width: 1.5px;
      }

      .cls-1, .cls-2, .cls-3, .cls-4, .cls-5, .cls-6, .cls-7, .cls-8, .cls-9, .cls-10, .cls-11, .cls-12, .cls-13, .cls-14, .cls-15, .cls-16, .cls-17, .cls-18, .cls-19 {
        stroke-miterlimit: 10;
      }

      .cls-1, .cls-2, .cls-3, .cls-5, .cls-6, .cls-11, .cls-14, .cls-15, .cls-16, .cls-17, .cls-18, .cls-19 {
        fill: none;
      }

      .cls-1, .cls-3, .cls-6, .cls-9, .cls-14, .cls-19 {
        stroke: #231f20;
      }

      .cls-2, .cls-3, .cls-12, .cls-13 {
        stroke-width: .8px;
      }

      .cls-2, .cls-12 {
        stroke: #754c29;
      }

      .cls-20 {
        fill: #f7daa6;
      }

      .cls-21 {
        fill: #f7d9a4;
      }

      .cls-22 {
        fill: #00979c;
      }

      .cls-23, .cls-4, .cls-8 {
        fill: #e6e7e8;
      }

      .cls-24 {
        fill: #fff;
      }

      .cls-25 {
        fill: #803435;
      }

      .cls-26 {
        fill: #87664d;
      }

      .cls-27 {
        fill: #b6302e;
      }

      .cls-28 {
        fill: #b19074;
      }

      .cls-29 {
        fill: #ae8578;
      }

      .cls-30 {
        fill: #b1dcc4;
      }

      .cls-31 {
        fill: #b0c2cc;
      }

      .cls-32, .cls-13 {
        fill: #be9e7d;
      }

      .cls-33 {
        fill: #bfbfbf;
      }

      .cls-34 {
        fill: #d1d3d4;
      }

      .cls-35 {
        fill: #e2c799;
      }

      .cls-36 {
        fill: #d4d5d6;
      }

      .cls-37 {
        fill: #dc3b28;
      }

      .cls-38, .cls-9 {
        fill: #231f20;
      }

      .cls-39 {
        fill: #1fa8df;
      }

      .cls-40 {
        fill: #1c75bc;
      }

      .cls-41 {
        fill: #444848;
      }

      .cls-42, .cls-10 {
        fill: #727b78;
      }

      .cls-43 {
        fill: #26130f;
      }

      .cls-4 {
        stroke: #58595b;
        stroke-width: .2px;
      }

      .cls-5 {
        stroke: #b0c2cc;
        stroke-width: 5px;
      }

      .cls-6 {
        stroke-linecap: round;
      }

      .cls-6, .cls-7, .cls-19 {
        stroke-width: .5px;
      }

      .cls-7 {
        fill: #754c29;
        stroke: #fff;
      }

      .cls-8, .cls-17 {
        stroke: #6d6e71;
      }

      .cls-10 {
        stroke: #414042;
      }

      .cls-11 {
        stroke: #444848;
        stroke-width: 2px;
      }

      .cls-12 {
        fill: #dcbf97;
      }

      .cls-13, .cls-16 {
        stroke: #603913;
      }

      .cls-15 {
        stroke: #d1d3d4;
      }

      .cls-18 {
        stroke: #be1e2d;
      }
    </style>
  </defs>
  <g id="fondo">
    <rect class="cls-30" x="0" width="1334.13" height="959.39"/>
    <rect class="cls-21" y="955.14" width="1334.71" height="47.06"/>
    <g>
      <rect class="cls-41" x="633.17" y="697.1" width="83.6" height="129.71"/>
      <path class="cls-42" d="M1156.88,247.95s61.67,7.37,60.78,57l-22.24,187.18v207.71H168.92l-34.39-206.47-15.66-187.86s-5.43-58.17,99.37-65.12c0,0,440.37-43.17,938.66,7.57Z"/>
      <rect class="cls-41" x="28.37" y="825.38" width="1280.3" height="70.25"/>
      <rect class="cls-26" x="28.4" y="895.08" width="71.41" height="61.02"/>
      <rect class="cls-26" x="1237.37" y="894.32" width="71.41" height="61.02"/>
      <path class="cls-41" d="M78.96,493.23h60.7s32.39,9.89,32.39,44.94v159.69H68.19s10.77-204.63,10.77-204.63Z"/>
      <path class="cls-41" d="M1260.16,493.23h-60.7s-32.39,9.89-32.39,44.94v159.69h103.86l-10.77-204.63Z"/>
      <rect class="cls-42" x="2.05" y="493.23" width="122.52" height="238.49" rx="15.24" ry="15.24"/>
      <rect class="cls-42" x="1208.66" y="493.23" width="122.52" height="238.49" rx="15.66" ry="15.66"/>
      <rect class="cls-10" x="1.75" y="698.08" width="668.37" height="128.73" rx="36.95" ry="36.95"/>
      <rect class="cls-10" x="671.08" y="698.08" width="661.68" height="128.73" rx="36.95" ry="36.95"/>
      <g>
        <line class="cls-11" x1="806.32" y1="547.22" x2="806.32" y2="697.1"/>
        <line class="cls-11" x1="816" y1="550.59" x2="816" y2="697.1"/>
        <line class="cls-11" x1="825.14" y1="535.35" x2="825.14" y2="697.1"/>
        <line class="cls-11" x1="834.82" y1="538.98" x2="834.82" y2="697.1"/>
        <line class="cls-11" x1="877.36" y1="261.06" x2="877.36" y2="697.1"/>
        <line class="cls-11" x1="887.04" y1="270.86" x2="887.04" y2="697.1"/>
        <line class="cls-11" x1="896.18" y1="226.54" x2="896.18" y2="697.1"/>
        <line class="cls-11" x1="905.86" y1="237.11" x2="905.86" y2="697.1"/>
        <line class="cls-11" x1="947.96" y1="261.06" x2="947.96" y2="697.1"/>
        <line class="cls-11" x1="957.64" y1="270.86" x2="957.64" y2="697.1"/>
        <line class="cls-11" x1="966.78" y1="237.6" x2="966.78" y2="697.1"/>
        <line class="cls-11" x1="976.46" y1="237.11" x2="976.46" y2="697.1"/>
        <line class="cls-11" x1="1022.25" y1="261.06" x2="1022.25" y2="697.1"/>
        <line class="cls-11" x1="1031.93" y1="270.86" x2="1031.93" y2="697.1"/>
        <line class="cls-11" x1="1041.07" y1="240.02" x2="1041.07" y2="697.1"/>
        <line class="cls-11" x1="1050.75" y1="237.11" x2="1050.75" y2="697.1"/>
        <line class="cls-11" x1="1129.2" y1="261.06" x2="1129.2" y2="697.1"/>
        <line class="cls-11" x1="1138.88" y1="270.86" x2="1138.88" y2="697.1"/>
        <line class="cls-11" x1="1148.02" y1="249.89" x2="1148.02" y2="697.1"/>
        <line class="cls-11" x1="1157.7" y1="247.95" x2="1157.7" y2="697.1"/>
      </g>
      <g>
        <line class="cls-11" x1="534.29" y1="547.22" x2="534.29" y2="697.1"/>
        <line class="cls-11" x1="524.61" y1="550.59" x2="524.61" y2="697.1"/>
        <line class="cls-11" x1="515.47" y1="535.35" x2="515.47" y2="697.1"/>
        <line class="cls-11" x1="505.79" y1="538.98" x2="505.79" y2="697.1"/>
        <line class="cls-11" x1="463.25" y1="261.06" x2="463.25" y2="697.1"/>
        <line class="cls-11" x1="453.57" y1="270.86" x2="453.57" y2="697.1"/>
        <line class="cls-11" x1="444.43" y1="226.54" x2="444.43" y2="697.1"/>
        <line class="cls-11" x1="434.75" y1="237.11" x2="434.75" y2="697.1"/>
        <line class="cls-11" x1="392.65" y1="261.06" x2="392.65" y2="697.1"/>
        <line class="cls-11" x1="382.97" y1="270.86" x2="382.97" y2="697.1"/>
        <line class="cls-11" x1="373.83" y1="226.54" x2="373.83" y2="697.1"/>
        <line class="cls-11" x1="364.15" y1="237.11" x2="364.15" y2="697.1"/>
        <line class="cls-11" x1="318.36" y1="261.06" x2="318.36" y2="697.1"/>
        <line class="cls-11" x1="308.68" y1="270.86" x2="308.68" y2="697.1"/>
        <line class="cls-11" x1="299.54" y1="238.41" x2="299.54" y2="697.1"/>
        <line class="cls-11" x1="289.86" y1="237.11" x2="289.86" y2="697.1"/>
        <line class="cls-11" x1="211.41" y1="261.06" x2="211.41" y2="697.1"/>
        <line class="cls-11" x1="201.73" y1="270.86" x2="201.73" y2="697.1"/>
        <line class="cls-11" x1="192.59" y1="249.89" x2="192.59" y2="697.1"/>
        <line class="cls-11" x1="182.91" y1="247.95" x2="182.91" y2="697.1"/>
      </g>
      <path class="cls-5" d="M669.2,676.76c8.16-6.56,14.28,.67,22.11-6.28s1.19-14.44,9.02-21.4,14.47,.51,22.3-6.44c7.83-6.96,1.19-14.44,9.02-21.4s14.47,.51,22.3-6.44,1.19-14.43,9.02-21.39c7.83-6.96,14.47,.51,22.31-6.45,7.83-6.96,1.19-14.43,9.02-21.39s14.47,.51,22.31-6.45,1.19-14.44,9.02-21.4,14.47,.51,22.31-6.45,1.19-14.43,9.02-21.4,14.47,.51,22.31-6.45,1.19-14.43,9.02-21.4,14.47,.51,22.31-6.45,1.19-14.44,9.02-21.4c7.83-6.96,14.47,.51,22.3-6.45s1.19-14.44,9.02-21.4c7.83-6.96,14.47,.51,22.3-6.45s1.19-14.43,9.02-21.39,14.47,.51,22.31-6.45c7.83-6.96,1.19-14.44,9.02-21.4,7.83-6.96,14.47,.51,22.31-6.45,7.83-6.96,1.19-14.44,9.02-21.4s14.48,.51,22.31-6.45c7.83-6.96,1.19-14.44,9.02-21.4,7.83-6.96,14.47,.51,22.31-6.45,7.83-6.96,1.19-14.44,9.02-21.4,7.83-6.96,14.48,.51,22.31-6.45,7.84-6.96,1.19-14.44,9.03-21.4,7.84-6.96,14.48,.51,22.31-6.45"/>
      <path class="cls-5" d="M209.68,244.44c7.48,6.98,.66,14.29,8.14,21.26s14.3-.34,21.78,6.64,.66,14.29,8.14,21.26,14.3-.34,21.78,6.64,.66,14.29,8.14,21.26,14.3-.34,21.78,6.64c7.48,6.98,.66,14.29,8.14,21.27s14.3-.34,21.78,6.64c7.48,6.98,.66,14.29,8.14,21.27,7.48,6.98,14.3-.34,21.78,6.64s.66,14.29,8.14,21.27,14.3-.34,21.78,6.64,.66,14.29,8.14,21.27,14.3-.34,21.78,6.64,.66,14.29,8.14,21.27,14.3-.33,21.78,6.64c7.48,6.98,.66,14.29,8.14,21.27s14.3-.34,21.78,6.64,.66,14.29,8.14,21.27,14.3-.34,21.78,6.64c7.48,6.98,.66,14.29,8.14,21.27,7.48,6.98,14.3-.33,21.78,6.64s.66,14.29,8.14,21.27c7.48,6.98,14.3-.34,21.78,6.64,7.48,6.98,.66,14.29,8.14,21.27s14.3-.33,21.79,6.64,.66,14.29,8.14,21.27,14.3-.33,21.79,6.65,.66,14.29,8.15,21.27,14.31-.33,21.79,6.65,.66,14.29,8.15,21.27"/>
      <path class="cls-31" d="M670.33,679.35l486.56-431.4s-446.53-61.49-953.06-5.95"/>
    </g>
  </g>
  <g id="Layer_1" data-name="Layer 1">
    <g>
      <path class="cls-32" d="M431.43,166.48s-6.93,30.19-24.48,52.62c0,0-5.12,85.74,60.52,100.35,0,0,50.37-28.48,37.45-86.73l-73.48-66.24Z"/>
      <path class="cls-7" d="M546.09,898.37s-10.2,14.6-6.2,35.66c0,0,14.2,22.73,70.46,21.94,0,0,41.59,30.4,94.26,20.4,0,0,43.46-6.4,12.27-37.33,0,0-40.93-37.73-76.99-47.67,0,0-32,26.66-93.79,6.99Z"/>
      <path class="cls-7" d="M459.61,913.3s-10.38,14.93-6.24,36.42c0,0,14.55,23.17,71.99,22.22,0,0,42.54,30.93,96.28,20.59,0,0,44.36-6.64,12.43-38.14,0,0-41.88-38.42-78.72-48.47,0,0-32.6,27.3-95.74,7.38Z"/>
      <path class="cls-28" d="M239.07,562.03s-40.7,134,76.89,136.14,142.79,2.57,142.79,2.57c0,0-13.15,124.91-4.6,212.56,.38,6.44,76.76,22.42,101.19-7.1,0,0,25.35-110.39,31.77-202.32,0,0-35.95,123.08-31.77,198.38,0,0,68.71,17.69,94.31-16.71,0,0,37.94-190.23,18.7-247.95-19.24-57.72-146.2-90.83-146.2-90.83,0,0-97.42,99.62-283.08,15.25Z"/>
      <g>
        <polygon class="cls-33" points="410.82 195.57 420.85 196.29 416.59 206.82 410.82 195.57"/>
        <path class="cls-23" d="M400.27,204.14s-63.4,8.88-96.95,30.59c0,0-22.05,9.37-32.72,37.42,0,0-23.42,62.26-15,132.65,0,0,1.09,6.46,5.98,17.38l-22.52,139.85s29.57,29.79,149.78,36.11c0,0,92.81-2.51,133.3-51.36,0,0-.77,17.69,23.27-98.52,0,0,8.4,10.42,34.45-17.73l-2.6-84.31s6.85-35.64-22.64-67.5c0,0-21.97-25.68-39.82-38.1l-44.5,19.29-15.19,51.09-5.4-47.84s.76-13.41-49.47-59.02Z"/>
        <path class="cls-36" d="M400.27,204.14s43.33,40.3,49.47,59.02l2.31-16.66s-31.85-31.14-41.23-50.92l-10.55,8.56Z"/>
        <path class="cls-36" d="M499.32,225.56s18.82,3.62,15.51,15.06l-44.5,19.29,.94-9.94s19.97-4.58,34.94-15.89c0,0-7.7-2.81-6.89-8.51Z"/>
        <path class="cls-17" d="M455.13,311s2.17,55.54-51.47,284.73"/>
        <ellipse class="cls-34" cx="442.81" cy="314.97" rx="3.17" ry="3.06" transform="translate(38.34 677.85) rotate(-77.32)"/>
        <ellipse class="cls-34" cx="438.68" cy="368.59" rx="3.17" ry="3.06" transform="translate(-17.2 715.69) rotate(-77.32)"/>
        <ellipse class="cls-34" cx="429.77" cy="425.65" rx="3.17" ry="3.06" transform="translate(-79.83 751.53) rotate(-77.32)"/>
        <ellipse class="cls-34" cx="419.28" cy="477.17" rx="3.17" ry="3.06" transform="translate(-138.28 781.5) rotate(-77.32)"/>
        <ellipse class="cls-34" cx="406.28" cy="541.99" rx="3.17" ry="3.06" transform="translate(-211.67 819.41) rotate(-77.32)"/>
        <path class="cls-34" d="M360.16,325.86l-7.82,46.75s20.7,31.36,53.87,12.12l11.35-50.45s-21.31,6.88-57.4-8.42Z"/>
        <path class="cls-34" d="M483.3,353.56l-7.82,46.75s20.7,31.36,53.87,12.12l11.35-50.45s-21.31,6.88-57.4-8.42Z"/>
        <path class="cls-34" d="M323.23,508.67l-8.87,52.99s23.46,35.54,61.06,13.74l12.86-57.18s-24.16,7.8-65.05-9.54Z"/>
        <path class="cls-34" d="M443.35,498.02l-8.87,52.99s23.46,35.54,61.06,13.74l12.86-57.18s-24.16,7.8-65.05-9.54Z"/>
        <path class="cls-15" d="M382.21,207.35s39.37,82.32-48.41,384.66"/>
        <path class="cls-15" d="M389.97,206.36s38.4,84.67-49.38,387.01"/>
        <path class="cls-15" d="M397.62,204.83s38.2,86.88-49.57,389.21"/>
        <path class="cls-15" d="M374.31,209s39.48,80.34-48.3,382.67"/>
        <path class="cls-15" d="M513.68,240.54s47.5,46.13-53.4,344.34"/>
        <path class="cls-15" d="M521.86,247.63s47.8,34.98-53.1,333.19"/>
        <path class="cls-15" d="M530.27,254.49s47.53,25.74-53.37,323.95"/>
        <path class="cls-15" d="M505.72,241.84s46.99,47.21-53.91,345.42"/>
        <path class="cls-8" d="M357.22,411.99s2.7-81.38-12.14-111.96"/>
      </g>
      <path class="cls-32" d="M576.35,435.61c-.36,9.27,5.5,18.68,5.5,18.68,39.52-22.36,83.78-35.52,83.78-35.52l23.59,28.35s-98.19,109.29-133.2,84.65c-39.03-27.47-45.11-50.25-45.11-50.25"/>
      <path class="cls-32" d="M579.73,87.64s8.24,23.15-8.13,68.86c0,0-5.04,10.67-5.51,17.06-.47,6.38-5.24,15.49-7.31,22.29-11.7,38.51-32.85,44.53-32.85,44.53,0,0-8.96,11.05-31.06,5.19-22.1-5.86-41.64-19.01-47-30.5-5.36-11.48-17.97-32.11-15.99-46.93,0,0-13.9-.64-14.88-17.85,0,0-7.48-28.4,8.52-30.84,15.99-2.43,18.79,19.54,18.79,19.54,0,0-6.21-63.44,32.55-77,0,0,54.67-21.55,102.89,25.66Z"/>
      <path class="cls-29" d="M492.48,190.7s11.95,.37,23.57,8.44c0,0,11.89,1.59,21.13,7.25,0,0-7.27,17.57-25.48,15.76-18.21-1.81-23.13-21.08-19.22-31.46Z"/>
      <path class="cls-25" d="M494.75,192.9s-5.61,15.83,15.04,22.92c18.76,6.44,23.76-7.65,23.76-7.65,0,0-21.46-6.3-38.8-15.27Z"/>
      <path class="cls-23" d="M520.45,129.67s-16.24-11.58-34.38-10.44c0,0,12.01-9.53,36.72,5.23,0,0,3.22,4.93-2.33,5.21Z"/>
      <path class="cls-23" d="M576.09,146.57c-12.32-6.38-19.97-4.65-19.97-4.65-4.22-3.63,1.36-5.54,1.36-5.54,8.9,1.1,15.38,3.3,20.08,5.81,0,0-.8,4.73-1.47,4.38Z"/>
      <path class="cls-24" d="M497.23,194.01s2.98,7.59,19.23,12.31c0,0,9.3,5.4,15.23,1.58,0,0-20.76-6.62-34.46-13.88Z"/>
      <path class="cls-14" d="M421.78,129.67s7.97-6.14,11.07,3.98c3.1,10.12,2.49,12.93,2.49,12.93,0,0-4-15.76-10.89-6.58"/>
      <path class="cls-4" d="M419.92,120.63s13.51-6.42,18.28,6.78c4.77,13.19,1.95,17.75,1.95,17.75l7.35,2.02s-12.72-45.32,16.19-53.64c0,0,3-30.54,26.23-28.34,23.23,2.2,40.18-16.46,91.52,27.71,0,0,14.93-31.38-41.96-57.44,0,0-38.33-18.08-56-1.03,0,0-27.45-5.14-45.11,28-17.66,33.14-18.45,58.19-18.45,58.19Z"/>
      <path class="cls-43" d="M500.36,246.74s-25.16-5.62-38.5-16.43c0,0-11.22-6.47-19.09-24.58,0,0,9.04,26.33,31.67,36.09,.11,.05,.21,.08,.33,.13,1.04,.44,13.81,5.97,23.16,7.88,0,0,2.78-2.39,2.43-3.1Z"/>
      <path class="cls-3" d="M513.32,95.62s16.4,7.63,23.85,12.19c7.45,4.56,32.88,6.28,32.88,6.28"/>
      <path class="cls-23" d="M511.3,182.96s-13.75,4.52-23.24,3.11c0,0,.43,4,4.42,4.63,0,0,16.24,1.82,23.57,8.44,0,0,11.83,1.17,21.13,7.25,0,0,.92,1.18,3.31,1.47,0,0-8.04-11.3-6.3-15.33,0,0-10.5,1.56-15.11-7.32,0,0-3.19,.45-7.77-2.25Z"/>
      <path class="cls-14" d="M535.98,156.08l2.67,25.8s.18,13.78-10.08,10.6c-8.51-2.64-8.14-5.44-8.14-5.44"/>
      <path class="cls-3" d="M482.14,191.12s1.5-10.09,7.97-10.62c6.47-.53,12.79-10.93,12.79-10.93"/>
      <g>
        <path class="cls-24" d="M494.41,134.79s.15-.5,.65-.81c1.65-1.01,5.28-2.75,9.76-1.39,5.01,1.51,6.35,7.06,6.78,9.02,.07,.34-.02,.59-.02,.59,0,0-.07,.28-.29,.43-1.08,.69-4.53,2.47-9.3,1.11-2.84-.81-6.35-3.53-7.64-8.1-.09-.32,0-.66,.06-.84Z"/>
        <circle class="cls-43" cx="504.49" cy="138.8" r="5.41"/>
        <circle class="cls-24" cx="503.1" cy="135.03" r="1.49"/>
        <path class="cls-19" d="M511.91,141.71s-2.48-13.81-17.03-7.83"/>
      </g>
      <g>
        <path class="cls-24" d="M551.5,156.78s.07-.49,.49-.85c1.39-1.18,4.52-3.31,8.88-2.69,4.88,.69,6.92,5.65,7.6,7.42,.12,.3,.07,.55,.07,.55,0,0-.02,.27-.21,.44-.91,.79-3.86,2.95-8.49,2.36-2.75-.35-6.41-2.37-8.27-6.44-.13-.28-.09-.62-.06-.79Z"/>
        <circle class="cls-43" cx="561.44" cy="159.06" r="5.07"/>
        <circle class="cls-24" cx="559.44" cy="155.35" r="1.42"/>
        <path class="cls-19" d="M568.52,160.84s-3.81-13.13-16.72-4.73"/>
      </g>
      <path class="cls-16" d="M465.39,601.47s98.79,25.05,119.76,55.89c20.54,30.21-29.8,244.92-29.8,244.92"/>
      <path class="cls-22" d="M528.05,509.53c-11.41-56.32-12.77-54.05-12.77-54.05"/>
      <rect class="cls-9" x="494.39" y="441.67" width="52.46" height="104.91" rx="13.26" ry="13.26" transform="translate(455.41 -220.69) rotate(41.28)"/>
      <path class="cls-32" d="M457.45,499.32l52.13-24.76,35.84,1.95,18.25,19.55s3.91,9.12-10.43,2.61l-.65,13.68s-3.26,7.82-9.77,0l-3.26,12.38s-6.52,3.91-8.47,0l-3.91,12.66s-9.31-.47-8.38-11.18l-26.08,7.45-39.11-3.73-8.38,.47"/>
      <path class="cls-2" d="M531.1,486.16c11.99-3.2,22.14,12.51,22.14,12.51,0,0,1.91,5.05,5.08,3.59s2.68-6.82,2.68-6.82l-1.7-4.38"/>
      <path class="cls-2" d="M529.05,498.18c12.63-3.86,13.76,14.17,13.76,14.17,0,0,6.01,3.06,8.2,1.84s3.41-11.93,3.41-11.93"/>
      <path class="cls-2" d="M531.09,524.73s-1.68-16.37-9.4-12.86"/>
      <path class="cls-32" d="M350.03,416.49c-2.6,10.68,1.19,20.25-2.55,32.32,0,0,53.29,19.79,109.97,50.51,0,0,8.48,20.61-3.85,30.63,0,0-119.23,11.91-167.96-27.29-21.94-17.64-18.5-72.58-18.5-72.58"/>
      <path class="cls-2" d="M347.48,448.81s-15.07,3.6-24.4,29.25"/>
      <path class="cls-32" d="M665.63,418.78c3.27-2.34,1.81-1.76,4.94-3.85,0,0-3.44-20.13,26.74-38.41l15.66-19.04s11.39-8.19,10.68,5.52c0,0-4.49,8.54-8.9,14.42l17.13,3.64s-1.48-2.03,8.05-3.03c7.75-.82,6.31,1.9,6.31,1.9,0,0,3.95-10.94,10.2-20.98,4.07-6.53,4.24-13.27,12.83-12.65,0,0,7.95,1.43,2.49,13.42l-8.35,29.27-34.49,29.66-28.44,13.76-11.25,14.74"/>
      <path class="cls-12" d="M707.45,376.96s4.22-.25,7.32,.55"/>
      <path class="cls-13" d="M702.47,415.24s7.45-18.06,14.01-21.46c0,0,2.95-1.18,4.45-8.04s-.37-13.16,5.13-13.57c7.97-.59,5.82,8.88,5.82,8.88l-3.8,21.06"/>
      <path class="cls-12" d="M670.57,414.93s5.06,6.34,14.62,8.05"/>
      <path class="cls-13" d="M730.76,387.09l1.99-8.67-3.58-10.1s-1.51-5.19,3.36-7.69c5.43-2.79,8.41,3.8,8.41,3.8l3.71,13.88-2.94,18.34"/>
      <path class="cls-13" d="M744.64,378.31l1.62-4.58-3.58-10.1s-1.51-5.19,3.36-7.69c5.43-2.79,8.41,3.8,8.41,3.8l3.71,13.88-2.94,18.34"/>
      <g>
        <path class="cls-35" d="M429.58,72.05s20.62-35.78,29.5-43.8c8.88-8.02,86.71-8.08,106.61,13.49,0,0,2.72,8.86,.84,11.98"/>
        <path class="cls-20" d="M422.2,113.82s-55.86-7.24-56.31-14.47c-1.06-16.8,38.67-23.03,38.67-23.03,0,0,95.53-17.87,130.29-25.51,26.32-5.79,85.6-11.48,91.58,16.98,5.98,28.46-47.28,47.71-47.28,47.71,0,0-91.03-32.09-154.56-12.32,0,0-2.89,5.74-2.39,10.64Z"/>
        <path class="cls-1" d="M579.15,115.5s50.78-24.98,27.2-46.49c-18.97-17.3-59.51-9.21-101.96,5.35s-102.29,17.16-102.29,17.16c0,0-26.23,9.55,20.1,22.29"/>
      </g>
    </g>
    <g>
      <g>
        <path class="cls-32" d="M978.86,914.76s9.18,17.4,5.32,25.62c0,0-18,11.4-30.08-1.17,0,0,16.37-7.56,24.76-24.45Z"/>
        <path class="cls-32" d="M974.51,904.12s-9.19,25.83-25.81,30.05c0,0-6.12-13.67-14.31-21.83,0,0-12.24-86.99-10.67-119.63,0,0,16.73,8.44,56.18-.64,0,0,.89,43.41-3.94,66.61-4.83,23.2-1.45,45.44-1.45,45.44Z"/>
        <path class="cls-37" d="M984.18,940.38s6.28,12.57,3.87,17.4c0,0-12.57,4.83-29.49,.48,0,0-9.18-2.42-18.85,5.32-9.67,7.73-47.37,11.6-59.46,.48-12.09-11.12,8.7-22.72,8.7-22.72,0,0,29-8.22,33.84-21.27,4.83-13.05,11.6-7.73,11.6-7.73,0,0,13.54,10.15,15.47,19.82,0,0,15.47-4.35,24.65-28.04l4.35,10.63s-9.18,19.34-23.2,23.69c0,0,5.32,11.6,28.52,1.93Z"/>
        <circle class="cls-38" cx="951.49" cy="937.12" r="6.28"/>
        <circle class="cls-38" cx="935.31" cy="954.97" r="4.16"/>
        <circle class="cls-38" cx="921.62" cy="960.38" r="4.16"/>
        <circle class="cls-38" cx="906.02" cy="962.55" r="4.16"/>
        <circle class="cls-38" cx="892.79" cy="960.93" r="4.16"/>
        <circle class="cls-38" cx="881.47" cy="956.69" r="4.16"/>
        <path class="cls-6" d="M933.42,945.69s-30.94,13.54-46.89,.97"/>
      </g>
      <path class="cls-32" d="M1012.77,394.68s-9.04,15.87-2.42,37.19c0,0-7.31,35.92-47.46,42.81,0,0-43.93-6.96-18.97-38.23,0,0,3.95-1.72,3.07-8.41,0,0,62.03-39.76,65.78-33.36Z"/>
      <path class="cls-32" d="M940.86,309.88s-12.01,6.73-16.37,32.69c-.47,2.83,.6,8.57-.5,10.75-7.95,15.71-5.5,33.26-1.44,42.96,1,2.4,2.11,5.08,2.94,7.29,6.06,16.13,25.92,22.13,25.92,22.13,0,0,47.62-.69,58.18-24.61,0,0,8.63,14.55,21.38-1.12,0,0,14.38-17.14,5.73-23.77,0,0-9.64-5.65-17.59,4.22,0,0,13.98-43.5,.12-53.16,0,0-30.79-42.96-78.37-17.37Z"/>
      <path class="cls-3" d="M1034.25,385.33s-2.63-12.01-14.05,5.03c0,0,8.61-7,8.92,.12"/>
      <path class="cls-43" d="M947.71,424.39s8.64,1.92,18.43-.16c0,0,8.51-.47,19.88-4.85,0,0-8.39,6.72-23.4,8.8,0,0-7.74,1.5-15.29-1.32,0,0,.44,.22,.37-2.47Z"/>
      <path class="cls-29" d="M965,395.7s-7.25-3.45-16.66-2.2c0,0-7.58-2.7-14.84-2.16,0,0-1.06,12.72,10.36,17.24,11.42,4.51,20.28-5.47,21.14-12.87Z"/>
      <path class="cls-25" d="M962.97,396.31s-1.52,11.17-16.02,9.06c-13.17-1.92-11.83-11.87-11.83-11.87,0,0,14.74,2.83,27.85,2.81Z"/>
      <path class="cls-24" d="M961.15,396.21s-4.35,4.64-15.49,2.46c0,0-6.97-.66-9.34-4.77,0,0,14.42,2.42,24.83,2.3Z"/>
      <path class="cls-32" d="M884.32,551.49s3.02-10.46,0,0c0,0,1.46,9.54,2.51,18.23,1.05,8.69,2.75,54.71,8.17,84.16,0,0,3.12,21.83-.44,29.62-3.55,7.79,2.36,16.08,2.36,16.08,0,0,7.97,18.48,15.04,18.97l-4.89-160.29-22.75-6.77Z"/>
      <path class="cls-37" d="M947.35,434.74s-15.03,20.76,10.02,26.49c0,0,37.94,8.59,52.97-29.35,0,0,47.63,11.12,63.8,46.87,18.48,40.87,4.62,76.52,4.62,76.52,0,0-3.27,3.92-31.91-3.24,0,0,35.07,50.53,22.41,111.21,0,0-108.34,22.42-160.59-17.67,0,0-8.54-37.79-7.14-84.13,0,0-14.96,4.21-22.12-12.26,0,0,4.95-45.27,14.21-67.47,7.67-18.4,9.07-32.24,53.82-47.03"/>
      <path class="cls-43" d="M971.38,350.14s18.3,.3,25.12,6.73c0,0-4.13-8.51-24.74-10.03,0,0-3.98,1.13-.38,3.29Z"/>
      <path class="cls-43" d="M924.96,342.35c.45-.71,9.83-.51,18.32,1.14,0,0,3.66,2.16-.54,3.27,0,0-15.26-4.65-17.94-1,0,0-.95-1.67,.15-3.42Z"/>
      <path class="cls-27" d="M1010.43,431.81s-10.43,33.42-52.97,29.35c0,0-24.78-6.29-10.02-26.49,0,0-5.24,1.16-6.94,2.3,0,0-14.6,24.96,16.1,30.36,0,0,34.21,3.47,50.41-17,0,0,7.11-9.38,9.38-16.49l-5.96-2.04Z"/>
      <path class="cls-39" d="M919.33,793.25s-4.95-10.71-7.48-29.55l-3.56-114.3s38.88,30.05,160.97-11.66c0,0,6.74,44.81-2.22,101.78,0,0-8.61,27.17-14.52,50.31,0,0-49.55,15.17-75.91,4.69l-1.22-7.98,.1,8.28s-31.23,7.08-56.17-1.56Z"/>
      <path class="cls-14" d="M972.82,791.79s-5.82-45.41-1.16-71.49c0,0-9.34-2.67-11.77-9.16"/>
      <path class="cls-40" d="M1070.17,643.62l.8-10.15s-101.77,47.26-162.29,12.08c0,0-1.08,1.54,.46,9.7,0,0,33.03,31.88,161.03-11.64Z"/>
      <g>
        <path class="cls-24" d="M985.46,364.77s.08-.42-.17-.83c-.82-1.35-2.79-3.95-6.53-4.64-4.18-.77-7.21,2.73-8.25,3.99-.18,.22-.21,.43-.21,.43,0,0-.06,.23,.05,.42,.53,.9,2.35,3.47,6.3,4.26,2.35,.47,5.89-.19,8.53-3.01,.18-.2,.25-.48,.27-.63Z"/>
        <circle class="cls-43" cx="976.69" cy="363.92" r="4.4"/>
        <circle class="cls-24" cx="979.58" cy="363.54" r="1.21"/>
        <path class="cls-3" d="M970.25,363.26s6.93-9.05,15.21,.68"/>
      </g>
      <g>
        <path class="cls-24" d="M940.59,358.39s.13-.37-.04-.78c-.56-1.35-2.01-4.01-5.33-5.17-3.73-1.3-7,1.49-8.13,2.5-.2,.17-.25,.37-.25,.37,0,0-.09,.2-.01,.39,.35,.9,1.67,3.51,5.18,4.8,2.09,.76,5.43,.66,8.25-1.56,.2-.15,.29-.4,.34-.54Z"/>
        <circle class="cls-43" cx="932.68" cy="356.37" r="4.06"/>
        <circle class="cls-24" cx="935.48" cy="356.54" r="1.14"/>
        <path class="cls-3" d="M926.98,355.04s7.53-7.95,13.64,2.76"/>
      </g>
      <path class="cls-38" d="M931.82,303.54c-6.72,23.5-6.61,35.44-6.61,35.44,6.08-23.6,13.16-24.95,13.16-24.95,29.88-13.67,73.35,12.65,73.35,12.65,12.22,21.17,7.22,55.13,7.22,55.13,10.03-10.45,17.75-5.62,17.75-5.62,20.42-46-6.07-62.8-6.07-62.8,0,0-17.83-27.11-54.03-28.65-36.2-1.54-44.78,18.79-44.78,18.79Z"/>
      <path class="cls-3" d="M945.8,369.71s-4.97,1.64-4.75,7.33c.29,7.34,9.12,8.15,9.12,8.15"/>
      <path class="cls-18" d="M1031.86,545.1s-8.58-30.54,1.59-67.99"/>
      <path class="cls-18" d="M901.54,561.44s-.96-41.12,3.32-50.63"/>
      <g>
        <path class="cls-32" d="M1035.02,923.77s9.73,18.43,5.63,27.13c0,0-19.06,12.07-31.86-1.24,0,0,17.34-8,26.23-25.9Z"/>
        <path class="cls-32" d="M1030.41,912.5s-9.73,27.35-27.34,31.83c0,0-6.48-14.48-15.16-23.12,0,0-12.96-92.13-11.3-126.7,0,0,17.72,8.94,59.5-.68,0,0,.95,45.97-4.17,70.55-5.12,24.57-1.54,48.13-1.54,48.13Z"/>
        <path class="cls-37" d="M1040.65,950.9s6.66,13.31,4.1,18.43c0,0-13.31,5.12-31.23,.51,0,0-9.73-2.56-19.97,5.63-10.24,8.19-50.17,12.29-62.97,.51-12.8-11.78,9.22-24.06,9.22-24.06,0,0,30.72-8.7,35.84-22.53,5.12-13.82,12.29-8.19,12.29-8.19,0,0,14.34,10.75,16.38,20.99,0,0,16.38-4.61,26.11-29.69l4.61,11.26s-9.73,20.48-24.57,25.09c0,0,5.63,12.29,30.21,2.05Z"/>
        <circle class="cls-38" cx="1006.04" cy="947.45" r="6.66"/>
        <circle class="cls-38" cx="988.9" cy="966.36" r="4.4"/>
        <circle class="cls-38" cx="974.4" cy="972.09" r="4.4"/>
        <circle class="cls-38" cx="957.87" cy="974.39" r="4.4"/>
        <circle class="cls-38" cx="943.86" cy="972.68" r="4.4"/>
        <circle class="cls-38" cx="931.88" cy="968.18" r="4.4"/>
        <path class="cls-6" d="M986.89,956.53s-32.77,14.34-49.66,1.02"/>
      </g>
      <path class="cls-6" d="M979.39,838.19s-4.22-24.91-2.77-43.68"/>
      <path class="cls-32" d="M895.61,585.23c-3.22,.03-11.25,0-9.7-4.92,0,0-14.44,1.27-19.95-4.67,0,0-7.53,3.79-10.5-1.3-2.97-5.09,13.05-8.88,13.05-8.88l48.82-10.19-16.13-5.94s-9.34-1.27-6.37-8.49c2.97-7.22,16.13,3.4,16.13,3.4,0,0,12.74,1.7,18.68,1.27s20.25,3.42,20.68,14.88l76.97,18.23,4.56-33.51s16.98,12.14,42.88,10.44l-8.8,54.9s-13.62,24.21-34,16.99-94.22-42.04-94.22-42.04l-32.69,2.55s-8.46,1.29-9.41-2.72"/>
      <path class="cls-2" d="M895.13,569.43l-29.17,6.21s3.93,5.69,16.73,4.85c0,0,4.02,4.68,12.93,4.75,0,0-.24,3.99,9.41,2.72l32.69-2.55"/>
      <line class="cls-2" x1="882.68" y1="580.49" x2="905.79" y2="574.24"/>
      <line class="cls-2" x1="895.61" y1="585.23" x2="913.18" y2="578.85"/>
      <path class="cls-2" d="M865.96,575.64s-12.11,4.31-10.6-2.91c0,0,.1-3.11,5.52-5.01s56.46-12.46,56.46-12.46"/>
    </g>
  </g>
</svg>