<?xml version="1.0" encoding="UTF-8"?>
<svg xmlns="http://www.w3.org/2000/svg" xmlns:xlink="http://www.w3.org/1999/xlink" viewBox="0 0 1333.48 1070.69">
  <defs>
    <style>
      .cls-1, .cls-2, .cls-3, .cls-4, .cls-5, .cls-6, .cls-7, .cls-8, .cls-9, .cls-10 {
        fill: none;
      }

      .cls-2 {
        stroke-width: 1.5px;
      }

      .cls-2, .cls-3, .cls-4, .cls-5, .cls-6, .cls-7, .cls-8, .cls-9, .cls-10 {
        stroke-miterlimit: 10;
      }

      .cls-2, .cls-3, .cls-8 {
        stroke: #231f20;
      }

      .cls-11 {
        fill: url(#linear-gradient);
      }

      .cls-12 {
        clip-path: url(#clippath);
      }

      .cls-13 {
        fill: #00a79d;
      }

      .cls-14 {
        fill: #f05380;
      }

      .cls-15 {
        fill: #fff;
      }

      .cls-16 {
        fill: #efcccd;
      }

      .cls-17 {
        fill: #803435;
      }

      .cls-18 {
        fill: #98b369;
      }

      .cls-19 {
        fill: #00a651;
      }

      .cls-20 {
        fill: #939598;
      }

      .cls-21 {
        fill: #8b5e3c;
      }

      .cls-22 {
        fill: #8dc63f;
      }

      .cls-23 {
        fill: #ae8578;
      }

      .cls-24 {
        fill: #be9e7d;
      }

      .cls-25 {
        fill: #d6e69e;
      }

      .cls-26 {
        fill: #bf6b6b;
      }

      .cls-27 {
        fill: #d3b694;
      }

      .cls-28 {
        fill: #231f20;
      }

      .cls-29 {
        fill: #414042;
      }

      .cls-30 {
        fill: #07935b;
      }

      .cls-31 {
        fill: #59bede;
      }

      .cls-32 {
        fill: #2e3192;
      }

      .cls-33 {
        fill: #26130f;
      }

      .cls-34 {
        clip-path: url(#clippath-1);
      }

      .cls-35 {
        clip-path: url(#clippath-2);
      }

      .cls-4 {
        stroke: #006838;
      }

      .cls-5 {
        stroke: #2e3192;
      }

      .cls-6 {
        stroke: #603913;
      }

      .cls-7 {
        stroke: #be1e2d;
      }

      .cls-8 {
        stroke-width: 1.2px;
      }

      .cls-36 {
        opacity: .5;
      }

      .cls-37 {
        fill: #dea962;
      }

      .cls-37, .cls-38 {
        opacity: .8;
      }

      .cls-38 {
        fill: #edb36e;
      }

      .cls-39 {
        fill: #27aae1;
        opacity: .4;
      }

      .cls-9 {
        stroke: #fff;
      }

      .cls-9, .cls-10 {
        stroke-width: .5px;
      }

      .cls-10 {
        stroke: #fff200;
      }
    </style>
    <clipPath id="clippath">
      <rect class="cls-1" x="90.6" y="263.04" width="1117.82" height="192.99"/>
    </clipPath>
    <linearGradient id="linear-gradient" x1="2107.12" y1="411.73" x2="2107.12" y2="289.75" gradientTransform="translate(3276.27) rotate(-180) scale(1 -1)" gradientUnits="userSpaceOnUse">
      <stop offset="0" stop-color="#be9e7d"/>
      <stop offset=".7" stop-color="#231f20"/>
    </linearGradient>
    <clipPath id="clippath-1">
      <polygon class="cls-1" points="1127.01 537.21 1169.58 500.37 1185.95 516.74 1176.95 793.44 1104.91 809.81 1127.01 537.21"/>
    </clipPath>
    <clipPath id="clippath-2">
      <path class="cls-1" d="M301.57,407.84s2.91,5.46-22.93,44.58l-3.28,14.38,10.37,18.74,13.65-6.37,6-42.94,.36-27.11-4.19-1.27Z"/>
    </clipPath>
  </defs>
  <g id="Layer_1" data-name="Layer 1">
    <g>
      <g class="cls-36">
        <g class="cls-12">
          <path class="cls-19" d="M207.61,572.25s90.54,60.19,128.91-35.62c38.37-95.81,82.42-74.09,82.42-74.09,0,0,39.35-40.68-26.63-80.97-65.98-40.28-130.75,35.36-130.75,35.36,0,0-33.21,64.71-72.91,10.82-39.7-53.9-118.22,5.31-68.58,41.34,49.64,36.02,74.22,62.68,87.54,103.17Z"/>
          <path class="cls-22" d="M942.63,547s60.57,43.24,61.88-31.08c1.32-74.31-84.27-66.21-90.85-91.88-6.58-25.67-38.18-67.56-122.45-67.56s-14.48,116.2-77.68,131.06c-63.2,14.86-115.87,117.55-31.6,108.09,84.27-9.46,171.17,33.78,175.12,44.59s-3.95,9.46,3.95,10.81c7.9,1.35,151.42,21.62,81.63-104.04Z"/>
          <path class="cls-19" d="M903.27,488.7s-34.67-160.79,68.47-168.22c103.14-7.43,71.54,92.56,116.3,81.75,44.77-10.81,75.05-137.82,119.82-116.2l2.59,198.56-307.18,4.11Z"/>
          <path class="cls-13" d="M416.36,517.97s-5.27-156.74,134.3-117.55c139.57,39.18,176.44,58.1,202.77,32.43s66.99,37.83,41.39,85.12H416.36Z"/>
        </g>
      </g>
      <rect class="cls-37" x="-40.44" y="204.1" width="162.82" height="81.94" transform="translate(286.04 204.1) rotate(90)"/>
      <rect class="cls-37" x="585.29" y="-95.48" width="162.82" height="1333.41" transform="translate(1237.93 -95.48) rotate(90)"/>
      <rect class="cls-37" x="585.29" y="229.95" width="162.82" height="1333.41" transform="translate(1563.36 229.95) rotate(90)"/>
      <rect class="cls-38" x="585.29" y="67.12" width="162.82" height="1333.41" transform="translate(1400.53 67.12) rotate(90)"/>
      <rect class="cls-38" x="-40.44" y="40.44" width="162.82" height="81.94" transform="translate(122.38 40.44) rotate(90)"/>
      <rect class="cls-38" x="-40.44" y="367.24" width="162.82" height="81.94" transform="translate(449.18 367.24) rotate(90)"/>
      <rect class="cls-37" x="1206.26" y="199.26" width="162.82" height="91.62" transform="translate(1532.74 -1042.59) rotate(90)"/>
      <rect class="cls-38" x="1206.26" y="35.6" width="162.82" height="91.62" transform="translate(1369.08 -1206.26) rotate(90)"/>
      <rect class="cls-38" x="1206.26" y="362.4" width="162.82" height="91.62" transform="translate(1695.88 -879.45) rotate(90)"/>
      <rect class="cls-39" x="111.58" width="1096.86" height="455.98"/>
      <rect class="cls-21" x="77.9" width="33.68" height="484.45"/>
      <rect class="cls-21" x="1208.67" width="33.68" height="484.45"/>
      <rect class="cls-21" x="643.19" y="-109.58" width="33.68" height="1164.74" transform="translate(1132.82 -187.25) rotate(90)"/>
    </g>
  </g>
  <g id="Layer_2" data-name="Layer 2">
    <path class="cls-24" d="M385.33,658.53s13.36,72.64,19.06,77.34l101.33-57.61s-2.14-35.15,28.69-46.02c0,0,8.44-2.11,16.74-15.37,8.3-13.25,25.7-12.14,25.7-12.14,0,0,8.73,2.79,.64,15.37s-21.24,12.08-25.76,25.06l96.01-3s15.6-.2,15.05,9.61c-.54,9.81-20.44,4.94-20.44,4.94l-31.18,18.89s-18.07,33.44-73.58,32.36l-112.82,119.21s-36.82,31.73-62.17,18.46l-67.7-57.31s7.65-29.58-7.67-55.96l98.08-73.84Z"/>
    <path class="cls-24" d="M153.52,404.82s2.97,49.71-11.52,78.63c0,0-17.67,137.3,94.15,145.25,0,0,87.39-22.19,41.06-132.35,0,0-22.87-5.64-22.52-25.15,.36-20.66,2.65,.46,2.65,.46l-103.81-66.83"/>
    <path class="cls-24" d="M144.66,366.06s5.23-104.3,98.58-110.9c0,0,79.02,1.78,60.73,99.29,0,0-3.1,10.41-.64,18.43,0,0,9.38,12.35-2.54,42.74-11.92,30.39-30.74,48-30.74,48,0,0-11.26,12.35-34.49,12.42,0,0-18.39,2.08-39.04-11.44,0,0-50.22-27.07-47.25-57.91,0,0-23.1,15.07-33.01-21.54,0,0-8.46-50.63,28.41-19.08Z"/>
    <path class="cls-30" d="M144.51,485.69s-18.84,13.24-58.98,28.67c-66.65,25.62-74.68,119-74.68,119,0,0,1.25,38.19,71.55,66.49l-42.75,212.61s77.96,85.15,205.74,74.5c0,0,86.69-5.42,127.65-41.46,0,0-17.2-128.06-18.02-206.69,0,0,19.66-15.56,18.84-53.24l11.47-27.03-16.12-73.13s-3.78-47.65-58.66-68.95c0,0-18.6-11.92-33.35-20.11,0,0,7.86,31.94,2.12,54.05,0,0-48.08,43.41-121.8,0,0,0-13.84-10.64-13.02-64.7Z"/>
    <path class="cls-33" d="M230.86,333.64s-32.02-8.88-46.26,1.98c0,0,10.31-16.94,46.81-9.57,0,0,6.53,4.62-.54,7.59Z"/>
    <path class="cls-33" d="M307.21,330.33c-.54-1.72-16.56-3.56-31.54-1.85,0,0-6.9,4.05-.1,7.61,0,0,27.43-6.9,30.84,2.08,0,0,2.15-3.59,.81-7.84Z"/>
    <path class="cls-8" d="M265.78,379.31s12.76,19.64-10.07,21.57"/>
    <path class="cls-8" d="M120.79,378.04s6.97-17.64,20.14,11.13c0,0-11.37-12.79-13.6-2.02"/>
    <path class="cls-33" d="M252.24,473.48s-16.46,7.63-44.88-2.59c0,0-14.07-5.63-31.66-20.26,0,0,21.7,25.33,54.69,28.27,0,0,10.37,1.23,22.21-2.2,0,0-.96,0-.35-3.22Z"/>
    <g>
      <path class="cls-15" d="M197.62,353.07s-.02-.69,.48-1.27c1.65-1.93,5.47-5.56,11.59-5.69,6.86-.14,10.77,6.22,12.11,8.49,.23,.39,.22,.74,.22,.74,0,0,.03,.38-.19,.65-1.07,1.29-4.64,4.92-11.13,5.15-3.86,.14-9.33-1.82-12.8-7-.24-.36-.27-.82-.26-1.07Z"/>
      <circle class="cls-33" cx="211.79" cy="353.99" r="7.09"/>
      <circle class="cls-15" cx="207.28" cy="352.64" r="1.95"/>
      <path class="cls-2" d="M222.22,354.6s-8.69-16.19-24.39-2.85"/>
    </g>
    <g>
      <path class="cls-15" d="M277.64,357.2s-.12-.64,.26-1.25c1.26-2.03,4.29-5.95,9.97-6.95,6.36-1.12,10.91,4.24,12.47,6.16,.27,.33,.31,.66,.31,.66,0,0,.08,.35-.09,.64-.81,1.36-3.61,5.24-9.62,6.38-3.57,.68-8.94-.36-12.91-4.68-.28-.3-.37-.73-.4-.96Z"/>
      <circle class="cls-33" cx="290.95" cy="356.01" r="6.65"/>
      <circle class="cls-15" cx="286.37" cy="355.55" r="1.86"/>
      <path class="cls-2" d="M300.49,355.36s-10.07-14.81-22.74,.89"/>
    </g>
    <path class="cls-6" d="M404.43,735.36s-11.8,13.75-7.99,33.09"/>
    <path class="cls-6" d="M549.61,658.48s13.25-2.73,18.86,17.24"/>
    <path class="cls-6" d="M578.7,673.96s34.33-31.2,46.22-12.71"/>
    <line class="cls-6" x1="568.76" y1="661.5" x2="590.87" y2="658.89"/>
    <path class="cls-7" d="M130.17,704.6s.5-27.11-.12-53.41"/>
    <line class="cls-4" x1="373.87" y1="685.56" x2="365.85" y2="644.9"/>
    <path class="cls-26" d="M217.21,422.07s23.38-6.55,33.28,1.8c0,0,6.67-6.19,25.25,1.79,0,0-5.01,26.91-27.6,25.96-32.24-1.35-30.93-29.56-30.93-29.56Z"/>
    <path class="cls-17" d="M221.48,425.26s2.19,18.07,24.5,19.5c22.31,1.42,25.61-16.57,25.61-16.57,0,0-36.24-5.56-50.12-2.93Z"/>
    <path class="cls-15" d="M227.01,424.66s4.95,5.7,22.08,6.99c15.78,1.19,20.63-3.82,20.63-3.82,0,0-23.09-4.23-42.7-3.17Z"/>
    <rect class="cls-25" x=".17" y="900.08" width="1333" height="98.54"/>
    <rect class="cls-18" x=".17" y="949.5" width="1333" height="49.27"/>
    <path class="cls-24" d="M16.69,650.14s9.23,117.53,29.4,206.07c0,0,1.75,41.2,57.86,46.46l215.65-5.26s29.51,17.53,62.01,11.12c0,0-3.42,11.97,5.99,16.68l12.4-15.4s2.14,6.84,8.55,3.85l8.13-12.4s2.14,6.84,11.12,1.71l5.13-17.11s9.84,16.25,14.54,2.99l-14.97-30.37-49.18-17.11-68.86,14.54-184.32-43.86v-107.41s-72.6,5.31-113.45-54.51Z"/>
    <path class="cls-6" d="M383.63,891.14s29.86,1.34,16.37,18.68l-12.4,15.4s-9.86-.64-5.99-16.68c0,0-26.85,7.58-62.01-11.12"/>
    <path class="cls-6" d="M395.63,870.49l22.57,11.04s6.6,7.32-1.53,19.73l-8.13,12.4s-5.78,3.87-8.55-3.85"/>
    <path class="cls-6" d="M400.91,855.12s29.75,8.24,32.17,21.61c1.06,5.87-.16,9.13-.16,9.13l-5.13,17.11s-7.77,5.72-11.12-1.71"/>
    <path class="cls-6" d="M130.14,812.07s-19,3.38-27.53,19.66"/>
    <polyline class="cls-6" points="362.62 845.64 383.32 841.38 394.01 845.23"/>
    <g>
      <path class="cls-24" d="M1163.57,433.51s-9.88,31.3,6.08,61.88c0,0,3.99,111.69-81.11,120.34,0,0-59.37-43.5-34.34-115.16l109.37-67.06Z"/>
      <path class="cls-31" d="M1027.6,916.7c180.43,8.34,215.15-6.48,241.7-23.33,9.97-6.33,29.75-40.2,30-52.01l3.21-159.74c-4.39-60.69-35.3-114.73-35.3-114.73-37.75-47.82-97.56-71.51-97.56-71.51-23.96,28.87-48.03,41.75-57.23,58.3-12.58,22.65-21.5,35.8-21.5,35.8-12.14-9.31-2.52-54.67-2.52-54.67-27.41-12.3-38.27-30.25-38.27-30.25-35.4,9.29-39.96,13.15-67.84,37.12-33.99,29.22-42.86,80.69-42.86,80.69-10.79,51.09-7.94,74.16-27.74,150.03l-60.19-19.19c-102.08-18.72-102.26,69.61-102.26,69.61l132.09,85.83,140.65,5.77,5.64,2.29"/>
      <path class="cls-29" d="M533.23,604.45l20.62-25.07s6.47-8.89,15.36,.81l98.25,71.97s19.16,9.92,11.81,19.51l-18.27,22.94s-3.3,6.18-11.76,4.91l-111.96-78.09s-10.11-7.68-4.04-16.98Z"/>
      <path class="cls-20" d="M545.4,607.36l17.49-21.26s5.49-7.54,13.03,.69l83.33,61.04s16.25,8.41,10.01,16.55l-15.5,19.46s-2.8,5.24-9.97,4.16l-94.97-66.24s-8.57-6.52-3.43-14.4Z"/>
      <path class="cls-24" d="M1025.01,302.75s-19.76,18.63-14.68,67.74c0,0,4.52,12.42,2.26,26.53,0,0-6.3,24.83,.36,46.05,9.05,28.82,23.91,40.89,23.91,40.89,0,0,11.29,11.29,26.53,8.47,0,0,23.14,7.9,43.47-5.08,20.32-12.98,55.32-53.63,55.32-53.63,0,0,18.63,5.08,24.27-14.11,5.64-19.19,14.11-33.87,2.26-45.16-11.85-11.29-26.53,19.76-26.53,19.76,0,0-1.61-10.27,.65-24.39,0,0-.32-27.63-17.02-60.85,0,0-52.37-22.73-120.8-6.21Z"/>
      <path class="cls-23" d="M1088.82,440.36s-13.33-4.12-29.2,.39c0,0-13.72-2.74-26.06,0,0,0,1.37,22.14,22.14,27.04,20.77,4.9,33.51-14.5,33.12-27.43Z"/>
      <path class="cls-17" d="M1085.48,441.93s.2,19.6-25.28,19.6c-23.14,0-23.32-17.44-23.32-17.44,0,0,26.06,1.18,48.6-2.16Z"/>
      <path class="cls-28" d="M1077.88,365.36s25.92-10.44,48.69,2.37c0,0-11.21-23.73-49.39-12.82,0,0-6.3,6.65,.7,10.44Z"/>
      <path class="cls-28" d="M1010.91,362.2c18.1-3.58,26.9,3.67,26.9,3.67,6.81-3.64,.68-10.01,.68-10.01-11.57-3.26-20.6-3.3-27.54-1.8,0,0-1.03,8.34-.04,8.14Z"/>
      <path class="cls-15" d="M1082.32,442.21s-6.31,9.07-26.03,8.12c0,0-12.16,.61-17.25-5.86,0,0,25.41,.55,43.28-2.27Z"/>
      <path class="cls-33" d="M1064.91,493.91s28.27,4.31,40.17-5.64c0,0,13.84-7.02,30.03-25.15,0,0-19.71,32.45-45.82,35.49,0,0-12.28,2.14-24.37-4.7,0,0,.49,2.82,0,0Z"/>
      <path class="cls-31" d="M860.17,755.86s-63.54-28.43-122.37-50.42l-36.96-20.79s-43,23.04-46.45,62.24c0,0,27.03,18.73,45.29,23.47,0,0,16.12,30.12,49.55,52.45,0,0,19.49-82.21,110.94-66.96Z"/>
      <path class="cls-31" d="M1120.41,806.9s-70.63,12.24-130.95,29.7l-42.06,5.39s-21.54,38.24-.9,71.75c0,0,31.98,2.44,49.46-4.65,0,0,32.99,10.08,73.14,8.03,0,0-31.16-67.88,51.31-110.22Z"/>
      <path class="cls-8" d="M1188.08,402.37s-8.08-21.44-24.54,13.05c0,0,13.98-15.22,16.47-2.17"/>
      <path class="cls-8" d="M1037.99,404.04s-12.81,19.05,9.52,21.3"/>
      <g>
        <path class="cls-15" d="M1106.4,379.86s.03-.68-.45-1.26c-1.6-1.94-5.32-5.59-11.37-5.81-6.78-.25-10.75,5.98-12.11,8.2-.23,.38-.23,.73-.23,.73,0,0-.04,.38,.18,.65,1.04,1.3,4.51,4.94,10.93,5.27,3.82,.2,9.26-1.65,12.77-6.71,.24-.35,.28-.81,.28-1.06Z"/>
        <circle class="cls-33" cx="1092.37" cy="380.54" r="7.01"/>
        <circle class="cls-15" cx="1096.85" cy="379.28" r="1.92"/>
        <path class="cls-3" d="M1082.05,380.98s8.85-15.87,24.16-2.43"/>
      </g>
      <g>
        <path class="cls-15" d="M1036.84,382.66s.13-.63-.24-1.24c-1.21-2.03-4.15-5.96-9.75-7.03-6.27-1.2-10.85,4.02-12.43,5.89-.27,.32-.31,.65-.31,.65,0,0-.09,.34,.07,.63,.78,1.35,3.49,5.24,9.41,6.47,3.52,.73,8.85-.21,12.84-4.42,.28-.29,.37-.71,.41-.94Z"/>
        <circle class="cls-33" cx="1023.7" cy="381.28" r="6.57"/>
        <circle class="cls-15" cx="1028.23" cy="380.89" r="1.84"/>
        <path class="cls-3" d="M1014.28,380.48s10.19-14.48,22.47,1.24"/>
      </g>
      <path class="cls-3" d="M911.68,773.92s23.42,14.8,23.42,24.88"/>
      <path class="cls-24" d="M662.89,719.73l-32.22-4.91-46.41-33.85-15.29-27.3-6.01-15.29,13.65,10.92s14.2-12.01,22.93,14.74l6.55,6.55-2.73-8.74s14.2-18.02,24.03,21.84l21.84,15.83s7.36,.89,10.96-3.87c6.26-8.29,7.35-9.9,19.08-23.97l9.83,13.65,4.37,3.28s-13.1,8.74-30.58,31.12Z"/>
      <path class="cls-6" d="M589.86,679.36l-13.24-30.07s13.17-11.93,22.93,14.74l5.71,16.13"/>
      <path class="cls-6" d="M618.18,698.09l-3.71-4.57-11.1-31.67s13.53-18.26,24.03,21.84c0,0,17.34,10.68,18.77,18.68"/>
      <path class="cls-6" d="M689.1,685.33s-.07,12.45-12.72,14.7"/>
      <path class="cls-27" d="M944.82,847.98l-78.95-16.67-56.4,19.62-17.16,34.82c5.39,15.2,16.67-3.43,16.67-3.43l5.88,19.62c10.3,5.88,12.75-1.96,12.75-1.96l9.32,14.22c7.36,3.43,9.81-4.41,9.81-4.41l14.22,17.65c10.79-5.39,6.87-19.13,6.87-19.13,37.27,7.36,71.11-12.75,71.11-12.75"/>
      <path class="cls-6" d="M865.51,888.35s-34.24,1.53-18.77,21.42l14.22,17.65s11.31-.73,6.87-19.13c0,0,30.79,8.69,71.11-12.75"/>
      <path class="cls-6" d="M851.74,864.67l-25.88,12.66s-7.57,8.4,1.75,22.62"/>
      <path class="cls-6" d="M845.69,847.05s-34.69,9.36-36.89,24.78,.18,10.47,.18,10.47"/>
      <path class="cls-3" d="M957.06,648.75s-7.1,92.31,8.52,183.2"/>
      <path class="cls-3" d="M1208.42,599.04c-25.56,62.49,4.26,194.56,4.26,194.56-40.86-2.19-92.27,13.3-92.27,13.3,0,0-104.74,21.16-130.95,29.7l-43.64-2.14-1.01,13.51"/>
      <path class="cls-3" d="M1212.68,793.6s36.92,5.68,44.02,25.56"/>
      <path class="cls-28" d="M1145.31,314.59s-26.74-17.84-42.23,2.36c-20.19,26.31-34.31,.31-50.75,14.81,0,0-15.88-33.21-35.63-10.31,0,0-11.61-37.76,31.89-63.76,0,0,48.8-28.52,97.08,4.23,0,0,47.04,8.75,45.19,52.66,0,0-25.61-24.04-45.54,.02Z"/>
      <path class="cls-11" d="M1183.25,289.75s27.32,18.66,10.48,92.57c0,0-15.95-21.53-32.1,15.57l-8.23,13.84s14.88-76.92-14.32-106.7l44.17-15.29Z"/>
      <path class="cls-32" d="M1184.89,502.43s-61.2,33.28-73.83,55.36l1.75-21.88s41.25-23.26,58.12-45.76l13.95,12.28Z"/>
      <path class="cls-32" d="M1060.87,495.71s-23.96-.79-23.06,14.73l49.01,37.31,1.58-12.94s-23.11-11.55-38.27-30.25c0,0,10.17-1.37,10.74-8.86Z"/>
      <path class="cls-5" d="M1091.34,617.17s-6.82,61.37-10.88,189"/>
      <ellipse class="cls-16" cx="1105.28" cy="625.75" rx="3.82" ry="4.14"/>
      <ellipse class="cls-16" cx="1095.6" cy="695.23" rx="3.82" ry="4.14"/>
      <ellipse class="cls-16" cx="1090.81" cy="770.45" rx="3.82" ry="4.14"/>
      <g>
        <polyline class="cls-15" points="996.72 834.7 987.26 845.98 998.89 855.73 1008.77 843.95 997.63 834.58"/>
        <polygon class="cls-32" points="1008.01 834.08 997.63 834.58 1008.68 843.83 1017.03 833.9 1008.01 834.08"/>
        <polyline class="cls-15" points="1017.09 833.95 1008.7 843.95 1020.32 853.7 1030.2 841.92 1020.7 833.96"/>
        <rect class="cls-15" x="992.15" y="858.93" width="15.38" height="15.17" transform="translate(-306.58 1075.85) rotate(-50.02)"/>
        <rect class="cls-32" x="1001.94" y="847.03" width="15.38" height="15.17" transform="translate(-293.96 1079.09) rotate(-50.02)"/>
        <rect class="cls-15" x="1013.58" y="856.91" width="15.38" height="15.17" transform="translate(-297.36 1091.55) rotate(-50.02)"/>
        <rect class="cls-15" x="993.89" y="880.37" width="15.38" height="15.17" transform="translate(-322.38 1084.84) rotate(-50.02)"/>
        <rect class="cls-32" x="1003.68" y="868.47" width="15.38" height="15.17" transform="translate(-309.76 1088.09) rotate(-50.02)"/>
        <rect class="cls-15" x="1015.32" y="878.35" width="15.38" height="15.17" transform="translate(-313.17 1100.54) rotate(-50.02)"/>
        <rect class="cls-32" x="1005.42" y="889.91" width="15.38" height="15.17" transform="translate(-325.57 1097.09) rotate(-50.02)"/>
        <polygon class="cls-15" points="1002.31 898.34 998.75 903.79 1008.65 914.36 1013.94 908.09 1002.31 898.34"/>
        <rect class="cls-15" x="1016.93" y="899.49" width="15.38" height="15.17" transform="translate(-328.8 1109.34) rotate(-50.02)"/>
      </g>
      <g class="cls-34">
        <g>
          <rect class="cls-15" x="1141.46" y="957.04" width="18.5" height="18.5" transform="translate(-349.97 1042.66) rotate(-42.93)"/>
          <rect class="cls-32" x="1128" y="969.8" width="18.5" height="18.5" transform="translate(-362.26 1036.91) rotate(-42.93)"/>
          <rect class="cls-15" x="1115.4" y="956.1" width="18.5" height="18.5" transform="translate(-356.31 1024.65) rotate(-42.93)"/>
          <rect class="cls-15" x="1142.32" y="930.85" width="18.5" height="18.5" transform="translate(-331.89 1036.23) rotate(-42.93)"/>
          <rect class="cls-32" x="1128.87" y="943.61" width="18.5" height="18.5" transform="translate(-344.19 1030.48) rotate(-42.93)"/>
          <rect class="cls-15" x="1116.26" y="929.91" width="18.5" height="18.5" transform="translate(-338.23 1018.22) rotate(-42.93)"/>
          <rect class="cls-15" x="1143.26" y="904.81" width="18.5" height="18.5" transform="translate(-313.91 1029.89) rotate(-42.93)"/>
          <rect class="cls-32" x="1129.81" y="917.58" width="18.5" height="18.5" transform="translate(-326.2 1024.15) rotate(-42.93)"/>
          <rect class="cls-15" x="1117.2" y="903.88" width="18.5" height="18.5" transform="translate(-320.25 1011.89) rotate(-42.93)"/>
          <rect class="cls-15" x="1138.79" y="1035.6" width="18.5" height="18.5" transform="translate(-404.19 1061.88) rotate(-42.93)"/>
          <rect class="cls-32" x="1125.33" y="1048.36" width="18.5" height="18.5" transform="translate(-416.49 1056.13) rotate(-42.93)"/>
          <rect class="cls-15" x="1112.73" y="1034.66" width="18.5" height="18.5" transform="translate(-410.53 1043.87) rotate(-42.93)"/>
          <rect class="cls-15" x="1139.65" y="1009.41" width="18.5" height="18.5" transform="translate(-386.12 1055.45) rotate(-42.93)"/>
          <rect class="cls-32" x="1126.19" y="1022.17" width="18.5" height="18.5" transform="translate(-398.41 1049.7) rotate(-42.93)"/>
          <rect class="cls-15" x="1113.59" y="1008.47" width="18.5" height="18.5" transform="translate(-392.46 1037.45) rotate(-42.93)"/>
          <rect class="cls-15" x="1140.59" y="983.37" width="18.5" height="18.5" transform="translate(-368.13 1049.12) rotate(-42.93)"/>
          <rect class="cls-32" x="1127.13" y="996.13" width="18.5" height="18.5" transform="translate(-380.43 1043.37) rotate(-42.93)"/>
          <rect class="cls-15" x="1114.53" y="982.43" width="18.5" height="18.5" transform="translate(-374.47 1031.11) rotate(-42.93)"/>
          <rect class="cls-15" x="1144.2" y="878.77" width="18.5" height="18.5" transform="translate(-295.92 1023.56) rotate(-42.93)"/>
          <rect class="cls-32" x="1130.74" y="891.54" width="18.5" height="18.5" transform="translate(-308.21 1017.81) rotate(-42.93)"/>
          <rect class="cls-15" x="1118.14" y="877.83" width="18.5" height="18.5" transform="translate(-302.26 1005.55) rotate(-42.93)"/>
          <rect class="cls-15" x="1145.14" y="852.74" width="18.5" height="18.5" transform="translate(-277.93 1017.22) rotate(-42.93)"/>
          <rect class="cls-32" x="1131.68" y="865.5" width="18.5" height="18.5" transform="translate(-290.23 1011.48) rotate(-42.93)"/>
          <rect class="cls-15" x="1119.08" y="851.8" width="18.5" height="18.5" transform="translate(-284.27 999.22) rotate(-42.93)"/>
          <rect class="cls-15" x="1146.08" y="826.79" width="18.5" height="18.5" transform="translate(-260.01 1010.91) rotate(-42.93)"/>
          <rect class="cls-32" x="1132.62" y="839.55" width="18.5" height="18.5" transform="translate(-272.3 1005.16) rotate(-42.93)"/>
          <rect class="cls-15" x="1120.01" y="825.85" width="18.5" height="18.5" transform="translate(-266.35 992.91) rotate(-42.93)"/>
          <rect class="cls-15" x="1147.01" y="800.75" width="18.5" height="18.5" transform="translate(-242.02 1004.57) rotate(-42.93)"/>
          <rect class="cls-32" x="1133.56" y="813.51" width="18.5" height="18.5" transform="translate(-254.31 998.83) rotate(-42.93)"/>
          <rect class="cls-15" x="1120.95" y="799.81" width="18.5" height="18.5" transform="translate(-248.36 986.57) rotate(-42.93)"/>
          <rect class="cls-15" x="1147.95" y="774.8" width="18.5" height="18.5" transform="translate(-224.09 998.26) rotate(-42.93)"/>
          <rect class="cls-32" x="1134.49" y="787.56" width="18.5" height="18.5" transform="translate(-236.39 992.51) rotate(-42.93)"/>
          <rect class="cls-15" x="1121.89" y="773.86" width="18.5" height="18.5" transform="translate(-230.43 980.26) rotate(-42.93)"/>
          <rect class="cls-15" x="1148.89" y="748.76" width="18.5" height="18.5" transform="translate(-206.1 991.93) rotate(-42.93)"/>
          <rect class="cls-32" x="1135.43" y="761.52" width="18.5" height="18.5" transform="translate(-218.4 986.18) rotate(-42.93)"/>
          <rect class="cls-15" x="1122.83" y="747.82" width="18.5" height="18.5" transform="translate(-212.44 973.92) rotate(-42.93)"/>
          <rect class="cls-15" x="1149.83" y="722.82" width="18.5" height="18.5" transform="translate(-188.18 985.61) rotate(-42.93)"/>
          <rect class="cls-32" x="1136.37" y="735.58" width="18.5" height="18.5" transform="translate(-200.47 979.87) rotate(-42.93)"/>
          <rect class="cls-15" x="1123.76" y="721.88" width="18.5" height="18.5" transform="translate(-194.52 967.61) rotate(-42.93)"/>
          <rect class="cls-15" x="1150.86" y="696.32" width="18.5" height="18.5" transform="translate(-169.85 979.22) rotate(-42.93)"/>
          <rect class="cls-32" x="1137.41" y="709.08" width="18.5" height="18.5" transform="translate(-182.15 973.48) rotate(-42.93)"/>
          <rect class="cls-15" x="1124.8" y="695.38" width="18.5" height="18.5" transform="translate(-176.19 961.22) rotate(-42.93)"/>
          <rect class="cls-15" x="1151.73" y="670.13" width="18.5" height="18.5" transform="translate(-151.78 972.79) rotate(-42.93)"/>
          <rect class="cls-32" x="1138.27" y="682.89" width="18.5" height="18.5" transform="translate(-164.08 967.05) rotate(-42.93)"/>
          <rect class="cls-15" x="1125.66" y="669.19" width="18.5" height="18.5" transform="translate(-158.12 954.79) rotate(-42.93)"/>
          <rect class="cls-15" x="1152.66" y="644.09" width="18.5" height="18.5" transform="translate(-133.79 966.46) rotate(-42.93)"/>
          <rect class="cls-32" x="1139.21" y="656.85" width="18.5" height="18.5" transform="translate(-146.09 960.71) rotate(-42.93)"/>
          <rect class="cls-15" x="1126.6" y="643.15" width="18.5" height="18.5" transform="translate(-140.13 948.46) rotate(-42.93)"/>
          <rect class="cls-15" x="1153.6" y="618.05" width="18.5" height="18.5" transform="translate(-115.81 960.12) rotate(-42.93)"/>
          <rect class="cls-32" x="1140.15" y="630.81" width="18.5" height="18.5" transform="translate(-128.1 954.38) rotate(-42.93)"/>
          <rect class="cls-15" x="1127.54" y="617.11" width="18.5" height="18.5" transform="translate(-122.15 942.12) rotate(-42.93)"/>
          <rect class="cls-15" x="1154.54" y="592.01" width="18.5" height="18.5" transform="translate(-97.82 953.79) rotate(-42.93)"/>
          <rect class="cls-32" x="1141.09" y="604.77" width="18.5" height="18.5" transform="translate(-110.11 948.04) rotate(-42.93)"/>
          <rect class="cls-15" x="1128.48" y="591.07" width="18.5" height="18.5" transform="translate(-104.16 935.79) rotate(-42.93)"/>
          <rect class="cls-15" x="1155.48" y="566.07" width="18.5" height="18.5" transform="translate(-79.89 947.48) rotate(-42.93)"/>
          <rect class="cls-32" x="1142.02" y="578.83" width="18.5" height="18.5" transform="translate(-92.19 941.73) rotate(-42.93)"/>
          <rect class="cls-15" x="1129.42" y="565.13" width="18.5" height="18.5" transform="translate(-86.23 929.47) rotate(-42.93)"/>
          <rect class="cls-15" x="1156.42" y="540.03" width="18.5" height="18.5" transform="translate(-61.9 941.14) rotate(-42.93)"/>
          <rect class="cls-32" x="1142.96" y="552.79" width="18.5" height="18.5" transform="translate(-74.2 935.39) rotate(-42.93)"/>
          <rect class="cls-15" x="1130.36" y="539.09" width="18.5" height="18.5" transform="translate(-68.24 923.14) rotate(-42.93)"/>
          <rect class="cls-15" x="1157.3" y="514.08" width="18.5" height="18.5" transform="translate(-43.99 934.79) rotate(-42.93)"/>
          <rect class="cls-32" x="1143.84" y="526.84" width="18.5" height="18.5" transform="translate(-56.29 929.04) rotate(-42.93)"/>
          <polyline class="cls-32" points="1151.24 520.34 1153.48 522.84 1167.03 510.24 1166.37 509.54"/>
          <polygon class="cls-15" points="1140.02 535.46 1153.57 522.86 1151.24 520.34 1137.04 532.05 1140.02 535.46"/>
        </g>
      </g>
    </g>
    <path class="cls-28" d="M318.97,520.67c3.14-35.79-.9-106.6-.9-106.6,14.47-113.74-19.75-151.34-19.75-151.34-79.12-67.6-146.11-15.5-146.11-15.5-18.54,5.7-62.32,31.36-63.75,88.4-1.43,57.05-8.13,74.02-13.83,113.95,0,0-29.68,118.36,2.08,251.08,4.83,20.19-7.33,65.99-7.33,65.99,0,0,80.39,11.92,102.65-193.31,6.68-61.62-22.06-166.49-22.06-166.49-19.47,8.03-24.81-4.26-24.81-4.26,0,0-12.24-18.24-7.82-37.11,4.49-19.17,27.43,1.25,27.43,1.25,12.72-72.93,43.01-91.26,43.01-91.26,75.78,32.18,108.03,24.53,108.03,24.53,0,0,7.43,15.43,8.23,28.4,.8,12.97-1.76,24.28-1.76,24.28-3.71,8.75-.34,18.25-.34,18.25,8.39,18.47-1.14,39.95-1.14,39.95-21.07,55.12-47.82,60.46-47.82,60.46,.26,18.03,24.29,26.24,24.29,26.24"/>
    <g>
      <circle class="cls-10" cx="133.06" cy="422.18" r="15.08"/>
      <line class="cls-10" x1="133.06" y1="437.27" x2="133.06" y2="486.05"/>
      <line class="cls-10" x1="121.63" y1="432.1" x2="121.63" y2="458.17"/>
      <line class="cls-10" x1="125.53" y1="435.29" x2="125.53" y2="469.16"/>
      <line class="cls-10" x1="129.26" y1="436.71" x2="129.26" y2="477.85"/>
      <line class="cls-10" x1="140.63" y1="435.29" x2="140.63" y2="469.16"/>
      <line class="cls-10" x1="136.91" y1="436.71" x2="136.91" y2="477.85"/>
      <line class="cls-10" x1="144.66" y1="432.1" x2="144.66" y2="458.17"/>
    </g>
    <g class="cls-35">
      <g>
        <circle class="cls-10" cx="288.9" cy="415.45" r="15.08"/>
        <line class="cls-10" x1="288.9" y1="430.54" x2="288.9" y2="479.32"/>
        <line class="cls-10" x1="281.37" y1="445.04" x2="281.37" y2="462.43"/>
        <line class="cls-10" x1="285.09" y1="429.98" x2="285.09" y2="471.12"/>
        <line class="cls-10" x1="296.47" y1="428.56" x2="296.47" y2="462.43"/>
        <line class="cls-10" x1="292.74" y1="429.98" x2="292.74" y2="471.12"/>
        <line class="cls-10" x1="300.49" y1="425.37" x2="300.49" y2="451.44"/>
      </g>
    </g>
    <path class="cls-14" d="M6.57,638.62s25.86,43.46,69.28,58.48l-4.96-23.67s-10.92,6.46-57.33-56.21l-6.99,21.4Z"/>
    <polygon class="cls-14" points="373.42 687.5 372.34 667.66 382.51 643.96 385.43 658.9 373.42 687.5"/>
    <path class="cls-14" d="M160.39,643.57s96.97,19.48,171.84-27.44l6.89,19.57s-78.74,53.83-183.11,24.33l4.38-16.46Z"/>
    <polyline class="cls-9" points="159.43 646.76 168.26 658.91 179.85 648.42 186.48 660.57 198.07 651.73 209.66 664.98 218.5 652.29 228.43 662.77 235.61 651.18 247.75 660.57 256.03 648.42 268.73 658.36 276.46 645.11 288.05 652.29 294.68 639.04 309.03 644.56 314.55 631.31 328.35 637.38 331.11 624.13"/>
    <polyline class="cls-9" points="157.22 655.6 169.36 645.66 177.09 660.57 188.68 648.42 196.97 663.88 208.01 651.73 219.6 664.43 228.43 651.18 237.27 662.22 245.55 648.42 257.14 660.57 265.42 645.66 277.01 655.6 285.29 640.69 296.33 650.08 303.51 634.62 318.42 642.35 322.28 625.23 335.27 637.35"/>
    <polyline class="cls-9" points="12.73 623.32 13.08 641.69 21.66 637.34 21.9 653.29 31.41 646.68 32.99 664.47 42.05 657.25 43.7 675.38 53.72 668.15 55.27 683.7 64.38 674.43 68.08 691.44 72.98 685.35"/>
    <polyline class="cls-9" points="8.4 636.29 18.68 630.23 16.9 647.94 27.38 641.16 26 657.41 36.99 651.57 37.16 668.93 48.16 661.35 48.43 681.12 59.46 671.29 61.77 688.07 70.6 677.76"/>
    <polyline class="cls-9" points="382.31 647.15 381.76 661.67 377.79 658.83 378.15 672.09 372.73 671.46 375.62 676.51 375.44 665.14 379.96 668.3 379.96 653.15 383.57 656.3"/>
  </g>
</svg>