<?xml version="1.0" encoding="UTF-8"?>
<svg id="Layer_1" data-name="Layer 1" xmlns="http://www.w3.org/2000/svg" viewBox="0 0 1334.02 1000.56">
  <defs>
    <style>
      .cls-1 {
        stroke-width: 1.5px;
      }

      .cls-1, .cls-2, .cls-3, .cls-4, .cls-5, .cls-6, .cls-7, .cls-8, .cls-9, .cls-10, .cls-11, .cls-12, .cls-13, .cls-14, .cls-15, .cls-16, .cls-17, .cls-18, .cls-19, .cls-20, .cls-21 {
        stroke-miterlimit: 10;
      }

      .cls-1, .cls-2, .cls-3, .cls-4, .cls-6, .cls-7, .cls-12, .cls-14, .cls-15, .cls-16, .cls-17, .cls-18, .cls-20, .cls-21 {
        fill: none;
      }

      .cls-1, .cls-4, .cls-6, .cls-8, .cls-14 {
        stroke: #231f20;
      }

      .cls-2 {
        stroke: #2b3990;
      }

      .cls-2, .cls-3, .cls-4, .cls-13 {
        stroke-width: .8px;
      }

      .cls-3, .cls-16, .cls-19 {
        stroke: #fff;
      }

      .cls-22, .cls-11 {
        fill: #f7daa6;
      }

      .cls-23 {
        fill: #f7d9a4;
      }

      .cls-24 {
        fill: #f8e8c5;
      }

      .cls-25 {
        fill: #f15953;
      }

      .cls-26 {
        fill: #f6aac1;
      }

      .cls-27 {
        fill: #e597c1;
      }

      .cls-28 {
        fill: #ea98b4;
      }

      .cls-29 {
        fill: #f05549;
      }

      .cls-30, .cls-19 {
        fill: #fff;
      }

      .cls-31 {
        fill: #ffcb05;
      }

      .cls-32 {
        fill: #fbb040;
      }

      .cls-33 {
        fill: #ef4136;
      }

      .cls-34 {
        fill: #efe3c0;
      }

      .cls-35 {
        fill: #fec252;
      }

      .cls-36 {
        fill: #803435;
      }

      .cls-37 {
        fill: #98d9e9;
      }

      .cls-38 {
        fill: #96d9ec;
      }

      .cls-39 {
        fill: #96d9f1;
      }

      .cls-40 {
        fill: #87664d;
      }

      .cls-41 {
        fill: #b597c0;
      }

      .cls-42 {
        fill: #b56e5b;
      }

      .cls-43 {
        fill: #8b5e3c;
      }

      .cls-44 {
        fill: #8cb13e;
      }

      .cls-45 {
        fill: #9054a2;
      }

      .cls-46 {
        fill: #8bcda9;
      }

      .cls-47, .cls-9 {
        fill: #a97c50;
      }

      .cls-48, .cls-10 {
        fill: #be9e7d;
      }

      .cls-49 {
        fill: #be8c8c;
      }

      .cls-50 {
        fill: #c0a1cc;
      }

      .cls-51 {
        fill: #d6e8f6;
      }

      .cls-52 {
        fill: #c66f2b;
      }

      .cls-53, .cls-5 {
        fill: #d1d3d4;
      }

      .cls-54 {
        fill: #d4bada;
      }

      .cls-55, .cls-13 {
        fill: #dcbf97;
      }

      .cls-56 {
        fill: #db964d;
      }

      .cls-57 {
        fill: #231f20;
      }

      .cls-58 {
        fill: #092f44;
      }

      .cls-59 {
        fill: #1c75bc;
      }

      .cls-60 {
        fill: #1c4824;
      }

      .cls-61 {
        fill: #88b241;
      }

      .cls-62 {
        fill: #546b82;
      }

      .cls-63 {
        fill: #87b13f;
      }

      .cls-64 {
        fill: #808285;
      }

      .cls-65 {
        fill: #3c2415;
      }

      .cls-66 {
        fill: #6189c6;
      }

      .cls-67 {
        fill: #26130f;
      }

      .cls-5 {
        stroke: #58595b;
        stroke-width: .2px;
      }

      .cls-6, .cls-7 {
        stroke-linecap: round;
      }

      .cls-7 {
        stroke: #1a152b;
      }

      .cls-8 {
        fill: #fafaf9;
      }

      .cls-8, .cls-9, .cls-10, .cls-20, .cls-21 {
        stroke-width: .5px;
      }

      .cls-9, .cls-21 {
        stroke: #a97c50;
      }

      .cls-10, .cls-11 {
        stroke: #603913;
      }

      .cls-12 {
        stroke: #db964d;
        stroke-width: 2px;
      }

      .cls-13, .cls-20 {
        stroke: #754c29;
      }

      .cls-15 {
        stroke: #92278f;
      }

      .cls-17 {
        stroke: #ed1c24;
      }

      .cls-18 {
        stroke: #d1d3d4;
      }

      .cls-19 {
        stroke-width: 6px;
      }
    </style>
  </defs>
  <g>
    <rect class="cls-46" x=".12" y=".5" width="1333.9" height="903.72" transform="translate(1334.15 904.72) rotate(-180)"/>
    <rect class="cls-23" x="0" y="903.28" width="1334.02" height="97.28" transform="translate(1334.02 1903.84) rotate(-180)"/>
    <rect class="cls-40" x="329.7" y="791.56" width="1002.17" height="61.84"/>
    <rect class="cls-40" x="1257.62" y="405.84" width="76.36" height="549.5"/>
    <rect class="cls-53" x="310.89" y="705.57" width="996.21" height="85.06" rx="8.69" ry="8.69"/>
    <path class="cls-30" d="M1256.45,705.61s11.89-96.08-94.1-92.12c-25.43,.95-46.99,3.39-67.07,11.64-63.61,26.15-106.66,80.37-106.66,80.37l267.83,.1Z"/>
    <path class="cls-26" d="M270.84,659.22c59.04,5.74,119.36,7.28,174.33,3.03,306.3-23.69,457.28,16.5,457.28,16.5,0,0-18.18,111.28-89.5,216.28,0,0-245.79,20.72-416.16,63.31-170.37,42.59-220.86,1.2-220.86,1.2l.58-238.88s67.36-64.05,94.33-61.42Z"/>
    <g>
      <rect class="cls-30" x=".49" y=".71" width="385.79" height="239.74"/>
      <rect class="cls-64" x=".58" y=".49" width="373.18" height="227.44"/>
      <line class="cls-19" x1="21.29" y1="1.3" x2="21.29" y2="239.1"/>
      <line class="cls-19" x1="297.6" y1="132.08" x2="1.4" y2="132.08"/>
      <line class="cls-19" x1="297.6" y1="17.88" x2="1.4" y2="17.88"/>
      <line class="cls-19" x1="119.65" y1="1.3" x2="119.65" y2="239.1"/>
      <line class="cls-19" x1="227.91" y1="1.3" x2="227.91" y2="239.1"/>
      <path class="cls-50" d="M295.12,0l-10.06,260.21s23,8.63,44.57,4.31l-1.44,20.13s40.25,20.13,81.94,2.88L397.19,0h-102.07Z"/>
      <line class="cls-15" x1="328.19" y1="284.65" x2="347.57" y2="76.21"/>
      <line class="cls-18" x1="126.3" y1="146.49" x2="139.27" y2="164.1"/>
      <line class="cls-18" x1="135.56" y1="140" x2="148.54" y2="157.61"/>
      <line class="cls-18" x1="83.19" y1="100.14" x2="96.17" y2="117.75"/>
      <line class="cls-18" x1="92.46" y1="93.65" x2="105.44" y2="111.26"/>
      <line class="cls-18" x1="130" y1="33.41" x2="142.98" y2="51.02"/>
      <line class="cls-18" x1="139.27" y1="26.92" x2="152.25" y2="44.53"/>
      <line class="cls-18" x1="238.45" y1="102.46" x2="251.43" y2="120.07"/>
      <line class="cls-18" x1="247.72" y1="95.97" x2="260.69" y2="113.58"/>
      <line class="cls-18" x1="31.75" y1="206.73" x2="44.73" y2="224.35"/>
      <line class="cls-18" x1="41.02" y1="200.25" x2="54" y2="217.86"/>
      <line class="cls-18" x1="235.2" y1="206.73" x2="248.18" y2="224.35"/>
      <line class="cls-18" x1="244.47" y1="200.25" x2="257.45" y2="217.86"/>
    </g>
    <rect class="cls-40" x="683.75" y="288.92" width="473.04" height="14.28"/>
    <path class="cls-16" d="M570.87,.82s317.71,127.36,751.94,1.35"/>
    <path class="cls-23" d="M610.32,22.87l9.29-11.12c2.25-2.7,6.62-1.64,7.39,1.79l3.18,14.14c.31,1.36,1.26,2.48,2.56,3l13.45,5.39c3.26,1.31,3.61,5.79,.58,7.58l-12.46,7.39c-1.2,.71-1.97,1.97-2.07,3.36l-.97,14.46c-.24,3.5-4.39,5.22-7.03,2.9l-10.88-9.57c-1.05-.92-2.48-1.27-3.83-.93l-14.05,3.54c-3.41,.86-6.32-2.56-4.93-5.79l5.74-13.31c.55-1.28,.44-2.75-.3-3.93l-7.71-12.27c-1.87-2.97,.48-6.8,3.98-6.47l14.43,1.34c1.39,.13,2.75-.43,3.65-1.5Z"/>
    <path class="cls-23" d="M693.28,42.58l8.44-11.78c2.05-2.86,6.48-2.13,7.5,1.23l4.22,13.86c.41,1.33,1.44,2.38,2.77,2.81l13.81,4.38c3.35,1.06,4.02,5.5,1.14,7.51l-11.88,8.29c-1.14,.8-1.82,2.11-1.81,3.5l.1,14.49c.02,3.51-3.99,5.53-6.79,3.41l-11.56-8.74c-1.11-.84-2.57-1.08-3.89-.64l-13.75,4.57c-3.33,1.11-6.49-2.09-5.34-5.41l4.74-13.69c.46-1.32,.23-2.78-.59-3.9l-8.6-11.66c-2.08-2.83-.02-6.82,3.49-6.75l14.49,.27c1.39,.03,2.71-.64,3.53-1.77Z"/>
    <path class="cls-23" d="M778.21,56.7l6.76-12.82c1.64-3.11,6.13-2.99,7.6,.2l6.06,13.16c.58,1.27,1.75,2.17,3.13,2.4l14.28,2.47c3.46,.6,4.74,4.91,2.16,7.29l-10.64,9.83c-1.02,.95-1.52,2.34-1.32,3.72l2.07,14.34c.5,3.48-3.2,6.02-6.27,4.3l-12.64-7.08c-1.22-.68-2.69-.72-3.94-.11l-13,6.4c-3.15,1.55-6.71-1.19-6.03-4.63l2.83-14.21c.27-1.37-.15-2.78-1.12-3.78l-10.1-10.39c-2.45-2.52-.95-6.75,2.54-7.16l14.39-1.7c1.39-.16,2.6-1,3.25-2.23Z"/>
    <path class="cls-23" d="M859.58,63.08l6.76-12.82c1.64-3.11,6.13-2.99,7.6,.2l6.06,13.16c.58,1.27,1.75,2.17,3.13,2.4l14.28,2.47c3.46,.6,4.74,4.91,2.16,7.29l-10.64,9.83c-1.02,.95-1.52,2.34-1.32,3.72l2.07,14.34c.5,3.48-3.2,6.02-6.27,4.3l-12.64-7.08c-1.22-.68-2.69-.72-3.94-.11l-13,6.4c-3.15,1.55-6.71-1.19-6.03-4.63l2.83-14.21c.27-1.37-.15-2.78-1.12-3.78l-10.1-10.39c-2.45-2.52-.95-6.75,2.54-7.16l14.39-1.7c1.39-.16,2.6-1,3.25-2.23Z"/>
    <path class="cls-23" d="M939.94,67.98l4.95-13.62c1.2-3.3,5.67-3.79,7.56-.83l7.79,12.21c.75,1.18,2.03,1.91,3.43,1.96l14.48,.5c3.51,.12,5.36,4.22,3.12,6.93l-9.21,11.19c-.89,1.08-1.19,2.52-.8,3.86l3.99,13.93c.97,3.38-2.36,6.4-5.62,5.11l-13.48-5.3c-1.3-.51-2.76-.35-3.92,.43l-12.01,8.1c-2.91,1.96-6.81-.26-6.6-3.77l.87-14.46c.08-1.39-.52-2.74-1.62-3.6l-11.42-8.92c-2.77-2.16-1.86-6.56,1.55-7.44l14.03-3.64c1.35-.35,2.44-1.34,2.92-2.65Z"/>
    <path class="cls-23" d="M1024.5,64l4.95-13.62c1.2-3.3,5.67-3.79,7.56-.83l7.79,12.21c.75,1.18,2.03,1.91,3.43,1.96l14.48,.5c3.51,.12,5.36,4.22,3.12,6.93l-9.21,11.19c-.89,1.08-1.19,2.52-.8,3.86l3.99,13.93c.97,3.38-2.36,6.4-5.62,5.11l-13.48-5.3c-1.3-.51-2.76-.35-3.92,.43l-12.01,8.1c-2.91,1.96-6.81-.26-6.6-3.77l.87-14.46c.08-1.39-.52-2.74-1.62-3.6l-11.42-8.92c-2.77-2.16-1.86-6.56,1.55-7.44l14.03-3.64c1.35-.35,2.44-1.34,2.92-2.65Z"/>
    <path class="cls-23" d="M1119.44,53.04l2.92-14.19c.71-3.44,5.05-4.58,7.35-1.92l9.49,10.95c.91,1.05,2.29,1.59,3.67,1.44l14.4-1.61c3.49-.39,5.91,3.39,4.1,6.4l-7.48,12.41c-.72,1.19-.81,2.67-.23,3.94l5.98,13.2c1.45,3.2-1.4,6.67-4.82,5.88l-14.11-3.28c-1.36-.32-2.79,.06-3.82,1l-10.7,9.77c-2.59,2.37-6.78,.73-7.08-2.77l-1.24-14.44c-.12-1.39-.92-2.63-2.13-3.32l-12.6-7.16c-3.05-1.74-2.79-6.22,.44-7.59l13.35-5.64c1.28-.54,2.22-1.68,2.5-3.05Z"/>
    <path class="cls-23" d="M1210.38,37.09l2.92-14.19c.71-3.44,5.05-4.58,7.35-1.92l9.49,10.95c.91,1.05,2.29,1.59,3.67,1.44l14.4-1.61c3.49-.39,5.91,3.39,4.1,6.4l-7.48,12.41c-.72,1.19-.81,2.67-.23,3.94l5.98,13.2c1.45,3.2-1.4,6.67-4.82,5.88l-14.11-3.28c-1.36-.32-2.79,.06-3.82,1l-10.7,9.77c-2.59,2.37-6.78,.73-7.08-2.77l-1.24-14.44c-.12-1.39-.92-2.63-2.13-3.32l-12.6-7.16c-3.05-1.74-2.79-6.22,.44-7.59l13.35-5.64c1.28-.54,2.22-1.68,2.5-3.05Z"/>
    <path class="cls-25" d="M920.5,140.01v148.56h-26.32V140.01s13.42-7.34,26.32,0Z"/>
    <path class="cls-37" d="M992.91,170.55l23.47,114.75-17.62,3.6-23.47-114.75s7.83-7.5,17.62-3.6Z"/>
    <path class="cls-31" d="M977.33,161.45v127.12h-30.97v-127.12s15.79-6.28,30.97,0Z"/>
    <path class="cls-34" d="M907.29,181.42l1.13-.59c1.07-.56,2.33,.35,2.12,1.54l-.22,1.26c-.08,.47,.08,.96,.42,1.29l.91,.89c.87,.85,.39,2.32-.81,2.49l-1.26,.18c-.48,.07-.89,.37-1.1,.8l-.56,1.14c-.54,1.09-2.09,1.09-2.62,0l-.56-1.14c-.21-.43-.62-.73-1.1-.8l-1.26-.18c-1.2-.17-1.68-1.65-.81-2.49l.91-.89c.34-.34,.5-.82,.42-1.29l-.22-1.26c-.2-1.19,1.05-2.11,2.12-1.54l1.13,.59c.43,.22,.93,.22,1.36,0Z"/>
    <path class="cls-34" d="M907.29,197.68l1.13-.59c1.07-.56,2.33,.35,2.12,1.54l-.22,1.26c-.08,.47,.08,.96,.42,1.29l.91,.89c.87,.85,.39,2.32-.81,2.49l-1.26,.18c-.48,.07-.89,.37-1.1,.8l-.56,1.14c-.54,1.09-2.09,1.09-2.62,0l-.56-1.14c-.21-.43-.62-.73-1.1-.8l-1.26-.18c-1.2-.17-1.68-1.65-.81-2.49l.91-.89c.34-.34,.5-.82,.42-1.29l-.22-1.26c-.2-1.19,1.05-2.11,2.12-1.54l1.13,.59c.43,.22,.93,.22,1.36,0Z"/>
    <path class="cls-34" d="M907.29,213.24l1.13-.59c1.07-.56,2.33,.35,2.12,1.54l-.22,1.26c-.08,.47,.08,.96,.42,1.29l.91,.89c.87,.85,.39,2.32-.81,2.49l-1.26,.18c-.48,.07-.89,.37-1.1,.8l-.56,1.14c-.54,1.09-2.09,1.09-2.62,0l-.56-1.14c-.21-.43-.62-.73-1.1-.8l-1.26-.18c-1.2-.17-1.68-1.65-.81-2.49l.91-.89c.34-.34,.5-.82,.42-1.29l-.22-1.26c-.2-1.19,1.05-2.11,2.12-1.54l1.13,.59c.43,.22,.93,.22,1.36,0Z"/>
    <path class="cls-34" d="M907.29,229.04l1.13-.59c1.07-.56,2.33,.35,2.12,1.54l-.22,1.26c-.08,.47,.08,.96,.42,1.29l.91,.89c.87,.85,.39,2.32-.81,2.49l-1.26,.18c-.48,.07-.89,.37-1.1,.8l-.56,1.14c-.54,1.09-2.09,1.09-2.62,0l-.56-1.14c-.21-.43-.62-.73-1.1-.8l-1.26-.18c-1.2-.17-1.68-1.65-.81-2.49l.91-.89c.34-.34,.5-.82,.42-1.29l-.22-1.26c-.2-1.19,1.05-2.11,2.12-1.54l1.13,.59c.43,.22,.93,.22,1.36,0Z"/>
    <path class="cls-34" d="M907.29,242.75l1.13-.59c1.07-.56,2.33,.35,2.12,1.54l-.22,1.26c-.08,.47,.08,.96,.42,1.29l.91,.89c.87,.85,.39,2.32-.81,2.49l-1.26,.18c-.48,.07-.89,.37-1.1,.8l-.56,1.14c-.54,1.09-2.09,1.09-2.62,0l-.56-1.14c-.21-.43-.62-.73-1.1-.8l-1.26-.18c-1.2-.17-1.68-1.65-.81-2.49l.91-.89c.34-.34,.5-.82,.42-1.29l-.22-1.26c-.2-1.19,1.05-2.11,2.12-1.54l1.13,.59c.43,.22,.93,.22,1.36,0Z"/>
    <path class="cls-17" d="M957.54,170.11h7.27s-1.5,8.77,5.51,9.02v96.46s-6.01-.5-5.01,8.02h-7.02s1.75-7.27-5.01-8.02v-96.96s5.51,.75,4.26-8.52Z"/>
    <line class="cls-17" x1="959.04" y1="183.64" x2="959.04" y2="269.58"/>
    <line class="cls-17" x1="964.3" y1="183.64" x2="964.3" y2="269.58"/>
    <polygon class="cls-17" points="987.17 189.4 982.93 203.25 991.7 213.15 996.22 200.15 987.17 189.4"/>
    <polygon class="cls-17" points="1000.18 248.2 995.94 262.05 1004.7 271.95 1009.22 258.94 1000.18 248.2"/>
    <g>
      <line class="cls-12" x1="784.7" y1="191.29" x2="808.31" y2="232.37"/>
      <line class="cls-12" x1="848.19" y1="197.21" x2="837.46" y2="234.27"/>
      <line class="cls-12" x1="821.74" y1="173.29" x2="822.85" y2="233.49"/>
      <g>
        <polygon class="cls-29" points="847.83 195.4 847.47 175.88 868.8 175.52 847.83 195.4"/>
        <polygon class="cls-39" points="848.55 196.13 868.07 195.76 868.44 217.09 848.55 196.13"/>
        <polygon class="cls-29" points="848.19 197.21 848.55 216.73 827.23 217.09 848.19 197.21"/>
        <polygon class="cls-39" points="847.29 196.85 827.77 197.21 827.41 175.88 847.29 196.85"/>
        <ellipse class="cls-57" cx="847.81" cy="196.86" rx="3.34" ry="3.61"/>
      </g>
      <g>
        <polygon class="cls-35" points="820.33 160.95 815.33 142.08 835.95 136.64 820.33 160.95"/>
        <polygon class="cls-66" points="821.2 161.48 840.07 156.48 845.51 177.1 821.2 161.48"/>
        <polygon class="cls-35" points="821.11 162.62 826.11 181.49 805.49 186.92 821.11 162.62"/>
        <polygon class="cls-66" points="820.15 162.48 801.28 167.49 795.84 146.86 820.15 162.48"/>
        <ellipse class="cls-57" cx="820.66" cy="162.37" rx="3.34" ry="3.61" transform="translate(-15.05 200.29) rotate(-13.79)"/>
      </g>
      <g>
        <polygon class="cls-44" points="782.72 188.35 768.84 174.63 783.86 159.48 782.72 188.35"/>
        <polygon class="cls-30" points="783.74 188.37 797.47 174.48 812.61 189.5 783.74 188.37"/>
        <polygon class="cls-63" points="784.24 189.39 798.13 203.12 783.11 218.27 784.24 189.39"/>
        <polygon class="cls-30" points="783.34 189.77 769.62 203.65 754.47 188.63 783.34 189.77"/>
        <ellipse class="cls-57" cx="783.72" cy="189.4" rx="3.34" ry="3.61" transform="translate(90.31 600.84) rotate(-44.27)"/>
      </g>
      <rect class="cls-25" x="798.85" y="230.29" width="48.98" height="58.74"/>
    </g>
  </g>
  <g>
    <path class="cls-55" d="M1061.48,448.66s-3.94,21.1,2.01,36.2c0,0-16.2,37.93-47.32,35.65,0,0-21.97,.92-16.02-33.41,0,0,8.7-1.37,9.15-10.53l52.17-27.92Z"/>
    <path class="cls-55" d="M1073.52,436.13s10.69-11.39,17.41-5.38c6.73,6.02-2.79,20.91-2.79,20.91,0,0-11.67,11.66-20.28,3.4,0,0-16.44,24.42-53.68,20.98,0,0-15.8-.46-25.27-18.15-9.13-17.06,1-41.53,1-41.53,0,0-1.11-4.68,2.04-20.39,3.15-15.7,11.32-33.2,32.86-35.89,21.54-2.68,34.64-2.86,50.97,15.82,16.33,18.67-2.27,60.22-2.27,60.22Z"/>
    <path class="cls-49" d="M1020.81,448.77s-5.04-2.59-11.98-2.54c0,0-5.21-1.49-10.77-1.38,0,0-2.21,7.09,6.32,11,8.54,3.91,15.49-1.47,16.44-7.09Z"/>
    <path class="cls-36" d="M1019.88,448.98s-1.61,8.47-12.6,6.27c-9.98-2-8.55-9.54-8.55-9.54,0,0,11.14,2.76,21.15,3.27Z"/>
    <path class="cls-65" d="M1034.32,406.49s9.15-.56,15.45,5.68c0,0,4.4-.78-.6-4.36-5-3.58-8.75-5.99-14.6-4.4,0,0-2.69,1.49-.25,3.08Z"/>
    <path class="cls-65" d="M1005,400.99s-4.89-4.11-13.12-.79c0,0-2.56-2.15,.67-3.37,4.79-1.81,7.87-1.56,13.4,1.21,0,0,1.91,2.41-.96,2.94Z"/>
    <path class="cls-30" d="M1018.34,448.83s-3.59,3.44-12.19,1.28c0,0-5.41-.8-7.09-4.11,0,0,11.15,2.49,19.28,2.83Z"/>
    <path class="cls-67" d="M1010.12,475.35s8.17,2.85,22.11,.21c0,0,4.97-.12,15.6-4.54,0,0-8.09,5.19-22.45,7.64,0,0-6.07,1.2-16.58-.93,0,0,.82-.72,1.32-2.38Z"/>
    <path class="cls-4" d="M1087.03,441.72s-2.44-6.02-7.46-1.39c-5.02,4.63-5.6,6.4-5.6,6.4,0,0,7.36-7.48,8.21-.12"/>
    <path class="cls-4" d="M1006.52,424.2s-8.89,8.8,2.81,12.4"/>
    <g>
      <path class="cls-30" d="M1042.32,422.02s.09-.36-.1-.72c-.64-1.19-2.22-3.51-5.39-4.27-3.55-.85-6.3,2.02-7.26,3.05-.16,.18-.2,.36-.2,.36,0,0-.06,.19,.03,.36,.41,.79,1.86,3.08,5.21,3.94,1.99,.51,5.06,.11,7.45-2.19,.17-.16,.23-.4,.26-.53Z"/>
      <circle class="cls-67" cx="1034.84" cy="420.89" r="3.77"/>
      <circle class="cls-30" cx="1036.92" cy="423.59" r="1.04"/>
      <path class="cls-4" d="M1029.35,420.03s6.35-7.44,13.01,1.27"/>
    </g>
    <g>
      <path class="cls-30" d="M1004.59,415.15s.13-.31,0-.67c-.42-1.18-1.54-3.53-4.34-4.68-3.14-1.28-6.07,.96-7.08,1.77-.18,.14-.23,.3-.23,.3,0,0-.08,.17-.03,.34,.26,.79,1.27,3.09,4.22,4.35,1.76,.75,4.63,.81,7.14-.96,.18-.12,.27-.33,.31-.45Z"/>
      <circle class="cls-67" cx="997.89" cy="413.06" r="3.49"/>
      <circle class="cls-30" cx="999.76" cy="415.05" r=".98"/>
      <path class="cls-4" d="M993.07,411.66s6.81-6.47,11.56,2.99"/>
    </g>
    <path class="cls-62" d="M971.77,619.62l-92.26-34.95s-28.66-10.48-32.15,20.97,20.27,46.13,20.27,46.13l22.24,18.34,7.53,28.61s49.91,20.38,62.49,1.51c0,0,104.18,31.42,132.14-12.61,0,0,19.67-29.82,4.52-64.27,0,0-73.75,46.6-103.81,3.26l-20.97-6.99Z"/>
    <path class="cls-2" d="M897.39,698.72s-22.09-62.69,3.74-72.38,43.05-.54,43.05-.54l66.81,22.75"/>
    <path class="cls-2" d="M937.67,677.64s15.1,21.92,22.21,22.59"/>
    <path class="cls-2" d="M884.45,597.82s26.37,14.53,31.21,24.22"/>
    <path class="cls-55" d="M1120.72,548.15l7.5,11.94,20.07-21.65-.74-16.65s2.43-10.76,7.88-16.09l10.99-18.37s3.55-.12,3.83,2.35l-1.93,7.53,5.18-8.57s3.54,.65,2.73,3.73l-9.16,20.85,8.95-15.16s5.27-2.72,3.97,3.59l-8.52,18.09s2.29,2.34,3.84,.81l5.94-7.79s4.17-.57,3.05,3.11l-7.21,11.01-6.98,18.1s-3.76,5.81-7.15,5.62c0,0-7.14,34.94-33.09,47.68-19.82,9.74-40.33-29.33-40.33-29.33,0,0,20.59-9.18,31.2-20.83Z"/>
    <path class="cls-20" d="M1155.42,505.7l9.47-6.37s4.44,2.67,1.79,5.57c-2.65,2.9-7.98,11.01-7.98,11.01,0,0,7.75,9.79,3.98,16.38"/>
    <path class="cls-20" d="M1165.33,515.82s9.06,2.72,11.74,11.07"/>
    <path class="cls-55" d="M892.31,500.44l-.32-16.71s-3.12-10.61-8.91-15.6l-12.16-17.68s-3.55,.11-3.68,2.6l2.41,7.41-5.73-8.25s-3.5,.88-2.5,3.9l10.5,20.29-9.92-14.6s-5.45-2.38-3.74,3.84l9.68,17.56s-2.14,2.48-3.79,1.06l-6.44-7.42s-4.21-.31-2.85,3.31l7.91,10.56,8.14,17.67s4.13,5.58,7.51,5.17c0,0,20.68,53.92,39.03,57.87,8.5,1.83,48.71-21.4,48.71-21.4l-15.2-42-28.5,25.61-30.15-33.21Z"/>
    <path class="cls-20" d="M883.08,468.13l-9.88-5.77s-4.27,2.95-1.43,5.68c2.84,2.73,8.68,10.51,8.68,10.51,0,0-7.13,10.29-2.94,16.64"/>
    <path class="cls-20" d="M873.81,478.89s-8.89,3.3-11.05,11.82"/>
    <path class="cls-45" d="M962.4,559.25l8.88-2.73c.53,29.74,3.85,65.97,3.85,65.97,62.12,52.71,121.41,.85,121.41,.85,.65-9.15-.3-4.26-1.79-8.08-10.8-27.63-18.65-55.33-18.65-55.33,1.46,.37,9.1,9.75,10.58,9.9,0,0,22.12-5.32,35.17-22.88,0,0-5.46-14-26.29-37.9-16.67-19.13-33.53-28.19-33.53-28.19-11.15,28.14-48.46,23.28-48.46,23.28-18.59-4.25-7.43-19.65-7.43-19.65-30.07,.99-37.59,7.48-37.59,7.48l-24.04,20.68"/>
    <path class="cls-41" d="M1060.8,479.15s-15.61,27.99-47.16,24.96c0,0-18.38-4.67-7.43-19.65,0,0-3.89,.86-5.15,1.71,0,0-10.83,18.52,11.94,22.52,0,0,28.13,2.43,40.15-12.76,0,0,8.44-8.55,10.12-13.83l-2.47-2.96Z"/>
    <line class="cls-14" x1="971.28" y1="556.52" x2="972.99" y2="519.53"/>
    <path class="cls-14" d="M1076.1,559.94s-25.27-29.48-9.33-49.96"/>
    <path class="cls-54" d="M957.47,514.61l2.97-2.03c.87-.59,2.04,.07,1.98,1.11l-.19,3.6c-.02,.42,.16,.82,.49,1.07l2.85,2.2c.83,.64,.57,1.96-.45,2.23l-3.48,.93c-.4,.11-.73,.41-.87,.8l-1.21,3.39c-.35,.99-1.69,1.14-2.26,.26l-1.96-3.03c-.23-.35-.61-.57-1.03-.58l-3.6-.1c-1.05-.03-1.61-1.25-.95-2.07l2.27-2.8c.26-.32,.35-.76,.23-1.16l-1.02-3.46c-.3-1.01,.69-1.92,1.67-1.54l3.36,1.3c.39,.15,.83,.1,1.17-.14Z"/>
    <path class="cls-54" d="M979.29,494.21l2.97-2.03c.87-.59,2.04,.07,1.98,1.11l-.19,3.6c-.02,.42,.16,.82,.49,1.07l2.85,2.2c.83,.64,.57,1.96-.45,2.23l-3.48,.93c-.4,.11-.73,.41-.87,.8l-1.21,3.39c-.35,.99-1.69,1.14-2.26,.26l-1.96-3.03c-.23-.35-.61-.57-1.03-.58l-3.6-.1c-1.05-.03-1.61-1.25-.95-2.07l2.27-2.8c.26-.32,.35-.76,.23-1.16l-1.02-3.46c-.3-1.01,.69-1.92,1.67-1.54l3.36,1.3c.39,.15,.83,.1,1.17-.14Z"/>
    <path class="cls-54" d="M1000.67,518.52l2.97-2.03c.87-.59,2.04,.07,1.98,1.11l-.19,3.6c-.02,.42,.16,.82,.49,1.07l2.85,2.2c.83,.64,.57,1.96-.45,2.23l-3.48,.93c-.4,.11-.73,.41-.87,.8l-1.21,3.39c-.35,.99-1.69,1.14-2.26,.26l-1.96-3.03c-.23-.35-.61-.57-1.03-.58l-3.6-.1c-1.05-.03-1.61-1.25-.95-2.07l2.27-2.8c.26-.32,.35-.76,.23-1.16l-1.02-3.46c-.3-1.01,.69-1.92,1.67-1.54l3.36,1.3c.39,.15,.83,.1,1.17-.14Z"/>
    <path class="cls-54" d="M983.76,540.03l2.97-2.03c.87-.59,2.04,.07,1.98,1.11l-.19,3.6c-.02,.42,.16,.82,.49,1.07l2.85,2.2c.83,.64,.57,1.96-.45,2.23l-3.48,.93c-.4,.11-.73,.41-.87,.8l-1.21,3.39c-.35,.99-1.69,1.14-2.26,.26l-1.96-3.03c-.23-.35-.61-.57-1.03-.58l-3.6-.1c-1.05-.03-1.61-1.25-.95-2.07l2.27-2.8c.26-.32,.35-.76,.23-1.16l-1.02-3.46c-.3-1.01,.69-1.92,1.67-1.54l3.36,1.3c.39,.15,.83,.1,1.17-.14Z"/>
    <path class="cls-54" d="M1014.49,559.58l2.97-2.03c.87-.59,2.04,.07,1.98,1.11l-.19,3.6c-.02,.42,.16,.82,.49,1.07l2.85,2.2c.83,.64,.57,1.96-.45,2.23l-3.48,.93c-.4,.11-.73,.41-.87,.8l-1.21,3.39c-.35,.99-1.69,1.14-2.26,.26l-1.96-3.03c-.23-.35-.61-.57-1.03-.58l-3.6-.1c-1.05-.03-1.61-1.25-.95-2.07l2.27-2.8c.26-.32,.35-.76,.23-1.16l-1.02-3.46c-.3-1.01,.69-1.92,1.67-1.54l3.36,1.3c.39,.15,.83,.1,1.17-.14Z"/>
    <path class="cls-54" d="M989.45,579.34l2.97-2.03c.87-.59,2.04,.07,1.98,1.11l-.19,3.6c-.02,.42,.16,.82,.49,1.07l2.85,2.2c.83,.64,.57,1.96-.45,2.23l-3.48,.93c-.4,.11-.73,.41-.87,.8l-1.21,3.39c-.35,.99-1.69,1.14-2.26,.26l-1.96-3.03c-.23-.35-.61-.57-1.03-.58l-3.6-.1c-1.05-.03-1.61-1.25-.95-2.07l2.27-2.8c.26-.32,.35-.76,.23-1.16l-1.02-3.46c-.3-1.01,.69-1.92,1.67-1.54l3.36,1.3c.39,.15,.83,.1,1.17-.14Z"/>
    <path class="cls-54" d="M1020.18,601.69l2.97-2.03c.87-.59,2.04,.07,1.98,1.11l-.19,3.6c-.02,.42,.16,.82,.49,1.07l2.85,2.2c.83,.64,.57,1.96-.45,2.23l-3.48,.93c-.4,.11-.73,.41-.87,.8l-1.21,3.39c-.35,.99-1.69,1.14-2.26,.26l-1.96-3.03c-.23-.35-.61-.57-1.03-.58l-3.6-.1c-1.05-.03-1.61-1.25-.95-2.07l2.27-2.8c.26-.32,.35-.76,.23-1.16l-1.02-3.46c-.3-1.01,.69-1.92,1.67-1.54l3.36,1.3c.39,.15,.83,.1,1.17-.14Z"/>
    <path class="cls-54" d="M990,611.75l2.97-2.03c.87-.59,2.04,.07,1.98,1.11l-.19,3.6c-.02,.42,.16,.82,.49,1.07l2.85,2.2c.83,.64,.57,1.96-.45,2.23l-3.48,.93c-.4,.11-.73,.41-.87,.8l-1.21,3.39c-.35,.99-1.69,1.14-2.26,.26l-1.96-3.03c-.23-.35-.61-.57-1.03-.58l-3.6-.1c-1.05-.03-1.61-1.25-.95-2.07l2.27-2.8c.26-.32,.35-.76,.23-1.16l-1.02-3.46c-.3-1.01,.69-1.92,1.67-1.54l3.36,1.3c.39,.15,.83,.1,1.17-.14Z"/>
    <path class="cls-54" d="M1037.95,517.68l2.97-2.03c.87-.59,2.04,.07,1.98,1.11l-.19,3.6c-.02,.42,.16,.82,.49,1.07l2.85,2.2c.83,.64,.57,1.96-.45,2.23l-3.48,.93c-.4,.11-.73,.41-.87,.8l-1.21,3.39c-.35,.99-1.69,1.14-2.26,.26l-1.96-3.03c-.23-.35-.61-.57-1.03-.58l-3.6-.1c-1.05-.03-1.61-1.25-.95-2.07l2.27-2.8c.26-.32,.35-.76,.23-1.16l-1.02-3.46c-.3-1.01,.69-1.92,1.67-1.54l3.36,1.3c.39,.15,.83,.1,1.17-.14Z"/>
    <path class="cls-54" d="M1053.04,549.52l2.97-2.03c.87-.59,2.04,.07,1.98,1.11l-.19,3.6c-.02,.42,.16,.82,.49,1.07l2.85,2.2c.83,.64,.57,1.96-.45,2.23l-3.48,.93c-.4,.11-.73,.41-.87,.8l-1.21,3.39c-.35,.99-1.69,1.14-2.26,.26l-1.96-3.03c-.23-.35-.61-.57-1.03-.58l-3.6-.1c-1.05-.03-1.61-1.25-.95-2.07l2.27-2.8c.26-.32,.35-.76,.23-1.16l-1.02-3.46c-.3-1.01,.69-1.92,1.67-1.54l3.36,1.3c.39,.15,.83,.1,1.17-.14Z"/>
    <path class="cls-54" d="M1044.66,580.81l2.97-2.03c.87-.59,2.04,.07,1.98,1.11l-.19,3.6c-.02,.42,.16,.82,.49,1.07l2.85,2.2c.83,.64,.57,1.96-.45,2.23l-3.48,.93c-.4,.11-.73,.41-.87,.8l-1.21,3.39c-.35,.99-1.69,1.14-2.26,.26l-1.96-3.03c-.23-.35-.61-.57-1.03-.58l-3.6-.1c-1.05-.03-1.61-1.25-.95-2.07l2.27-2.8c.26-.32,.35-.76,.23-1.16l-1.02-3.46c-.3-1.01,.69-1.92,1.67-1.54l3.36,1.3c.39,.15,.83,.1,1.17-.14Z"/>
    <path class="cls-54" d="M1071.79,593.42l2.97-2.03c.87-.59,2.04,.07,1.98,1.11l-.19,3.6c-.02,.42,.16,.82,.49,1.07l2.85,2.2c.83,.64,.57,1.96-.45,2.23l-3.48,.93c-.4,.11-.73,.41-.87,.8l-1.21,3.39c-.35,.99-1.69,1.14-2.26,.26l-1.96-3.03c-.23-.35-.61-.57-1.03-.58l-3.6-.1c-1.05-.03-1.61-1.25-.95-2.07l2.27-2.8c.26-.32,.35-.76,.23-1.16l-1.02-3.46c-.3-1.01,.69-1.92,1.67-1.54l3.36,1.3c.39,.15,.83,.1,1.17-.14Z"/>
    <path class="cls-54" d="M1052.79,618.57l2.97-2.03c.87-.59,2.04,.07,1.98,1.11l-.19,3.6c-.02,.42,.16,.82,.49,1.07l2.85,2.2c.83,.64,.57,1.96-.45,2.23l-3.48,.93c-.4,.11-.73,.41-.87,.8l-1.21,3.39c-.35,.99-1.69,1.14-2.26,.26l-1.96-3.03c-.23-.35-.61-.57-1.03-.58l-3.6-.1c-1.05-.03-1.61-1.25-.95-2.07l2.27-2.8c.26-.32,.35-.76,.23-1.16l-1.02-3.46c-.3-1.01,.69-1.92,1.67-1.54l3.36,1.3c.39,.15,.83,.1,1.17-.14Z"/>
    <path class="cls-54" d="M1083.52,508.5l2.97-2.03c.87-.59,2.04,.07,1.98,1.11l-.19,3.6c-.02,.42,.16,.82,.49,1.07l2.85,2.2c.83,.64,.57,1.96-.45,2.23l-3.48,.93c-.4,.11-.73,.41-.87,.8l-1.21,3.39c-.35,.99-1.69,1.14-2.26,.26l-1.96-3.03c-.23-.35-.61-.57-1.03-.58l-3.6-.1c-1.05-.03-1.61-1.25-.95-2.07l2.27-2.8c.26-.32,.35-.76,.23-1.16l-1.02-3.46c-.3-1.01,.69-1.92,1.67-1.54l3.36,1.3c.39,.15,.83,.1,1.17-.14Z"/>
    <path class="cls-54" d="M1087.39,540.15l2.97-2.03c.87-.59,2.04,.07,1.98,1.11l-.19,3.6c-.02,.42,.16,.82,.49,1.07l2.85,2.2c.83,.64,.57,1.96-.45,2.23l-3.48,.93c-.4,.11-.73,.41-.87,.8l-1.21,3.39c-.35,.99-1.69,1.14-2.26,.26l-1.96-3.03c-.23-.35-.61-.57-1.03-.58l-3.6-.1c-1.05-.03-1.61-1.25-.95-2.07l2.27-2.8c.26-.32,.35-.76,.23-1.16l-1.02-3.46c-.3-1.01,.69-1.92,1.67-1.54l3.36,1.3c.39,.15,.83,.1,1.17-.14Z"/>
    <path class="cls-54" d="M1119.28,583.37l2.97-2.03c.87-.59,2.04,.07,1.98,1.11l-.19,3.6c-.02,.42,.16,.82,.49,1.07l2.85,2.2c.83,.64,.57,1.96-.45,2.23l-3.48,.93c-.4,.11-.73,.41-.87,.8l-1.21,3.39c-.35,.99-1.69,1.14-2.26,.26l-1.96-3.03c-.23-.35-.61-.57-1.03-.58l-3.6-.1c-1.05-.03-1.61-1.25-.95-2.07l2.27-2.8c.26-.32,.35-.76,.23-1.16l-1.02-3.46c-.3-1.01,.69-1.92,1.67-1.54l3.36,1.3c.39,.15,.83,.1,1.17-.14Z"/>
    <g>
      <path class="cls-56" d="M1092.18,634.17s-17.39-5.48-8.05-38.98c0,0,2.9-7.09,5.8-9.34,0,0-11.92-1.93-4.83-12.56s13.53,4.19,13.53,4.19c0,0,19.01-12.88,37.69-.32,0,0,5.8-11.27,12.24-3.22,6.44,8.05-3.54,11.92-3.54,11.92,0,0,20.62,26.74,.97,47.03,0,0,35.76,16.43,27.38,33.18,0,0-4.83,7.09-17.39-3.54,0,0,1.93,11.6,0,18.36,0,0,23.52-5.48,16.75,14.5-6.76,19.97-25.45,18.68-25.45,18.68,0,0-8.38-2.25-8.38-9.66,0,0-15.14,14.82-39.62,.97,0,0-1.93,17.07-20.62,6.44-18.68-10.63-12.88-26.74-12.88-26.74,0,0,4.83-5.48,13.85-4.19,0,0-1.29-11.6,2.25-17.72,0,0-9.66,8.38-18.36,3.87s7.41-20.94,7.41-20.94c0,0,12.24-11.27,21.26-11.92Z"/>
      <path class="cls-52" d="M1166.27,679.59s-25.77-1.61-27.38,24.8c0,0,2.58,15.14,18.04,8.05,0,0-20.94,4.19-14.17-15.46,0,0,8.7-15.14,23.52-17.39Z"/>
      <path class="cls-52" d="M1082.84,713.41s13.85,5.8,16.43-8.05-17.39-24.48-17.39-24.48c0,0-12.24-2.9-13.53,1.93,0,0,13.53-4.51,22.23,9.02,8.7,13.53,2.25,19.01,2.25,19.01,0,0-5.15,2.58-9.99,2.58Z"/>
      <ellipse class="cls-52" cx="1168.13" cy="661.63" rx="2.77" ry="4.16" transform="translate(-18.88 1288.75) rotate(-57.38)"/>
      <ellipse class="cls-52" cx="1069.5" cy="661.04" rx="4.16" ry="2.77" transform="translate(-187.64 680.9) rotate(-32.62)"/>
      <ellipse class="cls-38" cx="1120.46" cy="640.64" rx="4.13" ry="3.67"/>
      <polygon class="cls-38" points="1102.94 633.85 1103.49 648.17 1120.46 640.64 1136.89 647.99 1136.89 634.77 1120.56 639.18 1102.94 633.85"/>
      <ellipse class="cls-24" cx="1117.44" cy="620.73" rx="19.09" ry="12.39"/>
      <ellipse class="cls-26" cx="1141.85" cy="615.13" rx="4.41" ry="4.22"/>
      <ellipse class="cls-26" cx="1093.7" cy="615.13" rx="4.41" ry="4.22"/>
      <ellipse class="cls-57" cx="1103.03" cy="603.57" rx="2.66" ry="3.3"/>
      <ellipse class="cls-57" cx="1131.07" cy="603.57" rx="2.66" ry="3.3"/>
      <path class="cls-24" d="M1139.02,578.87s2.91-6.76,7-3.03-2.22,7.46-2.22,7.46c0,0-3.38-.93-4.78-4.43Z"/>
      <path class="cls-24" d="M1096.35,578.87s-2.91-6.76-7-3.03,2.22,7.46,2.22,7.46c0,0,3.38-.93,4.78-4.43Z"/>
      <path class="cls-57" d="M1118.78,617.1l2.59-3.29c.84-1.06,.08-2.63-1.27-2.63h-5.19c-1.35,0-2.11,1.56-1.27,2.63l2.59,3.29c.65,.82,1.9,.82,2.55,0Z"/>
      <path class="cls-14" d="M1110.03,623.9s6.88,2.08,7.43-6.34"/>
      <path class="cls-14" d="M1124.89,623.9s-6.88,2.08-7.43-6.34"/>
    </g>
    <path class="cls-65" d="M1095.67,390.99s8.01,19.79-4,40.74c0,0-7.64-7.92-18.92,6.03,0,0-12.49-16.98-5.24-58.04,0,0-38.23,1.02-55.37-13.31,0,0-12.33,5.76-17.14,25.26l-3.95,11.26c2.82-35.71,21.4-47.83,21.4-47.83,32.78-21.95,62.89-1.04,68.52,6.32,0,0,16.3-13.93,31.57,4.82,0,0,8.69,8.49,4.22,16.89,0,0,19.79-3.8,17.57,18.31,0,0,13.22,8.39,1.02,22.94,0,0,6.33,12.77-7.79,18.37,0,0-16.03,7.03-18.82-7.53,0,0-13.66,3.79-9.79-8.28,0,0-13.35-1.89-11.11-13.62,2.24-11.72,7.83-22.33,7.83-22.33Z"/>
  </g>
  <path class="cls-28" d="M668.41,650.66s92.07,9.25,147.84-20.79c0,0,11.16-6.01,33.47-4.29,0,0,37.59,4.13,40.15,44.53,0,0,10.64,29.31,70.02,30.12,63.27,.86-35.8,208.99-35.8,208.99,0,0-47.77,61.31-161.04,26.99,0,0-66.07-23.17-79.8-13.73,0,0-39.83-138.78-14.84-271.82Z"/>
  <path class="cls-3" d="M608.85,912.85s55.33,4.9,61.44,32.04"/>
  <g>
    <path class="cls-43" d="M602.49,881.06s-13.78,21.43-6.89,35.97c0,0,6.89,22.19,58.17,15.31,0,0,67.73,26.67,83.8-11.6,0,0-1.14-22.84-57.01-29.73,0,0,6.89,18.37-17.6,17.6,0,0-47.45-.77-60.46-27.55Z"/>
    <path class="cls-48" d="M602.49,881.06s2.2-13.12,6.2-18.84c0,0-7.43-54.87-1.71-81.17,0,0,35.44,8,60.02,6.86,0,0-8.57,53.73-12,80.59,0,0-1.71,14.86,8.57,16.58l16.99,5.92s8.97,30.66-35.08,16.81c-44.05-13.84-42.98-26.76-42.98-26.76Z"/>
    <path class="cls-43" d="M517.5,894.19s-14.85,23.09-7.42,38.77c0,0,7.42,23.92,62.69,16.5,0,0,72.99,28.74,90.31-12.5,0,0-1.23-24.62-61.44-32.04,0,0,7.42,19.8-18.97,18.97,0,0-51.14-.82-65.16-29.69Z"/>
    <path class="cls-48" d="M517.5,894.19s2.37-14.14,6.68-20.3c0,0-8.01-59.14-1.85-87.47,0,0,38.19,8.62,64.68,7.39,0,0-9.24,57.9-12.94,86.86,0,0-1.85,16.02,9.24,17.86l18.31,6.38s9.66,33.04-37.81,18.12c-47.47-14.92-46.32-28.84-46.32-28.84Z"/>
    <path class="cls-58" d="M555.22,584.53s129.43,18.84,127.79,110.59-6.55,94.21-6.55,94.21c0,0-105.16,34.37-170.64,1.54,0,0-8.76-40.04,7.62-56.43l-137.62,4.1s-56.33,6.1-72.72-21.75c-16.38-27.85-24.1-74-1.28-112.85,0,0,55.73,22.13,167.96-41.76l85.44,22.36Z"/>
    <path class="cls-48" d="M459.23,220.74s-13.2,35.75-30.43,50.21c0,0,34.96,120.85,92.9,41.22,0,0-2.77-14.15-.42-22.67,0,0,17.53-8.95,16.53-19.31,0,0-57.6-15.02-78.58-49.45Z"/>
    <path class="cls-48" d="M469.33,184.11s3.88-38.75,29.06-55.14c15.37-10.01,42.92-4.24,69.98,2.07,0,0,56.12,18.47,20.73,85.15,0,0-5.19,6.16-5.13,12.55,0,0,.61,12.38-13.08,33.14-18.24,27.66-33.81,24.15-33.81,24.15,0,0-4.17,8.17-21.58,2.88,0,0-16.23-1.79-28.69-16.37,0,0-34.37-32.36-25.29-54.1,0,0-19.2,4.53-18.49-24.36,0,0,5.25-48.97,26.3-9.97Z"/>
    <path class="cls-42" d="M506.95,241.59s18.44-.25,24.08,7.8c0,0,6.1-3.24,18.19,6.23,0,0-4.9,20.31-25.32,13.69-23.32-7.56-16.95-27.72-16.95-27.72Z"/>
    <path class="cls-36" d="M509.46,244.76s-1.91,13.69,14.19,19.08c16.1,5.39,22.03-7.17,22.03-7.17,0,0-25.53-11.14-36.22-11.91Z"/>
    <path class="cls-53" d="M542.8,188.05s-22.03-15.95-36.05-11.69c0,0,12.75-10.05,38.64,6.02,0,0,3.69,5.41-2.58,5.67Z"/>
    <path class="cls-14" d="M555.49,225.61s5.84,20.42-14.46,16.03"/>
    <path class="cls-30" d="M513.63,245.4s2.52,5.15,14.85,9.43c11.35,3.94,15.89,1.21,15.89,1.21,0,0-16.13-7.6-30.73-10.64Z"/>
    <path class="cls-14" d="M448.22,184.25s10.99-13.76,14.85,15.36c0,0-6.61-14.44-11.52-5.49"/>
    <path class="cls-1" d="M504,186.15l1.74,22.05s9.75,9.94,26.7,10.86l14.26-16.27s-18.11-16.95-42.7-16.63Z"/>
    <path class="cls-22" d="M517.5,294.16c20.54,8.73,45.15,20.3,45.15,20.3,26.07,16.47,39.04,72.09,39.04,72.09l11.49,108.94s2.68,18.06-53.51,26.09c0,0-2.46,47.47-5.35,68.23-1.07,7.67-.02,8.05-11.28,11.18-12.19,3.39,9.3-.14-49.37,12.2,0,0-16.63-49.52-23.89-47.78,0,0,3.17,54.14-7.75,55.53-96.21,12.27-160.21-17-160.21-17,16.14-74.12,2.01-157.93,2.01-157.93-1.91-58.65,11.05-90.71,11.05-90.71,10.23-25.24,25.93-42.67,25.93-42.67,28.53-30.4,88.01-41.68,88.01-41.68,0,0,64.64,119.23,88.69,23.22"/>
    <path class="cls-67" d="M521.56,289.1s-3.36,.37-6.33-.96c0,0-25.14-3.75-42.32-32.82,0,0,4.27,10.2,16.3,22.42,0,0,9.41,9.99,31.49,14.54,0,0,.39-1.94,.86-3.18Z"/>
    <path class="cls-5" d="M516.78,133.81s34.47,27.71,62.12,15.64c0,0,4.54,15.86,20.42,38.44,0,0,.39,11.4-15.16,33.19,0,0,1.65,21.37-17.01,43.35,0,0-15.7,19.75-30.07,21.6,0,0-7.46,4.19-15.8,3.47,0,0-3.25,8.9,3.14,10.1,0,0,.94-5,4.87-5.89,0,0,59.03-3.65,75.89-90.12,0,0,39.48-30.87,11.72-65.24-12.55-15.53-18.08-52.14-62.72-44.32,0,0-45.98-39.81-75.86,7.91,0,0-62.43,.18-47.15,82.05,0,0-16.45,21.46,1.21,46.37,2.04,2.87,4.71,14.17-3.68,27.36-2.26,3.56,10.49-1.13,15.95-7.72,0,0,9.88-11.84,16.88-31.55,0,0-19.96,.85-17.77-20.61,0,0-.47-24.33,8.52-25.96,0,0,9.98-1.44,16.4,12.03,0,0,36.66,4.82,48.12-50.09Z"/>
    <path class="cls-53" d="M596.51,197.4c-.18-1.49-12.97-5.44-25.46-6.34,0,0-6.25,2.25-1.25,6.19,0,0,23.44-1.43,24.85,6.42,0,0,2.3-2.6,1.86-6.28Z"/>
    <path class="cls-1" d="M554.04,204.03l1.74,22.05s8.85,7.87,25.79,8.78l13.11-18.78s-16.05-12.37-40.64-12.05Z"/>
    <path class="cls-1" d="M554.04,204.03s-2.99-5.38-7.34-1.25"/>
    <line class="cls-1" x1="504" y1="186.15" x2="459.51" y2="171.5"/>
    <path class="cls-4" d="M523.31,160.71s17.17,6.63,25.04,10.74c7.87,4.12,33.81,4.13,33.81,4.13"/>
    <g>
      <circle class="cls-21" cx="619.61" cy="762.96" r="6.34"/>
      <path class="cls-21" d="M621.49,786.1c0,3.5-2.84,6.34-6.34,6.34-3.5,0-6.34-2.84-6.34-6.34s2.84-6.34,6.34-6.34c3.5,0,6.34,2.84,6.34,6.34Z"/>
      <circle class="cls-21" cx="625.04" cy="775.79" r="6.34"/>
      <circle class="cls-21" cx="602.55" cy="779.14" r="6.34"/>
      <circle class="cls-21" cx="606.51" cy="766.32" r="6.34"/>
    </g>
    <g>
      <path class="cls-21" d="M555.02,742.63c0,3.5-2.84,6.34-6.34,6.34-3.5,0-6.34-2.84-6.34-6.34,0-3.5,2.84-6.34,6.34-6.34,3.5,0,6.34,2.84,6.34,6.34Z"/>
      <path class="cls-21" d="M550.56,765.77c0,3.5-2.84,6.34-6.34,6.34-3.5,0-6.34-2.84-6.34-6.34,0-3.5,2.84-6.34,6.34-6.34,3.5,0,6.34,2.84,6.34,6.34Z"/>
      <path class="cls-21" d="M560.45,755.46c0,3.5-2.84,6.34-6.34,6.34-3.5,0-6.34-2.84-6.34-6.34,0-3.5,2.84-6.34,6.34-6.34,3.5,0,6.34,2.84,6.34,6.34Z"/>
      <circle class="cls-21" cx="531.62" cy="758.81" r="6.34"/>
      <circle class="cls-21" cx="535.58" cy="745.99" r="6.34"/>
    </g>
    <g>
      <path class="cls-21" d="M488.72,691.22c0,3.5-2.84,6.34-6.34,6.34-3.5,0-6.34-2.84-6.34-6.34,0-3.5,2.84-6.34,6.34-6.34s6.34,2.84,6.34,6.34Z"/>
      <path class="cls-21" d="M484.26,714.36c0,3.5-2.84,6.34-6.34,6.34-3.5,0-6.34-2.84-6.34-6.34,0-3.5,2.84-6.34,6.34-6.34,3.5,0,6.34,2.84,6.34,6.34Z"/>
      <circle class="cls-21" cx="487.81" cy="704.06" r="6.34"/>
      <circle class="cls-21" cx="465.32" cy="707.4" r="6.34"/>
      <circle class="cls-21" cx="469.28" cy="694.58" r="6.34"/>
    </g>
    <g>
      <path class="cls-21" d="M415.59,690.19c0,3.5-2.84,6.34-6.34,6.34-3.5,0-6.34-2.84-6.34-6.34,0-3.5,2.84-6.34,6.34-6.34s6.34,2.84,6.34,6.34Z"/>
      <path class="cls-21" d="M411.13,713.33c0,3.5-2.84,6.34-6.34,6.34-3.5,0-6.34-2.84-6.34-6.34,0-3.5,2.84-6.34,6.34-6.34,3.5,0,6.34,2.84,6.34,6.34Z"/>
      <path class="cls-21" d="M421.02,703.02c0,3.5-2.84,6.34-6.34,6.34-3.5,0-6.34-2.84-6.34-6.34s2.84-6.34,6.34-6.34c3.5,0,6.34,2.84,6.34,6.34Z"/>
      <circle class="cls-21" cx="392.2" cy="706.37" r="6.34"/>
      <circle class="cls-21" cx="396.15" cy="693.54" r="6.34"/>
    </g>
    <g>
      <path class="cls-21" d="M596.99,702.41c0,3.5-2.84,6.34-6.34,6.34-3.5,0-6.34-2.84-6.34-6.34,0-3.5,2.84-6.34,6.34-6.34s6.34,2.84,6.34,6.34Z"/>
      <circle class="cls-21" cx="586.2" cy="725.55" r="6.34"/>
      <circle class="cls-21" cx="596.08" cy="715.24" r="6.34"/>
      <path class="cls-21" d="M579.93,718.59c0,3.5-2.84,6.34-6.34,6.34-3.5,0-6.34-2.84-6.34-6.34s2.84-6.34,6.34-6.34c3.5,0,6.34,2.84,6.34,6.34Z"/>
      <circle class="cls-21" cx="577.55" cy="705.77" r="6.34"/>
    </g>
    <g>
      <path class="cls-21" d="M653.16,712.3c0,3.5-2.84,6.34-6.34,6.34-3.5,0-6.34-2.84-6.34-6.34,0-3.5,2.84-6.34,6.34-6.34,3.5,0,6.34,2.84,6.34,6.34Z"/>
      <path class="cls-21" d="M648.69,735.44c0,3.5-2.84,6.34-6.34,6.34-3.5,0-6.34-2.84-6.34-6.34,0-3.5,2.84-6.34,6.34-6.34,3.5,0,6.34,2.84,6.34,6.34Z"/>
      <path class="cls-21" d="M658.58,725.14c0,3.5-2.84,6.34-6.34,6.34-3.5,0-6.34-2.84-6.34-6.34,0-3.5,2.84-6.34,6.34-6.34,3.5,0,6.34,2.84,6.34,6.34Z"/>
      <circle class="cls-21" cx="629.76" cy="728.49" r="6.34"/>
      <circle class="cls-21" cx="633.71" cy="715.66" r="6.34"/>
    </g>
    <g>
      <circle class="cls-21" cx="505.1" cy="632.02" r="6.34"/>
      <path class="cls-21" d="M506.98,655.16c0,3.5-2.84,6.34-6.34,6.34-3.5,0-6.34-2.84-6.34-6.34s2.84-6.34,6.34-6.34c3.5,0,6.34,2.84,6.34,6.34Z"/>
      <path class="cls-21" d="M516.86,644.86c0,3.5-2.84,6.34-6.34,6.34-3.5,0-6.34-2.84-6.34-6.34s2.84-6.34,6.34-6.34c3.5,0,6.34,2.84,6.34,6.34Z"/>
      <circle class="cls-21" cx="488.04" cy="648.21" r="6.34"/>
      <path class="cls-21" d="M498.33,635.38c0,3.5-2.84,6.34-6.34,6.34-3.5,0-6.34-2.84-6.34-6.34,0-3.5,2.84-6.34,6.34-6.34,3.5,0,6.34,2.84,6.34,6.34Z"/>
    </g>
    <g>
      <circle class="cls-21" cx="582.68" cy="622.57" r="6.34"/>
      <circle class="cls-21" cx="578.22" cy="645.71" r="6.34"/>
      <path class="cls-21" d="M594.44,635.4c0,3.5-2.84,6.34-6.34,6.34-3.5,0-6.34-2.84-6.34-6.34,0-3.5,2.84-6.34,6.34-6.34,3.5,0,6.34,2.84,6.34,6.34Z"/>
      <circle class="cls-21" cx="565.62" cy="638.75" r="6.34"/>
      <path class="cls-21" d="M575.91,625.93c0,3.5-2.84,6.34-6.34,6.34-3.5,0-6.34-2.84-6.34-6.34,0-3.5,2.84-6.34,6.34-6.34,3.5,0,6.34,2.84,6.34,6.34Z"/>
    </g>
    <g>
      <circle class="cls-21" cx="543.94" cy="670.64" r="6.34"/>
      <path class="cls-21" d="M545.81,693.78c0,3.5-2.84,6.34-6.34,6.34-3.5,0-6.34-2.84-6.34-6.34s2.84-6.34,6.34-6.34c3.5,0,6.34,2.84,6.34,6.34Z"/>
      <path class="cls-21" d="M555.7,683.47c0,3.5-2.84,6.34-6.34,6.34-3.5,0-6.34-2.84-6.34-6.34s2.84-6.34,6.34-6.34c3.5,0,6.34,2.84,6.34,6.34Z"/>
      <circle class="cls-21" cx="526.88" cy="686.82" r="6.34"/>
      <path class="cls-21" d="M537.17,674c0,3.5-2.84,6.34-6.34,6.34-3.5,0-6.34-2.84-6.34-6.34,0-3.5,2.84-6.34,6.34-6.34s6.34,2.84,6.34,6.34Z"/>
    </g>
    <g>
      <path class="cls-21" d="M656.94,647.4c0,3.5-2.84,6.34-6.34,6.34-3.5,0-6.34-2.84-6.34-6.34,0-3.5,2.84-6.34,6.34-6.34,3.5,0,6.34,2.84,6.34,6.34Z"/>
      <circle class="cls-21" cx="646.14" cy="670.54" r="6.34"/>
      <circle class="cls-21" cx="656.03" cy="660.23" r="6.34"/>
      <path class="cls-21" d="M639.88,663.58c0,3.5-2.84,6.34-6.34,6.34-3.5,0-6.34-2.84-6.34-6.34,0-3.5,2.84-6.34,6.34-6.34,3.5,0,6.34,2.84,6.34,6.34Z"/>
      <circle class="cls-21" cx="637.5" cy="650.76" r="6.34"/>
    </g>
    <g>
      <path class="cls-21" d="M324.45,632.02c0,3.5-2.84,6.34-6.34,6.34-3.5,0-6.34-2.84-6.34-6.34,0-3.5,2.84-6.34,6.34-6.34,3.5,0,6.34,2.84,6.34,6.34Z"/>
      <circle class="cls-21" cx="313.65" cy="655.16" r="6.34"/>
      <path class="cls-21" d="M329.87,644.86c0,3.5-2.84,6.34-6.34,6.34-3.5,0-6.34-2.84-6.34-6.34,0-3.5,2.84-6.34,6.34-6.34,3.5,0,6.34,2.84,6.34,6.34Z"/>
      <path class="cls-21" d="M307.39,648.21c0,3.5-2.84,6.34-6.34,6.34-3.5,0-6.34-2.84-6.34-6.34,0-3.5,2.84-6.34,6.34-6.34,3.5,0,6.34,2.84,6.34,6.34Z"/>
      <circle class="cls-21" cx="305.01" cy="635.38" r="6.34"/>
    </g>
    <g>
      <circle class="cls-21" cx="440.39" cy="637.76" r="6.34"/>
      <path class="cls-21" d="M442.26,660.9c0,3.5-2.84,6.34-6.34,6.34-3.5,0-6.34-2.84-6.34-6.34,0-3.5,2.84-6.34,6.34-6.34,3.5,0,6.34,2.84,6.34,6.34Z"/>
      <circle class="cls-21" cx="445.81" cy="650.59" r="6.34"/>
      <circle class="cls-21" cx="423.33" cy="653.94" r="6.34"/>
      <path class="cls-21" d="M433.62,641.12c0,3.5-2.84,6.34-6.34,6.34-3.5,0-6.34-2.84-6.34-6.34s2.84-6.34,6.34-6.34c3.5,0,6.34,2.84,6.34,6.34Z"/>
    </g>
    <g>
      <circle class="cls-21" cx="331.36" cy="691.84" r="6.34"/>
      <path class="cls-21" d="M333.23,714.98c0,3.5-2.84,6.34-6.34,6.34-3.5,0-6.34-2.84-6.34-6.34,0-3.5,2.84-6.34,6.34-6.34,3.5,0,6.34,2.84,6.34,6.34Z"/>
      <circle class="cls-21" cx="336.79" cy="704.67" r="6.34"/>
      <path class="cls-21" d="M320.64,708.02c0,3.5-2.84,6.34-6.34,6.34-3.5,0-6.34-2.84-6.34-6.34,0-3.5,2.84-6.34,6.34-6.34,3.5,0,6.34,2.84,6.34,6.34Z"/>
      <path class="cls-21" d="M324.59,695.2c0,3.5-2.84,6.34-6.34,6.34-3.5,0-6.34-2.84-6.34-6.34,0-3.5,2.84-6.34,6.34-6.34,3.5,0,6.34,2.84,6.34,6.34Z"/>
    </g>
    <g>
      <path class="cls-21" d="M379.55,640.43c0,3.5-2.84,6.34-6.34,6.34-3.5,0-6.34-2.84-6.34-6.34,0-3.5,2.84-6.34,6.34-6.34,3.5,0,6.34,2.84,6.34,6.34Z"/>
      <path class="cls-21" d="M375.09,663.57c0,3.5-2.84,6.34-6.34,6.34-3.5,0-6.34-2.84-6.34-6.34s2.84-6.34,6.34-6.34,6.34,2.84,6.34,6.34Z"/>
      <path class="cls-21" d="M384.98,653.27c0,3.5-2.84,6.34-6.34,6.34-3.5,0-6.34-2.84-6.34-6.34,0-3.5,2.84-6.34,6.34-6.34,3.5,0,6.34,2.84,6.34,6.34Z"/>
      <circle class="cls-21" cx="356.15" cy="656.62" r="6.34"/>
      <path class="cls-21" d="M366.44,643.79c0,3.5-2.84,6.34-6.34,6.34-3.5,0-6.34-2.84-6.34-6.34,0-3.5,2.84-6.34,6.34-6.34,3.5,0,6.34,2.84,6.34,6.34Z"/>
    </g>
    <g>
      <path class="cls-30" d="M512.95,194.83s.13-.49,.6-.79c1.57-1.01,5.01-2.74,9.33-1.53,4.84,1.35,6.23,6.64,6.69,8.52,.08,.32,0,.56,0,.56,0,0-.06,.27-.27,.42-1.02,.68-4.3,2.46-8.9,1.25-2.74-.72-6.16-3.26-7.49-7.62-.09-.3-.01-.63,.04-.81Z"/>
      <circle class="cls-67" cx="522.69" cy="198.47" r="5.19"/>
      <circle class="cls-30" cx="519.82" cy="196.57" r="1.42"/>
      <path class="cls-14" d="M529.87,201.11s-2.66-13.19-16.49-7.17"/>
    </g>
    <g>
      <path class="cls-30" d="M566.13,214.52s.05-.47,.45-.82c1.31-1.16,4.27-3.26,8.46-2.76,4.69,.57,6.74,5.28,7.44,6.96,.12,.29,.08,.53,.08,.53,0,0-.02,.26-.2,.43-.85,.78-3.64,2.9-8.09,2.44-2.65-.28-6.19-2.15-8.06-6.01-.13-.27-.1-.59-.08-.76Z"/>
      <circle class="cls-67" cx="575.71" cy="216.5" r="4.87"/>
      <circle class="cls-30" cx="572.6" cy="215.21" r="1.36"/>
      <path class="cls-14" d="M582.53,218.07s-3.92-12.51-16.13-4.2"/>
    </g>
    <path class="cls-11" d="M412.51,416.25s7.04,39.22-3.52,57.32"/>
    <path class="cls-11" d="M303.83,446s10.13,39.64,16.67,41.65"/>
    <path class="cls-11" d="M559.67,521.58s8.7-66.98-1.78-103.67"/>
    <path class="cls-9" d="M494.52,372.81c0,4.61-3.74,8.35-8.35,8.35s-8.35-3.74-8.35-8.35,3.74-8.35,8.35-8.35,8.35,3.74,8.35,8.35Z"/>
    <path class="cls-9" d="M496.77,435.25c0,4.61-3.74,8.35-8.35,8.35s-8.35-3.74-8.35-8.35,3.74-8.35,8.35-8.35,8.35,3.74,8.35,8.35Z"/>
    <circle class="cls-9" cx="487.85" cy="500.83" r="8.35"/>
    <g>
      <path class="cls-60" d="M716.18,363.52s2.44-.59,6,2.76l16.95,172.18s.8,7.57-11.75,7.76l-120.13,6.28-109.96,14.41-11.28-.05s-2.15-.76-2.47-5.79l-16.75-170.29s1.68-9.77,16.49-8.42l106.23,21.73"/>
      <path class="cls-8" d="M716.18,363.52l-7.27-4.2s-72.73,.03-118,23.02c0,0-56.73-15.94-110.4,.9l-7.83,5.17,17.26,172.2,8.67,1.77,108.88-17.3,127.57-4.89-18.87-176.69Z"/>
      <line class="cls-8" x1="498.6" y1="562.39" x2="480.51" y2="383.24"/>
      <line class="cls-8" x1="476.79" y1="386.05" x2="495.11" y2="561.45"/>
      <line class="cls-8" x1="474.66" y1="387.49" x2="492.63" y2="560.99"/>
      <line class="cls-8" x1="590.91" y1="382.34" x2="607.48" y2="545.1"/>
      <line class="cls-8" x1="708.91" y1="359.32" x2="728.12" y2="540.84"/>
      <line class="cls-8" x1="712.94" y1="361.86" x2="731.04" y2="541.01"/>
      <path class="cls-7" d="M577.93,410.61s-1.92,4.07-6.74,.85-9.29,1.53-9.29,1.53c0,0-3.85,1.44-5.36-1.16s-7.67,2.47-7.67,2.47c0,0-5.12,1.78-8.3-.92-3.18-2.7-7.26,2.49-7.26,2.49,0,0-2.66,2.56-6.2-1.21-2.18-2.32-5.59,2.59-5.59,2.59"/>
      <path class="cls-7" d="M578.96,435.27s-1.78,3.78-6.26,.79-8.63,1.42-8.63,1.42c0,0-3.58,1.34-4.98-1.08-1.41-2.41-7.13,2.29-7.13,2.29,0,0-4.76,1.66-7.72-.85s-6.74,2.31-6.74,2.31c0,0-2.47,2.38-5.76-1.12-2.02-2.15-5.19,2.41-5.19,2.41"/>
      <path class="cls-7" d="M578.64,454.48s-1.78,3.78-6.26,.79c-4.48-2.99-8.63,1.42-8.63,1.42,0,0-3.06,.95-4.98-1.08-3.97-4.18-9.59,2.38-9.59,2.38"/>
      <path class="cls-51" d="M716.28,495.04l-12.84-124.55s-67.07-.26-102.69,18.61l10.33,116.85"/>
      <path class="cls-61" d="M611.08,505.95l3.51,36.48,105.92-7.31-4.23-40.08s-65.85-5.82-105.2,10.91Z"/>
      <polygon class="cls-61" points="667.34 372.92 659.31 381.43 672.88 385.17 667.34 372.92"/>
      <polygon class="cls-59" points="657.88 383.36 648.8 390.74 661.76 396.22 657.88 383.36"/>
      <polygon class="cls-32" points="646.02 393.72 636.14 399.98 648.36 406.95 646.02 393.72"/>
      <polygon class="cls-61" points="632.55 402.41 621.64 406.62 632.26 415.85 632.55 402.41"/>
      <polygon class="cls-59" points="618.4 408.54 607.16 411.79 616.96 421.9 618.4 408.54"/>
      <path class="cls-7" d="M602.1,411.85s36.5-2.2,65.24-38.93"/>
      <ellipse class="cls-33" cx="683.06" cy="402.53" rx="12.19" ry="16.07" transform="translate(-77.14 177.35) rotate(-14.01)"/>
      <polyline class="cls-33" points="688.23 417.54 689.58 421.23 684.18 422.31 684.77 417.8"/>
      <path class="cls-7" d="M694.75,457.9s3.3-5.29-1.35-14.03-8.6-16.03-5.73-22.13"/>
      <g>
        <path class="cls-47" d="M614.12,441.49c.7,17.38,10.77,21.03,10.77,21.03l.37,9.3c-.04,14.58,3.96,19.63,3.96,19.63l5.72,22.12c-2.42,7.12,4.44,3.91,4.44,3.91,0,0-2.53,3.46,3.61,4.5,6.14,1.04,5.64-3.17,5.64-3.17l2.94-20.16c4.21,.96,12.26-2.05,12.26-2.05,4.95,3.76,6.27,11.76,6.27,11.76-3.44,4.52,.37,6.38,.37,6.38l3.27-.66c7.64-.65,6.07-14.28,6.07-14.28l4.34,10.22c-3.12,4.09-.49,5.75-.49,5.75,5.27,3.33,9.26-1.59,9.26-1.59,2.98-7.52,.95-28.52,.95-28.52,3.2,11.24,10.17,10.23,10.17,10.23,8.6-3.4,4.76-12.32,4.76-12.32l-2.46,4.44c-4.83,6.96-8.26-5.78-8.26-5.78-6.09-18.53-25.66-22.1-35.43-21.81s-10.39-4.68-10.39-4.68c5.34-5.66,1.6-19.42,1.6-19.42,0,0,.15,11,10.65,13.91,3.75,1.04,.58-5.83,.58-5.83,0,0-.29-11.67-6.13-18.96-9.59-11.99-20.64-.75-20.64-.75-5.27-1.87-13.6,1.34-13.6,1.34,0,0-12.44-6.72-16.53,3.49s-.29,16.92-.29,16.92c0,0,1,5.14,.88,8.46-.29,7.88,8.17-1.17,8.17-1.17l-2.87-12.26Z"/>
        <circle class="cls-57" cx="645.89" cy="442.63" r="3.47"/>
        <circle class="cls-57" cx="624.26" cy="444.72" r="3.47"/>
        <circle class="cls-57" cx="636.66" cy="452.46" r="3.47"/>
        <path class="cls-6" d="M624.89,462.52s16.63,14.65,27.4-6.77"/>
        <path class="cls-6" d="M629.21,491.45s3.32,6.23,7.72,8.93l3.45,15.01-1,2.1"/>
        <path class="cls-6" d="M663.82,496.6s6.8-2.82,10.48-5.43c0,0,2.87,6.97,5.5,8.63"/>
        <path class="cls-27" d="M634.85,459.19s-.43,4.46,3.17,4.26,2.12-4.83,2.12-4.83l-3.46-1.56-1.82,2.12Z"/>
        <path class="cls-6" d="M632.18,457.76s4.29,2.92,4.64-2.05c0,0,1.38,3.8,4.29,1.94"/>
      </g>
    </g>
    <path class="cls-48" d="M538.38,496.69s5.73-19.31,24.21-17.19,29.4-1.21,29.4-1.21c0,0,12.12-4.55,17.28,2.73,5.15,7.27-7.58,9.09-7.58,9.09l-20,2.42,57.28,24.55s5.29,2.9,2.12,7.88c0,0-1.78,3.12-7.03,3.12,0,0-3.93,11.15-21.86,.66,0,0-14.64,12.02-37.37,1.09,0,0-15.95-.66-21.2-6.12l-9.83,.66s3.79-13.83-5.42-27.68Z"/>
    <line class="cls-13" x1="634.07" y1="528.08" x2="603.36" y2="516.69"/>
    <line class="cls-13" x1="612.12" y1="528.97" x2="589.42" y2="523.44"/>
    <path class="cls-48" d="M324.78,486.37s13.76,30.95,30.9,53.28c28.55,37.17,188.12-15.28,188.12-15.28,12.33-10.02-5.42-27.68-5.42-27.68-56.56-8.75-130.37-6.97-130.37-6.97,.13-4.49-2.73-10.86-3.56-14.82,0,0-52.5,18.11-79.66,11.47Z"/>
    <rect class="cls-10" x="711.85" y="372.4" width="16.61" height="10.58" rx="5.29" ry="5.29" transform="translate(1498.46 613.32) rotate(169.17)"/>
    <rect class="cls-10" x="717.09" y="407.5" width="16.61" height="10.58" rx="5.29" ry="5.29" transform="translate(1559.4 380.88) rotate(148.17)"/>
    <rect class="cls-10" x="710.15" y="383.05" width="21.07" height="11.87" rx="5.93" ry="5.93" transform="translate(1501.63 635.62) rotate(169.17)"/>
    <rect class="cls-10" x="712.48" y="395.27" width="21.07" height="11.87" rx="5.93" ry="5.93" transform="translate(1542.02 514.98) rotate(158.88)"/>
  </g>
</svg>