<?xml version="1.0" encoding="UTF-8"?>
<svg id="Layer_1" data-name="Layer 1" xmlns="http://www.w3.org/2000/svg" viewBox="0 0 1336.08 1001.19">
  <defs>
    <style>
      .cls-1 {
        stroke-width: 1.5px;
      }

      .cls-1, .cls-2, .cls-3, .cls-4, .cls-5, .cls-6, .cls-7, .cls-8, .cls-9, .cls-10, .cls-11, .cls-12, .cls-13, .cls-14, .cls-15 {
        stroke-miterlimit: 10;
      }

      .cls-1, .cls-2, .cls-3, .cls-8, .cls-9, .cls-10, .cls-11, .cls-12, .cls-13, .cls-14, .cls-15 {
        fill: none;
      }

      .cls-1, .cls-3, .cls-9, .cls-14 {
        stroke: #231f20;
      }

      .cls-2 {
        stroke: #2b3990;
      }

      .cls-2, .cls-3 {
        stroke-width: .8px;
      }

      .cls-16, .cls-7 {
        fill: #f7daa6;
      }

      .cls-17 {
        fill: #f8e8c5;
      }

      .cls-18 {
        fill: #f15953;
      }

      .cls-19 {
        fill: #f6aac1;
      }

      .cls-20 {
        fill: #f05549;
      }

      .cls-21 {
        fill: #fff;
      }

      .cls-22 {
        fill: #ffcb05;
      }

      .cls-23 {
        fill: #efe3c0;
      }

      .cls-24 {
        fill: #fec252;
      }

      .cls-25 {
        fill: #803435;
      }

      .cls-26 {
        fill: #98d9e9;
      }

      .cls-27 {
        fill: #96d9ec;
      }

      .cls-28 {
        fill: #96d9f1;
      }

      .cls-29 {
        fill: #87664d;
      }

      .cls-30 {
        fill: #b56e5b;
      }

      .cls-31 {
        fill: #8cb13e;
      }

      .cls-32, .cls-6 {
        fill: #9054a2;
      }

      .cls-33 {
        fill: #8bcda9;
      }

      .cls-34 {
        fill: #cee186;
      }

      .cls-35 {
        fill: #be9e7d;
      }

      .cls-36 {
        fill: #be8c8c;
      }

      .cls-37 {
        fill: #c66f2b;
      }

      .cls-38, .cls-4 {
        fill: #d1d3d4;
      }

      .cls-39 {
        fill: #d4bada;
      }

      .cls-40 {
        fill: #dcbf97;
      }

      .cls-41 {
        fill: #db964d;
      }

      .cls-42 {
        fill: #231f20;
      }

      .cls-43 {
        fill: #092f44;
      }

      .cls-44 {
        fill: #546b82;
      }

      .cls-45 {
        fill: #87b13f;
      }

      .cls-46 {
        fill: #5a8fc8;
      }

      .cls-47 {
        fill: #3c2415;
      }

      .cls-48 {
        fill: #6189c6;
      }

      .cls-49 {
        fill: #26130f;
      }

      .cls-4 {
        stroke: #58595b;
        stroke-width: .2px;
      }

      .cls-5 {
        fill: #a97c50;
      }

      .cls-5, .cls-13 {
        stroke: #a97c50;
      }

      .cls-5, .cls-15 {
        stroke-width: .5px;
      }

      .cls-6, .cls-10 {
        stroke: #662d91;
      }

      .cls-7, .cls-12 {
        stroke: #603913;
      }

      .cls-8 {
        stroke: #db964d;
        stroke-width: 2px;
      }

      .cls-11 {
        stroke: #ed1c24;
      }

      .cls-14 {
        stroke-width: 1.2px;
      }

      .cls-15 {
        stroke: #754c29;
      }
    </style>
  </defs>
  <g>
    <polygon class="cls-33" points="0 999.76 1334.07 1000.03 1336.08 0 .07 0 0 999.76"/>
    <rect class="cls-29" x="1289.69" y="413.61" width="44.54" height="587.58"/>
    <rect class="cls-38" x="678.94" y="872.15" width="631.6" height="128.85" rx="8.69" ry="8.69"/>
    <path class="cls-21" d="M1287.88,872.23s18.18-146.99-143.96-140.93c-38.91,1.45-71.88,5.18-102.61,17.82-97.31,40.01-163.18,122.96-163.18,122.96l409.75,.16Z"/>
    <path class="cls-19" d="M695.56,999.54c38.84-95.46,50.77-168.42,50.77-168.42,0,0-230.97-61.48-699.58-25.24-15.85,1.23-30.07,2.25-46.43,2.87l-.33,191.01,695.56-.22Z"/>
    <rect class="cls-29" x="411.73" y="234.74" width="723.69" height="21.84"/>
    <path class="cls-18" d="M773.94,6.93V234.21h-40.26V6.93s20.53-11.22,40.26,0Z"/>
    <path class="cls-26" d="M884.71,53.65l35.91,175.55-26.96,5.51-35.91-175.55s11.97-11.48,26.96-5.51Z"/>
    <path class="cls-22" d="M860.88,39.73V234.21h-47.39V39.73s24.16-9.6,47.39,0Z"/>
    <path class="cls-23" d="M753.72,70.28l1.73-.91c1.64-.86,3.56,.53,3.25,2.36l-.33,1.92c-.12,.73,.12,1.47,.64,1.98l1.4,1.36c1.33,1.29,.6,3.55-1.24,3.82l-1.93,.28c-.73,.11-1.36,.56-1.68,1.22l-.86,1.75c-.82,1.66-3.19,1.66-4.01,0l-.86-1.75c-.33-.66-.96-1.12-1.68-1.22l-1.93-.28c-1.84-.27-2.57-2.52-1.24-3.82l1.4-1.36c.53-.51,.77-1.25,.64-1.98l-.33-1.92c-.31-1.83,1.6-3.22,3.25-2.36l1.73,.91c.65,.34,1.43,.34,2.08,0Z"/>
    <path class="cls-23" d="M753.72,95.16l1.73-.91c1.64-.86,3.56,.53,3.25,2.36l-.33,1.92c-.12,.73,.12,1.47,.64,1.98l1.4,1.36c1.33,1.29,.6,3.55-1.24,3.82l-1.93,.28c-.73,.11-1.36,.56-1.68,1.22l-.86,1.75c-.82,1.66-3.19,1.66-4.01,0l-.86-1.75c-.33-.66-.96-1.12-1.68-1.22l-1.93-.28c-1.84-.27-2.57-2.52-1.24-3.82l1.4-1.36c.53-.51,.77-1.25,.64-1.98l-.33-1.92c-.31-1.83,1.6-3.22,3.25-2.36l1.73,.91c.65,.34,1.43,.34,2.08,0Z"/>
    <path class="cls-23" d="M753.72,118.97l1.73-.91c1.64-.86,3.56,.53,3.25,2.36l-.33,1.92c-.12,.73,.12,1.47,.64,1.98l1.4,1.36c1.33,1.29,.6,3.55-1.24,3.82l-1.93,.28c-.73,.11-1.36,.56-1.68,1.22l-.86,1.75c-.82,1.66-3.19,1.66-4.01,0l-.86-1.75c-.33-.66-.96-1.12-1.68-1.22l-1.93-.28c-1.84-.27-2.57-2.52-1.24-3.82l1.4-1.36c.53-.51,.77-1.25,.64-1.98l-.33-1.92c-.31-1.83,1.6-3.22,3.25-2.36l1.73,.91c.65,.34,1.43,.34,2.08,0Z"/>
    <path class="cls-23" d="M753.72,143.14l1.73-.91c1.64-.86,3.56,.53,3.25,2.36l-.33,1.92c-.12,.73,.12,1.47,.64,1.98l1.4,1.36c1.33,1.29,.6,3.55-1.24,3.82l-1.93,.28c-.73,.11-1.36,.56-1.68,1.22l-.86,1.75c-.82,1.66-3.19,1.66-4.01,0l-.86-1.75c-.33-.66-.96-1.12-1.68-1.22l-1.93-.28c-1.84-.27-2.57-2.52-1.24-3.82l1.4-1.36c.53-.51,.77-1.25,.64-1.98l-.33-1.92c-.31-1.83,1.6-3.22,3.25-2.36l1.73,.91c.65,.34,1.43,.34,2.08,0Z"/>
    <path class="cls-23" d="M753.72,164.1l1.73-.91c1.64-.86,3.56,.53,3.25,2.36l-.33,1.92c-.12,.73,.12,1.47,.64,1.98l1.4,1.36c1.33,1.29,.6,3.55-1.24,3.82l-1.93,.28c-.73,.11-1.36,.56-1.68,1.22l-.86,1.75c-.82,1.66-3.19,1.66-4.01,0l-.86-1.75c-.33-.66-.96-1.12-1.68-1.22l-1.93-.28c-1.84-.27-2.57-2.52-1.24-3.82l1.4-1.36c.53-.51,.77-1.25,.64-1.98l-.33-1.92c-.31-1.83,1.6-3.22,3.25-2.36l1.73,.91c.65,.34,1.43,.34,2.08,0Z"/>
    <path class="cls-11" d="M830.6,52.98h11.12s-2.3,13.42,8.43,13.8V214.36s-9.2-.77-7.67,12.27h-10.73s2.68-11.12-7.67-12.27V66.01s8.43,1.15,6.52-13.03Z"/>
    <line class="cls-11" x1="832.9" y1="73.68" x2="832.9" y2="205.16"/>
    <line class="cls-11" x1="840.95" y1="73.68" x2="840.95" y2="205.16"/>
    <polygon class="cls-11" points="875.93 82.5 869.45 103.69 882.85 118.82 889.77 98.93 875.93 82.5"/>
    <polygon class="cls-11" points="895.83 172.45 889.34 193.64 902.75 208.78 909.67 188.88 895.83 172.45"/>
    <g>
      <line class="cls-8" x1="566.18" y1="85.39" x2="602.29" y2="148.23"/>
      <line class="cls-8" x1="663.31" y1="94.44" x2="646.89" y2="151.13"/>
      <line class="cls-8" x1="622.85" y1="57.85" x2="624.54" y2="149.93"/>
      <g>
        <polygon class="cls-20" points="662.76 91.67 662.21 61.81 694.84 61.26 662.76 91.67"/>
        <polygon class="cls-28" points="663.87 92.78 693.73 92.23 694.28 124.85 663.87 92.78"/>
        <polygon class="cls-20" points="663.31 94.44 663.87 124.3 631.24 124.85 663.31 94.44"/>
        <polygon class="cls-28" points="661.93 93.88 632.07 94.44 631.51 61.81 661.93 93.88"/>
        <ellipse class="cls-42" cx="662.74" cy="93.9" rx="5.12" ry="5.53"/>
      </g>
      <g>
        <polygon class="cls-24" points="620.69 38.97 613.03 10.09 644.59 1.78 620.69 38.97"/>
        <polygon class="cls-48" points="622.02 39.78 650.89 32.12 659.21 63.68 622.02 39.78"/>
        <polygon class="cls-24" points="621.88 41.52 629.54 70.39 597.98 78.7 621.88 41.52"/>
        <polygon class="cls-48" points="620.41 41.31 591.54 48.97 583.22 17.41 620.41 41.31"/>
        <ellipse class="cls-42" cx="621.19" cy="41.13" rx="5.12" ry="5.53" transform="translate(8.1 149.25) rotate(-13.79)"/>
      </g>
      <g>
        <polygon class="cls-31" points="563.15 80.89 541.91 59.89 564.89 36.72 563.15 80.89"/>
        <polygon class="cls-21" points="564.71 80.91 585.71 59.67 608.88 82.64 564.71 80.91"/>
        <polygon class="cls-45" points="565.48 82.48 586.72 103.48 563.74 126.65 565.48 82.48"/>
        <polygon class="cls-21" points="564.1 83.05 543.1 104.29 519.93 81.31 564.1 83.05"/>
        <ellipse class="cls-42" cx="564.69" cy="82.5" rx="5.12" ry="5.53" transform="translate(102.75 417.59) rotate(-44.27)"/>
      </g>
      <rect class="cls-18" x="587.83" y="145.04" width="74.93" height="89.87"/>
    </g>
  </g>
  <polyline class="cls-35" points="728.07 621.52 642.77 650.58 643.14 684.84 741.5 675.24"/>
  <path class="cls-44" d="M883.63,720.79l-98.3,18.7c-12.95,.26-69.08,25.94-69.08,25.94l-100.97,24.53c-11.54,26,8.48,35.48,8.48,35.48l64.95-6.6,16.19-2.36-85.03,29.17c-6.59,18.05,8.5,37.05,8.5,37.05,68.23,1.07,134.04-13.15,134.04-13.15,15.78,6.46,89.36,2.84,89.36,2.84,41.58-.74,64.99-13.4,64.99-13.4,0,0,21.31-18.16,17.87-62.97-3.25-42.25-11.77-56.86-11.77-56.86l-39.22-18.38Z"/>
  <path class="cls-2" d="M704.9,816.48s2.94-6.48,43.66-14.97c40.72-8.49,77.96-12.49,77.96-12.49"/>
  <path class="cls-40" d="M904.83,521.94s-3.33,29.73,6.46,50.13c0,0-37.87,54.03-81.36,54,0,0-29.74-7.93-6.47-44.48,0,0,11.95-2.79,11.66-15.56l69.7-44.09Z"/>
  <path class="cls-40" d="M929.77,520.35s17.01-13.59,25.1-3.95c8.08,9.64-8.02,28.29-8.02,28.29,0,0-18.43,13.77-28.66,.65,0,0-27.55,30.42-78.24,18.25,0,0-21.71-3.78-31.24-30.07-9.19-25.36,9.65-57.1,9.65-57.1,0,0-.6-6.68,6.88-27.72,7.47-21.04,22.23-43.55,52.49-42.96,30.25,.59,48.37,2.96,67.17,31.97,18.81,29.02-15.12,82.63-15.12,82.63Z"/>
  <path class="cls-36" d="M854.54,527.29s-6.44-4.57-16.03-5.89c0,0-6.89-3.1-14.59-4.04,0,0-4.47,9.34,6.53,16.43,11,7.09,21.66,1.05,24.09-6.5Z"/>
  <path class="cls-25" d="M853.21,527.39s-3.91,11.36-18.63,6.14c-13.37-4.75-9.9-14.86-9.9-14.86,0,0,14.82,6.03,28.52,8.73Z"/>
  <path class="cls-42" d="M881.59,471.65s12.73,1.04,20.19,10.91c0,0,6.22-.2,.04-6.14-6.18-5.94-10.88-10.01-19.27-8.98,0,0-4.01,1.52-.96,4.2Z"/>
  <path class="cls-42" d="M842.25,458.22s-5.93-6.65-17.94-3.7c0,0-3.1-3.47,1.6-4.51,6.96-1.54,11.17-.58,18.24,4.34,0,0,2.16,3.71-1.91,3.87Z"/>
  <path class="cls-21" d="M851.12,526.88s-5.63,4.04-17.08-.66c0,0-7.31-2.19-8.96-7.08,0,0,14.89,5.65,26.04,7.74Z"/>
  <path class="cls-49" d="M834.49,561.83s10.7,5.55,30.46,4.7c0,0,6.89,.82,22.43-3.15,0,0-12.2,5.55-32.49,6.06,0,0-8.61,.44-22.69-4.58,0,0,1.27-.83,2.3-3.02Z"/>
  <path class="cls-3" d="M947.3,530.74s-2.17-8.79-10.02-3.4c-7.85,5.39-8.99,7.71-8.99,7.71,0,0,11.65-8.86,11.35,1.46"/>
  <path class="cls-3" d="M839.72,490.54s-14.01,10.38,1.4,17.66"/>
  <path class="cls-10" d="M788.85,674.79s.83-19.33,2.96-34.16"/>
  <path class="cls-32" d="M763.26,753.35c-3.06-34.83-1.17-67.27-1.17-67.27l-26.82-8.99s-12.5-44.58-7.8-60.87c0,0,30.63-16.79,39.51-24.6,19.89-17.5,62.76-13.51,62.76-13.51,0,0-30.14,35.78,5.65,34.19,35.8-1.59,75.9-40.22,75.9-40.22,0,0,25.13,17.15,27.51,54.54s-24.66,70-24.66,70l21.02,86.12c-20.77,19.5-68.42,24.49-105.87,18.41"/>
  <path class="cls-6" d="M862.68,661.28l27.41-38.96s7.63-10.96,24.86-10.57"/>
  <path class="cls-6" d="M762.09,686.08s-6.1-45.15-1.6-57.49"/>
  <g>
    <path class="cls-40" d="M796.92,708.18l-8.47-.3s-11.24-7.53-31.16-12.08c0,0-15.08-4.28-19.32-1.32-3.77,2.63-1.46,7.84,2.34,8.97s18.05-1.44,18.02,3.4c0,0,.99,9.36-24.62,11.61,0,0-11.94-.79-14.91-4.75,0,0-11.71-2.99-7.26,6.86,0,0-5.03,7.72,5.43,10.76,0,0,1.22,15.31,17.49,14.68,0,0-1.3,6.94,6.46,5.08,7.76-1.87,22.36-5.25,22.36-5.25,0,0,10.87-.87,21.97-6.23l54.02,5.75s28.25,.92,49.76-26.63c21.5-27.54,20.49-23.62,20.49-23.62l-43.91-31.75s-10.58,11.11-20.05,30.37l-48.63,14.46Z"/>
    <path class="cls-15" d="M711.54,720.57s17.91,14.12,38.64,5.02"/>
    <path class="cls-15" d="M716.97,731.33s16.67,13.85,34.45,1.8"/>
    <path class="cls-15" d="M734.46,746.01s12.26,.33,15.94-2.42"/>
  </g>
  <g>
    <path class="cls-34" d="M814.89,5.66V234.41h-43.05V5.66s21.95-11.29,43.05,0Z"/>
    <path class="cls-46" d="M793.26,69.42l1.85-.91c1.75-.87,3.81,.53,3.47,2.37l-.35,1.94c-.13,.73,.12,1.48,.69,1.99l1.49,1.37c1.42,1.3,.64,3.57-1.33,3.84l-2.07,.28c-.78,.11-1.45,.57-1.8,1.23l-.92,1.76c-.88,1.67-3.41,1.67-4.29,0l-.92-1.76c-.35-.66-1.02-1.13-1.8-1.23l-2.07-.28c-1.96-.27-2.75-2.54-1.33-3.84l1.49-1.37c.56-.52,.82-1.26,.69-1.99l-.35-1.94c-.34-1.84,1.72-3.24,3.47-2.37l1.85,.91c.7,.34,1.53,.34,2.23,0Z"/>
    <path class="cls-46" d="M793.26,94.46l1.85-.91c1.75-.87,3.81,.53,3.47,2.37l-.35,1.94c-.13,.73,.12,1.48,.69,1.99l1.49,1.37c1.42,1.3,.64,3.57-1.33,3.84l-2.07,.28c-.78,.11-1.45,.57-1.8,1.23l-.92,1.76c-.88,1.67-3.41,1.67-4.29,0l-.92-1.76c-.35-.66-1.02-1.13-1.8-1.23l-2.07-.28c-1.96-.27-2.75-2.54-1.33-3.84l1.49-1.37c.56-.52,.82-1.26,.69-1.99l-.35-1.94c-.34-1.84,1.72-3.24,3.47-2.37l1.85,.91c.7,.34,1.53,.34,2.23,0Z"/>
    <path class="cls-46" d="M793.26,118.42l1.85-.91c1.75-.87,3.81,.53,3.47,2.37l-.35,1.94c-.13,.73,.12,1.48,.69,1.99l1.49,1.37c1.42,1.3,.64,3.57-1.33,3.84l-2.07,.28c-.78,.11-1.45,.57-1.8,1.23l-.92,1.76c-.88,1.67-3.41,1.67-4.29,0l-.92-1.76c-.35-.66-1.02-1.13-1.8-1.23l-2.07-.28c-1.96-.27-2.75-2.54-1.33-3.84l1.49-1.37c.56-.52,.82-1.26,.69-1.99l-.35-1.94c-.34-1.84,1.72-3.24,3.47-2.37l1.85,.91c.7,.34,1.53,.34,2.23,0Z"/>
    <path class="cls-46" d="M793.26,142.75l1.85-.91c1.75-.87,3.81,.53,3.47,2.37l-.35,1.94c-.13,.73,.12,1.48,.69,1.99l1.49,1.37c1.42,1.3,.64,3.57-1.33,3.84l-2.07,.28c-.78,.11-1.45,.57-1.8,1.23l-.92,1.76c-.88,1.67-3.41,1.67-4.29,0l-.92-1.76c-.35-.66-1.02-1.13-1.8-1.23l-2.07-.28c-1.96-.27-2.75-2.54-1.33-3.84l1.49-1.37c.56-.52,.82-1.26,.69-1.99l-.35-1.94c-.34-1.84,1.72-3.24,3.47-2.37l1.85,.91c.7,.34,1.53,.34,2.23,0Z"/>
    <path class="cls-46" d="M793.26,163.85l1.85-.91c1.75-.87,3.81,.53,3.47,2.37l-.35,1.94c-.13,.73,.12,1.48,.69,1.99l1.49,1.37c1.42,1.3,.64,3.57-1.33,3.84l-2.07,.28c-.78,.11-1.45,.57-1.8,1.23l-.92,1.76c-.88,1.67-3.41,1.67-4.29,0l-.92-1.76c-.35-.66-1.02-1.13-1.8-1.23l-2.07-.28c-1.96-.27-2.75-2.54-1.33-3.84l1.49-1.37c.56-.52,.82-1.26,.69-1.99l-.35-1.94c-.34-1.84,1.72-3.24,3.47-2.37l1.85,.91c.7,.34,1.53,.34,2.23,0Z"/>
  </g>
  <g>
    <path class="cls-41" d="M903.68,779.23s-23.76-6.03-13.75-51.69c0,0,3.35-9.73,7.07-12.97,0,0-16.14-1.69-7.43-16.49,8.71-14.8,18.47,4.6,18.47,4.6,0,0,24.53-18.73,50.55-3.28,0,0,6.93-15.57,16.18-5.25,9.25,10.32-3.85,16.26-3.85,16.26,0,0,29.69,34.32,4.85,63.04,0,0,49.22,19.34,39.25,42.45,0,0-5.95,9.88-23.61-3.44,0,0,3.47,15.42,1.39,24.64,0,0,31.14-9.13,23.57,18.19-7.57,27.31-32.74,27-32.74,27,0,0-11.41-2.39-11.97-12.33,0,0-19.2,21.03-53.09,4.29,0,0-1.3,23.06-27.18,10.2-25.87-12.85-19.31-34.9-19.31-34.9,0,0,6.07-7.71,18.27-6.67,0,0-2.61-15.46,1.69-23.94,0,0-12.33,11.97-24.35,6.58-12.01-5.39,8.36-28.66,8.36-28.66,0,0,15.57-16.05,27.63-17.6Z"/>
    <path class="cls-37" d="M1006.54,834.58s-34.7-.21-34.87,35.35c0,0,4.6,20.12,24.82,9.44,0,0-27.78,7.2-20.19-19.68,0,0,10.53-20.97,30.24-25.12Z"/>
    <path class="cls-37" d="M897.14,886.27s19.03,6.73,21.44-12.05c2.41-18.78-25.19-31.54-25.19-31.54,0,0-16.65-2.96-18.01,3.62,0,0,17.81-7.07,30.51,10.42,12.69,17.5,4.46,25.33,4.46,25.33,0,0-6.72,3.85-13.21,4.21Z"/>
    <ellipse class="cls-37" cx="1007.69" cy="810.34" rx="3.72" ry="5.59" transform="translate(-192.96 1290.46) rotate(-60.6)"/>
    <ellipse class="cls-37" cx="875.28" cy="817" rx="5.59" ry="3.72" transform="translate(-312.67 667.4) rotate(-35.85)"/>
    <ellipse class="cls-27" cx="942.13" cy="785.78" rx="5.55" ry="4.93" transform="translate(-42.72 54.25) rotate(-3.23)"/>
    <polygon class="cls-27" points="918.09 777.99 919.92 797.16 942.13 785.78 964.73 794.39 963.73 776.66 942.14 783.8 918.09 777.99"/>
    <ellipse class="cls-17" cx="936.56" cy="759.28" rx="25.66" ry="16.65" transform="translate(-41.24 53.9) rotate(-3.23)"/>
    <ellipse class="cls-19" cx="968.9" cy="749.93" rx="5.92" ry="5.67" transform="translate(-40.66 55.7) rotate(-3.23)"/>
    <ellipse class="cls-19" cx="904.29" cy="753.57" rx="5.92" ry="5.67" transform="translate(-40.97 52.07) rotate(-3.23)"/>
    <ellipse class="cls-42" cx="915.93" cy="737.34" rx="3.58" ry="4.44" transform="translate(-40.03 52.7) rotate(-3.23)"/>
    <ellipse class="cls-42" cx="953.56" cy="735.22" rx="3.58" ry="4.44" transform="translate(-39.85 54.81) rotate(-3.23)"/>
    <path class="cls-17" d="M962.35,701.48s3.4-9.29,9.16-4.6c5.76,4.7-2.41,10.18-2.41,10.18,0,0-4.61-1-6.75-5.58Z"/>
    <path class="cls-17" d="M905.11,704.71s-4.42-8.85-9.62-3.54,3.54,9.85,3.54,9.85c0,0,4.47-1.51,6.08-6.31Z"/>
    <path class="cls-42" d="M937.68,754.89l4.3-6.14c.78-1.11-.07-2.63-1.42-2.55l-9.26,.52c-1.35,.08-2.02,1.68-1.12,2.69l4.96,5.61c.69,.79,1.94,.72,2.54-.14Z"/>
    <path class="cls-9" d="M926.86,764.09s9.4,2.27,9.49-9.07"/>
    <path class="cls-9" d="M946.81,762.97s-9.08,3.31-10.45-7.94"/>
  </g>
  <path class="cls-39" d="M796.05,587.6l3.49-2.38c1.02-.7,2.39,.08,2.32,1.31l-.23,4.22c-.03,.49,.19,.96,.58,1.26l3.34,2.58c.98,.75,.66,2.3-.52,2.61l-4.08,1.09c-.47,.13-.85,.48-1.02,.94l-1.42,3.98c-.41,1.16-1.98,1.34-2.65,.31l-2.29-3.55c-.27-.41-.72-.66-1.2-.68l-4.22-.12c-1.23-.03-1.89-1.47-1.11-2.42l2.66-3.28c.31-.38,.41-.89,.27-1.36l-1.19-4.05c-.35-1.18,.81-2.25,1.96-1.8l3.94,1.52c.46,.18,.97,.12,1.37-.16Z"/>
  <path class="cls-39" d="M867.26,617.51l3.49-2.38c1.02-.7,2.39,.08,2.32,1.31l-.23,4.22c-.03,.49,.19,.96,.58,1.26l3.34,2.58c.98,.75,.66,2.3-.52,2.61l-4.08,1.09c-.47,.13-.85,.48-1.02,.94l-1.42,3.98c-.41,1.16-1.98,1.34-2.65,.31l-2.29-3.55c-.27-.41-.72-.66-1.2-.68l-4.22-.12c-1.23-.03-1.89-1.47-1.11-2.42l2.66-3.28c.31-.38,.41-.89,.27-1.36l-1.19-4.05c-.35-1.18,.81-2.25,1.96-1.8l3.94,1.52c.46,.18,.97,.12,1.37-.16Z"/>
  <path class="cls-39" d="M796.08,679.08l3.49-2.38c1.02-.7,2.39,.08,2.32,1.31l-.23,4.22c-.03,.49,.19,.96,.58,1.26l3.34,2.58c.98,.75,.66,2.3-.52,2.61l-4.08,1.09c-.47,.13-.85,.48-1.02,.94l-1.42,3.98c-.41,1.16-1.98,1.34-2.65,.31l-2.29-3.55c-.27-.41-.72-.66-1.2-.68l-4.22-.12c-1.23-.03-1.89-1.47-1.11-2.42l2.66-3.28c.31-.38,.41-.89,.27-1.36l-1.19-4.05c-.35-1.18,.81-2.25,1.96-1.8l3.94,1.52c.46,.18,.97,.12,1.37-.16Z"/>
  <path class="cls-39" d="M831.65,675.9l3.49-2.38c1.02-.7,2.39,.08,2.32,1.31l-.23,4.22c-.03,.49,.19,.96,.58,1.26l3.34,2.58c.98,.75,.66,2.3-.52,2.61l-4.08,1.09c-.47,.13-.85,.48-1.02,.94l-1.42,3.98c-.41,1.16-1.98,1.34-2.65,.31l-2.29-3.55c-.27-.41-.72-.66-1.2-.68l-4.22-.12c-1.23-.03-1.89-1.47-1.11-2.42l2.66-3.28c.31-.38,.41-.89,.27-1.36l-1.19-4.05c-.35-1.18,.81-2.25,1.96-1.8l3.94,1.52c.46,.18,.97,.12,1.37-.16Z"/>
  <path class="cls-39" d="M881.02,655.96l3.49-2.38c1.02-.7,2.39,.08,2.32,1.31l-.23,4.22c-.03,.49,.19,.96,.58,1.26l3.34,2.58c.98,.75,.66,2.3-.52,2.61l-4.08,1.09c-.47,.13-.85,.48-1.02,.94l-1.42,3.98c-.41,1.16-1.98,1.34-2.65,.31l-2.29-3.55c-.27-.41-.72-.66-1.2-.68l-4.22-.12c-1.23-.03-1.89-1.47-1.11-2.42l2.66-3.28c.31-.38,.41-.89,.27-1.36l-1.19-4.05c-.35-1.18,.81-2.25,1.96-1.8l3.94,1.52c.46,.18,.97,.12,1.37-.16Z"/>
  <path class="cls-39" d="M905.23,625.1l3.49-2.38c1.02-.7,2.39,.08,2.32,1.31l-.23,4.22c-.03,.49,.19,.96,.58,1.26l3.34,2.58c.98,.75,.66,2.3-.52,2.61l-4.08,1.09c-.47,.13-.85,.48-1.02,.94l-1.42,3.98c-.41,1.16-1.98,1.34-2.65,.31l-2.29-3.55c-.27-.41-.72-.66-1.2-.68l-4.22-.12c-1.23-.03-1.89-1.47-1.11-2.42l2.66-3.28c.31-.38,.41-.89,.27-1.36l-1.19-4.05c-.35-1.18,.81-2.25,1.96-1.8l3.94,1.52c.46,.18,.97,.12,1.37-.16Z"/>
  <path class="cls-39" d="M914.73,658.81l3.49-2.38c1.02-.7,2.39,.08,2.32,1.31l-.23,4.22c-.03,.49,.19,.96,.58,1.26l3.34,2.58c.98,.75,.66,2.3-.52,2.61l-4.08,1.09c-.47,.13-.85,.48-1.02,.94l-1.42,3.98c-.41,1.16-1.98,1.34-2.65,.31l-2.29-3.55c-.27-.41-.72-.66-1.2-.68l-4.22-.12c-1.23-.03-1.89-1.47-1.11-2.42l2.66-3.28c.31-.38,.41-.89,.27-1.36l-1.19-4.05c-.35-1.18,.81-2.25,1.96-1.8l3.94,1.52c.46,.18,.97,.12,1.37-.16Z"/>
  <path class="cls-39" d="M907.61,721.47l3.49-2.38c1.02-.7,2.39,.08,2.32,1.31l-.23,4.22c-.03,.49,.19,.96,.58,1.26l3.34,2.58c.98,.75,.66,2.3-.52,2.61l-4.08,1.09c-.47,.13-.85,.48-1.02,.94l-1.42,3.98c-.41,1.16-1.98,1.34-2.65,.31l-2.29-3.55c-.27-.41-.72-.66-1.2-.68l-4.22-.12c-1.23-.03-1.89-1.47-1.11-2.42l2.66-3.28c.31-.38,.41-.89,.27-1.36l-1.19-4.05c-.35-1.18,.81-2.25,1.96-1.8l3.94,1.52c.46,.18,.97,.12,1.37-.16Z"/>
  <path class="cls-39" d="M796.31,746.93l3.49-2.38c1.02-.7,2.39,.08,2.32,1.31l-.23,4.22c-.03,.49,.19,.96,.58,1.26l3.34,2.58c.98,.75,.66,2.3-.52,2.61l-4.08,1.09c-.47,.13-.85,.48-1.02,.94l-1.42,3.98c-.41,1.16-1.98,1.34-2.65,.31l-2.29-3.55c-.27-.41-.72-.66-1.2-.68l-4.22-.12c-1.23-.03-1.89-1.47-1.11-2.42l2.66-3.28c.31-.38,.41-.89,.27-1.36l-1.19-4.05c-.35-1.18,.81-2.25,1.96-1.8l3.94,1.52c.46,.18,.97,.12,1.37-.16Z"/>
  <path class="cls-39" d="M853.75,753.1l3.49-2.38c1.02-.7,2.39,.08,2.32,1.31l-.23,4.22c-.03,.49,.19,.96,.58,1.26l3.34,2.58c.98,.75,.66,2.3-.52,2.61l-4.08,1.09c-.47,.13-.85,.48-1.02,.94l-1.42,3.98c-.41,1.16-1.98,1.34-2.65,.31l-2.29-3.55c-.27-.41-.72-.66-1.2-.68l-4.22-.12c-1.23-.03-1.89-1.47-1.11-2.42l2.66-3.28c.31-.38,.41-.89,.27-1.36l-1.19-4.05c-.35-1.18,.81-2.25,1.96-1.8l3.94,1.52c.46,.18,.97,.12,1.37-.16Z"/>
  <path class="cls-39" d="M886.51,759.27l3.49-2.38c1.02-.7,2.39,.08,2.32,1.31l-.23,4.22c-.03,.49,.19,.96,.58,1.26l3.34,2.58c.98,.75,.66,2.3-.52,2.61l-4.08,1.09c-.47,.13-.85,.48-1.02,.94l-1.42,3.98c-.41,1.16-1.98,1.34-2.65,.31l-2.29-3.55c-.27-.41-.72-.66-1.2-.68l-4.22-.12c-1.23-.03-1.89-1.47-1.11-2.42l2.66-3.28c.31-.38,.41-.89,.27-1.36l-1.19-4.05c-.35-1.18,.81-2.25,1.96-1.8l3.94,1.52c.46,.18,.97,.12,1.37-.16Z"/>
  <path class="cls-39" d="M829.75,773.21l3.49-2.38c1.02-.7,2.39,.08,2.32,1.31l-.23,4.22c-.03,.49,.19,.96,.58,1.26l3.34,2.58c.98,.75,.66,2.3-.52,2.61l-4.08,1.09c-.47,.13-.85,.48-1.02,.94l-1.42,3.98c-.41,1.16-1.98,1.34-2.65,.31l-2.29-3.55c-.27-.41-.72-.66-1.2-.68l-4.22-.12c-1.23-.03-1.89-1.47-1.11-2.42l2.66-3.28c.31-.38,.41-.89,.27-1.36l-1.19-4.05c-.35-1.18,.81-2.25,1.96-1.8l3.94,1.52c.46,.18,.97,.12,1.37-.16Z"/>
  <path class="cls-39" d="M772.31,657.86l3.49-2.38c1.02-.7,2.39,.08,2.32,1.31l-.23,4.22c-.03,.49,.19,.96,.58,1.26l3.34,2.58c.98,.75,.66,2.3-.52,2.61l-4.08,1.09c-.47,.13-.85,.48-1.02,.94l-1.42,3.98c-.41,1.16-1.98,1.34-2.65,.31l-2.29-3.55c-.27-.41-.72-.66-1.2-.68l-4.22-.12c-1.23-.03-1.89-1.47-1.11-2.42l2.66-3.28c.31-.38,.41-.89,.27-1.36l-1.19-4.05c-.35-1.18,.81-2.25,1.96-1.8l3.94,1.52c.46,.18,.97,.12,1.37-.16Z"/>
  <path class="cls-39" d="M743.1,641.81l3.49-2.38c1.02-.7,2.39,.08,2.32,1.31l-.23,4.22c-.03,.49,.19,.96,.58,1.26l3.34,2.58c.98,.75,.66,2.3-.52,2.61l-4.08,1.09c-.47,.13-.85,.48-1.02,.94l-1.42,3.98c-.41,1.16-1.98,1.34-2.65,.31l-2.29-3.55c-.27-.41-.72-.66-1.2-.68l-4.22-.12c-1.23-.03-1.89-1.47-1.11-2.42l2.66-3.28c.31-.38,.41-.89,.27-1.36l-1.19-4.05c-.35-1.18,.81-2.25,1.96-1.8l3.94,1.52c.46,.18,.97,.12,1.37-.16Z"/>
  <path class="cls-39" d="M759.04,605.85l3.49-2.38c1.02-.7,2.39,.08,2.32,1.31l-.23,4.22c-.03,.49,.19,.96,.58,1.26l3.34,2.58c.98,.75,.66,2.3-.52,2.61l-4.08,1.09c-.47,.13-.85,.48-1.02,.94l-1.42,3.98c-.41,1.16-1.98,1.34-2.65,.31l-2.29-3.55c-.27-.41-.72-.66-1.2-.68l-4.22-.12c-1.23-.03-1.89-1.47-1.11-2.42l2.66-3.28c.31-.38,.41-.89,.27-1.36l-1.19-4.05c-.35-1.18,.81-2.25,1.96-1.8l3.94,1.52c.46,.18,.97,.12,1.37-.16Z"/>
  <path class="cls-39" d="M788.95,623.6l3.49-2.38c1.02-.7,2.39,.08,2.32,1.31l-.23,4.22c-.03,.49,.19,.96,.58,1.26l3.34,2.58c.98,.75,.66,2.3-.52,2.61l-4.08,1.09c-.47,.13-.85,.48-1.02,.94l-1.42,3.98c-.41,1.16-1.98,1.34-2.65,.31l-2.29-3.55c-.27-.41-.72-.66-1.2-.68l-4.22-.12c-1.23-.03-1.89-1.47-1.11-2.42l2.66-3.28c.31-.38,.41-.89,.27-1.36l-1.19-4.05c-.35-1.18,.81-2.25,1.96-1.8l3.94,1.52c.46,.18,.97,.12,1.37-.16Z"/>
  <path class="cls-39" d="M831.54,638.81l3.49-2.38c1.02-.7,2.39,.08,2.32,1.31l-.23,4.22c-.03,.49,.19,.96,.58,1.26l3.34,2.58c.98,.75,.66,2.3-.52,2.61l-4.08,1.09c-.47,.13-.85,.48-1.02,.94l-1.42,3.98c-.41,1.16-1.98,1.34-2.65,.31l-2.29-3.55c-.27-.41-.72-.66-1.2-.68l-4.22-.12c-1.23-.03-1.89-1.47-1.11-2.42l2.66-3.28c.31-.38,.41-.89,.27-1.36l-1.19-4.05c-.35-1.18,.81-2.25,1.96-1.8l3.94,1.52c.46,.18,.97,.12,1.37-.16Z"/>
  <path class="cls-39" d="M829.74,578.1s-19.79,25.11-7.6,31.77c0,0,54.15,3.7,86.88-40.71l6.34,6.34s-38.03,30.35-64.39,37.97c0,0-33.91,11.11-36.31-7.48,0,0,.28-17.74,11.09-27.44l3.99-.44Z"/>
  <g>
    <path class="cls-43" d="M566.68,1001.11c1.77-11.51,5.65-22.52,13.2-30.07l-200.07,5.95s-81.89,8.87-105.71-31.62c-23.82-40.49-35.04-107.57-1.86-164.06,0,0,81.02,32.18,244.18-60.71l124.21,32.5s188.16,27.39,185.78,160.77c-.7,39.01-1.8,66.92-3.01,86.88"/>
    <path class="cls-35" d="M501.08,224.24s-19.19,51.97-44.23,72.99c0,0,50.83,175.69,135.05,59.92,0,0-4.02-20.57-.62-32.96,0,0,25.49-13.01,24.03-28.07,0,0-83.74-21.84-114.23-71.89Z"/>
    <path class="cls-35" d="M515.76,171s5.65-56.33,42.24-80.17c22.34-14.55,62.4-6.17,101.73,3.01,0,0,81.58,26.86,30.14,123.79,0,0-7.54,8.95-7.46,18.25,0,0,.88,18-19.01,48.18-26.51,40.22-49.16,35.1-49.16,35.1,0,0-6.07,11.88-31.38,4.19,0,0-23.59-2.61-41.7-23.8,0,0-49.97-47.05-36.77-78.65,0,0-27.92,6.58-26.88-35.42,0,0,7.63-71.19,38.23-14.49Z"/>
    <path class="cls-30" d="M570.45,254.56s26.81-.37,35,11.35c0,0,8.87-4.71,26.44,9.06,0,0-7.12,29.52-36.81,19.9-33.9-10.99-24.64-40.3-24.64-40.3Z"/>
    <path class="cls-25" d="M574.1,259.17s-2.78,19.91,20.63,27.74c23.41,7.83,32.02-10.43,32.02-10.43,0,0-37.11-16.19-52.66-17.31Z"/>
    <path class="cls-38" d="M622.57,176.72s-32.03-23.19-52.41-16.99c0,0,18.53-14.61,56.17,8.75,0,0,5.37,7.87-3.75,8.24Z"/>
    <path class="cls-9" d="M641.02,231.33s8.5,29.68-21.02,23.3"/>
    <path class="cls-21" d="M580.17,260.1s3.66,7.49,21.58,13.71c16.5,5.73,23.1,1.76,23.1,1.76,0,0-23.44-11.05-44.68-15.47Z"/>
    <path class="cls-9" d="M485.06,171.2s15.97-20,21.59,22.33c0,0-9.62-21-16.75-7.98"/>
    <path class="cls-1" d="M566.16,173.96l2.53,32.05s14.18,14.46,38.81,15.78l20.73-23.65s-26.32-24.64-62.07-24.18Z"/>
    <path class="cls-16" d="M585.79,330.99c29.87,12.7,65.63,29.51,65.63,29.51,37.9,23.94,56.76,104.81,56.76,104.81l16.71,158.37s3.89,26.25-77.79,37.92c0,0-3.57,69.01-7.78,99.18-1.55,11.15-.03,11.7-16.4,16.25-17.73,4.92,13.52-.21-71.77,17.74,0,0-24.17-71.99-34.73-69.47,0,0,4.61,78.71-11.26,80.73-139.87,17.84-232.91-24.71-232.91-24.71,23.47-107.76,2.92-229.59,2.92-229.59-2.78-85.26,16.06-131.87,16.06-131.87,14.87-36.69,37.69-62.03,37.69-62.03,41.48-44.19,127.94-60.59,127.94-60.59,0,0,93.98,173.33,128.94,33.75"/>
    <path class="cls-49" d="M591.69,323.62s-4.88,.53-9.21-1.4c0,0-36.54-5.45-61.52-47.71,0,0,6.21,14.82,23.69,32.59,0,0,13.67,14.52,45.78,21.14,0,0,.57-2.82,1.26-4.63Z"/>
    <path class="cls-4" d="M584.75,97.87s50.11,40.28,90.31,22.74c0,0,6.61,23.06,29.68,55.88,0,0,.57,16.57-22.04,48.25,0,0,2.4,31.07-24.73,63.01,0,0-22.82,28.72-43.72,31.39,0,0-10.84,6.08-22.97,5.04,0,0-4.72,12.94,4.56,14.69,0,0,1.36-7.27,7.08-8.57,0,0,85.81-5.3,110.32-131.01,0,0,57.4-44.88,17.03-94.85-18.24-22.58-26.29-75.79-91.18-64.43,0,0-66.85-57.87-110.28,11.49,0,0-90.76,.27-68.54,119.28,0,0-23.91,31.2,1.75,67.41,2.96,4.18,6.84,20.6-5.35,39.78-3.29,5.17,15.25-1.65,23.19-11.23,0,0,14.36-17.21,24.54-45.87,0,0-29.02,1.23-25.84-29.97,0,0-.68-35.38,12.38-37.74,0,0,14.52-2.09,23.85,17.49,0,0,53.29,7.01,69.95-72.81Z"/>
    <path class="cls-38" d="M700.65,190.32c-.26-2.16-18.86-7.91-37.02-9.21,0,0-9.09,3.27-1.82,9,0,0,34.08-2.08,36.13,9.33,0,0,3.35-3.78,2.71-9.12Z"/>
    <path class="cls-1" d="M638.91,199.95l2.53,32.05s12.87,11.44,37.5,12.77l19.06-27.3s-23.33-17.99-59.08-17.52Z"/>
    <path class="cls-1" d="M638.91,199.95s-4.35-7.82-10.68-1.81"/>
    <line class="cls-1" x1="566.16" y1="173.96" x2="501.48" y2="152.67"/>
    <path class="cls-3" d="M594.24,136.97s24.97,9.63,36.41,15.62c11.44,5.99,49.16,6,49.16,6"/>
    <g>
      <path class="cls-13" d="M543.95,908.22c0,5.09-4.12,9.21-9.21,9.21-5.09,0-9.21-4.12-9.21-9.21,0-5.09,4.12-9.21,9.21-9.21s9.21,4.12,9.21,9.21Z"/>
      <path class="cls-13" d="M537.46,941.86c0,5.09-4.12,9.21-9.21,9.21-5.09,0-9.21-4.12-9.21-9.21,0-5.09,4.12-9.21,9.21-9.21,5.09,0,9.21,4.12,9.21,9.21Z"/>
      <circle class="cls-13" cx="542.63" cy="926.87" r="9.21"/>
      <circle class="cls-13" cx="509.94" cy="931.74" r="9.21"/>
      <circle class="cls-13" cx="515.68" cy="913.1" r="9.21"/>
    </g>
    <g>
      <path class="cls-13" d="M437.64,906.71c0,5.09-4.12,9.21-9.21,9.21-5.09,0-9.21-4.12-9.21-9.21,0-5.09,4.12-9.21,9.21-9.21s9.21,4.12,9.21,9.21Z"/>
      <path class="cls-13" d="M431.15,940.35c0,5.09-4.12,9.21-9.21,9.21-5.09,0-9.21-4.12-9.21-9.21,0-5.09,4.12-9.21,9.21-9.21,5.09,0,9.21,4.12,9.21,9.21Z"/>
      <path class="cls-13" d="M445.53,925.36c0,5.09-4.12,9.21-9.21,9.21-5.09,0-9.21-4.12-9.21-9.21,0-5.09,4.12-9.21,9.21-9.21,5.09,0,9.21,4.12,9.21,9.21Z"/>
      <circle class="cls-13" cx="403.63" cy="930.23" r="9.21"/>
      <circle class="cls-13" cx="409.38" cy="911.59" r="9.21"/>
    </g>
    <g>
      <path class="cls-13" d="M701.35,924.48c0,5.09-4.12,9.21-9.21,9.21-5.09,0-9.21-4.12-9.21-9.21,0-5.09,4.12-9.21,9.21-9.21s9.21,4.12,9.21,9.21Z"/>
      <circle class="cls-13" cx="685.65" cy="958.12" r="9.21"/>
      <circle class="cls-13" cx="700.03" cy="943.13" r="9.21"/>
      <path class="cls-13" d="M676.55,948c0,5.09-4.12,9.21-9.21,9.21-5.09,0-9.21-4.12-9.21-9.21,0-5.09,4.12-9.21,9.21-9.21,5.09,0,9.21,4.12,9.21,9.21Z"/>
      <circle class="cls-13" cx="673.09" cy="929.36" r="9.21"/>
    </g>
    <g>
      <path class="cls-13" d="M783,938.86c0,5.09-4.12,9.21-9.21,9.21-5.09,0-9.21-4.12-9.21-9.21,0-5.09,4.12-9.21,9.21-9.21,5.09,0,9.21,4.12,9.21,9.21Z"/>
      <path class="cls-13" d="M776.51,972.5c0,5.09-4.12,9.21-9.21,9.21-5.09,0-9.21-4.12-9.21-9.21,0-5.09,4.12-9.21,9.21-9.21,5.09,0,9.21,4.12,9.21,9.21Z"/>
      <path class="cls-13" d="M790.89,957.52c0,5.09-4.12,9.21-9.21,9.21-5.09,0-9.21-4.12-9.21-9.21,0-5.09,4.12-9.21,9.21-9.21,5.09,0,9.21,4.12,9.21,9.21Z"/>
      <circle class="cls-13" cx="748.99" cy="962.39" r="9.21"/>
      <circle class="cls-13" cx="754.74" cy="943.74" r="9.21"/>
    </g>
    <g>
      <circle class="cls-13" cx="567.77" cy="822.15" r="9.21"/>
      <path class="cls-13" d="M570.49,855.79c0,5.09-4.12,9.21-9.21,9.21-5.09,0-9.21-4.12-9.21-9.21s4.12-9.21,9.21-9.21c5.09,0,9.21,4.12,9.21,9.21Z"/>
      <path class="cls-13" d="M584.86,840.81c0,5.09-4.12,9.21-9.21,9.21-5.09,0-9.21-4.12-9.21-9.21,0-5.09,4.12-9.21,9.21-9.21,5.09,0,9.21,4.12,9.21,9.21Z"/>
      <circle class="cls-13" cx="542.96" cy="845.68" r="9.21"/>
      <path class="cls-13" d="M557.92,827.04c0,5.09-4.12,9.21-9.21,9.21-5.09,0-9.21-4.12-9.21-9.21,0-5.09,4.12-9.21,9.21-9.21,5.09,0,9.21,4.12,9.21,9.21Z"/>
    </g>
    <g>
      <circle class="cls-13" cx="680.55" cy="808.41" r="9.21"/>
      <circle class="cls-13" cx="674.06" cy="842.05" r="9.21"/>
      <path class="cls-13" d="M697.64,827.07c0,5.09-4.12,9.21-9.21,9.21-5.09,0-9.21-4.12-9.21-9.21,0-5.09,4.12-9.21,9.21-9.21,5.09,0,9.21,4.12,9.21,9.21Z"/>
      <circle class="cls-13" cx="655.74" cy="831.94" r="9.21"/>
      <path class="cls-13" d="M670.7,813.3c0,5.09-4.12,9.21-9.21,9.21-5.09,0-9.21-4.12-9.21-9.21,0-5.09,4.12-9.21,9.21-9.21,5.09,0,9.21,4.12,9.21,9.21Z"/>
    </g>
    <g>
      <circle class="cls-13" cx="624.22" cy="878.3" r="9.21"/>
      <path class="cls-13" d="M626.95,911.94c0,5.09-4.12,9.21-9.21,9.21-5.09,0-9.21-4.12-9.21-9.21s4.12-9.21,9.21-9.21c5.09,0,9.21,4.12,9.21,9.21Z"/>
      <path class="cls-13" d="M641.32,896.95c0,5.09-4.12,9.21-9.21,9.21-5.09,0-9.21-4.12-9.21-9.21,0-5.09,4.12-9.21,9.21-9.21,5.09,0,9.21,4.12,9.21,9.21Z"/>
      <circle class="cls-13" cx="599.42" cy="901.82" r="9.21"/>
      <path class="cls-13" d="M614.38,883.18c0,5.09-4.12,9.21-9.21,9.21-5.09,0-9.21-4.12-9.21-9.21,0-5.09,4.12-9.21,9.21-9.21s9.21,4.12,9.21,9.21Z"/>
    </g>
    <g>
      <path class="cls-13" d="M788.5,844.51c0,5.09-4.12,9.21-9.21,9.21-5.09,0-9.21-4.12-9.21-9.21,0-5.09,4.12-9.21,9.21-9.21,5.09,0,9.21,4.12,9.21,9.21Z"/>
      <circle class="cls-13" cx="772.81" cy="878.15" r="9.21"/>
      <circle class="cls-13" cx="787.18" cy="863.17" r="9.21"/>
      <path class="cls-13" d="M763.7,868.04c0,5.09-4.12,9.21-9.21,9.21-5.09,0-9.21-4.12-9.21-9.21s4.12-9.21,9.21-9.21c5.09,0,9.21,4.12,9.21,9.21Z"/>
      <circle class="cls-13" cx="760.24" cy="849.39" r="9.21"/>
    </g>
    <g>
      <path class="cls-13" d="M305.14,822.15c0,5.09-4.12,9.21-9.21,9.21-5.09,0-9.21-4.12-9.21-9.21,0-5.09,4.12-9.21,9.21-9.21,5.09,0,9.21,4.12,9.21,9.21Z"/>
      <circle class="cls-13" cx="289.44" cy="855.79" r="9.21"/>
      <path class="cls-13" d="M313.02,840.81c0,5.09-4.12,9.21-9.21,9.21-5.09,0-9.21-4.12-9.21-9.21,0-5.09,4.12-9.21,9.21-9.21,5.09,0,9.21,4.12,9.21,9.21Z"/>
      <path class="cls-13" d="M280.33,845.68c0,5.09-4.12,9.21-9.21,9.21-5.09,0-9.21-4.12-9.21-9.21,0-5.09,4.12-9.21,9.21-9.21,5.09,0,9.21,4.12,9.21,9.21Z"/>
      <circle class="cls-13" cx="276.87" cy="827.04" r="9.21"/>
    </g>
    <g>
      <circle class="cls-13" cx="473.69" cy="830.49" r="9.21"/>
      <path class="cls-13" d="M476.41,864.13c0,5.09-4.12,9.21-9.21,9.21-5.09,0-9.21-4.12-9.21-9.21s4.12-9.21,9.21-9.21c5.09,0,9.21,4.12,9.21,9.21Z"/>
      <circle class="cls-13" cx="481.57" cy="849.15" r="9.21"/>
      <circle class="cls-13" cx="448.88" cy="854.02" r="9.21"/>
      <path class="cls-13" d="M463.84,835.37c0,5.09-4.12,9.21-9.21,9.21-5.09,0-9.21-4.12-9.21-9.21,0-5.09,4.12-9.21,9.21-9.21,5.09,0,9.21,4.12,9.21,9.21Z"/>
    </g>
    <g>
      <circle class="cls-13" cx="315.19" cy="909.11" r="9.21"/>
      <path class="cls-13" d="M317.91,942.75c0,5.09-4.12,9.21-9.21,9.21-5.09,0-9.21-4.12-9.21-9.21,0-5.09,4.12-9.21,9.21-9.21,5.09,0,9.21,4.12,9.21,9.21Z"/>
      <circle class="cls-13" cx="323.07" cy="927.77" r="9.21"/>
      <path class="cls-13" d="M299.6,932.64c0,5.09-4.12,9.21-9.21,9.21-5.09,0-9.21-4.12-9.21-9.21,0-5.09,4.12-9.21,9.21-9.21,5.09,0,9.21,4.12,9.21,9.21Z"/>
      <path class="cls-13" d="M305.34,914c0,5.09-4.12,9.21-9.21,9.21-5.09,0-9.21-4.12-9.21-9.21,0-5.09,4.12-9.21,9.21-9.21,5.09,0,9.21,4.12,9.21,9.21Z"/>
    </g>
    <g>
      <path class="cls-13" d="M385.24,834.38c0,5.09-4.12,9.21-9.21,9.21-5.09,0-9.21-4.12-9.21-9.21,0-5.09,4.12-9.21,9.21-9.21,5.09,0,9.21,4.12,9.21,9.21Z"/>
      <path class="cls-13" d="M378.75,868.02c0,5.09-4.12,9.21-9.21,9.21-5.09,0-9.21-4.12-9.21-9.21,0-5.09,4.12-9.21,9.21-9.21s9.21,4.12,9.21,9.21Z"/>
      <path class="cls-13" d="M393.13,853.04c0,5.09-4.12,9.21-9.21,9.21-5.09,0-9.21-4.12-9.21-9.21,0-5.09,4.12-9.21,9.21-9.21,5.09,0,9.21,4.12,9.21,9.21Z"/>
      <circle class="cls-13" cx="351.23" cy="857.91" r="9.21"/>
      <path class="cls-13" d="M366.19,839.26c0,5.09-4.12,9.21-9.21,9.21-5.09,0-9.21-4.12-9.21-9.21,0-5.09,4.12-9.21,9.21-9.21,5.09,0,9.21,4.12,9.21,9.21Z"/>
    </g>
    <path class="cls-14" d="M603.77,195.72s-3.86-19.18-23.97-10.42"/>
    <path class="cls-7" d="M428.64,472.87s14.76,92.62-.59,118.94"/>
    <path class="cls-7" d="M275.16,551.72s7.82,62.95,17.32,65.87"/>
    <path class="cls-7" d="M647.09,661.59s12.65-97.37-2.59-150.71"/>
    <path class="cls-5" d="M552.38,445.33c0,6.7-5.43,12.13-12.13,12.13-6.7,0-12.13-5.43-12.13-12.13,0-6.7,5.43-12.13,12.13-12.13s12.13,5.43,12.13,12.13Z"/>
    <circle class="cls-5" cx="543.52" cy="536.09" r="12.13"/>
    <circle class="cls-5" cx="542.69" cy="631.43" r="12.13"/>
    <g>
      <path class="cls-35" d="M300.89,617.6c20.47,66.89,72.01,102.88,72.01,102.88,90.71,33.77,244.02,1.21,244.02,1.21,0,0,50.73,17.47,81.01,9.32,0,0-2.1,15.58,6.64,16.94,0,0,4.55,.39,13.29-12.6,0,0,7.39,8.12,15.04-11.53,0,0,9.49,8.6,15.11-7.1l1.72-9.32s9.6,9.07,13.49,4.67c3.89-4.4-4.29-15.79-4.29-15.79,0,0-6.35-20.24-17.43-21.04-11.08-.8-37.59-10.25-37.59-10.25l-76.3,12.91s-133.17-34.1-179.67-32.02c0,0-13.3-36.7-26.4-46.05"/>
      <path class="cls-12" d="M749.73,707.39s-3.79-18.51-9.35-22.67c-5.57-4.16-16.24-8.39-16.24-8.39"/>
      <path class="cls-12" d="M732.9,723.81s2.16-23.31-13.06-31.69"/>
      <path class="cls-12" d="M717.86,735.34s9.71-24.99-.78-27.41c-10.49-2.42-28.38,1.46-28.38,1.46"/>
    </g>
    <g>
      <path class="cls-21" d="M579.52,187.07s.19-.69,.86-1.13c2.23-1.43,7.15-3.9,13.31-2.18,6.9,1.93,8.88,9.47,9.53,12.14,.11,.46,0,.81,0,.81,0,0-.08,.39-.39,.6-1.46,.97-6.12,3.51-12.68,1.78-3.9-1.03-8.78-4.64-10.68-10.86-.13-.43-.02-.91,.06-1.15Z"/>
      <circle class="cls-49" cx="593.41" cy="192.27" r="7.4"/>
      <circle class="cls-21" cx="591.79" cy="187.01" r="2.03"/>
      <path class="cls-14" d="M603.64,196.03s-3.79-18.81-23.51-10.22"/>
    </g>
    <g>
      <path class="cls-21" d="M655.33,215.14s.08-.67,.64-1.17c1.87-1.65,6.09-4.65,12.06-3.93,6.69,.81,9.62,7.53,10.6,9.93,.17,.41,.11,.75,.11,.75,0,0-.02,.38-.28,.61-1.22,1.11-5.19,4.14-11.54,3.47-3.78-.4-8.83-3.06-11.49-8.57-.19-.38-.15-.84-.11-1.08Z"/>
      <circle class="cls-49" cx="668.99" cy="217.97" r="6.94"/>
      <circle class="cls-21" cx="667.19" cy="213.2" r="1.94"/>
      <path class="cls-14" d="M678.72,220.2s-5.59-17.84-22.99-5.99"/>
    </g>
  </g>
  <path class="cls-47" d="M967.86,462.67s7.07,28.82-13.65,55.25c0,0-8.93-12.42-27.23,4.52,0,0-13.79-25.86,4.38-80.9,0,0-52.8-6.23-73.52-29.38,0,0-18.12,5.45-28.63,31.33l-7.68,14.7c11.01-48.57,39-61.53,39-61.53,49.49-23.64,86.72,11.13,93.01,22.38,0,0,25.2-15.9,42.47,12.94,0,0,10.26,13.42,2.43,24.09,0,0,27.99-1.27,20.52,28.7,0,0,16.51,14.19-3.17,31.77,0,0,6.15,18.84-14.39,23.71,0,0-23.45,6.47-24.39-14.11,0,0-19.55,2.49-11.81-13.35,0,0-17.99-5.27-12.56-20.95,5.43-15.68,15.23-29.15,15.23-29.15Z"/>
  <g>
    <path class="cls-21" d="M890.88,496.72s.22-.48,.04-1.04c-.59-1.85-2.21-5.54-6.5-7.44-4.79-2.13-9.44,1.2-11.05,2.41-.28,.21-.37,.46-.37,.46,0,0-.14,.26-.06,.52,.37,1.23,1.82,4.84,6.33,6.93,2.68,1.24,7.12,1.47,11.1-1.15,.28-.18,.43-.5,.5-.68Z"/>
    <circle class="cls-49" cx="880.62" cy="493.18" r="5.42"/>
    <circle class="cls-21" cx="882.84" cy="497.53" r="1.49"/>
    <path class="cls-3" d="M873.08,490.53s10.92-8.85,18.05,5.2"/>
  </g>
  <g>
    <path class="cls-21" d="M839.36,477.16s.27-.41,.18-.95c-.28-1.78-1.25-5.39-4.91-7.74-4.1-2.63-8.82-.23-10.47,.65-.28,.15-.41,.37-.41,.37,0,0-.16,.22-.13,.47,.17,1.18,.99,4.7,4.83,7.24,2.29,1.52,6.32,2.36,10.34,.51,.28-.13,.47-.4,.56-.55Z"/>
    <circle class="cls-49" cx="830.45" cy="472.45" r="5.01"/>
    <circle class="cls-21" cx="832.56" cy="475.76" r="1.4"/>
    <path class="cls-3" d="M824,469.22s11.32-7.36,15.56,7.24"/>
  </g>
  <polyline class="cls-12" points="646.93 674.17 691.66 665.76 734.37 673.83"/>
</svg>