<?xml version="1.0" encoding="UTF-8"?>
<svg xmlns="http://www.w3.org/2000/svg" xmlns:xlink="http://www.w3.org/1999/xlink" viewBox="0 0 2598.87 1943.91">
  <defs>
    <style>
      .cls-1, .cls-2, .cls-3, .cls-4, .cls-5, .cls-6, .cls-7, .cls-8, .cls-9, .cls-10, .cls-11, .cls-12, .cls-13, .cls-14, .cls-15, .cls-16 {
        fill: none;
      }

      .cls-2 {
        stroke-width: 3px;
      }

      .cls-2, .cls-3, .cls-4, .cls-17, .cls-18, .cls-19, .cls-6, .cls-7, .cls-8, .cls-9, .cls-10, .cls-11, .cls-12, .cls-13, .cls-14, .cls-15, .cls-16 {
        stroke-miterlimit: 10;
      }

      .cls-2, .cls-5 {
        stroke: #6d6e71;
        stroke-linecap: round;
      }

      .cls-20 {
        clip-path: url(#clippath);
      }

      .cls-3, .cls-4 {
        stroke-width: .8px;
      }

      .cls-3, .cls-10 {
        stroke: #c16b7b;
      }

      .cls-4, .cls-7, .cls-12 {
        stroke: #231f20;
      }

      .cls-21 {
        fill: #f7daa6;
      }

      .cls-22 {
        fill: #f9b617;
      }

      .cls-23 {
        fill: #006838;
      }

      .cls-24 {
        fill: #f08360;
      }

      .cls-25 {
        fill: #ec6b8a;
      }

      .cls-26, .cls-17 {
        fill: #e6e7e8;
      }

      .cls-27, .cls-28 {
        fill: #fff;
      }

      .cls-29 {
        fill: #803435;
      }

      .cls-30 {
        fill: #9ecb54;
      }

      .cls-31 {
        fill: #b56e5b;
      }

      .cls-32 {
        fill: #8b5e3c;
      }

      .cls-33 {
        fill: #9054a2;
      }

      .cls-34 {
        fill: #8daf94;
      }

      .cls-35 {
        fill: #8dd5e7;
      }

      .cls-36 {
        fill: #ba9777;
      }

      .cls-37, .cls-18 {
        fill: #a97c50;
      }

      .cls-38 {
        fill: #bcbec0;
      }

      .cls-39 {
        fill: #a7a9ac;
      }

      .cls-40, .cls-19 {
        fill: #be9e7d;
      }

      .cls-41 {
        fill: #be8c8c;
      }

      .cls-42 {
        fill: #d2d292;
      }

      .cls-43 {
        fill: #d1d3d4;
      }

      .cls-44 {
        fill: #dcbf97;
      }

      .cls-45 {
        fill: #231f20;
      }

      .cls-46 {
        fill: #092f44;
      }

      .cls-47 {
        fill: #6ca442;
      }

      .cls-48 {
        fill: #288348;
      }

      .cls-49 {
        fill: #3c2415;
      }

      .cls-50 {
        fill: #3aa362;
      }

      .cls-51 {
        fill: #608bc0;
      }

      .cls-52 {
        fill: #26130f;
      }

      .cls-17 {
        stroke: #58595b;
        stroke-width: .2px;
      }

      .cls-18, .cls-19, .cls-12, .cls-13, .cls-14, .cls-15, .cls-16 {
        stroke-width: .5px;
      }

      .cls-18, .cls-11, .cls-16 {
        stroke: #a97c50;
      }

      .cls-19 {
        stroke: #754c29;
      }

      .cls-5 {
        stroke-linejoin: round;
        stroke-width: 10px;
      }

      .cls-6 {
        stroke: #fbb040;
        stroke-width: 2px;
      }

      .cls-8 {
        stroke: #662d91;
      }

      .cls-9 {
        stroke: #517569;
      }

      .cls-28 {
        opacity: .8;
      }

      .cls-13 {
        stroke: #fff;
      }

      .cls-14 {
        stroke: #cfb637;
      }

      .cls-15 {
        stroke: #603913;
      }
    </style>
    <clipPath id="clippath">
      <rect class="cls-1" x="1260.37" y="494.28" width="1334.39" height="1001.34"/>
    </clipPath>
  </defs>
  <g id="FONDO">
    <g class="cls-20">
      <g>
        <rect class="cls-35" x="2.89" width="2591.96" height="997.35"/>
        <path class="cls-28" d="M293.38,175.36l-107.62-2.13s-24.68-7.83-23.44-22.38c2.13-25.08,22.38-23.44,22.38-23.44,0,0,1.07-28.77,33.03-28.77,0,0,24.51-2.13,24.51,28.77,0,0,12.79-20.24,34.1-7.46,0,0,14.92,15.98,2.13,24.51,0,0,27.7-19.18,35.16,5.33,0,0,6.39,26.64-20.24,25.57"/>
        <path class="cls-28" d="M979.6,189.72l-174.18-3.45s-39.94-12.67-37.94-36.22c3.45-40.59,36.22-37.94,36.22-37.94,0,0,1.72-46.56,53.46-46.56,0,0,39.67-3.45,39.67,46.56,0,0,20.69-32.77,55.19-12.07,0,0,24.14,25.87,3.45,39.67,0,0,44.84-31.04,56.91,8.62,0,0,10.35,43.11-32.77,41.39"/>
        <path class="cls-27" d="M384,199.34l-84.35-1.67s-19.34-6.14-18.37-17.54c1.67-19.65,17.54-18.37,17.54-18.37,0,0,.84-22.55,25.89-22.55,0,0,19.21-1.67,19.21,22.55,0,0,10.02-15.87,26.72-5.85,0,0,11.69,12.53,1.67,19.21,0,0,21.71-15.03,27.56,4.18,0,0,5.01,20.88-15.87,20.04"/>
        <path class="cls-28" d="M1353.85,101.06l-107.62-2.13s-24.68-7.83-23.44-22.38c2.13-25.08,22.38-23.44,22.38-23.44,0,0,1.07-28.77,33.03-28.77,0,0,24.51-2.13,24.51,28.77,0,0,12.79-20.24,34.1-7.46,0,0,14.92,15.98,2.13,24.51,0,0,27.7-19.18,35.16,5.33,0,0,6.39,26.64-20.24,25.57"/>
        <path class="cls-28" d="M2462.66,202.03l-107.62-2.13s-24.68-7.83-23.44-22.38c2.13-25.08,22.38-23.44,22.38-23.44,0,0,1.07-28.77,33.03-28.77,0,0,24.51-2.13,24.51,28.77,0,0,12.79-20.24,34.1-7.46,0,0,14.92,15.98,2.13,24.51,0,0,27.7-19.18,35.16,5.33,0,0,6.39,26.64-20.24,25.57"/>
        <path class="cls-28" d="M2339.79,156.24l-131.41-2.6s-30.13-9.56-28.62-27.32c2.6-30.62,27.32-28.62,27.32-28.62,0,0,1.3-35.13,40.33-35.13,0,0,29.92-2.6,29.92,35.13,0,0,15.61-24.72,41.63-9.11,0,0,18.22,19.52,2.6,29.92,0,0,33.83-23.42,42.94,6.51,0,0,7.81,32.53-24.72,31.23"/>
        <g>
          <rect class="cls-38" x="484.73" y="147.51" width="196.23" height="825.1"/>
          <rect class="cls-38" x="350.81" y="268.85" width="135.16" height="703.75"/>
          <polygon class="cls-39" points="746.93 972.6 679.49 972.6 679.49 147.51 746.93 155.35 746.93 972.6"/>
          <rect class="cls-26" x="504.08" y="170.01" width="160.87" height="17.24"/>
          <rect class="cls-26" x="504.08" y="194.42" width="160.87" height="17.24"/>
          <rect class="cls-26" x="504.08" y="220.28" width="160.87" height="17.24"/>
          <rect class="cls-26" x="504.08" y="246.13" width="160.87" height="17.24"/>
          <rect class="cls-26" x="367.42" y="293.13" width="297.54" height="17.24"/>
          <rect class="cls-26" x="367.42" y="317.55" width="297.54" height="17.24"/>
          <rect class="cls-26" x="367.42" y="343.4" width="297.54" height="17.24"/>
          <rect class="cls-26" x="367.42" y="369.26" width="297.54" height="17.24"/>
          <rect class="cls-26" x="367.42" y="426.1" width="297.54" height="17.24"/>
          <rect class="cls-26" x="367.42" y="450.52" width="297.54" height="17.24"/>
          <rect class="cls-26" x="367.42" y="476.38" width="297.54" height="17.24"/>
          <rect class="cls-26" x="367.42" y="502.23" width="297.54" height="17.24"/>
          <rect class="cls-26" x="367.42" y="550.21" width="297.54" height="17.24"/>
          <rect class="cls-26" x="367.42" y="574.63" width="297.54" height="17.24"/>
          <rect class="cls-26" x="367.42" y="600.49" width="297.54" height="17.24"/>
          <rect class="cls-26" x="367.42" y="626.34" width="297.54" height="17.24"/>
          <g>
            <rect class="cls-38" x="1478.45" y="144.55" width="150.6" height="825.1"/>
            <rect class="cls-26" x="1493.3" y="167.05" width="123.47" height="17.24"/>
            <rect class="cls-26" x="1493.3" y="191.46" width="123.47" height="17.24"/>
            <rect class="cls-26" x="1493.3" y="217.32" width="123.47" height="17.24"/>
            <rect class="cls-26" x="1493.3" y="243.17" width="123.47" height="17.24"/>
            <polygon class="cls-39" points="1696.39 970.53 1628.95 970.53 1628.95 145.44 1696.39 153.28 1696.39 970.53"/>
          </g>
          <rect class="cls-38" x="747.74" y="692.48" width="150.6" height="276.89"/>
          <rect class="cls-38" x="1021.69" y="692.48" width="150.6" height="276.89"/>
          <rect class="cls-38" x="60.48" y="213.76" width="186.89" height="755.62"/>
          <rect class="cls-38" x="1834.37" y="213.76" width="186.89" height="755.62"/>
        </g>
        <g>
          <polygon class="cls-34" points="2364.74 850.02 2361.48 972.1 2381.02 972.1 2381.02 851.65 2364.74 850.02"/>
          <polygon class="cls-34" points="2234.52 850.02 2232.89 972.1 2242.66 972.1 2242.66 851.65 2234.52 850.02"/>
          <polygon class="cls-34" points="2003.39 850.02 2001.76 972.1 2011.52 972.1 2011.52 851.65 2003.39 850.02"/>
          <polygon class="cls-34" points="1863.4 850.02 1861.77 972.1 1871.54 972.1 1871.54 851.65 1863.4 850.02"/>
          <polygon class="cls-34" points="1712.02 850.02 1710.4 972.1 1720.16 972.1 1720.16 851.65 1712.02 850.02"/>
          <polygon class="cls-34" points="1456.47 850.02 1454.84 972.1 1464.61 972.1 1464.61 851.65 1456.47 850.02"/>
          <polygon class="cls-34" points="1564.31 853.27 1561.46 975.35 1578.55 975.35 1578.55 854.9 1564.31 853.27"/>
          <polygon class="cls-34" points="1354.33 853.27 1351.49 975.35 1368.58 975.35 1368.58 854.9 1354.33 853.27"/>
          <polygon class="cls-34" points="433.45 853.27 430.61 975.35 447.7 975.35 447.7 854.9 433.45 853.27"/>
          <polygon class="cls-34" points="274.08 853.27 271.23 975.35 288.32 975.35 288.32 854.9 274.08 853.27"/>
          <polygon class="cls-34" points="180.62 853.27 177.77 975.35 194.86 975.35 194.86 854.9 180.62 853.27"/>
          <polygon class="cls-34" points="383.07 853.27 381.56 975.35 390.64 975.35 390.64 854.9 383.07 853.27"/>
          <polygon class="cls-34" points="51.54 853.27 50.02 975.35 59.1 975.35 59.1 854.9 51.54 853.27"/>
          <ellipse class="cls-34" cx="2384.27" cy="795.49" rx="131.84" ry="114.75"/>
          <ellipse class="cls-34" cx="1866.91" cy="787.09" rx="118.97" ry="114.75"/>
          <ellipse class="cls-34" cx="1717.21" cy="808.08" rx="118.97" ry="114.75"/>
          <ellipse class="cls-34" cx="557.29" cy="837.02" rx="118.97" ry="114.75"/>
          <ellipse class="cls-34" cx="701.26" cy="839.58" rx="79.85" ry="114.75"/>
          <ellipse class="cls-34" cx="437.32" cy="810.13" rx="87.85" ry="114.75"/>
          <ellipse class="cls-34" cx="1573.06" cy="799.69" rx="68.66" ry="114.75"/>
          <ellipse class="cls-34" cx="2059.75" cy="792.69" rx="154.28" ry="114.75"/>
          <path class="cls-34" d="M2595.26,943.82c-70.35,0-127.38-51.38-127.38-114.75s57.03-114.75,127.38-114.75"/>
          <ellipse class="cls-34" cx="2234.82" cy="778.7" rx="63.05" ry="114.75"/>
        </g>
        <polygon class="cls-48" points="1094.56 960.43 2595.26 969.54 2595.26 1937.38 500.01 1937.12 690.39 1105.07 1094.56 960.43"/>
        <polyline class="cls-48" points="714.2 963.03 2.23 964.69 1.53 1943.9 549.79 1943.91"/>
        <path class="cls-43" d="M553.35,1943.91S116.42,1577.24,116.42,1312.3c0,0,0-154.27,278.36-241.47,0,0,305.19-103.96,516.47-110.67h174.23s-375.27,69.43-431.56,136.97c-56.29,67.55-60.04,136.97,5.63,213.9,0,0,229.92,314.97,1611.13,632.86H553.35Z"/>
        <path class="cls-42" d="M96.05,1203.74s3.85-82.81,152.13-121.32c148.28-38.51,466.02-119.39,466.02-119.39h130.95s-367.98,69.95-527.64,136.72c-231.04,96.63-196.12,265.25-196.12,265.25,40.92,248.47,434.34,578.91,434.34,578.91H258.43s-98.79-146.89-135.37-191.18c-36.59-44.29-116.9-192.77-73.7-266.83,0,0,42.36-132.37,46.69-282.15Z"/>
        <rect class="cls-1" x="757.53" y="431.04" width="1073.66" height="1263.13"/>
        <g>
          <path class="cls-32" d="M2567.18,1002.89s-13.61-155.71-6.81-233.14l38.5-64.95-10.3-8.28-36.95,52.18-3.89-85.01h-14.58s3.89,138.03,3.89,138.03l-2.92,202.84s15.56,7.58,33.06-1.68Z"/>
          <path class="cls-48" d="M2596.39,704.8c-8.78,18.15-20.89,16.37-43.03,18.41-39.51,3.64-69.44-36.36-69.44-36.36-71.84,3.64-59.86-65.45-59.86-65.45-61.06-42.42-4.79-65.45-4.79-65.45-7.18-19.39,2.39-26.66,2.39-26.66-14.37-53.33,11.97-69.09,11.97-69.09-21.55-122.41,116.13-66.66,116.13-66.66,0,0-8.06-40.62,45.82-17.59l.8,328.85Z"/>
        </g>
        <path class="cls-42" d="M1085.47,960.17s-533.21,73.07-473.33,216.8c0,0-81.45,131.75,318.6,349.74s1208.19,417.21,1208.19,417.21h455.74l.59-101.47s-440.44-116.91-591.35-100.14c-150.91,16.77-627.61-148.52-627.61-148.52,0,0-419.21-134.15-476.7-258.71-57.49-124.56-225.17-138.94-170.08-210.8,55.1-71.86,455.74-161.29,455.74-161.29l-99.79-2.81Z"/>
        <path class="cls-23" d="M2057.91,1064.7s-509.75-6.51-813.43,10.85c-303.68,17.35,295,30.37,295,30.37,0,0,355.74,23.86,531.44,84.6,175.7,60.74-13.01-125.81-13.01-125.81Z"/>
        <g>
          <rect class="cls-47" x="905.24" y="364.16" width="612.38" height="388.47"/>
          <path class="cls-48" d="M1053.75,223.96s-39.96,49.59-1,71.22c38.97,21.63,51.65,5.94,51.65,5.94,0,0,15.43,63.11,84.16,59.05,0,0,37.85-6.11,41.24-53.36,0,0,26.86,48.04,71.66,36.93,44.81-11.11,27.31-40.2,27.31-40.2,0,0,42.84,4,48.79-50.8,0,0,35.48-36.37-9.74-67.49,0,0-20.39-79.52-84.84-47.71,0,0-8.11-16.43-28.38,3.01,0,0-31.3-41.13-65.57,4.07,0,0-48.26-53.19-81.97,5.88,0,0-70.56-6.04-53.32,73.47Z"/>
          <path class="cls-48" d="M1364.22,489.49s-39.96,49.59-1,71.22c38.97,21.63,51.65,5.94,51.65,5.94,0,0,15.43,63.11,84.16,59.05,0,0,37.85-6.11,41.24-53.36,0,0,26.86,48.04,71.66,36.93,44.81-11.11,27.31-40.2,27.31-40.2,0,0,42.84,4,48.79-50.8,0,0,35.48-36.37-9.74-67.49,0,0-20.39-79.52-84.84-47.71,0,0-8.11-16.43-28.38,3.01,0,0-31.3-41.13-65.57,4.07,0,0-48.26-53.19-81.97,5.88,0,0-70.56-6.04-53.32,73.47Z"/>
          <path class="cls-48" d="M805.05,337.61s-39.96,49.59-1,71.22c38.97,21.63,51.65,5.94,51.65,5.94,0,0,15.43,63.11,84.16,59.05,0,0,37.85-6.11,41.24-53.36,0,0,26.86,48.04,71.66,36.93,44.81-11.11,27.31-40.2,27.31-40.2,0,0,42.84,4,48.79-50.8,0,0,35.48-36.37-9.74-67.49,0,0-20.39-79.52-84.84-47.71,0,0-8.11-16.43-28.38,3.01,0,0-31.3-41.13-65.57,4.07,0,0-48.26-53.19-81.97,5.88,0,0-70.56-6.04-53.32,73.47Z"/>
          <path class="cls-48" d="M1128.27,873.89s-36.7,52.05,3.58,71.14c40.28,19.08,51.93,2.61,51.93,2.61,0,0,19.45,61.99,87.77,53.53,0,0,37.38-8.53,37.73-55.9,0,0,29.88,46.22,73.89,32.25,44-13.97,24.67-41.87,24.67-41.87,0,0,43.01,1.24,45.43-53.83,0,0,33.08-38.58-14.05-66.73,0,0-25.45-78.05-87.73-42.16,0,0-9.15-15.87-28.13,4.82,0,0-33.88-39.04-65.17,8.28,0,0-51.57-49.99-81.42,11.13,0,0-70.8-1.49-48.5,76.74Z"/>
          <path class="cls-30" d="M1330.76,718.4s-57.78,26.78-32.42,63.42c25.37,36.64,43.69,28.19,43.69,28.19,0,0-14.09,63.42,49.33,90.2,0,0,36.64,11.27,60.6-29.6,0,0,2.82,54.97,47.92,64.83,45.1,9.87,42.28-23.96,42.28-23.96,0,0,36.64,22.55,66.24-23.96,0,0,47.92-16.91,21.14-64.83,0,0,16.91-80.33-54.97-80.33,0,0,0-18.32-26.78-9.87,0,0-9.87-50.74-60.6-25.37,0,0-19.73-69.06-76.11-31.01,0,0-60.6-36.64-80.33,42.28Z"/>
          <path class="cls-50" d="M1362.62,570.91s-49.63,39.9-16.19,69.36c33.45,29.46,49.19,16.84,49.19,16.84,0,0,1.59,64.95,69.6,75.67,0,0,38.28,2.12,51.69-43.32,0,0,15.97,52.67,62.12,51.38,46.15-1.29,35.27-33.44,35.27-33.44,0,0,41,13.06,58.52-39.21,0,0,42.44-27.95,4.91-68.01,0,0-2.93-82.04-72.69-64.73,0,0-4.41-17.78-28.37-3.13,0,0-21.79-46.87-64.93-10.03,0,0-35.78-62.28-81.33-11.77,0,0-67.64-20.97-67.79,60.38Z"/>
          <path class="cls-30" d="M1354.36,400.95s-39.96,49.59-1,71.22c38.97,21.63,51.65,5.94,51.65,5.94,0,0,15.43,63.11,84.16,59.05,0,0,37.85-6.11,41.24-53.36,0,0,26.86,48.04,71.66,36.93,44.81-11.11,27.31-40.2,27.31-40.2,0,0,42.84,4,48.79-50.8,0,0,35.48-36.37-9.74-67.49,0,0-20.39-79.52-84.84-47.71,0,0-8.11-16.43-28.38,3.01,0,0-31.3-41.13-65.57,4.07,0,0-48.26-53.19-81.97,5.88,0,0-70.56-6.04-53.32,73.47Z"/>
          <path class="cls-50" d="M1113.92,306.86s-39.96,49.59-1,71.22c38.97,21.63,51.65,5.94,51.65,5.94,0,0,15.43,63.11,84.16,59.05,0,0,37.85-6.11,41.24-53.36,0,0,26.86,48.04,71.66,36.93,44.81-11.11,27.31-40.2,27.31-40.2,0,0,42.84,4,48.79-50.8,0,0,35.48-36.37-9.74-67.49,0,0-20.39-79.52-84.84-47.71,0,0-8.11-16.43-28.38,3.01,0,0-31.3-41.13-65.57,4.07,0,0-48.26-53.19-81.97,5.88,0,0-70.56-6.04-53.32,73.47Z"/>
          <path class="cls-50" d="M964.58,506.98s-39.96,49.59-1,71.22c38.97,21.63,51.65,5.94,51.65,5.94,0,0,15.43,63.11,84.16,59.05,0,0,37.85-6.11,41.24-53.36,0,0,26.86,48.04,71.66,36.93,44.81-11.11,27.31-40.2,27.31-40.2,0,0,42.84,4,48.79-50.8,0,0,35.48-36.37-9.74-67.49,0,0-20.39-79.52-84.84-47.71,0,0-8.11-16.43-28.38,3.01,0,0-31.3-41.13-65.57,4.07,0,0-48.26-53.19-81.97,5.88,0,0-70.56-6.04-53.32,73.47Z"/>
          <path class="cls-50" d="M765.69,811.75s-4.92,63.5,39.45,59.3c44.37-4.2,45.96-24.31,45.96-24.31,0,0,48.42,43.32,102.8,1.11,0,0,27.76-26.44,3.84-67.33,0,0,49.32,24.43,79.99-10.07,30.67-34.51-.21-48.6-.21-48.6,0,0,37.59-20.93,11.51-69.49,0,0,8.69-50.07-46.2-50.16,0,0-61.79-54.05-96.95,8.63,0,0-15.98-8.96-21.71,18.53,0,0-49.08-16.22-51.77,40.44,0,0-69.88-16.58-64.28,51.21,0,0-61.61,34.93-2.43,90.75Z"/>
          <path class="cls-30" d="M912.48,789.61s-43.18,46.82-5.73,70.99c37.44,24.18,51.14,9.36,51.14,9.36,0,0,11.2,64,80.04,64.52,0,0,38.17-3.58,44.7-50.5,0,0,23.6,49.72,69.05,41.61,45.45-8.11,29.92-38.29,29.92-38.29,0,0,42.48,6.84,52.07-47.44,0,0,37.83-33.93-5.22-67.99,0,0-15.05-80.7-81.48-53.25,0,0-7-16.93-28.52,1.11,0,0-28.5-43.12-65.7-.3,0,0-44.61-56.29-82.18,.41,0,0-70-10.72-58.09,69.76Z"/>
          <path class="cls-50" d="M720.28,660.02s-5.72,63.43,38.7,59.8c44.42-3.63,46.26-23.73,46.26-23.73,0,0,47.86,43.93,102.78,2.41,0,0,28.09-26.09,4.69-67.28,0,0,49,25.06,80.11-9.06,31.1-34.11,.41-48.6,.41-48.6,0,0,37.86-20.45,12.39-69.34,0,0,9.33-49.95-45.56-50.74,0,0-61.1-54.83-97.06,7.4,0,0-15.86-9.17-21.94,18.25,0,0-48.87-16.84-52.28,39.78,0,0-69.67-17.46-64.92,50.39,0,0-62.05,34.14-3.58,90.71Z"/>
          <path class="cls-47" d="M1066.43,622.82s-57.78,26.78-32.42,63.42c25.37,36.64,43.69,28.19,43.69,28.19,0,0-14.09,63.42,49.33,90.2,0,0,36.64,11.27,60.6-29.6,0,0,2.82,54.97,47.92,64.83,45.1,9.87,42.28-23.96,42.28-23.96,0,0,36.64,22.55,66.24-23.96,0,0,47.92-16.91,21.14-64.83,0,0,16.91-80.33-54.97-80.33,0,0,0-18.32-26.78-9.87,0,0-9.87-50.74-60.6-25.37,0,0-19.73-69.06-76.11-31.01,0,0-60.6-36.64-80.33,42.28Z"/>
          <path class="cls-47" d="M784.46,545.03s-5.72,63.43,38.7,59.8c44.42-3.63,46.26-23.73,46.26-23.73,0,0,47.86,43.93,102.78,2.41,0,0,28.09-26.09,4.69-67.28,0,0,49,25.06,80.11-9.06,31.1-34.11,.41-48.6,.41-48.6,0,0,37.86-20.45,12.39-69.34,0,0,9.33-49.95-45.56-50.74,0,0-61.1-54.83-97.06,7.4,0,0-15.86-9.17-21.94,18.25,0,0-48.87-16.84-52.28,39.78,0,0-69.67-17.46-64.92,50.39,0,0-62.05,34.14-3.58,90.71Z"/>
        </g>
        <g>
          <path class="cls-32" d="M2022.42,1138.88s20.2-231.1,10.1-346.03l-103.89-153.37,21.32-10.1,95.56,132.24,5.77-126.17h21.65l-5.77,204.87,4.33,301.06s-23.09,11.24-49.06-2.5Z"/>
          <path class="cls-47" d="M1686.96,616.51s-168.02,58.67-53.34,154.69c0,0,133.35,18.67,200.03-72.01,0,0,56.01,56.01,128.02,13.34,0,0,45.34,56.01,117.35,16,0,0,98.68,74.68,176.02,16,0,0,72.01,45.34,112.02,2.67,0,0,136.02,53.34,133.35-34.67-2.67-88.01-66.68-101.35-66.68-101.35,0,0,109.35-40.01,29.34-144.02-80.01-104.01-192.03-45.34-192.03-45.34l-584.08,194.69Z"/>
          <path class="cls-30" d="M1725.98,397.44s-79.48,60.21-72.26,139.7c7.23,79.48,50.58,144.51,183.05,93.93,0,0,96.34,108.39,303.48,28.9,0,0,161.37,69.85,207.14-38.54,45.76-108.39-38.54-91.53-38.54-91.53,0,0,110.79-276.98-132.47-233.63,0,0-31.31-52.99-137.29-24.09,0,0-14.45-19.27-52.99-4.82,0,0-45.76-113.2-130.06,9.63,0,0-137.29-24.09-130.06,120.43Z"/>
        </g>
        <g>
          <polyline class="cls-32" points="2.37 992.73 41.89 946.7 43.94 874.88 121.11 826.15 91.8 825.02 44.45 852.08 44.45 812.62 26.41 797.96 25.28 933.26 4.11 954.55"/>
          <rect class="cls-50" y="458.51" width="99.38" height="267.81"/>
          <path class="cls-48" d="M2.8,797.92c35.48,24.94,50.25,10.69,50.25,10.69,0,0,.9,91.6,96.55,108.13,0,0,53.93,3.78,73.78-60,0,0,21.42,74.59,86.51,73.74,65.09-.85,50.42-46.41,50.42-46.41,0,0,57.53,19.27,83.32-54.06,0,0,60.41-38.53,8.33-95.79,0,0-2.43-115.73-101.14-92.78,0,0-5.85-25.16-39.93-5,0,0-29.75-66.53-91.33-15.49,0,0-49.15-88.54-114.42-18.28,0,0-94.93-30.97-96.83,83.72,0,0-1.51,2.33-5.6,6.13"/>
          <path class="cls-48" d="M2.27,484.06c26.62,13.65,39.58,3.58,39.58,3.58,0,0,.9,91.6,96.55,108.13,0,0,53.93,3.78,73.78-60,0,0,21.42,74.59,86.51,73.74,65.09-.85,50.42-46.41,50.42-46.41,0,0,57.53,19.27,83.32-54.06,0,0,60.41-38.53,8.33-95.79,0,0-2.43-115.73-101.14-92.78,0,0-5.85-25.16-39.93-5,0,0-29.75-66.53-91.33-15.49,0,0-49.15-88.54-114.42-18.28,0,0-88.95-28.18-90.85,86.51"/>
          <path class="cls-47" d="M125.87,518.45s-70.81,55.23-24.27,97.45c46.54,42.22,69,24.76,69,24.76,0,0,.9,91.6,96.55,108.13,0,0,53.93,3.78,73.78-60,0,0,21.42,74.59,86.51,73.74,65.09-.85,50.42-46.41,50.42-46.41,0,0,57.53,19.27,83.32-54.06,0,0,60.41-38.53,8.33-95.79,0,0-2.43-115.73-101.14-92.78,0,0-5.85-25.16-39.93-5,0,0-29.75-66.53-91.33-15.49,0,0-49.15-88.54-114.42-18.28,0,0-94.93-30.97-96.83,83.72Z"/>
        </g>
        <path class="cls-23" d="M2591.19,1316.8s-865.84,13.71-923.23,82.13c-57.39,68.42,77.3,23.77,141.31,67.92,64.01,44.14,191.44,.45,388.46-15.45,179.01-14.44,394.98,32.71,394.98,32.71l-1.52-167.31Z"/>
      </g>
    </g>
    <g>
      <polyline class="cls-5" points="1810.55 1085.31 1897.31 687.09 1990.33 1082.17"/>
      <line class="cls-5" x1="1820.21" y1="1049.21" x2="1981.8" y2="1049.21"/>
      <polyline class="cls-5" points="1334.64 1085.31 1421.39 687.09 1514.41 1082.17"/>
      <line class="cls-5" x1="1344.29" y1="1049.21" x2="1505.88" y2="1049.21"/>
      <line class="cls-5" x1="1421.47" y1="692.28" x2="1898.19" y2="692.28"/>
      <rect class="cls-24" x="1493.82" y="980.88" width="127.02" height="17.69"/>
      <rect class="cls-24" x="1676.31" y="980.88" width="127.02" height="17.69"/>
      <line class="cls-2" x1="1513.12" y1="980.88" x2="1513.12" y2="685.04"/>
      <line class="cls-2" x1="1597.53" y1="980.88" x2="1597.53" y2="685.04"/>
      <line class="cls-2" x1="1692.39" y1="980.88" x2="1718.11" y2="686.65"/>
      <line class="cls-2" x1="1777.6" y1="980.88" x2="1803.33" y2="686.65"/>
    </g>
  </g>
  <g id="Layer_2" data-name="Layer 2">
    <g>
      <path class="cls-44" d="M1661.29,1425.94s2.14,.38,2.4-7.84c0,0,12.58,3.98,28.76,2.49,0,0,1.52,7.74,11.29,10.59,0,0,13.87,5.84,3.6,13.55-10.27,7.72-42.11-6.22-42.11-6.22l-3.94-12.57Z"/>
      <path class="cls-25" d="M1661.29,1425.94s-7.49,11.29-3.74,18.96c0,0,3.74,11.7,31.62,8.07,0,0,40.83,13.11,42.51-6.37,0,0,2.43-11.78-27.94-15.41,0,0,13.8,12.52-9.57,9.28,0,0-25.8-.4-32.87-14.52Z"/>
      <path class="cls-44" d="M1575.72,1420.05s1.94,.98,4.56-6.81c0,0,10.9,7.44,26.81,10.68,0,0-.78,7.85,7.75,13.4,0,0,11.6,9.59-.46,14.01-12.06,4.42-38.52-18.11-38.52-18.11l-.14-13.17Z"/>
      <path class="cls-26" d="M1589.89,1191.4s-12.07,31.68-7.79,64.31c0,0,11.94,57.26,18.84,68.85,0,0-41.47,38.55-23.88,88.64,0,0,23.09,18.7,36.44,11.43l47.16-83.6,.6,25.47,2.43,51.6s9.76,14.56,28.76,2.49l23.82-81.54s4.99-17.48,3.68-27.64l-4.75-108.88s-73.84,25.16-125.3-11.12Z"/>
      <path class="cls-25" d="M1575.72,1420.05s-10.43,8.65-9.06,17.07c0,0,.21,12.28,27.95,16.85,0,0,35.31,24.34,42.54,6.17,0,0,5.73-10.57-22.31-22.82,0,0,9.6,15.97-11.84,6.12,0,0-24.58-7.83-27.28-23.39Z"/>
      <path class="cls-3" d="M1659.94,1344.61s7.15-6.43,7.88-26.96c1.18-32.89,.66-62.47,.66-62.47"/>
      <g>
        <path class="cls-9" d="M1646.58,1246.03s9.11-3.49,9.86,9.06"/>
        <path class="cls-14" d="M1645.98,1244.29s12.74-4.71,12.79,10.75"/>
        <path class="cls-10" d="M1645.58,1242.68s16.42-5.27,15,12.34"/>
      </g>
      <g>
        <path class="cls-9" d="M1631.27,1241.81s-4.38-8.49,8.45-10.31"/>
        <path class="cls-14" d="M1629.54,1242.54s-5.95-11.89,9.92-13.29"/>
        <path class="cls-10" d="M1627.91,1243.07s-6.86-15.39,11.37-15.57"/>
      </g>
      <g>
        <path class="cls-9" d="M1607.71,1252.51s9.11-3.49,9.86,9.06"/>
        <path class="cls-14" d="M1607.11,1250.77s12.74-4.71,12.79,10.75"/>
        <path class="cls-10" d="M1606.71,1249.16s16.42-5.27,15,12.34"/>
      </g>
      <g>
        <path class="cls-9" d="M1592.4,1248.29s-4.38-8.49,8.45-10.31"/>
        <path class="cls-14" d="M1590.67,1249.02s-5.95-11.89,9.92-13.29"/>
        <path class="cls-10" d="M1589.04,1249.55s-6.86-15.39,11.37-15.57"/>
      </g>
      <path class="cls-44" d="M1619.52,1016.33s13.19,17.26,6.63,33.91c0,0,14.64,45.93,48.96,43.4,0,0,24.23,1.01,17.66-36.84,0,0-9.59-1.51-10.09-11.61l-63.16-28.87Z"/>
      <path class="cls-44" d="M1610.63,998.48s-11.45-12.87-19.04-6.43c-7.59,6.44,2.47,23.13,2.47,23.13,0,0,12.53,13.2,22.26,4.34,0,0,17.42,27.4,58.57,24.69,0,0,17.44-.05,28.38-19.28,10.56-18.54,.11-45.81,.11-45.81,0,0,1.36-5.13-1.66-22.53-3.01-17.41-11.52-36.93-35.19-40.52-23.67-3.58-38.11-4.16-56.65,15.96-18.54,20.11,.75,66.46,.75,66.46Z"/>
      <path class="cls-45" d="M1654.72,967.01s-10.06-.96-17.24,5.69c0,0-4.82-1.02,.82-4.78,5.64-3.76,9.87-6.28,16.26-4.31,0,0,2.92,1.74,.16,3.41Z"/>
      <path class="cls-45" d="M1687.17,961.68s5.54-4.36,14.48-.39c0,0,2.9-2.27-.62-3.74-5.21-2.17-8.62-2-14.81,.84,0,0-2.2,2.59,.95,3.28Z"/>
      <path class="cls-33" d="M1715.19,1202.53s2.02-88.74-11.03-113.94c0,0,17.91-27.97-10.14-33.73,0,0-5.42-5.5-9.45-2.09,0,0,2.16,15.45-18.57,14.46-20.73-.98-36.62-18.41-39.94-18.17-21.59,1.57-28.47,13.11-28.47,13.11,0,0-15.26,15.74-19.08,35.78,0,0-3.34,22.9,2.39,45.79,5.72,22.9,6.68,54.86,6.68,54.86,0,0,82.65,52.67,127.62,3.93"/>
      <path class="cls-52" d="M1679.39,1043.56s-9.09,2.9-24.38-.41c0,0-5.48-.28-17.07-5.46,0,0,8.77,5.96,24.53,9.07,0,0,6.66,1.5,18.31-.54,0,0-.88-.82-1.39-2.66Z"/>
      <path class="cls-4" d="M1595.58,1004.24s2.87-6.56,8.27-1.31c5.4,5.25,5.98,7.22,5.98,7.22,0,0-7.9-8.46-9.05-.38"/>
      <path class="cls-4" d="M1684.84,987.27s9.54,9.96-3.46,13.59"/>
      <g>
        <path class="cls-27" d="M1645.44,983.83s-.09-.39,.14-.79c.74-1.3,2.55-3.81,6.06-4.55,3.94-.83,6.89,2.41,7.91,3.57,.18,.2,.21,.4,.21,.4,0,0,.06,.22-.04,.4-.47,.86-2.14,3.34-5.86,4.19-2.21,.5-5.58-.03-8.15-2.63-.18-.18-.24-.45-.27-.59Z"/>
        <circle class="cls-52" cx="1653.71" cy="982.8" r="4.16"/>
        <circle class="cls-27" cx="1650.97" cy="982.52" r="1.14"/>
        <path class="cls-12" d="M1659.79,982.02s-6.78-8.39-14.38,1.03"/>
      </g>
      <g>
        <path class="cls-27" d="M1687.24,977.35s-.14-.35,.01-.74c.5-1.29,1.8-3.85,4.92-5.03,3.49-1.32,6.66,1.23,7.76,2.16,.19,.16,.25,.34,.25,.34,0,0,.09,.19,.02,.37-.31,.86-1.49,3.37-4.78,4.67-1.96,.77-5.12,.76-7.84-1.27-.19-.14-.29-.37-.33-.5Z"/>
        <circle class="cls-52" cx="1694.68" cy="975.24" r="3.85"/>
        <circle class="cls-27" cx="1692.03" cy="975.47" r="1.08"/>
        <path class="cls-12" d="M1700.03,973.84s-7.32-7.33-12.83,2.96"/>
      </g>
      <path class="cls-33" d="M1693.17,1054.49s11.18,1.61,20.53,9.47c10.49,8.81,20.12,12.92,27.13,14.84,0,0,16.97,20.99,8.9,49.36-1.44,5.08-33.16,8.08-37.89,2"/>
      <path class="cls-8" d="M1711.84,1130.16s-1.62-27.74-5.37-32.07"/>
      <g>
        <path class="cls-41" d="M1666.5,1013.92s5.21-2.65,12.37-2.58c0,0,5.38-1.52,11.12-1.39,0,0,2.26,7.32-6.55,11.33-8.82,4.01-15.97-1.57-16.93-7.36Z"/>
        <path class="cls-29" d="M1667.46,1014.13s1.64,8.74,12.98,6.5c10.3-2.03,8.85-9.81,8.85-9.81,0,0-11.5,2.82-21.82,3.31Z"/>
        <path class="cls-27" d="M1669.04,1013.99s3.69,3.56,12.57,1.36c0,0,5.59-.81,7.33-4.22,0,0-11.51,2.54-19.9,2.86Z"/>
      </g>
      <g>
        <circle class="cls-51" cx="1617.4" cy="1198.51" r="74.21"/>
        <path class="cls-22" d="M1545.02,1181.94s66.17,48.24,140.46-11.53c74.28-59.77,0,0,0,0,0,0,10.67,15.8,5.12,40.98s0,0,0,0c0,0-62.76,43.12-142.59,10.25h0s-6.83-18.78-2.99-39.7"/>
      </g>
      <path class="cls-44" d="M1604.08,1139.1s-18.71,8.22-28.08,11.06c0,0,.35,29.68-7.13,53.39h0s8.51,5.07,15.59,17.23c0,0,4.11,8.48,2.6,10.55s-5.44,.36-5.44,.36c0,0-3.73-8.21-5.9-8.55,0,0-6.36,1.27-2.58,18.56,0,0,2.15,6.4,5.48,9.09,0,0,5.07,6.82-2.32,5.91,0,0-2.78,2.96-8.18-1.36,0,0-4.4,5.21-13.23-8.49,0,0-4.3,2.28-4.66-3.21s-1.13-15.77-1.13-15.77c0,0-3.29-13.85-.45-24l1.94-5.21s-7.85-35.85-3.42-57.23c0,0,1.02-12.76,7.63-15.19"/>
      <path class="cls-19" d="M1576.29,1256.71s-12.95-8.88-11.22-24.37"/>
      <path class="cls-19" d="M1568.1,1255.35s-12.52-8.12-8.24-22.27"/>
      <path class="cls-19" d="M1554.87,1246.86s-2.73-7.99-1.68-10.97"/>
      <path class="cls-33" d="M1588.42,1074.16s-24.14,25.3-38.03,45.43c0,0,3.35,29.72,40.15,26.33,21.26-1.95,43.58-36.91,43.58-36.91"/>
      <path class="cls-8" d="M1622.2,1124.54s11.71-9.04,14.38-14.79"/>
      <path class="cls-49" d="M1586.43,947.3s-9.7,22.01,3.1,46.01c0,0,8.88-8.65,21.1,7.45,0,0,14.65-18.69,7.91-65.18,0,0,43.02,2.47,62.81-13.08,0,0,13.69,6.91,18.43,29.04l4.06,12.81c-1.94-40.31-22.45-54.6-22.45-54.6-36.16-25.84-70.78-3.34-77.38,4.75,0,0-17.87-16.25-35.72,4.34,0,0-10.08,9.26-5.34,18.88,0,0-22.16-4.96-20.42,20.01,0,0-15.17,8.99-1.95,25.8,0,0-7.57,14.16,8.14,20.95,0,0,17.81,8.47,21.45-7.83,0,0,15.25,4.74,11.31-8.99,0,0,15.1-1.67,12.98-14.95-2.12-13.28-8.05-25.41-8.05-25.41Z"/>
    </g>
    <polygon class="cls-27" points="1825.45 962.15 1881.03 900.32 1887.28 910.74 1825.45 962.15"/>
    <polygon class="cls-27" points="1805.28 943.92 1845.77 871.31 1854.18 880.08 1805.28 943.92"/>
    <polygon class="cls-27" points="1781.82 939.04 1789.71 856.28 1800.93 860.94 1781.82 939.04"/>
    <polygon class="cls-27" points="1761.09 948.34 1734.58 869.55 1746.73 869.23 1761.09 948.34"/>
    <g>
      <path class="cls-32" d="M1974.24,1397.44s14.99,26.65,5.66,38.64c-9.33,11.99-48.64,12.66-48.64,12.66,0,0-56.38,39.06-100.29,3.5,0,0-2.89-8.88,13.55-15.99,20.45-8.84,27.75-10.18,27.75-10.18,0,0-6.97,29,64.66-.98l37.31-27.65Z"/>
      <path class="cls-36" d="M1974.24,1397.44s-6.33-13.66-5.66-34.31c.67-20.65,19.99-98.6,7.33-135.91l-85.28-6s16.66,110.26,25.98,140.91c0,0,7.66,20.65-1.46,36.28,0,0-25.59,13.66-42.88,27.66,0,0-6.3,30,64.66-.98l37.31-27.65Z"/>
      <path class="cls-32" d="M2053.68,1407.37s14.99,26.65,5.66,38.64c-9.33,11.99-48.64,12.66-48.64,12.66,0,0-56.38,39.06-100.29,3.5,0,0-2.89-8.88,13.55-15.99,20.45-8.84,27.75-10.18,27.75-10.18,0,0-6.97,29,64.66-.98l37.31-27.65Z"/>
      <path class="cls-36" d="M2053.68,1407.37s-6.33-13.66-5.66-34.31c.67-20.65,19.99-98.6,7.33-135.91l-85.28-6s16.66,110.26,25.98,140.91c0,0,7.66,20.65-1.46,36.28,0,0-25.59,13.66-42.88,27.66,0,0-6.3,30,64.66-.98l37.31-27.65Z"/>
      <path class="cls-13" d="M1951.71,1436s-29.68,7.66-40.26,22.95"/>
      <polygon class="cls-32" points="2376.99 1447.38 2392.04 1443.87 2392.04 1287.33 2376.99 1287.33 2376.99 1447.38"/>
      <polygon class="cls-37" points="2350.79 1443.87 2377.3 1447.38 2377.3 1287.33 2350.79 1287.33 2350.79 1443.87"/>
      <polygon class="cls-32" points="2449.58 1429.73 2464.63 1426.22 2464.63 1269.69 2449.58 1269.69 2449.58 1429.73"/>
      <polygon class="cls-37" points="2423.38 1426.22 2449.89 1429.73 2449.89 1269.69 2423.38 1269.69 2423.38 1426.22"/>
      <polygon class="cls-32" points="1711.83 1424.83 1726.88 1421.32 1726.88 1264.78 1711.83 1264.78 1711.83 1424.83"/>
      <polygon class="cls-37" points="1685.62 1421.32 1712.13 1424.83 1712.13 1264.78 1685.62 1264.78 1685.62 1421.32"/>
      <polygon class="cls-32" points="1784.41 1407.19 1799.46 1403.68 1799.46 1247.14 1784.41 1247.14 1784.41 1407.19"/>
      <polygon class="cls-37" points="1758.21 1403.68 1784.72 1407.19 1784.72 1247.14 1758.21 1247.14 1758.21 1403.68"/>
      <polygon class="cls-37" points="2396.87 1239.9 2396.87 1298.58 1672.44 1297 1672.44 1241.49 2396.87 1239.9"/>
      <polygon class="cls-32" points="2396.93 1239.9 2503.18 1241.49 2503.18 1293.82 2396.93 1298.58 2396.93 1239.9"/>
      <path class="cls-46" d="M2026.44,1080.79s-137.97,20.08-136.23,117.89,6.99,100.42,6.99,100.42c0,0,112.1,36.64,181.9,1.64,0,0,9.34-42.68-8.12-60.15l146.71,4.37s80.34,2.62,97.8-27.07c17.46-29.69,20.74-87.3-3.58-128.72,0,0-82.58,14.38-202.22-53.73l-83.24,45.35Z"/>
      <g>
        <circle class="cls-16" cx="1957.79" cy="1271" r="6.75"/>
        <circle class="cls-16" cx="1962.55" cy="1295.66" r="6.75"/>
        <circle class="cls-16" cx="1952.01" cy="1284.68" r="6.75"/>
        <circle class="cls-16" cx="1975.98" cy="1288.25" r="6.75"/>
        <circle class="cls-16" cx="1971.77" cy="1274.58" r="6.75"/>
      </g>
      <g>
        <circle class="cls-16" cx="2033.4" cy="1249.33" r="6.75"/>
        <circle class="cls-16" cx="2038.16" cy="1273.99" r="6.75"/>
        <circle class="cls-16" cx="2027.62" cy="1263.01" r="6.75"/>
        <circle class="cls-16" cx="2051.59" cy="1266.58" r="6.75"/>
        <circle class="cls-16" cx="2047.37" cy="1252.91" r="6.75"/>
      </g>
      <g>
        <circle class="cls-16" cx="2104.08" cy="1194.53" r="6.75"/>
        <circle class="cls-16" cx="2108.84" cy="1219.19" r="6.75"/>
        <circle class="cls-16" cx="2098.3" cy="1208.21" r="6.75"/>
        <circle class="cls-16" cx="2122.27" cy="1211.78" r="6.75"/>
        <circle class="cls-16" cx="2118.05" cy="1198.11" r="6.75"/>
      </g>
      <g>
        <circle class="cls-16" cx="2182.03" cy="1193.42" r="6.75"/>
        <circle class="cls-16" cx="2186.79" cy="1218.09" r="6.75"/>
        <circle class="cls-16" cx="2176.25" cy="1207.1" r="6.75"/>
        <circle class="cls-16" cx="2200.22" cy="1210.67" r="6.75"/>
        <circle class="cls-16" cx="2196" cy="1197" r="6.75"/>
      </g>
      <g>
        <circle class="cls-16" cx="2005.94" cy="1198.31" r="6.75"/>
        <circle class="cls-16" cx="2010.7" cy="1222.97" r="6.75"/>
        <circle class="cls-16" cx="2000.16" cy="1211.99" r="6.75"/>
        <circle class="cls-16" cx="2024.13" cy="1215.56" r="6.75"/>
        <circle class="cls-16" cx="2019.91" cy="1201.89" r="6.75"/>
      </g>
      <g>
        <circle class="cls-16" cx="1995.3" cy="1137.73" r="6.75"/>
        <circle class="cls-16" cx="2000.06" cy="1162.4" r="6.75"/>
        <circle class="cls-16" cx="1989.52" cy="1151.41" r="6.75"/>
        <circle class="cls-16" cx="2013.49" cy="1154.98" r="6.75"/>
        <circle class="cls-16" cx="2009.27" cy="1141.31" r="6.75"/>
      </g>
      <g>
        <circle class="cls-16" cx="1928.79" cy="1217" r="6.75"/>
        <circle class="cls-16" cx="1933.55" cy="1241.67" r="6.75"/>
        <circle class="cls-16" cx="1923.01" cy="1230.68" r="6.75"/>
        <circle class="cls-16" cx="1946.98" cy="1234.25" r="6.75"/>
        <circle class="cls-16" cx="1942.76" cy="1220.58" r="6.75"/>
      </g>
      <g>
        <circle class="cls-16" cx="2079.86" cy="1131.42" r="6.75"/>
        <circle class="cls-16" cx="2084.62" cy="1156.09" r="6.75"/>
        <circle class="cls-16" cx="2074.08" cy="1145.1" r="6.75"/>
        <circle class="cls-16" cx="2098.05" cy="1148.67" r="6.75"/>
        <circle class="cls-16" cx="2093.83" cy="1135" r="6.75"/>
      </g>
      <g>
        <circle class="cls-16" cx="1924.75" cy="1147.81" r="6.75"/>
        <circle class="cls-16" cx="1929.51" cy="1172.48" r="6.75"/>
        <circle class="cls-16" cx="1918.97" cy="1161.49" r="6.75"/>
        <circle class="cls-16" cx="1942.94" cy="1165.06" r="6.75"/>
        <circle class="cls-16" cx="1938.73" cy="1151.39" r="6.75"/>
      </g>
      <g>
        <circle class="cls-16" cx="2285.95" cy="1124.67" r="6.75"/>
        <circle class="cls-16" cx="2290.7" cy="1149.33" r="6.75"/>
        <circle class="cls-16" cx="2280.16" cy="1138.35" r="6.75"/>
        <circle class="cls-16" cx="2304.13" cy="1141.92" r="6.75"/>
        <circle class="cls-16" cx="2299.92" cy="1128.25" r="6.75"/>
      </g>
      <g>
        <circle class="cls-16" cx="2148.85" cy="1137.53" r="6.75"/>
        <circle class="cls-16" cx="2153.6" cy="1162.2" r="6.75"/>
        <circle class="cls-16" cx="2143.06" cy="1151.21" r="6.75"/>
        <circle class="cls-16" cx="2167.03" cy="1154.78" r="6.75"/>
        <circle class="cls-16" cx="2162.82" cy="1141.11" r="6.75"/>
      </g>
      <g>
        <circle class="cls-16" cx="2265.07" cy="1195.18" r="6.75"/>
        <circle class="cls-16" cx="2269.83" cy="1219.85" r="6.75"/>
        <circle class="cls-16" cx="2259.29" cy="1208.86" r="6.75"/>
        <circle class="cls-16" cx="2283.26" cy="1212.43" r="6.75"/>
        <circle class="cls-16" cx="2279.04" cy="1198.76" r="6.75"/>
      </g>
      <g>
        <circle class="cls-16" cx="2220.45" cy="1140.38" r="6.75"/>
        <circle class="cls-16" cx="2225.21" cy="1165.05" r="6.75"/>
        <circle class="cls-16" cx="2214.67" cy="1154.06" r="6.75"/>
        <circle class="cls-16" cx="2238.64" cy="1157.64" r="6.75"/>
        <circle class="cls-16" cx="2234.42" cy="1143.96" r="6.75"/>
      </g>
      <path class="cls-40" d="M2121.45,655.35s16.7,59.35,30.16,72.9c0,0-8,81.72-75.37,104.89,0,0-47.74-30.82-33.52-81.85,0,0,8.98-8.81,8.99-19.4,0,0,51.86-39.63,69.74-76.54Z"/>
      <path class="cls-40" d="M2106.19,628.13s-3.35-41.26-29.77-59.19c-16.13-10.95-45.53-5.37-74.41,.8,0,0-60.01,18.51-23.74,90.08,0,0,5.39,6.65,5.2,13.44,0,0-.89,13.14,13.23,35.48,18.83,29.77,35.45,26.34,35.45,26.34,0,0,4.27,8.77,22.88,3.5,0,0,17.28-1.58,30.81-16.82,0,0,37.18-33.7,27.96-56.99,0,0,20.32,5.2,20.14-25.52,0,0-4.59-52.15-27.75-11.12Z"/>
      <path class="cls-26" d="M2026.96,630.43s19.72-11.31,33.9-4.85c0,0-6.3-14.79-35.83-1.48,0,0-4.65,5.18,1.93,6.33Z"/>
      <path class="cls-4" d="M2013.79,670.51s-6.62,21.58,15.04,17.32"/>
      <path class="cls-4" d="M2128.63,628.7s-11.4-14.84-16.09,16.02c0,0,7.32-15.22,12.36-5.61"/>
      <path class="cls-4" d="M2069.31,629.6l-2.29,23.4s-10.57,10.37-28.59,11l-14.83-17.58s19.58-17.65,45.71-16.82Z"/>
      <path class="cls-52" d="M2047.99,740s2.18-.14,7.63-1.77c0,0,26.81-3.31,45.85-33.74,0,0-4.81,10.72-17.92,23.39,0,0-16.02,14.37-36.1,15.09,0,0-.36,.38,.54-2.97Z"/>
      <path class="cls-17" d="M2056.77,573.73s-37.19,28.75-66.33,15.38c0,0-5.15,16.76-22.47,40.44,0,0-.65,12.11,15.45,35.58,0,0-2.18,22.68,17.21,46.41,0,0,16.29,21.31,31.52,23.55,0,0,2.74,2.49,5.35,3.85,0,0-4.05,9.73-10.86,10.89,0,0,2.47-9.67-1.69-10.7,0,0-47.33-.78-63.51-93.02,0,0-41.34-33.6-11.14-69.57,13.65-16.25,20.26-55.04,67.55-45.84,0,0,49.66-41.38,80.46,9.92,0,0,66.35,1.45,48.46,88.14,0,0,17.05,23.14-2.21,49.25-2.22,3.01-5.29,14.96,3.36,29.15,2.33,3.83-11.13-1.41-16.8-8.53,0,0-10.26-12.78-17.31-33.87,0,0,21.19,1.3,19.3-21.55,0,0,.99-25.85-8.53-27.76,0,0-10.58-1.73-17.67,12.46,0,0-39.05,4.39-50.13-54.19Z"/>
      <path class="cls-26" d="M1974.5,646.1c-.1-1.59,12.5-8.21,25.38-11.57,0,0,6.97,1.13,2.51,6.23,0,0-24.77,3.06-24.72,11.54,0,0-2.91-2.27-3.17-6.2Z"/>
      <path class="cls-4" d="M2015.77,647.6l-2.29,23.4s-9.56,8.19-27.59,8.82l-13.55-20.22s17.3-12.83,43.43-11.99Z"/>
      <path class="cls-4" d="M2015.77,647.6s3.29-5.65,7.83-1.18"/>
      <line class="cls-4" x1="2069.31" y1="629.6" x2="2116.88" y2="614.93"/>
      <path class="cls-12" d="M2049.29,602.18s-18.38,6.7-26.83,10.92c-8.45,4.22-36.02,3.71-36.02,3.71"/>
      <path class="cls-7" d="M2041.51,644.99s3.09-13.96,17.67-7.29"/>
      <path class="cls-7" d="M1985.21,661.95s4.42-13.22,17.22-4.14"/>
      <path class="cls-21" d="M2150.13,725.14s-5.82,65.29-58.29,69.44c-37.21,2.94-42.46-9.94-47.27-44.9,0,0-44.32,15.84-61.73,38.41-17.42,22.57-38.09,119.88-25.89,178.77,0,0,6.99,31.97,50.88,53.87,0,0-.97,36.13,3.58,68.98,0,0,20.92,37.63,90.79,30.91l3.64-58.39,11.12,62.6s145.45,6.75,201.15-27.1c0,0-44.3-125.5-37.24-133.57,2.04-2.33-40.86,34.68-38.03,20.91,0,0,26.8-7.2,61.71-37.97,0,0-12.94-227.57-154.41-221.95Z"/>
      <path class="cls-11" d="M2198.35,938.8s-13.56-66.17,12.53-131.66"/>
      <path class="cls-11" d="M2007.82,1020.72s-10.32-105.74,3.24-135.38"/>
      <circle class="cls-18" cx="2099.79" cy="833.92" r="9.6"/>
      <circle class="cls-18" cx="2104.08" cy="905.62" r="9.6"/>
      <circle class="cls-18" cx="2111.96" cy="980.61" r="9.6"/>
      <path class="cls-6" d="M2121.45,655.35s8.78,8.56,3.12,16.22c-5.66,7.66-5.28-8.07-5.28-8.07"/>
      <path class="cls-31" d="M2064.95,690.54s-19.66,.25-25.44,8.99c0,0-6.59-3.28-19.21,7.15,0,0,5.79,21.5,27.36,13.88,24.64-8.71,17.28-30.02,17.28-30.02Z"/>
      <path class="cls-29" d="M2062.36,693.99s2.42,14.54-14.59,20.73c-17.01,6.19-23.68-7.03-23.68-7.03,0,0,26.89-12.58,38.26-13.7Z"/>
      <path class="cls-27" d="M2057.93,694.79s-2.54,5.56-15.56,10.47c-11.99,4.52-16.9,1.74-16.9,1.74,0,0,16.97-8.55,32.45-12.2Z"/>
      <g>
        <path class="cls-27" d="M2059.94,637.58s-.14-.53-.65-.85c-1.69-1.09-5.41-2.97-10.08-1.68-5.23,1.45-6.75,7.15-7.25,9.18-.09,.35,0,.61,0,.61,0,0,.06,.3,.29,.45,1.1,.74,4.63,2.67,9.6,1.38,2.96-.77,6.66-3.5,8.11-8.21,.1-.33,.02-.69-.04-.87Z"/>
        <circle class="cls-52" cx="2049.41" cy="641.49" r="5.61"/>
        <circle class="cls-27" cx="2050.57" cy="637.41" r="1.54"/>
        <path class="cls-4" d="M2041.65,644.32s2.91-14.24,17.83-7.69"/>
      </g>
      <g>
        <path class="cls-27" d="M2002.45,658.69s-.06-.51-.48-.89c-1.41-1.26-4.6-3.54-9.13-3-5.07,.6-7.3,5.69-8.05,7.5-.13,.31-.08,.57-.08,.57,0,0,.02,.28,.21,.46,.92,.84,3.93,3.15,8.73,2.65,2.86-.29,6.69-2.3,8.72-6.47,.14-.29,.11-.64,.08-.82Z"/>
        <circle class="cls-52" cx="1992.09" cy="660.81" r="5.26"/>
        <circle class="cls-27" cx="1993.94" cy="657.23" r="1.47"/>
        <path class="cls-4" d="M1984.72,662.48s4.27-13.5,17.43-4.49"/>
      </g>
      <path class="cls-40" d="M2207.6,942.17c1.41,13.18,16.95,42.85,16.95,42.85-49.44,11.3-127.61,69.22-127.61,69.22l-7.98,5.26c-22.09-.5-72.37,14.12-72.37,14.12l-17.6,27.34c1.87,2.16,4.96,.49,4.96,.49l-4.9,10.04c5.8,3.79,14.73-4.21,14.73-4.21l-7.37,10.67c4.77,4.93,14.02-1.83,14.02-1.83l14.16-15.04,21.87-2.08-8.45,3.04-19.8,20.44c7.18,10.9,29.55-11.51,29.55-11.51,0,0,19.69-3.33,36.09-7.23,7.48-1.78,9.43-10.56,9.43-10.56,0,0,7.31-5.58,10.61-6.9,3.3-1.32,14.54-4.67,14.54-4.67,0,0,152.8-28.89,160.58-62.23,7.78-33.34,2.78-78.35,2.78-78.35"/>
      <path class="cls-15" d="M2048.55,1084.7l-21.62,3.96-20.5,29.29c5.37,5.06,14.02-1.83,14.02-1.83l14.16-15.04,21.87-2.08-8.45,3.04-19.8,20.44c6.71,10.73,29.55-11.51,29.55-11.51l25.39-5.25,10.7-1.99s9.87-5.06,9.43-10.56l4.6-4.27"/>
      <path class="cls-15" d="M2013.79,1107.28s-8.66,9.84-14.73,4.21l18.16-30.77,18.07-3.42"/>
    </g>
    <g>
      <path class="cls-40" d="M1982.66,1092.85c-30.08,11.1-127.85-42.26-127.85-42.26-1.87-3.06-17.11-2.98-17.11-2.98,0,0,10.12-2.76,0,0-11.7,3.19-17.22-7.51-17.22-7.51l-4.97-6.03s-22.5-23.3-25.43-25.69c-2.93-2.4-12.38-17.44-12.38-17.44,0,0-2.93-5.19-.93-7.99s5.46,.93,5.46,.93l-6.9-12.42s-2.39-5.23-1.09-7.95c1.45-3.04,5.24-3.8,5.24-3.8-.69-1.43-2.7-10.46,.17-11.57,2.58-1,3.43-.62,5.38,1.53,.14,.15,.4,.65,.53,.8,1.58,1.76,1.59,3.06,1.42,.7-.56-7.61,4.99-4.16,6.33-3.38,3.28,1.9,5.91,5.41,6.55,6.88,.08,.17,1.8,2.65,1.91,2.8,1.42,1.98,9.43,13.16,11.45,18.53,.12,.31,.3,.59,.52,.84l2.68,3.02c.37,.42,.87,.68,1.41,.82,.99,.25,2.77,1.26,4.18,5.17,.21,.59,.61,1.09,1.13,1.42,1.38,.86,4.21,3.08,5.91,7.64,2.27,6.09,11.58,16.67,12.9,18.16,.11,.13,.23,.24,.36,.34,0,0,12.46,6.06,18.23,7.86,0,0,79.85,5.32,100.63,9.26,0,0,3.94-34.38,5.37-42.97,0,0,25.43,30.08,41.54,33.31,0,0-.36,50.14,2.15,62.67l-5.37,8.24-22.2,1.07Z"/>
      <path class="cls-15" d="M1819.24,1015.21c2.07-5.45-2.64-12.8-2.64-12.8,0,0-5.85-6.8-4.29-15.76,1.56-8.96,7.27-5.37,7.27-5.37,0,0,2.48,2.03,2.43,4.57,0,0,6.16,4.02,7.04,9.06s13.26,18.5,13.26,18.5c0,0,4.78,3.17,12.11,6.1"/>
      <path class="cls-15" d="M1798.52,975.38l-11.55-23.49s-1.64-5.62,3.39-5.32,9.49,8.09,9.49,8.09l13.89,22.17,2.68,3.02"/>
      <path class="cls-44" d="M1743.87,1082.98l25.45-9.04c6.03-6.03,22.43-32.81,22.43-32.81,1.82-3.75,4.69-11.2,6.13-14.53l1.1-16.91s-6.58-14.78-6.94-22.59c0,0-.02-1.39,1.08-1.45,0,0-.95-3.46,1.08-4.1s2.77,2.19,2.77,2.19l2.43,5.08s-1.01-4.55,.88-4.73,3.07,2.24,3.07,2.24c0,0,5.68,14.07,4.78,17.83,0,0,4.89-1.03,4.78,3.22-.14,5.23-.91,8.61-.91,8.61,0,0,.26,2.33,1.31,4.36s1.07,8.73-1.56,12.75c-.76,1.16-2.48,6.58-4.12,11.89,0,0-6.84,63.43-18.89,71.8s-38.51,9.04-38.51,9.04c0,0,1.26-28.86-6.36-42.86Z"/>
      <path class="cls-15" d="M1798.86,1006.34s-5.77-16.39-5.94-22.62c-.04-1.28,.65-1.96,1.47-2.2,1.7-.49,2.59,2.23,2.59,2.23l2.43,5.08"/>
      <path class="cls-15" d="M1801.08,1008.56s-.63-12.96-1.96-22.21c0,0-.3-1.91,1.16-2.26,.77-.18,2.04,.23,3.19,2.75,4.59,10.08,4.65,17.32,4.65,17.32"/>
      <path class="cls-15" d="M1803.09,1018.87s2.49-5.66,2.61-9.73,2.3-5.52,4.24-5.28,3.16,2.42,3.01,4.17-.84,6.23-.84,6.23c0,0-.52,3.03,.79,5.25s1.7,6.91-.39,12.26c0,0-.93,3.56-2.3,5.04,0,0-2.52,2.46-7.2,3.07"/>
      <path class="cls-15" d="M1786.97,951.9s-3.55-5.95-7.67-3.16c-2.73,1.85-.14,10.03-.14,10.03l8.88,20.18"/>
      <path class="cls-15" d="M1779.47,959.71s-7.23,1.67-5.37,7.93c1.86,6.26,13.45,25.96,13.45,25.96"/>
      <path class="cls-15" d="M1793.12,985.64s-.9-1.23-1.08,1.45,6.94,22.59,6.94,22.59l-1.1,16.91-4.58,10.48"/>
    </g>
  </g>
</svg>