<?xml version="1.0" encoding="UTF-8"?>
<svg id="Layer_1" data-name="Layer 1" xmlns="http://www.w3.org/2000/svg" xmlns:xlink="http://www.w3.org/1999/xlink" viewBox="0 0 1336.22 1002.2">
  <defs>
    <style>
      .cls-1 {
        fill: url(#linear-gradient);
        opacity: .5;
      }

      .cls-2, .cls-3, .cls-4 {
        stroke-width: .8px;
      }

      .cls-2, .cls-3, .cls-4, .cls-5, .cls-6, .cls-7, .cls-8, .cls-9, .cls-10, .cls-11, .cls-12, .cls-13, .cls-14, .cls-15, .cls-16, .cls-17, .cls-18, .cls-19 {
        stroke-miterlimit: 10;
      }

      .cls-2, .cls-3, .cls-4, .cls-6, .cls-12, .cls-13, .cls-14, .cls-16, .cls-17, .cls-18, .cls-19 {
        fill: none;
      }

      .cls-2, .cls-20 {
        stroke: #2b3990;
      }

      .cls-3 {
        stroke: #9e1f63;
      }

      .cls-4, .cls-6, .cls-10, .cls-13, .cls-16 {
        stroke: #231f20;
      }

      .cls-21 {
        fill: #f7daa6;
      }

      .cls-22 {
        fill: #f7d9a4;
      }

      .cls-23 {
        fill: #f8a69b;
      }

      .cls-24, .cls-8 {
        fill: #00a151;
      }

      .cls-25 {
        fill: #eeece8;
      }

      .cls-26 {
        fill: #efaf9e;
      }

      .cls-27, .cls-15 {
        fill: #eae1d3;
      }

      .cls-28 {
        fill: #f4f1ee;
      }

      .cls-29 {
        fill: #f6ac1b;
      }

      .cls-30, .cls-5, .cls-9 {
        fill: #fff;
      }

      .cls-31 {
        fill: #fbc5b3;
      }

      .cls-32 {
        fill: #803435;
      }

      .cls-33 {
        fill: #939598;
      }

      .cls-34 {
        fill: #87664d;
      }

      .cls-35 {
        fill: #b56e5b;
      }

      .cls-36 {
        fill: #8b5e3c;
      }

      .cls-37 {
        fill: #9054a2;
      }

      .cls-38 {
        fill: #ba9777;
      }

      .cls-39 {
        fill: #ae8578;
      }

      .cls-40 {
        fill: #b1dcc4;
      }

      .cls-41, .cls-7 {
        fill: #a97c50;
      }

      .cls-42 {
        fill: #a3d7bb;
      }

      .cls-43 {
        fill: #be9e7d;
      }

      .cls-44 {
        fill: #d1d3d4;
      }

      .cls-45 {
        fill: #c49a6c;
      }

      .cls-46 {
        fill: #dcbf97;
      }

      .cls-47 {
        fill: #e0d5c6;
      }

      .cls-48, .cls-11 {
        fill: #134a7e;
      }

      .cls-49 {
        fill: #231f20;
      }

      .cls-50 {
        fill: #092f44;
      }

      .cls-51 {
        fill: #1c75bc;
      }

      .cls-52 {
        fill: #414042;
      }

      .cls-53, .cls-20 {
        fill: #16a9de;
      }

      .cls-54, .cls-10 {
        fill: #9c2024;
      }

      .cls-55 {
        fill: #6d6e71;
      }

      .cls-56 {
        fill: #808285;
      }

      .cls-57 {
        fill: #49908e;
      }

      .cls-58 {
        fill: #603913;
      }

      .cls-59 {
        fill: #26130f;
      }

      .cls-5, .cls-7, .cls-20, .cls-16, .cls-17, .cls-18, .cls-19 {
        stroke-width: .5px;
      }

      .cls-5, .cls-9, .cls-18 {
        stroke: #603913;
      }

      .cls-6 {
        stroke-width: .7px;
      }

      .cls-7, .cls-19 {
        stroke: #a97c50;
      }

      .cls-20 {
        stroke-linecap: round;
        stroke-linejoin: round;
      }

      .cls-8 {
        stroke: #006838;
      }

      .cls-11 {
        stroke: #2e3192;
      }

      .cls-12 {
        stroke: #fbb040;
        stroke-width: 2px;
      }

      .cls-14 {
        stroke: #754c29;
      }

      .cls-15 {
        stroke: #8b5e3c;
        stroke-width: 3px;
      }

      .cls-17 {
        stroke: #6d6e71;
      }
    </style>
    <linearGradient id="linear-gradient" x1="219.12" y1="255.97" x2="219.12" y2="123.74" gradientUnits="userSpaceOnUse">
      <stop offset="0" stop-color="#fff" stop-opacity="0"/>
      <stop offset="1" stop-color="#f15a29" stop-opacity=".5"/>
    </linearGradient>
  </defs>
  <rect class="cls-42" x="1.51" width="1334.13" height="943.75"/>
  <g>
    <rect class="cls-40" x="324.53" y="250.77" width="103.08" height="102.45"/>
    <path class="cls-56" d="M370.75,261.18s-6.54,29.74-37.12,35.86v-36.09l37.12,.23Z"/>
    <path class="cls-56" d="M380.08,261.18s6.54,29.74,37.12,35.86v-36.09s-37.12,.23-37.12,.23Z"/>
    <path class="cls-56" d="M370.75,342.78s-6.54-29.74-37.12-35.86v36.09l37.12-.23Z"/>
    <path class="cls-56" d="M380.08,342.78s6.54-29.74,37.12-35.86v36.09s-37.12-.23-37.12-.23Z"/>
    <path class="cls-56" d="M375.42,273.72s-6.2,17.84-28.01,27.51c0,0,26.02,11.15,28.01,28.75,0,0,8.43-21.07,28.5-28.01,0,0-19.83-10.16-28.5-28.25Z"/>
  </g>
  <g>
    <rect class="cls-40" x="226.65" y="250.77" width="103.08" height="102.45"/>
    <path class="cls-56" d="M272.88,261.18s-6.54,29.74-37.12,35.86v-36.09l37.12,.23Z"/>
    <path class="cls-56" d="M282.21,261.18s6.54,29.74,37.12,35.86v-36.09s-37.12,.23-37.12,.23Z"/>
    <path class="cls-56" d="M272.88,342.78s-6.54-29.74-37.12-35.86v36.09l37.12-.23Z"/>
    <path class="cls-56" d="M282.21,342.78s6.54-29.74,37.12-35.86v36.09s-37.12-.23-37.12-.23Z"/>
    <path class="cls-56" d="M277.54,273.72s-6.2,17.84-28.01,27.51c0,0,26.02,11.15,28.01,28.75,0,0,8.43-21.07,28.5-28.01,0,0-19.83-10.16-28.5-28.25Z"/>
  </g>
  <g>
    <rect class="cls-40" x="128.77" y="250.77" width="103.08" height="102.45"/>
    <path class="cls-56" d="M175,261.18s-6.54,29.74-37.12,35.86v-36.09l37.12,.23Z"/>
    <path class="cls-56" d="M184.33,261.18s6.54,29.74,37.12,35.86v-36.09s-37.12,.23-37.12,.23Z"/>
    <path class="cls-56" d="M175,342.78s-6.54-29.74-37.12-35.86v36.09l37.12-.23Z"/>
    <path class="cls-56" d="M184.33,342.78s6.54-29.74,37.12-35.86v36.09s-37.12-.23-37.12-.23Z"/>
    <path class="cls-56" d="M179.66,273.72s-6.2,17.84-28.01,27.51c0,0,26.02,11.15,28.01,28.75,0,0,8.43-21.07,28.5-28.01,0,0-19.83-10.16-28.5-28.25Z"/>
  </g>
  <g>
    <rect class="cls-40" x="33.1" y="250.77" width="103.08" height="102.45"/>
    <path class="cls-56" d="M79.32,261.18s-6.54,29.74-37.12,35.86v-36.09l37.12,.23Z"/>
    <path class="cls-56" d="M88.65,261.18s6.54,29.74,37.12,35.86v-36.09s-37.12,.23-37.12,.23Z"/>
    <path class="cls-56" d="M79.32,342.78s-6.54-29.74-37.12-35.86v36.09l37.12-.23Z"/>
    <path class="cls-56" d="M88.65,342.78s6.54-29.74,37.12-35.86v36.09s-37.12-.23-37.12-.23Z"/>
    <path class="cls-56" d="M83.99,273.72s-6.2,17.84-28.01,27.51c0,0,26.02,11.15,28.01,28.75,0,0,8.43-21.07,28.5-28.01,0,0-19.83-10.16-28.5-28.25Z"/>
  </g>
  <g>
    <rect class="cls-40" x="324.53" y="152.08" width="103.08" height="102.45"/>
    <path class="cls-56" d="M370.75,162.49s-6.54,29.74-37.12,35.86v-36.09l37.12,.23Z"/>
    <path class="cls-56" d="M380.08,162.49s6.54,29.74,37.12,35.86v-36.09s-37.12,.23-37.12,.23Z"/>
    <path class="cls-56" d="M370.75,244.09s-6.54-29.74-37.12-35.86v36.09l37.12-.23Z"/>
    <path class="cls-56" d="M380.08,244.09s6.54-29.74,37.12-35.86v36.09s-37.12-.23-37.12-.23Z"/>
    <path class="cls-56" d="M375.42,175.03s-6.2,17.84-28.01,27.51c0,0,26.02,11.15,28.01,28.75,0,0,8.43-21.07,28.5-28.01,0,0-19.83-10.16-28.5-28.25Z"/>
  </g>
  <g>
    <rect class="cls-40" x="226.65" y="152.08" width="103.08" height="102.45"/>
    <path class="cls-56" d="M272.88,162.49s-6.54,29.74-37.12,35.86v-36.09l37.12,.23Z"/>
    <path class="cls-56" d="M282.21,162.49s6.54,29.74,37.12,35.86v-36.09s-37.12,.23-37.12,.23Z"/>
    <path class="cls-56" d="M272.88,244.09s-6.54-29.74-37.12-35.86v36.09l37.12-.23Z"/>
    <path class="cls-56" d="M282.21,244.09s6.54-29.74,37.12-35.86v36.09s-37.12-.23-37.12-.23Z"/>
    <path class="cls-56" d="M277.54,175.03s-6.2,17.84-28.01,27.51c0,0,26.02,11.15,28.01,28.75,0,0,8.43-21.07,28.5-28.01,0,0-19.83-10.16-28.5-28.25Z"/>
  </g>
  <g>
    <rect class="cls-40" x="128.77" y="152.08" width="103.08" height="102.45"/>
    <path class="cls-56" d="M175,162.49s-6.54,29.74-37.12,35.86v-36.09l37.12,.23Z"/>
    <path class="cls-56" d="M184.33,162.49s6.54,29.74,37.12,35.86v-36.09s-37.12,.23-37.12,.23Z"/>
    <path class="cls-56" d="M175,244.09s-6.54-29.74-37.12-35.86v36.09l37.12-.23Z"/>
    <path class="cls-56" d="M184.33,244.09s6.54-29.74,37.12-35.86v36.09s-37.12-.23-37.12-.23Z"/>
    <path class="cls-56" d="M179.66,175.03s-6.2,17.84-28.01,27.51c0,0,26.02,11.15,28.01,28.75,0,0,8.43-21.07,28.5-28.01,0,0-19.83-10.16-28.5-28.25Z"/>
  </g>
  <g>
    <rect class="cls-40" x="33.1" y="152.08" width="103.08" height="102.45"/>
    <path class="cls-56" d="M79.32,162.49s-6.54,29.74-37.12,35.86v-36.09l37.12,.23Z"/>
    <path class="cls-56" d="M88.65,162.49s6.54,29.74,37.12,35.86v-36.09s-37.12,.23-37.12,.23Z"/>
    <path class="cls-56" d="M79.32,244.09s-6.54-29.74-37.12-35.86v36.09l37.12-.23Z"/>
    <path class="cls-56" d="M88.65,244.09s6.54-29.74,37.12-35.86v36.09s-37.12-.23-37.12-.23Z"/>
    <path class="cls-56" d="M83.99,175.03s-6.2,17.84-28.01,27.51c0,0,26.02,11.15,28.01,28.75,0,0,8.43-21.07,28.5-28.01,0,0-19.83-10.16-28.5-28.25Z"/>
  </g>
  <g>
    <rect class="cls-40" x="324.53" y="54.32" width="103.08" height="102.45"/>
    <path class="cls-56" d="M370.75,64.73s-6.54,29.74-37.12,35.86v-36.09l37.12,.23Z"/>
    <path class="cls-56" d="M380.08,64.73s6.54,29.74,37.12,35.86v-36.09s-37.12,.23-37.12,.23Z"/>
    <path class="cls-56" d="M370.75,146.33s-6.54-29.74-37.12-35.86v36.09l37.12-.23Z"/>
    <path class="cls-56" d="M380.08,146.33s6.54-29.74,37.12-35.86v36.09s-37.12-.23-37.12-.23Z"/>
    <path class="cls-56" d="M375.42,77.27s-6.2,17.84-28.01,27.51c0,0,26.02,11.15,28.01,28.75,0,0,8.43-21.07,28.5-28.01,0,0-19.83-10.16-28.5-28.25Z"/>
  </g>
  <g>
    <rect class="cls-40" x="226.65" y="54.32" width="103.08" height="102.45"/>
    <path class="cls-56" d="M272.88,64.73s-6.54,29.74-37.12,35.86v-36.09l37.12,.23Z"/>
    <path class="cls-56" d="M282.21,64.73s6.54,29.74,37.12,35.86v-36.09s-37.12,.23-37.12,.23Z"/>
    <path class="cls-56" d="M272.88,146.33s-6.54-29.74-37.12-35.86v36.09l37.12-.23Z"/>
    <path class="cls-56" d="M282.21,146.33s6.54-29.74,37.12-35.86v36.09s-37.12-.23-37.12-.23Z"/>
    <path class="cls-56" d="M277.54,77.27s-6.2,17.84-28.01,27.51c0,0,26.02,11.15,28.01,28.75,0,0,8.43-21.07,28.5-28.01,0,0-19.83-10.16-28.5-28.25Z"/>
  </g>
  <g>
    <rect class="cls-40" x="128.77" y="54.32" width="103.08" height="102.45"/>
    <path class="cls-56" d="M175,64.73s-6.54,29.74-37.12,35.86v-36.09l37.12,.23Z"/>
    <path class="cls-56" d="M184.33,64.73s6.54,29.74,37.12,35.86v-36.09s-37.12,.23-37.12,.23Z"/>
    <path class="cls-56" d="M175,146.33s-6.54-29.74-37.12-35.86v36.09l37.12-.23Z"/>
    <path class="cls-56" d="M184.33,146.33s6.54-29.74,37.12-35.86v36.09s-37.12-.23-37.12-.23Z"/>
    <path class="cls-56" d="M179.66,77.27s-6.2,17.84-28.01,27.51c0,0,26.02,11.15,28.01,28.75,0,0,8.43-21.07,28.5-28.01,0,0-19.83-10.16-28.5-28.25Z"/>
  </g>
  <g>
    <rect class="cls-40" x="33.1" y="54.32" width="103.08" height="102.45"/>
    <path class="cls-56" d="M79.32,64.73s-6.54,29.74-37.12,35.86v-36.09l37.12,.23Z"/>
    <path class="cls-56" d="M88.65,64.73s6.54,29.74,37.12,35.86v-36.09s-37.12,.23-37.12,.23Z"/>
    <path class="cls-56" d="M79.32,146.33s-6.54-29.74-37.12-35.86v36.09l37.12-.23Z"/>
    <path class="cls-56" d="M88.65,146.33s6.54-29.74,37.12-35.86v36.09s-37.12-.23-37.12-.23Z"/>
    <path class="cls-56" d="M83.99,77.27s-6.2,17.84-28.01,27.51c0,0,26.02,11.15,28.01,28.75,0,0,8.43-21.07,28.5-28.01,0,0-19.83-10.16-28.5-28.25Z"/>
  </g>
  <g>
    <path class="cls-28" d="M808.42,466.15v-103.05s1.66-34.09,45.41-34.09h377.18s29.9,2.2,26.91,33.76v233.88h-433.74l-15.76-130.5Z"/>
    <rect class="cls-47" x="763.1" y="702.93" width="543.7" height="66.33"/>
    <rect class="cls-34" x="786.06" y="768.45" width="45.1" height="38.54"/>
    <rect class="cls-34" x="1249.81" y="768.45" width="45.1" height="38.54"/>
    <path class="cls-47" d="M808.42,466.15h38.34s20.46,6.25,20.46,28.39v100.87h-65.61s6.8-129.26,6.8-129.26Z"/>
    <path class="cls-47" d="M1258.18,466.15h-38.34s-20.46,6.25-20.46,28.39v100.87h65.61l-6.8-129.26Z"/>
    <rect class="cls-25" x="759.84" y="466.15" width="77.39" height="150.65" rx="7.12" ry="7.12"/>
    <rect class="cls-25" x="1225.64" y="466.15" width="77.39" height="150.65" rx="7.12" ry="7.12"/>
    <rect class="cls-25" x="743.85" y="593.33" width="578.46" height="109.6" rx="4.21" ry="4.21"/>
  </g>
  <rect class="cls-22" x="1.51" y="805.75" width="1334.71" height="196.44"/>
  <g>
    <rect class="cls-45" x="582.44" y="91.63" width="108.55" height="126.22"/>
    <rect class="cls-27" x="591.84" y="99.97" width="91.72" height="109.98"/>
    <g>
      <path class="cls-26" d="M623.27,139.13s-13.79-23.13,.67-28.24c0,0,18.68-2,6.23,27.8l-2.22,4.23-4.67-3.78Z"/>
      <path class="cls-26" d="M627.64,139.13s9.31-25.26,22.38-17.24c0,0,13.3,13.26-17.69,22.32l-4.68,.93v-6.01Z"/>
      <path class="cls-26" d="M632.62,143.65s22.97-14.05,28.25,.35c0,0,2.21,18.66-27.72,6.54l-4.25-2.18,3.73-4.71Z"/>
      <path class="cls-26" d="M635.21,147.57s25.16,9.57,17.01,22.56c0,0-13.4,13.16-22.14-17.93l-.88-4.69,6.01,.07Z"/>
      <path class="cls-26" d="M627.75,152.63s17.3,20.63,3.84,27.99c0,0-18.12,4.95-10.58-26.45l1.52-4.53,5.21,2.99Z"/>
      <path class="cls-26" d="M627.35,156.13s-9.47,25.2-22.49,17.1c0,0-13.22-13.35,17.84-22.21l4.69-.9-.04,6.01Z"/>
      <path class="cls-26" d="M621.01,153.86s-24.39,11.41-28.03-3.48c0,0-.13-18.79,28.28-3.42l3.98,2.63-4.23,4.27Z"/>
      <path class="cls-26" d="M620.46,145.39s-26.35-5.51-20.33-19.61c0,0,11.17-15.1,24.67,14.24l1.6,4.5-5.94,.88Z"/>
      <circle class="cls-29" cx="627.26" cy="147.71" r="8.18"/>
    </g>
    <g>
      <path class="cls-31" d="M654.92,156.1s-10.51-17.63,.51-21.53c0,0,14.24-1.53,4.75,21.19l-1.7,3.22-3.56-2.88Z"/>
      <path class="cls-31" d="M658.24,156.1s7.1-19.26,17.06-13.14c0,0,10.14,10.11-13.49,17.02l-3.57,.71v-4.58Z"/>
      <path class="cls-31" d="M662.04,159.54s17.51-10.71,21.53,.27c0,0,1.69,14.22-21.13,4.98l-3.24-1.66,2.84-3.59Z"/>
      <path class="cls-31" d="M664.01,162.53s19.18,7.3,12.96,17.19c0,0-10.22,10.03-16.87-13.67l-.67-3.58,4.58,.05Z"/>
      <path class="cls-31" d="M658.33,166.39s13.19,15.73,2.93,21.33c0,0-13.81,3.78-8.06-20.16l1.16-3.45,3.97,2.28Z"/>
      <path class="cls-31" d="M658.03,169.06s-7.22,19.21-17.14,13.03c0,0-10.08-10.18,13.6-16.93l3.57-.68-.03,4.58Z"/>
      <path class="cls-31" d="M653.19,167.32s-18.59,8.7-21.37-2.66c0,0-.1-14.32,21.56-2.61l3.04,2.01-3.22,3.25Z"/>
      <path class="cls-31" d="M652.78,160.87s-20.09-4.2-15.5-14.95c0,0,8.52-11.51,18.81,10.85l1.22,3.43-4.53,.67Z"/>
      <circle class="cls-29" cx="657.95" cy="162.64" r="6.24"/>
    </g>
  </g>
  <path class="cls-37" d="M781.26,467.99s74.56-22.45,62.7,63.97c0,0,18.05,13.99,38.56,.13,20.51-13.87,37.6,4.27,37.6,4.27,0,0,15.95,6.4,23.93-1.07,0,0-8.78-47.16-67.47-88.48-45.59-32.09-95.32,21.18-95.32,21.18Z"/>
  <g>
    <path class="cls-24" d="M1229.72,323.22s-44.24-33-88.49,.75c-44.24,33.75-33,153.73-33,153.73,0,0,15.75,23.25,36,18.75l-2.25,21s8.25,12,36,6.75c27.75-5.25,21.75-15.75,42.75-15,0,0-24.75-126.74,9-185.98Z"/>
    <line class="cls-8" x1="1141.98" y1="517.45" x2="1156.99" y2="395.33"/>
  </g>
  <g>
    <polygon class="cls-36" points="787.72 954.07 805.3 954.07 814.34 757.97 775.78 757.97 787.72 954.07"/>
    <polygon class="cls-36" points="662.17 954.07 679.75 954.07 688.79 757.97 650.24 757.97 662.17 954.07"/>
    <polygon class="cls-36" points="699.02 879.18 716.6 879.18 725.64 683.09 687.09 683.09 699.02 879.18"/>
    <polygon class="cls-36" points="571.92 879.18 589.5 879.18 598.55 683.09 559.99 683.09 571.92 879.18"/>
    <polygon class="cls-41" points="558.6 680.99 720.8 680.99 815.81 759.55 646.94 759.55 558.6 680.99"/>
    <polygon class="cls-36" points="558.6 680.99 646.94 759.55 815.81 759.55 815.81 781.46 645.95 781.46 557.42 697.19 558.6 680.99"/>
    <polygon class="cls-41" points="800.54 484.66 704.89 439.88 704.89 681.91 800.54 758.89 800.54 484.66"/>
    <polygon class="cls-36" points="704.89 439.88 725.99 439.88 810.37 481.14 810.37 759.55 800.54 758.89 800.54 484.66 704.89 439.88"/>
    <line class="cls-9" x1="800.54" y1="758.89" x2="704.89" y2="681.91"/>
  </g>
  <g>
    <polygon class="cls-36" points="503.71 828.63 524.47 828.63 535.15 597.11 489.62 597.11 503.71 828.63"/>
    <polygon class="cls-31" points="518 517.56 589.05 568.83 0 568.83 0 517.56 518 517.56"/>
    <g>
      <g>
        <path class="cls-49" d="M570.35,936.3s-3.55-29.35-51.72-9.96c-34.33,13.82-71.42,10.38-67.47,21.78l13.36,18.04,44.18,2.4,44.48-14.08,17.18-18.18Z"/>
        <path class="cls-52" d="M570.35,936.3s-6.46,7.33-16.53,11.4c-9.88,3.99-34.36,10.02-34.36,10.02,0,0-45.33,25.08-68.85-11.09l1.28,8.32s11.2,29.6,71.8,13.47c0,0,35.45-11.87,45.49-18.45,0,0,2.27-3.99,1.17-13.68Z"/>
        <path class="cls-43" d="M512.61,873.94c.12,.42,.2,.85,.23,1.29l3.68,17.93s6.03,19.07-15.08,26.45c-.21,.07,.18-.14,0,0l-14.89,8.62c-.26,.19-.53,.37-.82,.52l-8.19,4.32c-.44,.23-.9,.41-1.38,.53l-15.37,3.86s-2.59,.48-5.64,2.66c-.81,.58-2.66,2.61,.29,3.17,0,0-2.36,3.31,1.53,5.49,0,0-1.82,5.74,4.92,3.61,0,0-1.49,3.3,.96,4.61,1.72,.93,3.15,2.34,3.54,4.26,.53,2.62,3.3,5.28,13.44,3.14,.47-.1,.97-.15,1.45-.14,3.83,.11,22.14,.26,30.06-6.29,0,0,14.01-11.15,30.49-11.53,11.67-.27,19.08-7.61,22.41-11.87,1.32-1.69,1.61-3.96,.84-5.97-2.22-5.78-8.83-20.35-9.73-34.59"/>
        <path class="cls-18" d="M466.81,957.46s.63-4.25,7.21-5.44"/>
        <path class="cls-18" d="M461.9,952.39s3.38-5.29,8.25-5.35"/>
        <path class="cls-18" d="M456.99,948.78s3.64-5.86,9.01-6.21"/>
        <path class="cls-18" d="M455.46,943.29s2.53-4.03,6.89-4.36"/>
        <path class="cls-52" d="M518.91,959.1s-5.51-28.27-26.97-33.97l-27.38,11.12s17.19,10.87,25.9,29.64c0,0,14.64,1.27,28.45-6.78Z"/>
        <path class="cls-30" d="M515.47,964.04s-10.6-32.4-30.63-37.36l-4.86,2.33s20.31,4.57,30.04,36.53l5.45-1.51Z"/>
        <path class="cls-30" d="M505.76,967.08s-9.95-31.13-29.97-36.1l-4.86,2.33s18.38,3.15,29.52,34.94l5.31-1.18Z"/>
      </g>
      <g>
        <path class="cls-49" d="M645.78,947.57s-4.01-33.23-58.55-11.27c-38.85,15.64-80.84,11.75-76.37,24.65l15.12,20.42,50.01,2.72,50.35-15.94,19.44-20.58Z"/>
        <path class="cls-52" d="M645.78,947.57s-7.31,8.3-18.71,12.91c-11.18,4.52-38.9,11.35-38.9,11.35,0,0-51.3,28.38-77.93-12.55l1.45,9.42s12.68,33.51,81.27,15.24c0,0,40.13-13.43,51.49-20.88,0,0,2.56-4.52,1.33-15.48Z"/>
        <path class="cls-43" d="M582.17,895.73s7.66,19.7-11.87,28.77l-16.29,11.19-10.27,6.44-18.2,6.05s-13.14-.93-15.05,2.97c-1.91,3.9-3.7,5.52,2.59,10.97,0,0,2.56,5.84,7.49,4.37,0,0,3.46,5.03,11.51,3.72,0,0,2.06,4.38,10.7,2.82,0,0,2.97,3.29,7.34,1.51,0,0,25.86,2.16,35.46-7.07,0,0,16.59-10,32.34-12.09,8.88-1.18,14.35-4.75,17.54-7.87,2.58-2.53,3.65-6.19,2.82-9.71-1.63-6.94-4.68-20.8-6.01-32.79"/>
        <path class="cls-18" d="M529.33,951.36l-9.32,4.09s-6.26,1.38-6.94,6.68"/>
        <path class="cls-18" d="M534.67,954.76s-15.58,5.68-14.59,9.64l.48,2.09"/>
        <path class="cls-18" d="M540.67,960.5s-8.92,3.15-8.6,9.71"/>
        <path class="cls-18" d="M546.1,967.58s-4.64,1.47-3.32,5.46"/>
        <path class="cls-52" d="M596.82,970.29s-9.13-34.92-33.42-41.38l-28.49,15.3s20.53,15.5,30.39,36.75c0,0,15.89-1.55,31.53-10.67Z"/>
        <path class="cls-30" d="M592.36,974.05s-12-36.67-34.67-42.29l-5.5,2.64s22.99,5.18,34,41.35l6.16-1.7Z"/>
        <path class="cls-30" d="M581.37,977.48s-10.31-34.7-32.98-40.32l-5.5,2.53s19.86,3.14,32.47,39.13l6.01-1.34Z"/>
      </g>
      <path class="cls-30" d="M550.38,565.2s-47.68,2.78-61.61-.84c-14.68-3.82-24.67-4.99-36.64,.04l-81.42,2.41,32.75-28.88,91.43,3.21,71.41,10.43-15.92,13.64Z"/>
      <path class="cls-43" d="M560.3,471.95s-45.31,13.66-55.38,19.64c-10.07,5.98-37.15,4.72-46.91,19.83,0,0-5.35,21.72,1.57,24.87,0,0,33.06,5.67,60.45-6.93,0,0,57.64-2.15,78.42-20.41"/>
      <path class="cls-43" d="M659.16,387.7s3.5,9.19,16.1,15.95c0,0,24.24,79.38-21.76,101.24,0,0-41.99-12.53-42.28-57.72l47.94-59.47Z"/>
      <path class="cls-48" d="M675.26,403.65s22.92,2.67,41.62,14.22c35.1,21.68,40.95,80.79,40.95,80.79,0,0,8.23,109.78,3.02,139.99,0,0-119.05,37.43-170.47-.24,0,0-2.82-101.9,.35-125.38,0,0-35.63-14.43-41.43-37.62,0,0,25.33-32.25,35.87-35.42,0,0,20.55-13.7,32.14-7.9,0,0-7.13,27.81,7.09,34.66,14.22,6.85,56.13-23.59,50.86-63.1Z"/>
      <path class="cls-43" d="M720.72,522.24l-32.95,27.94s-13.35,11.26-50.05,3.75c-28.53-5.84-64.55-5.08-76.74-4.59l-9.76-29.63c26.47-5.58,100.32-16.72,100.32-16.72,10.29-12.86,27.01-21.86,27.01-21.86"/>
      <path class="cls-43" d="M551.22,519.72s-34.03,6.27-39.04,9.61c0,0-32.09,3.92-40.44,14.89,0,0,.4,5.54,7.49,4.29,0,0,.74,3.96,13.3-.73l19.23-2.19s9.18,4.17,21.27,2.09c0,0,15.01,6.26,27.94,1.67"/>
      <path class="cls-18" d="M471.75,543.89c8.35-10.97,40.44-14.89,40.44-14.89,5-3.34,39.04-9.61,39.04-9.61l39.51-6.35"/>
      <path class="cls-18" d="M479.24,548.52s.18-5.28,7.92-6.62c7.74-1.35,19.86-4.38,19.86-4.38"/>
      <path class="cls-29" d="M384.68,459.55l85.86,90.88,10.54,6.02-5.52-13.05-84.35-89.87s-5.52-1.51-6.53,6.02Z"/>
      <polyline class="cls-46" points="470.54 550.43 475.56 543.4 481.08 556.46 470.54 550.43"/>
      <path class="cls-44" d="M422.59,467.69s1.67-5.02,4.81-4.81l-5.45-5.98s-4.85-1.76-5.35,4.94l5.99,5.86Z"/>
      <path class="cls-33" d="M590.38,638.42s-92.72,20.2-106.91,65.92c0,0-11.83,93.82,19.71,201.83,0,0,36.73,18.57,59.59,5.16,0,0,2.06-28.91,.48-49.41,0,0,6.77,26.87,11.97,48.32,0,0,32.14,10.05,60.49-.21,0,0,16.9-100.33,.63-174.23,0,0,113.22,17.34,125.01-29.82,12.34-49.36-.5-67.34-.5-67.34,0,0-97.91,33.32-170.47-.24Z"/>
      <path class="cls-43" d="M459.22,530.54s8.53,6.76,4.71,10.4c0,0-1.09,2.36-2.91,2.91,0,0,4.36-.91,6,1.64s-.36,4-.36,4c0,0,3.45,1.45,1.64,3.09s-9.81,.36-9.81,.36l-8.91,2.18s-28.72-4-35.81-13.81c0,0-2.36-3.82,1.64-6.18,0,0-5.82-8.36,2.73-13.09,0,0-2-12.18,12.54-11.27l3.04,1.09,25.51,18.68"/>
      <polyline class="cls-18" points="423.64 523.58 434.94 531.91 461.02 543.84"/>
      <path class="cls-18" d="M424.64,538.45l11.5,7.14s15.27,5.61,30.53,3.9"/>
      <path class="cls-18" d="M458.48,552.93s-16.01,.38-26.91-5.17"/>
      <path class="cls-43" d="M450.72,525.75c-1.53-1.33-3.01-12.26,2.51-14.61,11.09-4.73,12.15,2.17,12.15,2.17,0,0,2,6.15-3.26,14.14,0,0-4.23,4.53-11.41-1.7Z"/>
      <path class="cls-43" d="M555.31,342.07s-7.36,14.4,5.31,40.92c0,0,5.02,6.06,6.57,14.43,0,0,.96,15.71,10.09,25.3,9.13,9.59,20.9,18.6,20.9,18.6,0,0,8.59,4.07,16.57-.55,0,0,14.56-.19,23.36-11.54,8.8-11.34,20.31-41.13,20.31-41.13,0,0,11.46-.87,10.79-12.77-.67-11.89,1.14-21.82-7.76-25.78-8.91-3.96-10.93,16.38-10.93,16.38,0,0-6.35-3.8-7.9-12.17,0,0-2.31-17.07-18.31-32.36,0,0-33.92-2.28-68.99,20.66Z"/>
      <path class="cls-39" d="M618.6,406.49s-8.3,.36-16.3,6.06c0,0-8.24,1.2-14.62,5.21,0,0,5.2,12.14,17.82,10.74s15.89-14.83,13.09-22.01Z"/>
      <path class="cls-32" d="M617.05,408.03s4.03,10.95-10.26,16.04c-12.98,4.62-16.56-5.12-16.56-5.12,0,0,14.85-4.55,26.82-10.92Z"/>
      <path class="cls-49" d="M597.99,365.75s12.94-9.65,27.67-8.72c0,0-9.91-7.91-29.65,4.39,0,0-2.52,4.1,1.99,4.33Z"/>
      <path class="cls-49" d="M558.92,378.36c9.61-5.15,15.64-3.81,15.64-3.81,3.27-2.92-1.14-4.42-1.14-4.42-6.99,.92-12.05,2.71-15.72,4.73,0,0,.69,3.77,1.22,3.49Z"/>
      <path class="cls-30" d="M615.33,408.82s-1.73,6.35-12.97,9.76c0,0-6.7,2.77-10.85,.17,0,0,14.36-4.77,23.82-9.92Z"/>
      <path class="cls-59" d="M615.9,441.3s16.72-3.23,21.4-11.19c0,0,6.36-6.7,11.81-20.11,0,0-4.56,22.14-18.6,29.06,0,0-6.46,3.66-14.61,2.24,0,0,.84,1.48,0,0Z"/>
      <path class="cls-4" d="M584.75,395.12s-1.57,17.32,12.19,10.14"/>
      <path class="cls-4" d="M664.62,361.09s-9.75-7.49-7.5,12.9c0,0,2.07-10.9,6.9-5.65"/>
      <g>
        <path class="cls-30" d="M615.86,369.26s-.11-.36-.47-.57c-1.18-.71-3.78-1.91-6.95-.91-3.55,1.12-4.46,5.07-4.75,6.47-.05,.24,.02,.42,.02,.42,0,0,.05,.2,.21,.3,.77,.48,3.24,1.72,6.62,.71,2.01-.6,4.48-2.56,5.37-5.82,.06-.23,0-.47-.05-.6Z"/>
        <circle class="cls-59" cx="608.73" cy="372.2" r="3.85"/>
        <circle class="cls-30" cx="610.81" cy="370.72" r="1.06"/>
        <path class="cls-6" d="M603.48,374.33s1.65-9.84,12.04-5.71"/>
      </g>
      <g>
        <path class="cls-30" d="M577.21,384.67s-.05-.35-.35-.6c-1-.83-3.24-2.31-6.33-1.84-3.46,.53-4.87,4.08-5.34,5.34-.08,.22-.04,.39-.04,.39,0,0,.02,.19,.15,.31,.65,.56,2.77,2.06,6.05,1.61,1.96-.27,4.53-1.74,5.82-4.65,.09-.2,.06-.44,.04-.56Z"/>
        <circle class="cls-59" cx="570.16" cy="386.37" r="3.61"/>
        <circle class="cls-30" cx="572.43" cy="385.34" r="1.01"/>
        <path class="cls-6" d="M565.14,387.7s2.6-9.36,11.84-3.5"/>
      </g>
      <path class="cls-11" d="M712.64,439.47s-26.87,1.05-36.35,31.61l-15.15,20.68s27.03,28.36,44.84,44.19c2.92,2.6,34.48-34.16,34.48-34.16"/>
      <path class="cls-13" d="M563.38,866.38s-16.69-123.8-12.58-151.52,50.87-39.38,50.87-39.38"/>
      <path class="cls-55" d="M503.18,906.17l1.11,16.16s36.19,10.13,60.32,1.4l-1.38-14.92s-44.76,6.43-60.05-2.64Z"/>
      <path class="cls-55" d="M575.22,910.25l.66,12.77s41.98,9.41,60.98-1.37l-1.15-11.61s-24.4,9.38-60.49,.21Z"/>
      <path class="cls-49" d="M548,340.41c3.71,21.67,9.7,34.45,9.7,34.45-5.58-28.45-.31-28.65-.31-28.65,18.49-22.74,63.66-18.89,63.66-18.89,14.68,15.32,29.47,42.98,29.47,42.98,3.31-23.34,14.05-18.98,14.05-18.98-5.33-55.51-42.96-48.13-42.96-48.13,0,0-17.98-10.6-30.02,.06,0,0-9.8-6.31-19.81,4.44,0,0-14.95-1.39-17.53,11.45,0,0-10.07-1.01-6.25,21.27Z"/>
      <path class="cls-18" d="M460.01,509.88s6.77-.25,6.02,5.02-.53,10.81-3.9,12.56"/>
    </g>
    <polygon class="cls-36" points="546.22 991.4 566.97 991.4 577.65 691.01 532.13 691.01 546.22 991.4"/>
    <path class="cls-23" d="M589.05,568.83l32.02,129.77s-28.83,14.41-63.26-4c0,0-10.41,16.02-35.24,2.4,0,0-8.81,7.21-47.25-.8,0,0-27.23-3.2-40.04,1.6,0,0-12.01,9.61-31.23-.8,0,0-16.82,8.01-32.03,0,0,0-20.02,4-44.04-3.2-24.02-7.21-61.66,12.81-61.66,12.81,0,0-6.41-12.01-28.03-8.81,0,0-19.22,11.21-34.43,1.6,0,0-21.62-7.21-70.47-.8,0,0-11.21,8.81-21.62,0,0,0-85.74,8.32-109.77-2.1l-1.99-127.67"/>
    <line class="cls-3" x1="557.8" y1="694.59" x2="551.74" y2="599.46"/>
    <line class="cls-3" x1="522.57" y1="696.99" x2="530.2" y2="624.44"/>
    <line class="cls-3" x1="372.02" y1="696.99" x2="380.38" y2="595.4"/>
    <path class="cls-3" d="M238.28,697.79s-14.98-62.79-18.94-103.71"/>
    <path class="cls-3" d="M266.31,706.6s14.41-42.56,11.11-100.64"/>
    <line class="cls-3" x1="133.38" y1="698.59" x2="127.6" y2="621.14"/>
    <line class="cls-3" x1="404.05" y1="696.99" x2="400.92" y2="638.62"/>
    <line class="cls-3" x1="435.28" y1="697.79" x2="431.56" y2="619.84"/>
    <line class="cls-3" x1="111.76" y1="698.59" x2="117.64" y2="643.39"/>
    <path class="cls-17" d="M593.92,512.41s-36.82,5.72-44.1,7.65"/>
  </g>
  <path class="cls-57" d="M1076.53,577.83s84.05-6.47,101.5,3.23c17.46,9.7,25.21,12.93,29.74,48.49,4.53,35.56-3.23,56.89,12.28,93.1,15.52,36.21,10.99,67.24,10.99,67.24,0,0-10.99,23.27,31.68,22.63s49.78,13.58,49.78,13.58c0,0,.41,8.07,17.15,16.93,0,0-43.01,.53-99.26,1.17s-120.25-3.23-122.84-62.07c0,0,.97-45.27,9.37-90.89,2.89-15.7-8.26-45.86-14.87-64.86-4.38-12.59-14.46-30.98-14.46-30.98l-30.47-.76s5.82-14.22,19.4-16.81Z"/>
  <path class="cls-2" d="M1126.92,592.37s33,39.48,12.37,116.08c0,0-8.25,18.27-5.89,43.02"/>
  <path class="cls-2" d="M1129.87,792.72s21.21,4.12,24.75-53.03c0,0,0-32.41,5.89-41.84"/>
  <path class="cls-2" d="M1144.6,587.06s34.77,11.79,38.89,68.94"/>
  <path class="cls-2" d="M1185.85,732.02s0,43.02,21.8,57.75"/>
  <path class="cls-2" d="M1162.28,809.22s21.21,.59,28.28-1.18,17.09-2.95,24.75,1.18c7.66,4.12,12.96,1.18,12.96,1.18"/>
  <g>
    <path class="cls-36" d="M204.41,917.72s-10.99,17.09-5.49,28.69c0,0,5.49,17.71,46.4,12.21,0,0,54.03,21.28,66.85-9.25,0,0-.91-18.22-45.48-23.72,0,0,5.49,14.65-14.04,14.04,0,0-37.85-.61-48.23-21.98Z"/>
    <path class="cls-43" d="M204.41,917.72s1.75-10.47,4.95-15.03c0,0-5.93-43.77-1.37-64.75,0,0,28.27,6.38,47.88,5.47,0,0-6.84,42.86-9.58,64.29,0,0-1.37,11.86,6.84,13.22l13.55,4.72s7.15,24.46-27.99,13.41c-35.14-11.04-34.29-21.35-34.29-21.35Z"/>
    <path class="cls-43" d="M181.26,214.3s-3,39.15-15.56,44.1c0,0,12.38,63.18,66.7,76.2,0,0,34.94-27.64,20.01-66.39,0,0-7.67-6.2-8.47-14.46,0,0-45.95-11.98-62.68-39.45Z"/>
    <path class="cls-50" d="M79.21,545.15s-3.55,138.63,9.24,282.95c0,0,118.02,46.21,219.68,.71,0,0,8.64-159.66,.07-249.19,0,0-110.3-61.86-228.99-34.47Z"/>
    <path class="cls-38" d="M177.96,182.03s-3.07-30.91,14.02-47.7c10.44-10.25,32.89-10.09,55.05-9.42,0,0,46.79,5.6,29.64,63.31,0,0-3.09,5.63-2.03,10.63,0,0,2.43,9.59-5,27.98-9.9,24.51-22.63,24.21-22.63,24.21,0,0-1.97,7.05-16.42,5.66,0,0-12.97,1.16-25.01-8.28,0,0-31.98-19.89-28.31-38.32,0,0-14.3,6.57-18.3-16.13,0,0-3.62-39.12,18.99-11.94Z"/>
    <path class="cls-4" d="M161.47,185.47s6.42-12.49,14.04,9.67c0,0-7.45-10.25-9.88-2.48"/>
    <path class="cls-21" d="M306.56,455.36c3,45.81,2.52,44.91,1.42,99.09-.38,18.77,.77,24.5,.22,25.17-19.71,24.06-86.35,21.59-86.35,21.59-3.39-.05-5.11-54.23-8.36-54.34s-8.13,53.84-11.29,53.66c-94-5.35-125.11-38.38-125.11-38.38l15.1-140.52c-20.9-44.13-10.78-85.79-10.78-85.79,3.46-25.24,22.56-49.91,22.56-49.91,22.76-24.25,63.32-29.07,63.32-29.07,13.99,21.43,29.22,35.77,29.22,35.77,0,0,34.74,24.97,51.99-5.91l3.91-18.52c16.39,6.97,39.77,20.93,39.77,20.93,20.8,13.14,25.18,53.09,25.18,53.09l28.58,64.33s19.26,47.52-39.38,48.8"/>
    <path class="cls-36" d="M136.61,928.2s-11.84,18.42-5.92,30.92c0,0,5.92,19.08,50.01,13.16,0,0,58.22,22.93,72.04-9.97,0,0-.98-19.64-49.01-25.56,0,0,5.92,15.79-15.13,15.13,0,0-40.79-.66-51.98-23.69Z"/>
    <path class="cls-59" d="M243.58,254.61s-7.83,3.15-13.48,1.92c0,0-20.24,1.16-38.39-18.74,0,0,4.99,7.27,16.37,14.86,0,0,13.35,9.2,36.81,5.72,0,0-.2-1.39-1.31-3.75Z"/>
    <line class="cls-4" x1="205.39" y1="178.16" x2="168.29" y2="173.72"/>
    <g>
      <circle class="cls-19" cx="110.26" cy="765.82" r="5.05"/>
      <circle class="cls-19" cx="106.7" cy="784.28" r="5.05"/>
      <circle class="cls-19" cx="114.59" cy="776.06" r="5.05"/>
      <circle class="cls-19" cx="96.65" cy="778.73" r="5.05"/>
      <circle class="cls-19" cx="99.81" cy="768.5" r="5.05"/>
    </g>
    <g>
      <circle class="cls-19" cx="142.8" cy="723.7" r="5.05"/>
      <circle class="cls-19" cx="139.24" cy="742.16" r="5.05"/>
      <circle class="cls-19" cx="147.13" cy="733.94" r="5.05"/>
      <circle class="cls-19" cx="129.19" cy="736.61" r="5.05"/>
      <circle class="cls-19" cx="132.34" cy="726.38" r="5.05"/>
    </g>
    <g>
      <circle class="cls-19" cx="110.73" cy="683.05" r="5.05"/>
      <circle class="cls-19" cx="107.17" cy="701.51" r="5.05"/>
      <circle class="cls-19" cx="115.06" cy="693.29" r="5.05"/>
      <circle class="cls-19" cx="97.12" cy="695.96" r="5.05"/>
      <circle class="cls-19" cx="100.28" cy="685.73" r="5.05"/>
    </g>
    <g>
      <circle class="cls-19" cx="171.71" cy="673.11" r="5.05"/>
      <circle class="cls-19" cx="168.15" cy="691.57" r="5.05"/>
      <circle class="cls-19" cx="176.03" cy="683.35" r="5.05"/>
      <circle class="cls-19" cx="158.1" cy="686.02" r="5.05"/>
      <circle class="cls-19" cx="161.25" cy="675.79" r="5.05"/>
    </g>
    <g>
      <circle class="cls-19" cx="297.27" cy="757.57" r="5.05"/>
      <circle class="cls-19" cx="293.71" cy="776.03" r="5.05"/>
      <circle class="cls-19" cx="301.6" cy="767.81" r="5.05"/>
      <circle class="cls-19" cx="283.66" cy="770.48" r="5.05"/>
      <circle class="cls-19" cx="286.81" cy="760.25" r="5.05"/>
    </g>
    <g>
      <circle class="cls-19" cx="263.84" cy="804.55" r="5.05"/>
      <circle class="cls-19" cx="260.28" cy="823" r="5.05"/>
      <circle class="cls-19" cx="268.17" cy="814.78" r="5.05"/>
      <circle class="cls-19" cx="250.24" cy="817.45" r="5.05"/>
      <circle class="cls-19" cx="253.39" cy="807.22" r="5.05"/>
    </g>
    <g>
      <circle class="cls-19" cx="198.35" cy="815.84" r="5.05"/>
      <circle class="cls-19" cx="194.79" cy="834.3" r="5.05"/>
      <circle class="cls-19" cx="202.68" cy="826.07" r="5.05"/>
      <circle class="cls-19" cx="184.74" cy="828.75" r="5.05"/>
      <circle class="cls-19" cx="187.9" cy="818.52" r="5.05"/>
    </g>
    <g>
      <circle class="cls-19" cx="157.25" cy="791.45" r="5.05"/>
      <circle class="cls-19" cx="153.69" cy="809.91" r="5.05"/>
      <circle class="cls-19" cx="161.58" cy="801.68" r="5.05"/>
      <circle class="cls-19" cx="143.64" cy="804.36" r="5.05"/>
      <circle class="cls-19" cx="146.8" cy="794.13" r="5.05"/>
    </g>
    <g>
      <circle class="cls-19" cx="209.19" cy="742.22" r="5.05"/>
      <circle class="cls-19" cx="205.63" cy="760.68" r="5.05"/>
      <circle class="cls-19" cx="213.52" cy="752.45" r="5.05"/>
      <circle class="cls-19" cx="195.58" cy="755.12" r="5.05"/>
      <circle class="cls-19" cx="198.74" cy="744.89" r="5.05"/>
    </g>
    <g>
      <circle class="cls-19" cx="261.13" cy="728.21" r="5.05"/>
      <circle class="cls-19" cx="257.57" cy="746.67" r="5.05"/>
      <circle class="cls-19" cx="265.46" cy="738.45" r="5.05"/>
      <circle class="cls-19" cx="247.53" cy="741.12" r="5.05"/>
      <circle class="cls-19" cx="250.68" cy="730.89" r="5.05"/>
    </g>
    <g>
      <circle class="cls-19" cx="234.94" cy="683.5" r="5.05"/>
      <circle class="cls-19" cx="231.38" cy="701.96" r="5.05"/>
      <circle class="cls-19" cx="239.27" cy="693.74" r="5.05"/>
      <circle class="cls-19" cx="221.33" cy="696.41" r="5.05"/>
      <circle class="cls-19" cx="224.48" cy="686.18" r="5.05"/>
    </g>
    <g>
      <circle class="cls-19" cx="295.38" cy="665.52" r="5.05"/>
      <circle class="cls-19" cx="291.82" cy="683.98" r="5.05"/>
      <circle class="cls-19" cx="299.7" cy="675.76" r="5.05"/>
      <circle class="cls-19" cx="281.77" cy="678.43" r="5.05"/>
      <circle class="cls-19" cx="284.92" cy="668.2" r="5.05"/>
    </g>
    <g>
      <circle class="cls-19" cx="297.18" cy="616.29" r="5.05"/>
      <circle class="cls-19" cx="293.62" cy="634.75" r="5.05"/>
      <circle class="cls-19" cx="301.51" cy="626.53" r="5.05"/>
      <circle class="cls-19" cx="283.57" cy="629.2" r="5.05"/>
      <circle class="cls-19" cx="286.73" cy="618.97" r="5.05"/>
    </g>
    <g>
      <circle class="cls-19" cx="242.98" cy="614.93" r="5.05"/>
      <circle class="cls-19" cx="239.42" cy="633.39" r="5.05"/>
      <circle class="cls-19" cx="247.31" cy="625.17" r="5.05"/>
      <circle class="cls-19" cx="229.37" cy="627.84" r="5.05"/>
      <circle class="cls-19" cx="232.53" cy="617.61" r="5.05"/>
    </g>
    <g>
      <circle class="cls-19" cx="210.01" cy="645.19" r="5.05"/>
      <circle class="cls-19" cx="206.45" cy="663.65" r="5.05"/>
      <circle class="cls-19" cx="214.34" cy="655.43" r="5.05"/>
      <circle class="cls-19" cx="196.4" cy="658.1" r="5.05"/>
      <circle class="cls-19" cx="199.56" cy="647.87" r="5.05"/>
    </g>
    <g>
      <circle class="cls-19" cx="170.72" cy="615.84" r="5.05"/>
      <circle class="cls-19" cx="167.16" cy="634.3" r="5.05"/>
      <circle class="cls-19" cx="175.05" cy="626.07" r="5.05"/>
      <circle class="cls-19" cx="157.11" cy="628.75" r="5.05"/>
      <circle class="cls-19" cx="160.26" cy="618.52" r="5.05"/>
    </g>
    <g>
      <circle class="cls-19" cx="121.08" cy="632.88" r="5.05"/>
      <circle class="cls-19" cx="117.52" cy="651.34" r="5.05"/>
      <circle class="cls-19" cx="125.41" cy="643.11" r="5.05"/>
      <circle class="cls-19" cx="107.47" cy="645.79" r="5.05"/>
      <circle class="cls-19" cx="110.62" cy="635.56" r="5.05"/>
    </g>
    <g>
      <circle class="cls-19" cx="108.88" cy="594.8" r="5.05"/>
      <circle class="cls-19" cx="105.32" cy="613.26" r="5.05"/>
      <circle class="cls-19" cx="113.2" cy="605.04" r="5.05"/>
      <circle class="cls-19" cx="95.27" cy="607.71" r="5.05"/>
      <circle class="cls-19" cx="98.42" cy="597.48" r="5.05"/>
    </g>
    <path class="cls-43" d="M136.61,928.2s1.89-11.28,5.33-16.19c0,0-6.39-47.17-1.47-69.78,0,0,30.47,6.88,51.6,5.9,0,0-7.37,46.19-10.32,69.29,0,0-1.47,12.78,7.37,14.25l14.61,5.09s7.71,26.36-30.16,14.45c-37.87-11.9-36.95-23.01-36.95-23.01Z"/>
    <path class="cls-43" d="M281.97,409.74l7.75-23.57v-14.57l16.44-10.85s7.13-1.86,3.41,4.96l-8.99,9.92-1.24,5.27,5.4-7.26,9.8-4.31,9.01,.59s2.55,4.9-2.94,3.53-11.95,6.66-11.95,6.66l-3.14,8.62s5.29-11.17,15.48-12.15l6.47,1.37s2.94,3.72-3.14,3.14-11.17,4.51-13.33,13.72l7.45-5.88,11.37-1.76s3.72,1.76-.39,3.92-14.7,11.37-14.7,11.37l-32.76,7.29Z"/>
    <path class="cls-1" d="M177.47,181.12s-3.07-30.91,14.02-47.7c10.44-10.25,32.89-10.09,55.05-9.42,0,0,46.79,5.6,29.64,63.31,0,0-3.09,5.63-2.03,10.63,0,0,2.43,9.59-5,27.98-9.9,24.51-22.63,24.21-22.63,24.21,0,0-1.97,7.05-16.42,5.66,0,0-12.97,1.16-25.01-8.28,0,0-31.98-19.89-28.31-38.32,0,0-14.3,6.57-18.3-16.13,0,0-3.62-39.12,18.99-11.94Z"/>
    <path class="cls-44" d="M234.93,177.18s-12.87-11.2-24.25-8.51c0,0,6.79-9.97,26.59,4.13,0,0,2.67,4.49-2.34,4.38Z"/>
    <path class="cls-4" d="M251.88,200.9s7.79,15.05-8.78,14.81"/>
    <path class="cls-4" d="M205.39,178.16l4.84,16.97s9.2,6.24,22.59,4.28l8.59-14.97s-16.83-10.4-36.01-6.27Z"/>
    <path class="cls-44" d="M207.13,135.22s31.32,16.23,51.04,2.43c0,0,6.05,11.69,22.03,26.84,0,0,2.11,8.85-6.62,28.35,0,0,4.66,16.45-6.47,36.58,0,0-9.16,17.92-20.11,21.63,0,0-1.69,2.21-3.43,3.56,0,0,4.3,6.64,9.48,6.58,0,0-3.13-6.81-.19-8.13,0,0,34.84-6.94,34.39-77.22,0,0,26.01-30.37-1.13-52.87-12.26-10.17-22.36-37.92-56.04-24.77,0,0-42.23-23.88-58.07,18.15,0,0-48.79,9.99-23.93,71.59,0,0-9.48,19.38,8.26,36.07,2.05,1.93,5.92,10.34,1.44,21.98-1.21,3.14,8.03-2.54,11.26-8.55,0,0,5.86-10.82,8.23-27.33,0,0-15.47,3.81-17.15-13.32,0,0-4.21-18.95,2.57-21.64,0,0,7.58-2.7,14.72,6.82,0,0,29.42-2.01,29.73-46.75Z"/>
    <path class="cls-44" d="M277.01,173.21c-.58-1.05-11.22-.11-20.72,2.99,0,0-3.94,3.55,.94,4.95,0,0,16.88-8.12,20.29-2.74,0,0,.92-2.61-.51-5.2Z"/>
    <path class="cls-4" d="M247.34,184.25l4.84,16.97s8.16,4.76,21.56,2.8l7.29-16.75s-14.5-7.14-33.68-3.02Z"/>
    <path class="cls-4" d="M247.34,184.25s-3.19-3.73-5.94,.18"/>
    <path class="cls-16" d="M216.48,155.22s14.47,2.47,21.28,4.45c6.8,1.98,27.09-2.11,27.09-2.11"/>
    <g>
      <path class="cls-30" d="M213.76,183.53s.03-.4,.35-.71c1.07-1.03,3.49-2.93,7.06-2.67,4,.29,5.92,4.21,6.57,5.6,.11,.24,.09,.44,.09,.44,0,0,0,.22-.15,.37-.69,.69-2.97,2.6-6.76,2.38-2.25-.13-5.33-1.58-7.06-4.78-.12-.22-.11-.49-.09-.64Z"/>
      <circle class="cls-59" cx="221.95" cy="184.85" r="4.14"/>
      <circle class="cls-30" cx="219.88" cy="182.12" r="1.14"/>
      <path class="cls-6" d="M227.98,185.78s-4.16-9.9-14.03-3"/>
    </g>
    <g>
      <path class="cls-30" d="M258.45,190.54s-.03-.38,.22-.71c.84-1.11,2.82-3.23,6.18-3.49,3.76-.3,6.11,3.07,6.91,4.27,.14,.21,.14,.4,.14,.4,0,0,.03,.21-.09,.36-.54,.74-2.39,2.85-5.94,3.18-2.11,.2-5.18-.7-7.25-3.43-.14-.19-.17-.44-.18-.58Z"/>
      <circle class="cls-59" cx="266.25" cy="190.59" r="3.88"/>
      <circle class="cls-30" cx="264.19" cy="188.44" r="1.09"/>
      <path class="cls-6" d="M271.84,190.73s-5.04-9.17-13.27-.74"/>
    </g>
    <path class="cls-16" d="M242.14,170.85s3.38,4.82-.72,8.32"/>
    <path class="cls-16" d="M249.86,171.82s-3.26,4.82,.12,8.92"/>
    <path class="cls-35" d="M218.52,225.65s10.04-3.29,18.83,.82c0,0,10.12,.04,13.96,6.34,0,0-17.08,6.67-32.79-7.16Z"/>
    <path class="cls-4" d="M216.35,223.85s-3.48,2.29,1.17,4.08"/>
    <path class="cls-4" d="M251.87,231.28s4.25,2.83-1.27,3.84"/>
    <path class="cls-4" d="M218.52,225.65s15.07,1.01,18.18,4.81c0,0,6.19-2.21,14.61,2.35"/>
    <circle class="cls-7" cx="223.16" cy="356.65" r="7.59"/>
    <circle class="cls-7" cx="225.21" cy="413.41" r="7.59"/>
    <circle class="cls-7" cx="224.69" cy="473.04" r="7.59"/>
    <path class="cls-43" d="M92.6,420.09s48.91,58.94,96.24,58.4,95.19-30.36,95.19-30.36l-25.01-32.2-69.04,7.12-23.51-15.67"/>
    <path class="cls-43" d="M314.73,402.45l-88.64,15.72s-24.55-12.48-33.29-12.9-14.98-4.58-14.98-4.58c0,0-7.07,4.99,1.25,10.82l12.9,2.91s-25.8-2.08-34.95,9.15c0,0-2.08,5.83,7.91,3.74l9.99-2.08,11.65,.42-24.97,7.07s-8.74,4.16,0,7.07l24.13-1.25-23.72,4.58s-5.41,4.16,.83,6.66,28.71-2.91,28.71-2.91l-17.89,5.83s-4.58,4.99,2.91,4.99l19.97-2.91s22.05,1.25,36.2-9.99l52.32,5.94s51.45,5.7,59.04-9.93c8.88-18.29,1.82-34.25,1.82-34.25"/>
    <path class="cls-14" d="M314.73,402.45l-88.64,15.72s-24.55-12.48-33.29-12.9-14.98-4.58-14.98-4.58c0,0-7.07,4.99,1.25,10.82l12.9,2.91s-25.8-2.08-34.95,9.15c0,0-2.08,5.83,7.91,3.74l9.99-2.08,11.65,.42-24.97,7.07s-8.74,4.16,0,7.07l24.13-1.25-23.72,4.58s-5.41,4.16,.83,6.66,28.71-2.91,28.71-2.91l-17.89,5.83s-4.58,4.99,2.91,4.99l19.97-2.91s22.05,1.25,36.2-9.99l44.52,4.16"/>
    <path class="cls-19" d="M165.04,402.19s-2.76-49.19-14.92-69.08"/>
    <path class="cls-12" d="M172.83,203.15s-5.33,8.09,.33,13.05c5.67,4.96,2.71-7.13,2.71-7.13"/>
  </g>
  <polygon class="cls-30" points="1131.91 936.66 1286.53 944.43 1305.96 925.43 1153.07 915.93 1131.91 936.66"/>
  <g>
    <rect class="cls-51" x="1078.14" y="912.44" width="138.03" height="16.77" transform="translate(2294.31 1841.64) rotate(-180)"/>
    <polygon class="cls-51" points="1276.06 897.17 1216.17 912.44 1078.14 912.44 1143.11 895.97 1276.06 897.17"/>
    <polygon class="cls-51" points="1272.48 908.47 1216.21 925.99 1216.17 929.2 1272.48 911 1272.48 908.47"/>
    <polygon class="cls-30" points="1272.48 898.29 1216.17 912.44 1216.17 926.96 1272.48 908.75 1272.48 898.29"/>
    <line class="cls-10" x1="1216.17" y1="912.44" x2="1078.14" y2="912.44"/>
    <polygon class="cls-10" points="1200.17 899.28 1166.75 899.28 1138.81 908.04 1174.14 908.04 1200.17 899.28"/>
  </g>
  <g>
    <rect class="cls-54" x="1071.65" y="895.62" width="138.03" height="16.77" transform="translate(2281.33 1808) rotate(-180)"/>
    <polygon class="cls-54" points="1269.57 880.35 1209.68 895.62 1071.65 895.62 1136.62 879.15 1269.57 880.35"/>
    <polygon class="cls-54" points="1265.99 891.65 1209.72 909.17 1209.68 912.38 1265.99 894.18 1265.99 891.65"/>
    <polygon class="cls-30" points="1265.99 881.47 1209.68 895.62 1209.68 910.14 1265.99 891.93 1265.99 881.47"/>
    <line class="cls-10" x1="1209.68" y1="895.62" x2="1071.65" y2="895.62"/>
    <polygon class="cls-10" points="1193.68 882.46 1160.26 882.46 1132.32 891.22 1167.66 891.22 1193.68 882.46"/>
  </g>
  <g>
    <circle class="cls-15" cx="1011.99" cy="148.45" r="57.31"/>
    <polyline class="cls-58" points="1014.58 148.35 1043.79 175.14 1009.71 148.58"/>
    <polygon class="cls-58" points="1014.58 148.35 1012.26 175.37 1009.71 148.29 1014.58 148.35"/>
    <line class="cls-5" x1="961.55" y1="148.73" x2="970.95" y2="148.73"/>
    <line class="cls-5" x1="1053.1" y1="148.73" x2="1062.51" y2="148.73"/>
    <line class="cls-5" x1="1012.34" y1="97.94" x2="1012.34" y2="107.34"/>
    <line class="cls-5" x1="1012.34" y1="189.49" x2="1012.34" y2="198.9"/>
  </g>
  <g>
    <path class="cls-53" d="M895.4,839.24l46.36-4.32c1.23-.11,2.18-1.12,2.23-2.36l1.12-29.32c.05-1.2-.8-2.25-1.98-2.46l-45.75-8.02"/>
    <path class="cls-53" d="M888.54,841.56s-3.85-25.8,1.57-51.66c0,0,3.01,21.62-1.57,51.66Z"/>
    <path class="cls-20" d="M888.54,841.56l5.87-.81c.55-.08,.99-.51,1.06-1.06,.68-5.16,3.81-30.59,1.93-47.17-.09-.81-.71-1.45-1.51-1.59l-5.77-1.03s2.84,24.77-1.57,51.66Z"/>
  </g>
</svg>