<?xml version="1.0" encoding="UTF-8"?>
<svg id="Layer_1" data-name="Layer 1" xmlns="http://www.w3.org/2000/svg" xmlns:xlink="http://www.w3.org/1999/xlink" viewBox="0 0 1650.96 1237.96">
  <defs>
    <style>
      .cls-1, .cls-2, .cls-3, .cls-4, .cls-5, .cls-6, .cls-7 {
        fill: none;
      }

      .cls-8 {
        clip-path: url(#clippath);
      }

      .cls-9 {
        fill: #f9d7cd;
      }

      .cls-10 {
        fill: #f8c184;
      }

      .cls-11 {
        fill: #f9e4c2;
      }

      .cls-12 {
        fill: #017d75;
      }

      .cls-13 {
        fill: #00979c;
      }

      .cls-14 {
        fill: #00714f;
      }

      .cls-15 {
        fill: #e6e7e8;
      }

      .cls-16 {
        fill: #eaac6e;
      }

      .cls-17 {
        fill: #e96d42;
      }

      .cls-18 {
        fill: #f05380;
      }

      .cls-19, .cls-20, .cls-21, .cls-22 {
        fill: #fff;
      }

      .cls-23 {
        fill: #f5bc49;
      }

      .cls-24 {
        fill: #ffcc41;
      }

      .cls-25 {
        fill: #f16225;
      }

      .cls-26 {
        fill: #7ec380;
      }

      .cls-27 {
        fill: #803435;
      }

      .cls-28 {
        fill: #016041;
      }

      .cls-29 {
        fill: #9ecb54;
      }

      .cls-30 {
        fill: #8dd5e7;
      }

      .cls-31 {
        fill: #cf9f73;
      }

      .cls-32 {
        fill: #bcbec0;
      }

      .cls-33 {
        fill: #a7a9ac;
      }

      .cls-34, .cls-35 {
        fill: #be9e7d;
      }

      .cls-36 {
        fill: #be8c8c;
      }

      .cls-37 {
        fill: #bf6b6b;
      }

      .cls-38 {
        fill: #d784b7;
      }

      .cls-39 {
        fill: #e19e63;
      }

      .cls-40 {
        fill: #acd8f4;
      }

      .cls-41 {
        fill: #134a7e;
      }

      .cls-42 {
        fill: #231f20;
      }

      .cls-43 {
        fill: #1fa8df;
      }

      .cls-44 {
        fill: #1c75bc;
      }

      .cls-45 {
        fill: #414d21;
      }

      .cls-46 {
        fill: #0f3e5d;
      }

      .cls-47 {
        fill: #0e8e81;
      }

      .cls-48 {
        fill: #6ca442;
      }

      .cls-49 {
        fill: #808285;
      }

      .cls-50 {
        fill: #288348;
      }

      .cls-51 {
        fill: #3c2415;
      }

      .cls-52 {
        fill: #59bede;
      }

      .cls-53 {
        fill: #5e8f59;
      }

      .cls-54 {
        fill: #517569;
      }

      .cls-55 {
        fill: #50804a;
      }

      .cls-56 {
        fill: #79c79d;
      }

      .cls-57 {
        fill: #26130f;
      }

      .cls-58 {
        fill: #517843;
      }

      .cls-2 {
        stroke-linecap: round;
      }

      .cls-2, .cls-35, .cls-59, .cls-20, .cls-60, .cls-21, .cls-61, .cls-3, .cls-4, .cls-5, .cls-6, .cls-7 {
        stroke-miterlimit: 10;
      }

      .cls-2, .cls-35, .cls-5, .cls-6, .cls-7 {
        stroke-width: .5px;
      }

      .cls-2, .cls-3 {
        stroke: #231f20;
      }

      .cls-35, .cls-7 {
        stroke: #754c29;
      }

      .cls-59 {
        fill: #939598;
        stroke: #a7a9ac;
      }

      .cls-20 {
        stroke: #6d6e71;
      }

      .cls-60 {
        fill: #8b5e3c;
      }

      .cls-60, .cls-61 {
        stroke: #8b5e3c;
      }

      .cls-21 {
        stroke: #006838;
      }

      .cls-61 {
        fill: #a97c50;
      }

      .cls-4 {
        stroke: #fbb040;
      }

      .cls-22 {
        opacity: .8;
      }

      .cls-5 {
        stroke: #f8b8a7;
      }

      .cls-6 {
        stroke: #603913;
      }
    </style>
    <clipPath id="clippath">
      <rect class="cls-1" x="310.26" y="235.69" width="1336.13" height="1000.74"/>
    </clipPath>
  </defs>
  <g class="cls-8">
    <g>
      <rect class="cls-30" x="1.48" y="2.25" width="1647.75" height="236.35"/>
      <polygon class="cls-17" points="449.24 230.31 884.84 143.52 1310.3 230.31 1310.3 538.59 449.24 538.59 449.24 230.31"/>
      <rect class="cls-9" x="496.61" y="270.47" width="168.57" height="268.01"/>
      <rect class="cls-9" x="448.24" y="411.3" width="861.99" height="127.17"/>
      <polygon class="cls-15" points="1648.88 976.49 1649.55 1236.56 2.54 1236.34 0 538.59 1310.48 538.59 1648.88 976.49"/>
      <rect class="cls-33" x="1.22" y="596.27" width="1232.89" height="11.68"/>
      <polygon class="cls-33" points="1233.36 596.44 1594.69 1236.21 1565.74 1237.96 1228.66 608.32 1233.36 596.44"/>
      <polygon class="cls-44" points="1563.01 866.93 1310.3 537.93 1310.3 230.31 1648.95 10.14 1647.53 866.86 1563.01 866.93"/>
      <path class="cls-19" d="M656.39,107.69l-114.59-2.27s-26.28-8.34-24.96-23.82c2.27-26.7,23.82-24.96,23.82-24.96,0,0,1.13-30.63,35.17-30.63,0,0,26.09-2.27,26.09,30.63,0,0,13.61-21.56,36.3-7.94,0,0,15.88,17.02,2.27,26.09,0,0,29.5-20.42,37.44,5.67,0,0,6.81,28.36-21.56,27.23"/>
      <path class="cls-19" d="M326.68,129.12l-114.59-2.27s-26.28-8.34-24.96-23.82c2.27-26.7,23.82-24.96,23.82-24.96,0,0,1.13-30.63,35.17-30.63,0,0,26.09-2.27,26.09,30.63,0,0,13.61-21.56,36.3-7.94,0,0,15.88,17.02,2.27,26.09,0,0,29.5-20.42,37.44,5.67,0,0,6.81,28.36-21.56,27.23"/>
      <path class="cls-22" d="M748.76,135.86l-83.29-1.65s-19.1-6.06-18.14-17.32c1.65-19.41,17.32-18.14,17.32-18.14,0,0,.82-22.27,25.56-22.27,0,0,18.97-1.65,18.97,22.27,0,0,9.9-15.67,26.39-5.77,0,0,11.55,12.37,1.65,18.97,0,0,21.44-14.84,27.21,4.12,0,0,4.95,20.62-15.67,19.79"/>
      <path class="cls-22" d="M1159.43,65.16l-71.24-1.41s-16.34-5.18-15.52-14.81c1.41-16.6,14.81-15.52,14.81-15.52,0,0,.71-19.05,21.87-19.05,0,0,16.22-1.41,16.22,19.05,0,0,8.46-13.4,22.57-4.94,0,0,9.88,10.58,1.41,16.22,0,0,18.34-12.7,23.28,3.53,0,0,4.23,17.63-13.4,16.93"/>
      <path class="cls-22" d="M1003.5,108.02l-71.24-1.41s-16.34-5.18-15.52-14.81c1.41-16.6,14.81-15.52,14.81-15.52,0,0,.71-19.05,21.87-19.05,0,0,16.22-1.41,16.22,19.05,0,0,8.46-13.4,22.57-4.94,0,0,9.88,10.58,1.41,16.22,0,0,18.34-12.7,23.28,3.53,0,0,4.23,17.63-13.4,16.93"/>
      <rect class="cls-61" x="521.36" y="291.11" width="120.67" height="242.99"/>
      <rect class="cls-60" x="546.52" y="308.38" width="29.11" height="58.61"/>
      <rect class="cls-60" x="546.52" y="377.71" width="29.11" height="58.61"/>
      <rect class="cls-60" x="546.52" y="447.37" width="29.11" height="58.61"/>
      <rect class="cls-60" x="587.67" y="308.38" width="29.11" height="58.61"/>
      <rect class="cls-60" x="587.67" y="377.71" width="29.11" height="58.61"/>
      <rect class="cls-60" x="587.67" y="447.37" width="29.11" height="58.61"/>
      <rect class="cls-17" x="510.66" y="514.77" width="142.23" height="23.71"/>
      <polygon class="cls-23" points="1.31 160.2 54.57 143.52 449.97 230.31 449.97 538.59 1.31 538.59 1.31 160.2"/>
      <rect class="cls-11" x="229.24" y="270.47" width="168.57" height="268.01"/>
      <rect class="cls-11" x=".11" y="411.3" width="451.2" height="127.17"/>
      <rect class="cls-61" x="253.98" y="291.11" width="120.67" height="242.99"/>
      <rect class="cls-60" x="279.14" y="308.38" width="29.11" height="58.61"/>
      <rect class="cls-60" x="279.14" y="377.71" width="29.11" height="58.61"/>
      <rect class="cls-60" x="279.14" y="447.37" width="29.11" height="58.61"/>
      <rect class="cls-60" x="320.3" y="308.38" width="29.11" height="58.61"/>
      <rect class="cls-60" x="320.3" y="377.71" width="29.11" height="58.61"/>
      <rect class="cls-60" x="320.3" y="447.37" width="29.11" height="58.61"/>
      <rect class="cls-44" x="243.29" y="514.77" width="142.23" height="23.71"/>
      <rect class="cls-17" x="830.99" y="409.23" width="171.6" height="23.71"/>
      <g>
        <path class="cls-50" d="M748.7,444.63s11.31,42.65,40.95,41.52c0,0-28.62-39.61-40.95-41.52Z"/>
        <path class="cls-50" d="M842.67,445.27s-11.31,42.65-40.95,41.52c0,0,28.62-39.61,40.95-41.52Z"/>
        <path class="cls-50" d="M781.44,386.38s-2.3,71.56,8.21,99.77c0,0,9.23-72.88-8.21-99.77Z"/>
        <path class="cls-50" d="M830.98,382.23s-30.83,47.41-33.59,103.96c0,0,31.68-43.37,33.59-103.96Z"/>
        <path class="cls-29" d="M770.85,391.88s4.63,35.15,1.63,55.58c-3,20.43,17.16,38.69,17.16,38.69,0,0,8.72-18.8-.54-45.77-9.26-26.97-18.25-48.5-18.25-48.5Z"/>
        <path class="cls-26" d="M752.53,409.34s9.19,75.39,37.12,76.81c0,0-17.77-50.02-25.85-63.84-8.08-13.82-11.27-12.97-11.27-12.97Z"/>
        <path class="cls-48" d="M797.81,390.52s-3.61,37.63-10.63,54.85c-7.02,17.22,2.47,40.78,2.47,40.78,0,0,4.55,1.96,10.93,.68,0,0,17.01-36.14,6.59-76.96,0,0-3.61-14.24-9.35-19.35Z"/>
        <path class="cls-29" d="M841.18,402.85s-48.9,70.8-40.61,83.98c0,0,15.94,.64,35.5-54.64,0,0,7.65-17.65,5.1-29.34Z"/>
        <polygon class="cls-10" points="762.7 484.46 771.84 539.1 820.95 539.1 830.1 485.31 762.7 484.46"/>
        <rect class="cls-16" x="760.87" y="476.87" width="71.4" height="8.69"/>
      </g>
      <g>
        <path class="cls-50" d="M119.93,423.2s13.88,52.32,50.24,50.94c0,0-35.11-48.59-50.24-50.94Z"/>
        <path class="cls-50" d="M235.22,423.98s-13.88,52.32-50.24,50.94c0,0,35.11-48.59,50.24-50.94Z"/>
        <path class="cls-50" d="M160.09,351.73s-2.82,87.8,10.07,122.41c0,0,11.32-89.42-10.07-122.41Z"/>
        <path class="cls-50" d="M220.87,346.64s-37.82,58.17-41.21,127.55c0,0,38.86-53.21,41.21-127.55Z"/>
        <path class="cls-29" d="M147.1,358.48s5.68,43.12,2.01,68.19c-3.68,25.07,21.06,47.47,21.06,47.47,0,0,10.7-23.07-.67-56.16-11.37-33.09-22.4-59.5-22.4-59.5Z"/>
        <path class="cls-26" d="M124.62,379.9s11.27,92.49,45.54,94.24c0,0-21.81-61.38-31.72-78.33-9.91-16.95-13.82-15.91-13.82-15.91Z"/>
        <path class="cls-48" d="M180.18,356.81s-4.43,46.17-13.04,67.3c-8.61,21.13,3.03,50.03,3.03,50.03,0,0,5.58,2.4,13.41,.83,0,0,20.87-44.34,8.09-94.42,0,0-4.43-17.48-11.48-23.74Z"/>
        <path class="cls-29" d="M233.39,371.94s-59.99,86.86-49.82,103.03c0,0,19.56,.78,43.56-67.04,0,0,9.39-21.65,6.26-36Z"/>
        <polygon class="cls-39" points="137.1 472.07 148.32 539.1 208.57 539.1 219.79 473.11 137.1 472.07"/>
        <rect class="cls-16" x="134.86" y="462.76" width="87.6" height="10.66"/>
      </g>
      <polygon class="cls-40" points="1310.23 411.3 1647.53 634.24 1647.53 866.86 1649.27 977.58 1310.3 537.93 1310.23 411.3"/>
      <polygon class="cls-40" points="1417.71 676.72 1339.39 575.76 1339.39 278.98 1417.71 256.25 1417.71 676.72"/>
      <polygon class="cls-61" points="1403.2 659.11 1348.97 588.29 1348.77 286.34 1403.2 273.46 1403.2 659.11"/>
      <rect class="cls-33" x="1367" y="637.75" width="40.4" height="29.19"/>
      <polygon class="cls-23" points="1366.81 637.75 1311.69 571.88 1311.04 596.49 1366.81 666.94 1366.81 637.75"/>
      <polygon class="cls-15" points="1311.69 571.88 1346.76 573.89 1407.4 637.75 1367 637.75 1311.69 571.88"/>
      <polygon class="cls-60" points="1368.07 298.24 1357.91 299.91 1357.5 352.63 1368.07 355.01 1368.07 298.24"/>
      <polygon class="cls-60" points="1388.03 295.62 1377.88 297.49 1377.46 356.51 1388.03 359.18 1388.03 295.62"/>
      <ellipse class="cls-59" cx="1391.79" cy="446.54" rx="1.47" ry="8.23"/>
      <ellipse class="cls-32" cx="1389.45" cy="446.54" rx="1.47" ry="8.23"/>
      <g>
        <path class="cls-47" d="M144.57,454.9s7.7,24.88-15.5,48.25c0,0-18.71-13.95-1.66-34.68,0,0,10.04-9.55,17.16-13.57Z"/>
        <path class="cls-17" d="M88.7,494.57v21.79s.39,13.84,13.6,22.75h22.27s13.4-6.68,13.99-23.07v-22.11l-49.86,.64Z"/>
        <path class="cls-14" d="M124.36,496.72s23.11-17.76,39.66-11.21c0,0,3.1,25.87-25.52,17.59,0,0-8.79-5.69-14.14-6.38Z"/>
        <path class="cls-12" d="M167.44,467.02s-26.04,.3-41.12,25.74c0,0,19.04,11.73,33.51-7.92,0,0,4.57-13.1,7.61-17.82Z"/>
        <path class="cls-14" d="M99.08,451.76s-15.87,37.27,21.4,40.04c0,0,12.55-26.02-21.4-40.04Z"/>
        <path class="cls-47" d="M76.2,459.88s-16.24,21.59,26.02,27.31l6.64,.37s-7.38-20.67-32.66-27.68Z"/>
        <path class="cls-12" d="M106.48,482.68s-48.16-2.77-48.71,7.38c-.55,10.15,28.41,8.12,28.41,8.12,0,0,15.68-2.4,25.46-11.62"/>
        <path class="cls-47" d="M135.62,487.69s-25.07-2.59-37.52-.32c0,0-18.11,17.79,1.78,24.42,0,0,10.35,3.88,20.38-14.72,0,0,6.63-8.09,15.36-9.38Z"/>
        <path class="cls-28" d="M135.62,487.69s4.29,2.95,4.04,9.73c0,0-13.16,3.32-20.32,.89,0,0,4.45-9.36,16.28-10.62Z"/>
        <path class="cls-5" d="M89.22,512.03s24.11,12.33,48.77,0"/>
        <path class="cls-5" d="M89.22,516.13s24.11,12.33,48.77,0"/>
      </g>
      <g>
        <rect class="cls-9" x="945.97" y="356" width="56.18" height="55.84"/>
        <path class="cls-49" d="M971.17,361.67s-3.57,16.21-20.23,19.54v-19.67l20.23,.12Z"/>
        <path class="cls-49" d="M976.25,361.67s3.57,16.21,20.23,19.54v-19.67s-20.23,.12-20.23,.12Z"/>
        <path class="cls-49" d="M971.17,406.14s-3.57-16.21-20.23-19.54v19.67l20.23-.12Z"/>
        <path class="cls-49" d="M976.25,406.14s3.57-16.21,20.23-19.54v19.67s-20.23-.12-20.23-.12Z"/>
        <path class="cls-49" d="M973.71,368.51s-3.38,9.73-15.26,14.99c0,0,14.18,6.08,15.26,15.67,0,0,4.59-11.48,15.53-15.26,0,0-10.81-5.54-15.53-15.4Z"/>
      </g>
      <g>
        <rect class="cls-9" x="889.51" y="356" width="56.18" height="55.84"/>
        <path class="cls-49" d="M914.7,361.67s-3.57,16.21-20.23,19.54v-19.67l20.23,.12Z"/>
        <path class="cls-49" d="M919.79,361.67s3.57,16.21,20.23,19.54v-19.67s-20.23,.12-20.23,.12Z"/>
        <path class="cls-49" d="M914.7,406.14s-3.57-16.21-20.23-19.54v19.67l20.23-.12Z"/>
        <path class="cls-49" d="M919.79,406.14s3.57-16.21,20.23-19.54v19.67s-20.23-.12-20.23-.12Z"/>
        <path class="cls-49" d="M917.24,368.51s-3.38,9.73-15.26,14.99c0,0,14.18,6.08,15.26,15.67,0,0,4.59-11.48,15.53-15.26,0,0-10.81-5.54-15.53-15.4Z"/>
      </g>
      <g>
        <rect class="cls-9" x="833.13" y="356" width="56.18" height="55.84"/>
        <path class="cls-49" d="M858.32,361.67s-3.57,16.21-20.23,19.54v-19.67l20.23,.12Z"/>
        <path class="cls-49" d="M863.41,361.67s3.57,16.21,20.23,19.54v-19.67s-20.23,.12-20.23,.12Z"/>
        <path class="cls-49" d="M858.32,406.14s-3.57-16.21-20.23-19.54v19.67l20.23-.12Z"/>
        <path class="cls-49" d="M863.41,406.14s3.57-16.21,20.23-19.54v19.67s-20.23-.12-20.23-.12Z"/>
        <path class="cls-49" d="M860.86,368.51s-3.38,9.73-15.26,14.99c0,0,14.18,6.08,15.26,15.67,0,0,4.59-11.48,15.53-15.26,0,0-10.81-5.54-15.53-15.4Z"/>
      </g>
      <g>
        <rect class="cls-9" x="945.97" y="299.96" width="56.18" height="55.84"/>
        <path class="cls-49" d="M971.17,305.64s-3.57,16.21-20.23,19.54v-19.67l20.23,.12Z"/>
        <path class="cls-49" d="M976.25,305.64s3.57,16.21,20.23,19.54v-19.67s-20.23,.12-20.23,.12Z"/>
        <path class="cls-49" d="M971.17,350.11s-3.57-16.21-20.23-19.54v19.67l20.23-.12Z"/>
        <path class="cls-49" d="M976.25,350.11s3.57-16.21,20.23-19.54v19.67s-20.23-.12-20.23-.12Z"/>
        <path class="cls-49" d="M973.71,312.47s-3.38,9.73-15.26,14.99c0,0,14.18,6.08,15.26,15.67,0,0,4.59-11.48,15.53-15.26,0,0-10.81-5.54-15.53-15.4Z"/>
      </g>
      <g>
        <rect class="cls-9" x="889.51" y="299.96" width="56.18" height="55.84"/>
        <path class="cls-49" d="M914.7,305.64s-3.57,16.21-20.23,19.54v-19.67l20.23,.12Z"/>
        <path class="cls-49" d="M919.79,305.64s3.57,16.21,20.23,19.54v-19.67s-20.23,.12-20.23,.12Z"/>
        <path class="cls-49" d="M914.7,350.11s-3.57-16.21-20.23-19.54v19.67l20.23-.12Z"/>
        <path class="cls-49" d="M919.79,350.11s3.57-16.21,20.23-19.54v19.67s-20.23-.12-20.23-.12Z"/>
        <path class="cls-49" d="M917.24,312.47s-3.38,9.73-15.26,14.99c0,0,14.18,6.08,15.26,15.67,0,0,4.59-11.48,15.53-15.26,0,0-10.81-5.54-15.53-15.4Z"/>
      </g>
      <g>
        <rect class="cls-9" x="833.13" y="299.96" width="56.18" height="55.84"/>
        <path class="cls-49" d="M858.32,305.64s-3.57,16.21-20.23,19.54v-19.67l20.23,.12Z"/>
        <path class="cls-49" d="M863.41,305.64s3.57,16.21,20.23,19.54v-19.67s-20.23,.12-20.23,.12Z"/>
        <path class="cls-49" d="M858.32,350.11s-3.57-16.21-20.23-19.54v19.67l20.23-.12Z"/>
        <path class="cls-49" d="M863.41,350.11s3.57-16.21,20.23-19.54v19.67s-20.23-.12-20.23-.12Z"/>
        <path class="cls-49" d="M860.86,312.47s-3.38,9.73-15.26,14.99c0,0,14.18,6.08,15.26,15.67,0,0,4.59-11.48,15.53-15.26,0,0-10.81-5.54-15.53-15.4Z"/>
      </g>
      <polygon class="cls-29" points="385.52 538.47 318.46 784.89 578.76 784.89 510.66 538.47 385.52 538.47"/>
      <polygon class="cls-29" points="1407.4 666.94 1073.19 666.94 1126.9 841.36 1544.03 841.36 1407.4 666.94"/>
      <polygon class="cls-15" points="1371.56 841.26 1371.56 875.6 1350.57 840.31 1371.56 841.26"/>
      <polygon class="cls-32" points="1.31 160.2 54.57 143.52 449.97 230.31 884.84 143.52 1240.25 215.69 1240.25 183.12 884.34 114.35 450.01 198.8 51.88 103.49 2.97 125.98 1.31 160.2"/>
      <g>
        <path class="cls-55" d="M537.98,62.07s-20.29-2.3-45.07,33.32c-24.78,35.62-75.89,128.03-29.94,165.2,0,0,29.94,13.42,48.01-26.33,18.07-39.75,27.88-89.31,27.88-89.31,0,0,34.91-72.84-.87-82.88Z"/>
        <path class="cls-29" d="M508.21,385.62s35.16-37.62,106.31-8.18c71.15,29.44,68.69,54.79,68.69,54.79,0,0-3.27,14.72-23.72,9.81l-24.53-8.18-7.36-22.9-3.27,17.17-36.8-9.81-5.72-20.44-2.45,17.99s-63.79-8.18-71.15-30.26Z"/>
        <path class="cls-48" d="M534.53,303.36s33.12-46.69,112.77-21.27c79.64,25.42,80.05,54.49,80.05,54.49,0,0-1.74,17.09-24.2,13.82l-27.23-6.52-10.61-25.18-1.45,19.87-40.55-7-8.57-22.58-.47,20.71s-69.22-2.1-79.74-26.35Z"/>
        <path class="cls-29" d="M519.23,244.73s-7.89-56.7,67.52-92.79c75.41-36.09,95.63-15.21,95.63-15.21,0,0,10.45,13.63-8.14,26.65l-24.29,13.92-24.99-11.05,12.57,15.46-34.32,22.7-21.72-10.56,13.85,15.4s-51.84,45.93-76.12,35.48Z"/>
        <path class="cls-53" d="M480.49,289.77s.87-57.24,80.91-81.37c80.04-24.14,96.84-.4,96.84-.4,0,0,8.24,15.07-12.12,25.09l-26.14,10.04-23-14.75,10.06,17.2-37.39,17.19-19.85-13.76,11.34,17.34s-58.25,37.46-80.65,23.42Z"/>
        <path class="cls-58" d="M542.26,277.05s24.7-56.64,120.59-59.79c95.89-3.15,104.06,24.8,104.06,24.8,0,0,2.58,17.12-23.42,21.77l-32.21,3.17-18.56-20.64,3.65,19.71-47.24,7.35-15.58-18.83,4.96,20.18s-78.05,22.06-96.25,2.28Z"/>
        <path class="cls-48" d="M458.15,300.04s15.75-59.75-57.53-121.69c-73.28-61.94-97.02-45.07-97.02-45.07,0,0-12.64,11.83,4.87,31.61l23.3,22.46,27.36-4.68-15.09,13.2,32.51,35.06,23.9-5.11-16.41,12.75s47.55,65.7,74.09,61.48Z"/>
        <path class="cls-29" d="M376.1,264.48s-.72-61.79-87.83-101.99c-87.12-40.2-105.51-17.63-105.51-17.63,0,0-9.04,14.76,13.11,29.17l28.44,15.45,25.12-11.79-11.03,16.74,40.67,25.14,21.68-11.29-12.42,16.66s63.32,50.68,87.78,39.54Z"/>
        <path class="cls-48" d="M376.19,266.9s-27.87-55.15-123.79-52.85c-95.92,2.3-102.48,30.67-102.48,30.67,0,0-1.61,17.24,24.62,20.41l32.34,1.34,17.36-21.66-2.53,19.88,47.58,4.65,14.49-19.69-3.81,20.43s79.17,17.59,96.22-3.18Z"/>
        <path class="cls-29" d="M374.26,260.38s-48.63-38.12-134.52,4.65c-85.88,42.77-79.8,71.25-79.8,71.25,0,0,5.85,16.29,30.96,8.04l29.85-12.51,6.53-26.98,6.15,19.08,45.06-15.97,4.77-23.97,5.22,20.11s79.16-17.65,85.79-43.7Z"/>
        <path class="cls-48" d="M395.83,357.83s-43.43-43.96-134.03-12.38c-90.6,31.58-88.16,60.59-88.16,60.59,0,0,3.75,16.9,29.69,11.88l31.19-8.64,9.89-25.93,3.69,19.7,46.72-10.15,7.76-23.18,2.63,20.61s80.76-7.51,90.62-32.51Z"/>
        <path class="cls-58" d="M419.74,288.71s-17.18-54.76-94.2-43.16c-77.03,11.6-84.93,41.77-84.93,41.77,0,0-2.9,18.1,17.81,18.89l25.77-1.71,15.92-24.22-3.88,20.95,37.67,.28,13.44-21.89-4.96,21.64s61.76,10.72,77.36-12.55Z"/>
        <path class="cls-48" d="M424.11,672.63s10.57-140.26,10.57-235.38c0,0,24.02,30.74,23.06,40.35,0,0,1.05-49.47,50.48-91.98l9.08,9.36s-41.31,17.29-49,88.39c-7.69,71.09,17.29,195.99,17.29,195.99l-61.49-6.73Z"/>
        <path class="cls-55" d="M457.73,477.61s-9.46-27.17-23.06-40.35c0,0-14.43-62.38-46.11-73.22l7.27-6.22s26.92,20.39,38.59,44.57c0,0-16.68-69.2-60.03-100.05l15.84-1.67s44.19,60.87,50.86,80.88c6.67,20.01,4.17,38.35,4.17,38.35l6.67-11.67s-1.67-95.05,33.35-127.57l4.71,7s-25.56,45.53-23.89,96.39c0,0,22.25-77.27,76.16-107l20.56,3.61s-60.03,15.01-86.71,120.06c0,0-9.17,23.35-6.67,30.85,0,0-15.07,34.53-11.7,46.03Z"/>
        <path class="cls-48" d="M419.74,288.71s28.87,21.61,26.67,60.23c0,0,36.41-217.36,91.58-286.87l8.83,5.52s-82.75,139.02-79.44,241.63c0,0-17.65,75.56-15.44,99.02l-6.67,11.67-4.17-38.35s.91-53.58-29.99-88.89l8.64-3.96Z"/>
        <path class="cls-24" d="M310.21,413.35s-7.06-11.48-9.27-3.09,4.86,37.08,27.81,41.93c0,0,3.97,0,7.06-.88s6.18,3.09,13.68,0c0,0,6.62,4.41,12.36-.88,0,0,7.94,1.77,11.92-.88,0,0,4.86,6.18,12.8,3.53,0,0,3.97,3.97,11.03,0,0,0,24.28-11.48,18.98-42.81,0,0-9.27-4.41-9.71,3.97,0,0-5.74-12.8-13.68-1.32l-3.97,5.3s-.44-12.8-5.74-12.36-12.8,13.68-12.8,13.68c0,0-5.74-22.51-11.48-16.33s-7.06,19.42-7.06,19.42c0,0-16.77-25.16-19.86-15.89s-1.32,17.21-1.32,17.21c0,0-10.15-21.63-14.12-18.1-3.97,3.53-6.62,7.5-6.62,7.5Z"/>
        <ellipse class="cls-45" cx="414.38" cy="406.07" rx="2.21" ry="4.19"/>
        <ellipse class="cls-45" cx="401.11" cy="405.92" rx="2.21" ry="4.19"/>
        <ellipse class="cls-45" cx="384.96" cy="403.43" rx="2.21" ry="4.19"/>
        <ellipse class="cls-45" cx="359.14" cy="401.39" rx="2.21" ry="4.19"/>
        <ellipse class="cls-45" cx="332.86" cy="403.04" rx="2.21" ry="4.19"/>
        <ellipse class="cls-45" cx="317.11" cy="404.36" rx="2.21" ry="4.19"/>
        <ellipse class="cls-45" cx="302.34" cy="404.91" rx="2.21" ry="4.19"/>
        <path class="cls-24" d="M310.21,477.95s-7.06-11.48-9.27-3.09,4.86,37.08,27.81,41.93c0,0,3.97,0,7.06-.88s6.18,3.09,13.68,0c0,0,6.62,4.41,12.36-.88,0,0,7.94,1.77,11.92-.88,0,0,4.86,6.18,12.8,3.53,0,0,3.97,3.97,11.03,0,0,0,24.28-11.48,18.98-42.81,0,0-9.27-4.41-9.71,3.97,0,0-5.74-12.8-13.68-1.32l-3.97,5.3s-.44-12.8-5.74-12.36-12.8,13.68-12.8,13.68c0,0-5.74-22.51-11.48-16.33-5.74,6.18-7.06,19.42-7.06,19.42,0,0-16.77-25.16-19.86-15.89s-1.32,17.21-1.32,17.21c0,0-10.15-21.63-14.12-18.1s-6.62,7.5-6.62,7.5Z"/>
        <ellipse class="cls-45" cx="414.38" cy="470.66" rx="2.21" ry="4.19"/>
        <ellipse class="cls-45" cx="401.11" cy="470.51" rx="2.21" ry="4.19"/>
        <ellipse class="cls-45" cx="384.96" cy="468.03" rx="2.21" ry="4.19"/>
        <ellipse class="cls-45" cx="359.14" cy="465.98" rx="2.21" ry="4.19"/>
        <ellipse class="cls-45" cx="332.86" cy="467.64" rx="2.21" ry="4.19"/>
        <ellipse class="cls-45" cx="317.11" cy="468.95" rx="2.21" ry="4.19"/>
        <ellipse class="cls-45" cx="302.34" cy="469.51" rx="2.21" ry="4.19"/>
        <path class="cls-55" d="M337.79,695.66s157.72,13.92,227.31,1.33c0,0-1.33-3.31-7.29-5.3l9.94-3.31s-14.58-15.24-37.77-8.62l17.23-7.29s-10.6-17.23-36.45,2.65c0,0,5.3-15.24,12.59-20.54,0,0-26.51,3.31-34.46,15.9,0,0-1.99-20.54,16.57-28.5,0,0-25.18,1.33-32.47,15.24l-48.38-1.33s-10.6-18.56-24.52-16.57c0,0,15.9,8.62,15.24,25.85,0,0-18.56-15.24-27.17-10.6,0,0,12.59,14.58,9.28,22.53,0,0-23.86-17.89-36.45-3.31,0,0,16.57,1.99,16.57,9.94,0,0-28.5-10.6-39.76,11.93Z"/>
      </g>
      <g>
        <path class="cls-29" d="M1297.57,412.33s-1.43-51.3,52.73-41.33c54.15,9.98,115.43,42.75,139.66,9.98,24.23-32.78,47.03-72.68,78.38-34.2,31.35,38.48,49.88,143.93,81.23,125.41l-.33-469.93-344.54-.34s-91.2,95.48-75.53,148.21c15.68,52.73-4.28,114.01-32.78,123.98s-66.98,132.53,8.55,129.68c75.53-2.85,59.85,47.03,92.63,8.55Z"/>
        <path class="cls-53" d="M1257.27,230.46s-84.97,39-86.36,146.26c0,0,72.43-34.82,86.36-146.26Z"/>
        <path class="cls-53" d="M1233.93,352.3s-82.84,43.35-78.68,150.53c0,0,70.54-38.52,78.68-150.53Z"/>
        <path class="cls-53" d="M1311,154.75s-93.41,3.92-135.32,102.66c0,0,80.23-4.8,135.32-102.66Z"/>
        <path class="cls-53" d="M1291.85,9.29s-34.46,66.33,17.33,134.68c0,0,28.6-57.54-17.33-134.68Z"/>
        <path class="cls-53" d="M1389.36,6.86s-66.39,34.35-63.46,120.05c0,0,56.53-30.54,63.46-120.05Z"/>
        <path class="cls-53" d="M1433.91,205.8s-27.96-69.32-113.56-74.45c0,0,25.09,59.15,113.56,74.45Z"/>
        <path class="cls-53" d="M1291.43,422.06s.57-50.32-51.3-75.67c0,0,.28,43.26,51.3,75.67Z"/>
        <path class="cls-53" d="M1391.66,400.13s.67-59.82-60.99-89.96c0,0,.34,51.43,60.99,89.96Z"/>
        <path class="cls-53" d="M1330.12,389.77s.47-41.81-42.63-62.88c0,0,.24,35.95,42.63,62.88Z"/>
        <path class="cls-53" d="M1298.92,140.51s-61.62-37.29-130.58,8.23c0,0,53.53,31.1,130.58-8.23Z"/>
        <path class="cls-53" d="M1294.35,191.35s-63.72,55.49-37.57,148.83c0,0,53.91-48.67,37.57-148.83Z"/>
        <path class="cls-53" d="M1227.16,170.56s-55.66-3.72-86.91,52.14c0,0,47.9,2.35,86.91-52.14Z"/>
        <path class="cls-53" d="M1163.25,362.23s-33.87,8.44-41.78,47.7c0,0,28.98-7.78,41.78-47.7Z"/>
        <path class="cls-53" d="M1216.97,444.8s-35.41,35.38-16.16,89.49c0,0,29.89-30.95,16.16-89.49Z"/>
        <path class="cls-53" d="M1181.88,271.31s-66.42,18.08-80.37,95.82c0,0,56.81-16.56,80.37-95.82Z"/>
        <path class="cls-53" d="M1444.95,105.07s-51.53-21.36-99.04,21.53c0,0,44.62,17.57,99.04-21.53Z"/>
        <path class="cls-53" d="M1275.98,120.33s.94-55.78-56.4-84.2c0,0,.05,47.96,56.4,84.2Z"/>
        <path class="cls-53" d="M1449.44,37.96s-55.79,.29-82.94,58.25c0,0,47.94-1.1,82.94-58.25Z"/>
        <path class="cls-53" d="M1326.93,6.18s-23.12,28.76-4.7,66.88c0,0,19.43-25.07,4.7-66.88Z"/>
        <path class="cls-53" d="M1327.74,170.48s-50.91,59.27-14.54,141.2c0,0,42.85-51.72,14.54-141.2Z"/>
        <path class="cls-53" d="M1343.57,184.15s-17.48,52.71,28.55,96.77c0,0,14.22-45.57-28.55-96.77Z"/>
        <path class="cls-53" d="M1508.54,264.87s-47.55,80.5,12.48,169.4c0,0,39.63-69.92-12.48-169.4Z"/>
        <path class="cls-53" d="M1520.89,174.89s-74.49,56.5-52.6,161.51c0,0,63.16-49.7,52.6-161.51Z"/>
        <path class="cls-53" d="M1422.2,66.34s9.53,74.13,91.05,100.74c0,0-9.33-63.57-91.05-100.74Z"/>
        <path class="cls-53" d="M1500.9,8.72s-34.94,66.08,16.35,134.8c0,0,29.02-57.33-16.35-134.8Z"/>
        <path class="cls-53" d="M1650.96,146.72s-62.5-40.99-135.74,3.62c0,0,54.35,34.27,135.74-3.62Z"/>
        <path class="cls-53" d="M1502.85,170.09s-71.88,4.52-102.57,81.24c0,0,61.71-4.98,102.57-81.24Z"/>
        <path class="cls-53" d="M1528.09,214.45s-20.69,81.92,54.03,143.67c0,0,16.53-70.72-54.03-143.67Z"/>
        <path class="cls-53" d="M1461.05,235.7s-47.84,28.69-41.65,92.4c0,0,40.68-25.39,41.65-92.4Z"/>
        <path class="cls-53" d="M1451.07,311.23s-47.84,28.69-41.65,92.4c0,0,40.68-25.39,41.65-92.4Z"/>
        <path class="cls-53" d="M1644.88,274.17s-47.84,28.69-41.65,92.4c0,0,40.68-25.39,41.65-92.4Z"/>
        <path class="cls-53" d="M1646.3,13.39s-47.84,28.69-41.65,92.4c0,0,40.68-25.39,41.65-92.4Z"/>
        <path class="cls-53" d="M1602.59,57.68s-54.51,11.84-69.07,74.17c0,0,46.67-11.01,69.07-74.17Z"/>
        <path class="cls-53" d="M1472.5,166.59s-31.04-46.35-94.36-36.99c0,0,27.39,39.36,94.36,36.99Z"/>
        <path class="cls-53" d="M1568,0s-45.66,32.05-34.91,95.15c0,0,38.75-28.25,34.91-95.15Z"/>
        <path class="cls-53" d="M1449.24,43.77s-2.59,36.81,34.28,57.61c0,0,1.66-31.68-34.28-57.61Z"/>
        <path class="cls-53" d="M1543.62,178.26s-8.01,77.72,68.59,124.27c0,0,5.7-66.92-68.59-124.27Z"/>
        <path class="cls-53" d="M1564.42,180.47s15.71,53.27,78.64,63.2c0,0-14.32-45.54-78.64-63.2Z"/>
        <path class="cls-23" d="M1388.21,209.56s-20.89,29.25-8.36,57.11c12.54,27.86,16.72,39,27.86,23.68,11.14-15.32,8.36-69.65-19.5-80.79Z"/>
        <path class="cls-23" d="M1425.82,132.95s-20.89,29.25-8.36,57.11c12.54,27.86,16.72,39,27.86,23.68s8.36-69.65-19.5-80.79Z"/>
        <path class="cls-23" d="M1471.79,226.28s-20.89,29.25-8.36,57.11c12.54,27.86,16.72,39,27.86,23.68,11.14-15.32,8.36-69.65-19.5-80.79Z"/>
        <path class="cls-23" d="M1535.86,247.17s-20.89,29.25-8.36,57.11c12.54,27.86,16.72,39,27.86,23.68,11.14-15.32,8.36-69.65-19.5-80.79Z"/>
        <path class="cls-23" d="M1239.16,414.33s-20.89,29.25-8.36,57.11c12.54,27.86,16.72,39,27.86,23.68,11.14-15.32,8.36-69.65-19.5-80.79Z"/>
        <path class="cls-23" d="M1283.74,436.62s-20.89,29.25-8.36,57.11c12.54,27.86,16.72,39,27.86,23.68,11.14-15.32,8.36-69.65-19.5-80.79Z"/>
        <path class="cls-60" d="M1400.75,770.93l40.4-192.23s6.96-50.15-6.96-69.65c-13.93-19.5-32.04-65.47-32.04-65.47,0,0-89.15-39-115.62-59.9,0,0,0-13.93,22.29-1.39,22.29,12.54,93.33,65.47,121.19,25.07,27.86-40.4,30.65-71.04,30.65-71.04l-12.54,96.11,33.43,112.83,39-33.43,33.43-176.91-12.54,154.62,83.58-79.4-39,57.11s45.37,.19,60.7-19.31c0,0-20.3,26.27-66.27,37.42l-93.33,82.18s-27.86,140.69-13.93,193.62c0,0-18.11,30.65-72.43,9.75Z"/>
        <path class="cls-55" d="M1308.37,811.57s172,15.18,247.88,1.45c0,0-1.45-3.61-7.95-5.78l10.84-3.61s-15.9-16.62-41.19-9.39l18.79-7.95s-11.56-18.79-39.75,2.89c0,0,5.78-16.62,13.73-22.4,0,0-28.91,3.61-37.58,17.34,0,0-2.17-22.4,18.07-31.07,0,0-27.46,1.45-35.41,16.62l-52.76-1.45s-11.56-20.23-26.74-18.07c0,0,17.34,9.39,16.62,28.18,0,0-20.23-16.62-29.63-11.56,0,0,13.73,15.9,10.12,24.57,0,0-26.02-19.51-39.75-3.61,0,0,18.07,2.17,18.07,10.84,0,0-31.07-11.56-43.36,13.01Z"/>
        <path class="cls-53" d="M1649.15,341.15s-59.44,35.65-51.75,114.79c0,0,50.54-31.55,51.75-114.79Z"/>
      </g>
    </g>
  </g>
  <g>
    <g>
      <path class="cls-42" d="M1231.74,1044.11s6.13,.08,8.49,7.47l20.45,32.17s-1.24,10.78-17.19,20.15l-17.36,4.32-6.51-8.92-6.82,43.72s-.09,11-20.84,25.21c-17.71,12.13-26.26,6.85-26.26,6.85,0,0-26.79-14.46-24.2-25.47l90.24-105.5Z"/>
      <path class="cls-34" d="M1196.69,1153.62c-10.32,7.88-16.54,9.87-16.54,9.87-19.37,10.97-17.88-2.96-17.88-2.96-8.27,3.48-7.29-4.05-7.29-4.05-6.89,4.7-6.79-2.4-6.79-2.4-5.14-1.13-3.6-5.68-3.6-5.68-3.53,.37-2.13-2.55-1.41-3.49,2.71-3.51,5.47-4.94,5.47-4.94l16.81-10.07"/>
      <path class="cls-34" d="M1202.07,1023.24c23.85,9.05,30.95,25.07,30.95,25.07,0,0,4.51,22.77-11.59,33.72-16.1,10.95-15.33,48.6-15.33,48.6,0,0-32.29,.93-43.34-4.4l2.24-21.96c.84-22.39-3.26-34.29-3.26-34.29l-10.2-12.72-77.21-80.87,16.43-18.46,56.48-22.43s28.53,42.14,35.21,60.3c6.68,18.16,19.61,27.45,19.61,27.45"/>
      <path class="cls-6" d="M1162.28,1160.53s-.74-5.02,6.3-8.61"/>
      <path class="cls-6" d="M1154.99,1156.47s2.01-7.14,7.5-8.86"/>
      <path class="cls-6" d="M1148.2,1154.07s2.12-7.86,8.07-10.1"/>
      <path class="cls-6" d="M1144.6,1148.39s1.48-5.42,6.3-7.28"/>
      <path class="cls-42" d="M1228.24,1077.81l-6.08-22.9,18.08-3.32s1.57-7.22-8.49-7.47c-10.06-.25-14.02,2.64-14.02,2.64l-2.24-16.6s-9.08-9.32-13.41-6.92c0,0,6.2,13.7,5.72,22.41,0,0-27.22,11.02-51.11,17.83l4.27,8.55,52.49-17.59,7.99,27.59,6.8-4.21Z"/>
      <path class="cls-42" d="M1162.48,1122.97s11.84,6.54,43.87,6.71c0,0,.51,17.8-8.9,24.68,0,0-30.84-26.87-45.22-16.38,0,0,5.56-13.1,10.25-15Z"/>
    </g>
    <path class="cls-46" d="M998.47,862.82s-86.64,120.21-69.31,243.68c17.33,123.46,87.72,66.06,87.72,66.06,0,0,63.9,54.15,111.55-23.83,47.65-77.98,54.15-115.88,80.14-140.79,25.99-24.91,43.71-99.25,15.56-169.65,0,0-100.03,71.09-225.66,24.53Z"/>
    <path class="cls-46" d="M1167.83,1087.34c-23.21,20.31-56.71,79.33-56.71,79.33l87.92-149.09,11.47,8.92s-27.8,47.81-42.68,60.84Z"/>
    <path class="cls-3" d="M1199.83,1019.11s-55.98,93.57-81.48,143.74"/>
    <path class="cls-34" d="M1084.06,507.11s9.38,33.81,40.54,35.94c0,0-7.35,122.07-89.55,133.96,0,0-63.37-9.63-35.06-93.53,0,0,5.85-5.58,5.69-15.97"/>
    <path class="cls-34" d="M1074.92,480.41s-11.29-76.55-80.6-74.77c0,0-48.99,5.32-38.56,74.19,0,0,3.87,10.82,2.63,16.9,0,0-2.21,15.56,6.7,29.04,13.34,20.17,25.75,34.33,25.75,34.33,0,0,7.75,9.49,24.88,7.88,0,0,11.99-1.62,26.25-13.06,0,0,36.84-21.69,32.45-44.23,0,0,18.11,9.47,22.81-18.23,0,0,2.63-37.95-22.31-12.05Z"/>
    <path class="cls-57" d="M1009.34,463.55s22.42-10.17,34.09-3.85c0,0-9.49-11.22-35.36-1.64,0,0-4.25,4.13,1.27,5.49Z"/>
    <path class="cls-57" d="M952.62,464.22c.42-1.27,12.31-2.45,23.39-1,0,0,5.07,3.08-.01,5.64,0,0-20.24-5.43-22.87,1.19,0,0-1.55-2.68-.51-5.82Z"/>
    <path class="cls-3" d="M986.6,498.8s-7.94,15.26,8.88,15.06"/>
    <path class="cls-3" d="M1094.1,485.11s-7.81-15.28-17.18,11.78c0,0,9.13-12.51,12.08-3"/>
    <path class="cls-57" d="M1005.68,567.5s5.83,4.28,23.46-4.23c0,0,15.44-7.18,27.38-19.22,0,0-14.57,20.36-36.78,25.68,0,0-5.81,2.47-14.66,.39,0,0,1.29-.29,.6-2.62Z"/>
    <path class="cls-37" d="M1030.39,521.75s-11.65-2.21-24.63,3.12c0,0-11.85-1.01-22.02,2.49,0,0,3.27,18.58,21.29,20.74,18.02,2.16,26.93-15.45,25.36-26.34Z"/>
    <path class="cls-27" d="M1027.72,523.39s2.03,16.54-19.49,18.97c-19.55,2.21-21.37-12.51-21.37-12.51,0,0,22.13-1.49,40.86-6.46Z"/>
    <path class="cls-19" d="M1025.08,523.93s-4.47,8.27-21.22,9.35c0,0-10.22,1.68-15.14-3.3,0,0,21.52-1.96,36.35-6.04Z"/>
    <path class="cls-19" d="M1099.13,547.79s39.12,7.87,70.24,14.7c51.55,11.31,49.46,85.03,49.46,85.03,0,0-13.16,25.07-43.87,53.97l54.2,136.81s-65.74,46.66-160.71,49.44c0,0-39.75,1.87-72.9-21.26,0,0,1.74-42.32-13.14-92.25,0,0-19.64-19.89-24.71-58.08l-18.17-28.96,3.87-54.65s.52-22.79,39.16-43.03c0,0,7.75-3.87,18.07-6.45,0,0,.02,17.14,6.08,32.94,0,0,26.41,38.05,77.08-.04,0,0,17.5-16.06,15.33-68.16Z"/>
    <g>
      <circle class="cls-54" cx="974.6" cy="700.05" r="3.32"/>
      <circle class="cls-54" cx="974.93" cy="706.56" r="3.32"/>
      <circle class="cls-54" cx="972.33" cy="712.18" r="3.32"/>
      <circle class="cls-54" cx="969.49" cy="705.26" r="3.32"/>
      <circle class="cls-54" cx="979.81" cy="711.21" r="3.32"/>
      <circle class="cls-54" cx="980.34" cy="704.2" r="3.32"/>
    </g>
    <path class="cls-3" d="M929.62,853.6s19.43,139.1,19.43,167.74"/>
    <g>
      <path class="cls-57" d="M966.02,677.67c11.12-2.64,7.55-12.52,7.55-12.52,6.4-.15,4.32-11.15,4.32-11.15,7.66-4.16,2.9-12.62,2.9-12.62,3.63-6.26-2.94-13.76-2.94-13.76,5.95-8.09-2.71-11.75-2.71-11.75,5.42-8.24-4.22-15.82-4.22-15.82,3.96-7.99,1.77-14.5,1.77-14.5,5.76-10.25-.81-17.41-.81-17.41,5.58-8.16-.18-13.59-.18-13.59,4.83-7.68-2.11-13.39-2.11-13.39,4.56-8.55-4.28-12.96-4.28-12.96-.82-8.28-7.86-10.87-7.86-10.87-1.83-9.27-11.1-12.66-11.1-12.66-6.24-7.34-14.09-6.61-14.09-6.61-9.67-6.98-18.32-3.14-18.32-3.14-9.75-6.27-24.41-1.4-24.41-1.4-13-4.32-26.32,6.05-26.32,6.05-12.77-1.43-14.81,11.78-14.81,11.78-11.12,2.64-9.33,14.28-9.33,14.28-8.12-.98-10.66,7.77-10.66,7.77-8.43-.19-8.67,10.48-8.67,10.48-7.32,1.86-4.9,10.85-4.9,10.85-7.38,4.74-1.98,10.62-1.98,10.62-5.95,5.92-.53,10.66-.53,10.66-5.42,8.24-1.01,13.74-1.01,13.74-6.48,3.32-1.79,10.15-1.79,10.15-8.2,4.14-1.59,11.52-1.59,11.52-7.64,3.29-5.85,11.37-5.85,11.37-6.46,2.45-4.47,12.83-4.47,12.83-5.93,5.06-1.83,15.57-1.83,15.57-10.47,5.87-5.05,16.72-5.05,16.72-7.57,8.37-.1,15.61-.1,15.61-3.65,7.94-.51,12.57-.51,12.57,0,0-8.94,17.13,8.91,16.77"/>
      <g>
        <path class="cls-34" d="M902.12,1127.17s-7.38,13.98-4.27,20.59c0,0,14.46,9.16,24.17-.94,0,0-13.15-6.07-19.9-19.65Z"/>
        <path class="cls-34" d="M905.61,1118.62s7.38,20.75,20.74,24.14c0,0,4.91-10.99,11.5-17.54,0,0-4.07-35.33,5.41-86.96,0,0-13.61,4.13-45.31-3.16,0,0-.72,27.19,3.16,45.83,3.88,18.64,4.5,37.69,4.5,37.69Z"/>
        <path class="cls-18" d="M897.85,1147.75s-5.05,10.1-3.11,13.98c0,0,10.1,3.88,23.69,.39,0,0,7.38-1.94,15.15,4.27,7.77,6.21,38.06,9.32,47.77,.39,9.71-8.93-6.99-18.26-6.99-18.26,0,0-23.3-6.6-27.19-17.09-3.88-10.49-9.32-6.21-9.32-6.21,0,0-10.88,8.16-12.43,15.92,0,0-12.43-3.5-19.81-22.53l-3.5,8.55s7.38,15.54,18.64,19.03c0,0-4.27,9.32-22.92,1.55Z"/>
        <circle class="cls-42" cx="924.11" cy="1145.13" r="5.05"/>
        <circle class="cls-42" cx="937.11" cy="1159.48" r="3.34"/>
        <circle class="cls-42" cx="948.11" cy="1163.82" r="3.34"/>
        <circle class="cls-42" cx="960.65" cy="1165.57" r="3.34"/>
        <circle class="cls-42" cx="971.28" cy="1164.27" r="3.34"/>
        <circle class="cls-42" cx="980.37" cy="1160.86" r="3.34"/>
        <path class="cls-2" d="M938.63,1152.02s24.86,10.88,37.68,.78"/>
      </g>
      <g>
        <path class="cls-34" d="M846.19,1127.17s-7.38,13.98-4.27,20.59c0,0,14.46,9.16,24.17-.94,0,0-13.15-6.07-19.9-19.65Z"/>
        <path class="cls-34" d="M849.68,1118.62s7.38,20.75,20.74,24.14c0,0,4.91-10.99,11.5-17.54,0,0-4.07-35.33,5.41-86.96,0,0-13.61,4.13-45.31-3.16,0,0-.72,27.19,3.16,45.83,3.88,18.64,4.5,37.69,4.5,37.69Z"/>
        <path class="cls-18" d="M841.92,1147.75s-5.05,10.1-3.11,13.98c0,0,10.1,3.88,23.69,.39,0,0,7.38-1.94,15.15,4.27,7.77,6.21,38.06,9.32,47.77,.39,9.71-8.93-6.99-18.26-6.99-18.26,0,0-23.3-6.6-27.19-17.09-3.88-10.49-9.32-6.21-9.32-6.21,0,0-10.88,8.16-12.43,15.92,0,0-12.43-3.5-19.81-22.53l-3.5,8.55s7.38,15.54,18.64,19.03c0,0-4.27,9.32-22.92,1.55Z"/>
        <circle class="cls-42" cx="868.18" cy="1145.13" r="5.05"/>
        <circle class="cls-42" cx="881.18" cy="1159.48" r="3.34"/>
        <circle class="cls-42" cx="892.18" cy="1163.82" r="3.34"/>
        <circle class="cls-42" cx="904.72" cy="1165.57" r="3.34"/>
        <circle class="cls-42" cx="915.35" cy="1164.27" r="3.34"/>
        <circle class="cls-42" cx="924.44" cy="1160.86" r="3.34"/>
        <path class="cls-2" d="M882.7,1152.02s24.86,10.88,37.68,.78"/>
      </g>
      <path class="cls-34" d="M941.34,535.87s10.82,1.79,11.83,26.69c0,0-1.82,8.04-.62,12.89,1.2,4.85,.47,20.26-1.79,29.12-2.26,8.85-8.85,23.73-23.04,30.28-14.19,6.55-36.1-5.47-36.1-5.47,0,0-22.4-11.44-27.14-25.45,0,0-8.62,8.71-16.88,1.3-8.26-7.42-17.01-26.16-7.54-30.96,8.13-4.12,15.23,6.63,17.08,9.76,.31,.52,.47,.83,.47,.83,0,0,26.21-30.27,23.28-51.3,0,0,13.84,11.37,30.71,6.21,0,0,19.55,8.61,29.74-3.9Z"/>
      <path class="cls-52" d="M846.66,533.75s-1.19,9.95,7.93,12.37c9.12,2.42,6.69-11.26,6.69-11.26,0,0,13.93-.44,13.01-5.71-.92-5.28-9.35-12.87-11.73-9.37-2.38,3.5-2.95,10.45-2.95,10.45,0,0-10.96,.06-12.94,3.54Z"/>
      <path class="cls-34" d="M872.25,604.06s2.81,35.7-24.4,45.09c0,0,6.16,25.65,6.16,37.35,0,0,55.38,19.01,96.45,2.79,0,0-21.09-28.08-24.75-45.28,0,0-5.4-4.67-3.2-10.52l-50.26-29.44Z"/>
      <path class="cls-42" d="M907.93,559.8s-14.06-2.54-26.01,2.25c0,0,5.57-7.91,26.2-5.6,0,0,3.5,1.93-.18,3.35Z"/>
      <path class="cls-42" d="M952.07,560.83c-9.84-2.05-16.95-1.01-16.95-1.01-3.64-1.53-.09-3.36-.09-3.36,6.45-.53,13.62,.55,17.38,1.38,0,0,.19,3.1-.34,2.99Z"/>
      <path class="cls-36" d="M905.8,604.96s7.39-2.28,16.19,.22c0,0,7.6-1.52,14.45,0,0,0-.76,12.28-12.28,14.99-11.52,2.72-18.58-8.04-18.36-15.21Z"/>
      <path class="cls-27" d="M907.64,605.83s-.11,10.86,14.01,10.86c12.83,0,12.93-9.67,12.93-9.67,0,0-14.45,.65-26.94-1.2Z"/>
      <path class="cls-19" d="M909.4,605.99s3.5,5.03,14.43,4.5c0,0,6.74,.34,9.57-3.25,0,0-14.09,.31-24-1.26Z"/>
      <path class="cls-3" d="M927.18,578.42s8.56,8.19-.37,13.39"/>
      <path class="cls-57" d="M920.92,636.16s-12.19-.08-23.55-5.07c0,0-7.2-2.22-18.47-10.53,0,0,5.36,10.6,26.73,15.59,0,0,7.19,1.94,16.39,2.6,0,0-.18-1.2-1.1-2.59Z"/>
      <path class="cls-52" d="M861.27,640.72s-39.95,15.49-51.22,42.54c-13.04,31.29-11,37.32-11,37.32,0,0,11.05,19.58,36.87,13.13,0,0-9.96,55.83-10.61,101,0,0,64.25,35.23,134,1.8,0,0-5.37-67.17-4.72-103.31,0,0,15.77,.7,22.22-14.14l-2.01-29.32s-7-36.7-50.24-47.02c0,0,10.87,18.63-11.71,23.79,0,0-38.02,8.41-51.58-25.79Z"/>
      <path class="cls-46" d="M897.96,1035.1l3.25-27.75-14.16,32.7c-16.05,9.01-45.02-4.95-45.02-4.95-6.55-17.97,1.74-43.34,1.74-43.34-8.29-14.37-22.63-83.9-22.63-83.9-5.14-40.46,10.71-71.52,10.71-71.52,61.56,32.11,127.46,.18,127.46,.18l-2.06,140.5c1.58,12.6-5.66,29.12-5.66,29.12l-8.32,32.13s-26.98,5.03-45.31-3.16Z"/>
      <path class="cls-3" d="M901.21,1007.35c8.37-76.01,1.01-109.86,1.01-109.86"/>
      <circle class="cls-56" cx="911.39" cy="681.69" r="5.52"/>
      <circle class="cls-41" cx="900.38" cy="682.5" r="5.52"/>
      <circle class="cls-41" cx="889.2" cy="680.48" r="5.52"/>
      <circle class="cls-41" cx="878.41" cy="676.68" r="5.52"/>
      <circle class="cls-41" cx="869.44" cy="669.95" r="5.52"/>
      <circle class="cls-41" cx="861.28" cy="662.66" r="5.52"/>
      <circle class="cls-56" cx="921.79" cy="677.81" r="5.52"/>
      <circle class="cls-56" cx="931.18" cy="672.35" r="5.52"/>
      <circle class="cls-56" cx="936.23" cy="662.4" r="5.52"/>
      <circle class="cls-56" cx="907.04" cy="691.43" r="5.52"/>
      <circle class="cls-41" cx="893.3" cy="690.86" r="5.52"/>
      <circle class="cls-41" cx="880.43" cy="687.41" r="5.52"/>
      <circle class="cls-41" cx="868.52" cy="681.02" r="5.52"/>
      <circle class="cls-41" cx="859.84" cy="673.91" r="5.52"/>
      <circle class="cls-56" cx="919.86" cy="688.32" r="5.52"/>
      <circle class="cls-56" cx="931.46" cy="683.12" r="5.52"/>
      <circle class="cls-56" cx="941.89" cy="671.91" r="5.52"/>
      <path class="cls-41" d="M861.27,640.72s9.12,27.24,41.41,26.75c32.29-.49,23.03-23.45,23.03-23.45l3.09,.29s7.01,26.71-25.39,25.39c-31.47-1.29-34.76-12.11-44.86-27.36l2.71-1.61Z"/>
      <path class="cls-3" d="M840.61,587.64s4.28-6.49,9.08,.13c4.8,6.62,5.06,8.82,5.06,8.82,0,0-6.87-10.51-9.6-2.08"/>
      <g>
        <path class="cls-25" d="M851.97,579.06s5.98,7.79,0,11.41,3.99,1.45,3.99,1.45c0,0,6.89-2.91-1.45-15.5l-2.54,2.63Z"/>
        <path class="cls-19" d="M851.97,590.48s-3.26-8.88-9.42-7.07c-6.16,1.81,.36,12.68,.36,12.68,0,0,1.81,2.54,5.25,2.36,0,0-3.26-5.98,3.8-7.97Z"/>
        <path class="cls-43" d="M837.14,579.2s-5.07,2.77-3.38-3.23c1.69-5.99,10.45-6.15,13.22-5.69,2.77,.46,6.76,1.84,7.53,6.15,.77,4.3-5.23,.46-5.23,.46,0,0-7.22-5.53-12.14,2.31Z"/>
      </g>
      <path class="cls-34" d="M987.36,760.28s5.08,22.16-14.84,32.64c0,0-5.86,2.91-15.77-1.68-9.91-4.59-9.69-14.11-9.69-14.11l40.3-16.85Z"/>
      <circle class="cls-56" cx="946.68" cy="718.87" r="58"/>
      <path class="cls-34" d="M1004.48,722.74s7.27-2.34,8.55,2.13c1.28,4.46-1.15,5.85-1.15,5.85,0,0-4.41,3.58-9.32,3.14l1.92-11.12Z"/>
      <path class="cls-34" d="M1002.4,735.51s7.61-.65,7.86,3.99c.25,4.64-2.44,5.44-2.44,5.44,0,0-5.1,2.5-9.78,.98l4.36-10.41Z"/>
      <path class="cls-34" d="M995.06,750.17s7.58,.9,6.89,5.49-3.48,4.84-3.48,4.84c0,0-5.5,1.42-9.78-1.02l6.37-9.31Z"/>
      <g>
        <circle class="cls-13" cx="945.28" cy="718.57" r="59.09"/>
        <path class="cls-23" d="M992.07,684.23s8.58,55.7-22.11,87.33c0,0-4.68,2.91-10.07,3.69,0,0,34.36-23.83,27.46-96.21,0,0,3.66,1.98,4.72,5.18Z"/>
        <path class="cls-23" d="M972.82,667.29s14.63,74.82-31.65,110.25c0,0-3.25,.07-7.51-2.07,0,0,45.76-35.89,29.19-111.89,0,0,6.99,1.6,9.97,3.71Z"/>
        <path class="cls-23" d="M945.34,659.86s23.9,65.02-30.6,109.67l-3.25-2.92s51.57-41.4,27.68-106.42l6.18-.33Z"/>
      </g>
      <path class="cls-34" d="M799.91,721.62s-3.24,34.78-.38,66.44c0,0,.85,21.46,13.32,23.44,12.48,1.99,34.94-13.05,34.94-13.05,0,0,27.01-21.02,38.35-37.67,0,0,8.44,.88,12.18-9.19,0,0,12.52,5.61,17.07,3.42,4.55-2.2,1.6-6.7,1.6-6.7l-23.35-9.14s27.43,2.38,27.99-4.12c.56-6.5-3.94-6.26-3.94-6.26l-24.68-1.62s8.12-7.13,17.1-6.63c8.98,.5,8.59-2.98,7.66-6.1s-6.47-2.68-6.47-2.68l-15.98,2.74,3.8-5.72,7.12-7.15s5.58-4.26-.33-7.86c-5.91-3.6-16.82,12.25-16.82,12.25l-10.01,23.47-6.73,9.23s-28.34,21.51-38.24,23.47l1.83-28.47s-18.73,7.74-36-12.09Z"/>
      <path class="cls-3" d="M889.87,571.94s8.76-9.54,16.21,.69"/>
      <path class="cls-3" d="M932.27,571.51s8.76-9.54,16.21,.69"/>
    </g>
    <path class="cls-34" d="M1157.97,676.78s-2.57,19.03-6.13,56.76c0,0-126.41,55.94-158.95,71.43,0,0-22.81-19.12-35.19-20.23-12.38-1.12-26.31-8.94-19.02,3.8l6.91,6.79s-21.93-3.94-40.12-1.92c0,0-18.22-.52-17.67,4.91s.91,8.77,42.19,9.7c0,0-41.83-3.54-42.56,5.97-.58,7.6,45.2,9.86,45.2,9.86,0,0-44.83-4.94-41.57,5.34s30.3,6.16,30.3,6.16c0,0-18.04,.71-17.67,4.91,.37,4.21,10.57,5.04,50.56,10.97,0,0,35.05,4.81,50.69-2.64,0,0,113.11-18.12,193.15-60.73,0,0,21.56-21.27,21.08-44.22-.59-28.29,1.03-35.48-.2-92.84,0,0-35.66,3.93-61,25.99Z"/>
    <path class="cls-7" d="M974.5,791.58s-12.38-7.06-16.81-6.84-14.56-3.68-19.04-3.48,.02,7.28,.02,7.28l6.91,6.79s-27.19-4.72-50.18-1.4c0,0-7.64,.41-7.62,4.39s2.56,5.35,2.56,5.35c0,0,11.3,3.9,33.12,4.09,0,0-28.05-.58-33.12,2.14s-2.73,7.21,0,7.6,27.08,5.26,27.08,5.26c0,0-20.65-1.17-24.35,1.95s-1.36,7.01,.78,7.99,12.08,3.9,18.9,3.51c0,0-9.57,.91-9.07,4.06s12.19,5.1,12.19,5.1c0,0,37.8,6.23,42.86,6.43"/>
    <path class="cls-35" d="M796.98,723.71s-7.03,17.68,14.85,15.19c12.47-1.42-14.85-15.19-14.85-15.19Z"/>
    <path class="cls-35" d="M793.63,707.05s-6.61,8.32-2.19,12.7,7.96,8.22,16.01,10.04c8.05,1.82-.47-9.92-.47-9.92l-13.35-12.82Z"/>
    <path class="cls-35" d="M796.46,694.49s-10.37,8.49,2.48,20.53c12.85,12.04,11.27,2.54,11.27,2.54l-6.1-17.96-7.65-5.11Z"/>
    <path class="cls-35" d="M818.51,670.32s-17.28-9.83-21.06,8.81c-3.78,18.64,2.88,24.81,2.88,24.81,0,0,5.73,4.68,9.02-17.46,0,0,2.33-12.19,9.15-16.16Z"/>
    <path class="cls-3" d="M1016.88,1172.56s-34.47-49.38-17.66-106.51c16.8-57.13,53.77-111.74,53.77-111.74"/>
    <path class="cls-3" d="M960.03,486.37s5-14.85,17.82-3.28"/>
    <path class="cls-3" d="M1017.38,478.71s5-14.85,17.82-3.28"/>
    <path class="cls-20" d="M1157.97,676.78s-6.42-33.47-5.68-54.02"/>
    <path class="cls-21" d="M835.91,733.71s1.87-18.23,2.59-31.1"/>
    <path class="cls-51" d="M980.65,420.66s51.05,72.71,111.51,66.35c0,0-2.47,26.82-21.06,23.3,0,0-5.77,37,13.62,54.79,0,0,20.16,8.44,42.32,5.16,17.19-2.55,48.7-6.57,48.7-6.57,0,0-43.9-21.76-56.37-71.14-14.5-57.46-38.89-82.32-38.89-82.32,0,0-46.28-54.69-101.22-16.01,0,0-31.42,5.05-41.4,36.81-5.77,18.37-.69,50.59,3.64,76.29,0,0,11.63,67.39,41.06,82.19,0,0,25.42,.75,23.11-22,0,0-8.98-.74-14.85-7.4-9.47-10.75-16.66-21.89-24.85-34.23,0,0-9.79-12.25-7.51-29.96,0,0,1.39-9.23-1.9-14.18,0,0-8.51-37.36,24.08-61.07"/>
    <path class="cls-4" d="M1077.86,498.57s10.81,12.7,2.17,22.36c-8.64,9.66-6.13-11.6-6.13-11.6"/>
  </g>
  <g>
    <path class="cls-31" d="M635.28,1003.07s-38.09,4.25-41.41-45.6c0,0,25.9,58.3,57.38,13.14,31.48-45.16,25.8-119,25.8-119l-11.9-47.58s32.93,23.55,63.03,23.06c0,0,14.31,28.97,24.19,34.61,9.88,5.64,6.07,67.46,6.07,67.46,0,0-23,74.79-48.39,81.86,0,0,1.43,41.85-24.42,63.03,0,0-21.15,18.35,3.78,39.5,0,0,19.28,3.28,12.24,15.98-7.05,12.7-21.63,.01-21.63,.01l-18.83-33.38,2.35-11.29s-16.45,14.12-9.38,38.1c7.07,23.98,17.41,18.33,17.41,18.33,0,0,11.29,7.52-.93,14.11s-19.28-.46-19.28-.46c0,0-10.82-7.52-10.36-19.28,.46-11.76-7.06-18.81-7.06-18.81,0,0-1.89-12.7,5.63-23.99,0,0,2.81-15.05-2.84-27.75s-8.96-38.09-1.44-62.08Z"/>
    <path class="cls-31" d="M755.28,908.77s30.1,3.28,61.61,10.31c0,0,25.87,8.92,24.45-8.95-1.42-17.87-18.34-6.1-18.34-6.1,0,0-55.97-15.02-68.21-28.18"/>
    <path class="cls-3" d="M658.84,1086.77s23.97-29.64,23.01-69.14c0,0,8.47,2.35,28.21-6.6"/>
    <path class="cls-31" d="M757.04,923.52s30.1,3.28,61.61,10.31c0,0,25.87,8.92,24.45-8.95-1.42-17.87-18.34-6.1-18.34-6.1,0,0-55.97-15.02-68.21-28.18"/>
    <path class="cls-31" d="M680.07,815.25c15.84,9.57,35.95,20.95,59.2,7.61,0,0,18.47-5.42,16.58-19.62-1.89-14.2-17.88-17.93-17.88-17.93,0,0-10.23-.66-16.5-15.38-6.28-14.72-33.4-6.28-33.4-6.28,0,0-9.38,1.64-12.89,8.88,0,0-17.63-12.28-25.18,10.07-7.55,22.35,8.18,38.4,8.18,38.4,0,0,6.92,12.59,.31,16.68s11.96,11.96,15.42,1.89,6.14-24.32,6.14-24.32Z"/>
    <ellipse class="cls-42" cx="703.67" cy="795.88" rx="3.08" ry="4.63" transform="translate(-293.16 428.59) rotate(-28.29)"/>
    <ellipse class="cls-42" cx="724.53" cy="782.87" rx="3.08" ry="4.63" transform="translate(-284.5 436.92) rotate(-28.29)"/>
    <path class="cls-42" d="M733.86,796.26s6.53-5.15,11.58-5.41c5.06-.26,4.57,8.48,4.57,8.48,0,0,1.43,8.26-11,7.01s-5.15-10.08-5.15-10.08Z"/>
    <path class="cls-42" d="M718.23,829.1c-21.05,.31-35.35-11.97-35.35-11.97l-.08,4.46s17.03,10.39,34.43,7.65"/>
    <path class="cls-38" d="M736.73,823.05s7.73-2.43,13.59,5.3-13.92,3.2-13.92,3.2c0,0-6.41-4.42-24.2-8.51,0,0,10.72,4.53,24.53,0Z"/>
    <path class="cls-2" d="M737.6,822.53s-17.36,6.38-29.83-2"/>
    <path class="cls-2" d="M588.95,966.59s.51,16.92,7.43,27.17"/>
    <path class="cls-2" d="M583.06,958.65s-4.61,12.56,1.03,21.02"/>
  </g>
</svg>