<?xml version="1.0" encoding="UTF-8"?>
<svg id="Layer_1" data-name="Layer 1" xmlns="http://www.w3.org/2000/svg" viewBox="0 0 1336.55 999.38">
  <defs>
    <style>
      .cls-1, .cls-2 {
        stroke-width: .8px;
      }

      .cls-1, .cls-2, .cls-3, .cls-4, .cls-5, .cls-6, .cls-7, .cls-8, .cls-9, .cls-10, .cls-11, .cls-12, .cls-13, .cls-14, .cls-15, .cls-16, .cls-17, .cls-18, .cls-19, .cls-20 {
        stroke-miterlimit: 10;
      }

      .cls-1, .cls-2, .cls-6, .cls-11, .cls-12, .cls-13, .cls-14, .cls-15, .cls-16, .cls-17, .cls-18, .cls-19, .cls-20 {
        fill: none;
      }

      .cls-1, .cls-4, .cls-18 {
        stroke: #603913;
      }

      .cls-2, .cls-6, .cls-13, .cls-16 {
        stroke: #231f20;
      }

      .cls-21 {
        fill: #f8c184;
      }

      .cls-22 {
        fill: #e6e7e8;
      }

      .cls-23 {
        fill: #f05380;
      }

      .cls-24, .cls-9 {
        fill: #fff;
      }

      .cls-25 {
        fill: #f1f2f2;
      }

      .cls-26 {
        fill: #f16225;
      }

      .cls-27 {
        fill: #803435;
      }

      .cls-28, .cls-5, .cls-8 {
        fill: #9a6c3f;
      }

      .cls-29, .cls-10 {
        fill: #be9e7d;
      }

      .cls-30 {
        fill: #be8c8c;
      }

      .cls-31 {
        fill: #bde4e0;
      }

      .cls-32 {
        fill: #bf6b6b;
      }

      .cls-33 {
        fill: #d1d3d4;
      }

      .cls-34 {
        fill: #d3a67f;
      }

      .cls-35 {
        fill: #e2b98d;
      }

      .cls-36 {
        fill: #134a7e;
      }

      .cls-37 {
        fill: #231f20;
      }

      .cls-38 {
        fill: #1fa8df;
      }

      .cls-39 {
        fill: #416f6a;
      }

      .cls-40 {
        fill: #0f3e5d;
      }

      .cls-41 {
        fill: #45857b;
      }

      .cls-42 {
        fill: #57b2a1;
      }

      .cls-43 {
        fill: #3c2415;
      }

      .cls-44 {
        fill: #59bede;
      }

      .cls-45 {
        fill: #603913;
      }

      .cls-46 {
        fill: #26130f;
      }

      .cls-47 {
        fill: #4d998b;
      }

      .cls-3, .cls-4 {
        fill: #bd9154;
      }

      .cls-3, .cls-11, .cls-12 {
        stroke-width: 2px;
      }

      .cls-3, .cls-17 {
        stroke: #006838;
      }

      .cls-4 {
        stroke-width: .2px;
      }

      .cls-5, .cls-6, .cls-7, .cls-16, .cls-17, .cls-18, .cls-19, .cls-20 {
        stroke-width: .5px;
      }

      .cls-5, .cls-7, .cls-8, .cls-19 {
        stroke: #3c2415;
      }

      .cls-6 {
        stroke-linecap: round;
      }

      .cls-7 {
        fill: #754c29;
      }

      .cls-9 {
        stroke: #939598;
      }

      .cls-10 {
        stroke: #8b5e3c;
      }

      .cls-11 {
        stroke: #fbb040;
      }

      .cls-12 {
        stroke: #ed1c24;
      }

      .cls-14 {
        stroke: #754c29;
      }

      .cls-15, .cls-20 {
        stroke: #a7a9ac;
      }
    </style>
  </defs>
  <g>
    <rect class="cls-31" x=".95" width="1334.77" height="735.04"/>
    <rect class="cls-4" x=".1" y="734.1" width="1334.48" height="265.18"/>
    <g>
      <rect class="cls-8" x="628.1" y="268.81" width="707.95" height="444.73"/>
      <rect class="cls-28" x="605.4" y="245.39" width="730.64" height="24.95"/>
      <polygon class="cls-28" points="1336.05 737.19 614.1 737.19 628.1 713.53 1336.05 712.24 1336.05 737.19"/>
      <rect class="cls-5" x="646.55" y="290.79" width="324.51" height="62.77"/>
      <rect class="cls-5" x="646.55" y="373.97" width="324.51" height="319.53"/>
      <rect class="cls-5" x="991.53" y="373.97" width="324.51" height="319.53"/>
      <path class="cls-19" d="M825.73,322.56c0,9.23-7.49,16.72-16.72,16.72s-16.72-7.49-16.72-16.72"/>
      <circle class="cls-7" cx="792.47" cy="322.64" r="2.57"/>
      <circle class="cls-7" cx="825.76" cy="322.64" r="2.57"/>
      <rect class="cls-5" x="990.86" y="290.79" width="324.51" height="62.77"/>
      <path class="cls-19" d="M1170.04,322.56c0,9.23-7.49,16.72-16.72,16.72s-16.72-7.49-16.72-16.72"/>
      <circle class="cls-7" cx="1136.77" cy="322.64" r="2.57"/>
      <circle class="cls-7" cx="1170.07" cy="322.64" r="2.57"/>
      <rect class="cls-5" x="680.74" y="410.1" width="253.93" height="250.03"/>
      <rect class="cls-5" x="1026.91" y="410.1" width="253.93" height="250.03"/>
      <rect class="cls-45" x="949.76" y="499.47" width="9.47" height="49.45"/>
      <rect class="cls-45" x="1004.42" y="499.47" width="9.47" height="49.45"/>
    </g>
    <polygon class="cls-25" points="979.89 333.96 1252.34 244.51 707.43 244.51 979.89 333.96"/>
    <polyline class="cls-12" points="707.43 244.51 979.89 333.96 1252.34 244.51"/>
    <polyline class="cls-12" points="708.68 241.12 714.97 251.61 726.25 246.89 732.54 257.38 743.83 252.66 750.12 263.15 761.4 258.43 767.7 268.92 778.97 264.2 785.27 274.69 796.54 269.97 802.84 280.46 814.12 275.74 820.41 286.22 831.69 281.51 837.98 292 849.27 287.28 855.56 297.77 866.84 293.05 873.14 303.54 884.42 298.82 890.72 309.31 902 304.59 908.3 315.08 919.58 310.37 925.88 320.85 937.16 316.14 943.46 326.62 954.75 321.91 961.04 332.4 972.34 327.69 979.89 338.38 987.43 327.69 998.71 332.41 1005 321.92 1016.29 326.63 1022.58 316.15 1033.86 320.86 1040.15 310.38 1051.43 315.1 1057.72 304.61 1069 309.33 1075.29 298.84 1086.58 303.56 1092.87 293.07 1104.15 297.79 1110.44 287.3 1121.72 292.02 1128.02 281.53 1139.3 286.25 1145.6 275.76 1156.88 280.47 1163.18 269.99 1174.46 274.7 1180.76 264.21 1192.04 268.93 1198.34 258.44 1209.62 263.16 1215.92 252.67 1227.21 257.38 1233.5 246.9 1244.79 251.61 1251.1 241.12"/>
    <g>
      <path class="cls-41" d="M521.21,377.12s-41.4-39.83-18.69-97.67c22.7-57.84,82.97-78.18,82.97-78.18,0,0-15.48,38.65-12.99,66.32,2.49,27.68-17.69,100.13-51.28,109.52Z"/>
      <path class="cls-47" d="M536.94,495.63s7.45-60.29,70.8-77.75c63.35-17.46,118.77,20.65,118.77,20.65,0,0-42.52,11.41-64.37,31.06-21.85,19.66-95.96,48.52-125.21,26.04Z"/>
      <path class="cls-39" d="M492.59,512.7s30.77-52.38,95.85-43.26c65.08,9.12,100.82,66.09,100.82,66.09,0,0-43.56-6.41-71.41,2.96-27.85,9.37-107.34,6.44-125.26-25.79Z"/>
      <path class="cls-39" d="M519.24,498.94s15.12-50.95-29.57-87.12c-44.69-36.17-102.46-25.01-102.46-25.01,0,0,30.1,24.03,40.74,47.43,10.64,23.41,59.97,72.48,91.28,64.7Z"/>
      <path class="cls-47" d="M401.39,308.84s54.3-13.56,99.08,41.33c44.79,54.89,13.85,69.31,13.85,69.31,0,0-104.82-46.55-112.94-110.64Z"/>
      <line class="cls-3" x1="516.27" y1="565.86" x2="516.27" y2="525.59"/>
      <path class="cls-39" d="M528.01,467.1s-30.64-48.59,5.28-99.3c35.92-50.71,99.3-55.99,99.3-55.99,0,0-24.3,33.8-28.52,61.27-4.23,27.47-41.2,92.96-76.06,94.02Z"/>
      <path class="cls-41" d="M516.2,518.71s-7.45-60.29-70.8-77.75c-63.35-17.46-118.77,20.65-118.77,20.65,0,0,42.52,11.41,64.37,31.06,21.85,19.66,95.96,48.52,125.21,26.04Z"/>
      <path class="cls-39" d="M522.43,507.79s-38.69-46.83-101.5-27.5c-62.8,19.33-89.05,81.26-89.05,81.26,0,0,41.99-13.24,70.97-8.41,28.99,4.83,107-10.67,119.58-45.35Z"/>
      <path class="cls-41" d="M591.53,388.86s-55.78,4.52-80.65,70.85c-24.87,66.33,9.05,70.1,9.05,70.1,0,0,84.42-77.64,71.61-140.96Z"/>
      <path class="cls-42" d="M466.26,288.82s-2.93,57.23,52.09,101.98c0,0,35.22-14.67-4.4-71.9,0,0-19.81-27.15-47.69-30.08Z"/>
      <path class="cls-21" d="M419.06,562.09h198.4s6.89,108.84-35.82,173.6h-119.87s-44.09-37.2-42.71-173.6Z"/>
      <path class="cls-24" d="M423.18,638.82s2.12,16.93,6.35,27.51c0,0,85.36,23.99,178.49,0,0,0,2.82-8.47,5.64-28.92,0,0-92.42,21.87-190.48,1.41Z"/>
      <path class="cls-24" d="M422.01,621.67s-.36,7.29,1.09,9.12c0,0,98.36,24.72,191.48,.73,0,0-1.73,11.71,1.09-8.75,0,0-98.11,26.26-193.67-1.09Z"/>
    </g>
    <g>
      <path class="cls-35" d="M1067.07,161.97s27.4,0,43.63-5.32c0,0,4.26-8.25-6.92-22.88,0,0,14.9-4.79,18.09-3.46l4.26,15.7,10.11,1.33s-3.72,18.36-19.69,18.89c0,0-6.92-.53-10.64,7.45l-19.95,54.54s-.53,17.29,2.39,20.49,75.82,16.23,133.03,0c0,0,5.32-12.77,2.93-20.49l-19.69-55.34s-1.86-5.05-9.84-6.39-16.23-4.26-21.28-19.69l9.05-2.39,5.05-14.63s11.71,.8,18.36,2.39c0,0-12.5,9.84-10.38,22.88,0,0,29,8.78,44.43,6.12,0,0,10.91-18.89-13.04-35.12,0,0-8.25-1.06-10.38,0,0,0-60.39-31.66-124.51,.27,0,0-29.53-2.39-25.01,35.65Z"/>
      <circle class="cls-34" cx="1154.16" cy="206.89" r="20.49"/>
      <path class="cls-14" d="M1066.54,156.11s-26.07,1.06-18.09,15.16c7.98,14.1,3.46-3.19,3.46-3.19,0,0-13.57-9.05-11.44,6.39,2.13,15.43,12.77,7.72,12.77,7.72,0,0-4.26-10.38-15.16-3.99-10.91,6.39,11.97,11.71,11.97,11.71,0,0,3.72-9.58-10.64-1.6-14.37,7.98,13.57,6.39,13.57,6.39,0,0,3.19-7.98-8.25-2.13-11.44,5.85,2.39,10.38,2.39,10.38,0,0,6.12,.53,8.78-3.99s-9.31-.53-10.11,7.18,5.85,2.13,5.85,2.13c0,0,7.45-1.6,7.18-4.52-.27-2.93-7.45-2.13-7.45,7.72s6.92,2.93,6.92,2.93c0,0,5.32-3.72,3.99-7.45s-7.98,9.84-4.26,13.3c3.72,3.46,11.17-6.39,11.17-6.39,0,0-1.33-8.78-5.59,1.06-4.26,9.84,5.59,9.84,5.59,9.84,0,0,6.65-4.26,5.85-9.31-.8-5.05-4.79,6.12-4.79,6.12,0,0,.8,9.58,6.92,3.19,6.12-6.39,2.93-9.58,2.93-9.58,0,0-6.92,8.25,.27,10.91s6.92-10.38,6.92-10.38c0,0-7.45-.53,0,9.31"/>
    </g>
  </g>
  <g>
    <g>
      <path class="cls-37" d="M867.97,893.2s5.63,4.22,2.82,12.67l-2.82,43.64s-8.45,9.15-29.56,7.04l-19.01-7.74v-12.67s-35.9,35.9-35.9,35.9c0,0-7.82,5.02-36.37,9.27-29.19,4.35-43.78-6.83-43.78-6.83,0,0-29.41-19.81-19.56-28.25l184.17-53.02Z"/>
      <path class="cls-29" d="M790.51,836.69c.58-49.1-9.49-111.55-9.49-111.55,0,0,78.44-32.21,86.06,1.67,7.61,33.88-8.18,88.26-8.18,88.26-7.01,36.24,1.17,50.85,1.17,50.85,12.12,21.89,3.51,37.99,3.51,37.99,0,0-7.41,15.68-30.79,17.45-21.8,1.65-49.87,38.08-49.87,38.08-15.2,18.7-40.81,13.06-40.81,13.06-6.14,2.1-9.97-2.64-9.97-2.64-11.99,1.48-14.49-4.7-14.49-4.7-11.17,1.17-15.53-6-15.53-6-6.88,1.63-9.95-6.58-9.95-6.58-8.22-7.98-5.63-10.07-2.71-15.28,2.92-5.21,20.91-2.91,20.91-2.91l25.47-6.9,14.6-8.06,17.85-25.45c9.94-11.69,15.2-22.8,15.2-22.8l7.01-34.49Z"/>
      <path class="cls-18" d="M715.33,939.04l-13.12,4.89s-8.71,1.41-10.05,8.64"/>
      <path class="cls-18" d="M722.4,944.13s-21.85,6.59-20.79,12.11l.5,2.91"/>
      <path class="cls-18" d="M730.2,952.48s-12.49,3.63-12.56,12.67"/>
      <path class="cls-18" d="M737.11,962.62s-6.49,1.66-4.98,7.24"/>
      <path class="cls-37" d="M841.93,922.06l9.85-25.34,19.01,9.15s6.34-5.63-2.82-12.67c-9.15-7.04-14.78-7.04-14.78-7.04l9.15-16.89s-2.11-14.78-7.74-15.49c0,0-3.52,16.89-9.85,24.64,0,0-32.68-8.2-59.42-18.05l-1.82,10.81,60.55,19.21-11.26,30.97,9.15,.7Z"/>
      <path class="cls-18" d="M781.22,876.72l-30.77,42.7-20.11,10.3-19.97,4.65s-25.37-4.44-23.55,11.23"/>
      <path class="cls-37" d="M750.44,919.42s6.55,14.07,36.11,35.89c0,0-11.57,16.85-24.94,16.85,0,0-13.72-41.57-34.13-41.57,0,0,17.33-12.58,22.96-11.17Z"/>
      <line class="cls-18" x1="788.74" y1="780.67" x2="782.72" y2="738.5"/>
    </g>
    <g>
      <path class="cls-37" d="M989.49,772.42s6.13,.08,8.49,7.47l20.45,32.17s-1.24,10.78-17.19,20.15l-17.36,4.32-6.51-8.92-6.82,43.72s-.09,11-20.84,25.21c-17.71,12.13-26.26,6.85-26.26,6.85,0,0-26.79-14.46-24.2-25.47l90.24-105.5Z"/>
      <path class="cls-29" d="M954.44,881.93c-10.32,7.88-16.54,9.87-16.54,9.87-19.37,10.97-17.88-2.96-17.88-2.96-8.27,3.48-7.29-4.05-7.29-4.05-6.89,4.7-6.79-2.4-6.79-2.4-5.14-1.13-3.6-5.68-3.6-5.68-3.53,.37-2.13-2.55-1.41-3.49,2.71-3.51,5.47-4.94,5.47-4.94l16.81-10.07"/>
      <path class="cls-29" d="M959.82,751.54c23.85,9.05,30.95,25.07,30.95,25.07,0,0,4.51,22.77-11.59,33.72-16.1,10.95-15.33,48.6-15.33,48.6,0,0-32.29,.93-43.34-4.4l2.24-21.96c.84-22.39-3.26-34.29-3.26-34.29l-10.2-12.72-77.21-80.87,16.43-18.46,56.48-22.43s28.53,42.14,35.21,60.3c6.68,18.16,19.61,27.45,19.61,27.45"/>
      <path class="cls-18" d="M920.02,888.83s-.74-5.02,6.3-8.61"/>
      <path class="cls-18" d="M912.73,884.78s2.01-7.14,7.5-8.86"/>
      <path class="cls-18" d="M905.94,882.38s2.12-7.86,8.07-10.1"/>
      <path class="cls-18" d="M902.34,876.69s1.48-5.42,6.3-7.28"/>
      <path class="cls-37" d="M985.98,806.12l-6.08-22.9,18.08-3.32s1.57-7.22-8.49-7.47c-10.06-.25-14.02,2.64-14.02,2.64l-2.24-16.6s-9.08-9.32-13.41-6.92c0,0,6.2,13.7,5.72,22.41,0,0-27.22,11.02-51.11,17.83l4.27,8.55,52.49-17.59,7.99,27.59,6.8-4.21Z"/>
      <path class="cls-37" d="M920.22,851.28s11.84,6.54,43.87,6.71c0,0,.51,17.8-8.9,24.68,0,0-30.84-26.87-45.22-16.38,0,0,5.56-13.1,10.25-15Z"/>
    </g>
    <path class="cls-40" d="M764.68,599.48l-122.76,51.89s-35.44,16.45-26.58,73.4c8.86,56.95,120.23,62.01,120.23,62.01l183.13,13.54s33.29-27.46,37.08-61.63l-191.11-139.22Z"/>
    <path class="cls-29" d="M774.09,420.42s-9.13,77.89-6.45,105.28c0,0-83.8-18.8-157.39-20.41,0,0-5.91-29.01-46.2-27.93,0,0-22.02-18.26-31.16-8.59-9.13,9.67,31.16,25.25,31.16,25.25,0,0-85.41,23.63-83.8,32.23s13.43,2.15,13.43,2.15c0,0,22.56,6.45,31.16,3.22,0,0,27.93,20.41,67.68,5.91,0,0,134.83,57.48,183.71,67.14,0,0,62.31,18.8,75.2-48.88l6.34-110.71"/>
    <path class="cls-29" d="M932.08,214.52s10.49,37.84,45.37,40.22c0,0-8.23,136.6-100.22,149.91,0,0-70.92-10.78-39.24-104.67,0,0,6.54-6.24,6.37-17.87"/>
    <path class="cls-29" d="M921.85,184.64s-12.63-85.67-90.2-83.68c0,0-54.82,5.96-43.15,83.03,0,0,4.33,12.1,2.94,18.92,0,0-2.48,17.41,7.49,32.49,14.93,22.58,28.81,38.42,28.81,38.42,0,0,8.67,10.62,27.85,8.82,0,0,13.42-1.81,29.38-14.62,0,0,41.22-24.28,36.31-49.5,0,0,20.27,10.6,25.53-20.41,0,0,2.95-42.46-24.97-13.48Z"/>
    <path class="cls-46" d="M848.46,165.77s25.09-11.38,38.15-4.31c0,0-10.62-12.55-39.57-1.84,0,0-4.76,4.62,1.42,6.15Z"/>
    <path class="cls-46" d="M784.98,166.52c.47-1.42,13.78-2.74,26.18-1.12,0,0,5.67,3.45-.01,6.31,0,0-22.65-6.08-25.59,1.33,0,0-1.73-3-.57-6.51Z"/>
    <path class="cls-13" d="M823.01,205.22s-8.88,17.07,9.94,16.85"/>
    <path class="cls-13" d="M943.31,189.9s-8.75-17.1-19.22,13.18c0,0,10.22-14,13.51-3.36"/>
    <path class="cls-46" d="M844.37,282.1s6.53,4.79,26.25-4.74c0,0,17.28-8.03,30.64-21.51,0,0-16.3,22.78-41.16,28.74,0,0-6.5,2.76-16.4,.44,0,0,1.44-.32,.68-2.93Z"/>
    <path class="cls-32" d="M872.02,230.91s-13.04-2.47-27.57,3.49c0,0-13.26-1.13-24.64,2.78,0,0,3.66,20.79,23.82,23.21,20.16,2.42,30.14-17.29,28.39-29.47Z"/>
    <path class="cls-27" d="M869.04,232.74s2.28,18.51-21.81,21.23c-21.88,2.47-23.91-14-23.91-14,0,0,24.77-1.67,45.72-7.23Z"/>
    <path class="cls-24" d="M866.08,233.35s-5,9.25-23.74,10.46c0,0-11.43,1.88-16.94-3.69,0,0,24.08-2.19,40.68-6.76Z"/>
    <g>
      <path class="cls-24" d="M877.73,178.65s-.04-.57-.5-1.01c-1.52-1.46-4.96-4.15-10.02-3.77-5.67,.43-8.39,5.99-9.32,7.97-.16,.34-.12,.63-.12,.63,0,0,0,.32,.21,.52,.98,.98,4.22,3.69,9.6,3.37,3.2-.19,7.56-2.25,10.01-6.8,.17-.32,.16-.7,.13-.91Z"/>
      <circle class="cls-46" cx="866.11" cy="180.53" r="5.88"/>
      <circle class="cls-24" cx="869.2" cy="177.34" r="1.61"/>
      <path class="cls-13" d="M857.55,181.87s5.88-14.06,19.9-4.29"/>
    </g>
    <g>
      <path class="cls-24" d="M812.01,188.43s.05-.54-.32-1.01c-1.2-1.58-4.02-4.57-8.78-4.94-5.33-.41-8.66,4.37-9.8,6.08-.2,.29-.2,.57-.2,.57,0,0-.04,.3,.12,.52,.77,1.05,3.4,4.03,8.45,4.5,3,.28,7.35-1.01,10.28-4.89,.2-.27,.25-.63,.25-.83Z"/>
      <circle class="cls-46" cx="800.93" cy="188.51" r="5.51"/>
      <circle class="cls-24" cx="803.94" cy="185.83" r="1.54"/>
      <path class="cls-13" d="M793.01,188.73s7.13-13.02,18.84-1.08"/>
    </g>
    <path class="cls-24" d="M953.76,261.64s38.96,7.22,73.79,14.86c57.69,12.65,55.35,95.15,55.35,95.15,0,0-14.73,28.06-49.1,60.4l77,146.78s-94.15,74.51-200.43,77.63c0,0-40.08,1.17-77.18-24.72,0,0,1.78-62.42-14.86-118.3,0,0-21.98-22.25-27.65-65l-20.34-32.41,4.33-61.15s.58-25.5,43.82-48.15c0,0,11.6-8.6,23.16-11.49,0,0,6.24,19.61,16.41,37.64,0,0,25.14,50.3,83.35,.38,0,0,16.97-27.24,12.35-71.61Z"/>
    <path class="cls-1" d="M564.82,516.95s-38.82-8.96-38.82,12.44"/>
    <path class="cls-1" d="M548.4,510.48s18.91-7.96,20.4-8.46"/>
    <path class="cls-1" d="M572.78,511.47s-3.98-14.93,4.98-22.89"/>
    <path class="cls-40" d="M1007.35,563.17l-142.2-81.72s-104.61-39.23-106.24,60.48,39.49,254.71,26.41,318.45c0,0,29.72,17.99,80.38,.01,0,0,15.57-68.38,20.47-102.7s15.19-59.48,15.19-59.48c0,0,61.86,67.64,150.12,43.12,88.26-24.52,58.84-166.72,58.84-166.72,0,0-42.5,34.32-102.97-11.44Z"/>
    <g>
      <path class="cls-29" d="M1080.14,374.49s7.42,127.24,3.18,156.93c-4.39,30.7-19.09,36.58-55.67,47.02-39.14,11.17-172.04,21.35-172.04,21.35,0,0-32.95,11.22-57.11,4.38,0,0,1.52,12.5-5.49,13.5,0,0-3.64,.27-10.51-10.22,0,0-6,6.42-11.92-9.39,0,0-7.69,6.79-12.03-5.84l-1.28-7.48s-7.78,7.16-10.85,3.6,3.6-12.6,3.6-12.6c0,0,5.3-16.14,14.17-16.66,8.88-.52,30.2-7.82,30.2-7.82l60.95,11.13s68.62-32.14,143.68-65.23c0,0-1.6-37.3-.3-64.97,0,0,44.82-22.16,81.4-57.69Z"/>
      <path class="cls-1" d="M826.76,557.32l-32.35-6.07-30.2,7.82s-6.1,.65-10.4,7.75-8.03,16.26-8.03,16.26c0,0-2.77,12.65,11.51,1.66,0,0-.11,15.35,8.48,14.97,0,0,3.1-.51,4.82-1.66,0,0,5.67,16.38,11.92,9.39,0,0-6.54-13.09-.95-17.88s13.98-3.99,13.98-3.99"/>
      <path class="cls-1" d="M757.28,584.73s3.22-14.78,7.72-18.05c4.5-3.27,13.09-6.55,13.09-6.55"/>
      <path class="cls-1" d="M770.58,598.05s-1.49-18.69,10.78-25.23"/>
    </g>
    <path class="cls-13" d="M759.25,602.27s21.75,155.67,21.75,187.72"/>
    <path class="cls-13" d="M878.34,800.18s11.75-85.03,23.02-101.98c0,0,37.6,34.56,54.19,36.28"/>
    <path class="cls-9" d="M986.62,359.3c-3.05,28.43,11.96,73.47,11.96,73.47,0,0,54.59-21.4,84.32-61.12"/>
    <path class="cls-9" d="M790.68,448.44s-1.92-23.1,.62-35.79"/>
    <path class="cls-43" d="M820.9,107.97s55.23,88.29,126.4,84.61c0,0-4.56,31.24-26.11,25.96,0,0-4.91,38.73,16.67,60.76,0,0,15.77,16.93,47.88,17.52,20.37,.37,58.39-14.6,58.39-14.6,0,0-42.26-9.97-58.39-85.25-14.01-65.4-47.34-95-47.34-95,0,0-50.78-66.9-117.49-25.04,0,0-37.09,3.95-50.75,40.52-7.9,21.15-3.95,59.17-.49,89.53,0,0,10.36,83.05,43.89,102.2,0,0,19.1-3.78,28.09-13.94,3-3.39,2.13-8.59,2.71-13.13,0,0-9.44-2.66-18.1-12.03-11.81-12.78-20.28-24.91-29.09-39.86,0,0-8.98-10.43-5.2-31.02,0,0,.47-15.24-3.07-21.23,0,0-7.64-44.27,31.99-69.99"/>
    <path class="cls-11" d="M928.61,207.36s11.72,15.35,1.13,25.99c-10.58,10.64-6.38-13.79-6.38-13.79"/>
  </g>
  <g>
    <path class="cls-46" d="M532.66,533.28c13.88-3.65,9.13-16.07,9.13-16.07,8.03-.37,5.11-14.24,5.11-14.24,9.5-5.48,3.29-16.07,3.29-16.07,4.38-8.03-4.08-17.35-4.08-17.35,7.24-10.42-3.73-14.81-3.73-14.81,6.57-10.59-5.74-19.92-5.74-19.92,4.75-10.23,1.81-18.41,1.81-18.41,6.94-13.15-1.51-22.04-1.51-22.04,6.77-10.49-.6-17.21-.6-17.21,5.84-9.86-3.02-16.91-3.02-16.91,5.48-10.96-5.74-16.3-5.74-16.3,.73-12.05-9.06-14.79-9.06-14.79-2.56-11.69-15.4-14.49-15.4-14.49-8.03-9.13-17.87-7.98-17.87-7.98-12.34-8.58-23.09-3.47-23.09-3.47-12.42-7.67-30.68-1.1-30.68-1.1-16.43-5.11-32.87,8.4-32.87,8.4-16.07-1.46-18.26,15.34-18.26,15.34-13.88,3.65-11.31,18.34-11.31,18.34-10.22-1.01-13.16,10.14-13.16,10.14-10.59,0-10.59,13.51-10.59,13.51-9.13,2.56-5.84,13.88-5.84,13.88-9.13,6.21-2.19,13.51-2.19,13.51-7.3,7.67-.37,13.51-.37,13.51-6.57,10.59-.88,17.43-.88,17.43-8.03,4.38-1.96,12.91-1.96,12.91-10.17,5.48-1.67,14.64-1.67,14.64-9.5,4.38-7.03,14.57-7.03,14.57-8.03,3.29-5.25,16.38-5.25,16.38-7.3,6.57-1.85,19.78-1.85,19.78-12.98,7.73-5.87,21.32-5.87,21.32-9.27,10.82,.31,19.78,.31,19.78-4.36,10.15-.29,15.93-.29,15.93,0,0-.98,21.54,21.4,20.58,0,0,4.02,13.6,19.16,6.18,0,0,7.42,13.91,20.4,.62,0,0,1.55,8.35,10.2,1.24"/>
    <path class="cls-29" d="M379.07,603.33s9.12,73.78,10.86,90.28c0,0-3.47,39.07-1.74,52.97l34.56-25.3-18.06-102.35-25.62-15.6Z"/>
    <path class="cls-29" d="M483.98,442.07s-1.83,36.41,32.16,48.14c0,0-9.37,40.22-9.37,54.84,0,0-69.18,23.75-120.48,3.49,0,0,29.96-38.94,34.53-60.41,0,0,3.95-16.82,1.21-24.13l61.96-21.93Z"/>
    <path class="cls-40" d="M330.99,806.09s-39.56,32.99,.06,82.71c0,0,4.66,56.71,65.25,48.94l119.57-25.32,16.21-28.87-122.65-4.64-30.7-63.06-47.75-9.76Z"/>
    <path class="cls-40" d="M586.5,682.12s47.62,89.22,11.78,153.86c-37.8,68.16-158.51,52.32-158.51,52.32,0,0-51.86-1.26-69.57-59.45,0,0-34.15,0-39.21-22.77,0,0,63.25-77.16,99.93-89.81,0,0,12.65,34.15,155.59-34.15Z"/>
    <path class="cls-13" d="M331.05,888.79s-6.05-35.15,26.09-57.88l70.39-53.21"/>
    <path class="cls-44" d="M422.82,719.98s-19.53-58.67-25.47-103.16c0,0-8.53,2.28-18.2-14.79v-43.24s6.86-54.12,41.67-70.66c0,0-2.06,27.3,26.54,30.46,0,0,42.26,1.26,54.1-42.86,0,0,41.51,1.56,65.88,38.11s25.67,64.78,25.67,64.78c0,0-9.28,4.67-9.17,14.06,.36,30.06,10.96,97.3,15.65,121.44,0,0-153.98,64.04-176.67,5.86Z"/>
    <path class="cls-36" d="M495.27,475.01s2.86,35.61-41.96,43.41c0,0-32.66,3.55-32.5-30.28,0,0-2.98,.88-4.73,2.36,0,0,2.71,34.01,37.56,32.49,0,0,32.49-4.23,40.6-26.82,0,0,5.59-12.23,7.21-20.43l-6.19-.72Z"/>
    <path class="cls-17" d="M397.61,617.4s-4.94-24.3-2.61-40.61"/>
    <g>
      <path class="cls-29" d="M592.52,580.3s23.65,94.96-21.69,133.44c-45.34,38.48-64.83,58.33-64.83,58.33l-8.01,16.89-21.45,25.87s-4.5,2.63-8.1,.28c0,0-8.61,3.76-13.61-3.18,0,0-4.66,.18-5.83-4.54,0,0-9.09-3.59-1.35-9.38,7.74-5.79,13.87-10,18.84-20.53,0,0-.62-7.59-5.36-4.82s-10.82,7.59-12.48,4.75,3.67-7.86,3.67-7.86c0,0,7.8-10.59,15.58-11.96,7.78-1.37,18.55-4.16,18.55-4.16l58.47-86.57-10.32-69.93"/>
      <path class="cls-10" d="M449.01,807.39s15.88-6.67,18.82-14.8"/>
      <path class="cls-10" d="M455.16,812.18s15.88-6.67,18.82-14.8"/>
      <path class="cls-10" d="M468.45,815.11s8.3-6.85,11.88-12.93"/>
    </g>
    <circle class="cls-36" cx="437.89" cy="531.94" r="7.77"/>
    <circle class="cls-36" cx="453.39" cy="533.09" r="7.77"/>
    <circle class="cls-36" cx="469.12" cy="530.24" r="7.77"/>
    <circle class="cls-36" cx="484.31" cy="524.89" r="7.77"/>
    <circle class="cls-36" cx="496.93" cy="515.41" r="7.77"/>
    <circle class="cls-36" cx="504.5" cy="503.28" r="7.77"/>
    <circle class="cls-36" cx="423.25" cy="526.48" r="7.77"/>
    <circle class="cls-36" cx="413.43" cy="516.1" r="7.17"/>
    <circle class="cls-36" cx="444.01" cy="545.66" r="7.77"/>
    <circle class="cls-36" cx="463.35" cy="544.85" r="7.77"/>
    <circle class="cls-36" cx="481.47" cy="539.99" r="7.77"/>
    <circle class="cls-36" cx="498.23" cy="531" r="7.77"/>
    <circle class="cls-36" cx="510.05" cy="517.38" r="7.77"/>
    <circle class="cls-36" cx="425.97" cy="541.27" r="7.77"/>
    <circle class="cls-36" cx="410.44" cy="529.78" r="6.86"/>
    <path class="cls-29" d="M497.7,354.35s13.63,1.97,15.59,33.48c0,0-2.06,10.24-.41,16.35,1.64,6.11,1.16,25.66-1.43,36.94-2.58,11.28-10.44,30.31-28.06,39.01-17.62,8.69-45.47-5.92-45.47-5.92,0,0-28.43-13.86-34.78-31.49,0,0-10.57,11.28-21.15,2.11-10.57-9.16-22.09-32.66-10.34-39.01,10.08-5.44,19.3,7.98,21.71,11.89,.4,.65,.61,1.03,.61,1.03,0,0,32.04-39.07,27.78-65.64,0,0,17.69,14.01,38.72,7,0,0,24.78,10.36,37.21-5.77Z"/>
    <path class="cls-44" d="M378.79,354.3s-1.21,12.63,10.3,15.44c11.51,2.81,8.08-14.45,8.08-14.45,0,0,17.47-.94,16.17-7.6-1.3-6.66-12.1-16.05-14.99-11.55-2.89,4.5-3.41,13.32-3.41,13.32,0,0-13.75,.38-16.14,4.84Z"/>
    <path class="cls-37" d="M458.29,388.09s-17.57-3.17-32.5,2.81c0,0,6.95-9.88,32.73-6.99,0,0,4.37,2.41-.23,4.19Z"/>
    <path class="cls-37" d="M513.43,389.38c-12.29-2.56-21.18-1.26-21.18-1.26-4.54-1.91-.11-4.19-.11-4.19,8.05-.66,17.01,.69,21.72,1.72,0,0,.24,3.87-.43,3.73Z"/>
    <path class="cls-30" d="M455.63,444.51s9.23-2.85,20.22,.27c0,0,9.5-1.9,18.05,0,0,0-.95,15.33-15.33,18.73-14.38,3.39-23.21-10.04-22.93-19Z"/>
    <path class="cls-27" d="M457.93,445.6s-.14,13.57,17.51,13.57c16.02,0,16.15-12.08,16.15-12.08,0,0-18.05,.81-33.66-1.49Z"/>
    <path class="cls-24" d="M460.12,445.79s4.37,6.28,18.03,5.62c0,0,8.42,.42,11.95-4.05,0,0-17.6,.38-29.97-1.57Z"/>
    <path class="cls-2" d="M482.34,411.35s10.69,10.22-.46,16.73"/>
    <path class="cls-2" d="M374.19,422.88s5.35-8.1,11.34,.16c6,8.26,6.32,11.02,6.32,11.02,0,0-8.59-13.12-11.99-2.59"/>
    <g>
      <path class="cls-26" d="M388.38,412.16s7.47,9.73,0,14.26c-7.47,4.53,4.98,1.81,4.98,1.81,0,0,8.6-3.64-1.81-19.36l-3.17,3.29Z"/>
      <path class="cls-24" d="M388.38,426.42s-4.07-11.09-11.77-8.83,.45,15.84,.45,15.84c0,0,2.26,3.17,6.56,2.94,0,0-4.07-7.47,4.75-9.96Z"/>
      <path class="cls-38" d="M369.86,412.33s-6.34,3.46-4.22-4.03c2.11-7.49,13.06-7.68,16.51-7.1,3.46,.58,8.45,2.3,9.41,7.68,.96,5.38-6.53,.58-6.53,.58,0,0-9.02-6.91-15.17,2.88Z"/>
    </g>
    <g>
      <path class="cls-24" d="M437.28,402.39s-.02-.49,.33-.92c1.16-1.41,3.86-4.05,8.25-4.22,4.92-.18,7.8,4.34,8.78,5.95,.17,.28,.16,.53,.16,.53,0,0,.03,.27-.13,.47-.75,.94-3.27,3.58-7.93,3.83-2.77,.15-6.72-1.2-9.27-4.87-.18-.26-.2-.59-.2-.77Z"/>
      <path class="cls-46" d="M452.55,402.88c0-2.81-2.28-5.09-5.09-5.09s-5.09,2.28-5.09,5.09,2.28,5.09,5.09,5.09,5.09-2.28,5.09-5.09Z"/>
      <circle class="cls-24" cx="444.68" cy="405.4" r="1.4"/>
      <path class="cls-16" d="M454.95,403.2s-6.42-11.51-17.53-1.76"/>
    </g>
    <g>
      <path class="cls-24" d="M490.75,402.89s-.09-.45,.17-.89c.87-1.45,2.97-4.26,6.97-5.03,4.48-.86,7.76,2.88,8.89,4.22,.19,.23,.22,.46,.22,.46,0,0,.06,.25-.05,.45-.56,.97-2.5,3.74-6.73,4.63-2.52,.52-6.33-.15-9.18-3.16-.2-.21-.27-.51-.29-.68Z"/>
      <circle class="cls-46" cx="500.15" cy="401.9" r="4.7"/>
      <circle class="cls-24" cx="497.57" cy="404.27" r="1.32"/>
      <path class="cls-16" d="M506.89,401.33s-7.29-10.36-16.07,.89"/>
    </g>
    <path class="cls-46" d="M422.02,464.01s25.53,18.84,48.65,19.04c0,0,12.68,.7,22.67-9.3l.81,.91s-7.88,8.78-23.12,9.39c0,0-8.08,.4-17.36-2.73s-20.39-7.89-31.65-17.32Z"/>
    <g>
      <path class="cls-29" d="M571.98,846.23s15.57-14.78,25.34-13.15c0,0,17.29,15.54,7.65,31.94,0,0-12.77-14.97-32.99-18.8Z"/>
      <path class="cls-29" d="M562.09,853.94s29.84,2.03,39.18,18.25c0,0-12.56,10.46-18.71,21.47,0,0-58.23,17.6-105.26,27.94,0,0,11.06-28.54-24.45-59.26,0,0,33-2.25,58.8-4.02,25.8-1.77,50.44-4.38,50.44-4.38Z"/>
      <path class="cls-23" d="M597.32,833.09s11.35-10.31,17.14-9.2c0,0,8.79,11.78,9.21,30.83,0,0,.17,10.36,11.15,18.23,10.98,7.87,26.17,46.34,18.05,62.31s-26.43-2.44-26.43-2.44c0,0-17.19-28.04-32.33-29.27-15.14-1.23-11.55-9.9-11.55-9.9,0,0,6.67-17.21,16.25-22.1,0,0-9.13-14.97-36.73-17.62l9.89-7.71s23.02,3.94,31.73,17.38c0,0,10.62-9.01-6.38-30.53Z"/>
      <circle class="cls-37" cx="603.55" cy="868.38" r="6.86"/>
      <circle class="cls-37" cx="627.08" cy="880.11" r="4.54"/>
      <circle class="cls-37" cx="636.79" cy="892.9" r="4.54"/>
      <circle class="cls-37" cx="643.68" cy="908.65" r="4.54"/>
      <circle class="cls-37" cx="645.88" cy="923.02" r="4.54"/>
      <circle class="cls-37" cx="644.77" cy="936.16" r="4.54"/>
      <path class="cls-6" d="M617.89,884.84s23.35,28.5,14.85,48.97"/>
    </g>
  </g>
  <g>
    <path class="cls-33" d="M56.02,893.21s51.82-15.94,73.07,7.97c0,0,31.89,46.5,81.05,75.73,0,0,59.79-39.86,118.25-39.86,0,0-9.3-54.47-73.07-70.42,0,0-13.29-18.6-49.16-26.57,0,0-114.26-14.61-150.13,53.14Z"/>
    <path class="cls-22" d="M57.49,886.37s51.82-15.94,73.07,7.97c0,0,31.89,46.5,81.05,75.73,0,0,59.79-39.86,118.25-39.86,0,0-9.3-54.47-73.07-70.42,0,0-13.29-18.6-49.16-26.57,0,0-114.26-14.61-150.13,53.14Z"/>
    <path class="cls-24" d="M59.7,878.99s51.82-15.94,73.07,7.97c0,0,31.89,46.5,81.05,75.73,0,0,59.79-39.86,118.25-39.86,0,0-9.3-54.47-73.07-70.42,0,0-13.29-18.6-49.16-26.57,0,0-114.26-14.61-150.13,53.14Z"/>
    <path class="cls-15" d="M258.99,852.42s-68.56-.17-126.22,34.54"/>
    <path class="cls-20" d="M164.83,882.58c3.23,3.92-.39,5.82,3.75,10.22,2.05,2.18,7.32,1.86,9.98,4.41,2.36,2.26,2.25,7.56,4.9,9.76s7.76,1.08,10.51,2.89c3.02,1.99,4.22,7.19,7.13,8.3,2.47,.94,6.6-1.33,8.72,.11s1.65,6.26,3.45,8.05c1.92,1.9,6.62,1.27,8.12,3.24,1.73,2.28-.15,6.73,1.01,8.7,2.36,4.01,5.66,1.55,7.12,5.16"/>
    <path class="cls-20" d="M179.53,874.47c3.23,3.92-.39,5.82,3.75,10.22,2.05,2.18,7.32,1.86,9.98,4.41,2.36,2.26,2.25,7.56,4.9,9.76s7.76,1.08,10.51,2.89c3.02,1.99,4.22,7.19,7.13,8.3,2.47,.94,6.6-1.33,8.72,.11s1.65,6.26,3.45,8.05c1.92,1.9,6.62,1.27,8.12,3.24,1.73,2.28-.15,6.73,1.01,8.7,2.36,4.01,5.66,1.55,7.12,5.16"/>
    <path class="cls-20" d="M196.77,869.4c3.23,3.92-.39,5.82,3.75,10.22,2.05,2.18,7.32,1.86,9.98,4.41,2.36,2.26,2.25,7.56,4.9,9.76s7.76,1.08,10.51,2.89c3.02,1.99,4.22,7.19,7.13,8.3,2.47,.94,6.6-1.33,8.72,.11s1.65,6.26,3.45,8.05c1.92,1.9,6.62,1.27,8.12,3.24,1.73,2.28-.15,6.73,1.01,8.7,2.36,4.01,5.66,1.55,7.12,5.16"/>
    <path class="cls-20" d="M215.53,863.82c3.23,3.92-.39,5.82,3.75,10.22,2.05,2.18,7.32,1.86,9.98,4.41,2.36,2.26,2.25,7.56,4.9,9.76s7.76,1.08,10.51,2.89c3.02,1.99,4.22,7.19,7.13,8.3,2.47,.94,6.6-1.33,8.72,.11s1.65,6.26,3.45,8.05c1.92,1.9,6.62,1.27,8.12,3.24,1.73,2.28-.15,6.73,1.01,8.7,2.36,4.01,5.66,1.55,7.12,5.16"/>
    <path class="cls-20" d="M235.8,858.24c3.23,3.92-.39,5.82,3.75,10.22,2.05,2.18,7.32,1.86,9.98,4.41,2.36,2.26,2.25,7.56,4.9,9.76s7.76,1.08,10.51,2.89c3.02,1.99,4.22,7.19,7.13,8.3,2.47,.94,6.6-1.33,8.72,.11s1.65,6.26,3.45,8.05c1.92,1.9,6.62,1.27,8.12,3.24,1.73,2.28-.15,6.73,1.01,8.7,2.36,4.01,5.66,1.55,7.12,5.16"/>
  </g>
</svg>