<?xml version="1.0" encoding="UTF-8"?>
<svg id="Layer_1" data-name="Layer 1" xmlns="http://www.w3.org/2000/svg" xmlns:xlink="http://www.w3.org/1999/xlink" viewBox="0 0 1336.45 1000.11">
  <defs>
    <style>
      .cls-1, .cls-2, .cls-3, .cls-4, .cls-5, .cls-6, .cls-7, .cls-8, .cls-9, .cls-10, .cls-11, .cls-12, .cls-13, .cls-14, .cls-15, .cls-16 {
        fill: none;
      }

      .cls-2, .cls-3 {
        stroke-width: 1.5px;
      }

      .cls-2, .cls-3, .cls-4, .cls-5, .cls-6, .cls-17, .cls-18, .cls-19, .cls-8, .cls-9, .cls-10, .cls-11, .cls-12, .cls-13, .cls-14, .cls-15, .cls-16 {
        stroke-miterlimit: 10;
      }

      .cls-2, .cls-8, .cls-12 {
        stroke: #006838;
      }

      .cls-3, .cls-14 {
        stroke: #754c29;
      }

      .cls-20 {
        fill: url(#linear-gradient);
      }

      .cls-21 {
        clip-path: url(#clippath);
      }

      .cls-4 {
        stroke-width: .8px;
      }

      .cls-4, .cls-6, .cls-11 {
        stroke: #231f20;
      }

      .cls-22 {
        fill: #017f7f;
      }

      .cls-23, .cls-18 {
        fill: #00a79d;
      }

      .cls-24 {
        fill: #00979c;
      }

      .cls-25 {
        fill: #eac482;
      }

      .cls-26 {
        fill: #eab26e;
      }

      .cls-27 {
        fill: #f6ac1b;
      }

      .cls-28 {
        fill: #f05380;
      }

      .cls-29, .cls-30 {
        fill: #fff;
      }

      .cls-31 {
        fill: #803435;
      }

      .cls-32 {
        fill: #00a651;
      }

      .cls-33 {
        fill: #9054a2;
      }

      .cls-34 {
        fill: #8dc63f;
      }

      .cls-35 {
        fill: #b27a50;
      }

      .cls-36 {
        fill: #a8866a;
      }

      .cls-37 {
        fill: #be9e7d;
      }

      .cls-38 {
        fill: #bf6b6b;
      }

      .cls-39 {
        fill: #d39494;
      }

      .cls-40 {
        fill: #d1d3d4;
      }

      .cls-41 {
        fill: #d14699;
      }

      .cls-42 {
        fill: #dc3b28;
      }

      .cls-43 {
        fill: #231f20;
      }

      .cls-44 {
        fill: #1c75bc;
      }

      .cls-45 {
        fill: #414042;
      }

      .cls-46 {
        fill: #064948;
      }

      .cls-47 {
        fill: #07935b;
      }

      .cls-48 {
        fill: #27aae1;
      }

      .cls-49 {
        fill: #2bb673;
      }

      .cls-50 {
        fill: #3a757f;
      }

      .cls-51 {
        fill: #3a6bb4;
      }

      .cls-52 {
        fill: #59bede;
      }

      .cls-53 {
        fill: #603913;
      }

      .cls-54 {
        fill: #754c29;
      }

      .cls-55 {
        fill: #75c482;
      }

      .cls-56 {
        fill: #26130f;
      }

      .cls-57, .cls-19 {
        fill: #50a7bb;
      }

      .cls-5 {
        stroke: #b6302e;
        stroke-dasharray: 0 3;
      }

      .cls-5, .cls-8 {
        stroke-width: 2px;
      }

      .cls-58 {
        fill: #ee8686;
      }

      .cls-58, .cls-6, .cls-7, .cls-9 {
        stroke-linecap: round;
      }

      .cls-58, .cls-7 {
        stroke-linejoin: round;
      }

      .cls-58, .cls-7, .cls-9 {
        stroke: #f15a29;
        stroke-width: 4px;
      }

      .cls-59 {
        clip-path: url(#clippath-1);
      }

      .cls-6, .cls-17, .cls-15, .cls-16 {
        stroke-width: .5px;
      }

      .cls-17 {
        fill: #16a9de;
      }

      .cls-17, .cls-19 {
        stroke: #2e3192;
      }

      .cls-18 {
        stroke: #09753e;
      }

      .cls-10 {
        stroke: #a97c50;
        stroke-width: .2px;
      }

      .cls-13 {
        stroke: #603913;
      }

      .cls-30 {
        opacity: .5;
      }

      .cls-60 {
        fill: #af7336;
      }

      .cls-60, .cls-61, .cls-62 {
        opacity: .8;
      }

      .cls-61 {
        fill: #dea962;
      }

      .cls-62 {
        fill: #edb36e;
      }

      .cls-15 {
        stroke: #fff;
      }

      .cls-16 {
        stroke: #fff200;
      }
    </style>
    <clipPath id="clippath">
      <rect class="cls-1" y="61.78" width="1333.72" height="224.39"/>
    </clipPath>
    <linearGradient id="linear-gradient" x1="315.53" y1="425.54" x2="315.53" y2="353.88" gradientTransform="translate(8.42 48.75) rotate(-1.22)" gradientUnits="userSpaceOnUse">
      <stop offset="0" stop-color="#be9e7d"/>
      <stop offset=".7" stop-color="#231f20"/>
    </linearGradient>
    <clipPath id="clippath-1">
      <path class="cls-1" d="M726.8,256.08s-1.25,4.71,25.64,30.08l5.11,10.44-4.58,16.25-11.62-2.43-12.35-31.87-5.17-20.74,2.98-1.73Z"/>
    </clipPath>
  </defs>
  <g>
    <rect class="cls-62" x="593.54" y="-157.08" width="149.56" height="1332.82" transform="translate(1177.65 -158.99) rotate(90)"/>
    <rect class="cls-61" x="593.54" y="-306.15" width="149.56" height="1332.82" transform="translate(1028.58 -308.06) rotate(90)"/>
    <rect class="cls-61" x="593.54" y="-7.23" width="149.56" height="1332.82" transform="translate(1327.5 -9.14) rotate(90)"/>
    <rect class="cls-48" x=".62" y="1.57" width="1333.68" height="284.62"/>
    <rect class="cls-60" x=".4" y="733.52" width="1333.94" height="266.59"/>
    <g class="cls-21">
      <path class="cls-32" d="M139.61,421.29s108.03,69.98,153.8-41.42c45.77-111.4,98.34-86.14,98.34-86.14,0,0,46.95-47.3-31.77-94.14-78.72-46.84-156,41.11-156,41.11,0,0-39.62,75.24-86.99,12.58-47.36-62.66-141.05,6.18-81.83,48.06,59.22,41.88,88.56,72.88,104.44,119.95Z"/>
      <path class="cls-34" d="M1016.6,391.94s72.27,50.27,73.84-36.13-100.54-76.98-108.4-106.83c-7.85-29.85-45.56-78.55-146.1-78.55s-17.28,135.1-92.69,152.39c-75.41,17.28-138.25,136.68-37.7,125.68,100.54-11,204.23,39.27,208.94,51.84s-4.71,11,4.71,12.57c9.43,1.57,180.66,25.14,97.4-120.97Z"/>
      <path class="cls-32" d="M969.64,324.15s-41.37-186.95,81.69-195.59c123.06-8.64,85.35,107.61,138.77,95.04,53.41-12.57,89.55-160.24,142.96-135.1l3.09,230.87-366.51,4.78Z"/>
      <path class="cls-23" d="M388.67,358.19s-6.28-182.23,160.24-136.68c166.52,45.56,210.51,67.55,241.93,37.7s79.93,43.99,49.39,98.97H388.67Z"/>
    </g>
    <rect class="cls-30" x=".56" y="1.57" width="1333.97" height="284.8"/>
    <rect class="cls-26" x="1221.8" y="43.87" width="38.9" height="242.48"/>
    <g>
      <path class="cls-9" d="M1222.65,170.13s-43.04,48.65,8.42,76.72h14.97s48.65-12.16,14.97-76.72"/>
      <path class="cls-9" d="M1240.43,247.31l-30.87,94.02s30.87,29.94,54.26,2.81l-23.39-96.83Z"/>
      <polyline class="cls-7" points="1242.06 353.48 1240.43 247.31 1220.78 347.88"/>
      <line class="cls-9" x1="1256.33" y1="347.88" x2="1240.43" y2="247.31"/>
      <path class="cls-58" d="M1209.55,341.33s-46.31,204.89,122.56,158.11l2.34-93.56c-53.33,14.97-70.64-61.75-70.64-61.75,0,0-21.99,27.13-54.26-2.81Z"/>
      <path class="cls-7" d="M1220.78,347.88s-37.89,170.27,110.86,138.46"/>
      <path class="cls-7" d="M1242.06,353.48s-28.3,130.06,91.45,107.6"/>
      <path class="cls-7" d="M1256.33,347.88s-8.89,110.4,76.25,83.27"/>
      <path class="cls-9" d="M1247.99,245.56s-9.39-10.95-21.27-.94c-11.89,10.01,10.32,12.51,10.32,12.51,0,0,11.58,2.82,12.51-6.57s-20.02-10.01-19.71-.94c.31,9.07,25.03,3.13,25.03,3.13"/>
    </g>
    <g>
      <path class="cls-25" d="M.62,1.57V95.83s20.42,91.12,23.56,125.68c0,0,18.85-171.24,11-221.51L.62,1.57Z"/>
      <path class="cls-25" d="M1334.38,1.57V95.83s-20.42,91.12-23.56,125.68C1310.82,221.51,1291.97,50.27,1299.82,0l34.56,1.57Z"/>
      <path class="cls-25" d="M87.02,0s-6.28,157.1-29.85,230.93c0,0-26.71-179.09-21.99-230.93h51.84Z"/>
      <path class="cls-25" d="M234.69,0s-6.28,157.1-29.85,230.93c0,0-26.71-179.09-21.99-230.93h51.84Z"/>
      <path class="cls-25" d="M185.99,0s-6.28,133.59-29.85,196.37c0,0-26.71-152.29-21.99-196.37h51.84Z"/>
      <path class="cls-25" d="M135.72,0s-6.28,122.9-29.85,180.66c0,0-26.71-140.11-21.99-180.66h51.84Z"/>
      <path class="cls-25" d="M234.69,0s-11,163.38,6.28,208.94c0,0-4.71-177.52,26.71-208.94h-32.99Z"/>
      <path class="cls-25" d="M316.39,0s-6.28,157.1-29.85,230.93c0,0-26.71-179.09-21.99-230.93h51.84Z"/>
      <path class="cls-25" d="M464.06,0s-6.28,157.1-29.85,230.93c0,0-26.71-179.09-21.99-230.93h51.84Z"/>
      <path class="cls-25" d="M415.36,0s-6.28,133.59-29.85,196.37c0,0-26.71-152.29-21.99-196.37h51.84Z"/>
      <path class="cls-25" d="M365.09,0s-6.28,122.9-29.85,180.66c0,0-26.71-140.11-21.99-180.66h51.84Z"/>
      <path class="cls-25" d="M464.06,0s-11,163.38,6.28,208.94c0,0-4.71-177.52,26.71-208.94h-32.99Z"/>
      <path class="cls-25" d="M542.61,0s-6.28,157.1-29.85,230.93c0,0-26.71-179.09-21.99-230.93h51.84Z"/>
      <path class="cls-25" d="M690.28,0s-6.28,157.1-29.85,230.93c0,0-26.71-179.09-21.99-230.93h51.84Z"/>
      <path class="cls-25" d="M641.58,0s-6.28,133.59-29.85,196.37c0,0-26.71-152.29-21.99-196.37h51.84Z"/>
      <path class="cls-25" d="M591.31,0s-6.28,122.9-29.85,180.66c0,0-26.71-140.11-21.99-180.66h51.84Z"/>
      <path class="cls-25" d="M690.28,0s-11,163.38,6.28,208.94c0,0-4.71-177.52,26.71-208.94h-32.99Z"/>
      <path class="cls-25" d="M771.97,0s-6.28,157.1-29.85,230.93c0,0-26.71-179.09-21.99-230.93h51.84Z"/>
      <path class="cls-25" d="M919.64,0s-6.28,157.1-29.85,230.93c0,0-26.71-179.09-21.99-230.93h51.84Z"/>
      <path class="cls-25" d="M870.94,0s-6.28,133.59-29.85,196.37c0,0-26.71-152.29-21.99-196.37h51.84Z"/>
      <path class="cls-25" d="M820.67,0s-6.28,122.9-29.85,180.66c0,0-26.71-140.11-21.99-180.66h51.84Z"/>
      <path class="cls-25" d="M919.64,0s-11,163.38,6.28,208.94c0,0-4.71-177.52,26.71-208.94h-32.99Z"/>
      <path class="cls-25" d="M1001.33,0s-6.28,157.1-29.85,230.93c0,0-26.71-179.09-21.99-230.93h51.84Z"/>
      <path class="cls-25" d="M1149.01,0s-6.28,157.1-29.85,230.93c0,0-26.71-179.09-21.99-230.93h51.84Z"/>
      <path class="cls-25" d="M1100.31,0s-6.28,133.59-29.85,196.37c0,0-26.71-152.29-21.99-196.37h51.84Z"/>
      <path class="cls-25" d="M1050.04,0s-6.28,122.9-29.85,180.66c0,0-26.71-140.11-21.99-180.66h51.84Z"/>
      <path class="cls-25" d="M1302.96,0s-6.28,157.1-29.85,230.93c0,0-26.71-179.09-21.99-230.93h51.84Z"/>
      <path class="cls-25" d="M1254.26,0s-6.28,133.59-29.85,196.37c0,0-26.71-152.29-21.99-196.37h51.84Z"/>
      <path class="cls-25" d="M1203.99,0s-6.28,122.9-29.85,180.66c0,0-26.71-140.11-21.99-180.66h51.84Z"/>
      <path class="cls-25" d="M1149.01,0s-11,163.38,6.28,208.94c0,0-4.71-177.52,26.71-208.94h-32.99Z"/>
    </g>
  </g>
  <g>
    <path class="cls-37" d="M394.92,567.75s47.49,64.21,95.26,55.66,70.39-10.51,70.39-10.51l14.79,3.73,27.42-.06s3.99-1.47,4.38-4.95c0,0,6.84-3.47,5.07-10.22,0,0,2.53-2.84,.17-6.03,0,0,2.46-7.59-5.21-5.72-7.67,1.87-13.5,3.53-22.71,1.19,0,0-4.46-4.33-.25-5.87s10.4-2.87,9.47-5.39c-.93-2.52-6.86-1.77-6.86-1.77,0,0-10.72-.59-15.62,3.6s-12.25,9.52-12.25,9.52l-84.87-8.16-38.66-42.82"/>
    <path class="cls-37" d="M343.77,471.36s6.01,18.75,2,35.33c0,0,5.14,31.03,42.1,35.43,0,0,39.76-8.41,15.52-35.78,0,0-3.68-1.38-3.2-7.53,0,0-45.23-1.57-56.41-27.46Z"/>
    <path class="cls-37" d="M412.53,395.42s10.35,7.15,12.1,31.13c1.75,23.98,1.52,29.63-.8,49.21-2.32,19.58-30.77,24.12-30.77,24.12,0,0-43.26-4.69-50.83-27.34,0,0-9.09,12.5-19.35-2.85,0,0-11.62-16.82-3.19-22.11,0,0,9.25-4.32,15.64,5.34,0,0-9.01-40.76,4.42-48.37,0,0,31.67-36.46,72.77-9.12Z"/>
    <path class="cls-56" d="M381.42,429.65s-16.65-1.51-23.48,3.67c0,0,4.58-7.33,23.45-6.7,0,0,3.51,1.42,.02,3.03Z"/>
    <path class="cls-56" d="M424.28,426.14c-.36-.67-8.93-1.08-16.77-.09,0,0-3.47,1.75,.29,3.02,0,0,14.2-3.29,16.41,.2,0,0,.97-1.47,.07-3.13Z"/>
    <path class="cls-11" d="M404.34,449.1s8.21,10.94-5.02,12.97"/>
    <path class="cls-11" d="M321.15,456.09s3.42-10.7,12.35,5.77c0,0-7.23-7.1-8.12-.65"/>
    <path class="cls-56" d="M400.29,498.09s-11.77,1.93-20.5-.8c0,0-7.7-1.15-17.67-6.11,0,0,7.06,6.83,20.54,10,0,0,9.51,2.57,17.41,.03,0,0-.07-.69,.23-3.13Z"/>
    <path class="cls-23" d="M427.7,699.34s4.84-49.84,3.61-86.45c0,0,29.71-4.46,37.92-43.12l-14.24-15.99s-22.01-37.26-51.61-47.43c0,0,14.69,18.24-7.9,24.64,0,0-34.21,9.62-49.71-24.29,0,0-42.35,10.46-49.71,45.55-7.36,35.09-3.44,72.47-3.44,72.47,0,0,4.7,36.76,4.02,63.1,0,0,120.66,61.43,131.06,11.54Z"/>
    <path class="cls-41" d="M345.77,506.69s11.09,30.01,49.71,24.29c0,0,22.31-6.9,7.9-24.64,0,0,4.83,.82,6.44,1.77,0,0,14.49,22.09-13.27,28.46,0,0-31.05,4.77-46.8-13.14,0,0-6.92-8.23-9.33-14.6l5.34-2.14Z"/>
    <g>
      <path class="cls-29" d="M365.62,440.85s-.04-.4,.23-.76c.88-1.19,2.96-3.45,6.51-3.76,3.98-.35,6.5,3.19,7.36,4.45,.15,.22,.15,.42,.15,.42,0,0,.03,.22-.09,.39-.57,.79-2.5,3.04-6.26,3.43-2.24,.23-5.49-.69-7.71-3.56-.15-.2-.19-.47-.2-.61Z"/>
      <circle class="cls-56" cx="373.88" cy="440.82" r="4.13"/>
      <circle class="cls-29" cx="371.49" cy="442.68" r="1.13"/>
      <path class="cls-4" d="M379.96,440.77s-5.68-9.06-14.28-.7"/>
    </g>
    <g>
      <path class="cls-29" d="M408.96,439.03s-.09-.36,.1-.73c.64-1.21,2.23-3.58,5.44-4.37,3.6-.89,6.41,2.01,7.38,3.04,.17,.18,.2,.36,.2,.36,0,0,.06,.2-.02,.37-.41,.81-1.87,3.14-5.26,4.03-2.02,.53-5.13,.14-7.57-2.18-.17-.16-.24-.4-.27-.54Z"/>
      <circle class="cls-56" cx="416.54" cy="437.83" r="3.82"/>
      <circle class="cls-29" cx="414.49" cy="439.7" r="1.07"/>
      <path class="cls-4" d="M421.97,437.09s-6.34-8.09-12.99,1.39"/>
    </g>
    <path class="cls-17" d="M431.31,612.89s2.42-33.34-1.66-46.15"/>
    <g>
      <path class="cls-39" d="M383.63,472.61s6.14-2.23,13.67-.48c0,0,6.36-1.6,12.19-.59,0,0-.14,10.39-9.74,13.16-9.61,2.76-16.01-6.02-16.12-12.08Z"/>
      <path class="cls-31" d="M385.22,473.26s.35,9.17,12.27,8.59c10.82-.53,10.51-8.69,10.51-8.69,0,0-12.17,1.14-22.79,.1Z"/>
      <path class="cls-29" d="M386.81,473.4s3.01,3.72,12.22,2.83c0,0,5.67,.17,7.91-2.98,0,0-11.63,.9-20.12,.15Z"/>
    </g>
    <g>
      <path class="cls-36" d="M379.33,591.08s-9.76-19.51-7.71-31.91l-7.21,1.4s-4.28,29.64,14.92,30.51Z"/>
      <path class="cls-36" d="M354.07,593.42l-.51-5.36s-7.55-4.47-8.81-23.99l-10.34,2.41s2.44,33.63,19.66,26.95Z"/>
      <path class="cls-35" d="M315.3,571.99s76.9-18.89,101.5-18.87c0,0-79.73,3.54-100.55,11,0,0-7.59,3.12-.96,7.87Z"/>
      <path class="cls-55" d="M413.43,553s12.05-.45,15.46,9.24c0,0-18.09,6.65-15.46-9.24Z"/>
      <path class="cls-55" d="M399.73,554.85s9.86-4.58,8.87-15.74c0,0-17.26-.65-8.87,15.74Z"/>
      <path class="cls-36" d="M379.33,591.08s-4.37-17.65,13.47-22.55c17.84-4.9,26.55,11.16,26.55,11.16,0,0,7.63,21.27-7.6,24.81-15.23,3.54-20.41,10.31-20.41,10.31,0,0-17.51,18.78-34.62,17.76-17.1-1.02-28.13-5.89-32.45-21.27-4.32-15.38-4.56-38.14-.25-45.8,0,0,1.61-8.82,5.58-7.58,3.96,1.25,4.89,12.01,4.89,12.01,0,0,2.79,18.11,9.13,21.07,6.75,3.16,10.45,2.41,10.45,2.41,0,0-3.15-29.46,2.66-35.3s9.01,1.08,9.01,1.08c0,0-3.87,7.72,.87,19.89,3.84,9.87,9.27,10.67,9.27,10.67l3.47,1.31Z"/>
      <path class="cls-29" d="M403.39,578.96s11.28,.83,12.22,7.85,.98,13.22-10.2,14.39c-11.17,1.17-21.23-9.13-21.23-9.13,0,0-4.58-9.95,.81-13.77,5.39-3.82,15.03-6.03,18.4,.66Z"/>
      <path class="cls-43" d="M416.48,594.63s-3.48-8.62-8.01-8.51c-4.53,.1-5.03,3.29-5.03,3.29,0,0-.12,2.85,4.25,4.76,4.37,1.9,4.34,5.45,4.34,5.45,0,0,3.58-.83,4.45-4.99Z"/>
      <path class="cls-43" d="M383.74,581.49s9.95-3.49,12.36-.01-1.37,6.04-1.37,6.04c0,0-6.06-.71-11.61,.78,0,0-2.08-3.41,.62-6.8Z"/>
      <path class="cls-43" d="M397.33,594.86s6.12-.49,3.82-3.11-5.53-1.65-5.53-1.65c0,0-1.36,1.16,1.72,4.76Z"/>
      <path class="cls-6" d="M397.33,594.86c.2,4.75,5.87,1.72,5.87,1.72"/>
      <path class="cls-6" d="M391.68,593.12s2.57,3.63,6.03,1.95"/>
      <circle class="cls-29" cx="407.84" cy="590.2" r="2.12"/>
      <circle class="cls-43" cx="407.75" cy="590.19" r="1.39"/>
      <circle class="cls-29" cx="408.7" cy="590.02" r=".8"/>
      <circle class="cls-29" cx="392.45" cy="584.13" r="2.12"/>
      <circle class="cls-43" cx="392.36" cy="584.11" r="1.39"/>
      <circle class="cls-29" cx="393.31" cy="583.94" r=".8"/>
    </g>
    <path class="cls-37" d="M310.8,613.12s34.79,71.89,83.32,72.33,71.12,2.7,71.12,2.7l13.85,6.41,26.96,5.01s4.2-.7,5.22-4.06c0,0,7.36-2.14,6.88-9.1,0,0,3.02-2.32,1.28-5.89,0,0,3.82-7-4.06-6.59s-13.92,.97-22.54-3.03c0,0-3.58-5.08,.84-5.82,4.42-.74,10.75-.9,10.31-3.55s-6.41-3.01-6.41-3.01c0,0-10.42-2.57-16.02,.65s-13.8,7.09-13.8,7.09l-81.89-23.73-30.07-49.24"/>
    <path class="cls-18" d="M295.1,568.99s-4.29,33.38,13.14,51.73c0,0,23.69,8,64.16-24.82,0,0-13.78-43.51-31.92-54.32-18.15-10.81-42.93-2.19-45.38,27.41Z"/>
    <path class="cls-43" d="M419.69,406.06s1.75-17.99-22.48-30.84c0,0-25.05-15.82-52.67,4,0,0-27.2,5.72-25.58,31.48,0,0,14.57-14.44,26.44-.55,0,0,9.22-16.11,27.26-8.37,0,0,11.63,4.75,21.19,11.05,0,0,12.7-20.22,25.85-6.77Z"/>
    <path class="cls-20" d="M323.11,396.03s-15.81,11.3-5,54.5c0,0,9.1-12.84,19.04,8.74l5.01,8.03s-9.7-44.98,7.08-62.84l-26.13-8.43Z"/>
    <g>
      <path class="cls-51" d="M246.32,836.18s-3.11-2.52-7.05-2.07c0,0-11.68,17.38-8.45,31.22,0,0-18.82,34.56-11.58,47.14,0,0,3.92,8.57,9.18,7.22"/>
      <path class="cls-45" d="M271.28,842.36s-8.8-9.01-24.96-6.18c0,0-10.9,18.74-10.11,30.86,0,0-8.63,10.92-11.08,20.65,0,0-8.87,22.78,1.01,30.45,9.89,7.67,21.44-12.94,21.44-12.94l20.62-29.88s-15.34-16.37,3.08-32.96Z"/>
      <path class="cls-29" d="M261.45,885.09s-5.5-1.68-6.64-6.28c0,0-2.94,.12-2.59,2.69,0,0,2.17,6.06,6.79,6.69,0,0,2.52,.23,2.44-3.09Z"/>
      <path class="cls-29" d="M258.18,890.83s-5.5-1.68-6.64-6.28c0,0-2.94,.12-2.59,2.69,0,0,2.17,6.06,6.79,6.69,0,0,2.52,.23,2.44-3.09Z"/>
    </g>
    <path class="cls-37" d="M349.67,807.34s5.55,24.98,9.99,32.75c0,0-45.52-7.22-68.83-1.67,0,0-36.64,2.22-34.42,26.09,0,0,114.35,38.3,149.88,24.43,35.53-13.88,24.43-72.72,24.43-72.72l-81.05-8.88Z"/>
    <path class="cls-37" d="M323.7,832.23s5.55,24.98,9.99,32.75c0,0-45.52-7.22-68.83-1.67,0,0-36.64,2.22-34.42,26.09,0,0,114.35,38.3,149.88,24.43,35.53-13.88,24.43-72.72,24.43-72.72l-81.05-8.88Z"/>
    <g>
      <path class="cls-51" d="M233.49,856.71s-3.11-2.52-7.05-2.07c0,0-11.68,17.38-8.45,31.22,0,0-18.82,34.56-11.58,47.14,0,0,3.92,8.57,9.18,7.22"/>
      <path class="cls-45" d="M258.45,862.89s-8.8-9.01-24.96-6.18c0,0-10.9,18.74-10.11,30.86,0,0-8.63,10.92-11.08,20.65,0,0-8.87,22.78,1.01,30.45,9.89,7.67,21.44-12.94,21.44-12.94l20.62-29.88s-15.34-16.37,3.08-32.96Z"/>
      <path class="cls-29" d="M248.62,905.62s-5.5-1.68-6.64-6.28c0,0-2.94,.12-2.59,2.69,0,0,2.17,6.06,6.79,6.69,0,0,2.52,.23,2.44-3.09Z"/>
      <path class="cls-29" d="M245.35,911.37s-5.5-1.68-6.64-6.28c0,0-2.94,.12-2.59,2.69,0,0,2.17,6.06,6.79,6.69,0,0,2.52,.23,2.44-3.09Z"/>
    </g>
    <path class="cls-14" d="M256.41,864.52s50.7-9.43,77.29,.46c0,0-9.98-21.59-9.99-32.75"/>
    <path class="cls-14" d="M402.1,889.01s5.61-35.24,2.65-47.9"/>
    <path class="cls-45" d="M296.64,687.8s-23.9,89.85,22.26,142.6c0,0,46.16,26.38,93.15,9.07,0,0,16.49,.82,23.9-14.84,0,0,2.47-87.38-8.24-125.29,0,0-4.12,26.38-131.06-11.54Z"/>
    <path class="cls-27" d="M308.13,691.43s-21.39,86.69,24.03,142.28l8.51,.07s-35.25-73.21-21.01-138.96l-11.52-3.39Z"/>
  </g>
  <g>
    <path class="cls-37" d="M845.65,223.5s4.6,40.29,20.29,61.46c0,0,33.46,107.66-55.12,129.75,0,0-76.9-.86-55.21-95.75,0,0,21.22-12.4,18.21-28.01-3.19-16.52-2.06,.74-2.06,.74l73.89-68.2"/>
    <path class="cls-37" d="M839.04,187.97s-27.02-80.65-101.68-65.31c0,0-61.58,18.76-25.8,91.21,0,0,4.72,7.48,4.55,14.31,0,0-4.64,11.75,11.39,32.96,16.02,21.21,34.65,30.89,34.65,30.89,0,0,11.54,7.21,29.77,2.16,0,0,14.88-2.41,28.1-17.55,0,0,33.44-32.26,24.33-55.79,0,0,21.43,6.74,21.16-24.14,0,0-4.49-41.57-26.47-8.72Z"/>
    <path class="cls-38" d="M792.39,246.37s-19.74-.75-25.99,7.74c0,0-6.45-3.63-19.64,6.21,0,0,9.06,20.34,26.76,15.31,25.26-7.18,18.87-29.26,18.87-29.26Z"/>
    <path class="cls-31" d="M789.62,249.7s1.7,14.72-15.69,20.07c-17.39,5.36-23.41-8.25-23.41-8.25,0,0,27.63-11.27,39.1-11.82Z"/>
    <path class="cls-56" d="M764.2,181.25s23.36-13.66,36.83-8.08c0,0-11.65-11.19-38.84,2.22,0,0-4.18,5,2.01,5.86Z"/>
    <path class="cls-56" d="M703.64,195.17c.1-1.47,12.43-5.99,24.62-7.5,0,0,6.24,1.89,1.54,6,0,0-23.03-.22-24.01,7.55,0,0-2.39-2.43-2.14-6.05Z"/>
    <path class="cls-11" d="M746.96,224.97s-5.69,18.21,12.63,14.7"/>
    <path class="cls-29" d="M785.13,250.28s-2.83,5.45-16.14,9.72c-12.26,3.93-17.05,.89-17.05,.89,0,0,17.47-7.72,33.19-10.61Z"/>
    <path class="cls-11" d="M860.38,192.11s-9.34-12.3-13.35,13.15c0,0,6.11-12.53,10.22-4.57"/>
    <path class="cls-56" d="M778.27,295.84s14.59,2.37,34.63-11.89c0,0,9.79-7.51,20.38-22.84,0,0-11.45,24.63-36.67,34.18,0,0-7.86,3.24-17.9,3.16,0,0,.75-.21-.43-2.6Z"/>
    <g>
      <path class="cls-29" d="M794.65,189.42s-.14-.54-.65-.89c-1.72-1.15-5.51-3.16-10.34-1.92-5.41,1.39-7.08,7.24-7.63,9.32-.09,.36,0,.63,0,.63,0,0,.06,.31,.3,.47,1.12,.78,4.72,2.84,9.86,1.59,3.06-.74,6.92-3.48,8.5-8.3,.11-.34,.03-.71-.03-.9Z"/>
      <circle class="cls-56" cx="783.73" cy="193.25" r="5.78"/>
      <circle class="cls-29" cx="785.91" cy="189.57" r="1.58"/>
      <path class="cls-11" d="M775.69,196.02s3.26-14.61,18.5-7.59"/>
    </g>
    <g>
      <path class="cls-29" d="M732.8,210.24s-.05-.53-.48-.92c-1.43-1.32-4.67-3.73-9.34-3.26-5.23,.52-7.62,5.72-8.43,7.57-.14,.32-.1,.58-.1,.58,0,0,.01,.29,.21,.48,.93,.89,3.98,3.31,8.94,2.89,2.95-.25,6.93-2.25,9.1-6.5,.15-.3,.13-.65,.1-.84Z"/>
      <circle class="cls-56" cx="722.1" cy="212.23" r="5.41"/>
      <circle class="cls-29" cx="724.24" cy="208.79" r="1.52"/>
      <path class="cls-11" d="M714.48,213.81s4.64-13.82,18.03-4.3"/>
    </g>
    <g>
      <path class="cls-54" d="M1059.62,807.38s-33.35,28.25,25.82,67.07c42.15,27.66,79.7,77.93,89.38,64.65l4.69-24.29-38.36-70.56-47.9-34.85-33.62-2.03Z"/>
      <path class="cls-53" d="M1059.62,807.38s12.06,1.64,22.04,12.58c9.98,10.94,41.51,27.7,41.51,27.7,0,0,49.63,26.66,51.64,91.44l13.72-11.05s-4.81-62.13-56.68-93.45c0,0-41.84-27.73-52.1-38.46,0,0-1.9-3.64-20.13,11.23Z"/>
      <path class="cls-37" d="M1041.61,903.37s19.34-16.9,43.91-2.55l24.43,9.25,14.74,6.28,20.29,15.2s8.9,14.97,14.58,14.09c5.67-.87,8.79-.15,9.96-11.09,0,0,4.4-7.18-.9-11.42,0,0,2.85-7.54-4.65-15.3,0,0,3.2-5.55-5.01-13.74,0,0,1.33-5.71-3.9-9.11,0,0-17.17-29.7-34.42-33.15,0,0-23.37-10.46-37.52-25.98-15.18-16.65-29.4-10.89-29.4-10.89,0,0-15.44,23.19-32.25,37.88"/>
      <path class="cls-3" d="M1145.58,925.03l11.46,7.03s6.22,5.75,12.48,2.49"/>
      <path class="cls-3" d="M1145.25,916.67s17.92,12.63,21.47,8.57l1.91-2.11"/>
      <path class="cls-3" d="M1146.95,905.82s10.14,7.3,17.02,2.01"/>
      <path class="cls-3" d="M1150.54,894.6s5.1,3.93,8.42-.51"/>
      <path class="cls-54" d="M1104.37,841.02s-29.08,19-18.85,59.8l21.17,8.28s-8.54-22.13,14.78-59.29l-17.1-8.78Z"/>
      <path class="cls-54" d="M1137.94,861.48s-23.55,26.41-13.24,54.87l20.29,15.2s-4.25-26.84,9.98-51.19c0,0-.57-7.2-17.04-18.87Z"/>
    </g>
    <path class="cls-47" d="M843.39,607.91s-134.24,89.49-158.84,139.83c-24.61,50.34,23.49,117.46,23.49,117.46,0,0,3.36,53.69,72.71,54.81s252.24-15.34,252.24-15.34c0,0,13.47-.35,20.33,15.09,2.82,6.34,15.44,.57,9.72-19.45-2.17-7.59-1.72-17.73,6.86-30.32,11.18-16.39-6.34-37.49-16.21-50.66,0,0,66.59-22.3,62.59-114.3-4.12-94.83-44.54-132.64-44.54-132.64,0,0-164.59,128.36-228.35,35.51Z"/>
    <path class="cls-8" d="M1023.15,818.42s-102.25-9.34-125.76,1.11"/>
    <path class="cls-2" d="M806.68,471.23s-6.57-23.33,1.87-57.07"/>
    <path class="cls-28" d="M1053.69,819.33s-10.17,.57-14.66-.71c0,0,16.05,21.18,17.01,34.66,.96,13.48-7.32,21.36-7.32,21.36,0,0-8.73,12.66-.39,21.32s8.02,12.52,2.57,18.29c0,0,.96,8.34,6.42,8.02s9.71-9.33,5.72-21.97c-2.98-9.42,.79-19.29,4.96-26.99,4.17-7.7,10.5-10.73-.09-33.84,0,0-9.52-15.26-14.23-20.15Z"/>
    <polygon class="cls-37" points="720.6 457.87 724.87 520.4 617.08 586.65 615.39 599.42 621.85 629.94 772.69 564.86 771.01 523.75 720.6 457.87"/>
    <path class="cls-47" d="M819.32,637.55s-9.08-13.97-9.78-41.92c0,0-27.99,6.62-39.53-56.38,0,0-30.9-30.32-36.09-60.57l-16.75-18.04-3.87-55.42s-6.44-45.11,21.17-73.77c0,0,15.74-6.45,26.26-15.29,0,0,.91,46.71,8.92,63.51,0,0,36.61,27.56,88.81-18.59,0,0,15.75-30.92,6.71-74.02,0,0,23.09-5.29,57.62,.51,55.91,9.4,85.9,143.65,85.9,143.65,0,0,10.97,51.77,55.91,126.51,44.94,74.74,0,0,0,0,0,0-87.07,156.98-245.28,79.82Z"/>
    <path class="cls-12" d="M857.35,448.1s-8.59-61.51,1.11-87.03"/>
    <path class="cls-12" d="M951.73,427.63s11.39-19.59,13.26-47.02"/>
    <path class="cls-12" d="M734.46,478.64s-6.87-13.26-5.28-49.97"/>
    <g>
      <path class="cls-28" d="M1073.95,575.45s-115.92,93.58-258.3,54.41l-7.9-21.25s101.55,39.26,257.58-53.8l8.62,20.64Z"/>
      <polygon class="cls-28" points="733.51 477.94 730.01 462.19 716.28 451.17 717.16 460.63 733.51 477.94"/>
      <path class="cls-28" d="M853.98,416.56s-64.6,14.71-109.53-1.97l-2.2,16.49s39.07,22.74,113.42,2.9l-1.69-17.42Z"/>
      <polyline class="cls-15" points="1067.13 569.45 1051.51 567.01 1050.2 582.98 1031.78 578.26 1029.45 594.92 1012.23 587.58 1009.26 606.75 991.74 595.19 985.71 613.58 971.35 603.26 962.99 621.65 949.36 609.28 942.58 626.87 929.15 615.4 920.22 631.06 908.36 618.79 895.24 633.9 883.2 620.72 872.68 634.33 862.85 620.69 849.63 632.49 841.76 619.86 829.91 627.1 823.27 617.54 814.85 624.53"/>
      <polyline class="cls-15" points="1064.6 557.74 1060.71 577.97 1041.91 571.67 1040.21 590.43 1022.21 581.92 1020.4 600.19 1002.29 591.19 997.11 611.19 981.58 599.61 974.89 618.39 959.96 606.68 952.86 623.5 938.13 612.78 932.23 629.34 919.59 616.65 908.49 632.26 896.35 618.95 885.05 633.58 874.2 620.51 862 633.79 852.24 619.99 839.23 632.41 831.88 618.11 822.64 627.7 814.89 614.5"/>
      <polyline class="cls-15" points="854.29 422.73 848.66 432.84 839.65 424.32 833.57 434.18 826.03 426.26 818.04 435.62 809.55 427.44 801.21 437.33 792.97 428.19 785.05 435.73 777.68 426.42 767.32 433.1 760.82 423.61 750.98 430.64 746.64 420.69"/>
      <polyline class="cls-15" points="854.57 427.22 847.79 422.17 840.77 434.04 831.67 425.09 826.54 435.2 817.78 425.73 810.67 437.16 801.73 426.82 794.26 436.52 785.32 426.18 778.19 435.35 770.02 424.4 759.59 432.91 753.75 420.11 745.55 431.74"/>
      <polyline class="cls-15" points="717.16 460.63 721.07 455.68 723.34 466.08 730.54 463.62 728.59 471.48 725.56 459.72 720.12 462.71 717.35 452.86"/>
      <path class="cls-28" d="M857.78,450.74s57.35,2.57,91.61-15.08c0,0,5.05-7.97,5.14-15.54,0,0-67.9,24.87-99.62,16.51l2.87,14.11Z"/>
      <polyline class="cls-15" points="947.22 424.44 938.32 438.37 933.03 430.78 925.36 442.92 920.33 433.13 910.64 446.02 906.29 435.99 896.39 449.1 892.51 436.65 882.61 449.76 876 438.68 866.75 449.91 858.2 442.42"/>
      <polyline class="cls-15" points="944.85 436.54 938.9 426.8 932.13 441.29 926.35 430.88 919.92 444.05 913.27 434.13 905 447.38 899.15 436.11 890.21 449.15 884.82 438.94 875.02 449.9 864.87 438.79"/>
    </g>
  </g>
  <polygon class="cls-24" points="624.91 908.1 422.53 896.72 422.53 720.9 624.91 733.55 624.91 908.1"/>
  <polygon class="cls-22" points="729.9 896.72 624.91 908.1 624.91 733.55 729.9 719.63 729.9 896.72"/>
  <polygon class="cls-46" points="422.53 720.9 615.11 704.21 729.9 719.63 624.91 733.55 422.53 720.9"/>
  <path class="cls-33" d="M488.3,706.98s15.18-11.38,39.21-11.38c0,0,36.68,2.53,49.33,17.71l-13.91,16.44-57.83-3.5-16.8-19.27Z"/>
  <g>
    <path class="cls-44" d="M529.61,870.06s26.92-80.12,4.08-145.14c0,0,12.38-12.34,19.52-14.8,0,0,30.71,79.89-6.65,168.07,0,0-9.91-2.54-16.96-8.13Z"/>
    <rect class="cls-28" x="537.97" y="854.93" width="6.4" height="19.19" transform="translate(-322.84 322.53) rotate(-25.85)"/>
    <rect class="cls-28" x="541.11" y="845.9" width="6.4" height="19.19" transform="translate(11.81 1718.38) rotate(-115.85)"/>
    <rect class="cls-28" x="542.73" y="834.12" width="6.4" height="19.19" transform="translate(-313.29 322.52) rotate(-25.85)"/>
    <rect class="cls-28" x="545.86" y="825.09" width="6.4" height="19.19" transform="translate(37.37 1692.78) rotate(-115.85)"/>
    <rect class="cls-28" x="546.54" y="811.75" width="6.4" height="19.19" transform="translate(-303.15 321.95) rotate(-25.85)"/>
    <rect class="cls-28" x="549.68" y="802.72" width="6.4" height="19.19" transform="translate(62.98 1664.09) rotate(-115.85)"/>
    <rect class="cls-28" x="548.97" y="789.54" width="6.4" height="19.19" transform="translate(-357.3 457.99) rotate(-34.8)"/>
    <rect class="cls-28" x="550.66" y="780.14" width="6.4" height="19.19" transform="translate(221.4 1695.21) rotate(-124.8)"/>
    <rect class="cls-28" x="549.39" y="766.99" width="6.4" height="19.19" transform="translate(-344.35 454.2) rotate(-34.8)"/>
    <rect class="cls-28" x="551.09" y="757.58" width="6.4" height="19.19" transform="translate(240.59 1660.14) rotate(-124.8)"/>
    <rect class="cls-28" x="547.78" y="745.31" width="6.4" height="19.19" transform="translate(-377.05 644.32) rotate(-47.08)"/>
    <rect class="cls-28" x="547.43" y="735.76" width="6.4" height="19.19" transform="translate(446.3 1666.14) rotate(-137.08)"/>
    <rect class="cls-28" x="543.73" y="723.69" width="6.4" height="19.19" transform="translate(-362.51 634.47) rotate(-47.08)"/>
    <rect class="cls-28" x="543.38" y="714.14" width="6.4" height="19.19" transform="translate(454.01 1625.94) rotate(-137.08)"/>
  </g>
  <path class="cls-42" d="M648.96,897.34s60.64-7.52,80.91,83.61c0,0,16.62,14.71,37.26-7.16,20.63-21.87,44.93-3.12,44.93-3.12,0,0,20.16,4.39,27.69-6.7,0,0-11.95-87.46-90.37-125.74-60.92-29.73-100.42,59.11-100.42,59.11Z"/>
  <path class="cls-5" d="M729.26,974.35s16.07,9.86,32.59-7.77c16.52-17.63,42.62-12.1,46.89-8.71,4.27,3.39,20.34,6.93,28.41,.26"/>
  <g>
    <path class="cls-10" d="M513.91,753.83s.29-14.64,4.05-23.99"/>
    <path class="cls-40" d="M496.72,662.11l-27.89,64.37s6.62,56.49,67.66,29.32l27.89-64.37-67.66-29.32Z"/>
    <polygon class="cls-42" points="494.25 759.34 537.57 748.07 472.84 720.02 494.25 759.34"/>
    <polygon class="cls-49" points="495.79 755.99 530.75 747.61 477.99 724.75 495.79 755.99"/>
    <polygon class="cls-40" points="496.89 752.61 523.81 746.76 482.75 728.97 496.89 752.61"/>
    <polygon class="cls-42" points="505.06 734.39 548.38 723.12 483.66 695.07 505.06 734.39"/>
    <polygon class="cls-49" points="506.6 731.04 541.56 722.66 488.8 699.8 506.6 731.04"/>
    <polygon class="cls-40" points="507.7 727.66 534.62 721.81 493.56 704.02 507.7 727.66"/>
    <polygon class="cls-42" points="516.4 709.67 559.73 698.4 495 670.35 516.4 709.67"/>
    <polygon class="cls-49" points="517.95 706.32 552.91 697.94 500.15 675.08 517.95 706.32"/>
    <polygon class="cls-40" points="519.05 702.94 545.97 697.09 504.91 679.3 519.05 702.94"/>
    <path class="cls-40" d="M494.74,666.67s9.4-2.86,14.44-2.57,44.5-26.11,50.44-54.59c5.93-28.48,49.55-26.11,49.55-26.11,0,0,16.02-.89,9.2,30.26s-55.95,82.32-55.95,82.32l-6.35-3.11s44.8-46.28,50.14-62.9c5.34-16.61,12.46-37.08,3.26-40.35s-27-1.19-36.79,9.2c-9.79,10.38-15.72,31.45-15.72,31.45,0,0-17.21,26.7-37.08,33.82-19.88,7.12-19.28,5.64-19.28,5.64l-5.84-3.07Z"/>
  </g>
  <path class="cls-37" d="M952.15,427.39s-20.84,87.22-31.58,116.3c-10.74,29.09-17.68,41.99-54.05,60.27-36.37,18.28-170.08,33.55-170.08,33.55,0,0-32.07,13.54-56.66,8.43,0,0,2.41,12.36-4.51,13.85,0,0-3.62,.52-11.22-9.45,0,0-5.53,6.83-12.56-8.52,0,0-7.18,7.32-12.41-4.97l-1.81-7.37s-7.25,7.7-10.57,4.36c-3.31-3.33,2.69-12.82,2.69-12.82,0,0,4.13-16.47,12.95-17.63,8.82-1.16,29.57-9.95,29.57-9.95l61.59,6.76s66.15-36.95,138.67-75.3c0,0,19.99-51.61,25.58-77.06,0,0,33.25,11.08,94.38-20.47Z"/>
  <path class="cls-13" d="M597.27,629.5s-1.49-17.49,5.61-19.73,17.19-5.6,17.19-5.6"/>
  <path class="cls-13" d="M611.49,641.83s-5.86-20.85,10.18-25.66"/>
  <path class="cls-13" d="M624,650.82s-5.86-20.85,10.18-25.66"/>
  <path class="cls-43" d="M733.78,331.93c-10.53-27.03-19.64-67.37-19.64-67.37-36.95-84.9-18.93-121.78-18.93-121.78,46.04-70.3,109.76-45.07,109.76-45.07,15.66,.23,55.4,10.21,69.41,54.11,14.01,43.9,32.2,68.77,40.81,99.44,0,0,22.95,41.17,.16,179.98-2.72,16.54,13.64,53.29,13.64,53.29,0,0-15.77,22.49-79.45-131.57-19.12-46.26-6.73-132.01-6.73-132.01,16.91,1.82,18.74-10.74,18.74-10.74,0,0,4.89-15.09-2.81-28.72-7.82-13.84-19.3,10.56-19.3,10.56-26.36-53.66-55.67-64.4-55.67-64.4-51.46,42.09-78.19,43.46-78.19,43.46,0,0-2.27,13.64,.04,23.88,2.31,10.24,6.86,18.42,6.86,18.42,4.85,5.95,4.39,14.07,4.39,14.07-2.32,16.21,9.92,30.71,9.92,30.71,28.81,37.96,50.75,36.05,50.75,36.05,3.88,14.03-15.54,23.56-15.54,23.56"/>
  <g>
    <circle class="cls-16" cx="857.59" cy="225.22" r="11.89"/>
    <line class="cls-16" x1="859.99" y1="236.87" x2="867.74" y2="274.54"/>
    <line class="cls-16" x1="868" y1="231.06" x2="872.14" y2="251.19"/>
    <line class="cls-16" x1="865.49" y1="234.14" x2="870.88" y2="260.3"/>
    <line class="cls-16" x1="862.84" y1="235.83" x2="869.38" y2="267.6"/>
    <line class="cls-16" x1="853.83" y1="236.54" x2="859.21" y2="262.7"/>
    <line class="cls-16" x1="856.93" y1="237.05" x2="863.47" y2="268.82"/>
    <line class="cls-16" x1="850.22" y1="234.72" x2="854.36" y2="254.85"/>
  </g>
  <g class="cls-59">
    <g>
      <circle class="cls-16" cx="737.9" cy="259.63" r="11.89"/>
      <line class="cls-16" x1="740.62" y1="271.21" x2="749.42" y2="308.65"/>
      <line class="cls-16" x1="749.01" y1="280.98" x2="752.15" y2="294.33"/>
      <line class="cls-16" x1="743.44" y1="270.09" x2="750.86" y2="301.67"/>
      <line class="cls-16" x1="734.45" y1="271.06" x2="740.56" y2="297.05"/>
      <line class="cls-16" x1="737.56" y1="271.47" x2="744.99" y2="303.05"/>
      <line class="cls-16" x1="730.79" y1="269.33" x2="735.49" y2="289.34"/>
    </g>
  </g>
  <path class="cls-13" d="M773.42,556.99s-58.01,28.68-79.91,43.23l-56.02-5.81-21.69,4.77"/>
  <g>
    <path class="cls-50" d="M536.17,938.23s62.66,29.86,130.21,.49c0,0-6.95-50.43-118.7-27.76,0,0-22.48,5.94-11.51,27.27Z"/>
    <path class="cls-52" d="M550.37,902s8.32-39.16,47.48-42.1c0,0,36.71-8.32,61.68,21.05,0,0,16.64,26.92,6.85,57.76,0,0-16.64-30.84-47.48-38.18s-45.04-6.85-68.53,1.47Z"/>
    <path class="cls-57" d="M550.37,902s-8.32,7.34-20.56,7.34-17.13,12.24-13.22,16.64,10.28,12.24,19.58,12.24c0,0,0-18.6,6.36-23.01,0,0,13.22-1.96,33.78,4.9,21.18,7.06,61.95,21.43,79.57,3.32,0,0-36.6-46.27-105.52-21.43Z"/>
    <path class="cls-19" d="M542.54,915.22s-13.35-4.38-16.96-.77"/>
  </g>
</svg>