<?xml version="1.0" encoding="UTF-8"?>
<svg id="Layer_1" data-name="Layer 1" xmlns="http://www.w3.org/2000/svg" xmlns:xlink="http://www.w3.org/1999/xlink" viewBox="0 0 1334.05 1000.22">
  <defs>
    <style>
      .cls-1, .cls-2, .cls-3, .cls-4, .cls-5, .cls-6, .cls-7 {
        fill: none;
      }

      .cls-8 {
        clip-path: url(#clippath);
      }

      .cls-9 {
        fill: #00a79d;
      }

      .cls-10 {
        fill: #f05380;
      }

      .cls-11 {
        fill: #fff200;
      }

      .cls-12 {
        fill: #fff;
      }

      .cls-13 {
        fill: #efcccd;
      }

      .cls-14 {
        fill: #803435;
      }

      .cls-15 {
        fill: #00a651;
      }

      .cls-16 {
        fill: #8c3333;
      }

      .cls-17 {
        fill: #87664d;
      }

      .cls-18 {
        fill: #b6302e;
      }

      .cls-19 {
        fill: #8b5e3c;
      }

      .cls-20 {
        fill: #8dc63f;
      }

      .cls-21 {
        fill: #ae8578;
      }

      .cls-22 {
        fill: #a97c50;
      }

      .cls-23, .cls-24 {
        fill: #be9e7d;
      }

      .cls-25 {
        fill: #db7777;
      }

      .cls-26 {
        fill: #dc3b28;
      }

      .cls-27 {
        fill: #1c75bc;
      }

      .cls-28, .cls-29 {
        fill: #9c2024;
      }

      .cls-30 {
        fill: #3c2415;
      }

      .cls-31 {
        fill: #59bede;
      }

      .cls-32 {
        fill: #58595b;
      }

      .cls-33 {
        fill: #26130f;
      }

      .cls-29, .cls-24, .cls-2, .cls-3, .cls-4, .cls-5, .cls-6, .cls-7 {
        stroke-miterlimit: 10;
      }

      .cls-29, .cls-2, .cls-7 {
        stroke: #231f20;
      }

      .cls-24, .cls-5 {
        stroke: #603913;
      }

      .cls-3 {
        stroke: #ec008c;
      }

      .cls-4 {
        stroke: #59bede;
      }

      .cls-6 {
        stroke: #be1e2d;
      }

      .cls-7 {
        stroke-width: 1.2px;
      }

      .cls-34 {
        opacity: .5;
      }

      .cls-35 {
        fill: #dea962;
      }

      .cls-35, .cls-36 {
        opacity: .8;
      }

      .cls-36 {
        fill: #edb36e;
      }

      .cls-37 {
        fill: #27aae1;
        opacity: .4;
      }
    </style>
    <clipPath id="clippath">
      <rect class="cls-1" x="90.97" y="263.04" width="1117.82" height="192.99"/>
    </clipPath>
  </defs>
  <g>
    <g class="cls-34">
      <g class="cls-8">
        <path class="cls-15" d="M207.98,572.25s90.54,60.19,128.91-35.62c38.37-95.81,82.42-74.09,82.42-74.09,0,0,39.35-40.68-26.63-80.97-65.98-40.28-130.75,35.36-130.75,35.36,0,0-33.21,64.71-72.91,10.82-39.7-53.9-118.22,5.31-68.58,41.34s74.22,62.68,87.54,103.17Z"/>
        <path class="cls-20" d="M943,547s60.57,43.24,61.88-31.08c1.32-74.31-84.27-66.21-90.85-91.88-6.58-25.67-38.18-67.56-122.45-67.56s-14.48,116.2-77.68,131.06-115.87,117.55-31.6,108.09c84.27-9.46,171.17,33.78,175.12,44.59s-3.95,9.46,3.95,10.81c7.9,1.35,151.42,21.62,81.63-104.04Z"/>
        <path class="cls-15" d="M903.64,488.7s-34.67-160.79,68.47-168.22c103.14-7.43,71.54,92.56,116.3,81.75,44.77-10.81,75.05-137.82,119.82-116.2l2.59,198.56-307.18,4.11Z"/>
        <path class="cls-9" d="M416.72,517.97s-5.27-156.74,134.3-117.55c139.57,39.18,176.44,58.1,202.77,32.43,26.33-25.67,66.99,37.83,41.39,85.12H416.72Z"/>
      </g>
    </g>
    <rect class="cls-35" x="-40.07" y="204.1" width="162.82" height="81.94" transform="translate(286.41 203.73) rotate(90)"/>
    <rect class="cls-35" x="585.66" y="-95.48" width="162.82" height="1333.41" transform="translate(1238.3 -95.85) rotate(90)"/>
    <rect class="cls-36" x="585.66" y="67.12" width="162.82" height="1333.41" transform="translate(1400.9 66.75) rotate(90)"/>
    <rect class="cls-36" x="-40.07" y="40.44" width="162.82" height="81.94" transform="translate(122.75 40.07) rotate(90)"/>
    <rect class="cls-36" x="-40.07" y="367.24" width="162.82" height="81.94" transform="translate(449.55 366.88) rotate(90)"/>
    <rect class="cls-35" x="1206.62" y="199.26" width="162.82" height="91.62" transform="translate(1533.11 -1042.96) rotate(90)"/>
    <rect class="cls-36" x="1206.62" y="35.6" width="162.82" height="91.62" transform="translate(1369.45 -1206.62) rotate(90)"/>
    <rect class="cls-36" x="1206.62" y="362.4" width="162.82" height="91.62" transform="translate(1696.25 -879.82) rotate(90)"/>
    <rect class="cls-37" x="111.95" width="1096.86" height="455.98"/>
    <rect class="cls-19" x="78.27" width="33.68" height="484.45"/>
    <rect class="cls-19" x="1209.04" width="33.68" height="484.45"/>
    <rect class="cls-19" x="643.56" y="-109.58" width="33.68" height="1164.74" transform="translate(1133.18 -187.61) rotate(90)"/>
  </g>
  <polygon class="cls-12" points="923.63 824 1152.65 835.51 1181.44 807.37 954.98 793.29 923.63 824"/>
  <rect class="cls-17" y="773.6" width="1334.05" height="226.62"/>
  <rect class="cls-22" y="925.16" width="1334.05" height="72.86"/>
  <g>
    <path class="cls-23" d="M609.2,574.06s8.52,6.56,7.16,15.02c0,0,108.31-29.62,161.49-36.54,0,0,24.62-34.63,59.15-29.23l29.41-19.08s16.12-6.16,7.97,13.66c0,0-18.28,17.26-26.8,18.56l4.83,11.57s13.98-12.63,20.26-8.46c6.27,4.18,2.06,14.43,2.06,14.43,0,0,12.53-18.82,26.64-16.22,14.11,2.6,11.49-10.46,20.5-5.16,0,0,12.06,1.76-4.25,14.24l-24.82,27.36-62.22,19.19-29.59-5.77-216.08,107.8s-41.16,12.66-68.28-22.46c-27.12-35.12-11.62-49.52-11.62-49.52l104.18-49.38Z"/>
    <path class="cls-24" d="M839.91,531.91s4.73,1.99,7.68,4.53"/>
    <path class="cls-24" d="M824.37,575.39s9.97-8.27,18.94-8.46c0,0,2.73-13.28,9.12-18.92,6.38-5.64,11.16-11.82,20.26-8.46,9.1,3.36,2.06,14.43,2.06,14.43l-17.79,23.96"/>
    <path class="cls-24" d="M874.74,553.99s12.7-19.7,26.64-16.22c13.94,3.48-3.05,16.6-3.05,16.6l-9.03,14.46"/>
    <path class="cls-24" d="M777.85,552.54s2.09,9.62,11.59,16.61"/>
    <path class="cls-24" d="M617.95,588.55s-24.01,10.08-35.23,31.85"/>
    <path class="cls-23" d="M346.26,255.26s7.4,32.68-11.42,62.45c0,0-9.04,135.64,76.82,151.63,0,0,104.66-89.2,44.94-128.67l-110.33-85.4Z"/>
    <path class="cls-26" d="M316.18,327.94s-83.08,24.96-123.97,61.84c0,0-27.75,17.42-36.93,58.58,0,0-10.29,39.09-26.33,123.25,0,0,57.19,19.7,116.86,23.84l-63.68,180.36s4.13-5.75,184.34,11.7c0,0,90.24-9.93,158.72-13.04,0,0,12.15-74.22,16.13-134.52,0,0,58.77-63.46,73.5-68.37l-28.61-93.72s-5.16-38.27-50.32-76.76c0,0-34-31.38-60.09-45.13l-55.95,35.69-17.19,72.16-9.73-63.55s-1.42-18.82-76.76-72.33Z"/>
    <path class="cls-6" d="M260.27,381.75s35.44,15.18,17.08,78.32c-18.36,63.14-31.55,135.38-31.55,135.38"/>
    <line class="cls-6" x1="554.7" y1="497.99" x2="542" y2="629.75"/>
    <polygon class="cls-16" points="323.04 314.57 337.66 313.49 333.57 330.24 323.04 314.57"/>
    <path class="cls-18" d="M309.49,329.71s70.39,51.29,82.91,78.12l.08-25.54s-52.04-39.99-69.44-67.71l-13.55,15.14Z"/>
    <path class="cls-18" d="M456.59,340.67s27.87,1.4,25.32,19.31l-60.43,38.54-.58-15.15s27.91-11.17,47.3-31.39c0,0-11.66-2.57-11.6-11.31Z"/>
    <path class="cls-6" d="M409.54,478.59s5.9,25.52-11.68,249.5"/>
    <ellipse class="cls-13" cx="392.55" cy="487.19" rx="4.82" ry="4.45" transform="translate(-125.51 838.01) rotate(-85.25)"/>
    <ellipse class="cls-13" cx="397.08" cy="568.7" rx="4.82" ry="4.45" transform="translate(-202.57 917.27) rotate(-85.25)"/>
    <ellipse class="cls-13" cx="395.37" cy="656.39" rx="4.82" ry="4.45" transform="translate(-291.52 996) rotate(-85.25)"/>
    <g>
      <rect class="cls-13" x="303.52" y="650.68" width="23.66" height="23.66" transform="translate(-363.82 384.87) rotate(-42.31)"/>
      <rect class="cls-13" x="336.83" y="652.24" width="23.66" height="23.66" transform="translate(-356.2 407.7) rotate(-42.31)"/>
      <rect class="cls-13" x="305.08" y="617.52" width="23.66" height="23.66" transform="translate(-341.1 377.28) rotate(-42.31)"/>
      <rect class="cls-32" x="320.87" y="635.2" width="23.66" height="23.66" transform="translate(-348.89 392.52) rotate(-42.31)"/>
      <rect class="cls-13" x="338.39" y="619.08" width="23.66" height="23.66" transform="translate(-333.47 400.11) rotate(-42.31)"/>
      <rect class="cls-13" x="306.57" y="583.65" width="23.66" height="23.66" transform="translate(-317.91 369.46) rotate(-42.31)"/>
      <rect class="cls-32" x="322.36" y="601.33" width="23.66" height="23.66" transform="translate(-325.7 384.69) rotate(-42.31)"/>
      <rect class="cls-13" x="339.87" y="585.21" width="23.66" height="23.66" transform="translate(-310.28 392.28) rotate(-42.31)"/>
      <rect class="cls-13" x="308.24" y="550.18" width="23.66" height="23.66" transform="translate(-294.94 361.86) rotate(-42.31)"/>
      <rect class="cls-32" x="324.04" y="567.87" width="23.66" height="23.66" transform="translate(-302.73 377.1) rotate(-42.31)"/>
      <rect class="cls-13" x="341.55" y="551.74" width="23.66" height="23.66" transform="translate(-287.32 384.69) rotate(-42.31)"/>
      <rect class="cls-13" x="309.81" y="516.91" width="23.66" height="23.66" transform="translate(-272.14 354.25) rotate(-42.31)"/>
      <rect class="cls-32" x="325.6" y="534.59" width="23.66" height="23.66" transform="translate(-279.93 369.49) rotate(-42.31)"/>
      <rect class="cls-13" x="343.11" y="518.47" width="23.66" height="23.66" transform="translate(-264.51 377.08) rotate(-42.31)"/>
      <rect class="cls-13" x="311.37" y="483.63" width="23.66" height="23.66" transform="translate(-249.33 346.63) rotate(-42.31)"/>
      <rect class="cls-32" x="327.16" y="501.31" width="23.66" height="23.66" transform="translate(-257.12 361.87) rotate(-42.31)"/>
      <rect class="cls-13" x="344.68" y="485.19" width="23.66" height="23.66" transform="translate(-241.7 369.46) rotate(-42.31)"/>
      <rect class="cls-13" x="312.93" y="450.35" width="23.66" height="23.66" transform="translate(-226.52 339.01) rotate(-42.31)"/>
      <rect class="cls-32" x="328.72" y="468.03" width="23.66" height="23.66" transform="translate(-234.31 354.25) rotate(-42.31)"/>
      <rect class="cls-13" x="346.24" y="451.91" width="23.66" height="23.66" transform="translate(-218.9 361.84) rotate(-42.31)"/>
      <rect class="cls-13" x="314.49" y="417.19" width="23.66" height="23.66" transform="translate(-203.79 331.42) rotate(-42.31)"/>
      <rect class="cls-32" x="330.28" y="434.87" width="23.66" height="23.66" transform="translate(-211.58 346.66) rotate(-42.31)"/>
      <rect class="cls-13" x="347.8" y="418.75" width="23.66" height="23.66" transform="translate(-196.17 354.25) rotate(-42.31)"/>
      <rect class="cls-13" x="316.05" y="383.91" width="23.66" height="23.66" transform="translate(-180.98 323.81) rotate(-42.31)"/>
      <rect class="cls-32" x="331.84" y="401.6" width="23.66" height="23.66" transform="translate(-188.77 339.05) rotate(-42.31)"/>
      <rect class="cls-13" x="349.36" y="385.47" width="23.66" height="23.66" transform="translate(-173.36 346.64) rotate(-42.31)"/>
      <rect class="cls-13" x="317.68" y="350.75" width="23.66" height="23.66" transform="translate(-158.24 316.26) rotate(-42.31)"/>
      <rect class="cls-32" x="333.47" y="368.43" width="23.66" height="23.66" transform="translate(-166.03 331.5) rotate(-42.31)"/>
      <polyline class="cls-32" points="349.33 360.4 346.21 363.35 330.29 345.85 331.19 345.02"/>
      <polygon class="cls-13" points="362.03 380.85 346.1 363.36 349.33 360.4 367.06 376.37 362.03 380.85"/>
    </g>
    <g>
      <polyline class="cls-13" points="247.7 579.53 228.14 590.22 216.97 569.8 237.4 558.63 248.14 578.21"/>
      <polygon class="cls-32" points="251.89 562.8 248.14 578.21 237.55 558.8 254.77 549.34 251.89 562.8"/>
      <polyline class="cls-13" points="254.72 549.25 237.37 558.73 226.2 538.31 246.63 527.14 255.75 543.83"/>
      <rect class="cls-13" x="189.52" y="553.41" width="23.28" height="23.28" transform="translate(-246.43 165.79) rotate(-28.67)"/>
      <rect class="cls-32" x="210.09" y="542.42" width="23.28" height="23.28" transform="translate(-238.63 174.31) rotate(-28.67)"/>
      <rect class="cls-13" x="198.74" y="521.93" width="23.28" height="23.28" transform="translate(-230.2 166.35) rotate(-28.67)"/>
      <rect class="cls-13" x="158.06" y="544.2" width="23.28" height="23.28" transform="translate(-245.87 149.57) rotate(-28.67)"/>
      <rect class="cls-32" x="178.64" y="533.2" width="23.28" height="23.28" transform="translate(-238.07 158.09) rotate(-28.67)"/>
      <rect class="cls-13" x="167.29" y="512.71" width="23.28" height="23.28" transform="translate(-229.63 150.13) rotate(-28.67)"/>
      <polygon class="cls-13" points="154.04 551.25 131.14 562.36 136.76 534.19 142.87 530.82 154.04 551.25"/>
      <rect class="cls-32" x="147.18" y="523.98" width="23.28" height="23.28" transform="translate(-237.5 141.87) rotate(-28.67)"/>
      <polygon class="cls-13" points="163.26 519.76 142.84 530.93 138.05 522.43 140.48 505.69 152.09 499.34 163.26 519.76"/>
      <polyline class="cls-32" points="138.05 522.43 143.15 531.03 136.76 534.19"/>
    </g>
    <path class="cls-23" d="M570.07,817.95l-79.67-7.81c-141.4,6.04-273.36-30.15-309.7-48-36.34-17.85-47.5-94.35-47.5-94.35l1.24-94.49,111.36,22.15,2.36,73.96,248.08,98.41,74.05-11.08,44.46,15.89,14.32,31.51s-1.52,7.6-5.63,6.96c-4.11-.64-9.35-9.1-9.35-9.1-1.38,12.97-7.65,20.47-7.65,20.47,0,0-6.32,4.11-8.81-1.33-1.02-2.22,.71-4.99,.71-4.99l-3.91,4.13c-9.87,7.45-11.54-.34-11.54-.34,0,0-10.33,9.66-12.84-1.99Z"/>
    <path class="cls-24" d="M249.13,669.13s-21.25-9.58-46.5,19.06"/>
    <path class="cls-24" d="M562.49,806.23c25.82,2.78,21.83,13.12,21.83,13.12"/>
    <path class="cls-24" d="M572.36,781.94l26.45,14.13s6.88,6.89-.45,20.07"/>
    <path class="cls-24" d="M582.49,769.6s22.71,6.28,31.44,18.31c0,0,2,4.44,.17,14.08"/>
    <path class="cls-23" d="M522.71,127.55s15.86,27,6.32,88.12c0,0-3.75,14.56-2.81,22.66,.94,8.1-.11,21.37-3.8,29.65-3.69,8.28-30.44,63.59-30.44,63.59,0,0-8.56,15.97-37.63,13.93-29.06-2.04-52.84-14.65-62.3-27.74-9.46-13.09-34.01-35.03-35.07-54.05,0,0-17.55,2.53-22.9-18.78,0,0-16.16-33.75,3.27-40.63,19.43-6.88,28.19,19.95,28.19,19.95,0,0-16.12-78.19,29.13-104.45,0,0,56.4-39.77,128.04,7.75Z"/>
    <path class="cls-21" d="M438.22,277.43s15.04-2.4,31.51,4.92c0,0,15.25-.85,28.18,4.01,0,0-4.89,23.73-28.11,25.83-23.22,2.1-34-20.84-31.59-34.76Z"/>
    <path class="cls-14" d="M441.58,279.64s-3.23,21.16,24.32,25.08c25.02,3.56,27.9-15.27,27.9-15.27,0,0-28.36-2.74-52.22-9.81Z"/>
    <path class="cls-30" d="M458.6,194.36s-23.09-10.6-45.53-4.82c0,0,12.75-14.81,47.2-2.26,0,0,5.22,5.4-1.67,7.08Z"/>
    <path class="cls-30" d="M532.28,202.17c-16.95-5.03-26.1-1.03-26.1-1.03-6.15-3.54,.37-7.26,.37-7.26,11.4-.76,20.04,.44,26.52,2.46,0,0,.14,6.11-.79,5.83Z"/>
    <path class="cls-12" d="M444.96,280.43s5.43,10.78,26.89,12.79c0,0,13.05,2.53,19.56-3.67,0,0-27.56-3.32-46.45-9.12Z"/>
    <path class="cls-2" d="M335.13,218s8.5-9.6,14.8,2.32c6.3,11.92,6.21,15.59,6.21,15.59,0,0-8.79-18.76-15.2-5.62"/>
    <path class="cls-33" d="M456.09,344.92s-25.67,.05-45.46-11.57c0,0-12.3-5.05-27.32-25.71,0,0,13.7,29.7,44.5,36.4,0,0,13.66,4.47,28.29,.87,0,0-.96,2.97,0,0Z"/>
    <g>
      <path class="cls-12" d="M427.22,207.18s.06-.67,.62-1.18c1.84-1.67,5.99-4.73,11.95-4.11,6.67,.7,9.69,7.35,10.71,9.72,.18,.41,.12,.75,.12,.75,0,0-.02,.37-.27,.61-1.19,1.12-5.11,4.2-11.44,3.64-3.77-.34-8.84-2.91-11.57-8.36-.19-.38-.16-.83-.12-1.08Z"/>
      <circle class="cls-33" cx="440.86" cy="209.8" r="6.94"/>
      <circle class="cls-12" cx="437.49" cy="205.76" r="1.9"/>
      <path class="cls-7" d="M450.91,211.67s-6.45-16.78-23.32-5.75"/>
    </g>
    <g>
      <path class="cls-12" d="M503.58,220.85s-.04-.63,.41-1.18c1.47-1.82,4.89-5.25,10.52-5.53,6.31-.31,10.07,5.45,11.35,7.51,.22,.35,.22,.68,.22,.68,0,0,.04,.35-.16,.61-.95,1.22-4.15,4.64-10.11,5.02-3.55,.23-8.63-1.44-11.96-6.12-.23-.33-.27-.75-.27-.98Z"/>
      <circle class="cls-33" cx="516.65" cy="221.32" r="6.5"/>
      <circle class="cls-12" cx="512.24" cy="218.49" r="1.82"/>
      <path class="cls-7" d="M525.98,221.85s-7.96-15.6-22.18-1.92"/>
    </g>
    <path class="cls-2" d="M483.83,223.05l12.8,25.59s6.42,19.25-6.17,21.4c-11.2,1.91-11.35-.51-11.35-.51"/>
    <path class="cls-30" d="M363.7,225.78l9.55-3.43c2.38-23.84,8.88-74.82,27.53-94.78,0,0,74.04-28.34,117.06,4.83,0,0,14.42,13.05,12.48,75.49,0,0,12.92-42.41,2.7-80.67,0,0,12.78-7.36,14.77-11.11,0,0-16.11,1.36-23.28-7.48-4.2-5.18-63.34-63.01-140.1-17.28,0,0-71.57,7.48-53.07,116.16,0,0,23.26-4.09,32.35,18.27Z"/>
    <path class="cls-30" d="M425.34,292.9s-1.18-18.09,13.99-21.98c18.62-4.78,38.55-5.54,52.49,2.31,13.94,7.85,21.35,16.18,9.99,16.26-11.35,.08-33.63-14.63-58.08-3.29,0,0-9.7,9.48-18.39,6.7Z"/>
  </g>
  <g>
    <line class="cls-24" x1="853.74" y1="749.86" x2="875.73" y2="747.77"/>
    <path class="cls-23" d="M1046.68,396.43s-2.63,38.64,9.54,65.55c0,0,9.26,132.43-93,135.63,0,0-74.36-27.12-28.11-125.91,0,0,12.12-2.08,16.91-18.4,5.31-18.09-2.43,.32-2.43,.32l97.1-57.18"/>
    <path class="cls-23" d="M1056.87,360.05s2.74-95.28-81.71-108c0,0-72.03-4.06-62.39,85.97,0,0,2.07,9.69-.74,16.81,0,0-9.42,10.56-.76,39.07,8.66,28.5,24.51,45.88,24.51,45.88,0,0,9.36,12.05,30.48,13.78,0,0,16.59,3.22,36.35-7.6,0,0,47.64-21.01,47.15-49.29,0,0,19.93,15.37,31.58-17.22,0,0,11.34-45.46-24.48-19.4Z"/>
    <path class="cls-25" d="M985.23,403.45s-20.48-8.42-30.33-1.91c0,0-5.39-6.31-23.06-1.06,0,0-3.49,24.83,22.24,26.45,29.37,1.84,31.15-23.48,31.15-23.48Z"/>
    <path class="cls-14" d="M981.03,405.88s-3.9,16.14-24.26,15.05c-20.36-1.09-21.43-17.73-21.43-17.73,0,0,33.41-1.18,45.7,2.68Z"/>
    <path class="cls-33" d="M980.94,325.52s29.38-7.52,42.18,2.65c0,0-9.1-15.64-42.54-9.58,0,0-6.05,4.1,.36,6.93Z"/>
    <path class="cls-33" d="M912,314.16c.78-1.45,15.46-.33,28.59,3.8,0,0,5.48,4.82-1.22,6.83,0,0-23.38-10.93-27.99-3.47,0,0-1.3-3.59,.63-7.17Z"/>
    <circle class="cls-33" cx="924.21" cy="340.65" r="5.77"/>
    <path class="cls-12" d="M976.08,404.76s-5.09,4.64-20.74,3.98c-14.42-.6-18.28-5.65-18.28-5.65,0,0,21.36-1.37,39.01,1.67Z"/>
    <path class="cls-2" d="M1080.41,369.66s-6.2-20.21-23.36,10.6c0,0,13.76-13.21,15.29-1.05"/>
    <path class="cls-33" d="M951.16,449.5s14.2,9.89,41.13,1.41c0,0,13.2-4.11,30.26-16.15,0,0-21.56,21.48-51.79,21.78,0,0-9.19,.66-20.2-4.3,0,0,.92,.24,.6-2.74Z"/>
    <ellipse class="cls-11" cx="1058.63" cy="393.67" rx="3.72" ry="3.07" transform="translate(599.37 1425.54) rotate(-86.41)"/>
    <path class="cls-2" d="M944.93,363s-12.9,16.8,7.54,20.17"/>
    <g>
      <path class="cls-12" d="M1009.33,344.7s.07-.62-.34-1.19c-1.36-1.88-4.58-5.45-10.14-6.01-6.23-.63-10.25,4.88-11.63,6.85-.24,.34-.25,.66-.25,.66,0,0-.06,.34,.13,.61,.88,1.25,3.87,4.81,9.76,5.49,3.5,.41,8.62-.99,12.15-5.45,.25-.31,.3-.73,.32-.96Z"/>
      <circle class="cls-33" cx="996.38" cy="344.51" r="6.47"/>
      <circle class="cls-12" cx="1000.57" cy="343.61" r="1.78"/>
      <path class="cls-7" d="M986.84,344.32s9.07-14.11,22.4-.84"/>
    </g>
    <g>
      <path class="cls-12" d="M936.23,342.69s.15-.57-.15-1.16c-1-1.94-3.48-5.73-8.57-7.04-5.7-1.47-10.23,3.07-11.79,4.71-.27,.28-.33,.58-.33,.58,0,0-.1,.31,.03,.58,.64,1.29,2.91,5.02,8.29,6.5,3.2,.88,8.16,.31,12.08-3.33,.27-.25,.39-.64,.43-.85Z"/>
      <circle class="cls-33" cx="924.21" cy="340.65" r="6.07"/>
      <circle class="cls-12" cx="928.4" cy="340.56" r="1.7"/>
      <path class="cls-7" d="M915.58,339.38s10.23-12.75,20.63,2.44"/>
    </g>
    <path class="cls-10" d="M866.76,764.85s5.83-39.76,6.53-103.1c0,0-17-12.54-16.3-42.89l-27.08-33.49,25.67-50.31s7.09-41.57,54.56-58.72c0,0,20.76-4.18,33.52-10.77,0,0-9.18,19-4.22,36.81,0,0,18.34,54.01,43.36,57.58,0,0,73.3-58.55,72.59-102.09,0,0,20.96-.53,50.51,21.69,67.12,50.48,85.76,201.06,85.76,201.06,0,0-27.58,23.55-46.06,21.31l5.7,71.05"/>
    <polygon class="cls-10" points="857 618.86 858.81 601.11 841.73 579.91 836.82 593.27 857 618.86"/>
    <path class="cls-10" d="M1057.11,461.15l-74.32,98.82,47.49,47.14,104.04-106.93s-16.85-19.56-43.79-25.31c-26.94-5.75-33.43-13.72-33.43-13.72Z"/>
    <path class="cls-10" d="M941.54,470.42l41.26,89.55-45.28,39.32-50.04-110.81s24.12-18.84,54.06-18.06Z"/>
    <path class="cls-31" d="M1030.28,607.11l104.04-106.93s-7.71-8.33-18.07-14.47l-100.01,107.4,14.04,14Z"/>
    <path class="cls-4" d="M1075.72,468.06s-69.09,84.16-77.92,108.57"/>
    <polygon class="cls-31" points="937.52 599.29 948.44 589.62 901.69 480.01 887.48 488.48 937.52 599.29"/>
    <line class="cls-4" x1="962.47" y1="575.59" x2="919.35" y2="473.25"/>
    <rect class="cls-12" x="1108.45" y="494.45" width="15.14" height="15.14" transform="translate(-64.53 179.82) rotate(-8.95)"/>
    <rect class="cls-12" x="1092.45" y="511.88" width="15.14" height="15.14" transform="translate(-67.44 177.54) rotate(-8.95)"/>
    <rect class="cls-12" x="1074.84" y="529.67" width="15.14" height="15.14" transform="translate(-70.43 175.02) rotate(-8.95)"/>
    <rect class="cls-12" x="1057.77" y="548.18" width="15.14" height="15.14" transform="translate(-73.52 172.58) rotate(-8.95)"/>
    <rect class="cls-12" x="1040.69" y="566.34" width="15.14" height="15.14" transform="translate(-76.55 170.15) rotate(-8.95)"/>
    <rect class="cls-12" x="1023.98" y="583.95" width="15.14" height="15.14" transform="translate(-79.49 167.76) rotate(-8.95)"/>
    <rect class="cls-12" x="894.38" y="491.26" width="11.35" height="11.35" transform="translate(140.68 1190.04) rotate(-71.29)"/>
    <rect class="cls-12" x="901.67" y="507.61" width="11.35" height="11.35" transform="translate(130.15 1208.05) rotate(-71.29)"/>
    <rect class="cls-12" x="909.91" y="525.97" width="11.35" height="11.35" transform="translate(118.35 1228.33) rotate(-71.29)"/>
    <rect class="cls-12" x="917.65" y="544.1" width="10.65" height="10.65" transform="translate(106.54 1247.41) rotate(-71.29)"/>
    <rect class="cls-12" x="924.98" y="561.57" width="10.65" height="10.65" transform="translate(94.96 1266.22) rotate(-71.29)"/>
    <rect class="cls-12" x="932.68" y="578.73" width="10.65" height="10.65" transform="translate(83.94 1285.16) rotate(-71.29)"/>
    <path class="cls-3" d="M1056.04,634.24s9.89-52.95,46.37-83.99"/>
    <path class="cls-3" d="M857,618.86s.82-23.57,4.31-31.42"/>
    <path class="cls-33" d="M1006.41,281.89s5.55,39.5,49.27,85.13c0,0,8.56-16.91,21.25-11.92,12.69,4.99-.67,34.03-.67,34.03,0,0-10.12,17.83-26.5,7.53,0,0-15.41,25.01-3.66,42.36,0,0-14.54,2.8-7.83,22.94,0,0-19.58,9.51-8.39,29.09,0,0-17.03,6.72-.56,27.41,0,0-20.14,23.5,14.54,50.35,0,0-8.39-17.9-3.36-26.85,5.03-8.95,0-24.05,0-24.05,0,0,16.22-13.99,7.27-33,0,0,16.22-13.43,7.27-29.65,0,0,30.28-13.49,21.89-35.87,0,0,52.85-41.43,12.07-119.36-7.1-13.57-11.15-22.3-32.8-37.18,0,0-47.73-53.04-123.95-1.44,0,0-45.51,34.1-19.25,91.88,0,0,3.31-6.78,.28-20.96,0,0-.18-15.72,5.12-27.13,0,0,47.25,1.24,88.01-23.29Z"/>
    <path class="cls-23" d="M1056.04,634.24c-9.04,11.29-17.32,39.16-17.32,39.16-9.04-45.93-63.25-143.82-63.25-143.82l-2.87-8.87s15.56-28.58,11.94-39.8c-3.62-11.22-3.26-28.94-3.26-28.94,7.6-20.62,1.81-23.15,1.81-23.15,0,0-1.45-2.17-12.3,3.98-10.85,6.15-8.68,28.22-8.68,28.22l-2.89-.72-4.7-6.87v-7.96l7.96-4.7s5.43-9.77-7.24-9.04-16.64,6.51-16.64,6.51l-3.98,19.17c-19.54,1.09-16.28,10.13-16.28,10.13-8.68,2.53-6.51,16.64-6.51,16.64-6.51,1.81-2.89,14.11-2.89,14.11,6.51,12.66,26.41,30.03,26.41,30.03l2.88,13.61s.34,242.33,92.28,224.85c91.94-17.48,103.34-67.62,103.34-67.62"/>
    <path class="cls-5" d="M937.34,441.64l1.26-3.43s8.89-9.44,23.24-4.98c0,0,4.95,2.72-.99,8.41l-6.33,3.81v7.96l4.7,6.87,2.89,.72s-3.5-30.25,17.79-32.48c0,0,6.43-2.97,5.44,7.18s-4.06,16.26-4.06,16.26c0,0,.1,17.15,2.08,23.83,1.98,6.68,2.72,14.85-.74,21.53-3.46,6.68-10.02,23.38-10.02,23.38l15.46,33.04"/>
    <path class="cls-5" d="M965.53,717.25s19.41,50.57,51.59,49.55c32.18-1.02,72.03-17.88,91.44-35.76"/>
    <path class="cls-5" d="M965.95,718.58s9.27,48.67,50.99,50.41c41.72,1.74,91.55-37.08,91.55-37.08"/>
    <path class="cls-23" d="M901.32,708.29l103.07,14.59,3.41,62.2s-42.8,15.12-122.72,11.96c-79.92-3.15-77.09-72.22-77.09-72.22,1.3-36.05,23-100.12,31.25-128.33l17.76,22.37s1.19,26.67,16.3,42.89l-1.84,37.74,29.86,8.8Z"/>
    <path class="cls-23" d="M1007.8,785.08s33.52,.93,44.17-.54c10.65-1.47,35.25,4.77,35.25,4.77,0,0,7.34,3.3,5.51-6.98l-17.26-4.41-10.65-4.77,37.82,2.94s11.75-.37,7.71-10.65c0,0,9.55-1.1,2.57-12.12l-18.36-5.14-1.47-8.81,16.52,6.24s10.28,1.1,6.61-8.08c-3.67-9.18-19.09-8.08-19.09-8.08l-97.83,.53"/>
    <line class="cls-5" x1="1110.35" y1="765.45" x2="1088.91" y2="760.21"/>
    <path class="cls-5" d="M965.95,718.58s20.65,49.77,64.54,48.18c42.29-1.54,89.9-45.22,89.9-45.22"/>
    <path class="cls-5" d="M871.46,699.49s-18.05-6.16-29.44,8.33"/>
  </g>
  <g>
    <rect class="cls-27" x="622.66" y="805.02" width="204.45" height="24.84" transform="translate(1449.78 1634.87) rotate(-180)"/>
    <polygon class="cls-27" points="915.82 782.4 827.12 805.02 622.66 805.02 718.9 780.63 915.82 782.4"/>
    <polygon class="cls-27" points="910.52 799.14 827.17 825.09 827.12 829.85 910.52 802.89 910.52 799.14"/>
    <polygon class="cls-12" points="910.52 784.07 827.12 805.02 827.12 826.53 910.52 799.56 910.52 784.07"/>
    <line class="cls-29" x1="827.12" y1="805.02" x2="622.66" y2="805.02"/>
    <polygon class="cls-29" points="803.41 785.53 753.91 785.53 712.53 798.51 764.87 798.51 803.41 785.53"/>
  </g>
  <g>
    <rect class="cls-28" x="613.05" y="780.1" width="204.45" height="24.84" transform="translate(1430.56 1585.05) rotate(-180)"/>
    <polygon class="cls-28" points="906.21 757.49 817.51 780.1 613.05 780.1 709.29 755.71 906.21 757.49"/>
    <polygon class="cls-28" points="900.91 774.23 817.56 800.18 817.51 804.94 900.91 777.97 900.91 774.23"/>
    <polygon class="cls-12" points="900.91 759.15 817.51 780.1 817.51 801.61 900.91 774.65 900.91 759.15"/>
    <line class="cls-29" x1="817.51" y1="780.1" x2="613.05" y2="780.1"/>
    <polygon class="cls-29" points="793.8 760.61 744.3 760.61 702.92 773.6 755.26 773.6 793.8 760.61"/>
  </g>
  <polygon class="cls-12" points="912.23 850.35 1175.99 863.61 1209.14 831.19 948.33 814.99 912.23 850.35"/>
</svg>