<?xml version="1.0" encoding="UTF-8"?>
<svg id="Layer_1" data-name="Layer 1" xmlns="http://www.w3.org/2000/svg" xmlns:xlink="http://www.w3.org/1999/xlink" viewBox="0 0 1822.27 1057.89">
  <defs>
    <style>
      .cls-1, .cls-2, .cls-3, .cls-4, .cls-5, .cls-6, .cls-7, .cls-8, .cls-9, .cls-10, .cls-11, .cls-12, .cls-13, .cls-14 {
        fill: none;
      }

      .cls-15 {
        clip-path: url(#clippath);
      }

      .cls-2, .cls-3, .cls-4, .cls-5 {
        stroke-width: .8px;
      }

      .cls-2, .cls-3, .cls-4, .cls-5, .cls-16, .cls-6, .cls-17, .cls-18, .cls-19, .cls-7, .cls-8, .cls-9, .cls-10, .cls-20, .cls-11, .cls-12, .cls-13, .cls-14 {
        stroke-miterlimit: 10;
      }

      .cls-2, .cls-10 {
        stroke: #754c29;
      }

      .cls-3 {
        stroke: #9e1f63;
      }

      .cls-4 {
        stroke: #ef4136;
      }

      .cls-5, .cls-8, .cls-11 {
        stroke: #231f20;
      }

      .cls-21 {
        fill: #f7daa6;
      }

      .cls-22 {
        fill: #f7d9a4;
      }

      .cls-23 {
        fill: #f8a69b;
      }

      .cls-24 {
        fill: #eeece8;
      }

      .cls-25 {
        fill: #efaf9e;
      }

      .cls-26, .cls-20 {
        fill: #eae1d3;
      }

      .cls-27, .cls-16 {
        fill: #e6e7e8;
      }

      .cls-28 {
        fill: #f6ac1b;
      }

      .cls-29, .cls-17, .cls-19 {
        fill: #fff;
      }

      .cls-30 {
        fill: #fbc5b3;
      }

      .cls-31 {
        fill: #803435;
      }

      .cls-32 {
        fill: #939598;
      }

      .cls-33 {
        fill: #87664d;
      }

      .cls-34 {
        fill: #b56e5b;
      }

      .cls-35 {
        fill: #8b5e3c;
      }

      .cls-36 {
        fill: #ba9777;
      }

      .cls-37 {
        fill: #ae8578;
      }

      .cls-38 {
        fill: #b1dcc4;
      }

      .cls-39, .cls-18 {
        fill: #a97c50;
      }

      .cls-40 {
        fill: #a3d7bb;
      }

      .cls-41 {
        fill: #be1e2d;
      }

      .cls-42 {
        fill: #be9e7d;
      }

      .cls-43 {
        fill: #c49a6c;
      }

      .cls-44 {
        fill: #e0d5c6;
      }

      .cls-45 {
        fill: #134a7e;
      }

      .cls-46 {
        fill: #231f20;
      }

      .cls-47 {
        fill: #092f44;
      }

      .cls-48 {
        fill: #414042;
      }

      .cls-49 {
        fill: #6d6e71;
      }

      .cls-50 {
        fill: #808285;
      }

      .cls-51 {
        fill: #38386a;
      }

      .cls-52 {
        fill: #603913;
      }

      .cls-53 {
        fill: #26130f;
      }

      .cls-16 {
        stroke: #58595b;
        stroke-width: .2px;
      }

      .cls-6 {
        stroke: #be1e2d;
        stroke-width: 5px;
      }

      .cls-54 {
        clip-path: url(#clippath-1);
      }

      .cls-55 {
        clip-path: url(#clippath-2);
      }

      .cls-17, .cls-18, .cls-11, .cls-12, .cls-13, .cls-14 {
        stroke-width: .5px;
      }

      .cls-17, .cls-19, .cls-12 {
        stroke: #603913;
      }

      .cls-18, .cls-14 {
        stroke: #a97c50;
      }

      .cls-7 {
        stroke: #fbb040;
        stroke-width: 2px;
      }

      .cls-9 {
        stroke: #2e3192;
      }

      .cls-20 {
        stroke: #8b5e3c;
        stroke-width: 3px;
      }

      .cls-13 {
        stroke: #3c2415;
      }
    </style>
    <clipPath id="clippath">
      <rect class="cls-1" x="487.04" width="388.4" height="473.98"/>
    </clipPath>
    <clipPath id="clippath-1">
      <rect class="cls-1" x="487.04" y="0" width="388.4" height="473.98"/>
    </clipPath>
    <clipPath id="clippath-2">
      <rect class="cls-1" x="487.76" y="486.19" width="325.1" height="514.36"/>
    </clipPath>
  </defs>
  <rect class="cls-40" x="487.04" width="1334.54" height="874.05"/>
  <g class="cls-15">
    <g class="cls-54">
      <g>
        <rect class="cls-38" x="780.83" y="200.17" width="103.08" height="102.45"/>
        <path class="cls-50" d="M827.05,210.58s-6.54,29.74-37.12,35.86v-36.09l37.12,.23Z"/>
        <path class="cls-50" d="M836.38,210.58s6.54,29.74,37.12,35.86v-36.09s-37.12,.23-37.12,.23Z"/>
        <path class="cls-50" d="M827.05,292.17s-6.54-29.74-37.12-35.86v36.09l37.12-.23Z"/>
        <path class="cls-50" d="M836.38,292.17s6.54-29.74,37.12-35.86v36.09s-37.12-.23-37.12-.23Z"/>
        <path class="cls-50" d="M831.72,223.12s-6.2,17.84-28.01,27.51c0,0,26.02,11.15,28.01,28.75,0,0,8.43-21.07,28.5-28.01,0,0-19.83-10.16-28.5-28.25Z"/>
      </g>
      <g>
        <rect class="cls-38" x="682.95" y="200.17" width="103.08" height="102.45"/>
        <path class="cls-50" d="M729.17,210.58s-6.54,29.74-37.12,35.86v-36.09l37.12,.23Z"/>
        <path class="cls-50" d="M738.51,210.58s6.54,29.74,37.12,35.86v-36.09s-37.12,.23-37.12,.23Z"/>
        <path class="cls-50" d="M729.17,292.17s-6.54-29.74-37.12-35.86v36.09l37.12-.23Z"/>
        <path class="cls-50" d="M738.51,292.17s6.54-29.74,37.12-35.86v36.09s-37.12-.23-37.12-.23Z"/>
        <path class="cls-50" d="M733.84,223.12s-6.2,17.84-28.01,27.51c0,0,26.02,11.15,28.01,28.75,0,0,8.43-21.07,28.5-28.01,0,0-19.83-10.16-28.5-28.25Z"/>
      </g>
      <g>
        <rect class="cls-38" x="489.39" y="200.17" width="103.08" height="102.45"/>
        <path class="cls-50" d="M535.62,210.58s-6.54,29.74-37.12,35.86v-36.09l37.12,.23Z"/>
        <path class="cls-50" d="M544.95,210.58s6.54,29.74,37.12,35.86v-36.09s-37.12,.23-37.12,.23Z"/>
        <path class="cls-50" d="M535.62,292.17s-6.54-29.74-37.12-35.86v36.09l37.12-.23Z"/>
        <path class="cls-50" d="M544.95,292.17s6.54-29.74,37.12-35.86v36.09s-37.12-.23-37.12-.23Z"/>
        <path class="cls-50" d="M540.28,223.12s-6.2,17.84-28.01,27.51c0,0,26.02,11.15,28.01,28.75,0,0,8.43-21.07,28.5-28.01,0,0-19.83-10.16-28.5-28.25Z"/>
      </g>
      <g>
        <rect class="cls-38" x="591.45" y="200.17" width="103.08" height="102.45"/>
        <path class="cls-50" d="M637.67,210.58s-6.54,29.74-37.12,35.86v-36.09l37.12,.23Z"/>
        <path class="cls-50" d="M647,210.58s6.54,29.74,37.12,35.86v-36.09s-37.12,.23-37.12,.23Z"/>
        <path class="cls-50" d="M637.67,292.17s-6.54-29.74-37.12-35.86v36.09l37.12-.23Z"/>
        <path class="cls-50" d="M647,292.17s6.54-29.74,37.12-35.86v36.09s-37.12-.23-37.12-.23Z"/>
        <path class="cls-50" d="M642.34,223.12s-6.2,17.84-28.01,27.51c0,0,26.02,11.15,28.01,28.75,0,0,8.43-21.07,28.5-28.01,0,0-19.83-10.16-28.5-28.25Z"/>
      </g>
      <g>
        <rect class="cls-38" x="780.83" y="101.47" width="103.08" height="102.45"/>
        <path class="cls-50" d="M827.05,111.88s-6.54,29.74-37.12,35.86v-36.09l37.12,.23Z"/>
        <path class="cls-50" d="M836.38,111.88s6.54,29.74,37.12,35.86v-36.09s-37.12,.23-37.12,.23Z"/>
        <path class="cls-50" d="M827.05,193.48s-6.54-29.74-37.12-35.86v36.09l37.12-.23Z"/>
        <path class="cls-50" d="M836.38,193.48s6.54-29.74,37.12-35.86v36.09s-37.12-.23-37.12-.23Z"/>
        <path class="cls-50" d="M831.72,124.43s-6.2,17.84-28.01,27.51c0,0,26.02,11.15,28.01,28.75,0,0,8.43-21.07,28.5-28.01,0,0-19.83-10.16-28.5-28.25Z"/>
      </g>
      <g>
        <rect class="cls-38" x="682.95" y="101.47" width="103.08" height="102.45"/>
        <path class="cls-50" d="M729.17,111.88s-6.54,29.74-37.12,35.86v-36.09l37.12,.23Z"/>
        <path class="cls-50" d="M738.51,111.88s6.54,29.74,37.12,35.86v-36.09s-37.12,.23-37.12,.23Z"/>
        <path class="cls-50" d="M729.17,193.48s-6.54-29.74-37.12-35.86v36.09l37.12-.23Z"/>
        <path class="cls-50" d="M738.51,193.48s6.54-29.74,37.12-35.86v36.09s-37.12-.23-37.12-.23Z"/>
        <path class="cls-50" d="M733.84,124.43s-6.2,17.84-28.01,27.51c0,0,26.02,11.15,28.01,28.75,0,0,8.43-21.07,28.5-28.01,0,0-19.83-10.16-28.5-28.25Z"/>
      </g>
      <g>
        <rect class="cls-38" x="585.07" y="101.47" width="103.08" height="102.45"/>
        <path class="cls-50" d="M631.3,111.88s-6.54,29.74-37.12,35.86v-36.09l37.12,.23Z"/>
        <path class="cls-50" d="M640.63,111.88s6.54,29.74,37.12,35.86v-36.09s-37.12,.23-37.12,.23Z"/>
        <path class="cls-50" d="M631.3,193.48s-6.54-29.74-37.12-35.86v36.09l37.12-.23Z"/>
        <path class="cls-50" d="M640.63,193.48s6.54-29.74,37.12-35.86v36.09s-37.12-.23-37.12-.23Z"/>
        <path class="cls-50" d="M635.96,124.43s-6.2,17.84-28.01,27.51c0,0,26.02,11.15,28.01,28.75,0,0,8.43-21.07,28.5-28.01,0,0-19.83-10.16-28.5-28.25Z"/>
      </g>
      <g>
        <rect class="cls-38" x="489.39" y="101.47" width="103.08" height="102.45"/>
        <path class="cls-50" d="M535.62,111.88s-6.54,29.74-37.12,35.86v-36.09l37.12,.23Z"/>
        <path class="cls-50" d="M544.95,111.88s6.54,29.74,37.12,35.86v-36.09s-37.12,.23-37.12,.23Z"/>
        <path class="cls-50" d="M535.62,193.48s-6.54-29.74-37.12-35.86v36.09l37.12-.23Z"/>
        <path class="cls-50" d="M544.95,193.48s6.54-29.74,37.12-35.86v36.09s-37.12-.23-37.12-.23Z"/>
        <path class="cls-50" d="M540.28,124.43s-6.2,17.84-28.01,27.51c0,0,26.02,11.15,28.01,28.75,0,0,8.43-21.07,28.5-28.01,0,0-19.83-10.16-28.5-28.25Z"/>
      </g>
      <g>
        <rect class="cls-38" x="780.83" y="3.71" width="103.08" height="102.45"/>
        <path class="cls-50" d="M827.05,14.12s-6.54,29.74-37.12,35.86V13.9l37.12,.23Z"/>
        <path class="cls-50" d="M836.38,14.12s6.54,29.74,37.12,35.86V13.9s-37.12,.23-37.12,.23Z"/>
        <path class="cls-50" d="M827.05,95.72s-6.54-29.74-37.12-35.86v36.09l37.12-.23Z"/>
        <path class="cls-50" d="M836.38,95.72s6.54-29.74,37.12-35.86v36.09s-37.12-.23-37.12-.23Z"/>
        <path class="cls-50" d="M831.72,26.67s-6.2,17.84-28.01,27.51c0,0,26.02,11.15,28.01,28.75,0,0,8.43-21.07,28.5-28.01,0,0-19.83-10.16-28.5-28.25Z"/>
      </g>
      <g>
        <rect class="cls-38" x="682.95" y="3.71" width="103.08" height="102.45"/>
        <path class="cls-50" d="M729.17,14.12s-6.54,29.74-37.12,35.86V13.9l37.12,.23Z"/>
        <path class="cls-50" d="M738.51,14.12s6.54,29.74,37.12,35.86V13.9s-37.12,.23-37.12,.23Z"/>
        <path class="cls-50" d="M729.17,95.72s-6.54-29.74-37.12-35.86v36.09l37.12-.23Z"/>
        <path class="cls-50" d="M738.51,95.72s6.54-29.74,37.12-35.86v36.09s-37.12-.23-37.12-.23Z"/>
        <path class="cls-50" d="M733.84,26.67s-6.2,17.84-28.01,27.51c0,0,26.02,11.15,28.01,28.75,0,0,8.43-21.07,28.5-28.01,0,0-19.83-10.16-28.5-28.25Z"/>
      </g>
      <g>
        <rect class="cls-38" x="585.07" y="3.71" width="103.08" height="102.45"/>
        <path class="cls-50" d="M631.3,14.12s-6.54,29.74-37.12,35.86V13.9l37.12,.23Z"/>
        <path class="cls-50" d="M640.63,14.12s6.54,29.74,37.12,35.86V13.9s-37.12,.23-37.12,.23Z"/>
        <path class="cls-50" d="M631.3,95.72s-6.54-29.74-37.12-35.86v36.09l37.12-.23Z"/>
        <path class="cls-50" d="M640.63,95.72s6.54-29.74,37.12-35.86v36.09s-37.12-.23-37.12-.23Z"/>
        <path class="cls-50" d="M635.96,26.67s-6.2,17.84-28.01,27.51c0,0,26.02,11.15,28.01,28.75,0,0,8.43-21.07,28.5-28.01,0,0-19.83-10.16-28.5-28.25Z"/>
      </g>
      <g>
        <rect class="cls-38" x="489.39" y="3.71" width="103.08" height="102.45"/>
        <path class="cls-50" d="M535.62,14.12s-6.54,29.74-37.12,35.86V13.9l37.12,.23Z"/>
        <path class="cls-50" d="M544.95,14.12s6.54,29.74,37.12,35.86V13.9s-37.12,.23-37.12,.23Z"/>
        <path class="cls-50" d="M535.62,95.72s-6.54-29.74-37.12-35.86v36.09l37.12-.23Z"/>
        <path class="cls-50" d="M544.95,95.72s6.54-29.74,37.12-35.86v36.09s-37.12-.23-37.12-.23Z"/>
        <path class="cls-50" d="M540.28,26.67s-6.2,17.84-28.01,27.51c0,0,26.02,11.15,28.01,28.75,0,0,8.43-21.07,28.5-28.01,0,0-19.83-10.16-28.5-28.25Z"/>
      </g>
    </g>
  </g>
  <g>
    <path class="cls-24" d="M1193.58,464.63v-122.75s1.98-40.61,54.09-40.61h449.27s35.61,2.62,32.05,40.21v278.58h-516.64l-18.77-155.45Z"/>
    <rect class="cls-44" x="1139.61" y="746.67" width="647.62" height="79.01"/>
    <rect class="cls-33" x="1166.94" y="824.7" width="53.73" height="45.91"/>
    <rect class="cls-33" x="1719.34" y="824.7" width="53.73" height="45.91"/>
    <path class="cls-44" d="M1193.58,464.63h45.67s24.37,7.44,24.37,33.82v120.15h-78.15s8.11-153.97,8.11-153.97Z"/>
    <path class="cls-44" d="M1729.31,464.63h-45.67s-24.37,7.44-24.37,33.82v120.15h78.15l-8.11-153.97Z"/>
    <rect class="cls-24" x="1135.72" y="464.63" width="92.19" height="179.44" rx="7.12" ry="7.12"/>
    <rect class="cls-24" x="1690.56" y="464.63" width="92.19" height="179.44" rx="7.12" ry="7.12"/>
    <rect class="cls-24" x="1116.67" y="616.12" width="689.03" height="130.55" rx="4.21" ry="4.21"/>
  </g>
  <rect class="cls-22" x="487.33" y="869.14" width="1334.94" height="132.3"/>
  <g>
    <rect class="cls-43" x="924.41" y="18.52" width="129.29" height="150.34"/>
    <rect class="cls-26" x="935.6" y="28.45" width="109.25" height="131"/>
    <g>
      <path class="cls-25" d="M973.05,75.1s-16.42-27.55,.79-33.64c0,0,22.25-2.38,7.42,33.11l-2.65,5.03-5.56-4.5Z"/>
      <path class="cls-25" d="M978.25,75.09s11.09-30.09,26.65-20.54c0,0,15.85,15.8-21.08,26.59l-5.58,1.11v-7.16Z"/>
      <path class="cls-25" d="M984.18,80.48s27.36-16.73,33.65,.42c0,0,2.63,22.22-33.02,7.79l-5.06-2.59,4.44-5.61Z"/>
      <path class="cls-25" d="M987.26,85.15s29.97,11.4,20.26,26.87c0,0-15.96,15.68-26.37-21.36l-1.05-5.59,7.16,.08Z"/>
      <path class="cls-25" d="M978.37,91.17s20.6,24.58,4.58,33.34c0,0-21.59,5.9-12.6-31.5l1.81-5.39,6.21,3.56Z"/>
      <path class="cls-25" d="M977.91,95.35s-11.28,30.02-26.79,20.37c0,0-15.74-15.9,21.25-26.45l5.59-1.07-.05,7.16Z"/>
      <path class="cls-25" d="M970.35,92.64s-29.05,13.59-33.39-4.15c0,0-.15-22.38,33.68-4.07l4.74,3.14-5.04,5.08Z"/>
      <path class="cls-25" d="M969.7,82.55s-31.39-6.57-24.22-23.36c0,0,13.31-17.99,29.39,16.96l1.91,5.36-7.08,1.04Z"/>
      <circle class="cls-28" cx="977.79" cy="85.32" r="9.75"/>
    </g>
    <g>
      <path class="cls-30" d="M1010.74,95.31s-12.52-21,.61-25.64c0,0,16.96-1.82,5.65,25.24l-2.02,3.84-4.24-3.43Z"/>
      <path class="cls-30" d="M1014.7,95.31s8.45-22.94,20.32-15.66c0,0,12.08,12.04-16.07,20.27l-4.25,.84v-5.46Z"/>
      <path class="cls-30" d="M1019.23,99.41s20.86-12.75,25.65,.32c0,0,2.01,16.94-25.17,5.94l-3.86-1.98,3.38-4.28Z"/>
      <path class="cls-30" d="M1021.58,102.97s22.85,8.69,15.44,20.48c0,0-12.17,11.95-20.1-16.28l-.8-4.26,5.45,.06Z"/>
      <path class="cls-30" d="M1014.8,107.56s15.71,18.73,3.49,25.41c0,0-16.45,4.5-9.6-24.01l1.38-4.11,4.73,2.71Z"/>
      <path class="cls-30" d="M1014.44,110.74s-8.6,22.88-20.42,15.52c0,0-12-12.12,16.2-20.16l4.26-.82-.04,5.46Z"/>
      <path class="cls-30" d="M1008.68,108.68s-22.14,10.36-25.45-3.16c0,0-.11-17.06,25.68-3.1l3.62,2.39-3.84,3.88Z"/>
      <path class="cls-30" d="M1008.19,100.99s-23.93-5.01-18.46-17.81c0,0,10.15-13.71,22.4,12.93l1.46,4.08-5.4,.8Z"/>
      <circle class="cls-28" cx="1014.35" cy="103.1" r="7.43"/>
    </g>
  </g>
  <g>
    <polygon class="cls-35" points="724.23 959.24 703.29 959.24 692.52 725.66 738.44 725.66 724.23 959.24"/>
    <polygon class="cls-35" points="873.77 959.24 852.83 959.24 842.06 725.66 887.99 725.66 873.77 959.24"/>
    <polygon class="cls-35" points="829.88 870.04 808.94 870.04 798.17 636.47 844.09 636.47 829.88 870.04"/>
    <polygon class="cls-35" points="981.27 870.04 960.33 870.04 949.56 636.47 995.48 636.47 981.27 870.04"/>
    <polygon class="cls-39" points="997.14 633.97 803.94 633.97 690.77 727.55 891.91 727.55 997.14 633.97"/>
    <polygon class="cls-35" points="997.14 633.97 891.91 727.55 690.77 727.55 690.77 753.63 893.1 753.63 998.55 653.27 997.14 633.97"/>
    <polygon class="cls-39" points="708.96 400.1 822.88 346.77 822.88 635.06 708.96 726.75 708.96 400.1"/>
    <polygon class="cls-35" points="822.88 346.77 797.75 346.77 697.25 395.92 697.25 727.55 708.96 726.75 708.96 400.1 822.88 346.77"/>
    <line class="cls-19" x1="708.96" y1="726.75" x2="822.88" y2="635.06"/>
  </g>
  <g>
    <circle class="cls-20" cx="1159.93" cy="85.94" r="68.27"/>
    <line class="cls-17" x1="1099.85" y1="86.28" x2="1111.06" y2="86.28"/>
    <line class="cls-17" x1="1208.91" y1="86.28" x2="1220.11" y2="86.28"/>
    <line class="cls-17" x1="1160.36" y1="25.77" x2="1160.36" y2="36.98"/>
    <line class="cls-17" x1="1160.36" y1="134.83" x2="1160.36" y2="146.03"/>
    <polyline class="cls-52" points="1157.68 87.91 1160.5 46.34 1162.82 90.32"/>
    <polygon class="cls-52" points="1162.86 90.48 1138.97 102.13 1157.33 87.32 1162.86 90.48"/>
  </g>
  <g>
    <g>
      <path class="cls-46" d="M1426.72,844.88s-3.67-30.38-53.52-10.31c-35.52,14.3-73.91,10.74-69.82,22.53l13.83,18.67,45.72,2.49,46.03-14.57,17.78-18.81Z"/>
      <path class="cls-48" d="M1426.72,844.88s-6.68,7.59-17.11,11.8c-10.22,4.13-35.56,10.37-35.56,10.37,0,0-46.9,25.95-71.24-11.47l1.32,8.61s11.59,30.63,74.3,13.93c0,0,36.69-12.28,47.07-19.09,0,0,2.34-4.13,1.21-14.16Z"/>
      <path class="cls-42" d="M1366.97,780.35c.13,.43,.21,.88,.24,1.33l3.81,18.55s6.24,19.74-15.61,27.37c-.22,.08,.19-.14,0,0l-15.41,8.92c-.27,.2-.55,.38-.85,.54l-8.47,4.47c-.45,.24-.93,.42-1.42,.55l-15.9,4s-2.68,.49-5.84,2.75c-.84,.6-2.76,2.7,.3,3.28,0,0-2.44,3.43,1.58,5.68,0,0-1.88,5.93,5.09,3.74,0,0-1.54,3.41,.99,4.77,1.78,.96,3.26,2.43,3.67,4.41,.55,2.71,3.42,5.46,13.91,3.25,.49-.1,1-.15,1.5-.14,3.97,.11,22.91,.27,31.11-6.51,0,0,14.5-11.54,31.55-11.93,12.08-.28,19.75-7.88,23.19-12.28,1.37-1.75,1.67-4.1,.87-6.17-2.3-5.98-9.14-21.06-10.07-35.79"/>
      <path class="cls-12" d="M1319.58,866.77s.65-4.39,7.46-5.62"/>
      <path class="cls-12" d="M1314.49,861.53s3.5-5.48,8.53-5.53"/>
      <path class="cls-12" d="M1309.41,857.79s3.77-6.06,9.33-6.43"/>
      <path class="cls-12" d="M1307.83,852.11s2.61-4.17,7.13-4.51"/>
      <path class="cls-48" d="M1373.48,868.48s-5.7-29.25-27.91-35.15l-28.33,11.5s17.78,11.25,26.8,30.67c0,0,15.15,1.32,29.44-7.02Z"/>
      <path class="cls-29" d="M1369.93,873.59s-10.97-33.52-31.7-38.66l-5.02,2.42s21.02,4.73,31.08,37.8l5.64-1.56Z"/>
      <path class="cls-29" d="M1359.88,876.72s-10.29-32.22-31.02-37.35l-5.02,2.42s19.02,3.26,30.55,36.16l5.5-1.22Z"/>
    </g>
    <g>
      <path class="cls-46" d="M1503.75,853.01s-4.15-34.38-60.59-11.67c-40.21,16.18-83.66,12.16-79.03,25.51l15.65,21.13,51.75,2.81,52.1-16.49,20.12-21.3Z"/>
      <path class="cls-48" d="M1503.75,853.01s-7.56,8.59-19.36,13.35c-11.57,4.67-40.25,11.74-40.25,11.74,0,0-53.09,29.37-80.64-12.98l1.5,9.75s13.12,34.67,84.1,15.77c0,0,41.53-13.9,53.28-21.61,0,0,2.65-4.68,1.37-16.02Z"/>
      <path class="cls-42" d="M1437.93,799.37s7.92,20.39-12.28,29.77l-16.86,11.57-10.62,6.67-18.84,6.26s-13.6-.96-15.57,3.07c-1.97,4.04-3.83,5.71,2.68,11.36,0,0,2.65,6.04,7.75,4.52,0,0,3.58,5.2,11.91,3.85,0,0,2.13,4.54,11.08,2.92,0,0,3.08,3.4,7.6,1.56,0,0,26.76,2.23,36.69-7.31,0,0,17.17-10.35,33.47-12.51,9.19-1.22,14.85-4.91,18.15-8.14,2.67-2.61,3.77-6.41,2.92-10.05-1.69-7.18-4.84-21.52-6.22-33.93"/>
      <path class="cls-12" d="M1383.25,856.93l-9.64,4.23s-6.48,1.43-7.18,6.91"/>
      <path class="cls-12" d="M1388.78,860.45s-16.13,5.87-15.1,9.97l.5,2.17"/>
      <path class="cls-12" d="M1394.99,866.4s-9.23,3.26-8.89,10.04"/>
      <path class="cls-12" d="M1400.6,873.71s-4.81,1.52-3.43,5.64"/>
      <path class="cls-48" d="M1453.09,876.52s-9.44-36.14-34.59-42.83l-29.49,15.84s21.24,16.04,31.45,38.03c0,0,16.45-1.6,32.63-11.04Z"/>
      <path class="cls-29" d="M1448.48,880.41s-12.42-37.95-35.88-43.76l-5.69,2.73s23.79,5.36,35.19,42.79l6.38-1.76Z"/>
      <path class="cls-29" d="M1437.1,883.96s-10.67-35.91-34.13-41.72l-5.69,2.62s20.56,3.25,33.6,40.49l6.22-1.38Z"/>
    </g>
    <path class="cls-32" d="M1448.35,530.78s-96.17,20.95-110.89,68.38c0,0-12.27,97.31,20.44,209.34,0,0,38.09,19.26,61.81,5.36,0,0,2.14-29.99,.5-51.25,0,0,7.02,27.86,12.41,50.12,0,0,44.75,9.6,62.74-.21,0,0,17.53-104.06,.65-180.71,0,0,107.61,16.53,119.84-32.39,12.8-51.2,2.35-66.14,2.35-66.14,0,0-94.6,32.32-169.86-2.49Z"/>
    <path class="cls-8" d="M1420.35,767.21s-17.31-128.4-13.05-157.16c4.26-28.75,68.95-46.25,68.95-46.25"/>
    <path class="cls-49" d="M1357.91,808.49l1.15,16.76s37.53,10.51,62.56,1.45l-1.43-15.48s-46.43,6.67-62.28-2.74Z"/>
    <path class="cls-49" d="M1432.63,812.71l.69,13.24s43.55,9.76,63.25-1.42l-1.19-12.04s-25.31,9.73-62.74,.21Z"/>
    <path class="cls-42" d="M1540.1,262.75s2.45,43.7,15.53,50.72c0,0,4.49,41.4-61.62,45.81,0,0-47.87-18.4-15.45-41.87,3.46-2.51,5.44-5.1,3.49-13.46l58.05-41.2Z"/>
    <path class="cls-45" d="M1553.22,312.08s26.37,9.29,45.77,21.27c36.41,22.49,40.23,91.03,40.23,91.03,0,0-38.79,21.92-55.65,17.04,0,0,37.74,73.94,34.65,91.84,0,0-126.67,39.19-179.99,.12,0,0,5-5.85-.62-86.93,0,0-16.46-1.88-31.37-47.45,0,0,14.81-46.68,31.16-58.73,0,0,22.72-23.36,41.17-22.86,0,0-9.68,28.22,5.08,35.32,14.75,7.1,75.04,.33,69.58-40.65Z"/>
    <path class="cls-42" d="M1450.54,199.44s-11.13,12.55-5.3,42.47c0,0,3.46,7.39,2.85,16.19,0,0-3.11,16.03,3.56,28.03,6.67,12,16.16,24.1,16.16,24.1,0,0,7.57,6.32,16.78,3.75,0,0,14.67,3.59,26.45-5.52,11.78-9.11,31.07-36.03,31.07-36.03,0,0,11.74,2.1,14.15-10.02,2.41-12.12,6.81-21.61-1.1-27.9-7.91-6.29-15.23,13.61-15.23,13.61,0,0-3.66-7.82-3.05-16.62,0,0,.39-15.39-11.71-34.91,0,0-33.46-11.1-74.64,2.83Z"/>
    <path class="cls-46" d="M1487.03,233.39s15.89-5.29,30.08,.43c0,0-7.18-11.02-30.63-5.34,0,0-3.82,3.22,.55,4.91Z"/>
    <path class="cls-46" d="M1445.3,238.48c10.28-4.7,16.44-2.91,16.44-2.91,3.57-2.81-.89-4.65-.89-4.65-7.29,.49-12.66,2.01-16.58,3.86,0,0,.47,3.95,1.03,3.69Z"/>
    <path class="cls-53" d="M1485.61,314.82s17.63,1.09,24.4-5.68c0,0,8.13-5.08,17.08-17.12,0,0-10.33,21.05-26.23,24.35,0,0-7.44,2-15.25-1.55,0,0,.45,1.7,0,0Z"/>
    <path class="cls-5" d="M1466.32,260.36s-6.08,16.99,9.61,13.35"/>
    <path class="cls-5" d="M1555.36,246.93s-7.84-10.06-10.88,11c0,0,4.91-10.41,8.39-3.88"/>
    <g>
      <path class="cls-29" d="M1504.28,242.48s-.02-.39-.32-.69c-1.01-1.02-3.3-2.9-6.74-2.72-3.86,.2-5.79,3.93-6.45,5.26-.11,.23-.09,.42-.09,.42,0,0,0,.22,.14,.36,.65,.68,2.81,2.57,6.46,2.43,2.17-.08,5.17-1.41,6.9-4.46,.12-.21,.12-.47,.1-.61Z"/>
      <circle class="cls-53" cx="1496.36" cy="243.57" r="3.99"/>
      <circle class="cls-29" cx="1498.83" cy="242.63" r="1.1"/>
      <path class="cls-11" d="M1490.53,244.35s4.21-9.45,13.57-2.6"/>
    </g>
    <g>
      <path class="cls-29" d="M1461.47,247.91s.04-.36-.2-.69c-.79-1.09-2.65-3.17-5.88-3.49-3.61-.36-5.95,2.83-6.75,3.97-.14,.2-.15,.38-.15,.38,0,0-.03,.2,.07,.35,.51,.73,2.24,2.79,5.66,3.19,2.03,.24,5-.57,7.05-3.16,.14-.18,.18-.42,.18-.56Z"/>
      <circle class="cls-53" cx="1453.95" cy="247.79" r="3.74"/>
      <circle class="cls-29" cx="1456.5" cy="247.34" r="1.05"/>
      <path class="cls-11" d="M1448.57,247.82s5.04-8.73,12.8-.44"/>
    </g>
    <path class="cls-9" d="M1564.29,373.54s-5.02,29.22,16.56,68.07"/>
    <path class="cls-9" d="M1437.52,446.25s-4.88-22.05-1.84-54.67"/>
    <path class="cls-42" d="M1529.24,560.88s-9.12,4.8-13.43,1.92-23.51-3.36-23.51-3.36l-27.83,18.71-6.24,11.03s-6.72,3.36-3.84,8.64c0,0,2.88,3.84,6.72,3.84,0,0,6.72,1.92,11.51-.48s8.16-3.84,8.16-3.84c0,0,.48,4.8,6.72,4.8s21.11-1.44,21.11-1.44l22.07,3.36,12.95-14.39,8.64-1.92"/>
    <line class="cls-12" x1="1458.24" y1="589.18" x2="1491.69" y2="571.69"/>
    <path class="cls-12" d="M1461.11,601.66s-3.66-4.42,2.06-8.59,27.03-12.75,27.03-12.75l6.81-.88"/>
    <path class="cls-12" d="M1480.78,597.34s1.73-5.15,10.52-4.49c8.79,.66,13.41-2.2,13.41-2.2"/>
    <path class="cls-42" d="M1583.56,441.42s-.21,47.15,6.37,63.3c0,0-51.44,48.61-62.36,56.97,0,0,10.45,19.74,22.99,26.71,0,0,53.45-28.01,74.58-54.02,21.13-26.01,11.41-108.48,11.41-108.48"/>
    <path class="cls-37" d="M1499.4,282.35s-8.04-1.97-17.28,1.26c0,0-8.22-1.14-15.43,.92,0,0,1.59,13.06,14.07,15.23,12.47,2.17,19.33-9.77,18.64-17.41Z"/>
    <path class="cls-31" d="M1497.48,283.4s.81,11.6-14.28,12.49c-13.7,.82-14.42-9.51-14.42-9.51,0,0,15.47-.22,28.7-2.99Z"/>
    <path class="cls-29" d="M1495.62,283.67s-3.42,5.6-15.13,5.73c0,0-7.18,.79-10.42-2.86,0,0,15.07-.57,25.55-2.87Z"/>
    <path class="cls-42" d="M1344.91,374.48s9.69-.46,26.19-15.79l30.51,64.21,6.95-16.91s12.38,35.64,29.6,40.77l1.78,44.02s-19.35,24.23-46.83,21.51c-27.48-2.72-50.9-80.43-48.19-137.81Z"/>
    <path class="cls-42" d="M1370.9,361.41c1.48-2.48-1.66-5.52-2.34-8.3l6.51-39.61-16.28-40.7s-5.97-3.26-5.97,6.51c0,9.77,5.43,28.22,5.43,28.22,0,0-13.87-1.15-16.82,0-3.33,1.3-8.43,4.42-8.43,4.42,0,0-3.2,3.03-1.99,5.36,0,0-12.44,2.62,1.89,16.6,0,0-2.07,23.07,10.65,32.54,0,0,.46,2.58,1.36,8.03,0,0,17.29,1.54,25.99-13.07Z"/>
    <path class="cls-12" d="M1371.99,328.21s-.54-6.05-8.06-11.93c-3.56-2.79-13.94-4.65-13.94-4.65,0,0-6.88,4.22-.93,9.14,5.95,4.92,9.45,8.06,9.45,8.06,0,0-21.11,12.09-2.99,26.07"/>
    <path class="cls-12" d="M1340.17,308.27s-1.54,8.77,4.27,16.12c0,0,.83,6.05-5.84,4.65,0,0-5.38-4.6-7.58-11.74"/>
    <path class="cls-12" d="M1338.59,329.05s1.49,7.82-5.7,4.86"/>
    <line class="cls-10" x1="1349.65" y1="307.09" x2="1349.99" y2="311.63"/>
    <path class="cls-12" d="M1351.08,322.38s-.38,2.02-2.02,2.73c-2.73,1.19-4.62-.71-4.62-.71"/>
    <path class="cls-46" d="M1442.6,195.11c1.49,22.42,1.01,38.04,1.01,38.04,.52-30.52,7.09-29.73,7.09-29.73,24.66-18.5,69.77-3.06,69.77-3.06,15.43,16.97,17.48,51.95,17.48,51.95,9.32-22.98,18.34-15.5,18.34-15.5,8.69-58.01-29.09-60.94-29.09-60.94,0,0-15.65-15.4-30.65-7.58,0,0-8.4-8.94-21.35-.51,0,0-14.91-5.23-20.81,7.22,0,0-13.38-3.61-11.8,20.12Z"/>
  </g>
  <g class="cls-55">
    <g>
      <polygon class="cls-35" points="598.58 870.96 623.31 870.96 636.02 595.18 581.8 595.18 598.58 870.96"/>
      <polygon class="cls-30" points="615.61 500.44 700.24 561.5 .17 561.5 0 501.85 615.61 500.44"/>
      <polygon class="cls-35" points="649.21 1057.89 673.93 1057.89 686.65 707.03 632.43 707.03 649.21 1057.89"/>
      <path class="cls-23" d="M700.24,561.5l38.14,154.57s-34.34,17.17-75.36-4.77c0,0-12.4,19.08-41.97,2.86,0,0-10.49,8.58-56.28-.95,0,0-32.43-3.82-47.69,1.91,0,0-14.31,11.45-37.2-.95,0,0-20.03,9.54-38.16,0,0,0-23.85,4.77-52.46-3.82-28.62-8.58-73.45,15.26-73.45,15.26,0,0-7.63-14.31-33.39-10.49,0,0-22.89,13.35-41.02,1.91,0,0-25.75-8.58-83.94-.95,0,0-13.35,10.49-25.75,0,0,0-102.13,9.9-130.75-2.5L.17,561.5"/>
      <line class="cls-3" x1="663.01" y1="711.3" x2="655.79" y2="597.99"/>
      <line class="cls-3" x1="621.04" y1="714.16" x2="630.14" y2="627.74"/>
      <line class="cls-3" x1="441.72" y1="714.16" x2="451.68" y2="593.15"/>
      <path class="cls-3" d="M282.42,715.12s-17.84-74.8-22.56-123.54"/>
      <path class="cls-3" d="M315.8,725.61s17.17-50.7,13.24-119.88"/>
      <line class="cls-3" x1="157.46" y1="716.07" x2="150.58" y2="623.81"/>
      <line class="cls-3" x1="479.87" y1="714.16" x2="476.14" y2="644.63"/>
      <line class="cls-3" x1="517.07" y1="715.12" x2="512.64" y2="622.26"/>
      <line class="cls-3" x1="131.71" y1="716.07" x2="138.72" y2="650.31"/>
    </g>
  </g>
  <g>
    <path class="cls-51" d="M1675.46,899.27s-17.25-1.96-15.2-23.36c2.66-27.77,1.07-51.95,5.89-83.02s13.93-75.52,28.39-104.44c14.46-28.92,51.42-28.39,51.42-28.39,0,0,53.02-3.75,64.27,33.74,11.25,37.49,8.03,117.83,8.03,117.83l-4.28,54.63s-14.7,43.95-42.31,46.6c-22.34,2.14-96.2-13.59-96.2-13.59Z"/>
    <path class="cls-6" d="M1662.09,856.99s-3.12-42.09,5.45-51.73c8.57-9.64,14.15-19.33,36.11-7.55,21.96,11.78,36.42,6.96,36.42,6.96,0,0,21.96-13.93,35.35,10.71,13.39,24.64,2.68,61.06,2.68,61.06"/>
    <path class="cls-6" d="M1701.5,751.64s34.28,11.25,72.31,7.5"/>
    <path class="cls-6" d="M1683.83,719.51s18.75-31.6,54.63-25.71,43.92,11.78,43.92,11.78c0,0,18.75,14.46,16.07,34.81,0,0,2.68,14.46,6.96,16.6s9.11,16.6,7.5,27.32"/>
    <path class="cls-4" d="M1669.9,778.42s3.21-36.96,29.46-49.81c0,0,4.82-3.21,7.5-10.71,0,0,25.17-3.21,69.09,6.43,0,0,13.39,43.38,16.6,77.66"/>
    <path class="cls-4" d="M1777.96,879.02s-.4,33.3-15.93,34.37"/>
    <polyline class="cls-4" points="1797.38 751.64 1791.49 890.37 1781.84 904.83"/>
    <path class="cls-41" d="M1661.78,841.51s-16.42,3.19-16.42,19.16-14.6,20.99-14.6,20.99l8.67,8.67s10.49-3.19,13.23-17.79c2.74-14.6,9.12-20.07,9.12-20.07v-10.95Z"/>
    <path class="cls-41" d="M1730.11,662.04s9.22-6.66,17.43-26.73c8.21-20.07,36.95,2.74,36.95,2.74,0,0,6.44,17.56,4.16,30.34,0,0-4.1-2.63-13.22-5.18,0,0,7.24-3.71,4.51-18.77-2.74-15.05-21.9-12.32-21.9-12.32,0,0-8.67,1.37-8.67,14.14s-3.41,13.8-3.41,13.8c0,0-9.01,.61-15.85,1.98Z"/>
  </g>
  <g>
    <path class="cls-42" d="M964.99,447.33s13.47,47.74,19.24,56.4l70.22-31.84,10.55,26.54s-27.88,48.09-67.31,67.33-49.52-.96-49.52-.96c0,0-4.93-14.97,8.32-55.23,13.25-40.26,8.49-62.24,8.49-62.24Z"/>
    <path class="cls-35" d="M996.9,894.34s-11.04,17.17-5.52,28.83c0,0,5.52,17.79,46.61,12.27,0,0,54.27,21.37,67.15-9.29,0,0-.91-18.31-45.69-23.83,0,0,5.52,14.72-14.11,14.11,0,0-38.03-.61-48.45-22.08Z"/>
    <path class="cls-36" d="M996.9,894.34s1.76-10.51,4.97-15.09c0,0-5.95-43.97-1.37-65.04,0,0,29.17-3.78,48.87-4.69,0,0-7.64,53.25-10.39,74.77,0,0-1.37,11.91,6.87,13.28l13.62,4.75s7.19,24.57-28.12,13.47c-35.3-11.09-34.44-21.45-34.44-21.45Z"/>
    <path class="cls-36" d="M928.79,904.86s1.9-11.33,5.35-16.27c0,0-6.42-47.39-1.48-70.1,0,0,30.61,6.91,51.83,5.92,0,0-7.4,46.4-10.37,69.6,0,0-1.48,12.83,7.4,14.32l14.67,5.11s7.74,26.48-30.3,14.52c-38.04-11.96-37.12-23.11-37.12-23.11Z"/>
    <path class="cls-47" d="M956.52,594.43s103.72,15.1,102.41,88.62c-1.31,73.52-2.93,124.8-2.93,124.8,0,0-87.04,32.95-139.52,6.64,0,0-18.81-74.06-9.21-101.07l-94.52,4.41s-60.39,1.97-73.52-20.35c-13.13-22.32-20.82-65.08-2.53-96.22,0,0,56.33,8.63,146.27-42.57l73.55,35.73Z"/>
    <path class="cls-35" d="M928.79,904.86s-11.9,18.51-5.95,31.07c0,0,5.95,19.17,50.23,13.22,0,0,58.49,23.03,72.37-10.02,0,0-.99-19.73-49.24-25.68,0,0,5.95,15.86-15.2,15.2,0,0-40.98-.66-52.22-23.79Z"/>
    <g>
      <circle class="cls-14" cx="1008.13" cy="737.41" r="5.08"/>
      <circle class="cls-14" cx="1004.55" cy="755.95" r="5.08"/>
      <circle class="cls-14" cx="1012.48" cy="747.7" r="5.08"/>
      <path class="cls-14" d="M999.53,750.38c0,2.8-2.27,5.08-5.08,5.08-2.8,0-5.08-2.27-5.08-5.08,0-2.8,2.27-5.08,5.08-5.08s5.08,2.27,5.08,5.08Z"/>
      <circle class="cls-14" cx="997.62" cy="740.1" r="5.08"/>
    </g>
    <g>
      <path class="cls-14" d="M956.37,721.12c0,2.8-2.27,5.08-5.08,5.08-2.8,0-5.08-2.27-5.08-5.08,0-2.8,2.27-5.08,5.08-5.08,2.8,0,5.08,2.27,5.08,5.08Z"/>
      <circle class="cls-14" cx="947.71" cy="739.67" r="5.08"/>
      <circle class="cls-14" cx="955.64" cy="731.41" r="5.08"/>
      <circle class="cls-14" cx="937.62" cy="734.09" r="5.08"/>
      <circle class="cls-14" cx="940.79" cy="723.81" r="5.08"/>
    </g>
    <g>
      <path class="cls-14" d="M903.24,679.93c0,2.8-2.27,5.08-5.08,5.08-2.8,0-5.08-2.27-5.08-5.08,0-2.8,2.27-5.08,5.08-5.08s5.08,2.27,5.08,5.08Z"/>
      <path class="cls-14" d="M899.66,698.47c0,2.8-2.27,5.08-5.08,5.08-2.8,0-5.08-2.27-5.08-5.08,0-2.8,2.27-5.08,5.08-5.08s5.08,2.27,5.08,5.08Z"/>
      <circle class="cls-14" cx="902.51" cy="690.21" r="5.08"/>
      <circle class="cls-14" cx="884.49" cy="692.89" r="5.08"/>
      <circle class="cls-14" cx="887.66" cy="682.62" r="5.08"/>
    </g>
    <g>
      <circle class="cls-14" cx="839.56" cy="679.09" r="5.08"/>
      <path class="cls-14" d="M841.06,697.64c0,2.8-2.27,5.08-5.08,5.08-2.8,0-5.08-2.27-5.08-5.08,0-2.8,2.27-5.08,5.08-5.08,2.8,0,5.08,2.27,5.08,5.08Z"/>
      <circle class="cls-14" cx="843.91" cy="689.38" r="5.08"/>
      <circle class="cls-14" cx="825.89" cy="692.06" r="5.08"/>
      <circle class="cls-14" cx="829.06" cy="681.79" r="5.08"/>
    </g>
    <g>
      <path class="cls-14" d="M990,688.89c0,2.8-2.27,5.08-5.08,5.08-2.8,0-5.08-2.27-5.08-5.08s2.27-5.08,5.08-5.08c2.8,0,5.08,2.27,5.08,5.08Z"/>
      <circle class="cls-14" cx="981.35" cy="707.43" r="5.08"/>
      <path class="cls-14" d="M994.35,699.17c0,2.8-2.27,5.08-5.08,5.08-2.8,0-5.08-2.27-5.08-5.08,0-2.8,2.27-5.08,5.08-5.08,2.8,0,5.08,2.27,5.08,5.08Z"/>
      <path class="cls-14" d="M976.33,701.86c0,2.8-2.27,5.08-5.08,5.08-2.8,0-5.08-2.27-5.08-5.08,0-2.8,2.27-5.08,5.08-5.08s5.08,2.27,5.08,5.08Z"/>
      <circle class="cls-14" cx="974.42" cy="691.58" r="5.08"/>
    </g>
    <g>
      <path class="cls-14" d="M1035.01,696.82c0,2.8-2.27,5.08-5.08,5.08-2.8,0-5.08-2.27-5.08-5.08,0-2.8,2.27-5.08,5.08-5.08s5.08,2.27,5.08,5.08Z"/>
      <circle class="cls-14" cx="1026.36" cy="715.36" r="5.08"/>
      <path class="cls-14" d="M1039.36,707.1c0,2.8-2.27,5.08-5.08,5.08-2.8,0-5.08-2.27-5.08-5.08,0-2.8,2.27-5.08,5.08-5.08s5.08,2.27,5.08,5.08Z"/>
      <circle class="cls-14" cx="1016.26" cy="709.79" r="5.08"/>
      <circle class="cls-14" cx="1019.43" cy="699.51" r="5.08"/>
    </g>
    <g>
      <circle class="cls-14" cx="916.36" cy="632.49" r="5.08"/>
      <circle class="cls-14" cx="912.79" cy="651.03" r="5.08"/>
      <path class="cls-14" d="M925.79,642.77c0,2.8-2.27,5.08-5.08,5.08-2.8,0-5.08-2.27-5.08-5.08,0-2.8,2.27-5.08,5.08-5.08,2.8,0,5.08,2.27,5.08,5.08Z"/>
      <circle class="cls-14" cx="902.69" cy="645.45" r="5.08"/>
      <path class="cls-14" d="M910.94,635.18c0,2.8-2.27,5.08-5.08,5.08-2.8,0-5.08-2.27-5.08-5.08s2.27-5.08,5.08-5.08,5.08,2.27,5.08,5.08Z"/>
    </g>
    <g>
      <circle class="cls-14" cx="950.79" cy="661.52" r="5.08"/>
      <circle class="cls-14" cx="947.21" cy="680.07" r="5.08"/>
      <path class="cls-14" d="M960.21,671.81c0,2.8-2.27,5.08-5.08,5.08-2.8,0-5.08-2.27-5.08-5.08s2.27-5.08,5.08-5.08c2.8,0,5.08,2.27,5.08,5.08Z"/>
      <circle class="cls-14" cx="937.12" cy="674.49" r="5.08"/>
      <circle class="cls-14" cx="940.29" cy="664.22" r="5.08"/>
    </g>
    <g>
      <circle class="cls-14" cx="990.4" cy="636.92" r="5.08"/>
      <circle class="cls-14" cx="986.82" cy="655.46" r="5.08"/>
      <path class="cls-14" d="M999.82,647.2c0,2.8-2.27,5.08-5.08,5.08-2.8,0-5.08-2.27-5.08-5.08s2.27-5.08,5.08-5.08c2.8,0,5.08,2.27,5.08,5.08Z"/>
      <circle class="cls-14" cx="976.72" cy="649.89" r="5.08"/>
      <circle class="cls-14" cx="979.89" cy="639.61" r="5.08"/>
    </g>
    <g>
      <circle class="cls-14" cx="939.39" cy="765.34" r="5.08"/>
      <circle class="cls-14" cx="935.81" cy="783.89" r="5.08"/>
      <path class="cls-14" d="M948.81,775.63c0,2.8-2.27,5.08-5.08,5.08-2.8,0-5.08-2.27-5.08-5.08,0-2.8,2.27-5.08,5.08-5.08,2.8,0,5.08,2.27,5.08,5.08Z"/>
      <circle class="cls-14" cx="925.72" cy="778.31" r="5.08"/>
      <circle class="cls-14" cx="928.88" cy="768.03" r="5.08"/>
    </g>
    <g>
      <circle class="cls-14" cx="982.59" cy="780.35" r="5.08"/>
      <circle class="cls-14" cx="979.02" cy="798.89" r="5.08"/>
      <path class="cls-14" d="M992.02,790.63c0,2.8-2.27,5.08-5.08,5.08-2.8,0-5.08-2.27-5.08-5.08,0-2.8,2.27-5.08,5.08-5.08,2.8,0,5.08,2.27,5.08,5.08Z"/>
      <circle class="cls-14" cx="968.92" cy="793.31" r="5.08"/>
      <path class="cls-14" d="M977.17,783.04c0,2.8-2.27,5.08-5.08,5.08-2.8,0-5.08-2.27-5.08-5.08s2.27-5.08,5.08-5.08,5.08,2.27,5.08,5.08Z"/>
    </g>
    <g>
      <circle class="cls-14" cx="1039.6" cy="767.14" r="5.08"/>
      <circle class="cls-14" cx="1036.03" cy="785.69" r="5.08"/>
      <circle class="cls-14" cx="1043.95" cy="777.43" r="5.08"/>
      <circle class="cls-14" cx="1025.93" cy="780.11" r="5.08"/>
      <path class="cls-14" d="M1034.18,769.83c0,2.8-2.27,5.08-5.08,5.08-2.8,0-5.08-2.27-5.08-5.08s2.27-5.08,5.08-5.08,5.08,2.27,5.08,5.08Z"/>
    </g>
    <g>
      <path class="cls-14" d="M1038.04,644.81c0,2.8-2.27,5.08-5.08,5.08-2.8,0-5.08-2.27-5.08-5.08,0-2.8,2.27-5.08,5.08-5.08s5.08,2.27,5.08,5.08Z"/>
      <circle class="cls-14" cx="1029.39" cy="663.35" r="5.08"/>
      <circle class="cls-14" cx="1037.31" cy="655.09" r="5.08"/>
      <circle class="cls-14" cx="1019.29" cy="657.78" r="5.08"/>
      <circle class="cls-14" cx="1022.46" cy="647.5" r="5.08"/>
    </g>
    <g>
      <circle class="cls-14" cx="761.44" cy="627.41" r="5.08"/>
      <circle class="cls-14" cx="757.86" cy="645.95" r="5.08"/>
      <circle class="cls-14" cx="765.79" cy="637.69" r="5.08"/>
      <path class="cls-14" d="M752.85,640.38c0,2.8-2.27,5.08-5.08,5.08-2.8,0-5.08-2.27-5.08-5.08,0-2.8,2.27-5.08,5.08-5.08,2.8,0,5.08,2.27,5.08,5.08Z"/>
      <circle class="cls-14" cx="750.94" cy="630.1" r="5.08"/>
    </g>
    <g>
      <circle class="cls-14" cx="864.5" cy="637.08" r="5.08"/>
      <circle class="cls-14" cx="860.93" cy="655.62" r="5.08"/>
      <circle class="cls-14" cx="868.85" cy="647.37" r="5.08"/>
      <circle class="cls-14" cx="850.83" cy="650.05" r="5.08"/>
      <path class="cls-14" d="M859.08,639.77c0,2.8-2.27,5.08-5.08,5.08-2.8,0-5.08-2.27-5.08-5.08,0-2.8,2.27-5.08,5.08-5.08s5.08,2.27,5.08,5.08Z"/>
    </g>
    <g>
      <path class="cls-14" d="M782.21,680.42c0,2.8-2.27,5.08-5.08,5.08-2.8,0-5.08-2.27-5.08-5.08,0-2.8,2.27-5.08,5.08-5.08,2.8,0,5.08,2.27,5.08,5.08Z"/>
      <circle class="cls-14" cx="773.56" cy="698.96" r="5.08"/>
      <circle class="cls-14" cx="781.48" cy="690.71" r="5.08"/>
      <circle class="cls-14" cx="763.46" cy="693.39" r="5.08"/>
      <circle class="cls-14" cx="766.63" cy="683.11" r="5.08"/>
    </g>
    <g>
      <path class="cls-14" d="M815.75,639.23c0,2.8-2.27,5.08-5.08,5.08-2.8,0-5.08-2.27-5.08-5.08,0-2.8,2.27-5.08,5.08-5.08s5.08,2.27,5.08,5.08Z"/>
      <circle class="cls-14" cx="807.1" cy="657.77" r="5.08"/>
      <path class="cls-14" d="M820.1,649.51c0,2.8-2.27,5.08-5.08,5.08-2.8,0-5.08-2.27-5.08-5.08,0-2.8,2.27-5.08,5.08-5.08,2.8,0,5.08,2.27,5.08,5.08Z"/>
      <path class="cls-14" d="M802.08,652.19c0,2.8-2.27,5.08-5.08,5.08-2.8,0-5.08-2.27-5.08-5.08,0-2.8,2.27-5.08,5.08-5.08s5.08,2.27,5.08,5.08Z"/>
      <circle class="cls-14" cx="800.17" cy="641.92" r="5.08"/>
    </g>
    <path class="cls-42" d="M841,290.04s-6.64,32.23-15.45,42.99c0,0,11.5,58.67,61.94,70.76,0,0,32.45-25.67,18.59-61.66,0,0-7.12-5.76-7.87-13.43,0,0-41.67-13.16-57.21-38.67Z"/>
    <path class="cls-13" d="M725.22,476.37s8.54-4.6,18.39,1.31"/>
    <path class="cls-42" d="M840.7,262.79s-4.04-29.87,11.96-46.73c9.77-10.3,31.55-10.91,53.05-11.02,0,0,45.56,3.82,30.92,60.37,0,0-2.8,5.57-1.61,10.37,0,0,2.68,9.21-3.88,27.3-8.75,24.1-21.11,24.25-21.11,24.25,0,0-1.67,6.9-15.73,6.05,0,0-12.54,1.57-24.54-7.17,0,0-31.69-18.18-28.76-36.18,0,0-13.64,6.86-18.3-15.01,0,0-4.86-37.81,18-12.23Z"/>
    <path class="cls-27" d="M897.41,252.08s-15.79-4.97-24.87,1.83c0,0,2.18-11.5,25.25-6.64,0,0,4.11,2.96-.38,4.8Z"/>
    <path class="cls-5" d="M913.02,278.54s8.07,14.32-8,14.66"/>
    <path class="cls-5" d="M824.83,266.69s5.8-12.33,13.94,8.89c0,0-7.58-9.68-9.66-2.06"/>
    <path class="cls-5" d="M867.16,258.09l5.27,16.28s9.13,5.73,22.05,3.37l7.81-14.81s-16.68-9.5-35.13-4.84Z"/>
    <path class="cls-53" d="M899.52,333.29s-1.57,.24-5.7-.07c0,0-19.58,1.82-37.86-16.85,0,0,5.09,6.88,16.39,13.84,0,0,13.63,7.72,28.03,5.11,0,0,.31,.22-.85-2.03Z"/>
    <path class="cls-16" d="M867.38,216.4s30.93,14.66,49.57,.6c0,0,6.27,11.12,22.28,25.27,0,0,2.35,8.51-5.44,27.71,0,0,5.09,15.79-5.01,35.69,0,0-8.26,17.69-18.75,21.66,0,0-1.56,2.2-3.21,3.57,0,0,4.4,6.29,9.42,6.05,0,0-3.26-6.49-.47-7.87,0,0,33.54-7.93,30.69-76.05,0,0,24.17-30.34-2.91-51.22-12.24-9.43-22.99-35.99-55.18-22.08,0,0-41.77-21.7-55.68,19.59,0,0-46.96,11.36-20.74,70.24,0,0-8.52,19.12,9.25,34.69,2.05,1.8,6.09,9.82,2.15,21.26-1.06,3.08,7.69-2.74,10.62-8.68,0,0,5.31-10.69,7.03-26.79,0,0-14.87,4.23-17.09-12.32,0,0-4.73-18.23,1.74-21.07,0,0,7.26-2.88,14.51,6.11,0,0,28.46-2.96,27.21-46.35Z"/>
    <path class="cls-27" d="M937.16,255.05c-.17-1.15-10.17-3.89-19.85-4.28,0,0-4.78,1.89-.82,4.82,0,0,18.1-1.68,19.38,4.36,0,0,1.72-2.07,1.29-4.9Z"/>
    <path class="cls-5" d="M908.05,262.55l5.27,16.28s8.08,4.33,21,1.97l6.49-16.49s-14.31-6.43-32.76-1.77Z"/>
    <path class="cls-5" d="M908.05,262.55s-3.22-3.51-5.75,.38"/>
    <line class="cls-5" x1="867.16" y1="258.09" x2="831.04" y2="255.07"/>
    <path class="cls-11" d="M877.13,235.47s14.12,1.9,20.78,3.58c6.67,1.68,26.2-2.97,26.2-2.97"/>
    <g>
      <path class="cls-29" d="M875.46,263.01s.01-.39,.31-.7c1-1.04,3.28-2.96,6.75-2.83,3.88,.15,5.88,3.88,6.56,5.21,.12,.23,.1,.43,.1,.43,0,0,0,.22-.13,.36-.65,.7-2.79,2.63-6.47,2.54-2.19-.05-5.22-1.34-7.01-4.39-.12-.21-.12-.48-.11-.62Z"/>
      <circle class="cls-53" cx="883.45" cy="264.01" r="4.02"/>
      <circle class="cls-29" cx="880.95" cy="263.09" r="1.1"/>
      <path class="cls-11" d="M889.33,264.7s-4.37-9.45-13.7-2.43"/>
    </g>
    <g>
      <path class="cls-29" d="M919.03,268.27s-.04-.36,.19-.7c.78-1.11,2.63-3.22,5.87-3.6,3.63-.42,6.03,2.77,6.85,3.9,.14,.2,.15,.38,.15,.38,0,0,.04,.2-.07,.36-.5,.74-2.22,2.84-5.65,3.29-2.04,.27-5.05-.5-7.15-3.08-.15-.18-.18-.42-.19-.56Z"/>
      <circle class="cls-53" cx="926.6" cy="268.05" r="3.77"/>
      <circle class="cls-29" cx="924.03" cy="267.63" r="1.06"/>
      <path class="cls-11" d="M932.02,268s-5.2-8.71-12.89-.26"/>
    </g>
    <path class="cls-21" d="M826.4,330.67s8.77,46.91,47.09,46.26c27.18-.46,30.08-10.16,31.13-35.84,0,0,33.23,8.39,47.42,23.54,14.2,15.14,35.96,84.23,31.23,127.76,0,0-2.84,23.66-33.12,42.59,0,0,4.09,43.02,3.09,67.14,0,0-10.12,38.34-61.23,38.34l-10-68.57-1.45,66.85s-107.19-5.67-149.92-26.32c0,0,7.55-53.57,1.87-58.93-1.64-1.55,47.84-18.18,44.83-27.97,0,0-28.67-8.36-56.12-28.23,0,0,2.25-160.82,105.18-166.61Z"/>
    <path class="cls-14" d="M784.79,524.72s15.76-46.57,8.73-91.96"/>
    <path class="cls-14" d="M950.15,534.98s.1-77.36-11.79-97.89"/>
    <circle class="cls-18" cx="870.47" cy="406" r="6.99"/>
    <circle class="cls-18" cx="872.35" cy="458.26" r="6.99"/>
    <circle class="cls-18" cx="871.87" cy="513.16" r="6.99"/>
    <path class="cls-7" d="M834.09,284.52s-4.91,7.45,.31,12.02c5.22,4.57,2.5-6.56,2.5-6.56"/>
    <path class="cls-42" d="M1054.45,471.88l5.1-7.18s.87-12.25,7.22-25.8c0,0,1.86-7.35-.54-11.51-2.4-4.16,2.47-6.68,2.47-6.68,0,0,7.88,.82,8.86,13.18l-.79,10.44s-.13,6.24,6.28,3.19c6.4-3.05,23.46-20.85,23.46-20.85,0,0,7.87-8.69,12.62-4.45,4.76,4.23-6.39,12.04-6.39,12.04l-12.03,11.09s-4.12,5.47,1.49,4.38l14.56-13.17s8.95-11.56,12.91-5.89c3.96,5.68-7.21,12.46-7.21,12.46l-13.73,14.28s.23,1.94,3.06-.55c2.83-2.49,12.02-11.6,12.02-11.6,0,0,4.62-6.5,7.95-2.04s-5.28,11.21-5.28,11.21l-15.27,13.79,12.17-7.82s5.07-3.64,7.06,.22c1.99,3.86-6.91,11.54-6.91,11.54,0,0-11.69,5.77-16.74,10.44-5.05,4.66-22.84,13.07-33.39,11.57l-8.41,4.25"/>
    <path class="cls-2" d="M1099.89,450.09s8.82,5.84,11.33,18.15"/>
    <path class="cls-2" d="M1076.51,446.4s5.23,8.92,3.08,18.46"/>
    <path class="cls-42" d="M725.81,501.17s-7.68,18.95-2.72,57.79c0,0,33.25,21.38,126.22,52.62l12.51-26.38-86.16-64.34"/>
    <path class="cls-42" d="M849.32,611.58s9.21,.99,15.8,8.38c0,0,15.48,12.75,28.32,8.71,0,0,24.65,2.02,42.37-16.78,0,0-1.85-8.26-14.53-1.95,0,0-15.82,7.11-26.97-4.43,0,0-2.44-6.57,5.92-3.3,8.36,3.26,22.2,7.18,23.17-.08,.97-7.27-13.84-9.31-13.84-9.31,0,0-12.23-3.99-20.57-8.2,0,0-15.71-4.9-27.15,.58"/>
    <path class="cls-12" d="M893.44,628.67s-6.51-2.48-9.04-5.6"/>
    <path class="cls-12" d="M925.41,620.01s-24.84,5.52-31.74-4.14"/>
    <path class="cls-12" d="M906.09,627.11s-12.62-1.18-16.17-6.51"/>
    <path class="cls-34" d="M880.96,301.49s12.93-4.82,18.72,.07c0,0,3.57-4.07,14.22,.31,0,0,1.12,17.11-14.75,17.05-18.13-.06-18.19-17.43-18.19-17.43Z"/>
    <path class="cls-31" d="M883.44,303.35s1.74,11.19,14.3,11.36c12.56,.18,13.9-11.13,13.9-11.13,0,0-20.49-2.31-28.2-.23Z"/>
    <path class="cls-29" d="M886.53,302.8s2.94,3.4,12.58,3.65c8.89,.24,11.47-3.03,11.47-3.03,0,0-13.07-1.9-24.05-.62Z"/>
  </g>
</svg>