<?xml version="1.0" encoding="UTF-8"?>
<svg xmlns="http://www.w3.org/2000/svg" xmlns:xlink="http://www.w3.org/1999/xlink" viewBox="0 0 1634.7 1036.73">
  <defs>
    <style>
      .cls-1, .cls-2, .cls-3, .cls-4, .cls-5, .cls-6, .cls-7, .cls-8, .cls-9, .cls-10, .cls-11, .cls-12, .cls-13 {
        fill: none;
      }

      .cls-14 {
        fill: #ce8d50;
        stroke: #cb8b2a;
        stroke-width: 5px;
      }

      .cls-14, .cls-2, .cls-3, .cls-15, .cls-16, .cls-4, .cls-5, .cls-17, .cls-18, .cls-19, .cls-20, .cls-6, .cls-7, .cls-8, .cls-9, .cls-10, .cls-11, .cls-12, .cls-13 {
        stroke-miterlimit: 10;
      }

      .cls-21 {
        clip-path: url(#clippath);
      }

      .cls-2 {
        stroke: #414042;
      }

      .cls-2, .cls-3 {
        stroke-width: .8px;
      }

      .cls-3, .cls-16, .cls-4, .cls-6, .cls-11, .cls-12 {
        stroke: #231f20;
      }

      .cls-22 {
        fill: #f7daa6;
      }

      .cls-23 {
        fill: #017d75;
      }

      .cls-24 {
        fill: #00a151;
      }

      .cls-25 {
        fill: #006838;
      }

      .cls-26 {
        fill: #00714f;
      }

      .cls-27 {
        fill: #ec6b8a;
      }

      .cls-28, .cls-15, .cls-19 {
        fill: #e6e7e8;
      }

      .cls-29 {
        fill: #f6ac1b;
      }

      .cls-30 {
        fill: #e96d42;
      }

      .cls-31, .cls-32 {
        fill: #fff;
      }

      .cls-33 {
        fill: #803435;
      }

      .cls-34 {
        fill: #016041;
      }

      .cls-35 {
        fill: #9ecb54;
      }

      .cls-36 {
        fill: #8b5e3c;
      }

      .cls-37, .cls-20 {
        fill: #9054a2;
      }

      .cls-38 {
        fill: #b6e4f6;
      }

      .cls-39 {
        fill: #8dd5e7;
      }

      .cls-40 {
        fill: #b19074;
      }

      .cls-41 {
        fill: #ae8578;
      }

      .cls-42 {
        fill: #a7a9ac;
      }

      .cls-43 {
        fill: #be9e7d;
      }

      .cls-44 {
        fill: #be8c8c;
      }

      .cls-45 {
        fill: #bfbfbf;
      }

      .cls-46 {
        fill: #d2d292;
      }

      .cls-47 {
        fill: #d1d3d4;
      }

      .cls-48 {
        fill: #e2c799;
      }

      .cls-49 {
        fill: #dcbf97;
      }

      .cls-50 {
        fill: #d4d5d6;
      }

      .cls-51, .cls-16 {
        fill: #231f20;
      }

      .cls-52 {
        fill: #414042;
      }

      .cls-53 {
        fill: #0e8e81;
      }

      .cls-54 {
        fill: #6ca442;
      }

      .cls-55 {
        fill: #288348;
      }

      .cls-56 {
        fill: #3c2415;
      }

      .cls-57 {
        fill: #26130f;
      }

      .cls-15 {
        stroke: #58595b;
        stroke-width: .2px;
      }

      .cls-16 {
        stroke-width: 2px;
      }

      .cls-4, .cls-5 {
        stroke-width: .7px;
      }

      .cls-5, .cls-13 {
        stroke: #754c29;
      }

      .cls-17 {
        fill: #754c29;
        stroke: #fff;
      }

      .cls-17, .cls-12, .cls-13 {
        stroke-width: .5px;
      }

      .cls-18 {
        fill: #00979c;
      }

      .cls-18, .cls-8 {
        stroke: #2e3192;
      }

      .cls-19, .cls-10 {
        stroke: #6d6e71;
      }

      .cls-20 {
        stroke: #662d91;
      }

      .cls-7 {
        stroke: #d1d3d4;
      }

      .cls-9 {
        stroke: #603913;
      }

      .cls-11 {
        stroke-width: .6px;
      }

      .cls-32 {
        opacity: .8;
      }
    </style>
    <clipPath id="clippath">
      <rect class="cls-1" x="295.81" y="36.53" width="401.13" height="636.28"/>
    </clipPath>
  </defs>
  <g id="fondo">
    <rect class="cls-39" x="295.86" y="36.95" width="1333.99" height="531.26"/>
    <rect class="cls-35" x="295.8" y="567.93" width="1333.97" height="122.01"/>
    <path class="cls-24" d="M1360.7,570.89s-42.09-44.97,7.27-48.07c0,0-27.66-65.84,30.9-62.53,0,0,110.98-69.01,133.19,21.46,0,0,70.29-47.24,93.02,3.77l4.84,84s-74.54,18.86-164.09,13.24c0,0-64.82-3.58-105.12-11.88Z"/>
    <path class="cls-24" d="M313.85,570.89s-42.09-44.97,7.27-48.07c0,0-27.66-65.84,30.9-62.53,0,0,110.98-69.01,133.19,21.46,0,0,70.29-47.24,93.02,3.77l4.84,84s-74.54,18.86-164.09,13.24c0,0-64.82-3.58-105.12-11.88Z"/>
    <g>
      <rect class="cls-29" x="492.56" y="276.66" width="975.35" height="268.5"/>
      <path class="cls-14" d="M1015.43,540.89v-183.27s43.06-30.04,93.14,0l-1.14,183.14-92,.14Z"/>
      <path class="cls-38" d="M861.95,477.34v-129.8s58.86-21.28,127.31,0l-1.55,129.7-125.76,.1Z"/>
      <path class="cls-38" d="M482.99,477.34v-129.8s42.23-21.28,91.34,0l-1.12,129.7-90.23,.1Z"/>
      <path class="cls-38" d="M1232.05,477.34v-129.8s58.86-21.28,127.31,0l-1.55,129.7-125.76,.1Z"/>
      <rect class="cls-30" x="470.1" y="277.78" width="29.3" height="290.68"/>
      <rect class="cls-30" x="797.12" y="277.78" width="29.3" height="290.68"/>
      <rect class="cls-30" x="1131.17" y="277.78" width="29.3" height="290.68"/>
      <rect class="cls-30" x="1465.22" y="277.78" width="29.3" height="290.68"/>
      <polygon class="cls-30" points="396.26 280.13 1567.19 280.13 1567.19 268.27 982.74 177.78 398.89 260.73 396.26 280.13"/>
      <polygon class="cls-14" points="398.89 260.73 361.78 249.18 994.64 160.43 1617.54 261.62 1567.19 268.27 982.74 177.78 398.89 260.73"/>
      <polygon class="cls-28" points="361.78 249.18 361.78 231.4 994.21 141.86 1622.91 243.66 1617.54 261.62 994.64 160.43 361.78 249.18"/>
      <rect class="cls-30" x="470.1" y="544" width="1024.42" height="24.46"/>
      <g>
        <line class="cls-2" x1="1222.31" y1="330.45" x2="1222.31" y2="478.7"/>
        <circle class="cls-52" cx="1222.35" cy="333.52" r="3.05"/>
        <circle class="cls-52" cx="1222.46" cy="481.75" r="3.05"/>
        <line class="cls-2" x1="1238.04" y1="330.45" x2="1238.04" y2="478.7"/>
        <circle class="cls-52" cx="1238.09" cy="333.52" r="3.05"/>
        <circle class="cls-52" cx="1238.2" cy="481.75" r="3.05"/>
        <line class="cls-2" x1="1255.12" y1="330.45" x2="1255.12" y2="478.7"/>
        <circle class="cls-52" cx="1255.17" cy="333.52" r="3.05"/>
        <circle class="cls-52" cx="1255.27" cy="481.75" r="3.05"/>
        <line class="cls-2" x1="1270.53" y1="330.45" x2="1270.53" y2="478.7"/>
        <circle class="cls-52" cx="1270.57" cy="333.52" r="3.05"/>
        <circle class="cls-52" cx="1270.68" cy="481.75" r="3.05"/>
        <line class="cls-2" x1="1286.27" y1="330.45" x2="1286.27" y2="478.7"/>
        <circle class="cls-52" cx="1286.31" cy="333.52" r="3.05"/>
        <circle class="cls-52" cx="1286.42" cy="481.75" r="3.05"/>
        <line class="cls-2" x1="1303.35" y1="330.45" x2="1303.35" y2="478.7"/>
        <circle class="cls-52" cx="1303.39" cy="333.52" r="3.05"/>
        <circle class="cls-52" cx="1303.5" cy="481.75" r="3.05"/>
        <line class="cls-2" x1="1319.08" y1="330.45" x2="1319.08" y2="478.7"/>
        <circle class="cls-52" cx="1319.13" cy="333.52" r="3.05"/>
        <circle class="cls-52" cx="1319.24" cy="481.75" r="3.05"/>
        <line class="cls-2" x1="1334.82" y1="330.45" x2="1334.82" y2="478.7"/>
        <circle class="cls-52" cx="1334.87" cy="333.52" r="3.05"/>
        <circle class="cls-52" cx="1334.98" cy="481.75" r="3.05"/>
        <line class="cls-2" x1="1351.9" y1="330.45" x2="1351.9" y2="478.7"/>
        <circle class="cls-52" cx="1351.95" cy="333.52" r="3.05"/>
        <circle class="cls-52" cx="1352.05" cy="481.75" r="3.05"/>
        <line class="cls-2" x1="1367.98" y1="330.45" x2="1367.98" y2="478.7"/>
        <circle class="cls-52" cx="1368.02" cy="333.52" r="3.05"/>
        <circle class="cls-52" cx="1368.13" cy="481.75" r="3.05"/>
      </g>
      <g>
        <line class="cls-2" x1="853.1" y1="330.45" x2="853.1" y2="478.7"/>
        <circle class="cls-52" cx="853.15" cy="333.52" r="3.05"/>
        <circle class="cls-52" cx="853.25" cy="481.75" r="3.05"/>
        <line class="cls-2" x1="868.84" y1="330.45" x2="868.84" y2="478.7"/>
        <circle class="cls-52" cx="868.89" cy="333.52" r="3.05"/>
        <circle class="cls-52" cx="868.99" cy="481.75" r="3.05"/>
        <line class="cls-2" x1="885.92" y1="330.45" x2="885.92" y2="478.7"/>
        <circle class="cls-52" cx="885.96" cy="333.52" r="3.05"/>
        <circle class="cls-52" cx="886.07" cy="481.75" r="3.05"/>
        <line class="cls-2" x1="901.32" y1="330.45" x2="901.32" y2="478.7"/>
        <circle class="cls-52" cx="901.37" cy="333.52" r="3.05"/>
        <circle class="cls-52" cx="901.48" cy="481.75" r="3.05"/>
        <line class="cls-2" x1="917.06" y1="330.45" x2="917.06" y2="478.7"/>
        <circle class="cls-52" cx="917.11" cy="333.52" r="3.05"/>
        <circle class="cls-52" cx="917.21" cy="481.75" r="3.05"/>
        <line class="cls-2" x1="934.14" y1="330.45" x2="934.14" y2="478.7"/>
        <circle class="cls-52" cx="934.19" cy="333.52" r="3.05"/>
        <circle class="cls-52" cx="934.29" cy="481.75" r="3.05"/>
        <line class="cls-2" x1="949.88" y1="330.45" x2="949.88" y2="478.7"/>
        <circle class="cls-52" cx="949.93" cy="333.52" r="3.05"/>
        <circle class="cls-52" cx="950.03" cy="481.75" r="3.05"/>
        <line class="cls-2" x1="965.62" y1="330.45" x2="965.62" y2="478.7"/>
        <circle class="cls-52" cx="965.66" cy="333.52" r="3.05"/>
        <circle class="cls-52" cx="965.77" cy="481.75" r="3.05"/>
        <line class="cls-2" x1="982.7" y1="330.45" x2="982.7" y2="478.7"/>
        <circle class="cls-52" cx="982.74" cy="333.52" r="3.05"/>
        <circle class="cls-52" cx="982.85" cy="481.75" r="3.05"/>
        <line class="cls-2" x1="998.77" y1="330.45" x2="998.77" y2="478.7"/>
        <circle class="cls-52" cx="998.82" cy="333.52" r="3.05"/>
        <circle class="cls-52" cx="998.92" cy="481.75" r="3.05"/>
      </g>
      <g>
        <line class="cls-2" x1="514.59" y1="330.45" x2="514.59" y2="478.7"/>
        <circle class="cls-52" cx="514.64" cy="333.52" r="3.05"/>
        <circle class="cls-52" cx="514.74" cy="481.75" r="3.05"/>
        <line class="cls-2" x1="530.33" y1="330.45" x2="530.33" y2="478.7"/>
        <circle class="cls-52" cx="530.38" cy="333.52" r="3.05"/>
        <circle class="cls-52" cx="530.48" cy="481.75" r="3.05"/>
        <line class="cls-2" x1="546.07" y1="330.45" x2="546.07" y2="478.7"/>
        <circle class="cls-52" cx="546.11" cy="333.52" r="3.05"/>
        <circle class="cls-52" cx="546.22" cy="481.75" r="3.05"/>
        <line class="cls-2" x1="563.15" y1="330.45" x2="563.15" y2="478.7"/>
        <circle class="cls-52" cx="563.19" cy="333.52" r="3.05"/>
        <circle class="cls-52" cx="563.3" cy="481.75" r="3.05"/>
        <line class="cls-2" x1="579.22" y1="330.45" x2="579.22" y2="478.7"/>
        <circle class="cls-52" cx="579.27" cy="333.52" r="3.05"/>
        <circle class="cls-52" cx="579.37" cy="481.75" r="3.05"/>
      </g>
    </g>
    <path class="cls-31" d="M652.55,87.8l-50.4-1s-11.56-3.67-10.98-10.48c1-11.74,10.48-10.98,10.48-10.98,0,0,.5-13.47,15.47-13.47,0,0,11.48-1,11.48,13.47,0,0,5.99-9.48,15.97-3.49,0,0,6.99,7.49,1,11.48,0,0,12.97-8.98,16.47,2.5,0,0,2.99,12.48-9.48,11.98"/>
    <path class="cls-32" d="M1609.71,76.33l-31.34-.62s-7.19-2.28-6.83-6.52c.62-7.3,6.52-6.83,6.52-6.83,0,0,.31-8.38,9.62-8.38,0,0,7.14-.62,7.14,8.38,0,0,3.72-5.9,9.93-2.17,0,0,4.34,4.65,.62,7.14,0,0,8.07-5.58,10.24,1.55,0,0,1.86,7.76-5.9,7.45"/>
    <path class="cls-32" d="M1440.19,90.09l-64.19-1.27s-14.72-4.67-13.98-13.35c1.27-14.96,13.35-13.98,13.35-13.98,0,0,.64-17.16,19.7-17.16,0,0,14.62-1.27,14.62,17.16,0,0,7.63-12.08,20.34-4.45,0,0,8.9,9.53,1.27,14.62,0,0,16.52-11.44,20.97,3.18,0,0,3.81,15.89-12.08,15.25"/>
    <rect class="cls-47" x="295.8" y="689.65" width="1333.97" height="347.08"/>
    <rect class="cls-42" x="297.23" y="737.73" width="1333.92" height="18.64"/>
    <g class="cls-21">
      <g>
        <path class="cls-36" d="M307.04,658s14.46-165.46,7.23-247.74l-74.38-109.8,15.27-7.23,68.41,94.67,4.13-90.33h15.5l-4.13,146.67,3.1,215.54s-16.53,8.05-35.13-1.79Z"/>
        <path class="cls-54" d="M66.87,284.01s-120.29,42.01-38.19,110.75c0,0,95.47,13.37,143.21-51.55,0,0,40.1,40.1,91.65,9.55,0,0,32.46,40.1,84.02,11.46,0,0,70.65,53.46,126.02,11.46,0,0,51.55,32.46,80.2,1.91,0,0,97.38,38.19,95.47-24.82-1.91-63.01-47.74-72.56-47.74-72.56,0,0,78.29-28.64,21-103.11-57.28-74.47-137.48-32.46-137.48-32.46L66.87,284.01Z"/>
        <path class="cls-35" d="M94.8,127.18s-56.9,43.11-51.73,100.01c5.17,56.9,36.21,103.46,131.05,67.25,0,0,68.98,77.6,217.27,20.69,0,0,115.53,50.01,148.3-27.59,32.76-77.6-27.59-65.53-27.59-65.53,0,0,79.32-198.3-94.84-167.27,0,0-22.42-37.94-98.29-17.24,0,0-10.35-13.8-37.94-3.45,0,0-32.76-81.05-93.12,6.9,0,0-98.29-17.24-93.12,86.22Z"/>
      </g>
    </g>
    <path class="cls-54" d="M413.03,591.43s176.52,15.58,254.4,1.48c0,0-1.48-3.71-8.16-5.93l11.13-3.71s-16.32-17.06-42.28-9.64l19.28-8.16s-11.87-19.28-40.79,2.97c0,0,5.93-17.06,14.09-22.99,0,0-29.67,3.71-38.57,17.8,0,0-2.23-22.99,18.54-31.89,0,0-28.18,1.48-36.34,17.06l-54.14-1.48s-11.87-20.77-27.44-18.54c0,0,17.8,9.64,17.06,28.93,0,0-20.77-17.06-30.41-11.87,0,0,14.09,16.32,10.38,25.22,0,0-26.7-20.03-40.79-3.71,0,0,18.54,2.23,18.54,11.13,0,0-31.89-11.87-44.5,13.35Z"/>
    <path class="cls-46" d="M772.56,581.9s176.52,15.58,254.4,1.48c0,0-1.48-3.71-8.16-5.93l11.13-3.71s-16.32-17.06-42.28-9.64l19.28-8.16s-11.87-19.28-40.79,2.97c0,0,5.93-17.06,14.09-22.99,0,0-29.67,3.71-38.57,17.8,0,0-2.23-22.99,18.54-31.89,0,0-28.18,1.48-36.34,17.06l-54.14-1.48s-11.87-20.77-27.44-18.54c0,0,17.8,9.64,17.06,28.93,0,0-20.77-17.06-30.41-11.87,0,0,14.09,16.32,10.38,25.22,0,0-26.7-20.03-40.79-3.71,0,0,18.54,2.23,18.54,11.13,0,0-31.89-11.87-44.5,13.35Z"/>
    <g>
      <path class="cls-53" d="M606.5,530.38s12.8,41.37-25.77,80.23c0,0-31.11-23.19-2.76-57.67,0,0,16.69-15.87,28.54-22.56Z"/>
      <path class="cls-26" d="M572.89,599.91s38.42-29.53,65.94-18.64c0,0,5.16,43.01-42.43,29.24,0,0-14.62-9.46-23.51-10.61Z"/>
      <path class="cls-23" d="M644.53,550.52s-43.3,.51-68.37,42.79c0,0,31.65,19.5,55.71-13.17,0,0,7.6-21.78,12.66-29.63Z"/>
      <path class="cls-26" d="M530.86,525.16s-26.38,61.97,35.59,66.57c0,0,20.86-43.25-35.59-66.57Z"/>
      <path class="cls-53" d="M492.82,538.65s-27,35.89,43.25,45.4l11.04,.61s-12.27-34.36-54.3-46.02Z"/>
      <path class="cls-23" d="M543.16,576.57s-80.07-4.6-80.99,12.27c-.92,16.87,47.24,13.5,47.24,13.5,0,0,26.08-3.99,42.33-19.33"/>
      <path class="cls-53" d="M591.62,584.9s-41.67-4.3-62.38-.54c0,0-30.11,29.58,2.96,40.6,0,0,17.21,6.45,33.88-24.47,0,0,11.02-13.44,25.54-15.59Z"/>
      <path class="cls-34" d="M591.62,584.9s7.14,4.91,6.71,16.17c0,0-21.88,5.52-33.78,1.49,0,0,7.39-15.56,27.07-17.66Z"/>
    </g>
    <g>
      <path class="cls-53" d="M948.33,524.93s12.8,41.37-25.77,80.23c0,0-31.11-23.19-2.76-57.67,0,0,16.69-15.87,28.54-22.56Z"/>
      <path class="cls-26" d="M914.71,594.47s38.42-29.53,65.94-18.64c0,0,5.16,43.01-42.43,29.24,0,0-14.62-9.46-23.51-10.61Z"/>
      <path class="cls-23" d="M986.35,545.08s-43.3,.51-68.37,42.79c0,0,31.65,19.5,55.71-13.17,0,0,7.6-21.78,12.66-29.63Z"/>
      <path class="cls-26" d="M872.68,519.71s-26.38,61.97,35.59,66.57c0,0,20.86-43.25-35.59-66.57Z"/>
      <path class="cls-53" d="M834.64,533.21s-27,35.89,43.25,45.4l11.04,.61s-12.27-34.36-54.3-46.02Z"/>
      <path class="cls-23" d="M884.99,571.12s-80.07-4.6-80.99,12.27c-.92,16.87,47.24,13.5,47.24,13.5,0,0,26.08-3.99,42.33-19.33"/>
      <path class="cls-53" d="M933.45,579.45s-41.67-4.3-62.38-.54c0,0-30.11,29.58,2.96,40.6,0,0,17.21,6.45,33.88-24.47,0,0,11.02-13.44,25.54-15.59Z"/>
      <path class="cls-34" d="M933.45,579.45s7.14,4.91,6.71,16.17c0,0-21.88,5.52-33.78,1.49,0,0,7.39-15.56,27.07-17.66Z"/>
    </g>
    <path class="cls-25" d="M1629.91,569.53s-447.77-19.41-477.29,15.79,43.14,51.09,76.06,73.79,106.72,32.92,199.81-7.95c93.09-40.87,201.17-26.54,201.17-26.54l.25-55.1Z"/>
    <path class="cls-55" d="M404.94,590.27s7.01,4.06,14.39,1.11c0,0-3.69-20.66,1.48-26.56,0,0-5.9,6.27-6.27,15.49,0,0-7.75-33.93,6.27-58.28,0,0-9.96,12.17-11.8,28.03,0,0-10.7-17.71-.74-39.84,0,0-11.8,19.18-7.38,50.53,0,0-2.21-27.66-12.17-29.88,0,0,9.96,14.75,10.7,40.21,0,0-1.11-8.85-6.27-11.8,0,0,15.86,24.71,11.8,30.98Z"/>
    <g>
      <path class="cls-36" d="M1275.8,615.84s11.16-127.63,5.58-191.1l-57.38-84.7,11.78-5.58,52.77,73.03,3.19-69.68h11.95l-3.19,113.14,2.39,166.26s-12.75,6.21-27.1-1.38Z"/>
      <path class="cls-54" d="M1090.54,327.35s-92.79,32.4-29.46,85.43c0,0,73.65,10.31,110.47-39.77,0,0,30.93,30.93,70.7,7.36,0,0,25.04,30.93,64.81,8.84,0,0,54.5,41.24,97.21,8.84,0,0,39.77,25.04,61.86,1.47,0,0,75.12,29.46,73.65-19.15-1.47-48.61-36.82-55.97-36.82-55.97,0,0,60.39-22.09,16.2-79.54-44.19-57.44-106.05-25.04-106.05-25.04l-322.57,107.52Z"/>
      <path class="cls-35" d="M1112.09,206.37s-43.9,33.25-39.91,77.15c3.99,43.9,27.93,79.81,101.09,51.88,0,0,53.21,59.86,167.6,15.96,0,0,89.12,38.57,114.39-21.28,25.27-59.86-21.28-50.55-21.28-50.55,0,0,61.19-152.97-73.16-129.03,0,0-17.29-29.26-75.82-13.3,0,0-7.98-10.64-29.26-2.66,0,0-25.27-62.52-71.83,5.32,0,0-75.82-13.3-71.83,66.51Z"/>
    </g>
    <path class="cls-54" d="M1323.81,581.9s176.52,15.58,254.4,1.48c0,0-1.48-3.71-8.16-5.93l11.13-3.71s-16.32-17.06-42.28-9.64l19.28-8.16s-11.87-19.28-40.79,2.97c0,0,5.93-17.06,14.09-22.99,0,0-29.67,3.71-38.57,17.8,0,0-2.23-22.99,18.54-31.89,0,0-28.18,1.48-36.34,17.06l-54.14-1.48s-11.87-20.77-27.44-18.54c0,0,17.8,9.64,17.06,28.93,0,0-20.77-17.06-30.41-11.87,0,0,14.09,16.32,10.38,25.22,0,0-26.7-20.03-40.79-3.71,0,0,18.54,2.23,18.54,11.13,0,0-31.89-11.87-44.5,13.35Z"/>
    <g>
      <path class="cls-53" d="M1525.2,528.48s12.8,41.37-25.77,80.23c0,0-31.11-23.19-2.76-57.67,0,0,16.69-15.87,28.54-22.56Z"/>
      <path class="cls-26" d="M1491.59,598.01s38.42-29.53,65.94-18.64c0,0,5.16,43.01-42.43,29.24,0,0-14.62-9.46-23.51-10.61Z"/>
      <path class="cls-23" d="M1563.23,548.62s-43.3,.51-68.37,42.79c0,0,31.65,19.5,55.71-13.17,0,0,7.6-21.78,12.66-29.63Z"/>
      <path class="cls-26" d="M1449.56,523.26s-26.38,61.97,35.59,66.57c0,0,20.86-43.25-35.59-66.57Z"/>
      <path class="cls-53" d="M1411.52,536.75s-27,35.89,43.25,45.4l11.04,.61s-12.27-34.36-54.3-46.02Z"/>
      <path class="cls-23" d="M1461.86,574.67s-80.07-4.6-80.99,12.27c-.92,16.87,47.24,13.5,47.24,13.5,0,0,26.08-3.99,42.33-19.33"/>
      <path class="cls-53" d="M1510.32,583s-41.67-4.3-62.38-.54c0,0-30.11,29.58,2.96,40.6,0,0,17.21,6.45,33.88-24.47,0,0,11.02-13.44,25.54-15.59Z"/>
      <path class="cls-34" d="M1510.32,583s7.14,4.91,6.71,16.17c0,0-21.88,5.52-33.78,1.49,0,0,7.39-15.56,27.07-17.66Z"/>
    </g>
  </g>
  <g id="Layer_1" data-name="Layer 1">
    <g>
      <path class="cls-17" d="M669.96,900.17s-6.3,11.02-2.1,25.72c0,0,11.55,15.22,51.43,11.02,0,0,31.49,18.89,68.23,8.4,0,0,30.44-7.35,6.3-27.29,0,0-31.49-24.14-57.73-28.87,0,0-20.99,20.99-66.13,11.02Z"/>
      <path class="cls-17" d="M637.51,912.11s-6.43,11.25-2.14,26.25c0,0,11.79,15.54,52.51,11.25,0,0,32.15,19.29,69.65,8.57,0,0,31.08-7.5,6.43-27.86,0,0-32.15-24.65-58.94-29.47,0,0-21.43,21.43-67.51,11.25Z"/>
      <path class="cls-40" d="M615.89,529.96s88.47,50.94,185.82,5.28l-16.55,189.43s.54,34.64-5.95,67.18c-6.49,32.54-14.6,108.11-14.6,108.11,0,0-18.39,10.5-46.51,3.15,0,0-32.1,34.67-85.64,7.38,0,0-13.3-68.06-5.19-104.8,0,0,4.24-28.13,2.08-55.42,0,0-34.55-175.7-13.46-220.31Z"/>
      <path class="cls-9" d="M720.58,903.11s10.3-158.11,.51-229.52c0,0,12.83-10.58,18.2-33.41"/>
      <path class="cls-43" d="M749.77,260.92s-5.79,20.61-18.65,35.52c0,0-10.64,67.23,34.19,79.49,0,0,39.99-26.2,33-66.85l-48.54-48.17Z"/>
      <path class="cls-8" d="M815.38,405.86c1.17,29.45-15.19,62.61-15.19,62.61,0,0,4.04,24.39,3.16,36.62"/>
      <path class="cls-43" d="M910.54,436.53l13.86-19.28,19.7-11.11s3.78,1.49,2.29,3.55-5.69,8.26-5.69,8.26l20.91-8.03,21.99-4.11s6.07,1.59,2.52,5.6-17.65,7.43-17.65,7.43l-11.58,5.56,33.05-8.31s5.37,4.06-.56,6.82c-5.93,2.76-18.81,5.79-18.81,5.79l-10.32,6.63,27.45-9.25s6.21,.75,3.18,5.14c-3.03,4.39-22.97,9.99-22.97,9.99l17.04-2.06s1.31,2.52-1.59,4.34c-2.89,1.82-19.89,7.05-19.89,7.05,0,0-15.31,10.69-29.22,9.53-13.91-1.17-19.75,2.76-19.75,2.76l-3.97-26.28Z"/>
      <polygon class="cls-31" points="960.25 369.67 978.6 401.23 963.24 367.29 960.25 369.67"/>
      <polygon class="cls-31" points="983.38 362.66 990.75 398.42 986.97 361.35 983.38 362.66"/>
      <polygon class="cls-31" points="1016.26 364.45 1004 398.84 1020.01 365.2 1016.26 364.45"/>
      <polygon class="cls-31" points="1040.2 386.94 1010.39 408.01 1042.84 389.7 1040.2 386.94"/>
      <polygon class="cls-31" points="1052.45 413.13 1016.37 418.67 1053.58 416.78 1052.45 413.13"/>
      <polygon class="cls-31" points="1048.67 437.67 1012.74 431.23 1048.55 441.49 1048.67 437.67"/>
      <path class="cls-43" d="M827.13,336.96s18.7,46.75,25.22,111.59l56.27-12.62,12.96,26.66s-70.17,52.7-102.39,51.73c0,0-10.27,1.77-21.08-8.94"/>
      <path class="cls-43" d="M890.45,447.68l14.81-19.22,19.7-11.11s3.78,1.49,2.29,3.55-5.69,8.26-5.69,8.26l20.91-8.03,21.99-4.11s6.07,1.59,2.52,5.6-17.65,7.43-17.65,7.43l-11.58,5.56,33.05-8.31s5.37,4.06-.56,6.82c-5.93,2.76-18.81,5.79-18.81,5.79l-10.32,6.63,27.45-9.25s6.21,.75,3.18,5.14c-3.03,4.39-22.97,9.99-22.97,9.99l17.04-2.06s1.31,2.52-1.59,4.34-19.89,7.05-19.89,7.05c0,0-15.31,10.69-29.22,9.53-13.91-1.17-20.9,3.33-20.9,3.33l-3.77-26.92Z"/>
      <path class="cls-5" d="M925.37,417.22s3.78,1.49,2.29,3.55c-1.49,2.05-5.69,8.26-5.69,8.26l20.91-8.03,21.99-4.11s6.07,1.59,2.52,5.6c-3.55,4.02-17.65,7.43-17.65,7.43l-11.58,5.56,33.05-8.31s5.37,4.06-.56,6.82c-5.93,2.76-18.81,5.79-18.81,5.79l-10.32,6.63,27.45-9.25s6.21,.75,3.18,5.14c-3.03,4.39-22.97,9.99-22.97,9.99l17.04-2.06s.59,3.32-1.99,4.47-10.41,4.1-10.41,4.1"/>
      <path class="cls-18" d="M810.34,513.36c1.07,6.32,2.35-86.55-2.57-129.87"/>
      <g>
        <polygon class="cls-45" points="729.41 287.57 736.89 288.16 733.65 295.99 729.41 287.57"/>
        <path class="cls-28" d="M629.28,431.12l-24.39,123.82s25.84,29.34,111.06,34.92c0,0,58.85-1.16,84.52-17.46,0,0,9.19-9.21,27.79-95.69,0,0,1.38,2.38,9.8,1.01l14.54-76.89s5.31-26.52-16.48-50.44c0,0-16.23-19.27-29.45-28.64l-33.28,14.12-11.63,37.99-3.74-35.69s.64-9.99-36.52-44.28c0,0-32.21,3.88-57.34,19.86,0,0-20.67,16.8-28.79,37.65,0,0-21.68,53.74-6.09,79.72Z"/>
        <path class="cls-50" d="M721.5,293.89s32.06,30.29,36.52,44.28l1.82-12.41s-23.56-23.4-30.43-38.2l-7.91,6.32Z"/>
        <path class="cls-50" d="M795.2,310.45s14.01,2.81,11.47,11.31l-33.28,14.12,.76-7.41s14.91-3.3,26.14-11.64c0,0-5.72-2.14-5.08-6.38Z"/>
        <path class="cls-10" d="M761.76,373.87s.62,44.02-40.71,214.54"/>
        <ellipse class="cls-47" cx="752.56" cy="376.75" rx="2.36" ry="2.28" transform="translate(214.69 1024.04) rotate(-76.87)"/>
        <ellipse class="cls-47" cx="749.17" cy="416.7" rx="2.36" ry="2.28" transform="translate(173.17 1051.61) rotate(-76.87)"/>
        <ellipse class="cls-47" cx="742.19" cy="459.18" rx="2.36" ry="2.28" transform="translate(126.41 1077.64) rotate(-76.87)"/>
        <ellipse class="cls-47" cx="734.06" cy="497.52" rx="2.36" ry="2.28" transform="translate(82.79 1099.36) rotate(-76.87)"/>
        <ellipse class="cls-47" cx="723.99" cy="545.75" rx="2.36" ry="2.28" transform="translate(28.03 1126.83) rotate(-76.87)"/>
        <path class="cls-47" d="M690.89,384.39l-6.11,34.8s15.25,23.49,40.08,9.35l8.76-37.54s-15.93,5.01-42.74-6.61Z"/>
        <path class="cls-47" d="M782.51,405.76l-6.11,34.8s15.25,23.49,40.08,9.35l8.76-37.54s-15.93,5.01-42.74-6.61Z"/>
        <path class="cls-47" d="M664.24,503.11l-6.92,39.44s17.28,26.63,45.43,10.6l9.92-42.54s-18.05,5.67-48.43-7.5Z"/>
        <path class="cls-47" d="M753.8,516.36l-6.92,39.44s17.28,26.63,45.43,10.6l9.92-42.54s-18.05,5.67-48.43-7.5Z"/>
        <path class="cls-7" d="M708.02,296.18s27.45,63.25-39.76,288.09"/>
        <path class="cls-7" d="M713.81,295.49s27.78,63.95-39.43,288.78"/>
        <path class="cls-7" d="M719.52,294.39s28.19,66.12-39.02,290.96"/>
        <path class="cls-7" d="M702.12,297.36s29.03,59.91-38.18,284.75"/>
        <path class="cls-7" d="M805.82,321.69s32.59,41.69-44.37,263.38"/>
        <path class="cls-7" d="M811.88,327.02s32.78,35.53-44.18,257.22"/>
        <path class="cls-7" d="M818.1,332.19s33.22,28.7-43.74,250.38"/>
        <path class="cls-7" d="M799.88,322.62s31.87,41.61-45.09,263.29"/>
      </g>
      <path class="cls-43" d="M701.42,475.08c18.95,22.04,31.15,27.73,31.15,27.73,46.55,9.03,162.11-24.3,162.11-24.3l-4.65-36.96s-99.76-5.74-129.56,1.89c0,0-10.77-9.64-19.85-14.59"/>
      <path class="cls-5" d="M811.46,496.46s78.33-17.23,91.25-26.63l7.44,.39"/>
      <path class="cls-19" d="M689.32,341.51s40.16,49.47,59.15,84.46c0,0-34.3,49.32-48.29,53.66,0,0-43.19-27.62-59.85-43.75"/>
      <path class="cls-43" d="M854.78,211.4s4.92,16.26-7.9,47.27c0,0-3.83,7.2-4.37,11.59-.54,4.39-4.13,10.52-5.78,15.15-9.35,26.2-24.16,29.66-24.16,29.66,0,0-6.55,7.33-21.62,2.55-15.06-4.78-28.12-14.5-31.44-22.61-3.32-8.11-11.35-22.76-9.48-32.93,0,0-9.58-.9-9.69-12.82,0,0-4.22-19.86,6.9-21.01,11.12-1.15,12.32,14.11,12.32,14.11,0,0-2.19-44,25.02-52.09,0,0,38.46-13.07,70.19,21.12Z"/>
      <path class="cls-41" d="M791.13,279.67s8.24,.65,15.99,6.61c0,0,8.15,1.49,14.35,5.71,0,0-5.6,11.89-18.11,10.04-12.51-1.85-15.27-15.32-12.23-22.36Z"/>
      <path class="cls-33" d="M792.62,281.26s-4.4,10.75,9.63,16.33c12.74,5.07,16.66-4.5,16.66-4.5,0,0-14.61-5.06-26.29-11.83Z"/>
      <path class="cls-28" d="M812.46,238.46s-10.83-8.53-23.39-8.34c0,0,8.61-6.18,25.18,4.83,0,0,2.06,3.51-1.78,3.52Z"/>
      <path class="cls-28" d="M850.31,251.96c-8.3-4.81-13.63-3.87-13.63-3.87-2.79-2.65,1.12-3.78,1.12-3.78,6.11,1.05,10.51,2.79,13.67,4.68,0,0-.71,3.24-1.16,2.98Z"/>
      <path class="cls-31" d="M794.29,282.11s1.81,5.34,12.87,9.13c0,0,6.24,4.04,10.46,1.59,0,0-14.11-5.26-23.33-10.73Z"/>
      <path class="cls-6" d="M744.34,235.19s5.71-3.98,7.51,3.11,1.29,9.01,1.29,9.01c0,0-2.24-11.01-7.3-4.9"/>
      <path class="cls-15" d="M743.35,228.89s9.54-3.98,12.4,5.28c2.86,9.27,.76,12.32,.76,12.32l5.01,1.64s-7.28-31.71,12.95-36.5c0,0,3.08-20.99,19.05-18.7,15.97,2.29,28.29-10.03,62.27,22.16,0,0,11.35-21.17-27.07-41.05,0,0-25.87-13.75-38.63-2.56,0,0-18.78-4.46-32.07,17.84-13.29,22.29-14.66,39.56-14.66,39.56Z"/>
      <path class="cls-57" d="M794.71,318.62s-17.19-4.71-26.04-12.62c0,0-7.53-4.84-12.37-17.6,0,0,5.37,18.48,20.67,25.97,.08,.04,.14,.06,.22,.1,.71,.34,9.34,4.58,15.73,6.21,0,0,2-1.55,1.78-2.06Z"/>
      <path class="cls-3" d="M808.66,214.71s11.07,5.81,16.06,9.2c4.99,3.39,22.49,5.42,22.49,5.42"/>
      <path class="cls-28" d="M804.38,274.95s-9.64,2.67-16.15,1.38c0,0,.16,2.77,2.9,3.35,0,0,11.15,1.79,15.99,6.61,0,0,8.13,1.2,14.35,5.71,0,0,.59,.84,2.24,1.12,0,0-5.18-8.07-3.85-10.8,0,0-7.3,.73-10.19-5.55,0,0-2.22,.21-5.29-1.81Z"/>
      <path class="cls-6" d="M822.3,257.2l.99,17.9s-.33,9.52-7.31,6.99c-5.79-2.1-5.44-4.03-5.44-4.03"/>
      <path class="cls-3" d="M783.97,279.61s1.37-6.92,5.85-7.07c4.48-.15,9.19-7.12,9.19-7.12"/>
      <g>
        <path class="cls-31" d="M793.76,241.39s.12-.35,.48-.55c1.19-.67,3.79-1.8,6.9-.73,3.49,1.19,4.29,5.13,4.55,6.52,.04,.24-.03,.41-.03,.41,0,0-.05,.2-.22,.29-.78,.46-3.25,1.63-6.57,.55-1.98-.64-4.38-2.64-5.17-5.9-.06-.23,.02-.47,.06-.59Z"/>
        <circle class="cls-57" cx="800.75" cy="244.47" r="3.81"/>
        <circle class="cls-31" cx="798.72" cy="242.96" r="1.05"/>
        <path class="cls-4" d="M805.9,246.7s-1.4-9.78-11.79-5.94"/>
      </g>
      <g>
        <path class="cls-31" d="M833.37,258.31s.06-.34,.36-.58c1.01-.79,3.26-2.21,6.31-1.67,3.41,.61,4.72,4.15,5.16,5.41,.08,.22,.03,.39,.03,.39,0,0-.02,.19-.16,.31-.66,.54-2.79,1.98-6.03,1.45-1.93-.31-4.45-1.83-5.65-4.74-.08-.2-.05-.44-.02-.56Z"/>
        <circle class="cls-57" cx="840.31" cy="260.17" r="3.57"/>
        <circle class="cls-31" cx="838.09" cy="259.09" r="1"/>
        <path class="cls-4" d="M845.25,261.6s-2.35-9.33-11.64-3.75"/>
      </g>
      <g>
        <path class="cls-48" d="M748.59,195.1s13.8-26.41,19.96-32.46c6.16-6.05,62.28-8.41,77.27,6.55,0,0,2.23,6.31,.96,8.61"/>
        <path class="cls-22" d="M744.51,225.44s-40.49-3.56-41.04-8.75c-1.27-12.08,27.19-17.76,27.19-17.76,0,0,68.35-15.73,93.18-22.28,18.8-4.96,61.38-10.83,66.54,9.51s-32.66,35.81-32.66,35.81c0,0-66.59-20.42-111.81-4.27,0,0-1.91,4.22-1.41,7.74Z"/>
        <path class="cls-12" d="M857.73,221.97s35.87-19.53,18.22-34.33c-14.19-11.91-43.18-4.86-73.35,6.9-30.17,11.76-73.24,15.43-73.24,15.43,0,0-18.63,7.67,15.16,15.48"/>
      </g>
    </g>
    <g>
      <path class="cls-49" d="M1090.23,759.81c-15.57,.49-29.05-18.42-29.05-18.42l-1.31-1.6,3.65-10.65,1.61,.88s10.83,3.58,22.24,10.52l5.46-4.14"/>
      <path class="cls-49" d="M1208.7,877.44s11.6,12.61,.07,33.53c-7.97,14.46-7.05-5.47-7.05-5.47l-.31-9.91,7.28-18.15Z"/>
      <path class="cls-49" d="M1077.44,929.64l5.07-2.16,6.12-6.86,.93-4.45,14.46,2.22,.74,3.52,.94,1.59s-4.28,17.69-25.97,13.61c0,0-11.98-.87-2.28-7.48Z"/>
      <path class="cls-31" d="M1093.69,789.72l-2.92,9.18s-12.99,52.74-9.04,62.87c3.96,10.14,4.54,54.27,4.54,54.27,0,0,7.66,11.12,21.26,2.22,0,0,13.35-33.16,8.83-52.36l5.26-30.7s18.79,30.9,28.18,34.36c0,0,21.63,18.42,51.6,26.02,0,0,9.95-10.2,7.23-17.86,0,0-26.2-25.71-38.32-25.46,0,0-.41-51.42-13.76-63.78"/>
      <path class="cls-27" d="M1208.7,877.44s8.94-1.99,12.87,2.23c0,0,6.48,5.2-2.57,21.92,0,0-1.62,28.95-14.32,25.28,0,0-8.02-1.32-2.95-21.37,0,0,4.56,11.74,8.17-3.79,0,0,6-16.38-1.2-24.27Z"/>
      <path class="cls-27" d="M1105.7,923.5s5.74,7.15,3.68,12.54c0,0-1.8,8.11-20.8,7.37,0,0-26.69,11.33-29.01-1.69,0,0-2.36-7.78,17.87-12.09,0,0-8.52,9.28,7.01,5.66,0,0,17.35-1.85,21.24-11.79Z"/>
      <path class="cls-49" d="M1138.96,685.96s-1.19,10.8,1.41,19.2c0,0-10.02,13.24-25.83,15.95,0,0-21.19,5.75-11.35-6.58,0,0,5.43-9.16,5.09-11.8,0,0,26.45-5.38,30.69-16.77Z"/>
      <path class="cls-37" d="M1105.18,711.08s9.15,1.11,14.84-2.84c1.02-2.09,17.45-10.2,19.69-6.77,0,0,14.2,10.71,25.36,36.6,0,0,1.92,2.96,1.92,7.28l-19.41,17.69,10.87,25.84s-52.62,25.55-67.58,6.59c0,0-9.19-61.61,14.31-84.37Z"/>
      <path class="cls-49" d="M1145.84,749.5l2.49,6.51-9.13,27.98-5.32,.61-6.69,4.26c-.91,3.95,3.19,3.5,3.19,3.5-.91,4.71,3.5,3.95,3.5,3.95,0,4.41,3.65,2.13,3.65,2.13,.91,1.98,3.19,2.13,3.19,2.13,8.52-1.98,9.84-12.63,9.84-12.63,0,0,17.15-26.19,17.15-31.53,0,0-2.02-8.49-3.6-10.22"/>
      <path class="cls-49" d="M1088.02,742.98l-24.49-13.84-5.17-5.93-7.76-2.89s-3.04-1.52-2.43,3.8c0,0-2.74,1.83-1.06,5.02,0,0-2.43,1.67,0,3.95,0,0-1.06,5.32,2.59,6.24s10.19,.46,10.19,.46"/>
      <path class="cls-13" d="M1056.59,723.34s-4.19-1.79-5.31,1.35c-1.12,3.14-2.32,5.61-2.32,5.61,0,0,2.02,3.21,4.78-2.99,0,0-.97,8.6,6.28,8"/>
      <path class="cls-13" d="M1048.67,737.76s4.49,1.94,5.68-.6c1.2-2.54-6.58-3.66-6.58-3.66,0,0,5.76,1.94,6.35-.15s-1.79-2.92-1.79-2.92"/>
      <line class="cls-13" x1="1048.67" y1="724.23" x2="1050.54" y2="724.98"/>
      <line class="cls-13" x1="1047.7" y1="729.32" x2="1049.04" y2="729.69"/>
      <path class="cls-20" d="M1126.65,707.5c-11.78,10.55-2.46,24.7-2.46,24.7l19.92,17.73s4.29-1.38,22.89-4.61"/>
      <path class="cls-49" d="M1144.94,669.51s5.83-8.37,10.75-5.12c4.92,3.25,.17,13.78,.17,13.78,0,0-6.44,8.64-12.79,4.12,0,0-8.32,17.34-32.71,18.64,0,0-10.26,1.2-18.05-9.34-7.51-10.16-3.28-26.93-3.28-26.93,0,0-1.16-2.92-.61-13.37,.55-10.45,4.18-22.53,17.85-26.3,13.67-3.77,22.12-5.12,34.44,5.4,12.32,10.53,4.23,39.14,4.23,39.14Z"/>
      <path class="cls-44" d="M1112.07,682.67s-3.5-1.19-7.99-.51c0,0-3.51-.47-7.09,.13,0,0-.76,4.79,5.13,6.51,5.89,1.72,9.87-2.42,9.95-6.13Z"/>
      <path class="cls-33" d="M1111.49,682.89s-.24,5.63-7.55,5.24c-6.64-.35-6.43-5.36-6.43-5.36,0,0,7.46,.73,13.98,.11Z"/>
      <path class="cls-51" d="M1116.81,654.06s5.86-1.23,10.52,2.21c0,0,2.77-.92-.8-2.76-3.57-1.84-6.22-3.05-9.85-1.46,0,0-1.6,1.22,.13,2.02Z"/>
      <path class="cls-51" d="M1097.34,653.28s-3.55-2.2-8.55,.73c0,0-1.86-1.15,.12-2.24,2.92-1.62,4.94-1.75,8.77-.48,0,0,1.46,1.38-.34,1.99Z"/>
      <path class="cls-31" d="M1110.49,682.94s-1.99,2.56-7.76,1.98c0,0-3.58,0-4.97-1.98,0,0,7.44,.55,12.73,0Z"/>
      <path class="cls-57" d="M1108.46,700.84s1.4,.97,13.53-1.94c0,0,3.2-.55,9.65-4.41,0,0-4.74,4.12-13.79,7.06,0,0-4.77,1.45-9.58,1.18,0,0,.02-.77,.19-1.89Z"/>
      <path class="cls-12" d="M1154.2,671.84s-2.15-3.66-4.95-.19c-2.81,3.47-3.01,4.66-3.01,4.66,0,0,4.05-5.53,5.29-.86"/>
      <path class="cls-12" d="M1100.52,668.14s-4.91,6.53,2.99,7.75"/>
      <g>
        <path class="cls-31" d="M1123.44,663.34s.02-.24-.14-.45c-.53-.71-1.76-2.06-3.89-2.25-2.37-.21-3.88,1.9-4.4,2.65-.09,.13-.09,.25-.09,.25,0,0-.02,.13,.05,.23,.34,.47,1.49,1.82,3.74,2.05,1.34,.14,3.28-.41,4.61-2.12,.09-.12,.11-.28,.12-.37Z"/>
        <circle class="cls-57" cx="1118.51" cy="663.32" r="2.47"/>
        <circle class="cls-31" cx="1120.1" cy="662.96" r=".68"/>
        <path class="cls-11" d="M1114.88,663.29s3.4-5.41,8.53-.41"/>
      </g>
      <g>
        <path class="cls-31" d="M1098.41,662.47s.06-.22-.06-.43c-.38-.72-1.33-2.14-3.25-2.61-2.15-.53-3.83,1.19-4.41,1.81-.1,.11-.12,.22-.12,.22,0,0-.04,.12,.01,.22,.24,.48,1.11,1.88,3.14,2.41,1.21,.32,3.07,.09,4.52-1.3,.1-.1,.14-.24,.16-.32Z"/>
        <circle class="cls-57" cx="1093.89" cy="661.75" r="2.28"/>
        <circle class="cls-31" cx="1095.46" cy="661.7" r=".64"/>
        <path class="cls-11" d="M1090.64,661.3s3.79-4.83,7.76,.84"/>
      </g>
      <path class="cls-56" d="M1153.97,638.42s7.67,11.73,2.59,26.74c0,0-5.92-4.13-11.42,6.28,0,0-10.2-9.35-10.73-36.71,0,0-24.49,5.51-37.34-1.56,0,0-7.21,5.27-7.84,18.44l-1.12,7.75c-2.71-23.35,7.72-33.51,7.72-33.51,18.33-18.29,40.36-8.64,44.92-4.62,0,0,8.73-11.03,20.94-.9,0,0,6.67,4.37,4.86,10.34,0,0,12.26-4.96,13.63,9.56,0,0,9.58,3.73,3.57,14.64,0,0,5.69,7.42-2.69,12.82,0,0-9.43,6.56-13.07-2.46,0,0-8.31,4.17-7.35-4.09,0,0-8.84,.47-8.88-7.36s2.21-15.37,2.21-15.37Z"/>
    </g>
    <g>
      <circle class="cls-31" cx="952.04" cy="935.15" r="45.6"/>
      <polygon class="cls-51" points="955.73 907.39 938.31 915.84 940.96 935.02 960.02 938.42 969.15 921.35 955.73 907.39"/>
      <path class="cls-51" d="M913.59,959.65l3.31-16.57,15.87,5.93,3.84,16.39-7.32,9.94s-9.59-5.58-15.69-15.69Z"/>
      <path class="cls-51" d="M980.9,970.46l2.11-15.07-16.94-.11-9.43,13.95,5.77,10.3s9.18-1.79,18.48-9.07Z"/>
      <path class="cls-51" d="M925.62,898.97l2.71,12.3-13.46,13.91-7.04-4.24s3.14-14.65,17.79-21.97Z"/>
      <path class="cls-51" d="M987.87,908.91l-2.62,14.12,6.75,15.82,6.85-1.7s-.52-19.88-10.99-28.25Z"/>
      <line class="cls-16" x1="940.96" y1="935.02" x2="932.77" y2="949.01"/>
      <line class="cls-16" x1="960.02" y1="938.42" x2="966.07" y2="955.28"/>
      <line class="cls-16" x1="983.01" y1="955.39" x2="992.01" y2="938.85"/>
      <line class="cls-16" x1="956.64" y1="969.23" x2="936.61" y2="965.4"/>
      <line class="cls-16" x1="916.9" y1="943.08" x2="914.87" y2="925.18"/>
      <line class="cls-16" x1="928.34" y1="911.26" x2="938.31" y2="915.84"/>
      <path class="cls-16" d="M955.73,907.39l.23-11.91-9.77-4.19s6.45-2.62,20.93,2.09l-9.42,2.27"/>
      <line class="cls-16" x1="969.15" y1="921.35" x2="985.26" y2="923.03"/>
    </g>
  </g>
</svg>