<?xml version="1.0" encoding="UTF-8"?>
<svg id="Layer_1" data-name="Layer 1" xmlns="http://www.w3.org/2000/svg" viewBox="0 0 1333.84 1000.21">
  <defs>
    <style>
      .cls-1 {
        fill: #f7daa6;
      }

      .cls-2 {
        fill: #efaf9e;
      }

      .cls-3 {
        fill: #eae1d3;
      }

      .cls-4 {
        fill: #e6e7e8;
      }

      .cls-5 {
        fill: #f6ac1b;
      }

      .cls-6 {
        fill: #fff;
      }

      .cls-7 {
        fill: #fbc5b3;
      }

      .cls-8 {
        fill: #803435;
      }

      .cls-9 {
        fill: #939598;
      }

      .cls-10 {
        fill: #8bcda9;
      }

      .cls-11 {
        fill: #ae8578;
      }

      .cls-12 {
        fill: #be9e7d;
      }

      .cls-13 {
        fill: #bfbfbf;
      }

      .cls-14 {
        fill: #caa88a;
      }

      .cls-15 {
        fill: #c8eaf6;
      }

      .cls-16 {
        fill: #d1d3d4;
      }

      .cls-17 {
        fill: #e2c799;
      }

      .cls-18 {
        fill: #c49a6c;
      }

      .cls-19 {
        fill: #d4d5d6;
      }

      .cls-20 {
        fill: #134a7e;
      }

      .cls-21 {
        fill: #231f20;
      }

      .cls-22 {
        fill: #9b755d;
      }

      .cls-23 {
        fill: #26130f;
      }

      .cls-24, .cls-25 {
        stroke-width: 2px;
      }

      .cls-24, .cls-25, .cls-26, .cls-27, .cls-28, .cls-29, .cls-30, .cls-31, .cls-32 {
        fill: none;
        stroke-miterlimit: 10;
      }

      .cls-24, .cls-31 {
        stroke: #d1d3d4;
      }

      .cls-25 {
        stroke: #f7941d;
      }

      .cls-26 {
        stroke: #231f20;
      }

      .cls-27 {
        stroke: #2e3192;
      }

      .cls-28, .cls-32 {
        stroke: #603913;
      }

      .cls-29 {
        stroke: #6d6e71;
      }

      .cls-30 {
        stroke: #fff;
      }

      .cls-30, .cls-31 {
        stroke-width: 7px;
      }

      .cls-32 {
        stroke-width: .5px;
      }
    </style>
  </defs>
  <g>
    <rect class="cls-10" x=".07" y=".05" width="1333.77" height="1000.15"/>
    <g>
      <rect class="cls-18" x="706.05" y="110.6" width="200.58" height="233.24"/>
      <rect class="cls-3" x="723.42" y="126.01" width="169.49" height="203.23"/>
      <g>
        <path class="cls-2" d="M781.51,198.38s-25.48-42.74,1.23-52.19c0,0,34.52-3.7,11.51,51.37l-4.11,7.81-8.63-6.99Z"/>
        <path class="cls-2" d="M789.57,198.37s17.2-46.69,41.35-31.86c0,0,24.58,24.51-32.7,41.25l-8.65,1.72v-11.1Z"/>
        <path class="cls-2" d="M798.78,206.73s42.45-25.96,52.2,.65c0,0,4.09,34.47-51.23,12.08l-7.85-4.02,6.89-8.71Z"/>
        <path class="cls-2" d="M803.56,213.98s46.5,17.69,31.43,41.68c0,0-24.77,24.33-40.9-33.13l-1.62-8.67,11.1,.12Z"/>
        <path class="cls-2" d="M789.77,223.32s31.96,38.13,7.1,51.72c0,0-33.49,9.15-19.55-48.87l2.81-8.36,9.63,5.52Z"/>
        <path class="cls-2" d="M789.05,229.79s-17.5,46.57-41.55,31.59c0,0-24.42-24.67,32.97-41.04l8.67-1.66-.08,11.1Z"/>
        <path class="cls-2" d="M777.32,225.59s-45.07,21.08-51.8-6.44c0,0-.23-34.71,52.26-6.32l7.36,4.87-7.81,7.89Z"/>
        <path class="cls-2" d="M776.31,209.94s-48.7-10.19-37.57-36.24c0,0,20.65-27.91,45.59,26.31l2.96,8.31-10.98,1.62Z"/>
        <circle class="cls-5" cx="788.87" cy="214.24" r="15.12"/>
      </g>
      <g>
        <path class="cls-7" d="M839.98,229.73s-19.42-32.58,.94-39.78c0,0,26.31-2.82,8.77,39.15l-3.13,5.95-6.58-5.33Z"/>
        <path class="cls-7" d="M846.13,229.73s13.11-35.59,31.52-24.29c0,0,18.74,18.68-24.92,31.44l-6.6,1.31v-8.46Z"/>
        <path class="cls-7" d="M853.15,236.1s32.36-19.79,39.79,.49c0,0,3.11,26.28-39.05,9.21l-5.99-3.07,5.25-6.64Z"/>
        <path class="cls-7" d="M856.79,241.63s35.45,13.49,23.96,31.77c0,0-18.88,18.54-31.18-25.25l-1.24-6.61,8.46,.09Z"/>
        <path class="cls-7" d="M846.28,248.75s24.37,29.06,5.41,39.42c0,0-25.53,6.98-14.9-37.26l2.14-6.37,7.34,4.21Z"/>
        <path class="cls-7" d="M845.73,253.68s-13.34,35.5-31.68,24.08c0,0-18.62-18.8,25.13-31.28l6.61-1.26-.06,8.46Z"/>
        <path class="cls-7" d="M836.79,250.48s-34.35,16.07-39.49-4.91c0,0-.18-26.46,39.83-4.82l5.61,3.71-5.96,6.01Z"/>
        <path class="cls-7" d="M836.02,238.55s-37.12-7.77-28.64-27.63c0,0,15.74-21.27,34.75,20.06l2.26,6.33-8.37,1.24Z"/>
        <circle class="cls-5" cx="845.59" cy="241.83" r="11.53"/>
      </g>
    </g>
    <g>
      <rect class="cls-15" y=".09" width="592.43" height="607.07"/>
      <path class="cls-5" d="M662.47,.44l1.41,663.96s-28.49,24.42-73.27,9.5v-31.21s-40.71,10.85-63.77,0v25.78s-42.06,16.28-55.63,1.36l28.49-478.97L489.39,0"/>
      <line class="cls-25" x1="526.85" y1="642.69" x2="527.74" y2="384.65"/>
      <line class="cls-25" x1="590.62" y1="642.69" x2="595.42" y2="307.3"/>
      <line class="cls-25" x1="559.15" y1=".88" x2="558.13" y2="177.46"/>
      <line class="cls-25" x1="602.43" y1=".88" x2="602.33" y2="236.85"/>
      <line class="cls-30" x1="232.38" y1=".21" x2="232.38" y2="605.74"/>
      <line class="cls-31" x1="239.95" y1=".22" x2="239.95" y2="603.57"/>
      <line class="cls-30" y1="607.16" x2="473.43" y2="607.16"/>
    </g>
  </g>
  <g>
    <path class="cls-14" d="M639.45,549.15s15.73,16.65,17.58,21.28c0,0,180.41-53.66,201.69-58.29v96.22s-147.1,78.64-214.64,85.12c0,0-50.88,8.33-74.94-49.03l-4.63-50.88"/>
    <path class="cls-14" d="M336.72,230.71s1.14,35.24-16.83,69.67c0,0-4.49,125.76,91.33,135.49,0,0,61.78-39.5,52.1-106.22-1.08-7.44-10.61-15.36-13.44-23.45l-113.16-75.5Z"/>
    <path class="cls-22" d="M188.07,999.89c-11.1-94.42-15.98-192.2,4.03-234.51,0,0,172.43,99.28,362.15,10.29l-19.52,223.45"/>
    <polygon class="cls-13" points="311.35 290.19 325.64 288.03 322.98 304.13 311.35 290.19"/>
    <path class="cls-4" d="M299.27,305.51s-86.02,32.43-126.18,73.41c0,0-27.93,20.08-34.04,62.73,0,0-17.46,71.94-27.06,158.93,0,0,48.88,32.62,112.61,31.79l-31.43,238.39s39.28,61.9,232.2,64.41c0,0,79.3,.94,120.33-40.88,0,0,36.83-122.1,33.89-292.5,0,0,52.06-47.33,67.27-53.57l-53.75-102.8s-21.19-54.48-54.05-84.06c0,0-38.88-29.06-67.79-40.83l-56.27,41.05-5.18,76.37-22.64-65.33s-3.17-19.03-87.9-67.1Z"/>
    <path class="cls-19" d="M299.27,305.51s73.41,42.8,87.9,67.1l-2.01-24.07s-54.43-33.59-73.81-58.35l-12.08,15.32Z"/>
    <path class="cls-19" d="M444.79,304.32s27.51-.87,26.47,16.21l-56.27,41.05-1.81-14.23s26.53-12.71,43.94-33.28c0,0-11.67-1.51-12.33-9.75Z"/>
    <path class="cls-29" d="M409.81,437.94s18.48,159.23,15.55,497.23"/>
    <ellipse class="cls-16" cx="393.8" cy="447.38" rx="4.39" ry="4.56"/>
    <ellipse class="cls-16" cx="404.92" cy="523.81" rx="4.39" ry="4.56"/>
    <ellipse class="cls-16" cx="410.42" cy="606.56" rx="4.39" ry="4.56"/>
    <ellipse class="cls-16" cx="411.95" cy="682.05" rx="4.39" ry="4.56"/>
    <ellipse class="cls-16" cx="414.17" cy="776.95" rx="4.39" ry="4.56"/>
    <ellipse class="cls-16" cx="415.24" cy="878.69" rx="4.39" ry="4.56"/>
    <path class="cls-29" d="M224.59,632.37s19.64-38.06,21.66-101.08"/>
    <path class="cls-14" d="M493.5,82.12s19.32,27.65,14.24,94.07c0,0-2.8,15.95-1.1,24.57,1.7,8.62-1.31,22.39-1.57,32.15-1.5,55.21-27.3,70.85-27.3,70.85,0,0-7.84,17.87-39.22,18.14-31.37,.27-62.01-10.04-73.27-23.29-11.26-13.25-35.44-35.96-38.2-56.3,0,0-18.63,4.2-26.18-18.22,0,0-20.21-34.87,.07-43.9,20.28-9.03,31.95,19.03,31.95,19.03,0,0-31.26-81.69,15.11-113.71,0,0,64.52-48.37,145.47-3.41Z"/>
    <path class="cls-11" d="M415.47,250.19s15.95-3.85,34.25,2.62c0,0,16.31-2.21,30.6,1.92,0,0-3.25,25.9-27.99,30.11-24.75,4.22-38.27-19.5-36.85-34.65Z"/>
    <path class="cls-8" d="M419.26,252.28s-1.68,22.99,28.23,24.87c27.16,1.71,28.66-18.75,28.66-18.75,0,0-30.68-.54-56.89-6.12Z"/>
    <path class="cls-16" d="M430.83,156.34s-26.68-6.08-49.06,4.97c0,0,10.17-18.43,49.26-12.8,0,0,6.69,4.54-.2,7.83Z"/>
    <path class="cls-16" d="M509.51,163.5c-17.9-6.49-28-2.78-28-2.78-6.38-4.19,.86-7.78,.86-7.78,12.31-.09,21.51,1.76,28.36,4.34,0,0-.24,6.58-1.22,6.22Z"/>
    <path class="cls-6" d="M422.95,252.84s6.7,8.96,29.92,9.3c0,0,14.27,3.77,20.73-3.44,0,0-29.87-1.23-50.65-5.86Z"/>
    <path class="cls-26" d="M299.75,195.1s8.32-11.03,16.09,1.24c7.77,12.27,7.99,16.21,7.99,16.21,0,0-11.02-19.4-16.79-4.75"/>
    <path class="cls-16" d="M294,183.82s15.55-13.4,26.65,2.33c11.1,15.73,9.02,22.79,9.02,22.79h10.46s-33.29-55.35,1.94-76.85c0,0-7.12-41.5,24.42-47.03,31.54-5.52,47.2-36.37,131.17,3.43,0,0,8.36-46.95-76.38-60.77,0,0-57.29-10.01-74.47,18.97,0,0-38.19,3.17-49.52,53.43-11.33,50.26-3.28,83.7-3.28,83.7Z"/>
    <path class="cls-23" d="M443.47,321.25s-32.56,1.93-54.13-7.52c0,0-17.19-4.49-34.19-25.59,0,0,21.52,31.56,55.02,36.26,.17,.02,.31,.03,.48,.05,1.54,.2,20.65,2.56,33.82-.85,0,0-.27-1.53-1-2.35Z"/>
    <path class="cls-26" d="M410.21,128.57s24.47,4.14,35.98,7.47c11.51,3.33,45.79-3.63,45.79-3.63"/>
    <path class="cls-16" d="M437.56,233.11s-16.55,10.97-29.63,12.56c0,0,2.01,5.14,7.54,4.52,0,0,22.15-3.49,34.25,2.62,0,0,16.08-2.74,30.6,1.92,0,0,1.64,1.23,4.91,.74,0,0-14.75-12.04-13.91-18,0,0-13.33,5.87-22.65-4.2,0,0-4.06,1.76-11.11-.16Z"/>
    <path class="cls-26" d="M460.46,188.58l12.91,33.18s5.25,18.17-9.48,17.69c-12.22-.4-12.75-4.25-12.75-4.25"/>
    <path class="cls-26" d="M398.79,262.27s-2.23-19.65,9.83-24.72c8.21-3.45,12.95-19.11,12.95-19.11"/>
    <g>
      <path class="cls-6" d="M397.72,175.5s.01-.72,.56-1.31c1.82-1.94,6-5.55,12.41-5.39,7.18,.18,10.97,7.03,12.25,9.47,.22,.42,.19,.79,.19,.79,0,0,.01,.4-.23,.67-1.18,1.3-5.1,4.92-11.9,4.85-4.05-.04-9.68-2.36-13.06-7.95-.24-.39-.24-.88-.22-1.14Z"/>
      <circle class="cls-23" cx="412.51" cy="177.15" r="7.43"/>
      <circle class="cls-6" cx="408.06" cy="173.99" r="2.04"/>
      <path class="cls-26" d="M423.39,178.3s-8.3-17.37-25.38-4.17"/>
    </g>
    <g>
      <path class="cls-6" d="M481.25,183.88s-.09-.67,.34-1.3c1.42-2.07,4.78-6.02,10.77-6.79,6.71-.86,11.2,4.97,12.75,7.06,.27,.36,.29,.7,.29,.7,0,0,.07,.37-.12,.66-.91,1.38-4.04,5.3-10.37,6.21-3.77,.54-9.34-.81-13.28-5.52-.27-.33-.35-.78-.37-1.03Z"/>
      <circle class="cls-23" cx="495.23" cy="183.28" r="6.96"/>
      <circle class="cls-6" cx="490.76" cy="180.75" r="1.95"/>
      <path class="cls-26" d="M505.24,183.07s-9.81-15.98-23.84-.19"/>
    </g>
    <path class="cls-14" d="M230.97,998.89c-5.83-8.78-11.45-22.48-6.36-38.99,0,0,9.62-10.49,11.55,6.99,1.12,10.2,1.37,23.37,5.08,32.23l24.09-.38c1.88-11.93-4.79-30.11-4.79-30.11l-2.57-38.46s-1.28-32.05-25.02-39.63l-13.81-213.99,6.34-44.39s-44.91-.55-101.97-24.63c0,0-6.26,28.95-6.26,37.04,0,30.49,5.68,40.8,5.68,40.8l47.14,188.27s7.7,29.72,1.28,50.11c-6.42,20.4,1.92,41.96,1.92,41.96,0,0,5.66,15.97,20.94,33.58"/>
    <g>
      <path class="cls-17" d="M291.86,104.05s20.46-53.64,30.89-66.6c10.43-12.96,117.26-30.11,149.32-4.86,0,0,5.68,11.57,3.78,16.26"/>
      <path class="cls-1" d="M290.89,163.01s-78.27,2.31-80.48-7.51c-5.15-22.83,48.03-40.1,48.03-40.1,0,0,127.23-45.49,173.27-63.61,34.86-13.72,115-34.53,129.45,3.22,14.45,37.76-54.44,75.88-54.44,75.88,0,0-132-24.09-214.88,16.99,0,0-2.71,8.51-.95,15.13Z"/>
      <path class="cls-26" d="M506.73,130.89s64.23-45.43,27.14-69.79c-29.83-19.59-83.72,.41-138.8,29.71-55.08,29.3-136.67,46-136.67,46,0,0-33.92,18.87,32.49,26.2"/>
    </g>
    <path class="cls-16" d="M281.44,488.69l3.78,67.97s38.89,37.41,79.3,0v-74.26s-27.69,16.36-83.07,6.29Z"/>
    <path class="cls-16" d="M462.69,488.69l3.78,67.97s38.89,37.41,79.3,0v-74.26s-27.69,16.36-83.07,6.29Z"/>
    <path class="cls-16" d="M278.92,783.27l4.28,77.03s44.07,42.39,89.87,0v-84.16s-31.38,18.54-94.15,7.13Z"/>
    <path class="cls-16" d="M455.39,783.27l4.28,77.03s44.07,42.39,89.87,0v-84.16s-31.38,18.54-94.15,7.13Z"/>
    <path class="cls-24" d="M274.98,315.71s77.65,159.38,49.96,610.61"/>
    <path class="cls-24" d="M285.54,311.87s76.6,165.11,48.91,616.35"/>
    <path class="cls-24" d="M295.78,307.32s76.77,170.32,49.08,621.56"/>
    <path class="cls-24" d="M264.43,320.5s78.07,153.31,50.38,604.55"/>
    <path class="cls-24" d="M469.64,320.77s71.45,153.5,24.08,603.1"/>
    <path class="cls-24" d="M483.33,328.12s67.46,142.81,20.09,592.4"/>
    <path class="cls-24" d="M497.27,335.09s65.23,130.15,17.86,579.75"/>
    <path class="cls-24" d="M458.88,325.1s71.5,152.51,24.13,602.11"/>
    <path class="cls-26" d="M657.02,570.43s-27.76,16.65-28.68,37.01"/>
  </g>
  <g>
    <path class="cls-9" d="M877.75,999.03l-5.16-158.78s94.21,53.06,279.33,1.25c0,0,23.87,69.29,7.55,157.7"/>
    <path class="cls-12" d="M1048.15,368.21s-9.94,31.5,6.12,62.28c0,0,4.01,112.41-81.63,121.11,0,0-59.75-43.78-34.56-115.9l110.08-67.49Z"/>
    <path class="cls-12" d="M910.13,224.61s-21.31,30.74-16.2,80.17c0,0,4.55,12.5,2.27,26.7,0,0-7.39,25.57,1.7,46.02,9.09,20.45,22.73,41.47,22.73,41.47,0,0,11.36,11.36,26.7,8.52,0,0,23.29,7.95,43.75-5.11,20.45-13.07,55.68-53.97,55.68-53.97,0,0,18.75,5.11,24.43-14.2,5.68-19.32,14.2-34.09,2.27-45.45-11.93-11.36-27.92,15.83-27.92,15.83,0,0-1.52-5.82,.75-20.03,0,0,2.24-40.27-14.57-73.7,0,0-52.71-22.88-121.58-6.25Z"/>
    <path class="cls-21" d="M963.22,298.54s26.09-8.02,49,1.82c0,0-11.28-18.22-49.71-9.84,0,0-6.35,5.1,.71,8.02Z"/>
    <path class="cls-21" d="M893.85,296.44c18.22-2.75,27.07,2.82,27.07,2.82,6.86-2.8,.69-7.69,.69-7.69-11.65-2.5-20.73-2.53-27.72-1.38,0,0-1.04,6.4-.04,6.25Z"/>
    <path class="cls-23" d="M948.85,428.99s28.46,4.34,40.43-5.67c0,0,13.93-7.06,30.22-25.31,0,0-19.83,32.66-46.12,35.72,0,0-12.36,2.16-24.53-4.73,0,0,.49,2.83,0,0Z"/>
    <path class="cls-26" d="M1071.94,328.92s-11.27-17.46-19.27,16.28c0,0,9.48-16.18,14.19-5.08"/>
    <g>
      <path class="cls-6" d="M989.66,314.27s.03-.63-.42-1.17c-1.48-1.8-4.93-5.18-10.55-5.39-6.29-.23-9.97,5.54-11.23,7.61-.22,.36-.21,.68-.21,.68,0,0-.03,.35,.17,.6,.96,1.2,4.19,4.58,10.14,4.89,3.54,.19,8.59-1.53,11.85-6.23,.23-.33,.26-.75,.26-.98Z"/>
      <circle class="cls-23" cx="976.65" cy="314.9" r="6.51"/>
      <circle class="cls-6" cx="981.2" cy="316.63" r="1.78"/>
      <path class="cls-26" d="M967.08,315.31s8.21-14.72,22.41-2.25"/>
    </g>
    <g>
      <path class="cls-6" d="M919.39,316.87s.12-.58-.22-1.15c-1.12-1.88-3.85-5.53-9.04-6.52-5.81-1.12-10.07,3.73-11.53,5.47-.25,.3-.29,.6-.29,.6,0,0-.08,.32,.07,.58,.72,1.26,3.24,4.86,8.73,6,3.27,.68,8.21-.2,11.91-4.1,.26-.27,.35-.66,.38-.88Z"/>
      <circle class="cls-23" cx="907.19" cy="315.58" r="6.1"/>
      <circle class="cls-6" cx="911.14" cy="316.91" r="1.71"/>
      <path class="cls-26" d="M898.46,314.84s9.46-13.43,20.84,1.15"/>
    </g>
    <path class="cls-21" d="M896.79,229.93c-.13,36.19-3.65,73.67-3.65,73.67,2.96-57.01,15.73-59.42,15.73-59.42,41.7-26.95,112.42,2.91,112.42,2.91,22.88,28.98,22.24,85.42,22.24,85.42,17.55-35.86,31.2-22.85,31.2-22.85,20.48-92.2-39.88-101.15-39.88-101.15,0,0-23.41-26.49-48.38-15.62,0,0-12.49-15.3-34.23-3.22,0,0-23.36-10.07-34.23,9.26,0,0-21.08-7.3-21.21,30.99Z"/>
    <path class="cls-26" d="M930.5,335.56s-8.27,4.13-6.43,14.01c2.37,12.75,18.02,11.91,18.02,11.91"/>
    <path class="cls-20" d="M1054.62,430.82s44.69,8.32,95.44,48.78c49.85,39.74,19.57,177.37,17.12,188.08-.07,.3-.34,.48-.65,.47-1.19-.05-4.89,1.55-15.05,15.77,0,0-1.99,97.77,.76,157.76,0,0-155.46,56.16-279.21-1.25,0,0-16.48-133.19-17.63-197.61,0,0-41.33-3.91-52.84-30.37l26.76-83.34s-2.29-51.99,111.63-83.34c0,0-21.61,21.07,18.66,30.28,0,0,70.86,15.75,95.02-45.21Z"/>
    <path class="cls-11" d="M922.97,389.09s3.91-16.13,21.99-13.93c0,0,10.51-10.02,39.34,5.38,0,0-13.93,15.88-30.54,18.33-16.61,2.44-30.79-9.77-30.79-9.77Z"/>
    <path class="cls-8" d="M925.66,389.09s11-10.51,21.5-10.75,33.23,2.44,33.23,2.44c0,0-21.75,9.04-28.83,12.46-7.09,3.42-25.9-4.15-25.9-4.15Z"/>
    <path class="cls-6" d="M931.77,385.18s20.77-3.18,32.74-6.11c0,0-7.33-2.2-17.35-.73s-15.39,6.84-15.39,6.84Z"/>
    <path class="cls-12" d="M805.96,616.44s-28.47,79.43-26.72,135.85c1.75,56.38,48.31,59.68,48.31,59.68,0,0,66.86,3.22,210.88-14.78l-9.44-68.48-169.31-13.08-4.29-72.82s-35.23-3.63-49.44-26.37Z"/>
    <path class="cls-12" d="M1036.23,802.39s14.1,0,18.43,2.71c4.34,2.71,28.19,4.34,35.24,2.17l34.88,6.72s7.99-3.8,2.28-8.37-30.43-9.51-30.43-9.51l44.89,2.28s13.7-3.42,6.09-12.55c0,0,15.98-3.42,2.66-12.17-13.31-8.75-28.91-10.65-28.91-10.65l9.51-5.71s16.36,10.27,22.83,5.33c6.47-4.95-15.22-15.22-15.22-15.22l-28.53-3.8-73.71,58.78Z"/>
    <path class="cls-12" d="M1164.8,668.59s-57.38,10.84-98.3-40.82l-17.44,61.05-88.47-163.44-40.44,12.22s15.41,221.85,92.48,257.26c77.07,35.41,116.67-45.19,116.67-45.19,0,0,27.86-47.75,35.5-81.08Z"/>
    <path class="cls-12" d="M920.15,537.59l-2.11-8-32.43-31.59s-4.63-10.53,2.11-17.27c0,0-4.21-16.43,5.05-18.53,0,0-2.11-11.37,18.95-12.64l2.53-22.75s10.6-14.85,29.06-5.05c0,0,2.53,8.42-9.69,10.11l1.68,12.64,8,6.74s-3.37-28.64,8-34.12c0,0,5.48-7.16,12.22-7.16s2.11,19.8,2.11,19.8l-2.53,8s.84,21.48,5.05,27.8c4.21,6.32-2.11,38.33-2.11,38.33l-6.32,16.43,.84,5.05-40.44,12.22Z"/>
    <path class="cls-32" d="M927.67,418.33s9.85-3.48,15.64,3.43c5.79,6.91-9.69,10.11-9.69,10.11"/>
    <path class="cls-32" d="M969.78,481.58l.34-9.8c-5.41-9.8-7.01-34.02-7.01-34.02,10.56-26.25,.42-27.8,.42-27.8-21.11,2.04-20.34,25.05-20.34,25.05,0,0,.1,9.8-3.88,12.8"/>
    <path class="cls-32" d="M939.04,449.15s9.46,3.04,12.84,14.19"/>
    <path class="cls-27" d="M855.4,642.81s-5.61-54.47-4.67-80.07"/>
    <path class="cls-27" d="M1070.28,610.23s6.76-34.36,24.36-68.37"/>
    <path class="cls-28" d="M1147.6,785.83s-17.22-9.14-33.64-8.45"/>
    <path class="cls-28" d="M958.29,723.3s29.56,62.52,64.8,74.46"/>
    <path class="cls-28" d="M1129.3,749.66s-47.67,62.3-78.93,53.78"/>
  </g>
</svg>