<?xml version="1.0" encoding="UTF-8"?>
<svg xmlns="http://www.w3.org/2000/svg" xmlns:xlink="http://www.w3.org/1999/xlink" viewBox="0 0 1334.2 1000.63">
  <defs>
    <style>
      .cls-1 {
        fill: url(#linear-gradient);
      }

      .cls-2 {
        stroke-width: .8px;
      }

      .cls-2, .cls-3, .cls-4, .cls-5, .cls-6, .cls-7, .cls-8, .cls-9, .cls-10, .cls-11, .cls-12, .cls-13, .cls-14 {
        stroke-miterlimit: 10;
      }

      .cls-2, .cls-3, .cls-4, .cls-5, .cls-7, .cls-13 {
        stroke: #231f20;
      }

      .cls-2, .cls-4, .cls-5, .cls-7, .cls-8, .cls-9, .cls-10, .cls-11, .cls-12, .cls-13, .cls-14 {
        fill: none;
      }

      .cls-15 {
        fill: #f6ac1b;
      }

      .cls-16 {
        fill: #f05380;
      }

      .cls-17 {
        fill: #fff;
      }

      .cls-18 {
        fill: #f16225;
      }

      .cls-19 {
        fill: #803435;
      }

      .cls-20 {
        fill: #b6302e;
      }

      .cls-21 {
        fill: #c2b59b;
      }

      .cls-22 {
        fill: #be9e7d;
      }

      .cls-23 {
        fill: #be8c8c;
      }

      .cls-24, .cls-6 {
        fill: #aa856a;
      }

      .cls-25 {
        fill: #d28b29;
      }

      .cls-26 {
        fill: #dc3b28;
      }

      .cls-27 {
        fill: #d5ebe3;
      }

      .cls-28 {
        fill: #134a7e;
      }

      .cls-29, .cls-3 {
        fill: #231f20;
      }

      .cls-30 {
        fill: #1fa8df;
      }

      .cls-31 {
        fill: #092f44;
      }

      .cls-32 {
        fill: #414042;
      }

      .cls-33 {
        fill: #0f3e5d;
      }

      .cls-34 {
        fill: #9b7a64;
      }

      .cls-35 {
        fill: #808285;
      }

      .cls-36 {
        fill: #3c2415;
      }

      .cls-37 {
        fill: #59bede;
      }

      .cls-38 {
        fill: #4a833f;
      }

      .cls-39 {
        fill: #26130f;
      }

      .cls-3 {
        stroke-width: 2px;
      }

      .cls-4 {
        stroke-width: .7px;
      }

      .cls-5 {
        stroke-linecap: round;
      }

      .cls-5, .cls-13, .cls-14 {
        stroke-width: .5px;
      }

      .cls-6 {
        stroke: #603913;
      }

      .cls-40 {
        fill: url(#linear-gradient-2);
      }

      .cls-8 {
        stroke: #c3832b;
      }

      .cls-9 {
        stroke: #fff;
      }

      .cls-10 {
        stroke: #2b3990;
      }

      .cls-11 {
        stroke: #594a42;
      }

      .cls-12 {
        stroke: #be1e2d;
      }

      .cls-14 {
        stroke: #754c29;
      }
    </style>
    <linearGradient id="linear-gradient" x1="386.6" y1="160.52" x2="386.6" y2="83.65" gradientTransform="translate(86.48 -109.9) rotate(17.05)" gradientUnits="userSpaceOnUse">
      <stop offset="0" stop-color="#be9e7d"/>
      <stop offset=".7" stop-color="#231f20"/>
    </linearGradient>
    <linearGradient id="linear-gradient-2" x1="391.62" y1="177.71" x2="416.18" y2="182.04" xlink:href="#linear-gradient"/>
  </defs>
  <g id="fondo">
    <rect class="cls-27" x="1.05" width="1332.04" height="937.53"/>
    <path class="cls-38" d="M1333.9,1000.57l-1333.9,.06v-98.31s3.36-12.72,9.18-13.88l-1.16,22.87s6.2-4.26,7.37-9.3c0,0,2.71,3.88,2.33,10.85,0,0,25.97-20.16,37.21-20.16,0,0-13.18,12.4-13.18,21.71h12.02s-3.1-19.77-8.14-22.87c0,0,12.02,6.2,20.16,20.54,0,0,6.98-7.75,3.88-20.16,0,0,7.37,4.65,9.3,17.06,0,0,8.53-18.22,14.34-18.99,0,0-3.1,16.67-1.94,24.03,0,0,7.75-5.81,7.75-11.63,0,0,3.1,5.81,1.94,12.4,0,0,23.65-18.99,38.38-20.54,0,0-14.34,13.18-15.51,20.93h7.75s-5.04-18.99-7.37-21.32c0,0,16.67,8.53,20.16,19.38,0,0,4.65-17.44,1.55-21.71,0,0,9.69,7.75,10.47,19.77l12.79-22.48-.78,25.2s6.98-6.59,6.98-12.02c0,0,3.88,3.1,2.71,13.57,0,0,30.62-21.71,37.21-21.32,0,0-13.95,11.24-14.34,21.32,0,0,19.38-12.02,23.26-9.69,0,0-6.59,5.04-6.59,12.4H500.93s-1.07-19.84-10.02-19.5c0,0,12.05-3.79,21,11.71,0,0,5.51-8.61,2.41-19.63,0,0,8.95,6.2,9.64,18.25,0,0,8.95-18.94,14.46-18.94,0,0-3.1,14.12-1.38,24.45,0,0,7.92-9.64,7.92-12.4,0,0,2.07,5.85,2.07,13.08,0,0,21.35-20.32,37.19-20.66,0,0-14.46,10.67-14.81,22.04,0,0,17.91-10.67,22.73-10.67,0,0-5.17,6.2-4.82,12.05h182.11s7.79-11.91-4.13-20.62c0,0,17.42,5.04,23.84,17.88,0,0,8.25-11.92,2.75-19.71,0,0,9.63,7.79,10.09,19.26,0,0,8.71-19.71,14.21-22.46,0,0-4.58,13.3-2.29,23.84,0,0,7.79-6.42,7.79-11.92,0,0,2.75,4.58,2.75,13.75,0,0,18.8-16.05,36.68-19.71,0,0-14.21,8.25-14.21,20.63,0,0,15.13-11.92,22.92-11.92,0,0-6.42,4.13-5.04,11h204.18s4.5-10.57,.64-17.01l14.15,17.05s0-22.83-6.11-29.27c0,0,16.72,8.68,19.3,17.37,0,0,8.36-12.86,3.22-19.3,0,0,8.68,6.43,10.29,16.4,0,0,8.36-15.44,12.54-17.69l-1.61,23.48s8.36-6.11,8.36-10.93c0,0,2.57,6.11,2.25,11.9,0,0,25.41-21.55,36.99-20.9,0,0-14.15,14.79-13.51,20.9,0,0,15.12-10.61,21.87-9.33,0,0-6.43,10.29-6.11,15.76h14.47s6.11-17.37-4.18-27.98c0,0,14.79,6.75,17.69,18.65,0,0,7.4-8.04,4.18-18.98,0,0,10.93,10.29,11.26,18.01l8.68-17.69s-9.2,26.62,5.03,29.35h105.69l-.17,82.68Z"/>
    <path class="cls-17" d="M91.59,112.44s-20.11-24.85,13.01-29.58c0,0,2.37-41.41,44.96-29.58,0,0,31.94-29.58,57.97-1.18,0,0,31.94-7.1,33.13,20.11,0,0,17.75-5.92,17.75,17.75,0,0,33.13,1.18,15.38,23.66l-182.2-1.18Z"/>
    <path class="cls-17" d="M970.69,160.19s-15.47-19.11,10.01-22.75c0,0,1.82-31.85,34.58-22.75,0,0,24.57-22.75,44.59-.91,0,0,24.57-5.46,25.48,15.47,0,0,13.65-4.55,13.65,13.65,0,0,25.48,.91,11.83,18.2l-140.13-.91Z"/>
    <path class="cls-17" d="M1333.53,221.17l-148.4-1.18s-20.11-24.85,13.01-29.58c0,0,2.37-41.41,44.96-29.58,0,0,31.94-29.58,57.97-1.18,0,0,31.94-7.1,33.13,20.11"/>
  </g>
  <g id="Layer_1" data-name="Layer 1">
    <g>
      <g>
        <path class="cls-24" d="M841.1,901.56s4.54,11.51,1.56,16.39c0,0-12.04,5.89-18.73-2.8,0,0,10.76-3.6,17.17-13.58Z"/>
        <path class="cls-24" d="M839.11,894.61s-7.52,15.52-18.21,17.01c0,0-2.88-8.97-7.44-14.64,0,0-1.66-55.23,1.57-75.53,0,0,9.88,6.43,35.17,3.47,0,0-2.43,27.2-7.05,41.38-4.62,14.18-4.04,28.31-4.04,28.31Z"/>
        <path class="cls-21" d="M842.66,917.95s3.06,8.29,1.22,11.15c0,0-8.19,2.16-18.47-1.73,0,0-5.58-2.14-12.15,2.03-6.58,4.17-30.42,3.99-37.21-3.79-6.79-7.78,7.01-13.61,7.01-13.61,0,0,18.7-3.14,22.62-10.97,3.92-7.83,7.79-4.04,7.79-4.04,0,0,7.76,7.28,8.31,13.46,0,0,9.97-1.65,17.35-15.83l1.99,6.95s-7.07,11.46-16.14,13.21c0,0,2.53,7.62,17.7,3.17Z"/>
        <circle class="cls-29" cx="822.45" cy="913.66" r="3.95"/>
        <circle class="cls-29" cx="811.1" cy="923.71" r="2.62"/>
        <circle class="cls-29" cx="802.17" cy="926.14" r="2.62"/>
        <circle class="cls-29" cx="792.26" cy="926.43" r="2.62"/>
        <circle class="cls-29" cx="784.1" cy="924.5" r="2.62"/>
        <circle class="cls-29" cx="777.32" cy="921.07" r="2.62"/>
        <path class="cls-5" d="M810.56,917.77s-20.28,6.33-29.39-2.62"/>
      </g>
      <g>
        <path class="cls-24" d="M946.36,860.37s12.32,4.49,14.08,10.28c0,0-3.79,13.68-15.38,12.87,0,0,4.71-11.05,1.3-23.15Z"/>
        <path class="cls-24" d="M939.46,857.06s7.01,16.87,.69,26.38c0,0-9.13-4.02-16.83-4.39,0,0-44.94-37.5-58.75-54.32,0,0,12.04-3.31,27.47-25.44,0,0,19.85,21.04,27.83,34.66,7.99,13.62,19.6,23.09,19.6,23.09Z"/>
        <path class="cls-21" d="M960.44,870.65s8.72,3.4,9.69,6.87c0,0-4.05,8.01-14.35,13.42,0,0-5.62,2.91-6.94,11.06s-18.21,26.91-29.15,26.82c-10.94-.09-5.86-15.11-5.86-15.11,0,0,10.65-17.03,7.21-25.63-3.45-8.61,2.27-9.01,2.27-9.01,0,0,11.22-1.04,16.5,2.87,0,0,5.7-9.06-.36-24.87l6.9,3.31s4.11,13.66-.87,22.07c0,0,7.81,3.35,14.95-11.8Z"/>
        <circle class="cls-29" cx="942.84" cy="883.65" r="4.19"/>
        <circle class="cls-29" cx="942.83" cy="899.71" r="2.77"/>
        <circle class="cls-29" cx="938.48" cy="908.5" r="2.77"/>
        <circle class="cls-29" cx="931.75" cy="916.55" r="2.77"/>
        <circle class="cls-29" cx="924.49" cy="921.66" r="2.77"/>
        <circle class="cls-29" cx="917" cy="924.63" r="2.77"/>
        <path class="cls-5" d="M937.75,895.97s-9.23,20.52-22.73,21.44"/>
      </g>
      <path class="cls-21" d="M812.14,821.96s-2.83-5.1-4.35-16.97l-4.08-74.64s30.26,22.01,104.11-4.25c0,0,7.73,29.45-1.34,64.09,0,0,4.3,10.44,.73,25.01,0,0-28.57,16.59-44.51,10l-6.44-19.11-2.58,4.72-1.77,14.97s-24.69,1.62-39.77-3.82Z"/>
      <path class="cls-11" d="M856.47,807.16s-2.54-17.8,.39-34.23c0,0-5.88-1.68-7.41-5.77"/>
      <path class="cls-24" d="M875.82,551.71s-2.95,10.51,1.33,24.34c0,0-.81,31.79-26.84,36.26,0,0-30.18-14.13-14-34.4,0,0,2.56-1.11,1.99-5.45,0,0,30.53-1.99,37.51-20.74Z"/>
      <path class="cls-24" d="M841.31,497.47s-8.2,3.53-12.75,19.98c-4.55,16.44-6.47,20.36-6.3,34.35,.18,14.72,18.05,21.06,18.05,21.06,0,0,30.75,2.76,39.17-11.95,0,0,4.58,9.96,13.86,.71,0,0,10.43-10.08,5.3-14.94,0,0-5.84-4.29-11.63,1.54,0,0,11.95-27.11,3.65-34.27,0,0-16.96-29.77-49.36-16.48Z"/>
      <path class="cls-13" d="M896.45,552.4s-.89-7.92-9.4,2.3c0,0,6.02-3.94,5.74,.68"/>
      <path class="cls-39" d="M838.01,571.77s5.44,1.82,11.9,1.14c0,0,5.52,.27,13.15-1.79,0,0-5.86,3.77-15.68,4.1,0,0-5.52,.04-9.67-1.98,0,0,.29-.55,.31-1.46Z"/>
      <path class="cls-23" d="M851.09,554.43s-4.44-2.71-10.59-2.54c0,0-4.71-2.25-9.42-2.39,0,0-1.54,8.13,5.52,11.81,7.06,3.68,13.45-2.16,14.49-6.88Z"/>
      <path class="cls-19" d="M849.75,554.69s-1.73,7.1-10.94,4.76c-8.37-2.13-6.83-8.45-6.83-8.45,0,0,9.31,2.82,17.77,3.69Z"/>
      <path class="cls-17" d="M848.58,554.5s-3.12,2.7-10.16,.54c0,0-4.45-.9-5.7-3.7,0,0,9.14,2.53,15.86,3.16Z"/>
      <g>
        <path class="cls-17" d="M867.18,535.73s.08-.27-.05-.56c-.45-.95-1.58-2.81-4.01-3.52-2.72-.8-4.97,1.31-5.74,2.07-.13,.13-.17,.27-.17,.27,0,0-.05,.15,0,.28,.29,.63,1.32,2.46,3.88,3.26,1.52,.47,3.92,.28,5.86-1.4,.14-.12,.2-.3,.22-.4Z"/>
        <circle class="cls-39" cx="861.44" cy="534.56" r="2.93"/>
        <circle class="cls-17" cx="862.62" cy="536.44" r=".8"/>
        <path class="cls-13" d="M857.21,533.67s5.22-5.51,10.03,1.5"/>
      </g>
      <g>
        <path class="cls-17" d="M838.2,529.07s.11-.22,.03-.49c-.26-.87-.98-2.62-2.97-3.55-2.22-1.04-4.43,.47-5.2,1.02-.13,.09-.18,.21-.18,.21,0,0-.07,.12-.03,.24,.16,.58,.8,2.28,2.89,3.31,1.24,.61,3.32,.76,5.21-.43,.13-.08,.21-.23,.24-.31Z"/>
        <circle class="cls-39" cx="833.43" cy="527.31" r="2.54"/>
        <circle class="cls-17" cx="834.2" cy="529" r=".7"/>
        <path class="cls-13" d="M829.92,525.99s5.2-4.04,8.4,2.62"/>
      </g>
      <path class="cls-13" d="M839.13,536.23s-3.17,.69-3.39,4.21c-.3,4.54,5.09,5.6,5.09,5.6"/>
      <path class="cls-34" d="M836.2,502.04s9,3.68,14.25,1.53c5.25-2.15,38.3,10.94,36.56,44.64,0,0,4.17-5.45,11.63-1.54,0,0,19.64-49.16-24.36-57.97,0,0-21.15-7.99-38.08,13.33Z"/>
      <path class="cls-29" d="M858.09,526.18s12.2,.21,16.11,5.91c0,0-1.91-7.57-15.53-8.85,0,0-2.78,1.02-.58,2.94Z"/>
      <path class="cls-29" d="M828.77,515.73c.39-.59,6.04,.36,10.91,2.54,0,0,1.85,2.22-.88,2.86,0,0-8.46-5.39-10.7-2.38,0,0-.29-1.56,.67-3.02Z"/>
      <path class="cls-29" d="M895.55,545.87s4.15-19.6-14.98-21.51c0,0-3.29-2.1-.6-4.7,0,0,21.62,4.43,18.66,27.01,0,0-.96-1.22-3.08-.8Z"/>
      <path class="cls-29" d="M867.39,509.23s.06,4.44,4.37,4.44c9.83,0,26.48,7.38,29.04,23.37,0,0,1.61-.77,.64-4.5-.97-3.73-6.68-24.02-34.05-23.31Z"/>
      <path class="cls-29" d="M857.05,502.63s-.06,3.65,3.18,3.95c0,0,34.65-5.82,42.62,21.13,0,0-4.97-29.35-45.8-25.08Z"/>
      <path class="cls-29" d="M848.18,497.07s1.58,4.76,4.74,3.99c3.16-.77,44.85-6.12,50.32,21.07,0,0-1.84-31.76-55.05-25.06Z"/>
      <path class="cls-29" d="M853,491.49s-1.61,3.6,5.52,2.97,38.11,2.03,43.66,18.6c0,0-6.96-24.44-49.18-21.58Z"/>
      <path class="cls-29" d="M848.25,501.27s-5.13,2.36-6.51-.44c-1.38-2.79-1.95-3.98-1.95-3.98l4.77-3.67,3.7,8.09Z"/>
      <path class="cls-29" d="M852.21,494.6s-5.75,2.72-5.85-2.36l3.29-1.95,2.56,4.31Z"/>
      <polygon class="cls-29" points="856.73 489.13 852.1 490.22 851.82 488.58 856.29 487.45 856.73 489.13"/>
      <path class="cls-29" d="M865.13,489.7l-6.06-.15-.65-2.26s3.12-1.3,6.02-.39l.69,2.79Z"/>
      <path class="cls-29" d="M873.36,490.92l-6.39-.93-.56-2.58s4.06-.89,6.64,.64l.32,2.87Z"/>
      <path class="cls-29" d="M881.47,493.32l-5.53-1.58-.15-2.83s3.97,.14,5.93,2.03l-.26,2.38Z"/>
      <path class="cls-29" d="M883.89,492.02l-.62,2.46s8.59,2.56,10.75,5.03c0,0-4.76-5.95-10.12-7.48Z"/>
      <path class="cls-24" d="M739.2,593.89l-.27-14.46s-2.7-9.18-7.71-13.5l-10.53-15.3s-3.08,.1-3.18,2.25l2.09,6.41-4.96-7.14s-3.03,.76-2.16,3.38l9.09,17.56-8.58-12.63s-4.71-2.06-3.24,3.33l8.37,15.2s-1.85,2.15-3.28,.92l-5.57-6.42s-3.64-.26-2.47,2.87l6.85,9.14,7.04,15.29s3.58,4.83,6.5,4.48c0,0,18.09,45.87,33.78,50.08s42.16-18.52,42.16-18.52l-13.4-39.4-24.43,25.22-26.09-28.74Z"/>
      <path class="cls-14" d="M731.22,565.93l-8.55-4.99s-3.7,2.56-1.24,4.92,7.52,9.09,7.52,9.09c0,0-6.17,8.91-2.55,14.4"/>
      <path class="cls-14" d="M723.2,575.25s-7.7,2.85-9.56,10.23"/>
      <path class="cls-15" d="M883.71,578.34s16.97,6.46,31.4,23.02c18.02,20.68,22.75,32.8,22.75,32.8,0,0-13.06,21.62-30.44,19.8-1.29-.13-7.89-8.25-9.16-8.57,0,0,9.09,48.55,9.55,80.72,0,0-71.48,30.47-105.03,4.74,0,0,5.22-62.68,4.76-88.41l-7.68,2.36c-8.38-6.7-24.18-28.36-27.78-36.64l33.09-21.57s2.44-4.56,28.46-5.42c0,0-1.91,13.14,14.17,16.81,0,0-.77,7.51,3.81,11.74,0,0,.32-7.57,3.99-11.18,6.12-6.02,24.26-10.52,28.09-20.19Z"/>
      <path class="cls-25" d="M875.19,569.71s3.64-.86,5.02,3.74c.89,2.95,5.47,4.46,5.47,4.46,0,0,1.03,15.75-9.2,24.21,0,0-9.92-6.78-20.86-3.58,0,0,26.16-18.4,19.57-28.83Z"/>
      <path class="cls-25" d="M837.88,576.15s-7.08,6.12,9.94,21.83c0,0-10.91-.32-14.29,4.76,0,0-6.82-13.45-7.31-21.81,0,0,9.18-7.65,11.67-4.78Z"/>
      <path class="cls-8" d="M807.58,653.3s.21-20.2,.93-21.87"/>
      <path class="cls-8" d="M898.26,645.38l-6.52-18.54s-3.57-14.73-1.34-18.3"/>
    </g>
    <g>
      <path class="cls-39" d="M947.13,554.51c-7.52-3.16-3.86-9.77-3.86-9.77-4.49-.85-1.74-8.42-1.74-8.42-4.91-3.84-.57-9.31-.57-9.31-1.83-4.87,3.68-9.44,3.68-9.44-3.25-6.44,3.28-8.04,3.28-8.04-2.86-6.49,4.82-10.76,4.82-10.76-1.86-6.13,.45-10.51,.45-10.51-2.86-7.95,2.6-12.29,2.6-12.29-2.98-6.45,1.71-9.64,1.71-9.64-2.5-6.02,3.05-9.28,3.05-9.28-2.21-6.6,4.53-8.72,4.53-8.72,.55-6.84,6.28-7.61,6.28-7.61,2.37-6.38,9.82-6.93,9.82-6.93,5.25-4.5,10.69-3.07,10.69-3.07,7.63-3.85,13.27-.12,13.27-.12,7.6-3.33,17.36,1.83,17.36,1.83,9.66-1.57,17.83,7.34,17.83,7.34,9.16,.46,9.06,10.09,9.06,10.09,7.52,3.16,4.91,11.23,4.91,11.23,5.83,.24,6.6,6.76,6.6,6.76,5.96,.84,4.89,8.45,4.89,8.45,4.94,2.17,2.18,8.28,2.18,8.28,4.65,4.22,.16,7.78,.16,7.78,3.5,4.9-.87,7.64-.87,7.64,2.86,6.49-.89,9.88-.89,9.88,4.17,3.11,.07,7.42,.07,7.42,5.29,3.89-.23,8.37-.23,8.37,5,3.22,2.8,8.76,2.8,8.76,4.26,2.49,1.65,9.64,1.65,9.64,3.59,4.28-.53,11.28-.53,11.28,6.69,5.38,1.61,12.47,1.61,12.47,4.36,6.83-1.75,11.11-1.75,11.11,1.65,6.06-1.11,8.99-1.11,8.99,0,0,4.29,13.21-8.23,10.89"/>
      <path class="cls-22" d="M981.05,456.56s-7.83,.02-11.44,17.61c0,0,.34,5.93-1.07,9.24-1.41,3.31-2.69,14.35-2.14,20.91,.56,6.56,3.47,17.9,12.69,24.19,9.23,6.3,26.07,.29,26.07,.29,0,0,17.11-5.54,22.08-14.96,0,0,5.05,7.19,11.74,2.87,6.68-4.32,15.03-16.63,8.93-21.14-5.24-3.87-11.5,2.95-13.17,4.97-.28,.33-.43,.53-.43,.53,0,0-14.93-24.54-10.41-39.16,0,0-11.08,6.48-22.36,.86,0,0-14.78,3.86-20.49-6.21Z"/>
      <path class="cls-22" d="M1022.95,512.55s-4.63,26.4,14.97,35.34c0,0-6.42,18.67-7.25,27.39,0,0-42.62,10.22-72.06-4.79,0,0,17.71-19.42,21.66-31.97,0,0,4.35-3.09,3.14-7.61l39.55-18.36Z"/>
      <path class="cls-37" d="M1026.57,536.69s26.5,10.11,35.12,30.41l1.85,44.91-17.58,1.57s-.3,32.36,.41,66.35c0,0-45.01,27.85-101.69-1.55,0,0-2.78-50.55,.63-78.09,0,0,11.4-19.37,6.47-30.51l-4.96-6.93s.4-17.76,32.88-25.75c0,0-8.09,14.07,8.93,17.84,0,0,27.9,7.54,37.93-18.26Z"/>
      <path class="cls-22" d="M827.32,582.36s-1.69-6.91-7.9-6.63l-9.16-2.82s-5.92-4.23-8.04,4.09c0,0-4.51,.85-3.95,5.36,0,0-5.64,5.22-4.09,7.9,0,0-4.79,2.26-3.38,4.65s5.92,4.79,5.92,4.79c0,0,4.23,.85,4.23-2.82,0,0,5.22,2.68,5.64-2.68,0,0,7.19,4.51,7.61-1.41,0,0,6.34,2.26,4.93-2.4l-3.67-4.37s3.24-1.55,4.09-2.82l7.75-.85Z"/>
      <polyline class="cls-14" points="800.95 596.89 794.19 592.8 794.19 590.26"/>
      <path class="cls-14" d="M806.59,594.21s-10.29-6.06-8.32-11.84"/>
      <path class="cls-14" d="M802.22,577.01s.99,6.2,2.54,7.47,9.45,8.32,9.45,8.32"/>
      <path class="cls-14" d="M816.6,577.01s-7.47,4.93-1.13,9.02c0,0-6.49-4.23-5.22-7.05"/>
      <line class="cls-14" x1="819.57" y1="583.21" x2="820.55" y2="580.95"/>
      <path class="cls-22" d="M885.79,579.8l15.63-1.53,11.68-7.38,16.92,28.95-12.66,3.86s-8.89-12.87-31.56-23.9Z"/>
      <path class="cls-37" d="M947.03,600.12l-14.39,5.37-22.18-37.22s17.48-7.9,29.52-18.05c12.19-10.29,36.55-11.9,36.55-11.9,0,0-19.98,33.54-29.49,61.81Z"/>
      <path class="cls-10" d="M1029.08,612.54l-7.43-2.9s-3.4-16.77,.39-33.81"/>
      <line class="cls-10" x1="947.03" y1="600.12" x2="947.3" y2="572.65"/>
      <path class="cls-37" d="M1048,466s-.32,7.21-7.03,7.87c-6.7,.67-3.4-8.78-3.4-8.78,0,0-9.76-1.92-8.5-5.57,1.26-3.65,8.09-8.07,9.36-5.31,1.27,2.76,.86,7.77,.86,7.77,0,0,7.71,1.31,8.7,4.01Z"/>
      <path class="cls-29" d="M1002.55,476.5s10.69-.15,18.93,4.84c0,0-3.14-6.52-18.66-7.34,0,0-2.82,.99-.27,2.5Z"/>
      <path class="cls-29" d="M969.83,471.86c7.51-.31,12.64,1.33,12.64,1.33,2.87-.69,.47-2.47,.47-2.47-4.7-1.18-10.12-1.26-13.01-1.11,0,0-.52,2.26-.11,2.25Z"/>
      <path class="cls-23" d="M998.6,510.11s-5.18-2.59-11.98-1.82c0,0-5.43-2.05-10.67-1.77,0,0-.94,9.16,7.23,12.57,8.17,3.41,14.7-3.66,15.42-8.98Z"/>
      <path class="cls-19" d="M997.13,510.53s-1.25,8.04-11.68,6.31c-9.47-1.57-8.36-8.72-8.36-8.72,0,0,10.59,2.25,20.04,2.42Z"/>
      <path class="cls-17" d="M995.82,510.43s-3.2,3.29-11.21,1.56c0,0-5.02-.57-6.67-3.57,0,0,10.36,1.95,17.87,2.01Z"/>
      <path class="cls-2" d="M986.06,487.89s-7.32,5-1.36,9.94"/>
      <path class="cls-39" d="M982.56,530.41s10.07,2.32,19.06,.03c0,0,5.59-.75,14.93-5.51,0,0-5.25,7.17-21.64,8.24,0,0-5.54,.55-12.42-.09,0,0-.77-1.76,.08-2.67Z"/>
      <circle class="cls-28" cx="989.11" cy="566.27" r="4.13"/>
      <circle class="cls-28" cx="997.26" cy="567.66" r="4.13"/>
      <circle class="cls-28" cx="1005.73" cy="566.95" r="4.13"/>
      <circle class="cls-28" cx="1014.04" cy="564.89" r="4.13"/>
      <circle class="cls-28" cx="1021.2" cy="560.51" r="4.13"/>
      <circle class="cls-28" cx="1027.8" cy="555.66" r="4.13"/>
      <circle class="cls-28" cx="981.64" cy="562.64" r="4.13"/>
      <circle class="cls-28" cx="975.03" cy="557.9" r="4.13"/>
      <circle class="cls-28" cx="971.98" cy="550.12" r="4.13"/>
      <circle class="cls-28" cx="991.66" cy="573.84" r="4.13"/>
      <circle class="cls-28" cx="1001.94" cy="574.39" r="4.13"/>
      <circle class="cls-28" cx="1011.77" cy="572.73" r="4.13"/>
      <circle class="cls-28" cx="1021.1" cy="568.83" r="4.13"/>
      <circle class="cls-28" cx="1028.08" cy="564.14" r="4.13"/>
      <circle class="cls-28" cx="982.33" cy="570.6" r="4.13"/>
      <circle class="cls-28" cx="974.05" cy="565.91" r="4.13"/>
      <circle class="cls-28" cx="967.09" cy="556.81" r="4.13"/>
      <path class="cls-28" d="M1026.57,536.69s-7.47,21.35-31.49,18.68c-24.02-2.67-13.01-19.07-13.01-19.07l-3.79,1.02s-6.61,19.26,17.62,20.58c23.54,1.28,26.46-8.89,35.07-19.53l-4.41-1.68Z"/>
      <path class="cls-2" d="M1048.86,505.3s-2.37-5.31-6.72-1.02c-4.35,4.3-4.82,5.89-4.82,5.89,0,0,6.36-6.92,7.34-.36"/>
      <g>
        <path class="cls-18" d="M1041.52,497.58s-5.37,5.02-1.4,8.43c3.97,3.41-3.12,.58-3.12,.58,0,0-4.73-2.99,2.97-11.27l1.55,2.25Z"/>
        <path class="cls-17" d="M1040.12,506s3.49-6.16,7.82-4.06c4.33,2.09-1.82,9.32-1.82,9.32,0,0-1.65,1.65-4.17,1.1,0,0,3.14-4.02-1.83-6.35Z"/>
        <path class="cls-30" d="M1052.45,499.49s3.41,2.66,2.89-1.97c-.51-4.63-6.97-5.82-9.06-5.82-2.1,0-5.22,.53-6.31,3.62-1.09,3.08,3.8,.98,3.8,.98,0,0,6.01-3.2,8.68,3.19Z"/>
      </g>
      <g>
        <path class="cls-17" d="M1013.57,487.01s.06-.29-.1-.57c-.55-.94-1.88-2.77-4.46-3.3-2.89-.59-5.03,1.8-5.77,2.66-.13,.15-.15,.3-.15,.3,0,0-.04,.16,.03,.29,.35,.63,1.58,2.44,4.31,3.04,1.62,.36,4.09-.05,5.96-1.97,.13-.13,.18-.33,.19-.43Z"/>
        <circle class="cls-39" cx="1007.51" cy="486.3" r="3.05"/>
        <circle class="cls-17" cx="1009.52" cy="486.08" r=".84"/>
        <path class="cls-13" d="M1003.05,485.76s4.92-6.18,10.53,.68"/>
      </g>
      <g>
        <path class="cls-17" d="M981.92,482.07s.1-.26-.01-.54c-.37-.94-1.34-2.81-3.63-3.66-2.57-.95-4.87,.94-5.67,1.62-.14,.12-.18,.25-.18,.25,0,0-.06,.14-.01,.27,.23,.63,1.11,2.46,3.52,3.39,1.44,.56,3.76,.53,5.74-.97,.14-.1,.21-.28,.24-.37Z"/>
        <circle class="cls-39" cx="976.46" cy="480.56" r="2.82"/>
        <circle class="cls-17" cx="978.4" cy="480.71" r=".79"/>
        <path class="cls-13" d="M972.53,479.56s5.33-5.41,9.42,2.1"/>
      </g>
      <path class="cls-33" d="M941.97,835.14l-8.28-30.12s-4.02-12.79-2.84-22.22l13.87-105.89s55.55,27.07,101.65,3.03c0,0,5.68,20.11,1.83,50.41,0,0-10.74,52.07-16.95,62.83,0,0,4.73,2.54,7.99,7.07,0,0-12.71,39.36-30.08,27.26l-16.78-13.22c-3.13-2.46-5.58-5.68-7.12-9.35l-4.42-10.52-4.74,39.81s-18.61,12.41-34.12,.93"/>
      <path class="cls-7" d="M980.84,794.4c-2.87-33.53,2.25-74.14,2.25-74.14"/>
      <g>
        <path class="cls-22" d="M979.8,894.5s5.54,10.49,3.21,15.44c0,0-10.85,6.87-18.13-.7,0,0,9.87-4.55,14.93-14.74Z"/>
        <path class="cls-22" d="M977.18,888.09s-5.54,15.57-15.56,18.11c0,0-3.69-8.24-8.63-13.16,0,0,3.54-15.45-11.03-57.9,0,0,10.35,4.54,34.12-.93,0,0,4.88,12.5,1.96,26.49-2.91,13.99-.87,27.39-.87,27.39Z"/>
        <path class="cls-16" d="M983.01,909.94s3.79,7.58,2.33,10.49c0,0-7.58,2.91-17.77,.29,0,0-5.54-1.46-11.36,3.21-5.83,4.66-28.56,6.99-35.84,.29-7.28-6.7,5.24-13.7,5.24-13.7,0,0,17.48-4.95,20.4-12.82,2.91-7.87,6.99-4.66,6.99-4.66,0,0,8.16,6.12,9.32,11.95,0,0,9.32-2.62,14.86-16.9l2.62,6.41s-5.54,11.66-13.99,14.28c0,0,3.21,6.99,17.19,1.17Z"/>
        <circle class="cls-29" cx="963.31" cy="907.98" r="3.79"/>
        <circle class="cls-29" cx="953.56" cy="918.74" r="2.51"/>
        <circle class="cls-29" cx="945.3" cy="922" r="2.51"/>
        <circle class="cls-29" cx="935.9" cy="923.31" r="2.51"/>
        <circle class="cls-29" cx="927.92" cy="922.33" r="2.51"/>
        <circle class="cls-29" cx="921.1" cy="919.77" r="2.51"/>
        <path class="cls-5" d="M952.41,913.15s-18.65,8.16-28.26,.58"/>
      </g>
      <g>
        <path class="cls-22" d="M1075.11,861.48s11.24,5.62,12.28,11.32c0,0-5.1,12.61-16.05,10.57,0,0,5.69-10.01,3.77-21.9Z"/>
        <path class="cls-22" d="M1068.9,857.58s4.83,16.82-2.23,25.19c0,0-8.26-4.82-15.54-6.01,0,0-17.29-31.03-41.97-49.26,0,0,20.26-1.6,30.08-27.26,0,0,11.08,16.63,17.2,30.47,6.12,13.84,12.46,26.88,12.46,26.88Z"/>
        <path class="cls-16" d="M1087.4,872.81s7.93,4.19,8.48,7.6c0,0-4.73,7.18-15.13,11.21,0,0-5.67,2.16-7.81,9.77-2.14,7.61-20.28,23.63-30.68,22.35-10.41-1.28-3.93-15.03-3.93-15.03,0,0,12-15.05,9.66-23.62-2.34-8.57,3.15-8.33,3.15-8.33,0,0,10.8,.24,15.4,4.54,0,0,6.41-8.01,2.38-23.72l6.21,3.9s2.42,13.45-3.24,20.92c0,0,7.07,4.05,15.52-9.6Z"/>
        <circle class="cls-29" cx="1069.22" cy="883.26" r="4.01"/>
        <circle class="cls-29" cx="1067.46" cy="898.54" r="2.66"/>
        <circle class="cls-29" cx="1062.36" cy="906.44" r="2.66"/>
        <circle class="cls-29" cx="1055.07" cy="913.37" r="2.66"/>
        <circle class="cls-29" cx="1047.6" cy="917.44" r="2.66"/>
        <circle class="cls-29" cx="1040.15" cy="919.45" r="2.66"/>
        <path class="cls-5" d="M1063.03,894.43s-11.03,18.52-23.98,17.93"/>
      </g>
      <g>
        <circle class="cls-17" cx="966.4" cy="661.66" r="49.22"/>
        <polygon class="cls-29" points="970.38 631.69 951.57 640.81 954.43 661.52 975.01 665.19 984.86 646.76 970.38 631.69"/>
        <path class="cls-29" d="M924.89,688.11l3.58-17.88,17.13,6.4,4.14,17.69-7.91,10.73s-10.35-6.02-16.94-16.94Z"/>
        <path class="cls-29" d="M997.55,699.78l2.28-16.27-18.29-.12-10.17,15.06,6.23,11.12s9.91-1.93,19.95-9.79Z"/>
        <path class="cls-29" d="M937.88,622.6l2.93,13.28-14.53,15.02-7.6-4.58s3.39-15.81,19.2-23.72Z"/>
        <path class="cls-29" d="M1005.08,633.33l-2.82,15.25,7.29,17.08,7.39-1.83s-.56-21.46-11.86-30.49Z"/>
        <line class="cls-3" x1="954.43" y1="661.52" x2="945.6" y2="676.62"/>
        <line class="cls-3" x1="975.01" y1="665.19" x2="981.54" y2="683.39"/>
        <line class="cls-3" x1="999.83" y1="683.51" x2="1009.54" y2="665.65"/>
        <line class="cls-3" x1="971.37" y1="698.44" x2="949.74" y2="694.32"/>
        <line class="cls-3" x1="928.47" y1="670.22" x2="926.27" y2="650.9"/>
        <line class="cls-3" x1="940.81" y1="635.88" x2="951.57" y2="640.81"/>
        <path class="cls-3" d="M970.38,631.69l.25-12.86-10.54-4.52s6.96-2.82,22.59,2.26l-10.16,2.45"/>
        <line class="cls-3" x1="984.86" y1="646.76" x2="1002.26" y2="648.58"/>
      </g>
      <path class="cls-22" d="M1012.01,687.2l-5.67,6.67s-18.58,11-21.41,11.13c-2.83,.14-7.71-4.13-7.71-4.13-5.28-1.06-6.7-4.58-6.7-4.58-5.93-.86-3.44-4.49-3.44-4.49-2.63-3.73,1.21-4.31,1.21-4.31l10.36-.4s4.86-1.04,10.19-6.67c5.34-5.63-3.76-4-3.76-4-6.77-1.41-2.4-5.08-2.4-5.08,7.63-5.39,19.74-.14,19.74-.14l25.52-29.05,1.13-29.61s19.18,1.97,31.02-.85c0,0,0,41.17-9.31,46.81-9.31,5.64-38.07,25.1-38.07,25.1l-.72,3.6Z"/>
      <path class="cls-14" d="M967.09,691.79s10.28,2.25,18.35-2.42"/>
      <path class="cls-14" d="M970.47,696.17s11.12,1.46,18.41-3.83"/>
      <polyline class="cls-14" points="977.22 700.87 987.21 699.55 992 695.72"/>
      <path class="cls-24" d="M972.13,649.42c2.93,.17,6.19-4.87,6.19-4.87l6.04-15.67,6.24-9.53c.97-3.19-2.64-2.7-2.64-2.7l-5.14,6.74c-1.35,1.32-3.33-.7-3.33-.7l7.37-15.65c1.13-5.45-3.43-3.1-3.43-3.1l-7.74,13.12,7.93-18.05c.7-2.66-2.36-3.23-2.36-3.23l-4.48,7.42,1.67-6.52c-.24-2.14-3.31-2.04-3.31-2.04l-9.51,15.9c-4.72,4.62-6.82,13.93-6.82,13.93l.64,14.41-17.37,18.73-14.2-27.98-25.41,19.63s22.85,53.42,40.01,44.99c22.46-11.03,29.66-44.83,29.66-44.83Z"/>
      <path class="cls-14" d="M965.62,610.55l8.19-5.51s3.84,2.31,1.55,4.82c-2.29,2.51-6.9,9.53-6.9,9.53,0,0,6.71,8.47,3.45,14.17"/>
      <path class="cls-14" d="M974.19,619.31s7.84,2.35,10.16,9.58"/>
    </g>
    <g>
      <path class="cls-35" d="M364.08,911.1s0,2.95,1.26,11.2l92.51,9.43s27.69-.59,28.95-15.33"/>
      <path class="cls-32" d="M367.72,877.91s-8.67,18.45-3.64,33.19l88.11,12.38s24.54,4.13,34.61-7.07c10.07-11.2-61.68-34.19-61.68-34.19,0,0-27.2,18.69-57.41-4.31Z"/>
      <polyline class="cls-9" points="451.98 892.93 433.35 901 430.55 884.64 409.82 893.58"/>
      <polyline class="cls-9" points="416.56 882.15 425.27 899.57 438.66 888.73 448.37 908.08"/>
      <path class="cls-35" d="M311.62,923.64s0,2.95,1.26,11.2l92.51,9.43s27.69-.59,28.95-15.33"/>
      <path class="cls-32" d="M314.14,896.52s-7.55,12.38-2.52,27.12l88.11,12.38s24.54,4.13,34.61-7.07c10.07-11.2-61.68-34.19-61.68-34.19,0,0-28.32,24.76-58.53,1.77Z"/>
      <polyline class="cls-9" points="399.53 905.47 380.89 913.54 378.09 897.17 357.36 906.12"/>
      <polyline class="cls-9" points="364.1 894.69 372.81 912.11 386.2 901.27 395.91 920.62"/>
      <path class="cls-24" d="M412.18,172.95s3.08,18.85-8.67,35.14c0,0-11.63,64.01,36.67,76.1,0,0,65.78-41.23,32.39-60.01-4.43-2.49-4.92-4.4-5.32-5.86l-55.06-45.36Z"/>
      <path class="cls-26" d="M395.11,209.37s-33.4,6.76-56.12,24.88c0,0-9.57,7.01-19.95,29.92,0,0-14.25,50.58-.71,86.2l4.99,6.41-4.99,51.3-23.51,96.89s22.3,13.39,116.69,28.39c0,0,44.89-3.22,68.1-21.7,0,0,12.88-43.27,24.08-130.65,0,0,8.36,2.11,16.28,0l8.05-77.51s3.06-26.77-19.49-48.5c0,0-16.91-17.63-30.2-25.71l-32.53,21.58-6.78,19.61-5.77-20.53s-8.53-9.6-38.12-40.58Z"/>
      <path class="cls-20" d="M408.7,199.5s-5.6-2.21-8.86,4.8c-2.09,4.5-9.75,5.84-9.75,5.84,0,0-5.28,24.85,9.06,40.69,0,0,17.38-8.5,34.06-.88,0,0-37.43-35.36-24.52-50.45Z"/>
      <path class="cls-20" d="M468.88,221.51s.74,13.93-23.1,29.35c0,0,17.45,2.01,21.67,10.89,0,0,13.12-15.84,15.84-29.05,0,0-8.84-11.03-14.42-11.2Z"/>
      <path class="cls-20" d="M503.69,381.01h16.28s-2.18,6.84-2.18,6.84c0,0-7.16,3.81-15.53,.83l1.43-7.67Z"/>
      <path class="cls-12" d="M395.38,312.03s-7.24-62.67-34.31-69.95"/>
      <path class="cls-12" d="M503.69,381.01s6.18-38.79,4.97-48.65"/>
      <path class="cls-31" d="M299.37,506.68s-20.17,58.37,1.61,122.04c0,0,14.89,68.39,10.7,98.55,0,0-23.72,61.27,.35,170.8,0,0,41.65,23.75,70.97,2.8l5.6-7.94s22.3,4.73,45.76-7l31.49-138.24s11.2-28.99,9.99-64.4l3.77-171.64s-44.37,43.89-180.24-4.98Z"/>
      <path class="cls-7" d="M388.61,892.94l9.27-138.35s8.42-16.83,5.89-37.61c-3.47-28.54,1.22-68.13-2.93-87.24,0,0,17.78-14.45,17.78-27.31"/>
      <path class="cls-24" d="M526.12,333.17l13.97,26.3c23.01-7.81,55.28-16.44,55.28-16.44l12.12-22.4,20.55-10.89s3.7,.21,2.88,3.7-5.75,8.01-5.75,8.01l23.01-10.69,23.01-5.34s3.7,2.05,2.47,4.73c-1.23,2.67-4.73,4.52-4.73,4.52l-13.15,2.88-12.74,9.25,33.29-11.1s3.49-.21,3.7,2.88-3.29,5.55-3.29,5.55l-17.06,5.96-9.66,6.58,26.3-9.66s4.52-.62,4.93,2.26-.82,4.11-2.67,5.34-24.66,10.89-24.66,10.89l19.93-4.73s3.49,1.85,.82,3.7-19.93,8.22-19.93,8.22l-19.52,12.74-34.52,4.93s-27.74,35.55-70.48,67.61c0,0-28.77,11.92-45.62-10.69l-9.86-39.04"/>
      <path class="cls-6" d="M401.04,323.3l36.93,60.63c22.5-10.17,134.8-30.21,134.8-30.21l12.12-22.4,20.55-10.89s3.7,.21,2.88,3.7c-.82,3.49-5.75,8.01-5.75,8.01l23.01-10.69,23.01-5.34s3.7,2.05,2.47,4.73-4.73,4.52-4.73,4.52l-13.15,2.88-12.74,9.25,33.29-11.1s3.49-.21,3.7,2.88c.21,3.08-3.29,5.55-3.29,5.55l-17.06,5.96-9.66,6.58,26.3-9.66s4.52-.62,4.93,2.26-.82,4.11-2.67,5.34-24.66,10.89-24.66,10.89l19.93-4.73s3.49,1.85,.82,3.7-19.93,8.22-19.93,8.22l-19.52,12.74-34.52,4.93s-101.31,60.82-154.63,56.82c0,0-28.67,0-55.17-34.52l-29.51-43.6"/>
      <polygon class="cls-17" points="646.5 253.75 654.72 252.93 651.44 300.19 646.5 253.75"/>
      <polygon class="cls-17" points="683.71 255.36 691.72 257.39 672.5 300.7 683.71 255.36"/>
      <polygon class="cls-17" points="726.25 284.28 730.89 291.12 687.76 310.72 726.25 284.28"/>
      <polygon class="cls-17" points="737.73 324.69 738.09 332.94 691.09 327.03 737.73 324.69"/>
      <polygon class="cls-17" points="732 365.82 728.59 373.34 689.35 346.8 732 365.82"/>
      <path class="cls-20" d="M330.79,350.76l7.36,11.23s36.48-11.44,62.99-39.73l-5.76-10.23s-35.96,28.41-64.59,38.73Z"/>
      <path class="cls-24" d="M514.33,115.24s6.39,16.22-4.15,49.01c0,0-3.32,7.68-3.51,12.22s-1.91,11.74-4.66,15.98c-2.75,4.23-22.25,32.34-22.25,32.34,0,0-6.09,8.04-21.9,4.4-15.81-3.64-27.79-12.64-31.86-20.65-4.07-8.02-15.67-22.21-14.61-32.77,0,0-9.87-.13-10.97-12.31,0,0-5.97-19.96,5.32-22.06,11.28-2.1,13.78,13.41,13.78,13.41,0,0-2.1-44.4,25.07-54.93,0,0,34.46-16.99,69.75,15.35Z"/>
      <path class="cls-23" d="M454.86,190.44s8.54-.22,16.9,5.45c0,0,8.5,.72,15.15,4.65,0,0-4.75,17-17.36,13.67-15.72-4.14-17.42-15.7-14.69-23.77Z"/>
      <path class="cls-19" d="M456.54,191.87s-3.61,11.36,11.2,15.9c13.45,4.13,16.67-5.98,16.67-5.98,0,0-15.36-3.96-27.87-9.92Z"/>
      <path class="cls-29" d="M473.35,146.22s-11.5-8.77-24.69-6.38c0,0,8.95-9.17,26.51,1.7,0,0,2.22,4.02-1.82,4.68Z"/>
      <path class="cls-29" d="M513.3,156.55c-8.78-4.57-14.37-2.49-14.37-2.49-2.97-2.82,1.12-4.9,1.12-4.9,6.43,.26,11.08,1.67,14.43,3.48,0,0-.69,4.15-1.17,3.9Z"/>
      <path class="cls-17" d="M458.33,192.59s2.05,6.4,13.68,9.36c0,0,6.96,2.52,11.08-.33,0,0-14.87-4.21-24.76-9.04Z"/>
      <path class="cls-4" d="M403.33,148.75s5.51-4.54,7.94,2.56c2.43,7.1,2.07,9.11,2.07,9.11,0,0-3.21-11.08-7.87-4.41"/>
      <path class="cls-39" d="M458.86,229.03s-14.12-2.2-24-10.3c0,0-6.33-3.84-12.8-16.5,0,0,4.96,17.52,21.32,23.87,0,0,7.13,3.64,15.48,2.93,0,0-.79,1.55,0,0Z"/>
      <g>
        <path class="cls-17" d="M455.14,151.06s.1-.38,.47-.63c1.22-.8,3.91-2.2,7.31-1.29,3.81,1.01,4.95,5.15,5.33,6.62,.06,.25,0,.44,0,.44,0,0-.04,.22-.21,.33-.8,.54-3.35,1.97-6.97,1.07-2.16-.54-4.86-2.5-5.95-5.91-.08-.24-.02-.5,.03-.64Z"/>
        <circle class="cls-39" cx="462.82" cy="153.83" r="4.08"/>
        <circle class="cls-17" cx="460.54" cy="152.37" r="1.12"/>
        <path class="cls-4" d="M468.48,155.83s-2.21-10.33-13.01-5.47"/>
      </g>
      <g>
        <path class="cls-17" d="M494.98,164.99s.04-.37,.34-.65c1.02-.92,3.32-2.6,6.61-2.25,3.69,.4,5.34,4.08,5.9,5.39,.1,.23,.06,.41,.06,.41,0,0,0,.21-.15,.34-.66,.62-2.83,2.31-6.33,1.99-2.08-.19-4.88-1.63-6.38-4.64-.1-.21-.09-.46-.07-.59Z"/>
        <circle class="cls-39" cx="502.52" cy="166.45" r="3.82"/>
        <circle class="cls-17" cx="500.07" cy="165.47" r="1.07"/>
        <path class="cls-4" d="M507.89,167.62s-3.2-9.78-12.7-3.14"/>
      </g>
      <path class="cls-1" d="M426.5,81.9s-21.1,13.83-24.59,61.26c0,0,16.39-9.17,14.8,16.14l5.26,1.26s-4.8-39.85,14.77-44.8l-10.22-33.86Z"/>
      <path class="cls-29" d="M474.59,229.54c-9.15,3.72-15.96,.37-15.96,.37-7.7-.19-16.23-5.26-16.23-5.26-14.81-6.32-19.92-21.8-19.92-21.8,9.98,16.86,12.79,17,15.34,17.6,5.28,1.24,5.53-6.04,5.53-6.04,2.87-14.07,11.2-24.22,11.2-24.22,0,0-10.24,23.72,10.09,29.96,13.49,4.14,22.84-19.6,22.84-19.6-2.53,12.27-7.02,20.63-9.98,25.11,0,0-1.02,1.85,3.19-2.34,0,0-2.06,4.58-6.09,6.22Z"/>
      <path class="cls-36" d="M454.54,190.19s6.87-1.61,11.98-.31c0,0,5.59,1.34,6.04-.13,0,0,2.61,1.13,6.81,1.92,0,0-.45,.67,1.3,2.41,1.75,1.74,5.95,2.79,6.79,6.46,0,0-4.39-2.9-15.56-4.77,0,0-6.33-4.57-17.36-5.58Z"/>
      <path class="cls-4" d="M486.26,173.67s3.46,3.3,1.05,7.9c-3.11,5.94-10.71,3.16-10.71,3.16"/>
      <path class="cls-40" d="M421.96,160.56s-2.71,34.97,.5,42.29c0,0-8.42-27.17-5.76-43.55l5.26,1.26Z"/>
      <path class="cls-29" d="M426.5,81.9c31.76-21.68,59.66-5.89,76.58,7.66,15.01,12.02,12.08,29.37,12.08,29.37-23.29,12.85-73.46-15.55-73.46-15.55l-4.98,12.38"/>
    </g>
  </g>
</svg>