<?xml version="1.0" encoding="UTF-8"?>
<svg id="Layer_1" data-name="Layer 1" xmlns="http://www.w3.org/2000/svg" xmlns:xlink="http://www.w3.org/1999/xlink" viewBox="0 0 2391.61 1000.23">
  <defs>
    <style>
      .cls-1, .cls-2, .cls-3, .cls-4, .cls-5, .cls-6, .cls-7, .cls-8, .cls-9, .cls-10, .cls-11, .cls-12, .cls-13, .cls-14, .cls-15, .cls-16, .cls-17, .cls-18 {
        fill: none;
      }

      .cls-19 {
        clip-path: url(#clippath);
      }

      .cls-2 {
        stroke: #603b17;
      }

      .cls-2, .cls-3 {
        stroke-width: .8px;
      }

      .cls-2, .cls-3, .cls-20, .cls-21, .cls-22, .cls-23, .cls-4, .cls-5, .cls-24, .cls-25, .cls-26, .cls-27, .cls-6, .cls-7, .cls-8, .cls-9, .cls-10, .cls-11, .cls-12, .cls-13, .cls-14, .cls-15, .cls-16, .cls-28, .cls-17, .cls-29, .cls-30, .cls-18 {
        stroke-miterlimit: 10;
      }

      .cls-3, .cls-4, .cls-5, .cls-6, .cls-11, .cls-17 {
        stroke: #231f20;
      }

      .cls-31 {
        fill: #f4ab1c;
      }

      .cls-32 {
        fill: #f8e8c5;
      }

      .cls-33, .cls-21, .cls-28 {
        fill: #00a151;
      }

      .cls-34 {
        fill: #006087;
      }

      .cls-35 {
        fill: #006838;
      }

      .cls-36, .cls-20, .cls-24 {
        fill: #0098bd;
      }

      .cls-37 {
        fill: #eede26;
      }

      .cls-38 {
        fill: #f26522;
      }

      .cls-39 {
        fill: #f6aac1;
      }

      .cls-40 {
        fill: #fff;
      }

      .cls-41 {
        fill: #f1f2f2;
      }

      .cls-42 {
        fill: #f08681;
      }

      .cls-43 {
        fill: #813536;
      }

      .cls-44 {
        fill: #9a6c3f;
      }

      .cls-45 {
        fill: #96d9ec;
      }

      .cls-46 {
        fill: #b6302e;
      }

      .cls-47 {
        fill: #c2b59b;
      }

      .cls-48, .cls-22 {
        fill: #8dc63f;
      }

      .cls-49 {
        fill: #ba9568;
      }

      .cls-50 {
        fill: #ae8578;
      }

      .cls-51, .cls-27 {
        fill: #be9e7d;
      }

      .cls-52 {
        fill: #bde4e0;
      }

      .cls-53, .cls-26 {
        fill: #bd9d7d;
      }

      .cls-54 {
        fill: #aa856a;
      }

      .cls-55 {
        fill: #bf6b6c;
      }

      .cls-56 {
        fill: #c66f2b;
      }

      .cls-57 {
        fill: #d28b29;
      }

      .cls-58 {
        fill: #c49a6c;
      }

      .cls-59 {
        fill: #db964d;
      }

      .cls-60, .cls-30 {
        fill: #dc3b28;
      }

      .cls-61 {
        fill: #e2ae6d;
      }

      .cls-62 {
        fill: #134a7e;
      }

      .cls-63 {
        fill: #231f20;
      }

      .cls-64 {
        fill: #0f3e5d;
      }

      .cls-65, .cls-29 {
        fill: #16a9de;
      }

      .cls-66 {
        fill: #9b7a64;
      }

      .cls-67 {
        fill: #3c2415;
      }

      .cls-68 {
        fill: #25b9e7;
      }

      .cls-69, .cls-23 {
        fill: #754c29;
      }

      .cls-70 {
        fill: #26130f;
      }

      .cls-20, .cls-24 {
        stroke: #196bac;
      }

      .cls-20, .cls-6, .cls-7, .cls-8 {
        stroke-width: 2px;
      }

      .cls-21, .cls-22, .cls-23 {
        stroke-width: .2px;
      }

      .cls-21, .cls-12, .cls-28 {
        stroke: #006838;
      }

      .cls-22, .cls-8 {
        stroke: #009444;
      }

      .cls-23, .cls-16 {
        stroke: #754c29;
      }

      .cls-71 {
        clip-path: url(#clippath-1);
      }

      .cls-4 {
        stroke-width: .7px;
      }

      .cls-5 {
        stroke-linecap: round;
      }

      .cls-5, .cls-18 {
        stroke-width: .5px;
      }

      .cls-25 {
        fill: #c59b66;
      }

      .cls-25, .cls-27, .cls-18 {
        stroke: #603913;
      }

      .cls-26, .cls-13 {
        stroke: #939598;
      }

      .cls-7 {
        stroke: #8b645f;
      }

      .cls-9 {
        stroke: #16a9de;
        stroke-width: 4px;
      }

      .cls-10 {
        stroke: #0c3149;
      }

      .cls-14 {
        stroke: #fbb040;
      }

      .cls-15 {
        stroke: #2b3990;
      }

      .cls-28, .cls-29, .cls-30 {
        stroke-width: .1px;
      }

      .cls-17 {
        stroke-width: 1.2px;
      }

      .cls-29 {
        stroke: #2e3192;
      }

      .cls-30 {
        stroke: #be1e2d;
      }
    </style>
    <clipPath id="clippath">
      <rect class="cls-1" x="255.73" y="302.98" width="602.68" height="507.35"/>
    </clipPath>
    <clipPath id="clippath-1">
      <rect class="cls-1" x="828.92" y="62.09" width="760.18" height="758.85"/>
    </clipPath>
  </defs>
  <rect class="cls-52" x="255.49" width="1333.62" height="820.94"/>
  <rect class="cls-61" x="256.3" y="796.14" width="1332.89" height="204.09"/>
  <rect class="cls-1" x="540.79" y="315.62" width="309.87" height="481.03"/>
  <g class="cls-19">
    <g>
      <rect class="cls-49" x=".19" y="344.58" width="818.64" height="424.83"/>
      <rect class="cls-44" x="0" y="317.5" width="844.88" height="28.86"/>
      <polygon class="cls-44" points=".04 796.65 834.86 796.65 818.67 769.29 .04 767.79 .04 796.65"/>
      <rect class="cls-25" x="21.53" y="369.99" width="375.25" height="72.58"/>
      <path class="cls-16" d="M228.72,406.73c0,10.68-8.66,19.33-19.33,19.33-10.68,0-19.33-8.66-19.33-19.33"/>
      <circle class="cls-23" cx="190.26" cy="406.83" r="2.98"/>
      <circle class="cls-23" cx="228.76" cy="406.83" r="2.98"/>
      <rect class="cls-25" x="419.67" y="369.99" width="375.25" height="72.58"/>
      <path class="cls-16" d="M626.86,406.73c0,10.68-8.66,19.33-19.33,19.33-10.68,0-19.33-8.66-19.33-19.33"/>
      <circle class="cls-23" cx="588.4" cy="406.83" r="2.98"/>
      <path class="cls-23" d="M629.88,406.83c0,1.64-1.33,2.98-2.98,2.98s-2.98-1.33-2.98-2.98c0-1.64,1.33-2.98,2.98-2.98s2.98,1.33,2.98,2.98Z"/>
      <rect class="cls-25" x="21.53" y="467.24" width="375.25" height="72.58"/>
      <path class="cls-16" d="M228.72,503.98c0,10.68-8.66,19.33-19.33,19.33-10.68,0-19.33-8.66-19.33-19.33"/>
      <path class="cls-23" d="M193.23,504.07c0,1.64-1.33,2.98-2.98,2.98s-2.98-1.33-2.98-2.98c0-1.64,1.33-2.98,2.98-2.98,1.64,0,2.98,1.33,2.98,2.98Z"/>
      <path class="cls-23" d="M231.73,504.07c0,1.64-1.33,2.98-2.98,2.98-1.64,0-2.98-1.33-2.98-2.98,0-1.64,1.33-2.98,2.98-2.98s2.98,1.33,2.98,2.98Z"/>
      <rect class="cls-25" x="419.67" y="467.24" width="375.25" height="72.58"/>
      <path class="cls-16" d="M626.86,503.98c0,10.68-8.66,19.33-19.33,19.33-10.68,0-19.33-8.66-19.33-19.33"/>
      <path class="cls-23" d="M591.37,504.07c0,1.64-1.33,2.98-2.98,2.98-1.64,0-2.98-1.33-2.98-2.98,0-1.64,1.33-2.98,2.98-2.98s2.98,1.33,2.98,2.98Z"/>
      <circle class="cls-23" cx="626.9" cy="504.07" r="2.98"/>
      <rect class="cls-25" x="21.53" y="565.45" width="375.25" height="72.58"/>
      <path class="cls-16" d="M228.72,602.19c0,10.68-8.66,19.33-19.33,19.33s-19.33-8.66-19.33-19.33"/>
      <circle class="cls-23" cx="190.26" cy="602.28" r="2.98"/>
      <path class="cls-23" d="M231.73,602.28c0,1.64-1.33,2.98-2.98,2.98-1.64,0-2.98-1.33-2.98-2.98s1.33-2.98,2.98-2.98,2.98,1.33,2.98,2.98Z"/>
      <rect class="cls-25" x="419.67" y="565.45" width="375.25" height="72.58"/>
      <path class="cls-16" d="M626.86,602.19c0,10.68-8.66,19.33-19.33,19.33-10.68,0-19.33-8.66-19.33-19.33"/>
      <path class="cls-23" d="M591.37,602.28c0,1.64-1.33,2.98-2.98,2.98s-2.98-1.33-2.98-2.98,1.33-2.98,2.98-2.98,2.98,1.33,2.98,2.98Z"/>
      <circle class="cls-23" cx="626.9" cy="602.28" r="2.98"/>
      <rect class="cls-25" x="21.53" y="663.65" width="375.25" height="72.58"/>
      <path class="cls-16" d="M228.72,700.39c0,10.68-8.66,19.33-19.33,19.33s-19.33-8.66-19.33-19.33"/>
      <circle class="cls-23" cx="190.26" cy="700.49" r="2.98"/>
      <path class="cls-23" d="M231.73,700.49c0,1.64-1.33,2.98-2.98,2.98-1.64,0-2.98-1.33-2.98-2.98,0-1.64,1.33-2.98,2.98-2.98,1.64,0,2.98,1.33,2.98,2.98Z"/>
      <rect class="cls-25" x="419.67" y="663.65" width="375.25" height="72.58"/>
      <path class="cls-16" d="M626.86,700.39c0,10.68-8.66,19.33-19.33,19.33-10.68,0-19.33-8.66-19.33-19.33"/>
      <path class="cls-23" d="M591.37,700.49c0,1.64-1.33,2.98-2.98,2.98s-2.98-1.33-2.98-2.98,1.33-2.98,2.98-2.98,2.98,1.33,2.98,2.98Z"/>
      <path class="cls-23" d="M629.88,700.49c0,1.64-1.33,2.98-2.98,2.98-1.64,0-2.98-1.33-2.98-2.98s1.33-2.98,2.98-2.98c1.64,0,2.98,1.33,2.98,2.98Z"/>
    </g>
    <polygon class="cls-41" points="405.99 419.79 90.94 316.35 721.05 316.35 405.99 419.79"/>
    <polyline class="cls-9" points="721.05 316.35 405.99 419.79 90.94 316.35"/>
    <polyline class="cls-9" points="722.61 329.69 709.33 323.52 702.29 336.36 689.01 330.2 681.96 343.03 668.68 336.87 661.64 349.71 648.36 343.54 641.32 356.38 628.03 350.21 620.99 363.05 607.71 356.89 600.67 369.72 587.39 363.56 580.35 376.39 567.07 370.23 560.03 383.07 546.75 376.9 539.7 389.74 526.42 383.58 519.38 396.41 506.1 390.25 499.05 403.09 485.77 396.92 478.72 409.76 465.44 403.6 458.4 416.44 445.11 410.27 438.06 423.11 424.78 416.95 417.73 429.79 405.99 423.38 394.27 429.79 387.23 416.95 373.95 423.12 366.91 410.28 353.63 416.45 346.58 403.61 333.3 409.77 326.26 396.94 312.98 403.1 305.93 390.26 292.65 396.43 285.62 383.59 272.34 389.76 265.3 376.92 252.01 383.09 244.97 370.25 231.69 376.41 224.65 363.58 211.37 369.74 204.32 356.9 191.04 363.07 183.99 350.23 170.71 356.39 163.66 343.55 150.38 349.72 143.34 336.88 130.06 343.04 123.01 330.2 109.72 336.37 102.67 323.53 89.38 329.69"/>
  </g>
  <g>
    <rect class="cls-46" x="814.1" y="846.57" width="46.45" height="23.54"/>
    <polygon class="cls-60" points="814.1 846.6 860.55 846.6 874.9 821.74 834.39 822.15 814.1 846.6"/>
    <polygon class="cls-46" points="860.55 846.57 874.9 821.74 874.9 843.73 860.55 870.11 860.55 846.57"/>
    <path class="cls-46" d="M826.65,837.64v3.55s6.98,3.02,13.69-.11l.17-3.44h-13.87Z"/>
    <ellipse class="cls-30" cx="833.58" cy="837.64" rx="6.93" ry="2.1"/>
    <path class="cls-46" d="M845.43,837.64v3.55s6.98,3.02,13.69-.11l.17-3.44h-13.87Z"/>
    <ellipse class="cls-30" cx="852.36" cy="837.64" rx="6.93" ry="2.1"/>
    <path class="cls-46" d="M834.2,826.56v3.55s6.98,3.02,13.69-.11l.17-3.44h-13.87Z"/>
    <ellipse class="cls-30" cx="841.13" cy="826.56" rx="6.93" ry="2.1"/>
    <path class="cls-46" d="M852.98,826.56v3.55s6.98,3.02,13.69-.11l.17-3.44h-13.87Z"/>
    <ellipse class="cls-30" cx="859.92" cy="826.56" rx="6.93" ry="2.1"/>
  </g>
  <g>
    <rect class="cls-46" x="818.37" y="911.93" width="76.11" height="16.38"/>
    <polygon class="cls-60" points="818.37 911.95 894.48 911.95 910.14 894.66 842.37 894.94 818.37 911.95"/>
    <polygon class="cls-46" points="894.48 911.93 910.14 894.66 910.14 909.95 894.48 928.3 894.48 911.93"/>
    <path class="cls-46" d="M840.32,900.39v3.55s6.98,3.02,13.69-.11l.17-3.44h-13.87Z"/>
    <ellipse class="cls-30" cx="847.25" cy="900.39" rx="6.93" ry="2.1"/>
    <path class="cls-46" d="M859.1,900.39v3.55s6.98,3.02,13.69-.11l.17-3.44h-13.87Z"/>
    <ellipse class="cls-30" cx="866.03" cy="900.39" rx="6.93" ry="2.1"/>
    <path class="cls-46" d="M879,900.7v3.55s6.98,3.02,13.69-.11l.17-3.44h-13.87Z"/>
    <ellipse class="cls-30" cx="885.94" cy="900.7" rx="6.93" ry="2.1"/>
  </g>
  <g>
    <rect class="cls-62" x="757.41" y="867.15" width="35.96" height="18.22"/>
    <polygon class="cls-65" points="757.41 867.17 793.37 867.17 804.48 847.93 773.12 848.24 757.41 867.17"/>
    <polygon class="cls-62" points="793.37 867.15 804.48 847.93 804.48 864.95 793.37 885.37 793.37 867.15"/>
    <path class="cls-62" d="M767.12,860.24v2.75s5.4,2.34,10.6-.09l.14-2.66h-10.73Z"/>
    <ellipse class="cls-29" cx="772.49" cy="860.24" rx="5.37" ry="1.63"/>
    <path class="cls-62" d="M781.66,860.24v2.75s5.4,2.34,10.6-.09l.14-2.66h-10.73Z"/>
    <ellipse class="cls-29" cx="787.03" cy="860.24" rx="5.37" ry="1.63"/>
    <path class="cls-62" d="M772.97,851.65v2.75s5.4,2.34,10.6-.09l.14-2.66h-10.73Z"/>
    <ellipse class="cls-29" cx="778.34" cy="851.65" rx="5.37" ry="1.63"/>
    <path class="cls-62" d="M787.51,851.65v2.75s5.4,2.34,10.6-.09l.14-2.66h-10.73Z"/>
    <ellipse class="cls-29" cx="792.88" cy="851.65" rx="5.37" ry="1.63"/>
  </g>
  <g>
    <rect class="cls-62" x="920.65" y="888.94" width="35.96" height="18.22"/>
    <polygon class="cls-65" points="920.65 888.95 956.61 888.95 967.73 869.71 936.36 870.03 920.65 888.95"/>
    <polygon class="cls-62" points="956.61 888.94 967.73 869.71 967.73 886.73 956.61 907.16 956.61 888.94"/>
    <path class="cls-62" d="M930.37,882.02v2.75s5.4,2.34,10.6-.09l.14-2.66h-10.73Z"/>
    <ellipse class="cls-29" cx="935.73" cy="882.02" rx="5.37" ry="1.63"/>
    <path class="cls-62" d="M944.91,882.02v2.75s5.4,2.34,10.6-.09l.14-2.66h-10.73Z"/>
    <ellipse class="cls-29" cx="950.27" cy="882.02" rx="5.37" ry="1.63"/>
    <path class="cls-62" d="M936.21,873.44v2.75s5.4,2.34,10.6-.09l.14-2.66h-10.73Z"/>
    <ellipse class="cls-29" cx="941.58" cy="873.44" rx="5.37" ry="1.63"/>
    <path class="cls-62" d="M950.75,873.44v2.75s5.4,2.34,10.6-.09l.14-2.66h-10.73Z"/>
    <ellipse class="cls-29" cx="956.12" cy="873.44" rx="5.37" ry="1.63"/>
  </g>
  <g>
    <rect class="cls-35" x="872.35" y="865.52" width="35.96" height="18.22"/>
    <polygon class="cls-33" points="872.35 865.54 908.31 865.54 919.42 846.3 888.05 846.61 872.35 865.54"/>
    <polygon class="cls-35" points="908.31 865.52 919.42 846.3 919.42 863.32 908.31 883.75 908.31 865.52"/>
    <path class="cls-35" d="M882.06,858.61v2.75s5.4,2.34,10.6-.09l.14-2.66h-10.73Z"/>
    <ellipse class="cls-28" cx="887.43" cy="858.61" rx="5.37" ry="1.63"/>
    <path class="cls-35" d="M896.6,858.61v2.75s5.4,2.34,10.6-.09l.14-2.66h-10.73Z"/>
    <ellipse class="cls-28" cx="901.97" cy="858.61" rx="5.37" ry="1.63"/>
    <path class="cls-35" d="M887.91,850.03v2.75s5.4,2.34,10.6-.09l.14-2.66h-10.73Z"/>
    <ellipse class="cls-28" cx="893.28" cy="850.03" rx="5.37" ry="1.63"/>
    <path class="cls-35" d="M902.45,850.03v2.75s5.4,2.34,10.6-.09l.14-2.66h-10.73Z"/>
    <ellipse class="cls-28" cx="907.82" cy="850.03" rx="5.37" ry="1.63"/>
  </g>
  <g>
    <circle class="cls-22" cx="945.82" cy="833.5" r="24.05"/>
    <path class="cls-15" d="M951.57,813.96s9.24,3.33,11.09,12.94"/>
  </g>
  <rect class="cls-38" x="630.57" y="912.72" width="69.89" height="10.35"/>
  <rect class="cls-60" x="684.41" y="933.6" width="69.89" height="10.35" transform="translate(-391.53 532.95) rotate(-32.47)"/>
  <rect class="cls-37" x="676.4" y="887.53" width="69.89" height="10.35" transform="translate(-75.83 66.09) rotate(-5.05)"/>
  <rect class="cls-48" x="648.7" y="909.97" width="69.89" height="10.35" transform="translate(364.58 -181.69) rotate(20.54)"/>
  <rect class="cls-68" x="711.14" y="905.51" width="69.89" height="10.35" transform="translate(61.3 -46.95) rotate(3.76)"/>
  <g class="cls-71">
    <g>
      <rect class="cls-34" x="1044.39" y="589.87" width="1181.5" height="36.15"/>
      <path class="cls-36" d="M1059.98,105.75h543.85c19.72,0,35.74,16.01,35.74,35.74V466.06c0,.21-.17,.38-.38,.38h-579.21c-19.72,0-35.74-16.01-35.74-35.74V141.49c0-19.72,16.01-35.74,35.74-35.74Z"/>
      <rect class="cls-36" x="1068.87" y="615.4" width="1138.02" height="114.36" rx="15.96" ry="15.96"/>
      <path class="cls-69" d="M993.79,795.84h-33.77c-11.6,0-21.9-7.42-25.57-18.43l-13.89-41.66h118.16l-23.38,46.76c-4.08,8.17-12.43,13.32-21.56,13.32Z"/>
      <path class="cls-36" d="M1675.09,105.75h579.51s.08,.03,.08,.08V430.71c0,19.72-16.01,35.74-35.74,35.74h-543.85c-19.72,0-35.74-16.01-35.74-35.74V141.49c0-19.72,16.01-35.74,35.74-35.74Z" transform="translate(3894.04 572.19) rotate(-180)"/>
      <path class="cls-69" d="M2285.14,795.84h33.77c11.6,0,21.9-7.42,25.57-18.43l13.89-41.66h-118.16s23.38,46.76,23.38,46.76c4.08,8.17,12.43,13.32,21.56,13.32Z"/>
      <rect class="cls-24" x="2197.57" y="312.03" width="193.55" height="423.87" rx="35.2" ry="35.2"/>
      <rect class="cls-20" x="885.48" y="312.03" width="193.55" height="423.87" rx="35.2" ry="35.2" transform="translate(1964.51 1047.93) rotate(-180)"/>
      <rect class="cls-20" x="1068.87" y="448.62" width="570.71" height="168.72" rx="15.96" ry="15.96"/>
      <rect class="cls-24" x="1639.36" y="448.62" width="570.71" height="168.72" rx="15.96" ry="15.96" transform="translate(3849.42 1065.95) rotate(-180)"/>
      <line class="cls-24" x1="1639.36" y1="161.7" x2="1639.36" y2="473.6"/>
    </g>
  </g>
  <g>
    <path class="cls-59" d="M723.02,746.29s-21.23-5.75-11.61-46.58c0,0,3.15-8.68,6.53-11.54,0,0-14.46-1.75-6.44-14.91s16.51,4.39,16.51,4.39c0,0,22.28-16.46,45.41-2.23,0,0,6.44-13.87,14.6-4.48,8.16,9.39-3.69,14.54-3.69,14.54,0,0,26.16,31.22,3.47,56.64,0,0,43.9,18.05,34.62,38.65,0,0-5.48,8.78-21.14-3.42,0,0,2.9,13.88,.9,22.13,0,0,28.07-7.75,20.9,16.65-7.18,24.4-29.76,23.76-29.76,23.76,0,0-10.2-2.31-10.57-11.24,0,0-17.52,18.6-47.71,3.1,0,0-1.49,20.67-24.53,8.77-23.04-11.9-16.84-31.59-16.84-31.59,0,0,5.56-6.84,16.49-5.72,0,0-2.12-13.91,1.85-21.46,0,0-11.24,10.57-21.94,5.56-10.7-5.01,7.91-25.6,7.91-25.6,0,0,14.2-14.19,25.04-15.41Z"/>
    <path class="cls-56" d="M814.54,797.41s-31.14-.68-31.79,31.23c0,0,3.85,18.12,22.14,8.82,0,0-25.03,6.07-17.84-17.94,0,0,9.74-18.67,27.49-22.12Z"/>
    <path class="cls-56" d="M715.64,842.26s16.98,6.31,19.41-10.51-22.16-28.66-22.16-28.66c0,0-14.9-2.9-16.21,2.99,0,0,16.09-6.1,27.23,9.78,11.14,15.88,3.65,22.8,3.65,22.8,0,0-6.09,3.36-11.91,3.59Z"/>
    <ellipse class="cls-56" cx="815.92" cy="775.67" rx="3.34" ry="5.01" transform="translate(-265.45 1088.77) rotate(-59.7)"/>
    <ellipse class="cls-56" cx="697.01" cy="779.78" rx="5.01" ry="3.34" transform="translate(-321 539.9) rotate(-34.95)"/>
    <ellipse class="cls-45" cx="757.43" cy="752.71" rx="4.98" ry="4.43" transform="translate(-29.9 31.34) rotate(-2.32)"/>
    <polygon class="cls-45" points="735.97 745.38 737.34 762.61 757.43 752.71 777.59 760.75 776.95 744.83 757.47 750.93 735.97 745.38"/>
    <ellipse class="cls-32" cx="752.81" cy="728.85" rx="23.03" ry="14.95" transform="translate(-28.94 31.13) rotate(-2.32)"/>
    <ellipse class="cls-39" cx="781.96" cy="720.91" rx="5.31" ry="5.09" transform="translate(-28.59 32.3) rotate(-2.32)"/>
    <ellipse class="cls-39" cx="723.93" cy="723.27" rx="5.31" ry="5.09" transform="translate(-28.74 29.95) rotate(-2.32)"/>
    <ellipse class="cls-63" cx="734.6" cy="708.87" rx="3.21" ry="3.99" transform="translate(-28.14 30.37) rotate(-2.32)"/>
    <ellipse class="cls-63" cx="768.4" cy="707.5" rx="3.21" ry="3.99" transform="translate(-28.06 31.74) rotate(-2.32)"/>
    <path class="cls-32" d="M776.77,677.35s3.18-8.29,8.28-4c5.1,4.3-2.31,9.1-2.31,9.1,0,0-4.12-.96-5.98-5.11Z"/>
    <path class="cls-32" d="M725.35,679.43s-3.84-8.01-8.58-3.31c-4.74,4.7,3.04,8.89,3.04,8.89,0,0,4.03-1.29,5.54-5.57Z"/>
    <path class="cls-63" d="M754,724.76l3.62-5c.79-1.1-.03-2.63-1.38-2.57l-7.63,.31c-1.35,.05-2.05,1.65-1.17,2.67l4.01,4.69c.68,.8,1.93,.75,2.55-.1Z"/>
    <path class="cls-11" d="M744.04,733.03s8.4,2.17,8.65-8"/>
    <path class="cls-11" d="M761.95,732.31s-8.2,2.84-9.27-7.28"/>
  </g>
  <g>
    <circle class="cls-21" cx="685.42" cy="836.18" r="24.05"/>
    <path class="cls-12" d="M691.18,816.64s9.24,3.33,11.09,12.94"/>
  </g>
  <g>
    <path class="cls-40" d="M361.04,98.9s-9.21,17.69-25.35,10.27c-16.14-7.42-6.52-10.25-6.52-10.25,0,0,21.21,3.65,27.72-2.04"/>
    <path class="cls-40" d="M361.69,98.9s9.21,17.69,25.35,10.27c16.14-7.42,6.52-10.25,6.52-10.25,0,0-21.21,3.65-27.72-2.04"/>
    <path class="cls-40" d="M352.82,96.51s-19.52,4.1-24.02-13.09c-4.51-17.18,3.78-11.54,3.78-11.54,0,0,10.63,18.71,19.16,20.13"/>
    <path class="cls-40" d="M354.13,91.18l-12.06-10.91s-5.2-3.06-.54-8.58c4.66-5.51,10.4-.2,10.4-.2,0,0,9.16,14.43,9.79,19.41"/>
    <path class="cls-40" d="M366.95,92.33l3.81-14.96s-.58-11.49-7.19-10.89c-6.61,.59-3.62,12.7-3.62,12.7l4.02,12.97"/>
    <path class="cls-40" d="M371.44,96.86s17.16-.36,17.42-14.33c.26-13.97-20.01,11.09-20.01,11.09"/>
    <ellipse class="cls-58" cx="361.37" cy="94.68" rx="3.79" ry="11.38" transform="translate(234.75 446.14) rotate(-84.87)"/>
    <path class="cls-40" d="M305.33,113.66s-19.52,4.1-24.02-13.09c-4.51-17.18,3.78-11.54,3.78-11.54,0,0,10.63,18.71,19.16,20.13"/>
    <path class="cls-40" d="M313.12,115.02s-9.21,17.69-25.35,10.27-6.52-10.25-6.52-10.25c0,0,21.21,3.65,27.72-2.04"/>
    <path class="cls-40" d="M313.78,115.02s9.21,17.69,25.35,10.27c16.14-7.42,6.52-10.25,6.52-10.25,0,0-21.21,3.65-27.72-2.04"/>
    <path class="cls-40" d="M371.79,153.83s-9.21,17.69-25.35,10.27c-16.14-7.42-6.52-10.25-6.52-10.25,0,0,21.21,3.65,27.72-2.04"/>
    <path class="cls-40" d="M372.45,153.83s9.21,17.69,25.35,10.27c16.14-7.42,6.52-10.25,6.52-10.25,0,0-21.21,3.65-27.72-2.04"/>
    <path class="cls-40" d="M306.65,108.33l-12.06-10.91s-5.2-3.06-.54-8.58c4.66-5.51,10.4-.2,10.4-.2,0,0,9.16,14.43,9.79,19.41"/>
    <path class="cls-40" d="M364.82,146.43l-12.06-10.91s-5.2-3.06-.54-8.58c4.66-5.51,10.4-.2,10.4-.2,0,0,9.16,14.43,9.79,19.41"/>
    <path class="cls-40" d="M319.46,109.48l3.81-14.96s-.58-11.49-7.19-10.89c-6.61,.59-3.62,12.7-3.62,12.7l4.02,12.97"/>
    <path class="cls-40" d="M323.96,114.01s17.16-.36,17.42-14.33c.26-13.97-20.01,11.09-20.01,11.09"/>
    <ellipse class="cls-58" cx="313.89" cy="111.83" rx="3.79" ry="11.38" transform="translate(174.43 414.46) rotate(-84.87)"/>
    <path class="cls-40" d="M364.06,151.5s-19.61,3.64-23.71-13.65c-4.1-17.28,4.06-11.45,4.06-11.45,0,0,10.19,18.95,18.68,20.58"/>
    <path class="cls-40" d="M378.29,147.66l4.17-14.86s-.31-11.5-6.93-11.06-3.92,12.61-3.92,12.61l3.71,13.06"/>
    <path class="cls-40" d="M382.67,152.29s17.17,.05,17.76-13.91c.59-13.96-20.27,10.61-20.27,10.61"/>
    <ellipse class="cls-58" cx="372.66" cy="149.87" rx="3.79" ry="11.38" transform="translate(181.65 503.22) rotate(-83.51)"/>
    <path class="cls-8" d="M372.23,153.64s-9.94,99.06-44.15,76.52"/>
    <path class="cls-8" d="M361.03,98.46s-7.59,140.96-26.51,132.11"/>
    <path class="cls-8" d="M313.55,115.61s-6.82,87.91,43.89,110.85c0,0,4.35,1.96,8.47-2.47"/>
    <path class="cls-40" d="M400.28,117.91s19.52,4.1,24.02-13.09c4.51-17.18-3.78-11.54-3.78-11.54,0,0-10.63,18.71-19.16,20.13"/>
    <path class="cls-40" d="M392.49,119.28s9.21,17.69,25.35,10.27c16.14-7.42,6.52-10.25,6.52-10.25,0,0-21.21,3.65-27.72-2.04"/>
    <path class="cls-40" d="M391.83,119.28s-9.21,17.69-25.35,10.27-6.52-10.25-6.52-10.25c0,0,21.21,3.65,27.72-2.04"/>
    <path class="cls-40" d="M398.96,112.59l12.06-10.91s5.2-3.06,.54-8.58c-4.66-5.51-10.4-.2-10.4-.2,0,0-9.16,14.43-9.79,19.41"/>
    <path class="cls-40" d="M386.15,113.74l-3.81-14.96s.58-11.49,7.19-10.89c6.61,.59,3.62,12.7,3.62,12.7l-4.02,12.97"/>
    <path class="cls-40" d="M381.65,118.26s-17.16-.36-17.42-14.33c-.26-13.97,20.01,11.09,20.01,11.09"/>
    <ellipse class="cls-58" cx="391.72" cy="116.09" rx="11.38" ry="3.79" transform="translate(-8.81 35.5) rotate(-5.13)"/>
    <path class="cls-8" d="M392.06,119.86s6.82,87.91-43.89,110.85c0,0-4.35,1.96-8.47-2.47"/>
    <path class="cls-42" d="M326.52,211.98l48.96-.1v24.73s18.99,6.43,17.53,34.48c-1.46,28.05-18.41,30.39-18.41,30.39v14.61h-47.33v-12.56s-21.62-10.81-17.82-36.82,18.41-32.14,18.41-32.14l-1.34-22.59Z"/>
    <path class="cls-7" d="M310.74,265.18c5.44,4.57,1.85,6.53,11.18,9.05,3.72,1,9.07-2.01,14.72-1.41,4.16,.44,8.67,4.69,13.99,4.69,4.33,0,8.9-4.17,14.06-4.57,4.4-.34,9.53,3.13,14.57,2.44,4.42-.61,8.46-5.32,13.4-6.24"/>
  </g>
  <g>
    <g>
      <path class="cls-63" d="M1418.28,788.78s3.15-5.73,11.29-4.23l40.5-3.07s9.51,6.58,10.31,26.27l-4.66,18.48-11.65,1.64,37.66,28.36s5.63,6.54,13.24,32.24c7.78,26.27-.6,41.14-.6,41.14,0,0-14.4,29.62-23.44,21.65l-72.63-162.48Z"/>
      <path class="cls-51" d="M1376.36,867.34c-45.22,5.83-101.35,23.19-101.35,23.19,0,0-39.79-67.96-9.63-79.35,30.16-11.39,82.22-3.92,82.22-3.92,34.23,1.75,46.61-7.67,46.61-7.67,18.55-13.98,34.48-8.15,34.48-8.15,0,0,15.37,4.78,20.04,26.05,4.35,19.83,41.48,40.92,41.48,40.92,19.17,11.55,17.3,35.83,17.3,35.83,2.73,5.37-1.14,9.51-1.14,9.51,2.91,10.83-2.45,13.93-2.45,13.93,2.53,10.12-3.5,15.06-3.5,15.06,2.39,6.11-4.77,10-4.77,10-6.27,8.59-8.53,6.48-13.7,4.47-5.17-2.01-5.39-18.85-5.39-18.85l-9.64-22.53-9.3-12.38-25.71-13.12c-12.04-7.62-22.93-11.02-22.93-11.02l-32.62-1.98Z"/>
      <path class="cls-18" d="M1480.22,923.2l6.2,11.43s2.43,7.82,9.24,8.12"/>
      <path class="cls-18" d="M1483.98,916.04s8.89,19.24,13.83,17.55l2.61-.84"/>
      <path class="cls-18" d="M1490.65,907.78s4.96,11.02,13.28,9.91"/>
      <path class="cls-18" d="M1499.08,900.12s2.37,5.76,7.3,3.64"/>
      <path class="cls-63" d="M1448.19,808.99l-24.58-5.78,5.95-18.66s-6-5.1-11.29,4.23c-5.29,9.33-4.56,14.51-4.56,14.51l-16.72-6.22s-13.32,3.86-13.24,9.13c0,0,15.99,1.05,23.93,5.87,0,0-3.3,31.11-8.89,56.98l10.17,.28,9.81-58.16,29.94,6.34-.54-8.51Z"/>
      <path class="cls-18" d="M1414.37,870.7l43.25,22.76,12.08,17.16,6.87,17.76s-.79,23.91,13.38,20.2"/>
      <path class="cls-63" d="M1457.63,893.46s12.09-7.85,28.32-37.86c0,0,16.99,8.45,18.72,20.75,0,0-36.45,18-33.8,36.77,0,0-13.81-14.3-13.25-19.66Z"/>
      <line class="cls-18" x1="1325.07" y1="876.23" x2="1287.08" y2="887.23"/>
    </g>
    <path class="cls-53" d="M1178.04,443.58l-34.65,85.56c-13,83.88-74.43,68.52-74.43,68.52-45.09-8.91-135.78-53-153.84-60.64l21.81-32.93c73.11,1.9,133.95,17.37,133.95,17.37,5.76-37.22,22.89-105.74,22.89-105.74"/>
    <path class="cls-53" d="M1234.81,209.77s23.83,49.16,58.71,51.54c0,0-4.03,128.53-96.02,141.84,0,0-70.92-10.78-39.24-104.67,0,0,9.55-5.73,9.38-17.36"/>
    <path class="cls-53" d="M1234.27,175.88s-19.14-84.46-96.33-76.55c0,0-54.2,10.13-36.68,86.08,0,0,5.24,11.73,4.38,18.64,0,0-1.14,17.55,9.95,31.82,16.61,21.37,31.66,36.11,31.66,36.11,0,0,9.46,9.93,28.44,6.67,0,0,13.24-2.83,28.18-16.82,0,0,39.25-27.36,32.42-52.13,0,0,21.02,9.02,23.9-22.3,0,0-.3-42.56-25.93-11.53h.01Z"/>
    <path class="cls-70" d="M1159.64,162.67s24.15-13.26,37.71-7.21c0,0-11.55-11.7-39.59,1.19,0,0-4.39,4.97,1.89,6.02Z"/>
    <path class="cls-70" d="M1096.41,168.26c.36-1.45,13.53-3.78,26.02-3.12,0,0,5.92,3.01,.47,6.29,0,0-23.05-4.33-25.41,3.28,0,0-1.95-2.86-1.07-6.45h-.01Z"/>
    <path class="cls-17" d="M1137.28,203.94s-7.55,17.7,11.2,16.04"/>
    <path class="cls-17" d="M1256.05,179.47s-10.03-16.38-18.16,14.61c0,0,9.12-14.74,13.21-4.38"/>
    <path class="cls-70" d="M1164.45,278.97s6.88,4.28,25.81-6.73c0,0,16.62-9.33,28.91-23.79,0,0-14.51,23.96-38.84,31.8,0,0-6.27,3.25-16.32,1.69,0,0,1.41-.43,.45-2.97h0Z"/>
    <path class="cls-55" d="M1188.1,225.81s-13.19-1.47-27.22,5.59c0,0-13.31-.11-24.36,4.65,0,0,5.24,20.45,25.52,21.32,20.29,.87,28.73-19.54,26.06-31.55h0Z"/>
    <path class="cls-43" d="M1185.27,227.87s3.69,18.28-20.12,22.83c-21.63,4.13-24.91-12.13-24.91-12.13,0,0,24.57-3.56,45.03-10.7h0Z"/>
    <path class="cls-40" d="M1182.37,228.69s-4.28,9.6-22.87,12.24c0,0-11.25,2.75-17.17-2.39,0,0,23.84-4.02,40.04-9.85h0Z"/>
    <g>
      <path class="cls-40" d="M1189.81,173.26s-.08-.57-.58-.97c-1.63-1.34-5.26-3.76-10.28-2.99-5.62,.86-7.91,6.61-8.68,8.66-.13,.35-.07,.64-.07,.64,0,0,.02,.32,.25,.5,1.05,.9,4.49,3.36,9.83,2.63,3.18-.43,7.37-2.82,9.46-7.54,.15-.33,.11-.71,.06-.92h0Z"/>
      <circle class="cls-70" cx="1178.36" cy="176.04" r="5.88"/>
      <circle class="cls-40" cx="1181.3" cy="173.3" r="1.61" transform="translate(-9.79 90.73) rotate(-4.38)"/>
      <path class="cls-11" d="M1169.93,178.02s4.79-14.47,19.51-5.8"/>
    </g>
    <g>
      <path class="cls-40" d="M1125.04,188.03s0-.54-.4-.98c-1.32-1.48-4.36-4.25-9.13-4.26-5.35,0-8.3,5.02-9.31,6.81-.18,.3-.16,.58-.16,.58,0,0-.02,.3,.16,.51,.85,.99,3.7,3.76,8.77,3.84,3.01,.05,7.25-1.57,9.88-5.66,.18-.28,.2-.65,.19-.85h0Z"/>
      <circle class="cls-70" cx="1113.99" cy="188.96" r="5.51" transform="translate(-11.18 85.63) rotate(-4.38)"/>
      <circle class="cls-40" cx="1117.28" cy="186.72" r="1.54" transform="translate(-11 85.88) rotate(-4.38)"/>
      <path class="cls-11" d="M1106.1,189.79s6.11-13.53,18.7-2.52"/>
    </g>
    <path class="cls-40" d="M1290.84,266.74s20.37-6.79,56.16,20.37c71.8,41.39,60.48,140.09,60.48,140.09,0,0-19.75,6.79-53.42,3.35l77,146.78s-94.15,74.51-200.43,77.63c0,0-29.96,.21-67.06-25.68,0,0,4.77-65.64-24.98-117.34,0,0-21.98-22.25-27.65-65l-20.34-32.41,4.33-61.15s.58-25.5,43.82-48.15c0,0,14.49-11.4,26.04-14.29,0,0-14.52,24.69,.99,43.94,0,0,39.61,37.18,96.32-5.45,0,0,31.95-37.76,9.44-68.99l19.3,6.3Z"/>
    <path class="cls-64" d="M1163.57,629.28s-115.3,55.42-139.79,96.62-4.45,85.74-4.45,85.74c0,0,11.14,35.63,24.5,47.88,0,0,11.14,65.7,102.45,55.68l261.46-42.63s10.2-27.21-13.61-62.08c0,0,130.03-72.6,36.95-233.16,0,0-79.47,59.69-167.06,73.29,0,0-51.13,12.66-100.45-21.34h0Z"/>
    <path class="cls-6" d="M1394.11,810.5s-102.52,31.78-186.43,29.57"/>
    <path class="cls-6" d="M1043.82,859.53s-18.61-55.91,9.03-83.43c24.31-24.21,99.91-64.82,99.91-64.82"/>
    <line class="cls-26" x1="1323.55" y1="429.61" x2="1313.61" y2="384.61"/>
    <path class="cls-13" d="M1110.94,446.94s-2.35-36.21,.93-50.29"/>
    <path class="cls-51" d="M936.93,504.09c-3.98-.44-7.86-.82-11.6-1.12,0,0-6.78-19.19-41.9-20.45l-22.87-8.97s-13.88-1.6-6.61,9.98c0,0,8.06,5.25,14.74,8.23l-13.13,11.48s.3-2.48-8.47,1.27c-7.13,3.05-4.57,4.72-4.57,4.72,0,0-8.75-7.6-19.06-13.31-6.71-3.71-10.13-9.49-17.3-4.78,0,0-6.22,5.1,4.35,12.88l21.47,21.41,44.4,9.07,31.43-1.83,7.33,4.34"/>
    <path class="cls-27" d="M874.81,487.83s-3.79,1.83-6.11,4.03"/>
    <path class="cls-27" d="M897.72,518.72s-15.24-12.1-22.6-11.88c0,0-3.14,.4-7.77-4.83-4.41-4.98-6.06-11.63-11.05-9.32-7.22,3.35-.75,10.55-.75,10.55l13.53,16.48"/>
    <path class="cls-27" d="M925.33,502.97s-1.32,7.97-8.82,14.1"/>
    <path class="cls-27" d="M859.45,507.96l-5.94-6.58-1.78-10.52s-1.2-5.25-6.66-5.06c-6.08,.21-5.47,7.39-5.47,7.39l3.51,13.88,11.46,14.54"/>
    <path class="cls-27" d="M843.11,507.06l-3.63-3.2-1.78-10.52s-1.2-5.25-6.66-5.06c-6.08,.21-5.47,7.39-5.47,7.39l3.51,13.88,11.46,14.54"/>
    <path class="cls-27" d="M1070.88,521.46s17.57,6.5,18.16,23.63"/>
    <path class="cls-67" d="M1124.11,116.43s64.58,78.58,133.05,66.08c0,0-.5,30.83-22.03,28.42,0,0-2.54,24.35,21.13,42.97,0,0,16.18,12.03,48.25,14.54,20.47,1.6,42.5,18.66,42.5,18.66,0,0-50.23-34.75-55.49-83.59-8.06-74.76-54.34-107.65-54.34-107.65,0,0-57.58-58.43-116.94-9.51,0,0-35.43,8.49-44.07,45.61-4.99,21.47,3.6,57.81,10.76,86.77,0,0,16.26,71.92,51.15,86.26,0,0,31.89-1.61,30.65-26.36,0,0-13.66-.78-19.06-5.88-11.92-11.28-22.77-21.58-33.18-34.96,0,0-11.09-13.24-10.02-33.66,0,0-.36-10.56-4.55-15.91,0,0-12.96-41.92,22.2-71.81"/>
    <path class="cls-14" d="M1241.83,196.94s13.44,13.56,4.41,25.34c-9.02,11.78-8-12.71-8-12.71"/>
    <path class="cls-53" d="M1325.65,429.59s-.59,69.6,2.38,93.4l-154.08,9.52s-14.28-22.61-38.07-13.68c-23.8,8.92-28.56,8.33-28.56,8.33,0,0-22.01-1.19-20.23,8.33,1.78,9.52,22.01,5.95,22.01,5.95l16.66-3.57-64.25,52.95s-4.75,5.59-1.68,8.94c3.07,3.35,7.82,1.12,7.82,1.12,0,0,8.66,5.59,21.51-3.35,0,0,7.82,4.75,16.48-.28,0,0,9.22,2.79,22.35-5.03,13.13-7.82,38.84-24.03,38.84-24.03l12.72,.42s128.52,35.86,174.73,30.31c0,0,38.21,2.12,42.42-35.16l6.16-135.55"/>
    <path class="cls-2" d="M1102.35,577.7l-34.69,23.17s-6.56,2.95-8.45-2.73c-1.39-4.18,2.31-7.33,2.31-7.33l64.25-52.95-14.61,2.96s-21.64,5.24-24.06-5.34c-2.41-10.58,20.23-8.33,20.23-8.33,0,0,12.39-2.05,20.75-5.64"/>
    <path class="cls-2" d="M1116.37,579.34l-27.2,18.17s-11.87,8.67-21.51,3.35"/>
    <path class="cls-2" d="M1130.85,580.03l-25.2,17.21s-8.41,5.82-16.48,.28"/>
    <path class="cls-2" d="M1130.06,590.77s-9,8.14-24.4,6.46"/>
  </g>
  <g>
    <path class="cls-47" d="M389.62,773.46s-20.58,92.3,45.19,100.66c0,0-1.65,6.24-2.21,21.84,0,0,122.04,35.57,153.24,24.98,31.21-10.59,46.81-28.42,45.7-41.25,0,0,49.05-22.85,2.23-75.8l-86.8-44.34s20.73,17.28-157.36,13.9h0Z"/>
    <path class="cls-10" d="M631.54,879.71s15.33-58.86-108.04-91.89"/>
    <g>
      <path class="cls-54" d="M421.72,867.12s-12.6-9.07-19.44-6.94c0,0-10.87,12.82-2.36,23.63,0,0,7.69-11.97,21.8-16.68Z"/>
      <path class="cls-54" d="M516.81,921.74c-25.49-3.81-98.04-19.62-98.04-19.62-5.48-7.29-15.5-13.56-15.5-13.56,5.11-12.53,26.29-16.89,26.29-16.89,0,0,17,5.07,35.66,3.82,18.65-1.25,53.06,.77,53.06,.77,0,0,30.32-1.47,44.5,3.42,0,0,53.7,1.35,64.43-24.32,0,0,24.73-7.93,20.53-33.6,0,0,22.87,38.74-16.8,61.6,0,0-4.26,54.82-114.13,38.38Z"/>
      <path class="cls-47" d="M402.29,860.17s-9.13-6.28-13.17-4.92c0,0-5.15,9.29-3.59,22.98,0,0,.89,7.44-6.21,14.15-7.1,6.71-14.22,35.75-6.85,46.4,7.37,10.65,18.7-4.32,18.7-4.32,0,0,9.58-21.76,20.3-24.12,10.72-2.35,7.31-8.22,7.31-8.22,0,0-6.46-11.68-13.8-14.24,0,0,5.08-11.61,24.59-16.21l-7.83-4.56s-16.11,5.07-21.03,15.55c0,0-8.48-5.42,1.6-22.49Z"/>
      <circle class="cls-63" cx="401.27" cy="886.06" r="4.96"/>
      <circle class="cls-63" cx="385.56" cy="896.76" r="3.28"/>
      <circle class="cls-63" cx="379.85" cy="906.87" r="3.28"/>
      <circle class="cls-63" cx="376.45" cy="918.82" r="3.28"/>
      <circle class="cls-63" cx="376.27" cy="929.34" r="3.28"/>
      <circle class="cls-63" cx="378.35" cy="938.64" r="3.28"/>
      <path class="cls-5" d="M392.6,899.25s-13.94,22.7-5.86,36.53"/>
    </g>
    <path class="cls-2" d="M628.77,745.54s-10.2,5.18-22.56,.93"/>
    <path class="cls-2" d="M625.54,753.36s-10.2,5.18-22.56,.93"/>
    <path class="cls-2" d="M617.43,760.52s-5.36,2.11-14.81-1.76"/>
    <path class="cls-54" d="M438,520.1s3.67,14.45-1.21,28.46c0,0,4.11,47.78,42.25,58.62,0,0,48.21-23.23,27.3-56.1,0,0-7.44-4.11-5.9-10.49,0,0-47.28-5.41-54.69-34.53l-7.76,14.03Z"/>
    <path class="cls-54" d="M503.41,430.22s11.8,6.36,16.46,31.55c4.66,25.18,8.22,30.21,6.13,51.11-2.2,21.98-30.97,30.22-30.97,30.22,0,0-46.35,.1-57.02-23,0,0-8.16,14.31-20.82-.75,0,0-14.27-16.44-5.96-23.04,0,0,9.3-5.66,17.19,3.82,0,0-14.31-42.11-.98-51.74,0,0,29.27-42.3,75.98-18.18h0Z"/>
    <path class="cls-3" d="M501.01,488.03s9.97,10.63-3.79,14.31"/>
    <path class="cls-3" d="M413.74,505.17s2.37-11.73,13.76,4.67c0,0-8.49-6.68-8.67,.26"/>
    <path class="cls-70" d="M500.08,541.19s-9.87,2.6-19.44,.73c0,0-8.29-.32-19.43-4.4,0,0,8.27,6.4,22.92,8.18,0,0,9.93,.55,16.4-1.93,0,0-.54-1.21-.45-2.58h0Z"/>
    <path class="cls-50" d="M481.29,514.13s7-3.48,16.17-2.41c0,0,7.33-2.75,14.41-2.35,0,0,1.23,12.37-9.81,16.94-11.04,4.58-19.83-5-20.77-12.19Z"/>
    <path class="cls-43" d="M483.28,514.7s1.66,10.85,15.74,8.56c12.79-2.08,11.32-11.74,11.32-11.74,0,0-14.3,2.99-27.05,3.19h0Z"/>
    <path class="cls-40" d="M485.05,514.57s4.3,4.45,15.12,2.15c0,0,6.78-.75,9.01-4.79,0,0-14,2.59-24.13,2.64Z"/>
    <path class="cls-70" d="M474.55,471.39s-17.81-.16-24.61,5.93c0,0,4.23-8.18,24.32-9.15,0,0,3.85,1.2,.29,3.21h0Z"/>
    <path class="cls-70" d="M519.28,460.92c-.46-.66-8.87,.21-16.38,2.42,0,0-3.12,2.36,.74,3.13,0,0,13.35-5.6,16.04-2.25,0,0,.73-1.69-.4-3.31Z"/>
    <g>
      <path class="cls-40" d="M459.68,484.05s-.09-.41,.15-.82c.79-1.36,2.73-3.99,6.45-4.75,4.17-.84,7.25,2.61,8.32,3.85,.18,.21,.22,.42,.22,.42,0,0,.06,.23-.05,.42-.51,.9-2.29,3.51-6.23,4.37-2.34,.51-5.89-.09-8.58-2.87-.19-.19-.25-.48-.28-.63h0Z"/>
      <circle class="cls-70" cx="468.43" cy="483.06" r="4.4"/>
      <circle class="cls-40" cx="465.54" cy="482.73" r="1.2"/>
      <path class="cls-4" d="M474.87,482.29s-7.08-8.93-15.19,.93"/>
    </g>
    <g>
      <path class="cls-40" d="M503.65,477.58s-.14-.37,.02-.78c.54-1.36,1.94-4.05,5.25-5.26,3.71-1.35,7.02,1.37,8.17,2.36,.2,.17,.25,.36,.25,.36,0,0,.09,.2,.01,.39-.34,.9-1.61,3.54-5.09,4.88-2.07,.8-5.42,.75-8.27-1.42-.2-.15-.3-.4-.34-.54v.02Z"/>
      <circle class="cls-70" cx="511.53" cy="475.42" r="4.06"/>
      <circle class="cls-40" cx="508.73" cy="475.64" r="1.14"/>
      <path class="cls-4" d="M517.2,474s-7.66-7.82-13.59,2.99"/>
    </g>
    <path class="cls-54" d="M369.01,595.28l-31.49,19.6-33.55-46.95s-2.96-3.69-.93-7.91,2.7-19.45-4.41-34.57l-2.11-2.23-9.24-21.12s-1.31-3.48-4.82-1.09c0,0-.14,5.91,1.19,11.26l-4.97-10.79s-5.31-1.27-4.62,3.92,8.41,24.96,8.41,24.96c0,0-.25,3.71-1.66,1.43s-6.79-19.68-6.79-19.68c0,0-3.53-2.88-4.92,1.85-1.39,4.73,6.41,24.18,6.41,24.18,0,0-1.33,3.65-3.76,1.59s-6.83-10.22-6.83-10.22c0,0-5.27-2.49-5.3,2.24,0,0,6.08,13.74,8.81,15.73l5.61,19.18s2.81,9.28,8.09,11.78c0,0,20.45,85.75,45.23,87.35s60.33-21.83,60.33-21.83"/>
    <path class="cls-2" d="M296.52,523.23l-9.46-7.5s-7.18,4.22,1.01,13.76c0,0,4.12,5.78,4.05,8.23,0,0-10.27,4.9-6.49,19.27"/>
    <path class="cls-2" d="M284.88,535.45s-9.31,1.56-14.47,10.13"/>
    <line class="cls-2" x1="283.65" y1="512.29" x2="284.85" y2="516.28"/>
    <path class="cls-2" d="M337.52,614.88s7.68,11.29,.62,18.38"/>
    <path class="cls-54" d="M579.36,576.68l34.97,12.37,22.68-53.06s2.1-4.24-.79-7.92c-2.89-3.68-6.82-18.41-3.13-34.71l1.58-2.63,4.49-22.61s.53-3.68,4.47-2.1c0,0,1.41,5.75,1.26,11.25l2.54-11.6s4.91-2.38,5.35,2.83-2.85,26.19-2.85,26.19c0,0,1.04,3.57,1.93,1.04s2.4-20.68,2.4-20.68c0,0,2.83-3.57,5.21,.75s-1.06,25-1.06,25c0,0,2.08,3.28,4.02,.75s4.47-11.45,4.47-11.45c0,0,4.62-3.57,5.65,1.05,0,0-2.99,14.73-5.22,17.26l-1.36,19.94s-.75,9.67-5.37,13.24c0,0-1.54,88.14-25.4,95.03-23.86,6.89-63.61-8.35-63.61-8.35"/>
    <path class="cls-2" d="M634.67,490.74l7.63-9.36s7.92,2.58,1.97,13.66c0,0-2.78,6.53-2.19,8.91,0,0,11.08,2.58,10.48,17.43"/>
    <path class="cls-2" d="M648.66,500.17s9.42-.48,16.3,6.78"/>
    <line class="cls-2" x1="644.88" y1="477.28" x2="644.57" y2="481.44"/>
    <path class="cls-2" d="M614.33,589.06s-5.07,12.68,3.35,18.08"/>
    <path class="cls-31" d="M547.36,756.9c2.46-27.04-.38-132.52-.38-132.52l24.61,3.87,15.72-51.15s-15.88-10.2-39.87-22.42c-23.99-12.22-45.66-8.13-45.66-8.13,10.8,17.55,6.66,32.76-13.98,36.99-1.47,.3-3.33,18.42-5.7,18.88s-5.26-16.75-7-16.71c-27.89,.62-38.29-37.15-38.29-37.15l-35.11,9.06-42.76,37.82,22.48,55.61,15.94-5.45s-9.57,72.51-7.73,127.85c0,0,153.61,28.83,157.74-16.56Z"/>
    <path class="cls-2" d="M397.35,645.61s35.54-17.52,40.07-36.42c4.66-19.45-6.35-27.2-6.35-27.2"/>
    <line class="cls-2" x1="546.98" y1="624.38" x2="542.38" y2="603.61"/>
    <g>
      <path class="cls-66" d="M510.12,436.67s-14.04,4.63-21.77,.81c-7.74-3.82-59.23,12.53-60.17,63.81,0,0-5.74-8.71-17.46-3.57,0,0-24.56-76.61,43.09-85.3,0,0,32.92-9.87,56.32,24.25Z"/>
      <path class="cls-63" d="M415.47,496.83s-4.21-30.16,25-31.03c0,0,5.21-2.83,1.41-7.06,0,0-33.24,4.42-31.16,38.98,0,0,1.58-1.75,4.76-.89Z"/>
      <path class="cls-63" d="M462.06,444.27s-.56,6.73-7.09,6.27c-14.9-1.04-40.93,8.38-46.51,32.35,0,0-2.36-1.33-.5-6.89,1.86-5.56,12.67-35.72,54.1-31.73Z"/>
      <path class="cls-63" d="M478.44,435.36s-.3,5.53-5.24,5.65c0,0-51.92-12.49-66.86,27.52,0,0,10.65-43.97,72.1-33.17Z"/>
      <path class="cls-63" d="M492.48,427.86s-2.9,7.05-7.61,5.55c-4.71-1.5-67.35-14.04-78.52,26.6,0,0,6.16-47.95,86.13-32.16Z"/>
      <path class="cls-63" d="M485.77,418.9s2.06,5.63-8.68,3.92-58-.96-68.17,23.58c0,0,13.15-36.32,76.85-27.5Z"/>
      <path class="cls-63" d="M491.93,434.22s7.53,4.12,9.92,.03c2.39-4.09,3.38-5.83,3.38-5.83l-6.84-6.07-6.46,11.87Z"/>
      <path class="cls-63" d="M486.63,423.7s8.42,4.74,9.12-2.96l-4.77-3.31-4.35,6.27Z"/>
      <polygon class="cls-63" points="480.35 414.92 487.26 417.06 487.86 414.61 481.2 412.42 480.35 414.92"/>
      <path class="cls-63" d="M467.56,414.89l9.21,.42,1.22-3.35s-4.59-2.3-9.09-1.22l-1.34,4.16Z"/>
      <path class="cls-63" d="M454.95,415.87l9.78-.73,1.13-3.86s-6.06-1.77-10.13,.27l-.78,4.32Z"/>
      <path class="cls-63" d="M442.41,418.66l8.54-1.81,.53-4.27s-6.04-.21-9.21,2.45l.13,3.63Z"/>
      <path class="cls-63" d="M438.87,416.43l.69,3.79s-13.29,2.97-16.83,6.48c0,0,7.85-8.51,16.14-10.27Z"/>
    </g>
    <path class="cls-57" d="M438.39,541.58s-6.1-.82-7.63,6.93c-.98,4.98-8.25,8.18-8.25,8.18,0,0,.83,25.98,18.95,38.21,0,0,15.18-12.7,33.63-9.2,0,0-45.84-25.98-36.7-44.12Z"/>
    <path class="cls-57" d="M500.58,546.17s12.58,8.9-12.79,37.37c0,0,17.83-2.27,24.2,5.52,0,0,9.03-23.14,8.49-36.92,0,0-16.28-11.07-19.9-5.97Z"/>
  </g>
</svg>