<?xml version="1.0" encoding="UTF-8"?>
<svg xmlns="http://www.w3.org/2000/svg" xmlns:xlink="http://www.w3.org/1999/xlink" viewBox="0 0 1450.92 1087.23">
  <defs>
    <style>
      .cls-1, .cls-2, .cls-3, .cls-4, .cls-5, .cls-6, .cls-7, .cls-8, .cls-9, .cls-10, .cls-11, .cls-12, .cls-13, .cls-14 {
        fill: none;
      }

      .cls-2 {
        stroke-width: 1.5px;
      }

      .cls-2, .cls-3, .cls-4, .cls-5, .cls-6, .cls-7, .cls-15, .cls-8, .cls-9, .cls-10, .cls-11, .cls-12, .cls-13, .cls-14 {
        stroke-miterlimit: 10;
      }

      .cls-2, .cls-5, .cls-7, .cls-9 {
        stroke: #231f20;
      }

      .cls-16 {
        clip-path: url(#clippath);
      }

      .cls-3 {
        stroke: #754c29;
      }

      .cls-3, .cls-4, .cls-5 {
        stroke-width: .8px;
      }

      .cls-4, .cls-14 {
        stroke: #603913;
      }

      .cls-17 {
        fill: #00979c;
      }

      .cls-18 {
        fill: #f6ac1b;
      }

      .cls-19 {
        fill: #f05380;
      }

      .cls-20, .cls-15 {
        fill: #fff;
      }

      .cls-21 {
        fill: #f5bc49;
      }

      .cls-22 {
        fill: #f16225;
      }

      .cls-23 {
        fill: #81aa40;
      }

      .cls-24 {
        fill: #803435;
      }

      .cls-25 {
        fill: #939598;
      }

      .cls-26 {
        fill: #8b6340;
      }

      .cls-27 {
        fill: #bd9154;
      }

      .cls-28 {
        fill: #be9e7d;
      }

      .cls-29 {
        fill: #be8c8c;
      }

      .cls-30 {
        fill: #bde4e0;
      }

      .cls-31 {
        fill: #bf6b6b;
      }

      .cls-32 {
        fill: #b13c27;
      }

      .cls-33 {
        fill: #e19926;
      }

      .cls-34 {
        fill: #ac8263;
      }

      .cls-35 {
        fill: #e2b159;
      }

      .cls-36 {
        fill: #ca544c;
      }

      .cls-37 {
        fill: #231f20;
      }

      .cls-38 {
        fill: #1fa8df;
      }

      .cls-39 {
        fill: #194246;
      }

      .cls-40 {
        fill: #0f3e5d;
      }

      .cls-41 {
        fill: #3c2415;
      }

      .cls-42 {
        fill: #338ecd;
      }

      .cls-43 {
        fill: #59bede;
      }

      .cls-44 {
        fill: #783318;
      }

      .cls-45 {
        fill: #7d2f7c;
      }

      .cls-46 {
        fill: #4c96a4;
      }

      .cls-47 {
        fill: #26130f;
      }

      .cls-6 {
        stroke-dasharray: 0 0 2.99 2.99;
      }

      .cls-6, .cls-11 {
        stroke: #fff;
      }

      .cls-7 {
        stroke-linecap: round;
      }

      .cls-7, .cls-14 {
        stroke-width: .5px;
      }

      .cls-15 {
        stroke: #006838;
      }

      .cls-8 {
        stroke: #1c75bc;
        stroke-width: 2px;
      }

      .cls-10 {
        stroke: #fbb040;
      }

      .cls-12 {
        stroke: #6d6e71;
      }

      .cls-13 {
        stroke: #be1e2d;
      }

      .cls-48 {
        opacity: .8;
      }
    </style>
    <clipPath id="clippath">
      <rect class="cls-1" x="68.45" y="54.21" width="1335.29" height="998.31"/>
    </clipPath>
  </defs>
  <g id="fondo">
    <g class="cls-16">
      <g>
        <rect class="cls-27" y="770.06" width="1450.92" height="317.17"/>
        <rect class="cls-30" x=".92" width="1449.57" height="770.55"/>
        <g>
          <polygon class="cls-34" points="187.12 395.11 200.71 581.6 192.06 773.03 215.53 773.03 224.18 684.11 332.86 684.11 340.27 773.03 363.73 773.03 350.15 563.08 230.35 563.08 218 393.88 187.12 395.11"/>
          <polygon class="cls-30" points="227.33 658.4 231.24 599.71 323.2 599.71 328.09 659.38 227.33 658.4"/>
        </g>
        <g>
          <polygon class="cls-26" points="296.32 777.91 297.73 483.45 998.49 483.45 998.49 779.33 979.38 779.33 963.44 538.67 331.84 538.67 317.4 777.91 296.32 777.91"/>
          <g>
            <path class="cls-11" d="M278.2,515.53s-1.38,5.67-.13,9.1-.94,10.61-.94,10.61"/>
            <path class="cls-11" d="M282.18,516.1s-.5,10.56,.75,18.6"/>
            <path class="cls-11" d="M287.96,516.61s1.51,3.52-.5,7.54c-2.01,4.02-.5,11.31-.5,11.31"/>
            <path class="cls-11" d="M290.73,533.95s-2.01-10.81,.25-17.09"/>
            <line class="cls-11" x1="293.24" y1="517.11" x2="292.99" y2="535.46"/>
            <path class="cls-11" d="M335.76,517.79s-1.38,5.67-.13,9.1-.94,10.61-.94,10.61"/>
            <path class="cls-11" d="M339.74,518.37s-.5,10.56,.75,18.6"/>
            <path class="cls-11" d="M345.52,518.87s1.51,3.52-.5,7.54-.5,11.31-.5,11.31"/>
            <path class="cls-11" d="M348.28,536.21s-2.01-10.81,.25-17.09"/>
            <line class="cls-11" x1="350.79" y1="519.37" x2="350.54" y2="537.72"/>
            <path class="cls-11" d="M355.11,517.54s-1.38,5.67-.13,9.1-.94,10.61-.94,10.61"/>
            <path class="cls-11" d="M359.09,518.12s-.5,10.56,.75,18.6"/>
            <path class="cls-11" d="M364.87,518.62s1.51,3.52-.5,7.54c-2.01,4.02-.5,11.31-.5,11.31"/>
            <path class="cls-11" d="M367.63,535.96s-2.01-10.81,.25-17.09"/>
            <line class="cls-11" x1="370.15" y1="519.12" x2="369.9" y2="537.47"/>
            <path class="cls-11" d="M374.71,516.53s-1.38,5.67-.13,9.1-.94,10.61-.94,10.61"/>
            <path class="cls-11" d="M378.69,517.11s-.5,10.56,.75,18.6"/>
            <path class="cls-11" d="M384.47,517.61s1.51,3.52-.5,7.54-.5,11.31-.5,11.31"/>
            <path class="cls-11" d="M387.24,534.95s-2.01-10.81,.25-17.09"/>
            <line class="cls-11" x1="389.75" y1="518.12" x2="389.5" y2="536.46"/>
            <path class="cls-11" d="M393.31,515.03s-1.38,5.67-.13,9.1c1.25,3.43-.94,10.61-.94,10.61"/>
            <path class="cls-11" d="M397.29,515.6s-.5,10.56,.75,18.6"/>
            <path class="cls-11" d="M403.07,516.1s1.51,3.52-.5,7.54-.5,11.31-.5,11.31"/>
            <path class="cls-11" d="M405.84,533.45s-2.01-10.81,.25-17.09"/>
            <line class="cls-11" x1="408.35" y1="516.61" x2="408.1" y2="534.95"/>
            <path class="cls-11" d="M411.91,513.27s-1.38,5.67-.13,9.1-.94,10.61-.94,10.61"/>
            <path class="cls-11" d="M415.89,513.84s-.5,10.56,.75,18.6"/>
            <path class="cls-11" d="M421.67,514.35s1.51,3.52-.5,7.54-.5,11.31-.5,11.31"/>
            <path class="cls-11" d="M424.43,531.69s-2.01-10.81,.25-17.09"/>
            <line class="cls-11" x1="426.95" y1="514.85" x2="426.7" y2="533.2"/>
            <path class="cls-11" d="M430.76,512.26s-1.38,5.67-.13,9.1-.94,10.61-.94,10.61"/>
            <path class="cls-11" d="M434.74,512.84s-.5,10.56,.75,18.6"/>
            <path class="cls-11" d="M440.52,513.34s1.51,3.52-.5,7.54-.5,11.31-.5,11.31"/>
            <path class="cls-11" d="M443.28,530.68s-2.01-10.81,.25-17.09"/>
            <line class="cls-11" x1="445.8" y1="513.84" x2="445.55" y2="532.19"/>
            <path class="cls-11" d="M449.11,512.51s-1.38,5.67-.13,9.1-.94,10.61-.94,10.61"/>
            <path class="cls-11" d="M453.09,513.09s-.5,10.56,.75,18.6"/>
            <path class="cls-11" d="M458.87,513.59s1.51,3.52-.5,7.54-.5,11.31-.5,11.31"/>
            <path class="cls-11" d="M461.63,530.93s-2.01-10.81,.25-17.09"/>
            <line class="cls-11" x1="464.14" y1="514.09" x2="463.89" y2="532.44"/>
            <path class="cls-11" d="M467.96,512.51s-1.38,5.67-.13,9.1-.94,10.61-.94,10.61"/>
            <path class="cls-11" d="M471.93,513.09s-.5,10.56,.75,18.6"/>
            <path class="cls-11" d="M477.72,513.59s1.51,3.52-.5,7.54-.5,11.31-.5,11.31"/>
            <path class="cls-11" d="M480.48,530.93s-2.01-10.81,.25-17.09"/>
            <line class="cls-11" x1="482.99" y1="514.09" x2="482.74" y2="532.44"/>
            <path class="cls-11" d="M486.81,513.77s-1.38,5.67-.13,9.1-.94,10.61-.94,10.61"/>
            <path class="cls-11" d="M490.78,514.35s-.5,10.56,.75,18.6"/>
            <path class="cls-11" d="M496.57,514.85s1.51,3.52-.5,7.54-.5,11.31-.5,11.31"/>
            <path class="cls-11" d="M499.33,532.19s-2.01-10.81,.25-17.09"/>
            <line class="cls-11" x1="501.84" y1="515.35" x2="501.59" y2="533.7"/>
            <path class="cls-11" d="M505.66,515.53s-1.38,5.67-.13,9.1-.94,10.61-.94,10.61"/>
            <path class="cls-11" d="M509.63,516.1s-.5,10.56,.75,18.6"/>
            <path class="cls-11" d="M515.41,516.61s1.51,3.52-.5,7.54-.5,11.31-.5,11.31"/>
            <path class="cls-11" d="M518.18,533.95s-2.01-10.81,.25-17.09"/>
            <line class="cls-11" x1="520.69" y1="517.11" x2="520.44" y2="535.46"/>
            <path class="cls-11" d="M525.01,517.54s-1.38,5.67-.13,9.1-.94,10.61-.94,10.61"/>
            <path class="cls-11" d="M528.99,518.12s-.5,10.56,.75,18.6"/>
            <path class="cls-11" d="M534.77,518.62s1.51,3.52-.5,7.54-.5,11.31-.5,11.31"/>
            <path class="cls-11" d="M537.53,535.96s-2.01-10.81,.25-17.09"/>
            <line class="cls-11" x1="540.05" y1="519.12" x2="539.79" y2="537.47"/>
            <path class="cls-11" d="M543.86,518.8s-1.38,5.67-.13,9.1-.94,10.61-.94,10.61"/>
            <path class="cls-11" d="M547.84,519.37s-.5,10.56,.75,18.6"/>
            <path class="cls-11" d="M553.62,519.87s1.51,3.52-.5,7.54c-2.01,4.02-.5,11.31-.5,11.31"/>
            <path class="cls-11" d="M556.38,537.22s-2.01-10.81,.25-17.09"/>
            <line class="cls-11" x1="558.89" y1="520.38" x2="558.64" y2="538.72"/>
            <path class="cls-11" d="M562.71,519.8s-1.38,5.67-.13,9.1-.94,10.61-.94,10.61"/>
            <path class="cls-11" d="M566.69,520.38s-.5,10.56,.75,18.6"/>
            <path class="cls-11" d="M572.47,520.88s1.51,3.52-.5,7.54c-2.01,4.02-.5,11.31-.5,11.31"/>
            <path class="cls-11" d="M575.23,538.22s-2.01-10.81,.25-17.09"/>
            <line class="cls-11" x1="577.74" y1="521.38" x2="577.49" y2="539.73"/>
            <path class="cls-11" d="M582.06,519.55s-1.38,5.67-.13,9.1-.94,10.61-.94,10.61"/>
            <path class="cls-11" d="M586.04,520.13s-.5,10.56,.75,18.6"/>
            <path class="cls-11" d="M591.82,520.63s1.51,3.52-.5,7.54c-2.01,4.02-.5,11.31-.5,11.31"/>
            <path class="cls-11" d="M594.58,537.97s-2.01-10.81,.25-17.09"/>
            <line class="cls-11" x1="597.1" y1="521.13" x2="596.85" y2="539.48"/>
            <path class="cls-11" d="M600.66,518.54s-1.38,5.67-.13,9.1-.94,10.61-.94,10.61"/>
            <path class="cls-11" d="M604.64,519.12s-.5,10.56,.75,18.6"/>
            <path class="cls-11" d="M610.42,519.62s1.51,3.52-.5,7.54-.5,11.31-.5,11.31"/>
            <path class="cls-11" d="M613.18,536.97s-2.01-10.81,.25-17.09"/>
            <line class="cls-11" x1="615.69" y1="520.13" x2="615.44" y2="538.47"/>
            <path class="cls-11" d="M619,516.78s-1.38,5.67-.13,9.1-.94,10.61-.94,10.61"/>
            <path class="cls-11" d="M622.98,517.36s-.5,10.56,.75,18.6"/>
            <path class="cls-11" d="M628.76,517.86s1.51,3.52-.5,7.54-.5,11.31-.5,11.31"/>
            <path class="cls-11" d="M631.53,535.21s-2.01-10.81,.25-17.09"/>
            <line class="cls-11" x1="634.04" y1="518.37" x2="633.79" y2="536.71"/>
            <path class="cls-11" d="M637.85,513.01s-1.38,5.67-.13,9.1-.94,10.61-.94,10.61"/>
            <path class="cls-11" d="M641.83,513.59s-.5,10.56,.75,18.6"/>
            <path class="cls-11" d="M647.61,514.09s1.51,3.52-.5,7.54-.5,11.31-.5,11.31"/>
            <path class="cls-11" d="M650.38,531.44s-2.01-10.81,.25-17.09"/>
            <line class="cls-11" x1="652.89" y1="514.6" x2="652.64" y2="532.94"/>
            <path class="cls-11" d="M656.7,510s-1.38,5.67-.13,9.1c1.25,3.43-.94,10.61-.94,10.61"/>
            <path class="cls-11" d="M660.68,510.58s-.5,10.56,.75,18.6"/>
            <path class="cls-11" d="M666.46,511.08s1.51,3.52-.5,7.54-.5,11.31-.5,11.31"/>
            <path class="cls-11" d="M669.23,528.42s-2.01-10.81,.25-17.09"/>
            <line class="cls-11" x1="671.74" y1="511.58" x2="671.49" y2="529.93"/>
            <path class="cls-11" d="M675.81,507.49s-1.38,5.67-.13,9.1-.94,10.61-.94,10.61"/>
            <path class="cls-11" d="M679.78,508.06s-.5,10.56,.75,18.6"/>
            <path class="cls-11" d="M685.56,508.56s1.51,3.52-.5,7.54-.5,11.31-.5,11.31"/>
            <path class="cls-11" d="M688.33,525.91s-2.01-10.81,.25-17.09"/>
            <line class="cls-11" x1="690.84" y1="509.07" x2="690.59" y2="527.41"/>
            <path class="cls-11" d="M694.65,508.24s-1.38,5.67-.13,9.1-.94,10.61-.94,10.61"/>
            <path class="cls-11" d="M698.63,508.82s-.5,10.56,.75,18.6"/>
            <path class="cls-11" d="M704.41,509.32s1.51,3.52-.5,7.54-.5,11.31-.5,11.31"/>
            <path class="cls-11" d="M707.18,526.66s-2.01-10.81,.25-17.09"/>
            <line class="cls-11" x1="709.69" y1="509.82" x2="709.44" y2="528.17"/>
            <path class="cls-11" d="M713.5,509.5s-1.38,5.67-.13,9.1c1.25,3.43-.94,10.61-.94,10.61"/>
            <path class="cls-11" d="M717.48,510.07s-.5,10.56,.75,18.6"/>
            <path class="cls-11" d="M723.26,510.58s1.51,3.52-.5,7.54-.5,11.31-.5,11.31"/>
            <path class="cls-11" d="M726.03,527.92s-2.01-10.81,.25-17.09"/>
            <line class="cls-11" x1="728.54" y1="511.08" x2="728.29" y2="529.43"/>
            <path class="cls-11" d="M731.6,514.02s-1.38,5.67-.13,9.1c1.25,3.43-.94,10.61-.94,10.61"/>
            <path class="cls-11" d="M735.58,514.6s-.5,10.56,.75,18.6"/>
            <path class="cls-11" d="M741.36,515.1s1.51,3.52-.5,7.54-.5,11.31-.5,11.31"/>
            <path class="cls-11" d="M744.12,532.44s-2.01-10.81,.25-17.09"/>
            <line class="cls-11" x1="746.64" y1="515.6" x2="746.39" y2="533.95"/>
            <path class="cls-11" d="M749.7,516.78s-1.38,5.67-.13,9.1c1.25,3.43-.94,10.61-.94,10.61"/>
            <path class="cls-11" d="M753.67,517.36s-.5,10.56,.75,18.6"/>
            <path class="cls-11" d="M759.45,517.86s1.51,3.52-.5,7.54-.5,11.31-.5,11.31"/>
            <path class="cls-11" d="M762.22,535.21s-2.01-10.81,.25-17.09"/>
            <line class="cls-11" x1="764.73" y1="518.37" x2="764.48" y2="536.71"/>
            <path class="cls-11" d="M767.79,518.54s-1.38,5.67-.13,9.1c1.25,3.43-.94,10.61-.94,10.61"/>
            <path class="cls-11" d="M771.77,519.12s-.5,10.56,.75,18.6"/>
            <path class="cls-11" d="M777.55,519.62s1.51,3.52-.5,7.54c-2.01,4.02-.5,11.31-.5,11.31"/>
            <path class="cls-11" d="M780.32,536.97s-2.01-10.81,.25-17.09"/>
            <line class="cls-11" x1="782.83" y1="520.13" x2="782.58" y2="538.47"/>
            <path class="cls-11" d="M786.39,520.55s-1.38,5.67-.13,9.1c1.25,3.43-.94,10.61-.94,10.61"/>
            <path class="cls-11" d="M790.37,521.13s-.5,10.56,.75,18.6"/>
            <path class="cls-11" d="M796.15,521.63s1.51,3.52-.5,7.54c-2.01,4.02-.5,11.31-.5,11.31"/>
            <path class="cls-11" d="M798.91,538.98s-2.01-10.81,.25-17.09"/>
            <line class="cls-11" x1="801.43" y1="522.14" x2="801.18" y2="540.48"/>
            <path class="cls-11" d="M805.24,519.8s-1.38,5.67-.13,9.1c1.25,3.43-.94,10.61-.94,10.61"/>
            <path class="cls-11" d="M809.22,520.38s-.5,10.56,.75,18.6"/>
            <path class="cls-11" d="M815,520.88s1.51,3.52-.5,7.54-.5,11.31-.5,11.31"/>
            <path class="cls-11" d="M817.76,538.22s-2.01-10.81,.25-17.09"/>
            <line class="cls-11" x1="820.28" y1="521.38" x2="820.03" y2="539.73"/>
            <path class="cls-11" d="M824.09,517.54s-1.38,5.67-.13,9.1-.94,10.61-.94,10.61"/>
            <path class="cls-11" d="M828.07,518.12s-.5,10.56,.75,18.6"/>
            <path class="cls-11" d="M833.85,518.62s1.51,3.52-.5,7.54c-2.01,4.02-.5,11.31-.5,11.31"/>
            <path class="cls-11" d="M836.61,535.96s-2.01-10.81,.25-17.09"/>
            <line class="cls-11" x1="839.13" y1="519.12" x2="838.87" y2="537.47"/>
            <path class="cls-11" d="M841.68,511.76s-1.38,5.67-.13,9.1-.94,10.61-.94,10.61"/>
            <path class="cls-11" d="M845.66,512.33s-.5,10.56,.75,18.6"/>
            <path class="cls-11" d="M851.44,512.84s1.51,3.52-.5,7.54-.5,11.31-.5,11.31"/>
            <path class="cls-11" d="M854.21,530.18s-2.01-10.81,.25-17.09"/>
            <line class="cls-11" x1="856.72" y1="513.34" x2="856.47" y2="531.69"/>
            <path class="cls-11" d="M859.53,508.24s-1.38,5.67-.13,9.1c1.25,3.43-.94,10.61-.94,10.61"/>
            <path class="cls-11" d="M863.5,508.82s-.5,10.56,.75,18.6"/>
            <path class="cls-11" d="M869.29,509.32s1.51,3.52-.5,7.54-.5,11.31-.5,11.31"/>
            <path class="cls-11" d="M872.05,526.66s-2.01-10.81,.25-17.09"/>
            <line class="cls-11" x1="874.56" y1="509.82" x2="874.31" y2="528.17"/>
            <path class="cls-11" d="M877.87,506.48s-1.38,5.67-.13,9.1c1.25,3.43-.94,10.61-.94,10.61"/>
            <path class="cls-11" d="M881.85,507.06s-.5,10.56,.75,18.6"/>
            <path class="cls-11" d="M887.63,507.56s1.51,3.52-.5,7.54c-2.01,4.02-.5,11.31-.5,11.31"/>
            <path class="cls-11" d="M890.4,524.9s-2.01-10.81,.25-17.09"/>
            <line class="cls-11" x1="892.91" y1="508.06" x2="892.66" y2="526.41"/>
            <path class="cls-11" d="M896.22,506.48s-1.38,5.67-.13,9.1c1.25,3.43-.94,10.61-.94,10.61"/>
            <path class="cls-11" d="M900.2,507.06s-.5,10.56,.75,18.6"/>
            <path class="cls-11" d="M905.98,507.56s1.51,3.52-.5,7.54c-2.01,4.02-.5,11.31-.5,11.31"/>
            <path class="cls-11" d="M908.74,524.9s-2.01-10.81,.25-17.09"/>
            <line class="cls-11" x1="911.26" y1="508.06" x2="911.01" y2="526.41"/>
            <path class="cls-11" d="M914.82,507.49s-1.38,5.67-.13,9.1-.94,10.61-.94,10.61"/>
            <path class="cls-11" d="M918.8,508.06s-.5,10.56,.75,18.6"/>
            <path class="cls-11" d="M924.58,508.56s1.51,3.52-.5,7.54c-2.01,4.02-.5,11.31-.5,11.31"/>
            <path class="cls-11" d="M927.34,525.91s-2.01-10.81,.25-17.09"/>
            <line class="cls-11" x1="929.86" y1="509.07" x2="929.6" y2="527.41"/>
            <path class="cls-11" d="M932.91,509.5s-1.38,5.67-.13,9.1-.94,10.61-.94,10.61"/>
            <path class="cls-11" d="M936.89,510.07s-.5,10.56,.75,18.6"/>
            <path class="cls-11" d="M942.67,510.58s1.51,3.52-.5,7.54-.5,11.31-.5,11.31"/>
            <path class="cls-11" d="M945.44,527.92s-2.01-10.81,.25-17.09"/>
            <line class="cls-11" x1="947.95" y1="511.08" x2="947.7" y2="529.43"/>
            <path class="cls-11" d="M952.02,512.76s-1.38,5.67-.13,9.1-.94,10.61-.94,10.61"/>
            <path class="cls-11" d="M955.99,513.34s-.5,10.56,.75,18.6"/>
            <path class="cls-11" d="M961.77,513.84s1.51,3.52-.5,7.54c-2.01,4.02-.5,11.31-.5,11.31"/>
            <path class="cls-11" d="M964.54,531.18s-2.01-10.81,.25-17.09"/>
            <line class="cls-11" x1="967.05" y1="514.35" x2="966.8" y2="532.69"/>
            <path class="cls-11" d="M970.36,516.53s-1.38,5.67-.13,9.1-.94,10.61-.94,10.61"/>
            <path class="cls-11" d="M974.34,517.11s-.5,10.56,.75,18.6"/>
            <path class="cls-11" d="M980.12,517.61s1.51,3.52-.5,7.54-.5,11.31-.5,11.31"/>
            <path class="cls-11" d="M982.89,534.95s-2.01-10.81,.25-17.09"/>
            <line class="cls-11" x1="985.4" y1="518.12" x2="985.15" y2="536.46"/>
            <path class="cls-11" d="M989.97,517.29s-1.38,5.67-.13,9.1-.94,10.61-.94,10.61"/>
            <path class="cls-11" d="M993.94,517.86s-.5,10.56,.75,18.6"/>
            <path class="cls-11" d="M999.73,518.37s1.51,3.52-.5,7.54c-2.01,4.02-.5,11.31-.5,11.31"/>
            <path class="cls-11" d="M1002.49,535.71s-2.01-10.81,.25-17.09"/>
            <line class="cls-11" x1="1005" y1="518.87" x2="1004.75" y2="537.22"/>
            <path class="cls-11" d="M1007.56,513.77s-1.38,5.67-.13,9.1-.94,10.61-.94,10.61"/>
            <path class="cls-11" d="M1011.54,514.35s-.5,10.56,.75,18.6"/>
            <path class="cls-11" d="M1017.32,514.85s1.51,3.52-.5,7.54-.5,11.31-.5,11.31"/>
            <path class="cls-11" d="M1020.08,532.19s-2.01-10.81,.25-17.09"/>
            <path class="cls-11" d="M296.8,516.78s-1.38,5.67-.13,9.1-.94,10.61-.94,10.61"/>
            <path class="cls-11" d="M300.78,517.36s-.5,10.56,.75,18.6"/>
            <path class="cls-11" d="M306.56,517.86s1.51,3.52-.5,7.54-.5,11.31-.5,11.31"/>
            <path class="cls-11" d="M309.33,535.21s-2.01-10.81,.25-17.09"/>
            <line class="cls-11" x1="311.84" y1="518.37" x2="311.59" y2="536.71"/>
            <path class="cls-11" d="M316.15,517.54s-1.38,5.67-.13,9.1-.94,10.61-.94,10.61"/>
            <path class="cls-11" d="M320.13,518.12s-.5,10.56,.75,18.6"/>
            <path class="cls-11" d="M325.91,518.62s1.51,3.52-.5,7.54-.5,11.31-.5,11.31"/>
            <path class="cls-11" d="M328.68,535.96s-2.01-10.81,.25-17.09"/>
            <line class="cls-11" x1="331.19" y1="519.12" x2="330.94" y2="537.47"/>
          </g>
          <path class="cls-36" d="M1020.55,515.53v-64.43H278.2v64.43s69.21,7.72,118.98,1.18c0,0,68.1-6.55,112.63,0,0,0,90.37,13.1,150.61-3.93,0,0,51.08-7.86,69.41,1.31,0,0,72.77,23.94,129.66-2.62,0,0,45.84-7.86,79.89,0,0,0,27.41,18.6,81.15,4.06Z"/>
          <line class="cls-13" x1="397.18" y1="516.7" x2="397.18" y2="476.05"/>
          <line class="cls-13" x1="509.81" y1="516.7" x2="509.81" y2="487.62"/>
          <line class="cls-13" x1="660.43" y1="512.77" x2="660.43" y2="477.51"/>
          <line class="cls-13" x1="729.84" y1="514.08" x2="729.84" y2="478.7"/>
          <line class="cls-13" x1="859.5" y1="511.47" x2="859.5" y2="475.13"/>
          <line class="cls-13" x1="939.39" y1="511.47" x2="939.39" y2="478.7"/>
          <line class="cls-8" x1="278.1" y1="458.09" x2="1020.57" y2="458.09"/>
          <line class="cls-8" x1="278.1" y1="462.52" x2="1020.57" y2="462.52"/>
          <g class="cls-48">
            <g>
              <line class="cls-11" x1="278.1" y1="460.33" x2="279.6" y2="460.33"/>
              <line class="cls-6" x1="282.59" y1="460.33" x2="1017.57" y2="460.33"/>
              <line class="cls-11" x1="1019.07" y1="460.33" x2="1020.57" y2="460.33"/>
            </g>
          </g>
        </g>
        <g>
          <polyline class="cls-34" points="604.54 395.11 618.12 581.6 609.48 773.03 632.95 773.03 641.59 684.11 750.27 684.11 757.68 773.03 781.15 773.03 767.56 563.08 647.77 563.08"/>
          <polygon class="cls-30" points="644.75 658.4 648.66 599.71 740.62 599.71 745.51 659.38 644.75 658.4"/>
          <polygon class="cls-34" points="604.54 395.11 780.37 395.11 767.56 563.08 617.34 563.08 604.54 395.11"/>
        </g>
        <polygon class="cls-35" points="332.66 964.47 69.38 964.47 69.38 1051.99 281.37 1051.99 332.66 964.47"/>
        <polygon class="cls-23" points="544.05 964.47 332.66 964.47 280.77 1051.99 492.76 1051.99 544.05 964.47"/>
        <polygon class="cls-42" points="755.3 964.47 543.92 964.47 492.02 1051.99 704.01 1051.99 755.3 964.47"/>
        <polygon class="cls-45" points="966.13 964.47 754.74 964.47 702.85 1051.99 914.84 1051.99 966.13 964.47"/>
        <polygon class="cls-35" points="595.52 876.32 384.14 876.32 332.24 963.85 544.23 963.85 595.52 876.32"/>
        <polygon class="cls-45" points="384.36 876.32 172.97 876.32 121.08 963.85 333.07 963.85 384.36 876.32"/>
        <polygon class="cls-23" points="175.15 876.32 70.79 876.32 69.38 964.47 123.86 963.85 175.15 876.32"/>
        <polygon class="cls-35" points="806.78 876.32 595.39 876.32 543.5 963.85 755.49 963.85 806.78 876.32"/>
        <polygon class="cls-42" points="1017.61 876.32 806.22 876.32 754.32 963.85 966.32 963.85 1017.61 876.32"/>
      </g>
    </g>
  </g>
  <g id="Layer_1" data-name="Layer 1">
    <g>
      <g>
        <path class="cls-37" d="M1044.17,958.27s4.31,3.23,2.16,9.7l-2.16,33.41s-6.47,7-22.63,5.39l-14.55-5.93v-9.7s-27.48,27.48-27.48,27.48c0,0-5.99,3.84-27.84,7.09-22.34,3.33-29.06-8.13-29.06-8.13,0,0-16.89-16.29-9.35-22.76l130.91-36.55Z"/>
        <path class="cls-28" d="M1033.93,928.1c12.23,18.77,8.98,33.81,8.98,33.81,0,0-8.59,18.49-25.68,17.92-17.09-.57-35.38,25.99-35.38,25.99-9.61,7.08-37,11.64-37,11.64-19.29,3.22-13.86-7.83-13.86-7.83-7.87,.38-4.79-5.54-4.79-5.54-7.1,1.81-4.88-4.03-4.88-4.03-3.9-2.48-1.26-5.77-1.26-5.77-3.03-.76-.99-2.75-.12-3.3,3.29-2.08,6-2.43,6-2.43l16.9-3.25,9.89-4.53,12.96-14.41c12.19-15.44,15.44-26.01,15.44-26.01l-.65-14.31-12.89-97.34,21.21-4.59,51.68,13.34s-1.58,44.67-6.25,61c-4.67,16.34-.3,29.63-.3,29.63"/>
        <path class="cls-14" d="M931,1009.63s.9-4.36,7.79-5.21"/>
        <path class="cls-14" d="M926.2,1004.09s3.81-5.28,8.85-5.06"/>
        <path class="cls-14" d="M921.32,1000.06s4.11-5.85,9.7-5.9"/>
        <path class="cls-14" d="M920.06,994.29s2.85-4.03,7.39-4.11"/>
        <path class="cls-37" d="M1024.23,980.36l7.54-19.4,14.55,7s4.85-4.31-2.16-9.7c-7-5.39-11.31-5.39-11.31-5.39l7-12.93s-1.62-11.31-5.93-11.85c0,0-2.69,12.93-7.54,18.86,0,0-25.01-6.27-45.49-13.82l-1.4,8.27,46.34,14.7-8.62,23.71,7,.54Z"/>
        <path class="cls-37" d="M954.21,978.34s5.01,10.77,27.64,27.48c0,0-8.85,12.9-19.09,12.9,0,0-10.5-31.82-26.13-31.82,0,0,13.26-9.63,17.57-8.55Z"/>
      </g>
      <g>
        <path class="cls-37" d="M1097.59,973.68s4.31,3.23,2.16,9.7l-2.16,33.41s-6.47,7-22.63,5.39l-14.55-5.93v-9.7s-27.48,27.48-27.48,27.48c0,0-5.99,3.84-27.84,7.09-22.34,3.33-33.51-5.23-33.51-5.23,0,0-22.52-15.16-14.97-21.63l140.98-40.58Z"/>
        <path class="cls-28" d="M1038.3,930.42c.45-37.58-7.26-85.39-7.26-85.39,0,0,60.04-24.66,65.87,1.28,5.83,25.93-6.26,67.56-6.26,67.56-5.37,27.74,.89,38.92,.89,38.92,9.28,16.75,2.68,29.08,2.68,29.08,0,0-5.67,12-23.57,13.36-16.69,1.27-38.17,29.15-38.17,29.15-11.63,14.32-31.24,10-31.24,10-4.7,1.61-7.63-2.02-7.63-2.02-9.18,1.13-11.09-3.6-11.09-3.6-8.55,.9-11.89-4.59-11.89-4.59-5.27,1.25-7.61-5.04-7.61-5.04-6.29-6.11-4.31-7.71-2.07-11.69,2.24-3.99,16-2.23,16-2.23l19.5-5.28,11.18-6.17,13.67-19.48c7.61-8.95,11.63-17.45,11.63-17.45l5.37-26.4Z"/>
        <path class="cls-14" d="M980.75,1008.76l-10.04,3.75s-6.66,1.08-7.69,6.61"/>
        <path class="cls-14" d="M986.17,1012.66s-16.72,5.05-15.92,9.27l.39,2.23"/>
        <path class="cls-14" d="M992.14,1019.05s-9.56,2.78-9.61,9.7"/>
        <path class="cls-14" d="M997.42,1026.81s-4.97,1.27-3.81,5.54"/>
        <path class="cls-37" d="M1077.66,995.77l7.54-19.4,14.55,7s4.85-4.31-2.16-9.7c-7-5.39-11.31-5.39-11.31-5.39l7-12.93s-1.62-11.31-5.93-11.85c0,0-2.69,12.93-7.54,18.86,0,0-25.01-6.27-45.49-13.82l-1.4,8.27,46.34,14.7-8.62,23.71,7,.54Z"/>
        <path class="cls-14" d="M1031.19,961.06l-23.55,32.68-15.4,7.89-15.28,3.56s-19.42-3.4-18.03,8.6"/>
        <path class="cls-37" d="M1007.63,993.74s5.01,10.77,27.64,27.48c0,0-8.85,12.9-19.09,12.9,0,0-10.5-31.82-26.13-31.82,0,0,13.26-9.63,17.57-8.55Z"/>
        <line class="cls-14" x1="1036.95" y1="887.53" x2="1032.34" y2="855.26"/>
      </g>
      <path class="cls-28" d="M735.79,493.91c-.56-.42-6.59-.86-7.26-.68-9.37,2.45-13.47-4.85-13.47-4.85l-42.33-68.33c-.69-1.11-.35-2.63,.82-3.22,.85-.42,2.1-.34,3.88,1.24,.13,.11,.25,.22,.37,.33,1.45,1.3,2.34,2.18,2,.26-1.12-6.16,2.37-5.34,3.63-5.42,2.78-.17,6.25,5.63,6.91,6.77,.08,.13,.16,.26,.27,.37,1.33,1.5,10.64,12.04,12.76,16.24,.12,.24,.3,.46,.5,.64l2.45,2.23c.34,.31,.77,.48,1.22,.54,.83,.12,2.37,.79,3.86,3.85,.22,.46,.59,.84,1.05,1.06,1.2,.58,3.7,2.15,5.48,5.72,2.38,4.77,10.9,12.59,12.11,13.69,.1,.09,.21,.17,.32,.25,0,0,18.65,9.33,34.59,4.68s67.75-34.92,67.75-34.92l40.7-85.57,47.84,35.72s-40.73,83.02-58.78,95.23c-31.77,21.51-122.09,14.11-122.09,14.11l-4.58,.04Z"/>
      <path class="cls-14" d="M711.69,468.09c1.21-4.63-3.27-10.21-3.27-10.21,0,0-5.37-5.04-4.88-12.48s5.46-5.01,5.46-5.01c0,0,2.2,1.44,2.38,3.52,0,0,5.38,2.74,6.53,6.78s12.43,13.93,12.43,13.93c0,0,25.55,13.27,44.58,.62"/>
      <path class="cls-14" d="M738.71,484.09c-2.65,4.29-9.14,8.82-9.14,8.82,0,0-9.11,2.62-13.25-2.95s-7.31-10.97-7.31-10.97"/>
      <path class="cls-28" d="M1003.04,176.15s1.57,31.69,12.75,49.01c0,0,20.72,85.74-49.55,98.53,0,0-54.76-6.29-33.06-79.28,0,0,11.96-6.86,10.39-19.19-1.66-13.06-1.65,.47-1.65,.47l61.12-49.53"/>
      <path class="cls-40" d="M1119.75,486.65s44.3,91.44,6.45,180.12l-16.98,92.23s-11.56,29.2-7.3,73.62c2.71,28.25-4.03,68.25-11.18,105.61,0,0-18.97,19.6-52.64,3.65,0,0-28.48,11.72-60.29-3.39l-51.52-122.54s-13.59-21.31-13.59-43.57c0,0-1.35-155.3,11.38-256.28,0,0,74.79,42.43,195.67-29.45Z"/>
      <path class="cls-2" d="M1038.1,941.88l-37.18-145.75s-4.74-28.44-2.37-65.18l4.74-101.92s-6.64-1.39-13.32-8.59"/>
      <path class="cls-20" d="M1015.8,225.15s12.86,7.9,39.87,12.49c38.31,6.52,59.54,71.68,59.54,71.68,0,0,1.58,20.43-40.04,44.9l47.03,129.93s-43.88,48.8-125.4,54.17c0,0-48.02,7.17-77.24-11.67,0,0,2.04-56.11-4.88-105.74,0,0-21.47-24.33-24.52-48.15l-22.36-15.79,11.5-49.61s3.43-31.29,36-49.9c0,0,9.37-6.52,17.89-13.07,0,0-1.8,27.62,11.78,40.77,0,0,27.16,29.7,61.11-5.09,0,0,19.94-24.19,9.73-54.93Z"/>
      <path class="cls-28" d="M987.65,158.69s-16.13-64.56-75.3-57.18c0,0-41.48,8.7-26.73,66.75,0,0,4.23,8.93,3.68,14.24,0,0-.58,13.5,8.18,24.28,13.12,16.14,24.93,27.21,24.93,27.21,0,0,7.43,7.46,21.96,4.64,0,0,10.12-2.4,21.36-13.4,0,0,29.69-21.68,24.03-40.59,0,0,16.3,6.57,17.98-17.53,0,0-.95-32.7-20.11-8.42Z"/>
      <path class="cls-47" d="M930.1,149.8s18.33-10.6,28.85-6.17c0,0-9.07-8.8-30.4,1.58,0,0-3.29,3.9,1.55,4.59Z"/>
      <path class="cls-47" d="M881.61,155.17c.25-1.12,10.33-3.14,19.93-2.84,0,0,4.6,2.21,.47,4.82,0,0-17.78-2.94-19.47,2.95,0,0-1.55-2.17-.93-4.94Z"/>
      <path class="cls-9" d="M913.62,181.89s-5.5,13.73,8.87,12.13"/>
      <path class="cls-9" d="M1004.46,161.09s-7.98-12.42-13.7,11.53c0,0,6.76-11.48,10.08-3.59"/>
      <path class="cls-47" d="M935.75,239.07s5.35,3.17,19.72-5.6c0,0,12.61-7.45,21.8-18.76,0,0-10.75,18.65-29.31,25.08,0,0-4.76,2.6-12.51,1.57,0,0,1.08-.36,.3-2.29Z"/>
      <g>
        <path class="cls-20" d="M953.46,157.43s-.07-.43-.46-.74c-1.27-1.01-4.1-2.8-7.95-2.13-4.3,.75-5.97,5.21-6.52,6.8-.1,.27-.04,.49-.04,.49,0,0,.03,.24,.2,.38,.83,.68,3.51,2.5,7.59,1.85,2.43-.39,5.61-2.29,7.14-5.95,.11-.25,.07-.55,.03-.7Z"/>
        <circle class="cls-47" cx="944.71" cy="159.75" r="4.52"/>
        <circle class="cls-20" cx="947.36" cy="158.36" r="1.24"/>
        <path class="cls-5" d="M938.27,161.42s3.44-11.19,14.9-4.79"/>
      </g>
      <g>
        <path class="cls-20" d="M903.94,169.88s0-.41-.32-.75c-1.04-1.12-3.42-3.19-7.09-3.12-4.11,.09-6.29,4-7.04,5.39-.13,.24-.11,.45-.11,.45,0,0,0,.23,.13,.39,.67,.75,2.9,2.83,6.8,2.81,2.32-.01,5.54-1.33,7.49-4.51,.14-.22,.14-.5,.13-.65Z"/>
        <circle class="cls-47" cx="895.47" cy="170.77" r="4.24"/>
        <circle class="cls-20" cx="898.28" cy="169.92" r="1.19"/>
        <path class="cls-5" d="M889.43,171.54s4.47-10.5,14.32-2.25"/>
      </g>
      <path class="cls-31" d="M950.09,197.47s-8.4,.39-16.49,6.2c0,0-8.35,1.25-14.79,5.33,0,0,5,11.08,17.79,9.61,12.79-1.47,16.36-13.88,13.49-21.14Z"/>
      <path class="cls-24" d="M948.38,199.28s1.97,9.73-10.17,14.78c-10.49,4.36-16.4-3.77-16.4-3.77,0,0,14.46-4.51,26.57-11.01Z"/>
      <path class="cls-20" d="M946.58,200.16s-1.52,6.13-12.9,9.62c0,0-6.78,2.83-10.99,.21,0,0,14.33-4.57,23.89-9.83Z"/>
      <path class="cls-12" d="M1066.13,357.63s-7.82-17.11-10.59-35.92"/>
      <rect class="cls-25" x="1067.28" y="536.92" width="38.23" height="96.43" rx="6.34" ry="6.34" transform="translate(1782.05 -434.03) rotate(96.01)"/>
      <path class="cls-28" d="M1057.56,563.12s1.97-9.74,18.41-16.41l-1.74-140.12-8.34-48.68s37.97-18.49,49.58-48.71c0,0,22.54,89.53,9.39,131.48l-14.4,94.54s-3.2,18.44,2.36,28.52c0,0,5.15,18.61-1.39,34.42,0,0-6.32,6.92-10.03,3.21,0,0-4.69,8.17-9.24,4.3,0,0-8.07,5.78-13.97-1.29,0,0-5.77,5.69-12.68-1.72,0,0,5.5-30.24,4.32-38.15l-12.28-1.39"/>
      <path class="cls-3" d="M1078.62,604.99s4.25-11.15,3.87-17.8"/>
      <path class="cls-3" d="M1091.69,605.77s4.08-10.43,3.7-17.07"/>
      <path class="cls-3" d="M1101.41,601.38s4.31-7.24,3.98-13.14"/>
      <path class="cls-14" d="M691.31,437.41l-11.47-18.15s-1.92-6.03,2.22-6.23,8.54,7.36,8.54,7.36l13.26,16.88,2.45,2.23"/>
      <path class="cls-14" d="M679.85,419.26s-4.48-4.37-6.3-2.43-.82,3.22-.82,3.22l5.72,9.25"/>
      <path class="cls-14" d="M729.57,492.92s21.9,2.3,43.2,2.3"/>
      <path class="cls-12" d="M890.16,372.77s-4.25-25.85,2.07-46.64"/>
      <path class="cls-41" d="M902.46,113.99s49.69,59.59,101.85,49.68c0,0-.21,23.52-16.65,21.8,0,0,1.2,26.07,19.35,40.14,0,0,17.83,6.32,33.79,9.14,14.94,2.65,30.7,8.85,30.7,8.85,0,0-31.78-7.47-40.87-64.1-9.09-56.63-42.04-81.81-42.04-81.81,0,0-44.24-44.25-89.25-6.61,0,0-26.98,6.67-33.36,35.03-3.69,16.41,3.06,44.08,8.69,66.13,0,0,11.96,55.56,38.65,66.3,0,0,26.67-6.02,26.55-19.64,0,0-9.71,.23-17.05-5.8-10.01-8.24-17.49-16.34-25.5-26.48,0,0-8.53-10.04-7.83-25.62,0,0-.34-8.05-3.56-12.11,0,0-10.11-31.9,16.54-54.89"/>
      <path class="cls-10" d="M992.69,174.76s10.33,10.27,3.51,19.3c-6.82,9.03-6.18-9.65-6.18-9.65"/>
    </g>
    <g>
      <circle class="cls-17" cx="378.96" cy="839" r="58.42"/>
      <path class="cls-21" d="M343.36,793.98s-22.8,50.84-1.85,89.05c0,0,3.7,4.01,8.63,6.16,0,0-26.5-31.74-.92-98.91,0,0-4.01,.92-5.85,3.7Z"/>
      <path class="cls-21" d="M366.17,782.89s-33.59,67.48,1.23,113.39c0,0,3.08,.92,7.7,0,0,0-34.2-46.22,1.54-114.32,0,0-7.09-.31-10.48,.92Z"/>
      <path class="cls-21" d="M394.3,783.02s-39.84,55.7,.39,112.57l3.87-1.93s-38.3-53,1.55-108.7l-5.8-1.93Z"/>
    </g>
    <g>
      <path class="cls-47" d="M629.23,560.5c9.46-4.14,4.71-12.44,4.71-12.44,5.67-1.15,2.05-10.7,2.05-10.7,6.15-4.95,.55-11.79,.55-11.79,2.22-6.2-4.83-11.89-4.83-11.89,3.99-8.21-4.3-10.12-4.3-10.12,3.5-8.26-6.29-13.53-6.29-13.53,2.24-7.8-.76-13.3-.76-13.3,3.47-10.12-3.52-15.51-3.52-15.51,3.65-8.22-2.34-12.17-2.34-12.17,3.06-7.66-4.03-11.69-4.03-11.69,2.68-8.4-5.89-10.96-5.89-10.96-.82-8.65-8.08-9.52-8.08-9.52-3.12-8.03-12.56-8.6-12.56-8.6-6.73-5.6-13.59-3.69-13.59-3.69-9.73-4.73-16.81,.09-16.81,.09-9.68-4.08-21.94,2.63-21.94,2.63-12.26-1.81-22.44,9.63-22.44,9.63-11.59,.75-11.28,12.94-11.28,12.94-9.46,4.14-6.01,14.3-6.01,14.3-7.38,.42-8.23,8.67-8.23,8.67-7.53,1.18-6.03,10.79-6.03,10.79-6.21,2.83-2.61,10.52-2.61,10.52-5.8,5.43-.06,9.85-.06,9.85-4.34,6.27,1.24,9.65,1.24,9.65-3.5,8.26,1.31,12.49,1.31,12.49-5.23,4.01,.04,9.4,.04,9.4-6.62,5.02,.44,10.6,.44,10.6-6.27,4.17-3.38,11.14-3.38,11.14-5.35,3.23-1.92,12.23-1.92,12.23-4.46,5.49,.88,14.27,.88,14.27-8.37,6.94-1.81,15.82-1.81,15.82-5.39,8.72,2.42,14.03,2.42,14.03-1.97,7.71,1.57,11.36,1.57,11.36,0,0-5.2,16.81,10.62,13.64"/>
      <path class="cls-28" d="M584.48,437.11s9.92-.12,14.81,22.08c0,0-.32,7.51,1.52,11.68,1.85,4.16,3.67,18.12,3.09,26.43-.59,8.31-4.06,22.72-15.63,30.86-11.57,8.14-33,.84-33,.84,0,0-21.76-6.7-28.23-18.53,0,0-6.27,9.2-14.81,3.85-8.54-5.34-19.34-20.78-11.69-26.59,6.57-4.99,14.61,3.53,16.76,6.05,.36,.42,.55,.67,.55,.67,0,0,18.45-31.35,12.47-49.77,0,0,14.14,8,28.32,.68,0,0,18.78,4.62,25.83-8.24Z"/>
      <path class="cls-43" d="M499.91,450.29s.54,9.12,9.04,9.84c8.5,.72,4.14-11.18,4.14-11.18,0,0,12.32-2.61,10.65-7.2-1.67-4.59-10.39-10.07-11.94-6.55-1.55,3.52-.95,9.85-.95,9.85,0,0-9.74,1.8-10.94,5.24Z"/>
      <path class="cls-28" d="M538.64,500.58s2.55,32.5-22.22,41.05c0,0,5.61,23.35,5.61,34.01,0,0,50.42,17.31,87.81,2.54,0,0-19.2-25.57-22.53-41.22,0,0-4.91-4.25-2.92-9.58l-45.76-26.8Z"/>
      <path class="cls-37" d="M558.75,463.79s-13.01-.09-22.99,6.06c0,0,3.76-7.96,22.63-9.1,0,0,3.44,1.18,.36,3.03Z"/>
      <path class="cls-37" d="M598.51,457.85c-9.14-.31-15.37,1.73-15.37,1.73-3.5-.81-.6-3-.6-3,5.7-1.48,12.3-1.62,15.81-1.47,0,0,.66,2.75,.16,2.73Z"/>
      <path class="cls-29" d="M563.87,504.64s6.27-3.2,14.55-2.32c0,0,6.59-2.55,12.96-2.25,0,0,1.23,11.13-8.68,15.36-9.91,4.23-17.92-4.32-18.84-10.79Z"/>
      <path class="cls-24" d="M565.66,505.13s1.59,9.76,14.26,7.56c11.51-2,10.09-10.68,10.09-10.68,0,0-12.86,2.83-24.35,3.12Z"/>
      <path class="cls-20" d="M567.25,505s3.92,3.97,13.64,1.79c0,0,6.1-.74,8.08-4.4,0,0-12.59,2.47-21.72,2.61Z"/>
      <path class="cls-9" d="M578.92,477.5s8.95,6.01,1.75,12.07"/>
      <path class="cls-47" d="M582.28,530.27s-10.95,1.82-21.91-.88c0,0-6.81-.87-18.2-6.57,0,0,6.45,8.68,26.4,9.83,0,0,6.75,.62,15.11-.22,0,0-.35-1.05-1.39-2.16Z"/>
      <path class="cls-43" d="M528.65,533.96s-36.37,14.1-46.64,38.73c-11.87,28.49-10.02,33.97-10.02,33.97,0,0,10.06,17.83,33.56,11.95,0,0-9.07,50.83-9.66,91.96,0,0,58.49,32.07,122,1.64,0,0-4.4-73.76-3.81-106.66,0,0,24.02-3.51,25.21-8.72,3.13-13.69-7.2-44.59-9.64-49.55l-13.48-1.39s-4.78-8.03-29.92-10.11c0,0,9.9,16.96-10.66,21.66,0,0-34.62,7.66-46.96-23.48Z"/>
      <circle class="cls-40" cx="574.28" cy="571.26" r="5.03"/>
      <circle class="cls-40" cx="564.25" cy="572" r="5.03"/>
      <circle class="cls-40" cx="554.08" cy="570.16" r="5.03"/>
      <circle class="cls-40" cx="544.26" cy="566.7" r="5.03"/>
      <circle class="cls-40" cx="536.09" cy="560.57" r="5.03"/>
      <circle class="cls-40" cx="528.66" cy="553.94" r="5.03"/>
      <circle class="cls-40" cx="583.75" cy="567.73" r="5.03"/>
      <circle class="cls-40" cx="592.3" cy="562.76" r="5.03"/>
      <circle class="cls-40" cx="596.9" cy="553.7" r="5.03"/>
      <circle class="cls-40" cx="570.33" cy="580.13" r="5.03"/>
      <circle class="cls-40" cx="557.81" cy="579.61" r="5.03"/>
      <circle class="cls-40" cx="546.1" cy="576.47" r="5.03"/>
      <circle class="cls-40" cx="535.25" cy="570.65" r="5.03"/>
      <circle class="cls-40" cx="527.35" cy="564.18" r="5.03"/>
      <circle class="cls-40" cx="581.99" cy="577.3" r="5.03"/>
      <circle class="cls-40" cx="592.56" cy="572.57" r="5.03"/>
      <circle class="cls-40" cx="602.05" cy="562.36" r="5.03"/>
      <path class="cls-40" d="M528.65,533.96s8.31,24.8,37.7,24.35c29.39-.45,20.97-21.35,20.97-21.35l2.82,.26s6.38,24.32-23.11,23.11c-28.65-1.17-31.64-11.02-40.84-24.91l2.46-1.47Z"/>
      <path class="cls-9" d="M502.69,499.24s2.83-6.48,8.17-1.3c5.33,5.19,5.91,7.13,5.91,7.13,0,0-7.8-8.36-8.93-.37"/>
      <g>
        <path class="cls-22" d="M511.55,489.78s6.58,6.06,1.78,10.24c-4.8,4.18,3.8,.68,3.8,.68,0,0,5.72-3.68-3.71-13.68l-1.87,2.76Z"/>
        <path class="cls-20" d="M513.32,500.02s-4.31-7.46-9.55-4.87c-5.24,2.58,2.3,11.32,2.3,11.32,0,0,2.02,1.99,5.08,1.3,0,0-3.86-4.86,2.17-7.74Z"/>
        <path class="cls-38" d="M498.27,492.21s-4.12,3.27-3.54-2.37c.58-5.64,8.42-7.14,10.97-7.16,2.55-.02,6.35,.6,7.71,4.34,1.36,3.74-4.62,1.23-4.62,1.23,0,0-7.34-3.84-10.53,3.96Z"/>
      </g>
      <g>
        <path class="cls-20" d="M545.45,476.67s-.08-.35,.12-.7c.66-1.15,2.27-3.39,5.4-4.06,3.51-.74,6.14,2.14,7.05,3.18,.16,.18,.18,.36,.18,.36,0,0,.05,.19-.04,.35-.42,.77-1.9,2.98-5.22,3.73-1.97,.45-4.97-.02-7.26-2.34-.16-.16-.22-.4-.24-.53Z"/>
        <circle class="cls-47" cx="552.81" cy="475.76" r="3.71"/>
        <circle class="cls-20" cx="550.37" cy="475.51" r="1.02"/>
        <path class="cls-5" d="M558.23,475.05s-6.05-7.47-12.81,.92"/>
      </g>
      <g>
        <path class="cls-20" d="M583.9,470.37s-.12-.31,.01-.66c.44-1.15,1.6-3.43,4.38-4.48,3.11-1.18,5.93,1.1,6.91,1.92,.17,.14,.22,.3,.22,.3,0,0,.08,.17,.02,.33-.28,.76-1.33,3-4.26,4.16-1.74,.69-4.56,.68-6.99-1.13-.17-.13-.26-.33-.29-.45Z"/>
        <circle class="cls-47" cx="590.53" cy="468.49" r="3.43"/>
        <circle class="cls-20" cx="588.17" cy="468.69" r=".96"/>
        <path class="cls-5" d="M595.3,467.24s-6.53-6.53-11.43,2.64"/>
      </g>
      <path class="cls-28" d="M692.69,571.05s-2.6,14.39-18.86,17.61-34.52,8.18-34.52,8.18c0,0,.73-25.1-8.97-47.84l34.06,1.3,7.15-17.14s11.73-28.41,17.53-47.05l-.89-21.66s-10.38-17.91-11.9-27.81c0,0-.21-1.76,1.17-1.99,0,0-1.67-4.28,.82-5.36s3.83,2.41,3.83,2.41l3.78,6.14s-1.9-5.66,.48-6.14,4.21,2.43,4.21,2.43c0,0,9.15,17.13,8.5,22.04,0,0,6.08-1.98,6.52,3.44,.54,6.67,.01,11.08,.01,11.08,0,0,.64,2.92,2.26,5.37s2.55,10.96-.26,16.44c-2.81,5.48-10.83,57.48-10.83,57.48,0,0-1.41,13.25-4.09,21.06Z"/>
      <path class="cls-4" d="M687.56,460.2s-9.57-20.08-10.64-27.98c-.22-1.63,.56-2.59,1.57-3,2.1-.86,3.59,2.48,3.59,2.48l3.78,6.14"/>
      <path class="cls-4" d="M690.68,462.72s-2.56-16.41-5.51-28c0,0-.64-2.39,1.18-3.03,.96-.34,2.63,.02,4.43,3.06,7.22,12.2,8.28,21.41,8.28,21.41"/>
      <path class="cls-4" d="M694.65,475.57s2.4-7.54,2-12.74,2.17-7.34,4.67-7.29,4.35,2.65,4.4,4.9-.22,8.04-.22,8.04c0,0-.25,3.93,1.72,6.58s3.1,8.57,1.17,15.65c0,0-.69,4.65-2.25,6.73,0,0-2.87,3.47-8.75,4.89"/>
      <line class="cls-15" x1="505.56" y1="618.63" x2="510.94" y2="586.02"/>
      <path class="cls-15" d="M614.09,605.56s-1.74-16.22-4.24-27.37"/>
      <path class="cls-40" d="M602.36,912.86l8.24-39.77s6.91-15.76,5.4-27.79l1.96-134.08s-62.9,30.48-121.64-.17c0,0-15.13,29.65-10.22,68.26,0,0,13.68,66.35,21.6,80.07,0,0-8.13,30.16-4.96,45.97,0,0,29.25,21.35,51.39,5.93l6.29-20.21-1.54,20.61s23.72,15.81,43.49,1.19"/>
      <path class="cls-9" d="M560.42,891.07c7.99-72.54,3.07-121.65,3.07-121.65"/>
      <g>
        <path class="cls-28" d="M554.15,988.5s-7.05,13.37-4.08,19.68c0,0,13.82,8.76,23.11-.9,0,0-12.58-5.8-19.02-18.78Z"/>
        <path class="cls-28" d="M557.49,980.33s7.06,19.84,19.83,23.08c0,0,4.7-10.5,10.99-16.77,0,0-4.52-19.69,14.05-73.78,0,0-13.18,5.79-43.49-1.19,0,0-6.21,15.93-2.5,33.75,3.71,17.82,1.11,34.9,1.11,34.9Z"/>
        <path class="cls-19" d="M550.06,1008.18s-4.83,9.65-2.97,13.37c0,0,9.65,3.71,22.65,.37,0,0,7.05-1.86,14.48,4.08,7.43,5.94,36.39,8.91,45.67,.37,9.28-8.54-6.68-17.45-6.68-17.45,0,0-22.28-6.31-25.99-16.34-3.71-10.03-8.91-5.94-8.91-5.94,0,0-10.4,7.8-11.88,15.22,0,0-11.88-3.34-18.94-21.54l-3.34,8.17s7.05,14.85,17.82,18.19c0,0-4.08,8.91-21.91,1.49Z"/>
        <circle class="cls-37" cx="575.17" cy="1005.68" r="4.83"/>
        <circle class="cls-37" cx="587.6" cy="1019.39" r="3.19"/>
        <circle class="cls-37" cx="598.11" cy="1023.54" r="3.19"/>
        <circle class="cls-37" cx="610.1" cy="1025.21" r="3.19"/>
        <circle class="cls-37" cx="620.26" cy="1023.97" r="3.19"/>
        <circle class="cls-37" cx="628.95" cy="1020.71" r="3.19"/>
        <path class="cls-7" d="M589.05,1012.26s23.76,10.4,36.02,.74"/>
      </g>
      <g>
        <path class="cls-28" d="M511.01,995.42s-7.47,14.16-4.33,20.84c0,0,14.64,9.27,24.47-.95,0,0-13.32-6.15-20.15-19.89Z"/>
        <path class="cls-28" d="M514.55,986.77s7.48,21.01,21,24.45c0,0,4.98-11.12,11.64-17.76,0,0-5.11-44.97,6.94-82.17,0,0-22.18,13.37-51.39-5.93,0,0,.85,25.45,4.78,44.33,3.93,18.88,7.02,37.09,7.02,37.09Z"/>
        <path class="cls-19" d="M506.68,1016.27s-5.11,10.22-3.15,14.16c0,0,10.22,3.93,23.99,.39,0,0,7.47-1.97,15.34,4.33,7.87,6.29,38.54,9.44,48.37,.39,9.83-9.05-7.08-18.48-7.08-18.48,0,0-23.6-6.69-27.53-17.3-3.93-10.62-9.44-6.29-9.44-6.29,0,0-11.01,8.26-12.58,16.12,0,0-12.58-3.54-20.06-22.81l-3.54,8.65s7.47,15.73,18.88,19.27c0,0-4.33,9.44-23.2,1.57Z"/>
        <circle class="cls-37" cx="533.27" cy="1013.62" r="5.11"/>
        <circle class="cls-37" cx="546.44" cy="1028.14" r="3.38"/>
        <circle class="cls-37" cx="557.57" cy="1032.54" r="3.38"/>
        <circle class="cls-37" cx="570.27" cy="1034.31" r="3.38"/>
        <circle class="cls-37" cx="581.03" cy="1032.99" r="3.38"/>
        <circle class="cls-37" cx="590.24" cy="1029.54" r="3.38"/>
        <path class="cls-7" d="M547.98,1020.59s25.17,11.01,38.15,.79"/>
      </g>
      <path class="cls-28" d="M473.06,608.38s-12.76,44.83-2.67,71.28l20.63,62.11s2.78,11.73-.41,18.43c0,0-4.29,14.39,2.24,22.08,0,0,5.78,17.6,23.91,24.35,0,0,5.16-3.68-2.89-10.59,0,0-9.51-8.85-4.8-19.9,0,0,3.82-3.6,4,3.12,.18,6.72,1.51,17.41,6.8,15.96,5.3-1.44,2.4-12.26,2.4-12.26,0,0-.81-9.6-.33-16.58,0,0-1.19-12.27-8.31-18.57l-12.52-86.11,4.43-43.08s-14.22,4.98-32.5-10.24Z"/>
    </g>
    <g>
      <rect class="cls-32" x="114.69" y="954.75" width="49.71" height="33.8"/>
      <polygon class="cls-44" points="176.93 981.13 164.4 989.05 164.4 954.51 176.93 949.04 176.93 981.13"/>
      <polygon class="cls-44" points="114.69 954.75 164.4 954.51 176.93 949.04 128.21 949.04 114.69 954.75"/>
      <rect class="cls-32" x="400.19" y="902.39" width="49.71" height="33.8"/>
      <polygon class="cls-44" points="462.43 928.77 449.9 936.68 449.9 902.15 462.43 896.68 462.43 928.77"/>
      <polygon class="cls-44" points="400.19 902.39 449.9 902.15 462.43 896.68 413.71 896.68 400.19 902.39"/>
      <rect class="cls-46" x="179.32" y="965.41" width="49.71" height="33.8"/>
      <polygon class="cls-39" points="241.56 991.78 229.03 999.7 229.03 965.17 241.56 959.69 241.56 991.78"/>
      <polygon class="cls-39" points="179.32 965.41 229.03 965.17 241.56 959.69 192.84 959.69 179.32 965.41"/>
      <rect class="cls-18" x="243.2" y="948.33" width="49.71" height="33.8"/>
      <polygon class="cls-33" points="305.44 974.71 292.91 982.62 292.91 948.09 305.44 942.62 305.44 974.71"/>
      <polygon class="cls-33" points="243.2 948.33 292.91 948.09 305.44 942.62 256.72 942.62 243.2 948.33"/>
    </g>
    <polygon class="cls-20" points="771.69 356.83 775.33 358.47 744.96 425.52 771.69 356.83"/>
    <polygon class="cls-20" points="735.96 339.54 739.79 340.65 719.28 411.34 735.96 339.54"/>
    <polygon class="cls-20" points="692.83 333.39 696.81 333.59 693 407.1 692.83 333.39"/>
    <polygon class="cls-20" points="635.27 350.94 638.93 349.36 667.96 417 635.27 350.94"/>
    <polygon class="cls-20" points="593.06 393.07 595.65 390.04 651.54 437.94 593.06 393.07"/>
  </g>
</svg>