<svg xmlns="http://www.w3.org/2000/svg" xmlns:xlink="http://www.w3.org/1999/xlink" width="1200" zoomAndPan="magnify" viewBox="0 0 900 675.000002" height="900" preserveAspectRatio="xMidYMid meet" version="1.0"><defs><clipPath id="766a0d8f25"><path d="M 0.664062 0 L 899.332031 0 L 899.332031 674 L 0.664062 674 Z M 0.664062 0 " clip-rule="nonzero"/></clipPath><clipPath id="24a7f5d207"><path d="M 1 291 L 899.332031 291 L 899.332031 393 L 1 393 Z M 1 291 " clip-rule="nonzero"/></clipPath><clipPath id="cda5fa9579"><path d="M 1 191 L 899.332031 191 L 899.332031 293 L 1 293 Z M 1 191 " clip-rule="nonzero"/></clipPath><clipPath id="51aecb6c41"><path d="M 1 90 L 899.332031 90 L 899.332031 192 L 1 192 Z M 1 90 " clip-rule="nonzero"/></clipPath><clipPath id="4d8c286c14"><path d="M 1 0 L 899.332031 0 L 899.332031 91 L 1 91 Z M 1 0 " clip-rule="nonzero"/></clipPath><clipPath id="c07646d363"><path d="M 1 392 L 899.332031 392 L 899.332031 494 L 1 494 Z M 1 392 " clip-rule="nonzero"/></clipPath><clipPath id="224924d7d9"><path d="M 0.664062 493 L 899.332031 493 L 899.332031 673 L 0.664062 673 Z M 0.664062 493 " clip-rule="nonzero"/></clipPath><clipPath id="b8f563baab"><path d="M 0.664062 0 L 26 0 L 26 149 L 0.664062 149 Z M 0.664062 0 " clip-rule="nonzero"/></clipPath><clipPath id="cad7806004"><path d="M 875 0 L 899.332031 0 L 899.332031 149 L 875 149 Z M 875 0 " clip-rule="nonzero"/></clipPath><clipPath id="07f02b4831"><path d="M 625 397 L 755 397 L 755 673.898438 L 625 673.898438 Z M 625 397 " clip-rule="nonzero"/></clipPath><clipPath id="945c4c2fe7"><path d="M 2 632 L 626 632 L 626 673.898438 L 2 673.898438 Z M 2 632 " clip-rule="nonzero"/></clipPath><clipPath id="571ef3f432"><path d="M 124 53 L 177 53 L 177 159 L 124 159 Z M 124 53 " clip-rule="nonzero"/></clipPath><clipPath id="1f43799203"><path d="M 138.605469 53.519531 C 138.605469 53.519531 115.117188 69.558594 129.59375 133.058594 C 129.59375 133.058594 143.308594 114.5625 157.183594 146.4375 L 164.261719 158.335938 C 164.261719 158.335938 151.464844 92.246094 176.574219 66.652344 Z M 138.605469 53.519531 " clip-rule="nonzero"/></clipPath><linearGradient x1="1215.28003" gradientTransform="matrix(0.673957, 0, 0, 0.673626, -668.317177, -0.83035)" y1="236.280019" x2="1215.28003" gradientUnits="userSpaceOnUse" y2="80.680008" id="a61e65edae"><stop stop-opacity="1" stop-color="rgb(74.508667%, 61.959839%, 49.01886%)" offset="0"/><stop stop-opacity="1" stop-color="rgb(74.169922%, 61.680603%, 48.814392%)" offset="0.00390625"/><stop stop-opacity="1" stop-color="rgb(73.831177%, 61.402893%, 48.61145%)" offset="0.0078125"/><stop stop-opacity="1" stop-color="rgb(73.490906%, 61.125183%, 48.408508%)" offset="0.0117188"/><stop stop-opacity="1" stop-color="rgb(73.152161%, 60.847473%, 48.205566%)" offset="0.015625"/><stop stop-opacity="1" stop-color="rgb(72.813416%, 60.569763%, 48.001099%)" offset="0.0195312"/><stop stop-opacity="1" stop-color="rgb(72.47467%, 60.292053%, 47.798157%)" offset="0.0234375"/><stop stop-opacity="1" stop-color="rgb(72.134399%, 60.014343%, 47.593689%)" offset="0.0273438"/><stop stop-opacity="1" stop-color="rgb(71.795654%, 59.736633%, 47.390747%)" offset="0.03125"/><stop stop-opacity="1" stop-color="rgb(71.456909%, 59.457397%, 47.186279%)" offset="0.0351562"/><stop stop-opacity="1" stop-color="rgb(71.118164%, 59.179688%, 46.983337%)" offset="0.0390625"/><stop stop-opacity="1" stop-color="rgb(70.777893%, 58.901978%, 46.780396%)" offset="0.0429688"/><stop stop-opacity="1" stop-color="rgb(70.439148%, 58.624268%, 46.577454%)" offset="0.046875"/><stop stop-opacity="1" stop-color="rgb(70.098877%, 58.346558%, 46.372986%)" offset="0.0507812"/><stop stop-opacity="1" stop-color="rgb(69.760132%, 58.068848%, 46.170044%)" offset="0.0546875"/><stop stop-opacity="1" stop-color="rgb(69.421387%, 57.791138%, 45.965576%)" offset="0.0585938"/><stop stop-opacity="1" stop-color="rgb(69.082642%, 57.513428%, 45.762634%)" offset="0.0625"/><stop stop-opacity="1" stop-color="rgb(68.742371%, 57.234192%, 45.558167%)" offset="0.0664062"/><stop stop-opacity="1" stop-color="rgb(68.403625%, 56.956482%, 45.355225%)" offset="0.0703125"/><stop stop-opacity="1" stop-color="rgb(68.06488%, 56.678772%, 45.152283%)" offset="0.0742187"/><stop stop-opacity="1" stop-color="rgb(67.726135%, 56.401062%, 44.949341%)" offset="0.078125"/><stop stop-opacity="1" stop-color="rgb(67.385864%, 56.123352%, 44.744873%)" offset="0.0820312"/><stop stop-opacity="1" stop-color="rgb(67.047119%, 55.845642%, 44.541931%)" offset="0.0859375"/><stop stop-opacity="1" stop-color="rgb(66.708374%, 55.567932%, 44.337463%)" offset="0.0898438"/><stop stop-opacity="1" stop-color="rgb(66.369629%, 55.290222%, 44.134521%)" offset="0.09375"/><stop stop-opacity="1" stop-color="rgb(66.029358%, 55.010986%, 43.930054%)" offset="0.0976562"/><stop stop-opacity="1" stop-color="rgb(65.690613%, 54.733276%, 43.727112%)" offset="0.101562"/><stop stop-opacity="1" stop-color="rgb(65.351868%, 54.455566%, 43.52417%)" offset="0.105469"/><stop stop-opacity="1" stop-color="rgb(65.013123%, 54.177856%, 43.321228%)" offset="0.109375"/><stop stop-opacity="1" stop-color="rgb(64.672852%, 53.900146%, 43.11676%)" offset="0.113281"/><stop stop-opacity="1" stop-color="rgb(64.334106%, 53.622437%, 42.913818%)" offset="0.117188"/><stop stop-opacity="1" stop-color="rgb(63.993835%, 53.344727%, 42.709351%)" offset="0.121094"/><stop stop-opacity="1" stop-color="rgb(63.65509%, 53.067017%, 42.506409%)" offset="0.125"/><stop stop-opacity="1" stop-color="rgb(63.316345%, 52.787781%, 42.301941%)" offset="0.128906"/><stop stop-opacity="1" stop-color="rgb(62.9776%, 52.510071%, 42.098999%)" offset="0.132812"/><stop stop-opacity="1" stop-color="rgb(62.637329%, 52.232361%, 41.896057%)" offset="0.136719"/><stop stop-opacity="1" stop-color="rgb(62.298584%, 51.954651%, 41.693115%)" offset="0.140625"/><stop stop-opacity="1" stop-color="rgb(61.959839%, 51.676941%, 41.488647%)" offset="0.144531"/><stop stop-opacity="1" stop-color="rgb(61.621094%, 51.399231%, 41.285706%)" offset="0.148438"/><stop stop-opacity="1" stop-color="rgb(61.280823%, 51.121521%, 41.081238%)" offset="0.152344"/><stop stop-opacity="1" stop-color="rgb(60.942078%, 50.843811%, 40.878296%)" offset="0.15625"/><stop stop-opacity="1" stop-color="rgb(60.603333%, 50.564575%, 40.673828%)" offset="0.160156"/><stop stop-opacity="1" stop-color="rgb(60.264587%, 50.286865%, 40.470886%)" offset="0.164062"/><stop stop-opacity="1" stop-color="rgb(59.924316%, 50.009155%, 40.267944%)" offset="0.167969"/><stop stop-opacity="1" stop-color="rgb(59.585571%, 49.731445%, 40.065002%)" offset="0.171875"/><stop stop-opacity="1" stop-color="rgb(59.2453%, 49.453735%, 39.860535%)" offset="0.175781"/><stop stop-opacity="1" stop-color="rgb(58.906555%, 49.176025%, 39.657593%)" offset="0.179687"/><stop stop-opacity="1" stop-color="rgb(58.56781%, 48.898315%, 39.453125%)" offset="0.183594"/><stop stop-opacity="1" stop-color="rgb(58.229065%, 48.620605%, 39.250183%)" offset="0.1875"/><stop stop-opacity="1" stop-color="rgb(57.888794%, 48.34137%, 39.045715%)" offset="0.191406"/><stop stop-opacity="1" stop-color="rgb(57.550049%, 48.06366%, 38.842773%)" offset="0.195312"/><stop stop-opacity="1" stop-color="rgb(57.211304%, 47.78595%, 38.639832%)" offset="0.199219"/><stop stop-opacity="1" stop-color="rgb(56.872559%, 47.50824%, 38.43689%)" offset="0.203125"/><stop stop-opacity="1" stop-color="rgb(56.532288%, 47.23053%, 38.232422%)" offset="0.207031"/><stop stop-opacity="1" stop-color="rgb(56.193542%, 46.95282%, 38.02948%)" offset="0.210938"/><stop stop-opacity="1" stop-color="rgb(55.854797%, 46.67511%, 37.825012%)" offset="0.214844"/><stop stop-opacity="1" stop-color="rgb(55.516052%, 46.3974%, 37.62207%)" offset="0.21875"/><stop stop-opacity="1" stop-color="rgb(55.175781%, 46.118164%, 37.417603%)" offset="0.222656"/><stop stop-opacity="1" stop-color="rgb(54.837036%, 45.840454%, 37.214661%)" offset="0.226562"/><stop stop-opacity="1" stop-color="rgb(54.498291%, 45.562744%, 37.011719%)" offset="0.230469"/><stop stop-opacity="1" stop-color="rgb(54.159546%, 45.285034%, 36.808777%)" offset="0.234375"/><stop stop-opacity="1" stop-color="rgb(53.819275%, 45.007324%, 36.604309%)" offset="0.238281"/><stop stop-opacity="1" stop-color="rgb(53.48053%, 44.729614%, 36.401367%)" offset="0.242187"/><stop stop-opacity="1" stop-color="rgb(53.140259%, 44.451904%, 36.196899%)" offset="0.246094"/><stop stop-opacity="1" stop-color="rgb(52.801514%, 44.174194%, 35.993958%)" offset="0.25"/><stop stop-opacity="1" stop-color="rgb(52.462769%, 43.894958%, 35.78949%)" offset="0.253906"/><stop stop-opacity="1" stop-color="rgb(52.124023%, 43.617249%, 35.586548%)" offset="0.257812"/><stop stop-opacity="1" stop-color="rgb(51.783752%, 43.339539%, 35.383606%)" offset="0.261719"/><stop stop-opacity="1" stop-color="rgb(51.445007%, 43.061829%, 35.180664%)" offset="0.265625"/><stop stop-opacity="1" stop-color="rgb(51.106262%, 42.784119%, 34.976196%)" offset="0.269531"/><stop stop-opacity="1" stop-color="rgb(50.767517%, 42.506409%, 34.773254%)" offset="0.273438"/><stop stop-opacity="1" stop-color="rgb(50.427246%, 42.228699%, 34.568787%)" offset="0.277344"/><stop stop-opacity="1" stop-color="rgb(50.088501%, 41.950989%, 34.365845%)" offset="0.28125"/><stop stop-opacity="1" stop-color="rgb(49.749756%, 41.671753%, 34.161377%)" offset="0.285156"/><stop stop-opacity="1" stop-color="rgb(49.411011%, 41.394043%, 33.958435%)" offset="0.289062"/><stop stop-opacity="1" stop-color="rgb(49.07074%, 41.116333%, 33.755493%)" offset="0.292969"/><stop stop-opacity="1" stop-color="rgb(48.731995%, 40.838623%, 33.552551%)" offset="0.296875"/><stop stop-opacity="1" stop-color="rgb(48.391724%, 40.560913%, 33.348083%)" offset="0.300781"/><stop stop-opacity="1" stop-color="rgb(48.052979%, 40.283203%, 33.145142%)" offset="0.304688"/><stop stop-opacity="1" stop-color="rgb(47.714233%, 40.005493%, 32.940674%)" offset="0.308594"/><stop stop-opacity="1" stop-color="rgb(47.375488%, 39.727783%, 32.737732%)" offset="0.3125"/><stop stop-opacity="1" stop-color="rgb(47.035217%, 39.448547%, 32.533264%)" offset="0.316406"/><stop stop-opacity="1" stop-color="rgb(46.696472%, 39.170837%, 32.330322%)" offset="0.320312"/><stop stop-opacity="1" stop-color="rgb(46.357727%, 38.893127%, 32.12738%)" offset="0.324219"/><stop stop-opacity="1" stop-color="rgb(46.018982%, 38.615417%, 31.924438%)" offset="0.328125"/><stop stop-opacity="1" stop-color="rgb(45.678711%, 38.337708%, 31.719971%)" offset="0.332031"/><stop stop-opacity="1" stop-color="rgb(45.339966%, 38.059998%, 31.517029%)" offset="0.335938"/><stop stop-opacity="1" stop-color="rgb(45.001221%, 37.782288%, 31.312561%)" offset="0.339844"/><stop stop-opacity="1" stop-color="rgb(44.662476%, 37.504578%, 31.109619%)" offset="0.34375"/><stop stop-opacity="1" stop-color="rgb(44.322205%, 37.225342%, 30.905151%)" offset="0.347656"/><stop stop-opacity="1" stop-color="rgb(43.983459%, 36.947632%, 30.702209%)" offset="0.351562"/><stop stop-opacity="1" stop-color="rgb(43.644714%, 36.669922%, 30.499268%)" offset="0.355469"/><stop stop-opacity="1" stop-color="rgb(43.305969%, 36.392212%, 30.296326%)" offset="0.359375"/><stop stop-opacity="1" stop-color="rgb(42.965698%, 36.114502%, 30.091858%)" offset="0.363281"/><stop stop-opacity="1" stop-color="rgb(42.626953%, 35.836792%, 29.888916%)" offset="0.367188"/><stop stop-opacity="1" stop-color="rgb(42.286682%, 35.559082%, 29.684448%)" offset="0.371094"/><stop stop-opacity="1" stop-color="rgb(41.947937%, 35.281372%, 29.481506%)" offset="0.375"/><stop stop-opacity="1" stop-color="rgb(41.609192%, 35.002136%, 29.277039%)" offset="0.378906"/><stop stop-opacity="1" stop-color="rgb(41.270447%, 34.724426%, 29.074097%)" offset="0.382812"/><stop stop-opacity="1" stop-color="rgb(40.930176%, 34.446716%, 28.871155%)" offset="0.386719"/><stop stop-opacity="1" stop-color="rgb(40.591431%, 34.169006%, 28.668213%)" offset="0.390625"/><stop stop-opacity="1" stop-color="rgb(40.252686%, 33.891296%, 28.463745%)" offset="0.394531"/><stop stop-opacity="1" stop-color="rgb(39.91394%, 33.613586%, 28.260803%)" offset="0.398437"/><stop stop-opacity="1" stop-color="rgb(39.573669%, 33.335876%, 28.056335%)" offset="0.402344"/><stop stop-opacity="1" stop-color="rgb(39.234924%, 33.058167%, 27.853394%)" offset="0.40625"/><stop stop-opacity="1" stop-color="rgb(38.896179%, 32.778931%, 27.648926%)" offset="0.410156"/><stop stop-opacity="1" stop-color="rgb(38.557434%, 32.501221%, 27.445984%)" offset="0.414062"/><stop stop-opacity="1" stop-color="rgb(38.217163%, 32.223511%, 27.243042%)" offset="0.417969"/><stop stop-opacity="1" stop-color="rgb(37.878418%, 31.945801%, 27.0401%)" offset="0.421875"/><stop stop-opacity="1" stop-color="rgb(37.538147%, 31.668091%, 26.835632%)" offset="0.425781"/><stop stop-opacity="1" stop-color="rgb(37.199402%, 31.390381%, 26.63269%)" offset="0.429687"/><stop stop-opacity="1" stop-color="rgb(36.860657%, 31.112671%, 26.428223%)" offset="0.433594"/><stop stop-opacity="1" stop-color="rgb(36.521912%, 30.834961%, 26.225281%)" offset="0.4375"/><stop stop-opacity="1" stop-color="rgb(36.181641%, 30.555725%, 26.020813%)" offset="0.441406"/><stop stop-opacity="1" stop-color="rgb(35.842896%, 30.278015%, 25.817871%)" offset="0.445312"/><stop stop-opacity="1" stop-color="rgb(35.50415%, 30.000305%, 25.614929%)" offset="0.449219"/><stop stop-opacity="1" stop-color="rgb(35.165405%, 29.722595%, 25.411987%)" offset="0.453125"/><stop stop-opacity="1" stop-color="rgb(34.825134%, 29.444885%, 25.20752%)" offset="0.457031"/><stop stop-opacity="1" stop-color="rgb(34.486389%, 29.167175%, 25.004578%)" offset="0.460938"/><stop stop-opacity="1" stop-color="rgb(34.147644%, 28.889465%, 24.80011%)" offset="0.464844"/><stop stop-opacity="1" stop-color="rgb(33.808899%, 28.611755%, 24.597168%)" offset="0.46875"/><stop stop-opacity="1" stop-color="rgb(33.468628%, 28.33252%, 24.3927%)" offset="0.472656"/><stop stop-opacity="1" stop-color="rgb(33.129883%, 28.05481%, 24.189758%)" offset="0.476562"/><stop stop-opacity="1" stop-color="rgb(32.791138%, 27.7771%, 23.986816%)" offset="0.480469"/><stop stop-opacity="1" stop-color="rgb(32.452393%, 27.49939%, 23.783875%)" offset="0.484375"/><stop stop-opacity="1" stop-color="rgb(32.112122%, 27.22168%, 23.579407%)" offset="0.488281"/><stop stop-opacity="1" stop-color="rgb(31.773376%, 26.94397%, 23.376465%)" offset="0.492187"/><stop stop-opacity="1" stop-color="rgb(31.433105%, 26.66626%, 23.171997%)" offset="0.496094"/><stop stop-opacity="1" stop-color="rgb(31.09436%, 26.38855%, 22.969055%)" offset="0.5"/><stop stop-opacity="1" stop-color="rgb(30.755615%, 26.109314%, 22.764587%)" offset="0.503906"/><stop stop-opacity="1" stop-color="rgb(30.41687%, 25.831604%, 22.561646%)" offset="0.507812"/><stop stop-opacity="1" stop-color="rgb(30.076599%, 25.553894%, 22.358704%)" offset="0.511719"/><stop stop-opacity="1" stop-color="rgb(29.737854%, 25.276184%, 22.155762%)" offset="0.515625"/><stop stop-opacity="1" stop-color="rgb(29.399109%, 24.998474%, 21.951294%)" offset="0.519531"/><stop stop-opacity="1" stop-color="rgb(29.060364%, 24.720764%, 21.748352%)" offset="0.523438"/><stop stop-opacity="1" stop-color="rgb(28.720093%, 24.443054%, 21.543884%)" offset="0.527344"/><stop stop-opacity="1" stop-color="rgb(28.381348%, 24.165344%, 21.340942%)" offset="0.53125"/><stop stop-opacity="1" stop-color="rgb(28.042603%, 23.886108%, 21.136475%)" offset="0.535156"/><stop stop-opacity="1" stop-color="rgb(27.703857%, 23.608398%, 20.933533%)" offset="0.539062"/><stop stop-opacity="1" stop-color="rgb(27.363586%, 23.330688%, 20.730591%)" offset="0.542969"/><stop stop-opacity="1" stop-color="rgb(27.024841%, 23.052979%, 20.527649%)" offset="0.546875"/><stop stop-opacity="1" stop-color="rgb(26.68457%, 22.775269%, 20.323181%)" offset="0.550781"/><stop stop-opacity="1" stop-color="rgb(26.345825%, 22.497559%, 20.120239%)" offset="0.554688"/><stop stop-opacity="1" stop-color="rgb(26.00708%, 22.219849%, 19.915771%)" offset="0.558594"/><stop stop-opacity="1" stop-color="rgb(25.668335%, 21.942139%, 19.71283%)" offset="0.5625"/><stop stop-opacity="1" stop-color="rgb(25.328064%, 21.662903%, 19.508362%)" offset="0.566406"/><stop stop-opacity="1" stop-color="rgb(24.989319%, 21.385193%, 19.30542%)" offset="0.570312"/><stop stop-opacity="1" stop-color="rgb(24.650574%, 21.107483%, 19.102478%)" offset="0.574219"/><stop stop-opacity="1" stop-color="rgb(24.311829%, 20.829773%, 18.899536%)" offset="0.578125"/><stop stop-opacity="1" stop-color="rgb(23.971558%, 20.552063%, 18.695068%)" offset="0.582031"/><stop stop-opacity="1" stop-color="rgb(23.632812%, 20.274353%, 18.492126%)" offset="0.585938"/><stop stop-opacity="1" stop-color="rgb(23.294067%, 19.996643%, 18.287659%)" offset="0.589844"/><stop stop-opacity="1" stop-color="rgb(22.955322%, 19.718933%, 18.084717%)" offset="0.59375"/><stop stop-opacity="1" stop-color="rgb(22.615051%, 19.439697%, 17.880249%)" offset="0.597656"/><stop stop-opacity="1" stop-color="rgb(22.276306%, 19.161987%, 17.677307%)" offset="0.601562"/><stop stop-opacity="1" stop-color="rgb(21.937561%, 18.884277%, 17.474365%)" offset="0.605469"/><stop stop-opacity="1" stop-color="rgb(21.598816%, 18.606567%, 17.271423%)" offset="0.609375"/><stop stop-opacity="1" stop-color="rgb(21.258545%, 18.328857%, 17.066956%)" offset="0.613281"/><stop stop-opacity="1" stop-color="rgb(20.9198%, 18.051147%, 16.864014%)" offset="0.617188"/><stop stop-opacity="1" stop-color="rgb(20.579529%, 17.771912%, 16.659546%)" offset="0.621094"/><stop stop-opacity="1" stop-color="rgb(20.240784%, 17.494202%, 16.456604%)" offset="0.625"/><stop stop-opacity="1" stop-color="rgb(19.902039%, 17.216492%, 16.252136%)" offset="0.628906"/><stop stop-opacity="1" stop-color="rgb(19.563293%, 16.938782%, 16.049194%)" offset="0.632812"/><stop stop-opacity="1" stop-color="rgb(19.223022%, 16.661072%, 15.846252%)" offset="0.636719"/><stop stop-opacity="1" stop-color="rgb(18.884277%, 16.383362%, 15.643311%)" offset="0.640625"/><stop stop-opacity="1" stop-color="rgb(18.545532%, 16.105652%, 15.438843%)" offset="0.644531"/><stop stop-opacity="1" stop-color="rgb(18.206787%, 15.827942%, 15.235901%)" offset="0.648438"/><stop stop-opacity="1" stop-color="rgb(17.866516%, 15.548706%, 15.031433%)" offset="0.652344"/><stop stop-opacity="1" stop-color="rgb(17.527771%, 15.270996%, 14.828491%)" offset="0.65625"/><stop stop-opacity="1" stop-color="rgb(17.189026%, 14.993286%, 14.624023%)" offset="0.660156"/><stop stop-opacity="1" stop-color="rgb(16.850281%, 14.715576%, 14.421082%)" offset="0.664062"/><stop stop-opacity="1" stop-color="rgb(16.51001%, 14.437866%, 14.21814%)" offset="0.667969"/><stop stop-opacity="1" stop-color="rgb(16.171265%, 14.160156%, 14.015198%)" offset="0.671875"/><stop stop-opacity="1" stop-color="rgb(15.830994%, 13.882446%, 13.81073%)" offset="0.675781"/><stop stop-opacity="1" stop-color="rgb(15.492249%, 13.604736%, 13.607788%)" offset="0.679688"/><stop stop-opacity="1" stop-color="rgb(15.153503%, 13.3255%, 13.40332%)" offset="0.683594"/><stop stop-opacity="1" stop-color="rgb(14.814758%, 13.047791%, 13.200378%)" offset="0.6875"/><stop stop-opacity="1" stop-color="rgb(14.474487%, 12.770081%, 12.995911%)" offset="0.691406"/><stop stop-opacity="1" stop-color="rgb(14.135742%, 12.492371%, 12.792969%)" offset="0.695313"/><stop stop-opacity="1" stop-color="rgb(13.9328%, 12.32605%, 12.670898%)" offset="0.699219"/><stop stop-opacity="1" stop-color="rgb(13.729858%, 12.159729%, 12.548828%)" offset="0.703125"/><stop stop-opacity="1" stop-color="rgb(13.729858%, 12.159729%, 12.548828%)" offset="0.71875"/><stop stop-opacity="1" stop-color="rgb(13.729858%, 12.159729%, 12.548828%)" offset="0.75"/><stop stop-opacity="1" stop-color="rgb(13.729858%, 12.159729%, 12.548828%)" offset="1"/></linearGradient><clipPath id="15f7a47ca0"><path d="M 719 87 L 899.332031 87 L 899.332031 178 L 719 178 Z M 719 87 " clip-rule="nonzero"/></clipPath><clipPath id="c7be863947"><path d="M 857 160 L 899.332031 160 L 899.332031 287 L 857 287 Z M 857 160 " clip-rule="nonzero"/></clipPath><clipPath id="919697c68c"><path d="M 893 160 L 899.332031 160 L 899.332031 183 L 893 183 Z M 893 160 " clip-rule="nonzero"/></clipPath></defs><g clip-path="url(#766a0d8f25)"><path fill="#ffffff" d="M 0.664062 0 L 899.335938 0 L 899.335938 674 L 0.664062 674 Z M 0.664062 0 " fill-opacity="1" fill-rule="nonzero"/><path fill="#ffffff" d="M 0.664062 0 L 899.335938 0 L 899.335938 674 L 0.664062 674 Z M 0.664062 0 " fill-opacity="1" fill-rule="nonzero"/></g><g clip-path="url(#24a7f5d207)"><path fill="#edb36e" d="M 899.945312 291.886719 L 899.945312 392.636719 L 1.683594 392.636719 L 1.683594 291.886719 Z M 899.945312 291.886719 " fill-opacity="0.8" fill-rule="nonzero"/></g><g clip-path="url(#cda5fa9579)"><path fill="#dea962" d="M 899.945312 191.46875 L 899.945312 292.21875 L 1.683594 292.21875 L 1.683594 191.46875 Z M 899.945312 191.46875 " fill-opacity="0.8" fill-rule="nonzero"/></g><g clip-path="url(#51aecb6c41)"><path fill="#edb36e" d="M 899.945312 90.574219 L 899.945312 191.320312 L 1.683594 191.320312 L 1.683594 90.574219 Z M 899.945312 90.574219 " fill-opacity="0.8" fill-rule="nonzero"/></g><g clip-path="url(#4d8c286c14)"><path fill="#dea962" d="M 899.945312 -0.0078125 L 899.945312 90.910156 L 1.683594 90.910156 L 1.683594 -0.0078125 Z M 899.945312 -0.0078125 " fill-opacity="0.8" fill-rule="nonzero"/></g><g clip-path="url(#c07646d363)"><path fill="#dea962" d="M 899.945312 392.832031 L 899.945312 493.578125 L 1.683594 493.578125 L 1.683594 392.832031 Z M 899.945312 392.832031 " fill-opacity="0.8" fill-rule="nonzero"/></g><g clip-path="url(#224924d7d9)"><path fill="#6ca442" d="M 0.664062 493.289062 L 899.683594 493.289062 L 899.683594 672.871094 L 0.664062 672.871094 Z M 0.664062 493.289062 " fill-opacity="1" fill-rule="nonzero"/></g><g clip-path="url(#b8f563baab)"><path fill="#ead788" d="M 0.8125 0.226562 L 0.8125 63.722656 C 0.8125 63.722656 14.574219 125.105469 16.691406 148.382812 C 16.691406 148.382812 29.394531 33.03125 24.105469 -0.832031 Z M 0.8125 0.226562 " fill-opacity="1" fill-rule="nonzero"/></g><g clip-path="url(#cad7806004)"><path fill="#ead788" d="M 899.71875 0.226562 L 899.71875 63.722656 C 899.71875 63.722656 885.953125 125.105469 883.839844 148.382812 C 883.832031 148.382812 871.128906 33.03125 876.425781 -0.832031 Z M 899.71875 0.226562 " fill-opacity="1" fill-rule="nonzero"/></g><path fill="#ead788" d="M 59.050781 -0.832031 C 59.050781 -0.832031 54.816406 104.996094 38.933594 154.730469 C 38.933594 154.730469 20.929688 34.089844 24.113281 -0.832031 Z M 59.050781 -0.832031 " fill-opacity="1" fill-rule="nonzero"/><path fill="#ead788" d="M 158.574219 -0.832031 C 158.574219 -0.832031 154.339844 104.996094 138.457031 154.730469 C 138.457031 154.730469 120.453125 34.089844 123.636719 -0.832031 Z M 158.574219 -0.832031 " fill-opacity="1" fill-rule="nonzero"/><path fill="#ead788" d="M 125.753906 -0.832031 C 125.753906 -0.832031 121.519531 89.160156 105.632812 131.449219 C 105.632812 131.449219 87.632812 28.863281 90.8125 -0.832031 Z M 125.753906 -0.832031 " fill-opacity="1" fill-rule="nonzero"/><path fill="#ead788" d="M 91.871094 -0.832031 C 91.871094 -0.832031 87.640625 81.957031 71.753906 120.867188 C 71.753906 120.867188 53.753906 26.484375 56.933594 -0.832031 Z M 91.871094 -0.832031 " fill-opacity="1" fill-rule="nonzero"/><path fill="#ead788" d="M 158.574219 -0.832031 C 158.574219 -0.832031 151.160156 109.226562 162.804688 139.917969 C 162.804688 139.917969 159.632812 20.335938 180.808594 -0.832031 Z M 158.574219 -0.832031 " fill-opacity="1" fill-rule="nonzero"/><path fill="#ead788" d="M 213.628906 -0.832031 C 213.628906 -0.832031 209.398438 104.996094 193.511719 154.730469 C 193.511719 154.730469 175.511719 34.089844 178.691406 -0.832031 Z M 213.628906 -0.832031 " fill-opacity="1" fill-rule="nonzero"/><path fill="#ead788" d="M 313.152344 -0.832031 C 313.152344 -0.832031 308.921875 104.996094 293.035156 154.730469 C 293.035156 154.730469 275.035156 34.089844 278.214844 -0.832031 Z M 313.152344 -0.832031 " fill-opacity="1" fill-rule="nonzero"/><path fill="#ead788" d="M 280.332031 -0.832031 C 280.332031 -0.832031 276.097656 89.160156 260.214844 131.449219 C 260.214844 131.449219 242.210938 28.863281 245.394531 -0.832031 Z M 280.332031 -0.832031 " fill-opacity="1" fill-rule="nonzero"/><path fill="#ead788" d="M 246.449219 -0.832031 C 246.449219 -0.832031 242.21875 81.957031 226.332031 120.867188 C 226.332031 120.867188 208.332031 26.484375 211.511719 -0.832031 Z M 246.449219 -0.832031 " fill-opacity="1" fill-rule="nonzero"/><path fill="#ead788" d="M 313.152344 -0.832031 C 313.152344 -0.832031 305.738281 109.226562 317.386719 139.917969 C 317.386719 139.917969 314.210938 20.335938 335.386719 -0.832031 Z M 313.152344 -0.832031 " fill-opacity="1" fill-rule="nonzero"/><path fill="#ead788" d="M 366.089844 -0.832031 C 366.089844 -0.832031 361.859375 104.996094 345.972656 154.730469 C 345.972656 154.730469 327.972656 34.089844 331.152344 -0.832031 Z M 366.089844 -0.832031 " fill-opacity="1" fill-rule="nonzero"/><path fill="#ead788" d="M 465.613281 -0.832031 C 465.613281 -0.832031 461.382812 104.996094 445.496094 154.730469 C 445.496094 154.730469 427.496094 34.089844 430.675781 -0.832031 Z M 465.613281 -0.832031 " fill-opacity="1" fill-rule="nonzero"/><path fill="#ead788" d="M 432.792969 -0.832031 C 432.792969 -0.832031 428.5625 89.160156 412.675781 131.449219 C 412.675781 131.449219 394.675781 28.863281 397.855469 -0.832031 Z M 432.792969 -0.832031 " fill-opacity="1" fill-rule="nonzero"/><path fill="#ead788" d="M 398.914062 -0.832031 C 398.914062 -0.832031 394.679688 81.957031 378.796875 120.867188 C 378.796875 120.867188 360.792969 26.484375 363.976562 -0.832031 Z M 398.914062 -0.832031 " fill-opacity="1" fill-rule="nonzero"/><path fill="#ead788" d="M 465.613281 -0.832031 C 465.613281 -0.832031 458.203125 109.226562 469.847656 139.917969 C 469.847656 139.917969 466.671875 20.335938 487.847656 -0.832031 Z M 465.613281 -0.832031 " fill-opacity="1" fill-rule="nonzero"/><path fill="#ead788" d="M 520.671875 -0.832031 C 520.671875 -0.832031 516.4375 104.996094 500.554688 154.730469 C 500.554688 154.730469 482.550781 34.089844 485.734375 -0.832031 Z M 520.671875 -0.832031 " fill-opacity="1" fill-rule="nonzero"/><path fill="#ead788" d="M 620.199219 -0.832031 C 620.199219 -0.832031 615.96875 104.996094 600.082031 154.730469 C 600.082031 154.730469 582.082031 34.089844 585.261719 -0.832031 Z M 620.199219 -0.832031 " fill-opacity="1" fill-rule="nonzero"/><path fill="#ead788" d="M 587.378906 -0.832031 C 587.378906 -0.832031 583.144531 89.160156 567.261719 131.449219 C 567.261719 131.449219 549.257812 28.863281 552.441406 -0.832031 Z M 587.378906 -0.832031 " fill-opacity="1" fill-rule="nonzero"/><path fill="#ead788" d="M 553.5 -0.832031 C 553.5 -0.832031 549.265625 81.957031 533.382812 120.867188 C 533.382812 120.867188 515.378906 26.484375 518.5625 -0.832031 Z M 553.5 -0.832031 " fill-opacity="1" fill-rule="nonzero"/><path fill="#ead788" d="M 620.199219 -0.832031 C 620.199219 -0.832031 612.785156 109.226562 624.433594 139.917969 C 624.433594 139.917969 621.257812 20.335938 642.433594 -0.832031 Z M 620.199219 -0.832031 " fill-opacity="1" fill-rule="nonzero"/><path fill="#ead788" d="M 675.257812 -0.832031 C 675.257812 -0.832031 671.023438 104.996094 655.136719 154.730469 C 655.136719 154.730469 637.136719 34.089844 640.316406 -0.832031 Z M 675.257812 -0.832031 " fill-opacity="1" fill-rule="nonzero"/><path fill="#ead788" d="M 774.777344 -0.832031 C 774.777344 -0.832031 770.546875 104.996094 754.660156 154.730469 C 754.660156 154.730469 736.660156 34.089844 739.839844 -0.832031 Z M 774.777344 -0.832031 " fill-opacity="1" fill-rule="nonzero"/><path fill="#ead788" d="M 741.957031 -0.832031 C 741.957031 -0.832031 737.726562 89.160156 721.839844 131.449219 C 721.839844 131.449219 703.839844 28.863281 707.019531 -0.832031 Z M 741.957031 -0.832031 " fill-opacity="1" fill-rule="nonzero"/><path fill="#ead788" d="M 708.078125 -0.832031 C 708.078125 -0.832031 703.84375 81.957031 687.960938 120.867188 C 687.960938 120.867188 669.957031 26.484375 673.140625 -0.832031 Z M 708.078125 -0.832031 " fill-opacity="1" fill-rule="nonzero"/><path fill="#ead788" d="M 878.542969 -0.832031 C 878.542969 -0.832031 874.308594 104.996094 858.421875 154.730469 C 858.421875 154.730469 840.421875 34.089844 843.601562 -0.832031 Z M 878.542969 -0.832031 " fill-opacity="1" fill-rule="nonzero"/><path fill="#ead788" d="M 845.71875 -0.832031 C 845.71875 -0.832031 841.488281 89.160156 825.601562 131.449219 C 825.601562 131.449219 807.601562 28.863281 810.78125 -0.832031 Z M 845.71875 -0.832031 " fill-opacity="1" fill-rule="nonzero"/><path fill="#ead788" d="M 811.839844 -0.832031 C 811.839844 -0.832031 807.609375 81.957031 791.722656 120.867188 C 791.722656 120.867188 773.722656 26.484375 776.902344 -0.832031 Z M 811.839844 -0.832031 " fill-opacity="1" fill-rule="nonzero"/><path fill="#ead788" d="M 774.777344 -0.832031 C 774.777344 -0.832031 767.367188 109.226562 779.011719 139.917969 C 779.011719 139.917969 775.835938 20.335938 797.011719 -0.832031 Z M 774.777344 -0.832031 " fill-opacity="1" fill-rule="nonzero"/><path fill="#be9e7d" d="M 762.824219 293.296875 L 779.496094 306.996094 L 838.117188 274.203125 L 847.824219 260.179688 L 857.265625 249.609375 L 861.464844 248.335938 L 877.882812 235.566406 C 877.882812 235.566406 881.390625 237.25 879.140625 240.160156 C 876.890625 243.070312 873.816406 246.511719 873.816406 246.511719 L 878.441406 243.089844 C 878.441406 243.089844 877.214844 246.621094 877.144531 250.210938 L 867.925781 258.253906 C 867.925781 258.253906 866.390625 260.515625 868.316406 259.574219 C 870.246094 258.628906 876.992188 252.609375 876.992188 252.609375 C 876.992188 252.609375 876.558594 255.816406 877.132812 259.242188 L 869.542969 265.675781 L 870.082031 268.167969 C 870.082031 268.167969 872.292969 268.101562 877.878906 265.320312 L 878.425781 270.574219 C 878.425781 270.574219 872.628906 274.144531 870.371094 274.832031 C 870.371094 274.832031 855.066406 292.804688 846.527344 292.277344 L 799.148438 339.410156 C 799.148438 339.410156 779.355469 354.339844 762.121094 345.320312 C 752.011719 340.023438 747.449219 337.773438 747.449219 337.773438 L 740.328125 317.25 L 762.84375 293.289062 Z M 762.824219 293.296875 " fill-opacity="1" fill-rule="nonzero"/><path stroke-linecap="butt" transform="matrix(0.673957, 0, 0, 0.673626, 0.665679, -0.830345)" fill-opacity="1" fill="#be9e7d" fill-rule="nonzero" stroke-linejoin="miter" d="M 1156.681302 456.899442 C 1156.681302 456.899442 1146.480349 465.649887 1146.752761 476.667677 " stroke="#603913" stroke-width="1" stroke-opacity="1" stroke-miterlimit="10"/><path stroke-linecap="butt" transform="matrix(0.673957, 0, 0, 0.673626, 0.665679, -0.830345)" fill-opacity="1" fill="#be9e7d" fill-rule="nonzero" stroke-linejoin="miter" d="M 1277.209035 369.887897 L 1291.229548 367.272621 C 1291.229548 367.272621 1293.710235 372.259621 1288.551798 375.512768 C 1283.387566 378.760117 1278.530522 381.027462 1278.530522 381.027462 L 1273.748825 385.092447 C 1273.748825 385.092447 1278.22913 398.261605 1270.439311 407.742703 " stroke="#603913" stroke-width="1" stroke-opacity="1" stroke-miterlimit="10"/><path stroke-linecap="butt" transform="matrix(0.673957, 0, 0, 0.673626, 0.665679, -0.830345)" fill-opacity="1" fill="#be9e7d" fill-rule="nonzero" stroke-linejoin="miter" d="M 1284.871341 388.502163 C 1284.871341 388.502163 1291.641064 395.507157 1289.919653 405.498553 " stroke="#603913" stroke-width="1" stroke-opacity="1" stroke-miterlimit="10"/><g clip-path="url(#07f02b4831)"><path fill="#07935b" d="M 638.84375 397.917969 C 638.84375 397.917969 621.082031 432.667969 630.382812 500.078125 C 630.382812 500.078125 635.046875 558.402344 632.128906 575.039062 C 632.128906 575.039062 620.066406 621.035156 628.414062 673.550781 C 628.414062 673.550781 705.597656 674.445312 731.882812 673.21875 L 732.71875 597.113281 C 732.71875 597.113281 733.601562 572.789062 735.59375 537.277344 L 754.703125 418.042969 " fill-opacity="1" fill-rule="nonzero"/></g><path fill="#be9e7d" d="M 725.949219 222.242188 C 725.949219 222.242188 719.445312 234.9375 721.550781 239.140625 C 723.652344 243.347656 734.441406 253.886719 733.390625 263.351562 C 732.339844 272.808594 711.304688 268.605469 711.304688 268.605469 C 711.304688 268.605469 677.871094 249.738281 668.03125 222.636719 C 668.03125 222.636719 673.242188 215.160156 681.652344 188.890625 " fill-opacity="1" fill-rule="nonzero"/><path fill="#be9e7d" d="M 680.4375 171.160156 C 680.4375 171.160156 680.667969 125.402344 721.359375 124.34375 C 721.359375 124.34375 757.160156 128.019531 745.355469 171.894531 C 745.355469 171.894531 744.398438 173.859375 745.308594 177.398438 C 745.308594 177.398438 749.378906 182.859375 743.609375 195.828125 C 737.839844 208.796875 730.816406 215.613281 730.816406 215.613281 C 730.816406 215.613281 727.90625 221.109375 717.808594 220.683594 C 717.808594 220.683594 709.777344 221.230469 701.0625 214.960938 C 701.0625 214.960938 679.757812 202.226562 681.644531 188.890625 C 681.644531 188.890625 671.3125 194.992188 667.714844 178.894531 C 667.714844 178.894531 665.019531 156.738281 680.433594 171.152344 Z M 680.4375 171.160156 " fill-opacity="1" fill-rule="nonzero"/><path fill="#bf6b6b" d="M 706.9375 195.585938 C 706.9375 195.585938 717.121094 192.804688 721.394531 196.460938 C 721.394531 196.460938 724.3125 193.792969 732.367188 197.308594 C 732.367188 197.308594 730.117188 208.984375 720.296875 208.511719 C 706.285156 207.839844 706.9375 195.585938 706.9375 195.585938 Z M 706.9375 195.585938 " fill-opacity="1" fill-rule="nonzero"/><path fill="#803435" d="M 708.785156 196.980469 C 708.785156 196.980469 709.6875 204.839844 719.378906 205.515625 C 729.070312 206.195312 730.5625 198.386719 730.5625 198.386719 C 730.5625 198.386719 714.824219 195.875 708.785156 196.972656 Z M 708.785156 196.980469 " fill-opacity="1" fill-rule="nonzero"/><path fill="#26130f" d="M 713.71875 158.3125 C 713.71875 158.3125 699.910156 154.035156 693.574219 158.570312 C 693.574219 158.570312 698.277344 151.34375 714.046875 155.027344 C 714.046875 155.027344 716.832031 157.121094 713.710938 158.3125 Z M 713.71875 158.3125 " fill-opacity="1" fill-rule="nonzero"/><path fill="#26130f" d="M 746.910156 158.21875 C 746.683594 157.472656 739.71875 156.609375 733.195312 157.304688 C 733.195312 157.304688 730.175781 159.042969 733.121094 160.609375 C 733.121094 160.609375 745.078125 157.714844 746.527344 161.628906 C 746.527344 161.628906 747.46875 160.078125 746.910156 158.21875 Z M 746.910156 158.21875 " fill-opacity="1" fill-rule="nonzero"/><path stroke-linecap="butt" transform="matrix(0.673957, 0, 0, 0.673626, 0.665679, -0.830345)" fill="none" stroke-linejoin="miter" d="M 1079.177246 266.900556 C 1079.177246 266.900556 1086.839552 279.930542 1072.071355 280.522023 " stroke="#231f20" stroke-width="1" stroke-opacity="1" stroke-miterlimit="10"/><path fill="#ffffff" d="M 711.191406 196.738281 C 711.191406 196.738281 713.328125 199.230469 720.769531 199.835938 C 727.621094 200.394531 729.746094 198.234375 729.746094 198.234375 C 729.746094 198.234375 719.722656 196.332031 711.191406 196.738281 Z M 711.191406 196.738281 " fill-opacity="1" fill-rule="nonzero"/><path stroke-linecap="butt" transform="matrix(0.673957, 0, 0, 0.673626, 0.665679, -0.830345)" fill="none" stroke-linejoin="miter" d="M 992.898052 262.348469 C 992.898052 262.348469 997.899996 251.179909 1005.568099 270.101514 C 1005.568099 270.101514 998.607108 261.530833 996.862513 268.408253 " stroke="#231f20" stroke-width="1" stroke-opacity="1" stroke-miterlimit="10"/><path fill="#26130f" d="M 725.113281 219.898438 C 725.113281 219.898438 717.816406 222.894531 705.65625 217.902344 C 705.65625 217.902344 699.652344 215.179688 692.292969 208.492188 C 692.292969 208.492188 701.238281 219.917969 715.511719 221.832031 C 715.511719 221.832031 719.992188 222.5625 725.203125 221.304688 C 725.203125 221.304688 724.785156 221.285156 725.113281 219.898438 Z M 725.113281 219.898438 " fill-opacity="1" fill-rule="nonzero"/><path fill="#ffffff" d="M 698.871094 166.242188 C 698.871094 166.242188 698.871094 165.945312 699.101562 165.695312 C 699.855469 164.886719 701.585938 163.386719 704.25 163.445312 C 707.234375 163.515625 708.8125 166.355469 709.34375 167.367188 C 709.4375 167.542969 709.425781 167.691406 709.425781 167.691406 C 709.425781 167.691406 709.425781 167.859375 709.332031 167.972656 C 708.839844 168.511719 707.222656 170.023438 704.390625 169.996094 C 702.710938 169.980469 700.367188 169.023438 698.957031 166.707031 C 698.859375 166.546875 698.859375 166.34375 698.863281 166.234375 Z M 698.871094 166.242188 " fill-opacity="1" fill-rule="nonzero"/><path fill="#26130f" d="M 706.664062 166.742188 C 706.664062 167.148438 706.582031 167.542969 706.425781 167.921875 C 706.269531 168.300781 706.046875 168.632812 705.757812 168.921875 C 705.46875 169.210938 705.136719 169.433594 704.757812 169.589844 C 704.378906 169.746094 703.984375 169.828125 703.574219 169.828125 C 703.167969 169.828125 702.773438 169.746094 702.394531 169.589844 C 702.015625 169.433594 701.683594 169.210938 701.394531 168.921875 C 701.101562 168.632812 700.878906 168.300781 700.722656 167.921875 C 700.566406 167.542969 700.488281 167.148438 700.488281 166.742188 C 700.488281 166.332031 700.566406 165.9375 700.722656 165.558594 C 700.878906 165.183594 701.101562 164.847656 701.394531 164.558594 C 701.683594 164.269531 702.015625 164.046875 702.394531 163.890625 C 702.773438 163.734375 703.167969 163.65625 703.574219 163.65625 C 703.984375 163.65625 704.378906 163.734375 704.757812 163.890625 C 705.136719 164.046875 705.46875 164.269531 705.757812 164.558594 C 706.046875 164.847656 706.269531 165.183594 706.425781 165.558594 C 706.582031 165.9375 706.664062 166.332031 706.664062 166.742188 Z M 706.664062 166.742188 " fill-opacity="1" fill-rule="nonzero"/><path fill="#ffffff" d="M 706.507812 165.777344 C 706.507812 166.011719 706.425781 166.210938 706.257812 166.378906 C 706.09375 166.542969 705.890625 166.625 705.65625 166.625 C 705.421875 166.625 705.222656 166.542969 705.058594 166.378906 C 704.890625 166.210938 704.808594 166.011719 704.808594 165.777344 C 704.808594 165.542969 704.890625 165.34375 705.058594 165.175781 C 705.222656 165.011719 705.421875 164.929688 705.65625 164.929688 C 705.890625 164.929688 706.09375 165.011719 706.257812 165.175781 C 706.425781 165.34375 706.507812 165.542969 706.507812 165.777344 Z M 706.507812 165.777344 " fill-opacity="1" fill-rule="nonzero"/><path stroke-linecap="butt" transform="matrix(0.673957, 0, 0, 0.673626, 0.665679, -0.830345)" fill="none" stroke-linejoin="miter" d="M 1051.791165 249.718602 C 1051.791165 249.718602 1046.650117 239.031346 1036.141977 247.178712 " stroke="#231f20" stroke-width="0.8" stroke-opacity="1" stroke-miterlimit="10"/><path fill="#ffffff" d="M 733.566406 169.582031 C 733.566406 169.582031 733.527344 169.308594 733.703125 169.042969 C 734.289062 168.183594 735.683594 166.539062 738.167969 166.214844 C 740.953125 165.851562 742.828125 168.269531 743.472656 169.132812 C 743.582031 169.28125 743.59375 169.421875 743.59375 169.421875 C 743.59375 169.421875 743.621094 169.578125 743.546875 169.699219 C 743.171875 170.269531 741.875 171.902344 739.25 172.285156 C 737.683594 172.515625 735.367188 171.953125 733.726562 170 C 733.613281 169.867188 733.582031 169.679688 733.574219 169.578125 Z M 733.566406 169.582031 " fill-opacity="1" fill-rule="nonzero"/><path fill="#26130f" d="M 740.90625 169.394531 C 740.90625 169.777344 740.832031 170.148438 740.6875 170.5 C 740.539062 170.855469 740.332031 171.167969 740.058594 171.4375 C 739.789062 171.710938 739.476562 171.917969 739.121094 172.066406 C 738.765625 172.210938 738.398438 172.285156 738.015625 172.285156 C 737.632812 172.285156 737.261719 172.210938 736.910156 172.066406 C 736.554688 171.917969 736.242188 171.710938 735.96875 171.4375 C 735.699219 171.167969 735.488281 170.855469 735.34375 170.5 C 735.195312 170.148438 735.125 169.777344 735.125 169.394531 C 735.125 169.011719 735.195312 168.644531 735.34375 168.289062 C 735.488281 167.933594 735.699219 167.621094 735.96875 167.351562 C 736.242188 167.082031 736.554688 166.871094 736.910156 166.726562 C 737.261719 166.578125 737.632812 166.503906 738.015625 166.503906 C 738.398438 166.503906 738.765625 166.578125 739.121094 166.726562 C 739.476562 166.871094 739.789062 167.082031 740.058594 167.351562 C 740.332031 167.621094 740.539062 167.933594 740.6875 168.289062 C 740.832031 168.644531 740.90625 169.011719 740.90625 169.394531 Z M 740.90625 169.394531 " fill-opacity="1" fill-rule="nonzero"/><path fill="#ffffff" d="M 740.730469 168.390625 C 740.730469 168.613281 740.652344 168.804688 740.492188 168.964844 C 740.335938 169.121094 740.144531 169.199219 739.921875 169.199219 C 739.699219 169.199219 739.507812 169.121094 739.351562 168.964844 C 739.191406 168.804688 739.113281 168.613281 739.113281 168.390625 C 739.113281 168.167969 739.191406 167.976562 739.351562 167.820312 C 739.507812 167.660156 739.699219 167.582031 739.921875 167.582031 C 740.144531 167.582031 740.335938 167.660156 740.492188 167.820312 C 740.652344 167.976562 740.730469 168.167969 740.730469 168.390625 Z M 740.730469 168.390625 " fill-opacity="1" fill-rule="nonzero"/><path stroke-linecap="butt" transform="matrix(0.673957, 0, 0, 0.673626, 0.665679, -0.830345)" fill="none" stroke-linejoin="miter" d="M 1102.239513 252.449854 C 1102.239513 252.449854 1096.171105 242.609229 1087.55246 252.368671 " stroke="#231f20" stroke-width="0.8" stroke-opacity="1" stroke-miterlimit="10"/><path fill="#07935b" d="M 668.03125 222.636719 C 668.03125 222.636719 633.058594 224.671875 626.769531 278.941406 C 626.769531 278.941406 645.097656 302.605469 672.769531 301.554688 L 638.835938 397.917969 C 638.835938 397.917969 727.421875 442.683594 754.6875 418.0625 L 754.484375 322.113281 L 757.074219 300.828125 L 763.941406 291.375 C 763.941406 291.375 748.832031 237.355469 720.054688 237.355469 C 720.054688 237.355469 734.441406 263.636719 717.84375 261.535156 C 701.242188 259.433594 683.523438 251.023438 668.03125 222.644531 Z M 668.03125 222.636719 " fill-opacity="1" fill-rule="nonzero"/><path fill="#231f20" d="M 743.492188 251.382812 C 742.535156 248.921875 729.292969 237.175781 720.058594 237.355469 C 720.058594 237.355469 718.710938 227.953125 722.871094 220.449219 C 722.871094 220.449219 732.898438 219.425781 743.617188 195.820312 C 743.617188 195.820312 748.5 185.703125 745.3125 177.390625 C 745.3125 177.390625 743.964844 173.738281 745.824219 170 C 745.824219 170 746.910156 163.933594 746.902344 158.226562 C 746.902344 152.519531 746.585938 146.855469 746.585938 146.855469 C 746.585938 146.855469 730.878906 149.914062 698.5 133.789062 C 698.5 133.789062 687.960938 139.527344 680.4375 171.160156 C 680.4375 171.160156 670.921875 161.601562 668.441406 169.886719 C 666.003906 178.042969 670.882812 186.363281 670.882812 186.363281 C 670.882812 186.363281 672.898438 191.894531 681.652344 188.890625 C 681.652344 188.890625 685.023438 212.882812 668.03125 222.636719 C 668.03125 222.636719 646.597656 223.925781 633.761719 252.269531 C 633.761719 252.269531 629.878906 229.292969 647.476562 202.550781 C 657.214844 187.75 654.417969 180.996094 656.558594 156.023438 C 658.703125 131.050781 678.59375 120.976562 686.875 118.96875 C 686.875 118.96875 711.433594 93.261719 745.011719 130 C 745.011719 130 759.75 147.003906 750.375 196.480469 C 750.375 196.480469 745.039062 217.136719 742.710938 232.742188 C 742.710938 232.742188 742.152344 239.34375 743.492188 251.382812 " fill-opacity="1" fill-rule="nonzero"/><path stroke-linecap="butt" transform="matrix(0.673957, 0, 0, 0.673626, 0.665679, -0.830345)" fill="none" stroke-linejoin="miter" d="M 1122.351618 447.801067 C 1122.351618 447.801067 1123.528206 431.558526 1116.149903 412.062836 " stroke="#006838" stroke-width="1" stroke-opacity="1" stroke-miterlimit="10"/><path stroke-linecap="butt" transform="matrix(0.673957, 0, 0, 0.673626, 0.665679, -0.830345)" fill="none" stroke-linejoin="miter" d="M 997.262437 448.891249 C 997.262437 448.891249 1011.89153 429.78988 1009.520968 405.568139 " stroke="#006838" stroke-width="1" stroke-opacity="1" stroke-miterlimit="10"/><path stroke-linecap="butt" transform="matrix(0.673957, 0, 0, 0.673626, 0.665679, -0.830345)" fill="none" stroke-linejoin="miter" d="M 1007.272122 284.859553 C 1007.272122 285.329259 1007.225754 285.798965 1007.133018 286.257073 C 1007.040282 286.72098 1006.906974 287.16749 1006.721502 287.602403 C 1006.541826 288.037316 1006.321578 288.449033 1006.060758 288.843354 C 1005.799939 289.237675 1005.504343 289.597203 1005.168175 289.927736 C 1004.837803 290.264069 1004.472656 290.55981 1004.084324 290.820757 C 1003.690196 291.081705 1003.27868 291.302061 1002.843981 291.481825 C 1002.409281 291.661589 1001.962989 291.800761 1001.49931 291.893542 C 1001.03563 291.986324 1000.57195 292.032714 1000.102475 292.032714 C 999.627203 292.032714 999.163523 291.986324 998.699844 291.893542 C 998.24196 291.800761 997.789872 291.661589 997.355173 291.481825 C 996.920473 291.302061 996.508957 291.081705 996.11483 290.820757 C 995.726498 290.55981 995.36135 290.264069 995.030978 289.927736 C 994.694811 289.597203 994.399215 289.237675 994.138395 288.843354 C 993.877575 288.449033 993.657327 288.037316 993.477652 287.602403 C 993.297976 287.16749 993.158872 286.72098 993.066136 286.257073 C 992.9734 285.798965 992.932828 285.329259 992.932828 284.859553 C 992.932828 284.389847 992.9734 283.920142 993.066136 283.462033 C 993.158872 282.998127 993.297976 282.551616 993.477652 282.116703 C 993.657327 281.681791 993.877575 281.270073 994.138395 280.875752 C 994.399215 280.48723 994.694811 280.121904 995.030978 279.79137 C 995.36135 279.455037 995.726498 279.159297 996.11483 278.898349 C 996.508957 278.637401 996.920473 278.417046 997.355173 278.237282 C 997.789872 278.057518 998.24196 277.918346 998.699844 277.825564 C 999.163523 277.738582 999.627203 277.692191 1000.102475 277.692191 C 1000.57195 277.692191 1001.03563 277.738582 1001.49931 277.825564 C 1001.962989 277.918346 1002.409281 278.057518 1002.843981 278.237282 C 1003.27868 278.417046 1003.690196 278.637401 1004.084324 278.898349 C 1004.472656 279.159297 1004.837803 279.455037 1005.168175 279.79137 C 1005.504343 280.121904 1005.799939 280.48723 1006.060758 280.875752 C 1006.321578 281.270073 1006.541826 281.681791 1006.721502 282.116703 C 1006.906974 282.551616 1007.040282 282.998127 1007.133018 283.462033 C 1007.225754 283.920142 1007.272122 284.389847 1007.272122 284.859553 Z M 1007.272122 284.859553 " stroke="#fff200" stroke-width="0.5" stroke-opacity="1" stroke-miterlimit="10"/><path stroke-linecap="butt" transform="matrix(0.673957, 0, 0, 0.673626, 0.665679, -0.830345)" fill="none" stroke-linejoin="miter" d="M 1000.189415 292.032714 L 1000.467622 315.228061 " stroke="#fff200" stroke-width="0.5" stroke-opacity="1" stroke-miterlimit="10"/><path stroke-linecap="butt" transform="matrix(0.673957, 0, 0, 0.673626, 0.665679, -0.830345)" fill="none" stroke-linejoin="miter" d="M 1005.602875 289.51022 L 1005.747775 301.908133 " stroke="#fff200" stroke-width="0.5" stroke-opacity="1" stroke-miterlimit="10"/><path stroke-linecap="butt" transform="matrix(0.673957, 0, 0, 0.673626, 0.665679, -0.830345)" fill="none" stroke-linejoin="miter" d="M 1003.759748 291.052711 L 1003.951016 307.161879 " stroke="#fff200" stroke-width="0.5" stroke-opacity="1" stroke-miterlimit="10"/><path stroke-linecap="butt" transform="matrix(0.673957, 0, 0, 0.673626, 0.665679, -0.830345)" fill="none" stroke-linejoin="miter" d="M 1001.997765 291.748571 L 1002.229605 311.308048 " stroke="#fff200" stroke-width="0.5" stroke-opacity="1" stroke-miterlimit="10"/><path stroke-linecap="butt" transform="matrix(0.673957, 0, 0, 0.673626, 0.665679, -0.830345)" fill="none" stroke-linejoin="miter" d="M 996.578509 291.139693 L 996.769777 307.237264 " stroke="#fff200" stroke-width="0.5" stroke-opacity="1" stroke-miterlimit="10"/><path stroke-linecap="butt" transform="matrix(0.673957, 0, 0, 0.673626, 0.665679, -0.830345)" fill="none" stroke-linejoin="miter" d="M 998.35788 291.789163 L 998.58972 311.360237 " stroke="#fff200" stroke-width="0.5" stroke-opacity="1" stroke-miterlimit="10"/><path stroke-linecap="butt" transform="matrix(0.673957, 0, 0, 0.673626, 0.665679, -0.830345)" fill="none" stroke-linejoin="miter" d="M 994.648443 289.637795 L 994.799139 302.041506 " stroke="#fff200" stroke-width="0.5" stroke-opacity="1" stroke-miterlimit="10"/><path fill="#f05380" d="M 638.84375 397.917969 C 638.84375 397.917969 667.445312 439.871094 754.695312 418.0625 L 755.097656 409.3125 C 755.097656 409.3125 678.949219 429.132812 641.464844 390.582031 Z M 638.84375 397.917969 " fill-opacity="1" fill-rule="nonzero"/><path stroke-linecap="butt" transform="matrix(0.673957, 0, 0, 0.673626, 0.665679, -0.830345)" fill="none" stroke-linejoin="miter" d="M 951.508846 584.960953 L 954.841543 598.280881 L 970.890656 599.191299 L 979.967185 614.940939 L 996.02789 610.70199 L 1009.347088 624.630796 L 1022.97927 617.057515 L 1041.149717 628.568206 L 1051.142014 620.090306 L 1064.7684 627.060508 L 1077.189219 617.967932 L 1092.641344 624.630796 L 1102.019265 616.152896 L 1112.017358 621.302263 L 1116.86281 613.427443 " stroke="#ffffff" stroke-width="1" stroke-opacity="1" stroke-miterlimit="10"/><path stroke-linecap="butt" transform="matrix(0.673957, 0, 0, 0.673626, 0.665679, -0.830345)" fill="none" stroke-linejoin="miter" d="M 1110.197415 615.242479 L 1103.537816 622.212681 L 1090.821401 617.057515 L 1077.490611 626.150091 L 1061.737094 619.179889 L 1051.750593 627.959328 L 1039.938354 620.090306 L 1023.280662 627.362048 L 1009.64848 615.242479 L 993.912351 620.090306 L 982.998491 607.071918 L 966.647987 606.758781 L 959.6812 592.232695 L 949.387511 591.931155 " stroke="#ffffff" stroke-width="1" stroke-opacity="1" stroke-miterlimit="10"/><path fill="#f05380" d="M 686.46875 265.710938 L 686.46875 274.40625 C 686.46875 274.40625 723.882812 299.628906 747.078125 285.421875 L 744.761719 275.855469 C 744.761719 275.855469 736.351562 293.539062 686.46875 265.710938 Z M 686.46875 265.710938 " fill-opacity="1" fill-rule="nonzero"/><path stroke-linecap="butt" transform="matrix(0.673957, 0, 0, 0.673626, 0.665679, -0.830345)" fill="none" stroke-linejoin="miter" d="M 1020.770996 401.207414 L 1024.231205 409.992652 L 1030.502473 406.542344 L 1040.541138 417.212203 L 1048.070136 413.437161 L 1062.189182 425.359569 L 1073.172594 419.717301 L 1086.341096 429.44195 L 1093.249923 421.288786 L 1104.540523 424.420157 " stroke="#ffffff" stroke-width="1" stroke-opacity="1" stroke-miterlimit="10"/><path stroke-linecap="butt" transform="matrix(0.673957, 0, 0, 0.673626, 0.665679, -0.830345)" fill="none" stroke-linejoin="miter" d="M 1102.030857 418.151615 L 1095.75959 427.24999 L 1086.028113 422.228197 L 1072.848018 426.310578 L 1062.809353 417.519542 L 1049.009087 420.662511 L 1040.228154 410.932063 L 1030.809661 414.069234 L 1025.790328 404.338786 L 1019.832045 407.481755 " stroke="#ffffff" stroke-width="1" stroke-opacity="1" stroke-miterlimit="10"/><path fill="#f05380" d="M 626.777344 278.941406 C 626.777344 278.941406 644.375 300.042969 675.039062 302.808594 L 676.550781 297.78125 C 676.550781 297.78125 634.574219 282.457031 627.789062 271.152344 L 626.785156 278.941406 Z M 626.777344 278.941406 " fill-opacity="1" fill-rule="nonzero"/><path stroke-linecap="butt" transform="matrix(0.673957, 0, 0, 0.673626, 0.665679, -0.830345)" fill="none" stroke-linejoin="miter" d="M 932.358876 410.850879 L 937.210124 420.16961 L 949.891763 421.659911 L 954.737216 432.480541 L 964.057177 429.871064 L 970.780532 439.937845 L 981.9726 436.580318 L 987.930884 445.527923 L 995.772866 442.918447 " stroke="#ffffff" stroke-width="1" stroke-opacity="1" stroke-miterlimit="10"/><path stroke-linecap="butt" transform="matrix(0.673957, 0, 0, 0.673626, 0.665679, -0.830345)" fill="none" stroke-linejoin="miter" d="M 994.028271 446.977633 L 988.730731 440.477136 L 978.86015 443.370756 L 972.107815 433.727291 L 963.199369 436.377359 L 957.17733 426.020636 L 946.819885 427.708098 L 941.522345 416.870072 L 931.402536 416.377171 " stroke="#ffffff" stroke-width="1" stroke-opacity="1" stroke-miterlimit="10"/><path fill="#f05380" d="M 763.949219 291.367188 L 762.796875 288.054688 L 757.230469 292.6875 L 757.613281 301.3125 Z M 763.949219 291.367188 " fill-opacity="1" fill-rule="nonzero"/><path fill="#be9e7d" d="M 628.390625 279.652344 L 622.308594 340.777344 C 622.308594 340.777344 621.339844 354.492188 626.878906 365.332031 C 634.550781 380.328125 655.914062 379.304688 655.914062 379.304688 C 655.914062 379.304688 718.273438 377.160156 724.671875 378.914062 C 731.988281 380.914062 739.6875 379.230469 739.6875 379.230469 C 739.6875 379.230469 758.144531 374.546875 766.617188 356.082031 C 766.617188 356.082031 763.523438 352.128906 756.644531 358.589844 C 756.644531 358.589844 748.867188 366.035156 738.648438 362.46875 C 738.648438 362.46875 735.101562 359.113281 741.378906 358.886719 C 747.660156 358.65625 757.007812 359.453125 756.757812 353.382812 C 756.507812 347.3125 742.496094 351.023438 742.496094 351.023438 L 728.714844 350.992188 C 728.714844 350.992188 717.25 350.6875 714.0625 358.210938 L 707.457031 358.210938 C 707.457031 358.210938 674.296875 339.761719 661.824219 340.113281 C 661.824219 340.113281 670.003906 317.941406 673.882812 302.765625 C 673.882812 302.765625 645.722656 298.839844 628.390625 279.660156 Z M 628.390625 279.652344 " fill-opacity="1" fill-rule="nonzero"/><path fill="#fbb040" d="M 660.847656 337.0625 C 660.847656 337.0625 684.429688 368.511719 682.414062 386.195312 C 682.414062 386.195312 683.621094 401.0625 681.207031 409.097656 C 678.792969 417.132812 673.96875 440.441406 679.597656 450.890625 C 679.597656 450.890625 692.460938 456.515625 702.914062 449.683594 C 713.367188 442.855469 729.042969 450.890625 729.042969 450.890625 C 729.042969 450.890625 741.503906 452.898438 744.71875 450.484375 C 744.71875 450.484375 749.945312 430.796875 741.902344 420.753906 C 733.863281 410.707031 732.65625 368.917969 732.65625 368.917969 C 732.65625 368.917969 731.046875 343.199219 719.386719 337.574219 C 707.726562 331.949219 684.953125 333.039062 660.832031 337.0625 Z M 660.847656 337.0625 " fill-opacity="1" fill-rule="nonzero"/><path stroke-linecap="butt" transform="matrix(0.673957, 0, 0, 0.673626, 0.665679, -0.830345)" fill="none" stroke-linejoin="miter" d="M 1030.299613 528.178744 C 1030.299613 528.178744 1043.421747 570.527649 1030.902397 609.310269 C 1018.37725 648.092889 1035.672501 652.859533 1035.672501 652.859533 " stroke="#2b3990" stroke-width="0.8" stroke-opacity="1" stroke-miterlimit="10"/><path stroke-linecap="butt" transform="matrix(0.673957, 0, 0, 0.673626, 0.665679, -0.830345)" fill="none" stroke-linejoin="miter" d="M 1065.487104 586.642616 C 1065.487104 586.642616 1064.298924 645.100689 1088.752231 657.631976 " stroke="#2b3990" stroke-width="0.8" stroke-opacity="1" stroke-miterlimit="10"/><path stroke-linecap="butt" transform="matrix(0.673957, 0, 0, 0.673626, 0.665679, -0.830345)" fill="none" stroke-linejoin="miter" d="M 1057.14087 524.600861 C 1057.14087 524.600861 1072.650954 546.079753 1070.257208 561.580043 " stroke="#2b3990" stroke-width="0.8" stroke-opacity="1" stroke-miterlimit="10"/><path fill="#a97c50" d="M 600.925781 550.335938 L 2.425781 550.335938 L 2.425781 597.800781 L 663.570312 597.800781 Z M 600.925781 550.335938 " fill-opacity="1" fill-rule="nonzero"/><path fill="#754c29" d="M 2.425781 597.605469 L 663.570312 597.605469 L 663.570312 632.972656 L 2.425781 632.972656 Z M 2.425781 597.605469 " fill-opacity="1" fill-rule="nonzero"/><g clip-path="url(#945c4c2fe7)"><path stroke-linecap="butt" transform="matrix(0.673957, 0, 0, 0.673626, 0.665679, -0.830345)" fill-opacity="1" fill="#754c29" fill-rule="nonzero" stroke-linejoin="miter" d="M 2.611595 940.678997 L 926.962804 940.678997 L 926.962804 1001.091278 L 2.611595 1001.091278 Z M 2.611595 940.678997 " stroke="#8b5e3c" stroke-width="1" stroke-opacity="1" stroke-miterlimit="10"/></g><path fill="#1c75bc" d="M 404.667969 542.585938 L 549.921875 542.585938 L 549.921875 564.785156 L 404.667969 564.785156 Z M 404.667969 542.585938 " fill-opacity="1" fill-rule="nonzero"/><path fill="#1c75bc" d="M 404.613281 544.199219 L 374.476562 535.855469 L 374.765625 534.042969 L 508.054688 534.042969 L 549.921875 542.585938 " fill-opacity="1" fill-rule="nonzero"/><path fill="#1c75bc" d="M 404.667969 564.785156 L 376.886719 550.480469 L 377.023438 548.457031 L 381.875 548.59375 L 404.664062 560.988281 Z M 404.667969 564.785156 " fill-opacity="1" fill-rule="nonzero"/><path fill="#ffffff" d="M 404.664062 560.988281 L 381.929688 548.492188 L 381.929688 537.882812 L 404.613281 544.199219 Z M 404.664062 560.988281 " fill-opacity="1" fill-rule="nonzero"/><path stroke-linecap="butt" transform="matrix(0.673957, 0, 0, 0.673626, 0.665679, -0.830345)" fill="none" stroke-linejoin="miter" d="M 599.367324 809.097592 L 810.897987 809.097592 " stroke="#231f20" stroke-width="2" stroke-opacity="1" stroke-miterlimit="10"/><path stroke-linecap="butt" transform="matrix(0.673957, 0, 0, 0.673626, 0.665679, -0.830345)" fill="none" stroke-linejoin="miter" d="M 608.380098 816.102587 L 608.380098 828.390322 " stroke="#231f20" stroke-width="2" stroke-opacity="1" stroke-miterlimit="10"/><path stroke-linecap="butt" transform="matrix(0.673957, 0, 0, 0.673626, 0.665679, -0.830345)" fill="none" stroke-linejoin="miter" d="M 613.289306 812.101389 L 613.289306 828.390322 " stroke="#231f20" stroke-width="2" stroke-opacity="1" stroke-miterlimit="10"/><path fill="#ffffff" d="M 220.464844 560.894531 L 263.839844 583.5625 L 416.246094 583.5625 L 373.277344 560.097656 Z M 220.464844 560.894531 " fill-opacity="1" fill-rule="nonzero"/><path stroke-linecap="butt" transform="matrix(0.673957, 0, 0, 0.673626, 0.665679, -0.830345)" fill-opacity="1" fill="#be9e7d" fill-rule="nonzero" stroke-linejoin="miter" d="M 431.561653 612.621405 C 431.561653 612.621405 425.742474 688.16865 467.919935 745.977254 C 510.097397 803.791656 722.201864 633.990118 722.201864 633.990118 L 747.171013 616.808165 L 792.710153 621.638596 L 857.857146 611.531223 L 890.552358 581.899167 C 906.450774 571.322089 897.762577 563.482062 897.762577 563.482062 C 887.671748 556.129137 882.287268 564.299698 872.289175 569.228709 C 856.918194 576.80199 843.668548 587.251494 843.668548 587.251494 C 843.668548 587.251494 847.511293 585.001545 837.362504 580.078333 C 824.872133 574.018548 825.127157 577.64862 825.127157 577.64862 L 806.84079 560.060748 C 816.757739 556.198723 828.830798 549.129941 828.830798 549.129941 C 840.202542 532.812014 819.910761 534.168942 819.910761 534.168942 L 786.062145 545.621645 C 734.92987 545.018566 723.749394 572.429667 723.749394 572.429667 C 718.301158 572.597833 704.582036 574.262099 698.762856 574.627426 C 698.762856 574.627426 609.168353 604.131908 574.682178 617.608404 C 574.682178 617.608404 534.162371 566.990358 534.191351 554.122739 " stroke="#754c29" stroke-width="0.5" stroke-opacity="1" stroke-miterlimit="10"/><path stroke-linecap="butt" transform="matrix(0.673957, 0, 0, 0.673626, 0.665679, -0.830345)" fill-opacity="1" fill="#be9e7d" fill-rule="nonzero" stroke-linejoin="miter" d="M 798.198961 553.91978 C 798.198961 553.91978 803.589237 556.842394 806.800218 560.19992 " stroke="#603913" stroke-width="1" stroke-opacity="1" stroke-miterlimit="10"/><path stroke-linecap="butt" transform="matrix(0.673957, 0, 0, 0.673626, 0.665679, -0.830345)" fill-opacity="1" fill="#be9e7d" fill-rule="nonzero" stroke-linejoin="miter" d="M 762.768038 597.231292 C 762.768038 597.231292 785.760754 580.710406 796.431182 581.53964 C 796.431182 581.53964 800.957855 582.339879 808.052154 575.050741 C 814.798693 568.109534 817.667711 558.570447 824.750417 562.281703 C 835.00933 567.651426 825.109769 577.660218 825.109769 577.660218 L 804.30794 600.6816 " stroke="#603913" stroke-width="1" stroke-opacity="1" stroke-miterlimit="10"/><path stroke-linecap="butt" transform="matrix(0.673957, 0, 0, 0.673626, 0.665679, -0.830345)" fill-opacity="1" fill="#be9e7d" fill-rule="nonzero" stroke-linejoin="miter" d="M 723.737802 572.429667 C 723.737802 572.429667 725.111453 584.108524 735.579022 593.531634 " stroke="#603913" stroke-width="1" stroke-opacity="1" stroke-miterlimit="10"/><path stroke-linecap="butt" transform="matrix(0.673957, 0, 0, 0.673626, 0.665679, -0.830345)" fill-opacity="1" fill="#be9e7d" fill-rule="nonzero" stroke-linejoin="miter" d="M 819.128302 584.241897 L 828.210627 575.091333 L 831.531733 559.921576 C 831.531733 559.921576 833.641475 552.377289 841.547213 553.02096 C 850.368719 553.740016 848.989272 564.131532 848.989272 564.131532 L 842.920864 584.050536 L 825.272057 604.381258 " stroke="#603913" stroke-width="1" stroke-opacity="1" stroke-miterlimit="10"/><path stroke-linecap="butt" transform="matrix(0.673957, 0, 0, 0.673626, 0.665679, -0.830345)" fill-opacity="1" fill="#be9e7d" fill-rule="nonzero" stroke-linejoin="miter" d="M 842.932456 584.062134 L 848.432856 579.660816 L 851.748166 564.491059 C 851.748166 564.491059 853.857908 556.952572 861.769443 557.590444 C 870.590948 558.309499 869.211501 568.701015 869.211501 568.701015 L 863.137298 588.620019 L 845.48849 608.950741 " stroke="#603913" stroke-width="1" stroke-opacity="1" stroke-miterlimit="10"/><path fill="#be9e7d" d="M 155.21875 176.992188 C 155.21875 176.992188 163.519531 203.277344 150.109375 228.96875 C 150.109375 228.96875 146.757812 322.785156 218.273438 330.046875 C 218.273438 330.046875 268.160156 293.511719 247.132812 233.320312 L 155.222656 177 Z M 155.21875 176.992188 " fill-opacity="1" fill-rule="nonzero"/><path fill="#be9e7d" d="M 271.65625 67.164062 C 271.65625 67.164062 288.257812 82.8125 283.992188 124.058594 C 283.992188 124.058594 280.195312 134.488281 282.089844 146.34375 C 282.089844 146.34375 287.378906 167.199219 281.785156 185.015625 C 274.183594 209.226562 261.695312 219.359375 261.695312 219.359375 C 261.695312 219.359375 252.207031 228.84375 239.402344 226.472656 C 239.402344 226.472656 219.949219 233.105469 202.871094 222.207031 C 185.792969 211.300781 156.382812 177.160156 156.382812 177.160156 C 156.382812 177.160156 140.726562 181.425781 135.984375 165.304688 C 131.238281 149.1875 124.121094 136.859375 134.082031 127.375 C 144.042969 117.890625 156.375 143.964844 156.375 143.964844 C 156.375 143.964844 161.054688 135.726562 159.152344 123.878906 C 159.152344 123.878906 156.09375 100.273438 170.132812 72.371094 C 170.132812 72.371094 214.140625 53.273438 271.644531 67.160156 Z M 271.65625 67.164062 " fill-opacity="1" fill-rule="nonzero"/><path fill="#ae8578" d="M 218.035156 182.753906 C 218.035156 182.753906 229.230469 179.296875 242.574219 183.082031 C 242.574219 183.082031 254.101562 180.78125 264.480469 183.082031 C 264.480469 183.082031 263.328125 201.683594 245.871094 205.796875 C 228.414062 209.914062 217.714844 193.617188 218.042969 182.753906 Z M 218.035156 182.753906 " fill-opacity="1" fill-rule="nonzero"/><path fill="#803435" d="M 220.839844 184.066406 C 220.839844 184.066406 220.679688 200.523438 242.082031 200.523438 C 261.527344 200.523438 261.683594 185.871094 261.683594 185.871094 C 261.683594 185.871094 239.777344 186.863281 220.839844 184.058594 Z M 220.839844 184.066406 " fill-opacity="1" fill-rule="nonzero"/><path fill="#231f20" d="M 227.230469 119.753906 C 227.230469 119.753906 205.449219 110.984375 186.3125 121.75 C 186.3125 121.75 195.734375 101.816406 227.816406 110.984375 C 227.816406 110.984375 233.113281 116.570312 227.230469 119.753906 Z M 227.230469 119.753906 " fill-opacity="1" fill-rule="nonzero"/><path fill="#231f20" d="M 283.5 117.101562 C 268.289062 114.089844 260.894531 120.1875 260.894531 120.1875 C 255.164062 117.128906 260.320312 111.78125 260.320312 111.78125 C 270.046875 109.039062 277.628906 109.011719 283.464844 110.265625 C 283.464844 110.265625 284.328125 117.261719 283.5 117.101562 Z M 283.5 117.101562 " fill-opacity="1" fill-rule="nonzero"/><path fill="#ffffff" d="M 223.488281 184.300781 C 223.488281 184.300781 228.792969 191.929688 245.359375 191.125 C 245.359375 191.125 255.578125 191.636719 259.855469 186.207031 C 259.855469 186.207031 238.503906 186.671875 223.484375 184.300781 Z M 223.488281 184.300781 " fill-opacity="1" fill-rule="nonzero"/><path fill="#26130f" d="M 238.128906 227.722656 C 238.128906 227.722656 214.371094 231.339844 204.375 222.988281 C 204.375 222.988281 192.742188 217.09375 179.144531 201.863281 C 179.144531 201.863281 195.703125 229.117188 217.644531 231.671875 C 217.644531 231.671875 227.972656 233.46875 238.128906 227.722656 C 238.128906 227.722656 237.714844 230.089844 238.128906 227.722656 Z M 238.128906 227.722656 " fill-opacity="1" fill-rule="nonzero"/><path stroke-linecap="butt" transform="matrix(0.673957, 0, 0, 0.673626, 0.665679, -0.830345)" fill="none" stroke-linejoin="miter" d="M 198.759686 225.160529 C 198.759686 225.160529 208.82733 198.427891 229.362544 241.432065 C 229.362544 241.432065 211.928188 222.452472 208.82733 238.718209 " stroke="#231f20" stroke-width="1" stroke-opacity="1" stroke-miterlimit="10"/><path stroke-linecap="butt" transform="matrix(0.673957, 0, 0, 0.673626, 0.665679, -0.830345)" fill="none" stroke-linejoin="miter" d="M 385.91239 227.242311 C 385.91239 227.242311 401.891951 250.988548 374.030599 253.800983 " stroke="#231f20" stroke-width="1" stroke-opacity="1" stroke-miterlimit="10"/><path fill="#ffffff" d="M 203.257812 131.941406 C 203.257812 131.941406 203.230469 131.367188 203.632812 130.878906 C 204.980469 129.246094 208.101562 126.183594 213.191406 125.992188 C 218.886719 125.777344 222.222656 131.011719 223.367188 132.878906 C 223.5625 133.199219 223.554688 133.492188 223.554688 133.492188 C 223.554688 133.492188 223.589844 133.808594 223.402344 134.035156 C 222.53125 135.128906 219.605469 138.179688 214.222656 138.46875 C 211.015625 138.636719 206.4375 137.082031 203.484375 132.832031 C 203.285156 132.535156 203.25 132.148438 203.25 131.941406 Z M 203.257812 131.941406 " fill-opacity="1" fill-rule="nonzero"/><path fill="#26130f" d="M 220.941406 132.507812 C 220.941406 129.253906 218.300781 126.613281 215.042969 126.613281 C 211.789062 126.613281 209.148438 129.253906 209.148438 132.507812 C 209.148438 135.761719 211.789062 138.402344 215.042969 138.402344 C 218.300781 138.402344 220.941406 135.761719 220.941406 132.507812 Z M 220.941406 132.507812 " fill-opacity="1" fill-rule="nonzero"/><path fill="#ffffff" d="M 212.902344 131.449219 C 212.902344 131.664062 212.859375 131.871094 212.777344 132.070312 C 212.695312 132.265625 212.578125 132.441406 212.425781 132.59375 C 212.277344 132.746094 212.101562 132.859375 211.902344 132.941406 C 211.703125 133.023438 211.5 133.066406 211.285156 133.066406 C 211.070312 133.066406 210.863281 133.023438 210.664062 132.941406 C 210.464844 132.859375 210.292969 132.746094 210.140625 132.59375 C 209.988281 132.441406 209.871094 132.265625 209.789062 132.070312 C 209.707031 131.871094 209.667969 131.664062 209.667969 131.449219 C 209.667969 131.234375 209.707031 131.027344 209.789062 130.832031 C 209.871094 130.632812 209.988281 130.457031 210.140625 130.304688 C 210.292969 130.15625 210.464844 130.039062 210.664062 129.957031 C 210.863281 129.875 211.070312 129.832031 211.285156 129.832031 C 211.5 129.832031 211.703125 129.875 211.902344 129.957031 C 212.101562 130.039062 212.277344 130.15625 212.425781 130.304688 C 212.578125 130.457031 212.695312 130.632812 212.777344 130.832031 C 212.859375 131.027344 212.902344 131.234375 212.902344 131.449219 Z M 212.902344 131.449219 " fill-opacity="1" fill-rule="nonzero"/><path stroke-linecap="butt" transform="matrix(0.673957, 0, 0, 0.673626, 0.665679, -0.830345)" fill="none" stroke-linejoin="miter" d="M 330.960554 198.491678 C 330.960554 198.491678 319.919182 178.700249 300.827172 195.458887 " stroke="#231f20" stroke-width="1.2" stroke-opacity="1" stroke-miterlimit="10"/><path fill="#ffffff" d="M 261.714844 134.292969 C 261.714844 134.292969 261.609375 133.765625 261.917969 133.25 C 262.9375 131.542969 265.402344 128.242188 270.105469 127.339844 C 275.371094 126.332031 279.226562 130.714844 280.554688 132.292969 C 280.78125 132.5625 280.816406 132.832031 280.816406 132.832031 C 280.816406 132.832031 280.890625 133.121094 280.753906 133.363281 C 280.101562 134.5 277.824219 137.761719 272.851562 138.792969 C 269.890625 139.40625 265.417969 138.609375 262.058594 135.082031 C 261.824219 134.839844 261.742188 134.480469 261.714844 134.285156 Z M 261.714844 134.292969 " fill-opacity="1" fill-rule="nonzero"/><path fill="#26130f" d="M 278.289062 133.128906 C 278.289062 133.488281 278.253906 133.847656 278.183594 134.203125 C 278.113281 134.558594 278.007812 134.90625 277.867188 135.242188 C 277.730469 135.574219 277.558594 135.894531 277.355469 136.195312 C 277.15625 136.496094 276.925781 136.777344 276.671875 137.03125 C 276.414062 137.289062 276.132812 137.519531 275.832031 137.71875 C 275.53125 137.921875 275.210938 138.089844 274.878906 138.230469 C 274.542969 138.367188 274.195312 138.472656 273.839844 138.542969 C 273.484375 138.617188 273.125 138.652344 272.761719 138.652344 C 272.398438 138.652344 272.039062 138.617188 271.683594 138.542969 C 271.328125 138.472656 270.984375 138.367188 270.648438 138.230469 C 270.3125 138.089844 269.992188 137.921875 269.691406 137.71875 C 269.390625 137.519531 269.109375 137.289062 268.855469 137.03125 C 268.597656 136.777344 268.367188 136.496094 268.167969 136.195312 C 267.964844 135.894531 267.796875 135.574219 267.65625 135.242188 C 267.515625 134.90625 267.414062 134.558594 267.34375 134.203125 C 267.269531 133.847656 267.234375 133.488281 267.234375 133.128906 C 267.234375 132.765625 267.269531 132.40625 267.34375 132.050781 C 267.414062 131.695312 267.515625 131.347656 267.65625 131.011719 C 267.796875 130.679688 267.964844 130.359375 268.167969 130.058594 C 268.367188 129.757812 268.597656 129.476562 268.855469 129.222656 C 269.109375 128.964844 269.390625 128.734375 269.691406 128.535156 C 269.992188 128.332031 270.3125 128.164062 270.648438 128.023438 C 270.984375 127.886719 271.328125 127.78125 271.683594 127.710938 C 272.039062 127.640625 272.398438 127.601562 272.761719 127.601562 C 273.125 127.601562 273.484375 127.640625 273.839844 127.710938 C 274.195312 127.78125 274.542969 127.886719 274.878906 128.023438 C 275.210938 128.164062 275.53125 128.332031 275.832031 128.535156 C 276.132812 128.734375 276.414062 128.964844 276.671875 129.222656 C 276.925781 129.476562 277.15625 129.757812 277.355469 130.058594 C 277.558594 130.359375 277.730469 130.679688 277.867188 131.011719 C 278.007812 131.347656 278.113281 131.695312 278.183594 132.050781 C 278.253906 132.40625 278.289062 132.765625 278.289062 133.128906 Z M 278.289062 133.128906 " fill-opacity="1" fill-rule="nonzero"/><path fill="#ffffff" d="M 270.496094 132.804688 C 270.496094 133.007812 270.457031 133.207031 270.378906 133.398438 C 270.300781 133.585938 270.1875 133.753906 270.042969 133.898438 C 269.898438 134.042969 269.730469 134.15625 269.539062 134.234375 C 269.351562 134.3125 269.152344 134.351562 268.949219 134.351562 C 268.742188 134.351562 268.542969 134.3125 268.355469 134.234375 C 268.164062 134.15625 267.996094 134.042969 267.851562 133.898438 C 267.707031 133.753906 267.59375 133.585938 267.515625 133.398438 C 267.4375 133.207031 267.398438 133.007812 267.398438 132.804688 C 267.398438 132.597656 267.4375 132.402344 267.515625 132.210938 C 267.59375 132.019531 267.707031 131.851562 267.851562 131.707031 C 267.996094 131.5625 268.164062 131.449219 268.355469 131.371094 C 268.542969 131.292969 268.742188 131.253906 268.949219 131.253906 C 269.152344 131.253906 269.351562 131.292969 269.539062 131.371094 C 269.730469 131.449219 269.898438 131.5625 270.042969 131.707031 C 270.1875 131.851562 270.300781 132.019531 270.378906 132.210938 C 270.457031 132.402344 270.496094 132.597656 270.496094 132.804688 Z M 270.496094 132.804688 " fill-opacity="1" fill-rule="nonzero"/><path stroke-linecap="butt" transform="matrix(0.673957, 0, 0, 0.673626, 0.665679, -0.830345)" fill="none" stroke-linejoin="miter" d="M 415.471969 197.859605 C 415.471969 197.859605 402.76135 179.807826 387.448329 199.402096 " stroke="#231f20" stroke-width="1.2" stroke-opacity="1" stroke-miterlimit="10"/><path fill="#231f20" d="M 170.773438 74.863281 C 170.773438 74.863281 193.5 59.535156 206.667969 76.894531 C 223.828125 99.5 235.828125 77.164062 249.792969 89.625 C 249.792969 89.625 263.292969 61.089844 280.082031 80.757812 C 280.082031 80.757812 289.949219 48.3125 252.980469 25.972656 C 252.980469 25.972656 211.507812 1.464844 170.484375 29.605469 C 170.484375 29.605469 130.503906 37.128906 132.074219 74.851562 C 132.074219 74.851562 153.835938 54.191406 170.777344 74.863281 Z M 170.773438 74.863281 " fill-opacity="1" fill-rule="nonzero"/><g clip-path="url(#571ef3f432)"><g clip-path="url(#1f43799203)"><path fill="url(#a61e65edae)" d="M 115.117188 53.519531 L 115.117188 158.335938 L 176.574219 158.335938 L 176.574219 53.519531 Z M 115.117188 53.519531 " fill-rule="nonzero"/></g></g><path fill="#ffffff" d="M 322.824219 549.65625 C 320.835938 494.230469 320.101562 451.652344 320.796875 412.90625 C 320.796875 412.90625 358.632812 380.597656 368.585938 357.699219 L 325.9375 304.261719 C 325.9375 304.261719 310.996094 247.515625 244.265625 231.589844 C 244.265625 231.589844 239.023438 273.539062 204.160156 281.507812 C 204.160156 281.507812 172.390625 274.621094 151.46875 221.863281 C 151.46875 221.863281 95.808594 241.144531 62.398438 284.316406 C 27.253906 329.730469 27.394531 414.863281 27.394531 414.863281 C 27.394531 414.863281 67.832031 471.246094 112.785156 455.363281 C 112.785156 455.363281 94.804688 499.359375 80.347656 549.554688 " fill-opacity="1" fill-rule="nonzero"/><path stroke-linecap="butt" transform="matrix(0.673957, 0, 0, 0.673626, 0.665679, -0.830345)" fill="none" stroke-linejoin="miter" d="M 167.890212 676.918907 C 167.890212 676.918907 192.418866 621.041316 193.769333 568.492257 " stroke="#231f20" stroke-width="1" stroke-opacity="1" stroke-miterlimit="10"/><path stroke-linecap="butt" transform="matrix(0.673957, 0, 0, 0.673626, 0.665679, -0.830345)" fill="none" stroke-linejoin="miter" d="M 475.002642 614.192889 L 467.2476 525.540273 " stroke="#231f20" stroke-width="1" stroke-opacity="1" stroke-miterlimit="10"/><path fill="#f1f2f2" d="M 244.644531 229.429688 C 244.644531 229.429688 283.058594 242.542969 257.691406 307.265625 L 206.578125 280.242188 L 165.8125 310.371094 C 165.8125 310.371094 133.070312 256.898438 141.800781 236.152344 C 141.800781 236.152344 146.632812 215.707031 154.902344 220.261719 C 154.902344 220.261719 162.039062 267.21875 204.613281 276.644531 C 204.613281 276.644531 246.382812 263.769531 243.472656 230.582031 L 244.644531 229.421875 Z M 244.644531 229.429688 " fill-opacity="1" fill-rule="nonzero"/><path fill="#f7941d" d="M 318.832031 583.695312 L 359.007812 455.496094 L 360.011719 441.175781 L 351.222656 451.632812 L 311.050781 579.828125 C 311.050781 579.828125 309.964844 588.261719 318.832031 583.695312 Z M 318.832031 583.695312 " fill-opacity="1" fill-rule="nonzero"/><path fill="#be9e7d" d="M 33.566406 420.777344 C 33.566406 420.777344 35.625 484.027344 49.863281 523.683594 C 64.105469 563.339844 243.140625 560.792969 243.140625 560.792969 C 255.453125 563.585938 281.78125 573.273438 281.78125 573.273438 C 281.78125 573.273438 331.652344 575.296875 336.820312 573.496094 C 341.992188 571.699219 340.191406 562.046875 340.191406 562.046875 L 346.035156 561.59375 C 356.367188 551.488281 348.054688 545.425781 348.054688 545.425781 L 337.496094 542.730469 L 350.300781 542.511719 C 362.65625 536.667969 353.671875 525.667969 353.671875 525.667969 C 362.210938 518.933594 353.449219 510.851562 353.449219 510.851562 L 312.058594 503.824219 L 257.390625 517.066406 C 257.390625 517.066406 139.386719 479.445312 117.515625 478.941406 C 117.515625 478.941406 114.828125 471.105469 112.792969 455.34375 C 112.792969 455.34375 59.050781 451.597656 33.574219 420.773438 Z M 33.566406 420.777344 " fill-opacity="1" fill-rule="nonzero"/><path stroke-linecap="butt" transform="matrix(0.673957, 0, 0, 0.673626, 0.665679, -0.830345)" fill="none" stroke-linejoin="miter" d="M 523.781743 781.599508 L 477.92962 774.148003 " stroke="#603913" stroke-width="1" stroke-opacity="1" stroke-miterlimit="10"/><path stroke-linecap="butt" transform="matrix(0.673957, 0, 0, 0.673626, 0.665679, -0.830345)" fill="none" stroke-linejoin="miter" d="M 499.780524 806.928827 L 476.747237 803.681478 " stroke="#603913" stroke-width="1" stroke-opacity="1" stroke-miterlimit="10"/><path stroke-linecap="butt" transform="matrix(0.673957, 0, 0, 0.673626, 0.665679, -0.830345)" fill="none" stroke-linejoin="miter" d="M 503.779761 835.598276 L 472.017704 828.488902 " stroke="#603913" stroke-width="1" stroke-opacity="1" stroke-miterlimit="10"/><g clip-path="url(#15f7a47ca0)"><path stroke-linecap="butt" transform="matrix(0.673957, 0, 0, 0.673626, 0.665679, -0.830345)" fill="none" stroke-linejoin="miter" d="M 1080.637837 145.449719 C 1080.637837 145.449719 1162.877221 274.299871 1333.92865 246.88877 " stroke="#231f20" stroke-width="1" stroke-opacity="1" stroke-miterlimit="10"/></g><g clip-path="url(#c7be863947)"><path fill="#9054a2" d="M 857.082031 210.210938 C 856.339844 203.65625 862.738281 186.921875 862.738281 186.921875 C 862.738281 186.921875 868.210938 171.941406 875.867188 167.097656 C 883.523438 162.246094 895.902344 160.316406 895.902344 160.316406 C 895.902344 160.316406 894.964844 177.082031 912.839844 180.171875 C 930.710938 183.265625 934.15625 162.402344 934.15625 162.402344 C 934.15625 162.402344 949.273438 168.890625 952.21875 172.609375 C 955.164062 176.328125 960.136719 188.722656 960.414062 192.125 C 960.523438 193.445312 963.777344 203.378906 967.476562 215.234375 C 967.476562 215.234375 963.042969 228.890625 949.691406 232.601562 C 949.691406 232.601562 946.355469 282.34375 949.636719 285.40625 C 949.636719 285.40625 879.9375 288.753906 873.035156 284.234375 C 873.035156 284.234375 876.332031 226.183594 875.394531 230.316406 C 875.394531 230.316406 859.542969 231.902344 857.082031 210.21875 Z M 857.082031 210.210938 " fill-opacity="1" fill-rule="nonzero"/></g><g clip-path="url(#919697c68c)"><path fill="#b597c0" d="M 934.164062 162.402344 C 934.164062 162.402344 930.414062 182.101562 914.847656 180.5625 C 914.847656 180.5625 897.359375 180.550781 895.910156 160.316406 L 893.242188 160.921875 C 893.242188 160.921875 893.097656 182.855469 914.328125 182.914062 C 935.558594 182.976562 937.089844 163.617188 937.089844 163.617188 L 934.164062 162.410156 Z M 934.164062 162.402344 " fill-opacity="1" fill-rule="nonzero"/></g><path fill="#00aeef" d="M 882.320312 151.785156 L 883.28125 151.785156 C 883.601562 151.785156 883.910156 151.847656 884.207031 151.972656 C 884.503906 152.09375 884.765625 152.269531 884.996094 152.496094 C 885.222656 152.722656 885.398438 152.988281 885.519531 153.285156 C 885.644531 153.582031 885.707031 153.890625 885.707031 154.210938 L 885.707031 169.085938 C 885.707031 169.40625 885.644531 169.714844 885.519531 170.011719 C 885.398438 170.308594 885.222656 170.574219 884.996094 170.800781 C 884.765625 171.027344 884.503906 171.203125 884.207031 171.324219 C 883.910156 171.449219 883.601562 171.511719 883.28125 171.511719 L 882.320312 171.511719 C 882 171.511719 881.691406 171.449219 881.394531 171.324219 C 881.097656 171.203125 880.835938 171.027344 880.605469 170.800781 C 880.378906 170.574219 880.203125 170.308594 880.082031 170.011719 C 879.957031 169.714844 879.894531 169.40625 879.894531 169.085938 L 879.894531 154.210938 C 879.894531 153.890625 879.957031 153.582031 880.082031 153.285156 C 880.203125 152.988281 880.378906 152.722656 880.605469 152.496094 C 880.835938 152.269531 881.097656 152.09375 881.394531 151.972656 C 881.691406 151.847656 882 151.785156 882.320312 151.785156 Z M 882.320312 151.785156 " fill-opacity="1" fill-rule="nonzero"/></svg>