<?xml version="1.0" encoding="UTF-8"?>
<svg id="Layer_1" data-name="Layer 1" xmlns="http://www.w3.org/2000/svg" xmlns:xlink="http://www.w3.org/1999/xlink" viewBox="0 0 1334.8 999.23">
  <defs>
    <style>
      .cls-1, .cls-2, .cls-3, .cls-4, .cls-5, .cls-6, .cls-7 {
        fill: none;
      }

      .cls-8 {
        clip-path: url(#clippath);
      }

      .cls-9 {
        fill: #00a79d;
      }

      .cls-10 {
        fill: #006838;
      }

      .cls-11, .cls-12 {
        fill: #e6e7e8;
      }

      .cls-13 {
        fill: #e96d42;
      }

      .cls-14, .cls-15 {
        fill: #fff;
      }

      .cls-16 {
        fill: #efcccd;
      }

      .cls-17 {
        fill: #803435;
      }

      .cls-18 {
        fill: #98b369;
      }

      .cls-19 {
        fill: #00a651;
      }

      .cls-20 {
        fill: #8c3333;
      }

      .cls-21 {
        fill: #b6302e;
      }

      .cls-22 {
        fill: #8b5e3c;
      }

      .cls-23 {
        fill: #8dc63f;
      }

      .cls-24 {
        fill: #ae8578;
      }

      .cls-25 {
        fill: #a97c50;
      }

      .cls-26 {
        fill: #a7a9ac;
      }

      .cls-27 {
        fill: #be1e2d;
      }

      .cls-28, .cls-29, .cls-30 {
        fill: #be9e7d;
      }

      .cls-31 {
        fill: #be8c8c;
      }

      .cls-32 {
        fill: #d6e69e;
      }

      .cls-33 {
        fill: #c49a6c;
      }

      .cls-34 {
        fill: #dc3b28;
      }

      .cls-35 {
        fill: #231f20;
      }

      .cls-36 {
        fill: #414042;
      }

      .cls-37 {
        fill: #6d6e71;
      }

      .cls-38 {
        fill: #2b3990;
      }

      .cls-39 {
        fill: #3c2415;
      }

      .cls-40 {
        fill: #58595b;
      }

      .cls-41 {
        fill: #57c1ab;
      }

      .cls-42 {
        fill: #754c29;
      }

      .cls-43 {
        fill: #26130f;
      }

      .cls-12, .cls-29, .cls-30, .cls-2, .cls-3, .cls-4, .cls-5, .cls-6, .cls-7 {
        stroke-miterlimit: 10;
      }

      .cls-12, .cls-2, .cls-5 {
        stroke: #231f20;
      }

      .cls-29 {
        stroke: #754c29;
      }

      .cls-30 {
        stroke: #603913;
      }

      .cls-3, .cls-7 {
        stroke: #6d6e71;
      }

      .cls-4 {
        stroke: #be1e2d;
      }

      .cls-5 {
        stroke-width: 1.2px;
      }

      .cls-44, .cls-45 {
        opacity: .5;
      }

      .cls-45 {
        fill: #dba528;
      }

      .cls-46 {
        fill: #dea962;
      }

      .cls-46, .cls-47, .cls-15 {
        opacity: .8;
      }

      .cls-47 {
        fill: #edb36e;
      }

      .cls-48 {
        fill: #27aae1;
        opacity: .4;
      }

      .cls-6 {
        stroke: #fff;
      }

      .cls-6, .cls-7 {
        stroke-width: .5px;
      }
    </style>
    <clipPath id="clippath">
      <rect class="cls-1" x="90.6" y="263.04" width="1117.82" height="192.99"/>
    </clipPath>
  </defs>
  <g>
    <g class="cls-44">
      <g class="cls-8">
        <path class="cls-19" d="M207.61,572.25s90.54,60.19,128.91-35.62c38.37-95.81,82.42-74.09,82.42-74.09,0,0,39.35-40.68-26.63-80.97-65.98-40.28-130.75,35.36-130.75,35.36,0,0-33.21,64.71-72.91,10.82-39.7-53.9-118.22,5.31-68.58,41.34,49.64,36.02,74.22,62.68,87.54,103.17Z"/>
        <path class="cls-23" d="M942.63,547s60.57,43.24,61.88-31.08c1.32-74.31-84.27-66.21-90.85-91.88-6.58-25.67-38.18-67.56-122.45-67.56s-14.48,116.2-77.68,131.06c-63.2,14.86-115.87,117.55-31.6,108.09,84.27-9.46,171.17,33.78,175.12,44.59s-3.95,9.46,3.95,10.81c7.9,1.35,151.42,21.62,81.63-104.04Z"/>
        <path class="cls-19" d="M903.27,488.7s-34.67-160.79,68.47-168.22c103.14-7.43,71.54,92.56,116.3,81.75,44.77-10.81,75.05-137.82,119.82-116.2l2.59,198.56-307.18,4.11Z"/>
        <path class="cls-9" d="M416.36,517.97s-5.27-156.74,134.3-117.55c139.57,39.18,176.44,58.1,202.77,32.43,26.33-25.67,66.99,37.83,41.39,85.12H416.36Z"/>
      </g>
    </g>
    <rect class="cls-46" x="-40.44" y="204.1" width="162.82" height="81.94" transform="translate(286.04 204.1) rotate(90)"/>
    <rect class="cls-46" x="585.29" y="-95.48" width="162.82" height="1333.41" transform="translate(1237.93 -95.48) rotate(90)"/>
    <rect class="cls-47" x="585.29" y="67.12" width="162.82" height="1333.41" transform="translate(1400.53 67.12) rotate(90)"/>
    <rect class="cls-47" x="-40.44" y="40.44" width="162.82" height="81.94" transform="translate(122.38 40.44) rotate(90)"/>
    <rect class="cls-47" x="-40.44" y="367.24" width="162.82" height="81.94" transform="translate(449.18 367.24) rotate(90)"/>
    <rect class="cls-46" x="1206.26" y="199.26" width="162.82" height="91.62" transform="translate(1532.74 -1042.59) rotate(90)"/>
    <rect class="cls-47" x="1206.26" y="35.6" width="162.82" height="91.62" transform="translate(1369.08 -1206.26) rotate(90)"/>
    <rect class="cls-47" x="1206.26" y="362.4" width="162.82" height="91.62" transform="translate(1695.88 -879.45) rotate(90)"/>
    <rect class="cls-48" x="111.58" width="1096.86" height="455.98"/>
    <rect class="cls-22" x="77.9" width="33.68" height="484.45"/>
    <rect class="cls-22" x="1208.67" width="33.68" height="484.45"/>
    <rect class="cls-22" x="643.19" y="-109.58" width="33.68" height="1164.74" transform="translate(1132.82 -187.25) rotate(90)"/>
  </g>
  <rect class="cls-32" x=".75" y="813.75" width="1334.05" height="185.48"/>
  <rect class="cls-18" x=".75" y="924.17" width="1334.05" height="72.86"/>
  <g>
    <path class="cls-28" d="M236.78,270.98s10.09,31.95-6.21,63.18c0,0,2.23,135.92,89.12,144.74,0,0,96.9-97.56,34.12-131.95l-117.03-75.97Z"/>
    <path class="cls-34" d="M212.83,345.9s-80.73,31.76-118.41,71.9c0,0-26.21,19.66-31.95,61.44,0,0-7.01,39.81-16.02,125,0,0,58.63,14.89,118.43,14.07l-20.23,134.37s-28.27-3.19,152.78-.73c0,0,92.72,30.39,160.71,21.61,0,0,6.06-95.07,5.03-155.49,0,0,49.23-19.61,70.81-40.59l-39.61-104.57s-8.32-37.71-56.51-72.32c0,0-36.49-28.46-63.62-39.99l-52.8,40.2-11.15,73.33-14.96-62.52s-2.97-18.64-82.49-65.72Z"/>
    <path class="cls-4" d="M161.58,404.15s36.57,12.19,23.51,76.63c-13.06,64.44-20.22,137.53-20.22,137.53"/>
    <line class="cls-4" x1="464.63" y1="495.59" x2="462.89" y2="627.95"/>
    <polygon class="cls-20" points="218.56 332 233.05 329.71 230.36 346.74 218.56 332"/>
    <path class="cls-21" d="M206.32,348.21s74.4,45.27,89.1,70.98l-2.04-25.46s-55.17-35.54-74.81-61.72l-12.25,16.21Z"/>
    <path class="cls-21" d="M353.81,346.94s27.89-.92,26.83,17.14l-57.03,43.42-1.84-15.05s26.89-13.44,44.54-35.2c0,0-11.83-1.59-12.5-10.31Z"/>
    <path class="cls-4" d="M318.36,488.29s8,24.95,9.04,249.61"/>
    <ellipse class="cls-16" cx="302.13" cy="498.27" rx="4.45" ry="4.82"/>
    <ellipse class="cls-16" cx="313.41" cy="579.12" rx="4.45" ry="4.82"/>
    <ellipse class="cls-16" cx="318.98" cy="666.65" rx="4.45" ry="4.82"/>
    <g>
      <rect class="cls-16" x="227.91" y="667.55" width="23.66" height="23.66" transform="translate(-420.96 392.13) rotate(-47.07)"/>
      <rect class="cls-16" x="261.23" y="666.35" width="23.66" height="23.66" transform="translate(-409.46 416.15) rotate(-47.07)"/>
      <rect class="cls-16" x="226.71" y="634.38" width="23.66" height="23.66" transform="translate(-397.05 380.68) rotate(-47.07)"/>
      <rect class="cls-40" x="243.92" y="650.69" width="23.66" height="23.66" transform="translate(-403.51 398.48) rotate(-47.07)"/>
      <rect class="cls-16" x="260.03" y="633.17" width="23.66" height="23.66" transform="translate(-385.55 404.69) rotate(-47.07)"/>
      <rect class="cls-16" x="225.39" y="600.5" width="23.66" height="23.66" transform="translate(-372.67 368.91) rotate(-47.07)"/>
      <rect class="cls-40" x="242.59" y="616.81" width="23.66" height="23.66" transform="translate(-379.13 386.71) rotate(-47.07)"/>
      <rect class="cls-16" x="258.71" y="599.3" width="23.66" height="23.66" transform="translate(-361.17 392.92) rotate(-47.07)"/>
      <rect class="cls-16" x="224.28" y="567.01" width="23.66" height="23.66" transform="translate(-348.5 357.42) rotate(-47.07)"/>
      <rect class="cls-40" x="241.49" y="583.32" width="23.66" height="23.66" transform="translate(-354.96 375.22) rotate(-47.07)"/>
      <rect class="cls-16" x="257.6" y="565.8" width="23.66" height="23.66" transform="translate(-337 381.43) rotate(-47.07)"/>
      <rect class="cls-16" x="223.08" y="533.72" width="23.66" height="23.66" transform="translate(-324.52 345.93) rotate(-47.07)"/>
      <rect class="cls-40" x="240.29" y="550.03" width="23.66" height="23.66" transform="translate(-330.97 363.73) rotate(-47.07)"/>
      <rect class="cls-16" x="256.4" y="532.52" width="23.66" height="23.66" transform="translate(-313.01 369.94) rotate(-47.07)"/>
      <rect class="cls-16" x="221.88" y="500.42" width="23.66" height="23.66" transform="translate(-300.52 334.43) rotate(-47.07)"/>
      <rect class="cls-40" x="239.09" y="516.74" width="23.66" height="23.66" transform="translate(-306.98 352.23) rotate(-47.07)"/>
      <rect class="cls-16" x="255.2" y="499.22" width="23.66" height="23.66" transform="translate(-289.02 358.45) rotate(-47.07)"/>
      <rect class="cls-16" x="220.68" y="467.13" width="23.66" height="23.66" transform="translate(-276.53 322.94) rotate(-47.07)"/>
      <rect class="cls-40" x="237.88" y="483.45" width="23.66" height="23.66" transform="translate(-282.99 340.74) rotate(-47.07)"/>
      <rect class="cls-16" x="254" y="465.93" width="23.66" height="23.66" transform="translate(-265.03 346.95) rotate(-47.07)"/>
      <rect class="cls-16" x="219.48" y="433.95" width="23.66" height="23.66" transform="translate(-252.62 311.49) rotate(-47.07)"/>
      <rect class="cls-40" x="236.69" y="450.27" width="23.66" height="23.66" transform="translate(-259.08 329.28) rotate(-47.07)"/>
      <rect class="cls-16" x="252.81" y="432.75" width="23.66" height="23.66" transform="translate(-241.12 335.5) rotate(-47.07)"/>
      <rect class="cls-16" x="218.28" y="400.66" width="23.66" height="23.66" transform="translate(-228.63 299.99) rotate(-47.07)"/>
      <rect class="cls-40" x="235.49" y="416.98" width="23.66" height="23.66" transform="translate(-235.09 317.79) rotate(-47.07)"/>
      <rect class="cls-16" x="251.61" y="399.46" width="23.66" height="23.66" transform="translate(-217.13 324) rotate(-47.07)"/>
      <rect class="cls-16" x="217.16" y="367.48" width="23.66" height="23.66" transform="translate(-204.7 288.59) rotate(-47.07)"/>
      <rect class="cls-40" x="234.36" y="383.8" width="23.66" height="23.66" transform="translate(-211.16 306.38) rotate(-47.07)"/>
      <polyline class="cls-40" points="248.56 375.49 245.7 378.69 228.37 362.58 229.21 361.68"/>
      <polygon class="cls-16" points="262.91 394.83 245.59 378.71 248.56 375.49 267.55 389.94 262.91 394.83"/>
    </g>
    <g>
      <polyline class="cls-16" points="165.44 602.3 146.84 614.57 134.01 595.14 153.44 582.32 165.77 600.94"/>
      <polygon class="cls-40" points="168.23 585.28 165.77 600.94 153.61 582.47 169.99 571.63 168.23 585.28"/>
      <polyline class="cls-16" points="169.93 571.53 153.42 582.43 140.6 563 160.03 550.17 170.51 566.05"/>
      <rect class="cls-16" x="106.22" y="580.09" width="23.28" height="23.28" transform="translate(-306.45 162.79) rotate(-33.42)"/>
      <rect class="cls-40" x="125.81" y="567.42" width="23.28" height="23.28" transform="translate(-296.24 171.48) rotate(-33.42)"/>
      <rect class="cls-16" x="112.8" y="547.94" width="23.28" height="23.28" transform="translate(-287.66 161.1) rotate(-33.42)"/>
      <rect class="cls-16" x="74.11" y="573.51" width="23.28" height="23.28" transform="translate(-308.14 144.01) rotate(-33.42)"/>
      <rect class="cls-40" x="93.7" y="560.84" width="23.28" height="23.28" transform="translate(-297.92 152.71) rotate(-33.42)"/>
      <rect class="cls-16" x="80.69" y="541.37" width="23.28" height="23.28" transform="translate(-289.35 142.32) rotate(-33.42)"/>
      <polygon class="cls-16" points="69.76 581.87 47.86 594.85 51.12 566.3 56.93 562.44 69.76 581.87"/>
      <rect class="cls-40" x="61.58" y="554.26" width="23.28" height="23.28" transform="translate(-299.61 133.93) rotate(-33.42)"/>
      <polygon class="cls-16" points="76.34 549.73 56.91 562.55 51.43 554.48 52.47 537.59 63.52 530.3 76.34 549.73"/>
      <polyline class="cls-40" points="51.43 554.48 57.24 562.63 51.12 566.3"/>
    </g>
    <path class="cls-28" d="M52.06,605.47l6.59,94.27s17.47,75.31,55.16,90.09c37.69,14.78,172.19,39.91,312.61,22.17l92.38,1.48h12.15s3.56-4.44,3.56-4.44c0,0-2.67,4.44-.3,5.04s8.89,.59,8.89,.59c0,0,5.63-8,5.93-21.03,0,0,5.93,8,10.07,8.3,4.15,.3,5.04-7.41,5.04-7.41l-16.89-30.22-45.62-12.15-72.88,17.18-255.38-77.51-8.48-73.51-112.82-12.85Z"/>
    <path class="cls-30" d="M174.29,691.47s-21.97-7.78-44.76,22.84"/>
    <path class="cls-30" d="M520.78,813.39s3.13-10.64-22.84-11.26"/>
    <path class="cls-30" d="M505.76,777.1l27.53,11.89s7.43,6.29,1.21,20.04"/>
    <path class="cls-30" d="M514.83,763.96s23.15,4.38,32.85,15.64c0,0,2.36,4.26,1.34,14.02"/>
    <path class="cls-28" d="M402.04,129.08s18.05,25.59,13.6,87.29c0,0-2.53,14.82-.92,22.82s1.66,21.3-1.33,29.86c-3,8.56-25.07,65.9-25.07,65.9,0,0-7.21,16.63-36.34,17-29.13,.37-53.88-10.22-64.39-22.48-10.51-12.26-36.79-32.09-39.43-50.96,0,0-17.28,3.98-24.38-16.81,0,0-18.9-32.29-.11-40.76,18.79-8.46,29.74,17.54,29.74,17.54,0,0-22.55-76.59,20.37-106.51,0,0,52.91-44.31,128.25-2.89Z"/>
    <path class="cls-24" d="M330.27,285.44s14.79-3.64,31.81,2.29c0,0,15.13-2.12,28.42,1.66,0,0-2.91,24.06-25.87,28.07-22.96,4.02-35.61-17.95-34.36-32.03Z"/>
    <path class="cls-17" d="M333.8,287.37s-1.46,21.35,26.31,22.98c25.23,1.48,26.54-17.53,26.54-17.53,0,0-28.49-.38-52.85-5.45Z"/>
    <path class="cls-39" d="M343.69,200.97s-23.89-8.65-45.77-1.03c0,0,11.48-15.81,46.85-6.16,0,0,5.65,4.95-1.08,7.19Z"/>
    <path class="cls-39" d="M417.76,202.65c-17.31-3.61-26.1,1.13-26.1,1.13-6.42-3.01-.23-7.27-.23-7.27,11.3-1.7,20.01-1.22,26.64,.25,0,0,.64,6.08-.31,5.88Z"/>
    <path class="cls-14" d="M337.23,287.87s6.3,10.3,27.86,10.52c0,0,13.22,1.44,19.19-5.28,0,0-27.74-1.02-47.05-5.24Z"/>
    <path class="cls-2" d="M222.61,234.76s7.68-10.27,14.94,1.09c7.27,11.36,7.48,15.02,7.48,15.02,0,0-10.31-17.97-15.61-4.34"/>
    <path class="cls-43" d="M353.67,351.22s-25.57,2.18-46.26-7.76c0,0-12.67-4.01-29.36-23.35,0,0,16.11,28.47,47.36,32.59,0,0,13.98,3.32,28.26-1.47,0,0-.71,3.04,0,0Z"/>
    <g>
      <path class="cls-14" d="M313.48,216.34s0-.67,.52-1.22c1.69-1.82,5.58-5.21,11.57-5.08,6.71,.14,10.27,6.52,11.48,8.8,.21,.39,.18,.73,.18,.73,0,0,.02,.37-.22,.63-1.1,1.22-4.74,4.61-11.09,4.58-3.78-.02-9.05-2.17-12.23-7.37-.22-.36-.23-.82-.21-1.06Z"/>
      <circle class="cls-43" cx="327.3" cy="217.82" r="6.94"/>
      <circle class="cls-14" cx="323.6" cy="214.08" r="1.9"/>
      <path class="cls-5" d="M337.46,218.85s-7.82-16.19-23.72-3.79"/>
    </g>
    <g>
      <path class="cls-14" d="M390.72,223.64s-.09-.63,.31-1.21c1.31-1.94,4.44-5.64,10.03-6.38,6.26-.83,10.48,4.6,11.94,6.54,.25,.33,.27,.66,.27,.66,0,0,.07,.35-.11,.62-.85,1.29-3.75,4.97-9.66,5.84-3.52,.52-8.72-.72-12.42-5.1-.26-.3-.33-.73-.35-.96Z"/>
      <circle class="cls-43" cx="403.77" cy="223.03" r="6.5"/>
      <circle class="cls-14" cx="399.15" cy="220.57" r="1.82"/>
      <path class="cls-5" d="M413.12,222.78s-9.23-14.89-22.26-.08"/>
    </g>
    <path class="cls-2" d="M371.21,227.47l14.87,24.44s7.99,18.65-4.38,21.84c-11,2.84-11.36,.43-11.36,.43"/>
    <path class="cls-37" d="M743.29,478.11l-5.71,81.61s29.11,20.67,70.46,5.17l5.98-81.61s-26.39-18.5-70.73-5.17Z"/>
    <ellipse class="cls-36" cx="778.21" cy="484.89" rx="6.07" ry="31.01" transform="translate(245.21 1230.98) rotate(-86.39)"/>
    <path class="cls-28" d="M803.83,494.05s8.82-3.45,10.79,4.36-8.67,10.81-8.67,10.81l-9.44,1.68s-9.65-2.97-4.57-9.67c0,0,3.54-5.01,11.88-7.18Z"/>
    <path class="cls-28" d="M799.66,545.14s7.41-2.9,9.07,3.66-7.28,9.08-7.28,9.08l-7.93,1.42s-8.11-2.5-3.84-8.12c0,0,2.98-4.21,9.99-6.03Z"/>
    <path class="cls-28" d="M804.35,511.29s10.63-2.26,11.91,5.75-11.39,9.57-11.39,9.57l-11.86,.24s-9.15-.98-3.31-10.02c0,0,4.73-4.5,14.65-5.55Z"/>
    <path class="cls-28" d="M811.64,524.6s8.39,4.08,2.63,10.94c-5.75,6.86-20.04,10.18-20.04,10.18,0,0-6.62-.41-6-6.5,.62-6.09,13.39-11.48,13.39-11.48l10.02-3.13Z"/>
    <path class="cls-28" d="M737.58,559.72l2.72-45.7s-1.89-1.55,14.88-3.97c16.76-2.42,7.21-12.89,7.21-12.89-13.85-12.37-35.87-4-35.87-4-30.76,27.98-35.49,51.29-35.49,51.29l-2.67,2.03-144.08,79.25-24.82-36.84c-22.54,11.4-55.35,28.71-55.35,28.71l-5.81,124.32c38.36,36.5,85.79-1.16,85.79-1.16l176.8-159.75s20.77,14.9,47.7-10.94c0,0-20.13-1.09-31.01-10.34Z"/>
    <path class="cls-30" d="M544.44,624.01s-44.27,25.34-43.8,46.96"/>
    <path class="cls-39" d="M252.11,238.49l9.23-4.21c.39-23.96,2.65-75.3,19.58-96.74,0,0,71.43-34.38,117.06-4.89,0,0,15.45,11.81,18.7,74.19,0,0,9.36-43.34-3.99-80.62,0,0,12.13-8.4,13.79-12.29,0,0-15.95,2.69-23.82-5.53-4.62-4.82-68.35-57.54-141.05-5.61,0,0-70.7,13.38-43.26,120.16,0,0,22.84-6,33.76,15.53Z"/>
    <path class="cls-39" d="M319.9,300.27s-2.67-17.93,12.12-23.07c18.16-6.31,37.96-8.71,52.5-2.05,14.54,6.66,22.61,14.35,11.31,15.38-11.31,1.03-34.73-11.79-58.15,1.54,0,0-8.88,10.25-17.77,8.2Z"/>
  </g>
  <g>
    <g>
      <polygon class="cls-41" points="574.1 875.42 594.92 891.41 619.4 892.24 641.15 872.22 574.1 875.42"/>
      <polygon class="cls-41" points="399.31 864.16 420.13 880.15 444.62 880.98 466.36 860.96 399.31 864.16"/>
      <polygon class="cls-41" points="670.65 863.35 691.47 879.34 715.96 880.17 737.7 860.15 670.65 863.35"/>
      <path class="cls-38" d="M415.59,894.1l-.11-11.58c-.01-1.27,1.01-2.31,2.28-2.33l31.37-.29c1.27-.01,2.31,1.01,2.33,2.28l.11,11.59c0,.98-.6,1.86-1.52,2.19-4.45,1.6-17.99,5.48-32.94,.29-.91-.31-1.5-1.18-1.51-2.14Z"/>
      <path class="cls-38" d="M686.42,893.4l-.11-11.58c-.01-1.27,1.01-2.31,2.28-2.33l31.37-.29c1.27-.01,2.31,1.01,2.33,2.28l.11,11.59c0,.98-.6,1.86-1.52,2.19-4.45,1.6-17.99,5.48-32.94,.29-.91-.31-1.5-1.18-1.51-2.14Z"/>
      <path class="cls-41" d="M601.16,684.67v220.54s12.57,5.72,18.8-2.54l-2.49-221.32-16.32,3.33Z"/>
      <path class="cls-33" d="M402.19,788.61c0,12.85,0,25.7,0,38.55,0,9.65,15,9.67,15,0,0-12.85,0-25.7,0-38.55,0-9.65-15-9.67-15,0h0Z"/>
      <g>
        <polygon class="cls-42" points="617.78 682.73 619.46 879.26 737.98 861.32 737.32 660.31 617.78 682.73"/>
        <path class="cls-10" d="M625.92,853.91c-.77,5.23-.17,10.07,3.1,14.4,2.47,3.27,8.15,4.46,10.36,0,3.72-7.49,6.9-15.21,9.51-23.16h-11.57c2.16,5.48,4.33,10.96,6.49,16.43,1.76,4.46,3.34,9.81,8.92,10.38,4.37,.45,7.71-2.76,9.57-6.4,1.17-2.29,2.05-4.68,3.38-6.91,.77-1.3,1.6-2.57,2.53-3.76,.3-.43,.63-.84,.99-1.21,1.32-1.24,.14-1.42-3.54-.54-.36,.76,1.07,5.28,1.29,6.02,.61,2.07,1.56,4.18,3.06,5.77,2.89,3.04,7.33,4.55,11.33,2.99,4.36-1.7,6.06-5.78,6.41-10.18,.05-.59,.28-1.63,.09-2.19,.13-1.81-1.43-2.04-4.68-.7l.84,1.06c1.1,2.63,3.97,5.24,5.69,7.51,2.86,3.77,9.7,4.1,10.97-1.43,.77-3.37,1.98-6.44,4.15-9.18l-10.03-2.65c1.75,4.76,4.22,8.84,7.88,12.38,3.11,3.01,9.02,1.87,10.03-2.65,.37-1.67,.77-3.34,1.28-4.97,.25-.8,1.93-4.26,1.81-4.97-4.27-2.49-5.84-2.87-4.71-1.13,.22,.35,.41,.71,.57,1.09,.17,.76,.75,1.86,1.03,2.47,1.72,3.84,4.61,6.97,9.15,6.79,3.11-.12,6.17-2.65,6-6s.73-5.96,3.49-7.85l-8.81-3.59c.98,3.5,1.96,7.01,2.94,10.51,2.08,7.43,13.66,4.27,11.57-3.19-.98-3.5-1.96-7.01-2.94-10.51s-5.56-5.8-8.81-3.59c-6.17,4.21-9.83,10.63-9.44,18.21l6-6,2.33,1.42-.4-.69c0-.29-.37-.68-.45-.98-.37-1.27-1-2.67-1.66-3.83-1.51-2.63-3.79-4.66-6.89-5.02-9.28-1.06-12.1,11.87-13.61,18.62l10.03-2.65c-2.13-2.06-3.76-4.28-4.8-7.09-1.38-3.75-6.96-6.51-10.03-2.65-3.49,4.38-5.98,8.98-7.24,14.47,3.66-.48,7.31-.96,10.97-1.43-4.35-5.74-11.11-18.68-19.88-11.58-2.43,1.97-5.56,7.42-4.34,10.75,.43,1.19-1.36,2.08,1.4,.72,2.1-1.04,1.22-1.47,.82-3.47-.43-2.16-.69-4.14-1.75-6.13-1.78-3.33-5.1-6.04-9.08-5.74-4.67,.35-7.49,4.19-9.97,7.72-1.52,2.18-2.86,4.47-3.98,6.88-.29,.62-1.34,2.22-1.28,2.9-.74,1.1-.11,1.35,1.91,.74,2.07,.75,2.69,.47,1.85-.84,.25-1.84-2.51-6.35-3.25-8.22-1.2-3.04-2.41-6.09-3.61-9.13-2.14-5.41-9.62-5.95-11.57,0-2.29,6.98-5.03,13.71-8.3,20.29h10.36c-1.18-1.56-2.2-3.09-1.89-5.15,1.11-7.55-10.45-10.81-11.57-3.19h0Z"/>
        <path class="cls-33" d="M630.36,709.86c1.41,38.73,2.82,77.46,4.23,116.19,.35,9.62,15.35,9.67,15,0-1.41-38.73-2.82-77.46-4.23-116.19-.35-9.62-15.35-9.67-15,0h0Z"/>
        <path class="cls-33" d="M645.82,708.51c-3.64,19.83-.7,39.35,2.1,59.07,2.85,20.05,2.93,39.85,2.24,60.06-.33,9.65,14.67,9.64,15,0,.67-19.59,.65-38.85-1.98-58.31s-6.35-37.96-2.89-56.83c1.73-9.44-12.72-13.48-14.46-3.99h0Z"/>
        <path class="cls-33" d="M666.85,795.52c.52,13.24,.15,26.46-1.1,39.66-.91,9.61,14.1,9.54,15,0,1.25-13.19,1.62-26.41,1.1-39.66-.37-9.62-15.38-9.67-15,0h0Z"/>
        <path class="cls-33" d="M683.54,795.52c0,12.67,0,25.34,0,38.01,0,9.65,15,9.67,15,0,0-12.67,0-25.34,0-38.01,0-9.65-15-9.67-15,0h0Z"/>
        <path class="cls-33" d="M700.67,795.52c0,11.6,0,23.2,0,34.8,0,9.65,15,9.67,15,0,0-11.6,0-23.2,0-34.8,0-9.65-15-9.67-15,0h0Z"/>
        <path class="cls-33" d="M718.08,702.35c-2.11,41.74-1.94,83.56,.53,125.28,.57,9.59,15.57,9.66,15,0-2.46-41.72-2.64-83.54-.53-125.28,.49-9.65-14.51-9.62-15,0h0Z"/>
        <path class="cls-33" d="M657.66,704.5c.19,8.21,.39,16.42,.58,24.63,.23,9.64,15.23,9.67,15,0-.19-8.21-.39-16.42-.58-24.63-.23-9.64-15.23-9.67-15,0h0Z"/>
        <path class="cls-33" d="M672.94,706.12c-.72,8.26-.1,16.4,1.55,24.51,1.93,9.45,16.39,5.45,14.46-3.99-1.39-6.81-1.62-13.61-1.02-20.53,.84-9.61-14.16-9.56-15,0h0Z"/>
        <path class="cls-33" d="M683.7,703.98c-.84,9.7-.25,19.22,1.42,28.8,1.65,9.49,16.11,5.47,14.46-3.99-1.43-8.22-1.61-16.51-.89-24.81,.83-9.62-14.17-9.56-15,0h0Z"/>
        <path class="cls-33" d="M702.73,707.72c.43,5.78,.34,11.57-.61,17.29-.67,3.99,1.05,8.07,5.24,9.23,3.59,.99,8.56-1.22,9.23-5.24,1.18-7.09,1.68-14.11,1.15-21.28-.3-4.04-3.23-7.5-7.5-7.5-3.83,0-7.8,3.44-7.5,7.5h0Z"/>
        <rect class="cls-42" x="662.74" y="739.39" width="49.79" height="48.72" rx="5.82" ry="5.82" transform="translate(-74.58 74.41) rotate(-5.88)"/>
        <path class="cls-27" d="M640.48,688.28c9.65,0,9.67-15,0-15s-9.67,15,0,15h0Z"/>
        <path class="cls-27" d="M657.2,689.23c9.65,0,9.67-15,0-15s-9.67,15,0,15h0Z"/>
        <path class="cls-27" d="M688.25,686.36c9.65,0,9.67-15,0-15s-9.67,15,0,15h0Z"/>
        <path class="cls-27" d="M709.75,683.98c9.65,0,9.67-15,0-15s-9.67,15,0,15h0Z"/>
        <path class="cls-27" d="M728.86,677.29c9.65,0,9.67-15,0-15s-9.67,15,0,15h0Z"/>
        <path class="cls-35" d="M625.43,686.54c3.61,5.18,9.45,9.1,15.92,9.03,5.54-.05,10.68-3.76,12.38-9.08,.9-2.81,.69-5.75-.93-8.25-.73-1.12-3.44-.03-2.65,1.29,3.35,5.61,7.63,11.88,14.86,12.16,2.96,.11,5.85-.96,7.78-3.25,1.7-2.02,2.51-4.86,1.43-7.37l-2.77,1.03c4,5.77,10.99,10.1,18.22,8.88,6.48-1.1,12.33-6.93,11.54-13.79l-2.9,.78c.93,7.02,7.78,13.4,15.09,11.03,6.66-2.16,9.21-9.61,10.81-15.74l-2.92,.49c.56,5.47,5.87,9.94,11.4,9.14,5.15-.74,9.55-6.06,8.03-11.32-.39-1.36-3.29-.58-2.9,.78,1.05,3.62-1.59,8.2-5.55,8.44-4.29,.27-7.68-3.87-8.08-7.83-.15-1.45-2.67-.47-2.92,.49-1.22,4.7-3.15,11.47-8.2,13.42-6.03,2.33-11.16-4.42-11.86-9.7-.18-1.37-3.06-.63-2.9,.78,.63,5.43-4.18,10.51-9.47,10.99-5.99,.55-11.47-3.43-14.73-8.14-.65-.94-3.3-.18-2.77,1.03,.85,1.96,.39,4.08-.97,5.7-1.58,1.88-3.98,2.3-6.3,1.74-5.47-1.3-8.58-6.57-11.26-11.05l-2.65,1.29c3.05,4.7-.23,11.34-5.12,13.27-6.42,2.54-13.45-2.55-16.95-7.56-.77-1.1-3.52,.04-2.65,1.29h0Z"/>
      </g>
      <g>
        <polygon class="cls-42" points="399.79 666.86 504.23 577.52 601.46 685.99 399.79 666.86"/>
        <polygon class="cls-42" points="504.23 577.52 606.05 558.47 737.32 660.31 601.46 685.99 504.23 577.52"/>
        <path class="cls-27" d="M436.87,666.45c5.18-4.84,10.64-9.19,16.54-13.11l-9.09-11.78c-4.47,5.75-8.42,11.68-11.69,18.21s3.59,14.77,10.26,10.26c5.54-3.75,9.4-8.74,12.86-14.39,2.93-4.77,5.5-10.28,10.35-13.4-3.67-2.82-7.34-5.65-11.02-8.47-3.16,8.25-5.64,16.67-7.44,25.31s8.77,12.71,13.71,5.78c9.19-12.9,16.16-27.16,20.93-42.26l-14.73-1.99c-.16,7.4-4.01,13.91-7.09,20.43-3.43,7.25-6.28,14.6-6.13,22.74,.14,7.71,9.89,9.85,13.98,3.79,10.81-16.03,13.2-37.88,28.23-50.94-4.18-2.43-8.36-4.86-12.54-7.3-5.28,18.17-11.26,36.13-17.92,53.84-3.03,8.05,9.6,13.05,13.71,5.78,6.22-11.01,12.39-22.14,16.48-34.15,1.95-5.74,2.88-11.57,4.14-17.47,1.34-6.26,4.78-10.79,8.87-15.57-4.18-1.1-8.36-2.21-12.54-3.31,.73,5.19-1.7,10.68-3.63,15.35-2.29,5.54-4.6,11.05-6.64,16.69-4.14,11.47-7.55,23.18-10.96,34.88-2.5,8.57,9.01,12.45,13.71,5.78,6.87-9.75,9.92-21.35,13.91-32.43,1.82-5.06,3.97-10.06,7.08-14.48,3.71-5.27,8.02-9.29,10.53-15.38l-14.46-3.99c-4.16,20.18-10.39,39.88-18.89,58.66,4.57,1.93,9.14,3.85,13.71,5.78,4.52-17.06,9.52-37.16,24.36-48.39l-11.02-4.48c.35,1.7-1.2,4.61-1.7,6.2-.58,1.89-1.16,3.77-1.74,5.66-1.26,4.08-2.51,8.17-3.77,12.25-2.61,8.48-5.22,16.97-7.83,25.45-2.11,6.87,7.65,13.14,12.54,7.3,5.73-6.86,8.98-14.74,12.56-22.84,3.79-8.58,7.58-17.15,11.37-25.73-4.57-1.93-9.14-3.85-13.71-5.78-5.8,16.04-3.68,33.53-8.88,49.69-2.79,8.67,8.99,12.18,13.71,5.78,8.88-12.05,15.69-25.3,20.62-39.42l-14.46-3.99c-2.08,14-4.16,28.01-6.24,42.01-.56,3.74,.62,7.28,4.34,8.85,3.27,1.38,7.64,.26,9.37-3.07,4.52-8.74,9.04-17.48,13.56-26.23h-12.95c2.69,6.16,2.23,13.32,2.05,19.87-.19,7.36,10.45,10.32,13.98,3.79,.93-1.72,1.86-3.45,2.79-5.17l.93-1.72c1.4-1.8,1.34-2.19-.16-1.17h-3.99c-1.51-1.16-1.64-1.14-.39,.06l1.11,1.16c1.42,1.38,2.96,2.62,4.57,3.78,2.96,2.14,6.16,3.58,9.58,4.84l-5.24-9.23,3.24-3.43h3.99l-.94-.17c-9.44-1.73-13.48,12.72-3.99,14.46,5.85,1.07,10.01-1.38,12.16-6.87,1.56-3.99-1.76-7.95-5.24-9.23-3.15-1.16-5.75-2.96-8.09-5.34s-5.1-4.76-8.78-4.76c-8.14,0-11.33,9.32-14.52,15.23l13.98,3.79c.25-9.58-.22-18.57-4.1-27.44-2.25-5.15-10.55-4.65-12.95,0-4.52,8.74-9.04,17.48-13.56,26.23,4.57,1.93,9.14,3.85,13.71,5.78,2.08-14,4.16-28.01,6.24-42.01,1.4-9.41-11.21-13.3-14.46-3.99-4.51,12.9-11.01,24.85-19.11,35.84,4.57,1.93,9.14,3.85,13.71,5.78,5.21-16.17,3.09-33.67,8.88-49.69,2.86-7.9-10.26-13.57-13.71-5.78s-7.06,15.97-10.59,23.95c-3.18,7.21-5.88,15.46-10.99,21.58,4.18,2.43,8.36,4.86,12.54,7.3,3-9.74,6-19.48,8.99-29.22,2.69-8.73,7.94-19.09,6.05-28.32-.9-4.37-7.26-7.32-11.02-4.48-18.51,13.99-25.54,35.76-31.26,57.35-2.1,7.91,10.1,13.75,13.71,5.78,9.05-19.99,15.97-40.74,20.4-62.24,1.99-9.66-10.85-12.77-14.46-3.99-1.99,4.85-7.01,8.64-9.85,13.05-3.07,4.77-5.27,10.08-7.24,15.38-3.86,10.36-6.46,21.11-12.92,30.27,4.57,1.93,9.14,3.85,13.71,5.78,3.77-12.93,7.55-25.88,12.29-38.49s10.82-23.07,8.94-36.41c-.77-5.5-9.12-7.29-12.54-3.31-4.19,4.89-8.31,9.83-10.77,15.85s-2.84,12.57-4.56,18.8c-3.5,12.69-10.08,24.18-16.51,35.57,4.57,1.93,9.14,3.85,13.71,5.78,6.67-17.71,12.64-35.66,17.92-53.84,2.2-7.59-7.14-11.99-12.54-7.3-16.32,14.19-18.92,36.7-30.57,53.98,4.66,1.26,9.32,2.52,13.98,3.79-.14-7.44,3.5-13.89,6.63-20.42,3.49-7.29,6.42-14.57,6.6-22.76,.19-8.66-12.23-9.91-14.73-1.99-4.39,13.91-10.96,26.8-19.42,38.67,4.57,1.93,9.14,3.85,13.71,5.78,1.8-8.65,4.28-17.07,7.44-25.31,2.36-6.15-5.78-11.83-11.02-8.47-5.61,3.6-9.51,8.59-12.98,14.2-2.93,4.74-5.49,10.38-10.24,13.59l10.26,10.26c2.66-5.31,5.69-10.47,9.34-15.17,2.32-2.99,3.06-6.64,.59-9.85-2.16-2.8-6.55-4.01-9.68-1.93-6.94,4.62-13.48,9.77-19.57,15.46-7.07,6.6,3.56,17.2,10.61,10.61h0Z"/>
        <path class="cls-27" d="M520.27,588.34c8.91,4.5,15.24,12.01,21.02,19.96,6.76,9.3,13.47,18.61,20.72,27.55,7.26,8.96,14.9,17.62,22.89,25.95,7.38,7.7,15.34,14.83,26.53,15.29,5.85,.24,9.12-6.5,6.48-11.29-4.45-8.04-11.14-14.1-17.73-20.34s-12.29-13.55-17.35-21.35-9.6-15.57-15.02-22.93c-2.83-3.85-5.81-7.58-9.08-11.06-2.27-2.41-6.89-5.83-6.85-9.49l-1.02,3.79,.41-.8-4.48,3.45,.85-.3h-3.99c1.6,.43,3.88,2.84,5.27,3.86,2.23,1.63,4.47,3.27,6.7,4.9,4.9,3.59,9.8,7.17,14.7,10.76,9.02,6.6,18.17,13.06,26.96,19.98,8.09,6.37,15.89,13.19,22.69,20.93s11.27,16.96,20.49,21.44c4.47,2.17,9.44,.38,11.02-4.48s-.03-9.46-2.11-14.07-4.41-9.62-6.62-14.43c-4.25-9.27-8.22-17.63-16.44-24.03-7.36-5.73-14.89-10.92-21.62-17.44s-13.19-14.22-18.6-22.3l-1.17,9.09c-1.45,1.29-1.38,.58,.74,1.57,1.29,.61,2.52,1.41,3.75,2.12,2.73,1.59,5.42,3.24,8.08,4.96,5,3.25,9.88,6.71,14.52,10.45,9.51,7.66,18.62,16.23,26.33,25.73,3.83,4.71,4.7,9.83,6.5,15.48s4.23,11.03,7.37,15.96c3.39,5.34,7.12,9.61,13.71,10.37s13.38-.17,19.83-1.52c4.61-.97,7.02-7.12,4.48-11.02-5.05-7.75-11.33-14.48-17.49-21.35s-10.96-14.54-16.15-22.24c-10.86-16.11-27.74-27.42-42.6-39.59-3.31-2.71-6.91-6.7-11.19-7.8-4.92-1.27-9.67,1.12-14.17,2.8-7.25,2.7-15.99,5.08-19.45,12.77-3.9,8.66,3.12,18.64,6.62,26.36,4.3,9.5,8.58,19.01,12.92,28.49,7.34,16.04,16.26,39.95,36.35,43,4.03,.61,8.02-1.02,9.23-5.24,1.01-3.54-1.24-8.62-5.24-9.23-8.43-1.28-13.22-8.24-17.13-15.23-5.15-9.2-9.38-18.93-13.73-28.52-4.65-10.27-9.44-20.48-13.96-30.81-.28-.64-1.29-2.19-1.27-2.81,.01-.3-.54,.85-.12,.07,.59-1.08,3.1-1.85,4.11-2.27,3.77-1.58,9.84-4.96,13.85-4.64l-3.79-1.02c4.47,2.1,8.45,6.42,12.26,9.54s7.87,6.45,11.8,9.67c7.42,6.08,15.41,12.03,21.06,19.9,5.64,7.85,10.28,16.17,16.59,23.56,6.26,7.34,13.25,14.06,18.54,22.18,1.49-3.67,2.99-7.34,4.48-11.02-3.75,.79-7.48,1.23-11.32,1.24-3.22,0-3.06,.21-4.83-2.5-3.32-5.08-5.67-10.48-7.25-16.33-1.81-6.71-4.07-12.2-8.44-17.65-3.88-4.82-8.14-9.36-12.54-13.72-9.01-8.93-18.94-17.01-29.45-24.1-9.13-6.15-23.16-17.53-33.62-8.22-2.34,2.08-2.93,6.46-1.17,9.09,9.8,14.62,21.76,27.38,35.82,37.96,7.19,5.41,13.06,9.38,17.08,17.66,2.12,4.37,4.07,8.83,6.1,13.25,1.16,2.53,5.73,9.23,4.88,11.85,3.67-1.49,7.34-2.99,11.02-4.48-7.03-3.42-10.92-11.35-15.79-17.15-5.52-6.57-11.78-12.48-18.34-17.99-14.28-11.98-29.73-22.61-44.76-33.61-3.72-2.72-7.45-5.45-11.17-8.17-3.41-2.49-6.97-6.1-11.34-6.59-11.31-1.26-10.71,12.14-6.73,18.81,4.08,6.86,10.75,12,15.45,18.45s9.14,13.88,13.63,20.87c5.24,8.15,10.87,16.16,17.75,23.02,6.43,6.41,13.77,11.99,18.23,20.06,2.16-3.76,4.32-7.52,6.48-11.29-8.74-.36-16.16-11.04-21.54-16.87-7.61-8.26-14.9-16.82-21.81-25.68-12.07-15.48-22.06-34.97-40.24-44.16-8.59-4.35-16.2,8.59-7.57,12.95h0Z"/>
        <path class="cls-35" d="M519.97,584.95c-1.1,5.76,5.95,9.65,10.89,8.13,5.84-1.8,8.22-8.6,6.96-14.15l-2.56,1.26c5.03,4.99,11.12,10.21,18.76,8.74,3.06-.59,5.71-2.38,7.16-5.16,1.32-2.53,1.38-5.64-.28-8.03l-2.43,1.53c3.06,2.44,6.41,4.5,9.99,6.11,3.31,1.49,7.12,2.93,10.79,2.07,6.75-1.57,7.38-9.16,6.96-14.86l-2.79,.75c3.01,4.85,8.05,10.87,14.5,8.52,2.91-1.06,5.02-3.68,5.88-6.6,1.1-3.71,.32-7.61-.45-11.31-.3-1.43-3.2-.68-2.9,.78,.64,3.06,1.32,6.23,.73,9.36-.44,2.32-1.86,4.95-4.21,5.77-4.76,1.67-8.84-4.5-10.9-7.84-.57-.92-2.88-.42-2.79,.75,.3,4.12,.56,11.84-4.98,12.61-3.03,.42-6.32-1.17-8.98-2.43-3.08-1.46-5.96-3.31-8.62-5.43-.89-.71-3.3,.28-2.43,1.53,1.32,1.89,1.19,4.31,.13,6.31-1.22,2.3-3.56,3.43-6.1,3.54-6.07,.25-10.84-4.51-14.82-8.46-.8-.79-2.82,.1-2.56,1.26,.89,3.91-.23,9.56-4.43,11.17-3.67,1.41-8.32-2.22-7.57-6.11,.29-1.52-2.68-1.2-2.95,.18h0Z"/>
        <path class="cls-35" d="M539.51,597.81c3.96,4.54,10.07,6.89,16.06,6.29,1.38-.14,2.86-.52,3.93-1.46s1.33-2.3,1.46-3.64c.36-3.76,.25-7.57-.22-11.32l-2.8,.94c3.82,5.64,10.38,11.5,17.57,11.61,3.1,.05,6.3-1.11,8.16-3.68,1.56-2.16,2.01-5.02,.32-7.23-.54-.71-3.33,.24-2.7,1.1,2.19,2.98,4.96,5.69,8.47,7.03s7.26,1.2,10.52-.35c6.75-3.21,6.67-11.2,6-17.6l-2.8,.94c7.14,7.84,19.66,9.12,28.67,3.85,.43-.25,.81-.69,.28-1.03s-1.58,.03-2.05,.3c-7.8,4.56-18.23,2.34-24.2-4.21-.55-.61-2.9,0-2.8,.94,.52,5.04,1.09,12.42-3.89,15.57-2.55,1.61-5.9,1.06-8.48-.19-2.88-1.4-5.15-3.78-7.02-6.33l-2.7,1.1c1.41,1.84,.99,4.36-.3,6.15-1.72,2.37-4.41,2.48-7.06,1.69-5.47-1.64-10.16-6.1-13.3-10.73-.47-.69-2.91,.05-2.8,.94,.37,2.99,.52,6,.37,9.01-.06,1.21-.06,2.53-.43,3.7-.47,1.48-1.56,1.51-2.94,1.51-4.84-.02-9.46-2.35-12.62-5.96-.6-.69-3.37,.33-2.7,1.1h0Z"/>
        <path class="cls-35" d="M554.73,619.58c2.69-2.56,3.98-6.03,3.44-9.73l-2.56,1.26c4.68,4.3,10.89,6.59,17.21,6.76,5.78,.15,13.65-1.57,16.67-7.08,1.52-2.78,1.1-6.55-1.51-8.5-.9-.67-3.32,.26-2.43,1.53,3.79,5.42,9.9,9.08,16.47,9.88,1.58,.19,3.38,.39,4.91-.17,1.7-.62,2.34-2,2.61-3.69,.67-4.15,.94-8.4,1.03-12.6l-2.58,.96c5.47,3.89,12.1,5.94,18.81,5.87,2.52-.03,6.9,.07,8.11-2.71,.63-1.44,.34-3.27,.32-4.79-.03-2.09-.06-4.18-.09-6.26-.02-1.59-2.97-1.22-2.95,.18,.04,3.11,.29,6.29,.11,9.39-.03,.56-.06,1.15-.58,1.45-.46,.26-1.3,.25-1.82,.31-1.37,.15-2.75,.21-4.12,.16-5.59-.2-11.03-2.1-15.58-5.34-.76-.54-2.56-.16-2.58,.96-.07,3.41-.3,6.8-.71,10.19-.14,1.12,.02,3.87-1.44,3.98-1.32,.1-2.71-.12-4-.37-5.36-1.04-10.16-4.27-13.28-8.72l-2.43,1.53c2.77,2.07,1.73,6.12-.54,8.1-2.4,2.1-5.88,3.04-9,3.36-6.7,.68-13.44-1.57-18.4-6.12-.87-.79-2.73,.09-2.56,1.26,.4,2.71-.5,5.59-2.5,7.5-1.41,1.35,.84,2.52,1.96,1.45h0Z"/>
        <path class="cls-35" d="M561.02,624.68c5.38,4.42,11.58,9.04,18.98,7.87,3.12-.5,6-2,7.82-4.64,1.64-2.39,2.26-5.5,1.02-8.2l-2.78,1.01c2.22,2.23,4.72,4.15,7.5,5.62s5.87,2.9,8.99,2.23c2.68-.57,4.87-2.65,5.89-5.15,1.26-3.07,.84-6.45,.43-9.65l-2.78,1.01c4.64,4.14,9.98,8.55,16.65,7.53,2.71-.42,5.39-1.64,7.04-3.9,1.97-2.71,1.93-6.12,1.78-9.31l-2.59,.93c8.59,5.27,19.24,6.62,28.9,3.78,.53-.16,1.38-.63,1.2-1.32s-1.18-.69-1.7-.54c-8.78,2.58-18.36,1.25-26.15-3.53-.64-.39-2.64-.12-2.59,.93,.13,2.62,.3,5.55-1.04,7.92-1.08,1.91-3.1,2.92-5.23,3.12-5.38,.52-9.88-3.53-13.6-6.86-.79-.71-2.95-.33-2.78,1.01,.34,2.65,.73,5.46-.09,8.06-.58,1.86-2.07,4.06-4.22,4.13-2.34,.07-4.98-1.47-6.94-2.61-2.2-1.28-4.21-2.84-6-4.65-.65-.66-3.34-.2-2.78,1.01,1.05,2.27,.69,4.81-.68,6.87-1.48,2.22-3.93,3.28-6.55,3.36-6.03,.19-11.06-4.03-15.44-7.63-.92-.76-3.5,.58-2.25,1.61h0Z"/>
        <path class="cls-35" d="M584.58,654.5c-.24-4.23-.14-8.46,.32-12.68l-2.79,.75c6.19,4.09,14.42,7.65,21.2,2.66,5.31-3.91,6.02-11.36,6.26-17.42l-2.79,.75c4.71,3.27,8.38,9.32,14.72,9.32,5.63,0,11.15-5.56,9.32-11.33l-2.8,.94c5.92,7.57,17.69,9.99,25.79,4.52,1.61-1.09-.91-1.31-1.76-.73-6.94,4.68-16.51,1.29-21.33-4.88-.47-.61-3.07,.07-2.8,.94,1.34,4.24-2.05,10.14-6.95,8.8s-7.67-6-11.5-8.66c-.56-.39-2.76-.18-2.79,.75-.2,5.15-.62,11.34-4.24,15.37-4.88,5.45-12.77,1.1-17.63-2.11-.59-.39-2.69-.18-2.79,.75-.47,4.34-.58,8.7-.33,13.05,.05,.82,2.96,.25,2.9-.78h0Z"/>
        <path class="cls-35" d="M585.24,661.3c4.39,5.23,12.33,6.14,18.25,3.11s8.95-10.09,6.96-16.35l-2.81,.91c3.37,4.85,9.03,7.69,14.9,7.82,2.52,.06,6.46-.14,7.25-3.11,.46-1.72,.48-3.64,.68-5.4,.22-1.9,.44-3.79,.66-5.69l-2.79,.75c4.27,4.92,10.6,8.96,17.15,9.82,2.7,.36,6.49-.36,7.12-3.5,.35-1.78,.1-3.8-.1-5.58-.24-2.06-.66-4.08-1.24-6.06l-2.81,.91c6.86,4.05,14.71,7.74,22.67,4.4,3.1-1.3,5.76-3.61,6.65-6.95,.81-3.03,.15-6.41-2.32-8.48-.67-.56-3.31,.55-2.71,1.05,4.56,3.82,2.35,11.3-2.68,13.49-6.36,2.77-13.54-1.4-18.89-4.56-.49-.29-3.08,0-2.81,.91,.91,3.13,1.44,6.36,1.47,9.63,.01,1.06,.03,3.17-1.32,3.44-1.18,.24-2.72-.35-3.83-.69-5.29-1.59-10-4.72-13.62-8.89-.45-.52-2.71,.04-2.79,.75-.34,2.92-.68,5.85-1.01,8.77-.14,1.21-.03,3.17-1.43,3.54-1.09,.29-2.52,.08-3.62-.07-4.77-.66-9.1-3.42-11.83-7.36-.4-.57-3.04,.17-2.81,.91,1.64,5.17-.28,11.41-4.88,14.46s-11.3,1.02-14.72-3.05c-.53-.63-3.29,.36-2.71,1.05h0Z"/>
        <path class="cls-35" d="M608.74,668.18c3.96,.44,7.93,.89,11.89,1.33,3.42,.38,6.87,.74,10.28,.05,2.88-.59,5.52-1.94,7.35-4.29,1.61-2.06,2.37-4.79,1.36-7.28l-2.79,.97c5.33,5.44,8.38,16.13,17.81,15.26,7.46-.68,9.77-8.58,10.63-14.82l-2.79,.75c6.05,4.53,14.18,5.88,21.32,3.24,6.48-2.4,10.99-8.49,11.19-15.43,.11-3.66-.98-7.24-3.44-10-.7-.79-3.47,.27-2.68,1.16,3.81,4.29,4.06,10.73,1.64,15.77-2.79,5.8-8.73,8.58-15.02,8.05-3.71-.31-7.35-1.72-10.32-3.95-.67-.5-2.65-.3-2.79,.75-.59,4.3-2.13,13.23-8.13,12.78-3.52-.26-6.38-3.14-8.33-5.84-2.14-2.96-3.81-6.25-6.39-8.88-.58-.59-3.21-.07-2.79,.97,.9,2.22,.3,4.56-1.17,6.39-1.69,2.11-4.2,2.89-6.82,3.04-2.99,.17-6.01-.31-8.97-.65l-9.91-1.11c-1.18-.13-3.05,1.51-1.1,1.73h0Z"/>
      </g>
      <g>
        <polygon class="cls-25" points="399.79 666.86 398.47 865.24 603.14 882.53 601.46 685.99 399.79 666.86"/>
        <path class="cls-33" d="M405.41,696.52c0,8.92,0,17.85,0,26.77,0,9.65,15,9.67,15,0,0-8.92,0-17.85,0-26.77,0-9.65-15-9.67-15,0h0Z"/>
        <path class="cls-33" d="M420.93,698.13v29.98c0,9.65,15,9.67,15,0v-29.98c0-9.65-15-9.67-15,0h0Z"/>
        <path class="cls-33" d="M434.37,696.52c-.19,9.82-.14,19.64,.16,29.46s15.3,9.67,15,0-.36-19.64-.16-29.46c.19-9.66-14.81-9.66-15,0h0Z"/>
        <path class="cls-33" d="M451.94,700.27c.27,7.51,.1,15-.5,22.48-.78,9.62,14.22,9.57,15,0,.61-7.49,.77-14.98,.5-22.48-.35-9.62-15.35-9.67-15,0h0Z"/>
        <path class="cls-33" d="M466.44,704.55v32.12c0,9.65,15,9.67,15,0v-32.12c0-9.65-15-9.67-15,0h0Z"/>
        <path class="cls-33" d="M479.32,702.95c-.29,11.09,.12,22.14,1.22,33.18,.41,4.03,3.16,7.5,7.5,7.5,3.74,0,7.91-3.44,7.5-7.5-1.11-11.03-1.52-22.09-1.22-33.18,.26-9.66-14.75-9.65-15,0h0Z"/>
        <path class="cls-33" d="M495.17,707.23c.36,11.78,.71,23.56,1.07,35.34,.29,9.63,15.29,9.67,15,0-.36-11.78-.71-23.56-1.07-35.34-.29-9.63-15.29-9.67-15,0h0Z"/>
        <path class="cls-33" d="M509.66,706.7c.69,11.45,.4,22.86-.87,34.26-.45,4.03,3.77,7.5,7.5,7.5,4.43,0,7.05-3.46,7.5-7.5,1.27-11.4,1.56-22.82,.87-34.26-.58-9.59-15.58-9.66-15,0h0Z"/>
        <path class="cls-33" d="M526.41,709.37c0,8.03,0,16.06,0,24.09,0,9.65,15,9.67,15,0,0-8.03,0-16.06,0-24.09,0-9.65-15-9.67-15,0h0Z"/>
        <path class="cls-33" d="M542.42,711.51c.22,7.68,.15,15.36-.2,23.03-.44,9.65,14.56,9.63,15,0,.35-7.68,.42-15.35,.2-23.03-.27-9.63-15.27-9.67-15,0h0Z"/>
        <path class="cls-33" d="M557.18,709.87c.8,10.06,5.16,20.68,3.25,30.77-1.78,9.43,12.67,13.48,14.46,3.99,2.27-12.02-1.77-22.89-2.71-34.75-.76-9.56-15.77-9.64-15,0h0Z"/>
        <path class="cls-33" d="M572.42,710.98c.23,7.15,.05,14.28-.55,21.41-.81,9.62,14.19,9.56,15,0,.6-7.13,.79-14.26,.55-21.41-.31-9.63-15.31-9.67-15,0h0Z"/>
        <path class="cls-33" d="M419.25,786.47c.61,14.13,.08,28.24-1.58,42.29-.48,4.03,3.79,7.5,7.5,7.5,4.45,0,7.02-3.46,7.5-7.5,1.66-14.05,2.18-28.15,1.58-42.29-.41-9.62-15.42-9.67-15,0h0Z"/>
        <path class="cls-33" d="M432.35,787.54c-.21,13.03-.42,26.06-.63,39.08-.16,9.66,14.84,9.66,15,0,.21-13.03,.42-26.06,.63-39.08,.16-9.66-14.84-9.66-15,0h0Z"/>
        <path class="cls-33" d="M445.27,789.64c-.44,14.15-1.66,28.25-2.92,42.35-.86,9.61,14.15,9.55,15,0,1.26-14.1,2.49-28.2,2.92-42.35,.3-9.66-14.7-9.65-15,0h0Z"/>
        <path class="cls-33" d="M525.42,798.26c-1.34,11.84,2.39,24.54,4.35,36.18,1.6,9.5,16.06,5.47,14.46-3.99-1.76-10.41-5.01-21.6-3.81-32.19,.45-4.03-3.77-7.5-7.5-7.5-4.43,0-7.04,3.46-7.5,7.5h0Z"/>
        <path class="cls-33" d="M539.79,797.18c0,13.39,0,26.77,0,40.16,0,9.65,15,9.67,15,0,0-13.39,0-26.77,0-40.16,0-9.65-15-9.67-15,0h0Z"/>
        <path class="cls-33" d="M552.57,796.11c.33,16.07,.21,32.13-.37,48.19-.35,9.65,14.65,9.64,15,0,.58-16.06,.7-32.12,.37-48.19-.2-9.64-15.2-9.67-15,0h0Z"/>
        <path class="cls-33" d="M566.37,800.4c.86,14.67,.47,29.32-1.17,43.92-.45,4.03,3.77,7.5,7.5,7.5,4.43,0,7.05-3.46,7.5-7.5,1.64-14.6,2.03-29.25,1.17-43.92-.56-9.59-15.57-9.66-15,0h0Z"/>
        <path class="cls-33" d="M584.07,713.61c2.43,44.02-8.78,87.75-3.78,131.74,.46,4.02,3.12,7.5,7.5,7.5,3.7,0,7.96-3.45,7.5-7.5-5-43.99,6.21-87.72,3.78-131.74-.53-9.6-15.53-9.66-15,0h0Z"/>
        <path class="cls-10" d="M404.08,840.02c.37,6.5,1.34,12.91,2.98,19.21,1.38,5.32,8.14,5.49,10.97,1.43,1.96-2.82,3.92-5.64,5.88-8.45l2.67-3.84c.87-1.25,3.82-3.4,.73-2.56l-4.62-.6c-1.84-1.34-1.19-1.38-1.24,.44-.02,1.07,.29,2.31,.42,3.38,.27,2.17,.47,4.39,1.09,6.5,1.2,4.11,3.92,7.66,8.55,7.55,4.34-.1,6.78-3.23,8.8-6.66,1.1-1.88,2.25-3.73,3.58-5.47,.67-.88,1.37-1.71,2.1-2.53,1.07-1.2,2.8-1.76,.39-1.02l-4.62-.6c-1.23-2.05-1.62-2.32-1.16-.79,.19,.89,.37,1.77,.56,2.66,.31,1.48,.62,2.96,.93,4.44,.68,3.25,1.36,6.51,2.04,9.76,1.14,5.48,8.23,5.32,10.97,1.43,1.4-1.99,2.27-4.21,2.92-6.55,.55-1.97,.61-4.9,2.53-6.03-2.94-1.2-5.88-2.39-8.81-3.59,.76,3.89,.95,7.71,.77,11.67-.34,7.72,11.66,7.7,12,0,.22-5.03-.24-9.92-1.2-14.86-.75-3.84-5.68-5.44-8.81-3.59s-5.1,4.35-6.43,7.67c-1.22,3.07-1.4,6.47-3.33,9.21,3.66,.48,7.31,.96,10.97,1.43-1.05-5.03-2.1-10.06-3.15-15.09-.77-3.71-1.91-7.76-6.16-8.76s-6.98,1.9-9.41,4.71c-1.57,1.82-3.05,3.73-4.42,5.71-.62,.89-1.21,1.8-1.77,2.72-.29,.46-.56,.92-.82,1.4-.89,1.11-.31,1.31,1.74,.61l3.59,2.76c-3.39-5.25,.06-20.82-10.36-19.59-4.15,.49-6,4.3-8.16,7.41-3.03,4.35-6.06,8.71-9.09,13.06,3.66,.48,7.31,.96,10.97,1.43-1.38-5.29-2.24-10.57-2.55-16.02-.44-7.68-12.44-7.73-12,0h0Z"/>
        <path class="cls-10" d="M518.32,853.4c-.25,2.82,.04,5.5,.7,8.25,1.19,4.98,8.52,5.9,10.97,1.43,3.91-7.16,7.83-14.32,11.74-21.47-3.66-.48-7.31-.96-10.97-1.43,3.79,10.56,.7,22.18,4.96,32.7,2.01,4.97,7.77,5.78,10.97,1.43,2.17-2.94,4.33-5.89,6.5-8.83,.98-1.34,1.97-2.68,2.95-4.02,.68-.92,3.75-3.43,1.28-3.44l-4.24-1.76c-.87-.89,.01,.86,.11,1.42,.28,1.57,.65,3.13,.97,4.69,.58,2.82,1.16,5.63,1.74,8.45,1,4.86,6.81,5.22,10.03,2.65,2.12-1.7,3.52-3.97,4.68-6.39,.7-1.45,1.68-4.52,2.68-4.78l-7.38-4.19c1.11,4.33,2.46,8.53,4.08,12.69,1.81,4.65,8.14,6.17,10.97,1.43,3.16-5.29,7.24-9.45,12.49-12.68l-9.03-5.18c.89,7.07,2.65,13.51,5.53,20.03,1.86,4.22,8.32,3.6,10.36,0,2.38-4.19,3.53-8.69,3.17-13.5-.58-7.65-12.58-7.72-12,0,.21,2.83-.13,4.98-1.53,7.45h10.36c-1.95-4.42-3.29-9.18-3.89-13.98-.53-4.26-4.76-7.81-9.03-5.18-6.98,4.3-12.59,9.94-16.79,16.99,3.66,.48,7.31,.96,10.97,1.43-1.62-4.16-2.97-8.36-4.08-12.69-.81-3.18-4.28-4.99-7.38-4.19-3.55,.91-6.12,3.21-7.96,6.33-1.58,2.68-2.19,5.92-4.69,7.92l10.03,2.65c-1.38-6.69-1.6-23.25-12.04-21.51-4.39,.73-6.75,5.2-9.16,8.48-3.35,4.55-6.7,9.1-10.04,13.65,3.66,.48,7.31,.96,10.97,1.43-4.22-10.43-1.16-22.09-4.96-32.7-1.65-4.6-8.33-6.25-10.97-1.43-3.91,7.16-7.83,14.32-11.74,21.47,3.66,.48,7.31,.96,10.97,1.43-.44-1.83-.44-3.19-.27-5.06,.68-7.69-11.32-7.64-12,0h0Z"/>
        <rect class="cls-42" x="532.84" y="742.03" width="49.79" height="48.72" rx="5.82" ry="5.82"/>
        <rect class="cls-42" x="409.57" y="731.88" width="49.79" height="48.72" rx="5.82" ry="5.82" transform="translate(33.44 -18.25) rotate(2.5)"/>
        <path class="cls-27" d="M416.81,681.03c9.65,0,9.67-15,0-15s-9.67,15,0,15h0Z"/>
        <path class="cls-27" d="M435.92,683.42c9.65,0,9.67-15,0-15s-9.67,15,0,15h0Z"/>
        <path class="cls-27" d="M458.38,682.46c9.65,0,9.67-15,0-15s-9.67,15,0,15h0Z"/>
        <path class="cls-27" d="M479.4,688.67c9.65,0,9.67-15,0-15s-9.67,15,0,15h0Z"/>
        <path class="cls-27" d="M499.46,690.58c9.65,0,9.67-15,0-15s-9.67,15,0,15h0Z"/>
        <path class="cls-27" d="M520.01,691.06c9.65,0,9.67-15,0-15s-9.67,15,0,15h0Z"/>
        <path class="cls-27" d="M546.29,693.93c9.65,0,9.67-15,0-15s-9.67,15,0,15h0Z"/>
        <path class="cls-27" d="M571.61,695.84c9.65,0,9.67-15,0-15s-9.67,15,0,15h0Z"/>
        <path class="cls-27" d="M592.63,696.32c9.65,0,9.67-15,0-15s-9.67,15,0,15h0Z"/>
        <path class="cls-35" d="M477.25,811.73c3.22,0,3.22-5,0-5s-3.22,5,0,5h0Z"/>
        <path class="cls-35" d="M404.8,669.75c-.93,5.58-.55,13.98,6.17,15.74,5.53,1.45,12.65-3.11,12.12-9.16l-2.9,.78c.45,3.52,1.03,7.28,3.18,10.21s5.93,4.15,9.55,3.62c3.82-.55,7.2-2.56,9.68-5.48,2.76-3.25,4.32-7.3,5.83-11.24l-2.9,.56c1.87,5.82,6.17,12.27,12.92,12.56,5.29,.23,12.19-3.87,11.08-9.92l-2.9,.78c.71,3.07,2.12,5.95,4.1,8.4,1.81,2.23,4.65,5.01,7.6,5.51,3.21,.55,5.54-1.72,6.78-4.41,1.59-3.44,2.79-7.09,3.78-10.75l-2.9,.56c.75,5.43,2.14,12.11,6.86,15.53,5.09,3.69,11.81,1.45,15.35-3.26,2.08-2.77,3.14-6.2,3.02-9.65l-2.9,.78c.46,4.28,.97,8.73,3.32,12.45,2.01,3.18,5.31,5.46,9.14,5.54,7.73,.16,12.68-7.19,15.82-13.28l-2.8,.34c.32,6.72,6.29,12.34,12.97,12.5s13.56-4.84,14.66-11.67l-2.9,.56c.2,6.29,5.46,11.92,11.82,12.15s12.78-4.6,12.9-11.09l-2.9,.56c2.03,5.57,6.76,11.26,13.23,11.07,5.29-.16,11.89-4.98,9.98-10.91-.34-1.04-3.22-.23-2.9,.78,1.4,4.32-2.86,9.1-7.33,8.37-5.03-.82-8.45-5.61-10.08-10.08-.34-.94-2.88-.37-2.9,.56-.09,5.01-4.7,9.88-9.94,8.94s-8.82-6.04-8.98-11.12c-.03-.99-2.76-.29-2.9,.56-.87,5.43-5.96,10.35-11.7,9.55s-9.87-6.01-10.13-11.5c-.05-1.03-2.52-.21-2.8,.34-1.45,2.81-3.08,5.61-5.23,7.95-1.93,2.1-4.44,4.04-7.46,3.69-3.29-.38-5.96-3.06-7.41-5.89-1.76-3.43-2.17-7.37-2.58-11.14-.11-1.02-2.93-.32-2.9,.78,.19,5.65-4.48,14.59-11.32,11.76-5.85-2.41-7.35-10.41-8.12-15.94-.15-1.09-2.69-.2-2.9,.56-.8,2.95-1.76,5.86-2.91,8.69-.48,1.19-.95,2.43-1.71,3.48-.29,.39-.69,.93-1.19,1.03-.63,.11-1.57-.55-2.09-.87-4.36-2.69-7.41-7.25-8.56-12.2-.24-1.04-3.1-.3-2.9,.78,.83,4.53-4.03,8.31-8.3,7.27-5.24-1.28-8.38-6.7-9.91-11.46-.36-1.12-2.61-.19-2.9,.56-2.24,5.84-5.36,13.95-12.58,14.76s-9.15-7.48-9.86-13c-.13-1.01-2.99-.33-2.9,.78,.38,4.43-4.72,8.68-8.84,6.16-4.52-2.76-4.42-9.31-3.66-13.87,.19-1.15-2.73-.67-2.9,.35h0Z"/>
        <path class="cls-33" d="M459.52,732.93c-5.04,30.71-1.07,61.98-5.76,92.68-.62,4.03,1.02,8.02,5.24,9.23,3.54,1.01,8.62-1.24,9.23-5.24,4.69-30.72,.73-62.04,5.76-92.68,1.55-9.44-12.9-13.51-14.46-3.99h0Z"/>
        <path class="cls-33" d="M511.53,744.46c1.64,29.88,4.08,59.89,2.25,89.82-.59,9.64,14.41,9.61,15,0,1.83-29.92-.61-59.94-2.25-89.82-.53-9.6-15.53-9.66-15,0h0Z"/>
        <path class="cls-35" d="M468.8,864.43c-3.88-18.85-.38-38.02,1.71-56.86,1.04-9.43,1.39-18.79,1.32-28.28-.04-4.92,.02-9.84,.38-14.76,.18-2.46,.42-4.93,.72-7.38,.14-1.12,.29-2.24,.45-3.35,.08-.56,.17-1.12,.25-1.67,.05-.32,.09-.64,.15-.95,.03-.13,.09-.93,0-.71h-.15c.17-.01,.33-.02,.5-.02,.42-.01,.83-.02,1.25-.02,.75-.01,1.5-.03,2.24-.04,1.33-.02,2.66-.05,3.99-.07,2.83-.05,5.65-.1,8.48-.15,5.65-.1,11.31-.21,16.96-.31l-.85-.29c.78,15.73,1.56,31.46,2.34,47.2,.77,15.53,1.76,31.07,2.11,46.62,.2,8.85,.12,17.71-.57,26.54l2.04-.91c-15.14,.47-30.28-.19-45.32-1.97-.62-.07-1.58,.11-2.05,.55-.39,.37-.42,.72,.21,.79,15.24,1.8,30.61,2.46,45.96,1.99,.39-.01,1.99-.29,2.04-.91,1.22-15.54,.58-31.12-.19-46.67-.77-15.73-1.56-31.46-2.34-47.19-.44-8.94-.89-17.89-1.33-26.83-.02-.31-.68-.29-.85-.29-10.47,.19-20.95,.38-31.42,.57-1.72,.03-4.46-.24-5.56,1.47-.53,.82-.52,2.07-.67,3.01-.19,1.28-.37,2.55-.53,3.83-.61,4.85-.98,9.74-1.11,14.62-.14,5.14,.01,10.29-.01,15.43s-.32,10.26-.8,15.38c-.93,9.9-2.43,19.74-3.32,29.64-.98,10.92-1.17,21.97,1.05,32.76,.16,.77,3.07,.07,2.9-.78h0Z"/>
      </g>
      <path class="cls-38" d="M592.3,905.63l-.11-11.58c-.01-1.27,1.01-2.31,2.28-2.33l31.37-.29c1.27-.01,2.31,1.01,2.33,2.28l.11,11.59c0,.98-.6,1.86-1.52,2.19-4.45,1.6-17.99,5.48-32.94,.29-.91-.31-1.5-1.18-1.51-2.14Z"/>
      <g>
        <path class="cls-41" d="M879.83,822.86l21.16-20.63-1.07-32.04-5.9-9.42-.95-77.2-2.82-4.07,2.54-3.83-1.69-20.1-2.46-3.62,3.36-3.74-1.11-11.32s-27.61-18.28-64.38,4.59l.35,14.13,4.8,1.41-3.71,3.28,7.02,92.03,8.02,2.22-11.22,17.28,2.3,35.51,22.14,15.55,23.63-.02Z"/>
        <path class="cls-45" d="M893.64,736.56s-7.63,6.71-13.68,3.27c-6.05-3.44-11.89-26-19.74-22-7.85,4-18.4,1.24-17.02-4.03s19.32-15.57,16.65-29.3-15.65-12.94-6.24-27.38c9.41-14.44,23.77-2.3,23.77-2.3,0,0,8.11,9.94,13.96,7.32l1.45,13.53-2.54,3.83,2.82,4.07,.57,52.99Z"/>
        <path class="cls-38" d="M853.21,835.6l-.02-10.73c0-1.18,.95-2.14,2.13-2.14l29.07-.05c1.18,0,2.14,.95,2.14,2.13l.02,10.74c0,.91-.57,1.72-1.43,2.02-4.14,1.45-16.71,4.95-30.53,.04-.84-.3-1.38-1.11-1.39-2Z"/>
        <path class="cls-15" d="M900.99,802.24s-45.99-9.32-66.93,5.1l-2.3-35.51s33.14-12.67,68.17-1.64l1.07,32.04Z"/>
      </g>
    </g>
    <g>
      <ellipse class="cls-12" cx="256.17" cy="819.83" rx="35.17" ry="10.1" transform="translate(-268.65 139.89) rotate(-20.31)"/>
      <path class="cls-12" d="M289.15,807.63l4.57,13.76c-32.41,28.11-65.2,21.86-65.2,21.86l-5.32-11.21"/>
      <path class="cls-12" d="M227.34,831.54s34.75,.39,59.35-21.86"/>
    </g>
    <g>
      <ellipse class="cls-12" cx="309.72" cy="826.46" rx="35.17" ry="10.1" transform="translate(-38.64 15.53) rotate(-2.7)"/>
      <path class="cls-12" d="M344.85,824.81l.19,14.5c-39.39,16.99-68.76,1.12-68.76,1.12l-1.68-12.3"/>
      <path class="cls-12" d="M278.71,828.9s33,10.88,63.18-2.89"/>
    </g>
    <path class="cls-10" d="M771.8,768.76l.1,67.37s25.12,15.27,58.18,.11l.12-67.39s-22.76-13.65-58.4-.09Z"/>
    <g>
      <ellipse class="cls-11" cx="800.07" cy="768.31" rx="35.17" ry="10.1" transform="translate(-35.35 38.6) rotate(-2.7)"/>
      <path class="cls-11" d="M835.19,766.65l.19,14.5c-39.39,16.99-68.76,1.12-68.76,1.12l-1.68-12.3"/>
      <path class="cls-12" d="M769.05,770.74s33,10.88,63.18-2.89"/>
    </g>
    <g>
      <ellipse class="cls-11" cx="917.68" cy="820.52" rx="10.1" ry="35.17" transform="translate(-312.22 872.7) rotate(-44.23)"/>
      <path class="cls-11" d="M942.21,845.72l-10.73,9.75c-38.84-18.23-46.42-50.74-46.42-50.74l8.09-9.41"/>
      <path class="cls-12" d="M895.29,798.91s13.73,31.92,44.05,45.38"/>
    </g>
    <path class="cls-33" d="M826.22,781.06l.1,67.37s25.12,15.27,58.18,.11l.12-67.39s-22.76-13.65-58.4-.09Z"/>
    <ellipse class="cls-36" cx="855.3" cy="784.58" rx="25.54" ry="5" transform="translate(-6.47 7.11) rotate(-.47)"/>
  </g>
  <g>
    <path class="cls-27" d="M714.69,632.11l.1,67.37s25.12,15.27,58.18,.11l.12-67.39s-22.76-13.65-58.4-.09Z"/>
    <ellipse class="cls-36" cx="743.78" cy="635.62" rx="25.54" ry="5" transform="translate(-5.24 6.18) rotate(-.47)"/>
    <path class="cls-28" d="M710.12,660.67s-7.03-2.19-4.43-7.89c2.6-5.7,10.51-2.35,10.51-2.35l6.55,3.56s4.41,6.49-1.93,8.08c0,0-4.58,1.32-10.7-1.42Z"/>
    <path class="cls-28" d="M717.29,674.06s-7.13-.97-6.14-6.25,9.24-3.42,9.24-3.42l7.44,2.5s5.48,2.66-.18,6.98c0,0-3.95,1.75-10.37,.18Z"/>
    <path class="cls-28" d="M715.96,685.28s-7.13-.97-6.14-6.25,9.24-3.42,9.24-3.42l7.44,2.5s5.48,2.66-.18,6.98c0,0-3.95,1.75-10.37,.18Z"/>
    <path class="cls-28" d="M1122.55,464.81s-12.05,61.91,22.97,71.5c0,0-7.58,90.67-91.34,93.29,0,0-68.94-12.06-31.06-92.98l11.52-4.78c.34-15.44-2.16-18.22-2.16-18.22l90.07-48.8"/>
    <path class="cls-14" d="M997.22,813.83s9.61-20.24,4.36-76.41c0,0-39.86-9.89-39.19-39.56l-16.59-18.91,8.97-70.04s5.04-43.15,37.75-58.48c0,0,22.22-8.13,34.18-14.58,0,0-8.61,18.58-3.96,35.99,0,0,7.1,45.09,42.91,44.58,0,0,66.43-2.08,65.85-88.1,0,0,25.46,6.41,53.68,27.46,87.91,65.56,54.91,159.02,54.91,159.02,0,0-17.94,7.29-53.53,8.59l16.78,91.06"/>
    <path class="cls-26" d="M1147.12,612.73s-62.17,51.08-142.37,3.88l-3.28,16.93s82.85,53.64,149.98-6.2l-4.33-14.6Z"/>
    <polyline class="cls-6" points="1006.05 623.32 1009.82 634.74 1017.7 628.47 1022.34 639.37 1031.61 633.91 1036.99 644.74 1044.3 638.03 1050.42 648.81 1058.28 639.7 1064.79 651.16 1071.31 640.85 1077.85 650.31 1083.81 640.89 1091.57 650.71 1097.52 639.3 1105.91 647.78 1109.55 635.49 1118.08 643.72 1124.33 630.21 1131.54 636.77 1136.62 624.13 1144.01 629.64 1147.03 617.34"/>
    <polyline class="cls-6" points="1004.43 631.69 1011.82 625.32 1015.87 638.02 1025.36 630.66 1031.27 643.33 1038.05 634.79 1044.66 646.93 1051.77 637.89 1058.38 650.04 1065.3 640.47 1071.87 650.34 1077.05 640.51 1083.91 651.23 1090.83 639.85 1099.11 649.51 1103.39 637.34 1112.25 645.6 1116.42 632.57 1125.28 640.3 1130.18 626.93 1138.39 633.94 1142.14 620.36 1149.04 626.6"/>
    <path class="cls-28" d="M993.08,363.18s-6.36,15.55-1.77,50.53c0,0,1.41,13.07-1.41,20.85,0,0-1.41,28.98,10.25,49.83,11.66,20.85,32.86,32.51,32.86,32.51,0,0,20.5,6.01,36.4-1.77,15.9-7.77,38.87-12.37,53.71-53.01,0,0,12.37,9.89,19.79-9.89,7.42-19.79,16.96-26.86,8.13-43.11-8.83-16.26-25.44,17.67-25.44,17.67,0,0,13.07-32.16,1.77-63.25-11.31-31.1-52.65-50.89-52.65-50.89,0,0-58.66-14.49-81.63,50.53Z"/>
    <path class="cls-43" d="M1054.5,398.07s22.13-5.02,41.43,1.72c0,0-9.39-12.16-41.96-7.03,0,0-5.41,3.3,.53,5.3Z"/>
    <path class="cls-43" d="M986.97,398.09c15.89-1.46,26.93,1.46,26.93,1.46,6.01-1.76,.74-5.28,.74-5.28-10.08-2-21.58-1.58-27.68-.96,0,0-.86,4.85,0,4.77Z"/>
    <path class="cls-31" d="M1060.78,469.83s-11.73-3.62-25.7,.35c0,0-12.08-2.42-22.94,0,0,0,1.21,19.49,19.49,23.81,18.29,4.31,29.5-12.77,29.15-24.15Z"/>
    <path class="cls-17" d="M1057.85,471.21s.17,17.25-22.25,17.25c-20.37,0-20.53-15.35-20.53-15.35,0,0,22.94,1.04,42.78-1.9Z"/>
    <path class="cls-14" d="M1055.07,471.45s-5.56,7.99-22.91,7.15c0,0-10.7,.54-15.19-5.15,0,0,22.37,.49,38.1-2Z"/>
    <path class="cls-2" d="M1026.69,436.13s-13.59,10.9,.59,17.84"/>
    <path class="cls-43" d="M1033.91,517.05s23.39,5.6,41.39-4.74c0,0,10.56-2.69,27.59-16.17,0,0-8.42,17.08-42.36,25,0,0-12.68,1.75-27.52,1.72,0,0,.67-3.43,.89-5.82Z"/>
    <path class="cls-2" d="M1148.24,429.27s-5.86-8.88-12.43,.18c-6.57,9.05-6.92,12.07-6.92,12.07,0,0,9.41-14.38,13.14-2.84"/>
    <g>
      <path class="cls-14" d="M1084.83,413.99s.03-.7-.47-1.31c-1.65-2-5.5-5.78-11.76-6.01-7.01-.26-11.11,6.18-12.52,8.48-.24,.4-.23,.75-.23,.75,0,0-.04,.39,.19,.67,1.07,1.34,4.66,5.1,11.29,5.45,3.95,.21,9.57-1.71,13.2-6.94,.25-.36,.29-.84,.29-1.09Z"/>
      <circle class="cls-43" cx="1070.33" cy="414.69" r="7.25"/>
      <circle class="cls-14" cx="1075.57" cy="417.13" r="1.99"/>
      <path class="cls-2" d="M1059.66,415.15s9.15-16.41,24.98-2.51"/>
    </g>
    <g>
      <path class="cls-14" d="M1018.06,417.53s.13-.65-.25-1.28c-1.25-2.1-4.29-6.16-10.07-7.27-6.48-1.25-11.22,4.16-12.85,6.09-.28,.33-.32,.67-.32,.67,0,0-.09,.36,.08,.65,.8,1.4,3.61,5.41,9.72,6.68,3.64,.76,9.15-.22,13.27-4.57,.29-.3,.39-.74,.42-.98Z"/>
      <circle class="cls-43" cx="1004.47" cy="416.09" r="6.8"/>
      <circle class="cls-14" cx="1008.94" cy="418.64" r="1.9"/>
      <path class="cls-2" d="M994.73,415.27s10.54-14.97,23.23,1.28"/>
    </g>
    <path class="cls-3" d="M998.32,636.62s-9.77,39.7-4.9,77.07"/>
    <path class="cls-7" d="M1169.35,765.36s20.91-4.18,31.14,15.34"/>
    <path class="cls-43" d="M1185.17,555.78l-55.19-25.05c-21.08-25.49-9.21-73.4-9.21-73.4,13.07,7.92,21-3.36,21-3.36,15.73-35.64,2.19-38,2.19-38-16.41-1.74-18.85,11.46-18.85,11.46-41.43-24.49-31.8-86.49-31.8-86.49-45.13,39.93-96.23,22.16-96.23,22.16-7.7,9.21-5.86,35.01-5.86,35.01,2.03,17.43,2.32,22.87,2.32,22.87-5.92,35.07,4.01,55.95,4.01,55.95,14.65,31.65,36.75,40.77,36.75,40.77,1.33,5.9,.34,14.13,.34,14.13-5.82,5.38-22.28,10.91-22.28,10.91-9.86,4.28-19.85,7.68-19.85,7.68-40.56-137.9,9.78-219.65,9.78-219.65,51.83-69.08,122-11.43,122-11.43,76.81,24.4,60.88,236.44,60.88,236.44"/>
    <path class="cls-13" d="M1138.37,416s9.35-55.59-30.63-86.58c-39.98-30.99-78.99-7.86-87.82-.24-23.01,19.85-22.83,33.93-22.83,33.93,0,0,10.68-21.43,34.36-29.94,0,0,45.19-14.05,74.12,16.04,28.93,30.09,19.54,78.23,19.54,78.23,0,0,1.76-8.91,13.26-11.43Z"/>
    <path class="cls-3" d="M1152.63,693.35s-5.68-80.52,9.45-94.53"/>
    <path class="cls-29" d="M1168.81,769.72s21.4-1.12,38.08,15.56"/>
    <path class="cls-28" d="M948.64,682.04l-16.57,27.27c-27.56-12.27-117.14-35.97-117.14-35.97l-8.12-4.22s-4.76-20.72-32.92-45.02c0,0-15.15-7.84-27.24,3.54,0,0-4.52,7.33,10.52,9.1,15.04,1.77,12.58-1.12,12.58-1.12l-4.01,24.28s2.18,9.54,8.44,12.64l-.35,25.43,7.32,.06,6.94,7.33s91.66,68.71,141.99,75.13c0,0,44.13-11.99,71.52-43.09,0,0-6.75-7.04-8.33-15.19,0,0-31.47-24.91-44.61-40.19Z"/>
    <g>
      <path class="cls-35" d="M865.54,740.24s70.82-49.45,134.32-86.7c0,0,8.55-1.53,3.05,5.49l-133.71,87.92-3.66-6.72Z"/>
      <polygon class="cls-26" points="865.54 740.24 840.05 761.05 841.5 763.23 869.21 746.96 865.54 740.24"/>
      <polygon class="cls-36" points="840.05 761.05 828.85 765.02 832.67 770.81 841.5 763.23 840.05 761.05"/>
      <path class="cls-22" d="M828.85,765.02l-6.93,1.84s-4.67,5.23,2.26,8.76l8.48-4.81-3.82-5.8Z"/>
    </g>
    <path class="cls-28" d="M1009.71,708.35l-16.85-8.02-23.5-27.09-33.76-1.08-19.35,16.55s-4.51,6.25,3.79,4.29,6.43-2.06,6.43-2.06l-3.06,12.55s-.1,9.11,9.89,3.73c0,0-.14,15.08,7.37,9.48l4.86,15.23s10.58,2,10.88-8.01l24.51,15.13s3.9,1.41,6.51-.72l3.64,2.38s123.4,87.06,198.7,74.78c75.3-12.28,0,0,0,0,0,0,30.52-40.04,48.26-99.86,0,0-34.91,16.01-78.17-11.76,0,0-13.35,25.1-15.49,42.19,0,0-102.16-31.08-134.66-37.7"/>
    <path class="cls-30" d="M923.4,703.47s-.1,9.11,9.89,3.73c0,0-.14,15.08,7.37,9.48l4.86,15.23s10.58,2,10.88-8.01l24.51,15.13s3.9,1.41,6.51-.72l7.75,4.99"/>
    <path class="cls-30" d="M926.46,690.94s.86-11.14,9.13-11.54,18.78-.94,18.78-.94"/>
    <path class="cls-30" d="M933.29,707.23s-3.54-18.4,19.39-15.28"/>
    <path class="cls-30" d="M940.66,716.71s.28-15.68,19.53-5.81"/>
  </g>
</svg>