<svg xmlns="http://www.w3.org/2000/svg" xmlns:xlink="http://www.w3.org/1999/xlink" width="1200" zoomAndPan="magnify" viewBox="0 0 900 675.000002" height="900" preserveAspectRatio="xMidYMid meet" version="1.0"><defs><clipPath id="bd1b85569c"><path d="M 0.664062 0 L 899.332031 0 L 899.332031 674 L 0.664062 674 Z M 0.664062 0 " clip-rule="nonzero"/></clipPath><clipPath id="26120efa5c"><path d="M 0.867188 0 L 899.332031 0 L 899.332031 581 L 0.867188 581 Z M 0.867188 0 " clip-rule="nonzero"/></clipPath><clipPath id="79601414eb"><path d="M 0.867188 506 L 899.332031 506 L 899.332031 673.691406 L 0.867188 673.691406 Z M 0.867188 506 " clip-rule="nonzero"/></clipPath><clipPath id="294d8120d9"><path d="M 0.867188 54 L 52 54 L 52 505 L 0.867188 505 Z M 0.867188 54 " clip-rule="nonzero"/></clipPath><clipPath id="5524045ae2"><path d="M 402 236 L 899.332031 236 L 899.332031 493 L 402 493 Z M 402 236 " clip-rule="nonzero"/></clipPath><clipPath id="02fd0dfd87"><path d="M 581 121 L 611 121 L 611 167 L 581 167 Z M 581 121 " clip-rule="nonzero"/></clipPath><clipPath id="d5ff2b0dab"><path d="M 601.277344 121.519531 C 601.277344 121.519531 614.519531 129.359375 608.921875 164.175781 C 608.921875 164.175781 604.132812 156.152344 595.777344 166.546875 L 591.339844 159.808594 C 591.339844 159.808594 595.683594 142.890625 581.230469 129.949219 L 601.277344 121.527344 Z M 601.277344 121.519531 " clip-rule="nonzero"/></clipPath><linearGradient x1="895.72998" gradientTransform="matrix(-0.673936, 0.0435741, 0.0435814, 0.673822, 1171.137341, -338.60735)" y1="693.373145" x2="895.72998" gradientUnits="userSpaceOnUse" y2="623.65135" id="5ad2188de5"><stop stop-opacity="1" stop-color="rgb(74.508667%, 61.959839%, 49.01886%)" offset="0"/><stop stop-opacity="1" stop-color="rgb(74.508667%, 61.959839%, 49.01886%)" offset="0.015625"/><stop stop-opacity="1" stop-color="rgb(74.508667%, 61.959839%, 49.01886%)" offset="0.0234375"/><stop stop-opacity="1" stop-color="rgb(74.241638%, 61.740112%, 48.858643%)" offset="0.0273438"/><stop stop-opacity="1" stop-color="rgb(73.976135%, 61.521912%, 48.698425%)" offset="0.03125"/><stop stop-opacity="1" stop-color="rgb(73.617554%, 61.227417%, 48.483276%)" offset="0.0351562"/><stop stop-opacity="1" stop-color="rgb(73.258972%, 60.934448%, 48.269653%)" offset="0.0390625"/><stop stop-opacity="1" stop-color="rgb(72.900391%, 60.641479%, 48.054504%)" offset="0.0429688"/><stop stop-opacity="1" stop-color="rgb(72.543335%, 60.348511%, 47.839355%)" offset="0.046875"/><stop stop-opacity="1" stop-color="rgb(72.184753%, 60.054016%, 47.624207%)" offset="0.0507812"/><stop stop-opacity="1" stop-color="rgb(71.826172%, 59.761047%, 47.409058%)" offset="0.0546875"/><stop stop-opacity="1" stop-color="rgb(71.46759%, 59.466553%, 47.193909%)" offset="0.0585938"/><stop stop-opacity="1" stop-color="rgb(71.109009%, 59.173584%, 46.97876%)" offset="0.0625"/><stop stop-opacity="1" stop-color="rgb(70.750427%, 58.879089%, 46.763611%)" offset="0.0664062"/><stop stop-opacity="1" stop-color="rgb(70.393372%, 58.586121%, 46.549988%)" offset="0.0703125"/><stop stop-opacity="1" stop-color="rgb(70.03479%, 58.293152%, 46.334839%)" offset="0.0742188"/><stop stop-opacity="1" stop-color="rgb(69.676208%, 58.000183%, 46.11969%)" offset="0.078125"/><stop stop-opacity="1" stop-color="rgb(69.317627%, 57.705688%, 45.904541%)" offset="0.0820312"/><stop stop-opacity="1" stop-color="rgb(68.960571%, 57.41272%, 45.689392%)" offset="0.0859375"/><stop stop-opacity="1" stop-color="rgb(68.60199%, 57.118225%, 45.474243%)" offset="0.0898438"/><stop stop-opacity="1" stop-color="rgb(68.243408%, 56.825256%, 45.259094%)" offset="0.09375"/><stop stop-opacity="1" stop-color="rgb(67.884827%, 56.530762%, 45.043945%)" offset="0.0976562"/><stop stop-opacity="1" stop-color="rgb(67.527771%, 56.237793%, 44.830322%)" offset="0.101562"/><stop stop-opacity="1" stop-color="rgb(67.169189%, 55.944824%, 44.615173%)" offset="0.105469"/><stop stop-opacity="1" stop-color="rgb(66.810608%, 55.651855%, 44.400024%)" offset="0.109375"/><stop stop-opacity="1" stop-color="rgb(66.452026%, 55.357361%, 44.184875%)" offset="0.113281"/><stop stop-opacity="1" stop-color="rgb(66.094971%, 55.064392%, 43.969727%)" offset="0.117188"/><stop stop-opacity="1" stop-color="rgb(65.736389%, 54.769897%, 43.754578%)" offset="0.121094"/><stop stop-opacity="1" stop-color="rgb(65.377808%, 54.476929%, 43.539429%)" offset="0.125"/><stop stop-opacity="1" stop-color="rgb(65.019226%, 54.18396%, 43.32428%)" offset="0.128906"/><stop stop-opacity="1" stop-color="rgb(64.660645%, 53.890991%, 43.110657%)" offset="0.132812"/><stop stop-opacity="1" stop-color="rgb(64.302063%, 53.596497%, 42.895508%)" offset="0.136719"/><stop stop-opacity="1" stop-color="rgb(63.945007%, 53.303528%, 42.680359%)" offset="0.140625"/><stop stop-opacity="1" stop-color="rgb(63.586426%, 53.009033%, 42.46521%)" offset="0.144531"/><stop stop-opacity="1" stop-color="rgb(63.227844%, 52.716064%, 42.250061%)" offset="0.148438"/><stop stop-opacity="1" stop-color="rgb(62.869263%, 52.42157%, 42.034912%)" offset="0.152344"/><stop stop-opacity="1" stop-color="rgb(62.512207%, 52.128601%, 41.819763%)" offset="0.15625"/><stop stop-opacity="1" stop-color="rgb(62.153625%, 51.835632%, 41.604614%)" offset="0.160156"/><stop stop-opacity="1" stop-color="rgb(61.795044%, 51.542664%, 41.390991%)" offset="0.164062"/><stop stop-opacity="1" stop-color="rgb(61.436462%, 51.248169%, 41.175842%)" offset="0.167969"/><stop stop-opacity="1" stop-color="rgb(61.079407%, 50.9552%, 40.960693%)" offset="0.171875"/><stop stop-opacity="1" stop-color="rgb(60.720825%, 50.660706%, 40.745544%)" offset="0.175781"/><stop stop-opacity="1" stop-color="rgb(60.362244%, 50.367737%, 40.530396%)" offset="0.179687"/><stop stop-opacity="1" stop-color="rgb(60.003662%, 50.073242%, 40.315247%)" offset="0.183594"/><stop stop-opacity="1" stop-color="rgb(59.645081%, 49.780273%, 40.100098%)" offset="0.1875"/><stop stop-opacity="1" stop-color="rgb(59.286499%, 49.487305%, 39.884949%)" offset="0.191406"/><stop stop-opacity="1" stop-color="rgb(58.929443%, 49.194336%, 39.671326%)" offset="0.195312"/><stop stop-opacity="1" stop-color="rgb(58.570862%, 48.899841%, 39.456177%)" offset="0.199219"/><stop stop-opacity="1" stop-color="rgb(58.21228%, 48.606873%, 39.241028%)" offset="0.203125"/><stop stop-opacity="1" stop-color="rgb(57.853699%, 48.312378%, 39.025879%)" offset="0.207031"/><stop stop-opacity="1" stop-color="rgb(57.496643%, 48.019409%, 38.81073%)" offset="0.210937"/><stop stop-opacity="1" stop-color="rgb(57.138062%, 47.724915%, 38.595581%)" offset="0.214844"/><stop stop-opacity="1" stop-color="rgb(56.77948%, 47.431946%, 38.380432%)" offset="0.21875"/><stop stop-opacity="1" stop-color="rgb(56.420898%, 47.138977%, 38.165283%)" offset="0.222656"/><stop stop-opacity="1" stop-color="rgb(56.063843%, 46.846008%, 37.95166%)" offset="0.226562"/><stop stop-opacity="1" stop-color="rgb(55.705261%, 46.551514%, 37.736511%)" offset="0.230469"/><stop stop-opacity="1" stop-color="rgb(55.34668%, 46.258545%, 37.521362%)" offset="0.234375"/><stop stop-opacity="1" stop-color="rgb(54.988098%, 45.96405%, 37.306213%)" offset="0.238281"/><stop stop-opacity="1" stop-color="rgb(54.631042%, 45.671082%, 37.091064%)" offset="0.242187"/><stop stop-opacity="1" stop-color="rgb(54.272461%, 45.378113%, 36.875916%)" offset="0.246094"/><stop stop-opacity="1" stop-color="rgb(53.913879%, 45.085144%, 36.660767%)" offset="0.25"/><stop stop-opacity="1" stop-color="rgb(53.555298%, 44.790649%, 36.445618%)" offset="0.253906"/><stop stop-opacity="1" stop-color="rgb(53.196716%, 44.497681%, 36.231995%)" offset="0.257812"/><stop stop-opacity="1" stop-color="rgb(52.838135%, 44.203186%, 36.016846%)" offset="0.261719"/><stop stop-opacity="1" stop-color="rgb(52.481079%, 43.910217%, 35.801697%)" offset="0.265625"/><stop stop-opacity="1" stop-color="rgb(52.122498%, 43.615723%, 35.586548%)" offset="0.269531"/><stop stop-opacity="1" stop-color="rgb(51.763916%, 43.322754%, 35.371399%)" offset="0.273437"/><stop stop-opacity="1" stop-color="rgb(51.405334%, 43.029785%, 35.15625%)" offset="0.277344"/><stop stop-opacity="1" stop-color="rgb(51.048279%, 42.736816%, 34.941101%)" offset="0.28125"/><stop stop-opacity="1" stop-color="rgb(50.689697%, 42.442322%, 34.725952%)" offset="0.285156"/><stop stop-opacity="1" stop-color="rgb(50.331116%, 42.149353%, 34.512329%)" offset="0.289062"/><stop stop-opacity="1" stop-color="rgb(49.972534%, 41.854858%, 34.29718%)" offset="0.292969"/><stop stop-opacity="1" stop-color="rgb(49.615479%, 41.56189%, 34.082031%)" offset="0.296875"/><stop stop-opacity="1" stop-color="rgb(49.256897%, 41.267395%, 33.866882%)" offset="0.300781"/><stop stop-opacity="1" stop-color="rgb(48.898315%, 40.974426%, 33.651733%)" offset="0.304687"/><stop stop-opacity="1" stop-color="rgb(48.539734%, 40.681458%, 33.436584%)" offset="0.308594"/><stop stop-opacity="1" stop-color="rgb(48.182678%, 40.388489%, 33.221436%)" offset="0.3125"/><stop stop-opacity="1" stop-color="rgb(47.824097%, 40.093994%, 33.006287%)" offset="0.316406"/><stop stop-opacity="1" stop-color="rgb(47.465515%, 39.801025%, 32.792664%)" offset="0.320312"/><stop stop-opacity="1" stop-color="rgb(47.106934%, 39.506531%, 32.577515%)" offset="0.324219"/><stop stop-opacity="1" stop-color="rgb(46.748352%, 39.213562%, 32.362366%)" offset="0.328125"/><stop stop-opacity="1" stop-color="rgb(46.389771%, 38.919067%, 32.147217%)" offset="0.332031"/><stop stop-opacity="1" stop-color="rgb(46.032715%, 38.626099%, 31.932068%)" offset="0.335937"/><stop stop-opacity="1" stop-color="rgb(45.674133%, 38.33313%, 31.716919%)" offset="0.339844"/><stop stop-opacity="1" stop-color="rgb(45.315552%, 38.040161%, 31.50177%)" offset="0.34375"/><stop stop-opacity="1" stop-color="rgb(44.95697%, 37.745667%, 31.286621%)" offset="0.347656"/><stop stop-opacity="1" stop-color="rgb(44.599915%, 37.452698%, 31.072998%)" offset="0.351562"/><stop stop-opacity="1" stop-color="rgb(44.241333%, 37.158203%, 30.857849%)" offset="0.355469"/><stop stop-opacity="1" stop-color="rgb(43.882751%, 36.865234%, 30.6427%)" offset="0.359375"/><stop stop-opacity="1" stop-color="rgb(43.52417%, 36.572266%, 30.427551%)" offset="0.363281"/><stop stop-opacity="1" stop-color="rgb(43.167114%, 36.279297%, 30.212402%)" offset="0.367187"/><stop stop-opacity="1" stop-color="rgb(42.808533%, 35.984802%, 29.997253%)" offset="0.371094"/><stop stop-opacity="1" stop-color="rgb(42.449951%, 35.691833%, 29.782104%)" offset="0.375"/><stop stop-opacity="1" stop-color="rgb(42.09137%, 35.397339%, 29.566956%)" offset="0.378906"/><stop stop-opacity="1" stop-color="rgb(41.732788%, 35.10437%, 29.353333%)" offset="0.382812"/><stop stop-opacity="1" stop-color="rgb(41.374207%, 34.809875%, 29.138184%)" offset="0.386719"/><stop stop-opacity="1" stop-color="rgb(41.017151%, 34.516907%, 28.923035%)" offset="0.390625"/><stop stop-opacity="1" stop-color="rgb(40.658569%, 34.223938%, 28.707886%)" offset="0.394531"/><stop stop-opacity="1" stop-color="rgb(40.299988%, 33.930969%, 28.492737%)" offset="0.398437"/><stop stop-opacity="1" stop-color="rgb(39.941406%, 33.636475%, 28.277588%)" offset="0.402344"/><stop stop-opacity="1" stop-color="rgb(39.584351%, 33.343506%, 28.062439%)" offset="0.40625"/><stop stop-opacity="1" stop-color="rgb(39.225769%, 33.049011%, 27.84729%)" offset="0.410156"/><stop stop-opacity="1" stop-color="rgb(38.867188%, 32.756042%, 27.633667%)" offset="0.414062"/><stop stop-opacity="1" stop-color="rgb(38.508606%, 32.461548%, 27.418518%)" offset="0.417969"/><stop stop-opacity="1" stop-color="rgb(38.15155%, 32.168579%, 27.203369%)" offset="0.421875"/><stop stop-opacity="1" stop-color="rgb(37.792969%, 31.87561%, 26.98822%)" offset="0.425781"/><stop stop-opacity="1" stop-color="rgb(37.434387%, 31.582642%, 26.773071%)" offset="0.429687"/><stop stop-opacity="1" stop-color="rgb(37.075806%, 31.288147%, 26.557922%)" offset="0.433594"/><stop stop-opacity="1" stop-color="rgb(36.71875%, 30.995178%, 26.342773%)" offset="0.4375"/><stop stop-opacity="1" stop-color="rgb(36.360168%, 30.700684%, 26.127625%)" offset="0.441406"/><stop stop-opacity="1" stop-color="rgb(36.001587%, 30.407715%, 25.914001%)" offset="0.445312"/><stop stop-opacity="1" stop-color="rgb(35.643005%, 30.11322%, 25.698853%)" offset="0.449219"/><stop stop-opacity="1" stop-color="rgb(35.284424%, 29.820251%, 25.483704%)" offset="0.453125"/><stop stop-opacity="1" stop-color="rgb(34.925842%, 29.527283%, 25.268555%)" offset="0.457031"/><stop stop-opacity="1" stop-color="rgb(34.568787%, 29.234314%, 25.053406%)" offset="0.460937"/><stop stop-opacity="1" stop-color="rgb(34.210205%, 28.939819%, 24.838257%)" offset="0.464844"/><stop stop-opacity="1" stop-color="rgb(33.851624%, 28.646851%, 24.623108%)" offset="0.46875"/><stop stop-opacity="1" stop-color="rgb(33.493042%, 28.352356%, 24.407959%)" offset="0.472656"/><stop stop-opacity="1" stop-color="rgb(33.135986%, 28.059387%, 24.194336%)" offset="0.476562"/><stop stop-opacity="1" stop-color="rgb(32.777405%, 27.766418%, 23.979187%)" offset="0.480469"/><stop stop-opacity="1" stop-color="rgb(32.418823%, 27.47345%, 23.764038%)" offset="0.484375"/><stop stop-opacity="1" stop-color="rgb(32.060242%, 27.178955%, 23.548889%)" offset="0.488281"/><stop stop-opacity="1" stop-color="rgb(31.703186%, 26.885986%, 23.33374%)" offset="0.492187"/><stop stop-opacity="1" stop-color="rgb(31.344604%, 26.591492%, 23.118591%)" offset="0.496094"/><stop stop-opacity="1" stop-color="rgb(30.986023%, 26.298523%, 22.903442%)" offset="0.5"/><stop stop-opacity="1" stop-color="rgb(30.627441%, 26.004028%, 22.688293%)" offset="0.503906"/><stop stop-opacity="1" stop-color="rgb(30.26886%, 25.71106%, 22.47467%)" offset="0.507812"/><stop stop-opacity="1" stop-color="rgb(29.910278%, 25.418091%, 22.259521%)" offset="0.511719"/><stop stop-opacity="1" stop-color="rgb(29.553223%, 25.125122%, 22.044373%)" offset="0.515625"/><stop stop-opacity="1" stop-color="rgb(29.194641%, 24.830627%, 21.829224%)" offset="0.519531"/><stop stop-opacity="1" stop-color="rgb(28.83606%, 24.537659%, 21.614075%)" offset="0.523438"/><stop stop-opacity="1" stop-color="rgb(28.477478%, 24.243164%, 21.398926%)" offset="0.527344"/><stop stop-opacity="1" stop-color="rgb(28.120422%, 23.950195%, 21.183777%)" offset="0.53125"/><stop stop-opacity="1" stop-color="rgb(27.761841%, 23.655701%, 20.968628%)" offset="0.535156"/><stop stop-opacity="1" stop-color="rgb(27.403259%, 23.362732%, 20.755005%)" offset="0.539062"/><stop stop-opacity="1" stop-color="rgb(27.044678%, 23.069763%, 20.539856%)" offset="0.542969"/><stop stop-opacity="1" stop-color="rgb(26.687622%, 22.776794%, 20.324707%)" offset="0.546875"/><stop stop-opacity="1" stop-color="rgb(26.329041%, 22.4823%, 20.109558%)" offset="0.550781"/><stop stop-opacity="1" stop-color="rgb(25.970459%, 22.189331%, 19.894409%)" offset="0.554688"/><stop stop-opacity="1" stop-color="rgb(25.611877%, 21.894836%, 19.67926%)" offset="0.558594"/><stop stop-opacity="1" stop-color="rgb(25.254822%, 21.601868%, 19.464111%)" offset="0.5625"/><stop stop-opacity="1" stop-color="rgb(24.89624%, 21.307373%, 19.248962%)" offset="0.566406"/><stop stop-opacity="1" stop-color="rgb(24.537659%, 21.014404%, 19.035339%)" offset="0.570313"/><stop stop-opacity="1" stop-color="rgb(24.179077%, 20.721436%, 18.82019%)" offset="0.574219"/><stop stop-opacity="1" stop-color="rgb(23.820496%, 20.428467%, 18.605042%)" offset="0.578125"/><stop stop-opacity="1" stop-color="rgb(23.461914%, 20.133972%, 18.389893%)" offset="0.582031"/><stop stop-opacity="1" stop-color="rgb(23.104858%, 19.841003%, 18.174744%)" offset="0.585937"/><stop stop-opacity="1" stop-color="rgb(22.746277%, 19.546509%, 17.959595%)" offset="0.589844"/><stop stop-opacity="1" stop-color="rgb(22.387695%, 19.25354%, 17.744446%)" offset="0.59375"/><stop stop-opacity="1" stop-color="rgb(22.029114%, 18.960571%, 17.529297%)" offset="0.597656"/><stop stop-opacity="1" stop-color="rgb(21.672058%, 18.667603%, 17.315674%)" offset="0.601562"/><stop stop-opacity="1" stop-color="rgb(21.313477%, 18.373108%, 17.100525%)" offset="0.605469"/><stop stop-opacity="1" stop-color="rgb(20.954895%, 18.080139%, 16.885376%)" offset="0.609375"/><stop stop-opacity="1" stop-color="rgb(20.596313%, 17.785645%, 16.670227%)" offset="0.613281"/><stop stop-opacity="1" stop-color="rgb(20.239258%, 17.492676%, 16.455078%)" offset="0.617188"/><stop stop-opacity="1" stop-color="rgb(19.880676%, 17.198181%, 16.239929%)" offset="0.621094"/><stop stop-opacity="1" stop-color="rgb(19.522095%, 16.905212%, 16.02478%)" offset="0.625"/><stop stop-opacity="1" stop-color="rgb(19.163513%, 16.612244%, 15.809631%)" offset="0.628906"/><stop stop-opacity="1" stop-color="rgb(18.806458%, 16.319275%, 15.596008%)" offset="0.632812"/><stop stop-opacity="1" stop-color="rgb(18.447876%, 16.02478%, 15.380859%)" offset="0.636719"/><stop stop-opacity="1" stop-color="rgb(18.089294%, 15.731812%, 15.16571%)" offset="0.640625"/><stop stop-opacity="1" stop-color="rgb(17.730713%, 15.437317%, 14.950562%)" offset="0.644531"/><stop stop-opacity="1" stop-color="rgb(17.372131%, 15.144348%, 14.735413%)" offset="0.648438"/><stop stop-opacity="1" stop-color="rgb(17.01355%, 14.849854%, 14.520264%)" offset="0.652344"/><stop stop-opacity="1" stop-color="rgb(16.656494%, 14.556885%, 14.305115%)" offset="0.65625"/><stop stop-opacity="1" stop-color="rgb(16.297913%, 14.263916%, 14.089966%)" offset="0.660156"/><stop stop-opacity="1" stop-color="rgb(15.939331%, 13.970947%, 13.876343%)" offset="0.664063"/><stop stop-opacity="1" stop-color="rgb(15.58075%, 13.676453%, 13.661194%)" offset="0.667969"/><stop stop-opacity="1" stop-color="rgb(15.223694%, 13.383484%, 13.446045%)" offset="0.671875"/><stop stop-opacity="1" stop-color="rgb(14.865112%, 13.088989%, 13.230896%)" offset="0.675781"/><stop stop-opacity="1" stop-color="rgb(14.506531%, 12.796021%, 13.015747%)" offset="0.679687"/><stop stop-opacity="1" stop-color="rgb(14.147949%, 12.501526%, 12.800598%)" offset="0.683594"/><stop stop-opacity="1" stop-color="rgb(13.790894%, 12.208557%, 12.585449%)" offset="0.6875"/><stop stop-opacity="1" stop-color="rgb(13.760376%, 12.184143%, 12.567139%)" offset="0.75"/><stop stop-opacity="1" stop-color="rgb(13.729858%, 12.159729%, 12.548828%)" offset="1"/></linearGradient></defs><g clip-path="url(#bd1b85569c)"><path fill="#ffffff" d="M 0.664062 0 L 899.335938 0 L 899.335938 674 L 0.664062 674 Z M 0.664062 0 " fill-opacity="1" fill-rule="nonzero"/><path fill="#ffffff" d="M 0.664062 0 L 899.335938 0 L 899.335938 674 L 0.664062 674 Z M 0.664062 0 " fill-opacity="1" fill-rule="nonzero"/></g><g clip-path="url(#26120efa5c)"><path fill="#f7d9a4" d="M 0.664062 -298.222656 L 1297.621094 -298.222656 L 1297.621094 580.320312 L 0.664062 580.320312 Z M 0.664062 -298.222656 " fill-opacity="1" fill-rule="nonzero"/></g><g clip-path="url(#79601414eb)"><path fill="#e6e7e8" d="M 0.664062 506.132812 L 1297.742188 506.132812 L 1297.742188 673.980469 L 0.664062 673.980469 Z M 0.664062 506.132812 " fill-opacity="1" fill-rule="nonzero"/></g><path fill="#87664d" d="M 823.6875 421.082031 L 2.433594 421.082031 L 2.433594 370.410156 L 823.6875 370.410156 Z M 823.6875 421.082031 " fill-opacity="1" fill-rule="nonzero"/><g clip-path="url(#294d8120d9)"><path fill="#87664d" d="M 51.503906 504.597656 L 0.707031 504.597656 L 0.707031 54.375 L 51.503906 54.375 Z M 51.503906 504.597656 " fill-opacity="1" fill-rule="nonzero"/></g><path fill="#d1d3d4" d="M 832.136719 370.734375 L 27.511719 370.734375 C 27.125 370.734375 26.742188 370.699219 26.367188 370.621094 C 25.988281 370.546875 25.621094 370.4375 25.265625 370.289062 C 24.910156 370.140625 24.570312 369.960938 24.25 369.746094 C 23.929688 369.53125 23.632812 369.289062 23.359375 369.015625 C 23.089844 368.746094 22.84375 368.449219 22.632812 368.128906 C 22.417969 367.808594 22.234375 367.46875 22.089844 367.113281 C 21.941406 366.757812 21.828125 366.390625 21.753906 366.011719 C 21.679688 365.632812 21.640625 365.253906 21.640625 364.867188 L 21.640625 306.914062 C 21.640625 306.527344 21.679688 306.144531 21.753906 305.769531 C 21.828125 305.390625 21.941406 305.023438 22.089844 304.667969 C 22.234375 304.3125 22.417969 303.972656 22.632812 303.652344 C 22.84375 303.332031 23.089844 303.035156 23.359375 302.761719 C 23.632812 302.492188 23.929688 302.246094 24.25 302.035156 C 24.570312 301.820312 24.910156 301.640625 25.265625 301.492188 C 25.621094 301.34375 25.988281 301.234375 26.367188 301.15625 C 26.742188 301.082031 27.125 301.042969 27.511719 301.042969 L 832.136719 301.042969 C 832.519531 301.042969 832.902344 301.082031 833.28125 301.15625 C 833.65625 301.234375 834.023438 301.34375 834.382812 301.492188 C 834.738281 301.640625 835.074219 301.820312 835.394531 302.035156 C 835.714844 302.246094 836.011719 302.492188 836.285156 302.761719 C 836.558594 303.035156 836.800781 303.332031 837.015625 303.652344 C 837.230469 303.972656 837.410156 304.3125 837.558594 304.667969 C 837.703125 305.023438 837.816406 305.390625 837.890625 305.769531 C 837.964844 306.144531 838.003906 306.527344 838.003906 306.914062 L 838.003906 364.867188 C 838.003906 365.253906 837.964844 365.632812 837.890625 366.011719 C 837.816406 366.390625 837.703125 366.757812 837.558594 367.113281 C 837.410156 367.46875 837.230469 367.808594 837.015625 368.128906 C 836.800781 368.449219 836.558594 368.746094 836.285156 369.015625 C 836.011719 369.289062 835.714844 369.53125 835.394531 369.746094 C 835.074219 369.960938 834.738281 370.140625 834.382812 370.289062 C 834.023438 370.4375 833.65625 370.546875 833.28125 370.621094 C 832.902344 370.699219 832.519531 370.734375 832.136719 370.734375 Z M 832.136719 370.734375 " fill-opacity="1" fill-rule="nonzero"/><path fill="#ffffff" d="M 50.78125 300.964844 C 50.78125 300.964844 41.042969 222.246094 127.894531 225.488281 C 148.734375 226.261719 166.394531 228.261719 182.851562 235.027344 C 234.976562 256.453125 270.257812 300.875 270.257812 300.875 L 50.777344 300.964844 Z M 50.78125 300.964844 " fill-opacity="1" fill-rule="nonzero"/><g clip-path="url(#5524045ae2)"><path fill="#d0bada" d="M 452.847656 471.269531 C 593.265625 428.183594 798.5625 477.078125 798.5625 477.078125 C 963.691406 504.34375 955.4375 486.273438 955.4375 486.273438 C 955.4375 486.273438 950.597656 352.660156 953.023438 325.0625 C 955.4375 297.464844 947.691406 282.941406 947.691406 282.941406 C 947.691406 282.941406 914.769531 259.707031 899.269531 249.050781 C 883.777344 238.402344 871.917969 240.671875 871.917969 240.671875 C 871.917969 240.671875 854.246094 250.015625 691.554688 239.371094 C 528.867188 228.722656 402.007812 251.957031 402.007812 251.957031 C 402.007812 251.957031 409.027344 388.117188 455.144531 478.339844 " fill-opacity="1" fill-rule="nonzero"/></g><path fill="#b183bb" d="M 302.078125 264.015625 C 302.078125 264.015625 339.230469 249.546875 401.285156 243.90625 C 401.285156 243.90625 405.988281 359.910156 455.144531 478.351562 C 455.144531 478.351562 399.535156 476.738281 367.304688 487.21875 C 367.304688 487.21875 306.96875 405.023438 302.078125 264.023438 Z M 302.078125 264.015625 " fill-opacity="1" fill-rule="nonzero"/><path fill="#dbaa89" d="M 896.507812 591.023438 C 896.507812 592.277344 896.347656 593.53125 896.023438 594.789062 C 895.695312 596.042969 895.210938 597.292969 894.5625 598.542969 C 893.914062 599.792969 893.101562 601.039062 892.132812 602.28125 C 891.160156 603.523438 890.03125 604.761719 888.738281 605.992188 C 887.449219 607.222656 886 608.449219 884.390625 609.667969 C 882.78125 610.886719 881.019531 612.09375 879.097656 613.296875 C 877.175781 614.5 875.101562 615.691406 872.871094 616.871094 C 870.640625 618.054688 868.261719 619.226562 865.726562 620.386719 C 863.195312 621.546875 860.515625 622.695312 857.683594 623.828125 C 854.855469 624.964844 851.878906 626.085938 848.761719 627.195312 C 845.640625 628.300781 842.378906 629.394531 838.976562 630.472656 C 835.574219 631.546875 832.035156 632.609375 828.359375 633.652344 C 824.683594 634.695312 820.871094 635.722656 816.929688 636.730469 C 812.988281 637.742188 808.917969 638.730469 804.71875 639.699219 C 800.519531 640.671875 796.199219 641.621094 791.753906 642.554688 C 787.3125 643.484375 782.75 644.394531 778.070312 645.28125 C 773.390625 646.167969 768.597656 647.035156 763.695312 647.878906 C 758.792969 648.722656 753.78125 649.539062 748.667969 650.335938 C 743.550781 651.132812 738.335938 651.90625 733.019531 652.65625 C 727.703125 653.402344 722.292969 654.125 716.792969 654.824219 C 711.289062 655.519531 705.699219 656.191406 700.023438 656.839844 C 694.347656 657.484375 688.589844 658.101562 682.753906 658.695312 C 676.917969 659.285156 671.007812 659.851562 665.027344 660.386719 C 659.042969 660.925781 652.996094 661.433594 646.882812 661.914062 C 640.765625 662.394531 634.59375 662.847656 628.363281 663.269531 C 622.132812 663.691406 615.851562 664.085938 609.515625 664.449219 C 603.183594 664.816406 596.808594 665.152344 590.386719 665.457031 C 583.96875 665.761719 577.515625 666.035156 571.023438 666.28125 C 564.53125 666.527344 558.015625 666.742188 551.46875 666.925781 C 544.921875 667.109375 538.355469 667.261719 531.769531 667.386719 C 525.183594 667.507812 518.585938 667.601562 511.976562 667.664062 C 505.363281 667.722656 498.75 667.753906 492.132812 667.753906 C 485.515625 667.753906 478.902344 667.722656 472.292969 667.664062 C 465.683594 667.601562 459.082031 667.507812 452.496094 667.386719 C 445.910156 667.261719 439.34375 667.109375 432.800781 666.925781 C 426.253906 666.742188 419.734375 666.527344 413.242188 666.28125 C 406.753906 666.035156 400.296875 665.761719 393.878906 665.457031 C 387.457031 665.152344 381.082031 664.816406 374.75 664.449219 C 368.417969 664.085938 362.132812 663.691406 355.902344 663.269531 C 349.671875 662.847656 343.5 662.394531 337.386719 661.914062 C 331.269531 661.433594 325.222656 660.925781 319.242188 660.386719 C 313.257812 659.851562 307.347656 659.285156 301.511719 658.695312 C 295.675781 658.101562 289.917969 657.484375 284.242188 656.839844 C 278.566406 656.191406 272.976562 655.519531 267.472656 654.824219 C 261.972656 654.125 256.5625 653.402344 251.246094 652.65625 C 245.933594 651.90625 240.714844 651.132812 235.601562 650.335938 C 230.484375 649.539062 225.476562 648.722656 220.570312 647.878906 C 215.667969 647.035156 210.875 646.167969 206.195312 645.28125 C 201.515625 644.394531 196.957031 643.484375 192.511719 642.554688 C 188.066406 641.621094 183.746094 640.671875 179.546875 639.699219 C 175.347656 638.730469 171.277344 637.742188 167.335938 636.730469 C 163.394531 635.722656 159.585938 634.695312 155.90625 633.652344 C 152.230469 632.609375 148.691406 631.546875 145.289062 630.472656 C 141.886719 629.394531 138.625 628.300781 135.507812 627.195312 C 132.386719 626.085938 129.410156 624.964844 126.582031 623.828125 C 123.753906 622.695312 121.070312 621.546875 118.539062 620.386719 C 116.007812 619.226562 113.625 618.054688 111.394531 616.871094 C 109.167969 615.691406 107.089844 614.5 105.171875 613.296875 C 103.25 612.09375 101.484375 610.886719 99.875 609.667969 C 98.269531 608.449219 96.820312 607.222656 95.527344 605.992188 C 94.238281 604.761719 93.105469 603.523438 92.132812 602.28125 C 91.164062 601.039062 90.355469 599.792969 89.707031 598.542969 C 89.054688 597.292969 88.570312 596.042969 88.246094 594.789062 C 87.921875 593.53125 87.757812 592.277344 87.757812 591.023438 C 87.757812 589.765625 87.921875 588.511719 88.246094 587.257812 C 88.570312 586.003906 89.054688 584.75 89.707031 583.5 C 90.355469 582.25 91.164062 581.003906 92.132812 579.761719 C 93.105469 578.519531 94.238281 577.285156 95.527344 576.050781 C 96.820312 574.820312 98.269531 573.597656 99.875 572.378906 C 101.484375 571.160156 103.25 569.949219 105.171875 568.746094 C 107.089844 567.546875 109.167969 566.355469 111.394531 565.171875 C 113.625 563.988281 116.007812 562.816406 118.539062 561.65625 C 121.070312 560.496094 123.753906 559.351562 126.582031 558.214844 C 129.410156 557.078125 132.386719 555.957031 135.507812 554.851562 C 138.625 553.742188 141.886719 552.652344 145.289062 551.574219 C 148.691406 550.496094 152.230469 549.4375 155.90625 548.390625 C 159.585938 547.347656 163.394531 546.320312 167.335938 545.3125 C 171.277344 544.304688 175.347656 543.3125 179.546875 542.34375 C 183.746094 541.371094 188.066406 540.421875 192.511719 539.492188 C 196.957031 538.5625 201.515625 537.652344 206.195312 536.765625 C 210.875 535.875 215.667969 535.011719 220.570312 534.167969 C 225.476562 533.324219 230.484375 532.503906 235.601562 531.707031 C 240.714844 530.910156 245.933594 530.136719 251.246094 529.390625 C 256.5625 528.640625 261.972656 527.917969 267.472656 527.222656 C 272.976562 526.523438 278.566406 525.851562 284.242188 525.207031 C 289.917969 524.558594 295.675781 523.941406 301.511719 523.351562 C 307.347656 522.757812 313.257812 522.191406 319.242188 521.65625 C 325.222656 521.121094 331.269531 520.609375 337.386719 520.128906 C 343.5 519.648438 349.671875 519.199219 355.902344 518.773438 C 362.132812 518.351562 368.417969 517.957031 374.75 517.59375 C 381.082031 517.230469 387.457031 516.894531 393.878906 516.589844 C 400.296875 516.285156 406.753906 516.007812 413.242188 515.761719 C 419.734375 515.519531 426.253906 515.304688 432.800781 515.121094 C 439.34375 514.933594 445.910156 514.78125 452.496094 514.660156 C 459.082031 514.535156 465.683594 514.441406 472.292969 514.382812 C 478.902344 514.320312 485.515625 514.289062 492.132812 514.289062 C 498.75 514.289062 505.363281 514.320312 511.976562 514.382812 C 518.585938 514.441406 525.183594 514.535156 531.769531 514.660156 C 538.355469 514.78125 544.921875 514.933594 551.46875 515.121094 C 558.015625 515.304688 564.53125 515.519531 571.023438 515.761719 C 577.515625 516.007812 583.96875 516.285156 590.386719 516.589844 C 596.808594 516.894531 603.183594 517.230469 609.515625 517.59375 C 615.851562 517.957031 622.132812 518.351562 628.363281 518.773438 C 634.59375 519.199219 640.765625 519.648438 646.882812 520.128906 C 652.996094 520.609375 659.042969 521.121094 665.027344 521.65625 C 671.007812 522.191406 676.917969 522.757812 682.753906 523.351562 C 688.589844 523.941406 694.347656 524.558594 700.023438 525.207031 C 705.699219 525.851562 711.289062 526.523438 716.792969 527.222656 C 722.292969 527.917969 727.703125 528.640625 733.019531 529.390625 C 738.335938 530.136719 743.550781 530.910156 748.667969 531.707031 C 753.78125 532.503906 758.792969 533.324219 763.695312 534.167969 C 768.597656 535.011719 773.390625 535.875 778.070312 536.761719 C 782.75 537.652344 787.3125 538.5625 791.753906 539.492188 C 796.199219 540.421875 800.519531 541.371094 804.71875 542.34375 C 808.917969 543.3125 812.988281 544.304688 816.929688 545.3125 C 820.871094 546.320312 824.683594 547.347656 828.359375 548.390625 C 832.035156 549.4375 835.574219 550.496094 838.976562 551.574219 C 842.378906 552.652344 845.640625 553.742188 848.761719 554.851562 C 851.878906 555.957031 854.855469 557.078125 857.683594 558.214844 C 860.515625 559.351562 863.195312 560.496094 865.726562 561.65625 C 868.261719 562.816406 870.640625 563.988281 872.871094 565.171875 C 875.101562 566.355469 877.175781 567.546875 879.097656 568.746094 C 881.019531 569.949219 882.78125 571.160156 884.390625 572.378906 C 886 573.59375 887.449219 574.820312 888.738281 576.050781 C 890.03125 577.285156 891.160156 578.519531 892.132812 579.761719 C 893.101562 581.003906 893.914062 582.25 894.5625 583.5 C 895.210938 584.75 895.695312 586.003906 896.023438 587.257812 C 896.347656 588.511719 896.507812 589.765625 896.507812 591.023438 Z M 896.507812 591.023438 " fill-opacity="1" fill-rule="nonzero"/><path fill="#be9e7d" d="M 615.640625 589.136719 C 615.640625 589.136719 613.703125 581.175781 613.703125 577.328125 C 613.703125 577.328125 625.066406 523.082031 623.148438 493.140625 C 623.148438 493.140625 620.847656 472.410156 626.222656 455.140625 C 626.222656 455.140625 585.910156 447.460938 575.929688 453.984375 C 575.929688 453.984375 576.476562 492.324219 578.511719 502.417969 C 580.542969 512.511719 585.953125 551.933594 589.382812 589.125 C 589.382812 589.125 600.066406 608.355469 615.632812 589.125 Z M 615.640625 589.136719 " fill-opacity="1" fill-rule="nonzero"/><path fill="#be9e7d" d="M 581.203125 583.027344 C 581.203125 583.027344 581.320312 575.457031 581.320312 571.617188 C 581.320312 571.617188 592.683594 517.367188 590.765625 487.429688 C 590.765625 487.429688 588.464844 466.699219 593.839844 449.425781 C 593.839844 449.425781 553.527344 441.75 543.546875 448.273438 C 543.546875 448.273438 541.785156 486.421875 543.816406 496.515625 C 545.851562 506.613281 553.570312 546.21875 557.007812 583.417969 C 557.007812 583.417969 565.636719 602.25 581.203125 583.027344 Z M 581.203125 583.027344 " fill-opacity="1" fill-rule="nonzero"/><path fill="#134a7e" d="M 584.015625 601.65625 C 584.015625 601.65625 585.640625 604.09375 585.046875 606.9375 C 585.046875 606.9375 571.574219 614.269531 561.695312 610.976562 C 561.695312 610.976562 535.199219 622.351562 526.515625 616.214844 C 526.515625 616.214844 520.523438 612.769531 521.875 609.03125 " fill-opacity="1" fill-rule="nonzero"/><path fill="#414042" d="M 581.203125 583.027344 C 581.203125 583.027344 587.179688 590.054688 584.015625 601.65625 C 584.015625 601.65625 569.601562 608.335938 560.816406 606.929688 C 560.816406 606.929688 552.265625 612.480469 545 613.609375 C 545 613.609375 527.777344 618.53125 522.855469 610.800781 C 517.929688 603.066406 533.75 596.039062 533.75 596.039062 L 556.945312 583.035156 C 556.945312 583.035156 567.839844 595.335938 581.199219 583.035156 Z M 581.203125 583.027344 " fill-opacity="1" fill-rule="nonzero"/><path fill="#ffffff" d="M 549.367188 587.292969 C 549.367188 587.292969 550.226562 591.425781 553.5 592.5625 C 553.5 592.5625 553.21875 594.695312 551.367188 594.269531 C 551.367188 594.269531 547.09375 592.277344 546.949219 588.863281 C 546.949219 588.863281 546.949219 587.011719 549.367188 587.296875 Z M 549.367188 587.292969 " fill-opacity="1" fill-rule="nonzero"/><path fill="#ffffff" d="M 544.953125 589.285156 C 544.953125 589.285156 545.808594 593.417969 549.085938 594.554688 C 549.085938 594.554688 548.800781 596.6875 546.949219 596.261719 C 546.949219 596.261719 542.675781 594.269531 542.535156 590.851562 C 542.535156 590.851562 542.535156 589.003906 544.953125 589.285156 Z M 544.953125 589.285156 " fill-opacity="1" fill-rule="nonzero"/><path fill="#3a6bb4" d="M 618.6875 609.300781 C 618.6875 609.300781 620.449219 611.941406 619.800781 615.019531 C 619.800781 615.019531 605.21875 622.960938 594.523438 619.394531 C 594.523438 619.394531 565.839844 631.703125 556.445312 625.066406 C 556.445312 625.066406 549.964844 621.339844 551.421875 617.289062 " fill-opacity="1" fill-rule="nonzero"/><path fill="#414042" d="M 615.640625 589.136719 C 615.640625 589.136719 622.109375 596.75 618.6875 609.300781 C 618.6875 609.300781 603.085938 616.527344 593.578125 615.007812 C 593.578125 615.007812 584.316406 621.007812 576.457031 622.230469 C 576.457031 622.230469 557.8125 627.558594 552.488281 619.1875 C 547.160156 610.820312 564.289062 603.210938 564.289062 603.210938 L 589.394531 589.132812 C 589.394531 589.132812 601.195312 602.445312 615.648438 589.132812 Z M 615.640625 589.136719 " fill-opacity="1" fill-rule="nonzero"/><path fill="#ffffff" d="M 581.175781 593.757812 C 581.175781 593.757812 582.101562 598.226562 585.648438 599.460938 C 585.648438 599.460938 585.335938 601.773438 583.339844 601.3125 C 583.339844 601.3125 578.710938 599.152344 578.558594 595.457031 C 578.558594 595.457031 578.558594 593.453125 581.175781 593.761719 Z M 581.175781 593.757812 " fill-opacity="1" fill-rule="nonzero"/><path fill="#ffffff" d="M 576.394531 595.910156 C 576.394531 595.910156 577.320312 600.382812 580.867188 601.617188 C 580.867188 601.617188 580.554688 603.925781 578.558594 603.464844 C 578.558594 603.464844 573.929688 601.304688 573.777344 597.613281 C 573.777344 597.613281 573.777344 595.605469 576.394531 595.917969 Z M 576.394531 595.910156 " fill-opacity="1" fill-rule="nonzero"/><path fill="#be9e7d" d="M 587.046875 177.902344 C 587.046875 177.902344 584.65625 193.195312 589.78125 205.59375 C 589.78125 205.59375 589.550781 230.320312 561.375 238.226562 C 561.375 238.226562 529.460938 236.519531 544.980469 212.320312 C 544.980469 212.320312 547.671875 210.800781 546.546875 206.082031 C 546.546875 206.082031 581.5 199.367188 587.046875 177.902344 Z M 587.046875 177.902344 " fill-opacity="1" fill-rule="nonzero"/><path fill="#414042" d="M 537.476562 486.578125 C 537.476562 486.578125 530.796875 479.75 529.066406 466.328125 L 524.457031 381.921875 C 524.457031 381.921875 561.296875 396.71875 644.816406 367.019531 C 644.816406 367.019531 650.941406 410.425781 640.683594 449.589844 C 640.683594 449.589844 636.644531 469.480469 632.597656 485.957031 C 632.597656 485.957031 596.84375 496.214844 578.820312 488.75 L 577.984375 483.066406 L 578.058594 488.960938 C 578.058594 488.960938 554.527344 492.722656 537.476562 486.578125 Z M 537.476562 486.578125 " fill-opacity="1" fill-rule="nonzero"/><path fill="#be9e7d" d="M 533.175781 124 C 533.175781 124 525.277344 129.96875 524.726562 148.867188 C 524.171875 167.769531 524.535156 172.191406 527.023438 187.5 C 529.515625 202.796875 552.015625 205.398438 552.015625 205.398438 C 552.015625 205.398438 585.851562 200.246094 591.023438 182.191406 C 591.023438 182.191406 598.585938 191.703125 606.132812 179.300781 C 606.132812 179.300781 614.6875 165.695312 607.878906 161.820312 C 607.878906 161.820312 600.464844 158.738281 595.773438 166.546875 C 595.773438 166.546875 601.464844 134.214844 590.652344 128.699219 C 590.652344 128.699219 564.53125 101.136719 533.167969 124.007812 Z M 533.175781 124 " fill-opacity="1" fill-rule="nonzero"/><path fill="#26130f" d="M 558.78125 149.832031 C 558.78125 149.832031 571.816406 148.085938 577.355469 151.914062 C 577.355469 151.914062 573.503906 146.308594 558.703125 147.449219 C 558.703125 147.449219 555.992188 148.6875 558.789062 149.832031 Z M 558.78125 149.832031 " fill-opacity="1" fill-rule="nonzero"/><path fill="#26130f" d="M 524.988281 148.53125 C 525.253906 147.992188 531.964844 147.382812 538.164062 147.890625 C 538.164062 147.890625 540.945312 149.144531 538.042969 150.273438 C 538.042969 150.273438 526.773438 148.164062 525.15625 150.988281 C 525.15625 150.988281 524.339844 149.867188 524.996094 148.539062 Z M 524.988281 148.53125 " fill-opacity="1" fill-rule="nonzero"/><path stroke-linecap="butt" transform="matrix(0.675344, 0, 0, 0.67523, 0.665679, -298.707975)" fill="none" stroke-linejoin="miter" d="M 800.730153 688.071471 C 800.730153 688.071471 791.730104 701.209358 807.219906 702.898598 " stroke="#231f20" stroke-width="0.8" stroke-opacity="1" stroke-miterlimit="10"/><path stroke-linecap="butt" transform="matrix(0.675344, 0, 0, 0.67523, 0.665679, -298.707975)" fill="none" stroke-linejoin="miter" d="M 897.868219 692.011102 C 897.868219 692.011102 893.36241 679.729405 883.789735 699.352352 C 883.789735 699.352352 891.852762 690.721032 893.200456 698.177983 " stroke="#231f20" stroke-width="0.8" stroke-opacity="1" stroke-miterlimit="10"/><path fill="#26130f" d="M 546.28125 204.238281 C 546.28125 204.238281 555.59375 205.359375 562.363281 202.914062 C 562.363281 202.914062 568.378906 201.746094 576.039062 197.511719 C 576.039062 197.511719 570.722656 203.117188 560.242188 206.066406 C 560.242188 206.066406 552.851562 208.410156 546.566406 206.6875 C 546.566406 206.6875 546.59375 206.140625 546.28125 204.238281 Z M 546.28125 204.238281 " fill-opacity="1" fill-rule="nonzero"/><path fill="#d39494" d="M 558.757812 182.71875 C 558.757812 182.71875 553.257812 180.96875 546.679688 182.777344 C 546.679688 182.777344 541.023438 181.597656 535.902344 182.691406 C 535.902344 182.691406 536.394531 191.847656 544.964844 193.945312 C 553.535156 196.039062 558.871094 188.066406 558.75 182.71875 Z M 558.757812 182.71875 " fill-opacity="1" fill-rule="nonzero"/><path fill="#803435" d="M 557.378906 183.351562 C 557.378906 183.351562 557.390625 191.453125 546.863281 191.367188 C 537.300781 191.285156 537.28125 184.082031 537.28125 184.082031 C 537.28125 184.082031 548.050781 184.65625 557.378906 183.351562 Z M 557.378906 183.351562 " fill-opacity="1" fill-rule="nonzero"/><path fill="#ffffff" d="M 556.066406 183.460938 C 556.066406 183.460938 553.425781 187.1875 545.277344 186.726562 C 545.277344 186.726562 540.246094 186.9375 538.164062 184.25 C 538.164062 184.25 548.667969 184.566406 556.066406 183.460938 Z M 556.066406 183.460938 " fill-opacity="1" fill-rule="nonzero"/><path stroke-linecap="butt" transform="matrix(0.675344, 0, 0, 0.67523, 0.665679, -298.707975)" fill="none" stroke-linejoin="miter" d="M 855.389837 1163.337859 C 855.389837 1163.337859 843.301081 1091.562533 848.217561 1064.060325 C 848.217561 1064.060325 838.378818 1062.492572 835.81068 1055.637268 " stroke="#231f20" stroke-width="1" stroke-opacity="1" stroke-miterlimit="10"/><path stroke-linecap="butt" transform="matrix(0.675344, 0, 0, 0.67523, 0.665679, -298.707975)" fill="none" stroke-linejoin="miter" d="M 866.217659 1255.51133 C 866.217659 1255.51133 855.170041 1198.430075 855.632768 1186.460771 C 856.089712 1174.491468 855.389837 1163.337859 855.389837 1163.337859 " stroke="#603913" stroke-width="1" stroke-opacity="1" stroke-miterlimit="10"/><path fill="#f6ac1b" d="M 629.855469 374.207031 C 629.855469 374.207031 634.867188 447.3125 619.292969 488.710938 L 628.492188 486.589844 C 628.492188 486.589844 645.882812 406.246094 637.035156 371.214844 Z M 629.855469 374.207031 " fill-opacity="1" fill-rule="nonzero"/><path fill="#00a79d" d="M 589.78125 205.59375 C 589.78125 205.59375 622.21875 206.730469 628.558594 234.195312 C 633.347656 254.941406 624.566406 271.691406 624.566406 271.691406 C 624.566406 271.691406 627.761719 304.359375 630.558594 316.722656 C 630.558594 316.722656 637.703125 336.117188 644.816406 367.019531 C 644.816406 367.019531 563.863281 408.886719 523.535156 384.125 C 523.535156 384.125 525.136719 334.839844 521.644531 306.25 C 521.644531 306.25 503.648438 297.683594 497.304688 286.445312 L 506.910156 254.007812 C 506.910156 254.007812 511.550781 224.054688 544.980469 212.304688 C 544.980469 212.304688 535.78125 228.253906 554.109375 230.488281 C 554.109375 230.488281 581.859375 233.8125 589.789062 205.585938 Z M 589.78125 205.59375 " fill-opacity="1" fill-rule="nonzero"/><path fill="#414042" d="M 589.78125 205.59375 C 589.78125 205.59375 584.804688 230.253906 554.101562 230.496094 C 554.101562 230.496094 535.921875 227.84375 544.972656 212.3125 C 544.972656 212.3125 541.3125 213.535156 540.175781 214.472656 C 540.175781 214.472656 531.601562 233.394531 553.941406 234.972656 C 553.941406 234.972656 578.652344 234.914062 588.707031 219.078125 C 588.707031 219.078125 593.089844 211.847656 594.183594 206.601562 L 589.773438 205.585938 Z M 589.78125 205.59375 " fill-opacity="1" fill-rule="nonzero"/><path fill="#ffffff" d="M 571.582031 158.097656 C 571.582031 158.097656 571.601562 157.78125 571.378906 157.511719 C 570.640625 156.605469 568.941406 154.90625 566.136719 154.777344 C 563.003906 154.632812 561.140625 157.503906 560.503906 158.523438 C 560.398438 158.699219 560.398438 158.863281 560.398438 158.863281 C 560.398438 158.863281 560.375 159.039062 560.476562 159.164062 C 560.949219 159.765625 562.542969 161.46875 565.515625 161.648438 C 567.285156 161.757812 569.8125 160.921875 571.453125 158.589844 C 571.566406 158.429688 571.585938 158.21875 571.585938 158.105469 Z M 571.582031 158.097656 " fill-opacity="1" fill-rule="nonzero"/><path fill="#26130f" d="M 568.332031 158.355469 C 568.332031 158.785156 568.25 159.199219 568.085938 159.597656 C 567.921875 159.996094 567.683594 160.347656 567.382812 160.652344 C 567.078125 160.957031 566.726562 161.191406 566.328125 161.355469 C 565.929688 161.519531 565.515625 161.601562 565.085938 161.601562 C 564.652344 161.601562 564.238281 161.519531 563.839844 161.355469 C 563.441406 161.191406 563.089844 160.957031 562.785156 160.652344 C 562.480469 160.347656 562.246094 159.996094 562.082031 159.597656 C 561.917969 159.199219 561.835938 158.785156 561.835938 158.355469 C 561.835938 157.925781 561.917969 157.511719 562.082031 157.113281 C 562.246094 156.714844 562.480469 156.363281 562.785156 156.058594 C 563.089844 155.753906 563.441406 155.519531 563.839844 155.355469 C 564.238281 155.191406 564.652344 155.105469 565.085938 155.105469 C 565.515625 155.105469 565.929688 155.191406 566.328125 155.355469 C 566.726562 155.519531 567.078125 155.753906 567.382812 156.058594 C 567.683594 156.363281 567.921875 156.714844 568.085938 157.113281 C 568.25 157.511719 568.332031 157.925781 568.332031 158.355469 Z M 568.332031 158.355469 " fill-opacity="1" fill-rule="nonzero"/><path fill="#ffffff" d="M 568.046875 157.789062 C 568.046875 158.035156 567.960938 158.242188 567.789062 158.417969 C 567.613281 158.59375 567.402344 158.679688 567.15625 158.679688 C 566.910156 158.679688 566.699219 158.59375 566.527344 158.417969 C 566.351562 158.242188 566.265625 158.035156 566.265625 157.789062 C 566.265625 157.542969 566.351562 157.332031 566.527344 157.15625 C 566.699219 156.984375 566.910156 156.898438 567.15625 156.898438 C 567.402344 156.898438 567.613281 156.984375 567.789062 157.15625 C 567.960938 157.332031 568.046875 157.542969 568.046875 157.789062 Z M 568.046875 157.789062 " fill-opacity="1" fill-rule="nonzero"/><path stroke-linecap="butt" transform="matrix(0.675344, 0, 0, 0.67523, 0.665679, -298.707975)" fill="none" stroke-linejoin="miter" d="M 828.667325 677.149265 C 828.667325 677.149265 834.827384 666.31962 845.238752 675.622007 " stroke="#231f20" stroke-width="0.8" stroke-opacity="1" stroke-miterlimit="10"/><path fill="#ffffff" d="M 537.460938 158.140625 C 537.460938 158.140625 537.523438 157.855469 537.359375 157.570312 C 536.8125 156.640625 535.492188 154.835938 532.9375 154.324219 C 530.082031 153.75 527.96875 156.121094 527.246094 156.964844 C 527.117188 157.113281 527.097656 157.253906 527.097656 157.253906 C 527.097656 157.253906 527.054688 157.410156 527.128906 157.542969 C 527.480469 158.164062 528.703125 159.949219 531.398438 160.53125 C 533.003906 160.875 535.4375 160.460938 537.273438 158.5625 C 537.402344 158.429688 537.449219 158.242188 537.460938 158.132812 Z M 537.460938 158.140625 " fill-opacity="1" fill-rule="nonzero"/><path fill="#26130f" d="M 534.464844 157.457031 C 534.464844 157.855469 534.386719 158.238281 534.234375 158.605469 C 534.082031 158.972656 533.867188 159.296875 533.585938 159.578125 C 533.304688 159.859375 532.980469 160.074219 532.613281 160.226562 C 532.246094 160.378906 531.863281 160.453125 531.464844 160.457031 C 531.066406 160.453125 530.683594 160.378906 530.316406 160.226562 C 529.949219 160.074219 529.625 159.859375 529.34375 159.578125 C 529.0625 159.296875 528.847656 158.972656 528.695312 158.605469 C 528.542969 158.238281 528.464844 157.855469 528.46875 157.457031 C 528.464844 157.058594 528.542969 156.675781 528.695312 156.308594 C 528.847656 155.941406 529.0625 155.617188 529.34375 155.335938 C 529.625 155.054688 529.949219 154.839844 530.316406 154.6875 C 530.683594 154.535156 531.066406 154.460938 531.464844 154.460938 C 531.863281 154.460938 532.246094 154.535156 532.613281 154.6875 C 532.980469 154.839844 533.304688 155.054688 533.585938 155.335938 C 533.867188 155.617188 534.082031 155.941406 534.234375 156.308594 C 534.386719 156.675781 534.464844 157.058594 534.464844 157.457031 Z M 534.464844 157.457031 " fill-opacity="1" fill-rule="nonzero"/><path fill="#ffffff" d="M 534.375 157.296875 C 534.375 157.527344 534.292969 157.722656 534.128906 157.886719 C 533.96875 158.050781 533.769531 158.132812 533.539062 158.132812 C 533.308594 158.132812 533.109375 158.050781 532.945312 157.886719 C 532.78125 157.722656 532.703125 157.527344 532.703125 157.296875 C 532.703125 157.0625 532.78125 156.867188 532.945312 156.703125 C 533.109375 156.539062 533.308594 156.457031 533.539062 156.457031 C 533.769531 156.457031 533.96875 156.539062 534.128906 156.703125 C 534.292969 156.867188 534.375 157.0625 534.375 157.296875 Z M 534.375 157.296875 " fill-opacity="1" fill-rule="nonzero"/><path stroke-linecap="butt" transform="matrix(0.675344, 0, 0, 0.67523, 0.665679, -298.707975)" fill="none" stroke-linejoin="miter" d="M 779.612428 674.979865 C 779.612428 674.979865 786.582261 665.249382 794.789889 675.940186 " stroke="#231f20" stroke-width="0.8" stroke-opacity="1" stroke-miterlimit="10"/><path fill="#ffffff" d="M 589.390625 589.136719 L 589.214844 586.402344 C 589.214844 586.402344 598.339844 599.867188 614.945312 586.699219 L 615.640625 589.132812 C 615.640625 589.132812 612.554688 594.175781 602.375 595.222656 C 602.375 595.222656 593.894531 595 589.382812 589.132812 Z M 589.390625 589.136719 " fill-opacity="1" fill-rule="nonzero"/><path fill="#ffffff" d="M 557.007812 583.417969 L 556.75 580.875 C 556.75 580.875 564.632812 593.589844 581.238281 580.429688 L 581.203125 583.035156 C 581.203125 583.035156 578.441406 587.910156 568.273438 588.957031 C 568.273438 588.957031 561.519531 589.300781 557.007812 583.425781 Z M 557.007812 583.417969 " fill-opacity="1" fill-rule="nonzero"/><path fill="#231f20" d="M 527 133.777344 C 527 133.777344 523.136719 121.90625 541.394531 110.125 C 541.394531 110.125 560.085938 95.945312 583.222656 109.710938 C 583.222656 109.710938 605.078125 112.378906 605.542969 132.8125 C 605.542969 132.8125 593.070312 122.414062 584.640625 134.167969 C 584.640625 134.167969 576.273438 122.082031 562.566406 129.414062 C 562.566406 129.414062 551.003906 134.035156 543.886719 139.644531 C 543.886719 139.644531 536.078125 130.609375 527 133.777344 Z M 527 133.777344 " fill-opacity="1" fill-rule="nonzero"/><g clip-path="url(#02fd0dfd87)"><g clip-path="url(#d5ff2b0dab)"><path fill="url(#5ad2188de5)" d="M 614.378906 119.378906 L 617.417969 166.359375 L 581.371094 168.6875 L 578.332031 121.707031 Z M 614.378906 119.378906 " fill-rule="nonzero"/></g></g><path fill="#a8866a" d="M 551.421875 285.960938 C 551.421875 285.960938 556.824219 270.308594 554.035156 261.171875 L 559.605469 261.503906 C 559.605469 261.503906 565.785156 283.378906 551.421875 285.960938 Z M 551.421875 285.960938 " fill-opacity="1" fill-rule="nonzero"/><path fill="#a8866a" d="M 570.675781 285.195312 L 570.527344 281.105469 C 570.527344 281.105469 575.761719 276.984375 574.761719 262.171875 L 582.785156 262.949219 C 582.785156 262.949219 584.3125 288.5 570.683594 285.191406 Z M 570.675781 285.195312 " fill-opacity="1" fill-rule="nonzero"/><path fill="#b27a50" d="M 597.710938 265.195312 C 597.710938 265.195312 537.941406 258.660156 519.425781 261.136719 C 519.425781 261.136719 579.792969 255.84375 596.203125 259.375 C 596.203125 259.375 602.226562 260.964844 597.710938 265.203125 Z M 597.710938 265.195312 " fill-opacity="1" fill-rule="nonzero"/><path fill="#75c482" d="M 521.949219 260.699219 C 521.949219 260.699219 512.839844 261.5625 511.238281 269.195312 C 511.238281 269.195312 525.523438 272.394531 521.949219 260.699219 Z M 521.949219 260.699219 " fill-opacity="1" fill-rule="nonzero"/><path fill="#75c482" d="M 532.453125 260.726562 C 532.453125 260.726562 524.570312 258.261719 524.199219 249.769531 C 524.199219 249.769531 537.125 247.554688 532.453125 260.726562 Z M 532.453125 260.726562 " fill-opacity="1" fill-rule="nonzero"/><path fill="#cba27a" d="M 551.421875 285.960938 C 551.421875 285.960938 552.949219 272.238281 539.027344 270.335938 C 525.117188 268.429688 520.160156 281.390625 520.160156 281.390625 C 520.160156 281.390625 516.539062 298.160156 528.359375 299.300781 C 540.175781 300.445312 544.75 305.023438 544.75 305.023438 C 544.75 305.023438 559.808594 317.414062 572.582031 314.933594 C 585.351562 312.457031 593.164062 307.6875 594.878906 295.683594 C 596.59375 283.679688 594.503906 266.527344 590.496094 261.1875 C 590.496094 261.1875 588.402344 254.703125 585.539062 256.039062 C 582.683594 257.378906 583.0625 265.566406 583.0625 265.566406 C 583.0625 265.566406 582.769531 279.476562 578.292969 282.339844 C 573.527344 285.394531 570.667969 285.195312 570.667969 285.195312 C 570.667969 285.195312 570.09375 262.707031 565.136719 258.898438 C 560.179688 255.089844 558.464844 260.613281 558.464844 260.613281 C 558.464844 260.613281 562.144531 266.039062 559.804688 275.667969 C 557.898438 283.480469 553.894531 284.628906 553.894531 284.628906 L 551.414062 285.964844 Z M 551.421875 285.960938 " fill-opacity="1" fill-rule="nonzero"/><path fill="#ffffff" d="M 532.101562 279.234375 C 532.101562 279.234375 523.691406 280.984375 523.691406 286.359375 C 523.691406 291.734375 524.273438 296.40625 532.800781 296.167969 C 541.332031 295.933594 547.871094 287.175781 547.871094 287.175781 C 547.871094 287.175781 550.320312 279.234375 545.882812 276.898438 C 541.445312 274.5625 533.972656 273.859375 532.101562 279.234375 Z M 532.101562 279.234375 " fill-opacity="1" fill-rule="nonzero"/><path fill="#231f20" d="M 523.8125 292.339844 C 523.8125 292.339844 525.578125 285.507812 528.992188 285.136719 C 532.410156 284.765625 533.105469 287.113281 533.105469 287.113281 C 533.105469 287.113281 533.476562 289.25 530.386719 291.117188 C 527.285156 292.988281 527.664062 295.65625 527.664062 295.65625 C 527.664062 295.65625 524.886719 295.386719 523.820312 292.347656 Z M 523.8125 292.339844 " fill-opacity="1" fill-rule="nonzero"/><path fill="#231f20" d="M 547.148438 279.175781 C 547.148438 279.175781 539.3125 277.539062 537.839844 280.394531 C 536.367188 283.253906 539.476562 284.804688 539.476562 284.804688 C 539.476562 284.804688 543.964844 283.664062 548.289062 284.230469 C 548.289062 284.230469 549.511719 281.457031 547.148438 279.175781 Z M 547.148438 279.175781 " fill-opacity="1" fill-rule="nonzero"/><path fill="#231f20" d="M 538.253906 290.597656 C 538.253906 290.597656 533.597656 290.84375 535.070312 288.640625 C 536.542969 286.441406 539.070312 286.84375 539.070312 286.84375 C 539.070312 286.84375 540.210938 287.582031 538.253906 290.597656 Z M 538.253906 290.597656 " fill-opacity="1" fill-rule="nonzero"/><path stroke-linecap="round" transform="matrix(0.675344, 0, 0, 0.67523, 0.665679, -298.707975)" fill="none" stroke-linejoin="miter" d="M 796.021901 872.748162 C 796.501981 878.070424 789.740376 875.53078 789.740376 875.53078 " stroke="#231f20" stroke-width="0.5" stroke-opacity="1" stroke-miterlimit="10"/><path stroke-linecap="round" transform="matrix(0.675344, 0, 0, 0.67523, 0.665679, -298.707975)" fill="none" stroke-linejoin="miter" d="M 802.060495 869.97133 C 802.060495 869.97133 799.741073 874.391121 795.628583 873.037416 " stroke="#231f20" stroke-width="0.5" stroke-opacity="1" stroke-miterlimit="10"/><path fill="#ffffff" d="M 531.492188 288.140625 C 531.492188 288.355469 531.453125 288.5625 531.371094 288.757812 C 531.289062 288.957031 531.171875 289.128906 531.019531 289.28125 C 530.867188 289.433594 530.695312 289.550781 530.496094 289.632812 C 530.296875 289.714844 530.09375 289.753906 529.878906 289.753906 C 529.664062 289.753906 529.457031 289.714844 529.261719 289.632812 C 529.0625 289.550781 528.886719 289.433594 528.738281 289.28125 C 528.585938 289.128906 528.46875 288.957031 528.386719 288.757812 C 528.304688 288.5625 528.265625 288.355469 528.265625 288.140625 C 528.265625 287.925781 528.304688 287.722656 528.386719 287.523438 C 528.46875 287.324219 528.585938 287.152344 528.738281 287 C 528.886719 286.847656 529.0625 286.730469 529.261719 286.648438 C 529.457031 286.566406 529.664062 286.527344 529.878906 286.527344 C 530.09375 286.527344 530.296875 286.566406 530.496094 286.648438 C 530.695312 286.730469 530.867188 286.847656 531.019531 287 C 531.171875 287.152344 531.289062 287.324219 531.371094 287.523438 C 531.453125 287.722656 531.492188 287.925781 531.492188 288.140625 Z M 531.492188 288.140625 " fill-opacity="1" fill-rule="nonzero"/><path fill="#231f20" d="M 530.992188 288.121094 C 530.992188 288.261719 530.964844 288.394531 530.914062 288.523438 C 530.859375 288.652344 530.78125 288.765625 530.683594 288.867188 C 530.585938 288.964844 530.472656 289.039062 530.34375 289.09375 C 530.214844 289.148438 530.078125 289.175781 529.9375 289.175781 C 529.800781 289.175781 529.664062 289.148438 529.535156 289.09375 C 529.40625 289.039062 529.292969 288.964844 529.195312 288.867188 C 529.09375 288.765625 529.019531 288.652344 528.964844 288.523438 C 528.914062 288.394531 528.886719 288.261719 528.886719 288.121094 C 528.886719 287.980469 528.914062 287.847656 528.964844 287.71875 C 529.019531 287.589844 529.09375 287.476562 529.195312 287.375 C 529.292969 287.277344 529.40625 287.199219 529.535156 287.148438 C 529.664062 287.09375 529.800781 287.066406 529.9375 287.066406 C 530.078125 287.066406 530.214844 287.09375 530.34375 287.148438 C 530.472656 287.199219 530.585938 287.277344 530.683594 287.375 C 530.78125 287.476562 530.859375 287.589844 530.914062 287.71875 C 530.964844 287.847656 530.992188 287.980469 530.992188 288.121094 Z M 530.992188 288.121094 " fill-opacity="1" fill-rule="nonzero"/><path fill="#ffffff" d="M 529.816406 288.09375 C 529.816406 288.261719 529.757812 288.40625 529.640625 288.523438 C 529.519531 288.640625 529.378906 288.703125 529.210938 288.703125 C 529.042969 288.703125 528.898438 288.640625 528.78125 288.523438 C 528.660156 288.40625 528.601562 288.261719 528.601562 288.09375 C 528.601562 287.925781 528.660156 287.78125 528.78125 287.664062 C 528.898438 287.546875 529.042969 287.484375 529.210938 287.484375 C 529.378906 287.484375 529.519531 287.546875 529.640625 287.664062 C 529.757812 287.78125 529.816406 287.925781 529.816406 288.09375 Z M 529.816406 288.09375 " fill-opacity="1" fill-rule="nonzero"/><path fill="#ffffff" d="M 542.464844 282.03125 C 542.464844 282.246094 542.425781 282.449219 542.34375 282.648438 C 542.261719 282.84375 542.144531 283.019531 541.992188 283.171875 C 541.84375 283.324219 541.667969 283.4375 541.46875 283.519531 C 541.273438 283.601562 541.066406 283.644531 540.851562 283.644531 C 540.636719 283.644531 540.433594 283.601562 540.234375 283.519531 C 540.039062 283.4375 539.863281 283.324219 539.710938 283.171875 C 539.558594 283.019531 539.441406 282.84375 539.363281 282.648438 C 539.28125 282.449219 539.238281 282.246094 539.238281 282.03125 C 539.238281 281.816406 539.28125 281.609375 539.363281 281.414062 C 539.441406 281.214844 539.558594 281.039062 539.710938 280.890625 C 539.863281 280.738281 540.039062 280.621094 540.234375 280.539062 C 540.433594 280.457031 540.636719 280.417969 540.851562 280.417969 C 541.066406 280.417969 541.273438 280.457031 541.46875 280.539062 C 541.667969 280.621094 541.84375 280.738281 541.992188 280.890625 C 542.144531 281.039062 542.261719 281.214844 542.34375 281.414062 C 542.425781 281.609375 542.464844 281.816406 542.464844 282.03125 Z M 542.464844 282.03125 " fill-opacity="1" fill-rule="nonzero"/><path fill="#231f20" d="M 541.972656 282.011719 C 541.972656 282.148438 541.945312 282.285156 541.894531 282.414062 C 541.839844 282.542969 541.765625 282.65625 541.664062 282.753906 C 541.566406 282.855469 541.453125 282.929688 541.324219 282.984375 C 541.195312 283.035156 541.058594 283.0625 540.921875 283.0625 C 540.78125 283.0625 540.644531 283.035156 540.515625 282.984375 C 540.386719 282.929688 540.273438 282.855469 540.175781 282.753906 C 540.078125 282.65625 540 282.542969 539.945312 282.414062 C 539.894531 282.285156 539.867188 282.148438 539.867188 282.011719 C 539.867188 281.871094 539.894531 281.734375 539.945312 281.605469 C 540 281.476562 540.078125 281.363281 540.175781 281.265625 C 540.273438 281.167969 540.386719 281.089844 540.515625 281.035156 C 540.644531 280.984375 540.78125 280.957031 540.921875 280.957031 C 541.058594 280.957031 541.195312 280.984375 541.324219 281.035156 C 541.453125 281.089844 541.566406 281.167969 541.664062 281.265625 C 541.765625 281.363281 541.839844 281.476562 541.894531 281.605469 C 541.945312 281.734375 541.972656 281.871094 541.972656 282.011719 Z M 541.972656 282.011719 " fill-opacity="1" fill-rule="nonzero"/><path fill="#ffffff" d="M 540.796875 281.984375 C 540.796875 282.152344 540.738281 282.292969 540.621094 282.414062 C 540.503906 282.53125 540.359375 282.589844 540.191406 282.589844 C 540.023438 282.589844 539.878906 282.53125 539.761719 282.414062 C 539.640625 282.292969 539.582031 282.152344 539.582031 281.984375 C 539.582031 281.816406 539.640625 281.671875 539.761719 281.554688 C 539.878906 281.433594 540.023438 281.375 540.191406 281.375 C 540.359375 281.375 540.503906 281.433594 540.621094 281.554688 C 540.738281 281.671875 540.796875 281.816406 540.796875 281.984375 Z M 540.796875 281.984375 " fill-opacity="1" fill-rule="nonzero"/><path stroke-linecap="butt" transform="matrix(0.675344, 0, 0, 0.67523, 0.665679, -298.707975)" fill-opacity="1" fill="#00a79d" fill-rule="nonzero" stroke-linejoin="miter" d="M 899.320026 757.029469 C 899.320026 757.029469 880.301927 756.670795 863.75942 774.691278 C 847.222697 792.711762 830.859496 818.328038 830.859496 818.328038 C 830.859496 818.328038 839.13075 848.821126 896.42798 854.432641 C 896.42798 854.432641 917.331693 846.420323 918.812421 843.169115 " stroke="#006838" stroke-width="1" stroke-opacity="1" stroke-miterlimit="10"/><path fill="#231f20" d="M 370.863281 499.5625 C 370.863281 499.5625 368.863281 488.328125 357.488281 480.59375 C 357.488281 480.59375 340.75 476.738281 315.617188 502.621094 C 315.617188 502.621094 282.984375 507.71875 263.65625 536.132812 C 263.65625 536.132812 246.867188 558.746094 275.039062 558.605469 C 275.039062 558.605469 310.695312 557.132812 331.542969 545.273438 C 331.542969 545.273438 333.949219 518.683594 370.863281 499.5625 Z M 370.863281 499.5625 " fill-opacity="1" fill-rule="nonzero"/><path fill="#231f20" d="M 318.394531 523.4375 C 318.394531 523.4375 338.335938 546.542969 290.050781 569.832031 C 255.648438 586.429688 232.492188 617.125 226.535156 606.195312 L 222.050781 583.460938 L 250.921875 548.070312 L 292.582031 523.910156 L 318.402344 523.4375 Z M 318.394531 523.4375 " fill-opacity="1" fill-rule="nonzero"/><path fill="#414042" d="M 318.394531 523.4375 C 318.394531 523.4375 308.3125 523.269531 298.203125 528.132812 C 288.289062 532.898438 266.671875 547.390625 266.671875 547.390625 C 266.671875 547.390625 216.03125 564.554688 227.285156 607.632812 L 221.820312 600.875 C 221.820312 600.875 207.011719 571.757812 261.441406 536.71875 C 261.441406 536.71875 295.140625 517.910156 307.136719 514.824219 C 307.136719 514.824219 311.757812 515.867188 318.394531 523.429688 Z M 318.394531 523.4375 " fill-opacity="1" fill-rule="nonzero"/><path fill="#be9e7d" d="M 321.796875 592.71875 C 321.796875 592.71875 305.71875 580.894531 287.621094 588.488281 L 270.074219 592.609375 L 259.421875 595.574219 L 244.167969 604.136719 C 244.167969 604.136719 236.726562 613.566406 232.921875 612.460938 C 229.121094 611.351562 226.925781 611.570312 227.109375 603.980469 C 227.109375 603.980469 224.746094 598.671875 228.757812 596.25 C 228.757812 596.25 227.492188 590.832031 233.320312 586.199219 C 233.320312 586.199219 231.632812 582.117188 237.988281 577.253906 C 237.988281 577.253906 237.597656 573.230469 241.480469 571.371094 C 241.480469 571.371094 255.90625 552.613281 268.015625 551.804688 C 268.015625 551.804688 284.945312 546.761719 296.019531 537.421875 C 302.265625 532.15625 308.035156 530.65625 312.09375 530.421875 C 315.382812 530.230469 318.507812 531.765625 320.375 534.476562 C 324.054688 539.839844 331.523438 550.398438 338.789062 558.660156 " fill-opacity="1" fill-rule="nonzero"/><path stroke-linecap="butt" transform="matrix(0.675344, 0, 0, 0.67523, 0.665679, -298.707975)" fill="none" stroke-linejoin="miter" d="M 360.832493 1330.422161 L 348.28101 1336.010536 C 348.28101 1336.010536 341.212848 1340.997264 335.301504 1336.872511 " stroke="#603913" stroke-width="0.5" stroke-opacity="1" stroke-miterlimit="10"/><path stroke-linecap="butt" transform="matrix(0.675344, 0, 0, 0.67523, 0.665679, -298.707975)" fill="none" stroke-linejoin="miter" d="M 362.278516 1321.987534 C 362.278516 1321.987534 342.439076 1332.389084 339.390858 1327.801526 L 337.742392 1325.412293 " stroke="#603913" stroke-width="0.5" stroke-opacity="1" stroke-miterlimit="10"/><path stroke-linecap="butt" transform="matrix(0.675344, 0, 0, 0.67523, 0.665679, -298.707975)" fill="none" stroke-linejoin="miter" d="M 362.00088 1310.781859 C 362.00088 1310.781859 350.750818 1316.821469 344.492429 1310.538886 " stroke="#603913" stroke-width="0.5" stroke-opacity="1" stroke-miterlimit="10"/><path stroke-linecap="butt" transform="matrix(0.675344, 0, 0, 0.67523, 0.665679, -298.707975)" fill="none" stroke-linejoin="miter" d="M 359.872333 1298.928257 C 359.872333 1298.928257 354.180785 1302.23153 351.410205 1297.279513 " stroke="#603913" stroke-width="0.5" stroke-opacity="1" stroke-miterlimit="10"/><path fill="#414042" d="M 273.019531 542.507812 C 273.019531 542.507812 290.96875 570.097656 280.40625 590.449219 L 252.589844 600.265625 C 252.589844 600.265625 254.738281 576.910156 246.464844 557.214844 C 246.464844 557.214844 257.269531 547.449219 273.019531 542.507812 Z M 273.019531 542.507812 " fill-opacity="1" fill-rule="nonzero"/><path fill="#0f3e5d" d="M 449.882812 435.632812 C 449.882812 435.632812 537.089844 482.957031 560.027344 513.539062 C 582.96875 544.121094 557.84375 573.609375 540.367188 573.609375 C 540.367188 573.609375 544.1875 603.09375 505.410156 612.925781 C 466.632812 622.757812 310.433594 594.90625 310.433594 594.90625 C 310.433594 594.90625 301.691406 561.046875 322.992188 535.382812 C 322.992188 535.382812 240.15625 521.546875 268.195312 432.355469 " fill-opacity="1" fill-rule="nonzero"/><path stroke-linecap="butt" transform="matrix(0.675344, 0, 0, 0.67523, 0.665679, -298.707975)" fill="none" stroke-linejoin="miter" d="M 477.277863 1235.257811 C 477.277863 1235.257811 600.207201 1260.330291 622.042154 1264.368267 C 643.882891 1268.412029 652.767258 1274.069824 653.582816 1280.537529 " stroke="#27aae1" stroke-width="1" stroke-opacity="1" stroke-miterlimit="10"/><path stroke-linecap="butt" transform="matrix(0.675344, 0, 0, 0.67523, 0.665679, -298.707975)" fill="none" stroke-linejoin="miter" d="M 799.151096 1291.870475 C 799.151096 1291.870475 811.28034 1244.161029 779.739678 1219.892673 C 748.199016 1195.630102 634.981171 1114.760652 634.981171 1114.760652 " stroke="#27aae1" stroke-width="1" stroke-opacity="1" stroke-miterlimit="10"/><path fill="#be9e7d" d="M 368.566406 150.125 C 368.566406 150.125 372.292969 168.863281 363.359375 186.121094 C 363.359375 186.121094 362.230469 250.375 410.214844 255.082031 C 410.214844 255.082031 443.589844 230.449219 429.347656 190.117188 Z M 368.566406 150.125 " fill-opacity="1" fill-rule="nonzero"/><path fill="#dc3b28" d="M 285.453125 317.777344 C 285.453125 317.777344 270.363281 236.011719 309.566406 207.390625 C 309.566406 207.390625 330.191406 193.441406 361.367188 184.472656 C 361.367188 184.472656 356.550781 193.320312 395.351562 220.636719 L 406.984375 242.839844 L 411.550781 223.972656 C 411.550781 223.972656 427.558594 213.273438 437.660156 198.417969 C 437.660156 198.417969 462.214844 202.175781 477.667969 230.078125 C 477.667969 230.078125 490.945312 253.054688 496.535156 302.402344 L 473.292969 319.621094 L 449.878906 435.617188 C 449.878906 435.617188 402.554688 483.648438 268.164062 433.246094 L 285.101562 336.148438 L 285.445312 317.769531 Z M 285.453125 317.777344 " fill-opacity="1" fill-rule="nonzero"/><path stroke-linecap="butt" transform="matrix(0.675344, 0, 0, 0.67523, 0.665679, -298.707975)" fill="none" stroke-linejoin="miter" d="M 700.381916 915.251049 C 700.381916 915.251049 695.887675 862.120995 692.087526 849.752521 " stroke="#be1e2d" stroke-width="2" stroke-opacity="1" stroke-miterlimit="10"/><path fill="#be9e7d" d="M 456.867188 75.46875 C 456.867188 75.46875 465.625 89.898438 460.945312 122.914062 C 460.945312 122.914062 459.035156 130.792969 459.601562 135.148438 C 460.167969 139.507812 459.710938 146.667969 457.777344 151.15625 C 455.847656 155.648438 441.855469 185.667969 441.855469 185.667969 C 441.855469 185.667969 437.355469 194.34375 421.675781 193.460938 C 405.992188 192.582031 393.074219 185.964844 387.878906 178.984375 C 382.679688 172 369.28125 160.359375 368.558594 150.117188 C 368.558594 150.117188 359.117188 151.617188 356.070312 140.171875 C 356.070312 140.171875 347.101562 122.101562 357.523438 118.246094 C 367.945312 114.390625 372.875 128.78125 372.875 128.78125 C 372.875 128.78125 363.589844 86.761719 387.78125 72.257812 C 387.78125 72.257812 417.878906 50.394531 456.859375 75.457031 Z M 456.867188 75.46875 " fill-opacity="1" fill-rule="nonzero"/><path fill="#ae8578" d="M 412.464844 156.898438 C 412.464844 156.898438 420.554688 155.492188 429.488281 159.308594 C 429.488281 159.308594 437.707031 158.734375 444.710938 161.257812 C 444.710938 161.257812 442.253906 174.089844 429.757812 175.398438 C 417.257812 176.707031 411.269531 164.425781 412.46875 156.902344 Z M 412.464844 156.898438 " fill-opacity="1" fill-rule="nonzero"/><path fill="#803435" d="M 414.292969 158.066406 C 414.292969 158.066406 412.714844 169.496094 427.589844 171.402344 C 441.105469 173.128906 442.515625 162.960938 442.515625 162.960938 C 442.515625 162.960938 427.207031 161.699219 414.292969 158.070312 Z M 414.292969 158.066406 " fill-opacity="1" fill-rule="nonzero"/><path fill="#231f20" d="M 422.816406 111.96875 C 422.816406 111.96875 410.289062 106.429688 398.234375 109.71875 C 398.234375 109.71875 404.992188 101.640625 423.660156 108.144531 C 423.660156 108.144531 426.511719 111.015625 422.808594 111.972656 Z M 422.816406 111.96875 " fill-opacity="1" fill-rule="nonzero"/><path fill="#231f20" d="M 462.59375 115.613281 C 453.414062 113.035156 448.511719 115.253906 448.511719 115.253906 C 445.171875 113.398438 448.65625 111.339844 448.65625 111.339844 C 454.792969 110.847656 459.460938 111.425781 462.972656 112.464844 C 462.972656 112.464844 463.09375 115.761719 462.585938 115.621094 Z M 462.59375 115.613281 " fill-opacity="1" fill-rule="nonzero"/><path fill="#ffffff" d="M 416.117188 158.464844 C 416.117188 158.464844 419.128906 164.238281 430.710938 165.15625 C 430.710938 165.15625 437.769531 166.417969 441.226562 163.027344 C 441.226562 163.027344 426.339844 161.449219 416.117188 158.46875 Z M 416.117188 158.464844 " fill-opacity="1" fill-rule="nonzero"/><path stroke-linecap="butt" transform="matrix(0.675344, 0, 0, 0.67523, 0.665679, -298.707975)" fill="none" stroke-linejoin="miter" d="M 526.801271 628.467927 C 526.801271 628.467927 533.481899 620.710152 538.64131 630.157166 C 543.800722 639.609966 543.771801 642.531425 543.771801 642.531425 C 543.771801 642.531425 536.541684 627.652232 531.578932 638.20998 " stroke="#231f20" stroke-width="1.2" stroke-opacity="1" stroke-miterlimit="10"/><path fill="#26130f" d="M 422.613281 193.136719 C 422.613281 193.136719 408.777344 193.359375 398.015625 187.25 C 398.015625 187.25 391.351562 184.621094 383.09375 173.601562 C 383.09375 173.601562 390.703125 189.511719 407.359375 192.878906 C 407.359375 192.878906 414.753906 195.183594 422.613281 193.136719 C 422.613281 193.136719 422.121094 194.742188 422.613281 193.136719 Z M 422.613281 193.136719 " fill-opacity="1" fill-rule="nonzero"/><path fill="#ffffff" d="M 406 119.117188 C 406 119.117188 406.027344 118.753906 406.324219 118.476562 C 407.304688 117.558594 409.519531 115.882812 412.734375 116.171875 C 416.332031 116.496094 418.015625 120.0625 418.582031 121.332031 C 418.675781 121.546875 418.648438 121.730469 418.648438 121.730469 C 418.648438 121.730469 418.648438 121.933594 418.507812 122.0625 C 417.871094 122.675781 415.785156 124.363281 412.367188 124.109375 C 410.335938 123.953125 407.582031 122.609375 406.066406 119.691406 C 405.960938 119.488281 405.972656 119.246094 405.992188 119.109375 Z M 406 119.117188 " fill-opacity="1" fill-rule="nonzero"/><path fill="#26130f" d="M 417.117188 120.421875 C 417.117188 120.917969 417.019531 121.394531 416.832031 121.851562 C 416.640625 122.308594 416.371094 122.714844 416.019531 123.066406 C 415.667969 123.417969 415.265625 123.6875 414.804688 123.875 C 414.347656 124.066406 413.871094 124.160156 413.375 124.160156 C 412.878906 124.160156 412.402344 124.066406 411.941406 123.875 C 411.484375 123.6875 411.078125 123.417969 410.730469 123.066406 C 410.378906 122.714844 410.109375 122.308594 409.917969 121.851562 C 409.726562 121.394531 409.632812 120.917969 409.632812 120.421875 C 409.632812 119.925781 409.726562 119.449219 409.917969 118.988281 C 410.109375 118.53125 410.378906 118.125 410.730469 117.777344 C 411.082031 117.425781 411.484375 117.15625 411.941406 116.964844 C 412.402344 116.773438 412.878906 116.679688 413.375 116.679688 C 413.871094 116.679688 414.347656 116.773438 414.804688 116.964844 C 415.265625 117.15625 415.667969 117.425781 416.019531 117.777344 C 416.371094 118.125 416.640625 118.53125 416.832031 118.988281 C 417.019531 119.449219 417.117188 119.925781 417.117188 120.421875 Z M 417.117188 120.421875 " fill-opacity="1" fill-rule="nonzero"/><path fill="#ffffff" d="M 412.117188 119.457031 C 412.117188 119.589844 412.09375 119.722656 412.039062 119.847656 C 411.988281 119.972656 411.914062 120.085938 411.816406 120.179688 C 411.722656 120.277344 411.609375 120.351562 411.484375 120.402344 C 411.359375 120.457031 411.226562 120.480469 411.09375 120.480469 C 410.957031 120.480469 410.824219 120.457031 410.699219 120.402344 C 410.574219 120.351562 410.460938 120.277344 410.367188 120.179688 C 410.269531 120.085938 410.195312 119.972656 410.144531 119.847656 C 410.089844 119.722656 410.066406 119.589844 410.066406 119.457031 C 410.066406 119.320312 410.089844 119.1875 410.144531 119.0625 C 410.195312 118.9375 410.269531 118.824219 410.367188 118.730469 C 410.460938 118.632812 410.574219 118.558594 410.699219 118.507812 C 410.824219 118.453125 410.957031 118.429688 411.09375 118.429688 C 411.226562 118.429688 411.359375 118.453125 411.484375 118.507812 C 411.609375 118.558594 411.722656 118.632812 411.816406 118.730469 C 411.914062 118.824219 411.988281 118.9375 412.039062 119.0625 C 412.09375 119.1875 412.117188 119.320312 412.117188 119.457031 Z M 412.117188 119.457031 " fill-opacity="1" fill-rule="nonzero"/><path stroke-linecap="butt" transform="matrix(0.675344, 0, 0, 0.67523, 0.665679, -298.707975)" fill="none" stroke-linejoin="miter" d="M 619.150107 622.110138 C 619.150107 622.110138 613.811389 608.787129 600.467485 617.788693 " stroke="#231f20" stroke-width="1" stroke-opacity="1" stroke-miterlimit="10"/><path fill="#ffffff" d="M 447.269531 125.902344 C 447.269531 125.902344 447.242188 125.566406 447.480469 125.261719 C 448.257812 124.269531 450.078125 122.390625 453.113281 122.203125 C 456.507812 121.988281 458.582031 125.066406 459.292969 126.160156 C 459.414062 126.347656 459.414062 126.523438 459.414062 126.523438 C 459.414062 126.523438 459.441406 126.714844 459.332031 126.855469 C 458.832031 127.515625 457.128906 129.386719 453.914062 129.636719 C 452.003906 129.785156 449.25 128.929688 447.425781 126.429688 C 447.296875 126.253906 447.277344 126.023438 447.269531 125.902344 Z M 447.269531 125.902344 " fill-opacity="1" fill-rule="nonzero"/><path fill="#26130f" d="M 457.820312 126.058594 C 457.820312 126.523438 457.730469 126.96875 457.550781 127.398438 C 457.375 127.828125 457.121094 128.207031 456.792969 128.535156 C 456.464844 128.867188 456.085938 129.117188 455.65625 129.296875 C 455.226562 129.472656 454.777344 129.5625 454.3125 129.5625 C 453.847656 129.5625 453.402344 129.472656 452.972656 129.296875 C 452.542969 129.117188 452.164062 128.867188 451.835938 128.535156 C 451.507812 128.207031 451.253906 127.828125 451.074219 127.398438 C 450.898438 126.96875 450.808594 126.523438 450.808594 126.058594 C 450.808594 125.59375 450.898438 125.148438 451.074219 124.71875 C 451.253906 124.289062 451.507812 123.910156 451.835938 123.582031 C 452.164062 123.253906 452.542969 123 452.972656 122.820312 C 453.402344 122.644531 453.847656 122.554688 454.3125 122.554688 C 454.777344 122.554688 455.226562 122.644531 455.65625 122.820312 C 456.085938 123 456.464844 123.253906 456.792969 123.582031 C 457.121094 123.910156 457.375 124.289062 457.550781 124.71875 C 457.730469 125.148438 457.820312 125.59375 457.820312 126.058594 Z M 457.820312 126.058594 " fill-opacity="1" fill-rule="nonzero"/><path fill="#ffffff" d="M 452.921875 125.546875 C 452.921875 125.816406 452.828125 126.046875 452.636719 126.238281 C 452.445312 126.429688 452.214844 126.523438 451.945312 126.523438 C 451.671875 126.523438 451.441406 126.429688 451.25 126.238281 C 451.058594 126.046875 450.964844 125.816406 450.964844 125.546875 C 450.964844 125.273438 451.058594 125.042969 451.25 124.851562 C 451.441406 124.664062 451.671875 124.566406 451.945312 124.566406 C 452.214844 124.566406 452.445312 124.664062 452.636719 124.851562 C 452.828125 125.042969 452.921875 125.273438 452.921875 125.546875 Z M 452.921875 125.546875 " fill-opacity="1" fill-rule="nonzero"/><path stroke-linecap="butt" transform="matrix(0.675344, 0, 0, 0.67523, 0.665679, -298.707975)" fill="none" stroke-linejoin="miter" d="M 679.188997 629.387753 C 679.188997 629.387753 672.658756 617.03085 661.460751 628.109253 " stroke="#231f20" stroke-width="1" stroke-opacity="1" stroke-miterlimit="10"/><path stroke-linecap="butt" transform="matrix(0.675344, 0, 0, 0.67523, 0.665679, -298.707975)" fill="none" stroke-linejoin="miter" d="M 647.700392 628.647264 L 657.70109 649.652842 C 657.70109 649.652842 662.611785 665.399794 652.339235 666.950192 C 643.211936 668.332823 643.11939 666.348545 643.11939 666.348545 " stroke="#231f20" stroke-width="1.2" stroke-opacity="1" stroke-miterlimit="10"/><path fill="#b6302e" d="M 353.816406 188.992188 C 353.816406 188.992188 390.136719 215.109375 396.648438 228.847656 L 396.605469 215.730469 C 396.605469 215.730469 369.746094 195.359375 360.726562 181.179688 Z M 353.816406 188.992188 " fill-opacity="1" fill-rule="nonzero"/><path fill="#b6302e" d="M 430.980469 193.527344 C 430.980469 193.527344 443.730469 194.785156 442.476562 203.992188 L 411.558594 223.980469 L 411.214844 216.203125 C 411.214844 216.203125 422.6875 210.625 432.589844 200.179688 C 432.589844 200.179688 430.988281 198.023438 430.988281 193.535156 Z M 430.980469 193.527344 " fill-opacity="1" fill-rule="nonzero"/><path stroke-linecap="butt" transform="matrix(0.675344, 0, 0, 0.67523, 0.665679, -298.707975)" fill="none" stroke-linejoin="miter" d="M 604.707226 826.270935 C 604.707226 826.270935 608.200818 869.317618 608.599921 958.517565 " stroke="#be1e2d" stroke-width="1" stroke-opacity="1" stroke-miterlimit="10"/><path fill="#efcccd" d="M 401.949219 261.289062 C 402.203125 261.296875 402.449219 261.359375 402.683594 261.472656 C 402.917969 261.585938 403.121094 261.742188 403.296875 261.945312 C 403.472656 262.148438 403.609375 262.378906 403.699219 262.640625 C 403.789062 262.898438 403.828125 263.167969 403.820312 263.445312 C 403.8125 263.726562 403.757812 263.992188 403.648438 264.246094 C 403.542969 264.5 403.398438 264.722656 403.210938 264.914062 C 403.023438 265.105469 402.808594 265.25 402.566406 265.351562 C 402.328125 265.449219 402.078125 265.496094 401.820312 265.488281 C 401.5625 265.480469 401.320312 265.417969 401.085938 265.304688 C 400.851562 265.191406 400.644531 265.035156 400.46875 264.832031 C 400.292969 264.628906 400.160156 264.398438 400.070312 264.136719 C 399.980469 263.878906 399.9375 263.609375 399.945312 263.332031 C 399.957031 263.050781 400.011719 262.785156 400.117188 262.53125 C 400.222656 262.277344 400.371094 262.054688 400.558594 261.863281 C 400.746094 261.671875 400.960938 261.527344 401.199219 261.425781 C 401.441406 261.328125 401.691406 261.28125 401.949219 261.289062 Z M 401.949219 261.289062 " fill-opacity="1" fill-rule="nonzero"/><path fill="#efcccd" d="M 405.800781 296.660156 C 406.058594 296.667969 406.304688 296.730469 406.539062 296.84375 C 406.773438 296.957031 406.976562 297.113281 407.152344 297.316406 C 407.328125 297.519531 407.460938 297.75 407.554688 298.011719 C 407.644531 298.269531 407.683594 298.539062 407.675781 298.820312 C 407.667969 299.097656 407.609375 299.363281 407.503906 299.617188 C 407.398438 299.871094 407.25 300.09375 407.0625 300.285156 C 406.875 300.476562 406.664062 300.621094 406.421875 300.722656 C 406.179688 300.820312 405.933594 300.867188 405.675781 300.859375 C 405.417969 300.851562 405.171875 300.789062 404.9375 300.675781 C 404.703125 300.5625 404.5 300.40625 404.324219 300.203125 C 404.148438 300 404.015625 299.769531 403.925781 299.511719 C 403.835938 299.25 403.792969 298.980469 403.800781 298.703125 C 403.808594 298.421875 403.867188 298.15625 403.972656 297.902344 C 404.078125 297.648438 404.226562 297.425781 404.414062 297.234375 C 404.601562 297.042969 404.816406 296.898438 405.054688 296.796875 C 405.296875 296.699219 405.546875 296.652344 405.800781 296.660156 Z M 405.800781 296.660156 " fill-opacity="1" fill-rule="nonzero"/><path fill="#efcccd" d="M 407.085938 334.863281 C 407.34375 334.871094 407.589844 334.933594 407.824219 335.046875 C 408.058594 335.160156 408.261719 335.320312 408.4375 335.519531 C 408.613281 335.722656 408.746094 335.953125 408.835938 336.214844 C 408.925781 336.476562 408.96875 336.742188 408.960938 337.023438 C 408.953125 337.300781 408.894531 337.566406 408.789062 337.820312 C 408.683594 338.074219 408.535156 338.296875 408.347656 338.488281 C 408.160156 338.679688 407.945312 338.828125 407.707031 338.925781 C 407.464844 339.023438 407.21875 339.070312 406.960938 339.0625 C 406.703125 339.054688 406.457031 338.996094 406.222656 338.882812 C 405.988281 338.765625 405.785156 338.609375 405.609375 338.40625 C 405.433594 338.203125 405.300781 337.972656 405.210938 337.714844 C 405.117188 337.453125 405.078125 337.183594 405.085938 336.90625 C 405.09375 336.628906 405.152344 336.363281 405.257812 336.105469 C 405.363281 335.851562 405.511719 335.628906 405.699219 335.4375 C 405.886719 335.246094 406.097656 335.101562 406.339844 335.003906 C 406.582031 334.902344 406.828125 334.859375 407.085938 334.863281 Z M 407.085938 334.863281 " fill-opacity="1" fill-rule="nonzero"/><path fill="#efcccd" d="M 365.371094 346.824219 L 372.855469 339.246094 L 380.433594 346.730469 L 372.949219 354.304688 Z M 365.371094 346.824219 " fill-opacity="1" fill-rule="nonzero"/><path fill="#efcccd" d="M 380.375 346.730469 L 387.859375 339.15625 L 395.4375 346.636719 L 387.953125 354.214844 Z M 380.375 346.730469 " fill-opacity="1" fill-rule="nonzero"/><path fill="#efcccd" d="M 365.28125 331.878906 L 372.765625 324.304688 L 380.339844 331.789062 L 372.855469 339.363281 Z M 365.28125 331.878906 " fill-opacity="1" fill-rule="nonzero"/><path fill="#58595b" d="M 372.800781 339.453125 L 380.285156 331.878906 L 387.859375 339.363281 L 380.375 346.9375 Z M 372.800781 339.453125 " fill-opacity="1" fill-rule="nonzero"/><path fill="#efcccd" d="M 380.289062 331.792969 L 387.773438 324.21875 L 395.347656 331.699219 L 387.863281 339.277344 Z M 380.289062 331.792969 " fill-opacity="1" fill-rule="nonzero"/><path fill="#efcccd" d="M 365.140625 316.621094 L 372.625 309.046875 L 380.199219 316.53125 L 372.714844 324.105469 Z M 365.140625 316.621094 " fill-opacity="1" fill-rule="nonzero"/><path fill="#58595b" d="M 372.660156 324.199219 L 380.144531 316.621094 L 387.722656 324.105469 L 380.238281 331.679688 Z M 372.660156 324.199219 " fill-opacity="1" fill-rule="nonzero"/><path fill="#efcccd" d="M 380.144531 316.53125 L 387.628906 308.953125 L 395.203125 316.4375 L 387.71875 324.011719 Z M 380.144531 316.53125 " fill-opacity="1" fill-rule="nonzero"/><path fill="#efcccd" d="M 365.089844 301.542969 L 372.574219 293.96875 L 380.152344 301.453125 L 372.667969 309.027344 Z M 365.089844 301.542969 " fill-opacity="1" fill-rule="nonzero"/><path fill="#58595b" d="M 372.609375 309.109375 L 380.09375 301.53125 L 387.671875 309.015625 L 380.1875 316.589844 Z M 372.609375 309.109375 " fill-opacity="1" fill-rule="nonzero"/><path fill="#efcccd" d="M 380.105469 301.453125 L 387.589844 293.875 L 395.164062 301.359375 L 387.679688 308.933594 Z M 380.105469 301.453125 " fill-opacity="1" fill-rule="nonzero"/><path fill="#efcccd" d="M 365 286.546875 L 372.484375 278.972656 L 380.0625 286.457031 L 372.578125 294.03125 Z M 365 286.546875 " fill-opacity="1" fill-rule="nonzero"/><path fill="#58595b" d="M 372.519531 294.125 L 380.003906 286.546875 L 387.582031 294.03125 L 380.097656 301.605469 Z M 372.519531 294.125 " fill-opacity="1" fill-rule="nonzero"/><path fill="#efcccd" d="M 380.015625 286.460938 L 387.5 278.886719 L 395.074219 286.367188 L 387.589844 293.945312 Z M 380.015625 286.460938 " fill-opacity="1" fill-rule="nonzero"/><path fill="#efcccd" d="M 364.910156 271.5625 L 372.394531 263.988281 L 379.972656 271.472656 L 372.488281 279.046875 Z M 364.910156 271.5625 " fill-opacity="1" fill-rule="nonzero"/><path fill="#58595b" d="M 372.429688 279.128906 L 379.914062 271.550781 L 387.492188 279.035156 L 380.007812 286.609375 Z M 372.429688 279.128906 " fill-opacity="1" fill-rule="nonzero"/><path fill="#efcccd" d="M 379.914062 271.472656 L 387.398438 263.894531 L 394.976562 271.378906 L 387.492188 278.953125 Z M 379.914062 271.472656 " fill-opacity="1" fill-rule="nonzero"/><path fill="#efcccd" d="M 364.816406 256.566406 L 372.300781 248.992188 L 379.878906 256.476562 L 372.394531 264.050781 Z M 364.816406 256.566406 " fill-opacity="1" fill-rule="nonzero"/><path fill="#58595b" d="M 372.335938 264.136719 L 379.820312 256.5625 L 387.398438 264.046875 L 379.914062 271.621094 Z M 372.335938 264.136719 " fill-opacity="1" fill-rule="nonzero"/><path fill="#efcccd" d="M 379.828125 256.476562 L 387.3125 248.898438 L 394.890625 256.382812 L 387.40625 263.957031 Z M 379.828125 256.476562 " fill-opacity="1" fill-rule="nonzero"/><path fill="#efcccd" d="M 364.730469 241.628906 L 372.214844 234.054688 L 379.792969 241.535156 L 372.308594 249.113281 Z M 364.730469 241.628906 " fill-opacity="1" fill-rule="nonzero"/><path fill="#58595b" d="M 372.25 249.191406 L 379.734375 241.617188 L 387.3125 249.101562 L 379.828125 256.675781 Z M 372.25 249.191406 " fill-opacity="1" fill-rule="nonzero"/><path fill="#efcccd" d="M 379.734375 241.535156 L 387.21875 233.960938 L 394.796875 241.445312 L 387.3125 249.019531 Z M 379.734375 241.535156 " fill-opacity="1" fill-rule="nonzero"/><path fill="#efcccd" d="M 364.628906 226.632812 L 372.113281 219.058594 L 379.691406 226.539062 L 372.207031 234.117188 Z M 364.628906 226.632812 " fill-opacity="1" fill-rule="nonzero"/><path fill="#58595b" d="M 372.15625 234.203125 L 379.640625 226.628906 L 387.21875 234.113281 L 379.734375 241.6875 Z M 372.15625 234.203125 " fill-opacity="1" fill-rule="nonzero"/><path fill="#efcccd" d="M 379.648438 226.539062 L 387.132812 218.964844 L 394.710938 226.449219 L 387.226562 234.023438 Z M 379.648438 226.539062 " fill-opacity="1" fill-rule="nonzero"/><path fill="#efcccd" d="M 364.574219 211.6875 L 372.0625 204.109375 L 379.636719 211.59375 L 372.152344 219.167969 Z M 364.574219 211.6875 " fill-opacity="1" fill-rule="nonzero"/><path fill="#58595b" d="M 372.09375 219.265625 L 379.578125 211.691406 L 387.15625 219.175781 L 379.671875 226.75 Z M 372.09375 219.265625 " fill-opacity="1" fill-rule="nonzero"/><path fill="#58595b" d="M 380.957031 210.191406 L 379.632812 211.597656 L 372.058594 204.117188 L 372.441406 203.71875 " fill-opacity="1" fill-rule="nonzero"/><path fill="#efcccd" d="M 387.15625 219.085938 L 379.582031 211.605469 L 380.957031 210.191406 L 389.3125 216.953125 Z M 387.15625 219.085938 " fill-opacity="1" fill-rule="nonzero"/><path fill="#3c2415" d="M 372.347656 128.597656 L 377.546875 126.847656 C 379.082031 113.984375 383.140625 86.503906 393.433594 75.910156 C 393.433594 75.910156 433.757812 61.371094 456.664062 79.757812 C 456.664062 79.757812 463.082031 85.625 461.371094 119.355469 C 461.371094 119.355469 470.050781 97.902344 464.929688 77.117188 C 464.929688 77.117188 471.914062 73.277344 473.027344 71.269531 C 473.027344 71.269531 464.300781 71.832031 460.519531 66.976562 C 458.304688 64.132812 426.941406 32.257812 384.964844 56.160156 C 384.964844 56.160156 346.449219 60.554688 355.300781 119.496094 C 355.300781 119.496094 367.667969 116.417969 372.347656 128.597656 Z M 372.347656 128.597656 " fill-opacity="1" fill-rule="nonzero"/><path fill="#3c2415" d="M 407.546875 163.304688 C 407.546875 163.304688 407.101562 153.515625 415.339844 151.570312 C 425.457031 149.179688 436.242188 148.984375 443.691406 153.371094 C 451.140625 157.761719 455.0625 162.339844 448.925781 162.265625 C 442.785156 162.191406 430.898438 154.007812 417.5625 159.875 C 417.5625 159.875 412.214844 164.898438 407.554688 163.304688 Z M 407.546875 163.304688 " fill-opacity="1" fill-rule="nonzero"/><path stroke-linecap="butt" transform="matrix(0.675344, 0, 0, 0.67523, 0.665679, -298.707975)" fill-opacity="1" fill="#be9e7d" fill-rule="nonzero" stroke-linejoin="miter" d="M 833.5491 823.031297 L 787.259 860.252418 L 700.480245 848.797985 L 694.279697 845.552563 L 683.058556 826.062672 C 683.058556 826.062672 676.470473 816.667724 674.677404 812.658672 C 672.352199 807.452112 669.182516 808.337227 669.182516 808.337227 C 669.182516 808.337227 665.71206 810.217374 668.291765 816.019796 L 671.542426 826.062672 C 671.542426 826.062672 666.811037 825.84284 647.758233 815.649552 C 628.711214 805.462049 625.391144 810.437207 625.61094 813.659489 C 625.61094 813.659489 622.707325 812.710738 621.729813 812.548756 C 618.299845 811.999175 614.638514 813.879322 616.078753 818.640432 C 616.217572 819.097452 617.212436 819.178443 617.189299 819.751164 C 617.189299 819.751164 610.768956 826.062672 621.839711 829.828751 C 621.839711 829.828751 617.270277 833.20723 625.830735 838.031976 C 632.922034 842.017887 640.892514 846.888913 640.892514 846.888913 C 640.892514 846.888913 649.967757 852.141754 653.51919 855.751636 C 661.790444 864.168908 676.852224 868.299446 684.828488 866.239962 L 690.739832 868.901093 L 802.870268 917.310533 C 802.870268 917.310533 818.302229 924.501371 863.770988 877.428282 C 882.70811 857.828475 886.600805 853.258272 886.600805 853.258272 C 886.600805 853.258272 849.680936 851.921922 833.560668 823.048653 Z M 833.5491 823.031297 " stroke="#754c29" stroke-width="1" stroke-opacity="1" stroke-miterlimit="10"/><path stroke-linecap="butt" transform="matrix(0.675344, 0, 0, 0.67523, 0.665679, -298.707975)" fill="none" stroke-linejoin="miter" d="M 624.639212 813.72891 C 624.639212 813.72891 636.01074 814.758652 654.467782 827.16762 " stroke="#603913" stroke-width="0.8" stroke-opacity="1" stroke-miterlimit="10"/><path stroke-linecap="butt" transform="matrix(0.675344, 0, 0, 0.67523, 0.665679, -298.707975)" fill="none" stroke-linejoin="miter" d="M 617.189299 819.739594 C 617.189299 819.739594 631.371897 819.519762 650.638712 833.068388 " stroke="#603913" stroke-width="0.8" stroke-opacity="1" stroke-miterlimit="10"/><path stroke-linecap="butt" transform="matrix(0.675344, 0, 0, 0.67523, 0.665679, -298.707975)" fill="none" stroke-linejoin="miter" d="M 621.839711 829.817181 C 621.839711 829.817181 634.101989 831.587411 645.028141 840.160881 " stroke="#603913" stroke-width="0.8" stroke-opacity="1" stroke-miterlimit="10"/><path stroke-linecap="butt" transform="matrix(0.675344, 0, 0, 0.67523, 0.665679, -298.707975)" fill-opacity="1" fill="#be9e7d" fill-rule="nonzero" stroke-linejoin="miter" d="M 467.878711 928.400506 C 527.25243 1041.382863 602.312611 1013.85173 602.312611 1013.85173 C 678.518042 1001.882426 775.019858 915.129563 775.019858 915.129563 L 786.362465 911.392409 L 806.849724 908.297399 C 806.849724 908.297399 855.008086 892.82813 859.652713 888.07859 C 864.291556 883.32905 864.389886 868.137464 864.389886 868.137464 C 870.729252 857.238398 866.767148 849.272361 866.767148 849.272361 C 874.477345 837.528675 864.251068 836.261745 864.251068 836.261745 C 861.81018 825.848625 854.811427 831.668402 854.811427 831.668402 L 838.002852 849.208725 C 838.002852 849.208725 828.63262 856.11031 810.458998 856.711957 C 792.291161 857.302034 809.290612 843.898034 809.290612 843.898034 C 817.34207 829.851891 804.119632 831.807244 804.119632 831.807244 C 782.799464 836.799757 765.129058 876.601017 765.129058 876.601017 L 601.930861 930.552551 L 556.930614 884.532344 " stroke="#754c29" stroke-width="1" stroke-opacity="1" stroke-miterlimit="10"/><path stroke-linecap="butt" transform="matrix(0.675344, 0, 0, 0.67523, 0.665679, -298.707975)" fill="none" stroke-linejoin="miter" d="M 864.251068 836.279101 C 864.251068 836.279101 852.202801 857.787979 831.461042 864.677994 " stroke="#603913" stroke-width="1" stroke-opacity="1" stroke-miterlimit="10"/><path stroke-linecap="butt" transform="matrix(0.675344, 0, 0, 0.67523, 0.665679, -298.707975)" fill="none" stroke-linejoin="miter" d="M 866.657251 849.012033 C 866.657251 849.012033 851.942517 870.76967 831.322224 875.310947 " stroke="#603913" stroke-width="1" stroke-opacity="1" stroke-miterlimit="10"/><path stroke-linecap="butt" transform="matrix(0.675344, 0, 0, 0.67523, 0.665679, -298.707975)" fill="none" stroke-linejoin="miter" d="M 864.401454 868.149034 L 846.557526 883.600948 L 832.392281 886.048031 " stroke="#603913" stroke-width="1" stroke-opacity="1" stroke-miterlimit="10"/><path stroke-linecap="butt" transform="matrix(0.675344, 0, 0, 0.67523, 0.665679, -298.707975)" fill-opacity="1" fill="#dc3b28" fill-rule="nonzero" stroke-linejoin="miter" d="M 465.680755 768.252499 C 520.409848 769.478933 557.219818 883.230704 557.219818 883.230704 L 467.190404 937.84752 C 467.190404 937.84752 445.430644 917.738628 433.27248 895.992561 " stroke="#be1e2d" stroke-width="1" stroke-opacity="1" stroke-miterlimit="10"/><path fill="#efcccd" d="M 370.292969 286.203125 L 366.929688 298.929688 L 354.277344 295.589844 L 357.792969 282.292969 L 369.9375 285.488281 " fill-opacity="1" fill-rule="nonzero"/><path fill="#58595b" d="M 365.183594 277.703125 L 369.9375 285.488281 L 357.921875 282.292969 L 360.875 271.070312 Z M 365.183594 277.703125 " fill-opacity="1" fill-rule="nonzero"/><path fill="#efcccd" d="M 360.8125 271.058594 L 357.820312 282.347656 L 345.171875 279.003906 L 348.691406 265.710938 L 359.023438 268.445312 " fill-opacity="1" fill-rule="nonzero"/><path fill="#efcccd" d="M 338.050781 305.496094 L 341.566406 292.199219 L 354.222656 295.542969 L 350.707031 308.84375 Z M 338.050781 305.496094 " fill-opacity="1" fill-rule="nonzero"/><path fill="#58595b" d="M 341.699219 292.207031 L 345.214844 278.910156 L 357.871094 282.253906 L 354.351562 295.550781 Z M 341.699219 292.207031 " fill-opacity="1" fill-rule="nonzero"/><path fill="#efcccd" d="M 328.949219 288.910156 L 332.464844 275.613281 L 345.117188 278.957031 L 341.601562 292.253906 Z M 328.949219 288.910156 " fill-opacity="1" fill-rule="nonzero"/><path fill="#efcccd" d="M 321.957031 315.410156 L 325.472656 302.113281 L 338.128906 305.457031 L 334.609375 318.753906 Z M 321.957031 315.410156 " fill-opacity="1" fill-rule="nonzero"/><path fill="#58595b" d="M 325.601562 302.113281 L 329.117188 288.816406 L 341.769531 292.160156 L 338.253906 305.457031 Z M 325.601562 302.113281 " fill-opacity="1" fill-rule="nonzero"/><path fill="#efcccd" d="M 312.855469 298.824219 L 316.371094 285.523438 L 329.023438 288.871094 L 325.507812 302.167969 Z M 312.855469 298.824219 " fill-opacity="1" fill-rule="nonzero"/><path fill="#58595b" d="M 309.507812 312.019531 L 313.023438 298.71875 L 325.675781 302.066406 L 322.160156 315.363281 Z M 309.507812 312.019531 " fill-opacity="1" fill-rule="nonzero"/><path fill="#efcccd" d="M 305.902344 325.46875 L 309.421875 312.171875 L 322.074219 315.519531 L 318.558594 328.816406 Z M 305.902344 325.46875 " fill-opacity="1" fill-rule="nonzero"/><path fill="#efcccd" d="M 296.800781 308.882812 L 300.316406 295.585938 L 312.96875 298.929688 L 309.453125 312.226562 Z M 296.800781 308.882812 " fill-opacity="1" fill-rule="nonzero"/><path fill="#58595b" d="M 296.082031 312.152344 L 296.964844 308.789062 L 309.621094 312.140625 L 306.101562 325.433594 " fill-opacity="1" fill-rule="nonzero"/></svg>