<?xml version="1.0" encoding="UTF-8"?>
<svg id="Layer_1" data-name="Layer 1" xmlns="http://www.w3.org/2000/svg" xmlns:xlink="http://www.w3.org/1999/xlink" viewBox="0 0 2135.4 2031.25">
  <defs>
    <style>
      .cls-1, .cls-2, .cls-3, .cls-4, .cls-5, .cls-6, .cls-7, .cls-8, .cls-9, .cls-10, .cls-11, .cls-12, .cls-13, .cls-14 {
        fill: none;
      }

      .cls-2, .cls-3, .cls-4, .cls-5, .cls-15, .cls-16, .cls-17, .cls-18, .cls-6, .cls-7, .cls-8, .cls-9, .cls-10, .cls-11, .cls-12, .cls-13, .cls-19, .cls-14, .cls-20, .cls-21 {
        stroke-miterlimit: 10;
      }

      .cls-2, .cls-19 {
        stroke: #2e3192;
        stroke-width: 1.5px;
      }

      .cls-3 {
        stroke: #d1d3d4;
      }

      .cls-3, .cls-4, .cls-20, .cls-21 {
        stroke-width: 6px;
      }

      .cls-4, .cls-9, .cls-14, .cls-20 {
        stroke: #fff;
      }

      .cls-22 {
        clip-path: url(#clippath);
      }

      .cls-5 {
        stroke-width: .8px;
      }

      .cls-5, .cls-10 {
        stroke: #603913;
      }

      .cls-23, .cls-16, .cls-19 {
        fill: #fff;
      }

      .cls-24 {
        fill: #fbb040;
      }

      .cls-25 {
        fill: #f16225;
      }

      .cls-26 {
        fill: #803435;
      }

      .cls-27 {
        fill: #8b6340;
      }

      .cls-28 {
        fill: #be9e7d;
      }

      .cls-29 {
        fill: #be8c8c;
      }

      .cls-30 {
        fill: #bde4e0;
      }

      .cls-31 {
        fill: #bf6b6b;
      }

      .cls-32, .cls-17 {
        fill: #ca544c;
      }

      .cls-33 {
        fill: #231f20;
      }

      .cls-34 {
        fill: #1fa8df;
      }

      .cls-35 {
        fill: #0f3e5d;
      }

      .cls-36, .cls-18 {
        fill: #9c2024;
      }

      .cls-37 {
        fill: #3c2415;
      }

      .cls-38 {
        fill: #59bede;
      }

      .cls-39 {
        fill: #26130f;
      }

      .cls-15, .cls-6, .cls-7 {
        stroke-width: 2px;
      }

      .cls-15, .cls-21 {
        fill: #a97c50;
        stroke: #a97c50;
      }

      .cls-40 {
        clip-path: url(#clippath-1);
      }

      .cls-41 {
        clip-path: url(#clippath-2);
      }

      .cls-16 {
        stroke: #414042;
      }

      .cls-17, .cls-12 {
        stroke: #be1e2d;
      }

      .cls-18, .cls-8, .cls-13 {
        stroke: #231f20;
      }

      .cls-6 {
        stroke: #1c75bc;
      }

      .cls-7 {
        stroke: #fbb040;
      }

      .cls-11 {
        stroke: #754c29;
      }

      .cls-13 {
        stroke-width: 1.2px;
      }

      .cls-42 {
        opacity: .8;
      }

      .cls-14 {
        stroke-dasharray: 0 0 3 3;
      }

      .cls-20 {
        fill: #c8eaf6;
      }
    </style>
    <clipPath id="clippath">
      <rect class="cls-1" x="637.21" y="217.68" width="775.12" height="512.44"/>
    </clipPath>
    <clipPath id="clippath-1">
      <rect class="cls-1" x="637.38" y="1021.26" width="1333.82" height="196.3"/>
    </clipPath>
    <clipPath id="clippath-2">
      <rect class="cls-1" x="340.63" y="987.98" width="1794.77" height="1043.27"/>
    </clipPath>
  </defs>
  <rect class="cls-30" x="637.21" y="217.68" width="1333.75" height="1000.02"/>
  <g class="cls-22">
    <g>
      <rect class="cls-20" x="628.98" y="38.96" width="690.45" height="607.47"/>
      <line class="cls-21" x1="549.43" y1="17.37" x2="1398.92" y2="17.37"/>
      <circle class="cls-15" cx="543.09" cy="16.36" r="11.17"/>
      <circle class="cls-15" cx="1410.4" cy="17.86" r="11.17"/>
      <path class="cls-32" d="M574.58,0l-1.3,701.19s27.27,23.37,70.12,9.09v-29.87s38.96,10.39,61.03,0v24.67s40.25,15.58,53.24,1.3l-27.27-458.37L744.68,0l-70.12,1.3-15.58,3.9L633.01,0h-58.43Z"/>
      <path class="cls-32" d="M1386.51,0l1.3,701.19s-27.27,23.37-70.12,9.09v-29.87s-38.96,10.39-61.03,0v24.67s-40.25,15.58-53.24,1.3l27.27-458.37L1216.4,0l70.12,1.3,15.58,3.9L1328.08,0h58.43Z"/>
      <line class="cls-12" x1="643.4" y1="680.42" x2="630.03" y2="404.54"/>
      <line class="cls-12" x1="704.43" y1="680.42" x2="698.19" y2="421.18"/>
      <line class="cls-12" x1="633.01" y1="0" x2="628.29" y2="273.53"/>
      <line class="cls-12" x1="658.98" y1="5.2" x2="662.66" y2="413.65"/>
      <line class="cls-12" x1="1256.66" y1="680.42" x2="1257.51" y2="433.48"/>
      <line class="cls-12" x1="1317.69" y1="680.42" x2="1322.28" y2="359.45"/>
      <line class="cls-12" x1="1286.52" y1="1.31" x2="1286.59" y2="235.19"/>
      <line class="cls-12" x1="1328.08" y1="0" x2="1328.89" y2="292.04"/>
      <line class="cls-4" x1="974.85" y1="36.08" x2="974.85" y2="645.06"/>
      <line class="cls-3" x1="984.11" y1="44.05" x2="984.11" y2="639.71"/>
    </g>
  </g>
  <g class="cls-40">
    <g class="cls-41">
      <g>
        <polygon class="cls-27" points="54.64 1998.6 58.64 1167.09 2037.47 1167.09 2037.47 2002.6 1983.5 2002.6 1938.49 1323 154.95 1323 114.16 1998.6 54.64 1998.6"/>
        <g>
          <path class="cls-9" d="M3.49,1257.67s-3.89,16.02-.37,25.71c3.52,9.69-2.64,29.96-2.64,29.96"/>
          <path class="cls-9" d="M14.72,1259.29s-1.42,29.81,2.13,52.52"/>
          <path class="cls-9" d="M31.05,1260.71s4.26,9.94-1.42,21.29c-5.68,11.36-1.42,31.94-1.42,31.94"/>
          <path class="cls-9" d="M38.85,1309.68s-5.68-30.52,.71-48.26"/>
          <line class="cls-9" x1="45.95" y1="1262.13" x2="45.24" y2="1313.94"/>
          <path class="cls-9" d="M166.01,1264.05s-3.89,16.02-.37,25.71c3.52,9.69-2.64,29.96-2.64,29.96"/>
          <path class="cls-9" d="M177.25,1265.68s-1.42,29.81,2.13,52.52"/>
          <path class="cls-9" d="M193.57,1267.1s4.26,9.94-1.42,21.29c-5.68,11.36-1.42,31.94-1.42,31.94"/>
          <path class="cls-9" d="M201.38,1316.07s-5.68-30.52,.71-48.26"/>
          <line class="cls-9" x1="208.47" y1="1268.52" x2="207.76" y2="1320.33"/>
          <path class="cls-9" d="M220.66,1263.34s-3.89,16.02-.37,25.71c3.52,9.69-2.64,29.96-2.64,29.96"/>
          <path class="cls-9" d="M231.89,1264.97s-1.42,29.81,2.13,52.52"/>
          <path class="cls-9" d="M248.22,1266.39s4.26,9.94-1.42,21.29c-5.68,11.36-1.42,31.94-1.42,31.94"/>
          <path class="cls-9" d="M256.02,1315.36s-5.68-30.52,.71-48.26"/>
          <line class="cls-9" x1="263.12" y1="1267.81" x2="262.41" y2="1319.62"/>
          <path class="cls-9" d="M276.02,1260.5s-3.89,16.02-.37,25.71c3.52,9.69-2.64,29.96-2.64,29.96"/>
          <path class="cls-9" d="M287.25,1262.13s-1.42,29.81,2.13,52.52"/>
          <path class="cls-9" d="M303.57,1263.55s4.26,9.94-1.42,21.29c-5.68,11.36-1.42,31.94-1.42,31.94"/>
          <path class="cls-9" d="M311.38,1312.52s-5.68-30.52,.71-48.26"/>
          <line class="cls-9" x1="318.48" y1="1264.97" x2="317.77" y2="1316.78"/>
          <path class="cls-9" d="M328.54,1256.25s-3.89,16.02-.37,25.71c3.52,9.69-2.64,29.96-2.64,29.96"/>
          <path class="cls-9" d="M339.77,1257.88s-1.42,29.81,2.13,52.52"/>
          <path class="cls-9" d="M356.09,1259.29s4.26,9.94-1.42,21.29c-5.68,11.36-1.42,31.94-1.42,31.94"/>
          <path class="cls-9" d="M363.9,1308.26s-5.68-30.52,.71-48.26"/>
          <line class="cls-9" x1="371" y1="1260.71" x2="370.29" y2="1312.52"/>
          <path class="cls-9" d="M381.05,1251.28s-3.89,16.02-.37,25.71c3.52,9.69-2.64,29.96-2.64,29.96"/>
          <path class="cls-9" d="M392.29,1252.91s-1.42,29.81,2.13,52.52"/>
          <path class="cls-9" d="M408.61,1254.33s4.26,9.94-1.42,21.29c-5.68,11.36-1.42,31.94-1.42,31.94"/>
          <path class="cls-9" d="M416.42,1303.3s-5.68-30.52,.71-48.26"/>
          <line class="cls-9" x1="423.52" y1="1255.75" x2="422.81" y2="1307.55"/>
          <path class="cls-9" d="M434.28,1248.44s-3.89,16.02-.37,25.71c3.52,9.69-2.64,29.96-2.64,29.96"/>
          <path class="cls-9" d="M445.52,1250.07s-1.42,29.81,2.13,52.52"/>
          <path class="cls-9" d="M461.84,1251.49s4.26,9.94-1.42,21.29c-5.68,11.36-1.42,31.94-1.42,31.94"/>
          <path class="cls-9" d="M469.65,1300.46s-5.68-30.52,.71-48.26"/>
          <line class="cls-9" x1="476.74" y1="1252.91" x2="476.03" y2="1304.72"/>
          <path class="cls-9" d="M486.09,1249.15s-3.89,16.02-.37,25.71c3.52,9.69-2.64,29.96-2.64,29.96"/>
          <path class="cls-9" d="M497.33,1250.78s-1.42,29.81,2.13,52.52"/>
          <path class="cls-9" d="M513.65,1252.2s4.26,9.94-1.42,21.29c-5.68,11.36-1.42,31.94-1.42,31.94"/>
          <path class="cls-9" d="M521.46,1301.17s-5.68-30.52,.71-48.26"/>
          <line class="cls-9" x1="528.55" y1="1253.62" x2="527.84" y2="1305.43"/>
          <path class="cls-9" d="M539.32,1249.15s-3.89,16.02-.37,25.71c3.52,9.69-2.64,29.96-2.64,29.96"/>
          <path class="cls-9" d="M550.55,1250.78s-1.42,29.81,2.13,52.52"/>
          <path class="cls-9" d="M566.88,1252.2s4.26,9.94-1.42,21.29c-5.68,11.36-1.42,31.94-1.42,31.94"/>
          <path class="cls-9" d="M574.68,1301.17s-5.68-30.52,.71-48.26"/>
          <line class="cls-9" x1="581.78" y1="1253.62" x2="581.07" y2="1305.43"/>
          <path class="cls-9" d="M592.55,1252.7s-3.89,16.02-.37,25.71c3.52,9.69-2.64,29.96-2.64,29.96"/>
          <path class="cls-9" d="M603.78,1254.33s-1.42,29.81,2.13,52.52"/>
          <path class="cls-9" d="M620.11,1255.75s4.26,9.94-1.42,21.29c-5.68,11.36-1.42,31.94-1.42,31.94"/>
          <path class="cls-9" d="M627.91,1304.72s-5.68-30.52,.71-48.26"/>
          <line class="cls-9" x1="635.01" y1="1257.17" x2="634.3" y2="1308.97"/>
          <path class="cls-9" d="M645.78,1257.67s-3.89,16.02-.37,25.71c3.52,9.69-2.64,29.96-2.64,29.96"/>
          <path class="cls-9" d="M657.01,1259.29s-1.42,29.81,2.13,52.52"/>
          <path class="cls-9" d="M673.33,1260.71s4.26,9.94-1.42,21.29c-5.68,11.36-1.42,31.94-1.42,31.94"/>
          <path class="cls-9" d="M681.14,1309.68s-5.68-30.52,.71-48.26"/>
          <line class="cls-9" x1="688.24" y1="1262.13" x2="687.53" y2="1313.94"/>
          <path class="cls-9" d="M700.42,1263.34s-3.89,16.02-.37,25.71c3.52,9.69-2.64,29.96-2.64,29.96"/>
          <path class="cls-9" d="M711.66,1264.97s-1.42,29.81,2.13,52.52"/>
          <path class="cls-9" d="M727.98,1266.39s4.26,9.94-1.42,21.29c-5.68,11.36-1.42,31.94-1.42,31.94"/>
          <path class="cls-9" d="M735.79,1315.36s-5.68-30.52,.71-48.26"/>
          <line class="cls-9" x1="742.89" y1="1267.81" x2="742.18" y2="1319.62"/>
          <path class="cls-9" d="M753.65,1266.89s-3.89,16.02-.37,25.71-2.64,29.96-2.64,29.96"/>
          <path class="cls-9" d="M764.89,1268.52s-1.42,29.81,2.13,52.52"/>
          <path class="cls-9" d="M781.21,1269.94s4.26,9.94-1.42,21.29c-5.68,11.36-1.42,31.94-1.42,31.94"/>
          <path class="cls-9" d="M789.02,1318.91s-5.68-30.52,.71-48.26"/>
          <line class="cls-9" x1="796.11" y1="1271.36" x2="795.4" y2="1323.17"/>
          <path class="cls-9" d="M806.88,1269.73s-3.89,16.02-.37,25.71c3.52,9.69-2.64,29.96-2.64,29.96"/>
          <path class="cls-9" d="M818.12,1271.36s-1.42,29.81,2.13,52.52"/>
          <path class="cls-9" d="M834.44,1272.78s4.26,9.94-1.42,21.29c-5.68,11.36-1.42,31.94-1.42,31.94"/>
          <path class="cls-9" d="M842.25,1321.75s-5.68-30.52,.71-48.26"/>
          <line class="cls-9" x1="849.34" y1="1274.2" x2="848.63" y2="1326.01"/>
          <path class="cls-9" d="M861.53,1269.02s-3.89,16.02-.37,25.71c3.52,9.69-2.64,29.96-2.64,29.96"/>
          <path class="cls-9" d="M872.76,1270.65s-1.42,29.81,2.13,52.52"/>
          <path class="cls-9" d="M889.09,1272.07s4.26,9.94-1.42,21.29c-5.68,11.36-1.42,31.94-1.42,31.94"/>
          <path class="cls-9" d="M896.89,1321.04s-5.68-30.52,.71-48.26"/>
          <line class="cls-9" x1="903.99" y1="1273.49" x2="903.28" y2="1325.3"/>
          <path class="cls-9" d="M914.05,1266.18s-3.89,16.02-.37,25.71c3.52,9.69-2.64,29.96-2.64,29.96"/>
          <path class="cls-9" d="M925.28,1267.81s-1.42,29.81,2.13,52.52"/>
          <path class="cls-9" d="M941.61,1269.23s4.26,9.94-1.42,21.29c-5.68,11.36-1.42,31.94-1.42,31.94"/>
          <path class="cls-9" d="M949.41,1318.2s-5.68-30.52,.71-48.26"/>
          <line class="cls-9" x1="956.51" y1="1270.65" x2="955.8" y2="1322.46"/>
          <path class="cls-9" d="M965.86,1261.21s-3.89,16.02-.37,25.71c3.52,9.69-2.64,29.96-2.64,29.96"/>
          <path class="cls-9" d="M977.09,1262.84s-1.42,29.81,2.13,52.52"/>
          <path class="cls-9" d="M993.41,1264.26s4.26,9.94-1.42,21.29c-5.68,11.36-1.42,31.94-1.42,31.94"/>
          <path class="cls-9" d="M1001.22,1313.23s-5.68-30.52,.71-48.26"/>
          <line class="cls-9" x1="1008.32" y1="1265.68" x2="1007.61" y2="1317.49"/>
          <path class="cls-9" d="M1019.08,1250.57s-3.89,16.02-.37,25.71c3.52,9.69-2.64,29.96-2.64,29.96"/>
          <path class="cls-9" d="M1030.32,1252.2s-1.42,29.81,2.13,52.52"/>
          <path class="cls-9" d="M1046.64,1253.62s4.26,9.94-1.42,21.29c-5.68,11.36-1.42,31.94-1.42,31.94"/>
          <path class="cls-9" d="M1054.45,1302.59s-5.68-30.52,.71-48.26"/>
          <line class="cls-9" x1="1061.55" y1="1255.04" x2="1060.84" y2="1306.85"/>
          <path class="cls-9" d="M1072.31,1242.05s-3.89,16.02-.37,25.71-2.64,29.96-2.64,29.96"/>
          <path class="cls-9" d="M1083.55,1243.68s-1.42,29.81,2.13,52.52"/>
          <path class="cls-9" d="M1099.87,1245.1s4.26,9.94-1.42,21.29c-5.68,11.36-1.42,31.94-1.42,31.94"/>
          <path class="cls-9" d="M1107.68,1294.07s-5.68-30.52,.71-48.26"/>
          <line class="cls-9" x1="1114.77" y1="1246.52" x2="1114.06" y2="1298.33"/>
          <path class="cls-9" d="M1126.25,1234.95s-3.89,16.02-.37,25.71c3.52,9.69-2.64,29.96-2.64,29.96"/>
          <path class="cls-9" d="M1137.49,1236.58s-1.42,29.81,2.13,52.52"/>
          <path class="cls-9" d="M1153.81,1238s4.26,9.94-1.42,21.29c-5.68,11.36-1.42,31.94-1.42,31.94"/>
          <path class="cls-9" d="M1161.62,1286.97s-5.68-30.52,.71-48.26"/>
          <line class="cls-9" x1="1168.71" y1="1239.42" x2="1168" y2="1291.23"/>
          <path class="cls-9" d="M1179.48,1237.08s-3.89,16.02-.37,25.71c3.52,9.69-2.64,29.96-2.64,29.96"/>
          <path class="cls-9" d="M1190.71,1238.71s-1.42,29.81,2.13,52.52"/>
          <path class="cls-9" d="M1207.04,1240.13s4.26,9.94-1.42,21.29c-5.68,11.36-1.42,31.94-1.42,31.94"/>
          <path class="cls-9" d="M1214.84,1289.1s-5.68-30.52,.71-48.26"/>
          <line class="cls-9" x1="1221.94" y1="1241.55" x2="1221.23" y2="1293.36"/>
          <path class="cls-9" d="M1232.71,1240.63s-3.89,16.02-.37,25.71c3.52,9.69-2.64,29.96-2.64,29.96"/>
          <path class="cls-9" d="M1243.94,1242.26s-1.42,29.81,2.13,52.52"/>
          <path class="cls-9" d="M1260.27,1243.68s4.26,9.94-1.42,21.29c-5.68,11.36-1.42,31.94-1.42,31.94"/>
          <path class="cls-9" d="M1268.07,1292.65s-5.68-30.52,.71-48.26"/>
          <line class="cls-9" x1="1275.17" y1="1245.1" x2="1274.46" y2="1296.91"/>
          <path class="cls-9" d="M1283.81,1253.41s-3.89,16.02-.37,25.71c3.52,9.69-2.64,29.96-2.64,29.96"/>
          <path class="cls-9" d="M1295.04,1255.04s-1.42,29.81,2.13,52.52"/>
          <path class="cls-9" d="M1311.36,1256.46s4.26,9.94-1.42,21.29c-5.68,11.36-1.42,31.94-1.42,31.94"/>
          <path class="cls-9" d="M1319.17,1305.43s-5.68-30.52,.71-48.26"/>
          <line class="cls-9" x1="1326.27" y1="1257.88" x2="1325.56" y2="1309.68"/>
          <path class="cls-9" d="M1334.91,1261.21s-3.89,16.02-.37,25.71c3.52,9.69-2.64,29.96-2.64,29.96"/>
          <path class="cls-9" d="M1346.14,1262.84s-1.42,29.81,2.13,52.52"/>
          <path class="cls-9" d="M1362.46,1264.26s4.26,9.94-1.42,21.29c-5.68,11.36-1.42,31.94-1.42,31.94"/>
          <path class="cls-9" d="M1370.27,1313.23s-5.68-30.52,.71-48.26"/>
          <line class="cls-9" x1="1377.37" y1="1265.68" x2="1376.66" y2="1317.49"/>
          <path class="cls-9" d="M1386,1266.18s-3.89,16.02-.37,25.71c3.52,9.69-2.64,29.96-2.64,29.96"/>
          <path class="cls-9" d="M1397.24,1267.81s-1.42,29.81,2.13,52.52"/>
          <path class="cls-9" d="M1413.56,1269.23s4.26,9.94-1.42,21.29c-5.68,11.36-1.42,31.94-1.42,31.94"/>
          <path class="cls-9" d="M1421.37,1318.2s-5.68-30.52,.71-48.26"/>
          <line class="cls-9" x1="1428.47" y1="1270.65" x2="1427.76" y2="1322.46"/>
          <path class="cls-9" d="M1438.52,1271.86s-3.89,16.02-.37,25.71c3.52,9.69-2.64,29.96-2.64,29.96"/>
          <path class="cls-9" d="M1449.76,1273.49s-1.42,29.81,2.13,52.52"/>
          <path class="cls-9" d="M1466.08,1274.91s4.26,9.94-1.42,21.29c-5.68,11.36-1.42,31.94-1.42,31.94"/>
          <path class="cls-9" d="M1473.89,1323.88s-5.68-30.52,.71-48.26"/>
          <line class="cls-9" x1="1480.99" y1="1276.33" x2="1480.28" y2="1328.14"/>
          <path class="cls-9" d="M1491.75,1269.73s-3.89,16.02-.37,25.71c3.52,9.69-2.64,29.96-2.64,29.96"/>
          <path class="cls-9" d="M1502.99,1271.36s-1.42,29.81,2.13,52.52"/>
          <path class="cls-9" d="M1519.31,1272.78s4.26,9.94-1.42,21.29c-5.68,11.36-1.42,31.94-1.42,31.94"/>
          <path class="cls-9" d="M1527.12,1321.75s-5.68-30.52,.71-48.26"/>
          <line class="cls-9" x1="1534.21" y1="1274.2" x2="1533.5" y2="1326.01"/>
          <path class="cls-9" d="M1544.98,1263.34s-3.89,16.02-.37,25.71c3.52,9.69-2.64,29.96-2.64,29.96"/>
          <path class="cls-9" d="M1556.21,1264.97s-1.42,29.81,2.13,52.52"/>
          <path class="cls-9" d="M1572.54,1266.39s4.26,9.94-1.42,21.29c-5.68,11.36-1.42,31.94-1.42,31.94"/>
          <path class="cls-9" d="M1580.35,1315.36s-5.68-30.52,.71-48.26"/>
          <line class="cls-9" x1="1587.44" y1="1267.81" x2="1586.73" y2="1319.62"/>
          <path class="cls-9" d="M1594.66,1247.02s-3.89,16.02-.37,25.71c3.52,9.69-2.64,29.96-2.64,29.96"/>
          <path class="cls-9" d="M1605.89,1248.65s-1.42,29.81,2.13,52.52"/>
          <path class="cls-9" d="M1622.22,1250.07s4.26,9.94-1.42,21.29c-5.68,11.36-1.42,31.94-1.42,31.94"/>
          <path class="cls-9" d="M1630.02,1299.04s-5.68-30.52,.71-48.26"/>
          <line class="cls-9" x1="1637.12" y1="1251.49" x2="1636.41" y2="1303.3"/>
          <path class="cls-9" d="M1645.05,1237.08s-3.89,16.02-.37,25.71c3.52,9.69-2.64,29.96-2.64,29.96"/>
          <path class="cls-9" d="M1656.28,1238.71s-1.42,29.81,2.13,52.52"/>
          <path class="cls-9" d="M1672.61,1240.13s4.26,9.94-1.42,21.29c-5.68,11.36-1.42,31.94-1.42,31.94"/>
          <path class="cls-9" d="M1680.41,1289.1s-5.68-30.52,.71-48.26"/>
          <line class="cls-9" x1="1687.51" y1="1241.55" x2="1686.8" y2="1293.36"/>
          <path class="cls-9" d="M1696.86,1232.12s-3.89,16.02-.37,25.71c3.52,9.69-2.64,29.96-2.64,29.96"/>
          <path class="cls-9" d="M1708.09,1233.74s-1.42,29.81,2.13,52.52"/>
          <path class="cls-9" d="M1724.42,1235.16s4.26,9.94-1.42,21.29c-5.68,11.36-1.42,31.94-1.42,31.94"/>
          <path class="cls-9" d="M1732.22,1284.13s-5.68-30.52,.71-48.26"/>
          <line class="cls-9" x1="1739.32" y1="1236.58" x2="1738.61" y2="1288.39"/>
          <path class="cls-9" d="M1748.67,1232.12s-3.89,16.02-.37,25.71c3.52,9.69-2.64,29.96-2.64,29.96"/>
          <path class="cls-9" d="M1759.9,1233.74s-1.42,29.81,2.13,52.52"/>
          <path class="cls-9" d="M1776.23,1235.16s4.26,9.94-1.42,21.29-1.42,31.94-1.42,31.94"/>
          <path class="cls-9" d="M1784.03,1284.13s-5.68-30.52,.71-48.26"/>
          <line class="cls-9" x1="1791.13" y1="1236.58" x2="1790.42" y2="1288.39"/>
          <path class="cls-9" d="M1801.19,1234.95s-3.89,16.02-.37,25.71c3.52,9.69-2.64,29.96-2.64,29.96"/>
          <path class="cls-9" d="M1812.42,1236.58s-1.42,29.81,2.13,52.52"/>
          <path class="cls-9" d="M1828.74,1238s4.26,9.94-1.42,21.29-1.42,31.94-1.42,31.94"/>
          <path class="cls-9" d="M1836.55,1286.97s-5.68-30.52,.71-48.26"/>
          <line class="cls-9" x1="1843.65" y1="1239.42" x2="1842.94" y2="1291.23"/>
          <path class="cls-9" d="M1852.28,1240.63s-3.89,16.02-.37,25.71c3.52,9.69-2.64,29.96-2.64,29.96"/>
          <path class="cls-9" d="M1863.52,1242.26s-1.42,29.81,2.13,52.52"/>
          <path class="cls-9" d="M1879.84,1243.68s4.26,9.94-1.42,21.29c-5.68,11.36-1.42,31.94-1.42,31.94"/>
          <path class="cls-9" d="M1887.65,1292.65s-5.68-30.52,.71-48.26"/>
          <line class="cls-9" x1="1894.75" y1="1245.1" x2="1894.04" y2="1296.91"/>
          <path class="cls-9" d="M1906.22,1249.86s-3.89,16.02-.37,25.71c3.52,9.69-2.64,29.96-2.64,29.96"/>
          <path class="cls-9" d="M1917.46,1251.49s-1.42,29.81,2.13,52.52"/>
          <path class="cls-9" d="M1933.78,1252.91s4.26,9.94-1.42,21.29c-5.68,11.36-1.42,31.94-1.42,31.94"/>
          <path class="cls-9" d="M1941.59,1301.88s-5.68-30.52,.71-48.26"/>
          <line class="cls-9" x1="1948.69" y1="1254.33" x2="1947.98" y2="1306.14"/>
          <path class="cls-9" d="M1958.03,1260.5s-3.89,16.02-.37,25.71c3.52,9.69-2.64,29.96-2.64,29.96"/>
          <path class="cls-9" d="M1969.27,1262.13s-1.42,29.81,2.13,52.52"/>
          <path class="cls-9" d="M1985.59,1263.55s4.26,9.94-1.42,21.29c-5.68,11.36-1.42,31.94-1.42,31.94"/>
          <path class="cls-9" d="M1993.4,1312.52s-5.68-30.52,.71-48.26"/>
          <line class="cls-9" x1="2000.49" y1="1264.97" x2="1999.78" y2="1316.78"/>
          <path class="cls-9" d="M2013.39,1262.63s-3.89,16.02-.37,25.71c3.52,9.69-2.64,29.96-2.64,29.96"/>
          <path class="cls-9" d="M2024.62,1264.26s-1.42,29.81,2.13,52.52"/>
          <path class="cls-9" d="M2040.95,1265.68s4.26,9.94-1.42,21.29c-5.68,11.36-1.42,31.94-1.42,31.94"/>
          <path class="cls-9" d="M2048.75,1314.65s-5.68-30.52,.71-48.26"/>
          <line class="cls-9" x1="2055.85" y1="1267.1" x2="2055.14" y2="1318.91"/>
          <path class="cls-9" d="M2063.07,1252.7s-3.89,16.02-.37,25.71c3.52,9.69-2.64,29.96-2.64,29.96"/>
          <path class="cls-9" d="M2074.3,1254.33s-1.42,29.81,2.13,52.52"/>
          <path class="cls-9" d="M2090.63,1255.75s4.26,9.94-1.42,21.29c-5.68,11.36-1.42,31.94-1.42,31.94"/>
          <path class="cls-9" d="M2098.43,1304.72s-5.68-30.52,.71-48.26"/>
          <path class="cls-9" d="M56.01,1261.21s-3.89,16.02-.37,25.71c3.52,9.69-2.64,29.96-2.64,29.96"/>
          <path class="cls-9" d="M67.24,1262.84s-1.42,29.81,2.13,52.52"/>
          <path class="cls-9" d="M83.56,1264.26s4.26,9.94-1.42,21.29c-5.68,11.36-1.42,31.94-1.42,31.94"/>
          <path class="cls-9" d="M91.37,1313.23s-5.68-30.52,.71-48.26"/>
          <line class="cls-9" x1="98.47" y1="1265.68" x2="97.76" y2="1317.49"/>
          <path class="cls-9" d="M110.65,1263.34s-3.89,16.02-.37,25.71-2.64,29.96-2.64,29.96"/>
          <path class="cls-9" d="M121.89,1264.97s-1.42,29.81,2.13,52.52"/>
          <path class="cls-9" d="M138.21,1266.39s4.26,9.94-1.42,21.29c-5.68,11.36-1.42,31.94-1.42,31.94"/>
          <path class="cls-9" d="M146.02,1315.36s-5.68-30.52,.71-48.26"/>
          <line class="cls-9" x1="153.12" y1="1267.81" x2="152.41" y2="1319.62"/>
        </g>
        <path class="cls-32" d="M2099.74,1257.67v-181.95H3.49v181.95s195.43,21.81,335.97,3.32c0,0,192.31-18.49,318.06,0,0,0,255.19,36.98,425.31-11.1,0,0,144.24-22.19,196.01,3.7,0,0,205.5,67.61,366.14-7.4,0,0,129.44-22.19,225.6,0,0,0,77.41,52.53,229.17,11.47Z"/>
        <line class="cls-12" x1="339.46" y1="1260.99" x2="339.46" y2="1146.17"/>
        <line class="cls-12" x1="657.51" y1="1260.99" x2="657.51" y2="1178.84"/>
        <line class="cls-12" x1="1082.83" y1="1249.89" x2="1082.83" y2="1150.3"/>
        <line class="cls-12" x1="1278.84" y1="1253.59" x2="1278.84" y2="1153.66"/>
        <line class="cls-12" x1="1644.98" y1="1246.19" x2="1644.98" y2="1143.59"/>
        <line class="cls-12" x1="1870.57" y1="1246.19" x2="1870.57" y2="1153.66"/>
        <line class="cls-6" x1="3.18" y1="1095.47" x2="2099.8" y2="1095.47"/>
        <line class="cls-6" x1="3.18" y1="1107.97" x2="2099.8" y2="1107.97"/>
        <g class="cls-42">
          <g>
            <line class="cls-9" x1="3.18" y1="1101.81" x2="4.68" y2="1101.81"/>
            <line class="cls-14" x1="7.69" y1="1101.81" x2="2096.8" y2="1101.81"/>
            <line class="cls-9" x1="2098.3" y1="1101.81" x2="2099.8" y2="1101.81"/>
          </g>
        </g>
      </g>
      <polyline class="cls-32" points="341.43 1021.26 1971.2 1021.26 2097.39 1075.62 339.48 1075.62"/>
      <line class="cls-17" x1="342.95" y1="1075.54" x2="2097.39" y2="1075.54"/>
    </g>
  </g>
  <g>
    <path class="cls-28" d="M1540.91,763.7s-11.59,98.85-8.18,133.61c0,0-106.35-23.86-199.74-25.9,0,0-8.17-35.03-59.29-33.67,0,0-30.51-21.55-39.48-11.55-11.27,12.57,40.14,30.9,40.14,30.9,0,0-108.39,30-106.35,40.9s17.04,2.73,17.04,2.73c0,0,28.63,8.18,39.54,4.09,0,0,35.45,25.9,85.89,7.5,0,0,171.11,72.94,233.14,85.21,0,0,79.08,23.86,95.44-62.04l8.05-140.5"/>
    <path class="cls-28" d="M1743.08,494.43s-6.42,79.62,37.84,82.64c0,0,7.63,149.73-109.12,166.61,0,0-90-13.68-49.79-132.84,0,0,8.3-7.92,8.08-22.68"/>
    <path class="cls-28" d="M1728.43,464.48s-16.03-108.72-114.47-106.2c0,0-69.58,7.56-54.76,105.37,0,0,5.5,15.36,3.73,24.01,0,0-3.14,22.1,9.51,41.24,18.94,28.65,36.57,48.76,36.57,48.76,0,0,11,13.47,35.34,11.19,0,0,17.03-2.3,37.29-18.55,0,0,52.32-30.81,46.09-62.81,0,0,25.72,13.45,32.4-25.9,0,0,3.74-53.89-31.69-17.11Z"/>
    <path class="cls-39" d="M1635.29,440.53s31.85-14.44,48.42-5.47c0,0-13.48-15.93-50.22-2.33,0,0-6.04,5.87,1.8,7.8Z"/>
    <path class="cls-39" d="M1554.73,441.48c.6-1.8,17.49-3.48,33.22-1.42,0,0,7.2,4.38-.02,8,0,0-28.74-7.71-32.48,1.68,0,0-2.2-3.81-.72-8.26Z"/>
    <path class="cls-13" d="M1602.99,490.59s-11.28,21.67,12.61,21.38"/>
    <path class="cls-13" d="M1755.67,471.15s-11.1-21.7-24.39,16.73c0,0,12.96-17.76,17.15-4.26"/>
    <path class="cls-39" d="M1630.09,588.16s8.28,6.08,33.32-6.01c0,0,21.93-10.19,38.88-27.29,0,0-20.69,28.91-52.24,36.47,0,0-8.25,3.5-20.82,.55,0,0,1.83-.41,.86-3.72Z"/>
    <path class="cls-31" d="M1665.19,523.19s-16.55-3.13-34.98,4.43c0,0-16.83-1.43-31.27,3.53,0,0,4.65,26.39,30.23,29.45,25.59,3.07,38.25-21.94,36.02-37.41Z"/>
    <path class="cls-26" d="M1661.4,525.52s2.89,23.49-27.68,26.94c-27.76,3.13-30.34-17.77-30.34-17.77,0,0,31.43-2.12,58.02-9.17Z"/>
    <path class="cls-23" d="M1657.65,526.29s-6.35,11.74-30.13,13.27c0,0-14.51,2.38-21.5-4.69,0,0,30.56-2.78,51.63-8.58Z"/>
    <g>
      <path class="cls-23" d="M1672.44,456.87s-.05-.72-.63-1.28c-1.92-1.86-6.29-5.27-12.72-4.79-7.2,.54-10.65,7.6-11.82,10.11-.2,.43-.15,.8-.15,.8,0,0,0,.4,.27,.67,1.25,1.25,5.36,4.68,12.18,4.27,4.06-.24,9.59-2.85,12.7-8.62,.22-.4,.2-.89,.17-1.15Z"/>
      <circle class="cls-39" cx="1657.69" cy="459.26" r="7.46"/>
      <circle class="cls-23" cx="1662.27" cy="457.39" r="2.05"/>
      <path class="cls-8" d="M1646.83,460.96s7.46-17.84,25.26-5.45"/>
    </g>
    <g>
      <path class="cls-23" d="M1589.04,469.28s.06-.68-.4-1.28c-1.52-2-5.1-5.8-11.14-6.27-6.77-.53-10.99,5.55-12.44,7.71-.25,.37-.26,.72-.26,.72,0,0-.05,.38,.15,.66,.98,1.34,4.31,5.12,10.72,5.71,3.81,.35,9.33-1.28,13.05-6.2,.26-.34,.31-.8,.32-1.05Z"/>
      <circle class="cls-39" cx="1574.97" cy="469.38" r="6.99"/>
      <circle class="cls-23" cx="1579.72" cy="468.43" r="1.96"/>
      <path class="cls-8" d="M1564.92,469.66s9.05-16.53,23.91-1.37"/>
    </g>
    <path class="cls-23" d="M1936.61,1021.21l-66.1-242.75c43.61-41.05,49.11-50.45,49.11-50.45,0,0,4.95-101.18-62.26-127.35-42.17-16.42-76.41-26.89-76.41-26.89-5.14,66.15-11.5,74.72-11.5,74.72-71.97,54.1-137.87,8.54-137.87,8.54-8.61-22.45-8.64-46.79-8.64-46.79-14.67,3.67-25.67,9.17-25.67,9.17-54.88,28.75-55.61,61.11-55.61,61.11l-5.5,77.61,25.81,41.14c7.19,54.25,35.09,82.49,35.09,82.49,21.12,70.91-1.26,140.02-1.26,140.02l340.82-.57Z"/>
    <path class="cls-28" d="M1915.26,734.54s2.21,166.18-3.17,203.86c-5.57,38.96-24.22,46.43-70.65,59.67-49.68,14.18-218.33,27.1-218.33,27.1,0,0-41.82,14.24-72.48,5.55,0,0,1.93,15.86-6.97,17.13,0,0-4.62,.34-13.34-12.98,0,0-7.62,8.15-15.13-11.92,0,0-9.76,8.61-15.26-7.41l-1.62-9.49s-9.88,9.09-13.77,4.57c-3.89-4.52,4.57-15.99,4.57-15.99,0,0,6.72-20.48,17.99-21.15,11.26-.67,38.33-9.92,38.33-9.92l77.36,14.12s87.08-40.79,182.34-82.79c0,0-2.03-47.34-.38-82.46,0,0,64.09-32.83,110.51-77.91Z"/>
    <path class="cls-5" d="M1605.28,974.31l-59.85-10.74-38.33,9.92s-7.74,.82-13.2,9.83c-5.45,9.01-10.2,20.63-10.2,20.63,0,0-3.51,16.06,14.61,2.1,0,0-.14,19.48,10.77,19,0,0,3.94-.65,6.12-2.1,0,0,7.2,20.78,15.13,11.92,0,0-8.3-16.61-1.2-22.69s17.74-5.07,17.74-5.07"/>
    <path class="cls-5" d="M1498.31,1006.06s4.09-18.76,9.8-22.91c5.71-4.15,16.61-8.31,16.61-8.31"/>
    <path class="cls-5" d="M1515.19,1022.96s-1.89-23.72,13.69-32.02"/>
    <path class="cls-5" d="M1285.43,879.26s-5.05-18.95,6.32-29.05"/>
    <path class="cls-5" d="M1224.6,904.81s-10.93-2.55-4.69-10.57,26.94,2.23,26.94,2.23c0,0,13.14,7.57,25.39,4.23"/>
    <path class="cls-5" d="M1185.06,900.72s-7.68-4.92,.78-10.26,15.24-.31,15.24-.31"/>
    <path class="cls-5" d="M1206.33,904.93s-12.69-3.34-8.46-11.36,15.14-6.01,15.14-6.01c0,0,12.25,1.56,20.26-.67"/>
    <path class="cls-5" d="M1530.32,1034.87s6.49,11.76,13.34,12.98,6.97-17.13,6.97-17.13c0,0,26.72,9.24,72.48-5.55,0,0,25.96-1.89,41.62-3.74"/>
    <path class="cls-37" d="M1596.56,375.08s75.14,107.55,164.44,98.37c0,0,1.06,35.57-26.38,30.31,0,0-4.65,36.41,23.91,62.74,0,0,13.81,15.3,53.47,20.26,25.46,3.19,56.55,18.57,56.55,18.57,0,0-60.83-50.48-65.49-101.41-8.82-96.59-59.05-143.9-59.05-143.9,0,0-68.16-80.93-149.42-23.99,0,0-46.42,7.35-61.26,54.22-8.58,27.11-1.19,74.7,5.11,112.67,0,0,13.59,96.15,57.01,118.1,0,0,16.76-.26,27.47-10.77,4.89-4.8,8.05-15.42,8.6-22.62,0,0-6.35,2.3-17.84-8.92-15.68-15.32-27.11-30.05-39.16-48.3,0,0-12.93-18.14-9.5-44.29,0,0,.59-13.61-4.25-20.92,0,0-12.44-55.21,35.78-90.1"/>
    <path class="cls-7" d="M1739.84,490.46s15.92,18.79,3.13,33.03c-12.79,14.24-9.01-17.15-9.01-17.15"/>
  </g>
  <polygon class="cls-23" points="927.37 1021.39 973.48 1046.59 1133.21 1046.11 1086.63 1020.92 927.37 1021.39"/>
  <path class="cls-16" d="M1561.97,799.26s-5.7-39.06,.97-59.81"/>
  <line class="cls-16" x1="1804.74" y1="812.45" x2="1804.74" y2="762.99"/>
  <path class="cls-5" d="M1532.73,897.31s28.83,9.07,30.9,26.4"/>
  <g>
    <path class="cls-39" d="M972.29,798.22c17.49-4.33,11.75-20.01,11.75-20.01,10.09-.31,6.68-17.79,6.68-17.79,12.02-6.7,4.42-20.11,4.42-20.11,5.65-10.01-4.81-21.86-4.81-21.86,9.28-12.94-4.42-18.66-4.42-18.66,8.44-13.18-6.84-25.12-6.84-25.12,6.15-12.75,2.61-23.08,2.61-23.08,8.95-16.38-1.5-27.69-1.5-27.69,8.69-13.05-.45-21.61-.45-21.61,7.51-12.27-3.48-21.28-3.48-21.28,7.08-13.65-6.91-20.57-6.91-20.57,1.14-15.12-11.1-18.73-11.1-18.73-3-14.72-19.07-18.47-19.07-18.47-9.92-11.61-22.29-10.34-22.29-10.34-15.33-10.99-28.92-4.78-28.92-4.78-15.45-9.85-38.49-1.93-38.49-1.93-20.54-6.72-41.41,9.95-41.41,9.95-20.15-2.12-23.2,18.92-23.2,18.92-17.49,4.33-14.53,22.82-14.53,22.82-12.81-1.45-16.7,12.49-16.7,12.49-13.3-.19-13.54,16.77-13.54,16.77-11.51,3.04-7.59,17.32-7.59,17.32-11.57,7.63-3,16.92-3,16.92-9.31,9.5-.7,16.96-.7,16.96-8.44,13.18-1.42,21.86-1.42,21.86-10.17,5.36-2.69,16.17-2.69,16.17-12.87,6.69-2.36,18.34-2.36,18.34-12,5.33-9.08,18.16-9.08,18.16-10.15,3.98-6.89,20.47-6.89,20.47-9.29,8.12-2.69,24.8-2.69,24.8-16.44,9.46-7.76,26.66-7.76,26.66-11.84,13.41,.03,24.84,.03,24.84-5.66,12.67-.65,20-.65,20,0,0-13.87,27.37,14.25,26.57"/>
    <path class="cls-28" d="M931.65,572.95s17.08,2.72,18.97,42.32c0,0-2.77,12.82-.81,20.52,1.95,7.7,.99,32.23-2.46,46.34-3.45,14.11-13.66,37.86-35.94,48.46-22.28,10.6-56.97-8.25-56.97-8.25,0,0-35.44-17.92-43.09-40.16,0,0-13.48,13.97-26.59,2.27-13.11-11.7-27.14-41.4-12.27-49.15,12.76-6.65,24.09,10.36,27.04,15.32,.49,.82,.75,1.31,.75,1.31,0,0,40.93-48.47,36.06-81.9,0,0,21.96,17.91,48.48,9.49,0,0,30.93,13.46,46.82-6.57Z"/>
    <path class="cls-38" d="M782.38,570.74s-1.75,15.84,12.65,19.57c14.4,3.74,10.41-18,10.41-18,0,0,21.95-.86,20.43-9.25-1.51-8.38-14.9-20.36-18.61-14.77-3.71,5.6-4.53,16.65-4.53,16.65,0,0-17.27,.23-20.35,5.78Z"/>
    <polygon class="cls-28" points="974.6 875.37 980.25 913.86 1007.01 1021.4 951.3 1023.45 940 986.58 954.48 882.08 974.6 875.37"/>
    <path class="cls-28" d="M825.84,683.33s4.37,55.62-38.02,70.25c0,0,9.6,39.96,9.6,58.2,0,0,86.29,29.62,150.27,4.35,0,0-32.86-43.75-38.56-70.54,0,0-8.41-7.27-4.99-16.39l-78.31-45.87Z"/>
    <path class="cls-33" d="M881.43,614.37s-21.91-3.95-40.53,3.5c0,0,8.67-12.33,40.82-8.72,0,0,5.45,3-.29,5.22Z"/>
    <path class="cls-33" d="M950.21,615.98c-15.33-3.19-26.41-1.57-26.41-1.57-5.67-2.39-.13-5.23-.13-5.23,10.05-.83,21.21,.86,27.09,2.15,0,0,.3,4.83-.54,4.65Z"/>
    <path class="cls-29" d="M878.11,684.74s11.51-3.55,25.22,.34c0,0,11.85-2.37,22.51,0,0,0-1.18,19.13-19.13,23.36-17.94,4.23-28.94-12.53-28.6-23.7Z"/>
    <path class="cls-26" d="M880.99,686.1s-.17,16.93,21.83,16.93c19.98,0,20.14-15.06,20.14-15.06,0,0-22.51,1.02-41.98-1.86Z"/>
    <path class="cls-23" d="M883.72,686.34s5.45,7.84,22.48,7.02c0,0,10.5,.53,14.9-5.06,0,0-21.95,.48-37.39-1.96Z"/>
    <path class="cls-8" d="M911.43,643.38s13.33,12.75-.58,20.87"/>
    <path class="cls-39" d="M901.67,733.35s-19-.13-36.69-7.9c0,0-11.22-3.45-28.77-16.4,0,0,8.34,16.52,41.64,24.29,0,0,11.2,3.02,25.54,4.05,0,0-.29-1.87-1.72-4.04Z"/>
    <path class="cls-38" d="M808.74,740.45s-62.25,24.13-79.81,66.28c-20.31,48.75-17.14,58.14-17.14,58.14,0,0,17.22,30.51,57.44,20.46,0,0-14.46,65.35-15.47,135.72,0,0,83.15-.4,205.4,1.03,0,0-6.04-81.23-5.04-137.54,0,0,16.68,5.41,26.73-17.72l-8.14-54.92s1.98-52.25-65.38-68.34c0,0,16.94,29.02-18.25,37.06,0,0-59.24,13.1-80.35-40.18Z"/>
    <circle class="cls-35" cx="886.82" cy="804.28" r="8.6"/>
    <circle class="cls-35" cx="869.66" cy="805.55" r="8.6"/>
    <circle class="cls-35" cx="852.25" cy="802.4" r="8.6"/>
    <circle class="cls-35" cx="835.44" cy="796.48" r="8.6"/>
    <circle class="cls-35" cx="821.47" cy="785.99" r="8.6"/>
    <circle class="cls-35" cx="808.76" cy="774.63" r="8.6"/>
    <circle class="cls-35" cx="903.03" cy="798.24" r="8.6"/>
    <circle class="cls-35" cx="917.66" cy="789.73" r="8.6"/>
    <circle class="cls-35" cx="925.53" cy="774.22" r="8.6"/>
    <circle class="cls-35" cx="880.05" cy="819.46" r="8.6"/>
    <circle class="cls-35" cx="858.64" cy="818.57" r="8.6"/>
    <circle class="cls-35" cx="838.59" cy="813.19" r="8.6"/>
    <circle class="cls-35" cx="820.03" cy="803.24" r="8.6"/>
    <circle class="cls-35" cx="806.51" cy="792.15" r="8.6"/>
    <circle class="cls-35" cx="900.02" cy="814.61" r="8.6"/>
    <circle class="cls-35" cx="918.1" cy="806.51" r="8.6"/>
    <circle class="cls-35" cx="934.34" cy="789.04" r="8.6"/>
    <path class="cls-35" d="M808.74,740.45s14.21,42.45,64.52,41.68c50.3-.77,35.88-36.54,35.88-36.54l4.82,.45s10.92,41.61-39.55,39.55c-49.03-2-54.15-18.86-69.88-42.62l4.22-2.51Z"/>
    <path class="cls-8" d="M776.54,657.75s6.67-10.1,14.15,.2c7.48,10.31,7.88,13.74,7.88,13.74,0,0-10.71-16.37-14.96-3.23"/>
    <g>
      <path class="cls-25" d="M794.25,644.39s9.32,12.14,0,17.78c-9.32,5.65,6.21,2.26,6.21,2.26,0,0,10.73-4.54-2.26-24.14l-3.95,4.1Z"/>
      <path class="cls-23" d="M794.25,662.18s-5.08-13.83-14.68-11.01c-9.6,2.82,.56,19.76,.56,19.76,0,0,2.82,3.95,8.19,3.67,0,0-5.08-9.32,5.93-12.42Z"/>
      <path class="cls-34" d="M771.14,644.6s-7.9,4.31-5.27-5.03c2.63-9.34,16.28-9.58,20.59-8.86,4.31,.72,10.54,2.87,11.73,9.58,1.2,6.7-8.14,.72-8.14,.72,0,0-11.25-8.62-18.92,3.59Z"/>
    </g>
    <g>
      <path class="cls-23" d="M855.23,632.2s-.03-.62,.41-1.14c1.45-1.75,4.81-5.06,10.29-5.26,6.13-.23,9.73,5.41,10.95,7.42,.21,.35,.2,.66,.2,.66,0,0,.03,.34-.16,.59-.94,1.17-4.08,4.47-9.89,4.77-3.45,.18-8.38-1.5-11.56-6.08-.22-.32-.25-.73-.25-.96Z"/>
      <circle class="cls-39" cx="867.92" cy="632.81" r="6.35"/>
      <circle class="cls-23" cx="863.87" cy="631.68" r="1.74"/>
      <path class="cls-8" d="M877.26,633.21s-8.01-14.36-21.86-2.2"/>
    </g>
    <g>
      <path class="cls-23" d="M921.92,632.83s-.11-.56,.21-1.11c1.08-1.81,3.7-5.31,8.7-6.27,5.59-1.07,9.68,3.59,11.09,5.26,.24,.29,.28,.58,.28,.58,0,0,.08,.31-.07,.56-.69,1.21-3.11,4.67-8.39,5.77-3.14,.65-7.89-.19-11.45-3.94-.25-.26-.33-.64-.37-.84Z"/>
      <circle class="cls-39" cx="933.65" cy="631.59" r="5.87"/>
      <circle class="cls-23" cx="929.6" cy="631.25" r="1.64"/>
      <path class="cls-8" d="M942.05,630.88s-9.1-12.92-20.05,1.11"/>
    </g>
    <path class="cls-24" d="M909.92,956.33l77.32,58.96,9.89,1.77-4.24-7.06-78.38-57.2s-6.36-2.82-4.59,3.53Z"/>
    <path class="cls-28" d="M711.79,864.87l-4.5,101s-1.47,49.02,39.7,55.39l171.48-1.86,14.56,4.37,38.67,.63s7.35-.88,4.71-8.24c0,0,11.18-8.82-.29-15,0,0,10,2.35,12.35-6.18s-5.59-7.35-5.59-7.35c0,0,6.18-3.53,.29-9.71l-27.65-4.41-38.53,16.77-137.66-34.71,5.19-74.64s-38.61,1.79-72.74-16.06Z"/>
    <path class="cls-10" d="M779.34,955.57s-19.47-.65-25.82,10.65"/>
    <path class="cls-11" d="M927.04,985.83l28.49-12.32,27.65,4.41s6.06,4.9-.29,9.71c0,0,7.78-1.6,5.59,7.35s-12.35,6.18-12.35,6.18c0,0,11.36,4.53,.29,15,0,0,2.77,6.16-4.71,8.24"/>
    <line class="cls-19" x1="784.53" y1="880.94" x2="788.89" y2="823.57"/>
    <path class="cls-2" d="M955.66,884.84s3.23-38.05-3.51-56.23"/>
  </g>
  <g>
    <rect class="cls-36" x="770.8" y="1034.52" width="192.67" height="23.41"/>
    <polygon class="cls-36" points="687.21 1013.21 770.8 1034.52 963.47 1034.52 872.78 1011.53 687.21 1013.21"/>
    <polygon class="cls-36" points="692.2 1028.98 770.75 1053.44 770.8 1057.93 692.2 1032.51 692.2 1028.98"/>
    <polygon class="cls-23" points="692.2 1014.78 770.8 1034.52 770.8 1054.79 692.2 1029.38 692.2 1014.78"/>
    <line class="cls-18" x1="770.8" y1="1034.52" x2="963.47" y2="1034.52"/>
    <polygon class="cls-18" points="793.14 1016.15 839.79 1016.15 878.79 1028.39 829.47 1028.39 793.14 1016.15"/>
  </g>
</svg>