<?xml version="1.0" encoding="UTF-8"?>
<svg id="Layer_1" data-name="Layer 1" xmlns="http://www.w3.org/2000/svg" xmlns:xlink="http://www.w3.org/1999/xlink" viewBox="0 0 1334.05 1000.22">
  <defs>
    <style>
      .cls-1, .cls-2, .cls-3, .cls-4, .cls-5, .cls-6 {
        fill: none;
      }

      .cls-7 {
        clip-path: url(#clippath);
      }

      .cls-8 {
        fill: #00a79d;
      }

      .cls-9 {
        fill: #f05380;
      }

      .cls-10 {
        fill: #fff200;
      }

      .cls-11 {
        fill: #fff;
      }

      .cls-12 {
        fill: #efcccd;
      }

      .cls-13 {
        fill: #803435;
      }

      .cls-14 {
        fill: #00a651;
      }

      .cls-15 {
        fill: #8c3333;
      }

      .cls-16 {
        fill: #87664d;
      }

      .cls-17 {
        fill: #b6302e;
      }

      .cls-18 {
        fill: #8b5e3c;
      }

      .cls-19 {
        fill: #8dc63f;
      }

      .cls-20 {
        fill: #ae8578;
      }

      .cls-21 {
        fill: #a97c50;
      }

      .cls-22, .cls-23 {
        fill: #be9e7d;
      }

      .cls-24 {
        fill: #db7777;
      }

      .cls-25 {
        fill: #dc3b28;
      }

      .cls-26 {
        fill: #1c75bc;
      }

      .cls-27, .cls-28 {
        fill: #9c2024;
      }

      .cls-29 {
        fill: #3c2415;
      }

      .cls-30 {
        fill: #59bede;
      }

      .cls-31 {
        fill: #58595b;
      }

      .cls-32 {
        fill: #26130f;
      }

      .cls-28, .cls-23, .cls-2, .cls-3, .cls-4, .cls-5, .cls-6 {
        stroke-miterlimit: 10;
      }

      .cls-28, .cls-2, .cls-6 {
        stroke: #231f20;
      }

      .cls-23 {
        stroke: #603913;
      }

      .cls-3 {
        stroke: #ec008c;
      }

      .cls-4 {
        stroke: #59bede;
      }

      .cls-5 {
        stroke: #be1e2d;
      }

      .cls-6 {
        stroke-width: 1.2px;
      }

      .cls-33 {
        opacity: .5;
      }

      .cls-34 {
        fill: #dea962;
      }

      .cls-34, .cls-35 {
        opacity: .8;
      }

      .cls-35 {
        fill: #edb36e;
      }

      .cls-36 {
        fill: #27aae1;
        opacity: .4;
      }
    </style>
    <clipPath id="clippath">
      <rect class="cls-1" x="90.97" y="263.04" width="1117.82" height="192.99"/>
    </clipPath>
  </defs>
  <g>
    <g class="cls-33">
      <g class="cls-7">
        <path class="cls-14" d="M207.98,572.25s90.54,60.19,128.91-35.62c38.37-95.81,82.42-74.09,82.42-74.09,0,0,39.35-40.68-26.63-80.97-65.98-40.28-130.75,35.36-130.75,35.36,0,0-33.21,64.71-72.91,10.82-39.7-53.9-118.22,5.31-68.58,41.34,49.64,36.02,74.22,62.68,87.54,103.17Z"/>
        <path class="cls-19" d="M943,547s60.57,43.24,61.88-31.08c1.32-74.31-84.27-66.21-90.85-91.88-6.58-25.67-38.18-67.56-122.45-67.56s-14.48,116.2-77.68,131.06c-63.2,14.86-115.87,117.55-31.6,108.09,84.27-9.46,171.17,33.78,175.12,44.59s-3.95,9.46,3.95,10.81c7.9,1.35,151.42,21.62,81.63-104.04Z"/>
        <path class="cls-14" d="M903.64,488.7s-34.67-160.79,68.47-168.22c103.14-7.43,71.54,92.56,116.3,81.75,44.77-10.81,75.05-137.82,119.82-116.2l2.59,198.56-307.18,4.11Z"/>
        <path class="cls-8" d="M416.72,517.97s-5.27-156.74,134.3-117.55c139.57,39.18,176.44,58.1,202.77,32.43,26.33-25.67,66.99,37.83,41.39,85.12H416.72Z"/>
      </g>
    </g>
    <rect class="cls-34" x="-40.07" y="204.1" width="162.82" height="81.94" transform="translate(286.41 203.73) rotate(90)"/>
    <rect class="cls-34" x="585.66" y="-95.48" width="162.82" height="1333.41" transform="translate(1238.3 -95.85) rotate(90)"/>
    <rect class="cls-35" x="585.66" y="67.12" width="162.82" height="1333.41" transform="translate(1400.9 66.75) rotate(90)"/>
    <rect class="cls-35" x="-40.07" y="40.44" width="162.82" height="81.94" transform="translate(122.75 40.07) rotate(90)"/>
    <rect class="cls-35" x="-40.07" y="367.24" width="162.82" height="81.94" transform="translate(449.55 366.88) rotate(90)"/>
    <rect class="cls-34" x="1206.62" y="199.26" width="162.82" height="91.62" transform="translate(1533.11 -1042.96) rotate(90)"/>
    <rect class="cls-35" x="1206.62" y="35.6" width="162.82" height="91.62" transform="translate(1369.45 -1206.62) rotate(90)"/>
    <rect class="cls-35" x="1206.62" y="362.4" width="162.82" height="91.62" transform="translate(1696.25 -879.82) rotate(90)"/>
    <rect class="cls-36" x="111.95" width="1096.86" height="455.98"/>
    <rect class="cls-18" x="78.27" width="33.68" height="484.45"/>
    <rect class="cls-18" x="1209.04" width="33.68" height="484.45"/>
    <rect class="cls-18" x="643.56" y="-109.58" width="33.68" height="1164.74" transform="translate(1133.18 -187.61) rotate(90)"/>
  </g>
  <polygon class="cls-11" points="923.63 824 1152.65 835.51 1181.44 807.37 954.98 793.29 923.63 824"/>
  <rect class="cls-16" y="773.6" width="1334.05" height="226.62"/>
  <rect class="cls-21" y="925.16" width="1334.05" height="72.86"/>
  <g>
    <path class="cls-22" d="M491.88,563.19s9.03,5.83,8.39,14.37c0,0,105.48-38.49,157.9-49.79,0,0,21.66-36.56,56.53-34.04l27.73-21.45s15.55-7.48,9.08,12.95c0,0-16.78,18.72-25.17,20.71l5.78,11.13s12.88-13.75,19.48-10.11c6.6,3.64,3.25,14.21,3.25,14.21,0,0,10.92-19.8,25.2-18.38,14.28,1.42,10.58-11.38,20-6.84,0,0,12.17,.75-3.06,14.54l-22.47,29.32-60.41,24.28-29.97-3.29-206.4,125.34s-39.97,16.02-69.91-16.72c-29.94-32.75-15.68-48.39-15.68-48.39l99.73-57.85Z"/>
    <path class="cls-23" d="M718.3,502.07s4.88,1.6,8.03,3.88"/>
    <path class="cls-23" d="M706.42,546.68s9.25-9.07,18.17-10c0,0,1.62-13.46,7.52-19.61,5.89-6.15,10.14-12.71,19.48-10.11,9.34,2.6,3.25,14.21,3.25,14.21l-15.75,25.35"/>
    <path class="cls-23" d="M754.84,521.18s11.03-20.68,25.2-18.38c14.18,2.31-1.66,16.79-1.66,16.79l-7.8,15.16"/>
    <path class="cls-23" d="M658.17,527.77s2.88,9.41,12.92,15.6"/>
    <path class="cls-23" d="M501.79,576.9s-23.1,12.04-32.47,34.66"/>
    <path class="cls-22" d="M203.42,267.29s10.09,31.95-6.21,63.18c0,0,2.23,135.92,89.12,144.74,0,0,96.9-97.56,34.12-131.95l-117.03-75.97Z"/>
    <path class="cls-25" d="M179.46,342.21s-80.73,31.76-118.41,71.9c0,0-26.21,19.66-31.95,61.44,0,0-7.01,39.81-16.02,125,0,0,58.63,14.89,118.43,14.07l-20.23,134.37s-28.27-3.19,152.78-.73c0,0,92.72,30.39,160.71,21.61,0,0,5.96-74.98,4.93-135.4,0,0,53.31-68.11,67.58-74.23l-36.28-91.02s-8.32-37.71-56.51-72.32c0,0-36.49-28.46-63.62-39.99l-52.8,40.2-11.15,73.33-14.96-62.52s-2.97-18.64-82.49-65.72Z"/>
    <path class="cls-5" d="M128.21,400.46s36.57,12.19,23.51,76.63c-13.06,64.44-20.22,137.53-20.22,137.53"/>
    <line class="cls-5" x1="431.26" y1="491.9" x2="429.52" y2="624.26"/>
    <polygon class="cls-15" points="185.19 328.31 199.68 326.02 196.99 343.05 185.19 328.31"/>
    <path class="cls-17" d="M172.95,344.52s74.4,45.27,89.1,70.98l-2.04-25.46s-55.17-35.54-74.81-61.72l-12.25,16.21Z"/>
    <path class="cls-17" d="M320.45,343.25s27.89-.92,26.83,17.14l-57.03,43.42-1.84-15.05s26.89-13.44,44.54-35.2c0,0-11.83-1.59-12.5-10.31Z"/>
    <path class="cls-5" d="M284.99,484.6s8,24.95,9.04,249.61"/>
    <ellipse class="cls-12" cx="268.77" cy="494.58" rx="4.45" ry="4.82"/>
    <ellipse class="cls-12" cx="280.04" cy="575.43" rx="4.45" ry="4.82"/>
    <ellipse class="cls-12" cx="285.61" cy="662.96" rx="4.45" ry="4.82"/>
    <g>
      <rect class="cls-12" x="194.54" y="663.86" width="23.66" height="23.66" transform="translate(-428.9 366.53) rotate(-47.07)"/>
      <rect class="cls-12" x="227.86" y="662.66" width="23.66" height="23.66" transform="translate(-417.39 390.54) rotate(-47.07)"/>
      <rect class="cls-12" x="193.35" y="630.69" width="23.66" height="23.66" transform="translate(-404.99 355.07) rotate(-47.07)"/>
      <rect class="cls-31" x="210.55" y="647" width="23.66" height="23.66" transform="translate(-411.45 372.87) rotate(-47.07)"/>
      <rect class="cls-12" x="226.67" y="629.48" width="23.66" height="23.66" transform="translate(-393.48 379.09) rotate(-47.07)"/>
      <rect class="cls-12" x="192.02" y="596.81" width="23.66" height="23.66" transform="translate(-380.61 343.3) rotate(-47.07)"/>
      <rect class="cls-31" x="209.22" y="613.12" width="23.66" height="23.66" transform="translate(-387.07 361.1) rotate(-47.07)"/>
      <rect class="cls-12" x="225.34" y="595.61" width="23.66" height="23.66" transform="translate(-369.1 367.32) rotate(-47.07)"/>
      <rect class="cls-12" x="190.92" y="563.32" width="23.66" height="23.66" transform="translate(-356.44 331.82) rotate(-47.07)"/>
      <rect class="cls-31" x="208.12" y="579.63" width="23.66" height="23.66" transform="translate(-362.9 349.61) rotate(-47.07)"/>
      <rect class="cls-12" x="224.24" y="562.12" width="23.66" height="23.66" transform="translate(-344.94 355.83) rotate(-47.07)"/>
      <rect class="cls-12" x="189.72" y="530.03" width="23.66" height="23.66" transform="translate(-332.45 320.32) rotate(-47.07)"/>
      <rect class="cls-31" x="206.92" y="546.34" width="23.66" height="23.66" transform="translate(-338.91 338.12) rotate(-47.07)"/>
      <rect class="cls-12" x="223.04" y="528.83" width="23.66" height="23.66" transform="translate(-320.95 344.34) rotate(-47.07)"/>
      <rect class="cls-12" x="188.51" y="496.73" width="23.66" height="23.66" transform="translate(-308.46 308.83) rotate(-47.07)"/>
      <rect class="cls-31" x="205.72" y="513.05" width="23.66" height="23.66" transform="translate(-314.92 326.63) rotate(-47.07)"/>
      <rect class="cls-12" x="221.84" y="495.53" width="23.66" height="23.66" transform="translate(-296.95 332.84) rotate(-47.07)"/>
      <rect class="cls-12" x="187.31" y="463.44" width="23.66" height="23.66" transform="translate(-284.47 297.33) rotate(-47.07)"/>
      <rect class="cls-31" x="204.52" y="479.76" width="23.66" height="23.66" transform="translate(-290.93 315.13) rotate(-47.07)"/>
      <rect class="cls-12" x="220.64" y="462.24" width="23.66" height="23.66" transform="translate(-272.96 321.35) rotate(-47.07)"/>
      <rect class="cls-12" x="186.12" y="430.27" width="23.66" height="23.66" transform="translate(-260.56 285.88) rotate(-47.07)"/>
      <rect class="cls-31" x="203.32" y="446.58" width="23.66" height="23.66" transform="translate(-267.02 303.68) rotate(-47.07)"/>
      <rect class="cls-12" x="219.44" y="429.06" width="23.66" height="23.66" transform="translate(-249.06 309.89) rotate(-47.07)"/>
      <rect class="cls-12" x="184.92" y="396.97" width="23.66" height="23.66" transform="translate(-236.57 274.39) rotate(-47.07)"/>
      <rect class="cls-31" x="202.12" y="413.29" width="23.66" height="23.66" transform="translate(-243.03 292.18) rotate(-47.07)"/>
      <rect class="cls-12" x="218.24" y="395.77" width="23.66" height="23.66" transform="translate(-225.06 298.4) rotate(-47.07)"/>
      <rect class="cls-12" x="183.79" y="363.79" width="23.66" height="23.66" transform="translate(-212.63 262.98) rotate(-47.07)"/>
      <rect class="cls-31" x="200.99" y="380.11" width="23.66" height="23.66" transform="translate(-219.09 280.78) rotate(-47.07)"/>
      <polyline class="cls-31" points="215.19 371.8 212.33 375 195.01 358.89 195.84 357.99"/>
      <polygon class="cls-12" points="229.54 391.14 212.22 375.02 215.19 371.8 234.19 386.25 229.54 391.14"/>
    </g>
    <g>
      <polyline class="cls-12" points="132.07 598.61 113.47 610.88 100.65 591.45 120.08 578.63 132.4 597.25"/>
      <polygon class="cls-31" points="134.87 581.59 132.4 597.25 120.24 578.78 136.62 567.94 134.87 581.59"/>
      <polyline class="cls-12" points="136.56 567.84 120.06 578.74 107.23 559.31 126.66 546.48 137.14 562.36"/>
      <rect class="cls-12" x="72.85" y="576.4" width="23.28" height="23.28" transform="translate(-309.94 143.8) rotate(-33.42)"/>
      <rect class="cls-31" x="92.45" y="563.73" width="23.28" height="23.28" transform="translate(-299.72 152.5) rotate(-33.42)"/>
      <rect class="cls-12" x="79.44" y="544.25" width="23.28" height="23.28" transform="translate(-291.15 142.11) rotate(-33.42)"/>
      <rect class="cls-12" x="40.74" y="569.82" width="23.28" height="23.28" transform="translate(-311.63 125.02) rotate(-33.42)"/>
      <rect class="cls-31" x="60.33" y="557.15" width="23.28" height="23.28" transform="translate(-301.41 133.72) rotate(-33.42)"/>
      <rect class="cls-12" x="47.32" y="537.68" width="23.28" height="23.28" transform="translate(-292.83 123.33) rotate(-33.42)"/>
      <polygon class="cls-12" points="36.39 578.18 14.49 591.16 17.75 562.61 23.57 558.75 36.39 578.18"/>
      <rect class="cls-31" x="28.22" y="550.58" width="23.28" height="23.28" transform="translate(-303.1 114.94) rotate(-33.42)"/>
      <polygon class="cls-12" points="42.97 546.04 23.54 558.86 18.07 550.79 19.1 533.9 30.15 526.61 42.97 546.04"/>
      <polyline class="cls-31" points="18.07 550.79 23.87 558.94 17.75 562.61"/>
    </g>
    <path class="cls-22" d="M368.68,125.39s18.05,25.59,13.6,87.29c0,0-2.53,14.82-.92,22.82s1.66,21.3-1.33,29.86c-3,8.56-25.07,65.9-25.07,65.9,0,0-7.21,16.63-36.34,17-29.13,.37-53.88-10.22-64.39-22.48-10.51-12.26-36.79-32.09-39.43-50.96,0,0-17.28,3.98-24.38-16.81,0,0-18.9-32.29-.11-40.76,18.79-8.46,29.74,17.54,29.74,17.54,0,0-22.55-76.59,20.37-106.51,0,0,52.91-44.31,128.25-2.89Z"/>
    <path class="cls-20" d="M296.9,281.75s14.79-3.64,31.81,2.29c0,0,15.13-2.12,28.42,1.66,0,0-2.91,24.06-25.87,28.07-22.96,4.02-35.61-17.95-34.36-32.03Z"/>
    <path class="cls-13" d="M300.44,283.68s-1.46,21.35,26.31,22.98c25.23,1.48,26.54-17.53,26.54-17.53,0,0-28.49-.38-52.85-5.45Z"/>
    <path class="cls-29" d="M310.32,197.28s-23.89-8.65-45.77-1.03c0,0,11.48-15.81,46.85-6.16,0,0,5.65,4.95-1.08,7.19Z"/>
    <path class="cls-29" d="M384.39,198.96c-17.31-3.61-26.1,1.13-26.1,1.13-6.42-3.01-.23-7.27-.23-7.27,11.3-1.7,20.01-1.22,26.64,.25,0,0,.64,6.08-.31,5.88Z"/>
    <path class="cls-11" d="M303.86,284.18s6.3,10.3,27.86,10.52c0,0,13.22,1.44,19.19-5.28,0,0-27.74-1.02-47.05-5.24Z"/>
    <path class="cls-2" d="M189.24,231.07s7.68-10.27,14.94,1.09c7.27,11.36,7.48,15.02,7.48,15.02,0,0-10.31-17.97-15.61-4.34"/>
    <path class="cls-32" d="M320.3,347.53s-25.57,2.18-46.26-7.76c0,0-12.67-4.01-29.36-23.35,0,0,16.11,28.47,47.36,32.59,0,0,13.98,3.32,28.26-1.47,0,0-.71,3.04,0,0Z"/>
    <g>
      <path class="cls-11" d="M280.12,212.65s0-.67,.52-1.22c1.69-1.82,5.58-5.21,11.57-5.08,6.71,.14,10.27,6.52,11.48,8.8,.21,.39,.18,.73,.18,.73,0,0,.02,.37-.22,.63-1.1,1.22-4.74,4.61-11.09,4.58-3.78-.02-9.05-2.17-12.23-7.37-.22-.36-.23-.82-.21-1.06Z"/>
      <circle class="cls-32" cx="293.93" cy="214.13" r="6.94"/>
      <circle class="cls-11" cx="290.24" cy="210.39" r="1.9"/>
      <path class="cls-6" d="M304.1,215.17s-7.82-16.19-23.72-3.79"/>
    </g>
    <g>
      <path class="cls-11" d="M357.35,219.95s-.09-.63,.31-1.21c1.31-1.94,4.44-5.64,10.03-6.38,6.26-.83,10.48,4.6,11.94,6.54,.25,.33,.27,.66,.27,.66,0,0,.07,.35-.11,.62-.85,1.29-3.75,4.97-9.66,5.84-3.52,.52-8.72-.72-12.42-5.1-.26-.3-.33-.73-.35-.96Z"/>
      <circle class="cls-32" cx="370.41" cy="219.34" r="6.5"/>
      <circle class="cls-11" cx="365.78" cy="216.88" r="1.82"/>
      <path class="cls-6" d="M379.76,219.1s-9.23-14.89-22.26-.08"/>
    </g>
    <path class="cls-2" d="M337.84,223.78l14.87,24.44s7.99,18.65-4.38,21.84c-11,2.84-11.36,.43-11.36,.43"/>
    <path class="cls-29" d="M218.36,236.46l9.23-4.21c.39-23.96,2.65-75.3,19.58-96.74,0,0,71.43-34.38,117.06-4.89,0,0,15.45,11.81,18.7,74.19,0,0,9.36-43.34-3.99-80.62,0,0,12.13-8.4,13.79-12.29,0,0-15.95,2.69-23.82-5.53-4.62-4.82-68.35-57.54-141.05-5.61,0,0-70.7,13.38-43.26,120.16,0,0,22.84-6,33.76,15.53Z"/>
    <path class="cls-29" d="M285.35,298.24s-2.67-17.93,12.12-23.07c18.16-6.31,37.96-8.71,52.5-2.05,14.54,6.66,22.61,14.35,11.31,15.38-11.31,1.03-34.73-11.79-58.15,1.54,0,0-8.88,10.25-17.77,8.2Z"/>
    <path class="cls-22" d="M475.09,808.84l-80.04-1.18c-140.42,17.74-274.92-7.39-312.61-22.17-37.69-14.78-55.16-90.09-55.16-90.09l-6.59-94.27,110.81,13.49,10.48,72.86,255.38,77.51,72.88-17.18,45.62,12.15,16.89,30.22s-.89,7.7-5.04,7.41c-4.15-.3-10.07-8.3-10.07-8.3-.3,13.04-5.93,21.03-5.93,21.03,0,0-5.95,4.62-8.89-.59-1.2-2.13,.3-5.04,.3-5.04l-3.56,4.44c-9.22,8.24-11.53,.62-11.53,.62,0,0-9.49,10.49-12.96-.91Z"/>
    <path class="cls-23" d="M140.92,687.78s-21.97-7.78-44.76,22.84"/>
    <path class="cls-23" d="M487.41,809.7s3.13-10.64-22.84-11.26"/>
    <path class="cls-23" d="M472.39,773.41l27.53,11.89s7.43,6.29,1.21,20.04"/>
    <path class="cls-23" d="M481.47,760.27s23.15,4.38,32.85,15.64c0,0,2.36,4.26,1.34,14.02"/>
  </g>
  <g>
    <rect class="cls-26" x="589.11" y="805.02" width="204.45" height="24.84" transform="translate(1382.68 1634.87) rotate(-180)"/>
    <polygon class="cls-26" points="882.27 782.4 793.57 805.02 589.11 805.02 685.35 780.63 882.27 782.4"/>
    <polygon class="cls-26" points="876.97 799.14 793.62 825.09 793.57 829.85 876.97 802.89 876.97 799.14"/>
    <polygon class="cls-11" points="876.97 784.07 793.57 805.02 793.57 826.53 876.97 799.56 876.97 784.07"/>
    <line class="cls-28" x1="793.57" y1="805.02" x2="589.11" y2="805.02"/>
    <polygon class="cls-28" points="769.86 785.53 720.36 785.53 678.98 798.51 731.32 798.51 769.86 785.53"/>
  </g>
  <g>
    <rect class="cls-27" x="579.5" y="780.1" width="204.45" height="24.84" transform="translate(1363.46 1585.05) rotate(-180)"/>
    <polygon class="cls-27" points="872.66 757.49 783.96 780.1 579.5 780.1 675.74 755.71 872.66 757.49"/>
    <polygon class="cls-27" points="867.36 774.23 784.01 800.18 783.96 804.94 867.36 777.97 867.36 774.23"/>
    <polygon class="cls-11" points="867.36 759.15 783.96 780.1 783.96 801.61 867.36 774.65 867.36 759.15"/>
    <line class="cls-28" x1="783.96" y1="780.1" x2="579.5" y2="780.1"/>
    <polygon class="cls-28" points="760.25 760.61 710.75 760.61 669.37 773.6 721.7 773.6 760.25 760.61"/>
  </g>
  <g>
    <path class="cls-22" d="M976.77,684.5c-32.08,29.06-54.48,19.98-54.48,19.98-90.8-15.74-88.88-192.19-88.88-192.19-1.24-7.49-1.83-11.89-1.83-11.89-17.47-13-14.63-44.69-14.63-44.69-19.68-19.2-2.59-22.8-2.59-22.8-1.66-3.21,2.73-7.36,2.73-7.36,0,0,7.01-4.27,11.58-6.07,4.05-1.58,23.1,0,23.1,0,0,0-7.45-25.34-7.45-38.75,0-13.41,8.2-8.94,8.2-8.94l22.36,55.89-8.94,54.4c.93,3.82,4.91,12.2,6.11,15.97,0,0,36.93,59.93,60.54,113.81l15.13-29.06"/>
    <path class="cls-23" d="M870.65,447.88s-.74-8.3-11.06-16.38c-4.89-3.83-19.15-6.38-19.15-6.38,0,0-9.45,5.8-1.28,12.55,8.18,6.76,12.98,11.06,12.98,11.06,0,0-29,16.61-4.11,35.8"/>
    <path class="cls-23" d="M826.94,420.5s-2.12,12.05,5.86,22.14c0,0,1.14,8.3-8.03,6.38,0,0-7.39-6.32-10.42-16.13"/>
    <path class="cls-23" d="M824.78,449.03s2.04,10.74-7.83,6.68"/>
    <line class="cls-23" x1="839.97" y1="418.88" x2="840.43" y2="425.11"/>
    <path class="cls-23" d="M841.92,439.88s-.53,2.77-2.77,3.74c-3.74,1.63-6.35-.98-6.35-.98"/>
    <line class="cls-23" x1="951.82" y1="749.86" x2="973.8" y2="747.77"/>
    <path class="cls-22" d="M1144.76,396.43s-2.63,38.64,9.54,65.55c0,0,9.26,132.43-93,135.63,0,0-74.36-27.12-28.11-125.91,0,0,12.12-2.08,16.91-18.4,5.31-18.09-2.43,.32-2.43,.32l97.1-57.18"/>
    <path class="cls-22" d="M1154.94,360.05s2.74-95.28-81.71-108c0,0-72.03-4.06-62.39,85.97,0,0,2.07,9.69-.74,16.81,0,0-9.42,10.56-.76,39.07,8.66,28.5,24.51,45.88,24.51,45.88,0,0,9.36,12.05,30.48,13.78,0,0,16.59,3.22,36.35-7.6,0,0,47.64-21.01,47.15-49.29,0,0,19.93,15.37,31.58-17.22,0,0,11.34-45.46-24.48-19.4Z"/>
    <path class="cls-24" d="M1083.3,403.45s-20.48-8.42-30.33-1.91c0,0-5.39-6.31-23.06-1.06,0,0-3.49,24.83,22.24,26.45,29.37,1.84,31.15-23.48,31.15-23.48Z"/>
    <path class="cls-13" d="M1079.1,405.88s-3.9,16.14-24.26,15.05c-20.36-1.09-21.43-17.73-21.43-17.73,0,0,33.41-1.18,45.7,2.68Z"/>
    <path class="cls-32" d="M1079.01,325.52s29.38-7.52,42.18,2.65c0,0-9.1-15.64-42.54-9.58,0,0-6.05,4.1,.36,6.93Z"/>
    <path class="cls-32" d="M1010.07,314.16c.78-1.45,15.46-.33,28.59,3.8,0,0,5.48,4.82-1.22,6.83,0,0-23.38-10.93-27.99-3.47,0,0-1.3-3.59,.63-7.17Z"/>
    <circle class="cls-32" cx="1022.28" cy="340.65" r="5.77"/>
    <path class="cls-11" d="M1074.16,404.76s-5.09,4.64-20.74,3.98c-14.42-.6-18.28-5.65-18.28-5.65,0,0,21.36-1.37,39.01,1.67Z"/>
    <path class="cls-2" d="M1178.48,369.66s-6.2-20.21-23.36,10.6c0,0,13.76-13.21,15.29-1.05"/>
    <path class="cls-32" d="M1049.23,449.5s14.2,9.89,41.13,1.41c0,0,13.2-4.11,30.26-16.15,0,0-21.56,21.48-51.79,21.78,0,0-9.19,.66-20.2-4.3,0,0,.92,.24,.6-2.74Z"/>
    <ellipse class="cls-10" cx="1156.71" cy="393.67" rx="3.72" ry="3.07" transform="translate(691.29 1523.42) rotate(-86.41)"/>
    <path class="cls-2" d="M1043,363s-12.9,16.8,7.54,20.17"/>
    <g>
      <path class="cls-11" d="M1107.41,344.7s.07-.62-.34-1.19c-1.36-1.88-4.58-5.45-10.14-6.01-6.23-.63-10.25,4.88-11.63,6.85-.24,.34-.25,.66-.25,.66,0,0-.06,.34,.13,.61,.88,1.25,3.87,4.81,9.76,5.49,3.5,.41,8.62-.99,12.15-5.45,.25-.31,.3-.73,.32-.96Z"/>
      <circle class="cls-32" cx="1094.45" cy="344.51" r="6.47"/>
      <circle class="cls-11" cx="1098.65" cy="343.61" r="1.78"/>
      <path class="cls-6" d="M1084.92,344.32s9.07-14.11,22.4-.84"/>
    </g>
    <g>
      <path class="cls-11" d="M1034.3,342.69s.15-.57-.15-1.16c-1-1.94-3.48-5.73-8.57-7.04-5.7-1.47-10.23,3.07-11.79,4.71-.27,.28-.33,.58-.33,.58,0,0-.1,.31,.03,.58,.64,1.29,2.91,5.02,8.29,6.5,3.2,.88,8.16,.31,12.08-3.33,.27-.25,.39-.64,.43-.85Z"/>
      <circle class="cls-32" cx="1022.28" cy="340.65" r="6.07"/>
      <circle class="cls-11" cx="1026.48" cy="340.56" r="1.7"/>
      <path class="cls-6" d="M1013.65,339.38s10.23-12.75,20.63,2.44"/>
    </g>
    <path class="cls-9" d="M964.83,764.85s5.83-39.76,6.53-103.1c0,0-17-12.54-16.3-42.89l-20.18-25.59,18.76-58.2s7.09-41.57,54.56-58.72c0,0,20.76-4.18,33.52-10.77,0,0-9.18,19-4.22,36.81,0,0,18.34,54.01,43.36,57.58,0,0,73.3-58.55,72.59-102.09,0,0,20.96-.53,50.51,21.69,67.12,50.48,87.61,174.81,87.61,174.81,0,0-50.62,18.34-110.04,5.14l46.86,79.04"/>
    <polygon class="cls-9" points="955.07 618.86 956.88 601.11 939.8 579.91 934.89 593.27 955.07 618.86"/>
    <path class="cls-9" d="M1155.18,461.15l-74.32,98.82,47.49,47.14,104.04-106.93s-16.85-19.56-43.79-25.31c-26.94-5.75-33.43-13.72-33.43-13.72Z"/>
    <path class="cls-9" d="M1039.61,470.42l41.26,89.55-45.28,39.32-50.04-110.81s24.12-18.84,54.06-18.06Z"/>
    <path class="cls-30" d="M1128.36,607.11l104.04-106.93s-7.71-8.33-18.07-14.47l-100.01,107.4,14.04,14Z"/>
    <path class="cls-4" d="M1173.79,468.06s-69.09,84.16-77.92,108.57"/>
    <polygon class="cls-30" points="1035.59 599.29 1046.51 589.62 999.76 480.01 985.55 488.48 1035.59 599.29"/>
    <line class="cls-4" x1="1060.54" y1="575.59" x2="1017.42" y2="473.25"/>
    <rect class="cls-11" x="1206.52" y="494.45" width="15.14" height="15.14" transform="translate(-63.34 195.08) rotate(-8.95)"/>
    <rect class="cls-11" x="1190.53" y="511.88" width="15.14" height="15.14" transform="translate(-66.25 192.81) rotate(-8.95)"/>
    <rect class="cls-11" x="1172.91" y="529.67" width="15.14" height="15.14" transform="translate(-69.23 190.28) rotate(-8.95)"/>
    <rect class="cls-11" x="1155.84" y="548.18" width="15.14" height="15.14" transform="translate(-72.32 187.85) rotate(-8.95)"/>
    <rect class="cls-11" x="1138.77" y="566.34" width="15.14" height="15.14" transform="translate(-75.35 185.41) rotate(-8.95)"/>
    <rect class="cls-11" x="1122.05" y="583.95" width="15.14" height="15.14" transform="translate(-78.3 183.03) rotate(-8.95)"/>
    <rect class="cls-11" x="992.45" y="491.26" width="11.35" height="11.35" transform="translate(207.29 1282.93) rotate(-71.29)"/>
    <rect class="cls-11" x="999.74" y="507.61" width="11.35" height="11.35" transform="translate(196.77 1300.94) rotate(-71.29)"/>
    <rect class="cls-11" x="1007.98" y="525.97" width="11.35" height="11.35" transform="translate(184.97 1321.22) rotate(-71.29)"/>
    <rect class="cls-11" x="1015.72" y="544.1" width="10.65" height="10.65" transform="translate(173.15 1340.3) rotate(-71.29)"/>
    <rect class="cls-11" x="1023.05" y="561.57" width="10.65" height="10.65" transform="translate(161.58 1359.11) rotate(-71.29)"/>
    <rect class="cls-11" x="1030.75" y="578.73" width="10.65" height="10.65" transform="translate(150.56 1378.05) rotate(-71.29)"/>
    <path class="cls-3" d="M1181.54,659.52s-7.34-33.01,4.4-70.42"/>
    <path class="cls-3" d="M955.07,618.86s.82-23.57,4.31-31.42"/>
    <path class="cls-32" d="M1104.49,281.89s5.55,39.5,49.27,85.13c0,0,8.56-16.91,21.25-11.92,12.69,4.99-.67,34.03-.67,34.03,0,0-10.12,17.83-26.5,7.53,0,0-15.41,25.01-3.66,42.36,0,0-14.54,2.8-7.83,22.94,0,0-19.58,9.51-8.39,29.09,0,0-17.03,6.72-.56,27.41,0,0-20.14,23.5,14.54,50.35,0,0-8.39-17.9-3.36-26.85,5.03-8.95,0-24.05,0-24.05,0,0,16.22-13.99,7.27-33,0,0,16.22-13.43,7.27-29.65,0,0,30.28-13.49,21.89-35.87,0,0,52.85-41.43,12.07-119.36-7.1-13.57-11.15-22.3-32.8-37.18,0,0-47.73-53.04-123.95-1.44,0,0-45.51,34.1-19.25,91.88,0,0,3.31-6.78,.28-20.96,0,0-.18-15.72,5.12-27.13,0,0,47.25,1.24,88.01-23.29Z"/>
    <path class="cls-22" d="M1271.8,659.47s.96,81.65-39.86,110.05c-40.82,28.4-188.66,11.42-188.66,11.42l-9.8,2.26-17.6,7.79c-17.1,3.27-47.52,1.01-47.52,1.01-7.54-1.26-3.02-9.55-3.02-9.55,0,0-3.77,4.53-9.8-6.54-6.03-11.06,9.3-11.06,9.3-11.06-19.11,3.02-17.39-6.25-17.39-6.25-3.5-4.81,4.37-8.74,4.37-8.74-10.93-7.43,.87-13.99,.87-13.99l34.96-6.99,45.01,18.36,3.5-1.31s88.24-37.41,140.6-41.85c52.36-4.44,0,0,0,0l4.78-44.56"/>
    <line class="cls-23" x1="959.63" y1="765.18" x2="976.63" y2="763.96"/>
    <line class="cls-23" x1="965.34" y1="782.45" x2="979.06" y2="779.75"/>
  </g>
  <polygon class="cls-11" points="884.01 849.45 1147.77 862.71 1180.92 830.29 920.11 814.09 884.01 849.45"/>
</svg>