<?xml version="1.0" encoding="UTF-8"?>
<svg xmlns="http://www.w3.org/2000/svg" xmlns:xlink="http://www.w3.org/1999/xlink" viewBox="0 0 1936.93 999.94">
  <defs>
    <style>
      .cls-1, .cls-2, .cls-3, .cls-4, .cls-5, .cls-6, .cls-7, .cls-8, .cls-9, .cls-10, .cls-11, .cls-12, .cls-13, .cls-14, .cls-15, .cls-16, .cls-17, .cls-18, .cls-19, .cls-20, .cls-21, .cls-22, .cls-23, .cls-24 {
        fill: none;
      }

      .cls-2, .cls-3 {
        stroke-width: 1.5px;
      }

      .cls-2, .cls-3, .cls-4, .cls-5, .cls-6, .cls-25, .cls-26, .cls-7, .cls-27, .cls-28, .cls-29, .cls-30, .cls-31, .cls-8, .cls-9, .cls-10, .cls-11, .cls-12, .cls-13, .cls-14, .cls-15, .cls-16, .cls-17, .cls-18, .cls-19, .cls-20, .cls-21, .cls-22, .cls-32, .cls-33, .cls-23, .cls-24 {
        stroke-miterlimit: 10;
      }

      .cls-2, .cls-8 {
        stroke: #16a9de;
      }

      .cls-3 {
        stroke: #75308e;
      }

      .cls-4 {
        stroke: #d1d3d4;
      }

      .cls-4, .cls-5, .cls-32, .cls-33 {
        stroke-width: 6px;
      }

      .cls-5, .cls-17, .cls-22, .cls-32 {
        stroke: #fff;
      }

      .cls-34 {
        clip-path: url(#clippath);
      }

      .cls-6 {
        stroke-width: .8px;
      }

      .cls-6, .cls-7, .cls-31, .cls-13 {
        stroke: #231f20;
      }

      .cls-35 {
        fill: #006087;
      }

      .cls-36 {
        fill: #00628a;
      }

      .cls-37, .cls-28 {
        fill: #0098bd;
      }

      .cls-38 {
        fill: #f15953;
      }

      .cls-39, .cls-27 {
        fill: #fff;
      }

      .cls-40 {
        fill: #f1f2f2;
      }

      .cls-41 {
        fill: #f08681;
      }

      .cls-42 {
        fill: #ffcb05;
      }

      .cls-43 {
        fill: #fbb040;
      }

      .cls-44 {
        fill: #803435;
      }

      .cls-45 {
        fill: #9a6c3f;
      }

      .cls-46 {
        fill: #8b5e3c;
      }

      .cls-47 {
        fill: #8b6340;
      }

      .cls-48 {
        fill: #9054a2;
      }

      .cls-49 {
        fill: #8fb359;
      }

      .cls-50 {
        fill: #301c12;
      }

      .cls-51 {
        fill: #cf9f73;
      }

      .cls-52, .cls-30 {
        fill: #bd9154;
      }

      .cls-53 {
        fill: #be9e7d;
      }

      .cls-54 {
        fill: #be8c8c;
      }

      .cls-55 {
        fill: #bde4e0;
      }

      .cls-56 {
        fill: #bf6b6b;
      }

      .cls-57 {
        fill: #d1d3d4;
      }

      .cls-58 {
        fill: #ac8263;
      }

      .cls-59 {
        fill: #e2ae6d;
      }

      .cls-60, .cls-29 {
        fill: #ca544c;
      }

      .cls-61 {
        fill: #231f20;
      }

      .cls-62 {
        fill: #0f3e5d;
      }

      .cls-63, .cls-31 {
        fill: #9c2024;
      }

      .cls-64 {
        fill: #808285;
      }

      .cls-65 {
        fill: #3c2415;
      }

      .cls-66 {
        fill: #3aa362;
      }

      .cls-67 {
        fill: #749147;
      }

      .cls-68, .cls-26 {
        fill: #754c29;
      }

      .cls-69 {
        fill: #26130f;
      }

      .cls-25, .cls-8, .cls-9, .cls-10, .cls-11 {
        stroke-width: 2px;
      }

      .cls-25, .cls-33 {
        fill: #a97c50;
        stroke: #a97c50;
      }

      .cls-26 {
        stroke-width: .2px;
      }

      .cls-26, .cls-19, .cls-24 {
        stroke: #754c29;
      }

      .cls-70 {
        clip-path: url(#clippath-1);
      }

      .cls-7 {
        stroke-width: .7px;
      }

      .cls-27 {
        stroke: #9a6c3f;
        stroke-width: 8px;
      }

      .cls-28 {
        stroke: #196bac;
      }

      .cls-29, .cls-20 {
        stroke: #be1e2d;
      }

      .cls-30, .cls-23 {
        stroke: #603913;
      }

      .cls-9 {
        stroke: #1c75bc;
      }

      .cls-10 {
        stroke: #8b645f;
      }

      .cls-11 {
        stroke: #8fb359;
      }

      .cls-12 {
        stroke: #0c3149;
      }

      .cls-14 {
        stroke: #662d91;
      }

      .cls-15 {
        stroke: #939598;
      }

      .cls-16 {
        stroke: #fbb040;
      }

      .cls-18 {
        stroke: #749147;
      }

      .cls-21 {
        stroke: #a579b5;
      }

      .cls-71 {
        opacity: .8;
      }

      .cls-22 {
        stroke-dasharray: 0 0 3 3;
      }

      .cls-32 {
        fill: #c8eaf6;
      }

      .cls-23, .cls-24 {
        stroke-width: .5px;
      }
    </style>
    <clipPath id="clippath">
      <rect class="cls-1" x="962.16" y="417.69" width="493.89" height="475.11"/>
    </clipPath>
    <clipPath id="clippath-1">
      <rect class="cls-1" x="122.26" y="587.22" width="642.55" height="373.5"/>
    </clipPath>
  </defs>
  <g id="fondo">
    <rect class="cls-55" x="122.98" width="1333.22" height="885.41"/>
    <rect class="cls-59" x="122.98" y="869.57" width="1333.06" height="130.37"/>
    <g>
      <g>
        <path class="cls-49" d="M793.37,414.02s-15.41,.88-26.46-3.78c0,0-13.96-2.91-7.85,14.83s36.63,6.11,38.09-.29"/>
        <path class="cls-49" d="M801.3,432.92s-5.59,3.96-19.33,2.79c-13.74-1.16-14.44,10.48-14.44,10.48,0,0,.47,12.11,20.26,11.41,0,0,11.64-.7,18.4-14.2"/>
        <path class="cls-49" d="M809.22,450.15s-7.22,12.34-19.09,12.11c-11.88-.23-6.75,12.11-6.75,12.11,0,0,3.73,9.08,15.37,3.26,11.64-5.82,13.51-19.09,13.51-19.09"/>
        <path class="cls-49" d="M795.51,413s12.2-11.3,17.45-21.39c0,0,6.39-11.91,14.62,4.94,8.22,16.86-21.58,30.22-27.14,26.73"/>
        <path class="cls-49" d="M804.69,432.18s6.75-1.15,15.64-11.69c8.89-10.54,17.62-2.8,17.62-2.8,0,0,8.23,8.89-6.26,22.39,0,0-8.73,7.74-23.05,2.97"/>
        <path class="cls-49" d="M809.45,451.39s13.83,3.62,22.06-4.94c8.23-8.56,13.34,3.79,13.34,3.79,0,0,3.79,9.06-8.56,13.17-12.35,4.12-23.05-3.95-23.05-3.95"/>
        <path class="cls-49" d="M790.01,410.53c-30.04-11.18-20.03-32.37-20.03-32.37,23.75,.93,23.29,30.27,23.29,30.27"/>
        <path class="cls-11" d="M820.18,494.66s-12.29-70.7-36.45-94.41"/>
      </g>
      <g>
        <path class="cls-67" d="M850.18,435.1s11.57,.66,19.87-2.84c0,0,10.48-2.18,5.9,11.14-4.59,13.32-27.51,4.59-28.61-.22"/>
        <path class="cls-67" d="M844.22,449.29s4.2,2.97,14.52,2.1c10.32-.87,10.84,7.87,10.84,7.87,0,0-.35,9.09-15.22,8.57,0,0-8.74-.52-13.82-10.67"/>
        <path class="cls-67" d="M838.28,462.24s5.42,9.27,14.34,9.09c8.92-.17,5.07,9.09,5.07,9.09,0,0-2.8,6.82-11.54,2.45-8.74-4.37-10.14-14.34-10.14-14.34"/>
        <path class="cls-67" d="M848.58,434.34s-9.16-8.49-13.11-16.07c0,0-4.8-8.95-10.98,3.71-6.18,12.66,16.21,22.7,20.38,20.07"/>
        <path class="cls-67" d="M841.68,448.74s-5.07-.87-11.75-8.78c-6.68-7.91-13.23-2.1-13.23-2.1,0,0-6.18,6.68,4.7,16.82,0,0,6.55,5.81,17.31,2.23"/>
        <path class="cls-67" d="M838.11,463.16s-10.39,2.72-16.57-3.71-10.02,2.84-10.02,2.84c0,0-2.84,6.8,6.43,9.89,9.27,3.09,17.31-2.97,17.31-2.97"/>
        <path class="cls-67" d="M852.7,432.48c22.56-8.39,15.04-24.31,15.04-24.31-17.84,.7-17.49,22.74-17.49,22.74"/>
        <path class="cls-18" d="M830.05,495.66s9.23-53.1,27.37-70.9"/>
      </g>
      <path class="cls-41" d="M863.61,547.65v-59.84s-77.76,0-77.76,0v59.52s37.08,22.54,77.76,.32Z"/>
      <rect class="cls-41" x="799.05" y="553.24" width="50.47" height="9.7" transform="translate(1648.58 1116.17) rotate(-180)"/>
      <polyline class="cls-10" points="862.51 515.14 849.95 513.14 837.37 515.14 824.8 513.14 812.23 515.14 799.64 513.14 787.06 515.14"/>
      <polyline class="cls-10" points="862.51 525.65 849.95 523.65 837.37 525.65 824.8 523.65 812.23 525.65 799.64 523.65 787.06 525.65"/>
    </g>
    <g>
      <rect class="cls-52" x="429.36" y="581.11" width="522.94" height="271.38" transform="translate(1381.66 1433.61) rotate(-180)"/>
      <rect class="cls-45" x="412.72" y="563.81" width="539.7" height="18.43" transform="translate(1365.14 1146.06) rotate(-180)"/>
      <polygon class="cls-45" points="952.4 869.89 419.12 869.89 429.46 852.42 952.4 851.46 952.4 869.89"/>
      <rect class="cls-30" x="698.97" y="597.35" width="239.71" height="46.36" transform="translate(1637.64 1241.06) rotate(-180)"/>
      <path class="cls-19" d="M806.32,620.82c0,6.82,5.53,12.35,12.35,12.35s12.35-5.53,12.35-12.35"/>
      <circle class="cls-26" cx="830.89" cy="620.87" r="1.9"/>
      <circle class="cls-26" cx="806.29" cy="620.87" r="1.9"/>
      <rect class="cls-30" x="444.64" y="597.35" width="239.71" height="46.36" transform="translate(1128.98 1241.06) rotate(-180)"/>
      <path class="cls-19" d="M551.99,620.82c0,6.82,5.53,12.35,12.35,12.35,6.82,0,12.35-5.53,12.35-12.35"/>
      <circle class="cls-26" cx="576.56" cy="620.87" r="1.9"/>
      <circle class="cls-26" cx="551.96" cy="620.87" r="1.9"/>
      <rect class="cls-30" x="698.97" y="659.47" width="239.71" height="46.36" transform="translate(1637.64 1365.29) rotate(-180)"/>
      <path class="cls-19" d="M806.32,682.94c0,6.82,5.53,12.35,12.35,12.35,6.82,0,12.35-5.53,12.35-12.35"/>
      <circle class="cls-26" cx="830.89" cy="682.99" r="1.9"/>
      <circle class="cls-26" cx="806.29" cy="682.99" r="1.9"/>
      <rect class="cls-30" x="444.64" y="659.47" width="239.71" height="46.36" transform="translate(1128.98 1365.29) rotate(-180)"/>
      <path class="cls-19" d="M551.99,682.94c0,6.82,5.53,12.35,12.35,12.35,6.82,0,12.35-5.53,12.35-12.35"/>
      <circle class="cls-26" cx="576.56" cy="682.99" r="1.9"/>
      <circle class="cls-26" cx="551.96" cy="682.99" r="1.9"/>
      <rect class="cls-30" x="698.97" y="722.2" width="239.71" height="46.36" transform="translate(1637.64 1490.76) rotate(-180)"/>
      <path class="cls-19" d="M806.32,745.67c0,6.82,5.53,12.35,12.35,12.35s12.35-5.53,12.35-12.35"/>
      <circle class="cls-26" cx="830.89" cy="745.73" r="1.9"/>
      <circle class="cls-26" cx="806.29" cy="745.73" r="1.9"/>
      <rect class="cls-30" x="444.64" y="722.2" width="239.71" height="46.36" transform="translate(1128.98 1490.76) rotate(-180)"/>
      <path class="cls-19" d="M551.99,745.67c0,6.82,5.53,12.35,12.35,12.35s12.35-5.53,12.35-12.35"/>
      <circle class="cls-26" cx="576.56" cy="745.73" r="1.9"/>
      <circle class="cls-26" cx="551.96" cy="745.73" r="1.9"/>
      <rect class="cls-30" x="698.97" y="784.93" width="239.71" height="46.36" transform="translate(1637.64 1616.23) rotate(-180)"/>
      <path class="cls-19" d="M806.32,808.4c0,6.82,5.53,12.35,12.35,12.35s12.35-5.53,12.35-12.35"/>
      <circle class="cls-26" cx="830.89" cy="808.46" r="1.9"/>
      <circle class="cls-26" cx="806.29" cy="808.46" r="1.9"/>
      <rect class="cls-30" x="444.64" y="784.93" width="239.71" height="46.36" transform="translate(1128.98 1616.23) rotate(-180)"/>
      <path class="cls-19" d="M551.99,808.4c0,6.82,5.53,12.35,12.35,12.35s12.35-5.53,12.35-12.35"/>
      <circle class="cls-26" cx="576.56" cy="808.46" r="1.9"/>
      <circle class="cls-26" cx="551.96" cy="808.46" r="1.9"/>
    </g>
    <polygon class="cls-40" points="705.06 629.16 503.8 563.08 906.32 563.08 705.06 629.16"/>
    <polyline class="cls-2" points="906.47 566.12 901.25 566.78 896.66 569.34 891.44 570 886.85 572.56 881.64 573.22 877.04 575.78 871.82 576.44 867.23 579 862.01 579.66 857.42 582.22 852.2 582.88 847.61 585.44 842.39 586.1 837.79 588.66 832.57 589.33 827.98 591.89 822.76 592.55 818.16 595.11 812.94 595.77 808.35 598.33 803.13 598.99 798.53 601.56 793.31 602.22 788.71 604.78 783.49 605.44 778.89 608 773.67 608.67 769.07 611.23 763.85 611.89 759.25 614.45 754.03 615.11 749.44 617.67 744.21 618.34 739.61 620.9 734.39 621.56 729.79 624.12 724.57 624.79 719.97 627.35 714.74 628.01 710.13 630.58 705.06 631.22 700 630.58 695.4 628.02 690.19 627.36 685.59 624.8 680.38 624.14 675.79 621.58 670.57 620.92 665.97 618.36 660.76 617.7 656.17 615.14 650.95 614.48 646.35 611.92 641.13 611.26 636.54 608.69 631.32 608.03 626.72 605.47 621.5 604.81 616.91 602.25 611.69 601.59 607.09 599.03 601.87 598.36 597.27 595.8 592.05 595.14 587.46 592.58 582.23 591.92 577.64 589.36 572.41 588.69 567.81 586.13 562.59 585.47 558 582.91 552.78 582.25 548.18 579.68 542.96 579.02 538.36 576.46 533.13 575.8 528.53 573.23 523.31 572.57 518.71 570.01 513.49 569.35 508.88 566.78 503.65 566.12"/>
    <polyline class="cls-8" points="906.32 563.08 705.06 629.16 503.8 563.08"/>
    <rect class="cls-1" x="754.46" y="562.62" width="197.94" height="307.28"/>
    <g>
      <rect class="cls-27" x="940.8" y="191.89" width="134.46" height="101.42"/>
      <rect class="cls-36" x="952.57" y="203.1" width="109.82" height="78.44"/>
    </g>
    <g>
      <polyline class="cls-58" points="331.47 557.05 345.21 734.09 336.47 915.82 360.19 915.82 368.93 831.4 478.8 831.4 486.29 915.82 510.02 915.82 496.28 716.5 375.17 716.5"/>
      <polygon class="cls-55" points="372.12 811.12 376.07 763.89 469.04 763.89 473.98 811.91 372.12 811.12"/>
      <polygon class="cls-58" points="331.47 557.05 509.23 557.05 496.28 726.85 344.41 726.85 331.47 557.05"/>
      <rect class="cls-46" x="343.05" y="721.95" width="154.02" height="20.25"/>
      <polygon class="cls-52" points="473.98 811.91 427.59 811.91 427.59 763.98 469.04 763.98 473.98 811.91"/>
    </g>
    <g>
      <rect class="cls-32" x="201.62" y="59.66" width="390.42" height="343.5"/>
      <line class="cls-33" x1="156.63" y1="47.45" x2="636.99" y2="47.45"/>
      <circle class="cls-25" cx="153.05" cy="46.88" r="6.32"/>
      <circle class="cls-25" cx="643.49" cy="47.73" r="6.32"/>
      <path class="cls-60" d="M170.86,37.64l-.73,396.5s15.42,13.22,39.65,5.14v-16.89s22.03,5.87,34.51,0v13.95s22.76,8.81,30.1,.73l-15.42-259.19,8.08-140.24-39.65,.73-8.81,2.2-14.69-2.94h-33.04Z"/>
      <path class="cls-60" d="M629.98,37.64l.73,396.5s-15.42,13.22-39.65,5.14v-16.89s-22.03,5.87-34.51,0v13.95s-22.76,8.81-30.1,.73l15.42-259.19-8.08-140.24,39.65,.73,8.81,2.2,14.69-2.94h33.04Z"/>
      <line class="cls-20" x1="209.77" y1="422.39" x2="202.21" y2="266.39"/>
      <line class="cls-20" x1="244.28" y1="422.39" x2="240.75" y2="275.79"/>
      <line class="cls-20" x1="203.9" y1="37.64" x2="201.23" y2="192.3"/>
      <line class="cls-20" x1="218.58" y1="40.57" x2="220.66" y2="271.54"/>
      <line class="cls-20" x1="556.55" y1="422.39" x2="557.03" y2="282.75"/>
      <line class="cls-20" x1="591.06" y1="422.39" x2="593.66" y2="240.89"/>
      <line class="cls-20" x1="573.44" y1="38.37" x2="573.48" y2="170.63"/>
      <line class="cls-20" x1="596.93" y1="37.64" x2="597.4" y2="202.77"/>
      <line class="cls-5" x1="397.2" y1="58.04" x2="397.2" y2="402.39"/>
      <line class="cls-4" x1="402.43" y1="62.54" x2="402.43" y2="399.37"/>
    </g>
    <g class="cls-34">
      <g>
        <rect class="cls-35" x="1076.16" y="737.8" width="754.73" height="23.09"/>
        <path class="cls-37" d="M1099.02,428.55h321.6c19.72,0,35.74,16.01,35.74,35.74v194.29c0,.21-.17,.38-.38,.38h-356.95c-19.72,0-35.74-16.01-35.74-35.74v-158.93c0-19.72,16.01-35.74,35.74-35.74Z"/>
        <rect class="cls-37" x="1091.79" y="754.11" width="726.96" height="73.05" rx="15.96" ry="15.96"/>
        <path class="cls-68" d="M1043.84,869.37h-21.57c-7.41,0-13.99-4.74-16.33-11.77l-8.87-26.61h75.48l-14.93,29.87c-2.61,5.22-7.94,8.51-13.77,8.51Z"/>
        <path class="cls-37" d="M1491.95,428.55h357.25s.08,.03,.08,.08v194.59c0,19.72-16.01,35.74-35.74,35.74h-321.6c-19.72,0-35.74-16.01-35.74-35.74v-158.93c0-19.72,16.01-35.74,35.74-35.74Z" transform="translate(3305.5 1087.51) rotate(-180)"/>
        <path class="cls-68" d="M1868.74,869.37h21.57c7.41,0,13.99-4.74,16.33-11.77l8.87-26.61h-75.48s14.93,29.87,14.93,29.87c2.61,5.22,7.94,8.51,13.77,8.51Z"/>
        <rect class="cls-28" x="1812.8" y="560.32" width="123.64" height="270.76" rx="35.2" ry="35.2"/>
        <rect class="cls-28" x="974.64" y="560.32" width="123.64" height="270.76" rx="35.2" ry="35.2" transform="translate(2072.93 1391.4) rotate(-180)"/>
        <rect class="cls-28" x="1091.79" y="647.57" width="364.56" height="107.78" rx="15.96" ry="15.96"/>
        <rect class="cls-28" x="1456.22" y="647.57" width="364.56" height="107.78" rx="15.96" ry="15.96" transform="translate(3277 1402.92) rotate(-180)"/>
        <line class="cls-28" x1="1456.22" y1="464.29" x2="1456.22" y2="663.53"/>
      </g>
    </g>
    <g class="cls-70">
      <g>
        <polygon class="cls-47" points="19.87 949.04 21.3 651.35 729.74 651.35 729.74 950.47 710.42 950.47 694.31 707.17 55.78 707.17 41.18 949.04 19.87 949.04"/>
        <g>
          <path class="cls-17" d="M1.56,683.77s-1.39,5.73-.13,9.2-.95,10.72-.95,10.72"/>
          <path class="cls-17" d="M5.58,684.36s-.51,10.67,.76,18.8"/>
          <path class="cls-17" d="M11.42,684.87s1.52,3.56-.51,7.62c-2.03,4.07-.51,11.43-.51,11.43"/>
          <path class="cls-17" d="M14.22,702.4s-2.03-10.93,.25-17.28"/>
          <line class="cls-17" x1="16.76" y1="685.37" x2="16.5" y2="703.92"/>
          <path class="cls-17" d="M59.74,686.06s-1.39,5.73-.13,9.2c1.26,3.47-.95,10.72-.95,10.72"/>
          <path class="cls-17" d="M63.76,686.64s-.51,10.67,.76,18.8"/>
          <path class="cls-17" d="M69.61,687.15s1.52,3.56-.51,7.62c-2.03,4.07-.51,11.43-.51,11.43"/>
          <path class="cls-17" d="M72.4,704.68s-2.03-10.93,.25-17.28"/>
          <line class="cls-17" x1="74.94" y1="687.66" x2="74.69" y2="706.21"/>
          <path class="cls-17" d="M79.31,685.81s-1.39,5.73-.13,9.2-.95,10.72-.95,10.72"/>
          <path class="cls-17" d="M83.33,686.39s-.51,10.67,.76,18.8"/>
          <path class="cls-17" d="M89.17,686.9s1.52,3.56-.51,7.62-.51,11.43-.51,11.43"/>
          <path class="cls-17" d="M91.97,704.43s-2.03-10.93,.25-17.28"/>
          <line class="cls-17" x1="94.51" y1="687.41" x2="94.25" y2="705.95"/>
          <path class="cls-17" d="M99.12,684.79s-1.39,5.73-.13,9.2-.95,10.72-.95,10.72"/>
          <path class="cls-17" d="M103.15,685.37s-.51,10.67,.76,18.8"/>
          <path class="cls-17" d="M108.99,685.88s1.52,3.56-.51,7.62-.51,11.43-.51,11.43"/>
          <path class="cls-17" d="M111.79,703.41s-2.03-10.93,.25-17.28"/>
          <line class="cls-17" x1="114.33" y1="686.39" x2="114.07" y2="704.94"/>
          <path class="cls-17" d="M117.93,683.27s-1.39,5.73-.13,9.2c1.26,3.47-.95,10.72-.95,10.72"/>
          <path class="cls-17" d="M121.95,683.85s-.51,10.67,.76,18.8"/>
          <path class="cls-17" d="M127.79,684.36s1.52,3.56-.51,7.62-.51,11.43-.51,11.43"/>
          <path class="cls-17" d="M130.59,701.89s-2.03-10.93,.25-17.28"/>
          <line class="cls-17" x1="133.13" y1="684.87" x2="132.87" y2="703.41"/>
          <path class="cls-17" d="M136.73,681.49s-1.39,5.73-.13,9.2-.95,10.72-.95,10.72"/>
          <path class="cls-17" d="M140.75,682.07s-.51,10.67,.76,18.8"/>
          <path class="cls-17" d="M146.6,682.58s1.52,3.56-.51,7.62c-2.03,4.07-.51,11.43-.51,11.43"/>
          <path class="cls-17" d="M149.39,700.11s-2.03-10.93,.25-17.28"/>
          <line class="cls-17" x1="151.93" y1="683.09" x2="151.68" y2="701.63"/>
          <path class="cls-17" d="M155.79,680.47s-1.39,5.73-.13,9.2-.95,10.72-.95,10.72"/>
          <path class="cls-17" d="M159.81,681.05s-.51,10.67,.76,18.8"/>
          <path class="cls-17" d="M165.65,681.56s1.52,3.56-.51,7.62-.51,11.43-.51,11.43"/>
          <path class="cls-17" d="M168.45,699.09s-2.03-10.93,.25-17.28"/>
          <line class="cls-17" x1="170.99" y1="682.07" x2="170.73" y2="700.62"/>
          <path class="cls-17" d="M174.33,680.73s-1.39,5.73-.13,9.2-.95,10.72-.95,10.72"/>
          <path class="cls-17" d="M178.36,681.31s-.51,10.67,.76,18.8"/>
          <path class="cls-17" d="M184.2,681.82s1.52,3.56-.51,7.62-.51,11.43-.51,11.43"/>
          <path class="cls-17" d="M186.99,699.35s-2.03-10.93,.25-17.28"/>
          <line class="cls-17" x1="189.54" y1="682.32" x2="189.28" y2="700.87"/>
          <path class="cls-17" d="M193.39,680.73s-1.39,5.73-.13,9.2-.95,10.72-.95,10.72"/>
          <path class="cls-17" d="M197.41,681.31s-.51,10.67,.76,18.8"/>
          <path class="cls-17" d="M203.26,681.82s1.52,3.56-.51,7.62-.51,11.43-.51,11.43"/>
          <path class="cls-17" d="M206.05,699.35s-2.03-10.93,.25-17.28"/>
          <line class="cls-17" x1="208.59" y1="682.32" x2="208.34" y2="700.87"/>
          <path class="cls-17" d="M212.45,682s-1.39,5.73-.13,9.2-.95,10.72-.95,10.72"/>
          <path class="cls-17" d="M216.47,682.58s-.51,10.67,.76,18.8"/>
          <path class="cls-17" d="M222.31,683.09s1.52,3.56-.51,7.62-.51,11.43-.51,11.43"/>
          <path class="cls-17" d="M225.11,700.62s-2.03-10.93,.25-17.28"/>
          <line class="cls-17" x1="227.65" y1="683.59" x2="227.39" y2="702.14"/>
          <path class="cls-17" d="M231.5,683.77s-1.39,5.73-.13,9.2-.95,10.72-.95,10.72"/>
          <path class="cls-17" d="M235.52,684.36s-.51,10.67,.76,18.8"/>
          <path class="cls-17" d="M241.37,684.87s1.52,3.56-.51,7.62-.51,11.43-.51,11.43"/>
          <path class="cls-17" d="M244.16,702.4s-2.03-10.93,.25-17.28"/>
          <line class="cls-17" x1="246.7" y1="685.37" x2="246.45" y2="703.92"/>
          <path class="cls-17" d="M251.07,685.81s-1.39,5.73-.13,9.2c1.26,3.47-.95,10.72-.95,10.72"/>
          <path class="cls-17" d="M255.09,686.39s-.51,10.67,.76,18.8"/>
          <path class="cls-17" d="M260.93,686.9s1.52,3.56-.51,7.62-.51,11.43-.51,11.43"/>
          <path class="cls-17" d="M263.73,704.43s-2.03-10.93,.25-17.28"/>
          <line class="cls-17" x1="266.27" y1="687.41" x2="266.01" y2="705.95"/>
          <path class="cls-17" d="M270.12,687.08s-1.39,5.73-.13,9.2-.95,10.72-.95,10.72"/>
          <path class="cls-17" d="M274.15,687.66s-.51,10.67,.76,18.8"/>
          <path class="cls-17" d="M279.99,688.17s1.52,3.56-.51,7.62c-2.03,4.07-.51,11.43-.51,11.43"/>
          <path class="cls-17" d="M282.78,705.7s-2.03-10.93,.25-17.28"/>
          <line class="cls-17" x1="285.33" y1="688.68" x2="285.07" y2="707.22"/>
          <path class="cls-17" d="M289.18,688.09s-1.39,5.73-.13,9.2-.95,10.72-.95,10.72"/>
          <path class="cls-17" d="M293.2,688.68s-.51,10.67,.76,18.8"/>
          <path class="cls-17" d="M299.05,689.18s1.52,3.56-.51,7.62c-2.03,4.07-.51,11.43-.51,11.43"/>
          <path class="cls-17" d="M301.84,706.72s-2.03-10.93,.25-17.28"/>
          <line class="cls-17" x1="304.38" y1="689.69" x2="304.13" y2="708.24"/>
          <path class="cls-17" d="M308.74,687.84s-1.39,5.73-.13,9.2-.95,10.72-.95,10.72"/>
          <path class="cls-17" d="M312.77,688.42s-.51,10.67,.76,18.8"/>
          <path class="cls-17" d="M318.61,688.93s1.52,3.56-.51,7.62c-2.03,4.07-.51,11.43-.51,11.43"/>
          <path class="cls-17" d="M321.41,706.46s-2.03-10.93,.25-17.28"/>
          <line class="cls-17" x1="323.95" y1="689.44" x2="323.69" y2="707.99"/>
          <path class="cls-17" d="M327.55,686.82s-1.39,5.73-.13,9.2c1.26,3.47-.95,10.72-.95,10.72"/>
          <path class="cls-17" d="M331.57,687.41s-.51,10.67,.76,18.8"/>
          <path class="cls-17" d="M337.41,687.91s1.52,3.56-.51,7.62-.51,11.43-.51,11.43"/>
          <path class="cls-17" d="M340.21,705.45s-2.03-10.93,.25-17.28"/>
          <line class="cls-17" x1="342.75" y1="688.42" x2="342.49" y2="706.97"/>
          <path class="cls-17" d="M346.09,685.04s-1.39,5.73-.13,9.2-.95,10.72-.95,10.72"/>
          <path class="cls-17" d="M350.12,685.63s-.51,10.67,.76,18.8"/>
          <path class="cls-17" d="M355.96,686.14s1.52,3.56-.51,7.62-.51,11.43-.51,11.43"/>
          <path class="cls-17" d="M358.76,703.67s-2.03-10.93,.25-17.28"/>
          <line class="cls-17" x1="361.3" y1="686.64" x2="361.04" y2="705.19"/>
          <path class="cls-17" d="M365.15,681.23s-1.39,5.73-.13,9.2-.95,10.72-.95,10.72"/>
          <path class="cls-17" d="M369.17,681.82s-.51,10.67,.76,18.8"/>
          <path class="cls-17" d="M375.02,682.32s1.52,3.56-.51,7.62-.51,11.43-.51,11.43"/>
          <path class="cls-17" d="M377.81,699.86s-2.03-10.93,.25-17.28"/>
          <line class="cls-17" x1="380.35" y1="682.83" x2="380.1" y2="701.38"/>
          <path class="cls-17" d="M384.21,678.18s-1.39,5.73-.13,9.2-.95,10.72-.95,10.72"/>
          <path class="cls-17" d="M388.23,678.77s-.51,10.67,.76,18.8"/>
          <path class="cls-17" d="M394.07,679.28s1.52,3.56-.51,7.62-.51,11.43-.51,11.43"/>
          <path class="cls-17" d="M396.87,696.81s-2.03-10.93,.25-17.28"/>
          <line class="cls-17" x1="399.41" y1="679.78" x2="399.16" y2="698.33"/>
          <path class="cls-17" d="M403.52,675.64s-1.39,5.73-.13,9.2-.95,10.72-.95,10.72"/>
          <path class="cls-17" d="M407.54,676.23s-.51,10.67,.76,18.8"/>
          <path class="cls-17" d="M413.38,676.73s1.52,3.56-.51,7.62c-2.03,4.07-.51,11.43-.51,11.43"/>
          <path class="cls-17" d="M416.18,694.27s-2.03-10.93,.25-17.28"/>
          <line class="cls-17" x1="418.72" y1="677.24" x2="418.47" y2="695.79"/>
          <path class="cls-17" d="M422.57,676.41s-1.39,5.73-.13,9.2-.95,10.72-.95,10.72"/>
          <path class="cls-17" d="M426.6,676.99s-.51,10.67,.76,18.8"/>
          <path class="cls-17" d="M432.44,677.5s1.52,3.56-.51,7.62c-2.03,4.07-.51,11.43-.51,11.43"/>
          <path class="cls-17" d="M435.24,695.03s-2.03-10.93,.25-17.28"/>
          <line class="cls-17" x1="437.78" y1="678.01" x2="437.52" y2="696.55"/>
          <path class="cls-17" d="M441.63,677.68s-1.39,5.73-.13,9.2-.95,10.72-.95,10.72"/>
          <path class="cls-17" d="M445.65,678.26s-.51,10.67,.76,18.8"/>
          <path class="cls-17" d="M451.5,678.77s1.52,3.56-.51,7.62c-2.03,4.07-.51,11.43-.51,11.43"/>
          <path class="cls-17" d="M454.29,696.3s-2.03-10.93,.25-17.28"/>
          <line class="cls-17" x1="456.83" y1="679.28" x2="456.58" y2="697.82"/>
          <path class="cls-17" d="M459.92,682.25s-1.39,5.73-.13,9.2-.95,10.72-.95,10.72"/>
          <path class="cls-17" d="M463.95,682.83s-.51,10.67,.76,18.8"/>
          <path class="cls-17" d="M469.79,683.34s1.52,3.56-.51,7.62c-2.03,4.07-.51,11.43-.51,11.43"/>
          <path class="cls-17" d="M472.59,700.87s-2.03-10.93,.25-17.28"/>
          <line class="cls-17" x1="475.13" y1="683.85" x2="474.87" y2="702.4"/>
          <path class="cls-17" d="M478.22,685.04s-1.39,5.73-.13,9.2c1.26,3.47-.95,10.72-.95,10.72"/>
          <path class="cls-17" d="M482.24,685.63s-.51,10.67,.76,18.8"/>
          <path class="cls-17" d="M488.09,686.14s1.52,3.56-.51,7.62c-2.03,4.07-.51,11.43-.51,11.43"/>
          <path class="cls-17" d="M490.88,703.67s-2.03-10.93,.25-17.28"/>
          <line class="cls-17" x1="493.42" y1="686.64" x2="493.17" y2="705.19"/>
          <path class="cls-17" d="M496.51,686.82s-1.39,5.73-.13,9.2-.95,10.72-.95,10.72"/>
          <path class="cls-17" d="M500.54,687.41s-.51,10.67,.76,18.8"/>
          <path class="cls-17" d="M506.38,687.91s1.52,3.56-.51,7.62c-2.03,4.07-.51,11.43-.51,11.43"/>
          <path class="cls-17" d="M509.17,705.45s-2.03-10.93,.25-17.28"/>
          <line class="cls-17" x1="511.72" y1="688.42" x2="511.46" y2="706.97"/>
          <path class="cls-17" d="M515.32,688.86s-1.39,5.73-.13,9.2-.95,10.72-.95,10.72"/>
          <path class="cls-17" d="M519.34,689.44s-.51,10.67,.76,18.8"/>
          <path class="cls-17" d="M525.18,689.95s1.52,3.56-.51,7.62c-2.03,4.07-.51,11.43-.51,11.43"/>
          <path class="cls-17" d="M527.98,707.48s-2.03-10.93,.25-17.28"/>
          <line class="cls-17" x1="530.52" y1="690.46" x2="530.26" y2="709"/>
          <path class="cls-17" d="M534.37,688.09s-1.39,5.73-.13,9.2c1.26,3.47-.95,10.72-.95,10.72"/>
          <path class="cls-17" d="M538.39,688.68s-.51,10.67,.76,18.8"/>
          <path class="cls-17" d="M544.24,689.18s1.52,3.56-.51,7.62c-2.03,4.07-.51,11.43-.51,11.43"/>
          <path class="cls-17" d="M547.03,706.72s-2.03-10.93,.25-17.28"/>
          <line class="cls-17" x1="549.57" y1="689.69" x2="549.32" y2="708.24"/>
          <path class="cls-17" d="M553.43,685.81s-1.39,5.73-.13,9.2c1.26,3.47-.95,10.72-.95,10.72"/>
          <path class="cls-17" d="M557.45,686.39s-.51,10.67,.76,18.8"/>
          <path class="cls-17" d="M563.29,686.9s1.52,3.56-.51,7.62c-2.03,4.07-.51,11.43-.51,11.43"/>
          <path class="cls-17" d="M566.09,704.43s-2.03-10.93,.25-17.28"/>
          <line class="cls-17" x1="568.63" y1="687.41" x2="568.38" y2="705.95"/>
          <path class="cls-17" d="M571.21,679.96s-1.39,5.73-.13,9.2-.95,10.72-.95,10.72"/>
          <path class="cls-17" d="M575.24,680.55s-.51,10.67,.76,18.8"/>
          <path class="cls-17" d="M581.08,681.05s1.52,3.56-.51,7.62-.51,11.43-.51,11.43"/>
          <path class="cls-17" d="M583.88,698.59s-2.03-10.93,.25-17.28"/>
          <line class="cls-17" x1="586.42" y1="681.56" x2="586.16" y2="700.11"/>
          <path class="cls-17" d="M589.25,676.41s-1.39,5.73-.13,9.2-.95,10.72-.95,10.72"/>
          <path class="cls-17" d="M593.28,676.99s-.51,10.67,.76,18.8"/>
          <path class="cls-17" d="M599.12,677.5s1.52,3.56-.51,7.62c-2.03,4.07-.51,11.43-.51,11.43"/>
          <path class="cls-17" d="M601.92,695.03s-2.03-10.93,.25-17.28"/>
          <line class="cls-17" x1="604.46" y1="678.01" x2="604.2" y2="696.55"/>
          <path class="cls-17" d="M607.8,674.63s-1.39,5.73-.13,9.2-.95,10.72-.95,10.72"/>
          <path class="cls-17" d="M611.82,675.21s-.51,10.67,.76,18.8"/>
          <path class="cls-17" d="M617.67,675.72s1.52,3.56-.51,7.62-.51,11.43-.51,11.43"/>
          <path class="cls-17" d="M620.46,693.25s-2.03-10.93,.25-17.28"/>
          <line class="cls-17" x1="623" y1="676.23" x2="622.75" y2="694.77"/>
          <path class="cls-17" d="M626.35,674.63s-1.39,5.73-.13,9.2-.95,10.72-.95,10.72"/>
          <path class="cls-17" d="M630.37,675.21s-.51,10.67,.76,18.8"/>
          <path class="cls-17" d="M636.22,675.72s1.52,3.56-.51,7.62c-2.03,4.07-.51,11.43-.51,11.43"/>
          <path class="cls-17" d="M639.01,693.25s-2.03-10.93,.25-17.28"/>
          <line class="cls-17" x1="641.55" y1="676.23" x2="641.3" y2="694.77"/>
          <path class="cls-17" d="M645.15,675.64s-1.39,5.73-.13,9.2-.95,10.72-.95,10.72"/>
          <path class="cls-17" d="M649.18,676.23s-.51,10.67,.76,18.8"/>
          <path class="cls-17" d="M655.02,676.73s1.52,3.56-.51,7.62c-2.03,4.07-.51,11.43-.51,11.43"/>
          <path class="cls-17" d="M657.81,694.27s-2.03-10.93,.25-17.28"/>
          <line class="cls-17" x1="660.35" y1="677.24" x2="660.1" y2="695.79"/>
          <path class="cls-17" d="M663.45,677.68s-1.39,5.73-.13,9.2-.95,10.72-.95,10.72"/>
          <path class="cls-17" d="M667.47,678.26s-.51,10.67,.76,18.8"/>
          <path class="cls-17" d="M673.31,678.77s1.52,3.56-.51,7.62c-2.03,4.07-.51,11.43-.51,11.43"/>
          <path class="cls-17" d="M676.11,696.3s-2.03-10.93,.25-17.28"/>
          <line class="cls-17" x1="678.65" y1="679.28" x2="678.39" y2="697.82"/>
          <path class="cls-17" d="M682.76,680.98s-1.39,5.73-.13,9.2-.95,10.72-.95,10.72"/>
          <path class="cls-17" d="M686.78,681.56s-.51,10.67,.76,18.8"/>
          <path class="cls-17" d="M692.62,682.07s1.52,3.56-.51,7.62c-2.03,4.07-.51,11.43-.51,11.43"/>
          <path class="cls-17" d="M695.42,699.6s-2.03-10.93,.25-17.28"/>
          <line class="cls-17" x1="697.96" y1="682.58" x2="697.71" y2="701.13"/>
          <path class="cls-17" d="M701.31,684.79s-1.39,5.73-.13,9.2-.95,10.72-.95,10.72"/>
          <path class="cls-17" d="M705.33,685.37s-.51,10.67,.76,18.8"/>
          <path class="cls-17" d="M711.17,685.88s1.52,3.56-.51,7.62-.51,11.43-.51,11.43"/>
          <path class="cls-17" d="M713.97,703.41s-2.03-10.93,.25-17.28"/>
          <line class="cls-17" x1="716.51" y1="686.39" x2="716.25" y2="704.94"/>
          <path class="cls-17" d="M721.12,685.55s-1.39,5.73-.13,9.2-.95,10.72-.95,10.72"/>
          <path class="cls-17" d="M725.15,686.14s-.51,10.67,.76,18.8"/>
          <path class="cls-17" d="M730.99,686.64s1.52,3.56-.51,7.62-.51,11.43-.51,11.43"/>
          <path class="cls-17" d="M733.79,704.18s-2.03-10.93,.25-17.28"/>
          <line class="cls-17" x1="736.33" y1="687.15" x2="736.07" y2="705.7"/>
          <path class="cls-17" d="M738.91,682s-1.39,5.73-.13,9.2-.95,10.72-.95,10.72"/>
          <path class="cls-17" d="M742.93,682.58s-.51,10.67,.76,18.8"/>
          <path class="cls-17" d="M748.78,683.09s1.52,3.56-.51,7.62-.51,11.43-.51,11.43"/>
          <path class="cls-17" d="M751.57,700.62s-2.03-10.93,.25-17.28"/>
          <path class="cls-17" d="M20.36,685.04s-1.39,5.73-.13,9.2-.95,10.72-.95,10.72"/>
          <path class="cls-17" d="M24.38,685.63s-.51,10.67,.76,18.8"/>
          <path class="cls-17" d="M30.22,686.14s1.52,3.56-.51,7.62-.51,11.43-.51,11.43"/>
          <path class="cls-17" d="M33.02,703.67s-2.03-10.93,.25-17.28"/>
          <line class="cls-17" x1="35.56" y1="686.64" x2="35.31" y2="705.19"/>
          <path class="cls-17" d="M39.92,685.81s-1.39,5.73-.13,9.2-.95,10.72-.95,10.72"/>
          <path class="cls-17" d="M43.94,686.39s-.51,10.67,.76,18.8"/>
          <path class="cls-17" d="M49.79,686.9s1.52,3.56-.51,7.62c-2.03,4.07-.51,11.43-.51,11.43"/>
          <path class="cls-17" d="M52.58,704.43s-2.03-10.93,.25-17.28"/>
          <line class="cls-17" x1="55.12" y1="687.41" x2="54.87" y2="705.95"/>
        </g>
        <path class="cls-60" d="M752.04,683.77v-65.14H1.56v65.14s69.97,7.81,120.28,1.19c0,0,68.85-6.62,113.87,0,0,0,91.36,13.24,152.27-3.97,0,0,51.64-7.94,70.17,1.32,0,0,73.57,24.21,131.08-2.65,0,0,46.34-7.94,80.77,0,0,0,27.71,18.81,82.04,4.11Z"/>
        <line class="cls-20" x1="121.84" y1="684.96" x2="121.84" y2="643.86"/>
        <line class="cls-20" x1="235.71" y1="684.96" x2="235.71" y2="655.56"/>
        <line class="cls-20" x1="387.97" y1="680.99" x2="387.97" y2="645.34"/>
        <line class="cls-20" x1="458.15" y1="682.31" x2="458.15" y2="646.54"/>
        <line class="cls-20" x1="589.23" y1="679.67" x2="589.23" y2="642.93"/>
        <line class="cls-20" x1="669.99" y1="679.67" x2="669.99" y2="646.54"/>
        <line class="cls-9" x1="1.45" y1="625.71" x2="752.06" y2="625.71"/>
        <line class="cls-9" x1="1.45" y1="630.18" x2="752.06" y2="630.18"/>
        <g class="cls-71">
          <g>
            <line class="cls-17" x1="1.45" y1="627.98" x2="2.95" y2="627.98"/>
            <line class="cls-22" x1="5.95" y1="627.98" x2="749.06" y2="627.98"/>
            <line class="cls-17" x1="750.56" y1="627.98" x2="752.06" y2="627.98"/>
          </g>
        </g>
      </g>
      <polyline class="cls-60" points="122.54 599.14 706.02 599.14 751.2 618.6 121.85 618.6"/>
      <line class="cls-29" x1="123.09" y1="618.57" x2="751.2" y2="618.57"/>
    </g>
    <path class="cls-38" d="M739.92,918.75s59.84-53.3,137.45-37.4c77.61,15.9,150.54,0,150.54,0,0,0-63.58,21.51-70.13,49.56,0,0-30.86-39.27-62.65-30.86-31.79,8.42-75.74,74.8-111.27,76.67,0,0-10.29-52.36-43.95-57.97Z"/>
    <path class="cls-66" d="M1261.6,991.39s12.26-63.76,84.6-67.43,106.67-12.26,106.67-12.26c0,0-41.69,58.85-34.33,82.15,0,0-102.99-39.23-156.94-2.45Z"/>
    <path class="cls-42" d="M1024.66,558.78s-42.16-9.48-46.83,35.72c-4.67,45.2,16.18,94.24,16.18,94.24,0,0-2.45,15.94-28.2,11.03,0,0-12.26,13.49-29.43-4.9,0,0,1.23-145.9,88.28-136.1Z"/>
    <g>
      <path class="cls-46" d="M811.3,959.87s37.68,8.63,51.31,18.22c13.63,9.59,35.19,34.31,53.32-25.92,0,0,16.27-21.09,16.21-45.77,0,0-18.79-17.09-30.64-1.61,0,0-14.72,17.02-18.54,31.02,0,0-31.56-13.58-56.93-21.1,0,0,13.65,20.01-14.74,45.15Z"/>
      <path class="cls-65" d="M887.51,991.38s15.48-23.35,21.58-41.62c0,0,14.74-23.95,17.27-47.15,0,0,3.42,1.2,5.79,3.79,0,0,.29,23.22-16.21,45.77,0,0-14.26,47.59-28.43,39.21Z"/>
      <polyline class="cls-17" points="848.74 935.77 863.56 928.29 873.29 943.98 882.97 935.82"/>
      <polyline class="cls-17" points="850.66 923.3 859.85 940.39 871.98 931.54 880.91 945.96"/>
    </g>
    <g>
      <rect class="cls-63" x="624.55" y="599.72" width="89.72" height="10.9"/>
      <polygon class="cls-63" points="585.62 589.8 624.55 599.72 714.27 599.72 672.03 589.02 585.62 589.8"/>
      <polygon class="cls-63" points="587.94 597.14 624.52 608.53 624.55 610.62 587.94 598.79 587.94 597.14"/>
      <polygon class="cls-39" points="587.94 590.53 624.55 599.72 624.55 609.16 587.94 597.33 587.94 590.53"/>
      <line class="cls-31" x1="624.55" y1="599.72" x2="714.27" y2="599.72"/>
      <polygon class="cls-31" points="634.95 591.17 656.67 591.17 674.83 596.87 651.86 596.87 634.95 591.17"/>
    </g>
  </g>
  <g id="Layer_1" data-name="Layer 1">
    <polygon class="cls-39" points="534.32 615.67 453 615.67 441.41 604.13 516.38 604.13 534.32 615.67"/>
    <g>
      <path class="cls-53" d="M489.29,512.57l5.29,18.94,58.44-21.55,4.57-1.47s3.14-13.33,19.2-13.38c0,0,4.46-.05,5.19-2.19,.73-2.14,10.19-6.74,11.29-4.14,0,0,3.46,2.41-.14,5.96s-13.67,7.9-13.67,7.9l35.43,11.85s8.49,2.02,5.48,5.53-7.17-.34-7.17-.34c0,0-8.35,3.62-14.72,2.03,0,0-12.95,9.63-28.35,2.78l-4.05,1.64s-43.31,41.03-67.35,46.63-35.37-12.31-35.37-12.31l4.91-45.92,21.03-1.95Z"/>
      <path class="cls-53" d="M537.15,831.22c-7.27,28.53,1.21,32.19,1.21,32.19,12.66,11.14,26.09,19.6,26.09,19.6,0,0,13.32,17.02-23.31,3.48-42.13-15.58-39.1-26.55-39.1-26.55,0,0,10.5-6.95,10.26-30.34l24.85,1.63"/>
      <path class="cls-64" d="M495.9,876.8s-.52,2.05-1.1,8l62.88,22.99s19.42,4.51,22.91-5.49"/>
      <path class="cls-57" d="M502.45,858.43s-7.46,7.25-6.55,18.37l59.28,24.25s16.39,7.23,25.4,1.25c9.01-5.98-36.98-34.69-36.98-34.69,0,0-24.14,12.14-41.15-9.18Z"/>
      <polyline class="cls-17" points="560.44 879.82 546.01 882.11 546.96 870.26 530.91 872.78"/>
      <polyline class="cls-17" points="537.63 866.04 540.63 879.68 551.89 874.54 555.24 889.69"/>
      <path class="cls-53" d="M397.56,407.2s5.75,29.52-10.95,34.1c0,0,3.61,43.24,43.56,44.49,0,0,37.84-2.68,19.77-41.27l-10.27-5.5c-.16-7.36,.85-8.54,.85-8.54l-42.95-23.27"/>
      <path class="cls-53" d="M511.29,839.75c-7.27,28.53,1.21,32.19,1.21,32.19,12.66,11.14,26.09,19.6,26.09,19.6,0,0,13.32,17.02-23.31,3.48-42.13-15.58-39.1-26.55-39.1-26.55,0,0,10.5-6.95,10.26-30.34l24.85,1.63"/>
      <path class="cls-53" d="M459.3,358.73s3.03,7.41,.84,24.1c0,0-.67,6.24,.67,9.94,0,0,.67,13.82-4.89,23.76-5.56,9.94-15.67,15.5-15.67,15.5,0,0-9.77,2.86-17.36-.84s-18.54-5.9-25.61-25.28c0,0-5.9,4.72-9.44-4.72-3.54-9.44-8.09-12.81-3.88-20.56,4.21-7.75,12.13,8.43,12.13,8.43,0,0-6.24-15.33-.84-30.16,5.39-14.83,25.11-24.27,25.11-24.27,0,0,27.97-6.91,38.93,24.1Z"/>
      <path class="cls-61" d="M430.06,373.36s-10.82-.07-19.12,5.04c0,0,3.13-6.62,18.82-7.57,0,0,2.86,.98,.3,2.52Z"/>
      <path class="cls-61" d="M461.31,377.99c-6.73-3.54-12.13-4.27-12.13-4.27-2.33-1.87,.64-2.46,.64-2.46,4.8,.96,9.8,3.24,12.37,4.63,0,0-.5,2.3-.87,2.1Z"/>
      <circle class="cls-61" cx="422.46" cy="383.29" r="3.19"/>
      <path class="cls-7" d="M443.27,393.51s6.48,5.2-.28,8.51"/>
      <path class="cls-69" d="M439.83,432.1s-11.15,2.67-19.74-2.26c0,0-5.04-1.28-13.16-7.71,0,0,4.01,8.14,20.2,11.92,0,0,5.09,1.13,12.16,1.12,0,0,1.23-2.02,.53-3.07Z"/>
      <path class="cls-48" d="M434.97,469.01s26.79-.21,4.98-30l26.99,11.41s15.32,8.03,15.96,24.68l6.38,37.47-17.12,6.82-2.68,45.61,2.27,40.89s-38.84-.68-118.68-2.21h0c16.63-60.63,13.63-84.56,13.63-84.56l-27.35-7.24s-.85-47.66,27.53-62.43c24.8-12.9,23.87-10.68,23.87-10.68,0,0,15.33,30.95,44.2,30.24Z"/>
      <path class="cls-62" d="M358.84,707.44s17.12,18.59,44.51,15.16l107.12,5.87s-22.58,58.87-27.43,111.85c0,0,15.87,18.94,36.93,10.39l18.25-43.23-18.25,43.23s4.39,10.22,20.77,2.77l33.69-91.46s17.96-38.68,14.23-54.69h0s-108.52,.12-229.82,.12Z"/>
      <path class="cls-64" d="M470.03,885.33s-.52,2.05-1.1,8l62.88,22.99s19.42,4.51,22.91-5.49"/>
      <path class="cls-57" d="M476.59,866.97s-7.46,7.25-6.55,18.37l59.28,24.25s16.39,7.23,25.4,1.25c9.01-5.98-36.98-34.69-36.98-34.69,0,0-24.14,12.14-41.15-9.18Z"/>
      <polyline class="cls-17" points="534.58 888.35 520.15 890.64 521.09 878.79 505.04 881.31"/>
      <polyline class="cls-17" points="511.77 874.58 514.76 888.21 526.02 883.07 529.38 898.23"/>
      <path class="cls-7" d="M384.31,389.25s2.79-4.23,5.93,.08c3.13,4.32,3.3,5.76,3.3,5.76,0,0-4.49-6.86-6.26-1.35"/>
      <path class="cls-12" d="M519.97,850.71s47.86-110.34,53.6-141.8"/>
      <path class="cls-21" d="M443.11,378.17s-4.25-2.8-7.3,.67"/>
      <path class="cls-21" d="M410.67,378.04s11.87-6.12,25.35,.95c0,0-1.68,12.53-9.47,12.38-7.79-.15-13.55,2.77-15.88-13.33Z"/>
      <line class="cls-21" x1="410.67" y1="378.04" x2="389.85" y2="379.17"/>
      <path class="cls-3" d="M390.77,438.76s17.32,32.72,44.2,30.24c0,0,28.34-4.89,4.98-30"/>
      <g>
        <path class="cls-39" d="M415.95,383.21s-.01-.32,.21-.59c.75-.9,2.48-2.61,5.3-2.71,3.16-.12,5.01,2.79,5.65,3.82,.11,.18,.11,.34,.11,.34,0,0,.02,.18-.08,.3-.48,.6-2.1,2.3-5.1,2.46-1.78,.09-4.32-.77-5.96-3.13-.11-.16-.13-.38-.13-.49Z"/>
        <circle class="cls-69" cx="422.49" cy="383.53" r="3.27"/>
        <circle class="cls-39" cx="420.4" cy="382.94" r=".9"/>
        <path class="cls-6" d="M427.31,383.74s-4.13-7.4-11.27-1.13"/>
      </g>
      <g>
        <path class="cls-39" d="M449,383.71s-.06-.29,.11-.57c.56-.93,1.91-2.74,4.48-3.23,2.88-.55,4.99,1.85,5.72,2.71,.13,.15,.14,.3,.14,.3,0,0,.04,.16-.03,.29-.36,.62-1.6,2.41-4.33,2.97-1.62,.34-4.07-.1-5.9-2.03-.13-.13-.17-.33-.19-.43Z"/>
        <circle class="cls-69" cx="455.05" cy="383.07" r="3.02"/>
        <circle class="cls-39" cx="452.96" cy="382.9" r=".85"/>
        <path class="cls-6" d="M459.38,382.71s-4.69-6.66-10.33,.57"/>
      </g>
      <line class="cls-24" x1="613.2" y1="519.67" x2="590.22" y2="511.98"/>
      <path class="cls-24" d="M598.48,521.7s1.88-2.21-.74-3.08c-2.62-.86-11.34,1.72-16.74-2.11"/>
      <path class="cls-24" d="M579.46,502.63s-5.34,1.66-5.08,5.04"/>
      <path class="cls-61" d="M433.93,370.17s2.81,2,0,3.34c0,0,1.2-1.47,0-3.34Z"/>
      <path class="cls-61" d="M446.7,370.54s-1.17,1.5,.08,3.34c0,0-2.85-1.94-.08-3.34"/>
      <path class="cls-54" d="M425.43,412.59s8.29-7.73,13.9-4.23c0,0,5.61-2.92,10,4.59,0,0-2.28,5.95-10.39,5.75s-13.52-6.12-13.52-6.12Z"/>
      <path class="cls-44" d="M426.77,412.67s12.06-6.81,21.36,.5c0,0-3.27,1.16-6.32,2.73s-6.31,.03-6.31,.03c0,0-5.75-3.16-8.72-3.26Z"/>
      <path class="cls-39" d="M430.6,410.99s7.99-3.24,15.2,.7c0,0-11.65-.92-15.2-.7Z"/>
      <path class="cls-43" d="M449.1,573.6l42.55,35.09,5.97,2.84-3.14-5.23-42.25-35.24s-3.14-1.49-3.14,2.54Z"/>
      <path class="cls-53" d="M339.37,511.87l-1.04,70.99s-1.09,15.56,17.74,19.54,94.1,7.6,94.1,7.6l10.13,4.34,23.53,1.45s5.58-1.23,3.04-5.29c0,0,7.1,.51,3.8-7.36l-3.8-1.27,5.33-.51s7.1-3.8,.51-7.36c0,0,6.09-3.8,.25-6.85l-17.5-4.57-24.35,9.64-76.85-21.56,4.31-49.97-39.21-8.85Z"/>
      <path class="cls-14" d="M378.57,520.72s13.34-32.54-4.07-52.43"/>
      <line class="cls-14" x1="472.17" y1="519.39" x2="471.14" y2="498.85"/>
      <path class="cls-19" d="M494.58,531.5s-7.38,.7-7.96,9.04"/>
      <path class="cls-19" d="M374.26,570.69s-6.97-1.68-12.72,4.07"/>
      <path class="cls-50" d="M462.23,455.97c5.41,1.19,2.6,.43,11.26,1.3s3.46-9.09,3.46-9.09c11.26,7.8,11.69-.43,11.69-.43,7.36,4.33,8.23-3.46,8.23-3.46,3.9,0,3.9-2.6,2.6-7.36-1.3-4.76,5.2-6.93,5.2-6.93,9.53-2.17,2.6-8.66,2.6-8.66,14.72-8.23,3.46-9.09,3.46-9.09,6.06-9.53-2.17-10.83-2.17-10.83,14.29-7.8,1.73-12.99,1.73-12.99,7.8-6.5-3.46-12.99-3.46-12.99,17.76-12.56-2.6-12.99-2.6-12.99,4.76-12.56-5.2-9.96-5.2-9.96,6.93-11.69-7.36-12.99-7.36-12.99-.87-11.26-18.62-9.96-18.62-9.96,0-17.76-14.72-7.8-14.72-7.8-2.17-4.76-6.06,2.17-6.06,2.17,0-5.2-5.2-8.23-5.2-8.23-2.6-6.5-7.8-.87-7.8-.87-14.72-6.5-26.85,7.8-26.85,7.8,0,0-9.09-13.86-21.65-5.2,0,0-5.2-1.73-4.76,3.9,0,0-10.39-10.83-12.56,5.2,0,0-13.42-4.33-10.39,12.13,0,0-7.36-.87-6.93,8.66,0,0-9.53,1.3-5.63,10.39,0,0-12.99,2.6-8.66,9.96,0,0-4.33,6.93,.43,9.53,0,0-6.93,3.9,1.3,9.96,0,0-9.96,2.17-5.2,10.83,0,0-3.03,7.8,4.33,9.96,0,0-6.93,6.93-.43,9.53,0,0-6.93,6.93,5.2,9.09,0,0-2.6,.87,2.6,7.36,0,0,1.73,9.09,4.76,11.69,0,0,7.36,7.8,6.5-3.03,0,0,2.17,13.42,11.26,3.9,0,0,.87-7.8,4.33,.43,3.46,8.23,6.06,6.93,7.36,1.3,0,0,5.2,9.53,11.26,2.6,0,0-4.76,6.93,6.06,4.33,0,0,7.11-2.82,.75-11.73,0,0,5.52-5.09-1.49-9.55-7-4.46-1.7-4.88-1.7-4.88,0,0,3.4-2.33-.85-7.85-4.24-5.52,0,0,0,0,0,0,1.8-3.22-1.33-15.83-3.13-12.61,0,0,0,0,0,0-7.67,4.05-12.04-10.48-3.4-11.3-3.97-12.86,1.12-15.45,4.09-2.08,9.74,9.1,9.74,9.1,0,0,3.14-2.14,.38-6.18-2.76-4.03-1.49-6.37-1.49-6.37,0,0,5.09-3.18,2.97-9.34-2.12-6.15,1.06-6.15,1.06-6.15,0,0,8.49,.21,7.64-8.49,0,0,6.37,.64,5.52-7,0,0,5.31,4.46,10.82-1.49,5.52-5.94,6.37,1.06,6.37,1.06,0,0-.85,7.21,7.21,6.15s7.21,1.06,7.21,1.06c0,0-.85,7.21,5.31,6.15,0,0,1.06,6.15,6.58,3.4,5.52-2.76,4.88,3.18,4.88,3.18,0,0,1.06,13.37-.85,19.95-1.91,6.58,0,0,0,0,0,0,.52,4.9,1,7.76s2.73,27.09-20.18,39.89c-22.91,12.8,0,0,0,0,0,0-2.68,6.89-1.41,9.01"/>
      <path class="cls-21" d="M443.08,377.93s11.87-6.12,25.35,.95c0,0-1.68,12.53-9.47,12.38-7.79-.15-13.55,2.77-15.88-13.33Z"/>
    </g>
    <g>
      <path class="cls-51" d="M1033.48,815.01s-10.36-3.98-12.75,14.34c-2.39,18.33-19.92,89.25-19.92,89.25,0,0-31.88,3.98-27.89,17.53,3.98,13.55,45.42-1.59,45.42-1.59l18.33-81.28s15.14-36.66-3.19-38.25Z"/>
      <path class="cls-51" d="M1015.15,797.48s-10.36-3.98-12.75,14.34c-2.39,18.33-19.92,89.25-19.92,89.25,0,0-31.88,3.98-27.89,17.53,3.98,13.55,45.42-1.59,45.42-1.59l18.33-81.28s15.14-36.66-3.19-38.25Z"/>
      <path class="cls-51" d="M1050.31,755.72c32.31,9.31,45.7,49.6,53.54,65.78,5.66,11.67,44.38,58.05,44.38,58.05,11.95-14.34,15.82-38.69,19.84-52.46,1.29-4.4,4.07-11.29,4.07-11.29,10.36,52.59-28.69,93.24-28.69,93.24-85.27,2.39-141.38-82.73-141.38-82.73,0,0,9.51-45.29,.38-58.6-9.13-13.32,47.29-26.62,47.29-26.62l.56,14.63"/>
      <path class="cls-51" d="M1050.11,742.19c-3.62,2.57-4.34,3.19-8.5,5.94-16.65,10.98-37.82,24.1-63.43,10.74,0,0-20.12-5.04-18.7-20.42,1.42-15.37,18.48-20.08,18.48-20.08,0,0,10.99-1.15,17.11-17.27,6.13-16.12,35.7-8.2,35.7-8.2,0,0,8.57,2.01,12.66,9.65,0,0,23.93-2.65,20.53,19.47-3.4,22.12,2.67,29.65,2.67,29.65,0,0,.24,9.23-8.26,3.16-8.51-6.08-8.26-12.64-8.26-12.64Z"/>
      <ellipse class="cls-61" cx="1015.36" cy="728.28" rx="4.98" ry="3.32" transform="translate(-84.43 1321.41) rotate(-63.99)"/>
      <ellipse class="cls-61" cx="992.33" cy="715.15" rx="4.98" ry="3.32" transform="translate(-85.56 1293.35) rotate(-63.99)"/>
      <path class="cls-61" d="M982.87,729.98s-7.25-5.27-12.71-5.33-4.55,9.33-4.55,9.33c0,0-1.19,8.95,12.14,7.08,13.33-1.87,5.12-11.08,5.12-11.08Z"/>
      <path class="cls-61" d="M1001.1,764.68c22.68-.57,37.56-14.41,37.56-14.41l.28,4.79s-17.89,11.92-36.75,9.72"/>
      <path class="cls-51" d="M1137.89,884.95s-33.09-46.32-79.41-36.39c-46.32,9.93,18.2,72.79,18.2,72.79,0,0-38.05-6.62-33.09,6.62,4.96,13.23,59.55,9.93,59.55,9.93,0,0,59.55-3.31,34.74-52.94Z"/>
      <path class="cls-6" d="M1143.45,909.05s4.73-38.19-49.31-57.92c-54.04-19.73-51.9,18.01-51.9,18.01"/>
      <path class="cls-7" d="M1024.63,720.81s3.68,3.07,1.84,9.2"/>
      <path class="cls-7" d="M1000.71,704.25s-4.5-2.66-8.79,1.84"/>
      <path class="cls-7" d="M1166.02,821c-6.13-5.09-9.42-10.62-7.59-13.41,2.23-3.4,11.2-1.46,20.05,4.33,8.84,5.79,14.21,13.24,11.98,16.65-1.86,2.84-8.4,1.96-15.65-1.76"/>
      <path class="cls-7" d="M1162.74,822.17c-8.11-6.82-12.37-14.34-9.81-18.25,3.12-4.77,15.18-2.39,26.93,5.3,11.75,7.7,18.75,17.8,15.62,22.57-2.6,3.97-11.41,2.99-21.08-1.91"/>
      <path class="cls-7" d="M1155.09,798.31s7.83-2.09,14.79,2.09"/>
      <path class="cls-7" d="M1181.19,835.03s10.79,4,15.14-.17"/>
      <path class="cls-7" d="M994.82,763.55s17.17-2.19,20.83-12.42"/>
    </g>
    <g>
      <path class="cls-53" d="M1170.03,345.99l-4.64,35.74-26-53.85,7.83-17.29,.27-18.91-2.16-4.59-3.24-27.55c-6.75-3.51-6.21,12.7-6.21,12.7l-2.43-13.24c-5.94-1.08-5.13,3.78-5.13,3.78v28.63s-1.89-6.21-1.89-15.4-2.7-9.18-2.7-9.18c-6.48-1.62-3.24,29.17-3.24,29.17l-2.97,.81-2.43-6.21s-2.97-11.62-7.29-8.91c-4.32,2.7,3.78,21.07,3.78,21.07l-.54,18.37c-.81,5.4,2.16,12.16,2.16,12.16l2.97,8.1s14.41,97.9,52.01,112.29c0,0,18.1-.46,37.6-37.14"/>
      <path class="cls-24" d="M1145.34,287.09l-7.73-10.43s-6.2,2.76-.92,13.78l1.38,7.81s-12.86,7.81-12.86,17.45"/>
      <path class="cls-24" d="M1113.05,300.54s7.58-6.89,17.68-5.74"/>
      <path class="cls-24" d="M1165.39,381.73s13.96,19.24,12.96,37.17"/>
      <g>
        <path class="cls-61" d="M1283.13,840.48s3.18,2.39,1.59,7.16l-1.59,24.66s-4.77,5.17-16.7,3.98l-10.74-4.37v-7.16s-20.28,20.28-20.28,20.28c0,0-4.42,2.83-20.55,5.24-16.49,2.46-21.45-6-21.45-6,0,0-12.47-12.03-6.9-16.8l96.63-26.98Z"/>
        <path class="cls-53" d="M1275.57,818.21c9.03,13.85,6.63,24.95,6.63,24.95,0,0-6.34,13.65-18.95,13.23-12.61-.42-26.12,19.19-26.12,19.19-7.1,5.23-27.31,8.59-27.31,8.59-14.24,2.38-10.23-5.78-10.23-5.78-5.81,.28-3.54-4.09-3.54-4.09-5.24,1.33-3.6-2.97-3.6-2.97-2.88-1.83-.93-4.26-.93-4.26-2.23-.56-.73-2.03-.09-2.44,2.43-1.54,4.43-1.79,4.43-1.79l12.47-2.4,7.3-3.34,9.57-10.64c9-11.4,11.4-19.2,11.4-19.2l-.48-10.56-9.52-71.85,15.66-3.39,38.15,9.84s-1.17,32.97-4.61,45.03c-3.45,12.06-.22,21.87-.22,21.87"/>
        <path class="cls-23" d="M1199.58,878.4s.67-3.22,5.75-3.84"/>
        <path class="cls-23" d="M1196.05,874.31s2.81-3.9,6.53-3.73"/>
        <path class="cls-23" d="M1192.45,871.34s3.04-4.32,7.16-4.36"/>
        <path class="cls-23" d="M1191.51,867.08s2.1-2.98,5.46-3.03"/>
        <path class="cls-61" d="M1268.41,856.79l5.57-14.32,10.74,5.17s3.58-3.18-1.59-7.16c-5.17-3.98-8.35-3.98-8.35-3.98l5.17-9.55s-1.19-8.35-4.37-8.75c0,0-1.99,9.55-5.57,13.92,0,0-18.46-4.63-33.58-10.2l-1.03,6.11,34.21,10.85-6.36,17.5,5.17,.4Z"/>
        <path class="cls-61" d="M1216.72,855.3s3.7,7.95,20.41,20.28c0,0-6.54,9.52-14.09,9.52,0,0-7.75-23.49-19.28-23.49,0,0,9.79-7.11,12.97-6.31Z"/>
      </g>
      <g>
        <path class="cls-61" d="M1322.56,851.86s3.18,2.39,1.59,7.16l-1.59,24.66s-4.77,5.17-16.7,3.98l-10.74-4.37v-7.16s-20.28,20.28-20.28,20.28c0,0-4.42,2.83-20.55,5.24-16.49,2.46-24.74-3.86-24.74-3.86,0,0-16.62-11.19-11.05-15.96l104.06-29.96Z"/>
        <path class="cls-53" d="M1278.79,819.93c.33-27.74-5.36-63.03-5.36-63.03,0,0,44.32-18.2,48.63,.94,4.3,19.14-4.62,49.87-4.62,49.87-3.96,20.48,.66,28.73,.66,28.73,6.85,12.37,1.98,21.47,1.98,21.47,0,0-4.19,8.86-17.4,9.86-12.32,.93-28.18,21.52-28.18,21.52-8.59,10.57-23.06,7.38-23.06,7.38-3.47,1.19-5.63-1.49-5.63-1.49-6.78,.84-8.18-2.66-8.18-2.66-6.31,.66-8.77-3.39-8.77-3.39-3.89,.92-5.62-3.72-5.62-3.72-4.64-4.51-3.18-5.69-1.53-8.63,1.65-2.94,11.81-1.65,11.81-1.65l14.39-3.9,8.25-4.55,10.09-14.38c5.61-6.61,8.59-12.88,8.59-12.88l3.96-19.49Z"/>
        <path class="cls-23" d="M1236.32,877.76l-7.41,2.77s-4.92,.8-5.68,4.88"/>
        <path class="cls-23" d="M1240.31,880.63s-12.35,3.72-11.75,6.84l.28,1.65"/>
        <path class="cls-23" d="M1244.72,885.35s-7.06,2.05-7.1,7.16"/>
        <path class="cls-23" d="M1248.62,891.08s-3.67,.94-2.81,4.09"/>
        <path class="cls-61" d="M1307.85,868.16l5.57-14.32,10.74,5.17s3.58-3.18-1.59-7.16c-5.17-3.98-8.35-3.98-8.35-3.98l5.17-9.55s-1.19-8.35-4.37-8.75c0,0-1.99,9.55-5.57,13.92,0,0-18.46-4.63-33.58-10.2l-1.03,6.11,34.21,10.85-6.36,17.5,5.17,.4Z"/>
        <path class="cls-23" d="M1273.54,842.54l-17.39,24.13-11.36,5.82-11.28,2.63s-14.34-2.51-13.31,6.35"/>
        <path class="cls-61" d="M1256.16,866.67s3.7,7.95,20.41,20.28c0,0-6.54,9.52-14.09,9.52,0,0-7.75-23.49-19.28-23.49,0,0,9.79-7.11,12.97-6.31Z"/>
        <line class="cls-23" x1="1277.8" y1="788.27" x2="1274.39" y2="764.45"/>
      </g>
      <path class="cls-53" d="M1288.2,218.3s-2.52,25.26,4.28,40.29c0,0,6.22,70.29-50.89,72.08,0,0-42.58-11.47-16.75-66.65,0,0,10.28-4.01,10.5-13.95,.23-10.53-1.36,.18-1.36,.18l54.23-31.94"/>
      <path class="cls-62" d="M1344.99,461.2s48.91,86.23,2.2,164.19l-19.47,56s-2.22,22.98,1.19,58.52c2.17,22.6-6.06,51.94-11.78,81.84,0,0-12.34,18.33-39.27,5.58,0,0-14.73,11.1-40.17-.99l-39.93-100.41s-12.43-17.92-12.43-35.73c0,0-24.65-197.68,10.61-222.57,0,0,52.35,51.08,149.06-6.43Z"/>
      <path class="cls-53" d="M1290.27,197.88s-1.81-53.21-49.33-57.34c0,0-33.9-.14-32.08,47.74,0,0,1.81,7.69,.49,11.76,0,0-2.71,10.47,2.34,20.37,7.56,14.82,14.95,25.46,14.95,25.46,0,0,4.56,7.08,16.4,7.31,0,0,8.32-.18,18.96-6.9,0,0,26.86-11.99,25.6-27.73,0,0,11.65,7.87,17-10.71,0,0,4.73-25.74-14.32-9.96Z"/>
      <path class="cls-69" d="M1246.74,181.29s16.11-5.22,23.6,0c0,0-5.62-8.4-24.05-3.85,0,0-3.23,2.5,.44,3.85Z"/>
      <path class="cls-69" d="M1207.91,177.37c.39-.84,8.61-.72,16.07,1.12,0,0,3.23,2.5-.44,3.85,0,0-13.42-5.27-15.73-.95,0,0-.85-1.95,.1-4.02Z"/>
      <path class="cls-7" d="M1228.47,203.63s-6.6,9.82,4.91,10.98"/>
      <path class="cls-7" d="M1303.02,202.57s-4.16-11.05-12.65,6.73c0,0,7.21-7.85,8.49-1.12"/>
      <path class="cls-69" d="M1236.21,252.07s3.66,3.38,16.37-1.08c0,0,11.11-3.72,20.2-11.02,0,0-11.53,12.79-27.13,14.72,0,0-4.16,1.24-10.05-.86,0,0,.9-.1,.62-1.74Z"/>
      <path class="cls-13" d="M1277.86,827.32l-29.75-116.6s-3.79-22.76-1.9-52.15l3.79-81.54s-5.31-1.11-10.65-6.87"/>
      <path class="cls-56" d="M1256.64,222.7s-7.79-2.41-17.08,.23c0,0-8.02-1.6-15.25,0,0,0,.8,12.95,12.95,15.82,12.15,2.87,19.6-8.48,19.37-16.05Z"/>
      <path class="cls-44" d="M1254.69,223.62s.11,11.46-14.79,11.46c-13.53,0-13.64-10.2-13.64-10.2,0,0,15.25,.69,28.43-1.26Z"/>
      <path class="cls-39" d="M1252.84,223.78s-3.69,5.31-15.23,4.75c0,0-7.11,.36-10.09-3.43,0,0,14.86,.32,25.32-1.33Z"/>
      <g>
        <path class="cls-39" d="M1263.73,191.17s.02-.35-.23-.65c-.82-1-2.74-2.88-5.86-3-3.49-.13-5.54,3.08-6.24,4.23-.12,.2-.12,.38-.12,.38,0,0-.02,.19,.09,.33,.53,.67,2.33,2.54,5.63,2.72,1.97,.1,4.77-.85,6.58-3.46,.13-.18,.14-.42,.14-.55Z"/>
        <circle class="cls-69" cx="1256.5" cy="191.52" r="3.61"/>
        <circle class="cls-39" cx="1258.81" cy="190.87" r=".99"/>
        <path class="cls-13" d="M1251.18,191.75s4.56-8.18,12.45-1.25"/>
      </g>
      <g>
        <path class="cls-39" d="M1222.91,192.62s.06-.32-.12-.64c-.62-1.05-2.14-3.07-5.02-3.62-3.23-.62-5.59,2.07-6.41,3.04-.14,.17-.16,.33-.16,.33,0,0-.05,.18,.04,.32,.4,.7,1.8,2.7,4.85,3.33,1.81,.38,4.56-.11,6.62-2.28,.14-.15,.19-.37,.21-.49Z"/>
        <circle class="cls-69" cx="1216.14" cy="191.9" r="3.39"/>
        <circle class="cls-39" cx="1218.47" cy="191.7" r=".95"/>
        <path class="cls-13" d="M1211.28,191.49s5.25-7.46,11.58,.64"/>
      </g>
      <path class="cls-39" d="M1292.47,258.58s9.19,7.93,30.06,14.61c20.88,6.68,44.68,49.69,44.68,49.69,0,0-7.25,30.44-43.09,44.86l15.72,92.8s-27.38,34.34-92.52,28.91c0,0-34.66,1.11-51.4-21.85,0,0,6.62-17.2-6.47-65.06,0,0-12.58-21.21-12.16-40.42l-7.59-15.46,5.01-39.25s4.18-26.31,32.15-37.16c0,0,10.44-2.09,17.95-6.26,0,0-3.48,14.79,4.62,27.91,0,0,13.4,26.24,46.62,3.91,0,0,16.82-9.69,16.4-37.24Z"/>
      <path class="cls-53" d="M1364.78,327.82s18.48,73.4,7.7,107.79l-11.81,77.51s-2.62,15.12,1.94,23.38c0,0,6.56,17.96-1.14,28.22,0,0-5.99,22.8-28.51,32.78,0,0-6.84-4.28,2.85-13.68,0,0,11.4-11.97,4.56-25.66,0,0-5.13-4.28-4.85,4.28,.29,8.55-.57,22.23-7.41,20.81-6.84-1.43-3.99-15.39-3.99-15.39,0,0,.29-12.26-.86-21.09,0,0,.57-15.68,9.12-24.23l-1.43-114.88-6.84-39.91s31.13-15.16,40.65-39.93Z"/>
      <line class="cls-15" x1="1324.13" y1="367.75" x2="1320.87" y2="347.91"/>
      <path class="cls-15" d="M1177.3,362.15s.36-17.75,5.62-27.1"/>
      <path class="cls-65" d="M1231.73,147.94s29.87,56.02,73.3,56.78c0,0-4.09,18.8-16.97,14.69,0,0-7.32,25.74,4.88,40.04,0,0,17.81,9.37,30.13,14.3,11.53,4.61,19.88,16.05,19.88,16.05,0,0-21.64-21.13-19.47-68.01,2.16-46.88-20.03-72.55-20.03-72.55,0,0-28.06-42.83-70.39-20.18,0,0-22.72,.84-32.57,22.5-5.69,12.53-4.9,35.82-4.07,54.42,0,0,2.49,47.5,22.08,60.56,0,0,15.56-3.54,17.73-14.47,0,0-3.19,.74-8.05-5.32-6.64-8.27-11.28-16-16.01-25.47,0,0-5.16-9.46-2-21.83,0,0,1.07-6.5-.83-10.3,0,0-2.78-27.24,22.41-41.21"/>
      <path class="cls-16" d="M1293.87,211.67s6.56,9.95-.41,16.05c-6.97,6.1-3.34-8.76-3.34-8.76"/>
    </g>
  </g>
</svg>