<svg xmlns="http://www.w3.org/2000/svg" xmlns:xlink="http://www.w3.org/1999/xlink" width="1200" zoomAndPan="magnify" viewBox="0 0 900 675.000002" height="900" preserveAspectRatio="xMidYMid meet" version="1.0"><defs><clipPath id="80913cd396"><path d="M 0.664062 0 L 899.332031 0 L 899.332031 674 L 0.664062 674 Z M 0.664062 0 " clip-rule="nonzero"/></clipPath><clipPath id="807577a92c"><path d="M 0.664062 0 L 291 0 L 291 107 L 0.664062 107 Z M 0.664062 0 " clip-rule="nonzero"/></clipPath><clipPath id="5121bf07ee"><path d="M 0.664062 106 L 291 106 L 291 222 L 0.664062 222 Z M 0.664062 106 " clip-rule="nonzero"/></clipPath><clipPath id="2dd352d474"><path d="M 889 0 L 899.332031 0 L 899.332031 222 L 889 222 Z M 889 0 " clip-rule="nonzero"/></clipPath><clipPath id="f505a0bfdc"><path d="M 0.664062 336 L 899.332031 336 L 899.332031 451 L 0.664062 451 Z M 0.664062 336 " clip-rule="nonzero"/></clipPath><clipPath id="554c20af90"><path d="M 0.664062 221 L 899.332031 221 L 899.332031 336 L 0.664062 336 Z M 0.664062 221 " clip-rule="nonzero"/></clipPath><clipPath id="322cf185f1"><path d="M 0.664062 451 L 899.332031 451 L 899.332031 566 L 0.664062 566 Z M 0.664062 451 " clip-rule="nonzero"/></clipPath><clipPath id="52653cbd38"><path d="M 0.664062 651 L 899.332031 651 L 899.332031 674 L 0.664062 674 Z M 0.664062 651 " clip-rule="nonzero"/></clipPath><clipPath id="aafe51a126"><path d="M 0.664062 607 L 899.332031 607 L 899.332031 674 L 0.664062 674 Z M 0.664062 607 " clip-rule="nonzero"/></clipPath><clipPath id="cea0c8d9bd"><path d="M 738 636 L 781 636 L 781 674 L 738 674 Z M 738 636 " clip-rule="nonzero"/></clipPath><clipPath id="6ade096dee"><path d="M 489 634 L 550 634 L 550 674 L 489 674 Z M 489 634 " clip-rule="nonzero"/></clipPath><clipPath id="38d00b5443"><path d="M 566 653 L 615 653 L 615 674 L 566 674 Z M 566 653 " clip-rule="nonzero"/></clipPath><clipPath id="5821c73c2f"><path d="M 5 644 L 54 644 L 54 674 L 5 674 Z M 5 644 " clip-rule="nonzero"/></clipPath><clipPath id="b316afc5aa"><path d="M 315 648 L 346 648 L 346 674 L 315 674 Z M 315 648 " clip-rule="nonzero"/></clipPath><clipPath id="80c52ae06c"><path d="M 0.664062 565.882812 L 899.332031 565.882812 L 899.332031 609 L 0.664062 609 Z M 0.664062 565.882812 " clip-rule="nonzero"/></clipPath><clipPath id="caabe481e2"><path d="M 294 227.179688 L 321.984375 227.179688 L 321.984375 247 L 294 247 Z M 294 227.179688 " clip-rule="nonzero"/></clipPath><clipPath id="ad17b8b95b"><path d="M 319.082031 227.605469 C 319.082031 227.605469 320.136719 231.886719 296.410156 255.242188 L 291.863281 264.800781 L 295.738281 279.5625 L 305.925781 277.238281 L 316.992188 248.09375 L 321.675781 229.152344 Z M 319.082031 227.605469 " clip-rule="nonzero"/></clipPath><clipPath id="76cd293090"><path d="M 294 236 L 312 236 L 312 279.945312 L 294 279.945312 Z M 294 236 " clip-rule="nonzero"/></clipPath><clipPath id="edd99b4030"><path d="M 319.082031 227.605469 C 319.082031 227.605469 320.136719 231.886719 296.410156 255.242188 L 291.863281 264.800781 L 295.738281 279.5625 L 305.925781 277.238281 L 316.992188 248.09375 L 321.675781 229.152344 Z M 319.082031 227.605469 " clip-rule="nonzero"/></clipPath><clipPath id="996d8a419c"><path d="M 291.84375 245 L 305 245 L 305 268 L 291.84375 268 Z M 291.84375 245 " clip-rule="nonzero"/></clipPath><clipPath id="884d3c8b6d"><path d="M 319.082031 227.605469 C 319.082031 227.605469 320.136719 231.886719 296.410156 255.242188 L 291.863281 264.800781 L 295.738281 279.5625 L 305.925781 277.238281 L 316.992188 248.09375 L 321.675781 229.152344 Z M 319.082031 227.605469 " clip-rule="nonzero"/></clipPath><clipPath id="5de22e649b"><path d="M 292 235 L 310 235 L 310 275 L 292 275 Z M 292 235 " clip-rule="nonzero"/></clipPath><clipPath id="2ac8d3633c"><path d="M 319.082031 227.605469 C 319.082031 227.605469 320.136719 231.886719 296.410156 255.242188 L 291.863281 264.800781 L 295.738281 279.5625 L 305.925781 277.238281 L 316.992188 248.09375 L 321.675781 229.152344 Z M 319.082031 227.605469 " clip-rule="nonzero"/></clipPath><clipPath id="2267195f14"><path d="M 301 236 L 318 236 L 318 270 L 301 270 Z M 301 236 " clip-rule="nonzero"/></clipPath><clipPath id="9243f04e43"><path d="M 319.082031 227.605469 C 319.082031 227.605469 320.136719 231.886719 296.410156 255.242188 L 291.863281 264.800781 L 295.738281 279.5625 L 305.925781 277.238281 L 316.992188 248.09375 L 321.675781 229.152344 Z M 319.082031 227.605469 " clip-rule="nonzero"/></clipPath><clipPath id="2a517bba1e"><path d="M 297 236 L 315 236 L 315 276 L 297 276 Z M 297 236 " clip-rule="nonzero"/></clipPath><clipPath id="46c5890383"><path d="M 319.082031 227.605469 C 319.082031 227.605469 320.136719 231.886719 296.410156 255.242188 L 291.863281 264.800781 L 295.738281 279.5625 L 305.925781 277.238281 L 316.992188 248.09375 L 321.675781 229.152344 Z M 319.082031 227.605469 " clip-rule="nonzero"/></clipPath><clipPath id="a1cf650620"><path d="M 306 234 L 321 234 L 321 263 L 306 263 Z M 306 234 " clip-rule="nonzero"/></clipPath><clipPath id="e817332857"><path d="M 319.082031 227.605469 C 319.082031 227.605469 320.136719 231.886719 296.410156 255.242188 L 291.863281 264.800781 L 295.738281 279.5625 L 305.925781 277.238281 L 316.992188 248.09375 L 321.675781 229.152344 Z M 319.082031 227.605469 " clip-rule="nonzero"/></clipPath></defs><g clip-path="url(#80913cd396)"><path fill="#ffffff" d="M 0.664062 0 L 899.335938 0 L 899.335938 674 L 0.664062 674 Z M 0.664062 0 " fill-opacity="1" fill-rule="nonzero"/><path fill="#ffffff" d="M 0.664062 0 L 899.335938 0 L 899.335938 674 L 0.664062 674 Z M 0.664062 0 " fill-opacity="1" fill-rule="nonzero"/></g><g clip-path="url(#807577a92c)"><path fill="#dea962" d="M 290.683594 -7.867188 L 290.683594 106.65625 L -197.371094 106.65625 L -197.371094 -7.867188 Z M 290.683594 -7.867188 " fill-opacity="0.8" fill-rule="nonzero"/></g><g clip-path="url(#5121bf07ee)"><path fill="#edb36e" d="M 290.675781 106.882812 L 290.675781 221.410156 L -197.378906 221.410156 L -197.378906 106.882812 Z M 290.675781 106.882812 " fill-opacity="0.8" fill-rule="nonzero"/></g><path fill="#8b5e3c" d="M 311.257812 221.355469 L 290.683594 221.355469 L 290.683594 -122.765625 L 311.257812 -122.765625 Z M 311.257812 221.355469 " fill-opacity="1" fill-rule="nonzero"/><g clip-path="url(#2dd352d474)"><path fill="#8b5e3c" d="M 909.753906 221.355469 L 889.179688 221.355469 L 889.179688 -122.765625 L 909.753906 -122.765625 Z M 909.753906 221.355469 " fill-opacity="1" fill-rule="nonzero"/></g><path fill="#8b5e3c" d="M 311.066406 220.726562 L 311.066406 200.148438 L 889.570312 200.148438 L 889.570312 220.726562 Z M 311.066406 220.726562 " fill-opacity="1" fill-rule="nonzero"/><g clip-path="url(#f505a0bfdc)"><path fill="#edb36e" d="M 961.660156 336.382812 L 961.660156 450.910156 L -197.550781 450.910156 L -197.550781 336.382812 Z M 961.660156 336.382812 " fill-opacity="0.8" fill-rule="nonzero"/></g><g clip-path="url(#554c20af90)"><path fill="#dea962" d="M 961.660156 221.265625 L 961.660156 335.792969 L -197.550781 335.792969 L -197.550781 221.265625 Z M 961.660156 221.265625 " fill-opacity="0.8" fill-rule="nonzero"/></g><g clip-path="url(#322cf185f1)"><path fill="#dea962" d="M 961.660156 451.136719 L 961.660156 565.664062 L -197.550781 565.664062 L -197.550781 451.136719 Z M 961.660156 451.136719 " fill-opacity="0.8" fill-rule="nonzero"/></g><path fill="#182850" d="M 889.5625 200.148438 L 308.679688 200.148438 L 308.679688 -105.546875 L 889.5625 -105.546875 Z M 889.5625 200.148438 " fill-opacity="1" fill-rule="nonzero"/><path fill="#decea5" d="M 380.929688 -60.730469 C 380.929688 -60.730469 344.097656 -72.496094 336.933594 -30.03125 C 336.933594 -30.03125 335.398438 11.414062 380.929688 4.253906 C 380.929688 4.253906 359.445312 -5.46875 358.425781 -28.496094 C 357.402344 -51.519531 380.929688 -60.730469 380.929688 -60.730469 Z M 380.929688 -60.730469 " fill-opacity="1" fill-rule="nonzero"/><path fill="#decea5" d="M 487.320312 76.21875 L 492.039062 85.785156 L 502.597656 87.320312 L 494.957031 94.769531 L 496.757812 105.28125 L 487.320312 100.320312 L 477.878906 105.28125 L 479.679688 94.769531 L 472.042969 87.320312 L 482.597656 85.785156 Z M 487.320312 76.21875 " fill-opacity="1" fill-rule="nonzero"/><path fill="#decea5" d="M 828.238281 101.347656 L 832.957031 110.914062 L 843.507812 112.449219 L 835.875 119.898438 L 837.675781 130.410156 L 828.238281 125.449219 L 818.796875 130.410156 L 820.597656 119.898438 L 812.960938 112.449219 L 823.515625 110.914062 Z M 828.238281 101.347656 " fill-opacity="1" fill-rule="nonzero"/><g clip-path="url(#52653cbd38)"><path fill="#a97c50" d="M -282.019531 651.132812 L -275.210938 1197.96875 L -247.992188 1197.96875 L -200.351562 750.96875 L 992.832031 750.96875 L 1040.472656 1195.699219 L 1069.957031 1195.699219 L 1069.957031 651.132812 Z M -282.019531 651.132812 " fill-opacity="1" fill-rule="nonzero"/></g><g clip-path="url(#aafe51a126)"><path fill="#98b369" d="M 1105.574219 608.046875 L 1157.625 819.089844 C 1157.625 819.089844 1110.753906 842.53125 1054.761719 812.582031 C 1054.761719 812.582031 1037.832031 838.625 997.46875 816.484375 C 997.46875 816.484375 983.144531 828.210938 920.644531 815.183594 C 920.644531 815.183594 876.375 809.976562 855.542969 817.789062 C 855.542969 817.789062 836.011719 833.417969 804.765625 816.484375 C 804.765625 816.484375 777.425781 829.511719 752.6875 816.484375 C 752.6875 816.484375 720.132812 822.996094 681.078125 811.277344 C 642.015625 799.554688 580.816406 832.117188 580.816406 832.117188 C 580.816406 832.117188 570.40625 812.582031 535.246094 817.789062 C 535.246094 817.789062 504 836.023438 479.257812 820.390625 C 479.257812 820.390625 444.097656 808.667969 364.679688 819.089844 C 364.679688 819.089844 346.449219 833.417969 329.519531 819.089844 C 329.519531 819.089844 115.390625 825.265625 76.328125 808.332031 C 76.328125 808.332031 38.792969 796.8125 20.035156 821.207031 C 20.035156 821.207031 -6.230469 781.796875 -49.375 800.566406 C -49.375 800.566406 -77.519531 832.464844 -124.417969 806.199219 C -124.417969 806.199219 -218.21875 764.921875 -253.863281 785.5625 C -253.863281 785.5625 -291.382812 808.078125 -343.90625 783.683594 L -312.019531 607.292969 L 1105.558594 608.046875 Z M 1105.574219 608.046875 " fill-opacity="1" fill-rule="nonzero"/></g><g clip-path="url(#cea0c8d9bd)"><path stroke-linecap="butt" transform="matrix(0.685068, 0, 0, 0.685255, -343.901006, -122.984782)" fill="none" stroke-linejoin="miter" d="M 1600.700021 1370.988784 L 1620.560045 1129.871895 " stroke="#754c29" stroke-width="1.5" stroke-opacity="1" stroke-miterlimit="10"/></g><g clip-path="url(#6ade096dee)"><path stroke-linecap="butt" transform="matrix(0.685068, 0, 0, 0.685255, -343.901006, -122.984782)" fill="none" stroke-linejoin="miter" d="M 1283.298861 1372.892728 C 1283.298861 1372.892728 1247.752668 1223.860624 1238.35009 1126.742358 " stroke="#754c29" stroke-width="1.5" stroke-opacity="1" stroke-miterlimit="10"/></g><g clip-path="url(#38d00b5443)"><path stroke-linecap="butt" transform="matrix(0.685068, 0, 0, 0.685255, -343.901006, -122.984782)" fill="none" stroke-linejoin="miter" d="M 1349.818253 1393.790513 C 1349.818253 1393.790513 1384.018776 1292.778852 1376.189947 1154.930996 " stroke="#754c29" stroke-width="1.5" stroke-opacity="1" stroke-miterlimit="10"/></g><g clip-path="url(#5821c73c2f)"><path stroke-linecap="butt" transform="matrix(0.685068, 0, 0, 0.685255, -343.901006, -122.984782)" fill="none" stroke-linejoin="miter" d="M 530.870232 1380.622514 C 530.870232 1380.622514 565.070755 1279.610853 557.241926 1141.757296 " stroke="#754c29" stroke-width="1.5" stroke-opacity="1" stroke-miterlimit="10"/></g><g clip-path="url(#b316afc5aa)"><path stroke-linecap="butt" transform="matrix(0.685068, 0, 0, 0.685255, -343.901006, -122.984782)" fill="none" stroke-linejoin="miter" d="M 983.579566 1372.909829 L 985.529646 1146.722373 " stroke="#754c29" stroke-width="1.5" stroke-opacity="1" stroke-miterlimit="10"/></g><g clip-path="url(#80c52ae06c)"><path fill="#d6e69e" d="M -312.011719 607.296875 L 1105.574219 608.046875 L 984.78125 565.882812 L -201.96875 565.882812 Z M -312.011719 607.296875 " fill-opacity="1" fill-rule="nonzero"/></g><path fill="#ffffff" d="M 525.273438 596.429688 L 724.503906 606.457031 L 749.550781 581.957031 L 552.539062 569.710938 Z M 525.273438 596.429688 " fill-opacity="1" fill-rule="nonzero"/><path fill="#1c75bc" d="M 496.144531 592.875 L 344.269531 592.875 L 344.269531 574.417969 L 496.144531 574.417969 Z M 496.144531 592.875 " fill-opacity="1" fill-rule="nonzero"/><path fill="#1c75bc" d="M 562.03125 557.609375 L 496.144531 574.417969 L 344.269531 574.417969 L 415.757812 556.292969 Z M 562.03125 557.609375 " fill-opacity="1" fill-rule="nonzero"/><path fill="#1c75bc" d="M 558.101562 570.046875 L 496.183594 589.335938 L 496.144531 592.875 L 558.101562 572.835938 Z M 558.101562 570.046875 " fill-opacity="1" fill-rule="nonzero"/><path fill="#ffffff" d="M 558.101562 558.851562 L 496.144531 574.417969 L 496.144531 590.398438 L 558.101562 570.363281 Z M 558.101562 558.851562 " fill-opacity="1" fill-rule="nonzero"/><path stroke-linecap="butt" transform="matrix(0.685068, 0, 0, 0.685255, -343.901006, -122.984782)" fill="none" stroke-linejoin="miter" d="M 1226.221962 1017.727289 L 1004.52867 1017.727289 " stroke="#231f20" stroke-width="1" stroke-opacity="1" stroke-miterlimit="10"/><path stroke-linecap="butt" transform="matrix(0.685068, 0, 0, 0.685255, -343.901006, -122.984782)" fill-opacity="1" fill="#9c2024" fill-rule="nonzero" stroke-linejoin="miter" d="M 1200.5174 996.590086 L 1146.838885 996.590086 L 1101.969942 1010.670153 L 1158.721828 1010.670153 Z M 1200.5174 996.590086 " stroke="#231f20" stroke-width="1" stroke-opacity="1" stroke-miterlimit="10"/><path fill="#9c2024" d="M 489.003906 574.363281 L 337.132812 574.363281 L 337.132812 555.910156 L 489.003906 555.910156 Z M 489.003906 574.363281 " fill-opacity="1" fill-rule="nonzero"/><path fill="#9c2024" d="M 554.894531 539.101562 L 489.003906 555.902344 L 337.132812 555.902344 L 408.617188 537.777344 Z M 554.894531 539.101562 " fill-opacity="1" fill-rule="nonzero"/><path fill="#9c2024" d="M 550.960938 551.539062 L 489.046875 570.820312 L 489.003906 574.359375 L 550.960938 554.320312 Z M 550.960938 551.539062 " fill-opacity="1" fill-rule="nonzero"/><path fill="#ffffff" d="M 550.960938 540.34375 L 489.003906 555.902344 L 489.003906 571.890625 L 550.960938 551.855469 Z M 550.960938 540.34375 " fill-opacity="1" fill-rule="nonzero"/><path stroke-linecap="butt" transform="matrix(0.685068, 0, 0, 0.685255, -343.901006, -122.984782)" fill="none" stroke-linejoin="miter" d="M 1215.798728 990.707239 L 994.111138 990.707239 " stroke="#231f20" stroke-width="1" stroke-opacity="1" stroke-miterlimit="10"/><path stroke-linecap="butt" transform="matrix(0.685068, 0, 0, 0.685255, -343.901006, -122.984782)" fill-opacity="1" fill="#9c2024" fill-rule="nonzero" stroke-linejoin="miter" d="M 1190.099868 969.581437 L 1136.421353 969.581437 L 1091.55241 983.661505 L 1148.298594 983.661505 Z M 1190.099868 969.581437 " stroke="#231f20" stroke-width="1" stroke-opacity="1" stroke-miterlimit="10"/><path fill="#be9e7d" d="M 651.539062 447.214844 L 643.972656 469.125 C 633.875 459.949219 559.757812 441.863281 559.757812 441.863281 L 554.496094 440.480469 C 554.496094 440.480469 555.160156 419.632812 531.574219 413.207031 C 531.574219 413.207031 525.273438 409.699219 523.175781 406.972656 C 520.714844 403.769531 514.070312 398.355469 509.886719 399.089844 C 509.886719 399.089844 503.828125 399.554688 507.707031 406.195312 C 511.585938 412.835938 524.675781 423.21875 524.675781 423.21875 L 467.917969 426.609375 C 467.917969 426.609375 458.292969 426.6875 460.671875 432.496094 C 462.382812 436.675781 468.335938 434.910156 468.335938 434.910156 C 468.335938 434.910156 467.710938 442.523438 475.699219 441.882812 C 477.226562 441.761719 476.03125 440.746094 477.144531 442.671875 C 480.605469 448.660156 489.105469 447.683594 491.546875 447.722656 C 491.546875 447.722656 504.382812 462.992188 529.730469 459.023438 L 548.285156 467.507812 C 548.285156 467.507812 624.566406 538.238281 654.058594 532.84375 C 683.550781 527.453125 694.328125 496.089844 694.328125 496.089844 " fill-opacity="1" fill-rule="nonzero"/><path fill="#be9e7d" d="M 786.871094 306.746094 C 786.871094 306.746094 777.882812 352.925781 804 360.078125 C 804 360.078125 798.347656 427.707031 735.890625 429.660156 C 735.890625 429.660156 684.480469 420.664062 712.734375 360.3125 L 721.316406 356.75 C 721.570312 345.230469 719.707031 343.160156 719.707031 343.160156 L 786.871094 306.757812 " fill-opacity="1" fill-rule="nonzero"/><path fill="#be9e7d" d="M 695.894531 229.511719 C 695.894531 229.511719 690.546875 240.84375 692.59375 267.074219 C 692.59375 267.074219 693.132812 276.867188 690.722656 282.550781 C 690.722656 282.550781 688.53125 304.074219 696.394531 320.066406 C 704.261719 336.054688 719.59375 345.570312 719.59375 345.570312 C 719.59375 345.570312 734.617188 350.855469 746.761719 345.6875 C 758.90625 340.523438 776.191406 338.007812 788.839844 308.320312 C 788.839844 308.320312 797.664062 316.175781 803.964844 301.730469 C 810.265625 287.285156 817.652344 282.390625 811.714844 269.941406 C 805.773438 257.484375 792.070312 282.105469 792.070312 282.105469 C 792.070312 282.105469 803.074219 258.667969 795.875 235.0625 C 788.675781 211.453125 758.667969 195.089844 758.667969 195.089844 C 758.667969 195.089844 715.558594 181.996094 695.902344 229.515625 Z M 695.894531 229.511719 " fill-opacity="1" fill-rule="nonzero"/><path fill="#26130f" d="M 740.210938 256.785156 C 740.210938 256.785156 757.058594 255.226562 770.671875 262.085938 C 770.671875 262.085938 764.910156 252.183594 740.335938 252.808594 C 740.335938 252.808594 736.011719 254.726562 740.210938 256.785156 Z M 740.210938 256.785156 " fill-opacity="1" fill-rule="nonzero"/><path fill="#26130f" d="M 690.351562 257.359375 C 701.9375 254.640625 710.390625 255.660156 710.390625 255.660156 C 714.652344 253.742188 710.390625 251.683594 710.390625 251.683594 C 702.746094 251.246094 694.292969 252.742188 689.851562 253.832031 C 689.851562 253.832031 689.714844 257.503906 690.347656 257.351562 Z M 690.351562 257.359375 " fill-opacity="1" fill-rule="nonzero"/><path stroke-linecap="butt" transform="matrix(0.685068, 0, 0, 0.685255, -343.901006, -122.984782)" fill="none" stroke-linejoin="miter" d="M 1550.151898 595.621672 C 1550.151898 595.621672 1534.762232 606.691912 1549.769864 615.048745 " stroke="#231f20" stroke-width="1" stroke-opacity="1" stroke-miterlimit="10"/><path fill="#26130f" d="M 720.242188 345.722656 C 720.242188 345.722656 737.4375 350.8125 751.25 343.816406 C 751.25 343.816406 759.214844 342.226562 772.429688 332.859375 C 772.429688 332.859375 765.492188 345.25 739.910156 349.820312 C 739.910156 349.820312 730.402344 350.621094 719.351562 350.019531 C 719.351562 350.019531 719.980469 347.492188 720.25 345.722656 Z M 720.242188 345.722656 " fill-opacity="1" fill-rule="nonzero"/><path stroke-linecap="butt" transform="matrix(0.685068, 0, 0, 0.685255, -343.901006, -122.984782)" fill="none" stroke-linejoin="miter" d="M 1682.648992 595.142836 C 1682.648992 595.142836 1676.787348 585.161379 1669.129578 594.618396 C 1661.471809 604.081114 1660.907312 607.341761 1660.907312 607.341761 C 1660.907312 607.341761 1671.957764 592.252716 1675.350447 605.010284 " stroke="#231f20" stroke-width="1" stroke-opacity="1" stroke-miterlimit="10"/><path fill="#ffffff" d="M 760.039062 270.199219 C 760.039062 270.199219 760.085938 269.742188 759.777344 269.324219 C 758.765625 267.953125 756.367188 265.34375 752.261719 264.972656 C 747.671875 264.5625 744.753906 268.644531 743.753906 270.105469 C 743.582031 270.359375 743.574219 270.589844 743.574219 270.589844 C 743.574219 270.589844 743.535156 270.84375 743.671875 271.035156 C 744.328125 271.957031 746.554688 274.550781 750.898438 275.011719 C 753.480469 275.285156 757.242188 274.222656 759.8125 270.90625 C 759.992188 270.671875 760.03125 270.367188 760.039062 270.199219 Z M 760.039062 270.199219 " fill-opacity="1" fill-rule="nonzero"/><path fill="#26130f" d="M 755.257812 270.160156 C 755.257812 270.472656 755.226562 270.78125 755.164062 271.089844 C 755.105469 271.398438 755.011719 271.695312 754.894531 271.984375 C 754.773438 272.273438 754.625 272.550781 754.453125 272.808594 C 754.277344 273.070312 754.082031 273.3125 753.859375 273.53125 C 753.636719 273.753906 753.398438 273.953125 753.136719 274.125 C 752.875 274.300781 752.601562 274.445312 752.3125 274.566406 C 752.023438 274.6875 751.726562 274.777344 751.417969 274.835938 C 751.113281 274.898438 750.800781 274.929688 750.488281 274.929688 C 750.175781 274.929688 749.863281 274.898438 749.558594 274.835938 C 749.25 274.777344 748.953125 274.6875 748.664062 274.566406 C 748.375 274.445312 748.097656 274.300781 747.839844 274.125 C 747.578125 273.953125 747.339844 273.753906 747.117188 273.53125 C 746.894531 273.3125 746.699219 273.070312 746.523438 272.808594 C 746.351562 272.550781 746.203125 272.273438 746.082031 271.984375 C 745.964844 271.695312 745.871094 271.398438 745.8125 271.089844 C 745.75 270.78125 745.71875 270.472656 745.71875 270.160156 C 745.71875 269.847656 745.75 269.535156 745.8125 269.230469 C 745.871094 268.921875 745.964844 268.625 746.082031 268.335938 C 746.203125 268.046875 746.351562 267.769531 746.523438 267.511719 C 746.699219 267.25 746.894531 267.007812 747.117188 266.789062 C 747.339844 266.566406 747.578125 266.367188 747.839844 266.195312 C 748.097656 266.019531 748.375 265.875 748.664062 265.753906 C 748.953125 265.632812 749.25 265.542969 749.558594 265.480469 C 749.863281 265.421875 750.175781 265.390625 750.488281 265.390625 C 750.800781 265.390625 751.113281 265.421875 751.417969 265.480469 C 751.726562 265.542969 752.023438 265.632812 752.3125 265.753906 C 752.601562 265.875 752.875 266.019531 753.136719 266.195312 C 753.398438 266.367188 753.636719 266.566406 753.859375 266.789062 C 754.082031 267.007812 754.277344 267.25 754.453125 267.511719 C 754.625 267.769531 754.773438 268.046875 754.894531 268.335938 C 755.011719 268.625 755.105469 268.921875 755.164062 269.230469 C 755.226562 269.535156 755.257812 269.847656 755.257812 270.160156 Z M 755.257812 270.160156 " fill-opacity="1" fill-rule="nonzero"/><path fill="#ffffff" d="M 755.152344 271.949219 C 755.152344 272.121094 755.121094 272.289062 755.054688 272.449219 C 754.988281 272.609375 754.894531 272.75 754.769531 272.875 C 754.648438 272.996094 754.507812 273.089844 754.347656 273.15625 C 754.183594 273.222656 754.019531 273.257812 753.84375 273.257812 C 753.671875 273.257812 753.503906 273.222656 753.34375 273.15625 C 753.183594 273.089844 753.042969 272.996094 752.917969 272.875 C 752.796875 272.75 752.703125 272.609375 752.636719 272.449219 C 752.570312 272.289062 752.535156 272.121094 752.535156 271.949219 C 752.535156 271.773438 752.570312 271.609375 752.636719 271.449219 C 752.703125 271.285156 752.796875 271.144531 752.917969 271.023438 C 753.042969 270.898438 753.183594 270.804688 753.34375 270.738281 C 753.503906 270.671875 753.671875 270.640625 753.84375 270.640625 C 754.019531 270.640625 754.183594 270.671875 754.347656 270.738281 C 754.507812 270.804688 754.648438 270.898438 754.769531 271.023438 C 754.894531 271.144531 754.988281 271.285156 755.054688 271.449219 C 755.121094 271.609375 755.152344 271.773438 755.152344 271.949219 Z M 755.152344 271.949219 " fill-opacity="1" fill-rule="nonzero"/><path stroke-linecap="butt" transform="matrix(0.685068, 0, 0, 0.685255, -343.901006, -122.984782)" fill="none" stroke-linejoin="miter" d="M 1587.237627 573.618003 C 1587.237627 573.618003 1596.839775 558.357945 1611.31142 572.477916 " stroke="#231f20" stroke-width="1" stroke-opacity="1" stroke-miterlimit="10"/><path fill="#ffffff" d="M 710.636719 270.058594 C 710.636719 270.058594 710.746094 269.632812 710.519531 269.195312 C 709.761719 267.753906 707.882812 264.945312 704.074219 264.007812 C 699.808594 262.949219 696.472656 266.378906 695.3125 267.609375 C 695.113281 267.824219 695.074219 268.042969 695.074219 268.042969 C 695.074219 268.042969 694.996094 268.273438 695.101562 268.480469 C 695.585938 269.441406 697.3125 272.207031 701.335938 273.269531 C 703.734375 273.902344 707.425781 273.441406 710.324219 270.699219 C 710.519531 270.507812 710.605469 270.222656 710.636719 270.0625 Z M 710.636719 270.058594 " fill-opacity="1" fill-rule="nonzero"/><path fill="#26130f" d="M 706.179688 268.625 C 706.179688 268.921875 706.148438 269.214844 706.089844 269.507812 C 706.03125 269.800781 705.945312 270.082031 705.832031 270.359375 C 705.71875 270.632812 705.578125 270.894531 705.414062 271.140625 C 705.25 271.386719 705.0625 271.617188 704.851562 271.828125 C 704.640625 272.039062 704.414062 272.226562 704.164062 272.390625 C 703.917969 272.554688 703.65625 272.695312 703.382812 272.808594 C 703.109375 272.921875 702.824219 273.007812 702.53125 273.066406 C 702.242188 273.125 701.945312 273.152344 701.648438 273.152344 C 701.351562 273.152344 701.058594 273.125 700.765625 273.066406 C 700.476562 273.007812 700.191406 272.921875 699.917969 272.808594 C 699.640625 272.695312 699.382812 272.554688 699.132812 272.390625 C 698.886719 272.226562 698.65625 272.039062 698.449219 271.828125 C 698.238281 271.617188 698.050781 271.386719 697.882812 271.140625 C 697.71875 270.894531 697.578125 270.632812 697.464844 270.359375 C 697.351562 270.082031 697.265625 269.800781 697.207031 269.507812 C 697.152344 269.214844 697.121094 268.921875 697.121094 268.625 C 697.121094 268.328125 697.152344 268.03125 697.207031 267.742188 C 697.265625 267.449219 697.351562 267.167969 697.464844 266.890625 C 697.578125 266.617188 697.71875 266.355469 697.882812 266.109375 C 698.050781 265.859375 698.238281 265.632812 698.449219 265.421875 C 698.65625 265.210938 698.886719 265.023438 699.132812 264.859375 C 699.382812 264.691406 699.640625 264.554688 699.917969 264.441406 C 700.191406 264.324219 700.476562 264.238281 700.765625 264.183594 C 701.058594 264.125 701.351562 264.09375 701.648438 264.09375 C 701.945312 264.09375 702.242188 264.125 702.535156 264.183594 C 702.824219 264.238281 703.109375 264.328125 703.382812 264.441406 C 703.65625 264.554688 703.917969 264.691406 704.164062 264.859375 C 704.414062 265.023438 704.640625 265.210938 704.851562 265.421875 C 705.0625 265.632812 705.25 265.859375 705.414062 266.109375 C 705.578125 266.355469 705.71875 266.617188 705.832031 266.890625 C 705.945312 267.167969 706.03125 267.449219 706.089844 267.742188 C 706.148438 268.03125 706.179688 268.328125 706.179688 268.625 Z M 706.179688 268.625 " fill-opacity="1" fill-rule="nonzero"/><path fill="#ffffff" d="M 705.800781 270.480469 C 705.800781 270.648438 705.769531 270.8125 705.703125 270.96875 C 705.640625 271.121094 705.550781 271.257812 705.429688 271.378906 C 705.3125 271.496094 705.175781 271.589844 705.019531 271.652344 C 704.863281 271.71875 704.703125 271.75 704.535156 271.75 C 704.367188 271.75 704.203125 271.71875 704.050781 271.652344 C 703.894531 271.589844 703.757812 271.496094 703.636719 271.378906 C 703.519531 271.257812 703.425781 271.121094 703.363281 270.96875 C 703.296875 270.8125 703.265625 270.648438 703.265625 270.480469 C 703.265625 270.3125 703.296875 270.152344 703.363281 269.996094 C 703.425781 269.839844 703.519531 269.703125 703.636719 269.585938 C 703.757812 269.464844 703.894531 269.375 704.050781 269.3125 C 704.203125 269.246094 704.367188 269.214844 704.535156 269.214844 C 704.703125 269.214844 704.863281 269.246094 705.019531 269.3125 C 705.175781 269.375 705.3125 269.464844 705.429688 269.585938 C 705.550781 269.703125 705.640625 269.839844 705.703125 269.996094 C 705.769531 270.152344 705.800781 270.3125 705.800781 270.480469 Z M 705.800781 270.480469 " fill-opacity="1" fill-rule="nonzero"/><path stroke-linecap="butt" transform="matrix(0.685068, 0, 0, 0.685255, -343.901006, -122.984782)" fill="none" stroke-linejoin="miter" d="M 1516.789566 570.180642 C 1516.789566 570.180642 1527.788701 556.191781 1539.278207 572.609026 " stroke="#231f20" stroke-width="1" stroke-opacity="1" stroke-miterlimit="10"/><path stroke-linecap="butt" transform="matrix(0.685068, 0, 0, 0.685255, -343.901006, -122.984782)" fill="none" stroke-linejoin="miter" d="M 1507.022061 828.718052 C 1507.022061 828.718052 1504.752669 857.317122 1510.049816 897.989707 " stroke="#6d6e71" stroke-width="1" stroke-opacity="1" stroke-miterlimit="10"/><path fill="#26130f" d="M 831.359375 380.511719 L 791.25 359.6875 C 776.554688 339.878906 787.277344 304.664062 787.277344 304.664062 C 796.695312 311.078125 803.046875 302.992188 803.046875 302.992188 C 816.164062 277.058594 806.171875 274.773438 806.171875 274.773438 C 794.019531 272.832031 791.679688 282.5625 791.679688 282.5625 C 761.792969 262.699219 771.402344 216.894531 771.402344 216.894531 C 736.230469 244.859375 698.875 229.621094 698.875 229.621094 C 692.777344 236.179688 693.132812 255.46875 693.132812 255.46875 C 693.964844 268.527344 693.964844 272.59375 693.964844 272.59375 C 688.175781 298.480469 694.75 314.421875 694.75 314.421875 C 704.410156 338.570312 720.511719 346.230469 720.511719 346.230469 C 721.269531 350.675781 720.207031 356.769531 720.207031 356.769531 C 715.667969 360.550781 703.191406 364.019531 703.191406 364.019531 C 695.683594 366.820312 688.113281 368.960938 688.113281 368.960938 C 663.335938 264.65625 704.027344 205.738281 704.027344 205.738281 C 745.328125 156.324219 795.320312 202.019531 795.320312 202.019531 C 851.554688 223.214844 831.359375 380.511719 831.359375 380.511719 " fill-opacity="1" fill-rule="nonzero"/><path fill="#e96d42" d="M 802.003906 274.566406 C 802.003906 274.566406 811.152344 233.527344 782.597656 208.878906 C 754.050781 184.222656 724.085938 199.914062 717.214844 205.246094 C 699.308594 219.121094 698.875 229.621094 698.875 229.621094 C 698.875 229.621094 707.671875 214.078125 725.640625 208.664062 C 725.640625 208.664062 759.847656 199.976562 780.207031 223.527344 C 800.566406 247.074219 791.679688 282.5625 791.679688 282.5625 C 791.679688 282.5625 793.339844 275.992188 802.003906 274.566406 Z M 802.003906 274.566406 " fill-opacity="1" fill-rule="nonzero"/><path stroke-linecap="butt" transform="matrix(0.685068, 0, 0, 0.685255, -343.901006, -122.984782)" fill="none" stroke-linejoin="miter" d="M 1688.761523 887.010674 C 1688.761523 887.010674 1677.169381 788.21078 1693.642425 772.962123 " stroke="#6d6e71" stroke-width="1" stroke-opacity="1" stroke-miterlimit="10"/><path fill="#f6ac1b" d="M 676.691406 564.257812 C 675.953125 547.035156 674.5625 525.574219 671.933594 505.03125 C 671.933594 505.03125 671.28125 493.972656 671.753906 473.089844 L 646.503906 446.949219 L 658.882812 406.902344 C 658.882812 406.902344 663.554688 378.300781 694.882812 366.5 C 694.882812 366.5 708.582031 363.628906 716.996094 359.085938 C 716.996094 359.085938 710.941406 372.152344 714.207031 384.414062 C 714.207031 384.414062 726.3125 421.574219 742.816406 424.035156 C 742.816406 424.035156 791.179688 383.746094 790.714844 353.789062 C 790.714844 353.789062 804.546875 353.425781 824.039062 368.714844 C 868.328125 403.449219 875.246094 481.816406 875.246094 481.816406 C 875.246094 481.816406 863.421875 493.492188 829.65625 497.320312 L 848.960938 565.859375 " fill-opacity="1" fill-rule="nonzero"/><path fill="#f6ac1b" d="M 791.847656 356.035156 L 742.808594 424.035156 L 774.144531 456.46875 L 841.019531 385.597656 C 841.019531 385.597656 831.667969 369.425781 813.898438 365.480469 C 796.128906 361.523438 791.847656 356.035156 791.847656 356.035156 Z M 791.847656 356.035156 " fill-opacity="1" fill-rule="nonzero"/><path fill="#f6ac1b" d="M 715.589844 362.414062 L 742.816406 424.027344 L 712.941406 451.082031 L 679.917969 374.839844 C 679.917969 374.839844 695.832031 361.875 715.589844 362.414062 Z M 715.589844 362.414062 " fill-opacity="1" fill-rule="nonzero"/><path fill="#8b5e3c" d="M 774.144531 456.46875 L 841.019531 385.597656 C 841.019531 385.597656 837.703125 377.164062 830.867188 372.933594 L 764.882812 446.832031 L 774.144531 456.460938 Z M 774.144531 456.46875 " fill-opacity="1" fill-rule="nonzero"/><path stroke-linecap="butt" transform="matrix(0.685068, 0, 0, 0.685255, -343.901006, -122.984782)" fill="none" stroke-linejoin="miter" d="M 1675.778096 705.982043 C 1675.778096 705.982043 1609.230195 790.479552 1600.728531 815.002812 " stroke="#a97c50" stroke-width="1" stroke-opacity="1" stroke-miterlimit="10"/><path fill="#8b5e3c" d="M 712.941406 451.085938 L 720.148438 444.433594 L 689.296875 369.015625 L 679.917969 374.847656 Z M 712.941406 451.085938 " fill-opacity="1" fill-rule="nonzero"/><path stroke-linecap="butt" transform="matrix(0.685068, 0, 0, 0.685255, -343.901006, -122.984782)" fill="none" stroke-linejoin="miter" d="M 1566.710471 813.948232 L 1525.182892 711.197938 " stroke="#a97c50" stroke-width="1" stroke-opacity="1" stroke-miterlimit="10"/><path fill="#ffffff" d="M 836.429688 388.488281 L 834.875 378.195312 L 825.003906 379.820312 L 826.558594 390.113281 Z M 836.429688 388.488281 " fill-opacity="1" fill-rule="nonzero"/><path fill="#ffffff" d="M 825.875 400.488281 L 824.316406 390.195312 L 814.453125 391.820312 L 816.007812 402.113281 Z M 825.875 400.488281 " fill-opacity="1" fill-rule="nonzero"/><path fill="#ffffff" d="M 814.253906 412.726562 L 812.699219 402.433594 L 802.828125 404.058594 L 804.382812 414.351562 Z M 814.253906 412.726562 " fill-opacity="1" fill-rule="nonzero"/><path fill="#ffffff" d="M 802.984375 425.464844 L 801.429688 415.171875 L 791.566406 416.796875 L 793.121094 427.089844 Z M 802.984375 425.464844 " fill-opacity="1" fill-rule="nonzero"/><path fill="#ffffff" d="M 791.722656 437.957031 L 790.167969 427.664062 L 780.296875 429.289062 L 781.851562 439.582031 Z M 791.722656 437.957031 " fill-opacity="1" fill-rule="nonzero"/><path fill="#ffffff" d="M 781.75 449.410156 L 780.191406 439.117188 L 770.320312 440.742188 L 771.875 451.03125 Z M 781.75 449.410156 " fill-opacity="1" fill-rule="nonzero"/><path fill="#ffffff" d="M 683.46875 383.101562 L 690.558594 385.613281 L 692.964844 378.21875 L 685.871094 375.710938 Z M 683.46875 383.101562 " fill-opacity="1" fill-rule="nonzero"/><path fill="#ffffff" d="M 688.285156 394.347656 L 695.375 396.855469 L 697.78125 389.460938 L 690.683594 386.953125 Z M 688.285156 394.347656 " fill-opacity="1" fill-rule="nonzero"/><path fill="#ffffff" d="M 693.71875 406.992188 L 700.808594 409.492188 L 703.210938 402.097656 L 696.121094 399.597656 Z M 693.71875 406.992188 " fill-opacity="1" fill-rule="nonzero"/><path fill="#ffffff" d="M 698.890625 419.074219 L 705.546875 421.421875 L 707.800781 414.480469 L 701.144531 412.132812 Z M 698.890625 419.074219 " fill-opacity="1" fill-rule="nonzero"/><path fill="#ffffff" d="M 703.726562 431.097656 L 710.378906 433.449219 L 712.636719 426.507812 L 705.980469 424.15625 Z M 703.726562 431.097656 " fill-opacity="1" fill-rule="nonzero"/><path fill="#ffffff" d="M 708.800781 442.898438 L 715.460938 445.25 L 717.714844 438.308594 L 711.054688 435.957031 Z M 708.800781 442.898438 " fill-opacity="1" fill-rule="nonzero"/><path stroke-linecap="butt" transform="matrix(0.685068, 0, 0, 0.685255, -343.901006, -122.984782)" fill="none" stroke-linejoin="miter" d="M 1667.139585 855.310569 C 1667.139585 855.310569 1672.459539 826.700099 1683.777985 801.407281 " stroke="#a97c50" stroke-width="1" stroke-opacity="1" stroke-miterlimit="10"/><path stroke-linecap="butt" transform="matrix(0.685068, 0, 0, 0.685255, -343.901006, -122.984782)" fill="none" stroke-linejoin="miter" d="M 1481.231969 872.172448 C 1481.231969 872.172448 1482.018843 848.509954 1485.377314 840.620555 " stroke="#a97c50" stroke-width="1" stroke-opacity="1" stroke-miterlimit="10"/><path fill="#a36548" d="M 661.039062 595.710938 L 569.183594 586.632812 L 559.863281 583.417969 L 568.835938 580.675781 L 660.691406 589.757812 C 660.691406 589.757812 666.3125 591.339844 661.046875 595.71875 Z M 661.039062 595.710938 " fill-opacity="1" fill-rule="nonzero"/><path stroke-linecap="butt" transform="matrix(0.685068, 0, 0, 0.685255, -343.901006, -122.984782)" fill="none" stroke-linejoin="miter" d="M 1185.652317 814.159148 L 1239.399256 810.932703 " stroke="#754c29" stroke-width="0.5" stroke-opacity="1" stroke-miterlimit="10"/><path stroke-linecap="butt" transform="matrix(0.685068, 0, 0, 0.685255, -343.901006, -122.984782)" fill="none" stroke-linejoin="miter" d="M 1219.949775 832.138312 C 1219.949775 832.138312 1217.201417 826.301069 1223.308246 825.970444 C 1229.420777 825.639819 1247.5588 839.320857 1261.351909 834.207569 " stroke="#754c29" stroke-width="0.5" stroke-opacity="1" stroke-miterlimit="10"/><path stroke-linecap="butt" transform="matrix(0.685068, 0, 0, 0.685255, -343.901006, -122.984782)" fill="none" stroke-linejoin="miter" d="M 1267.880686 797.097754 C 1267.880686 797.097754 1278.372343 803.750159 1275.857767 810.847197 " stroke="#754c29" stroke-width="0.5" stroke-opacity="1" stroke-miterlimit="10"/><path stroke-linecap="butt" transform="matrix(0.685068, 0, 0, 0.685255, -343.901006, -122.984782)" fill="none" stroke-linejoin="miter" d="M 1197.951505 823.587663 L 1245.380641 820.167404 " stroke="#754c29" stroke-width="0.5" stroke-opacity="1" stroke-miterlimit="10"/><path fill="#be9e7d" d="M 800.027344 466.3125 C 794.214844 473.550781 791.367188 481.820312 791.367188 481.820312 C 786.8125 461.757812 756.261719 409.316406 756.261719 409.316406 C 756.261719 409.316406 756.375 382.734375 755.132812 368.808594 L 769.828125 340.699219 C 769.828125 340.699219 765.222656 334.917969 756.125 343.480469 C 748.835938 350.347656 746.945312 353.988281 746.945312 353.988281 C 746.945312 353.988281 725.476562 336.511719 721.214844 338.210938 C 721.214844 338.210938 717.167969 338.109375 716.125 341.050781 C 715.082031 343.988281 717.96875 347.8125 717.96875 347.8125 C 717.96875 347.8125 713.542969 348.527344 711.898438 350.808594 C 710.253906 353.089844 711.824219 356.617188 711.824219 356.617188 C 711.824219 356.617188 703.183594 357.753906 706.371094 366.574219 C 706.371094 366.574219 697.121094 367.054688 701.601562 377.683594 L 726.167969 413.871094 C 726.167969 413.871094 738.929688 564.351562 784.523438 557.96875 C 830.113281 551.582031 859.285156 489.566406 859.285156 489.566406 " fill-opacity="1" fill-rule="nonzero"/><path stroke-linecap="butt" transform="matrix(0.685068, 0, 0, 0.685255, -343.901006, -122.984782)" fill="none" stroke-linejoin="miter" d="M 1568.17018 700.680641 L 1550.032156 687.039506 C 1550.032156 687.039506 1541.667339 674.56126 1555.078415 671.779449 L 1558.208807 672.868231 C 1559.862383 673.438274 1561.419026 674.242035 1562.850225 675.251012 L 1592.318099 696.05189 C 1592.318099 696.05189 1613.637832 664.129468 1625.720344 676.659019 L 1604.269465 717.67933 L 1606.03138 765.397649 " stroke="#754c29" stroke-width="1" stroke-opacity="1" stroke-miterlimit="10"/><path stroke-linecap="butt" transform="matrix(0.685068, 0, 0, 0.685255, -343.901006, -122.984782)" fill="none" stroke-linejoin="miter" d="M 1541.057227 699.888281 C 1541.057227 699.888281 1548.127692 710.280169 1554.411283 712.702853 " stroke="#754c29" stroke-width="1" stroke-opacity="1" stroke-miterlimit="10"/><path stroke-linecap="butt" transform="matrix(0.685068, 0, 0, 0.685255, -343.901006, -122.984782)" fill="none" stroke-linejoin="miter" d="M 1533.09155 714.418683 L 1540.49273 723.778793 " stroke="#754c29" stroke-width="1" stroke-opacity="1" stroke-miterlimit="10"/><path fill="#be8c8c" d="M 744.71875 313.523438 C 744.71875 313.523438 737.074219 310.417969 727.53125 312.472656 C 727.53125 312.472656 719.59375 310.191406 712.207031 311.324219 C 712.207031 311.324219 712 324.925781 723.984375 328.839844 C 735.972656 332.75 744.351562 321.449219 744.714844 313.523438 Z M 744.71875 313.523438 " fill-opacity="1" fill-rule="nonzero"/><path fill="#803435" d="M 742.683594 314.332031 C 742.683594 314.332031 741.90625 326.324219 726.921875 325.199219 C 713.316406 324.179688 714.007812 313.507812 714.007812 313.507812 C 714.007812 313.507812 729.277344 315.378906 742.679688 314.332031 Z M 742.683594 314.332031 " fill-opacity="1" fill-rule="nonzero"/><path fill="#ffffff" d="M 740.816406 314.367188 C 740.816406 314.367188 736.683594 319.636719 725.140625 318.183594 C 725.140625 318.183594 717.960938 318.019531 715.261719 313.835938 C 715.261719 313.835938 730.175781 315.296875 740.816406 314.359375 Z M 740.816406 314.367188 " fill-opacity="1" fill-rule="nonzero"/><path fill="#be9e7d" d="M 291.246094 444.222656 C 291.246094 444.222656 310.347656 501.925781 345.558594 509.820312 C 380.769531 517.714844 454.21875 381.707031 454.21875 381.707031 L 462.507812 372.496094 L 486.113281 362.046875 L 515.097656 338.773438 L 522.730469 315.097656 C 527.527344 305.449219 521.074219 304.066406 521.074219 304.066406 C 514.078125 303.320312 513.75 308.816406 510.25 314.042969 C 504.871094 322.066406 501.335938 330.902344 501.335938 330.902344 C 501.335938 330.902344 502.582031 328.722656 496.230469 329.175781 C 488.421875 329.730469 489.574219 331.429688 489.574219 331.429688 L 475.6875 327.980469 C 479.449219 323.308594 483.351562 316.449219 483.351562 316.449219 C 484.3125 305.273438 474.78125 311.644531 474.78125 311.644531 L 461.464844 326.769531 C 436.324219 340.863281 438.570312 357.40625 438.570312 357.40625 C 435.960938 359.023438 432.0625 364.109375 429.328125 365.925781 L 366.199219 417.539062 L 360.128906 394.464844 " fill-opacity="1" fill-rule="nonzero"/><path stroke-linecap="butt" transform="matrix(0.685068, 0, 0, 0.685255, -343.901006, -122.984782)" fill-opacity="1" fill="#be9e7d" fill-rule="nonzero" stroke-linejoin="miter" d="M 1187.682225 657.260447 C 1187.682225 657.260447 1192.722782 657.129337 1196.38916 658.212419 " stroke="#603913" stroke-width="1" stroke-opacity="1" stroke-miterlimit="10"/><path stroke-linecap="butt" transform="matrix(0.685068, 0, 0, 0.685255, -343.901006, -122.984782)" fill-opacity="1" fill="#be9e7d" fill-rule="nonzero" stroke-linejoin="miter" d="M 1180.189813 702.687193 C 1180.189813 702.687193 1189.797662 681.470184 1197.751936 677.667995 C 1197.751936 677.667995 1201.309976 676.379697 1203.368394 668.267982 C 1205.329878 660.549597 1203.459626 652.568991 1210.03972 652.301071 C 1219.56204 651.919142 1216.619814 663.120492 1216.619814 663.120492 L 1211.242839 688.071284 " stroke="#603913" stroke-width="1" stroke-opacity="1" stroke-miterlimit="10"/><path stroke-linecap="butt" transform="matrix(0.685068, 0, 0, 0.685255, -343.901006, -122.984782)" fill-opacity="1" fill="#be9e7d" fill-rule="nonzero" stroke-linejoin="miter" d="M 1142.180361 701.028367 C 1142.180361 701.028367 1147.950773 708.798056 1159.292027 711.209339 " stroke="#603913" stroke-width="1" stroke-opacity="1" stroke-miterlimit="10"/><path stroke-linecap="butt" transform="matrix(0.685068, 0, 0, 0.685255, -343.901006, -122.984782)" fill-opacity="1" fill="#be9e7d" fill-rule="nonzero" stroke-linejoin="miter" d="M 1215.051767 670.280235 L 1217.771615 660.019457 L 1213.91137 647.837633 C 1213.91137 647.837633 1212.320515 641.589959 1218.222072 638.802447 C 1224.807868 635.690011 1228.092214 643.670616 1228.092214 643.670616 L 1231.952459 660.372883 L 1227.71018 682.120033 " stroke="#603913" stroke-width="1" stroke-opacity="1" stroke-miterlimit="10"/><path fill="#be9e7d" d="M 214.203125 204.746094 C 214.203125 204.746094 210.011719 239.535156 196.34375 257.734375 C 196.34375 257.734375 166.851562 350.574219 243.25 370.136719 C 243.25 370.136719 304.050781 367.472656 285.835938 285.371094 C 285.835938 285.371094 273.195312 276.882812 275.886719 263.417969 C 278.738281 249.164062 277.660156 264.066406 277.660156 264.066406 L 214.210938 204.746094 " fill-opacity="1" fill-rule="nonzero"/><path fill="#be9e7d" d="M 216.800781 176.101562 C 216.800781 176.101562 235.214844 104.957031 300.46875 113.667969 C 300.46875 113.667969 354.664062 126.117188 328.207031 190.726562 C 328.207031 190.726562 324.589844 197.453125 325.144531 203.332031 C 325.144531 203.332031 329.851562 213.175781 317.320312 232.421875 C 304.789062 251.671875 289.328125 261.136719 289.328125 261.136719 C 289.328125 261.136719 279.820312 268.050781 263.800781 264.792969 C 263.800781 264.792969 250.835938 263.617188 238.523438 251.363281 C 238.523438 251.363281 207.765625 225.578125 214.191406 204.746094 C 214.191406 204.746094 196.132812 211.851562 194.5 185.214844 C 194.5 185.214844 195.863281 149.117188 216.785156 176.101562 Z M 216.800781 176.101562 " fill-opacity="1" fill-rule="nonzero"/><path fill="#bf6b6b" d="M 260.527344 223.617188 C 260.527344 223.617188 277.496094 221.78125 283.386719 228.714844 C 283.386719 228.714844 288.730469 225.199219 300.6875 232.875 C 300.6875 232.875 294.101562 250.957031 278.550781 247.691406 C 256.355469 243.03125 260.527344 223.617188 260.527344 223.617188 Z M 260.527344 223.617188 " fill-opacity="1" fill-rule="nonzero"/><path fill="#07935b" d="M 320.121094 567.53125 C 320.121094 567.53125 310.847656 527.238281 310.269531 471.90625 C 310.269531 471.90625 332.707031 449.464844 331.246094 416.777344 L 361.972656 393.847656 L 352.222656 340.136719 C 352.222656 340.136719 346.460938 303.828125 307.851562 288.839844 C 307.851562 288.839844 293.445312 285.953125 283.074219 280.191406 C 283.074219 280.191406 289.984375 319.964844 285.957031 335.527344 C 285.957031 335.527344 259.453125 364.921875 207.585938 334.375 C 207.585938 334.375 178.976562 304.066406 179.550781 266.027344 C 179.550781 266.027344 154.710938 268.027344 125.898438 277.253906 C 97.085938 286.476562 73.53125 366.828125 73.53125 366.828125 C 73.53125 366.828125 77.957031 387.023438 123.054688 411.945312 L 81.8125 565.09375 " fill-opacity="1" fill-rule="nonzero"/><path fill="#803435" d="M 263.109375 226.324219 C 263.109375 226.324219 262.535156 239.109375 277.847656 242.675781 C 293.152344 246.238281 297.519531 234.148438 297.519531 234.148438 C 297.519531 234.148438 273.035156 226.105469 263.117188 226.324219 Z M 263.109375 226.324219 " fill-opacity="1" fill-rule="nonzero"/><path fill="#26130f" d="M 280.882812 165.789062 C 280.882812 165.789062 259.925781 155.421875 248.65625 161.046875 C 248.65625 161.046875 258.019531 150.699219 282.257812 160.613281 C 282.257812 160.613281 286.164062 164.671875 280.882812 165.789062 Z M 280.882812 165.789062 " fill-opacity="1" fill-rule="nonzero"/><path fill="#26130f" d="M 333.90625 174.128906 C 333.734375 172.867188 322.835938 169.714844 312.238281 169.152344 C 312.238281 169.152344 306.976562 171.152344 311.269531 174.414062 C 311.269531 174.414062 331.101562 172.839844 332.417969 179.472656 C 332.417969 179.472656 334.332031 177.230469 333.898438 174.128906 Z M 333.90625 174.128906 " fill-opacity="1" fill-rule="nonzero"/><path stroke-linecap="butt" transform="matrix(0.685068, 0, 0, 0.685255, -343.901006, -122.984782)" fill="none" stroke-linejoin="miter" d="M 937.541715 474.892215 C 937.541715 474.892215 946.299969 497.289213 922.938924 494.501702 " stroke="#231f20" stroke-width="1" stroke-opacity="1" stroke-miterlimit="10"/><path fill="#ffffff" d="M 267.015625 226.550781 C 267.015625 226.550781 269.78125 231.078125 281.511719 233.949219 C 292.316406 236.597656 296.253906 233.691406 296.253906 233.691406 C 296.253906 233.691406 280.738281 228.09375 267.015625 226.550781 Z M 267.015625 226.550781 " fill-opacity="1" fill-rule="nonzero"/><path stroke-linecap="butt" transform="matrix(0.685068, 0, 0, 0.685255, -343.901006, -122.984782)" fill="none" stroke-linejoin="miter" d="M 791.981366 443.551237 C 791.981366 443.551237 802.649786 427.259402 809.931224 458.919603 C 809.931224 458.919603 801.150163 443.699449 796.6684 454.068535 " stroke="#231f20" stroke-width="1" stroke-opacity="1" stroke-miterlimit="10"/><path fill="#26130f" d="M 275.675781 265.410156 C 275.675781 265.410156 263.246094 268.335938 245.121094 257.25 C 245.121094 257.25 236.226562 251.371094 226.183594 238.789062 C 226.183594 238.789062 237.535156 259.324219 259.847656 266.035156 C 259.847656 266.035156 266.816406 268.351562 275.460938 267.671875 C 275.460938 267.671875 274.796875 267.535156 275.679688 265.402344 Z M 275.675781 265.410156 " fill-opacity="1" fill-rule="nonzero"/><path fill="#ffffff" d="M 255.144531 174.667969 C 255.144531 174.667969 255.226562 174.191406 255.648438 173.859375 C 257.0625 172.765625 260.207031 170.804688 264.445312 171.585938 C 269.195312 172.464844 270.980469 177.402344 271.585938 179.15625 C 271.6875 179.460938 271.625 179.699219 271.625 179.699219 C 271.625 179.699219 271.589844 179.964844 271.398438 180.125 C 270.480469 180.863281 267.5 182.851562 263 182.089844 C 260.320312 181.636719 256.828125 179.507812 255.171875 175.449219 C 255.054688 175.167969 255.101562 174.839844 255.144531 174.667969 Z M 255.144531 174.667969 " fill-opacity="1" fill-rule="nonzero"/><path fill="#26130f" d="M 269.761719 177.316406 C 269.761719 177.640625 269.730469 177.964844 269.667969 178.289062 C 269.601562 178.609375 269.507812 178.921875 269.382812 179.222656 C 269.257812 179.527344 269.105469 179.8125 268.921875 180.085938 C 268.738281 180.359375 268.53125 180.609375 268.300781 180.84375 C 268.070312 181.074219 267.816406 181.28125 267.546875 181.460938 C 267.273438 181.644531 266.984375 181.796875 266.683594 181.921875 C 266.382812 182.046875 266.070312 182.144531 265.75 182.207031 C 265.425781 182.269531 265.101562 182.304688 264.773438 182.304688 C 264.449219 182.304688 264.125 182.269531 263.800781 182.207031 C 263.480469 182.144531 263.167969 182.046875 262.867188 181.921875 C 262.5625 181.796875 262.277344 181.644531 262.003906 181.460938 C 261.730469 181.28125 261.480469 181.074219 261.25 180.84375 C 261.015625 180.609375 260.808594 180.359375 260.628906 180.085938 C 260.445312 179.8125 260.292969 179.527344 260.167969 179.222656 C 260.042969 178.921875 259.949219 178.609375 259.882812 178.289062 C 259.820312 177.964844 259.789062 177.640625 259.789062 177.316406 C 259.789062 176.988281 259.820312 176.664062 259.882812 176.339844 C 259.949219 176.019531 260.042969 175.707031 260.167969 175.40625 C 260.292969 175.101562 260.445312 174.816406 260.628906 174.542969 C 260.808594 174.269531 261.015625 174.019531 261.25 173.785156 C 261.480469 173.554688 261.730469 173.347656 262.003906 173.167969 C 262.277344 172.984375 262.5625 172.832031 262.867188 172.707031 C 263.167969 172.582031 263.480469 172.484375 263.800781 172.421875 C 264.125 172.359375 264.449219 172.324219 264.773438 172.324219 C 265.101562 172.324219 265.425781 172.359375 265.75 172.421875 C 266.070312 172.484375 266.382812 172.582031 266.683594 172.707031 C 266.984375 172.832031 267.273438 172.984375 267.546875 173.167969 C 267.816406 173.347656 268.070312 173.554688 268.300781 173.785156 C 268.53125 174.019531 268.738281 174.269531 268.921875 174.542969 C 269.105469 174.816406 269.257812 175.101562 269.382812 175.40625 C 269.507812 175.707031 269.601562 176.019531 269.667969 176.339844 C 269.730469 176.664062 269.761719 176.988281 269.761719 177.316406 Z M 269.761719 177.316406 " fill-opacity="1" fill-rule="nonzero"/><path fill="#ffffff" d="M 263.226562 175.746094 C 263.226562 175.925781 263.191406 176.101562 263.121094 176.269531 C 263.054688 176.4375 262.953125 176.585938 262.824219 176.714844 C 262.695312 176.84375 262.546875 176.941406 262.382812 177.011719 C 262.214844 177.082031 262.039062 177.117188 261.855469 177.117188 C 261.675781 177.117188 261.5 177.082031 261.332031 177.011719 C 261.164062 176.941406 261.015625 176.84375 260.886719 176.714844 C 260.757812 176.585938 260.660156 176.4375 260.589844 176.269531 C 260.519531 176.101562 260.488281 175.925781 260.488281 175.746094 C 260.488281 175.5625 260.519531 175.390625 260.589844 175.222656 C 260.660156 175.054688 260.757812 174.90625 260.886719 174.777344 C 261.015625 174.648438 261.164062 174.546875 261.332031 174.480469 C 261.5 174.410156 261.675781 174.375 261.855469 174.375 C 262.039062 174.375 262.214844 174.410156 262.382812 174.480469 C 262.546875 174.546875 262.695312 174.648438 262.824219 174.777344 C 262.953125 174.90625 263.054688 175.054688 263.121094 175.222656 C 263.191406 175.390625 263.226562 175.5625 263.226562 175.746094 Z M 263.226562 175.746094 " fill-opacity="1" fill-rule="nonzero"/><path stroke-linecap="butt" transform="matrix(0.685068, 0, 0, 0.685255, -343.901006, -122.984782)" fill="none" stroke-linejoin="miter" d="M 898.848025 441.008844 C 898.848025 441.008844 893.47105 422.921373 874.911079 433.090944 " stroke="#231f20" stroke-width="1.2" stroke-opacity="1" stroke-miterlimit="10"/><path fill="#ffffff" d="M 309.6875 188.882812 C 309.6875 188.882812 309.695312 188.421875 310.042969 188.058594 C 311.203125 186.839844 313.847656 184.566406 317.902344 184.6875 C 322.4375 184.824219 324.816406 189.164062 325.621094 190.703125 C 325.761719 190.972656 325.738281 191.203125 325.738281 191.203125 C 325.738281 191.203125 325.746094 191.457031 325.589844 191.628906 C 324.84375 192.453125 322.355469 194.726562 318.058594 194.664062 C 315.503906 194.632812 311.949219 193.144531 309.832031 189.609375 C 309.679688 189.359375 309.679688 189.054688 309.695312 188.886719 Z M 309.6875 188.882812 " fill-opacity="1" fill-rule="nonzero"/><path fill="#26130f" d="M 323.710938 189.949219 C 323.710938 190.257812 323.679688 190.5625 323.621094 190.863281 C 323.5625 191.164062 323.472656 191.457031 323.355469 191.742188 C 323.238281 192.027344 323.09375 192.296875 322.921875 192.550781 C 322.753906 192.804688 322.558594 193.042969 322.339844 193.261719 C 322.125 193.476562 321.886719 193.671875 321.632812 193.84375 C 321.375 194.011719 321.105469 194.15625 320.824219 194.273438 C 320.539062 194.390625 320.246094 194.480469 319.945312 194.539062 C 319.644531 194.601562 319.339844 194.632812 319.03125 194.632812 C 318.726562 194.632812 318.421875 194.601562 318.121094 194.539062 C 317.816406 194.480469 317.527344 194.390625 317.242188 194.273438 C 316.957031 194.15625 316.6875 194.011719 316.433594 193.84375 C 316.175781 193.671875 315.941406 193.476562 315.722656 193.261719 C 315.507812 193.042969 315.3125 192.804688 315.140625 192.550781 C 314.972656 192.296875 314.828125 192.027344 314.710938 191.742188 C 314.59375 191.457031 314.503906 191.164062 314.441406 190.863281 C 314.382812 190.5625 314.351562 190.257812 314.351562 189.949219 C 314.351562 189.644531 314.382812 189.339844 314.441406 189.039062 C 314.503906 188.734375 314.59375 188.445312 314.710938 188.160156 C 314.828125 187.875 314.972656 187.605469 315.140625 187.351562 C 315.3125 187.09375 315.507812 186.859375 315.722656 186.640625 C 315.941406 186.425781 316.175781 186.230469 316.433594 186.058594 C 316.6875 185.886719 316.957031 185.746094 317.242188 185.625 C 317.527344 185.507812 317.816406 185.421875 318.121094 185.359375 C 318.421875 185.300781 318.726562 185.269531 319.03125 185.269531 C 319.339844 185.269531 319.644531 185.300781 319.945312 185.359375 C 320.246094 185.421875 320.539062 185.507812 320.824219 185.625 C 321.105469 185.746094 321.375 185.886719 321.632812 186.058594 C 321.886719 186.230469 322.125 186.425781 322.339844 186.640625 C 322.558594 186.859375 322.753906 187.09375 322.921875 187.351562 C 323.09375 187.605469 323.238281 187.875 323.355469 188.160156 C 323.472656 188.445312 323.5625 188.734375 323.621094 189.039062 C 323.679688 189.339844 323.710938 189.644531 323.710938 189.949219 Z M 323.710938 189.949219 " fill-opacity="1" fill-rule="nonzero"/><path fill="#ffffff" d="M 317.25 188.984375 C 317.25 189.15625 317.21875 189.324219 317.152344 189.484375 C 317.085938 189.644531 316.992188 189.789062 316.867188 189.910156 C 316.746094 190.03125 316.605469 190.128906 316.445312 190.195312 C 316.285156 190.261719 316.117188 190.292969 315.941406 190.292969 C 315.769531 190.292969 315.601562 190.261719 315.441406 190.195312 C 315.28125 190.128906 315.140625 190.03125 315.019531 189.910156 C 314.894531 189.789062 314.800781 189.644531 314.734375 189.484375 C 314.667969 189.324219 314.632812 189.15625 314.632812 188.984375 C 314.632812 188.8125 314.667969 188.644531 314.734375 188.484375 C 314.800781 188.324219 314.894531 188.183594 315.019531 188.058594 C 315.140625 187.9375 315.28125 187.839844 315.441406 187.773438 C 315.601562 187.707031 315.769531 187.675781 315.941406 187.675781 C 316.117188 187.675781 316.285156 187.707031 316.445312 187.773438 C 316.605469 187.839844 316.746094 187.9375 316.867188 188.058594 C 316.992188 188.183594 317.085938 188.324219 317.152344 188.484375 C 317.21875 188.644531 317.25 188.8125 317.25 188.984375 Z M 317.25 188.984375 " fill-opacity="1" fill-rule="nonzero"/><path stroke-linecap="butt" transform="matrix(0.685068, 0, 0, 0.685255, -343.901006, -122.984782)" fill="none" stroke-linejoin="miter" d="M 977.410015 457.990433 C 977.410015 457.990433 970.350954 441.008844 954.36258 454.171143 " stroke="#231f20" stroke-width="1.2" stroke-opacity="1" stroke-miterlimit="10"/><path stroke-linecap="butt" transform="matrix(0.685068, 0, 0, 0.685255, -343.901006, -122.984782)" fill="none" stroke-linejoin="miter" d="M 681.619389 780.612104 C 681.619389 780.612104 763.328877 672.908134 703.127288 602.331081 " stroke="#006838" stroke-width="1" stroke-opacity="1" stroke-miterlimit="10"/><path stroke-linecap="butt" transform="matrix(0.685068, 0, 0, 0.685255, -343.901006, -122.984782)" fill="none" stroke-linejoin="miter" d="M 985.518242 787.669239 C 985.518242 787.669239 983.197533 759.269685 978.618836 742.282396 C 975.670909 731.337566 977.957406 704.249111 977.957406 704.249111 " stroke="#006838" stroke-width="1" stroke-opacity="1" stroke-miterlimit="10"/><path fill="#f05380" d="M 331.246094 416.769531 L 329.554688 400.6875 L 359.21875 380.636719 L 361.972656 393.3125 Z M 331.246094 416.769531 " fill-opacity="1" fill-rule="nonzero"/><path fill="#f05380" d="M 158.890625 349.257812 C 158.890625 349.257812 226.472656 397.246094 313.257812 356.824219 L 316.867188 372.234375 C 316.867188 372.234375 227.242188 418.414062 154.238281 362.347656 L 158.882812 349.257812 Z M 158.890625 349.257812 " fill-opacity="1" fill-rule="nonzero"/><path stroke-linecap="butt" transform="matrix(0.685068, 0, 0, 0.685255, -343.901006, -122.984782)" fill="none" stroke-linejoin="miter" d="M 771.910369 716.852767 L 780.03 731.269161 L 793.492393 720.757564 L 799.268507 734.95164 L 812.548437 726.292683 L 823.501956 742.219691 L 834.261607 728.971887 L 843.732609 741.649648 L 852.610604 729.467824 L 864.550567 741.14801 L 874.660192 728.458848 L 887.141843 740.811685 L 896.772501 726.828524 L 908.370345 736.00052 L 916.820691 721.909051 L 931.53182 729.507727 L 938.807556 715.30795 L 952.880063 723.470969 L 957.219275 708.991871 " stroke="#ffffff" stroke-width="0.5" stroke-opacity="1" stroke-miterlimit="10"/><path stroke-linecap="butt" transform="matrix(0.685068, 0, 0, 0.685255, -343.901006, -122.984782)" fill="none" stroke-linejoin="miter" d="M 768.620322 726.457996 L 782.607298 716.61905 L 789.26722 733.999668 L 802.900673 721.652531 L 810.09088 739.7001 L 823.142731 727.290259 L 834.147567 742.60162 L 844.958537 728.738169 L 853.197909 741.928969 L 863.478593 727.398567 L 874.551854 742.088581 L 884.95228 726.332586 L 896.247918 738.571415 L 906.648344 722.798318 L 917.4194 734.370196 L 926.702236 717.878845 L 941.761186 728.002813 L 947.691254 709.328197 L 960.252733 724.132219 " stroke="#ffffff" stroke-width="0.5" stroke-opacity="1" stroke-miterlimit="10"/><path stroke-linecap="butt" transform="matrix(0.685068, 0, 0, 0.685255, -343.901006, -122.984782)" fill="none" stroke-linejoin="miter" d="M 1023.379442 740.577967 L 1017.141467 759.520504 L 1003.371166 753.358336 L 1000.651318 772.888018 L 985.501136 767.489708 L 990.182468 780.019259 L 995.069072 760.432573 L 1009.341147 766.20141 L 1013.577724 747.709208 L 1026.498429 752.172646 " stroke="#ffffff" stroke-width="0.5" stroke-opacity="1" stroke-miterlimit="10"/><path stroke-linecap="butt" transform="matrix(0.685068, 0, 0, 0.685255, -343.901006, -122.984782)" fill-opacity="1" fill="#be9e7d" fill-rule="nonzero" stroke-linejoin="miter" d="M 1231.952459 660.367183 L 1234.062195 654.980274 L 1230.201949 642.79845 C 1230.201949 642.79845 1228.611094 636.550776 1234.512652 633.757565 C 1241.098448 630.650829 1244.382793 638.631434 1244.382793 638.631434 L 1248.237337 655.328001 L 1244.00076 677.080851 " stroke="#603913" stroke-width="1" stroke-opacity="1" stroke-miterlimit="10"/><path fill="#be9e7d" d="M 144.3125 408.171875 C 143.101562 436.101562 135.34375 482.679688 135.34375 482.679688 L 256.347656 547.449219 L 304.597656 528.019531 C 304.597656 528.019531 322.566406 531.394531 329.753906 530.777344 C 336.941406 530.167969 343.070312 542.5 343.070312 542.5 C 343.070312 542.5 349.476562 548.976562 347.429688 552.195312 C 345.378906 555.417969 338.296875 550.574219 338.296875 550.574219 L 338.140625 556.726562 C 336.125 567.367188 329.164062 562.820312 329.164062 562.820312 C 326.261719 576.203125 320.691406 571.746094 320.691406 571.746094 C 316.394531 580.972656 313.441406 581.183594 313.441406 581.183594 C 307.703125 581.195312 307.460938 570.988281 307.460938 570.988281 C 283.457031 573.363281 259.179688 568.507812 259.179688 568.507812 L 199.28125 568.101562 C 199.28125 568.101562 130.425781 555.207031 94.871094 539.363281 C 65.125 526.101562 73.019531 443.425781 73.019531 443.425781 L 78.230469 376.503906 " fill-opacity="1" fill-rule="nonzero"/><path stroke-linecap="butt" transform="matrix(0.685068, 0, 0, 0.685255, -343.901006, -122.984782)" fill-opacity="1" fill="#be9e7d" fill-rule="nonzero" stroke-linejoin="miter" d="M 968.480702 953.107187 L 983.317274 954.030657 C 983.317274 954.030657 990.581607 953.751336 996.819582 961.338612 C 1003.057557 968.931588 1008.999028 979.021353 1008.999028 979.021353 C 1008.999028 979.021353 1014.387407 993.380742 995.787522 982.920449 C 995.787522 982.920449 998.530178 1000.882511 988.397746 1001.908589 C 988.397746 1001.908589 984.68005 1001.840184 982.467678 1000.791304 C 982.467678 1000.791304 978.607432 1020.942333 970.100066 1013.822493 C 970.100066 1013.822493 975.539763 997.371045 968.172794 992.708091 C 960.800124 988.050838 951.112446 990.410817 951.112446 990.410817 " stroke="#603913" stroke-width="1" stroke-opacity="1" stroke-miterlimit="10"/><path stroke-linecap="butt" transform="matrix(0.685068, 0, 0, 0.685255, -343.901006, -122.984782)" fill-opacity="1" fill="#be9e7d" fill-rule="nonzero" stroke-linejoin="miter" d="M 995.798926 982.920449 C 995.798926 982.920449 989.509633 966.149777 983.682202 963.077244 C 977.849068 960.010411 967.231966 957.639031 967.231966 957.639031 " stroke="#603913" stroke-width="1" stroke-opacity="1" stroke-miterlimit="10"/><path stroke-linecap="butt" transform="matrix(0.685068, 0, 0, 0.685255, -343.901006, -122.984782)" fill-opacity="1" fill="#be9e7d" fill-rule="nonzero" stroke-linejoin="miter" d="M 982.479082 1000.791304 C 982.479082 1000.791304 981.047883 978.639424 965.54988 973.058701 " stroke="#603913" stroke-width="1" stroke-opacity="1" stroke-miterlimit="10"/><path stroke-linecap="butt" transform="matrix(0.685068, 0, 0, 0.685255, -343.901006, -122.984782)" fill="none" stroke-linejoin="miter" d="M 699.557844 883.852634 C 699.557844 883.852634 683.022078 886.360825 677.998627 902.310634 " stroke="#754c29" stroke-width="1" stroke-opacity="1" stroke-miterlimit="10"/><path fill="#f05380" d="M 73.53125 366.808594 C 73.53125 366.808594 79.339844 396.515625 128.21875 421.566406 L 131.28125 397.746094 C 131.28125 397.746094 99.25 385.34375 80.167969 348.828125 Z M 73.53125 366.808594 " fill-opacity="1" fill-rule="nonzero"/><path stroke-linecap="butt" transform="matrix(0.685068, 0, 0, 0.685255, -343.901006, -122.984782)" fill="none" stroke-linejoin="miter" d="M 619.387893 694.74079 L 617.420707 715.182541 L 627.102683 711.539964 L 625.31796 729.27971 L 636.271479 723.260053 L 635.689876 743.240069 L 646.238554 736.479356 L 645.679759 756.8299 L 657.477172 747.310178 L 656.912676 767.672122 L 670.637361 759.08157 L 669.542579 778.041208 L 676.920951 771.46861 " stroke="#ffffff" stroke-width="0.5" stroke-opacity="1" stroke-miterlimit="10"/><path stroke-linecap="butt" transform="matrix(0.685068, 0, 0, 0.685255, -343.901006, -122.984782)" fill="none" stroke-linejoin="miter" d="M 613.138514 708.530136 L 624.838993 703.240135 L 620.687946 722.650107 L 632.702035 716.579147 L 629.1611 734.4215 L 641.58003 729.467824 L 639.550122 748.758087 L 652.208536 741.877665 L 649.979058 763.858533 L 664.479214 753.660459 L 663.258988 773.429559 L 677.052097 763.761625 " stroke="#ffffff" stroke-width="0.5" stroke-opacity="1" stroke-miterlimit="10"/><path fill="#231f20" d="M 316.941406 293.007812 C 324.910156 268.425781 329.117188 234.5625 329.117188 234.5625 C 357.457031 157.140625 340.695312 125.425781 340.695312 125.425781 C 298.769531 65.652344 245.339844 91.652344 245.339844 91.652344 C 231.980469 92.742188 198.445312 103.839844 188.136719 143.585938 C 177.832031 183.332031 170.558594 194.171875 160.191406 221.261719 C 160.191406 221.261719 120.902344 299.535156 120.429688 397.5 C 120.355469 412.40625 104.703125 442.589844 104.703125 442.589844 C 104.703125 442.589844 156.609375 463.550781 205.167969 323.246094 C 219.746094 281.117188 214.210938 204.746094 214.210938 204.746094 C 199.851562 207.320312 197.027344 197.585938 197.027344 197.585938 C 197.027344 197.585938 192.21875 184.304688 198.277344 171.777344 C 204.425781 159.050781 216.808594 176.109375 216.808594 176.109375 C 237.285156 127.011719 264.550781 117.027344 264.550781 117.027344 C 310.042969 151.453125 332.910156 151.160156 332.910156 151.160156 C 332.910156 151.160156 335.363281 163.128906 333.773438 172.347656 C 332.1875 181.5625 328.617188 189.082031 328.617188 189.082031 C 324.699219 194.632812 325.398438 201.8125 325.398438 201.8125 C 327.988281 216.066406 318.085938 229.621094 318.085938 229.621094 C 294.933594 264.929688 276.132812 264.480469 276.132812 264.480469 C 273.351562 277.148438 283.332031 282.691406 283.332031 282.691406 " fill-opacity="1" fill-rule="nonzero"/><path stroke-linecap="butt" transform="matrix(0.156087, -0.667232, 0.66705, 0.156129, -246.306211, 668.539605)" fill="none" stroke-linejoin="miter" d="M 815.372916 487.721245 C 815.371751 488.71704 815.268433 489.701602 815.062961 490.674931 C 814.864339 491.652514 814.563917 492.595357 814.165593 493.520116 C 813.76597 494.439324 813.278601 495.308791 812.699234 496.13537 C 812.119867 496.961949 811.468106 497.729339 810.731551 498.434586 C 809.993697 499.134282 809.193251 499.76664 808.331866 500.313705 C 807.46623 500.86762 806.550755 501.333646 805.592292 501.716034 C 804.633829 502.098422 803.640881 502.383472 802.621596 502.580988 C 801.601011 502.772952 800.569442 502.867935 799.528188 502.871487 C 798.491185 502.868189 797.462447 502.775116 796.439376 502.581165 C 795.421856 502.385916 794.429253 502.096995 793.468416 501.718658 C 792.50628 501.334768 791.59516 500.868669 790.728207 500.316107 C 789.866804 499.762246 789.064566 499.13598 788.332595 498.434712 C 787.593774 497.729192 786.934666 496.964026 786.360824 496.137917 C 785.780131 495.307554 785.29545 494.437158 784.893082 493.51822 C 784.496264 492.597984 784.198056 491.648817 783.994206 490.677571 C 783.789057 489.700773 783.687715 488.717253 783.68888 487.721458 C 783.690045 486.725664 783.793364 485.741102 783.991986 484.76352 C 784.197458 483.79019 784.49658 482.841795 784.896203 481.922588 C 785.295826 481.00338 785.781896 480.12836 786.361263 479.301782 C 786.93508 478.476502 787.59369 477.713365 788.330245 477.008117 C 789.0668 476.30287 789.862995 475.677363 790.728631 475.123447 C 791.594268 474.569531 792.509742 474.103506 793.468205 473.721118 C 794.427967 473.344281 795.419616 473.05368 796.440201 472.861716 C 797.459486 472.664199 798.491055 472.569217 799.528058 472.572516 C 800.569313 472.568963 801.599349 472.667588 802.62242 472.861539 C 803.63994 473.056788 804.631245 473.340156 805.593381 473.724046 C 806.554218 474.102384 807.465337 474.568483 808.332291 475.121045 C 809.193693 475.674906 809.995931 476.301172 810.729202 477.007991 C 811.466724 477.70796 812.120281 478.474425 812.700973 479.304787 C 813.280366 480.129597 813.766346 481.005546 814.161865 481.92023 C 814.564234 482.839168 814.862442 483.788334 815.06759 484.765133 C 815.265889 485.737677 815.368531 486.72675 815.372916 487.721245 Z M 815.372916 487.721245 " stroke="#fff200" stroke-width="0.5" stroke-opacity="1" stroke-miterlimit="10"/><path stroke-linecap="butt" transform="matrix(0.685068, 0, 0, 0.685255, -343.901006, -122.984782)" fill="none" stroke-linejoin="miter" d="M 795.92144 503.137857 L 784.249471 553.022341 " stroke="#fff200" stroke-width="0.5" stroke-opacity="1" stroke-miterlimit="10"/><path stroke-linecap="butt" transform="matrix(0.685068, 0, 0, 0.685255, -343.901006, -122.984782)" fill="none" stroke-linejoin="miter" d="M 785.977173 495.242758 L 779.739198 521.89798 " stroke="#fff200" stroke-width="0.5" stroke-opacity="1" stroke-miterlimit="10"/><path stroke-linecap="butt" transform="matrix(0.685068, 0, 0, 0.685255, -343.901006, -122.984782)" fill="none" stroke-linejoin="miter" d="M 789.027737 499.398373 L 780.930914 534.0285 " stroke="#fff200" stroke-width="0.5" stroke-opacity="1" stroke-miterlimit="10"/><path stroke-linecap="butt" transform="matrix(0.685068, 0, 0, 0.685255, -343.901006, -122.984782)" fill="none" stroke-linejoin="miter" d="M 792.329188 501.701348 L 782.487556 543.770539 " stroke="#fff200" stroke-width="0.5" stroke-opacity="1" stroke-miterlimit="10"/><path stroke-linecap="butt" transform="matrix(0.685068, 0, 0, 0.685255, -343.901006, -122.984782)" fill="none" stroke-linejoin="miter" d="M 803.801587 502.852835 L 795.699063 537.488663 " stroke="#fff200" stroke-width="0.5" stroke-opacity="1" stroke-miterlimit="10"/><path stroke-linecap="butt" transform="matrix(0.685068, 0, 0, 0.685255, -343.901006, -122.984782)" fill="none" stroke-linejoin="miter" d="M 799.8216 503.451381 L 789.968565 545.520572 " stroke="#fff200" stroke-width="0.5" stroke-opacity="1" stroke-miterlimit="10"/><path stroke-linecap="butt" transform="matrix(0.685068, 0, 0, 0.685255, -343.901006, -122.984782)" fill="none" stroke-linejoin="miter" d="M 808.500026 500.509958 L 802.262051 527.17088 " stroke="#fff200" stroke-width="0.5" stroke-opacity="1" stroke-miterlimit="10"/><g clip-path="url(#caabe481e2)"><g clip-path="url(#ad17b8b95b)"><path stroke-linecap="butt" transform="matrix(0.156087, -0.667232, 0.66705, 0.156129, -184.040368, 786.53369)" fill="none" stroke-linejoin="miter" d="M 969.389774 516.501848 C 969.388609 517.497642 969.290841 518.480905 969.085369 519.454235 C 968.881197 520.433116 968.582074 521.381511 968.182451 522.300719 C 967.788379 523.218627 967.295459 524.089394 966.721643 524.914674 C 966.142276 525.741252 965.484964 526.509941 964.748409 527.215189 C 964.016106 527.913586 963.21566 528.545943 962.348724 529.094307 C 961.483088 529.648223 960.574463 530.118501 959.60915 530.496636 C 958.650688 530.879025 957.657739 531.164074 956.638454 531.361591 C 955.617869 531.553555 954.591851 531.647238 953.550596 531.650791 C 952.508043 531.648791 951.479305 531.555718 950.461785 531.360469 C 949.438714 531.166518 948.446111 530.877598 947.490824 530.497961 C 946.528688 530.114072 945.612018 529.649271 944.750615 529.09541 C 943.883662 528.542848 943.086975 527.915284 942.349453 527.215315 C 941.616182 526.508495 940.957075 525.74333 940.377682 524.918519 C 939.80254 524.086858 939.312308 523.21776 938.91549 522.297524 C 938.518672 521.377288 938.214914 520.42942 938.016615 519.456875 C 937.811466 518.480077 937.710124 517.496557 937.711289 516.500762 C 937.712454 515.504968 937.810222 514.521704 938.014395 513.542823 C 938.219866 512.569494 938.518989 511.621099 938.913061 510.70319 C 939.312684 509.783982 939.798754 508.908963 940.378121 508.082384 C 940.957488 507.255806 941.616099 506.492669 942.347103 505.78872 C 943.083658 505.083472 943.885403 504.456667 944.75104 503.902751 C 945.616676 503.348835 946.5266 502.884108 947.485063 502.50172 C 948.450376 502.123585 949.436474 501.834282 950.457059 501.642318 C 951.477643 501.450354 952.507913 501.34982 953.550467 501.351819 C 954.591721 501.348267 955.621758 501.446891 956.639278 501.642141 C 957.662349 501.836092 958.648103 502.120759 959.610239 502.504648 C 960.571076 502.882986 961.482195 503.349085 962.349149 503.901648 C 963.216102 504.45421 964.012789 505.081774 964.75161 505.787295 C 965.483582 506.488563 966.142689 507.253728 966.723381 508.084091 C 967.297224 508.9102 967.788755 509.78485 968.184274 510.699534 C 968.581092 511.61977 968.88485 512.567638 969.084448 513.545735 C 969.289597 514.522533 969.390939 515.506053 969.389774 516.501848 Z M 969.389774 516.501848 " stroke="#fff200" stroke-width="0.5" stroke-opacity="1" stroke-miterlimit="10"/></g></g><g clip-path="url(#76cd293090)"><g clip-path="url(#edd99b4030)"><path stroke-linecap="butt" transform="matrix(0.685068, 0, 0, 0.685255, -343.901006, -122.984782)" fill="none" stroke-linejoin="miter" d="M 949.937837 531.930741 L 938.271569 581.809524 " stroke="#fff200" stroke-width="0.5" stroke-opacity="1" stroke-miterlimit="10"/></g></g><g clip-path="url(#996d8a419c)"><g clip-path="url(#884d3c8b6d)"><path stroke-linecap="butt" transform="matrix(0.685068, 0, 0, 0.685255, -343.901006, -122.984782)" fill="none" stroke-linejoin="miter" d="M 939.109762 545.041735 L 934.941609 562.821384 " stroke="#fff200" stroke-width="0.5" stroke-opacity="1" stroke-miterlimit="10"/></g></g><g clip-path="url(#5de22e649b)"><g clip-path="url(#2ac8d3633c)"><path stroke-linecap="butt" transform="matrix(0.685068, 0, 0, 0.685255, -343.901006, -122.984782)" fill="none" stroke-linejoin="miter" d="M 946.351286 530.488532 L 936.509655 572.552022 " stroke="#fff200" stroke-width="0.5" stroke-opacity="1" stroke-miterlimit="10"/></g></g><g clip-path="url(#2267195f14)"><g clip-path="url(#9243f04e43)"><path stroke-linecap="butt" transform="matrix(0.685068, 0, 0, 0.685255, -343.901006, -122.984782)" fill="none" stroke-linejoin="miter" d="M 957.817984 531.640019 L 949.721161 566.270146 " stroke="#fff200" stroke-width="0.5" stroke-opacity="1" stroke-miterlimit="10"/></g></g><g clip-path="url(#2a517bba1e)"><g clip-path="url(#46c5890383)"><path stroke-linecap="butt" transform="matrix(0.685068, 0, 0, 0.685255, -343.901006, -122.984782)" fill="none" stroke-linejoin="miter" d="M 953.837997 532.238564 L 943.990663 574.307755 " stroke="#fff200" stroke-width="0.5" stroke-opacity="1" stroke-miterlimit="10"/></g></g><g clip-path="url(#a1cf650620)"><g clip-path="url(#e817332857)"><path stroke-linecap="butt" transform="matrix(0.685068, 0, 0, 0.685255, -343.901006, -122.984782)" fill="none" stroke-linejoin="miter" d="M 962.522124 529.291441 L 956.278447 555.952363 " stroke="#fff200" stroke-width="0.5" stroke-opacity="1" stroke-miterlimit="10"/></g></g></svg>