<svg xmlns="http://www.w3.org/2000/svg" xmlns:xlink="http://www.w3.org/1999/xlink" width="1200" zoomAndPan="magnify" viewBox="0 0 900 675.000002" height="900" preserveAspectRatio="xMidYMid meet" version="1.0"><defs><clipPath id="66ab13fdf8"><path d="M 0.664062 0 L 899.332031 0 L 899.332031 674 L 0.664062 674 Z M 0.664062 0 " clip-rule="nonzero"/></clipPath><clipPath id="5f8e505bf9"><path d="M 354 572 L 421 572 L 421 674 L 354 674 Z M 354 572 " clip-rule="nonzero"/></clipPath><clipPath id="0fb37e6f1c"><path d="M 0.664062 186 L 817 186 L 817 575 L 0.664062 575 Z M 0.664062 186 " clip-rule="nonzero"/></clipPath><clipPath id="516f8c0c0c"><path d="M 809 406 L 899.332031 406 L 899.332031 601 L 809 601 Z M 809 406 " clip-rule="nonzero"/></clipPath><clipPath id="d13e9d1c00"><path d="M 0.664062 573 L 384 573 L 384 674 L 0.664062 674 Z M 0.664062 573 " clip-rule="nonzero"/></clipPath><clipPath id="054c32ae21"><path d="M 0.664062 563 L 394 563 L 394 674 L 0.664062 674 Z M 0.664062 563 " clip-rule="nonzero"/></clipPath><clipPath id="ad1a88f75c"><path d="M 384 573 L 899.332031 573 L 899.332031 674 L 384 674 Z M 384 573 " clip-rule="nonzero"/></clipPath><clipPath id="87a2cc44f1"><path d="M 374 563 L 899.332031 563 L 899.332031 674 L 374 674 Z M 374 563 " clip-rule="nonzero"/></clipPath><clipPath id="197a50a8bc"><path d="M 334 169.859375 L 821 169.859375 L 821 606 L 334 606 Z M 334 169.859375 " clip-rule="nonzero"/></clipPath><clipPath id="32e70eefbe"><path d="M 0.664062 169.859375 L 430 169.859375 L 430 611 L 0.664062 611 Z M 0.664062 169.859375 " clip-rule="nonzero"/></clipPath><clipPath id="451b41a3a3"><path d="M 123 469 L 488 469 L 488 674 L 123 674 Z M 123 469 " clip-rule="nonzero"/></clipPath><clipPath id="73f658d21e"><path d="M 303 505 L 428 505 L 428 674 L 303 674 Z M 303 505 " clip-rule="nonzero"/></clipPath><clipPath id="5931ee54b1"><path d="M 479 553 L 534 553 L 534 674 L 479 674 Z M 479 553 " clip-rule="nonzero"/></clipPath><clipPath id="4416a3bd69"><path d="M 442 664 L 549 664 L 549 674 L 442 674 Z M 442 664 " clip-rule="nonzero"/></clipPath><clipPath id="11f2378217"><path d="M 524 563 L 584 563 L 584 674 L 524 674 Z M 524 563 " clip-rule="nonzero"/></clipPath></defs><g clip-path="url(#66ab13fdf8)"><path fill="#ffffff" d="M 0.664062 0 L 899.335938 0 L 899.335938 674 L 0.664062 674 Z M 0.664062 0 " fill-opacity="1" fill-rule="nonzero"/><path fill="#ffffff" d="M 0.664062 0 L 899.335938 0 L 899.335938 674 L 0.664062 674 Z M 0.664062 0 " fill-opacity="1" fill-rule="nonzero"/><rect x="-90" width="1080" fill="#b1dcc4" y="-67.5" height="810.000002" fill-opacity="1"/></g><g clip-path="url(#5f8e505bf9)"><path fill="#444848" d="M 354.308594 572.5625 L 420.417969 572.5625 L 420.417969 678.253906 L 354.308594 678.253906 Z M 354.308594 572.5625 " fill-opacity="1" fill-rule="nonzero"/></g><g clip-path="url(#0fb37e6f1c)"><path fill="#727b78" d="M 768.484375 206.585938 C 768.484375 206.585938 817.253906 212.589844 816.546875 253.035156 L 798.960938 405.554688 L 798.960938 574.800781 L -12.835938 574.800781 L -40.039062 406.558594 L -52.429688 253.492188 C -52.429688 253.492188 -56.722656 206.089844 26.152344 200.425781 C 26.152344 200.425781 374.417969 165.246094 768.476562 206.59375 Z M 768.484375 206.585938 " fill-opacity="1" fill-rule="nonzero"/></g><path fill="#444848" d="M 850.15625 406.449219 L 802.148438 406.449219 C 802.148438 406.449219 776.53125 414.507812 776.53125 443.074219 L 776.53125 573.191406 L 858.671875 573.191406 Z M 850.15625 406.449219 " fill-opacity="1" fill-rule="nonzero"/><g clip-path="url(#516f8c0c0c)"><path fill="#727b78" d="M 820.199219 406.449219 L 895.542969 406.449219 C 896.25 406.449219 896.953125 406.519531 897.644531 406.65625 C 898.339844 406.796875 899.011719 407 899.667969 407.269531 C 900.320312 407.539062 900.941406 407.871094 901.527344 408.265625 C 902.117188 408.65625 902.660156 409.105469 903.160156 409.605469 C 903.660156 410.105469 904.109375 410.648438 904.5 411.234375 C 904.894531 411.824219 905.226562 412.445312 905.496094 413.097656 C 905.769531 413.75 905.972656 414.425781 906.109375 415.117188 C 906.25 415.8125 906.316406 416.511719 906.316406 417.21875 L 906.316406 590.007812 C 906.316406 590.714844 906.25 591.417969 906.109375 592.109375 C 905.972656 592.804688 905.769531 593.476562 905.496094 594.128906 C 905.226562 594.785156 904.894531 595.40625 904.5 595.992188 C 904.109375 596.582031 903.660156 597.125 903.160156 597.625 C 902.660156 598.125 902.117188 598.570312 901.527344 598.964844 C 900.941406 599.355469 900.320312 599.6875 899.667969 599.957031 C 899.011719 600.230469 898.339844 600.433594 897.644531 600.570312 C 896.953125 600.710938 896.25 600.777344 895.542969 600.777344 L 820.199219 600.777344 C 819.492188 600.777344 818.792969 600.710938 818.097656 600.570312 C 817.40625 600.433594 816.730469 600.230469 816.078125 599.957031 C 815.421875 599.6875 814.804688 599.355469 814.214844 598.964844 C 813.625 598.570312 813.082031 598.125 812.582031 597.625 C 812.082031 597.125 811.636719 596.582031 811.242188 595.992188 C 810.847656 595.40625 810.515625 594.785156 810.246094 594.128906 C 809.976562 593.476562 809.769531 592.804688 809.632812 592.109375 C 809.496094 591.417969 809.425781 590.714844 809.425781 590.007812 L 809.425781 417.21875 C 809.425781 416.511719 809.496094 415.8125 809.632812 415.117188 C 809.769531 414.425781 809.976562 413.75 810.246094 413.097656 C 810.515625 412.445312 810.847656 411.824219 811.242188 411.234375 C 811.636719 410.648438 812.082031 410.105469 812.582031 409.605469 C 813.082031 409.105469 813.625 408.65625 814.214844 408.265625 C 814.804688 407.871094 815.421875 407.539062 816.078125 407.269531 C 816.730469 407 817.40625 406.796875 818.097656 406.65625 C 818.792969 406.519531 819.492188 406.449219 820.199219 406.449219 Z M 820.199219 406.449219 " fill-opacity="1" fill-rule="nonzero"/></g><g clip-path="url(#d13e9d1c00)"><path fill="#727b78" d="M -119.621094 573.367188 L 358.113281 573.367188 C 358.945312 573.367188 359.777344 573.410156 360.605469 573.492188 C 361.433594 573.574219 362.253906 573.695312 363.070312 573.855469 C 363.886719 574.019531 364.695312 574.222656 365.492188 574.460938 C 366.289062 574.703125 367.070312 574.984375 367.839844 575.304688 C 368.609375 575.621094 369.363281 575.976562 370.097656 576.367188 C 370.832031 576.761719 371.542969 577.1875 372.234375 577.652344 C 372.929688 578.113281 373.597656 578.609375 374.238281 579.136719 C 374.882812 579.664062 375.5 580.222656 376.089844 580.8125 C 376.675781 581.398438 377.234375 582.015625 377.761719 582.65625 C 378.292969 583.300781 378.785156 583.96875 379.25 584.660156 C 379.710938 585.351562 380.140625 586.066406 380.53125 586.800781 C 380.925781 587.535156 381.28125 588.285156 381.597656 589.054688 C 381.917969 589.824219 382.199219 590.605469 382.4375 591.402344 C 382.679688 592.199219 382.882812 593.003906 383.046875 593.820312 C 383.207031 594.636719 383.328125 595.457031 383.410156 596.285156 C 383.492188 597.113281 383.535156 597.945312 383.535156 598.777344 L 383.535156 652.851562 C 383.535156 653.6875 383.492188 654.515625 383.410156 655.34375 C 383.328125 656.171875 383.207031 656.996094 383.046875 657.808594 C 382.882812 658.625 382.679688 659.433594 382.4375 660.230469 C 382.199219 661.023438 381.917969 661.808594 381.597656 662.578125 C 381.28125 663.34375 380.925781 664.097656 380.53125 664.832031 C 380.140625 665.566406 379.710938 666.277344 379.25 666.96875 C 378.785156 667.660156 378.292969 668.328125 377.761719 668.972656 C 377.234375 669.617188 376.675781 670.230469 376.089844 670.820312 C 375.5 671.410156 374.882812 671.964844 374.238281 672.496094 C 373.597656 673.023438 372.929688 673.515625 372.234375 673.980469 C 371.542969 674.441406 370.832031 674.871094 370.097656 675.261719 C 369.363281 675.652344 368.609375 676.007812 367.839844 676.328125 C 367.070312 676.644531 366.289062 676.925781 365.492188 677.167969 C 364.695312 677.410156 363.886719 677.609375 363.070312 677.773438 C 362.253906 677.9375 361.433594 678.058594 360.605469 678.140625 C 359.777344 678.222656 358.945312 678.261719 358.113281 678.261719 L -119.621094 678.261719 C -120.453125 678.261719 -121.285156 678.222656 -122.113281 678.140625 C -122.941406 678.058594 -123.765625 677.9375 -124.582031 677.773438 C -125.398438 677.609375 -126.203125 677.410156 -127 677.167969 C -127.796875 676.925781 -128.578125 676.644531 -129.347656 676.328125 C -130.117188 676.007812 -130.871094 675.652344 -131.605469 675.261719 C -132.339844 674.871094 -133.050781 674.441406 -133.746094 673.980469 C -134.4375 673.515625 -135.105469 673.023438 -135.75 672.496094 C -136.390625 671.964844 -137.007812 671.410156 -137.597656 670.820312 C -138.183594 670.230469 -138.742188 669.617188 -139.273438 668.972656 C -139.800781 668.328125 -140.296875 667.660156 -140.757812 666.96875 C -141.21875 666.277344 -141.648438 665.566406 -142.039062 664.832031 C -142.433594 664.097656 -142.789062 663.34375 -143.105469 662.578125 C -143.425781 661.808594 -143.707031 661.023438 -143.949219 660.230469 C -144.191406 659.433594 -144.390625 658.625 -144.554688 657.808594 C -144.714844 656.996094 -144.839844 656.171875 -144.921875 655.34375 C -145 654.515625 -145.042969 653.6875 -145.042969 652.851562 L -145.042969 598.777344 C -145.042969 597.945312 -145 597.113281 -144.921875 596.285156 C -144.839844 595.457031 -144.714844 594.636719 -144.554688 593.820312 C -144.390625 593.003906 -144.191406 592.199219 -143.949219 591.402344 C -143.707031 590.605469 -143.425781 589.824219 -143.105469 589.054688 C -142.789062 588.285156 -142.433594 587.535156 -142.039062 586.800781 C -141.648438 586.066406 -141.21875 585.351562 -140.757812 584.660156 C -140.296875 583.96875 -139.800781 583.300781 -139.273438 582.65625 C -138.742188 582.015625 -138.183594 581.398438 -137.597656 580.8125 C -137.007812 580.222656 -136.390625 579.664062 -135.75 579.136719 C -135.105469 578.609375 -134.4375 578.113281 -133.746094 577.652344 C -133.050781 577.1875 -132.339844 576.761719 -131.605469 576.367188 C -130.871094 575.976562 -130.117188 575.621094 -129.347656 575.304688 C -128.578125 574.984375 -127.796875 574.703125 -127 574.460938 C -126.203125 574.222656 -125.398438 574.019531 -124.582031 573.855469 C -123.765625 573.695312 -122.941406 573.574219 -122.113281 573.492188 C -121.285156 573.410156 -120.453125 573.367188 -119.621094 573.367188 Z M -119.621094 573.367188 " fill-opacity="1" fill-rule="nonzero"/></g><g clip-path="url(#054c32ae21)"><path stroke-linecap="butt" transform="matrix(0.688, 0, 0, 0.687644, -145.386443, -7.188174)" fill="none" stroke-linejoin="miter" d="M 37.449654 844.267815 L 731.83135 844.267815 C 733.040698 844.267815 734.250046 844.330302 735.453717 844.449595 C 736.657388 844.568888 737.849703 844.744988 739.03634 844.977894 C 740.222978 845.21648 741.39826 845.511873 742.556509 845.858392 C 743.714758 846.210591 744.850297 846.619596 745.968802 847.085408 C 747.087307 847.545539 748.183102 848.062477 749.250508 848.63054 C 750.317914 849.204284 751.351254 849.823473 752.356205 850.499468 C 753.366834 851.169782 754.33772 851.891222 755.268861 852.658108 C 756.20568 853.424993 757.102755 854.237323 757.960087 855.095099 C 758.811741 855.947193 759.623651 856.844733 760.390139 857.776357 C 761.162305 858.713661 761.877694 859.685049 762.553339 860.690521 C 763.223307 861.695993 763.847853 862.735548 764.415622 863.803507 C 764.989069 864.871466 765.505739 865.962147 765.965632 867.081231 C 766.431203 868.200316 766.839997 869.336442 767.186336 870.495291 C 767.538353 871.65414 767.833593 872.82435 768.072056 874.011602 C 768.304841 875.198854 768.48085 876.391787 768.600081 877.596081 C 768.719313 878.800374 768.781767 880.010349 768.781767 881.220324 L 768.781767 959.857307 C 768.781767 961.072962 768.719313 962.277256 768.600081 963.48155 C 768.48085 964.685844 768.304841 965.884457 768.072056 967.066029 C 767.833593 968.253281 767.538353 969.429172 767.186336 970.58802 C 766.839997 971.741189 766.431203 972.882996 765.965632 974.00208 C 765.505739 975.115484 764.989069 976.211846 764.415622 977.279805 C 763.847853 978.347763 763.223307 979.381638 762.553339 980.38711 C 761.877694 981.392582 761.162305 982.36397 760.390139 983.301274 C 759.623651 984.238578 758.811741 985.130437 757.960087 985.988213 C 757.102755 986.845988 756.20568 987.652638 755.268861 988.425204 C 754.33772 989.192089 753.366834 989.907849 752.356205 990.583844 C 751.351254 991.254158 750.317914 991.879028 749.250508 992.447091 C 748.183102 993.015154 747.087307 993.532092 745.968802 993.997903 C 744.850297 994.458035 743.714758 994.86704 742.556509 995.219239 C 741.39826 995.571438 740.222978 995.861151 739.03634 996.099737 C 737.849703 996.338324 736.657388 996.514423 735.453717 996.633717 C 734.250046 996.75301 733.040698 996.809816 731.83135 996.809816 L 37.449654 996.809816 C 36.240306 996.809816 35.030957 996.75301 33.827287 996.633717 C 32.623616 996.514423 31.425623 996.338324 30.238986 996.099737 C 29.052348 995.861151 27.882744 995.571438 26.724494 995.219239 C 25.566245 994.86704 24.430707 994.458035 23.312202 993.997903 C 22.193696 993.532092 21.097902 993.015154 20.030496 992.447091 C 18.96309 991.879028 17.92975 991.254158 16.919121 990.583844 C 15.914169 989.907849 14.943284 989.192089 14.006465 988.425204 C 13.075324 987.652638 12.178248 986.845988 11.320917 985.988213 C 10.469263 985.130437 9.657353 984.238578 8.885187 983.301274 C 8.118699 982.36397 7.397632 981.392582 6.727664 980.38711 C 6.057697 979.381638 5.433151 978.347763 4.865381 977.279805 C 4.291935 976.211846 3.775265 975.115484 3.315372 974.00208 C 2.849801 972.882996 2.441007 971.741189 2.08899 970.58802 C 1.736973 969.429172 1.447411 968.253281 1.208948 967.066029 C 0.976163 965.884457 0.794476 964.685844 0.675245 963.48155 C 0.561691 962.277256 0.499236 961.072962 0.499236 959.857307 L 0.499236 881.220324 C 0.499236 880.010349 0.561691 878.800374 0.675245 877.596081 C 0.794476 876.391787 0.976163 875.198854 1.208948 874.011602 C 1.447411 872.82435 1.736973 871.65414 2.08899 870.495291 C 2.441007 869.336442 2.849801 868.200316 3.315372 867.081231 C 3.775265 865.962147 4.291935 864.871466 4.865381 863.803507 C 5.433151 862.735548 6.057697 861.695993 6.727664 860.690521 C 7.397632 859.685049 8.118699 858.713661 8.885187 857.776357 C 9.657353 856.844733 10.469263 855.947193 11.320917 855.095099 C 12.178248 854.237323 13.075324 853.424993 14.006465 852.658108 C 14.943284 851.891222 15.914169 851.169782 16.919121 850.499468 C 17.92975 849.823473 18.96309 849.204284 20.030496 848.63054 C 21.097902 848.062477 22.193696 847.545539 23.312202 847.085408 C 24.430707 846.619596 25.566245 846.210591 26.724494 845.858392 C 27.882744 845.511873 29.052348 845.21648 30.238986 844.977894 C 31.425623 844.744988 32.623616 844.568888 33.827287 844.449595 C 35.030957 844.330302 36.240306 844.267815 37.449654 844.267815 Z M 37.449654 844.267815 " stroke="#414042" stroke-width="1" stroke-opacity="1" stroke-miterlimit="10"/></g><g clip-path="url(#ad1a88f75c)"><path fill="#727b78" d="M 409.710938 573.367188 L 882.15625 573.367188 C 882.988281 573.367188 883.816406 573.410156 884.648438 573.492188 C 885.476562 573.574219 886.296875 573.695312 887.113281 573.855469 C 887.929688 574.019531 888.738281 574.222656 889.535156 574.460938 C 890.332031 574.703125 891.113281 574.984375 891.882812 575.304688 C 892.652344 575.621094 893.402344 575.976562 894.136719 576.367188 C 894.871094 576.761719 895.585938 577.1875 896.277344 577.652344 C 896.96875 578.113281 897.636719 578.609375 898.28125 579.136719 C 898.925781 579.664062 899.542969 580.222656 900.128906 580.8125 C 900.71875 581.398438 901.277344 582.015625 901.804688 582.65625 C 902.335938 583.300781 902.828125 583.96875 903.292969 584.660156 C 903.753906 585.351562 904.183594 586.066406 904.574219 586.800781 C 904.96875 587.535156 905.324219 588.285156 905.640625 589.054688 C 905.960938 589.824219 906.238281 590.605469 906.480469 591.402344 C 906.722656 592.199219 906.925781 593.003906 907.085938 593.820312 C 907.25 594.636719 907.371094 595.457031 907.453125 596.285156 C 907.535156 597.113281 907.578125 597.945312 907.578125 598.777344 L 907.578125 652.851562 C 907.578125 653.6875 907.535156 654.515625 907.453125 655.34375 C 907.371094 656.171875 907.25 656.996094 907.085938 657.808594 C 906.925781 658.625 906.722656 659.433594 906.480469 660.230469 C 906.238281 661.023438 905.960938 661.808594 905.640625 662.578125 C 905.324219 663.34375 904.96875 664.097656 904.574219 664.832031 C 904.183594 665.566406 903.753906 666.277344 903.292969 666.96875 C 902.828125 667.660156 902.335938 668.328125 901.804688 668.972656 C 901.277344 669.617188 900.71875 670.230469 900.128906 670.820312 C 899.542969 671.410156 898.925781 671.964844 898.28125 672.496094 C 897.636719 673.023438 896.96875 673.515625 896.277344 673.980469 C 895.585938 674.441406 894.871094 674.871094 894.136719 675.261719 C 893.402344 675.652344 892.652344 676.007812 891.882812 676.328125 C 891.113281 676.644531 890.332031 676.925781 889.535156 677.167969 C 888.738281 677.410156 887.929688 677.609375 887.113281 677.773438 C 886.296875 677.9375 885.476562 678.058594 884.644531 678.140625 C 883.816406 678.222656 882.988281 678.261719 882.15625 678.261719 L 409.710938 678.261719 C 408.878906 678.261719 408.050781 678.222656 407.21875 678.140625 C 406.390625 678.058594 405.570312 677.9375 404.753906 677.773438 C 403.9375 677.609375 403.128906 677.410156 402.332031 677.167969 C 401.535156 676.925781 400.753906 676.644531 399.984375 676.328125 C 399.214844 676.007812 398.464844 675.652344 397.730469 675.261719 C 396.996094 674.871094 396.28125 674.441406 395.589844 673.980469 C 394.898438 673.515625 394.230469 673.023438 393.585938 672.496094 C 392.941406 671.964844 392.324219 671.410156 391.738281 670.820312 C 391.148438 670.230469 390.589844 669.617188 390.0625 668.972656 C 389.53125 668.328125 389.039062 667.660156 388.574219 666.96875 C 388.113281 666.277344 387.683594 665.566406 387.292969 664.832031 C 386.898438 664.097656 386.542969 663.34375 386.226562 662.578125 C 385.90625 661.808594 385.628906 661.023438 385.386719 660.230469 C 385.144531 659.433594 384.941406 658.625 384.777344 657.808594 C 384.617188 656.996094 384.496094 656.171875 384.414062 655.34375 C 384.332031 654.515625 384.289062 653.6875 384.289062 652.851562 L 384.289062 598.777344 C 384.289062 597.945312 384.332031 597.113281 384.414062 596.285156 C 384.496094 595.457031 384.617188 594.636719 384.777344 593.820312 C 384.941406 593.003906 385.144531 592.199219 385.386719 591.402344 C 385.628906 590.605469 385.90625 589.824219 386.226562 589.054688 C 386.542969 588.285156 386.898438 587.535156 387.292969 586.800781 C 387.683594 586.066406 388.113281 585.351562 388.574219 584.660156 C 389.039062 583.96875 389.53125 583.300781 390.0625 582.65625 C 390.589844 582.015625 391.148438 581.398438 391.738281 580.8125 C 392.324219 580.222656 392.941406 579.664062 393.585938 579.136719 C 394.230469 578.609375 394.898438 578.113281 395.589844 577.652344 C 396.28125 577.1875 396.996094 576.761719 397.730469 576.367188 C 398.464844 575.976562 399.214844 575.621094 399.984375 575.304688 C 400.753906 574.984375 401.535156 574.703125 402.332031 574.460938 C 403.128906 574.222656 403.9375 574.019531 404.753906 573.855469 C 405.570312 573.695312 406.390625 573.574219 407.21875 573.492188 C 408.050781 573.410156 408.878906 573.367188 409.710938 573.367188 Z M 409.710938 573.367188 " fill-opacity="1" fill-rule="nonzero"/></g><g clip-path="url(#87a2cc44f1)"><path stroke-linecap="butt" transform="matrix(0.688, 0, 0, 0.687644, -145.386443, -7.188174)" fill="none" stroke-linejoin="miter" d="M 806.827979 844.267815 L 1493.52208 844.267815 C 1494.731429 844.267815 1495.935099 844.330302 1497.144448 844.449595 C 1498.348118 844.568888 1499.540434 844.744988 1500.727071 844.977894 C 1501.913709 845.21648 1503.088991 845.511873 1504.24724 845.858392 C 1505.405489 846.210591 1506.541027 846.619596 1507.659533 847.085408 C 1508.778038 847.545539 1509.868155 848.062477 1510.935561 848.63054 C 1512.002967 849.204284 1513.041984 849.823473 1514.046936 850.499468 C 1515.051887 851.169782 1516.022773 851.891222 1516.959592 852.658108 C 1517.896411 853.424993 1518.793486 854.237323 1519.64514 855.095099 C 1520.502471 855.947193 1521.314381 856.844733 1522.08087 857.776357 C 1522.853036 858.713661 1523.568425 859.685049 1524.24407 860.690521 C 1524.914038 861.695993 1525.538584 862.735548 1526.106353 863.803507 C 1526.6798 864.871466 1527.19647 865.962147 1527.656363 867.081231 C 1528.121934 868.200316 1528.52505 869.336442 1528.877067 870.495291 C 1529.229083 871.65414 1529.524323 872.82435 1529.757109 874.011602 C 1529.995572 875.198854 1530.17158 876.391787 1530.290812 877.596081 C 1530.410043 878.800374 1530.472498 880.010349 1530.472498 881.220324 L 1530.472498 959.857307 C 1530.472498 961.072962 1530.410043 962.277256 1530.290812 963.48155 C 1530.17158 964.685844 1529.995572 965.884457 1529.757109 967.066029 C 1529.524323 968.253281 1529.229083 969.429172 1528.877067 970.58802 C 1528.52505 971.741189 1528.121934 972.882996 1527.656363 974.00208 C 1527.19647 975.115484 1526.6798 976.211846 1526.106353 977.279805 C 1525.538584 978.347763 1524.914038 979.381638 1524.24407 980.38711 C 1523.568425 981.392582 1522.853036 982.36397 1522.08087 983.301274 C 1521.314381 984.238578 1520.502471 985.130437 1519.64514 985.988213 C 1518.793486 986.845988 1517.896411 987.652638 1516.959592 988.425204 C 1516.022773 989.192089 1515.051887 989.907849 1514.046936 990.583844 C 1513.041984 991.254158 1512.002967 991.879028 1510.935561 992.447091 C 1509.868155 993.015154 1508.778038 993.532092 1507.659533 993.997903 C 1506.541027 994.458035 1505.405489 994.86704 1504.24724 995.219239 C 1503.088991 995.571438 1501.913709 995.861151 1500.727071 996.099737 C 1499.540434 996.338324 1498.348118 996.514423 1497.13877 996.633717 C 1495.935099 996.75301 1494.731429 996.809816 1493.52208 996.809816 L 806.827979 996.809816 C 805.618631 996.809816 804.41496 996.75301 803.205612 996.633717 C 802.001941 996.514423 800.809626 996.338324 799.622989 996.099737 C 798.436351 995.861151 797.261069 995.571438 796.10282 995.219239 C 794.944571 994.86704 793.809032 994.458035 792.690527 993.997903 C 791.572022 993.532092 790.481905 993.015154 789.414499 992.447091 C 788.347093 991.879028 787.308075 991.254158 786.303124 990.583844 C 785.298172 989.907849 784.327287 989.192089 783.390468 988.425204 C 782.453649 987.652638 781.556574 986.845988 780.70492 985.988213 C 779.847588 985.130437 779.035678 984.238578 778.26919 983.301274 C 777.497024 982.36397 776.781635 981.392582 776.10599 980.38711 C 775.436022 979.381638 774.811476 978.347763 774.243707 977.279805 C 773.67026 976.211846 773.15359 975.115484 772.693697 974.00208 C 772.228126 972.882996 771.82501 971.741189 771.472993 970.58802 C 771.120976 969.429172 770.825736 968.253281 770.587273 967.066029 C 770.354488 965.884457 770.178479 964.685844 770.059248 963.48155 C 769.940016 962.277256 769.877562 961.072962 769.877562 959.857307 L 769.877562 881.220324 C 769.877562 880.010349 769.940016 878.800374 770.059248 877.596081 C 770.178479 876.391787 770.354488 875.198854 770.587273 874.011602 C 770.825736 872.82435 771.120976 871.65414 771.472993 870.495291 C 771.82501 869.336442 772.228126 868.200316 772.693697 867.081231 C 773.15359 865.962147 773.67026 864.871466 774.243707 863.803507 C 774.811476 862.735548 775.436022 861.695993 776.10599 860.690521 C 776.781635 859.685049 777.497024 858.713661 778.26919 857.776357 C 779.035678 856.844733 779.847588 855.947193 780.70492 855.095099 C 781.556574 854.237323 782.453649 853.424993 783.390468 852.658108 C 784.327287 851.891222 785.298172 851.169782 786.303124 850.499468 C 787.308075 849.823473 788.347093 849.204284 789.414499 848.63054 C 790.481905 848.062477 791.572022 847.545539 792.690527 847.085408 C 793.809032 846.619596 794.944571 846.210591 796.10282 845.858392 C 797.261069 845.511873 798.436351 845.21648 799.622989 844.977894 C 800.809626 844.744988 802.001941 844.568888 803.205612 844.449595 C 804.41496 844.330302 805.618631 844.267815 806.827979 844.267815 Z M 806.827979 844.267815 " stroke="#414042" stroke-width="1" stroke-opacity="1" stroke-miterlimit="10"/></g><path stroke-linecap="butt" transform="matrix(0.688, 0, 0, 0.687644, -145.386443, -7.188174)" fill="none" stroke-linejoin="miter" d="M 925.338438 665.498337 L 925.338438 843.091924 " stroke="#444848" stroke-width="2" stroke-opacity="1" stroke-miterlimit="10"/><path stroke-linecap="butt" transform="matrix(0.688, 0, 0, 0.687644, -145.386443, -7.188174)" fill="none" stroke-linejoin="miter" d="M 936.472392 669.491821 L 936.472392 843.091924 " stroke="#444848" stroke-width="2" stroke-opacity="1" stroke-miterlimit="10"/><path stroke-linecap="butt" transform="matrix(0.688, 0, 0, 0.687644, -145.386443, -7.188174)" fill="none" stroke-linejoin="miter" d="M 946.970444 651.427413 L 946.970444 843.091924 " stroke="#444848" stroke-width="2" stroke-opacity="1" stroke-miterlimit="10"/><path stroke-linecap="butt" transform="matrix(0.688, 0, 0, 0.687644, -145.386443, -7.188174)" fill="none" stroke-linejoin="miter" d="M 958.098719 655.739012 L 958.098719 843.091924 " stroke="#444848" stroke-width="2" stroke-opacity="1" stroke-miterlimit="10"/><path stroke-linecap="butt" transform="matrix(0.688, 0, 0, 0.687644, -145.386443, -7.188174)" fill="none" stroke-linejoin="miter" d="M 1006.989323 326.410074 L 1006.989323 843.091924 " stroke="#444848" stroke-width="2" stroke-opacity="1" stroke-miterlimit="10"/><path stroke-linecap="butt" transform="matrix(0.688, 0, 0, 0.687644, -145.386443, -7.188174)" fill="none" stroke-linejoin="miter" d="M 1018.117598 338.032646 L 1018.117598 843.091924 " stroke="#444848" stroke-width="2" stroke-opacity="1" stroke-miterlimit="10"/><path stroke-linecap="butt" transform="matrix(0.688, 0, 0, 0.687644, -145.386443, -7.188174)" fill="none" stroke-linejoin="miter" d="M 1028.632684 285.498165 L 1028.632684 843.091924 " stroke="#444848" stroke-width="2" stroke-opacity="1" stroke-miterlimit="10"/><path stroke-linecap="butt" transform="matrix(0.688, 0, 0, 0.687644, -145.386443, -7.188174)" fill="none" stroke-linejoin="miter" d="M 1039.749604 298.029638 L 1039.749604 843.091924 " stroke="#444848" stroke-width="2" stroke-opacity="1" stroke-miterlimit="10"/><path stroke-linecap="butt" transform="matrix(0.688, 0, 0, 0.687644, -145.386443, -7.188174)" fill="none" stroke-linejoin="miter" d="M 1088.151926 326.410074 L 1088.151926 843.091924 " stroke="#444848" stroke-width="2" stroke-opacity="1" stroke-miterlimit="10"/><path stroke-linecap="butt" transform="matrix(0.688, 0, 0, 0.687644, -145.386443, -7.188174)" fill="none" stroke-linejoin="miter" d="M 1099.280201 338.032646 L 1099.280201 843.091924 " stroke="#444848" stroke-width="2" stroke-opacity="1" stroke-miterlimit="10"/><path stroke-linecap="butt" transform="matrix(0.688, 0, 0, 0.687644, -145.386443, -7.188174)" fill="none" stroke-linejoin="miter" d="M 1109.778253 298.620424 L 1109.778253 843.091924 " stroke="#444848" stroke-width="2" stroke-opacity="1" stroke-miterlimit="10"/><path stroke-linecap="butt" transform="matrix(0.688, 0, 0, 0.687644, -145.386443, -7.188174)" fill="none" stroke-linejoin="miter" d="M 1120.912207 298.029638 L 1120.912207 843.091924 " stroke="#444848" stroke-width="2" stroke-opacity="1" stroke-miterlimit="10"/><path stroke-linecap="butt" transform="matrix(0.688, 0, 0, 0.687644, -145.386443, -7.188174)" fill="none" stroke-linejoin="miter" d="M 1173.550087 326.410074 L 1173.550087 843.091924 " stroke="#444848" stroke-width="2" stroke-opacity="1" stroke-miterlimit="10"/><path stroke-linecap="butt" transform="matrix(0.688, 0, 0, 0.687644, -145.386443, -7.188174)" fill="none" stroke-linejoin="miter" d="M 1184.672685 338.032646 L 1184.672685 843.091924 " stroke="#444848" stroke-width="2" stroke-opacity="1" stroke-miterlimit="10"/><path stroke-linecap="butt" transform="matrix(0.688, 0, 0, 0.687644, -145.386443, -7.188174)" fill="none" stroke-linejoin="miter" d="M 1195.182092 301.477781 L 1195.182092 843.091924 " stroke="#444848" stroke-width="2" stroke-opacity="1" stroke-miterlimit="10"/><path stroke-linecap="butt" transform="matrix(0.688, 0, 0, 0.687644, -145.386443, -7.188174)" fill="none" stroke-linejoin="miter" d="M 1206.310368 298.029638 L 1206.310368 843.091924 " stroke="#444848" stroke-width="2" stroke-opacity="1" stroke-miterlimit="10"/><path stroke-linecap="butt" transform="matrix(0.688, 0, 0, 0.687644, -145.386443, -7.188174)" fill="none" stroke-linejoin="miter" d="M 1296.47779 326.410074 L 1296.47779 843.091924 " stroke="#444848" stroke-width="2" stroke-opacity="1" stroke-miterlimit="10"/><path stroke-linecap="butt" transform="matrix(0.688, 0, 0, 0.687644, -145.386443, -7.188174)" fill="none" stroke-linejoin="miter" d="M 1307.611743 338.032646 L 1307.611743 843.091924 " stroke="#444848" stroke-width="2" stroke-opacity="1" stroke-miterlimit="10"/><path stroke-linecap="butt" transform="matrix(0.688, 0, 0, 0.687644, -145.386443, -7.188174)" fill="none" stroke-linejoin="miter" d="M 1318.12115 313.168521 L 1318.12115 843.091924 " stroke="#444848" stroke-width="2" stroke-opacity="1" stroke-miterlimit="10"/><path stroke-linecap="butt" transform="matrix(0.688, 0, 0, 0.687644, -145.386443, -7.188174)" fill="none" stroke-linejoin="miter" d="M 1329.238071 310.879227 L 1329.238071 843.091924 " stroke="#444848" stroke-width="2" stroke-opacity="1" stroke-miterlimit="10"/><path stroke-linecap="butt" transform="matrix(0.688, 0, 0, 0.687644, -145.386443, -7.188174)" fill="none" stroke-linejoin="miter" d="M 612.639568 665.498337 L 612.639568 843.091924 " stroke="#444848" stroke-width="2" stroke-opacity="1" stroke-miterlimit="10"/><path stroke-linecap="butt" transform="matrix(0.688, 0, 0, 0.687644, -145.386443, -7.188174)" fill="none" stroke-linejoin="miter" d="M 601.522647 669.491821 L 601.522647 843.091924 " stroke="#444848" stroke-width="2" stroke-opacity="1" stroke-miterlimit="10"/><path stroke-linecap="butt" transform="matrix(0.688, 0, 0, 0.687644, -145.386443, -7.188174)" fill="none" stroke-linejoin="miter" d="M 591.007562 651.427413 L 591.007562 843.091924 " stroke="#444848" stroke-width="2" stroke-opacity="1" stroke-miterlimit="10"/><path stroke-linecap="butt" transform="matrix(0.688, 0, 0, 0.687644, -145.386443, -7.188174)" fill="none" stroke-linejoin="miter" d="M 579.879287 655.739012 L 579.879287 843.091924 " stroke="#444848" stroke-width="2" stroke-opacity="1" stroke-miterlimit="10"/><path stroke-linecap="butt" transform="matrix(0.688, 0, 0, 0.687644, -145.386443, -7.188174)" fill="none" stroke-linejoin="miter" d="M 530.988683 326.410074 L 530.988683 843.091924 " stroke="#444848" stroke-width="2" stroke-opacity="1" stroke-miterlimit="10"/><path stroke-linecap="butt" transform="matrix(0.688, 0, 0, 0.687644, -145.386443, -7.188174)" fill="none" stroke-linejoin="miter" d="M 519.860408 338.032646 L 519.860408 843.091924 " stroke="#444848" stroke-width="2" stroke-opacity="1" stroke-miterlimit="10"/><path stroke-linecap="butt" transform="matrix(0.688, 0, 0, 0.687644, -145.386443, -7.188174)" fill="none" stroke-linejoin="miter" d="M 509.362356 285.498165 L 509.362356 843.091924 " stroke="#444848" stroke-width="2" stroke-opacity="1" stroke-miterlimit="10"/><path stroke-linecap="butt" transform="matrix(0.688, 0, 0, 0.687644, -145.386443, -7.188174)" fill="none" stroke-linejoin="miter" d="M 498.228402 298.029638 L 498.228402 843.091924 " stroke="#444848" stroke-width="2" stroke-opacity="1" stroke-miterlimit="10"/><path stroke-linecap="butt" transform="matrix(0.688, 0, 0, 0.687644, -145.386443, -7.188174)" fill="none" stroke-linejoin="miter" d="M 449.831758 326.410074 L 449.831758 843.091924 " stroke="#444848" stroke-width="2" stroke-opacity="1" stroke-miterlimit="10"/><path stroke-linecap="butt" transform="matrix(0.688, 0, 0, 0.687644, -145.386443, -7.188174)" fill="none" stroke-linejoin="miter" d="M 438.70916 338.032646 L 438.70916 843.091924 " stroke="#444848" stroke-width="2" stroke-opacity="1" stroke-miterlimit="10"/><path stroke-linecap="butt" transform="matrix(0.688, 0, 0, 0.687644, -145.386443, -7.188174)" fill="none" stroke-linejoin="miter" d="M 428.199753 285.498165 L 428.199753 843.091924 " stroke="#444848" stroke-width="2" stroke-opacity="1" stroke-miterlimit="10"/><path stroke-linecap="butt" transform="matrix(0.688, 0, 0, 0.687644, -145.386443, -7.188174)" fill="none" stroke-linejoin="miter" d="M 417.077155 298.029638 L 417.077155 843.091924 " stroke="#444848" stroke-width="2" stroke-opacity="1" stroke-miterlimit="10"/><path stroke-linecap="butt" transform="matrix(0.688, 0, 0, 0.687644, -145.386443, -7.188174)" fill="none" stroke-linejoin="miter" d="M 364.439275 326.410074 L 364.439275 843.091924 " stroke="#444848" stroke-width="2" stroke-opacity="1" stroke-miterlimit="10"/><path stroke-linecap="butt" transform="matrix(0.688, 0, 0, 0.687644, -145.386443, -7.188174)" fill="none" stroke-linejoin="miter" d="M 353.310999 338.032646 L 353.310999 843.091924 " stroke="#444848" stroke-width="2" stroke-opacity="1" stroke-miterlimit="10"/><path stroke-linecap="butt" transform="matrix(0.688, 0, 0, 0.687644, -145.386443, -7.188174)" fill="none" stroke-linejoin="miter" d="M 342.801592 299.569089 L 342.801592 843.091924 " stroke="#444848" stroke-width="2" stroke-opacity="1" stroke-miterlimit="10"/><path stroke-linecap="butt" transform="matrix(0.688, 0, 0, 0.687644, -145.386443, -7.188174)" fill="none" stroke-linejoin="miter" d="M 331.678994 298.029638 L 331.678994 843.091924 " stroke="#444848" stroke-width="2" stroke-opacity="1" stroke-miterlimit="10"/><path stroke-linecap="butt" transform="matrix(0.688, 0, 0, 0.687644, -145.386443, -7.188174)" fill="none" stroke-linejoin="miter" d="M 241.500216 326.410074 L 241.500216 843.091924 " stroke="#444848" stroke-width="2" stroke-opacity="1" stroke-miterlimit="10"/><path stroke-linecap="butt" transform="matrix(0.688, 0, 0, 0.687644, -145.386443, -7.188174)" fill="none" stroke-linejoin="miter" d="M 230.371941 338.032646 L 230.371941 843.091924 " stroke="#444848" stroke-width="2" stroke-opacity="1" stroke-miterlimit="10"/><path stroke-linecap="butt" transform="matrix(0.688, 0, 0, 0.687644, -145.386443, -7.188174)" fill="none" stroke-linejoin="miter" d="M 219.868211 313.168521 L 219.868211 843.091924 " stroke="#444848" stroke-width="2" stroke-opacity="1" stroke-miterlimit="10"/><g clip-path="url(#197a50a8bc)"><path stroke-linecap="butt" transform="matrix(0.688, 0, 0, 0.687644, -145.386443, -7.188174)" fill="none" stroke-linejoin="miter" d="M 767.941469 819.931989 C 776.94061 811.678031 783.702741 819.057172 792.701882 810.808894 C 801.701024 802.560617 794.950248 795.192838 803.94939 786.93888 C 812.948531 778.690603 819.710662 786.069744 828.709803 777.821467 C 837.708945 769.567509 830.958169 762.19973 839.95731 753.951452 C 848.96213 745.697495 855.718583 753.082316 864.717724 744.828358 C 873.722543 736.580081 866.971768 729.212302 875.970909 720.958344 C 884.97005 712.710067 891.732181 720.089207 900.731322 711.84093 C 909.730464 703.592653 902.979688 696.219193 911.97883 687.970916 C 920.977971 679.722639 927.740102 687.101779 936.739243 678.847822 C 945.738385 670.599544 938.987609 663.231765 947.992428 654.977807 C 956.99157 646.72953 963.748023 654.108671 972.752842 645.860394 C 981.751983 637.612117 975.001208 630.238657 984.000349 621.99038 C 992.99949 613.742102 999.761621 621.121243 1008.760763 612.867285 C 1017.759904 604.619008 1011.009128 597.251229 1020.00827 588.997271 C 1029.007411 580.748994 1035.769542 588.122454 1044.768683 579.879857 C 1053.767825 571.63158 1047.022727 564.25812 1056.021868 556.009843 C 1065.02101 547.761566 1071.777463 555.129345 1080.782282 546.892429 C 1089.781423 538.649833 1083.030648 531.270692 1092.029789 523.022415 C 1101.02893 514.768457 1107.791061 522.147598 1116.790203 513.899321 C 1125.789344 505.651044 1119.038569 498.277584 1128.03771 490.029307 C 1137.042529 481.781029 1143.798982 489.148809 1152.798123 480.911893 C 1161.797265 472.657935 1155.052167 465.290156 1164.051308 457.041879 C 1173.05045 448.787921 1179.812581 456.161381 1188.811722 447.918784 C 1197.810863 439.670507 1191.060088 432.302728 1200.059229 424.04877 C 1209.058371 415.800493 1215.820501 423.168272 1224.819643 414.919995 C 1233.818784 406.671718 1227.068009 399.298258 1236.072828 391.049981 C 1245.071969 382.801704 1251.828422 390.180844 1260.827563 381.932567 C 1269.832383 373.678609 1263.081607 366.31083 1272.080748 358.062553 C 1281.091245 349.808595 1287.842021 357.182055 1296.852517 348.928097 C 1305.857336 340.67982 1299.100883 333.30068 1308.11138 325.052403 C 1317.121877 316.798445 1323.872652 324.171905 1332.877471 315.917947 " stroke="#b0c2cc" stroke-width="5" stroke-opacity="1" stroke-miterlimit="10"/></g><g clip-path="url(#32e70eefbe)"><path stroke-linecap="butt" transform="matrix(0.688, 0, 0, 0.687644, -145.386443, -7.188174)" fill="none" stroke-linejoin="miter" d="M 239.058809 307.448125 C 247.660512 315.719125 240.72805 322.922166 249.318398 331.187485 C 257.908745 339.458484 264.852562 332.249763 273.448588 340.520763 C 282.05029 348.791762 275.117829 355.989123 283.708176 364.260122 C 292.298524 372.531122 299.242341 365.3224 307.838366 373.587719 C 316.440069 381.858719 309.507608 389.06176 318.097955 397.33276 C 326.699658 405.598079 333.63212 398.389357 342.228145 406.660357 C 350.829848 414.931356 343.897386 422.140078 352.499089 430.399716 C 361.100792 438.670716 368.027576 431.461994 376.629279 439.721633 C 385.230982 447.992633 378.29852 455.201354 386.900223 463.460992 C 395.501926 471.720631 402.42871 464.51759 411.030413 472.78859 C 419.632116 481.059589 412.699654 488.268311 421.301357 496.527949 C 429.897382 504.787588 436.829844 497.590227 445.431547 505.861227 C 454.027572 514.132227 447.100788 521.340948 455.702491 529.600587 C 464.298516 537.860225 471.230978 530.657184 479.832681 538.928184 C 488.428706 547.199183 481.501922 554.407905 490.097948 562.667543 C 498.699651 570.927182 505.632112 563.729821 514.228137 572.000821 C 522.82984 580.271821 515.897379 587.480542 524.499082 595.740181 C 533.100785 603.999819 540.027568 596.802459 548.629271 605.067778 C 557.230974 613.338778 550.298513 620.547499 558.88886 628.807137 C 567.479208 637.072456 574.417347 629.869416 583.01905 638.129054 C 591.620753 646.400054 584.688291 653.608775 593.289994 661.868414 C 601.891697 670.139413 608.818481 662.930692 617.420184 671.201691 C 626.021887 679.472691 619.089425 686.681413 627.691128 694.941051 C 636.292831 703.212051 643.219615 695.997648 651.821318 704.268648 C 660.417343 712.539648 653.490559 719.748369 662.092262 728.019369 C 670.688288 736.290369 677.620749 729.081647 686.222452 737.352647 C 694.818477 745.617966 687.891694 752.832368 696.487719 761.092006 C 705.089422 769.351645 712.021883 762.148604 720.617909 770.419604 C 729.219611 778.690603 722.292828 785.899325 730.888853 794.170324 C 739.490556 802.441324 746.41734 795.232602 755.030398 803.497922 C 763.637779 811.768921 756.699639 818.977643 765.312698 827.248642 " stroke="#b0c2cc" stroke-width="5" stroke-opacity="1" stroke-miterlimit="10"/></g><path fill="#b0c2cc" d="M 383.699219 558.097656 L 768.484375 206.585938 C 768.484375 206.585938 415.355469 156.484375 14.765625 201.738281 " fill-opacity="1" fill-rule="nonzero"/><path fill="#caa88a" d="M 424.113281 368.167969 L 440.230469 389.960938 C 440.230469 389.960938 412.246094 395.648438 440.230469 389.960938 C 468.21875 384.273438 537.929688 377.074219 537.929688 377.074219 C 541.402344 376.886719 544.789062 376.75 548.035156 376.683594 C 548.035156 376.683594 554.867188 360.398438 585.371094 361.058594 L 605.640625 354.429688 C 605.640625 354.429688 617.757812 353.734375 610.875 363.410156 C 610.875 363.410156 603.632812 367.558594 597.695312 369.804688 L 608.511719 380.402344 C 608.511719 380.402344 608.371094 378.234375 615.796875 381.921875 C 621.828125 384.921875 619.523438 386.234375 619.523438 386.234375 C 619.523438 386.234375 627.492188 380.078125 636.710938 375.65625 C 642.710938 372.777344 645.964844 367.933594 651.941406 372.378906 C 651.941406 372.378906 657.082031 377.101562 647.53125 383.316406 L 627.855469 400.796875 L 588.921875 406.441406 L 561.773438 403.292969 L 548.902344 413.015625 C 548.902344 413.015625 432.4375 477.347656 410.945312 470.070312 C 389.445312 462.796875 372.773438 424.019531 372.773438 424.019531 " fill-opacity="1" fill-rule="nonzero"/><path fill="#caa88a" d="M 276.816406 156.863281 C 276.816406 156.863281 271.851562 182.203125 257.824219 201.367188 C 257.824219 201.367188 255.863281 272.957031 310.984375 283.367188 C 310.984375 283.367188 352.210938 258.285156 339.875 210.078125 L 276.824219 156.855469 Z M 276.816406 156.863281 " fill-opacity="1" fill-rule="nonzero"/><path fill="#e6e7e8" d="M 140.539062 371.882812 C 140.539062 371.882812 121.839844 436.796875 132.847656 481.257812 C 132.847656 481.257812 212.46875 531.039062 284.488281 522.394531 C 284.488281 522.394531 342.894531 502.515625 360.699219 469.628906 C 360.699219 469.628906 372.636719 435.089844 361.605469 409.921875 C 359.523438 405.171875 374.664062 437.765625 376.453125 430.429688 C 376.453125 430.429688 419.625 368.917969 428.878906 366.917969 L 409.800781 309.878906 C 409.800781 309.878906 405.886719 270.109375 382.902344 243.628906 C 382.902344 243.628906 369.5 234.636719 354.308594 225.050781 L 318.285156 242.617188 L 307.632812 285.347656 L 301.402344 246.0625 C 301.402344 246.0625 301.523438 234.964844 258.367188 199.195312 C 258.367188 199.195312 206.347656 208.875 179.453125 228.035156 C 179.453125 228.035156 148.878906 262.148438 147.363281 296.875 Z M 140.539062 371.882812 " fill-opacity="1" fill-rule="nonzero"/><path fill="#d4d5d6" d="M 258.359375 199.1875 C 258.359375 199.1875 295.636719 230.832031 301.394531 246.058594 L 302.6875 232.222656 C 302.6875 232.222656 272.753906 205.878906 264.277344 189.902344 L 258.367188 199.1875 Z M 258.359375 199.1875 " fill-opacity="1" fill-rule="nonzero"/><path fill="#d4d5d6" d="M 340.941406 213.195312 C 340.941406 213.195312 356.621094 215.476562 354.300781 225.042969 L 318.277344 242.613281 L 318.691406 234.367188 C 318.691406 234.367188 335.003906 229.847656 346.945312 219.953125 C 346.945312 219.953125 340.484375 217.917969 340.941406 213.1875 Z M 340.941406 213.195312 " fill-opacity="1" fill-rule="nonzero"/><path stroke-linecap="butt" transform="matrix(0.688, 0, 0, 0.687644, -145.386443, -7.188174)" fill="none" stroke-linejoin="miter" d="M 658.45854 425.412122 C 658.45854 425.412122 664.130554 482.741056 612.11722 760.700043 " stroke="#6d6e71" stroke-width="1" stroke-opacity="1" stroke-miterlimit="10"/><path fill="#d1d3d4" d="M 298.039062 286.46875 C 298.371094 286.527344 298.675781 286.652344 298.957031 286.835938 C 299.238281 287.019531 299.472656 287.253906 299.664062 287.539062 C 299.855469 287.820312 299.984375 288.132812 300.054688 288.472656 C 300.125 288.808594 300.128906 289.148438 300.066406 289.492188 C 300.007812 289.835938 299.882812 290.152344 299.703125 290.445312 C 299.519531 290.738281 299.289062 290.984375 299.015625 291.1875 C 298.738281 291.386719 298.4375 291.523438 298.109375 291.601562 C 297.78125 291.679688 297.449219 291.6875 297.121094 291.628906 C 296.792969 291.570312 296.488281 291.449219 296.207031 291.261719 C 295.925781 291.078125 295.6875 290.84375 295.5 290.5625 C 295.308594 290.277344 295.179688 289.964844 295.109375 289.628906 C 295.039062 289.289062 295.035156 288.949219 295.09375 288.605469 C 295.15625 288.265625 295.277344 287.945312 295.460938 287.652344 C 295.644531 287.359375 295.871094 287.113281 296.148438 286.914062 C 296.425781 286.710938 296.726562 286.574219 297.054688 286.496094 C 297.382812 286.421875 297.710938 286.410156 298.039062 286.46875 Z M 298.039062 286.46875 " fill-opacity="1" fill-rule="nonzero"/><path fill="#d1d3d4" d="M 296.625 330.875 C 296.953125 330.933594 297.257812 331.054688 297.539062 331.238281 C 297.820312 331.425781 298.054688 331.660156 298.246094 331.941406 C 298.4375 332.226562 298.566406 332.535156 298.636719 332.875 C 298.707031 333.214844 298.710938 333.554688 298.648438 333.894531 C 298.589844 334.238281 298.46875 334.554688 298.285156 334.847656 C 298.101562 335.144531 297.871094 335.390625 297.597656 335.589844 C 297.320312 335.789062 297.019531 335.929688 296.691406 336.003906 C 296.363281 336.082031 296.035156 336.089844 295.703125 336.03125 C 295.375 335.972656 295.070312 335.851562 294.789062 335.667969 C 294.507812 335.480469 294.269531 335.246094 294.082031 334.964844 C 293.890625 334.679688 293.761719 334.371094 293.691406 334.03125 C 293.621094 333.691406 293.617188 333.351562 293.679688 333.011719 C 293.738281 332.667969 293.859375 332.351562 294.042969 332.058594 C 294.226562 331.761719 294.453125 331.515625 294.730469 331.316406 C 295.007812 331.117188 295.308594 330.976562 295.636719 330.902344 C 295.964844 330.824219 296.292969 330.816406 296.625 330.875 Z M 296.625 330.875 " fill-opacity="1" fill-rule="nonzero"/><path fill="#d1d3d4" d="M 291.382812 378.289062 C 291.714844 378.347656 292.019531 378.472656 292.300781 378.65625 C 292.582031 378.839844 292.816406 379.074219 293.007812 379.359375 C 293.199219 379.640625 293.328125 379.953125 293.398438 380.292969 C 293.46875 380.628906 293.472656 380.96875 293.410156 381.3125 C 293.347656 381.652344 293.226562 381.972656 293.046875 382.265625 C 292.863281 382.558594 292.632812 382.804688 292.355469 383.007812 C 292.082031 383.207031 291.777344 383.34375 291.453125 383.421875 C 291.125 383.5 290.792969 383.507812 290.464844 383.449219 C 290.136719 383.390625 289.828125 383.269531 289.546875 383.082031 C 289.265625 382.898438 289.03125 382.664062 288.84375 382.378906 C 288.652344 382.097656 288.523438 381.785156 288.453125 381.449219 C 288.382812 381.109375 288.378906 380.769531 288.4375 380.425781 C 288.5 380.085938 288.621094 379.765625 288.804688 379.472656 C 288.988281 379.179688 289.214844 378.933594 289.492188 378.734375 C 289.769531 378.53125 290.070312 378.394531 290.398438 378.316406 C 290.726562 378.242188 291.054688 378.230469 291.382812 378.289062 Z M 291.382812 378.289062 " fill-opacity="1" fill-rule="nonzero"/><path fill="#d1d3d4" d="M 284.636719 421.199219 C 284.964844 421.257812 285.269531 421.378906 285.550781 421.566406 C 285.832031 421.75 286.070312 421.984375 286.257812 422.269531 C 286.449219 422.550781 286.578125 422.863281 286.648438 423.199219 C 286.71875 423.539062 286.722656 423.878906 286.660156 424.222656 C 286.601562 424.5625 286.480469 424.882812 286.296875 425.175781 C 286.113281 425.46875 285.886719 425.714844 285.609375 425.914062 C 285.332031 426.117188 285.03125 426.253906 284.703125 426.332031 C 284.375 426.410156 284.046875 426.417969 283.714844 426.359375 C 283.386719 426.300781 283.082031 426.179688 282.800781 425.992188 C 282.519531 425.808594 282.28125 425.574219 282.09375 425.289062 C 281.902344 425.007812 281.773438 424.695312 281.703125 424.359375 C 281.632812 424.019531 281.628906 423.679688 281.691406 423.335938 C 281.75 422.996094 281.871094 422.675781 282.054688 422.382812 C 282.238281 422.089844 282.46875 421.84375 282.742188 421.640625 C 283.019531 421.441406 283.320312 421.304688 283.648438 421.226562 C 283.976562 421.148438 284.304688 421.140625 284.636719 421.199219 Z M 284.636719 421.199219 " fill-opacity="1" fill-rule="nonzero"/><path fill="#d1d3d4" d="M 276.3125 475.164062 C 276.640625 475.222656 276.945312 475.34375 277.226562 475.53125 C 277.507812 475.714844 277.746094 475.949219 277.933594 476.230469 C 278.125 476.515625 278.253906 476.828125 278.324219 477.164062 C 278.394531 477.503906 278.398438 477.84375 278.339844 478.1875 C 278.277344 478.527344 278.15625 478.847656 277.972656 479.140625 C 277.789062 479.433594 277.5625 479.679688 277.285156 479.878906 C 277.007812 480.082031 276.707031 480.21875 276.378906 480.296875 C 276.050781 480.371094 275.722656 480.382812 275.394531 480.324219 C 275.0625 480.265625 274.757812 480.140625 274.476562 479.957031 C 274.195312 479.773438 273.960938 479.539062 273.769531 479.253906 C 273.578125 478.972656 273.449219 478.660156 273.378906 478.320312 C 273.308594 477.984375 273.304688 477.644531 273.367188 477.300781 C 273.425781 476.957031 273.550781 476.640625 273.730469 476.347656 C 273.914062 476.054688 274.144531 475.808594 274.417969 475.605469 C 274.695312 475.40625 274.996094 475.269531 275.324219 475.191406 C 275.652344 475.113281 275.980469 475.105469 276.3125 475.164062 Z M 276.3125 475.164062 " fill-opacity="1" fill-rule="nonzero"/><path fill="#d1d3d4" d="M 229.765625 301.128906 L 225.039062 340.003906 C 225.039062 340.003906 243.300781 365.117188 269.972656 348.007812 L 277.472656 305.949219 C 277.472656 305.949219 260.128906 312.421875 229.765625 301.128906 Z M 229.765625 301.128906 " fill-opacity="1" fill-rule="nonzero"/><path fill="#d1d3d4" d="M 332.46875 319.421875 L 327.742188 358.292969 C 327.742188 358.292969 346.003906 383.40625 372.675781 366.296875 L 380.175781 324.242188 C 380.175781 324.242188 362.832031 330.714844 332.46875 319.421875 Z M 332.46875 319.421875 " fill-opacity="1" fill-rule="nonzero"/><path fill="#d1d3d4" d="M 198.640625 439.746094 L 193.289062 483.804688 C 193.289062 483.804688 213.984375 512.257812 244.214844 492.875 L 252.710938 445.207031 C 252.710938 445.207031 233.054688 452.542969 198.640625 439.746094 Z M 198.640625 439.746094 " fill-opacity="1" fill-rule="nonzero"/><path fill="#d1d3d4" d="M 302.027344 428.578125 L 304.683594 472.882812 C 304.683594 472.882812 330.160156 497.15625 356.40625 472.65625 L 356.191406 424.238281 C 356.191406 424.238281 338.175781 434.988281 302.019531 428.578125 Z M 302.027344 428.578125 " fill-opacity="1" fill-rule="nonzero"/><path stroke-linecap="butt" transform="matrix(0.688, 0, 0, 0.687644, -145.386443, -7.188174)" fill="none" stroke-linejoin="miter" d="M 565.48066 304.198804 C 565.48066 304.198804 608.568663 432.689011 526.690671 760.171744 " stroke="#d1d3d4" stroke-width="1" stroke-opacity="1" stroke-miterlimit="10"/><path stroke-linecap="butt" transform="matrix(0.688, 0, 0, 0.687644, -145.386443, -7.188174)" fill="none" stroke-linejoin="miter" d="M 574.678521 302.932023 C 574.678521 302.932023 616.148381 435.489562 534.270389 762.960934 " stroke="#d1d3d4" stroke-width="1" stroke-opacity="1" stroke-miterlimit="10"/><path stroke-linecap="butt" transform="matrix(0.688, 0, 0, 0.687644, -145.386443, -7.188174)" fill="none" stroke-linejoin="miter" d="M 583.711728 301.091498 C 583.711728 301.091498 624.642208 437.500506 542.758538 764.971878 " stroke="#d1d3d4" stroke-width="1" stroke-opacity="1" stroke-miterlimit="10"/><path stroke-linecap="butt" transform="matrix(0.688, 0, 0, 0.687644, -145.386443, -7.188174)" fill="none" stroke-linejoin="miter" d="M 556.157891 306.181344 C 556.157891 306.181344 600.392787 430.280423 518.509117 757.751795 " stroke="#d1d3d4" stroke-width="1" stroke-opacity="1" stroke-miterlimit="10"/><path stroke-linecap="butt" transform="matrix(0.688, 0, 0, 0.687644, -145.386443, -7.188174)" fill="none" stroke-linejoin="miter" d="M 724.927277 337.691808 C 724.927277 337.691808 766.771864 449.941089 678.330461 739.210213 " stroke="#d1d3d4" stroke-width="1" stroke-opacity="1" stroke-miterlimit="10"/><path stroke-linecap="butt" transform="matrix(0.688, 0, 0, 0.687644, -145.386443, -7.188174)" fill="none" stroke-linejoin="miter" d="M 735.368552 344.639221 C 735.368552 344.639221 775.101038 449.219649 686.67099 738.488773 " stroke="#d1d3d4" stroke-width="1" stroke-opacity="1" stroke-miterlimit="10"/><path stroke-linecap="butt" transform="matrix(0.688, 0, 0, 0.687644, -145.386443, -7.188174)" fill="none" stroke-linejoin="miter" d="M 746.059645 351.38213 C 746.059645 351.38213 785.349272 447.271192 696.919223 736.540316 " stroke="#d1d3d4" stroke-width="1" stroke-opacity="1" stroke-miterlimit="10"/><path stroke-linecap="butt" transform="matrix(0.688, 0, 0, 0.687644, -145.386443, -7.188174)" fill="none" stroke-linejoin="miter" d="M 715.610184 338.890421 C 715.610184 338.890421 757.602392 450.497791 669.160989 739.772596 " stroke="#d1d3d4" stroke-width="1" stroke-opacity="1" stroke-miterlimit="10"/><path fill="#caa88a" d="M 398.347656 87.171875 C 398.347656 87.171875 405.847656 106.246094 393.421875 144.773438 C 393.421875 144.773438 389.503906 153.804688 389.285156 159.132812 C 389.066406 164.46875 385.335938 172.175781 383.796875 177.90625 C 375.078125 210.3125 357.601562 215.898438 357.601562 215.898438 C 357.601562 215.898438 350.425781 225.34375 331.84375 221.054688 C 313.261719 216.761719 296.613281 206.332031 291.832031 196.90625 C 287.054688 187.476562 275.980469 170.628906 277.238281 158.222656 C 277.238281 158.222656 265.625 158.066406 264.34375 143.742188 C 264.34375 143.742188 257.347656 120.273438 270.613281 117.820312 C 283.882812 115.355469 286.800781 133.59375 286.800781 133.59375 C 286.800781 133.59375 279.914062 80.898438 311.863281 68.550781 C 311.863281 68.550781 356.875 49.117188 398.339844 87.15625 Z M 398.347656 87.171875 " fill-opacity="1" fill-rule="nonzero"/><path fill="#e6e7e8" d="M 350.886719 121.800781 C 350.886719 121.800781 335.792969 114.808594 321.089844 118.535156 C 321.089844 118.535156 329.472656 108.871094 352.003906 117.171875 C 352.003906 117.171875 355.402344 120.71875 350.886719 121.800781 Z M 350.886719 121.800781 " fill-opacity="1" fill-rule="nonzero"/><path fill="#e6e7e8" d="M 396.539062 137.085938 C 386.546875 131.242188 380.101562 132.355469 380.101562 132.355469 C 376.742188 129.152344 381.46875 127.796875 381.46875 127.796875 C 388.839844 129.097656 394.144531 131.207031 397.953125 133.503906 C 397.953125 133.503906 397.085938 137.410156 396.539062 137.085938 Z M 396.539062 137.085938 " fill-opacity="1" fill-rule="nonzero"/><path stroke-linecap="butt" transform="matrix(0.688, 0, 0, 0.687644, -145.386443, -7.188174)" fill="none" stroke-linejoin="miter" d="M 600.540407 194.35243 C 600.540407 194.35243 609.959697 186.592687 614.11009 198.737878 C 618.260482 210.877387 617.630259 214.308489 617.630259 214.308489 C 617.630259 214.308489 612.162642 195.369263 604.179807 206.758929 " stroke="#231f20" stroke-width="1" stroke-opacity="1" stroke-miterlimit="10"/><path stroke-linecap="butt" transform="matrix(0.688, 0, 0, 0.687644, -145.386443, -7.188174)" fill-opacity="1" fill="#e6e7e8" fill-rule="nonzero" stroke-linejoin="miter" d="M 597.917313 183.462659 C 597.917313 183.462659 614.041958 175.151895 620.338518 190.961093 C 626.6294 206.758929 623.387438 212.399797 623.387438 212.399797 L 632.369546 214.558437 C 632.369546 214.558437 615.177496 160.132305 649.890903 148.918738 C 649.890903 148.918738 652.33231 111.79013 680.567471 113.551126 C 708.80831 115.312121 728.617776 92.027212 792.571295 143.550541 C 792.571295 143.550541 809.428362 104.927927 739.467845 75.581784 C 739.467845 75.581784 692.308938 55.171274 671.56833 76.530449 C 671.56833 76.530449 638.098337 71.378116 617.999309 112.227538 C 597.90028 153.082641 597.917313 183.46834 597.917313 183.46834 Z M 597.917313 183.462659 " stroke="#58595b" stroke-width="0.2" stroke-opacity="1" stroke-miterlimit="10"/><path fill="#26130f" d="M 336.453125 221.894531 C 336.453125 221.894531 315.320312 217.882812 303.910156 209.242188 C 303.910156 209.242188 294.382812 204.152344 287.332031 189.273438 C 287.332031 189.273438 295.574219 210.964844 314.714844 218.496094 C 314.808594 218.53125 314.890625 218.558594 314.988281 218.59375 C 315.871094 218.929688 326.664062 223.199219 334.515625 224.539062 C 334.515625 224.539062 336.769531 222.476562 336.453125 221.894531 Z M 336.453125 221.894531 " fill-opacity="1" fill-rule="nonzero"/><path stroke-linecap="butt" transform="matrix(0.688, 0, 0, 0.687644, -145.386443, -7.188174)" fill="none" stroke-linejoin="miter" d="M 710.142567 149.492482 C 710.142567 149.492482 730.309728 158.098639 739.518944 163.330501 C 748.722482 168.562362 779.609125 169.647363 779.609125 169.647363 " stroke="#231f20" stroke-width="0.8" stroke-opacity="1" stroke-miterlimit="10"/><path fill="#e6e7e8" d="M 343.855469 168.449219 C 343.855469 168.449219 332.519531 172.589844 324.558594 171.667969 C 324.558594 171.667969 325.019531 174.988281 328.371094 175.410156 C 328.371094 175.410156 341.957031 176.488281 348.246094 181.8125 C 348.246094 181.8125 358.140625 182.472656 366.058594 187.285156 C 366.058594 187.285156 366.855469 188.238281 368.859375 188.417969 C 368.859375 188.417969 361.847656 179.21875 363.191406 175.808594 C 363.191406 175.808594 354.480469 177.390625 350.398438 170.113281 C 350.398438 170.113281 347.75 170.574219 343.855469 168.449219 Z M 343.855469 168.449219 " fill-opacity="1" fill-rule="nonzero"/><path stroke-linecap="butt" transform="matrix(0.688, 0, 0, 0.687644, -145.386443, -7.188174)" fill="none" stroke-linejoin="miter" d="M 739.967482 221.880771 L 744.220073 253.050397 C 744.220073 253.050397 744.980884 269.751454 732.42183 266.291949 C 721.997588 263.417549 722.338249 260.00917 722.338249 260.00917 " stroke="#231f20" stroke-width="1" stroke-opacity="1" stroke-miterlimit="10"/><path stroke-linecap="butt" transform="matrix(0.688, 0, 0, 0.687644, -145.386443, -7.188174)" fill="none" stroke-linejoin="miter" d="M 676.087772 266.451007 C 676.087772 266.451007 677.507195 254.15812 685.331055 253.271941 C 693.149236 252.368721 700.399648 239.519132 700.399648 239.519132 " stroke="#231f20" stroke-width="0.8" stroke-opacity="1" stroke-miterlimit="10"/><path fill="#ffffff" d="M 328.480469 128.757812 C 328.480469 128.757812 328.589844 128.332031 328.996094 128.0625 C 330.34375 127.175781 333.332031 125.636719 337.09375 126.640625 C 341.3125 127.769531 342.578125 132.347656 342.996094 133.976562 C 343.066406 134.261719 342.996094 134.464844 342.996094 134.464844 C 342.996094 134.464844 342.949219 134.707031 342.761719 134.832031 C 341.882812 135.429688 339.054688 137.011719 335.035156 136.007812 C 332.648438 135.410156 329.648438 133.234375 328.445312 129.460938 C 328.363281 129.199219 328.425781 128.910156 328.472656 128.757812 Z M 328.480469 128.757812 " fill-opacity="1" fill-rule="nonzero"/><path fill="#26130f" d="M 341.503906 131.832031 C 341.503906 132.128906 341.476562 132.421875 341.417969 132.710938 C 341.359375 133.003906 341.273438 133.285156 341.160156 133.558594 C 341.046875 133.832031 340.90625 134.09375 340.742188 134.339844 C 340.578125 134.585938 340.390625 134.8125 340.183594 135.023438 C 339.972656 135.230469 339.746094 135.417969 339.5 135.582031 C 339.25 135.746094 338.992188 135.886719 338.71875 136 C 338.445312 136.113281 338.160156 136.199219 337.871094 136.257812 C 337.582031 136.316406 337.285156 136.34375 336.992188 136.34375 C 336.695312 136.34375 336.402344 136.316406 336.109375 136.257812 C 335.820312 136.199219 335.539062 136.113281 335.261719 136 C 334.988281 135.886719 334.730469 135.746094 334.484375 135.582031 C 334.238281 135.417969 334.007812 135.230469 333.800781 135.023438 C 333.589844 134.8125 333.402344 134.585938 333.238281 134.339844 C 333.074219 134.09375 332.933594 133.832031 332.820312 133.558594 C 332.707031 133.285156 332.621094 133.003906 332.5625 132.710938 C 332.507812 132.421875 332.476562 132.128906 332.476562 131.832031 C 332.476562 131.535156 332.507812 131.242188 332.5625 130.953125 C 332.621094 130.664062 332.707031 130.378906 332.820312 130.105469 C 332.933594 129.832031 333.074219 129.574219 333.238281 129.328125 C 333.402344 129.082031 333.589844 128.851562 333.800781 128.644531 C 334.007812 128.433594 334.238281 128.246094 334.484375 128.082031 C 334.730469 127.917969 334.988281 127.777344 335.261719 127.664062 C 335.539062 127.550781 335.820312 127.464844 336.109375 127.410156 C 336.402344 127.351562 336.695312 127.320312 336.992188 127.320312 C 337.285156 127.320312 337.582031 127.351562 337.871094 127.410156 C 338.160156 127.464844 338.445312 127.550781 338.71875 127.664062 C 338.992188 127.777344 339.25 127.917969 339.5 128.082031 C 339.746094 128.246094 339.972656 128.433594 340.183594 128.644531 C 340.390625 128.851562 340.578125 129.082031 340.742188 129.328125 C 340.90625 129.574219 341.046875 129.832031 341.160156 130.105469 C 341.273438 130.378906 341.359375 130.664062 341.417969 130.953125 C 341.476562 131.242188 341.503906 131.535156 341.503906 131.832031 Z M 341.503906 131.832031 " fill-opacity="1" fill-rule="nonzero"/><path fill="#ffffff" d="M 336.96875 128.722656 C 336.96875 128.890625 336.9375 129.046875 336.875 129.199219 C 336.8125 129.351562 336.722656 129.484375 336.605469 129.601562 C 336.492188 129.714844 336.355469 129.804688 336.207031 129.867188 C 336.054688 129.929688 335.894531 129.960938 335.730469 129.960938 C 335.566406 129.960938 335.410156 129.929688 335.257812 129.867188 C 335.105469 129.804688 334.972656 129.714844 334.855469 129.601562 C 334.738281 129.484375 334.648438 129.351562 334.585938 129.199219 C 334.523438 129.046875 334.492188 128.890625 334.492188 128.722656 C 334.492188 128.558594 334.523438 128.402344 334.585938 128.25 C 334.648438 128.097656 334.738281 127.964844 334.855469 127.847656 C 334.972656 127.734375 335.105469 127.644531 335.257812 127.582031 C 335.410156 127.519531 335.566406 127.488281 335.730469 127.488281 C 335.894531 127.488281 336.054688 127.519531 336.207031 127.582031 C 336.355469 127.644531 336.492188 127.734375 336.605469 127.847656 C 336.722656 127.964844 336.8125 128.097656 336.875 128.25 C 336.9375 128.402344 336.96875 128.558594 336.96875 128.722656 Z M 336.96875 128.722656 " fill-opacity="1" fill-rule="nonzero"/><path stroke-linecap="butt" transform="matrix(0.688, 0, 0, 0.687644, -145.386443, -7.188174)" fill="none" stroke-linejoin="miter" d="M 710.239088 205.401259 C 710.239088 205.401259 706.690531 188.768369 689.288406 196.579238 " stroke="#231f20" stroke-width="0.7" stroke-opacity="1" stroke-miterlimit="10"/><path fill="#ffffff" d="M 376.667969 145.550781 C 376.667969 145.550781 376.707031 145.136719 377.054688 144.835938 C 378.179688 143.820312 380.734375 141.953125 384.378906 142.355469 C 388.46875 142.800781 390.296875 146.878906 390.917969 148.328125 C 391.019531 148.578125 390.984375 148.78125 390.984375 148.78125 C 390.984375 148.78125 390.972656 149.011719 390.820312 149.15625 C 390.082031 149.84375 387.683594 151.710938 383.808594 151.355469 C 381.503906 151.140625 378.402344 149.546875 376.742188 146.210938 C 376.625 145.976562 376.648438 145.703125 376.667969 145.550781 Z M 376.667969 145.550781 " fill-opacity="1" fill-rule="nonzero"/><path fill="#26130f" d="M 389.25 147.179688 C 389.25 147.457031 389.222656 147.734375 389.167969 148.007812 C 389.117188 148.277344 389.035156 148.542969 388.929688 148.800781 C 388.824219 149.054688 388.691406 149.300781 388.539062 149.53125 C 388.382812 149.761719 388.207031 149.976562 388.011719 150.171875 C 387.816406 150.367188 387.601562 150.542969 387.371094 150.695312 C 387.140625 150.851562 386.894531 150.980469 386.640625 151.089844 C 386.382812 151.195312 386.117188 151.273438 385.84375 151.328125 C 385.574219 151.382812 385.296875 151.410156 385.019531 151.410156 C 384.742188 151.410156 384.46875 151.382812 384.195312 151.328125 C 383.921875 151.273438 383.65625 151.195312 383.402344 151.089844 C 383.144531 150.980469 382.898438 150.851562 382.667969 150.695312 C 382.4375 150.542969 382.222656 150.367188 382.027344 150.171875 C 381.832031 149.976562 381.65625 149.761719 381.5 149.53125 C 381.347656 149.300781 381.21875 149.054688 381.109375 148.800781 C 381.003906 148.542969 380.925781 148.277344 380.871094 148.007812 C 380.816406 147.734375 380.789062 147.457031 380.789062 147.179688 C 380.789062 146.902344 380.816406 146.628906 380.871094 146.355469 C 380.925781 146.082031 381.003906 145.820312 381.109375 145.5625 C 381.21875 145.304688 381.347656 145.0625 381.5 144.832031 C 381.65625 144.601562 381.832031 144.386719 382.027344 144.191406 C 382.222656 143.996094 382.4375 143.820312 382.667969 143.664062 C 382.898438 143.511719 383.144531 143.378906 383.402344 143.273438 C 383.65625 143.167969 383.921875 143.085938 384.195312 143.03125 C 384.46875 142.980469 384.742188 142.953125 385.019531 142.953125 C 385.296875 142.953125 385.574219 142.980469 385.84375 143.03125 C 386.117188 143.085938 386.382812 143.167969 386.640625 143.273438 C 386.894531 143.378906 387.140625 143.511719 387.371094 143.664062 C 387.601562 143.820312 387.816406 143.996094 388.011719 144.191406 C 388.207031 144.386719 388.382812 144.601562 388.539062 144.832031 C 388.691406 145.0625 388.824219 145.304688 388.929688 145.5625 C 389.035156 145.820312 389.117188 146.082031 389.167969 146.355469 C 389.222656 146.628906 389.25 146.902344 389.25 147.179688 Z M 389.25 147.179688 " fill-opacity="1" fill-rule="nonzero"/><path fill="#ffffff" d="M 384.441406 144.140625 C 384.441406 144.296875 384.410156 144.449219 384.351562 144.59375 C 384.292969 144.738281 384.207031 144.867188 384.09375 144.976562 C 383.984375 145.089844 383.855469 145.175781 383.710938 145.234375 C 383.566406 145.292969 383.414062 145.324219 383.257812 145.324219 C 383.101562 145.324219 382.949219 145.292969 382.804688 145.234375 C 382.660156 145.175781 382.53125 145.089844 382.421875 144.976562 C 382.3125 144.867188 382.226562 144.738281 382.164062 144.59375 C 382.105469 144.449219 382.074219 144.296875 382.074219 144.140625 C 382.074219 143.984375 382.105469 143.832031 382.164062 143.6875 C 382.226562 143.542969 382.3125 143.417969 382.421875 143.304688 C 382.53125 143.195312 382.660156 143.109375 382.804688 143.046875 C 382.949219 142.988281 383.101562 142.957031 383.257812 142.957031 C 383.414062 142.957031 383.566406 142.988281 383.710938 143.046875 C 383.855469 143.109375 383.984375 143.195312 384.09375 143.304688 C 384.207031 143.417969 384.292969 143.542969 384.351562 143.6875 C 384.410156 143.832031 384.441406 143.984375 384.441406 144.140625 Z M 384.441406 144.140625 " fill-opacity="1" fill-rule="nonzero"/><path stroke-linecap="butt" transform="matrix(0.688, 0, 0, 0.687644, -145.386443, -7.188174)" fill="none" stroke-linejoin="miter" d="M 779.592092 226.36847 C 779.592092 226.36847 774.448104 210.610398 759.152402 221.301346 " stroke="#231f20" stroke-width="0.7" stroke-opacity="1" stroke-miterlimit="10"/><path fill="#e2c799" d="M 272.496094 76.773438 C 272.496094 76.773438 288.625 45.648438 295.847656 38.511719 C 303.074219 31.375 369.09375 28.355469 386.796875 45.890625 C 386.796875 45.890625 389.445312 53.304688 387.964844 56.011719 " fill-opacity="1" fill-rule="nonzero"/><path fill="#f7daa6" d="M 267.832031 112.46875 C 267.832031 112.46875 220.175781 108.460938 219.507812 102.347656 C 217.96875 88.148438 251.429688 81.347656 251.429688 81.347656 C 251.429688 81.347656 331.78125 62.550781 360.980469 54.746094 C 383.085938 48.835938 433.160156 41.757812 439.316406 65.652344 C 445.472656 89.550781 401.03125 107.910156 401.03125 107.910156 C 401.03125 107.910156 322.589844 84.171875 269.449219 103.355469 C 269.449219 103.355469 267.21875 108.328125 267.824219 112.46875 Z M 267.832031 112.46875 " fill-opacity="1" fill-rule="nonzero"/><path stroke-linecap="butt" transform="matrix(0.688, 0, 0, 0.687644, -145.386443, -7.188174)" fill="none" stroke-linejoin="miter" d="M 794.212148 167.380791 C 794.212148 167.380791 855.42902 133.762813 825.161246 108.55217 C 800.809626 88.272315 751.277444 100.502715 699.752392 120.799612 C 648.221662 141.102189 574.582 147.629235 574.582 147.629235 C 574.582 147.629235 542.758538 160.859426 600.602861 173.998727 " stroke="#231f20" stroke-width="1.5" stroke-opacity="1" stroke-miterlimit="10"/><path stroke-linecap="butt" transform="matrix(0.688, 0, 0, 0.687644, -145.386443, -7.188174)" fill-opacity="1" fill="#be9e7d" fill-rule="nonzero" stroke-linejoin="miter" d="M 1072.640472 542.830778 C 1072.640472 542.830778 1077.290501 545.409784 1080.038504 548.352352 " stroke="#603913" stroke-width="1" stroke-opacity="1" stroke-miterlimit="10"/><path stroke-linecap="butt" transform="matrix(0.688, 0, 0, 0.687644, -145.386443, -7.188174)" fill-opacity="1" fill="#be9e7d" fill-rule="nonzero" stroke-linejoin="miter" d="M 1007.892076 558.248012 C 1007.892076 558.248012 1008.982193 568.387939 1017.981334 576.647578 " stroke="#603913" stroke-width="1" stroke-opacity="1" stroke-miterlimit="10"/><path stroke-linecap="butt" transform="matrix(0.688, 0, 0, 0.687644, -145.386443, -7.188174)" fill="none" stroke-linejoin="miter" d="M 842.699636 580.499046 C 842.699636 580.499046 810.677454 592.439734 799.009798 625.398758 " stroke="#603913" stroke-width="1" stroke-opacity="1" stroke-miterlimit="10"/><path stroke-linecap="butt" transform="matrix(0.688, 0, 0, 0.687644, -145.386443, -7.188174)" fill-opacity="1" fill="#caa88a" fill-rule="nonzero" stroke-linejoin="miter" d="M 1041.532399 580.090041 C 1041.532399 580.090041 1061.608717 565.96231 1070.857677 566.757598 C 1070.857677 566.757598 1074.780962 567.501761 1080.998034 561.230344 C 1086.908511 555.271361 1089.480506 547.017403 1095.601057 550.289447 C 1104.452579 555.038455 1095.788421 563.62757 1095.788421 563.62757 L 1077.557353 583.418891 " stroke="#603913" stroke-width="1" stroke-opacity="1" stroke-miterlimit="10"/><path stroke-linecap="butt" transform="matrix(0.688, 0, 0, 0.687644, -145.386443, -7.188174)" fill-opacity="1" fill="#caa88a" fill-rule="nonzero" stroke-linejoin="miter" d="M 1090.530878 569.302521 L 1098.491002 561.440527 L 1101.500179 548.312587 C 1101.500179 548.312587 1103.402206 541.779861 1110.249502 542.410411 C 1117.897353 543.109129 1116.608516 552.107249 1116.608516 552.107249 L 1111.180643 569.342286 L 1095.6919 586.821589 " stroke="#603913" stroke-width="1" stroke-opacity="1" stroke-miterlimit="10"/><path stroke-linecap="butt" transform="matrix(0.688, 0, 0, 0.687644, -145.386443, -7.188174)" fill-opacity="1" fill="#caa88a" fill-rule="nonzero" stroke-linejoin="miter" d="M 1111.180643 569.347966 L 1115.989648 565.581707 L 1118.998825 552.448087 C 1118.998825 552.448087 1120.900851 545.921041 1127.748148 546.551591 C 1135.401676 547.250309 1134.11284 556.24843 1134.11284 556.24843 L 1128.679289 573.477785 L 1113.190546 590.957089 " stroke="#603913" stroke-width="1" stroke-opacity="1" stroke-miterlimit="10"/><path fill="#ae8578" d="M 331.054688 176.46875 C 331.054688 176.46875 339.90625 176.640625 348.582031 182.511719 C 348.582031 182.511719 357.402344 183.585938 364.296875 187.695312 C 364.296875 187.695312 359.0625 200.769531 345.5625 199.59375 C 332.066406 198.417969 328.238281 184.191406 331.054688 176.472656 Z M 331.054688 176.46875 " fill-opacity="1" fill-rule="nonzero"/><path fill="#803435" d="M 332.746094 178.078125 C 332.746094 178.078125 328.726562 189.847656 344.089844 194.917969 C 358.042969 199.515625 361.621094 189.042969 361.621094 189.042969 C 361.621094 189.042969 345.671875 184.566406 332.746094 178.082031 Z M 332.746094 178.078125 " fill-opacity="1" fill-rule="nonzero"/><path fill="#ffffff" d="M 334.597656 178.875 C 334.597656 178.875 336.875 184.472656 348.949219 187.8125 C 348.949219 187.8125 355.882812 191.734375 360.246094 188.84375 C 360.246094 188.84375 344.8125 184.128906 334.597656 178.875 Z M 334.597656 178.875 " fill-opacity="1" fill-rule="nonzero"/><g clip-path="url(#451b41a3a3)"><path fill="#b19074" d="M 132.847656 481.257812 C 132.847656 481.257812 89.820312 594.429688 188.191406 596.21875 C 286.558594 598.007812 307.65625 598.363281 307.65625 598.363281 C 307.65625 598.363281 296.652344 702.8125 303.808594 776.105469 C 304.125 781.492188 368.027344 794.851562 388.46875 770.171875 C 388.46875 770.171875 409.679688 677.871094 415.042969 601 C 415.042969 601 384.964844 703.917969 388.46875 766.886719 C 388.46875 766.886719 445.957031 781.675781 467.367188 752.914062 C 467.367188 752.914062 499.105469 593.847656 483.011719 545.574219 C 466.914062 497.308594 360.699219 469.625 360.699219 469.625 C 360.699219 469.625 288.175781 551.804688 132.847656 481.25 Z M 132.847656 481.257812 " fill-opacity="1" fill-rule="nonzero"/></g><g clip-path="url(#73f658d21e)"><path stroke-linecap="butt" transform="matrix(0.688, 0, 0, 0.687644, -145.386443, -7.188174)" fill="none" stroke-linejoin="miter" d="M 666.571961 759.910435 C 666.571961 759.910435 786.711918 790.369982 812.199076 827.867831 C 837.180919 864.610157 775.95837 1125.691987 775.95837 1125.691987 " stroke="#603913" stroke-width="1" stroke-opacity="1" stroke-miterlimit="10"/></g><path stroke-linecap="butt" transform="matrix(0.688, 0, 0, 0.687644, -145.386443, -7.188174)" fill-opacity="1" fill="#caa88a" fill-rule="nonzero" stroke-linejoin="miter" d="M 547.982015 541.50719 L 556.231701 563.309455 C 619.850236 570.972627 745.321545 623.978601 745.321545 623.978601 L 764.409945 627.142712 L 780.120118 628.2902 L 806.720103 640.747825 L 862.07192 676.990255 C 862.07192 676.990255 868.822695 679.211382 864.348674 685.522564 C 859.000288 693.072123 849.728618 684.909056 849.728618 684.909056 C 859.159264 692.112096 853.152266 696.139664 853.152266 696.139664 C 846.077862 703.961894 841.160981 699.042467 841.160981 699.042467 C 841.978569 711.687553 828.647349 709.398258 828.647349 709.398258 C 824.701353 719.418893 814.651839 715.152738 814.651839 715.152738 C 814.651839 715.152738 756.557697 695.060344 753.628008 685.011307 C 750.698319 674.96227 729.702215 669.74745 729.702215 669.74745 C 729.702215 669.74745 557.401305 669.338444 514.398468 644.587932 C 471.401309 619.848781 440.781517 557.7822 440.781517 557.7822 " stroke="#754c29" stroke-width="1" stroke-opacity="1" stroke-miterlimit="10"/><path stroke-linecap="butt" transform="matrix(0.688, 0, 0, 0.687644, -145.386443, -7.188174)" fill="none" stroke-linejoin="miter" d="M 849.739973 684.909056 L 836.272489 676.388108 " stroke="#754c29" stroke-width="0.7" stroke-opacity="1" stroke-miterlimit="10"/><path stroke-linecap="butt" transform="matrix(0.688, 0, 0, 0.687644, -145.386443, -7.188174)" fill="none" stroke-linejoin="miter" d="M 841.172336 699.031106 L 827.182504 690.669216 " stroke="#754c29" stroke-width="0.7" stroke-opacity="1" stroke-miterlimit="10"/><path stroke-linecap="butt" transform="matrix(0.688, 0, 0, 0.687644, -145.386443, -7.188174)" fill="none" stroke-linejoin="miter" d="M 828.488373 709.528913 L 817.50204 702.081605 " stroke="#754c29" stroke-width="0.7" stroke-opacity="1" stroke-miterlimit="10"/><path fill="#ba9777" d="M 442.804688 432.003906 L 430.75 433.136719 L 419.714844 429.554688 L 408.542969 430.65625 C 408.542969 430.65625 398.882812 439.203125 401.089844 443.480469 C 403.300781 447.757812 413.785156 439.066406 413.785156 439.066406 L 417.09375 439.066406 L 440.824219 454.507812 L 452.671875 454.378906 C 452.671875 454.378906 452.960938 437.867188 442.804688 432.003906 Z M 442.804688 432.003906 " fill-opacity="1" fill-rule="nonzero"/><path stroke-linecap="butt" transform="matrix(0.688, 0, 0, 0.687644, -145.386443, -7.188174)" fill-opacity="1" fill="#e6e7e8" fill-rule="nonzero" stroke-linejoin="miter" d="M 522.580022 368.969366 C 566.008686 430.587177 559.450952 536.127632 559.450952 536.127632 C 559.450952 536.127632 480.451549 575.698912 415.589599 551.260835 " stroke="#808285" stroke-width="1" stroke-opacity="1" stroke-miterlimit="10"/><path fill="#ba9777" d="M 441.828125 431.980469 L 489.941406 428.160156 L 509.109375 406.15625 L 545.214844 428.308594 C 545.214844 428.308594 520.96875 459.042969 508.070312 462.074219 C 495.167969 465.105469 443.3125 454.824219 443.3125 454.824219 " fill-opacity="1" fill-rule="nonzero"/><g clip-path="url(#5931ee54b1)"><path fill="#be9e7d" d="M 533.523438 664.585938 C 533.523438 664.585938 525.839844 689.4375 510.234375 694.105469 C 510.234375 694.105469 503.886719 681.382812 495.789062 673.976562 C 495.789062 673.976562 479.214844 589.519531 479.398438 558.507812 C 479.398438 558.507812 486.101562 558.488281 522.976562 553.625 C 522.976562 553.625 536.746094 599.246094 533.085938 621.433594 C 529.425781 643.632812 533.523438 664.578125 533.523438 664.578125 Z M 533.523438 664.585938 " fill-opacity="1" fill-rule="nonzero"/></g><g clip-path="url(#4416a3bd69)"><path fill="#dc3b28" d="M 544.140625 698.582031 C 544.140625 698.582031 550.601562 710.25 548.503906 714.925781 C 548.503906 714.925781 536.773438 720.015625 520.550781 716.5625 C 520.550781 716.5625 511.742188 714.636719 502.875 722.359375 C 494.011719 730.082031 458.394531 735.253906 446.484375 725.195312 C 434.578125 715.132812 453.832031 703.304688 453.832031 703.304688 C 453.832031 703.304688 481.023438 694.359375 485.082031 681.789062 C 489.148438 669.21875 495.78125 673.992188 495.78125 673.992188 C 495.78125 673.992188 509.023438 683.074219 511.246094 692.167969 C 511.246094 692.167969 525.75 687.421875 533.519531 664.597656 L 538.074219 674.507812 C 538.074219 674.507812 530.132812 693.210938 517.003906 697.894531 C 517.003906 697.894531 522.515625 708.683594 544.140625 698.589844 Z M 544.140625 698.582031 " fill-opacity="1" fill-rule="nonzero"/></g><g clip-path="url(#11f2378217)"><path fill="#be9e7d" d="M 579.890625 676.171875 C 579.890625 676.171875 572.203125 701.023438 556.601562 705.691406 C 556.601562 705.691406 550.25 692.96875 542.152344 685.566406 C 542.152344 685.566406 524.394531 594.941406 524.582031 563.933594 C 524.582031 563.933594 546.171875 580.980469 583.046875 576.121094 C 583.046875 576.121094 583.109375 610.832031 579.449219 633.027344 C 575.789062 655.226562 579.890625 676.171875 579.890625 676.171875 Z M 579.890625 676.171875 " fill-opacity="1" fill-rule="nonzero"/></g><path fill="#be9e7d" d="M 623.550781 299.78125 C 623.550781 299.78125 621.457031 307.070312 620.097656 315.5625 C 620.097656 315.5625 618.890625 343.234375 587.03125 351.003906 C 587.03125 351.003906 551.359375 347.871094 569.660156 321.375 C 569.660156 321.375 572.734375 319.773438 571.652344 314.457031 C 571.652344 314.457031 613.855469 316.941406 623.542969 299.78125 Z M 623.550781 299.78125 " fill-opacity="1" fill-rule="nonzero"/><path fill="#be9e7d" d="M 575.644531 221.34375 C 575.644531 221.34375 565.488281 225.792969 559.964844 246.234375 C 559.359375 248.464844 559.875 253.222656 558.71875 254.804688 C 549.691406 267.179688 549.382812 280.625 551.867188 288.710938 C 552.480469 290.710938 552.472656 292.976562 552.96875 294.8125 C 556.558594 308.207031 574.996094 314.917969 574.996094 314.917969 C 574.996094 314.917969 613.207031 318.101562 623.550781 299.777344 C 623.550781 299.777344 629.320312 312.105469 640.769531 300.554688 C 640.769531 300.554688 653.636719 287.957031 647.230469 281.964844 C 647.230469 281.964844 639.953125 276.683594 632.804688 283.96875 C 632.804688 283.96875 647.421875 250.222656 637.070312 241.402344 C 637.070312 241.402344 615.769531 204.578125 575.636719 221.34375 Z M 575.644531 221.34375 " fill-opacity="1" fill-rule="nonzero"/><path stroke-linecap="butt" transform="matrix(0.688, 0, 0, 0.687644, -145.386443, -7.188174)" fill="none" stroke-linejoin="miter" d="M 1045.251287 401.8375 C 1045.251287 401.8375 1032.272084 413.602089 1048.402406 419.36793 " stroke="#231f20" stroke-width="0.8" stroke-opacity="1" stroke-miterlimit="10"/><path stroke-linecap="butt" transform="matrix(0.688, 0, 0, 0.687644, -145.386443, -7.188174)" fill="none" stroke-linejoin="miter" d="M 1148.170805 430.871209 C 1148.170805 430.871209 1146.478853 416.57874 1131.228573 435.120321 C 1131.228573 435.120321 1142.050253 427.951364 1141.601715 436.27917 " stroke="#231f20" stroke-width="0.8" stroke-opacity="1" stroke-miterlimit="10"/><path fill="#26130f" d="M 572.140625 313.589844 C 572.140625 313.589844 578.910156 315.8125 586.925781 314.910156 C 586.925781 314.910156 593.785156 315.207031 603.238281 312.585938 C 603.238281 312.585938 595.988281 317.3125 583.796875 317.800781 C 583.796875 317.800781 577.472656 318.398438 571.652344 315.542969 C 571.652344 315.542969 571.992188 315.75 572.140625 313.589844 Z M 572.140625 313.589844 " fill-opacity="1" fill-rule="nonzero"/><path fill="#dc3b28" d="M 569.726562 321.320312 C 534.613281 335.691406 532.726562 346.066406 524.292969 361.511719 C 515.019531 378.503906 506.292969 405.179688 506.292969 405.179688 C 512.960938 417.996094 539.929688 425.636719 539.929688 425.636719 C 537.734375 455.789062 541.527344 494.910156 541.527344 494.910156 C 585.730469 524.175781 667.417969 495.402344 667.417969 495.402344 C 672.109375 448.882812 672.308594 429.375 672.308594 429.375 C 672.308594 429.375 675.753906 374.46875 667.417969 357.972656 C 653.167969 329.792969 620.097656 315.5625 620.097656 315.5625 C 610.140625 346.859375 579.1875 342.078125 579.1875 342.078125 C 558.746094 338.882812 569.660156 321.375 569.660156 321.375 " fill-opacity="1" fill-rule="nonzero"/><path fill="#26130f" d="M 597.074219 255.320312 C 597.074219 255.320312 611.566406 258.007812 616.121094 264.019531 C 616.121094 264.019531 613.980469 256.714844 597.820312 252.753906 C 597.820312 252.753906 594.503906 253.121094 597.074219 255.320312 Z M 597.074219 255.320312 " fill-opacity="1" fill-rule="nonzero"/><path fill="#26130f" d="M 560.199219 246.675781 C 560.570312 246.113281 568.117188 246.441406 574.929688 247.925781 C 574.929688 247.925781 577.832031 249.734375 574.433594 250.554688 C 574.433594 250.554688 562.234375 246.539062 560.011719 249.425781 C 560.011719 249.425781 559.277344 248.066406 560.199219 246.675781 Z M 560.199219 246.675781 " fill-opacity="1" fill-rule="nonzero"/><path fill="#be1e2d" d="M 620.164062 315.507812 C 620.164062 315.507812 613.648438 342.917969 579.257812 342.023438 C 579.257812 342.023438 559 338.351562 569.726562 321.320312 C 569.726562 321.320312 565.585938 322.542969 564.277344 323.554688 C 564.277344 323.554688 553.945312 344.402344 578.90625 347.03125 C 578.90625 347.03125 606.578125 347.902344 618.453125 330.574219 C 618.453125 330.574219 623.640625 322.648438 625.0625 316.816406 Z M 620.164062 315.507812 " fill-opacity="1" fill-rule="nonzero"/><path fill="#ffffff" d="M 607.066406 268.804688 C 607.066406 268.804688 607.160156 268.472656 606.996094 268.128906 C 606.445312 266.988281 605.070312 264.746094 602.125 263.910156 C 598.835938 262.964844 596.132812 265.53125 595.195312 266.460938 C 595.039062 266.617188 594.996094 266.789062 594.996094 266.789062 C 594.996094 266.789062 594.9375 266.96875 595.003906 267.125 C 595.355469 267.890625 596.613281 270.089844 599.71875 271.03125 C 601.5625 271.597656 604.457031 271.34375 606.789062 269.292969 C 606.953125 269.148438 607.023438 268.929688 607.050781 268.8125 Z M 607.066406 268.804688 " fill-opacity="1" fill-rule="nonzero"/><path fill="#26130f" d="M 603.660156 267.4375 C 603.660156 267.90625 603.570312 268.355469 603.390625 268.792969 C 603.210938 269.226562 602.953125 269.609375 602.621094 269.941406 C 602.289062 270.273438 601.90625 270.527344 601.472656 270.707031 C 601.039062 270.886719 600.585938 270.976562 600.117188 270.976562 C 599.644531 270.976562 599.195312 270.886719 598.761719 270.707031 C 598.324219 270.527344 597.941406 270.273438 597.609375 269.941406 C 597.277344 269.609375 597.023438 269.226562 596.84375 268.792969 C 596.664062 268.355469 596.574219 267.90625 596.574219 267.4375 C 596.574219 266.964844 596.664062 266.515625 596.84375 266.082031 C 597.023438 265.648438 597.277344 265.265625 597.609375 264.933594 C 597.941406 264.601562 598.324219 264.34375 598.761719 264.164062 C 599.195312 263.984375 599.644531 263.894531 600.117188 263.894531 C 600.585938 263.894531 601.039062 263.984375 601.472656 264.164062 C 601.90625 264.34375 602.289062 264.601562 602.621094 264.933594 C 602.953125 265.265625 603.210938 265.648438 603.390625 266.082031 C 603.570312 266.515625 603.660156 266.964844 603.660156 267.4375 Z M 603.660156 267.4375 " fill-opacity="1" fill-rule="nonzero"/><path fill="#ffffff" d="M 603.433594 267.359375 C 603.433594 267.628906 603.335938 267.855469 603.148438 268.046875 C 602.957031 268.234375 602.730469 268.328125 602.460938 268.328125 C 602.195312 268.328125 601.964844 268.234375 601.777344 268.046875 C 601.585938 267.855469 601.492188 267.628906 601.492188 267.359375 C 601.492188 267.09375 601.585938 266.863281 601.777344 266.675781 C 601.964844 266.484375 602.195312 266.390625 602.460938 266.390625 C 602.730469 266.390625 602.957031 266.484375 603.148438 266.675781 C 603.335938 266.863281 603.433594 267.09375 603.433594 267.359375 Z M 603.433594 267.359375 " fill-opacity="1" fill-rule="nonzero"/><path stroke-linecap="butt" transform="matrix(0.688, 0, 0, 0.687644, -145.386443, -7.188174)" fill="none" stroke-linejoin="miter" d="M 1076.149285 397.861058 C 1076.149285 397.861058 1085.250625 388.118775 1093.789874 400.388939 " stroke="#231f20" stroke-width="0.5" stroke-opacity="1" stroke-miterlimit="10"/><path fill="#ffffff" d="M 571.621094 260.175781 C 571.621094 260.175781 571.757812 259.886719 571.652344 259.546875 C 571.308594 258.421875 570.359375 256.179688 567.789062 254.988281 C 564.90625 253.664062 562.0625 255.636719 561.078125 256.351562 C 560.90625 256.476562 560.851562 256.625 560.851562 256.625 C 560.851562 256.625 560.769531 256.785156 560.8125 256.941406 C 561.023438 257.691406 561.871094 259.886719 564.582031 261.191406 C 566.199219 261.96875 568.882812 262.148438 571.308594 260.59375 C 571.480469 260.484375 571.578125 260.292969 571.621094 260.1875 Z M 571.621094 260.175781 " fill-opacity="1" fill-rule="nonzero"/><path fill="#26130f" d="M 568.710938 257.933594 C 568.710938 258.367188 568.625 258.785156 568.460938 259.183594 C 568.292969 259.585938 568.058594 259.941406 567.75 260.246094 C 567.441406 260.554688 567.089844 260.789062 566.6875 260.957031 C 566.285156 261.121094 565.867188 261.207031 565.433594 261.207031 C 565 261.207031 564.582031 261.121094 564.179688 260.957031 C 563.78125 260.789062 563.425781 260.554688 563.117188 260.246094 C 562.8125 259.941406 562.574219 259.585938 562.410156 259.183594 C 562.242188 258.785156 562.160156 258.367188 562.160156 257.933594 C 562.160156 257.5 562.242188 257.082031 562.410156 256.679688 C 562.574219 256.277344 562.8125 255.925781 563.117188 255.617188 C 563.425781 255.3125 563.78125 255.074219 564.179688 254.910156 C 564.582031 254.742188 565 254.660156 565.433594 254.660156 C 565.867188 254.660156 566.285156 254.742188 566.6875 254.910156 C 567.089844 255.074219 567.441406 255.3125 567.75 255.617188 C 568.058594 255.925781 568.292969 256.277344 568.460938 256.679688 C 568.625 257.082031 568.710938 257.5 568.710938 257.933594 Z M 568.710938 257.933594 " fill-opacity="1" fill-rule="nonzero"/><path fill="#ffffff" d="M 568.585938 258.289062 C 568.585938 258.542969 568.496094 258.757812 568.316406 258.9375 C 568.136719 259.117188 567.921875 259.203125 567.671875 259.203125 C 567.417969 259.203125 567.203125 259.117188 567.023438 258.9375 C 566.84375 258.757812 566.753906 258.542969 566.753906 258.289062 C 566.753906 258.039062 566.84375 257.824219 567.023438 257.644531 C 567.203125 257.464844 567.417969 257.375 567.671875 257.375 C 567.921875 257.375 568.136719 257.464844 568.316406 257.644531 C 568.496094 257.824219 568.585938 258.039062 568.585938 258.289062 Z M 568.585938 258.289062 " fill-opacity="1" fill-rule="nonzero"/><path stroke-linecap="butt" transform="matrix(0.688, 0, 0, 0.687644, -145.386443, -7.188174)" fill="none" stroke-linejoin="miter" d="M 1026.702268 383.358406 C 1026.702268 383.358406 1036.371377 374.962432 1042.270499 388.130136 " stroke="#231f20" stroke-width="0.5" stroke-opacity="1" stroke-miterlimit="10"/><path stroke-linecap="butt" transform="matrix(0.688, 0, 0, 0.687644, -145.386443, -7.188174)" fill-opacity="1" fill="#dc3b28" fill-rule="nonzero" stroke-linejoin="miter" d="M 996.110865 629.437688 C 996.110865 629.437688 992.380622 586.571641 996.088155 562.502805 " stroke="#be1e2d" stroke-width="1" stroke-opacity="1" stroke-miterlimit="10"/><path fill="#1fa8df" d="M 522.976562 553.632812 C 522.976562 553.632812 521.703125 557.175781 522.414062 559.644531 C 528.496094 580.996094 583.039062 576.121094 583.039062 576.121094 C 584.457031 574.140625 583.671875 572.667969 583.671875 572.667969 C 583.671875 572.667969 633.519531 578.128906 654.296875 565.046875 C 675.074219 551.96875 666.550781 504.699219 666.550781 504.699219 C 565.050781 527.730469 541.527344 494.910156 541.527344 494.910156 C 541.527344 494.910156 503.019531 501.394531 486.707031 521.898438 C 472.882812 539.273438 479.394531 558.507812 479.394531 558.507812 C 479.394531 558.507812 490.160156 568.238281 515.050781 560.488281 L 520.957031 556.410156 Z M 522.976562 553.632812 " fill-opacity="1" fill-rule="nonzero"/><path fill="#1c75bc" d="M 666.550781 504.707031 L 667.417969 495.410156 C 667.417969 495.410156 586.953125 520.703125 537.5 491.972656 C 537.5 491.972656 535.335938 496.296875 533.175781 497.382812 C 533.175781 497.382812 567.382812 530.074219 666.550781 504.714844 Z M 666.550781 504.707031 " fill-opacity="1" fill-rule="nonzero"/><path stroke-linecap="butt" transform="matrix(0.688, 0, 0, 0.687644, -145.386443, -7.188174)" fill="none" stroke-linejoin="miter" d="M 971.458328 815.569264 C 971.458328 815.569264 970.600997 809.968161 977.942252 792.897863 C 989.502032 766.011433 1034.872467 763.199521 1034.872467 763.199521 " stroke="#231f20" stroke-width="1.2" stroke-opacity="1" stroke-miterlimit="10"/><path fill="#ae8578" d="M 589.453125 292.492188 C 589.453125 292.492188 584.503906 289.171875 577.453125 289.070312 C 577.453125 289.070312 572.175781 286.265625 566.78125 285.871094 C 566.78125 285.871094 564.621094 295.101562 572.527344 299.652344 C 580.433594 304.203125 588.027344 297.828125 589.453125 292.492188 Z M 589.453125 292.492188 " fill-opacity="1" fill-rule="nonzero"/><path fill="#803435" d="M 587.898438 292.726562 C 587.898438 292.726562 585.570312 300.773438 575.140625 297.644531 C 565.667969 294.804688 567.738281 287.644531 567.738281 287.644531 C 567.738281 287.644531 578.265625 291.324219 587.898438 292.726562 Z M 587.898438 292.726562 " fill-opacity="1" fill-rule="nonzero"/><path fill="#ffffff" d="M 586.570312 292.453125 C 586.570312 292.453125 582.867188 295.390625 574.914062 292.582031 C 574.914062 292.582031 569.863281 291.339844 568.570312 288.070312 C 568.570312 288.070312 578.90625 291.414062 586.570312 292.460938 Z M 586.570312 292.453125 " fill-opacity="1" fill-rule="nonzero"/><path fill="#231f20" d="M 570.296875 215.375 C 562.949219 233.253906 561.988281 242.640625 561.988281 242.640625 C 568.847656 224.636719 574.53125 224.191406 574.53125 224.191406 C 599.222656 216.082031 631.082031 240.582031 631.082031 240.582031 C 638.824219 258.289062 631.910156 284.539062 631.910156 284.539062 C 640.714844 277.207031 646.355469 281.683594 646.355469 281.683594 C 666.453125 247.335938 647.113281 231.808594 647.113281 231.808594 C 647.113281 231.808594 635.480469 208.9375 607.160156 204.550781 C 578.84375 200.15625 570.304688 215.375 570.304688 215.375 Z M 570.296875 215.375 " fill-opacity="1" fill-rule="nonzero"/><path fill="#be9e7d" d="M 669.15625 429.835938 C 669.15625 429.835938 670.382812 443.996094 667.980469 459.578125 C 665.578125 475.160156 663.949219 485.070312 647.78125 495.691406 C 630.472656 507.058594 581.257812 528.917969 581.257812 528.917969 C 581.257812 528.917969 566.960938 539.371094 554.191406 539.714844 C 554.191406 539.714844 556.828125 545.546875 553.578125 547.101562 C 553.578125 547.101562 551.851562 547.78125 546.921875 543.738281 C 546.921875 543.738281 544.980469 547.769531 539.710938 540.996094 C 539.710938 540.996094 537.007812 545.457031 532.980469 539.984375 L 531.226562 536.550781 C 531.226562 536.550781 528.535156 541.207031 526.507812 539.949219 C 524.476562 538.691406 526.34375 533.292969 526.34375 533.292969 C 526.34375 533.292969 526.460938 524.65625 530.691406 523.054688 C 534.921875 521.453125 544.167969 514.671875 544.167969 514.671875 L 575.453125 510.8125 C 575.453125 510.8125 593.78125 487.9375 622.53125 459.976562 C 622.53125 459.976562 621.390625 438.671875 623.398438 423.421875 C 623.398438 423.421875 645.476562 438.265625 669.164062 429.84375 Z M 669.15625 429.835938 " fill-opacity="1" fill-rule="nonzero"/><path stroke-linecap="butt" transform="matrix(0.688, 0, 0, 0.687644, -145.386443, -7.188174)" fill="none" stroke-linejoin="miter" d="M 1047.721083 753.292499 L 1002.24845 758.899283 L 982.660414 771.089918 C 982.660414 771.089918 978.498666 772.890678 977.028144 778.849661 C 975.568977 784.808643 974.950108 792.102574 974.950108 792.102574 C 974.950108 792.102574 975.790407 801.640355 983.438258 790.727862 C 983.438258 790.727862 986.748352 801.589229 992.732639 799.419228 C 992.732639 799.419228 994.810674 798.379672 995.770204 797.19242 C 995.770204 797.19242 1003.389666 807.491406 1006.251223 801.180224 C 1006.251223 801.180224 998.739637 793.392078 1001.629582 788.768044 C 1004.519527 784.14969 1010.61169 782.860187 1010.61169 782.860187 " stroke="#603913" stroke-width="0.7" stroke-opacity="1" stroke-miterlimit="10"/><path stroke-linecap="butt" transform="matrix(0.688, 0, 0, 0.687644, -145.386443, -7.188174)" fill="none" stroke-linejoin="miter" d="M 983.438258 790.727862 C 983.438258 790.727862 982.450339 779.588143 984.897424 776.282015 C 987.350187 772.981568 994.112318 769.879944 994.112318 769.879944 " stroke="#603913" stroke-width="0.7" stroke-opacity="1" stroke-miterlimit="10"/><path stroke-linecap="butt" transform="matrix(0.688, 0, 0, 0.687644, -145.386443, -7.188174)" fill="none" stroke-linejoin="miter" d="M 995.770204 797.19242 C 995.770204 797.19242 985.391383 779.758562 1003.259079 775.549214 " stroke="#603913" stroke-width="0.7" stroke-opacity="1" stroke-miterlimit="10"/><path stroke-linecap="butt" transform="matrix(0.688, 0, 0, 0.687644, -145.386443, -7.188174)" fill="none" stroke-linejoin="miter" d="M 1006.262578 801.180224 C 1006.262578 801.180224 1011.168104 806.480253 1015.937365 806.071248 C 1020.712304 805.662242 1016.828762 795.329173 1016.828762 795.329173 C 1016.828762 795.329173 1034.287664 794.278256 1056.169488 779.627907 " stroke="#603913" stroke-width="0.7" stroke-opacity="1" stroke-miterlimit="10"/><path stroke-linecap="butt" transform="matrix(0.688, 0, 0, 0.687644, -145.386443, -7.188174)" fill-opacity="1" fill="#dc3b28" fill-rule="nonzero" stroke-linejoin="miter" d="M 1145.360347 511.678194 C 1113.37791 521.642022 1111.810867 620.200981 1111.810867 620.200981 C 1111.810867 620.200981 1134.521634 650.069742 1188.510804 634.868371 " stroke="#be1e2d" stroke-width="1" stroke-opacity="1" stroke-miterlimit="10"/></svg>