<?xml version="1.0" encoding="UTF-8"?>
<svg xmlns="http://www.w3.org/2000/svg" xmlns:xlink="http://www.w3.org/1999/xlink" viewBox="0 0 1540.66 1238.27">
  <defs>
    <style>
      .cls-1, .cls-2, .cls-3, .cls-4, .cls-5, .cls-6, .cls-7, .cls-8, .cls-9, .cls-10, .cls-11, .cls-12, .cls-13, .cls-14 {
        fill: none;
      }

      .cls-2 {
        stroke-width: 1.5px;
      }

      .cls-2, .cls-3, .cls-15, .cls-4, .cls-5, .cls-6, .cls-7, .cls-16, .cls-17, .cls-18, .cls-19, .cls-20, .cls-21, .cls-22, .cls-8, .cls-9, .cls-10, .cls-11, .cls-12, .cls-13, .cls-23, .cls-14 {
        stroke-miterlimit: 10;
      }

      .cls-2, .cls-3, .cls-5, .cls-7, .cls-9, .cls-13, .cls-14 {
        stroke: #231f20;
      }

      .cls-24 {
        clip-path: url(#clippath);
      }

      .cls-3 {
        stroke-width: .8px;
      }

      .cls-25 {
        fill: #f7daa6;
      }

      .cls-26, .cls-15, .cls-17 {
        fill: #e6e7e8;
      }

      .cls-27, .cls-23 {
        fill: #fff;
      }

      .cls-28 {
        fill: #803435;
      }

      .cls-29 {
        fill: #87664d;
      }

      .cls-30 {
        fill: #ba9777;
      }

      .cls-31 {
        fill: #b19074;
      }

      .cls-32 {
        fill: #ae8578;
      }

      .cls-33 {
        fill: #b1dcc4;
      }

      .cls-34 {
        fill: #b0c2cc;
      }

      .cls-35 {
        fill: #be1e2d;
      }

      .cls-36, .cls-21 {
        fill: #be9e7d;
      }

      .cls-37, .cls-19, .cls-20 {
        fill: #caa88a;
      }

      .cls-38 {
        fill: #d1d3d4;
      }

      .cls-39 {
        fill: #e2c799;
      }

      .cls-40 {
        fill: #d4d5d6;
      }

      .cls-41, .cls-18 {
        fill: #dc3b28;
      }

      .cls-42 {
        fill: #231f20;
      }

      .cls-43 {
        fill: #1fa8df;
      }

      .cls-44 {
        fill: #1c75bc;
      }

      .cls-45 {
        fill: #444848;
      }

      .cls-46, .cls-22 {
        fill: #727b78;
      }

      .cls-47 {
        fill: #26130f;
      }

      .cls-15 {
        stroke: #58595b;
        stroke-width: .2px;
      }

      .cls-4 {
        stroke: #b0c2cc;
        stroke-width: 5px;
      }

      .cls-48 {
        clip-path: url(#clippath-1);
      }

      .cls-5, .cls-6, .cls-23 {
        stroke-width: .7px;
      }

      .cls-6, .cls-19, .cls-21, .cls-11 {
        stroke: #603913;
      }

      .cls-7 {
        stroke-linecap: round;
      }

      .cls-7, .cls-16, .cls-14 {
        stroke-width: .5px;
      }

      .cls-16 {
        fill: #754c29;
        stroke: #fff;
      }

      .cls-17 {
        stroke: #808285;
      }

      .cls-18 {
        stroke: #be1e2d;
      }

      .cls-20, .cls-23 {
        stroke: #754c29;
      }

      .cls-22 {
        stroke: #414042;
      }

      .cls-8 {
        stroke: #444848;
        stroke-width: 2px;
      }

      .cls-10 {
        stroke: #d1d3d4;
      }

      .cls-12 {
        stroke: #6d6e71;
      }

      .cls-13 {
        stroke-width: 1.2px;
      }
    </style>
    <clipPath id="clippath">
      <rect class="cls-1" x="195.97" y="257.47" width="1344.69" height="742.9"/>
    </clipPath>
    <clipPath id="clippath-1">
      <rect class="cls-1" x="355.29" y="4.45" width="888.24" height="995.62"/>
    </clipPath>
  </defs>
  <g id="Layer_2" data-name="Layer 2">
    <rect class="cls-33" x="196.33" width="1333.64" height="1000.04"/>
    <g class="cls-24">
      <g>
        <rect class="cls-45" x="726.3" y="843.1" width="96.09" height="153.7"/>
        <path class="cls-46" d="M1328.3,310.88s70.89,8.73,69.86,67.55l-25.56,221.8v246.12H192.66l-39.54-244.66-18.01-222.6s-6.24-68.93,114.22-77.17c0,0,506.2-51.16,1078.96,8.97Z"/>
        <rect class="cls-45" x="31.1" y="995.1" width="1471.67" height="83.24"/>
        <rect class="cls-29" x="31.13" y="1077.69" width="82.08" height="72.3"/>
        <rect class="cls-29" x="1420.81" y="1076.8" width="82.08" height="52.01"/>
        <path class="cls-45" d="M89.25,601.53h69.78s37.23,11.72,37.23,53.26v189.22H76.87s12.38-242.48,12.38-242.48Z"/>
        <path class="cls-45" d="M1447.01,601.53h-69.78s-37.23,11.72-37.23,53.26v189.22h119.39l-12.38-242.48Z"/>
        <rect class="cls-46" x=".85" y="601.53" width="140.83" height="282.6" rx="15.24" ry="15.24"/>
        <rect class="cls-46" x="1387.81" y="601.53" width="140.83" height="282.6" rx="15.66" ry="15.66"/>
        <rect class="cls-22" x=".5" y="844.27" width="768.28" height="152.54" rx="36.95" ry="36.95"/>
        <rect class="cls-22" x="769.88" y="844.27" width="760.59" height="152.54" rx="36.95" ry="36.95"/>
        <g>
          <line class="cls-8" x1="925.34" y1="665.5" x2="925.34" y2="843.09"/>
          <line class="cls-8" x1="936.47" y1="669.49" x2="936.47" y2="843.09"/>
          <line class="cls-8" x1="946.97" y1="651.43" x2="946.97" y2="843.09"/>
          <line class="cls-8" x1="958.1" y1="655.74" x2="958.1" y2="843.09"/>
          <line class="cls-8" x1="1006.99" y1="326.41" x2="1006.99" y2="843.09"/>
          <line class="cls-8" x1="1018.12" y1="338.03" x2="1018.12" y2="843.09"/>
          <line class="cls-8" x1="1028.63" y1="285.5" x2="1028.63" y2="843.09"/>
          <line class="cls-8" x1="1039.75" y1="298.03" x2="1039.75" y2="843.09"/>
          <line class="cls-8" x1="1088.15" y1="326.41" x2="1088.15" y2="843.09"/>
          <line class="cls-8" x1="1099.28" y1="338.03" x2="1099.28" y2="843.09"/>
          <line class="cls-8" x1="1109.78" y1="298.62" x2="1109.78" y2="843.09"/>
          <line class="cls-8" x1="1120.91" y1="298.03" x2="1120.91" y2="843.09"/>
          <line class="cls-8" x1="1173.55" y1="326.41" x2="1173.55" y2="843.09"/>
          <line class="cls-8" x1="1184.67" y1="338.03" x2="1184.67" y2="843.09"/>
          <line class="cls-8" x1="1195.18" y1="301.48" x2="1195.18" y2="843.09"/>
          <line class="cls-8" x1="1206.31" y1="298.03" x2="1206.31" y2="843.09"/>
          <line class="cls-8" x1="1296.48" y1="326.41" x2="1296.48" y2="843.09"/>
          <line class="cls-8" x1="1307.61" y1="338.03" x2="1307.61" y2="843.09"/>
          <line class="cls-8" x1="1318.12" y1="313.17" x2="1318.12" y2="843.09"/>
          <line class="cls-8" x1="1329.24" y1="310.88" x2="1329.24" y2="843.09"/>
        </g>
        <g>
          <line class="cls-8" x1="612.64" y1="665.5" x2="612.64" y2="843.09"/>
          <line class="cls-8" x1="601.52" y1="669.49" x2="601.52" y2="843.09"/>
          <line class="cls-8" x1="591.01" y1="651.43" x2="591.01" y2="843.09"/>
          <line class="cls-8" x1="579.88" y1="655.74" x2="579.88" y2="843.09"/>
          <line class="cls-8" x1="530.99" y1="326.41" x2="530.99" y2="843.09"/>
          <line class="cls-8" x1="519.86" y1="338.03" x2="519.86" y2="843.09"/>
          <line class="cls-8" x1="509.36" y1="285.5" x2="509.36" y2="843.09"/>
          <line class="cls-8" x1="498.23" y1="298.03" x2="498.23" y2="843.09"/>
          <line class="cls-8" x1="449.83" y1="326.41" x2="449.83" y2="843.09"/>
          <line class="cls-8" x1="438.71" y1="338.03" x2="438.71" y2="843.09"/>
          <line class="cls-8" x1="428.2" y1="285.5" x2="428.2" y2="843.09"/>
          <line class="cls-8" x1="417.08" y1="298.03" x2="417.08" y2="843.09"/>
          <line class="cls-8" x1="364.44" y1="326.41" x2="364.44" y2="843.09"/>
          <line class="cls-8" x1="353.31" y1="338.03" x2="353.31" y2="843.09"/>
          <line class="cls-8" x1="342.8" y1="299.57" x2="342.8" y2="843.09"/>
          <line class="cls-8" x1="331.68" y1="298.03" x2="331.68" y2="843.09"/>
          <line class="cls-8" x1="241.5" y1="326.41" x2="241.5" y2="843.09"/>
          <line class="cls-8" x1="230.37" y1="338.03" x2="230.37" y2="843.09"/>
          <line class="cls-8" x1="219.87" y1="313.17" x2="219.87" y2="843.09"/>
          <line class="cls-8" x1="208.74" y1="310.88" x2="208.74" y2="843.09"/>
        </g>
        <path class="cls-4" d="M767.94,819.93c9-8.25,15.76-.87,24.76-9.12,9-8.25,2.25-15.62,11.25-23.87,9-8.25,15.76-.87,24.76-9.12s2.25-15.62,11.25-23.87,15.76-.87,24.76-9.12c9-8.25,2.25-15.62,11.25-23.87s15.76-.87,24.76-9.12,2.25-15.62,11.25-23.87,15.76-.87,24.76-9.12,2.25-15.62,11.25-23.87,15.76-.87,24.76-9.12c9-8.25,2.25-15.62,11.25-23.87s15.76-.87,24.76-9.12c9-8.25,2.25-15.62,11.25-23.87s15.76-.88,24.76-9.12c9-8.25,2.25-15.62,11.25-23.87s15.76-.88,24.76-9.12,2.25-15.62,11.25-23.87,15.76-.87,24.76-9.12,2.25-15.62,11.25-23.87,15.76-.88,24.76-9.12c9-8.25,2.25-15.62,11.25-23.87s15.76-.88,24.76-9.12c9-8.25,2.25-15.62,11.25-23.87,9-8.25,15.76-.88,24.76-9.13,9-8.25,2.25-15.62,11.25-23.87s15.76-.87,24.76-9.12c9-8.25,2.25-15.62,11.25-23.87,9.01-8.25,15.76-.88,24.77-9.13,9.01-8.25,2.25-15.63,11.26-23.88,9.01-8.25,15.76-.88,24.77-9.13"/>
        <path class="cls-4" d="M239.06,307.45c8.6,8.27,1.67,15.47,10.26,23.74s15.53,1.06,24.13,9.33,1.67,15.47,10.26,23.74,15.53,1.06,24.13,9.33,1.67,15.47,10.26,23.74c8.6,8.27,15.53,1.06,24.13,9.33s1.67,15.48,10.27,23.74c8.6,8.27,15.53,1.06,24.13,9.32,8.6,8.27,1.67,15.48,10.27,23.74s15.53,1.06,24.13,9.33,1.67,15.48,10.27,23.74,15.53,1.06,24.13,9.33,1.67,15.48,10.27,23.74,15.53,1.06,24.13,9.33,1.67,15.48,10.27,23.74,15.53,1.06,24.13,9.33,1.67,15.48,10.27,23.74,15.53,1.06,24.13,9.33,1.67,15.48,10.26,23.74,15.53,1.06,24.13,9.32c8.6,8.27,1.67,15.48,10.27,23.74,8.6,8.27,15.53,1.06,24.13,9.33,8.6,8.27,1.67,15.48,10.27,23.74,8.6,8.27,15.53,1.06,24.13,9.33s1.67,15.48,10.27,23.75c8.6,8.27,15.53,1.06,24.13,9.33s1.67,15.48,10.27,23.74,15.53,1.06,24.13,9.33,1.67,15.48,10.27,23.75c8.6,8.27,15.53,1.06,24.14,9.33s1.67,15.48,10.28,23.75"/>
        <path class="cls-34" d="M769.02,822.06l559.28-511.18s-513.27-72.86-1095.52-7.05"/>
      </g>
    </g>
  </g>
  <g id="Layer_1" data-name="Layer 1">
    <g class="cls-48">
      <g>
        <path class="cls-37" d="M827.76,545.86l23.43,31.69s-40.68,8.27,0,0c40.68-8.27,142-18.74,142-18.74,5.05-.27,9.97-.47,14.69-.57,0,0,9.93-23.68,54.27-22.72l29.46-9.64s17.61-1.01,7.61,13.06c0,0-10.53,6.03-19.16,9.3l15.72,15.41s-.2-3.15,10.59,2.21c8.77,4.36,5.42,6.27,5.42,6.27,0,0,11.58-8.95,24.98-15.38,8.72-4.19,13.45-11.23,22.14-4.77,0,0,7.47,6.87-6.41,15.91l-28.6,25.42-56.59,8.21-39.46-4.58-18.71,14.14s-169.28,93.55-200.52,82.97c-31.25-10.58-55.48-66.97-55.48-66.97"/>
        <path class="cls-37" d="M613.67,238.57s-7.22,36.85-27.61,64.72c0,0-2.85,104.11,77.27,119.25,0,0,59.92-36.48,41.99-106.58l-91.64-77.4Z"/>
        <g>
          <path class="cls-26" d="M415.59,551.26s-27.18,94.4-11.18,159.06c0,0,115.73,72.39,220.41,59.82,0,0,84.89-28.91,110.77-76.73,0,0,17.35-50.23,1.32-86.83-3.03-6.91,18.98,40.49,21.58,29.82,0,0,62.75-89.45,76.2-92.36l-27.73-82.95s-5.69-57.83-39.1-96.34c0,0-19.48-13.08-41.56-27.02l-52.36,25.55-15.48,62.14-9.06-57.13s.18-16.14-62.55-68.16c0,0-75.61,14.08-114.7,41.94,0,0-44.44,49.61-46.64,100.11l-9.92,109.08Z"/>
          <path class="cls-40" d="M586.84,300.12s54.18,46.02,62.55,68.16l1.88-20.12s-43.51-38.31-55.83-61.54l-8.59,13.5Z"/>
          <path class="cls-40" d="M706.87,320.49s22.79,3.32,19.42,17.23l-52.36,25.55,.6-11.99s23.71-6.57,41.07-20.96c0,0-9.39-2.96-8.73-9.84Z"/>
          <path class="cls-12" d="M658.46,425.41s5.67,57.33-46.34,335.29"/>
          <ellipse class="cls-38" cx="643.88" cy="430.83" rx="3.81" ry="3.67" transform="translate(106.78 989.15) rotate(-79.9)"/>
          <ellipse class="cls-38" cx="641.83" cy="495.41" rx="3.81" ry="3.67" transform="translate(41.5 1040.38) rotate(-79.9)"/>
          <ellipse class="cls-38" cx="634.21" cy="564.37" rx="3.81" ry="3.67" transform="translate(-32.67 1089.74) rotate(-79.9)"/>
          <ellipse class="cls-38" cx="624.39" cy="626.77" rx="3.81" ry="3.67" transform="translate(-102.19 1131.53) rotate(-79.9)"/>
          <ellipse class="cls-38" cx="612.29" cy="705.26" rx="3.81" ry="3.67" transform="translate(-189.44 1184.33) rotate(-79.9)"/>
          <path class="cls-38" d="M545.28,448.37l-6.87,56.53s26.54,36.52,65.31,11.64l10.9-61.16s-25.21,9.41-69.34-7.01Z"/>
          <path class="cls-38" d="M694.56,474.97l-6.87,56.53s26.54,36.52,65.31,11.64l10.9-61.16s-25.21,9.41-69.34-7.01Z"/>
          <path class="cls-38" d="M500.04,649.95l-7.78,64.07s30.08,41.38,74.02,13.19l12.35-69.32s-28.57,10.67-78.59-7.94Z"/>
          <path class="cls-38" d="M650.31,633.71l3.86,64.43s37.03,35.3,75.18-.33l-.31-70.41s-26.19,15.63-78.74,6.31Z"/>
          <path class="cls-10" d="M565.48,304.2s43.09,128.49-38.79,455.97"/>
          <path class="cls-10" d="M574.68,302.93s41.47,132.56-40.41,460.03"/>
          <path class="cls-10" d="M583.71,301.09s40.93,136.41-40.95,463.88"/>
          <path class="cls-10" d="M556.16,306.18s44.23,124.1-37.65,451.57"/>
          <path class="cls-10" d="M724.93,337.69s41.84,112.25-46.6,401.52"/>
          <path class="cls-10" d="M735.37,344.64s39.73,104.58-48.7,393.85"/>
          <path class="cls-10" d="M746.06,351.38s39.29,95.89-49.14,385.16"/>
          <path class="cls-10" d="M715.61,338.89s41.99,111.61-46.45,400.88"/>
        </g>
        <path class="cls-37" d="M790.31,137.22s10.9,27.74-7.16,83.77c0,0-5.69,13.13-6.01,20.88-.32,7.76-5.74,18.97-7.98,27.3-12.67,47.13-38.07,55.25-38.07,55.25,0,0-10.43,13.74-37.44,7.5-27.01-6.24-51.21-21.41-58.16-35.12-6.94-13.71-23.04-38.21-21.21-56.25,0,0-16.88-.23-18.74-21.06,0,0-10.17-34.13,9.11-37.7,19.29-3.58,23.53,22.94,23.53,22.94,0,0-10.01-76.63,36.43-94.59,0,0,65.42-28.26,125.69,27.06Z"/>
        <path class="cls-26" d="M721.33,187.58s-21.94-10.17-43.31-4.75c0,0,12.18-14.05,44.93-1.98,0,0,4.94,5.16-1.62,6.73Z"/>
        <path class="cls-26" d="M787.68,209.81c-14.52-8.5-23.89-6.88-23.89-6.88-4.88-4.66,1.99-6.63,1.99-6.63,10.71,1.89,18.42,4.96,23.96,8.3,0,0-1.26,5.68-2.06,5.21Z"/>
        <path class="cls-9" d="M600.54,194.35s9.42-7.76,13.57,4.39c4.15,12.14,3.52,15.57,3.52,15.57,0,0-5.47-18.94-13.45-7.55"/>
        <path class="cls-15" d="M597.92,183.46s16.12-8.31,22.42,7.5c6.29,15.8,3.05,21.44,3.05,21.44l8.98,2.16s-17.19-54.43,17.52-65.64c0,0,2.44-37.13,30.68-35.37,28.24,1.76,48.05-21.52,112,30,0,0,16.86-38.62-53.1-67.97,0,0-47.16-20.41-67.9,.95,0,0-33.47-5.15-53.57,35.7-20.1,40.85-20.08,71.24-20.08,71.24Z"/>
        <path class="cls-47" d="M700.35,333.14s-30.72-5.83-47.3-18.4c0,0-13.85-7.4-24.1-29.04,0,0,11.98,31.55,39.8,42.5,.14,.05,.26,.09,.4,.14,1.28,.49,16.97,6.7,28.38,8.65,0,0,3.28-3,2.82-3.85Z"/>
        <path class="cls-3" d="M710.14,149.49s20.17,8.61,29.38,13.84c9.2,5.23,40.09,6.32,40.09,6.32"/>
        <path class="cls-26" d="M711.11,255.42s-16.48,6.02-28.05,4.68c0,0,.67,4.83,5.54,5.44,0,0,19.75,1.57,28.89,9.31,0,0,14.38,.96,25.89,7.96,0,0,1.16,1.39,4.07,1.65,0,0-10.19-13.38-8.24-18.34,0,0-12.66,2.3-18.59-8.28,0,0-3.85,.67-9.51-2.42Z"/>
        <path class="cls-9" d="M739.97,221.88l4.25,31.17s.76,16.7-11.8,13.24c-10.42-2.87-10.08-6.28-10.08-6.28"/>
        <path class="cls-3" d="M676.09,266.45s1.42-12.29,9.24-13.18c7.82-.9,15.07-13.75,15.07-13.75"/>
        <g>
          <path class="cls-27" d="M688.76,197.7s.16-.62,.75-1.01c1.96-1.29,6.3-3.53,11.77-2.07,6.13,1.64,7.97,8.3,8.58,10.67,.1,.41,0,.71,0,.71,0,0-.07,.35-.34,.53-1.28,.87-5.39,3.17-11.23,1.71-3.47-.87-7.83-4.03-9.58-9.52-.12-.38-.03-.8,.04-1.02Z"/>
          <circle class="cls-47" cx="701.13" cy="202.17" r="6.56"/>
          <circle class="cls-27" cx="699.3" cy="197.65" r="1.8"/>
          <path class="cls-5" d="M710.24,205.4s-3.55-16.63-20.95-8.82"/>
        </g>
        <g>
          <path class="cls-27" d="M758.8,222.12s.06-.6,.56-1.04c1.64-1.48,5.35-4.19,10.65-3.61,5.94,.65,8.6,6.58,9.5,8.69,.15,.36,.1,.66,.1,.66,0,0-.02,.33-.24,.54-1.07,1-4.56,3.72-10.19,3.2-3.35-.31-7.86-2.63-10.27-7.48-.17-.34-.14-.74-.11-.96Z"/>
          <circle class="cls-47" cx="770.94" cy="224.49" r="6.15"/>
          <circle class="cls-27" cx="768.38" cy="220.07" r="1.72"/>
          <path class="cls-5" d="M779.59,226.37s-5.14-15.76-20.44-5.07"/>
        </g>
        <g>
          <path class="cls-39" d="M607.39,122.1s23.44-45.26,33.94-55.64c10.5-10.38,106.46-14.77,132.19,10.73,0,0,3.85,10.78,1.7,14.72"/>
          <path class="cls-25" d="M600.61,174.01s-69.27-5.83-70.24-14.72c-2.24-20.65,46.4-30.54,46.4-30.54,0,0,116.79-27.33,159.23-38.68,32.13-8.6,104.91-18.89,113.86,15.86,8.95,34.75-55.65,61.45-55.65,61.45,0,0-114.01-34.52-191.25-6.62,0,0-3.24,7.23-2.36,13.25Z"/>
          <path class="cls-2" d="M794.21,167.38s61.22-33.62,30.95-58.83c-24.35-20.28-73.88-8.05-125.41,12.25-51.53,20.3-125.17,26.83-125.17,26.83,0,0-31.82,13.23,26.02,26.37"/>
        </g>
        <path class="cls-21" d="M1072.64,542.83s4.65,2.58,7.4,5.52"/>
        <path class="cls-21" d="M1007.89,558.25s1.09,10.14,10.09,18.4"/>
        <path class="cls-11" d="M842.7,580.5s-32.02,11.94-43.69,44.9"/>
        <path class="cls-19" d="M1041.53,580.09s20.08-14.13,29.33-13.33c0,0,3.92,.74,10.14-5.53,5.91-5.96,8.48-14.21,14.6-10.94,8.85,4.75,.19,13.34,.19,13.34l-18.23,19.79"/>
        <path class="cls-19" d="M1090.53,569.3l7.96-7.86,3.01-13.13s1.9-6.53,8.75-5.9c7.65,.7,6.36,9.7,6.36,9.7l-5.43,17.23-15.49,17.48"/>
        <path class="cls-19" d="M1111.18,569.35l4.81-3.77,3.01-13.13s1.9-6.53,8.75-5.9c7.65,.7,6.36,9.7,6.36,9.7l-5.43,17.23-15.49,17.48"/>
        <path class="cls-32" d="M692.5,267.08s12.87,.25,25.48,8.79c0,0,12.82,1.56,22.84,7.54,0,0-7.61,19.01-27.23,17.3-19.62-1.71-25.18-22.4-21.09-33.62Z"/>
        <path class="cls-28" d="M694.96,269.42s-5.84,17.12,16.49,24.49c20.28,6.69,25.48-8.54,25.48-8.54,0,0-23.18-6.51-41.97-15.94Z"/>
        <path class="cls-27" d="M697.65,270.58s3.31,8.14,20.86,13c0,0,10.08,5.7,16.42,1.5,0,0-22.43-6.86-37.28-14.5Z"/>
        <path class="cls-16" d="M764.69,1120.94s-12.4,17.75-7.54,43.37c0,0,17.26,27.64,85.68,26.67,0,0,50.58,36.97,114.62,24.81,0,0,52.85-7.78,14.92-45.39,0,0-49.77-45.88-93.62-57.96,0,0-38.91,32.42-114.05,8.5Z"/>
        <path class="cls-16" d="M659.53,1139.1s-12.62,18.15-7.59,44.29c0,0,17.7,28.18,87.54,27.01,0,0,51.73,37.61,117.08,25.04,0,0,53.94-8.08,15.11-46.38,0,0-50.93-46.72-95.73-58.94,0,0-39.64,33.2-116.42,8.97Z"/>
        <path class="cls-31" d="M404.41,710.32s-62.54,164.58,80.44,167.18c142.98,2.6,173.64,3.12,173.64,3.12,0,0-15.99,151.89-5.59,258.48,.46,7.83,93.34,27.26,123.05-8.63,0,0,30.83-134.23,38.63-246.02,0,0-43.72,149.67-38.63,241.24,0,0,83.56,21.51,114.68-20.32,0,0,46.13-231.32,22.74-301.52-23.4-70.19-177.78-110.45-177.78-110.45,0,0-105.41,119.51-331.18,16.91Z"/>
        <path class="cls-11" d="M666.57,759.91s120.14,30.46,145.63,67.96c24.98,36.74-36.24,297.82-36.24,297.82"/>
        <path class="cls-20" d="M547.98,541.51l8.25,21.8c63.62,7.66,189.09,60.67,189.09,60.67l19.09,3.16,15.71,1.15,26.6,12.46,55.35,36.24s6.75,2.22,2.28,8.53c-5.35,7.55-14.62-.61-14.62-.61,9.43,7.2,3.42,11.23,3.42,11.23-7.07,7.82-11.99,2.9-11.99,2.9,.82,12.65-12.51,10.36-12.51,10.36-3.95,10.02-14,5.75-14,5.75,0,0-58.09-20.09-61.02-30.14-2.93-10.05-23.93-15.26-23.93-15.26,0,0-172.3-.41-215.3-25.16-43-24.74-73.62-86.81-73.62-86.81"/>
        <line class="cls-23" x1="849.74" y1="684.91" x2="836.27" y2="676.39"/>
        <line class="cls-23" x1="841.17" y1="699.03" x2="827.18" y2="690.67"/>
        <line class="cls-23" x1="828.49" y1="709.53" x2="817.5" y2="702.08"/>
        <path class="cls-30" d="M854.93,638.69l-17.52,1.65-16.04-5.21-16.24,1.6s-14.04,12.43-10.83,18.65,18.45-6.42,18.45-6.42h4.81l34.49,22.46,17.22-.19s.42-24.01-14.34-32.54Z"/>
        <path class="cls-17" d="M522.58,368.97c43.43,61.62,36.87,167.16,36.87,167.16,0,0-79,39.57-143.86,15.13"/>
      </g>
      <g>
        <path class="cls-30" d="M853.51,638.66l69.93-5.56,27.86-32,52.48,32.22s-35.24,44.69-53.99,49.1c-18.75,4.41-94.12-10.54-94.12-10.54"/>
        <g>
          <path class="cls-36" d="M993.41,991.34s13.67,23.46,8.82,35.02c0,0-24.15,16.76-41.55,.14,0,0,22.14-11.37,32.73-35.15Z"/>
          <path class="cls-36" d="M986.79,976.92s-11.17,36.14-33.85,42.93c0,0-9.23-18.5-21-29.27,0,0-24.09-122.82-23.82-167.92,0,0,9.74-.03,63.34-7.1,0,0,20.01,66.34,14.69,98.61-5.32,32.28,.64,62.74,.64,62.74Z"/>
          <path class="cls-41" d="M1002.22,1026.36s9.39,16.97,6.34,23.77c0,0-17.05,7.4-40.63,2.38,0,0-12.8-2.8-25.69,8.43-12.88,11.23-64.65,18.75-81.96,4.12-17.31-14.63,10.68-31.83,10.68-31.83,0,0,39.52-13.01,45.42-31.29,5.91-18.28,15.55-11.34,15.55-11.34,0,0,19.25,13.21,22.48,26.43,0,0,21.08-6.9,32.37-40.09l6.62,14.41s-11.54,27.2-30.62,34.01c0,0,8.01,15.69,39.44,1.01Z"/>
          <circle class="cls-42" cx="956.97" cy="1023.76" r="8.67"/>
          <circle class="cls-42" cx="935.69" cy="1049.32" r="5.74"/>
          <circle class="cls-42" cx="917.13" cy="1057.56" r="5.74"/>
          <circle class="cls-42" cx="895.74" cy="1061.47" r="5.74"/>
          <circle class="cls-42" cx="877.4" cy="1060.01" r="5.74"/>
          <circle class="cls-42" cx="861.56" cy="1054.81" r="5.74"/>
          <path class="cls-7" d="M932.55,1036.63s-41.87,20.46-64.6,4.05"/>
        </g>
        <g>
          <path class="cls-36" d="M1060.79,1008.18s13.67,23.46,8.82,35.02c0,0-24.15,16.76-41.55,.14,0,0,22.14-11.37,32.73-35.15Z"/>
          <path class="cls-36" d="M1054.18,993.77s-11.17,36.14-33.85,42.93c0,0-9.23-18.5-21-29.27,0,0-25.81-131.79-25.54-176.88,0,0,31.38,24.79,84.98,17.72,0,0,.09,50.48-5.23,82.76-5.32,32.28,.64,62.74,.64,62.74Z"/>
          <path class="cls-41" d="M1069.61,1043.2s9.39,16.97,6.34,23.77c0,0-17.05,7.4-40.63,2.38,0,0-12.8-2.8-25.69,8.43-12.88,11.23-64.65,18.75-81.96,4.12-17.31-14.63,10.68-31.83,10.68-31.83,0,0,39.52-13.01,45.42-31.29,5.91-18.28,15.55-11.34,15.55-11.34,0,0,19.25,13.21,22.48,26.43,0,0,21.08-6.9,32.37-40.09l6.62,14.41s-11.54,27.2-30.62,34.01c0,0,8.01,15.69,39.44,1.01Z"/>
          <circle class="cls-42" cx="1024.35" cy="1040.61" r="8.67"/>
          <circle class="cls-42" cx="1003.08" cy="1066.17" r="5.74"/>
          <circle class="cls-42" cx="984.52" cy="1074.41" r="5.74"/>
          <circle class="cls-42" cx="963.12" cy="1078.32" r="5.74"/>
          <circle class="cls-42" cx="944.79" cy="1076.85" r="5.74"/>
          <circle class="cls-42" cx="928.94" cy="1071.66" r="5.74"/>
          <path class="cls-7" d="M999.93,1053.48s-41.87,20.46-64.6,4.05"/>
        </g>
        <path class="cls-36" d="M1117.64,446.41s-3.04,10.6-5.02,22.95c0,0-1.75,40.24-48.06,51.54,0,0-51.85-4.56-25.25-43.09,0,0,4.47-2.33,2.9-10.06,0,0,61.34,3.61,75.42-21.34Z"/>
        <path class="cls-36" d="M1048.01,332.34s-14.76,6.47-22.79,36.2c-.88,3.24-.13,10.16-1.81,12.46-13.12,18-13.57,37.55-9.96,49.31,.89,2.91,.88,6.2,1.6,8.87,5.22,19.48,32.02,29.24,32.02,29.24,0,0,55.54,4.63,70.57-22.02,0,0,8.39,17.93,25.03,1.13,0,0,18.7-18.32,9.39-27.03,0,0-10.58-7.68-20.97,2.91,0,0,21.25-49.07,6.2-61.9,0,0-30.96-53.55-89.29-29.17Z"/>
        <path class="cls-3" d="M1045.25,401.84s-12.98,11.76,3.15,17.53"/>
        <path class="cls-3" d="M1148.17,430.87s-1.69-14.29-16.94,4.25c0,0,10.82-7.17,10.37,1.16"/>
        <path class="cls-47" d="M1042.92,466.49s9.84,3.23,21.49,1.92c0,0,9.97,.43,23.71-3.38,0,0-10.54,6.87-28.26,7.58,0,0-9.19,.87-17.65-3.28,0,0,.49,.3,.71-2.84Z"/>
        <path class="cls-41" d="M1039.41,477.73c-51.04,20.9-53.78,35.99-66.04,58.45-13.48,24.71-26.16,63.5-26.16,63.5,9.69,18.64,48.89,29.75,48.89,29.75-3.19,43.85,2.32,100.74,2.32,100.74,64.25,42.56,182.98,.72,182.98,.72,6.82-67.65,7.11-96.02,7.11-96.02,0,0,5.01-79.85-7.11-103.84-20.71-40.98-68.78-61.67-68.78-61.67-14.47,45.51-59.46,38.56-59.46,38.56-29.71-4.65-13.85-30.11-13.85-30.11"/>
        <path class="cls-47" d="M1079.16,381.75s21.06,3.91,27.68,12.65c0,0-3.11-10.62-26.6-16.38,0,0-4.82,.53-1.08,3.73Z"/>
        <path class="cls-47" d="M1025.56,369.18c.54-.82,11.51-.34,21.41,1.82,0,0,4.22,2.63-.72,3.82,0,0-17.73-5.84-20.96-1.64,0,0-1.07-1.98,.27-4Z"/>
        <path class="cls-35" d="M1112.72,469.28s-9.47,39.86-59.46,38.56c0,0-29.44-5.34-13.85-30.11,0,0-6.02,1.78-7.92,3.25,0,0-15.02,30.32,21.26,34.14,0,0,40.22,1.27,57.48-23.93,0,0,7.54-11.53,9.61-20.01l-7.12-1.9Z"/>
        <g>
          <path class="cls-27" d="M1093.68,401.36s.14-.48-.1-.98c-.8-1.66-2.8-4.92-7.08-6.14-4.78-1.37-8.71,2.36-10.07,3.71-.23,.23-.29,.48-.29,.48,0,0-.09,.26,.01,.49,.51,1.11,2.34,4.31,6.85,5.68,2.68,.82,6.89,.45,10.28-2.53,.24-.21,.34-.53,.38-.7Z"/>
          <circle class="cls-47" cx="1083.58" cy="399.37" r="5.15"/>
          <circle class="cls-27" cx="1086.99" cy="399.26" r="1.41"/>
          <path class="cls-14" d="M1076.15,397.86s9.1-9.74,17.64,2.53"/>
        </g>
        <g>
          <path class="cls-27" d="M1042.16,388.81s.2-.42,.05-.91c-.5-1.64-1.88-4.9-5.62-6.63-4.19-1.93-8.32,.94-9.75,1.98-.25,.18-.33,.4-.33,.4,0,0-.12,.23-.06,.46,.31,1.09,1.54,4.28,5.48,6.18,2.35,1.13,6.25,1.39,9.78-.87,.25-.16,.39-.44,.45-.59Z"/>
          <circle class="cls-47" cx="1033.17" cy="385.55" r="4.76"/>
          <circle class="cls-27" cx="1036.42" cy="386.07" r="1.33"/>
          <path class="cls-14" d="M1026.7,383.36s9.67-8.4,15.57,4.77"/>
        </g>
        <path class="cls-18" d="M996.11,629.44s-3.73-42.87-.02-66.94"/>
        <path class="cls-43" d="M971.46,815.57s-1.85,5.15-.82,8.74c8.84,31.05,88.12,23.96,88.12,23.96,2.06-2.88,.92-5.02,.92-5.02,0,0,72.45,7.94,102.65-11.08,30.2-19.02,17.81-87.76,17.81-87.76-147.53,33.49-181.72-14.24-181.72-14.24,0,0-55.97,9.43-79.68,39.25-20.09,25.27-10.63,53.24-10.63,53.24,0,0,15.65,14.15,51.83,2.88l8.58-5.93,2.94-4.04Z"/>
        <path class="cls-44" d="M1180.14,744.42l1.26-13.52s-116.95,36.78-188.83-5c0,0-3.15,6.29-6.29,7.87,0,0,49.72,47.54,193.86,10.66Z"/>
        <path class="cls-13" d="M971.46,815.57s-.86-5.6,6.48-22.67c11.56-26.89,56.93-29.7,56.93-29.7"/>
        <path class="cls-32" d="M1068.08,435.81s-7.19-4.83-17.44-4.98c0,0-7.67-4.08-15.51-4.65,0,0-3.14,13.42,8.35,20.04,11.49,6.62,22.53-2.65,24.6-10.41Z"/>
        <path class="cls-28" d="M1065.82,436.15s-3.38,11.7-18.54,7.15c-13.77-4.13-10.76-14.54-10.76-14.54,0,0,15.3,5.35,29.3,7.39Z"/>
        <path class="cls-27" d="M1063.89,435.75s-5.38,4.27-16.94,.19c0,0-7.34-1.81-9.22-6.56,0,0,15.02,4.86,26.16,6.38Z"/>
        <path class="cls-42" d="M1040.24,323.66c-10.68,26-12.08,39.65-12.08,39.65,9.97-26.18,18.23-26.83,18.23-26.83,35.89-11.79,82.2,23.84,82.2,23.84,11.25,25.75,1.2,63.92,1.2,63.92,12.8-10.66,21-4.15,21-4.15,29.21-49.95,1.1-72.53,1.1-72.53,0,0-16.91-33.26-58.07-39.64-41.16-6.39-53.57,15.74-53.57,15.74Z"/>
        <g>
          <path class="cls-36" d="M1183.93,635.54s1.78,20.59-1.71,43.25c-3.49,22.66-5.86,37.07-29.36,52.52-25.16,16.53-96.69,48.32-96.69,48.32,0,0-20.78,15.2-39.34,15.7,0,0,3.83,8.48-.89,10.74,0,0-2.51,.99-9.68-4.89,0,0-2.82,5.86-10.48-3.99,0,0-3.93,6.49-9.78-1.47l-2.55-4.99s-3.91,6.77-6.86,4.94-.24-9.68-.24-9.68c0,0,.17-12.56,6.32-14.89,6.15-2.33,19.59-12.19,19.59-12.19l45.47-5.61s26.64-33.27,68.43-73.93c0,0-1.66-30.98,1.26-53.16,0,0,32.09,21.59,66.52,9.34Z"/>
          <path class="cls-6" d="M1047.72,753.29l-45.47,5.61-19.59,12.19s-4.16,1.8-5.63,7.76c-1.46,5.96-2.08,13.25-2.08,13.25,0,0,.84,9.54,8.49-1.37,0,0,3.31,10.86,9.29,8.69,0,0,2.08-1.04,3.04-2.23,0,0,7.62,10.3,10.48,3.99,0,0-7.51-7.79-4.62-12.41,2.89-4.62,8.98-5.91,8.98-5.91"/>
          <path class="cls-6" d="M983.44,790.73s-.99-11.14,1.46-14.45c2.45-3.3,9.21-6.4,9.21-6.4"/>
          <path class="cls-6" d="M995.77,797.19s-10.38-17.43,7.49-21.64"/>
          <path class="cls-6" d="M1006.26,801.18s4.91,5.3,9.68,4.89,.89-10.74,.89-10.74c0,0,17.46-1.05,39.34-15.7"/>
        </g>
        <path class="cls-18" d="M1145.36,511.68c-31.98,9.96-33.55,108.52-33.55,108.52,0,0,22.71,29.87,76.7,14.67"/>
      </g>
    </g>
  </g>
</svg>