<svg xmlns="http://www.w3.org/2000/svg" xmlns:xlink="http://www.w3.org/1999/xlink" width="1200" zoomAndPan="magnify" viewBox="0 0 900 675.000002" height="900" preserveAspectRatio="xMidYMid meet" version="1.0"><defs><clipPath id="a9e1cf9c98"><path d="M 0.664062 0 L 899.332031 0 L 899.332031 674 L 0.664062 674 Z M 0.664062 0 " clip-rule="nonzero"/></clipPath><clipPath id="9155254edd"><path d="M 0.664062 0 L 899.332031 0 L 899.332031 673.746094 L 0.664062 673.746094 Z M 0.664062 0 " clip-rule="nonzero"/></clipPath><clipPath id="70a90e1535"><path d="M 0.664062 606 L 899.332031 606 L 899.332031 673 L 0.664062 673 Z M 0.664062 606 " clip-rule="nonzero"/></clipPath><clipPath id="816df444cf"><path d="M 0.664062 516 L 899.332031 516 L 899.332031 608 L 0.664062 608 Z M 0.664062 516 " clip-rule="nonzero"/></clipPath><clipPath id="652b1e6634"><path d="M 0.664062 0 L 899.332031 0 L 899.332031 518 L 0.664062 518 Z M 0.664062 0 " clip-rule="nonzero"/></clipPath><clipPath id="e94a4219e5"><path d="M 0.664062 0 L 171 0 L 171 527 L 0.664062 527 Z M 0.664062 0 " clip-rule="nonzero"/></clipPath><clipPath id="786ed698b6"><path d="M 839 140 L 899.332031 140 L 899.332031 368 L 839 368 Z M 839 140 " clip-rule="nonzero"/></clipPath><clipPath id="02ad207ff0"><path d="M 889 237 L 899.332031 237 L 899.332031 292 L 889 292 Z M 889 237 " clip-rule="nonzero"/></clipPath><clipPath id="a4a154fbf9"><path d="M 749 0 L 899.332031 0 L 899.332031 526 L 749 526 Z M 749 0 " clip-rule="nonzero"/></clipPath><clipPath id="0d69e0561d"><path d="M 443 441 L 528 441 L 528 673.746094 L 443 673.746094 Z M 443 441 " clip-rule="nonzero"/></clipPath></defs><g clip-path="url(#a9e1cf9c98)"><path fill="#ffffff" d="M 0.664062 0 L 899.335938 0 L 899.335938 674 L 0.664062 674 Z M 0.664062 0 " fill-opacity="1" fill-rule="nonzero"/><path fill="#ffffff" d="M 0.664062 0 L 899.335938 0 L 899.335938 674 L 0.664062 674 Z M 0.664062 0 " fill-opacity="1" fill-rule="nonzero"/></g><g clip-path="url(#9155254edd)"><path fill="#bde4e0" d="M -50.457031 -66.140625 L 935.28125 -66.140625 L 935.28125 673.046875 L -50.457031 673.046875 Z M -50.457031 -66.140625 " fill-opacity="1" fill-rule="nonzero"/></g><g clip-path="url(#70a90e1535)"><path fill="#87664d" d="M 935.59375 672.816406 L -50.523438 672.816406 L -50.523438 606.523438 L 935.59375 606.523438 Z M 935.59375 672.816406 " fill-opacity="1" fill-rule="nonzero"/></g><g clip-path="url(#816df444cf)"><path fill="#a7a9ac" d="M 935.035156 607.09375 L -50.234375 607.09375 L -50.234375 516.304688 L 935.035156 516.304688 Z M 935.035156 607.09375 " fill-opacity="1" fill-rule="nonzero"/></g><path fill="#456f8c" d="M 155.851562 89.355469 L 714.183594 89.355469 L 714.183594 516.289062 L 155.851562 516.289062 Z M 155.851562 89.355469 " fill-opacity="1" fill-rule="nonzero"/><path stroke-linecap="butt" transform="matrix(0.680504, 0, 0, 0.680579, -50.525202, -66.142231)" fill="none" stroke-linejoin="miter" d="M 365.609266 361.218087 C 365.609266 361.218087 454.192482 772.242026 461.89013 855.397291 " stroke="#2b3990" stroke-width="1" stroke-opacity="1" stroke-miterlimit="10"/><path stroke-linecap="butt" transform="matrix(0.680504, 0, 0, 0.680579, -50.525202, -66.142231)" fill="none" stroke-linejoin="miter" d="M 386.48074 420.169476 C 386.48074 420.169476 652.362412 351.908462 789.789238 246.397471 " stroke="#2b3990" stroke-width="1" stroke-opacity="1" stroke-miterlimit="10"/><path stroke-linecap="butt" transform="matrix(0.680504, 0, 0, 0.680579, -50.525202, -66.142231)" fill="none" stroke-linejoin="miter" d="M 1069.797614 476.021483 C 1069.797614 476.021483 997.510909 709.100732 1009.07173 851.838741 " stroke="#2b3990" stroke-width="1" stroke-opacity="1" stroke-miterlimit="10"/><g clip-path="url(#652b1e6634)"><path fill="#779cbf" d="M -50.074219 517.03125 L -50.074219 232.113281 C -50.074219 232.113281 -56.738281 236.707031 -9.539062 192.363281 C 37.660156 148.015625 160.90625 -9.101562 160.90625 -9.101562 C 160.90625 -9.101562 167.460938 -36.980469 198.925781 -20.507812 C 230.394531 -4.039062 302.507812 49.183594 421.8125 58.050781 C 541.125 66.917969 714.191406 -6.570312 714.191406 -6.570312 C 714.191406 -6.570312 745.65625 -24.308594 758.769531 -4.039062 L 849.238281 150.546875 L 935.769531 218.972656 L 935.382812 516.398438 L 677.105469 516.269531 L 711.570312 288.65625 C 711.570312 288.65625 575.21875 170.820312 522.773438 94.792969 C 522.773438 94.792969 488.027344 99.863281 465.085938 99.230469 C 465.085938 99.230469 347.738281 168.921875 198.273438 179.691406 L 193.410156 209.929688 L 184.226562 235.734375 L 161.777344 289.921875 C 207.183594 355.511719 174.890625 516.3125 174.890625 516.3125 " fill-opacity="1" fill-rule="nonzero"/></g><path stroke-linecap="butt" transform="matrix(0.680504, 0, 0, 0.680579, -50.525202, -66.142231)" fill="none" stroke-linejoin="miter" d="M 365.609266 361.218087 C 365.609266 361.218087 241.339046 371.767464 232.349847 420.180955 C 223.360649 468.588706 261.889066 483.477218 261.889066 483.477218 C 261.889066 483.477218 304.280658 505.821465 311.978306 523.200961 C 311.978306 523.200961 361.43038 423.911692 365.609266 361.229566 Z M 365.609266 361.218087 " stroke="#2b3990" stroke-width="1" stroke-opacity="1" stroke-miterlimit="10"/><path stroke-linecap="butt" transform="matrix(0.680504, 0, 0, 0.680579, -50.525202, -66.142231)" fill="none" stroke-linejoin="miter" d="M 311.978306 523.189482 C 311.978306 523.189482 296.141014 533.951224 278.581653 534.771986 C 261.028032 535.598488 256.740081 555.038499 256.740081 555.038499 C 256.740081 555.038499 252.888387 564.968 277.720618 591.031505 C 302.55285 617.08927 347.510324 690.739764 347.510324 690.739764 C 347.510324 690.739764 311.542048 829.322307 263.708719 855.98273 " stroke="#2b3990" stroke-width="1" stroke-opacity="1" stroke-miterlimit="10"/><g clip-path="url(#e94a4219e5)"><path stroke-linecap="butt" transform="matrix(0.680504, 0, 0, 0.680579, -50.525202, -66.142231)" fill="none" stroke-linejoin="miter" d="M 99.078948 855.988469 C 99.078948 855.988469 46.751019 749.398434 149.822573 518.540409 L 310.698235 83.811939 " stroke="#2b3990" stroke-width="1" stroke-opacity="1" stroke-miterlimit="10"/></g><path stroke-linecap="butt" transform="matrix(0.680504, 0, 0, 0.680579, -50.525202, -66.142231)" fill="none" stroke-linejoin="miter" d="M 458.090098 162.938008 C 594.879758 227.169825 757.689876 242.99963 757.689876 242.99963 C 757.689876 242.99963 638.241449 261.618879 539.980207 242.99963 " stroke="#2b3990" stroke-width="1" stroke-opacity="1" stroke-miterlimit="10"/><path stroke-linecap="butt" transform="matrix(0.680504, 0, 0, 0.680579, -50.525202, -66.142231)" fill="none" stroke-linejoin="miter" d="M 556.35134 276.507391 C 556.35134 276.507391 659.428634 288.612199 757.689876 242.99963 " stroke="#2b3990" stroke-width="1" stroke-opacity="1" stroke-miterlimit="10"/><path stroke-linecap="butt" transform="matrix(0.680504, 0, 0, 0.680579, -50.525202, -66.142231)" fill="none" stroke-linejoin="miter" d="M 1151.681983 81.95231 L 1119.892594 521.329853 " stroke="#2b3990" stroke-width="1" stroke-opacity="1" stroke-miterlimit="10"/><path stroke-linecap="butt" transform="matrix(0.680504, 0, 0, 0.680579, -50.525202, -66.142231)" fill="none" stroke-linejoin="miter" d="M 1165.171521 79.162866 L 1166.968213 854.209194 " stroke="#2b3990" stroke-width="1" stroke-opacity="1" stroke-miterlimit="10"/><g clip-path="url(#786ed698b6)"><path stroke-linecap="butt" transform="matrix(0.680504, 0, 0, 0.680579, -50.525202, -66.142231)" fill="none" stroke-linejoin="miter" d="M 1322.189749 318.400701 C 1322.189749 318.400701 1392.507555 555.778907 1447.418587 623.729983 " stroke="#2b3990" stroke-width="1" stroke-opacity="1" stroke-miterlimit="10"/></g><g clip-path="url(#02ad207ff0)"><path stroke-linecap="butt" transform="matrix(0.680504, 0, 0, 0.680579, -50.525202, -66.142231)" fill="none" stroke-linejoin="miter" d="M 1448.388686 511.090414 C 1448.388686 511.090414 1412.747603 484.091355 1395.412111 460.817294 " stroke="#2b3990" stroke-width="1" stroke-opacity="1" stroke-miterlimit="10"/></g><g clip-path="url(#a4a154fbf9)"><path stroke-linecap="butt" transform="matrix(0.680504, 0, 0, 0.680579, -50.525202, -66.142231)" fill="none" stroke-linejoin="miter" d="M 1189.251782 91.261935 C 1189.251782 91.261935 1359.139604 801.330298 1441.98833 855.322676 " stroke="#2b3990" stroke-width="1" stroke-opacity="1" stroke-miterlimit="10"/></g><path stroke-linecap="butt" transform="matrix(0.680504, 0, 0, 0.680579, -50.525202, -66.142231)" fill="none" stroke-linejoin="miter" d="M 842.4501 236.47945 C 842.4501 236.47945 821.257174 208.550576 817.39974 189.942806 " stroke="#2b3990" stroke-width="1" stroke-opacity="1" stroke-miterlimit="10"/><path fill="#0f3e5d" d="M 645.417969 412.480469 C 668.285156 462.152344 659.585938 485.445312 647 509.730469 C 634.410156 534.011719 538.082031 540.191406 538.082031 540.191406 C 561.453125 585.265625 557.28125 672.90625 557.28125 672.90625 L 445.445312 672.90625 C 397.601562 537.96875 411.855469 487.609375 411.855469 487.609375 C 420.847656 460.632812 489.230469 429.945312 489.230469 429.945312 " fill-opacity="1" fill-rule="nonzero"/><path fill="#ba9777" d="M 437.601562 346.167969 L 437.601562 383.066406 L 354.859375 403.199219 L 350.386719 427.242188 L 438.160156 429.484375 C 438.160156 429.484375 494.625 430.597656 495.183594 375.246094 " fill-opacity="1" fill-rule="nonzero"/><path fill="#be9e7d" d="M 511.457031 195.527344 C 511.457031 195.527344 514.769531 220.679688 524.8125 233.753906 C 524.8125 233.753906 546.917969 300.738281 491.75 315.519531 C 491.75 315.519531 447.699219 314.078125 460.234375 254.484375 C 460.234375 254.484375 469.320312 248.238281 467.261719 238.511719 C 465.085938 228.214844 465.984375 238.996094 465.984375 238.996094 L 511.460938 195.535156 " fill-opacity="1" fill-rule="nonzero"/><path fill="#be9e7d" d="M 506.417969 175.574219 C 506.417969 175.574219 489.964844 124.964844 443.179688 134.144531 C 443.179688 134.144531 410.578125 143.386719 425.570312 188.878906 C 425.570312 188.878906 429.433594 195.765625 429.292969 200.039062 C 429.292969 200.039062 429.578125 210.839844 437.171875 218.953125 C 448.535156 231.09375 458.574219 239.269531 458.574219 239.269531 C 458.574219 239.269531 464.914062 244.808594 476.347656 241.75 C 476.347656 241.75 484.289062 239.273438 492.644531 229.875 C 492.644531 229.875 515.125 210.929688 509.558594 196.160156 C 509.558594 196.160156 522.921875 200.496094 522.929688 181.171875 C 522.929688 181.171875 520.351562 155.140625 506.417969 175.574219 Z M 506.417969 175.574219 " fill-opacity="1" fill-rule="nonzero"/><path fill="#26130f" d="M 460.023438 171.679688 C 460.023438 171.679688 474.054688 162.207031 482.691406 165.152344 C 482.691406 165.152344 474.96875 158.640625 458.53125 168.105469 C 458.53125 168.105469 456.125 171.398438 460.023438 171.6875 Z M 460.023438 171.679688 " fill-opacity="1" fill-rule="nonzero"/><path fill="#26130f" d="M 421.648438 178.65625 C 421.785156 177.742188 429.714844 175.578125 437.390625 175.285156 C 437.390625 175.285156 441.179688 176.789062 438.027344 179.109375 C 438.027344 179.109375 423.683594 177.757812 422.664062 182.546875 C 422.664062 182.546875 421.300781 180.90625 421.648438 178.664062 Z M 421.648438 178.65625 " fill-opacity="1" fill-rule="nonzero"/><path stroke-linecap="butt" transform="matrix(0.680504, 0, 0, 0.680579, -50.525202, -66.142231)" fill="none" stroke-linejoin="miter" d="M 733.552213 388.389333 C 733.552213 388.389333 728.21954 404.930849 744.940828 401.888863 " stroke="#231f20" stroke-width="1" stroke-opacity="1" stroke-miterlimit="10"/><path stroke-linecap="butt" transform="matrix(0.680504, 0, 0, 0.680579, -50.525202, -66.142231)" fill="none" stroke-linejoin="miter" d="M 838.328615 356.591972 C 838.328615 356.591972 827.961761 342.690671 823.208852 371.222202 C 823.208852 371.222202 830.18897 357.217588 834.729492 366.188577 " stroke="#231f20" stroke-width="1" stroke-opacity="1" stroke-miterlimit="10"/><path fill="#26130f" d="M 469.496094 242.574219 C 469.496094 242.574219 473.9375 244.808594 484.914062 237.007812 C 484.914062 237.007812 494.558594 230.367188 501.261719 220.832031 C 501.261719 220.832031 493.726562 236.308594 479.273438 242.472656 C 479.273438 242.472656 475.621094 244.8125 469.378906 244.417969 C 469.378906 244.417969 470.21875 244.078125 469.488281 242.574219 Z M 469.496094 242.574219 " fill-opacity="1" fill-rule="nonzero"/><path fill="#bf6b6b" d="M 480.984375 208.714844 C 480.984375 208.714844 472.832031 208.558594 464.644531 213.664062 C 464.644531 213.664062 456.492188 214.34375 450 217.882812 C 450 217.882812 454.355469 230.105469 466.816406 229.496094 C 479.273438 228.890625 483.296875 215.925781 480.984375 208.722656 Z M 480.984375 208.714844 " fill-opacity="1" fill-rule="nonzero"/><path fill="#803435" d="M 479.371094 210.140625 C 479.371094 210.140625 482.648438 221.117188 468.339844 225.242188 C 455.339844 228.984375 452.414062 219.21875 452.414062 219.21875 C 452.414062 219.21875 467.25 215.660156 479.371094 210.144531 Z M 479.371094 210.140625 " fill-opacity="1" fill-rule="nonzero"/><path fill="#ffffff" d="M 477.632812 210.804688 C 477.632812 210.804688 475.558594 216.925781 464.324219 219.578125 C 464.324219 219.578125 457.59375 221.890625 453.679688 219.082031 C 453.679688 219.082031 468.046875 215.277344 477.628906 210.804688 Z M 477.632812 210.804688 " fill-opacity="1" fill-rule="nonzero"/><path fill="#ffffff" d="M 479.078125 176.46875 C 479.078125 176.46875 478.996094 176.128906 478.675781 175.90625 C 477.605469 175.175781 475.246094 173.898438 472.21875 174.648438 C 468.828125 175.492188 467.746094 179.136719 467.394531 180.433594 C 467.332031 180.65625 467.386719 180.828125 467.386719 180.828125 C 467.386719 180.828125 467.421875 181.015625 467.570312 181.117188 C 468.265625 181.617188 470.507812 182.921875 473.726562 182.175781 C 475.648438 181.730469 478.078125 180.035156 479.097656 177.027344 C 479.164062 176.816406 479.117188 176.585938 479.082031 176.464844 Z M 479.078125 176.46875 " fill-opacity="1" fill-rule="nonzero"/><path fill="#26130f" d="M 475.84375 178.804688 C 475.84375 179.285156 475.753906 179.746094 475.570312 180.1875 C 475.386719 180.628906 475.125 181.023438 474.785156 181.359375 C 474.449219 181.699219 474.058594 181.960938 473.613281 182.144531 C 473.171875 182.328125 472.710938 182.417969 472.230469 182.417969 C 471.753906 182.417969 471.292969 182.328125 470.847656 182.144531 C 470.40625 181.960938 470.015625 181.699219 469.675781 181.359375 C 469.335938 181.023438 469.078125 180.628906 468.894531 180.1875 C 468.710938 179.746094 468.617188 179.285156 468.617188 178.804688 C 468.617188 178.324219 468.710938 177.863281 468.894531 177.421875 C 469.078125 176.980469 469.335938 176.589844 469.675781 176.25 C 470.015625 175.910156 470.40625 175.648438 470.847656 175.464844 C 471.292969 175.28125 471.753906 175.191406 472.230469 175.191406 C 472.710938 175.191406 473.171875 175.28125 473.613281 175.464844 C 474.058594 175.648438 474.449219 175.910156 474.785156 176.25 C 475.125 176.589844 475.386719 176.980469 475.570312 177.421875 C 475.753906 177.863281 475.84375 178.324219 475.84375 178.804688 Z M 475.84375 178.804688 " fill-opacity="1" fill-rule="nonzero"/><path fill="#ffffff" d="M 475.257812 177.546875 C 475.257812 177.675781 475.234375 177.804688 475.183594 177.925781 C 475.132812 178.046875 475.0625 178.15625 474.96875 178.25 C 474.875 178.339844 474.769531 178.414062 474.644531 178.464844 C 474.523438 178.515625 474.398438 178.539062 474.265625 178.539062 C 474.132812 178.539062 474.007812 178.515625 473.886719 178.464844 C 473.765625 178.414062 473.65625 178.339844 473.5625 178.25 C 473.46875 178.15625 473.398438 178.046875 473.347656 177.925781 C 473.296875 177.804688 473.273438 177.675781 473.273438 177.546875 C 473.273438 177.414062 473.296875 177.289062 473.347656 177.164062 C 473.398438 177.042969 473.46875 176.9375 473.5625 176.84375 C 473.65625 176.75 473.765625 176.679688 473.886719 176.628906 C 474.007812 176.578125 474.132812 176.550781 474.265625 176.550781 C 474.398438 176.550781 474.523438 176.578125 474.644531 176.628906 C 474.769531 176.679688 474.875 176.75 474.96875 176.84375 C 475.0625 176.9375 475.132812 177.042969 475.183594 177.164062 C 475.234375 177.289062 475.257812 177.414062 475.257812 177.546875 Z M 475.257812 177.546875 " fill-opacity="1" fill-rule="nonzero"/><path stroke-linecap="butt" transform="matrix(0.680504, 0, 0, 0.680579, -50.525202, -66.142231)" fill="none" stroke-linejoin="miter" d="M 760.772379 362.388964 C 760.772379 362.388964 763.877843 348.992747 777.838081 355.558845 " stroke="#231f20" stroke-width="0.8" stroke-opacity="1" stroke-miterlimit="10"/><path fill="#ffffff" d="M 440.273438 189.148438 C 440.273438 189.148438 440.246094 188.824219 439.980469 188.570312 C 439.089844 187.742188 437.078125 186.214844 434.15625 186.480469 C 430.882812 186.78125 429.359375 190.019531 428.84375 191.171875 C 428.753906 191.367188 428.78125 191.539062 428.78125 191.539062 C 428.78125 191.539062 428.78125 191.722656 428.910156 191.839844 C 429.488281 192.394531 431.386719 193.933594 434.492188 193.695312 C 436.339844 193.558594 438.839844 192.328125 440.214844 189.679688 C 440.308594 189.496094 440.296875 189.273438 440.28125 189.15625 Z M 440.273438 189.148438 " fill-opacity="1" fill-rule="nonzero"/><path fill="#26130f" d="M 436.953125 190.335938 C 436.953125 190.785156 436.867188 191.214844 436.695312 191.632812 C 436.523438 192.046875 436.277344 192.414062 435.960938 192.730469 C 435.644531 193.046875 435.277344 193.292969 434.863281 193.464844 C 434.445312 193.636719 434.015625 193.722656 433.566406 193.722656 C 433.117188 193.722656 432.683594 193.636719 432.269531 193.464844 C 431.851562 193.292969 431.488281 193.046875 431.167969 192.730469 C 430.851562 192.414062 430.605469 192.046875 430.433594 191.632812 C 430.261719 191.214844 430.175781 190.785156 430.175781 190.335938 C 430.175781 189.882812 430.261719 189.453125 430.433594 189.035156 C 430.605469 188.621094 430.851562 188.253906 431.167969 187.9375 C 431.488281 187.621094 431.851562 187.375 432.269531 187.203125 C 432.683594 187.03125 433.117188 186.945312 433.566406 186.945312 C 434.015625 186.945312 434.445312 187.03125 434.863281 187.203125 C 435.277344 187.375 435.644531 187.621094 435.960938 187.9375 C 436.277344 188.253906 436.523438 188.621094 436.695312 189.035156 C 436.867188 189.453125 436.953125 189.882812 436.953125 190.335938 Z M 436.953125 190.335938 " fill-opacity="1" fill-rule="nonzero"/><path fill="#ffffff" d="M 436.703125 189.496094 C 436.703125 189.757812 436.609375 189.980469 436.425781 190.164062 C 436.242188 190.351562 436.015625 190.441406 435.757812 190.441406 C 435.496094 190.441406 435.273438 190.351562 435.085938 190.164062 C 434.902344 189.980469 434.808594 189.757812 434.808594 189.496094 C 434.808594 189.234375 434.902344 189.011719 435.085938 188.828125 C 435.273438 188.644531 435.496094 188.550781 435.757812 188.550781 C 436.015625 188.550781 436.242188 188.644531 436.425781 188.828125 C 436.609375 189.011719 436.703125 189.234375 436.703125 189.496094 Z M 436.703125 189.496094 " fill-opacity="1" fill-rule="nonzero"/><path stroke-linecap="butt" transform="matrix(0.680504, 0, 0, 0.680579, -50.525202, -66.142231)" fill="none" stroke-linejoin="miter" d="M 704.351667 378.241728 C 704.351667 378.241728 708.731462 365.5687 720.95815 374.430636 " stroke="#231f20" stroke-width="0.8" stroke-opacity="1" stroke-miterlimit="10"/><path fill="#ffffff" d="M 468.632812 249.355469 C 468.632812 249.355469 435.015625 264.019531 432.570312 290.304688 C 430.128906 316.589844 432.570312 341.648438 432.570312 341.648438 C 432.570312 341.648438 451.578125 357.660156 460.132812 357.660156 C 460.132812 357.660156 464.492188 378.039062 480.015625 385.3125 C 480.015625 385.3125 491.066406 424.441406 489.230469 429.9375 C 489.230469 429.9375 560.042969 473.597656 645.414062 412.476562 L 582.355469 312.0625 C 582.355469 312.0625 602.730469 309.640625 612.429688 300.90625 C 612.429688 300.90625 604.179688 249 579.929688 236.390625 C 555.675781 223.777344 519.296875 227.65625 519.296875 227.65625 C 519.296875 227.65625 530.597656 244.039062 523.453125 261.398438 C 519.5 270.996094 504.050781 292.039062 475.640625 278.101562 C 475.640625 278.101562 461.492188 270.246094 468.617188 249.339844 Z M 468.632812 249.355469 " fill-opacity="1" fill-rule="nonzero"/><path stroke-linecap="butt" transform="matrix(0.680504, 0, 0, 0.680579, -50.525202, -66.142231)" fill="none" stroke-linejoin="miter" d="M 930.028775 555.721511 C 930.028775 555.721511 908.652162 564.26777 890.828751 564.26777 C 890.828751 564.26777 850.199409 483.72976 896.528798 452.368609 " stroke="#939598" stroke-width="1" stroke-opacity="1" stroke-miterlimit="10"/><path fill="#ba9777" d="M 608.277344 304.230469 C 634.519531 407.171875 605.453125 408.132812 605.453125 408.132812 C 605.453125 408.132812 591.210938 414.238281 569.542969 404.539062 C 550.503906 396.019531 479.507812 347.328125 479.507812 347.328125 C 479.507812 347.328125 452.832031 345.273438 445.644531 344.765625 C 438.457031 344.253906 437.179688 341.171875 437.179688 341.171875 C 431.277344 341.679688 427.433594 334.757812 427.433594 334.757812 C 420.765625 335.269531 419.996094 329.628906 419.996094 329.628906 C 419.996094 329.628906 414.097656 330.136719 414.097656 325.007812 C 414.097656 319.875 422.300781 321.414062 422.300781 321.414062 L 467.964844 316.792969 C 467.964844 316.792969 454.367188 310.121094 451.035156 307.558594 C 447.699219 304.992188 451.292969 302.425781 451.292969 302.425781 C 451.292969 302.425781 458.988281 300.886719 462.582031 304.734375 C 466.175781 308.578125 477.621094 310.117188 477.621094 310.117188 C 493.144531 311.496094 495.210938 330.464844 495.210938 330.464844 L 572.082031 360.566406 L 559.703125 317.492188 C 559.703125 317.492188 594.300781 311.933594 605.589844 305.433594 " fill-opacity="1" fill-rule="nonzero"/><path stroke-linecap="butt" transform="matrix(0.680504, 0, 0, 0.680579, -50.525202, -66.142231)" fill="none" stroke-linejoin="miter" d="M 691.418931 581.520995 L 732.582114 580.780587 " stroke="#754c29" stroke-width="1" stroke-opacity="1" stroke-miterlimit="10"/><path stroke-linecap="butt" transform="matrix(0.680504, 0, 0, 0.680579, -50.525202, -66.142231)" fill="none" stroke-linejoin="miter" d="M 702.348327 589.062824 L 731.927728 589.148918 " stroke="#754c29" stroke-width="1" stroke-opacity="1" stroke-miterlimit="10"/><path stroke-linecap="butt" transform="matrix(0.680504, 0, 0, 0.680579, -50.525202, -66.142231)" fill="none" stroke-linejoin="miter" d="M 716.68168 598.481501 L 739.539272 598.619251 " stroke="#754c29" stroke-width="1" stroke-opacity="1" stroke-miterlimit="10"/><g clip-path="url(#0d69e0561d)"><path stroke-linecap="butt" transform="matrix(0.680504, 0, 0, 0.680579, -50.525202, -66.142231)" fill="none" stroke-linejoin="miter" d="M 802.417742 1085.090178 L 740.939888 847.930077 C 740.939888 847.930077 730.372126 810.932642 779.261657 787.147756 C 828.151189 763.357131 835.458501 760.671001 835.458501 760.671001 " stroke="#231f20" stroke-width="1" stroke-opacity="1" stroke-miterlimit="10"/></g><path stroke-linecap="butt" transform="matrix(0.680504, 0, 0, 0.680579, -50.525202, -66.142231)" fill-opacity="1" fill="#ba9777" fill-rule="nonzero" stroke-linejoin="miter" d="M 717.301624 660.038666 C 717.301624 660.038666 743.591874 660.859428 747.701878 677.291891 " stroke="#754c29" stroke-width="1" stroke-opacity="1" stroke-miterlimit="10"/><path stroke-linecap="butt" transform="matrix(0.680504, 0, 0, 0.680579, -50.525202, -66.142231)" fill-opacity="1" fill="#ba9777" fill-rule="nonzero" stroke-linejoin="miter" d="M 914.909012 627.001552 C 914.909012 627.001552 947.329826 627.17948 948.150679 651.831044 " stroke="#754c29" stroke-width="1" stroke-opacity="1" stroke-miterlimit="10"/><path fill="#3c2415" d="M 436.785156 143.117188 C 436.785156 143.117188 479.375 189.320312 521.167969 179.207031 C 521.167969 179.207031 522.929688 196.882812 509.5625 196.152344 C 509.5625 196.152344 511.378906 217.910156 520.445312 228.105469 C 520.445312 228.105469 531.632812 227.792969 551.484375 228.785156 C 565.074219 229.46875 579.941406 236.394531 579.941406 236.394531 C 579.941406 236.394531 548.054688 220.914062 543.09375 190.96875 C 535.496094 145.128906 505.800781 126.46875 505.800781 126.46875 C 505.800781 126.46875 468.238281 92.445312 433.339844 124.707031 C 433.339844 124.707031 411.78125 131.183594 407.761719 154.394531 C 405.433594 167.8125 412.007812 189.925781 417.445312 207.539062 C 417.445312 207.539062 430 251.335938 452.011719 258.957031 C 452.011719 258.957031 471.625 256.839844 469.992188 241.621094 C 469.992188 241.621094 461.539062 241.621094 458.027344 238.660156 C 450.285156 232.121094 443.226562 226.144531 436.335938 218.265625 C 436.335938 218.265625 429.027344 210.484375 428.972656 197.855469 C 428.972656 197.855469 428.378906 191.355469 425.609375 188.195312 C 425.609375 188.195312 416.144531 162.796875 436.785156 143.121094 " fill-opacity="1" fill-rule="nonzero"/><path stroke-linecap="butt" transform="matrix(0.680504, 0, 0, 0.680579, -50.525202, -66.142231)" fill="none" stroke-linejoin="miter" d="M 826.940001 374.37898 C 826.940001 374.37898 839.821075 385.978703 832.249713 397.119259 C 824.67835 408.259814 824.339677 386.007401 824.339677 386.007401 " stroke="#fbb040" stroke-width="1" stroke-opacity="1" stroke-miterlimit="10"/><path fill="#aa856a" d="M 343.058594 581.484375 C 343.058594 581.484375 345.875 597.714844 355.292969 601.90625 C 355.292969 601.90625 360.308594 594.429688 365.992188 590.433594 C 365.992188 590.433594 382.078125 540.152344 384.464844 520.660156 C 384.464844 520.660156 373.699219 523.960938 351.257812 514.570312 C 351.257812 514.570312 346.316406 540.1875 346.820312 554.421875 C 347.324219 568.660156 343.066406 581.488281 343.066406 581.488281 Z M 343.058594 581.484375 " fill-opacity="1" fill-rule="nonzero"/><path fill="#aa856a" d="M 339.402344 587.335938 C 339.402344 587.335938 332.195312 596.707031 333.652344 601.96875 C 333.652344 601.96875 343.152344 610.550781 351.589844 604.335938 C 351.589844 604.335938 342.664062 598.199219 339.410156 587.335938 Z M 339.402344 587.335938 " fill-opacity="1" fill-rule="nonzero"/><path fill="#c2b59b" d="M 333.648438 601.976562 C 333.648438 601.976562 328.644531 608.78125 329.589844 611.890625 C 329.589844 611.890625 336.546875 616.03125 347.003906 615.171875 C 347.003906 615.171875 352.6875 614.675781 357.628906 620.234375 C 362.566406 625.800781 384.507812 631.921875 392.796875 626.566406 C 401.085938 621.207031 389.953125 612.226562 389.953125 612.226562 C 389.953125 612.226562 373.605469 604.414062 372.066406 596.191406 C 370.53125 587.96875 365.984375 590.433594 365.984375 590.433594 C 365.984375 590.433594 356.933594 595.066406 354.808594 600.601562 C 354.808594 600.601562 346.09375 596.449219 343.058594 581.488281 L 339.402344 587.351562 C 339.402344 587.351562 342.882812 599.738281 350.742188 603.738281 C 350.742188 603.738281 346.414062 610.066406 333.652344 601.980469 Z M 333.648438 601.976562 " fill-opacity="1" fill-rule="nonzero"/><path fill="#231f20" d="M 357.117188 603.363281 C 357.117188 603.863281 357.019531 604.347656 356.828125 604.808594 C 356.636719 605.273438 356.363281 605.679688 356.011719 606.035156 C 355.65625 606.390625 355.25 606.660156 354.785156 606.855469 C 354.324219 607.046875 353.839844 607.140625 353.339844 607.140625 C 352.839844 607.140625 352.359375 607.046875 351.894531 606.855469 C 351.433594 606.660156 351.023438 606.390625 350.667969 606.035156 C 350.316406 605.679688 350.042969 605.273438 349.851562 604.808594 C 349.660156 604.347656 349.5625 603.863281 349.5625 603.363281 C 349.5625 602.863281 349.660156 602.382812 349.851562 601.917969 C 350.042969 601.457031 350.316406 601.046875 350.667969 600.691406 C 351.023438 600.339844 351.433594 600.066406 351.894531 599.875 C 352.359375 599.683594 352.839844 599.585938 353.339844 599.585938 C 353.839844 599.585938 354.324219 599.683594 354.785156 599.875 C 355.25 600.066406 355.65625 600.339844 356.011719 600.691406 C 356.363281 601.046875 356.636719 601.457031 356.828125 601.917969 C 357.019531 602.382812 357.117188 602.863281 357.117188 603.363281 Z M 357.117188 603.363281 " fill-opacity="1" fill-rule="nonzero"/><path fill="#231f20" d="M 363.601562 615.585938 C 363.601562 615.917969 363.539062 616.238281 363.414062 616.542969 C 363.285156 616.847656 363.105469 617.121094 362.871094 617.351562 C 362.636719 617.585938 362.367188 617.769531 362.0625 617.894531 C 361.753906 618.023438 361.4375 618.085938 361.105469 618.085938 C 360.773438 618.085938 360.457031 618.023438 360.148438 617.894531 C 359.84375 617.769531 359.574219 617.585938 359.339844 617.351562 C 359.105469 617.117188 358.925781 616.847656 358.796875 616.542969 C 358.671875 616.238281 358.609375 615.917969 358.609375 615.585938 C 358.609375 615.257812 358.671875 614.9375 358.796875 614.632812 C 358.925781 614.324219 359.105469 614.054688 359.339844 613.820312 C 359.574219 613.585938 359.84375 613.40625 360.148438 613.28125 C 360.457031 613.152344 360.773438 613.089844 361.105469 613.089844 C 361.4375 613.089844 361.753906 613.152344 362.0625 613.28125 C 362.367188 613.40625 362.636719 613.585938 362.871094 613.820312 C 363.105469 614.054688 363.285156 614.324219 363.414062 614.632812 C 363.539062 614.9375 363.601562 615.257812 363.601562 615.585938 Z M 363.601562 615.585938 " fill-opacity="1" fill-rule="nonzero"/><path fill="#231f20" d="M 371.164062 620.179688 C 371.164062 620.511719 371.097656 620.832031 370.972656 621.136719 C 370.847656 621.441406 370.664062 621.714844 370.429688 621.949219 C 370.195312 622.179688 369.925781 622.363281 369.621094 622.488281 C 369.316406 622.617188 368.996094 622.679688 368.664062 622.679688 C 368.335938 622.679688 368.015625 622.617188 367.710938 622.488281 C 367.402344 622.363281 367.132812 622.179688 366.898438 621.945312 C 366.664062 621.714844 366.484375 621.441406 366.359375 621.136719 C 366.230469 620.832031 366.167969 620.511719 366.167969 620.179688 C 366.167969 619.851562 366.230469 619.53125 366.359375 619.226562 C 366.484375 618.917969 366.664062 618.648438 366.898438 618.414062 C 367.132812 618.179688 367.402344 618 367.710938 617.875 C 368.015625 617.746094 368.335938 617.683594 368.664062 617.683594 C 368.996094 617.683594 369.316406 617.746094 369.621094 617.875 C 369.925781 618 370.195312 618.179688 370.429688 618.414062 C 370.664062 618.648438 370.847656 618.917969 370.972656 619.226562 C 371.097656 619.53125 371.164062 619.851562 371.164062 620.179688 Z M 371.164062 620.179688 " fill-opacity="1" fill-rule="nonzero"/><path fill="#231f20" d="M 380.1875 623.054688 C 380.1875 623.382812 380.121094 623.703125 379.996094 624.007812 C 379.871094 624.316406 379.6875 624.585938 379.453125 624.820312 C 379.21875 625.054688 378.949219 625.234375 378.644531 625.359375 C 378.339844 625.488281 378.019531 625.550781 377.6875 625.550781 C 377.359375 625.550781 377.039062 625.488281 376.734375 625.359375 C 376.425781 625.234375 376.15625 625.054688 375.921875 624.820312 C 375.6875 624.585938 375.507812 624.316406 375.382812 624.007812 C 375.253906 623.703125 375.191406 623.382812 375.191406 623.054688 C 375.191406 622.722656 375.253906 622.402344 375.382812 622.097656 C 375.507812 621.792969 375.6875 621.519531 375.921875 621.285156 C 376.15625 621.054688 376.425781 620.871094 376.734375 620.746094 C 377.039062 620.617188 377.359375 620.554688 377.6875 620.554688 C 378.019531 620.554688 378.339844 620.617188 378.644531 620.746094 C 378.949219 620.871094 379.21875 621.050781 379.453125 621.285156 C 379.6875 621.519531 379.871094 621.792969 379.996094 622.097656 C 380.121094 622.402344 380.1875 622.722656 380.1875 623.054688 Z M 380.1875 623.054688 " fill-opacity="1" fill-rule="nonzero"/><path fill="#231f20" d="M 388.183594 623.441406 C 388.183594 623.773438 388.117188 624.089844 387.992188 624.398438 C 387.867188 624.703125 387.683594 624.972656 387.449219 625.207031 C 387.214844 625.441406 386.945312 625.621094 386.640625 625.75 C 386.335938 625.875 386.015625 625.9375 385.683594 625.9375 C 385.355469 625.9375 385.035156 625.875 384.730469 625.75 C 384.421875 625.621094 384.152344 625.441406 383.917969 625.207031 C 383.683594 624.972656 383.503906 624.703125 383.378906 624.398438 C 383.25 624.089844 383.1875 623.773438 383.1875 623.441406 C 383.1875 623.109375 383.25 622.792969 383.378906 622.484375 C 383.503906 622.179688 383.683594 621.910156 383.917969 621.675781 C 384.152344 621.441406 384.421875 621.261719 384.730469 621.132812 C 385.035156 621.007812 385.355469 620.945312 385.683594 620.945312 C 386.015625 620.945312 386.335938 621.007812 386.640625 621.132812 C 386.945312 621.261719 387.214844 621.441406 387.449219 621.675781 C 387.683594 621.910156 387.867188 622.179688 387.992188 622.484375 C 388.117188 622.792969 388.183594 623.109375 388.183594 623.441406 Z M 388.183594 623.441406 " fill-opacity="1" fill-rule="nonzero"/><path fill="#231f20" d="M 395.3125 622.074219 C 395.3125 622.40625 395.25 622.722656 395.125 623.027344 C 394.996094 623.335938 394.816406 623.605469 394.582031 623.839844 C 394.347656 624.074219 394.078125 624.253906 393.773438 624.378906 C 393.464844 624.507812 393.148438 624.570312 392.816406 624.570312 C 392.484375 624.570312 392.167969 624.507812 391.859375 624.378906 C 391.554688 624.253906 391.285156 624.074219 391.050781 623.839844 C 390.816406 623.605469 390.636719 623.335938 390.507812 623.027344 C 390.382812 622.722656 390.320312 622.40625 390.320312 622.074219 C 390.320312 621.742188 390.382812 621.421875 390.507812 621.117188 C 390.636719 620.8125 390.816406 620.542969 391.050781 620.308594 C 391.285156 620.074219 391.554688 619.890625 391.859375 619.765625 C 392.167969 619.640625 392.484375 619.574219 392.816406 619.574219 C 393.148438 619.574219 393.464844 619.640625 393.773438 619.765625 C 394.078125 619.890625 394.347656 620.074219 394.582031 620.308594 C 394.816406 620.542969 394.996094 620.8125 395.125 621.117188 C 395.25 621.421875 395.3125 621.742188 395.3125 622.074219 Z M 395.3125 622.074219 " fill-opacity="1" fill-rule="nonzero"/><path stroke-linecap="round" transform="matrix(0.680504, 0, 0, 0.680579, -50.525202, -66.142231)" fill="none" stroke-linejoin="miter" d="M 607.921558 993.899479 C 607.921558 993.899479 632.828413 1010.297504 648.591082 1001.739767 " stroke="#231f20" stroke-width="0.5" stroke-opacity="1" stroke-miterlimit="10"/><path fill="#aa856a" d="M 375.789062 357.789062 L 388.238281 343.722656 C 388.238281 343.722656 392.566406 344.804688 389.320312 350.214844 C 386.074219 355.625 386.609375 357.519531 386.609375 357.519531 L 405.820312 346.960938 C 405.820312 346.960938 413.394531 343.171875 410.691406 348.589844 C 407.984375 354 400.957031 357.789062 400.957031 357.789062 L 415.839844 351.027344 C 415.839844 351.027344 421.246094 351.835938 416.917969 355.082031 C 412.59375 358.328125 403.390625 362.929688 403.390625 362.929688 C 403.390625 362.929688 418 356.4375 419.082031 358.601562 C 420.164062 360.765625 406.367188 368.074219 406.367188 368.074219 L 417.457031 366.449219 C 417.457031 366.449219 419.347656 368.339844 415.566406 371.046875 C 411.773438 373.757812 397.164062 379.976562 397.164062 379.976562 C 397.164062 379.976562 386.34375 384.578125 383.363281 382.953125 C 380.390625 381.324219 376.871094 384.304688 376.871094 384.304688 " fill-opacity="1" fill-rule="nonzero"/><path stroke-linecap="butt" transform="matrix(0.680504, 0, 0, 0.680579, -50.525202, -66.142231)" fill-opacity="1" fill="#ba9777" fill-rule="nonzero" stroke-linejoin="miter" d="M 644.991958 627.782137 C 644.991958 627.782137 649.882633 645.018144 644.222767 648.111786 " stroke="#754c29" stroke-width="0.7" stroke-opacity="1" stroke-miterlimit="10"/><path fill="#aa856a" d="M 266.441406 302.867188 C 266.441406 302.867188 268.113281 314.804688 268.425781 327.8125 C 268.425781 327.8125 268.425781 354.632812 293.375 358.921875 C 293.375 358.921875 323.09375 349.03125 307.578125 329.59375 C 307.578125 329.59375 305.125 328.527344 305.671875 324.367188 C 305.671875 324.367188 273.128906 320.847656 266.441406 302.867188 Z M 266.441406 302.867188 " fill-opacity="1" fill-rule="nonzero"/><path fill="#aa856a" d="M 310.140625 251.28125 C 310.140625 251.28125 317.59375 255.492188 320.234375 271.636719 C 322.875 287.78125 324.296875 291.707031 322.683594 305.023438 C 320.988281 319.03125 303.304688 323.238281 303.304688 323.238281 C 303.304688 323.238281 273.707031 322.691406 267.203125 307.800781 C 267.203125 307.800781 261.804688 316.828125 253.917969 307.054688 C 253.917969 307.054688 245.023438 296.367188 250.414062 292.265625 C 250.414062 292.265625 256.421875 288.78125 261.335938 294.933594 C 261.335938 294.933594 252.753906 267.859375 261.390625 261.890625 C 261.390625 261.890625 280.628906 235.265625 310.136719 251.285156 Z M 310.140625 251.28125 " fill-opacity="1" fill-rule="nonzero"/><path stroke-linecap="butt" transform="matrix(0.680504, 0, 0, 0.680579, -50.525202, -66.142231)" fill="none" stroke-linejoin="miter" d="M 526.639914 520.577966 C 526.639914 520.577966 535.789839 530.74279 522.811181 533.939745 " stroke="#231f20" stroke-width="0.7" stroke-opacity="1" stroke-miterlimit="10"/><path stroke-linecap="butt" transform="matrix(0.680504, 0, 0, 0.680579, -50.525202, -66.142231)" fill="none" stroke-linejoin="miter" d="M 444.428353 534.967133 C 444.428353 534.967133 446.86795 524.010244 457.240544 539.610466 C 457.240544 539.610466 449.410871 533.182118 449.100899 539.69082 " stroke="#231f20" stroke-width="0.7" stroke-opacity="1" stroke-miterlimit="10"/><path fill="#26130f" d="M 305.601562 322.433594 C 305.601562 322.433594 300.226562 323.613281 294.148438 322.292969 C 294.148438 322.292969 288.863281 321.976562 281.804688 319.230469 C 281.804688 319.230469 287.003906 323.429688 296.328125 324.753906 C 296.328125 324.753906 301.582031 325.367188 305.746094 323.863281 C 305.746094 323.863281 305.527344 323.3125 305.601562 322.433594 Z M 305.601562 322.433594 " fill-opacity="1" fill-rule="nonzero"/><path fill="#ae8578" d="M 294.925781 304.5625 C 294.925781 304.5625 299.4375 302.4375 305.285156 303.234375 C 305.285156 303.234375 310 301.574219 314.511719 301.929688 C 314.511719 301.929688 315.136719 309.835938 308.027344 312.613281 C 300.914062 315.390625 295.429688 309.164062 294.917969 304.5625 Z M 294.925781 304.5625 " fill-opacity="1" fill-rule="nonzero"/><path fill="#803435" d="M 296.183594 304.949219 C 296.183594 304.949219 297.097656 311.898438 306.121094 310.621094 C 314.3125 309.457031 313.503906 303.269531 313.503906 303.269531 C 313.503906 303.269531 304.335938 305 296.191406 304.949219 Z M 296.183594 304.949219 " fill-opacity="1" fill-rule="nonzero"/><path fill="#ffffff" d="M 297.316406 304.890625 C 297.316406 304.890625 300.003906 307.789062 306.9375 306.453125 C 306.9375 306.453125 311.273438 306.058594 312.753906 303.515625 C 312.753906 303.515625 303.785156 304.984375 297.316406 304.890625 Z M 297.316406 304.890625 " fill-opacity="1" fill-rule="nonzero"/><path fill="#f6ac1b" d="M 268.425781 327.8125 C 268.425781 327.8125 231.945312 335.371094 225.71875 358.953125 C 219.492188 382.535156 237.023438 384.625 237.023438 384.625 C 237.023438 384.625 231.054688 412.789062 248.847656 408.34375 C 248.847656 408.34375 234.613281 440.378906 234.171875 471.523438 C 234.171875 471.523438 308.910156 500.441406 341.382812 475.523438 C 341.382812 475.523438 335.601562 433.261719 336.046875 408.34375 C 336.046875 408.34375 348.058594 410.121094 352.511719 399.890625 L 344.058594 362.070312 C 344.058594 362.070312 337.382812 336.714844 307.578125 329.59375 C 307.578125 329.59375 311.082031 344.539062 295.511719 348.097656 C 295.511719 348.097656 294.59375 356.832031 293.375 357.355469 C 292.039062 357.925781 290.375 350.289062 289.609375 350.289062 C 284.488281 350.277344 275.695312 346.171875 268.425781 327.816406 Z M 268.425781 327.8125 " fill-opacity="1" fill-rule="nonzero"/><path fill="#26130f" d="M 291.183594 277.183594 C 291.183594 277.183594 279.8125 276.847656 275.394531 280.648438 C 275.394531 280.648438 278.207031 275.480469 291.039062 275.128906 C 291.039062 275.128906 293.484375 275.945312 291.183594 277.183594 Z M 291.183594 277.183594 " fill-opacity="1" fill-rule="nonzero"/><path fill="#26130f" d="M 319.867188 271.085938 C 319.582031 270.664062 314.199219 271.097656 309.378906 272.410156 C 309.378906 272.410156 307.359375 273.875 309.816406 274.425781 C 309.816406 274.425781 318.410156 271.023438 320.085938 273.203125 C 320.085938 273.203125 320.566406 272.132812 319.867188 271.085938 Z M 319.867188 271.085938 " fill-opacity="1" fill-rule="nonzero"/><path fill="#ffffff" d="M 281.527344 285.070312 C 281.527344 285.070312 281.480469 284.804688 281.636719 284.546875 C 282.160156 283.6875 283.433594 282.035156 285.820312 281.601562 C 288.496094 281.117188 290.421875 283.363281 291.082031 284.171875 C 291.195312 284.308594 291.210938 284.453125 291.210938 284.453125 C 291.210938 284.453125 291.246094 284.601562 291.175781 284.714844 C 290.835938 285.289062 289.664062 286.929688 287.140625 287.417969 C 285.636719 287.710938 283.378906 287.28125 281.695312 285.472656 C 281.582031 285.351562 281.539062 285.164062 281.527344 285.070312 Z M 281.527344 285.070312 " fill-opacity="1" fill-rule="nonzero"/><path fill="#26130f" d="M 289.929688 284.554688 C 289.929688 284.925781 289.859375 285.285156 289.71875 285.628906 C 289.574219 285.972656 289.371094 286.277344 289.109375 286.539062 C 288.84375 286.804688 288.539062 287.007812 288.195312 287.148438 C 287.851562 287.292969 287.492188 287.363281 287.121094 287.363281 C 286.746094 287.363281 286.390625 287.292969 286.046875 287.148438 C 285.699219 287.007812 285.398438 286.804688 285.132812 286.539062 C 284.871094 286.277344 284.667969 285.972656 284.523438 285.628906 C 284.382812 285.285156 284.308594 284.925781 284.308594 284.554688 C 284.308594 284.179688 284.382812 283.820312 284.523438 283.476562 C 284.667969 283.132812 284.871094 282.828125 285.132812 282.566406 C 285.398438 282.300781 285.699219 282.097656 286.046875 281.957031 C 286.390625 281.8125 286.746094 281.742188 287.121094 281.742188 C 287.492188 281.742188 287.851562 281.8125 288.195312 281.957031 C 288.539062 282.097656 288.84375 282.300781 289.109375 282.566406 C 289.371094 282.828125 289.574219 283.132812 289.71875 283.476562 C 289.859375 283.820312 289.929688 284.179688 289.929688 284.554688 Z M 289.929688 284.554688 " fill-opacity="1" fill-rule="nonzero"/><path fill="#ffffff" d="M 286.046875 284.300781 C 286.046875 284.515625 285.96875 284.695312 285.820312 284.84375 C 285.671875 284.996094 285.488281 285.070312 285.277344 285.070312 C 285.0625 285.070312 284.882812 284.996094 284.734375 284.84375 C 284.582031 284.695312 284.507812 284.515625 284.507812 284.300781 C 284.507812 284.089844 284.582031 283.90625 284.734375 283.757812 C 284.882812 283.609375 285.0625 283.53125 285.277344 283.53125 C 285.488281 283.53125 285.671875 283.609375 285.820312 283.757812 C 285.96875 283.90625 286.046875 284.089844 286.046875 284.300781 Z M 286.046875 284.300781 " fill-opacity="1" fill-rule="nonzero"/><path stroke-linecap="butt" transform="matrix(0.680504, 0, 0, 0.680579, -50.525202, -66.142231)" fill="none" stroke-linejoin="miter" d="M 502.220979 514.68914 C 502.220979 514.68914 495.751741 506.17732 487.939289 515.26884 " stroke="#231f20" stroke-width="0.5" stroke-opacity="1" stroke-miterlimit="10"/><path fill="#ffffff" d="M 309.679688 281.511719 C 309.679688 281.511719 309.597656 281.273438 309.707031 281.015625 C 310.066406 280.148438 311 278.457031 313.121094 277.726562 C 315.503906 276.910156 317.585938 278.695312 318.308594 279.339844 C 318.429688 279.449219 318.464844 279.578125 318.464844 279.578125 C 318.464844 279.578125 318.519531 279.707031 318.464844 279.832031 C 318.234375 280.402344 317.390625 282.070312 315.144531 282.878906 C 313.808594 283.363281 311.671875 283.289062 309.882812 281.863281 C 309.761719 281.761719 309.699219 281.605469 309.671875 281.519531 Z M 309.679688 281.511719 " fill-opacity="1" fill-rule="nonzero"/><path fill="#26130f" d="M 317.328125 280.238281 C 317.328125 280.582031 317.261719 280.914062 317.128906 281.230469 C 317 281.546875 316.8125 281.828125 316.570312 282.070312 C 316.324219 282.316406 316.046875 282.503906 315.726562 282.632812 C 315.410156 282.765625 315.078125 282.832031 314.734375 282.832031 C 314.390625 282.832031 314.0625 282.765625 313.742188 282.632812 C 313.425781 282.503906 313.144531 282.316406 312.902344 282.070312 C 312.660156 281.828125 312.472656 281.546875 312.339844 281.230469 C 312.207031 280.914062 312.144531 280.582031 312.144531 280.238281 C 312.144531 279.894531 312.207031 279.5625 312.339844 279.246094 C 312.472656 278.929688 312.660156 278.648438 312.902344 278.40625 C 313.144531 278.160156 313.425781 277.972656 313.742188 277.84375 C 314.0625 277.710938 314.390625 277.644531 314.734375 277.644531 C 315.078125 277.644531 315.410156 277.710938 315.726562 277.84375 C 316.046875 277.972656 316.324219 278.160156 316.570312 278.40625 C 316.8125 278.648438 317 278.929688 317.128906 279.246094 C 317.261719 279.5625 317.328125 279.894531 317.328125 280.238281 Z M 317.328125 280.238281 " fill-opacity="1" fill-rule="nonzero"/><path fill="#ffffff" d="M 313.675781 280.339844 C 313.671875 280.542969 313.601562 280.714844 313.460938 280.855469 C 313.320312 280.996094 313.148438 281.070312 312.945312 281.070312 C 312.746094 281.070312 312.574219 280.996094 312.429688 280.855469 C 312.289062 280.714844 312.21875 280.542969 312.21875 280.339844 C 312.21875 280.140625 312.289062 279.96875 312.429688 279.824219 C 312.574219 279.683594 312.746094 279.613281 312.945312 279.613281 C 313.148438 279.613281 313.316406 279.683594 313.460938 279.824219 C 313.601562 279.96875 313.671875 280.140625 313.675781 280.339844 Z M 313.675781 280.339844 " fill-opacity="1" fill-rule="nonzero"/><path stroke-linecap="butt" transform="matrix(0.680504, 0, 0, 0.680579, -50.525202, -66.142231)" fill="none" stroke-linejoin="miter" d="M 542.098351 507.73275 C 542.098351 507.73275 535.072311 500.242578 529.2919 510.269652 " stroke="#231f20" stroke-width="0.5" stroke-opacity="1" stroke-miterlimit="10"/><path stroke-linecap="butt" transform="matrix(0.680504, 0, 0, 0.680579, -50.525202, -66.142231)" fill-opacity="1" fill="#f6ac1b" fill-rule="nonzero" stroke-linejoin="miter" d="M 436.621641 613.697169 C 459.949932 604.73766 462.418231 685.499513 462.418231 685.499513 L 409.981238 697.862603 C 409.981238 697.862603 393.380495 663.298757 407.897534 617.697667 " stroke="#754c29" stroke-width="0.5" stroke-opacity="1" stroke-miterlimit="10"/><path fill="#c2b59b" d="M 236.546875 448.15625 C 236.546875 448.15625 222.539062 482.242188 235.550781 504.722656 C 244.730469 520.578125 317.335938 522.601562 317.335938 522.601562 L 317.976562 523.65625 C 317.976562 523.65625 344.316406 535.402344 356.210938 530.296875 C 356.210938 530.296875 377.65625 527.453125 384.453125 520.652344 L 389.503906 505.386719 C 389.503906 505.386719 394.597656 481.589844 362.875 469.125 C 331.148438 456.660156 321.511719 449.292969 321.511719 449.292969 C 321.511719 449.292969 309.046875 474.222656 236.53125 448.15625 Z M 236.546875 448.15625 " fill-opacity="1" fill-rule="nonzero"/><path stroke-linecap="butt" transform="matrix(0.680504, 0, 0, 0.680579, -50.525202, -66.142231)" fill="none" stroke-linejoin="miter" d="M 597.709691 876.369774 L 615.831594 837.271647 C 615.831594 837.271647 617.502001 813.130907 580.862118 803.13827 C 544.227976 793.151374 539.228236 789.822408 539.228236 789.822408 " stroke="#594a42" stroke-width="1" stroke-opacity="1" stroke-miterlimit="10"/><path fill="#1c4824" d="M 304.332031 364.890625 L 314.925781 465.089844 L 390.175781 460.539062 L 379.152344 359.546875 C 379.152344 359.546875 379.355469 353.578125 372.613281 353.984375 Z M 304.332031 364.890625 " fill-opacity="1" fill-rule="nonzero"/><path fill="#ffffff" d="M 368.121094 355.304688 L 375.578125 356.199219 L 387.554688 456.992188 L 379.988281 457.808594 Z M 368.121094 355.304688 " fill-opacity="1" fill-rule="nonzero"/><path fill="#1c4824" d="M 294.308594 363.582031 L 304.941406 467.015625 L 380.144531 459.238281 L 369.121094 358.246094 C 369.121094 358.246094 369.324219 352.277344 362.582031 352.6875 L 294.300781 363.589844 Z M 294.308594 363.582031 " fill-opacity="1" fill-rule="nonzero"/><path fill="#d6e8f6" d="M 301.574219 367.09375 L 312.6875 460.980469 L 376.183594 455.46875 L 364.792969 363.785156 C 364.792969 363.785156 364.847656 358.382812 359.144531 358.613281 Z M 301.574219 367.09375 " fill-opacity="1" fill-rule="nonzero"/><path fill="#88b241" d="M 309.992188 439.308594 L 312.570312 461.210938 L 376.183594 455.46875 L 373.128906 431.410156 C 373.128906 431.410156 333.441406 428.746094 309.992188 439.308594 Z M 309.992188 439.308594 " fill-opacity="1" fill-rule="nonzero"/><path fill="#754c29" d="M 325.148438 417.917969 C 325.148438 417.917969 338.804688 420.050781 350.210938 414.539062 C 350.210938 414.539062 354.972656 413.296875 354 408.207031 C 354 408.207031 353.414062 400.421875 349.433594 394.304688 C 345.453125 388.183594 340.003906 388.410156 340.003906 388.410156 C 340.003906 388.410156 333.386719 387.648438 327.34375 389.894531 C 321.300781 392.140625 319.703125 401.585938 319.703125 401.585938 C 319.703125 401.585938 318.539062 407.710938 319.667969 412.507812 C 320.792969 417.308594 325.148438 417.914062 325.148438 417.914062 Z M 325.148438 417.917969 " fill-opacity="1" fill-rule="nonzero"/><path fill="#ffebda" d="M 334.339844 403.867188 C 334.339844 403.867188 329.476562 405.296875 330.535156 412.40625 C 330.535156 412.40625 331.0625 414.613281 333.476562 414.761719 L 335.191406 416.597656 L 335.257812 415.761719 L 337.628906 417.070312 L 337.550781 415.78125 L 338.320312 416.6875 L 339.136719 415.375 L 339.714844 416.175781 L 341.070312 413.957031 C 341.070312 413.957031 345.480469 413.164062 342.519531 407.050781 C 342.519531 407.050781 341.511719 404.34375 337.53125 403.367188 L 338.765625 405.765625 C 338.765625 405.765625 337.347656 404.894531 333.523438 406.246094 L 334.339844 403.871094 Z M 334.339844 403.867188 " fill-opacity="1" fill-rule="nonzero"/><path fill="#1a152b" d="M 333.808594 406.949219 L 335.84375 408.460938 C 336.074219 408.648438 336.980469 408.410156 337.164062 408.175781 L 338.667969 406.511719 C 338.898438 406.207031 338.75 405.703125 338.382812 405.585938 C 337.335938 405.269531 335.761719 405.507812 333.910156 406.089844 C 333.515625 406.214844 333.488281 406.683594 333.808594 406.949219 Z M 333.808594 406.949219 " fill-opacity="1" fill-rule="nonzero"/><path fill="#e974aa" d="M 334.382812 411.25 C 334.382812 411.25 335.101562 413.476562 336.996094 413.257812 C 336.996094 413.257812 339.453125 413.074219 339.382812 410.890625 C 339.382812 410.890625 337.933594 411.25 337.027344 410.707031 C 337.027344 410.707031 334.890625 411.707031 334.382812 411.257812 Z M 334.382812 411.25 " fill-opacity="1" fill-rule="nonzero"/><path stroke-linecap="round" transform="matrix(0.680504, 0, 0, 0.680579, -50.525202, -66.142231)" fill="none" stroke-linejoin="miter" d="M 568.87078 697.150893 L 569.347219 700.422463 C 569.347219 700.422463 565.937523 703.372615 563.37164 699.578742 " stroke="#1a152b" stroke-width="1" stroke-opacity="1" stroke-miterlimit="10"/><path stroke-linecap="round" transform="matrix(0.680504, 0, 0, 0.680579, -50.525202, -66.142231)" fill="none" stroke-linejoin="miter" d="M 569.347219 700.422463 C 569.347219 700.422463 573.531846 702.718301 575.311317 698.161062 " stroke="#1a152b" stroke-width="1" stroke-opacity="1" stroke-miterlimit="10"/><path fill="#ffebda" d="M 345.40625 401.867188 C 345.410156 402.222656 345.359375 402.566406 345.253906 402.898438 C 345.148438 403.230469 344.996094 403.523438 344.796875 403.777344 C 344.597656 404.03125 344.367188 404.230469 344.105469 404.371094 C 343.84375 404.507812 343.570312 404.582031 343.285156 404.582031 C 343 404.585938 342.722656 404.519531 342.457031 404.386719 C 342.195312 404.253906 341.957031 404.058594 341.753906 403.808594 C 341.550781 403.558594 341.390625 403.269531 341.28125 402.941406 C 341.167969 402.609375 341.109375 402.269531 341.105469 401.910156 C 341.101562 401.554688 341.152344 401.207031 341.257812 400.878906 C 341.363281 400.546875 341.515625 400.253906 341.714844 400 C 341.914062 399.742188 342.144531 399.546875 342.40625 399.40625 C 342.667969 399.265625 342.941406 399.195312 343.226562 399.195312 C 343.511719 399.191406 343.789062 399.257812 344.054688 399.390625 C 344.316406 399.523438 344.550781 399.714844 344.757812 399.96875 C 344.960938 400.21875 345.117188 400.507812 345.230469 400.835938 C 345.34375 401.164062 345.402344 401.507812 345.40625 401.867188 Z M 345.40625 401.867188 " fill-opacity="1" fill-rule="nonzero"/><path fill="#1a152b" d="M 343.859375 401.097656 C 343.535156 401 343.171875 400.992188 342.820312 401.097656 C 341.878906 401.386719 341.363281 402.382812 341.648438 403.320312 C 341.933594 404.261719 342.933594 404.777344 343.875 404.492188 C 344.8125 404.207031 345.332031 403.207031 345.046875 402.265625 C 344.9375 401.90625 344.71875 401.605469 344.4375 401.394531 L 343.914062 402.152344 Z M 343.859375 401.097656 " fill-opacity="1" fill-rule="nonzero"/><path fill="#ffebda" d="M 331.003906 403.628906 C 331.007812 403.984375 330.957031 404.328125 330.851562 404.660156 C 330.746094 404.992188 330.59375 405.285156 330.394531 405.539062 C 330.195312 405.792969 329.964844 405.992188 329.703125 406.128906 C 329.441406 406.269531 329.167969 406.339844 328.882812 406.34375 C 328.597656 406.347656 328.320312 406.28125 328.058594 406.148438 C 327.792969 406.011719 327.558594 405.820312 327.355469 405.570312 C 327.148438 405.320312 326.992188 405.03125 326.878906 404.703125 C 326.765625 404.371094 326.707031 404.027344 326.703125 403.671875 C 326.699219 403.3125 326.75 402.96875 326.855469 402.636719 C 326.964844 402.308594 327.117188 402.015625 327.316406 401.757812 C 327.511719 401.503906 327.742188 401.308594 328.007812 401.167969 C 328.269531 401.027344 328.542969 400.957031 328.828125 400.953125 C 329.113281 400.953125 329.386719 401.015625 329.652344 401.152344 C 329.917969 401.285156 330.152344 401.476562 330.355469 401.726562 C 330.558594 401.980469 330.71875 402.269531 330.832031 402.597656 C 330.941406 402.925781 331 403.269531 331.003906 403.628906 Z M 331.003906 403.628906 " fill-opacity="1" fill-rule="nonzero"/><path fill="#1a152b" d="M 329.460938 402.859375 C 329.136719 402.761719 328.773438 402.757812 328.421875 402.859375 C 327.480469 403.152344 326.964844 404.144531 327.25 405.085938 C 327.535156 406.023438 328.535156 406.539062 329.476562 406.253906 C 330.414062 405.960938 330.929688 404.96875 330.644531 404.027344 C 330.535156 403.667969 330.320312 403.367188 330.039062 403.15625 L 329.515625 403.914062 Z M 329.460938 402.859375 " fill-opacity="1" fill-rule="nonzero"/><path stroke-linecap="round" transform="matrix(0.680504, 0, 0, 0.680579, -50.525202, -66.142231)" fill="none" stroke-linejoin="miter" d="M 554.009326 687.439497 C 554.009326 687.439497 554.227455 683.84077 557.728995 684.868158 " stroke="#1a152b" stroke-width="1" stroke-opacity="1" stroke-miterlimit="10"/><path stroke-linecap="round" transform="matrix(0.680504, 0, 0, 0.680579, -50.525202, -66.142231)" fill="none" stroke-linejoin="miter" d="M 551.08181 690.762723 C 551.08181 690.762723 553.251616 690.682369 553.819899 690.470003 " stroke="#1a152b" stroke-width="1" stroke-opacity="1" stroke-miterlimit="10"/><path stroke-linecap="round" transform="matrix(0.680504, 0, 0, 0.680579, -50.525202, -66.142231)" fill="none" stroke-linejoin="miter" d="M 577.578707 683.008529 C 577.578707 683.008529 579.937941 681.29239 581.212272 684.208104 " stroke="#1a152b" stroke-width="1" stroke-opacity="1" stroke-miterlimit="10"/><path stroke-linecap="round" transform="matrix(0.680504, 0, 0, 0.680579, -50.525202, -66.142231)" fill="none" stroke-linejoin="miter" d="M 582.021645 687.072163 L 584.66789 686.739266 " stroke="#1a152b" stroke-width="1" stroke-opacity="1" stroke-miterlimit="10"/><path fill="#754c29" d="M 320.582031 398.359375 C 320.582031 398.359375 318.1875 398.082031 317.867188 393.597656 C 317.765625 392.167969 318.628906 390.820312 319.980469 390.363281 C 321.519531 389.847656 323.574219 389.601562 325.023438 391.160156 " fill-opacity="1" fill-rule="nonzero"/><path fill="#ffebda" d="M 319.941406 395.589844 C 319.585938 394.917969 319.234375 394.023438 319.082031 392.96875 C 319.023438 392.546875 319.289062 392.144531 319.703125 392.042969 C 320.324219 391.894531 321.300781 391.746094 322.351562 391.941406 C 322.933594 392.050781 323.1875 392.757812 322.828125 393.234375 C 322.378906 393.828125 321.8125 394.652344 321.410156 395.535156 C 321.132812 396.15625 320.261719 396.195312 319.941406 395.589844 Z M 319.941406 395.589844 " fill-opacity="1" fill-rule="nonzero"/><path fill="#754c29" d="M 349.605469 394.753906 C 349.605469 394.753906 351.878906 393.65625 350.535156 389.0625 C 350.183594 387.867188 349.121094 387.035156 347.875 386.996094 C 346.214844 386.945312 343.984375 387.3125 343.066406 389.382812 " fill-opacity="1" fill-rule="nonzero"/><path fill="#ffebda" d="M 349.3125 391.847656 C 349.421875 391.113281 349.453125 390.199219 349.265625 389.207031 C 349.183594 388.765625 348.773438 388.457031 348.324219 388.503906 C 347.710938 388.566406 346.820312 388.738281 345.949219 389.199219 C 345.378906 389.503906 345.324219 390.308594 345.863281 390.675781 C 346.453125 391.078125 347.203125 391.636719 347.835938 392.296875 C 348.332031 392.8125 349.203125 392.554688 349.304688 391.847656 Z M 349.3125 391.847656 " fill-opacity="1" fill-rule="nonzero"/><path fill="#754c29" d="M 329.164062 418.28125 C 329.164062 418.28125 328.9375 419.824219 325.996094 419.457031 C 325.996094 419.457031 320.492188 419.886719 317.722656 416.96875 C 317.722656 416.96875 316.421875 416.089844 315.785156 414.238281 C 315.785156 414.238281 314.863281 412.726562 312.679688 413.339844 C 310.496094 413.953125 311.890625 416.980469 311.890625 416.980469 C 311.890625 416.980469 316.90625 426.707031 325.808594 426.890625 C 325.808594 426.890625 324.792969 434.769531 326.902344 438.671875 C 326.902344 438.671875 329.066406 446.652344 331.164062 447.417969 L 338.851562 447.207031 C 338.851562 447.207031 338.960938 444.671875 336.789062 444.699219 L 335.972656 443.09375 C 335.972656 443.09375 338.824219 441.230469 341.195312 440.699219 C 344.070312 440.058594 347.058594 440.800781 347.058594 440.800781 L 346.582031 443.191406 C 344.277344 443.203125 344.519531 445.625 344.519531 445.625 L 352.667969 445.011719 C 355.320312 441.175781 353.980469 431.714844 353.980469 431.714844 L 354 428.890625 C 353.410156 425.550781 351.796875 423.867188 351.796875 423.867188 C 362.167969 420.320312 363.609375 412.332031 363.609375 412.332031 C 363.609375 412.332031 364.609375 409.152344 362.371094 408.8125 C 360.132812 408.472656 359.402344 410.085938 359.402344 410.085938 C 359.003906 412.003906 357.816406 413.039062 357.816406 413.039062 C 355.4375 416.285156 349.917969 416.546875 349.917969 416.546875 C 347.050781 417.28125 346.636719 415.769531 346.636719 415.769531 " fill-opacity="1" fill-rule="nonzero"/><path fill="#a97c50" d="M 331.367188 418.363281 C 331.367188 418.363281 327 430.496094 331.511719 434.289062 C 331.511719 434.289062 334.339844 437.832031 340.132812 436.867188 C 345.921875 435.902344 347.644531 434.210938 348.488281 432.601562 C 349.332031 430.988281 348.816406 422.300781 344.589844 416.757812 " fill-opacity="1" fill-rule="nonzero"/><path stroke-linecap="round" transform="matrix(0.680504, 0, 0, 0.680579, -50.525202, -66.142231)" fill="none" stroke-linejoin="miter" d="M 527.04173 651.8827 C 529.469847 649.931238 534.56143 658.598028 537.902244 656.629346 C 539.429145 655.72823 536.57051 645.902042 538.700135 644.880394 C 540.427944 644.048152 546.277238 652.399264 548.360941 651.6072 C 550.197814 650.912709 549.049769 640.759364 551.139212 640.168185 C 553.062189 639.617184 557.378841 648.857933 559.502726 648.461901 C 561.477365 648.088828 562.137491 637.889566 564.267116 637.68868 C 566.281936 637.499273 568.830598 647.371378 570.960223 647.371378 C 572.992264 647.371378 575.552406 637.487794 577.682031 637.700159 C 579.811656 637.912524 580.311056 648.077348 582.4005 648.490599 C 584.392359 648.880892 588.777894 639.66884 590.827156 640.271498 C 592.767354 640.839718 591.481542 650.958626 593.467661 651.75069 " stroke="#1a152b" stroke-width="2" stroke-opacity="1" stroke-miterlimit="10"/><path stroke-linecap="round" transform="matrix(0.680504, 0, 0, 0.680579, -50.525202, -66.142231)" fill="none" stroke-linejoin="miter" d="M 622.318053 620.337882 L 640.307931 769.079508 " stroke="#1a152b" stroke-width="2" stroke-opacity="1" stroke-miterlimit="10"/><path stroke-linecap="round" transform="matrix(0.680504, 0, 0, 0.680579, -50.525202, -66.142231)" fill="none" stroke-linejoin="miter" d="M 618.569683 620.091079 L 636.559561 768.832706 " stroke="#1a152b" stroke-width="2" stroke-opacity="1" stroke-miterlimit="10"/><path fill="#aa856a" d="M 230.6875 408.335938 C 230.6875 408.335938 248.011719 448.761719 258.0625 452.847656 C 258.0625 452.847656 296.703125 468.28125 331.578125 473.3125 C 331.578125 473.3125 355.769531 482.738281 359.851562 481.480469 C 363.9375 480.21875 364.570312 477.082031 364.570312 477.082031 C 364.570312 477.082031 371.484375 475.824219 371.484375 471.738281 C 371.484375 471.738281 376.199219 469.230469 373.992188 465.769531 C 373.992188 465.769531 375.253906 461.6875 371.796875 462 C 371.796875 462 354.519531 461.375 352 457.605469 C 349.480469 453.832031 357.65625 454.148438 357.65625 454.148438 C 357.65625 454.148438 361.617188 453.34375 361.371094 451.125 C 361.371094 451.125 351.753906 447.429688 345.835938 448.410156 C 339.914062 449.390625 330.550781 454.332031 330.550781 454.332031 L 276.0625 428.195312 L 264.152344 400.402344 C 264.152344 400.402344 245.8125 405.554688 230.6875 408.34375 Z M 230.6875 408.335938 " fill-opacity="1" fill-rule="nonzero"/><path stroke-linecap="butt" transform="matrix(0.680504, 0, 0, 0.680579, -50.525202, -66.142231)" fill="none" stroke-linejoin="miter" d="M 623.827733 781.55165 C 623.827733 781.55165 611.652707 793.191551 592.698471 780.489825 " stroke="#754c29" stroke-width="0.7" stroke-opacity="1" stroke-miterlimit="10"/><path stroke-linecap="butt" transform="matrix(0.680504, 0, 0, 0.680579, -50.525202, -66.142231)" fill="none" stroke-linejoin="miter" d="M 620.142506 790.321753 C 620.142506 790.321753 600.797934 797.008382 592.641068 787.451955 " stroke="#754c29" stroke-width="0.7" stroke-opacity="1" stroke-miterlimit="10"/><path stroke-linecap="butt" transform="matrix(0.680504, 0, 0, 0.680579, -50.525202, -66.142231)" fill="none" stroke-linejoin="miter" d="M 609.982301 798.16778 C 609.982301 798.16778 603.828775 802.15106 591.940761 796.078567 " stroke="#754c29" stroke-width="0.7" stroke-opacity="1" stroke-miterlimit="10"/><path fill="#9b7a64" d="M 314.933594 257.039062 C 314.933594 257.039062 305.867188 259.570312 301.058594 256.914062 C 296.246094 254.261719 263.011719 263.140625 260.90625 295.742188 C 260.90625 295.742188 257.511719 290.03125 249.902344 292.957031 C 249.902344 292.957031 236.53125 243.492188 279.820312 239.953125 C 279.820312 239.953125 301.050781 234.640625 314.933594 257.039062 Z M 314.933594 257.039062 " fill-opacity="1" fill-rule="nonzero"/><path fill="#231f20" d="M 252.960938 292.53125 C 252.960938 292.53125 251.167969 273.222656 269.773438 273.519531 C 269.773438 273.519531 273.171875 271.875 270.875 269.078125 C 270.875 269.078125 249.597656 270.90625 249.910156 292.957031 C 249.910156 292.957031 250.972656 291.890625 252.964844 292.53125 Z M 252.960938 292.53125 " fill-opacity="1" fill-rule="nonzero"/><path fill="#231f20" d="M 284.140625 260.460938 C 284.140625 260.460938 283.582031 264.722656 279.445312 264.246094 C 270 263.140625 253.164062 268.375 248.910156 283.457031 C 248.910156 283.457031 247.445312 282.539062 248.792969 279.0625 C 250.140625 275.582031 257.90625 256.710938 284.140625 260.460938 Z M 284.140625 260.460938 " fill-opacity="1" fill-rule="nonzero"/><path fill="#231f20" d="M 294.816406 255.273438 C 294.816406 255.273438 294.464844 258.785156 291.320312 258.710938 C 291.320312 258.710938 258.660156 249.238281 247.976562 274.257812 C 247.976562 274.257812 256.042969 246.597656 294.816406 255.273438 Z M 294.816406 255.273438 " fill-opacity="1" fill-rule="nonzero"/><path fill="#231f20" d="M 303.96875 250.917969 C 303.96875 250.917969 301.921875 255.316406 298.96875 254.226562 C 296.015625 253.136719 256.539062 243.316406 248.238281 268.84375 C 248.238281 268.84375 253.566406 238.519531 303.96875 250.917969 Z M 303.96875 250.917969 " fill-opacity="1" fill-rule="nonzero"/><path fill="#231f20" d="M 299.960938 245.019531 C 299.960938 245.019531 301.105469 248.660156 294.320312 247.257812 C 287.535156 245.855469 257.457031 244.9375 250.265625 260.25 C 250.265625 260.25 259.695312 237.527344 299.960938 245.019531 Z M 299.960938 245.019531 " fill-opacity="1" fill-rule="nonzero"/><path fill="#231f20" d="M 303.433594 254.949219 C 303.433594 254.949219 308.101562 257.785156 309.742188 255.261719 C 311.378906 252.730469 312.0625 251.652344 312.0625 251.652344 L 307.890625 247.589844 L 303.433594 254.957031 Z M 303.433594 254.949219 " fill-opacity="1" fill-rule="nonzero"/><path fill="#231f20" d="M 300.375 248.09375 C 300.375 248.09375 305.597656 251.355469 306.261719 246.480469 L 303.324219 244.234375 Z M 300.375 248.09375 " fill-opacity="1" fill-rule="nonzero"/><path fill="#231f20" d="M 296.632812 242.332031 L 300.96875 243.894531 L 301.425781 242.351562 L 297.253906 240.757812 Z M 296.632812 242.332031 " fill-opacity="1" fill-rule="nonzero"/><path fill="#231f20" d="M 288.496094 241.929688 L 294.339844 242.464844 L 295.21875 240.371094 C 295.21875 240.371094 292.367188 238.769531 289.46875 239.320312 Z M 288.496094 241.929688 " fill-opacity="1" fill-rule="nonzero"/><path fill="#231f20" d="M 280.453125 242.179688 L 286.699219 242.003906 L 287.527344 239.582031 C 287.527344 239.582031 283.726562 238.273438 281.078125 239.453125 L 280.453125 242.171875 Z M 280.453125 242.179688 " fill-opacity="1" fill-rule="nonzero"/><path fill="#231f20" d="M 272.386719 243.589844 L 277.878906 242.691406 L 278.34375 239.988281 C 278.34375 239.988281 274.503906 239.675781 272.40625 241.277344 Z M 272.386719 243.589844 " fill-opacity="1" fill-rule="nonzero"/><path fill="#231f20" d="M 270.203125 242.066406 L 270.53125 244.496094 C 270.53125 244.496094 261.988281 246 259.636719 248.121094 C 259.636719 248.121094 264.882812 242.9375 270.203125 242.058594 Z M 270.203125 242.066406 " fill-opacity="1" fill-rule="nonzero"/><path fill="#d28b29" d="M 270.039062 321.449219 C 270.039062 321.449219 266.398438 320.589844 265.023438 325.183594 C 264.140625 328.136719 259.554688 329.640625 259.554688 329.640625 C 259.554688 329.640625 258.519531 345.390625 268.753906 353.855469 C 268.753906 353.855469 278.683594 347.078125 289.617188 350.285156 C 289.617188 350.285156 263.453125 331.882812 270.039062 321.449219 Z M 270.039062 321.449219 " fill-opacity="1" fill-rule="nonzero"/><path fill="#d28b29" d="M 305.445312 326.257812 C 305.445312 326.257812 312.523438 332.382812 295.511719 348.09375 C 295.511719 348.09375 306.417969 347.773438 309.808594 352.855469 C 309.808594 352.855469 316.628906 339.40625 317.117188 331.042969 C 317.117188 331.042969 307.929688 323.386719 305.445312 326.257812 Z M 305.445312 326.257812 " fill-opacity="1" fill-rule="nonzero"/><path fill="#aa856a" d="M 306.214844 600.851562 C 306.214844 600.851562 298.683594 610.855469 300.28125 616.417969 C 300.28125 616.417969 310.433594 625.402344 319.300781 618.730469 C 319.300781 618.730469 309.78125 612.328125 306.214844 600.859375 Z M 306.214844 600.851562 " fill-opacity="1" fill-rule="nonzero"/><path fill="#aa856a" d="M 310.027344 594.605469 C 310.027344 594.605469 313.183594 611.761719 323.199219 616.105469 C 323.199219 616.105469 328.425781 608.128906 334.402344 603.832031 C 334.402344 603.832031 350.898438 550.40625 353.21875 529.738281 C 353.21875 529.738281 341.847656 533.347656 317.980469 523.648438 C 317.980469 523.648438 313.027344 550.835938 313.714844 565.90625 C 314.402344 580.972656 310.027344 594.605469 310.027344 594.605469 Z M 310.027344 594.605469 " fill-opacity="1" fill-rule="nonzero"/><path fill="#c2b59b" d="M 300.28125 616.410156 C 300.28125 616.410156 295.0625 623.671875 296.089844 626.953125 C 296.089844 626.953125 303.5 631.261719 314.570312 630.238281 C 314.570312 630.238281 320.585938 629.648438 325.882812 635.488281 C 331.175781 641.328125 354.476562 647.574219 363.195312 641.808594 C 371.910156 636.046875 360.03125 626.652344 360.03125 626.652344 C 360.03125 626.652344 342.636719 618.554688 340.921875 609.863281 C 339.207031 601.171875 334.414062 603.828125 334.414062 603.828125 C 334.414062 603.828125 324.882812 608.835938 322.691406 614.714844 C 322.691406 614.714844 313.410156 610.414062 310.039062 594.597656 L 306.230469 600.839844 C 306.230469 600.839844 310.039062 613.917969 318.410156 618.070312 C 318.410156 618.070312 313.890625 624.824219 300.296875 616.398438 Z M 300.28125 616.410156 " fill-opacity="1" fill-rule="nonzero"/><path fill="#231f20" d="M 325.148438 617.675781 C 325.148438 617.9375 325.121094 618.199219 325.070312 618.457031 C 325.019531 618.714844 324.941406 618.964844 324.84375 619.207031 C 324.742188 619.449219 324.617188 619.679688 324.472656 619.898438 C 324.328125 620.117188 324.160156 620.320312 323.976562 620.507812 C 323.789062 620.691406 323.585938 620.859375 323.367188 621.003906 C 323.148438 621.148438 322.917969 621.273438 322.675781 621.375 C 322.433594 621.472656 322.183594 621.550781 321.925781 621.601562 C 321.667969 621.652344 321.410156 621.679688 321.144531 621.679688 C 320.882812 621.679688 320.621094 621.652344 320.363281 621.601562 C 320.105469 621.550781 319.855469 621.472656 319.613281 621.375 C 319.371094 621.273438 319.140625 621.148438 318.921875 621.003906 C 318.703125 620.859375 318.503906 620.691406 318.316406 620.507812 C 318.128906 620.320312 317.964844 620.117188 317.820312 619.898438 C 317.671875 619.679688 317.550781 619.449219 317.449219 619.207031 C 317.347656 618.964844 317.273438 618.714844 317.222656 618.457031 C 317.171875 618.199219 317.144531 617.9375 317.144531 617.675781 C 317.144531 617.414062 317.171875 617.152344 317.222656 616.894531 C 317.273438 616.636719 317.347656 616.386719 317.449219 616.144531 C 317.550781 615.902344 317.671875 615.671875 317.820312 615.453125 C 317.964844 615.234375 318.128906 615.03125 318.316406 614.847656 C 318.503906 614.660156 318.703125 614.496094 318.921875 614.347656 C 319.140625 614.203125 319.371094 614.078125 319.613281 613.980469 C 319.855469 613.878906 320.105469 613.804688 320.363281 613.75 C 320.621094 613.699219 320.882812 613.675781 321.144531 613.675781 C 321.410156 613.675781 321.667969 613.699219 321.925781 613.75 C 322.183594 613.804688 322.433594 613.878906 322.675781 613.980469 C 322.917969 614.078125 323.148438 614.203125 323.367188 614.347656 C 323.585938 614.496094 323.789062 614.660156 323.976562 614.847656 C 324.160156 615.03125 324.328125 615.234375 324.472656 615.453125 C 324.617188 615.671875 324.742188 615.902344 324.84375 616.144531 C 324.941406 616.386719 325.019531 616.636719 325.070312 616.894531 C 325.121094 617.152344 325.148438 617.414062 325.148438 617.675781 Z M 325.148438 617.675781 " fill-opacity="1" fill-rule="nonzero"/><path fill="#231f20" d="M 332.15625 630.53125 C 332.15625 630.882812 332.089844 631.222656 331.953125 631.546875 C 331.820312 631.871094 331.628906 632.15625 331.382812 632.40625 C 331.132812 632.652344 330.847656 632.84375 330.523438 632.980469 C 330.199219 633.113281 329.859375 633.179688 329.507812 633.179688 C 329.15625 633.179688 328.820312 633.113281 328.496094 632.980469 C 328.171875 632.84375 327.886719 632.652344 327.636719 632.40625 C 327.390625 632.15625 327.199219 631.871094 327.0625 631.546875 C 326.929688 631.222656 326.863281 630.882812 326.863281 630.53125 C 326.863281 630.179688 326.929688 629.84375 327.0625 629.519531 C 327.199219 629.195312 327.390625 628.910156 327.636719 628.660156 C 327.886719 628.414062 328.171875 628.222656 328.496094 628.085938 C 328.820312 627.953125 329.15625 627.886719 329.507812 627.886719 C 329.859375 627.886719 330.199219 627.953125 330.523438 628.085938 C 330.847656 628.222656 331.132812 628.414062 331.382812 628.660156 C 331.628906 628.910156 331.820312 629.195312 331.953125 629.519531 C 332.089844 629.84375 332.15625 630.179688 332.15625 630.53125 Z M 332.15625 630.53125 " fill-opacity="1" fill-rule="nonzero"/><path fill="#231f20" d="M 340.207031 635.316406 C 340.207031 635.667969 340.140625 636.007812 340.003906 636.332031 C 339.871094 636.65625 339.679688 636.941406 339.429688 637.1875 C 339.183594 637.4375 338.898438 637.628906 338.574219 637.761719 C 338.25 637.898438 337.910156 637.964844 337.558594 637.964844 C 337.207031 637.964844 336.871094 637.898438 336.546875 637.761719 C 336.222656 637.628906 335.9375 637.4375 335.6875 637.1875 C 335.4375 636.941406 335.25 636.65625 335.113281 636.332031 C 334.980469 636.007812 334.914062 635.667969 334.914062 635.316406 C 334.914062 634.964844 334.980469 634.628906 335.113281 634.304688 C 335.25 633.980469 335.4375 633.695312 335.6875 633.445312 C 335.9375 633.195312 336.222656 633.003906 336.546875 632.871094 C 336.871094 632.738281 337.207031 632.667969 337.558594 632.667969 C 337.910156 632.667969 338.25 632.738281 338.574219 632.871094 C 338.898438 633.003906 339.183594 633.195312 339.429688 633.445312 C 339.679688 633.695312 339.871094 633.980469 340.003906 634.304688 C 340.140625 634.628906 340.207031 634.964844 340.207031 635.316406 Z M 340.207031 635.316406 " fill-opacity="1" fill-rule="nonzero"/><path fill="#231f20" d="M 349.796875 638.265625 C 349.796875 638.613281 349.726562 638.953125 349.59375 639.277344 C 349.460938 639.601562 349.269531 639.886719 349.019531 640.136719 C 348.769531 640.382812 348.484375 640.574219 348.160156 640.710938 C 347.835938 640.84375 347.5 640.910156 347.148438 640.910156 C 346.796875 640.910156 346.460938 640.84375 346.136719 640.710938 C 345.808594 640.574219 345.523438 640.382812 345.277344 640.136719 C 345.027344 639.886719 344.835938 639.601562 344.703125 639.277344 C 344.566406 638.953125 344.5 638.613281 344.5 638.265625 C 344.5 637.914062 344.566406 637.574219 344.703125 637.25 C 344.835938 636.925781 345.027344 636.640625 345.277344 636.390625 C 345.523438 636.144531 345.808594 635.953125 346.136719 635.816406 C 346.460938 635.683594 346.796875 635.617188 347.148438 635.617188 C 347.5 635.617188 347.835938 635.683594 348.160156 635.816406 C 348.484375 635.953125 348.769531 636.144531 349.019531 636.390625 C 349.269531 636.640625 349.460938 636.925781 349.59375 637.25 C 349.726562 637.574219 349.796875 637.914062 349.796875 638.265625 Z M 349.796875 638.265625 " fill-opacity="1" fill-rule="nonzero"/><path fill="#231f20" d="M 358.273438 638.582031 C 358.273438 638.933594 358.207031 639.273438 358.074219 639.597656 C 357.9375 639.921875 357.746094 640.207031 357.5 640.457031 C 357.25 640.703125 356.964844 640.894531 356.640625 641.03125 C 356.316406 641.164062 355.976562 641.230469 355.625 641.230469 C 355.277344 641.230469 354.9375 641.164062 354.613281 641.03125 C 354.289062 640.894531 354.003906 640.703125 353.753906 640.457031 C 353.507812 640.207031 353.316406 639.921875 353.179688 639.597656 C 353.046875 639.273438 352.980469 638.933594 352.980469 638.582031 C 352.980469 638.234375 353.046875 637.894531 353.179688 637.570312 C 353.316406 637.246094 353.507812 636.960938 353.753906 636.710938 C 354.003906 636.464844 354.289062 636.273438 354.613281 636.136719 C 354.9375 636.003906 355.277344 635.9375 355.625 635.9375 C 355.976562 635.9375 356.316406 636.003906 356.640625 636.136719 C 356.964844 636.273438 357.25 636.464844 357.5 636.710938 C 357.746094 636.960938 357.9375 637.246094 358.074219 637.570312 C 358.207031 637.894531 358.273438 638.234375 358.273438 638.582031 Z M 358.273438 638.582031 " fill-opacity="1" fill-rule="nonzero"/><path fill="#231f20" d="M 365.808594 637.058594 C 365.808594 637.410156 365.738281 637.75 365.605469 638.074219 C 365.472656 638.398438 365.28125 638.683594 365.03125 638.929688 C 364.785156 639.179688 364.496094 639.371094 364.171875 639.503906 C 363.847656 639.640625 363.511719 639.707031 363.160156 639.707031 C 362.808594 639.707031 362.472656 639.640625 362.148438 639.503906 C 361.824219 639.371094 361.535156 639.179688 361.289062 638.929688 C 361.039062 638.683594 360.847656 638.398438 360.714844 638.074219 C 360.578125 637.75 360.511719 637.410156 360.511719 637.058594 C 360.511719 636.707031 360.578125 636.371094 360.714844 636.046875 C 360.847656 635.722656 361.039062 635.4375 361.289062 635.1875 C 361.535156 634.9375 361.824219 634.746094 362.148438 634.613281 C 362.472656 634.480469 362.808594 634.410156 363.160156 634.410156 C 363.511719 634.410156 363.847656 634.480469 364.171875 634.613281 C 364.496094 634.746094 364.785156 634.9375 365.03125 635.1875 C 365.28125 635.4375 365.472656 635.722656 365.605469 636.046875 C 365.738281 636.371094 365.808594 636.707031 365.808594 637.058594 Z M 365.808594 637.058594 " fill-opacity="1" fill-rule="nonzero"/><path stroke-linecap="round" transform="matrix(0.680504, 0, 0, 0.680579, -50.525202, -66.142231)" fill="none" stroke-linejoin="miter" d="M 561.580689 1015.359828 C 561.580689 1015.359828 588.129248 1032.458084 604.729991 1023.228813 " stroke="#231f20" stroke-width="0.5" stroke-opacity="1" stroke-miterlimit="10"/><path fill="#db964d" d="M 194.09375 464.738281 C 194.09375 464.738281 181.429688 461.640625 186.535156 437.296875 C 186.535156 437.296875 188.269531 432.101562 190.238281 430.359375 C 190.238281 430.359375 181.640625 429.539062 186.203125 421.621094 C 190.761719 413.707031 196.046875 423.976562 196.046875 423.976562 C 196.046875 423.976562 209.011719 413.898438 222.929688 421.988281 C 222.929688 421.988281 226.542969 413.671875 231.511719 419.117188 C 236.484375 424.5625 229.535156 427.789062 229.535156 427.789062 C 229.535156 427.789062 245.496094 445.90625 232.414062 461.308594 C 232.414062 461.308594 258.695312 471.367188 253.496094 483.703125 C 253.496094 483.703125 250.378906 488.984375 240.921875 481.988281 C 240.921875 481.988281 242.839844 490.175781 241.777344 495.089844 C 241.777344 495.089844 258.300781 490.089844 254.410156 504.652344 C 250.507812 519.21875 237.125 519.167969 237.125 519.167969 C 237.125 519.167969 231.039062 517.953125 230.699219 512.664062 C 230.699219 512.664062 220.585938 523.941406 202.472656 515.203125 C 202.472656 515.203125 201.886719 527.472656 188.058594 520.761719 C 174.230469 514.050781 177.621094 502.285156 177.621094 502.285156 C 177.621094 502.285156 180.8125 498.152344 187.3125 498.648438 C 187.3125 498.648438 185.847656 490.433594 188.09375 485.902344 C 188.09375 485.902344 181.589844 492.328125 175.171875 489.515625 C 168.753906 486.707031 179.476562 474.230469 179.476562 474.230469 C 179.476562 474.230469 187.683594 465.613281 194.09375 464.738281 Z M 194.09375 464.738281 " fill-opacity="1" fill-rule="nonzero"/><path fill="#c66f2b" d="M 249.082031 493.695312 C 249.082031 493.695312 230.617188 493.75 230.699219 512.671875 C 230.699219 512.671875 233.246094 523.355469 243.949219 517.578125 C 243.949219 517.578125 229.203125 521.539062 233.117188 507.203125 C 233.117188 507.203125 238.613281 495.996094 249.085938 493.695312 Z M 249.082031 493.695312 " fill-opacity="1" fill-rule="nonzero"/><path fill="#c66f2b" d="M 191.128906 521.722656 C 191.128906 521.722656 201.28125 525.214844 202.472656 515.207031 C 203.664062 505.203125 188.917969 498.546875 188.917969 498.546875 C 188.917969 498.546875 180.050781 497.050781 179.355469 500.554688 C 179.355469 500.554688 188.800781 496.703125 195.632812 505.960938 C 202.472656 515.207031 198.132812 519.414062 198.132812 519.414062 C 198.132812 519.414062 194.570312 521.496094 191.128906 521.722656 Z M 191.128906 521.722656 " fill-opacity="1" fill-rule="nonzero"/><path fill="#c66f2b" d="M 250.53125 479.078125 C 250.878906 479.269531 251.183594 479.496094 251.457031 479.761719 C 251.726562 480.023438 251.9375 480.304688 252.09375 480.601562 C 252.246094 480.898438 252.332031 481.191406 252.347656 481.476562 C 252.363281 481.761719 252.304688 482.019531 252.179688 482.25 C 252.050781 482.480469 251.863281 482.664062 251.613281 482.804688 C 251.367188 482.941406 251.074219 483.027344 250.738281 483.054688 C 250.40625 483.082031 250.054688 483.050781 249.6875 482.964844 C 249.320312 482.875 248.964844 482.738281 248.617188 482.546875 C 248.273438 482.355469 247.964844 482.128906 247.695312 481.863281 C 247.425781 481.601562 247.210938 481.320312 247.058594 481.023438 C 246.902344 480.726562 246.820312 480.433594 246.804688 480.148438 C 246.789062 479.863281 246.84375 479.605469 246.972656 479.375 C 247.097656 479.144531 247.285156 478.960938 247.535156 478.820312 C 247.785156 478.683594 248.078125 478.597656 248.410156 478.570312 C 248.746094 478.542969 249.09375 478.574219 249.464844 478.660156 C 249.832031 478.75 250.1875 478.886719 250.53125 479.078125 Z M 250.53125 479.078125 " fill-opacity="1" fill-rule="nonzero"/><path fill="#c66f2b" d="M 181.5625 483.222656 C 181.714844 483.433594 181.804688 483.679688 181.828125 483.964844 C 181.851562 484.25 181.804688 484.550781 181.691406 484.867188 C 181.574219 485.179688 181.402344 485.488281 181.167969 485.785156 C 180.933594 486.082031 180.65625 486.347656 180.339844 486.578125 C 180.023438 486.8125 179.6875 486.996094 179.335938 487.132812 C 178.980469 487.269531 178.636719 487.34375 178.304688 487.359375 C 177.96875 487.375 177.667969 487.332031 177.402344 487.222656 C 177.136719 487.117188 176.925781 486.960938 176.769531 486.75 C 176.617188 486.535156 176.527344 486.289062 176.503906 486.003906 C 176.480469 485.71875 176.527344 485.417969 176.644531 485.105469 C 176.757812 484.789062 176.929688 484.484375 177.164062 484.1875 C 177.398438 483.890625 177.675781 483.625 177.992188 483.390625 C 178.308594 483.15625 178.644531 482.972656 179 482.835938 C 179.351562 482.703125 179.695312 482.625 180.03125 482.609375 C 180.363281 482.59375 180.664062 482.640625 180.929688 482.746094 C 181.195312 482.851562 181.40625 483.011719 181.5625 483.222656 Z M 181.5625 483.222656 " fill-opacity="1" fill-rule="nonzero"/><path fill="#96d9ec" d="M 217.558594 467.828125 C 217.582031 468.175781 217.527344 468.515625 217.398438 468.847656 C 217.269531 469.179688 217.078125 469.476562 216.816406 469.738281 C 216.554688 470.003906 216.25 470.214844 215.898438 470.371094 C 215.546875 470.527344 215.171875 470.617188 214.78125 470.644531 C 214.390625 470.667969 214.011719 470.625 213.640625 470.515625 C 213.273438 470.40625 212.941406 470.238281 212.648438 470.011719 C 212.355469 469.785156 212.125 469.515625 211.953125 469.203125 C 211.785156 468.890625 211.6875 468.5625 211.664062 468.214844 C 211.640625 467.867188 211.695312 467.527344 211.824219 467.195312 C 211.953125 466.867188 212.144531 466.566406 212.40625 466.304688 C 212.667969 466.039062 212.972656 465.832031 213.324219 465.671875 C 213.675781 465.515625 214.050781 465.425781 214.441406 465.398438 C 214.832031 465.375 215.210938 465.417969 215.582031 465.527344 C 215.949219 465.636719 216.28125 465.804688 216.574219 466.03125 C 216.867188 466.257812 217.097656 466.527344 217.269531 466.839844 C 217.4375 467.152344 217.535156 467.480469 217.558594 467.828125 Z M 217.558594 467.828125 " fill-opacity="1" fill-rule="nonzero"/><path fill="#96d9ec" d="M 201.757812 464.007812 L 202.820312 474.203125 L 214.585938 468.039062 L 226.652344 472.515625 L 226.03125 463.082031 L 214.578125 466.988281 Z M 201.757812 464.007812 " fill-opacity="1" fill-rule="nonzero"/><path fill="#f8e8c5" d="M 225.144531 453.0625 C 225.183594 453.644531 225.132812 454.226562 224.996094 454.804688 C 224.859375 455.386719 224.636719 455.957031 224.328125 456.515625 C 224.023438 457.074219 223.636719 457.609375 223.171875 458.125 C 222.703125 458.640625 222.167969 459.125 221.5625 459.578125 C 220.957031 460.027344 220.292969 460.441406 219.570312 460.8125 C 218.847656 461.183594 218.082031 461.507812 217.269531 461.78125 C 216.457031 462.058594 215.617188 462.28125 214.746094 462.453125 C 213.878906 462.625 212.996094 462.738281 212.101562 462.796875 C 211.207031 462.855469 210.316406 462.855469 209.433594 462.800781 C 208.546875 462.746094 207.683594 462.632812 206.84375 462.464844 C 206.003906 462.296875 205.199219 462.074219 204.433594 461.800781 C 203.671875 461.527344 202.957031 461.207031 202.300781 460.835938 C 201.640625 460.46875 201.046875 460.058594 200.519531 459.605469 C 199.988281 459.15625 199.535156 458.675781 199.160156 458.160156 C 198.78125 457.648438 198.488281 457.109375 198.277344 456.550781 C 198.0625 455.996094 197.9375 455.425781 197.902344 454.84375 C 197.863281 454.265625 197.914062 453.683594 198.050781 453.101562 C 198.1875 452.523438 198.410156 451.953125 198.714844 451.394531 C 199.023438 450.835938 199.410156 450.296875 199.875 449.78125 C 200.339844 449.265625 200.875 448.785156 201.480469 448.332031 C 202.085938 447.878906 202.75 447.46875 203.472656 447.097656 C 204.195312 446.726562 204.964844 446.402344 205.777344 446.125 C 206.585938 445.847656 207.429688 445.625 208.296875 445.457031 C 209.167969 445.285156 210.050781 445.171875 210.945312 445.113281 C 211.839844 445.054688 212.730469 445.050781 213.613281 445.109375 C 214.5 445.164062 215.359375 445.277344 216.203125 445.445312 C 217.042969 445.613281 217.84375 445.832031 218.609375 446.105469 C 219.375 446.382812 220.085938 446.703125 220.746094 447.070312 C 221.40625 447.441406 222 447.851562 222.527344 448.300781 C 223.054688 448.75 223.507812 449.234375 223.886719 449.746094 C 224.265625 450.261719 224.558594 450.796875 224.769531 451.355469 C 224.980469 451.914062 225.105469 452.484375 225.144531 453.0625 Z M 225.144531 453.0625 " fill-opacity="1" fill-rule="nonzero"/><path fill="#f6aac1" d="M 231.824219 448.617188 C 231.851562 449.019531 231.796875 449.40625 231.660156 449.789062 C 231.527344 450.167969 231.320312 450.507812 231.042969 450.808594 C 230.765625 451.113281 230.441406 451.351562 230.066406 451.53125 C 229.691406 451.710938 229.296875 451.8125 228.878906 451.839844 C 228.460938 451.867188 228.054688 451.816406 227.660156 451.6875 C 227.265625 451.558594 226.910156 451.363281 226.597656 451.101562 C 226.285156 450.835938 226.035156 450.527344 225.851562 450.167969 C 225.667969 449.808594 225.5625 449.429688 225.539062 449.027344 C 225.511719 448.628906 225.566406 448.238281 225.703125 447.859375 C 225.835938 447.480469 226.042969 447.140625 226.320312 446.835938 C 226.59375 446.535156 226.921875 446.292969 227.296875 446.117188 C 227.671875 445.9375 228.066406 445.835938 228.484375 445.808594 C 228.902344 445.78125 229.308594 445.832031 229.703125 445.960938 C 230.097656 446.085938 230.453125 446.28125 230.765625 446.546875 C 231.078125 446.808594 231.328125 447.121094 231.511719 447.480469 C 231.695312 447.839844 231.800781 448.21875 231.824219 448.617188 Z M 231.824219 448.617188 " fill-opacity="1" fill-rule="nonzero"/><path fill="#f6aac1" d="M 197.46875 450.855469 C 197.496094 451.253906 197.441406 451.644531 197.304688 452.023438 C 197.167969 452.402344 196.964844 452.746094 196.6875 453.046875 C 196.410156 453.347656 196.085938 453.589844 195.710938 453.765625 C 195.335938 453.945312 194.9375 454.046875 194.519531 454.074219 C 194.105469 454.101562 193.699219 454.050781 193.304688 453.925781 C 192.90625 453.796875 192.554688 453.601562 192.242188 453.335938 C 191.925781 453.074219 191.679688 452.761719 191.496094 452.402344 C 191.3125 452.042969 191.207031 451.664062 191.179688 451.265625 C 191.152344 450.867188 191.207031 450.476562 191.34375 450.097656 C 191.480469 449.714844 191.683594 449.375 191.960938 449.074219 C 192.238281 448.769531 192.5625 448.53125 192.9375 448.351562 C 193.3125 448.175781 193.710938 448.070312 194.128906 448.042969 C 194.542969 448.015625 194.949219 448.066406 195.34375 448.195312 C 195.742188 448.324219 196.09375 448.519531 196.40625 448.78125 C 196.722656 449.046875 196.96875 449.355469 197.152344 449.714844 C 197.335938 450.074219 197.441406 450.453125 197.46875 450.855469 Z M 197.46875 450.855469 " fill-opacity="1" fill-rule="nonzero"/><path fill="#231f20" d="M 202.34375 442.253906 C 202.363281 442.566406 202.335938 442.867188 202.257812 443.164062 C 202.179688 443.457031 202.058594 443.722656 201.894531 443.957031 C 201.730469 444.1875 201.535156 444.371094 201.3125 444.507812 C 201.085938 444.640625 200.847656 444.71875 200.59375 444.734375 C 200.34375 444.75 200.097656 444.707031 199.855469 444.601562 C 199.613281 444.496094 199.398438 444.339844 199.207031 444.132812 C 199.011719 443.921875 198.859375 443.675781 198.742188 443.394531 C 198.628906 443.109375 198.558594 442.8125 198.539062 442.5 C 198.519531 442.1875 198.546875 441.882812 198.625 441.589844 C 198.703125 441.292969 198.824219 441.03125 198.988281 440.796875 C 199.152344 440.566406 199.347656 440.382812 199.570312 440.246094 C 199.796875 440.113281 200.035156 440.035156 200.285156 440.019531 C 200.539062 440.003906 200.785156 440.046875 201.027344 440.152344 C 201.265625 440.257812 201.484375 440.414062 201.675781 440.621094 C 201.871094 440.832031 202.023438 441.078125 202.136719 441.359375 C 202.253906 441.640625 202.320312 441.941406 202.34375 442.253906 Z M 202.34375 442.253906 " fill-opacity="1" fill-rule="nonzero"/><path fill="#231f20" d="M 222.351562 440.941406 C 222.371094 441.253906 222.34375 441.558594 222.265625 441.855469 C 222.1875 442.148438 222.066406 442.414062 221.902344 442.644531 C 221.738281 442.878906 221.542969 443.0625 221.320312 443.195312 C 221.09375 443.332031 220.855469 443.40625 220.601562 443.421875 C 220.351562 443.441406 220.105469 443.394531 219.863281 443.292969 C 219.625 443.1875 219.40625 443.03125 219.214844 442.820312 C 219.019531 442.613281 218.867188 442.367188 218.75 442.082031 C 218.636719 441.800781 218.566406 441.503906 218.546875 441.191406 C 218.527344 440.878906 218.554688 440.574219 218.632812 440.28125 C 218.710938 439.984375 218.832031 439.722656 218.996094 439.488281 C 219.160156 439.257812 219.355469 439.070312 219.578125 438.9375 C 219.804688 438.800781 220.042969 438.726562 220.296875 438.710938 C 220.546875 438.695312 220.792969 438.738281 221.035156 438.84375 C 221.273438 438.945312 221.492188 439.101562 221.683594 439.3125 C 221.878906 439.523438 222.03125 439.769531 222.148438 440.050781 C 222.261719 440.332031 222.332031 440.628906 222.351562 440.941406 Z M 222.351562 440.941406 " fill-opacity="1" fill-rule="nonzero"/><path fill="#f8e8c5" d="M 224.941406 423.09375 C 224.941406 423.09375 226.707031 418.128906 229.792969 420.601562 C 232.878906 423.070312 228.5625 426.03125 228.5625 426.03125 C 228.5625 426.03125 226.105469 425.523438 224.941406 423.09375 Z M 224.941406 423.09375 " fill-opacity="1" fill-rule="nonzero"/><path fill="#f8e8c5" d="M 194.503906 425.078125 C 194.503906 425.078125 192.109375 420.390625 189.371094 423.242188 C 186.636719 426.09375 191.296875 428.460938 191.296875 428.460938 C 191.296875 428.460938 193.667969 427.636719 194.503906 425.078125 Z M 194.503906 425.078125 " fill-opacity="1" fill-rule="nonzero"/><path fill="#231f20" d="M 212.246094 451.378906 L 214.046875 448.75 C 214.570312 447.988281 213.988281 446.96875 213.066406 447.019531 L 209.136719 447.28125 C 208.214844 447.339844 207.765625 448.4375 208.386719 449.117188 L 210.515625 451.484375 C 210.992188 452.015625 211.84375 451.960938 212.246094 451.371094 Z M 212.246094 451.378906 " fill-opacity="1" fill-rule="nonzero"/><path stroke-linecap="butt" transform="matrix(0.680504, 0, 0, 0.680579, -50.525202, -66.142231)" fill="none" stroke-linejoin="miter" d="M 377.491541 768.052121 C 377.491541 768.052121 384.850514 769.76252 384.850514 760.900584 " stroke="#231f20" stroke-width="1" stroke-opacity="1" stroke-miterlimit="10"/><path stroke-linecap="butt" transform="matrix(0.680504, 0, 0, 0.680579, -50.525202, -66.142231)" fill="none" stroke-linejoin="miter" d="M 393.070523 767.030473 C 393.070523 767.030473 385.99282 769.682166 384.839034 760.889105 " stroke="#231f20" stroke-width="1" stroke-opacity="1" stroke-miterlimit="10"/></svg>