<?xml version="1.0" encoding="UTF-8"?>
<svg xmlns="http://www.w3.org/2000/svg" viewBox="0 0 1333.88 999.75">
  <defs>
    <style>
      .cls-1 {
        stroke: #d1d3d4;
      }

      .cls-1, .cls-2, .cls-3, .cls-4, .cls-5, .cls-6, .cls-7, .cls-8, .cls-9, .cls-10, .cls-11, .cls-12, .cls-13, .cls-14, .cls-15, .cls-16, .cls-17, .cls-18, .cls-19, .cls-20, .cls-21, .cls-22, .cls-23, .cls-24, .cls-25, .cls-26, .cls-27 {
        stroke-miterlimit: 10;
      }

      .cls-1, .cls-2, .cls-3, .cls-4, .cls-5, .cls-6, .cls-15, .cls-17, .cls-18, .cls-19, .cls-22, .cls-23, .cls-24, .cls-25, .cls-26, .cls-27 {
        fill: none;
      }

      .cls-1, .cls-2, .cls-20, .cls-21 {
        stroke-width: 6px;
      }

      .cls-2, .cls-10, .cls-20, .cls-23 {
        stroke: #fff;
      }

      .cls-3, .cls-4, .cls-5, .cls-6, .cls-16 {
        stroke-width: .8px;
      }

      .cls-3, .cls-14, .cls-16, .cls-19 {
        stroke: #754c29;
      }

      .cls-4, .cls-12, .cls-13, .cls-25 {
        stroke: #603913;
      }

      .cls-5, .cls-15, .cls-17, .cls-22 {
        stroke: #231f20;
      }

      .cls-6 {
        stroke: #006838;
      }

      .cls-7 {
        stroke: #6d6e71;
        stroke-width: .3px;
      }

      .cls-7, .cls-28, .cls-29 {
        fill: #fff;
      }

      .cls-30, .cls-14 {
        fill: #f7daa6;
      }

      .cls-31 {
        fill: #f7d9a4;
      }

      .cls-32 {
        fill: #f8a69b;
      }

      .cls-33 {
        fill: #01a04c;
      }

      .cls-34 {
        fill: #f7941d;
      }

      .cls-35 {
        fill: #f6ac1b;
      }

      .cls-36 {
        fill: #fbb040;
      }

      .cls-37 {
        fill: #fbc5b3;
      }

      .cls-38 {
        fill: #803435;
      }

      .cls-39 {
        fill: #87664d;
      }

      .cls-40 {
        fill: #b56e5b;
      }

      .cls-41 {
        fill: #8b5e3c;
      }

      .cls-42, .cls-16 {
        fill: #ba9777;
      }

      .cls-43 {
        fill: #b1dcc4;
      }

      .cls-44, .cls-8, .cls-11, .cls-21 {
        fill: #a97c50;
      }

      .cls-45, .cls-13 {
        fill: #be9e7d;
      }

      .cls-46 {
        fill: #dad0c1;
      }

      .cls-47, .cls-9 {
        fill: #d1d3d4;
      }

      .cls-48 {
        fill: #d5b79f;
      }

      .cls-49, .cls-12 {
        fill: #dcbf97;
      }

      .cls-50 {
        fill: #c6837e;
      }

      .cls-51 {
        fill: #231f20;
      }

      .cls-52 {
        fill: #092f44;
      }

      .cls-53 {
        fill: #0f3e5d;
      }

      .cls-54 {
        fill: #26130f;
      }

      .cls-8 {
        stroke-width: 2px;
      }

      .cls-8, .cls-11, .cls-21, .cls-27 {
        stroke: #a97c50;
      }

      .cls-9 {
        stroke: #58595b;
      }

      .cls-9, .cls-15 {
        stroke-width: .2px;
      }

      .cls-10 {
        fill: #fff200;
      }

      .cls-10, .cls-11, .cls-12, .cls-13, .cls-14, .cls-22, .cls-23, .cls-24, .cls-25, .cls-26, .cls-27 {
        stroke-width: .5px;
      }

      .cls-18 {
        stroke: #ef4136;
      }

      .cls-19 {
        stroke-width: 8px;
      }

      .cls-20 {
        fill: #c8eaf6;
      }

      .cls-29 {
        opacity: .8;
      }

      .cls-24 {
        stroke: #cfe5ae;
      }

      .cls-26 {
        stroke: #3c2415;
      }
    </style>
  </defs>
  <g id="Layer_2" data-name="Layer 2">
    <rect class="cls-43" x=".02" width="1333.86" height="941.44"/>
    <rect class="cls-31" y="803.78" width="1333.75" height="195.96"/>
    <rect class="cls-44" x="1003.51" y="50.09" width="330.05" height="753.17"/>
    <polyline class="cls-19" points="1333.86 50.52 1006.72 50.52 1006.72 803.7"/>
    <g>
      <ellipse class="cls-36" cx="1049.57" cy="440.57" rx="14.46" ry="16.58"/>
      <path class="cls-34" d="M1066.67,423.94l-9,.92s-9.51,1.34-9.72,14.12c-.24,14.91,5.81,17.73,8.13,17.79l10.59,.34"/>
      <path class="cls-34" d="M1054.45,430.45h-6.82s-10.09,10.29-.46,20.03l7.28,.17"/>
      <ellipse class="cls-36" cx="1066.67" cy="440.52" rx="14.46" ry="16.58"/>
    </g>
    <g>
      <rect class="cls-20" x="82" y="57.13" width="390.42" height="343.5"/>
      <line class="cls-21" x1="37.01" y1="44.92" x2="517.37" y2="44.92"/>
      <circle class="cls-8" cx="33.43" cy="44.35" r="6.32"/>
      <circle class="cls-8" cx="523.87" cy="45.19" r="6.32"/>
      <path class="cls-35" d="M51.24,35.1l-.73,396.5s15.42,13.22,39.65,5.14v-16.89s22.03,5.87,34.51,0v13.95s22.76,8.81,30.1,.73l-15.42-259.19,8.08-140.24-39.65,.73-8.81,2.2-14.69-2.94H51.24Z"/>
      <path class="cls-35" d="M510.35,35.1l.73,396.5s-15.42,13.22-39.65,5.14v-16.89s-22.03,5.87-34.51,0v13.95s-22.76,8.81-30.1,.73l15.42-259.19-8.08-140.24,39.65,.73,8.81,2.2,14.69-2.94h33.04Z"/>
      <line class="cls-18" x1="90.15" y1="419.85" x2="82.59" y2="263.85"/>
      <line class="cls-18" x1="124.66" y1="419.85" x2="121.13" y2="273.26"/>
      <line class="cls-18" x1="84.28" y1="35.1" x2="81.61" y2="189.77"/>
      <line class="cls-18" x1="98.96" y1="38.04" x2="101.04" y2="269"/>
      <line class="cls-18" x1="436.93" y1="419.85" x2="437.41" y2="280.22"/>
      <line class="cls-18" x1="471.44" y1="419.85" x2="474.04" y2="238.36"/>
      <line class="cls-18" x1="453.82" y1="35.84" x2="453.86" y2="168.09"/>
      <line class="cls-18" x1="477.31" y1="35.1" x2="477.78" y2="200.23"/>
      <line class="cls-2" x1="277.58" y1="55.5" x2="277.58" y2="399.86"/>
      <line class="cls-1" x1="282.81" y1="60.01" x2="282.81" y2="396.83"/>
      <path class="cls-29" d="M403.19,195.24l-63.72-1.26s-14.61-4.64-13.88-13.25c1.26-14.85,13.25-13.88,13.25-13.88,0,0,.63-17.03,19.56-17.03,0,0,14.51-1.26,14.51,17.03,0,0,7.57-11.99,20.19-4.42,0,0,8.83,9.46,1.26,14.51,0,0,16.4-11.36,20.82,3.15,0,0,3.79,15.77-11.99,15.14"/>
      <path class="cls-29" d="M175.67,245.06l74.15-1.47s17-5.4,16.15-15.42c-1.47-17.28-15.42-16.15-15.42-16.15,0,0-.73-19.82-22.76-19.82,0,0-16.89-1.47-16.89,19.82,0,0-8.81-13.95-23.49-5.14,0,0-10.28,11.01-1.47,16.89,0,0-19.09-13.22-24.23,3.67,0,0-4.41,18.35,13.95,17.62"/>
    </g>
    <g>
      <polygon class="cls-44" points="471.64 655.2 242.25 655.31 291.3 586.67 442.31 586.67 471.64 655.2"/>
      <rect class="cls-39" x="242.25" y="655.31" width="229.37" height="16.94"/>
      <polygon class="cls-44" points="269.71 877.54 254.86 877.54 248.13 672.48 274.73 672.48 269.71 877.54"/>
      <polygon class="cls-44" points="318.84 829.77 303.99 829.77 297.26 672.48 323.85 672.48 318.84 829.77"/>
      <polygon class="cls-44" points="422.18 829.77 407.33 829.77 400.6 672.48 427.2 672.48 422.18 829.77"/>
      <polygon class="cls-44" points="461.28 877.54 446.28 877.54 441.03 672.72 466.26 672.72 461.28 877.54"/>
      <rect class="cls-44" x="291.3" y="385.21" width="151.01" height="201.45"/>
    </g>
    <g>
      <polygon class="cls-44" points="764.72 655.2 535.33 655.31 584.38 586.67 735.39 586.67 764.72 655.2"/>
      <rect class="cls-39" x="535.33" y="655.31" width="229.37" height="16.94"/>
      <polygon class="cls-44" points="562.79 877.54 547.94 877.54 541.21 672.48 567.81 672.48 562.79 877.54"/>
      <polygon class="cls-44" points="611.92 829.77 597.07 829.77 590.34 672.48 616.94 672.48 611.92 829.77"/>
      <polygon class="cls-44" points="715.26 829.77 700.41 829.77 693.68 672.48 720.28 672.48 715.26 829.77"/>
      <polygon class="cls-44" points="754.37 877.54 739.36 877.54 734.11 672.72 759.35 672.72 754.37 877.54"/>
      <rect class="cls-44" x="584.38" y="385.21" width="151.01" height="201.45"/>
    </g>
  </g>
  <g id="Layer_1" data-name="Layer 1">
    <g>
      <path class="cls-42" d="M357.19,533.58l-8.35,1.27-35.67-4.89-22.07,9.94s-8.84,13.06,.65,15.74c0,0-.64,5.33,7.07,4.63,0,0,.82,5.28,7.94,1.87,0,0,6.33,11.78,10.06,3.32,3.73-8.45,6.81-2.08,6.81-2.08,0,0,14.45,3.18,22.91-7.34,0,0,6.28-6.01,10.34-2.14l.32-20.32Z"/>
      <path class="cls-4" d="M291.75,555.65l-.48-7.77s4.41-7.94,16.47-10.72"/>
      <path class="cls-4" d="M298.99,560.36l-.48-7.77s4.28-5.39,15.55-9.49"/>
      <path class="cls-4" d="M317.87,555.13s-12.13,.09-11.11,7.02"/>
      <path class="cls-14" d="M459.92,465.74s12.72,47.96-2.87,86.01c-5.79,14.14-108.15,9.87-108.15,9.87-3.91-7.83-2.58-35.52-2.58-35.52,0,0,54.53-15.18,72.95-12.7,0,0-2.26-19.73-.3-29.24"/>
    </g>
    <path class="cls-17" d="M1125.16,396.93s14.77-15.95,40.76-10.04"/>
    <path class="cls-17" d="M1116.3,392.79s13-22.45,49.62-16.54"/>
    <path class="cls-17" d="M1192.54,433.95s-11.42,18.5-38.06,17.7"/>
    <path class="cls-17" d="M1202.03,436.3s-8.43,24.53-45.51,25.79"/>
    <g>
      <g>
        <path class="cls-45" d="M252.04,476.25c-6.83,11.96-8.54,47.4-8.54,47.4l-21.43,4.84s-5.52,1.05-12.09-2.09c-6.57-3.14-20.75-10.45-20.75-10.45,0,0-3.14-2.84-9.85,1.19l-11.2,4.33s-3.14,.6-3.14,4.03c0,0-.45,11.79,1.19,14.18,0,0,1.34,3.28,5.23,3.28,0,0,1.64,3.14,4.48,2.24,0,0-.6,3.58,6.57,3.43,7.17-.15,5.97-5.23,5.97-5.23,0,0,10.9,5.52,18.06,4.63,7.17-.9,11.65-1.34,11.65-1.34l4.93,.15s44.52,4.15,62.03,.74l2.34-62.8"/>
        <path class="cls-3" d="M187.17,529.24c-.57-.69-1.26-1.77-1.08-2.84,0,0-7.91,2.84-13.29,2.24,0,0,.15,2.54-.9,3.28"/>
        <path class="cls-3" d="M188.48,543.42s-.41-.88-2.23-.31c0,0-2.84,2.05-10.31,2.1"/>
        <path class="cls-3" d="M184.21,539.94s2.95,.68,2.04,3.17"/>
        <path class="cls-3" d="M172.8,528.64s.04-3.13-1.49-4.3"/>
        <path class="cls-3" d="M186.09,526.4s-.46-2.37,.44-5.07"/>
        <g>
          <path class="cls-35" d="M208.94,501.82l-37.49,44.11-4.73,3.04,2.24-6.17,36.81-43.61s2.52-.83,3.16,2.63Z"/>
          <polyline class="cls-49" points="171.46 545.93 168.96 542.8 166.73 548.97 171.46 545.93"/>
          <path class="cls-47" d="M205.74,505.3s-1.09-2.78-2.86-2.57l2.9-3.54s2.69-1.14,3.16,2.63l-3.21,3.48Z"/>
        </g>
        <path class="cls-16" d="M200.28,543.57s-7.17-.6-10.15-4.03c0,0-8.06-1.34-18.66,3.43,0,0-7.76-.45-4.48-6.42,3.28-5.97,20.9-6.57,20.9-6.57"/>
      </g>
      <path class="cls-41" d="M283.51,834.83s10.12,18,3.82,26.1-32.84,8.55-32.84,8.55c0,0-38.07,26.37-67.73,2.36,0,0-1.95-6,9.15-10.8,13.81-5.97,18.74-6.87,18.74-6.87,0,0-4.7,19.58,43.66-.66l25.2-18.67Z"/>
      <path class="cls-45" d="M283.51,834.83s-4.27-9.22-3.82-23.17c.45-13.95,13.5-66.59,4.95-91.78l-57.59-4.05s11.25,74.46,17.55,95.16c0,0,5.17,13.95-.98,24.5,0,0-17.28,9.22-28.96,18.68,0,0-4.25,20.26,43.66-.66l25.2-18.67Z"/>
      <path class="cls-41" d="M337.16,841.54s10.12,18,3.82,26.1c-6.3,8.1-32.84,8.55-32.84,8.55,0,0-38.07,26.37-67.73,2.36,0,0-1.95-6,9.15-10.8,13.81-5.97,18.74-6.87,18.74-6.87,0,0-4.7,19.58,43.66-.66l25.2-18.67Z"/>
      <path class="cls-45" d="M337.16,841.54s-4.27-9.22-3.82-23.17c.45-13.95,13.5-66.59,4.95-91.78l-57.59-4.05s11.25,74.46,17.55,95.16c0,0,5.17,13.95-.98,24.5,0,0-17.28,9.22-28.96,18.68,0,0-4.25,20.26,43.66-.66l25.2-18.67Z"/>
      <path class="cls-45" d="M373.07,334.78s1.08,33.96,11.22,37.96c0,0-10,51.02-53.87,61.54,0,0-28.22-22.32-16.16-53.62,0,0,3.43-31.96,4.07-38.64,0,0,41.23,14.93,54.74-7.25Z"/>
      <path class="cls-52" d="M382.58,529.91s-35.37,80.35-27.23,165.89c2.82,29.65,7.31,38.31,4.89,65.51,0,0-53.8,45.78-135.91,9.04,0,0-12.96-71.06-12.96-144.82,0,0,91.38-40.91,171.2-95.61Z"/>
      <path class="cls-30" d="M456.64,617.06s-99.32,47.39-187.45,15.11c-.65-.24,.48-5.17,.18-20.33-.88-43.76,16.03-76.73,14.5-90.18,0,0-36.09-3.21-44.05-23.2l21.17-54.02s11.68-25.55,29.39-43.61c0,0,10.64-14.54,23.88-20.17,0,0-6.87,30.22,32.45,25.54,0,0,22.67-2.37,36.29-34.71,0,0,31.37,6.96,49.76,26.54,0,0,28.85,31.51,42.4,90.17,0,0-6,3.29-12.97,3.85,0,0,16.72,51.64-26.56,31.44-2.54-1.19,7.39,91.07,3.13,93.71"/>
      <g>
        <circle class="cls-27" cx="330.62" cy="695.67" r="4.08"/>
        <circle class="cls-27" cx="333.49" cy="710.58" r="4.08"/>
        <circle class="cls-27" cx="327.12" cy="703.94" r="4.08"/>
        <circle class="cls-27" cx="341.61" cy="706.09" r="4.08"/>
        <circle class="cls-27" cx="339.06" cy="697.83" r="4.08"/>
      </g>
      <g>
        <circle class="cls-27" cx="233.47" cy="739.39" r="4.08"/>
        <circle class="cls-27" cx="236.35" cy="754.3" r="4.08"/>
        <circle class="cls-27" cx="229.98" cy="747.66" r="4.08"/>
        <circle class="cls-27" cx="244.46" cy="749.82" r="4.08"/>
        <circle class="cls-27" cx="241.91" cy="741.56" r="4.08"/>
      </g>
      <g>
        <circle class="cls-27" cx="286.36" cy="748.51" r="4.08"/>
        <circle class="cls-27" cx="289.24" cy="763.42" r="4.08"/>
        <circle class="cls-27" cx="282.87" cy="756.78" r="4.08"/>
        <circle class="cls-27" cx="297.35" cy="758.94" r="4.08"/>
        <circle class="cls-27" cx="294.81" cy="750.67" r="4.08"/>
      </g>
      <g>
        <circle class="cls-27" cx="319.56" cy="728.81" r="4.08"/>
        <circle class="cls-27" cx="322.43" cy="743.72" r="4.08"/>
        <circle class="cls-27" cx="316.06" cy="737.08" r="4.08"/>
        <circle class="cls-27" cx="330.55" cy="739.24" r="4.08"/>
        <circle class="cls-27" cx="328" cy="730.98" r="4.08"/>
      </g>
      <g>
        <circle class="cls-27" cx="281.91" cy="704.29" r="4.08"/>
        <circle class="cls-27" cx="284.79" cy="719.2" r="4.08"/>
        <circle class="cls-27" cx="278.42" cy="712.56" r="4.08"/>
        <circle class="cls-27" cx="292.9" cy="714.72" r="4.08"/>
        <circle class="cls-27" cx="290.36" cy="706.46" r="4.08"/>
      </g>
      <g>
        <circle class="cls-27" cx="238.88" cy="708.9" r="4.08"/>
        <circle class="cls-27" cx="241.75" cy="723.81" r="4.08"/>
        <circle class="cls-27" cx="235.38" cy="717.17" r="4.08"/>
        <circle class="cls-27" cx="249.87" cy="719.33" r="4.08"/>
        <circle class="cls-27" cx="247.32" cy="711.07" r="4.08"/>
      </g>
      <g>
        <circle class="cls-27" cx="271.35" cy="606.43" r="4.08"/>
        <circle class="cls-27" cx="274.23" cy="621.34" r="4.08"/>
        <circle class="cls-27" cx="267.86" cy="614.7" r="4.08"/>
        <circle class="cls-27" cx="282.34" cy="616.86" r="4.08"/>
        <circle class="cls-27" cx="279.79" cy="608.59" r="4.08"/>
      </g>
      <g>
        <circle class="cls-27" cx="329.71" cy="607.16" r="4.08"/>
        <circle class="cls-27" cx="332.59" cy="622.07" r="4.08"/>
        <circle class="cls-27" cx="326.22" cy="615.43" r="4.08"/>
        <circle class="cls-27" cx="340.7" cy="617.59" r="4.08"/>
        <circle class="cls-27" cx="338.16" cy="609.32" r="4.08"/>
      </g>
      <path class="cls-26" d="M311.1,608.19s-6.18,4.69-6.4,14.61"/>
      <path class="cls-26" d="M311.01,612.43s-6.18,4.69-6.4,14.61"/>
      <path class="cls-26" d="M308.14,608.99s-6.18,4.69-6.4,14.61"/>
      <path class="cls-26" d="M305.43,605.95s-6.18,4.69-6.4,14.61"/>
      <path class="cls-26" d="M302.64,602.99s-6.18,4.69-6.4,14.61"/>
      <path class="cls-26" d="M299.11,600.2s-6.18,4.69-6.4,14.61"/>
      <path class="cls-26" d="M294.84,597.25s-6.18,4.69-6.4,14.61"/>
      <path class="cls-26" d="M290.33,594.46s-6.18,4.69-6.4,14.61"/>
      <path class="cls-26" d="M284.83,592.08s-6.18,4.69-6.4,14.61"/>
      <path class="cls-26" d="M278.67,589.78s-6.18,4.69-6.4,14.61"/>
      <path class="cls-26" d="M272.84,588.06s-6.18,4.69-6.4,14.61"/>
      <path class="cls-23" d="M268.3,860.87s-20.04,5.17-27.19,15.5"/>
      <circle class="cls-11" cx="339.46" cy="430.6" r="4.81"/>
      <circle class="cls-11" cx="338.16" cy="466.59" r="4.81"/>
      <circle class="cls-11" cx="338.49" cy="504.39" r="4.81"/>
      <path class="cls-26" d="M416.2,500.14s-15.87-37.75-14.23-68.94"/>
      <path class="cls-45" d="M313.81,319.81s-7.99-23.78,2.44-40.08c6.37-9.95,24.08-13.87,41.64-17.34,0,0,37.85-4.03,34.75,44.5,0,0-1.41,4.99,.32,8.73,0,0,3.64,7.11,1.11,22.93-3.37,21.08-13.45,23.14-13.45,23.14,0,0-.28,5.91-11.91,7.41,0,0-10,3.25-21.18-2.01,0,0-28.76-9.89-29.19-25.06,0,0-10.07,7.75-17.31-9.4,0,0-9.9-30.14,12.8-12.82Z"/>
      <path class="cls-47" d="M358.04,302.24s-17.28-2.93-24.16,3.54c0,0,4.49-9.44,24.03-7.55,0,0,3.68,2.07,.12,4.01Z"/>
      <path class="cls-5" d="M375.4,321.33s8.85,10.44-4.24,13.24"/>
      <path class="cls-5" d="M301.45,325.48s2.8-10.99,12.79,5.08c0,0-7.71-6.73-8.22-.17"/>
      <path class="cls-5" d="M334.71,311.81l6.87,12.48s8.36,3.25,18.55-.71l4.06-13.34s-15.13-5.15-29.48,1.56Z"/>
      <path class="cls-54" d="M375.64,366.5s-5.25,2.52-7.35,2.55c0,0-15.72,4.56-33.6-7.84,0,0,5.24,4.82,15.57,8.74,0,0,11.39,4.75,26.9-1.66,0,0-1.46-.94-1.52-1.79Z"/>
      <path class="cls-9" d="M328.34,277.69s27.58,7.13,40.62-7.29c0,0,6.87,8.11,22.18,17.16,0,0,3.25,6.59-.1,23.51,0,0,6.64,12.11,1.5,29.96,0,0-3.98,15.76-11.93,20.65,0,0-1.95,2.78-4.97,4.82,0,0,2.78,4.4,6.85,3.42,0,0-2.72-2.76-.65-4.33,0,0,29.93-15.12,16.9-70.36,0,0,15-28.59-10.42-41.41-11.48-5.79-24.44-25.82-48.58-9.39,0,0-37.55-11.18-42.44,24.75,0,0-36.61,16.66-5.93,60.67,0,0-3.97,16.96,13,26.91,1.96,1.15,6.52,7.07,5.1,17.04-.38,2.69,5.86-3.45,7.32-8.76,0,0,2.66-9.57,1.55-23,0,0-11.49,5.79-15.9-7.39,0,0-6.73-14.16-1.88-17.5,0,0,5.48-3.49,12.82,2.72,0,0,22.8-6.89,14.97-42.16Z"/>
      <path class="cls-47" d="M392.89,297.59c-.3-.92-8.88-1.81-16.88-.81,0,0-3.67,2.2-.01,4.07,0,0,14.63-3.84,16.51,.94,0,0,1.13-1.93,.39-4.2Z"/>
      <path class="cls-5" d="M368.83,309.04l6.87,12.48s7.28,2.28,17.47-1.68l2.72-14.5s-12.7-3.01-27.06,3.7Z"/>
      <path class="cls-5" d="M368.83,309.04s-3.18-2.36-4.64,1.21"/>
      <line class="cls-5" x1="334.71" y1="311.81" x2="304.7" y2="315.01"/>
      <path class="cls-15" d="M339.3,291.75s11.84-.66,17.55-.33c5.71,.33,20.95-6.54,20.95-6.54"/>
      <g>
        <path class="cls-28" d="M342.27,314.53s-.05-.32,.15-.62c.65-1.01,2.22-2.94,5.07-3.37,3.2-.49,5.42,2.25,6.18,3.23,.13,.17,.15,.33,.15,.33,0,0,.04,.18-.05,.32-.42,.67-1.87,2.58-4.89,3.09-1.8,.3-4.48-.28-6.42-2.49-.14-.15-.18-.37-.19-.49Z"/>
        <circle class="cls-54" cx="348.95" cy="314.09" r="3.35"/>
        <circle class="cls-28" cx="346.76" cy="313.74" r=".92"/>
        <path class="cls-22" d="M353.87,313.74s-5.06-7.04-11.58,.16"/>
      </g>
      <g>
        <path class="cls-28" d="M378.71,311.99s-.09-.29,.05-.6c.46-1.03,1.64-3.05,4.24-3.86,2.9-.91,5.36,1.31,6.21,2.12,.15,.14,.18,.29,.18,.29,0,0,.06,.16,0,.3-.29,.68-1.37,2.67-4.11,3.58-1.63,.54-4.2,.38-6.32-1.39-.15-.12-.22-.32-.25-.43Z"/>
        <circle class="cls-54" cx="384.86" cy="310.62" r="3.14"/>
        <circle class="cls-28" cx="382.69" cy="310.69" r=".88"/>
        <path class="cls-22" d="M389.28,309.73s-5.62-6.31-10.58,1.81"/>
      </g>
      <path class="cls-40" d="M353.25,345.91s4.66-5.18,12.7-2.54c0,0,7.2-2.68,11.53,2.56,0,0-.48,3.65-10.29,4.96-6.25,.83-14.03-.59-13.94-4.97Z"/>
      <path class="cls-22" d="M377.48,345.92s-10.37-1.39-24.23-.02"/>
      <path class="cls-26" d="M283.87,521.66s3.21-49.99,5.61-63.43"/>
    </g>
    <g>
      <path class="cls-49" d="M1013.3,418.64h0c-23.2-14.72-18.55-82.51-18.55-82.51,0,0,9.13-.06,26.88,10.19,17.76,10.25,27.91,42.34,27.91,42.34,5.49,13.31,16.95,62.3,16.95,62.3,7.38-4.06,39.01-10.16,39.01-10.16,2.63-.65,5.21-1.24,7.69-1.77,0,0,2.87-13.48,26.34-17.41l14.57-8.03s9.18-2.29,5.32,6.12c0,0-4.95,4.23-9.17,6.82l9.83,6.55s-.42-1.64,5.8,.11c5.06,1.42,3.48,2.77,3.48,2.77,0,0,5.21-5.87,11.63-10.61,4.18-3.08,5.97-7.26,11.2-4.73,0,0,4.63,2.88-1.79,9.03l-12.54,16.26-29.02,9.99-21.26,1.53-7.16,5.68s-38.51,39.73-68.69,38.05c-21.27-1.18-38.43-82.54-38.43-82.54Z"/>
      <path class="cls-13" d="M1145.78,424.43s2.71,.89,4.45,2.17"/>
      <path class="cls-12" d="M1133.11,447.19s9.17-9.46,14.13-9.96c0,0,2.14,0,4.79-3.93,2.52-3.73,3.05-8.34,6.6-7.23,5.14,1.62,1.43,7.02,1.43,7.02l-7.63,12.26"/>
      <path class="cls-13" d="M1113.19,439.03s1.59,5.24,7.16,8.69"/>
      <path class="cls-12" d="M1157.86,436.6l3.41-4.94,.27-7.22s.35-3.63,4.02-3.99c4.1-.4,4.32,4.48,4.32,4.48l-1.14,9.63-6.42,10.77"/>
      <path class="cls-12" d="M1168.75,434.56l2.16-2.47,.27-7.22s.35-3.63,4.02-3.99c4.1-.4,4.32,4.48,4.32,4.48l-1.14,9.63-6.42,10.77"/>
      <g>
        <path class="cls-48" d="M960.74,866s-12.56-16.48-37.27-6.72c-24.71,9.76-48.8,12.68-48.05,18.51l4.13,12.82,42.28,2.02,28.8-12.04,10.11-14.59Z"/>
        <path class="cls-49" d="M932.96,818.6s-3.95,18.09-22.53,33.82l-9.01,9.52-6.29,4.84-11.49,5.08s-1.87,.69-3.87,2.71c-.53,.54-1.65,2.29,.62,2.33,0,0-1.34,2.77,1.84,3.9,0,0-.62,4.51,4.13,2.07,0,0-1.22,4.71,4.32,3.15,0,0-2.05,8.75,11.14,3.3,0,0,16.49-2.01,22.17-8.62,5.68-6.61,22.9-10.19,22.9-10.19l9.28-9.76s-1.66-24.41,5.07-32.56l-28.28-9.6Z"/>
        <path class="cls-46" d="M960.74,866s-4.04,4.98-11.7,6.49c-7.66,1.5-23.83,11.12-23.83,11.12,0,0-42.71,20.88-49.79-5.81l2.56,17.96s24.1,14.39,52.4-.41c0,0,20.84-9.05,28.55-9.4,0,0,3.53-7.66,1.82-19.95Z"/>
        <path class="cls-28" d="M934.08,878.71s-2.8-18.76-23.65-26.28l-9.01,9.52s14.4,.53,23.79,21.66l8.87-4.9Z"/>
        <path class="cls-28" d="M915.26,887.37s-4.66-16.72-20.14-20.58l-11.49,5.08s12.28,5.58,18.74,18.97c0,0,2.94,.3,12.89-3.46Z"/>
        <path class="cls-28" d="M957.74,843.85s-9.61,26.02-21.32,33.86l20.83-8.25s3.59-5.46,.49-25.61Z"/>
        <path class="cls-28" d="M958.02,833.86l-28.6-7.08-6.46,11.44s14.45,6.92,33.82,8.04c0,0,1.43,5.31,1.23-12.4Z"/>
        <path class="cls-7" d="M958.57,863.91s2.55-11.18-.32-18.96l-.21-3.49"/>
        <path class="cls-25" d="M890.68,886.02s-.07-3.25,4.69-4.98"/>
        <path class="cls-25" d="M886.36,882.87s1.84-4.38,5.47-5.05"/>
        <path class="cls-25" d="M882.23,880.8s1.97-4.84,5.93-5.79"/>
        <path class="cls-25" d="M880.39,876.9s1.37-3.33,4.59-4.13"/>
      </g>
      <g>
        <path class="cls-48" d="M1010.23,869.01s-13.81-15.45-37.69-3.8c-23.88,11.66-55.6,18.97-51.65,26.68l10.31,7.98,42.31-1.28,27.78-14.25,8.94-15.33Z"/>
        <path class="cls-49" d="M978.83,823.92s-2.52,18.34-19.82,35.48l-8.24,10.2-5.9,5.32-11.06,5.96s-8.58,.88-9.38,3.62c-.79,2.73-1.77,3.98,2.91,6.79,0,0,2.31,3.48,5.32,1.98,0,0,2.8,2.85,7.85,1.1,0,0,1.83,2.6,7.22,.61,0,0,2.29,1.79,4.91,.15,0,0,16.93-1.53,22.08-8.56,5.15-7.03,22.04-11.94,22.04-11.94l8.49-10.46s-3.56-24.2,2.52-32.86l-28.94-7.36Z"/>
        <path class="cls-46" d="M1010.23,869.01s-3.64,5.28-11.16,7.38c-7.52,2.1-22.9,12.94-22.9,12.94,0,0-24.34,17.01-55.29,2.56l1.23,13.07s33.06,12.63,60.12-4.33c0,0,20.07-10.65,27.73-11.6,0,0,2.93-7.92,.26-20.03Z"/>
        <path class="cls-28" d="M984.64,883.76s-4.25-18.48-25.63-24.36l-8.24,10.2s14.39-.59,25.41,19.74l8.46-5.57Z"/>
        <path class="cls-28" d="M966.55,893.86s-5.95-16.31-21.68-18.95l-11.06,5.96s12.18,3.08,19.67,15.92c0,0,3.45,1.6,13.07-2.93Z"/>
        <path class="cls-28" d="M1005.51,847.16s-7.55,26.69-18.62,35.42l20.12-9.85s3.16-5.73-1.51-25.57Z"/>
        <path class="cls-28" d="M1005.01,837.18l-29.07-4.83-5.54,11.91s14.95,5.77,34.35,5.38c0,0,1.84,5.19,.26-12.46Z"/>
        <path class="cls-25" d="M936.62,882.49l-5.55,3.69s-3.88,1.6-3.72,5.09"/>
        <path class="cls-25" d="M940.45,884.08s-9.41,5.42-8.33,7.87l.55,1.3"/>
        <path class="cls-25" d="M944.97,887.11s-5.4,3.04-4.45,7.23"/>
        <path class="cls-25" d="M949.26,891.06s-2.83,1.47-1.52,3.89"/>
        <path class="cls-7" d="M1007.9,867.09s1.67-11.35-1.79-18.87l-.48-3.46"/>
      </g>
      <path class="cls-49" d="M975.3,277.19s-7.87,40.42,15,46.68c0,0,.02,40.56-54.67,42.27,0,0-15.58-7.16-25.9-43.63,0,0,16.4-5.53,16.61-15.05,.22-10.08-2.96,.31-2.96,.31l51.92-30.58"/>
      <path class="cls-53" d="M1029.76,503.02s33.24,81.77-.12,146.1l-15.58,49.39s-5.18,23.52,1.45,56.58c4.18,20.85-2.06,49.96-7.42,77.96,0,0-18.52,18.3-43.74,6.35,0,0-17.74,7.34-41.56-3.97l-31.05-93.43s-7.12-14.46-7.12-31.14c0,0-16.51-134.06,4.92-187.41,0,0,49.65,33.44,140.21-20.42Z"/>
      <path class="cls-49" d="M971.68,254.03s-6.74-55.16-50.26-50.66c0,0-32.39,2.21-27.33,47.81,0,0,2.26,7.22,1.28,11.2,0,0-1.42,12.11,3.04,21.77,6.71,14.5,14.72,21.68,14.72,21.68,0,0,6.77,5.56,18.09,4.95,0,0,7.93-.75,17.62-7.9,0,0,24.82-13.31,22.52-28.26,0,0,10.09,5.06,13.91-13.05,0,0,5.47-15.81-.6-17.93-7.67-2.68-10.08,2.37-12.99,10.38Z"/>
      <path class="cls-54" d="M929.77,241.88s15.03-6.1,22.54-1.63c0,0-5.95-7.63-23.23-2.01,0,0-2.91,2.61,.69,3.65Z"/>
      <path class="cls-54" d="M892.42,240.82c.31-.82,8.17-1.29,15.42-.04,0,0,3.25,2.16-.16,3.71,0,0-13.18-4.11-15.08,.18,0,0-.95-1.81-.18-3.84Z"/>
      <path class="cls-22" d="M919.33,274.62c-10.87-.66-4.44-11.12-4.44-11.12"/>
      <path class="cls-22" d="M984.81,255.73s-4.74-10.26-11.62,7.3c0,0,6.34-7.99,8.03-1.66"/>
      <path class="cls-54" d="M924.63,310.2s3.73,2.97,15.55-2.17c0,0,10.35-4.32,18.52-11.93,0,0-10.12,13.01-24.89,15.93,0,0-3.89,1.47-9.66-.13,0,0,.85-.16,.47-1.71Z"/>
      <path class="cls-17" d="M964.35,839.39l-26.8-110.76s-1.15-3.15,.62-30.67l5.41-88.58s-6.6-2.96-11.6-8.35"/>
      <path class="cls-54" d="M901.16,289.6c-6.91-10.97-6.02-25.6-6.02-25.6,0,0,.6-2.81,.55-8.41-.04-5.57-1.31-6.78-1.15-11.76,0,0,17.05-5.25,30.68-21.32,0,0,16.58-8.07,3.9-5.7,0,0,4.51-7.11,23.41-2.77,0,0,4.86,26.99,19.14,39.98,0,0,5.64-13.17,12.99-10.38,7.35,2.79-2.09,23.15-2.09,23.15,0,0-2.41,11.86-10.86,7.35,0,0-3.27,11.66,.41,24,0,0,2.14-1.33,5-5.31,0,0-1.68,6.07-5.42,10.4,0,0,16.64-5.26,17.06-21.91,0,0-.41-5.64,3.97-6.77,4.38-1.13,9.26-17.45,7.46-31.1-1.8-13.65-15.51-59.46-46.14-58.27,0,0-16.93-6.07-36.95,8.14-20.02,14.21-17.66,17.1-33.49,44.98,0,0-7.93,3.05,5.85,13.12,0,0-2.56,14.23-.53,9.92,0,0-1.8,14.68,4.92,20.13,0,0-1.3-4.26-1.68-11.26,0,0-.55,15.71,12.55,25.16"/>
      <path class="cls-24" d="M952.56,242.76s-15.15-3.96-28.39,2.11c0,0-.48,19.91,14.56,19.46,0,0,19.43-1.79,13.83-21.58Z"/>
      <path class="cls-24" d="M914.65,245.35s-13.25-3.94-24.27,3.18c0,0-2.21,18.17,12.82,17.72,0,0,17.05-1.11,11.45-20.91Z"/>
      <path class="cls-24" d="M914.65,245.35s5.32-2.97,9.52-.48"/>
      <line class="cls-24" x1="950.62" y1="242.63" x2="973.78" y2="247.98"/>
      <line class="cls-10" x1="974.73" y1="271.77" x2="975.56" y2="283.27"/>
      <polygon class="cls-23" points="977.2 284.74 975.63 282.29 974.64 285.03 971.83 285.78 974.13 287.56 973.97 290.46 976.38 288.82 979.09 289.87 978.28 287.08 980.11 284.82 977.2 284.74"/>
      <path class="cls-54" d="M954.06,185.18s-20.72-13.62-37.71,.42c0,0-3.82,8.33-15.05,7.11-5.94-.65-6.71,8.64-6.71,8.64,0,0,2.43,7.46-4.63,7.4,0,0-11.12,4.03-8.26,17.14,2.85,13.11-4.79,17.8-4.79,17.8,0,0-6.38,5.1-2.83,12.16,0,0,3.6,4.63,1.9,7.47-1.7,2.84-5.27,2.29-5.27,2.29,0,0,5.12,3.16,8.75-3.08,3.63-6.24,4.59-11.75,4.59-11.75,0,0-1.85,8.29,.11,12.77,0,0,.43,2.14-3.1,5.93-3.53,3.79-1.34,7.71-1.34,7.71,0,0,.71-5.22,3.1-5.93,2.39-.72,3.96-1.65,3.96-1.65,0,0,3.94,7.64,7.11,11.86,1.31,1.75,1.2,5.91-4.11,7.65-5.31,1.74,.01,12.04,.01,12.04,0,0-.85-9.63,3.83-8.88s4.31-3.91,4.31-3.91c0,0-4.18-8.94-3.92-20.38l-3.37-23.95s9.39-1.77,14.83-5.43c0,0,14.88-8.95,19.78-16.11,0,0-7.39,8.3-7.68,11.28-.65,6.69-7.62,8.82-7.62,8.82,0,0,10.2,.23,10.82-5,1.11-9.32,9.2-9.42,9.2-9.42,0,0,9.09,1.2,13.7-6.48,4.61-7.67,8.9-7.67,8.9-7.67,0,0,13.3-12.76,1.51-28.87Z"/>
      <path class="cls-54" d="M891.28,266.07s2.4,3.35,.23,7.99c-2.17,4.64-5.57,4.95-5.26,8.97,.31,4.02,6.34,11.14,6.34,11.14,0,0-4.33-6.5-2.48-11.14s7.39-4.62,7.39-4.62"/>
      <g>
        <path class="cls-28" d="M946.03,252.69s0-.34-.27-.61c-.86-.9-2.82-2.56-5.81-2.46-3.35,.12-5.08,3.32-5.67,4.47-.1,.2-.09,.37-.09,.37,0,0,0,.19,.11,.31,.56,.6,2.4,2.27,5.57,2.21,1.89-.04,4.5-1.14,6.05-3.76,.11-.18,.11-.41,.1-.53Z"/>
        <circle class="cls-54" cx="939.15" cy="253.53" r="3.46"/>
        <circle class="cls-28" cx="941.31" cy="252.75" r=".95"/>
        <path class="cls-51" d="M934.21,254.47s3.67-8.48,11.69-2.41c0,0,1.91,1.51,4.65,.36,0,0-2.66-.25-4.4-1.69s-5.39-2.44-8.45-1.27-3.49,5.01-3.49,5.01Z"/>
      </g>
      <g>
        <path class="cls-28" d="M908.62,256.79s.04-.31-.16-.6c-.67-.96-2.25-2.78-5.05-3.11-3.13-.37-5.2,2.37-5.91,3.34-.12,.17-.13,.33-.13,.33,0,0-.03,.17,.06,.31,.43,.64,1.9,2.45,4.86,2.85,1.76,.24,4.35-.42,6.16-2.63,.13-.15,.16-.37,.17-.48Z"/>
        <circle class="cls-54" cx="902.1" cy="256.58" r="3.24"/>
        <circle class="cls-28" cx="904.32" cy="256.23" r=".91"/>
        <path class="cls-51" d="M908.67,256.59c-6.6-7.3-11.23-.07-11.23-.07,0,0-.74,.99-2.17,.25,0,0,1.43,.32,2.13-1.07,.71-1.41,3.12-3.82,6.35-3.04,3.23,.78,4.92,3.94,4.92,3.94Z"/>
      </g>
      <path class="cls-33" d="M979.58,315.71s12.37,6.81,33.44,15.66c37.2,15.63,44.95,82.11,44.95,82.11,0,0-18.57,10.39-42.03,13.67l16.71,77.99s-21.93,32.33-86.75,34.15c0,0-34.57,3.3-56.34-15.86,0,0,3.45-48.93-2.8-77.23,0,0-2.13-9.73-1.61-25.74l-18.54-6.52,.84-48.02c4.64-12.82,5.11-23.98,29.13-37.96,0,0,14.16-5.78,22-10.13,0,0-8.96,19.2,.59,26.24,0,0,25.13,12.06,46.24-2.51,0,0,11.17-4.96,14.19-25.85Z"/>
      <path class="cls-6" d="M1011.78,428.2s-4.93-5.75-5.78-35.21"/>
      <path class="cls-6" d="M885.14,420.47s-5.87-15.11,1.48-30.27"/>
      <path class="cls-50" d="M945.27,286.45s-8.63-7.12-16.75-4.6c0,0-7.59-.87-11.29,7.4,0,0,4.68,7.08,12.37,5.21,7.68-1.87,11.72-3.36,15.67-8.01Z"/>
      <path class="cls-38" d="M943.74,286.46s-11.83-3.75-15.51-2.46c0,0-5.59-.02-10.11,5.31,0,0,7.46-.33,11.23,1.7,0,0,7.76-3.54,14.39-4.55Z"/>
      <path class="cls-28" d="M936.75,284.47s-9.59-2.67-15.35,1.91c0,0,7.93-1.25,15.35-1.91Z"/>
    </g>
    <g>
      <polygon class="cls-44" points="60.09 601.15 64.3 939.37 81.14 939.37 110.61 662.9 848.81 662.9 878.28 937.97 896.53 937.97 896.53 601.15 60.09 601.15"/>
      <path class="cls-32" d="M918.56,574.5l32.21,130.54s-29,14.5-63.64-4.03c0,0-10.47,16.11-35.44,2.42,0,0-8.86,7.25-47.53-.81,0,0-27.39-3.22-40.28,1.61,0,0-12.08,9.67-31.42-.81,0,0-16.92,8.06-32.22,0,0,0-20.14,4.03-44.31-3.22-24.17-7.25-62.03,12.89-62.03,12.89,0,0-6.44-12.08-28.19-8.86,0,0-19.33,11.28-34.64,1.61,0,0-21.75-7.25-70.89-.81,0,0-11.28,8.86-21.75,0,0,0-132.48,3.82-156.65-6.65,0,0-23.22-7.12-34.83,7.97,0,0-16.25-24.37-42.94-12.77,0,0-17.41,19.73-46.43,3.48,0,0-58.03-25.53-80.08-12.77,0,0-23.21,13.93-55.71-1.16l19.73-109.1,877.03,.47Z"/>
      <line class="cls-3" x1="887.13" y1="701.01" x2="881.02" y2="605.32"/>
      <line class="cls-3" x1="851.68" y1="703.42" x2="859.36" y2="630.44"/>
      <line class="cls-3" x1="700.24" y1="703.42" x2="708.66" y2="601.23"/>
      <path class="cls-3" d="M565.71,704.23s-15.07-63.16-19.05-104.33"/>
      <path class="cls-3" d="M593.91,713.09s14.5-42.81,11.18-101.24"/>
      <path class="cls-3" d="M204.65,693.99s-15.07-63.16-19.05-104.33"/>
      <path class="cls-3" d="M246.8,707.51s14.5-42.81,11.18-101.24"/>
      <line class="cls-3" x1="460.19" y1="705.04" x2="454.38" y2="627.12"/>
      <line class="cls-3" x1="438.68" y1="704.24" x2="439.5" y2="608.37"/>
      <line class="cls-3" x1="732.46" y1="703.42" x2="729.31" y2="644.71"/>
      <line class="cls-3" x1="763.88" y1="704.23" x2="760.13" y2="625.81"/>
      <line class="cls-3" x1="77.51" y1="684.3" x2="84.48" y2="602.39"/>
      <polygon class="cls-37" points="41.53 574.03 918.56 574.5 843.83 548.42 109.61 548.42 41.53 574.03"/>
    </g>
    <polygon class="cls-28" points="218.99 550.51 144.56 550.51 120.94 568.83 202.66 568.83 218.99 550.51"/>
    <polygon class="cls-28" points="126.55 553.76 106.17 554.35 76.04 568.83 101.15 568.83 126.55 553.76"/>
    <path class="cls-28" d="M212.84,569.63s1.69-6.47,13.39-9.77c11.2-3.15,20.61,1.33,20.61,1.33,0,0,24.99,13.42,36.23,6.84,0,0,3.61-2.58,4.16-4.04,0,0-10.23,1.39-18.69-.29s-16.4-9.1-28.5-10.61c-8.25-1.03-19.51,.46-24.99,6.01,0,0-3.23,5.86-2.21,10.52Z"/>
    <g>
      <path class="cls-45" d="M359.47,536.68l-8.35,1.27-35.67-4.89-22.07,9.94s-8.84,13.06,.65,15.74c0,0-.64,5.33,7.07,4.63,0,0,.82,5.28,7.94,1.87,0,0,6.33,11.78,10.06,3.32,3.73-8.45,6.81-2.08,6.81-2.08,0,0,14.45,3.18,22.91-7.34,0,0,6.28-6.01,10.34-2.14l.32-20.32Z"/>
      <path class="cls-4" d="M294.02,558.74l-.48-7.77s4.41-7.94,16.47-10.72"/>
      <path class="cls-4" d="M301.26,563.46l-.48-7.77s4.28-5.39,15.55-9.49"/>
      <path class="cls-4" d="M320.14,558.23s-12.13,.09-11.11,7.02"/>
      <path class="cls-45" d="M464.51,491.24s10.4,25.55-5.19,63.6c-5.79,14.14-107.15,1.52-107.15,1.52-3.91-7.83-1.06-18.41-1.06-18.41,0,0,52-23.94,70.42-21.46,0,0-1.95-4.2,.01-13.71"/>
    </g>
    <g>
      <path class="cls-49" d="M866.59,413.95c-1.94,17.05-5.55,36.87-5.55,36.87-1.97,5.31-25.4,84.42-25.4,84.42,0,5.68-7.38,9.16-7.38,9.16-12.7,.89-29.31,6.5-29.31,6.5-5.8,.37-12.71,3.7-19.13,6.3-6.42,2.59-7.53,5.8-7.53,5.8,0,0,1.97,3.58,7.9,1.23,0,0,2.96,2.96,10,1.23,10.42-2.56,23.95-5.31,23.95-5.31,0,0-2.59,.74-.49,4.44,2.1,3.7,13.21-.37,13.21-.37,0,0,12.84-.74,17.4-.74s8.76-10.74,8.76-10.74c0,0,3.7-11.23,5.06-16.29s27.98-48.33,27.98-48.33c0,0,5.51-11.02,6.81-23.99,0,0,.22-6.87-.54-14.4,0,0-5.34-14.98-7.19-29.27"/>
      <path class="cls-4" d="M814.12,560.15s5.92-3.83,12.67-5.31c0,0,3.13-1.65,4.61-3.46"/>
      <path class="cls-4" d="M780.18,564.22s-.12-4.57,4.94-6.05c5.06-1.48,18.39-5.55,23.45-7.9"/>
    </g>
  </g>
</svg>