<?xml version="1.0" encoding="UTF-8"?>
<svg id="Layer_1" data-name="Layer 1" xmlns="http://www.w3.org/2000/svg" viewBox="0 0 1334.02 1000.56">
  <defs>
    <style>
      .cls-1 {
        stroke-width: 1.5px;
      }

      .cls-1, .cls-2, .cls-3, .cls-4, .cls-5, .cls-6, .cls-7, .cls-8, .cls-9, .cls-10, .cls-11, .cls-12, .cls-13, .cls-14, .cls-15, .cls-16, .cls-17, .cls-18, .cls-19, .cls-20, .cls-21, .cls-22 {
        stroke-miterlimit: 10;
      }

      .cls-1, .cls-2, .cls-3, .cls-5, .cls-11, .cls-12, .cls-13, .cls-14, .cls-15, .cls-16, .cls-17, .cls-18, .cls-19, .cls-21, .cls-22 {
        fill: none;
      }

      .cls-1, .cls-3, .cls-13 {
        stroke: #231f20;
      }

      .cls-2 {
        stroke: #c16b7b;
      }

      .cls-2, .cls-3 {
        stroke-width: .8px;
      }

      .cls-23, .cls-10 {
        fill: #f7daa6;
      }

      .cls-24 {
        fill: #f7d9a4;
      }

      .cls-25 {
        fill: #f9edde;
      }

      .cls-26 {
        fill: #f8e8c5;
      }

      .cls-27 {
        fill: #f15953;
      }

      .cls-28 {
        fill: #ec6b8a;
      }

      .cls-29 {
        fill: #f6aac1;
      }

      .cls-30 {
        fill: #ea98b4;
      }

      .cls-31 {
        fill: #f05549;
      }

      .cls-32, .cls-20 {
        fill: #fff;
      }

      .cls-33 {
        fill: #ffcb05;
      }

      .cls-34 {
        fill: #efe3c0;
      }

      .cls-35 {
        fill: #fec252;
      }

      .cls-36 {
        fill: #803435;
      }

      .cls-37 {
        fill: #98d9e9;
      }

      .cls-38 {
        fill: #96d9ec;
      }

      .cls-39 {
        fill: #96d9f1;
      }

      .cls-40 {
        fill: #87664d;
      }

      .cls-41 {
        fill: #b597c0;
      }

      .cls-42 {
        fill: #b56e5b;
      }

      .cls-43 {
        fill: #8b5e3c;
      }

      .cls-44 {
        fill: #8cb13e;
      }

      .cls-45 {
        fill: #9054a2;
      }

      .cls-46, .cls-9 {
        fill: #ba9777;
      }

      .cls-47 {
        fill: #8bcda9;
      }

      .cls-48 {
        fill: #cee186;
      }

      .cls-49, .cls-7, .cls-8 {
        fill: #be9e7d;
      }

      .cls-50 {
        fill: #be8c8c;
      }

      .cls-51 {
        fill: #c0a1cc;
      }

      .cls-52 {
        fill: #c66f2b;
      }

      .cls-53 {
        fill: #c8eaf6;
      }

      .cls-54, .cls-4 {
        fill: #d1d3d4;
      }

      .cls-55 {
        fill: #d4bada;
      }

      .cls-56 {
        fill: #dcbf97;
      }

      .cls-57 {
        fill: #db964d;
      }

      .cls-58 {
        fill: #231f20;
      }

      .cls-59 {
        fill: #092f44;
      }

      .cls-60 {
        fill: #87b13f;
      }

      .cls-61 {
        fill: #5a8fc8;
      }

      .cls-62 {
        fill: #3c2415;
      }

      .cls-63 {
        fill: #6189c6;
      }

      .cls-64 {
        fill: #26130f;
      }

      .cls-4 {
        stroke: #58595b;
        stroke-width: .2px;
      }

      .cls-5 {
        stroke-width: .7px;
      }

      .cls-5, .cls-9, .cls-10 {
        stroke: #603913;
      }

      .cls-6 {
        fill: #a97c50;
      }

      .cls-6, .cls-7, .cls-21, .cls-22 {
        stroke-width: .5px;
      }

      .cls-6, .cls-22 {
        stroke: #a97c50;
      }

      .cls-7, .cls-8, .cls-19, .cls-21 {
        stroke: #754c29;
      }

      .cls-11 {
        stroke: #db964d;
      }

      .cls-11, .cls-12 {
        stroke-width: 2px;
      }

      .cls-12 {
        stroke: #fbb040;
      }

      .cls-14 {
        stroke: #92278f;
      }

      .cls-15, .cls-20 {
        stroke: #fff;
      }

      .cls-16 {
        stroke: #ed1c24;
      }

      .cls-17 {
        stroke: #d1d3d4;
      }

      .cls-18 {
        stroke: #2e3192;
      }

      .cls-20 {
        stroke-width: 6px;
      }
    </style>
  </defs>
  <g>
    <rect class="cls-47" x=".12" y=".5" width="1333.9" height="903.72" transform="translate(1334.15 904.72) rotate(-180)"/>
    <rect class="cls-25" x="0" y="903.28" width="1334.02" height="97.28" transform="translate(1334.02 1903.84) rotate(-180)"/>
    <rect class="cls-40" x="329.7" y="791.56" width="1002.17" height="61.84"/>
    <rect class="cls-40" x="1257.62" y="405.84" width="76.36" height="549.5"/>
    <rect class="cls-54" x="310.89" y="705.57" width="996.21" height="85.06" rx="8.69" ry="8.69"/>
    <path class="cls-32" d="M1256.45,705.61s11.89-96.08-94.1-92.12c-25.43,.95-46.99,3.39-67.07,11.64-63.61,26.15-106.66,80.37-106.66,80.37l267.83,.1Z"/>
    <path class="cls-29" d="M270.84,659.22c59.04,5.74,119.36,7.28,174.33,3.03,306.3-23.69,457.28,16.5,457.28,16.5,0,0-11.16,161.1-82.47,266.1,0,0-252.82-29.11-423.19,13.49-170.37,42.59-220.86,1.2-220.86,1.2l.58-238.88s67.36-64.05,94.33-61.42Z"/>
    <path class="cls-30" d="M966.22,687.69s-45.34-17.66-121.06-24.55c0,0-5.74,141.58-65.73,286.14,0,0,67.86-1.97,107.19,10.82,0,0,73.63-100.32,79.59-272.42Z"/>
    <g>
      <rect class="cls-32" x=".49" y=".71" width="385.79" height="239.74"/>
      <rect class="cls-53" x=".58" y=".49" width="373.18" height="227.44"/>
      <line class="cls-20" x1="21.29" y1="1.3" x2="21.29" y2="239.1"/>
      <line class="cls-20" x1="297.6" y1="132.08" x2="1.4" y2="132.08"/>
      <line class="cls-20" x1="297.6" y1="17.88" x2="1.4" y2="17.88"/>
      <line class="cls-20" x1="119.65" y1="1.3" x2="119.65" y2="239.1"/>
      <line class="cls-20" x1="227.91" y1="1.3" x2="227.91" y2="239.1"/>
      <path class="cls-51" d="M295.12,0l-10.06,260.21s23,8.63,44.57,4.31l-1.44,20.13s40.25,20.13,81.94,2.88L397.19,0h-102.07Z"/>
      <line class="cls-14" x1="328.19" y1="284.65" x2="347.57" y2="76.21"/>
      <line class="cls-17" x1="126.3" y1="146.49" x2="139.27" y2="164.1"/>
      <line class="cls-17" x1="135.56" y1="140" x2="148.54" y2="157.61"/>
      <line class="cls-17" x1="83.19" y1="100.14" x2="96.17" y2="117.75"/>
      <line class="cls-17" x1="92.46" y1="93.65" x2="105.44" y2="111.26"/>
      <line class="cls-17" x1="130" y1="33.41" x2="142.98" y2="51.02"/>
      <line class="cls-17" x1="139.27" y1="26.92" x2="152.25" y2="44.53"/>
      <line class="cls-17" x1="238.45" y1="102.46" x2="251.43" y2="120.07"/>
      <line class="cls-17" x1="247.72" y1="95.97" x2="260.69" y2="113.58"/>
      <line class="cls-17" x1="31.75" y1="206.73" x2="44.73" y2="224.35"/>
      <line class="cls-17" x1="41.02" y1="200.25" x2="54" y2="217.86"/>
      <line class="cls-17" x1="235.2" y1="206.73" x2="248.18" y2="224.35"/>
      <line class="cls-17" x1="244.47" y1="200.25" x2="257.45" y2="217.86"/>
    </g>
    <rect class="cls-40" x="683.75" y="288.92" width="473.04" height="14.28"/>
    <path class="cls-15" d="M570.87,.82s317.71,127.36,751.94,1.35"/>
    <path class="cls-24" d="M610.32,22.87l9.29-11.12c2.25-2.7,6.62-1.64,7.39,1.79l3.18,14.14c.31,1.36,1.26,2.48,2.56,3l13.45,5.39c3.26,1.31,3.61,5.79,.58,7.58l-12.46,7.39c-1.2,.71-1.97,1.97-2.07,3.36l-.97,14.46c-.24,3.5-4.39,5.22-7.03,2.9l-10.88-9.57c-1.05-.92-2.48-1.27-3.83-.93l-14.05,3.54c-3.41,.86-6.32-2.56-4.93-5.79l5.74-13.31c.55-1.28,.44-2.75-.3-3.93l-7.71-12.27c-1.87-2.97,.48-6.8,3.98-6.47l14.43,1.34c1.39,.13,2.75-.43,3.65-1.5Z"/>
    <path class="cls-24" d="M693.28,42.58l8.44-11.78c2.05-2.86,6.48-2.13,7.5,1.23l4.22,13.86c.41,1.33,1.44,2.38,2.77,2.81l13.81,4.38c3.35,1.06,4.02,5.5,1.14,7.51l-11.88,8.29c-1.14,.8-1.82,2.11-1.81,3.5l.1,14.49c.02,3.51-3.99,5.53-6.79,3.41l-11.56-8.74c-1.11-.84-2.57-1.08-3.89-.64l-13.75,4.57c-3.33,1.11-6.49-2.09-5.34-5.41l4.74-13.69c.46-1.32,.23-2.78-.59-3.9l-8.6-11.66c-2.08-2.83-.02-6.82,3.49-6.75l14.49,.27c1.39,.03,2.71-.64,3.53-1.77Z"/>
    <path class="cls-24" d="M778.21,56.7l6.76-12.82c1.64-3.11,6.13-2.99,7.6,.2l6.06,13.16c.58,1.27,1.75,2.17,3.13,2.4l14.28,2.47c3.46,.6,4.74,4.91,2.16,7.29l-10.64,9.83c-1.02,.95-1.52,2.34-1.32,3.72l2.07,14.34c.5,3.48-3.2,6.02-6.27,4.3l-12.64-7.08c-1.22-.68-2.69-.72-3.94-.11l-13,6.4c-3.15,1.55-6.71-1.19-6.03-4.63l2.83-14.21c.27-1.37-.15-2.78-1.12-3.78l-10.1-10.39c-2.45-2.52-.95-6.75,2.54-7.16l14.39-1.7c1.39-.16,2.6-1,3.25-2.23Z"/>
    <path class="cls-24" d="M859.58,63.08l6.76-12.82c1.64-3.11,6.13-2.99,7.6,.2l6.06,13.16c.58,1.27,1.75,2.17,3.13,2.4l14.28,2.47c3.46,.6,4.74,4.91,2.16,7.29l-10.64,9.83c-1.02,.95-1.52,2.34-1.32,3.72l2.07,14.34c.5,3.48-3.2,6.02-6.27,4.3l-12.64-7.08c-1.22-.68-2.69-.72-3.94-.11l-13,6.4c-3.15,1.55-6.71-1.19-6.03-4.63l2.83-14.21c.27-1.37-.15-2.78-1.12-3.78l-10.1-10.39c-2.45-2.52-.95-6.75,2.54-7.16l14.39-1.7c1.39-.16,2.6-1,3.25-2.23Z"/>
    <path class="cls-24" d="M939.94,67.98l4.95-13.62c1.2-3.3,5.67-3.79,7.56-.83l7.79,12.21c.75,1.18,2.03,1.91,3.43,1.96l14.48,.5c3.51,.12,5.36,4.22,3.12,6.93l-9.21,11.19c-.89,1.08-1.19,2.52-.8,3.86l3.99,13.93c.97,3.38-2.36,6.4-5.62,5.11l-13.48-5.3c-1.3-.51-2.76-.35-3.92,.43l-12.01,8.1c-2.91,1.96-6.81-.26-6.6-3.77l.87-14.46c.08-1.39-.52-2.74-1.62-3.6l-11.42-8.92c-2.77-2.16-1.86-6.56,1.55-7.44l14.03-3.64c1.35-.35,2.44-1.34,2.92-2.65Z"/>
    <path class="cls-24" d="M1024.5,64l4.95-13.62c1.2-3.3,5.67-3.79,7.56-.83l7.79,12.21c.75,1.18,2.03,1.91,3.43,1.96l14.48,.5c3.51,.12,5.36,4.22,3.12,6.93l-9.21,11.19c-.89,1.08-1.19,2.52-.8,3.86l3.99,13.93c.97,3.38-2.36,6.4-5.62,5.11l-13.48-5.3c-1.3-.51-2.76-.35-3.92,.43l-12.01,8.1c-2.91,1.96-6.81-.26-6.6-3.77l.87-14.46c.08-1.39-.52-2.74-1.62-3.6l-11.42-8.92c-2.77-2.16-1.86-6.56,1.55-7.44l14.03-3.64c1.35-.35,2.44-1.34,2.92-2.65Z"/>
    <path class="cls-24" d="M1119.44,53.04l2.92-14.19c.71-3.44,5.05-4.58,7.35-1.92l9.49,10.95c.91,1.05,2.29,1.59,3.67,1.44l14.4-1.61c3.49-.39,5.91,3.39,4.1,6.4l-7.48,12.41c-.72,1.19-.81,2.67-.23,3.94l5.98,13.2c1.45,3.2-1.4,6.67-4.82,5.88l-14.11-3.28c-1.36-.32-2.79,.06-3.82,1l-10.7,9.77c-2.59,2.37-6.78,.73-7.08-2.77l-1.24-14.44c-.12-1.39-.92-2.63-2.13-3.32l-12.6-7.16c-3.05-1.74-2.79-6.22,.44-7.59l13.35-5.64c1.28-.54,2.22-1.68,2.5-3.05Z"/>
    <path class="cls-24" d="M1210.38,37.09l2.92-14.19c.71-3.44,5.05-4.58,7.35-1.92l9.49,10.95c.91,1.05,2.29,1.59,3.67,1.44l14.4-1.61c3.49-.39,5.91,3.39,4.1,6.4l-7.48,12.41c-.72,1.19-.81,2.67-.23,3.94l5.98,13.2c1.45,3.2-1.4,6.67-4.82,5.88l-14.11-3.28c-1.36-.32-2.79,.06-3.82,1l-10.7,9.77c-2.59,2.37-6.78,.73-7.08-2.77l-1.24-14.44c-.12-1.39-.92-2.63-2.13-3.32l-12.6-7.16c-3.05-1.74-2.79-6.22,.44-7.59l13.35-5.64c1.28-.54,2.22-1.68,2.5-3.05Z"/>
    <path class="cls-57" d="M1053.67,209.15s-17.39-5.48-8.05-38.98c0,0,2.9-7.09,5.8-9.34,0,0-11.92-1.93-4.83-12.56,7.09-10.63,13.53,4.19,13.53,4.19,0,0,19.01-12.88,37.69-.32,0,0,5.8-11.27,12.24-3.22,6.44,8.05-3.54,11.92-3.54,11.92,0,0,20.62,26.74,.97,47.03,0,0,35.76,16.43,27.38,33.18,0,0-4.83,7.09-17.39-3.54,0,0,1.93,11.6,0,18.36,0,0,23.52-5.48,16.75,14.5s-25.45,18.68-25.45,18.68c0,0-8.38-2.25-8.38-9.66,0,0-15.14,14.82-39.62,.97,0,0-1.93,17.07-20.62,6.44-18.68-10.63-12.88-26.74-12.88-26.74,0,0,4.83-5.48,13.85-4.19,0,0-1.29-11.6,2.25-17.72,0,0-9.66,8.38-18.36,3.87s7.41-20.94,7.41-20.94c0,0,12.24-11.27,21.26-11.92Z"/>
    <path class="cls-52" d="M1127.76,254.57s-25.77-1.61-27.38,24.8c0,0,2.58,15.14,18.04,8.05,0,0-20.94,4.19-14.17-15.46,0,0,8.7-15.14,23.52-17.39Z"/>
    <path class="cls-52" d="M1044.33,288.39s13.85,5.8,16.43-8.05c2.58-13.85-17.39-24.48-17.39-24.48,0,0-12.24-2.9-13.53,1.93,0,0,13.53-4.51,22.23,9.02,8.7,13.53,2.25,19.01,2.25,19.01,0,0-5.15,2.58-9.99,2.58Z"/>
    <ellipse class="cls-52" cx="1129.63" cy="236.61" rx="2.77" ry="4.16" transform="translate(321.33 1060.44) rotate(-57.38)"/>
    <ellipse class="cls-52" cx="1031" cy="236.02" rx="4.16" ry="2.77" transform="translate(35.43 593.08) rotate(-32.62)"/>
    <ellipse class="cls-38" cx="1081.96" cy="215.62" rx="4.13" ry="3.67"/>
    <polygon class="cls-38" points="1064.43 208.83 1064.98 223.15 1081.96 215.62 1098.39 222.97 1098.39 209.75 1082.05 214.16 1064.43 208.83"/>
    <ellipse class="cls-26" cx="1078.93" cy="195.71" rx="19.09" ry="12.39"/>
    <ellipse class="cls-29" cx="1103.34" cy="190.11" rx="4.41" ry="4.22"/>
    <ellipse class="cls-29" cx="1055.2" cy="190.11" rx="4.41" ry="4.22"/>
    <ellipse class="cls-58" cx="1064.52" cy="178.55" rx="2.66" ry="3.3"/>
    <ellipse class="cls-58" cx="1092.56" cy="178.55" rx="2.66" ry="3.3"/>
    <path class="cls-26" d="M1100.51,153.85s2.91-6.76,7-3.03c4.08,3.73-2.22,7.46-2.22,7.46,0,0-3.38-.93-4.78-4.43Z"/>
    <path class="cls-26" d="M1057.85,153.85s-2.91-6.76-7-3.03,2.22,7.46,2.22,7.46c0,0,3.38-.93,4.78-4.43Z"/>
    <path class="cls-27" d="M920.5,140.01v148.56h-26.32V140.01s13.42-7.34,26.32,0Z"/>
    <path class="cls-48" d="M946.77,140.01v148.56h-26.32V140.01s13.42-7.34,26.32,0Z"/>
    <path class="cls-37" d="M992.91,170.55l23.47,114.75-17.62,3.6-23.47-114.75s7.83-7.5,17.62-3.6Z"/>
    <path class="cls-33" d="M977.33,161.45v127.12h-30.97v-127.12s15.79-6.28,30.97,0Z"/>
    <path class="cls-58" d="M1080.27,192.08l2.59-3.29c.84-1.06,.08-2.63-1.27-2.63h-5.19c-1.35,0-2.11,1.56-1.27,2.63l2.59,3.29c.65,.82,1.9,.82,2.55,0Z"/>
    <path class="cls-13" d="M1071.53,198.88s6.88,2.08,7.43-6.34"/>
    <path class="cls-13" d="M1086.39,198.88s-6.88,2.08-7.43-6.34"/>
    <path class="cls-34" d="M907.29,181.42l1.13-.59c1.07-.56,2.33,.35,2.12,1.54l-.22,1.26c-.08,.47,.08,.96,.42,1.29l.91,.89c.87,.85,.39,2.32-.81,2.49l-1.26,.18c-.48,.07-.89,.37-1.1,.8l-.56,1.14c-.54,1.09-2.09,1.09-2.62,0l-.56-1.14c-.21-.43-.62-.73-1.1-.8l-1.26-.18c-1.2-.17-1.68-1.65-.81-2.49l.91-.89c.34-.34,.5-.82,.42-1.29l-.22-1.26c-.2-1.19,1.05-2.11,2.12-1.54l1.13,.59c.43,.22,.93,.22,1.36,0Z"/>
    <path class="cls-34" d="M907.29,197.68l1.13-.59c1.07-.56,2.33,.35,2.12,1.54l-.22,1.26c-.08,.47,.08,.96,.42,1.29l.91,.89c.87,.85,.39,2.32-.81,2.49l-1.26,.18c-.48,.07-.89,.37-1.1,.8l-.56,1.14c-.54,1.09-2.09,1.09-2.62,0l-.56-1.14c-.21-.43-.62-.73-1.1-.8l-1.26-.18c-1.2-.17-1.68-1.65-.81-2.49l.91-.89c.34-.34,.5-.82,.42-1.29l-.22-1.26c-.2-1.19,1.05-2.11,2.12-1.54l1.13,.59c.43,.22,.93,.22,1.36,0Z"/>
    <path class="cls-34" d="M907.29,213.24l1.13-.59c1.07-.56,2.33,.35,2.12,1.54l-.22,1.26c-.08,.47,.08,.96,.42,1.29l.91,.89c.87,.85,.39,2.32-.81,2.49l-1.26,.18c-.48,.07-.89,.37-1.1,.8l-.56,1.14c-.54,1.09-2.09,1.09-2.62,0l-.56-1.14c-.21-.43-.62-.73-1.1-.8l-1.26-.18c-1.2-.17-1.68-1.65-.81-2.49l.91-.89c.34-.34,.5-.82,.42-1.29l-.22-1.26c-.2-1.19,1.05-2.11,2.12-1.54l1.13,.59c.43,.22,.93,.22,1.36,0Z"/>
    <path class="cls-34" d="M907.29,229.04l1.13-.59c1.07-.56,2.33,.35,2.12,1.54l-.22,1.26c-.08,.47,.08,.96,.42,1.29l.91,.89c.87,.85,.39,2.32-.81,2.49l-1.26,.18c-.48,.07-.89,.37-1.1,.8l-.56,1.14c-.54,1.09-2.09,1.09-2.62,0l-.56-1.14c-.21-.43-.62-.73-1.1-.8l-1.26-.18c-1.2-.17-1.68-1.65-.81-2.49l.91-.89c.34-.34,.5-.82,.42-1.29l-.22-1.26c-.2-1.19,1.05-2.11,2.12-1.54l1.13,.59c.43,.22,.93,.22,1.36,0Z"/>
    <path class="cls-34" d="M907.29,242.75l1.13-.59c1.07-.56,2.33,.35,2.12,1.54l-.22,1.26c-.08,.47,.08,.96,.42,1.29l.91,.89c.87,.85,.39,2.32-.81,2.49l-1.26,.18c-.48,.07-.89,.37-1.1,.8l-.56,1.14c-.54,1.09-2.09,1.09-2.62,0l-.56-1.14c-.21-.43-.62-.73-1.1-.8l-1.26-.18c-1.2-.17-1.68-1.65-.81-2.49l.91-.89c.34-.34,.5-.82,.42-1.29l-.22-1.26c-.2-1.19,1.05-2.11,2.12-1.54l1.13,.59c.43,.22,.93,.22,1.36,0Z"/>
    <path class="cls-61" d="M933.55,181.42l1.13-.59c1.07-.56,2.33,.35,2.12,1.54l-.22,1.26c-.08,.47,.08,.96,.42,1.29l.91,.89c.87,.85,.39,2.32-.81,2.49l-1.26,.18c-.48,.07-.89,.37-1.1,.8l-.56,1.14c-.54,1.09-2.09,1.09-2.62,0l-.56-1.14c-.21-.43-.62-.73-1.1-.8l-1.26-.18c-1.2-.17-1.68-1.65-.81-2.49l.91-.89c.34-.34,.5-.82,.42-1.29l-.22-1.26c-.2-1.19,1.05-2.11,2.12-1.54l1.13,.59c.43,.22,.93,.22,1.36,0Z"/>
    <path class="cls-61" d="M933.55,197.68l1.13-.59c1.07-.56,2.33,.35,2.12,1.54l-.22,1.26c-.08,.47,.08,.96,.42,1.29l.91,.89c.87,.85,.39,2.32-.81,2.49l-1.26,.18c-.48,.07-.89,.37-1.1,.8l-.56,1.14c-.54,1.09-2.09,1.09-2.62,0l-.56-1.14c-.21-.43-.62-.73-1.1-.8l-1.26-.18c-1.2-.17-1.68-1.65-.81-2.49l.91-.89c.34-.34,.5-.82,.42-1.29l-.22-1.26c-.2-1.19,1.05-2.11,2.12-1.54l1.13,.59c.43,.22,.93,.22,1.36,0Z"/>
    <path class="cls-61" d="M933.55,213.24l1.13-.59c1.07-.56,2.33,.35,2.12,1.54l-.22,1.26c-.08,.47,.08,.96,.42,1.29l.91,.89c.87,.85,.39,2.32-.81,2.49l-1.26,.18c-.48,.07-.89,.37-1.1,.8l-.56,1.14c-.54,1.09-2.09,1.09-2.62,0l-.56-1.14c-.21-.43-.62-.73-1.1-.8l-1.26-.18c-1.2-.17-1.68-1.65-.81-2.49l.91-.89c.34-.34,.5-.82,.42-1.29l-.22-1.26c-.2-1.19,1.05-2.11,2.12-1.54l1.13,.59c.43,.22,.93,.22,1.36,0Z"/>
    <path class="cls-61" d="M933.55,229.04l1.13-.59c1.07-.56,2.33,.35,2.12,1.54l-.22,1.26c-.08,.47,.08,.96,.42,1.29l.91,.89c.87,.85,.39,2.32-.81,2.49l-1.26,.18c-.48,.07-.89,.37-1.1,.8l-.56,1.14c-.54,1.09-2.09,1.09-2.62,0l-.56-1.14c-.21-.43-.62-.73-1.1-.8l-1.26-.18c-1.2-.17-1.68-1.65-.81-2.49l.91-.89c.34-.34,.5-.82,.42-1.29l-.22-1.26c-.2-1.19,1.05-2.11,2.12-1.54l1.13,.59c.43,.22,.93,.22,1.36,0Z"/>
    <path class="cls-61" d="M933.55,242.75l1.13-.59c1.07-.56,2.33,.35,2.12,1.54l-.22,1.26c-.08,.47,.08,.96,.42,1.29l.91,.89c.87,.85,.39,2.32-.81,2.49l-1.26,.18c-.48,.07-.89,.37-1.1,.8l-.56,1.14c-.54,1.09-2.09,1.09-2.62,0l-.56-1.14c-.21-.43-.62-.73-1.1-.8l-1.26-.18c-1.2-.17-1.68-1.65-.81-2.49l.91-.89c.34-.34,.5-.82,.42-1.29l-.22-1.26c-.2-1.19,1.05-2.11,2.12-1.54l1.13,.59c.43,.22,.93,.22,1.36,0Z"/>
    <path class="cls-16" d="M957.54,170.11h7.27s-1.5,8.77,5.51,9.02v96.46s-6.01-.5-5.01,8.02h-7.02s1.75-7.27-5.01-8.02v-96.96s5.51,.75,4.26-8.52Z"/>
    <line class="cls-16" x1="959.04" y1="183.64" x2="959.04" y2="269.58"/>
    <line class="cls-16" x1="964.3" y1="183.64" x2="964.3" y2="269.58"/>
    <polygon class="cls-16" points="987.17 189.4 982.93 203.25 991.7 213.15 996.22 200.15 987.17 189.4"/>
    <polygon class="cls-16" points="1000.18 248.2 995.94 262.05 1004.7 271.95 1009.22 258.94 1000.18 248.2"/>
    <g>
      <line class="cls-11" x1="784.7" y1="191.29" x2="808.31" y2="232.37"/>
      <line class="cls-11" x1="848.19" y1="197.21" x2="837.46" y2="234.27"/>
      <line class="cls-11" x1="821.74" y1="173.29" x2="822.85" y2="233.49"/>
      <g>
        <polygon class="cls-31" points="847.83 195.4 847.47 175.88 868.8 175.52 847.83 195.4"/>
        <polygon class="cls-39" points="848.55 196.13 868.07 195.76 868.44 217.09 848.55 196.13"/>
        <polygon class="cls-31" points="848.19 197.21 848.55 216.73 827.23 217.09 848.19 197.21"/>
        <polygon class="cls-39" points="847.29 196.85 827.77 197.21 827.41 175.88 847.29 196.85"/>
        <ellipse class="cls-58" cx="847.81" cy="196.86" rx="3.34" ry="3.61"/>
      </g>
      <g>
        <polygon class="cls-35" points="820.33 160.95 815.33 142.08 835.95 136.64 820.33 160.95"/>
        <polygon class="cls-63" points="821.2 161.48 840.07 156.48 845.51 177.1 821.2 161.48"/>
        <polygon class="cls-35" points="821.11 162.62 826.11 181.49 805.49 186.92 821.11 162.62"/>
        <polygon class="cls-63" points="820.15 162.48 801.28 167.49 795.84 146.86 820.15 162.48"/>
        <ellipse class="cls-58" cx="820.66" cy="162.37" rx="3.34" ry="3.61" transform="translate(-15.05 200.29) rotate(-13.79)"/>
      </g>
      <g>
        <polygon class="cls-44" points="782.72 188.35 768.84 174.63 783.86 159.48 782.72 188.35"/>
        <polygon class="cls-32" points="783.74 188.37 797.47 174.48 812.61 189.5 783.74 188.37"/>
        <polygon class="cls-60" points="784.24 189.39 798.13 203.12 783.11 218.27 784.24 189.39"/>
        <polygon class="cls-32" points="783.34 189.77 769.62 203.65 754.47 188.63 783.34 189.77"/>
        <ellipse class="cls-58" cx="783.72" cy="189.4" rx="3.34" ry="3.61" transform="translate(90.31 600.84) rotate(-44.27)"/>
      </g>
      <rect class="cls-27" x="798.85" y="230.29" width="48.98" height="58.74"/>
    </g>
  </g>
  <g>
    <path class="cls-56" d="M866.83,712.03c-3.12,8.09-3.67,29-3.67,29l-7.71,72.21c13.2,13.73,24.15,3.72,24.15,3.72l12.34-41.94,2.64-10.64-3.43,60.1c9.52,8.65,25.12,4.11,25.12,4.11,17.93-42.04,25.77-86.44,25.77-86.44"/>
    <path class="cls-2" d="M961.35,736.33s-4.01-2.57-5.73-30.37c-1.72-27.81-.8-52.87-.8-52.87"/>
    <path class="cls-56" d="M1005.19,474.03s-6.41,16.23-.85,30.33c0,0-12.39,38.88-41.44,36.74,0,0-20.51,.85-14.95-31.19,0,0,8.12-1.28,8.54-9.83l48.7-26.06Z"/>
    <path class="cls-56" d="M1007.72,451.07s7.31-12.61,14.7-8.56c7.39,4.05,1.87,19.6,1.87,19.6,0,0-8.15,13.07-17.73,7.37,0,0-9.8,25.68-44.39,30.4,0,0-14.47,2.91-26.8-11.18-11.9-13.59-7.85-37.98-7.85-37.98,0,0-1.99-4.02-2.44-18.97-.45-14.95,3.29-32.58,22.32-39.57,19.02-6.98,30.9-9.91,49.69,3.63,18.79,13.54,10.64,55.24,10.64,55.24Z"/>
    <path class="cls-50" d="M962.45,473.69s-5.13-1.29-11.43,.22c0,0-5.05-.26-10.09,1.02,0,0-.52,6.91,8.07,8.67,8.59,1.75,13.77-4.61,13.45-9.91Z"/>
    <path class="cls-36" d="M961.65,474.07s.32,8.04-10.13,8.36c-9.5,.29-9.79-6.87-9.79-6.87,0,0,10.71,.16,19.92-1.49Z"/>
    <path class="cls-58" d="M965.82,432.39s8.2-2.44,15.25,1.9c0,0,3.83-1.63-1.47-3.84s-9.22-3.61-14.21-.92c0,0-2.14,1.92,.42,2.86Z"/>
    <path class="cls-58" d="M938,433.57s-5.31-2.71-12.09,2.05c0,0-2.78-1.41-.1-3.2,3.97-2.65,6.83-3.08,12.44-1.72,0,0,2.25,1.79-.25,2.88Z"/>
    <path class="cls-56" d="M919.89,550.7c5.75,64.43-48.86,67.18-48.86,67.18l-9.31-17.27,2.84-1.41s10.03-12.39,25.96-19.77c0,0,22.42-59.36,36.73-64.63,0,0,8.11-5.44,19.02-10.13,0,0,5.22-1.84,9.71-2,0,0-2.93,16.89,14.62,16.06,17.55-.83,28.62-15.1,31.44-14.9,18.27,1.33,37.81,16.11,37.81,16.11,0,0,16.43,14.15,16.43,31.26,0,19.93,3.24,22.46-4.57,53.19-5.82,22.9-53.16,14.68-76.28,15.96l-6.91,.51-4.08,.91s-.92,.41-4.13,1.49c0,0-16.77-4.78-39.81-23.36"/>
    <path class="cls-32" d="M960.22,474.27s-2.53,3.89-10.82,3.74c0,0-5.09,.41-7.31-2.24,0,0,10.67-.09,18.13-1.5Z"/>
    <path class="cls-64" d="M958.33,500.11s8.03,.87,20.15-4.47c0,0,4.5-1.16,13.23-7.42,0,0-6.26,6.43-18.8,11.68,0,0-5.27,2.37-15.27,2.65,0,0,.59-.83,.7-2.44Z"/>
    <path class="cls-3" d="M1021.18,453.31s-3.49-4.96-7.08,.31c-3.59,5.27-3.74,7-3.74,7,0,0,5.12-8.36,7.44-1.84"/>
    <path class="cls-3" d="M944.27,454.36s-6.22,9.88,5.17,10.68"/>
    <g>
      <path class="cls-32" d="M976.37,444.82s0-.34-.25-.63c-.83-.95-2.76-2.73-5.8-2.75-3.41-.02-5.31,3.16-5.96,4.3-.11,.2-.1,.37-.1,.37,0,0-.01,.19,.1,.32,.54,.64,2.34,2.41,5.57,2.48,1.92,.04,4.62-.97,6.31-3.56,.12-.18,.13-.41,.12-.54Z"/>
      <circle class="cls-64" cx="969.33" cy="445.38" r="3.52"/>
      <circle class="cls-32" cx="971.79" cy="447.39" r=".97"/>
      <path class="cls-3" d="M964.16,445.75s4.2-8.1,12.1-1.58"/>
    </g>
    <g>
      <path class="cls-32" d="M940.6,446.54s.05-.31-.14-.61c-.63-.99-2.14-2.89-4.93-3.34-3.12-.5-5.31,2.15-6.07,3.1-.13,.16-.15,.32-.15,.32,0,0-.04,.17,.05,.31,.41,.66,1.81,2.54,4.75,3.06,1.75,.31,4.38-.24,6.29-2.38,.13-.15,.17-.36,.19-.47Z"/>
      <circle class="cls-64" cx="934.08" cy="446.04" r="3.26"/>
      <circle class="cls-32" cx="936.2" cy="447.47" r=".91"/>
      <path class="cls-3" d="M929.4,445.79s4.83-7.32,11.15,.28"/>
    </g>
    <path class="cls-7" d="M931.93,529.31s-3.71,11.91-1.59,22.76"/>
    <path class="cls-56" d="M861.72,600.61s-5.02,1.24-10.04,.18-18.04,2.08-17.73,6.17c.31,4.09,6.6,1.66,6.6,1.66,0,0,3.49-.06-1.45,2.58s-9.42,.85-9.71,3.51c-.37,3.32,2.51,3.31,2.51,3.31l10.82-1.02s-2.08,3.76-6.36,4.28-6.18,.49-6.72,2.26c-.74,2.42,.39,3.78,4.64,2.84,4.25-.94,6.34-.48,9.47-2.57,0,0-.1,2.78-5.42,4.52,0,0-3.13,2.09,.44,3.05s10.79-2.77,10.79-2.77c0,0-1.15,2.45-3.56,4.59-2.41,2.14,2.25,2.5,2.25,2.5,0,0,17.06-7.35,22.78-17.81"/>
    <path class="cls-19" d="M849.74,606.97s1.28,8.26,10.65,7.63"/>
    <path class="cls-28" d="M1031.91,608.16s-1.18-43.69-15.24-58.82c0,0-58.37,10.16-85.98-16.37,0,0-17.05,20.59-14.58,43.72,0,0,.09,46.08,7.6,58.33,0,0-22.36,10.26-37.72,14.87-18.07,5.42-27.05,49.11-27.05,49.11,0,0,1.97,4.74,7.5,5.13l.39,7.9s61.21,36.73,95.97,30.8c0,0-1.97-33.57,28.83-29.62,30.8,3.95,60.42-7.11,60.42-7.11,0,0,19.75-19.35,13.03-47.79-6.71-28.44-15.8-37.52-15.8-37.52l-17.38-12.64Z"/>
    <path class="cls-56" d="M1028.28,531.81s-15.28,11.88-17.26,78.07c0,0,.25-8.12,0,0,0,0-18.95,7.07-33.4,24.7h0s-5.9-5.72-17.15-8.75c0,0-7.67-1.46-9,.2s.89,4.43,.89,4.43c0,0,7.37,1.21,8.11,2.87,0,0,.36,5.36-14.29,6.07,0,0-5.58-.34-8.46-2.42,0,0-6.55-2.58-4.23,3.14,0,0-1.77,2.86,2.86,6.25,0,0-3.22,4.64,9.65,8.75,0,0-.89,3.93,3.57,3.04s12.86-2.5,12.86-2.5c0,0,11.79-.36,19.29-4.82l3.75-2.68s32.87-4.37,49.01-12.54c16.15-8.16,21.95-43.83,22.23-68.44"/>
    <path class="cls-21" d="M933.51,640.12s9.9,8.44,21.92,3.72"/>
    <path class="cls-21" d="M936.37,646.37s9.2,8.26,19.6,1.78"/>
    <path class="cls-21" d="M946.01,655.13s6.98,.46,9.14-1.03"/>
    <path class="cls-8" d="M1016.28,549.44s1.19-11.88,3.86-16.34"/>
    <path class="cls-18" d="M930.81,536.68s-3.16,46.6,7.5,71.88c10.66,25.28-14.61,35.94-14.61,35.94,0,0-60.42,15.8-56.87,67.53"/>
    <line class="cls-8" x1="894.58" y1="764.37" x2="897.76" y2="728.04"/>
    <path class="cls-56" d="M889.85,828.99s-20.44,15.29-37.06,14.35c0,0-9.02-3.97-9.27,3.9,0,0,2.18,4.69,5.04,4.08,0,0,2.7,2.33,4.98,2.09l3.49,1.02s4.7,2.27,6.71,.98c0,0,2.84,2.85,8.34,2.58,5.5-.27,21.62-2.66,32.74,.78s6.98-12.57,6.98-12.57c0,0-.17-8.2,2.05-12.66l12.35-33.09-33.03-7.81-3.31,36.35Z"/>
    <path class="cls-19" d="M863.74,855.4s-.52-2.85,5.04-4.13"/>
    <path class="cls-19" d="M857.03,854.42s-2.75-3.22,7.52-5.39"/>
    <path class="cls-19" d="M853.54,853.4s-2.72-4.39,5.84-6.01"/>
    <path class="cls-19" d="M848.56,851.31s-2.3-5.48,7.58-5.9"/>
    <path class="cls-56" d="M855.12,813.08s-16.01,19.88-32.34,23.09c0,0-9.73-1.61-8.02,6.07,0,0,3.28,4,5.89,2.7,0,0,3.2,1.58,5.35,.79l3.63,.12s5.11,1.04,6.75-.71c0,0,3.45,2.06,8.72,.43,5.26-1.63,20.28-7.94,31.91-7.36,11.62,.57,3.64-13.9,3.64-13.9,0,0-2.2-7.9-1.16-12.78l3.75-35.11"/>
    <path class="cls-19" d="M836.38,845.15s-1.21-2.63,3.86-5.25"/>
    <path class="cls-19" d="M829.63,845.86s-3.46-2.43,5.95-7.09"/>
    <path class="cls-19" d="M826,845.74s-3.72-3.57,4.17-7.28"/>
    <path class="cls-19" d="M820.66,844.95s-3.59-4.74,5.88-7.59"/>
    <path class="cls-62" d="M1016.74,405.27s12.12,15.88,6.46,37.75c0,0-8.85-5.25-15.58,10.12,0,0-15.47-12.24-19.08-51.08,0,0-34.24,10.38-53.25,1.68,0,0-9.71,8.24-9.22,27.03l-.78,11.13c-6.29-32.92,7.49-48.45,7.49-48.45,24.16-27.91,56.49-16.49,63.39-11.24,0,0,11.26-16.6,29.68-3.46,0,0,9.94,5.51,7.99,14.2,0,0,16.92-8.32,20.38,12.17,0,0,14,4.31,6.6,20.45,0,0,8.87,9.96-2.49,18.5,0,0-12.72,10.3-18.84-2.14,0,0-11.39,6.8-10.88-5.05,0,0-12.51,1.59-13.39-9.54-.87-11.13,1.55-22.08,1.55-22.08Z"/>
  </g>
  <g>
    <path class="cls-43" d="M609.29,883.14s-13.78,21.43-6.89,35.97c0,0,6.89,22.19,58.17,15.31,0,0,67.73,26.67,83.8-11.6,0,0-1.14-22.84-57.01-29.73,0,0,6.89,18.37-17.6,17.6,0,0-47.45-.77-60.46-27.55Z"/>
    <path class="cls-49" d="M609.29,883.14s2.2-13.12,6.2-18.84c0,0-7.43-54.87-1.71-81.17,0,0,35.44,8,60.02,6.86,0,0-8.57,53.73-12,80.59,0,0-1.71,14.86,8.57,16.58l16.99,5.92s8.97,30.66-35.08,16.81c-44.05-13.84-42.98-26.76-42.98-26.76Z"/>
    <path class="cls-43" d="M524.3,896.27s-14.85,23.09-7.42,38.77c0,0,7.42,23.92,62.69,16.5,0,0,72.99,28.74,90.31-12.5,0,0-1.23-24.62-61.44-32.04,0,0,7.42,19.8-18.97,18.97,0,0-51.14-.82-65.16-29.69Z"/>
    <path class="cls-49" d="M524.3,896.27s2.37-14.14,6.68-20.3c0,0-8.01-59.14-1.85-87.47,0,0,38.19,8.62,64.68,7.39,0,0-9.24,57.9-12.94,86.86,0,0-1.85,16.02,9.24,17.86l18.31,6.38s9.66,33.04-37.81,18.12c-47.47-14.92-46.32-28.84-46.32-28.84Z"/>
    <path class="cls-59" d="M562.02,586.61s129.43,18.84,127.79,110.59-6.55,94.21-6.55,94.21c0,0-105.16,34.37-170.64,1.54,0,0-8.76-40.04,7.62-56.43l-137.62,4.1s-56.33,6.1-72.72-21.75c-16.38-27.85-24.1-74-1.28-112.85,0,0,55.73,22.13,167.96-41.76l85.44,22.36Z"/>
    <path class="cls-49" d="M466.04,222.82s-13.2,35.75-30.43,50.21c0,0,34.96,120.85,92.9,41.22,0,0-2.77-14.15-.42-22.67,0,0,17.53-8.95,16.53-19.31,0,0-57.6-15.02-78.58-49.45Z"/>
    <path class="cls-49" d="M476.13,186.19s3.88-38.75,29.06-55.14c15.37-10.01,42.92-4.24,69.98,2.07,0,0,56.12,18.47,20.73,85.15,0,0-5.19,6.16-5.13,12.55,0,0,.61,12.38-13.08,33.14-18.24,27.66-33.81,24.15-33.81,24.15,0,0-4.17,8.17-21.58,2.88,0,0-16.23-1.79-28.69-16.37,0,0-34.37-32.36-25.29-54.1,0,0-19.2,4.53-18.49-24.36,0,0,5.25-48.97,26.3-9.97Z"/>
    <path class="cls-42" d="M513.75,243.67s18.44-.25,24.08,7.8c0,0,6.1-3.24,18.19,6.23,0,0-4.9,20.31-25.32,13.69-23.32-7.56-16.95-27.72-16.95-27.72Z"/>
    <path class="cls-36" d="M516.26,246.84s-1.91,13.69,14.19,19.08c16.1,5.39,22.03-7.17,22.03-7.17,0,0-25.53-11.14-36.22-11.91Z"/>
    <path class="cls-54" d="M549.61,190.13s-22.03-15.95-36.05-11.69c0,0,12.75-10.05,38.64,6.02,0,0,3.69,5.41-2.58,5.67Z"/>
    <path class="cls-13" d="M562.29,227.69s5.84,20.42-14.46,16.03"/>
    <path class="cls-32" d="M520.44,247.48s2.52,5.15,14.85,9.43c11.35,3.94,15.89,1.21,15.89,1.21,0,0-16.13-7.6-30.73-10.64Z"/>
    <path class="cls-13" d="M455.02,186.33s10.99-13.76,14.85,15.36c0,0-6.61-14.44-11.52-5.49"/>
    <path class="cls-1" d="M510.8,188.23l1.74,22.05s9.75,9.94,26.7,10.86l14.26-16.27s-18.11-16.95-42.7-16.63Z"/>
    <path class="cls-23" d="M524.3,296.24c20.54,8.73,45.15,20.3,45.15,20.3,26.07,16.47,39.04,72.09,39.04,72.09l11.49,108.94s2.68,18.06-53.51,26.09c0,0-2.46,47.47-5.35,68.23-1.07,7.67-.02,8.05-11.28,11.18-12.19,3.39,9.3-.14-49.37,12.2,0,0-16.63-49.52-23.89-47.78,0,0,3.17,54.14-7.75,55.53-96.21,12.27-160.21-17-160.21-17,16.14-74.12,2.01-157.93,2.01-157.93-1.91-58.65,11.05-90.71,11.05-90.71,10.23-25.24,25.93-42.67,25.93-42.67,28.53-30.4,88.01-41.68,88.01-41.68,0,0,64.64,119.23,88.69,23.22"/>
    <path class="cls-64" d="M528.36,291.17s-3.36,.37-6.33-.96c0,0-25.14-3.75-42.32-32.82,0,0,4.27,10.2,16.3,22.42,0,0,9.41,9.99,31.49,14.54,0,0,.39-1.94,.86-3.18Z"/>
    <path class="cls-4" d="M523.59,135.89s34.47,27.71,62.12,15.64c0,0,4.54,15.86,20.42,38.44,0,0,.39,11.4-15.16,33.19,0,0,1.65,21.37-17.01,43.35,0,0-15.7,19.75-30.07,21.6,0,0-7.46,4.19-15.8,3.47,0,0-3.25,8.9,3.14,10.1,0,0,.94-5,4.87-5.89,0,0,59.03-3.65,75.89-90.12,0,0,39.48-30.87,11.72-65.24-12.55-15.53-18.08-52.14-62.72-44.32,0,0-45.98-39.81-75.86,7.91,0,0-62.43,.18-47.15,82.05,0,0-16.45,21.46,1.21,46.37,2.04,2.87,4.71,14.17-3.68,27.36-2.26,3.56,10.49-1.13,15.95-7.72,0,0,9.88-11.84,16.88-31.55,0,0-19.96,.85-17.77-20.61,0,0-.47-24.33,8.52-25.96,0,0,9.98-1.44,16.4,12.03,0,0,36.66,4.82,48.12-50.09Z"/>
    <path class="cls-54" d="M603.31,199.48c-.18-1.49-12.97-5.44-25.46-6.34,0,0-6.25,2.25-1.25,6.19,0,0,23.44-1.43,24.85,6.42,0,0,2.3-2.6,1.86-6.28Z"/>
    <path class="cls-1" d="M560.84,206.11l1.74,22.05s8.85,7.87,25.79,8.78l13.11-18.78s-16.05-12.37-40.64-12.05Z"/>
    <path class="cls-1" d="M560.84,206.11s-2.99-5.38-7.34-1.25"/>
    <line class="cls-1" x1="510.8" y1="188.23" x2="466.31" y2="173.58"/>
    <path class="cls-3" d="M530.12,162.79s17.17,6.63,25.04,10.74c7.87,4.12,33.81,4.13,33.81,4.13"/>
    <g>
      <circle class="cls-22" cx="626.42" cy="765.04" r="6.34"/>
      <path class="cls-22" d="M628.29,788.18c0,3.5-2.84,6.34-6.34,6.34-3.5,0-6.34-2.84-6.34-6.34,0-3.5,2.84-6.34,6.34-6.34,3.5,0,6.34,2.84,6.34,6.34Z"/>
      <circle class="cls-22" cx="631.84" cy="777.87" r="6.34"/>
      <circle class="cls-22" cx="609.36" cy="781.22" r="6.34"/>
      <circle class="cls-22" cx="613.31" cy="768.39" r="6.34"/>
    </g>
    <g>
      <path class="cls-22" d="M561.82,744.71c0,3.5-2.84,6.34-6.34,6.34-3.5,0-6.34-2.84-6.34-6.34,0-3.5,2.84-6.34,6.34-6.34,3.5,0,6.34,2.84,6.34,6.34Z"/>
      <path class="cls-22" d="M557.36,767.85c0,3.5-2.84,6.34-6.34,6.34-3.5,0-6.34-2.84-6.34-6.34,0-3.5,2.84-6.34,6.34-6.34,3.5,0,6.34,2.84,6.34,6.34Z"/>
      <path class="cls-22" d="M567.25,757.54c0,3.5-2.84,6.34-6.34,6.34-3.5,0-6.34-2.84-6.34-6.34,0-3.5,2.84-6.34,6.34-6.34,3.5,0,6.34,2.84,6.34,6.34Z"/>
      <circle class="cls-22" cx="538.43" cy="760.89" r="6.34"/>
      <circle class="cls-22" cx="542.38" cy="748.07" r="6.34"/>
    </g>
    <g>
      <path class="cls-22" d="M495.52,693.3c0,3.5-2.84,6.34-6.34,6.34-3.5,0-6.34-2.84-6.34-6.34,0-3.5,2.84-6.34,6.34-6.34s6.34,2.84,6.34,6.34Z"/>
      <path class="cls-22" d="M491.06,716.44c0,3.5-2.84,6.34-6.34,6.34-3.5,0-6.34-2.84-6.34-6.34,0-3.5,2.84-6.34,6.34-6.34,3.5,0,6.34,2.84,6.34,6.34Z"/>
      <circle class="cls-22" cx="494.61" cy="706.13" r="6.34"/>
      <circle class="cls-22" cx="472.13" cy="709.48" r="6.34"/>
      <circle class="cls-22" cx="476.08" cy="696.66" r="6.34"/>
    </g>
    <g>
      <path class="cls-22" d="M422.4,692.26c0,3.5-2.84,6.34-6.34,6.34-3.5,0-6.34-2.84-6.34-6.34,0-3.5,2.84-6.34,6.34-6.34s6.34,2.84,6.34,6.34Z"/>
      <path class="cls-22" d="M417.94,715.4c0,3.5-2.84,6.34-6.34,6.34-3.5,0-6.34-2.84-6.34-6.34,0-3.5,2.84-6.34,6.34-6.34,3.5,0,6.34,2.84,6.34,6.34Z"/>
      <path class="cls-22" d="M427.82,705.1c0,3.5-2.84,6.34-6.34,6.34-3.5,0-6.34-2.84-6.34-6.34s2.84-6.34,6.34-6.34c3.5,0,6.34,2.84,6.34,6.34Z"/>
      <circle class="cls-22" cx="399" cy="708.45" r="6.34"/>
      <circle class="cls-22" cx="402.96" cy="695.62" r="6.34"/>
    </g>
    <g>
      <path class="cls-22" d="M603.8,704.49c0,3.5-2.84,6.34-6.34,6.34-3.5,0-6.34-2.84-6.34-6.34,0-3.5,2.84-6.34,6.34-6.34s6.34,2.84,6.34,6.34Z"/>
      <circle class="cls-22" cx="593" cy="727.63" r="6.34"/>
      <circle class="cls-22" cx="602.89" cy="717.32" r="6.34"/>
      <path class="cls-22" d="M586.74,720.67c0,3.5-2.84,6.34-6.34,6.34-3.5,0-6.34-2.84-6.34-6.34,0-3.5,2.84-6.34,6.34-6.34,3.5,0,6.34,2.84,6.34,6.34Z"/>
      <circle class="cls-22" cx="584.36" cy="707.84" r="6.34"/>
    </g>
    <g>
      <path class="cls-22" d="M659.96,714.38c0,3.5-2.84,6.34-6.34,6.34-3.5,0-6.34-2.84-6.34-6.34,0-3.5,2.84-6.34,6.34-6.34,3.5,0,6.34,2.84,6.34,6.34Z"/>
      <path class="cls-22" d="M655.5,737.52c0,3.5-2.84,6.34-6.34,6.34-3.5,0-6.34-2.84-6.34-6.34,0-3.5,2.84-6.34,6.34-6.34,3.5,0,6.34,2.84,6.34,6.34Z"/>
      <path class="cls-22" d="M665.39,727.21c0,3.5-2.84,6.34-6.34,6.34-3.5,0-6.34-2.84-6.34-6.34,0-3.5,2.84-6.34,6.34-6.34,3.5,0,6.34,2.84,6.34,6.34Z"/>
      <circle class="cls-22" cx="636.56" cy="730.56" r="6.34"/>
      <circle class="cls-22" cx="640.52" cy="717.74" r="6.34"/>
    </g>
    <g>
      <circle class="cls-22" cx="511.91" cy="634.1" r="6.34"/>
      <path class="cls-22" d="M513.78,657.24c0,3.5-2.84,6.34-6.34,6.34-3.5,0-6.34-2.84-6.34-6.34s2.84-6.34,6.34-6.34c3.5,0,6.34,2.84,6.34,6.34Z"/>
      <path class="cls-22" d="M523.67,646.93c0,3.5-2.84,6.34-6.34,6.34-3.5,0-6.34-2.84-6.34-6.34,0-3.5,2.84-6.34,6.34-6.34,3.5,0,6.34,2.84,6.34,6.34Z"/>
      <circle class="cls-22" cx="494.85" cy="650.28" r="6.34"/>
      <path class="cls-22" d="M505.14,637.46c0,3.5-2.84,6.34-6.34,6.34-3.5,0-6.34-2.84-6.34-6.34,0-3.5,2.84-6.34,6.34-6.34,3.5,0,6.34,2.84,6.34,6.34Z"/>
    </g>
    <g>
      <circle class="cls-22" cx="589.49" cy="624.65" r="6.34"/>
      <circle class="cls-22" cx="585.02" cy="647.79" r="6.34"/>
      <path class="cls-22" d="M601.25,637.48c0,3.5-2.84,6.34-6.34,6.34-3.5,0-6.34-2.84-6.34-6.34,0-3.5,2.84-6.34,6.34-6.34,3.5,0,6.34,2.84,6.34,6.34Z"/>
      <circle class="cls-22" cx="572.42" cy="640.83" r="6.34"/>
      <path class="cls-22" d="M582.71,628.01c0,3.5-2.84,6.34-6.34,6.34-3.5,0-6.34-2.84-6.34-6.34,0-3.5,2.84-6.34,6.34-6.34,3.5,0,6.34,2.84,6.34,6.34Z"/>
    </g>
    <g>
      <circle class="cls-22" cx="550.74" cy="672.72" r="6.34"/>
      <path class="cls-22" d="M552.62,695.86c0,3.5-2.84,6.34-6.34,6.34-3.5,0-6.34-2.84-6.34-6.34s2.84-6.34,6.34-6.34c3.5,0,6.34,2.84,6.34,6.34Z"/>
      <path class="cls-22" d="M562.5,685.55c0,3.5-2.84,6.34-6.34,6.34-3.5,0-6.34-2.84-6.34-6.34,0-3.5,2.84-6.34,6.34-6.34,3.5,0,6.34,2.84,6.34,6.34Z"/>
      <circle class="cls-22" cx="533.68" cy="688.9" r="6.34"/>
      <path class="cls-22" d="M543.97,676.08c0,3.5-2.84,6.34-6.34,6.34-3.5,0-6.34-2.84-6.34-6.34,0-3.5,2.84-6.34,6.34-6.34s6.34,2.84,6.34,6.34Z"/>
    </g>
    <g>
      <path class="cls-22" d="M663.75,649.48c0,3.5-2.84,6.34-6.34,6.34-3.5,0-6.34-2.84-6.34-6.34,0-3.5,2.84-6.34,6.34-6.34,3.5,0,6.34,2.84,6.34,6.34Z"/>
      <circle class="cls-22" cx="652.95" cy="672.62" r="6.34"/>
      <circle class="cls-22" cx="662.84" cy="662.31" r="6.34"/>
      <path class="cls-22" d="M646.69,665.66c0,3.5-2.84,6.34-6.34,6.34-3.5,0-6.34-2.84-6.34-6.34s2.84-6.34,6.34-6.34c3.5,0,6.34,2.84,6.34,6.34Z"/>
      <circle class="cls-22" cx="644.3" cy="652.84" r="6.34"/>
    </g>
    <g>
      <path class="cls-22" d="M331.25,634.1c0,3.5-2.84,6.34-6.34,6.34-3.5,0-6.34-2.84-6.34-6.34,0-3.5,2.84-6.34,6.34-6.34,3.5,0,6.34,2.84,6.34,6.34Z"/>
      <circle class="cls-22" cx="320.45" cy="657.24" r="6.34"/>
      <path class="cls-22" d="M336.68,646.93c0,3.5-2.84,6.34-6.34,6.34-3.5,0-6.34-2.84-6.34-6.34,0-3.5,2.84-6.34,6.34-6.34,3.5,0,6.34,2.84,6.34,6.34Z"/>
      <path class="cls-22" d="M314.19,650.28c0,3.5-2.84,6.34-6.34,6.34-3.5,0-6.34-2.84-6.34-6.34,0-3.5,2.84-6.34,6.34-6.34,3.5,0,6.34,2.84,6.34,6.34Z"/>
      <circle class="cls-22" cx="311.81" cy="637.46" r="6.34"/>
    </g>
    <g>
      <circle class="cls-22" cx="447.19" cy="639.84" r="6.34"/>
      <path class="cls-22" d="M449.06,662.98c0,3.5-2.84,6.34-6.34,6.34-3.5,0-6.34-2.84-6.34-6.34,0-3.5,2.84-6.34,6.34-6.34,3.5,0,6.34,2.84,6.34,6.34Z"/>
      <circle class="cls-22" cx="452.62" cy="652.67" r="6.34"/>
      <circle class="cls-22" cx="430.13" cy="656.02" r="6.34"/>
      <path class="cls-22" d="M440.42,643.19c0,3.5-2.84,6.34-6.34,6.34-3.5,0-6.34-2.84-6.34-6.34,0-3.5,2.84-6.34,6.34-6.34,3.5,0,6.34,2.84,6.34,6.34Z"/>
    </g>
    <g>
      <circle class="cls-22" cx="338.17" cy="693.92" r="6.34"/>
      <path class="cls-22" d="M340.04,717.06c0,3.5-2.84,6.34-6.34,6.34-3.5,0-6.34-2.84-6.34-6.34,0-3.5,2.84-6.34,6.34-6.34,3.5,0,6.34,2.84,6.34,6.34Z"/>
      <circle class="cls-22" cx="343.59" cy="706.75" r="6.34"/>
      <path class="cls-22" d="M327.44,710.1c0,3.5-2.84,6.34-6.34,6.34-3.5,0-6.34-2.84-6.34-6.34,0-3.5,2.84-6.34,6.34-6.34,3.5,0,6.34,2.84,6.34,6.34Z"/>
      <path class="cls-22" d="M331.39,697.28c0,3.5-2.84,6.34-6.34,6.34-3.5,0-6.34-2.84-6.34-6.34,0-3.5,2.84-6.34,6.34-6.34,3.5,0,6.34,2.84,6.34,6.34Z"/>
    </g>
    <g>
      <path class="cls-22" d="M386.35,642.51c0,3.5-2.84,6.34-6.34,6.34-3.5,0-6.34-2.84-6.34-6.34,0-3.5,2.84-6.34,6.34-6.34,3.5,0,6.34,2.84,6.34,6.34Z"/>
      <path class="cls-22" d="M381.89,665.65c0,3.5-2.84,6.34-6.34,6.34-3.5,0-6.34-2.84-6.34-6.34s2.84-6.34,6.34-6.34,6.34,2.84,6.34,6.34Z"/>
      <path class="cls-22" d="M391.78,655.34c0,3.5-2.84,6.34-6.34,6.34-3.5,0-6.34-2.84-6.34-6.34,0-3.5,2.84-6.34,6.34-6.34,3.5,0,6.34,2.84,6.34,6.34Z"/>
      <circle class="cls-22" cx="362.96" cy="658.69" r="6.34"/>
      <path class="cls-22" d="M373.25,645.87c0,3.5-2.84,6.34-6.34,6.34-3.5,0-6.34-2.84-6.34-6.34,0-3.5,2.84-6.34,6.34-6.34,3.5,0,6.34,2.84,6.34,6.34Z"/>
    </g>
    <g>
      <path class="cls-32" d="M519.76,196.91s.13-.49,.6-.79c1.57-1.01,5.01-2.74,9.33-1.53,4.84,1.35,6.23,6.64,6.69,8.52,.08,.32,0,.56,0,.56,0,0-.06,.27-.27,.42-1.02,.68-4.3,2.46-8.9,1.25-2.74-.72-6.16-3.26-7.49-7.62-.09-.3-.01-.63,.04-.81Z"/>
      <circle class="cls-64" cx="529.49" cy="200.55" r="5.19"/>
      <circle class="cls-32" cx="526.62" cy="198.65" r="1.42"/>
      <path class="cls-13" d="M536.67,203.19s-2.66-13.19-16.49-7.17"/>
    </g>
    <g>
      <path class="cls-32" d="M572.93,216.59s.05-.47,.45-.82c1.31-1.16,4.27-3.26,8.46-2.76,4.69,.57,6.74,5.28,7.44,6.96,.12,.29,.08,.53,.08,.53,0,0-.02,.26-.2,.43-.85,.78-3.64,2.9-8.09,2.44-2.65-.28-6.19-2.15-8.06-6.01-.13-.27-.1-.59-.08-.76Z"/>
      <circle class="cls-64" cx="582.51" cy="218.58" r="4.87"/>
      <circle class="cls-32" cx="579.4" cy="217.29" r="1.36"/>
      <path class="cls-13" d="M589.34,220.15s-3.92-12.51-16.13-4.2"/>
    </g>
    <path class="cls-10" d="M419.32,418.33s7.04,39.22-3.52,57.32"/>
    <path class="cls-10" d="M310.63,448.08s10.13,39.64,16.67,41.65"/>
    <path class="cls-10" d="M566.47,523.66s8.7-66.98-1.78-103.67"/>
    <path class="cls-6" d="M501.33,374.89c0,4.61-3.74,8.35-8.35,8.35s-8.35-3.74-8.35-8.35,3.74-8.35,8.35-8.35,8.35,3.74,8.35,8.35Z"/>
    <path class="cls-6" d="M503.58,437.32c0,4.61-3.74,8.35-8.35,8.35s-8.35-3.74-8.35-8.35,3.74-8.35,8.35-8.35,8.35,3.74,8.35,8.35Z"/>
    <circle class="cls-6" cx="494.66" cy="502.91" r="8.35"/>
    <path class="cls-46" d="M722.45,407.43s-15.09,1.39-23.78,6.24l9.83,10.72,13.95-16.96Z"/>
    <path class="cls-49" d="M698.67,413.67l-64.75,26.2s5.79,21,19.39,20.47c0,0,34.83-3.59,42.73-16.16,7.9-12.57,10.1-22.44,10.1-22.44l-7.48-8.07Z"/>
    <g>
      <path class="cls-45" d="M768.7,508.36c1.32-11.67-10.06-41.42-10.06-41.42,0,0-9.73-26.65-23.35-35.27s-35.63-12.06-35.63-12.06c0,0,1.67,29.83-30.11,35.33-31.78,5.5-37.9-31.61-37.9-31.61,0,0-26.88,11.53-32.11,18.15-5.23,6.61-14.08,28.66-14.57,34.72-.19,2.35-5.98,20.03-12.56,41.11,0,0,7.89,24.29,31.63,30.89,0,0,5.93,88.49,.1,93.93,0,0,123.93,5.95,136.2-2.08,0,0-5.86-103.27-4.19-95.91,0,0,28.19,2.81,32.55-35.76Z"/>
      <path class="cls-41" d="M631.65,423.32s6.67,35.03,34.35,32.3c0,0,31.09-.02,33.67-36.02l4.74,1.08s.25,39.02-37.5,39.12-40.47-34.34-40.47-34.34l5.2-2.15Z"/>
      <path class="cls-55" d="M624.13,473.63l3.01-2.06c.88-.6,2.06,.07,2,1.13l-.2,3.64c-.02,.42,.16,.83,.5,1.08l2.88,2.22c.84,.65,.57,1.98-.45,2.25l-3.52,.94c-.41,.11-.74,.41-.88,.81l-1.22,3.43c-.36,1-1.71,1.16-2.28,.27l-1.98-3.06c-.23-.35-.62-.57-1.04-.58l-3.64-.1c-1.06-.03-1.63-1.26-.96-2.09l2.3-2.83c.27-.33,.35-.76,.23-1.17l-1.03-3.49c-.3-1.02,.7-1.94,1.69-1.56l3.4,1.31c.39,.15,.84,.1,1.18-.14Z"/>
      <path class="cls-55" d="M649.03,501.84l3.01-2.06c.88-.6,2.06,.07,2,1.13l-.2,3.64c-.02,.42,.16,.83,.5,1.08l2.88,2.22c.84,.65,.57,1.98-.45,2.25l-3.52,.94c-.41,.11-.74,.41-.88,.81l-1.22,3.43c-.36,1-1.71,1.16-2.28,.27l-1.98-3.06c-.23-.35-.62-.57-1.04-.58l-3.64-.1c-1.06-.03-1.63-1.26-.96-2.09l2.3-2.83c.27-.33,.35-.76,.23-1.17l-1.03-3.49c-.3-1.02,.7-1.94,1.69-1.56l3.4,1.31c.39,.15,.84,.1,1.18-.14Z"/>
      <path class="cls-55" d="M700.66,506.32l3.01-2.06c.88-.6,2.06,.07,2,1.13l-.2,3.64c-.02,.42,.16,.83,.5,1.08l2.88,2.22c.84,.65,.57,1.98-.45,2.25l-3.52,.94c-.41,.11-.74,.41-.88,.81l-1.22,3.43c-.36,1-1.71,1.16-2.28,.27l-1.98-3.06c-.23-.35-.62-.57-1.04-.58l-3.64-.1c-1.06-.03-1.63-1.26-.96-2.09l2.3-2.83c.27-.33,.35-.76,.23-1.17l-1.03-3.49c-.3-1.02,.7-1.94,1.69-1.56l3.4,1.31c.39,.15,.84,.1,1.18-.14Z"/>
      <path class="cls-55" d="M635.56,546.9l3.01-2.06c.88-.6,2.06,.07,2,1.13l-.2,3.64c-.02,.42,.16,.83,.5,1.08l2.88,2.22c.84,.65,.57,1.98-.45,2.25l-3.52,.94c-.41,.11-.74,.41-.88,.81l-1.22,3.43c-.36,1-1.71,1.16-2.28,.27l-1.98-3.06c-.23-.35-.62-.57-1.04-.58l-3.64-.1c-1.06-.03-1.63-1.26-.96-2.09l2.3-2.83c.27-.33,.35-.76,.23-1.17l-1.03-3.49c-.3-1.02,.7-1.94,1.69-1.56l3.4,1.31c.39,.15,.84,.1,1.18-.14Z"/>
      <path class="cls-55" d="M673.63,533.76l3.01-2.06c.88-.6,2.06,.07,2,1.13l-.2,3.64c-.02,.42,.16,.83,.5,1.08l2.88,2.22c.84,.65,.57,1.98-.45,2.25l-3.52,.94c-.41,.11-.74,.41-.88,.81l-1.22,3.43c-.36,1-1.71,1.16-2.28,.27l-1.98-3.06c-.23-.35-.62-.57-1.04-.58l-3.64-.1c-1.06-.03-1.63-1.26-.96-2.09l2.3-2.83c.27-.33,.35-.76,.23-1.17l-1.03-3.49c-.3-1.02,.7-1.94,1.69-1.56l3.4,1.31c.39,.15,.84,.1,1.18-.14Z"/>
      <path class="cls-55" d="M715.15,563.78l3.01-2.06c.88-.6,2.06,.07,2,1.13l-.2,3.64c-.02,.42,.16,.83,.5,1.08l2.88,2.22c.84,.65,.57,1.98-.45,2.25l-3.52,.94c-.41,.11-.74,.41-.88,.81l-1.22,3.43c-.36,1-1.71,1.16-2.28,.27l-1.98-3.06c-.23-.35-.62-.57-1.04-.58l-3.64-.1c-1.06-.03-1.63-1.26-.96-2.09l2.3-2.83c.27-.33,.35-.76,.23-1.17l-1.03-3.49c-.3-1.02,.7-1.94,1.69-1.56l3.4,1.31c.39,.15,.84,.1,1.18-.14Z"/>
      <path class="cls-55" d="M676.54,582.53l3.01-2.06c.88-.6,2.06,.07,2,1.13l-.2,3.64c-.02,.42,.16,.83,.5,1.08l2.88,2.22c.84,.65,.57,1.98-.45,2.25l-3.52,.94c-.41,.11-.74,.41-.88,.81l-1.22,3.43c-.36,1-1.71,1.16-2.28,.27l-1.98-3.06c-.23-.35-.62-.57-1.04-.58l-3.64-.1c-1.06-.03-1.63-1.26-.96-2.09l2.3-2.83c.27-.33,.35-.76,.23-1.17l-1.03-3.49c-.3-1.02,.7-1.94,1.69-1.56l3.4,1.31c.39,.15,.84,.1,1.18-.14Z"/>
      <path class="cls-55" d="M684.47,618.88l3.01-2.06c.88-.6,2.06,.07,2,1.13l-.2,3.64c-.02,.42,.16,.83,.5,1.08l2.88,2.22c.84,.65,.57,1.98-.45,2.25l-3.52,.94c-.41,.11-.74,.41-.88,.81l-1.22,3.43c-.36,1-1.71,1.16-2.28,.27l-1.98-3.06c-.23-.35-.62-.57-1.04-.58l-3.64-.1c-1.06-.03-1.63-1.26-.96-2.09l2.3-2.83c.27-.33,.35-.76,.23-1.17l-1.03-3.49c-.3-1.02,.7-1.94,1.69-1.56l3.4,1.31c.39,.15,.84,.1,1.18-.14Z"/>
      <path class="cls-55" d="M715.21,597.81l3.01-2.06c.88-.6,2.06,.07,2,1.13l-.2,3.64c-.02,.42,.16,.83,.5,1.08l2.88,2.22c.84,.65,.57,1.98-.45,2.25l-3.52,.94c-.41,.11-.74,.41-.88,.81l-1.22,3.43c-.36,1-1.71,1.16-2.28,.27l-1.98-3.06c-.23-.35-.62-.57-1.04-.58l-3.64-.1c-1.06-.03-1.63-1.26-.96-2.09l2.3-2.83c.27-.33,.35-.76,.23-1.17l-1.03-3.49c-.3-1.02,.7-1.94,1.69-1.56l3.4,1.31c.39,.15,.84,.1,1.18-.14Z"/>
      <path class="cls-55" d="M646.34,598.72l3.01-2.06c.88-.6,2.06,.07,2,1.13l-.2,3.64c-.02,.42,.16,.83,.5,1.08l2.88,2.22c.84,.65,.57,1.98-.45,2.25l-3.52,.94c-.41,.11-.74,.41-.88,.81l-1.22,3.43c-.36,1-1.71,1.16-2.28,.27l-1.98-3.06c-.23-.35-.62-.57-1.04-.58l-3.64-.1c-1.06-.03-1.63-1.26-.96-2.09l2.3-2.83c.27-.33,.35-.76,.23-1.17l-1.03-3.49c-.3-1.02,.7-1.94,1.69-1.56l3.4,1.31c.39,.15,.84,.1,1.18-.14Z"/>
      <path class="cls-55" d="M623.53,618.28l3.01-2.06c.88-.6,2.06,.07,2,1.13l-.2,3.64c-.02,.42,.16,.83,.5,1.08l2.88,2.22c.84,.65,.57,1.98-.45,2.25l-3.52,.94c-.41,.11-.74,.41-.88,.81l-1.22,3.43c-.36,1-1.71,1.16-2.28,.27l-1.98-3.06c-.23-.35-.62-.57-1.04-.58l-3.64-.1c-1.06-.03-1.63-1.26-.96-2.09l2.3-2.83c.27-.33,.35-.76,.23-1.17l-1.03-3.49c-.3-1.02,.7-1.94,1.69-1.56l3.4,1.31c.39,.15,.84,.1,1.18-.14Z"/>
      <path class="cls-55" d="M613.04,526.95l3.01-2.06c.88-.6,2.06,.07,2,1.13l-.2,3.64c-.02,.42,.16,.83,.5,1.08l2.88,2.22c.84,.65,.57,1.98-.45,2.25l-3.52,.94c-.41,.11-.74,.41-.88,.81l-1.22,3.43c-.36,1-1.71,1.16-2.28,.27l-1.98-3.06c-.23-.35-.62-.57-1.04-.58l-3.64-.1c-1.06-.03-1.63-1.26-.96-2.09l2.3-2.83c.27-.33,.35-.76,.23-1.17l-1.03-3.49c-.3-1.02,.7-1.94,1.69-1.56l3.4,1.31c.39,.15,.84,.1,1.18-.14Z"/>
      <path class="cls-55" d="M592.78,492.47l3.01-2.06c.88-.6,2.06,.07,2,1.13l-.2,3.64c-.02,.42,.16,.83,.5,1.08l2.88,2.22c.84,.65,.57,1.98-.45,2.25l-3.52,.94c-.41,.11-.74,.41-.88,.81l-1.22,3.43c-.36,1-1.71,1.16-2.28,.27l-1.98-3.06c-.23-.35-.62-.57-1.04-.58l-3.64-.1c-1.06-.03-1.63-1.26-.96-2.09l2.3-2.83c.27-.33,.35-.76,.23-1.17l-1.03-3.49c-.3-1.02,.7-1.94,1.69-1.56l3.4,1.31c.39,.15,.84,.1,1.18-.14Z"/>
      <path class="cls-55" d="M608.88,447.03l3.01-2.06c.88-.6,2.06,.07,2,1.13l-.2,3.64c-.02,.42,.16,.83,.5,1.08l2.88,2.22c.84,.65,.57,1.98-.45,2.25l-3.52,.94c-.41,.11-.74,.41-.88,.81l-1.22,3.43c-.36,1-1.71,1.16-2.28,.27l-1.98-3.06c-.23-.35-.62-.57-1.04-.58l-3.64-.1c-1.06-.03-1.63-1.26-.96-2.09l2.3-2.83c.27-.33,.35-.76,.23-1.17l-1.03-3.49c-.3-1.02,.7-1.94,1.69-1.56l3.4,1.31c.39,.15,.84,.1,1.18-.14Z"/>
      <path class="cls-55" d="M673.15,475.2l3.01-2.06c.88-.6,2.06,.07,2,1.13l-.2,3.64c-.02,.42,.16,.83,.5,1.08l2.88,2.22c.84,.65,.57,1.98-.45,2.25l-3.52,.94c-.41,.11-.74,.41-.88,.81l-1.22,3.43c-.36,1-1.71,1.16-2.28,.27l-1.98-3.06c-.23-.35-.62-.57-1.04-.58l-3.64-.1c-1.06-.03-1.63-1.26-.96-2.09l2.3-2.83c.27-.33,.35-.76,.23-1.17l-1.03-3.49c-.3-1.02,.7-1.94,1.69-1.56l3.4,1.31c.39,.15,.84,.1,1.18-.14Z"/>
      <path class="cls-55" d="M711.41,446.58l3.01-2.06c.88-.6,2.06,.07,2,1.13l-.2,3.64c-.02,.42,.16,.83,.5,1.08l2.88,2.22c.84,.65,.57,1.98-.45,2.25l-3.52,.94c-.41,.11-.74,.41-.88,.81l-1.22,3.43c-.36,1-1.71,1.16-2.28,.27l-1.98-3.06c-.23-.35-.62-.57-1.04-.58l-3.64-.1c-1.06-.03-1.63-1.26-.96-2.09l2.3-2.83c.27-.33,.35-.76,.23-1.17l-1.03-3.49c-.3-1.02,.7-1.94,1.69-1.56l3.4,1.31c.39,.15,.84,.1,1.18-.14Z"/>
      <path class="cls-55" d="M741.64,454.55l3.01-2.06c.88-.6,2.06,.07,2,1.13l-.2,3.64c-.02,.42,.16,.83,.5,1.08l2.88,2.22c.84,.65,.57,1.98-.45,2.25l-3.52,.94c-.41,.11-.74,.41-.88,.81l-1.22,3.43c-.36,1-1.71,1.16-2.28,.27l-1.98-3.06c-.23-.35-.62-.57-1.04-.58l-3.64-.1c-1.06-.03-1.63-1.26-.96-2.09l2.3-2.83c.27-.33,.35-.76,.23-1.17l-1.03-3.49c-.3-1.02,.7-1.94,1.69-1.56l3.4,1.31c.39,.15,.84,.1,1.18-.14Z"/>
      <path class="cls-55" d="M723.22,480.06l3.01-2.06c.88-.6,2.06,.07,2,1.13l-.2,3.64c-.02,.42,.16,.83,.5,1.08l2.88,2.22c.84,.65,.57,1.98-.45,2.25l-3.52,.94c-.41,.11-.74,.41-.88,.81l-1.22,3.43c-.36,1-1.71,1.16-2.28,.27l-1.98-3.06c-.23-.35-.62-.57-1.04-.58l-3.64-.1c-1.06-.03-1.63-1.26-.96-2.09l2.3-2.83c.27-.33,.35-.76,.23-1.17l-1.03-3.49c-.3-1.02,.7-1.94,1.69-1.56l3.4,1.31c.39,.15,.84,.1,1.18-.14Z"/>
      <path class="cls-55" d="M754.65,508.48l3.01-2.06c.88-.6,2.06,.07,2,1.13l-.2,3.64c-.02,.42,.16,.83,.5,1.08l2.88,2.22c.84,.65,.57,1.98-.45,2.25l-3.52,.94c-.41,.11-.74,.41-.88,.81l-1.22,3.43c-.36,1-1.71,1.16-2.28,.27l-1.98-3.06c-.23-.35-.62-.57-1.04-.58l-3.64-.1c-1.06-.03-1.63-1.26-.96-2.09l2.3-2.83c.27-.33,.35-.76,.23-1.17l-1.03-3.49c-.3-1.02,.7-1.94,1.69-1.56l3.4,1.31c.39,.15,.84,.1,1.18-.14Z"/>
      <path class="cls-55" d="M727.15,523.96l3.01-2.06c.88-.6,2.06,.07,2,1.13l-.2,3.64c-.02,.42,.16,.83,.5,1.08l2.88,2.22c.84,.65,.57,1.98-.45,2.25l-3.52,.94c-.41,.11-.74,.41-.88,.81l-1.22,3.43c-.36,1-1.71,1.16-2.28,.27l-1.98-3.06c-.23-.35-.62-.57-1.04-.58l-3.64-.1c-1.06-.03-1.63-1.26-.96-2.09l2.3-2.83c.27-.33,.35-.76,.23-1.17l-1.03-3.49c-.3-1.02,.7-1.94,1.69-1.56l3.4,1.31c.39,.15,.84,.1,1.18-.14Z"/>
    </g>
    <path class="cls-49" d="M703.71,436.51c2.48,9.91,8.68,6.31,8.68,6.31,1.17,11.17,11.59,6.3,11.59,6.3,8.61,10.33,13.07,4.27,13.07,4.27,1.38,6.89,11.1,3.27,11.1,3.27l3.84-3.75s10.13-14.63,10.66-19.38c.88-7.9-13.77-11.71-13.77-11.71-2.41-11.36-13.43-8.95-13.43-8.95-7.92-10.67-15.15-3.79-15.15-3.79l-10.48,12.48s-7.21,10.63-6.13,14.96Z"/>
    <path class="cls-5" d="M737.06,453.38s9.22-10.84,14.77-20.47"/>
    <line class="cls-5" x1="723.99" y1="449.11" x2="740.83" y2="426.6"/>
    <path class="cls-5" d="M712.4,442.82s8.55-17.17,18.56-23.15"/>
    <path class="cls-5" d="M709.84,421.55s5.08-7.98,12.61-14.12"/>
    <g>
      <path class="cls-49" d="M421.43,455.12c29.98-11.24,124.35-17.24,124.35-17.24l47.17-24.66s19.36,.55,26.77-1.28c7.42-1.83,15.87,10.06,15.87,10.06,0,0,7.77,5.71,6.16,9.42-1.61,3.7-9.82-.19-9.82-.19l.86,6.46c-.34,11.47-8.38,7.86-8.38,7.86-.82,14.48-7.38,10.74-7.38,10.74-2.96,10.36-6.02,11.07-6.02,11.07-6.01,.97-7.94-9.67-7.94-9.67-18.08,11.77-54.98,11.12-54.98,11.12,0,0-94.81,67.84-161.33,65.03,0,0-31.86-4.68-59.47-44.09"/>
      <path class="cls-9" d="M631.94,431.22s-6.41-11.3-10.94-12.84c-4.53-1.54-12.41-2.03-12.41-2.03"/>
      <path class="cls-9" d="M624.42,445.54s-3.54-15.71-15.28-17.95"/>
      <path class="cls-9" d="M617.03,456.28s1.04-18.41-6.33-17.77c-7.38,.64-18.26,6.99-18.26,6.99"/>
    </g>
    <path class="cls-12" d="M460.08,208.64s-10.26,9-4.42,17.85c5.84,8.85,6.35-8.66,6.35-8.66"/>
  </g>
</svg>