<?xml version="1.0" encoding="UTF-8"?>
<svg id="Layer_1" data-name="Layer 1" xmlns="http://www.w3.org/2000/svg" viewBox="0 0 1333.62 999.89">
  <defs>
    <style>
      .cls-1 {
        stroke-width: 1.5px;
      }

      .cls-1, .cls-2, .cls-3, .cls-4, .cls-5, .cls-6, .cls-7, .cls-8, .cls-9, .cls-10, .cls-11, .cls-12, .cls-13, .cls-14, .cls-15, .cls-16 {
        stroke-miterlimit: 10;
      }

      .cls-1, .cls-2, .cls-3, .cls-8, .cls-9, .cls-10, .cls-11, .cls-12, .cls-13, .cls-14, .cls-15, .cls-16 {
        fill: none;
      }

      .cls-1, .cls-3, .cls-9, .cls-15 {
        stroke: #231f20;
      }

      .cls-2, .cls-3 {
        stroke-width: .8px;
      }

      .cls-2, .cls-14 {
        stroke: #754c29;
      }

      .cls-17, .cls-7 {
        fill: #f7daa6;
      }

      .cls-18 {
        fill: #e6e7e8;
      }

      .cls-19 {
        fill: #f6ac1b;
      }

      .cls-20 {
        fill: #fff;
      }

      .cls-21 {
        fill: #f1f2f2;
      }

      .cls-22 {
        fill: #803435;
      }

      .cls-23 {
        fill: #939598;
      }

      .cls-24 {
        fill: #87664d;
      }

      .cls-25 {
        fill: #b56e5b;
      }

      .cls-26 {
        fill: #8b5e3c;
      }

      .cls-27, .cls-6 {
        fill: #9054a2;
      }

      .cls-28 {
        fill: #ba8abe;
      }

      .cls-29, .cls-5 {
        fill: #a97c50;
      }

      .cls-30 {
        fill: #be9e7d;
      }

      .cls-31 {
        fill: #be8c8c;
      }

      .cls-32 {
        fill: #c8eaf6;
      }

      .cls-33, .cls-4 {
        fill: #d1d3d4;
      }

      .cls-34 {
        fill: #d4bada;
      }

      .cls-35 {
        fill: #dcbf97;
      }

      .cls-36 {
        fill: #231f20;
      }

      .cls-37 {
        fill: #092f44;
      }

      .cls-38 {
        fill: #6dc8c3;
      }

      .cls-39 {
        fill: #546b82;
      }

      .cls-40 {
        fill: #808285;
      }

      .cls-41 {
        fill: #5c4d6b;
      }

      .cls-42 {
        fill: #3c2415;
      }

      .cls-43 {
        fill: #26130f;
      }

      .cls-4 {
        stroke: #58595b;
        stroke-width: .2px;
      }

      .cls-5, .cls-15, .cls-16 {
        stroke-width: .5px;
      }

      .cls-5, .cls-16 {
        stroke: #a97c50;
      }

      .cls-6, .cls-10 {
        stroke: #662d91;
      }

      .cls-7 {
        stroke: #603913;
      }

      .cls-8 {
        stroke: #fbb040;
        stroke-width: 2px;
      }

      .cls-11 {
        stroke: #f1f2f2;
      }

      .cls-12 {
        stroke: #fff;
      }

      .cls-13 {
        stroke: #2b3990;
      }
    </style>
  </defs>
  <g>
    <rect class="cls-21" width="1332.28" height="937.4"/>
    <rect class="cls-38" x="0" y="338.73" width="769.24" height="589.49"/>
    <line class="cls-11" x1="4.23" y1="438.36" x2="767.16" y2="438.36"/>
    <line class="cls-11" x1="4.23" y1="536.32" x2="767.16" y2="536.32"/>
    <line class="cls-11" x1="4.23" y1="636.09" x2="767.16" y2="636.09"/>
    <line class="cls-11" x1="4.23" y1="734.04" x2="767.16" y2="734.04"/>
    <line class="cls-11" x1="4.23" y1="833.81" x2="767.16" y2="833.81"/>
    <line class="cls-11" x1="763.72" y1="338.59" x2="763.72" y2="928.14"/>
    <line class="cls-11" x1="767.92" y1="338.59" x2="767.92" y2="928.14"/>
    <line class="cls-11" x1="671.78" y1="338.59" x2="671.78" y2="928.14"/>
    <line class="cls-11" x1="577.45" y1="338.59" x2="577.45" y2="928.14"/>
    <line class="cls-11" x1="483.12" y1="338.59" x2="483.12" y2="928.14"/>
    <line class="cls-11" x1="388.8" y1="338.59" x2="388.8" y2="928.14"/>
    <line class="cls-11" x1="292.65" y1="338.59" x2="292.65" y2="928.14"/>
    <line class="cls-11" x1="198.33" y1="338.59" x2="198.33" y2="928.14"/>
    <line class="cls-11" x1="102.18" y1="338.59" x2="102.18" y2="928.14"/>
    <rect class="cls-33" y="929.05" width="1333.62" height="70.83"/>
    <g>
      <path class="cls-18" d="M592.91,460.89c0,70.71-90.31,128.03-201.72,128.03s-201.72-57.32-201.72-128.03"/>
      <path class="cls-18" d="M347.3,580.56l-25.08,350.13s74.21,34.49,135.87,1.05l-27.17-352.22"/>
      <rect class="cls-20" x="171.62" y="429.44" width="439.55" height="50.55" rx="3.35" ry="3.35"/>
      <path class="cls-23" d="M380.65,429.85v-68.94l-19.37,9.94-4.47-10.93,19.87-7.45-19.87-10.43,5.96-11.92,21.86,14.41h10.43l19.87-11.43,4.47,10.93-18.88,9.44,20.37,10.93-6.46,8.94-19.37-13.41v15.9s36.83-1.22,36.26,35.39h3.72l.26,5.35h-23.35v-5.46h6.46s.99-21.36-21.86-21.36v40.34l-15.9-.21Z"/>
    </g>
    <g>
      <rect class="cls-19" x="266.98" y="73.7" width="244.39" height="247.01"/>
      <rect class="cls-32" x="292.24" y="97.49" width="192.34" height="198.51"/>
      <line class="cls-12" x1="297.81" y1="111.06" x2="330.44" y2="156.62"/>
      <line class="cls-12" x1="310.74" y1="103.67" x2="343.37" y2="149.23"/>
      <line class="cls-12" x1="433.88" y1="244.66" x2="466.51" y2="290.22"/>
      <line class="cls-12" x1="446.81" y1="237.27" x2="479.44" y2="282.83"/>
    </g>
    <g>
      <rect class="cls-21" x="924.25" y="13.81" width="103.08" height="102.45"/>
      <path class="cls-40" d="M970.47,24.22s-6.54,29.74-37.12,35.86V24l37.12,.23Z"/>
      <path class="cls-40" d="M979.8,24.22s6.54,29.74,37.12,35.86V24s-37.12,.23-37.12,.23Z"/>
      <path class="cls-40" d="M970.47,105.82s-6.54-29.74-37.12-35.86v36.09l37.12-.23Z"/>
      <path class="cls-40" d="M979.8,105.82s6.54-29.74,37.12-35.86v36.09s-37.12-.23-37.12-.23Z"/>
      <path class="cls-40" d="M975.13,36.77s-6.2,17.84-28.01,27.51c0,0,26.02,11.15,28.01,28.75,0,0,8.43-21.07,28.5-28.01,0,0-19.83-10.16-28.5-28.25Z"/>
    </g>
    <g>
      <rect class="cls-21" x="1026.24" y="13.81" width="103.08" height="102.45"/>
      <path class="cls-40" d="M1072.46,24.22s-6.54,29.74-37.12,35.86V24l37.12,.23Z"/>
      <path class="cls-40" d="M1081.8,24.22s6.54,29.74,37.12,35.86V24s-37.12,.23-37.12,.23Z"/>
      <path class="cls-40" d="M1072.46,105.82s-6.54-29.74-37.12-35.86v36.09l37.12-.23Z"/>
      <path class="cls-40" d="M1081.8,105.82s6.54-29.74,37.12-35.86v36.09s-37.12-.23-37.12-.23Z"/>
      <path class="cls-40" d="M1077.13,36.77s-6.2,17.84-28.01,27.51c0,0,26.02,11.15,28.01,28.75,0,0,8.43-21.07,28.5-28.01,0,0-19.83-10.16-28.5-28.25Z"/>
    </g>
    <g>
      <rect class="cls-21" x="1127.54" y="13.81" width="103.08" height="102.45"/>
      <path class="cls-40" d="M1173.77,24.22s-6.54,29.74-37.12,35.86V24l37.12,.23Z"/>
      <path class="cls-40" d="M1183.1,24.22s6.54,29.74,37.12,35.86V24s-37.12,.23-37.12,.23Z"/>
      <path class="cls-40" d="M1173.77,105.82s-6.54-29.74-37.12-35.86v36.09l37.12-.23Z"/>
      <path class="cls-40" d="M1183.1,105.82s6.54-29.74,37.12-35.86v36.09s-37.12-.23-37.12-.23Z"/>
      <path class="cls-40" d="M1178.43,36.77s-6.2,17.84-28.01,27.51c0,0,26.02,11.15,28.01,28.75,0,0,8.43-21.07,28.5-28.01,0,0-19.83-10.16-28.5-28.25Z"/>
    </g>
    <g>
      <rect class="cls-21" x="1229.54" y="13.81" width="103.08" height="102.45"/>
      <path class="cls-40" d="M1275.76,24.22s-6.54,29.74-37.12,35.86V24l37.12,.23Z"/>
      <path class="cls-40" d="M1285.1,24.22s6.54,29.74,37.12,35.86V24s-37.12,.23-37.12,.23Z"/>
      <path class="cls-40" d="M1275.76,105.82s-6.54-29.74-37.12-35.86v36.09l37.12-.23Z"/>
      <path class="cls-40" d="M1285.1,105.82s6.54-29.74,37.12-35.86v36.09s-37.12-.23-37.12-.23Z"/>
      <path class="cls-40" d="M1280.43,36.77s-6.2,17.84-28.01,27.51c0,0,26.02,11.15,28.01,28.75,0,0,8.43-21.07,28.5-28.01,0,0-19.83-10.16-28.5-28.25Z"/>
    </g>
    <g>
      <rect class="cls-21" x="924.25" y="118.09" width="103.08" height="102.45"/>
      <path class="cls-40" d="M970.47,128.5s-6.54,29.74-37.12,35.86v-36.09l37.12,.23Z"/>
      <path class="cls-40" d="M979.8,128.5s6.54,29.74,37.12,35.86v-36.09s-37.12,.23-37.12,.23Z"/>
      <path class="cls-40" d="M970.47,210.1s-6.54-29.74-37.12-35.86v36.09l37.12-.23Z"/>
      <path class="cls-40" d="M979.8,210.1s6.54-29.74,37.12-35.86v36.09s-37.12-.23-37.12-.23Z"/>
      <path class="cls-40" d="M975.13,141.05s-6.2,17.84-28.01,27.51c0,0,26.02,11.15,28.01,28.75,0,0,8.43-21.07,28.5-28.01,0,0-19.83-10.16-28.5-28.25Z"/>
    </g>
    <g>
      <rect class="cls-21" x="1026.24" y="118.09" width="103.08" height="102.45"/>
      <path class="cls-40" d="M1072.46,128.5s-6.54,29.74-37.12,35.86v-36.09l37.12,.23Z"/>
      <path class="cls-40" d="M1081.8,128.5s6.54,29.74,37.12,35.86v-36.09s-37.12,.23-37.12,.23Z"/>
      <path class="cls-40" d="M1072.46,210.1s-6.54-29.74-37.12-35.86v36.09l37.12-.23Z"/>
      <path class="cls-40" d="M1081.8,210.1s6.54-29.74,37.12-35.86v36.09s-37.12-.23-37.12-.23Z"/>
      <path class="cls-40" d="M1077.13,141.05s-6.2,17.84-28.01,27.51c0,0,26.02,11.15,28.01,28.75,0,0,8.43-21.07,28.5-28.01,0,0-19.83-10.16-28.5-28.25Z"/>
    </g>
    <g>
      <rect class="cls-21" x="1127.54" y="118.09" width="103.08" height="102.45"/>
      <path class="cls-40" d="M1173.77,128.5s-6.54,29.74-37.12,35.86v-36.09l37.12,.23Z"/>
      <path class="cls-40" d="M1183.1,128.5s6.54,29.74,37.12,35.86v-36.09s-37.12,.23-37.12,.23Z"/>
      <path class="cls-40" d="M1173.77,210.1s-6.54-29.74-37.12-35.86v36.09l37.12-.23Z"/>
      <path class="cls-40" d="M1183.1,210.1s6.54-29.74,37.12-35.86v36.09s-37.12-.23-37.12-.23Z"/>
      <path class="cls-40" d="M1178.43,141.05s-6.2,17.84-28.01,27.51c0,0,26.02,11.15,28.01,28.75,0,0,8.43-21.07,28.5-28.01,0,0-19.83-10.16-28.5-28.25Z"/>
    </g>
    <g>
      <rect class="cls-21" x="1229.54" y="118.09" width="103.08" height="102.45"/>
      <path class="cls-40" d="M1275.76,128.5s-6.54,29.74-37.12,35.86v-36.09l37.12,.23Z"/>
      <path class="cls-40" d="M1285.1,128.5s6.54,29.74,37.12,35.86v-36.09s-37.12,.23-37.12,.23Z"/>
      <path class="cls-40" d="M1275.76,210.1s-6.54-29.74-37.12-35.86v36.09l37.12-.23Z"/>
      <path class="cls-40" d="M1285.1,210.1s6.54-29.74,37.12-35.86v36.09s-37.12-.23-37.12-.23Z"/>
      <path class="cls-40" d="M1280.43,141.05s-6.2,17.84-28.01,27.51c0,0,26.02,11.15,28.01,28.75,0,0,8.43-21.07,28.5-28.01,0,0-19.83-10.16-28.5-28.25Z"/>
    </g>
  </g>
  <g>
    <rect class="cls-24" x="233.01" y="811.9" width="19.73" height="141.81"/>
    <rect class="cls-24" x="523.9" y="811.9" width="19.73" height="141.81"/>
    <rect class="cls-24" x="233.01" y="785.74" width="310.47" height="26.16"/>
    <rect class="cls-29" x="252.07" y="859.15" width="272.36" height="37.31"/>
  </g>
  <g>
    <path class="cls-35" d="M374.42,712.61l-9.74,42.47,33.37,20.55s6.39-3.47,8.77,1.64c0,0,10.78-4.38,10.78,3.11s-10.41,5.66-10.41,5.66l-65.39-.55s-17.26,6.2-16.44-13.27,11.76-64.08,11.76-64.08l37.31,4.46Z"/>
    <path class="cls-35" d="M321.4,752.76s21.52,24.95,42.72,28.38c0,0,12.47-2.49,10.6,7.48,0,0-4.05,5.3-7.48,3.74,0,0-4.05,2.18-6.86,1.25l-4.68,.31s-6.55,1.56-8.73-.62c0,0-4.37,2.81-11.23,.94s-26.51-9.36-41.48-8.11-5.3-17.78-5.3-17.78c0,0,2.49-10.29,.94-16.53l-6.37-45.13,43.8-.67-5.93,46.73Z"/>
    <path class="cls-2" d="M346.98,793.3s1.45-3.45-5.2-6.61"/>
    <path class="cls-2" d="M355.71,793.92s4.36-3.29-7.98-8.88"/>
    <path class="cls-2" d="M360.39,793.61s4.64-4.77-5.69-9.2"/>
    <path class="cls-2" d="M367.25,792.36s4.42-6.27-7.91-9.54"/>
    <path class="cls-39" d="M335.44,710.58l-.04-12.07-3.49,11.72s-19.91,11.71-49.14,.37l-3.58-39.13c-6.43-10.81-17.57-64.21-17.57-64.21-3.99-30.43-.05-36.18-.05-36.18,87.67,32.28,124.18-13.42,124.18-13.42l4.43,101.55c1.22,9.48-3.43,25.78-3.43,25.78l-8.09,27.69s-26.04,5.47-43.21-2.08Z"/>
    <path class="cls-35" d="M289.17,390.33s3.94,21.1-2.01,36.2c0,0,16.2,37.93,47.32,35.65,0,0,21.97,.92,16.02-33.41,0,0-8.7-1.37-9.15-10.53l-52.17-27.92Z"/>
    <path class="cls-35" d="M280.59,373.48s-9.54-12.37-16.82-7.03c-7.28,5.34,.77,21.08,.77,21.08,0,0,10.5,12.73,19.86,5.34,0,0,14.01,25.89,51.41,26.05,0,0,15.77,1.06,26.9-15.64,10.73-16.1,3-41.43,3-41.43,0,0,1.55-4.55-.07-20.49-1.62-15.94-8.07-34.14-29.26-38.88-21.18-4.74-34.21-6.18-52.26,10.84-18.05,17.02-3.54,60.16-3.54,60.16Z"/>
    <path class="cls-31" d="M331.83,391.13s5.27-2.09,12.17-1.37c0,0,5.33-.98,10.86-.33,0,0,1.52,7.27-7.35,10.34-8.87,3.07-15.27-2.96-15.68-8.64Z"/>
    <path class="cls-22" d="M332.74,391.43s.79,8.58,11.94,7.45c10.13-1.03,9.43-8.67,9.43-8.67,0,0-11.35,1.68-21.36,1.22Z"/>
    <path class="cls-36" d="M322.46,347.75s-9.05-1.44-15.93,4.16c0,0-4.3-1.2,1.02-4.28,5.32-3.08,9.29-5.12,14.96-2.98,0,0,2.54,1.74-.05,3.09Z"/>
    <path class="cls-36" d="M352.17,345.09s5.26-3.62,13.13,.48c0,0,2.75-1.89-.35-3.42-4.59-2.26-7.68-2.31-13.45-.08,0,0-2.14,2.22,.67,3.02Z"/>
    <path class="cls-20" d="M334.28,391.43s3.24,3.77,12.01,2.45c0,0,5.47-.28,7.45-3.4,0,0-11.34,1.4-19.47,.96Z"/>
    <path class="cls-43" d="M339.92,418.62s-8.4,2.05-22.03-1.92c0,0-4.94-.6-15.09-6.02,0,0,7.56,5.95,21.61,9.76,0,0,5.93,1.78,16.59,.67,0,0-.75-.8-1.08-2.5Z"/>
    <path class="cls-3" d="M266.6,377.74s3.01-5.76,7.56-.66c4.55,5.1,4.95,6.91,4.95,6.91,0,0-6.61-8.16-8.16-.91"/>
    <path class="cls-3" d="M348.42,368.05s8,9.62-3.99,12.07"/>
    <g>
      <path class="cls-20" d="M313,362.44s-.05-.36,.17-.7c.75-1.12,2.54-3.28,5.77-3.73,3.62-.5,6.08,2.61,6.93,3.73,.15,.19,.16,.38,.16,.38,0,0,.04,.2-.06,.36-.48,.75-2.15,2.89-5.56,3.42-2.03,.32-5.05-.38-7.2-2.9-.15-.18-.19-.42-.21-.55Z"/>
      <circle class="cls-43" cx="320.55" cy="362.03" r="3.77"/>
      <circle class="cls-20" cx="318.22" cy="364.52" r="1.04"/>
      <path class="cls-3" d="M326.1,361.71s-5.6-8.02-13.07,.02"/>
    </g>
    <g>
      <path class="cls-20" d="M351.22,359.23s-.1-.32,.06-.67c.53-1.14,1.87-3.37,4.77-4.24,3.24-.97,5.94,1.54,6.88,2.44,.16,.16,.2,.32,.2,.32,0,0,.07,.18,0,.34-.34,.76-1.56,2.95-4.62,3.92-1.82,.58-4.68,.36-7.02-1.64-.16-.14-.24-.36-.27-.48Z"/>
      <circle class="cls-43" cx="358.08" cy="357.79" r="3.49"/>
      <circle class="cls-20" cx="356.03" cy="359.6" r=".98"/>
      <path class="cls-3" d="M363.01,356.86s-6.16-7.1-11.8,1.86"/>
    </g>
    <path class="cls-35" d="M396.08,488.85s41.17-4.06,56.75-12.18,29.18-40.62,29.18-40.62c8.29-1.82,12.77-9.95,12.77-9.95l-24.37-31.83c-8.62,7.13-6.63,27.02-6.63,27.02-17.57,13.43-31.12,30.28-31.12,30.28,0,0-24.97-4.22-30.6-3.17"/>
    <path class="cls-2" d="M474.71,408.2s9.12,5.97,5.8,14.92"/>
    <path class="cls-41" d="M444.02,359.34l16.23,19.44,8.76,15.34,36.72,45.86s5.24,1.01,4.56-4.23l-38.38-44.47-2.71-7.78s-.85-3.21-5.07-7.61l-15.55-19.44s-4.4-1.18-4.56,2.87Z"/>
    <polygon class="cls-18" points="445.02 360.68 436.78 367.49 452.3 385.86 460.24 379.07 445.02 360.68"/>
    <path class="cls-35" d="M481.19,395.54s-3.56,2.61-3.77,5.13,.1,3.77,3.24,3.56,5.23-4.81,5.23-4.81c0,0,1.15-5.13-4.71-3.87Z"/>
    <path class="cls-35" d="M486.41,398.81s-4.04,2.97-4.27,5.82,.12,4.27,3.68,4.04,5.94-5.46,5.94-5.46c0,0,1.31-5.82-5.34-4.39Z"/>
    <path class="cls-35" d="M490.91,404.04s-4.04,2.97-4.27,5.82,.12,4.27,3.68,4.04,5.94-5.46,5.94-5.46c0,0,1.31-5.82-5.34-4.39Z"/>
    <path class="cls-35" d="M495.95,409.01s-3.09,2.39-3.27,4.68,.09,3.44,2.81,3.25,4.54-4.39,4.54-4.39c0,0,1-4.68-4.09-3.53Z"/>
    <path class="cls-27" d="M398.63,491.58c-9.6-.07-18.65,2-18.65,2l4.86,64.44s-36.98,48.95-123.28,13.05l-8.67-52.12-9.33,1.12s-16.44-44.67,12.03-72.4c27.37-26.67,34.72-20.94,34.72-20.94,0,0,11.64,28.15,37.16,26.28,0,0,23.54,1.05,23.03-24.25,0,0,16.11-.54,31.77,9.61,0,0,10.99,5.44,21.65,8.67"/>
    <path class="cls-28" d="M290.3,426.74s14.52,29.67,37.16,26.28c0,0,23.42,.84,23.03-24.25l4.36,.16s5.23,25.96-25.75,28.87c0,0-17.28,2.25-30.35-8.56,0,0-11.86-8.73-16.04-21.63"/>
    <path class="cls-35" d="M331.18,558.04l6.02,.89s8.91-3.85,23.56-4.47c0,0,11.2-1.06,13.8,1.58,2.32,2.34,.01,5.72-2.82,6.03s-12.55-3.37-13.16,.06c0,0-1.91,6.48,15.86,11.39,0,0,8.53,.99,11.14-1.41,0,0,8.65-.59,4.23,5.78,0,0,2.54,6.1-5.23,6.88,0,0-2.85,10.64-14.25,8.08,0,0,.01,5.07-5.22,2.74-5.23-2.33-15.09-6.61-15.09-6.61,0,0-7.56-2.03-14.69-7.25l-38.86-2.97s-21.85-.38-33.44-22.61-17.48-35.15-17.48-35.15l39.84-13.23s9.18,18.93,13.36,33.75l32.43,16.53Z"/>
    <path class="cls-2" d="M389.81,577.89s-14.47,7.63-27.91-1.48"/>
    <path class="cls-2" d="M384.58,584.77s-13.57,7.61-24.54-3.21"/>
    <path class="cls-2" d="M370.33,592.85s-8.69-1.36-10.93-3.78"/>
    <path class="cls-10" d="M380.11,493.65s-1.6-13.79-3.9-24.29"/>
    <path class="cls-2" d="M326.92,758.23s22.65,22.8,37.21,22.91c0,0,10.05-1.9,10.56,4.6"/>
    <path class="cls-2" d="M398.05,775.63s4.81,2.69,8.77,1.64"/>
    <path class="cls-13" d="M335.39,698.51l4.83-34.35s2.31-32.88-3.46-51.91"/>
    <path class="cls-6" d="M243.56,520.08s2.9,13.06,11.55,21.72c0,0,35.02,4.53,39.96-18.13,0,0-7.09-74.02-29.92-69.11"/>
    <path class="cls-34" d="M308.94,484.52l3.49-2.38c1.02-.7,2.39,.08,2.32,1.31l-.23,4.22c-.03,.49,.19,.96,.58,1.26l3.34,2.58c.98,.75,.66,2.3-.52,2.61l-4.08,1.09c-.47,.13-.85,.48-1.02,.94l-1.42,3.98c-.41,1.16-1.98,1.34-2.65,.31l-2.29-3.55c-.27-.41-.72-.66-1.2-.68l-4.22-.12c-1.23-.03-1.89-1.47-1.11-2.42l2.66-3.28c.31-.38,.41-.89,.27-1.36l-1.19-4.05c-.35-1.18,.81-2.25,1.96-1.8l3.94,1.52c.46,.18,.97,.12,1.37-.16Z"/>
    <path class="cls-34" d="M344.2,506.02l3.49-2.38c1.02-.7,2.39,.08,2.32,1.31l-.23,4.22c-.03,.49,.19,.96,.58,1.26l3.34,2.58c.98,.75,.66,2.3-.52,2.61l-4.08,1.09c-.47,.13-.85,.48-1.02,.94l-1.42,3.98c-.41,1.16-1.98,1.34-2.65,.31l-2.29-3.55c-.27-.41-.72-.66-1.2-.68l-4.22-.12c-1.23-.03-1.89-1.47-1.11-2.42l2.66-3.28c.31-.38,.41-.89,.27-1.36l-1.19-4.05c-.35-1.18,.81-2.25,1.96-1.8l3.94,1.52c.46,.18,.97,.12,1.37-.16Z"/>
    <path class="cls-34" d="M359.65,472.09l3.49-2.38c1.02-.7,2.39,.08,2.32,1.31l-.23,4.22c-.03,.49,.19,.96,.58,1.26l3.34,2.58c.98,.75,.66,2.3-.52,2.61l-4.08,1.09c-.47,.13-.85,.48-1.02,.94l-1.42,3.98c-.41,1.16-1.98,1.34-2.65,.31l-2.29-3.55c-.27-.41-.72-.66-1.2-.68l-4.22-.12c-1.23-.03-1.89-1.47-1.11-2.42l2.66-3.28c.31-.38,.41-.89,.27-1.36l-1.19-4.05c-.35-1.18,.81-2.25,1.96-1.8l3.94,1.52c.46,.18,.97,.12,1.37-.16Z"/>
    <path class="cls-34" d="M371.07,525.5l3.49-2.38c1.02-.7,2.39,.08,2.32,1.31l-.23,4.22c-.03,.49,.19,.96,.58,1.26l3.34,2.58c.98,.75,.66,2.3-.52,2.61l-4.08,1.09c-.47,.13-.85,.48-1.02,.94l-1.42,3.98c-.41,1.16-1.98,1.34-2.65,.31l-2.29-3.55c-.27-.41-.72-.66-1.2-.68l-4.22-.12c-1.23-.03-1.89-1.47-1.11-2.42l2.66-3.28c.31-.38,.41-.89,.27-1.36l-1.19-4.05c-.35-1.18,.81-2.25,1.96-1.8l3.94,1.52c.46,.18,.97,.12,1.37-.16Z"/>
    <path class="cls-34" d="M317.67,527.17l3.49-2.38c1.02-.7,2.39,.08,2.32,1.31l-.23,4.22c-.03,.49,.19,.96,.58,1.26l3.34,2.58c.98,.75,.66,2.3-.52,2.61l-4.08,1.09c-.47,.13-.85,.48-1.02,.94l-1.42,3.98c-.41,1.16-1.98,1.34-2.65,.31l-2.29-3.55c-.27-.41-.72-.66-1.2-.68l-4.22-.12c-1.23-.03-1.89-1.47-1.11-2.42l2.66-3.28c.31-.38,.41-.89,.27-1.36l-1.19-4.05c-.35-1.18,.81-2.25,1.96-1.8l3.94,1.52c.46,.18,.97,.12,1.37-.16Z"/>
    <path class="cls-34" d="M263.26,464.37l3.49-2.38c1.02-.7,2.39,.08,2.32,1.31l-.23,4.22c-.03,.49,.19,.96,.58,1.26l3.34,2.58c.98,.75,.66,2.3-.52,2.61l-4.08,1.09c-.47,.13-.85,.48-1.02,.94l-1.42,3.98c-.41,1.16-1.98,1.34-2.65,.31l-2.29-3.55c-.27-.41-.72-.66-1.2-.68l-4.22-.12c-1.23-.03-1.89-1.47-1.11-2.42l2.66-3.28c.31-.38,.41-.89,.27-1.36l-1.19-4.05c-.35-1.18,.81-2.25,1.96-1.8l3.94,1.52c.46,.18,.97,.12,1.37-.16Z"/>
    <path class="cls-34" d="M257.55,499.63l3.49-2.38c1.02-.7,2.39,.08,2.32,1.31l-.23,4.22c-.03,.49,.19,.96,.58,1.26l3.34,2.58c.98,.75,.66,2.3-.52,2.61l-4.08,1.09c-.47,.13-.85,.48-1.02,.94l-1.42,3.98c-.41,1.16-1.98,1.34-2.65,.31l-2.29-3.55c-.27-.41-.72-.66-1.2-.68l-4.22-.12c-1.23-.03-1.89-1.47-1.11-2.42l2.66-3.28c.31-.38,.41-.89,.27-1.36l-1.19-4.05c-.35-1.18,.81-2.25,1.96-1.8l3.94,1.52c.46,.18,.97,.12,1.37-.16Z"/>
    <path class="cls-34" d="M276.56,518.12l3.49-2.38c1.02-.7,2.39,.08,2.32,1.31l-.23,4.22c-.03,.49,.19,.96,.58,1.26l3.34,2.58c.98,.75,.66,2.3-.52,2.61l-4.08,1.09c-.47,.13-.85,.48-1.02,.94l-1.42,3.98c-.41,1.16-1.98,1.34-2.65,.31l-2.29-3.55c-.27-.41-.72-.66-1.2-.68l-4.22-.12c-1.23-.03-1.89-1.47-1.11-2.42l2.66-3.28c.31-.38,.41-.89,.27-1.36l-1.19-4.05c-.35-1.18,.81-2.25,1.96-1.8l3.94,1.52c.46,.18,.97,.12,1.37-.16Z"/>
    <path class="cls-34" d="M378.46,446.23l3.49-2.38c1.02-.7,2.39,.08,2.32,1.31l-.23,4.22c-.03,.49,.19,.96,.58,1.26l3.34,2.58c.98,.75,.66,2.3-.52,2.61l-4.08,1.09c-.47,.13-.85,.48-1.02,.94l-1.42,3.98c-.41,1.16-1.98,1.34-2.65,.31l-2.29-3.55c-.27-.41-.72-.66-1.2-.68l-4.22-.12c-1.23-.03-1.89-1.47-1.11-2.42l2.66-3.28c.31-.38,.41-.89,.27-1.36l-1.19-4.05c-.35-1.18,.81-2.25,1.96-1.8l3.94,1.52c.46,.18,.97,.12,1.37-.16Z"/>
    <path class="cls-42" d="M266.95,326.33s-11.55,17.86-3.72,40.62c0,0,8.96-6.31,17.38,9.45,0,0,15.41-14.28,16.01-55.81,0,0,37.22,8.17,56.68-2.65,0,0,10.99,7.94,12.04,27.94l1.75,11.76c3.94-35.47-11.98-50.82-11.98-50.82-27.96-27.62-61.34-12.81-68.23-6.66,0,0-13.33-16.68-31.8-1.2,0,0-10.09,6.68-7.3,15.74,0,0-18.65-7.43-20.62,14.62,0,0-14.51,5.73-5.3,22.26,0,0-8.59,11.31,4.18,19.44,0,0,14.37,9.88,19.83-3.84,0,0,12.65,6.27,11.13-6.27,0,0,13.42,.65,13.42-11.24,0-11.89-3.48-23.32-3.48-23.32Z"/>
  </g>
  <g>
    <path class="cls-26" d="M886.42,909.92s13.78,21.43,6.89,35.97c0,0-6.89,22.19-58.17,15.31,0,0-67.73,26.67-83.8-11.6,0,0,1.14-22.84,57.01-29.73,0,0-6.89,18.37,17.6,17.6,0,0,47.45-.77,60.46-27.55Z"/>
    <path class="cls-30" d="M886.42,909.92s-2.2-13.12-6.2-18.84c0,0,7.43-54.87,1.71-81.17,0,0-35.44,8-60.02,6.86,0,0,8.57,53.73,12,80.59,0,0,1.71,14.86-8.57,16.58l-16.99,5.92s-8.97,30.66,35.08,16.81c44.05-13.84,42.98-26.76,42.98-26.76Z"/>
    <path class="cls-26" d="M1044.66,923.05s14.85,23.09,7.42,38.77c0,0-7.42,23.92-62.69,16.5,0,0-72.99,28.74-90.31-12.5,0,0,1.23-24.62,61.44-32.04,0,0-7.42,19.8,18.97,18.97,0,0,51.14-.82,65.16-29.69Z"/>
    <path class="cls-30" d="M1044.66,923.05s-2.37-14.14-6.68-20.3c0,0,8.01-59.14,1.85-87.47,0,0-38.19,8.62-64.68,7.39,0,0,9.24,57.9,12.94,86.86,0,0,1.85,16.02-9.24,17.86l-18.31,6.38s-9.66,33.04,37.81,18.12c47.47-14.92,46.32-28.84,46.32-28.84Z"/>
    <path class="cls-37" d="M1121.48,498.53s30.35,119.92-50.92,228.68c0,0-1.89,45.48-4.28,98.07,0,0-152.28,38.18-263.43-7.24,0,0-32.96-149.12,82.12-287.3,0,0,24.31-32.3,69.2-30.45s105.03,38.66,167.31-1.77Z"/>
    <path class="cls-30" d="M902.4,175.32s13.2,35.75,30.43,50.21c0,0-49.8,168.21-92.9,41.22,0,0,2.77-14.15,.42-22.67,0,0-17.53-8.95-16.53-19.31,0,0,57.6-15.02,78.58-49.45Z"/>
    <path class="cls-30" d="M892.3,138.69s-3.88-38.75-29.06-55.14c-15.37-10.01-42.92-4.24-69.98,2.07,0,0-56.12,18.47-20.73,85.15,0,0,5.19,6.16,5.13,12.55,0,0-.61,12.38,13.08,33.14,18.24,27.66,33.81,24.15,33.81,24.15,0,0,4.17,8.17,21.58,2.88,0,0,16.23-1.79,28.69-16.37,0,0,34.37-32.36,25.29-54.1,0,0,19.2,4.53,18.49-24.36,0,0-5.25-48.97-26.3-9.97Z"/>
    <path class="cls-25" d="M854.68,196.17s-18.44-.25-24.08,7.8c0,0-6.1-3.24-18.19,6.23,0,0,4.9,20.31,25.32,13.69,23.32-7.56,16.95-27.72,16.95-27.72Z"/>
    <path class="cls-22" d="M852.17,199.34s1.91,13.69-14.19,19.08c-16.1,5.39-22.03-7.17-22.03-7.17,0,0,25.53-11.14,36.22-11.91Z"/>
    <path class="cls-33" d="M818.83,142.63s22.03-15.95,36.05-11.69c0,0-12.75-10.05-38.64,6.02,0,0-3.69,5.41,2.58,5.67Z"/>
    <path class="cls-9" d="M806.14,180.19s-5.84,20.42,14.46,16.03"/>
    <path class="cls-20" d="M848,199.98s-2.52,5.15-14.85,9.43c-11.35,3.94-15.89,1.21-15.89,1.21,0,0,16.13-7.6,30.73-10.64Z"/>
    <path class="cls-9" d="M913.42,138.83s-10.99-13.76-14.85,15.36c0,0,6.61-14.44,11.52-5.49"/>
    <path class="cls-1" d="M857.64,140.73l-1.74,22.05s-9.75,9.94-26.7,10.86l-14.26-16.27s18.11-16.95,42.7-16.63Z"/>
    <path class="cls-17" d="M868.38,524.78c-2.89-20.75-21.82-92.02-21.82-92.02-11.21,3.9-38.03-.98-38.03-.98l-14.16-66.3s-12.67-46.28,7.97-75.9c0,0,17.05-14.1,37.59-22.84l7.54,16.42s30.69,34.1,58.94,0c0,0,8.88-30.77,26.42-57.64,0,0,64.57,6.11,93.1,36.51,0,0,27.9,43.86,32.24,75.5,0,0,7.95,50.79,18.47,86.86,0,0,24.32,22.45,45.6,70.38,4.77,13.86-68.38,52.53-153.06,52.19-4.75-.02-11.16-43.5-15.97-43.77-3.59-.21-5.56,42.85-9.17,42.49-25.35-2.52-51.13-8.95-75.66-20.9"/>
    <path class="cls-43" d="M840.07,243.68s3.36,.37,6.33-.96c0,0,25.14-3.75,42.32-32.82,0,0-4.27,10.2-16.3,22.42,0,0-9.41,9.99-31.49,14.54,0,0-.39-1.94-.86-3.18Z"/>
    <path class="cls-4" d="M844.85,88.39s-34.47,27.71-62.12,15.64c0,0-4.54,15.86-20.42,38.44,0,0-.39,11.4,15.16,33.19,0,0-1.65,21.37,17.01,43.35,0,0,15.7,19.75,30.07,21.6,0,0,7.46,4.19,15.8,3.47,0,0,3.25,8.9-3.14,10.1,0,0-.94-5-4.87-5.89,0,0-59.03-3.65-75.89-90.12,0,0-39.48-30.87-11.72-65.24,12.55-15.53,18.08-52.14,62.72-44.32,0,0,45.98-39.81,75.86,7.91,0,0,62.43,.18,47.15,82.05,0,0,16.45,21.46-1.21,46.37-2.04,2.87-4.71,14.17,3.68,27.36,2.26,3.56-10.49-1.13-15.95-7.72,0,0-9.88-11.84-16.88-31.55,0,0,19.96,.85,17.77-20.61,0,0,.47-24.33-8.52-25.96,0,0-9.98-1.44-16.4,12.03,0,0-36.66,4.82-48.12-50.09Z"/>
    <path class="cls-33" d="M765.12,151.98c.18-1.49,12.97-5.44,25.46-6.34,0,0,6.25,2.25,1.25,6.19,0,0-23.44-1.43-24.85,6.42,0,0-2.3-2.6-1.86-6.28Z"/>
    <path class="cls-1" d="M807.59,158.61l-1.74,22.05s-8.85,7.87-25.79,8.78l-13.11-18.78s16.05-12.37,40.64-12.05Z"/>
    <path class="cls-1" d="M807.59,158.61s2.99-5.38,7.34-1.25"/>
    <line class="cls-1" x1="857.64" y1="140.73" x2="902.13" y2="126.09"/>
    <path class="cls-3" d="M838.32,115.29s-17.17,6.63-25.04,10.74c-7.87,4.12-33.81,4.13-33.81,4.13"/>
    <g>
      <circle class="cls-16" cx="898.54" cy="779.85" r="6.34"/>
      <circle class="cls-16" cx="903" cy="802.99" r="6.34"/>
      <circle class="cls-16" cx="893.12" cy="792.68" r="6.34"/>
      <circle class="cls-16" cx="915.6" cy="796.03" r="6.34"/>
      <circle class="cls-16" cx="911.65" cy="783.2" r="6.34"/>
    </g>
    <g>
      <circle class="cls-16" cx="826.5" cy="688.52" r="6.34"/>
      <circle class="cls-16" cx="830.96" cy="711.66" r="6.34"/>
      <circle class="cls-16" cx="821.07" cy="701.36" r="6.34"/>
      <circle class="cls-16" cx="843.56" cy="704.71" r="6.34"/>
      <circle class="cls-16" cx="839.61" cy="691.88" r="6.34"/>
    </g>
    <g>
      <circle class="cls-16" cx="1005.26" cy="715.24" r="6.34"/>
      <circle class="cls-16" cx="1009.72" cy="738.38" r="6.34"/>
      <circle class="cls-16" cx="999.83" cy="728.08" r="6.34"/>
      <circle class="cls-16" cx="1022.32" cy="731.42" r="6.34"/>
      <circle class="cls-16" cx="1018.36" cy="718.6" r="6.34"/>
    </g>
    <g>
      <circle class="cls-16" cx="1039.61" cy="775.68" r="6.34"/>
      <circle class="cls-16" cx="1044.07" cy="798.82" r="6.34"/>
      <circle class="cls-16" cx="1034.18" cy="788.51" r="6.34"/>
      <circle class="cls-16" cx="1056.67" cy="791.86" r="6.34"/>
      <circle class="cls-16" cx="1052.71" cy="779.03" r="6.34"/>
    </g>
    <g>
      <circle class="cls-16" cx="968.36" cy="771.86" r="6.34"/>
      <circle class="cls-16" cx="972.82" cy="795" r="6.34"/>
      <circle class="cls-16" cx="962.93" cy="784.69" r="6.34"/>
      <circle class="cls-16" cx="985.42" cy="788.04" r="6.34"/>
      <circle class="cls-16" cx="981.47" cy="775.22" r="6.34"/>
    </g>
    <g>
      <circle class="cls-16" cx="830.32" cy="770.59" r="6.34"/>
      <circle class="cls-16" cx="834.78" cy="793.73" r="6.34"/>
      <circle class="cls-16" cx="824.89" cy="783.42" r="6.34"/>
      <circle class="cls-16" cx="847.38" cy="786.77" r="6.34"/>
      <circle class="cls-16" cx="843.42" cy="773.95" r="6.34"/>
    </g>
    <g>
      <circle class="cls-16" cx="1094.76" cy="585.89" r="6.34"/>
      <circle class="cls-16" cx="1099.23" cy="609.03" r="6.34"/>
      <circle class="cls-16" cx="1089.34" cy="598.72" r="6.34"/>
      <circle class="cls-16" cx="1111.82" cy="602.07" r="6.34"/>
      <circle class="cls-16" cx="1107.87" cy="589.25" r="6.34"/>
    </g>
    <g>
      <circle class="cls-16" cx="878.64" cy="659.13" r="6.34"/>
      <circle class="cls-16" cx="883.1" cy="682.27" r="6.34"/>
      <circle class="cls-16" cx="873.22" cy="671.96" r="6.34"/>
      <circle class="cls-16" cx="895.7" cy="675.31" r="6.34"/>
      <circle class="cls-16" cx="891.75" cy="662.49" r="6.34"/>
    </g>
    <g>
      <circle class="cls-16" cx="951.77" cy="658.09" r="6.34"/>
      <circle class="cls-16" cx="956.23" cy="681.23" r="6.34"/>
      <circle class="cls-16" cx="946.34" cy="670.92" r="6.34"/>
      <circle class="cls-16" cx="968.83" cy="674.27" r="6.34"/>
      <circle class="cls-16" cx="964.87" cy="661.45" r="6.34"/>
    </g>
    <g>
      <circle class="cls-16" cx="927.5" cy="719.3" r="6.34"/>
      <circle class="cls-16" cx="931.96" cy="742.44" r="6.34"/>
      <circle class="cls-16" cx="922.07" cy="732.13" r="6.34"/>
      <circle class="cls-16" cx="944.56" cy="735.48" r="6.34"/>
      <circle class="cls-16" cx="940.6" cy="722.65" r="6.34"/>
    </g>
    <g>
      <circle class="cls-16" cx="871.33" cy="729.19" r="6.34"/>
      <circle class="cls-16" cx="875.79" cy="752.33" r="6.34"/>
      <circle class="cls-16" cx="865.91" cy="742.02" r="6.34"/>
      <circle class="cls-16" cx="888.39" cy="745.37" r="6.34"/>
      <circle class="cls-16" cx="884.44" cy="732.55" r="6.34"/>
    </g>
    <g>
      <circle class="cls-16" cx="855.92" cy="599.93" r="6.34"/>
      <circle class="cls-16" cx="860.39" cy="623.07" r="6.34"/>
      <circle class="cls-16" cx="850.5" cy="612.76" r="6.34"/>
      <circle class="cls-16" cx="872.98" cy="616.11" r="6.34"/>
      <circle class="cls-16" cx="869.03" cy="603.29" r="6.34"/>
    </g>
    <g>
      <circle class="cls-16" cx="1047.22" cy="608.56" r="6.34"/>
      <circle class="cls-16" cx="1051.68" cy="631.7" r="6.34"/>
      <circle class="cls-16" cx="1041.79" cy="621.4" r="6.34"/>
      <circle class="cls-16" cx="1064.28" cy="624.75" r="6.34"/>
      <circle class="cls-16" cx="1060.32" cy="611.92" r="6.34"/>
    </g>
    <g>
      <circle class="cls-16" cx="1006.25" cy="561.02" r="6.34"/>
      <circle class="cls-16" cx="1010.71" cy="584.16" r="6.34"/>
      <circle class="cls-16" cx="1000.82" cy="573.85" r="6.34"/>
      <circle class="cls-16" cx="1023.31" cy="577.2" r="6.34"/>
      <circle class="cls-16" cx="1019.36" cy="564.37" r="6.34"/>
    </g>
    <g>
      <circle class="cls-16" cx="945.89" cy="558.76" r="6.34"/>
      <circle class="cls-16" cx="950.35" cy="581.9" r="6.34"/>
      <circle class="cls-16" cx="940.46" cy="571.59" r="6.34"/>
      <circle class="cls-16" cx="962.95" cy="574.94" r="6.34"/>
      <circle class="cls-16" cx="958.99" cy="562.11" r="6.34"/>
    </g>
    <g>
      <circle class="cls-16" cx="1066.23" cy="544.19" r="6.34"/>
      <circle class="cls-16" cx="1070.7" cy="567.33" r="6.34"/>
      <circle class="cls-16" cx="1060.81" cy="557.02" r="6.34"/>
      <circle class="cls-16" cx="1083.29" cy="560.37" r="6.34"/>
      <circle class="cls-16" cx="1079.34" cy="547.55" r="6.34"/>
    </g>
    <g>
      <circle class="cls-16" cx="920.64" cy="605.66" r="6.34"/>
      <circle class="cls-16" cx="925.1" cy="628.8" r="6.34"/>
      <circle class="cls-16" cx="915.21" cy="618.5" r="6.34"/>
      <circle class="cls-16" cx="937.7" cy="621.84" r="6.34"/>
      <circle class="cls-16" cx="933.74" cy="609.02" r="6.34"/>
    </g>
    <g>
      <circle class="cls-16" cx="1029.66" cy="659.75" r="6.34"/>
      <circle class="cls-16" cx="1034.13" cy="682.89" r="6.34"/>
      <circle class="cls-16" cx="1024.24" cy="672.58" r="6.34"/>
      <circle class="cls-16" cx="1046.72" cy="675.93" r="6.34"/>
      <circle class="cls-16" cx="1042.77" cy="663.1" r="6.34"/>
    </g>
    <g>
      <circle class="cls-16" cx="987.81" cy="608.34" r="6.34"/>
      <circle class="cls-16" cx="992.27" cy="631.48" r="6.34"/>
      <circle class="cls-16" cx="982.39" cy="621.17" r="6.34"/>
      <circle class="cls-16" cx="1004.87" cy="624.52" r="6.34"/>
      <circle class="cls-16" cx="1000.92" cy="611.7" r="6.34"/>
    </g>
    <g>
      <path class="cls-20" d="M848.68,149.41s-.13-.49-.6-.79c-1.57-1.01-5.01-2.74-9.33-1.53-4.84,1.35-6.23,6.64-6.69,8.52-.08,.32,0,.56,0,.56,0,0,.06,.27,.27,.42,1.02,.68,4.3,2.46,8.9,1.25,2.74-.72,6.16-3.26,7.49-7.62,.09-.3,.01-.63-.04-.81Z"/>
      <circle class="cls-43" cx="838.94" cy="153.05" r="5.19"/>
      <circle class="cls-20" cx="841.81" cy="151.16" r="1.42"/>
      <path class="cls-15" d="M831.76,155.7s2.66-13.19,16.49-7.17"/>
    </g>
    <g>
      <path class="cls-20" d="M795.5,169.1s-.05-.47-.45-.82c-1.31-1.16-4.27-3.26-8.46-2.76-4.69,.57-6.74,5.28-7.44,6.96-.12,.29-.08,.53-.08,.53,0,0,.02,.26,.2,.43,.85,.78,3.64,2.9,8.09,2.44,2.65-.28,6.19-2.15,8.06-6.01,.13-.27,.1-.59,.08-.76Z"/>
      <circle class="cls-43" cx="785.92" cy="171.08" r="4.87"/>
      <circle class="cls-20" cx="789.03" cy="169.79" r="1.36"/>
      <path class="cls-15" d="M779.1,172.65s3.92-12.51,16.13-4.2"/>
    </g>
    <path class="cls-30" d="M851.42,493.54c-12.61,12.48-56.5,41.49-56.5,41.49-37.51,17.48-46.7,22.52-49.39,19.13-2.69-3.39,12.33-14.16,12.33-14.16,0,0-20.78,18.76-29.36,11.82-8.58-6.94,32.51-28,32.51-28,0,0-39.79,23.6-45.59,18.34-5.81-5.27,34.41-30.37,34.41-30.37-35.8,22.48-37.99,19.84-41.52,15.5s12.33-14.16,12.33-14.16c10.32-13.17,35.37-20.98,35.37-20.98l-9.73-1.9c-13.41-6.77,2.9-7.95,14.11-13.97s41.47-2.56,41.47-2.56c0,0,10.08-10.24,15.44-20.48,0,0-3.42-12.81-5.37-21.1,0,0,19.03,3.55,34.63,.62,0,0,21.87,43.97,4.87,60.78Z"/>
    <path class="cls-30" d="M953.08,417.84c-1.87,3.27-2.26,17.77-2.26,17.77-49.11,9.82-105.24,42.1-105.24,42.1l-4.14,1.18-2.41,.69c-6.55,1.87-17.38,4.47-17.38,4.47,0,0-29.91-5.8-41.55-.66-11.64,5.14-28,5.05-15.15,12.84l9.55,2.65s-25.58,5.84-36.88,18.18c0,0-16.58,8.57-13.39,13.16s5.16,7.4,42.6-12.24c0,0-42.04,21.92-36.66,27.62,5.38,5.7,46.88-14.75,46.88-14.75,0,0-42.59,17.81-34.58,25.4,8.02,7.59,30.19-9.51,30.19-9.51,0,0-15.81,9.58-13.39,13.16,2.42,3.58,11.97-.73,50.72-15.25,0,0,33.77-13.08,44.08-27.51,0,0,97.69-8.08,132.77-33.34,0,0,25.73-16.37,32.74-63.61"/>
    <path class="cls-14" d="M857.22,471.68s-12.1,5.59-16.23,6.77l-2.41,.69c-6.55,1.87-17.38,4.47-17.38,4.47,0,0-29.91-5.8-41.55-.66-11.64,5.14-28,5.05-15.15,12.84l9.55,2.65s-25.58,5.84-36.88,18.18c0,0-16.58,8.57-13.39,13.16s5.16,7.4,42.6-12.24c0,0-42.04,21.92-36.66,27.62,5.38,5.7,46.88-14.75,46.88-14.75,0,0-42.59,17.81-34.58,25.4"/>
    <polygon class="cls-20" points="722.67 404.46 726.41 403.06 752.23 471.99 722.67 404.46"/>
    <polygon class="cls-20" points="685.16 417.44 688.65 415.52 724.02 480.07 685.16 417.44"/>
    <polygon class="cls-20" points="650.26 443.53 653.23 440.86 702.41 495.62 650.26 443.53"/>
    <polygon class="cls-20" points="621.88 496.58 623.36 492.88 691.67 520.31 621.88 496.58"/>
    <polygon class="cls-20" points="621.73 556.22 621.42 552.25 694.82 546.73 621.73 556.22"/>
    <polygon class="cls-20" points="657.81 615.63 655.43 612.44 714.56 568.6 657.81 615.63"/>
    <path class="cls-7" d="M945.67,333.64s-7.95,63.15,0,85.13c0,0,54.26,12.16,81.39,1.4,0,0,12.63-37.42,10.29-50.52"/>
    <circle class="cls-5" cx="892.03" cy="325.85" r="8.35"/>
    <circle class="cls-5" cx="904.41" cy="387.09" r="8.35"/>
    <path class="cls-8" d="M908,161.85s10.26,9,4.42,17.85c-5.84,8.85-6.35-8.66-6.35-8.66"/>
  </g>
</svg>