<?xml version="1.0" encoding="UTF-8"?>
<svg xmlns="http://www.w3.org/2000/svg" xmlns:xlink="http://www.w3.org/1999/xlink" viewBox="0 0 1929.84 999.94">
  <defs>
    <style>
      .cls-1, .cls-2, .cls-3, .cls-4, .cls-5, .cls-6, .cls-7, .cls-8, .cls-9, .cls-10, .cls-11, .cls-12, .cls-13, .cls-14, .cls-15, .cls-16, .cls-17, .cls-18, .cls-19, .cls-20, .cls-21, .cls-22, .cls-23 {
        fill: none;
      }

      .cls-2 {
        stroke-width: 1.5px;
      }

      .cls-2, .cls-3, .cls-4, .cls-5, .cls-24, .cls-25, .cls-6, .cls-7, .cls-26, .cls-8, .cls-27, .cls-28, .cls-29, .cls-30, .cls-9, .cls-10, .cls-11, .cls-12, .cls-13, .cls-14, .cls-15, .cls-16, .cls-17, .cls-18, .cls-19, .cls-20, .cls-31, .cls-32, .cls-21, .cls-22, .cls-23 {
        stroke-miterlimit: 10;
      }

      .cls-2, .cls-9 {
        stroke: #16a9de;
      }

      .cls-3 {
        stroke: #d1d3d4;
      }

      .cls-3, .cls-4, .cls-31, .cls-32 {
        stroke-width: 6px;
      }

      .cls-4, .cls-8, .cls-16, .cls-31 {
        stroke: #fff;
      }

      .cls-33 {
        clip-path: url(#clippath);
      }

      .cls-5 {
        stroke-width: .8px;
      }

      .cls-5, .cls-6, .cls-7, .cls-30, .cls-13, .cls-21 {
        stroke: #231f20;
      }

      .cls-34 {
        fill: #006087;
      }

      .cls-35 {
        fill: #00628a;
      }

      .cls-36, .cls-27 {
        fill: #0098bd;
      }

      .cls-37 {
        fill: #f15953;
      }

      .cls-38 {
        fill: #f05380;
      }

      .cls-39, .cls-26 {
        fill: #fff;
      }

      .cls-40 {
        fill: #f1f2f2;
      }

      .cls-41 {
        fill: #f08681;
      }

      .cls-42 {
        fill: #ffcb05;
      }

      .cls-43 {
        fill: #fbb040;
      }

      .cls-44 {
        fill: #f16225;
      }

      .cls-45 {
        fill: #803435;
      }

      .cls-46 {
        fill: #9a6c3f;
      }

      .cls-47 {
        fill: #8b5e3c;
      }

      .cls-48 {
        fill: #8b6340;
      }

      .cls-49 {
        fill: #8fb359;
      }

      .cls-50 {
        fill: #cf9f73;
      }

      .cls-51, .cls-29 {
        fill: #bd9154;
      }

      .cls-52 {
        fill: #be9e7d;
      }

      .cls-53 {
        fill: #be8c8c;
      }

      .cls-54 {
        fill: #bde4e0;
      }

      .cls-55 {
        fill: #bf6b6b;
      }

      .cls-56 {
        fill: #d1d3d4;
      }

      .cls-57 {
        fill: #ac8263;
      }

      .cls-58 {
        fill: #e2ae6d;
      }

      .cls-59, .cls-28 {
        fill: #ca544c;
      }

      .cls-60 {
        fill: #231f20;
      }

      .cls-61 {
        fill: #1fa8df;
      }

      .cls-62 {
        fill: #0f3e5d;
      }

      .cls-63, .cls-30 {
        fill: #9c2024;
      }

      .cls-64 {
        fill: #808285;
      }

      .cls-65 {
        fill: #3c2415;
      }

      .cls-66 {
        fill: #59bede;
      }

      .cls-67 {
        fill: #3aa362;
      }

      .cls-68 {
        fill: #749147;
      }

      .cls-69, .cls-25 {
        fill: #754c29;
      }

      .cls-70 {
        fill: #26130f;
      }

      .cls-24, .cls-9, .cls-10, .cls-11, .cls-12 {
        stroke-width: 2px;
      }

      .cls-24, .cls-32 {
        fill: #a97c50;
        stroke: #a97c50;
      }

      .cls-25 {
        stroke-width: .2px;
      }

      .cls-25, .cls-19, .cls-23 {
        stroke: #754c29;
      }

      .cls-71 {
        clip-path: url(#clippath-1);
      }

      .cls-6 {
        stroke-width: .7px;
      }

      .cls-7 {
        stroke-linecap: round;
      }

      .cls-7, .cls-21, .cls-22, .cls-23 {
        stroke-width: .5px;
      }

      .cls-26 {
        stroke: #9a6c3f;
        stroke-width: 8px;
      }

      .cls-8 {
        stroke-dasharray: 0 0 3 3;
      }

      .cls-27 {
        stroke: #196bac;
      }

      .cls-28, .cls-20 {
        stroke: #be1e2d;
      }

      .cls-29, .cls-22 {
        stroke: #603913;
      }

      .cls-10 {
        stroke: #1c75bc;
      }

      .cls-11 {
        stroke: #8b645f;
      }

      .cls-12 {
        stroke: #8fb359;
      }

      .cls-14 {
        stroke: #939598;
      }

      .cls-15 {
        stroke: #fbb040;
      }

      .cls-17 {
        stroke: #2e3192;
      }

      .cls-18 {
        stroke: #749147;
      }

      .cls-72 {
        opacity: .8;
      }

      .cls-31 {
        fill: #c8eaf6;
      }
    </style>
    <clipPath id="clippath">
      <rect class="cls-1" x="955.06" y="417.69" width="493.89" height="475.11"/>
    </clipPath>
    <clipPath id="clippath-1">
      <rect class="cls-1" x="115.16" y="614.28" width="605.1" height="351.73"/>
    </clipPath>
  </defs>
  <g id="fondo">
    <rect class="cls-54" x="115.88" width="1333.22" height="885.41"/>
    <rect class="cls-58" x="115.88" y="869.57" width="1333.06" height="130.37"/>
    <g>
      <g>
        <path class="cls-49" d="M786.27,414.02s-15.41,.88-26.46-3.78c0,0-13.96-2.91-7.85,14.83s36.63,6.11,38.09-.29"/>
        <path class="cls-49" d="M794.21,432.92s-5.59,3.96-19.33,2.79c-13.74-1.16-14.44,10.48-14.44,10.48,0,0,.47,12.11,20.26,11.41,0,0,11.64-.7,18.4-14.2"/>
        <path class="cls-49" d="M802.12,450.15s-7.22,12.34-19.09,12.11c-11.88-.23-6.75,12.11-6.75,12.11,0,0,3.73,9.08,15.37,3.26,11.64-5.82,13.51-19.09,13.51-19.09"/>
        <path class="cls-49" d="M788.41,413s12.2-11.3,17.45-21.39c0,0,6.39-11.91,14.62,4.94,8.22,16.86-21.58,30.22-27.14,26.73"/>
        <path class="cls-49" d="M797.59,432.18s6.75-1.15,15.64-11.69c8.89-10.54,17.62-2.8,17.62-2.8,0,0,8.23,8.89-6.26,22.39,0,0-8.73,7.74-23.05,2.97"/>
        <path class="cls-49" d="M802.35,451.39s13.83,3.62,22.06-4.94c8.23-8.56,13.34,3.79,13.34,3.79,0,0,3.79,9.06-8.56,13.17-12.35,4.12-23.05-3.95-23.05-3.95"/>
        <path class="cls-49" d="M782.92,410.53c-30.04-11.18-20.03-32.37-20.03-32.37,23.75,.93,23.29,30.27,23.29,30.27"/>
        <path class="cls-12" d="M813.09,494.66s-12.29-70.7-36.45-94.41"/>
      </g>
      <g>
        <path class="cls-68" d="M843.09,435.1s11.57,.66,19.87-2.84c0,0,10.48-2.18,5.9,11.14-4.59,13.32-27.51,4.59-28.61-.22"/>
        <path class="cls-68" d="M837.13,449.29s4.2,2.97,14.52,2.1c10.32-.87,10.84,7.87,10.84,7.87,0,0-.35,9.09-15.22,8.57,0,0-8.74-.52-13.82-10.67"/>
        <path class="cls-68" d="M831.18,462.24s5.42,9.27,14.34,9.09c8.92-.17,5.07,9.09,5.07,9.09,0,0-2.8,6.82-11.54,2.45-8.74-4.37-10.14-14.34-10.14-14.34"/>
        <path class="cls-68" d="M841.48,434.34s-9.16-8.49-13.11-16.07c0,0-4.8-8.95-10.98,3.71-6.18,12.66,16.21,22.7,20.38,20.07"/>
        <path class="cls-68" d="M834.59,448.74s-5.07-.87-11.75-8.78c-6.68-7.91-13.23-2.1-13.23-2.1,0,0-6.18,6.68,4.7,16.82,0,0,6.55,5.81,17.31,2.23"/>
        <path class="cls-68" d="M831.01,463.16s-10.39,2.72-16.57-3.71-10.02,2.84-10.02,2.84c0,0-2.84,6.8,6.43,9.89,9.27,3.09,17.31-2.97,17.31-2.97"/>
        <path class="cls-68" d="M845.61,432.48c22.56-8.39,15.04-24.31,15.04-24.31-17.84,.7-17.49,22.74-17.49,22.74"/>
        <path class="cls-18" d="M822.95,495.66s9.23-53.1,27.37-70.9"/>
      </g>
      <path class="cls-41" d="M856.52,547.65v-59.84s-77.76,0-77.76,0v59.52s37.08,22.54,77.76,.32Z"/>
      <rect class="cls-41" x="791.96" y="553.24" width="50.47" height="9.7" transform="translate(1634.39 1116.17) rotate(-180)"/>
      <polyline class="cls-11" points="855.42 515.14 842.85 513.14 830.28 515.14 817.7 513.14 805.13 515.14 792.55 513.14 779.97 515.14"/>
      <polyline class="cls-11" points="855.42 525.65 842.85 523.65 830.28 525.65 817.7 523.65 805.13 525.65 792.55 523.65 779.97 525.65"/>
    </g>
    <g>
      <rect class="cls-51" x="422.26" y="581.11" width="522.94" height="271.38" transform="translate(1367.47 1433.61) rotate(-180)"/>
      <rect class="cls-46" x="405.62" y="563.81" width="539.7" height="18.43" transform="translate(1350.95 1146.06) rotate(-180)"/>
      <polygon class="cls-46" points="945.3 869.89 412.02 869.89 422.36 852.42 945.3 851.46 945.3 869.89"/>
      <rect class="cls-29" x="691.87" y="597.35" width="239.71" height="46.36" transform="translate(1623.44 1241.06) rotate(-180)"/>
      <path class="cls-19" d="M799.22,620.82c0,6.82,5.53,12.35,12.35,12.35s12.35-5.53,12.35-12.35"/>
      <circle class="cls-25" cx="823.79" cy="620.87" r="1.9"/>
      <circle class="cls-25" cx="799.2" cy="620.87" r="1.9"/>
      <rect class="cls-29" x="437.54" y="597.35" width="239.71" height="46.36" transform="translate(1114.78 1241.06) rotate(-180)"/>
      <path class="cls-19" d="M544.89,620.82c0,6.82,5.53,12.35,12.35,12.35,6.82,0,12.35-5.53,12.35-12.35"/>
      <circle class="cls-25" cx="569.46" cy="620.87" r="1.9"/>
      <circle class="cls-25" cx="544.87" cy="620.87" r="1.9"/>
      <rect class="cls-29" x="691.87" y="659.47" width="239.71" height="46.36" transform="translate(1623.44 1365.29) rotate(-180)"/>
      <path class="cls-19" d="M799.22,682.94c0,6.82,5.53,12.35,12.35,12.35,6.82,0,12.35-5.53,12.35-12.35"/>
      <circle class="cls-25" cx="823.79" cy="682.99" r="1.9"/>
      <circle class="cls-25" cx="799.2" cy="682.99" r="1.9"/>
      <rect class="cls-29" x="437.54" y="659.47" width="239.71" height="46.36" transform="translate(1114.78 1365.29) rotate(-180)"/>
      <path class="cls-19" d="M544.89,682.94c0,6.82,5.53,12.35,12.35,12.35,6.82,0,12.35-5.53,12.35-12.35"/>
      <circle class="cls-25" cx="569.46" cy="682.99" r="1.9"/>
      <circle class="cls-25" cx="544.87" cy="682.99" r="1.9"/>
      <rect class="cls-29" x="691.87" y="722.2" width="239.71" height="46.36" transform="translate(1623.44 1490.76) rotate(-180)"/>
      <path class="cls-19" d="M799.22,745.67c0,6.82,5.53,12.35,12.35,12.35s12.35-5.53,12.35-12.35"/>
      <circle class="cls-25" cx="823.79" cy="745.73" r="1.9"/>
      <circle class="cls-25" cx="799.2" cy="745.73" r="1.9"/>
      <rect class="cls-29" x="437.54" y="722.2" width="239.71" height="46.36" transform="translate(1114.78 1490.76) rotate(-180)"/>
      <path class="cls-19" d="M544.89,745.67c0,6.82,5.53,12.35,12.35,12.35s12.35-5.53,12.35-12.35"/>
      <circle class="cls-25" cx="569.46" cy="745.73" r="1.9"/>
      <circle class="cls-25" cx="544.87" cy="745.73" r="1.9"/>
      <rect class="cls-29" x="691.87" y="784.93" width="239.71" height="46.36" transform="translate(1623.44 1616.23) rotate(-180)"/>
      <path class="cls-19" d="M799.22,808.4c0,6.82,5.53,12.35,12.35,12.35s12.35-5.53,12.35-12.35"/>
      <circle class="cls-25" cx="823.79" cy="808.46" r="1.9"/>
      <circle class="cls-25" cx="799.2" cy="808.46" r="1.9"/>
      <rect class="cls-29" x="437.54" y="784.93" width="239.71" height="46.36" transform="translate(1114.78 1616.23) rotate(-180)"/>
      <path class="cls-19" d="M544.89,808.4c0,6.82,5.53,12.35,12.35,12.35s12.35-5.53,12.35-12.35"/>
      <circle class="cls-25" cx="569.46" cy="808.46" r="1.9"/>
      <circle class="cls-25" cx="544.87" cy="808.46" r="1.9"/>
    </g>
    <polygon class="cls-40" points="697.96 629.16 496.71 563.08 899.22 563.08 697.96 629.16"/>
    <polyline class="cls-2" points="899.37 566.12 894.15 566.78 889.56 569.34 884.34 570 879.75 572.56 874.54 573.22 869.95 575.78 864.73 576.44 860.13 579 854.91 579.66 850.32 582.22 845.1 582.88 840.51 585.44 835.29 586.1 830.7 588.66 825.48 589.33 820.88 591.89 815.66 592.55 811.07 595.11 805.84 595.77 801.25 598.33 796.03 598.99 791.43 601.56 786.21 602.22 781.61 604.78 776.39 605.44 771.79 608 766.57 608.67 761.97 611.23 756.75 611.89 752.16 614.45 746.93 615.11 742.34 617.67 737.12 618.34 732.52 620.9 727.29 621.56 722.69 624.12 717.47 624.79 712.87 627.35 707.64 628.01 703.04 630.58 697.96 631.22 692.9 630.58 688.3 628.02 683.09 627.36 678.5 624.8 673.28 624.14 668.69 621.58 663.47 620.92 658.88 618.36 653.66 617.7 649.07 615.14 643.85 614.48 639.25 611.92 634.03 611.26 629.44 608.69 624.22 608.03 619.62 605.47 614.41 604.81 609.81 602.25 604.59 601.59 599.99 599.03 594.77 598.36 590.18 595.8 584.95 595.14 580.36 592.58 575.13 591.92 570.54 589.36 565.32 588.69 560.72 586.13 555.49 585.47 550.9 582.91 545.68 582.25 541.08 579.68 535.86 579.02 531.26 576.46 526.04 575.8 521.44 573.23 516.21 572.57 511.61 570.01 506.39 569.35 501.78 566.78 496.55 566.12"/>
    <polyline class="cls-9" points="899.22 563.08 697.96 629.16 496.71 563.08"/>
    <rect class="cls-1" x="747.36" y="562.62" width="197.94" height="307.28"/>
    <g>
      <rect class="cls-26" x="933.7" y="191.89" width="134.46" height="101.42"/>
      <rect class="cls-35" x="945.47" y="203.1" width="109.82" height="78.44"/>
    </g>
    <g>
      <polyline class="cls-57" points="324.37 543.34 338.11 720.38 329.37 902.11 353.09 902.11 361.83 817.69 471.7 817.69 479.2 902.11 502.92 902.11 489.18 702.79 368.07 702.79"/>
      <polygon class="cls-54" points="365.02 797.42 368.98 750.18 461.94 750.18 466.89 798.2 365.02 797.42"/>
      <polygon class="cls-57" points="324.37 543.34 502.13 543.34 489.18 713.15 337.32 713.15 324.37 543.34"/>
      <rect class="cls-47" x="335.95" y="708.25" width="154.02" height="20.25"/>
      <polygon class="cls-51" points="466.89 798.2 420.5 798.2 420.5 750.27 461.94 750.27 466.89 798.2"/>
    </g>
    <g>
      <rect class="cls-31" x="194.52" y="59.66" width="390.42" height="343.5"/>
      <line class="cls-32" x1="149.54" y1="47.45" x2="629.9" y2="47.45"/>
      <circle class="cls-24" cx="145.95" cy="46.88" r="6.32"/>
      <circle class="cls-24" cx="636.39" cy="47.73" r="6.32"/>
      <path class="cls-59" d="M163.76,37.64l-.73,396.5s15.42,13.22,39.65,5.14v-16.89s22.03,5.87,34.51,0v13.95s22.76,8.81,30.1,.73l-15.42-259.19,8.08-140.24-39.65,.73-8.81,2.2-14.69-2.94h-33.04Z"/>
      <path class="cls-59" d="M622.88,37.64l.73,396.5s-15.42,13.22-39.65,5.14v-16.89s-22.03,5.87-34.51,0v13.95s-22.76,8.81-30.1,.73l15.42-259.19-8.08-140.24,39.65,.73,8.81,2.2,14.69-2.94h33.04Z"/>
      <line class="cls-20" x1="202.67" y1="422.39" x2="195.11" y2="266.39"/>
      <line class="cls-20" x1="237.18" y1="422.39" x2="233.66" y2="275.79"/>
      <line class="cls-20" x1="196.8" y1="37.64" x2="194.13" y2="192.3"/>
      <line class="cls-20" x1="211.48" y1="40.57" x2="213.56" y2="271.54"/>
      <line class="cls-20" x1="549.45" y1="422.39" x2="549.93" y2="282.75"/>
      <line class="cls-20" x1="583.96" y1="422.39" x2="586.56" y2="240.89"/>
      <line class="cls-20" x1="566.34" y1="38.37" x2="566.38" y2="170.63"/>
      <line class="cls-20" x1="589.84" y1="37.64" x2="590.3" y2="202.77"/>
      <line class="cls-4" x1="390.1" y1="58.04" x2="390.1" y2="402.39"/>
      <line class="cls-3" x1="395.33" y1="62.54" x2="395.33" y2="399.37"/>
    </g>
    <g class="cls-33">
      <g>
        <rect class="cls-34" x="1069.06" y="737.8" width="754.73" height="23.09"/>
        <path class="cls-36" d="M1091.93,428.55h321.6c19.72,0,35.74,16.01,35.74,35.74v194.29c0,.21-.17,.38-.38,.38h-356.95c-19.72,0-35.74-16.01-35.74-35.74v-158.93c0-19.72,16.01-35.74,35.74-35.74Z"/>
        <rect class="cls-36" x="1084.69" y="754.11" width="726.96" height="73.05" rx="15.96" ry="15.96"/>
        <path class="cls-69" d="M1036.74,869.37h-21.57c-7.41,0-13.99-4.74-16.33-11.77l-8.87-26.61h75.48l-14.93,29.87c-2.61,5.22-7.94,8.51-13.77,8.51Z"/>
        <path class="cls-36" d="M1484.86,428.55h357.25s.08,.03,.08,.08v194.59c0,19.72-16.01,35.74-35.74,35.74h-321.6c-19.72,0-35.74-16.01-35.74-35.74v-158.93c0-19.72,16.01-35.74,35.74-35.74Z" transform="translate(3291.31 1087.51) rotate(-180)"/>
        <path class="cls-69" d="M1861.64,869.37h21.57c7.41,0,13.99-4.74,16.33-11.77l8.87-26.61h-75.48s14.93,29.87,14.93,29.87c2.61,5.22,7.94,8.51,13.77,8.51Z"/>
        <rect class="cls-27" x="1805.7" y="560.32" width="123.64" height="270.76" rx="35.2" ry="35.2"/>
        <rect class="cls-27" x="967.55" y="560.32" width="123.64" height="270.76" rx="35.2" ry="35.2" transform="translate(2058.73 1391.4) rotate(-180)"/>
        <rect class="cls-27" x="1084.69" y="647.57" width="364.56" height="107.78" rx="15.96" ry="15.96"/>
        <rect class="cls-27" x="1449.12" y="647.57" width="364.56" height="107.78" rx="15.96" ry="15.96" transform="translate(3262.8 1402.92) rotate(-180)"/>
        <line class="cls-27" x1="1449.12" y1="464.29" x2="1449.12" y2="663.53"/>
      </g>
    </g>
    <path class="cls-37" d="M732.82,918.75s59.84-53.3,137.45-37.4c77.61,15.9,150.54,0,150.54,0,0,0-63.58,21.51-70.13,49.56,0,0-30.86-39.27-62.65-30.86-31.79,8.42-75.74,74.8-111.27,76.67,0,0-10.29-52.36-43.95-57.97Z"/>
    <path class="cls-67" d="M1254.5,991.39s12.26-63.76,84.6-67.43,106.67-12.26,106.67-12.26c0,0-41.69,58.85-34.33,82.15,0,0-102.99-39.23-156.94-2.45Z"/>
    <path class="cls-42" d="M1017.56,558.78s-42.16-9.48-46.83,35.72c-4.67,45.2,16.18,94.24,16.18,94.24,0,0-2.45,15.94-28.2,11.03,0,0-12.26,13.49-29.43-4.9,0,0,1.23-145.9,88.28-136.1Z"/>
    <g>
      <path class="cls-64" d="M835.05,974.14s1.03,1.67,4.61,5.89l55.9-27.03s15.54-10.02,11.13-18.8"/>
      <path class="cls-56" d="M827.05,957.92s.01,9.64,8,16.22l54.42-23.82s15.39-6.25,17.23-16.11c1.83-9.86-46.97,2.24-46.97,2.24,0,0-7.49,23.91-32.67,21.47Z"/>
      <polyline class="cls-16" points="878.72 933.11 870.93 944.2 863.65 935.92 854.97 948.23"/>
      <polyline class="cls-16" points="854.82 939.4 865.84 946.21 869.68 935.4 881.94 942.95"/>
    </g>
  </g>
  <g id="Layer_1" data-name="Layer 1">
    <g>
      <path class="cls-62" d="M440.48,779.33c-5.46-15.6-4.95-39.93-4.95-39.93l-63.18-14.82-17.16-1.95c-13.65-4.68-18.33-19.89-18.33-19.89l173.94-.39c9.36,3.9,7.41,23.01,7.41,23.01l-4.19,58.96s-14.39,5.51-32.96-.42,0,0,0,0c0,0-26.36,9.2-40.57-4.57"/>
      <path class="cls-13" d="M477.65,783.86l9.36-65.52s.39-16.77-9.75-16.77"/>
      <g>
        <path class="cls-52" d="M477.63,839.42s-5.1,9.66-2.95,14.22c0,0,9.99,6.33,16.7-.65,0,0-9.09-4.2-13.75-13.58Z"/>
        <path class="cls-52" d="M480.05,833.52s5.1,14.34,14.33,16.68c0,0,3.4-7.59,7.94-12.12,0,0-3.26-14.23,10.16-53.33,0,0-9.53,4.18-31.43-.86,0,0-4.49,11.51-1.81,24.39,2.68,12.88,.81,25.23,.81,25.23Z"/>
        <path class="cls-38" d="M474.68,853.65s-3.49,6.98-2.15,9.66c0,0,6.98,2.68,16.37,.27,0,0,5.1-1.34,10.47,2.95,5.37,4.29,26.3,6.44,33.01,.27,6.71-6.17-4.83-12.61-4.83-12.61,0,0-16.1-4.56-18.79-11.81s-6.44-4.29-6.44-4.29c0,0-7.51,5.64-8.59,11,0,0-8.59-2.42-13.69-15.57l-2.42,5.9s5.1,10.73,12.88,13.15c0,0-2.95,6.44-15.83,1.07Z"/>
        <circle class="cls-60" cx="492.83" cy="851.84" r="3.49"/>
        <circle class="cls-60" cx="501.81" cy="861.75" r="2.31"/>
        <circle class="cls-60" cx="509.41" cy="864.75" r="2.31"/>
        <circle class="cls-60" cx="518.07" cy="865.96" r="2.31"/>
        <circle class="cls-60" cx="525.42" cy="865.06" r="2.31"/>
        <circle class="cls-60" cx="531.7" cy="862.71" r="2.31"/>
        <path class="cls-7" d="M502.86,856.6s17.18,7.51,26.03,.54"/>
      </g>
      <g>
        <path class="cls-52" d="M446.45,844.43s-5.4,10.23-3.13,15.06c0,0,10.58,6.7,17.69-.69,0,0-9.63-4.44-14.56-14.38Z"/>
        <path class="cls-52" d="M449.01,838.17s5.4,15.19,15.18,17.67c0,0,3.6-8.04,8.41-12.84,0,0-3.69-32.5,5.02-59.39,0,0-16.03,9.66-37.14-4.29,0,0,.61,18.39,3.46,32.04,2.84,13.64,5.08,26.81,5.08,26.81Z"/>
        <path class="cls-38" d="M443.33,859.49s-3.7,7.39-2.27,10.23c0,0,7.39,2.84,17.34,.28,0,0,5.4-1.42,11.09,3.13,5.68,4.55,27.86,6.82,34.96,.28,7.11-6.54-5.12-13.36-5.12-13.36,0,0-17.05-4.83-19.9-12.51-2.84-7.67-6.82-4.55-6.82-4.55,0,0-7.96,5.97-9.1,11.65,0,0-9.1-2.56-14.5-16.49l-2.56,6.25s5.4,11.37,13.64,13.93c0,0-3.13,6.82-16.77,1.14Z"/>
        <circle class="cls-60" cx="462.55" cy="857.58" r="3.7"/>
        <circle class="cls-60" cx="472.06" cy="868.08" r="2.45"/>
        <circle class="cls-60" cx="480.11" cy="871.25" r="2.45"/>
        <circle class="cls-60" cx="489.29" cy="872.53" r="2.45"/>
        <circle class="cls-60" cx="497.06" cy="871.58" r="2.45"/>
        <circle class="cls-60" cx="503.72" cy="869.08" r="2.45"/>
        <path class="cls-7" d="M473.17,862.62s18.19,7.96,27.57,.57"/>
      </g>
    </g>
    <g class="cls-71">
      <g>
        <polygon class="cls-48" points="18.74 955 20.09 674.67 687.24 674.67 687.24 956.35 669.04 956.35 653.87 727.23 52.56 727.23 38.81 955 18.74 955"/>
        <g>
          <path class="cls-16" d="M1.49,705.2s-1.31,5.4-.12,8.67-.89,10.1-.89,10.1"/>
          <path class="cls-16" d="M5.28,705.75s-.48,10.05,.72,17.71"/>
          <path class="cls-16" d="M10.78,706.23s1.44,3.35-.48,7.18c-1.91,3.83-.48,10.77-.48,10.77"/>
          <path class="cls-16" d="M13.42,722.74s-1.91-10.29,.24-16.27"/>
          <line class="cls-16" x1="15.81" y1="706.71" x2="15.57" y2="724.17"/>
          <path class="cls-16" d="M56.29,707.35s-1.31,5.4-.12,8.67-.89,10.1-.89,10.1"/>
          <path class="cls-16" d="M60.07,707.9s-.48,10.05,.72,17.71"/>
          <path class="cls-16" d="M65.58,708.38s1.44,3.35-.48,7.18c-1.91,3.83-.48,10.77-.48,10.77"/>
          <path class="cls-16" d="M68.21,724.89s-1.91-10.29,.24-16.27"/>
          <line class="cls-16" x1="70.6" y1="708.86" x2="70.36" y2="726.33"/>
          <path class="cls-16" d="M74.71,707.12s-1.31,5.4-.12,8.67-.89,10.1-.89,10.1"/>
          <path class="cls-16" d="M78.5,707.66s-.48,10.05,.72,17.71"/>
          <path class="cls-16" d="M84,708.14s1.44,3.35-.48,7.18-.48,10.77-.48,10.77"/>
          <path class="cls-16" d="M86.63,724.65s-1.91-10.29,.24-16.27"/>
          <line class="cls-16" x1="89.03" y1="708.62" x2="88.79" y2="726.09"/>
          <path class="cls-16" d="M93.37,706.16s-1.31,5.4-.12,8.67-.89,10.1-.89,10.1"/>
          <path class="cls-16" d="M97.16,706.71s-.48,10.05,.72,17.71"/>
          <path class="cls-16" d="M102.67,707.19s1.44,3.35-.48,7.18c-1.91,3.83-.48,10.77-.48,10.77"/>
          <path class="cls-16" d="M105.3,723.7s-1.91-10.29,.24-16.27"/>
          <line class="cls-16" x1="107.69" y1="707.66" x2="107.45" y2="725.13"/>
          <path class="cls-16" d="M111.08,704.72s-1.31,5.4-.12,8.67c1.19,3.27-.89,10.1-.89,10.1"/>
          <path class="cls-16" d="M114.87,705.27s-.48,10.05,.72,17.71"/>
          <path class="cls-16" d="M120.37,705.75s1.44,3.35-.48,7.18-.48,10.77-.48,10.77"/>
          <path class="cls-16" d="M123,722.26s-1.91-10.29,.24-16.27"/>
          <line class="cls-16" x1="125.4" y1="706.23" x2="125.16" y2="723.7"/>
          <path class="cls-16" d="M128.79,703.05s-1.31,5.4-.12,8.67-.89,10.1-.89,10.1"/>
          <path class="cls-16" d="M132.57,703.6s-.48,10.05,.72,17.71"/>
          <path class="cls-16" d="M138.08,704.08s1.44,3.35-.48,7.18c-1.91,3.83-.48,10.77-.48,10.77"/>
          <path class="cls-16" d="M140.71,720.59s-1.91-10.29,.24-16.27"/>
          <line class="cls-16" x1="143.1" y1="704.55" x2="142.86" y2="722.02"/>
          <path class="cls-16" d="M146.73,702.09s-1.31,5.4-.12,8.67-.89,10.1-.89,10.1"/>
          <path class="cls-16" d="M150.52,702.64s-.48,10.05,.72,17.71"/>
          <path class="cls-16" d="M156.02,703.12s1.44,3.35-.48,7.18-.48,10.77-.48,10.77"/>
          <path class="cls-16" d="M158.66,719.63s-1.91-10.29,.24-16.27"/>
          <line class="cls-16" x1="161.05" y1="703.6" x2="160.81" y2="721.06"/>
          <path class="cls-16" d="M164.2,702.33s-1.31,5.4-.12,8.67-.89,10.1-.89,10.1"/>
          <path class="cls-16" d="M167.99,702.88s-.48,10.05,.72,17.71"/>
          <path class="cls-16" d="M173.49,703.36s1.44,3.35-.48,7.18-.48,10.77-.48,10.77"/>
          <path class="cls-16" d="M176.12,719.87s-1.91-10.29,.24-16.27"/>
          <line class="cls-16" x1="178.52" y1="703.84" x2="178.28" y2="721.3"/>
          <path class="cls-16" d="M182.15,702.33s-1.31,5.4-.12,8.67-.89,10.1-.89,10.1"/>
          <path class="cls-16" d="M185.93,702.88s-.48,10.05,.72,17.71"/>
          <path class="cls-16" d="M191.44,703.36s1.44,3.35-.48,7.18-.48,10.77-.48,10.77"/>
          <path class="cls-16" d="M194.07,719.87s-1.91-10.29,.24-16.27"/>
          <line class="cls-16" x1="196.46" y1="703.84" x2="196.22" y2="721.3"/>
          <path class="cls-16" d="M200.09,703.53s-1.31,5.4-.12,8.67-.89,10.1-.89,10.1"/>
          <path class="cls-16" d="M203.88,704.08s-.48,10.05,.72,17.71"/>
          <path class="cls-16" d="M209.38,704.55s1.44,3.35-.48,7.18-.48,10.77-.48,10.77"/>
          <path class="cls-16" d="M212.01,721.06s-1.91-10.29,.24-16.27"/>
          <line class="cls-16" x1="214.41" y1="705.03" x2="214.17" y2="722.5"/>
          <path class="cls-16" d="M218.04,705.2s-1.31,5.4-.12,8.67-.89,10.1-.89,10.1"/>
          <path class="cls-16" d="M221.82,705.75s-.48,10.05,.72,17.71"/>
          <path class="cls-16" d="M227.33,706.23s1.44,3.35-.48,7.18-.48,10.77-.48,10.77"/>
          <path class="cls-16" d="M229.96,722.74s-1.91-10.29,.24-16.27"/>
          <line class="cls-16" x1="232.35" y1="706.71" x2="232.11" y2="724.17"/>
          <path class="cls-16" d="M236.46,707.12s-1.31,5.4-.12,8.67c1.19,3.27-.89,10.1-.89,10.1"/>
          <path class="cls-16" d="M240.25,707.66s-.48,10.05,.72,17.71"/>
          <path class="cls-16" d="M245.75,708.14s1.44,3.35-.48,7.18-.48,10.77-.48,10.77"/>
          <path class="cls-16" d="M248.38,724.65s-1.91-10.29,.24-16.27"/>
          <line class="cls-16" x1="250.78" y1="708.62" x2="250.54" y2="726.09"/>
          <path class="cls-16" d="M254.41,708.31s-1.31,5.4-.12,8.67-.89,10.1-.89,10.1"/>
          <path class="cls-16" d="M258.19,708.86s-.48,10.05,.72,17.71"/>
          <path class="cls-16" d="M263.7,709.34s1.44,3.35-.48,7.18c-1.91,3.83-.48,10.77-.48,10.77"/>
          <path class="cls-16" d="M266.33,725.85s-1.91-10.29,.24-16.27"/>
          <line class="cls-16" x1="268.72" y1="709.82" x2="268.48" y2="727.29"/>
          <path class="cls-16" d="M272.35,709.27s-1.31,5.4-.12,8.67-.89,10.1-.89,10.1"/>
          <path class="cls-16" d="M276.14,709.82s-.48,10.05,.72,17.71"/>
          <path class="cls-16" d="M281.64,710.3s1.44,3.35-.48,7.18c-1.91,3.83-.48,10.77-.48,10.77"/>
          <path class="cls-16" d="M284.28,726.81s-1.91-10.29,.24-16.27"/>
          <line class="cls-16" x1="286.67" y1="710.78" x2="286.43" y2="728.24"/>
          <path class="cls-16" d="M290.78,709.03s-1.31,5.4-.12,8.67-.89,10.1-.89,10.1"/>
          <path class="cls-16" d="M294.56,709.58s-.48,10.05,.72,17.71"/>
          <path class="cls-16" d="M300.07,710.06s1.44,3.35-.48,7.18-.48,10.77-.48,10.77"/>
          <path class="cls-16" d="M302.7,726.57s-1.91-10.29,.24-16.27"/>
          <line class="cls-16" x1="305.09" y1="710.54" x2="304.85" y2="728"/>
          <path class="cls-16" d="M308.48,708.07s-1.31,5.4-.12,8.67c1.19,3.27-.89,10.1-.89,10.1"/>
          <path class="cls-16" d="M312.27,708.62s-.48,10.05,.72,17.71"/>
          <path class="cls-16" d="M317.77,709.1s1.44,3.35-.48,7.18-.48,10.77-.48,10.77"/>
          <path class="cls-16" d="M320.41,725.61s-1.91-10.29,.24-16.27"/>
          <line class="cls-16" x1="322.8" y1="709.58" x2="322.56" y2="727.05"/>
          <path class="cls-16" d="M325.95,706.4s-1.31,5.4-.12,8.67-.89,10.1-.89,10.1"/>
          <path class="cls-16" d="M329.74,706.95s-.48,10.05,.72,17.71"/>
          <path class="cls-16" d="M335.24,707.43s1.44,3.35-.48,7.18-.48,10.77-.48,10.77"/>
          <path class="cls-16" d="M337.87,723.94s-1.91-10.29,.24-16.27"/>
          <line class="cls-16" x1="340.27" y1="707.9" x2="340.03" y2="725.37"/>
          <path class="cls-16" d="M343.9,702.81s-1.31,5.4-.12,8.67c1.19,3.27-.89,10.1-.89,10.1"/>
          <path class="cls-16" d="M347.68,703.36s-.48,10.05,.72,17.71"/>
          <path class="cls-16" d="M353.19,703.84s1.44,3.35-.48,7.18-.48,10.77-.48,10.77"/>
          <path class="cls-16" d="M355.82,720.35s-1.91-10.29,.24-16.27"/>
          <line class="cls-16" x1="358.21" y1="704.31" x2="357.97" y2="721.78"/>
          <path class="cls-16" d="M361.84,699.94s-1.31,5.4-.12,8.67c1.19,3.27-.89,10.1-.89,10.1"/>
          <path class="cls-16" d="M365.63,700.49s-.48,10.05,.72,17.71"/>
          <path class="cls-16" d="M371.13,700.96s1.44,3.35-.48,7.18-.48,10.77-.48,10.77"/>
          <path class="cls-16" d="M373.76,717.47s-1.91-10.29,.24-16.27"/>
          <line class="cls-16" x1="376.16" y1="701.44" x2="375.92" y2="718.91"/>
          <path class="cls-16" d="M380.03,697.54s-1.31,5.4-.12,8.67c1.19,3.27-.89,10.1-.89,10.1"/>
          <path class="cls-16" d="M383.81,698.09s-.48,10.05,.72,17.71"/>
          <path class="cls-16" d="M389.32,698.57s1.44,3.35-.48,7.18c-1.91,3.83-.48,10.77-.48,10.77"/>
          <path class="cls-16" d="M391.95,715.08s-1.91-10.29,.24-16.27"/>
          <line class="cls-16" x1="394.34" y1="699.05" x2="394.1" y2="716.52"/>
          <path class="cls-16" d="M397.97,698.26s-1.31,5.4-.12,8.67-.89,10.1-.89,10.1"/>
          <path class="cls-16" d="M401.76,698.81s-.48,10.05,.72,17.71"/>
          <path class="cls-16" d="M407.26,699.29s1.44,3.35-.48,7.18c-1.91,3.83-.48,10.77-.48,10.77"/>
          <path class="cls-16" d="M409.89,715.8s-1.91-10.29,.24-16.27"/>
          <line class="cls-16" x1="412.29" y1="699.77" x2="412.05" y2="717.24"/>
          <path class="cls-16" d="M415.92,699.46s-1.31,5.4-.12,8.67-.89,10.1-.89,10.1"/>
          <path class="cls-16" d="M419.7,700.01s-.48,10.05,.72,17.71"/>
          <path class="cls-16" d="M425.21,700.49s1.44,3.35-.48,7.18c-1.91,3.83-.48,10.77-.48,10.77"/>
          <path class="cls-16" d="M427.84,717s-1.91-10.29,.24-16.27"/>
          <line class="cls-16" x1="430.23" y1="700.96" x2="429.99" y2="718.43"/>
          <path class="cls-16" d="M433.14,703.77s-1.31,5.4-.12,8.67-.89,10.1-.89,10.1"/>
          <path class="cls-16" d="M436.93,704.31s-.48,10.05,.72,17.71"/>
          <path class="cls-16" d="M442.44,704.79s1.44,3.35-.48,7.18c-1.91,3.83-.48,10.77-.48,10.77"/>
          <path class="cls-16" d="M445.07,721.3s-1.91-10.29,.24-16.27"/>
          <line class="cls-16" x1="447.46" y1="705.27" x2="447.22" y2="722.74"/>
          <path class="cls-16" d="M450.37,706.4s-1.31,5.4-.12,8.67c1.19,3.27-.89,10.1-.89,10.1"/>
          <path class="cls-16" d="M454.16,706.95s-.48,10.05,.72,17.71"/>
          <path class="cls-16" d="M459.66,707.43s1.44,3.35-.48,7.18c-1.91,3.83-.48,10.77-.48,10.77"/>
          <path class="cls-16" d="M462.3,723.94s-1.91-10.29,.24-16.27"/>
          <line class="cls-16" x1="464.69" y1="707.9" x2="464.45" y2="725.37"/>
          <path class="cls-16" d="M467.6,708.07s-1.31,5.4-.12,8.67c1.19,3.27-.89,10.1-.89,10.1"/>
          <path class="cls-16" d="M471.39,708.62s-.48,10.05,.72,17.71"/>
          <path class="cls-16" d="M476.89,709.1s1.44,3.35-.48,7.18-.48,10.77-.48,10.77"/>
          <path class="cls-16" d="M479.52,725.61s-1.91-10.29,.24-16.27"/>
          <line class="cls-16" x1="481.92" y1="709.58" x2="481.68" y2="727.05"/>
          <path class="cls-16" d="M485.31,709.99s-1.31,5.4-.12,8.67-.89,10.1-.89,10.1"/>
          <path class="cls-16" d="M489.09,710.54s-.48,10.05,.72,17.71"/>
          <path class="cls-16" d="M494.6,711.01s1.44,3.35-.48,7.18c-1.91,3.83-.48,10.77-.48,10.77"/>
          <path class="cls-16" d="M497.23,727.52s-1.91-10.29,.24-16.27"/>
          <line class="cls-16" x1="499.62" y1="711.49" x2="499.38" y2="728.96"/>
          <path class="cls-16" d="M503.25,709.27s-1.31,5.4-.12,8.67c1.19,3.27-.89,10.1-.89,10.1"/>
          <path class="cls-16" d="M507.04,709.82s-.48,10.05,.72,17.71"/>
          <path class="cls-16" d="M512.54,710.3s1.44,3.35-.48,7.18c-1.91,3.83-.48,10.77-.48,10.77"/>
          <path class="cls-16" d="M515.18,726.81s-1.91-10.29,.24-16.27"/>
          <line class="cls-16" x1="517.57" y1="710.78" x2="517.33" y2="728.24"/>
          <path class="cls-16" d="M521.2,707.12s-1.31,5.4-.12,8.67-.89,10.1-.89,10.1"/>
          <path class="cls-16" d="M524.99,707.66s-.48,10.05,.72,17.71"/>
          <path class="cls-16" d="M530.49,708.14s1.44,3.35-.48,7.18c-1.91,3.83-.48,10.77-.48,10.77"/>
          <path class="cls-16" d="M533.12,724.65s-1.91-10.29,.24-16.27"/>
          <line class="cls-16" x1="535.51" y1="708.62" x2="535.27" y2="726.09"/>
          <path class="cls-16" d="M537.95,701.61s-1.31,5.4-.12,8.67c1.19,3.27-.89,10.1-.89,10.1"/>
          <path class="cls-16" d="M541.73,702.16s-.48,10.05,.72,17.71"/>
          <path class="cls-16" d="M547.24,702.64s1.44,3.35-.48,7.18c-1.91,3.83-.48,10.77-.48,10.77"/>
          <path class="cls-16" d="M549.87,719.15s-1.91-10.29,.24-16.27"/>
          <line class="cls-16" x1="552.26" y1="703.12" x2="552.02" y2="720.59"/>
          <path class="cls-16" d="M554.94,698.26s-1.31,5.4-.12,8.67-.89,10.1-.89,10.1"/>
          <path class="cls-16" d="M558.72,698.81s-.48,10.05,.72,17.71"/>
          <path class="cls-16" d="M564.23,699.29s1.44,3.35-.48,7.18-.48,10.77-.48,10.77"/>
          <path class="cls-16" d="M566.86,715.8s-1.91-10.29,.24-16.27"/>
          <line class="cls-16" x1="569.25" y1="699.77" x2="569.01" y2="717.24"/>
          <path class="cls-16" d="M572.4,696.59s-1.31,5.4-.12,8.67-.89,10.1-.89,10.1"/>
          <path class="cls-16" d="M576.19,697.14s-.48,10.05,.72,17.71"/>
          <path class="cls-16" d="M581.69,697.61s1.44,3.35-.48,7.18-.48,10.77-.48,10.77"/>
          <path class="cls-16" d="M584.33,714.12s-1.91-10.29,.24-16.27"/>
          <line class="cls-16" x1="586.72" y1="698.09" x2="586.48" y2="715.56"/>
          <path class="cls-16" d="M589.87,696.59s-1.31,5.4-.12,8.67c1.19,3.27-.89,10.1-.89,10.1"/>
          <path class="cls-16" d="M593.66,697.14s-.48,10.05,.72,17.71"/>
          <path class="cls-16" d="M599.16,697.61s1.44,3.35-.48,7.18c-1.91,3.83-.48,10.77-.48,10.77"/>
          <path class="cls-16" d="M601.79,714.12s-1.91-10.29,.24-16.27"/>
          <line class="cls-16" x1="604.19" y1="698.09" x2="603.95" y2="715.56"/>
          <path class="cls-16" d="M607.58,697.54s-1.31,5.4-.12,8.67-.89,10.1-.89,10.1"/>
          <path class="cls-16" d="M611.36,698.09s-.48,10.05,.72,17.71"/>
          <path class="cls-16" d="M616.87,698.57s1.44,3.35-.48,7.18c-1.91,3.83-.48,10.77-.48,10.77"/>
          <path class="cls-16" d="M619.5,715.08s-1.91-10.29,.24-16.27"/>
          <line class="cls-16" x1="621.89" y1="699.05" x2="621.65" y2="716.52"/>
          <path class="cls-16" d="M624.8,699.46s-1.31,5.4-.12,8.67-.89,10.1-.89,10.1"/>
          <path class="cls-16" d="M628.59,700.01s-.48,10.05,.72,17.71"/>
          <path class="cls-16" d="M634.09,700.49s1.44,3.35-.48,7.18-.48,10.77-.48,10.77"/>
          <path class="cls-16" d="M636.73,717s-1.91-10.29,.24-16.27"/>
          <line class="cls-16" x1="639.12" y1="700.96" x2="638.88" y2="718.43"/>
          <path class="cls-16" d="M642.99,702.57s-1.31,5.4-.12,8.67-.89,10.1-.89,10.1"/>
          <path class="cls-16" d="M646.78,703.12s-.48,10.05,.72,17.71"/>
          <path class="cls-16" d="M652.28,703.6s1.44,3.35-.48,7.18-.48,10.77-.48,10.77"/>
          <path class="cls-16" d="M654.91,720.11s-1.91-10.29,.24-16.27"/>
          <line class="cls-16" x1="657.3" y1="704.08" x2="657.07" y2="721.54"/>
          <path class="cls-16" d="M660.46,706.16s-1.31,5.4-.12,8.67-.89,10.1-.89,10.1"/>
          <path class="cls-16" d="M664.24,706.71s-.48,10.05,.72,17.71"/>
          <path class="cls-16" d="M669.75,707.19s1.44,3.35-.48,7.18c-1.91,3.83-.48,10.77-.48,10.77"/>
          <path class="cls-16" d="M672.38,723.7s-1.91-10.29,.24-16.27"/>
          <line class="cls-16" x1="674.77" y1="707.66" x2="674.53" y2="725.13"/>
          <path class="cls-16" d="M679.12,706.88s-1.31,5.4-.12,8.67-.89,10.1-.89,10.1"/>
          <path class="cls-16" d="M682.91,707.43s-.48,10.05,.72,17.71"/>
          <path class="cls-16" d="M688.41,707.9s1.44,3.35-.48,7.18-.48,10.77-.48,10.77"/>
          <path class="cls-16" d="M691.04,724.41s-1.91-10.29,.24-16.27"/>
          <line class="cls-16" x1="693.44" y1="708.38" x2="693.2" y2="725.85"/>
          <path class="cls-16" d="M695.87,703.53s-1.31,5.4-.12,8.67-.89,10.1-.89,10.1"/>
          <path class="cls-16" d="M699.66,704.08s-.48,10.05,.72,17.71"/>
          <path class="cls-16" d="M705.16,704.55s1.44,3.35-.48,7.18-.48,10.77-.48,10.77"/>
          <path class="cls-16" d="M707.79,721.06s-1.91-10.29,.24-16.27"/>
          <path class="cls-16" d="M19.2,706.4s-1.31,5.4-.12,8.67-.89,10.1-.89,10.1"/>
          <path class="cls-16" d="M22.99,706.95s-.48,10.05,.72,17.71"/>
          <path class="cls-16" d="M28.49,707.43s1.44,3.35-.48,7.18c-1.91,3.83-.48,10.77-.48,10.77"/>
          <path class="cls-16" d="M31.12,723.94s-1.91-10.29,.24-16.27"/>
          <line class="cls-16" x1="33.52" y1="707.9" x2="33.28" y2="725.37"/>
          <path class="cls-16" d="M37.62,707.12s-1.31,5.4-.12,8.67-.89,10.1-.89,10.1"/>
          <path class="cls-16" d="M41.41,707.66s-.48,10.05,.72,17.71"/>
          <path class="cls-16" d="M46.91,708.14s1.44,3.35-.48,7.18c-1.91,3.83-.48,10.77-.48,10.77"/>
          <path class="cls-16" d="M49.55,724.65s-1.91-10.29,.24-16.27"/>
          <line class="cls-16" x1="51.94" y1="708.62" x2="51.7" y2="726.09"/>
        </g>
        <path class="cls-59" d="M708.23,705.2v-61.34H1.49v61.34s65.89,7.35,113.27,1.12c0,0,64.84-6.23,107.23,0,0,0,86.03,12.47,143.39-3.74,0,0,48.63-7.48,66.08,1.25,0,0,69.28,22.8,123.44-2.49,0,0,43.64-7.48,76.06,0,0,0,26.1,17.71,77.26,3.87Z"/>
        <line class="cls-20" x1="114.76" y1="706.32" x2="114.76" y2="667.61"/>
        <line class="cls-20" x1="221.99" y1="706.32" x2="221.99" y2="678.63"/>
        <line class="cls-20" x1="365.39" y1="702.58" x2="365.39" y2="669"/>
        <line class="cls-20" x1="431.47" y1="703.83" x2="431.47" y2="670.14"/>
        <line class="cls-20" x1="554.91" y1="701.33" x2="554.91" y2="666.74"/>
        <line class="cls-20" x1="630.97" y1="701.33" x2="630.97" y2="670.14"/>
        <line class="cls-10" x1="1.39" y1="650.52" x2="708.25" y2="650.52"/>
        <line class="cls-10" x1="1.39" y1="654.73" x2="708.25" y2="654.73"/>
        <g class="cls-72">
          <g>
            <line class="cls-16" x1="1.39" y1="652.66" x2="2.89" y2="652.66"/>
            <line class="cls-8" x1="5.89" y1="652.66" x2="705.25" y2="652.66"/>
            <line class="cls-16" x1="706.75" y1="652.66" x2="708.25" y2="652.66"/>
          </g>
        </g>
      </g>
      <polyline class="cls-59" points="115.43 625.5 664.9 625.5 707.44 643.83 114.77 643.83"/>
      <line class="cls-28" x1="115.94" y1="643.8" x2="707.44" y2="643.8"/>
    </g>
    <g>
      <rect class="cls-63" x="586.14" y="628.08" width="89.72" height="10.9"/>
      <polygon class="cls-63" points="547.21 618.15 586.14 628.08 675.86 628.08 633.63 617.37 547.21 618.15"/>
      <polygon class="cls-63" points="549.54 625.5 586.11 636.89 586.14 638.98 549.54 627.14 549.54 625.5"/>
      <polygon class="cls-39" points="549.54 618.88 586.14 628.08 586.14 637.52 549.54 625.68 549.54 618.88"/>
      <line class="cls-30" x1="586.14" y1="628.08" x2="675.86" y2="628.08"/>
      <polygon class="cls-30" points="596.54 619.52 618.27 619.52 636.43 625.22 613.46 625.22 596.54 619.52"/>
    </g>
    <polygon class="cls-39" points="521.37 640.31 440.06 640.31 428.46 628.76 503.44 628.76 521.37 640.31"/>
    <g>
      <path class="cls-70" d="M459.87,524.66c7.65-1.65,5.36-8.53,5.36-8.53,4.39,0,3.13-7.63,3.13-7.63,5.31-2.75,2.18-8.67,2.18-8.67,2.58-4.27-1.8-9.55-1.8-9.55,4.2-5.5-1.67-8.16-1.67-8.16,3.84-5.61-2.64-10.99-2.64-10.99,2.83-5.46,1.43-9.99,1.43-9.99,4.1-6.99-.29-12.04-.29-12.04,3.95-5.55,.09-9.39,.09-9.39,3.42-5.23-1.23-9.28-1.23-9.28,3.25-5.84-2.73-9.02-2.73-9.02,.69-6.55-4.57-8.28-4.57-8.28-1.11-6.43-8.04-8.27-8.04-8.27-4.16-5.17-9.54-4.78-9.54-4.78-6.51-4.97-12.49-2.45-12.49-2.45-6.58-4.48-16.69-1.34-16.69-1.34-8.83-3.18-18.11,3.78-18.11,3.78-8.72-1.19-10.32,7.91-10.32,7.91-7.65,1.65-6.61,9.72-6.61,9.72-5.54-.8-7.41,5.2-7.41,5.2-5.77-.26-6.1,7.1-6.1,7.1-5.04,1.17-3.52,7.42-3.52,7.42-5.12,3.16-1.52,7.31-1.52,7.31-4.17,4-.53,7.35-.53,7.35-3.84,5.61-.9,9.47-.9,9.47-4.48,2.19-1.38,6.98-1.38,6.98-5.67,2.74-1.26,7.93-1.26,7.93-5.28,2.16-4.18,7.76-4.18,7.76-4.46,1.6-3.26,8.8-3.26,8.8-4.14,3.4-1.49,10.73-1.49,10.73-7.26,3.89-3.72,11.47-3.72,11.47-5.31,5.67-.31,10.78-.31,10.78-2.62,5.43-.54,8.67-.54,8.67,0,0-6.38,11.7,5.84,11.72"/>
      <path class="cls-52" d="M445.17,426.32s7.38,1.4,7.68,18.62c0,0-1.37,5.53-.62,8.9,.75,3.37,0,14.01-1.67,20.09-1.68,6.08-6.43,16.26-16.24,20.57-9.81,4.31-24.62-4.33-24.62-4.33,0,0-15.15-8.24-18.18-18,0,0-6.03,5.89-11.57,.64-5.54-5.25-11.24-18.33-4.68-21.5,5.63-2.72,10.32,4.81,11.54,7,.2,.36,.31,.58,.31,.58,0,0,18.4-20.51,16.73-35.08,0,0,9.3,8.06,20.92,4.76,0,0,13.25,6.25,20.41-2.24Z"/>
      <path class="cls-66" d="M380.4,423.41s-.97,6.85,5.23,8.66,4.75-7.68,4.75-7.68c0,0,9.54-.09,8.99-3.75-.55-3.66-6.2-9.04-7.89-6.65-1.68,2.38-2.18,7.17-2.18,7.17,0,0-7.5-.13-8.91,2.24Z"/>
      <path class="cls-52" d="M466.48,554.28l4.31,15.43,47.62-17.56,3.72-1.2s2.56-10.87,15.65-10.91c0,0,3.63-.04,4.23-1.78s8.31-5.49,9.2-3.38c0,0,2.82,1.97-.11,4.86s-11.14,6.44-11.14,6.44l28.87,9.66s6.92,1.65,4.47,4.51-5.84-.28-5.84-.28c0,0-6.8,2.95-12,1.65,0,0-10.55,7.85-23.1,2.27l-3.3,1.33s-35.3,33.44-54.89,38-28.83-10.03-28.83-10.03l4-37.42,17.14-1.59Z"/>
      <line class="cls-23" x1="567.46" y1="560.07" x2="548.73" y2="553.8"/>
      <path class="cls-23" d="M555.47,561.72s1.53-1.8-.6-2.51-9.24,1.41-13.64-1.72"/>
      <path class="cls-23" d="M539.96,546.19s-4.35,1.35-4.14,4.11"/>
      <path class="cls-19" d="M470.8,569.72s-6.02,.57-6.49,7.36"/>
      <path class="cls-52" d="M390.77,471.69s4.4,26.15-14.55,32.7c0,0,4.29,17.87,4.29,26.03,0,0,38.59,13.25,67.2,1.95,0,0-14.69-19.57-17.24-31.55,0,0-3.76-3.25-2.23-7.33l-37.47-21.8Z"/>
      <path class="cls-60" d="M422.52,441s-9.95-.4-17.74,4.05c0,0,3.08-5.99,17.54-6.38,0,0,2.6,.99,.19,2.33Z"/>
      <path class="cls-60" d="M452.38,446.79c-6.05-3.52-10.99-4.4-10.99-4.4-2.07-1.81,.68-2.24,.68-2.24,4.38,1.07,8.88,3.36,11.19,4.74,0,0-.55,2.09-.88,1.9Z"/>
      <path class="cls-5" d="M435.06,456.45s5.61,6.05-.82,9.3"/>
      <path class="cls-70" d="M428.29,496.35s-8.48-.57-16.17-4.51c0,0-4.92-1.84-12.41-8.09,0,0,3.28,7.6,17.94,11.96,0,0,4.92,1.65,11.29,2.49,0,0-.08-.84-.66-1.85Z"/>
      <path class="cls-66" d="M385.58,498.52s-30.13,6.58-35.45,22.53c-7.47,22.41-5.82,32.67-5.82,32.67,0,0,7.24,17.23,25.23,12.73,0,0-8.69,27.83-9.14,59.31,0,0,35.66,2.22,91.71,.66,0,0-1.96-38.28-1.51-63.46,0,0,10.99,.49,15.48-9.85l-1.4-20.43s-4.88-25.57-35-32.76c0,0,7.58,12.98-8.16,16.58,0,0-26.49,5.86-35.94-17.97Z"/>
      <circle class="cls-62" cx="420.5" cy="527.06" r="3.85"/>
      <circle class="cls-62" cx="412.82" cy="527.63" r="3.85"/>
      <circle class="cls-62" cx="405.04" cy="526.22" r="3.85"/>
      <circle class="cls-62" cx="397.52" cy="523.58" r="3.85"/>
      <circle class="cls-62" cx="391.27" cy="518.88" r="3.85"/>
      <circle class="cls-62" cx="385.58" cy="513.8" r="3.85"/>
      <circle class="cls-62" cx="427.74" cy="524.36" r="3.85"/>
      <circle class="cls-62" cx="434.29" cy="520.56" r="3.85"/>
      <circle class="cls-62" cx="437.81" cy="513.62" r="3.85"/>
      <circle class="cls-62" cx="417.47" cy="533.85" r="3.85"/>
      <circle class="cls-62" cx="407.89" cy="533.46" r="3.85"/>
      <circle class="cls-62" cx="398.93" cy="531.05" r="3.85"/>
      <circle class="cls-62" cx="390.63" cy="526.6" r="3.85"/>
      <circle class="cls-62" cx="384.58" cy="521.64" r="3.85"/>
      <circle class="cls-62" cx="426.4" cy="531.68" r="3.85"/>
      <circle class="cls-62" cx="434.48" cy="528.06" r="3.85"/>
      <circle class="cls-62" cx="441.75" cy="520.25" r="3.85"/>
      <path class="cls-62" d="M385.58,498.52s6.36,18.98,28.85,18.64c22.5-.34,16.05-16.34,16.05-16.34l2.16,.2s4.88,18.61-17.69,17.69c-21.93-.9-24.22-8.44-31.25-19.06l1.89-1.12Z"/>
      <path class="cls-5" d="M374.46,459.25s3.25-4.33,6.31,.47c3.06,4.8,3.15,6.35,3.15,6.35,0,0-4.34-7.59-6.59-1.84"/>
      <g>
        <path class="cls-44" d="M382.72,453.76s3.83,5.67-.48,7.94c-4.31,2.27,2.71,1.17,2.71,1.17,0,0,4.91-1.74-.36-10.84l-1.87,1.73Z"/>
        <path class="cls-39" d="M382.24,461.7s-1.9-6.31-6.26-5.31c-4.36,1-.28,8.84-.28,8.84,0,0,1.15,1.84,3.56,1.86,0,0-2.02-4.29,2.98-5.39Z"/>
        <path class="cls-61" d="M372.4,453.24s-3.64,1.71-2.22-2.39c1.43-4.1,7.53-3.84,9.43-3.4,1.9,.44,4.63,1.56,4.98,4.59s-3.65,.1-3.65,.1c0,0-4.79-4.15-8.54,1.1Z"/>
      </g>
      <g>
        <path class="cls-39" d="M410.27,449.95s0-.28,.21-.5c.69-.74,2.28-2.13,4.74-2.07,2.74,.06,4.2,2.67,4.69,3.61,.09,.16,.07,.3,.07,.3,0,0,0,.15-.09,.26-.45,.5-1.94,1.88-4.54,1.87-1.55-.01-3.7-.89-5-3.02-.09-.15-.09-.33-.09-.43Z"/>
        <circle class="cls-70" cx="415.92" cy="450.57" r="2.84"/>
        <circle class="cls-39" cx="414.14" cy="449.95" r=".78"/>
        <path class="cls-6" d="M420.08,451s-3.19-6.63-9.7-1.57"/>
      </g>
      <g>
        <path class="cls-39" d="M440.03,452.02s-.04-.25,.12-.49c.53-.78,1.79-2.27,4.05-2.57,2.53-.33,4.23,1.86,4.81,2.64,.1,.14,.11,.26,.11,.26,0,0,.03,.14-.04,.25-.34,.52-1.51,2-3.9,2.35-1.42,.21-3.52-.3-5.01-2.07-.1-.12-.13-.29-.14-.39Z"/>
        <circle class="cls-70" cx="445.29" cy="451.78" r="2.62"/>
        <circle class="cls-39" cx="443.5" cy="451.52" r=".73"/>
        <path class="cls-6" d="M449.06,451.69s-3.71-6.01-8.98-.04"/>
      </g>
      <path class="cls-17" d="M370.38,514.55s10.16,2.86,8.32,26.25c-1.85,23.39-2.25,19.93-2.25,19.93"/>
      <line class="cls-17" x1="448.06" y1="561.15" x2="445.88" y2="535.76"/>
      <path class="cls-43" d="M433.73,604.02l34.68,28.59,4.87,2.31-2.56-4.26-34.43-28.72s-2.56-1.22-2.56,2.07Z"/>
      <path class="cls-52" d="M344.3,553.72l-.84,57.85s-.88,12.68,14.45,15.93,76.69,6.19,76.69,6.19l8.26,3.54,19.17,1.18s4.55-1,2.48-4.31c0,0,5.79,.41,3.1-5.99l-3.1-1.03,4.34-.41s5.79-3.1,.41-5.99c0,0,4.96-3.1,.21-5.58l-14.26-3.72-19.84,7.85-62.63-17.57,3.51-40.72-31.95-7.21Z"/>
      <path class="cls-19" d="M372.74,601.65s-5.68-1.37-10.37,3.32"/>
      <path class="cls-60" d="M425.84,438.2s2.81,2,0,3.34c0,0,1.2-1.47,0-3.34Z"/>
      <path class="cls-60" d="M438.61,438.57s-1.17,1.5,.08,3.34c0,0-2.85-1.94-.08-3.34"/>
      <path class="cls-53" d="M418.67,478.43s7.38-6.89,12.39-3.77c0,0,4.99-2.6,8.91,4.09,0,0-2.03,5.3-9.26,5.13-7.23-.18-12.04-5.45-12.04-5.45Z"/>
      <path class="cls-45" d="M419.87,478.5s10.74-6.07,19.03,.44c0,0-2.91,1.04-5.63,2.43s-5.63,.03-5.63,.03c0,0-5.12-2.81-7.77-2.9Z"/>
      <path class="cls-39" d="M423.28,477s7.12-2.89,13.54,.63c0,0-10.38-.82-13.54-.63Z"/>
    </g>
    <g>
      <path class="cls-50" d="M1022.19,817.36s-10.36-3.98-12.75,14.34c-2.39,18.33-19.92,89.25-19.92,89.25,0,0-31.88,3.98-27.89,17.53,3.98,13.55,45.42-1.59,45.42-1.59l18.33-81.28s15.14-36.66-3.19-38.25Z"/>
      <path class="cls-50" d="M1003.86,799.83s-10.36-3.98-12.75,14.34c-2.39,18.33-19.92,89.25-19.92,89.25,0,0-31.88,3.98-27.89,17.53,3.98,13.55,45.42-1.59,45.42-1.59l18.33-81.28s15.14-36.66-3.19-38.25Z"/>
      <path class="cls-50" d="M1039.02,758.07c32.31,9.31,45.7,49.6,53.54,65.78,5.66,11.67,44.38,58.05,44.38,58.05,11.95-14.34,15.82-38.69,19.84-52.46,1.29-4.4,4.07-11.29,4.07-11.29,10.36,52.59-28.69,93.24-28.69,93.24-85.27,2.39-141.38-82.73-141.38-82.73,0,0,9.51-45.29,.38-58.6-9.13-13.32,47.29-26.62,47.29-26.62l.56,14.63"/>
      <path class="cls-50" d="M1038.82,744.53c-3.62,2.57-4.34,3.19-8.5,5.94-16.65,10.98-37.82,24.1-63.43,10.74,0,0-20.12-5.04-18.7-20.42,1.42-15.37,18.48-20.08,18.48-20.08,0,0,10.99-1.15,17.11-17.27,6.13-16.12,35.7-8.2,35.7-8.2,0,0,8.57,2.01,12.66,9.65,0,0,23.93-2.65,20.53,19.47-3.4,22.12,2.67,29.65,2.67,29.65,0,0,.24,9.23-8.26,3.16-8.51-6.08-8.26-12.64-8.26-12.64Z"/>
      <ellipse class="cls-60" cx="1004.07" cy="730.62" rx="4.98" ry="3.32" transform="translate(-92.87 1312.58) rotate(-63.99)"/>
      <ellipse class="cls-60" cx="981.04" cy="717.5" rx="4.98" ry="3.32" transform="translate(-94.01 1284.52) rotate(-63.99)"/>
      <path class="cls-60" d="M971.58,732.33s-7.25-5.27-12.71-5.33-4.55,9.33-4.55,9.33c0,0-1.19,8.95,12.14,7.08,13.33-1.87,5.12-11.08,5.12-11.08Z"/>
      <path class="cls-60" d="M989.81,767.02c22.68-.57,37.56-14.41,37.56-14.41l.28,4.79s-17.89,11.92-36.75,9.72"/>
      <path class="cls-50" d="M1126.6,887.29s-33.09-46.32-79.41-36.39c-46.32,9.93,18.2,72.79,18.2,72.79,0,0-38.05-6.62-33.09,6.62,4.96,13.23,59.55,9.93,59.55,9.93,0,0,59.55-3.31,34.74-52.94Z"/>
      <path class="cls-5" d="M1132.16,911.39s4.73-38.19-49.31-57.92c-54.04-19.73-51.9,18.01-51.9,18.01"/>
      <path class="cls-6" d="M1013.34,723.15s3.68,3.07,1.84,9.2"/>
      <path class="cls-6" d="M989.42,706.59s-4.5-2.66-8.79,1.84"/>
      <path class="cls-6" d="M1154.73,823.35c-6.13-5.09-9.42-10.62-7.59-13.41,2.23-3.4,11.2-1.46,20.05,4.33,8.84,5.79,14.21,13.24,11.98,16.65-1.86,2.84-8.4,1.96-15.65-1.76"/>
      <path class="cls-6" d="M1151.45,824.52c-8.11-6.82-12.37-14.34-9.81-18.25,3.12-4.77,15.18-2.39,26.93,5.3,11.75,7.7,18.75,17.8,15.62,22.57-2.6,3.97-11.41,2.99-21.08-1.91"/>
      <path class="cls-6" d="M1143.8,800.66s7.83-2.09,14.79,2.09"/>
      <path class="cls-6" d="M1169.9,837.37s10.79,4,15.14-.17"/>
      <path class="cls-6" d="M983.53,765.89s17.17-2.19,20.83-12.42"/>
    </g>
    <g>
      <path class="cls-52" d="M1158.74,348.33l-4.64,35.74-26-53.85,7.83-17.29,.27-18.91-2.16-4.59-3.24-27.55c-6.75-3.51-6.21,12.7-6.21,12.7l-2.43-13.24c-5.94-1.08-5.13,3.78-5.13,3.78v28.63s-1.89-6.21-1.89-15.4-2.7-9.18-2.7-9.18c-6.48-1.62-3.24,29.17-3.24,29.17l-2.97,.81-2.43-6.21s-2.97-11.62-7.29-8.91c-4.32,2.7,3.78,21.07,3.78,21.07l-.54,18.37c-.81,5.4,2.16,12.16,2.16,12.16l2.97,8.1s14.41,97.9,52.01,112.29c0,0,18.1-.46,37.6-37.14"/>
      <path class="cls-23" d="M1134.05,289.44l-7.73-10.43s-6.2,2.76-.92,13.78l1.38,7.81s-12.86,7.81-12.86,17.45"/>
      <path class="cls-23" d="M1101.76,302.89s7.58-6.89,17.68-5.74"/>
      <path class="cls-23" d="M1154.1,384.07s13.96,19.24,12.96,37.17"/>
      <g>
        <path class="cls-60" d="M1271.84,842.83s3.18,2.39,1.59,7.16l-1.59,24.66s-4.77,5.17-16.7,3.98l-10.74-4.37v-7.16s-20.28,20.28-20.28,20.28c0,0-4.42,2.83-20.55,5.24-16.49,2.46-21.45-6-21.45-6,0,0-12.47-12.03-6.9-16.8l96.63-26.98Z"/>
        <path class="cls-52" d="M1264.28,820.56c9.03,13.85,6.63,24.95,6.63,24.95,0,0-6.34,13.65-18.95,13.23-12.61-.42-26.12,19.19-26.12,19.19-7.1,5.23-27.31,8.59-27.31,8.59-14.24,2.38-10.23-5.78-10.23-5.78-5.81,.28-3.54-4.09-3.54-4.09-5.24,1.33-3.6-2.97-3.6-2.97-2.88-1.83-.93-4.26-.93-4.26-2.23-.56-.73-2.03-.09-2.44,2.43-1.54,4.43-1.79,4.43-1.79l12.47-2.4,7.3-3.34,9.57-10.64c9-11.4,11.4-19.2,11.4-19.2l-.48-10.56-9.52-71.85,15.66-3.39,38.15,9.84s-1.17,32.97-4.61,45.03c-3.45,12.06-.22,21.87-.22,21.87"/>
        <path class="cls-22" d="M1188.29,880.74s.67-3.22,5.75-3.84"/>
        <path class="cls-22" d="M1184.76,876.66s2.81-3.9,6.53-3.73"/>
        <path class="cls-22" d="M1181.15,873.68s3.04-4.32,7.16-4.36"/>
        <path class="cls-22" d="M1180.22,869.42s2.1-2.98,5.46-3.03"/>
        <path class="cls-60" d="M1257.12,859.13l5.57-14.32,10.74,5.17s3.58-3.18-1.59-7.16c-5.17-3.98-8.35-3.98-8.35-3.98l5.17-9.55s-1.19-8.35-4.37-8.75c0,0-1.99,9.55-5.57,13.92,0,0-18.46-4.63-33.58-10.2l-1.03,6.11,34.21,10.85-6.36,17.5,5.17,.4Z"/>
        <path class="cls-60" d="M1205.43,857.64s3.7,7.95,20.41,20.28c0,0-6.54,9.52-14.09,9.52,0,0-7.75-23.49-19.28-23.49,0,0,9.79-7.11,12.97-6.31Z"/>
      </g>
      <g>
        <path class="cls-60" d="M1311.27,854.2s3.18,2.39,1.59,7.16l-1.59,24.66s-4.77,5.17-16.7,3.98l-10.74-4.37v-7.16s-20.28,20.28-20.28,20.28c0,0-4.42,2.83-20.55,5.24-16.49,2.46-24.74-3.86-24.74-3.86,0,0-16.62-11.19-11.05-15.96l104.06-29.96Z"/>
        <path class="cls-52" d="M1267.5,822.27c.33-27.74-5.36-63.03-5.36-63.03,0,0,44.32-18.2,48.63,.94,4.3,19.14-4.62,49.87-4.62,49.87-3.96,20.48,.66,28.73,.66,28.73,6.85,12.37,1.98,21.47,1.98,21.47,0,0-4.19,8.86-17.4,9.86-12.32,.93-28.18,21.52-28.18,21.52-8.59,10.57-23.06,7.38-23.06,7.38-3.47,1.19-5.63-1.49-5.63-1.49-6.78,.84-8.18-2.66-8.18-2.66-6.31,.66-8.77-3.39-8.77-3.39-3.89,.92-5.62-3.72-5.62-3.72-4.64-4.51-3.18-5.69-1.53-8.63,1.65-2.94,11.81-1.65,11.81-1.65l14.39-3.9,8.25-4.55,10.09-14.38c5.61-6.61,8.59-12.88,8.59-12.88l3.96-19.49Z"/>
        <path class="cls-22" d="M1225.02,880.1l-7.41,2.77s-4.92,.8-5.68,4.88"/>
        <path class="cls-22" d="M1229.02,882.98s-12.35,3.72-11.75,6.84l.28,1.65"/>
        <path class="cls-22" d="M1233.43,887.7s-7.06,2.05-7.1,7.16"/>
        <path class="cls-22" d="M1237.33,893.42s-3.67,.94-2.81,4.09"/>
        <path class="cls-60" d="M1296.56,870.51l5.57-14.32,10.74,5.17s3.58-3.18-1.59-7.16c-5.17-3.98-8.35-3.98-8.35-3.98l5.17-9.55s-1.19-8.35-4.37-8.75c0,0-1.99,9.55-5.57,13.92,0,0-18.46-4.63-33.58-10.2l-1.03,6.11,34.21,10.85-6.36,17.5,5.17,.4Z"/>
        <path class="cls-22" d="M1262.25,844.89l-17.39,24.13-11.36,5.82-11.28,2.63s-14.34-2.51-13.31,6.35"/>
        <path class="cls-60" d="M1244.86,869.02s3.7,7.95,20.41,20.28c0,0-6.54,9.52-14.09,9.52,0,0-7.75-23.49-19.28-23.49,0,0,9.79-7.11,12.97-6.31Z"/>
        <line class="cls-22" x1="1266.5" y1="790.62" x2="1263.1" y2="766.79"/>
      </g>
      <path class="cls-52" d="M1276.91,220.64s-2.52,25.26,4.28,40.29c0,0,6.22,70.29-50.89,72.08,0,0-42.58-11.47-16.75-66.65,0,0,10.28-4.01,10.5-13.95,.23-10.53-1.36,.18-1.36,.18l54.23-31.94"/>
      <path class="cls-62" d="M1333.7,463.55s48.91,86.23,2.2,164.19l-19.47,56s-2.22,22.98,1.19,58.52c2.17,22.6-6.06,51.94-11.78,81.84,0,0-12.34,18.33-39.27,5.58,0,0-14.73,11.1-40.17-.99l-39.93-100.41s-12.43-17.92-12.43-35.73c0,0-24.65-197.68,10.61-222.57,0,0,52.35,51.08,149.06-6.43Z"/>
      <path class="cls-52" d="M1278.98,200.22s-1.81-53.21-49.33-57.34c0,0-33.9-.14-32.08,47.74,0,0,1.81,7.69,.49,11.76,0,0-2.71,10.47,2.34,20.37,7.56,14.82,14.95,25.46,14.95,25.46,0,0,4.56,7.08,16.4,7.31,0,0,8.32-.18,18.96-6.9,0,0,26.86-11.99,25.6-27.73,0,0,11.65,7.87,17-10.71,0,0,4.73-25.74-14.32-9.96Z"/>
      <path class="cls-70" d="M1235.45,183.63s16.11-5.22,23.6,0c0,0-5.62-8.4-24.05-3.85,0,0-3.23,2.5,.44,3.85Z"/>
      <path class="cls-70" d="M1196.62,179.71c.39-.84,8.61-.72,16.07,1.12,0,0,3.23,2.5-.44,3.85,0,0-13.42-5.27-15.73-.95,0,0-.85-1.95,.1-4.02Z"/>
      <path class="cls-21" d="M1217.18,205.98s-6.6,9.82,4.91,10.98"/>
      <path class="cls-21" d="M1291.73,204.91s-4.16-11.05-12.65,6.73c0,0,7.21-7.85,8.49-1.12"/>
      <path class="cls-70" d="M1224.92,254.42s3.66,3.38,16.37-1.08c0,0,11.11-3.72,20.2-11.02,0,0-11.53,12.79-27.13,14.72,0,0-4.16,1.24-10.05-.86,0,0,.9-.1,.62-1.74Z"/>
      <path class="cls-13" d="M1266.57,829.67l-29.75-116.6s-3.79-22.76-1.9-52.15l3.79-81.54s-5.31-1.11-10.65-6.87"/>
      <path class="cls-55" d="M1245.35,225.05s-7.79-2.41-17.08,.23c0,0-8.02-1.6-15.25,0,0,0,.8,12.95,12.95,15.82,12.15,2.87,19.6-8.48,19.37-16.05Z"/>
      <path class="cls-45" d="M1243.4,225.96s.11,11.46-14.79,11.46c-13.53,0-13.64-10.2-13.64-10.2,0,0,15.25,.69,28.43-1.26Z"/>
      <path class="cls-39" d="M1241.55,226.13s-3.69,5.31-15.23,4.75c0,0-7.11,.36-10.09-3.43,0,0,14.86,.32,25.32-1.33Z"/>
      <g>
        <path class="cls-39" d="M1252.44,193.52s.02-.35-.23-.65c-.82-1-2.74-2.88-5.86-3-3.49-.13-5.54,3.08-6.24,4.23-.12,.2-.12,.38-.12,.38,0,0-.02,.19,.09,.33,.53,.67,2.33,2.54,5.63,2.72,1.97,.1,4.77-.85,6.58-3.46,.13-.18,.14-.42,.14-.55Z"/>
        <circle class="cls-70" cx="1245.21" cy="193.87" r="3.61"/>
        <circle class="cls-39" cx="1247.52" cy="193.22" r=".99"/>
        <path class="cls-13" d="M1239.89,194.09s4.56-8.18,12.45-1.25"/>
      </g>
      <g>
        <path class="cls-39" d="M1211.62,194.96s.06-.32-.12-.64c-.62-1.05-2.14-3.07-5.02-3.62-3.23-.62-5.59,2.07-6.41,3.04-.14,.17-.16,.33-.16,.33,0,0-.05,.18,.04,.32,.4,.7,1.8,2.7,4.85,3.33,1.81,.38,4.56-.11,6.62-2.28,.14-.15,.19-.37,.21-.49Z"/>
        <circle class="cls-70" cx="1204.85" cy="194.24" r="3.39"/>
        <circle class="cls-39" cx="1207.18" cy="194.05" r=".95"/>
        <path class="cls-13" d="M1199.99,193.83s5.25-7.46,11.58,.64"/>
      </g>
      <path class="cls-39" d="M1281.18,260.93s9.19,7.93,30.06,14.61c20.88,6.68,44.68,49.69,44.68,49.69,0,0-7.25,30.44-43.09,44.86l15.72,92.8s-27.38,34.34-92.52,28.91c0,0-34.66,1.11-51.4-21.85,0,0,6.62-17.2-6.47-65.06,0,0-12.58-21.21-12.16-40.42l-7.59-15.46,5.01-39.25s4.18-26.31,32.15-37.16c0,0,10.44-2.09,17.95-6.26,0,0-3.48,14.79,4.62,27.91,0,0,13.4,26.24,46.62,3.91,0,0,16.82-9.69,16.4-37.24Z"/>
      <path class="cls-52" d="M1353.49,330.16s18.48,73.4,7.7,107.79l-11.81,77.51s-2.62,15.12,1.94,23.38c0,0,6.56,17.96-1.14,28.22,0,0-5.99,22.8-28.51,32.78,0,0-6.84-4.28,2.85-13.68,0,0,11.4-11.97,4.56-25.66,0,0-5.13-4.28-4.85,4.28,.29,8.55-.57,22.23-7.41,20.81-6.84-1.43-3.99-15.39-3.99-15.39,0,0,.29-12.26-.86-21.09,0,0,.57-15.68,9.12-24.23l-1.43-114.88-6.84-39.91s31.13-15.16,40.65-39.93Z"/>
      <line class="cls-14" x1="1312.84" y1="370.1" x2="1309.58" y2="350.25"/>
      <path class="cls-14" d="M1166.01,364.49s.36-17.75,5.62-27.1"/>
      <path class="cls-65" d="M1220.43,150.29s29.87,56.02,73.3,56.78c0,0-4.09,18.8-16.97,14.69,0,0-7.32,25.74,4.88,40.04,0,0,17.81,9.37,30.13,14.3,11.53,4.61,19.88,16.05,19.88,16.05,0,0-21.64-21.13-19.47-68.01,2.16-46.88-20.03-72.55-20.03-72.55,0,0-28.06-42.83-70.39-20.18,0,0-22.72,.84-32.57,22.5-5.69,12.53-4.9,35.82-4.07,54.42,0,0,2.49,47.5,22.08,60.56,0,0,15.56-3.54,17.73-14.47,0,0-3.19,.74-8.05-5.32-6.64-8.27-11.28-16-16.01-25.47,0,0-5.16-9.46-2-21.83,0,0,1.07-6.5-.83-10.3,0,0-2.78-27.24,22.41-41.21"/>
      <path class="cls-15" d="M1282.58,214.02s6.56,9.95-.41,16.05c-6.97,6.1-3.34-8.76-3.34-8.76"/>
    </g>
  </g>
</svg>