<?xml version="1.0" encoding="UTF-8"?>
<svg xmlns="http://www.w3.org/2000/svg" xmlns:xlink="http://www.w3.org/1999/xlink" viewBox="0 0 1580.8 1075.8">
  <defs>
    <style>
      .cls-1, .cls-2, .cls-3, .cls-4, .cls-5, .cls-6, .cls-7, .cls-8, .cls-9, .cls-10, .cls-11, .cls-12, .cls-13, .cls-14, .cls-15 {
        fill: none;
      }

      .cls-16 {
        clip-path: url(#clippath);
      }

      .cls-2 {
        stroke-width: .4px;
      }

      .cls-2, .cls-3, .cls-4, .cls-17, .cls-18, .cls-19, .cls-20, .cls-21, .cls-5, .cls-22, .cls-23, .cls-24, .cls-25, .cls-6, .cls-7, .cls-8, .cls-9, .cls-10, .cls-11, .cls-26, .cls-27, .cls-28, .cls-12, .cls-13, .cls-14, .cls-15 {
        stroke-miterlimit: 10;
      }

      .cls-2, .cls-4, .cls-5, .cls-6 {
        stroke: #231f20;
      }

      .cls-3, .cls-4 {
        stroke-width: .8px;
      }

      .cls-3, .cls-20, .cls-23, .cls-24, .cls-9, .cls-15 {
        stroke: #603913;
      }

      .cls-17 {
        stroke-width: .3px;
      }

      .cls-17, .cls-29, .cls-20, .cls-24 {
        fill: #fff;
      }

      .cls-17, .cls-10 {
        stroke: #6d6e71;
      }

      .cls-30 {
        fill: #f7daa6;
      }

      .cls-31 {
        fill: #f7d9a4;
      }

      .cls-32 {
        fill: #01a04c;
      }

      .cls-33 {
        fill: #eeece8;
      }

      .cls-34 {
        fill: #efaf9e;
      }

      .cls-35, .cls-27 {
        fill: #eae1d3;
      }

      .cls-36, .cls-18 {
        fill: #e6e7e8;
      }

      .cls-37 {
        fill: #f6ac1b;
      }

      .cls-38 {
        fill: #fbc5b3;
      }

      .cls-39 {
        fill: #803435;
      }

      .cls-40 {
        fill: #87664d;
      }

      .cls-41 {
        fill: #8b5e3c;
      }

      .cls-42 {
        fill: #b19074;
      }

      .cls-43 {
        fill: #ae8578;
      }

      .cls-44, .cls-19, .cls-28 {
        fill: #a97c50;
      }

      .cls-45 {
        fill: #a3d7bb;
      }

      .cls-46, .cls-23 {
        fill: #be9e7d;
      }

      .cls-47 {
        fill: #bfbfbf;
      }

      .cls-48 {
        fill: #dad0c1;
      }

      .cls-49 {
        fill: #d1d3d4;
      }

      .cls-50 {
        fill: #d1b29d;
      }

      .cls-51 {
        fill: #e2c799;
      }

      .cls-52 {
        fill: #c49a6c;
      }

      .cls-53 {
        fill: #d5b79f;
      }

      .cls-54 {
        fill: #dcbf97;
      }

      .cls-55 {
        fill: #d4d5d6;
      }

      .cls-56, .cls-26 {
        fill: #e0d5c6;
      }

      .cls-57 {
        fill: #c6837e;
      }

      .cls-58 {
        fill: #0f3e5d;
      }

      .cls-59 {
        fill: #26130f;
      }

      .cls-18 {
        stroke: #58595b;
        stroke-width: .2px;
      }

      .cls-19 {
        stroke-width: 2px;
      }

      .cls-19, .cls-28 {
        stroke: #a97c50;
      }

      .cls-20, .cls-21, .cls-22, .cls-23, .cls-14, .cls-15 {
        stroke-width: .5px;
      }

      .cls-21 {
        fill: #fff200;
      }

      .cls-21, .cls-22, .cls-25, .cls-12, .cls-14 {
        stroke: #fff;
      }

      .cls-5 {
        stroke-width: .7px;
      }

      .cls-22 {
        fill: #754c29;
      }

      .cls-25 {
        fill: #939598;
      }

      .cls-25, .cls-12, .cls-13 {
        stroke-width: 7px;
      }

      .cls-7 {
        stroke: #ef4136;
      }

      .cls-8, .cls-13 {
        stroke: #d1d3d4;
      }

      .cls-11 {
        stroke: #cfe5ae;
      }

      .cls-26 {
        stroke: #e0d5c6;
        stroke-width: 1.5px;
      }

      .cls-27 {
        stroke: #8b5e3c;
        stroke-width: 3px;
      }

      .cls-28 {
        stroke-width: 6px;
      }
    </style>
    <clipPath id="clippath">
      <rect class="cls-1" x="246.56" y="76.43" width="419.52" height="448.44"/>
    </clipPath>
  </defs>
  <g id="Layer_2" data-name="Layer 2">
    <rect class="cls-45" x="245.94" y="76.84" width="1333.64" height="936.16"/>
    <g class="cls-16">
      <g>
        <rect class="cls-25" x="70.9" y="28.06" width="497.27" height="437.51"/>
        <line class="cls-28" x1="13.61" y1="12.51" x2="625.43" y2="12.51"/>
        <circle class="cls-19" cx="9.05" cy="11.79" r="8.05"/>
        <circle class="cls-19" cx="633.7" cy="12.86" r="8.05"/>
        <path class="cls-37" d="M31.72,0l-.94,505.01s19.64,16.83,50.5,6.55v-21.51s28.06,7.48,43.95,0v17.77s28.99,11.22,38.34,.94l-19.64-330.13L154.23,0l-50.5,.94-11.22,2.81L73.81,0H31.72Z"/>
        <path class="cls-37" d="M616.49,0l.94,505.01s-19.64,16.83-50.5,6.55v-21.51s-28.06,7.48-43.95,0v17.77s-28.99,11.22-38.34,.94l19.64-330.13L493.98,0l50.5,.94,11.22,2.81L574.41,0h42.08Z"/>
        <line class="cls-7" x1="81.29" y1="490.06" x2="71.66" y2="291.36"/>
        <line class="cls-7" x1="125.24" y1="490.06" x2="120.75" y2="303.34"/>
        <line class="cls-7" x1="73.81" y1="0" x2="70.4" y2="197"/>
        <line class="cls-7" x1="92.51" y1="3.75" x2="95.16" y2="297.92"/>
        <line class="cls-7" x1="522.97" y1="490.06" x2="523.58" y2="312.2"/>
        <line class="cls-7" x1="566.92" y1="490.06" x2="570.24" y2="258.89"/>
        <line class="cls-7" x1="544.48" y1=".94" x2="544.53" y2="169.39"/>
        <line class="cls-7" x1="574.41" y1="0" x2="575" y2="210.33"/>
        <line class="cls-12" x1="320.01" y1="25.99" x2="320.01" y2="464.59"/>
        <line class="cls-13" x1="326.67" y1="31.73" x2="326.67" y2="460.74"/>
      </g>
    </g>
    <g>
      <path class="cls-33" d="M707.44,576.41v-159.1s2.82-43.31,76.98-43.31h639.41s50.68,2.8,45.61,42.89v297.12H734.15l-26.71-137.6Z"/>
      <rect class="cls-56" x="630.62" y="863.03" width="921.71" height="93.02"/>
      <rect class="cls-40" x="661.13" y="954.9" width="63.25" height="54.05"/>
      <rect class="cls-40" x="1462.9" y="954.9" width="63.25" height="54.05"/>
      <path class="cls-56" d="M688.94,576.24h53.77s28.69,6.88,28.69,31.28v111.16h-92s9.54-142.44,9.54-142.44Z"/>
      <path class="cls-56" d="M1493.76,576.24h-53.77s-28.69,6.88-28.69,31.28v111.16h92l-9.54-142.44Z"/>
      <rect class="cls-33" x="620.82" y="576.24" width="108.52" height="166.02" rx="7.12" ry="7.12"/>
      <rect class="cls-33" x="1448.14" y="576.24" width="108.52" height="166.02" rx="7.12" ry="7.12"/>
      <rect class="cls-33" x="597.98" y="709.35" width="980.65" height="153.69" rx="4.21" ry="4.21"/>
      <line class="cls-26" x1="603.14" y1="709" x2="1575.36" y2="709"/>
    </g>
    <rect class="cls-31" x="245.72" y="1007.21" width="1335.08" height="68.59"/>
    <g>
      <polygon class="cls-41" points="372.45 1022.14 349.97 1022.14 338.4 807.52 387.71 807.52 372.45 1022.14"/>
      <polygon class="cls-41" points="533.01 1022.14 510.52 1022.14 498.96 807.52 548.27 807.52 533.01 1022.14"/>
      <polygon class="cls-41" points="485.88 1007.94 463.4 1007.94 451.83 715.09 501.14 715.09 485.88 1007.94"/>
      <polygon class="cls-41" points="648.42 1007.94 625.94 1007.94 614.37 715.09 663.68 715.09 648.42 1007.94"/>
      <polygon class="cls-44" points="665.47 712.5 458.03 712.5 336.52 809.48 552.48 809.48 665.47 712.5"/>
      <polygon class="cls-41" points="665.47 712.5 552.48 809.48 336.52 809.48 336.52 836.51 553.76 836.51 666.97 732.5 665.47 712.5"/>
      <polygon class="cls-44" points="356.05 470.16 478.37 414.89 478.37 713.63 356.05 808.65 356.05 470.16"/>
      <polygon class="cls-41" points="478.37 414.89 451.39 414.89 343.48 465.82 343.48 809.48 356.05 808.65 356.05 470.16 478.37 414.89"/>
      <line class="cls-24" x1="356.05" y1="808.65" x2="478.37" y2="713.63"/>
    </g>
  </g>
  <g id="Layer_1" data-name="Layer 1">
    <g>
      <g>
        <path class="cls-53" d="M799.74,726.32s11.61-23.88-13.81-46.53c-25.43-22.65-42.67-48.53-48.9-44.31l-12.28,12.12,22.07,49.55,30.39,26.01,22.53,3.16Z"/>
        <path class="cls-54" d="M837.95,667.18s-22.98,5.92-51.7-6.27l-16.1-4.82-9.17-4.41-12.44-10.22s-1.86-1.74-5.33-2.87c-.92-.3-3.57-.57-2.31,2.06,0,0-3.95,.07-3.4,4.36,0,0-5.52,1.89,.02,5.92,0,0-6.1,1.32-1.12,6.76,0,0-11.19,2.7,2.65,14.65,0,0,11.81,17.71,22.65,20.4,10.84,2.69,24.87,20.33,24.87,20.33l16.52,4.99s26.97-15.98,40.18-12.98l-5.33-37.9Z"/>
        <path class="cls-48" d="M799.74,726.32s-8.03-1.75-14.17-9.64c-6.14-7.9-26.47-20.86-26.47-20.86,0,0-48.53-36.83-22.07-60.33l-19.08,13.29s-2.56,35.87,30.69,59.73c0,0,22.38,18.62,27.22,27.24,0,0,10.81-.38,23.88-9.42Z"/>
        <path class="cls-29" d="M769.82,703.14s19.85-14.02,16.43-42.22l-16.1-4.82s7.7,16.78-11.06,39.72l10.72,7.33Z"/>
        <path class="cls-29" d="M749.05,686.6s16.44-14.98,11.93-34.92l-12.44-10.22s.69,17.27-10.89,32.39c0,0,1.35,3.54,11.4,12.75Z"/>
        <path class="cls-29" d="M823.35,710.1s-35.32,4.01-51.04-4.86l21.46,19.08s8.32,.96,29.59-14.21Z"/>
        <path class="cls-29" d="M834.95,704.66l-8.4-36.81-16.82-.78s.42,20.53,10.32,43.34c0,0-5.25,4.71,14.91-5.74Z"/>
        <path class="cls-17" d="M800.88,722.62s14.27-3.53,21.51-11.3l3.88-2.25"/>
        <path class="cls-15" d="M736.4,657.69s3.68-1.96,8.4,2.49"/>
        <path class="cls-15" d="M737.52,650.94s6.08-.42,8.93,3.35"/>
        <path class="cls-15" d="M737.51,645.02s6.67-.54,10.05,3.45"/>
        <path class="cls-15" d="M740.91,640.66s4.61-.36,7.38,2.86"/>
      </g>
      <path class="cls-54" d="M1186.77,414.23s-42.18,13.92-48.17,66.97c-5.98,53.05-3.04,91.14-3.04,91.14l-16.49,53,47.12,7.07,30.62-81.27-1.77-81.86-8.28-55.05Z"/>
      <path class="cls-54" d="M1267.61,359.69s-8.89,45.69,16.95,52.76c0,0,.02,45.85-61.79,47.78,0,0-17.61-8.09-29.28-49.32,0,0,18.54-6.25,18.77-17.02,.25-11.39-3.34,.36-3.34,.36l58.69-34.57"/>
      <path class="cls-54" d="M1269.65,336.5s-3.09-62.73-52.53-61.22c0,0-36.69-.15-34.72,51.67,0,0,1.96,8.32,.53,12.73,0,0-2.59,13.54,1.65,24.8,6.37,16.9,14.82,25.64,14.82,25.64,0,0,7.18,6.82,19.99,7.06,0,0,9-.2,20.52-7.47,0,0,29.07-12.97,27.7-30.01,0,0,10.96,6.53,16.75-13.57,0,0,7.46-17.37,.78-20.26-8.43-3.64-11.56,1.84-15.5,10.64Z"/>
      <path class="cls-59" d="M1223.39,319.38s17.44-5.65,25.54,0c0,0-6.08-9.09-26.02-4.17,0,0-3.49,2.7,.48,4.17Z"/>
      <path class="cls-59" d="M1181.37,315.13c.42-.9,9.31-.78,17.39,1.21,0,0,3.49,2.7-.48,4.17,0,0-14.52-5.71-17.02-1.03,0,0-.92-2.11,.11-4.35Z"/>
      <path class="cls-4" d="M1208.94,355.44c-12.2-1.63-4.09-12.89-4.09-12.89"/>
      <path class="cls-4" d="M1284.31,339.49s-4.51-11.96-13.69,7.28c0,0,7.8-8.49,9.19-1.21"/>
      <path class="cls-59" d="M1212.01,395.98s3.96,3.66,17.71-1.17c0,0,12.02-4.02,21.86-11.93,0,0-12.48,13.84-29.36,15.93,0,0-4.5,1.34-10.88-.94,0,0,.97-.11,.67-1.89Z"/>
      <path class="cls-32" d="M1313.02,622.19s.25-20.09-1.07-51.78c0,0-5.85-47.59-7.9-48.97-2.46-1.65,19.84,.98,27.79-10.51,6.15-8.89-1.57-43.47-2.25-46.19-9.01-36.05-39.02-48.75-39.02-48.75l-12.26-6.13s-4.6,44.67-41.26,44.67c-19.99,0-35.56-2.84-35.39-46.86l-14.89,6.57s-49.56,13.56-52.29,83.38c-.78,20.08,27.82,20.46,27.82,20.46,0,0-1.64,10.36,5.28,32.77,0,0,8.48,49.79-15.49,72.22,0,0,65.06,56.43,160.93-.87Z"/>
      <g>
        <path class="cls-29" d="M1241.11,329.81s.02-.38-.25-.71c-.89-1.08-2.97-3.12-6.34-3.24-3.78-.14-6,3.33-6.75,4.57-.13,.21-.13,.41-.13,.41,0,0-.02,.21,.1,.36,.58,.72,2.52,2.75,6.1,2.94,2.13,.11,5.17-.92,7.13-3.75,.14-.2,.16-.45,.16-.59Z"/>
        <circle class="cls-59" cx="1233.29" cy="330.19" r="3.91"/>
        <circle class="cls-29" cx="1235.79" cy="329.48" r="1.07"/>
        <path class="cls-5" d="M1227.53,330.43s4.94-8.85,13.48-1.35"/>
      </g>
      <g>
        <path class="cls-29" d="M1196.94,330.98s.07-.35-.13-.69c-.68-1.13-2.31-3.32-5.44-3.92-3.5-.67-6.05,2.24-6.93,3.29-.15,.18-.18,.36-.18,.36,0,0-.05,.19,.04,.35,.43,.75,1.95,2.92,5.25,3.61,1.96,.41,4.94-.12,7.16-2.46,.15-.16,.21-.4,.23-.53Z"/>
        <circle class="cls-59" cx="1189.61" cy="330.2" r="3.67"/>
        <circle class="cls-29" cx="1192.13" cy="329.99" r="1.03"/>
        <path class="cls-5" d="M1184.35,329.76s5.69-8.08,12.53,.69"/>
      </g>
      <path class="cls-59" d="M1187.23,370.84c-6.89-12.93-4.69-29.35-4.69-29.35,0,0,.9-3.12,1.31-9.43,.41-6.28-.92-7.75-.33-13.35,0,0,19.65-4.53,36.33-21.52,0,0,19.35-7.74,4.86-6.11,0,0,5.66-7.65,26.62-1.2,0,0,3.27,30.82,18.31,46.64,0,0,7.44-14.39,15.5-10.64,8.06,3.75-4.25,25.93-4.25,25.93,0,0-3.69,13.18-12.84,7.4,0,0-4.64,12.88-1.5,27.1,0,0,2.52-1.32,6.07-5.58,0,0-2.39,6.71-6.96,11.28,0,0,19.19-4.57,21.02-23.3,0,0,0-6.4,5.03-7.31,5.03-.91,11.86-18.91,10.95-34.45-.91-15.54-12.63-68.3-47.26-69.47,0,0-18.59-8.22-42.32,6.16-23.73,14.38-21.31,17.84-41.43,47.98,0,0-9.19,2.79,5.53,15.27,0,0-4.05,15.83-1.41,11.14,0,0-3.23,16.4,3.91,23.09,0,0-1.11-4.91-.97-12.83,0,0-1.9,17.67,12.09,29.39"/>
      <path class="cls-11" d="M1249.01,322.23s-16.75-5.7-32.18,.06c0,0-2.17,22.41,14.82,23.13,0,0,22.06-.43,17.36-23.2Z"/>
      <path class="cls-11" d="M1206.06,322.05s-14.61-5.52-27.62,1.6c0,0-3.98,20.31,13.01,21.03,0,0,19.31,.14,14.61-22.63Z"/>
      <path class="cls-11" d="M1206.06,322.05s6.23-2.92,10.77,.24"/>
      <line class="cls-11" x1="1246.83" y1="321.94" x2="1272.51" y2="329.85"/>
      <line class="cls-21" x1="1271.63" y1="356.75" x2="1271.63" y2="369.79"/>
      <polygon class="cls-14" points="1273.36 371.57 1271.78 368.69 1270.45 371.69 1267.22 372.3 1269.67 374.5 1269.25 377.76 1272.1 376.11 1275.07 377.52 1274.38 374.3 1276.63 371.91 1273.36 371.57"/>
      <path class="cls-59" d="M1255.4,257.44s-22.24-17.05-42.54-2.6c0,0-4.99,9.08-17.54,6.78-6.64-1.21-8.28,9.19-8.28,9.19,0,0,2.13,8.6-5.82,7.97,0,0-12.86,3.63-10.72,18.65,2.15,15.02-6.86,19.67-6.86,19.67,0,0-7.61,5.22-4.18,13.47,0,0,3.68,5.52,1.53,8.58-2.15,3.06-6.13,2.15-6.13,2.15,0,0,5.52,3.98,10.11-2.76s6.13-12.87,6.13-12.87c0,0-2.76,9.19-.92,14.4,0,0,.31,2.45-3.98,6.44-4.29,3.98-2.15,8.58-2.15,8.58,0,0,1.23-5.82,3.98-6.44s4.6-1.53,4.6-1.53c0,0,3.82,8.94,7.04,13.95,1.34,2.08,.87,6.76-5.26,8.29-6.13,1.53-.97,13.58-.97,13.58,0,0-.17-10.93,5.04-9.7,5.21,1.23,5.18-4.06,5.18-4.06,0,0-3.98-10.42-2.76-23.29l-1.84-27.28s10.73-1.23,17.16-4.9c0,0,17.51-8.88,23.62-16.54,0,0-9.01,8.75-9.58,12.09-1.28,7.49-9.32,9.32-9.32,9.32,0,0,11.48,1.09,12.6-4.75,2.01-10.41,11.14-9.86,11.14-9.86,0,0,10.15,2.09,15.97-6.18,5.82-8.28,10.66-7.92,10.66-7.92,0,0,16.04-13.3,4.07-32.42Z"/>
      <path class="cls-58" d="M1178.87,703.54s8.45,27.41,22.93,28.93c0,0,63.98,.76,134.82-44.94,0,0,31.23-42.65,4.57-63.98-26.66-21.33-83.79,0-83.79,0-49.6,16.11-105.31-.5-105.31-.5,0,0-68.36-.42-185.16,25.29l-41.38,1.89s-58.45,5.68-99.24,18.19c0,0,1.14,27.96,3.49,37.78,2.35,9.83,78.42,24.89,129.4,9.7,0,0,76.86,8.94,105.09,15.19,0,0,70.18,13.94,99.74,.81,0,0,33.53-11.15,41.98-35.23"/>
      <path class="cls-6" d="M1178.95,696.67s48.9-46.55,105.57-59.83"/>
      <path class="cls-57" d="M1227.82,372.47s-4.14-5.72-12.73-3.04c0,0-6.89-1.97-11.89,4.27,0,0,2.36,5.08,12.11,4.52,8.31-.47,11.69-1.72,12.51-5.76Z"/>
      <path class="cls-4" d="M1203.2,373.7s12.14-3.74,24.62-1.23"/>
      <path class="cls-50" d="M1082.66,689.7s-43.15-8.57-53.81,17.02c-10.66,25.59,29.85,29.14,29.85,29.14,0,0,24.88-3.55,53.31,4.26l19.19,2.84s-11.37-27.01,9.95-38.38c0,0-43.06,.79-58.49-14.89Z"/>
      <path class="cls-54" d="M1141.15,704.59s28.73,6.36,39.55-5.84c0,0,10.68,32.8,23.09,33.87,0,0-41.94,12.41-72.59,10.35,0,0-11.57-26.16,9.95-38.38Z"/>
      <path class="cls-48" d="M1086.61,693.21s-32.41-6.23-45.38,7.82c0,0-10.92,9.31-5.84,27.7,0,0-12.94-5.6-6.54-22.02,0,0,6.28-24.13,53.81-17.02l3.95,3.51Z"/>
      <path class="cls-54" d="M1141.15,704.59s-38.72-.52-54.54-11.37c0,0-33.04-8.55-39.92,2.92,0,0-3.06,4.97,1.53,6.12,0,0-8.42,3.06-5.74,6.5,0,0-5.74,4.97-.38,8.42,0,0-5.74,3.06,0,6.12,0,0-6.12,5.36,.77,7.27,0,0,19.13,4.97,31.75,1.15s56.59,11.26,56.59,11.26"/>
      <path class="cls-29" d="M1064.58,689.25s4.09,23.16-5.87,46.61l13.79-.31s13.63-18.59,10.17-45.85l-18.09-.45Z"/>
      <path class="cls-29" d="M1097.48,698.38s4.26,21.32-6.09,37.77l10.97,1.83s7.29-15.03,4.89-36.91l-9.77-2.69Z"/>
      <path class="cls-29" d="M1134.25,705.09s5.07,28.1-6.19,37.17l10.17,.82s9.34-12.91,5.22-38.19l-9.19,.2Z"/>
      <line class="cls-15" x1="1048.22" y1="702.25" x2="1055.24" y2="702.97"/>
      <line class="cls-15" x1="1042.48" y1="708.76" x2="1050.85" y2="709.7"/>
      <line class="cls-15" x1="1042.1" y1="717.17" x2="1048.53" y2="718.06"/>
      <line class="cls-15" x1="1042.1" y1="723.29" x2="1047.14" y2="723.63"/>
      <g>
        <path class="cls-54" d="M1287.15,511.3l-3.65,57c-18.95,22.22-48.03,69.66-48.03,69.66,0,0-4.53,14.43-25.39,20.42-23.07,6.63-28.11,17.08-28.11,17.08l-20.64,32.02s-3.21,8.07,8.42,3.44c0,0,2.38,6.89,10-.06,0,0,3.94,1.99,6.72-.14,.92-.71,2.96-2.15,4.85-5.46,0,0,11-14.05,16.99-17,0,0-11.38,10.78-12.9,15.99,0,0,3.28,5.81,10.6-2.61,5.61-6.45,13.32-11.93,13.32-11.93,0,0,20.57-5.94,25.81-18.08l12.69-7.17c43.57-20.02,61.63-62.82,67.51-78.5,5.88-15.68,7.17-23.39,6.51-75.02,0,0-34.17,5.26-44.69,.38Z"/>
        <path class="cls-3" d="M1186.9,684.6s-14.11,17.38-17.15,26.32c0,0-7.46,3.89-8.24,0-.78-3.89,.91-5.32,.91-5.32"/>
        <path class="cls-3" d="M1196.55,686.06c-9.85,10.6-16.8,24.8-16.8,24.8,0,0-7.21,7.19-10,.06"/>
      </g>
    </g>
    <g>
      <rect class="cls-52" x="854.74" y="101.82" width="121.84" height="141.68"/>
      <rect class="cls-35" x="865.29" y="111.18" width="102.95" height="123.45"/>
      <g>
        <path class="cls-34" d="M900.58,155.14s-15.48-25.96,.75-31.7c0,0,20.97-2.25,6.99,31.2l-2.5,4.74-5.24-4.24Z"/>
        <path class="cls-34" d="M905.48,155.13s10.45-28.36,25.12-19.36c0,0,14.93,14.89-19.86,25.06l-5.26,1.04v-6.74Z"/>
        <path class="cls-34" d="M911.07,160.21s25.78-15.77,31.71,.39c0,0,2.48,20.94-31.12,7.34l-4.77-2.44,4.18-5.29Z"/>
        <path class="cls-34" d="M913.97,164.61s28.25,10.75,19.09,25.32c0,0-15.04,14.78-24.85-20.12l-.99-5.27,6.74,.07Z"/>
        <path class="cls-34" d="M905.6,170.28s19.42,23.16,4.31,31.41c0,0-20.34,5.56-11.87-29.69l1.71-5.08,5.85,3.35Z"/>
        <path class="cls-34" d="M905.16,174.22s-10.63,28.29-25.24,19.19c0,0-14.84-14.98,20.02-24.93l5.26-1.01-.05,6.74Z"/>
        <path class="cls-34" d="M898.03,171.67s-27.38,12.81-31.47-3.91c0,0-.14-21.09,31.74-3.84l4.47,2.96-4.75,4.79Z"/>
        <path class="cls-34" d="M897.42,162.16s-29.58-6.19-22.82-22.01c0,0,12.54-16.95,27.69,15.98l1.8,5.05-6.67,.98Z"/>
        <circle class="cls-37" cx="905.05" cy="164.77" r="9.19"/>
      </g>
      <g>
        <path class="cls-38" d="M936.1,174.18s-11.8-19.79,.57-24.16c0,0,15.98-1.71,5.33,23.78l-1.9,3.62-4-3.23Z"/>
        <path class="cls-38" d="M939.83,174.18s7.97-21.62,19.15-14.75c0,0,11.38,11.35-15.14,19.1l-4.01,.79v-5.14Z"/>
        <path class="cls-38" d="M944.1,178.05s19.65-12.02,24.17,.3c0,0,1.89,15.96-23.72,5.59l-3.64-1.86,3.19-4.03Z"/>
        <path class="cls-38" d="M946.31,181.41s21.53,8.19,14.55,19.3c0,0-11.47,11.26-18.94-15.34l-.75-4.02,5.14,.06Z"/>
        <path class="cls-38" d="M939.92,185.73s14.8,17.65,3.29,23.95c0,0-15.51,4.24-9.05-22.63l1.3-3.87,4.46,2.56Z"/>
        <path class="cls-38" d="M939.59,188.73s-8.11,21.56-19.24,14.63c0,0-11.31-11.42,15.26-19l4.01-.77-.04,5.14Z"/>
        <path class="cls-38" d="M934.16,186.78s-20.87,9.76-23.99-2.98c0,0-.11-16.07,24.2-2.93l3.41,2.25-3.62,3.65Z"/>
        <path class="cls-38" d="M933.69,179.54s-22.55-4.72-17.4-16.78c0,0,9.56-12.92,21.11,12.18l1.37,3.85-5.09,.75Z"/>
        <circle class="cls-37" cx="939.5" cy="181.53" r="7"/>
      </g>
    </g>
    <g>
      <circle class="cls-27" cx="1266.23" cy="165.35" r="64.33"/>
      <polyline class="cls-44" points="1264.07 165.35 1266.73 126.18 1268.91 167.63"/>
      <line class="cls-20" x1="1209.61" y1="165.67" x2="1220.17" y2="165.67"/>
      <line class="cls-20" x1="1312.38" y1="165.67" x2="1322.94" y2="165.67"/>
      <line class="cls-20" x1="1266.63" y1="108.66" x2="1266.63" y2="119.21"/>
      <line class="cls-20" x1="1266.63" y1="211.42" x2="1266.63" y2="221.98"/>
      <polygon class="cls-44" points="1268.96 167.77 1246.44 178.75 1263.74 164.8 1268.96 167.77"/>
    </g>
    <g>
      <path class="cls-46" d="M589.24,614.46c-2.88,23.42,32.88,31.99,32.88,31.99,37.16-.38,119.15-31.78,119.15-31.78,2.8-16.38-11.96-26.98-11.96-26.98,0,0-57.67-13.39-93.24-6.53,0,0-8.34-112.65-35.65-137.06"/>
      <path class="cls-46" d="M478.82,366.32s-2.41,25.61-14.41,45.99c0,0,5.15,71.15,60.79,76.01,0,0,38.36-28.95,21.36-75.5l-67.73-46.51Z"/>
      <g>
        <polygon class="cls-47" points="460.47 399.08 471.04 398.48 467.32 407.27 460.47 399.08"/>
        <path class="cls-36" d="M453.36,408.09s-45.87,13.07-69.49,37.18c0,0-18.44,14.14-25.29,38.11,0,0-7.3,63.68-1.82,107.95,0,0,26.01,10.43,38.07,8.82l-19.46,99.87s38.68,77.01,152.18,78.49c0,0,46.65,.55,70.79-24.05,0,0,21.67-71.83,19.94-172.08,0,0,19.69-4.79,28.63-8.46l-21.3-81.55s-.96-30.64-31.18-51.43c0,0-22.87-17.09-39.88-24.02l-33.1,24.15-3.05,44.93-13.32-38.43s-1.86-11.19-51.71-39.47Z"/>
        <path class="cls-55" d="M453.36,408.09s43.18,25.18,51.71,39.47l-1.18-14.16s-32.02-19.76-43.42-34.33l-7.11,9.01Z"/>
        <path class="cls-55" d="M538.97,407.38s16.19-.51,15.57,9.53l-33.1,24.15-1.07-8.37s15.61-7.48,25.85-19.58c0,0-6.87-.89-7.26-5.73Z"/>
        <path class="cls-10" d="M518.39,485.99s10.87,93.67,9.15,292.52"/>
        <ellipse class="cls-49" cx="508.98" cy="491.55" rx="2.58" ry="2.68"/>
        <ellipse class="cls-49" cx="515.52" cy="536.51" rx="2.58" ry="2.68"/>
        <ellipse class="cls-49" cx="518.75" cy="585.19" rx="2.58" ry="2.68"/>
        <ellipse class="cls-49" cx="519.65" cy="629.6" rx="2.58" ry="2.68"/>
        <ellipse class="cls-49" cx="520.96" cy="685.44" rx="2.58" ry="2.68"/>
        <ellipse class="cls-49" cx="521.59" cy="745.29" rx="2.58" ry="2.68"/>
        <path class="cls-49" d="M442.88,515.85l2.22,39.99s22.88,22.01,46.65,0v-43.69s-16.29,9.63-48.87,3.7Z"/>
        <path class="cls-49" d="M549.5,515.85l2.22,39.99s22.88,22.01,46.65,0v-43.69s-16.29,9.63-48.87,3.7Z"/>
        <path class="cls-49" d="M443.38,650.04l2.52,45.32s25.93,24.94,52.87,0v-49.51s-18.46,10.91-55.39,4.2Z"/>
        <path class="cls-49" d="M548.18,639.14l2.52,45.32s25.93,24.94,52.87,0v-49.51s-18.46,10.91-55.39,4.2Z"/>
        <path class="cls-8" d="M439.08,414.08s45.68,93.76,29.39,359.22"/>
        <path class="cls-8" d="M445.29,411.83s45.06,97.14,28.77,362.6"/>
        <path class="cls-8" d="M451.31,409.15s45.16,100.2,28.87,365.66"/>
        <path class="cls-8" d="M432.87,416.91s45.93,90.19,29.64,355.65"/>
        <path class="cls-8" d="M553.59,417.06s42.03,90.31,14.17,354.8"/>
        <path class="cls-8" d="M561.65,421.39s39.69,84.01,11.82,348.51"/>
        <path class="cls-8" d="M569.85,425.49s38.37,76.57,10.51,341.06"/>
        <path class="cls-8" d="M547.26,419.61s42.06,89.72,14.2,354.22"/>
      </g>
      <path class="cls-22" d="M630.35,979.36s-8.47,12.12-5.15,29.62c0,0,11.79,18.88,58.52,18.22,0,0,34.54,25.25,78.28,16.95,0,0,36.1-5.31,10.19-31,0,0-33.99-31.34-63.94-39.59,0,0-26.58,22.14-77.9,5.81Z"/>
      <path class="cls-22" d="M558.53,991.76s-8.62,12.4-5.18,30.25c0,0,12.09,19.24,59.79,18.45,0,0,35.33,25.69,79.96,17.1,0,0,36.84-5.52,10.32-31.68,0,0-34.78-31.91-65.38-40.25,0,0-27.08,22.67-79.51,6.13Z"/>
      <path class="cls-46" d="M581.84,275.86s10.91,17.25,6,57.27c0,0-2.13,9.57-1.35,14.82,.79,5.26-1.41,13.5-1.84,19.4-2.44,33.34-18.47,42.08-18.47,42.08,0,0-5.24,10.59-24.22,9.88s-37.21-7.79-43.65-16.11c-6.44-8.32-20.43-22.73-21.53-35.1,0,0-11.38,2.02-15.32-11.74,0,0-11.25-21.64,1.26-26.54,12.51-4.9,18.79,12.39,18.79,12.39,0,0-16.63-50.26,12.29-68.33,0,0,40.35-27.46,88.05,1.98Z"/>
      <path class="cls-36" d="M541.87,319.16s-15.91-4.6-29.82,1.3c0,0,6.79-10.78,30.21-6.02,0,0,3.88,2.97-.39,4.72Z"/>
      <path class="cls-36" d="M589.45,325.03c-10.87-3.84-16.96-1.54-16.96-1.54-3.88-2.51,.48-4.72,.48-4.72,7.45-.11,13.03,.96,17.19,2.49,0,0-.12,3.98-.71,3.77Z"/>
      <path class="cls-4" d="M461.57,338.8s5.33-6.44,9.69,1.2c4.36,7.63,4.38,10.02,4.38,10.02,0,0-6.12-12.04-10.02-3.34"/>
      <path class="cls-18" d="M458.4,331.81s9.77-7.67,16.05,2.15c6.27,9.82,4.82,14.03,4.82,14.03l6.32,.29s-18.59-34.39,3.31-46.41c0,0-3.16-25.29,16.07-27.76,19.22-2.46,29.55-20.68,79.21,5.72,0,0,6.36-28.15-44.49-38.86,0,0-34.36-7.64-45.55,9.4,0,0-23.18,.86-31.42,30.93-8.25,30.07-4.31,50.51-4.31,50.51Z"/>
      <path class="cls-59" d="M540.1,419.03s-14.88,.29-27.66-6.03c0,0-10.27-3.19-19.96-16.42,0,0,12.13,19.68,32.26,23.45,.1,.02,.19,.03,.29,.04,.93,.16,4.45,1.65,12.37,1.49,0,0,.58,.1,2.71-2.54Z"/>
      <path class="cls-2" d="M529.5,294.47s14.68,3.18,21.55,5.52c6.86,2.33,27.79-.92,27.79-.92"/>
      <path class="cls-36" d="M543.83,365.6s-10.31,6.18-18.26,6.77c0,0,1.08,3.16,4.43,2.94,0,0,13.49-1.5,20.64,2.53,0,0,9.8-1.21,18.45,2.01,0,0,.96,.79,2.95,.58,0,0-8.58-7.69-7.91-11.27,0,0-8.22,3.18-13.58-3.17,0,0-2.5,.95-6.71-.4Z"/>
      <path class="cls-4" d="M558.91,339.31l6.88,20.42s2.67,11.13-6.22,10.43c-7.38-.58-7.59-2.92-7.59-2.92"/>
      <path class="cls-2" d="M521.7,377.54s-.63-8.45,4.51-10.06c5.14-1.61,8.36-11.19,8.36-11.19"/>
      <g>
        <path class="cls-29" d="M521.35,329.66s.03-.44,.38-.77c1.15-1.12,3.78-3.19,7.65-2.91,4.34,.31,6.44,4.56,7.15,6.07,.12,.26,.09,.48,.09,.48,0,0,0,.24-.16,.4-.75,.75-3.22,2.83-7.33,2.6-2.45-.14-5.79-1.7-7.67-5.17-.13-.24-.12-.54-.1-.69Z"/>
        <circle class="cls-59" cx="530.24" cy="331.07" r="4.5"/>
        <circle class="cls-29" cx="528.43" cy="328.27" r="1.23"/>
        <path class="cls-5" d="M536.79,332.07s-4.54-10.73-15.23-3.23"/>
      </g>
      <g>
        <path class="cls-29" d="M571.61,337.04s-.04-.41,.24-.77c.91-1.21,3.06-3.51,6.7-3.8,4.08-.33,6.64,3.32,7.51,4.62,.15,.22,.16,.43,.16,.43,0,0,.03,.23-.09,.4-.59,.81-2.59,3.09-6.44,3.47-2.3,.22-5.62-.75-7.88-3.71-.16-.21-.19-.48-.2-.63Z"/>
        <circle class="cls-59" cx="580.09" cy="337.07" r="4.21"/>
        <circle class="cls-29" cx="577.79" cy="334.43" r="1.18"/>
        <path class="cls-5" d="M586.14,337.22s-5.49-9.94-14.41-.77"/>
      </g>
      <path class="cls-42" d="M375.37,700.03s-33.8,111.29,63.86,113.07c97.66,1.78,118.59,2.13,118.59,2.13,0,0-10.92,103.74-3.82,176.54,.31,5.35,63.75,18.62,84.04-5.89,0,0,21.06-91.68,26.38-168.03,0,0-29.86,102.22-26.38,164.76,0,0,57.07,14.69,78.33-13.88,0,0,31.51-157.99,15.53-205.93-15.98-47.94-121.42-75.44-121.42-75.44,0,0-80.91,82.74-235.11,12.66Z"/>
      <path class="cls-9" d="M563.34,732.78s82.05,20.8,99.46,46.41c17.06,25.09-24.75,203.41-24.75,203.41"/>
      <g>
        <path class="cls-46" d="M437.79,581.94c0,12.38-6.01,36.43-6.01,36.43,12.02,12.73,85.59,90.18,85.59,90.18,0,0,12.46,16.64,37.43,16.48,27.63-.18,36.59,9.72,36.59,9.72l33.2,28.65s6.17,7.87-8.18,6.54c0,0-.39,8.39-11.06,3.18,0,0-3.71,3.48-7.46,2.03-1.25-.48-3.96-1.42-7.13-4.46,0,0-16.71-11.94-24.29-13.25,0,0,16.07,8.2,19.44,13.47,0,0-1.73,7.48-12.55,.56-8.29-5.3-18.58-8.85-18.58-8.85,0,0-24.64,.13-34.38-11.58l-19.18-4.55s-111-38.81-131.03-85.54c-20.03-46.74,0,0,0,0,0,0-10.01-42.56-7.09-67.6"/>
        <path class="cls-15" d="M588.92,746.45s21.23,14.61,27.49,23.49"/>
        <path class="cls-15" d="M605.35,773.12s-12.29-13.42-26.61-21.93"/>
      </g>
      <g>
        <path class="cls-51" d="M458.46,281.7s10.07-32.39,15.74-40.42c5.67-8.03,68.03-22.11,87.87-8.41,0,0,3.78,6.61,2.83,9.45"/>
        <path class="cls-30" d="M460.07,316.51s-46.07,4.27-47.74-1.44c-3.88-13.27,26.84-25.43,26.84-25.43,0,0,73.34-31.54,99.82-43.94,20.05-9.38,66.54-24.63,76.46-2.9,9.92,21.73-29.29,46.76-29.29,46.76,0,0-78.74-9.31-126.09,17.99,0,0-1.28,5.12,0,8.96Z"/>
        <path class="cls-6" d="M586.16,289.56s36.19-29.18,13.41-42.16c-18.32-10.44-49.35,3.35-80.75,22.67-31.39,19.32-78.89,32.2-78.89,32.2,0,0-19.3,12.39,20.13,14.24"/>
      </g>
      <path class="cls-10" d="M429.67,490.66s11.93,46.09,7.05,85.68"/>
      <path class="cls-46" d="M729.32,587.68c2.98-.21,5.88-.37,8.66-.47,0,0,5.64-14.06,31.81-13.91l17.3-5.96s10.38-.75,4.61,7.63c0,0-6.16,3.66-11.22,5.66l9.42,8.95s-.15-1.86,6.27,1.21c5.21,2.49,3.25,3.65,3.25,3.65,0,0,6.75-5.38,14.6-9.31,5.11-2.55,7.83-6.75,13.02-3.02,0,0,4.47,3.99-3.64,9.45l-16.64,15.26-33.32,5.37-23.32-2.34-8.83,4.8"/>
      <path class="cls-23" d="M776.04,577.51s2.77,1.48,4.42,3.19"/>
      <path class="cls-23" d="M758.03,599.79s11.72-8.52,17.19-8.13c0,0,2.32,.4,5.93-3.35,3.43-3.57,4.88-8.47,8.51-6.59,5.27,2.72,.23,7.87,.23,7.87l-10.58,11.84"/>
      <path class="cls-23" d="M737.98,587.21s.73,5.97,6.12,10.76"/>
      <path class="cls-23" d="M786.85,592.97l4.62-4.71,1.65-7.77s1.06-3.87,5.11-3.56c4.52,.34,3.84,5.67,3.84,5.67l-3.05,10.22-8.98,10.46"/>
      <path class="cls-23" d="M799.03,592.81l2.8-2.27,1.65-7.77s1.06-3.87,5.11-3.56c4.52,.34,3.84,5.67,3.84,5.67l-3.05,10.22-8.98,10.46"/>
      <path class="cls-43" d="M531.41,377.64s8.61-1.68,18.24,2.21c0,0,8.77-.79,16.3,1.75,0,0-2.35,13.76-15.67,15.43-13.32,1.67-19.99-11.32-18.87-19.39Z"/>
      <path class="cls-39" d="M533.38,378.84s-1.44,12.24,14.5,13.96c14.47,1.56,15.76-9.34,15.76-9.34,0,0-16.38-1.02-30.26-4.62Z"/>
      <path class="cls-29" d="M535.34,379.23s3.37,4.95,15.77,5.68c0,0,7.53,2.35,11.16-1.35,0,0-15.93-1.36-26.92-4.33Z"/>
    </g>
  </g>
</svg>