<?xml version="1.0" encoding="UTF-8"?>
<svg xmlns="http://www.w3.org/2000/svg" viewBox="0 0 1335.08 998.97">
  <defs>
    <style>
      .cls-1 {
        stroke-width: .4px;
      }

      .cls-1, .cls-2, .cls-3, .cls-4, .cls-5, .cls-6, .cls-7, .cls-8, .cls-9, .cls-10, .cls-11, .cls-12, .cls-13, .cls-14, .cls-15, .cls-16, .cls-17, .cls-18, .cls-19, .cls-20, .cls-21 {
        stroke-miterlimit: 10;
      }

      .cls-1, .cls-2, .cls-7, .cls-11 {
        stroke: #231f20;
      }

      .cls-1, .cls-2, .cls-7, .cls-11, .cls-12, .cls-13, .cls-14, .cls-15, .cls-16, .cls-20, .cls-21 {
        fill: none;
      }

      .cls-2 {
        stroke-width: .8px;
      }

      .cls-3 {
        stroke-width: .3px;
      }

      .cls-3, .cls-22, .cls-5, .cls-9 {
        fill: #fff;
      }

      .cls-3, .cls-14 {
        stroke: #6d6e71;
      }

      .cls-23 {
        fill: #f7daa6;
      }

      .cls-24 {
        fill: #f9edde;
      }

      .cls-25 {
        fill: #01a04c;
      }

      .cls-26 {
        fill: #eeece8;
      }

      .cls-27 {
        fill: #efaf9e;
      }

      .cls-28, .cls-18 {
        fill: #eae1d3;
      }

      .cls-29, .cls-4 {
        fill: #e6e7e8;
      }

      .cls-30 {
        fill: #f6ac1b;
      }

      .cls-31 {
        fill: #fbc5b3;
      }

      .cls-32 {
        fill: #803435;
      }

      .cls-33 {
        fill: #87664d;
      }

      .cls-34 {
        fill: #8b5e3c;
      }

      .cls-35 {
        fill: #b19074;
      }

      .cls-36 {
        fill: #ae8578;
      }

      .cls-37 {
        fill: #b1dcc4;
      }

      .cls-38 {
        fill: #a97c50;
      }

      .cls-39 {
        fill: #a3d7bb;
      }

      .cls-40, .cls-19 {
        fill: #be9e7d;
      }

      .cls-41 {
        fill: #bfbfbf;
      }

      .cls-42 {
        fill: #dad0c1;
      }

      .cls-43 {
        fill: #d1d3d4;
      }

      .cls-44 {
        fill: #d1b29d;
      }

      .cls-45 {
        fill: #e2c799;
      }

      .cls-46 {
        fill: #c49a6c;
      }

      .cls-47 {
        fill: #d5b79f;
      }

      .cls-48 {
        fill: #dcbf97;
      }

      .cls-49 {
        fill: #d4d5d6;
      }

      .cls-50, .cls-17 {
        fill: #e0d5c6;
      }

      .cls-51 {
        fill: #c6837e;
      }

      .cls-52 {
        fill: #0f3e5d;
      }

      .cls-53 {
        fill: #808285;
      }

      .cls-54 {
        fill: #26130f;
      }

      .cls-4 {
        stroke: #58595b;
        stroke-width: .2px;
      }

      .cls-5, .cls-6, .cls-8, .cls-20, .cls-21 {
        stroke-width: .5px;
      }

      .cls-5, .cls-9, .cls-13, .cls-19, .cls-21 {
        stroke: #603913;
      }

      .cls-6 {
        fill: #fff200;
      }

      .cls-6, .cls-8, .cls-20 {
        stroke: #fff;
      }

      .cls-7, .cls-19 {
        stroke-width: .7px;
      }

      .cls-8 {
        fill: #754c29;
      }

      .cls-10 {
        fill: #ba9777;
      }

      .cls-10, .cls-15 {
        stroke: #754c29;
      }

      .cls-12 {
        stroke: #d1d3d4;
      }

      .cls-16 {
        stroke: #cfe5ae;
      }

      .cls-17 {
        stroke: #e0d5c6;
        stroke-width: 1.5px;
      }

      .cls-18 {
        stroke: #8b5e3c;
        stroke-width: 3px;
      }
    </style>
  </defs>
  <g id="Layer_2" data-name="Layer 2">
    <rect class="cls-39" x=".23" width="1333.64" height="936.16"/>
    <g>
      <path class="cls-26" d="M461.73,499.57v-159.1s2.82-43.31,76.98-43.31h639.41s50.68,2.8,45.61,42.89v297.12H488.44l-26.71-137.6Z"/>
      <rect class="cls-50" x="384.91" y="786.19" width="921.71" height="93.02"/>
      <rect class="cls-33" x="415.42" y="878.06" width="63.25" height="54.05"/>
      <rect class="cls-33" x="1217.18" y="878.06" width="63.25" height="54.05"/>
      <path class="cls-50" d="M443.23,499.4h53.77s28.69,6.88,28.69,31.28v111.16h-92s9.54-142.44,9.54-142.44Z"/>
      <path class="cls-50" d="M1248.04,499.4h-53.77s-28.69,6.88-28.69,31.28v111.16h92l-9.54-142.44Z"/>
      <rect class="cls-26" x="375.11" y="499.4" width="108.52" height="166.02" rx="7.12" ry="7.12"/>
      <rect class="cls-26" x="1202.42" y="499.4" width="108.52" height="166.02" rx="7.12" ry="7.12"/>
      <rect class="cls-26" x="352.26" y="632.51" width="980.65" height="153.69" rx="4.21" ry="4.21"/>
      <line class="cls-17" x1="356.98" y1="632.55" x2="1329.2" y2="632.55"/>
    </g>
    <rect class="cls-24" y="930.38" width="1335.08" height="68.59"/>
    <g>
      <polygon class="cls-34" points="119.26 945.31 96.77 945.31 85.21 730.68 134.52 730.68 119.26 945.31"/>
      <polygon class="cls-34" points="279.82 945.31 257.33 945.31 245.77 730.68 295.08 730.68 279.82 945.31"/>
      <polygon class="cls-34" points="232.69 931.1 210.21 931.1 198.64 638.25 247.95 638.25 232.69 931.1"/>
      <polygon class="cls-34" points="395.23 931.1 372.75 931.1 361.18 638.25 410.49 638.25 395.23 931.1"/>
      <polygon class="cls-38" points="412.27 635.66 204.84 635.66 83.33 732.64 299.29 732.64 412.27 635.66"/>
      <polygon class="cls-34" points="412.27 635.66 299.29 732.64 83.33 732.64 83.33 759.67 300.57 759.67 413.78 655.66 412.27 635.66"/>
      <polygon class="cls-38" points="102.86 393.32 225.18 338.05 225.18 636.8 102.86 731.82 102.86 393.32"/>
      <polygon class="cls-34" points="225.18 338.05 198.2 338.05 90.29 388.98 90.29 732.64 102.86 731.82 102.86 393.32 225.18 338.05"/>
      <line class="cls-9" x1="102.86" y1="731.82" x2="225.18" y2="636.8"/>
    </g>
    <g>
      <rect class="cls-37" x="299.72" y="203.3" width="103.08" height="102.45"/>
      <path class="cls-53" d="M345.94,213.71s-6.54,29.74-37.12,35.86v-36.09l37.12,.23Z"/>
      <path class="cls-53" d="M355.28,213.71s6.54,29.74,37.12,35.86v-36.09s-37.12,.23-37.12,.23Z"/>
      <path class="cls-53" d="M345.94,295.31s-6.54-29.74-37.12-35.86v36.09l37.12-.23Z"/>
      <path class="cls-53" d="M355.28,295.31s6.54-29.74,37.12-35.86v36.09s-37.12-.23-37.12-.23Z"/>
      <path class="cls-53" d="M350.61,226.25s-6.2,17.84-28.01,27.51c0,0,26.02,11.15,28.01,28.75,0,0,8.43-21.07,28.5-28.01,0,0-19.83-10.16-28.5-28.25Z"/>
    </g>
    <g>
      <rect class="cls-37" x="201.84" y="203.3" width="103.08" height="102.45"/>
      <path class="cls-53" d="M248.07,213.71s-6.54,29.74-37.12,35.86v-36.09l37.12,.23Z"/>
      <path class="cls-53" d="M257.4,213.71s6.54,29.74,37.12,35.86v-36.09s-37.12,.23-37.12,.23Z"/>
      <path class="cls-53" d="M248.07,295.31s-6.54-29.74-37.12-35.86v36.09l37.12-.23Z"/>
      <path class="cls-53" d="M257.4,295.31s6.54-29.74,37.12-35.86v36.09s-37.12-.23-37.12-.23Z"/>
      <path class="cls-53" d="M252.73,226.25s-6.2,17.84-28.01,27.51c0,0,26.02,11.15,28.01,28.75,0,0,8.43-21.07,28.5-28.01,0,0-19.83-10.16-28.5-28.25Z"/>
    </g>
    <g>
      <rect class="cls-37" x="103.96" y="203.3" width="103.08" height="102.45"/>
      <path class="cls-53" d="M150.19,213.71s-6.54,29.74-37.12,35.86v-36.09l37.12,.23Z"/>
      <path class="cls-53" d="M159.52,213.71s6.54,29.74,37.12,35.86v-36.09s-37.12,.23-37.12,.23Z"/>
      <path class="cls-53" d="M150.19,295.31s-6.54-29.74-37.12-35.86v36.09l37.12-.23Z"/>
      <path class="cls-53" d="M159.52,295.31s6.54-29.74,37.12-35.86v36.09s-37.12-.23-37.12-.23Z"/>
      <path class="cls-53" d="M154.85,226.25s-6.2,17.84-28.01,27.51c0,0,26.02,11.15,28.01,28.75,0,0,8.43-21.07,28.5-28.01,0,0-19.83-10.16-28.5-28.25Z"/>
    </g>
    <g>
      <rect class="cls-37" x="8.29" y="203.3" width="103.08" height="102.45"/>
      <path class="cls-53" d="M54.51,213.71s-6.54,29.74-37.12,35.86v-36.09l37.12,.23Z"/>
      <path class="cls-53" d="M63.84,213.71s6.54,29.74,37.12,35.86v-36.09s-37.12,.23-37.12,.23Z"/>
      <path class="cls-53" d="M54.51,295.31s-6.54-29.74-37.12-35.86v36.09l37.12-.23Z"/>
      <path class="cls-53" d="M63.84,295.31s6.54-29.74,37.12-35.86v36.09s-37.12-.23-37.12-.23Z"/>
      <path class="cls-53" d="M59.18,226.25s-6.2,17.84-28.01,27.51c0,0,26.02,11.15,28.01,28.75,0,0,8.43-21.07,28.5-28.01,0,0-19.83-10.16-28.5-28.25Z"/>
    </g>
    <g>
      <rect class="cls-37" x="299.72" y="104.61" width="103.08" height="102.45"/>
      <path class="cls-53" d="M345.94,115.02s-6.54,29.74-37.12,35.86v-36.09l37.12,.23Z"/>
      <path class="cls-53" d="M355.28,115.02s6.54,29.74,37.12,35.86v-36.09s-37.12,.23-37.12,.23Z"/>
      <path class="cls-53" d="M345.94,196.62s-6.54-29.74-37.12-35.86v36.09l37.12-.23Z"/>
      <path class="cls-53" d="M355.28,196.62s6.54-29.74,37.12-35.86v36.09s-37.12-.23-37.12-.23Z"/>
      <path class="cls-53" d="M350.61,127.56s-6.2,17.84-28.01,27.51c0,0,26.02,11.15,28.01,28.75,0,0,8.43-21.07,28.5-28.01,0,0-19.83-10.16-28.5-28.25Z"/>
    </g>
    <g>
      <rect class="cls-37" x="201.84" y="104.61" width="103.08" height="102.45"/>
      <path class="cls-53" d="M248.07,115.02s-6.54,29.74-37.12,35.86v-36.09l37.12,.23Z"/>
      <path class="cls-53" d="M257.4,115.02s6.54,29.74,37.12,35.86v-36.09s-37.12,.23-37.12,.23Z"/>
      <path class="cls-53" d="M248.07,196.62s-6.54-29.74-37.12-35.86v36.09l37.12-.23Z"/>
      <path class="cls-53" d="M257.4,196.62s6.54-29.74,37.12-35.86v36.09s-37.12-.23-37.12-.23Z"/>
      <path class="cls-53" d="M252.73,127.56s-6.2,17.84-28.01,27.51c0,0,26.02,11.15,28.01,28.75,0,0,8.43-21.07,28.5-28.01,0,0-19.83-10.16-28.5-28.25Z"/>
    </g>
    <g>
      <rect class="cls-37" x="103.96" y="104.61" width="103.08" height="102.45"/>
      <path class="cls-53" d="M150.19,115.02s-6.54,29.74-37.12,35.86v-36.09l37.12,.23Z"/>
      <path class="cls-53" d="M159.52,115.02s6.54,29.74,37.12,35.86v-36.09s-37.12,.23-37.12,.23Z"/>
      <path class="cls-53" d="M150.19,196.62s-6.54-29.74-37.12-35.86v36.09l37.12-.23Z"/>
      <path class="cls-53" d="M159.52,196.62s6.54-29.74,37.12-35.86v36.09s-37.12-.23-37.12-.23Z"/>
      <path class="cls-53" d="M154.85,127.56s-6.2,17.84-28.01,27.51c0,0,26.02,11.15,28.01,28.75,0,0,8.43-21.07,28.5-28.01,0,0-19.83-10.16-28.5-28.25Z"/>
    </g>
    <g>
      <rect class="cls-37" x="8.29" y="104.61" width="103.08" height="102.45"/>
      <path class="cls-53" d="M54.51,115.02s-6.54,29.74-37.12,35.86v-36.09l37.12,.23Z"/>
      <path class="cls-53" d="M63.84,115.02s6.54,29.74,37.12,35.86v-36.09s-37.12,.23-37.12,.23Z"/>
      <path class="cls-53" d="M54.51,196.62s-6.54-29.74-37.12-35.86v36.09l37.12-.23Z"/>
      <path class="cls-53" d="M63.84,196.62s6.54-29.74,37.12-35.86v36.09s-37.12-.23-37.12-.23Z"/>
      <path class="cls-53" d="M59.18,127.56s-6.2,17.84-28.01,27.51c0,0,26.02,11.15,28.01,28.75,0,0,8.43-21.07,28.5-28.01,0,0-19.83-10.16-28.5-28.25Z"/>
    </g>
    <g>
      <rect class="cls-37" x="299.72" y="6.85" width="103.08" height="102.45"/>
      <path class="cls-53" d="M345.94,17.26s-6.54,29.74-37.12,35.86V17.03l37.12,.23Z"/>
      <path class="cls-53" d="M355.28,17.26s6.54,29.74,37.12,35.86V17.03s-37.12,.23-37.12,.23Z"/>
      <path class="cls-53" d="M345.94,98.86s-6.54-29.74-37.12-35.86v36.09l37.12-.23Z"/>
      <path class="cls-53" d="M355.28,98.86s6.54-29.74,37.12-35.86v36.09s-37.12-.23-37.12-.23Z"/>
      <path class="cls-53" d="M350.61,29.8s-6.2,17.84-28.01,27.51c0,0,26.02,11.15,28.01,28.75,0,0,8.43-21.07,28.5-28.01,0,0-19.83-10.16-28.5-28.25Z"/>
    </g>
    <g>
      <rect class="cls-37" x="201.84" y="6.85" width="103.08" height="102.45"/>
      <path class="cls-53" d="M248.07,17.26s-6.54,29.74-37.12,35.86V17.03l37.12,.23Z"/>
      <path class="cls-53" d="M257.4,17.26s6.54,29.74,37.12,35.86V17.03s-37.12,.23-37.12,.23Z"/>
      <path class="cls-53" d="M248.07,98.86s-6.54-29.74-37.12-35.86v36.09l37.12-.23Z"/>
      <path class="cls-53" d="M257.4,98.86s6.54-29.74,37.12-35.86v36.09s-37.12-.23-37.12-.23Z"/>
      <path class="cls-53" d="M252.73,29.8s-6.2,17.84-28.01,27.51c0,0,26.02,11.15,28.01,28.75,0,0,8.43-21.07,28.5-28.01,0,0-19.83-10.16-28.5-28.25Z"/>
    </g>
    <g>
      <rect class="cls-37" x="103.96" y="6.85" width="103.08" height="102.45"/>
      <path class="cls-53" d="M150.19,17.26s-6.54,29.74-37.12,35.86V17.03l37.12,.23Z"/>
      <path class="cls-53" d="M159.52,17.26s6.54,29.74,37.12,35.86V17.03s-37.12,.23-37.12,.23Z"/>
      <path class="cls-53" d="M150.19,98.86s-6.54-29.74-37.12-35.86v36.09l37.12-.23Z"/>
      <path class="cls-53" d="M159.52,98.86s6.54-29.74,37.12-35.86v36.09s-37.12-.23-37.12-.23Z"/>
      <path class="cls-53" d="M154.85,29.8s-6.2,17.84-28.01,27.51c0,0,26.02,11.15,28.01,28.75,0,0,8.43-21.07,28.5-28.01,0,0-19.83-10.16-28.5-28.25Z"/>
    </g>
    <g>
      <rect class="cls-37" x="8.29" y="6.85" width="103.08" height="102.45"/>
      <path class="cls-53" d="M54.51,17.26s-6.54,29.74-37.12,35.86V17.03l37.12,.23Z"/>
      <path class="cls-53" d="M63.84,17.26s6.54,29.74,37.12,35.86V17.03s-37.12,.23-37.12,.23Z"/>
      <path class="cls-53" d="M54.51,98.86s-6.54-29.74-37.12-35.86v36.09l37.12-.23Z"/>
      <path class="cls-53" d="M63.84,98.86s6.54-29.74,37.12-35.86v36.09s-37.12-.23-37.12-.23Z"/>
      <path class="cls-53" d="M59.18,29.8s-6.2,17.84-28.01,27.51c0,0,26.02,11.15,28.01,28.75,0,0,8.43-21.07,28.5-28.01,0,0-19.83-10.16-28.5-28.25Z"/>
    </g>
  </g>
  <g id="Layer_1" data-name="Layer 1">
    <g>
      <path class="cls-40" d="M228.48,287.02s-2.41,25.61-14.41,45.99c0,0,5.15,71.15,60.79,76.01,0,0,38.36-28.95,21.36-75.5l-67.73-46.51Z"/>
      <g>
        <polygon class="cls-41" points="210.13 319.78 220.7 319.18 216.98 327.98 210.13 319.78"/>
        <path class="cls-29" d="M203.02,328.79s-45.87,13.07-69.49,37.18c0,0-18.44,14.14-25.29,38.11,0,0-7.3,63.68-1.82,107.95,0,0,26.01,10.43,38.07,8.82l-19.46,99.87s38.68,77.01,152.18,78.49c0,0,46.65,.55,70.79-24.05,0,0,21.67-71.83,19.94-172.08,0,0,19.69-4.79,28.63-8.46l-21.3-81.55s-.96-30.64-31.18-51.43c0,0-22.87-17.09-39.88-24.02l-33.1,24.15-3.05,44.93-13.32-38.43s-1.86-11.19-51.71-39.47Z"/>
        <path class="cls-49" d="M203.02,328.79s43.18,25.18,51.71,39.47l-1.18-14.16s-32.02-19.76-43.42-34.33l-7.11,9.01Z"/>
        <path class="cls-49" d="M288.63,328.09s16.19-.51,15.57,9.53l-33.1,24.15-1.07-8.37s15.61-7.48,25.85-19.58c0,0-6.87-.89-7.26-5.73Z"/>
        <path class="cls-14" d="M268.05,406.7s10.87,93.67,9.15,292.52"/>
        <ellipse class="cls-43" cx="258.64" cy="412.25" rx="2.58" ry="2.68"/>
        <ellipse class="cls-43" cx="265.18" cy="457.22" rx="2.58" ry="2.68"/>
        <ellipse class="cls-43" cx="268.41" cy="505.9" rx="2.58" ry="2.68"/>
        <ellipse class="cls-43" cx="269.31" cy="550.31" rx="2.58" ry="2.68"/>
        <ellipse class="cls-43" cx="270.62" cy="606.14" rx="2.58" ry="2.68"/>
        <ellipse class="cls-43" cx="271.25" cy="665.99" rx="2.58" ry="2.68"/>
        <path class="cls-43" d="M192.54,436.56l2.22,39.99s22.88,22.01,46.65,0v-43.69s-16.29,9.63-48.87,3.7Z"/>
        <path class="cls-43" d="M299.16,436.56l2.22,39.99s22.88,22.01,46.65,0v-43.69s-16.29,9.63-48.87,3.7Z"/>
        <path class="cls-43" d="M193.04,570.74l2.52,45.32s25.93,24.94,52.87,0v-49.51s-18.46,10.91-55.39,4.2Z"/>
        <path class="cls-43" d="M297.84,559.85l2.52,45.32s25.93,24.94,52.87,0v-49.51s-18.46,10.91-55.39,4.2Z"/>
        <path class="cls-12" d="M188.74,334.79s45.68,93.76,29.39,359.22"/>
        <path class="cls-12" d="M194.95,332.53s45.06,97.14,28.77,362.6"/>
        <path class="cls-12" d="M200.97,329.85s45.16,100.2,28.87,365.66"/>
        <path class="cls-12" d="M182.53,337.61s45.93,90.19,29.64,355.65"/>
        <path class="cls-12" d="M303.25,337.77s42.03,90.31,14.17,354.8"/>
        <path class="cls-12" d="M311.31,342.09s39.69,84.01,11.82,348.51"/>
        <path class="cls-12" d="M319.51,346.19s38.37,76.57,10.51,341.06"/>
        <path class="cls-12" d="M296.92,340.32s42.06,89.72,14.2,354.22"/>
      </g>
      <path class="cls-8" d="M380.01,900.06s-8.47,12.12-5.15,29.62c0,0,11.79,18.88,58.52,18.22,0,0,34.54,25.25,78.28,16.95,0,0,36.1-5.31,10.19-31,0,0-33.99-31.34-63.94-39.59,0,0-26.58,22.14-77.9,5.81Z"/>
      <path class="cls-8" d="M308.19,912.47s-8.62,12.4-5.18,30.25c0,0,12.09,19.24,59.79,18.45,0,0,35.33,25.69,79.96,17.1,0,0,36.84-5.52,10.32-31.68,0,0-34.78-31.91-65.38-40.25,0,0-27.08,22.67-79.51,6.13Z"/>
      <path class="cls-40" d="M331.5,196.57s10.91,17.25,6,57.27c0,0-2.13,9.57-1.35,14.82,.79,5.26-1.41,13.5-1.84,19.4-2.44,33.34-18.47,42.08-18.47,42.08,0,0-5.24,10.59-24.22,9.88s-37.21-7.79-43.65-16.11c-6.44-8.32-20.43-22.73-21.53-35.1,0,0-11.38,2.02-15.32-11.74,0,0-11.25-21.64,1.26-26.54,12.51-4.9,18.79,12.39,18.79,12.39,0,0-16.63-50.26,12.29-68.33,0,0,40.35-27.46,88.05,1.98Z"/>
      <path class="cls-29" d="M291.53,239.87s-15.91-4.6-29.82,1.3c0,0,6.79-10.78,30.21-6.02,0,0,3.88,2.97-.39,4.72Z"/>
      <path class="cls-29" d="M339.11,245.74c-10.87-3.84-16.96-1.54-16.96-1.54-3.88-2.51,.48-4.72,.48-4.72,7.45-.11,13.03,.96,17.19,2.49,0,0-.12,3.98-.71,3.77Z"/>
      <path class="cls-2" d="M211.23,259.5s5.33-6.44,9.69,1.2c4.36,7.63,4.38,10.02,4.38,10.02,0,0-6.12-12.04-10.02-3.34"/>
      <path class="cls-4" d="M208.06,252.52s9.77-7.67,16.05,2.15c6.27,9.82,4.82,14.03,4.82,14.03l6.32,.29s-18.59-34.39,3.31-46.41c0,0-3.16-25.29,16.07-27.76,19.22-2.46,29.55-20.68,79.21,5.72,0,0,6.36-28.15-44.49-38.86,0,0-34.36-7.64-45.55,9.4,0,0-23.18,.86-31.42,30.93-8.25,30.07-4.31,50.51-4.31,50.51Z"/>
      <path class="cls-54" d="M289.76,339.73s-14.88,.29-27.66-6.03c0,0-10.27-3.19-19.96-16.42,0,0,12.13,19.68,32.26,23.45,.1,.02,.19,.03,.29,.04,.93,.16,4.45,1.65,12.37,1.49,0,0,.58,.1,2.71-2.54Z"/>
      <path class="cls-1" d="M279.16,215.18s14.68,3.18,21.55,5.52c6.86,2.33,27.79-.92,27.79-.92"/>
      <path class="cls-29" d="M293.49,286.31s-10.31,6.18-18.26,6.77c0,0,1.08,3.16,4.43,2.94,0,0,13.49-1.5,20.64,2.53,0,0,9.8-1.21,18.45,2.01,0,0,.96,.79,2.95,.58,0,0-8.58-7.69-7.91-11.27,0,0-8.22,3.18-13.58-3.17,0,0-2.5,.95-6.71-.4Z"/>
      <path class="cls-2" d="M308.57,260.02l6.88,20.42s2.67,11.13-6.22,10.43c-7.38-.58-7.59-2.92-7.59-2.92"/>
      <path class="cls-1" d="M271.36,298.25s-.63-8.45,4.51-10.06c5.14-1.61,8.36-11.19,8.36-11.19"/>
      <g>
        <path class="cls-22" d="M271.01,250.37s.03-.44,.38-.77c1.15-1.12,3.78-3.19,7.65-2.91,4.34,.31,6.44,4.56,7.15,6.07,.12,.26,.09,.48,.09,.48,0,0,0,.24-.16,.4-.75,.75-3.22,2.83-7.33,2.6-2.45-.14-5.79-1.7-7.67-5.17-.13-.24-.12-.54-.1-.69Z"/>
        <circle class="cls-54" cx="279.9" cy="251.77" r="4.5"/>
        <circle class="cls-22" cx="278.09" cy="248.97" r="1.23"/>
        <path class="cls-7" d="M286.45,252.77s-4.54-10.73-15.23-3.23"/>
      </g>
      <g>
        <path class="cls-22" d="M321.27,257.75s-.04-.41,.24-.77c.91-1.21,3.06-3.51,6.7-3.8,4.08-.33,6.64,3.32,7.51,4.62,.15,.22,.16,.43,.16,.43,0,0,.03,.23-.09,.4-.59,.81-2.59,3.09-6.44,3.47-2.3,.22-5.62-.75-7.88-3.71-.16-.21-.19-.48-.2-.63Z"/>
        <circle class="cls-54" cx="329.75" cy="257.78" r="4.21"/>
        <circle class="cls-22" cx="327.45" cy="255.13" r="1.18"/>
        <path class="cls-7" d="M335.8,257.92s-5.49-9.94-14.41-.77"/>
      </g>
      <path class="cls-35" d="M125.03,620.73s-33.8,111.29,63.86,113.07c97.66,1.78,118.59,2.13,118.59,2.13,0,0-10.92,103.74-3.82,176.54,.31,5.35,63.75,18.62,84.04-5.89,0,0,21.06-91.68,26.38-168.03,0,0-29.86,102.22-26.38,164.76,0,0,57.07,14.69,78.33-13.88,0,0,31.51-157.99,15.53-205.93-15.98-47.94-121.42-75.44-121.42-75.44,0,0-80.91,82.74-235.11,12.66Z"/>
      <path class="cls-13" d="M313,653.49s82.05,20.8,99.46,46.41c17.06,25.09-24.75,203.41-24.75,203.41"/>
      <path class="cls-36" d="M279.09,302.51s11.14-6.67,16.06-5.46,5.36,1.99,5.36,1.99c0,0,4.69-2.2,6.81-.6s6.64,6.04,6.87,9.14c0,0-6.51,6.72-15.45,5.88s-16.88-4.24-19.65-10.95Z"/>
      <g>
        <path class="cls-40" d="M187.45,502.64c0,12.38-6.01,36.43-6.01,36.43,12.02,12.73,85.59,90.18,85.59,90.18,0,0,12.46,16.64,37.43,16.48,27.63-.18,36.59,9.72,36.59,9.72l33.2,28.65s6.17,7.87-8.18,6.54c0,0-.39,8.39-11.06,3.18,0,0-3.71,3.48-7.46,2.03-1.25-.48-3.96-1.42-7.13-4.46,0,0-16.71-11.94-24.29-13.25,0,0,16.07,8.2,19.44,13.47,0,0-1.73,7.48-12.55,.56-8.29-5.3-18.58-8.85-18.58-8.85,0,0-24.64,.13-34.38-11.58l-19.18-4.55s-111-38.81-131.03-85.54,0,0,0,0c0,0-10.01-42.56-7.09-67.6"/>
        <path class="cls-21" d="M338.58,667.15s21.23,14.61,27.49,23.49"/>
        <path class="cls-21" d="M355.01,693.82s-12.29-13.42-26.61-21.93"/>
      </g>
      <path class="cls-2" d="M279.09,302.51s26.79,.45,35.1,5.08"/>
      <g>
        <path class="cls-40" d="M360.05,368.04c4.92-18.15-17.77-50.59-22.78-58.69s-10.66-7.8-10.66-7.8l-24.36,2c-5.78,.95-3.96,6.89-3.96,6.89-5.6,1.21-3.43,7.66-3.43,7.66-4.05,3.73,.61,6.39,.61,6.39,0,0-2.08,2.75,2.67,11.03s12.78-1.22,12.78-1.22c8.27,12.29,20.22,22.8,20.22,22.8,0,0,.29,7.57-.65,9.63"/>
        <path class="cls-19" d="M320.44,322.82c-9.67-4.7-24.97,1.66-24.97,1.66,0,0-4.65-2.74-.61-6.39"/>
        <path class="cls-19" d="M321.45,315.5c-14.8-3.63-26.6,2.59-26.6,2.59,0,0-2.48-6.5,3.43-7.66"/>
        <path class="cls-19" d="M322.92,307.59c-12.39-2.74-24.63,2.85-24.63,2.85,0,0-2.12-6.12,3.96-6.89s24.36-2,24.36-2c0,0,3.73,.34,5.21,1.82"/>
        <path class="cls-40" d="M331.14,357.09s7.14,3.23,13.86,1.44"/>
        <path class="cls-19" d="M295.47,324.48s-2.81,16.35,8.74,13.14c11.55-3.21,8.17-7.26,8.17-7.26"/>
      </g>
      <path class="cls-40" d="M360.05,368.04s27.36,55.63,32.32,92.52c4.96,36.89-21.03,63.99-31.72,63.44-22.55-1.15-37.77-22.8-36.67-63.44s6.51-93.84,6.51-93.84c0,0,4.91-1.65,29.56,1.32Z"/>
      <g>
        <path class="cls-45" d="M208.12,202.4s10.07-32.39,15.74-40.42c5.67-8.03,68.03-22.11,87.87-8.41,0,0,3.78,6.61,2.83,9.45"/>
        <path class="cls-23" d="M209.73,237.21s-46.07,4.27-47.74-1.44c-3.88-13.27,26.84-25.43,26.84-25.43,0,0,73.34-31.54,99.82-43.94,20.05-9.38,66.54-24.63,76.46-2.9,9.92,21.73-29.29,46.76-29.29,46.76,0,0-78.74-9.31-126.09,17.99,0,0-1.28,5.12,0,8.96Z"/>
        <path class="cls-11" d="M335.82,210.26s36.19-29.18,13.41-42.16c-18.32-10.44-49.35,3.35-80.75,22.67-31.39,19.32-78.89,32.2-78.89,32.2,0,0-19.3,12.39,20.13,14.24"/>
      </g>
      <path class="cls-14" d="M179.33,411.37s11.93,46.09,7.05,85.68"/>
    </g>
    <g>
      <g>
        <path class="cls-47" d="M528.58,652s11.61-23.88-13.81-46.53c-25.43-22.65-42.67-48.53-48.9-44.31l-12.28,12.12,22.07,49.55,30.39,26.01,22.53,3.16Z"/>
        <path class="cls-48" d="M566.79,592.86s-22.98,5.92-51.7-6.27l-16.1-4.82-9.17-4.41-12.44-10.22s-1.86-1.74-5.33-2.87c-.92-.3-3.57-.57-2.31,2.06,0,0-3.95,.07-3.4,4.36,0,0-5.52,1.89,.02,5.92,0,0-6.1,1.32-1.12,6.76,0,0-11.19,2.7,2.65,14.65,0,0,11.81,17.71,22.65,20.4,10.84,2.69,24.87,20.33,24.87,20.33l16.52,4.99s26.97-15.98,40.18-12.98l-5.33-37.9Z"/>
        <path class="cls-42" d="M528.58,652s-8.03-1.75-14.17-9.64c-6.14-7.9-26.47-20.86-26.47-20.86,0,0-48.53-36.83-22.07-60.33l-19.08,13.29s-2.56,35.87,30.69,59.73c0,0,22.38,18.62,27.22,27.24,0,0,10.81-.38,23.88-9.42Z"/>
        <path class="cls-22" d="M498.66,628.82s19.85-14.02,16.43-42.22l-16.1-4.82s7.7,16.78-11.06,39.72l10.72,7.33Z"/>
        <path class="cls-22" d="M477.89,612.28s16.44-14.98,11.93-34.92l-12.44-10.22s.69,17.27-10.89,32.39c0,0,1.35,3.54,11.4,12.75Z"/>
        <path class="cls-22" d="M552.19,635.78s-35.32,4.01-51.04-4.86l21.46,19.08s8.32,.96,29.59-14.21Z"/>
        <path class="cls-22" d="M563.79,630.34l-8.4-36.81-16.82-.78s.42,20.53,10.32,43.34c0,0-5.25,4.71,14.91-5.74Z"/>
        <path class="cls-3" d="M529.72,648.3s14.27-3.53,21.51-11.3l3.88-2.25"/>
        <path class="cls-21" d="M465.24,583.37s3.68-1.96,8.4,2.49"/>
        <path class="cls-21" d="M466.36,576.61s6.08-.42,8.93,3.35"/>
        <path class="cls-21" d="M466.35,570.69s6.67-.54,10.05,3.45"/>
        <path class="cls-21" d="M469.75,566.33s4.61-.36,7.38,2.86"/>
      </g>
      <path class="cls-48" d="M917.6,340.05s-42.39,23.24-48.37,76.29c-5.98,53.05-2.83,81.82-2.83,81.82l-16.49,53,47.12,7.07,30.62-81.27-1.77-81.86-8.28-55.05Z"/>
      <path class="cls-48" d="M998.44,285.51s-8.89,45.69,16.95,52.76c0,0,.02,45.85-61.79,47.78,0,0-17.61-8.09-29.28-49.32,0,0,18.54-6.25,18.77-17.02,.25-11.39-3.34,.36-3.34,.36l58.69-34.57"/>
      <path class="cls-48" d="M1000.48,262.32s-3.09-62.73-52.53-61.22c0,0-36.69-.15-34.72,51.67,0,0,1.96,8.32,.53,12.73,0,0-2.59,13.54,1.65,24.8,6.37,16.9,14.82,25.64,14.82,25.64,0,0,7.18,6.82,19.99,7.06,0,0,9-.2,20.52-7.47,0,0,29.07-12.97,27.7-30.01,0,0,10.96,6.53,16.75-13.57,0,0,7.46-17.37,.78-20.26-8.43-3.64-11.56,1.84-15.5,10.64Z"/>
      <path class="cls-54" d="M953.91,241.77s18.32-.53,24.52,7.16c0,0-3.29-10.43-23.81-11.3,0,0-4.11,1.61-.71,4.14Z"/>
      <path class="cls-54" d="M912.02,244.9c.01-1,8.18-4.51,16.37-5.99,0,0,4.29,1.04,1.26,4,0,0-15.58,.71-15.96,6,0,0-1.7-1.55-1.67-4.01Z"/>
      <path class="cls-2" d="M939.77,281.26c-12.2-1.63-4.09-12.89-4.09-12.89"/>
      <path class="cls-2" d="M1015.14,265.31s-4.51-11.96-13.69,7.28c0,0,7.8-8.49,9.19-1.21"/>
      <path class="cls-54" d="M942.84,321.8s3.96,3.66,17.71-1.17c0,0,12.02-4.02,21.86-11.93,0,0-12.48,13.84-29.36,15.93,0,0-4.5,1.34-10.88-.94,0,0,.97-.11,.67-1.89Z"/>
      <path class="cls-25" d="M1043.86,548.01s.25-20.09-1.07-51.78c0,0-2.25-37.19-4.3-38.58-2.1-1.41,15.4-.32,22.9-22.55,10.06-29.83,2.2-53.6,1.39-55.16-13.71-26.47-41.37-38.14-41.37-38.14l-12.26-6.13s-4.6,44.67-41.26,44.67c-19.99,0-35.56-2.84-35.39-46.86l-14.89,6.57s-47.36,19.08-50.83,90.19c-.34,6.94,26.02,13.53,26.02,16.65,0,0-2.01,11.07,5.63,29.76,0,0,8.48,49.79-15.49,72.22,0,0,65.06,56.43,160.93-.87Z"/>
      <g>
        <path class="cls-22" d="M971.95,255.63s.02-.38-.25-.71c-.89-1.08-2.97-3.12-6.34-3.24-3.78-.14-6,3.33-6.75,4.57-.13,.21-.13,.41-.13,.41,0,0-.02,.21,.1,.36,.58,.72,2.52,2.75,6.1,2.94,2.13,.11,5.17-.92,7.13-3.75,.14-.2,.16-.45,.16-.59Z"/>
        <circle class="cls-54" cx="964.12" cy="256.01" r="3.91"/>
        <circle class="cls-22" cx="966.62" cy="255.31" r="1.07"/>
        <path class="cls-7" d="M958.37,256.25s4.94-8.85,13.48-1.35"/>
      </g>
      <g>
        <path class="cls-22" d="M927.77,256.8s.07-.35-.13-.69c-.68-1.13-2.31-3.32-5.44-3.92-3.5-.67-6.05,2.24-6.93,3.29-.15,.18-.18,.36-.18,.36,0,0-.05,.19,.04,.35,.43,.75,1.95,2.92,5.25,3.61,1.96,.41,4.94-.12,7.16-2.46,.15-.16,.21-.4,.23-.53Z"/>
        <circle class="cls-54" cx="920.44" cy="256.02" r="3.67"/>
        <circle class="cls-22" cx="922.97" cy="255.81" r="1.03"/>
        <path class="cls-7" d="M915.18,255.58s5.69-8.08,12.53,.69"/>
      </g>
      <path class="cls-54" d="M918.07,296.67c-6.89-12.93-4.69-29.35-4.69-29.35,0,0,.9-3.12,1.31-9.43,.41-6.28-.92-7.75-.33-13.35,0,0,19.65-4.53,36.33-21.52,0,0,19.35-7.74,4.86-6.11,0,0,5.66-7.65,26.62-1.2,0,0,3.27,30.82,18.31,46.64,0,0,7.44-14.39,15.5-10.64,8.06,3.75-4.25,25.93-4.25,25.93,0,0-3.69,13.18-12.84,7.4,0,0-4.64,12.88-1.5,27.1,0,0,2.52-1.32,6.07-5.58,0,0-2.39,6.71-6.96,11.28,0,0,19.19-4.57,21.02-23.3,0,0,0-6.4,5.03-7.31,5.03-.91,11.86-18.91,10.95-34.45-.91-15.54-12.63-68.3-47.26-69.47,0,0-18.59-8.22-42.32,6.16-23.73,14.38-21.31,17.84-41.43,47.98,0,0-9.19,2.79,5.53,15.27,0,0-4.05,15.83-1.41,11.14,0,0-3.23,16.4,3.91,23.09,0,0-1.11-4.91-.97-12.83,0,0-1.9,17.67,12.09,29.39"/>
      <path class="cls-16" d="M979.84,248.05s-16.75-5.7-32.18,.06c0,0-2.17,22.41,14.82,23.13,0,0,22.06-.43,17.36-23.2Z"/>
      <path class="cls-16" d="M936.9,247.88s-14.61-5.52-27.62,1.6c0,0-3.98,20.31,13.01,21.03,0,0,19.31,.14,14.61-22.63Z"/>
      <path class="cls-16" d="M936.9,247.88s6.23-2.92,10.77,.24"/>
      <line class="cls-16" x1="977.67" y1="247.76" x2="1003.34" y2="255.67"/>
      <line class="cls-6" x1="1002.46" y1="282.57" x2="1002.46" y2="295.61"/>
      <polygon class="cls-20" points="1004.2 297.39 1002.62 294.51 1001.29 297.51 998.05 298.12 1000.5 300.32 1000.09 303.58 1002.93 301.93 1005.9 303.34 1005.21 300.12 1007.47 297.73 1004.2 297.39"/>
      <path class="cls-54" d="M986.24,183.26s-22.24-17.05-42.54-2.6c0,0-4.99,9.08-17.54,6.78-6.64-1.21-8.28,9.19-8.28,9.19,0,0,2.13,8.6-5.82,7.97,0,0-12.86,3.63-10.72,18.65,2.15,15.02-6.86,19.67-6.86,19.67,0,0-7.61,5.22-4.18,13.47,0,0,3.68,5.52,1.53,8.58-2.15,3.06-6.13,2.15-6.13,2.15,0,0,5.52,3.98,10.11-2.76s6.13-12.87,6.13-12.87c0,0-2.76,9.19-.92,14.4,0,0,.31,2.45-3.98,6.44-4.29,3.98-2.15,8.58-2.15,8.58,0,0,1.23-5.82,3.98-6.44,2.76-.61,4.6-1.53,4.6-1.53,0,0,3.82,8.94,7.04,13.95,1.34,2.08,.87,6.76-5.26,8.29s-.97,13.58-.97,13.58c0,0-.17-10.93,5.04-9.7,5.21,1.23,5.18-4.06,5.18-4.06,0,0-3.98-10.42-2.76-23.29l-1.84-27.28s10.73-1.23,17.16-4.9c0,0,17.51-8.88,23.62-16.54,0,0-9.01,8.75-9.58,12.09-1.28,7.49-9.32,9.32-9.32,9.32,0,0,11.48,1.09,12.6-4.75,2.01-10.41,11.14-9.86,11.14-9.86,0,0,10.15,2.09,15.97-6.18,5.82-8.28,10.66-7.92,10.66-7.92,0,0,16.04-13.3,4.07-32.42Z"/>
      <path class="cls-52" d="M909.71,629.36s8.45,27.41,22.93,28.93c0,0,63.98,.76,134.82-44.94,0,0,31.23-42.65,4.57-63.98-26.66-21.33-83.79,0-83.79,0-49.6,16.11-105.31-.5-105.31-.5,0,0-68.36-.42-185.16,25.29l-41.38,1.89s-58.45,5.68-99.24,18.19c0,0,1.14,27.96,3.49,37.78,2.35,9.83,78.42,24.89,129.4,9.7,0,0,76.86,8.94,105.09,15.19,0,0,70.18,13.94,99.74,.81,0,0,33.53-11.15,41.98-35.23"/>
      <path class="cls-11" d="M909.78,622.49s48.9-46.55,105.57-59.83"/>
      <path class="cls-44" d="M811.51,615.37s-43.15-8.57-53.81,17.02c-10.66,25.59,29.85,29.14,29.85,29.14,0,0,24.88-3.55,53.31,4.26l19.19,2.84s-11.37-27.01,9.95-38.38c0,0-43.06,.79-58.49-14.89Z"/>
      <path class="cls-48" d="M869.99,630.26s28.73,6.36,39.55-5.84c0,0,10.68,32.8,23.09,33.87,0,0-41.94,12.41-72.59,10.35,0,0-11.57-26.16,9.95-38.38Z"/>
      <path class="cls-42" d="M815.45,618.89s-32.41-6.23-45.38,7.82c0,0-10.92,9.31-5.84,27.7,0,0-12.94-5.6-6.54-22.02,0,0,6.28-24.13,53.81-17.02l3.95,3.51Z"/>
      <path class="cls-48" d="M1060.69,437.88c-7.63,27.75-13.7,71.11-44.62,85.97-30.92,14.87-82.01,20.53-159.1,5.76,0,0-31.86-2.45-40.43-3.06-8.58-.61-10.11-4.29-10.11-4.29-7.05,.61-11.64-7.66-11.64-7.66-7.96,.61-8.88-6.13-8.88-6.13,0,0-7.05,.61-7.05-5.51s9.8-4.29,9.8-4.29l54.52-5.51s-16.23-7.96-20.22-11.03c-3.98-3.06,.31-6.13,.31-6.13,0,0,9.19-1.84,13.48,2.76,4.29,4.59,17.96,6.43,17.96,6.43,18.53,1.65,24.59,16.65,24.59,16.65,0,0,6.16,2.8,13.97-.39s57.98-12.69,96.04-13.88c0,0,.99-19.74,21.77-62.19"/>
      <line class="cls-10" x1="785.91" y1="508.48" x2="819.35" y2="507.87"/>
      <line class="cls-10" x1="794.79" y1="514.6" x2="818.82" y2="514.68"/>
      <line class="cls-10" x1="806.43" y1="522.26" x2="825.01" y2="522.38"/>
      <path class="cls-15" d="M865.71,488.51s10.61,3.75,13.6,13.34c0,0,7.14,2.3,13.97-.39,0,0,3.5-1.18,7.12-1.48"/>
      <path class="cls-15" d="M856.97,529.61s25.33,5.36,35.89,5.36"/>
      <g>
        <path class="cls-51" d="M930.87,296.5s5.52-7.47,13.52-5.48c0,0,5.77-4.32,17.85,5.91,0,0-4.33,7.1-16.72,6.84-12.39-.26-14.65-7.27-14.65-7.27Z"/>
        <path class="cls-32" d="M932.73,296.72s9.99-9.36,27.1,.44c0,0-8.47,1.01-12.55,2.46s-7.01-.85-7.01-.85c0,0-3.4-2.02-7.54-2.05Z"/>
        <path class="cls-22" d="M937.24,294.06s6.94-3.1,15.32-.15l-15.32,.15Z"/>
      </g>
      <path class="cls-48" d="M869.99,630.26s-38.72-.52-54.54-11.37c0,0-33.04-8.55-39.92,2.92,0,0-3.06,4.97,1.53,6.12,0,0-8.42,3.06-5.74,6.5,0,0-5.74,4.97-.38,8.42,0,0-5.74,3.06,0,6.12,0,0-6.12,5.36,.77,7.27,0,0,19.13,4.97,31.75,1.15s56.59,11.26,56.59,11.26"/>
      <path class="cls-22" d="M793.42,614.92s4.09,23.16-5.87,46.61l13.79-.31s13.63-18.59,10.17-45.85l-18.09-.45Z"/>
      <path class="cls-22" d="M826.32,624.06s4.26,21.32-6.09,37.77l10.97,1.83s7.29-15.03,4.89-36.91l-9.77-2.69Z"/>
      <path class="cls-22" d="M863.09,630.77s5.07,28.1-6.19,37.17l10.17,.82s9.34-12.91,5.22-38.19l-9.19,.2Z"/>
      <line class="cls-21" x1="777.06" y1="627.93" x2="784.08" y2="628.65"/>
      <line class="cls-21" x1="771.32" y1="634.43" x2="779.69" y2="635.37"/>
      <line class="cls-21" x1="770.94" y1="642.85" x2="777.37" y2="643.73"/>
      <line class="cls-21" x1="770.94" y1="648.97" x2="775.98" y2="649.31"/>
    </g>
    <g>
      <rect class="cls-46" x="611.03" y="23.85" width="121.84" height="141.68"/>
      <rect class="cls-28" x="621.58" y="33.21" width="102.95" height="123.45"/>
      <g>
        <path class="cls-27" d="M656.86,77.17s-15.48-25.96,.75-31.7c0,0,20.97-2.25,6.99,31.2l-2.5,4.74-5.24-4.24Z"/>
        <path class="cls-27" d="M661.76,77.17s10.45-28.36,25.12-19.36c0,0,14.93,14.89-19.86,25.06l-5.26,1.04v-6.74Z"/>
        <path class="cls-27" d="M667.36,82.24s25.78-15.77,31.71,.39c0,0,2.48,20.94-31.12,7.34l-4.77-2.44,4.18-5.29Z"/>
        <path class="cls-27" d="M670.26,86.64s28.25,10.75,19.09,25.32c0,0-15.04,14.78-24.85-20.12l-.99-5.27,6.74,.07Z"/>
        <path class="cls-27" d="M661.88,92.32s19.42,23.16,4.31,31.41c0,0-20.34,5.56-11.87-29.69l1.71-5.08,5.85,3.35Z"/>
        <path class="cls-27" d="M661.44,96.25s-10.63,28.29-25.24,19.19c0,0-14.84-14.98,20.02-24.93l5.26-1.01-.05,6.74Z"/>
        <path class="cls-27" d="M654.32,93.7s-27.38,12.81-31.47-3.91c0,0-.14-21.09,31.74-3.84l4.47,2.96-4.75,4.79Z"/>
        <path class="cls-27" d="M653.71,84.19s-29.58-6.19-22.82-22.01c0,0,12.54-16.95,27.69,15.98l1.8,5.05-6.67,.98Z"/>
        <circle class="cls-30" cx="661.33" cy="86.8" r="9.19"/>
      </g>
      <g>
        <path class="cls-31" d="M692.38,96.22s-11.8-19.79,.57-24.16c0,0,15.98-1.71,5.33,23.78l-1.9,3.62-4-3.23Z"/>
        <path class="cls-31" d="M696.12,96.21s7.97-21.62,19.15-14.75c0,0,11.38,11.35-15.14,19.1l-4.01,.79v-5.14Z"/>
        <path class="cls-31" d="M700.38,100.08s19.65-12.02,24.17,.3c0,0,1.89,15.96-23.72,5.59l-3.64-1.86,3.19-4.03Z"/>
        <path class="cls-31" d="M702.59,103.44s21.53,8.19,14.55,19.3c0,0-11.47,11.26-18.94-15.34l-.75-4.02,5.14,.06Z"/>
        <path class="cls-31" d="M696.21,107.76s14.8,17.65,3.29,23.95c0,0-15.51,4.24-9.05-22.63l1.3-3.87,4.46,2.56Z"/>
        <path class="cls-31" d="M695.87,110.76s-8.11,21.56-19.24,14.63c0,0-11.31-11.42,15.26-19l4.01-.77-.04,5.14Z"/>
        <path class="cls-31" d="M690.44,108.82s-20.87,9.76-23.99-2.98c0,0-.11-16.07,24.2-2.93l3.41,2.25-3.62,3.65Z"/>
        <path class="cls-31" d="M689.98,101.57s-22.55-4.72-17.4-16.78c0,0,9.56-12.92,21.11,12.18l1.37,3.85-5.09,.75Z"/>
        <circle class="cls-30" cx="695.79" cy="103.56" r="7"/>
      </g>
    </g>
    <g>
      <circle class="cls-18" cx="1022.52" cy="87.39" r="64.33"/>
      <polyline class="cls-38" points="1020.35 87.39 1023.01 48.21 1025.19 89.66"/>
      <line class="cls-5" x1="965.9" y1="87.7" x2="976.46" y2="87.7"/>
      <line class="cls-5" x1="1068.67" y1="87.7" x2="1079.23" y2="87.7"/>
      <line class="cls-5" x1="1022.91" y1="30.69" x2="1022.91" y2="41.25"/>
      <line class="cls-5" x1="1022.91" y1="133.46" x2="1022.91" y2="144.02"/>
      <polygon class="cls-38" points="1025.24 89.81 1002.72 100.78 1020.02 86.83 1025.24 89.81"/>
    </g>
  </g>
</svg>