<?xml version="1.0" encoding="UTF-8"?>
<svg xmlns="http://www.w3.org/2000/svg" xmlns:xlink="http://www.w3.org/1999/xlink" viewBox="0 0 1434.57 1000.21">
  <defs>
    <style>
      .cls-1, .cls-2, .cls-3, .cls-4, .cls-5, .cls-6, .cls-7, .cls-8, .cls-9, .cls-10, .cls-11 {
        fill: none;
      }

      .cls-2 {
        stroke-width: 1.5px;
      }

      .cls-2, .cls-3, .cls-12, .cls-4, .cls-5, .cls-13, .cls-6, .cls-7, .cls-8, .cls-9, .cls-10, .cls-11, .cls-14 {
        stroke-miterlimit: 10;
      }

      .cls-2, .cls-5 {
        stroke: #231f20;
      }

      .cls-15 {
        clip-path: url(#clippath);
      }

      .cls-3 {
        stroke: #2b3990;
        stroke-width: .8px;
      }

      .cls-16, .cls-17 {
        fill: #fff;
      }

      .cls-18 {
        fill: #803435;
      }

      .cls-19 {
        fill: #be9e7d;
      }

      .cls-20 {
        fill: #bde4e0;
      }

      .cls-21 {
        fill: #bf6b6b;
      }

      .cls-22 {
        fill: #ca544c;
      }

      .cls-23 {
        fill: #3c2415;
      }

      .cls-24 {
        fill: #26130f;
      }

      .cls-12, .cls-6, .cls-7, .cls-8, .cls-9 {
        stroke-width: 2px;
      }

      .cls-12, .cls-14 {
        fill: #a97c50;
        stroke: #a97c50;
      }

      .cls-4 {
        stroke-width: 5px;
      }

      .cls-4, .cls-13, .cls-6, .cls-11 {
        stroke: #fff;
      }

      .cls-5 {
        stroke-width: 1.4px;
      }

      .cls-13 {
        fill: #c8eaf6;
      }

      .cls-13, .cls-10, .cls-11 {
        stroke-width: 8px;
      }

      .cls-6 {
        stroke-linecap: round;
      }

      .cls-7 {
        stroke: #6d6e71;
      }

      .cls-8 {
        stroke: #be1e2d;
      }

      .cls-9 {
        stroke: #fbb040;
      }

      .cls-10 {
        stroke: #d1d3d4;
      }

      .cls-14 {
        stroke-width: 6px;
      }

      .cls-17 {
        opacity: .5;
      }
    </style>
    <clipPath id="clippath">
      <rect class="cls-1" x="613.59" y="1.85" width="720.31" height="666.41"/>
    </clipPath>
  </defs>
  <g id="FONDO">
    <rect class="cls-20" width="1333.17" height="999.15"/>
    <g class="cls-15">
      <g>
        <rect class="cls-13" x="711.18" y="45.21" width="629.28" height="553.65"/>
        <line class="cls-14" x1="638.68" y1="25.54" x2="1412.92" y2="25.54"/>
        <circle class="cls-12" cx="632.91" cy="24.62" r="10.18"/>
        <circle class="cls-12" cx="1423.38" cy="25.98" r="10.18"/>
        <path class="cls-22" d="M661.61,9.71l-1.18,639.07s24.85,21.3,63.91,8.28v-27.22s35.5,9.47,55.62,0v22.49s36.69,14.2,48.52,1.18l-24.85-417.76,13.02-226.04-63.91,1.18-14.2,3.55-23.67-4.73h-53.26Z"/>
        <path class="cls-22" d="M1401.6,9.71l1.18,639.07s-24.85,21.3-63.91,8.28v-27.22s-35.5,9.47-55.62,0v22.49s-36.69,14.2-48.52,1.18l24.85-417.76-13.02-226.04,63.91,1.18,14.2,3.55,23.67-4.73h53.26Z"/>
        <line class="cls-8" x1="724.33" y1="629.85" x2="712.15" y2="378.41"/>
        <line class="cls-8" x1="779.95" y1="629.85" x2="774.27" y2="393.57"/>
        <line class="cls-8" x1="714.86" y1="9.71" x2="710.56" y2="259"/>
        <line class="cls-8" x1="738.53" y1="14.45" x2="740.98" y2="285.8"/>
        <line class="cls-8" x1="1283.26" y1="629.85" x2="1284.04" y2="404.78"/>
        <line class="cls-3" x1="1338.88" y1="629.85" x2="1343.07" y2="337.31"/>
        <line class="cls-8" x1="1310.48" y1="10.9" x2="1310.54" y2="224.06"/>
        <line class="cls-3" x1="1348.35" y1="9.71" x2="1349.09" y2="275.87"/>
        <line class="cls-11" x1="1026.42" y1="42.59" x2="1026.42" y2="597.62"/>
        <line class="cls-10" x1="1034.85" y1="49.85" x2="1034.85" y2="595.19"/>
        <path class="cls-6" d="M655.41,314.32s72.05,55.54,154.62,3"/>
        <path class="cls-6" d="M1252.87,297.81s72.05,55.54,154.62,3"/>
      </g>
    </g>
    <g>
      <path class="cls-16" d="M1090.16,90.94c-.45,3.06-.65,5.13-.32,8.71,1.4,14.15,5.55,56.23,9.37,94.99,2.57,26.04,5.03,50.96,6.86,69.51,.92,9.28,1.68,16.96,2.21,22.4,.02,.17,.03,.34,.05,.5,.02,.12,.02,.32,.06,.47l.19,.4c.14,.29,.28,.57,.42,.85,.27,.55,.52,1.06,.76,1.55,.47,.96,.88,1.79,1.21,2.47,.67,1.37,1.05,2.15,1.12,2.28,1.51,3.09,1.53,3.13,1.53,3.13,0,0,67.87,138.66,81.43,166.34,1.6,3.22,2.86,4.88,4.85,7.25-.65-3.03-1.18-5.04-2.75-8.27-13.55-27.68-81.43-166.34-81.43-166.34,0,0-.02-.04-1.53-3.13-.06-.13-.45-.91-1.11-2.28-.33-.68-.74-1.51-1.21-2.47-.24-.48-.49-1-.76-1.55-.13-.27-.27-.56-.41-.85-.04-.1,0,0-.02-.06-.02-.17-.03-.33-.05-.5-.54-5.44-1.29-13.12-2.21-22.4-1.83-18.55-4.29-43.47-6.86-69.51-3.83-38.76-7.98-80.84-9.38-94.99-.37-3.58-.97-5.57-2.01-8.48Z"/>
      <path class="cls-16" d="M1043.16,310.93c3.08-.31,5.14-.62,8.53-1.81,3.55-1.27,11.53-4.12,19.97-7.14,7.56-2.71,15.32-5.48,22.4-8.02,3.54-1.27,6.91-2.47,10-3.58,1.54-.55,3.02-1.08,4.41-1.58,.35-.12,.69-.25,1.03-.37l.25-.09,.19-.07c.09-.02,.17-.06,.24-.12l.5-.33c.58-.38,1.13-.75,1.67-1.1,28.28-18.6,41.32-27.17,41.32-27.17,0,0,73.96-48.62,88.73-58.33,3-1.99,4.48-3.45,6.58-5.72-2.92,1.03-4.85,1.81-7.86,3.77-14.77,9.71-88.73,58.33-88.73,58.33,0,0-13.03,8.57-41.32,27.16-.54,.35-1.09,.72-1.67,1.1l-.37,.25s.06-.02-.06,.02l-.25,.09c-.34,.12-.68,.24-1.03,.37-1.39,.5-2.86,1.02-4.41,1.58-3.09,1.1-6.46,2.31-10,3.58-7.08,2.53-14.84,5.31-22.4,8.02-8.44,3.02-16.42,5.88-19.97,7.16-3.38,1.23-5.16,2.3-7.74,4.01Z"/>
      <path class="cls-16" d="M1206.36,130.96c-2.22,2.16-3.64,3.68-5.55,6.73-14.85,23.96-89.23,143.96-89.23,143.96,0,0-.1,.16-1.03,1.67-.23,.38-.52,.84-.87,1.4-.17,.28-.36,.59-.57,.92-.1,.17-.21,.34-.32,.52-.07,.12-.14,.23-.22,.35-.05,.1-.14,.18-.16,.29l-.06,.34c-.31,1.83-.73,4.22-1.26,7.34-1.11,6.43-20.3,117.93-24.35,141.48-.59,3.55-.54,5.63-.31,8.71,1.25-2.83,1.99-4.78,2.62-8.32,4.05-23.55,23.25-135.04,24.35-141.48,.53-3.1,.94-5.47,1.25-7.29,.87-1.4,1.47-2.37,1.89-3.05,.93-1.5,1.03-1.67,1.03-1.67,0,0,74.38-120,89.23-143.96,1.88-3.07,2.61-5.01,3.56-7.96Z"/>
      <path class="cls-16" d="M1065.64,227.79c1.18,2.86,2.07,4.74,4.19,7.64,2.95,4,11.29,15.29,19.16,25.94,5.12,6.92,10.08,13.63,13.93,18.84,1.93,2.61,3.58,4.84,4.83,6.53,.16,.21,.31,.42,.45,.61,.07,.1,.15,.2,.22,.3,.15,.17,.24,.41,.44,.5,.48,.23,.91,.43,1.28,.61,.63,.3,1.09,.52,1.35,.64,6.35,3.03,6.86,3.27,6.86,3.27,0,0,53.51,25.48,64.2,30.57,3.25,1.53,5.27,2.04,8.3,2.66-2.39-1.97-4.06-3.21-7.3-4.77-10.69-5.09-64.2-30.57-64.2-30.57,0,0-.51-.24-6.86-3.27-.26-.12-.72-.34-1.35-.64-.25-.12-.54-.26-.86-.41h0c-.07-.09-.13-.18-.2-.28-.14-.2-.29-.4-.45-.61-1.25-1.7-2.9-3.93-4.83-6.54-3.85-5.21-8.81-11.93-13.93-18.85-7.87-10.65-16.22-21.93-19.18-25.93-2.15-2.88-3.69-4.28-6.08-6.25Z"/>
      <path class="cls-16" d="M1056.6,251.03c2.06,2.31,3.52,3.8,6.47,5.84,3.35,2.29,12.05,8.23,20.58,14.07,5.9,4.03,11.75,8.02,16.58,11.32,2.42,1.65,4.58,3.13,6.38,4.35,.45,.31,.87,.6,1.27,.87,.2,.14,.39,.27,.58,.4,.15,.1,.29,.2,.43,.29,.09,.05,.17,.14,.28,.16l.32,.02c.9,.05,1.66,.09,2.27,.12,14.09,.74,16.94,.89,16.94,.89,0,0,58.56,3.08,70.25,3.7,3.59,.17,5.65-.13,8.69-.71-2.96-.9-4.98-1.42-8.57-1.62-11.69-.62-70.25-3.7-70.25-3.7,0,0-2.84-.15-16.94-.89-.52-.03-1.19-.06-1.97-.1-.57-.39-1.24-.85-1.98-1.35-1.79-1.23-3.96-2.71-6.38-4.36-4.84-3.3-10.68-7.3-16.58-11.33-8.54-5.83-17.25-11.77-20.59-14.05-2.98-2.01-4.89-2.83-7.79-3.91Z"/>
      <path class="cls-16" d="M1045.04,265.79c2.62,1.66,4.43,2.68,7.83,3.83,3.72,1.23,12.49,4.15,21.53,7.15,7.25,2.41,14.62,4.85,21.12,7,3.25,1.08,6.29,2.09,9,2.98,1.35,.45,2.62,.87,3.79,1.26,.85,.3,.4,.04,1.04,.62,.41,.39,.79,.76,1.16,1.11,18.83,18.09,25.7,24.69,25.7,24.69,0,0,54.76,52.63,65.7,63.14,2.61,2.48,4.36,3.6,7.04,5.14-1.65-2.62-2.84-4.33-5.42-6.83-10.93-10.51-65.7-63.14-65.7-63.14,0,0-6.87-6.6-25.69-24.7-.36-.35-.75-.72-1.15-1.11-.26-.25-.53-.51-.81-.78-.36-.12-.73-.25-1.11-.38-1.17-.39-2.44-.81-3.79-1.26-2.7-.9-5.74-1.91-9-2.99-6.51-2.16-13.87-4.6-21.12-7.01-9.04-2.99-17.82-5.9-21.53-7.13-3.42-1.11-5.48-1.37-8.57-1.61Z"/>
      <path class="cls-16" d="M1043.69,342.69c2.78-1.37,4.6-2.37,7.36-4.67,4.38-3.69,16.37-13.79,27.85-23.47,7.84-6.61,15.51-13.08,21.62-18.23,3.06-2.58,5.72-4.83,7.83-6.6,.53-.44,1.02-.86,1.47-1.24,.11-.1,.22-.19,.33-.28,.02-.01-.04,.02,.04-.02,.25-.1,.49-.2,.72-.29,.91-.37,1.62-.66,2.11-.86,12.01-4.92,13.53-5.54,13.53-5.54,0,0,68.85-28.2,82.59-33.83,3.32-1.38,5.06-2.53,7.55-4.36-3.06,.45-5.1,.85-8.44,2.19-13.75,5.63-82.59,33.83-82.59,33.83,0,0-1.52,.62-13.53,5.54-.49,.2-1.2,.49-2.11,.86-.23,.09-.47,.19-.72,.29l-.34,.14c-.12,.06-.22,.17-.33,.26-.11,.09-.22,.18-.33,.28-.45,.38-.94,.8-1.47,1.24-2.1,1.77-4.77,4.02-7.83,6.6-6.11,5.15-13.78,11.62-21.63,18.23-11.47,9.68-23.45,19.78-27.84,23.48-2.74,2.33-4.04,3.96-5.85,6.46Z"/>
      <path class="cls-16" d="M1056.6,391.75c2.02-2.34,3.31-3.98,4.95-7.18,3.71-7.34,14.87-29.37,25.1-49.58,6.62-13.07,12.93-25.56,17.59-34.77,2.33-4.61,4.25-8.4,5.58-11.03,.17-.33,.32-.64,.47-.93,.07-.15,.15-.29,.22-.43,.05-.08,.14-.26,.16-.39l.07-.23c.16-.55,.29-1.02,.4-1.39,.22-.75,.34-1.15,.34-1.15,0,0,0-.02,.48-1.64,.25-.87,23.81-81.9,28.56-98.25,.99-3.46,1.17-5.53,1.29-8.62-1.56,2.68-2.51,4.52-3.54,7.97-4.75,16.35-28.31,97.38-28.56,98.25-.47,1.62-.48,1.64-.48,1.64,0,0-.12,.4-.34,1.15-.11,.38-.25,.84-.41,1.39l-.06,.19s.01-.03-.01,.03c-.07,.14-.14,.28-.22,.43-.15,.29-.31,.6-.47,.93-1.34,2.64-3.25,6.43-5.59,11.03-4.66,9.21-10.98,21.69-17.6,34.76-10.23,20.21-21.38,42.25-25.09,49.59-1.61,3.22-2.17,5.22-2.86,8.24Z"/>
      <path class="cls-16" d="M1045.98,288.36c3.02,.69,5.06,1.06,8.66,1.01,3.63-.07,12.15-.22,20.96-.38,7.04-.13,14.2-.27,20.54-.38,3.17-.06,6.14-.12,8.8-.17,1.33-.03,2.57-.05,3.73-.07,.25,0,.5,0,.74-.01,.2,.05,.4,.1,.6,.15,.51,.13,1,.25,1.46,.36,23.98,5.87,32.98,8.07,32.98,8.07,0,0,69.13,16.93,82.94,20.31,3.5,.84,5.57,.93,8.67,.92-2.74-1.44-4.62-2.32-8.11-3.19-13.8-3.38-82.94-20.31-82.94-20.31,0,0-9-2.21-32.98-8.08-.46-.11-.95-.23-1.46-.36l-.39-.1-.2-.05c-.11-.02-.26-.08-.39-.07-.31,0-.63,.01-.96,.02-1.15,.02-2.4,.04-3.73,.07-2.65,.05-5.62,.1-8.8,.16-6.35,.12-13.5,.25-20.54,.38-8.8,.17-17.33,.33-20.95,.4-3.59,.09-5.63,.53-8.62,1.33Z"/>
      <path class="cls-16" d="M1146.13,363.3c-1.02,2.92-1.62,4.91-1.97,8.49-.06,.61-.15,1.59-.35,3.64-.43,4.62-1.14,12.18-1.75,18.69-.3,3.26-.58,6.26-.79,8.5-.05,.56-.1,1.07-.14,1.53-.02,.23-.04,.44-.06,.64,0,.1-.02,.2-.03,.29-.02,.16-.04,.36,0,.52,.12,.7,.19,1.14,.21,1.26,.38,2.3,.4,2.42,.4,2.42,0,0,3.22,19.59,5,30.45,.45,2.71,.73,4.39,.87,5.27,.6,3.55,1.33,5.49,2.56,8.34,.25-3.09,.32-5.16-.25-8.72-.14-.88-.42-2.56-.86-5.27-1.79-10.86-5.01-30.45-5.01-30.45,0,0-.02-.12-.4-2.42-.02-.11-.08-.52-.19-1.16,.06-.62,.14-1.46,.23-2.48,.21-2.24,.49-5.24,.8-8.5,.61-6.52,1.32-14.07,1.75-18.69,.19-2.05,.28-3.04,.34-3.64,.32-3.58,.11-5.65-.36-8.71Z"/>
      <path class="cls-16" d="M1104.07,227.24c1.51-2.7,2.44-4.56,3.4-8.03,2.16-7.93,13-47.66,13-47.66,0,0,.39-1.44,1.24-4.53,.42-1.55,.96-3.51,1.61-5.91,.33-1.2,.69-2.51,1.07-3.94,.1-.36,.2-.72,.3-1.09,.05-.19,.1-.37,.15-.56l.13-.49-.04-.5c-.07-.79-.14-1.62-.21-2.47-.56-6.64-1.94-22.84-2.33-27.4-.32-3.58-.9-5.58-1.9-8.51-.49,3.06-.72,5.12-.44,8.71,.39,4.56,1.76,20.76,2.32,27.4,.07,.85,.14,1.68,.21,2.47,0,.22,.03-.03-.01,.17-.05,.19-.1,.38-.15,.56-.1,.37-.2,.73-.3,1.09-.39,1.42-.75,2.74-1.07,3.94-.65,2.4-1.19,4.36-1.61,5.91-.84,3.09-1.23,4.53-1.23,4.53,0,0-10.83,39.72-13,47.66-.93,3.47-1.07,5.55-1.14,8.64Z"/>
      <path class="cls-16" d="M1187.54,235.79c1.42-2.75,2.28-4.64,3.13-8.14,.14-.59,.37-1.56,.85-3.56,.89-3.75,2.32-9.81,3.56-15.06,.62-2.62,1.19-5.05,1.62-6.88,.19-.82,.36-1.51,.48-2.03,.27-.38,.45-.63,.51-.72,1.54-2.18,1.66-2.34,1.66-2.34,0,0,9.82-13.83,15.26-21.5,1.59-2.25,2.57-3.63,3.08-4.36,2.07-2.94,2.92-4.84,4.04-7.72-2.35,2.02-3.86,3.45-5.95,6.37-.52,.72-1.5,2.11-3.1,4.35-5.44,7.67-15.24,21.51-15.24,21.51,0,0-.12,.16-1.66,2.34-.09,.13-.36,.51-.77,1.08-.15,.63-.35,1.47-.59,2.48-.43,1.83-1.01,4.25-1.63,6.88-1.24,5.25-2.67,11.31-3.56,15.06-.47,2.01-.7,2.97-.84,3.56-.81,3.5-.88,5.58-.85,8.68Z"/>
      <path class="cls-16" d="M1064.63,325.83c-.42,3.07-.61,5.14-.24,8.72,.06,.61,.17,1.59,.39,3.64,.28,2.57,.94,8.66,.94,8.66,0,0,.54,5.1,.85,7.93,.3,2.73,.48,4.42,.58,5.31,.4,3.57,1.02,5.56,2.09,8.46,.42-3.07,.61-5.14,.24-8.72-.09-.88-.27-2.58-.56-5.31-.31-2.83-.86-7.93-.86-7.93,0,0-.65-6.09-.93-8.67-.22-2.05-.33-3.03-.4-3.64-.4-3.57-1.02-5.56-2.09-8.46Z"/>
      <path class="cls-16" d="M1184.25,290.34c-.54,.92-.81,1.52-.6,2.41,.24,.96,1.44,5.76,1.44,5.76,0,0,1.2,4.8,1.44,5.76,.24,.88,.76,1.28,1.67,1.84,.54-.92,.81-1.52,.6-2.41-.24-.96-1.44-5.76-1.44-5.76,0,0-1.2-4.8-1.44-5.76-.24-.88-.76-1.28-1.67-1.84Z"/>
      <path class="cls-16" d="M1070.54,273.25c-1.09,.19-1.74,.39-2.35,1.15-.64,.84-3.84,5.04-3.84,5.04,0,0-3.2,4.2-3.84,5.04-.58,.79-.59,1.47-.49,2.57,1.09-.19,1.74-.39,2.35-1.15,.64-.84,3.84-5.04,3.84-5.04,0,0,3.2-4.2,3.84-5.04,.58-.79,.59-1.47,.49-2.57Z"/>
    </g>
  </g>
  <g id="Layer_1" data-name="Layer 1">
    <g>
      <path class="cls-19" d="M523.16,1000.21l-15.69-167,19.42-111.79,22.6-1.23s-5.61,35.98,3.75,72.84c0,0,4.86,14.75,3.24,46.02-1.62,31.27,.68,74.23-6.13,160.4"/>
      <path class="cls-19" d="M287.48,402.12s5.81,58.24-9.86,92.88c0,0-14.34,162.07,117.34,166.18,0,0,98.17-26.45,38.62-153.67,0,0-23.69-9.24-24.2-32.17-.54-24.28,3.13,.41,3.13,.41l-125.03-73.64"/>
      <path class="cls-19" d="M282.7,355.04s4.17-122.67,113.74-132.2c0,0,78.17-.33,73.97,110.08,0,0-4.18,17.74-1.13,27.11,0,0,6.26,24.13-5.39,46.96-17.43,34.17-34.47,58.7-34.47,58.7,0,0-10.52,16.33-37.82,16.85,0,0-19.18-.42-43.71-15.92,0,0-61.92-27.64-59.02-63.94,0,0-26.86,18.15-39.2-24.68,0,0-10.9-59.34,33.02-22.96Z"/>
      <path class="cls-24" d="M383.03,316.98s-37.06-12.31-54.42-.41c0,0,13.1-19.27,55.51-8.47,0,0,7.4,5.81-1.09,8.87Z"/>
      <path class="cls-24" d="M472.42,307.14c-.95-1.9-19.88-1.04-36.95,3.75,0,0-7.25,5.99,1.3,8.84,0,0,30.53-13.13,36.17-3.35,0,0,1.82-4.57-.53-9.25Z"/>
      <path class="cls-5" d="M425.19,368.31s15.23,22.64-11.32,25.31"/>
      <path class="cls-5" d="M253.31,365.85s9.6-25.48,29.17,15.51c0,0-16.61-18.09-19.57-2.58"/>
      <path class="cls-24" d="M407.33,479.99s-8.43,7.79-37.73-2.5c0,0-25.62-8.57-46.57-25.42,0,0,26.58,29.49,62.55,33.93,0,0,9.59,2.86,23.17-1.99,0,0-2.08-.23-1.42-4.02Z"/>
      <g>
        <path class="cls-16" d="M343.89,339.58s-.04-.81,.54-1.5c1.9-2.3,6.32-6.64,13.52-6.91,8.06-.3,12.78,7.1,14.39,9.74,.28,.46,.27,.87,.27,.87,0,0,.04,.45-.21,.77-1.23,1.54-5.36,5.87-12.98,6.27-4.54,.24-11-1.97-15.18-7.98-.29-.42-.33-.96-.33-1.26Z"/>
        <circle class="cls-24" cx="360.56" cy="340.38" r="8.33"/>
        <circle class="cls-16" cx="355.24" cy="338.89" r="2.29"/>
        <path class="cls-2" d="M372.82,340.91s-10.52-18.86-28.71-2.88"/>
      </g>
      <g>
        <path class="cls-16" d="M438,342.91s-.15-.75,.28-1.47c1.44-2.41,4.93-7.08,11.58-8.36,7.45-1.43,12.9,4.78,14.77,7,.32,.38,.37,.77,.37,.77,0,0,.11,.41-.09,.75-.92,1.61-4.15,6.22-11.18,7.68-4.18,.87-10.51-.25-15.26-5.25-.33-.35-.45-.85-.49-1.12Z"/>
        <circle class="cls-24" cx="453.62" cy="341.25" r="7.81"/>
        <circle class="cls-16" cx="448.24" cy="340.8" r="2.19"/>
        <path class="cls-2" d="M464.82,340.31s-12.11-17.21-26.7,1.47"/>
      </g>
      <path class="cls-16" d="M543.46,999.92s-28.32-94.41-29.28-186.83c0,0,33.97-38.89,33.01-83.17l3.96-15.61-13.59-104.56s-8.75-65.94-73.25-90.97c0,0-13.39-1.62-30.72-11.25,0,0,24.85,59.51-1.54,87.93,0,0-81.19,39.58-124.83-7.1,0,0-34.51-37.55-29.59-93.34,0,0-22.35,15.03-69.32,33.7-79.68,31.66-113.94,163.98-113.94,163.98,0,0,23.63,40.76,110.27,54.03l-50.75,252.62"/>
      <path class="cls-7" d="M206.27,742.12s2.11-58,8.61-78.68"/>
      <ellipse class="cls-21" cx="407.06" cy="434.16" rx="12.55" ry="12.85"/>
      <ellipse class="cls-18" cx="406.85" cy="433.89" rx="9.06" ry="9.27"/>
      <path class="cls-19" d="M197.13,998.9l-4.98-124.66,14.12-132.12s-64.62-2.08-107.28-42.35c0,0-12.27,54.78-9.11,124.6,3.16,69.82,5.68,74.36,5.68,74.36l15.88,100.89"/>
      <path class="cls-23" d="M418.65,237.06s-69.31,128.7-169.32,130.03c0,0,9.24,43.33,38.93,33.98,0,0,17.58,61.12-10.64,93.94,0,0-35.32,22.64-80.07,39.1-24.27,8.92-42.17,33-42.17,33,0,0,41.34-42.99,51.33-160.89,9.12-107.68,46.82-166.85,46.82-166.85,0,0,65.02-98.33,162.27-45.79,0,0,52.31,2.16,74.77,52.12,12.99,28.9,10.93,82.52,8.85,125.35,0,0-1.45,116.35-46.68,146.22,0,0-40.51-12.09-45.4-37.28,0,0,11.05-.35,21.11-15.15,14.9-21.9,24.47-36.11,35.45-57.85,0,0,11.1-22.63,3.94-51.12,0,0-2.41-14.99,2.01-23.7,0,0,6.66-62.7-51.19-95.11"/>
      <path class="cls-9" d="M275.13,386.78s-13.49,20.47,.85,33.01c14.34,12.54,6.87-18.02,6.87-18.02"/>
      <g>
        <path class="cls-4" d="M420.25,446.23s24.64,24.63,59.25,12.54c0,0,10.55-27.66,28.93-17.77,18.39,9.88,1.18,31.7,1.18,31.7,0,0,25.96,6.09,16.29,25.71-9.68,19.62-30.01,5.64-30.01,5.64,0,0-5.58,25.25-27.86,14.75s-2.87-32.36-2.87-32.36c0,0-31.14-8.7-44.92-40.19Z"/>
        <path class="cls-17" d="M420.13,445.15s24.64,24.63,59.25,12.54c0,0,10.55-27.66,28.93-17.77s1.18,31.7,1.18,31.7c0,0,25.96,6.09,16.29,25.71-9.68,19.62-30.01,5.64-30.01,5.64,0,0-5.58,25.25-27.86,14.75-22.28-10.49-2.87-32.36-2.87-32.36,0,0-31.14-8.7-44.92-40.19Z"/>
      </g>
    </g>
  </g>
</svg>