<?xml version="1.0" encoding="UTF-8"?>
<svg xmlns="http://www.w3.org/2000/svg" xmlns:xlink="http://www.w3.org/1999/xlink" viewBox="0 0 1335.05 1743.59">
  <defs>
    <style>
      .cls-1, .cls-2, .cls-3, .cls-4, .cls-5, .cls-6, .cls-7, .cls-8, .cls-9 {
        fill: none;
      }

      .cls-10 {
        font-family: Krungthep, Krungthep;
        font-size: 52.52px;
      }

      .cls-10, .cls-11 {
        fill: #231f20;
      }

      .cls-12 {
        clip-path: url(#clippath);
      }

      .cls-13 {
        fill: #f7e5c5;
      }

      .cls-14 {
        fill: #fff;
      }

      .cls-15 {
        fill: #f1f2f2;
      }

      .cls-16, .cls-17 {
        fill: #b8cee4;
      }

      .cls-18 {
        fill: #8b5e3c;
      }

      .cls-19 {
        fill: #a97c50;
      }

      .cls-20 {
        fill: #bcbec0;
      }

      .cls-21 {
        fill: #a7a9ac;
      }

      .cls-22 {
        fill: #be9e7d;
      }

      .cls-23 {
        fill: #bde4e0;
      }

      .cls-24 {
        fill: #bf6b6b;
      }

      .cls-25 {
        fill: #d1d3d4;
      }

      .cls-26 {
        fill: #414042;
      }

      .cls-27 {
        fill: #3e3e3e;
      }

      .cls-28 {
        fill: #94c3e2;
      }

      .cls-29 {
        fill: #3c2415;
      }

      .cls-30 {
        fill: #26130f;
      }

      .cls-17 {
        stroke: #414042;
        stroke-width: 10px;
      }

      .cls-17, .cls-2, .cls-31, .cls-32, .cls-3, .cls-4, .cls-5, .cls-6, .cls-7, .cls-8, .cls-9 {
        stroke-miterlimit: 10;
      }

      .cls-2 {
        stroke: #603913;
        stroke-width: .7px;
      }

      .cls-31 {
        fill: #dbefeb;
      }

      .cls-31, .cls-32, .cls-3, .cls-7 {
        stroke: #6d6e71;
      }

      .cls-32 {
        fill: #c8e3de;
      }

      .cls-3, .cls-4, .cls-5 {
        stroke-width: 2px;
      }

      .cls-4 {
        stroke: #fbb040;
      }

      .cls-5 {
        stroke: #fff;
      }

      .cls-6, .cls-9 {
        stroke: #231f20;
      }

      .cls-8 {
        stroke: #bcbec0;
      }

      .cls-9 {
        stroke-width: 1.2px;
      }

      .cls-33 {
        opacity: .5;
      }
    </style>
    <clipPath id="clippath">
      <rect class="cls-1" x="265.5" y="140.84" width="635.43" height="857.02"/>
    </clipPath>
  </defs>
  <g id="FONDO">
    <rect class="cls-20" y="778.49" width="1334.95" height="34.36"/>
    <rect class="cls-19" y="812.84" width="1334.06" height="185.39"/>
    <rect class="cls-18" x="18.9" y="857.01" width="403.5" height="73.62"/>
    <rect class="cls-18" x="20.36" y="953.54" width="403.5" height="42.54"/>
    <rect class="cls-18" x="1093.53" y="857.01" width="240.64" height="73.62"/>
    <rect class="cls-18" x="1094.41" y="953.54" width="240.64" height="42.54"/>
    <rect class="cls-28" y="372.77" width="1333.32" height="405.72"/>
    <rect class="cls-23" width="1333.32" height="368.56"/>
    <line class="cls-5" x1=".13" y1="507.82" x2="1332.39" y2="507.82"/>
    <line class="cls-5" x1=".13" y1="643.24" x2="1332.39" y2="643.24"/>
    <line class="cls-5" x1="135.65" y1="370.8" x2="135.65" y2="778.89"/>
    <line class="cls-5" x1="271.35" y1="370.8" x2="271.35" y2="778.89"/>
    <line class="cls-5" x1="408.04" y1="367.83" x2="408.04" y2="775.92"/>
    <line class="cls-5" x1="543.74" y1="367.83" x2="543.74" y2="775.92"/>
    <line class="cls-5" x1="680.43" y1="367.83" x2="680.43" y2="775.92"/>
    <line class="cls-5" x1="817.2" y1="367.83" x2="817.2" y2="775.92"/>
    <line class="cls-5" x1="952.67" y1="367.83" x2="952.67" y2="775.92"/>
    <line class="cls-5" x1="1088.14" y1="367.83" x2="1088.14" y2="775.92"/>
    <line class="cls-5" x1="1223.61" y1="367.83" x2="1223.61" y2="775.92"/>
    <rect class="cls-13" y="342.51" width="1332.94" height="26.05"/>
    <polyline class="cls-5" points="543.17 370.64 550.3 358.97 550.3 351.88 542.06 343.29"/>
    <polyline class="cls-5" points="415.02 370.64 422.15 358.97 422.15 351.88 413.9 343.29"/>
    <polyline class="cls-5" points="138.52 370.64 145.65 358.97 145.65 351.88 137.41 343.29"/>
    <polyline class="cls-5" points="679.71 370.64 686.84 358.97 686.84 351.88 678.59 343.29"/>
    <polyline class="cls-5" points="817.22 370.64 824.35 358.97 824.35 351.88 816.11 343.29"/>
    <polyline class="cls-5" points="952.29 370.64 959.42 358.97 959.42 351.88 951.17 343.29"/>
    <polyline class="cls-5" points="1089.7 370.64 1096.83 358.97 1096.83 351.88 1088.58 343.29"/>
    <polyline class="cls-5" points="1225.27 370.64 1232.4 358.97 1232.4 351.88 1224.16 343.29"/>
    <g>
      <path class="cls-15" d="M134.22,274.72l1.72-68.15s-35.32-22.42-71.73-1.81l-1.75,69.34s35-12.28,71.76,.61Z"/>
      <path class="cls-15" d="M134.62,261.97c9.25,.23,17.19-5.15,17.46-15.91,.27-10.76-7.39-19.81-16.64-20.05"/>
      <path class="cls-23" d="M134.42,256.39c6.02,.15,11.19-3.35,11.36-10.36s-4.81-12.9-10.83-13.05"/>
      <path class="cls-20" d="M134.22,274.72s-27.59,8.35-71.76-.61c0,0,34.2-12.84,71.76,.61Z"/>
    </g>
    <g>
      <path class="cls-15" d="M223.15,274.72l1.72-68.15s-35.32-22.42-71.73-1.81l-1.75,69.34s35-12.28,71.76,.61Z"/>
      <path class="cls-15" d="M223.54,261.97c9.25,.23,17.19-5.15,17.46-15.91,.27-10.76-7.39-19.81-16.64-20.05"/>
      <path class="cls-23" d="M223.34,256.39c6.02,.15,11.19-3.35,11.36-10.36s-4.81-12.9-10.83-13.05"/>
      <path class="cls-20" d="M223.15,274.72s-27.59,8.35-71.76-.61c0,0,34.2-12.84,71.76,.61Z"/>
    </g>
    <rect class="cls-25" x="474.69" y="812.21" width="553.21" height="185.71"/>
    <line class="cls-3" x1="473.59" y1="890.32" x2="1027.63" y2="890.32"/>
    <circle class="cls-26" cx="556.66" cy="853.77" r="19"/>
    <circle class="cls-26" cx="628.2" cy="853.77" r="19"/>
    <circle class="cls-26" cx="703.66" cy="853.77" r="19"/>
    <circle class="cls-26" cx="781.69" cy="853.77" r="19"/>
    <circle class="cls-26" cx="859.71" cy="853.77" r="19"/>
    <circle class="cls-26" cx="933.54" cy="853.77" r="19"/>
    <rect class="cls-26" x="585.15" y="919.68" width="318.73" height="17.59"/>
    <polyline class="cls-17" points="544.56 997.47 544.56 968.69 951.63 968.69 951.63 998.03"/>
    <rect class="cls-20" x="52.64" y="268.11" width="589.99" height="8.92"/>
    <rect class="cls-21" x="38.62" y="127.94" width="621.22" height="8.92"/>
    <rect class="cls-20" x="-92.63" y="266.84" width="298.18" height="8.92" transform="translate(327.76 214.83) rotate(90)"/>
    <rect class="cls-20" x="78.13" y="266.84" width="298.18" height="8.92" transform="translate(498.52 44.08) rotate(90)"/>
    <rect class="cls-20" x="496.72" y="266.84" width="298.18" height="8.92" transform="translate(917.11 -374.51) rotate(90)"/>
    <circle class="cls-15" cx="151.89" cy="376.33" r="66.98"/>
    <circle class="cls-8" cx="154.61" cy="377.96" r="37.03"/>
    <circle class="cls-15" cx="326.45" cy="376.33" r="66.98"/>
    <circle class="cls-8" cx="329.17" cy="377.96" r="37.03"/>
    <circle class="cls-15" cx="544.67" cy="376.33" r="66.98"/>
    <circle class="cls-8" cx="547.4" cy="377.96" r="37.03"/>
    <rect class="cls-20" x="52.64" y="413.38" width="598.64" height="8.92"/>
    <polygon class="cls-16" points="319.57 268.41 270.28 268.41 275.43 175.72 313.68 175.72 319.57 268.41"/>
    <polygon class="cls-16" points="397.54 268.41 348.26 268.41 353.41 175.72 391.66 175.72 397.54 268.41"/>
    <rect class="cls-20" x="52.64" y="246.32" width="589.99" height="2.76"/>
    <g class="cls-12">
      <g>
        <path class="cls-22" d="M498.41,377.51s5.61,56.19-9.51,89.63c0,0-13.84,156.39,113.23,160.36,0,0,94.73-25.53,37.27-148.28,0,0-20.57-16.71-21.06-38.83-.52-23.42,0,0,0,0l-119.92-62.87"/>
        <path class="cls-22" d="M473.55,357.25s-26.75-115.38,73-151.62c0,0,72.77-19.83,96.44,84.13,0,0,.54,17.57,5.71,25.55,0,0,11.86,20.93,6.71,45.11-7.72,36.2-17.47,63.32-17.47,63.32,0,0-5.73,17.85-31.04,25.15,0,0-17.98,4.4-44.71-3.92,0,0-64.62-10.3-70.98-44.86,0,0-20.5,23.62-42.7-13.22,0,0-24.98-52.59,25.05-29.64Z"/>
        <path class="cls-27" d="M371.34,951.67s-83.43,178.69-4.18,331.53l27.68,123.75s20.58,51.98,12.99,131.03c-4.82,50.28,7.17,121.47,19.9,187.98,0,0,33.76,34.88,93.69,6.5,0,0,50.7,20.85,107.3-6.04l91.7-218.1s24.19-37.93,24.19-77.55c0,0,18.78-278.99-3.86-458.71,0,0-154.25,107.55-369.41-20.39Z"/>
        <path class="cls-9" d="M609.67,334.03s19.85,17.3-4.23,26.42"/>
        <path class="cls-9" d="M448.85,374.67s2.58-26.14,31.06,7.17c0,0-20-12.71-18.88,2.48"/>
        <path class="cls-30" d="M618.15,443.86s-5.23,6.08-34.77,3.37c0,0-25.82-3.58-48.68-15.85,0,0,30.45,23.26,65.35,21.09,0,0,9.6,1.01,21.63-6,0,0-1.56-1-3.52-2.61Z"/>
        <path class="cls-14" d="M488.9,467.13s-20.44,17.65-66.89,32.51c-46.45,14.86-87.31,139.58-87.31,139.58,0,0,4.04,38.69,83.77,70.79l-48.48,241.12s90.11,74.32,235.03,62.24c0,0,96.61-6.5,143.06-47.38,0,0-19.51-122.63-20.44-211.81,0,0,13.91-60.37,12.98-103.1l-3.05-43.76,13.3-31.5s-9.29-58.53-71.53-82.68c0,0-23.22-4.64-39.95-13.93,0,0,15.17,39.6-2.18,70.68,0,0-55.55,52.39-117.83,5.06,0,0-31.42-26.5-30.49-87.82Z"/>
        <path class="cls-22" d="M338.84,649.27s-27.23,157.56-23.53,168.65c3.7,11.09,48.97,199.91,48.97,199.91l80.65,.46-33.04-218.1,12.01-91.27-85.06-59.66Z"/>
        <path class="cls-24" d="M623.66,388.17s-9.73-11.75-20.3-4.05c0,0-12.18-4.42-24.65,13.96,0,0,9.01,10.9,27.3,6.49,18.29-4.41,17.65-16.39,17.65-16.39Z"/>
        <path class="cls-6" d="M578.71,398.07s19.53-8.79,26.45-5.52c0,0,5.01-6.87,18.5-4.39"/>
        <path class="cls-29" d="M575.02,215.33s-36.35,135.49-129.46,158.81c0,0,18.19,38.44,43.86,23.15,0,0,29.06,33.05,9.94,69.93,0,0-8.29,3.63-38.88,19.18-27.01,13.73-38.46,13.26-38.46,13.26,0,0,5.81-33.47-7.64-79.56-29.04-99.56,6.92-166.17,6.92-166.17,0,0,39.03-106.19,141.46-78.57,0,0,49.34-9.53,81.34,32.19,18.51,24.13,28.41,74.66,35.92,115.12,0,0,23.98,118.07-11.67,155.96,0,0-3.15,9.02-14.43,6.62-21.34-4.54-32.97-26.5-38.46-38.67,0,0,9.08-4.84,16.53-20.31,10.18-21.12,16.3-40.08,21.76-62.82,0,0,6.39-22.95-6.59-47.99,0,0-5.56-13.47-3.35-22.58,0,0-7.61-60.03-68.79-77.54"/>
        <path class="cls-4" d="M473.03,383.52s-9.15,24.69,8.89,34.34c18.04,9.65,2.81-20.52,2.81-20.52"/>
        <g>
          <path class="cls-32" d="M520.5,392.13s23.76-8.38,29.72-14.8,20.61-15.36,20.61-15.36c0,0,75.41-33.53,80.53-37.71s20.19-4.9,20.19-4.9l17.53-.44s-2.12-8.84-8.68-16.15c-6.56-7.31-13.02-26.8-13.02-26.8,0,0-2.53-12.86-9.64-25.52,0,0-11.47-36.83-19.41-43.05,0,0-10.05,18.07-19.96,23-9.91,4.93-26.58,12.45-31.18,17.79s-42.52,20.57-42.52,20.57c0,0-20.15,3.95-23.93,7.99,0,0-11.81,4.86-18.21,3.08s-24.9,13.09-24.9,13.09l14.67,13.92s-.08,16.37,5.22,31.24c5.31,14.87,23.48,45.88,22.97,54.04Z"/>
          <g class="cls-33">
            <path class="cls-31" d="M519.63,353.86s2.72-10.87,5.98-14.26,9.92-5.43,9.92-5.43c0,0,9.78,1.77,17.52,7.88,0,0,2.99,2.44-1.36,10.46s-9.1,13.04-9.1,13.04c0,0-4.62,2.31-9.1,0s-11.68-6.25-11.68-6.25c0,0-2.44-.68-2.17-5.43Z"/>
            <line class="cls-7" x1="550.74" y1="344.22" x2="544.89" y2="348.43"/>
            <line class="cls-7" x1="541.91" y1="353.59" x2="539.19" y2="361.47"/>
            <line class="cls-7" x1="540.96" y1="347.34" x2="529.68" y2="342.04"/>
          </g>
          <g class="cls-33">
            <path class="cls-31" d="M526.27,324.78s-2.43-10.93-1.04-15.43,6.44-9.29,6.44-9.29c0,0,9.54-2.8,19.19-.79,0,0,3.77,.85,3.46,9.96s-2.31,15.73-2.31,15.73c0,0-3.1,4.13-8.14,4.07s-13.24-.36-13.24-.36c0,0-2.49,.49-4.37-3.89Z"/>
            <line class="cls-7" x1="549.77" y1="302.24" x2="546.43" y2="308.62"/>
            <line class="cls-7" x1="546.07" y1="314.57" x2="547.17" y2="322.83"/>
            <line class="cls-7" x1="542.43" y1="309.41" x2="529.97" y2="309.72"/>
          </g>
          <g class="cls-33">
            <path class="cls-31" d="M562.36,318.39s10.92-2.47,15.42-1.09,9.32,6.4,9.32,6.4c0,0,2.83,9.53,.86,19.19,0,0-.84,3.77-9.95,3.5s-15.74-2.25-15.74-2.25c0,0-4.14-3.08-4.1-8.12s.31-13.24,.31-13.24c0,0-.5-2.49,3.87-4.39Z"/>
            <line class="cls-7" x1="584.99" y1="341.81" x2="578.6" y2="338.49"/>
            <line class="cls-7" x1="572.64" y1="338.15" x2="564.39" y2="339.28"/>
            <line class="cls-7" x1="577.79" y1="334.49" x2="577.44" y2="322.04"/>
          </g>
          <g class="cls-33">
            <path class="cls-31" d="M499.09,286.62s8.72-1.97,12.32-.87,7.44,5.11,7.44,5.11c0,0,2.26,7.61,.69,15.32,0,0-.67,3.01-7.94,2.8s-12.57-1.79-12.57-1.79c0,0-3.31-2.46-3.27-6.49s.25-10.57,.25-10.57c0,0-.4-1.99,3.09-3.5Z"/>
            <line class="cls-7" x1="517.16" y1="305.32" x2="512.05" y2="302.67"/>
            <line class="cls-7" x1="507.3" y1="302.4" x2="500.71" y2="303.29"/>
            <line class="cls-7" x1="511.41" y1="299.47" x2="511.13" y2="289.53"/>
          </g>
          <g class="cls-33">
            <path class="cls-31" d="M559.94,281.46s8.72-1.97,12.32-.87,7.44,5.11,7.44,5.11c0,0,2.26,7.61,.69,15.32,0,0-.67,3.01-7.94,2.8s-12.57-1.79-12.57-1.79c0,0-3.31-2.46-3.27-6.49s.25-10.57,.25-10.57c0,0-.4-1.99,3.09-3.5Z"/>
            <line class="cls-7" x1="578.01" y1="300.15" x2="572.9" y2="297.51"/>
            <line class="cls-7" x1="568.15" y1="297.23" x2="561.56" y2="298.13"/>
            <line class="cls-7" x1="572.26" y1="294.31" x2="571.98" y2="284.37"/>
          </g>
          <g class="cls-33">
            <path class="cls-31" d="M643.19,316.66s-6.6-6.03-7.75-9.61-.06-9.03-.06-9.03c0,0,4.95-6.2,12.18-9.32,0,0,2.85-1.17,6.83,4.92s5.71,11.34,5.71,11.34c0,0-.13,4.12-3.45,6.39s-8.82,5.84-8.82,5.84c0,0-1.4,1.46-4.64-.53Z"/>
            <line class="cls-7" x1="648.22" y1="291.15" x2="648.96" y2="296.85"/>
            <line class="cls-7" x1="651.45" y1="300.91" x2="655.96" y2="305.8"/>
            <line class="cls-7" x1="646.7" y1="299.21" x2="638.7" y2="305.12"/>
          </g>
          <g class="cls-33">
            <path class="cls-31" d="M603.11,307.25s10.92-2.47,15.42-1.09,9.32,6.4,9.32,6.4c0,0,2.83,9.53,.86,19.19,0,0-.84,3.77-9.95,3.5s-15.74-2.25-15.74-2.25c0,0-4.14-3.08-4.1-8.12s.31-13.24,.31-13.24c0,0-.5-2.49,3.87-4.39Z"/>
            <line class="cls-7" x1="625.73" y1="330.67" x2="619.34" y2="327.35"/>
            <line class="cls-7" x1="613.39" y1="327.01" x2="605.13" y2="328.14"/>
            <line class="cls-7" x1="618.54" y1="323.35" x2="618.19" y2="310.9"/>
          </g>
          <path class="cls-22" d="M807.09,531.04c42.93-29.24,56.15-88.49,56.15-88.49,13.69-19.91-5.96-45.94-5.96-45.94-16.8-41.69-129.08-145.39-129.08-145.39-12.09-7.55-39.81-18.4-39.81-18.4l-13.61-2.55c-27.63-6.73-89.68,1.43-89.68,1.43l-29.69,29.51c1.75,3.23,6.1,1.98,6.1,1.98l-8.93,11.27c6.25,6.36,19.69-1.22,19.69-1.22l-12.22,11.38c4.64,7.52,18.14,1.57,18.14,1.57l21.96-15,28.07,3.43-11.46,1.49-30.55,20.23c6.02,15.69,40.34-6.31,40.34-6.31,0,0,15.48-2.05,37.16-1.06,10.85,.5,24.98-8.74,24.98-8.74,0,0,3.38,1.08,7.2,6.61,0,0,61.09,112.46,82.25,126.77,0,0-30.54,25.12-47.34,40.68"/>
          <path class="cls-2" d="M622.22,254.47l-28.29-1-33.88,31.16c5.35,7.85,18.14,1.57,18.14,1.57l21.96-15,28.07,3.43-11.46,1.49-30.55,20.23c5.47,15.35,40.34-6.31,40.34-6.31"/>
          <path class="cls-2" d="M572.28,273.26s-13.41,7.88-19.69,1.22l29.91-35.31,27.44-1.9"/>
          <path class="cls-2" d="M561.52,263.21s-4.31,1.55-6.1-1.98l29.69-29.51,29.67-2.82"/>
        </g>
        <path class="cls-14" d="M731.08,445.76s36.33,56.71,84.18,78.86c0,0-25.7,46.96-41.47,63.64-14.21,15.02-33.16,62.82-33.16,62.82,0,0-32.83-148.36-84.13-164.31,0,0,22.5-17.91,40.5-22.41,0,0,25.91-12.94,34.07-18.6Z"/>
        <path class="cls-3" d="M740.63,651.08s1.75-68.06-17.45-100.34"/>
      </g>
    </g>
  </g>
  <g id="Layer_1" data-name="Layer 1">
    <g>
      <circle class="cls-11" cx="1117.8" cy="185.12" r="118.14"/>
      <rect class="cls-14" x="1028.09" y="147.63" width="180.45" height="78.07" rx="11.46" ry="11.46"/>
      <text class="cls-10" transform="translate(1042.32 205.88)"><tspan x="0" y="0">00:20</tspan></text>
      <path class="cls-11" d="M1096.6,61.8s19.65-5.69,45.24,0l-.52-8.53s10.86,0,9.57-10.08c0,0,0-6.46-7.5-8.27h-49.12s-7.24,1.03-7.24,10.08c0,0,2.59,9.05,9.31,8.27l.26,8.53Z"/>
      <path class="cls-11" d="M1019.49,109.65s8.13-14.17,25.98-25.11l-5.03-4.61s6.24-6.03-.1-11.1c0,0-3.59-3.71-8.9-.59l-28.21,27.26s-3.58,4.61,1.44,9.81c0,0,6.51,3.76,9.94-.41l4.88,4.76Z"/>
      <path class="cls-11" d="M1215.6,109.65s-8.13-14.17-25.98-25.11l5.03-4.61s-6.24-6.03,.1-11.1c0,0,3.59-3.71,8.9-.59l28.21,27.26s3.58,4.61-1.44,9.81c0,0-6.51,3.76-9.94-.41l-4.88,4.76Z"/>
    </g>
  </g>
</svg>