<?xml version="1.0" encoding="UTF-8"?>
<svg id="Layer_1" data-name="Layer 1" xmlns="http://www.w3.org/2000/svg" viewBox="0 0 1333.22 1000.57">
  <defs>
    <style>
      .cls-1, .cls-2 {
        fill: #fff;
      }

      .cls-3 {
        fill: #efcccd;
      }

      .cls-4 {
        fill: #803435;
      }

      .cls-5 {
        fill: #8c3333;
      }

      .cls-6 {
        fill: #b6302e;
      }

      .cls-7 {
        fill: #ae8578;
      }

      .cls-8 {
        fill: #be9e7d;
      }

      .cls-9 {
        fill: #dc3b28;
      }

      .cls-10 {
        fill: #231f20;
      }

      .cls-11 {
        fill: #3c2415;
      }

      .cls-12 {
        fill: #58595b;
      }

      .cls-13 {
        fill: #26130f;
      }

      .cls-14 {
        stroke-width: 5px;
      }

      .cls-14, .cls-15, .cls-16, .cls-17, .cls-18, .cls-19, .cls-20 {
        stroke-miterlimit: 10;
      }

      .cls-14, .cls-15, .cls-17, .cls-18, .cls-19, .cls-20 {
        fill: none;
      }

      .cls-14, .cls-18 {
        stroke: #fff;
      }

      .cls-15 {
        stroke-width: 1.4px;
      }

      .cls-15, .cls-20 {
        stroke: #231f20;
      }

      .cls-16 {
        fill: #d1d3d4;
        stroke: #754c29;
        stroke-width: 8px;
      }

      .cls-17 {
        stroke-width: 2px;
      }

      .cls-17, .cls-19 {
        stroke: #be1e2d;
      }

      .cls-20 {
        stroke-width: 1.2px;
      }

      .cls-2 {
        opacity: .5;
      }

      .cls-21 {
        fill: #dea962;
      }

      .cls-21, .cls-22 {
        opacity: .8;
      }

      .cls-22 {
        fill: #edb36e;
      }
    </style>
  </defs>
  <rect class="cls-22" x="607.07" y="154.3" width="119.07" height="1333.22" transform="translate(1487.52 154.3) rotate(90)"/>
  <rect class="cls-21" x="607.07" y="34.62" width="119.07" height="1333.22" transform="translate(1367.84 34.62) rotate(90)"/>
  <rect class="cls-22" x="607.07" y="-84.86" width="119.07" height="1333.22" transform="translate(1248.35 -84.86) rotate(90)"/>
  <rect class="cls-21" x="607.07" y="-204.55" width="119.07" height="1333.22" transform="translate(1128.67 -204.55) rotate(90)"/>
  <rect class="cls-22" x="607.07" y="-323.96" width="119.07" height="1333.22" transform="translate(1009.26 -323.96) rotate(90)"/>
  <rect class="cls-21" x="607.07" y="-443.64" width="119.07" height="1333.22" transform="translate(889.58 -443.64) rotate(90)"/>
  <rect class="cls-22" x="607.07" y="-563.13" width="119.07" height="1333.22" transform="translate(770.09 -563.13) rotate(90)"/>
  <rect class="cls-21" x="644.94" y="-644.94" width="43.33" height="1333.22" transform="translate(688.28 -644.94) rotate(90)"/>
  <rect class="cls-21" x="607.07" y="273.61" width="119.07" height="1333.22" transform="translate(1606.83 273.61) rotate(90)"/>
  <rect class="cls-16" x="888.73" y="164.22" width="323.55" height="436.79" rx="12" ry="12"/>
  <g>
    <path class="cls-1" d="M966.43,183.14c-.45,3.06-.65,5.13-.32,8.71,1.4,14.15,5.55,56.23,9.37,94.99,2.57,26.04,5.03,50.96,6.86,69.51,.92,9.28,1.68,16.96,2.21,22.4,.02,.17,.03,.34,.05,.5,.02,.12,.02,.32,.06,.47l.19,.4c.14,.29,.28,.57,.42,.85,.27,.55,.52,1.06,.76,1.55,.47,.96,.88,1.79,1.21,2.47,.67,1.37,1.05,2.15,1.12,2.28,1.51,3.09,1.53,3.13,1.53,3.13,0,0,67.87,138.66,81.43,166.34,1.6,3.22,2.86,4.88,4.85,7.25-.65-3.03-1.18-5.04-2.75-8.27-13.55-27.68-81.43-166.34-81.43-166.34,0,0-.02-.04-1.53-3.13-.06-.13-.45-.91-1.11-2.28-.33-.68-.74-1.51-1.21-2.47-.24-.48-.49-1-.76-1.55-.13-.27-.27-.56-.41-.85-.04-.1,0,0-.02-.06-.02-.17-.03-.33-.05-.5-.54-5.44-1.29-13.12-2.21-22.4-1.83-18.55-4.29-43.47-6.86-69.51-3.83-38.76-7.98-80.84-9.38-94.99-.37-3.58-.97-5.57-2.01-8.48Z"/>
    <path class="cls-1" d="M919.42,403.14c3.08-.31,5.14-.62,8.53-1.81,3.55-1.27,11.53-4.12,19.97-7.14,7.56-2.71,15.32-5.48,22.4-8.02,3.54-1.27,6.91-2.47,10-3.58,1.54-.55,3.02-1.08,4.41-1.58,.35-.12,.69-.25,1.03-.37l.25-.09,.19-.07c.09-.02,.17-.06,.24-.12l.5-.33c.58-.38,1.13-.75,1.67-1.1,28.28-18.6,41.32-27.17,41.32-27.17,0,0,73.96-48.62,88.73-58.33,3-1.99,4.48-3.45,6.58-5.72-2.92,1.03-4.85,1.81-7.86,3.77-14.77,9.71-88.73,58.33-88.73,58.33,0,0-13.03,8.57-41.32,27.16-.54,.35-1.09,.72-1.67,1.1l-.37,.25s.06-.02-.06,.02l-.25,.09c-.34,.12-.68,.24-1.03,.37-1.39,.5-2.86,1.02-4.41,1.58-3.09,1.1-6.46,2.31-10,3.58-7.08,2.53-14.84,5.31-22.4,8.02-8.44,3.02-16.42,5.88-19.97,7.16-3.38,1.23-5.16,2.3-7.74,4.01Z"/>
    <path class="cls-1" d="M1082.62,223.17c-2.22,2.16-3.64,3.68-5.55,6.73-14.85,23.96-89.23,143.96-89.23,143.96,0,0-.1,.16-1.03,1.67-.23,.38-.52,.84-.87,1.4-.17,.28-.36,.59-.57,.92-.1,.17-.21,.34-.32,.52-.07,.12-.14,.23-.22,.35-.05,.1-.14,.18-.16,.29l-.06,.34c-.31,1.83-.73,4.22-1.26,7.34-1.11,6.43-20.3,117.93-24.35,141.48-.59,3.55-.54,5.63-.31,8.71,1.25-2.83,1.99-4.78,2.62-8.32,4.05-23.55,23.25-135.04,24.35-141.48,.53-3.1,.94-5.47,1.25-7.29,.87-1.4,1.47-2.37,1.89-3.05,.93-1.5,1.03-1.67,1.03-1.67,0,0,74.38-120,89.23-143.96,1.88-3.07,2.61-5.01,3.56-7.96Z"/>
    <path class="cls-1" d="M941.9,319.99c1.18,2.86,2.07,4.74,4.19,7.64,2.95,4,11.29,15.29,19.16,25.94,5.12,6.92,10.08,13.63,13.93,18.84,1.93,2.61,3.58,4.84,4.83,6.53,.16,.21,.31,.42,.45,.61,.07,.1,.15,.2,.22,.3,.15,.17,.24,.41,.44,.5,.48,.23,.91,.43,1.28,.61,.63,.3,1.09,.52,1.35,.64,6.35,3.03,6.86,3.27,6.86,3.27,0,0,53.51,25.48,64.2,30.57,3.25,1.53,5.27,2.04,8.3,2.66-2.39-1.97-4.06-3.21-7.3-4.77-10.69-5.09-64.2-30.57-64.2-30.57,0,0-.51-.24-6.86-3.27-.26-.12-.72-.34-1.35-.64-.25-.12-.54-.26-.86-.41h0c-.07-.09-.13-.18-.2-.28-.14-.2-.29-.4-.45-.61-1.25-1.7-2.9-3.93-4.83-6.54-3.85-5.21-8.81-11.93-13.93-18.85-7.87-10.65-16.22-21.93-19.18-25.93-2.15-2.88-3.69-4.28-6.08-6.25Z"/>
    <path class="cls-1" d="M932.86,343.23c2.06,2.31,3.52,3.8,6.47,5.84,3.35,2.29,12.05,8.23,20.58,14.07,5.9,4.03,11.75,8.02,16.58,11.32,2.42,1.65,4.58,3.13,6.38,4.35,.45,.31,.87,.6,1.27,.87,.2,.14,.39,.27,.58,.4,.15,.1,.29,.2,.43,.29,.09,.05,.17,.14,.28,.16l.32,.02c.9,.05,1.66,.09,2.27,.12,14.09,.74,16.94,.89,16.94,.89,0,0,58.56,3.08,70.25,3.7,3.59,.17,5.65-.13,8.69-.71-2.96-.9-4.98-1.42-8.57-1.62-11.69-.62-70.25-3.7-70.25-3.7,0,0-2.84-.15-16.94-.89-.52-.03-1.19-.06-1.97-.1-.57-.39-1.24-.85-1.98-1.35-1.79-1.23-3.96-2.71-6.38-4.36-4.84-3.3-10.68-7.3-16.58-11.33-8.54-5.83-17.25-11.77-20.59-14.05-2.98-2.01-4.89-2.83-7.79-3.91Z"/>
    <path class="cls-1" d="M921.31,357.99c2.62,1.66,4.43,2.68,7.83,3.83,3.72,1.23,12.49,4.15,21.53,7.15,7.25,2.41,14.62,4.85,21.12,7,3.25,1.08,6.29,2.09,9,2.98,1.35,.45,2.62,.87,3.79,1.26,.85,.3,.4,.04,1.04,.62,.41,.39,.79,.76,1.16,1.11,18.83,18.09,25.7,24.69,25.7,24.69,0,0,54.76,52.63,65.7,63.14,2.61,2.48,4.36,3.6,7.04,5.14-1.65-2.62-2.84-4.33-5.42-6.83-10.93-10.51-65.7-63.14-65.7-63.14,0,0-6.87-6.6-25.7-24.7-.36-.35-.75-.72-1.15-1.11-.26-.25-.53-.51-.81-.78-.36-.12-.73-.25-1.11-.38-1.17-.39-2.44-.81-3.79-1.26-2.7-.9-5.74-1.91-9-2.99-6.51-2.16-13.87-4.6-21.12-7.01-9.04-2.99-17.82-5.9-21.53-7.13-3.42-1.11-5.48-1.37-8.57-1.61Z"/>
    <path class="cls-1" d="M919.95,434.89c2.78-1.37,4.6-2.37,7.36-4.67,4.38-3.69,16.37-13.79,27.85-23.47,7.84-6.61,15.51-13.08,21.62-18.23,3.06-2.58,5.72-4.83,7.83-6.6,.53-.44,1.02-.86,1.47-1.24,.11-.1,.22-.19,.33-.28,.02-.01-.04,.02,.04-.02,.25-.1,.49-.2,.72-.29,.91-.37,1.62-.66,2.11-.86,12.01-4.92,13.53-5.54,13.53-5.54,0,0,68.85-28.2,82.59-33.83,3.32-1.38,5.06-2.53,7.55-4.36-3.06,.45-5.1,.85-8.44,2.19-13.75,5.63-82.59,33.83-82.59,33.83,0,0-1.52,.62-13.53,5.54-.49,.2-1.2,.49-2.11,.86-.23,.09-.47,.19-.72,.29l-.34,.14c-.12,.06-.22,.17-.33,.26-.11,.09-.22,.18-.33,.28-.45,.38-.94,.8-1.47,1.24-2.1,1.77-4.77,4.02-7.83,6.6-6.11,5.15-13.78,11.62-21.63,18.23-11.47,9.68-23.45,19.78-27.84,23.48-2.74,2.33-4.04,3.96-5.85,6.46Z"/>
    <path class="cls-1" d="M932.86,483.95c2.02-2.34,3.31-3.98,4.95-7.18,3.71-7.34,14.87-29.37,25.1-49.58,6.62-13.07,12.93-25.56,17.59-34.77,2.33-4.61,4.25-8.4,5.58-11.03,.17-.33,.32-.64,.47-.93,.07-.15,.15-.29,.22-.43,.05-.08,.14-.26,.16-.39l.07-.23c.16-.55,.29-1.02,.4-1.39,.22-.75,.34-1.15,.34-1.15,0,0,0-.02,.48-1.64,.25-.87,23.81-81.9,28.56-98.25,.99-3.46,1.17-5.53,1.29-8.62-1.56,2.68-2.51,4.52-3.54,7.97-4.75,16.35-28.31,97.38-28.56,98.25-.47,1.62-.48,1.64-.48,1.64,0,0-.12,.4-.34,1.15-.11,.38-.25,.84-.4,1.39l-.06,.19s.01-.03-.01,.03c-.07,.14-.14,.28-.22,.43-.15,.29-.31,.6-.47,.93-1.34,2.64-3.25,6.43-5.59,11.03-4.66,9.21-10.98,21.69-17.6,34.76-10.23,20.21-21.38,42.25-25.09,49.59-1.61,3.22-2.17,5.22-2.86,8.24Z"/>
    <path class="cls-1" d="M922.25,380.56c3.02,.69,5.06,1.06,8.66,1.01,3.63-.07,12.15-.22,20.96-.38,7.04-.13,14.2-.27,20.54-.38,3.17-.06,6.14-.12,8.8-.17,1.33-.03,2.57-.05,3.73-.07,.25,0,.5,0,.74-.01,.2,.05,.4,.1,.6,.15,.51,.13,1,.25,1.46,.36,23.98,5.87,32.98,8.07,32.98,8.07,0,0,69.13,16.93,82.94,20.31,3.5,.84,5.57,.93,8.67,.92-2.74-1.44-4.62-2.32-8.11-3.19-13.8-3.38-82.94-20.31-82.94-20.31,0,0-9-2.21-32.98-8.08-.46-.11-.95-.23-1.46-.36l-.39-.1-.2-.05c-.11-.02-.26-.08-.39-.07-.31,0-.63,.01-.96,.02-1.15,.02-2.4,.04-3.73,.07-2.65,.05-5.62,.1-8.8,.16-6.35,.12-13.5,.25-20.54,.38-8.8,.17-17.33,.33-20.96,.4-3.59,.09-5.63,.53-8.62,1.33Z"/>
    <path class="cls-1" d="M1022.4,455.5c-1.02,2.92-1.62,4.91-1.97,8.49-.06,.61-.15,1.59-.35,3.64-.43,4.62-1.14,12.18-1.75,18.69-.3,3.26-.58,6.26-.79,8.5-.05,.56-.1,1.07-.14,1.53-.02,.23-.04,.44-.06,.64,0,.1-.02,.2-.03,.29-.02,.16-.04,.36,0,.52,.12,.7,.19,1.14,.21,1.26,.38,2.3,.4,2.42,.4,2.42,0,0,3.22,19.59,5,30.45,.45,2.71,.73,4.39,.87,5.27,.6,3.55,1.33,5.49,2.56,8.34,.25-3.09,.32-5.16-.25-8.72-.14-.88-.42-2.56-.86-5.27-1.79-10.86-5.01-30.45-5.01-30.45,0,0-.02-.12-.4-2.42-.02-.11-.08-.52-.19-1.16,.06-.62,.14-1.46,.23-2.48,.21-2.24,.49-5.24,.8-8.5,.61-6.52,1.32-14.07,1.75-18.69,.19-2.05,.28-3.04,.34-3.64,.32-3.58,.11-5.65-.36-8.71Z"/>
    <path class="cls-1" d="M980.33,319.45c1.51-2.7,2.44-4.56,3.4-8.03,2.16-7.93,13-47.66,13-47.66,0,0,.39-1.44,1.24-4.53,.42-1.55,.96-3.51,1.61-5.91,.33-1.2,.69-2.51,1.07-3.94,.1-.36,.2-.72,.3-1.09,.05-.19,.1-.37,.15-.56l.13-.49-.04-.5c-.07-.79-.14-1.62-.21-2.47-.56-6.64-1.94-22.84-2.33-27.4-.32-3.58-.9-5.58-1.9-8.51-.49,3.06-.72,5.12-.44,8.71,.39,4.56,1.76,20.76,2.32,27.4,.07,.85,.14,1.68,.21,2.47,0,.22,.03-.03-.01,.17-.05,.19-.1,.38-.15,.56-.1,.37-.2,.73-.3,1.09-.39,1.42-.75,2.74-1.07,3.94-.65,2.4-1.19,4.36-1.61,5.91-.84,3.09-1.23,4.53-1.23,4.53,0,0-10.83,39.72-13,47.66-.93,3.47-1.07,5.55-1.14,8.64Z"/>
    <path class="cls-1" d="M1063.81,327.99c1.42-2.75,2.28-4.64,3.13-8.14,.14-.59,.37-1.56,.85-3.56,.89-3.75,2.32-9.81,3.56-15.06,.62-2.62,1.19-5.05,1.62-6.88,.19-.82,.36-1.51,.48-2.03,.27-.38,.45-.63,.51-.72,1.54-2.18,1.66-2.34,1.66-2.34,0,0,9.82-13.83,15.26-21.5,1.59-2.25,2.57-3.63,3.08-4.36,2.07-2.94,2.92-4.84,4.04-7.72-2.35,2.02-3.86,3.45-5.95,6.37-.52,.72-1.5,2.11-3.1,4.35-5.44,7.67-15.24,21.51-15.24,21.51,0,0-.12,.16-1.66,2.34-.09,.13-.36,.51-.77,1.08-.15,.63-.35,1.47-.59,2.48-.43,1.83-1.01,4.25-1.63,6.88-1.24,5.25-2.67,11.31-3.56,15.06-.47,2.01-.7,2.97-.84,3.56-.81,3.5-.88,5.58-.85,8.68Z"/>
    <path class="cls-1" d="M940.9,418.04c-.42,3.07-.61,5.14-.24,8.72,.06,.61,.17,1.59,.39,3.64,.28,2.57,.94,8.66,.94,8.66,0,0,.54,5.1,.85,7.93,.3,2.73,.48,4.42,.58,5.31,.4,3.57,1.02,5.56,2.09,8.46,.42-3.07,.61-5.14,.24-8.72-.09-.88-.27-2.58-.56-5.31-.31-2.83-.86-7.93-.86-7.93,0,0-.65-6.09-.93-8.67-.22-2.05-.33-3.03-.4-3.64-.4-3.57-1.02-5.56-2.09-8.46Z"/>
    <path class="cls-1" d="M1060.52,382.55c-.54,.92-.81,1.52-.6,2.41,.24,.96,1.44,5.76,1.44,5.76,0,0,1.2,4.8,1.44,5.76,.24,.88,.76,1.28,1.67,1.84,.54-.92,.81-1.52,.6-2.41-.24-.96-1.44-5.76-1.44-5.76,0,0-1.2-4.8-1.44-5.76-.24-.88-.76-1.28-1.67-1.84Z"/>
    <path class="cls-1" d="M946.81,365.46c-1.09,.19-1.74,.39-2.35,1.15-.64,.84-3.84,5.04-3.84,5.04,0,0-3.2,4.2-3.84,5.04-.58,.79-.59,1.47-.49,2.57,1.09-.19,1.74-.39,2.35-1.15,.64-.84,3.84-5.04,3.84-5.04,0,0,3.2-4.2,3.84-5.04,.58-.79,.59-1.47,.49-2.57Z"/>
  </g>
  <line class="cls-18" x1="1150.83" y1="544.89" x2="1189.6" y2="591.73"/>
  <line class="cls-18" x1="1159.72" y1="525.51" x2="1198.48" y2="572.35"/>
  <path class="cls-8" d="M303.14,398.71s11.64,36.88-7.16,72.93c0,0-4.7,131.63,95.59,141.82,0,0,71.19-50.38,62.61-120.11-1.07-8.71-19.58-14.22-22.85-23.6l-128.19-71.04Z"/>
  <path class="cls-8" d="M466.46,220.42s21.99,27.61,21.06,97.34c0,0-1.87,16.85,.47,25.74,2.34,8.89,3.28,23.87,.47,33.69-2.81,9.83-23.87,75.81-23.87,75.81,0,0-7.02,19.19-39.78,21.53-32.76,2.34-61.3-7.96-73.94-21.06-12.63-13.1-43.52-33.69-47.73-54.75,0,0-19.19,5.62-28.55-17.31,0,0-23.4-35.1-2.81-45.86,20.59-10.76,34.63,17.78,34.63,17.78,0,0-30.42-84.7,15.91-121.2,0,0,56.62-53.35,144.13-11.7Z"/>
  <path class="cls-10" d="M405.89,301.74s-28.33-4.22-50.8,9.1c0,0,9.14-20.04,50.39-17.28,0,0,7.34,4.2,.41,8.19Z"/>
  <path class="cls-10" d="M488.07,305.78c-18.54-7.31-29.21-3.72-29.21-3.72-6.56-4.57,1.13-8.12,1.13-8.12,12.88,.26,22.46,2.46,29.55,5.36,0,0-.45,6.87-1.46,6.47Z"/>
  <path class="cls-15" d="M271.5,351.17s7.96-12.06,16.89,.24c8.93,12.3,9.41,16.41,9.41,16.41,0,0-12.79-19.54-17.85-3.86"/>
  <path class="cls-9" d="M544.2,1000.57s6.88-35.02,3.93-213.37c0,0,17.36,1.79,32.61-4.75l-6.39-157.64s-1.64-54.52-53.15-91.51c0,0-39-30.41-67.99-42.74l-56.43,42.96-10.37,51.01-17.53-39.45s-3.18-19.92-88.16-70.23c0,0-86.28,33.94-126.55,76.84,0,0-26.26,23.67-41.69,64.03,0,0-25.99,65.66-35.62,156.71,0,0,65.05,45.41,128.96,44.53l-26.6,183.6"/>
  <path class="cls-13" d="M426.65,473.6s-28.64,4.13-52.57-5.69c0,0-14.53-3.68-34.58-24.35,0,0,20.01,30.97,55.44,33.55,0,0,15.95,2.82,31.71-3.52,0,0-.6,3.47,0,0Z"/>
  <g>
    <path class="cls-1" d="M372.55,324.46s-.03-.76,.5-1.41c1.78-2.16,5.93-6.23,12.68-6.48,7.56-.28,11.99,6.66,13.5,9.14,.26,.43,.25,.81,.25,.81,0,0,.04,.42-.2,.72-1.15,1.44-5.03,5.5-12.18,5.88-4.26,.22-10.32-1.84-14.24-7.49-.27-.39-.31-.9-.31-1.18Z"/>
    <circle class="cls-13" cx="388.19" cy="325.22" r="7.82"/>
    <circle class="cls-1" cx="383.2" cy="323.81" r="2.15"/>
    <path class="cls-20" d="M399.7,325.71s-9.87-17.7-26.94-2.71"/>
  </g>
  <g>
    <path class="cls-1" d="M459.94,327.58s-.14-.7,.27-1.38c1.35-2.26,4.63-6.64,10.87-7.84,6.99-1.34,12.1,4.48,13.86,6.57,.3,.36,.35,.72,.35,.72,0,0,.1,.38-.08,.7-.87,1.51-3.89,5.84-10.49,7.21-3.93,.82-9.87-.24-14.32-4.93-.31-.33-.42-.8-.46-1.05Z"/>
    <circle class="cls-13" cx="474.6" cy="326.03" r="7.33"/>
    <circle class="cls-1" cx="469.54" cy="325.61" r="2.05"/>
    <path class="cls-20" d="M485.1,325.15s-11.37-16.15-25.06,1.38"/>
  </g>
  <path class="cls-17" d="M200.67,748.79s2.93-51.72,6.83-84.9"/>
  <path class="cls-11" d="M305.38,350.56l10.15-4.62c.45-26.34,2.96-82.78,21.59-106.34,0,0,78.55-37.74,128.69-5.29,0,0,16.98,12.99,20.5,81.58,0,0,10.32-47.64-4.33-88.63,0,0,13.34-9.22,15.17-13.5,0,0-17.53,2.94-26.18-6.1-5.07-5.3-75.1-63.3-155.06-6.26,0,0-76.31,17.48-46.21,134.89,0,0,23.69-9.4,35.67,14.27Z"/>
  <path class="cls-15" d="M442.22,336.12l15.58,25.6s8.37,19.54-4.58,22.88c-11.53,2.97-11.9,.45-11.9,.45"/>
  <path class="cls-11" d="M383.76,413.5s-2.93-19.71,13.33-25.35c19.97-6.92,41.74-9.55,57.72-2.22,15.98,7.34,24.85,15.79,12.42,16.91-12.43,1.12-38.17-12.98-63.93,1.65,0,0-9.77,11.26-19.54,9Z"/>
  <polygon class="cls-5" points="287.03 459.94 301.98 457.2 299.63 474.91 287.03 459.94"/>
  <path class="cls-6" d="M274.76,477.05s78.23,44.99,94.11,71.24l-2.77-26.32s-58.06-35.4-79.07-62.02l-12.27,17.1Z"/>
  <path class="cls-19" d="M396.18,617.95s17.15,110.87,25.93,382.59"/>
  <ellipse class="cls-3" cx="379.63" cy="628.71" rx="4.61" ry="4.99" transform="translate(-15.42 9.58) rotate(-1.42)"/>
  <ellipse class="cls-3" cx="393.38" cy="712.16" rx="4.61" ry="4.99" transform="translate(-17.48 9.94) rotate(-1.42)"/>
  <ellipse class="cls-3" cx="399.82" cy="797.13" rx="4.61" ry="4.99" transform="translate(-19.58 10.13) rotate(-1.42)"/>
  <ellipse class="cls-3" cx="404.09" cy="884.7" rx="4.61" ry="4.99" transform="translate(-21.74 10.26) rotate(-1.42)"/>
  <ellipse class="cls-3" cx="405.88" cy="960.16" rx="4.61" ry="4.99" transform="translate(-23.61 10.33) rotate(-1.42)"/>
  <g>
    <rect class="cls-3" x="318.98" y="971.96" width="19.86" height="19.86" transform="translate(-624.29 577.31) rotate(-48.48)"/>
    <rect class="cls-3" x="346.93" y="970.26" width="19.86" height="19.86" transform="translate(-613.6 597.66) rotate(-48.48)"/>
    <rect class="cls-3" x="317.36" y="943.87" width="19.86" height="19.86" transform="translate(-603.81 566.63) rotate(-48.48)"/>
    <rect class="cls-12" x="332.14" y="957.21" width="19.86" height="19.86" transform="translate(-608.81 582.19) rotate(-48.48)"/>
    <rect class="cls-3" x="345.31" y="942.17" width="19.86" height="19.86" transform="translate(-593.11 586.98) rotate(-48.48)"/>
    <rect class="cls-3" x="315.66" y="915.95" width="19.86" height="19.86" transform="translate(-583.48 555.94) rotate(-48.48)"/>
    <rect class="cls-12" x="330.44" y="929.29" width="19.86" height="19.86" transform="translate(-588.48 571.51) rotate(-48.48)"/>
    <rect class="cls-3" x="343.61" y="914.25" width="19.86" height="19.86" transform="translate(-572.78 576.3) rotate(-48.48)"/>
    <rect class="cls-3" x="313.96" y="888.03" width="19.86" height="19.86" transform="translate(-563.15 545.26) rotate(-48.48)"/>
    <rect class="cls-12" x="328.74" y="901.37" width="19.86" height="19.86" transform="translate(-568.15 560.82) rotate(-48.48)"/>
    <rect class="cls-3" x="341.91" y="886.33" width="19.86" height="19.86" transform="translate(-552.45 565.61) rotate(-48.48)"/>
    <rect class="cls-3" x="312.27" y="860.11" width="19.86" height="19.86" transform="translate(-542.81 534.57) rotate(-48.48)"/>
    <rect class="cls-12" x="327.05" y="873.45" width="19.86" height="19.86" transform="translate(-547.82 550.14) rotate(-48.48)"/>
    <rect class="cls-3" x="340.21" y="858.41" width="19.86" height="19.86" transform="translate(-532.12 554.92) rotate(-48.48)"/>
    <rect class="cls-3" x="310.57" y="832.28" width="19.86" height="19.86" transform="translate(-522.55 523.93) rotate(-48.48)"/>
    <rect class="cls-12" x="325.35" y="845.62" width="19.86" height="19.86" transform="translate(-527.55 539.49) rotate(-48.48)"/>
    <rect class="cls-3" x="338.52" y="830.58" width="19.86" height="19.86" transform="translate(-511.86 544.28) rotate(-48.48)"/>
    <rect class="cls-3" x="308.87" y="804.36" width="19.86" height="19.86" transform="translate(-502.22 513.24) rotate(-48.48)"/>
    <rect class="cls-12" x="323.65" y="817.7" width="19.86" height="19.86" transform="translate(-507.22 528.8) rotate(-48.48)"/>
    <rect class="cls-3" x="336.82" y="802.66" width="19.86" height="19.86" transform="translate(-491.52 533.59) rotate(-48.48)"/>
    <rect class="cls-3" x="307.18" y="776.54" width="19.86" height="19.86" transform="translate(-481.96 502.59) rotate(-48.48)"/>
    <rect class="cls-12" x="321.96" y="789.88" width="19.86" height="19.86" transform="translate(-486.96 518.16) rotate(-48.48)"/>
    <rect class="cls-3" x="335.13" y="774.84" width="19.86" height="19.86" transform="translate(-471.26 522.94) rotate(-48.48)"/>
    <rect class="cls-3" x="305.48" y="748.62" width="19.86" height="19.86" transform="translate(-461.62 491.91) rotate(-48.48)"/>
    <rect class="cls-12" x="320.26" y="761.96" width="19.86" height="19.86" transform="translate(-466.63 507.47) rotate(-48.48)"/>
    <rect class="cls-3" x="333.43" y="746.92" width="19.86" height="19.86" transform="translate(-450.93 512.26) rotate(-48.48)"/>
    <rect class="cls-3" x="303.79" y="720.8" width="19.86" height="19.86" transform="translate(-441.36 481.26) rotate(-48.48)"/>
    <rect class="cls-12" x="318.57" y="734.13" width="19.86" height="19.86" transform="translate(-446.37 496.82) rotate(-48.48)"/>
    <rect class="cls-3" x="331.73" y="719.1" width="19.86" height="19.86" transform="translate(-430.67 501.61) rotate(-48.48)"/>
    <rect class="cls-3" x="301.97" y="692.39" width="19.86" height="19.86" transform="translate(-420.7 470.32) rotate(-48.48)"/>
    <rect class="cls-12" x="316.75" y="705.73" width="19.86" height="19.86" transform="translate(-425.71 485.88) rotate(-48.48)"/>
    <rect class="cls-3" x="329.92" y="690.69" width="19.86" height="19.86" transform="translate(-410.01 490.67) rotate(-48.48)"/>
    <rect class="cls-3" x="300.35" y="664.3" width="19.86" height="19.86" transform="translate(-400.22 459.64) rotate(-48.48)"/>
    <rect class="cls-12" x="315.13" y="677.64" width="19.86" height="19.86" transform="translate(-405.22 475.2) rotate(-48.48)"/>
    <rect class="cls-3" x="328.3" y="662.6" width="19.86" height="19.86" transform="translate(-389.52 479.99) rotate(-48.48)"/>
    <rect class="cls-3" x="298.65" y="636.38" width="19.86" height="19.86" transform="translate(-379.89 448.95) rotate(-48.48)"/>
    <rect class="cls-12" x="313.43" y="649.72" width="19.86" height="19.86" transform="translate(-384.89 464.52) rotate(-48.48)"/>
    <rect class="cls-3" x="326.6" y="634.68" width="19.86" height="19.86" transform="translate(-369.19 469.3) rotate(-48.48)"/>
    <rect class="cls-3" x="296.95" y="608.46" width="19.86" height="19.86" transform="translate(-359.55 438.27) rotate(-48.48)"/>
    <rect class="cls-12" x="311.73" y="621.8" width="19.86" height="19.86" transform="translate(-364.56 453.83) rotate(-48.48)"/>
    <rect class="cls-3" x="324.9" y="606.76" width="19.86" height="19.86" transform="translate(-348.86 458.62) rotate(-48.48)"/>
    <rect class="cls-3" x="295.26" y="580.54" width="19.86" height="19.86" transform="translate(-339.22 427.58) rotate(-48.48)"/>
    <rect class="cls-12" x="310.04" y="593.88" width="19.86" height="19.86" transform="translate(-344.22 443.14) rotate(-48.48)"/>
    <rect class="cls-3" x="323.2" y="578.84" width="19.86" height="19.86" transform="translate(-328.53 447.93) rotate(-48.48)"/>
    <rect class="cls-3" x="293.56" y="552.72" width="19.86" height="19.86" transform="translate(-318.96 416.93) rotate(-48.48)"/>
    <rect class="cls-12" x="308.34" y="566.05" width="19.86" height="19.86" transform="translate(-323.96 432.5) rotate(-48.48)"/>
    <rect class="cls-3" x="321.51" y="551.01" width="19.86" height="19.86" transform="translate(-308.26 437.28) rotate(-48.48)"/>
    <rect class="cls-3" x="291.86" y="524.79" width="19.86" height="19.86" transform="translate(-298.63 406.25) rotate(-48.48)"/>
    <rect class="cls-12" x="306.64" y="538.13" width="19.86" height="19.86" transform="translate(-303.63 421.81) rotate(-48.48)"/>
    <rect class="cls-3" x="319.81" y="523.09" width="19.86" height="19.86" transform="translate(-287.93 426.6) rotate(-48.48)"/>
    <rect class="cls-3" x="290.23" y="496.97" width="19.86" height="19.86" transform="translate(-278.34 395.64) rotate(-48.48)"/>
    <rect class="cls-12" x="305.01" y="510.3" width="19.86" height="19.86" transform="translate(-283.34 411.2) rotate(-48.48)"/>
    <polyline class="cls-12" points="316.51 503.29 314.18 506.03 299.3 492.86 299.99 492.09"/>
    <polygon class="cls-3" points="328.96 519.22 314.09 506.05 316.51 503.29 332.76 515.02 328.96 519.22"/>
  </g>
  <g>
    <polyline class="cls-3" points="194.43 770.27 177.31 780.25 166.92 762.43 184.8 752 194.79 769.09"/>
    <polygon class="cls-12" points="197.77 755.33 194.79 769.09 184.94 752.15 200.01 743.33 197.77 755.33"/>
    <polyline class="cls-3" points="199.96 743.24 184.78 752.1 174.38 734.28 192.26 723.85 200.75 738.41"/>
    <rect class="cls-3" x="142.42" y="748.32" width="20.7" height="20.63" transform="translate(-361.33 180.21) rotate(-30.25)"/>
    <rect class="cls-12" x="160.43" y="738.04" width="20.7" height="20.63" transform="translate(-353.7 187.89) rotate(-30.25)"/>
    <rect class="cls-3" x="149.88" y="720.17" width="20.7" height="20.63" transform="translate(-346.13 180.14) rotate(-30.25)"/>
    <rect class="cls-3" x="114.27" y="740.95" width="20.7" height="20.63" transform="translate(-361.45 165.04) rotate(-30.25)"/>
    <rect class="cls-12" x="132.29" y="730.68" width="20.7" height="20.63" transform="translate(-353.82 172.71) rotate(-30.25)"/>
    <rect class="cls-3" x="121.73" y="712.8" width="20.7" height="20.63" transform="translate(-346.26 164.96) rotate(-30.25)"/>
    <rect class="cls-12" x="104.14" y="723.31" width="20.7" height="20.63" transform="translate(-353.94 157.53) rotate(-30.25)"/>
    <rect class="cls-3" x="86.01" y="733.81" width="20.7" height="20.63" transform="translate(-361.7 149.83) rotate(-30.25)"/>
    <rect class="cls-3" x="93.47" y="705.66" width="20.7" height="20.63" transform="translate(-346.5 149.76) rotate(-30.25)"/>
    <polyline class="cls-12" points="85.45 714.99 89.97 712.36 100.36 730.18 82.48 740.6"/>
  </g>
  <path class="cls-8" d="M545.37,1000.57l3.89-214.07,23.51-.94s-5.83,27.63,3.9,55.93c0,0,5.05,11.33,3.37,35.34-1.68,24.01,.71,57-6.38,123.16"/>
  <path class="cls-8" d="M197.94,999.53l-5.18-90.28,14.68-95.68s-67.22-1.51-111.59-30.67c0,0-12.76,39.67-9.48,90.24,3.28,50.57,5.91,53.85,5.91,53.85l16.52,73.06"/>
  <ellipse class="cls-7" cx="434.64" cy="419.28" rx="12.55" ry="12.85"/>
  <ellipse class="cls-4" cx="434.43" cy="419.01" rx="9.06" ry="9.27"/>
  <g>
    <path class="cls-14" d="M447.84,431.35s24.64,24.63,59.25,12.54c0,0,10.55-27.66,28.93-17.77,18.39,9.88,1.18,31.7,1.18,31.7,0,0,25.96,6.09,16.29,25.71-9.68,19.62-30.01,5.64-30.01,5.64,0,0-5.58,25.25-27.86,14.75-22.28-10.49-2.87-32.36-2.87-32.36,0,0-31.14-8.7-44.92-40.19Z"/>
    <path class="cls-2" d="M447.71,430.27s24.64,24.63,59.25,12.54c0,0,10.55-27.66,28.93-17.77,18.39,9.88,1.18,31.7,1.18,31.7,0,0,25.96,6.09,16.29,25.71-9.68,19.62-30.01,5.64-30.01,5.64,0,0-5.58,25.25-27.86,14.75-22.28-10.49-2.87-32.36-2.87-32.36,0,0-31.14-8.7-44.92-40.19Z"/>
  </g>
  <path class="cls-6" d="M437.65,474.97s34.62,1.72,31.45,23.98l-75.06,47.9-.73-18.82s34.67-13.88,58.75-39.01c0,0-14.48-3.19-14.42-14.04Z"/>
</svg>