<?xml version="1.0" encoding="UTF-8"?>
<svg xmlns="http://www.w3.org/2000/svg" xmlns:xlink="http://www.w3.org/1999/xlink" viewBox="0 0 1334.68 1003.53">
  <defs>
    <style>
      .cls-1 {
        fill: url(#linear-gradient);
      }

      .cls-2, .cls-3 {
        stroke-width: .8px;
      }

      .cls-2, .cls-3, .cls-4, .cls-5, .cls-6, .cls-7, .cls-8, .cls-9, .cls-10, .cls-11, .cls-12, .cls-13, .cls-14, .cls-15, .cls-16, .cls-17, .cls-18 {
        stroke-miterlimit: 10;
      }

      .cls-2, .cls-3, .cls-6, .cls-7, .cls-9, .cls-10, .cls-11, .cls-12, .cls-13, .cls-14, .cls-15, .cls-16, .cls-17, .cls-18 {
        fill: none;
      }

      .cls-2, .cls-5, .cls-17 {
        stroke: #603913;
      }

      .cls-3, .cls-4, .cls-6, .cls-7, .cls-11, .cls-14, .cls-15 {
        stroke: #231f20;
      }

      .cls-19 {
        fill: #00a79d;
      }

      .cls-20 {
        fill: #f6ac1b;
      }

      .cls-21 {
        fill: #fff;
      }

      .cls-22 {
        fill: #efcccd;
      }

      .cls-23 {
        fill: #803435;
      }

      .cls-24 {
        fill: #8c3333;
      }

      .cls-25 {
        fill: #b6302e;
      }

      .cls-26 {
        fill: #b27a50;
      }

      .cls-27 {
        fill: #ae8578;
      }

      .cls-28 {
        fill: #a8866a;
      }

      .cls-29 {
        fill: #be9e7d;
      }

      .cls-30 {
        fill: #d39494;
      }

      .cls-31 {
        fill: #dc3b28;
      }

      .cls-32 {
        fill: #cba27a;
      }

      .cls-33 {
        fill: #134a7e;
      }

      .cls-34, .cls-4 {
        fill: #231f20;
      }

      .cls-35 {
        fill: #414042;
      }

      .cls-36 {
        fill: #3a6bb4;
      }

      .cls-37 {
        fill: #3c2415;
      }

      .cls-38 {
        fill: #58595b;
      }

      .cls-39 {
        fill: #75c482;
      }

      .cls-40 {
        fill: #26130f;
      }

      .cls-4, .cls-9 {
        stroke-width: 2px;
      }

      .cls-5 {
        fill: #bd9154;
        stroke-width: .2px;
      }

      .cls-6 {
        stroke-width: 1.4px;
      }

      .cls-7 {
        stroke-linecap: round;
      }

      .cls-7, .cls-16, .cls-17, .cls-18 {
        stroke-width: .5px;
      }

      .cls-8 {
        fill: #d1d3d4;
        stroke-width: 8px;
      }

      .cls-8, .cls-18 {
        stroke: #754c29;
      }

      .cls-9, .cls-13 {
        stroke: #be1e2d;
      }

      .cls-10 {
        stroke: #0c3149;
      }

      .cls-12 {
        stroke: #2e3192;
      }

      .cls-14 {
        stroke-width: .6px;
      }

      .cls-15 {
        stroke-width: 1.2px;
      }

      .cls-41 {
        fill: #dea962;
      }

      .cls-41, .cls-42 {
        opacity: .8;
      }

      .cls-42 {
        fill: #edb36e;
      }

      .cls-16 {
        stroke: #fff;
      }
    </style>
    <linearGradient id="linear-gradient" x1="1221.48" y1="346.33" x2="1221.48" y2="277.08" gradientTransform="translate(1985.78 92.17) rotate(-175.84) scale(1 -1)" gradientUnits="userSpaceOnUse">
      <stop offset="0" stop-color="#be9e7d"/>
      <stop offset=".7" stop-color="#231f20"/>
    </linearGradient>
  </defs>
  <g id="FONDO">
    <rect class="cls-5" x=".1" y="738.25" width="1334.48" height="265.18" transform="translate(1334.68 1741.68) rotate(-180)"/>
    <rect class="cls-41" x="614.87" y="-190.81" width="104.63" height="1333.33" transform="translate(1143.04 -191.33) rotate(90)"/>
    <rect class="cls-42" x="614.87" y="-295.8" width="104.63" height="1333.33" transform="translate(1038.05 -296.31) rotate(90)"/>
    <rect class="cls-41" x="614.87" y="18.5" width="104.63" height="1333.33" transform="translate(1352.35 17.98) rotate(90)"/>
    <rect class="cls-42" x="614.87" y="-86.49" width="104.63" height="1333.33" transform="translate(1247.36 -87.01) rotate(90)"/>
    <rect class="cls-41" x="614.87" y="-400.96" width="104.63" height="1333.33" transform="translate(932.89 -401.48) rotate(90)"/>
    <rect class="cls-42" x="614.87" y="-505.88" width="104.63" height="1333.33" transform="translate(827.97 -506.4) rotate(90)"/>
    <rect class="cls-41" x="614.87" y="-611.05" width="104.63" height="1333.33" transform="translate(722.8 -611.56) rotate(90)"/>
    <rect class="cls-8" x="943.29" y="4" width="284.29" height="383.8" rx="12" ry="12"/>
    <g>
      <path class="cls-21" d="M1011.56,20.63c-.45,3.06-.65,5.13-.32,8.71,1.22,12.39,4.86,49.25,8.2,83.2,2.24,22.67,4.38,44.36,5.98,60.51,.8,8.07,1.46,14.76,1.93,19.49,.02,.16,.03,.31,.05,.46,.02,.14,0,.29,.06,.42l.17,.36c.12,.25,.24,.5,.36,.74,.23,.48,.45,.93,.66,1.35,.41,.84,.76,1.56,1.05,2.15,.58,1.19,.91,1.87,.97,1.98,1.29,2.63,1.3,2.66,1.3,2.66,0,0,59.32,121.18,71.16,145.37,1.6,3.22,2.86,4.88,4.85,7.25-.65-3.03-1.18-5.04-2.75-8.27-11.84-24.2-71.16-145.37-71.16-145.37,0,0-.02-.03-1.3-2.66-.05-.11-.39-.79-.97-1.98-.29-.59-.64-1.31-1.05-2.15-.21-.42-.42-.87-.66-1.35-.12-.24-.24-.48-.36-.74-.03-.05,0-.01-.01-.03-.01-.14-.03-.27-.04-.41-.47-4.73-1.13-11.42-1.92-19.49-1.59-16.15-3.73-37.84-5.97-60.51-3.35-33.94-6.99-70.81-8.22-83.2-.37-3.58-.97-5.57-2.01-8.48Z"/>
      <path class="cls-21" d="M970.26,213.93c3.08-.31,5.14-.62,8.53-1.81,3.1-1.11,10.01-3.58,17.34-6.2,6.45-2.31,13.08-4.68,19.15-6.86,3.03-1.09,5.93-2.12,8.59-3.07,1.33-.48,2.6-.93,3.8-1.36,.3-.11,.6-.21,.89-.32,.15-.06,.24-.07,.58-.22l.48-.31c.5-.33,.98-.65,1.45-.95,24.62-16.19,36.21-23.81,36.21-23.81,0,0,64.38-42.32,77.23-50.77,3-1.99,4.48-3.45,6.58-5.72-2.92,1.03-4.85,1.81-7.86,3.77-12.85,8.45-77.23,50.77-77.23,50.77,0,0-11.6,7.62-36.22,23.8-.47,.31-.95,.62-1.45,.95l-.19,.12-.09,.06h0c.06-.02-.15,.05-.28,.1-.29,.1-.59,.21-.89,.32-1.2,.43-2.47,.88-3.8,1.36-2.66,.95-5.55,1.99-8.59,3.07-6.07,2.17-12.7,4.55-19.15,6.86-7.33,2.63-14.24,5.11-17.34,6.22-3.38,1.23-5.16,2.3-7.74,4.01Z"/>
      <path class="cls-21" d="M1113.66,55.79c-2.22,2.16-3.64,3.68-5.55,6.73-12.94,20.88-77.76,125.46-77.76,125.46,0,0-.09,.15-.92,1.48-.21,.33-.46,.74-.77,1.24-.15,.25-.32,.52-.51,.82-.09,.15-.19,.3-.29,.46l-.15,.25c-.07,.15-.24,.31-.27,.51-.29,1.66-.66,3.82-1.14,6.65-.99,5.73-17.7,102.82-21.23,123.35-.59,3.55-.54,5.63-.31,8.71,1.25-2.83,1.99-4.78,2.62-8.32,3.53-20.53,20.25-117.62,21.23-123.35,.46-2.68,.82-4.74,1.09-6.31,.79-1.28,1.34-2.17,1.72-2.78,.83-1.33,.92-1.48,.92-1.48,0,0,64.82-104.58,77.76-125.46,1.88-3.07,2.61-5.01,3.56-7.96Z"/>
      <path class="cls-21" d="M990.01,140.87c1.18,2.86,2.07,4.74,4.19,7.64,2.57,3.48,9.83,13.3,16.68,22.57,4.37,5.91,8.61,11.65,11.91,16.1,1.65,2.23,3.06,4.14,4.13,5.59,.13,.18,.26,.36,.39,.52,.07,.09,.14,.19,.21,.28,.13,.15,.21,.35,.37,.44,.43,.2,.81,.38,1.15,.55,.54,.26,.93,.44,1.16,.55,5.49,2.61,5.94,2.83,5.94,2.83,0,0,46.36,22.08,55.62,26.49,3.25,1.53,5.27,2.04,8.3,2.66-2.39-1.97-4.06-3.21-7.3-4.77-9.26-4.41-55.62-26.49-55.62-26.49,0,0-.45-.21-5.93-2.83-.23-.11-.62-.29-1.16-.55-.2-.1-.43-.21-.69-.33h0s-.16-.21-.16-.21c-.12-.17-.25-.34-.39-.52-1.07-1.45-2.48-3.36-4.13-5.59-3.29-4.46-7.53-10.19-11.9-16.11-6.85-9.27-14.12-19.09-16.69-22.56-2.15-2.88-3.69-4.28-6.08-6.25Z"/>
      <path class="cls-21" d="M982.07,161.29c2.06,2.31,3.52,3.8,6.47,5.84,2.91,1.99,10.45,7.15,17.87,12.21,5.01,3.42,9.98,6.82,14.1,9.63,2.06,1.41,3.91,2.67,5.45,3.72,.38,.26,.75,.51,1.09,.75,.17,.12,.34,.23,.5,.34,.13,.09,.26,.18,.38,.26l.23,.16c.08,.03,.18,.02,.27,.03,.8,.04,1.49,.08,2.03,.11,12.25,.64,14.78,.78,14.78,.78,0,0,50.73,2.67,60.86,3.2,3.59,.17,5.65-.13,8.69-.71-2.96-.9-4.98-1.42-8.57-1.62-10.13-.53-60.86-3.2-60.86-3.2,0,0-2.53-.13-14.78-.78-.44-.02-.98-.05-1.63-.09-.49-.33-1.05-.72-1.68-1.15-1.54-1.05-3.38-2.31-5.44-3.72-4.12-2.81-9.09-6.21-14.1-9.63-7.42-5.06-14.97-10.21-17.88-12.2-2.98-2.01-4.89-2.83-7.79-3.91Z"/>
      <path class="cls-21" d="M971.91,174.26c2.62,1.66,4.43,2.68,7.83,3.83,3.23,1.07,10.84,3.6,18.69,6.21,6.18,2.05,12.46,4.13,18.03,5.98,2.78,.92,5.39,1.79,7.71,2.56,1.16,.39,2.26,.75,3.27,1.08l.37,.12,.14,.05h0s0,0,0,0h0s.06,.06,.06,.06l.27,.26c.35,.34,.69,.66,1,.96,16.39,15.74,22.51,21.62,22.51,21.62,0,0,47.59,45.74,57.1,54.87,2.61,2.48,4.36,3.6,7.04,5.14-1.65-2.62-2.84-4.33-5.42-6.83-9.5-9.13-57.1-54.87-57.1-54.87,0,0-6.12-5.88-22.5-21.63-.32-.3-.65-.63-1-.96l-.27-.26-.21-.2c-.1-.08-.17-.2-.29-.24-.32-.1-.64-.21-.97-.32-1.01-.34-2.1-.7-3.26-1.08-2.32-.77-4.93-1.64-7.71-2.56-5.57-1.85-11.84-3.93-18.02-5.98-7.85-2.6-15.46-5.12-18.7-6.19-3.42-1.11-5.48-1.37-8.57-1.61Z"/>
      <path class="cls-21" d="M970.73,241.83c2.78-1.37,4.6-2.37,7.36-4.67,3.82-3.22,14.26-12.02,24.26-20.45,6.73-5.68,13.31-11.23,18.57-15.66,2.63-2.21,4.92-4.15,6.73-5.68,.45-.38,.88-.74,1.27-1.07,.1-.08,.19-.16,.28-.24h0c.21-.09,.42-.17,.61-.25,.78-.32,1.4-.57,1.82-.75,10.45-4.28,11.79-4.83,11.79-4.83,0,0,59.82-24.5,71.76-29.4,3.32-1.38,5.06-2.53,7.55-4.36-3.06,.45-5.1,.85-8.44,2.19-11.94,4.89-71.76,29.4-71.76,29.4,0,0-1.34,.55-11.79,4.83-.42,.17-1.04,.43-1.82,.75-.2,.08-.41,.17-.62,.26l-.33,.13-.28,.23c-.09,.08-.19,.16-.29,.24-.39,.33-.81,.69-1.27,1.07-1.81,1.53-4.11,3.46-6.73,5.67-5.25,4.43-11.84,9.98-18.57,15.65-10,8.44-20.43,17.24-24.25,20.46-2.74,2.33-4.04,3.96-5.85,6.46Z"/>
      <path class="cls-21" d="M982.07,284.94c2.02-2.34,3.31-3.98,4.95-7.18,3.24-6.4,12.97-25.62,21.9-43.25,5.71-11.29,11.16-22.06,15.19-30.01,2.01-3.98,3.67-7.25,4.82-9.52,.14-.28,.28-.55,.41-.81,.12-.28,.25-.39,.42-.92,.14-.47,.25-.88,.35-1.2,.19-.65,.29-1,.29-1,0,0,0-.02,.45-1.54,.24-.83,20.69-71.18,24.82-85.39,.99-3.46,1.17-5.53,1.29-8.62-1.56,2.68-2.51,4.52-3.54,7.97-4.13,14.21-24.58,84.56-24.82,85.39-.44,1.52-.45,1.54-.45,1.54,0,0-.1,.35-.29,1-.09,.33-.21,.73-.35,1.2,.04-.05-.14,.28-.26,.52-.13,.25-.26,.52-.41,.81-1.15,2.28-2.81,5.55-4.82,9.52-4.03,7.95-9.48,18.72-15.19,30.01-8.92,17.63-18.65,36.85-21.88,43.25-1.61,3.22-2.17,5.22-2.86,8.24Z"/>
      <path class="cls-21" d="M972.74,194.1c3.02,.69,5.06,1.06,8.66,1.01,3.16-.06,10.54-.19,18.18-.33,5.98-.11,12.07-.23,17.49-.33,2.71-.05,5.25-.1,7.53-.14,1.14-.02,2.21-.04,3.21-.06,.22,0,.44,0,.65-.01-.11-.03,.28,.07,.46,.11,.44,.11,.87,.21,1.27,.31,20.85,5.1,28.88,7.07,28.88,7.07,0,0,60.04,14.7,72.02,17.64,3.5,.84,5.57,.93,8.67,.92-2.74-1.44-4.62-2.32-8.11-3.19-11.99-2.94-72.02-17.64-72.02-17.64,0,0-8.02-1.97-28.87-7.08-.4-.1-.82-.2-1.27-.31-.26-.05-.32-.12-.9-.18-.27,0-.54,0-.81,.01-.99,.02-2.07,.04-3.21,.06-2.28,.04-4.82,.09-7.53,.14-5.42,.1-11.5,.21-17.49,.32-7.64,.15-15.02,.29-18.18,.35-3.59,.09-5.63,.53-8.62,1.33Z"/>
      <path class="cls-21" d="M1060.74,259.94c-1.02,2.92-1.62,4.91-1.97,8.49-.06,.61-.15,1.59-.35,3.64-.36,3.83-.95,10.09-1.45,15.49-.25,2.7-.48,5.18-.66,7.04-.04,.46-.08,.89-.12,1.27-.02,.19-.03,.37-.05,.53,0,.09-.02,.17-.02,.25-.02,.15-.04,.3,0,.44,.1,.6,.16,.97,.18,1.07,.32,1.92,.33,2.02,.33,2.02,0,0,2.67,16.25,4.14,25.26,.45,2.71,.73,4.39,.87,5.27,.6,3.55,1.33,5.49,2.56,8.34,.25-3.09,.32-5.16-.25-8.72-.14-.88-.42-2.56-.86-5.27-1.48-9.01-4.16-25.25-4.16-25.25,0,0-.02-.1-.33-2.02-.01-.09-.07-.42-.15-.94,.05-.51,.11-1.2,.19-2.03,.18-1.86,.41-4.34,.66-7.04,.51-5.4,1.09-11.66,1.45-15.49,.19-2.05,.28-3.04,.34-3.64,.32-3.58,.11-5.65-.36-8.71Z"/>
      <path class="cls-21" d="M1023.78,140.4c1.51-2.7,2.44-4.56,3.4-8.03,1.85-6.77,11.1-40.7,11.1-40.7,0,0,.36-1.33,1.12-4.1,.38-1.38,.85-3.12,1.43-5.24,.29-1.06,.6-2.2,.94-3.45,.08-.31,.17-.63,.26-.95l.13-.49,.11-.42c.03-.16-.02-.36-.02-.49-.06-.69-.12-1.41-.18-2.14-.38-4.52-1.07-12.68-1.5-17.77-.24-2.74-.38-4.43-.46-5.32-.32-3.58-.9-5.58-1.9-8.51-.49,3.06-.72,5.12-.44,8.71,.07,.89,.21,2.58,.44,5.32,.43,5.09,1.13,13.25,1.51,17.77,.06,.74,.12,1.45,.18,2.14,0,.04,0,.01,0,.02,0,.01,.01-.04-.02,.08l-.13,.49c-.09,.32-.17,.64-.26,.95-.34,1.24-.65,2.39-.94,3.45-.58,2.11-1.05,3.85-1.43,5.24-.75,2.77-1.12,4.1-1.12,4.1,0,0-9.25,33.92-11.1,40.7-.93,3.47-1.07,5.55-1.14,8.64Z"/>
      <path class="cls-21" d="M1097.12,147.9c1.42-2.75,2.28-4.64,3.13-8.14,.14-.59,.37-1.56,.85-3.56,.73-3.07,1.9-8.02,2.91-12.32,.51-2.15,.97-4.13,1.33-5.63,.16-.66,.29-1.21,.38-1.63,.21-.29,.34-.48,.39-.55,1.3-1.83,1.4-1.97,1.4-1.97,0,0,8.06-11.35,12.53-17.65,1.59-2.25,2.57-3.63,3.08-4.36,2.07-2.94,2.92-4.84,4.04-7.72-2.35,2.02-3.86,3.45-5.95,6.37-.52,.72-1.5,2.11-3.1,4.35-4.46,6.3-12.51,17.66-12.51,17.66,0,0-.1,.14-1.4,1.97-.08,.11-.31,.44-.66,.93-.12,.52-.29,1.23-.49,2.06-.36,1.5-.82,3.48-1.33,5.63-1.01,4.29-2.19,9.25-2.91,12.32-.47,2.01-.7,2.97-.84,3.56-.81,3.5-.88,5.58-.85,8.68Z"/>
      <path class="cls-21" d="M989.13,227.03c-.42,3.07-.61,5.14-.24,8.72,.06,.61,.17,1.59,.39,3.64,.19,1.77,.65,5.96,.65,5.96,0,0,.37,3.51,.58,5.45,.3,2.73,.48,4.42,.58,5.31,.4,3.57,1.02,5.56,2.09,8.46,.42-3.07,.61-5.14,.24-8.72-.09-.88-.27-2.58-.56-5.31-.21-1.94-.6-5.45-.6-5.45,0,0-.45-4.19-.64-5.96-.22-2.05-.33-3.03-.4-3.64-.4-3.57-1.02-5.56-2.09-8.46Z"/>
      <path class="cls-21" d="M1094.24,195.84c-.56,.83-.84,1.37-.67,2.15,.21,.84,1.27,5.06,1.27,5.06,0,0,1.05,4.22,1.27,5.06,.21,.77,.71,1.12,1.6,1.59,.56-.83,.84-1.37,.67-2.15-.21-.84-1.27-5.06-1.27-5.06,0,0-1.05-4.22-1.27-5.06-.21-.77-.71-1.12-1.6-1.58Z"/>
      <path class="cls-21" d="M994.32,180.82c-1.03,.12-1.64,.26-2.18,.93-.56,.74-3.37,4.43-3.37,4.43,0,0-2.81,3.69-3.37,4.43-.5,.69-.48,1.32-.32,2.34,1.03-.12,1.64-.26,2.18-.93,.56-.74,3.37-4.43,3.37-4.43,0,0,2.81-3.69,3.37-4.43,.5-.69,.48-1.32,.32-2.34Z"/>
    </g>
  </g>
  <g id="Layer_1" data-name="Layer 1">
    <g>
      <g>
        <path class="cls-34" d="M198.89,799.39s31.3-39.56,84.15,31.56c37.65,50.67,94.7,78.71,78.8,91.78l-35.51,14.36-66.43-35.84-52.19-60.1-8.81-41.76Z"/>
        <path class="cls-35" d="M198.89,799.39s2.87,16.42,13.91,31.31c10.83,14.61,41.08,45.19,41.08,45.19,0,0,43.63,76.85,110.06,45.17l-9.27,10.97s-42.66,33.1-116.48-44.34c0,0-41.03-48.84-49.77-67.35,0,0,.26-7.83,10.48-20.95Z"/>
        <path class="cls-29" d="M338.45,760.05c-.55,.5-1.05,1.06-1.48,1.67l-21.33,22.81s-25.75,22.39-1.6,51.92c.25,.3-.14-.36,0,0l13.99,25.81c.2,.51,.45,1.01,.73,1.48l8.06,13.58c.43,.72,.94,1.39,1.53,1.99l18.93,19.31s3.34,3,5.84,8.9c.66,1.57,1.56,6.16-3.25,4.36,0,0,.49,6.92-7.11,6.63,0,0-2.47,9.96-10.37,.88,0,0-.77,6.12-5.5,5.86-3.33-.19-6.68,.6-8.95,3.04-3.11,3.34-9.5,4.74-22.36-7.4-.6-.56-1.27-1.08-1.99-1.49-5.67-3.26-32.45-19.34-38.15-35.93,0,0-10.46-28.71-34.1-43.93-16.75-10.79-21-28.07-22.05-37.23-.42-3.64,1.18-7.2,4.09-9.43,8.38-6.43,30.98-21.75,44.96-41.66"/>
        <path class="cls-17" d="M330.73,922.38s2.86-6.74-5.66-14.33"/>
        <path class="cls-17" d="M342.39,919.38s-.2-10.71-7.24-15.12"/>
        <path class="cls-17" d="M352.76,918.5s-.08-11.76-7.59-17.06"/>
        <path class="cls-17" d="M359.87,911.87s-.08-8.12-6.15-12.48"/>
        <path class="cls-35" d="M253.45,878.39s33.19-36.23,69.51-25.42l29.94,40.55s-34.69,.51-64.09,20.07c0,0-22.44-11.18-35.36-35.21Z"/>
      </g>
      <g>
        <path class="cls-34" d="M321.18,909.49s6.36-52.65,92.77-17.86c61.56,24.78,128.09,18.62,121.01,39.05l-23.96,32.36-79.23,4.31-79.77-25.25-30.81-32.61Z"/>
        <path class="cls-35" d="M321.18,909.49s11.58,13.15,29.65,20.45c17.72,7.16,61.63,17.98,61.63,17.98,0,0,81.29,44.97,123.47-19.88l-2.3,14.92s-20.09,53.09-128.77,24.15c0,0-63.58-21.28-81.58-33.08,0,0-4.06-7.16-2.1-24.53Z"/>
        <path class="cls-29" d="M421.96,827.35s-12.13,31.22,18.81,45.59l25.82,17.72,16.27,10.21,28.84,9.58s20.82-1.47,23.85,4.71c3.02,6.18,5.87,8.75-4.1,17.39,0,0-4.06,9.25-11.86,6.93,0,0-5.48,7.96-18.24,5.89,0,0-3.27,6.95-16.96,4.47,0,0-4.71,5.21-11.64,2.39,0,0-40.98,3.41-56.18-11.2,0,0-26.29-15.84-51.24-19.16-14.07-1.87-22.74-7.52-27.8-12.46-4.09-4-5.78-9.81-4.47-15.38,2.59-11,7.42-32.95,9.53-51.95"/>
        <path class="cls-17" d="M505.69,915.49l14.76,6.48s9.92,2.19,10.99,10.58"/>
        <path class="cls-17" d="M497.23,920.88s24.69,8.99,23.12,15.27l-.77,3.32"/>
        <path class="cls-17" d="M487.72,929.98s14.13,4.99,13.62,15.38"/>
        <path class="cls-17" d="M479.12,941.19s7.36,2.33,5.26,8.64"/>
        <path class="cls-35" d="M398.75,945.48s14.46-55.34,52.96-65.57l45.15,24.25s-32.53,24.57-48.15,58.23c0,0-25.18-2.46-49.96-16.91Z"/>
      </g>
      <path class="cls-29" d="M486.47,495.26s1.13,1.13,14.68,28.24c0,0,29.18-8.09,101.46-18.26,0,0,3.76-17.69,15.44-22.59l14.68,66.26-22.21,1.88c-27.8,13.3-82.74,47.2-120.09,54.59,0,0-48.56,15.81-71.15-81.32l10.94-16.63"/>
      <path class="cls-29" d="M295.17,212.01s5.16,27.08-11.17,51.03c0,0-14.33,92.79,55.81,108.39,0,0,53.82-30.44,40-92.69l-84.64-66.72Z"/>
      <path class="cls-31" d="M415.49,658.22s7.8-24.22,20.62-150.72c0,0,42.96-9.45,54.31-12.81l-21.46-105.88s-5.21-39.3-38.58-69.79c0,0-15.43-12.52-34.93-23.67l-46.14,21.55,.1,12.83-6.05,23.47-18.56-41.38s-7.19-4.98-51.89-47.79c0,0-63.91,16.81-96.01,43.81,0,0-20.57,14.56-34.87,41.84,0,0-23.89,44.31-38.32,107.96,0,0,42.25,37.58,87.57,42.31l-72.47,38.44-11.27,108.02"/>
      <path class="cls-9" d="M191.3,499.95l11.52,.11c19.98-36.21,61.15-141.68,24.84-177"/>
      <path class="cls-33" d="M458.46,614.79l122.76,51.89s35.44,16.45,26.58,73.4c-8.86,56.95-120.23,62.01-120.23,62.01l-173.33,31.04s-60.2-38.49-64-72.66l208.23-145.69Z"/>
      <path class="cls-33" d="M233.83,594.27l125.33-74.47s105.92-42.77,107.56,56.93-18.66,247.48-22.28,296.09c0,0-58.37,15.16-109.04-2.82,0,0-6.09-61.85-10.99-96.17-4.9-34.32-2.62-60.33-2.62-60.33,0,0-61.86,67.64-150.12,43.12-88.26-24.52-61.47-110.59-61.47-110.59,0,0,63.16-6,123.64-51.76Z"/>
      <path class="cls-10" d="M466.01,619.1s-14.34,153.9-14.34,185.95"/>
      <path class="cls-10" d="M329.8,817.14s-8.51-65.87-8.02-103.63c0,0-37.6,34.56-54.19,36.28"/>
      <line class="cls-9" x1="430.85" y1="408.3" x2="436.12" y2="507.5"/>
      <g>
        <path class="cls-29" d="M109.05,460.99s-24.08,159.07,32.95,173.75,156.4-54.82,156.4-54.82l17.84-8.79c17.72,3.42,40.22-15.19,40.22-15.19,0,0,12.1-4.48,23.68-5.84,15.12-1.77,11.09-9.94,11.09-9.94-7.04-2.29-27.94,2.25-27.94,2.25,7.93-4.49,32.22-6.08,32.22-6.08,5.18,.41,8.37-.77,9.88-1.27,4.53-1.49,5.32-7.46,5.32-7.46,13.69-3.24,7.75-11.22,7.75-11.22,14.16-9.54,2.59-12.13,2.59-12.13l-51.96-1.35s-15.65-2.36-40.85,18.55c-22.78,18.9-33.22,20.68-33.22,20.68,0,0-70.59-2.26-112.94,10.73,0,0,6.54-32.41,9.2-52.91,0,0-46.87-11.67-82.25-38.96Z"/>
        <path class="cls-2" d="M375.63,515.48s30.43-2.54,42.84,.9"/>
        <path class="cls-2" d="M410.72,527.61s-21.35-3.08-40.87-.13"/>
        <path class="cls-2" d="M182.1,552.86s-13.93,3.95-20.71,9.98"/>
      </g>
      <path class="cls-29" d="M439.46,114.23s10.24,22.99-2.89,70.93c0,0-4.31,11.29-4.28,17.84s-2.01,17.05-5.71,23.33c-3.7,6.28-30.03,48.04-30.03,48.04,0,0-8.28,11.98-31.3,7.74-23.02-4.25-40.88-16.46-47.25-27.76-6.37-11.3-24-31.04-23.14-46.32,0,0-14.24,.44-16.6-17.05,0,0-9.86-28.4,6.27-32.15,16.13-3.74,20.71,18.47,20.71,18.47,0,0-5.83-63.89,32.66-80.78,0,0,48.62-26.68,101.54,17.72Z"/>
      <path class="cls-37" d="M382.25,161.8s-17.49-10.55-35.92-7.95c0,0,11.51-10.68,37.89,2.45,0,0,3.68,4.78-1.97,5.5Z"/>
      <path class="cls-37" d="M440.38,174.67c-13.08-5.54-20.75-3.18-20.75-3.18-4.59-3.38,.95-5.77,.95-5.77,9.17,.42,15.96,2.16,20.96,4.35,0,0-.44,4.89-1.16,4.59Z"/>
      <path class="cls-6" d="M281.54,169.56s7.65-6.9,11.61,3.19c3.96,10.09,3.56,13,3.56,13,0,0-5.33-15.77-11.63-5.86"/>
      <path class="cls-40" d="M366.69,281.8s-20.5-2.27-35.26-13.33c0,0-9.36-5.14-19.5-22.99,0,0,8.26,24.95,32.25,33.07,0,0,10.5,4.8,22.51,3.24,0,0-1.03,2.28,0,0Z"/>
      <g>
        <path class="cls-21" d="M356.04,169.21s.11-.53,.6-.88c1.62-1.17,5.21-3.24,9.91-2.2,5.27,1.16,7.08,6.74,7.68,8.72,.1,.34,.03,.61,.03,.61,0,0-.05,.3-.27,.46-1.06,.79-4.46,2.9-9.46,1.88-2.98-.61-6.79-3.12-8.49-7.71-.12-.32-.05-.68,0-.87Z"/>
        <circle class="cls-40" cx="366.7" cy="172.53" r="5.57"/>
        <circle class="cls-21" cx="363.84" cy="169.62" r="1.53"/>
        <path class="cls-15" d="M374.56,174.93s-3.64-13.98-18.11-6.69"/>
      </g>
      <g>
        <path class="cls-21" d="M415.79,187s.03-.51,.43-.91c1.34-1.32,4.38-3.76,8.9-3.47,5.06,.32,7.55,5.26,8.39,7.01,.15,.3,.11,.56,.11,.56,0,0,0,.28-.18,.47-.87,.89-3.73,3.33-8.53,3.1-2.86-.14-6.76-1.93-9-5.96-.16-.28-.15-.62-.13-.81Z"/>
        <circle class="cls-40" cx="426.18" cy="188.56" r="5.23"/>
        <circle class="cls-21" cx="423.51" cy="185.9" r="1.46"/>
        <path class="cls-15" d="M433.58,189.82s-4.95-13.17-17.54-3.53"/>
      </g>
      <path class="cls-27" d="M396.96,246.1s-4.37-12.15-16.48-10.46c0,0-9.17-7.72-26.83,1.02,0,0,4.04,11.26,21.8,14.83s21.51-5.38,21.51-5.38Z"/>
      <path class="cls-23" d="M356.6,237.91s28.15-3.08,38.67,8.7c0,0-10.56-3.08-16.66-1.58,0,0-4.02-4.11-22.01-7.12Z"/>
      <path class="cls-37" d="M303.25,175.2l7.99-1.34c5.24-18.41,17.56-57.57,35.04-70.64,0,0,62.22-11.82,91.37,20.35,0,0,9.49,12.3-.86,61.12,0,0,16.16-31.52,13.53-63.05,0,0,11.09-3.98,13.18-6.65,0,0-12.86-1.21-17.25-9.18-2.57-4.67-40.9-58.5-107.72-33.39,0,0-56.86-1.99-57.67,86.08,0,0,18.39-2.17,22.38,16.69Z"/>
      <path class="cls-6" d="M402.05,190.64l6.16,20.89s2.23,15.29-7.5,15.21c-8.65-.07-8.44-1.91-8.44-1.91"/>
      <path class="cls-37" d="M346.11,232.61s3.07-14.33,15.72-14.01c15.54,.39,31.2,4.2,40.31,13.37,9.11,9.18,13.03,17.29,4.19,14.85-8.85-2.44-22.93-18.79-44.44-15.37,0,0-9.64,5.23-15.78,1.15Z"/>
      <polygon class="cls-24" points="277.21 253.18 288.55 252.47 285.24 265.42 277.21 253.18"/>
      <path class="cls-25" d="M266.58,264.8s54.11,40.35,63.58,61.26l.28-19.8s-39.98-31.44-53.23-53.07l-10.63,11.61Z"/>
      <path class="cls-13" d="M344.26,380.21s1.35,39.06-3.38,128.26"/>
      <ellipse class="cls-22" cx="333.66" cy="400.73" rx="3.73" ry="3.45" transform="translate(-96.66 695.25) rotate(-84.61)"/>
      <ellipse class="cls-22" cx="331.31" cy="474.44" rx="3.73" ry="3.45" transform="translate(-172.17 759.7) rotate(-84.61)"/>
      <g>
        <rect class="cls-22" x="261.95" y="511.75" width="14.86" height="14.86" transform="translate(-277.02 310.47) rotate(-41.67)"/>
        <rect class="cls-38" x="271.75" y="522.97" width="14.86" height="14.86" transform="translate(-282 319.82) rotate(-41.67)"/>
        <rect class="cls-22" x="282.86" y="512.96" width="14.86" height="14.86" transform="translate(-272.54 324.68) rotate(-41.67)"/>
        <rect class="cls-22" x="263.16" y="490.93" width="14.86" height="14.86" transform="translate(-262.88 306.01) rotate(-41.67)"/>
        <rect class="cls-38" x="272.96" y="502.15" width="14.86" height="14.86" transform="translate(-267.85 315.36) rotate(-41.67)"/>
        <rect class="cls-22" x="284.07" y="492.15" width="14.86" height="14.86" transform="translate(-258.39 320.22) rotate(-41.67)"/>
        <rect class="cls-22" x="264.38" y="470.05" width="14.86" height="14.86" transform="translate(-248.68 301.53) rotate(-41.67)"/>
        <rect class="cls-38" x="274.17" y="481.26" width="14.86" height="14.86" transform="translate(-253.66 310.88) rotate(-41.67)"/>
        <rect class="cls-22" x="285.28" y="471.26" width="14.86" height="14.86" transform="translate(-244.2 315.74) rotate(-41.67)"/>
        <rect class="cls-22" x="265.59" y="449.23" width="14.86" height="14.86" transform="translate(-234.54 297.07) rotate(-41.67)"/>
        <rect class="cls-38" x="275.38" y="460.45" width="14.86" height="14.86" transform="translate(-239.51 306.42) rotate(-41.67)"/>
        <rect class="cls-22" x="286.49" y="450.45" width="14.86" height="14.86" transform="translate(-230.05 311.28) rotate(-41.67)"/>
        <rect class="cls-22" x="266.76" y="427.97" width="14.86" height="14.86" transform="translate(-220.1 292.47) rotate(-41.67)"/>
        <rect class="cls-38" x="276.55" y="439.19" width="14.86" height="14.86" transform="translate(-225.08 301.82) rotate(-41.67)"/>
        <rect class="cls-22" x="287.66" y="429.19" width="14.86" height="14.86" transform="translate(-215.62 306.68) rotate(-41.67)"/>
        <rect class="cls-22" x="268.05" y="406.97" width="14.86" height="14.86" transform="translate(-205.81 288.01) rotate(-41.67)"/>
        <rect class="cls-38" x="277.84" y="418.18" width="14.86" height="14.86" transform="translate(-210.79 297.36) rotate(-41.67)"/>
        <rect class="cls-22" x="288.95" y="408.18" width="14.86" height="14.86" transform="translate(-201.33 302.22) rotate(-41.67)"/>
        <rect class="cls-22" x="269.26" y="386.08" width="14.86" height="14.86" transform="translate(-191.62 283.53) rotate(-41.67)"/>
        <rect class="cls-38" x="279.05" y="397.3" width="14.86" height="14.86" transform="translate(-196.6 292.88) rotate(-41.67)"/>
        <rect class="cls-22" x="290.17" y="387.3" width="14.86" height="14.86" transform="translate(-187.14 297.74) rotate(-41.67)"/>
        <rect class="cls-22" x="270.47" y="365.19" width="14.86" height="14.86" transform="translate(-177.42 279.06) rotate(-41.67)"/>
        <rect class="cls-38" x="280.27" y="376.41" width="14.86" height="14.86" transform="translate(-182.4 288.41) rotate(-41.67)"/>
        <rect class="cls-22" x="291.38" y="366.41" width="14.86" height="14.86" transform="translate(-172.94 293.26) rotate(-41.67)"/>
        <rect class="cls-22" x="271.69" y="344.31" width="14.86" height="14.86" transform="translate(-163.23 274.58) rotate(-41.67)"/>
        <rect class="cls-38" x="281.48" y="355.52" width="14.86" height="14.86" transform="translate(-168.21 283.93) rotate(-41.67)"/>
        <rect class="cls-22" x="292.6" y="345.52" width="14.86" height="14.86" transform="translate(-158.75 288.79) rotate(-41.67)"/>
        <rect class="cls-22" x="272.9" y="323.49" width="14.86" height="14.86" transform="translate(-149.08 270.12) rotate(-41.67)"/>
        <rect class="cls-38" x="282.69" y="334.71" width="14.86" height="14.86" transform="translate(-154.06 279.47) rotate(-41.67)"/>
        <rect class="cls-22" x="293.81" y="324.71" width="14.86" height="14.86" transform="translate(-144.6 284.32) rotate(-41.67)"/>
        <rect class="cls-22" x="274.11" y="302.61" width="14.86" height="14.86" transform="translate(-134.89 265.64) rotate(-41.67)"/>
        <rect class="cls-38" x="283.91" y="313.82" width="14.86" height="14.86" transform="translate(-139.87 274.99) rotate(-41.67)"/>
        <rect class="cls-22" x="295.02" y="303.82" width="14.86" height="14.86" transform="translate(-130.41 279.85) rotate(-41.67)"/>
        <rect class="cls-22" x="275.37" y="281.79" width="14.86" height="14.86" transform="translate(-120.73 261.21) rotate(-41.67)"/>
        <rect class="cls-38" x="285.16" y="293.01" width="14.86" height="14.86" transform="translate(-125.71 270.56) rotate(-41.67)"/>
        <polyline class="cls-38" points="295.26 287.99 293.28 289.82 283.4 278.72 283.98 278.21"/>
        <polygon class="cls-22" points="303.09 300.93 293.21 289.83 295.26 287.99 306.29 298.15 303.09 300.93"/>
      </g>
      <g>
        <polyline class="cls-22" points="205.21 491.7 187.35 497.23 181.37 477.88 200.02 472.11 205.78 490.66"/>
        <polygon class="cls-38" points="211.33 478.28 205.78 490.66 200.12 472.28 215.85 467.39 211.33 478.28"/>
        <polyline class="cls-22" points="215.82 467.29 199.98 472.2 193.99 452.85 212.64 447.08 217.53 462.88"/>
        <rect class="cls-22" x="159.29" y="460.87" width="19.53" height="20.25" transform="translate(-131.67 71.02) rotate(-17.19)"/>
        <rect class="cls-38" x="178.04" y="455.27" width="19.53" height="20.25" transform="translate(-129.18 76.31) rotate(-17.19)"/>
        <rect class="cls-22" x="171.91" y="435.84" width="19.53" height="20.25" transform="translate(-123.71 73.63) rotate(-17.19)"/>
        <rect class="cls-22" x="134.76" y="447.36" width="19.53" height="20.25" transform="translate(-128.77 63.16) rotate(-17.19)"/>
        <rect class="cls-38" x="153.51" y="441.76" width="19.53" height="20.25" transform="translate(-126.28 68.46) rotate(-17.19)"/>
        <rect class="cls-22" x="147.38" y="422.33" width="19.53" height="20.25" transform="translate(-120.81 65.78) rotate(-17.19)"/>
        <rect class="cls-38" x="128.97" y="428.24" width="19.53" height="20.25" transform="translate(-123.38 60.6) rotate(-17.19)"/>
        <rect class="cls-22" x="110.08" y="434.03" width="19.53" height="20.25" transform="translate(-125.94 55.27) rotate(-17.19)"/>
        <rect class="cls-22" x="122.7" y="409" width="19.53" height="20.25" transform="translate(-117.97 57.89) rotate(-17.19)"/>
        <polyline class="cls-38" points="115.68 413.94 120.39 412.48 126.38 431.82 107.72 437.59"/>
      </g>
    </g>
    <g>
      <path class="cls-29" d="M737.71,912.46s-2.67-10.95-2.67-16.24c0,0,15.64-74.62,13-115.8,0,0-3.17-28.51,4.22-52.27,0,0-55.44-10.56-69.16-1.58,0,0,.76,52.74,3.55,66.63,2.8,13.89,10.23,68.11,14.96,119.27,0,0,14.69,26.45,36.11,0Z"/>
      <path class="cls-29" d="M693.18,904.59s-2.67-10.95-2.67-16.24c0,0,15.64-74.62,13-115.8,0,0-3.17-28.51,4.22-52.27,0,0-55.44-10.56-69.16-1.58,0,0-2.42,52.48,.37,66.36,2.8,13.89,13.41,68.37,18.14,119.53,0,0,14.69,26.45,36.11,0Z"/>
      <path class="cls-33" d="M694.22,929.67s2.24,3.35,1.42,7.27c0,0-18.53,10.09-32.11,5.56,0,0-36.44,15.65-48.38,7.21,0,0-8.23-4.73-6.38-9.88"/>
      <path class="cls-35" d="M690.35,904.05s8.22,9.67,3.87,25.62c0,0-19.82,9.18-31.9,7.25,0,0-11.76,7.63-21.75,9.18,0,0-23.69,6.77-30.45-3.87-6.77-10.63,14.99-20.3,14.99-20.3l31.9-17.89s14.99,16.92,33.36,0Z"/>
      <path class="cls-21" d="M646.56,909.91s1.18,5.68,5.68,7.25c0,0-.39,2.94-2.94,2.35,0,0-5.88-2.74-6.07-7.44,0,0,0-2.55,3.33-2.15Z"/>
      <path class="cls-21" d="M640.49,912.66s1.18,5.68,5.68,7.25c0,0-.39,2.94-2.94,2.35,0,0-5.88-2.74-6.07-7.44,0,0,0-2.55,3.33-2.15Z"/>
      <path class="cls-36" d="M741.9,940.19s2.43,3.63,1.53,7.86c0,0-20.06,10.92-34.76,6.02,0,0-39.44,16.94-52.37,7.8,0,0-8.91-5.13-6.91-10.7"/>
      <path class="cls-35" d="M737.71,912.46s8.9,10.47,4.19,27.73c0,0-21.45,9.94-34.54,7.85,0,0-12.73,8.26-23.55,9.94,0,0-25.64,7.33-32.97-4.19-7.33-11.51,16.22-21.98,16.22-21.98l34.54-19.36s16.22,18.31,36.11,0Z"/>
      <path class="cls-21" d="M690.31,918.8s1.27,6.15,6.15,7.84c0,0-.42,3.18-3.18,2.54,0,0-6.36-2.97-6.57-8.06,0,0,0-2.76,3.6-2.33Z"/>
      <path class="cls-21" d="M683.74,921.77s1.27,6.15,6.15,7.84c0,0-.42,3.18-3.18,2.54,0,0-6.36-2.97-6.57-8.06,0,0,0-2.76,3.6-2.33Z"/>
      <path class="cls-29" d="M730.51,362.16s-9.63,10.38-4.37,28.07c0,0-3.83,33.8-43.5,40.61,0,0-43.42-6.87-18.75-37.78,0,0,3.9-1.7,3.03-8.31,0,0,45.43-8.21,63.59-22.59Z"/>
      <path class="cls-35" d="M630.21,771.38s-9.19-9.39-11.56-27.85l-6.34-116.09s47.07,34.24,161.94-6.62c0,0,12.02,45.81-2.09,99.68,0,0-5.56,27.36-11.12,50.02,0,0-49.17,14.11-73.96,3.85l-1.15-7.82,.1,8.11s-32.35,5.18-55.81-3.28Z"/>
      <path class="cls-29" d="M660.21,273.88s-11.69,6.97-15.3,32.72c-3.61,25.75-3.78,31.86-2.68,53.16,1.1,21.3,31.47,28.24,31.47,28.24,0,0,47.02-1.94,56.82-25.85,0,0,8.91,14.15,21.09-1.68,0,0,13.75-17.31,5.03-23.64,0,0-9.67-5.33-17.26,4.64,0,0,12.66-43.34-1.29-52.52,0,0-31.55-41.62-77.87-15.08Z"/>
      <path class="cls-40" d="M691.32,313.06s18.08-.43,25.07,5.65c0,0-4.42-8.24-24.83-8.91,0,0-3.89,1.28-.24,3.27Z"/>
      <path class="cls-40" d="M645.32,306.19c.44-.7,9.71-.52,18.11,1.11,0,0,3.62,2.13-.53,3.24,0,0-15.09-4.58-17.73-.97,0,0-.95-1.65,.14-3.38Z"/>
      <path class="cls-3" d="M665.18,332.41s-9.65,11.22,4.48,14.35"/>
      <path class="cls-3" d="M754.46,345.94s-2.92-11.8-13.74,5.34c0,0,8.32-7.15,8.81-.12"/>
      <path class="cls-40" d="M666.03,385.56s12.56,2.93,22.18,.62c0,0,8.4-.69,19.51-5.32,0,0-8.11,6.86-22.88,9.31,0,0-9.7,2.24-18.04-1.07,0,0-.63-.89-.77-3.54Z"/>
      <path class="cls-11" d="M686.43,771.71s-5.7-44.47-1.13-70.02c0,0-9.14-2.61-11.53-8.97"/>
      <path class="cls-17" d="M696.48,857.32s-10.26-53.01-9.83-64.13c.43-11.12-.22-21.48-.22-21.48"/>
      <path class="cls-20" d="M760.74,627.82s3.41,89.55-18.01,146.5l12.65-2.92s26.28-99.77,14.11-147.96l-8.76,4.38Z"/>
      <path class="cls-19" d="M609.65,436.25s6.85-31.88,54.25-43.19c0,0-14.85,20.51,9.9,26.17,0,0,37.49,8.49,52.34-29,0,0,46.86,17,63.65,51.95,17.22,35.86,20.05,53.36,20.05,53.36,0,0-24.28,29.79-52.57,22.71,0,0,22.64,50.93,23.34,100.44,0,0-118.84,45.98-170.47,6.37,0,0,9.2-67.2,8.49-106.81,0,0-10.1-60.27-8.98-82.01"/>
      <path class="cls-35" d="M726.14,390.23s-10.31,33.03-52.34,29c0,0-23-4.37-9.9-26.17,0,0-5.41,.85-7.09,1.97,0,0-14.2,24.97,16.14,30.3,0,0,33.81,3.43,49.82-16.8,0,0,7.02-9.27,9.27-16.29l-5.89-2.01Z"/>
      <g>
        <path class="cls-21" d="M707.57,326.29s.07-.43-.19-.83c-.87-1.34-2.94-3.93-6.75-4.53-4.27-.67-7.24,2.97-8.27,4.28-.18,.22-.2,.44-.2,.44,0,0-.05,.24,.07,.42,.56,.9,2.48,3.46,6.51,4.15,2.4,.41,5.98-.35,8.58-3.29,.18-.2,.24-.49,.26-.65Z"/>
        <circle class="cls-40" cx="698.65" cy="325.66" r="4.46"/>
        <circle class="cls-21" cx="701.48" cy="327.55" r="1.22"/>
        <path class="cls-14" d="M692.09,325.17s6.79-9.37,15.46,.28"/>
      </g>
      <g>
        <path class="cls-21" d="M660.92,321.2s.13-.38-.06-.79c-.6-1.36-2.15-4.02-5.56-5.1-3.82-1.21-7.06,1.7-8.18,2.75-.19,.18-.24,.38-.24,.38,0,0-.08,.21,0,.4,.38,.9,1.79,3.52,5.39,4.73,2.14,.72,5.53,.52,8.33-1.8,.19-.16,.29-.42,.33-.56Z"/>
        <circle class="cls-40" cx="652.83" cy="319.36" r="4.13"/>
        <circle class="cls-21" cx="655.32" cy="321.05" r="1.16"/>
        <path class="cls-14" d="M647.02,318.17s7.42-8.27,13.92,2.43"/>
      </g>
      <g>
        <path class="cls-30" d="M658.76,360.86s5.99-6.39,13.25-3.65c0,0,5.87-3.41,16.07,7.49,0,0-4.83,6.18-16.4,4.57-11.57-1.6-12.92-8.41-12.92-8.41Z"/>
        <path class="cls-23" d="M659.82,361.2s11.73-5.98,26.71,3.6c0,0-8.77-.12-12.76,.79s-6.46-1.57-6.46-1.57c0,0-3.62-2.33-7.49-2.82Z"/>
        <path class="cls-21" d="M665.16,359.72s6.86-1.5,14,1.63l-14-1.63Z"/>
      </g>
      <line class="cls-12" x1="757.18" y1="517.43" x2="748.57" y2="470.98"/>
      <path class="cls-18" d="M792.05,556.25s2.82-1.69,7.06-3.11"/>
      <path class="cls-16" d="M652.57,940.81s16.09-13.55,42.07-24.56"/>
      <path class="cls-34" d="M652.86,283.31s-3.03-16.91,24.07-29.55c0,0,28.16-15.82,57.11,7.31,0,0,29.29,7.75,26.08,35.7,0,0-15.05-16.53-28.75-2.08,0,0-9.13-18.06-29.2-10.64,0,0-16.64,4.12-27.4,10.44,0,0-8.94-13.79-21.92-11.18Z"/>
      <path class="cls-1" d="M756.43,280.56s16.58,13.19,2.39,59.6c0,0-9.19-14.49-21.22,8.45l-1.73-9.75s8.91-30.22-8.36-50.6l28.92-7.71Z"/>
      <g>
        <path class="cls-28" d="M697.71,525.26s-7.29-21.13-3.53-33.46l-7.52,.45s-8.34,29.54,11.05,33.01Z"/>
        <path class="cls-28" d="M671.73,524.23l.2-5.52s-7.07-5.56-5.71-25.56l-10.83,1.05s-2.06,34.49,16.34,30.03Z"/>
        <path class="cls-26" d="M635.24,497.23s80.67-8.82,105.67-5.48c0,0-81.48-7.15-103.63-2.38,0,0-8.13,2.15-2.03,7.87Z"/>
        <path class="cls-39" d="M737.49,491.16s12.3,1.16,14.46,11.47c0,0-19.28,4.32-14.46-11.47Z"/>
        <path class="cls-39" d="M723.32,491.19s10.64-3.32,11.14-14.79c0,0-17.45-2.99-11.14,14.79Z"/>
        <path class="cls-32" d="M697.71,525.26s-2.06-18.52,16.72-21.1c18.78-2.57,25.47,14.92,25.47,14.92,0,0,4.89,22.64-11.06,24.18-15.95,1.54-22.13,7.72-22.13,7.72,0,0-20.33,16.72-37.56,13.38-17.24-3.34-27.79-9.78-30.1-25.99-2.32-16.21,.51-39.36,5.92-46.57,0,0,2.83-8.75,6.69-6.95s3.34,12.86,3.34,12.86c0,0,.4,18.78,6.43,22.64,6.43,4.12,10.29,3.86,10.29,3.86,0,0,.77-30.36,7.46-35.5,6.69-5.15,9,2.32,9,2.32,0,0-4.97,7.33-1.8,20.33,2.57,10.55,7.98,12.09,7.98,12.09l3.34,1.8Z"/>
        <path class="cls-21" d="M723.79,516.18s11.35,2.37,11.35,9.62c0,7.25-.79,13.56-12.3,13.25-11.51-.32-20.34-12.14-20.34-12.14,0,0-3.31-10.72,2.68-13.88,5.99-3.15,16.08-4.1,18.61,3.15Z"/>
        <path class="cls-34" d="M734.98,533.87s-2.38-9.22-6.99-9.73c-4.61-.5-5.55,2.67-5.55,2.67,0,0-.5,2.88,3.68,5.4,4.18,2.52,3.68,6.13,3.68,6.13,0,0,3.75-.36,5.19-4.47Z"/>
        <path class="cls-34" d="M703.48,516.1s10.58-2.2,12.56,1.65-2.2,5.95-2.2,5.95c0,0-6.06-1.54-11.9-.77,0,0-1.65-3.75,1.54-6.83Z"/>
        <path class="cls-34" d="M715.49,531.53s6.28,.33,4.3-2.64c-1.98-2.97-5.4-2.42-5.4-2.42,0,0-1.54,.99,1.1,5.07Z"/>
        <path class="cls-7" d="M715.49,531.53c-.44,4.85,5.73,2.53,5.73,2.53"/>
        <path class="cls-7" d="M709.98,528.99s2.12,4.03,5.86,2.8"/>
        <circle class="cls-21" cx="726.79" cy="528.21" r="2.17"/>
        <circle class="cls-34" cx="726.71" cy="528.18" r="1.42"/>
        <circle class="cls-21" cx="727.69" cy="528.14" r=".82"/>
        <circle class="cls-21" cx="711.98" cy="519.96" r="2.17"/>
        <circle class="cls-34" cx="711.89" cy="519.93" r="1.42"/>
        <circle class="cls-21" cx="712.87" cy="519.89" r=".82"/>
      </g>
      <g>
        <path class="cls-29" d="M596.86,416.15c-24.86-16.93-42.87-58.72-42.87-58.72-7.93-11.53-1.8-18.73-1.8-18.73,9.73-24.14,67.55-80.34,67.55-80.34,0,0,8.43-9.2,28.37-16.21,22.07-7.76,39.18-7.03,39.18-7.03l30.8,10.94s5.54,2.16,2.52,7.26c0,0,2,6.82-7.98,5.6,0,0-2.01,3.81-5.42,3.68-1.14-.04-3.56-.04-6.93-1.6,0,0-16.67-4.95-23.09-3.91,0,0,15.12,2.14,19.27,5.42,0,0,.67,6.47-9.89,3.91-8.1-1.96-17.31-1.96-17.31-1.96,0,0-19.81,10.66-29.81,10.12,0,0-28.91,66.65-41.16,74.93,0,0,16.57,11.17,26.3,20.17"/>
        <path class="cls-2" d="M692.14,242.1s21.01,5.84,28.47,11.22"/>
        <path class="cls-2" d="M712.63,258.92s-13.54-7.36-27.34-10.22"/>
      </g>
      <path class="cls-19" d="M613.23,357.29s-20.33,25.6-37.65,37.27c0,0,14.26,23.93,21.36,28.99,9.51,6.78,13.27,27.48,13.27,27.48,0,0,17.85-46.69,46.82-55.7,0,0-11.05-15.93-21.22-18.47,0,0-17.98-16.38-22.59-19.58Z"/>
      <path class="cls-12" d="M610.21,451.03s0-20.33,6.78-32.38"/>
      <g>
        <circle class="cls-21" cx="726.99" cy="577.77" r="67.56"/>
        <polygon class="cls-34" points="724.11 536.38 701.33 553.81 710.86 580.86 739.54 580.15 747.73 552.66 724.11 536.38"/>
        <path class="cls-34" d="M678.44,624.74l-.1-25.03,24.79,3.9,10.43,22.66-7.68,16.6s-15.58-5.25-27.44-18.13Z"/>
        <path class="cls-34" d="M779.36,620.46l-1.41-22.5-24.62,4.86-9.54,23.04,11.43,13.24s12.79-5.32,24.14-18.65Z"/>
        <path class="cls-34" d="M677.91,533.08l7.59,17.05-15.42,24.19-11.47-4.07s.21-22.19,19.3-37.17Z"/>
        <path class="cls-34" d="M771.22,529.04l.39,21.28,14.49,20.96,9.44-4.49s-6.66-28.7-24.33-37.75Z"/>
        <line class="cls-4" x1="710.86" y1="580.86" x2="703.13" y2="603.61"/>
        <line class="cls-4" x1="739.54" y1="580.15" x2="753.32" y2="602.83"/>
        <line class="cls-4" x1="777.95" y1="597.97" x2="786.11" y2="571.28"/>
        <line class="cls-4" x1="743.78" y1="625.87" x2="713.56" y2="626.26"/>
        <line class="cls-4" x1="678.34" y1="599.71" x2="670.08" y2="574.32"/>
        <line class="cls-4" x1="685.49" y1="550.13" x2="701.33" y2="553.81"/>
        <path class="cls-4" d="M724.11,536.38l-3.19-17.36-15.42-3.18s8.59-5.71,31-3.17l-13,6.08"/>
        <line class="cls-4" x1="747.73" y1="552.66" x2="771.61" y2="550.32"/>
      </g>
      <path class="cls-29" d="M792.05,556.25l-46.14,31.02s-15.25-11.92-28.08-7.08c0,0-7.56,3.59,1.53,8.09,0,0,13.51,1.04,3.86,7.07-9.65,6.03-16.93,5.71-16.93,5.71l-14.86-3.25s-5.67-.59-3.31,5.68c0,0-4.88,4.23,3.22,7.64,0,0,.72,5.52,7.82,8.98,0,0,5.35,7.86,9.42,8.71,4.07,.85,34.5-7.9,34.5-7.9l10.51-7.37,2.35-4.85s59.62-12.76,68.58-30.41-16.66-81.32-16.66-81.32c-23.36,14.28-50.68,20.47-50.68,20.47,0,0,26.96,15.39,34.87,38.82Z"/>
      <path class="cls-18" d="M688.12,603.47s13.77,6.98,26.95,3.33"/>
      <path class="cls-18" d="M691.31,610.93s15.24,6.18,27.55,1.35"/>
      <polyline class="cls-18" points="699.16 620.09 713.82 621.9 722.04 618.23"/>
    </g>
    <path class="cls-25" d="M380.62,281.71s23.53,1.9,20.91,16.99l-52.11,31.03-.1-12.83s23.89-8.72,40.82-25.32c0,0-9.79-2.48-9.52-9.87Z"/>
  </g>
</svg>